<?xml version="1.0" encoding="utf-8" ?>
<svg baseProfile="tiny" height="694" version="1.2" viewBox="0 0 2288 1551" width="1024" xmlns="http://www.w3.org/2000/svg" xmlns:ev="http://www.w3.org/2001/xml-events" xmlns:xlink="http://www.w3.org/1999/xlink"><defs /><line stroke="#d00" stroke-width="20" x1="390.0" x2="425.0" y1="637.0" y2="551.0" /><line stroke="#333" stroke-width="10" x1="302.0" x2="390.0" y1="669.0" y2="637.0" /><line stroke="#666" stroke-width="20" x1="197.0" x2="302.0" y1="629.0" y2="669.0" /><line stroke="#333" stroke-width="10" x1="174.0" x2="197.0" y1="549.0" y2="629.0" /><line stroke="#333" stroke-width="10" x1="206.0" x2="174.0" y1="453.0" y2="549.0" /><line stroke="#333" stroke-width="10" x1="302.0" x2="206.0" y1="421.0" y2="453.0" /><line stroke="#333" stroke-width="10" x1="390.0" x2="302.0" y1="453.0" y2="421.0" /><line stroke="#333" stroke-width="10" x1="430.0" x2="390.0" y1="549.0" y2="453.0" /><line stroke="#333" stroke-width="10" x1="128.0" x2="166.0" y1="1079.0" y2="989.0" /><line stroke="#333" stroke-width="10" x1="197.0" x2="5.0" y1="629.0" y2="1022.0" /><line stroke="#333" stroke-width="10" x1="5.0" x2="128.0" y1="1022.0" y2="1079.0" /><line stroke="#333" stroke-width="10" x1="166.0" x2="623.0" y1="989.0" y2="1190.0" /><line stroke="#333" stroke-width="10" x1="214.0" x2="302.0" y1="869.0" y2="669.0" /><line stroke="#333" stroke-width="10" x1="623.0" x2="782.0" y1="1190.0" y2="821.0" /><line stroke="#333" stroke-width="10" x1="539.0" x2="214.0" y1="1022.0" y2="869.0" /><line stroke="#333" stroke-width="10" x1="731.0" x2="539.0" y1="641.0" y2="1022.0" /><line stroke="#333" stroke-width="10" x1="390.0" x2="413.0" y1="637.0" y2="656.0" /><line stroke="#d00" stroke-width="20" x1="453.0" x2="413.0" y1="563.0" y2="656.0" /><line stroke="#333" stroke-width="10" x1="453.0" x2="425.0" y1="563.0" y2="551.0" /><line stroke="#333" stroke-width="10" x1="425.0" x2="430.0" y1="551.0" y2="549.0" /><line stroke="#333" stroke-width="10" x1="248.0" x2="530.0" y1="848.0" y2="977.0" /><line stroke="#333" stroke-width="10" x1="530.0" x2="692.0" y1="977.0" y2="623.0" /><line stroke="#333" stroke-width="10" x1="692.0" x2="667.0" y1="623.0" y2="506.0" /><line stroke="#333" stroke-width="10" x1="323.0" x2="248.0" y1="695.0" y2="848.0" /><line stroke="#333" stroke-width="10" x1="413.0" x2="354.0" y1="656.0" y2="679.0" /><line stroke="#333" stroke-width="10" x1="757.0" x2="747.0" y1="464.0" y2="392.0" /><line stroke="#333" stroke-width="10" x1="667.0" x2="757.0" y1="506.0" y2="464.0" /><line stroke="#0d0" stroke-width="20" x1="568.0" x2="667.0" y1="462.0" y2="506.0" /><line stroke="#333" stroke-width="10" x1="542.0" x2="568.0" y1="413.0" y2="462.0" /><line stroke="#333" stroke-width="10" x1="562.0" x2="542.0" y1="343.0" y2="413.0" /><line stroke="#333" stroke-width="10" x1="634.0" x2="562.0" y1="287.0" y2="343.0" /><line stroke="#333" stroke-width="10" x1="716.0" x2="634.0" y1="310.0" y2="287.0" /><line stroke="#333" stroke-width="10" x1="747.0" x2="716.0" y1="392.0" y2="310.0" /><line stroke="#333" stroke-width="10" x1="568.0" x2="483.0" y1="462.0" y2="546.0" /><line stroke="#333" stroke-width="10" x1="782.0" x2="882.0" y1="821.0" y2="878.0" /><line stroke="#666" stroke-width="20" x1="939.0" x2="882.0" y1="743.0" y2="878.0" /><line stroke="#333" stroke-width="10" x1="939.0" x2="731.0" y1="743.0" y2="641.0" /><line stroke="#999" stroke-width="3" x1="1085.0" x2="1231.0" y1="1079.0" y2="1025.0" /><line stroke="#333" stroke-width="10" x1="924.0" x2="1085.0" y1="950.0" y2="1079.0" /><line stroke="#333" stroke-width="10" x1="882.0" x2="924.0" y1="878.0" y2="950.0" /><line stroke="#333" stroke-width="10" x1="1049.0" x2="939.0" y1="595.0" y2="743.0" /><line stroke="#333" stroke-width="10" x1="1221.0" x2="1049.0" y1="743.0" y2="595.0" /><line stroke="#999" stroke-width="3" x1="1287.0" x2="1221.0" y1="888.0" y2="743.0" /><line stroke="#333" stroke-width="10" x1="1085.0" x2="1110.0" y1="1079.0" y2="1130.0" /><line stroke="#999" stroke-width="3" x1="1254.0" x2="1110.0" y1="1067.0" y2="1130.0" /><line stroke="#333" stroke-width="10" x1="1254.0" x2="1231.0" y1="1067.0" y2="1025.0" /><line stroke="#333" stroke-width="10" x1="1260.0" x2="1221.0" y1="707.0" y2="743.0" /><line stroke="#999" stroke-width="3" x1="1260.0" x2="1332.0" y1="707.0" y2="857.0" /><line stroke="#333" stroke-width="10" x1="1287.0" x2="1332.0" y1="888.0" y2="857.0" /><line stroke="#333" stroke-width="10" x1="1227.0" x2="1260.0" y1="644.0" y2="707.0" /><line stroke="#333" stroke-width="10" x1="1359.0" x2="1777.0" y1="908.0" y2="708.0" /><line stroke="#333" stroke-width="10" x1="1777.0" x2="1648.0" y1="708.0" y2="459.0" /><line stroke="#333" stroke-width="10" x1="1648.0" x2="1227.0" y1="459.0" y2="644.0" /><line stroke="#333" stroke-width="10" x1="1332.0" x2="1359.0" y1="857.0" y2="908.0" /><line stroke="#666" stroke-width="20" x1="924.0" x2="1049.0" y1="950.0" y2="595.0" /><line stroke="#333" stroke-width="10" x1="1258.0" x2="1561.0" y1="1546.0" y2="1420.0" /><line stroke="#333" stroke-width="10" x1="1561.0" x2="1349.0" y1="1420.0" y2="1030.0" /><line stroke="#333" stroke-width="10" x1="1349.0" x2="1254.0" y1="1030.0" y2="1067.0" /><line stroke="#333" stroke-width="10" x1="1050.0" x2="1258.0" y1="1154.0" y2="1546.0" /><line stroke="#333" stroke-width="10" x1="1110.0" x2="1050.0" y1="1130.0" y2="1154.0" /><line stroke="#333" stroke-width="10" x1="483.0" x2="578.0" y1="546.0" y2="553.0" /><line stroke="#333" stroke-width="10" x1="578.0" x2="564.0" y1="553.0" y2="710.0" /><line stroke="#333" stroke-width="10" x1="564.0" x2="469.0" y1="710.0" y2="703.0" /><line stroke="#333" stroke-width="10" x1="469.0" x2="483.0" y1="703.0" y2="546.0" /><line stroke="#333" stroke-width="10" x1="483.0" x2="453.0" y1="546.0" y2="563.0" /><line stroke="#333" stroke-width="10" x1="471.0" x2="417.0" y1="817.0" y2="858.0" /><line stroke="#333" stroke-width="10" x1="417.0" x2="354.0" y1="858.0" y2="679.0" /><line stroke="#333" stroke-width="10" x1="354.0" x2="471.0" y1="679.0" y2="817.0" /><line stroke="#333" stroke-width="10" x1="354.0" x2="323.0" y1="679.0" y2="695.0" /><line stroke="#333" stroke-width="10" x1="1231.0" x2="1359.0" y1="1025.0" y2="1000.0" /><line stroke="#333" stroke-width="10" x1="1463.0" x2="1479.0" y1="1094.0" y2="1058.0" /><line stroke="#333" stroke-width="10" x1="1487.0" x2="1367.0" y1="897.0" y2="926.0" /><line stroke="#d00" stroke-width="20" x1="1231.0" x2="1287.0" y1="1025.0" y2="888.0" /><line stroke="#333" stroke-width="10" x1="1359.0" x2="1463.0" y1="1000.0" y2="1094.0" /><line stroke="#333" stroke-width="10" x1="1367.0" x2="1287.0" y1="926.0" y2="888.0" /><line stroke="#333" stroke-width="10" x1="1500.0" x2="1487.0" y1="932.0" y2="897.0" /><line stroke="#333" stroke-width="10" x1="1479.0" x2="1992.0" y1="1058.0" y2="1121.0" /><line stroke="#333" stroke-width="10" x1="1992.0" x2="2027.0" y1="1121.0" y2="440.0" /><line stroke="#999" stroke-width="3" x1="2035.0" x2="1915.0" y1="294.0" y2="292.0" /><line stroke="#333" stroke-width="10" x1="1848.0" x2="1500.0" y1="974.0" y2="932.0" /><line stroke="#333" stroke-width="10" x1="1905.0" x2="1848.0" y1="409.0" y2="974.0" /><line stroke="#333" stroke-width="10" x1="1247.0" x2="1905.0" y1="397.0" y2="409.0" /><line stroke="#999" stroke-width="3" x1="1247.0" x2="1250.0" y1="397.0" y2="262.0" /><line stroke="#333" stroke-width="10" x1="1102.0" x2="1151.0" y1="509.0" y2="468.0" /><line stroke="#333" stroke-width="10" x1="1030.0" x2="1102.0" y1="581.0" y2="509.0" /><line stroke="#333" stroke-width="10" x1="934.0" x2="1030.0" y1="605.0" y2="581.0" /><line stroke="#333" stroke-width="10" x1="846.0" x2="934.0" y1="581.0" y2="605.0" /><line stroke="#333" stroke-width="10" x1="782.0" x2="846.0" y1="509.0" y2="581.0" /><line stroke="#999" stroke-width="3" x1="842.0" x2="793.0" y1="205.0" y2="290.0" /><line stroke="#333" stroke-width="10" x1="926.0" x2="842.0" y1="166.0" y2="205.0" /><line stroke="#333" stroke-width="10" x1="1040.0" x2="926.0" y1="187.0" y2="166.0" /><line stroke="#333" stroke-width="10" x1="1112.0" x2="1040.0" y1="235.0" y2="187.0" /><line stroke="#333" stroke-width="10" x1="1250.0" x2="1214.0" y1="262.0" y2="253.0" /><line stroke="#999" stroke-width="3" x1="1071.0" x2="1101.0" y1="228.0" y2="246.0" /><line stroke="#999" stroke-width="3" x1="1101.0" x2="1099.0" y1="246.0" y2="488.0" /><line stroke="#999" stroke-width="3" x1="1099.0" x2="1067.0" y1="488.0" y2="520.0" /><line stroke="#333" stroke-width="10" x1="708.0" x2="793.0" y1="240.0" y2="290.0" /><line stroke="#333" stroke-width="10" x1="842.0" x2="811.0" y1="205.0" y2="190.0" /><line stroke="#333" stroke-width="10" x1="748.0" x2="708.0" y1="164.0" y2="240.0" /><line stroke="#333" stroke-width="10" x1="793.0" x2="782.0" y1="290.0" y2="509.0" /><line stroke="#999" stroke-width="3" x1="1067.0" x2="1071.0" y1="520.0" y2="228.0" /><line stroke="#999" stroke-width="3" x1="1051.0" x2="941.0" y1="536.0" y2="584.0" /><line stroke="#999" stroke-width="3" x1="941.0" x2="859.0" y1="584.0" y2="564.0" /><line stroke="#999" stroke-width="3" x1="859.0" x2="801.0" y1="564.0" y2="502.0" /><line stroke="#999" stroke-width="3" x1="801.0" x2="803.0" y1="502.0" y2="320.0" /><line stroke="#999" stroke-width="3" x1="803.0" x2="851.0" y1="320.0" y2="222.0" /><line stroke="#999" stroke-width="3" x1="851.0" x2="943.0" y1="222.0" y2="188.0" /><line stroke="#999" stroke-width="3" x1="943.0" x2="1049.0" y1="188.0" y2="228.0" /><line stroke="#999" stroke-width="3" x1="1049.0" x2="1051.0" y1="228.0" y2="536.0" /><line stroke="#333" stroke-width="10" x1="1213.0" x2="1247.0" y1="422.0" y2="397.0" /><line stroke="#333" stroke-width="10" x1="1214.0" x2="1157.0" y1="253.0" y2="246.0" /><line stroke="#333" stroke-width="10" x1="1157.0" x2="1112.0" y1="246.0" y2="235.0" /><line stroke="#333" stroke-width="10" x1="1151.0" x2="1213.0" y1="468.0" y2="422.0" /><line stroke="#999" stroke-width="3" x1="1157.0" x2="1151.0" y1="246.0" y2="468.0" /><line stroke="#999" stroke-width="3" x1="1214.0" x2="1213.0" y1="253.0" y2="422.0" /><line stroke="#333" stroke-width="10" x1="811.0" x2="843.0" y1="190.0" y2="132.0" /><line stroke="#333" stroke-width="10" x1="836.0" x2="784.0" y1="5.0" y2="101.0" /><line stroke="#333" stroke-width="10" x1="896.0" x2="836.0" y1="39.0" y2="5.0" /><line stroke="#333" stroke-width="10" x1="843.0" x2="896.0" y1="132.0" y2="39.0" /><line stroke="#333" stroke-width="10" x1="784.0" x2="748.0" y1="101.0" y2="164.0" /><line stroke="#999" stroke-width="3" x1="784.0" x2="843.0" y1="101.0" y2="132.0" /><line stroke="#333" stroke-width="10" x1="2027.0" x2="2177.0" y1="440.0" y2="446.0" /><line stroke="#333" stroke-width="10" x1="2283.0" x2="2283.0" y1="176.0" y2="12.0" /><line stroke="#333" stroke-width="10" x1="1934.0" x2="1915.0" y1="93.0" y2="292.0" /><line stroke="#333" stroke-width="10" x1="1915.0" x2="1250.0" y1="292.0" y2="262.0" /><line stroke="#999" stroke-width="3" x1="2027.0" x2="2035.0" y1="440.0" y2="294.0" /><line stroke="#333" stroke-width="10" x1="2177.0" x2="2189.0" y1="446.0" y2="176.0" /><line stroke="#333" stroke-width="10" x1="2189.0" x2="2283.0" y1="176.0" y2="176.0" /><line stroke="#333" stroke-width="10" x1="2113.0" x2="1934.0" y1="94.0" y2="93.0" /><line stroke="#333" stroke-width="10" x1="2283.0" x2="2113.0" y1="12.0" y2="12.0" /><line stroke="#333" stroke-width="10" x1="2113.0" x2="2113.0" y1="12.0" y2="94.0" /><ellipse cx="302.0" cy="541.0" fill="#009" rx="12" ry="24" stroke="#009" stroke-width="5" /><ellipse cx="476.0" cy="897.0" fill="#900" rx="12" ry="24" stroke="#900" stroke-width="5" /><rect fill="#900" height="48" stroke="#900" stroke-width="5" transform="rotate(225,564.0,813.0)" width="32" x="548.0" y="789.0" /><rect fill="#900" height="48" stroke="#900" stroke-width="5" transform="rotate(0,644.0,409.0)" width="32" x="628.0" y="385.0" /><rect fill="#900" height="48" stroke="#900" stroke-width="5" transform="rotate(225,1300.0,1216.0)" width="32" x="1284.0" y="1192.0" /><rect fill="#900" height="48" stroke="#900" stroke-width="5" transform="rotate(225,1294.0,1318.0)" width="32" x="1278.0" y="1294.0" /><rect fill="#900" height="48" stroke="#900" stroke-width="5" transform="rotate(225,1405.0,1279.0)" width="32" x="1389.0" y="1255.0" /><rect fill="#900" height="48" stroke="#900" stroke-width="5" transform="rotate(225,1168.0,1222.0)" width="32" x="1152.0" y="1198.0" /><rect fill="#900" height="48" stroke="#900" stroke-width="5" transform="rotate(225,1231.0,1147.0)" width="32" x="1215.0" y="1123.0" /><rect fill="#900" height="48" stroke="#900" stroke-width="5" transform="rotate(225,1305.0,1093.0)" width="32" x="1289.0" y="1069.0" /><rect fill="#900" height="48" stroke="#900" stroke-width="5" transform="rotate(225,1351.0,1372.0)" width="32" x="1335.0" y="1348.0" /><rect fill="#900" height="48" stroke="#900" stroke-width="5" transform="rotate(225,1285.0,1456.0)" width="32" x="1269.0" y="1432.0" /><rect fill="#900" height="48" stroke="#900" stroke-width="5" transform="rotate(225,1465.0,1384.0)" width="32" x="1449.0" y="1360.0" /><rect fill="#900" height="48" stroke="#900" stroke-width="5" transform="rotate(225,1195.0,1306.0)" width="32" x="1179.0" y="1282.0" /><rect fill="#900" height="48" stroke="#900" stroke-width="5" transform="rotate(225,1372.0,1177.0)" width="32" x="1356.0" y="1153.0" /><rect fill="#090" height="24" stroke="#090" stroke-width="5" transform="rotate(135,1522.0,666.0)" width="24" x="1510.0" y="654.0" /><rect fill="#090" height="24" stroke="#090" stroke-width="5" transform="rotate(135,1684.0,687.0)" width="24" x="1672.0" y="675.0" /><rect fill="#090" height="24" stroke="#090" stroke-width="5" transform="rotate(135,1612.0,543.0)" width="24" x="1600.0" y="531.0" /><rect fill="#900" height="48" stroke="#900" stroke-width="5" transform="rotate(135,1411.0,672.0)" width="32" x="1395.0" y="648.0" /><rect fill="#900" height="48" stroke="#900" stroke-width="5" transform="rotate(135,1432.0,801.0)" width="32" x="1416.0" y="777.0" /><rect fill="#900" height="48" stroke="#900" stroke-width="5" transform="rotate(135,1582.0,738.0)" width="32" x="1566.0" y="714.0" /><rect fill="#900" height="48" stroke="#900" stroke-width="5" transform="rotate(135,1306.0,666.0)" width="32" x="1290.0" y="642.0" /><rect fill="#900" height="48" stroke="#900" stroke-width="5" transform="rotate(135,1513.0,561.0)" width="32" x="1497.0" y="537.0" /><rect fill="#900" height="48" stroke="#900" stroke-width="5" transform="rotate(135,1606.0,633.0)" width="32" x="1590.0" y="609.0" /><rect fill="#900" height="48" stroke="#900" stroke-width="5" transform="rotate(135,1333.0,753.0)" width="32" x="1317.0" y="729.0" /><rect fill="#900" height="48" stroke="#900" stroke-width="5" transform="rotate(135,1486.0,738.0)" width="32" x="1470.0" y="714.0" /><ellipse cx="1672.0" cy="597.0" fill="#090" rx="12" ry="24" stroke="#090" stroke-width="5" /><circle cx="993.0" cy="864.0" fill="#900" r="16" stroke="#900" stroke-width="5" /><circle cx="1105.0" cy="888.0" fill="#900" r="16" stroke="#900" stroke-width="5" /><circle cx="1381.0" cy="1441.0" fill="#009" r="16" stroke="#009" stroke-width="5" /><ellipse cx="785.0" cy="232.0" fill="#090" rx="12" ry="24" stroke="#090" stroke-width="5" /><rect fill="#900" height="48" stroke="#900" stroke-width="5" transform="rotate(0,911.0,509.0)" width="32" x="895.0" y="485.0" /><rect fill="#900" height="48" stroke="#900" stroke-width="5" transform="rotate(0,914.0,295.0)" width="32" x="898.0" y="271.0" /><circle cx="1149.0" cy="346.0" fill="#009" r="16" stroke="#009" stroke-width="5" /><circle cx="2097.0" cy="374.0" fill="#009" r="16" stroke="#009" stroke-width="5" /><circle cx="2105.0" cy="234.0" fill="#090" r="16" stroke="#090" stroke-width="5" /><circle cx="2105.0" cy="302.0" fill="#090" r="16" stroke="#090" stroke-width="5" /><circle cx="1979.0" cy="232.0" fill="#090" r="16" stroke="#090" stroke-width="5" /><circle cx="2053.0" cy="236.0" fill="#090" r="16" stroke="#090" stroke-width="5" /><rect fill="#090" height="24" stroke="#090" stroke-width="5" transform="rotate(0,1983.0,166.0)" width="24" x="1971.0" y="154.0" /><circle cx="2123.0" cy="164.0" fill="#900" r="16" stroke="#900" stroke-width="5" /><rect fill="#090" height="24" stroke="#090" stroke-width="5" transform="rotate(0,2201.0,94.0)" width="24" x="2189.0" y="82.0" /><rect fill="#090" height="24" stroke="#090" stroke-width="5" transform="rotate(90,371.0,555.0)" width="24" x="359.0" y="543.0" /><rect fill="#090" height="24" stroke="#090" stroke-width="5" transform="rotate(90,239.0,538.0)" width="24" x="227.0" y="526.0" /><rect fill="#090" height="24" stroke="#090" stroke-width="5" transform="rotate(225,1203.0,924.0)" width="24" x="1191.0" y="912.0" /><rect fill="#090" height="24" stroke="#090" stroke-width="5" transform="rotate(90,843.0,62.0)" width="24" x="831.0" y="50.0" /><rect fill="#090" height="24" stroke="#090" stroke-width="5" transform="rotate(90,337.0,786.0)" width="24" x="325.0" y="774.0" /></svg>