<?xml version="1.0" encoding="utf-8" ?>
<svg baseProfile="tiny" height="1024" version="1.2" viewBox="0 0 3866 3874" width="1021" xmlns="http://www.w3.org/2000/svg" xmlns:ev="http://www.w3.org/2001/xml-events" xmlns:xlink="http://www.w3.org/1999/xlink"><defs /><line stroke="#333" stroke-width="10" x1="5.0" x2="2333.0" y1="3869.0" y2="3869.0" /><line stroke="#333" stroke-width="10" x1="3861.0" x2="3861.0" y1="3869.0" y2="5.0" /><line stroke="#333" stroke-width="10" x1="3861.0" x2="21.0" y1="5.0" y2="5.0" /><line stroke="#333" stroke-width="10" x1="21.0" x2="5.0" y1="5.0" y2="3869.0" /><line stroke="#999" stroke-width="3" x1="3741.0" x2="133.0" y1="3741.0" y2="3749.0" /><line stroke="#999" stroke-width="3" x1="3741.0" x2="3741.0" y1="157.0" y2="3741.0" /><line stroke="#999" stroke-width="3" x1="165.0" x2="3741.0" y1="165.0" y2="157.0" /><line stroke="#999" stroke-width="3" x1="133.0" x2="165.0" y1="3749.0" y2="165.0" /><line stroke="#999" stroke-width="3" x1="3605.0" x2="261.0" y1="3613.0" y2="3621.0" /><line stroke="#999" stroke-width="3" x1="3605.0" x2="3605.0" y1="293.0" y2="3613.0" /><line stroke="#999" stroke-width="3" x1="285.0" x2="3605.0" y1="293.0" y2="293.0" /><line stroke="#999" stroke-width="3" x1="261.0" x2="285.0" y1="3621.0" y2="293.0" /><line stroke="#999" stroke-width="3" x1="3477.0" x2="389.0" y1="3501.0" y2="3501.0" /><line stroke="#999" stroke-width="3" x1="3477.0" x2="3477.0" y1="413.0" y2="3501.0" /><line stroke="#999" stroke-width="3" x1="421.0" x2="3477.0" y1="413.0" y2="413.0" /><line stroke="#999" stroke-width="3" x1="389.0" x2="421.0" y1="3501.0" y2="413.0" /><line stroke="#999" stroke-width="3" x1="3341.0" x2="525.0" y1="3365.0" y2="3365.0" /><line stroke="#999" stroke-width="3" x1="3341.0" x2="3341.0" y1="541.0" y2="3365.0" /><line stroke="#999" stroke-width="3" x1="549.0" x2="3341.0" y1="541.0" y2="541.0" /><line stroke="#999" stroke-width="3" x1="525.0" x2="549.0" y1="3365.0" y2="541.0" /><line stroke="#999" stroke-width="3" x1="3205.0" x2="645.0" y1="3237.0" y2="3237.0" /><line stroke="#999" stroke-width="3" x1="3205.0" x2="3205.0" y1="677.0" y2="3237.0" /><line stroke="#999" stroke-width="3" x1="677.0" x2="3205.0" y1="677.0" y2="677.0" /><line stroke="#999" stroke-width="3" x1="645.0" x2="677.0" y1="3237.0" y2="677.0" /><line stroke="#999" stroke-width="3" x1="773.0" x2="3093.0" y1="3101.0" y2="3101.0" /><line stroke="#999" stroke-width="3" x1="3093.0" x2="3093.0" y1="3101.0" y2="797.0" /><line stroke="#999" stroke-width="3" x1="3093.0" x2="797.0" y1="797.0" y2="797.0" /><line stroke="#999" stroke-width="3" x1="797.0" x2="773.0" y1="797.0" y2="3101.0" /><line stroke="#999" stroke-width="3" x1="2973.0" x2="901.0" y1="2973.0" y2="2965.0" /><line stroke="#999" stroke-width="3" x1="2973.0" x2="2973.0" y1="917.0" y2="2973.0" /><line stroke="#999" stroke-width="3" x1="925.0" x2="2973.0" y1="917.0" y2="917.0" /><line stroke="#999" stroke-width="3" x1="901.0" x2="925.0" y1="2965.0" y2="917.0" /><line stroke="#999" stroke-width="3" x1="2845.0" x2="1037.0" y1="2837.0" y2="2837.0" /><line stroke="#999" stroke-width="3" x1="2845.0" x2="2845.0" y1="1053.0" y2="2837.0" /><line stroke="#999" stroke-width="3" x1="1053.0" x2="2845.0" y1="1053.0" y2="1053.0" /><line stroke="#999" stroke-width="3" x1="1037.0" x2="1053.0" y1="2837.0" y2="1053.0" /><line stroke="#999" stroke-width="3" x1="2709.0" x2="1173.0" y1="2709.0" y2="2709.0" /><line stroke="#999" stroke-width="3" x1="2701.0" x2="2709.0" y1="1189.0" y2="2709.0" /><line stroke="#999" stroke-width="3" x1="1173.0" x2="2701.0" y1="1181.0" y2="1189.0" /><line stroke="#999" stroke-width="3" x1="1173.0" x2="1173.0" y1="2709.0" y2="1181.0" /><line stroke="#999" stroke-width="3" x1="2573.0" x2="1285.0" y1="2589.0" y2="2589.0" /><line stroke="#999" stroke-width="3" x1="2573.0" x2="2573.0" y1="1309.0" y2="2589.0" /><line stroke="#999" stroke-width="3" x1="1317.0" x2="2573.0" y1="1317.0" y2="1309.0" /><line stroke="#999" stroke-width="3" x1="1285.0" x2="1317.0" y1="2589.0" y2="1317.0" /><line stroke="#0d0" stroke-width="20" x1="2333.0" x2="2589.0" y1="3869.0" y2="3869.0" /><line stroke="#999" stroke-width="3" x1="2333.0" x2="2333.0" y1="3813.0" y2="3869.0" /><line stroke="#999" stroke-width="3" x1="2333.0" x2="2589.0" y1="3813.0" y2="3813.0" /><line stroke="#999" stroke-width="3" x1="2589.0" x2="2589.0" y1="3869.0" y2="3813.0" /><line stroke="#333" stroke-width="10" x1="2589.0" x2="3861.0" y1="3869.0" y2="3869.0" /><circle cx="1001.0" cy="129.0" fill="#900" r="16" stroke="#900" stroke-width="5" /><circle cx="2309.0" cy="369.0" fill="#009" r="16" stroke="#009" stroke-width="5" /><circle cx="857.0" cy="1425.0" fill="#009" r="16" stroke="#009" stroke-width="5" /><circle cx="1649.0" cy="3057.0" fill="#009" r="16" stroke="#009" stroke-width="5" /><circle cx="3281.0" cy="2553.0" fill="#009" r="16" stroke="#009" stroke-width="5" /><circle cx="3521.0" cy="921.0" fill="#009" r="16" stroke="#009" stroke-width="5" /><circle cx="281.0" cy="285.0" fill="#009" r="16" stroke="#009" stroke-width="5" /><circle cx="185.0" cy="2937.0" fill="#009" r="16" stroke="#009" stroke-width="5" /><circle cx="1265.0" cy="537.0" fill="#009" r="16" stroke="#009" stroke-width="5" /><circle cx="1121.0" cy="3369.0" fill="#009" r="16" stroke="#009" stroke-width="5" /><circle cx="3677.0" cy="2769.0" fill="#009" r="16" stroke="#009" stroke-width="5" /><circle cx="449.0" cy="1053.0" fill="#009" r="16" stroke="#009" stroke-width="5" /><rect fill="#090" height="24" stroke="#090" stroke-width="5" transform="rotate(0,1733.0,225.0)" width="24" x="1721.0" y="213.0" /><rect fill="#090" height="24" stroke="#090" stroke-width="5" transform="rotate(0,3281.0,789.0)" width="24" x="3269.0" y="777.0" /><rect fill="#090" height="24" stroke="#090" stroke-width="5" transform="rotate(0,2897.0,2949.0)" width="24" x="2885.0" y="2937.0" /><rect fill="#090" height="24" stroke="#090" stroke-width="5" transform="rotate(0,641.0,2961.0)" width="24" x="629.0" y="2949.0" /><rect fill="#090" height="24" stroke="#090" stroke-width="5" transform="rotate(0,473.0,1953.0)" width="24" x="461.0" y="1941.0" /><rect fill="#090" height="24" stroke="#090" stroke-width="5" transform="rotate(0,209.0,945.0)" width="24" x="197.0" y="933.0" /><rect fill="#090" height="24" stroke="#090" stroke-width="5" transform="rotate(0,2321.0,3825.0)" width="24" x="2309.0" y="3813.0" /><rect fill="#090" height="24" stroke="#090" stroke-width="5" transform="rotate(0,2789.0,3309.0)" width="24" x="2777.0" y="3297.0" /><rect fill="#090" height="24" stroke="#090" stroke-width="5" transform="rotate(0,1733.0,861.0)" width="24" x="1721.0" y="849.0" /><rect fill="#090" height="24" stroke="#090" stroke-width="5" transform="rotate(0,545.0,3537.0)" width="24" x="533.0" y="3525.0" /><rect fill="#090" height="24" stroke="#090" stroke-width="5" transform="rotate(0,3773.0,705.0)" width="24" x="3761.0" y="693.0" /><rect fill="#090" height="24" stroke="#090" stroke-width="5" transform="rotate(0,1121.0,117.0)" width="24" x="1109.0" y="105.0" /><rect fill="#090" height="24" stroke="#090" stroke-width="5" transform="rotate(0,845.0,105.0)" width="24" x="833.0" y="93.0" /><rect fill="#090" height="24" stroke="#090" stroke-width="5" transform="rotate(0,29.0,1425.0)" width="24" x="17.0" y="1413.0" /><rect fill="#090" height="24" stroke="#090" stroke-width="5" transform="rotate(0,89.0,1701.0)" width="24" x="77.0" y="1689.0" /><rect fill="#090" height="24" stroke="#090" stroke-width="5" transform="rotate(0,2177.0,3825.0)" width="24" x="2165.0" y="3813.0" /><rect fill="#090" height="24" stroke="#090" stroke-width="5" transform="rotate(0,3809.0,969.0)" width="24" x="3797.0" y="957.0" /><circle cx="2717.0" cy="141.0" fill="#009" r="16" stroke="#009" stroke-width="5" /><circle cx="1649.0" cy="3777.0" fill="#009" r="16" stroke="#009" stroke-width="5" /><circle cx="1181.0" cy="93.0" fill="#090" r="16" stroke="#090" stroke-width="5" /><circle cx="2225.0" cy="3837.0" fill="#090" r="16" stroke="#090" stroke-width="5" /><circle cx="3785.0" cy="921.0" fill="#090" r="16" stroke="#090" stroke-width="5" /><circle cx="41.0" cy="1653.0" fill="#090" r="16" stroke="#090" stroke-width="5" /><rect fill="#900" height="48" stroke="#900" stroke-width="5" transform="rotate(0,2201.0,81.0)" width="32" x="2185.0" y="57.0" /><rect fill="#900" height="48" stroke="#900" stroke-width="5" transform="rotate(270,3785.0,1317.0)" width="32" x="3769.0" y="1293.0" /><rect fill="#900" height="48" stroke="#900" stroke-width="5" transform="rotate(180,1841.0,3825.0)" width="32" x="1825.0" y="3801.0" /><rect fill="#900" height="48" stroke="#900" stroke-width="5" transform="rotate(90,65.0,2577.0)" width="32" x="49.0" y="2553.0" /><rect fill="#900" height="48" stroke="#900" stroke-width="5" transform="rotate(0,89.0,1281.0)" width="32" x="73.0" y="1257.0" /><circle cx="1843.0" cy="2059.0" fill="#900" r="16" stroke="#900" stroke-width="5" /><circle cx="1875.0" cy="2059.0" fill="#900" r="16" stroke="#900" stroke-width="5" /><circle cx="1841.0" cy="2039.0" fill="#900" r="16" stroke="#900" stroke-width="5" /><circle cx="1853.0" cy="2023.0" fill="#900" r="16" stroke="#900" stroke-width="5" /><circle cx="1873.0" cy="2025.0" fill="#009" r="16" stroke="#009" stroke-width="5" /><circle cx="1887.0" cy="2035.0" fill="#009" r="16" stroke="#009" stroke-width="5" /><circle cx="1857.0" cy="2047.0" fill="#900" r="16" stroke="#900" stroke-width="5" /><circle cx="1873.0" cy="2003.0" fill="#090" r="16" stroke="#090" stroke-width="5" /><circle cx="1891.0" cy="2017.0" fill="#090" r="16" stroke="#090" stroke-width="5" /><circle cx="1905.0" cy="2039.0" fill="#090" r="16" stroke="#090" stroke-width="5" /><rect fill="#900" height="48" stroke="#900" stroke-width="5" transform="rotate(180,1823.0,2064.0)" width="32" x="1807.0" y="2040.0" /><rect fill="#900" height="48" stroke="#900" stroke-width="5" transform="rotate(135,1820.0,2080.0)" width="32" x="1804.0" y="2056.0" /><rect fill="#900" height="48" stroke="#900" stroke-width="5" transform="rotate(180,1819.0,2050.0)" width="32" x="1803.0" y="2026.0" /><rect fill="#900" height="48" stroke="#900" stroke-width="5" transform="rotate(90,1834.0,2081.0)" width="32" x="1818.0" y="2057.0" /><rect fill="#900" height="48" stroke="#900" stroke-width="5" transform="rotate(90,1908.0,2084.0)" width="32" x="1892.0" y="2060.0" /><rect fill="#900" height="48" stroke="#900" stroke-width="5" transform="rotate(45,1923.0,2083.0)" width="32" x="1907.0" y="2059.0" /><rect fill="#900" height="48" stroke="#900" stroke-width="5" transform="rotate(0,1923.0,2069.0)" width="32" x="1907.0" y="2045.0" /><rect fill="#900" height="48" stroke="#900" stroke-width="5" transform="rotate(0,1923.0,2050.0)" width="32" x="1907.0" y="2026.0" /><rect fill="#900" height="48" stroke="#900" stroke-width="5" transform="rotate(0,1925.0,1999.0)" width="32" x="1909.0" y="1975.0" /><rect fill="#900" height="48" stroke="#900" stroke-width="5" transform="rotate(0,1925.0,1983.0)" width="32" x="1909.0" y="1959.0" /><rect fill="#900" height="48" stroke="#900" stroke-width="5" transform="rotate(315,1923.0,1966.0)" width="32" x="1907.0" y="1942.0" /><rect fill="#900" height="48" stroke="#900" stroke-width="5" transform="rotate(270,1905.0,1966.0)" width="32" x="1889.0" y="1942.0" /><rect fill="#900" height="48" stroke="#900" stroke-width="5" transform="rotate(315,1846.0,1967.0)" width="32" x="1830.0" y="1943.0" /><rect fill="#900" height="48" stroke="#900" stroke-width="5" transform="rotate(270,1832.0,1967.0)" width="32" x="1816.0" y="1943.0" /><rect fill="#900" height="48" stroke="#900" stroke-width="5" transform="rotate(225,1816.0,1967.0)" width="32" x="1800.0" y="1943.0" /><rect fill="#900" height="48" stroke="#900" stroke-width="5" transform="rotate(180,1812.0,1985.0)" width="32" x="1796.0" y="1961.0" /><rect fill="#900" height="48" stroke="#900" stroke-width="5" transform="rotate(135,1846.0,2094.0)" width="32" x="1830.0" y="2070.0" /><rect fill="#900" height="48" stroke="#900" stroke-width="5" transform="rotate(135,1862.0,2096.0)" width="32" x="1846.0" y="2072.0" /><rect fill="#900" height="48" stroke="#900" stroke-width="5" transform="rotate(90,1876.0,2097.0)" width="32" x="1860.0" y="2073.0" /><rect fill="#900" height="48" stroke="#900" stroke-width="5" transform="rotate(90,1887.0,2098.0)" width="32" x="1871.0" y="2074.0" /><rect fill="#900" height="48" stroke="#900" stroke-width="5" transform="rotate(45,1898.0,2098.0)" width="32" x="1882.0" y="2074.0" /><rect fill="#900" height="48" stroke="#900" stroke-width="5" transform="rotate(45,1913.0,2098.0)" width="32" x="1897.0" y="2074.0" /><rect fill="#900" height="48" stroke="#900" stroke-width="5" transform="rotate(225,1845.0,1951.0)" width="32" x="1829.0" y="1927.0" /><rect fill="#900" height="48" stroke="#900" stroke-width="5" transform="rotate(270,1854.0,1951.0)" width="32" x="1838.0" y="1927.0" /><rect fill="#900" height="48" stroke="#900" stroke-width="5" transform="rotate(270,1865.0,1951.0)" width="32" x="1849.0" y="1927.0" /><rect fill="#900" height="48" stroke="#900" stroke-width="5" transform="rotate(270,1873.0,1951.0)" width="32" x="1857.0" y="1927.0" /><rect fill="#900" height="48" stroke="#900" stroke-width="5" transform="rotate(315,1882.0,1951.0)" width="32" x="1866.0" y="1927.0" /><rect fill="#900" height="48" stroke="#900" stroke-width="5" transform="rotate(315,1893.0,1950.0)" width="32" x="1877.0" y="1926.0" /><circle cx="1836.0" cy="2026.0" fill="#009" r="16" stroke="#009" stroke-width="5" /><circle cx="1837.0" cy="2019.0" fill="#009" r="16" stroke="#009" stroke-width="5" /><circle cx="1838.0" cy="2011.0" fill="#009" r="16" stroke="#009" stroke-width="5" /><circle cx="1840.0" cy="2001.0" fill="#009" r="16" stroke="#009" stroke-width="5" /><circle cx="1918.0" cy="2035.0" fill="#009" r="16" stroke="#009" stroke-width="5" /><circle cx="1915.0" cy="2027.0" fill="#009" r="16" stroke="#009" stroke-width="5" /><circle cx="1909.0" cy="2018.0" fill="#009" r="16" stroke="#009" stroke-width="5" /><circle cx="1901.0" cy="2003.0" fill="#009" r="16" stroke="#009" stroke-width="5" /><circle cx="1848.0" cy="2068.0" fill="#009" r="16" stroke="#009" stroke-width="5" /><circle cx="1858.0" cy="2068.0" fill="#009" r="16" stroke="#009" stroke-width="5" /><circle cx="1868.0" cy="2068.0" fill="#009" r="16" stroke="#009" stroke-width="5" /><circle cx="1880.0" cy="2068.0" fill="#009" r="16" stroke="#009" stroke-width="5" /><circle cx="1873.0" cy="2035.0" fill="#009" r="16" stroke="#009" stroke-width="5" /><rect fill="#900" height="48" stroke="#900" stroke-width="5" transform="rotate(135,1305.0,2565.0)" width="32" x="1289.0" y="2541.0" /><rect fill="#900" height="48" stroke="#900" stroke-width="5" transform="rotate(135,1305.0,2513.0)" width="32" x="1289.0" y="2489.0" /><rect fill="#900" height="48" stroke="#900" stroke-width="5" transform="rotate(135,1345.0,2569.0)" width="32" x="1329.0" y="2545.0" /><rect fill="#900" height="48" stroke="#900" stroke-width="5" transform="rotate(45,2541.0,2569.0)" width="32" x="2525.0" y="2545.0" /><rect fill="#900" height="48" stroke="#900" stroke-width="5" transform="rotate(45,2481.0,2569.0)" width="32" x="2465.0" y="2545.0" /><rect fill="#900" height="48" stroke="#900" stroke-width="5" transform="rotate(45,2537.0,2525.0)" width="32" x="2521.0" y="2501.0" /><rect fill="#900" height="48" stroke="#900" stroke-width="5" transform="rotate(315,2541.0,1333.0)" width="32" x="2525.0" y="1309.0" /><rect fill="#900" height="48" stroke="#900" stroke-width="5" transform="rotate(315,2533.0,1389.0)" width="32" x="2517.0" y="1365.0" /><rect fill="#900" height="48" stroke="#900" stroke-width="5" transform="rotate(315,2485.0,1337.0)" width="32" x="2469.0" y="1313.0" /><rect fill="#900" height="48" stroke="#900" stroke-width="5" transform="rotate(225,1329.0,1353.0)" width="32" x="1313.0" y="1329.0" /><rect fill="#900" height="48" stroke="#900" stroke-width="5" transform="rotate(225,1329.0,1409.0)" width="32" x="1313.0" y="1385.0" /><rect fill="#900" height="48" stroke="#900" stroke-width="5" transform="rotate(225,1373.0,1349.0)" width="32" x="1357.0" y="1325.0" /><rect fill="#900" height="48" stroke="#900" stroke-width="5" transform="rotate(180,1317.0,2065.0)" width="32" x="1301.0" y="2041.0" /><rect fill="#900" height="48" stroke="#900" stroke-width="5" transform="rotate(180,1317.0,2009.0)" width="32" x="1301.0" y="1985.0" /><rect fill="#900" height="48" stroke="#900" stroke-width="5" transform="rotate(180,1321.0,1949.0)" width="32" x="1305.0" y="1925.0" /><rect fill="#900" height="48" stroke="#900" stroke-width="5" transform="rotate(90,1801.0,2577.0)" width="32" x="1785.0" y="2553.0" /><rect fill="#900" height="48" stroke="#900" stroke-width="5" transform="rotate(90,1845.0,2573.0)" width="32" x="1829.0" y="2549.0" /><rect fill="#900" height="48" stroke="#900" stroke-width="5" transform="rotate(90,1897.0,2569.0)" width="32" x="1881.0" y="2545.0" /><rect fill="#900" height="48" stroke="#900" stroke-width="5" transform="rotate(0,2549.0,2089.0)" width="32" x="2533.0" y="2065.0" /><rect fill="#900" height="48" stroke="#900" stroke-width="5" transform="rotate(0,2545.0,2029.0)" width="32" x="2529.0" y="2005.0" /><rect fill="#900" height="48" stroke="#900" stroke-width="5" transform="rotate(0,2545.0,1957.0)" width="32" x="2529.0" y="1933.0" /><rect fill="#900" height="48" stroke="#900" stroke-width="5" transform="rotate(270,1821.0,1345.0)" width="32" x="1805.0" y="1321.0" /><rect fill="#900" height="48" stroke="#900" stroke-width="5" transform="rotate(270,1861.0,1349.0)" width="32" x="1845.0" y="1325.0" /><rect fill="#900" height="48" stroke="#900" stroke-width="5" transform="rotate(270,1917.0,1349.0)" width="32" x="1901.0" y="1325.0" /><rect fill="#900" height="48" stroke="#900" stroke-width="5" transform="rotate(0,2006.0,93.0)" width="32" x="1990.0" y="69.0" /><rect fill="#900" height="48" stroke="#900" stroke-width="5" transform="rotate(0,2213.0,3783.0)" width="32" x="2197.0" y="3759.0" /><circle cx="2117.0" cy="3833.0" fill="#900" r="16" stroke="#900" stroke-width="5" /><rect fill="#090" height="24" stroke="#090" stroke-width="5" transform="rotate(0,3765.0,3837.0)" width="24" x="3753.0" y="3825.0" /><rect fill="#090" height="24" stroke="#090" stroke-width="5" transform="rotate(0,3745.0,49.0)" width="24" x="3733.0" y="37.0" /><rect fill="#090" height="24" stroke="#090" stroke-width="5" transform="rotate(0,61.0,49.0)" width="24" x="49.0" y="37.0" /><rect fill="#090" height="24" stroke="#090" stroke-width="5" transform="rotate(0,29.0,3769.0)" width="24" x="17.0" y="3757.0" /><rect fill="#090" height="24" stroke="#090" stroke-width="5" transform="rotate(0,3809.0,3805.0)" width="24" x="3797.0" y="3793.0" /><rect fill="#090" height="24" stroke="#090" stroke-width="5" transform="rotate(0,3805.0,109.0)" width="24" x="3793.0" y="97.0" /><rect fill="#090" height="24" stroke="#090" stroke-width="5" transform="rotate(0,61.0,121.0)" width="24" x="49.0" y="109.0" /><rect fill="#090" height="24" stroke="#090" stroke-width="5" transform="rotate(0,29.0,3825.0)" width="24" x="17.0" y="3813.0" /><ellipse cx="81.0" cy="3825.0" fill="#009" rx="12" ry="24" stroke="#009" stroke-width="5" /><ellipse cx="145.0" cy="3825.0" fill="#009" rx="12" ry="24" stroke="#009" stroke-width="5" /><ellipse cx="21.0" cy="3657.0" fill="#009" rx="12" ry="24" stroke="#009" stroke-width="5" /><ellipse cx="25.0" cy="3701.0" fill="#009" rx="12" ry="24" stroke="#009" stroke-width="5" /><circle cx="1569.0" cy="2033.0" fill="#009" r="16" stroke="#009" stroke-width="5" /><circle cx="2161.0" cy="2025.0" fill="#009" r="16" stroke="#009" stroke-width="5" /><rect fill="#900" height="48" stroke="#900" stroke-width="5" transform="rotate(90,3779.0,1947.0)" width="32" x="3763.0" y="1923.0" /><rect fill="#090" height="24" stroke="#090" stroke-width="5" transform="rotate(180,1592.0,1677.0)" width="24" x="1580.0" y="1665.0" /><rect fill="#090" height="24" stroke="#090" stroke-width="5" transform="rotate(315,2177.0,1668.0)" width="24" x="2165.0" y="1656.0" /><rect fill="#090" height="24" stroke="#090" stroke-width="5" transform="rotate(90,2168.0,2316.0)" width="24" x="2156.0" y="2304.0" /><rect fill="#090" height="24" stroke="#090" stroke-width="5" transform="rotate(135,1601.0,2334.0)" width="24" x="1589.0" y="2322.0" /><rect fill="#090" height="24" stroke="#090" stroke-width="5" transform="rotate(0,2471.0,3823.0)" width="24" x="2459.0" y="3811.0" /><circle cx="62.0" cy="3792.0" fill="#900" r="16" stroke="#900" stroke-width="5" /><circle cx="3761.0" cy="3792.0" fill="#900" r="16" stroke="#900" stroke-width="5" /><circle cx="3725.0" cy="111.0" fill="#900" r="16" stroke="#900" stroke-width="5" /><circle cx="98.0" cy="111.0" fill="#900" r="16" stroke="#900" stroke-width="5" /><circle cx="3801.0" cy="841.0" fill="#900" r="16" stroke="#900" stroke-width="5" /><circle cx="65.0" cy="1581.0" fill="#900" r="16" stroke="#900" stroke-width="5" /></svg>