<?xml version="1.0" encoding="utf-8" ?>
<svg baseProfile="tiny" height="1024" version="1.2" viewBox="0 0 3594 3722" width="988" xmlns="http://www.w3.org/2000/svg" xmlns:ev="http://www.w3.org/2001/xml-events" xmlns:xlink="http://www.w3.org/1999/xlink"><defs /><line stroke="#999" stroke-width="3" x1="1541.0" x2="1541.0" y1="1797.0" y2="1925.0" /><line stroke="#333" stroke-width="10" x1="1733.0" x2="1541.0" y1="1797.0" y2="1797.0" /><line stroke="#333" stroke-width="10" x1="1733.0" x2="1733.0" y1="1605.0" y2="1797.0" /><line stroke="#999" stroke-width="3" x1="1861.0" x2="1733.0" y1="1605.0" y2="1605.0" /><line stroke="#333" stroke-width="10" x1="1861.0" x2="1861.0" y1="1797.0" y2="1605.0" /><line stroke="#333" stroke-width="10" x1="2053.0" x2="1861.0" y1="1797.0" y2="1797.0" /><line stroke="#999" stroke-width="3" x1="2053.0" x2="2053.0" y1="1925.0" y2="1797.0" /><line stroke="#333" stroke-width="10" x1="1861.0" x2="2053.0" y1="1925.0" y2="1925.0" /><line stroke="#333" stroke-width="10" x1="1861.0" x2="1861.0" y1="2117.0" y2="1925.0" /><line stroke="#999" stroke-width="3" x1="1733.0" x2="1861.0" y1="2117.0" y2="2117.0" /><line stroke="#333" stroke-width="10" x1="1733.0" x2="1733.0" y1="1925.0" y2="2117.0" /><line stroke="#333" stroke-width="10" x1="1541.0" x2="1733.0" y1="1925.0" y2="1925.0" /><line stroke="#333" stroke-width="10" x1="2373.0" x2="2053.0" y1="1797.0" y2="1797.0" /><line stroke="#333" stroke-width="10" x1="2373.0" x2="2373.0" y1="1349.0" y2="1797.0" /><line stroke="#999" stroke-width="3" x1="2501.0" x2="2373.0" y1="1285.0" y2="1349.0" /><line stroke="#333" stroke-width="10" x1="2501.0" x2="2501.0" y1="2437.0" y2="1285.0" /><line stroke="#999" stroke-width="3" x1="2373.0" x2="2501.0" y1="2437.0" y2="2437.0" /><line stroke="#333" stroke-width="10" x1="2373.0" x2="2373.0" y1="1925.0" y2="2437.0" /><line stroke="#333" stroke-width="10" x1="2053.0" x2="2373.0" y1="1925.0" y2="1925.0" /><line stroke="#333" stroke-width="10" x1="1861.0" x2="1861.0" y1="2437.0" y2="2117.0" /><line stroke="#333" stroke-width="10" x1="2309.0" x2="1861.0" y1="2437.0" y2="2437.0" /><line stroke="#999" stroke-width="3" x1="2373.0" x2="2309.0" y1="2565.0" y2="2437.0" /><line stroke="#333" stroke-width="10" x1="1221.0" x2="2373.0" y1="2565.0" y2="2565.0" /><line stroke="#999" stroke-width="3" x1="1285.0" x2="1221.0" y1="2437.0" y2="2565.0" /><line stroke="#333" stroke-width="10" x1="1733.0" x2="1285.0" y1="2437.0" y2="2437.0" /><line stroke="#333" stroke-width="10" x1="1733.0" x2="1733.0" y1="2117.0" y2="2437.0" /><line stroke="#333" stroke-width="10" x1="1861.0" x2="1861.0" y1="1605.0" y2="1285.0" /><line stroke="#333" stroke-width="10" x1="1861.0" x2="2373.0" y1="1285.0" y2="1285.0" /><line stroke="#999" stroke-width="3" x1="2373.0" x2="2373.0" y1="1285.0" y2="1157.0" /><line stroke="#333" stroke-width="10" x1="2373.0" x2="1221.0" y1="1157.0" y2="1157.0" /><line stroke="#999" stroke-width="3" x1="1221.0" x2="1221.0" y1="1157.0" y2="1285.0" /><line stroke="#333" stroke-width="10" x1="1221.0" x2="1733.0" y1="1285.0" y2="1285.0" /><line stroke="#333" stroke-width="10" x1="1733.0" x2="1733.0" y1="1285.0" y2="1605.0" /><line stroke="#333" stroke-width="10" x1="1541.0" x2="1221.0" y1="1797.0" y2="1797.0" /><line stroke="#333" stroke-width="10" x1="1221.0" x2="1221.0" y1="1797.0" y2="1349.0" /><line stroke="#999" stroke-width="3" x1="1221.0" x2="1093.0" y1="1349.0" y2="1285.0" /><line stroke="#333" stroke-width="10" x1="1093.0" x2="1093.0" y1="1285.0" y2="2437.0" /><line stroke="#333" stroke-width="10" x1="1221.0" x2="1221.0" y1="2437.0" y2="1925.0" /><line stroke="#333" stroke-width="10" x1="1221.0" x2="1541.0" y1="1925.0" y2="1925.0" /><line stroke="#333" stroke-width="10" x1="2885.0" x2="2501.0" y1="2437.0" y2="2437.0" /><line stroke="#333" stroke-width="10" x1="2885.0" x2="2885.0" y1="2053.0" y2="2437.0" /><line stroke="#999" stroke-width="3" x1="3013.0" x2="2885.0" y1="2053.0" y2="2053.0" /><line stroke="#333" stroke-width="10" x1="3013.0" x2="3013.0" y1="2565.0" y2="2053.0" /><line stroke="#333" stroke-width="10" x1="2501.0" x2="3013.0" y1="2565.0" y2="2565.0" /><line stroke="#333" stroke-width="10" x1="2501.0" x2="2501.0" y1="3141.0" y2="2565.0" /><line stroke="#333" stroke-width="10" x1="1989.0" x2="2501.0" y1="3141.0" y2="3141.0" /><line stroke="#999" stroke-width="3" x1="1989.0" x2="1989.0" y1="3013.0" y2="3141.0" /><line stroke="#333" stroke-width="10" x1="2373.0" x2="1989.0" y1="3013.0" y2="3013.0" /><line stroke="#333" stroke-width="10" x1="2373.0" x2="2373.0" y1="2565.0" y2="3013.0" /><line stroke="#333" stroke-width="10" x1="2373.0" x2="2309.0" y1="2437.0" y2="2437.0" /><line stroke="#333" stroke-width="10" x1="2501.0" x2="2885.0" y1="1285.0" y2="1285.0" /><line stroke="#333" stroke-width="10" x1="2885.0" x2="2885.0" y1="1285.0" y2="1669.0" /><line stroke="#999" stroke-width="3" x1="2885.0" x2="3013.0" y1="1669.0" y2="1669.0" /><line stroke="#333" stroke-width="10" x1="3013.0" x2="3013.0" y1="1669.0" y2="1157.0" /><line stroke="#333" stroke-width="10" x1="3013.0" x2="2501.0" y1="1157.0" y2="1157.0" /><line stroke="#333" stroke-width="10" x1="2501.0" x2="2501.0" y1="1157.0" y2="773.0" /><line stroke="#333" stroke-width="10" x1="2501.0" x2="1989.0" y1="581.0" y2="581.0" /><line stroke="#999" stroke-width="3" x1="1989.0" x2="1989.0" y1="581.0" y2="709.0" /><line stroke="#333" stroke-width="10" x1="1989.0" x2="2373.0" y1="709.0" y2="709.0" /><line stroke="#333" stroke-width="10" x1="2373.0" x2="2373.0" y1="709.0" y2="1157.0" /><line stroke="#333" stroke-width="10" x1="2373.0" x2="2373.0" y1="1285.0" y2="1349.0" /><line stroke="#333" stroke-width="10" x1="1221.0" x2="1221.0" y1="1349.0" y2="1285.0" /><line stroke="#333" stroke-width="10" x1="1221.0" x2="1221.0" y1="1157.0" y2="709.0" /><line stroke="#333" stroke-width="10" x1="1221.0" x2="1605.0" y1="709.0" y2="709.0" /><line stroke="#999" stroke-width="3" x1="1605.0" x2="1605.0" y1="709.0" y2="581.0" /><line stroke="#333" stroke-width="10" x1="1605.0" x2="1093.0" y1="581.0" y2="581.0" /><line stroke="#333" stroke-width="10" x1="1093.0" x2="1093.0" y1="581.0" y2="1157.0" /><line stroke="#333" stroke-width="10" x1="1093.0" x2="581.0" y1="1157.0" y2="1157.0" /><line stroke="#333" stroke-width="10" x1="581.0" x2="581.0" y1="1157.0" y2="1669.0" /><line stroke="#999" stroke-width="3" x1="581.0" x2="709.0" y1="1669.0" y2="1669.0" /><line stroke="#333" stroke-width="10" x1="709.0" x2="709.0" y1="1669.0" y2="1285.0" /><line stroke="#333" stroke-width="10" x1="709.0" x2="1093.0" y1="1285.0" y2="1285.0" /><line stroke="#333" stroke-width="10" x1="1285.0" x2="1221.0" y1="2437.0" y2="2437.0" /><line stroke="#333" stroke-width="10" x1="1221.0" x2="1221.0" y1="3013.0" y2="2565.0" /><line stroke="#333" stroke-width="10" x1="1605.0" x2="1221.0" y1="3013.0" y2="3013.0" /><line stroke="#999" stroke-width="3" x1="1605.0" x2="1605.0" y1="3141.0" y2="3013.0" /><line stroke="#333" stroke-width="10" x1="1093.0" x2="1605.0" y1="3141.0" y2="3141.0" /><line stroke="#333" stroke-width="10" x1="1093.0" x2="1093.0" y1="2565.0" y2="3141.0" /><line stroke="#333" stroke-width="10" x1="581.0" x2="1093.0" y1="2565.0" y2="2565.0" /><line stroke="#333" stroke-width="10" x1="581.0" x2="581.0" y1="2053.0" y2="2565.0" /><line stroke="#999" stroke-width="3" x1="709.0" x2="581.0" y1="2053.0" y2="2053.0" /><line stroke="#333" stroke-width="10" x1="709.0" x2="709.0" y1="2437.0" y2="2053.0" /><line stroke="#333" stroke-width="10" x1="1093.0" x2="709.0" y1="2437.0" y2="2437.0" /><line stroke="#999" stroke-width="3" x1="1221.0" x2="1093.0" y1="2437.0" y2="2437.0" /><line stroke="#333" stroke-width="10" x1="3013.0" x2="3013.0" y1="1797.0" y2="1669.0" /><line stroke="#333" stroke-width="10" x1="3269.0" x2="3013.0" y1="1797.0" y2="1797.0" /><line stroke="#999" stroke-width="3" x1="3269.0" x2="3269.0" y1="1925.0" y2="1797.0" /><line stroke="#333" stroke-width="10" x1="3013.0" x2="3269.0" y1="1925.0" y2="1925.0" /><line stroke="#333" stroke-width="10" x1="3013.0" x2="3013.0" y1="2053.0" y2="1925.0" /><line stroke="#333" stroke-width="10" x1="2885.0" x2="2885.0" y1="1669.0" y2="2053.0" /><line stroke="#333" stroke-width="10" x1="1605.0" x2="1989.0" y1="709.0" y2="709.0" /><line stroke="#333" stroke-width="10" x1="1989.0" x2="1861.0" y1="581.0" y2="581.0" /><line stroke="#333" stroke-width="10" x1="1861.0" x2="1861.0" y1="581.0" y2="325.0" /><line stroke="#999" stroke-width="3" x1="1861.0" x2="1733.0" y1="325.0" y2="325.0" /><line stroke="#333" stroke-width="10" x1="1733.0" x2="1733.0" y1="325.0" y2="581.0" /><line stroke="#333" stroke-width="10" x1="1733.0" x2="1605.0" y1="581.0" y2="581.0" /><line stroke="#333" stroke-width="10" x1="1989.0" x2="1605.0" y1="3013.0" y2="3013.0" /><line stroke="#333" stroke-width="10" x1="1861.0" x2="1989.0" y1="3141.0" y2="3141.0" /><line stroke="#333" stroke-width="10" x1="1861.0" x2="1861.0" y1="3397.0" y2="3141.0" /><line stroke="#999" stroke-width="3" x1="1733.0" x2="1861.0" y1="3397.0" y2="3397.0" /><line stroke="#333" stroke-width="10" x1="1733.0" x2="1733.0" y1="3141.0" y2="3397.0" /><line stroke="#333" stroke-width="10" x1="1605.0" x2="1733.0" y1="3141.0" y2="3141.0" /><line stroke="#333" stroke-width="10" x1="709.0" x2="709.0" y1="2053.0" y2="1669.0" /><line stroke="#333" stroke-width="10" x1="581.0" x2="581.0" y1="1669.0" y2="1797.0" /><line stroke="#333" stroke-width="10" x1="581.0" x2="325.0" y1="1797.0" y2="1797.0" /><line stroke="#999" stroke-width="3" x1="325.0" x2="325.0" y1="1797.0" y2="1925.0" /><line stroke="#333" stroke-width="10" x1="325.0" x2="581.0" y1="1925.0" y2="1925.0" /><line stroke="#333" stroke-width="10" x1="581.0" x2="581.0" y1="1925.0" y2="2053.0" /><line stroke="#333" stroke-width="10" x1="2501.0" x2="2501.0" y1="709.0" y2="581.0" /><line stroke="#999" stroke-width="3" x1="2501.0" x2="2501.0" y1="773.0" y2="709.0" /><line stroke="#333" stroke-width="10" x1="2629.0" x2="2501.0" y1="709.0" y2="709.0" /><line stroke="#333" stroke-width="10" x1="2629.0" x2="2629.0" y1="645.0" y2="709.0" /><line stroke="#333" stroke-width="10" x1="2821.0" x2="2629.0" y1="645.0" y2="645.0" /><line stroke="#333" stroke-width="10" x1="2821.0" x2="2821.0" y1="837.0" y2="645.0" /><line stroke="#333" stroke-width="10" x1="2629.0" x2="2821.0" y1="837.0" y2="837.0" /><line stroke="#333" stroke-width="10" x1="2629.0" x2="2629.0" y1="773.0" y2="837.0" /><line stroke="#333" stroke-width="10" x1="2501.0" x2="2629.0" y1="773.0" y2="773.0" /><line stroke="#00d" stroke-width="20" x1="2693.0" x2="2693.0" y1="773.0" y2="709.0" /><line stroke="#00d" stroke-width="20" x1="2693.0" x2="2757.0" y1="709.0" y2="709.0" /><line stroke="#00d" stroke-width="20" x1="2757.0" x2="2757.0" y1="709.0" y2="773.0" /><line stroke="#00d" stroke-width="20" x1="2757.0" x2="2693.0" y1="773.0" y2="773.0" /><line stroke="#333" stroke-width="10" x1="3013.0" x2="2565.0" y1="901.0" y2="901.0" /><line stroke="#0d0" stroke-width="20" x1="3013.0" x2="3013.0" y1="1093.0" y2="901.0" /><line stroke="#333" stroke-width="10" x1="2565.0" x2="3013.0" y1="1093.0" y2="1093.0" /><line stroke="#333" stroke-width="10" x1="2565.0" x2="2565.0" y1="901.0" y2="1093.0" /><line stroke="#333" stroke-width="10" x1="3461.0" x2="1861.0" y1="3589.0" y2="3589.0" /><line stroke="#333" stroke-width="10" x1="3461.0" x2="3461.0" y1="133.0" y2="1797.0" /><line stroke="#999" stroke-width="3" x1="3589.0" x2="3461.0" y1="5.0" y2="133.0" /><line stroke="#333" stroke-width="10" x1="3589.0" x2="3589.0" y1="3717.0" y2="5.0" /><line stroke="#333" stroke-width="10" x1="5.0" x2="3589.0" y1="3717.0" y2="3717.0" /><line stroke="#333" stroke-width="10" x1="1733.0" x2="1733.0" y1="3397.0" y2="3589.0" /><line stroke="#333" stroke-width="10" x1="1861.0" x2="1861.0" y1="3589.0" y2="3397.0" /><line stroke="#333" stroke-width="10" x1="1733.0" x2="133.0" y1="3589.0" y2="3589.0" /><line stroke="#333" stroke-width="10" x1="3269.0" x2="3461.0" y1="1925.0" y2="1925.0" /><line stroke="#333" stroke-width="10" x1="3461.0" x2="3269.0" y1="1797.0" y2="1797.0" /><line stroke="#333" stroke-width="10" x1="3461.0" x2="3461.0" y1="1925.0" y2="3589.0" /><line stroke="#999" stroke-width="3" x1="5.0" x2="133.0" y1="3717.0" y2="3589.0" /><line stroke="#333" stroke-width="10" x1="133.0" x2="133.0" y1="3589.0" y2="1925.0" /><line stroke="#333" stroke-width="10" x1="133.0" x2="1733.0" y1="133.0" y2="133.0" /><line stroke="#333" stroke-width="10" x1="3589.0" x2="5.0" y1="5.0" y2="5.0" /><line stroke="#333" stroke-width="10" x1="5.0" x2="5.0" y1="5.0" y2="3717.0" /><line stroke="#333" stroke-width="10" x1="1733.0" x2="1733.0" y1="133.0" y2="325.0" /><line stroke="#333" stroke-width="10" x1="1861.0" x2="1861.0" y1="325.0" y2="133.0" /><line stroke="#333" stroke-width="10" x1="1861.0" x2="3461.0" y1="133.0" y2="133.0" /><line stroke="#333" stroke-width="10" x1="133.0" x2="133.0" y1="1797.0" y2="133.0" /><line stroke="#333" stroke-width="10" x1="325.0" x2="133.0" y1="1797.0" y2="1797.0" /><line stroke="#333" stroke-width="10" x1="133.0" x2="325.0" y1="1925.0" y2="1925.0" /><ellipse cx="2757.0" cy="1029.0" fill="#009" rx="12" ry="24" stroke="#009" stroke-width="5" /><ellipse cx="2757.0" cy="965.0" fill="#009" rx="12" ry="24" stroke="#009" stroke-width="5" /><ellipse cx="2821.0" cy="965.0" fill="#009" rx="12" ry="24" stroke="#009" stroke-width="5" /><ellipse cx="2821.0" cy="1029.0" fill="#009" rx="12" ry="24" stroke="#009" stroke-width="5" /><rect fill="#090" height="24" stroke="#090" stroke-width="5" transform="rotate(270,1797.0,1861.0)" width="24" x="1785.0" y="1849.0" /><rect fill="#090" height="24" stroke="#090" stroke-width="5" transform="rotate(180,1541.0,3077.0)" width="24" x="1529.0" y="3065.0" /><rect fill="#090" height="24" stroke="#090" stroke-width="5" transform="rotate(0,2053.0,3077.0)" width="24" x="2041.0" y="3065.0" /><rect fill="#090" height="24" stroke="#090" stroke-width="5" transform="rotate(0,2053.0,645.0)" width="24" x="2041.0" y="633.0" /><rect fill="#090" height="24" stroke="#090" stroke-width="5" transform="rotate(180,1541.0,645.0)" width="24" x="1529.0" y="633.0" /><rect fill="#900" height="48" stroke="#900" stroke-width="5" transform="rotate(90,1797.0,69.0)" width="32" x="1781.0" y="45.0" /><rect fill="#900" height="48" stroke="#900" stroke-width="5" transform="rotate(180,3525.0,1861.0)" width="32" x="3509.0" y="1837.0" /><rect fill="#900" height="48" stroke="#900" stroke-width="5" transform="rotate(0,69.0,1861.0)" width="32" x="53.0" y="1837.0" /><rect fill="#900" height="48" stroke="#900" stroke-width="5" transform="rotate(270,1797.0,3653.0)" width="32" x="1781.0" y="3629.0" /><rect fill="#900" height="48" stroke="#900" stroke-width="5" transform="rotate(90,1157.0,2181.0)" width="32" x="1141.0" y="2157.0" /><rect fill="#900" height="48" stroke="#900" stroke-width="5" transform="rotate(270,1157.0,2885.0)" width="32" x="1141.0" y="2861.0" /><rect fill="#900" height="48" stroke="#900" stroke-width="5" transform="rotate(270,2437.0,2885.0)" width="32" x="2421.0" y="2861.0" /><rect fill="#900" height="48" stroke="#900" stroke-width="5" transform="rotate(90,2437.0,2181.0)" width="32" x="2421.0" y="2157.0" /><rect fill="#900" height="48" stroke="#900" stroke-width="5" transform="rotate(270,1157.0,1605.0)" width="32" x="1141.0" y="1581.0" /><rect fill="#900" height="48" stroke="#900" stroke-width="5" transform="rotate(270,2437.0,1605.0)" width="32" x="2421.0" y="1581.0" /><rect fill="#900" height="48" stroke="#900" stroke-width="5" transform="rotate(270,1797.0,3205.0)" width="32" x="1781.0" y="3181.0" /><rect fill="#900" height="48" stroke="#900" stroke-width="5" transform="rotate(90,1797.0,517.0)" width="32" x="1781.0" y="493.0" /><rect fill="#900" height="48" stroke="#900" stroke-width="5" transform="rotate(0,3525.0,3653.0)" width="32" x="3509.0" y="3629.0" /><rect fill="#900" height="48" stroke="#900" stroke-width="5" transform="rotate(0,69.0,3653.0)" width="32" x="53.0" y="3629.0" /><rect fill="#900" height="48" stroke="#900" stroke-width="5" transform="rotate(0,69.0,69.0)" width="32" x="53.0" y="45.0" /><rect fill="#900" height="48" stroke="#900" stroke-width="5" transform="rotate(180,3525.0,69.0)" width="32" x="3509.0" y="45.0" /><rect fill="#900" height="48" stroke="#900" stroke-width="5" transform="rotate(0,389.0,1861.0)" width="32" x="373.0" y="1837.0" /><rect fill="#900" height="48" stroke="#900" stroke-width="5" transform="rotate(180,3205.0,1861.0)" width="32" x="3189.0" y="1837.0" /><rect fill="#090" height="24" stroke="#090" stroke-width="5" transform="rotate(270,1797.0,3333.0)" width="24" x="1785.0" y="3321.0" /><rect fill="#090" height="24" stroke="#090" stroke-width="5" transform="rotate(90,1797.0,389.0)" width="24" x="1785.0" y="377.0" /><rect fill="#009" height="24" stroke="#009" stroke-width="5" transform="rotate(0,2629.0,1029.0)" width="24" x="2617.0" y="1017.0" /><ellipse cx="1861.0" cy="1861.0" fill="#009" rx="12" ry="24" stroke="#009" stroke-width="5" /><ellipse cx="1733.0" cy="1861.0" fill="#009" rx="12" ry="24" stroke="#009" stroke-width="5" /><ellipse cx="1797.0" cy="1925.0" fill="#009" rx="12" ry="24" stroke="#009" stroke-width="5" /><ellipse cx="1797.0" cy="1797.0" fill="#009" rx="12" ry="24" stroke="#009" stroke-width="5" /><circle cx="2437.0" cy="1221.0" fill="#009" r="16" stroke="#009" stroke-width="5" /><circle cx="1157.0" cy="1221.0" fill="#009" r="16" stroke="#009" stroke-width="5" /><circle cx="1157.0" cy="3077.0" fill="#009" r="16" stroke="#009" stroke-width="5" /><circle cx="2437.0" cy="3077.0" fill="#009" r="16" stroke="#009" stroke-width="5" /><circle cx="3525.0" cy="3653.0" fill="#009" r="16" stroke="#009" stroke-width="5" /><circle cx="3525.0" cy="69.0" fill="#009" r="16" stroke="#009" stroke-width="5" /><circle cx="69.0" cy="69.0" fill="#009" r="16" stroke="#009" stroke-width="5" /><circle cx="69.0" cy="3653.0" fill="#009" r="16" stroke="#009" stroke-width="5" /><circle cx="1149.0" cy="637.0" fill="#900" r="16" stroke="#900" stroke-width="5" /><circle cx="2437.0" cy="661.0" fill="#900" r="16" stroke="#900" stroke-width="5" /><circle cx="2437.0" cy="3077.0" fill="#900" r="16" stroke="#900" stroke-width="5" /><circle cx="1157.0" cy="3077.0" fill="#900" r="16" stroke="#900" stroke-width="5" /></svg>