<?xml version="1.0" encoding="utf-8" ?>
<svg baseProfile="tiny" height="1024" version="1.2" viewBox="0 0 2634 7946" width="339" xmlns="http://www.w3.org/2000/svg" xmlns:ev="http://www.w3.org/2001/xml-events" xmlns:xlink="http://www.w3.org/1999/xlink"><defs /><line stroke="#333" stroke-width="10" x1="1413.0" x2="1221.0" y1="5.0" y2="5.0" /><line stroke="#333" stroke-width="10" x1="1413.0" x2="1413.0" y1="1925.0" y2="5.0" /><line stroke="#333" stroke-width="10" x1="2629.0" x2="1413.0" y1="1925.0" y2="1925.0" /><line stroke="#333" stroke-width="10" x1="2629.0" x2="2629.0" y1="3717.0" y2="1925.0" /><line stroke="#333" stroke-width="10" x1="2437.0" x2="2629.0" y1="3717.0" y2="3717.0" /><line stroke="#333" stroke-width="10" x1="2437.0" x2="2437.0" y1="2117.0" y2="3717.0" /><line stroke="#333" stroke-width="10" x1="197.0" x2="2437.0" y1="2117.0" y2="2117.0" /><line stroke="#333" stroke-width="10" x1="197.0" x2="197.0" y1="3717.0" y2="2117.0" /><line stroke="#333" stroke-width="10" x1="5.0" x2="197.0" y1="3717.0" y2="3717.0" /><line stroke="#333" stroke-width="10" x1="5.0" x2="5.0" y1="1925.0" y2="3717.0" /><line stroke="#333" stroke-width="10" x1="1221.0" x2="5.0" y1="1925.0" y2="1925.0" /><line stroke="#333" stroke-width="10" x1="1221.0" x2="1221.0" y1="5.0" y2="1925.0" /><line stroke="#00d" stroke-width="20" x1="69.0" x2="69.0" y1="3653.0" y2="3589.0" /><line stroke="#00d" stroke-width="20" x1="69.0" x2="133.0" y1="3589.0" y2="3589.0" /><line stroke="#00d" stroke-width="20" x1="133.0" x2="133.0" y1="3589.0" y2="3653.0" /><line stroke="#00d" stroke-width="20" x1="133.0" x2="69.0" y1="3653.0" y2="3653.0" /><line stroke="#00d" stroke-width="20" x1="2501.0" x2="2501.0" y1="3653.0" y2="3589.0" /><line stroke="#00d" stroke-width="20" x1="2501.0" x2="2565.0" y1="3589.0" y2="3589.0" /><line stroke="#00d" stroke-width="20" x1="2565.0" x2="2565.0" y1="3589.0" y2="3653.0" /><line stroke="#00d" stroke-width="20" x1="2565.0" x2="2501.0" y1="3653.0" y2="3653.0" /><line stroke="#333" stroke-width="10" x1="261.0" x2="261.0" y1="2245.0" y2="3717.0" /><line stroke="#333" stroke-width="10" x1="1221.0" x2="261.0" y1="2245.0" y2="2245.0" /><line stroke="#333" stroke-width="10" x1="1221.0" x2="1221.0" y1="2821.0" y2="2245.0" /><line stroke="#333" stroke-width="10" x1="1413.0" x2="1221.0" y1="2821.0" y2="2821.0" /><line stroke="#333" stroke-width="10" x1="1413.0" x2="1413.0" y1="2245.0" y2="2821.0" /><line stroke="#333" stroke-width="10" x1="2373.0" x2="1413.0" y1="2245.0" y2="2245.0" /><line stroke="#333" stroke-width="10" x1="2373.0" x2="2373.0" y1="3717.0" y2="2245.0" /><line stroke="#333" stroke-width="10" x1="1413.0" x2="2373.0" y1="3717.0" y2="3717.0" /><line stroke="#333" stroke-width="10" x1="1413.0" x2="1413.0" y1="3077.0" y2="3717.0" /><line stroke="#333" stroke-width="10" x1="1221.0" x2="1285.0" y1="3077.0" y2="3077.0" /><line stroke="#333" stroke-width="10" x1="1221.0" x2="1221.0" y1="3717.0" y2="3077.0" /><line stroke="#333" stroke-width="10" x1="261.0" x2="517.0" y1="3717.0" y2="3717.0" /><line stroke="#00d" stroke-width="20" x1="2245.0" x2="2245.0" y1="3653.0" y2="3589.0" /><line stroke="#00d" stroke-width="20" x1="2245.0" x2="2309.0" y1="3589.0" y2="3589.0" /><line stroke="#00d" stroke-width="20" x1="2309.0" x2="2309.0" y1="3589.0" y2="3653.0" /><line stroke="#00d" stroke-width="20" x1="2309.0" x2="2245.0" y1="3653.0" y2="3653.0" /><line stroke="#999" stroke-width="3" x1="1285.0" x2="1349.0" y1="3077.0" y2="3077.0" /><line stroke="#333" stroke-width="10" x1="1349.0" x2="1413.0" y1="3077.0" y2="3077.0" /><line stroke="#333" stroke-width="10" x1="1349.0" x2="1349.0" y1="3845.0" y2="3077.0" /><line stroke="#333" stroke-width="10" x1="2181.0" x2="1349.0" y1="4485.0" y2="3845.0" /><line stroke="#333" stroke-width="10" x1="2181.0" x2="2181.0" y1="5381.0" y2="4485.0" /><line stroke="#333" stroke-width="10" x1="389.0" x2="2181.0" y1="5381.0" y2="5381.0" /><line stroke="#333" stroke-width="10" x1="389.0" x2="389.0" y1="4485.0" y2="5381.0" /><line stroke="#333" stroke-width="10" x1="1285.0" x2="389.0" y1="3845.0" y2="4485.0" /><line stroke="#333" stroke-width="10" x1="1285.0" x2="1285.0" y1="3077.0" y2="3845.0" /><line stroke="#00d" stroke-width="20" x1="1421.0" x2="2365.0" y1="2261.0" y2="2261.0" /><line stroke="#00d" stroke-width="20" x1="2365.0" x2="2365.0" y1="2261.0" y2="2373.0" /><line stroke="#00d" stroke-width="20" x1="2365.0" x2="1421.0" y1="2373.0" y2="2373.0" /><line stroke="#00d" stroke-width="20" x1="1421.0" x2="1421.0" y1="2373.0" y2="2261.0" /><line stroke="#00d" stroke-width="20" x1="1213.0" x2="1213.0" y1="2261.0" y2="2373.0" /><line stroke="#00d" stroke-width="20" x1="269.0" x2="1213.0" y1="2261.0" y2="2261.0" /><line stroke="#00d" stroke-width="20" x1="269.0" x2="269.0" y1="2373.0" y2="2261.0" /><line stroke="#00d" stroke-width="20" x1="1213.0" x2="269.0" y1="2373.0" y2="2373.0" /><line stroke="#00d" stroke-width="20" x1="1277.0" x2="1349.0" y1="3869.0" y2="3869.0" /><line stroke="#00d" stroke-width="20" x1="1349.0" x2="1389.0" y1="3869.0" y2="3901.0" /><line stroke="#00d" stroke-width="20" x1="1389.0" x2="1245.0" y1="3901.0" y2="3901.0" /><line stroke="#00d" stroke-width="20" x1="1245.0" x2="1277.0" y1="3901.0" y2="3869.0" /><line stroke="#333" stroke-width="10" x1="1413.0" x2="1157.0" y1="5445.0" y2="5445.0" /><line stroke="#333" stroke-width="10" x1="2181.0" x2="1413.0" y1="6213.0" y2="5445.0" /><line stroke="#333" stroke-width="10" x1="2181.0" x2="2181.0" y1="7941.0" y2="6213.0" /><line stroke="#333" stroke-width="10" x1="389.0" x2="1157.0" y1="7941.0" y2="7941.0" /><line stroke="#333" stroke-width="10" x1="389.0" x2="389.0" y1="6213.0" y2="7941.0" /><line stroke="#333" stroke-width="10" x1="1157.0" x2="899.0" y1="5445.0" y2="5697.0" /><line stroke="#00d" stroke-width="20" x1="1157.0" x2="1413.0" y1="5509.0" y2="5509.0" /><line stroke="#00d" stroke-width="20" x1="1413.0" x2="1541.0" y1="5509.0" y2="5637.0" /><line stroke="#00d" stroke-width="20" x1="1541.0" x2="1029.0" y1="5637.0" y2="5637.0" /><line stroke="#00d" stroke-width="20" x1="1029.0" x2="1157.0" y1="5637.0" y2="5509.0" /><line stroke="#00d" stroke-width="20" x1="1221.0" x2="1221.0" y1="5317.0" y2="5125.0" /><line stroke="#00d" stroke-width="20" x1="1221.0" x2="1349.0" y1="5125.0" y2="5125.0" /><line stroke="#00d" stroke-width="20" x1="1349.0" x2="1349.0" y1="5125.0" y2="5317.0" /><line stroke="#00d" stroke-width="20" x1="1349.0" x2="1221.0" y1="5317.0" y2="5317.0" /><line stroke="#333" stroke-width="10" x1="899.0" x2="829.0" y1="5697.0" y2="5764.0" /><line stroke="#333" stroke-width="10" x1="829.0" x2="389.0" y1="5764.0" y2="6213.0" /><line stroke="#999" stroke-width="3" x1="517.0" x2="581.0" y1="3717.0" y2="3717.0" /><line stroke="#333" stroke-width="10" x1="581.0" x2="1221.0" y1="3717.0" y2="3717.0" /><line stroke="#333" stroke-width="10" x1="581.0" x2="581.0" y1="3909.0" y2="3717.0" /><line stroke="#333" stroke-width="10" x1="645.0" x2="581.0" y1="3909.0" y2="3909.0" /><line stroke="#333" stroke-width="10" x1="645.0" x2="645.0" y1="4037.0" y2="3909.0" /><line stroke="#333" stroke-width="10" x1="581.0" x2="645.0" y1="4037.0" y2="4037.0" /><line stroke="#333" stroke-width="10" x1="517.0" x2="581.0" y1="4037.0" y2="4037.0" /><line stroke="#333" stroke-width="10" x1="453.0" x2="517.0" y1="4037.0" y2="4037.0" /><line stroke="#333" stroke-width="10" x1="453.0" x2="453.0" y1="3909.0" y2="4037.0" /><line stroke="#333" stroke-width="10" x1="517.0" x2="453.0" y1="3909.0" y2="3909.0" /><line stroke="#333" stroke-width="10" x1="517.0" x2="517.0" y1="3717.0" y2="3909.0" /><line stroke="#999" stroke-width="3" x1="1157.0" x2="1157.0" y1="4101.0" y2="3973.0" /><line stroke="#999" stroke-width="3" x1="1157.0" x2="1413.0" y1="3973.0" y2="3973.0" /><line stroke="#999" stroke-width="3" x1="1413.0" x2="1413.0" y1="3973.0" y2="4101.0" /><line stroke="#999" stroke-width="3" x1="1413.0" x2="1157.0" y1="4101.0" y2="4101.0" /><line stroke="#999" stroke-width="3" x1="1413.0" x2="1157.0" y1="5061.0" y2="5061.0" /><line stroke="#999" stroke-width="3" x1="1477.0" x2="1413.0" y1="4933.0" y2="5061.0" /><line stroke="#999" stroke-width="3" x1="1093.0" x2="1477.0" y1="4933.0" y2="4933.0" /><line stroke="#999" stroke-width="3" x1="1157.0" x2="1093.0" y1="5061.0" y2="4933.0" /><line stroke="#999" stroke-width="3" x1="1029.0" x2="1541.0" y1="5701.0" y2="5701.0" /><line stroke="#999" stroke-width="3" x1="1541.0" x2="1541.0" y1="5701.0" y2="5893.0" /><line stroke="#999" stroke-width="3" x1="1541.0" x2="1029.0" y1="5893.0" y2="5893.0" /><line stroke="#999" stroke-width="3" x1="1029.0" x2="1029.0" y1="5893.0" y2="5701.0" /><line stroke="#999" stroke-width="3" x1="1029.0" x2="1029.0" y1="7301.0" y2="7173.0" /><line stroke="#999" stroke-width="3" x1="1029.0" x2="1285.0" y1="7173.0" y2="7173.0" /><line stroke="#999" stroke-width="3" x1="1285.0" x2="1285.0" y1="7173.0" y2="7301.0" /><line stroke="#999" stroke-width="3" x1="1285.0" x2="1029.0" y1="7301.0" y2="7301.0" /><line stroke="#0d0" stroke-width="20" x1="1157.0" x2="1285.0" y1="7941.0" y2="7941.0" /><line stroke="#333" stroke-width="10" x1="1285.0" x2="2181.0" y1="7941.0" y2="7941.0" /><rect fill="#009" height="24" stroke="#009" stroke-width="5" transform="rotate(225,2277.0,3621.0)" width="24" x="2265.0" y="3609.0" /><rect fill="#009" height="24" stroke="#009" stroke-width="5" transform="rotate(0,325.0,3653.0)" width="24" x="313.0" y="3641.0" /><ellipse cx="1285.0" cy="69.0" fill="#009" rx="12" ry="24" stroke="#009" stroke-width="5" /><ellipse cx="1349.0" cy="69.0" fill="#009" rx="12" ry="24" stroke="#009" stroke-width="5" /><ellipse cx="1285.0" cy="133.0" fill="#009" rx="12" ry="24" stroke="#009" stroke-width="5" /><ellipse cx="1349.0" cy="133.0" fill="#009" rx="12" ry="24" stroke="#009" stroke-width="5" /><rect fill="#090" height="24" stroke="#090" stroke-width="5" transform="rotate(90,1285.0,197.0)" width="24" x="1273.0" y="185.0" /><rect fill="#090" height="24" stroke="#090" stroke-width="5" transform="rotate(180,2309.0,2949.0)" width="24" x="2297.0" y="2937.0" /><rect fill="#009" height="24" stroke="#009" stroke-width="5" transform="rotate(270,1029.0,2053.0)" width="24" x="1017.0" y="2041.0" /><rect fill="#009" height="24" stroke="#009" stroke-width="5" transform="rotate(270,1285.0,4997.0)" width="24" x="1273.0" y="4985.0" /><rect fill="#090" height="24" stroke="#090" stroke-width="5" transform="rotate(270,1157.0,5317.0)" width="24" x="1145.0" y="5305.0" /><rect fill="#090" height="24" stroke="#090" stroke-width="5" transform="rotate(270,1221.0,7813.0)" width="24" x="1209.0" y="7801.0" /><rect fill="#900" height="48" stroke="#900" stroke-width="5" transform="rotate(270,581.0,7109.0)" width="32" x="565.0" y="7085.0" /><rect fill="#900" height="48" stroke="#900" stroke-width="5" transform="rotate(270,837.0,7109.0)" width="32" x="821.0" y="7085.0" /><rect fill="#900" height="48" stroke="#900" stroke-width="5" transform="rotate(270,1093.0,7109.0)" width="32" x="1077.0" y="7085.0" /><rect fill="#900" height="48" stroke="#900" stroke-width="5" transform="rotate(270,1349.0,7109.0)" width="32" x="1333.0" y="7085.0" /><rect fill="#900" height="48" stroke="#900" stroke-width="5" transform="rotate(270,1605.0,7109.0)" width="32" x="1589.0" y="7085.0" /><rect fill="#900" height="48" stroke="#900" stroke-width="5" transform="rotate(270,1861.0,7109.0)" width="32" x="1845.0" y="7085.0" /><rect fill="#900" height="48" stroke="#900" stroke-width="5" transform="rotate(270,2117.0,7109.0)" width="32" x="2101.0" y="7085.0" /><rect fill="#900" height="48" stroke="#900" stroke-width="5" transform="rotate(270,453.0,6981.0)" width="32" x="437.0" y="6957.0" /><rect fill="#900" height="48" stroke="#900" stroke-width="5" transform="rotate(270,709.0,6981.0)" width="32" x="693.0" y="6957.0" /><rect fill="#900" height="48" stroke="#900" stroke-width="5" transform="rotate(270,965.0,6981.0)" width="32" x="949.0" y="6957.0" /><rect fill="#900" height="48" stroke="#900" stroke-width="5" transform="rotate(270,1221.0,6981.0)" width="32" x="1205.0" y="6957.0" /><rect fill="#900" height="48" stroke="#900" stroke-width="5" transform="rotate(270,1477.0,6981.0)" width="32" x="1461.0" y="6957.0" /><rect fill="#900" height="48" stroke="#900" stroke-width="5" transform="rotate(270,1733.0,6981.0)" width="32" x="1717.0" y="6957.0" /><rect fill="#900" height="48" stroke="#900" stroke-width="5" transform="rotate(270,1989.0,6981.0)" width="32" x="1973.0" y="6957.0" /><rect fill="#900" height="48" stroke="#900" stroke-width="5" transform="rotate(270,581.0,6853.0)" width="32" x="565.0" y="6829.0" /><rect fill="#900" height="48" stroke="#900" stroke-width="5" transform="rotate(270,837.0,6853.0)" width="32" x="821.0" y="6829.0" /><rect fill="#900" height="48" stroke="#900" stroke-width="5" transform="rotate(270,1093.0,6853.0)" width="32" x="1077.0" y="6829.0" /><rect fill="#900" height="48" stroke="#900" stroke-width="5" transform="rotate(270,1349.0,6853.0)" width="32" x="1333.0" y="6829.0" /><rect fill="#900" height="48" stroke="#900" stroke-width="5" transform="rotate(270,1605.0,6853.0)" width="32" x="1589.0" y="6829.0" /><rect fill="#900" height="48" stroke="#900" stroke-width="5" transform="rotate(270,1861.0,6853.0)" width="32" x="1845.0" y="6829.0" /><rect fill="#900" height="48" stroke="#900" stroke-width="5" transform="rotate(270,2117.0,6853.0)" width="32" x="2101.0" y="6829.0" /><rect fill="#900" height="48" stroke="#900" stroke-width="5" transform="rotate(270,453.0,6725.0)" width="32" x="437.0" y="6701.0" /><rect fill="#900" height="48" stroke="#900" stroke-width="5" transform="rotate(270,709.0,6725.0)" width="32" x="693.0" y="6701.0" /><rect fill="#900" height="48" stroke="#900" stroke-width="5" transform="rotate(270,965.0,6725.0)" width="32" x="949.0" y="6701.0" /><rect fill="#900" height="48" stroke="#900" stroke-width="5" transform="rotate(270,1221.0,6725.0)" width="32" x="1205.0" y="6701.0" /><rect fill="#900" height="48" stroke="#900" stroke-width="5" transform="rotate(270,1477.0,6725.0)" width="32" x="1461.0" y="6701.0" /><rect fill="#900" height="48" stroke="#900" stroke-width="5" transform="rotate(270,1733.0,6725.0)" width="32" x="1717.0" y="6701.0" /><rect fill="#900" height="48" stroke="#900" stroke-width="5" transform="rotate(270,1989.0,6725.0)" width="32" x="1973.0" y="6701.0" /><rect fill="#900" height="48" stroke="#900" stroke-width="5" transform="rotate(270,581.0,6597.0)" width="32" x="565.0" y="6573.0" /><rect fill="#900" height="48" stroke="#900" stroke-width="5" transform="rotate(270,837.0,6597.0)" width="32" x="821.0" y="6573.0" /><rect fill="#900" height="48" stroke="#900" stroke-width="5" transform="rotate(270,1093.0,6597.0)" width="32" x="1077.0" y="6573.0" /><rect fill="#900" height="48" stroke="#900" stroke-width="5" transform="rotate(270,1349.0,6597.0)" width="32" x="1333.0" y="6573.0" /><rect fill="#900" height="48" stroke="#900" stroke-width="5" transform="rotate(270,1605.0,6597.0)" width="32" x="1589.0" y="6573.0" /><rect fill="#900" height="48" stroke="#900" stroke-width="5" transform="rotate(270,1861.0,6597.0)" width="32" x="1845.0" y="6573.0" /><rect fill="#900" height="48" stroke="#900" stroke-width="5" transform="rotate(270,2117.0,6597.0)" width="32" x="2101.0" y="6573.0" /><rect fill="#900" height="48" stroke="#900" stroke-width="5" transform="rotate(270,1285.0,4485.0)" width="32" x="1269.0" y="4461.0" /><rect fill="#900" height="48" stroke="#900" stroke-width="5" transform="rotate(270,1221.0,4613.0)" width="32" x="1205.0" y="4589.0" /><rect fill="#900" height="48" stroke="#900" stroke-width="5" transform="rotate(270,1093.0,4741.0)" width="32" x="1077.0" y="4717.0" /><rect fill="#900" height="48" stroke="#900" stroke-width="5" transform="rotate(270,1221.0,4741.0)" width="32" x="1205.0" y="4717.0" /><rect fill="#900" height="48" stroke="#900" stroke-width="5" transform="rotate(270,1349.0,4741.0)" width="32" x="1333.0" y="4717.0" /><rect fill="#900" height="48" stroke="#900" stroke-width="5" transform="rotate(270,1477.0,4741.0)" width="32" x="1461.0" y="4717.0" /><rect fill="#900" height="48" stroke="#900" stroke-width="5" transform="rotate(270,1349.0,4613.0)" width="32" x="1333.0" y="4589.0" /><rect fill="#900" height="48" stroke="#900" stroke-width="5" transform="rotate(270,453.0,6469.0)" width="32" x="437.0" y="6445.0" /><rect fill="#900" height="48" stroke="#900" stroke-width="5" transform="rotate(270,709.0,6469.0)" width="32" x="693.0" y="6445.0" /><rect fill="#900" height="48" stroke="#900" stroke-width="5" transform="rotate(270,965.0,6469.0)" width="32" x="949.0" y="6445.0" /><rect fill="#900" height="48" stroke="#900" stroke-width="5" transform="rotate(270,1221.0,6469.0)" width="32" x="1205.0" y="6445.0" /><rect fill="#900" height="48" stroke="#900" stroke-width="5" transform="rotate(270,1477.0,6469.0)" width="32" x="1461.0" y="6445.0" /><rect fill="#900" height="48" stroke="#900" stroke-width="5" transform="rotate(270,1733.0,6469.0)" width="32" x="1717.0" y="6445.0" /><rect fill="#900" height="48" stroke="#900" stroke-width="5" transform="rotate(270,1989.0,6469.0)" width="32" x="1973.0" y="6445.0" /><circle cx="581.0" cy="6277.0" fill="#090" r="16" stroke="#090" stroke-width="5" /><circle cx="837.0" cy="6277.0" fill="#090" r="16" stroke="#090" stroke-width="5" /><circle cx="1093.0" cy="6277.0" fill="#090" r="16" stroke="#090" stroke-width="5" /><circle cx="1349.0" cy="6277.0" fill="#090" r="16" stroke="#090" stroke-width="5" /><circle cx="1605.0" cy="6277.0" fill="#090" r="16" stroke="#090" stroke-width="5" /><circle cx="1861.0" cy="6277.0" fill="#090" r="16" stroke="#090" stroke-width="5" /><circle cx="2117.0" cy="6277.0" fill="#090" r="16" stroke="#090" stroke-width="5" /><circle cx="453.0" cy="4613.0" fill="#090" r="16" stroke="#090" stroke-width="5" /><circle cx="709.0" cy="4613.0" fill="#090" r="16" stroke="#090" stroke-width="5" /><circle cx="965.0" cy="4613.0" fill="#090" r="16" stroke="#090" stroke-width="5" /><circle cx="965.0" cy="4485.0" fill="#090" r="16" stroke="#090" stroke-width="5" /><circle cx="1477.0" cy="4613.0" fill="#090" r="16" stroke="#090" stroke-width="5" /><circle cx="1733.0" cy="4613.0" fill="#090" r="16" stroke="#090" stroke-width="5" /><circle cx="1989.0" cy="4613.0" fill="#090" r="16" stroke="#090" stroke-width="5" /><circle cx="453.0" cy="2949.0" fill="#090" r="16" stroke="#090" stroke-width="5" /><circle cx="709.0" cy="2949.0" fill="#090" r="16" stroke="#090" stroke-width="5" /><circle cx="965.0" cy="2949.0" fill="#090" r="16" stroke="#090" stroke-width="5" /><circle cx="1221.0" cy="2949.0" fill="#090" r="16" stroke="#090" stroke-width="5" /><circle cx="1477.0" cy="2949.0" fill="#090" r="16" stroke="#090" stroke-width="5" /><circle cx="1733.0" cy="2949.0" fill="#090" r="16" stroke="#090" stroke-width="5" /><circle cx="1989.0" cy="2949.0" fill="#090" r="16" stroke="#090" stroke-width="5" /><circle cx="581.0" cy="2949.0" fill="#090" r="16" stroke="#090" stroke-width="5" /><circle cx="837.0" cy="2949.0" fill="#090" r="16" stroke="#090" stroke-width="5" /><circle cx="1093.0" cy="2949.0" fill="#090" r="16" stroke="#090" stroke-width="5" /><circle cx="1349.0" cy="2949.0" fill="#090" r="16" stroke="#090" stroke-width="5" /><circle cx="1605.0" cy="2949.0" fill="#090" r="16" stroke="#090" stroke-width="5" /><circle cx="1861.0" cy="2949.0" fill="#090" r="16" stroke="#090" stroke-width="5" /><circle cx="2117.0" cy="2949.0" fill="#090" r="16" stroke="#090" stroke-width="5" /><circle cx="1157.0" cy="4997.0" fill="#900" r="16" stroke="#900" stroke-width="5" /><circle cx="1285.0" cy="453.0" fill="#900" r="16" stroke="#900" stroke-width="5" /><circle cx="1349.0" cy="453.0" fill="#900" r="16" stroke="#900" stroke-width="5" /><circle cx="1285.0" cy="517.0" fill="#900" r="16" stroke="#900" stroke-width="5" /><circle cx="1349.0" cy="517.0" fill="#900" r="16" stroke="#900" stroke-width="5" /><circle cx="1285.0" cy="645.0" fill="#090" r="16" stroke="#090" stroke-width="5" /><circle cx="1285.0" cy="645.0" fill="#090" r="16" stroke="#090" stroke-width="5" /><circle cx="1285.0" cy="645.0" fill="#090" r="16" stroke="#090" stroke-width="5" /><circle cx="1285.0" cy="645.0" fill="#090" r="16" stroke="#090" stroke-width="5" /><circle cx="1285.0" cy="645.0" fill="#090" r="16" stroke="#090" stroke-width="5" /><circle cx="1285.0" cy="645.0" fill="#090" r="16" stroke="#090" stroke-width="5" /><circle cx="1285.0" cy="645.0" fill="#090" r="16" stroke="#090" stroke-width="5" /><circle cx="1285.0" cy="645.0" fill="#090" r="16" stroke="#090" stroke-width="5" /><circle cx="1285.0" cy="645.0" fill="#090" r="16" stroke="#090" stroke-width="5" /><circle cx="1285.0" cy="645.0" fill="#090" r="16" stroke="#090" stroke-width="5" /><circle cx="1285.0" cy="645.0" fill="#090" r="16" stroke="#090" stroke-width="5" /><circle cx="1285.0" cy="645.0" fill="#090" r="16" stroke="#090" stroke-width="5" /><circle cx="1285.0" cy="645.0" fill="#090" r="16" stroke="#090" stroke-width="5" /><circle cx="1285.0" cy="645.0" fill="#090" r="16" stroke="#090" stroke-width="5" /><circle cx="325.0" cy="1989.0" fill="#090" r="16" stroke="#090" stroke-width="5" /><circle cx="581.0" cy="1989.0" fill="#090" r="16" stroke="#090" stroke-width="5" /><circle cx="837.0" cy="1989.0" fill="#090" r="16" stroke="#090" stroke-width="5" /><circle cx="1093.0" cy="1989.0" fill="#090" r="16" stroke="#090" stroke-width="5" /><circle cx="1349.0" cy="1989.0" fill="#090" r="16" stroke="#090" stroke-width="5" /><circle cx="1605.0" cy="1989.0" fill="#090" r="16" stroke="#090" stroke-width="5" /><circle cx="1861.0" cy="1989.0" fill="#090" r="16" stroke="#090" stroke-width="5" /><rect fill="#009" height="24" stroke="#009" stroke-width="5" transform="rotate(90,1285.0,5701.0)" width="24" x="1273.0" y="5689.0" /><rect fill="#900" height="48" stroke="#900" stroke-width="5" transform="rotate(270,581.0,5029.0)" width="32" x="565.0" y="5005.0" /><rect fill="#900" height="48" stroke="#900" stroke-width="5" transform="rotate(270,1861.0,5093.0)" width="32" x="1845.0" y="5069.0" /><rect fill="#900" height="48" stroke="#900" stroke-width="5" transform="rotate(270,1669.0,5125.0)" width="32" x="1653.0" y="5101.0" /><rect fill="#900" height="48" stroke="#900" stroke-width="5" transform="rotate(270,837.0,5189.0)" width="32" x="821.0" y="5165.0" /><rect fill="#900" height="48" stroke="#900" stroke-width="5" transform="rotate(270,1477.0,5253.0)" width="32" x="1461.0" y="5229.0" /><rect fill="#900" height="48" stroke="#900" stroke-width="5" transform="rotate(270,1093.0,5253.0)" width="32" x="1077.0" y="5229.0" /><rect fill="#900" height="48" stroke="#900" stroke-width="5" transform="rotate(270,1349.0,5253.0)" width="32" x="1333.0" y="5229.0" /><rect fill="#900" height="48" stroke="#900" stroke-width="5" transform="rotate(270,1221.0,5253.0)" width="32" x="1205.0" y="5229.0" /><rect fill="#900" height="48" stroke="#900" stroke-width="5" transform="rotate(270,1093.0,5125.0)" width="32" x="1077.0" y="5101.0" /><rect fill="#900" height="48" stroke="#900" stroke-width="5" transform="rotate(270,1221.0,5125.0)" width="32" x="1205.0" y="5101.0" /><rect fill="#900" height="48" stroke="#900" stroke-width="5" transform="rotate(270,1349.0,5125.0)" width="32" x="1333.0" y="5101.0" /><rect fill="#900" height="48" stroke="#900" stroke-width="5" transform="rotate(270,1477.0,5125.0)" width="32" x="1461.0" y="5101.0" /><rect fill="#090" height="24" stroke="#090" stroke-width="5" transform="rotate(270,1029.0,7685.0)" width="24" x="1017.0" y="7673.0" /><circle cx="1029.0" cy="7429.0" fill="#900" r="16" stroke="#900" stroke-width="5" /><rect fill="#900" height="48" stroke="#900" stroke-width="5" transform="rotate(270,709.0,7301.0)" width="32" x="693.0" y="7277.0" /><rect fill="#900" height="48" stroke="#900" stroke-width="5" transform="rotate(270,1669.0,7365.0)" width="32" x="1653.0" y="7341.0" /><rect fill="#900" height="48" stroke="#900" stroke-width="5" transform="rotate(270,1349.0,7365.0)" width="32" x="1333.0" y="7341.0" /><rect fill="#900" height="48" stroke="#900" stroke-width="5" transform="rotate(270,965.0,7365.0)" width="32" x="949.0" y="7341.0" /><rect fill="#900" height="48" stroke="#900" stroke-width="5" transform="rotate(270,1413.0,7621.0)" width="32" x="1397.0" y="7597.0" /><rect fill="#900" height="48" stroke="#900" stroke-width="5" transform="rotate(270,965.0,7621.0)" width="32" x="949.0" y="7597.0" /><rect fill="#900" height="48" stroke="#900" stroke-width="5" transform="rotate(270,1221.0,7749.0)" width="32" x="1205.0" y="7725.0" /><rect fill="#900" height="48" stroke="#900" stroke-width="5" transform="rotate(270,773.0,7813.0)" width="32" x="757.0" y="7789.0" /><rect fill="#900" height="48" stroke="#900" stroke-width="5" transform="rotate(270,645.0,7493.0)" width="32" x="629.0" y="7469.0" /><rect fill="#900" height="48" stroke="#900" stroke-width="5" transform="rotate(270,1669.0,7749.0)" width="32" x="1653.0" y="7725.0" /><rect fill="#900" height="48" stroke="#900" stroke-width="5" transform="rotate(270,1157.0,7493.0)" width="32" x="1141.0" y="7469.0" /><rect fill="#900" height="48" stroke="#900" stroke-width="5" transform="rotate(270,1925.0,7493.0)" width="32" x="1909.0" y="7469.0" /></svg>