<?xml version="1.0" encoding="utf-8" ?>
<svg baseProfile="tiny" height="777" version="1.2" viewBox="0 0 3594 2730" width="1024" xmlns="http://www.w3.org/2000/svg" xmlns:ev="http://www.w3.org/2001/xml-events" xmlns:xlink="http://www.w3.org/1999/xlink"><defs /><line stroke="#333" stroke-width="10" x1="1733.0" x2="1733.0" y1="21.0" y2="37.0" /><line stroke="#333" stroke-width="10" x1="1861.0" x2="1733.0" y1="21.0" y2="21.0" /><line stroke="#333" stroke-width="10" x1="1861.0" x2="1861.0" y1="37.0" y2="21.0" /><line stroke="#333" stroke-width="10" x1="1925.0" x2="1861.0" y1="37.0" y2="37.0" /><line stroke="#333" stroke-width="10" x1="1925.0" x2="1925.0" y1="293.0" y2="37.0" /><line stroke="#333" stroke-width="10" x1="1829.0" x2="1925.0" y1="293.0" y2="293.0" /><line stroke="#333" stroke-width="10" x1="1829.0" x2="1829.0" y1="309.0" y2="293.0" /><line stroke="#666" stroke-width="20" x1="1765.0" x2="1829.0" y1="309.0" y2="309.0" /><line stroke="#333" stroke-width="10" x1="1765.0" x2="1765.0" y1="293.0" y2="309.0" /><line stroke="#333" stroke-width="10" x1="1669.0" x2="1765.0" y1="293.0" y2="293.0" /><line stroke="#333" stroke-width="10" x1="1669.0" x2="1669.0" y1="37.0" y2="293.0" /><line stroke="#333" stroke-width="10" x1="1733.0" x2="1669.0" y1="37.0" y2="37.0" /><line stroke="#333" stroke-width="10" x1="1829.0" x2="1829.0" y1="325.0" y2="309.0" /><line stroke="#666" stroke-width="20" x1="1829.0" x2="1765.0" y1="325.0" y2="325.0" /><line stroke="#333" stroke-width="10" x1="1765.0" x2="1765.0" y1="309.0" y2="325.0" /><line stroke="#333" stroke-width="10" x1="1829.0" x2="1829.0" y1="389.0" y2="325.0" /><line stroke="#666" stroke-width="20" x1="1765.0" x2="1829.0" y1="389.0" y2="389.0" /><line stroke="#333" stroke-width="10" x1="1765.0" x2="1765.0" y1="325.0" y2="389.0" /><line stroke="#999" stroke-width="3" x1="1797.0" x2="1733.0" y1="165.0" y2="165.0" /><line stroke="#999" stroke-width="3" x1="1797.0" x2="1797.0" y1="101.0" y2="165.0" /><line stroke="#999" stroke-width="3" x1="1733.0" x2="1797.0" y1="101.0" y2="101.0" /><line stroke="#999" stroke-width="3" x1="1733.0" x2="1733.0" y1="165.0" y2="101.0" /><line stroke="#999" stroke-width="3" x1="1861.0" x2="1797.0" y1="165.0" y2="165.0" /><line stroke="#999" stroke-width="3" x1="1861.0" x2="1861.0" y1="101.0" y2="165.0" /><line stroke="#999" stroke-width="3" x1="1797.0" x2="1861.0" y1="101.0" y2="101.0" /><line stroke="#999" stroke-width="3" x1="1797.0" x2="1797.0" y1="229.0" y2="165.0" /><line stroke="#999" stroke-width="3" x1="1861.0" x2="1797.0" y1="229.0" y2="229.0" /><line stroke="#999" stroke-width="3" x1="1861.0" x2="1861.0" y1="165.0" y2="229.0" /><line stroke="#999" stroke-width="3" x1="1733.0" x2="1733.0" y1="229.0" y2="165.0" /><line stroke="#999" stroke-width="3" x1="1797.0" x2="1733.0" y1="229.0" y2="229.0" /><line stroke="#333" stroke-width="10" x1="1829.0" x2="1829.0" y1="405.0" y2="389.0" /><line stroke="#666" stroke-width="20" x1="1829.0" x2="1765.0" y1="405.0" y2="405.0" /><line stroke="#333" stroke-width="10" x1="1765.0" x2="1765.0" y1="389.0" y2="405.0" /><line stroke="#333" stroke-width="10" x1="1829.0" x2="1829.0" y1="421.0" y2="405.0" /><line stroke="#333" stroke-width="10" x1="2309.0" x2="1829.0" y1="421.0" y2="421.0" /><line stroke="#333" stroke-width="10" x1="2309.0" x2="2309.0" y1="805.0" y2="421.0" /><line stroke="#999" stroke-width="3" x1="2309.0" x2="2309.0" y1="1061.0" y2="805.0" /><line stroke="#333" stroke-width="10" x1="2309.0" x2="2309.0" y1="1445.0" y2="1061.0" /><line stroke="#333" stroke-width="10" x1="1925.0" x2="2309.0" y1="1445.0" y2="1445.0" /><line stroke="#999" stroke-width="3" x1="1669.0" x2="1925.0" y1="1445.0" y2="1445.0" /><line stroke="#333" stroke-width="10" x1="1285.0" x2="1669.0" y1="1445.0" y2="1445.0" /><line stroke="#333" stroke-width="10" x1="1285.0" x2="1285.0" y1="1061.0" y2="1445.0" /><line stroke="#999" stroke-width="3" x1="1285.0" x2="1285.0" y1="805.0" y2="1061.0" /><line stroke="#333" stroke-width="10" x1="1285.0" x2="1285.0" y1="421.0" y2="805.0" /><line stroke="#333" stroke-width="10" x1="1765.0" x2="1285.0" y1="421.0" y2="421.0" /><line stroke="#333" stroke-width="10" x1="1765.0" x2="1765.0" y1="405.0" y2="421.0" /><line stroke="#333" stroke-width="10" x1="1029.0" x2="1285.0" y1="1061.0" y2="1061.0" /><line stroke="#999" stroke-width="3" x1="1029.0" x2="1029.0" y1="805.0" y2="1061.0" /><line stroke="#333" stroke-width="10" x1="1285.0" x2="1029.0" y1="805.0" y2="805.0" /><line stroke="#333" stroke-width="10" x1="5.0" x2="901.0" y1="1445.0" y2="1445.0" /><line stroke="#333" stroke-width="10" x1="5.0" x2="5.0" y1="421.0" y2="1445.0" /><line stroke="#333" stroke-width="10" x1="1029.0" x2="5.0" y1="421.0" y2="421.0" /><line stroke="#333" stroke-width="10" x1="1029.0" x2="1029.0" y1="805.0" y2="421.0" /><line stroke="#333" stroke-width="10" x1="1925.0" x2="1925.0" y1="1701.0" y2="1445.0" /><line stroke="#999" stroke-width="3" x1="1669.0" x2="1925.0" y1="1701.0" y2="1701.0" /><line stroke="#333" stroke-width="10" x1="1669.0" x2="1669.0" y1="1445.0" y2="1701.0" /><line stroke="#333" stroke-width="10" x1="2309.0" x2="1925.0" y1="1701.0" y2="1701.0" /><line stroke="#333" stroke-width="10" x1="2309.0" x2="2309.0" y1="2725.0" y2="1701.0" /><line stroke="#333" stroke-width="10" x1="1285.0" x2="2309.0" y1="2725.0" y2="2725.0" /><line stroke="#333" stroke-width="10" x1="1285.0" x2="1285.0" y1="1701.0" y2="2725.0" /><line stroke="#333" stroke-width="10" x1="1669.0" x2="1285.0" y1="1701.0" y2="1701.0" /><line stroke="#333" stroke-width="10" x1="2565.0" x2="2309.0" y1="805.0" y2="805.0" /><line stroke="#999" stroke-width="3" x1="2565.0" x2="2565.0" y1="1061.0" y2="805.0" /><line stroke="#333" stroke-width="10" x1="2309.0" x2="2565.0" y1="1061.0" y2="1061.0" /><line stroke="#333" stroke-width="10" x1="2565.0" x2="2565.0" y1="421.0" y2="805.0" /><line stroke="#333" stroke-width="10" x1="3589.0" x2="3109.0" y1="421.0" y2="421.0" /><line stroke="#333" stroke-width="10" x1="3589.0" x2="3589.0" y1="1445.0" y2="421.0" /><line stroke="#333" stroke-width="10" x1="2565.0" x2="3589.0" y1="1445.0" y2="1445.0" /><line stroke="#333" stroke-width="10" x1="2565.0" x2="2565.0" y1="1061.0" y2="1445.0" /><line stroke="#333" stroke-width="10" x1="3045.0" x2="3045.0" y1="405.0" y2="421.0" /><line stroke="#d00" stroke-width="20" x1="3109.0" x2="3045.0" y1="405.0" y2="405.0" /><line stroke="#333" stroke-width="10" x1="3045.0" x2="2565.0" y1="421.0" y2="421.0" /><line stroke="#333" stroke-width="10" x1="3109.0" x2="3109.0" y1="421.0" y2="405.0" /><line stroke="#333" stroke-width="10" x1="3045.0" x2="3045.0" y1="389.0" y2="405.0" /><line stroke="#666" stroke-width="20" x1="3045.0" x2="3109.0" y1="389.0" y2="389.0" /><line stroke="#333" stroke-width="10" x1="3109.0" x2="3109.0" y1="405.0" y2="389.0" /><line stroke="#333" stroke-width="10" x1="3045.0" x2="3045.0" y1="325.0" y2="389.0" /><line stroke="#d00" stroke-width="20" x1="3109.0" x2="3045.0" y1="325.0" y2="325.0" /><line stroke="#333" stroke-width="10" x1="3109.0" x2="3109.0" y1="389.0" y2="325.0" /><line stroke="#d00" stroke-width="20" x1="3109.0" x2="3045.0" y1="245.0" y2="245.0" /><line stroke="#666" stroke-width="20" x1="3109.0" x2="3109.0" y1="309.0" y2="245.0" /><line stroke="#666" stroke-width="20" x1="3045.0" x2="3109.0" y1="309.0" y2="309.0" /><line stroke="#333" stroke-width="10" x1="3045.0" x2="3045.0" y1="245.0" y2="309.0" /><line stroke="#333" stroke-width="10" x1="3045.0" x2="3045.0" y1="309.0" y2="325.0" /><line stroke="#333" stroke-width="10" x1="3109.0" x2="3109.0" y1="325.0" y2="309.0" /><line stroke="#333" stroke-width="10" x1="3109.0" x2="3109.0" y1="229.0" y2="165.0" /><line stroke="#666" stroke-width="20" x1="3045.0" x2="3109.0" y1="229.0" y2="229.0" /><line stroke="#333" stroke-width="10" x1="3045.0" x2="3045.0" y1="165.0" y2="229.0" /><line stroke="#666" stroke-width="20" x1="3109.0" x2="3045.0" y1="165.0" y2="165.0" /><line stroke="#333" stroke-width="10" x1="3045.0" x2="3045.0" y1="229.0" y2="245.0" /><line stroke="#333" stroke-width="10" x1="3109.0" x2="3109.0" y1="245.0" y2="229.0" /><line stroke="#333" stroke-width="10" x1="3045.0" x2="3045.0" y1="133.0" y2="149.0" /><line stroke="#333" stroke-width="10" x1="3013.0" x2="3045.0" y1="133.0" y2="133.0" /><line stroke="#333" stroke-width="10" x1="3013.0" x2="3013.0" y1="5.0" y2="133.0" /><line stroke="#333" stroke-width="10" x1="3061.0" x2="3013.0" y1="5.0" y2="5.0" /><line stroke="#0d0" stroke-width="20" x1="3093.0" x2="3061.0" y1="5.0" y2="5.0" /><line stroke="#333" stroke-width="10" x1="3141.0" x2="3093.0" y1="5.0" y2="5.0" /><line stroke="#333" stroke-width="10" x1="3141.0" x2="3141.0" y1="133.0" y2="5.0" /><line stroke="#333" stroke-width="10" x1="3109.0" x2="3141.0" y1="133.0" y2="133.0" /><line stroke="#333" stroke-width="10" x1="3109.0" x2="3109.0" y1="149.0" y2="133.0" /><line stroke="#666" stroke-width="20" x1="3045.0" x2="3109.0" y1="149.0" y2="149.0" /><line stroke="#333" stroke-width="10" x1="3045.0" x2="3045.0" y1="149.0" y2="165.0" /><line stroke="#333" stroke-width="10" x1="3109.0" x2="3109.0" y1="165.0" y2="149.0" /><line stroke="#333" stroke-width="10" x1="1029.0" x2="1029.0" y1="1317.0" y2="1061.0" /><line stroke="#999" stroke-width="3" x1="901.0" x2="901.0" y1="1317.0" y2="1445.0" /><line stroke="#999" stroke-width="3" x1="1029.0" x2="901.0" y1="1317.0" y2="1317.0" /><line stroke="#333" stroke-width="10" x1="1029.0" x2="1029.0" y1="1445.0" y2="1317.0" /><line stroke="#333" stroke-width="10" x1="901.0" x2="1029.0" y1="1445.0" y2="1445.0" /><line stroke="#999" stroke-width="3" x1="869.0" x2="869.0" y1="1413.0" y2="1349.0" /><line stroke="#999" stroke-width="3" x1="805.0" x2="869.0" y1="1413.0" y2="1413.0" /><line stroke="#999" stroke-width="3" x1="805.0" x2="805.0" y1="1349.0" y2="1413.0" /><line stroke="#999" stroke-width="3" x1="869.0" x2="805.0" y1="1349.0" y2="1349.0" /><line stroke="#999" stroke-width="3" x1="997.0" x2="709.0" y1="1221.0" y2="1221.0" /><line stroke="#999" stroke-width="3" x1="997.0" x2="997.0" y1="1285.0" y2="1221.0" /><line stroke="#999" stroke-width="3" x1="773.0" x2="997.0" y1="1285.0" y2="1285.0" /><line stroke="#999" stroke-width="3" x1="773.0" x2="773.0" y1="1413.0" y2="1285.0" /><line stroke="#999" stroke-width="3" x1="709.0" x2="773.0" y1="1413.0" y2="1413.0" /><line stroke="#999" stroke-width="3" x1="709.0" x2="709.0" y1="1221.0" y2="1413.0" /><line stroke="#999" stroke-width="3" x1="2181.0" x2="2181.0" y1="2341.0" y2="1957.0" /><line stroke="#999" stroke-width="3" x1="2053.0" x2="2181.0" y1="2341.0" y2="2341.0" /><line stroke="#999" stroke-width="3" x1="2053.0" x2="2053.0" y1="2469.0" y2="2341.0" /><line stroke="#999" stroke-width="3" x1="1925.0" x2="2053.0" y1="2469.0" y2="2469.0" /><line stroke="#999" stroke-width="3" x1="1925.0" x2="1925.0" y1="2341.0" y2="2469.0" /><line stroke="#999" stroke-width="3" x1="1797.0" x2="1925.0" y1="2341.0" y2="2341.0" /><line stroke="#999" stroke-width="3" x1="1797.0" x2="1797.0" y1="2085.0" y2="2341.0" /><line stroke="#999" stroke-width="3" x1="1541.0" x2="1797.0" y1="2085.0" y2="2085.0" /><line stroke="#999" stroke-width="3" x1="1541.0" x2="1541.0" y1="2597.0" y2="2085.0" /><line stroke="#999" stroke-width="3" x1="1413.0" x2="1541.0" y1="2597.0" y2="2597.0" /><line stroke="#999" stroke-width="3" x1="1413.0" x2="1413.0" y1="1957.0" y2="2597.0" /><line stroke="#999" stroke-width="3" x1="2181.0" x2="1413.0" y1="1957.0" y2="1957.0" /><line stroke="#999" stroke-width="3" x1="1573.0" x2="1637.0" y1="2533.0" y2="2533.0" /><line stroke="#999" stroke-width="3" x1="1573.0" x2="1573.0" y1="2469.0" y2="2533.0" /><line stroke="#999" stroke-width="3" x1="1637.0" x2="1573.0" y1="2469.0" y2="2469.0" /><line stroke="#999" stroke-width="3" x1="1637.0" x2="1637.0" y1="2533.0" y2="2469.0" /><line stroke="#999" stroke-width="3" x1="1669.0" x2="1733.0" y1="2533.0" y2="2533.0" /><line stroke="#999" stroke-width="3" x1="1669.0" x2="1669.0" y1="2469.0" y2="2533.0" /><line stroke="#999" stroke-width="3" x1="1733.0" x2="1669.0" y1="2469.0" y2="2469.0" /><line stroke="#999" stroke-width="3" x1="1733.0" x2="1733.0" y1="2533.0" y2="2469.0" /><line stroke="#333" stroke-width="10" x1="3189.0" x2="3189.0" y1="309.0" y2="245.0" /><line stroke="#333" stroke-width="10" x1="3125.0" x2="3189.0" y1="309.0" y2="309.0" /><line stroke="#666" stroke-width="20" x1="3125.0" x2="3125.0" y1="245.0" y2="309.0" /><line stroke="#333" stroke-width="10" x1="3189.0" x2="3125.0" y1="245.0" y2="245.0" /><line stroke="#333" stroke-width="10" x1="3109.0" x2="3125.0" y1="309.0" y2="309.0" /><line stroke="#333" stroke-width="10" x1="3125.0" x2="3109.0" y1="245.0" y2="245.0" /><ellipse cx="1797.0" cy="53.0" fill="#009" rx="12" ry="24" stroke="#009" stroke-width="5" /><rect fill="#900" height="48" stroke="#900" stroke-width="5" transform="rotate(90,3045.0,37.0)" width="32" x="3029.0" y="13.0" /><rect fill="#900" height="48" stroke="#900" stroke-width="5" transform="rotate(90,3077.0,85.0)" width="32" x="3061.0" y="61.0" /><rect fill="#900" height="48" stroke="#900" stroke-width="5" transform="rotate(90,3109.0,37.0)" width="32" x="3093.0" y="13.0" /><rect fill="#900" height="48" stroke="#900" stroke-width="5" transform="rotate(90,3077.0,197.0)" width="32" x="3061.0" y="173.0" /><rect fill="#900" height="48" stroke="#900" stroke-width="5" transform="rotate(90,3077.0,277.0)" width="32" x="3061.0" y="253.0" /><rect fill="#900" height="48" stroke="#900" stroke-width="5" transform="rotate(90,3077.0,357.0)" width="32" x="3061.0" y="333.0" /><ellipse cx="965.0" cy="1381.0" fill="#090" rx="12" ry="24" stroke="#090" stroke-width="5" /><ellipse cx="1477.0" cy="2533.0" fill="#090" rx="12" ry="24" stroke="#090" stroke-width="5" /><ellipse cx="2629.0" cy="485.0" fill="#090" rx="12" ry="24" stroke="#090" stroke-width="5" /><circle cx="837.0" cy="1381.0" fill="#900" r="16" stroke="#900" stroke-width="5" /><circle cx="741.0" cy="1381.0" fill="#090" r="16" stroke="#090" stroke-width="5" /><circle cx="741.0" cy="1253.0" fill="#090" r="16" stroke="#090" stroke-width="5" /><circle cx="965.0" cy="1253.0" fill="#090" r="16" stroke="#090" stroke-width="5" /><circle cx="901.0" cy="1253.0" fill="#090" r="16" stroke="#090" stroke-width="5" /><circle cx="741.0" cy="1317.0" fill="#090" r="16" stroke="#090" stroke-width="5" /><circle cx="805.0" cy="1253.0" fill="#090" r="16" stroke="#090" stroke-width="5" /><rect fill="#900" height="48" stroke="#900" stroke-width="5" transform="rotate(45,69.0,485.0)" width="32" x="53.0" y="461.0" /><rect fill="#900" height="48" stroke="#900" stroke-width="5" transform="rotate(0,229.0,1093.0)" width="32" x="213.0" y="1069.0" /><rect fill="#900" height="48" stroke="#900" stroke-width="5" transform="rotate(0,229.0,773.0)" width="32" x="213.0" y="749.0" /><rect fill="#900" height="48" stroke="#900" stroke-width="5" transform="rotate(0,133.0,933.0)" width="32" x="117.0" y="909.0" /><rect fill="#900" height="48" stroke="#900" stroke-width="5" transform="rotate(0,1381.0,1797.0)" width="32" x="1365.0" y="1773.0" /><rect fill="#900" height="48" stroke="#900" stroke-width="5" transform="rotate(180,2213.0,1797.0)" width="32" x="2197.0" y="1773.0" /><rect fill="#900" height="48" stroke="#900" stroke-width="5" transform="rotate(90,1605.0,2149.0)" width="32" x="1589.0" y="2125.0" /><rect fill="#900" height="48" stroke="#900" stroke-width="5" transform="rotate(90,1733.0,2149.0)" width="32" x="1717.0" y="2125.0" /><rect fill="#900" height="48" stroke="#900" stroke-width="5" transform="rotate(135,1893.0,2373.0)" width="32" x="1877.0" y="2349.0" /><rect fill="#900" height="48" stroke="#900" stroke-width="5" transform="rotate(0,2085.0,2373.0)" width="32" x="2069.0" y="2349.0" /><circle cx="1797.0" cy="1573.0" fill="#009" r="16" stroke="#009" stroke-width="5" /><circle cx="1989.0" cy="2405.0" fill="#009" r="16" stroke="#009" stroke-width="5" /><circle cx="1477.0" cy="2021.0" fill="#009" r="16" stroke="#009" stroke-width="5" /><circle cx="2117.0" cy="2277.0" fill="#090" r="16" stroke="#090" stroke-width="5" /><circle cx="1861.0" cy="2277.0" fill="#090" r="16" stroke="#090" stroke-width="5" /><circle cx="1989.0" cy="2277.0" fill="#900" r="16" stroke="#900" stroke-width="5" /><circle cx="1989.0" cy="2181.0" fill="#009" r="16" stroke="#009" stroke-width="5" /><circle cx="1861.0" cy="2181.0" fill="#009" r="16" stroke="#009" stroke-width="5" /><circle cx="2117.0" cy="2181.0" fill="#009" r="16" stroke="#009" stroke-width="5" /><circle cx="2117.0" cy="2021.0" fill="#090" r="16" stroke="#090" stroke-width="5" /><circle cx="69.0" cy="1381.0" fill="#009" r="16" stroke="#009" stroke-width="5" /><circle cx="133.0" cy="1381.0" fill="#009" r="16" stroke="#009" stroke-width="5" /><circle cx="69.0" cy="1317.0" fill="#009" r="16" stroke="#009" stroke-width="5" /><circle cx="965.0" cy="485.0" fill="#009" r="16" stroke="#009" stroke-width="5" /><rect fill="#900" height="48" stroke="#900" stroke-width="5" transform="rotate(90,2725.0,549.0)" width="32" x="2709.0" y="525.0" /><rect fill="#900" height="48" stroke="#900" stroke-width="5" transform="rotate(270,2725.0,1381.0)" width="32" x="2709.0" y="1357.0" /><rect fill="#900" height="48" stroke="#900" stroke-width="5" transform="rotate(270,2629.0,1381.0)" width="32" x="2613.0" y="1357.0" /><rect fill="#900" height="48" stroke="#900" stroke-width="5" transform="rotate(90,2629.0,549.0)" width="32" x="2613.0" y="525.0" /><circle cx="3525.0" cy="933.0" fill="#009" r="16" stroke="#009" stroke-width="5" /><rect fill="#900" height="48" stroke="#900" stroke-width="5" transform="rotate(270,2629.0,1285.0)" width="32" x="2613.0" y="1261.0" /><rect fill="#900" height="48" stroke="#900" stroke-width="5" transform="rotate(90,2629.0,645.0)" width="32" x="2613.0" y="621.0" /><circle cx="3525.0" cy="997.0" fill="#009" r="16" stroke="#009" stroke-width="5" /><circle cx="3461.0" cy="933.0" fill="#009" r="16" stroke="#009" stroke-width="5" /><circle cx="3525.0" cy="869.0" fill="#009" r="16" stroke="#009" stroke-width="5" /><circle cx="3157.0" cy="277.0" fill="#900" r="16" stroke="#900" stroke-width="5" /><circle cx="1317.0" cy="933.0" fill="#009" r="16" stroke="#009" stroke-width="5" /><circle cx="1349.0" cy="933.0" fill="#009" r="16" stroke="#009" stroke-width="5" /><circle cx="1381.0" cy="933.0" fill="#009" r="16" stroke="#009" stroke-width="5" /><circle cx="1413.0" cy="933.0" fill="#009" r="16" stroke="#009" stroke-width="5" /><circle cx="1445.0" cy="933.0" fill="#009" r="16" stroke="#009" stroke-width="5" /><circle cx="1477.0" cy="933.0" fill="#009" r="16" stroke="#009" stroke-width="5" /><circle cx="1509.0" cy="933.0" fill="#009" r="16" stroke="#009" stroke-width="5" /><circle cx="1333.0" cy="949.0" fill="#009" r="16" stroke="#009" stroke-width="5" /><circle cx="1333.0" cy="917.0" fill="#009" r="16" stroke="#009" stroke-width="5" /><circle cx="1349.0" cy="901.0" fill="#009" r="16" stroke="#009" stroke-width="5" /><circle cx="1365.0" cy="885.0" fill="#009" r="16" stroke="#009" stroke-width="5" /><circle cx="1349.0" cy="965.0" fill="#009" r="16" stroke="#009" stroke-width="5" /><circle cx="1365.0" cy="981.0" fill="#009" r="16" stroke="#009" stroke-width="5" /><circle cx="1381.0" cy="997.0" fill="#009" r="16" stroke="#009" stroke-width="5" /><circle cx="1381.0" cy="869.0" fill="#009" r="16" stroke="#009" stroke-width="5" /><circle cx="2277.0" cy="933.0" fill="#009" r="16" stroke="#009" stroke-width="5" /><circle cx="2261.0" cy="949.0" fill="#009" r="16" stroke="#009" stroke-width="5" /><circle cx="2245.0" cy="965.0" fill="#009" r="16" stroke="#009" stroke-width="5" /><circle cx="2229.0" cy="981.0" fill="#009" r="16" stroke="#009" stroke-width="5" /><circle cx="2213.0" cy="997.0" fill="#009" r="16" stroke="#009" stroke-width="5" /><circle cx="2261.0" cy="917.0" fill="#009" r="16" stroke="#009" stroke-width="5" /><circle cx="2245.0" cy="901.0" fill="#009" r="16" stroke="#009" stroke-width="5" /><circle cx="2229.0" cy="885.0" fill="#009" r="16" stroke="#009" stroke-width="5" /><circle cx="2213.0" cy="869.0" fill="#009" r="16" stroke="#009" stroke-width="5" /><circle cx="2245.0" cy="933.0" fill="#009" r="16" stroke="#009" stroke-width="5" /><circle cx="2213.0" cy="933.0" fill="#009" r="16" stroke="#009" stroke-width="5" /><circle cx="2181.0" cy="933.0" fill="#009" r="16" stroke="#009" stroke-width="5" /><circle cx="2149.0" cy="933.0" fill="#009" r="16" stroke="#009" stroke-width="5" /><circle cx="2117.0" cy="933.0" fill="#009" r="16" stroke="#009" stroke-width="5" /><circle cx="2085.0" cy="933.0" fill="#009" r="16" stroke="#009" stroke-width="5" /><circle cx="1797.0" cy="1413.0" fill="#009" r="16" stroke="#009" stroke-width="5" /><circle cx="1797.0" cy="1381.0" fill="#009" r="16" stroke="#009" stroke-width="5" /><circle cx="1797.0" cy="1349.0" fill="#009" r="16" stroke="#009" stroke-width="5" /><circle cx="1797.0" cy="1317.0" fill="#009" r="16" stroke="#009" stroke-width="5" /><circle cx="1797.0" cy="1285.0" fill="#009" r="16" stroke="#009" stroke-width="5" /><circle cx="1797.0" cy="1253.0" fill="#009" r="16" stroke="#009" stroke-width="5" /><circle cx="1797.0" cy="1221.0" fill="#009" r="16" stroke="#009" stroke-width="5" /><circle cx="1781.0" cy="1397.0" fill="#009" r="16" stroke="#009" stroke-width="5" /><circle cx="1813.0" cy="1397.0" fill="#009" r="16" stroke="#009" stroke-width="5" /><circle cx="1829.0" cy="1381.0" fill="#009" r="16" stroke="#009" stroke-width="5" /><circle cx="1845.0" cy="1365.0" fill="#009" r="16" stroke="#009" stroke-width="5" /><circle cx="1861.0" cy="1349.0" fill="#009" r="16" stroke="#009" stroke-width="5" /><circle cx="1765.0" cy="1381.0" fill="#009" r="16" stroke="#009" stroke-width="5" /><circle cx="1749.0" cy="1365.0" fill="#009" r="16" stroke="#009" stroke-width="5" /><circle cx="1733.0" cy="1349.0" fill="#009" r="16" stroke="#009" stroke-width="5" /><circle cx="1701.0" cy="69.0" fill="#090" r="16" stroke="#090" stroke-width="5" /><circle cx="1893.0" cy="69.0" fill="#090" r="16" stroke="#090" stroke-width="5" /><ellipse cx="1701.0" cy="117.0" fill="#009" rx="12" ry="24" stroke="#009" stroke-width="5" /><ellipse cx="1845.0" cy="261.0" fill="#009" rx="12" ry="24" stroke="#009" stroke-width="5" /><ellipse cx="1893.0" cy="181.0" fill="#009" rx="12" ry="24" stroke="#009" stroke-width="5" /></svg>