<?xml version="1.0" encoding="utf-8" ?>
<svg baseProfile="tiny" height="1024" version="1.2" viewBox="0 0 1170 1354" width="884" xmlns="http://www.w3.org/2000/svg" xmlns:ev="http://www.w3.org/2001/xml-events" xmlns:xlink="http://www.w3.org/1999/xlink"><defs /><line stroke="#333" stroke-width="10" x1="141.0" x2="525.0" y1="517.0" y2="517.0" /><line stroke="#333" stroke-width="10" x1="1037.0" x2="1101.0" y1="517.0" y2="405.0" /><line stroke="#333" stroke-width="10" x1="1037.0" x2="141.0" y1="5.0" y2="5.0" /><line stroke="#333" stroke-width="10" x1="141.0" x2="77.0" y1="5.0" y2="117.0" /><line stroke="#333" stroke-width="10" x1="1101.0" x2="1101.0" y1="405.0" y2="325.0" /><line stroke="#333" stroke-width="10" x1="1101.0" x2="1037.0" y1="117.0" y2="5.0" /><line stroke="#333" stroke-width="10" x1="77.0" x2="77.0" y1="117.0" y2="197.0" /><line stroke="#333" stroke-width="10" x1="77.0" x2="141.0" y1="405.0" y2="517.0" /><line stroke="#999" stroke-width="3" x1="269.0" x2="205.0" y1="325.0" y2="325.0" /><line stroke="#999" stroke-width="3" x1="269.0" x2="269.0" y1="261.0" y2="325.0" /><line stroke="#999" stroke-width="3" x1="205.0" x2="205.0" y1="325.0" y2="261.0" /><line stroke="#999" stroke-width="3" x1="333.0" x2="269.0" y1="325.0" y2="325.0" /><line stroke="#999" stroke-width="3" x1="333.0" x2="333.0" y1="261.0" y2="325.0" /><line stroke="#999" stroke-width="3" x1="333.0" x2="269.0" y1="261.0" y2="261.0" /><line stroke="#999" stroke-width="3" x1="909.0" x2="845.0" y1="325.0" y2="325.0" /><line stroke="#999" stroke-width="3" x1="845.0" x2="845.0" y1="325.0" y2="261.0" /><line stroke="#999" stroke-width="3" x1="269.0" x2="269.0" y1="197.0" y2="261.0" /><line stroke="#999" stroke-width="3" x1="205.0" x2="269.0" y1="197.0" y2="197.0" /><line stroke="#999" stroke-width="3" x1="205.0" x2="205.0" y1="261.0" y2="197.0" /><line stroke="#999" stroke-width="3" x1="333.0" x2="333.0" y1="197.0" y2="261.0" /><line stroke="#999" stroke-width="3" x1="269.0" x2="333.0" y1="197.0" y2="197.0" /><line stroke="#999" stroke-width="3" x1="973.0" x2="909.0" y1="325.0" y2="325.0" /><line stroke="#999" stroke-width="3" x1="973.0" x2="973.0" y1="261.0" y2="325.0" /><line stroke="#999" stroke-width="3" x1="973.0" x2="909.0" y1="261.0" y2="261.0" /><line stroke="#999" stroke-width="3" x1="909.0" x2="909.0" y1="325.0" y2="261.0" /><line stroke="#999" stroke-width="3" x1="973.0" x2="973.0" y1="197.0" y2="261.0" /><line stroke="#999" stroke-width="3" x1="909.0" x2="973.0" y1="197.0" y2="197.0" /><line stroke="#999" stroke-width="3" x1="909.0" x2="909.0" y1="261.0" y2="197.0" /><line stroke="#999" stroke-width="3" x1="845.0" x2="909.0" y1="261.0" y2="261.0" /><line stroke="#999" stroke-width="3" x1="845.0" x2="909.0" y1="197.0" y2="197.0" /><line stroke="#999" stroke-width="3" x1="845.0" x2="845.0" y1="261.0" y2="197.0" /><line stroke="#999" stroke-width="3" x1="205.0" x2="269.0" y1="261.0" y2="261.0" /><line stroke="#999" stroke-width="3" x1="1101.0" x2="1101.0" y1="325.0" y2="197.0" /><line stroke="#333" stroke-width="10" x1="1101.0" x2="1101.0" y1="197.0" y2="117.0" /><line stroke="#333" stroke-width="10" x1="77.0" x2="77.0" y1="325.0" y2="405.0" /><line stroke="#999" stroke-width="3" x1="77.0" x2="77.0" y1="197.0" y2="325.0" /><line stroke="#999" stroke-width="3" x1="525.0" x2="541.0" y1="517.0" y2="517.0" /><line stroke="#333" stroke-width="10" x1="653.0" x2="1037.0" y1="517.0" y2="517.0" /><line stroke="#666" stroke-width="20" x1="525.0" x2="653.0" y1="569.0" y2="569.0" /><line stroke="#333" stroke-width="10" x1="653.0" x2="653.0" y1="569.0" y2="545.0" /><line stroke="#333" stroke-width="10" x1="525.0" x2="525.0" y1="533.0" y2="545.0" /><line stroke="#666" stroke-width="20" x1="525.0" x2="653.0" y1="533.0" y2="533.0" /><line stroke="#333" stroke-width="10" x1="653.0" x2="653.0" y1="533.0" y2="517.0" /><line stroke="#333" stroke-width="10" x1="525.0" x2="525.0" y1="517.0" y2="533.0" /><line stroke="#333" stroke-width="10" x1="653.0" x2="653.0" y1="581.0" y2="569.0" /><line stroke="#333" stroke-width="10" x1="525.0" x2="525.0" y1="569.0" y2="581.0" /><line stroke="#333" stroke-width="10" x1="525.0" x2="557.0" y1="965.0" y2="965.0" /><line stroke="#333" stroke-width="10" x1="653.0" x2="653.0" y1="965.0" y2="909.0" /><line stroke="#666" stroke-width="20" x1="653.0" x2="525.0" y1="581.0" y2="581.0" /><line stroke="#333" stroke-width="10" x1="525.0" x2="525.0" y1="581.0" y2="901.0" /><line stroke="#999" stroke-width="3" x1="653.0" x2="525.0" y1="485.0" y2="485.0" /><line stroke="#999" stroke-width="3" x1="653.0" x2="653.0" y1="453.0" y2="485.0" /><line stroke="#999" stroke-width="3" x1="525.0" x2="653.0" y1="453.0" y2="453.0" /><line stroke="#999" stroke-width="3" x1="525.0" x2="525.0" y1="485.0" y2="453.0" /><line stroke="#999" stroke-width="3" x1="653.0" x2="525.0" y1="389.0" y2="389.0" /><line stroke="#999" stroke-width="3" x1="653.0" x2="653.0" y1="357.0" y2="389.0" /><line stroke="#999" stroke-width="3" x1="525.0" x2="653.0" y1="357.0" y2="357.0" /><line stroke="#999" stroke-width="3" x1="525.0" x2="525.0" y1="389.0" y2="357.0" /><line stroke="#333" stroke-width="10" x1="13.0" x2="77.0" y1="325.0" y2="325.0" /><line stroke="#333" stroke-width="10" x1="13.0" x2="13.0" y1="197.0" y2="229.0" /><line stroke="#333" stroke-width="10" x1="77.0" x2="13.0" y1="197.0" y2="197.0" /><line stroke="#333" stroke-width="10" x1="13.0" x2="13.0" y1="293.0" y2="325.0" /><line stroke="#333" stroke-width="10" x1="13.0" x2="13.0" y1="229.0" y2="293.0" /><line stroke="#333" stroke-width="10" x1="1101.0" x2="1165.0" y1="325.0" y2="325.0" /><line stroke="#333" stroke-width="10" x1="1165.0" x2="1165.0" y1="325.0" y2="293.0" /><line stroke="#333" stroke-width="10" x1="1165.0" x2="1101.0" y1="197.0" y2="197.0" /><line stroke="#333" stroke-width="10" x1="1165.0" x2="1165.0" y1="293.0" y2="229.0" /><line stroke="#333" stroke-width="10" x1="1165.0" x2="1165.0" y1="229.0" y2="197.0" /><line stroke="#666" stroke-width="20" x1="653.0" x2="525.0" y1="545.0" y2="545.0" /><line stroke="#333" stroke-width="10" x1="653.0" x2="653.0" y1="545.0" y2="533.0" /><line stroke="#333" stroke-width="10" x1="525.0" x2="525.0" y1="545.0" y2="569.0" /><line stroke="#999" stroke-width="3" x1="557.0" x2="621.0" y1="965.0" y2="965.0" /><line stroke="#333" stroke-width="10" x1="621.0" x2="653.0" y1="965.0" y2="965.0" /><line stroke="#333" stroke-width="10" x1="557.0" x2="621.0" y1="973.0" y2="973.0" /><line stroke="#333" stroke-width="10" x1="621.0" x2="621.0" y1="973.0" y2="965.0" /><line stroke="#333" stroke-width="10" x1="557.0" x2="557.0" y1="965.0" y2="973.0" /><line stroke="#333" stroke-width="10" x1="1101.0" x2="109.0" y1="997.0" y2="997.0" /><line stroke="#333" stroke-width="10" x1="1101.0" x2="1101.0" y1="1349.0" y2="1077.0" /><line stroke="#333" stroke-width="10" x1="109.0" x2="109.0" y1="997.0" y2="1077.0" /><line stroke="#333" stroke-width="10" x1="109.0" x2="1101.0" y1="1349.0" y2="1349.0" /><line stroke="#333" stroke-width="10" x1="109.0" x2="109.0" y1="1077.0" y2="1349.0" /><line stroke="#999" stroke-width="3" x1="461.0" x2="461.0" y1="37.0" y2="165.0" /><line stroke="#999" stroke-width="3" x1="349.0" x2="461.0" y1="101.0" y2="37.0" /><line stroke="#999" stroke-width="3" x1="461.0" x2="349.0" y1="165.0" y2="101.0" /><line stroke="#999" stroke-width="3" x1="461.0" x2="461.0" y1="357.0" y2="485.0" /><line stroke="#999" stroke-width="3" x1="349.0" x2="461.0" y1="421.0" y2="357.0" /><line stroke="#999" stroke-width="3" x1="461.0" x2="349.0" y1="485.0" y2="421.0" /><line stroke="#999" stroke-width="3" x1="589.0" x2="589.0" y1="197.0" y2="325.0" /><line stroke="#999" stroke-width="3" x1="477.0" x2="589.0" y1="261.0" y2="197.0" /><line stroke="#999" stroke-width="3" x1="589.0" x2="477.0" y1="325.0" y2="261.0" /><line stroke="#00d" stroke-width="20" x1="397.0" x2="461.0" y1="1169.0" y2="1169.0" /><line stroke="#00d" stroke-width="20" x1="461.0" x2="525.0" y1="1169.0" y2="1169.0" /><line stroke="#00d" stroke-width="20" x1="525.0" x2="589.0" y1="1169.0" y2="1169.0" /><line stroke="#00d" stroke-width="20" x1="589.0" x2="653.0" y1="1169.0" y2="1169.0" /><line stroke="#00d" stroke-width="20" x1="749.0" x2="845.0" y1="1189.0" y2="1189.0" /><line stroke="#00d" stroke-width="20" x1="845.0" x2="941.0" y1="1189.0" y2="1189.0" /><line stroke="#999" stroke-width="3" x1="525.0" x2="653.0" y1="909.0" y2="909.0" /><line stroke="#333" stroke-width="10" x1="525.0" x2="525.0" y1="909.0" y2="965.0" /><line stroke="#999" stroke-width="3" x1="1101.0" x2="109.0" y1="1077.0" y2="1077.0" /><line stroke="#333" stroke-width="10" x1="1101.0" x2="1101.0" y1="1077.0" y2="997.0" /><line stroke="#00d" stroke-width="20" x1="941.0" x2="1093.0" y1="1221.0" y2="1221.0" /><line stroke="#00d" stroke-width="20" x1="653.0" x2="749.0" y1="1189.0" y2="1189.0" /><line stroke="#999" stroke-width="3" x1="545.0" x2="541.0" y1="525.0" y2="517.0" /><line stroke="#999" stroke-width="3" x1="537.0" x2="545.0" y1="525.0" y2="525.0" /><line stroke="#999" stroke-width="3" x1="541.0" x2="537.0" y1="517.0" y2="525.0" /><line stroke="#999" stroke-width="3" x1="541.0" x2="565.0" y1="517.0" y2="517.0" /><line stroke="#999" stroke-width="3" x1="569.0" x2="565.0" y1="525.0" y2="517.0" /><line stroke="#999" stroke-width="3" x1="561.0" x2="569.0" y1="525.0" y2="525.0" /><line stroke="#999" stroke-width="3" x1="565.0" x2="561.0" y1="517.0" y2="525.0" /><line stroke="#999" stroke-width="3" x1="617.0" x2="613.0" y1="525.0" y2="517.0" /><line stroke="#999" stroke-width="3" x1="609.0" x2="617.0" y1="525.0" y2="525.0" /><line stroke="#999" stroke-width="3" x1="613.0" x2="609.0" y1="517.0" y2="525.0" /><line stroke="#999" stroke-width="3" x1="641.0" x2="637.0" y1="525.0" y2="517.0" /><line stroke="#999" stroke-width="3" x1="633.0" x2="641.0" y1="525.0" y2="525.0" /><line stroke="#999" stroke-width="3" x1="637.0" x2="633.0" y1="517.0" y2="525.0" /><line stroke="#999" stroke-width="3" x1="565.0" x2="613.0" y1="517.0" y2="517.0" /><line stroke="#999" stroke-width="3" x1="613.0" x2="637.0" y1="517.0" y2="517.0" /><line stroke="#999" stroke-width="3" x1="637.0" x2="653.0" y1="517.0" y2="517.0" /><line stroke="#00d" stroke-width="20" x1="333.0" x2="397.0" y1="1169.0" y2="1169.0" /><line stroke="#333" stroke-width="10" x1="653.0" x2="717.0" y1="837.0" y2="837.0" /><line stroke="#333" stroke-width="10" x1="717.0" x2="717.0" y1="837.0" y2="773.0" /><line stroke="#333" stroke-width="10" x1="717.0" x2="653.0" y1="773.0" y2="773.0" /><line stroke="#00d" stroke-width="20" x1="653.0" x2="653.0" y1="837.0" y2="773.0" /><line stroke="#333" stroke-width="10" x1="653.0" x2="653.0" y1="773.0" y2="581.0" /><line stroke="#333" stroke-width="10" x1="5.0" x2="117.0" y1="837.0" y2="901.0" /><line stroke="#333" stroke-width="10" x1="469.0" x2="469.0" y1="837.0" y2="645.0" /><line stroke="#333" stroke-width="10" x1="469.0" x2="357.0" y1="645.0" y2="581.0" /><line stroke="#999" stroke-width="3" x1="397.0" x2="333.0" y1="773.0" y2="773.0" /><line stroke="#999" stroke-width="3" x1="397.0" x2="397.0" y1="709.0" y2="773.0" /><line stroke="#999" stroke-width="3" x1="333.0" x2="397.0" y1="709.0" y2="709.0" /><line stroke="#999" stroke-width="3" x1="333.0" x2="333.0" y1="773.0" y2="709.0" /><line stroke="#0d0" stroke-width="20" x1="141.0" x2="77.0" y1="773.0" y2="773.0" /><line stroke="#0d0" stroke-width="20" x1="141.0" x2="141.0" y1="709.0" y2="773.0" /><line stroke="#0d0" stroke-width="20" x1="77.0" x2="141.0" y1="709.0" y2="709.0" /><line stroke="#0d0" stroke-width="20" x1="77.0" x2="77.0" y1="773.0" y2="709.0" /><line stroke="#333" stroke-width="10" x1="117.0" x2="357.0" y1="901.0" y2="901.0" /><line stroke="#333" stroke-width="10" x1="117.0" x2="5.0" y1="581.0" y2="645.0" /><line stroke="#333" stroke-width="10" x1="357.0" x2="117.0" y1="581.0" y2="581.0" /><line stroke="#333" stroke-width="10" x1="357.0" x2="469.0" y1="901.0" y2="837.0" /><line stroke="#333" stroke-width="10" x1="5.0" x2="5.0" y1="645.0" y2="837.0" /><line stroke="#999" stroke-width="3" x1="145.0" x2="141.0" y1="669.0" y2="669.0" /><line stroke="#999" stroke-width="3" x1="145.0" x2="145.0" y1="637.0" y2="669.0" /><line stroke="#999" stroke-width="3" x1="141.0" x2="145.0" y1="637.0" y2="637.0" /><line stroke="#999" stroke-width="3" x1="141.0" x2="141.0" y1="669.0" y2="637.0" /><line stroke="#999" stroke-width="3" x1="145.0" x2="141.0" y1="845.0" y2="845.0" /><line stroke="#999" stroke-width="3" x1="145.0" x2="145.0" y1="813.0" y2="845.0" /><line stroke="#999" stroke-width="3" x1="141.0" x2="145.0" y1="813.0" y2="813.0" /><line stroke="#999" stroke-width="3" x1="141.0" x2="141.0" y1="845.0" y2="813.0" /><line stroke="#333" stroke-width="10" x1="653.0" x2="653.0" y1="909.0" y2="901.0" /><line stroke="#00d" stroke-width="20" x1="653.0" x2="525.0" y1="901.0" y2="901.0" /><line stroke="#333" stroke-width="10" x1="525.0" x2="525.0" y1="901.0" y2="909.0" /><line stroke="#333" stroke-width="10" x1="653.0" x2="653.0" y1="901.0" y2="837.0" /><line stroke="#00d" stroke-width="20" x1="389.0" x2="341.0" y1="765.0" y2="765.0" /><line stroke="#00d" stroke-width="20" x1="389.0" x2="389.0" y1="717.0" y2="765.0" /><line stroke="#00d" stroke-width="20" x1="341.0" x2="389.0" y1="717.0" y2="717.0" /><line stroke="#00d" stroke-width="20" x1="341.0" x2="341.0" y1="765.0" y2="717.0" /><line stroke="#999" stroke-width="3" x1="113.0" x2="105.0" y1="745.0" y2="745.0" /><line stroke="#999" stroke-width="3" x1="113.0" x2="113.0" y1="737.0" y2="745.0" /><line stroke="#999" stroke-width="3" x1="105.0" x2="113.0" y1="737.0" y2="737.0" /><line stroke="#999" stroke-width="3" x1="105.0" x2="105.0" y1="745.0" y2="737.0" /><line stroke="#00d" stroke-width="20" x1="269.0" x2="333.0" y1="1169.0" y2="1169.0" /><line stroke="#999" stroke-width="3" x1="117.0" x2="237.0" y1="1269.0" y2="1269.0" /><line stroke="#999" stroke-width="3" x1="117.0" x2="237.0" y1="1285.0" y2="1285.0" /><line stroke="#999" stroke-width="3" x1="1109.0" x2="1105.0" y1="303.0" y2="303.0" /><line stroke="#999" stroke-width="3" x1="1109.0" x2="1109.0" y1="299.0" y2="303.0" /><line stroke="#999" stroke-width="3" x1="1105.0" x2="1109.0" y1="299.0" y2="299.0" /><line stroke="#999" stroke-width="3" x1="1105.0" x2="1105.0" y1="303.0" y2="299.0" /><line stroke="#999" stroke-width="3" x1="1109.0" x2="1105.0" y1="277.0" y2="277.0" /><line stroke="#999" stroke-width="3" x1="1109.0" x2="1109.0" y1="273.0" y2="277.0" /><line stroke="#999" stroke-width="3" x1="1105.0" x2="1109.0" y1="273.0" y2="273.0" /><line stroke="#999" stroke-width="3" x1="1105.0" x2="1105.0" y1="277.0" y2="273.0" /><line stroke="#999" stroke-width="3" x1="1109.0" x2="1105.0" y1="249.0" y2="249.0" /><line stroke="#999" stroke-width="3" x1="1109.0" x2="1109.0" y1="245.0" y2="249.0" /><line stroke="#999" stroke-width="3" x1="1105.0" x2="1109.0" y1="245.0" y2="245.0" /><line stroke="#999" stroke-width="3" x1="1105.0" x2="1105.0" y1="249.0" y2="245.0" /><line stroke="#999" stroke-width="3" x1="1109.0" x2="1105.0" y1="223.0" y2="223.0" /><line stroke="#999" stroke-width="3" x1="1109.0" x2="1109.0" y1="219.0" y2="223.0" /><line stroke="#999" stroke-width="3" x1="1105.0" x2="1109.0" y1="219.0" y2="219.0" /><line stroke="#999" stroke-width="3" x1="1105.0" x2="1105.0" y1="223.0" y2="219.0" /><line stroke="#333" stroke-width="10" x1="1133.0" x2="1165.0" y1="165.0" y2="165.0" /><line stroke="#333" stroke-width="10" x1="1165.0" x2="1165.0" y1="165.0" y2="133.0" /><line stroke="#333" stroke-width="10" x1="1165.0" x2="1133.0" y1="133.0" y2="133.0" /><line stroke="#333" stroke-width="10" x1="1133.0" x2="1133.0" y1="133.0" y2="165.0" /><line stroke="#999" stroke-width="3" x1="1133.0" x2="1165.0" y1="165.0" y2="133.0" /><ellipse cx="717.0" cy="261.0" fill="#009" rx="12" ry="24" stroke="#009" stroke-width="5" /><circle cx="589.0" cy="261.0" fill="#009" r="16" stroke="#009" stroke-width="5" /><circle cx="173.0" cy="229.0" fill="#009" r="16" stroke="#009" stroke-width="5" /><circle cx="925.0" cy="245.0" fill="#009" r="16" stroke="#009" stroke-width="5" /><circle cx="253.0" cy="277.0" fill="#009" r="16" stroke="#009" stroke-width="5" /><rect fill="#900" height="48" stroke="#900" stroke-width="5" transform="rotate(180,445.0,261.0)" width="32" x="429.0" y="237.0" /><rect fill="#900" height="48" stroke="#900" stroke-width="5" transform="rotate(180,461.0,261.0)" width="32" x="445.0" y="237.0" /><rect fill="#009" height="24" stroke="#009" stroke-width="5" transform="rotate(270,589.0,521.0)" width="24" x="577.0" y="509.0" /><rect fill="#009" height="24" stroke="#009" stroke-width="5" transform="rotate(270,613.0,521.0)" width="24" x="601.0" y="509.0" /><rect fill="#009" height="24" stroke="#009" stroke-width="5" transform="rotate(270,637.0,521.0)" width="24" x="625.0" y="509.0" /><rect fill="#009" height="24" stroke="#009" stroke-width="5" transform="rotate(270,565.0,521.0)" width="24" x="553.0" y="509.0" /><rect fill="#009" height="24" stroke="#009" stroke-width="5" transform="rotate(270,541.0,521.0)" width="24" x="529.0" y="509.0" /><rect fill="#009" height="24" stroke="#009" stroke-width="5" transform="rotate(180,429.0,421.0)" width="24" x="417.0" y="409.0" /><rect fill="#009" height="24" stroke="#009" stroke-width="5" transform="rotate(180,429.0,101.0)" width="24" x="417.0" y="89.0" /><rect fill="#009" height="24" stroke="#009" stroke-width="5" transform="rotate(180,557.0,261.0)" width="24" x="545.0" y="249.0" /><rect fill="#009" height="24" stroke="#009" stroke-width="5" transform="rotate(180,781.0,261.0)" width="24" x="769.0" y="249.0" /><rect fill="#090" height="24" stroke="#090" stroke-width="5" transform="rotate(270,589.0,613.0)" width="24" x="577.0" y="601.0" /><circle cx="173.0" cy="293.0" fill="#009" r="16" stroke="#009" stroke-width="5" /><rect fill="#009" height="24" stroke="#009" stroke-width="5" transform="rotate(270,589.0,645.0)" width="24" x="577.0" y="633.0" /><ellipse cx="365.0" cy="1029.0" fill="#900" rx="12" ry="24" stroke="#900" stroke-width="5" /><ellipse cx="429.0" cy="1029.0" fill="#900" rx="12" ry="24" stroke="#900" stroke-width="5" /><ellipse cx="493.0" cy="1029.0" fill="#900" rx="12" ry="24" stroke="#900" stroke-width="5" /><ellipse cx="557.0" cy="1029.0" fill="#900" rx="12" ry="24" stroke="#900" stroke-width="5" /><ellipse cx="621.0" cy="1029.0" fill="#900" rx="12" ry="24" stroke="#900" stroke-width="5" /><ellipse cx="685.0" cy="1029.0" fill="#900" rx="12" ry="24" stroke="#900" stroke-width="5" /><ellipse cx="749.0" cy="1029.0" fill="#900" rx="12" ry="24" stroke="#900" stroke-width="5" /><ellipse cx="813.0" cy="1029.0" fill="#900" rx="12" ry="24" stroke="#900" stroke-width="5" /><ellipse cx="909.0" cy="1029.0" fill="#900" rx="12" ry="24" stroke="#900" stroke-width="5" /><ellipse cx="365.0" cy="1165.0" fill="#900" rx="12" ry="24" stroke="#900" stroke-width="5" /><ellipse cx="429.0" cy="1165.0" fill="#900" rx="12" ry="24" stroke="#900" stroke-width="5" /><ellipse cx="493.0" cy="1165.0" fill="#900" rx="12" ry="24" stroke="#900" stroke-width="5" /><ellipse cx="557.0" cy="1165.0" fill="#900" rx="12" ry="24" stroke="#900" stroke-width="5" /><ellipse cx="621.0" cy="1165.0" fill="#900" rx="12" ry="24" stroke="#900" stroke-width="5" /><rect fill="#900" height="48" stroke="#900" stroke-width="5" transform="rotate(90,701.0,1185.0)" width="32" x="685.0" y="1161.0" /><rect fill="#900" height="48" stroke="#900" stroke-width="5" transform="rotate(90,797.0,1185.0)" width="32" x="781.0" y="1161.0" /><rect fill="#900" height="48" stroke="#900" stroke-width="5" transform="rotate(90,893.0,1185.0)" width="32" x="877.0" y="1161.0" /><rect fill="#900" height="48" stroke="#900" stroke-width="5" transform="rotate(90,1021.0,1217.0)" width="32" x="1005.0" y="1193.0" /><ellipse cx="397.0" cy="1029.0" fill="#900" rx="12" ry="24" stroke="#900" stroke-width="5" /><ellipse cx="461.0" cy="1029.0" fill="#900" rx="12" ry="24" stroke="#900" stroke-width="5" /><ellipse cx="525.0" cy="1029.0" fill="#900" rx="12" ry="24" stroke="#900" stroke-width="5" /><ellipse cx="589.0" cy="1029.0" fill="#900" rx="12" ry="24" stroke="#900" stroke-width="5" /><ellipse cx="653.0" cy="1029.0" fill="#900" rx="12" ry="24" stroke="#900" stroke-width="5" /><ellipse cx="717.0" cy="1029.0" fill="#900" rx="12" ry="24" stroke="#900" stroke-width="5" /><ellipse cx="781.0" cy="1029.0" fill="#900" rx="12" ry="24" stroke="#900" stroke-width="5" /><ellipse cx="845.0" cy="1029.0" fill="#900" rx="12" ry="24" stroke="#900" stroke-width="5" /><ellipse cx="877.0" cy="1029.0" fill="#900" rx="12" ry="24" stroke="#900" stroke-width="5" /><ellipse cx="941.0" cy="1029.0" fill="#900" rx="12" ry="24" stroke="#900" stroke-width="5" /><ellipse cx="973.0" cy="1029.0" fill="#900" rx="12" ry="24" stroke="#900" stroke-width="5" /><ellipse cx="1005.0" cy="1029.0" fill="#900" rx="12" ry="24" stroke="#900" stroke-width="5" /><ellipse cx="1037.0" cy="1029.0" fill="#900" rx="12" ry="24" stroke="#900" stroke-width="5" /><ellipse cx="1069.0" cy="1029.0" fill="#900" rx="12" ry="24" stroke="#900" stroke-width="5" /><ellipse cx="333.0" cy="1029.0" fill="#900" rx="12" ry="24" stroke="#900" stroke-width="5" /><ellipse cx="301.0" cy="1029.0" fill="#900" rx="12" ry="24" stroke="#900" stroke-width="5" /><ellipse cx="301.0" cy="1165.0" fill="#900" rx="12" ry="24" stroke="#900" stroke-width="5" /><ellipse cx="269.0" cy="1029.0" fill="#900" rx="12" ry="24" stroke="#900" stroke-width="5" /><ellipse cx="237.0" cy="1029.0" fill="#900" rx="12" ry="24" stroke="#900" stroke-width="5" /><ellipse cx="205.0" cy="1029.0" fill="#900" rx="12" ry="24" stroke="#900" stroke-width="5" /><rect fill="#009" height="24" stroke="#009" stroke-width="5" transform="rotate(180,109.0,741.0)" width="24" x="97.0" y="729.0" /><rect fill="#009" height="24" stroke="#009" stroke-width="5" transform="rotate(180,365.0,741.0)" width="24" x="353.0" y="729.0" /><rect fill="#009" height="24" stroke="#009" stroke-width="5" transform="rotate(180,685.0,805.0)" width="24" x="673.0" y="793.0" /><rect fill="#900" height="48" stroke="#900" stroke-width="5" transform="rotate(0,253.0,741.0)" width="32" x="237.0" y="717.0" /><rect fill="#900" height="48" stroke="#900" stroke-width="5" transform="rotate(270,365.0,853.0)" width="32" x="349.0" y="829.0" /><rect fill="#900" height="48" stroke="#900" stroke-width="5" transform="rotate(90,365.0,629.0)" width="32" x="349.0" y="605.0" /><rect fill="#900" height="48" stroke="#900" stroke-width="5" transform="rotate(180,45.0,741.0)" width="32" x="29.0" y="717.0" /><circle cx="1005.0" cy="229.0" fill="#009" r="16" stroke="#009" stroke-width="5" /><circle cx="1005.0" cy="293.0" fill="#009" r="16" stroke="#009" stroke-width="5" /><ellipse cx="173.0" cy="1157.0" fill="#900" rx="12" ry="24" stroke="#900" stroke-width="5" /><ellipse cx="173.0" cy="1029.0" fill="#900" rx="12" ry="24" stroke="#900" stroke-width="5" /><ellipse cx="141.0" cy="1029.0" fill="#900" rx="12" ry="24" stroke="#900" stroke-width="5" /><rect fill="#009" height="24" stroke="#009" stroke-width="5" transform="rotate(180,357.0,253.0)" width="24" x="345.0" y="241.0" /><ellipse cx="173.0" cy="1261.0" fill="#900" rx="12" ry="24" stroke="#900" stroke-width="5" /></svg>