<?xml version="1.0" encoding="utf-8" ?>
<svg baseProfile="tiny" height="334" version="1.2" viewBox="0 0 7370 2410" width="1024" xmlns="http://www.w3.org/2000/svg" xmlns:ev="http://www.w3.org/2001/xml-events" xmlns:xlink="http://www.w3.org/1999/xlink"><defs /><line stroke="#333" stroke-width="10" x1="373.0" x2="373.0" y1="1829.0" y2="1861.0" /><line stroke="#333" stroke-width="10" x1="373.0" x2="501.0" y1="2085.0" y2="2085.0" /><line stroke="#999" stroke-width="3" x1="501.0" x2="501.0" y1="2085.0" y2="1829.0" /><line stroke="#333" stroke-width="10" x1="501.0" x2="373.0" y1="1829.0" y2="1829.0" /><line stroke="#333" stroke-width="10" x1="501.0" x2="629.0" y1="2085.0" y2="2085.0" /><line stroke="#333" stroke-width="10" x1="629.0" x2="629.0" y1="2085.0" y2="2053.0" /><line stroke="#333" stroke-width="10" x1="629.0" x2="501.0" y1="1829.0" y2="1829.0" /><line stroke="#333" stroke-width="10" x1="629.0" x2="821.0" y1="2053.0" y2="2053.0" /><line stroke="#333" stroke-width="10" x1="821.0" x2="821.0" y1="2053.0" y2="1861.0" /><line stroke="#333" stroke-width="10" x1="821.0" x2="629.0" y1="1861.0" y2="1861.0" /><line stroke="#999" stroke-width="3" x1="757.0" x2="693.0" y1="1957.0" y2="1957.0" /><line stroke="#999" stroke-width="3" x1="629.0" x2="629.0" y1="2053.0" y2="1861.0" /><line stroke="#333" stroke-width="10" x1="629.0" x2="629.0" y1="1861.0" y2="1829.0" /><line stroke="#999" stroke-width="3" x1="757.0" x2="757.0" y1="1893.0" y2="1957.0" /><line stroke="#999" stroke-width="3" x1="693.0" x2="757.0" y1="1893.0" y2="1893.0" /><line stroke="#00d" stroke-width="20" x1="693.0" x2="693.0" y1="1957.0" y2="1893.0" /><line stroke="#333" stroke-width="10" x1="5.0" x2="101.0" y1="1941.0" y2="1941.0" /><line stroke="#333" stroke-width="10" x1="373.0" x2="213.0" y1="1861.0" y2="1861.0" /><line stroke="#333" stroke-width="10" x1="5.0" x2="5.0" y1="1861.0" y2="1941.0" /><line stroke="#333" stroke-width="10" x1="101.0" x2="197.0" y1="2117.0" y2="2117.0" /><line stroke="#333" stroke-width="10" x1="197.0" x2="197.0" y1="2117.0" y2="1941.0" /><line stroke="#333" stroke-width="10" x1="101.0" x2="101.0" y1="1941.0" y2="2117.0" /><line stroke="#999" stroke-width="3" x1="101.0" x2="197.0" y1="1941.0" y2="1941.0" /><line stroke="#333" stroke-width="10" x1="197.0" x2="373.0" y1="1941.0" y2="1941.0" /><line stroke="#333" stroke-width="10" x1="117.0" x2="101.0" y1="2117.0" y2="2117.0" /><line stroke="#333" stroke-width="10" x1="117.0" x2="117.0" y1="2101.0" y2="2117.0" /><line stroke="#333" stroke-width="10" x1="101.0" x2="117.0" y1="2101.0" y2="2101.0" /><line stroke="#333" stroke-width="10" x1="101.0" x2="101.0" y1="2117.0" y2="2101.0" /><line stroke="#333" stroke-width="10" x1="373.0" x2="373.0" y1="1941.0" y2="2085.0" /><line stroke="#999" stroke-width="3" x1="373.0" x2="373.0" y1="1861.0" y2="1941.0" /><line stroke="#999" stroke-width="3" x1="373.0" x2="373.0" y1="1861.0" y2="1941.0" /><line stroke="#333" stroke-width="10" x1="101.0" x2="5.0" y1="1861.0" y2="1861.0" /><line stroke="#999" stroke-width="3" x1="101.0" x2="213.0" y1="1861.0" y2="1861.0" /><line stroke="#333" stroke-width="10" x1="213.0" x2="213.0" y1="1861.0" y2="1781.0" /><line stroke="#333" stroke-width="10" x1="437.0" x2="213.0" y1="1669.0" y2="1669.0" /><line stroke="#333" stroke-width="10" x1="101.0" x2="101.0" y1="1525.0" y2="1861.0" /><line stroke="#333" stroke-width="10" x1="245.0" x2="437.0" y1="1637.0" y2="1637.0" /><line stroke="#333" stroke-width="10" x1="949.0" x2="949.0" y1="1637.0" y2="1589.0" /><line stroke="#333" stroke-width="10" x1="949.0" x2="245.0" y1="1381.0" y2="1381.0" /><line stroke="#333" stroke-width="10" x1="245.0" x2="245.0" y1="1381.0" y2="1637.0" /><line stroke="#333" stroke-width="10" x1="213.0" x2="213.0" y1="1637.0" y2="1525.0" /><line stroke="#333" stroke-width="10" x1="901.0" x2="901.0" y1="1781.0" y2="1669.0" /><line stroke="#333" stroke-width="10" x1="901.0" x2="565.0" y1="1669.0" y2="1669.0" /><line stroke="#333" stroke-width="10" x1="565.0" x2="949.0" y1="1637.0" y2="1637.0" /><line stroke="#333" stroke-width="10" x1="213.0" x2="901.0" y1="1781.0" y2="1781.0" /><line stroke="#333" stroke-width="10" x1="213.0" x2="213.0" y1="1669.0" y2="1637.0" /><line stroke="#333" stroke-width="10" x1="213.0" x2="101.0" y1="1525.0" y2="1525.0" /><line stroke="#333" stroke-width="10" x1="565.0" x2="565.0" y1="1669.0" y2="1637.0" /><line stroke="#666" stroke-width="20" x1="565.0" x2="437.0" y1="1669.0" y2="1669.0" /><line stroke="#333" stroke-width="10" x1="437.0" x2="437.0" y1="1637.0" y2="1669.0" /><line stroke="#333" stroke-width="10" x1="213.0" x2="245.0" y1="1621.0" y2="1621.0" /><line stroke="#333" stroke-width="10" x1="245.0" x2="245.0" y1="1621.0" y2="1557.0" /><line stroke="#333" stroke-width="10" x1="245.0" x2="213.0" y1="1557.0" y2="1557.0" /><line stroke="#333" stroke-width="10" x1="213.0" x2="213.0" y1="1557.0" y2="1621.0" /><line stroke="#999" stroke-width="3" x1="213.0" x2="213.0" y1="1781.0" y2="1669.0" /><line stroke="#666" stroke-width="20" x1="437.0" x2="565.0" y1="1637.0" y2="1637.0" /><line stroke="#333" stroke-width="10" x1="949.0" x2="1317.0" y1="1589.0" y2="1589.0" /><line stroke="#333" stroke-width="10" x1="1477.0" x2="1477.0" y1="1589.0" y2="1429.0" /><line stroke="#333" stroke-width="10" x1="1477.0" x2="949.0" y1="1429.0" y2="1429.0" /><line stroke="#333" stroke-width="10" x1="1317.0" x2="1477.0" y1="2085.0" y2="2085.0" /><line stroke="#999" stroke-width="3" x1="949.0" x2="949.0" y1="1589.0" y2="1429.0" /><line stroke="#333" stroke-width="10" x1="949.0" x2="949.0" y1="1429.0" y2="1381.0" /><line stroke="#333" stroke-width="10" x1="1477.0" x2="1477.0" y1="2085.0" y2="1909.0" /><line stroke="#333" stroke-width="10" x1="1477.0" x2="2565.0" y1="1909.0" y2="1909.0" /><line stroke="#333" stroke-width="10" x1="1317.0" x2="1317.0" y1="1589.0" y2="2085.0" /><line stroke="#999" stroke-width="3" x1="1317.0" x2="1477.0" y1="1589.0" y2="1589.0" /><line stroke="#333" stroke-width="10" x1="2565.0" x2="2565.0" y1="1909.0" y2="1733.0" /><line stroke="#333" stroke-width="10" x1="2565.0" x2="2469.0" y1="1733.0" y2="1733.0" /><line stroke="#333" stroke-width="10" x1="2469.0" x2="3189.0" y1="1653.0" y2="1653.0" /><line stroke="#333" stroke-width="10" x1="1477.0" x2="1477.0" y1="1733.0" y2="1589.0" /><line stroke="#999" stroke-width="3" x1="1477.0" x2="1477.0" y1="1909.0" y2="1733.0" /><line stroke="#333" stroke-width="10" x1="2021.0" x2="2021.0" y1="1733.0" y2="1381.0" /><line stroke="#333" stroke-width="10" x1="2021.0" x2="1861.0" y1="1381.0" y2="1381.0" /><line stroke="#333" stroke-width="10" x1="1861.0" x2="1861.0" y1="1381.0" y2="1733.0" /><line stroke="#999" stroke-width="3" x1="2021.0" x2="1861.0" y1="1733.0" y2="1733.0" /><line stroke="#333" stroke-width="10" x1="2469.0" x2="2469.0" y1="1733.0" y2="1653.0" /><line stroke="#333" stroke-width="10" x1="2469.0" x2="2181.0" y1="1397.0" y2="1397.0" /><line stroke="#333" stroke-width="10" x1="2181.0" x2="2181.0" y1="1397.0" y2="1733.0" /><line stroke="#333" stroke-width="10" x1="2181.0" x2="2021.0" y1="1733.0" y2="1733.0" /><line stroke="#999" stroke-width="3" x1="2469.0" x2="2181.0" y1="1733.0" y2="1733.0" /><line stroke="#333" stroke-width="10" x1="1861.0" x2="1477.0" y1="1733.0" y2="1733.0" /><line stroke="#333" stroke-width="10" x1="4213.0" x2="4213.0" y1="1653.0" y2="1477.0" /><line stroke="#333" stroke-width="10" x1="4213.0" x2="2469.0" y1="1477.0" y2="1477.0" /><line stroke="#333" stroke-width="10" x1="3893.0" x2="4165.0" y1="2117.0" y2="2117.0" /><line stroke="#333" stroke-width="10" x1="2469.0" x2="2469.0" y1="1477.0" y2="1397.0" /><line stroke="#999" stroke-width="3" x1="2469.0" x2="2469.0" y1="1653.0" y2="1477.0" /><line stroke="#333" stroke-width="10" x1="4165.0" x2="4165.0" y1="2117.0" y2="2053.0" /><line stroke="#333" stroke-width="10" x1="3493.0" x2="3509.0" y1="2117.0" y2="2117.0" /><line stroke="#333" stroke-width="10" x1="3893.0" x2="3893.0" y1="1653.0" y2="2117.0" /><line stroke="#999" stroke-width="3" x1="3893.0" x2="4165.0" y1="1653.0" y2="1653.0" /><line stroke="#333" stroke-width="10" x1="4165.0" x2="4213.0" y1="1653.0" y2="1653.0" /><line stroke="#333" stroke-width="10" x1="3749.0" x2="3749.0" y1="2117.0" y2="1717.0" /><line stroke="#333" stroke-width="10" x1="3749.0" x2="3701.0" y1="1717.0" y2="1717.0" /><line stroke="#333" stroke-width="10" x1="3493.0" x2="3493.0" y1="1717.0" y2="1861.0" /><line stroke="#333" stroke-width="10" x1="3701.0" x2="3893.0" y1="1653.0" y2="1653.0" /><line stroke="#333" stroke-width="10" x1="3701.0" x2="3701.0" y1="1717.0" y2="1653.0" /><line stroke="#333" stroke-width="10" x1="3365.0" x2="3541.0" y1="1653.0" y2="1653.0" /><line stroke="#333" stroke-width="10" x1="3541.0" x2="3541.0" y1="1653.0" y2="1717.0" /><line stroke="#333" stroke-width="10" x1="3541.0" x2="3493.0" y1="1717.0" y2="1717.0" /><line stroke="#666" stroke-width="20" x1="3701.0" x2="3541.0" y1="1717.0" y2="1717.0" /><line stroke="#666" stroke-width="20" x1="3541.0" x2="3701.0" y1="1653.0" y2="1653.0" /><line stroke="#333" stroke-width="10" x1="3365.0" x2="3365.0" y1="1717.0" y2="1653.0" /><line stroke="#333" stroke-width="10" x1="3445.0" x2="3493.0" y1="1941.0" y2="1941.0" /><line stroke="#333" stroke-width="10" x1="3189.0" x2="3189.0" y1="1653.0" y2="1717.0" /><line stroke="#333" stroke-width="10" x1="3093.0" x2="3189.0" y1="2037.0" y2="2037.0" /><line stroke="#333" stroke-width="10" x1="3445.0" x2="3445.0" y1="2037.0" y2="1941.0" /><line stroke="#333" stroke-width="10" x1="3445.0" x2="3365.0" y1="1717.0" y2="1717.0" /><line stroke="#333" stroke-width="10" x1="3093.0" x2="3093.0" y1="1717.0" y2="2037.0" /><line stroke="#333" stroke-width="10" x1="3189.0" x2="3093.0" y1="1717.0" y2="1717.0" /><line stroke="#666" stroke-width="20" x1="3365.0" x2="3189.0" y1="1717.0" y2="1717.0" /><line stroke="#666" stroke-width="20" x1="3189.0" x2="3365.0" y1="1653.0" y2="1653.0" /><line stroke="#333" stroke-width="10" x1="3429.0" x2="3493.0" y1="2341.0" y2="2341.0" /><line stroke="#333" stroke-width="10" x1="3493.0" x2="3445.0" y1="1861.0" y2="1861.0" /><line stroke="#666" stroke-width="20" x1="3493.0" x2="3493.0" y1="1861.0" y2="1941.0" /><line stroke="#666" stroke-width="20" x1="3445.0" x2="3445.0" y1="1941.0" y2="1861.0" /><line stroke="#333" stroke-width="10" x1="3445.0" x2="3445.0" y1="1861.0" y2="1717.0" /><line stroke="#333" stroke-width="10" x1="3493.0" x2="3493.0" y1="1941.0" y2="2117.0" /><line stroke="#333" stroke-width="10" x1="3333.0" x2="3333.0" y1="2085.0" y2="2037.0" /><line stroke="#333" stroke-width="10" x1="3189.0" x2="3061.0" y1="2085.0" y2="2085.0" /><line stroke="#333" stroke-width="10" x1="3189.0" x2="3189.0" y1="2037.0" y2="2085.0" /><line stroke="#333" stroke-width="10" x1="3061.0" x2="3429.0" y1="2405.0" y2="2405.0" /><line stroke="#333" stroke-width="10" x1="3429.0" x2="3429.0" y1="2405.0" y2="2341.0" /><line stroke="#333" stroke-width="10" x1="3429.0" x2="3333.0" y1="2085.0" y2="2085.0" /><line stroke="#333" stroke-width="10" x1="3061.0" x2="3061.0" y1="2085.0" y2="2405.0" /><line stroke="#666" stroke-width="20" x1="3189.0" x2="3333.0" y1="2037.0" y2="2037.0" /><line stroke="#333" stroke-width="10" x1="3333.0" x2="3445.0" y1="2037.0" y2="2037.0" /><line stroke="#666" stroke-width="20" x1="3333.0" x2="3189.0" y1="2085.0" y2="2085.0" /><line stroke="#333" stroke-width="10" x1="3733.0" x2="3749.0" y1="2117.0" y2="2117.0" /><line stroke="#333" stroke-width="10" x1="3493.0" x2="3429.0" y1="2181.0" y2="2181.0" /><line stroke="#333" stroke-width="10" x1="3493.0" x2="3749.0" y1="2405.0" y2="2405.0" /><line stroke="#666" stroke-width="20" x1="3429.0" x2="3429.0" y1="2341.0" y2="2181.0" /><line stroke="#333" stroke-width="10" x1="3429.0" x2="3429.0" y1="2181.0" y2="2085.0" /><line stroke="#333" stroke-width="10" x1="3749.0" x2="3749.0" y1="2405.0" y2="2149.0" /><line stroke="#333" stroke-width="10" x1="3749.0" x2="3733.0" y1="2149.0" y2="2149.0" /><line stroke="#333" stroke-width="10" x1="3493.0" x2="3493.0" y1="2149.0" y2="2181.0" /><line stroke="#333" stroke-width="10" x1="3493.0" x2="3493.0" y1="2341.0" y2="2405.0" /><line stroke="#666" stroke-width="20" x1="3493.0" x2="3493.0" y1="2181.0" y2="2341.0" /><line stroke="#333" stroke-width="10" x1="3893.0" x2="4181.0" y1="2405.0" y2="2405.0" /><line stroke="#333" stroke-width="10" x1="4181.0" x2="4181.0" y1="2405.0" y2="2357.0" /><line stroke="#333" stroke-width="10" x1="4181.0" x2="3893.0" y1="2165.0" y2="2165.0" /><line stroke="#333" stroke-width="10" x1="3509.0" x2="3493.0" y1="2149.0" y2="2149.0" /><line stroke="#333" stroke-width="10" x1="3733.0" x2="3509.0" y1="2149.0" y2="2149.0" /><line stroke="#333" stroke-width="10" x1="3509.0" x2="3733.0" y1="2117.0" y2="2117.0" /><line stroke="#333" stroke-width="10" x1="3893.0" x2="3893.0" y1="2165.0" y2="2405.0" /><line stroke="#333" stroke-width="10" x1="3749.0" x2="3797.0" y1="2021.0" y2="2021.0" /><line stroke="#333" stroke-width="10" x1="3797.0" x2="3797.0" y1="2021.0" y2="1989.0" /><line stroke="#333" stroke-width="10" x1="3797.0" x2="3749.0" y1="1877.0" y2="1877.0" /><line stroke="#333" stroke-width="10" x1="3749.0" x2="3749.0" y1="1877.0" y2="2021.0" /><line stroke="#333" stroke-width="10" x1="3829.0" x2="3893.0" y1="2021.0" y2="2021.0" /><line stroke="#333" stroke-width="10" x1="3893.0" x2="3893.0" y1="2021.0" y2="1877.0" /><line stroke="#333" stroke-width="10" x1="3893.0" x2="3829.0" y1="1877.0" y2="1877.0" /><line stroke="#333" stroke-width="10" x1="3829.0" x2="3829.0" y1="1877.0" y2="1909.0" /><line stroke="#333" stroke-width="10" x1="3797.0" x2="3829.0" y1="1989.0" y2="1989.0" /><line stroke="#333" stroke-width="10" x1="3829.0" x2="3797.0" y1="1909.0" y2="1909.0" /><line stroke="#333" stroke-width="10" x1="3829.0" x2="3829.0" y1="1989.0" y2="2021.0" /><line stroke="#666" stroke-width="20" x1="3797.0" x2="3797.0" y1="1989.0" y2="1909.0" /><line stroke="#333" stroke-width="10" x1="3797.0" x2="3797.0" y1="1909.0" y2="1877.0" /><line stroke="#666" stroke-width="20" x1="3829.0" x2="3829.0" y1="1909.0" y2="1989.0" /><line stroke="#666" stroke-width="20" x1="3829.0" x2="3829.0" y1="1909.0" y2="1989.0" /><line stroke="#00d" stroke-width="20" x1="4085.0" x2="4021.0" y1="2021.0" y2="2021.0" /><line stroke="#999" stroke-width="3" x1="4085.0" x2="4085.0" y1="1957.0" y2="2021.0" /><line stroke="#00d" stroke-width="20" x1="4021.0" x2="4085.0" y1="1957.0" y2="1957.0" /><line stroke="#999" stroke-width="3" x1="4021.0" x2="4021.0" y1="2021.0" y2="1957.0" /><line stroke="#333" stroke-width="10" x1="4165.0" x2="4581.0" y1="2053.0" y2="2053.0" /><line stroke="#333" stroke-width="10" x1="5941.0" x2="5941.0" y1="2053.0" y2="2021.0" /><line stroke="#333" stroke-width="10" x1="5941.0" x2="5701.0" y1="1845.0" y2="1845.0" /><line stroke="#333" stroke-width="10" x1="5941.0" x2="5989.0" y1="2021.0" y2="2021.0" /><line stroke="#333" stroke-width="10" x1="4165.0" x2="4165.0" y1="1845.0" y2="1653.0" /><line stroke="#999" stroke-width="3" x1="4165.0" x2="4165.0" y1="2053.0" y2="1845.0" /><line stroke="#333" stroke-width="10" x1="4181.0" x2="4229.0" y1="2357.0" y2="2357.0" /><line stroke="#333" stroke-width="10" x1="5989.0" x2="5941.0" y1="1877.0" y2="1877.0" /><line stroke="#333" stroke-width="10" x1="5989.0" x2="6261.0" y1="2053.0" y2="2053.0" /><line stroke="#666" stroke-width="20" x1="5941.0" x2="5941.0" y1="2021.0" y2="1877.0" /><line stroke="#333" stroke-width="10" x1="5941.0" x2="5941.0" y1="1877.0" y2="1845.0" /><line stroke="#333" stroke-width="10" x1="7237.0" x2="7237.0" y1="2053.0" y2="1829.0" /><line stroke="#333" stroke-width="10" x1="7237.0" x2="5989.0" y1="1829.0" y2="1829.0" /><line stroke="#333" stroke-width="10" x1="5989.0" x2="5989.0" y1="1829.0" y2="1877.0" /><line stroke="#666" stroke-width="20" x1="5989.0" x2="5989.0" y1="1877.0" y2="2021.0" /><line stroke="#333" stroke-width="10" x1="5989.0" x2="5989.0" y1="2021.0" y2="2053.0" /><line stroke="#333" stroke-width="10" x1="4421.0" x2="4501.0" y1="1749.0" y2="1749.0" /><line stroke="#333" stroke-width="10" x1="4229.0" x2="4181.0" y1="2213.0" y2="2213.0" /><line stroke="#333" stroke-width="10" x1="4229.0" x2="7253.0" y1="2405.0" y2="2405.0" /><line stroke="#333" stroke-width="10" x1="6805.0" x2="7237.0" y1="2053.0" y2="2053.0" /><line stroke="#666" stroke-width="20" x1="4181.0" x2="4181.0" y1="2357.0" y2="2213.0" /><line stroke="#333" stroke-width="10" x1="4181.0" x2="4181.0" y1="2213.0" y2="2165.0" /><line stroke="#333" stroke-width="10" x1="7253.0" x2="7253.0" y1="2405.0" y2="2133.0" /><line stroke="#333" stroke-width="10" x1="7253.0" x2="6805.0" y1="2133.0" y2="2133.0" /><line stroke="#333" stroke-width="10" x1="4229.0" x2="4229.0" y1="2133.0" y2="2213.0" /><line stroke="#666" stroke-width="20" x1="4229.0" x2="4229.0" y1="2213.0" y2="2357.0" /><line stroke="#333" stroke-width="10" x1="4229.0" x2="4229.0" y1="2357.0" y2="2405.0" /><line stroke="#333" stroke-width="10" x1="7365.0" x2="7365.0" y1="1749.0" y2="5.0" /><line stroke="#333" stroke-width="10" x1="7365.0" x2="4421.0" y1="5.0" y2="5.0" /><line stroke="#333" stroke-width="10" x1="4421.0" x2="4421.0" y1="5.0" y2="1749.0" /><line stroke="#333" stroke-width="10" x1="5701.0" x2="7365.0" y1="1749.0" y2="1749.0" /><line stroke="#333" stroke-width="10" x1="5701.0" x2="5701.0" y1="1845.0" y2="1749.0" /><line stroke="#333" stroke-width="10" x1="4501.0" x2="4501.0" y1="1749.0" y2="1845.0" /><line stroke="#333" stroke-width="10" x1="4501.0" x2="4165.0" y1="1845.0" y2="1845.0" /><line stroke="#666" stroke-width="20" x1="5701.0" x2="4501.0" y1="1845.0" y2="1845.0" /><line stroke="#666" stroke-width="20" x1="4501.0" x2="5701.0" y1="1749.0" y2="1749.0" /><line stroke="#666" stroke-width="20" x1="4581.0" x2="5189.0" y1="2053.0" y2="2053.0" /><line stroke="#333" stroke-width="10" x1="5189.0" x2="5189.0" y1="2133.0" y2="2053.0" /><line stroke="#333" stroke-width="10" x1="6261.0" x2="5189.0" y1="2133.0" y2="2133.0" /><line stroke="#333" stroke-width="10" x1="6261.0" x2="6805.0" y1="2053.0" y2="2053.0" /><line stroke="#333" stroke-width="10" x1="6805.0" x2="6261.0" y1="2133.0" y2="2133.0" /><line stroke="#333" stroke-width="10" x1="4581.0" x2="4581.0" y1="2053.0" y2="2133.0" /><line stroke="#666" stroke-width="20" x1="5189.0" x2="4581.0" y1="2133.0" y2="2133.0" /><line stroke="#333" stroke-width="10" x1="5189.0" x2="5941.0" y1="2053.0" y2="2053.0" /><line stroke="#333" stroke-width="10" x1="4581.0" x2="4229.0" y1="2133.0" y2="2133.0" /><ellipse cx="501.0" cy="1957.0" fill="#009" rx="12" ry="24" stroke="#009" stroke-width="5" /><rect fill="#009" height="24" stroke="#009" stroke-width="5" transform="rotate(0,21.0,1925.0)" width="24" x="9.0" y="1913.0" /><ellipse cx="453.0" cy="2053.0" fill="#009" rx="12" ry="24" stroke="#009" stroke-width="5" /><ellipse cx="469.0" cy="2053.0" fill="#009" rx="12" ry="24" stroke="#009" stroke-width="5" /><ellipse cx="485.0" cy="2053.0" fill="#009" rx="12" ry="24" stroke="#009" stroke-width="5" /><ellipse cx="501.0" cy="2053.0" fill="#009" rx="12" ry="24" stroke="#009" stroke-width="5" /><ellipse cx="501.0" cy="2053.0" fill="#900" rx="12" ry="24" stroke="#900" stroke-width="5" /><rect fill="#090" height="24" stroke="#090" stroke-width="5" transform="rotate(0,565.0,2037.0)" width="24" x="553.0" y="2025.0" /><ellipse cx="565.0" cy="2037.0" fill="#900" rx="12" ry="24" stroke="#900" stroke-width="5" /><rect fill="#090" height="24" stroke="#090" stroke-width="5" transform="rotate(0,581.0,2021.0)" width="24" x="569.0" y="2009.0" /><rect fill="#090" height="24" stroke="#090" stroke-width="5" transform="rotate(0,581.0,2005.0)" width="24" x="569.0" y="1993.0" /><rect fill="#090" height="24" stroke="#090" stroke-width="5" transform="rotate(0,565.0,1989.0)" width="24" x="553.0" y="1977.0" /><rect fill="#900" height="48" stroke="#900" stroke-width="5" transform="rotate(270,149.0,2037.0)" width="32" x="133.0" y="2013.0" /><circle cx="453.0" cy="2005.0" fill="#900" r="16" stroke="#900" stroke-width="5" /><circle cx="469.0" cy="2005.0" fill="#900" r="16" stroke="#900" stroke-width="5" /><circle cx="501.0" cy="2005.0" fill="#900" r="16" stroke="#900" stroke-width="5" /><circle cx="485.0" cy="2005.0" fill="#900" r="16" stroke="#900" stroke-width="5" /><rect fill="#009" height="24" stroke="#009" stroke-width="5" transform="rotate(0,485.0,2005.0)" width="24" x="473.0" y="1993.0" /><rect fill="#090" height="24" stroke="#090" stroke-width="5" transform="rotate(0,613.0,1845.0)" width="24" x="601.0" y="1833.0" /><rect fill="#090" height="24" stroke="#090" stroke-width="5" transform="rotate(0,581.0,1845.0)" width="24" x="569.0" y="1833.0" /><rect fill="#090" height="24" stroke="#090" stroke-width="5" transform="rotate(0,613.0,2069.0)" width="24" x="601.0" y="2057.0" /><rect fill="#090" height="24" stroke="#090" stroke-width="5" transform="rotate(0,389.0,1845.0)" width="24" x="377.0" y="1833.0" /><rect fill="#090" height="24" stroke="#090" stroke-width="5" transform="rotate(0,389.0,2069.0)" width="24" x="377.0" y="2057.0" /><rect fill="#090" height="24" stroke="#090" stroke-width="5" transform="rotate(0,773.0,1925.0)" width="24" x="761.0" y="1913.0" /><rect fill="#090" height="24" stroke="#090" stroke-width="5" transform="rotate(0,341.0,1909.0)" width="24" x="329.0" y="1897.0" /><rect fill="#090" height="24" stroke="#090" stroke-width="5" transform="rotate(0,341.0,1909.0)" width="24" x="329.0" y="1897.0" /><rect fill="#090" height="24" stroke="#090" stroke-width="5" transform="rotate(0,149.0,2101.0)" width="24" x="137.0" y="2089.0" /><rect fill="#900" height="48" stroke="#900" stroke-width="5" transform="rotate(0,837.0,1509.0)" width="32" x="821.0" y="1485.0" /><rect fill="#900" height="48" stroke="#900" stroke-width="5" transform="rotate(0,357.0,1541.0)" width="32" x="341.0" y="1517.0" /><rect fill="#900" height="48" stroke="#900" stroke-width="5" transform="rotate(0,4037.0,2293.0)" width="32" x="4021.0" y="2269.0" /><rect fill="#900" height="48" stroke="#900" stroke-width="5" transform="rotate(0,2293.0,1493.0)" width="32" x="2277.0" y="1469.0" /><rect fill="#900" height="48" stroke="#900" stroke-width="5" transform="rotate(0,2341.0,1829.0)" width="32" x="2325.0" y="1805.0" /><circle cx="3125.0" cy="2325.0" fill="#009" r="16" stroke="#009" stroke-width="5" /><rect fill="#900" height="48" stroke="#900" stroke-width="5" transform="rotate(0,3157.0,2325.0)" width="32" x="3141.0" y="2301.0" /><rect fill="#900" height="48" stroke="#900" stroke-width="5" transform="rotate(0,3173.0,2325.0)" width="32" x="3157.0" y="2301.0" /><rect fill="#900" height="48" stroke="#900" stroke-width="5" transform="rotate(0,3205.0,2325.0)" width="32" x="3189.0" y="2301.0" /><rect fill="#900" height="48" stroke="#900" stroke-width="5" transform="rotate(0,3221.0,2325.0)" width="32" x="3205.0" y="2301.0" /><rect fill="#900" height="48" stroke="#900" stroke-width="5" transform="rotate(0,3253.0,2325.0)" width="32" x="3237.0" y="2301.0" /><rect fill="#900" height="48" stroke="#900" stroke-width="5" transform="rotate(0,3301.0,2325.0)" width="32" x="3285.0" y="2301.0" /><rect fill="#900" height="48" stroke="#900" stroke-width="5" transform="rotate(0,3333.0,2325.0)" width="32" x="3317.0" y="2301.0" /><rect fill="#900" height="48" stroke="#900" stroke-width="5" transform="rotate(0,4133.0,2293.0)" width="32" x="4117.0" y="2269.0" /><rect fill="#900" height="48" stroke="#900" stroke-width="5" transform="rotate(0,4053.0,2293.0)" width="32" x="4037.0" y="2269.0" /><rect fill="#900" height="48" stroke="#900" stroke-width="5" transform="rotate(0,4037.0,2277.0)" width="32" x="4021.0" y="2253.0" /><rect fill="#900" height="48" stroke="#900" stroke-width="5" transform="rotate(0,4053.0,2277.0)" width="32" x="4037.0" y="2253.0" /><rect fill="#900" height="48" stroke="#900" stroke-width="5" transform="rotate(0,4053.0,2309.0)" width="32" x="4037.0" y="2285.0" /><rect fill="#900" height="48" stroke="#900" stroke-width="5" transform="rotate(0,4037.0,2309.0)" width="32" x="4021.0" y="2285.0" /><rect fill="#900" height="48" stroke="#900" stroke-width="5" transform="rotate(0,4021.0,2309.0)" width="32" x="4005.0" y="2285.0" /><rect fill="#900" height="48" stroke="#900" stroke-width="5" transform="rotate(0,4021.0,2293.0)" width="32" x="4005.0" y="2269.0" /><rect fill="#900" height="48" stroke="#900" stroke-width="5" transform="rotate(0,4021.0,2277.0)" width="32" x="4005.0" y="2253.0" /><rect fill="#900" height="48" stroke="#900" stroke-width="5" transform="rotate(0,4021.0,2277.0)" width="32" x="4005.0" y="2253.0" /><rect fill="#900" height="48" stroke="#900" stroke-width="5" transform="rotate(0,4021.0,2277.0)" width="32" x="4005.0" y="2253.0" /><rect fill="#900" height="48" stroke="#900" stroke-width="5" transform="rotate(0,4037.0,2309.0)" width="32" x="4021.0" y="2285.0" /><rect fill="#900" height="48" stroke="#900" stroke-width="5" transform="rotate(0,3989.0,2341.0)" width="32" x="3973.0" y="2317.0" /><rect fill="#900" height="48" stroke="#900" stroke-width="5" transform="rotate(0,3989.0,2341.0)" width="32" x="3973.0" y="2317.0" /><rect fill="#900" height="48" stroke="#900" stroke-width="5" transform="rotate(0,3989.0,2229.0)" width="32" x="3973.0" y="2205.0" /><rect fill="#900" height="48" stroke="#900" stroke-width="5" transform="rotate(0,4149.0,2373.0)" width="32" x="4133.0" y="2349.0" /><rect fill="#009" height="24" stroke="#009" stroke-width="5" transform="rotate(0,4053.0,2181.0)" width="24" x="4041.0" y="2169.0" /><ellipse cx="5189.0" cy="1029.0" fill="#900" rx="12" ry="24" stroke="#900" stroke-width="5" /><ellipse cx="5989.0" cy="997.0" fill="#900" rx="12" ry="24" stroke="#900" stroke-width="5" /><ellipse cx="5413.0" cy="469.0" fill="#900" rx="12" ry="24" stroke="#900" stroke-width="5" /><ellipse cx="6469.0" cy="501.0" fill="#900" rx="12" ry="24" stroke="#900" stroke-width="5" /><ellipse cx="6549.0" cy="1173.0" fill="#900" rx="12" ry="24" stroke="#900" stroke-width="5" /><ellipse cx="5445.0" cy="1493.0" fill="#900" rx="12" ry="24" stroke="#900" stroke-width="5" /><ellipse cx="6021.0" cy="853.0" fill="#900" rx="12" ry="24" stroke="#900" stroke-width="5" /><ellipse cx="5653.0" cy="437.0" fill="#900" rx="12" ry="24" stroke="#900" stroke-width="5" /><ellipse cx="6885.0" cy="549.0" fill="#900" rx="12" ry="24" stroke="#900" stroke-width="5" /><ellipse cx="6965.0" cy="1061.0" fill="#900" rx="12" ry="24" stroke="#900" stroke-width="5" /><rect fill="#900" height="48" stroke="#900" stroke-width="5" transform="rotate(0,6901.0,1429.0)" width="32" x="6885.0" y="1405.0" /><rect fill="#900" height="48" stroke="#900" stroke-width="5" transform="rotate(0,6037.0,1381.0)" width="32" x="6021.0" y="1357.0" /><rect fill="#900" height="48" stroke="#900" stroke-width="5" transform="rotate(0,5301.0,1157.0)" width="32" x="5285.0" y="1133.0" /><rect fill="#900" height="48" stroke="#900" stroke-width="5" transform="rotate(0,4741.0,565.0)" width="32" x="4725.0" y="541.0" /><rect fill="#900" height="48" stroke="#900" stroke-width="5" transform="rotate(0,6389.0,1541.0)" width="32" x="6373.0" y="1517.0" /><rect fill="#090" height="24" stroke="#090" stroke-width="5" transform="rotate(0,6277.0,357.0)" width="24" x="6265.0" y="345.0" /><rect fill="#900" height="48" stroke="#900" stroke-width="5" transform="rotate(0,5685.0,1109.0)" width="32" x="5669.0" y="1085.0" /><rect fill="#900" height="48" stroke="#900" stroke-width="5" transform="rotate(0,6293.0,917.0)" width="32" x="6277.0" y="893.0" /><rect fill="#900" height="48" stroke="#900" stroke-width="5" transform="rotate(0,4597.0,773.0)" width="32" x="4581.0" y="749.0" /><rect fill="#900" height="48" stroke="#900" stroke-width="5" transform="rotate(0,6997.0,373.0)" width="32" x="6981.0" y="349.0" /><rect fill="#900" height="48" stroke="#900" stroke-width="5" transform="rotate(0,6165.0,1237.0)" width="32" x="6149.0" y="1213.0" /><rect fill="#900" height="48" stroke="#900" stroke-width="5" transform="rotate(0,5717.0,293.0)" width="32" x="5701.0" y="269.0" /><rect fill="#900" height="48" stroke="#900" stroke-width="5" transform="rotate(0,7221.0,693.0)" width="32" x="7205.0" y="669.0" /><ellipse cx="7109.0" cy="773.0" fill="#900" rx="12" ry="24" stroke="#900" stroke-width="5" /></svg>