<?xml version="1.0" encoding="utf-8" ?>
<svg baseProfile="tiny" height="809" version="1.2" viewBox="0 0 1146 906" width="1024" xmlns="http://www.w3.org/2000/svg" xmlns:ev="http://www.w3.org/2001/xml-events" xmlns:xlink="http://www.w3.org/1999/xlink"><defs /><line stroke="#333" stroke-width="10" x1="5.0" x2="133.0" y1="517.0" y2="517.0" /><line stroke="#666" stroke-width="20" x1="149.0" x2="149.0" y1="389.0" y2="517.0" /><line stroke="#333" stroke-width="10" x1="149.0" x2="133.0" y1="389.0" y2="389.0" /><line stroke="#333" stroke-width="10" x1="5.0" x2="5.0" y1="389.0" y2="517.0" /><line stroke="#333" stroke-width="10" x1="213.0" x2="149.0" y1="325.0" y2="389.0" /><line stroke="#999" stroke-width="3" x1="213.0" x2="213.0" y1="581.0" y2="325.0" /><line stroke="#333" stroke-width="10" x1="149.0" x2="213.0" y1="517.0" y2="581.0" /><line stroke="#333" stroke-width="10" x1="245.0" x2="213.0" y1="293.0" y2="325.0" /><line stroke="#999" stroke-width="3" x1="245.0" x2="245.0" y1="613.0" y2="293.0" /><line stroke="#333" stroke-width="10" x1="213.0" x2="245.0" y1="581.0" y2="613.0" /><line stroke="#333" stroke-width="10" x1="277.0" x2="245.0" y1="261.0" y2="293.0" /><line stroke="#999" stroke-width="3" x1="277.0" x2="277.0" y1="645.0" y2="261.0" /><line stroke="#333" stroke-width="10" x1="245.0" x2="277.0" y1="613.0" y2="645.0" /><line stroke="#333" stroke-width="10" x1="309.0" x2="277.0" y1="229.0" y2="261.0" /><line stroke="#999" stroke-width="3" x1="309.0" x2="309.0" y1="677.0" y2="229.0" /><line stroke="#333" stroke-width="10" x1="277.0" x2="309.0" y1="645.0" y2="677.0" /><line stroke="#333" stroke-width="10" x1="469.0" x2="309.0" y1="69.0" y2="229.0" /><line stroke="#333" stroke-width="10" x1="309.0" x2="469.0" y1="677.0" y2="837.0" /><line stroke="#333" stroke-width="10" x1="981.0" x2="805.0" y1="69.0" y2="69.0" /><line stroke="#333" stroke-width="10" x1="1141.0" x2="981.0" y1="229.0" y2="69.0" /><line stroke="#333" stroke-width="10" x1="1141.0" x2="1141.0" y1="677.0" y2="229.0" /><line stroke="#333" stroke-width="10" x1="981.0" x2="1141.0" y1="837.0" y2="677.0" /><line stroke="#333" stroke-width="10" x1="469.0" x2="597.0" y1="837.0" y2="837.0" /><line stroke="#999" stroke-width="3" x1="565.0" x2="581.0" y1="357.0" y2="357.0" /><line stroke="#999" stroke-width="3" x1="917.0" x2="917.0" y1="357.0" y2="373.0" /><line stroke="#999" stroke-width="3" x1="917.0" x2="853.0" y1="709.0" y2="709.0" /><line stroke="#999" stroke-width="3" x1="565.0" x2="565.0" y1="709.0" y2="693.0" /><line stroke="#999" stroke-width="3" x1="629.0" x2="805.0" y1="645.0" y2="645.0" /><line stroke="#999" stroke-width="3" x1="853.0" x2="853.0" y1="709.0" y2="693.0" /><line stroke="#999" stroke-width="3" x1="853.0" x2="629.0" y1="421.0" y2="421.0" /><line stroke="#999" stroke-width="3" x1="629.0" x2="629.0" y1="421.0" y2="645.0" /><line stroke="#999" stroke-width="3" x1="677.0" x2="805.0" y1="469.0" y2="469.0" /><line stroke="#333" stroke-width="10" x1="805.0" x2="805.0" y1="469.0" y2="597.0" /><line stroke="#333" stroke-width="10" x1="805.0" x2="677.0" y1="597.0" y2="597.0" /><line stroke="#333" stroke-width="10" x1="677.0" x2="677.0" y1="597.0" y2="469.0" /><line stroke="#333" stroke-width="10" x1="597.0" x2="629.0" y1="837.0" y2="837.0" /><line stroke="#333" stroke-width="10" x1="629.0" x2="661.0" y1="837.0" y2="837.0" /><line stroke="#333" stroke-width="10" x1="661.0" x2="693.0" y1="837.0" y2="837.0" /><line stroke="#333" stroke-width="10" x1="693.0" x2="725.0" y1="837.0" y2="837.0" /><line stroke="#333" stroke-width="10" x1="725.0" x2="757.0" y1="837.0" y2="837.0" /><line stroke="#333" stroke-width="10" x1="757.0" x2="789.0" y1="837.0" y2="837.0" /><line stroke="#999" stroke-width="3" x1="821.0" x2="885.0" y1="837.0" y2="837.0" /><line stroke="#333" stroke-width="10" x1="885.0" x2="981.0" y1="837.0" y2="837.0" /><line stroke="#999" stroke-width="3" x1="597.0" x2="597.0" y1="805.0" y2="773.0" /><line stroke="#999" stroke-width="3" x1="629.0" x2="597.0" y1="773.0" y2="773.0" /><line stroke="#999" stroke-width="3" x1="629.0" x2="629.0" y1="837.0" y2="805.0" /><line stroke="#999" stroke-width="3" x1="661.0" x2="629.0" y1="773.0" y2="773.0" /><line stroke="#999" stroke-width="3" x1="661.0" x2="661.0" y1="837.0" y2="805.0" /><line stroke="#999" stroke-width="3" x1="693.0" x2="661.0" y1="773.0" y2="773.0" /><line stroke="#999" stroke-width="3" x1="693.0" x2="693.0" y1="837.0" y2="805.0" /><line stroke="#999" stroke-width="3" x1="725.0" x2="693.0" y1="773.0" y2="773.0" /><line stroke="#999" stroke-width="3" x1="725.0" x2="725.0" y1="837.0" y2="805.0" /><line stroke="#999" stroke-width="3" x1="757.0" x2="725.0" y1="773.0" y2="773.0" /><line stroke="#999" stroke-width="3" x1="757.0" x2="757.0" y1="837.0" y2="805.0" /><line stroke="#999" stroke-width="3" x1="821.0" x2="789.0" y1="773.0" y2="773.0" /><line stroke="#999" stroke-width="3" x1="821.0" x2="821.0" y1="837.0" y2="805.0" /><line stroke="#999" stroke-width="3" x1="885.0" x2="821.0" y1="773.0" y2="773.0" /><line stroke="#999" stroke-width="3" x1="885.0" x2="885.0" y1="837.0" y2="773.0" /><line stroke="#999" stroke-width="3" x1="789.0" x2="757.0" y1="773.0" y2="773.0" /><line stroke="#999" stroke-width="3" x1="789.0" x2="789.0" y1="837.0" y2="805.0" /><line stroke="#333" stroke-width="10" x1="789.0" x2="821.0" y1="837.0" y2="837.0" /><line stroke="#333" stroke-width="10" x1="677.0" x2="709.0" y1="469.0" y2="501.0" /><line stroke="#333" stroke-width="10" x1="773.0" x2="805.0" y1="501.0" y2="469.0" /><line stroke="#666" stroke-width="20" x1="709.0" x2="773.0" y1="501.0" y2="501.0" /><line stroke="#333" stroke-width="10" x1="133.0" x2="5.0" y1="389.0" y2="389.0" /><line stroke="#333" stroke-width="10" x1="133.0" x2="149.0" y1="517.0" y2="517.0" /><line stroke="#666" stroke-width="20" x1="133.0" x2="133.0" y1="517.0" y2="389.0" /><line stroke="#333" stroke-width="10" x1="885.0" x2="885.0" y1="901.0" y2="837.0" /><line stroke="#333" stroke-width="10" x1="821.0" x2="885.0" y1="901.0" y2="901.0" /><line stroke="#333" stroke-width="10" x1="821.0" x2="821.0" y1="837.0" y2="901.0" /><line stroke="#999" stroke-width="3" x1="805.0" x2="789.0" y1="709.0" y2="709.0" /><line stroke="#999" stroke-width="3" x1="805.0" x2="805.0" y1="645.0" y2="709.0" /><line stroke="#999" stroke-width="3" x1="581.0" x2="565.0" y1="709.0" y2="709.0" /><line stroke="#999" stroke-width="3" x1="789.0" x2="581.0" y1="709.0" y2="709.0" /><line stroke="#999" stroke-width="3" x1="565.0" x2="565.0" y1="693.0" y2="373.0" /><line stroke="#999" stroke-width="3" x1="565.0" x2="565.0" y1="373.0" y2="357.0" /><line stroke="#999" stroke-width="3" x1="581.0" x2="901.0" y1="357.0" y2="357.0" /><line stroke="#999" stroke-width="3" x1="901.0" x2="917.0" y1="357.0" y2="357.0" /><line stroke="#999" stroke-width="3" x1="917.0" x2="917.0" y1="373.0" y2="693.0" /><line stroke="#999" stroke-width="3" x1="917.0" x2="917.0" y1="693.0" y2="709.0" /><line stroke="#999" stroke-width="3" x1="853.0" x2="853.0" y1="693.0" y2="421.0" /><line stroke="#999" stroke-width="3" x1="629.0" x2="629.0" y1="805.0" y2="773.0" /><line stroke="#999" stroke-width="3" x1="661.0" x2="661.0" y1="805.0" y2="773.0" /><line stroke="#999" stroke-width="3" x1="725.0" x2="725.0" y1="805.0" y2="773.0" /><line stroke="#999" stroke-width="3" x1="693.0" x2="693.0" y1="805.0" y2="773.0" /><line stroke="#999" stroke-width="3" x1="757.0" x2="757.0" y1="805.0" y2="773.0" /><line stroke="#999" stroke-width="3" x1="789.0" x2="789.0" y1="805.0" y2="773.0" /><line stroke="#999" stroke-width="3" x1="821.0" x2="821.0" y1="805.0" y2="773.0" /><line stroke="#999" stroke-width="3" x1="597.0" x2="597.0" y1="837.0" y2="805.0" /><line stroke="#333" stroke-width="10" x1="773.0" x2="773.0" y1="517.0" y2="501.0" /><line stroke="#666" stroke-width="20" x1="773.0" x2="709.0" y1="517.0" y2="517.0" /><line stroke="#333" stroke-width="10" x1="709.0" x2="709.0" y1="501.0" y2="517.0" /><line stroke="#333" stroke-width="10" x1="773.0" x2="773.0" y1="581.0" y2="517.0" /><line stroke="#0d0" stroke-width="20" x1="709.0" x2="773.0" y1="581.0" y2="581.0" /><line stroke="#333" stroke-width="10" x1="709.0" x2="709.0" y1="517.0" y2="581.0" /><line stroke="#999" stroke-width="3" x1="1005.0" x2="1005.0" y1="605.0" y2="669.0" /><line stroke="#999" stroke-width="3" x1="1005.0" x2="1069.0" y1="669.0" y2="669.0" /><line stroke="#999" stroke-width="3" x1="1069.0" x2="1069.0" y1="669.0" y2="605.0" /><line stroke="#999" stroke-width="3" x1="1069.0" x2="1005.0" y1="605.0" y2="605.0" /><line stroke="#999" stroke-width="3" x1="989.0" x2="989.0" y1="621.0" y2="653.0" /><line stroke="#999" stroke-width="3" x1="989.0" x2="965.0" y1="653.0" y2="653.0" /><line stroke="#999" stroke-width="3" x1="965.0" x2="989.0" y1="621.0" y2="621.0" /><line stroke="#999" stroke-width="3" x1="957.0" x2="957.0" y1="653.0" y2="621.0" /><line stroke="#999" stroke-width="3" x1="957.0" x2="965.0" y1="621.0" y2="621.0" /><line stroke="#999" stroke-width="3" x1="965.0" x2="957.0" y1="653.0" y2="653.0" /><line stroke="#999" stroke-width="3" x1="965.0" x2="965.0" y1="653.0" y2="621.0" /><line stroke="#999" stroke-width="3" x1="1053.0" x2="1053.0" y1="565.0" y2="589.0" /><line stroke="#999" stroke-width="3" x1="1021.0" x2="1021.0" y1="589.0" y2="565.0" /><line stroke="#999" stroke-width="3" x1="1053.0" x2="1021.0" y1="589.0" y2="589.0" /><line stroke="#999" stroke-width="3" x1="1021.0" x2="1053.0" y1="565.0" y2="565.0" /><line stroke="#999" stroke-width="3" x1="1021.0" x2="1021.0" y1="565.0" y2="557.0" /><line stroke="#999" stroke-width="3" x1="1053.0" x2="1053.0" y1="557.0" y2="565.0" /><line stroke="#999" stroke-width="3" x1="1021.0" x2="1053.0" y1="557.0" y2="557.0" /><line stroke="#999" stroke-width="3" x1="1085.0" x2="1085.0" y1="653.0" y2="621.0" /><line stroke="#999" stroke-width="3" x1="1085.0" x2="1109.0" y1="621.0" y2="621.0" /><line stroke="#999" stroke-width="3" x1="1109.0" x2="1085.0" y1="653.0" y2="653.0" /><line stroke="#999" stroke-width="3" x1="1117.0" x2="1117.0" y1="621.0" y2="653.0" /><line stroke="#999" stroke-width="3" x1="1117.0" x2="1109.0" y1="653.0" y2="653.0" /><line stroke="#999" stroke-width="3" x1="1109.0" x2="1117.0" y1="621.0" y2="621.0" /><line stroke="#999" stroke-width="3" x1="1109.0" x2="1109.0" y1="621.0" y2="653.0" /><line stroke="#999" stroke-width="3" x1="1021.0" x2="1053.0" y1="685.0" y2="685.0" /><line stroke="#999" stroke-width="3" x1="1053.0" x2="1053.0" y1="685.0" y2="709.0" /><line stroke="#999" stroke-width="3" x1="1021.0" x2="1021.0" y1="709.0" y2="685.0" /><line stroke="#999" stroke-width="3" x1="1053.0" x2="1021.0" y1="717.0" y2="717.0" /><line stroke="#999" stroke-width="3" x1="1021.0" x2="1021.0" y1="717.0" y2="709.0" /><line stroke="#999" stroke-width="3" x1="1053.0" x2="1053.0" y1="709.0" y2="717.0" /><line stroke="#999" stroke-width="3" x1="1053.0" x2="1021.0" y1="709.0" y2="709.0" /><line stroke="#999" stroke-width="3" x1="461.0" x2="461.0" y1="717.0" y2="725.0" /><line stroke="#999" stroke-width="3" x1="429.0" x2="429.0" y1="725.0" y2="717.0" /><line stroke="#999" stroke-width="3" x1="461.0" x2="429.0" y1="725.0" y2="725.0" /><line stroke="#999" stroke-width="3" x1="461.0" x2="429.0" y1="717.0" y2="717.0" /><line stroke="#999" stroke-width="3" x1="429.0" x2="429.0" y1="717.0" y2="693.0" /><line stroke="#999" stroke-width="3" x1="461.0" x2="461.0" y1="693.0" y2="717.0" /><line stroke="#999" stroke-width="3" x1="429.0" x2="461.0" y1="693.0" y2="693.0" /><line stroke="#999" stroke-width="3" x1="477.0" x2="413.0" y1="613.0" y2="613.0" /><line stroke="#999" stroke-width="3" x1="477.0" x2="477.0" y1="677.0" y2="613.0" /><line stroke="#999" stroke-width="3" x1="413.0" x2="477.0" y1="677.0" y2="677.0" /><line stroke="#999" stroke-width="3" x1="413.0" x2="413.0" y1="613.0" y2="677.0" /><line stroke="#999" stroke-width="3" x1="373.0" x2="397.0" y1="629.0" y2="629.0" /><line stroke="#999" stroke-width="3" x1="397.0" x2="373.0" y1="661.0" y2="661.0" /><line stroke="#999" stroke-width="3" x1="397.0" x2="397.0" y1="629.0" y2="661.0" /><line stroke="#999" stroke-width="3" x1="373.0" x2="373.0" y1="661.0" y2="629.0" /><line stroke="#999" stroke-width="3" x1="373.0" x2="365.0" y1="661.0" y2="661.0" /><line stroke="#999" stroke-width="3" x1="365.0" x2="373.0" y1="629.0" y2="629.0" /><line stroke="#999" stroke-width="3" x1="365.0" x2="365.0" y1="661.0" y2="629.0" /><line stroke="#999" stroke-width="3" x1="461.0" x2="429.0" y1="597.0" y2="597.0" /><line stroke="#999" stroke-width="3" x1="429.0" x2="429.0" y1="597.0" y2="573.0" /><line stroke="#999" stroke-width="3" x1="461.0" x2="461.0" y1="573.0" y2="597.0" /><line stroke="#999" stroke-width="3" x1="429.0" x2="461.0" y1="565.0" y2="565.0" /><line stroke="#999" stroke-width="3" x1="461.0" x2="461.0" y1="565.0" y2="573.0" /><line stroke="#999" stroke-width="3" x1="429.0" x2="429.0" y1="573.0" y2="565.0" /><line stroke="#999" stroke-width="3" x1="429.0" x2="461.0" y1="573.0" y2="573.0" /><line stroke="#999" stroke-width="3" x1="517.0" x2="493.0" y1="661.0" y2="661.0" /><line stroke="#999" stroke-width="3" x1="493.0" x2="517.0" y1="629.0" y2="629.0" /><line stroke="#999" stroke-width="3" x1="493.0" x2="493.0" y1="661.0" y2="629.0" /><line stroke="#999" stroke-width="3" x1="517.0" x2="517.0" y1="629.0" y2="661.0" /><line stroke="#999" stroke-width="3" x1="517.0" x2="525.0" y1="629.0" y2="629.0" /><line stroke="#999" stroke-width="3" x1="525.0" x2="517.0" y1="661.0" y2="661.0" /><line stroke="#999" stroke-width="3" x1="525.0" x2="525.0" y1="629.0" y2="661.0" /><line stroke="#999" stroke-width="3" x1="525.0" x2="525.0" y1="429.0" y2="461.0" /><line stroke="#999" stroke-width="3" x1="525.0" x2="517.0" y1="461.0" y2="461.0" /><line stroke="#999" stroke-width="3" x1="517.0" x2="525.0" y1="429.0" y2="429.0" /><line stroke="#999" stroke-width="3" x1="517.0" x2="517.0" y1="429.0" y2="461.0" /><line stroke="#999" stroke-width="3" x1="493.0" x2="493.0" y1="461.0" y2="429.0" /><line stroke="#999" stroke-width="3" x1="493.0" x2="517.0" y1="429.0" y2="429.0" /><line stroke="#999" stroke-width="3" x1="517.0" x2="493.0" y1="461.0" y2="461.0" /><line stroke="#999" stroke-width="3" x1="429.0" x2="429.0" y1="373.0" y2="365.0" /><line stroke="#999" stroke-width="3" x1="461.0" x2="461.0" y1="365.0" y2="373.0" /><line stroke="#999" stroke-width="3" x1="429.0" x2="461.0" y1="365.0" y2="365.0" /><line stroke="#999" stroke-width="3" x1="429.0" x2="461.0" y1="373.0" y2="373.0" /><line stroke="#999" stroke-width="3" x1="461.0" x2="461.0" y1="373.0" y2="397.0" /><line stroke="#999" stroke-width="3" x1="429.0" x2="429.0" y1="397.0" y2="373.0" /><line stroke="#999" stroke-width="3" x1="461.0" x2="429.0" y1="397.0" y2="397.0" /><line stroke="#999" stroke-width="3" x1="365.0" x2="365.0" y1="461.0" y2="429.0" /><line stroke="#999" stroke-width="3" x1="365.0" x2="373.0" y1="429.0" y2="429.0" /><line stroke="#999" stroke-width="3" x1="373.0" x2="365.0" y1="461.0" y2="461.0" /><line stroke="#999" stroke-width="3" x1="373.0" x2="373.0" y1="461.0" y2="429.0" /><line stroke="#999" stroke-width="3" x1="397.0" x2="397.0" y1="429.0" y2="461.0" /><line stroke="#999" stroke-width="3" x1="397.0" x2="373.0" y1="461.0" y2="461.0" /><line stroke="#999" stroke-width="3" x1="373.0" x2="397.0" y1="429.0" y2="429.0" /><line stroke="#999" stroke-width="3" x1="413.0" x2="413.0" y1="413.0" y2="477.0" /><line stroke="#999" stroke-width="3" x1="413.0" x2="477.0" y1="477.0" y2="477.0" /><line stroke="#999" stroke-width="3" x1="477.0" x2="477.0" y1="477.0" y2="413.0" /><line stroke="#999" stroke-width="3" x1="477.0" x2="413.0" y1="413.0" y2="413.0" /><line stroke="#999" stroke-width="3" x1="429.0" x2="461.0" y1="493.0" y2="493.0" /><line stroke="#999" stroke-width="3" x1="461.0" x2="461.0" y1="493.0" y2="517.0" /><line stroke="#999" stroke-width="3" x1="429.0" x2="429.0" y1="517.0" y2="493.0" /><line stroke="#999" stroke-width="3" x1="461.0" x2="429.0" y1="517.0" y2="517.0" /><line stroke="#999" stroke-width="3" x1="461.0" x2="429.0" y1="525.0" y2="525.0" /><line stroke="#999" stroke-width="3" x1="429.0" x2="429.0" y1="525.0" y2="517.0" /><line stroke="#999" stroke-width="3" x1="461.0" x2="461.0" y1="517.0" y2="525.0" /><line stroke="#999" stroke-width="3" x1="806.0" x2="812.0" y1="288.0" y2="293.0" /><line stroke="#999" stroke-width="3" x1="789.0" x2="784.0" y1="316.0" y2="310.0" /><line stroke="#999" stroke-width="3" x1="812.0" x2="789.0" y1="293.0" y2="316.0" /><line stroke="#999" stroke-width="3" x1="784.0" x2="767.0" y1="310.0" y2="293.0" /><line stroke="#999" stroke-width="3" x1="789.0" x2="806.0" y1="271.0" y2="288.0" /><line stroke="#999" stroke-width="3" x1="767.0" x2="789.0" y1="293.0" y2="271.0" /><line stroke="#999" stroke-width="3" x1="806.0" x2="784.0" y1="288.0" y2="310.0" /><line stroke="#999" stroke-width="3" x1="789.0" x2="812.0" y1="180.0" y2="203.0" /><line stroke="#999" stroke-width="3" x1="812.0" x2="806.0" y1="203.0" y2="208.0" /><line stroke="#999" stroke-width="3" x1="784.0" x2="789.0" y1="186.0" y2="180.0" /><line stroke="#999" stroke-width="3" x1="789.0" x2="767.0" y1="225.0" y2="203.0" /><line stroke="#999" stroke-width="3" x1="767.0" x2="784.0" y1="203.0" y2="186.0" /><line stroke="#999" stroke-width="3" x1="806.0" x2="789.0" y1="208.0" y2="225.0" /><line stroke="#999" stroke-width="3" x1="784.0" x2="806.0" y1="186.0" y2="208.0" /><line stroke="#999" stroke-width="3" x1="682.0" x2="676.0" y1="208.0" y2="203.0" /><line stroke="#999" stroke-width="3" x1="699.0" x2="704.0" y1="180.0" y2="186.0" /><line stroke="#999" stroke-width="3" x1="676.0" x2="699.0" y1="203.0" y2="180.0" /><line stroke="#999" stroke-width="3" x1="704.0" x2="721.0" y1="186.0" y2="203.0" /><line stroke="#999" stroke-width="3" x1="699.0" x2="682.0" y1="225.0" y2="208.0" /><line stroke="#999" stroke-width="3" x1="721.0" x2="699.0" y1="203.0" y2="225.0" /><line stroke="#999" stroke-width="3" x1="682.0" x2="704.0" y1="208.0" y2="186.0" /><line stroke="#999" stroke-width="3" x1="789.0" x2="744.0" y1="248.0" y2="203.0" /><line stroke="#999" stroke-width="3" x1="744.0" x2="789.0" y1="293.0" y2="248.0" /><line stroke="#999" stroke-width="3" x1="699.0" x2="744.0" y1="248.0" y2="293.0" /><line stroke="#999" stroke-width="3" x1="744.0" x2="699.0" y1="203.0" y2="248.0" /><line stroke="#999" stroke-width="3" x1="682.0" x2="699.0" y1="288.0" y2="271.0" /><line stroke="#999" stroke-width="3" x1="721.0" x2="704.0" y1="293.0" y2="310.0" /><line stroke="#999" stroke-width="3" x1="699.0" x2="721.0" y1="271.0" y2="293.0" /><line stroke="#999" stroke-width="3" x1="704.0" x2="699.0" y1="310.0" y2="316.0" /><line stroke="#999" stroke-width="3" x1="676.0" x2="682.0" y1="293.0" y2="288.0" /><line stroke="#999" stroke-width="3" x1="699.0" x2="676.0" y1="316.0" y2="293.0" /><line stroke="#999" stroke-width="3" x1="704.0" x2="682.0" y1="310.0" y2="288.0" /><line stroke="#333" stroke-width="10" x1="661.0" x2="645.0" y1="69.0" y2="69.0" /><line stroke="#333" stroke-width="10" x1="789.0" x2="789.0" y1="69.0" y2="45.0" /><line stroke="#333" stroke-width="10" x1="661.0" x2="661.0" y1="37.0" y2="45.0" /><line stroke="#999" stroke-width="3" x1="789.0" x2="765.0" y1="37.0" y2="37.0" /><line stroke="#999" stroke-width="3" x1="789.0" x2="661.0" y1="69.0" y2="69.0" /><line stroke="#999" stroke-width="3" x1="685.0" x2="661.0" y1="37.0" y2="37.0" /><line stroke="#999" stroke-width="3" x1="701.0" x2="685.0" y1="37.0" y2="37.0" /><line stroke="#999" stroke-width="3" x1="717.0" x2="701.0" y1="37.0" y2="37.0" /><line stroke="#999" stroke-width="3" x1="733.0" x2="717.0" y1="37.0" y2="37.0" /><line stroke="#999" stroke-width="3" x1="749.0" x2="733.0" y1="37.0" y2="37.0" /><line stroke="#999" stroke-width="3" x1="765.0" x2="749.0" y1="37.0" y2="37.0" /><line stroke="#333" stroke-width="10" x1="661.0" x2="661.0" y1="29.0" y2="37.0" /><line stroke="#999" stroke-width="3" x1="685.0" x2="661.0" y1="29.0" y2="29.0" /><line stroke="#999" stroke-width="3" x1="685.0" x2="685.0" y1="37.0" y2="29.0" /><line stroke="#999" stroke-width="3" x1="701.0" x2="685.0" y1="29.0" y2="29.0" /><line stroke="#999" stroke-width="3" x1="701.0" x2="701.0" y1="37.0" y2="29.0" /><line stroke="#999" stroke-width="3" x1="717.0" x2="701.0" y1="29.0" y2="29.0" /><line stroke="#999" stroke-width="3" x1="717.0" x2="717.0" y1="37.0" y2="29.0" /><line stroke="#999" stroke-width="3" x1="733.0" x2="717.0" y1="29.0" y2="29.0" /><line stroke="#999" stroke-width="3" x1="733.0" x2="733.0" y1="37.0" y2="29.0" /><line stroke="#999" stroke-width="3" x1="749.0" x2="733.0" y1="29.0" y2="29.0" /><line stroke="#999" stroke-width="3" x1="749.0" x2="749.0" y1="37.0" y2="29.0" /><line stroke="#999" stroke-width="3" x1="765.0" x2="749.0" y1="29.0" y2="29.0" /><line stroke="#999" stroke-width="3" x1="765.0" x2="765.0" y1="37.0" y2="29.0" /><line stroke="#999" stroke-width="3" x1="789.0" x2="765.0" y1="29.0" y2="29.0" /><line stroke="#333" stroke-width="10" x1="789.0" x2="789.0" y1="37.0" y2="29.0" /><line stroke="#333" stroke-width="10" x1="789.0" x2="661.0" y1="5.0" y2="5.0" /><line stroke="#333" stroke-width="10" x1="789.0" x2="789.0" y1="29.0" y2="5.0" /><line stroke="#333" stroke-width="10" x1="661.0" x2="661.0" y1="5.0" y2="29.0" /><line stroke="#333" stroke-width="10" x1="805.0" x2="789.0" y1="69.0" y2="69.0" /><line stroke="#333" stroke-width="10" x1="645.0" x2="469.0" y1="69.0" y2="69.0" /><line stroke="#333" stroke-width="10" x1="661.0" x2="661.0" y1="45.0" y2="69.0" /><line stroke="#333" stroke-width="10" x1="789.0" x2="789.0" y1="45.0" y2="37.0" /><line stroke="#999" stroke-width="3" x1="789.0" x2="661.0" y1="45.0" y2="45.0" /><line stroke="#999" stroke-width="3" x1="717.0" x2="711.0" y1="493.0" y2="499.0" /><line stroke="#999" stroke-width="3" x1="695.0" x2="717.0" y1="471.0" y2="493.0" /><line stroke="#999" stroke-width="3" x1="689.0" x2="695.0" y1="477.0" y2="471.0" /><line stroke="#999" stroke-width="3" x1="711.0" x2="689.0" y1="499.0" y2="477.0" /><line stroke="#999" stroke-width="3" x1="793.0" x2="771.0" y1="477.0" y2="499.0" /><line stroke="#999" stroke-width="3" x1="771.0" x2="765.0" y1="499.0" y2="493.0" /><line stroke="#999" stroke-width="3" x1="765.0" x2="787.0" y1="493.0" y2="471.0" /><line stroke="#999" stroke-width="3" x1="787.0" x2="793.0" y1="471.0" y2="477.0" /><ellipse cx="69.0" cy="453.0" fill="#009" rx="12" ry="24" stroke="#009" stroke-width="5" /><rect fill="#090" height="24" stroke="#090" stroke-width="5" transform="rotate(0,181.0,517.0)" width="24" x="169.0" y="505.0" /><rect fill="#090" height="24" stroke="#090" stroke-width="5" transform="rotate(0,181.0,389.0)" width="24" x="169.0" y="377.0" /><ellipse cx="69.0" cy="493.0" fill="#009" rx="12" ry="24" stroke="#009" stroke-width="5" /><ellipse cx="69.0" cy="413.0" fill="#009" rx="12" ry="24" stroke="#009" stroke-width="5" /><ellipse cx="29.0" cy="453.0" fill="#009" rx="12" ry="24" stroke="#009" stroke-width="5" /><rect fill="#090" height="24" stroke="#090" stroke-width="5" transform="rotate(0,109.0,453.0)" width="24" x="97.0" y="441.0" /><rect fill="#090" height="24" stroke="#090" stroke-width="5" transform="rotate(180,613.0,421.0)" width="24" x="601.0" y="409.0" /><rect fill="#090" height="24" stroke="#090" stroke-width="5" transform="rotate(180,853.0,805.0)" width="24" x="841.0" y="793.0" /><rect fill="#090" height="24" stroke="#090" stroke-width="5" transform="rotate(270,917.0,805.0)" width="24" x="905.0" y="793.0" /><rect fill="#090" height="24" stroke="#090" stroke-width="5" transform="rotate(0,729.0,33.0)" width="24" x="717.0" y="21.0" /><rect fill="#090" height="24" stroke="#090" stroke-width="5" transform="rotate(0,745.0,33.0)" width="24" x="733.0" y="21.0" /><rect fill="#090" height="24" stroke="#090" stroke-width="5" transform="rotate(0,761.0,33.0)" width="24" x="749.0" y="21.0" /><rect fill="#090" height="24" stroke="#090" stroke-width="5" transform="rotate(0,777.0,33.0)" width="24" x="765.0" y="21.0" /><rect fill="#090" height="24" stroke="#090" stroke-width="5" transform="rotate(0,713.0,33.0)" width="24" x="701.0" y="21.0" /><rect fill="#090" height="24" stroke="#090" stroke-width="5" transform="rotate(0,697.0,33.0)" width="24" x="685.0" y="21.0" /><rect fill="#090" height="24" stroke="#090" stroke-width="5" transform="rotate(0,681.0,33.0)" width="24" x="669.0" y="21.0" /><rect fill="#090" height="24" stroke="#090" stroke-width="5" transform="rotate(0,769.0,33.0)" width="24" x="757.0" y="21.0" /><rect fill="#090" height="24" stroke="#090" stroke-width="5" transform="rotate(0,673.0,33.0)" width="24" x="661.0" y="21.0" /><rect fill="#090" height="24" stroke="#090" stroke-width="5" transform="rotate(0,689.0,33.0)" width="24" x="677.0" y="21.0" /><rect fill="#090" height="24" stroke="#090" stroke-width="5" transform="rotate(0,705.0,33.0)" width="24" x="693.0" y="21.0" /><rect fill="#090" height="24" stroke="#090" stroke-width="5" transform="rotate(0,753.0,33.0)" width="24" x="741.0" y="21.0" /><rect fill="#090" height="24" stroke="#090" stroke-width="5" transform="rotate(0,737.0,33.0)" width="24" x="725.0" y="21.0" /><rect fill="#090" height="24" stroke="#090" stroke-width="5" transform="rotate(0,721.0,33.0)" width="24" x="709.0" y="21.0" /><rect fill="#090" height="24" stroke="#090" stroke-width="5" transform="rotate(0,909.0,365.0)" width="24" x="897.0" y="353.0" /><rect fill="#090" height="24" stroke="#090" stroke-width="5" transform="rotate(0,573.0,365.0)" width="24" x="561.0" y="353.0" /><rect fill="#090" height="24" stroke="#090" stroke-width="5" transform="rotate(0,573.0,701.0)" width="24" x="561.0" y="689.0" /><rect fill="#090" height="24" stroke="#090" stroke-width="5" transform="rotate(0,621.0,653.0)" width="24" x="609.0" y="641.0" /><rect fill="#090" height="24" stroke="#090" stroke-width="5" transform="rotate(0,797.0,701.0)" width="24" x="785.0" y="689.0" /><rect fill="#090" height="24" stroke="#090" stroke-width="5" transform="rotate(0,797.0,653.0)" width="24" x="785.0" y="641.0" /><rect fill="#090" height="24" stroke="#090" stroke-width="5" transform="rotate(0,861.0,701.0)" width="24" x="849.0" y="689.0" /><rect fill="#090" height="24" stroke="#090" stroke-width="5" transform="rotate(0,909.0,701.0)" width="24" x="897.0" y="689.0" /><rect fill="#090" height="24" stroke="#090" stroke-width="5" transform="rotate(0,861.0,413.0)" width="24" x="849.0" y="401.0" /><rect fill="#090" height="24" stroke="#090" stroke-width="5" transform="rotate(0,621.0,413.0)" width="24" x="609.0" y="401.0" /><rect fill="#090" height="24" stroke="#090" stroke-width="5" transform="rotate(0,709.0,477.0)" width="24" x="697.0" y="465.0" /><rect fill="#090" height="24" stroke="#090" stroke-width="5" transform="rotate(0,741.0,493.0)" width="24" x="729.0" y="481.0" /><rect fill="#090" height="24" stroke="#090" stroke-width="5" transform="rotate(0,773.0,477.0)" width="24" x="761.0" y="465.0" /><rect fill="#090" height="24" stroke="#090" stroke-width="5" transform="rotate(0,1125.0,237.0)" width="24" x="1113.0" y="225.0" /><rect fill="#090" height="24" stroke="#090" stroke-width="5" transform="rotate(0,1125.0,669.0)" width="24" x="1113.0" y="657.0" /><rect fill="#090" height="24" stroke="#090" stroke-width="5" transform="rotate(0,973.0,821.0)" width="24" x="961.0" y="809.0" /><rect fill="#090" height="24" stroke="#090" stroke-width="5" transform="rotate(0,477.0,821.0)" width="24" x="465.0" y="809.0" /><rect fill="#090" height="24" stroke="#090" stroke-width="5" transform="rotate(0,477.0,85.0)" width="24" x="465.0" y="73.0" /><rect fill="#090" height="24" stroke="#090" stroke-width="5" transform="rotate(0,973.0,85.0)" width="24" x="961.0" y="73.0" /><rect fill="#900" height="48" stroke="#900" stroke-width="5" transform="rotate(180,819.0,249.0)" width="32" x="803.0" y="225.0" /><rect fill="#900" height="48" stroke="#900" stroke-width="5" transform="rotate(270,745.0,320.0)" width="32" x="729.0" y="296.0" /><rect fill="#900" height="48" stroke="#900" stroke-width="5" transform="rotate(0,674.0,248.0)" width="32" x="658.0" y="224.0" /><rect fill="#900" height="48" stroke="#900" stroke-width="5" transform="rotate(90,744.0,172.0)" width="32" x="728.0" y="148.0" /><rect fill="#900" height="48" stroke="#900" stroke-width="5" transform="rotate(45,989.0,389.0)" width="32" x="973.0" y="365.0" /><rect fill="#900" height="48" stroke="#900" stroke-width="5" transform="rotate(135,1085.0,389.0)" width="32" x="1069.0" y="365.0" /><rect fill="#900" height="48" stroke="#900" stroke-width="5" transform="rotate(225,1085.0,485.0)" width="32" x="1069.0" y="461.0" /><rect fill="#900" height="48" stroke="#900" stroke-width="5" transform="rotate(315,989.0,485.0)" width="32" x="973.0" y="461.0" /><rect fill="#900" height="48" stroke="#900" stroke-width="5" transform="rotate(315,989.0,685.0)" width="32" x="973.0" y="661.0" /><rect fill="#900" height="48" stroke="#900" stroke-width="5" transform="rotate(225,1085.0,685.0)" width="32" x="1069.0" y="661.0" /><rect fill="#900" height="48" stroke="#900" stroke-width="5" transform="rotate(135,1085.0,589.0)" width="32" x="1069.0" y="565.0" /><rect fill="#900" height="48" stroke="#900" stroke-width="5" transform="rotate(45,989.0,589.0)" width="32" x="973.0" y="565.0" /><rect fill="#900" height="48" stroke="#900" stroke-width="5" transform="rotate(315,397.0,693.0)" width="32" x="381.0" y="669.0" /><rect fill="#900" height="48" stroke="#900" stroke-width="5" transform="rotate(225,493.0,693.0)" width="32" x="477.0" y="669.0" /><rect fill="#900" height="48" stroke="#900" stroke-width="5" transform="rotate(135,493.0,597.0)" width="32" x="477.0" y="573.0" /><rect fill="#900" height="48" stroke="#900" stroke-width="5" transform="rotate(45,397.0,597.0)" width="32" x="381.0" y="573.0" /><rect fill="#900" height="48" stroke="#900" stroke-width="5" transform="rotate(315,397.0,493.0)" width="32" x="381.0" y="469.0" /><rect fill="#900" height="48" stroke="#900" stroke-width="5" transform="rotate(225,493.0,493.0)" width="32" x="477.0" y="469.0" /><rect fill="#900" height="48" stroke="#900" stroke-width="5" transform="rotate(135,493.0,397.0)" width="32" x="477.0" y="373.0" /><rect fill="#900" height="48" stroke="#900" stroke-width="5" transform="rotate(45,397.0,397.0)" width="32" x="381.0" y="373.0" /><rect fill="#900" height="48" stroke="#900" stroke-width="5" transform="rotate(225,749.0,445.0)" width="32" x="733.0" y="421.0" /><rect fill="#900" height="48" stroke="#900" stroke-width="5" transform="rotate(270,853.0,869.0)" width="32" x="837.0" y="845.0" /><rect fill="#900" height="48" stroke="#900" stroke-width="5" transform="rotate(270,741.0,549.0)" width="32" x="725.0" y="525.0" /></svg>