<?xml version="1.0" encoding="utf-8" ?>
<svg baseProfile="tiny" height="1024" version="1.2" viewBox="0 0 3338 4218" width="810" xmlns="http://www.w3.org/2000/svg" xmlns:ev="http://www.w3.org/2001/xml-events" xmlns:xlink="http://www.w3.org/1999/xlink"><defs /><line stroke="#999" stroke-width="3" x1="1445.0" x2="1445.0" y1="1157.0" y2="1349.0" /><line stroke="#333" stroke-width="10" x1="1573.0" x2="1445.0" y1="1029.0" y2="1157.0" /><line stroke="#999" stroke-width="3" x1="1765.0" x2="1573.0" y1="1029.0" y2="1029.0" /><line stroke="#333" stroke-width="10" x1="1893.0" x2="1765.0" y1="1157.0" y2="1029.0" /><line stroke="#999" stroke-width="3" x1="1893.0" x2="1893.0" y1="1349.0" y2="1157.0" /><line stroke="#333" stroke-width="10" x1="1765.0" x2="1893.0" y1="1477.0" y2="1349.0" /><line stroke="#999" stroke-width="3" x1="1573.0" x2="1765.0" y1="1477.0" y2="1477.0" /><line stroke="#333" stroke-width="10" x1="1445.0" x2="1573.0" y1="1349.0" y2="1477.0" /><line stroke="#333" stroke-width="10" x1="1765.0" x2="1765.0" y1="1925.0" y2="1477.0" /><line stroke="#999" stroke-width="3" x1="1573.0" x2="1765.0" y1="1925.0" y2="1925.0" /><line stroke="#333" stroke-width="10" x1="1573.0" x2="1573.0" y1="1477.0" y2="1925.0" /><line stroke="#333" stroke-width="10" x1="1893.0" x2="1765.0" y1="2053.0" y2="1925.0" /><line stroke="#999" stroke-width="3" x1="1893.0" x2="1893.0" y1="2245.0" y2="2053.0" /><line stroke="#333" stroke-width="10" x1="1765.0" x2="1893.0" y1="2373.0" y2="2245.0" /><line stroke="#999" stroke-width="3" x1="1573.0" x2="1765.0" y1="2373.0" y2="2373.0" /><line stroke="#333" stroke-width="10" x1="1445.0" x2="1573.0" y1="2245.0" y2="2373.0" /><line stroke="#999" stroke-width="3" x1="1445.0" x2="1445.0" y1="2053.0" y2="2245.0" /><line stroke="#333" stroke-width="10" x1="1573.0" x2="1445.0" y1="1925.0" y2="2053.0" /><line stroke="#333" stroke-width="10" x1="2341.0" x2="1893.0" y1="2053.0" y2="2053.0" /><line stroke="#999" stroke-width="3" x1="2341.0" x2="2341.0" y1="2245.0" y2="2053.0" /><line stroke="#333" stroke-width="10" x1="1893.0" x2="2341.0" y1="2245.0" y2="2245.0" /><line stroke="#333" stroke-width="10" x1="2661.0" x2="2789.0" y1="2373.0" y2="2245.0" /><line stroke="#999" stroke-width="3" x1="2469.0" x2="2661.0" y1="2373.0" y2="2373.0" /><line stroke="#333" stroke-width="10" x1="2341.0" x2="2469.0" y1="2245.0" y2="2373.0" /><line stroke="#333" stroke-width="10" x1="2469.0" x2="2341.0" y1="1925.0" y2="2053.0" /><line stroke="#999" stroke-width="3" x1="2661.0" x2="2469.0" y1="1925.0" y2="1925.0" /><line stroke="#333" stroke-width="10" x1="2789.0" x2="2661.0" y1="2053.0" y2="1925.0" /><line stroke="#999" stroke-width="3" x1="2789.0" x2="2789.0" y1="2245.0" y2="2053.0" /><line stroke="#333" stroke-width="10" x1="1445.0" x2="997.0" y1="2053.0" y2="2053.0" /><line stroke="#333" stroke-width="10" x1="997.0" x2="1445.0" y1="2245.0" y2="2245.0" /><line stroke="#999" stroke-width="3" x1="997.0" x2="997.0" y1="2053.0" y2="2245.0" /><line stroke="#333" stroke-width="10" x1="549.0" x2="677.0" y1="2245.0" y2="2373.0" /><line stroke="#999" stroke-width="3" x1="549.0" x2="549.0" y1="2053.0" y2="2245.0" /><line stroke="#333" stroke-width="10" x1="677.0" x2="549.0" y1="1925.0" y2="2053.0" /><line stroke="#999" stroke-width="3" x1="869.0" x2="677.0" y1="1925.0" y2="1925.0" /><line stroke="#333" stroke-width="10" x1="997.0" x2="869.0" y1="2053.0" y2="1925.0" /><line stroke="#333" stroke-width="10" x1="869.0" x2="997.0" y1="2373.0" y2="2245.0" /><line stroke="#999" stroke-width="3" x1="677.0" x2="869.0" y1="2373.0" y2="2373.0" /><line stroke="#333" stroke-width="10" x1="1573.0" x2="1573.0" y1="2373.0" y2="2821.0" /><line stroke="#333" stroke-width="10" x1="1765.0" x2="1765.0" y1="2821.0" y2="2373.0" /><line stroke="#999" stroke-width="3" x1="1573.0" x2="1765.0" y1="2821.0" y2="2821.0" /><line stroke="#333" stroke-width="10" x1="1445.0" x2="1573.0" y1="3141.0" y2="3269.0" /><line stroke="#999" stroke-width="3" x1="1445.0" x2="1445.0" y1="2949.0" y2="3141.0" /><line stroke="#333" stroke-width="10" x1="1573.0" x2="1445.0" y1="2821.0" y2="2949.0" /><line stroke="#333" stroke-width="10" x1="1893.0" x2="1765.0" y1="2949.0" y2="2821.0" /><line stroke="#999" stroke-width="3" x1="1893.0" x2="1893.0" y1="3141.0" y2="2949.0" /><line stroke="#333" stroke-width="10" x1="1765.0" x2="1893.0" y1="3269.0" y2="3141.0" /><line stroke="#999" stroke-width="3" x1="1573.0" x2="1765.0" y1="3269.0" y2="3269.0" /><line stroke="#333" stroke-width="10" x1="2661.0" x2="2661.0" y1="2405.0" y2="2373.0" /><line stroke="#999" stroke-width="3" x1="2469.0" x2="2661.0" y1="2405.0" y2="2405.0" /><line stroke="#333" stroke-width="10" x1="2469.0" x2="2469.0" y1="2373.0" y2="2405.0" /><line stroke="#333" stroke-width="10" x1="2661.0" x2="2661.0" y1="2437.0" y2="2405.0" /><line stroke="#999" stroke-width="3" x1="2469.0" x2="2661.0" y1="2437.0" y2="2437.0" /><line stroke="#333" stroke-width="10" x1="2469.0" x2="2469.0" y1="2405.0" y2="2437.0" /><line stroke="#333" stroke-width="10" x1="2469.0" x2="2469.0" y1="2437.0" y2="2469.0" /><line stroke="#333" stroke-width="10" x1="2661.0" x2="2661.0" y1="2469.0" y2="2437.0" /><line stroke="#999" stroke-width="3" x1="2469.0" x2="2661.0" y1="2469.0" y2="2469.0" /><line stroke="#333" stroke-width="10" x1="2469.0" x2="2469.0" y1="2469.0" y2="2501.0" /><line stroke="#333" stroke-width="10" x1="2661.0" x2="2661.0" y1="2501.0" y2="2469.0" /><line stroke="#999" stroke-width="3" x1="2469.0" x2="2661.0" y1="2501.0" y2="2501.0" /><line stroke="#333" stroke-width="10" x1="2469.0" x2="2469.0" y1="1893.0" y2="1925.0" /><line stroke="#999" stroke-width="3" x1="2661.0" x2="2469.0" y1="1893.0" y2="1893.0" /><line stroke="#333" stroke-width="10" x1="2661.0" x2="2661.0" y1="1925.0" y2="1893.0" /><line stroke="#333" stroke-width="10" x1="2469.0" x2="2469.0" y1="1861.0" y2="1893.0" /><line stroke="#999" stroke-width="3" x1="2661.0" x2="2469.0" y1="1861.0" y2="1861.0" /><line stroke="#333" stroke-width="10" x1="2661.0" x2="2661.0" y1="1893.0" y2="1861.0" /><line stroke="#333" stroke-width="10" x1="2469.0" x2="2469.0" y1="1829.0" y2="1861.0" /><line stroke="#999" stroke-width="3" x1="2661.0" x2="2469.0" y1="1829.0" y2="1829.0" /><line stroke="#333" stroke-width="10" x1="2661.0" x2="2661.0" y1="1861.0" y2="1829.0" /><line stroke="#333" stroke-width="10" x1="2469.0" x2="2469.0" y1="1797.0" y2="1829.0" /><line stroke="#999" stroke-width="3" x1="2661.0" x2="2469.0" y1="1797.0" y2="1797.0" /><line stroke="#333" stroke-width="10" x1="2661.0" x2="2661.0" y1="1829.0" y2="1797.0" /><line stroke="#333" stroke-width="10" x1="1925.0" x2="1893.0" y1="2949.0" y2="2949.0" /><line stroke="#999" stroke-width="3" x1="1925.0" x2="1925.0" y1="3141.0" y2="2949.0" /><line stroke="#333" stroke-width="10" x1="1893.0" x2="1925.0" y1="3141.0" y2="3141.0" /><line stroke="#333" stroke-width="10" x1="1925.0" x2="1957.0" y1="3141.0" y2="3141.0" /><line stroke="#333" stroke-width="10" x1="1957.0" x2="1925.0" y1="2949.0" y2="2949.0" /><line stroke="#999" stroke-width="3" x1="1957.0" x2="1957.0" y1="3141.0" y2="2949.0" /><line stroke="#333" stroke-width="10" x1="1957.0" x2="1989.0" y1="3141.0" y2="3141.0" /><line stroke="#333" stroke-width="10" x1="1989.0" x2="1957.0" y1="2949.0" y2="2949.0" /><line stroke="#999" stroke-width="3" x1="1989.0" x2="1989.0" y1="3141.0" y2="2949.0" /><line stroke="#333" stroke-width="10" x1="1989.0" x2="2021.0" y1="3141.0" y2="3141.0" /><line stroke="#333" stroke-width="10" x1="2021.0" x2="1989.0" y1="2949.0" y2="2949.0" /><line stroke="#999" stroke-width="3" x1="2021.0" x2="2021.0" y1="3141.0" y2="2949.0" /><line stroke="#333" stroke-width="10" x1="1445.0" x2="1413.0" y1="2949.0" y2="2949.0" /><line stroke="#999" stroke-width="3" x1="1413.0" x2="1413.0" y1="2949.0" y2="3141.0" /><line stroke="#333" stroke-width="10" x1="1413.0" x2="1445.0" y1="3141.0" y2="3141.0" /><line stroke="#333" stroke-width="10" x1="1381.0" x2="1413.0" y1="3141.0" y2="3141.0" /><line stroke="#999" stroke-width="3" x1="1381.0" x2="1381.0" y1="2949.0" y2="3141.0" /><line stroke="#333" stroke-width="10" x1="1413.0" x2="1381.0" y1="2949.0" y2="2949.0" /><line stroke="#333" stroke-width="10" x1="1349.0" x2="1381.0" y1="3141.0" y2="3141.0" /><line stroke="#999" stroke-width="3" x1="1349.0" x2="1349.0" y1="2949.0" y2="3141.0" /><line stroke="#333" stroke-width="10" x1="1381.0" x2="1349.0" y1="2949.0" y2="2949.0" /><line stroke="#333" stroke-width="10" x1="1317.0" x2="1349.0" y1="3141.0" y2="3141.0" /><line stroke="#999" stroke-width="3" x1="1317.0" x2="1317.0" y1="2949.0" y2="3141.0" /><line stroke="#333" stroke-width="10" x1="1349.0" x2="1317.0" y1="2949.0" y2="2949.0" /><line stroke="#333" stroke-width="10" x1="677.0" x2="677.0" y1="2373.0" y2="2405.0" /><line stroke="#333" stroke-width="10" x1="869.0" x2="869.0" y1="2405.0" y2="2373.0" /><line stroke="#999" stroke-width="3" x1="677.0" x2="869.0" y1="2405.0" y2="2405.0" /><line stroke="#333" stroke-width="10" x1="677.0" x2="677.0" y1="2405.0" y2="2437.0" /><line stroke="#333" stroke-width="10" x1="869.0" x2="869.0" y1="2437.0" y2="2405.0" /><line stroke="#999" stroke-width="3" x1="677.0" x2="869.0" y1="2437.0" y2="2437.0" /><line stroke="#333" stroke-width="10" x1="677.0" x2="677.0" y1="2437.0" y2="2469.0" /><line stroke="#333" stroke-width="10" x1="869.0" x2="869.0" y1="2469.0" y2="2437.0" /><line stroke="#999" stroke-width="3" x1="677.0" x2="869.0" y1="2469.0" y2="2469.0" /><line stroke="#333" stroke-width="10" x1="869.0" x2="869.0" y1="2501.0" y2="2469.0" /><line stroke="#999" stroke-width="3" x1="677.0" x2="869.0" y1="2501.0" y2="2501.0" /><line stroke="#333" stroke-width="10" x1="677.0" x2="677.0" y1="2469.0" y2="2501.0" /><line stroke="#333" stroke-width="10" x1="677.0" x2="677.0" y1="1893.0" y2="1925.0" /><line stroke="#999" stroke-width="3" x1="869.0" x2="677.0" y1="1893.0" y2="1893.0" /><line stroke="#333" stroke-width="10" x1="869.0" x2="869.0" y1="1925.0" y2="1893.0" /><line stroke="#333" stroke-width="10" x1="677.0" x2="677.0" y1="1861.0" y2="1893.0" /><line stroke="#999" stroke-width="3" x1="869.0" x2="677.0" y1="1861.0" y2="1861.0" /><line stroke="#333" stroke-width="10" x1="869.0" x2="869.0" y1="1893.0" y2="1861.0" /><line stroke="#333" stroke-width="10" x1="677.0" x2="677.0" y1="1829.0" y2="1861.0" /><line stroke="#999" stroke-width="3" x1="869.0" x2="677.0" y1="1829.0" y2="1829.0" /><line stroke="#333" stroke-width="10" x1="869.0" x2="869.0" y1="1861.0" y2="1829.0" /><line stroke="#333" stroke-width="10" x1="677.0" x2="677.0" y1="1797.0" y2="1829.0" /><line stroke="#999" stroke-width="3" x1="869.0" x2="677.0" y1="1797.0" y2="1797.0" /><line stroke="#333" stroke-width="10" x1="869.0" x2="869.0" y1="1829.0" y2="1797.0" /><line stroke="#333" stroke-width="10" x1="1413.0" x2="1445.0" y1="1349.0" y2="1349.0" /><line stroke="#999" stroke-width="3" x1="1413.0" x2="1413.0" y1="1157.0" y2="1349.0" /><line stroke="#333" stroke-width="10" x1="1445.0" x2="1413.0" y1="1157.0" y2="1157.0" /><line stroke="#333" stroke-width="10" x1="1381.0" x2="1413.0" y1="1349.0" y2="1349.0" /><line stroke="#999" stroke-width="3" x1="1381.0" x2="1381.0" y1="1157.0" y2="1349.0" /><line stroke="#333" stroke-width="10" x1="1413.0" x2="1381.0" y1="1157.0" y2="1157.0" /><line stroke="#333" stroke-width="10" x1="1349.0" x2="1381.0" y1="1349.0" y2="1349.0" /><line stroke="#999" stroke-width="3" x1="1349.0" x2="1349.0" y1="1157.0" y2="1349.0" /><line stroke="#333" stroke-width="10" x1="1381.0" x2="1349.0" y1="1157.0" y2="1157.0" /><line stroke="#333" stroke-width="10" x1="1317.0" x2="1349.0" y1="1349.0" y2="1349.0" /><line stroke="#999" stroke-width="3" x1="1317.0" x2="1317.0" y1="1157.0" y2="1349.0" /><line stroke="#333" stroke-width="10" x1="1349.0" x2="1317.0" y1="1157.0" y2="1157.0" /><line stroke="#333" stroke-width="10" x1="1893.0" x2="1925.0" y1="1349.0" y2="1349.0" /><line stroke="#333" stroke-width="10" x1="1925.0" x2="1893.0" y1="1157.0" y2="1157.0" /><line stroke="#999" stroke-width="3" x1="1925.0" x2="1925.0" y1="1349.0" y2="1157.0" /><line stroke="#333" stroke-width="10" x1="1925.0" x2="1957.0" y1="1349.0" y2="1349.0" /><line stroke="#333" stroke-width="10" x1="1957.0" x2="1925.0" y1="1157.0" y2="1157.0" /><line stroke="#999" stroke-width="3" x1="1957.0" x2="1957.0" y1="1349.0" y2="1157.0" /><line stroke="#333" stroke-width="10" x1="1957.0" x2="1989.0" y1="1349.0" y2="1349.0" /><line stroke="#333" stroke-width="10" x1="1989.0" x2="1957.0" y1="1157.0" y2="1157.0" /><line stroke="#999" stroke-width="3" x1="1989.0" x2="1989.0" y1="1349.0" y2="1157.0" /><line stroke="#333" stroke-width="10" x1="1989.0" x2="2021.0" y1="1349.0" y2="1349.0" /><line stroke="#333" stroke-width="10" x1="2021.0" x2="1989.0" y1="1157.0" y2="1157.0" /><line stroke="#999" stroke-width="3" x1="2021.0" x2="2021.0" y1="1349.0" y2="1157.0" /><line stroke="#333" stroke-width="10" x1="869.0" x2="741.0" y1="485.0" y2="485.0" /><line stroke="#999" stroke-width="3" x1="1317.0" x2="869.0" y1="1157.0" y2="485.0" /><line stroke="#333" stroke-width="10" x1="1317.0" x2="1317.0" y1="1381.0" y2="1349.0" /><line stroke="#333" stroke-width="10" x1="1429.0" x2="1317.0" y1="1381.0" y2="1381.0" /><line stroke="#333" stroke-width="10" x1="1541.0" x2="1429.0" y1="1493.0" y2="1381.0" /><line stroke="#999" stroke-width="3" x1="3045.0" x2="3109.0" y1="4037.0" y2="4037.0" /><line stroke="#333" stroke-width="10" x1="1541.0" x2="1541.0" y1="1909.0" y2="1493.0" /><line stroke="#333" stroke-width="10" x1="1429.0" x2="1541.0" y1="2021.0" y2="1909.0" /><line stroke="#333" stroke-width="10" x1="1013.0" x2="1429.0" y1="2021.0" y2="2021.0" /><line stroke="#00d" stroke-width="20" x1="3269.0" x2="3333.0" y1="3813.0" y2="3749.0" /><line stroke="#333" stroke-width="10" x1="901.0" x2="1013.0" y1="1909.0" y2="2021.0" /><line stroke="#333" stroke-width="10" x1="901.0" x2="901.0" y1="1797.0" y2="1909.0" /><line stroke="#333" stroke-width="10" x1="869.0" x2="901.0" y1="1797.0" y2="1797.0" /><line stroke="#999" stroke-width="3" x1="5.0" x2="677.0" y1="613.0" y2="1797.0" /><line stroke="#333" stroke-width="10" x1="5.0" x2="5.0" y1="485.0" y2="549.0" /><line stroke="#333" stroke-width="10" x1="3333.0" x2="2517.0" y1="485.0" y2="485.0" /><line stroke="#333" stroke-width="10" x1="2437.0" x2="2469.0" y1="1797.0" y2="1797.0" /><line stroke="#333" stroke-width="10" x1="2437.0" x2="2437.0" y1="1909.0" y2="1797.0" /><line stroke="#333" stroke-width="10" x1="2325.0" x2="2437.0" y1="2021.0" y2="1909.0" /><line stroke="#333" stroke-width="10" x1="3333.0" x2="3333.0" y1="3749.0" y2="3621.0" /><line stroke="#333" stroke-width="10" x1="1909.0" x2="2325.0" y1="2021.0" y2="2021.0" /><line stroke="#333" stroke-width="10" x1="1797.0" x2="1909.0" y1="1909.0" y2="2021.0" /><line stroke="#333" stroke-width="10" x1="1797.0" x2="1797.0" y1="1493.0" y2="1909.0" /><line stroke="#333" stroke-width="10" x1="1797.0" x2="1797.0" y1="2389.0" y2="2805.0" /><line stroke="#333" stroke-width="10" x1="1909.0" x2="1797.0" y1="1381.0" y2="1493.0" /><line stroke="#333" stroke-width="10" x1="2021.0" x2="1909.0" y1="1381.0" y2="1381.0" /><line stroke="#333" stroke-width="10" x1="2021.0" x2="2021.0" y1="1349.0" y2="1381.0" /><line stroke="#333" stroke-width="10" x1="5.0" x2="5.0" y1="2213.0" y2="3013.0" /><line stroke="#333" stroke-width="10" x1="901.0" x2="869.0" y1="2501.0" y2="2501.0" /><line stroke="#333" stroke-width="10" x1="901.0" x2="901.0" y1="2389.0" y2="2501.0" /><line stroke="#333" stroke-width="10" x1="1013.0" x2="901.0" y1="2277.0" y2="2389.0" /><line stroke="#333" stroke-width="10" x1="3109.0" x2="3109.0" y1="4101.0" y2="4037.0" /><line stroke="#333" stroke-width="10" x1="1429.0" x2="1013.0" y1="2277.0" y2="2277.0" /><line stroke="#333" stroke-width="10" x1="1541.0" x2="1429.0" y1="2389.0" y2="2277.0" /><line stroke="#333" stroke-width="10" x1="1541.0" x2="1541.0" y1="2805.0" y2="2389.0" /><line stroke="#333" stroke-width="10" x1="3109.0" x2="3125.0" y1="4037.0" y2="4037.0" /><line stroke="#333" stroke-width="10" x1="1429.0" x2="1541.0" y1="2917.0" y2="2805.0" /><line stroke="#333" stroke-width="10" x1="1317.0" x2="1429.0" y1="2917.0" y2="2917.0" /><line stroke="#333" stroke-width="10" x1="1317.0" x2="1317.0" y1="2949.0" y2="2917.0" /><line stroke="#333" stroke-width="10" x1="3333.0" x2="3333.0" y1="3621.0" y2="2837.0" /><line stroke="#333" stroke-width="10" x1="2517.0" x2="1701.0" y1="485.0" y2="485.0" /><line stroke="#999" stroke-width="3" x1="2021.0" x2="2597.0" y1="3141.0" y2="3813.0" /><line stroke="#333" stroke-width="10" x1="2021.0" x2="2021.0" y1="2917.0" y2="2949.0" /><line stroke="#333" stroke-width="10" x1="1909.0" x2="2021.0" y1="2917.0" y2="2917.0" /><line stroke="#333" stroke-width="10" x1="1797.0" x2="1909.0" y1="2805.0" y2="2917.0" /><line stroke="#333" stroke-width="10" x1="3045.0" x2="3109.0" y1="4101.0" y2="4101.0" /><line stroke="#333" stroke-width="10" x1="3045.0" x2="3045.0" y1="4037.0" y2="4101.0" /><line stroke="#333" stroke-width="10" x1="1909.0" x2="1797.0" y1="2277.0" y2="2389.0" /><line stroke="#333" stroke-width="10" x1="3269.0" x2="3333.0" y1="3813.0" y2="3813.0" /><line stroke="#333" stroke-width="10" x1="2325.0" x2="1909.0" y1="2277.0" y2="2277.0" /><line stroke="#333" stroke-width="10" x1="2437.0" x2="2325.0" y1="2389.0" y2="2277.0" /><line stroke="#333" stroke-width="10" x1="2437.0" x2="2437.0" y1="2501.0" y2="2389.0" /><line stroke="#333" stroke-width="10" x1="2469.0" x2="2437.0" y1="2501.0" y2="2501.0" /><line stroke="#999" stroke-width="3" x1="3333.0" x2="2661.0" y1="3621.0" y2="2501.0" /><line stroke="#333" stroke-width="10" x1="3333.0" x2="3333.0" y1="3813.0" y2="3749.0" /><line stroke="#333" stroke-width="10" x1="2597.0" x2="2725.0" y1="3813.0" y2="3813.0" /><line stroke="#333" stroke-width="10" x1="5.0" x2="5.0" y1="549.0" y2="613.0" /><line stroke="#333" stroke-width="10" x1="69.0" x2="5.0" y1="485.0" y2="485.0" /><line stroke="#00d" stroke-width="20" x1="5.0" x2="69.0" y1="549.0" y2="485.0" /><line stroke="#333" stroke-width="10" x1="485.0" x2="69.0" y1="485.0" y2="485.0" /><line stroke="#999" stroke-width="3" x1="741.0" x2="485.0" y1="485.0" y2="485.0" /><line stroke="#333" stroke-width="10" x1="357.0" x2="357.0" y1="101.0" y2="421.0" /><line stroke="#333" stroke-width="10" x1="869.0" x2="613.0" y1="101.0" y2="101.0" /><line stroke="#333" stroke-width="10" x1="869.0" x2="869.0" y1="421.0" y2="357.0" /><line stroke="#333" stroke-width="10" x1="741.0" x2="869.0" y1="485.0" y2="421.0" /><line stroke="#333" stroke-width="10" x1="357.0" x2="485.0" y1="421.0" y2="485.0" /><line stroke="#666" stroke-width="20" x1="869.0" x2="869.0" y1="357.0" y2="229.0" /><line stroke="#333" stroke-width="10" x1="869.0" x2="869.0" y1="229.0" y2="101.0" /><line stroke="#333" stroke-width="10" x1="869.0" x2="885.0" y1="357.0" y2="357.0" /><line stroke="#333" stroke-width="10" x1="885.0" x2="869.0" y1="229.0" y2="229.0" /><line stroke="#666" stroke-width="20" x1="885.0" x2="885.0" y1="229.0" y2="357.0" /><line stroke="#333" stroke-width="10" x1="885.0" x2="1013.0" y1="357.0" y2="357.0" /><line stroke="#333" stroke-width="10" x1="1013.0" x2="885.0" y1="229.0" y2="229.0" /><line stroke="#333" stroke-width="10" x1="1013.0" x2="1013.0" y1="357.0" y2="229.0" /><line stroke="#333" stroke-width="10" x1="549.0" x2="357.0" y1="101.0" y2="101.0" /><line stroke="#999" stroke-width="3" x1="613.0" x2="549.0" y1="101.0" y2="101.0" /><line stroke="#00d" stroke-width="20" x1="613.0" x2="549.0" y1="69.0" y2="69.0" /><line stroke="#333" stroke-width="10" x1="613.0" x2="613.0" y1="101.0" y2="69.0" /><line stroke="#333" stroke-width="10" x1="549.0" x2="549.0" y1="69.0" y2="101.0" /><line stroke="#333" stroke-width="10" x1="549.0" x2="549.0" y1="5.0" y2="69.0" /><line stroke="#333" stroke-width="10" x1="613.0" x2="549.0" y1="5.0" y2="5.0" /><line stroke="#333" stroke-width="10" x1="613.0" x2="613.0" y1="69.0" y2="5.0" /><line stroke="#333" stroke-width="10" x1="1573.0" x2="1557.0" y1="3269.0" y2="3301.0" /><line stroke="#333" stroke-width="10" x1="1781.0" x2="1765.0" y1="3301.0" y2="3269.0" /><line stroke="#999" stroke-width="3" x1="1781.0" x2="1557.0" y1="3301.0" y2="3301.0" /><line stroke="#333" stroke-width="10" x1="517.0" x2="645.0" y1="2037.0" y2="1909.0" /><line stroke="#333" stroke-width="10" x1="2661.0" x2="2693.0" y1="1797.0" y2="1797.0" /><line stroke="#333" stroke-width="10" x1="1429.0" x2="1317.0" y1="3173.0" y2="3173.0" /><line stroke="#333" stroke-width="10" x1="645.0" x2="645.0" y1="1909.0" y2="1797.0" /><line stroke="#333" stroke-width="10" x1="645.0" x2="677.0" y1="1797.0" y2="1797.0" /><line stroke="#333" stroke-width="10" x1="2821.0" x2="2789.0" y1="2037.0" y2="2053.0" /><line stroke="#999" stroke-width="3" x1="2821.0" x2="2821.0" y1="2037.0" y2="2261.0" /><line stroke="#333" stroke-width="10" x1="2789.0" x2="2821.0" y1="2245.0" y2="2261.0" /><line stroke="#333" stroke-width="10" x1="645.0" x2="645.0" y1="2501.0" y2="2389.0" /><line stroke="#333" stroke-width="10" x1="1909.0" x2="2021.0" y1="1125.0" y2="1125.0" /><line stroke="#333" stroke-width="10" x1="2821.0" x2="2693.0" y1="2261.0" y2="2389.0" /><line stroke="#333" stroke-width="10" x1="2021.0" x2="2021.0" y1="3141.0" y2="3173.0" /><line stroke="#333" stroke-width="10" x1="677.0" x2="645.0" y1="2501.0" y2="2501.0" /><line stroke="#333" stroke-width="10" x1="1557.0" x2="1573.0" y1="997.0" y2="1029.0" /><line stroke="#999" stroke-width="3" x1="1557.0" x2="1781.0" y1="997.0" y2="997.0" /><line stroke="#333" stroke-width="10" x1="1765.0" x2="1781.0" y1="1029.0" y2="997.0" /><line stroke="#333" stroke-width="10" x1="2725.0" x2="2597.0" y1="3813.0" y2="3845.0" /><line stroke="#00d" stroke-width="20" x1="2597.0" x2="2661.0" y1="4037.0" y2="4037.0" /><line stroke="#333" stroke-width="10" x1="3125.0" x2="3013.0" y1="3845.0" y2="3813.0" /><line stroke="#333" stroke-width="10" x1="3125.0" x2="3125.0" y1="4037.0" y2="3845.0" /><line stroke="#333" stroke-width="10" x1="1317.0" x2="1429.0" y1="1125.0" y2="1125.0" /><line stroke="#333" stroke-width="10" x1="517.0" x2="549.0" y1="2261.0" y2="2245.0" /><line stroke="#999" stroke-width="3" x1="517.0" x2="517.0" y1="2261.0" y2="2037.0" /><line stroke="#333" stroke-width="10" x1="549.0" x2="517.0" y1="2053.0" y2="2037.0" /><line stroke="#333" stroke-width="10" x1="2597.0" x2="2597.0" y1="4037.0" y2="4101.0" /><line stroke="#333" stroke-width="10" x1="645.0" x2="517.0" y1="2389.0" y2="2261.0" /><line stroke="#333" stroke-width="10" x1="2661.0" x2="3045.0" y1="4037.0" y2="4037.0" /><line stroke="#333" stroke-width="10" x1="2661.0" x2="2661.0" y1="4101.0" y2="4037.0" /><line stroke="#333" stroke-width="10" x1="2597.0" x2="2661.0" y1="4101.0" y2="4101.0" /><line stroke="#333" stroke-width="10" x1="3013.0" x2="3269.0" y1="3813.0" y2="3813.0" /><line stroke="#999" stroke-width="3" x1="2725.0" x2="3013.0" y1="3813.0" y2="3813.0" /><line stroke="#333" stroke-width="10" x1="2597.0" x2="2597.0" y1="3845.0" y2="4037.0" /><line stroke="#333" stroke-width="10" x1="1317.0" x2="1317.0" y1="1157.0" y2="1125.0" /><line stroke="#333" stroke-width="10" x1="1429.0" x2="1557.0" y1="1125.0" y2="997.0" /><line stroke="#333" stroke-width="10" x1="1781.0" x2="1909.0" y1="997.0" y2="1125.0" /><line stroke="#333" stroke-width="10" x1="2021.0" x2="2021.0" y1="1125.0" y2="1157.0" /><line stroke="#333" stroke-width="10" x1="2693.0" x2="2661.0" y1="2501.0" y2="2501.0" /><line stroke="#333" stroke-width="10" x1="2693.0" x2="2693.0" y1="2389.0" y2="2501.0" /><line stroke="#333" stroke-width="10" x1="2693.0" x2="2821.0" y1="1909.0" y2="2037.0" /><line stroke="#333" stroke-width="10" x1="2693.0" x2="2693.0" y1="1797.0" y2="1909.0" /><line stroke="#333" stroke-width="10" x1="1557.0" x2="1429.0" y1="3301.0" y2="3173.0" /><line stroke="#333" stroke-width="10" x1="1317.0" x2="1317.0" y1="3173.0" y2="3141.0" /><line stroke="#333" stroke-width="10" x1="1909.0" x2="1781.0" y1="3173.0" y2="3301.0" /><line stroke="#333" stroke-width="10" x1="2021.0" x2="1909.0" y1="3173.0" y2="3173.0" /><line stroke="#333" stroke-width="10" x1="5.0" x2="805.0" y1="3813.0" y2="3813.0" /><line stroke="#333" stroke-width="10" x1="1893.0" x2="1893.0" y1="3909.0" y2="3813.0" /><line stroke="#333" stroke-width="10" x1="133.0" x2="101.0" y1="3909.0" y2="3973.0" /><line stroke="#333" stroke-width="10" x1="3333.0" x2="3333.0" y1="1269.0" y2="485.0" /><line stroke="#333" stroke-width="10" x1="3333.0" x2="3333.0" y1="2053.0" y2="1269.0" /><line stroke="#333" stroke-width="10" x1="1701.0" x2="869.0" y1="485.0" y2="485.0" /><line stroke="#333" stroke-width="10" x1="5.0" x2="5.0" y1="3013.0" y2="3813.0" /><line stroke="#333" stroke-width="10" x1="3333.0" x2="3333.0" y1="2837.0" y2="2053.0" /><line stroke="#333" stroke-width="10" x1="5.0" x2="5.0" y1="613.0" y2="1413.0" /><line stroke="#333" stroke-width="10" x1="5.0" x2="5.0" y1="1413.0" y2="2213.0" /><line stroke="#333" stroke-width="10" x1="325.0" x2="133.0" y1="3909.0" y2="3909.0" /><line stroke="#333" stroke-width="10" x1="325.0" x2="325.0" y1="4101.0" y2="3909.0" /><line stroke="#333" stroke-width="10" x1="133.0" x2="325.0" y1="4101.0" y2="4101.0" /><line stroke="#333" stroke-width="10" x1="37.0" x2="37.0" y1="3973.0" y2="4037.0" /><line stroke="#333" stroke-width="10" x1="101.0" x2="37.0" y1="3973.0" y2="3973.0" /><line stroke="#00d" stroke-width="20" x1="101.0" x2="101.0" y1="3973.0" y2="4037.0" /><line stroke="#333" stroke-width="10" x1="37.0" x2="101.0" y1="4037.0" y2="4037.0" /><line stroke="#333" stroke-width="10" x1="101.0" x2="133.0" y1="4037.0" y2="4101.0" /><line stroke="#333" stroke-width="10" x1="1893.0" x2="2597.0" y1="3813.0" y2="3813.0" /><line stroke="#333" stroke-width="10" x1="805.0" x2="1509.0" y1="3813.0" y2="3813.0" /><line stroke="#999" stroke-width="3" x1="1893.0" x2="1829.0" y1="3973.0" y2="3973.0" /><line stroke="#333" stroke-width="10" x1="1509.0" x2="1509.0" y1="3813.0" y2="3909.0" /><line stroke="#333" stroke-width="10" x1="1893.0" x2="1893.0" y1="3941.0" y2="3925.0" /><line stroke="#666" stroke-width="20" x1="1573.0" x2="1509.0" y1="3909.0" y2="3909.0" /><line stroke="#666" stroke-width="20" x1="1893.0" x2="1829.0" y1="3909.0" y2="3909.0" /><line stroke="#999" stroke-width="3" x1="1829.0" x2="1573.0" y1="3909.0" y2="3909.0" /><line stroke="#999" stroke-width="3" x1="1573.0" x2="1573.0" y1="3957.0" y2="3973.0" /><line stroke="#333" stroke-width="10" x1="1893.0" x2="1893.0" y1="3957.0" y2="3941.0" /><line stroke="#333" stroke-width="10" x1="1893.0" x2="1893.0" y1="3925.0" y2="3909.0" /><line stroke="#999" stroke-width="3" x1="1573.0" x2="1573.0" y1="3941.0" y2="3957.0" /><line stroke="#333" stroke-width="10" x1="1509.0" x2="1509.0" y1="3941.0" y2="3957.0" /><line stroke="#333" stroke-width="10" x1="1509.0" x2="1509.0" y1="3925.0" y2="3941.0" /><line stroke="#333" stroke-width="10" x1="1509.0" x2="1509.0" y1="3909.0" y2="3925.0" /><line stroke="#999" stroke-width="3" x1="1573.0" x2="1509.0" y1="3925.0" y2="3925.0" /><line stroke="#999" stroke-width="3" x1="1573.0" x2="1573.0" y1="3909.0" y2="3925.0" /><line stroke="#999" stroke-width="3" x1="1573.0" x2="1509.0" y1="3941.0" y2="3941.0" /><line stroke="#999" stroke-width="3" x1="1573.0" x2="1573.0" y1="3925.0" y2="3941.0" /><line stroke="#999" stroke-width="3" x1="1573.0" x2="1509.0" y1="3957.0" y2="3957.0" /><line stroke="#333" stroke-width="10" x1="1509.0" x2="1509.0" y1="3973.0" y2="4101.0" /><line stroke="#333" stroke-width="10" x1="1509.0" x2="1509.0" y1="3957.0" y2="3973.0" /><line stroke="#999" stroke-width="3" x1="1573.0" x2="1509.0" y1="3973.0" y2="3973.0" /><line stroke="#333" stroke-width="10" x1="1893.0" x2="1893.0" y1="3973.0" y2="3957.0" /><line stroke="#333" stroke-width="10" x1="1893.0" x2="1893.0" y1="4101.0" y2="3973.0" /><line stroke="#999" stroke-width="3" x1="1893.0" x2="1829.0" y1="3925.0" y2="3925.0" /><line stroke="#999" stroke-width="3" x1="1829.0" x2="1829.0" y1="3925.0" y2="3909.0" /><line stroke="#999" stroke-width="3" x1="1829.0" x2="1829.0" y1="3941.0" y2="3925.0" /><line stroke="#999" stroke-width="3" x1="1893.0" x2="1829.0" y1="3941.0" y2="3941.0" /><line stroke="#999" stroke-width="3" x1="1829.0" x2="1829.0" y1="3957.0" y2="3941.0" /><line stroke="#999" stroke-width="3" x1="1893.0" x2="1829.0" y1="3957.0" y2="3957.0" /><line stroke="#999" stroke-width="3" x1="1829.0" x2="1829.0" y1="3973.0" y2="3957.0" /><line stroke="#333" stroke-width="10" x1="1509.0" x2="1669.0" y1="4101.0" y2="4101.0" /><line stroke="#333" stroke-width="10" x1="1733.0" x2="1893.0" y1="4101.0" y2="4101.0" /><line stroke="#999" stroke-width="3" x1="1669.0" x2="1733.0" y1="4101.0" y2="4101.0" /><line stroke="#333" stroke-width="10" x1="1669.0" x2="1669.0" y1="4101.0" y2="4109.0" /><line stroke="#333" stroke-width="10" x1="1733.0" x2="1733.0" y1="4109.0" y2="4101.0" /><line stroke="#666" stroke-width="20" x1="1669.0" x2="1733.0" y1="4109.0" y2="4109.0" /><line stroke="#333" stroke-width="10" x1="1669.0" x2="1669.0" y1="4109.0" y2="4125.0" /><line stroke="#333" stroke-width="10" x1="1733.0" x2="1733.0" y1="4125.0" y2="4109.0" /><line stroke="#666" stroke-width="20" x1="1733.0" x2="1669.0" y1="4125.0" y2="4125.0" /><line stroke="#333" stroke-width="10" x1="1669.0" x2="1669.0" y1="4125.0" y2="4133.0" /><line stroke="#333" stroke-width="10" x1="1733.0" x2="1733.0" y1="4133.0" y2="4125.0" /><line stroke="#999" stroke-width="3" x1="1733.0" x2="1669.0" y1="4133.0" y2="4133.0" /><line stroke="#333" stroke-width="10" x1="1669.0" x2="1669.0" y1="4133.0" y2="4197.0" /><line stroke="#333" stroke-width="10" x1="1733.0" x2="1733.0" y1="4197.0" y2="4133.0" /><line stroke="#0d0" stroke-width="20" x1="1669.0" x2="1733.0" y1="4197.0" y2="4197.0" /><line stroke="#999" stroke-width="3" x1="1717.0" x2="1685.0" y1="4149.0" y2="4149.0" /><line stroke="#999" stroke-width="3" x1="1717.0" x2="1717.0" y1="4157.0" y2="4149.0" /><line stroke="#999" stroke-width="3" x1="1685.0" x2="1717.0" y1="4157.0" y2="4157.0" /><line stroke="#999" stroke-width="3" x1="1685.0" x2="1685.0" y1="4149.0" y2="4157.0" /><line stroke="#999" stroke-width="3" x1="1893.0" x2="1509.0" y1="3813.0" y2="3813.0" /><line stroke="#333" stroke-width="10" x1="1701.0" x2="1733.0" y1="4213.0" y2="4197.0" /><line stroke="#333" stroke-width="10" x1="1669.0" x2="1701.0" y1="4197.0" y2="4213.0" /><circle cx="2629.0" cy="3877.0" fill="#009" r="16" stroke="#009" stroke-width="5" /><rect fill="#090" height="24" stroke="#090" stroke-width="5" transform="rotate(90,1669.0,1253.0)" width="24" x="1657.0" y="1241.0" /><rect fill="#090" height="24" stroke="#090" stroke-width="5" transform="rotate(0,677.0,2149.0)" width="24" x="665.0" y="2137.0" /><rect fill="#090" height="24" stroke="#090" stroke-width="5" transform="rotate(180,2565.0,2149.0)" width="24" x="2553.0" y="2137.0" /><rect fill="#090" height="24" stroke="#090" stroke-width="5" transform="rotate(270,1669.0,3173.0)" width="24" x="1657.0" y="3161.0" /><rect fill="#090" height="24" stroke="#090" stroke-width="5" transform="rotate(0,3177.0,1709.0)" width="24" x="3165.0" y="1697.0" /><circle cx="1413.0" cy="2405.0" fill="#090" r="16" stroke="#090" stroke-width="5" /><circle cx="1925.0" cy="1893.0" fill="#090" r="16" stroke="#090" stroke-width="5" /><circle cx="2057.0" cy="1733.0" fill="#009" r="16" stroke="#009" stroke-width="5" /><circle cx="1265.0" cy="2565.0" fill="#009" r="16" stroke="#009" stroke-width="5" /><rect fill="#090" height="24" stroke="#090" stroke-width="5" transform="rotate(90,1797.0,2021.0)" width="24" x="1785.0" y="2009.0" /><rect fill="#090" height="24" stroke="#090" stroke-width="5" transform="rotate(90,1797.0,2277.0)" width="24" x="1785.0" y="2265.0" /><rect fill="#090" height="24" stroke="#090" stroke-width="5" transform="rotate(90,1541.0,2277.0)" width="24" x="1529.0" y="2265.0" /><rect fill="#090" height="24" stroke="#090" stroke-width="5" transform="rotate(90,1541.0,2021.0)" width="24" x="1529.0" y="2009.0" /><circle cx="1317.0" cy="517.0" fill="#090" r="16" stroke="#090" stroke-width="5" /><circle cx="69.0" cy="1733.0" fill="#090" r="16" stroke="#090" stroke-width="5" /><circle cx="613.0" cy="2565.0" fill="#090" r="16" stroke="#090" stroke-width="5" /><circle cx="1253.0" cy="3205.0" fill="#090" r="16" stroke="#090" stroke-width="5" /><circle cx="2085.0" cy="3205.0" fill="#090" r="16" stroke="#090" stroke-width="5" /><circle cx="2725.0" cy="2565.0" fill="#090" r="16" stroke="#090" stroke-width="5" /><circle cx="2725.0" cy="1733.0" fill="#090" r="16" stroke="#090" stroke-width="5" /><circle cx="2085.0" cy="1093.0" fill="#090" r="16" stroke="#090" stroke-width="5" /><rect fill="#009" height="24" stroke="#009" stroke-width="5" transform="rotate(90,389.0,133.0)" width="24" x="377.0" y="121.0" /><circle cx="837.0" cy="133.0" fill="#900" r="16" stroke="#900" stroke-width="5" /><circle cx="949.0" cy="293.0" fill="#009" r="16" stroke="#009" stroke-width="5" /><rect fill="#009" height="24" stroke="#009" stroke-width="5" transform="rotate(90,613.0,517.0)" width="24" x="601.0" y="505.0" /><circle cx="3237.0" cy="2149.0" fill="#900" r="16" stroke="#900" stroke-width="5" /><circle cx="1669.0" cy="3749.0" fill="#900" r="16" stroke="#900" stroke-width="5" /><circle cx="1669.0" cy="517.0" fill="#900" r="16" stroke="#900" stroke-width="5" /><circle cx="69.0" cy="2149.0" fill="#900" r="16" stroke="#900" stroke-width="5" /><rect fill="#090" height="24" stroke="#090" stroke-width="5" transform="rotate(225,3269.0,3749.0)" width="24" x="3257.0" y="3737.0" /><rect fill="#090" height="24" stroke="#090" stroke-width="5" transform="rotate(315,101.0,3557.0)" width="24" x="89.0" y="3545.0" /><rect fill="#090" height="24" stroke="#090" stroke-width="5" transform="rotate(45,133.0,549.0)" width="24" x="121.0" y="537.0" /><rect fill="#090" height="24" stroke="#090" stroke-width="5" transform="rotate(135,3301.0,517.0)" width="24" x="3289.0" y="505.0" /><circle cx="1405.0" cy="1893.0" fill="#090" r="16" stroke="#090" stroke-width="5" /><circle cx="1925.0" cy="2405.0" fill="#090" r="16" stroke="#090" stroke-width="5" /><circle cx="69.0" cy="3173.0" fill="#090" r="16" stroke="#090" stroke-width="5" /><circle cx="421.0" cy="3589.0" fill="#090" r="16" stroke="#090" stroke-width="5" /><circle cx="2757.0" cy="3781.0" fill="#090" r="16" stroke="#090" stroke-width="5" /><circle cx="3301.0" cy="3301.0" fill="#090" r="16" stroke="#090" stroke-width="5" /><circle cx="3301.0" cy="965.0" fill="#090" r="16" stroke="#090" stroke-width="5" /><circle cx="2821.0" cy="517.0" fill="#090" r="16" stroke="#090" stroke-width="5" /><circle cx="69.0" cy="773.0" fill="#090" r="16" stroke="#090" stroke-width="5" /><circle cx="325.0" cy="517.0" fill="#090" r="16" stroke="#090" stroke-width="5" /><rect fill="#009" height="24" stroke="#009" stroke-width="5" transform="rotate(270,2869.0,3781.0)" width="24" x="2857.0" y="3769.0" /><rect fill="#009" height="24" stroke="#009" stroke-width="5" transform="rotate(270,3077.0,4069.0)" width="24" x="3065.0" y="4057.0" /><circle cx="2789.0" cy="3909.0" fill="#009" r="16" stroke="#009" stroke-width="5" /><circle cx="3077.0" cy="3941.0" fill="#900" r="16" stroke="#900" stroke-width="5" /><rect fill="#090" height="24" stroke="#090" stroke-width="5" transform="rotate(0,2417.0,2957.0)" width="24" x="2405.0" y="2945.0" /><rect fill="#090" height="24" stroke="#090" stroke-width="5" transform="rotate(0,3129.0,2997.0)" width="24" x="3117.0" y="2985.0" /><rect fill="#090" height="24" stroke="#090" stroke-width="5" transform="rotate(0,2337.0,3445.0)" width="24" x="2325.0" y="3433.0" /><rect fill="#090" height="24" stroke="#090" stroke-width="5" transform="rotate(0,1569.0,2957.0)" width="24" x="1557.0" y="2945.0" /><rect fill="#090" height="24" stroke="#090" stroke-width="5" transform="rotate(0,785.0,2957.0)" width="24" x="773.0" y="2945.0" /><rect fill="#090" height="24" stroke="#090" stroke-width="5" transform="rotate(0,721.0,3357.0)" width="24" x="709.0" y="3345.0" /><rect fill="#090" height="24" stroke="#090" stroke-width="5" transform="rotate(0,409.0,2949.0)" width="24" x="397.0" y="2937.0" /><rect fill="#090" height="24" stroke="#090" stroke-width="5" transform="rotate(0,337.0,2693.0)" width="24" x="325.0" y="2681.0" /><rect fill="#090" height="24" stroke="#090" stroke-width="5" transform="rotate(0,809.0,2061.0)" width="24" x="797.0" y="2049.0" /><rect fill="#090" height="24" stroke="#090" stroke-width="5" transform="rotate(0,185.0,2085.0)" width="24" x="173.0" y="2073.0" /><rect fill="#090" height="24" stroke="#090" stroke-width="5" transform="rotate(0,705.0,1461.0)" width="24" x="693.0" y="1449.0" /><rect fill="#090" height="24" stroke="#090" stroke-width="5" transform="rotate(0,1129.0,1565.0)" width="24" x="1117.0" y="1553.0" /><rect fill="#090" height="24" stroke="#090" stroke-width="5" transform="rotate(0,737.0,957.0)" width="24" x="725.0" y="945.0" /><rect fill="#090" height="24" stroke="#090" stroke-width="5" transform="rotate(0,1737.0,805.0)" width="24" x="1725.0" y="793.0" /><rect fill="#090" height="24" stroke="#090" stroke-width="5" transform="rotate(0,1705.0,1405.0)" width="24" x="1693.0" y="1393.0" /><rect fill="#090" height="24" stroke="#090" stroke-width="5" transform="rotate(0,1697.0,1693.0)" width="24" x="1685.0" y="1681.0" /><rect fill="#090" height="24" stroke="#090" stroke-width="5" transform="rotate(0,1657.0,1973.0)" width="24" x="1645.0" y="1961.0" /><rect fill="#090" height="24" stroke="#090" stroke-width="5" transform="rotate(0,2201.0,1437.0)" width="24" x="2189.0" y="1425.0" /><rect fill="#090" height="24" stroke="#090" stroke-width="5" transform="rotate(0,2793.0,1397.0)" width="24" x="2781.0" y="1385.0" /><rect fill="#090" height="24" stroke="#090" stroke-width="5" transform="rotate(0,2433.0,557.0)" width="24" x="2421.0" y="545.0" /><rect fill="#090" height="24" stroke="#090" stroke-width="5" transform="rotate(0,2241.0,853.0)" width="24" x="2229.0" y="841.0" /><rect fill="#090" height="24" stroke="#090" stroke-width="5" transform="rotate(0,3081.0,2261.0)" width="24" x="3069.0" y="2249.0" /><rect fill="#090" height="24" stroke="#090" stroke-width="5" transform="rotate(0,2617.0,2317.0)" width="24" x="2605.0" y="2305.0" /><rect fill="#090" height="24" stroke="#090" stroke-width="5" transform="rotate(0,1665.0,2661.0)" width="24" x="1653.0" y="2649.0" /><rect fill="#090" height="24" stroke="#090" stroke-width="5" transform="rotate(0,1189.0,2149.0)" width="24" x="1177.0" y="2137.0" /><rect fill="#090" height="24" stroke="#090" stroke-width="5" transform="rotate(0,2193.0,2117.0)" width="24" x="2181.0" y="2105.0" /><rect fill="#090" height="24" stroke="#090" stroke-width="5" transform="rotate(0,2665.0,1149.0)" width="24" x="2653.0" y="1137.0" /><rect fill="#090" height="24" stroke="#090" stroke-width="5" transform="rotate(0,2417.0,1501.0)" width="24" x="2405.0" y="1489.0" /><rect fill="#090" height="24" stroke="#090" stroke-width="5" transform="rotate(0,2577.0,901.0)" width="24" x="2565.0" y="889.0" /><rect fill="#090" height="24" stroke="#090" stroke-width="5" transform="rotate(0,3009.0,1133.0)" width="24" x="2997.0" y="1121.0" /><rect fill="#090" height="24" stroke="#090" stroke-width="5" transform="rotate(0,1145.0,1077.0)" width="24" x="1133.0" y="1065.0" /><rect fill="#090" height="24" stroke="#090" stroke-width="5" transform="rotate(0,849.0,765.0)" width="24" x="837.0" y="753.0" /><rect fill="#090" height="24" stroke="#090" stroke-width="5" transform="rotate(0,105.0,1133.0)" width="24" x="93.0" y="1121.0" /><rect fill="#090" height="24" stroke="#090" stroke-width="5" transform="rotate(0,393.0,1461.0)" width="24" x="381.0" y="1449.0" /><rect fill="#090" height="24" stroke="#090" stroke-width="5" transform="rotate(0,1025.0,3397.0)" width="24" x="1013.0" y="3385.0" /><rect fill="#090" height="24" stroke="#090" stroke-width="5" transform="rotate(0,401.0,3213.0)" width="24" x="389.0" y="3201.0" /><rect fill="#090" height="24" stroke="#090" stroke-width="5" transform="rotate(0,209.0,2789.0)" width="24" x="197.0" y="2777.0" /><rect fill="#090" height="24" stroke="#090" stroke-width="5" transform="rotate(0,2721.0,3317.0)" width="24" x="2709.0" y="3305.0" /><rect fill="#090" height="24" stroke="#090" stroke-width="5" transform="rotate(0,2577.0,2789.0)" width="24" x="2565.0" y="2777.0" /><rect fill="#090" height="24" stroke="#090" stroke-width="5" transform="rotate(0,2129.0,2621.0)" width="24" x="2117.0" y="2609.0" /><rect fill="#090" height="24" stroke="#090" stroke-width="5" transform="rotate(0,2145.0,3013.0)" width="24" x="2133.0" y="3001.0" /><rect fill="#090" height="24" stroke="#090" stroke-width="5" transform="rotate(0,1817.0,3021.0)" width="24" x="1805.0" y="3009.0" /><rect fill="#090" height="24" stroke="#090" stroke-width="5" transform="rotate(0,3057.0,2645.0)" width="24" x="3045.0" y="2633.0" /><rect fill="#009" height="24" stroke="#009" stroke-width="5" transform="rotate(180,1669.0,2149.0)" width="24" x="1657.0" y="2137.0" /><ellipse cx="181.0" cy="4005.0" fill="#009" rx="12" ry="24" stroke="#009" stroke-width="5" /><ellipse cx="229.0" cy="3957.0" fill="#009" rx="12" ry="24" stroke="#009" stroke-width="5" /><rect fill="#090" height="24" stroke="#090" stroke-width="5" transform="rotate(180,277.0,4005.0)" width="24" x="265.0" y="3993.0" /><ellipse cx="229.0" cy="4005.0" fill="#009" rx="12" ry="24" stroke="#009" stroke-width="5" /><rect fill="#090" height="24" stroke="#090" stroke-width="5" transform="rotate(0,133.0,4005.0)" width="24" x="121.0" y="3993.0" /><ellipse cx="229.0" cy="4053.0" fill="#009" rx="12" ry="24" stroke="#009" stroke-width="5" /><circle cx="1669.0" cy="2437.0" fill="#900" r="16" stroke="#900" stroke-width="5" /><circle cx="1381.0" cy="2149.0" fill="#900" r="16" stroke="#900" stroke-width="5" /><circle cx="1957.0" cy="2149.0" fill="#900" r="16" stroke="#900" stroke-width="5" /><circle cx="1669.0" cy="1861.0" fill="#900" r="16" stroke="#900" stroke-width="5" /><rect fill="#900" height="48" stroke="#900" stroke-width="5" transform="rotate(90,293.0,2149.0)" width="32" x="277.0" y="2125.0" /><rect fill="#900" height="48" stroke="#900" stroke-width="5" transform="rotate(90,1669.0,3461.0)" width="32" x="1653.0" y="3437.0" /><rect fill="#900" height="48" stroke="#900" stroke-width="5" transform="rotate(90,2981.0,2149.0)" width="32" x="2965.0" y="2125.0" /><rect fill="#090" height="24" stroke="#090" stroke-width="5" transform="rotate(90,645.0,325.0)" width="24" x="633.0" y="313.0" /><circle cx="149.0" cy="3941.0" fill="#090" r="16" stroke="#090" stroke-width="5" /><circle cx="149.0" cy="4069.0" fill="#090" r="16" stroke="#090" stroke-width="5" /><circle cx="293.0" cy="4069.0" fill="#090" r="16" stroke="#090" stroke-width="5" /><circle cx="293.0" cy="3941.0" fill="#090" r="16" stroke="#090" stroke-width="5" /></svg>