<?xml version="1.0" encoding="utf-8" ?>
<svg baseProfile="tiny" height="357" version="1.2" viewBox="0 0 4522 1578" width="1024" xmlns="http://www.w3.org/2000/svg" xmlns:ev="http://www.w3.org/2001/xml-events" xmlns:xlink="http://www.w3.org/1999/xlink"><defs /><line stroke="#333" stroke-width="10" x1="645.0" x2="2949.0" y1="1573.0" y2="1573.0" /><line stroke="#333" stroke-width="10" x1="2949.0" x2="2949.0" y1="1573.0" y2="1189.0" /><line stroke="#333" stroke-width="10" x1="2949.0" x2="2885.0" y1="165.0" y2="165.0" /><line stroke="#999" stroke-width="3" x1="1189.0" x2="1157.0" y1="949.0" y2="949.0" /><line stroke="#999" stroke-width="3" x1="1301.0" x2="1285.0" y1="917.0" y2="949.0" /><line stroke="#999" stroke-width="3" x1="1157.0" x2="1157.0" y1="949.0" y2="789.0" /><line stroke="#999" stroke-width="3" x1="1157.0" x2="1157.0" y1="949.0" y2="965.0" /><line stroke="#999" stroke-width="3" x1="2293.0" x2="2309.0" y1="821.0" y2="789.0" /><line stroke="#999" stroke-width="3" x1="2405.0" x2="2437.0" y1="789.0" y2="789.0" /><line stroke="#999" stroke-width="3" x1="2437.0" x2="2437.0" y1="789.0" y2="949.0" /><line stroke="#999" stroke-width="3" x1="2437.0" x2="2437.0" y1="789.0" y2="773.0" /><line stroke="#333" stroke-width="10" x1="1221.0" x2="1189.0" y1="965.0" y2="965.0" /><line stroke="#333" stroke-width="10" x1="1221.0" x2="1221.0" y1="949.0" y2="965.0" /><line stroke="#333" stroke-width="10" x1="1189.0" x2="1221.0" y1="949.0" y2="949.0" /><line stroke="#333" stroke-width="10" x1="1189.0" x2="1189.0" y1="965.0" y2="949.0" /><line stroke="#999" stroke-width="3" x1="1253.0" x2="1221.0" y1="949.0" y2="949.0" /><line stroke="#333" stroke-width="10" x1="1285.0" x2="1253.0" y1="965.0" y2="965.0" /><line stroke="#333" stroke-width="10" x1="1285.0" x2="1285.0" y1="949.0" y2="965.0" /><line stroke="#333" stroke-width="10" x1="1253.0" x2="1285.0" y1="949.0" y2="949.0" /><line stroke="#333" stroke-width="10" x1="1253.0" x2="1253.0" y1="965.0" y2="949.0" /><line stroke="#333" stroke-width="10" x1="1221.0" x2="1189.0" y1="789.0" y2="789.0" /><line stroke="#333" stroke-width="10" x1="1221.0" x2="1221.0" y1="773.0" y2="789.0" /><line stroke="#333" stroke-width="10" x1="1189.0" x2="1221.0" y1="773.0" y2="773.0" /><line stroke="#333" stroke-width="10" x1="1189.0" x2="1189.0" y1="789.0" y2="773.0" /><line stroke="#999" stroke-width="3" x1="1157.0" x2="1189.0" y1="789.0" y2="789.0" /><line stroke="#333" stroke-width="10" x1="1285.0" x2="1253.0" y1="789.0" y2="789.0" /><line stroke="#333" stroke-width="10" x1="1285.0" x2="1285.0" y1="773.0" y2="789.0" /><line stroke="#333" stroke-width="10" x1="1253.0" x2="1285.0" y1="773.0" y2="773.0" /><line stroke="#333" stroke-width="10" x1="1253.0" x2="1253.0" y1="789.0" y2="773.0" /><line stroke="#999" stroke-width="3" x1="1221.0" x2="1253.0" y1="789.0" y2="789.0" /><line stroke="#999" stroke-width="3" x1="1301.0" x2="1317.0" y1="853.0" y2="853.0" /><line stroke="#999" stroke-width="3" x1="1317.0" x2="1317.0" y1="853.0" y2="821.0" /><line stroke="#999" stroke-width="3" x1="1317.0" x2="1301.0" y1="821.0" y2="821.0" /><line stroke="#999" stroke-width="3" x1="1301.0" x2="1301.0" y1="821.0" y2="853.0" /><line stroke="#999" stroke-width="3" x1="1285.0" x2="1301.0" y1="789.0" y2="821.0" /><line stroke="#999" stroke-width="3" x1="1301.0" x2="1317.0" y1="917.0" y2="917.0" /><line stroke="#999" stroke-width="3" x1="1317.0" x2="1317.0" y1="917.0" y2="885.0" /><line stroke="#999" stroke-width="3" x1="1317.0" x2="1301.0" y1="885.0" y2="885.0" /><line stroke="#999" stroke-width="3" x1="1301.0" x2="1301.0" y1="885.0" y2="917.0" /><line stroke="#999" stroke-width="3" x1="1301.0" x2="1301.0" y1="853.0" y2="885.0" /><line stroke="#333" stroke-width="10" x1="2405.0" x2="2373.0" y1="789.0" y2="789.0" /><line stroke="#333" stroke-width="10" x1="2405.0" x2="2405.0" y1="773.0" y2="789.0" /><line stroke="#333" stroke-width="10" x1="2373.0" x2="2405.0" y1="773.0" y2="773.0" /><line stroke="#333" stroke-width="10" x1="2373.0" x2="2373.0" y1="789.0" y2="773.0" /><line stroke="#999" stroke-width="3" x1="2341.0" x2="2373.0" y1="789.0" y2="789.0" /><line stroke="#999" stroke-width="3" x1="2309.0" x2="2293.0" y1="949.0" y2="917.0" /><line stroke="#999" stroke-width="3" x1="2277.0" x2="2293.0" y1="917.0" y2="917.0" /><line stroke="#999" stroke-width="3" x1="2293.0" x2="2293.0" y1="917.0" y2="885.0" /><line stroke="#999" stroke-width="3" x1="2293.0" x2="2277.0" y1="885.0" y2="885.0" /><line stroke="#999" stroke-width="3" x1="2277.0" x2="2277.0" y1="885.0" y2="917.0" /><line stroke="#999" stroke-width="3" x1="2277.0" x2="2293.0" y1="853.0" y2="853.0" /><line stroke="#999" stroke-width="3" x1="2293.0" x2="2293.0" y1="853.0" y2="821.0" /><line stroke="#999" stroke-width="3" x1="2293.0" x2="2277.0" y1="821.0" y2="821.0" /><line stroke="#999" stroke-width="3" x1="2277.0" x2="2277.0" y1="821.0" y2="853.0" /><line stroke="#999" stroke-width="3" x1="2293.0" x2="2293.0" y1="885.0" y2="853.0" /><line stroke="#333" stroke-width="10" x1="2341.0" x2="2309.0" y1="789.0" y2="789.0" /><line stroke="#333" stroke-width="10" x1="2341.0" x2="2341.0" y1="773.0" y2="789.0" /><line stroke="#333" stroke-width="10" x1="2309.0" x2="2341.0" y1="773.0" y2="773.0" /><line stroke="#333" stroke-width="10" x1="2309.0" x2="2309.0" y1="789.0" y2="773.0" /><line stroke="#333" stroke-width="10" x1="2341.0" x2="2309.0" y1="965.0" y2="965.0" /><line stroke="#333" stroke-width="10" x1="2341.0" x2="2341.0" y1="949.0" y2="965.0" /><line stroke="#333" stroke-width="10" x1="2309.0" x2="2341.0" y1="949.0" y2="949.0" /><line stroke="#333" stroke-width="10" x1="2309.0" x2="2309.0" y1="965.0" y2="949.0" /><line stroke="#999" stroke-width="3" x1="2373.0" x2="2341.0" y1="949.0" y2="949.0" /><line stroke="#333" stroke-width="10" x1="2405.0" x2="2373.0" y1="965.0" y2="965.0" /><line stroke="#333" stroke-width="10" x1="2405.0" x2="2405.0" y1="949.0" y2="965.0" /><line stroke="#333" stroke-width="10" x1="2373.0" x2="2405.0" y1="949.0" y2="949.0" /><line stroke="#333" stroke-width="10" x1="2373.0" x2="2373.0" y1="965.0" y2="949.0" /><line stroke="#999" stroke-width="3" x1="2437.0" x2="2405.0" y1="949.0" y2="949.0" /><line stroke="#999" stroke-width="3" x1="1797.0" x2="1669.0" y1="549.0" y2="549.0" /><line stroke="#999" stroke-width="3" x1="1669.0" x2="1669.0" y1="549.0" y2="485.0" /><line stroke="#999" stroke-width="3" x1="1797.0" x2="1861.0" y1="549.0" y2="549.0" /><line stroke="#999" stroke-width="3" x1="1861.0" x2="1861.0" y1="549.0" y2="485.0" /><line stroke="#999" stroke-width="3" x1="1797.0" x2="1797.0" y1="485.0" y2="549.0" /><line stroke="#999" stroke-width="3" x1="1925.0" x2="1925.0" y1="1189.0" y2="1253.0" /><line stroke="#999" stroke-width="3" x1="1797.0" x2="1925.0" y1="1189.0" y2="1189.0" /><line stroke="#999" stroke-width="3" x1="1797.0" x2="1797.0" y1="1253.0" y2="1189.0" /><line stroke="#999" stroke-width="3" x1="1797.0" x2="1733.0" y1="1189.0" y2="1189.0" /><line stroke="#999" stroke-width="3" x1="1733.0" x2="1733.0" y1="1189.0" y2="1253.0" /><line stroke="#999" stroke-width="3" x1="1125.0" x2="1157.0" y1="773.0" y2="773.0" /><line stroke="#999" stroke-width="3" x1="1157.0" x2="1157.0" y1="773.0" y2="485.0" /><line stroke="#999" stroke-width="3" x1="1125.0" x2="1125.0" y1="453.0" y2="773.0" /><line stroke="#999" stroke-width="3" x1="1157.0" x2="1157.0" y1="773.0" y2="789.0" /><line stroke="#999" stroke-width="3" x1="1157.0" x2="1605.0" y1="485.0" y2="485.0" /><line stroke="#999" stroke-width="3" x1="1605.0" x2="1125.0" y1="453.0" y2="453.0" /><line stroke="#333" stroke-width="10" x1="1669.0" x2="1605.0" y1="485.0" y2="485.0" /><line stroke="#333" stroke-width="10" x1="1605.0" x2="1925.0" y1="453.0" y2="453.0" /><line stroke="#333" stroke-width="10" x1="1605.0" x2="1605.0" y1="485.0" y2="453.0" /><line stroke="#333" stroke-width="10" x1="1925.0" x2="1861.0" y1="485.0" y2="485.0" /><line stroke="#333" stroke-width="10" x1="1797.0" x2="1669.0" y1="485.0" y2="485.0" /><line stroke="#999" stroke-width="3" x1="1925.0" x2="2437.0" y1="485.0" y2="485.0" /><line stroke="#999" stroke-width="3" x1="2469.0" x2="1925.0" y1="453.0" y2="453.0" /><line stroke="#333" stroke-width="10" x1="1925.0" x2="1925.0" y1="453.0" y2="485.0" /><line stroke="#999" stroke-width="3" x1="2437.0" x2="2469.0" y1="773.0" y2="773.0" /><line stroke="#999" stroke-width="3" x1="2469.0" x2="2469.0" y1="773.0" y2="565.0" /><line stroke="#999" stroke-width="3" x1="2437.0" x2="2437.0" y1="485.0" y2="773.0" /><line stroke="#999" stroke-width="3" x1="2469.0" x2="2437.0" y1="965.0" y2="965.0" /><line stroke="#999" stroke-width="3" x1="2469.0" x2="2469.0" y1="1285.0" y2="1189.0" /><line stroke="#999" stroke-width="3" x1="2437.0" x2="2437.0" y1="965.0" y2="1253.0" /><line stroke="#999" stroke-width="3" x1="2437.0" x2="2437.0" y1="965.0" y2="949.0" /><line stroke="#999" stroke-width="3" x1="1989.0" x2="2469.0" y1="1285.0" y2="1285.0" /><line stroke="#999" stroke-width="3" x1="2437.0" x2="1989.0" y1="1253.0" y2="1253.0" /><line stroke="#333" stroke-width="10" x1="1989.0" x2="1669.0" y1="1285.0" y2="1285.0" /><line stroke="#333" stroke-width="10" x1="1925.0" x2="1989.0" y1="1253.0" y2="1253.0" /><line stroke="#333" stroke-width="10" x1="1989.0" x2="1989.0" y1="1253.0" y2="1285.0" /><line stroke="#333" stroke-width="10" x1="1669.0" x2="1733.0" y1="1253.0" y2="1253.0" /><line stroke="#333" stroke-width="10" x1="1797.0" x2="1925.0" y1="1253.0" y2="1253.0" /><line stroke="#999" stroke-width="3" x1="1125.0" x2="1669.0" y1="1285.0" y2="1285.0" /><line stroke="#999" stroke-width="3" x1="1669.0" x2="1157.0" y1="1253.0" y2="1253.0" /><line stroke="#333" stroke-width="10" x1="1669.0" x2="1669.0" y1="1285.0" y2="1253.0" /><line stroke="#999" stroke-width="3" x1="1157.0" x2="1157.0" y1="1253.0" y2="965.0" /><line stroke="#999" stroke-width="3" x1="1157.0" x2="1125.0" y1="965.0" y2="965.0" /><line stroke="#999" stroke-width="3" x1="1125.0" x2="1125.0" y1="965.0" y2="1285.0" /><line stroke="#999" stroke-width="3" x1="1797.0" x2="1861.0" y1="485.0" y2="485.0" /><line stroke="#333" stroke-width="10" x1="1861.0" x2="1861.0" y1="485.0" y2="469.0" /><line stroke="#333" stroke-width="10" x1="1861.0" x2="1797.0" y1="469.0" y2="469.0" /><line stroke="#333" stroke-width="10" x1="1797.0" x2="1797.0" y1="469.0" y2="485.0" /><line stroke="#333" stroke-width="10" x1="1733.0" x2="1797.0" y1="1269.0" y2="1269.0" /><line stroke="#333" stroke-width="10" x1="1797.0" x2="1797.0" y1="1269.0" y2="1253.0" /><line stroke="#999" stroke-width="3" x1="1797.0" x2="1733.0" y1="1253.0" y2="1253.0" /><line stroke="#333" stroke-width="10" x1="1733.0" x2="1733.0" y1="1253.0" y2="1269.0" /><line stroke="#999" stroke-width="3" x1="1669.0" x2="1925.0" y1="997.0" y2="997.0" /><line stroke="#999" stroke-width="3" x1="1925.0" x2="1925.0" y1="997.0" y2="741.0" /><line stroke="#999" stroke-width="3" x1="1925.0" x2="1669.0" y1="741.0" y2="741.0" /><line stroke="#999" stroke-width="3" x1="1669.0" x2="1669.0" y1="741.0" y2="997.0" /><line stroke="#999" stroke-width="3" x1="1733.0" x2="1861.0" y1="933.0" y2="933.0" /><line stroke="#999" stroke-width="3" x1="1861.0" x2="1861.0" y1="933.0" y2="805.0" /><line stroke="#999" stroke-width="3" x1="1861.0" x2="1733.0" y1="805.0" y2="805.0" /><line stroke="#999" stroke-width="3" x1="1733.0" x2="1733.0" y1="805.0" y2="933.0" /><line stroke="#999" stroke-width="3" x1="1765.0" x2="1829.0" y1="901.0" y2="901.0" /><line stroke="#999" stroke-width="3" x1="1829.0" x2="1829.0" y1="901.0" y2="837.0" /><line stroke="#999" stroke-width="3" x1="1829.0" x2="1765.0" y1="837.0" y2="837.0" /><line stroke="#999" stroke-width="3" x1="1765.0" x2="1765.0" y1="837.0" y2="901.0" /><line stroke="#333" stroke-width="10" x1="2949.0" x2="2949.0" y1="549.0" y2="165.0" /><line stroke="#999" stroke-width="3" x1="2469.0" x2="2469.0" y1="549.0" y2="453.0" /><line stroke="#333" stroke-width="10" x1="2949.0" x2="2949.0" y1="1173.0" y2="933.0" /><line stroke="#999" stroke-width="3" x1="2469.0" x2="2469.0" y1="1173.0" y2="965.0" /><line stroke="#333" stroke-width="10" x1="2485.0" x2="2469.0" y1="565.0" y2="565.0" /><line stroke="#333" stroke-width="10" x1="2485.0" x2="2485.0" y1="549.0" y2="565.0" /><line stroke="#333" stroke-width="10" x1="2469.0" x2="2485.0" y1="549.0" y2="549.0" /><line stroke="#333" stroke-width="10" x1="2469.0" x2="2469.0" y1="565.0" y2="549.0" /><line stroke="#999" stroke-width="3" x1="2485.0" x2="2933.0" y1="565.0" y2="565.0" /><line stroke="#333" stroke-width="10" x1="2949.0" x2="2933.0" y1="565.0" y2="565.0" /><line stroke="#333" stroke-width="10" x1="2933.0" x2="2949.0" y1="549.0" y2="549.0" /><line stroke="#333" stroke-width="10" x1="2933.0" x2="2933.0" y1="565.0" y2="549.0" /><line stroke="#999" stroke-width="3" x1="2933.0" x2="2485.0" y1="549.0" y2="549.0" /><line stroke="#333" stroke-width="10" x1="2949.0" x2="2933.0" y1="1189.0" y2="1189.0" /><line stroke="#333" stroke-width="10" x1="2933.0" x2="2949.0" y1="1173.0" y2="1173.0" /><line stroke="#333" stroke-width="10" x1="2933.0" x2="2933.0" y1="1189.0" y2="1173.0" /><line stroke="#999" stroke-width="3" x1="2933.0" x2="2485.0" y1="1173.0" y2="1173.0" /><line stroke="#333" stroke-width="10" x1="2485.0" x2="2469.0" y1="1189.0" y2="1189.0" /><line stroke="#333" stroke-width="10" x1="2485.0" x2="2485.0" y1="1173.0" y2="1189.0" /><line stroke="#333" stroke-width="10" x1="2469.0" x2="2485.0" y1="1173.0" y2="1173.0" /><line stroke="#333" stroke-width="10" x1="2469.0" x2="2469.0" y1="1189.0" y2="1173.0" /><line stroke="#999" stroke-width="3" x1="2485.0" x2="2933.0" y1="1189.0" y2="1189.0" /><line stroke="#999" stroke-width="3" x1="2757.0" x2="2885.0" y1="165.0" y2="165.0" /><line stroke="#333" stroke-width="10" x1="2885.0" x2="2885.0" y1="165.0" y2="133.0" /><line stroke="#333" stroke-width="10" x1="2757.0" x2="2757.0" y1="133.0" y2="165.0" /><line stroke="#333" stroke-width="10" x1="2757.0" x2="2309.0" y1="165.0" y2="165.0" /><line stroke="#333" stroke-width="10" x1="2405.0" x2="2757.0" y1="133.0" y2="133.0" /><line stroke="#333" stroke-width="10" x1="3013.0" x2="2405.0" y1="5.0" y2="5.0" /><line stroke="#333" stroke-width="10" x1="3013.0" x2="3013.0" y1="133.0" y2="5.0" /><line stroke="#333" stroke-width="10" x1="2885.0" x2="3013.0" y1="133.0" y2="133.0" /><line stroke="#999" stroke-width="3" x1="2757.0" x2="2885.0" y1="133.0" y2="133.0" /><line stroke="#333" stroke-width="10" x1="1893.0" x2="2181.0" y1="133.0" y2="133.0" /><line stroke="#333" stroke-width="10" x1="2405.0" x2="1893.0" y1="5.0" y2="5.0" /><line stroke="#999" stroke-width="3" x1="2405.0" x2="2405.0" y1="133.0" y2="5.0" /><line stroke="#333" stroke-width="10" x1="1509.0" x2="1733.0" y1="133.0" y2="133.0" /><line stroke="#333" stroke-width="10" x1="1893.0" x2="1509.0" y1="5.0" y2="5.0" /><line stroke="#999" stroke-width="3" x1="1893.0" x2="1893.0" y1="133.0" y2="5.0" /><line stroke="#333" stroke-width="10" x1="1125.0" x2="1285.0" y1="133.0" y2="133.0" /><line stroke="#333" stroke-width="10" x1="1509.0" x2="1125.0" y1="5.0" y2="5.0" /><line stroke="#999" stroke-width="3" x1="1509.0" x2="1509.0" y1="133.0" y2="5.0" /><line stroke="#333" stroke-width="10" x1="517.0" x2="773.0" y1="133.0" y2="133.0" /><line stroke="#333" stroke-width="10" x1="517.0" x2="517.0" y1="5.0" y2="133.0" /><line stroke="#333" stroke-width="10" x1="1125.0" x2="517.0" y1="5.0" y2="5.0" /><line stroke="#999" stroke-width="3" x1="1125.0" x2="1125.0" y1="133.0" y2="5.0" /><line stroke="#999" stroke-width="3" x1="773.0" x2="997.0" y1="165.0" y2="165.0" /><line stroke="#333" stroke-width="10" x1="997.0" x2="997.0" y1="165.0" y2="133.0" /><line stroke="#999" stroke-width="3" x1="997.0" x2="773.0" y1="133.0" y2="133.0" /><line stroke="#333" stroke-width="10" x1="773.0" x2="773.0" y1="133.0" y2="165.0" /><line stroke="#333" stroke-width="10" x1="773.0" x2="645.0" y1="165.0" y2="165.0" /><line stroke="#333" stroke-width="10" x1="997.0" x2="1125.0" y1="133.0" y2="133.0" /><line stroke="#999" stroke-width="3" x1="1285.0" x2="1413.0" y1="165.0" y2="165.0" /><line stroke="#333" stroke-width="10" x1="1413.0" x2="1413.0" y1="165.0" y2="133.0" /><line stroke="#999" stroke-width="3" x1="1413.0" x2="1285.0" y1="133.0" y2="133.0" /><line stroke="#333" stroke-width="10" x1="1285.0" x2="1285.0" y1="133.0" y2="165.0" /><line stroke="#333" stroke-width="10" x1="1285.0" x2="997.0" y1="165.0" y2="165.0" /><line stroke="#333" stroke-width="10" x1="1413.0" x2="1509.0" y1="133.0" y2="133.0" /><line stroke="#999" stroke-width="3" x1="1733.0" x2="1861.0" y1="165.0" y2="165.0" /><line stroke="#333" stroke-width="10" x1="1861.0" x2="1861.0" y1="165.0" y2="133.0" /><line stroke="#999" stroke-width="3" x1="1861.0" x2="1733.0" y1="133.0" y2="133.0" /><line stroke="#333" stroke-width="10" x1="1733.0" x2="1733.0" y1="133.0" y2="165.0" /><line stroke="#333" stroke-width="10" x1="1733.0" x2="1413.0" y1="165.0" y2="165.0" /><line stroke="#333" stroke-width="10" x1="1861.0" x2="1893.0" y1="133.0" y2="133.0" /><line stroke="#999" stroke-width="3" x1="2181.0" x2="2309.0" y1="165.0" y2="165.0" /><line stroke="#333" stroke-width="10" x1="2309.0" x2="2309.0" y1="165.0" y2="133.0" /><line stroke="#999" stroke-width="3" x1="2309.0" x2="2181.0" y1="133.0" y2="133.0" /><line stroke="#333" stroke-width="10" x1="2181.0" x2="2181.0" y1="133.0" y2="165.0" /><line stroke="#333" stroke-width="10" x1="2181.0" x2="1861.0" y1="165.0" y2="165.0" /><line stroke="#333" stroke-width="10" x1="2309.0" x2="2405.0" y1="133.0" y2="133.0" /><line stroke="#333" stroke-width="10" x1="453.0" x2="453.0" y1="165.0" y2="293.0" /><line stroke="#333" stroke-width="10" x1="645.0" x2="453.0" y1="165.0" y2="165.0" /><line stroke="#999" stroke-width="3" x1="645.0" x2="645.0" y1="293.0" y2="165.0" /><line stroke="#333" stroke-width="10" x1="645.0" x2="645.0" y1="293.0" y2="1445.0" /><line stroke="#333" stroke-width="10" x1="453.0" x2="645.0" y1="1573.0" y2="1573.0" /><line stroke="#333" stroke-width="10" x1="453.0" x2="453.0" y1="1445.0" y2="1573.0" /><line stroke="#333" stroke-width="10" x1="645.0" x2="581.0" y1="1445.0" y2="1445.0" /><line stroke="#999" stroke-width="3" x1="645.0" x2="645.0" y1="1573.0" y2="1445.0" /><line stroke="#999" stroke-width="3" x1="453.0" x2="581.0" y1="1445.0" y2="1445.0" /><line stroke="#333" stroke-width="10" x1="581.0" x2="581.0" y1="1445.0" y2="1029.0" /><line stroke="#333" stroke-width="10" x1="453.0" x2="453.0" y1="1029.0" y2="1445.0" /><line stroke="#999" stroke-width="3" x1="453.0" x2="581.0" y1="1029.0" y2="1029.0" /><line stroke="#333" stroke-width="10" x1="581.0" x2="581.0" y1="1029.0" y2="709.0" /><line stroke="#333" stroke-width="10" x1="453.0" x2="453.0" y1="709.0" y2="773.0" /><line stroke="#999" stroke-width="3" x1="453.0" x2="581.0" y1="709.0" y2="709.0" /><line stroke="#333" stroke-width="10" x1="581.0" x2="581.0" y1="709.0" y2="293.0" /><line stroke="#999" stroke-width="3" x1="581.0" x2="453.0" y1="293.0" y2="293.0" /><line stroke="#333" stroke-width="10" x1="453.0" x2="453.0" y1="293.0" y2="709.0" /><line stroke="#333" stroke-width="10" x1="581.0" x2="645.0" y1="293.0" y2="293.0" /><line stroke="#333" stroke-width="10" x1="261.0" x2="453.0" y1="965.0" y2="965.0" /><line stroke="#333" stroke-width="10" x1="453.0" x2="261.0" y1="773.0" y2="773.0" /><line stroke="#999" stroke-width="3" x1="453.0" x2="453.0" y1="965.0" y2="773.0" /><line stroke="#333" stroke-width="10" x1="453.0" x2="453.0" y1="965.0" y2="1029.0" /><line stroke="#333" stroke-width="10" x1="5.0" x2="261.0" y1="965.0" y2="965.0" /><line stroke="#333" stroke-width="10" x1="5.0" x2="5.0" y1="773.0" y2="965.0" /><line stroke="#333" stroke-width="10" x1="261.0" x2="5.0" y1="773.0" y2="773.0" /><line stroke="#999" stroke-width="3" x1="261.0" x2="261.0" y1="965.0" y2="773.0" /><line stroke="#333" stroke-width="10" x1="2949.0" x2="3077.0" y1="933.0" y2="933.0" /><line stroke="#333" stroke-width="10" x1="3077.0" x2="2949.0" y1="805.0" y2="805.0" /><line stroke="#999" stroke-width="3" x1="2949.0" x2="2949.0" y1="805.0" y2="933.0" /><line stroke="#333" stroke-width="10" x1="2949.0" x2="2949.0" y1="805.0" y2="565.0" /><line stroke="#333" stroke-width="10" x1="3077.0" x2="3109.0" y1="933.0" y2="933.0" /><line stroke="#333" stroke-width="10" x1="3109.0" x2="3077.0" y1="805.0" y2="805.0" /><line stroke="#666" stroke-width="20" x1="3077.0" x2="3077.0" y1="933.0" y2="805.0" /><line stroke="#333" stroke-width="10" x1="3109.0" x2="4517.0" y1="933.0" y2="933.0" /><line stroke="#0d0" stroke-width="20" x1="4517.0" x2="4517.0" y1="933.0" y2="805.0" /><line stroke="#333" stroke-width="10" x1="4517.0" x2="3109.0" y1="805.0" y2="805.0" /><line stroke="#666" stroke-width="20" x1="3109.0" x2="3109.0" y1="805.0" y2="933.0" /><rect fill="#900" height="48" stroke="#900" stroke-width="5" transform="rotate(315,1221.0,1189.0)" width="32" x="1205.0" y="1165.0" /><rect fill="#900" height="48" stroke="#900" stroke-width="5" transform="rotate(225,2565.0,613.0)" width="32" x="2549.0" y="589.0" /><rect fill="#900" height="48" stroke="#900" stroke-width="5" transform="rotate(180,2341.0,869.0)" width="32" x="2325.0" y="845.0" /><circle cx="1829.0" cy="517.0" fill="#009" r="16" stroke="#009" stroke-width="5" /><circle cx="1765.0" cy="1221.0" fill="#009" r="16" stroke="#009" stroke-width="5" /><circle cx="1797.0" cy="869.0" fill="#900" r="16" stroke="#900" stroke-width="5" /><rect fill="#900" height="48" stroke="#900" stroke-width="5" transform="rotate(45,677.0,69.0)" width="32" x="661.0" y="45.0" /><rect fill="#900" height="48" stroke="#900" stroke-width="5" transform="rotate(45,741.0,101.0)" width="32" x="725.0" y="77.0" /><rect fill="#900" height="48" stroke="#900" stroke-width="5" transform="rotate(45,741.0,37.0)" width="32" x="725.0" y="13.0" /><rect fill="#900" height="48" stroke="#900" stroke-width="5" transform="rotate(90,837.0,101.0)" width="32" x="821.0" y="77.0" /><rect fill="#900" height="48" stroke="#900" stroke-width="5" transform="rotate(90,901.0,101.0)" width="32" x="885.0" y="77.0" /><rect fill="#900" height="48" stroke="#900" stroke-width="5" transform="rotate(90,837.0,37.0)" width="32" x="821.0" y="13.0" /><rect fill="#900" height="48" stroke="#900" stroke-width="5" transform="rotate(90,901.0,37.0)" width="32" x="885.0" y="13.0" /><rect fill="#900" height="48" stroke="#900" stroke-width="5" transform="rotate(135,997.0,101.0)" width="32" x="981.0" y="77.0" /><rect fill="#900" height="48" stroke="#900" stroke-width="5" transform="rotate(135,997.0,37.0)" width="32" x="981.0" y="13.0" /><rect fill="#900" height="48" stroke="#900" stroke-width="5" transform="rotate(135,1061.0,69.0)" width="32" x="1045.0" y="45.0" /><rect fill="#900" height="48" stroke="#900" stroke-width="5" transform="rotate(90,1765.0,101.0)" width="32" x="1749.0" y="77.0" /><rect fill="#900" height="48" stroke="#900" stroke-width="5" transform="rotate(90,1829.0,101.0)" width="32" x="1813.0" y="77.0" /><rect fill="#900" height="48" stroke="#900" stroke-width="5" transform="rotate(90,1765.0,37.0)" width="32" x="1749.0" y="13.0" /><rect fill="#900" height="48" stroke="#900" stroke-width="5" transform="rotate(90,1829.0,37.0)" width="32" x="1813.0" y="13.0" /><rect fill="#900" height="48" stroke="#900" stroke-width="5" transform="rotate(90,1317.0,101.0)" width="32" x="1301.0" y="77.0" /><rect fill="#900" height="48" stroke="#900" stroke-width="5" transform="rotate(90,1381.0,101.0)" width="32" x="1365.0" y="77.0" /><rect fill="#900" height="48" stroke="#900" stroke-width="5" transform="rotate(90,1317.0,37.0)" width="32" x="1301.0" y="13.0" /><rect fill="#900" height="48" stroke="#900" stroke-width="5" transform="rotate(90,1381.0,37.0)" width="32" x="1365.0" y="13.0" /><rect fill="#900" height="48" stroke="#900" stroke-width="5" transform="rotate(90,2213.0,101.0)" width="32" x="2197.0" y="77.0" /><rect fill="#900" height="48" stroke="#900" stroke-width="5" transform="rotate(90,2277.0,101.0)" width="32" x="2261.0" y="77.0" /><rect fill="#900" height="48" stroke="#900" stroke-width="5" transform="rotate(90,2213.0,37.0)" width="32" x="2197.0" y="13.0" /><rect fill="#900" height="48" stroke="#900" stroke-width="5" transform="rotate(90,2277.0,37.0)" width="32" x="2261.0" y="13.0" /><rect fill="#900" height="48" stroke="#900" stroke-width="5" transform="rotate(90,2789.0,101.0)" width="32" x="2773.0" y="77.0" /><rect fill="#900" height="48" stroke="#900" stroke-width="5" transform="rotate(90,2853.0,101.0)" width="32" x="2837.0" y="77.0" /><rect fill="#900" height="48" stroke="#900" stroke-width="5" transform="rotate(90,2789.0,37.0)" width="32" x="2773.0" y="13.0" /><rect fill="#900" height="48" stroke="#900" stroke-width="5" transform="rotate(90,2853.0,37.0)" width="32" x="2837.0" y="13.0" /><rect fill="#900" height="48" stroke="#900" stroke-width="5" transform="rotate(45,1189.0,69.0)" width="32" x="1173.0" y="45.0" /><rect fill="#900" height="48" stroke="#900" stroke-width="5" transform="rotate(45,1253.0,101.0)" width="32" x="1237.0" y="77.0" /><rect fill="#900" height="48" stroke="#900" stroke-width="5" transform="rotate(45,1253.0,37.0)" width="32" x="1237.0" y="13.0" /><rect fill="#900" height="48" stroke="#900" stroke-width="5" transform="rotate(45,1637.0,69.0)" width="32" x="1621.0" y="45.0" /><rect fill="#900" height="48" stroke="#900" stroke-width="5" transform="rotate(45,1701.0,101.0)" width="32" x="1685.0" y="77.0" /><rect fill="#900" height="48" stroke="#900" stroke-width="5" transform="rotate(45,1701.0,37.0)" width="32" x="1685.0" y="13.0" /><rect fill="#900" height="48" stroke="#900" stroke-width="5" transform="rotate(45,2085.0,69.0)" width="32" x="2069.0" y="45.0" /><rect fill="#900" height="48" stroke="#900" stroke-width="5" transform="rotate(45,2149.0,101.0)" width="32" x="2133.0" y="77.0" /><rect fill="#900" height="48" stroke="#900" stroke-width="5" transform="rotate(45,2149.0,37.0)" width="32" x="2133.0" y="13.0" /><rect fill="#900" height="48" stroke="#900" stroke-width="5" transform="rotate(45,2661.0,69.0)" width="32" x="2645.0" y="45.0" /><rect fill="#900" height="48" stroke="#900" stroke-width="5" transform="rotate(45,2725.0,101.0)" width="32" x="2709.0" y="77.0" /><rect fill="#900" height="48" stroke="#900" stroke-width="5" transform="rotate(45,2725.0,37.0)" width="32" x="2709.0" y="13.0" /><rect fill="#900" height="48" stroke="#900" stroke-width="5" transform="rotate(135,2949.0,69.0)" width="32" x="2933.0" y="45.0" /><rect fill="#900" height="48" stroke="#900" stroke-width="5" transform="rotate(135,2565.0,1093.0)" width="32" x="2549.0" y="1069.0" /><rect fill="#900" height="48" stroke="#900" stroke-width="5" transform="rotate(45,2821.0,965.0)" width="32" x="2805.0" y="941.0" /><rect fill="#900" height="48" stroke="#900" stroke-width="5" transform="rotate(315,2821.0,805.0)" width="32" x="2805.0" y="781.0" /><rect fill="#900" height="48" stroke="#900" stroke-width="5" transform="rotate(180,2405.0,901.0)" width="32" x="2389.0" y="877.0" /><rect fill="#900" height="48" stroke="#900" stroke-width="5" transform="rotate(180,2405.0,837.0)" width="32" x="2389.0" y="813.0" /><rect fill="#900" height="48" stroke="#900" stroke-width="5" transform="rotate(45,1221.0,549.0)" width="32" x="1205.0" y="525.0" /><rect fill="#900" height="48" stroke="#900" stroke-width="5" transform="rotate(225,2373.0,1189.0)" width="32" x="2357.0" y="1165.0" /><rect fill="#900" height="48" stroke="#900" stroke-width="5" transform="rotate(135,2373.0,549.0)" width="32" x="2357.0" y="525.0" /><rect fill="#900" height="48" stroke="#900" stroke-width="5" transform="rotate(0,549.0,101.0)" width="32" x="533.0" y="77.0" /><rect fill="#900" height="48" stroke="#900" stroke-width="5" transform="rotate(0,549.0,37.0)" width="32" x="533.0" y="13.0" /><ellipse cx="69.0" cy="933.0" fill="#009" rx="12" ry="24" stroke="#009" stroke-width="5" /><ellipse cx="133.0" cy="901.0" fill="#009" rx="12" ry="24" stroke="#009" stroke-width="5" /><ellipse cx="133.0" cy="837.0" fill="#009" rx="12" ry="24" stroke="#009" stroke-width="5" /><ellipse cx="69.0" cy="805.0" fill="#009" rx="12" ry="24" stroke="#009" stroke-width="5" /><rect fill="#090" height="24" stroke="#090" stroke-width="5" transform="rotate(0,901.0,933.0)" width="24" x="889.0" y="921.0" /><rect fill="#090" height="24" stroke="#090" stroke-width="5" transform="rotate(0,901.0,805.0)" width="24" x="889.0" y="793.0" /><rect fill="#090" height="24" stroke="#090" stroke-width="5" transform="rotate(0,901.0,613.0)" width="24" x="889.0" y="601.0" /><rect fill="#090" height="24" stroke="#090" stroke-width="5" transform="rotate(0,965.0,357.0)" width="24" x="953.0" y="345.0" /><circle cx="293.0" cy="933.0" fill="#900" r="16" stroke="#900" stroke-width="5" /><circle cx="357.0" cy="869.0" fill="#900" r="16" stroke="#900" stroke-width="5" /><circle cx="293.0" cy="805.0" fill="#900" r="16" stroke="#900" stroke-width="5" /><circle cx="421.0" cy="869.0" fill="#090" r="16" stroke="#090" stroke-width="5" /><circle cx="293.0" cy="869.0" fill="#090" r="16" stroke="#090" stroke-width="5" /><circle cx="485.0" cy="1061.0" fill="#090" r="16" stroke="#090" stroke-width="5" /><circle cx="485.0" cy="1125.0" fill="#090" r="16" stroke="#090" stroke-width="5" /><circle cx="549.0" cy="1221.0" fill="#090" r="16" stroke="#090" stroke-width="5" /><circle cx="549.0" cy="1285.0" fill="#090" r="16" stroke="#090" stroke-width="5" /><circle cx="485.0" cy="1349.0" fill="#090" r="16" stroke="#090" stroke-width="5" /><circle cx="485.0" cy="1413.0" fill="#090" r="16" stroke="#090" stroke-width="5" /><circle cx="485.0" cy="325.0" fill="#090" r="16" stroke="#090" stroke-width="5" /><circle cx="485.0" cy="389.0" fill="#090" r="16" stroke="#090" stroke-width="5" /><circle cx="549.0" cy="485.0" fill="#090" r="16" stroke="#090" stroke-width="5" /><circle cx="549.0" cy="549.0" fill="#090" r="16" stroke="#090" stroke-width="5" /><circle cx="485.0" cy="613.0" fill="#090" r="16" stroke="#090" stroke-width="5" /><circle cx="485.0" cy="677.0" fill="#090" r="16" stroke="#090" stroke-width="5" /><circle cx="549.0" cy="741.0" fill="#090" r="16" stroke="#090" stroke-width="5" /><circle cx="485.0" cy="741.0" fill="#090" r="16" stroke="#090" stroke-width="5" /><circle cx="485.0" cy="869.0" fill="#090" r="16" stroke="#090" stroke-width="5" /><circle cx="549.0" cy="997.0" fill="#090" r="16" stroke="#090" stroke-width="5" /><circle cx="485.0" cy="997.0" fill="#090" r="16" stroke="#090" stroke-width="5" /><circle cx="549.0" cy="1061.0" fill="#090" r="16" stroke="#090" stroke-width="5" /><circle cx="549.0" cy="869.0" fill="#090" r="16" stroke="#090" stroke-width="5" /><circle cx="677.0" cy="661.0" fill="#090" r="16" stroke="#090" stroke-width="5" /><circle cx="677.0" cy="725.0" fill="#090" r="16" stroke="#090" stroke-width="5" /><circle cx="741.0" cy="821.0" fill="#090" r="16" stroke="#090" stroke-width="5" /><circle cx="741.0" cy="885.0" fill="#090" r="16" stroke="#090" stroke-width="5" /><circle cx="677.0" cy="949.0" fill="#090" r="16" stroke="#090" stroke-width="5" /><circle cx="677.0" cy="1013.0" fill="#090" r="16" stroke="#090" stroke-width="5" /><circle cx="2853.0" cy="677.0" fill="#090" r="16" stroke="#090" stroke-width="5" /><circle cx="2853.0" cy="741.0" fill="#090" r="16" stroke="#090" stroke-width="5" /><circle cx="2917.0" cy="837.0" fill="#090" r="16" stroke="#090" stroke-width="5" /><circle cx="2917.0" cy="901.0" fill="#090" r="16" stroke="#090" stroke-width="5" /><circle cx="2853.0" cy="965.0" fill="#090" r="16" stroke="#090" stroke-width="5" /><circle cx="2853.0" cy="1029.0" fill="#090" r="16" stroke="#090" stroke-width="5" /><rect fill="#900" height="48" stroke="#900" stroke-width="5" transform="rotate(180,2405.0,1445.0)" width="32" x="2389.0" y="1421.0" /><rect fill="#900" height="48" stroke="#900" stroke-width="5" transform="rotate(135,2693.0,1285.0)" width="32" x="2677.0" y="1261.0" /><rect fill="#900" height="48" stroke="#900" stroke-width="5" transform="rotate(90,1957.0,101.0)" width="32" x="1941.0" y="77.0" /><rect fill="#900" height="48" stroke="#900" stroke-width="5" transform="rotate(90,2021.0,101.0)" width="32" x="2005.0" y="77.0" /><rect fill="#900" height="48" stroke="#900" stroke-width="5" transform="rotate(90,1957.0,37.0)" width="32" x="1941.0" y="13.0" /><rect fill="#900" height="48" stroke="#900" stroke-width="5" transform="rotate(90,2021.0,37.0)" width="32" x="2005.0" y="13.0" /><rect fill="#900" height="48" stroke="#900" stroke-width="5" transform="rotate(45,1893.0,101.0)" width="32" x="1877.0" y="77.0" /><rect fill="#900" height="48" stroke="#900" stroke-width="5" transform="rotate(45,1893.0,37.0)" width="32" x="1877.0" y="13.0" /><rect fill="#900" height="48" stroke="#900" stroke-width="5" transform="rotate(90,1509.0,101.0)" width="32" x="1493.0" y="77.0" /><rect fill="#900" height="48" stroke="#900" stroke-width="5" transform="rotate(90,1573.0,101.0)" width="32" x="1557.0" y="77.0" /><rect fill="#900" height="48" stroke="#900" stroke-width="5" transform="rotate(90,1509.0,37.0)" width="32" x="1493.0" y="13.0" /><rect fill="#900" height="48" stroke="#900" stroke-width="5" transform="rotate(90,1573.0,37.0)" width="32" x="1557.0" y="13.0" /><rect fill="#900" height="48" stroke="#900" stroke-width="5" transform="rotate(45,1445.0,101.0)" width="32" x="1429.0" y="77.0" /><rect fill="#900" height="48" stroke="#900" stroke-width="5" transform="rotate(45,1445.0,37.0)" width="32" x="1429.0" y="13.0" /><rect fill="#900" height="48" stroke="#900" stroke-width="5" transform="rotate(90,2469.0,101.0)" width="32" x="2453.0" y="77.0" /><rect fill="#900" height="48" stroke="#900" stroke-width="5" transform="rotate(90,2533.0,101.0)" width="32" x="2517.0" y="77.0" /><rect fill="#900" height="48" stroke="#900" stroke-width="5" transform="rotate(90,2469.0,37.0)" width="32" x="2453.0" y="13.0" /><rect fill="#900" height="48" stroke="#900" stroke-width="5" transform="rotate(90,2533.0,37.0)" width="32" x="2517.0" y="13.0" /><rect fill="#900" height="48" stroke="#900" stroke-width="5" transform="rotate(45,2405.0,101.0)" width="32" x="2389.0" y="77.0" /><rect fill="#900" height="48" stroke="#900" stroke-width="5" transform="rotate(45,2405.0,37.0)" width="32" x="2389.0" y="13.0" /><rect fill="#900" height="48" stroke="#900" stroke-width="5" transform="rotate(90,3429.0,901.0)" width="32" x="3413.0" y="877.0" /><rect fill="#900" height="48" stroke="#900" stroke-width="5" transform="rotate(90,3493.0,901.0)" width="32" x="3477.0" y="877.0" /><rect fill="#900" height="48" stroke="#900" stroke-width="5" transform="rotate(90,3429.0,837.0)" width="32" x="3413.0" y="813.0" /><rect fill="#900" height="48" stroke="#900" stroke-width="5" transform="rotate(90,3493.0,837.0)" width="32" x="3477.0" y="813.0" /><rect fill="#900" height="48" stroke="#900" stroke-width="5" transform="rotate(45,3365.0,901.0)" width="32" x="3349.0" y="877.0" /><rect fill="#900" height="48" stroke="#900" stroke-width="5" transform="rotate(45,3365.0,837.0)" width="32" x="3349.0" y="813.0" /><rect fill="#900" height="48" stroke="#900" stroke-width="5" transform="rotate(90,3653.0,901.0)" width="32" x="3637.0" y="877.0" /><rect fill="#900" height="48" stroke="#900" stroke-width="5" transform="rotate(90,3717.0,901.0)" width="32" x="3701.0" y="877.0" /><rect fill="#900" height="48" stroke="#900" stroke-width="5" transform="rotate(90,3653.0,837.0)" width="32" x="3637.0" y="813.0" /><rect fill="#900" height="48" stroke="#900" stroke-width="5" transform="rotate(90,3717.0,837.0)" width="32" x="3701.0" y="813.0" /><rect fill="#900" height="48" stroke="#900" stroke-width="5" transform="rotate(45,3589.0,901.0)" width="32" x="3573.0" y="877.0" /><rect fill="#900" height="48" stroke="#900" stroke-width="5" transform="rotate(45,3589.0,837.0)" width="32" x="3573.0" y="813.0" /><rect fill="#900" height="48" stroke="#900" stroke-width="5" transform="rotate(90,3941.0,901.0)" width="32" x="3925.0" y="877.0" /><rect fill="#900" height="48" stroke="#900" stroke-width="5" transform="rotate(90,4005.0,901.0)" width="32" x="3989.0" y="877.0" /><rect fill="#900" height="48" stroke="#900" stroke-width="5" transform="rotate(90,3941.0,837.0)" width="32" x="3925.0" y="813.0" /><rect fill="#900" height="48" stroke="#900" stroke-width="5" transform="rotate(90,4005.0,837.0)" width="32" x="3989.0" y="813.0" /><rect fill="#900" height="48" stroke="#900" stroke-width="5" transform="rotate(45,3877.0,901.0)" width="32" x="3861.0" y="877.0" /><rect fill="#900" height="48" stroke="#900" stroke-width="5" transform="rotate(45,3877.0,837.0)" width="32" x="3861.0" y="813.0" /><circle cx="2501.0" cy="1221.0" fill="#009" r="16" stroke="#009" stroke-width="5" /><circle cx="2501.0" cy="517.0" fill="#009" r="16" stroke="#009" stroke-width="5" /><circle cx="2917.0" cy="517.0" fill="#009" r="16" stroke="#009" stroke-width="5" /><circle cx="2917.0" cy="1221.0" fill="#009" r="16" stroke="#009" stroke-width="5" /><rect fill="#900" height="48" stroke="#900" stroke-width="5" transform="rotate(180,2821.0,1477.0)" width="32" x="2805.0" y="1453.0" /><rect fill="#900" height="48" stroke="#900" stroke-width="5" transform="rotate(225,2757.0,709.0)" width="32" x="2741.0" y="685.0" /><rect fill="#900" height="48" stroke="#900" stroke-width="5" transform="rotate(135,2757.0,1029.0)" width="32" x="2741.0" y="1005.0" /><rect fill="#900" height="48" stroke="#900" stroke-width="5" transform="rotate(225,2629.0,805.0)" width="32" x="2613.0" y="781.0" /><rect fill="#900" height="48" stroke="#900" stroke-width="5" transform="rotate(135,2629.0,933.0)" width="32" x="2613.0" y="909.0" /><rect fill="#900" height="48" stroke="#900" stroke-width="5" transform="rotate(90,1765.0,517.0)" width="32" x="1749.0" y="493.0" /><rect fill="#900" height="48" stroke="#900" stroke-width="5" transform="rotate(270,1829.0,1221.0)" width="32" x="1813.0" y="1197.0" /><circle cx="1381.0" cy="693.0" fill="#090" r="16" stroke="#090" stroke-width="5" /><circle cx="1381.0" cy="757.0" fill="#090" r="16" stroke="#090" stroke-width="5" /><circle cx="1445.0" cy="853.0" fill="#090" r="16" stroke="#090" stroke-width="5" /><circle cx="1445.0" cy="917.0" fill="#090" r="16" stroke="#090" stroke-width="5" /><circle cx="1381.0" cy="981.0" fill="#090" r="16" stroke="#090" stroke-width="5" /><circle cx="1381.0" cy="1045.0" fill="#090" r="16" stroke="#090" stroke-width="5" /></svg>