<?xml version="1.0" encoding="utf-8" ?>
<svg baseProfile="tiny" height="964" version="1.2" viewBox="0 0 554 522" width="1024" xmlns="http://www.w3.org/2000/svg" xmlns:ev="http://www.w3.org/2001/xml-events" xmlns:xlink="http://www.w3.org/1999/xlink"><defs /><line stroke="#666" stroke-width="20" x1="117.0" x2="117.0" y1="181.0" y2="341.0" /><line stroke="#d00" stroke-width="20" x1="149.0" x2="405.0" y1="373.0" y2="373.0" /><line stroke="#666" stroke-width="20" x1="437.0" x2="437.0" y1="341.0" y2="181.0" /><line stroke="#d00" stroke-width="20" x1="405.0" x2="149.0" y1="149.0" y2="149.0" /><line stroke="#333" stroke-width="10" x1="149.0" x2="149.0" y1="133.0" y2="149.0" /><line stroke="#333" stroke-width="10" x1="149.0" x2="117.0" y1="149.0" y2="181.0" /><line stroke="#333" stroke-width="10" x1="405.0" x2="405.0" y1="149.0" y2="133.0" /><line stroke="#333" stroke-width="10" x1="405.0" x2="357.0" y1="53.0" y2="21.0" /><line stroke="#333" stroke-width="10" x1="437.0" x2="405.0" y1="181.0" y2="149.0" /><line stroke="#333" stroke-width="10" x1="437.0" x2="453.0" y1="341.0" y2="341.0" /><line stroke="#333" stroke-width="10" x1="533.0" x2="549.0" y1="341.0" y2="293.0" /><line stroke="#333" stroke-width="10" x1="453.0" x2="437.0" y1="181.0" y2="181.0" /><line stroke="#333" stroke-width="10" x1="149.0" x2="149.0" y1="373.0" y2="389.0" /><line stroke="#333" stroke-width="10" x1="149.0" x2="197.0" y1="469.0" y2="501.0" /><line stroke="#333" stroke-width="10" x1="405.0" x2="405.0" y1="389.0" y2="373.0" /><line stroke="#333" stroke-width="10" x1="405.0" x2="437.0" y1="373.0" y2="341.0" /><line stroke="#333" stroke-width="10" x1="21.0" x2="5.0" y1="181.0" y2="229.0" /><line stroke="#333" stroke-width="10" x1="101.0" x2="117.0" y1="341.0" y2="341.0" /><line stroke="#333" stroke-width="10" x1="117.0" x2="149.0" y1="341.0" y2="373.0" /><line stroke="#333" stroke-width="10" x1="117.0" x2="101.0" y1="181.0" y2="181.0" /><line stroke="#333" stroke-width="10" x1="453.0" x2="533.0" y1="341.0" y2="341.0" /><line stroke="#666" stroke-width="20" x1="453.0" x2="453.0" y1="181.0" y2="341.0" /><line stroke="#333" stroke-width="10" x1="533.0" x2="453.0" y1="181.0" y2="181.0" /><line stroke="#333" stroke-width="10" x1="149.0" x2="149.0" y1="53.0" y2="133.0" /><line stroke="#333" stroke-width="10" x1="405.0" x2="405.0" y1="133.0" y2="53.0" /><line stroke="#d00" stroke-width="20" x1="149.0" x2="405.0" y1="133.0" y2="133.0" /><line stroke="#666" stroke-width="20" x1="101.0" x2="101.0" y1="341.0" y2="181.0" /><line stroke="#333" stroke-width="10" x1="21.0" x2="101.0" y1="341.0" y2="341.0" /><line stroke="#333" stroke-width="10" x1="101.0" x2="21.0" y1="181.0" y2="181.0" /><line stroke="#333" stroke-width="10" x1="149.0" x2="149.0" y1="389.0" y2="469.0" /><line stroke="#d00" stroke-width="20" x1="405.0" x2="149.0" y1="389.0" y2="389.0" /><line stroke="#333" stroke-width="10" x1="405.0" x2="405.0" y1="469.0" y2="389.0" /><line stroke="#333" stroke-width="10" x1="277.0" x2="357.0" y1="517.0" y2="501.0" /><line stroke="#333" stroke-width="10" x1="277.0" x2="197.0" y1="5.0" y2="21.0" /><line stroke="#333" stroke-width="10" x1="533.0" x2="549.0" y1="261.0" y2="229.0" /><line stroke="#333" stroke-width="10" x1="549.0" x2="533.0" y1="229.0" y2="181.0" /><line stroke="#333" stroke-width="10" x1="549.0" x2="533.0" y1="293.0" y2="261.0" /><line stroke="#333" stroke-width="10" x1="21.0" x2="5.0" y1="261.0" y2="293.0" /><line stroke="#333" stroke-width="10" x1="5.0" x2="21.0" y1="293.0" y2="341.0" /><line stroke="#333" stroke-width="10" x1="5.0" x2="21.0" y1="229.0" y2="261.0" /><line stroke="#333" stroke-width="10" x1="197.0" x2="277.0" y1="501.0" y2="517.0" /><line stroke="#333" stroke-width="10" x1="357.0" x2="405.0" y1="501.0" y2="469.0" /><line stroke="#333" stroke-width="10" x1="357.0" x2="277.0" y1="21.0" y2="5.0" /><line stroke="#333" stroke-width="10" x1="197.0" x2="149.0" y1="21.0" y2="53.0" /><rect fill="#900" height="48" stroke="#900" stroke-width="5" transform="rotate(0,181.0,261.0)" width="32" x="165.0" y="237.0" /><rect fill="#900" height="48" stroke="#900" stroke-width="5" transform="rotate(0,181.0,325.0)" width="32" x="165.0" y="301.0" /><rect fill="#900" height="48" stroke="#900" stroke-width="5" transform="rotate(0,373.0,197.0)" width="32" x="357.0" y="173.0" /><rect fill="#900" height="48" stroke="#900" stroke-width="5" transform="rotate(0,373.0,261.0)" width="32" x="357.0" y="237.0" /><rect fill="#900" height="48" stroke="#900" stroke-width="5" transform="rotate(0,373.0,325.0)" width="32" x="357.0" y="301.0" /><rect fill="#900" height="48" stroke="#900" stroke-width="5" transform="rotate(0,181.0,197.0)" width="32" x="165.0" y="173.0" /><rect fill="#900" height="48" stroke="#900" stroke-width="5" transform="rotate(0,277.0,325.0)" width="32" x="261.0" y="301.0" /><rect fill="#900" height="48" stroke="#900" stroke-width="5" transform="rotate(0,277.0,197.0)" width="32" x="261.0" y="173.0" /><rect fill="#900" height="48" stroke="#900" stroke-width="5" transform="rotate(0,277.0,261.0)" width="32" x="261.0" y="237.0" /><ellipse cx="485.0" cy="213.0" fill="#009" rx="12" ry="24" stroke="#009" stroke-width="5" /><ellipse cx="53.0" cy="213.0" fill="#009" rx="12" ry="24" stroke="#009" stroke-width="5" /><circle cx="53.0" cy="309.0" fill="#900" r="16" stroke="#900" stroke-width="5" /><circle cx="485.0" cy="309.0" fill="#900" r="16" stroke="#900" stroke-width="5" /><ellipse cx="53.0" cy="261.0" fill="#090" rx="12" ry="24" stroke="#090" stroke-width="5" /><ellipse cx="485.0" cy="261.0" fill="#090" rx="12" ry="24" stroke="#090" stroke-width="5" /><circle cx="277.0" cy="437.0" fill="#900" r="16" stroke="#900" stroke-width="5" /><circle cx="277.0" cy="85.0" fill="#900" r="16" stroke="#900" stroke-width="5" /></svg>