<?xml version="1.0" encoding="utf-8" ?>
<svg baseProfile="tiny" height="839" version="1.2" viewBox="0 0 1218 998" width="1024" xmlns="http://www.w3.org/2000/svg" xmlns:ev="http://www.w3.org/2001/xml-events" xmlns:xlink="http://www.w3.org/1999/xlink"><defs /><line stroke="#333" stroke-width="10" x1="457.0" x2="457.0" y1="93.0" y2="157.0" /><line stroke="#333" stroke-width="10" x1="457.0" x2="521.0" y1="285.0" y2="285.0" /><line stroke="#333" stroke-width="10" x1="713.0" x2="713.0" y1="285.0" y2="221.0" /><line stroke="#333" stroke-width="10" x1="713.0" x2="597.0" y1="93.0" y2="93.0" /><line stroke="#333" stroke-width="10" x1="417.0" x2="457.0" y1="221.0" y2="221.0" /><line stroke="#333" stroke-width="10" x1="457.0" x2="438.0" y1="157.0" y2="149.0" /><line stroke="#333" stroke-width="10" x1="429.0" x2="361.0" y1="5.0" y2="5.0" /><line stroke="#333" stroke-width="10" x1="457.0" x2="457.0" y1="221.0" y2="285.0" /><line stroke="#999" stroke-width="3" x1="457.0" x2="457.0" y1="157.0" y2="221.0" /><line stroke="#999" stroke-width="3" x1="417.0" x2="438.0" y1="221.0" y2="149.0" /><line stroke="#333" stroke-width="10" x1="438.0" x2="429.0" y1="149.0" y2="137.0" /><line stroke="#333" stroke-width="10" x1="381.0" x2="417.0" y1="189.0" y2="221.0" /><line stroke="#999" stroke-width="3" x1="381.0" x2="429.0" y1="189.0" y2="137.0" /><line stroke="#333" stroke-width="10" x1="429.0" x2="429.0" y1="137.0" y2="125.0" /><line stroke="#333" stroke-width="10" x1="361.0" x2="381.0" y1="149.0" y2="189.0" /><line stroke="#999" stroke-width="3" x1="361.0" x2="429.0" y1="149.0" y2="125.0" /><line stroke="#333" stroke-width="10" x1="429.0" x2="429.0" y1="125.0" y2="105.0" /><line stroke="#333" stroke-width="10" x1="361.0" x2="361.0" y1="105.0" y2="149.0" /><line stroke="#999" stroke-width="3" x1="361.0" x2="429.0" y1="105.0" y2="105.0" /><line stroke="#333" stroke-width="10" x1="429.0" x2="429.0" y1="105.0" y2="77.0" /><line stroke="#333" stroke-width="10" x1="361.0" x2="361.0" y1="77.0" y2="105.0" /><line stroke="#999" stroke-width="3" x1="361.0" x2="429.0" y1="77.0" y2="77.0" /><line stroke="#333" stroke-width="10" x1="429.0" x2="429.0" y1="77.0" y2="53.0" /><line stroke="#333" stroke-width="10" x1="361.0" x2="361.0" y1="53.0" y2="77.0" /><line stroke="#999" stroke-width="3" x1="361.0" x2="429.0" y1="53.0" y2="53.0" /><line stroke="#333" stroke-width="10" x1="429.0" x2="429.0" y1="53.0" y2="29.0" /><line stroke="#333" stroke-width="10" x1="361.0" x2="361.0" y1="29.0" y2="53.0" /><line stroke="#999" stroke-width="3" x1="361.0" x2="429.0" y1="29.0" y2="29.0" /><line stroke="#333" stroke-width="10" x1="429.0" x2="429.0" y1="29.0" y2="5.0" /><line stroke="#333" stroke-width="10" x1="361.0" x2="361.0" y1="5.0" y2="29.0" /><line stroke="#999" stroke-width="3" x1="521.0" x2="585.0" y1="305.0" y2="305.0" /><line stroke="#333" stroke-width="10" x1="585.0" x2="585.0" y1="305.0" y2="285.0" /><line stroke="#333" stroke-width="10" x1="521.0" x2="521.0" y1="285.0" y2="305.0" /><line stroke="#999" stroke-width="3" x1="521.0" x2="585.0" y1="285.0" y2="285.0" /><line stroke="#333" stroke-width="10" x1="585.0" x2="713.0" y1="285.0" y2="285.0" /><line stroke="#999" stroke-width="3" x1="21.0" x2="193.0" y1="617.0" y2="965.0" /><line stroke="#999" stroke-width="3" x1="1201.0" x2="997.0" y1="797.0" y2="281.0" /><line stroke="#333" stroke-width="10" x1="521.0" x2="397.0" y1="305.0" y2="321.0" /><line stroke="#333" stroke-width="10" x1="765.0" x2="585.0" y1="309.0" y2="305.0" /><line stroke="#333" stroke-width="10" x1="397.0" x2="269.0" y1="321.0" y2="317.0" /><line stroke="#999" stroke-width="3" x1="193.0" x2="677.0" y1="965.0" y2="985.0" /><line stroke="#999" stroke-width="3" x1="269.0" x2="21.0" y1="317.0" y2="617.0" /><line stroke="#333" stroke-width="10" x1="997.0" x2="765.0" y1="281.0" y2="309.0" /><line stroke="#999" stroke-width="3" x1="677.0" x2="1201.0" y1="985.0" y2="797.0" /><line stroke="#333" stroke-width="10" x1="5.0" x2="189.0" y1="617.0" y2="973.0" /><line stroke="#333" stroke-width="10" x1="677.0" x2="1213.0" y1="993.0" y2="801.0" /><line stroke="#333" stroke-width="10" x1="189.0" x2="677.0" y1="973.0" y2="993.0" /><line stroke="#333" stroke-width="10" x1="229.0" x2="5.0" y1="317.0" y2="617.0" /><line stroke="#333" stroke-width="10" x1="1213.0" x2="997.0" y1="801.0" y2="281.0" /><line stroke="#333" stroke-width="10" x1="269.0" x2="229.0" y1="317.0" y2="317.0" /><line stroke="#333" stroke-width="10" x1="713.0" x2="721.0" y1="221.0" y2="221.0" /><line stroke="#666" stroke-width="20" x1="721.0" x2="721.0" y1="221.0" y2="157.0" /><line stroke="#333" stroke-width="10" x1="721.0" x2="713.0" y1="157.0" y2="157.0" /><line stroke="#999" stroke-width="3" x1="713.0" x2="713.0" y1="221.0" y2="157.0" /><line stroke="#333" stroke-width="10" x1="713.0" x2="713.0" y1="157.0" y2="93.0" /><line stroke="#333" stroke-width="10" x1="721.0" x2="741.0" y1="221.0" y2="221.0" /><line stroke="#666" stroke-width="20" x1="741.0" x2="741.0" y1="157.0" y2="221.0" /><line stroke="#333" stroke-width="10" x1="741.0" x2="721.0" y1="157.0" y2="157.0" /><line stroke="#333" stroke-width="10" x1="741.0" x2="753.0" y1="221.0" y2="221.0" /><line stroke="#999" stroke-width="3" x1="753.0" x2="753.0" y1="221.0" y2="157.0" /><line stroke="#333" stroke-width="10" x1="753.0" x2="741.0" y1="157.0" y2="157.0" /><line stroke="#333" stroke-width="10" x1="753.0" x2="753.0" y1="221.0" y2="253.0" /><line stroke="#333" stroke-width="10" x1="873.0" x2="873.0" y1="253.0" y2="221.0" /><line stroke="#333" stroke-width="10" x1="753.0" x2="753.0" y1="121.0" y2="157.0" /><line stroke="#333" stroke-width="10" x1="873.0" x2="753.0" y1="121.0" y2="121.0" /><line stroke="#333" stroke-width="10" x1="753.0" x2="777.0" y1="253.0" y2="253.0" /><line stroke="#0d0" stroke-width="20" x1="873.0" x2="873.0" y1="221.0" y2="157.0" /><line stroke="#333" stroke-width="10" x1="873.0" x2="873.0" y1="157.0" y2="121.0" /><line stroke="#333" stroke-width="10" x1="777.0" x2="841.0" y1="269.0" y2="269.0" /><line stroke="#333" stroke-width="10" x1="841.0" x2="841.0" y1="269.0" y2="253.0" /><line stroke="#333" stroke-width="10" x1="777.0" x2="777.0" y1="253.0" y2="269.0" /><line stroke="#333" stroke-width="10" x1="841.0" x2="873.0" y1="253.0" y2="253.0" /><line stroke="#999" stroke-width="3" x1="777.0" x2="841.0" y1="253.0" y2="253.0" /><line stroke="#999" stroke-width="3" x1="597.0" x2="549.0" y1="93.0" y2="93.0" /><line stroke="#333" stroke-width="10" x1="549.0" x2="457.0" y1="93.0" y2="93.0" /><line stroke="#333" stroke-width="10" x1="597.0" x2="597.0" y1="93.0" y2="85.0" /><line stroke="#333" stroke-width="10" x1="597.0" x2="549.0" y1="85.0" y2="85.0" /><line stroke="#333" stroke-width="10" x1="549.0" x2="549.0" y1="85.0" y2="93.0" /><ellipse cx="397.0" cy="41.0" fill="#009" rx="12" ry="24" stroke="#009" stroke-width="5" /><ellipse cx="485.0" cy="121.0" fill="#009" rx="12" ry="24" stroke="#009" stroke-width="5" /><ellipse cx="557.0" cy="193.0" fill="#009" rx="12" ry="24" stroke="#009" stroke-width="5" /><ellipse cx="489.0" cy="253.0" fill="#009" rx="12" ry="24" stroke="#009" stroke-width="5" /><circle cx="813.0" cy="153.0" fill="#009" r="16" stroke="#009" stroke-width="5" /><circle cx="813.0" cy="221.0" fill="#009" r="16" stroke="#009" stroke-width="5" /><rect fill="#090" height="24" stroke="#090" stroke-width="5" transform="rotate(315,681.0,129.0)" width="24" x="669.0" y="117.0" /></svg>