<?xml version="1.0" encoding="utf-8" ?>
<svg baseProfile="tiny" height="961" version="1.2" viewBox="0 0 1314 1234" width="1024" xmlns="http://www.w3.org/2000/svg" xmlns:ev="http://www.w3.org/2001/xml-events" xmlns:xlink="http://www.w3.org/1999/xlink"><defs /><line stroke="#333" stroke-width="10" x1="5.0" x2="1309.0" y1="1229.0" y2="1229.0" /><line stroke="#333" stroke-width="10" x1="1309.0" x2="1309.0" y1="1229.0" y2="5.0" /><line stroke="#333" stroke-width="10" x1="1309.0" x2="5.0" y1="5.0" y2="5.0" /><line stroke="#333" stroke-width="10" x1="5.0" x2="5.0" y1="5.0" y2="1229.0" /><line stroke="#999" stroke-width="3" x1="517.0" x2="621.0" y1="757.0" y2="821.0" /><line stroke="#999" stroke-width="3" x1="853.0" x2="917.0" y1="757.0" y2="653.0" /><line stroke="#999" stroke-width="3" x1="853.0" x2="749.0" y1="421.0" y2="357.0" /><line stroke="#999" stroke-width="3" x1="517.0" x2="453.0" y1="421.0" y2="525.0" /><line stroke="#999" stroke-width="3" x1="453.0" x2="517.0" y1="653.0" y2="757.0" /><line stroke="#999" stroke-width="3" x1="453.0" x2="453.0" y1="525.0" y2="541.0" /><line stroke="#999" stroke-width="3" x1="917.0" x2="917.0" y1="653.0" y2="637.0" /><line stroke="#999" stroke-width="3" x1="917.0" x2="853.0" y1="525.0" y2="421.0" /><line stroke="#999" stroke-width="3" x1="621.0" x2="637.0" y1="821.0" y2="821.0" /><line stroke="#999" stroke-width="3" x1="749.0" x2="853.0" y1="821.0" y2="757.0" /><line stroke="#999" stroke-width="3" x1="749.0" x2="733.0" y1="357.0" y2="357.0" /><line stroke="#999" stroke-width="3" x1="621.0" x2="517.0" y1="357.0" y2="421.0" /><line stroke="#999" stroke-width="3" x1="525.0" x2="629.0" y1="749.0" y2="813.0" /><line stroke="#999" stroke-width="3" x1="845.0" x2="909.0" y1="749.0" y2="645.0" /><line stroke="#999" stroke-width="3" x1="845.0" x2="741.0" y1="429.0" y2="365.0" /><line stroke="#999" stroke-width="3" x1="525.0" x2="461.0" y1="429.0" y2="533.0" /><line stroke="#999" stroke-width="3" x1="629.0" x2="637.0" y1="813.0" y2="813.0" /><line stroke="#999" stroke-width="3" x1="741.0" x2="845.0" y1="813.0" y2="749.0" /><line stroke="#999" stroke-width="3" x1="909.0" x2="909.0" y1="645.0" y2="637.0" /><line stroke="#999" stroke-width="3" x1="909.0" x2="845.0" y1="533.0" y2="429.0" /><line stroke="#999" stroke-width="3" x1="741.0" x2="733.0" y1="365.0" y2="365.0" /><line stroke="#999" stroke-width="3" x1="629.0" x2="525.0" y1="365.0" y2="429.0" /><line stroke="#999" stroke-width="3" x1="461.0" x2="461.0" y1="533.0" y2="541.0" /><line stroke="#999" stroke-width="3" x1="461.0" x2="525.0" y1="645.0" y2="749.0" /><line stroke="#999" stroke-width="3" x1="637.0" x2="733.0" y1="821.0" y2="821.0" /><line stroke="#999" stroke-width="3" x1="733.0" x2="733.0" y1="821.0" y2="813.0" /><line stroke="#666" stroke-width="20" x1="637.0" x2="733.0" y1="813.0" y2="813.0" /><line stroke="#999" stroke-width="3" x1="637.0" x2="637.0" y1="813.0" y2="821.0" /><line stroke="#999" stroke-width="3" x1="733.0" x2="749.0" y1="821.0" y2="821.0" /><line stroke="#999" stroke-width="3" x1="733.0" x2="741.0" y1="813.0" y2="813.0" /><line stroke="#999" stroke-width="3" x1="453.0" x2="461.0" y1="637.0" y2="637.0" /><line stroke="#999" stroke-width="3" x1="453.0" x2="453.0" y1="541.0" y2="637.0" /><line stroke="#999" stroke-width="3" x1="461.0" x2="453.0" y1="541.0" y2="541.0" /><line stroke="#666" stroke-width="20" x1="461.0" x2="461.0" y1="541.0" y2="637.0" /><line stroke="#999" stroke-width="3" x1="461.0" x2="461.0" y1="637.0" y2="645.0" /><line stroke="#999" stroke-width="3" x1="453.0" x2="453.0" y1="637.0" y2="653.0" /><line stroke="#666" stroke-width="20" x1="733.0" x2="637.0" y1="365.0" y2="365.0" /><line stroke="#999" stroke-width="3" x1="733.0" x2="733.0" y1="365.0" y2="357.0" /><line stroke="#999" stroke-width="3" x1="733.0" x2="637.0" y1="357.0" y2="357.0" /><line stroke="#999" stroke-width="3" x1="637.0" x2="637.0" y1="357.0" y2="365.0" /><line stroke="#999" stroke-width="3" x1="637.0" x2="629.0" y1="365.0" y2="365.0" /><line stroke="#999" stroke-width="3" x1="637.0" x2="621.0" y1="357.0" y2="357.0" /><line stroke="#999" stroke-width="3" x1="909.0" x2="917.0" y1="637.0" y2="637.0" /><line stroke="#999" stroke-width="3" x1="917.0" x2="917.0" y1="637.0" y2="541.0" /><line stroke="#999" stroke-width="3" x1="917.0" x2="909.0" y1="541.0" y2="541.0" /><line stroke="#666" stroke-width="20" x1="909.0" x2="909.0" y1="637.0" y2="541.0" /><line stroke="#999" stroke-width="3" x1="917.0" x2="917.0" y1="541.0" y2="525.0" /><line stroke="#999" stroke-width="3" x1="909.0" x2="909.0" y1="541.0" y2="533.0" /><ellipse cx="685.0" cy="597.0" fill="#009" rx="12" ry="24" stroke="#009" stroke-width="5" /><circle cx="589.0" cy="733.0" fill="#900" r="16" stroke="#900" stroke-width="5" /><circle cx="581.0" cy="461.0" fill="#900" r="16" stroke="#900" stroke-width="5" /><circle cx="789.0" cy="469.0" fill="#900" r="16" stroke="#900" stroke-width="5" /><circle cx="789.0" cy="733.0" fill="#900" r="16" stroke="#900" stroke-width="5" /><circle cx="541.0" cy="589.0" fill="#009" r="16" stroke="#009" stroke-width="5" /><circle cx="821.0" cy="597.0" fill="#009" r="16" stroke="#009" stroke-width="5" /><circle cx="685.0" cy="733.0" fill="#900" r="16" stroke="#900" stroke-width="5" /><circle cx="685.0" cy="469.0" fill="#900" r="16" stroke="#900" stroke-width="5" /><circle cx="541.0" cy="661.0" fill="#090" r="16" stroke="#090" stroke-width="5" /><circle cx="821.0" cy="661.0" fill="#090" r="16" stroke="#090" stroke-width="5" /><circle cx="685.0" cy="669.0" fill="#090" r="16" stroke="#090" stroke-width="5" /><circle cx="685.0" cy="533.0" fill="#090" r="16" stroke="#090" stroke-width="5" /><circle cx="813.0" cy="533.0" fill="#090" r="16" stroke="#090" stroke-width="5" /><circle cx="549.0" cy="525.0" fill="#090" r="16" stroke="#090" stroke-width="5" /><rect fill="#090" height="24" stroke="#090" stroke-width="5" transform="rotate(315,685.0,597.0)" width="24" x="673.0" y="585.0" /><circle cx="749.0" cy="669.0" fill="#090" r="16" stroke="#090" stroke-width="5" /><circle cx="749.0" cy="533.0" fill="#090" r="16" stroke="#090" stroke-width="5" /><circle cx="613.0" cy="533.0" fill="#090" r="16" stroke="#090" stroke-width="5" /><circle cx="613.0" cy="661.0" fill="#090" r="16" stroke="#090" stroke-width="5" /><circle cx="749.0" cy="605.0" fill="#090" r="16" stroke="#090" stroke-width="5" /><circle cx="613.0" cy="589.0" fill="#090" r="16" stroke="#090" stroke-width="5" /><circle cx="749.0" cy="661.0" fill="#090" r="16" stroke="#090" stroke-width="5" /><circle cx="749.0" cy="605.0" fill="#090" r="16" stroke="#090" stroke-width="5" /><circle cx="749.0" cy="541.0" fill="#090" r="16" stroke="#090" stroke-width="5" /><circle cx="613.0" cy="541.0" fill="#090" r="16" stroke="#090" stroke-width="5" /><circle cx="613.0" cy="589.0" fill="#090" r="16" stroke="#090" stroke-width="5" /><circle cx="613.0" cy="669.0" fill="#090" r="16" stroke="#090" stroke-width="5" /><circle cx="685.0" cy="541.0" fill="#090" r="16" stroke="#090" stroke-width="5" /><circle cx="685.0" cy="661.0" fill="#090" r="16" stroke="#090" stroke-width="5" /><circle cx="813.0" cy="541.0" fill="#090" r="16" stroke="#090" stroke-width="5" /><circle cx="821.0" cy="661.0" fill="#090" r="16" stroke="#090" stroke-width="5" /><circle cx="549.0" cy="525.0" fill="#090" r="16" stroke="#090" stroke-width="5" /><circle cx="533.0" cy="669.0" fill="#090" r="16" stroke="#090" stroke-width="5" /><rect fill="#090" height="24" stroke="#090" stroke-width="5" transform="rotate(90,677.0,597.0)" width="24" x="665.0" y="585.0" /><circle cx="781.0" cy="477.0" fill="#900" r="16" stroke="#900" stroke-width="5" /><circle cx="789.0" cy="733.0" fill="#900" r="16" stroke="#900" stroke-width="5" /><circle cx="597.0" cy="741.0" fill="#900" r="16" stroke="#900" stroke-width="5" /><circle cx="597.0" cy="469.0" fill="#900" r="16" stroke="#900" stroke-width="5" /><circle cx="685.0" cy="477.0" fill="#900" r="16" stroke="#900" stroke-width="5" /><circle cx="685.0" cy="733.0" fill="#900" r="16" stroke="#900" stroke-width="5" /><rect fill="#900" height="48" stroke="#900" stroke-width="5" transform="rotate(135,201.0,971.0)" width="32" x="185.0" y="947.0" /><rect fill="#900" height="48" stroke="#900" stroke-width="5" transform="rotate(45,1051.0,977.0)" width="32" x="1035.0" y="953.0" /><rect fill="#900" height="48" stroke="#900" stroke-width="5" transform="rotate(315,689.0,217.0)" width="32" x="673.0" y="193.0" /><rect fill="#900" height="48" stroke="#900" stroke-width="5" transform="rotate(315,1089.0,195.0)" width="32" x="1073.0" y="171.0" /><rect fill="#900" height="48" stroke="#900" stroke-width="5" transform="rotate(225,231.0,217.0)" width="32" x="215.0" y="193.0" /></svg>