<?xml version="1.0" encoding="utf-8" ?>
<svg baseProfile="tiny" height="496" version="1.2" viewBox="0 0 14730 7146" width="1024" xmlns="http://www.w3.org/2000/svg" xmlns:ev="http://www.w3.org/2001/xml-events" xmlns:xlink="http://www.w3.org/1999/xlink"><defs /><line stroke="#999" stroke-width="3" x1="10693.0" x2="10693.0" y1="3997.0" y2="4005.0" /><line stroke="#999" stroke-width="3" x1="10693.0" x2="10757.0" y1="4202.0" y2="4202.0" /><line stroke="#666" stroke-width="20" x1="10693.0" x2="10757.0" y1="3981.0" y2="3981.0" /><line stroke="#999" stroke-width="3" x1="10757.0" x2="10789.0" y1="4202.0" y2="4133.0" /><line stroke="#999" stroke-width="3" x1="10597.0" x2="10661.0" y1="4005.0" y2="4133.0" /><line stroke="#0d0" stroke-width="20" x1="10661.0" x2="10789.0" y1="4133.0" y2="4133.0" /><line stroke="#999" stroke-width="3" x1="10661.0" x2="10693.0" y1="4133.0" y2="4202.0" /><line stroke="#999" stroke-width="3" x1="5893.0" x2="5893.0" y1="3973.0" y2="4037.0" /><line stroke="#999" stroke-width="3" x1="5893.0" x2="5957.0" y1="4037.0" y2="4037.0" /><line stroke="#999" stroke-width="3" x1="5957.0" x2="5957.0" y1="4037.0" y2="3973.0" /><line stroke="#999" stroke-width="3" x1="5957.0" x2="5893.0" y1="3973.0" y2="3973.0" /><line stroke="#999" stroke-width="3" x1="10853.0" x2="10757.0" y1="4005.0" y2="4005.0" /><line stroke="#999" stroke-width="3" x1="10789.0" x2="10853.0" y1="4133.0" y2="4005.0" /><line stroke="#999" stroke-width="3" x1="10757.0" x2="10693.0" y1="3973.0" y2="3973.0" /><line stroke="#999" stroke-width="3" x1="10693.0" x2="10693.0" y1="3981.0" y2="3997.0" /><line stroke="#666" stroke-width="20" x1="10757.0" x2="10693.0" y1="3997.0" y2="3997.0" /><line stroke="#999" stroke-width="3" x1="10757.0" x2="10757.0" y1="3981.0" y2="3973.0" /><line stroke="#999" stroke-width="3" x1="10757.0" x2="10757.0" y1="4005.0" y2="3997.0" /><line stroke="#999" stroke-width="3" x1="10757.0" x2="10693.0" y1="4005.0" y2="4005.0" /><line stroke="#999" stroke-width="3" x1="10693.0" x2="10597.0" y1="4005.0" y2="4005.0" /><line stroke="#999" stroke-width="3" x1="10757.0" x2="10757.0" y1="3997.0" y2="3981.0" /><line stroke="#999" stroke-width="3" x1="10693.0" x2="10693.0" y1="3973.0" y2="3981.0" /><line stroke="#333" stroke-width="10" x1="4485.0" x2="14725.0" y1="6405.0" y2="4485.0" /><line stroke="#333" stroke-width="10" x1="14725.0" x2="14021.0" y1="4485.0" y2="5.0" /><line stroke="#333" stroke-width="10" x1="14021.0" x2="4197.0" y1="5.0" y2="2181.0" /><line stroke="#333" stroke-width="10" x1="4197.0" x2="5.0" y1="2181.0" y2="5573.0" /><line stroke="#333" stroke-width="10" x1="5.0" x2="1829.0" y1="5573.0" y2="6757.0" /><line stroke="#333" stroke-width="10" x1="1829.0" x2="3941.0" y1="6757.0" y2="6693.0" /><line stroke="#333" stroke-width="10" x1="3941.0" x2="3941.0" y1="6693.0" y2="3973.0" /><line stroke="#333" stroke-width="10" x1="3941.0" x2="5605.0" y1="3973.0" y2="3877.0" /><line stroke="#333" stroke-width="10" x1="5605.0" x2="5573.0" y1="3877.0" y2="4517.0" /><line stroke="#333" stroke-width="10" x1="5573.0" x2="6437.0" y1="4517.0" y2="4997.0" /><line stroke="#333" stroke-width="10" x1="6437.0" x2="7941.0" y1="4997.0" y2="4869.0" /><line stroke="#333" stroke-width="10" x1="7941.0" x2="9989.0" y1="4869.0" y2="4709.0" /><line stroke="#333" stroke-width="10" x1="9989.0" x2="6021.0" y1="4709.0" y2="5413.0" /><line stroke="#333" stroke-width="10" x1="6021.0" x2="4517.0" y1="5413.0" y2="4389.0" /><line stroke="#333" stroke-width="10" x1="4517.0" x2="4325.0" y1="4389.0" y2="5029.0" /><line stroke="#333" stroke-width="10" x1="4325.0" x2="4261.0" y1="5029.0" y2="5637.0" /><line stroke="#333" stroke-width="10" x1="4261.0" x2="4453.0" y1="5637.0" y2="5061.0" /><line stroke="#333" stroke-width="10" x1="4453.0" x2="4549.0" y1="5061.0" y2="4581.0" /><line stroke="#333" stroke-width="10" x1="4549.0" x2="5861.0" y1="4581.0" y2="5445.0" /><line stroke="#333" stroke-width="10" x1="5861.0" x2="4517.0" y1="5445.0" y2="5189.0" /><line stroke="#333" stroke-width="10" x1="4517.0" x2="5861.0" y1="5189.0" y2="5541.0" /><line stroke="#333" stroke-width="10" x1="5861.0" x2="4101.0" y1="5541.0" y2="5989.0" /><line stroke="#333" stroke-width="10" x1="4101.0" x2="4293.0" y1="5989.0" y2="7141.0" /><line stroke="#333" stroke-width="10" x1="4293.0" x2="4677.0" y1="7141.0" y2="6821.0" /><line stroke="#333" stroke-width="10" x1="4677.0" x2="4581.0" y1="6821.0" y2="6629.0" /><line stroke="#333" stroke-width="10" x1="4581.0" x2="4357.0" y1="6629.0" y2="6885.0" /><line stroke="#333" stroke-width="10" x1="4357.0" x2="4261.0" y1="6885.0" y2="6053.0" /><line stroke="#333" stroke-width="10" x1="4261.0" x2="7685.0" y1="6053.0" y2="5413.0" /><line stroke="#333" stroke-width="10" x1="7685.0" x2="7813.0" y1="5413.0" y2="5669.0" /><line stroke="#333" stroke-width="10" x1="7813.0" x2="4613.0" y1="5669.0" y2="6277.0" /><line stroke="#333" stroke-width="10" x1="4613.0" x2="4613.0" y1="6277.0" y2="6053.0" /><line stroke="#333" stroke-width="10" x1="4613.0" x2="4357.0" y1="6053.0" y2="6085.0" /><line stroke="#333" stroke-width="10" x1="4357.0" x2="4357.0" y1="6085.0" y2="6181.0" /><line stroke="#333" stroke-width="10" x1="4357.0" x2="4517.0" y1="6181.0" y2="6181.0" /><line stroke="#333" stroke-width="10" x1="4517.0" x2="4485.0" y1="6181.0" y2="6405.0" /><line stroke="#0d0" stroke-width="20" x1="4549.0" x2="4549.0" y1="6821.0" y2="6757.0" /><line stroke="#0d0" stroke-width="20" x1="4549.0" x2="4613.0" y1="6757.0" y2="6757.0" /><line stroke="#0d0" stroke-width="20" x1="4613.0" x2="4613.0" y1="6757.0" y2="6821.0" /><line stroke="#0d0" stroke-width="20" x1="4613.0" x2="4549.0" y1="6821.0" y2="6821.0" /><ellipse cx="5861.0" cy="2917.0" fill="#009" rx="12" ry="24" stroke="#009" stroke-width="5" /><ellipse cx="6213.0" cy="2789.0" fill="#009" rx="12" ry="24" stroke="#009" stroke-width="5" /><ellipse cx="5925.0" cy="2789.0" fill="#009" rx="12" ry="24" stroke="#009" stroke-width="5" /><ellipse cx="6053.0" cy="2789.0" fill="#009" rx="12" ry="24" stroke="#009" stroke-width="5" /><rect fill="#090" height="24" stroke="#090" stroke-width="5" transform="rotate(0,5861.0,2789.0)" width="24" x="5849.0" y="2777.0" /><circle cx="5861.0" cy="2885.0" fill="#900" r="16" stroke="#900" stroke-width="5" /><circle cx="6245.0" cy="2789.0" fill="#900" r="16" stroke="#900" stroke-width="5" /><circle cx="6117.0" cy="2789.0" fill="#900" r="16" stroke="#900" stroke-width="5" /><circle cx="5957.0" cy="2789.0" fill="#900" r="16" stroke="#900" stroke-width="5" /><circle cx="5861.0" cy="3045.0" fill="#090" r="16" stroke="#090" stroke-width="5" /><circle cx="5861.0" cy="3429.0" fill="#090" r="16" stroke="#090" stroke-width="5" /><circle cx="5861.0" cy="3557.0" fill="#090" r="16" stroke="#090" stroke-width="5" /><circle cx="6117.0" cy="3525.0" fill="#090" r="16" stroke="#090" stroke-width="5" /><circle cx="6629.0" cy="3781.0" fill="#090" r="16" stroke="#090" stroke-width="5" /><circle cx="6501.0" cy="4069.0" fill="#090" r="16" stroke="#090" stroke-width="5" /><circle cx="5925.0" cy="4005.0" fill="#900" r="16" stroke="#900" stroke-width="5" /><rect fill="#090" height="24" stroke="#090" stroke-width="5" transform="rotate(315,5861.0,4069.0)" width="24" x="5849.0" y="4057.0" /><rect fill="#090" height="24" stroke="#090" stroke-width="5" transform="rotate(180,10053.0,4069.0)" width="24" x="10041.0" y="4057.0" /><circle cx="10597.0" cy="3429.0" fill="#900" r="16" stroke="#900" stroke-width="5" /><circle cx="10437.0" cy="2789.0" fill="#900" r="16" stroke="#900" stroke-width="5" /><circle cx="6757.0" cy="3781.0" fill="#090" r="16" stroke="#090" stroke-width="5" /><circle cx="7397.0" cy="4069.0" fill="#090" r="16" stroke="#090" stroke-width="5" /><circle cx="8165.0" cy="2789.0" fill="#090" r="16" stroke="#090" stroke-width="5" /><circle cx="8293.0" cy="2789.0" fill="#090" r="16" stroke="#090" stroke-width="5" /><circle cx="8421.0" cy="2789.0" fill="#090" r="16" stroke="#090" stroke-width="5" /><circle cx="8549.0" cy="2789.0" fill="#090" r="16" stroke="#090" stroke-width="5" /><circle cx="8677.0" cy="2789.0" fill="#090" r="16" stroke="#090" stroke-width="5" /><circle cx="8805.0" cy="2789.0" fill="#090" r="16" stroke="#090" stroke-width="5" /><circle cx="7301.0" cy="2789.0" fill="#090" r="16" stroke="#090" stroke-width="5" /><circle cx="7781.0" cy="3429.0" fill="#090" r="16" stroke="#090" stroke-width="5" /><circle cx="8165.0" cy="3301.0" fill="#090" r="16" stroke="#090" stroke-width="5" /><circle cx="8037.0" cy="4069.0" fill="#090" r="16" stroke="#090" stroke-width="5" /><circle cx="9061.0" cy="4069.0" fill="#090" r="16" stroke="#090" stroke-width="5" /><circle cx="9829.0" cy="4069.0" fill="#090" r="16" stroke="#090" stroke-width="5" /><circle cx="9829.0" cy="2821.0" fill="#090" r="16" stroke="#090" stroke-width="5" /><circle cx="10597.0" cy="2789.0" fill="#090" r="16" stroke="#090" stroke-width="5" /><circle cx="10213.0" cy="4069.0" fill="#090" r="16" stroke="#090" stroke-width="5" /><rect fill="#090" height="24" stroke="#090" stroke-width="5" transform="rotate(45,10661.0,2789.0)" width="24" x="10649.0" y="2777.0" /><rect fill="#900" height="48" stroke="#900" stroke-width="5" transform="rotate(270,5989.0,3365.0)" width="32" x="5973.0" y="3341.0" /><rect fill="#900" height="48" stroke="#900" stroke-width="5" transform="rotate(90,6373.0,2917.0)" width="32" x="6357.0" y="2893.0" /><rect fill="#900" height="48" stroke="#900" stroke-width="5" transform="rotate(0,6373.0,2789.0)" width="32" x="6357.0" y="2765.0" /><rect fill="#900" height="48" stroke="#900" stroke-width="5" transform="rotate(270,8165.0,4037.0)" width="32" x="8149.0" y="4013.0" /><rect fill="#900" height="48" stroke="#900" stroke-width="5" transform="rotate(270,10724.0,4131.0)" width="32" x="10708.0" y="4107.0" /><rect fill="#900" height="48" stroke="#900" stroke-width="5" transform="rotate(180,10725.0,2917.0)" width="32" x="10709.0" y="2893.0" /><rect fill="#900" height="48" stroke="#900" stroke-width="5" transform="rotate(0,9957.0,3045.0)" width="32" x="9941.0" y="3021.0" /><rect fill="#900" height="48" stroke="#900" stroke-width="5" transform="rotate(270,10213.0,3685.0)" width="32" x="10197.0" y="3661.0" /><rect fill="#900" height="48" stroke="#900" stroke-width="5" transform="rotate(0,9189.0,4069.0)" width="32" x="9173.0" y="4045.0" /><rect fill="#900" height="48" stroke="#900" stroke-width="5" transform="rotate(180,8933.0,4069.0)" width="32" x="8917.0" y="4045.0" /><rect fill="#900" height="48" stroke="#900" stroke-width="5" transform="rotate(180,9061.0,3173.0)" width="32" x="9045.0" y="3149.0" /><rect fill="#900" height="48" stroke="#900" stroke-width="5" transform="rotate(180,9317.0,2917.0)" width="32" x="9301.0" y="2893.0" /><rect fill="#900" height="48" stroke="#900" stroke-width="5" transform="rotate(0,8869.0,2789.0)" width="32" x="8853.0" y="2765.0" /><rect fill="#900" height="48" stroke="#900" stroke-width="5" transform="rotate(0,8165.0,3173.0)" width="32" x="8149.0" y="3149.0" /><rect fill="#900" height="48" stroke="#900" stroke-width="5" transform="rotate(0,6757.0,3301.0)" width="32" x="6741.0" y="3277.0" /><rect fill="#900" height="48" stroke="#900" stroke-width="5" transform="rotate(0,6373.0,3173.0)" width="32" x="6357.0" y="3149.0" /><rect fill="#900" height="48" stroke="#900" stroke-width="5" transform="rotate(270,6501.0,2917.0)" width="32" x="6485.0" y="2893.0" /><rect fill="#900" height="48" stroke="#900" stroke-width="5" transform="rotate(0,6117.0,4069.0)" width="32" x="6101.0" y="4045.0" /><rect fill="#900" height="48" stroke="#900" stroke-width="5" transform="rotate(0,6501.0,3941.0)" width="32" x="6485.0" y="3917.0" /><rect fill="#900" height="48" stroke="#900" stroke-width="5" transform="rotate(0,7653.0,4069.0)" width="32" x="7637.0" y="4045.0" /><rect fill="#900" height="48" stroke="#900" stroke-width="5" transform="rotate(0,8293.0,4069.0)" width="32" x="8277.0" y="4045.0" /><rect fill="#900" height="48" stroke="#900" stroke-width="5" transform="rotate(270,8805.0,3685.0)" width="32" x="8789.0" y="3661.0" /><rect fill="#900" height="48" stroke="#900" stroke-width="5" transform="rotate(270,9189.0,3813.0)" width="32" x="9173.0" y="3789.0" /><rect fill="#900" height="48" stroke="#900" stroke-width="5" transform="rotate(270,9957.0,4069.0)" width="32" x="9941.0" y="4045.0" /><rect fill="#900" height="48" stroke="#900" stroke-width="5" transform="rotate(270,10341.0,4069.0)" width="32" x="10325.0" y="4045.0" /><rect fill="#900" height="48" stroke="#900" stroke-width="5" transform="rotate(270,10597.0,3941.0)" width="32" x="10581.0" y="3917.0" /><rect fill="#900" height="48" stroke="#900" stroke-width="5" transform="rotate(90,10725.0,3301.0)" width="32" x="10709.0" y="3277.0" /><rect fill="#900" height="48" stroke="#900" stroke-width="5" transform="rotate(180,9797.0,4069.0)" width="32" x="9781.0" y="4045.0" /><rect fill="#900" height="48" stroke="#900" stroke-width="5" transform="rotate(180,10469.0,2789.0)" width="32" x="10453.0" y="2765.0" /><rect fill="#090" height="24" stroke="#090" stroke-width="5" transform="rotate(0,7429.0,4421.0)" width="24" x="7417.0" y="4409.0" /><rect fill="#090" height="24" stroke="#090" stroke-width="5" transform="rotate(0,7493.0,4421.0)" width="24" x="7481.0" y="4409.0" /><rect fill="#090" height="24" stroke="#090" stroke-width="5" transform="rotate(0,7557.0,4421.0)" width="24" x="7545.0" y="4409.0" /><rect fill="#090" height="24" stroke="#090" stroke-width="5" transform="rotate(0,7493.0,4357.0)" width="24" x="7481.0" y="4345.0" /><rect fill="#090" height="24" stroke="#090" stroke-width="5" transform="rotate(0,7557.0,4357.0)" width="24" x="7545.0" y="4345.0" /><rect fill="#090" height="24" stroke="#090" stroke-width="5" transform="rotate(0,7429.0,4357.0)" width="24" x="7417.0" y="4345.0" /><rect fill="#090" height="24" stroke="#090" stroke-width="5" transform="rotate(0,8389.0,4293.0)" width="24" x="8377.0" y="4281.0" /><rect fill="#090" height="24" stroke="#090" stroke-width="5" transform="rotate(0,8901.0,3973.0)" width="24" x="8889.0" y="3961.0" /><rect fill="#090" height="24" stroke="#090" stroke-width="5" transform="rotate(0,8901.0,4005.0)" width="24" x="8889.0" y="3993.0" /><rect fill="#090" height="24" stroke="#090" stroke-width="5" transform="rotate(0,9541.0,3685.0)" width="24" x="9529.0" y="3673.0" /><rect fill="#090" height="24" stroke="#090" stroke-width="5" transform="rotate(0,8517.0,3621.0)" width="24" x="8505.0" y="3609.0" /><rect fill="#090" height="24" stroke="#090" stroke-width="5" transform="rotate(0,7589.0,3813.0)" width="24" x="7577.0" y="3801.0" /><rect fill="#090" height="24" stroke="#090" stroke-width="5" transform="rotate(0,7589.0,3525.0)" width="24" x="7577.0" y="3513.0" /><rect fill="#090" height="24" stroke="#090" stroke-width="5" transform="rotate(0,7845.0,2629.0)" width="24" x="7833.0" y="2617.0" /><rect fill="#090" height="24" stroke="#090" stroke-width="5" transform="rotate(0,9317.0,2469.0)" width="24" x="9305.0" y="2457.0" /><rect fill="#090" height="24" stroke="#090" stroke-width="5" transform="rotate(0,9957.0,2373.0)" width="24" x="9945.0" y="2361.0" /><rect fill="#090" height="24" stroke="#090" stroke-width="5" transform="rotate(0,10405.0,2309.0)" width="24" x="10393.0" y="2297.0" /><rect fill="#090" height="24" stroke="#090" stroke-width="5" transform="rotate(0,10373.0,2725.0)" width="24" x="10361.0" y="2713.0" /><rect fill="#090" height="24" stroke="#090" stroke-width="5" transform="rotate(0,10085.0,3429.0)" width="24" x="10073.0" y="3417.0" /><rect fill="#090" height="24" stroke="#090" stroke-width="5" transform="rotate(0,10277.0,3269.0)" width="24" x="10265.0" y="3257.0" /><rect fill="#090" height="24" stroke="#090" stroke-width="5" transform="rotate(0,10533.0,2629.0)" width="24" x="10521.0" y="2617.0" /><rect fill="#090" height="24" stroke="#090" stroke-width="5" transform="rotate(0,9893.0,2149.0)" width="24" x="9881.0" y="2137.0" /><rect fill="#090" height="24" stroke="#090" stroke-width="5" transform="rotate(0,7461.0,3141.0)" width="24" x="7449.0" y="3129.0" /><rect fill="#090" height="24" stroke="#090" stroke-width="5" transform="rotate(0,6821.0,3333.0)" width="24" x="6809.0" y="3321.0" /><rect fill="#090" height="24" stroke="#090" stroke-width="5" transform="rotate(0,6725.0,3013.0)" width="24" x="6713.0" y="3001.0" /><rect fill="#090" height="24" stroke="#090" stroke-width="5" transform="rotate(0,6149.0,3205.0)" width="24" x="6137.0" y="3193.0" /><rect fill="#090" height="24" stroke="#090" stroke-width="5" transform="rotate(0,6149.0,3333.0)" width="24" x="6137.0" y="3321.0" /><rect fill="#090" height="24" stroke="#090" stroke-width="5" transform="rotate(0,6533.0,3685.0)" width="24" x="6521.0" y="3673.0" /><rect fill="#090" height="24" stroke="#090" stroke-width="5" transform="rotate(0,7173.0,4037.0)" width="24" x="7161.0" y="4025.0" /><rect fill="#090" height="24" stroke="#090" stroke-width="5" transform="rotate(0,7717.0,4261.0)" width="24" x="7705.0" y="4249.0" /><rect fill="#090" height="24" stroke="#090" stroke-width="5" transform="rotate(0,8933.0,4357.0)" width="24" x="8921.0" y="4345.0" /><rect fill="#090" height="24" stroke="#090" stroke-width="5" transform="rotate(0,9285.0,4421.0)" width="24" x="9273.0" y="4409.0" /><rect fill="#090" height="24" stroke="#090" stroke-width="5" transform="rotate(0,9637.0,4293.0)" width="24" x="9625.0" y="4281.0" /><rect fill="#090" height="24" stroke="#090" stroke-width="5" transform="rotate(0,9797.0,4325.0)" width="24" x="9785.0" y="4313.0" /><rect fill="#090" height="24" stroke="#090" stroke-width="5" transform="rotate(0,10373.0,4037.0)" width="24" x="10361.0" y="4025.0" /><rect fill="#090" height="24" stroke="#090" stroke-width="5" transform="rotate(0,10565.0,3749.0)" width="24" x="10553.0" y="3737.0" /><rect fill="#090" height="24" stroke="#090" stroke-width="5" transform="rotate(0,10949.0,3589.0)" width="24" x="10937.0" y="3577.0" /><rect fill="#090" height="24" stroke="#090" stroke-width="5" transform="rotate(0,8389.0,3973.0)" width="24" x="8377.0" y="3961.0" /><rect fill="#090" height="24" stroke="#090" stroke-width="5" transform="rotate(0,8485.0,3493.0)" width="24" x="8473.0" y="3481.0" /><rect fill="#090" height="24" stroke="#090" stroke-width="5" transform="rotate(0,7749.0,3109.0)" width="24" x="7737.0" y="3097.0" /><rect fill="#090" height="24" stroke="#090" stroke-width="5" transform="rotate(0,7781.0,3077.0)" width="24" x="7769.0" y="3065.0" /><rect fill="#090" height="24" stroke="#090" stroke-width="5" transform="rotate(0,9765.0,3173.0)" width="24" x="9753.0" y="3161.0" /><rect fill="#090" height="24" stroke="#090" stroke-width="5" transform="rotate(0,9765.0,3237.0)" width="24" x="9753.0" y="3225.0" /><rect fill="#090" height="24" stroke="#090" stroke-width="5" transform="rotate(0,7653.0,3589.0)" width="24" x="7641.0" y="3577.0" /><rect fill="#090" height="24" stroke="#090" stroke-width="5" transform="rotate(0,7909.0,3653.0)" width="24" x="7897.0" y="3641.0" /><rect fill="#090" height="24" stroke="#090" stroke-width="5" transform="rotate(0,7141.0,3685.0)" width="24" x="7129.0" y="3673.0" /><rect fill="#090" height="24" stroke="#090" stroke-width="5" transform="rotate(0,6565.0,4133.0)" width="24" x="6553.0" y="4121.0" /><rect fill="#090" height="24" stroke="#090" stroke-width="5" transform="rotate(0,6917.0,4389.0)" width="24" x="6905.0" y="4377.0" /><rect fill="#090" height="24" stroke="#090" stroke-width="5" transform="rotate(0,7013.0,4485.0)" width="24" x="7001.0" y="4473.0" /><rect fill="#090" height="24" stroke="#090" stroke-width="5" transform="rotate(0,6757.0,4613.0)" width="24" x="6745.0" y="4601.0" /><rect fill="#090" height="24" stroke="#090" stroke-width="5" transform="rotate(0,6277.0,4581.0)" width="24" x="6265.0" y="4569.0" /><rect fill="#090" height="24" stroke="#090" stroke-width="5" transform="rotate(0,7077.0,3493.0)" width="24" x="7065.0" y="3481.0" /><rect fill="#090" height="24" stroke="#090" stroke-width="5" transform="rotate(0,7013.0,2853.0)" width="24" x="7001.0" y="2841.0" /><rect fill="#090" height="24" stroke="#090" stroke-width="5" transform="rotate(0,8581.0,2309.0)" width="24" x="8569.0" y="2297.0" /><rect fill="#090" height="24" stroke="#090" stroke-width="5" transform="rotate(0,8613.0,3077.0)" width="24" x="8601.0" y="3065.0" /><rect fill="#090" height="24" stroke="#090" stroke-width="5" transform="rotate(0,10821.0,2053.0)" width="24" x="10809.0" y="2041.0" /><rect fill="#090" height="24" stroke="#090" stroke-width="5" transform="rotate(0,10821.0,2021.0)" width="24" x="10809.0" y="2009.0" /><rect fill="#900" height="48" stroke="#900" stroke-width="5" transform="rotate(0,8261.0,3717.0)" width="32" x="8245.0" y="3693.0" /><rect fill="#900" height="48" stroke="#900" stroke-width="5" transform="rotate(0,9317.0,3429.0)" width="32" x="9301.0" y="3405.0" /><rect fill="#900" height="48" stroke="#900" stroke-width="5" transform="rotate(0,9573.0,2565.0)" width="32" x="9557.0" y="2541.0" /><rect fill="#900" height="48" stroke="#900" stroke-width="5" transform="rotate(0,8133.0,2565.0)" width="32" x="8117.0" y="2541.0" /><rect fill="#900" height="48" stroke="#900" stroke-width="5" transform="rotate(0,8741.0,2533.0)" width="32" x="8725.0" y="2509.0" /><rect fill="#900" height="48" stroke="#900" stroke-width="5" transform="rotate(0,6821.0,2661.0)" width="32" x="6805.0" y="2637.0" /><rect fill="#900" height="48" stroke="#900" stroke-width="5" transform="rotate(0,7589.0,2469.0)" width="32" x="7573.0" y="2445.0" /><rect fill="#900" height="48" stroke="#900" stroke-width="5" transform="rotate(0,7941.0,2821.0)" width="32" x="7925.0" y="2797.0" /><rect fill="#900" height="48" stroke="#900" stroke-width="5" transform="rotate(0,7941.0,3301.0)" width="32" x="7925.0" y="3277.0" /><rect fill="#900" height="48" stroke="#900" stroke-width="5" transform="rotate(0,7813.0,3941.0)" width="32" x="7797.0" y="3917.0" /><rect fill="#900" height="48" stroke="#900" stroke-width="5" transform="rotate(0,7973.0,4453.0)" width="32" x="7957.0" y="4429.0" /><rect fill="#900" height="48" stroke="#900" stroke-width="5" transform="rotate(0,8581.0,4453.0)" width="32" x="8565.0" y="4429.0" /><rect fill="#900" height="48" stroke="#900" stroke-width="5" transform="rotate(0,8645.0,4101.0)" width="32" x="8629.0" y="4077.0" /><rect fill="#900" height="48" stroke="#900" stroke-width="5" transform="rotate(0,9029.0,3589.0)" width="32" x="9013.0" y="3565.0" /><rect fill="#900" height="48" stroke="#900" stroke-width="5" transform="rotate(0,8773.0,3365.0)" width="32" x="8757.0" y="3341.0" /><rect fill="#900" height="48" stroke="#900" stroke-width="5" transform="rotate(0,9893.0,3845.0)" width="32" x="9877.0" y="3821.0" /><rect fill="#900" height="48" stroke="#900" stroke-width="5" transform="rotate(0,10085.0,4325.0)" width="32" x="10069.0" y="4301.0" /><rect fill="#900" height="48" stroke="#900" stroke-width="5" transform="rotate(0,10949.0,4357.0)" width="32" x="10933.0" y="4333.0" /><rect fill="#900" height="48" stroke="#900" stroke-width="5" transform="rotate(0,11013.0,3173.0)" width="32" x="10997.0" y="3149.0" /><rect fill="#900" height="48" stroke="#900" stroke-width="5" transform="rotate(0,10949.0,2597.0)" width="32" x="10933.0" y="2573.0" /><rect fill="#900" height="48" stroke="#900" stroke-width="5" transform="rotate(0,10405.0,2117.0)" width="32" x="10389.0" y="2093.0" /><rect fill="#900" height="48" stroke="#900" stroke-width="5" transform="rotate(0,10117.0,2501.0)" width="32" x="10101.0" y="2477.0" /></svg>