<?xml version="1.0" encoding="utf-8" ?>
<svg baseProfile="tiny" height="1024" version="1.2" viewBox="0 0 1994 2354" width="867" xmlns="http://www.w3.org/2000/svg" xmlns:ev="http://www.w3.org/2001/xml-events" xmlns:xlink="http://www.w3.org/1999/xlink"><defs /><line stroke="#333" stroke-width="10" x1="485.0" x2="581.0" y1="1933.0" y2="1933.0" /><line stroke="#999" stroke-width="3" x1="1509.0" x2="1509.0" y1="1933.0" y2="1805.0" /><line stroke="#333" stroke-width="10" x1="1061.0" x2="1029.0" y1="13.0" y2="13.0" /><line stroke="#333" stroke-width="10" x1="933.0" x2="933.0" y1="13.0" y2="125.0" /><line stroke="#333" stroke-width="10" x1="965.0" x2="933.0" y1="13.0" y2="13.0" /><line stroke="#333" stroke-width="10" x1="1029.0" x2="1029.0" y1="13.0" y2="5.0" /><line stroke="#333" stroke-width="10" x1="965.0" x2="965.0" y1="5.0" y2="13.0" /><line stroke="#333" stroke-width="10" x1="1029.0" x2="965.0" y1="5.0" y2="5.0" /><line stroke="#999" stroke-width="3" x1="1029.0" x2="965.0" y1="13.0" y2="13.0" /><line stroke="#999" stroke-width="3" x1="965.0" x2="1029.0" y1="77.0" y2="77.0" /><line stroke="#999" stroke-width="3" x1="1029.0" x2="1029.0" y1="77.0" y2="269.0" /><line stroke="#999" stroke-width="3" x1="1029.0" x2="965.0" y1="269.0" y2="269.0" /><line stroke="#999" stroke-width="3" x1="965.0" x2="965.0" y1="269.0" y2="77.0" /><line stroke="#333" stroke-width="10" x1="933.0" x2="933.0" y1="285.0" y2="333.0" /><line stroke="#333" stroke-width="10" x1="933.0" x2="869.0" y1="125.0" y2="125.0" /><line stroke="#333" stroke-width="10" x1="869.0" x2="933.0" y1="285.0" y2="285.0" /><line stroke="#333" stroke-width="10" x1="869.0" x2="869.0" y1="125.0" y2="285.0" /><line stroke="#333" stroke-width="10" x1="1061.0" x2="1061.0" y1="125.0" y2="77.0" /><line stroke="#333" stroke-width="10" x1="1061.0" x2="1125.0" y1="285.0" y2="285.0" /><line stroke="#333" stroke-width="10" x1="1125.0" x2="1125.0" y1="285.0" y2="125.0" /><line stroke="#333" stroke-width="10" x1="1125.0" x2="1061.0" y1="125.0" y2="125.0" /><line stroke="#999" stroke-width="3" x1="1061.0" x2="1061.0" y1="285.0" y2="125.0" /><line stroke="#999" stroke-width="3" x1="933.0" x2="933.0" y1="125.0" y2="285.0" /><line stroke="#333" stroke-width="10" x1="933.0" x2="933.0" y1="333.0" y2="341.0" /><line stroke="#333" stroke-width="10" x1="1061.0" x2="1061.0" y1="333.0" y2="285.0" /><line stroke="#666" stroke-width="20" x1="933.0" x2="1061.0" y1="333.0" y2="333.0" /><line stroke="#333" stroke-width="10" x1="933.0" x2="933.0" y1="341.0" y2="413.0" /><line stroke="#333" stroke-width="10" x1="1061.0" x2="1061.0" y1="341.0" y2="333.0" /><line stroke="#666" stroke-width="20" x1="1061.0" x2="933.0" y1="341.0" y2="341.0" /><line stroke="#333" stroke-width="10" x1="933.0" x2="933.0" y1="413.0" y2="445.0" /><line stroke="#333" stroke-width="10" x1="1061.0" x2="1061.0" y1="413.0" y2="341.0" /><line stroke="#999" stroke-width="3" x1="1061.0" x2="933.0" y1="413.0" y2="413.0" /><line stroke="#333" stroke-width="10" x1="1061.0" x2="1061.0" y1="445.0" y2="413.0" /><line stroke="#333" stroke-width="10" x1="933.0" x2="933.0" y1="445.0" y2="477.0" /><line stroke="#999" stroke-width="3" x1="1061.0" x2="933.0" y1="445.0" y2="445.0" /><line stroke="#333" stroke-width="10" x1="1061.0" x2="1061.0" y1="477.0" y2="445.0" /><line stroke="#333" stroke-width="10" x1="933.0" x2="933.0" y1="477.0" y2="525.0" /><line stroke="#999" stroke-width="3" x1="1061.0" x2="933.0" y1="477.0" y2="477.0" /><line stroke="#333" stroke-width="10" x1="1061.0" x2="1061.0" y1="653.0" y2="589.0" /><line stroke="#333" stroke-width="10" x1="933.0" x2="869.0" y1="653.0" y2="653.0" /><line stroke="#999" stroke-width="3" x1="485.0" x2="485.0" y1="1805.0" y2="877.0" /><line stroke="#999" stroke-width="3" x1="485.0" x2="581.0" y1="877.0" y2="781.0" /><line stroke="#999" stroke-width="3" x1="933.0" x2="1061.0" y1="653.0" y2="653.0" /><line stroke="#333" stroke-width="10" x1="1509.0" x2="1637.0" y1="1933.0" y2="1933.0" /><line stroke="#333" stroke-width="10" x1="1637.0" x2="1701.0" y1="877.0" y2="877.0" /><line stroke="#333" stroke-width="10" x1="1637.0" x2="1637.0" y1="1933.0" y2="1677.0" /><line stroke="#333" stroke-width="10" x1="357.0" x2="485.0" y1="1933.0" y2="1933.0" /><line stroke="#333" stroke-width="10" x1="357.0" x2="357.0" y1="877.0" y2="941.0" /><line stroke="#999" stroke-width="3" x1="485.0" x2="485.0" y1="1805.0" y2="1933.0" /><line stroke="#999" stroke-width="3" x1="1509.0" x2="1509.0" y1="877.0" y2="1805.0" /><line stroke="#999" stroke-width="3" x1="485.0" x2="869.0" y1="1805.0" y2="1805.0" /><line stroke="#999" stroke-width="3" x1="869.0" x2="869.0" y1="1805.0" y2="1773.0" /><line stroke="#999" stroke-width="3" x1="1125.0" x2="1509.0" y1="1805.0" y2="1805.0" /><line stroke="#999" stroke-width="3" x1="869.0" x2="1125.0" y1="1677.0" y2="1677.0" /><line stroke="#999" stroke-width="3" x1="1125.0" x2="1125.0" y1="1677.0" y2="1709.0" /><line stroke="#999" stroke-width="3" x1="1125.0" x2="1125.0" y1="1741.0" y2="1773.0" /><line stroke="#999" stroke-width="3" x1="869.0" x2="869.0" y1="1741.0" y2="1709.0" /><line stroke="#999" stroke-width="3" x1="869.0" x2="1125.0" y1="1741.0" y2="1741.0" /><line stroke="#999" stroke-width="3" x1="869.0" x2="1125.0" y1="1805.0" y2="1805.0" /><line stroke="#999" stroke-width="3" x1="869.0" x2="869.0" y1="1709.0" y2="1677.0" /><line stroke="#999" stroke-width="3" x1="1125.0" x2="1125.0" y1="1709.0" y2="1741.0" /><line stroke="#999" stroke-width="3" x1="869.0" x2="1125.0" y1="1709.0" y2="1709.0" /><line stroke="#999" stroke-width="3" x1="869.0" x2="869.0" y1="1773.0" y2="1741.0" /><line stroke="#999" stroke-width="3" x1="1125.0" x2="1125.0" y1="1773.0" y2="1805.0" /><line stroke="#999" stroke-width="3" x1="869.0" x2="1125.0" y1="1773.0" y2="1773.0" /><line stroke="#333" stroke-width="10" x1="965.0" x2="965.0" y1="1933.0" y2="1949.0" /><line stroke="#333" stroke-width="10" x1="1029.0" x2="1093.0" y1="1933.0" y2="1933.0" /><line stroke="#333" stroke-width="10" x1="965.0" x2="1029.0" y1="1949.0" y2="1949.0" /><line stroke="#333" stroke-width="10" x1="1029.0" x2="1029.0" y1="1949.0" y2="1933.0" /><line stroke="#999" stroke-width="3" x1="1029.0" x2="965.0" y1="1933.0" y2="1933.0" /><line stroke="#333" stroke-width="10" x1="1445.0" x2="1381.0" y1="653.0" y2="653.0" /><line stroke="#999" stroke-width="3" x1="1413.0" x2="1509.0" y1="781.0" y2="877.0" /><line stroke="#999" stroke-width="3" x1="581.0" x2="1413.0" y1="781.0" y2="781.0" /><line stroke="#333" stroke-width="10" x1="549.0" x2="549.0" y1="653.0" y2="589.0" /><line stroke="#333" stroke-width="10" x1="1445.0" x2="1445.0" y1="301.0" y2="589.0" /><line stroke="#999" stroke-width="3" x1="1445.0" x2="1637.0" y1="653.0" y2="877.0" /><line stroke="#333" stroke-width="10" x1="1925.0" x2="1925.0" y1="285.0" y2="301.0" /><line stroke="#333" stroke-width="10" x1="1989.0" x2="1989.0" y1="877.0" y2="301.0" /><line stroke="#333" stroke-width="10" x1="5.0" x2="5.0" y1="301.0" y2="877.0" /><line stroke="#999" stroke-width="3" x1="357.0" x2="549.0" y1="877.0" y2="653.0" /><line stroke="#333" stroke-width="10" x1="549.0" x2="69.0" y1="301.0" y2="301.0" /><line stroke="#333" stroke-width="10" x1="5.0" x2="293.0" y1="877.0" y2="877.0" /><line stroke="#333" stroke-width="10" x1="1925.0" x2="1445.0" y1="301.0" y2="301.0" /><line stroke="#333" stroke-width="10" x1="1989.0" x2="1989.0" y1="301.0" y2="285.0" /><line stroke="#999" stroke-width="3" x1="1989.0" x2="1925.0" y1="301.0" y2="301.0" /><line stroke="#333" stroke-width="10" x1="1989.0" x2="1925.0" y1="285.0" y2="285.0" /><line stroke="#333" stroke-width="10" x1="69.0" x2="69.0" y1="301.0" y2="285.0" /><line stroke="#333" stroke-width="10" x1="69.0" x2="5.0" y1="285.0" y2="285.0" /><line stroke="#333" stroke-width="10" x1="5.0" x2="5.0" y1="285.0" y2="301.0" /><line stroke="#999" stroke-width="3" x1="5.0" x2="69.0" y1="301.0" y2="301.0" /><line stroke="#999" stroke-width="3" x1="837.0" x2="1157.0" y1="1165.0" y2="1165.0" /><line stroke="#999" stroke-width="3" x1="1157.0" x2="1157.0" y1="1165.0" y2="1485.0" /><line stroke="#999" stroke-width="3" x1="1157.0" x2="837.0" y1="1485.0" y2="1485.0" /><line stroke="#999" stroke-width="3" x1="837.0" x2="837.0" y1="1485.0" y2="1165.0" /><line stroke="#333" stroke-width="10" x1="933.0" x2="933.0" y1="589.0" y2="653.0" /><line stroke="#333" stroke-width="10" x1="933.0" x2="917.0" y1="525.0" y2="525.0" /><line stroke="#333" stroke-width="10" x1="1061.0" x2="1061.0" y1="525.0" y2="477.0" /><line stroke="#333" stroke-width="10" x1="1061.0" x2="1077.0" y1="589.0" y2="589.0" /><line stroke="#333" stroke-width="10" x1="805.0" x2="917.0" y1="589.0" y2="589.0" /><line stroke="#333" stroke-width="10" x1="805.0" x2="805.0" y1="525.0" y2="589.0" /><line stroke="#333" stroke-width="10" x1="1189.0" x2="1189.0" y1="589.0" y2="525.0" /><line stroke="#333" stroke-width="10" x1="1189.0" x2="1077.0" y1="525.0" y2="525.0" /><line stroke="#999" stroke-width="3" x1="933.0" x2="933.0" y1="525.0" y2="589.0" /><line stroke="#999" stroke-width="3" x1="1061.0" x2="1061.0" y1="589.0" y2="525.0" /><line stroke="#333" stroke-width="10" x1="917.0" x2="933.0" y1="589.0" y2="589.0" /><line stroke="#333" stroke-width="10" x1="917.0" x2="805.0" y1="525.0" y2="525.0" /><line stroke="#999" stroke-width="3" x1="917.0" x2="917.0" y1="589.0" y2="525.0" /><line stroke="#333" stroke-width="10" x1="1077.0" x2="1189.0" y1="589.0" y2="589.0" /><line stroke="#333" stroke-width="10" x1="1077.0" x2="1061.0" y1="525.0" y2="525.0" /><line stroke="#999" stroke-width="3" x1="1077.0" x2="1077.0" y1="525.0" y2="589.0" /><line stroke="#999" stroke-width="3" x1="741.0" x2="805.0" y1="1037.0" y2="1037.0" /><line stroke="#999" stroke-width="3" x1="805.0" x2="805.0" y1="1037.0" y2="1101.0" /><line stroke="#999" stroke-width="3" x1="805.0" x2="741.0" y1="1101.0" y2="1101.0" /><line stroke="#999" stroke-width="3" x1="741.0" x2="741.0" y1="1101.0" y2="1037.0" /><line stroke="#999" stroke-width="3" x1="1189.0" x2="1253.0" y1="1037.0" y2="1037.0" /><line stroke="#999" stroke-width="3" x1="1253.0" x2="1253.0" y1="1037.0" y2="1101.0" /><line stroke="#999" stroke-width="3" x1="1253.0" x2="1189.0" y1="1101.0" y2="1101.0" /><line stroke="#999" stroke-width="3" x1="1189.0" x2="1189.0" y1="1101.0" y2="1037.0" /><line stroke="#999" stroke-width="3" x1="741.0" x2="805.0" y1="1485.0" y2="1485.0" /><line stroke="#999" stroke-width="3" x1="805.0" x2="805.0" y1="1485.0" y2="1549.0" /><line stroke="#999" stroke-width="3" x1="805.0" x2="741.0" y1="1549.0" y2="1549.0" /><line stroke="#999" stroke-width="3" x1="741.0" x2="741.0" y1="1549.0" y2="1485.0" /><line stroke="#999" stroke-width="3" x1="1189.0" x2="1253.0" y1="1485.0" y2="1485.0" /><line stroke="#999" stroke-width="3" x1="1253.0" x2="1253.0" y1="1485.0" y2="1549.0" /><line stroke="#999" stroke-width="3" x1="1253.0" x2="1189.0" y1="1549.0" y2="1549.0" /><line stroke="#999" stroke-width="3" x1="1189.0" x2="1189.0" y1="1549.0" y2="1485.0" /><line stroke="#333" stroke-width="10" x1="1637.0" x2="1653.0" y1="1677.0" y2="1677.0" /><line stroke="#333" stroke-width="10" x1="1637.0" x2="1637.0" y1="1325.0" y2="1261.0" /><line stroke="#333" stroke-width="10" x1="1765.0" x2="1765.0" y1="1677.0" y2="1421.0" /><line stroke="#333" stroke-width="10" x1="1765.0" x2="1653.0" y1="1421.0" y2="1325.0" /><line stroke="#999" stroke-width="3" x1="1637.0" x2="1637.0" y1="1677.0" y2="1325.0" /><line stroke="#333" stroke-width="10" x1="357.0" x2="357.0" y1="1677.0" y2="1933.0" /><line stroke="#333" stroke-width="10" x1="357.0" x2="341.0" y1="1325.0" y2="1325.0" /><line stroke="#333" stroke-width="10" x1="229.0" x2="341.0" y1="1677.0" y2="1677.0" /><line stroke="#333" stroke-width="10" x1="229.0" x2="229.0" y1="1421.0" y2="1677.0" /><line stroke="#999" stroke-width="3" x1="357.0" x2="357.0" y1="1325.0" y2="1677.0" /><line stroke="#333" stroke-width="10" x1="901.0" x2="965.0" y1="1933.0" y2="1933.0" /><line stroke="#333" stroke-width="10" x1="581.0" x2="581.0" y1="1933.0" y2="1965.0" /><line stroke="#333" stroke-width="10" x1="581.0" x2="837.0" y1="2205.0" y2="2205.0" /><line stroke="#333" stroke-width="10" x1="1413.0" x2="1413.0" y1="2205.0" y2="1997.0" /><line stroke="#333" stroke-width="10" x1="901.0" x2="901.0" y1="1997.0" y2="1965.0" /><line stroke="#333" stroke-width="10" x1="1093.0" x2="901.0" y1="1997.0" y2="1997.0" /><line stroke="#333" stroke-width="10" x1="1413.0" x2="1413.0" y1="1997.0" y2="1965.0" /><line stroke="#999" stroke-width="3" x1="581.0" x2="901.0" y1="1933.0" y2="1933.0" /><line stroke="#333" stroke-width="10" x1="1093.0" x2="1093.0" y1="1933.0" y2="1965.0" /><line stroke="#999" stroke-width="3" x1="1093.0" x2="1413.0" y1="1933.0" y2="1933.0" /><line stroke="#333" stroke-width="10" x1="1413.0" x2="1509.0" y1="1933.0" y2="1933.0" /><line stroke="#333" stroke-width="10" x1="581.0" x2="581.0" y1="1997.0" y2="2205.0" /><line stroke="#999" stroke-width="3" x1="901.0" x2="581.0" y1="1997.0" y2="1997.0" /><line stroke="#999" stroke-width="3" x1="1413.0" x2="1093.0" y1="1997.0" y2="1997.0" /><line stroke="#333" stroke-width="10" x1="581.0" x2="581.0" y1="1965.0" y2="1997.0" /><line stroke="#333" stroke-width="10" x1="901.0" x2="901.0" y1="1965.0" y2="1933.0" /><line stroke="#333" stroke-width="10" x1="1093.0" x2="1093.0" y1="1965.0" y2="1997.0" /><line stroke="#333" stroke-width="10" x1="1413.0" x2="1413.0" y1="1965.0" y2="1933.0" /><line stroke="#999" stroke-width="3" x1="1093.0" x2="1413.0" y1="1965.0" y2="1965.0" /><line stroke="#999" stroke-width="3" x1="581.0" x2="901.0" y1="1965.0" y2="1965.0" /><line stroke="#333" stroke-width="10" x1="901.0" x2="901.0" y1="2189.0" y2="2205.0" /><line stroke="#333" stroke-width="10" x1="1093.0" x2="1157.0" y1="2189.0" y2="2189.0" /><line stroke="#333" stroke-width="10" x1="901.0" x2="965.0" y1="2349.0" y2="2349.0" /><line stroke="#333" stroke-width="10" x1="1109.0" x2="1109.0" y1="2333.0" y2="2269.0" /><line stroke="#999" stroke-width="3" x1="901.0" x2="1093.0" y1="2189.0" y2="2189.0" /><line stroke="#333" stroke-width="10" x1="901.0" x2="885.0" y1="2205.0" y2="2205.0" /><line stroke="#333" stroke-width="10" x1="1093.0" x2="1093.0" y1="2205.0" y2="2189.0" /><line stroke="#999" stroke-width="3" x1="901.0" x2="1093.0" y1="2205.0" y2="2205.0" /><line stroke="#333" stroke-width="10" x1="901.0" x2="901.0" y1="2333.0" y2="2349.0" /><line stroke="#333" stroke-width="10" x1="1093.0" x2="1093.0" y1="2349.0" y2="2333.0" /><line stroke="#333" stroke-width="10" x1="341.0" x2="357.0" y1="1677.0" y2="1677.0" /><line stroke="#333" stroke-width="10" x1="341.0" x2="229.0" y1="1325.0" y2="1421.0" /><line stroke="#999" stroke-width="3" x1="341.0" x2="341.0" y1="1677.0" y2="1325.0" /><line stroke="#333" stroke-width="10" x1="1653.0" x2="1637.0" y1="1325.0" y2="1325.0" /><line stroke="#333" stroke-width="10" x1="1653.0" x2="1765.0" y1="1677.0" y2="1677.0" /><line stroke="#999" stroke-width="3" x1="1653.0" x2="1653.0" y1="1325.0" y2="1677.0" /><line stroke="#999" stroke-width="3" x1="773.0" x2="1221.0" y1="2061.0" y2="2061.0" /><line stroke="#999" stroke-width="3" x1="1221.0" x2="1221.0" y1="2061.0" y2="2125.0" /><line stroke="#999" stroke-width="3" x1="1221.0" x2="773.0" y1="2125.0" y2="2125.0" /><line stroke="#999" stroke-width="3" x1="773.0" x2="773.0" y1="2125.0" y2="2061.0" /><line stroke="#0d0" stroke-width="20" x1="965.0" x2="1029.0" y1="2349.0" y2="2349.0" /><line stroke="#333" stroke-width="10" x1="1029.0" x2="1093.0" y1="2349.0" y2="2349.0" /><line stroke="#333" stroke-width="10" x1="885.0" x2="885.0" y1="2205.0" y2="2269.0" /><line stroke="#333" stroke-width="10" x1="1109.0" x2="1093.0" y1="2205.0" y2="2205.0" /><line stroke="#333" stroke-width="10" x1="1093.0" x2="1109.0" y1="2333.0" y2="2333.0" /><line stroke="#333" stroke-width="10" x1="885.0" x2="901.0" y1="2333.0" y2="2333.0" /><line stroke="#333" stroke-width="10" x1="885.0" x2="885.0" y1="2269.0" y2="2333.0" /><line stroke="#333" stroke-width="10" x1="1109.0" x2="1109.0" y1="2269.0" y2="2205.0" /><line stroke="#333" stroke-width="10" x1="837.0" x2="901.0" y1="2189.0" y2="2189.0" /><line stroke="#333" stroke-width="10" x1="1157.0" x2="1157.0" y1="2189.0" y2="2205.0" /><line stroke="#333" stroke-width="10" x1="1157.0" x2="1413.0" y1="2205.0" y2="2205.0" /><line stroke="#333" stroke-width="10" x1="837.0" x2="837.0" y1="2205.0" y2="2189.0" /><line stroke="#333" stroke-width="10" x1="357.0" x2="357.0" y1="1261.0" y2="1325.0" /><line stroke="#333" stroke-width="10" x1="357.0" x2="341.0" y1="941.0" y2="941.0" /><line stroke="#333" stroke-width="10" x1="341.0" x2="341.0" y1="941.0" y2="1261.0" /><line stroke="#333" stroke-width="10" x1="341.0" x2="357.0" y1="1261.0" y2="1261.0" /><line stroke="#999" stroke-width="3" x1="357.0" x2="357.0" y1="1261.0" y2="941.0" /><line stroke="#333" stroke-width="10" x1="1637.0" x2="1637.0" y1="941.0" y2="877.0" /><line stroke="#333" stroke-width="10" x1="1637.0" x2="1653.0" y1="1261.0" y2="1261.0" /><line stroke="#333" stroke-width="10" x1="1653.0" x2="1653.0" y1="1261.0" y2="941.0" /><line stroke="#333" stroke-width="10" x1="1653.0" x2="1637.0" y1="941.0" y2="941.0" /><line stroke="#999" stroke-width="3" x1="1637.0" x2="1637.0" y1="941.0" y2="1261.0" /><line stroke="#333" stroke-width="10" x1="869.0" x2="869.0" y1="653.0" y2="637.0" /><line stroke="#333" stroke-width="10" x1="1125.0" x2="1061.0" y1="653.0" y2="653.0" /><line stroke="#333" stroke-width="10" x1="1381.0" x2="1381.0" y1="653.0" y2="637.0" /><line stroke="#333" stroke-width="10" x1="1125.0" x2="1125.0" y1="637.0" y2="653.0" /><line stroke="#333" stroke-width="10" x1="1381.0" x2="1125.0" y1="637.0" y2="637.0" /><line stroke="#333" stroke-width="10" x1="613.0" x2="549.0" y1="653.0" y2="653.0" /><line stroke="#333" stroke-width="10" x1="869.0" x2="613.0" y1="637.0" y2="637.0" /><line stroke="#333" stroke-width="10" x1="613.0" x2="613.0" y1="637.0" y2="653.0" /><line stroke="#999" stroke-width="3" x1="613.0" x2="869.0" y1="653.0" y2="653.0" /><line stroke="#999" stroke-width="3" x1="1125.0" x2="1381.0" y1="653.0" y2="653.0" /><line stroke="#999" stroke-width="3" x1="613.0" x2="741.0" y1="1229.0" y2="1229.0" /><line stroke="#999" stroke-width="3" x1="741.0" x2="741.0" y1="1229.0" y2="1357.0" /><line stroke="#999" stroke-width="3" x1="741.0" x2="613.0" y1="1357.0" y2="1357.0" /><line stroke="#999" stroke-width="3" x1="613.0" x2="613.0" y1="1357.0" y2="1229.0" /><line stroke="#999" stroke-width="3" x1="1253.0" x2="1381.0" y1="1229.0" y2="1229.0" /><line stroke="#999" stroke-width="3" x1="1381.0" x2="1381.0" y1="1229.0" y2="1357.0" /><line stroke="#999" stroke-width="3" x1="1381.0" x2="1253.0" y1="1357.0" y2="1357.0" /><line stroke="#999" stroke-width="3" x1="1253.0" x2="1253.0" y1="1357.0" y2="1229.0" /><line stroke="#333" stroke-width="10" x1="1445.0" x2="1445.0" y1="589.0" y2="653.0" /><line stroke="#333" stroke-width="10" x1="1701.0" x2="1989.0" y1="877.0" y2="877.0" /><line stroke="#333" stroke-width="10" x1="293.0" x2="357.0" y1="877.0" y2="877.0" /><line stroke="#333" stroke-width="10" x1="549.0" x2="549.0" y1="589.0" y2="301.0" /><line stroke="#00d" stroke-width="20" x1="1445.0" x2="1701.0" y1="589.0" y2="877.0" /><line stroke="#00d" stroke-width="20" x1="293.0" x2="549.0" y1="877.0" y2="589.0" /><line stroke="#333" stroke-width="10" x1="1061.0" x2="1069.0" y1="77.0" y2="77.0" /><line stroke="#333" stroke-width="10" x1="1189.0" x2="1189.0" y1="77.0" y2="13.0" /><line stroke="#333" stroke-width="10" x1="1189.0" x2="1133.0" y1="13.0" y2="13.0" /><line stroke="#333" stroke-width="10" x1="1069.0" x2="1133.0" y1="77.0" y2="77.0" /><line stroke="#333" stroke-width="10" x1="1069.0" x2="1061.0" y1="13.0" y2="13.0" /><line stroke="#666" stroke-width="20" x1="1061.0" x2="1061.0" y1="77.0" y2="13.0" /><line stroke="#666" stroke-width="20" x1="1069.0" x2="1069.0" y1="13.0" y2="77.0" /><line stroke="#333" stroke-width="10" x1="1133.0" x2="1189.0" y1="77.0" y2="77.0" /><line stroke="#333" stroke-width="10" x1="1133.0" x2="1069.0" y1="13.0" y2="13.0" /><line stroke="#999" stroke-width="3" x1="1133.0" x2="1133.0" y1="77.0" y2="13.0" /><rect fill="#900" height="48" stroke="#900" stroke-width="5" transform="rotate(270,997.0,1325.0)" width="32" x="981.0" y="1301.0" /><ellipse cx="994.0" cy="85.0" fill="#009" rx="12" ry="24" stroke="#009" stroke-width="5" /><rect fill="#090" height="24" stroke="#090" stroke-width="5" transform="rotate(0,891.0,201.0)" width="24" x="879.0" y="189.0" /><rect fill="#090" height="24" stroke="#090" stroke-width="5" transform="rotate(0,1102.0,204.0)" width="24" x="1090.0" y="192.0" /><rect fill="#090" height="24" stroke="#090" stroke-width="5" transform="rotate(0,1040.0,623.0)" width="24" x="1028.0" y="611.0" /><rect fill="#090" height="24" stroke="#090" stroke-width="5" transform="rotate(0,961.0,47.0)" width="24" x="949.0" y="35.0" /><circle cx="1079.0" cy="163.0" fill="#900" r="16" stroke="#900" stroke-width="5" /><circle cx="909.0" cy="245.0" fill="#090" r="16" stroke="#090" stroke-width="5" /><circle cx="909.0" cy="245.0" fill="#090" r="16" stroke="#090" stroke-width="5" /><circle cx="909.0" cy="245.0" fill="#090" r="16" stroke="#090" stroke-width="5" /><circle cx="909.0" cy="245.0" fill="#090" r="16" stroke="#090" stroke-width="5" /><circle cx="909.0" cy="245.0" fill="#090" r="16" stroke="#090" stroke-width="5" /><circle cx="1085.0" cy="245.0" fill="#090" r="16" stroke="#090" stroke-width="5" /><circle cx="1085.0" cy="245.0" fill="#090" r="16" stroke="#090" stroke-width="5" /><circle cx="1085.0" cy="245.0" fill="#090" r="16" stroke="#090" stroke-width="5" /><circle cx="1085.0" cy="245.0" fill="#090" r="16" stroke="#090" stroke-width="5" /><circle cx="1085.0" cy="245.0" fill="#090" r="16" stroke="#090" stroke-width="5" /><circle cx="909.0" cy="165.0" fill="#009" r="16" stroke="#009" stroke-width="5" /><circle cx="997.0" cy="237.0" fill="#009" r="16" stroke="#009" stroke-width="5" /><circle cx="837.0" cy="557.0" fill="#009" r="16" stroke="#009" stroke-width="5" /><circle cx="1157.0" cy="557.0" fill="#900" r="16" stroke="#900" stroke-width="5" /><circle cx="1109.0" cy="557.0" fill="#090" r="16" stroke="#090" stroke-width="5" /><circle cx="453.0" cy="1093.0" fill="#090" r="16" stroke="#090" stroke-width="5" /><circle cx="1541.0" cy="1077.0" fill="#090" r="16" stroke="#090" stroke-width="5" /><circle cx="1605.0" cy="1893.0" fill="#090" r="16" stroke="#090" stroke-width="5" /><circle cx="389.0" cy="1893.0" fill="#090" r="16" stroke="#090" stroke-width="5" /><circle cx="309.0" cy="1645.0" fill="#009" r="16" stroke="#009" stroke-width="5" /><circle cx="261.0" cy="1645.0" fill="#009" r="16" stroke="#009" stroke-width="5" /><circle cx="293.0" cy="1549.0" fill="#900" r="16" stroke="#900" stroke-width="5" /><circle cx="261.0" cy="1437.0" fill="#090" r="16" stroke="#090" stroke-width="5" /><rect fill="#090" height="24" stroke="#090" stroke-width="5" transform="rotate(0,309.0,1405.0)" width="24" x="297.0" y="1393.0" /><circle cx="309.0" cy="1469.0" fill="#090" r="16" stroke="#090" stroke-width="5" /><circle cx="261.0" cy="1501.0" fill="#090" r="16" stroke="#090" stroke-width="5" /><circle cx="309.0" cy="1597.0" fill="#090" r="16" stroke="#090" stroke-width="5" /><circle cx="261.0" cy="1597.0" fill="#090" r="16" stroke="#090" stroke-width="5" /><circle cx="1685.0" cy="1597.0" fill="#090" r="16" stroke="#090" stroke-width="5" /><circle cx="1733.0" cy="1597.0" fill="#090" r="16" stroke="#090" stroke-width="5" /><circle cx="1733.0" cy="1501.0" fill="#090" r="16" stroke="#090" stroke-width="5" /><circle cx="1685.0" cy="1453.0" fill="#090" r="16" stroke="#090" stroke-width="5" /><rect fill="#090" height="24" stroke="#090" stroke-width="5" transform="rotate(0,1685.0,1389.0)" width="24" x="1673.0" y="1377.0" /><circle cx="1733.0" cy="1437.0" fill="#090" r="16" stroke="#090" stroke-width="5" /><circle cx="1701.0" cy="1549.0" fill="#900" r="16" stroke="#900" stroke-width="5" /><circle cx="1685.0" cy="1645.0" fill="#009" r="16" stroke="#009" stroke-width="5" /><circle cx="1733.0" cy="1645.0" fill="#009" r="16" stroke="#009" stroke-width="5" /><rect fill="#090" height="24" stroke="#090" stroke-width="5" transform="rotate(0,1957.0,781.0)" width="24" x="1945.0" y="769.0" /><rect fill="#090" height="24" stroke="#090" stroke-width="5" transform="rotate(0,1141.0,2141.0)" width="24" x="1129.0" y="2129.0" /><rect fill="#090" height="24" stroke="#090" stroke-width="5" transform="rotate(0,37.0,397.0)" width="24" x="25.0" y="385.0" /><rect fill="#090" height="24" stroke="#090" stroke-width="5" transform="rotate(0,645.0,2093.0)" width="24" x="633.0" y="2081.0" /><rect fill="#090" height="24" stroke="#090" stroke-width="5" transform="rotate(0,837.0,2141.0)" width="24" x="825.0" y="2129.0" /><rect fill="#090" height="24" stroke="#090" stroke-width="5" transform="rotate(0,1045.0,2045.0)" width="24" x="1033.0" y="2033.0" /><rect fill="#090" height="24" stroke="#090" stroke-width="5" transform="rotate(0,741.0,2125.0)" width="24" x="729.0" y="2113.0" /><rect fill="#090" height="24" stroke="#090" stroke-width="5" transform="rotate(0,1205.0,2045.0)" width="24" x="1193.0" y="2033.0" /><rect fill="#090" height="24" stroke="#090" stroke-width="5" transform="rotate(0,773.0,2029.0)" width="24" x="761.0" y="2017.0" /><rect fill="#090" height="24" stroke="#090" stroke-width="5" transform="rotate(0,885.0,2109.0)" width="24" x="873.0" y="2097.0" /><rect fill="#090" height="24" stroke="#090" stroke-width="5" transform="rotate(0,1541.0,1725.0)" width="24" x="1529.0" y="1713.0" /><ellipse cx="1030.0" cy="115.0" fill="#009" rx="12" ry="24" stroke="#009" stroke-width="5" /><ellipse cx="958.0" cy="113.0" fill="#009" rx="12" ry="24" stroke="#009" stroke-width="5" /><ellipse cx="996.0" cy="161.0" fill="#009" rx="12" ry="24" stroke="#009" stroke-width="5" /><rect fill="#090" height="24" stroke="#090" stroke-width="5" transform="rotate(90,997.0,381.0)" width="24" x="985.0" y="369.0" /><rect fill="#090" height="24" stroke="#090" stroke-width="5" transform="rotate(0,85.0,829.0)" width="24" x="73.0" y="817.0" /><rect fill="#090" height="24" stroke="#090" stroke-width="5" transform="rotate(180,1837.0,842.0)" width="24" x="1825.0" y="830.0" /><circle cx="1761.0" cy="842.0" fill="#900" r="16" stroke="#900" stroke-width="5" /><circle cx="277.0" cy="829.0" fill="#900" r="16" stroke="#900" stroke-width="5" /><circle cx="997.0" cy="2125.0" fill="#900" r="16" stroke="#900" stroke-width="5" /><rect fill="#090" height="24" stroke="#090" stroke-width="5" transform="rotate(0,253.0,1549.0)" width="24" x="241.0" y="1537.0" /><rect fill="#090" height="24" stroke="#090" stroke-width="5" transform="rotate(180,1741.0,1549.0)" width="24" x="1729.0" y="1537.0" /><rect fill="#090" height="24" stroke="#090" stroke-width="5" transform="rotate(0,1285.0,2125.0)" width="24" x="1273.0" y="2113.0" /><rect fill="#900" height="48" stroke="#900" stroke-width="5" transform="rotate(45,293.0,717.0)" width="32" x="277.0" y="693.0" /><rect fill="#900" height="48" stroke="#900" stroke-width="5" transform="rotate(45,101.0,717.0)" width="32" x="85.0" y="693.0" /><rect fill="#900" height="48" stroke="#900" stroke-width="5" transform="rotate(45,229.0,589.0)" width="32" x="213.0" y="565.0" /><rect fill="#900" height="48" stroke="#900" stroke-width="5" transform="rotate(45,101.0,525.0)" width="32" x="85.0" y="501.0" /><rect fill="#900" height="48" stroke="#900" stroke-width="5" transform="rotate(45,229.0,397.0)" width="32" x="213.0" y="373.0" /><rect fill="#900" height="48" stroke="#900" stroke-width="5" transform="rotate(45,421.0,397.0)" width="32" x="405.0" y="373.0" /><rect fill="#900" height="48" stroke="#900" stroke-width="5" transform="rotate(45,484.0,536.0)" width="32" x="468.0" y="512.0" /><rect fill="#900" height="48" stroke="#900" stroke-width="5" transform="rotate(135,1746.0,774.0)" width="32" x="1730.0" y="750.0" /><rect fill="#900" height="48" stroke="#900" stroke-width="5" transform="rotate(135,1565.0,572.0)" width="32" x="1549.0" y="548.0" /><rect fill="#900" height="48" stroke="#900" stroke-width="5" transform="rotate(135,1526.0,407.0)" width="32" x="1510.0" y="383.0" /><rect fill="#900" height="48" stroke="#900" stroke-width="5" transform="rotate(135,1892.0,682.0)" width="32" x="1876.0" y="658.0" /><rect fill="#900" height="48" stroke="#900" stroke-width="5" transform="rotate(135,1713.0,410.0)" width="32" x="1697.0" y="386.0" /><rect fill="#900" height="48" stroke="#900" stroke-width="5" transform="rotate(135,1877.0,397.0)" width="32" x="1861.0" y="373.0" /><rect fill="#900" height="48" stroke="#900" stroke-width="5" transform="rotate(135,1901.0,550.0)" width="32" x="1885.0" y="526.0" /><rect fill="#900" height="48" stroke="#900" stroke-width="5" transform="rotate(135,1734.0,590.0)" width="32" x="1718.0" y="566.0" /><rect fill="#900" height="48" stroke="#900" stroke-width="5" transform="rotate(45,357.0,525.0)" width="32" x="341.0" y="501.0" /><rect fill="#009" height="24" stroke="#009" stroke-width="5" transform="rotate(270,677.0,1293.0)" width="24" x="665.0" y="1281.0" /><rect fill="#009" height="24" stroke="#009" stroke-width="5" transform="rotate(270,1317.0,1293.0)" width="24" x="1305.0" y="1281.0" /><circle cx="37.0" cy="333.0" fill="#090" r="16" stroke="#090" stroke-width="5" /><circle cx="1957.0" cy="333.0" fill="#090" r="16" stroke="#090" stroke-width="5" /><circle cx="1893.0" cy="333.0" fill="#090" r="16" stroke="#090" stroke-width="5" /><circle cx="101.0" cy="333.0" fill="#090" r="16" stroke="#090" stroke-width="5" /><circle cx="869.0" cy="2029.0" fill="#090" r="16" stroke="#090" stroke-width="5" /><circle cx="1165.0" cy="45.0" fill="#090" r="16" stroke="#090" stroke-width="5" /><circle cx="1165.0" cy="45.0" fill="#090" r="16" stroke="#090" stroke-width="5" /><rect fill="#090" height="24" stroke="#090" stroke-width="5" transform="rotate(270,997.0,1877.0)" width="24" x="985.0" y="1865.0" /><circle cx="33.0" cy="846.0" fill="#009" r="16" stroke="#009" stroke-width="5" /><circle cx="1965.0" cy="850.0" fill="#009" r="16" stroke="#009" stroke-width="5" /></svg>