<?xml version="1.0" encoding="utf-8" ?>
<svg baseProfile="tiny" height="915" version="1.2" viewBox="0 0 5130 4586" width="1024" xmlns="http://www.w3.org/2000/svg" xmlns:ev="http://www.w3.org/2001/xml-events" xmlns:xlink="http://www.w3.org/1999/xlink"><defs /><line stroke="#333" stroke-width="10" x1="5.0" x2="5125.0" y1="4485.0" y2="4485.0" /><line stroke="#333" stroke-width="10" x1="5125.0" x2="5125.0" y1="4485.0" y2="5.0" /><line stroke="#333" stroke-width="10" x1="5125.0" x2="5.0" y1="5.0" y2="5.0" /><line stroke="#333" stroke-width="10" x1="5.0" x2="5.0" y1="5.0" y2="4485.0" /><line stroke="#999" stroke-width="3" x1="37.0" x2="5093.0" y1="4453.0" y2="4453.0" /><line stroke="#999" stroke-width="3" x1="5093.0" x2="5093.0" y1="4453.0" y2="37.0" /><line stroke="#999" stroke-width="3" x1="5093.0" x2="37.0" y1="37.0" y2="37.0" /><line stroke="#999" stroke-width="3" x1="37.0" x2="37.0" y1="37.0" y2="4453.0" /><line stroke="#999" stroke-width="3" x1="3013.0" x2="3013.0" y1="1925.0" y2="2053.0" /><line stroke="#999" stroke-width="3" x1="2693.0" x2="2725.0" y1="1349.0" y2="1349.0" /><line stroke="#999" stroke-width="3" x1="2469.0" x2="2501.0" y1="1157.0" y2="1157.0" /><line stroke="#999" stroke-width="3" x1="2309.0" x2="2373.0" y1="1733.0" y2="1669.0" /><line stroke="#999" stroke-width="3" x1="2117.0" x2="2117.0" y1="2053.0" y2="1925.0" /><line stroke="#999" stroke-width="3" x1="2757.0" x2="2821.0" y1="1669.0" y2="1733.0" /><line stroke="#999" stroke-width="3" x1="2629.0" x2="2661.0" y1="1157.0" y2="1157.0" /><line stroke="#999" stroke-width="3" x1="2405.0" x2="2437.0" y1="1349.0" y2="1349.0" /><line stroke="#999" stroke-width="3" x1="2117.0" x2="2117.0" y1="2373.0" y2="2181.0" /><line stroke="#999" stroke-width="3" x1="2725.0" x2="2757.0" y1="1413.0" y2="1413.0" /><line stroke="#999" stroke-width="3" x1="2501.0" x2="2629.0" y1="1029.0" y2="1029.0" /><line stroke="#999" stroke-width="3" x1="2373.0" x2="2405.0" y1="1413.0" y2="1413.0" /><line stroke="#999" stroke-width="3" x1="2181.0" x2="2181.0" y1="1861.0" y2="1733.0" /><line stroke="#999" stroke-width="3" x1="2949.0" x2="2949.0" y1="1733.0" y2="1861.0" /><line stroke="#999" stroke-width="3" x1="2661.0" x2="2693.0" y1="1285.0" y2="1285.0" /><line stroke="#999" stroke-width="3" x1="2437.0" x2="2469.0" y1="1285.0" y2="1285.0" /><line stroke="#999" stroke-width="3" x1="3013.0" x2="3269.0" y1="2053.0" y2="2053.0" /><line stroke="#999" stroke-width="3" x1="2725.0" x2="2725.0" y1="1349.0" y2="1413.0" /><line stroke="#999" stroke-width="3" x1="2501.0" x2="2501.0" y1="1157.0" y2="1029.0" /><line stroke="#999" stroke-width="3" x1="2373.0" x2="2373.0" y1="1669.0" y2="1413.0" /><line stroke="#999" stroke-width="3" x1="2117.0" x2="2181.0" y1="1925.0" y2="1861.0" /><line stroke="#999" stroke-width="3" x1="2821.0" x2="2949.0" y1="1733.0" y2="1733.0" /><line stroke="#999" stroke-width="3" x1="2661.0" x2="2661.0" y1="1157.0" y2="1285.0" /><line stroke="#999" stroke-width="3" x1="2437.0" x2="2437.0" y1="1349.0" y2="1285.0" /><line stroke="#999" stroke-width="3" x1="2117.0" x2="1861.0" y1="2181.0" y2="2181.0" /><line stroke="#999" stroke-width="3" x1="2757.0" x2="2757.0" y1="1413.0" y2="1669.0" /><line stroke="#999" stroke-width="3" x1="2629.0" x2="2629.0" y1="1029.0" y2="1157.0" /><line stroke="#999" stroke-width="3" x1="2405.0" x2="2405.0" y1="1413.0" y2="1349.0" /><line stroke="#999" stroke-width="3" x1="2181.0" x2="2309.0" y1="1733.0" y2="1733.0" /><line stroke="#999" stroke-width="3" x1="2949.0" x2="3013.0" y1="1861.0" y2="1925.0" /><line stroke="#999" stroke-width="3" x1="2693.0" x2="2693.0" y1="1285.0" y2="1349.0" /><line stroke="#999" stroke-width="3" x1="2469.0" x2="2469.0" y1="1285.0" y2="1157.0" /><line stroke="#999" stroke-width="3" x1="2117.0" x2="2117.0" y1="2053.0" y2="2181.0" /><line stroke="#999" stroke-width="3" x1="1861.0" x2="2117.0" y1="2053.0" y2="2053.0" /><line stroke="#999" stroke-width="3" x1="1861.0" x2="1861.0" y1="2181.0" y2="2629.0" /><line stroke="#999" stroke-width="3" x1="2757.0" x2="2757.0" y1="2949.0" y2="3205.0" /><line stroke="#999" stroke-width="3" x1="3013.0" x2="2949.0" y1="2373.0" y2="2437.0" /><line stroke="#999" stroke-width="3" x1="2181.0" x2="2181.0" y1="2629.0" y2="2437.0" /><line stroke="#999" stroke-width="3" x1="2949.0" x2="2949.0" y1="2437.0" y2="2629.0" /><line stroke="#999" stroke-width="3" x1="2373.0" x2="2373.0" y1="3205.0" y2="2949.0" /><line stroke="#999" stroke-width="3" x1="2181.0" x2="2117.0" y1="2437.0" y2="2373.0" /><line stroke="#999" stroke-width="3" x1="3013.0" x2="3013.0" y1="2181.0" y2="2373.0" /><line stroke="#999" stroke-width="3" x1="2437.0" x2="2181.0" y1="2629.0" y2="2629.0" /><line stroke="#999" stroke-width="3" x1="2693.0" x2="2693.0" y1="2629.0" y2="2885.0" /><line stroke="#999" stroke-width="3" x1="2693.0" x2="2437.0" y1="3269.0" y2="3269.0" /><line stroke="#999" stroke-width="3" x1="2437.0" x2="2437.0" y1="2885.0" y2="2629.0" /><line stroke="#999" stroke-width="3" x1="2693.0" x2="2757.0" y1="2885.0" y2="2949.0" /><line stroke="#999" stroke-width="3" x1="2949.0" x2="2693.0" y1="2629.0" y2="2629.0" /><line stroke="#999" stroke-width="3" x1="2757.0" x2="2693.0" y1="3205.0" y2="3269.0" /><line stroke="#999" stroke-width="3" x1="2437.0" x2="2373.0" y1="3269.0" y2="3205.0" /><line stroke="#999" stroke-width="3" x1="2373.0" x2="2437.0" y1="2949.0" y2="2885.0" /><line stroke="#999" stroke-width="3" x1="2725.0" x2="2693.0" y1="3205.0" y2="3205.0" /><line stroke="#999" stroke-width="3" x1="2725.0" x2="2725.0" y1="3077.0" y2="3205.0" /><line stroke="#999" stroke-width="3" x1="2693.0" x2="2725.0" y1="3077.0" y2="3077.0" /><line stroke="#999" stroke-width="3" x1="2693.0" x2="2693.0" y1="3205.0" y2="3173.0" /><line stroke="#999" stroke-width="3" x1="2437.0" x2="2405.0" y1="3205.0" y2="3205.0" /><line stroke="#999" stroke-width="3" x1="2437.0" x2="2437.0" y1="3077.0" y2="3109.0" /><line stroke="#999" stroke-width="3" x1="2405.0" x2="2437.0" y1="3077.0" y2="3077.0" /><line stroke="#999" stroke-width="3" x1="2405.0" x2="2405.0" y1="3205.0" y2="3077.0" /><line stroke="#999" stroke-width="3" x1="2629.0" x2="2501.0" y1="3205.0" y2="3205.0" /><line stroke="#999" stroke-width="3" x1="2629.0" x2="2629.0" y1="3077.0" y2="3205.0" /><line stroke="#999" stroke-width="3" x1="2501.0" x2="2629.0" y1="3077.0" y2="3077.0" /><line stroke="#999" stroke-width="3" x1="2501.0" x2="2501.0" y1="3205.0" y2="3077.0" /><line stroke="#999" stroke-width="3" x1="1861.0" x2="1861.0" y1="2181.0" y2="2053.0" /><line stroke="#999" stroke-width="3" x1="1797.0" x2="1861.0" y1="1861.0" y2="1925.0" /><line stroke="#999" stroke-width="3" x1="1669.0" x2="1797.0" y1="1861.0" y2="1861.0" /><line stroke="#999" stroke-width="3" x1="1605.0" x2="1605.0" y1="2629.0" y2="1925.0" /><line stroke="#999" stroke-width="3" x1="1605.0" x2="1669.0" y1="1925.0" y2="1861.0" /><line stroke="#999" stroke-width="3" x1="1861.0" x2="1797.0" y1="2629.0" y2="2629.0" /><line stroke="#999" stroke-width="3" x1="1861.0" x2="1861.0" y1="1925.0" y2="2053.0" /><line stroke="#999" stroke-width="3" x1="2437.0" x2="2437.0" y1="3109.0" y2="3173.0" /><line stroke="#999" stroke-width="3" x1="2437.0" x2="2437.0" y1="3173.0" y2="3205.0" /><line stroke="#999" stroke-width="3" x1="2693.0" x2="2693.0" y1="3109.0" y2="3077.0" /><line stroke="#999" stroke-width="3" x1="2693.0" x2="2693.0" y1="3173.0" y2="3109.0" /><line stroke="#999" stroke-width="3" x1="1797.0" x2="1669.0" y1="2629.0" y2="2629.0" /><line stroke="#999" stroke-width="3" x1="1669.0" x2="1669.0" y1="3397.0" y2="3269.0" /><line stroke="#999" stroke-width="3" x1="1797.0" x2="1669.0" y1="3397.0" y2="3397.0" /><line stroke="#999" stroke-width="3" x1="1797.0" x2="1797.0" y1="2629.0" y2="2693.0" /><line stroke="#999" stroke-width="3" x1="1669.0" x2="1605.0" y1="2629.0" y2="2629.0" /><line stroke="#999" stroke-width="3" x1="1669.0" x2="1797.0" y1="3205.0" y2="3205.0" /><line stroke="#999" stroke-width="3" x1="1797.0" x2="1669.0" y1="2693.0" y2="2693.0" /><line stroke="#999" stroke-width="3" x1="1797.0" x2="1797.0" y1="3205.0" y2="3269.0" /><line stroke="#999" stroke-width="3" x1="1669.0" x2="1669.0" y1="3205.0" y2="3141.0" /><line stroke="#999" stroke-width="3" x1="1797.0" x2="1797.0" y1="3269.0" y2="3397.0" /><line stroke="#999" stroke-width="3" x1="1797.0" x2="1797.0" y1="2693.0" y2="2757.0" /><line stroke="#999" stroke-width="3" x1="1669.0" x2="1669.0" y1="2693.0" y2="2629.0" /><line stroke="#999" stroke-width="3" x1="1669.0" x2="1669.0" y1="3269.0" y2="3205.0" /><line stroke="#999" stroke-width="3" x1="1669.0" x2="1797.0" y1="3141.0" y2="3141.0" /><line stroke="#999" stroke-width="3" x1="1797.0" x2="1669.0" y1="2757.0" y2="2757.0" /><line stroke="#999" stroke-width="3" x1="1797.0" x2="1797.0" y1="2757.0" y2="2821.0" /><line stroke="#999" stroke-width="3" x1="1669.0" x2="1669.0" y1="2757.0" y2="2693.0" /><line stroke="#999" stroke-width="3" x1="1797.0" x2="1797.0" y1="3141.0" y2="3205.0" /><line stroke="#999" stroke-width="3" x1="1669.0" x2="1669.0" y1="3141.0" y2="3077.0" /><line stroke="#999" stroke-width="3" x1="1669.0" x2="1797.0" y1="3013.0" y2="3013.0" /><line stroke="#999" stroke-width="3" x1="1797.0" x2="1669.0" y1="2885.0" y2="2885.0" /><line stroke="#999" stroke-width="3" x1="1669.0" x2="1669.0" y1="2885.0" y2="2821.0" /><line stroke="#999" stroke-width="3" x1="1797.0" x2="1797.0" y1="3013.0" y2="3077.0" /><line stroke="#999" stroke-width="3" x1="1989.0" x2="1989.0" y1="2757.0" y2="3141.0" /><line stroke="#999" stroke-width="3" x1="1797.0" x2="1989.0" y1="2821.0" y2="2757.0" /><line stroke="#999" stroke-width="3" x1="1797.0" x2="1797.0" y1="2821.0" y2="2885.0" /><line stroke="#999" stroke-width="3" x1="1477.0" x2="1669.0" y1="2757.0" y2="2821.0" /><line stroke="#999" stroke-width="3" x1="1797.0" x2="1797.0" y1="3077.0" y2="3141.0" /><line stroke="#999" stroke-width="3" x1="1669.0" x2="1669.0" y1="3077.0" y2="3013.0" /><line stroke="#999" stroke-width="3" x1="1669.0" x2="1669.0" y1="2821.0" y2="2757.0" /><line stroke="#999" stroke-width="3" x1="1989.0" x2="1797.0" y1="3141.0" y2="3077.0" /><line stroke="#999" stroke-width="3" x1="1477.0" x2="1477.0" y1="3141.0" y2="2757.0" /><line stroke="#999" stroke-width="3" x1="1669.0" x2="1477.0" y1="3077.0" y2="3141.0" /><line stroke="#999" stroke-width="3" x1="1669.0" x2="1797.0" y1="3269.0" y2="3269.0" /><line stroke="#999" stroke-width="3" x1="2053.0" x2="1925.0" y1="2501.0" y2="2501.0" /><line stroke="#999" stroke-width="3" x1="2053.0" x2="2053.0" y1="2373.0" y2="2501.0" /><line stroke="#999" stroke-width="3" x1="1925.0" x2="2053.0" y1="2373.0" y2="2373.0" /><line stroke="#999" stroke-width="3" x1="1925.0" x2="1925.0" y1="2501.0" y2="2373.0" /><line stroke="#999" stroke-width="3" x1="2373.0" x2="2245.0" y1="2821.0" y2="2821.0" /><line stroke="#999" stroke-width="3" x1="2373.0" x2="2373.0" y1="2693.0" y2="2821.0" /><line stroke="#999" stroke-width="3" x1="2245.0" x2="2373.0" y1="2693.0" y2="2693.0" /><line stroke="#999" stroke-width="3" x1="2245.0" x2="2245.0" y1="2821.0" y2="2693.0" /><line stroke="#999" stroke-width="3" x1="2629.0" x2="2501.0" y1="3461.0" y2="3461.0" /><line stroke="#999" stroke-width="3" x1="2629.0" x2="2629.0" y1="3333.0" y2="3461.0" /><line stroke="#999" stroke-width="3" x1="2501.0" x2="2629.0" y1="3333.0" y2="3333.0" /><line stroke="#999" stroke-width="3" x1="2501.0" x2="2501.0" y1="3461.0" y2="3333.0" /><line stroke="#999" stroke-width="3" x1="3205.0" x2="3077.0" y1="2501.0" y2="2501.0" /><line stroke="#999" stroke-width="3" x1="3205.0" x2="3205.0" y1="2373.0" y2="2501.0" /><line stroke="#999" stroke-width="3" x1="3077.0" x2="3205.0" y1="2373.0" y2="2373.0" /><line stroke="#999" stroke-width="3" x1="3077.0" x2="3077.0" y1="2501.0" y2="2373.0" /><line stroke="#999" stroke-width="3" x1="3013.0" x2="2885.0" y1="1605.0" y2="1605.0" /><line stroke="#999" stroke-width="3" x1="3013.0" x2="3013.0" y1="1477.0" y2="1605.0" /><line stroke="#999" stroke-width="3" x1="2885.0" x2="3013.0" y1="1477.0" y2="1477.0" /><line stroke="#999" stroke-width="3" x1="2885.0" x2="2885.0" y1="1605.0" y2="1477.0" /><line stroke="#999" stroke-width="3" x1="2245.0" x2="2117.0" y1="1605.0" y2="1605.0" /><line stroke="#999" stroke-width="3" x1="2245.0" x2="2245.0" y1="1477.0" y2="1605.0" /><line stroke="#999" stroke-width="3" x1="2117.0" x2="2245.0" y1="1477.0" y2="1477.0" /><line stroke="#999" stroke-width="3" x1="2117.0" x2="2117.0" y1="1605.0" y2="1477.0" /><line stroke="#999" stroke-width="3" x1="3013.0" x2="3013.0" y1="2181.0" y2="2053.0" /><line stroke="#999" stroke-width="3" x1="3269.0" x2="3013.0" y1="2181.0" y2="2181.0" /><line stroke="#999" stroke-width="3" x1="3269.0" x2="3269.0" y1="2053.0" y2="1925.0" /><line stroke="#999" stroke-width="3" x1="3269.0" x2="3269.0" y1="2053.0" y2="2181.0" /><line stroke="#999" stroke-width="3" x1="3269.0" x2="3333.0" y1="1925.0" y2="1861.0" /><line stroke="#999" stroke-width="3" x1="3333.0" x2="3461.0" y1="1861.0" y2="1861.0" /><line stroke="#999" stroke-width="3" x1="3461.0" x2="3525.0" y1="1861.0" y2="1925.0" /><line stroke="#999" stroke-width="3" x1="3525.0" x2="3333.0" y1="3205.0" y2="3205.0" /><line stroke="#999" stroke-width="3" x1="3269.0" x2="3269.0" y1="2629.0" y2="2181.0" /><line stroke="#999" stroke-width="3" x1="3525.0" x2="3525.0" y1="1925.0" y2="3205.0" /><line stroke="#999" stroke-width="3" x1="3333.0" x2="3269.0" y1="2693.0" y2="2629.0" /><line stroke="#999" stroke-width="3" x1="3333.0" x2="3333.0" y1="2949.0" y2="2693.0" /><line stroke="#999" stroke-width="3" x1="3333.0" x2="3333.0" y1="3205.0" y2="3077.0" /><line stroke="#999" stroke-width="3" x1="3269.0" x2="2949.0" y1="2629.0" y2="2629.0" /><line stroke="#999" stroke-width="3" x1="2949.0" x2="2757.0" y1="3205.0" y2="3205.0" /><line stroke="#999" stroke-width="3" x1="3333.0" x2="3269.0" y1="3077.0" y2="3077.0" /><line stroke="#999" stroke-width="3" x1="3333.0" x2="3333.0" y1="3077.0" y2="2949.0" /><line stroke="#999" stroke-width="3" x1="3269.0" x2="3205.0" y1="3077.0" y2="3077.0" /><line stroke="#999" stroke-width="3" x1="3269.0" x2="3333.0" y1="2949.0" y2="2949.0" /><line stroke="#999" stroke-width="3" x1="3269.0" x2="3269.0" y1="3077.0" y2="2949.0" /><line stroke="#999" stroke-width="3" x1="3205.0" x2="3077.0" y1="3077.0" y2="3077.0" /><line stroke="#999" stroke-width="3" x1="3205.0" x2="3269.0" y1="2949.0" y2="2949.0" /><line stroke="#999" stroke-width="3" x1="3205.0" x2="3205.0" y1="3077.0" y2="2949.0" /><line stroke="#999" stroke-width="3" x1="3077.0" x2="3077.0" y1="3077.0" y2="2949.0" /><line stroke="#999" stroke-width="3" x1="3077.0" x2="3205.0" y1="2949.0" y2="2949.0" /><line stroke="#999" stroke-width="3" x1="2949.0" x2="2949.0" y1="2949.0" y2="3205.0" /><line stroke="#999" stroke-width="3" x1="2949.0" x2="3333.0" y1="3205.0" y2="3205.0" /><line stroke="#999" stroke-width="3" x1="2885.0" x2="2949.0" y1="2885.0" y2="2949.0" /><line stroke="#999" stroke-width="3" x1="2693.0" x2="2885.0" y1="2885.0" y2="2885.0" /><line stroke="#999" stroke-width="3" x1="2853.0" x2="2725.0" y1="2789.0" y2="2789.0" /><line stroke="#999" stroke-width="3" x1="2853.0" x2="2853.0" y1="2661.0" y2="2789.0" /><line stroke="#999" stroke-width="3" x1="2725.0" x2="2853.0" y1="2661.0" y2="2661.0" /><line stroke="#999" stroke-width="3" x1="2725.0" x2="2725.0" y1="2789.0" y2="2661.0" /><line stroke="#00d" stroke-width="20" x1="2821.0" x2="2757.0" y1="2757.0" y2="2757.0" /><line stroke="#00d" stroke-width="20" x1="2821.0" x2="2821.0" y1="2693.0" y2="2757.0" /><line stroke="#00d" stroke-width="20" x1="2757.0" x2="2821.0" y1="2693.0" y2="2693.0" /><line stroke="#00d" stroke-width="20" x1="2757.0" x2="2757.0" y1="2757.0" y2="2693.0" /><line stroke="#999" stroke-width="3" x1="2501.0" x2="2629.0" y1="1861.0" y2="1861.0" /><line stroke="#999" stroke-width="3" x1="2629.0" x2="2629.0" y1="1733.0" y2="1765.0" /><line stroke="#999" stroke-width="3" x1="2501.0" x2="2533.0" y1="1733.0" y2="1733.0" /><line stroke="#999" stroke-width="3" x1="2629.0" x2="2501.0" y1="1717.0" y2="1717.0" /><line stroke="#999" stroke-width="3" x1="2629.0" x2="2629.0" y1="1685.0" y2="1717.0" /><line stroke="#999" stroke-width="3" x1="2501.0" x2="2629.0" y1="1685.0" y2="1685.0" /><line stroke="#999" stroke-width="3" x1="2501.0" x2="2501.0" y1="1717.0" y2="1685.0" /><line stroke="#999" stroke-width="3" x1="2485.0" x2="2453.0" y1="1845.0" y2="1845.0" /><line stroke="#999" stroke-width="3" x1="2485.0" x2="2485.0" y1="1733.0" y2="1845.0" /><line stroke="#999" stroke-width="3" x1="2453.0" x2="2485.0" y1="1733.0" y2="1733.0" /><line stroke="#999" stroke-width="3" x1="2453.0" x2="2453.0" y1="1845.0" y2="1733.0" /><line stroke="#999" stroke-width="3" x1="2677.0" x2="2645.0" y1="1845.0" y2="1845.0" /><line stroke="#999" stroke-width="3" x1="2677.0" x2="2677.0" y1="1733.0" y2="1845.0" /><line stroke="#999" stroke-width="3" x1="2645.0" x2="2677.0" y1="1733.0" y2="1733.0" /><line stroke="#999" stroke-width="3" x1="2645.0" x2="2645.0" y1="1845.0" y2="1733.0" /><line stroke="#999" stroke-width="3" x1="2373.0" x2="2309.0" y1="2373.0" y2="2309.0" /><line stroke="#999" stroke-width="3" x1="2757.0" x2="2821.0" y1="1861.0" y2="1925.0" /><line stroke="#999" stroke-width="3" x1="2309.0" x2="2373.0" y1="1925.0" y2="1861.0" /><line stroke="#999" stroke-width="3" x1="2821.0" x2="2821.0" y1="1925.0" y2="2053.0" /><line stroke="#999" stroke-width="3" x1="2629.0" x2="2757.0" y1="1861.0" y2="1861.0" /><line stroke="#999" stroke-width="3" x1="2373.0" x2="2501.0" y1="1861.0" y2="1861.0" /><line stroke="#999" stroke-width="3" x1="2309.0" x2="2309.0" y1="2309.0" y2="2181.0" /><line stroke="#999" stroke-width="3" x1="2757.0" x2="2629.0" y1="2373.0" y2="2373.0" /><line stroke="#999" stroke-width="3" x1="2821.0" x2="2757.0" y1="2309.0" y2="2373.0" /><line stroke="#999" stroke-width="3" x1="2693.0" x2="2437.0" y1="2245.0" y2="2245.0" /><line stroke="#999" stroke-width="3" x1="2693.0" x2="2693.0" y1="1989.0" y2="2245.0" /><line stroke="#999" stroke-width="3" x1="2437.0" x2="2693.0" y1="1989.0" y2="1989.0" /><line stroke="#999" stroke-width="3" x1="2437.0" x2="2437.0" y1="2245.0" y2="1989.0" /><line stroke="#0d0" stroke-width="20" x1="2501.0" x2="2629.0" y1="2181.0" y2="2181.0" /><line stroke="#0d0" stroke-width="20" x1="2629.0" x2="2629.0" y1="2181.0" y2="2053.0" /><line stroke="#0d0" stroke-width="20" x1="2629.0" x2="2501.0" y1="2053.0" y2="2053.0" /><line stroke="#0d0" stroke-width="20" x1="2501.0" x2="2501.0" y1="2053.0" y2="2181.0" /><line stroke="#333" stroke-width="10" x1="5.0" x2="21.0" y1="4533.0" y2="4533.0" /><line stroke="#333" stroke-width="10" x1="21.0" x2="21.0" y1="4533.0" y2="4517.0" /><line stroke="#333" stroke-width="10" x1="21.0" x2="5.0" y1="4517.0" y2="4517.0" /><line stroke="#333" stroke-width="10" x1="5.0" x2="5.0" y1="4517.0" y2="4533.0" /><line stroke="#999" stroke-width="3" x1="2821.0" x2="2821.0" y1="2053.0" y2="2181.0" /><line stroke="#999" stroke-width="3" x1="2821.0" x2="2821.0" y1="2181.0" y2="2309.0" /><line stroke="#999" stroke-width="3" x1="2501.0" x2="2373.0" y1="2373.0" y2="2373.0" /><line stroke="#999" stroke-width="3" x1="2629.0" x2="2501.0" y1="2373.0" y2="2373.0" /><line stroke="#999" stroke-width="3" x1="2309.0" x2="2309.0" y1="2053.0" y2="1925.0" /><line stroke="#999" stroke-width="3" x1="2309.0" x2="2309.0" y1="2181.0" y2="2053.0" /><line stroke="#333" stroke-width="10" x1="2565.0" x2="2597.0" y1="4581.0" y2="4581.0" /><line stroke="#999" stroke-width="3" x1="2597.0" x2="2597.0" y1="4581.0" y2="4549.0" /><line stroke="#333" stroke-width="10" x1="2597.0" x2="2565.0" y1="4549.0" y2="4549.0" /><line stroke="#333" stroke-width="10" x1="2565.0" x2="2565.0" y1="4549.0" y2="4581.0" /><line stroke="#333" stroke-width="10" x1="2597.0" x2="2629.0" y1="4581.0" y2="4581.0" /><line stroke="#333" stroke-width="10" x1="2629.0" x2="2629.0" y1="4581.0" y2="4549.0" /><line stroke="#333" stroke-width="10" x1="2629.0" x2="2597.0" y1="4549.0" y2="4549.0" /><line stroke="#999" stroke-width="3" x1="2789.0" x2="2773.0" y1="3189.0" y2="3189.0" /><line stroke="#999" stroke-width="3" x1="2789.0" x2="2789.0" y1="3093.0" y2="3109.0" /><line stroke="#999" stroke-width="3" x1="2773.0" x2="2789.0" y1="3093.0" y2="3093.0" /><line stroke="#999" stroke-width="3" x1="2773.0" x2="2773.0" y1="3189.0" y2="3093.0" /><line stroke="#333" stroke-width="10" x1="2693.0" x2="2725.0" y1="4581.0" y2="4581.0" /><line stroke="#999" stroke-width="3" x1="2725.0" x2="2725.0" y1="4581.0" y2="4549.0" /><line stroke="#333" stroke-width="10" x1="2725.0" x2="2693.0" y1="4549.0" y2="4549.0" /><line stroke="#333" stroke-width="10" x1="2693.0" x2="2693.0" y1="4549.0" y2="4581.0" /><line stroke="#333" stroke-width="10" x1="2725.0" x2="2757.0" y1="4581.0" y2="4581.0" /><line stroke="#333" stroke-width="10" x1="2757.0" x2="2757.0" y1="4581.0" y2="4549.0" /><line stroke="#333" stroke-width="10" x1="2757.0" x2="2725.0" y1="4549.0" y2="4549.0" /><line stroke="#999" stroke-width="3" x1="1781.0" x2="1685.0" y1="3381.0" y2="3381.0" /><line stroke="#999" stroke-width="3" x1="1781.0" x2="1781.0" y1="3365.0" y2="3381.0" /><line stroke="#999" stroke-width="3" x1="1685.0" x2="1701.0" y1="3365.0" y2="3365.0" /><line stroke="#999" stroke-width="3" x1="1685.0" x2="1685.0" y1="3381.0" y2="3365.0" /><line stroke="#999" stroke-width="3" x1="2629.0" x2="2629.0" y1="1813.0" y2="1829.0" /><line stroke="#999" stroke-width="3" x1="2501.0" x2="2501.0" y1="1813.0" y2="1781.0" /><line stroke="#999" stroke-width="3" x1="2629.0" x2="2629.0" y1="1829.0" y2="1861.0" /><line stroke="#999" stroke-width="3" x1="2629.0" x2="2629.0" y1="1765.0" y2="1781.0" /><line stroke="#999" stroke-width="3" x1="2533.0" x2="2549.0" y1="1733.0" y2="1733.0" /><line stroke="#999" stroke-width="3" x1="2501.0" x2="2501.0" y1="1781.0" y2="1765.0" /><line stroke="#999" stroke-width="3" x1="2501.0" x2="2501.0" y1="1861.0" y2="1829.0" /><line stroke="#999" stroke-width="3" x1="2501.0" x2="2501.0" y1="1829.0" y2="1813.0" /><line stroke="#999" stroke-width="3" x1="2501.0" x2="2501.0" y1="1765.0" y2="1733.0" /><line stroke="#999" stroke-width="3" x1="2549.0" x2="2581.0" y1="1733.0" y2="1733.0" /><line stroke="#999" stroke-width="3" x1="2581.0" x2="2597.0" y1="1733.0" y2="1733.0" /><line stroke="#999" stroke-width="3" x1="2597.0" x2="2629.0" y1="1733.0" y2="1733.0" /><line stroke="#999" stroke-width="3" x1="2629.0" x2="2629.0" y1="1781.0" y2="1813.0" /><line stroke="#999" stroke-width="3" x1="2581.0" x2="2549.0" y1="2021.0" y2="2021.0" /><line stroke="#999" stroke-width="3" x1="2581.0" x2="2581.0" y1="2005.0" y2="2021.0" /><line stroke="#999" stroke-width="3" x1="2549.0" x2="2581.0" y1="2005.0" y2="2005.0" /><line stroke="#999" stroke-width="3" x1="2549.0" x2="2549.0" y1="2021.0" y2="2005.0" /><line stroke="#999" stroke-width="3" x1="1701.0" x2="1765.0" y1="3365.0" y2="3365.0" /><line stroke="#999" stroke-width="3" x1="1765.0" x2="1781.0" y1="3365.0" y2="3365.0" /><line stroke="#999" stroke-width="3" x1="2789.0" x2="2789.0" y1="3109.0" y2="3173.0" /><line stroke="#999" stroke-width="3" x1="2789.0" x2="2789.0" y1="3173.0" y2="3189.0" /><line stroke="#999" stroke-width="3" x1="2533.0" x2="2597.0" y1="3429.0" y2="3429.0" /><line stroke="#999" stroke-width="3" x1="2597.0" x2="2597.0" y1="3429.0" y2="3365.0" /><line stroke="#999" stroke-width="3" x1="2597.0" x2="2533.0" y1="3365.0" y2="3365.0" /><line stroke="#999" stroke-width="3" x1="2533.0" x2="2533.0" y1="3365.0" y2="3429.0" /><line stroke="#999" stroke-width="3" x1="1765.0" x2="1829.0" y1="2373.0" y2="2373.0" /><line stroke="#999" stroke-width="3" x1="1829.0" x2="1829.0" y1="2373.0" y2="2309.0" /><line stroke="#999" stroke-width="3" x1="1829.0" x2="1765.0" y1="2309.0" y2="2309.0" /><line stroke="#999" stroke-width="3" x1="1765.0" x2="1765.0" y1="2309.0" y2="2373.0" /><line stroke="#999" stroke-width="3" x1="1637.0" x2="1701.0" y1="2373.0" y2="2373.0" /><line stroke="#999" stroke-width="3" x1="1701.0" x2="1701.0" y1="2373.0" y2="2309.0" /><line stroke="#999" stroke-width="3" x1="1701.0" x2="1637.0" y1="2309.0" y2="2309.0" /><line stroke="#999" stroke-width="3" x1="1637.0" x2="1637.0" y1="2309.0" y2="2373.0" /><line stroke="#999" stroke-width="3" x1="1701.0" x2="1765.0" y1="2533.0" y2="2533.0" /><line stroke="#999" stroke-width="3" x1="1765.0" x2="1765.0" y1="2533.0" y2="2469.0" /><line stroke="#999" stroke-width="3" x1="1765.0" x2="1701.0" y1="2469.0" y2="2469.0" /><line stroke="#999" stroke-width="3" x1="1701.0" x2="1701.0" y1="2469.0" y2="2533.0" /><line stroke="#999" stroke-width="3" x1="3365.0" x2="3429.0" y1="2341.0" y2="2341.0" /><line stroke="#999" stroke-width="3" x1="3429.0" x2="3429.0" y1="2341.0" y2="2277.0" /><line stroke="#999" stroke-width="3" x1="3429.0" x2="3365.0" y1="2277.0" y2="2277.0" /><line stroke="#999" stroke-width="3" x1="3365.0" x2="3365.0" y1="2277.0" y2="2341.0" /><line stroke="#999" stroke-width="3" x1="3365.0" x2="3429.0" y1="2533.0" y2="2533.0" /><line stroke="#999" stroke-width="3" x1="3429.0" x2="3429.0" y1="2533.0" y2="2469.0" /><line stroke="#999" stroke-width="3" x1="3429.0" x2="3365.0" y1="2469.0" y2="2469.0" /><line stroke="#999" stroke-width="3" x1="3365.0" x2="3365.0" y1="2469.0" y2="2533.0" /><line stroke="#999" stroke-width="3" x1="3365.0" x2="3429.0" y1="2725.0" y2="2725.0" /><line stroke="#999" stroke-width="3" x1="3429.0" x2="3429.0" y1="2725.0" y2="2661.0" /><line stroke="#999" stroke-width="3" x1="3429.0" x2="3365.0" y1="2661.0" y2="2661.0" /><line stroke="#999" stroke-width="3" x1="3365.0" x2="3365.0" y1="2661.0" y2="2725.0" /><line stroke="#999" stroke-width="3" x1="3413.0" x2="3477.0" y1="2885.0" y2="2885.0" /><line stroke="#999" stroke-width="3" x1="3477.0" x2="3477.0" y1="2885.0" y2="2821.0" /><line stroke="#999" stroke-width="3" x1="3477.0" x2="3413.0" y1="2821.0" y2="2821.0" /><line stroke="#999" stroke-width="3" x1="3413.0" x2="3413.0" y1="2821.0" y2="2885.0" /><circle cx="2565.0" cy="3141.0" fill="#900" r="16" stroke="#900" stroke-width="5" /><ellipse cx="2565.0" cy="1349.0" fill="#009" rx="12" ry="24" stroke="#009" stroke-width="5" /><ellipse cx="2565.0" cy="1157.0" fill="#009" rx="12" ry="24" stroke="#009" stroke-width="5" /><ellipse cx="2629.0" cy="1253.0" fill="#009" rx="12" ry="24" stroke="#009" stroke-width="5" /><ellipse cx="2501.0" cy="1253.0" fill="#009" rx="12" ry="24" stroke="#009" stroke-width="5" /><rect fill="#009" height="24" stroke="#009" stroke-width="5" transform="rotate(270,2565.0,3173.0)" width="24" x="2553.0" y="3161.0" /><circle cx="2565.0" cy="2501.0" fill="#009" r="16" stroke="#009" stroke-width="5" /><rect fill="#900" height="48" stroke="#900" stroke-width="5" transform="rotate(270,2565.0,1605.0)" width="32" x="2549.0" y="1581.0" /><rect fill="#900" height="48" stroke="#900" stroke-width="5" transform="rotate(225,2389.0,2565.0)" width="32" x="2373.0" y="2541.0" /><rect fill="#900" height="48" stroke="#900" stroke-width="5" transform="rotate(315,2757.0,2565.0)" width="32" x="2741.0" y="2541.0" /><rect fill="#900" height="48" stroke="#900" stroke-width="5" transform="rotate(0,1829.0,2117.0)" width="32" x="1813.0" y="2093.0" /><rect fill="#900" height="48" stroke="#900" stroke-width="5" transform="rotate(180,3301.0,2117.0)" width="32" x="3285.0" y="2093.0" /><circle cx="2213.0" cy="1797.0" fill="#009" r="16" stroke="#009" stroke-width="5" /><circle cx="2885.0" cy="1797.0" fill="#009" r="16" stroke="#009" stroke-width="5" /><circle cx="2917.0" cy="2597.0" fill="#009" r="16" stroke="#009" stroke-width="5" /><circle cx="2213.0" cy="2597.0" fill="#009" r="16" stroke="#009" stroke-width="5" /><circle cx="2517.0" cy="3093.0" fill="#009" r="16" stroke="#009" stroke-width="5" /><circle cx="2517.0" cy="3189.0" fill="#009" r="16" stroke="#009" stroke-width="5" /><circle cx="2613.0" cy="3189.0" fill="#009" r="16" stroke="#009" stroke-width="5" /><circle cx="2613.0" cy="3093.0" fill="#009" r="16" stroke="#009" stroke-width="5" /><rect fill="#900" height="48" stroke="#900" stroke-width="5" transform="rotate(270,2565.0,2693.0)" width="32" x="2549.0" y="2669.0" /><rect fill="#900" height="48" stroke="#900" stroke-width="5" transform="rotate(270,2565.0,3397.0)" width="32" x="2549.0" y="3373.0" /><circle cx="1989.0" cy="2117.0" fill="#009" r="16" stroke="#009" stroke-width="5" /><circle cx="2053.0" cy="2117.0" fill="#009" r="16" stroke="#009" stroke-width="5" /><circle cx="1925.0" cy="2117.0" fill="#009" r="16" stroke="#009" stroke-width="5" /><circle cx="3141.0" cy="2117.0" fill="#009" r="16" stroke="#009" stroke-width="5" /><circle cx="3205.0" cy="2117.0" fill="#009" r="16" stroke="#009" stroke-width="5" /><circle cx="3077.0" cy="2117.0" fill="#009" r="16" stroke="#009" stroke-width="5" /><rect fill="#900" height="48" stroke="#900" stroke-width="5" transform="rotate(90,2981.0,2117.0)" width="32" x="2965.0" y="2093.0" /><rect fill="#900" height="48" stroke="#900" stroke-width="5" transform="rotate(90,2149.0,2117.0)" width="32" x="2133.0" y="2093.0" /><rect fill="#900" height="48" stroke="#900" stroke-width="5" transform="rotate(270,2565.0,2949.0)" width="32" x="2549.0" y="2925.0" /><circle cx="2405.0" cy="2981.0" fill="#090" r="16" stroke="#090" stroke-width="5" /><circle cx="2709.0" cy="3189.0" fill="#090" r="16" stroke="#090" stroke-width="5" /><circle cx="2725.0" cy="2981.0" fill="#090" r="16" stroke="#090" stroke-width="5" /><circle cx="2709.0" cy="3093.0" fill="#090" r="16" stroke="#090" stroke-width="5" /><circle cx="2709.0" cy="3141.0" fill="#090" r="16" stroke="#090" stroke-width="5" /><circle cx="2421.0" cy="3141.0" fill="#090" r="16" stroke="#090" stroke-width="5" /><circle cx="2421.0" cy="3189.0" fill="#090" r="16" stroke="#090" stroke-width="5" /><circle cx="2421.0" cy="3093.0" fill="#090" r="16" stroke="#090" stroke-width="5" /><rect fill="#900" height="48" stroke="#900" stroke-width="5" transform="rotate(270,1669.0,2341.0)" width="32" x="1653.0" y="2317.0" /><rect fill="#900" height="48" stroke="#900" stroke-width="5" transform="rotate(270,1797.0,2341.0)" width="32" x="1781.0" y="2317.0" /><circle cx="1733.0" cy="1893.0" fill="#009" r="16" stroke="#009" stroke-width="5" /><circle cx="1829.0" cy="2597.0" fill="#009" r="16" stroke="#009" stroke-width="5" /><circle cx="1637.0" cy="2597.0" fill="#009" r="16" stroke="#009" stroke-width="5" /><circle cx="1733.0" cy="3333.0" fill="#009" r="16" stroke="#009" stroke-width="5" /><rect fill="#900" height="48" stroke="#900" stroke-width="5" transform="rotate(270,1733.0,2501.0)" width="32" x="1717.0" y="2477.0" /><rect fill="#900" height="48" stroke="#900" stroke-width="5" transform="rotate(270,2565.0,2309.0)" width="32" x="2549.0" y="2285.0" /><rect fill="#900" height="48" stroke="#900" stroke-width="5" transform="rotate(225,2757.0,2117.0)" width="32" x="2741.0" y="2093.0" /><rect fill="#900" height="48" stroke="#900" stroke-width="5" transform="rotate(315,2373.0,2117.0)" width="32" x="2357.0" y="2093.0" /><circle cx="2565.0" cy="1925.0" fill="#090" r="16" stroke="#090" stroke-width="5" /><circle cx="2757.0" cy="2309.0" fill="#090" r="16" stroke="#090" stroke-width="5" /><circle cx="2373.0" cy="2309.0" fill="#090" r="16" stroke="#090" stroke-width="5" /><circle cx="2757.0" cy="1925.0" fill="#009" r="16" stroke="#009" stroke-width="5" /><circle cx="2373.0" cy="1925.0" fill="#009" r="16" stroke="#009" stroke-width="5" /><circle cx="3397.0" cy="1893.0" fill="#009" r="16" stroke="#009" stroke-width="5" /><circle cx="3333.0" cy="2629.0" fill="#009" r="16" stroke="#009" stroke-width="5" /><circle cx="3493.0" cy="3173.0" fill="#009" r="16" stroke="#009" stroke-width="5" /><circle cx="2885.0" cy="3141.0" fill="#009" r="16" stroke="#009" stroke-width="5" /><rect fill="#900" height="48" stroke="#900" stroke-width="5" transform="rotate(225,3397.0,2309.0)" width="32" x="3381.0" y="2285.0" /><rect fill="#900" height="48" stroke="#900" stroke-width="5" transform="rotate(270,3397.0,2501.0)" width="32" x="3381.0" y="2477.0" /><rect fill="#900" height="48" stroke="#900" stroke-width="5" transform="rotate(270,3397.0,2693.0)" width="32" x="3381.0" y="2669.0" /><rect fill="#900" height="48" stroke="#900" stroke-width="5" transform="rotate(270,3445.0,2853.0)" width="32" x="3429.0" y="2829.0" /><circle cx="1829.0" cy="1957.0" fill="#090" r="16" stroke="#090" stroke-width="5" /><circle cx="1637.0" cy="1957.0" fill="#090" r="16" stroke="#090" stroke-width="5" /><circle cx="3301.0" cy="1957.0" fill="#090" r="16" stroke="#090" stroke-width="5" /><circle cx="3493.0" cy="1957.0" fill="#090" r="16" stroke="#090" stroke-width="5" /><circle cx="2821.0" cy="2949.0" fill="#090" r="16" stroke="#090" stroke-width="5" /><rect fill="#900" height="48" stroke="#900" stroke-width="5" transform="rotate(270,2565.0,3397.0)" width="32" x="2549.0" y="3373.0" /><rect fill="#900" height="48" stroke="#900" stroke-width="5" transform="rotate(270,1797.0,2341.0)" width="32" x="1781.0" y="2317.0" /><rect fill="#900" height="48" stroke="#900" stroke-width="5" transform="rotate(270,1733.0,2501.0)" width="32" x="1717.0" y="2477.0" /><rect fill="#900" height="48" stroke="#900" stroke-width="5" transform="rotate(270,3397.0,2309.0)" width="32" x="3381.0" y="2285.0" /><rect fill="#900" height="48" stroke="#900" stroke-width="5" transform="rotate(270,3397.0,2501.0)" width="32" x="3381.0" y="2477.0" /><rect fill="#900" height="48" stroke="#900" stroke-width="5" transform="rotate(270,3445.0,2853.0)" width="32" x="3429.0" y="2829.0" /><rect fill="#090" height="24" stroke="#090" stroke-width="5" transform="rotate(270,2565.0,1221.0)" width="24" x="2553.0" y="1209.0" /><rect fill="#090" height="24" stroke="#090" stroke-width="5" transform="rotate(90,2565.0,3013.0)" width="24" x="2553.0" y="3001.0" /><rect fill="#090" height="24" stroke="#090" stroke-width="5" transform="rotate(90,3397.0,1989.0)" width="24" x="3385.0" y="1977.0" /><rect fill="#090" height="24" stroke="#090" stroke-width="5" transform="rotate(180,2277.0,2117.0)" width="24" x="2265.0" y="2105.0" /><circle cx="2565.0" cy="1093.0" fill="#900" r="16" stroke="#900" stroke-width="5" /><circle cx="2565.0" cy="1413.0" fill="#900" r="16" stroke="#900" stroke-width="5" /><circle cx="3429.0" cy="3109.0" fill="#900" r="16" stroke="#900" stroke-width="5" /><circle cx="1733.0" cy="3077.0" fill="#900" r="16" stroke="#900" stroke-width="5" /><circle cx="2565.0" cy="1445.0" fill="#090" r="16" stroke="#090" stroke-width="5" /><circle cx="2565.0" cy="1797.0" fill="#009" r="16" stroke="#009" stroke-width="5" /><circle cx="2213.0" cy="2117.0" fill="#900" r="16" stroke="#900" stroke-width="5" /></svg>