<?xml version="1.0" encoding="utf-8" ?>
<svg baseProfile="tiny" height="398" version="1.2" viewBox="0 0 6602 2570" width="1024" xmlns="http://www.w3.org/2000/svg" xmlns:ev="http://www.w3.org/2001/xml-events" xmlns:xlink="http://www.w3.org/1999/xlink"><defs /><line stroke="#333" stroke-width="10" x1="3781.0" x2="4421.0" y1="1797.0" y2="1797.0" /><line stroke="#333" stroke-width="10" x1="3781.0" x2="5253.0" y1="2373.0" y2="2373.0" /><line stroke="#333" stroke-width="10" x1="4421.0" x2="4165.0" y1="261.0" y2="261.0" /><line stroke="#333" stroke-width="10" x1="3781.0" x2="3781.0" y1="261.0" y2="1797.0" /><line stroke="#333" stroke-width="10" x1="4037.0" x2="3781.0" y1="261.0" y2="261.0" /><line stroke="#999" stroke-width="3" x1="4165.0" x2="4037.0" y1="261.0" y2="261.0" /><line stroke="#333" stroke-width="10" x1="4037.0" x2="4037.0" y1="5.0" y2="69.0" /><line stroke="#333" stroke-width="10" x1="4933.0" x2="4741.0" y1="5.0" y2="5.0" /><line stroke="#333" stroke-width="10" x1="4165.0" x2="4165.0" y1="261.0" y2="133.0" /><line stroke="#333" stroke-width="10" x1="4933.0" x2="4933.0" y1="133.0" y2="5.0" /><line stroke="#333" stroke-width="10" x1="4165.0" x2="4741.0" y1="133.0" y2="133.0" /><line stroke="#333" stroke-width="10" x1="4037.0" x2="4037.0" y1="69.0" y2="261.0" /><line stroke="#999" stroke-width="3" x1="3909.0" x2="4293.0" y1="837.0" y2="837.0" /><line stroke="#999" stroke-width="3" x1="4293.0" x2="4293.0" y1="837.0" y2="1157.0" /><line stroke="#999" stroke-width="3" x1="4293.0" x2="3909.0" y1="1157.0" y2="1157.0" /><line stroke="#999" stroke-width="3" x1="3909.0" x2="3909.0" y1="1157.0" y2="837.0" /><line stroke="#333" stroke-width="10" x1="5253.0" x2="4421.0" y1="1733.0" y2="1733.0" /><line stroke="#333" stroke-width="10" x1="4421.0" x2="4421.0" y1="1733.0" y2="261.0" /><line stroke="#333" stroke-width="10" x1="3781.0" x2="3781.0" y1="1925.0" y2="2373.0" /><line stroke="#333" stroke-width="10" x1="5189.0" x2="5189.0" y1="1797.0" y2="1925.0" /><line stroke="#333" stroke-width="10" x1="4421.0" x2="5189.0" y1="1797.0" y2="1797.0" /><line stroke="#999" stroke-width="3" x1="4421.0" x2="4421.0" y1="1797.0" y2="1733.0" /><line stroke="#333" stroke-width="10" x1="5253.0" x2="5253.0" y1="1925.0" y2="1733.0" /><line stroke="#333" stroke-width="10" x1="5189.0" x2="5189.0" y1="1925.0" y2="2309.0" /><line stroke="#999" stroke-width="3" x1="5253.0" x2="5189.0" y1="1925.0" y2="1925.0" /><line stroke="#333" stroke-width="10" x1="5253.0" x2="5253.0" y1="2373.0" y2="1925.0" /><line stroke="#333" stroke-width="10" x1="5189.0" x2="3845.0" y1="2309.0" y2="2309.0" /><line stroke="#999" stroke-width="3" x1="5253.0" x2="5189.0" y1="2373.0" y2="2309.0" /><line stroke="#333" stroke-width="10" x1="4357.0" x2="4293.0" y1="1925.0" y2="1925.0" /><line stroke="#333" stroke-width="10" x1="3845.0" x2="3845.0" y1="2309.0" y2="1989.0" /><line stroke="#333" stroke-width="10" x1="4357.0" x2="4357.0" y1="1989.0" y2="1925.0" /><line stroke="#333" stroke-width="10" x1="3845.0" x2="4293.0" y1="1989.0" y2="1989.0" /><line stroke="#999" stroke-width="3" x1="3781.0" x2="3845.0" y1="1925.0" y2="1989.0" /><line stroke="#333" stroke-width="10" x1="4293.0" x2="3781.0" y1="1925.0" y2="1925.0" /><line stroke="#333" stroke-width="10" x1="4293.0" x2="4357.0" y1="1989.0" y2="1989.0" /><line stroke="#00d" stroke-width="20" x1="4293.0" x2="4293.0" y1="1989.0" y2="1925.0" /><line stroke="#333" stroke-width="10" x1="5317.0" x2="6597.0" y1="1669.0" y2="1669.0" /><line stroke="#333" stroke-width="10" x1="6597.0" x2="6597.0" y1="1669.0" y2="581.0" /><line stroke="#333" stroke-width="10" x1="6597.0" x2="5317.0" y1="581.0" y2="581.0" /><line stroke="#333" stroke-width="10" x1="5317.0" x2="5317.0" y1="581.0" y2="1029.0" /><line stroke="#333" stroke-width="10" x1="4997.0" x2="4997.0" y1="1093.0" y2="1221.0" /><line stroke="#333" stroke-width="10" x1="5317.0" x2="5317.0" y1="1221.0" y2="1285.0" /><line stroke="#999" stroke-width="3" x1="5189.0" x2="5253.0" y1="1797.0" y2="1733.0" /><line stroke="#999" stroke-width="3" x1="5989.0" x2="5925.0" y1="1189.0" y2="1189.0" /><line stroke="#999" stroke-width="3" x1="5989.0" x2="5989.0" y1="1125.0" y2="1189.0" /><line stroke="#999" stroke-width="3" x1="5925.0" x2="5989.0" y1="1125.0" y2="1125.0" /><line stroke="#999" stroke-width="3" x1="5925.0" x2="5925.0" y1="1189.0" y2="1125.0" /><line stroke="#333" stroke-width="10" x1="4997.0" x2="5125.0" y1="1221.0" y2="1221.0" /><line stroke="#333" stroke-width="10" x1="5317.0" x2="5253.0" y1="1093.0" y2="1093.0" /><line stroke="#666" stroke-width="20" x1="5317.0" x2="5317.0" y1="1093.0" y2="1221.0" /><line stroke="#333" stroke-width="10" x1="5125.0" x2="4997.0" y1="1093.0" y2="1093.0" /><line stroke="#333" stroke-width="10" x1="5125.0" x2="5253.0" y1="1221.0" y2="1221.0" /><line stroke="#999" stroke-width="3" x1="5125.0" x2="5125.0" y1="1093.0" y2="1221.0" /><line stroke="#333" stroke-width="10" x1="5253.0" x2="5125.0" y1="1093.0" y2="1093.0" /><line stroke="#333" stroke-width="10" x1="5253.0" x2="5317.0" y1="1221.0" y2="1221.0" /><line stroke="#999" stroke-width="3" x1="5253.0" x2="5253.0" y1="1221.0" y2="1093.0" /><line stroke="#333" stroke-width="10" x1="5317.0" x2="5317.0" y1="1285.0" y2="1669.0" /><line stroke="#333" stroke-width="10" x1="5317.0" x2="5317.0" y1="1029.0" y2="1093.0" /><line stroke="#333" stroke-width="10" x1="4741.0" x2="4037.0" y1="5.0" y2="5.0" /><line stroke="#333" stroke-width="10" x1="4741.0" x2="4933.0" y1="133.0" y2="133.0" /><line stroke="#999" stroke-width="3" x1="4741.0" x2="4741.0" y1="133.0" y2="5.0" /><line stroke="#333" stroke-width="10" x1="517.0" x2="3013.0" y1="2565.0" y2="2565.0" /><line stroke="#333" stroke-width="10" x1="3013.0" x2="3013.0" y1="2565.0" y2="133.0" /><line stroke="#333" stroke-width="10" x1="3013.0" x2="517.0" y1="133.0" y2="133.0" /><line stroke="#333" stroke-width="10" x1="517.0" x2="517.0" y1="133.0" y2="1413.0" /><line stroke="#333" stroke-width="10" x1="1093.0" x2="1605.0" y1="1733.0" y2="1733.0" /><line stroke="#333" stroke-width="10" x1="1605.0" x2="1605.0" y1="1733.0" y2="2245.0" /><line stroke="#333" stroke-width="10" x1="1605.0" x2="1093.0" y1="2245.0" y2="2245.0" /><line stroke="#333" stroke-width="10" x1="1093.0" x2="1093.0" y1="2245.0" y2="1733.0" /><line stroke="#333" stroke-width="10" x1="2053.0" x2="2565.0" y1="1733.0" y2="1733.0" /><line stroke="#333" stroke-width="10" x1="2565.0" x2="2565.0" y1="1733.0" y2="2245.0" /><line stroke="#333" stroke-width="10" x1="2565.0" x2="2053.0" y1="2245.0" y2="2245.0" /><line stroke="#333" stroke-width="10" x1="2053.0" x2="2053.0" y1="2245.0" y2="1733.0" /><line stroke="#333" stroke-width="10" x1="1605.0" x2="2117.0" y1="709.0" y2="709.0" /><line stroke="#333" stroke-width="10" x1="2117.0" x2="2117.0" y1="709.0" y2="1221.0" /><line stroke="#333" stroke-width="10" x1="2117.0" x2="1605.0" y1="1221.0" y2="1221.0" /><line stroke="#333" stroke-width="10" x1="1605.0" x2="1605.0" y1="1221.0" y2="709.0" /><line stroke="#333" stroke-width="10" x1="517.0" x2="517.0" y1="1541.0" y2="2565.0" /><line stroke="#999" stroke-width="3" x1="517.0" x2="517.0" y1="1413.0" y2="1541.0" /><line stroke="#333" stroke-width="10" x1="5.0" x2="517.0" y1="1925.0" y2="1541.0" /><line stroke="#333" stroke-width="10" x1="5.0" x2="5.0" y1="1029.0" y2="1445.0" /><line stroke="#333" stroke-width="10" x1="517.0" x2="5.0" y1="1413.0" y2="1029.0" /><line stroke="#0d0" stroke-width="20" x1="5.0" x2="5.0" y1="1445.0" y2="1509.0" /><line stroke="#333" stroke-width="10" x1="5.0" x2="5.0" y1="1509.0" y2="1925.0" /><line stroke="#999" stroke-width="3" x1="517.0" x2="453.0" y1="1413.0" y2="1477.0" /><line stroke="#999" stroke-width="3" x1="453.0" x2="517.0" y1="1477.0" y2="1541.0" /><rect fill="#900" height="48" stroke="#900" stroke-width="5" transform="rotate(270,3909.0,709.0)" width="32" x="3893.0" y="685.0" /><rect fill="#900" height="48" stroke="#900" stroke-width="5" transform="rotate(270,4037.0,709.0)" width="32" x="4021.0" y="685.0" /><rect fill="#900" height="48" stroke="#900" stroke-width="5" transform="rotate(270,4165.0,709.0)" width="32" x="4149.0" y="685.0" /><rect fill="#900" height="48" stroke="#900" stroke-width="5" transform="rotate(270,4293.0,709.0)" width="32" x="4277.0" y="685.0" /><ellipse cx="4357.0" cy="69.0" fill="#009" rx="12" ry="24" stroke="#009" stroke-width="5" /><rect fill="#090" height="24" stroke="#090" stroke-width="5" transform="rotate(180,4805.0,69.0)" width="24" x="4793.0" y="57.0" /><circle cx="4229.0" cy="69.0" fill="#900" r="16" stroke="#900" stroke-width="5" /><circle cx="4421.0" cy="69.0" fill="#900" r="16" stroke="#900" stroke-width="5" /><circle cx="4485.0" cy="69.0" fill="#900" r="16" stroke="#900" stroke-width="5" /><circle cx="4165.0" cy="69.0" fill="#090" r="16" stroke="#090" stroke-width="5" /><circle cx="4101.0" cy="69.0" fill="#090" r="16" stroke="#090" stroke-width="5" /><circle cx="4101.0" cy="133.0" fill="#090" r="16" stroke="#090" stroke-width="5" /><circle cx="4101.0" cy="197.0" fill="#090" r="16" stroke="#090" stroke-width="5" /><circle cx="3973.0" cy="1093.0" fill="#009" r="16" stroke="#009" stroke-width="5" /><circle cx="4229.0" cy="1093.0" fill="#009" r="16" stroke="#009" stroke-width="5" /><circle cx="4101.0" cy="965.0" fill="#009" r="16" stroke="#009" stroke-width="5" /><circle cx="3973.0" cy="901.0" fill="#009" r="16" stroke="#009" stroke-width="5" /><circle cx="4229.0" cy="901.0" fill="#009" r="16" stroke="#009" stroke-width="5" /><rect fill="#900" height="48" stroke="#900" stroke-width="5" transform="rotate(315,5221.0,1925.0)" width="32" x="5205.0" y="1901.0" /><circle cx="5221.0" cy="2085.0" fill="#090" r="16" stroke="#090" stroke-width="5" /><circle cx="5221.0" cy="2181.0" fill="#090" r="16" stroke="#090" stroke-width="5" /><rect fill="#900" height="48" stroke="#900" stroke-width="5" transform="rotate(0,4133.0,2341.0)" width="32" x="4117.0" y="2317.0" /><rect fill="#900" height="48" stroke="#900" stroke-width="5" transform="rotate(0,4229.0,2341.0)" width="32" x="4213.0" y="2317.0" /><rect fill="#900" height="48" stroke="#900" stroke-width="5" transform="rotate(0,4325.0,2341.0)" width="32" x="4309.0" y="2317.0" /><rect fill="#900" height="48" stroke="#900" stroke-width="5" transform="rotate(0,4389.0,2341.0)" width="32" x="4373.0" y="2317.0" /><rect fill="#900" height="48" stroke="#900" stroke-width="5" transform="rotate(0,4485.0,2341.0)" width="32" x="4469.0" y="2317.0" /><rect fill="#900" height="48" stroke="#900" stroke-width="5" transform="rotate(0,4549.0,2341.0)" width="32" x="4533.0" y="2317.0" /><rect fill="#900" height="48" stroke="#900" stroke-width="5" transform="rotate(0,4677.0,2341.0)" width="32" x="4661.0" y="2317.0" /><rect fill="#900" height="48" stroke="#900" stroke-width="5" transform="rotate(0,4773.0,2341.0)" width="32" x="4757.0" y="2317.0" /><rect fill="#900" height="48" stroke="#900" stroke-width="5" transform="rotate(0,4869.0,2341.0)" width="32" x="4853.0" y="2317.0" /><rect fill="#900" height="48" stroke="#900" stroke-width="5" transform="rotate(0,4997.0,2341.0)" width="32" x="4981.0" y="2317.0" /><rect fill="#900" height="48" stroke="#900" stroke-width="5" transform="rotate(0,5061.0,2341.0)" width="32" x="5045.0" y="2317.0" /><rect fill="#900" height="48" stroke="#900" stroke-width="5" transform="rotate(0,5157.0,2341.0)" width="32" x="5141.0" y="2317.0" /><circle cx="3909.0" cy="2341.0" fill="#009" r="16" stroke="#009" stroke-width="5" /><circle cx="3941.0" cy="1957.0" fill="#900" r="16" stroke="#900" stroke-width="5" /><circle cx="4037.0" cy="1957.0" fill="#090" r="16" stroke="#090" stroke-width="5" /><circle cx="4133.0" cy="1957.0" fill="#090" r="16" stroke="#090" stroke-width="5" /><rect fill="#900" height="48" stroke="#900" stroke-width="5" transform="rotate(180,5957.0,1157.0)" width="32" x="5941.0" y="1133.0" /><rect fill="#900" height="48" stroke="#900" stroke-width="5" transform="rotate(315,5381.0,645.0)" width="32" x="5365.0" y="621.0" /><rect fill="#900" height="48" stroke="#900" stroke-width="5" transform="rotate(315,6533.0,645.0)" width="32" x="6517.0" y="621.0" /><rect fill="#900" height="48" stroke="#900" stroke-width="5" transform="rotate(315,6533.0,1605.0)" width="32" x="6517.0" y="1581.0" /><rect fill="#900" height="48" stroke="#900" stroke-width="5" transform="rotate(315,5381.0,1605.0)" width="32" x="5365.0" y="1581.0" /><rect fill="#900" height="48" stroke="#900" stroke-width="5" transform="rotate(315,5957.0,1605.0)" width="32" x="5941.0" y="1581.0" /><rect fill="#900" height="48" stroke="#900" stroke-width="5" transform="rotate(315,5957.0,645.0)" width="32" x="5941.0" y="621.0" /><rect fill="#900" height="48" stroke="#900" stroke-width="5" transform="rotate(315,6021.0,1605.0)" width="32" x="6005.0" y="1581.0" /><rect fill="#900" height="48" stroke="#900" stroke-width="5" transform="rotate(315,6021.0,645.0)" width="32" x="6005.0" y="621.0" /><rect fill="#900" height="48" stroke="#900" stroke-width="5" transform="rotate(315,5701.0,645.0)" width="32" x="5685.0" y="621.0" /><rect fill="#900" height="48" stroke="#900" stroke-width="5" transform="rotate(315,6277.0,645.0)" width="32" x="6261.0" y="621.0" /><rect fill="#900" height="48" stroke="#900" stroke-width="5" transform="rotate(315,6277.0,1605.0)" width="32" x="6261.0" y="1581.0" /><rect fill="#900" height="48" stroke="#900" stroke-width="5" transform="rotate(315,5701.0,1605.0)" width="32" x="5685.0" y="1581.0" /><rect fill="#900" height="48" stroke="#900" stroke-width="5" transform="rotate(315,5573.0,1285.0)" width="32" x="5557.0" y="1261.0" /><rect fill="#900" height="48" stroke="#900" stroke-width="5" transform="rotate(315,6405.0,901.0)" width="32" x="6389.0" y="877.0" /><rect fill="#900" height="48" stroke="#900" stroke-width="5" transform="rotate(315,6405.0,1285.0)" width="32" x="6389.0" y="1261.0" /><rect fill="#900" height="48" stroke="#900" stroke-width="5" transform="rotate(315,5573.0,901.0)" width="32" x="5557.0" y="877.0" /><rect fill="#900" height="48" stroke="#900" stroke-width="5" transform="rotate(315,6149.0,965.0)" width="32" x="6133.0" y="941.0" /><rect fill="#900" height="48" stroke="#900" stroke-width="5" transform="rotate(315,5765.0,1285.0)" width="32" x="5749.0" y="1261.0" /><rect fill="#900" height="48" stroke="#900" stroke-width="5" transform="rotate(315,6149.0,1349.0)" width="32" x="6133.0" y="1325.0" /><rect fill="#900" height="48" stroke="#900" stroke-width="5" transform="rotate(315,6277.0,1157.0)" width="32" x="6261.0" y="1133.0" /><rect fill="#900" height="48" stroke="#900" stroke-width="5" transform="rotate(315,5957.0,901.0)" width="32" x="5941.0" y="877.0" /><rect fill="#900" height="48" stroke="#900" stroke-width="5" transform="rotate(315,5509.0,1029.0)" width="32" x="5493.0" y="1005.0" /><rect fill="#900" height="48" stroke="#900" stroke-width="5" transform="rotate(315,5701.0,1093.0)" width="32" x="5685.0" y="1069.0" /><rect fill="#009" height="24" stroke="#009" stroke-width="5" transform="rotate(0,5189.0,1157.0)" width="24" x="5177.0" y="1145.0" /><rect fill="#900" height="48" stroke="#900" stroke-width="5" transform="rotate(0,5061.0,1157.0)" width="32" x="5045.0" y="1133.0" /><circle cx="5285.0" cy="1157.0" fill="#090" r="16" stroke="#090" stroke-width="5" /><rect fill="#090" height="24" stroke="#090" stroke-width="5" transform="rotate(0,4677.0,69.0)" width="24" x="4665.0" y="57.0" /><rect fill="#090" height="24" stroke="#090" stroke-width="5" transform="rotate(0,1861.0,1477.0)" width="24" x="1849.0" y="1465.0" /><rect fill="#090" height="24" stroke="#090" stroke-width="5" transform="rotate(45,2629.0,837.0)" width="24" x="2617.0" y="825.0" /><rect fill="#090" height="24" stroke="#090" stroke-width="5" transform="rotate(0,2437.0,453.0)" width="24" x="2425.0" y="441.0" /><rect fill="#090" height="24" stroke="#090" stroke-width="5" transform="rotate(180,1157.0,709.0)" width="24" x="1145.0" y="697.0" /><rect fill="#090" height="24" stroke="#090" stroke-width="5" transform="rotate(0,1221.0,1221.0)" width="24" x="1209.0" y="1209.0" /><rect fill="#090" height="24" stroke="#090" stroke-width="5" transform="rotate(0,837.0,1477.0)" width="24" x="825.0" y="1465.0" /><rect fill="#090" height="24" stroke="#090" stroke-width="5" transform="rotate(0,901.0,2181.0)" width="24" x="889.0" y="2169.0" /><rect fill="#090" height="24" stroke="#090" stroke-width="5" transform="rotate(0,1605.0,2373.0)" width="24" x="1593.0" y="2361.0" /><rect fill="#090" height="24" stroke="#090" stroke-width="5" transform="rotate(45,1925.0,1989.0)" width="24" x="1913.0" y="1977.0" /><rect fill="#090" height="24" stroke="#090" stroke-width="5" transform="rotate(0,1925.0,2373.0)" width="24" x="1913.0" y="2361.0" /><rect fill="#090" height="24" stroke="#090" stroke-width="5" transform="rotate(0,2629.0,2373.0)" width="24" x="2617.0" y="2361.0" /><rect fill="#090" height="24" stroke="#090" stroke-width="5" transform="rotate(45,2821.0,2117.0)" width="24" x="2809.0" y="2105.0" /><rect fill="#090" height="24" stroke="#090" stroke-width="5" transform="rotate(180,2821.0,1733.0)" width="24" x="2809.0" y="1721.0" /><rect fill="#090" height="24" stroke="#090" stroke-width="5" transform="rotate(0,2757.0,1157.0)" width="24" x="2745.0" y="1145.0" /><rect fill="#090" height="24" stroke="#090" stroke-width="5" transform="rotate(0,2885.0,965.0)" width="24" x="2873.0" y="953.0" /><rect fill="#090" height="24" stroke="#090" stroke-width="5" transform="rotate(0,2501.0,1413.0)" width="24" x="2489.0" y="1401.0" /><rect fill="#090" height="24" stroke="#090" stroke-width="5" transform="rotate(270,2629.0,1477.0)" width="24" x="2617.0" y="1465.0" /><rect fill="#090" height="24" stroke="#090" stroke-width="5" transform="rotate(0,2821.0,1349.0)" width="24" x="2809.0" y="1337.0" /><rect fill="#090" height="24" stroke="#090" stroke-width="5" transform="rotate(0,2565.0,1221.0)" width="24" x="2553.0" y="1209.0" /><rect fill="#090" height="24" stroke="#090" stroke-width="5" transform="rotate(270,2437.0,901.0)" width="24" x="2425.0" y="889.0" /><rect fill="#090" height="24" stroke="#090" stroke-width="5" transform="rotate(180,2309.0,1413.0)" width="24" x="2297.0" y="1401.0" /><rect fill="#090" height="24" stroke="#090" stroke-width="5" transform="rotate(45,1733.0,1605.0)" width="24" x="1721.0" y="1593.0" /><rect fill="#090" height="24" stroke="#090" stroke-width="5" transform="rotate(45,1605.0,1349.0)" width="24" x="1593.0" y="1337.0" /><rect fill="#090" height="24" stroke="#090" stroke-width="5" transform="rotate(45,1157.0,1605.0)" width="24" x="1145.0" y="1593.0" /><rect fill="#090" height="24" stroke="#090" stroke-width="5" transform="rotate(180,1093.0,1157.0)" width="24" x="1081.0" y="1145.0" /><rect fill="#090" height="24" stroke="#090" stroke-width="5" transform="rotate(0,901.0,901.0)" width="24" x="889.0" y="889.0" /><rect fill="#090" height="24" stroke="#090" stroke-width="5" transform="rotate(0,1349.0,453.0)" width="24" x="1337.0" y="441.0" /><rect fill="#090" height="24" stroke="#090" stroke-width="5" transform="rotate(0,1989.0,453.0)" width="24" x="1977.0" y="441.0" /><rect fill="#090" height="24" stroke="#090" stroke-width="5" transform="rotate(0,2181.0,261.0)" width="24" x="2169.0" y="249.0" /><rect fill="#090" height="24" stroke="#090" stroke-width="5" transform="rotate(270,1605.0,645.0)" width="24" x="1593.0" y="633.0" /><rect fill="#090" height="24" stroke="#090" stroke-width="5" transform="rotate(0,1669.0,325.0)" width="24" x="1657.0" y="313.0" /><rect fill="#090" height="24" stroke="#090" stroke-width="5" transform="rotate(45,2757.0,453.0)" width="24" x="2745.0" y="441.0" /><rect fill="#090" height="24" stroke="#090" stroke-width="5" transform="rotate(0,2245.0,645.0)" width="24" x="2233.0" y="633.0" /><rect fill="#090" height="24" stroke="#090" stroke-width="5" transform="rotate(0,1669.0,1989.0)" width="24" x="1657.0" y="1977.0" /><rect fill="#090" height="24" stroke="#090" stroke-width="5" transform="rotate(0,1157.0,2437.0)" width="24" x="1145.0" y="2425.0" /><rect fill="#090" height="24" stroke="#090" stroke-width="5" transform="rotate(0,709.0,2053.0)" width="24" x="697.0" y="2041.0" /><rect fill="#090" height="24" stroke="#090" stroke-width="5" transform="rotate(0,709.0,2309.0)" width="24" x="697.0" y="2297.0" /><rect fill="#090" height="24" stroke="#090" stroke-width="5" transform="rotate(0,709.0,1093.0)" width="24" x="697.0" y="1081.0" /><rect fill="#090" height="24" stroke="#090" stroke-width="5" transform="rotate(270,709.0,1669.0)" width="24" x="697.0" y="1657.0" /><rect fill="#090" height="24" stroke="#090" stroke-width="5" transform="rotate(0,709.0,1349.0)" width="24" x="697.0" y="1337.0" /><rect fill="#090" height="24" stroke="#090" stroke-width="5" transform="rotate(270,1093.0,1349.0)" width="24" x="1081.0" y="1337.0" /><rect fill="#090" height="24" stroke="#090" stroke-width="5" transform="rotate(45,837.0,453.0)" width="24" x="825.0" y="441.0" /><circle cx="2565.0" cy="261.0" fill="#900" r="16" stroke="#900" stroke-width="5" /><circle cx="837.0" cy="261.0" fill="#900" r="16" stroke="#900" stroke-width="5" /><circle cx="1093.0" cy="453.0" fill="#090" r="16" stroke="#090" stroke-width="5" /><circle cx="1093.0" cy="325.0" fill="#090" r="16" stroke="#090" stroke-width="5" /><circle cx="1221.0" cy="581.0" fill="#090" r="16" stroke="#090" stroke-width="5" /><circle cx="1349.0" cy="837.0" fill="#090" r="16" stroke="#090" stroke-width="5" /><circle cx="1413.0" cy="1093.0" fill="#090" r="16" stroke="#090" stroke-width="5" /><circle cx="1541.0" cy="965.0" fill="#090" r="16" stroke="#090" stroke-width="5" /><circle cx="1221.0" cy="965.0" fill="#090" r="16" stroke="#090" stroke-width="5" /><circle cx="1029.0" cy="709.0" fill="#090" r="16" stroke="#090" stroke-width="5" /><circle cx="773.0" cy="709.0" fill="#090" r="16" stroke="#090" stroke-width="5" /><circle cx="709.0" cy="837.0" fill="#090" r="16" stroke="#090" stroke-width="5" /><circle cx="2821.0" cy="645.0" fill="#090" r="16" stroke="#090" stroke-width="5" /><circle cx="2629.0" cy="645.0" fill="#090" r="16" stroke="#090" stroke-width="5" /><circle cx="2181.0" cy="837.0" fill="#090" r="16" stroke="#090" stroke-width="5" /><circle cx="2245.0" cy="1093.0" fill="#090" r="16" stroke="#090" stroke-width="5" /><circle cx="2437.0" cy="1093.0" fill="#090" r="16" stroke="#090" stroke-width="5" /><circle cx="2949.0" cy="1157.0" fill="#090" r="16" stroke="#090" stroke-width="5" /><circle cx="2885.0" cy="1605.0" fill="#090" r="16" stroke="#090" stroke-width="5" /><circle cx="2373.0" cy="1605.0" fill="#090" r="16" stroke="#090" stroke-width="5" /><circle cx="2757.0" cy="1925.0" fill="#090" r="16" stroke="#090" stroke-width="5" /><circle cx="2885.0" cy="1925.0" fill="#090" r="16" stroke="#090" stroke-width="5" /><circle cx="2949.0" cy="2309.0" fill="#090" r="16" stroke="#090" stroke-width="5" /><circle cx="2757.0" cy="2245.0" fill="#090" r="16" stroke="#090" stroke-width="5" /><circle cx="2309.0" cy="2437.0" fill="#090" r="16" stroke="#090" stroke-width="5" /><circle cx="1925.0" cy="2181.0" fill="#090" r="16" stroke="#090" stroke-width="5" /><circle cx="2117.0" cy="1477.0" fill="#090" r="16" stroke="#090" stroke-width="5" /><circle cx="2117.0" cy="1605.0" fill="#090" r="16" stroke="#090" stroke-width="5" /><circle cx="1989.0" cy="1349.0" fill="#090" r="16" stroke="#090" stroke-width="5" /><circle cx="1797.0" cy="1797.0" fill="#090" r="16" stroke="#090" stroke-width="5" /><circle cx="1541.0" cy="1541.0" fill="#090" r="16" stroke="#090" stroke-width="5" /><circle cx="1349.0" cy="1285.0" fill="#090" r="16" stroke="#090" stroke-width="5" /><circle cx="965.0" cy="1925.0" fill="#090" r="16" stroke="#090" stroke-width="5" /><circle cx="965.0" cy="2437.0" fill="#090" r="16" stroke="#090" stroke-width="5" /><circle cx="645.0" cy="2501.0" fill="#090" r="16" stroke="#090" stroke-width="5" /><circle cx="1285.0" cy="2309.0" fill="#090" r="16" stroke="#090" stroke-width="5" /><circle cx="1797.0" cy="2501.0" fill="#090" r="16" stroke="#090" stroke-width="5" /><circle cx="1797.0" cy="2245.0" fill="#090" r="16" stroke="#090" stroke-width="5" /><circle cx="1413.0" cy="2309.0" fill="#090" r="16" stroke="#090" stroke-width="5" /><circle cx="1413.0" cy="2437.0" fill="#090" r="16" stroke="#090" stroke-width="5" /><circle cx="2757.0" cy="2501.0" fill="#090" r="16" stroke="#090" stroke-width="5" /><circle cx="2885.0" cy="261.0" fill="#090" r="16" stroke="#090" stroke-width="5" /><circle cx="2949.0" cy="389.0" fill="#090" r="16" stroke="#090" stroke-width="5" /><circle cx="2693.0" cy="261.0" fill="#090" r="16" stroke="#090" stroke-width="5" /><circle cx="2245.0" cy="389.0" fill="#090" r="16" stroke="#090" stroke-width="5" /><circle cx="1861.0" cy="645.0" fill="#090" r="16" stroke="#090" stroke-width="5" /><circle cx="1861.0" cy="389.0" fill="#090" r="16" stroke="#090" stroke-width="5" /><rect fill="#900" height="48" stroke="#900" stroke-width="5" transform="rotate(180,197.0,1541.0)" width="32" x="181.0" y="1517.0" /><rect fill="#900" height="48" stroke="#900" stroke-width="5" transform="rotate(180,197.0,1669.0)" width="32" x="181.0" y="1645.0" /><rect fill="#900" height="48" stroke="#900" stroke-width="5" transform="rotate(180,261.0,1541.0)" width="32" x="245.0" y="1517.0" /><rect fill="#900" height="48" stroke="#900" stroke-width="5" transform="rotate(180,325.0,1605.0)" width="32" x="309.0" y="1581.0" /><rect fill="#900" height="48" stroke="#900" stroke-width="5" transform="rotate(180,325.0,1541.0)" width="32" x="309.0" y="1517.0" /><rect fill="#900" height="48" stroke="#900" stroke-width="5" transform="rotate(180,325.0,1477.0)" width="32" x="309.0" y="1453.0" /><rect fill="#900" height="48" stroke="#900" stroke-width="5" transform="rotate(180,261.0,1349.0)" width="32" x="245.0" y="1325.0" /><rect fill="#900" height="48" stroke="#900" stroke-width="5" transform="rotate(180,133.0,1477.0)" width="32" x="117.0" y="1453.0" /><rect fill="#900" height="48" stroke="#900" stroke-width="5" transform="rotate(180,69.0,1221.0)" width="32" x="53.0" y="1197.0" /><rect fill="#900" height="48" stroke="#900" stroke-width="5" transform="rotate(180,133.0,1349.0)" width="32" x="117.0" y="1325.0" /><rect fill="#900" height="48" stroke="#900" stroke-width="5" transform="rotate(180,69.0,1669.0)" width="32" x="53.0" y="1645.0" /><rect fill="#900" height="48" stroke="#900" stroke-width="5" transform="rotate(180,133.0,1605.0)" width="32" x="117.0" y="1581.0" /><rect fill="#900" height="48" stroke="#900" stroke-width="5" transform="rotate(180,69.0,1733.0)" width="32" x="53.0" y="1709.0" /><rect fill="#900" height="48" stroke="#900" stroke-width="5" transform="rotate(180,325.0,1413.0)" width="32" x="309.0" y="1389.0" /><ellipse cx="4613.0" cy="69.0" fill="#009" rx="12" ry="24" stroke="#009" stroke-width="5" /><ellipse cx="4549.0" cy="69.0" fill="#009" rx="12" ry="24" stroke="#009" stroke-width="5" /><ellipse cx="4293.0" cy="69.0" fill="#009" rx="12" ry="24" stroke="#009" stroke-width="5" /></svg>