<?xml version="1.0" encoding="utf-8" ?>
<svg baseProfile="tiny" height="909" version="1.2" viewBox="0 0 3074 2730" width="1024" xmlns="http://www.w3.org/2000/svg" xmlns:ev="http://www.w3.org/2001/xml-events" xmlns:xlink="http://www.w3.org/1999/xlink"><defs /><line stroke="#333" stroke-width="10" x1="5.0" x2="5.0" y1="5.0" y2="1661.0" /><line stroke="#333" stroke-width="10" x1="517.0" x2="5.0" y1="5.0" y2="5.0" /><line stroke="#999" stroke-width="3" x1="2885.0" x2="2885.0" y1="765.0" y2="317.0" /><line stroke="#999" stroke-width="3" x1="2813.0" x2="2885.0" y1="1405.0" y2="1405.0" /><line stroke="#999" stroke-width="3" x1="2557.0" x2="2557.0" y1="1445.0" y2="1405.0" /><line stroke="#333" stroke-width="10" x1="2101.0" x2="1277.0" y1="5.0" y2="5.0" /><line stroke="#999" stroke-width="3" x1="517.0" x2="517.0" y1="245.0" y2="5.0" /><line stroke="#333" stroke-width="10" x1="189.0" x2="517.0" y1="245.0" y2="245.0" /><line stroke="#333" stroke-width="10" x1="189.0" x2="189.0" y1="765.0" y2="245.0" /><line stroke="#333" stroke-width="10" x1="517.0" x2="189.0" y1="1413.0" y2="1413.0" /><line stroke="#999" stroke-width="3" x1="517.0" x2="517.0" y1="1661.0" y2="1413.0" /><line stroke="#333" stroke-width="10" x1="5.0" x2="517.0" y1="1661.0" y2="1661.0" /><line stroke="#999" stroke-width="3" x1="2357.0" x2="2357.0" y1="5.0" y2="381.0" /><line stroke="#999" stroke-width="3" x1="2357.0" x2="2813.0" y1="381.0" y2="381.0" /><line stroke="#999" stroke-width="3" x1="2813.0" x2="2813.0" y1="381.0" y2="1405.0" /><line stroke="#999" stroke-width="3" x1="2749.0" x2="2813.0" y1="1405.0" y2="1405.0" /><line stroke="#333" stroke-width="10" x1="2357.0" x2="2301.0" y1="5.0" y2="5.0" /><line stroke="#999" stroke-width="3" x1="2301.0" x2="2301.0" y1="5.0" y2="437.0" /><line stroke="#999" stroke-width="3" x1="2301.0" x2="2749.0" y1="437.0" y2="437.0" /><line stroke="#999" stroke-width="3" x1="2749.0" x2="2749.0" y1="437.0" y2="1405.0" /><line stroke="#999" stroke-width="3" x1="2685.0" x2="2749.0" y1="1405.0" y2="1405.0" /><line stroke="#999" stroke-width="3" x1="2621.0" x2="2685.0" y1="1405.0" y2="1405.0" /><line stroke="#999" stroke-width="3" x1="2685.0" x2="2685.0" y1="509.0" y2="1405.0" /><line stroke="#999" stroke-width="3" x1="2237.0" x2="2685.0" y1="509.0" y2="509.0" /><line stroke="#999" stroke-width="3" x1="2237.0" x2="2237.0" y1="5.0" y2="509.0" /><line stroke="#333" stroke-width="10" x1="2301.0" x2="2237.0" y1="5.0" y2="5.0" /><line stroke="#333" stroke-width="10" x1="2237.0" x2="2165.0" y1="5.0" y2="5.0" /><line stroke="#999" stroke-width="3" x1="2165.0" x2="2165.0" y1="5.0" y2="581.0" /><line stroke="#999" stroke-width="3" x1="2621.0" x2="2621.0" y1="581.0" y2="1405.0" /><line stroke="#999" stroke-width="3" x1="2557.0" x2="2621.0" y1="1405.0" y2="1405.0" /><line stroke="#999" stroke-width="3" x1="2165.0" x2="2621.0" y1="581.0" y2="581.0" /><line stroke="#999" stroke-width="3" x1="2557.0" x2="2557.0" y1="637.0" y2="1405.0" /><line stroke="#999" stroke-width="3" x1="2101.0" x2="2557.0" y1="637.0" y2="637.0" /><line stroke="#999" stroke-width="3" x1="2101.0" x2="2101.0" y1="5.0" y2="637.0" /><line stroke="#333" stroke-width="10" x1="2165.0" x2="2101.0" y1="5.0" y2="5.0" /><line stroke="#333" stroke-width="10" x1="2429.0" x2="2357.0" y1="5.0" y2="5.0" /><line stroke="#999" stroke-width="3" x1="2885.0" x2="2429.0" y1="317.0" y2="317.0" /><line stroke="#999" stroke-width="3" x1="2429.0" x2="2429.0" y1="317.0" y2="277.0" /><line stroke="#333" stroke-width="10" x1="3069.0" x2="2429.0" y1="5.0" y2="5.0" /><line stroke="#999" stroke-width="3" x1="2429.0" x2="2429.0" y1="5.0" y2="277.0" /><line stroke="#999" stroke-width="3" x1="2429.0" x2="2917.0" y1="277.0" y2="277.0" /><line stroke="#999" stroke-width="3" x1="2917.0" x2="2917.0" y1="277.0" y2="445.0" /><line stroke="#999" stroke-width="3" x1="2917.0" x2="2557.0" y1="1445.0" y2="1445.0" /><line stroke="#666" stroke-width="20" x1="2885.0" x2="2885.0" y1="965.0" y2="765.0" /><line stroke="#666" stroke-width="20" x1="2885.0" x2="2917.0" y1="765.0" y2="765.0" /><line stroke="#666" stroke-width="20" x1="2917.0" x2="2917.0" y1="765.0" y2="965.0" /><line stroke="#999" stroke-width="3" x1="2885.0" x2="2885.0" y1="1405.0" y2="965.0" /><line stroke="#666" stroke-width="20" x1="2917.0" x2="2885.0" y1="965.0" y2="965.0" /><line stroke="#333" stroke-width="10" x1="517.0" x2="517.0" y1="245.0" y2="765.0" /><line stroke="#333" stroke-width="10" x1="517.0" x2="517.0" y1="957.0" y2="1413.0" /><line stroke="#333" stroke-width="10" x1="445.0" x2="517.0" y1="957.0" y2="957.0" /><line stroke="#333" stroke-width="10" x1="517.0" x2="445.0" y1="765.0" y2="765.0" /><line stroke="#999" stroke-width="3" x1="517.0" x2="517.0" y1="765.0" y2="957.0" /><line stroke="#666" stroke-width="20" x1="445.0" x2="445.0" y1="957.0" y2="765.0" /><line stroke="#333" stroke-width="10" x1="445.0" x2="373.0" y1="765.0" y2="765.0" /><line stroke="#999" stroke-width="3" x1="373.0" x2="373.0" y1="957.0" y2="765.0" /><line stroke="#333" stroke-width="10" x1="373.0" x2="445.0" y1="957.0" y2="957.0" /><line stroke="#333" stroke-width="10" x1="373.0" x2="317.0" y1="765.0" y2="765.0" /><line stroke="#999" stroke-width="3" x1="317.0" x2="317.0" y1="957.0" y2="765.0" /><line stroke="#333" stroke-width="10" x1="317.0" x2="373.0" y1="957.0" y2="957.0" /><line stroke="#333" stroke-width="10" x1="317.0" x2="253.0" y1="765.0" y2="765.0" /><line stroke="#999" stroke-width="3" x1="253.0" x2="253.0" y1="957.0" y2="765.0" /><line stroke="#333" stroke-width="10" x1="253.0" x2="317.0" y1="957.0" y2="957.0" /><line stroke="#333" stroke-width="10" x1="253.0" x2="189.0" y1="765.0" y2="765.0" /><line stroke="#999" stroke-width="3" x1="189.0" x2="189.0" y1="957.0" y2="765.0" /><line stroke="#333" stroke-width="10" x1="189.0" x2="189.0" y1="1413.0" y2="957.0" /><line stroke="#333" stroke-width="10" x1="189.0" x2="253.0" y1="957.0" y2="957.0" /><line stroke="#999" stroke-width="3" x1="1213.0" x2="1277.0" y1="245.0" y2="245.0" /><line stroke="#999" stroke-width="3" x1="1277.0" x2="1277.0" y1="245.0" y2="317.0" /><line stroke="#999" stroke-width="3" x1="1277.0" x2="1213.0" y1="317.0" y2="317.0" /><line stroke="#999" stroke-width="3" x1="781.0" x2="781.0" y1="317.0" y2="765.0" /><line stroke="#999" stroke-width="3" x1="781.0" x2="829.0" y1="1341.0" y2="1341.0" /><line stroke="#999" stroke-width="3" x1="829.0" x2="781.0" y1="317.0" y2="317.0" /><line stroke="#999" stroke-width="3" x1="829.0" x2="829.0" y1="317.0" y2="1341.0" /><line stroke="#999" stroke-width="3" x1="829.0" x2="893.0" y1="1341.0" y2="1341.0" /><line stroke="#999" stroke-width="3" x1="893.0" x2="957.0" y1="1341.0" y2="1341.0" /><line stroke="#999" stroke-width="3" x1="893.0" x2="893.0" y1="317.0" y2="1341.0" /><line stroke="#999" stroke-width="3" x1="893.0" x2="829.0" y1="317.0" y2="317.0" /><line stroke="#999" stroke-width="3" x1="957.0" x2="893.0" y1="317.0" y2="317.0" /><line stroke="#999" stroke-width="3" x1="957.0" x2="957.0" y1="317.0" y2="1341.0" /><line stroke="#999" stroke-width="3" x1="957.0" x2="1021.0" y1="1341.0" y2="1341.0" /><line stroke="#999" stroke-width="3" x1="1021.0" x2="1085.0" y1="1341.0" y2="1341.0" /><line stroke="#999" stroke-width="3" x1="1021.0" x2="1021.0" y1="317.0" y2="1341.0" /><line stroke="#999" stroke-width="3" x1="1021.0" x2="957.0" y1="317.0" y2="317.0" /><line stroke="#999" stroke-width="3" x1="1085.0" x2="1021.0" y1="317.0" y2="317.0" /><line stroke="#999" stroke-width="3" x1="1085.0" x2="1085.0" y1="317.0" y2="1341.0" /><line stroke="#999" stroke-width="3" x1="1085.0" x2="1149.0" y1="1341.0" y2="1341.0" /><line stroke="#999" stroke-width="3" x1="1149.0" x2="1213.0" y1="1341.0" y2="1341.0" /><line stroke="#999" stroke-width="3" x1="1149.0" x2="1149.0" y1="317.0" y2="1341.0" /><line stroke="#999" stroke-width="3" x1="1149.0" x2="1085.0" y1="317.0" y2="317.0" /><line stroke="#999" stroke-width="3" x1="1213.0" x2="1149.0" y1="317.0" y2="317.0" /><line stroke="#999" stroke-width="3" x1="1213.0" x2="1213.0" y1="317.0" y2="1341.0" /><line stroke="#999" stroke-width="3" x1="1213.0" x2="1277.0" y1="1341.0" y2="1341.0" /><line stroke="#999" stroke-width="3" x1="1277.0" x2="1277.0" y1="1341.0" y2="317.0" /><line stroke="#999" stroke-width="3" x1="685.0" x2="685.0" y1="765.0" y2="245.0" /><line stroke="#999" stroke-width="3" x1="685.0" x2="781.0" y1="765.0" y2="765.0" /><line stroke="#999" stroke-width="3" x1="781.0" x2="781.0" y1="765.0" y2="957.0" /><line stroke="#999" stroke-width="3" x1="781.0" x2="781.0" y1="957.0" y2="1341.0" /><line stroke="#999" stroke-width="3" x1="781.0" x2="685.0" y1="957.0" y2="957.0" /><line stroke="#999" stroke-width="3" x1="685.0" x2="685.0" y1="957.0" y2="765.0" /><line stroke="#999" stroke-width="3" x1="2917.0" x2="2917.0" y1="965.0" y2="1021.0" /><line stroke="#999" stroke-width="3" x1="2917.0" x2="2917.0" y1="1021.0" y2="1085.0" /><line stroke="#999" stroke-width="3" x1="2917.0" x2="3069.0" y1="1021.0" y2="1021.0" /><line stroke="#333" stroke-width="10" x1="3069.0" x2="3069.0" y1="1021.0" y2="637.0" /><line stroke="#999" stroke-width="3" x1="2917.0" x2="2917.0" y1="1085.0" y2="1149.0" /><line stroke="#999" stroke-width="3" x1="2917.0" x2="3069.0" y1="1085.0" y2="1085.0" /><line stroke="#333" stroke-width="10" x1="3069.0" x2="3069.0" y1="1085.0" y2="1021.0" /><line stroke="#999" stroke-width="3" x1="2917.0" x2="2917.0" y1="1149.0" y2="1213.0" /><line stroke="#999" stroke-width="3" x1="2917.0" x2="3069.0" y1="1149.0" y2="1149.0" /><line stroke="#333" stroke-width="10" x1="3069.0" x2="3069.0" y1="1149.0" y2="1085.0" /><line stroke="#999" stroke-width="3" x1="2917.0" x2="2917.0" y1="1213.0" y2="1277.0" /><line stroke="#999" stroke-width="3" x1="2917.0" x2="3069.0" y1="1213.0" y2="1213.0" /><line stroke="#333" stroke-width="10" x1="3069.0" x2="3069.0" y1="1213.0" y2="1149.0" /><line stroke="#999" stroke-width="3" x1="2917.0" x2="2917.0" y1="1277.0" y2="1445.0" /><line stroke="#999" stroke-width="3" x1="2917.0" x2="3069.0" y1="1277.0" y2="1277.0" /><line stroke="#333" stroke-width="10" x1="3069.0" x2="3069.0" y1="1277.0" y2="1213.0" /><line stroke="#999" stroke-width="3" x1="2917.0" x2="2917.0" y1="637.0" y2="765.0" /><line stroke="#999" stroke-width="3" x1="2917.0" x2="3069.0" y1="637.0" y2="637.0" /><line stroke="#333" stroke-width="10" x1="3069.0" x2="3069.0" y1="637.0" y2="445.0" /><line stroke="#999" stroke-width="3" x1="2917.0" x2="2917.0" y1="445.0" y2="637.0" /><line stroke="#999" stroke-width="3" x1="2917.0" x2="3069.0" y1="445.0" y2="445.0" /><line stroke="#333" stroke-width="10" x1="3069.0" x2="3069.0" y1="445.0" y2="5.0" /><line stroke="#999" stroke-width="3" x1="1277.0" x2="1277.0" y1="5.0" y2="245.0" /><line stroke="#333" stroke-width="10" x1="1277.0" x2="1213.0" y1="5.0" y2="5.0" /><line stroke="#333" stroke-width="10" x1="1213.0" x2="1149.0" y1="5.0" y2="5.0" /><line stroke="#999" stroke-width="3" x1="1213.0" x2="1213.0" y1="245.0" y2="5.0" /><line stroke="#999" stroke-width="3" x1="1149.0" x2="1213.0" y1="245.0" y2="245.0" /><line stroke="#999" stroke-width="3" x1="1085.0" x2="1149.0" y1="245.0" y2="245.0" /><line stroke="#999" stroke-width="3" x1="1149.0" x2="1149.0" y1="245.0" y2="5.0" /><line stroke="#333" stroke-width="10" x1="1149.0" x2="1085.0" y1="5.0" y2="5.0" /><line stroke="#333" stroke-width="10" x1="1085.0" x2="1021.0" y1="5.0" y2="5.0" /><line stroke="#999" stroke-width="3" x1="1085.0" x2="1085.0" y1="245.0" y2="5.0" /><line stroke="#999" stroke-width="3" x1="1021.0" x2="1085.0" y1="245.0" y2="245.0" /><line stroke="#999" stroke-width="3" x1="957.0" x2="1021.0" y1="245.0" y2="245.0" /><line stroke="#999" stroke-width="3" x1="1021.0" x2="1021.0" y1="245.0" y2="5.0" /><line stroke="#333" stroke-width="10" x1="1021.0" x2="957.0" y1="5.0" y2="5.0" /><line stroke="#333" stroke-width="10" x1="957.0" x2="893.0" y1="5.0" y2="5.0" /><line stroke="#999" stroke-width="3" x1="957.0" x2="957.0" y1="245.0" y2="5.0" /><line stroke="#999" stroke-width="3" x1="893.0" x2="957.0" y1="245.0" y2="245.0" /><line stroke="#999" stroke-width="3" x1="829.0" x2="893.0" y1="245.0" y2="245.0" /><line stroke="#999" stroke-width="3" x1="893.0" x2="893.0" y1="245.0" y2="5.0" /><line stroke="#333" stroke-width="10" x1="893.0" x2="829.0" y1="5.0" y2="5.0" /><line stroke="#333" stroke-width="10" x1="829.0" x2="765.0" y1="5.0" y2="5.0" /><line stroke="#999" stroke-width="3" x1="829.0" x2="829.0" y1="245.0" y2="5.0" /><line stroke="#999" stroke-width="3" x1="765.0" x2="829.0" y1="245.0" y2="245.0" /><line stroke="#999" stroke-width="3" x1="685.0" x2="765.0" y1="245.0" y2="245.0" /><line stroke="#999" stroke-width="3" x1="765.0" x2="765.0" y1="245.0" y2="5.0" /><line stroke="#333" stroke-width="10" x1="765.0" x2="685.0" y1="5.0" y2="5.0" /><line stroke="#999" stroke-width="3" x1="685.0" x2="685.0" y1="245.0" y2="5.0" /><line stroke="#333" stroke-width="10" x1="685.0" x2="517.0" y1="5.0" y2="5.0" /><line stroke="#333" stroke-width="10" x1="517.0" x2="685.0" y1="1661.0" y2="1661.0" /><line stroke="#999" stroke-width="3" x1="685.0" x2="685.0" y1="1405.0" y2="957.0" /><line stroke="#999" stroke-width="3" x1="685.0" x2="685.0" y1="1405.0" y2="1661.0" /><line stroke="#999" stroke-width="3" x1="765.0" x2="685.0" y1="1405.0" y2="1405.0" /><line stroke="#999" stroke-width="3" x1="829.0" x2="765.0" y1="1405.0" y2="1405.0" /><line stroke="#999" stroke-width="3" x1="765.0" x2="765.0" y1="1405.0" y2="1661.0" /><line stroke="#333" stroke-width="10" x1="685.0" x2="765.0" y1="1661.0" y2="1661.0" /><line stroke="#333" stroke-width="10" x1="765.0" x2="829.0" y1="1661.0" y2="1661.0" /><line stroke="#999" stroke-width="3" x1="829.0" x2="829.0" y1="1405.0" y2="1661.0" /><line stroke="#999" stroke-width="3" x1="885.0" x2="829.0" y1="1405.0" y2="1405.0" /><line stroke="#999" stroke-width="3" x1="957.0" x2="885.0" y1="1405.0" y2="1405.0" /><line stroke="#999" stroke-width="3" x1="885.0" x2="885.0" y1="1405.0" y2="1661.0" /><line stroke="#333" stroke-width="10" x1="829.0" x2="885.0" y1="1661.0" y2="1661.0" /><line stroke="#333" stroke-width="10" x1="885.0" x2="957.0" y1="1661.0" y2="1661.0" /><line stroke="#999" stroke-width="3" x1="957.0" x2="957.0" y1="1405.0" y2="1661.0" /><line stroke="#999" stroke-width="3" x1="1021.0" x2="957.0" y1="1405.0" y2="1405.0" /><line stroke="#999" stroke-width="3" x1="1077.0" x2="1021.0" y1="1405.0" y2="1405.0" /><line stroke="#999" stroke-width="3" x1="1021.0" x2="1021.0" y1="1405.0" y2="1661.0" /><line stroke="#333" stroke-width="10" x1="957.0" x2="1021.0" y1="1661.0" y2="1661.0" /><line stroke="#333" stroke-width="10" x1="1021.0" x2="1077.0" y1="1661.0" y2="1661.0" /><line stroke="#999" stroke-width="3" x1="1077.0" x2="1077.0" y1="1405.0" y2="1661.0" /><line stroke="#999" stroke-width="3" x1="1149.0" x2="1077.0" y1="1405.0" y2="1405.0" /><line stroke="#999" stroke-width="3" x1="1213.0" x2="1149.0" y1="1405.0" y2="1405.0" /><line stroke="#999" stroke-width="3" x1="1149.0" x2="1149.0" y1="1405.0" y2="1661.0" /><line stroke="#333" stroke-width="10" x1="1077.0" x2="1149.0" y1="1661.0" y2="1661.0" /><line stroke="#333" stroke-width="10" x1="1149.0" x2="1213.0" y1="1661.0" y2="1661.0" /><line stroke="#999" stroke-width="3" x1="1213.0" x2="1213.0" y1="1405.0" y2="1661.0" /><line stroke="#999" stroke-width="3" x1="1277.0" x2="1277.0" y1="1341.0" y2="1405.0" /><line stroke="#999" stroke-width="3" x1="1277.0" x2="1213.0" y1="1405.0" y2="1405.0" /><line stroke="#999" stroke-width="3" x1="1277.0" x2="1277.0" y1="1661.0" y2="1405.0" /><line stroke="#333" stroke-width="10" x1="1213.0" x2="1277.0" y1="1661.0" y2="1661.0" /><line stroke="#333" stroke-width="10" x1="1277.0" x2="1789.0" y1="1661.0" y2="1661.0" /><line stroke="#333" stroke-width="10" x1="3069.0" x2="3069.0" y1="1661.0" y2="1277.0" /><line stroke="#999" stroke-width="3" x1="2557.0" x2="2557.0" y1="1445.0" y2="1661.0" /><line stroke="#333" stroke-width="10" x1="2557.0" x2="3069.0" y1="1661.0" y2="1661.0" /><line stroke="#999" stroke-width="3" x1="1789.0" x2="2109.0" y1="1661.0" y2="1661.0" /><line stroke="#333" stroke-width="10" x1="1789.0" x2="1789.0" y1="1661.0" y2="1733.0" /><line stroke="#333" stroke-width="10" x1="1789.0" x2="1853.0" y1="1733.0" y2="1733.0" /><line stroke="#333" stroke-width="10" x1="2109.0" x2="2109.0" y1="1733.0" y2="1661.0" /><line stroke="#333" stroke-width="10" x1="2109.0" x2="2557.0" y1="1661.0" y2="1661.0" /><line stroke="#999" stroke-width="3" x1="1853.0" x2="2037.0" y1="1733.0" y2="1733.0" /><line stroke="#333" stroke-width="10" x1="1853.0" x2="1909.0" y1="1733.0" y2="1829.0" /><line stroke="#333" stroke-width="10" x1="1909.0" x2="1837.0" y1="1829.0" y2="1941.0" /><line stroke="#333" stroke-width="10" x1="1837.0" x2="1733.0" y1="1941.0" y2="2013.0" /><line stroke="#333" stroke-width="10" x1="1733.0" x2="1613.0" y1="2013.0" y2="2037.0" /><line stroke="#333" stroke-width="10" x1="1613.0" x2="1501.0" y1="2037.0" y2="2029.0" /><line stroke="#333" stroke-width="10" x1="1501.0" x2="1357.0" y1="2029.0" y2="2085.0" /><line stroke="#333" stroke-width="10" x1="1357.0" x2="1309.0" y1="2085.0" y2="2221.0" /><line stroke="#333" stroke-width="10" x1="1309.0" x2="1341.0" y1="2221.0" y2="2317.0" /><line stroke="#333" stroke-width="10" x1="1341.0" x2="1341.0" y1="2317.0" y2="2485.0" /><line stroke="#333" stroke-width="10" x1="1341.0" x2="1413.0" y1="2485.0" y2="2597.0" /><line stroke="#333" stroke-width="10" x1="1413.0" x2="1517.0" y1="2597.0" y2="2661.0" /><line stroke="#333" stroke-width="10" x1="1517.0" x2="1669.0" y1="2661.0" y2="2717.0" /><line stroke="#333" stroke-width="10" x1="1669.0" x2="1861.0" y1="2717.0" y2="2725.0" /><line stroke="#333" stroke-width="10" x1="1861.0" x2="2021.0" y1="2725.0" y2="2685.0" /><line stroke="#333" stroke-width="10" x1="2021.0" x2="2165.0" y1="2685.0" y2="2589.0" /><line stroke="#333" stroke-width="10" x1="2165.0" x2="2221.0" y1="2589.0" y2="2557.0" /><line stroke="#333" stroke-width="10" x1="2237.0" x2="2237.0" y1="2557.0" y2="2693.0" /><line stroke="#333" stroke-width="10" x1="2237.0" x2="2749.0" y1="2693.0" y2="2693.0" /><line stroke="#333" stroke-width="10" x1="2749.0" x2="2749.0" y1="2693.0" y2="2493.0" /><line stroke="#333" stroke-width="10" x1="2749.0" x2="2237.0" y1="2109.0" y2="2109.0" /><line stroke="#333" stroke-width="10" x1="2237.0" x2="2237.0" y1="2109.0" y2="2437.0" /><line stroke="#333" stroke-width="10" x1="2237.0" x2="2221.0" y1="2437.0" y2="2437.0" /><line stroke="#333" stroke-width="10" x1="2133.0" x2="1997.0" y1="2493.0" y2="2581.0" /><line stroke="#333" stroke-width="10" x1="1997.0" x2="1853.0" y1="2581.0" y2="2621.0" /><line stroke="#333" stroke-width="10" x1="1853.0" x2="1685.0" y1="2621.0" y2="2613.0" /><line stroke="#333" stroke-width="10" x1="1685.0" x2="1581.0" y1="2613.0" y2="2565.0" /><line stroke="#333" stroke-width="10" x1="1581.0" x2="1509.0" y1="2565.0" y2="2525.0" /><line stroke="#333" stroke-width="10" x1="1509.0" x2="1453.0" y1="2525.0" y2="2445.0" /><line stroke="#333" stroke-width="10" x1="1453.0" x2="1445.0" y1="2445.0" y2="2317.0" /><line stroke="#333" stroke-width="10" x1="1445.0" x2="1429.0" y1="2317.0" y2="2237.0" /><line stroke="#333" stroke-width="10" x1="1429.0" x2="1453.0" y1="2237.0" y2="2173.0" /><line stroke="#333" stroke-width="10" x1="1453.0" x2="1533.0" y1="2173.0" y2="2157.0" /><line stroke="#333" stroke-width="10" x1="1533.0" x2="1621.0" y1="2157.0" y2="2133.0" /><line stroke="#333" stroke-width="10" x1="1621.0" x2="1757.0" y1="2133.0" y2="2093.0" /><line stroke="#333" stroke-width="10" x1="1757.0" x2="1917.0" y1="2093.0" y2="1997.0" /><line stroke="#333" stroke-width="10" x1="1917.0" x2="2021.0" y1="1997.0" y2="1845.0" /><line stroke="#333" stroke-width="10" x1="2021.0" x2="2037.0" y1="1845.0" y2="1733.0" /><line stroke="#333" stroke-width="10" x1="2037.0" x2="2109.0" y1="1733.0" y2="1733.0" /><line stroke="#999" stroke-width="3" x1="1909.0" x2="2021.0" y1="1829.0" y2="1845.0" /><line stroke="#999" stroke-width="3" x1="1837.0" x2="1917.0" y1="1941.0" y2="1997.0" /><line stroke="#999" stroke-width="3" x1="1733.0" x2="1757.0" y1="2013.0" y2="2093.0" /><line stroke="#999" stroke-width="3" x1="1613.0" x2="1621.0" y1="2037.0" y2="2133.0" /><line stroke="#999" stroke-width="3" x1="1501.0" x2="1533.0" y1="2029.0" y2="2157.0" /><line stroke="#999" stroke-width="3" x1="1357.0" x2="1453.0" y1="2085.0" y2="2173.0" /><line stroke="#999" stroke-width="3" x1="1309.0" x2="1429.0" y1="2221.0" y2="2237.0" /><line stroke="#999" stroke-width="3" x1="1341.0" x2="1445.0" y1="2317.0" y2="2317.0" /><line stroke="#999" stroke-width="3" x1="1341.0" x2="1453.0" y1="2485.0" y2="2445.0" /><line stroke="#999" stroke-width="3" x1="1413.0" x2="1509.0" y1="2597.0" y2="2525.0" /><line stroke="#999" stroke-width="3" x1="1517.0" x2="1581.0" y1="2661.0" y2="2565.0" /><line stroke="#999" stroke-width="3" x1="1669.0" x2="1685.0" y1="2717.0" y2="2613.0" /><line stroke="#999" stroke-width="3" x1="1861.0" x2="1853.0" y1="2725.0" y2="2621.0" /><line stroke="#999" stroke-width="3" x1="2021.0" x2="1997.0" y1="2685.0" y2="2581.0" /><line stroke="#999" stroke-width="3" x1="2165.0" x2="2133.0" y1="2589.0" y2="2493.0" /><line stroke="#666" stroke-width="20" x1="2237.0" x2="2237.0" y1="2437.0" y2="2557.0" /><line stroke="#333" stroke-width="10" x1="2221.0" x2="2133.0" y1="2437.0" y2="2493.0" /><line stroke="#666" stroke-width="20" x1="2221.0" x2="2221.0" y1="2557.0" y2="2437.0" /><line stroke="#333" stroke-width="10" x1="2221.0" x2="2237.0" y1="2557.0" y2="2557.0" /><line stroke="#999" stroke-width="3" x1="2261.0" x2="2261.0" y1="2141.0" y2="2669.0" /><line stroke="#999" stroke-width="3" x1="2717.0" x2="2261.0" y1="2141.0" y2="2141.0" /><line stroke="#999" stroke-width="3" x1="2717.0" x2="2717.0" y1="2669.0" y2="2141.0" /><line stroke="#999" stroke-width="3" x1="2717.0" x2="2261.0" y1="2669.0" y2="2669.0" /><line stroke="#999" stroke-width="3" x1="2293.0" x2="2293.0" y1="2173.0" y2="2645.0" /><line stroke="#999" stroke-width="3" x1="2685.0" x2="2293.0" y1="2173.0" y2="2173.0" /><line stroke="#999" stroke-width="3" x1="2685.0" x2="2685.0" y1="2645.0" y2="2173.0" /><line stroke="#999" stroke-width="3" x1="2685.0" x2="2293.0" y1="2645.0" y2="2645.0" /><line stroke="#999" stroke-width="3" x1="2325.0" x2="2325.0" y1="2205.0" y2="2621.0" /><line stroke="#999" stroke-width="3" x1="2653.0" x2="2325.0" y1="2205.0" y2="2205.0" /><line stroke="#999" stroke-width="3" x1="2653.0" x2="2653.0" y1="2621.0" y2="2205.0" /><line stroke="#999" stroke-width="3" x1="2653.0" x2="2325.0" y1="2621.0" y2="2621.0" /><line stroke="#999" stroke-width="3" x1="2357.0" x2="2357.0" y1="2237.0" y2="2597.0" /><line stroke="#999" stroke-width="3" x1="2621.0" x2="2357.0" y1="2237.0" y2="2237.0" /><line stroke="#999" stroke-width="3" x1="2621.0" x2="2621.0" y1="2597.0" y2="2237.0" /><line stroke="#999" stroke-width="3" x1="2621.0" x2="2357.0" y1="2597.0" y2="2597.0" /><line stroke="#999" stroke-width="3" x1="2389.0" x2="2389.0" y1="2269.0" y2="2565.0" /><line stroke="#999" stroke-width="3" x1="2589.0" x2="2389.0" y1="2269.0" y2="2269.0" /><line stroke="#999" stroke-width="3" x1="2589.0" x2="2589.0" y1="2565.0" y2="2269.0" /><line stroke="#999" stroke-width="3" x1="2589.0" x2="2389.0" y1="2565.0" y2="2565.0" /><line stroke="#999" stroke-width="3" x1="2421.0" x2="2421.0" y1="2301.0" y2="2533.0" /><line stroke="#999" stroke-width="3" x1="2565.0" x2="2421.0" y1="2301.0" y2="2301.0" /><line stroke="#999" stroke-width="3" x1="2565.0" x2="2565.0" y1="2533.0" y2="2301.0" /><line stroke="#999" stroke-width="3" x1="2565.0" x2="2421.0" y1="2533.0" y2="2533.0" /><line stroke="#999" stroke-width="3" x1="2445.0" x2="2445.0" y1="2325.0" y2="2509.0" /><line stroke="#999" stroke-width="3" x1="2549.0" x2="2445.0" y1="2325.0" y2="2325.0" /><line stroke="#999" stroke-width="3" x1="2549.0" x2="2549.0" y1="2509.0" y2="2325.0" /><line stroke="#999" stroke-width="3" x1="2549.0" x2="2445.0" y1="2509.0" y2="2509.0" /><line stroke="#999" stroke-width="3" x1="2469.0" x2="2469.0" y1="2349.0" y2="2485.0" /><line stroke="#999" stroke-width="3" x1="2525.0" x2="2469.0" y1="2349.0" y2="2349.0" /><line stroke="#999" stroke-width="3" x1="2525.0" x2="2525.0" y1="2485.0" y2="2349.0" /><line stroke="#999" stroke-width="3" x1="2469.0" x2="2525.0" y1="2485.0" y2="2485.0" /><line stroke="#0d0" stroke-width="20" x1="2749.0" x2="2749.0" y1="2493.0" y2="2365.0" /><line stroke="#333" stroke-width="10" x1="2749.0" x2="2749.0" y1="2365.0" y2="2109.0" /><line stroke="#999" stroke-width="3" x1="2493.0" x2="2493.0" y1="2429.0" y2="2405.0" /><line stroke="#999" stroke-width="3" x1="2493.0" x2="2501.0" y1="2405.0" y2="2405.0" /><line stroke="#999" stroke-width="3" x1="2501.0" x2="2501.0" y1="2405.0" y2="2429.0" /><line stroke="#999" stroke-width="3" x1="2501.0" x2="2493.0" y1="2429.0" y2="2429.0" /><ellipse cx="1725.0" cy="1501.0" fill="#009" rx="12" ry="24" stroke="#009" stroke-width="5" /><circle cx="159.0" cy="301.0" fill="#009" r="16" stroke="#009" stroke-width="5" /><circle cx="153.0" cy="1381.0" fill="#009" r="16" stroke="#009" stroke-width="5" /><circle cx="2497.0" cy="2415.0" fill="#009" r="16" stroke="#009" stroke-width="5" /><circle cx="2737.0" cy="2123.0" fill="#009" r="16" stroke="#009" stroke-width="5" /><circle cx="2735.0" cy="2681.0" fill="#009" r="16" stroke="#009" stroke-width="5" /><ellipse cx="1785.0" cy="1507.0" fill="#009" rx="12" ry="24" stroke="#009" stroke-width="5" /><ellipse cx="1653.0" cy="1525.0" fill="#009" rx="12" ry="24" stroke="#009" stroke-width="5" /><ellipse cx="1737.0" cy="1543.0" fill="#009" rx="12" ry="24" stroke="#009" stroke-width="5" /><rect fill="#090" height="24" stroke="#090" stroke-width="5" transform="rotate(270,1725.0,1609.0)" width="24" x="1713.0" y="1597.0" /><rect fill="#090" height="24" stroke="#090" stroke-width="5" transform="rotate(0,729.0,847.0)" width="24" x="717.0" y="835.0" /><rect fill="#090" height="24" stroke="#090" stroke-width="5" transform="rotate(315,21.0,1633.0)" width="24" x="9.0" y="1621.0" /><rect fill="#090" height="24" stroke="#090" stroke-width="5" transform="rotate(90,561.0,445.0)" width="24" x="549.0" y="433.0" /><rect fill="#090" height="24" stroke="#090" stroke-width="5" transform="rotate(90,2523.0,355.0)" width="24" x="2511.0" y="343.0" /><rect fill="#090" height="24" stroke="#090" stroke-width="5" transform="rotate(135,3027.0,37.0)" width="24" x="3015.0" y="25.0" /><rect fill="#090" height="24" stroke="#090" stroke-width="5" transform="rotate(225,3045.0,1633.0)" width="24" x="3033.0" y="1621.0" /><rect fill="#090" height="24" stroke="#090" stroke-width="5" transform="rotate(225,2847.0,1357.0)" width="24" x="2835.0" y="1345.0" /><rect fill="#090" height="24" stroke="#090" stroke-width="5" transform="rotate(225,1629.0,2653.0)" width="24" x="1617.0" y="2641.0" /><circle cx="733.0" cy="845.0" fill="#900" r="16" stroke="#900" stroke-width="5" /><circle cx="573.0" cy="437.0" fill="#900" r="16" stroke="#900" stroke-width="5" /><circle cx="45.0" cy="1629.0" fill="#900" r="16" stroke="#900" stroke-width="5" /><circle cx="1733.0" cy="1597.0" fill="#900" r="16" stroke="#900" stroke-width="5" /><circle cx="1629.0" cy="2645.0" fill="#900" r="16" stroke="#900" stroke-width="5" /><circle cx="2853.0" cy="1357.0" fill="#900" r="16" stroke="#900" stroke-width="5" /><circle cx="3053.0" cy="1637.0" fill="#900" r="16" stroke="#900" stroke-width="5" /><circle cx="2533.0" cy="349.0" fill="#900" r="16" stroke="#900" stroke-width="5" /><circle cx="3021.0" cy="37.0" fill="#900" r="16" stroke="#900" stroke-width="5" /><circle cx="2453.0" cy="117.0" fill="#900" r="16" stroke="#900" stroke-width="5" /><circle cx="2581.0" cy="1533.0" fill="#900" r="16" stroke="#900" stroke-width="5" /><circle cx="485.0" cy="1533.0" fill="#900" r="16" stroke="#900" stroke-width="5" /><circle cx="469.0" cy="125.0" fill="#900" r="16" stroke="#900" stroke-width="5" /><circle cx="605.0" cy="853.0" fill="#900" r="16" stroke="#900" stroke-width="5" /><circle cx="2997.0" cy="861.0" fill="#900" r="16" stroke="#900" stroke-width="5" /><circle cx="1901.0" cy="765.0" fill="#900" r="16" stroke="#900" stroke-width="5" /><circle cx="2645.0" cy="2405.0" fill="#900" r="16" stroke="#900" stroke-width="5" /><circle cx="2989.0" cy="1517.0" fill="#900" r="16" stroke="#900" stroke-width="5" /><circle cx="2997.0" cy="133.0" fill="#900" r="16" stroke="#900" stroke-width="5" /><circle cx="117.0" cy="125.0" fill="#900" r="16" stroke="#900" stroke-width="5" /><circle cx="141.0" cy="1485.0" fill="#900" r="16" stroke="#900" stroke-width="5" /><circle cx="2525.0" cy="2189.0" fill="#900" r="16" stroke="#900" stroke-width="5" /><circle cx="1262.0" cy="1375.0" fill="#900" r="16" stroke="#900" stroke-width="5" /><circle cx="1258.0" cy="282.0" fill="#900" r="16" stroke="#900" stroke-width="5" /><circle cx="1261.0" cy="1376.0" fill="#900" r="16" stroke="#900" stroke-width="5" /><circle cx="1257.0" cy="283.0" fill="#900" r="16" stroke="#900" stroke-width="5" /><circle cx="453.0" cy="117.0" fill="#900" r="16" stroke="#900" stroke-width="5" /><circle cx="477.0" cy="1533.0" fill="#900" r="16" stroke="#900" stroke-width="5" /><rect fill="#090" height="24" stroke="#090" stroke-width="5" transform="rotate(0,2325.0,2645.0)" width="24" x="2313.0" y="2633.0" /><rect fill="#090" height="24" stroke="#090" stroke-width="5" transform="rotate(0,2661.0,2645.0)" width="24" x="2649.0" y="2633.0" /><circle cx="1941.0" cy="1901.0" fill="#090" r="16" stroke="#090" stroke-width="5" /><circle cx="1541.0" cy="2109.0" fill="#090" r="16" stroke="#090" stroke-width="5" /><circle cx="1357.0" cy="2293.0" fill="#090" r="16" stroke="#090" stroke-width="5" /><circle cx="1493.0" cy="2573.0" fill="#090" r="16" stroke="#090" stroke-width="5" /><circle cx="1933.0" cy="2645.0" fill="#090" r="16" stroke="#090" stroke-width="5" /><circle cx="2189.0" cy="2541.0" fill="#090" r="16" stroke="#090" stroke-width="5" /><circle cx="2653.0" cy="725.0" fill="#090" r="16" stroke="#090" stroke-width="5" /><circle cx="2077.0" cy="517.0" fill="#090" r="16" stroke="#090" stroke-width="5" /><circle cx="1669.0" cy="445.0" fill="#090" r="16" stroke="#090" stroke-width="5" /><circle cx="989.0" cy="509.0" fill="#090" r="16" stroke="#090" stroke-width="5" /><circle cx="1077.0" cy="877.0" fill="#090" r="16" stroke="#090" stroke-width="5" /><circle cx="1189.0" cy="1245.0" fill="#090" r="16" stroke="#090" stroke-width="5" /><circle cx="1061.0" cy="1549.0" fill="#090" r="16" stroke="#090" stroke-width="5" /><circle cx="605.0" cy="1421.0" fill="#090" r="16" stroke="#090" stroke-width="5" /><circle cx="605.0" cy="605.0" fill="#090" r="16" stroke="#090" stroke-width="5" /><circle cx="645.0" cy="213.0" fill="#090" r="16" stroke="#090" stroke-width="5" /><circle cx="877.0" cy="133.0" fill="#090" r="16" stroke="#090" stroke-width="5" /><circle cx="1293.0" cy="61.0" fill="#090" r="16" stroke="#090" stroke-width="5" /><circle cx="1789.0" cy="2029.0" fill="#090" r="16" stroke="#090" stroke-width="5" /><circle cx="1397.0" cy="2165.0" fill="#090" r="16" stroke="#090" stroke-width="5" /><circle cx="1413.0" cy="2485.0" fill="#090" r="16" stroke="#090" stroke-width="5" /><circle cx="1773.0" cy="2685.0" fill="#090" r="16" stroke="#090" stroke-width="5" /><circle cx="1733.0" cy="1069.0" fill="#090" r="16" stroke="#090" stroke-width="5" /><circle cx="1597.0" cy="757.0" fill="#090" r="16" stroke="#090" stroke-width="5" /><circle cx="725.0" cy="277.0" fill="#090" r="16" stroke="#090" stroke-width="5" /><circle cx="725.0" cy="1381.0" fill="#090" r="16" stroke="#090" stroke-width="5" /><circle cx="61.0" cy="301.0" fill="#090" r="16" stroke="#090" stroke-width="5" /><circle cx="69.0" cy="1397.0" fill="#090" r="16" stroke="#090" stroke-width="5" /><circle cx="2853.0" cy="349.0" fill="#090" r="16" stroke="#090" stroke-width="5" /><circle cx="1237.0" cy="357.0" fill="#009" r="16" stroke="#009" stroke-width="5" /><circle cx="1245.0" cy="1309.0" fill="#009" r="16" stroke="#009" stroke-width="5" /><circle cx="69.0" cy="861.0" fill="#009" r="16" stroke="#009" stroke-width="5" /><circle cx="3005.0" cy="349.0" fill="#009" r="16" stroke="#009" stroke-width="5" /><circle cx="3005.0" cy="565.0" fill="#009" r="16" stroke="#009" stroke-width="5" /><circle cx="3005.0" cy="709.0" fill="#009" r="16" stroke="#009" stroke-width="5" /><circle cx="3021.0" cy="989.0" fill="#009" r="16" stroke="#009" stroke-width="5" /><circle cx="3021.0" cy="1149.0" fill="#009" r="16" stroke="#009" stroke-width="5" /><circle cx="3021.0" cy="1333.0" fill="#009" r="16" stroke="#009" stroke-width="5" /><circle cx="2213.0" cy="1157.0" fill="#009" r="16" stroke="#009" stroke-width="5" /><circle cx="2085.0" cy="1709.0" fill="#009" r="16" stroke="#009" stroke-width="5" /><circle cx="93.0" cy="421.0" fill="#009" r="16" stroke="#009" stroke-width="5" /><circle cx="93.0" cy="1269.0" fill="#009" r="16" stroke="#009" stroke-width="5" /><circle cx="2717.0" cy="125.0" fill="#009" r="16" stroke="#009" stroke-width="5" /><circle cx="2797.0" cy="1549.0" fill="#009" r="16" stroke="#009" stroke-width="5" /><rect fill="#090" height="24" stroke="#090" stroke-width="5" transform="rotate(0,1266.0,1374.0)" width="24" x="1254.0" y="1362.0" /><rect fill="#090" height="24" stroke="#090" stroke-width="5" transform="rotate(0,1264.0,1374.0)" width="24" x="1252.0" y="1362.0" /><rect fill="#090" height="24" stroke="#090" stroke-width="5" transform="rotate(0,1262.0,1373.0)" width="24" x="1250.0" y="1361.0" /><rect fill="#090" height="24" stroke="#090" stroke-width="5" transform="rotate(0,1263.0,1374.0)" width="24" x="1251.0" y="1362.0" /><rect fill="#090" height="24" stroke="#090" stroke-width="5" transform="rotate(0,1262.0,1374.0)" width="24" x="1250.0" y="1362.0" /><rect fill="#090" height="24" stroke="#090" stroke-width="5" transform="rotate(0,1256.0,285.0)" width="24" x="1244.0" y="273.0" /><rect fill="#090" height="24" stroke="#090" stroke-width="5" transform="rotate(0,1257.0,286.0)" width="24" x="1245.0" y="274.0" /><rect fill="#090" height="24" stroke="#090" stroke-width="5" transform="rotate(0,1259.0,285.0)" width="24" x="1247.0" y="273.0" /><rect fill="#090" height="24" stroke="#090" stroke-width="5" transform="rotate(0,1259.0,285.0)" width="24" x="1247.0" y="273.0" /><rect fill="#090" height="24" stroke="#090" stroke-width="5" transform="rotate(0,1256.0,284.0)" width="24" x="1244.0" y="272.0" /><rect fill="#090" height="24" stroke="#090" stroke-width="5" transform="rotate(0,61.0,1021.0)" width="24" x="49.0" y="1009.0" /><rect fill="#090" height="24" stroke="#090" stroke-width="5" transform="rotate(0,61.0,701.0)" width="24" x="49.0" y="689.0" /><rect fill="#090" height="24" stroke="#090" stroke-width="5" transform="rotate(0,61.0,573.0)" width="24" x="49.0" y="561.0" /><rect fill="#090" height="24" stroke="#090" stroke-width="5" transform="rotate(0,61.0,1149.0)" width="24" x="49.0" y="1137.0" /><circle cx="409.0" cy="861.0" fill="#009" r="16" stroke="#009" stroke-width="5" /><circle cx="1885.0" cy="925.0" fill="#009" r="16" stroke="#009" stroke-width="5" /></svg>