<?xml version="1.0" encoding="utf-8" ?>
<svg baseProfile="tiny" height="1024" version="1.2" viewBox="0 0 906 1098" width="844" xmlns="http://www.w3.org/2000/svg" xmlns:ev="http://www.w3.org/2001/xml-events" xmlns:xlink="http://www.w3.org/1999/xlink"><defs /><line stroke="#333" stroke-width="10" x1="389.0" x2="421.0" y1="709.0" y2="709.0" /><line stroke="#333" stroke-width="10" x1="517.0" x2="517.0" y1="709.0" y2="677.0" /><line stroke="#333" stroke-width="10" x1="517.0" x2="485.0" y1="581.0" y2="581.0" /><line stroke="#333" stroke-width="10" x1="389.0" x2="389.0" y1="581.0" y2="613.0" /><line stroke="#333" stroke-width="10" x1="389.0" x2="421.0" y1="517.0" y2="517.0" /><line stroke="#333" stroke-width="10" x1="517.0" x2="517.0" y1="517.0" y2="485.0" /><line stroke="#333" stroke-width="10" x1="517.0" x2="485.0" y1="389.0" y2="389.0" /><line stroke="#333" stroke-width="10" x1="389.0" x2="389.0" y1="389.0" y2="421.0" /><line stroke="#333" stroke-width="10" x1="197.0" x2="229.0" y1="517.0" y2="517.0" /><line stroke="#333" stroke-width="10" x1="325.0" x2="325.0" y1="517.0" y2="485.0" /><line stroke="#333" stroke-width="10" x1="325.0" x2="293.0" y1="389.0" y2="389.0" /><line stroke="#333" stroke-width="10" x1="197.0" x2="197.0" y1="389.0" y2="421.0" /><line stroke="#333" stroke-width="10" x1="581.0" x2="613.0" y1="517.0" y2="517.0" /><line stroke="#333" stroke-width="10" x1="709.0" x2="709.0" y1="517.0" y2="485.0" /><line stroke="#333" stroke-width="10" x1="709.0" x2="677.0" y1="389.0" y2="389.0" /><line stroke="#333" stroke-width="10" x1="581.0" x2="581.0" y1="389.0" y2="421.0" /><line stroke="#333" stroke-width="10" x1="197.0" x2="229.0" y1="709.0" y2="709.0" /><line stroke="#333" stroke-width="10" x1="325.0" x2="325.0" y1="709.0" y2="677.0" /><line stroke="#333" stroke-width="10" x1="325.0" x2="293.0" y1="581.0" y2="581.0" /><line stroke="#333" stroke-width="10" x1="197.0" x2="197.0" y1="581.0" y2="613.0" /><line stroke="#333" stroke-width="10" x1="581.0" x2="613.0" y1="709.0" y2="709.0" /><line stroke="#333" stroke-width="10" x1="709.0" x2="709.0" y1="709.0" y2="677.0" /><line stroke="#333" stroke-width="10" x1="709.0" x2="677.0" y1="581.0" y2="581.0" /><line stroke="#333" stroke-width="10" x1="581.0" x2="581.0" y1="581.0" y2="613.0" /><line stroke="#333" stroke-width="10" x1="325.0" x2="325.0" y1="901.0" y2="869.0" /><line stroke="#333" stroke-width="10" x1="325.0" x2="293.0" y1="773.0" y2="773.0" /><line stroke="#333" stroke-width="10" x1="133.0" x2="133.0" y1="709.0" y2="677.0" /><line stroke="#333" stroke-width="10" x1="133.0" x2="101.0" y1="581.0" y2="581.0" /><line stroke="#333" stroke-width="10" x1="709.0" x2="709.0" y1="901.0" y2="773.0" /><line stroke="#333" stroke-width="10" x1="709.0" x2="677.0" y1="773.0" y2="773.0" /><line stroke="#333" stroke-width="10" x1="581.0" x2="581.0" y1="773.0" y2="805.0" /><line stroke="#333" stroke-width="10" x1="901.0" x2="869.0" y1="581.0" y2="581.0" /><line stroke="#333" stroke-width="10" x1="773.0" x2="773.0" y1="581.0" y2="613.0" /><line stroke="#333" stroke-width="10" x1="5.0" x2="37.0" y1="517.0" y2="517.0" /><line stroke="#333" stroke-width="10" x1="133.0" x2="133.0" y1="517.0" y2="485.0" /><line stroke="#333" stroke-width="10" x1="133.0" x2="101.0" y1="389.0" y2="389.0" /><line stroke="#333" stroke-width="10" x1="5.0" x2="5.0" y1="389.0" y2="421.0" /><line stroke="#333" stroke-width="10" x1="773.0" x2="805.0" y1="517.0" y2="517.0" /><line stroke="#333" stroke-width="10" x1="901.0" x2="869.0" y1="389.0" y2="389.0" /><line stroke="#333" stroke-width="10" x1="773.0" x2="773.0" y1="389.0" y2="421.0" /><line stroke="#333" stroke-width="10" x1="197.0" x2="229.0" y1="325.0" y2="325.0" /><line stroke="#333" stroke-width="10" x1="325.0" x2="325.0" y1="325.0" y2="293.0" /><line stroke="#333" stroke-width="10" x1="325.0" x2="293.0" y1="197.0" y2="197.0" /><line stroke="#333" stroke-width="10" x1="197.0" x2="197.0" y1="197.0" y2="229.0" /><line stroke="#333" stroke-width="10" x1="389.0" x2="421.0" y1="325.0" y2="325.0" /><line stroke="#333" stroke-width="10" x1="517.0" x2="517.0" y1="325.0" y2="293.0" /><line stroke="#333" stroke-width="10" x1="517.0" x2="485.0" y1="197.0" y2="197.0" /><line stroke="#333" stroke-width="10" x1="389.0" x2="389.0" y1="197.0" y2="229.0" /><line stroke="#333" stroke-width="10" x1="581.0" x2="613.0" y1="325.0" y2="325.0" /><line stroke="#333" stroke-width="10" x1="709.0" x2="709.0" y1="325.0" y2="293.0" /><line stroke="#333" stroke-width="10" x1="709.0" x2="677.0" y1="197.0" y2="197.0" /><line stroke="#333" stroke-width="10" x1="581.0" x2="581.0" y1="197.0" y2="229.0" /><line stroke="#333" stroke-width="10" x1="5.0" x2="37.0" y1="325.0" y2="325.0" /><line stroke="#333" stroke-width="10" x1="133.0" x2="133.0" y1="325.0" y2="293.0" /><line stroke="#333" stroke-width="10" x1="773.0" x2="805.0" y1="325.0" y2="325.0" /><line stroke="#333" stroke-width="10" x1="773.0" x2="773.0" y1="197.0" y2="229.0" /><line stroke="#333" stroke-width="10" x1="197.0" x2="229.0" y1="133.0" y2="133.0" /><line stroke="#333" stroke-width="10" x1="325.0" x2="325.0" y1="133.0" y2="101.0" /><line stroke="#333" stroke-width="10" x1="389.0" x2="421.0" y1="133.0" y2="133.0" /><line stroke="#333" stroke-width="10" x1="517.0" x2="517.0" y1="133.0" y2="101.0" /><line stroke="#333" stroke-width="10" x1="389.0" x2="389.0" y1="5.0" y2="37.0" /><line stroke="#333" stroke-width="10" x1="581.0" x2="613.0" y1="133.0" y2="133.0" /><line stroke="#333" stroke-width="10" x1="581.0" x2="581.0" y1="5.0" y2="37.0" /><line stroke="#333" stroke-width="10" x1="517.0" x2="517.0" y1="901.0" y2="869.0" /><line stroke="#333" stroke-width="10" x1="517.0" x2="485.0" y1="773.0" y2="773.0" /><line stroke="#333" stroke-width="10" x1="389.0" x2="389.0" y1="773.0" y2="805.0" /><line stroke="#999" stroke-width="3" x1="421.0" x2="485.0" y1="709.0" y2="709.0" /><line stroke="#999" stroke-width="3" x1="517.0" x2="517.0" y1="677.0" y2="613.0" /><line stroke="#999" stroke-width="3" x1="421.0" x2="485.0" y1="517.0" y2="517.0" /><line stroke="#999" stroke-width="3" x1="517.0" x2="517.0" y1="485.0" y2="421.0" /><line stroke="#999" stroke-width="3" x1="229.0" x2="293.0" y1="517.0" y2="517.0" /><line stroke="#999" stroke-width="3" x1="613.0" x2="677.0" y1="517.0" y2="517.0" /><line stroke="#999" stroke-width="3" x1="709.0" x2="709.0" y1="485.0" y2="421.0" /><line stroke="#999" stroke-width="3" x1="229.0" x2="293.0" y1="709.0" y2="709.0" /><line stroke="#999" stroke-width="3" x1="325.0" x2="325.0" y1="677.0" y2="613.0" /><line stroke="#999" stroke-width="3" x1="613.0" x2="677.0" y1="709.0" y2="709.0" /><line stroke="#999" stroke-width="3" x1="709.0" x2="709.0" y1="677.0" y2="613.0" /><line stroke="#999" stroke-width="3" x1="325.0" x2="325.0" y1="869.0" y2="805.0" /><line stroke="#333" stroke-width="10" x1="5.0" x2="133.0" y1="709.0" y2="709.0" /><line stroke="#999" stroke-width="3" x1="133.0" x2="133.0" y1="677.0" y2="613.0" /><line stroke="#333" stroke-width="10" x1="581.0" x2="709.0" y1="901.0" y2="901.0" /><line stroke="#333" stroke-width="10" x1="773.0" x2="901.0" y1="709.0" y2="709.0" /><line stroke="#333" stroke-width="10" x1="901.0" x2="901.0" y1="709.0" y2="581.0" /><line stroke="#999" stroke-width="3" x1="37.0" x2="101.0" y1="517.0" y2="517.0" /><line stroke="#999" stroke-width="3" x1="133.0" x2="133.0" y1="485.0" y2="421.0" /><line stroke="#999" stroke-width="3" x1="805.0" x2="869.0" y1="517.0" y2="517.0" /><line stroke="#999" stroke-width="3" x1="229.0" x2="293.0" y1="325.0" y2="325.0" /><line stroke="#999" stroke-width="3" x1="325.0" x2="325.0" y1="293.0" y2="229.0" /><line stroke="#999" stroke-width="3" x1="197.0" x2="197.0" y1="229.0" y2="293.0" /><line stroke="#999" stroke-width="3" x1="421.0" x2="485.0" y1="325.0" y2="325.0" /><line stroke="#999" stroke-width="3" x1="517.0" x2="517.0" y1="293.0" y2="229.0" /><line stroke="#999" stroke-width="3" x1="613.0" x2="677.0" y1="325.0" y2="325.0" /><line stroke="#999" stroke-width="3" x1="709.0" x2="709.0" y1="293.0" y2="229.0" /><line stroke="#999" stroke-width="3" x1="37.0" x2="101.0" y1="325.0" y2="325.0" /><line stroke="#999" stroke-width="3" x1="805.0" x2="869.0" y1="325.0" y2="325.0" /><line stroke="#333" stroke-width="10" x1="901.0" x2="901.0" y1="325.0" y2="197.0" /><line stroke="#999" stroke-width="3" x1="229.0" x2="293.0" y1="133.0" y2="133.0" /><line stroke="#999" stroke-width="3" x1="325.0" x2="325.0" y1="101.0" y2="37.0" /><line stroke="#999" stroke-width="3" x1="421.0" x2="485.0" y1="133.0" y2="133.0" /><line stroke="#999" stroke-width="3" x1="517.0" x2="517.0" y1="101.0" y2="37.0" /><line stroke="#999" stroke-width="3" x1="613.0" x2="677.0" y1="133.0" y2="133.0" /><line stroke="#333" stroke-width="10" x1="709.0" x2="709.0" y1="133.0" y2="5.0" /><line stroke="#333" stroke-width="10" x1="709.0" x2="581.0" y1="5.0" y2="5.0" /><line stroke="#333" stroke-width="10" x1="389.0" x2="421.0" y1="901.0" y2="901.0" /><line stroke="#999" stroke-width="3" x1="517.0" x2="517.0" y1="869.0" y2="805.0" /><line stroke="#999" stroke-width="3" x1="485.0" x2="421.0" y1="581.0" y2="581.0" /><line stroke="#999" stroke-width="3" x1="389.0" x2="389.0" y1="613.0" y2="677.0" /><line stroke="#999" stroke-width="3" x1="485.0" x2="421.0" y1="389.0" y2="389.0" /><line stroke="#999" stroke-width="3" x1="389.0" x2="389.0" y1="421.0" y2="485.0" /><line stroke="#999" stroke-width="3" x1="325.0" x2="325.0" y1="485.0" y2="421.0" /><line stroke="#999" stroke-width="3" x1="293.0" x2="229.0" y1="389.0" y2="389.0" /><line stroke="#999" stroke-width="3" x1="197.0" x2="197.0" y1="421.0" y2="485.0" /><line stroke="#999" stroke-width="3" x1="677.0" x2="613.0" y1="389.0" y2="389.0" /><line stroke="#999" stroke-width="3" x1="581.0" x2="581.0" y1="421.0" y2="485.0" /><line stroke="#999" stroke-width="3" x1="293.0" x2="229.0" y1="581.0" y2="581.0" /><line stroke="#999" stroke-width="3" x1="197.0" x2="197.0" y1="613.0" y2="677.0" /><line stroke="#999" stroke-width="3" x1="677.0" x2="613.0" y1="581.0" y2="581.0" /><line stroke="#999" stroke-width="3" x1="581.0" x2="581.0" y1="613.0" y2="677.0" /><line stroke="#333" stroke-width="10" x1="197.0" x2="325.0" y1="901.0" y2="901.0" /><line stroke="#999" stroke-width="3" x1="293.0" x2="229.0" y1="773.0" y2="773.0" /><line stroke="#333" stroke-width="10" x1="197.0" x2="197.0" y1="773.0" y2="901.0" /><line stroke="#999" stroke-width="3" x1="101.0" x2="37.0" y1="581.0" y2="581.0" /><line stroke="#333" stroke-width="10" x1="5.0" x2="5.0" y1="581.0" y2="709.0" /><line stroke="#999" stroke-width="3" x1="677.0" x2="613.0" y1="773.0" y2="773.0" /><line stroke="#999" stroke-width="3" x1="581.0" x2="581.0" y1="805.0" y2="869.0" /><line stroke="#999" stroke-width="3" x1="869.0" x2="805.0" y1="581.0" y2="581.0" /><line stroke="#999" stroke-width="3" x1="773.0" x2="773.0" y1="613.0" y2="677.0" /><line stroke="#999" stroke-width="3" x1="101.0" x2="37.0" y1="389.0" y2="389.0" /><line stroke="#333" stroke-width="10" x1="901.0" x2="901.0" y1="517.0" y2="485.0" /><line stroke="#999" stroke-width="3" x1="869.0" x2="805.0" y1="389.0" y2="389.0" /><line stroke="#999" stroke-width="3" x1="773.0" x2="773.0" y1="421.0" y2="485.0" /><line stroke="#999" stroke-width="3" x1="293.0" x2="229.0" y1="197.0" y2="197.0" /><line stroke="#999" stroke-width="3" x1="485.0" x2="421.0" y1="197.0" y2="197.0" /><line stroke="#999" stroke-width="3" x1="389.0" x2="389.0" y1="229.0" y2="293.0" /><line stroke="#999" stroke-width="3" x1="677.0" x2="613.0" y1="197.0" y2="197.0" /><line stroke="#999" stroke-width="3" x1="581.0" x2="581.0" y1="229.0" y2="293.0" /><line stroke="#999" stroke-width="3" x1="133.0" x2="133.0" y1="293.0" y2="229.0" /><line stroke="#333" stroke-width="10" x1="133.0" x2="5.0" y1="197.0" y2="197.0" /><line stroke="#333" stroke-width="10" x1="901.0" x2="773.0" y1="197.0" y2="197.0" /><line stroke="#999" stroke-width="3" x1="773.0" x2="773.0" y1="229.0" y2="293.0" /><line stroke="#333" stroke-width="10" x1="325.0" x2="197.0" y1="5.0" y2="5.0" /><line stroke="#333" stroke-width="10" x1="197.0" x2="197.0" y1="5.0" y2="133.0" /><line stroke="#333" stroke-width="10" x1="517.0" x2="485.0" y1="5.0" y2="5.0" /><line stroke="#999" stroke-width="3" x1="389.0" x2="389.0" y1="37.0" y2="101.0" /><line stroke="#999" stroke-width="3" x1="581.0" x2="581.0" y1="37.0" y2="101.0" /><line stroke="#999" stroke-width="3" x1="485.0" x2="421.0" y1="773.0" y2="773.0" /><line stroke="#999" stroke-width="3" x1="389.0" x2="389.0" y1="805.0" y2="869.0" /><line stroke="#333" stroke-width="10" x1="485.0" x2="517.0" y1="709.0" y2="709.0" /><line stroke="#333" stroke-width="10" x1="517.0" x2="517.0" y1="613.0" y2="581.0" /><line stroke="#333" stroke-width="10" x1="421.0" x2="389.0" y1="581.0" y2="581.0" /><line stroke="#333" stroke-width="10" x1="389.0" x2="389.0" y1="677.0" y2="709.0" /><line stroke="#333" stroke-width="10" x1="485.0" x2="517.0" y1="517.0" y2="517.0" /><line stroke="#333" stroke-width="10" x1="517.0" x2="517.0" y1="421.0" y2="389.0" /><line stroke="#333" stroke-width="10" x1="421.0" x2="389.0" y1="389.0" y2="389.0" /><line stroke="#333" stroke-width="10" x1="389.0" x2="389.0" y1="485.0" y2="517.0" /><line stroke="#333" stroke-width="10" x1="293.0" x2="325.0" y1="517.0" y2="517.0" /><line stroke="#333" stroke-width="10" x1="325.0" x2="325.0" y1="421.0" y2="389.0" /><line stroke="#333" stroke-width="10" x1="229.0" x2="197.0" y1="389.0" y2="389.0" /><line stroke="#333" stroke-width="10" x1="197.0" x2="197.0" y1="485.0" y2="517.0" /><line stroke="#333" stroke-width="10" x1="677.0" x2="709.0" y1="517.0" y2="517.0" /><line stroke="#333" stroke-width="10" x1="709.0" x2="709.0" y1="421.0" y2="389.0" /><line stroke="#333" stroke-width="10" x1="613.0" x2="581.0" y1="389.0" y2="389.0" /><line stroke="#333" stroke-width="10" x1="581.0" x2="581.0" y1="485.0" y2="517.0" /><line stroke="#333" stroke-width="10" x1="293.0" x2="325.0" y1="709.0" y2="709.0" /><line stroke="#333" stroke-width="10" x1="325.0" x2="325.0" y1="613.0" y2="581.0" /><line stroke="#333" stroke-width="10" x1="229.0" x2="197.0" y1="581.0" y2="581.0" /><line stroke="#333" stroke-width="10" x1="197.0" x2="197.0" y1="677.0" y2="709.0" /><line stroke="#333" stroke-width="10" x1="677.0" x2="709.0" y1="709.0" y2="709.0" /><line stroke="#333" stroke-width="10" x1="709.0" x2="709.0" y1="613.0" y2="581.0" /><line stroke="#333" stroke-width="10" x1="613.0" x2="581.0" y1="581.0" y2="581.0" /><line stroke="#333" stroke-width="10" x1="581.0" x2="581.0" y1="677.0" y2="709.0" /><line stroke="#333" stroke-width="10" x1="325.0" x2="325.0" y1="805.0" y2="773.0" /><line stroke="#333" stroke-width="10" x1="229.0" x2="197.0" y1="773.0" y2="773.0" /><line stroke="#333" stroke-width="10" x1="133.0" x2="133.0" y1="613.0" y2="581.0" /><line stroke="#333" stroke-width="10" x1="37.0" x2="5.0" y1="581.0" y2="581.0" /><line stroke="#333" stroke-width="10" x1="613.0" x2="581.0" y1="773.0" y2="773.0" /><line stroke="#333" stroke-width="10" x1="581.0" x2="581.0" y1="869.0" y2="901.0" /><line stroke="#333" stroke-width="10" x1="805.0" x2="773.0" y1="581.0" y2="581.0" /><line stroke="#333" stroke-width="10" x1="773.0" x2="773.0" y1="677.0" y2="709.0" /><line stroke="#333" stroke-width="10" x1="101.0" x2="133.0" y1="517.0" y2="517.0" /><line stroke="#333" stroke-width="10" x1="133.0" x2="133.0" y1="421.0" y2="389.0" /><line stroke="#333" stroke-width="10" x1="37.0" x2="5.0" y1="389.0" y2="389.0" /><line stroke="#333" stroke-width="10" x1="869.0" x2="901.0" y1="517.0" y2="517.0" /><line stroke="#333" stroke-width="10" x1="805.0" x2="773.0" y1="389.0" y2="389.0" /><line stroke="#333" stroke-width="10" x1="773.0" x2="773.0" y1="485.0" y2="517.0" /><line stroke="#333" stroke-width="10" x1="293.0" x2="325.0" y1="325.0" y2="325.0" /><line stroke="#333" stroke-width="10" x1="325.0" x2="325.0" y1="229.0" y2="197.0" /><line stroke="#333" stroke-width="10" x1="229.0" x2="197.0" y1="197.0" y2="197.0" /><line stroke="#333" stroke-width="10" x1="197.0" x2="197.0" y1="293.0" y2="325.0" /><line stroke="#333" stroke-width="10" x1="485.0" x2="517.0" y1="325.0" y2="325.0" /><line stroke="#333" stroke-width="10" x1="517.0" x2="517.0" y1="229.0" y2="197.0" /><line stroke="#333" stroke-width="10" x1="421.0" x2="389.0" y1="197.0" y2="197.0" /><line stroke="#333" stroke-width="10" x1="389.0" x2="389.0" y1="293.0" y2="325.0" /><line stroke="#333" stroke-width="10" x1="677.0" x2="709.0" y1="325.0" y2="325.0" /><line stroke="#333" stroke-width="10" x1="709.0" x2="709.0" y1="229.0" y2="197.0" /><line stroke="#333" stroke-width="10" x1="613.0" x2="581.0" y1="197.0" y2="197.0" /><line stroke="#333" stroke-width="10" x1="581.0" x2="581.0" y1="293.0" y2="325.0" /><line stroke="#333" stroke-width="10" x1="101.0" x2="133.0" y1="325.0" y2="325.0" /><line stroke="#333" stroke-width="10" x1="133.0" x2="133.0" y1="229.0" y2="197.0" /><line stroke="#333" stroke-width="10" x1="5.0" x2="5.0" y1="197.0" y2="325.0" /><line stroke="#333" stroke-width="10" x1="869.0" x2="901.0" y1="325.0" y2="325.0" /><line stroke="#333" stroke-width="10" x1="773.0" x2="773.0" y1="293.0" y2="325.0" /><line stroke="#333" stroke-width="10" x1="293.0" x2="325.0" y1="133.0" y2="133.0" /><line stroke="#333" stroke-width="10" x1="325.0" x2="325.0" y1="37.0" y2="5.0" /><line stroke="#333" stroke-width="10" x1="485.0" x2="517.0" y1="133.0" y2="133.0" /><line stroke="#333" stroke-width="10" x1="517.0" x2="517.0" y1="37.0" y2="5.0" /><line stroke="#333" stroke-width="10" x1="389.0" x2="389.0" y1="101.0" y2="133.0" /><line stroke="#333" stroke-width="10" x1="677.0" x2="709.0" y1="133.0" y2="133.0" /><line stroke="#333" stroke-width="10" x1="581.0" x2="581.0" y1="101.0" y2="133.0" /><line stroke="#333" stroke-width="10" x1="517.0" x2="517.0" y1="805.0" y2="773.0" /><line stroke="#333" stroke-width="10" x1="421.0" x2="389.0" y1="773.0" y2="773.0" /><line stroke="#333" stroke-width="10" x1="389.0" x2="389.0" y1="869.0" y2="901.0" /><line stroke="#333" stroke-width="10" x1="485.0" x2="485.0" y1="773.0" y2="709.0" /><line stroke="#333" stroke-width="10" x1="421.0" x2="421.0" y1="709.0" y2="773.0" /><line stroke="#333" stroke-width="10" x1="325.0" x2="389.0" y1="869.0" y2="869.0" /><line stroke="#333" stroke-width="10" x1="389.0" x2="325.0" y1="805.0" y2="805.0" /><line stroke="#333" stroke-width="10" x1="517.0" x2="581.0" y1="869.0" y2="869.0" /><line stroke="#333" stroke-width="10" x1="581.0" x2="517.0" y1="805.0" y2="805.0" /><line stroke="#333" stroke-width="10" x1="293.0" x2="293.0" y1="773.0" y2="709.0" /><line stroke="#333" stroke-width="10" x1="229.0" x2="229.0" y1="709.0" y2="773.0" /><line stroke="#333" stroke-width="10" x1="677.0" x2="677.0" y1="773.0" y2="709.0" /><line stroke="#333" stroke-width="10" x1="613.0" x2="613.0" y1="709.0" y2="773.0" /><line stroke="#333" stroke-width="10" x1="133.0" x2="197.0" y1="677.0" y2="677.0" /><line stroke="#333" stroke-width="10" x1="197.0" x2="133.0" y1="613.0" y2="613.0" /><line stroke="#333" stroke-width="10" x1="325.0" x2="389.0" y1="677.0" y2="677.0" /><line stroke="#333" stroke-width="10" x1="389.0" x2="325.0" y1="613.0" y2="613.0" /><line stroke="#333" stroke-width="10" x1="517.0" x2="581.0" y1="677.0" y2="677.0" /><line stroke="#333" stroke-width="10" x1="581.0" x2="517.0" y1="613.0" y2="613.0" /><line stroke="#333" stroke-width="10" x1="709.0" x2="773.0" y1="677.0" y2="677.0" /><line stroke="#333" stroke-width="10" x1="773.0" x2="709.0" y1="613.0" y2="613.0" /><line stroke="#333" stroke-width="10" x1="101.0" x2="101.0" y1="581.0" y2="517.0" /><line stroke="#333" stroke-width="10" x1="37.0" x2="37.0" y1="517.0" y2="581.0" /><line stroke="#333" stroke-width="10" x1="293.0" x2="293.0" y1="581.0" y2="517.0" /><line stroke="#333" stroke-width="10" x1="229.0" x2="229.0" y1="517.0" y2="581.0" /><line stroke="#333" stroke-width="10" x1="485.0" x2="485.0" y1="581.0" y2="517.0" /><line stroke="#333" stroke-width="10" x1="421.0" x2="421.0" y1="517.0" y2="581.0" /><line stroke="#333" stroke-width="10" x1="677.0" x2="677.0" y1="581.0" y2="517.0" /><line stroke="#333" stroke-width="10" x1="613.0" x2="613.0" y1="517.0" y2="581.0" /><line stroke="#333" stroke-width="10" x1="869.0" x2="869.0" y1="581.0" y2="517.0" /><line stroke="#333" stroke-width="10" x1="805.0" x2="805.0" y1="517.0" y2="581.0" /><line stroke="#333" stroke-width="10" x1="869.0" x2="869.0" y1="389.0" y2="325.0" /><line stroke="#333" stroke-width="10" x1="805.0" x2="805.0" y1="325.0" y2="389.0" /><line stroke="#333" stroke-width="10" x1="677.0" x2="677.0" y1="389.0" y2="325.0" /><line stroke="#333" stroke-width="10" x1="613.0" x2="613.0" y1="325.0" y2="389.0" /><line stroke="#333" stroke-width="10" x1="517.0" x2="581.0" y1="485.0" y2="485.0" /><line stroke="#333" stroke-width="10" x1="581.0" x2="517.0" y1="421.0" y2="421.0" /><line stroke="#333" stroke-width="10" x1="709.0" x2="773.0" y1="485.0" y2="485.0" /><line stroke="#333" stroke-width="10" x1="773.0" x2="709.0" y1="421.0" y2="421.0" /><line stroke="#333" stroke-width="10" x1="325.0" x2="389.0" y1="485.0" y2="485.0" /><line stroke="#333" stroke-width="10" x1="389.0" x2="325.0" y1="421.0" y2="421.0" /><line stroke="#333" stroke-width="10" x1="293.0" x2="293.0" y1="389.0" y2="325.0" /><line stroke="#333" stroke-width="10" x1="229.0" x2="229.0" y1="325.0" y2="389.0" /><line stroke="#333" stroke-width="10" x1="485.0" x2="485.0" y1="389.0" y2="325.0" /><line stroke="#333" stroke-width="10" x1="421.0" x2="421.0" y1="325.0" y2="389.0" /><line stroke="#333" stroke-width="10" x1="101.0" x2="101.0" y1="389.0" y2="325.0" /><line stroke="#333" stroke-width="10" x1="37.0" x2="37.0" y1="325.0" y2="389.0" /><line stroke="#333" stroke-width="10" x1="133.0" x2="197.0" y1="485.0" y2="485.0" /><line stroke="#333" stroke-width="10" x1="197.0" x2="133.0" y1="421.0" y2="421.0" /><line stroke="#333" stroke-width="10" x1="133.0" x2="197.0" y1="293.0" y2="293.0" /><line stroke="#333" stroke-width="10" x1="197.0" x2="133.0" y1="229.0" y2="229.0" /><line stroke="#333" stroke-width="10" x1="325.0" x2="389.0" y1="293.0" y2="293.0" /><line stroke="#333" stroke-width="10" x1="389.0" x2="325.0" y1="229.0" y2="229.0" /><line stroke="#333" stroke-width="10" x1="293.0" x2="293.0" y1="197.0" y2="133.0" /><line stroke="#333" stroke-width="10" x1="229.0" x2="229.0" y1="133.0" y2="197.0" /><line stroke="#333" stroke-width="10" x1="325.0" x2="389.0" y1="101.0" y2="101.0" /><line stroke="#333" stroke-width="10" x1="389.0" x2="325.0" y1="37.0" y2="37.0" /><line stroke="#333" stroke-width="10" x1="485.0" x2="485.0" y1="197.0" y2="133.0" /><line stroke="#333" stroke-width="10" x1="421.0" x2="421.0" y1="133.0" y2="197.0" /><line stroke="#333" stroke-width="10" x1="517.0" x2="581.0" y1="293.0" y2="293.0" /><line stroke="#333" stroke-width="10" x1="581.0" x2="517.0" y1="229.0" y2="229.0" /><line stroke="#333" stroke-width="10" x1="517.0" x2="581.0" y1="101.0" y2="101.0" /><line stroke="#333" stroke-width="10" x1="581.0" x2="517.0" y1="37.0" y2="37.0" /><line stroke="#333" stroke-width="10" x1="677.0" x2="677.0" y1="197.0" y2="133.0" /><line stroke="#333" stroke-width="10" x1="613.0" x2="613.0" y1="133.0" y2="197.0" /><line stroke="#333" stroke-width="10" x1="709.0" x2="773.0" y1="293.0" y2="293.0" /><line stroke="#333" stroke-width="10" x1="773.0" x2="709.0" y1="229.0" y2="229.0" /><line stroke="#666" stroke-width="20" x1="5.0" x2="5.0" y1="421.0" y2="485.0" /><line stroke="#333" stroke-width="10" x1="5.0" x2="5.0" y1="485.0" y2="517.0" /><line stroke="#333" stroke-width="10" x1="421.0" x2="389.0" y1="5.0" y2="5.0" /><line stroke="#666" stroke-width="20" x1="485.0" x2="421.0" y1="5.0" y2="5.0" /><line stroke="#999" stroke-width="3" x1="421.0" x2="485.0" y1="901.0" y2="901.0" /><line stroke="#333" stroke-width="10" x1="485.0" x2="517.0" y1="901.0" y2="901.0" /><line stroke="#666" stroke-width="20" x1="901.0" x2="901.0" y1="485.0" y2="437.0" /><line stroke="#333" stroke-width="10" x1="901.0" x2="901.0" y1="437.0" y2="389.0" /><line stroke="#999" stroke-width="3" x1="485.0" x2="421.0" y1="909.0" y2="909.0" /><line stroke="#333" stroke-width="10" x1="485.0" x2="485.0" y1="909.0" y2="901.0" /><line stroke="#333" stroke-width="10" x1="421.0" x2="421.0" y1="901.0" y2="909.0" /><line stroke="#999" stroke-width="3" x1="421.0" x2="485.0" y1="933.0" y2="933.0" /><line stroke="#333" stroke-width="10" x1="485.0" x2="485.0" y1="933.0" y2="909.0" /><line stroke="#333" stroke-width="10" x1="421.0" x2="421.0" y1="909.0" y2="933.0" /><line stroke="#999" stroke-width="3" x1="485.0" x2="421.0" y1="941.0" y2="941.0" /><line stroke="#333" stroke-width="10" x1="485.0" x2="485.0" y1="941.0" y2="933.0" /><line stroke="#333" stroke-width="10" x1="421.0" x2="421.0" y1="933.0" y2="941.0" /><line stroke="#999" stroke-width="3" x1="421.0" x2="485.0" y1="965.0" y2="965.0" /><line stroke="#333" stroke-width="10" x1="485.0" x2="485.0" y1="965.0" y2="941.0" /><line stroke="#333" stroke-width="10" x1="421.0" x2="421.0" y1="941.0" y2="965.0" /><line stroke="#999" stroke-width="3" x1="485.0" x2="421.0" y1="973.0" y2="973.0" /><line stroke="#333" stroke-width="10" x1="485.0" x2="485.0" y1="973.0" y2="965.0" /><line stroke="#333" stroke-width="10" x1="421.0" x2="421.0" y1="965.0" y2="973.0" /><line stroke="#0d0" stroke-width="20" x1="389.0" x2="517.0" y1="1029.0" y2="1029.0" /><line stroke="#333" stroke-width="10" x1="517.0" x2="485.0" y1="1029.0" y2="973.0" /><line stroke="#333" stroke-width="10" x1="421.0" x2="389.0" y1="973.0" y2="1029.0" /><line stroke="#333" stroke-width="10" x1="389.0" x2="517.0" y1="1093.0" y2="1093.0" /><line stroke="#333" stroke-width="10" x1="517.0" x2="517.0" y1="1093.0" y2="1029.0" /><line stroke="#333" stroke-width="10" x1="389.0" x2="389.0" y1="1029.0" y2="1093.0" /><rect fill="#900" height="48" stroke="#900" stroke-width="5" transform="rotate(315,229.0,869.0)" width="32" x="213.0" y="845.0" /><rect fill="#900" height="48" stroke="#900" stroke-width="5" transform="rotate(315,37.0,677.0)" width="32" x="21.0" y="653.0" /><rect fill="#900" height="48" stroke="#900" stroke-width="5" transform="rotate(225,677.0,869.0)" width="32" x="661.0" y="845.0" /><rect fill="#900" height="48" stroke="#900" stroke-width="5" transform="rotate(270,453.0,869.0)" width="32" x="437.0" y="845.0" /><rect fill="#900" height="48" stroke="#900" stroke-width="5" transform="rotate(225,869.0,677.0)" width="32" x="853.0" y="653.0" /><rect fill="#900" height="48" stroke="#900" stroke-width="5" transform="rotate(225,677.0,677.0)" width="32" x="661.0" y="653.0" /><rect fill="#900" height="48" stroke="#900" stroke-width="5" transform="rotate(270,453.0,677.0)" width="32" x="437.0" y="653.0" /><rect fill="#900" height="48" stroke="#900" stroke-width="5" transform="rotate(315,229.0,677.0)" width="32" x="213.0" y="653.0" /><rect fill="#900" height="48" stroke="#900" stroke-width="5" transform="rotate(0,37.0,453.0)" width="32" x="21.0" y="429.0" /><rect fill="#900" height="48" stroke="#900" stroke-width="5" transform="rotate(0,229.0,453.0)" width="32" x="213.0" y="429.0" /><rect fill="#900" height="48" stroke="#900" stroke-width="5" transform="rotate(45,37.0,229.0)" width="32" x="21.0" y="205.0" /><rect fill="#900" height="48" stroke="#900" stroke-width="5" transform="rotate(45,229.0,229.0)" width="32" x="213.0" y="205.0" /><rect fill="#900" height="48" stroke="#900" stroke-width="5" transform="rotate(45,229.0,37.0)" width="32" x="213.0" y="13.0" /><rect fill="#900" height="48" stroke="#900" stroke-width="5" transform="rotate(90,453.0,37.0)" width="32" x="437.0" y="13.0" /><rect fill="#900" height="48" stroke="#900" stroke-width="5" transform="rotate(90,453.0,229.0)" width="32" x="437.0" y="205.0" /><rect fill="#900" height="48" stroke="#900" stroke-width="5" transform="rotate(135,677.0,229.0)" width="32" x="661.0" y="205.0" /><rect fill="#900" height="48" stroke="#900" stroke-width="5" transform="rotate(135,677.0,37.0)" width="32" x="661.0" y="13.0" /><rect fill="#900" height="48" stroke="#900" stroke-width="5" transform="rotate(135,869.0,229.0)" width="32" x="853.0" y="205.0" /><rect fill="#900" height="48" stroke="#900" stroke-width="5" transform="rotate(180,677.0,453.0)" width="32" x="661.0" y="429.0" /><rect fill="#900" height="48" stroke="#900" stroke-width="5" transform="rotate(180,869.0,453.0)" width="32" x="853.0" y="429.0" /><ellipse cx="453.0" cy="421.0" fill="#009" rx="12" ry="24" stroke="#009" stroke-width="5" /><ellipse cx="485.0" cy="453.0" fill="#009" rx="12" ry="24" stroke="#009" stroke-width="5" /><ellipse cx="453.0" cy="485.0" fill="#009" rx="12" ry="24" stroke="#009" stroke-width="5" /><ellipse cx="421.0" cy="453.0" fill="#009" rx="12" ry="24" stroke="#009" stroke-width="5" /><circle cx="421.0" cy="485.0" fill="#009" r="16" stroke="#009" stroke-width="5" /><circle cx="485.0" cy="485.0" fill="#009" r="16" stroke="#009" stroke-width="5" /><circle cx="485.0" cy="421.0" fill="#009" r="16" stroke="#009" stroke-width="5" /><circle cx="421.0" cy="421.0" fill="#009" r="16" stroke="#009" stroke-width="5" /><circle cx="453.0" cy="453.0" fill="#900" r="16" stroke="#900" stroke-width="5" /></svg>