<?xml version="1.0" encoding="utf-8" ?>
<svg baseProfile="tiny" height="1024" version="1.2" viewBox="0 0 1354 2314" width="599" xmlns="http://www.w3.org/2000/svg" xmlns:ev="http://www.w3.org/2001/xml-events" xmlns:xlink="http://www.w3.org/1999/xlink"><defs /><line stroke="#333" stroke-width="10" x1="581.0" x2="645.0" y1="581.0" y2="581.0" /><line stroke="#999" stroke-width="3" x1="773.0" x2="773.0" y1="581.0" y2="413.0" /><line stroke="#999" stroke-width="3" x1="773.0" x2="749.0" y1="413.0" y2="389.0" /><line stroke="#999" stroke-width="3" x1="581.0" x2="581.0" y1="413.0" y2="581.0" /><line stroke="#999" stroke-width="3" x1="645.0" x2="709.0" y1="581.0" y2="581.0" /><line stroke="#333" stroke-width="10" x1="645.0" x2="645.0" y1="581.0" y2="605.0" /><line stroke="#666" stroke-width="20" x1="645.0" x2="709.0" y1="605.0" y2="605.0" /><line stroke="#333" stroke-width="10" x1="709.0" x2="773.0" y1="581.0" y2="581.0" /><line stroke="#333" stroke-width="10" x1="709.0" x2="709.0" y1="605.0" y2="581.0" /><line stroke="#333" stroke-width="10" x1="645.0" x2="645.0" y1="605.0" y2="621.0" /><line stroke="#666" stroke-width="20" x1="709.0" x2="645.0" y1="621.0" y2="621.0" /><line stroke="#333" stroke-width="10" x1="709.0" x2="709.0" y1="621.0" y2="605.0" /><line stroke="#333" stroke-width="10" x1="645.0" x2="645.0" y1="621.0" y2="645.0" /><line stroke="#999" stroke-width="3" x1="645.0" x2="709.0" y1="645.0" y2="645.0" /><line stroke="#333" stroke-width="10" x1="709.0" x2="709.0" y1="645.0" y2="621.0" /><line stroke="#999" stroke-width="3" x1="749.0" x2="605.0" y1="389.0" y2="389.0" /><line stroke="#999" stroke-width="3" x1="605.0" x2="581.0" y1="389.0" y2="413.0" /><line stroke="#999" stroke-width="3" x1="749.0" x2="677.0" y1="389.0" y2="453.0" /><line stroke="#999" stroke-width="3" x1="677.0" x2="605.0" y1="453.0" y2="389.0" /><line stroke="#999" stroke-width="3" x1="709.0" x2="741.0" y1="581.0" y2="501.0" /><line stroke="#999" stroke-width="3" x1="581.0" x2="613.0" y1="413.0" y2="501.0" /><line stroke="#999" stroke-width="3" x1="613.0" x2="645.0" y1="501.0" y2="581.0" /><line stroke="#999" stroke-width="3" x1="677.0" x2="613.0" y1="453.0" y2="501.0" /><line stroke="#999" stroke-width="3" x1="741.0" x2="773.0" y1="501.0" y2="413.0" /><line stroke="#999" stroke-width="3" x1="741.0" x2="677.0" y1="501.0" y2="453.0" /><line stroke="#d00" stroke-width="20" x1="453.0" x2="581.0" y1="581.0" y2="581.0" /><line stroke="#333" stroke-width="10" x1="453.0" x2="453.0" y1="261.0" y2="581.0" /><line stroke="#d00" stroke-width="20" x1="773.0" x2="901.0" y1="581.0" y2="581.0" /><line stroke="#333" stroke-width="10" x1="901.0" x2="901.0" y1="581.0" y2="261.0" /><line stroke="#333" stroke-width="10" x1="901.0" x2="709.0" y1="261.0" y2="261.0" /><line stroke="#333" stroke-width="10" x1="645.0" x2="453.0" y1="261.0" y2="261.0" /><line stroke="#999" stroke-width="3" x1="709.0" x2="645.0" y1="261.0" y2="261.0" /><line stroke="#333" stroke-width="10" x1="645.0" x2="645.0" y1="237.0" y2="261.0" /><line stroke="#333" stroke-width="10" x1="709.0" x2="709.0" y1="261.0" y2="237.0" /><line stroke="#666" stroke-width="20" x1="709.0" x2="645.0" y1="237.0" y2="237.0" /><line stroke="#333" stroke-width="10" x1="645.0" x2="645.0" y1="221.0" y2="237.0" /><line stroke="#333" stroke-width="10" x1="709.0" x2="709.0" y1="237.0" y2="221.0" /><line stroke="#666" stroke-width="20" x1="645.0" x2="709.0" y1="221.0" y2="221.0" /><line stroke="#333" stroke-width="10" x1="645.0" x2="645.0" y1="197.0" y2="221.0" /><line stroke="#333" stroke-width="10" x1="709.0" x2="709.0" y1="221.0" y2="197.0" /><line stroke="#999" stroke-width="3" x1="709.0" x2="645.0" y1="197.0" y2="197.0" /><line stroke="#333" stroke-width="10" x1="581.0" x2="645.0" y1="197.0" y2="197.0" /><line stroke="#333" stroke-width="10" x1="709.0" x2="773.0" y1="197.0" y2="197.0" /><line stroke="#333" stroke-width="10" x1="773.0" x2="773.0" y1="197.0" y2="5.0" /><line stroke="#333" stroke-width="10" x1="773.0" x2="709.0" y1="5.0" y2="5.0" /><line stroke="#333" stroke-width="10" x1="581.0" x2="581.0" y1="5.0" y2="197.0" /><line stroke="#333" stroke-width="10" x1="645.0" x2="581.0" y1="5.0" y2="5.0" /><line stroke="#0d0" stroke-width="20" x1="709.0" x2="645.0" y1="5.0" y2="5.0" /><line stroke="#333" stroke-width="10" x1="645.0" x2="581.0" y1="645.0" y2="645.0" /><line stroke="#999" stroke-width="3" x1="581.0" x2="581.0" y1="645.0" y2="709.0" /><line stroke="#999" stroke-width="3" x1="581.0" x2="453.0" y1="709.0" y2="709.0" /><line stroke="#333" stroke-width="10" x1="453.0" x2="453.0" y1="709.0" y2="773.0" /><line stroke="#333" stroke-width="10" x1="325.0" x2="453.0" y1="965.0" y2="965.0" /><line stroke="#333" stroke-width="10" x1="1029.0" x2="1029.0" y1="965.0" y2="901.0" /><line stroke="#999" stroke-width="3" x1="901.0" x2="773.0" y1="709.0" y2="709.0" /><line stroke="#999" stroke-width="3" x1="773.0" x2="773.0" y1="709.0" y2="645.0" /><line stroke="#333" stroke-width="10" x1="773.0" x2="709.0" y1="645.0" y2="645.0" /><line stroke="#999" stroke-width="3" x1="581.0" x2="453.0" y1="645.0" y2="645.0" /><line stroke="#333" stroke-width="10" x1="453.0" x2="453.0" y1="645.0" y2="709.0" /><line stroke="#999" stroke-width="3" x1="901.0" x2="773.0" y1="645.0" y2="645.0" /><line stroke="#333" stroke-width="10" x1="901.0" x2="901.0" y1="709.0" y2="645.0" /><line stroke="#333" stroke-width="10" x1="453.0" x2="453.0" y1="597.0" y2="613.0" /><line stroke="#333" stroke-width="10" x1="581.0" x2="581.0" y1="645.0" y2="613.0" /><line stroke="#d00" stroke-width="20" x1="581.0" x2="453.0" y1="597.0" y2="597.0" /><line stroke="#333" stroke-width="10" x1="773.0" x2="773.0" y1="597.0" y2="613.0" /><line stroke="#333" stroke-width="10" x1="901.0" x2="901.0" y1="645.0" y2="613.0" /><line stroke="#d00" stroke-width="20" x1="901.0" x2="773.0" y1="597.0" y2="597.0" /><line stroke="#333" stroke-width="10" x1="453.0" x2="453.0" y1="581.0" y2="597.0" /><line stroke="#333" stroke-width="10" x1="581.0" x2="581.0" y1="597.0" y2="581.0" /><line stroke="#333" stroke-width="10" x1="773.0" x2="773.0" y1="581.0" y2="597.0" /><line stroke="#333" stroke-width="10" x1="901.0" x2="901.0" y1="597.0" y2="581.0" /><line stroke="#333" stroke-width="10" x1="901.0" x2="901.0" y1="613.0" y2="597.0" /><line stroke="#333" stroke-width="10" x1="773.0" x2="773.0" y1="613.0" y2="645.0" /><line stroke="#333" stroke-width="10" x1="581.0" x2="581.0" y1="613.0" y2="597.0" /><line stroke="#333" stroke-width="10" x1="453.0" x2="453.0" y1="613.0" y2="645.0" /><line stroke="#333" stroke-width="10" x1="453.0" x2="389.0" y1="773.0" y2="773.0" /><line stroke="#333" stroke-width="10" x1="901.0" x2="901.0" y1="773.0" y2="709.0" /><line stroke="#333" stroke-width="10" x1="1029.0" x2="965.0" y1="773.0" y2="773.0" /><line stroke="#333" stroke-width="10" x1="325.0" x2="325.0" y1="773.0" y2="837.0" /><line stroke="#333" stroke-width="10" x1="453.0" x2="453.0" y1="965.0" y2="1029.0" /><line stroke="#333" stroke-width="10" x1="901.0" x2="1029.0" y1="965.0" y2="965.0" /><line stroke="#333" stroke-width="10" x1="901.0" x2="901.0" y1="1029.0" y2="965.0" /><line stroke="#333" stroke-width="10" x1="453.0" x2="581.0" y1="1029.0" y2="1029.0" /><line stroke="#333" stroke-width="10" x1="581.0" x2="645.0" y1="1093.0" y2="1093.0" /><line stroke="#333" stroke-width="10" x1="773.0" x2="773.0" y1="1093.0" y2="1029.0" /><line stroke="#333" stroke-width="10" x1="581.0" x2="581.0" y1="1029.0" y2="1093.0" /><line stroke="#333" stroke-width="10" x1="773.0" x2="901.0" y1="1029.0" y2="1029.0" /><line stroke="#999" stroke-width="3" x1="453.0" x2="645.0" y1="773.0" y2="773.0" /><line stroke="#999" stroke-width="3" x1="645.0" x2="709.0" y1="965.0" y2="965.0" /><line stroke="#999" stroke-width="3" x1="709.0" x2="773.0" y1="965.0" y2="901.0" /><line stroke="#999" stroke-width="3" x1="773.0" x2="773.0" y1="901.0" y2="837.0" /><line stroke="#999" stroke-width="3" x1="709.0" x2="901.0" y1="773.0" y2="773.0" /><line stroke="#999" stroke-width="3" x1="773.0" x2="709.0" y1="837.0" y2="773.0" /><line stroke="#999" stroke-width="3" x1="709.0" x2="645.0" y1="773.0" y2="773.0" /><line stroke="#999" stroke-width="3" x1="581.0" x2="645.0" y1="901.0" y2="965.0" /><line stroke="#999" stroke-width="3" x1="645.0" x2="581.0" y1="773.0" y2="837.0" /><line stroke="#999" stroke-width="3" x1="581.0" x2="581.0" y1="837.0" y2="901.0" /><line stroke="#333" stroke-width="10" x1="389.0" x2="325.0" y1="773.0" y2="773.0" /><line stroke="#333" stroke-width="10" x1="965.0" x2="901.0" y1="773.0" y2="773.0" /><line stroke="#999" stroke-width="3" x1="389.0" x2="389.0" y1="773.0" y2="837.0" /><line stroke="#999" stroke-width="3" x1="389.0" x2="453.0" y1="837.0" y2="837.0" /><line stroke="#999" stroke-width="3" x1="453.0" x2="453.0" y1="837.0" y2="901.0" /><line stroke="#999" stroke-width="3" x1="453.0" x2="517.0" y1="901.0" y2="901.0" /><line stroke="#999" stroke-width="3" x1="517.0" x2="517.0" y1="901.0" y2="965.0" /><line stroke="#999" stroke-width="3" x1="517.0" x2="581.0" y1="965.0" y2="965.0" /><line stroke="#999" stroke-width="3" x1="581.0" x2="581.0" y1="965.0" y2="997.0" /><line stroke="#999" stroke-width="3" x1="581.0" x2="773.0" y1="997.0" y2="997.0" /><line stroke="#999" stroke-width="3" x1="773.0" x2="773.0" y1="997.0" y2="965.0" /><line stroke="#999" stroke-width="3" x1="773.0" x2="837.0" y1="965.0" y2="965.0" /><line stroke="#999" stroke-width="3" x1="837.0" x2="837.0" y1="965.0" y2="901.0" /><line stroke="#999" stroke-width="3" x1="837.0" x2="901.0" y1="901.0" y2="901.0" /><line stroke="#999" stroke-width="3" x1="901.0" x2="901.0" y1="901.0" y2="837.0" /><line stroke="#999" stroke-width="3" x1="901.0" x2="965.0" y1="837.0" y2="837.0" /><line stroke="#999" stroke-width="3" x1="965.0" x2="965.0" y1="837.0" y2="773.0" /><line stroke="#999" stroke-width="3" x1="645.0" x2="709.0" y1="1093.0" y2="1093.0" /><line stroke="#333" stroke-width="10" x1="645.0" x2="645.0" y1="1093.0" y2="1157.0" /><line stroke="#333" stroke-width="10" x1="645.0" x2="261.0" y1="1157.0" y2="1157.0" /><line stroke="#333" stroke-width="10" x1="69.0" x2="69.0" y1="773.0" y2="1221.0" /><line stroke="#333" stroke-width="10" x1="85.0" x2="133.0" y1="1285.0" y2="1333.0" /><line stroke="#333" stroke-width="10" x1="1221.0" x2="1261.0" y1="1333.0" y2="1285.0" /><line stroke="#333" stroke-width="10" x1="1277.0" x2="1093.0" y1="773.0" y2="773.0" /><line stroke="#333" stroke-width="10" x1="709.0" x2="773.0" y1="1093.0" y2="1093.0" /><line stroke="#333" stroke-width="10" x1="709.0" x2="709.0" y1="1157.0" y2="1093.0" /><line stroke="#333" stroke-width="10" x1="261.0" x2="261.0" y1="1157.0" y2="901.0" /><line stroke="#333" stroke-width="10" x1="261.0" x2="69.0" y1="773.0" y2="773.0" /><line stroke="#333" stroke-width="10" x1="1093.0" x2="709.0" y1="1157.0" y2="1157.0" /><line stroke="#333" stroke-width="10" x1="1093.0" x2="1093.0" y1="773.0" y2="837.0" /><line stroke="#999" stroke-width="3" x1="1029.0" x2="1029.0" y1="901.0" y2="837.0" /><line stroke="#333" stroke-width="10" x1="1093.0" x2="1093.0" y1="901.0" y2="1157.0" /><line stroke="#333" stroke-width="10" x1="1029.0" x2="1093.0" y1="901.0" y2="901.0" /><line stroke="#333" stroke-width="10" x1="1029.0" x2="1029.0" y1="837.0" y2="773.0" /><line stroke="#333" stroke-width="10" x1="1093.0" x2="1029.0" y1="837.0" y2="837.0" /><line stroke="#333" stroke-width="10" x1="325.0" x2="325.0" y1="901.0" y2="965.0" /><line stroke="#333" stroke-width="10" x1="261.0" x2="261.0" y1="837.0" y2="773.0" /><line stroke="#999" stroke-width="3" x1="325.0" x2="325.0" y1="837.0" y2="901.0" /><line stroke="#333" stroke-width="10" x1="261.0" x2="325.0" y1="901.0" y2="901.0" /><line stroke="#333" stroke-width="10" x1="325.0" x2="261.0" y1="837.0" y2="837.0" /><line stroke="#666" stroke-width="20" x1="613.0" x2="741.0" y1="1349.0" y2="1349.0" /><line stroke="#333" stroke-width="10" x1="613.0" x2="613.0" y1="1349.0" y2="1381.0" /><line stroke="#666" stroke-width="20" x1="741.0" x2="613.0" y1="1381.0" y2="1381.0" /><line stroke="#333" stroke-width="10" x1="741.0" x2="1157.0" y1="1349.0" y2="1349.0" /><line stroke="#333" stroke-width="10" x1="741.0" x2="741.0" y1="1381.0" y2="1349.0" /><line stroke="#333" stroke-width="10" x1="613.0" x2="581.0" y1="1381.0" y2="1381.0" /><line stroke="#333" stroke-width="10" x1="517.0" x2="517.0" y1="1381.0" y2="1413.0" /><line stroke="#999" stroke-width="3" x1="517.0" x2="837.0" y1="1413.0" y2="1413.0" /><line stroke="#333" stroke-width="10" x1="837.0" x2="837.0" y1="1413.0" y2="1381.0" /><line stroke="#333" stroke-width="10" x1="837.0" x2="773.0" y1="1381.0" y2="1381.0" /><line stroke="#333" stroke-width="10" x1="517.0" x2="197.0" y1="1413.0" y2="1413.0" /><line stroke="#333" stroke-width="10" x1="197.0" x2="197.0" y1="1413.0" y2="1477.0" /><line stroke="#333" stroke-width="10" x1="197.0" x2="221.0" y1="1605.0" y2="1605.0" /><line stroke="#333" stroke-width="10" x1="1157.0" x2="1157.0" y1="1605.0" y2="1541.0" /><line stroke="#333" stroke-width="10" x1="1157.0" x2="837.0" y1="1413.0" y2="1413.0" /><line stroke="#333" stroke-width="10" x1="197.0" x2="197.0" y1="1541.0" y2="1605.0" /><line stroke="#999" stroke-width="3" x1="1157.0" x2="1157.0" y1="1541.0" y2="1477.0" /><line stroke="#999" stroke-width="3" x1="197.0" x2="389.0" y1="1541.0" y2="1541.0" /><line stroke="#333" stroke-width="10" x1="1157.0" x2="1157.0" y1="1477.0" y2="1413.0" /><line stroke="#999" stroke-width="3" x1="1157.0" x2="957.0" y1="1477.0" y2="1477.0" /><line stroke="#999" stroke-width="3" x1="197.0" x2="197.0" y1="1477.0" y2="1541.0" /><line stroke="#333" stroke-width="10" x1="133.0" x2="197.0" y1="1541.0" y2="1541.0" /><line stroke="#333" stroke-width="10" x1="197.0" x2="69.0" y1="1477.0" y2="1477.0" /><line stroke="#333" stroke-width="10" x1="69.0" x2="69.0" y1="1477.0" y2="1613.0" /><line stroke="#333" stroke-width="10" x1="69.0" x2="5.0" y1="1613.0" y2="1613.0" /><line stroke="#333" stroke-width="10" x1="5.0" x2="5.0" y1="1613.0" y2="1733.0" /><line stroke="#333" stroke-width="10" x1="5.0" x2="197.0" y1="1925.0" y2="1925.0" /><line stroke="#999" stroke-width="3" x1="197.0" x2="197.0" y1="1925.0" y2="1797.0" /><line stroke="#333" stroke-width="10" x1="197.0" x2="133.0" y1="1613.0" y2="1613.0" /><line stroke="#333" stroke-width="10" x1="133.0" x2="133.0" y1="1613.0" y2="1541.0" /><line stroke="#333" stroke-width="10" x1="1221.0" x2="1221.0" y1="1541.0" y2="1613.0" /><line stroke="#333" stroke-width="10" x1="1157.0" x2="1221.0" y1="1541.0" y2="1541.0" /><line stroke="#333" stroke-width="10" x1="1285.0" x2="1157.0" y1="1477.0" y2="1477.0" /><line stroke="#333" stroke-width="10" x1="1285.0" x2="1285.0" y1="1613.0" y2="1477.0" /><line stroke="#333" stroke-width="10" x1="1349.0" x2="1285.0" y1="1613.0" y2="1613.0" /><line stroke="#333" stroke-width="10" x1="1349.0" x2="1349.0" y1="1925.0" y2="1797.0" /><line stroke="#333" stroke-width="10" x1="1157.0" x2="1349.0" y1="1925.0" y2="1925.0" /><line stroke="#333" stroke-width="10" x1="1157.0" x2="1157.0" y1="1613.0" y2="1733.0" /><line stroke="#333" stroke-width="10" x1="1221.0" x2="1157.0" y1="1613.0" y2="1613.0" /><line stroke="#999" stroke-width="3" x1="349.0" x2="373.0" y1="1605.0" y2="1605.0" /><line stroke="#333" stroke-width="10" x1="349.0" x2="349.0" y1="1605.0" y2="1613.0" /><line stroke="#333" stroke-width="10" x1="349.0" x2="373.0" y1="1613.0" y2="1613.0" /><line stroke="#333" stroke-width="10" x1="373.0" x2="477.0" y1="1605.0" y2="1605.0" /><line stroke="#333" stroke-width="10" x1="373.0" x2="373.0" y1="1613.0" y2="1605.0" /><line stroke="#999" stroke-width="3" x1="501.0" x2="477.0" y1="1605.0" y2="1605.0" /><line stroke="#333" stroke-width="10" x1="477.0" x2="477.0" y1="1605.0" y2="1613.0" /><line stroke="#333" stroke-width="10" x1="477.0" x2="501.0" y1="1613.0" y2="1613.0" /><line stroke="#333" stroke-width="10" x1="501.0" x2="501.0" y1="1613.0" y2="1605.0" /><line stroke="#333" stroke-width="10" x1="501.0" x2="605.0" y1="1605.0" y2="1605.0" /><line stroke="#999" stroke-width="3" x1="629.0" x2="605.0" y1="1605.0" y2="1605.0" /><line stroke="#333" stroke-width="10" x1="605.0" x2="605.0" y1="1605.0" y2="1613.0" /><line stroke="#333" stroke-width="10" x1="605.0" x2="629.0" y1="1613.0" y2="1613.0" /><line stroke="#333" stroke-width="10" x1="629.0" x2="629.0" y1="1613.0" y2="1605.0" /><line stroke="#333" stroke-width="10" x1="629.0" x2="733.0" y1="1605.0" y2="1605.0" /><line stroke="#999" stroke-width="3" x1="757.0" x2="733.0" y1="1605.0" y2="1605.0" /><line stroke="#333" stroke-width="10" x1="733.0" x2="733.0" y1="1605.0" y2="1613.0" /><line stroke="#333" stroke-width="10" x1="733.0" x2="757.0" y1="1613.0" y2="1613.0" /><line stroke="#333" stroke-width="10" x1="757.0" x2="757.0" y1="1613.0" y2="1605.0" /><line stroke="#333" stroke-width="10" x1="757.0" x2="861.0" y1="1605.0" y2="1605.0" /><line stroke="#999" stroke-width="3" x1="885.0" x2="861.0" y1="1605.0" y2="1605.0" /><line stroke="#333" stroke-width="10" x1="861.0" x2="861.0" y1="1605.0" y2="1613.0" /><line stroke="#333" stroke-width="10" x1="861.0" x2="885.0" y1="1613.0" y2="1613.0" /><line stroke="#333" stroke-width="10" x1="885.0" x2="885.0" y1="1613.0" y2="1605.0" /><line stroke="#333" stroke-width="10" x1="885.0" x2="989.0" y1="1605.0" y2="1605.0" /><line stroke="#999" stroke-width="3" x1="1013.0" x2="989.0" y1="1605.0" y2="1605.0" /><line stroke="#333" stroke-width="10" x1="989.0" x2="989.0" y1="1605.0" y2="1613.0" /><line stroke="#333" stroke-width="10" x1="989.0" x2="1013.0" y1="1613.0" y2="1613.0" /><line stroke="#333" stroke-width="10" x1="1013.0" x2="1013.0" y1="1613.0" y2="1605.0" /><line stroke="#333" stroke-width="10" x1="1013.0" x2="1117.0" y1="1605.0" y2="1605.0" /><line stroke="#999" stroke-width="3" x1="1141.0" x2="1117.0" y1="1605.0" y2="1605.0" /><line stroke="#333" stroke-width="10" x1="1117.0" x2="1117.0" y1="1605.0" y2="1613.0" /><line stroke="#333" stroke-width="10" x1="1117.0" x2="1141.0" y1="1613.0" y2="1613.0" /><line stroke="#333" stroke-width="10" x1="1141.0" x2="1141.0" y1="1613.0" y2="1605.0" /><line stroke="#333" stroke-width="10" x1="1141.0" x2="1157.0" y1="1605.0" y2="1605.0" /><line stroke="#999" stroke-width="3" x1="245.0" x2="221.0" y1="1605.0" y2="1605.0" /><line stroke="#333" stroke-width="10" x1="221.0" x2="221.0" y1="1605.0" y2="1613.0" /><line stroke="#333" stroke-width="10" x1="221.0" x2="245.0" y1="1613.0" y2="1613.0" /><line stroke="#333" stroke-width="10" x1="245.0" x2="245.0" y1="1613.0" y2="1605.0" /><line stroke="#333" stroke-width="10" x1="245.0" x2="349.0" y1="1605.0" y2="1605.0" /><line stroke="#333" stroke-width="10" x1="581.0" x2="517.0" y1="1381.0" y2="1381.0" /><line stroke="#333" stroke-width="10" x1="773.0" x2="741.0" y1="1381.0" y2="1381.0" /><line stroke="#333" stroke-width="10" x1="197.0" x2="341.0" y1="1925.0" y2="1925.0" /><line stroke="#999" stroke-width="3" x1="1157.0" x2="1157.0" y1="1797.0" y2="1925.0" /><line stroke="#333" stroke-width="10" x1="645.0" x2="589.0" y1="1797.0" y2="1797.0" /><line stroke="#333" stroke-width="10" x1="1157.0" x2="1037.0" y1="1797.0" y2="1797.0" /><line stroke="#333" stroke-width="10" x1="709.0" x2="709.0" y1="1797.0" y2="1733.0" /><line stroke="#333" stroke-width="10" x1="709.0" x2="645.0" y1="1733.0" y2="1733.0" /><line stroke="#333" stroke-width="10" x1="645.0" x2="645.0" y1="1733.0" y2="1797.0" /><line stroke="#333" stroke-width="10" x1="197.0" x2="197.0" y1="1797.0" y2="1733.0" /><line stroke="#333" stroke-width="10" x1="5.0" x2="5.0" y1="1797.0" y2="1925.0" /><line stroke="#999" stroke-width="3" x1="5.0" x2="197.0" y1="1797.0" y2="1797.0" /><line stroke="#333" stroke-width="10" x1="197.0" x2="197.0" y1="1733.0" y2="1613.0" /><line stroke="#999" stroke-width="3" x1="197.0" x2="5.0" y1="1733.0" y2="1733.0" /><line stroke="#333" stroke-width="10" x1="5.0" x2="5.0" y1="1733.0" y2="1797.0" /><line stroke="#333" stroke-width="10" x1="1349.0" x2="1349.0" y1="1797.0" y2="1733.0" /><line stroke="#999" stroke-width="3" x1="1157.0" x2="1349.0" y1="1797.0" y2="1797.0" /><line stroke="#333" stroke-width="10" x1="1349.0" x2="1349.0" y1="1733.0" y2="1613.0" /><line stroke="#999" stroke-width="3" x1="1349.0" x2="1157.0" y1="1733.0" y2="1733.0" /><line stroke="#333" stroke-width="10" x1="1157.0" x2="1157.0" y1="1733.0" y2="1797.0" /><line stroke="#999" stroke-width="3" x1="341.0" x2="373.0" y1="1925.0" y2="1925.0" /><line stroke="#333" stroke-width="10" x1="341.0" x2="341.0" y1="1925.0" y2="1933.0" /><line stroke="#333" stroke-width="10" x1="341.0" x2="373.0" y1="1933.0" y2="1933.0" /><line stroke="#333" stroke-width="10" x1="373.0" x2="533.0" y1="1925.0" y2="1925.0" /><line stroke="#333" stroke-width="10" x1="373.0" x2="373.0" y1="1933.0" y2="1925.0" /><line stroke="#333" stroke-width="10" x1="309.0" x2="197.0" y1="1797.0" y2="1797.0" /><line stroke="#999" stroke-width="3" x1="341.0" x2="309.0" y1="1925.0" y2="1797.0" /><line stroke="#333" stroke-width="10" x1="397.0" x2="309.0" y1="1797.0" y2="1797.0" /><line stroke="#999" stroke-width="3" x1="397.0" x2="373.0" y1="1797.0" y2="1925.0" /><line stroke="#999" stroke-width="3" x1="533.0" x2="565.0" y1="1925.0" y2="1925.0" /><line stroke="#333" stroke-width="10" x1="533.0" x2="533.0" y1="1925.0" y2="1933.0" /><line stroke="#333" stroke-width="10" x1="533.0" x2="565.0" y1="1933.0" y2="1933.0" /><line stroke="#333" stroke-width="10" x1="565.0" x2="565.0" y1="1933.0" y2="1925.0" /><line stroke="#999" stroke-width="3" x1="533.0" x2="501.0" y1="1925.0" y2="1797.0" /><line stroke="#333" stroke-width="10" x1="589.0" x2="501.0" y1="1797.0" y2="1797.0" /><line stroke="#999" stroke-width="3" x1="589.0" x2="565.0" y1="1797.0" y2="1925.0" /><line stroke="#333" stroke-width="10" x1="501.0" x2="397.0" y1="1797.0" y2="1797.0" /><line stroke="#333" stroke-width="10" x1="565.0" x2="789.0" y1="1925.0" y2="1925.0" /><line stroke="#999" stroke-width="3" x1="981.0" x2="1013.0" y1="1925.0" y2="1925.0" /><line stroke="#333" stroke-width="10" x1="981.0" x2="981.0" y1="1925.0" y2="1933.0" /><line stroke="#333" stroke-width="10" x1="981.0" x2="1013.0" y1="1933.0" y2="1933.0" /><line stroke="#333" stroke-width="10" x1="1013.0" x2="1013.0" y1="1933.0" y2="1925.0" /><line stroke="#999" stroke-width="3" x1="981.0" x2="949.0" y1="1925.0" y2="1797.0" /><line stroke="#333" stroke-width="10" x1="1037.0" x2="949.0" y1="1797.0" y2="1797.0" /><line stroke="#999" stroke-width="3" x1="1037.0" x2="1013.0" y1="1797.0" y2="1925.0" /><line stroke="#333" stroke-width="10" x1="949.0" x2="845.0" y1="1797.0" y2="1797.0" /><line stroke="#333" stroke-width="10" x1="1013.0" x2="1157.0" y1="1925.0" y2="1925.0" /><line stroke="#999" stroke-width="3" x1="789.0" x2="821.0" y1="1925.0" y2="1925.0" /><line stroke="#333" stroke-width="10" x1="789.0" x2="789.0" y1="1925.0" y2="1933.0" /><line stroke="#333" stroke-width="10" x1="789.0" x2="821.0" y1="1933.0" y2="1933.0" /><line stroke="#333" stroke-width="10" x1="821.0" x2="821.0" y1="1933.0" y2="1925.0" /><line stroke="#999" stroke-width="3" x1="789.0" x2="757.0" y1="1925.0" y2="1797.0" /><line stroke="#333" stroke-width="10" x1="845.0" x2="757.0" y1="1797.0" y2="1797.0" /><line stroke="#999" stroke-width="3" x1="845.0" x2="821.0" y1="1797.0" y2="1925.0" /><line stroke="#333" stroke-width="10" x1="757.0" x2="709.0" y1="1797.0" y2="1797.0" /><line stroke="#333" stroke-width="10" x1="821.0" x2="981.0" y1="1925.0" y2="1925.0" /><line stroke="#333" stroke-width="10" x1="133.0" x2="197.0" y1="1333.0" y2="1349.0" /><line stroke="#333" stroke-width="10" x1="69.0" x2="85.0" y1="1221.0" y2="1285.0" /><line stroke="#333" stroke-width="10" x1="197.0" x2="613.0" y1="1349.0" y2="1349.0" /><line stroke="#333" stroke-width="10" x1="1277.0" x2="1277.0" y1="1221.0" y2="773.0" /><line stroke="#333" stroke-width="10" x1="1261.0" x2="1277.0" y1="1285.0" y2="1221.0" /><line stroke="#333" stroke-width="10" x1="1157.0" x2="1221.0" y1="1349.0" y2="1333.0" /><line stroke="#999" stroke-width="3" x1="133.0" x2="197.0" y1="1093.0" y2="1093.0" /><line stroke="#999" stroke-width="3" x1="197.0" x2="197.0" y1="1093.0" y2="1029.0" /><line stroke="#999" stroke-width="3" x1="197.0" x2="133.0" y1="1029.0" y2="1029.0" /><line stroke="#999" stroke-width="3" x1="133.0" x2="133.0" y1="1029.0" y2="1093.0" /><line stroke="#999" stroke-width="3" x1="133.0" x2="197.0" y1="901.0" y2="901.0" /><line stroke="#999" stroke-width="3" x1="197.0" x2="197.0" y1="901.0" y2="837.0" /><line stroke="#999" stroke-width="3" x1="197.0" x2="133.0" y1="837.0" y2="837.0" /><line stroke="#999" stroke-width="3" x1="133.0" x2="133.0" y1="837.0" y2="901.0" /><line stroke="#999" stroke-width="3" x1="325.0" x2="389.0" y1="1285.0" y2="1285.0" /><line stroke="#999" stroke-width="3" x1="389.0" x2="389.0" y1="1285.0" y2="1221.0" /><line stroke="#999" stroke-width="3" x1="389.0" x2="325.0" y1="1221.0" y2="1221.0" /><line stroke="#999" stroke-width="3" x1="325.0" x2="325.0" y1="1221.0" y2="1285.0" /><line stroke="#999" stroke-width="3" x1="517.0" x2="581.0" y1="1285.0" y2="1285.0" /><line stroke="#999" stroke-width="3" x1="581.0" x2="581.0" y1="1285.0" y2="1221.0" /><line stroke="#999" stroke-width="3" x1="581.0" x2="517.0" y1="1221.0" y2="1221.0" /><line stroke="#999" stroke-width="3" x1="517.0" x2="517.0" y1="1221.0" y2="1285.0" /><line stroke="#999" stroke-width="3" x1="773.0" x2="837.0" y1="1285.0" y2="1285.0" /><line stroke="#999" stroke-width="3" x1="837.0" x2="837.0" y1="1285.0" y2="1221.0" /><line stroke="#999" stroke-width="3" x1="837.0" x2="773.0" y1="1221.0" y2="1221.0" /><line stroke="#999" stroke-width="3" x1="773.0" x2="773.0" y1="1221.0" y2="1285.0" /><line stroke="#999" stroke-width="3" x1="965.0" x2="1029.0" y1="1285.0" y2="1285.0" /><line stroke="#999" stroke-width="3" x1="1029.0" x2="1029.0" y1="1285.0" y2="1221.0" /><line stroke="#999" stroke-width="3" x1="1029.0" x2="965.0" y1="1221.0" y2="1221.0" /><line stroke="#999" stroke-width="3" x1="965.0" x2="965.0" y1="1221.0" y2="1285.0" /><line stroke="#999" stroke-width="3" x1="1157.0" x2="1221.0" y1="1093.0" y2="1093.0" /><line stroke="#999" stroke-width="3" x1="1221.0" x2="1221.0" y1="1093.0" y2="1029.0" /><line stroke="#999" stroke-width="3" x1="1221.0" x2="1157.0" y1="1029.0" y2="1029.0" /><line stroke="#999" stroke-width="3" x1="1157.0" x2="1157.0" y1="1029.0" y2="1093.0" /><line stroke="#999" stroke-width="3" x1="1157.0" x2="1221.0" y1="901.0" y2="901.0" /><line stroke="#999" stroke-width="3" x1="1221.0" x2="1221.0" y1="901.0" y2="837.0" /><line stroke="#999" stroke-width="3" x1="1221.0" x2="1157.0" y1="837.0" y2="837.0" /><line stroke="#999" stroke-width="3" x1="1157.0" x2="1157.0" y1="837.0" y2="901.0" /><line stroke="#999" stroke-width="3" x1="1157.0" x2="1221.0" y1="1285.0" y2="1285.0" /><line stroke="#999" stroke-width="3" x1="1221.0" x2="1221.0" y1="1285.0" y2="1221.0" /><line stroke="#999" stroke-width="3" x1="1221.0" x2="1157.0" y1="1221.0" y2="1221.0" /><line stroke="#999" stroke-width="3" x1="1157.0" x2="1157.0" y1="1221.0" y2="1285.0" /><line stroke="#999" stroke-width="3" x1="133.0" x2="197.0" y1="1285.0" y2="1285.0" /><line stroke="#999" stroke-width="3" x1="197.0" x2="197.0" y1="1285.0" y2="1221.0" /><line stroke="#999" stroke-width="3" x1="197.0" x2="133.0" y1="1221.0" y2="1221.0" /><line stroke="#999" stroke-width="3" x1="133.0" x2="133.0" y1="1221.0" y2="1285.0" /><line stroke="#999" stroke-width="3" x1="141.0" x2="189.0" y1="893.0" y2="893.0" /><line stroke="#999" stroke-width="3" x1="189.0" x2="189.0" y1="893.0" y2="845.0" /><line stroke="#999" stroke-width="3" x1="189.0" x2="141.0" y1="845.0" y2="845.0" /><line stroke="#999" stroke-width="3" x1="141.0" x2="141.0" y1="845.0" y2="893.0" /><line stroke="#999" stroke-width="3" x1="141.0" x2="189.0" y1="1085.0" y2="1085.0" /><line stroke="#999" stroke-width="3" x1="189.0" x2="189.0" y1="1085.0" y2="1037.0" /><line stroke="#999" stroke-width="3" x1="189.0" x2="141.0" y1="1037.0" y2="1037.0" /><line stroke="#999" stroke-width="3" x1="141.0" x2="141.0" y1="1037.0" y2="1085.0" /><line stroke="#999" stroke-width="3" x1="141.0" x2="189.0" y1="1277.0" y2="1277.0" /><line stroke="#999" stroke-width="3" x1="189.0" x2="189.0" y1="1277.0" y2="1229.0" /><line stroke="#999" stroke-width="3" x1="189.0" x2="141.0" y1="1229.0" y2="1229.0" /><line stroke="#999" stroke-width="3" x1="141.0" x2="141.0" y1="1229.0" y2="1277.0" /><line stroke="#999" stroke-width="3" x1="333.0" x2="381.0" y1="1277.0" y2="1277.0" /><line stroke="#999" stroke-width="3" x1="381.0" x2="381.0" y1="1277.0" y2="1229.0" /><line stroke="#999" stroke-width="3" x1="381.0" x2="333.0" y1="1229.0" y2="1229.0" /><line stroke="#999" stroke-width="3" x1="333.0" x2="333.0" y1="1229.0" y2="1277.0" /><line stroke="#999" stroke-width="3" x1="525.0" x2="573.0" y1="1277.0" y2="1277.0" /><line stroke="#999" stroke-width="3" x1="573.0" x2="573.0" y1="1277.0" y2="1229.0" /><line stroke="#999" stroke-width="3" x1="573.0" x2="525.0" y1="1229.0" y2="1229.0" /><line stroke="#999" stroke-width="3" x1="525.0" x2="525.0" y1="1229.0" y2="1277.0" /><line stroke="#999" stroke-width="3" x1="781.0" x2="829.0" y1="1277.0" y2="1277.0" /><line stroke="#999" stroke-width="3" x1="829.0" x2="829.0" y1="1277.0" y2="1229.0" /><line stroke="#999" stroke-width="3" x1="829.0" x2="781.0" y1="1229.0" y2="1229.0" /><line stroke="#999" stroke-width="3" x1="781.0" x2="781.0" y1="1229.0" y2="1277.0" /><line stroke="#999" stroke-width="3" x1="973.0" x2="1021.0" y1="1277.0" y2="1277.0" /><line stroke="#999" stroke-width="3" x1="1021.0" x2="1021.0" y1="1277.0" y2="1229.0" /><line stroke="#999" stroke-width="3" x1="1021.0" x2="973.0" y1="1229.0" y2="1229.0" /><line stroke="#999" stroke-width="3" x1="973.0" x2="973.0" y1="1229.0" y2="1277.0" /><line stroke="#999" stroke-width="3" x1="1165.0" x2="1213.0" y1="1277.0" y2="1277.0" /><line stroke="#999" stroke-width="3" x1="1213.0" x2="1213.0" y1="1277.0" y2="1229.0" /><line stroke="#999" stroke-width="3" x1="1213.0" x2="1165.0" y1="1229.0" y2="1229.0" /><line stroke="#999" stroke-width="3" x1="1165.0" x2="1165.0" y1="1229.0" y2="1277.0" /><line stroke="#999" stroke-width="3" x1="1165.0" x2="1213.0" y1="1085.0" y2="1085.0" /><line stroke="#999" stroke-width="3" x1="1213.0" x2="1213.0" y1="1085.0" y2="1037.0" /><line stroke="#999" stroke-width="3" x1="1213.0" x2="1165.0" y1="1037.0" y2="1037.0" /><line stroke="#999" stroke-width="3" x1="1165.0" x2="1165.0" y1="1037.0" y2="1085.0" /><line stroke="#999" stroke-width="3" x1="1165.0" x2="1213.0" y1="893.0" y2="893.0" /><line stroke="#999" stroke-width="3" x1="1213.0" x2="1213.0" y1="893.0" y2="845.0" /><line stroke="#999" stroke-width="3" x1="1213.0" x2="1165.0" y1="845.0" y2="845.0" /><line stroke="#999" stroke-width="3" x1="1165.0" x2="1165.0" y1="845.0" y2="893.0" /><line stroke="#666" stroke-width="20" x1="709.0" x2="645.0" y1="1797.0" y2="1797.0" /><line stroke="#333" stroke-width="10" x1="389.0" x2="517.0" y1="2309.0" y2="2309.0" /><line stroke="#333" stroke-width="10" x1="517.0" x2="517.0" y1="2309.0" y2="2053.0" /><line stroke="#999" stroke-width="3" x1="517.0" x2="389.0" y1="2053.0" y2="2053.0" /><line stroke="#333" stroke-width="10" x1="389.0" x2="389.0" y1="2053.0" y2="2309.0" /><line stroke="#333" stroke-width="10" x1="389.0" x2="389.0" y1="2037.0" y2="2053.0" /><line stroke="#333" stroke-width="10" x1="517.0" x2="517.0" y1="2053.0" y2="2037.0" /><line stroke="#999" stroke-width="3" x1="389.0" x2="517.0" y1="2037.0" y2="2037.0" /><line stroke="#333" stroke-width="10" x1="389.0" x2="389.0" y1="2021.0" y2="2037.0" /><line stroke="#333" stroke-width="10" x1="517.0" x2="517.0" y1="2037.0" y2="2021.0" /><line stroke="#00d" stroke-width="20" x1="517.0" x2="453.0" y1="2021.0" y2="2021.0" /><line stroke="#333" stroke-width="10" x1="389.0" x2="389.0" y1="1957.0" y2="2021.0" /><line stroke="#333" stroke-width="10" x1="517.0" x2="517.0" y1="2021.0" y2="1957.0" /><line stroke="#333" stroke-width="10" x1="517.0" x2="389.0" y1="1957.0" y2="1957.0" /><line stroke="#333" stroke-width="10" x1="621.0" x2="813.0" y1="2309.0" y2="2309.0" /><line stroke="#333" stroke-width="10" x1="813.0" x2="813.0" y1="2309.0" y2="2053.0" /><line stroke="#999" stroke-width="3" x1="813.0" x2="621.0" y1="2053.0" y2="2053.0" /><line stroke="#333" stroke-width="10" x1="621.0" x2="621.0" y1="2053.0" y2="2309.0" /><line stroke="#333" stroke-width="10" x1="621.0" x2="621.0" y1="2037.0" y2="2053.0" /><line stroke="#333" stroke-width="10" x1="813.0" x2="813.0" y1="2053.0" y2="2037.0" /><line stroke="#999" stroke-width="3" x1="621.0" x2="813.0" y1="2037.0" y2="2037.0" /><line stroke="#333" stroke-width="10" x1="621.0" x2="621.0" y1="2021.0" y2="2037.0" /><line stroke="#333" stroke-width="10" x1="813.0" x2="813.0" y1="2037.0" y2="2021.0" /><line stroke="#00d" stroke-width="20" x1="813.0" x2="685.0" y1="2021.0" y2="2021.0" /><line stroke="#333" stroke-width="10" x1="621.0" x2="621.0" y1="1957.0" y2="2021.0" /><line stroke="#333" stroke-width="10" x1="813.0" x2="813.0" y1="2021.0" y2="1957.0" /><line stroke="#333" stroke-width="10" x1="813.0" x2="621.0" y1="1957.0" y2="1957.0" /><line stroke="#00d" stroke-width="20" x1="685.0" x2="621.0" y1="2021.0" y2="2021.0" /><line stroke="#00d" stroke-width="20" x1="453.0" x2="389.0" y1="2021.0" y2="2021.0" /><line stroke="#999" stroke-width="3" x1="389.0" x2="453.0" y1="1541.0" y2="1541.0" /><line stroke="#999" stroke-width="3" x1="453.0" x2="893.0" y1="1541.0" y2="1541.0" /><line stroke="#999" stroke-width="3" x1="389.0" x2="389.0" y1="1477.0" y2="1541.0" /><line stroke="#999" stroke-width="3" x1="453.0" x2="389.0" y1="1477.0" y2="1477.0" /><line stroke="#999" stroke-width="3" x1="453.0" x2="453.0" y1="1541.0" y2="1477.0" /><line stroke="#999" stroke-width="3" x1="389.0" x2="197.0" y1="1477.0" y2="1477.0" /><line stroke="#999" stroke-width="3" x1="893.0" x2="957.0" y1="1541.0" y2="1541.0" /><line stroke="#999" stroke-width="3" x1="893.0" x2="893.0" y1="1477.0" y2="1541.0" /><line stroke="#999" stroke-width="3" x1="957.0" x2="893.0" y1="1477.0" y2="1477.0" /><line stroke="#999" stroke-width="3" x1="957.0" x2="957.0" y1="1541.0" y2="1477.0" /><line stroke="#999" stroke-width="3" x1="893.0" x2="453.0" y1="1477.0" y2="1477.0" /><line stroke="#999" stroke-width="3" x1="957.0" x2="1157.0" y1="1541.0" y2="1541.0" /><line stroke="#999" stroke-width="3" x1="405.0" x2="501.0" y1="2301.0" y2="2301.0" /><line stroke="#999" stroke-width="3" x1="501.0" x2="501.0" y1="2301.0" y2="2077.0" /><line stroke="#999" stroke-width="3" x1="501.0" x2="405.0" y1="2077.0" y2="2077.0" /><line stroke="#999" stroke-width="3" x1="405.0" x2="405.0" y1="2077.0" y2="2301.0" /><line stroke="#999" stroke-width="3" x1="645.0" x2="789.0" y1="2293.0" y2="2293.0" /><line stroke="#999" stroke-width="3" x1="789.0" x2="789.0" y1="2293.0" y2="2077.0" /><line stroke="#999" stroke-width="3" x1="789.0" x2="645.0" y1="2077.0" y2="2077.0" /><line stroke="#999" stroke-width="3" x1="645.0" x2="645.0" y1="2077.0" y2="2293.0" /><line stroke="#999" stroke-width="3" x1="661.0" x2="693.0" y1="765.0" y2="765.0" /><line stroke="#999" stroke-width="3" x1="693.0" x2="693.0" y1="765.0" y2="725.0" /><line stroke="#999" stroke-width="3" x1="693.0" x2="661.0" y1="725.0" y2="725.0" /><line stroke="#999" stroke-width="3" x1="661.0" x2="661.0" y1="725.0" y2="765.0" /><ellipse cx="677.0" cy="477.0" fill="#009" rx="12" ry="24" stroke="#009" stroke-width="5" /><rect fill="#090" height="24" stroke="#090" stroke-width="5" transform="rotate(90,469.0,277.0)" width="24" x="457.0" y="265.0" /><rect fill="#090" height="24" stroke="#090" stroke-width="5" transform="rotate(90,885.0,277.0)" width="24" x="873.0" y="265.0" /><ellipse cx="677.0" cy="1765.0" fill="#090" rx="12" ry="24" stroke="#090" stroke-width="5" /><rect fill="#090" height="24" stroke="#090" stroke-width="5" transform="rotate(90,533.0,1397.0)" width="24" x="521.0" y="1385.0" /><rect fill="#090" height="24" stroke="#090" stroke-width="5" transform="rotate(90,821.0,1397.0)" width="24" x="809.0" y="1385.0" /><rect fill="#900" height="48" stroke="#900" stroke-width="5" transform="rotate(270,677.0,805.0)" width="32" x="661.0" y="781.0" /><rect fill="#900" height="48" stroke="#900" stroke-width="5" transform="rotate(0,421.0,869.0)" width="32" x="405.0" y="845.0" /><rect fill="#900" height="48" stroke="#900" stroke-width="5" transform="rotate(180,933.0,869.0)" width="32" x="917.0" y="845.0" /><rect fill="#900" height="48" stroke="#900" stroke-width="5" transform="rotate(270,677.0,1061.0)" width="32" x="661.0" y="1037.0" /><rect fill="#900" height="48" stroke="#900" stroke-width="5" transform="rotate(270,677.0,709.0)" width="32" x="661.0" y="685.0" /><circle cx="677.0" cy="869.0" fill="#900" r="16" stroke="#900" stroke-width="5" /><circle cx="933.0" cy="805.0" fill="#090" r="16" stroke="#090" stroke-width="5" /><circle cx="421.0" cy="805.0" fill="#090" r="16" stroke="#090" stroke-width="5" /><rect fill="#090" height="24" stroke="#090" stroke-width="5" transform="rotate(270,165.0,1253.0)" width="24" x="153.0" y="1241.0" /><rect fill="#090" height="24" stroke="#090" stroke-width="5" transform="rotate(270,1189.0,1253.0)" width="24" x="1177.0" y="1241.0" /><rect fill="#900" height="48" stroke="#900" stroke-width="5" transform="rotate(270,357.0,1253.0)" width="32" x="341.0" y="1229.0" /><rect fill="#900" height="48" stroke="#900" stroke-width="5" transform="rotate(270,997.0,1253.0)" width="32" x="981.0" y="1229.0" /><rect fill="#900" height="48" stroke="#900" stroke-width="5" transform="rotate(270,805.0,1253.0)" width="32" x="789.0" y="1229.0" /><rect fill="#900" height="48" stroke="#900" stroke-width="5" transform="rotate(270,549.0,1253.0)" width="32" x="533.0" y="1229.0" /><rect fill="#900" height="48" stroke="#900" stroke-width="5" transform="rotate(180,1189.0,1061.0)" width="32" x="1173.0" y="1037.0" /><rect fill="#900" height="48" stroke="#900" stroke-width="5" transform="rotate(270,165.0,1061.0)" width="32" x="149.0" y="1037.0" /><rect fill="#900" height="48" stroke="#900" stroke-width="5" transform="rotate(270,677.0,1565.0)" width="32" x="661.0" y="1541.0" /><circle cx="165.0" cy="869.0" fill="#090" r="16" stroke="#090" stroke-width="5" /><circle cx="1189.0" cy="869.0" fill="#090" r="16" stroke="#090" stroke-width="5" /><circle cx="229.0" cy="1573.0" fill="#009" r="16" stroke="#009" stroke-width="5" /><circle cx="1125.0" cy="1573.0" fill="#009" r="16" stroke="#009" stroke-width="5" /><circle cx="485.0" cy="997.0" fill="#009" r="16" stroke="#009" stroke-width="5" /><circle cx="869.0" cy="997.0" fill="#009" r="16" stroke="#009" stroke-width="5" /><circle cx="485.0" cy="621.0" fill="#009" r="16" stroke="#009" stroke-width="5" /><circle cx="869.0" cy="621.0" fill="#009" r="16" stroke="#009" stroke-width="5" /><rect fill="#900" height="48" stroke="#900" stroke-width="5" transform="rotate(270,37.0,1885.0)" width="32" x="21.0" y="1861.0" /><rect fill="#900" height="48" stroke="#900" stroke-width="5" transform="rotate(270,101.0,1885.0)" width="32" x="85.0" y="1861.0" /><rect fill="#900" height="48" stroke="#900" stroke-width="5" transform="rotate(270,165.0,1885.0)" width="32" x="149.0" y="1861.0" /><rect fill="#900" height="48" stroke="#900" stroke-width="5" transform="rotate(270,1189.0,1893.0)" width="32" x="1173.0" y="1869.0" /><rect fill="#900" height="48" stroke="#900" stroke-width="5" transform="rotate(270,1253.0,1893.0)" width="32" x="1237.0" y="1869.0" /><rect fill="#900" height="48" stroke="#900" stroke-width="5" transform="rotate(270,1317.0,1893.0)" width="32" x="1301.0" y="1869.0" /><rect fill="#900" height="48" stroke="#900" stroke-width="5" transform="rotate(270,1253.0,1573.0)" width="32" x="1237.0" y="1549.0" /><rect fill="#900" height="48" stroke="#900" stroke-width="5" transform="rotate(270,101.0,1573.0)" width="32" x="85.0" y="1549.0" /><circle cx="677.0" cy="1893.0" fill="#900" r="16" stroke="#900" stroke-width="5" /><circle cx="741.0" cy="1893.0" fill="#090" r="16" stroke="#090" stroke-width="5" /><circle cx="613.0" cy="1893.0" fill="#090" r="16" stroke="#090" stroke-width="5" /><rect fill="#009" height="24" stroke="#009" stroke-width="5" transform="rotate(180,421.0,1509.0)" width="24" x="409.0" y="1497.0" /><rect fill="#009" height="24" stroke="#009" stroke-width="5" transform="rotate(0,925.0,1509.0)" width="24" x="913.0" y="1497.0" /><rect fill="#900" height="48" stroke="#900" stroke-width="5" transform="rotate(270,757.0,2109.0)" width="32" x="741.0" y="2085.0" /><rect fill="#900" height="48" stroke="#900" stroke-width="5" transform="rotate(270,757.0,2205.0)" width="32" x="741.0" y="2181.0" /><rect fill="#900" height="48" stroke="#900" stroke-width="5" transform="rotate(270,661.0,2093.0)" width="32" x="645.0" y="2069.0" /><rect fill="#900" height="48" stroke="#900" stroke-width="5" transform="rotate(270,661.0,2157.0)" width="32" x="645.0" y="2133.0" /><rect fill="#900" height="48" stroke="#900" stroke-width="5" transform="rotate(270,661.0,2221.0)" width="32" x="645.0" y="2197.0" /><rect fill="#900" height="48" stroke="#900" stroke-width="5" transform="rotate(270,661.0,2277.0)" width="32" x="645.0" y="2253.0" /><rect fill="#900" height="48" stroke="#900" stroke-width="5" transform="rotate(270,421.0,2093.0)" width="32" x="405.0" y="2069.0" /><rect fill="#900" height="48" stroke="#900" stroke-width="5" transform="rotate(270,421.0,2149.0)" width="32" x="405.0" y="2125.0" /><rect fill="#900" height="48" stroke="#900" stroke-width="5" transform="rotate(270,421.0,2205.0)" width="32" x="405.0" y="2181.0" /><rect fill="#900" height="48" stroke="#900" stroke-width="5" transform="rotate(270,421.0,2261.0)" width="32" x="405.0" y="2237.0" /><rect fill="#900" height="48" stroke="#900" stroke-width="5" transform="rotate(270,477.0,2205.0)" width="32" x="461.0" y="2181.0" /><rect fill="#900" height="48" stroke="#900" stroke-width="5" transform="rotate(270,477.0,2261.0)" width="32" x="461.0" y="2237.0" /><rect fill="#900" height="48" stroke="#900" stroke-width="5" transform="rotate(270,477.0,2093.0)" width="32" x="461.0" y="2069.0" /><rect fill="#900" height="48" stroke="#900" stroke-width="5" transform="rotate(270,477.0,2149.0)" width="32" x="461.0" y="2125.0" /><rect fill="#009" height="24" stroke="#009" stroke-width="5" transform="rotate(270,677.0,933.0)" width="24" x="665.0" y="921.0" /><rect fill="#009" height="24" stroke="#009" stroke-width="5" transform="rotate(90,677.0,741.0)" width="24" x="665.0" y="729.0" /><rect fill="#900" height="48" stroke="#900" stroke-width="5" transform="rotate(225,517.0,325.0)" width="32" x="501.0" y="301.0" /><rect fill="#900" height="48" stroke="#900" stroke-width="5" transform="rotate(315,837.0,325.0)" width="32" x="821.0" y="301.0" /><rect fill="#900" height="48" stroke="#900" stroke-width="5" transform="rotate(0,837.0,445.0)" width="32" x="821.0" y="421.0" /><rect fill="#900" height="48" stroke="#900" stroke-width="5" transform="rotate(180,517.0,437.0)" width="32" x="501.0" y="413.0" /><rect fill="#900" height="48" stroke="#900" stroke-width="5" transform="rotate(180,517.0,517.0)" width="32" x="501.0" y="493.0" /><rect fill="#900" height="48" stroke="#900" stroke-width="5" transform="rotate(0,837.0,525.0)" width="32" x="821.0" y="501.0" /><rect fill="#900" height="48" stroke="#900" stroke-width="5" transform="rotate(270,677.0,309.0)" width="32" x="661.0" y="285.0" /><circle cx="549.0" cy="621.0" fill="#090" r="16" stroke="#090" stroke-width="5" /><circle cx="805.0" cy="621.0" fill="#090" r="16" stroke="#090" stroke-width="5" /><circle cx="837.0" cy="389.0" fill="#090" r="16" stroke="#090" stroke-width="5" /><circle cx="517.0" cy="389.0" fill="#090" r="16" stroke="#090" stroke-width="5" /><rect fill="#900" height="48" stroke="#900" stroke-width="5" transform="rotate(90,677.0,101.0)" width="32" x="661.0" y="77.0" /><circle cx="581.0" cy="389.0" fill="#009" r="16" stroke="#009" stroke-width="5" /><circle cx="773.0" cy="389.0" fill="#009" r="16" stroke="#009" stroke-width="5" /><circle cx="677.0" cy="1829.0" fill="#009" r="16" stroke="#009" stroke-width="5" /></svg>