<?xml version="1.0" encoding="utf-8" ?>
<svg baseProfile="tiny" height="367" version="1.2" viewBox="0 0 1322 474" width="1024" xmlns="http://www.w3.org/2000/svg" xmlns:ev="http://www.w3.org/2001/xml-events" xmlns:xlink="http://www.w3.org/1999/xlink"><defs /><line stroke="#333" stroke-width="10" x1="1061.0" x2="549.0" y1="21.0" y2="21.0" /><line stroke="#999" stroke-width="3" x1="1061.0" x2="1061.0" y1="469.0" y2="21.0" /><line stroke="#333" stroke-width="10" x1="549.0" x2="1061.0" y1="469.0" y2="469.0" /><line stroke="#999" stroke-width="3" x1="549.0" x2="549.0" y1="21.0" y2="469.0" /><line stroke="#333" stroke-width="10" x1="5.0" x2="133.0" y1="469.0" y2="469.0" /><line stroke="#333" stroke-width="10" x1="5.0" x2="5.0" y1="21.0" y2="469.0" /><line stroke="#333" stroke-width="10" x1="549.0" x2="421.0" y1="21.0" y2="21.0" /><line stroke="#333" stroke-width="10" x1="1317.0" x2="1061.0" y1="21.0" y2="21.0" /><line stroke="#333" stroke-width="10" x1="1317.0" x2="1317.0" y1="469.0" y2="21.0" /><line stroke="#333" stroke-width="10" x1="1061.0" x2="1317.0" y1="469.0" y2="469.0" /><line stroke="#999" stroke-width="3" x1="1125.0" x2="1189.0" y1="213.0" y2="213.0" /><line stroke="#999" stroke-width="3" x1="1189.0" x2="1189.0" y1="213.0" y2="277.0" /><line stroke="#999" stroke-width="3" x1="1189.0" x2="1125.0" y1="277.0" y2="277.0" /><line stroke="#999" stroke-width="3" x1="1125.0" x2="1125.0" y1="277.0" y2="213.0" /><line stroke="#333" stroke-width="10" x1="421.0" x2="421.0" y1="21.0" y2="85.0" /><line stroke="#333" stroke-width="10" x1="405.0" x2="405.0" y1="405.0" y2="325.0" /><line stroke="#333" stroke-width="10" x1="405.0" x2="149.0" y1="21.0" y2="21.0" /><line stroke="#333" stroke-width="10" x1="277.0" x2="405.0" y1="469.0" y2="469.0" /><line stroke="#333" stroke-width="10" x1="277.0" x2="277.0" y1="101.0" y2="197.0" /><line stroke="#333" stroke-width="10" x1="261.0" x2="277.0" y1="101.0" y2="101.0" /><line stroke="#333" stroke-width="10" x1="261.0" x2="261.0" y1="469.0" y2="357.0" /><line stroke="#333" stroke-width="10" x1="149.0" x2="149.0" y1="21.0" y2="85.0" /><line stroke="#333" stroke-width="10" x1="133.0" x2="133.0" y1="405.0" y2="325.0" /><line stroke="#333" stroke-width="10" x1="133.0" x2="101.0" y1="21.0" y2="21.0" /><line stroke="#999" stroke-width="3" x1="101.0" x2="37.0" y1="21.0" y2="21.0" /><line stroke="#333" stroke-width="10" x1="37.0" x2="5.0" y1="21.0" y2="21.0" /><line stroke="#333" stroke-width="10" x1="37.0" x2="37.0" y1="5.0" y2="21.0" /><line stroke="#0d0" stroke-width="20" x1="101.0" x2="37.0" y1="5.0" y2="5.0" /><line stroke="#333" stroke-width="10" x1="101.0" x2="101.0" y1="21.0" y2="5.0" /><line stroke="#333" stroke-width="10" x1="421.0" x2="421.0" y1="325.0" y2="405.0" /><line stroke="#999" stroke-width="3" x1="405.0" x2="405.0" y1="325.0" y2="245.0" /><line stroke="#999" stroke-width="3" x1="421.0" x2="421.0" y1="245.0" y2="325.0" /><line stroke="#333" stroke-width="10" x1="405.0" x2="405.0" y1="245.0" y2="165.0" /><line stroke="#333" stroke-width="10" x1="421.0" x2="421.0" y1="165.0" y2="245.0" /><line stroke="#999" stroke-width="3" x1="405.0" x2="405.0" y1="165.0" y2="85.0" /><line stroke="#999" stroke-width="3" x1="421.0" x2="421.0" y1="85.0" y2="165.0" /><line stroke="#333" stroke-width="10" x1="405.0" x2="405.0" y1="85.0" y2="21.0" /><line stroke="#333" stroke-width="10" x1="421.0" x2="405.0" y1="245.0" y2="245.0" /><line stroke="#333" stroke-width="10" x1="405.0" x2="421.0" y1="325.0" y2="325.0" /><line stroke="#333" stroke-width="10" x1="421.0" x2="405.0" y1="85.0" y2="85.0" /><line stroke="#333" stroke-width="10" x1="405.0" x2="421.0" y1="165.0" y2="165.0" /><line stroke="#999" stroke-width="3" x1="277.0" x2="277.0" y1="197.0" y2="213.0" /><line stroke="#333" stroke-width="10" x1="261.0" x2="261.0" y1="197.0" y2="101.0" /><line stroke="#333" stroke-width="10" x1="277.0" x2="277.0" y1="213.0" y2="341.0" /><line stroke="#999" stroke-width="3" x1="261.0" x2="261.0" y1="213.0" y2="197.0" /><line stroke="#999" stroke-width="3" x1="277.0" x2="277.0" y1="341.0" y2="357.0" /><line stroke="#333" stroke-width="10" x1="261.0" x2="261.0" y1="341.0" y2="213.0" /><line stroke="#333" stroke-width="10" x1="277.0" x2="277.0" y1="357.0" y2="469.0" /><line stroke="#999" stroke-width="3" x1="261.0" x2="261.0" y1="357.0" y2="341.0" /><line stroke="#333" stroke-width="10" x1="277.0" x2="261.0" y1="197.0" y2="197.0" /><line stroke="#333" stroke-width="10" x1="261.0" x2="277.0" y1="213.0" y2="213.0" /><line stroke="#333" stroke-width="10" x1="277.0" x2="261.0" y1="341.0" y2="341.0" /><line stroke="#333" stroke-width="10" x1="261.0" x2="277.0" y1="357.0" y2="357.0" /><line stroke="#999" stroke-width="3" x1="149.0" x2="149.0" y1="85.0" y2="165.0" /><line stroke="#333" stroke-width="10" x1="133.0" x2="133.0" y1="85.0" y2="21.0" /><line stroke="#333" stroke-width="10" x1="149.0" x2="149.0" y1="165.0" y2="229.0" /><line stroke="#999" stroke-width="3" x1="133.0" x2="133.0" y1="165.0" y2="85.0" /><line stroke="#999" stroke-width="3" x1="149.0" x2="149.0" y1="229.0" y2="325.0" /><line stroke="#333" stroke-width="10" x1="133.0" x2="133.0" y1="229.0" y2="165.0" /><line stroke="#333" stroke-width="10" x1="149.0" x2="149.0" y1="325.0" y2="405.0" /><line stroke="#999" stroke-width="3" x1="133.0" x2="133.0" y1="325.0" y2="229.0" /><line stroke="#333" stroke-width="10" x1="149.0" x2="133.0" y1="85.0" y2="85.0" /><line stroke="#333" stroke-width="10" x1="133.0" x2="149.0" y1="165.0" y2="165.0" /><line stroke="#333" stroke-width="10" x1="149.0" x2="133.0" y1="229.0" y2="229.0" /><line stroke="#333" stroke-width="10" x1="133.0" x2="149.0" y1="325.0" y2="325.0" /><line stroke="#333" stroke-width="10" x1="421.0" x2="549.0" y1="469.0" y2="469.0" /><line stroke="#333" stroke-width="10" x1="405.0" x2="421.0" y1="469.0" y2="469.0" /><line stroke="#666" stroke-width="20" x1="405.0" x2="405.0" y1="469.0" y2="405.0" /><line stroke="#333" stroke-width="10" x1="421.0" x2="405.0" y1="405.0" y2="405.0" /><line stroke="#666" stroke-width="20" x1="421.0" x2="421.0" y1="405.0" y2="469.0" /><line stroke="#333" stroke-width="10" x1="133.0" x2="149.0" y1="469.0" y2="469.0" /><line stroke="#666" stroke-width="20" x1="133.0" x2="133.0" y1="469.0" y2="405.0" /><line stroke="#333" stroke-width="10" x1="149.0" x2="133.0" y1="405.0" y2="405.0" /><line stroke="#333" stroke-width="10" x1="149.0" x2="261.0" y1="469.0" y2="469.0" /><line stroke="#666" stroke-width="20" x1="149.0" x2="149.0" y1="405.0" y2="469.0" /><ellipse cx="1253.0" cy="245.0" fill="#009" rx="12" ry="24" stroke="#009" stroke-width="5" /><rect fill="#900" height="48" stroke="#900" stroke-width="5" transform="rotate(180,485.0,245.0)" width="32" x="469.0" y="221.0" /><rect fill="#900" height="48" stroke="#900" stroke-width="5" transform="rotate(180,933.0,149.0)" width="32" x="917.0" y="125.0" /><rect fill="#900" height="48" stroke="#900" stroke-width="5" transform="rotate(180,805.0,245.0)" width="32" x="789.0" y="221.0" /><rect fill="#900" height="48" stroke="#900" stroke-width="5" transform="rotate(180,677.0,341.0)" width="32" x="661.0" y="317.0" /><rect fill="#900" height="48" stroke="#900" stroke-width="5" transform="rotate(180,933.0,341.0)" width="32" x="917.0" y="317.0" /><rect fill="#900" height="48" stroke="#900" stroke-width="5" transform="rotate(180,677.0,149.0)" width="32" x="661.0" y="125.0" /><circle cx="1189.0" cy="341.0" fill="#900" r="16" stroke="#900" stroke-width="5" /><circle cx="1189.0" cy="149.0" fill="#900" r="16" stroke="#900" stroke-width="5" /><circle cx="1125.0" cy="149.0" fill="#090" r="16" stroke="#090" stroke-width="5" /><circle cx="1125.0" cy="341.0" fill="#090" r="16" stroke="#090" stroke-width="5" /><circle cx="1125.0" cy="405.0" fill="#090" r="16" stroke="#090" stroke-width="5" /><circle cx="1125.0" cy="85.0" fill="#090" r="16" stroke="#090" stroke-width="5" /><circle cx="1189.0" cy="85.0" fill="#090" r="16" stroke="#090" stroke-width="5" /><circle cx="1189.0" cy="405.0" fill="#090" r="16" stroke="#090" stroke-width="5" /><circle cx="1285.0" cy="53.0" fill="#009" r="16" stroke="#009" stroke-width="5" /><circle cx="1285.0" cy="437.0" fill="#009" r="16" stroke="#009" stroke-width="5" /><circle cx="37.0" cy="437.0" fill="#090" r="16" stroke="#090" stroke-width="5" /><circle cx="229.0" cy="437.0" fill="#090" r="16" stroke="#090" stroke-width="5" /><circle cx="373.0" cy="53.0" fill="#090" r="16" stroke="#090" stroke-width="5" /><circle cx="181.0" cy="53.0" fill="#090" r="16" stroke="#090" stroke-width="5" /><circle cx="37.0" cy="53.0" fill="#090" r="16" stroke="#090" stroke-width="5" /></svg>