<?xml version="1.0" encoding="utf-8" ?>
<svg baseProfile="tiny" height="688" version="1.2" viewBox="0 0 5058 3402" width="1024" xmlns="http://www.w3.org/2000/svg" xmlns:ev="http://www.w3.org/2001/xml-events" xmlns:xlink="http://www.w3.org/1999/xlink"><defs /><line stroke="#333" stroke-width="10" x1="957.0" x2="2629.0" y1="493.0" y2="1541.0" /><line stroke="#333" stroke-width="10" x1="5053.0" x2="4029.0" y1="493.0" y2="493.0" /><line stroke="#333" stroke-width="10" x1="3525.0" x2="5053.0" y1="1541.0" y2="493.0" /><line stroke="#333" stroke-width="10" x1="2629.0" x2="1989.0" y1="1541.0" y2="1413.0" /><line stroke="#333" stroke-width="10" x1="3013.0" x2="3589.0" y1="2565.0" y2="1989.0" /><line stroke="#333" stroke-width="10" x1="1989.0" x2="1989.0" y1="1413.0" y2="1541.0" /><line stroke="#333" stroke-width="10" x1="4165.0" x2="3525.0" y1="1413.0" y2="1541.0" /><line stroke="#666" stroke-width="20" x1="3005.0" x2="2493.0" y1="493.0" y2="493.0" /><line stroke="#333" stroke-width="10" x1="1981.0" x2="957.0" y1="493.0" y2="493.0" /><line stroke="#333" stroke-width="10" x1="1989.0" x2="1989.0" y1="5.0" y2="261.0" /><line stroke="#333" stroke-width="10" x1="1989.0" x2="2501.0" y1="261.0" y2="261.0" /><line stroke="#333" stroke-width="10" x1="3013.0" x2="3013.0" y1="261.0" y2="133.0" /><line stroke="#333" stroke-width="10" x1="3013.0" x2="3013.0" y1="133.0" y2="5.0" /><line stroke="#333" stroke-width="10" x1="3013.0" x2="1989.0" y1="5.0" y2="5.0" /><line stroke="#333" stroke-width="10" x1="2493.0" x2="1981.0" y1="493.0" y2="493.0" /><line stroke="#666" stroke-width="20" x1="2501.0" x2="3013.0" y1="261.0" y2="261.0" /><line stroke="#333" stroke-width="10" x1="2501.0" x2="2493.0" y1="261.0" y2="493.0" /><line stroke="#333" stroke-width="10" x1="3005.0" x2="3013.0" y1="493.0" y2="261.0" /><line stroke="#666" stroke-width="20" x1="4029.0" x2="3517.0" y1="493.0" y2="493.0" /><line stroke="#333" stroke-width="10" x1="3517.0" x2="3005.0" y1="493.0" y2="493.0" /><line stroke="#333" stroke-width="10" x1="3525.0" x2="3525.0" y1="5.0" y2="261.0" /><line stroke="#666" stroke-width="20" x1="3525.0" x2="4037.0" y1="261.0" y2="261.0" /><line stroke="#333" stroke-width="10" x1="4037.0" x2="4549.0" y1="261.0" y2="133.0" /><line stroke="#333" stroke-width="10" x1="4037.0" x2="3525.0" y1="5.0" y2="5.0" /><line stroke="#333" stroke-width="10" x1="3525.0" x2="3517.0" y1="261.0" y2="493.0" /><line stroke="#333" stroke-width="10" x1="4029.0" x2="4037.0" y1="493.0" y2="261.0" /><line stroke="#333" stroke-width="10" x1="4549.0" x2="4037.0" y1="133.0" y2="5.0" /><line stroke="#333" stroke-width="10" x1="2501.0" x2="3013.0" y1="1989.0" y2="2565.0" /><line stroke="#333" stroke-width="10" x1="1989.0" x2="2501.0" y1="1669.0" y2="1989.0" /><line stroke="#333" stroke-width="10" x1="3589.0" x2="4165.0" y1="1989.0" y2="1669.0" /><line stroke="#666" stroke-width="20" x1="4165.0" x2="4165.0" y1="1669.0" y2="1541.0" /><line stroke="#333" stroke-width="10" x1="1477.0" x2="1477.0" y1="1413.0" y2="1669.0" /><line stroke="#999" stroke-width="3" x1="1477.0" x2="1669.0" y1="1669.0" y2="1669.0" /><line stroke="#666" stroke-width="20" x1="1861.0" x2="1861.0" y1="1669.0" y2="1541.0" /><line stroke="#333" stroke-width="10" x1="1861.0" x2="1477.0" y1="1413.0" y2="1413.0" /><line stroke="#333" stroke-width="10" x1="4293.0" x2="4293.0" y1="1413.0" y2="1541.0" /><line stroke="#333" stroke-width="10" x1="4293.0" x2="4677.0" y1="1669.0" y2="1669.0" /><line stroke="#333" stroke-width="10" x1="4677.0" x2="4677.0" y1="1669.0" y2="1413.0" /><line stroke="#333" stroke-width="10" x1="4677.0" x2="4293.0" y1="1413.0" y2="1413.0" /><line stroke="#666" stroke-width="20" x1="1989.0" x2="1989.0" y1="1541.0" y2="1669.0" /><line stroke="#333" stroke-width="10" x1="4165.0" x2="4165.0" y1="1541.0" y2="1413.0" /><line stroke="#333" stroke-width="10" x1="1861.0" x2="1861.0" y1="1541.0" y2="1413.0" /><line stroke="#666" stroke-width="20" x1="4293.0" x2="4293.0" y1="1541.0" y2="1669.0" /><line stroke="#333" stroke-width="10" x1="1989.0" x2="1861.0" y1="1541.0" y2="1541.0" /><line stroke="#333" stroke-width="10" x1="1861.0" x2="1989.0" y1="1669.0" y2="1669.0" /><line stroke="#333" stroke-width="10" x1="4165.0" x2="4293.0" y1="1669.0" y2="1669.0" /><line stroke="#333" stroke-width="10" x1="4293.0" x2="4165.0" y1="1541.0" y2="1541.0" /><line stroke="#333" stroke-width="10" x1="1669.0" x2="1861.0" y1="1669.0" y2="1669.0" /><line stroke="#333" stroke-width="10" x1="1477.0" x2="1157.0" y1="2693.0" y2="2821.0" /><line stroke="#333" stroke-width="10" x1="1157.0" x2="1637.0" y1="2949.0" y2="2949.0" /><line stroke="#333" stroke-width="10" x1="2117.0" x2="1797.0" y1="2949.0" y2="2693.0" /><line stroke="#333" stroke-width="10" x1="1797.0" x2="1669.0" y1="2693.0" y2="2693.0" /><line stroke="#999" stroke-width="3" x1="1669.0" x2="1477.0" y1="2693.0" y2="2693.0" /><line stroke="#333" stroke-width="10" x1="1477.0" x2="1477.0" y1="1669.0" y2="1733.0" /><line stroke="#999" stroke-width="3" x1="1477.0" x2="1669.0" y1="1733.0" y2="1733.0" /><line stroke="#333" stroke-width="10" x1="1669.0" x2="1669.0" y1="1733.0" y2="1669.0" /><line stroke="#333" stroke-width="10" x1="1477.0" x2="1477.0" y1="1733.0" y2="1797.0" /><line stroke="#999" stroke-width="3" x1="1477.0" x2="1669.0" y1="1797.0" y2="1797.0" /><line stroke="#333" stroke-width="10" x1="1669.0" x2="1669.0" y1="1797.0" y2="1733.0" /><line stroke="#333" stroke-width="10" x1="1477.0" x2="1477.0" y1="1797.0" y2="1861.0" /><line stroke="#999" stroke-width="3" x1="1477.0" x2="1669.0" y1="1861.0" y2="1861.0" /><line stroke="#333" stroke-width="10" x1="1669.0" x2="1669.0" y1="1861.0" y2="1797.0" /><line stroke="#333" stroke-width="10" x1="1477.0" x2="1477.0" y1="1861.0" y2="1925.0" /><line stroke="#999" stroke-width="3" x1="1477.0" x2="1669.0" y1="1925.0" y2="1925.0" /><line stroke="#333" stroke-width="10" x1="1669.0" x2="1669.0" y1="1925.0" y2="1861.0" /><line stroke="#333" stroke-width="10" x1="1477.0" x2="1477.0" y1="1925.0" y2="1989.0" /><line stroke="#999" stroke-width="3" x1="1477.0" x2="1669.0" y1="1989.0" y2="1989.0" /><line stroke="#333" stroke-width="10" x1="1669.0" x2="1669.0" y1="1989.0" y2="1925.0" /><line stroke="#333" stroke-width="10" x1="1477.0" x2="1477.0" y1="1989.0" y2="2053.0" /><line stroke="#999" stroke-width="3" x1="1477.0" x2="1669.0" y1="2053.0" y2="2053.0" /><line stroke="#333" stroke-width="10" x1="1669.0" x2="1669.0" y1="2053.0" y2="1989.0" /><line stroke="#333" stroke-width="10" x1="1477.0" x2="1477.0" y1="2053.0" y2="2117.0" /><line stroke="#999" stroke-width="3" x1="1477.0" x2="1669.0" y1="2117.0" y2="2117.0" /><line stroke="#333" stroke-width="10" x1="1669.0" x2="1669.0" y1="2117.0" y2="2053.0" /><line stroke="#333" stroke-width="10" x1="1477.0" x2="1477.0" y1="2117.0" y2="2181.0" /><line stroke="#999" stroke-width="3" x1="1477.0" x2="1669.0" y1="2181.0" y2="2181.0" /><line stroke="#333" stroke-width="10" x1="1669.0" x2="1669.0" y1="2181.0" y2="2117.0" /><line stroke="#333" stroke-width="10" x1="1477.0" x2="1477.0" y1="2181.0" y2="2245.0" /><line stroke="#999" stroke-width="3" x1="1477.0" x2="1669.0" y1="2245.0" y2="2245.0" /><line stroke="#333" stroke-width="10" x1="1669.0" x2="1669.0" y1="2245.0" y2="2181.0" /><line stroke="#333" stroke-width="10" x1="1477.0" x2="1477.0" y1="2245.0" y2="2309.0" /><line stroke="#999" stroke-width="3" x1="1477.0" x2="1669.0" y1="2309.0" y2="2309.0" /><line stroke="#333" stroke-width="10" x1="1669.0" x2="1669.0" y1="2309.0" y2="2245.0" /><line stroke="#333" stroke-width="10" x1="1477.0" x2="1477.0" y1="2309.0" y2="2373.0" /><line stroke="#999" stroke-width="3" x1="1477.0" x2="1669.0" y1="2373.0" y2="2373.0" /><line stroke="#333" stroke-width="10" x1="1669.0" x2="1669.0" y1="2373.0" y2="2309.0" /><line stroke="#333" stroke-width="10" x1="1477.0" x2="1477.0" y1="2373.0" y2="2437.0" /><line stroke="#999" stroke-width="3" x1="1477.0" x2="1669.0" y1="2437.0" y2="2437.0" /><line stroke="#333" stroke-width="10" x1="1669.0" x2="1669.0" y1="2437.0" y2="2373.0" /><line stroke="#333" stroke-width="10" x1="1477.0" x2="1477.0" y1="2437.0" y2="2501.0" /><line stroke="#999" stroke-width="3" x1="1477.0" x2="1669.0" y1="2501.0" y2="2501.0" /><line stroke="#333" stroke-width="10" x1="1669.0" x2="1669.0" y1="2501.0" y2="2437.0" /><line stroke="#333" stroke-width="10" x1="1477.0" x2="1477.0" y1="2501.0" y2="2565.0" /><line stroke="#999" stroke-width="3" x1="1477.0" x2="1669.0" y1="2565.0" y2="2565.0" /><line stroke="#333" stroke-width="10" x1="1669.0" x2="1669.0" y1="2565.0" y2="2501.0" /><line stroke="#333" stroke-width="10" x1="1477.0" x2="1477.0" y1="2565.0" y2="2629.0" /><line stroke="#999" stroke-width="3" x1="1477.0" x2="1669.0" y1="2629.0" y2="2629.0" /><line stroke="#333" stroke-width="10" x1="1669.0" x2="1669.0" y1="2629.0" y2="2565.0" /><line stroke="#333" stroke-width="10" x1="1477.0" x2="1477.0" y1="2629.0" y2="2693.0" /><line stroke="#333" stroke-width="10" x1="1669.0" x2="1669.0" y1="2693.0" y2="2629.0" /><line stroke="#333" stroke-width="10" x1="1637.0" x2="1877.0" y1="2949.0" y2="2949.0" /><line stroke="#333" stroke-width="10" x1="1877.0" x2="1997.0" y1="2949.0" y2="2949.0" /><line stroke="#333" stroke-width="10" x1="1997.0" x2="2117.0" y1="2949.0" y2="2949.0" /><line stroke="#333" stroke-width="10" x1="2949.0" x2="2949.0" y1="2181.0" y2="2309.0" /><line stroke="#333" stroke-width="10" x1="2949.0" x2="3077.0" y1="2309.0" y2="2309.0" /><line stroke="#333" stroke-width="10" x1="3077.0" x2="3077.0" y1="2309.0" y2="2181.0" /><line stroke="#333" stroke-width="10" x1="3077.0" x2="2949.0" y1="2181.0" y2="2181.0" /><line stroke="#666" stroke-width="20" x1="1157.0" x2="1157.0" y1="2821.0" y2="2949.0" /><line stroke="#333" stroke-width="10" x1="965.0" x2="965.0" y1="2821.0" y2="2949.0" /><line stroke="#333" stroke-width="10" x1="965.0" x2="1093.0" y1="2949.0" y2="2949.0" /><line stroke="#666" stroke-width="20" x1="1093.0" x2="1093.0" y1="2949.0" y2="2821.0" /><line stroke="#666" stroke-width="20" x1="1093.0" x2="965.0" y1="2821.0" y2="2821.0" /><line stroke="#333" stroke-width="10" x1="1093.0" x2="1157.0" y1="2949.0" y2="2949.0" /><line stroke="#333" stroke-width="10" x1="1157.0" x2="1093.0" y1="2821.0" y2="2821.0" /><line stroke="#666" stroke-width="20" x1="645.0" x2="645.0" y1="2181.0" y2="2245.0" /><line stroke="#666" stroke-width="20" x1="645.0" x2="1413.0" y1="2245.0" y2="2245.0" /><line stroke="#333" stroke-width="10" x1="1413.0" x2="1413.0" y1="2245.0" y2="2181.0" /><line stroke="#333" stroke-width="10" x1="1413.0" x2="645.0" y1="2181.0" y2="2181.0" /><line stroke="#333" stroke-width="10" x1="645.0" x2="965.0" y1="2245.0" y2="2821.0" /><line stroke="#333" stroke-width="10" x1="1093.0" x2="1413.0" y1="2821.0" y2="2245.0" /><line stroke="#333" stroke-width="10" x1="453.0" x2="453.0" y1="2181.0" y2="2245.0" /><line stroke="#333" stroke-width="10" x1="453.0" x2="453.0" y1="2245.0" y2="2373.0" /><line stroke="#666" stroke-width="20" x1="453.0" x2="517.0" y1="2373.0" y2="2373.0" /><line stroke="#333" stroke-width="10" x1="517.0" x2="517.0" y1="2373.0" y2="2245.0" /><line stroke="#333" stroke-width="10" x1="517.0" x2="581.0" y1="2245.0" y2="2245.0" /><line stroke="#666" stroke-width="20" x1="581.0" x2="581.0" y1="2245.0" y2="2181.0" /><line stroke="#333" stroke-width="10" x1="581.0" x2="453.0" y1="2181.0" y2="2181.0" /><line stroke="#333" stroke-width="10" x1="581.0" x2="645.0" y1="2245.0" y2="2245.0" /><line stroke="#333" stroke-width="10" x1="645.0" x2="581.0" y1="2181.0" y2="2181.0" /><line stroke="#333" stroke-width="10" x1="453.0" x2="453.0" y1="2437.0" y2="2501.0" /><line stroke="#333" stroke-width="10" x1="581.0" x2="581.0" y1="2757.0" y2="2693.0" /><line stroke="#333" stroke-width="10" x1="581.0" x2="261.0" y1="2629.0" y2="2629.0" /><line stroke="#666" stroke-width="20" x1="517.0" x2="453.0" y1="2437.0" y2="2437.0" /><line stroke="#333" stroke-width="10" x1="453.0" x2="453.0" y1="2373.0" y2="2437.0" /><line stroke="#333" stroke-width="10" x1="517.0" x2="517.0" y1="2437.0" y2="2373.0" /><line stroke="#333" stroke-width="10" x1="645.0" x2="581.0" y1="2565.0" y2="2565.0" /><line stroke="#333" stroke-width="10" x1="581.0" x2="581.0" y1="2565.0" y2="2629.0" /><line stroke="#333" stroke-width="10" x1="645.0" x2="645.0" y1="2693.0" y2="2565.0" /><line stroke="#333" stroke-width="10" x1="197.0" x2="197.0" y1="2501.0" y2="2693.0" /><line stroke="#333" stroke-width="10" x1="197.0" x2="325.0" y1="2693.0" y2="2693.0" /><line stroke="#333" stroke-width="10" x1="453.0" x2="197.0" y1="2501.0" y2="2501.0" /><line stroke="#333" stroke-width="10" x1="261.0" x2="517.0" y1="2565.0" y2="2565.0" /><line stroke="#333" stroke-width="10" x1="517.0" x2="517.0" y1="2565.0" y2="2437.0" /><line stroke="#333" stroke-width="10" x1="261.0" x2="261.0" y1="2629.0" y2="2565.0" /><line stroke="#333" stroke-width="10" x1="581.0" x2="645.0" y1="2693.0" y2="2693.0" /><line stroke="#333" stroke-width="10" x1="517.0" x2="517.0" y1="2757.0" y2="2821.0" /><line stroke="#333" stroke-width="10" x1="901.0" x2="901.0" y1="3077.0" y2="2949.0" /><line stroke="#333" stroke-width="10" x1="517.0" x2="517.0" y1="2693.0" y2="2757.0" /><line stroke="#333" stroke-width="10" x1="709.0" x2="709.0" y1="2565.0" y2="2757.0" /><line stroke="#333" stroke-width="10" x1="709.0" x2="581.0" y1="2757.0" y2="2757.0" /><line stroke="#333" stroke-width="10" x1="773.0" x2="709.0" y1="2565.0" y2="2565.0" /><line stroke="#333" stroke-width="10" x1="709.0" x2="709.0" y1="2821.0" y2="2885.0" /><line stroke="#333" stroke-width="10" x1="837.0" x2="837.0" y1="3013.0" y2="3141.0" /><line stroke="#333" stroke-width="10" x1="517.0" x2="709.0" y1="2821.0" y2="2821.0" /><line stroke="#333" stroke-width="10" x1="261.0" x2="261.0" y1="2757.0" y2="2821.0" /><line stroke="#333" stroke-width="10" x1="389.0" x2="389.0" y1="2821.0" y2="2693.0" /><line stroke="#333" stroke-width="10" x1="389.0" x2="517.0" y1="2693.0" y2="2693.0" /><line stroke="#333" stroke-width="10" x1="325.0" x2="325.0" y1="2693.0" y2="2757.0" /><line stroke="#333" stroke-width="10" x1="325.0" x2="261.0" y1="2757.0" y2="2757.0" /><line stroke="#333" stroke-width="10" x1="709.0" x2="773.0" y1="3077.0" y2="3077.0" /><line stroke="#333" stroke-width="10" x1="773.0" x2="773.0" y1="3077.0" y2="3013.0" /><line stroke="#333" stroke-width="10" x1="773.0" x2="837.0" y1="3013.0" y2="3013.0" /><line stroke="#333" stroke-width="10" x1="709.0" x2="581.0" y1="2885.0" y2="2885.0" /><line stroke="#333" stroke-width="10" x1="581.0" x2="581.0" y1="2885.0" y2="3013.0" /><line stroke="#333" stroke-width="10" x1="965.0" x2="965.0" y1="3141.0" y2="3077.0" /><line stroke="#333" stroke-width="10" x1="965.0" x2="901.0" y1="3077.0" y2="3077.0" /><line stroke="#333" stroke-width="10" x1="837.0" x2="965.0" y1="3141.0" y2="3141.0" /><line stroke="#333" stroke-width="10" x1="901.0" x2="773.0" y1="2949.0" y2="2949.0" /><line stroke="#333" stroke-width="10" x1="773.0" x2="773.0" y1="2949.0" y2="2693.0" /><line stroke="#333" stroke-width="10" x1="261.0" x2="389.0" y1="2821.0" y2="2821.0" /><line stroke="#333" stroke-width="10" x1="837.0" x2="773.0" y1="2629.0" y2="2629.0" /><line stroke="#333" stroke-width="10" x1="773.0" x2="773.0" y1="2629.0" y2="2565.0" /><line stroke="#333" stroke-width="10" x1="773.0" x2="837.0" y1="2693.0" y2="2693.0" /><line stroke="#333" stroke-width="10" x1="837.0" x2="837.0" y1="2693.0" y2="2629.0" /><line stroke="#333" stroke-width="10" x1="645.0" x2="709.0" y1="2949.0" y2="2949.0" /><line stroke="#333" stroke-width="10" x1="709.0" x2="709.0" y1="2949.0" y2="3077.0" /><line stroke="#333" stroke-width="10" x1="709.0" x2="517.0" y1="3141.0" y2="3141.0" /><line stroke="#333" stroke-width="10" x1="645.0" x2="645.0" y1="3205.0" y2="3269.0" /><line stroke="#333" stroke-width="10" x1="773.0" x2="773.0" y1="3269.0" y2="3333.0" /><line stroke="#333" stroke-width="10" x1="773.0" x2="837.0" y1="3333.0" y2="3333.0" /><line stroke="#333" stroke-width="10" x1="645.0" x2="709.0" y1="3269.0" y2="3269.0" /><line stroke="#333" stroke-width="10" x1="453.0" x2="389.0" y1="2949.0" y2="2949.0" /><line stroke="#333" stroke-width="10" x1="453.0" x2="517.0" y1="3205.0" y2="3205.0" /><line stroke="#333" stroke-width="10" x1="581.0" x2="453.0" y1="3013.0" y2="3013.0" /><line stroke="#333" stroke-width="10" x1="517.0" x2="645.0" y1="3077.0" y2="3077.0" /><line stroke="#333" stroke-width="10" x1="645.0" x2="645.0" y1="3077.0" y2="2949.0" /><line stroke="#333" stroke-width="10" x1="517.0" x2="517.0" y1="3141.0" y2="3077.0" /><line stroke="#333" stroke-width="10" x1="709.0" x2="773.0" y1="3269.0" y2="3269.0" /><line stroke="#333" stroke-width="10" x1="901.0" x2="709.0" y1="3205.0" y2="3205.0" /><line stroke="#333" stroke-width="10" x1="709.0" x2="709.0" y1="3205.0" y2="3141.0" /><line stroke="#333" stroke-width="10" x1="901.0" x2="901.0" y1="3269.0" y2="3205.0" /><line stroke="#333" stroke-width="10" x1="389.0" x2="453.0" y1="3077.0" y2="3077.0" /><line stroke="#333" stroke-width="10" x1="453.0" x2="453.0" y1="3077.0" y2="3205.0" /><line stroke="#333" stroke-width="10" x1="325.0" x2="325.0" y1="3205.0" y2="3333.0" /><line stroke="#333" stroke-width="10" x1="581.0" x2="581.0" y1="3333.0" y2="3205.0" /><line stroke="#333" stroke-width="10" x1="581.0" x2="645.0" y1="3205.0" y2="3205.0" /><line stroke="#333" stroke-width="10" x1="517.0" x2="517.0" y1="3205.0" y2="3333.0" /><line stroke="#333" stroke-width="10" x1="517.0" x2="581.0" y1="3333.0" y2="3333.0" /><line stroke="#333" stroke-width="10" x1="837.0" x2="837.0" y1="3333.0" y2="3269.0" /><line stroke="#333" stroke-width="10" x1="837.0" x2="901.0" y1="3269.0" y2="3269.0" /><line stroke="#333" stroke-width="10" x1="389.0" x2="389.0" y1="3269.0" y2="3077.0" /><line stroke="#333" stroke-width="10" x1="389.0" x2="325.0" y1="3013.0" y2="3013.0" /><line stroke="#333" stroke-width="10" x1="325.0" x2="325.0" y1="3013.0" y2="3141.0" /><line stroke="#333" stroke-width="10" x1="389.0" x2="389.0" y1="2949.0" y2="3013.0" /><line stroke="#333" stroke-width="10" x1="453.0" x2="453.0" y1="3013.0" y2="2949.0" /><line stroke="#333" stroke-width="10" x1="69.0" x2="5.0" y1="3013.0" y2="3013.0" /><line stroke="#333" stroke-width="10" x1="197.0" x2="197.0" y1="3205.0" y2="3269.0" /><line stroke="#333" stroke-width="10" x1="133.0" x2="133.0" y1="3141.0" y2="2949.0" /><line stroke="#333" stroke-width="10" x1="69.0" x2="69.0" y1="2885.0" y2="3013.0" /><line stroke="#333" stroke-width="10" x1="325.0" x2="133.0" y1="3141.0" y2="3141.0" /><line stroke="#333" stroke-width="10" x1="69.0" x2="197.0" y1="3205.0" y2="3205.0" /><line stroke="#333" stroke-width="10" x1="197.0" x2="197.0" y1="3333.0" y2="3397.0" /><line stroke="#333" stroke-width="10" x1="453.0" x2="453.0" y1="3333.0" y2="3269.0" /><line stroke="#333" stroke-width="10" x1="453.0" x2="389.0" y1="3269.0" y2="3269.0" /><line stroke="#333" stroke-width="10" x1="325.0" x2="453.0" y1="3333.0" y2="3333.0" /><line stroke="#333" stroke-width="10" x1="261.0" x2="261.0" y1="3397.0" y2="3205.0" /><line stroke="#333" stroke-width="10" x1="261.0" x2="325.0" y1="3205.0" y2="3205.0" /><line stroke="#333" stroke-width="10" x1="197.0" x2="261.0" y1="3397.0" y2="3397.0" /><line stroke="#333" stroke-width="10" x1="69.0" x2="69.0" y1="3269.0" y2="3333.0" /><line stroke="#333" stroke-width="10" x1="69.0" x2="197.0" y1="3333.0" y2="3333.0" /><line stroke="#333" stroke-width="10" x1="197.0" x2="69.0" y1="3269.0" y2="3269.0" /><line stroke="#333" stroke-width="10" x1="5.0" x2="69.0" y1="3077.0" y2="3077.0" /><line stroke="#333" stroke-width="10" x1="69.0" x2="69.0" y1="3077.0" y2="3205.0" /><line stroke="#333" stroke-width="10" x1="5.0" x2="5.0" y1="3013.0" y2="3077.0" /><line stroke="#666" stroke-width="20" x1="197.0" x2="197.0" y1="2949.0" y2="2885.0" /><line stroke="#333" stroke-width="10" x1="197.0" x2="69.0" y1="2885.0" y2="2885.0" /><line stroke="#333" stroke-width="10" x1="133.0" x2="197.0" y1="2949.0" y2="2949.0" /><line stroke="#333" stroke-width="10" x1="325.0" x2="261.0" y1="2885.0" y2="2885.0" /><line stroke="#666" stroke-width="20" x1="261.0" x2="261.0" y1="2885.0" y2="2949.0" /><line stroke="#333" stroke-width="10" x1="261.0" x2="325.0" y1="2949.0" y2="2949.0" /><line stroke="#0d0" stroke-width="20" x1="325.0" x2="325.0" y1="2949.0" y2="2885.0" /><line stroke="#333" stroke-width="10" x1="197.0" x2="261.0" y1="2949.0" y2="2949.0" /><line stroke="#333" stroke-width="10" x1="261.0" x2="197.0" y1="2885.0" y2="2885.0" /><ellipse cx="3013.0" cy="765.0" fill="#009" rx="12" ry="24" stroke="#009" stroke-width="5" /><rect fill="#900" height="48" stroke="#900" stroke-width="5" transform="rotate(90,2885.0,1157.0)" width="32" x="2869.0" y="1133.0" /><rect fill="#900" height="48" stroke="#900" stroke-width="5" transform="rotate(90,3013.0,1157.0)" width="32" x="2997.0" y="1133.0" /><rect fill="#900" height="48" stroke="#900" stroke-width="5" transform="rotate(90,3141.0,1157.0)" width="32" x="3125.0" y="1133.0" /><rect fill="#900" height="48" stroke="#900" stroke-width="5" transform="rotate(90,2885.0,1285.0)" width="32" x="2869.0" y="1261.0" /><rect fill="#900" height="48" stroke="#900" stroke-width="5" transform="rotate(90,3141.0,1285.0)" width="32" x="3125.0" y="1261.0" /><rect fill="#900" height="48" stroke="#900" stroke-width="5" transform="rotate(90,3013.0,1285.0)" width="32" x="2997.0" y="1261.0" /><ellipse cx="3013.0" cy="1093.0" fill="#900" rx="12" ry="24" stroke="#900" stroke-width="5" /><ellipse cx="2885.0" cy="1093.0" fill="#900" rx="12" ry="24" stroke="#900" stroke-width="5" /><ellipse cx="2821.0" cy="1093.0" fill="#900" rx="12" ry="24" stroke="#900" stroke-width="5" /><ellipse cx="2821.0" cy="1157.0" fill="#900" rx="12" ry="24" stroke="#900" stroke-width="5" /><ellipse cx="2821.0" cy="1285.0" fill="#900" rx="12" ry="24" stroke="#900" stroke-width="5" /><ellipse cx="2821.0" cy="1349.0" fill="#900" rx="12" ry="24" stroke="#900" stroke-width="5" /><ellipse cx="2885.0" cy="1349.0" fill="#900" rx="12" ry="24" stroke="#900" stroke-width="5" /><ellipse cx="3013.0" cy="1349.0" fill="#900" rx="12" ry="24" stroke="#900" stroke-width="5" /><ellipse cx="3141.0" cy="1349.0" fill="#900" rx="12" ry="24" stroke="#900" stroke-width="5" /><ellipse cx="3205.0" cy="1349.0" fill="#900" rx="12" ry="24" stroke="#900" stroke-width="5" /><ellipse cx="3205.0" cy="1285.0" fill="#900" rx="12" ry="24" stroke="#900" stroke-width="5" /><ellipse cx="3205.0" cy="1157.0" fill="#900" rx="12" ry="24" stroke="#900" stroke-width="5" /><ellipse cx="3205.0" cy="1093.0" fill="#900" rx="12" ry="24" stroke="#900" stroke-width="5" /><ellipse cx="3141.0" cy="1093.0" fill="#900" rx="12" ry="24" stroke="#900" stroke-width="5" /><circle cx="2939.0" cy="842.0" fill="#090" r="16" stroke="#090" stroke-width="5" /><circle cx="3014.0" cy="842.0" fill="#900" r="16" stroke="#900" stroke-width="5" /><circle cx="3141.0" cy="1029.0" fill="#090" r="16" stroke="#090" stroke-width="5" /><circle cx="3141.0" cy="1029.0" fill="#090" r="16" stroke="#090" stroke-width="5" /><circle cx="3090.0" cy="842.0" fill="#090" r="16" stroke="#090" stroke-width="5" /><rect fill="#900" height="48" stroke="#900" stroke-width="5" transform="rotate(45,2220.0,1532.0)" width="32" x="2204.0" y="1508.0" /><rect fill="#900" height="48" stroke="#900" stroke-width="5" transform="rotate(45,2309.0,1525.0)" width="32" x="2293.0" y="1501.0" /><circle cx="3965.0" cy="1509.0" fill="#900" r="16" stroke="#900" stroke-width="5" /><rect fill="#900" height="48" stroke="#900" stroke-width="5" transform="rotate(135,3909.0,1541.0)" width="32" x="3893.0" y="1517.0" /><rect fill="#900" height="48" stroke="#900" stroke-width="5" transform="rotate(0,1661.0,1581.0)" width="32" x="1645.0" y="1557.0" /><circle cx="4037.0" cy="133.0" fill="#900" r="16" stroke="#900" stroke-width="5" /><circle cx="4165.0" cy="133.0" fill="#009" r="16" stroke="#009" stroke-width="5" /><circle cx="4293.0" cy="133.0" fill="#009" r="16" stroke="#009" stroke-width="5" /><rect fill="#900" height="48" stroke="#900" stroke-width="5" transform="rotate(0,2365.0,133.0)" width="32" x="2349.0" y="109.0" /><rect fill="#900" height="48" stroke="#900" stroke-width="5" transform="rotate(180,4453.0,1485.0)" width="32" x="4437.0" y="1461.0" /><circle cx="2157.0" cy="1501.0" fill="#090" r="16" stroke="#090" stroke-width="5" /><rect fill="#900" height="48" stroke="#900" stroke-width="5" transform="rotate(135,3813.0,1549.0)" width="32" x="3797.0" y="1525.0" /><rect fill="#900" height="48" stroke="#900" stroke-width="5" transform="rotate(135,3869.0,1613.0)" width="32" x="3853.0" y="1589.0" /><rect fill="#900" height="48" stroke="#900" stroke-width="5" transform="rotate(45,2259.0,1588.0)" width="32" x="2243.0" y="1564.0" /><circle cx="2067.0" cy="202.0" fill="#090" r="16" stroke="#090" stroke-width="5" /><circle cx="2061.0" cy="85.0" fill="#090" r="16" stroke="#090" stroke-width="5" /><circle cx="2142.0" cy="197.0" fill="#090" r="16" stroke="#090" stroke-width="5" /><circle cx="2142.0" cy="80.0" fill="#090" r="16" stroke="#090" stroke-width="5" /><rect fill="#900" height="48" stroke="#900" stroke-width="5" transform="rotate(0,2245.0,189.0)" width="32" x="2229.0" y="165.0" /><rect fill="#900" height="48" stroke="#900" stroke-width="5" transform="rotate(0,2237.0,90.0)" width="32" x="2221.0" y="66.0" /><rect fill="#900" height="48" stroke="#900" stroke-width="5" transform="rotate(0,1651.0,1487.0)" width="32" x="1635.0" y="1463.0" /><rect fill="#900" height="48" stroke="#900" stroke-width="5" transform="rotate(180,4449.0,1599.0)" width="32" x="4433.0" y="1575.0" /><rect fill="#900" height="48" stroke="#900" stroke-width="5" transform="rotate(180,1755.0,2732.0)" width="32" x="1739.0" y="2708.0" /><rect fill="#900" height="48" stroke="#900" stroke-width="5" transform="rotate(180,1781.0,2725.0)" width="32" x="1765.0" y="2701.0" /><rect fill="#900" height="48" stroke="#900" stroke-width="5" transform="rotate(180,1718.0,2732.0)" width="32" x="1702.0" y="2708.0" /><rect fill="#900" height="48" stroke="#900" stroke-width="5" transform="rotate(180,1741.0,2765.0)" width="32" x="1725.0" y="2741.0" /><rect fill="#900" height="48" stroke="#900" stroke-width="5" transform="rotate(180,1791.0,2775.0)" width="32" x="1775.0" y="2751.0" /><circle cx="2014.0" cy="2912.0" fill="#009" r="16" stroke="#009" stroke-width="5" /><circle cx="1005.0" cy="2909.0" fill="#090" r="16" stroke="#090" stroke-width="5" /><circle cx="1042.0" cy="2872.0" fill="#090" r="16" stroke="#090" stroke-width="5" /><rect fill="#900" height="48" stroke="#900" stroke-width="5" transform="rotate(90,701.0,2205.0)" width="32" x="685.0" y="2181.0" /><rect fill="#900" height="48" stroke="#900" stroke-width="5" transform="rotate(90,773.0,2197.0)" width="32" x="757.0" y="2173.0" /><rect fill="#900" height="48" stroke="#900" stroke-width="5" transform="rotate(90,831.0,2215.0)" width="32" x="815.0" y="2191.0" /><rect fill="#900" height="48" stroke="#900" stroke-width="5" transform="rotate(90,894.0,2203.0)" width="32" x="878.0" y="2179.0" /><rect fill="#900" height="48" stroke="#900" stroke-width="5" transform="rotate(90,962.0,2209.0)" width="32" x="946.0" y="2185.0" /><rect fill="#900" height="48" stroke="#900" stroke-width="5" transform="rotate(90,1019.0,2209.0)" width="32" x="1003.0" y="2185.0" /><rect fill="#900" height="48" stroke="#900" stroke-width="5" transform="rotate(90,1088.0,2209.0)" width="32" x="1072.0" y="2185.0" /><rect fill="#900" height="48" stroke="#900" stroke-width="5" transform="rotate(90,1151.0,2203.0)" width="32" x="1135.0" y="2179.0" /><rect fill="#900" height="48" stroke="#900" stroke-width="5" transform="rotate(90,1214.0,2209.0)" width="32" x="1198.0" y="2185.0" /><rect fill="#900" height="48" stroke="#900" stroke-width="5" transform="rotate(90,1261.0,2189.0)" width="32" x="1245.0" y="2165.0" /><rect fill="#900" height="48" stroke="#900" stroke-width="5" transform="rotate(90,1325.0,2213.0)" width="32" x="1309.0" y="2189.0" /><ellipse cx="2949.0" cy="1093.0" fill="#900" rx="12" ry="24" stroke="#900" stroke-width="5" /><ellipse cx="3077.0" cy="1093.0" fill="#900" rx="12" ry="24" stroke="#900" stroke-width="5" /><ellipse cx="3205.0" cy="1221.0" fill="#900" rx="12" ry="24" stroke="#900" stroke-width="5" /><ellipse cx="2821.0" cy="1221.0" fill="#900" rx="12" ry="24" stroke="#900" stroke-width="5" /><ellipse cx="2946.0" cy="1345.0" fill="#900" rx="12" ry="24" stroke="#900" stroke-width="5" /><ellipse cx="3077.0" cy="1349.0" fill="#900" rx="12" ry="24" stroke="#900" stroke-width="5" /><rect fill="#900" height="48" stroke="#900" stroke-width="5" transform="rotate(0,410.0,2533.0)" width="32" x="394.0" y="2509.0" /><rect fill="#900" height="48" stroke="#900" stroke-width="5" transform="rotate(270,245.0,2605.0)" width="32" x="229.0" y="2581.0" /><rect fill="#900" height="48" stroke="#900" stroke-width="5" transform="rotate(0,285.0,2773.0)" width="32" x="269.0" y="2749.0" /><rect fill="#900" height="48" stroke="#900" stroke-width="5" transform="rotate(270,341.0,2733.0)" width="32" x="325.0" y="2709.0" /><rect fill="#900" height="48" stroke="#900" stroke-width="5" transform="rotate(90,597.0,2589.0)" width="32" x="581.0" y="2565.0" /><rect fill="#900" height="48" stroke="#900" stroke-width="5" transform="rotate(270,533.0,2757.0)" width="32" x="517.0" y="2733.0" /><rect fill="#900" height="48" stroke="#900" stroke-width="5" transform="rotate(180,813.0,2669.0)" width="32" x="797.0" y="2645.0" /><rect fill="#900" height="48" stroke="#900" stroke-width="5" transform="rotate(180,941.0,3101.0)" width="32" x="925.0" y="3077.0" /><rect fill="#900" height="48" stroke="#900" stroke-width="5" transform="rotate(180,869.0,2973.0)" width="32" x="853.0" y="2949.0" /><rect fill="#900" height="48" stroke="#900" stroke-width="5" transform="rotate(0,562.0,3033.0)" width="32" x="546.0" y="3009.0" /><rect fill="#900" height="48" stroke="#900" stroke-width="5" transform="rotate(270,789.0,3309.0)" width="32" x="773.0" y="3285.0" /><rect fill="#900" height="48" stroke="#900" stroke-width="5" transform="rotate(180,731.0,3229.0)" width="32" x="715.0" y="3205.0" /><rect fill="#900" height="48" stroke="#900" stroke-width="5" transform="rotate(270,541.0,3309.0)" width="32" x="525.0" y="3285.0" /><rect fill="#900" height="48" stroke="#900" stroke-width="5" transform="rotate(90,437.0,2973.0)" width="32" x="421.0" y="2949.0" /><rect fill="#900" height="48" stroke="#900" stroke-width="5" transform="rotate(180,429.0,3293.0)" width="32" x="413.0" y="3269.0" /><rect fill="#900" height="48" stroke="#900" stroke-width="5" transform="rotate(0,97.0,3287.0)" width="32" x="81.0" y="3263.0" /><rect fill="#900" height="48" stroke="#900" stroke-width="5" transform="rotate(270,221.0,3365.0)" width="32" x="205.0" y="3341.0" /><rect fill="#900" height="48" stroke="#900" stroke-width="5" transform="rotate(0,21.0,3053.0)" width="32" x="5.0" y="3029.0" /></svg>