<?xml version="1.0" encoding="utf-8" ?>
<svg baseProfile="tiny" height="1024" version="1.2" viewBox="0 0 1546 2250" width="703" xmlns="http://www.w3.org/2000/svg" xmlns:ev="http://www.w3.org/2001/xml-events" xmlns:xlink="http://www.w3.org/1999/xlink"><defs /><line stroke="#333" stroke-width="10" x1="229.0" x2="293.0" y1="1541.0" y2="1541.0" /><line stroke="#333" stroke-width="10" x1="1253.0" x2="1253.0" y1="1541.0" y2="1477.0" /><line stroke="#333" stroke-width="10" x1="1253.0" x2="1189.0" y1="1157.0" y2="1157.0" /><line stroke="#333" stroke-width="10" x1="229.0" x2="229.0" y1="1157.0" y2="1221.0" /><line stroke="#999" stroke-width="3" x1="357.0" x2="293.0" y1="1605.0" y2="1605.0" /><line stroke="#333" stroke-width="10" x1="293.0" x2="293.0" y1="1541.0" y2="1565.0" /><line stroke="#333" stroke-width="10" x1="613.0" x2="741.0" y1="1861.0" y2="1861.0" /><line stroke="#333" stroke-width="10" x1="357.0" x2="357.0" y1="1605.0" y2="1581.0" /><line stroke="#333" stroke-width="10" x1="293.0" x2="293.0" y1="1861.0" y2="1797.0" /><line stroke="#333" stroke-width="10" x1="293.0" x2="37.0" y1="1605.0" y2="1605.0" /><line stroke="#333" stroke-width="10" x1="37.0" x2="37.0" y1="1605.0" y2="1701.0" /><line stroke="#333" stroke-width="10" x1="37.0" x2="293.0" y1="1861.0" y2="1861.0" /><line stroke="#999" stroke-width="3" x1="613.0" x2="677.0" y1="1541.0" y2="1541.0" /><line stroke="#333" stroke-width="10" x1="613.0" x2="613.0" y1="1541.0" y2="1565.0" /><line stroke="#333" stroke-width="10" x1="613.0" x2="549.0" y1="1669.0" y2="1669.0" /><line stroke="#333" stroke-width="10" x1="421.0" x2="421.0" y1="1669.0" y2="1861.0" /><line stroke="#333" stroke-width="10" x1="421.0" x2="101.0" y1="1925.0" y2="1925.0" /><line stroke="#333" stroke-width="10" x1="101.0" x2="101.0" y1="1925.0" y2="2117.0" /><line stroke="#333" stroke-width="10" x1="101.0" x2="357.0" y1="2117.0" y2="2117.0" /><line stroke="#333" stroke-width="10" x1="357.0" x2="357.0" y1="2117.0" y2="2245.0" /><line stroke="#333" stroke-width="10" x1="357.0" x2="869.0" y1="2245.0" y2="2245.0" /><line stroke="#333" stroke-width="10" x1="869.0" x2="869.0" y1="2245.0" y2="2117.0" /><line stroke="#333" stroke-width="10" x1="869.0" x2="805.0" y1="1925.0" y2="1925.0" /><line stroke="#333" stroke-width="10" x1="613.0" x2="613.0" y1="1989.0" y2="1861.0" /><line stroke="#333" stroke-width="10" x1="357.0" x2="613.0" y1="1541.0" y2="1541.0" /><line stroke="#333" stroke-width="10" x1="677.0" x2="805.0" y1="1541.0" y2="1541.0" /><line stroke="#333" stroke-width="10" x1="741.0" x2="741.0" y1="1861.0" y2="1669.0" /><line stroke="#999" stroke-width="3" x1="805.0" x2="869.0" y1="1541.0" y2="1541.0" /><line stroke="#333" stroke-width="10" x1="805.0" x2="805.0" y1="1541.0" y2="1565.0" /><line stroke="#333" stroke-width="10" x1="805.0" x2="933.0" y1="1861.0" y2="1861.0" /><line stroke="#333" stroke-width="10" x1="933.0" x2="933.0" y1="1861.0" y2="2181.0" /><line stroke="#333" stroke-width="10" x1="933.0" x2="1061.0" y1="2181.0" y2="2181.0" /><line stroke="#333" stroke-width="10" x1="1189.0" x2="1189.0" y1="2181.0" y2="2053.0" /><line stroke="#333" stroke-width="10" x1="1189.0" x2="1253.0" y1="2053.0" y2="2053.0" /><line stroke="#333" stroke-width="10" x1="1253.0" x2="1253.0" y1="2053.0" y2="2021.0" /><line stroke="#333" stroke-width="10" x1="1253.0" x2="1125.0" y1="1925.0" y2="1925.0" /><line stroke="#333" stroke-width="10" x1="1125.0" x2="1125.0" y1="1925.0" y2="1733.0" /><line stroke="#333" stroke-width="10" x1="1125.0" x2="933.0" y1="1733.0" y2="1733.0" /><line stroke="#333" stroke-width="10" x1="933.0" x2="933.0" y1="1733.0" y2="1605.0" /><line stroke="#333" stroke-width="10" x1="933.0" x2="869.0" y1="1605.0" y2="1605.0" /><line stroke="#333" stroke-width="10" x1="869.0" x2="1125.0" y1="1541.0" y2="1541.0" /><line stroke="#333" stroke-width="10" x1="869.0" x2="869.0" y1="1605.0" y2="1581.0" /><line stroke="#999" stroke-width="3" x1="1125.0" x2="1189.0" y1="1541.0" y2="1541.0" /><line stroke="#333" stroke-width="10" x1="1125.0" x2="1125.0" y1="1541.0" y2="1565.0" /><line stroke="#333" stroke-width="10" x1="1125.0" x2="997.0" y1="1605.0" y2="1605.0" /><line stroke="#333" stroke-width="10" x1="997.0" x2="997.0" y1="1605.0" y2="1669.0" /><line stroke="#333" stroke-width="10" x1="997.0" x2="1189.0" y1="1669.0" y2="1669.0" /><line stroke="#333" stroke-width="10" x1="1189.0" x2="1189.0" y1="1669.0" y2="1861.0" /><line stroke="#333" stroke-width="10" x1="1189.0" x2="1253.0" y1="1861.0" y2="1861.0" /><line stroke="#333" stroke-width="10" x1="1509.0" x2="1509.0" y1="1861.0" y2="1765.0" /><line stroke="#333" stroke-width="10" x1="1509.0" x2="1317.0" y1="1605.0" y2="1605.0" /><line stroke="#333" stroke-width="10" x1="1189.0" x2="1253.0" y1="1541.0" y2="1541.0" /><line stroke="#333" stroke-width="10" x1="1189.0" x2="1189.0" y1="1605.0" y2="1581.0" /><line stroke="#999" stroke-width="3" x1="293.0" x2="357.0" y1="1541.0" y2="1541.0" /><line stroke="#333" stroke-width="10" x1="677.0" x2="677.0" y1="1605.0" y2="1581.0" /><line stroke="#333" stroke-width="10" x1="613.0" x2="613.0" y1="1605.0" y2="1669.0" /><line stroke="#999" stroke-width="3" x1="677.0" x2="613.0" y1="1605.0" y2="1605.0" /><line stroke="#333" stroke-width="10" x1="805.0" x2="805.0" y1="1605.0" y2="1861.0" /><line stroke="#999" stroke-width="3" x1="869.0" x2="805.0" y1="1605.0" y2="1605.0" /><line stroke="#999" stroke-width="3" x1="1189.0" x2="1125.0" y1="1605.0" y2="1605.0" /><line stroke="#333" stroke-width="10" x1="293.0" x2="293.0" y1="1565.0" y2="1581.0" /><line stroke="#333" stroke-width="10" x1="357.0" x2="357.0" y1="1565.0" y2="1541.0" /><line stroke="#666" stroke-width="20" x1="293.0" x2="357.0" y1="1565.0" y2="1565.0" /><line stroke="#333" stroke-width="10" x1="357.0" x2="357.0" y1="1581.0" y2="1565.0" /><line stroke="#333" stroke-width="10" x1="293.0" x2="293.0" y1="1581.0" y2="1605.0" /><line stroke="#666" stroke-width="20" x1="357.0" x2="293.0" y1="1581.0" y2="1581.0" /><line stroke="#333" stroke-width="10" x1="613.0" x2="613.0" y1="1565.0" y2="1581.0" /><line stroke="#333" stroke-width="10" x1="677.0" x2="677.0" y1="1565.0" y2="1541.0" /><line stroke="#666" stroke-width="20" x1="613.0" x2="677.0" y1="1565.0" y2="1565.0" /><line stroke="#333" stroke-width="10" x1="677.0" x2="677.0" y1="1581.0" y2="1565.0" /><line stroke="#333" stroke-width="10" x1="613.0" x2="613.0" y1="1581.0" y2="1605.0" /><line stroke="#666" stroke-width="20" x1="677.0" x2="613.0" y1="1581.0" y2="1581.0" /><line stroke="#333" stroke-width="10" x1="805.0" x2="805.0" y1="1565.0" y2="1581.0" /><line stroke="#333" stroke-width="10" x1="869.0" x2="869.0" y1="1565.0" y2="1541.0" /><line stroke="#666" stroke-width="20" x1="805.0" x2="869.0" y1="1565.0" y2="1565.0" /><line stroke="#333" stroke-width="10" x1="869.0" x2="869.0" y1="1581.0" y2="1565.0" /><line stroke="#333" stroke-width="10" x1="805.0" x2="805.0" y1="1581.0" y2="1605.0" /><line stroke="#666" stroke-width="20" x1="869.0" x2="805.0" y1="1581.0" y2="1581.0" /><line stroke="#333" stroke-width="10" x1="1125.0" x2="1125.0" y1="1565.0" y2="1581.0" /><line stroke="#333" stroke-width="10" x1="1189.0" x2="1189.0" y1="1565.0" y2="1541.0" /><line stroke="#666" stroke-width="20" x1="1125.0" x2="1189.0" y1="1565.0" y2="1565.0" /><line stroke="#333" stroke-width="10" x1="1189.0" x2="1189.0" y1="1581.0" y2="1565.0" /><line stroke="#333" stroke-width="10" x1="1125.0" x2="1125.0" y1="1581.0" y2="1605.0" /><line stroke="#666" stroke-width="20" x1="1189.0" x2="1125.0" y1="1581.0" y2="1581.0" /><line stroke="#999" stroke-width="3" x1="933.0" x2="901.0" y1="1157.0" y2="1157.0" /><line stroke="#333" stroke-width="10" x1="933.0" x2="933.0" y1="1157.0" y2="1093.0" /><line stroke="#333" stroke-width="10" x1="965.0" x2="869.0" y1="805.0" y2="709.0" /><line stroke="#333" stroke-width="10" x1="869.0" x2="741.0" y1="709.0" y2="677.0" /><line stroke="#333" stroke-width="10" x1="741.0" x2="613.0" y1="677.0" y2="709.0" /><line stroke="#333" stroke-width="10" x1="613.0" x2="517.0" y1="709.0" y2="805.0" /><line stroke="#333" stroke-width="10" x1="549.0" x2="517.0" y1="1157.0" y2="1157.0" /><line stroke="#333" stroke-width="10" x1="517.0" x2="485.0" y1="805.0" y2="805.0" /><line stroke="#333" stroke-width="10" x1="549.0" x2="549.0" y1="1093.0" y2="1157.0" /><line stroke="#333" stroke-width="10" x1="933.0" x2="965.0" y1="1093.0" y2="1093.0" /><line stroke="#999" stroke-width="3" x1="549.0" x2="581.0" y1="1093.0" y2="1093.0" /><line stroke="#999" stroke-width="3" x1="901.0" x2="869.0" y1="1157.0" y2="1157.0" /><line stroke="#999" stroke-width="3" x1="901.0" x2="933.0" y1="1093.0" y2="1093.0" /><line stroke="#999" stroke-width="3" x1="901.0" x2="901.0" y1="1157.0" y2="1093.0" /><line stroke="#999" stroke-width="3" x1="869.0" x2="837.0" y1="1157.0" y2="1157.0" /><line stroke="#999" stroke-width="3" x1="869.0" x2="901.0" y1="1093.0" y2="1093.0" /><line stroke="#999" stroke-width="3" x1="869.0" x2="869.0" y1="1157.0" y2="1093.0" /><line stroke="#999" stroke-width="3" x1="581.0" x2="613.0" y1="1093.0" y2="1093.0" /><line stroke="#999" stroke-width="3" x1="581.0" x2="549.0" y1="1157.0" y2="1157.0" /><line stroke="#999" stroke-width="3" x1="581.0" x2="581.0" y1="1093.0" y2="1157.0" /><line stroke="#999" stroke-width="3" x1="613.0" x2="645.0" y1="1093.0" y2="1093.0" /><line stroke="#999" stroke-width="3" x1="613.0" x2="581.0" y1="1157.0" y2="1157.0" /><line stroke="#999" stroke-width="3" x1="613.0" x2="613.0" y1="1093.0" y2="1157.0" /><line stroke="#999" stroke-width="3" x1="837.0" x2="805.0" y1="1157.0" y2="1157.0" /><line stroke="#999" stroke-width="3" x1="837.0" x2="869.0" y1="1093.0" y2="1093.0" /><line stroke="#999" stroke-width="3" x1="837.0" x2="837.0" y1="1157.0" y2="1093.0" /><line stroke="#999" stroke-width="3" x1="645.0" x2="677.0" y1="1093.0" y2="1093.0" /><line stroke="#999" stroke-width="3" x1="645.0" x2="613.0" y1="1157.0" y2="1157.0" /><line stroke="#999" stroke-width="3" x1="645.0" x2="645.0" y1="1093.0" y2="1157.0" /><line stroke="#999" stroke-width="3" x1="805.0" x2="677.0" y1="1157.0" y2="1157.0" /><line stroke="#999" stroke-width="3" x1="805.0" x2="837.0" y1="1093.0" y2="1093.0" /><line stroke="#999" stroke-width="3" x1="805.0" x2="805.0" y1="1157.0" y2="1093.0" /><line stroke="#999" stroke-width="3" x1="677.0" x2="805.0" y1="1093.0" y2="1093.0" /><line stroke="#999" stroke-width="3" x1="677.0" x2="645.0" y1="1157.0" y2="1157.0" /><line stroke="#999" stroke-width="3" x1="677.0" x2="677.0" y1="1093.0" y2="1157.0" /><line stroke="#333" stroke-width="10" x1="965.0" x2="933.0" y1="1157.0" y2="1157.0" /><line stroke="#333" stroke-width="10" x1="517.0" x2="357.0" y1="1157.0" y2="1157.0" /><line stroke="#333" stroke-width="10" x1="517.0" x2="549.0" y1="1093.0" y2="1093.0" /><line stroke="#333" stroke-width="10" x1="965.0" x2="965.0" y1="1093.0" y2="1029.0" /><line stroke="#333" stroke-width="10" x1="677.0" x2="677.0" y1="1669.0" y2="1605.0" /><line stroke="#333" stroke-width="10" x1="741.0" x2="677.0" y1="1669.0" y2="1669.0" /><line stroke="#999" stroke-width="3" x1="525.0" x2="525.0" y1="1085.0" y2="1069.0" /><line stroke="#999" stroke-width="3" x1="525.0" x2="957.0" y1="1069.0" y2="1069.0" /><line stroke="#999" stroke-width="3" x1="957.0" x2="957.0" y1="1069.0" y2="1085.0" /><line stroke="#999" stroke-width="3" x1="957.0" x2="773.0" y1="1085.0" y2="1085.0" /><line stroke="#999" stroke-width="3" x1="525.0" x2="525.0" y1="1061.0" y2="1045.0" /><line stroke="#999" stroke-width="3" x1="525.0" x2="957.0" y1="1045.0" y2="1045.0" /><line stroke="#999" stroke-width="3" x1="957.0" x2="957.0" y1="1045.0" y2="1061.0" /><line stroke="#999" stroke-width="3" x1="957.0" x2="773.0" y1="1061.0" y2="1061.0" /><line stroke="#999" stroke-width="3" x1="525.0" x2="525.0" y1="1037.0" y2="1021.0" /><line stroke="#999" stroke-width="3" x1="525.0" x2="957.0" y1="1021.0" y2="1021.0" /><line stroke="#999" stroke-width="3" x1="957.0" x2="957.0" y1="1021.0" y2="1037.0" /><line stroke="#999" stroke-width="3" x1="957.0" x2="773.0" y1="1037.0" y2="1037.0" /><line stroke="#999" stroke-width="3" x1="525.0" x2="525.0" y1="1013.0" y2="997.0" /><line stroke="#999" stroke-width="3" x1="525.0" x2="957.0" y1="997.0" y2="997.0" /><line stroke="#999" stroke-width="3" x1="957.0" x2="957.0" y1="997.0" y2="1013.0" /><line stroke="#999" stroke-width="3" x1="957.0" x2="773.0" y1="1013.0" y2="1013.0" /><line stroke="#999" stroke-width="3" x1="709.0" x2="525.0" y1="1085.0" y2="1085.0" /><line stroke="#999" stroke-width="3" x1="773.0" x2="709.0" y1="1085.0" y2="1085.0" /><line stroke="#999" stroke-width="3" x1="773.0" x2="709.0" y1="1061.0" y2="1061.0" /><line stroke="#999" stroke-width="3" x1="709.0" x2="525.0" y1="1061.0" y2="1061.0" /><line stroke="#999" stroke-width="3" x1="709.0" x2="525.0" y1="1037.0" y2="1037.0" /><line stroke="#999" stroke-width="3" x1="773.0" x2="709.0" y1="1037.0" y2="1037.0" /><line stroke="#999" stroke-width="3" x1="773.0" x2="709.0" y1="1013.0" y2="1013.0" /><line stroke="#999" stroke-width="3" x1="709.0" x2="525.0" y1="1013.0" y2="1013.0" /><line stroke="#999" stroke-width="3" x1="869.0" x2="869.0" y1="2117.0" y2="2053.0" /><line stroke="#333" stroke-width="10" x1="869.0" x2="869.0" y1="2053.0" y2="1925.0" /><line stroke="#333" stroke-width="10" x1="869.0" x2="901.0" y1="2117.0" y2="2117.0" /><line stroke="#333" stroke-width="10" x1="901.0" x2="901.0" y1="2117.0" y2="2053.0" /><line stroke="#333" stroke-width="10" x1="901.0" x2="869.0" y1="2053.0" y2="2053.0" /><line stroke="#999" stroke-width="3" x1="37.0" x2="37.0" y1="1701.0" y2="1765.0" /><line stroke="#333" stroke-width="10" x1="37.0" x2="5.0" y1="1701.0" y2="1701.0" /><line stroke="#333" stroke-width="10" x1="5.0" x2="5.0" y1="1701.0" y2="1765.0" /><line stroke="#333" stroke-width="10" x1="37.0" x2="37.0" y1="1765.0" y2="1797.0" /><line stroke="#333" stroke-width="10" x1="5.0" x2="37.0" y1="1765.0" y2="1765.0" /><line stroke="#999" stroke-width="3" x1="1253.0" x2="1253.0" y1="2021.0" y2="1957.0" /><line stroke="#333" stroke-width="10" x1="1253.0" x2="1285.0" y1="2021.0" y2="2021.0" /><line stroke="#333" stroke-width="10" x1="1285.0" x2="1285.0" y1="2021.0" y2="1957.0" /><line stroke="#333" stroke-width="10" x1="1253.0" x2="1253.0" y1="1957.0" y2="1925.0" /><line stroke="#333" stroke-width="10" x1="1285.0" x2="1253.0" y1="1957.0" y2="1957.0" /><line stroke="#999" stroke-width="3" x1="1509.0" x2="1509.0" y1="1765.0" y2="1701.0" /><line stroke="#333" stroke-width="10" x1="1509.0" x2="1541.0" y1="1765.0" y2="1765.0" /><line stroke="#333" stroke-width="10" x1="1541.0" x2="1541.0" y1="1765.0" y2="1701.0" /><line stroke="#333" stroke-width="10" x1="1509.0" x2="1509.0" y1="1701.0" y2="1669.0" /><line stroke="#333" stroke-width="10" x1="1541.0" x2="1509.0" y1="1701.0" y2="1701.0" /><line stroke="#333" stroke-width="10" x1="677.0" x2="677.0" y1="1925.0" y2="1989.0" /><line stroke="#333" stroke-width="10" x1="165.0" x2="165.0" y1="2053.0" y2="1989.0" /><line stroke="#333" stroke-width="10" x1="677.0" x2="165.0" y1="2053.0" y2="2053.0" /><line stroke="#333" stroke-width="10" x1="165.0" x2="613.0" y1="1989.0" y2="1989.0" /><line stroke="#0d0" stroke-width="20" x1="613.0" x2="677.0" y1="709.0" y2="837.0" /><line stroke="#0d0" stroke-width="20" x1="677.0" x2="805.0" y1="837.0" y2="837.0" /><line stroke="#0d0" stroke-width="20" x1="805.0" x2="869.0" y1="837.0" y2="709.0" /><line stroke="#999" stroke-width="3" x1="725.0" x2="725.0" y1="789.0" y2="757.0" /><line stroke="#999" stroke-width="3" x1="725.0" x2="757.0" y1="757.0" y2="757.0" /><line stroke="#999" stroke-width="3" x1="757.0" x2="757.0" y1="757.0" y2="789.0" /><line stroke="#999" stroke-width="3" x1="757.0" x2="725.0" y1="789.0" y2="789.0" /><line stroke="#333" stroke-width="10" x1="517.0" x2="517.0" y1="837.0" y2="997.0" /><line stroke="#333" stroke-width="10" x1="485.0" x2="517.0" y1="837.0" y2="837.0" /><line stroke="#333" stroke-width="10" x1="485.0" x2="485.0" y1="805.0" y2="837.0" /><line stroke="#333" stroke-width="10" x1="965.0" x2="997.0" y1="837.0" y2="837.0" /><line stroke="#333" stroke-width="10" x1="997.0" x2="997.0" y1="837.0" y2="805.0" /><line stroke="#333" stroke-width="10" x1="997.0" x2="965.0" y1="805.0" y2="805.0" /><line stroke="#333" stroke-width="10" x1="517.0" x2="517.0" y1="1029.0" y2="1093.0" /><line stroke="#333" stroke-width="10" x1="517.0" x2="485.0" y1="997.0" y2="997.0" /><line stroke="#333" stroke-width="10" x1="485.0" x2="485.0" y1="997.0" y2="1029.0" /><line stroke="#333" stroke-width="10" x1="485.0" x2="517.0" y1="1029.0" y2="1029.0" /><line stroke="#333" stroke-width="10" x1="965.0" x2="997.0" y1="1029.0" y2="1029.0" /><line stroke="#333" stroke-width="10" x1="965.0" x2="965.0" y1="997.0" y2="837.0" /><line stroke="#333" stroke-width="10" x1="997.0" x2="997.0" y1="1029.0" y2="997.0" /><line stroke="#333" stroke-width="10" x1="997.0" x2="965.0" y1="997.0" y2="997.0" /><line stroke="#999" stroke-width="3" x1="965.0" x2="965.0" y1="1029.0" y2="997.0" /><line stroke="#999" stroke-width="3" x1="965.0" x2="965.0" y1="837.0" y2="805.0" /><line stroke="#999" stroke-width="3" x1="517.0" x2="517.0" y1="805.0" y2="837.0" /><line stroke="#999" stroke-width="3" x1="517.0" x2="517.0" y1="997.0" y2="1029.0" /><line stroke="#999" stroke-width="3" x1="293.0" x2="1189.0" y1="1477.0" y2="1477.0" /><line stroke="#999" stroke-width="3" x1="1189.0" x2="1189.0" y1="1477.0" y2="1221.0" /><line stroke="#999" stroke-width="3" x1="1189.0" x2="293.0" y1="1221.0" y2="1221.0" /><line stroke="#999" stroke-width="3" x1="293.0" x2="293.0" y1="1221.0" y2="1477.0" /><line stroke="#999" stroke-width="3" x1="421.0" x2="485.0" y1="1413.0" y2="1413.0" /><line stroke="#999" stroke-width="3" x1="549.0" x2="549.0" y1="1413.0" y2="1349.0" /><line stroke="#999" stroke-width="3" x1="549.0" x2="485.0" y1="1285.0" y2="1285.0" /><line stroke="#999" stroke-width="3" x1="421.0" x2="421.0" y1="1285.0" y2="1349.0" /><line stroke="#999" stroke-width="3" x1="421.0" x2="421.0" y1="1349.0" y2="1413.0" /><line stroke="#999" stroke-width="3" x1="421.0" x2="485.0" y1="1349.0" y2="1349.0" /><line stroke="#999" stroke-width="3" x1="485.0" x2="549.0" y1="1413.0" y2="1413.0" /><line stroke="#999" stroke-width="3" x1="485.0" x2="485.0" y1="1349.0" y2="1413.0" /><line stroke="#999" stroke-width="3" x1="549.0" x2="549.0" y1="1349.0" y2="1285.0" /><line stroke="#999" stroke-width="3" x1="485.0" x2="549.0" y1="1349.0" y2="1349.0" /><line stroke="#999" stroke-width="3" x1="485.0" x2="421.0" y1="1285.0" y2="1285.0" /><line stroke="#999" stroke-width="3" x1="485.0" x2="485.0" y1="1349.0" y2="1285.0" /><line stroke="#999" stroke-width="3" x1="413.0" x2="557.0" y1="1277.0" y2="1277.0" /><line stroke="#999" stroke-width="3" x1="557.0" x2="557.0" y1="1277.0" y2="1421.0" /><line stroke="#999" stroke-width="3" x1="557.0" x2="413.0" y1="1421.0" y2="1421.0" /><line stroke="#999" stroke-width="3" x1="413.0" x2="413.0" y1="1421.0" y2="1277.0" /><line stroke="#999" stroke-width="3" x1="933.0" x2="997.0" y1="1413.0" y2="1413.0" /><line stroke="#999" stroke-width="3" x1="1061.0" x2="1061.0" y1="1413.0" y2="1349.0" /><line stroke="#999" stroke-width="3" x1="1061.0" x2="997.0" y1="1285.0" y2="1285.0" /><line stroke="#999" stroke-width="3" x1="933.0" x2="933.0" y1="1285.0" y2="1349.0" /><line stroke="#999" stroke-width="3" x1="933.0" x2="933.0" y1="1349.0" y2="1413.0" /><line stroke="#999" stroke-width="3" x1="933.0" x2="997.0" y1="1349.0" y2="1349.0" /><line stroke="#999" stroke-width="3" x1="997.0" x2="1061.0" y1="1413.0" y2="1413.0" /><line stroke="#999" stroke-width="3" x1="997.0" x2="997.0" y1="1349.0" y2="1413.0" /><line stroke="#999" stroke-width="3" x1="1061.0" x2="1061.0" y1="1349.0" y2="1285.0" /><line stroke="#999" stroke-width="3" x1="997.0" x2="1061.0" y1="1349.0" y2="1349.0" /><line stroke="#999" stroke-width="3" x1="997.0" x2="933.0" y1="1285.0" y2="1285.0" /><line stroke="#999" stroke-width="3" x1="997.0" x2="997.0" y1="1349.0" y2="1285.0" /><line stroke="#999" stroke-width="3" x1="925.0" x2="1069.0" y1="1277.0" y2="1277.0" /><line stroke="#999" stroke-width="3" x1="1069.0" x2="1069.0" y1="1277.0" y2="1421.0" /><line stroke="#999" stroke-width="3" x1="1069.0" x2="925.0" y1="1421.0" y2="1421.0" /><line stroke="#999" stroke-width="3" x1="925.0" x2="925.0" y1="1421.0" y2="1277.0" /><line stroke="#999" stroke-width="3" x1="677.0" x2="741.0" y1="1413.0" y2="1413.0" /><line stroke="#999" stroke-width="3" x1="805.0" x2="805.0" y1="1413.0" y2="1349.0" /><line stroke="#999" stroke-width="3" x1="805.0" x2="741.0" y1="1285.0" y2="1285.0" /><line stroke="#999" stroke-width="3" x1="677.0" x2="677.0" y1="1285.0" y2="1349.0" /><line stroke="#999" stroke-width="3" x1="677.0" x2="677.0" y1="1349.0" y2="1413.0" /><line stroke="#999" stroke-width="3" x1="677.0" x2="741.0" y1="1349.0" y2="1349.0" /><line stroke="#999" stroke-width="3" x1="741.0" x2="805.0" y1="1413.0" y2="1413.0" /><line stroke="#999" stroke-width="3" x1="741.0" x2="741.0" y1="1349.0" y2="1413.0" /><line stroke="#999" stroke-width="3" x1="805.0" x2="805.0" y1="1349.0" y2="1285.0" /><line stroke="#999" stroke-width="3" x1="741.0" x2="805.0" y1="1349.0" y2="1349.0" /><line stroke="#999" stroke-width="3" x1="741.0" x2="677.0" y1="1285.0" y2="1285.0" /><line stroke="#999" stroke-width="3" x1="741.0" x2="741.0" y1="1349.0" y2="1285.0" /><line stroke="#999" stroke-width="3" x1="669.0" x2="813.0" y1="1277.0" y2="1277.0" /><line stroke="#999" stroke-width="3" x1="813.0" x2="813.0" y1="1277.0" y2="1421.0" /><line stroke="#999" stroke-width="3" x1="813.0" x2="669.0" y1="1421.0" y2="1421.0" /><line stroke="#999" stroke-width="3" x1="669.0" x2="669.0" y1="1421.0" y2="1277.0" /><line stroke="#999" stroke-width="3" x1="357.0" x2="293.0" y1="1157.0" y2="1157.0" /><line stroke="#333" stroke-width="10" x1="293.0" x2="293.0" y1="1093.0" y2="1117.0" /><line stroke="#333" stroke-width="10" x1="357.0" x2="357.0" y1="1157.0" y2="1133.0" /><line stroke="#999" stroke-width="3" x1="1125.0" x2="1189.0" y1="1093.0" y2="1093.0" /><line stroke="#333" stroke-width="10" x1="1125.0" x2="1125.0" y1="1093.0" y2="1117.0" /><line stroke="#333" stroke-width="10" x1="1189.0" x2="1189.0" y1="1157.0" y2="1133.0" /><line stroke="#999" stroke-width="3" x1="293.0" x2="357.0" y1="1093.0" y2="1093.0" /><line stroke="#999" stroke-width="3" x1="1189.0" x2="1125.0" y1="1157.0" y2="1157.0" /><line stroke="#333" stroke-width="10" x1="293.0" x2="293.0" y1="1117.0" y2="1133.0" /><line stroke="#333" stroke-width="10" x1="357.0" x2="357.0" y1="1117.0" y2="1093.0" /><line stroke="#666" stroke-width="20" x1="293.0" x2="357.0" y1="1117.0" y2="1117.0" /><line stroke="#333" stroke-width="10" x1="357.0" x2="357.0" y1="1133.0" y2="1117.0" /><line stroke="#333" stroke-width="10" x1="293.0" x2="293.0" y1="1133.0" y2="1157.0" /><line stroke="#666" stroke-width="20" x1="357.0" x2="293.0" y1="1133.0" y2="1133.0" /><line stroke="#333" stroke-width="10" x1="1125.0" x2="1125.0" y1="1117.0" y2="1133.0" /><line stroke="#333" stroke-width="10" x1="1189.0" x2="1189.0" y1="1117.0" y2="1093.0" /><line stroke="#666" stroke-width="20" x1="1125.0" x2="1189.0" y1="1117.0" y2="1117.0" /><line stroke="#333" stroke-width="10" x1="1189.0" x2="1189.0" y1="1133.0" y2="1117.0" /><line stroke="#333" stroke-width="10" x1="1125.0" x2="1125.0" y1="1133.0" y2="1157.0" /><line stroke="#666" stroke-width="20" x1="1189.0" x2="1125.0" y1="1133.0" y2="1133.0" /><line stroke="#333" stroke-width="10" x1="1125.0" x2="965.0" y1="1157.0" y2="1157.0" /><line stroke="#333" stroke-width="10" x1="293.0" x2="229.0" y1="1157.0" y2="1157.0" /><line stroke="#333" stroke-width="10" x1="1189.0" x2="1253.0" y1="1093.0" y2="1029.0" /><line stroke="#333" stroke-width="10" x1="1253.0" x2="1253.0" y1="1029.0" y2="325.0" /><line stroke="#333" stroke-width="10" x1="1253.0" x2="805.0" y1="325.0" y2="133.0" /><line stroke="#333" stroke-width="10" x1="805.0" x2="805.0" y1="133.0" y2="5.0" /><line stroke="#333" stroke-width="10" x1="677.0" x2="229.0" y1="133.0" y2="325.0" /><line stroke="#333" stroke-width="10" x1="229.0" x2="229.0" y1="325.0" y2="1029.0" /><line stroke="#333" stroke-width="10" x1="229.0" x2="293.0" y1="1029.0" y2="1093.0" /><line stroke="#333" stroke-width="10" x1="1061.0" x2="1125.0" y1="1029.0" y2="1093.0" /><line stroke="#333" stroke-width="10" x1="357.0" x2="421.0" y1="1093.0" y2="1029.0" /><line stroke="#333" stroke-width="10" x1="421.0" x2="421.0" y1="1029.0" y2="709.0" /><line stroke="#333" stroke-width="10" x1="421.0" x2="677.0" y1="709.0" y2="517.0" /><line stroke="#333" stroke-width="10" x1="677.0" x2="677.0" y1="517.0" y2="645.0" /><line stroke="#333" stroke-width="10" x1="805.0" x2="1061.0" y1="517.0" y2="709.0" /><line stroke="#333" stroke-width="10" x1="1061.0" x2="1061.0" y1="709.0" y2="1029.0" /><line stroke="#999" stroke-width="3" x1="677.0" x2="677.0" y1="517.0" y2="133.0" /><line stroke="#999" stroke-width="3" x1="805.0" x2="805.0" y1="133.0" y2="517.0" /><line stroke="#333" stroke-width="10" x1="37.0" x2="37.0" y1="1797.0" y2="1861.0" /><line stroke="#999" stroke-width="3" x1="37.0" x2="293.0" y1="1797.0" y2="1797.0" /><line stroke="#999" stroke-width="3" x1="293.0" x2="293.0" y1="1797.0" y2="1669.0" /><line stroke="#333" stroke-width="10" x1="357.0" x2="357.0" y1="1669.0" y2="1605.0" /><line stroke="#999" stroke-width="3" x1="293.0" x2="357.0" y1="1669.0" y2="1669.0" /><line stroke="#333" stroke-width="10" x1="357.0" x2="357.0" y1="1797.0" y2="1669.0" /><line stroke="#333" stroke-width="10" x1="293.0" x2="357.0" y1="1797.0" y2="1797.0" /><line stroke="#333" stroke-width="10" x1="549.0" x2="421.0" y1="1669.0" y2="1669.0" /><line stroke="#999" stroke-width="3" x1="549.0" x2="549.0" y1="1669.0" y2="1733.0" /><line stroke="#999" stroke-width="3" x1="549.0" x2="485.0" y1="1733.0" y2="1733.0" /><line stroke="#999" stroke-width="3" x1="485.0" x2="485.0" y1="1733.0" y2="1861.0" /><line stroke="#333" stroke-width="10" x1="421.0" x2="421.0" y1="1861.0" y2="1925.0" /><line stroke="#999" stroke-width="3" x1="485.0" x2="421.0" y1="1861.0" y2="1861.0" /><line stroke="#333" stroke-width="10" x1="1509.0" x2="1509.0" y1="1669.0" y2="1605.0" /><line stroke="#999" stroke-width="3" x1="1509.0" x2="1317.0" y1="1669.0" y2="1669.0" /><line stroke="#333" stroke-width="10" x1="1317.0" x2="1189.0" y1="1605.0" y2="1605.0" /><line stroke="#999" stroke-width="3" x1="1317.0" x2="1317.0" y1="1669.0" y2="1605.0" /><line stroke="#333" stroke-width="10" x1="1253.0" x2="1445.0" y1="1861.0" y2="1861.0" /><line stroke="#999" stroke-width="3" x1="1253.0" x2="1253.0" y1="1861.0" y2="1797.0" /><line stroke="#999" stroke-width="3" x1="1253.0" x2="1445.0" y1="1797.0" y2="1797.0" /><line stroke="#333" stroke-width="10" x1="1445.0" x2="1509.0" y1="1861.0" y2="1861.0" /><line stroke="#999" stroke-width="3" x1="1445.0" x2="1445.0" y1="1797.0" y2="1861.0" /><line stroke="#999" stroke-width="3" x1="933.0" x2="997.0" y1="1861.0" y2="1861.0" /><line stroke="#999" stroke-width="3" x1="997.0" x2="997.0" y1="1861.0" y2="2117.0" /><line stroke="#999" stroke-width="3" x1="997.0" x2="1061.0" y1="2117.0" y2="2117.0" /><line stroke="#333" stroke-width="10" x1="1061.0" x2="1189.0" y1="2181.0" y2="2181.0" /><line stroke="#999" stroke-width="3" x1="1061.0" x2="1061.0" y1="2117.0" y2="2181.0" /><line stroke="#333" stroke-width="10" x1="677.0" x2="677.0" y1="1989.0" y2="2053.0" /><line stroke="#999" stroke-width="3" x1="741.0" x2="677.0" y1="1989.0" y2="1989.0" /><line stroke="#999" stroke-width="3" x1="741.0" x2="741.0" y1="2117.0" y2="1989.0" /><line stroke="#999" stroke-width="3" x1="805.0" x2="741.0" y1="2117.0" y2="2117.0" /><line stroke="#333" stroke-width="10" x1="805.0" x2="677.0" y1="1925.0" y2="1925.0" /><line stroke="#999" stroke-width="3" x1="805.0" x2="805.0" y1="1925.0" y2="2117.0" /><line stroke="#999" stroke-width="3" x1="389.0" x2="389.0" y1="2213.0" y2="2181.0" /><line stroke="#999" stroke-width="3" x1="389.0" x2="421.0" y1="2181.0" y2="2181.0" /><line stroke="#999" stroke-width="3" x1="421.0" x2="421.0" y1="2181.0" y2="2213.0" /><line stroke="#999" stroke-width="3" x1="421.0" x2="389.0" y1="2213.0" y2="2213.0" /><line stroke="#999" stroke-width="3" x1="317.0" x2="317.0" y1="1773.0" y2="1741.0" /><line stroke="#999" stroke-width="3" x1="317.0" x2="349.0" y1="1741.0" y2="1741.0" /><line stroke="#999" stroke-width="3" x1="349.0" x2="349.0" y1="1741.0" y2="1773.0" /><line stroke="#999" stroke-width="3" x1="349.0" x2="317.0" y1="1773.0" y2="1773.0" /><line stroke="#999" stroke-width="3" x1="701.0" x2="701.0" y1="1965.0" y2="1933.0" /><line stroke="#999" stroke-width="3" x1="701.0" x2="733.0" y1="1933.0" y2="1933.0" /><line stroke="#999" stroke-width="3" x1="733.0" x2="733.0" y1="1933.0" y2="1965.0" /><line stroke="#999" stroke-width="3" x1="733.0" x2="701.0" y1="1965.0" y2="1965.0" /><line stroke="#999" stroke-width="3" x1="1029.0" x2="1029.0" y1="2053.0" y2="2021.0" /><line stroke="#999" stroke-width="3" x1="1029.0" x2="1061.0" y1="2021.0" y2="2021.0" /><line stroke="#999" stroke-width="3" x1="1061.0" x2="1061.0" y1="2021.0" y2="2053.0" /><line stroke="#999" stroke-width="3" x1="1061.0" x2="1029.0" y1="2053.0" y2="2053.0" /><line stroke="#999" stroke-width="3" x1="1061.0" x2="1061.0" y1="1789.0" y2="1757.0" /><line stroke="#999" stroke-width="3" x1="1061.0" x2="1093.0" y1="1757.0" y2="1757.0" /><line stroke="#999" stroke-width="3" x1="1093.0" x2="1093.0" y1="1757.0" y2="1789.0" /><line stroke="#999" stroke-width="3" x1="1093.0" x2="1061.0" y1="1789.0" y2="1789.0" /><line stroke="#999" stroke-width="3" x1="565.0" x2="565.0" y1="1965.0" y2="1933.0" /><line stroke="#999" stroke-width="3" x1="565.0" x2="597.0" y1="1933.0" y2="1933.0" /><line stroke="#999" stroke-width="3" x1="597.0" x2="597.0" y1="1933.0" y2="1965.0" /><line stroke="#999" stroke-width="3" x1="597.0" x2="565.0" y1="1965.0" y2="1965.0" /><line stroke="#999" stroke-width="3" x1="53.0" x2="53.0" y1="1669.0" y2="1637.0" /><line stroke="#999" stroke-width="3" x1="53.0" x2="85.0" y1="1637.0" y2="1637.0" /><line stroke="#999" stroke-width="3" x1="85.0" x2="85.0" y1="1637.0" y2="1669.0" /><line stroke="#999" stroke-width="3" x1="85.0" x2="53.0" y1="1669.0" y2="1669.0" /><line stroke="#999" stroke-width="3" x1="581.0" x2="581.0" y1="2237.0" y2="2221.0" /><line stroke="#999" stroke-width="3" x1="581.0" x2="597.0" y1="2221.0" y2="2221.0" /><line stroke="#999" stroke-width="3" x1="597.0" x2="597.0" y1="2221.0" y2="2237.0" /><line stroke="#999" stroke-width="3" x1="597.0" x2="581.0" y1="2237.0" y2="2237.0" /><line stroke="#999" stroke-width="3" x1="709.0" x2="709.0" y1="1957.0" y2="1941.0" /><line stroke="#999" stroke-width="3" x1="709.0" x2="725.0" y1="1941.0" y2="1941.0" /><line stroke="#999" stroke-width="3" x1="725.0" x2="725.0" y1="1941.0" y2="1957.0" /><line stroke="#999" stroke-width="3" x1="725.0" x2="709.0" y1="1957.0" y2="1957.0" /><line stroke="#999" stroke-width="3" x1="69.0" x2="69.0" y1="1837.0" y2="1821.0" /><line stroke="#999" stroke-width="3" x1="69.0" x2="85.0" y1="1821.0" y2="1821.0" /><line stroke="#999" stroke-width="3" x1="85.0" x2="85.0" y1="1821.0" y2="1837.0" /><line stroke="#999" stroke-width="3" x1="85.0" x2="69.0" y1="1837.0" y2="1837.0" /><line stroke="#999" stroke-width="3" x1="165.0" x2="165.0" y1="1829.0" y2="1813.0" /><line stroke="#999" stroke-width="3" x1="165.0" x2="181.0" y1="1813.0" y2="1813.0" /><line stroke="#999" stroke-width="3" x1="181.0" x2="181.0" y1="1813.0" y2="1829.0" /><line stroke="#999" stroke-width="3" x1="181.0" x2="165.0" y1="1829.0" y2="1829.0" /><line stroke="#999" stroke-width="3" x1="237.0" x2="237.0" y1="1837.0" y2="1821.0" /><line stroke="#999" stroke-width="3" x1="237.0" x2="253.0" y1="1821.0" y2="1821.0" /><line stroke="#999" stroke-width="3" x1="253.0" x2="253.0" y1="1821.0" y2="1837.0" /><line stroke="#999" stroke-width="3" x1="253.0" x2="237.0" y1="1837.0" y2="1837.0" /><line stroke="#999" stroke-width="3" x1="309.0" x2="309.0" y1="1725.0" y2="1709.0" /><line stroke="#999" stroke-width="3" x1="309.0" x2="325.0" y1="1709.0" y2="1709.0" /><line stroke="#999" stroke-width="3" x1="325.0" x2="325.0" y1="1709.0" y2="1725.0" /><line stroke="#999" stroke-width="3" x1="325.0" x2="309.0" y1="1725.0" y2="1725.0" /><line stroke="#999" stroke-width="3" x1="514.0" x2="514.0" y1="1708.0" y2="1692.0" /><line stroke="#999" stroke-width="3" x1="514.0" x2="530.0" y1="1692.0" y2="1692.0" /><line stroke="#999" stroke-width="3" x1="530.0" x2="530.0" y1="1692.0" y2="1708.0" /><line stroke="#999" stroke-width="3" x1="530.0" x2="514.0" y1="1708.0" y2="1708.0" /><line stroke="#999" stroke-width="3" x1="445.0" x2="445.0" y1="1797.0" y2="1781.0" /><line stroke="#999" stroke-width="3" x1="445.0" x2="461.0" y1="1781.0" y2="1781.0" /><line stroke="#999" stroke-width="3" x1="461.0" x2="461.0" y1="1781.0" y2="1797.0" /><line stroke="#999" stroke-width="3" x1="461.0" x2="445.0" y1="1797.0" y2="1797.0" /><line stroke="#999" stroke-width="3" x1="757.0" x2="757.0" y1="2093.0" y2="2077.0" /><line stroke="#999" stroke-width="3" x1="757.0" x2="773.0" y1="2077.0" y2="2077.0" /><line stroke="#999" stroke-width="3" x1="773.0" x2="773.0" y1="2077.0" y2="2093.0" /><line stroke="#999" stroke-width="3" x1="773.0" x2="757.0" y1="2093.0" y2="2093.0" /><line stroke="#999" stroke-width="3" x1="773.0" x2="773.0" y1="1989.0" y2="1973.0" /><line stroke="#999" stroke-width="3" x1="773.0" x2="789.0" y1="1973.0" y2="1973.0" /><line stroke="#999" stroke-width="3" x1="789.0" x2="789.0" y1="1973.0" y2="1989.0" /><line stroke="#999" stroke-width="3" x1="789.0" x2="773.0" y1="1989.0" y2="1989.0" /><line stroke="#999" stroke-width="3" x1="1029.0" x2="1029.0" y1="2173.0" y2="2157.0" /><line stroke="#999" stroke-width="3" x1="1029.0" x2="1045.0" y1="2157.0" y2="2157.0" /><line stroke="#999" stroke-width="3" x1="1045.0" x2="1045.0" y1="2157.0" y2="2173.0" /><line stroke="#999" stroke-width="3" x1="1045.0" x2="1029.0" y1="2173.0" y2="2173.0" /><line stroke="#999" stroke-width="3" x1="949.0" x2="949.0" y1="2061.0" y2="2045.0" /><line stroke="#999" stroke-width="3" x1="949.0" x2="965.0" y1="2045.0" y2="2045.0" /><line stroke="#999" stroke-width="3" x1="965.0" x2="965.0" y1="2045.0" y2="2061.0" /><line stroke="#999" stroke-width="3" x1="965.0" x2="949.0" y1="2061.0" y2="2061.0" /><line stroke="#999" stroke-width="3" x1="963.0" x2="963.0" y1="1938.0" y2="1922.0" /><line stroke="#999" stroke-width="3" x1="963.0" x2="979.0" y1="1922.0" y2="1922.0" /><line stroke="#999" stroke-width="3" x1="979.0" x2="979.0" y1="1922.0" y2="1938.0" /><line stroke="#999" stroke-width="3" x1="979.0" x2="963.0" y1="1938.0" y2="1938.0" /><line stroke="#999" stroke-width="3" x1="1032.0" x2="1032.0" y1="2042.0" y2="2026.0" /><line stroke="#999" stroke-width="3" x1="1032.0" x2="1048.0" y1="2026.0" y2="2026.0" /><line stroke="#999" stroke-width="3" x1="1048.0" x2="1048.0" y1="2026.0" y2="2042.0" /><line stroke="#999" stroke-width="3" x1="1048.0" x2="1032.0" y1="2042.0" y2="2042.0" /><line stroke="#999" stroke-width="3" x1="1077.0" x2="1077.0" y1="2157.0" y2="2141.0" /><line stroke="#999" stroke-width="3" x1="1077.0" x2="1093.0" y1="2141.0" y2="2141.0" /><line stroke="#999" stroke-width="3" x1="1093.0" x2="1093.0" y1="2141.0" y2="2157.0" /><line stroke="#999" stroke-width="3" x1="1093.0" x2="1077.0" y1="2157.0" y2="2157.0" /><line stroke="#999" stroke-width="3" x1="1029.0" x2="1029.0" y1="2013.0" y2="1997.0" /><line stroke="#999" stroke-width="3" x1="1029.0" x2="1045.0" y1="1997.0" y2="1997.0" /><line stroke="#999" stroke-width="3" x1="1045.0" x2="1045.0" y1="1997.0" y2="2013.0" /><line stroke="#999" stroke-width="3" x1="1045.0" x2="1029.0" y1="2013.0" y2="2013.0" /><line stroke="#999" stroke-width="3" x1="701.0" x2="701.0" y1="1829.0" y2="1813.0" /><line stroke="#999" stroke-width="3" x1="701.0" x2="717.0" y1="1813.0" y2="1813.0" /><line stroke="#999" stroke-width="3" x1="717.0" x2="717.0" y1="1813.0" y2="1829.0" /><line stroke="#999" stroke-width="3" x1="717.0" x2="701.0" y1="1829.0" y2="1829.0" /><line stroke="#999" stroke-width="3" x1="821.0" x2="821.0" y1="1813.0" y2="1797.0" /><line stroke="#999" stroke-width="3" x1="821.0" x2="837.0" y1="1797.0" y2="1797.0" /><line stroke="#999" stroke-width="3" x1="837.0" x2="837.0" y1="1797.0" y2="1813.0" /><line stroke="#999" stroke-width="3" x1="837.0" x2="821.0" y1="1813.0" y2="1813.0" /><line stroke="#999" stroke-width="3" x1="1269.0" x2="1269.0" y1="1845.0" y2="1829.0" /><line stroke="#999" stroke-width="3" x1="1269.0" x2="1285.0" y1="1829.0" y2="1829.0" /><line stroke="#999" stroke-width="3" x1="1285.0" x2="1285.0" y1="1829.0" y2="1845.0" /><line stroke="#999" stroke-width="3" x1="1285.0" x2="1269.0" y1="1845.0" y2="1845.0" /><line stroke="#999" stroke-width="3" x1="1325.0" x2="1325.0" y1="1829.0" y2="1813.0" /><line stroke="#999" stroke-width="3" x1="1325.0" x2="1341.0" y1="1813.0" y2="1813.0" /><line stroke="#999" stroke-width="3" x1="1341.0" x2="1341.0" y1="1813.0" y2="1829.0" /><line stroke="#999" stroke-width="3" x1="1341.0" x2="1325.0" y1="1829.0" y2="1829.0" /><line stroke="#999" stroke-width="3" x1="1453.0" x2="1453.0" y1="1653.0" y2="1637.0" /><line stroke="#999" stroke-width="3" x1="1453.0" x2="1469.0" y1="1637.0" y2="1637.0" /><line stroke="#999" stroke-width="3" x1="1469.0" x2="1469.0" y1="1637.0" y2="1653.0" /><line stroke="#999" stroke-width="3" x1="1469.0" x2="1453.0" y1="1653.0" y2="1653.0" /><line stroke="#999" stroke-width="3" x1="1341.0" x2="1341.0" y1="1629.0" y2="1613.0" /><line stroke="#999" stroke-width="3" x1="1341.0" x2="1357.0" y1="1613.0" y2="1613.0" /><line stroke="#999" stroke-width="3" x1="1357.0" x2="1357.0" y1="1613.0" y2="1629.0" /><line stroke="#999" stroke-width="3" x1="1357.0" x2="1341.0" y1="1629.0" y2="1629.0" /><line stroke="#999" stroke-width="3" x1="229.0" x2="229.0" y1="1221.0" y2="1477.0" /><line stroke="#333" stroke-width="10" x1="229.0" x2="101.0" y1="1221.0" y2="1221.0" /><line stroke="#333" stroke-width="10" x1="101.0" x2="101.0" y1="1221.0" y2="1477.0" /><line stroke="#333" stroke-width="10" x1="229.0" x2="229.0" y1="1477.0" y2="1541.0" /><line stroke="#333" stroke-width="10" x1="101.0" x2="229.0" y1="1477.0" y2="1477.0" /><line stroke="#999" stroke-width="3" x1="1253.0" x2="1253.0" y1="1477.0" y2="1221.0" /><line stroke="#333" stroke-width="10" x1="1253.0" x2="1381.0" y1="1477.0" y2="1477.0" /><line stroke="#333" stroke-width="10" x1="1381.0" x2="1381.0" y1="1477.0" y2="1221.0" /><line stroke="#333" stroke-width="10" x1="1253.0" x2="1253.0" y1="1221.0" y2="1157.0" /><line stroke="#333" stroke-width="10" x1="1381.0" x2="1253.0" y1="1221.0" y2="1221.0" /><line stroke="#333" stroke-width="10" x1="677.0" x2="677.0" y1="5.0" y2="133.0" /><line stroke="#333" stroke-width="10" x1="805.0" x2="677.0" y1="5.0" y2="5.0" /><line stroke="#333" stroke-width="10" x1="677.0" x2="805.0" y1="645.0" y2="645.0" /><line stroke="#333" stroke-width="10" x1="805.0" x2="805.0" y1="645.0" y2="517.0" /><ellipse cx="741.0" cy="69.0" fill="#009" rx="12" ry="24" stroke="#009" stroke-width="5" /><rect fill="#090" height="24" stroke="#090" stroke-width="5" transform="rotate(0,501.0,1013.0)" width="24" x="489.0" y="1001.0" /><rect fill="#090" height="24" stroke="#090" stroke-width="5" transform="rotate(0,501.0,821.0)" width="24" x="489.0" y="809.0" /><rect fill="#090" height="24" stroke="#090" stroke-width="5" transform="rotate(0,981.0,821.0)" width="24" x="969.0" y="809.0" /><rect fill="#090" height="24" stroke="#090" stroke-width="5" transform="rotate(0,981.0,1013.0)" width="24" x="969.0" y="1001.0" /><circle cx="741.0" cy="581.0" fill="#900" r="16" stroke="#900" stroke-width="5" /><circle cx="485.0" cy="1509.0" fill="#090" r="16" stroke="#090" stroke-width="5" /><circle cx="997.0" cy="1509.0" fill="#090" r="16" stroke="#090" stroke-width="5" /><circle cx="741.0" cy="1509.0" fill="#090" r="16" stroke="#090" stroke-width="5" /><circle cx="421.0" cy="1189.0" fill="#090" r="16" stroke="#090" stroke-width="5" /><circle cx="1061.0" cy="1189.0" fill="#090" r="16" stroke="#090" stroke-width="5" /><rect fill="#900" height="48" stroke="#900" stroke-width="5" transform="rotate(0,133.0,1445.0)" width="32" x="117.0" y="1421.0" /><rect fill="#900" height="48" stroke="#900" stroke-width="5" transform="rotate(0,133.0,1381.0)" width="32" x="117.0" y="1357.0" /><rect fill="#900" height="48" stroke="#900" stroke-width="5" transform="rotate(0,133.0,1317.0)" width="32" x="117.0" y="1293.0" /><rect fill="#900" height="48" stroke="#900" stroke-width="5" transform="rotate(0,133.0,1253.0)" width="32" x="117.0" y="1229.0" /><rect fill="#900" height="48" stroke="#900" stroke-width="5" transform="rotate(0,197.0,1381.0)" width="32" x="181.0" y="1357.0" /><rect fill="#900" height="48" stroke="#900" stroke-width="5" transform="rotate(0,197.0,1317.0)" width="32" x="181.0" y="1293.0" /><rect fill="#900" height="48" stroke="#900" stroke-width="5" transform="rotate(180,1285.0,1381.0)" width="32" x="1269.0" y="1357.0" /><rect fill="#900" height="48" stroke="#900" stroke-width="5" transform="rotate(180,1285.0,1317.0)" width="32" x="1269.0" y="1293.0" /><rect fill="#900" height="48" stroke="#900" stroke-width="5" transform="rotate(180,1349.0,1445.0)" width="32" x="1333.0" y="1421.0" /><rect fill="#900" height="48" stroke="#900" stroke-width="5" transform="rotate(180,1349.0,1381.0)" width="32" x="1333.0" y="1357.0" /><rect fill="#900" height="48" stroke="#900" stroke-width="5" transform="rotate(180,1349.0,1317.0)" width="32" x="1333.0" y="1293.0" /><rect fill="#900" height="48" stroke="#900" stroke-width="5" transform="rotate(180,1349.0,1253.0)" width="32" x="1333.0" y="1229.0" /><rect fill="#900" height="48" stroke="#900" stroke-width="5" transform="rotate(270,741.0,1381.0)" width="32" x="725.0" y="1357.0" /><rect fill="#900" height="48" stroke="#900" stroke-width="5" transform="rotate(270,325.0,1445.0)" width="32" x="309.0" y="1421.0" /><rect fill="#900" height="48" stroke="#900" stroke-width="5" transform="rotate(270,1157.0,1445.0)" width="32" x="1141.0" y="1421.0" /><rect fill="#900" height="48" stroke="#900" stroke-width="5" transform="rotate(0,101.0,1733.0)" width="32" x="85.0" y="1709.0" /><rect fill="#900" height="48" stroke="#900" stroke-width="5" transform="rotate(90,837.0,1957.0)" width="32" x="821.0" y="1933.0" /><rect fill="#900" height="48" stroke="#900" stroke-width="5" transform="rotate(180,1221.0,1989.0)" width="32" x="1205.0" y="1965.0" /><rect fill="#900" height="48" stroke="#900" stroke-width="5" transform="rotate(180,1477.0,1733.0)" width="32" x="1461.0" y="1709.0" /><rect fill="#900" height="48" stroke="#900" stroke-width="5" transform="rotate(225,1413.0,1829.0)" width="32" x="1397.0" y="1805.0" /><rect fill="#900" height="48" stroke="#900" stroke-width="5" transform="rotate(135,1413.0,1637.0)" width="32" x="1397.0" y="1613.0" /><rect fill="#900" height="48" stroke="#900" stroke-width="5" transform="rotate(270,965.0,2149.0)" width="32" x="949.0" y="2125.0" /><rect fill="#900" height="48" stroke="#900" stroke-width="5" transform="rotate(0,965.0,1989.0)" width="32" x="949.0" y="1965.0" /><rect fill="#900" height="48" stroke="#900" stroke-width="5" transform="rotate(90,773.0,2021.0)" width="32" x="757.0" y="1997.0" /><rect fill="#900" height="48" stroke="#900" stroke-width="5" transform="rotate(270,133.0,1829.0)" width="32" x="117.0" y="1805.0" /><rect fill="#900" height="48" stroke="#900" stroke-width="5" transform="rotate(45,453.0,1701.0)" width="32" x="437.0" y="1677.0" /><rect fill="#900" height="48" stroke="#900" stroke-width="5" transform="rotate(0,453.0,1829.0)" width="32" x="437.0" y="1805.0" /><circle cx="133.0" cy="2021.0" fill="#090" r="16" stroke="#090" stroke-width="5" /><circle cx="1157.0" cy="2149.0" fill="#090" r="16" stroke="#090" stroke-width="5" /><circle cx="1157.0" cy="1637.0" fill="#090" r="16" stroke="#090" stroke-width="5" /><circle cx="1221.0" cy="1829.0" fill="#090" r="16" stroke="#090" stroke-width="5" /><circle cx="837.0" cy="2213.0" fill="#090" r="16" stroke="#090" stroke-width="5" /><circle cx="453.0" cy="2213.0" fill="#090" r="16" stroke="#090" stroke-width="5" /><circle cx="133.0" cy="1637.0" fill="#009" r="16" stroke="#009" stroke-width="5" /><circle cx="709.0" cy="2213.0" fill="#009" r="16" stroke="#009" stroke-width="5" /><circle cx="1157.0" cy="2085.0" fill="#009" r="16" stroke="#009" stroke-width="5" /><circle cx="1093.0" cy="1637.0" fill="#009" r="16" stroke="#009" stroke-width="5" /><circle cx="741.0" cy="1189.0" fill="#009" r="16" stroke="#009" stroke-width="5" /><rect fill="#900" height="48" stroke="#900" stroke-width="5" transform="rotate(270,549.0,1829.0)" width="32" x="533.0" y="1805.0" /><rect fill="#900" height="48" stroke="#900" stroke-width="5" transform="rotate(270,613.0,1829.0)" width="32" x="597.0" y="1805.0" /><rect fill="#900" height="48" stroke="#900" stroke-width="5" transform="rotate(270,581.0,1765.0)" width="32" x="565.0" y="1741.0" /><rect fill="#900" height="48" stroke="#900" stroke-width="5" transform="rotate(270,1029.0,1925.0)" width="32" x="1013.0" y="1901.0" /><rect fill="#900" height="48" stroke="#900" stroke-width="5" transform="rotate(270,1093.0,1925.0)" width="32" x="1077.0" y="1901.0" /><rect fill="#900" height="48" stroke="#900" stroke-width="5" transform="rotate(270,1061.0,1861.0)" width="32" x="1045.0" y="1837.0" /><rect fill="#900" height="48" stroke="#900" stroke-width="5" transform="rotate(270,1221.0,1733.0)" width="32" x="1205.0" y="1709.0" /><rect fill="#900" height="48" stroke="#900" stroke-width="5" transform="rotate(270,1285.0,1733.0)" width="32" x="1269.0" y="1709.0" /><rect fill="#900" height="48" stroke="#900" stroke-width="5" transform="rotate(270,1253.0,1669.0)" width="32" x="1237.0" y="1645.0" /><rect fill="#900" height="48" stroke="#900" stroke-width="5" transform="rotate(270,165.0,1733.0)" width="32" x="149.0" y="1709.0" /><rect fill="#900" height="48" stroke="#900" stroke-width="5" transform="rotate(270,229.0,1733.0)" width="32" x="213.0" y="1709.0" /><rect fill="#900" height="48" stroke="#900" stroke-width="5" transform="rotate(270,197.0,1669.0)" width="32" x="181.0" y="1645.0" /><rect fill="#900" height="48" stroke="#900" stroke-width="5" transform="rotate(90,613.0,901.0)" width="32" x="597.0" y="877.0" /><rect fill="#900" height="48" stroke="#900" stroke-width="5" transform="rotate(90,869.0,901.0)" width="32" x="853.0" y="877.0" /><ellipse cx="293.0" cy="517.0" fill="#900" rx="12" ry="24" stroke="#900" stroke-width="5" /><ellipse cx="389.0" cy="517.0" fill="#900" rx="12" ry="24" stroke="#900" stroke-width="5" /><ellipse cx="325.0" cy="517.0" fill="#900" rx="12" ry="24" stroke="#900" stroke-width="5" /><ellipse cx="389.0" cy="485.0" fill="#900" rx="12" ry="24" stroke="#900" stroke-width="5" /><ellipse cx="389.0" cy="453.0" fill="#900" rx="12" ry="24" stroke="#900" stroke-width="5" /><ellipse cx="293.0" cy="453.0" fill="#900" rx="12" ry="24" stroke="#900" stroke-width="5" /><ellipse cx="293.0" cy="485.0" fill="#900" rx="12" ry="24" stroke="#900" stroke-width="5" /><ellipse cx="293.0" cy="421.0" fill="#900" rx="12" ry="24" stroke="#900" stroke-width="5" /><ellipse cx="325.0" cy="421.0" fill="#900" rx="12" ry="24" stroke="#900" stroke-width="5" /><ellipse cx="389.0" cy="421.0" fill="#900" rx="12" ry="24" stroke="#900" stroke-width="5" /><ellipse cx="357.0" cy="421.0" fill="#900" rx="12" ry="24" stroke="#900" stroke-width="5" /><ellipse cx="357.0" cy="517.0" fill="#900" rx="12" ry="24" stroke="#900" stroke-width="5" /><rect fill="#900" height="48" stroke="#900" stroke-width="5" transform="rotate(0,341.0,469.0)" width="32" x="325.0" y="445.0" /><ellipse cx="1093.0" cy="517.0" fill="#900" rx="12" ry="24" stroke="#900" stroke-width="5" /><ellipse cx="1189.0" cy="517.0" fill="#900" rx="12" ry="24" stroke="#900" stroke-width="5" /><ellipse cx="1125.0" cy="517.0" fill="#900" rx="12" ry="24" stroke="#900" stroke-width="5" /><ellipse cx="1189.0" cy="485.0" fill="#900" rx="12" ry="24" stroke="#900" stroke-width="5" /><ellipse cx="1189.0" cy="453.0" fill="#900" rx="12" ry="24" stroke="#900" stroke-width="5" /><ellipse cx="1093.0" cy="453.0" fill="#900" rx="12" ry="24" stroke="#900" stroke-width="5" /><ellipse cx="1093.0" cy="485.0" fill="#900" rx="12" ry="24" stroke="#900" stroke-width="5" /><ellipse cx="1093.0" cy="421.0" fill="#900" rx="12" ry="24" stroke="#900" stroke-width="5" /><ellipse cx="1125.0" cy="421.0" fill="#900" rx="12" ry="24" stroke="#900" stroke-width="5" /><ellipse cx="1189.0" cy="421.0" fill="#900" rx="12" ry="24" stroke="#900" stroke-width="5" /><ellipse cx="1157.0" cy="421.0" fill="#900" rx="12" ry="24" stroke="#900" stroke-width="5" /><ellipse cx="1157.0" cy="517.0" fill="#900" rx="12" ry="24" stroke="#900" stroke-width="5" /><rect fill="#900" height="48" stroke="#900" stroke-width="5" transform="rotate(180,1141.0,469.0)" width="32" x="1125.0" y="445.0" /><circle cx="709.0" cy="517.0" fill="#090" r="16" stroke="#090" stroke-width="5" /><circle cx="773.0" cy="517.0" fill="#090" r="16" stroke="#090" stroke-width="5" /><circle cx="709.0" cy="453.0" fill="#090" r="16" stroke="#090" stroke-width="5" /><circle cx="773.0" cy="453.0" fill="#090" r="16" stroke="#090" stroke-width="5" /><rect fill="#900" height="48" stroke="#900" stroke-width="5" transform="rotate(270,325.0,1029.0)" width="32" x="309.0" y="1005.0" /><rect fill="#900" height="48" stroke="#900" stroke-width="5" transform="rotate(270,1157.0,1029.0)" width="32" x="1141.0" y="1005.0" /><rect fill="#900" height="48" stroke="#900" stroke-width="5" transform="rotate(270,469.0,2197.0)" width="32" x="453.0" y="2173.0" /><rect fill="#900" height="48" stroke="#900" stroke-width="5" transform="rotate(270,533.0,2197.0)" width="32" x="517.0" y="2173.0" /><rect fill="#900" height="48" stroke="#900" stroke-width="5" transform="rotate(270,501.0,2133.0)" width="32" x="485.0" y="2109.0" /></svg>