<?xml version="1.0" encoding="utf-8" ?>
<svg baseProfile="tiny" height="1024" version="1.2" viewBox="0 0 2058 3658" width="576" xmlns="http://www.w3.org/2000/svg" xmlns:ev="http://www.w3.org/2001/xml-events" xmlns:xlink="http://www.w3.org/1999/xlink"><defs /><line stroke="#333" stroke-width="10" x1="837.0" x2="965.0" y1="1477.0" y2="1477.0" /><line stroke="#333" stroke-width="10" x1="1221.0" x2="1221.0" y1="1477.0" y2="1349.0" /><line stroke="#333" stroke-width="10" x1="1197.0" x2="1197.0" y1="1117.0" y2="1093.0" /><line stroke="#333" stroke-width="10" x1="861.0" x2="837.0" y1="1117.0" y2="1117.0" /><line stroke="#333" stroke-width="10" x1="965.0" x2="901.0" y1="901.0" y2="1093.0" /><line stroke="#333" stroke-width="10" x1="1093.0" x2="965.0" y1="901.0" y2="901.0" /><line stroke="#333" stroke-width="10" x1="1157.0" x2="1093.0" y1="1093.0" y2="901.0" /><line stroke="#333" stroke-width="10" x1="901.0" x2="861.0" y1="1093.0" y2="1093.0" /><line stroke="#333" stroke-width="10" x1="1093.0" x2="1093.0" y1="1493.0" y2="1477.0" /><line stroke="#333" stroke-width="10" x1="965.0" x2="965.0" y1="1493.0" y2="1525.0" /><line stroke="#333" stroke-width="10" x1="1221.0" x2="1221.0" y1="1221.0" y2="1117.0" /><line stroke="#333" stroke-width="10" x1="1221.0" x2="1285.0" y1="1349.0" y2="1349.0" /><line stroke="#333" stroke-width="10" x1="837.0" x2="837.0" y1="1349.0" y2="1477.0" /><line stroke="#333" stroke-width="10" x1="837.0" x2="773.0" y1="1221.0" y2="1221.0" /><line stroke="#333" stroke-width="10" x1="1477.0" x2="1477.0" y1="1349.0" y2="1317.0" /><line stroke="#333" stroke-width="10" x1="1477.0" x2="1285.0" y1="1221.0" y2="1221.0" /><line stroke="#999" stroke-width="3" x1="1221.0" x2="1221.0" y1="1349.0" y2="1221.0" /><line stroke="#333" stroke-width="10" x1="1285.0" x2="1477.0" y1="1349.0" y2="1349.0" /><line stroke="#333" stroke-width="10" x1="1285.0" x2="1221.0" y1="1221.0" y2="1221.0" /><line stroke="#999" stroke-width="3" x1="1285.0" x2="1285.0" y1="1349.0" y2="1221.0" /><line stroke="#0d0" stroke-width="20" x1="1477.0" x2="1477.0" y1="1317.0" y2="1253.0" /><line stroke="#333" stroke-width="10" x1="1477.0" x2="1477.0" y1="1253.0" y2="1221.0" /><line stroke="#333" stroke-width="10" x1="1925.0" x2="1093.0" y1="1605.0" y2="1541.0" /><line stroke="#333" stroke-width="10" x1="133.0" x2="5.0" y1="1605.0" y2="2501.0" /><line stroke="#333" stroke-width="10" x1="197.0" x2="197.0" y1="837.0" y2="1349.0" /><line stroke="#333" stroke-width="10" x1="197.0" x2="773.0" y1="1349.0" y2="1349.0" /><line stroke="#999" stroke-width="3" x1="837.0" x2="837.0" y1="1221.0" y2="1349.0" /><line stroke="#999" stroke-width="3" x1="965.0" x2="1093.0" y1="1493.0" y2="1493.0" /><line stroke="#333" stroke-width="10" x1="1093.0" x2="1093.0" y1="1525.0" y2="1493.0" /><line stroke="#333" stroke-width="10" x1="965.0" x2="965.0" y1="1525.0" y2="1541.0" /><line stroke="#999" stroke-width="3" x1="1093.0" x2="965.0" y1="1525.0" y2="1525.0" /><line stroke="#333" stroke-width="10" x1="965.0" x2="965.0" y1="1477.0" y2="1493.0" /><line stroke="#333" stroke-width="10" x1="1093.0" x2="1221.0" y1="1477.0" y2="1477.0" /><line stroke="#333" stroke-width="10" x1="1093.0" x2="1093.0" y1="1541.0" y2="1525.0" /><line stroke="#333" stroke-width="10" x1="965.0" x2="133.0" y1="1541.0" y2="1605.0" /><line stroke="#999" stroke-width="3" x1="1093.0" x2="965.0" y1="1541.0" y2="1541.0" /><line stroke="#999" stroke-width="3" x1="965.0" x2="1093.0" y1="1477.0" y2="1477.0" /><line stroke="#333" stroke-width="10" x1="5.0" x2="5.0" y1="2501.0" y2="3141.0" /><line stroke="#333" stroke-width="10" x1="2053.0" x2="1925.0" y1="2501.0" y2="1605.0" /><line stroke="#333" stroke-width="10" x1="5.0" x2="517.0" y1="3141.0" y2="3653.0" /><line stroke="#333" stroke-width="10" x1="2053.0" x2="2053.0" y1="3141.0" y2="2501.0" /><line stroke="#333" stroke-width="10" x1="1541.0" x2="2053.0" y1="3653.0" y2="3141.0" /><line stroke="#333" stroke-width="10" x1="517.0" x2="1541.0" y1="3653.0" y2="3653.0" /><line stroke="#333" stroke-width="10" x1="453.0" x2="581.0" y1="1989.0" y2="1989.0" /><line stroke="#333" stroke-width="10" x1="581.0" x2="581.0" y1="1989.0" y2="2117.0" /><line stroke="#333" stroke-width="10" x1="581.0" x2="453.0" y1="2117.0" y2="2117.0" /><line stroke="#333" stroke-width="10" x1="453.0" x2="453.0" y1="2117.0" y2="1989.0" /><line stroke="#333" stroke-width="10" x1="1605.0" x2="1477.0" y1="2117.0" y2="2117.0" /><line stroke="#333" stroke-width="10" x1="1605.0" x2="1605.0" y1="1989.0" y2="2117.0" /><line stroke="#333" stroke-width="10" x1="1477.0" x2="1605.0" y1="1989.0" y2="1989.0" /><line stroke="#333" stroke-width="10" x1="1477.0" x2="1477.0" y1="2117.0" y2="1989.0" /><line stroke="#333" stroke-width="10" x1="1605.0" x2="1477.0" y1="3141.0" y2="3141.0" /><line stroke="#333" stroke-width="10" x1="1605.0" x2="1605.0" y1="3013.0" y2="3141.0" /><line stroke="#333" stroke-width="10" x1="1477.0" x2="1605.0" y1="3013.0" y2="3013.0" /><line stroke="#333" stroke-width="10" x1="1477.0" x2="1477.0" y1="3141.0" y2="3013.0" /><line stroke="#333" stroke-width="10" x1="581.0" x2="453.0" y1="3141.0" y2="3141.0" /><line stroke="#333" stroke-width="10" x1="581.0" x2="581.0" y1="3013.0" y2="3141.0" /><line stroke="#333" stroke-width="10" x1="453.0" x2="581.0" y1="3013.0" y2="3013.0" /><line stroke="#333" stroke-width="10" x1="453.0" x2="453.0" y1="3141.0" y2="3013.0" /><line stroke="#333" stroke-width="10" x1="1093.0" x2="965.0" y1="3141.0" y2="3141.0" /><line stroke="#333" stroke-width="10" x1="1093.0" x2="1093.0" y1="3013.0" y2="3141.0" /><line stroke="#333" stroke-width="10" x1="965.0" x2="1093.0" y1="3013.0" y2="3013.0" /><line stroke="#333" stroke-width="10" x1="965.0" x2="965.0" y1="3141.0" y2="3013.0" /><line stroke="#333" stroke-width="10" x1="1093.0" x2="965.0" y1="2117.0" y2="2117.0" /><line stroke="#333" stroke-width="10" x1="1093.0" x2="1093.0" y1="1989.0" y2="2117.0" /><line stroke="#333" stroke-width="10" x1="965.0" x2="1093.0" y1="1989.0" y2="1989.0" /><line stroke="#333" stroke-width="10" x1="965.0" x2="965.0" y1="2117.0" y2="1989.0" /><line stroke="#333" stroke-width="10" x1="1605.0" x2="1477.0" y1="2629.0" y2="2629.0" /><line stroke="#333" stroke-width="10" x1="1605.0" x2="1605.0" y1="2501.0" y2="2629.0" /><line stroke="#333" stroke-width="10" x1="1477.0" x2="1605.0" y1="2501.0" y2="2501.0" /><line stroke="#333" stroke-width="10" x1="1477.0" x2="1477.0" y1="2629.0" y2="2501.0" /><line stroke="#333" stroke-width="10" x1="581.0" x2="453.0" y1="2629.0" y2="2629.0" /><line stroke="#333" stroke-width="10" x1="581.0" x2="581.0" y1="2501.0" y2="2629.0" /><line stroke="#333" stroke-width="10" x1="453.0" x2="581.0" y1="2501.0" y2="2501.0" /><line stroke="#333" stroke-width="10" x1="453.0" x2="453.0" y1="2629.0" y2="2501.0" /><line stroke="#999" stroke-width="3" x1="389.0" x2="1669.0" y1="1925.0" y2="1925.0" /><line stroke="#999" stroke-width="3" x1="1669.0" x2="1669.0" y1="1925.0" y2="3205.0" /><line stroke="#999" stroke-width="3" x1="1669.0" x2="389.0" y1="3205.0" y2="3205.0" /><line stroke="#999" stroke-width="3" x1="389.0" x2="389.0" y1="3205.0" y2="1925.0" /><line stroke="#999" stroke-width="3" x1="1413.0" x2="645.0" y1="2181.0" y2="2181.0" /><line stroke="#999" stroke-width="3" x1="1413.0" x2="1413.0" y1="2949.0" y2="2181.0" /><line stroke="#999" stroke-width="3" x1="645.0" x2="1413.0" y1="2949.0" y2="2949.0" /><line stroke="#999" stroke-width="3" x1="645.0" x2="645.0" y1="2181.0" y2="2949.0" /><line stroke="#999" stroke-width="3" x1="1861.0" x2="1093.0" y1="1669.0" y2="1605.0" /><line stroke="#999" stroke-width="3" x1="1541.0" x2="1989.0" y1="3589.0" y2="3141.0" /><line stroke="#999" stroke-width="3" x1="69.0" x2="517.0" y1="3141.0" y2="3589.0" /><line stroke="#999" stroke-width="3" x1="197.0" x2="69.0" y1="1669.0" y2="2501.0" /><line stroke="#999" stroke-width="3" x1="517.0" x2="1541.0" y1="3589.0" y2="3589.0" /><line stroke="#999" stroke-width="3" x1="69.0" x2="69.0" y1="2501.0" y2="3141.0" /><line stroke="#999" stroke-width="3" x1="965.0" x2="197.0" y1="1605.0" y2="1669.0" /><line stroke="#999" stroke-width="3" x1="1989.0" x2="1989.0" y1="3141.0" y2="2501.0" /><line stroke="#999" stroke-width="3" x1="1989.0" x2="1861.0" y1="2501.0" y2="1669.0" /><line stroke="#999" stroke-width="3" x1="1093.0" x2="965.0" y1="1605.0" y2="1605.0" /><line stroke="#333" stroke-width="10" x1="773.0" x2="837.0" y1="1349.0" y2="1349.0" /><line stroke="#333" stroke-width="10" x1="773.0" x2="581.0" y1="1221.0" y2="1221.0" /><line stroke="#999" stroke-width="3" x1="773.0" x2="773.0" y1="1349.0" y2="1221.0" /><line stroke="#333" stroke-width="10" x1="581.0" x2="581.0" y1="1221.0" y2="837.0" /><line stroke="#333" stroke-width="10" x1="2053.0" x2="5.0" y1="5.0" y2="5.0" /><line stroke="#333" stroke-width="10" x1="5.0" x2="5.0" y1="5.0" y2="837.0" /><line stroke="#333" stroke-width="10" x1="581.0" x2="2053.0" y1="837.0" y2="837.0" /><line stroke="#333" stroke-width="10" x1="2053.0" x2="2053.0" y1="837.0" y2="5.0" /><line stroke="#333" stroke-width="10" x1="5.0" x2="197.0" y1="837.0" y2="837.0" /><line stroke="#333" stroke-width="10" x1="1797.0" x2="1861.0" y1="581.0" y2="581.0" /><line stroke="#333" stroke-width="10" x1="1861.0" x2="1861.0" y1="581.0" y2="645.0" /><line stroke="#333" stroke-width="10" x1="1861.0" x2="1797.0" y1="645.0" y2="645.0" /><line stroke="#333" stroke-width="10" x1="1797.0" x2="1797.0" y1="645.0" y2="581.0" /><line stroke="#333" stroke-width="10" x1="1861.0" x2="1861.0" y1="197.0" y2="261.0" /><line stroke="#333" stroke-width="10" x1="1797.0" x2="1797.0" y1="261.0" y2="197.0" /><line stroke="#333" stroke-width="10" x1="1861.0" x2="1797.0" y1="261.0" y2="261.0" /><line stroke="#333" stroke-width="10" x1="1797.0" x2="1861.0" y1="197.0" y2="197.0" /><line stroke="#333" stroke-width="10" x1="261.0" x2="261.0" y1="197.0" y2="261.0" /><line stroke="#333" stroke-width="10" x1="197.0" x2="197.0" y1="261.0" y2="197.0" /><line stroke="#333" stroke-width="10" x1="261.0" x2="197.0" y1="261.0" y2="261.0" /><line stroke="#333" stroke-width="10" x1="197.0" x2="261.0" y1="197.0" y2="197.0" /><line stroke="#333" stroke-width="10" x1="261.0" x2="261.0" y1="581.0" y2="645.0" /><line stroke="#333" stroke-width="10" x1="197.0" x2="197.0" y1="645.0" y2="581.0" /><line stroke="#333" stroke-width="10" x1="261.0" x2="197.0" y1="645.0" y2="645.0" /><line stroke="#333" stroke-width="10" x1="197.0" x2="261.0" y1="581.0" y2="581.0" /><line stroke="#333" stroke-width="10" x1="517.0" x2="517.0" y1="581.0" y2="645.0" /><line stroke="#333" stroke-width="10" x1="453.0" x2="453.0" y1="645.0" y2="581.0" /><line stroke="#333" stroke-width="10" x1="517.0" x2="453.0" y1="645.0" y2="645.0" /><line stroke="#333" stroke-width="10" x1="453.0" x2="517.0" y1="581.0" y2="581.0" /><line stroke="#333" stroke-width="10" x1="773.0" x2="773.0" y1="581.0" y2="645.0" /><line stroke="#333" stroke-width="10" x1="709.0" x2="709.0" y1="645.0" y2="581.0" /><line stroke="#333" stroke-width="10" x1="773.0" x2="709.0" y1="645.0" y2="645.0" /><line stroke="#333" stroke-width="10" x1="709.0" x2="773.0" y1="581.0" y2="581.0" /><line stroke="#333" stroke-width="10" x1="1061.0" x2="1061.0" y1="581.0" y2="645.0" /><line stroke="#333" stroke-width="10" x1="997.0" x2="997.0" y1="645.0" y2="581.0" /><line stroke="#333" stroke-width="10" x1="1061.0" x2="997.0" y1="645.0" y2="645.0" /><line stroke="#333" stroke-width="10" x1="997.0" x2="1061.0" y1="581.0" y2="581.0" /><line stroke="#333" stroke-width="10" x1="1349.0" x2="1349.0" y1="581.0" y2="645.0" /><line stroke="#333" stroke-width="10" x1="1285.0" x2="1285.0" y1="645.0" y2="581.0" /><line stroke="#333" stroke-width="10" x1="1349.0" x2="1285.0" y1="645.0" y2="645.0" /><line stroke="#333" stroke-width="10" x1="1285.0" x2="1349.0" y1="581.0" y2="581.0" /><line stroke="#333" stroke-width="10" x1="1605.0" x2="1605.0" y1="581.0" y2="645.0" /><line stroke="#333" stroke-width="10" x1="1541.0" x2="1541.0" y1="645.0" y2="581.0" /><line stroke="#333" stroke-width="10" x1="1605.0" x2="1541.0" y1="645.0" y2="645.0" /><line stroke="#333" stroke-width="10" x1="1541.0" x2="1605.0" y1="581.0" y2="581.0" /><line stroke="#333" stroke-width="10" x1="1605.0" x2="1605.0" y1="197.0" y2="261.0" /><line stroke="#333" stroke-width="10" x1="1541.0" x2="1541.0" y1="261.0" y2="197.0" /><line stroke="#333" stroke-width="10" x1="1605.0" x2="1541.0" y1="261.0" y2="261.0" /><line stroke="#333" stroke-width="10" x1="1541.0" x2="1605.0" y1="197.0" y2="197.0" /><line stroke="#333" stroke-width="10" x1="1349.0" x2="1349.0" y1="197.0" y2="261.0" /><line stroke="#333" stroke-width="10" x1="1285.0" x2="1285.0" y1="261.0" y2="197.0" /><line stroke="#333" stroke-width="10" x1="1349.0" x2="1285.0" y1="261.0" y2="261.0" /><line stroke="#333" stroke-width="10" x1="1285.0" x2="1349.0" y1="197.0" y2="197.0" /><line stroke="#333" stroke-width="10" x1="517.0" x2="517.0" y1="197.0" y2="261.0" /><line stroke="#333" stroke-width="10" x1="453.0" x2="453.0" y1="261.0" y2="197.0" /><line stroke="#333" stroke-width="10" x1="517.0" x2="453.0" y1="261.0" y2="261.0" /><line stroke="#333" stroke-width="10" x1="453.0" x2="517.0" y1="197.0" y2="197.0" /><line stroke="#333" stroke-width="10" x1="773.0" x2="773.0" y1="197.0" y2="261.0" /><line stroke="#333" stroke-width="10" x1="709.0" x2="709.0" y1="261.0" y2="197.0" /><line stroke="#333" stroke-width="10" x1="773.0" x2="709.0" y1="261.0" y2="261.0" /><line stroke="#333" stroke-width="10" x1="709.0" x2="773.0" y1="197.0" y2="197.0" /><line stroke="#333" stroke-width="10" x1="1061.0" x2="1061.0" y1="197.0" y2="261.0" /><line stroke="#333" stroke-width="10" x1="997.0" x2="997.0" y1="261.0" y2="197.0" /><line stroke="#333" stroke-width="10" x1="1061.0" x2="997.0" y1="261.0" y2="261.0" /><line stroke="#333" stroke-width="10" x1="997.0" x2="1061.0" y1="197.0" y2="197.0" /><line stroke="#999" stroke-width="3" x1="261.0" x2="197.0" y1="645.0" y2="837.0" /><line stroke="#999" stroke-width="3" x1="453.0" x2="261.0" y1="645.0" y2="645.0" /><line stroke="#999" stroke-width="3" x1="517.0" x2="581.0" y1="645.0" y2="837.0" /><line stroke="#333" stroke-width="10" x1="1197.0" x2="1157.0" y1="1093.0" y2="1093.0" /><line stroke="#333" stroke-width="10" x1="1221.0" x2="1197.0" y1="1117.0" y2="1117.0" /><line stroke="#333" stroke-width="10" x1="861.0" x2="861.0" y1="1093.0" y2="1117.0" /><line stroke="#333" stroke-width="10" x1="837.0" x2="837.0" y1="1117.0" y2="1221.0" /><ellipse cx="1061.0" cy="933.0" fill="#009" rx="12" ry="24" stroke="#009" stroke-width="5" /><ellipse cx="997.0" cy="933.0" fill="#009" rx="12" ry="24" stroke="#009" stroke-width="5" /><ellipse cx="1093.0" cy="1029.0" fill="#009" rx="12" ry="24" stroke="#009" stroke-width="5" /><ellipse cx="965.0" cy="1029.0" fill="#009" rx="12" ry="24" stroke="#009" stroke-width="5" /><rect fill="#090" height="24" stroke="#090" stroke-width="5" transform="rotate(45,165.0,1637.0)" width="24" x="153.0" y="1625.0" /><rect fill="#090" height="24" stroke="#090" stroke-width="5" transform="rotate(45,37.0,37.0)" width="24" x="25.0" y="25.0" /><rect fill="#090" height="24" stroke="#090" stroke-width="5" transform="rotate(270,549.0,3621.0)" width="24" x="537.0" y="3609.0" /><rect fill="#090" height="24" stroke="#090" stroke-width="5" transform="rotate(315,37.0,805.0)" width="24" x="25.0" y="793.0" /><rect fill="#090" height="24" stroke="#090" stroke-width="5" transform="rotate(135,2021.0,37.0)" width="24" x="2009.0" y="25.0" /><rect fill="#090" height="24" stroke="#090" stroke-width="5" transform="rotate(90,1029.0,965.0)" width="24" x="1017.0" y="953.0" /><rect fill="#090" height="24" stroke="#090" stroke-width="5" transform="rotate(225,2021.0,805.0)" width="24" x="2009.0" y="793.0" /><rect fill="#090" height="24" stroke="#090" stroke-width="5" transform="rotate(135,1893.0,1637.0)" width="24" x="1881.0" y="1625.0" /><rect fill="#090" height="24" stroke="#090" stroke-width="5" transform="rotate(180,1349.0,1285.0)" width="24" x="1337.0" y="1273.0" /><rect fill="#090" height="24" stroke="#090" stroke-width="5" transform="rotate(270,1509.0,3621.0)" width="24" x="1497.0" y="3609.0" /><circle cx="997.0" cy="1189.0" fill="#900" r="16" stroke="#900" stroke-width="5" /><rect fill="#090" height="24" stroke="#090" stroke-width="5" transform="rotate(90,1029.0,1125.0)" width="24" x="1017.0" y="1113.0" /><circle cx="1061.0" cy="1189.0" fill="#090" r="16" stroke="#090" stroke-width="5" /><rect fill="#900" height="48" stroke="#900" stroke-width="5" transform="rotate(270,1029.0,3269.0)" width="32" x="1013.0" y="3245.0" /><rect fill="#900" height="48" stroke="#900" stroke-width="5" transform="rotate(270,1541.0,3269.0)" width="32" x="1525.0" y="3245.0" /><rect fill="#900" height="48" stroke="#900" stroke-width="5" transform="rotate(270,517.0,3269.0)" width="32" x="501.0" y="3245.0" /><rect fill="#900" height="48" stroke="#900" stroke-width="5" transform="rotate(270,453.0,2757.0)" width="32" x="437.0" y="2733.0" /><rect fill="#900" height="48" stroke="#900" stroke-width="5" transform="rotate(270,1605.0,2757.0)" width="32" x="1589.0" y="2733.0" /><rect fill="#900" height="48" stroke="#900" stroke-width="5" transform="rotate(270,1605.0,2245.0)" width="32" x="1589.0" y="2221.0" /><rect fill="#900" height="48" stroke="#900" stroke-width="5" transform="rotate(270,453.0,2245.0)" width="32" x="437.0" y="2221.0" /><rect fill="#900" height="48" stroke="#900" stroke-width="5" transform="rotate(270,1029.0,2245.0)" width="32" x="1013.0" y="2221.0" /><rect fill="#900" height="48" stroke="#900" stroke-width="5" transform="rotate(270,453.0,3397.0)" width="32" x="437.0" y="3373.0" /><rect fill="#900" height="48" stroke="#900" stroke-width="5" transform="rotate(270,1605.0,3397.0)" width="32" x="1589.0" y="3373.0" /><rect fill="#900" height="48" stroke="#900" stroke-width="5" transform="rotate(270,1029.0,3397.0)" width="32" x="1013.0" y="3373.0" /><rect fill="#900" height="48" stroke="#900" stroke-width="5" transform="rotate(270,1669.0,2885.0)" width="32" x="1653.0" y="2861.0" /><rect fill="#900" height="48" stroke="#900" stroke-width="5" transform="rotate(270,1669.0,2373.0)" width="32" x="1653.0" y="2349.0" /><rect fill="#900" height="48" stroke="#900" stroke-width="5" transform="rotate(270,1029.0,2373.0)" width="32" x="1013.0" y="2349.0" /><rect fill="#900" height="48" stroke="#900" stroke-width="5" transform="rotate(270,389.0,2373.0)" width="32" x="373.0" y="2349.0" /><rect fill="#900" height="48" stroke="#900" stroke-width="5" transform="rotate(270,389.0,2885.0)" width="32" x="373.0" y="2861.0" /><rect fill="#900" height="48" stroke="#900" stroke-width="5" transform="rotate(180,1989.0,453.0)" width="32" x="1973.0" y="429.0" /><rect fill="#900" height="48" stroke="#900" stroke-width="5" transform="rotate(180,1989.0,197.0)" width="32" x="1973.0" y="173.0" /><rect fill="#900" height="48" stroke="#900" stroke-width="5" transform="rotate(180,1733.0,197.0)" width="32" x="1717.0" y="173.0" /><rect fill="#900" height="48" stroke="#900" stroke-width="5" transform="rotate(180,1861.0,325.0)" width="32" x="1845.0" y="301.0" /><rect fill="#900" height="48" stroke="#900" stroke-width="5" transform="rotate(180,1733.0,453.0)" width="32" x="1717.0" y="429.0" /><rect fill="#900" height="48" stroke="#900" stroke-width="5" transform="rotate(180,1605.0,325.0)" width="32" x="1589.0" y="301.0" /><rect fill="#900" height="48" stroke="#900" stroke-width="5" transform="rotate(180,1605.0,69.0)" width="32" x="1589.0" y="45.0" /><rect fill="#900" height="48" stroke="#900" stroke-width="5" transform="rotate(180,1477.0,197.0)" width="32" x="1461.0" y="173.0" /><rect fill="#900" height="48" stroke="#900" stroke-width="5" transform="rotate(180,1349.0,69.0)" width="32" x="1333.0" y="45.0" /><rect fill="#900" height="48" stroke="#900" stroke-width="5" transform="rotate(180,1989.0,709.0)" width="32" x="1973.0" y="685.0" /><rect fill="#900" height="48" stroke="#900" stroke-width="5" transform="rotate(180,1477.0,709.0)" width="32" x="1461.0" y="685.0" /><rect fill="#900" height="48" stroke="#900" stroke-width="5" transform="rotate(180,1861.0,69.0)" width="32" x="1845.0" y="45.0" /><rect fill="#900" height="48" stroke="#900" stroke-width="5" transform="rotate(180,1477.0,453.0)" width="32" x="1461.0" y="429.0" /><rect fill="#900" height="48" stroke="#900" stroke-width="5" transform="rotate(180,1733.0,709.0)" width="32" x="1717.0" y="685.0" /><circle cx="517.0" cy="2309.0" fill="#090" r="16" stroke="#090" stroke-width="5" /><circle cx="773.0" cy="3077.0" fill="#090" r="16" stroke="#090" stroke-width="5" /><circle cx="1541.0" cy="2821.0" fill="#090" r="16" stroke="#090" stroke-width="5" /><circle cx="1285.0" cy="2053.0" fill="#090" r="16" stroke="#090" stroke-width="5" /><circle cx="1285.0" cy="3077.0" fill="#090" r="16" stroke="#090" stroke-width="5" /><circle cx="1541.0" cy="2245.0" fill="#090" r="16" stroke="#090" stroke-width="5" /><circle cx="773.0" cy="2053.0" fill="#090" r="16" stroke="#090" stroke-width="5" /><circle cx="517.0" cy="2821.0" fill="#090" r="16" stroke="#090" stroke-width="5" /><circle cx="133.0" cy="389.0" fill="#090" r="16" stroke="#090" stroke-width="5" /><circle cx="1861.0" cy="389.0" fill="#090" r="16" stroke="#090" stroke-width="5" /><circle cx="965.0" cy="389.0" fill="#090" r="16" stroke="#090" stroke-width="5" /><circle cx="1413.0" cy="389.0" fill="#090" r="16" stroke="#090" stroke-width="5" /><circle cx="581.0" cy="389.0" fill="#090" r="16" stroke="#090" stroke-width="5" /><circle cx="1221.0" cy="709.0" fill="#090" r="16" stroke="#090" stroke-width="5" /><circle cx="1733.0" cy="69.0" fill="#090" r="16" stroke="#090" stroke-width="5" /><circle cx="453.0" cy="69.0" fill="#090" r="16" stroke="#090" stroke-width="5" /><circle cx="261.0" cy="3205.0" fill="#090" r="16" stroke="#090" stroke-width="5" /><circle cx="1733.0" cy="1797.0" fill="#090" r="16" stroke="#090" stroke-width="5" /><circle cx="1733.0" cy="3269.0" fill="#090" r="16" stroke="#090" stroke-width="5" /><circle cx="261.0" cy="1797.0" fill="#090" r="16" stroke="#090" stroke-width="5" /><circle cx="517.0" cy="709.0" fill="#090" r="16" stroke="#090" stroke-width="5" /><circle cx="1157.0" cy="69.0" fill="#090" r="16" stroke="#090" stroke-width="5" /><circle cx="773.0" cy="389.0" fill="#900" r="16" stroke="#900" stroke-width="5" /><circle cx="1605.0" cy="389.0" fill="#900" r="16" stroke="#900" stroke-width="5" /><circle cx="1061.0" cy="2565.0" fill="#900" r="16" stroke="#900" stroke-width="5" /><circle cx="1541.0" cy="2373.0" fill="#900" r="16" stroke="#900" stroke-width="5" /><circle cx="1413.0" cy="1285.0" fill="#009" r="16" stroke="#009" stroke-width="5" /><circle cx="1029.0" cy="1253.0" fill="#009" r="16" stroke="#009" stroke-width="5" /><circle cx="997.0" cy="2565.0" fill="#009" r="16" stroke="#009" stroke-width="5" /><circle cx="613.0" cy="2085.0" fill="#009" r="16" stroke="#009" stroke-width="5" /><circle cx="613.0" cy="2021.0" fill="#009" r="16" stroke="#009" stroke-width="5" /><circle cx="613.0" cy="2053.0" fill="#009" r="16" stroke="#009" stroke-width="5" /><circle cx="1509.0" cy="2149.0" fill="#009" r="16" stroke="#009" stroke-width="5" /><circle cx="1541.0" cy="2149.0" fill="#009" r="16" stroke="#009" stroke-width="5" /><circle cx="1573.0" cy="2149.0" fill="#009" r="16" stroke="#009" stroke-width="5" /><circle cx="1445.0" cy="3109.0" fill="#009" r="16" stroke="#009" stroke-width="5" /><circle cx="1445.0" cy="3077.0" fill="#009" r="16" stroke="#009" stroke-width="5" /><circle cx="1445.0" cy="3045.0" fill="#009" r="16" stroke="#009" stroke-width="5" /><circle cx="549.0" cy="2981.0" fill="#009" r="16" stroke="#009" stroke-width="5" /><circle cx="517.0" cy="2981.0" fill="#009" r="16" stroke="#009" stroke-width="5" /><circle cx="485.0" cy="2981.0" fill="#009" r="16" stroke="#009" stroke-width="5" /><circle cx="517.0" cy="2469.0" fill="#009" r="16" stroke="#009" stroke-width="5" /><circle cx="549.0" cy="2469.0" fill="#009" r="16" stroke="#009" stroke-width="5" /><circle cx="485.0" cy="2469.0" fill="#009" r="16" stroke="#009" stroke-width="5" /><circle cx="1125.0" cy="2053.0" fill="#009" r="16" stroke="#009" stroke-width="5" /><circle cx="1125.0" cy="2085.0" fill="#009" r="16" stroke="#009" stroke-width="5" /><circle cx="1125.0" cy="2021.0" fill="#009" r="16" stroke="#009" stroke-width="5" /><circle cx="1541.0" cy="2661.0" fill="#009" r="16" stroke="#009" stroke-width="5" /><circle cx="1573.0" cy="2661.0" fill="#009" r="16" stroke="#009" stroke-width="5" /><circle cx="1509.0" cy="2661.0" fill="#009" r="16" stroke="#009" stroke-width="5" /><circle cx="933.0" cy="3077.0" fill="#009" r="16" stroke="#009" stroke-width="5" /><circle cx="933.0" cy="3109.0" fill="#009" r="16" stroke="#009" stroke-width="5" /><circle cx="933.0" cy="3045.0" fill="#009" r="16" stroke="#009" stroke-width="5" /><circle cx="517.0" cy="3173.0" fill="#009" r="16" stroke="#009" stroke-width="5" /><circle cx="421.0" cy="2053.0" fill="#009" r="16" stroke="#009" stroke-width="5" /><circle cx="1541.0" cy="1957.0" fill="#009" r="16" stroke="#009" stroke-width="5" /><circle cx="1541.0" cy="3173.0" fill="#009" r="16" stroke="#009" stroke-width="5" /><circle cx="229.0" cy="549.0" fill="#009" r="16" stroke="#009" stroke-width="5" /><circle cx="741.0" cy="293.0" fill="#009" r="16" stroke="#009" stroke-width="5" /><circle cx="1317.0" cy="549.0" fill="#009" r="16" stroke="#009" stroke-width="5" /><circle cx="1829.0" cy="293.0" fill="#009" r="16" stroke="#009" stroke-width="5" /><rect fill="#090" height="24" stroke="#090" stroke-width="5" transform="rotate(90,1157.0,1413.0)" width="24" x="1145.0" y="1401.0" /><rect fill="#090" height="24" stroke="#090" stroke-width="5" transform="rotate(90,549.0,1765.0)" width="24" x="537.0" y="1753.0" /><rect fill="#090" height="24" stroke="#090" stroke-width="5" transform="rotate(90,805.0,2661.0)" width="24" x="793.0" y="2649.0" /><rect fill="#090" height="24" stroke="#090" stroke-width="5" transform="rotate(90,1413.0,3365.0)" width="24" x="1401.0" y="3353.0" /><rect fill="#090" height="24" stroke="#090" stroke-width="5" transform="rotate(90,1893.0,2341.0)" width="24" x="1881.0" y="2329.0" /><rect fill="#090" height="24" stroke="#090" stroke-width="5" transform="rotate(90,1509.0,1733.0)" width="24" x="1497.0" y="1721.0" /><rect fill="#090" height="24" stroke="#090" stroke-width="5" transform="rotate(90,261.0,2981.0)" width="24" x="249.0" y="2969.0" /><rect fill="#090" height="24" stroke="#090" stroke-width="5" transform="rotate(90,773.0,3397.0)" width="24" x="761.0" y="3385.0" /><rect fill="#090" height="24" stroke="#090" stroke-width="5" transform="rotate(90,485.0,453.0)" width="24" x="473.0" y="441.0" /><rect fill="#090" height="24" stroke="#090" stroke-width="5" transform="rotate(90,1221.0,389.0)" width="24" x="1209.0" y="377.0" /><rect fill="#090" height="24" stroke="#090" stroke-width="5" transform="rotate(90,1701.0,101.0)" width="24" x="1689.0" y="89.0" /><rect fill="#090" height="24" stroke="#090" stroke-width="5" transform="rotate(90,1861.0,517.0)" width="24" x="1849.0" y="505.0" /><rect fill="#090" height="24" stroke="#090" stroke-width="5" transform="rotate(90,1733.0,677.0)" width="24" x="1721.0" y="665.0" /><rect fill="#090" height="24" stroke="#090" stroke-width="5" transform="rotate(90,613.0,69.0)" width="24" x="601.0" y="57.0" /><rect fill="#090" height="24" stroke="#090" stroke-width="5" transform="rotate(90,901.0,709.0)" width="24" x="889.0" y="697.0" /><rect fill="#090" height="24" stroke="#090" stroke-width="5" transform="rotate(90,293.0,69.0)" width="24" x="281.0" y="57.0" /><rect fill="#090" height="24" stroke="#090" stroke-width="5" transform="rotate(90,1381.0,101.0)" width="24" x="1369.0" y="89.0" /><rect fill="#090" height="24" stroke="#090" stroke-width="5" transform="rotate(90,1637.0,453.0)" width="24" x="1625.0" y="441.0" /><rect fill="#090" height="24" stroke="#090" stroke-width="5" transform="rotate(90,1093.0,1829.0)" width="24" x="1081.0" y="1817.0" /><rect fill="#090" height="24" stroke="#090" stroke-width="5" transform="rotate(90,1221.0,2565.0)" width="24" x="1209.0" y="2553.0" /><rect fill="#090" height="24" stroke="#090" stroke-width="5" transform="rotate(90,773.0,2373.0)" width="24" x="761.0" y="2361.0" /><rect fill="#090" height="24" stroke="#090" stroke-width="5" transform="rotate(90,645.0,3205.0)" width="24" x="633.0" y="3193.0" /><rect fill="#090" height="24" stroke="#090" stroke-width="5" transform="rotate(90,1509.0,2853.0)" width="24" x="1497.0" y="2841.0" /><rect fill="#090" height="24" stroke="#090" stroke-width="5" transform="rotate(90,709.0,1285.0)" width="24" x="697.0" y="1273.0" /><rect fill="#090" height="24" stroke="#090" stroke-width="5" transform="rotate(90,805.0,1285.0)" width="24" x="793.0" y="1273.0" /><rect fill="#090" height="24" stroke="#090" stroke-width="5" transform="rotate(90,1445.0,1285.0)" width="24" x="1433.0" y="1273.0" /><circle cx="997.0" cy="1317.0" fill="#090" r="16" stroke="#090" stroke-width="5" /><circle cx="1061.0" cy="1317.0" fill="#090" r="16" stroke="#090" stroke-width="5" /><circle cx="901.0" cy="101.0" fill="#090" r="16" stroke="#090" stroke-width="5" /><circle cx="1893.0" cy="741.0" fill="#090" r="16" stroke="#090" stroke-width="5" /><circle cx="677.0" cy="3077.0" fill="#900" r="16" stroke="#900" stroke-width="5" /></svg>