<?xml version="1.0" encoding="utf-8" ?>
<svg baseProfile="tiny" height="904" version="1.2" viewBox="0 0 2186 1930" width="1024" xmlns="http://www.w3.org/2000/svg" xmlns:ev="http://www.w3.org/2001/xml-events" xmlns:xlink="http://www.w3.org/1999/xlink"><defs /><line stroke="#999" stroke-width="3" x1="325.0" x2="357.0" y1="1157.0" y2="1157.0" /><line stroke="#333" stroke-width="10" x1="837.0" x2="837.0" y1="1157.0" y2="901.0" /><line stroke="#333" stroke-width="10" x1="837.0" x2="741.0" y1="133.0" y2="133.0" /><line stroke="#333" stroke-width="10" x1="325.0" x2="325.0" y1="133.0" y2="453.0" /><line stroke="#333" stroke-width="10" x1="837.0" x2="837.0" y1="645.0" y2="581.0" /><line stroke="#999" stroke-width="3" x1="837.0" x2="837.0" y1="901.0" y2="645.0" /><line stroke="#333" stroke-width="10" x1="325.0" x2="325.0" y1="645.0" y2="741.0" /><line stroke="#333" stroke-width="10" x1="325.0" x2="325.0" y1="901.0" y2="965.0" /><line stroke="#999" stroke-width="3" x1="325.0" x2="517.0" y1="901.0" y2="901.0" /><line stroke="#999" stroke-width="3" x1="837.0" x2="645.0" y1="645.0" y2="645.0" /><line stroke="#999" stroke-width="3" x1="645.0" x2="645.0" y1="645.0" y2="637.0" /><line stroke="#999" stroke-width="3" x1="517.0" x2="325.0" y1="645.0" y2="645.0" /><line stroke="#999" stroke-width="3" x1="645.0" x2="517.0" y1="133.0" y2="133.0" /><line stroke="#333" stroke-width="10" x1="517.0" x2="453.0" y1="133.0" y2="133.0" /><line stroke="#999" stroke-width="3" x1="517.0" x2="517.0" y1="637.0" y2="645.0" /><line stroke="#999" stroke-width="3" x1="645.0" x2="517.0" y1="637.0" y2="637.0" /><line stroke="#999" stroke-width="3" x1="517.0" x2="517.0" y1="133.0" y2="613.0" /><line stroke="#999" stroke-width="3" x1="645.0" x2="645.0" y1="637.0" y2="613.0" /><line stroke="#333" stroke-width="10" x1="517.0" x2="517.0" y1="125.0" y2="133.0" /><line stroke="#333" stroke-width="10" x1="645.0" x2="517.0" y1="125.0" y2="125.0" /><line stroke="#333" stroke-width="10" x1="645.0" x2="645.0" y1="133.0" y2="125.0" /><line stroke="#999" stroke-width="3" x1="709.0" x2="773.0" y1="1157.0" y2="1157.0" /><line stroke="#333" stroke-width="10" x1="773.0" x2="837.0" y1="1157.0" y2="1157.0" /><line stroke="#333" stroke-width="10" x1="773.0" x2="773.0" y1="1181.0" y2="1157.0" /><line stroke="#333" stroke-width="10" x1="773.0" x2="773.0" y1="1197.0" y2="1181.0" /><line stroke="#333" stroke-width="10" x1="773.0" x2="773.0" y1="1221.0" y2="1197.0" /><line stroke="#333" stroke-width="10" x1="837.0" x2="773.0" y1="1221.0" y2="1221.0" /><line stroke="#333" stroke-width="10" x1="837.0" x2="837.0" y1="1413.0" y2="1221.0" /><line stroke="#333" stroke-width="10" x1="773.0" x2="837.0" y1="1413.0" y2="1413.0" /><line stroke="#0d0" stroke-width="20" x1="709.0" x2="773.0" y1="1413.0" y2="1413.0" /><line stroke="#333" stroke-width="10" x1="645.0" x2="709.0" y1="1413.0" y2="1413.0" /><line stroke="#333" stroke-width="10" x1="645.0" x2="645.0" y1="1221.0" y2="1413.0" /><line stroke="#333" stroke-width="10" x1="709.0" x2="645.0" y1="1221.0" y2="1221.0" /><line stroke="#333" stroke-width="10" x1="709.0" x2="709.0" y1="1197.0" y2="1221.0" /><line stroke="#333" stroke-width="10" x1="709.0" x2="709.0" y1="1181.0" y2="1197.0" /><line stroke="#333" stroke-width="10" x1="709.0" x2="709.0" y1="1157.0" y2="1181.0" /><line stroke="#666" stroke-width="20" x1="709.0" x2="773.0" y1="1181.0" y2="1181.0" /><line stroke="#666" stroke-width="20" x1="773.0" x2="709.0" y1="1197.0" y2="1197.0" /><line stroke="#999" stroke-width="3" x1="773.0" x2="709.0" y1="1221.0" y2="1221.0" /><line stroke="#d00" stroke-width="20" x1="805.0" x2="821.0" y1="1029.0" y2="1029.0" /><line stroke="#999" stroke-width="3" x1="821.0" x2="821.0" y1="1029.0" y2="1045.0" /><line stroke="#999" stroke-width="3" x1="821.0" x2="805.0" y1="1045.0" y2="1045.0" /><line stroke="#d00" stroke-width="20" x1="805.0" x2="805.0" y1="1045.0" y2="1029.0" /><line stroke="#d00" stroke-width="20" x1="661.0" x2="677.0" y1="1077.0" y2="1077.0" /><line stroke="#999" stroke-width="3" x1="677.0" x2="677.0" y1="1077.0" y2="1093.0" /><line stroke="#d00" stroke-width="20" x1="677.0" x2="661.0" y1="1093.0" y2="1093.0" /><line stroke="#d00" stroke-width="20" x1="661.0" x2="661.0" y1="1093.0" y2="1077.0" /><line stroke="#d00" stroke-width="20" x1="661.0" x2="661.0" y1="1141.0" y2="1125.0" /><line stroke="#999" stroke-width="3" x1="677.0" x2="661.0" y1="1141.0" y2="1141.0" /><line stroke="#999" stroke-width="3" x1="677.0" x2="677.0" y1="1125.0" y2="1141.0" /><line stroke="#d00" stroke-width="20" x1="661.0" x2="677.0" y1="1125.0" y2="1125.0" /><line stroke="#d00" stroke-width="20" x1="661.0" x2="677.0" y1="1029.0" y2="1029.0" /><line stroke="#d00" stroke-width="20" x1="677.0" x2="677.0" y1="1029.0" y2="1045.0" /><line stroke="#d00" stroke-width="20" x1="677.0" x2="661.0" y1="1045.0" y2="1045.0" /><line stroke="#d00" stroke-width="20" x1="661.0" x2="661.0" y1="1045.0" y2="1029.0" /><line stroke="#d00" stroke-width="20" x1="709.0" x2="725.0" y1="1029.0" y2="1029.0" /><line stroke="#d00" stroke-width="20" x1="725.0" x2="725.0" y1="1029.0" y2="1045.0" /><line stroke="#999" stroke-width="3" x1="725.0" x2="709.0" y1="1045.0" y2="1045.0" /><line stroke="#d00" stroke-width="20" x1="709.0" x2="709.0" y1="1045.0" y2="1029.0" /><line stroke="#d00" stroke-width="20" x1="757.0" x2="773.0" y1="1029.0" y2="1029.0" /><line stroke="#d00" stroke-width="20" x1="773.0" x2="773.0" y1="1029.0" y2="1045.0" /><line stroke="#999" stroke-width="3" x1="773.0" x2="757.0" y1="1045.0" y2="1045.0" /><line stroke="#d00" stroke-width="20" x1="757.0" x2="757.0" y1="1045.0" y2="1029.0" /><line stroke="#999" stroke-width="3" x1="325.0" x2="325.0" y1="453.0" y2="581.0" /><line stroke="#333" stroke-width="10" x1="325.0" x2="325.0" y1="581.0" y2="645.0" /><line stroke="#333" stroke-width="10" x1="325.0" x2="325.0" y1="1093.0" y2="1157.0" /><line stroke="#999" stroke-width="3" x1="325.0" x2="325.0" y1="965.0" y2="1093.0" /><line stroke="#333" stroke-width="10" x1="29.0" x2="29.0" y1="1069.0" y2="1093.0" /><line stroke="#333" stroke-width="10" x1="29.0" x2="5.0" y1="477.0" y2="477.0" /><line stroke="#333" stroke-width="10" x1="325.0" x2="301.0" y1="453.0" y2="453.0" /><line stroke="#333" stroke-width="10" x1="133.0" x2="133.0" y1="965.0" y2="933.0" /><line stroke="#333" stroke-width="10" x1="325.0" x2="301.0" y1="965.0" y2="965.0" /><line stroke="#333" stroke-width="10" x1="133.0" x2="197.0" y1="581.0" y2="581.0" /><line stroke="#333" stroke-width="10" x1="301.0" x2="325.0" y1="1093.0" y2="1093.0" /><line stroke="#333" stroke-width="10" x1="301.0" x2="229.0" y1="965.0" y2="965.0" /><line stroke="#333" stroke-width="10" x1="301.0" x2="325.0" y1="581.0" y2="581.0" /><line stroke="#333" stroke-width="10" x1="301.0" x2="229.0" y1="453.0" y2="453.0" /><line stroke="#333" stroke-width="10" x1="133.0" x2="133.0" y1="901.0" y2="837.0" /><line stroke="#333" stroke-width="10" x1="133.0" x2="133.0" y1="837.0" y2="805.0" /><line stroke="#333" stroke-width="10" x1="133.0" x2="133.0" y1="709.0" y2="645.0" /><line stroke="#333" stroke-width="10" x1="133.0" x2="133.0" y1="645.0" y2="613.0" /><line stroke="#333" stroke-width="10" x1="5.0" x2="5.0" y1="645.0" y2="709.0" /><line stroke="#333" stroke-width="10" x1="5.0" x2="5.0" y1="709.0" y2="741.0" /><line stroke="#333" stroke-width="10" x1="5.0" x2="5.0" y1="901.0" y2="933.0" /><line stroke="#333" stroke-width="10" x1="5.0" x2="5.0" y1="837.0" y2="901.0" /><line stroke="#333" stroke-width="10" x1="5.0" x2="5.0" y1="741.0" y2="805.0" /><line stroke="#333" stroke-width="10" x1="5.0" x2="5.0" y1="613.0" y2="645.0" /><line stroke="#333" stroke-width="10" x1="133.0" x2="133.0" y1="613.0" y2="581.0" /><line stroke="#333" stroke-width="10" x1="133.0" x2="133.0" y1="741.0" y2="709.0" /><line stroke="#333" stroke-width="10" x1="133.0" x2="133.0" y1="805.0" y2="741.0" /><line stroke="#333" stroke-width="10" x1="5.0" x2="5.0" y1="805.0" y2="837.0" /><line stroke="#333" stroke-width="10" x1="5.0" x2="5.0" y1="933.0" y2="1069.0" /><line stroke="#333" stroke-width="10" x1="133.0" x2="133.0" y1="933.0" y2="901.0" /><line stroke="#999" stroke-width="3" x1="5.0" x2="53.0" y1="613.0" y2="629.0" /><line stroke="#999" stroke-width="3" x1="5.0" x2="53.0" y1="805.0" y2="821.0" /><line stroke="#999" stroke-width="3" x1="133.0" x2="85.0" y1="933.0" y2="917.0" /><line stroke="#999" stroke-width="3" x1="133.0" x2="85.0" y1="741.0" y2="725.0" /><line stroke="#999" stroke-width="3" x1="69.0" x2="85.0" y1="677.0" y2="629.0" /><line stroke="#999" stroke-width="3" x1="69.0" x2="53.0" y1="677.0" y2="725.0" /><line stroke="#999" stroke-width="3" x1="69.0" x2="53.0" y1="869.0" y2="917.0" /><line stroke="#999" stroke-width="3" x1="69.0" x2="85.0" y1="869.0" y2="821.0" /><line stroke="#999" stroke-width="3" x1="53.0" x2="69.0" y1="629.0" y2="677.0" /><line stroke="#999" stroke-width="3" x1="53.0" x2="5.0" y1="725.0" y2="741.0" /><line stroke="#999" stroke-width="3" x1="53.0" x2="69.0" y1="821.0" y2="869.0" /><line stroke="#999" stroke-width="3" x1="53.0" x2="5.0" y1="917.0" y2="933.0" /><line stroke="#999" stroke-width="3" x1="85.0" x2="69.0" y1="917.0" y2="869.0" /><line stroke="#999" stroke-width="3" x1="85.0" x2="133.0" y1="821.0" y2="805.0" /><line stroke="#999" stroke-width="3" x1="85.0" x2="69.0" y1="725.0" y2="677.0" /><line stroke="#999" stroke-width="3" x1="85.0" x2="133.0" y1="629.0" y2="613.0" /><line stroke="#333" stroke-width="10" x1="5.0" x2="5.0" y1="477.0" y2="613.0" /><line stroke="#333" stroke-width="10" x1="29.0" x2="29.0" y1="453.0" y2="477.0" /><line stroke="#333" stroke-width="10" x1="5.0" x2="29.0" y1="1069.0" y2="1069.0" /><line stroke="#333" stroke-width="10" x1="29.0" x2="197.0" y1="1093.0" y2="1093.0" /><line stroke="#333" stroke-width="10" x1="1221.0" x2="1189.0" y1="645.0" y2="645.0" /><line stroke="#333" stroke-width="10" x1="1445.0" x2="1509.0" y1="869.0" y2="837.0" /><line stroke="#333" stroke-width="10" x1="837.0" x2="861.0" y1="901.0" y2="901.0" /><line stroke="#333" stroke-width="10" x1="861.0" x2="1093.0" y1="901.0" y2="901.0" /><line stroke="#333" stroke-width="10" x1="861.0" x2="837.0" y1="645.0" y2="645.0" /><line stroke="#333" stroke-width="10" x1="1605.0" x2="1733.0" y1="389.0" y2="389.0" /><line stroke="#333" stroke-width="10" x1="1349.0" x2="1285.0" y1="133.0" y2="197.0" /><line stroke="#999" stroke-width="3" x1="1541.0" x2="1541.0" y1="837.0" y2="709.0" /><line stroke="#333" stroke-width="10" x1="1285.0" x2="1221.0" y1="613.0" y2="645.0" /><line stroke="#333" stroke-width="10" x1="1733.0" x2="1349.0" y1="133.0" y2="133.0" /><line stroke="#999" stroke-width="3" x1="1733.0" x2="1733.0" y1="389.0" y2="133.0" /><line stroke="#333" stroke-width="10" x1="1989.0" x2="1733.0" y1="5.0" y2="133.0" /><line stroke="#333" stroke-width="10" x1="1989.0" x2="2053.0" y1="517.0" y2="453.0" /><line stroke="#333" stroke-width="10" x1="1733.0" x2="1989.0" y1="389.0" y2="517.0" /><line stroke="#999" stroke-width="3" x1="1541.0" x2="1605.0" y1="453.0" y2="389.0" /><line stroke="#999" stroke-width="3" x1="1285.0" x2="1285.0" y1="197.0" y2="325.0" /><line stroke="#333" stroke-width="10" x1="1669.0" x2="1605.0" y1="453.0" y2="389.0" /><line stroke="#333" stroke-width="10" x1="1797.0" x2="1693.0" y1="453.0" y2="453.0" /><line stroke="#333" stroke-width="10" x1="1797.0" x2="1797.0" y1="645.0" y2="453.0" /><line stroke="#333" stroke-width="10" x1="1605.0" x2="1797.0" y1="645.0" y2="645.0" /><line stroke="#333" stroke-width="10" x1="1605.0" x2="1605.0" y1="517.0" y2="541.0" /><line stroke="#333" stroke-width="10" x1="1541.0" x2="1605.0" y1="453.0" y2="517.0" /><line stroke="#999" stroke-width="3" x1="1605.0" x2="1669.0" y1="517.0" y2="453.0" /><line stroke="#333" stroke-width="10" x1="1605.0" x2="1605.0" y1="541.0" y2="645.0" /><line stroke="#333" stroke-width="10" x1="1693.0" x2="1669.0" y1="453.0" y2="453.0" /><line stroke="#333" stroke-width="10" x1="1285.0" x2="1285.0" y1="325.0" y2="485.0" /><line stroke="#999" stroke-width="3" x1="837.0" x2="837.0" y1="581.0" y2="453.0" /><line stroke="#333" stroke-width="10" x1="837.0" x2="837.0" y1="453.0" y2="133.0" /><line stroke="#333" stroke-width="10" x1="1093.0" x2="861.0" y1="453.0" y2="453.0" /><line stroke="#333" stroke-width="10" x1="1285.0" x2="1221.0" y1="197.0" y2="197.0" /><line stroke="#333" stroke-width="10" x1="1221.0" x2="1285.0" y1="325.0" y2="325.0" /><line stroke="#333" stroke-width="10" x1="1221.0" x2="1221.0" y1="581.0" y2="453.0" /><line stroke="#333" stroke-width="10" x1="837.0" x2="861.0" y1="581.0" y2="581.0" /><line stroke="#333" stroke-width="10" x1="1093.0" x2="1093.0" y1="197.0" y2="261.0" /><line stroke="#333" stroke-width="10" x1="1093.0" x2="1093.0" y1="389.0" y2="453.0" /><line stroke="#333" stroke-width="10" x1="1221.0" x2="1221.0" y1="389.0" y2="325.0" /><line stroke="#333" stroke-width="10" x1="1221.0" x2="1221.0" y1="453.0" y2="389.0" /><line stroke="#999" stroke-width="3" x1="1093.0" x2="1221.0" y1="389.0" y2="389.0" /><line stroke="#999" stroke-width="3" x1="1093.0" x2="1221.0" y1="453.0" y2="453.0" /><line stroke="#333" stroke-width="10" x1="861.0" x2="1221.0" y1="581.0" y2="581.0" /><line stroke="#333" stroke-width="10" x1="861.0" x2="837.0" y1="453.0" y2="453.0" /><line stroke="#333" stroke-width="10" x1="1221.0" x2="1157.0" y1="197.0" y2="197.0" /><line stroke="#333" stroke-width="10" x1="1157.0" x2="1093.0" y1="197.0" y2="197.0" /><line stroke="#333" stroke-width="10" x1="1093.0" x2="1093.0" y1="261.0" y2="325.0" /><line stroke="#333" stroke-width="10" x1="1093.0" x2="1093.0" y1="325.0" y2="389.0" /><line stroke="#333" stroke-width="10" x1="1541.0" x2="1541.0" y1="709.0" y2="549.0" /><line stroke="#333" stroke-width="10" x1="1573.0" x2="1541.0" y1="709.0" y2="709.0" /><line stroke="#333" stroke-width="10" x1="1797.0" x2="1573.0" y1="709.0" y2="709.0" /><line stroke="#333" stroke-width="10" x1="1813.0" x2="1797.0" y1="709.0" y2="709.0" /><line stroke="#333" stroke-width="10" x1="1973.0" x2="1813.0" y1="709.0" y2="709.0" /><line stroke="#333" stroke-width="10" x1="2005.0" x2="1973.0" y1="709.0" y2="709.0" /><line stroke="#333" stroke-width="10" x1="2005.0" x2="2005.0" y1="837.0" y2="709.0" /><line stroke="#333" stroke-width="10" x1="1973.0" x2="2005.0" y1="837.0" y2="837.0" /><line stroke="#333" stroke-width="10" x1="1813.0" x2="1973.0" y1="837.0" y2="837.0" /><line stroke="#333" stroke-width="10" x1="1797.0" x2="1813.0" y1="837.0" y2="837.0" /><line stroke="#333" stroke-width="10" x1="1573.0" x2="1797.0" y1="837.0" y2="837.0" /><line stroke="#333" stroke-width="10" x1="1541.0" x2="1573.0" y1="837.0" y2="837.0" /><line stroke="#999" stroke-width="3" x1="1573.0" x2="1573.0" y1="709.0" y2="837.0" /><line stroke="#666" stroke-width="20" x1="1797.0" x2="1797.0" y1="837.0" y2="709.0" /><line stroke="#666" stroke-width="20" x1="1813.0" x2="1813.0" y1="709.0" y2="837.0" /><line stroke="#00d" stroke-width="20" x1="1973.0" x2="1973.0" y1="837.0" y2="709.0" /><line stroke="#333" stroke-width="10" x1="277.0" x2="309.0" y1="949.0" y2="949.0" /><line stroke="#333" stroke-width="10" x1="309.0" x2="309.0" y1="949.0" y2="805.0" /><line stroke="#333" stroke-width="10" x1="309.0" x2="277.0" y1="597.0" y2="597.0" /><line stroke="#999" stroke-width="3" x1="277.0" x2="277.0" y1="597.0" y2="949.0" /><line stroke="#333" stroke-width="10" x1="309.0" x2="309.0" y1="741.0" y2="597.0" /><line stroke="#999" stroke-width="3" x1="309.0" x2="309.0" y1="805.0" y2="741.0" /><line stroke="#999" stroke-width="3" x1="325.0" x2="325.0" y1="741.0" y2="805.0" /><line stroke="#333" stroke-width="10" x1="325.0" x2="325.0" y1="805.0" y2="901.0" /><line stroke="#333" stroke-width="10" x1="325.0" x2="309.0" y1="741.0" y2="741.0" /><line stroke="#333" stroke-width="10" x1="309.0" x2="325.0" y1="805.0" y2="805.0" /><line stroke="#999" stroke-width="3" x1="1573.0" x2="1637.0" y1="229.0" y2="229.0" /><line stroke="#999" stroke-width="3" x1="1637.0" x2="1637.0" y1="229.0" y2="293.0" /><line stroke="#999" stroke-width="3" x1="1637.0" x2="1573.0" y1="293.0" y2="293.0" /><line stroke="#999" stroke-width="3" x1="1573.0" x2="1573.0" y1="293.0" y2="229.0" /><line stroke="#999" stroke-width="3" x1="1093.0" x2="1413.0" y1="1541.0" y2="1669.0" /><line stroke="#999" stroke-width="3" x1="1733.0" x2="1861.0" y1="1669.0" y2="1605.0" /><line stroke="#999" stroke-width="3" x1="1733.0" x2="1413.0" y1="1221.0" y2="1221.0" /><line stroke="#333" stroke-width="10" x1="1093.0" x2="1077.0" y1="1349.0" y2="1365.0" /><line stroke="#999" stroke-width="3" x1="1413.0" x2="1093.0" y1="1221.0" y2="1349.0" /><line stroke="#999" stroke-width="3" x1="1413.0" x2="1733.0" y1="1669.0" y2="1669.0" /><line stroke="#00d" stroke-width="20" x1="1029.0" x2="1029.0" y1="1413.0" y2="1477.0" /><line stroke="#333" stroke-width="10" x1="1029.0" x2="1077.0" y1="1477.0" y2="1525.0" /><line stroke="#333" stroke-width="10" x1="965.0" x2="1029.0" y1="1477.0" y2="1477.0" /><line stroke="#333" stroke-width="10" x1="965.0" x2="965.0" y1="1413.0" y2="1477.0" /><line stroke="#333" stroke-width="10" x1="1029.0" x2="965.0" y1="1413.0" y2="1413.0" /><line stroke="#999" stroke-width="3" x1="1093.0" x2="1093.0" y1="1349.0" y2="1541.0" /><line stroke="#333" stroke-width="10" x1="1077.0" x2="1029.0" y1="1365.0" y2="1413.0" /><line stroke="#333" stroke-width="10" x1="1077.0" x2="1093.0" y1="1525.0" y2="1541.0" /><line stroke="#999" stroke-width="3" x1="1861.0" x2="1925.0" y1="1605.0" y2="1509.0" /><line stroke="#999" stroke-width="3" x1="1861.0" x2="1733.0" y1="1285.0" y2="1221.0" /><line stroke="#999" stroke-width="3" x1="1925.0" x2="1861.0" y1="1381.0" y2="1285.0" /><line stroke="#333" stroke-width="10" x1="1925.0" x2="1925.0" y1="1509.0" y2="1381.0" /><line stroke="#999" stroke-width="3" x1="1925.0" x2="1861.0" y1="1509.0" y2="1477.0" /><line stroke="#999" stroke-width="3" x1="1861.0" x2="1797.0" y1="1605.0" y2="1541.0" /><line stroke="#999" stroke-width="3" x1="1733.0" x2="1669.0" y1="1669.0" y2="1541.0" /><line stroke="#999" stroke-width="3" x1="1669.0" x2="1733.0" y1="1349.0" y2="1221.0" /><line stroke="#999" stroke-width="3" x1="1797.0" x2="1861.0" y1="1349.0" y2="1285.0" /><line stroke="#999" stroke-width="3" x1="1861.0" x2="1925.0" y1="1413.0" y2="1381.0" /><line stroke="#999" stroke-width="3" x1="1861.0" x2="1861.0" y1="1477.0" y2="1413.0" /><line stroke="#999" stroke-width="3" x1="1797.0" x2="1797.0" y1="1541.0" y2="1349.0" /><line stroke="#999" stroke-width="3" x1="1669.0" x2="1669.0" y1="1541.0" y2="1349.0" /><line stroke="#333" stroke-width="10" x1="421.0" x2="325.0" y1="133.0" y2="133.0" /><line stroke="#999" stroke-width="3" x1="453.0" x2="421.0" y1="133.0" y2="133.0" /><line stroke="#999" stroke-width="3" x1="741.0" x2="709.0" y1="133.0" y2="133.0" /><line stroke="#333" stroke-width="10" x1="709.0" x2="645.0" y1="133.0" y2="133.0" /><line stroke="#333" stroke-width="10" x1="421.0" x2="421.0" y1="101.0" y2="133.0" /><line stroke="#333" stroke-width="10" x1="453.0" x2="421.0" y1="101.0" y2="101.0" /><line stroke="#333" stroke-width="10" x1="453.0" x2="453.0" y1="133.0" y2="101.0" /><line stroke="#333" stroke-width="10" x1="709.0" x2="709.0" y1="101.0" y2="133.0" /><line stroke="#333" stroke-width="10" x1="741.0" x2="709.0" y1="101.0" y2="101.0" /><line stroke="#333" stroke-width="10" x1="741.0" x2="741.0" y1="133.0" y2="101.0" /><line stroke="#333" stroke-width="10" x1="165.0" x2="237.0" y1="925.0" y2="925.0" /><line stroke="#333" stroke-width="10" x1="165.0" x2="165.0" y1="621.0" y2="925.0" /><line stroke="#333" stroke-width="10" x1="277.0" x2="237.0" y1="597.0" y2="597.0" /><line stroke="#333" stroke-width="10" x1="229.0" x2="301.0" y1="1093.0" y2="1093.0" /><line stroke="#999" stroke-width="3" x1="197.0" x2="229.0" y1="1093.0" y2="1093.0" /><line stroke="#333" stroke-width="10" x1="197.0" x2="133.0" y1="965.0" y2="965.0" /><line stroke="#999" stroke-width="3" x1="229.0" x2="197.0" y1="965.0" y2="965.0" /><line stroke="#333" stroke-width="10" x1="229.0" x2="301.0" y1="581.0" y2="581.0" /><line stroke="#999" stroke-width="3" x1="197.0" x2="229.0" y1="581.0" y2="581.0" /><line stroke="#999" stroke-width="3" x1="229.0" x2="197.0" y1="453.0" y2="453.0" /><line stroke="#333" stroke-width="10" x1="197.0" x2="29.0" y1="453.0" y2="453.0" /><line stroke="#333" stroke-width="10" x1="229.0" x2="229.0" y1="613.0" y2="581.0" /><line stroke="#333" stroke-width="10" x1="197.0" x2="229.0" y1="613.0" y2="613.0" /><line stroke="#333" stroke-width="10" x1="197.0" x2="197.0" y1="581.0" y2="613.0" /><line stroke="#333" stroke-width="10" x1="197.0" x2="197.0" y1="421.0" y2="453.0" /><line stroke="#333" stroke-width="10" x1="229.0" x2="197.0" y1="421.0" y2="421.0" /><line stroke="#333" stroke-width="10" x1="229.0" x2="229.0" y1="453.0" y2="421.0" /><line stroke="#333" stroke-width="10" x1="229.0" x2="229.0" y1="1125.0" y2="1093.0" /><line stroke="#333" stroke-width="10" x1="197.0" x2="229.0" y1="1125.0" y2="1125.0" /><line stroke="#333" stroke-width="10" x1="197.0" x2="197.0" y1="1093.0" y2="1125.0" /><line stroke="#333" stroke-width="10" x1="197.0" x2="197.0" y1="933.0" y2="965.0" /><line stroke="#333" stroke-width="10" x1="229.0" x2="197.0" y1="933.0" y2="933.0" /><line stroke="#333" stroke-width="10" x1="229.0" x2="229.0" y1="965.0" y2="933.0" /><line stroke="#333" stroke-width="10" x1="237.0" x2="237.0" y1="597.0" y2="621.0" /><line stroke="#333" stroke-width="10" x1="237.0" x2="165.0" y1="621.0" y2="621.0" /><line stroke="#333" stroke-width="10" x1="237.0" x2="277.0" y1="949.0" y2="949.0" /><line stroke="#333" stroke-width="10" x1="237.0" x2="237.0" y1="925.0" y2="949.0" /><line stroke="#333" stroke-width="10" x1="101.0" x2="229.0" y1="1477.0" y2="1477.0" /><line stroke="#333" stroke-width="10" x1="357.0" x2="357.0" y1="1477.0" y2="1253.0" /><line stroke="#999" stroke-width="3" x1="357.0" x2="325.0" y1="1221.0" y2="1221.0" /><line stroke="#333" stroke-width="10" x1="101.0" x2="101.0" y1="1221.0" y2="1253.0" /><line stroke="#333" stroke-width="10" x1="325.0" x2="229.0" y1="1221.0" y2="1221.0" /><line stroke="#333" stroke-width="10" x1="357.0" x2="517.0" y1="1157.0" y2="1157.0" /><line stroke="#333" stroke-width="10" x1="325.0" x2="325.0" y1="1157.0" y2="1221.0" /><line stroke="#333" stroke-width="10" x1="357.0" x2="357.0" y1="1221.0" y2="1157.0" /><line stroke="#333" stroke-width="10" x1="357.0" x2="357.0" y1="1253.0" y2="1221.0" /><line stroke="#333" stroke-width="10" x1="101.0" x2="101.0" y1="1253.0" y2="1477.0" /><line stroke="#00d" stroke-width="20" x1="357.0" x2="229.0" y1="1253.0" y2="1253.0" /><line stroke="#999" stroke-width="3" x1="117.0" x2="229.0" y1="1269.0" y2="1269.0" /><line stroke="#999" stroke-width="3" x1="341.0" x2="341.0" y1="1269.0" y2="1285.0" /><line stroke="#999" stroke-width="3" x1="341.0" x2="229.0" y1="1285.0" y2="1285.0" /><line stroke="#999" stroke-width="3" x1="117.0" x2="117.0" y1="1285.0" y2="1269.0" /><line stroke="#666" stroke-width="20" x1="1413.0" x2="1413.0" y1="1669.0" y2="1221.0" /><line stroke="#00d" stroke-width="20" x1="229.0" x2="101.0" y1="1253.0" y2="1253.0" /><line stroke="#333" stroke-width="10" x1="229.0" x2="357.0" y1="1477.0" y2="1477.0" /><line stroke="#999" stroke-width="3" x1="229.0" x2="117.0" y1="1285.0" y2="1285.0" /><line stroke="#999" stroke-width="3" x1="229.0" x2="341.0" y1="1269.0" y2="1269.0" /><line stroke="#333" stroke-width="10" x1="229.0" x2="101.0" y1="1221.0" y2="1221.0" /><line stroke="#999" stroke-width="3" x1="229.0" x2="229.0" y1="1253.0" y2="1269.0" /><line stroke="#999" stroke-width="3" x1="229.0" x2="229.0" y1="1221.0" y2="1253.0" /><line stroke="#999" stroke-width="3" x1="229.0" x2="229.0" y1="1285.0" y2="1477.0" /><line stroke="#999" stroke-width="3" x1="517.0" x2="837.0" y1="901.0" y2="901.0" /><line stroke="#333" stroke-width="10" x1="517.0" x2="709.0" y1="1157.0" y2="1157.0" /><line stroke="#999" stroke-width="3" x1="517.0" x2="517.0" y1="1157.0" y2="901.0" /><line stroke="#333" stroke-width="10" x1="2053.0" x2="1989.0" y1="37.0" y2="5.0" /><line stroke="#333" stroke-width="10" x1="2053.0" x2="2085.0" y1="453.0" y2="357.0" /><line stroke="#333" stroke-width="10" x1="2085.0" x2="2053.0" y1="133.0" y2="37.0" /><line stroke="#333" stroke-width="10" x1="2085.0" x2="2085.0" y1="357.0" y2="133.0" /><line stroke="#999" stroke-width="3" x1="517.0" x2="517.0" y1="613.0" y2="637.0" /><line stroke="#999" stroke-width="3" x1="645.0" x2="645.0" y1="613.0" y2="133.0" /><line stroke="#999" stroke-width="3" x1="645.0" x2="517.0" y1="613.0" y2="613.0" /><line stroke="#999" stroke-width="3" x1="677.0" x2="741.0" y1="549.0" y2="549.0" /><line stroke="#999" stroke-width="3" x1="741.0" x2="741.0" y1="549.0" y2="613.0" /><line stroke="#999" stroke-width="3" x1="741.0" x2="677.0" y1="613.0" y2="613.0" /><line stroke="#999" stroke-width="3" x1="677.0" x2="677.0" y1="613.0" y2="549.0" /><line stroke="#333" stroke-width="10" x1="693.0" x2="725.0" y1="565.0" y2="565.0" /><line stroke="#333" stroke-width="10" x1="725.0" x2="725.0" y1="565.0" y2="597.0" /><line stroke="#333" stroke-width="10" x1="725.0" x2="693.0" y1="597.0" y2="597.0" /><line stroke="#333" stroke-width="10" x1="693.0" x2="693.0" y1="597.0" y2="565.0" /><line stroke="#333" stroke-width="10" x1="437.0" x2="437.0" y1="597.0" y2="565.0" /><line stroke="#333" stroke-width="10" x1="469.0" x2="437.0" y1="597.0" y2="597.0" /><line stroke="#333" stroke-width="10" x1="469.0" x2="469.0" y1="565.0" y2="597.0" /><line stroke="#333" stroke-width="10" x1="437.0" x2="469.0" y1="565.0" y2="565.0" /><line stroke="#999" stroke-width="3" x1="421.0" x2="421.0" y1="613.0" y2="549.0" /><line stroke="#999" stroke-width="3" x1="485.0" x2="421.0" y1="613.0" y2="613.0" /><line stroke="#999" stroke-width="3" x1="485.0" x2="485.0" y1="549.0" y2="613.0" /><line stroke="#999" stroke-width="3" x1="421.0" x2="485.0" y1="549.0" y2="549.0" /><line stroke="#999" stroke-width="3" x1="421.0" x2="485.0" y1="325.0" y2="325.0" /><line stroke="#999" stroke-width="3" x1="485.0" x2="485.0" y1="325.0" y2="389.0" /><line stroke="#999" stroke-width="3" x1="485.0" x2="421.0" y1="389.0" y2="389.0" /><line stroke="#999" stroke-width="3" x1="421.0" x2="421.0" y1="389.0" y2="325.0" /><line stroke="#333" stroke-width="10" x1="437.0" x2="469.0" y1="341.0" y2="341.0" /><line stroke="#333" stroke-width="10" x1="469.0" x2="469.0" y1="341.0" y2="373.0" /><line stroke="#333" stroke-width="10" x1="469.0" x2="437.0" y1="373.0" y2="373.0" /><line stroke="#333" stroke-width="10" x1="437.0" x2="437.0" y1="373.0" y2="341.0" /><line stroke="#333" stroke-width="10" x1="693.0" x2="693.0" y1="373.0" y2="341.0" /><line stroke="#333" stroke-width="10" x1="725.0" x2="693.0" y1="373.0" y2="373.0" /><line stroke="#333" stroke-width="10" x1="725.0" x2="725.0" y1="341.0" y2="373.0" /><line stroke="#333" stroke-width="10" x1="693.0" x2="725.0" y1="341.0" y2="341.0" /><line stroke="#999" stroke-width="3" x1="677.0" x2="677.0" y1="389.0" y2="325.0" /><line stroke="#999" stroke-width="3" x1="741.0" x2="677.0" y1="389.0" y2="389.0" /><line stroke="#999" stroke-width="3" x1="741.0" x2="741.0" y1="325.0" y2="389.0" /><line stroke="#999" stroke-width="3" x1="677.0" x2="741.0" y1="325.0" y2="325.0" /><line stroke="#333" stroke-width="10" x1="693.0" x2="693.0" y1="981.0" y2="949.0" /><line stroke="#333" stroke-width="10" x1="725.0" x2="693.0" y1="981.0" y2="981.0" /><line stroke="#333" stroke-width="10" x1="725.0" x2="725.0" y1="949.0" y2="981.0" /><line stroke="#333" stroke-width="10" x1="693.0" x2="725.0" y1="949.0" y2="949.0" /><line stroke="#999" stroke-width="3" x1="677.0" x2="677.0" y1="997.0" y2="933.0" /><line stroke="#999" stroke-width="3" x1="741.0" x2="677.0" y1="997.0" y2="997.0" /><line stroke="#999" stroke-width="3" x1="741.0" x2="741.0" y1="933.0" y2="997.0" /><line stroke="#999" stroke-width="3" x1="677.0" x2="741.0" y1="933.0" y2="933.0" /><line stroke="#999" stroke-width="3" x1="421.0" x2="485.0" y1="933.0" y2="933.0" /><line stroke="#999" stroke-width="3" x1="485.0" x2="485.0" y1="933.0" y2="997.0" /><line stroke="#999" stroke-width="3" x1="485.0" x2="421.0" y1="997.0" y2="997.0" /><line stroke="#999" stroke-width="3" x1="421.0" x2="421.0" y1="997.0" y2="933.0" /><line stroke="#333" stroke-width="10" x1="437.0" x2="469.0" y1="949.0" y2="949.0" /><line stroke="#333" stroke-width="10" x1="469.0" x2="469.0" y1="949.0" y2="981.0" /><line stroke="#333" stroke-width="10" x1="469.0" x2="437.0" y1="981.0" y2="981.0" /><line stroke="#333" stroke-width="10" x1="437.0" x2="437.0" y1="981.0" y2="949.0" /><line stroke="#333" stroke-width="10" x1="1285.0" x2="1317.0" y1="485.0" y2="485.0" /><line stroke="#333" stroke-width="10" x1="1541.0" x2="1509.0" y1="549.0" y2="549.0" /><line stroke="#333" stroke-width="10" x1="1285.0" x2="1285.0" y1="549.0" y2="581.0" /><line stroke="#333" stroke-width="10" x1="1541.0" x2="1541.0" y1="485.0" y2="453.0" /><line stroke="#333" stroke-width="10" x1="1509.0" x2="1509.0" y1="549.0" y2="485.0" /><line stroke="#333" stroke-width="10" x1="1317.0" x2="1285.0" y1="549.0" y2="549.0" /><line stroke="#333" stroke-width="10" x1="1509.0" x2="1541.0" y1="485.0" y2="485.0" /><line stroke="#333" stroke-width="10" x1="1317.0" x2="1317.0" y1="485.0" y2="549.0" /><line stroke="#999" stroke-width="3" x1="1509.0" x2="1317.0" y1="549.0" y2="549.0" /><line stroke="#999" stroke-width="3" x1="1317.0" x2="1509.0" y1="485.0" y2="485.0" /><line stroke="#333" stroke-width="10" x1="1093.0" x2="861.0" y1="645.0" y2="645.0" /><line stroke="#333" stroke-width="10" x1="1157.0" x2="1157.0" y1="645.0" y2="677.0" /><line stroke="#333" stroke-width="10" x1="1093.0" x2="1093.0" y1="901.0" y2="869.0" /><line stroke="#333" stroke-width="10" x1="1157.0" x2="1445.0" y1="901.0" y2="901.0" /><line stroke="#333" stroke-width="10" x1="1157.0" x2="1157.0" y1="869.0" y2="901.0" /><line stroke="#333" stroke-width="10" x1="1157.0" x2="1093.0" y1="677.0" y2="677.0" /><line stroke="#333" stroke-width="10" x1="1093.0" x2="1157.0" y1="869.0" y2="869.0" /><line stroke="#333" stroke-width="10" x1="1093.0" x2="1093.0" y1="677.0" y2="645.0" /><line stroke="#999" stroke-width="3" x1="1157.0" x2="1157.0" y1="677.0" y2="869.0" /><line stroke="#999" stroke-width="3" x1="1093.0" x2="1093.0" y1="869.0" y2="677.0" /><line stroke="#999" stroke-width="3" x1="1445.0" x2="1221.0" y1="869.0" y2="645.0" /><line stroke="#333" stroke-width="10" x1="1189.0" x2="1157.0" y1="645.0" y2="645.0" /><line stroke="#333" stroke-width="10" x1="1285.0" x2="1285.0" y1="581.0" y2="613.0" /><line stroke="#333" stroke-width="10" x1="1445.0" x2="1445.0" y1="901.0" y2="869.0" /><line stroke="#333" stroke-width="10" x1="1509.0" x2="1541.0" y1="837.0" y2="837.0" /><line stroke="#999" stroke-width="3" x1="1285.0" x2="1509.0" y1="613.0" y2="837.0" /><line stroke="#999" stroke-width="3" x1="1221.0" x2="1221.0" y1="325.0" y2="197.0" /><line stroke="#999" stroke-width="3" x1="1605.0" x2="1621.0" y1="541.0" y2="549.0" /><line stroke="#999" stroke-width="3" x1="1733.0" x2="1781.0" y1="581.0" y2="549.0" /><line stroke="#999" stroke-width="3" x1="1733.0" x2="1701.0" y1="517.0" y2="469.0" /><line stroke="#999" stroke-width="3" x1="1669.0" x2="1701.0" y1="581.0" y2="629.0" /><line stroke="#999" stroke-width="3" x1="1781.0" x2="1733.0" y1="549.0" y2="517.0" /><line stroke="#999" stroke-width="3" x1="1701.0" x2="1733.0" y1="629.0" y2="581.0" /><line stroke="#999" stroke-width="3" x1="1701.0" x2="1693.0" y1="469.0" y2="453.0" /><line stroke="#999" stroke-width="3" x1="1621.0" x2="1669.0" y1="549.0" y2="581.0" /><line stroke="#999" stroke-width="3" x1="229.0" x2="229.0" y1="453.0" y2="581.0" /><line stroke="#999" stroke-width="3" x1="197.0" x2="197.0" y1="581.0" y2="453.0" /><line stroke="#999" stroke-width="3" x1="229.0" x2="229.0" y1="965.0" y2="1093.0" /><line stroke="#999" stroke-width="3" x1="197.0" x2="197.0" y1="1093.0" y2="965.0" /><line stroke="#999" stroke-width="3" x1="2117.0" x2="2117.0" y1="1861.0" y2="1029.0" /><line stroke="#999" stroke-width="3" x1="2117.0" x2="1157.0" y1="1029.0" y2="1029.0" /><line stroke="#999" stroke-width="3" x1="1157.0" x2="1093.0" y1="1029.0" y2="1349.0" /><line stroke="#999" stroke-width="3" x1="1093.0" x2="1157.0" y1="1541.0" y2="1861.0" /><line stroke="#999" stroke-width="3" x1="1157.0" x2="2117.0" y1="1861.0" y2="1861.0" /><line stroke="#333" stroke-width="10" x1="2181.0" x2="1093.0" y1="965.0" y2="965.0" /><line stroke="#333" stroke-width="10" x1="2181.0" x2="2181.0" y1="1925.0" y2="965.0" /><line stroke="#333" stroke-width="10" x1="1093.0" x2="2181.0" y1="1925.0" y2="1925.0" /><line stroke="#333" stroke-width="10" x1="1093.0" x2="1093.0" y1="1541.0" y2="1925.0" /><line stroke="#333" stroke-width="10" x1="1093.0" x2="1093.0" y1="965.0" y2="1349.0" /><line stroke="#333" stroke-width="10" x1="1925.0" x2="1989.0" y1="1381.0" y2="1381.0" /><line stroke="#333" stroke-width="10" x1="1989.0" x2="1989.0" y1="1381.0" y2="1509.0" /><line stroke="#333" stroke-width="10" x1="1989.0" x2="1925.0" y1="1509.0" y2="1509.0" /><line stroke="#999" stroke-width="3" x1="1093.0" x2="1157.0" y1="1541.0" y2="1445.0" /><line stroke="#999" stroke-width="3" x1="1157.0" x2="1093.0" y1="1445.0" y2="1349.0" /><ellipse cx="581.0" cy="197.0" fill="#009" rx="12" ry="24" stroke="#009" stroke-width="5" /><ellipse cx="613.0" cy="261.0" fill="#009" rx="12" ry="24" stroke="#009" stroke-width="5" /><ellipse cx="549.0" cy="261.0" fill="#009" rx="12" ry="24" stroke="#009" stroke-width="5" /><ellipse cx="581.0" cy="325.0" fill="#009" rx="12" ry="24" stroke="#009" stroke-width="5" /><rect fill="#090" height="24" stroke="#090" stroke-width="5" transform="rotate(90,581.0,165.0)" width="24" x="569.0" y="153.0" /><rect fill="#090" height="24" stroke="#090" stroke-width="5" transform="rotate(135,1701.0,165.0)" width="24" x="1689.0" y="153.0" /><rect fill="#090" height="24" stroke="#090" stroke-width="5" transform="rotate(180,1189.0,517.0)" width="24" x="1177.0" y="505.0" /><rect fill="#090" height="24" stroke="#090" stroke-width="5" transform="rotate(180,581.0,773.0)" width="24" x="569.0" y="761.0" /><rect fill="#090" height="24" stroke="#090" stroke-width="5" transform="rotate(225,1797.0,1573.0)" width="24" x="1785.0" y="1561.0" /><rect fill="#090" height="24" stroke="#090" stroke-width="5" transform="rotate(0,1157.0,261.0)" width="24" x="1145.0" y="249.0" /><rect fill="#090" height="24" stroke="#090" stroke-width="5" transform="rotate(270,581.0,1125.0)" width="24" x="569.0" y="1113.0" /><rect fill="#009" height="24" stroke="#009" stroke-width="5" transform="rotate(0,997.0,1445.0)" width="24" x="985.0" y="1433.0" /><rect fill="#009" height="24" stroke="#009" stroke-width="5" transform="rotate(180,1957.0,773.0)" width="24" x="1945.0" y="761.0" /><ellipse cx="1893.0" cy="1445.0" fill="#090" rx="12" ry="24" stroke="#090" stroke-width="5" /><rect fill="#090" height="24" stroke="#090" stroke-width="5" transform="rotate(0,725.0,117.0)" width="24" x="713.0" y="105.0" /><rect fill="#090" height="24" stroke="#090" stroke-width="5" transform="rotate(0,437.0,117.0)" width="24" x="425.0" y="105.0" /><rect fill="#090" height="24" stroke="#090" stroke-width="5" transform="rotate(0,821.0,597.0)" width="24" x="809.0" y="585.0" /><rect fill="#090" height="24" stroke="#090" stroke-width="5" transform="rotate(0,821.0,437.0)" width="24" x="809.0" y="425.0" /><rect fill="#090" height="24" stroke="#090" stroke-width="5" transform="rotate(0,341.0,437.0)" width="24" x="329.0" y="425.0" /><rect fill="#090" height="24" stroke="#090" stroke-width="5" transform="rotate(0,341.0,597.0)" width="24" x="329.0" y="585.0" /><rect fill="#090" height="24" stroke="#090" stroke-width="5" transform="rotate(0,341.0,949.0)" width="24" x="329.0" y="937.0" /><rect fill="#090" height="24" stroke="#090" stroke-width="5" transform="rotate(0,341.0,1109.0)" width="24" x="329.0" y="1097.0" /><rect fill="#090" height="24" stroke="#090" stroke-width="5" transform="rotate(0,1109.0,213.0)" width="24" x="1097.0" y="201.0" /><rect fill="#090" height="24" stroke="#090" stroke-width="5" transform="rotate(0,1621.0,629.0)" width="24" x="1609.0" y="617.0" /><rect fill="#090" height="24" stroke="#090" stroke-width="5" transform="rotate(0,1781.0,629.0)" width="24" x="1769.0" y="617.0" /><rect fill="#090" height="24" stroke="#090" stroke-width="5" transform="rotate(0,1781.0,469.0)" width="24" x="1769.0" y="457.0" /><rect fill="#090" height="24" stroke="#090" stroke-width="5" transform="rotate(0,1733.0,1637.0)" width="24" x="1721.0" y="1625.0" /><rect fill="#090" height="24" stroke="#090" stroke-width="5" transform="rotate(0,1733.0,1253.0)" width="24" x="1721.0" y="1241.0" /><rect fill="#090" height="24" stroke="#090" stroke-width="5" transform="rotate(0,1861.0,1317.0)" width="24" x="1849.0" y="1305.0" /><rect fill="#090" height="24" stroke="#090" stroke-width="5" transform="rotate(0,1861.0,1573.0)" width="24" x="1849.0" y="1561.0" /><rect fill="#090" height="24" stroke="#090" stroke-width="5" transform="rotate(0,1909.0,1381.0)" width="24" x="1897.0" y="1369.0" /><rect fill="#090" height="24" stroke="#090" stroke-width="5" transform="rotate(0,1909.0,1509.0)" width="24" x="1897.0" y="1497.0" /><rect fill="#090" height="24" stroke="#090" stroke-width="5" transform="rotate(0,69.0,517.0)" width="24" x="57.0" y="505.0" /><rect fill="#090" height="24" stroke="#090" stroke-width="5" transform="rotate(0,213.0,597.0)" width="24" x="201.0" y="585.0" /><rect fill="#090" height="24" stroke="#090" stroke-width="5" transform="rotate(0,213.0,437.0)" width="24" x="201.0" y="425.0" /><rect fill="#090" height="24" stroke="#090" stroke-width="5" transform="rotate(0,213.0,949.0)" width="24" x="201.0" y="937.0" /><rect fill="#090" height="24" stroke="#090" stroke-width="5" transform="rotate(0,213.0,1109.0)" width="24" x="201.0" y="1097.0" /><circle cx="1733.0" cy="581.0" fill="#900" r="16" stroke="#900" stroke-width="5" /><rect fill="#900" height="48" stroke="#900" stroke-width="5" transform="rotate(270,581.0,581.0)" width="32" x="565.0" y="557.0" /><circle cx="549.0" cy="389.0" fill="#900" r="16" stroke="#900" stroke-width="5" /><circle cx="613.0" cy="389.0" fill="#009" r="16" stroke="#009" stroke-width="5" /><rect fill="#009" height="24" stroke="#009" stroke-width="5" transform="rotate(270,613.0,1061.0)" width="24" x="601.0" y="1049.0" /><rect fill="#900" height="48" stroke="#900" stroke-width="5" transform="rotate(270,325.0,1445.0)" width="32" x="309.0" y="1421.0" /><rect fill="#900" height="48" stroke="#900" stroke-width="5" transform="rotate(270,133.0,1445.0)" width="32" x="117.0" y="1421.0" /><rect fill="#900" height="48" stroke="#900" stroke-width="5" transform="rotate(270,197.0,1445.0)" width="32" x="181.0" y="1421.0" /><rect fill="#900" height="48" stroke="#900" stroke-width="5" transform="rotate(270,261.0,1445.0)" width="32" x="245.0" y="1421.0" /><rect fill="#900" height="48" stroke="#900" stroke-width="5" transform="rotate(270,261.0,1381.0)" width="32" x="245.0" y="1357.0" /><rect fill="#900" height="48" stroke="#900" stroke-width="5" transform="rotate(270,325.0,1381.0)" width="32" x="309.0" y="1357.0" /><rect fill="#900" height="48" stroke="#900" stroke-width="5" transform="rotate(270,325.0,1317.0)" width="32" x="309.0" y="1293.0" /><rect fill="#900" height="48" stroke="#900" stroke-width="5" transform="rotate(270,261.0,1317.0)" width="32" x="245.0" y="1293.0" /><rect fill="#900" height="48" stroke="#900" stroke-width="5" transform="rotate(270,197.0,1317.0)" width="32" x="181.0" y="1293.0" /><rect fill="#900" height="48" stroke="#900" stroke-width="5" transform="rotate(270,133.0,1317.0)" width="32" x="117.0" y="1293.0" /><rect fill="#900" height="48" stroke="#900" stroke-width="5" transform="rotate(270,133.0,1381.0)" width="32" x="117.0" y="1357.0" /><rect fill="#900" height="48" stroke="#900" stroke-width="5" transform="rotate(270,197.0,1381.0)" width="32" x="181.0" y="1357.0" /><rect fill="#900" height="48" stroke="#900" stroke-width="5" transform="rotate(270,741.0,1381.0)" width="32" x="725.0" y="1357.0" /><rect fill="#009" height="24" stroke="#009" stroke-width="5" transform="rotate(270,421.0,1061.0)" width="24" x="409.0" y="1049.0" /><rect fill="#900" height="48" stroke="#900" stroke-width="5" transform="rotate(180,1061.0,549.0)" width="32" x="1045.0" y="525.0" /><rect fill="#900" height="48" stroke="#900" stroke-width="5" transform="rotate(180,1125.0,485.0)" width="32" x="1109.0" y="461.0" /><rect fill="#900" height="48" stroke="#900" stroke-width="5" transform="rotate(90,1125.0,325.0)" width="32" x="1109.0" y="301.0" /><rect fill="#900" height="48" stroke="#900" stroke-width="5" transform="rotate(180,1573.0,197.0)" width="32" x="1557.0" y="173.0" /><rect fill="#900" height="48" stroke="#900" stroke-width="5" transform="rotate(180,1669.0,325.0)" width="32" x="1653.0" y="301.0" /><rect fill="#090" height="24" stroke="#090" stroke-width="5" transform="rotate(0,1605.0,261.0)" width="24" x="1593.0" y="249.0" /><rect fill="#900" height="48" stroke="#900" stroke-width="5" transform="rotate(180,1861.0,773.0)" width="32" x="1845.0" y="749.0" /><rect fill="#900" height="48" stroke="#900" stroke-width="5" transform="rotate(180,1877.0,773.0)" width="32" x="1861.0" y="749.0" /><rect fill="#900" height="48" stroke="#900" stroke-width="5" transform="rotate(180,1893.0,773.0)" width="32" x="1877.0" y="749.0" /><rect fill="#900" height="48" stroke="#900" stroke-width="5" transform="rotate(180,1637.0,1605.0)" width="32" x="1621.0" y="1581.0" /><rect fill="#900" height="48" stroke="#900" stroke-width="5" transform="rotate(180,1637.0,1509.0)" width="32" x="1621.0" y="1485.0" /><rect fill="#900" height="48" stroke="#900" stroke-width="5" transform="rotate(180,1637.0,1413.0)" width="32" x="1621.0" y="1389.0" /><rect fill="#900" height="48" stroke="#900" stroke-width="5" transform="rotate(180,1637.0,1317.0)" width="32" x="1621.0" y="1293.0" /><rect fill="#900" height="48" stroke="#900" stroke-width="5" transform="rotate(180,1509.0,1541.0)" width="32" x="1493.0" y="1517.0" /><rect fill="#900" height="48" stroke="#900" stroke-width="5" transform="rotate(180,1509.0,1445.0)" width="32" x="1493.0" y="1421.0" /><rect fill="#900" height="48" stroke="#900" stroke-width="5" transform="rotate(180,1509.0,1349.0)" width="32" x="1493.0" y="1325.0" /><rect fill="#900" height="48" stroke="#900" stroke-width="5" transform="rotate(180,1829.0,1445.0)" width="32" x="1813.0" y="1421.0" /><circle cx="581.0" cy="933.0" fill="#900" r="16" stroke="#900" stroke-width="5" /><circle cx="1733.0" cy="1445.0" fill="#900" r="16" stroke="#900" stroke-width="5" /><circle cx="1253.0" cy="261.0" fill="#900" r="16" stroke="#900" stroke-width="5" /><circle cx="821.0" cy="149.0" fill="#009" r="16" stroke="#009" stroke-width="5" /><circle cx="821.0" cy="197.0" fill="#009" r="16" stroke="#009" stroke-width="5" /><circle cx="1733.0" cy="485.0" fill="#009" r="16" stroke="#009" stroke-width="5" /><circle cx="1445.0" cy="1653.0" fill="#009" r="16" stroke="#009" stroke-width="5" /><circle cx="821.0" cy="1141.0" fill="#009" r="16" stroke="#009" stroke-width="5" /><circle cx="341.0" cy="885.0" fill="#009" r="16" stroke="#009" stroke-width="5" /><circle cx="805.0" cy="1253.0" fill="#009" r="16" stroke="#009" stroke-width="5" /><circle cx="341.0" cy="149.0" fill="#009" r="16" stroke="#009" stroke-width="5" /><circle cx="341.0" cy="181.0" fill="#009" r="16" stroke="#009" stroke-width="5" /><circle cx="341.0" cy="213.0" fill="#009" r="16" stroke="#009" stroke-width="5" /><circle cx="1445.0" cy="1237.0" fill="#009" r="16" stroke="#009" stroke-width="5" /><circle cx="1477.0" cy="1237.0" fill="#009" r="16" stroke="#009" stroke-width="5" /><circle cx="1509.0" cy="1237.0" fill="#009" r="16" stroke="#009" stroke-width="5" /><circle cx="1541.0" cy="1237.0" fill="#009" r="16" stroke="#009" stroke-width="5" /><circle cx="677.0" cy="1253.0" fill="#009" r="16" stroke="#009" stroke-width="5" /><circle cx="677.0" cy="1285.0" fill="#009" r="16" stroke="#009" stroke-width="5" /><circle cx="485.0" cy="1141.0" fill="#009" r="16" stroke="#009" stroke-width="5" /><circle cx="453.0" cy="1141.0" fill="#009" r="16" stroke="#009" stroke-width="5" /><circle cx="421.0" cy="1141.0" fill="#009" r="16" stroke="#009" stroke-width="5" /><circle cx="1301.0" cy="389.0" fill="#009" r="16" stroke="#009" stroke-width="5" /><circle cx="1301.0" cy="421.0" fill="#009" r="16" stroke="#009" stroke-width="5" /><circle cx="1301.0" cy="453.0" fill="#009" r="16" stroke="#009" stroke-width="5" /><circle cx="1189.0" cy="549.0" fill="#090" r="16" stroke="#090" stroke-width="5" /><circle cx="1669.0" cy="613.0" fill="#090" r="16" stroke="#090" stroke-width="5" /><circle cx="1509.0" cy="1653.0" fill="#090" r="16" stroke="#090" stroke-width="5" /><circle cx="805.0" cy="1317.0" fill="#090" r="16" stroke="#090" stroke-width="5" /><circle cx="69.0" cy="1077.0" fill="#090" r="16" stroke="#090" stroke-width="5" /><circle cx="101.0" cy="1077.0" fill="#090" r="16" stroke="#090" stroke-width="5" /><circle cx="341.0" cy="293.0" fill="#090" r="16" stroke="#090" stroke-width="5" /><circle cx="341.0" cy="325.0" fill="#090" r="16" stroke="#090" stroke-width="5" /><circle cx="1765.0" cy="773.0" fill="#090" r="16" stroke="#090" stroke-width="5" /><circle cx="341.0" cy="661.0" fill="#090" r="16" stroke="#090" stroke-width="5" /><circle cx="677.0" cy="1349.0" fill="#090" r="16" stroke="#090" stroke-width="5" /><rect fill="#090" height="24" stroke="#090" stroke-width="5" transform="rotate(0,741.0,1285.0)" width="24" x="729.0" y="1273.0" /><rect fill="#090" height="24" stroke="#090" stroke-width="5" transform="rotate(0,453.0,485.0)" width="24" x="441.0" y="473.0" /><rect fill="#090" height="24" stroke="#090" stroke-width="5" transform="rotate(0,197.0,1029.0)" width="24" x="185.0" y="1017.0" /><rect fill="#090" height="24" stroke="#090" stroke-width="5" transform="rotate(0,757.0,1093.0)" width="24" x="745.0" y="1081.0" /><rect fill="#090" height="24" stroke="#090" stroke-width="5" transform="rotate(0,1349.0,1317.0)" width="24" x="1337.0" y="1305.0" /><rect fill="#090" height="24" stroke="#090" stroke-width="5" transform="rotate(0,1189.0,325.0)" width="24" x="1177.0" y="313.0" /><rect fill="#090" height="24" stroke="#090" stroke-width="5" transform="rotate(0,1829.0,1509.0)" width="24" x="1817.0" y="1497.0" /><rect fill="#090" height="24" stroke="#090" stroke-width="5" transform="rotate(0,37.0,581.0)" width="24" x="25.0" y="569.0" /><circle cx="357.0" cy="773.0" fill="#900" r="16" stroke="#900" stroke-width="5" /></svg>