<?xml version="1.0" encoding="utf-8" ?>
<svg baseProfile="tiny" height="693" version="1.2" viewBox="0 0 2922 1978" width="1024" xmlns="http://www.w3.org/2000/svg" xmlns:ev="http://www.w3.org/2001/xml-events" xmlns:xlink="http://www.w3.org/1999/xlink"><defs /><line stroke="#333" stroke-width="10" x1="389.0" x2="901.0" y1="1973.0" y2="1973.0" /><line stroke="#333" stroke-width="10" x1="901.0" x2="901.0" y1="1973.0" y2="1461.0" /><line stroke="#333" stroke-width="10" x1="901.0" x2="837.0" y1="1461.0" y2="1461.0" /><line stroke="#333" stroke-width="10" x1="389.0" x2="389.0" y1="1461.0" y2="1973.0" /><line stroke="#333" stroke-width="10" x1="645.0" x2="389.0" y1="1461.0" y2="1461.0" /><line stroke="#999" stroke-width="3" x1="773.0" x2="645.0" y1="1461.0" y2="1461.0" /><line stroke="#333" stroke-width="10" x1="773.0" x2="709.0" y1="1077.0" y2="1077.0" /><line stroke="#333" stroke-width="10" x1="773.0" x2="773.0" y1="1461.0" y2="1445.0" /><line stroke="#333" stroke-width="10" x1="645.0" x2="645.0" y1="1445.0" y2="1461.0" /><line stroke="#333" stroke-width="10" x1="773.0" x2="773.0" y1="1445.0" y2="1429.0" /><line stroke="#999" stroke-width="3" x1="773.0" x2="645.0" y1="1445.0" y2="1445.0" /><line stroke="#333" stroke-width="10" x1="645.0" x2="645.0" y1="1429.0" y2="1445.0" /><line stroke="#333" stroke-width="10" x1="773.0" x2="773.0" y1="1429.0" y2="1413.0" /><line stroke="#999" stroke-width="3" x1="645.0" x2="773.0" y1="1429.0" y2="1429.0" /><line stroke="#333" stroke-width="10" x1="645.0" x2="645.0" y1="1413.0" y2="1429.0" /><line stroke="#333" stroke-width="10" x1="773.0" x2="773.0" y1="1413.0" y2="1397.0" /><line stroke="#999" stroke-width="3" x1="645.0" x2="773.0" y1="1413.0" y2="1413.0" /><line stroke="#666" stroke-width="20" x1="837.0" x2="773.0" y1="1461.0" y2="1461.0" /><line stroke="#333" stroke-width="10" x1="645.0" x2="645.0" y1="1397.0" y2="1413.0" /><line stroke="#666" stroke-width="20" x1="645.0" x2="645.0" y1="1333.0" y2="1397.0" /><line stroke="#999" stroke-width="3" x1="773.0" x2="773.0" y1="1397.0" y2="1269.0" /><line stroke="#333" stroke-width="10" x1="837.0" x2="773.0" y1="1077.0" y2="1077.0" /><line stroke="#333" stroke-width="10" x1="837.0" x2="837.0" y1="1397.0" y2="1077.0" /><line stroke="#333" stroke-width="10" x1="773.0" x2="837.0" y1="1397.0" y2="1397.0" /><line stroke="#999" stroke-width="3" x1="709.0" x2="645.0" y1="1077.0" y2="1141.0" /><line stroke="#333" stroke-width="10" x1="645.0" x2="645.0" y1="1141.0" y2="1333.0" /><line stroke="#333" stroke-width="10" x1="581.0" x2="645.0" y1="1205.0" y2="1141.0" /><line stroke="#333" stroke-width="10" x1="133.0" x2="581.0" y1="1205.0" y2="1205.0" /><line stroke="#333" stroke-width="10" x1="773.0" x2="741.0" y1="565.0" y2="565.0" /><line stroke="#333" stroke-width="10" x1="773.0" x2="773.0" y1="1013.0" y2="821.0" /><line stroke="#333" stroke-width="10" x1="709.0" x2="773.0" y1="1077.0" y2="1013.0" /><line stroke="#999" stroke-width="3" x1="453.0" x2="261.0" y1="885.0" y2="1077.0" /><line stroke="#999" stroke-width="3" x1="453.0" x2="453.0" y1="565.0" y2="885.0" /><line stroke="#999" stroke-width="3" x1="773.0" x2="773.0" y1="821.0" y2="693.0" /><line stroke="#333" stroke-width="10" x1="773.0" x2="773.0" y1="693.0" y2="565.0" /><line stroke="#333" stroke-width="10" x1="805.0" x2="773.0" y1="693.0" y2="693.0" /><line stroke="#666" stroke-width="20" x1="805.0" x2="805.0" y1="821.0" y2="693.0" /><line stroke="#333" stroke-width="10" x1="773.0" x2="805.0" y1="821.0" y2="821.0" /><line stroke="#333" stroke-width="10" x1="837.0" x2="805.0" y1="693.0" y2="693.0" /><line stroke="#666" stroke-width="20" x1="837.0" x2="837.0" y1="693.0" y2="821.0" /><line stroke="#333" stroke-width="10" x1="805.0" x2="837.0" y1="821.0" y2="821.0" /><line stroke="#333" stroke-width="10" x1="869.0" x2="837.0" y1="693.0" y2="693.0" /><line stroke="#999" stroke-width="3" x1="869.0" x2="869.0" y1="821.0" y2="693.0" /><line stroke="#333" stroke-width="10" x1="837.0" x2="869.0" y1="821.0" y2="821.0" /><line stroke="#333" stroke-width="10" x1="933.0" x2="869.0" y1="341.0" y2="693.0" /><line stroke="#333" stroke-width="10" x1="1285.0" x2="933.0" y1="117.0" y2="341.0" /><line stroke="#999" stroke-width="3" x1="1765.0" x2="1509.0" y1="373.0" y2="213.0" /><line stroke="#999" stroke-width="3" x1="1829.0" x2="1829.0" y1="885.0" y2="597.0" /><line stroke="#999" stroke-width="3" x1="1605.0" x2="1829.0" y1="1205.0" y2="885.0" /><line stroke="#999" stroke-width="3" x1="1189.0" x2="1605.0" y1="1301.0" y2="1205.0" /><line stroke="#333" stroke-width="10" x1="901.0" x2="1189.0" y1="1077.0" y2="1301.0" /><line stroke="#333" stroke-width="10" x1="869.0" x2="901.0" y1="821.0" y2="1077.0" /><line stroke="#999" stroke-width="3" x1="2341.0" x2="1285.0" y1="117.0" y2="117.0" /><line stroke="#999" stroke-width="3" x1="2213.0" x2="2341.0" y1="245.0" y2="117.0" /><line stroke="#999" stroke-width="3" x1="2125.0" x2="2213.0" y1="453.0" y2="245.0" /><line stroke="#999" stroke-width="3" x1="2093.0" x2="2125.0" y1="709.0" y2="453.0" /><line stroke="#999" stroke-width="3" x1="2125.0" x2="2093.0" y1="997.0" y2="709.0" /><line stroke="#999" stroke-width="3" x1="2253.0" x2="2125.0" y1="1221.0" y2="997.0" /><line stroke="#999" stroke-width="3" x1="2469.0" x2="2253.0" y1="1301.0" y2="1221.0" /><line stroke="#999" stroke-width="3" x1="1189.0" x2="2469.0" y1="1301.0" y2="1301.0" /><line stroke="#333" stroke-width="10" x1="2501.0" x2="2341.0" y1="149.0" y2="117.0" /><line stroke="#333" stroke-width="10" x1="2725.0" x2="2501.0" y1="213.0" y2="149.0" /><line stroke="#333" stroke-width="10" x1="2853.0" x2="2725.0" y1="437.0" y2="213.0" /><line stroke="#333" stroke-width="10" x1="2917.0" x2="2853.0" y1="661.0" y2="437.0" /><line stroke="#333" stroke-width="10" x1="2917.0" x2="2917.0" y1="885.0" y2="661.0" /><line stroke="#333" stroke-width="10" x1="2821.0" x2="2917.0" y1="1109.0" y2="885.0" /><line stroke="#333" stroke-width="10" x1="2661.0" x2="2821.0" y1="1269.0" y2="1109.0" /><line stroke="#333" stroke-width="10" x1="2469.0" x2="2661.0" y1="1301.0" y2="1269.0" /><line stroke="#999" stroke-width="3" x1="1829.0" x2="1765.0" y1="597.0" y2="373.0" /><line stroke="#999" stroke-width="3" x1="1509.0" x2="1285.0" y1="213.0" y2="117.0" /><line stroke="#999" stroke-width="3" x1="773.0" x2="773.0" y1="1269.0" y2="1205.0" /><line stroke="#999" stroke-width="3" x1="773.0" x2="773.0" y1="1205.0" y2="1077.0" /><line stroke="#999" stroke-width="3" x1="709.0" x2="773.0" y1="1269.0" y2="1269.0" /><line stroke="#999" stroke-width="3" x1="709.0" x2="709.0" y1="1205.0" y2="1269.0" /><line stroke="#999" stroke-width="3" x1="773.0" x2="709.0" y1="1205.0" y2="1205.0" /><line stroke="#333" stroke-width="10" x1="1349.0" x2="1285.0" y1="53.0" y2="117.0" /><line stroke="#333" stroke-width="10" x1="2245.0" x2="1349.0" y1="53.0" y2="53.0" /><line stroke="#333" stroke-width="10" x1="2341.0" x2="2245.0" y1="117.0" y2="53.0" /><line stroke="#333" stroke-width="10" x1="2437.0" x2="2469.0" y1="1397.0" y2="1301.0" /><line stroke="#333" stroke-width="10" x1="1221.0" x2="2437.0" y1="1397.0" y2="1397.0" /><line stroke="#333" stroke-width="10" x1="1189.0" x2="1221.0" y1="1301.0" y2="1397.0" /><line stroke="#333" stroke-width="10" x1="261.0" x2="133.0" y1="1077.0" y2="1205.0" /><line stroke="#999" stroke-width="3" x1="645.0" x2="453.0" y1="565.0" y2="565.0" /><line stroke="#333" stroke-width="10" x1="69.0" x2="261.0" y1="1077.0" y2="1077.0" /><line stroke="#333" stroke-width="10" x1="69.0" x2="69.0" y1="437.0" y2="1077.0" /><line stroke="#333" stroke-width="10" x1="645.0" x2="197.0" y1="437.0" y2="437.0" /><line stroke="#333" stroke-width="10" x1="645.0" x2="645.0" y1="565.0" y2="437.0" /><line stroke="#333" stroke-width="10" x1="133.0" x2="69.0" y1="437.0" y2="437.0" /><line stroke="#999" stroke-width="3" x1="197.0" x2="133.0" y1="437.0" y2="437.0" /><line stroke="#333" stroke-width="10" x1="133.0" x2="133.0" y1="405.0" y2="437.0" /><line stroke="#333" stroke-width="10" x1="133.0" x2="133.0" y1="373.0" y2="405.0" /><line stroke="#666" stroke-width="20" x1="133.0" x2="197.0" y1="373.0" y2="373.0" /><line stroke="#333" stroke-width="10" x1="197.0" x2="197.0" y1="405.0" y2="373.0" /><line stroke="#333" stroke-width="10" x1="197.0" x2="197.0" y1="437.0" y2="405.0" /><line stroke="#666" stroke-width="20" x1="197.0" x2="133.0" y1="405.0" y2="405.0" /><line stroke="#333" stroke-width="10" x1="133.0" x2="133.0" y1="341.0" y2="373.0" /><line stroke="#999" stroke-width="3" x1="197.0" x2="133.0" y1="341.0" y2="341.0" /><line stroke="#333" stroke-width="10" x1="197.0" x2="197.0" y1="373.0" y2="341.0" /><line stroke="#333" stroke-width="10" x1="101.0" x2="133.0" y1="341.0" y2="341.0" /><line stroke="#333" stroke-width="10" x1="69.0" x2="101.0" y1="309.0" y2="341.0" /><line stroke="#333" stroke-width="10" x1="69.0" x2="69.0" y1="245.0" y2="309.0" /><line stroke="#333" stroke-width="10" x1="5.0" x2="69.0" y1="245.0" y2="245.0" /><line stroke="#333" stroke-width="10" x1="5.0" x2="5.0" y1="181.0" y2="245.0" /><line stroke="#333" stroke-width="10" x1="325.0" x2="197.0" y1="181.0" y2="181.0" /><line stroke="#999" stroke-width="3" x1="325.0" x2="325.0" y1="245.0" y2="181.0" /><line stroke="#333" stroke-width="10" x1="261.0" x2="325.0" y1="245.0" y2="245.0" /><line stroke="#333" stroke-width="10" x1="261.0" x2="261.0" y1="309.0" y2="245.0" /><line stroke="#333" stroke-width="10" x1="229.0" x2="261.0" y1="341.0" y2="309.0" /><line stroke="#333" stroke-width="10" x1="197.0" x2="229.0" y1="341.0" y2="341.0" /><line stroke="#333" stroke-width="10" x1="133.0" x2="5.0" y1="181.0" y2="181.0" /><line stroke="#0d0" stroke-width="20" x1="197.0" x2="133.0" y1="181.0" y2="181.0" /><line stroke="#999" stroke-width="3" x1="149.0" x2="181.0" y1="197.0" y2="197.0" /><line stroke="#999" stroke-width="3" x1="181.0" x2="181.0" y1="197.0" y2="213.0" /><line stroke="#999" stroke-width="3" x1="181.0" x2="149.0" y1="213.0" y2="213.0" /><line stroke="#999" stroke-width="3" x1="149.0" x2="149.0" y1="213.0" y2="197.0" /><line stroke="#333" stroke-width="10" x1="341.0" x2="325.0" y1="181.0" y2="181.0" /><line stroke="#999" stroke-width="3" x1="341.0" x2="341.0" y1="181.0" y2="245.0" /><line stroke="#333" stroke-width="10" x1="325.0" x2="341.0" y1="245.0" y2="245.0" /><line stroke="#333" stroke-width="10" x1="405.0" x2="341.0" y1="117.0" y2="117.0" /><line stroke="#999" stroke-width="3" x1="533.0" x2="533.0" y1="245.0" y2="181.0" /><line stroke="#333" stroke-width="10" x1="341.0" x2="533.0" y1="245.0" y2="245.0" /><line stroke="#666" stroke-width="20" x1="341.0" x2="341.0" y1="117.0" y2="181.0" /><line stroke="#333" stroke-width="10" x1="405.0" x2="405.0" y1="181.0" y2="117.0" /><line stroke="#333" stroke-width="10" x1="533.0" x2="405.0" y1="181.0" y2="181.0" /><line stroke="#333" stroke-width="10" x1="677.0" x2="645.0" y1="565.0" y2="565.0" /><line stroke="#999" stroke-width="3" x1="741.0" x2="677.0" y1="565.0" y2="565.0" /><line stroke="#333" stroke-width="10" x1="677.0" x2="677.0" y1="549.0" y2="565.0" /><line stroke="#666" stroke-width="20" x1="741.0" x2="677.0" y1="549.0" y2="549.0" /><line stroke="#333" stroke-width="10" x1="741.0" x2="741.0" y1="565.0" y2="549.0" /><line stroke="#333" stroke-width="10" x1="677.0" x2="677.0" y1="533.0" y2="549.0" /><line stroke="#666" stroke-width="20" x1="677.0" x2="741.0" y1="533.0" y2="533.0" /><line stroke="#333" stroke-width="10" x1="741.0" x2="741.0" y1="549.0" y2="533.0" /><line stroke="#333" stroke-width="10" x1="677.0" x2="677.0" y1="421.0" y2="533.0" /><line stroke="#999" stroke-width="3" x1="741.0" x2="677.0" y1="421.0" y2="421.0" /><line stroke="#333" stroke-width="10" x1="741.0" x2="741.0" y1="533.0" y2="421.0" /><line stroke="#333" stroke-width="10" x1="533.0" x2="533.0" y1="5.0" y2="181.0" /><line stroke="#333" stroke-width="10" x1="869.0" x2="533.0" y1="5.0" y2="5.0" /><line stroke="#333" stroke-width="10" x1="869.0" x2="869.0" y1="421.0" y2="5.0" /><line stroke="#333" stroke-width="10" x1="741.0" x2="869.0" y1="421.0" y2="421.0" /><line stroke="#333" stroke-width="10" x1="533.0" x2="677.0" y1="421.0" y2="421.0" /><line stroke="#333" stroke-width="10" x1="533.0" x2="533.0" y1="245.0" y2="421.0" /><line stroke="#333" stroke-width="10" x1="573.0" x2="701.0" y1="1781.0" y2="1781.0" /><line stroke="#333" stroke-width="10" x1="701.0" x2="701.0" y1="1781.0" y2="1789.0" /><line stroke="#333" stroke-width="10" x1="701.0" x2="573.0" y1="1789.0" y2="1789.0" /><line stroke="#333" stroke-width="10" x1="573.0" x2="573.0" y1="1789.0" y2="1781.0" /><ellipse cx="421.0" cy="1669.0" fill="#009" rx="12" ry="24" stroke="#009" stroke-width="5" /><rect fill="#090" height="24" stroke="#090" stroke-width="5" transform="rotate(0,789.0,1365.0)" width="24" x="777.0" y="1353.0" /><rect fill="#090" height="24" stroke="#090" stroke-width="5" transform="rotate(0,821.0,1173.0)" width="24" x="809.0" y="1161.0" /><rect fill="#090" height="24" stroke="#090" stroke-width="5" transform="rotate(0,821.0,1269.0)" width="24" x="809.0" y="1257.0" /><rect fill="#900" height="48" stroke="#900" stroke-width="5" transform="rotate(0,293.0,1141.0)" width="32" x="277.0" y="1117.0" /><rect fill="#900" height="48" stroke="#900" stroke-width="5" transform="rotate(0,357.0,1077.0)" width="32" x="341.0" y="1053.0" /><circle cx="517.0" cy="629.0" fill="#009" r="16" stroke="#009" stroke-width="5" /><circle cx="581.0" cy="629.0" fill="#009" r="16" stroke="#009" stroke-width="5" /><circle cx="645.0" cy="629.0" fill="#009" r="16" stroke="#009" stroke-width="5" /><circle cx="709.0" cy="629.0" fill="#009" r="16" stroke="#009" stroke-width="5" /><rect fill="#090" height="24" stroke="#090" stroke-width="5" transform="rotate(0,741.0,853.0)" width="24" x="729.0" y="841.0" /><rect fill="#090" height="24" stroke="#090" stroke-width="5" transform="rotate(0,741.0,661.0)" width="24" x="729.0" y="649.0" /><rect fill="#090" height="24" stroke="#090" stroke-width="5" transform="rotate(0,1029.0,533.0)" width="24" x="1017.0" y="521.0" /><rect fill="#090" height="24" stroke="#090" stroke-width="5" transform="rotate(0,965.0,341.0)" width="24" x="953.0" y="329.0" /><rect fill="#090" height="24" stroke="#090" stroke-width="5" transform="rotate(0,1317.0,181.0)" width="24" x="1305.0" y="169.0" /><rect fill="#090" height="24" stroke="#090" stroke-width="5" transform="rotate(0,1285.0,565.0)" width="24" x="1273.0" y="553.0" /><rect fill="#090" height="24" stroke="#090" stroke-width="5" transform="rotate(0,1701.0,725.0)" width="24" x="1689.0" y="713.0" /><rect fill="#090" height="24" stroke="#090" stroke-width="5" transform="rotate(0,1381.0,885.0)" width="24" x="1369.0" y="873.0" /><rect fill="#090" height="24" stroke="#090" stroke-width="5" transform="rotate(0,1125.0,853.0)" width="24" x="1113.0" y="841.0" /><rect fill="#090" height="24" stroke="#090" stroke-width="5" transform="rotate(0,1125.0,1141.0)" width="24" x="1113.0" y="1129.0" /><rect fill="#090" height="24" stroke="#090" stroke-width="5" transform="rotate(0,1413.0,1141.0)" width="24" x="1401.0" y="1129.0" /><rect fill="#090" height="24" stroke="#090" stroke-width="5" transform="rotate(0,1605.0,981.0)" width="24" x="1593.0" y="969.0" /><rect fill="#090" height="24" stroke="#090" stroke-width="5" transform="rotate(0,2213.0,565.0)" width="24" x="2201.0" y="553.0" /><rect fill="#090" height="24" stroke="#090" stroke-width="5" transform="rotate(0,2213.0,821.0)" width="24" x="2201.0" y="809.0" /><rect fill="#090" height="24" stroke="#090" stroke-width="5" transform="rotate(0,2501.0,1045.0)" width="24" x="2489.0" y="1033.0" /><rect fill="#090" height="24" stroke="#090" stroke-width="5" transform="rotate(0,2629.0,885.0)" width="24" x="2617.0" y="873.0" /><rect fill="#090" height="24" stroke="#090" stroke-width="5" transform="rotate(0,2341.0,725.0)" width="24" x="2329.0" y="713.0" /><rect fill="#090" height="24" stroke="#090" stroke-width="5" transform="rotate(0,2501.0,437.0)" width="24" x="2489.0" y="425.0" /><rect fill="#090" height="24" stroke="#090" stroke-width="5" transform="rotate(0,2821.0,597.0)" width="24" x="2809.0" y="585.0" /><rect fill="#090" height="24" stroke="#090" stroke-width="5" transform="rotate(0,2597.0,373.0)" width="24" x="2585.0" y="361.0" /><rect fill="#090" height="24" stroke="#090" stroke-width="5" transform="rotate(0,2373.0,277.0)" width="24" x="2361.0" y="265.0" /><rect fill="#090" height="24" stroke="#090" stroke-width="5" transform="rotate(0,2405.0,533.0)" width="24" x="2393.0" y="521.0" /><circle cx="2821.0" cy="757.0" fill="#009" r="16" stroke="#009" stroke-width="5" /><circle cx="2821.0" cy="821.0" fill="#009" r="16" stroke="#009" stroke-width="5" /><circle cx="2757.0" cy="821.0" fill="#009" r="16" stroke="#009" stroke-width="5" /><circle cx="2757.0" cy="757.0" fill="#009" r="16" stroke="#009" stroke-width="5" /><rect fill="#900" height="48" stroke="#900" stroke-width="5" transform="rotate(225,2629.0,1077.0)" width="32" x="2613.0" y="1053.0" /><rect fill="#900" height="48" stroke="#900" stroke-width="5" transform="rotate(225,2565.0,1205.0)" width="32" x="2549.0" y="1181.0" /><rect fill="#900" height="48" stroke="#900" stroke-width="5" transform="rotate(180,2693.0,501.0)" width="32" x="2677.0" y="477.0" /><rect fill="#900" height="48" stroke="#900" stroke-width="5" transform="rotate(180,2245.0,373.0)" width="32" x="2229.0" y="349.0" /><rect fill="#900" height="48" stroke="#900" stroke-width="5" transform="rotate(180,2501.0,757.0)" width="32" x="2485.0" y="733.0" /><rect fill="#090" height="24" stroke="#090" stroke-width="5" transform="rotate(0,165.0,421.0)" width="24" x="153.0" y="409.0" /><rect fill="#090" height="24" stroke="#090" stroke-width="5" transform="rotate(0,709.0,581.0)" width="24" x="697.0" y="569.0" /><rect fill="#900" height="48" stroke="#900" stroke-width="5" transform="rotate(90,629.0,53.0)" width="32" x="613.0" y="29.0" /><rect fill="#900" height="48" stroke="#900" stroke-width="5" transform="rotate(90,725.0,85.0)" width="32" x="709.0" y="61.0" /><rect fill="#900" height="48" stroke="#900" stroke-width="5" transform="rotate(90,613.0,469.0)" width="32" x="597.0" y="445.0" /><rect fill="#900" height="48" stroke="#900" stroke-width="5" transform="rotate(90,1157.0,277.0)" width="32" x="1141.0" y="253.0" /><rect fill="#900" height="48" stroke="#900" stroke-width="5" transform="rotate(90,229.0,629.0)" width="32" x="213.0" y="605.0" /><ellipse cx="421.0" cy="1621.0" fill="#009" rx="12" ry="24" stroke="#009" stroke-width="5" /><ellipse cx="421.0" cy="1573.0" fill="#009" rx="12" ry="24" stroke="#009" stroke-width="5" /><ellipse cx="421.0" cy="1525.0" fill="#009" rx="12" ry="24" stroke="#009" stroke-width="5" /><circle cx="869.0" cy="1509.0" fill="#090" r="16" stroke="#090" stroke-width="5" /><circle cx="869.0" cy="1573.0" fill="#090" r="16" stroke="#090" stroke-width="5" /><circle cx="869.0" cy="1637.0" fill="#090" r="16" stroke="#090" stroke-width="5" /><circle cx="869.0" cy="1701.0" fill="#090" r="16" stroke="#090" stroke-width="5" /><circle cx="2853.0" cy="661.0" fill="#900" r="16" stroke="#900" stroke-width="5" /><circle cx="2397.0" cy="1173.0" fill="#090" r="16" stroke="#090" stroke-width="5" /><circle cx="2525.0" cy="245.0" fill="#090" r="16" stroke="#090" stroke-width="5" /><circle cx="573.0" cy="373.0" fill="#090" r="16" stroke="#090" stroke-width="5" /><circle cx="797.0" cy="373.0" fill="#009" r="16" stroke="#009" stroke-width="5" /><circle cx="101.0" cy="277.0" fill="#009" r="16" stroke="#009" stroke-width="5" /><circle cx="229.0" cy="277.0" fill="#009" r="16" stroke="#009" stroke-width="5" /><circle cx="37.0" cy="213.0" fill="#090" r="16" stroke="#090" stroke-width="5" /><rect fill="#900" height="48" stroke="#900" stroke-width="5" transform="rotate(90,677.0,1109.0)" width="32" x="661.0" y="1085.0" /><rect fill="#900" height="48" stroke="#900" stroke-width="5" transform="rotate(90,805.0,1109.0)" width="32" x="789.0" y="1085.0" /><rect fill="#090" height="24" stroke="#090" stroke-width="5" transform="rotate(0,133.0,1013.0)" width="24" x="121.0" y="1001.0" /><circle cx="373.0" cy="142.0" fill="#090" r="16" stroke="#090" stroke-width="5" /><circle cx="2691.0" cy="956.0" fill="#900" r="16" stroke="#900" stroke-width="5" /><rect fill="#090" height="24" stroke="#090" stroke-width="5" transform="rotate(0,421.0,1717.0)" width="24" x="409.0" y="1705.0" /><rect fill="#090" height="24" stroke="#090" stroke-width="5" transform="rotate(0,101.0,469.0)" width="24" x="89.0" y="457.0" /><rect fill="#090" height="24" stroke="#090" stroke-width="5" transform="rotate(270,1189.0,1237.0)" width="24" x="1177.0" y="1225.0" /><rect fill="#090" height="24" stroke="#090" stroke-width="5" transform="rotate(0,389.0,213.0)" width="24" x="377.0" y="201.0" /><circle cx="485.0" cy="213.0" fill="#900" r="16" stroke="#900" stroke-width="5" /><circle cx="517.0" cy="469.0" fill="#900" r="16" stroke="#900" stroke-width="5" /><circle cx="2789.0" cy="661.0" fill="#090" r="16" stroke="#090" stroke-width="5" /><circle cx="645.0" cy="1845.0" fill="#900" r="16" stroke="#900" stroke-width="5" /></svg>