<?xml version="1.0" encoding="utf-8" ?>
<svg baseProfile="tiny" height="892" version="1.2" viewBox="0 0 5279 4600" width="1024" xmlns="http://www.w3.org/2000/svg" xmlns:ev="http://www.w3.org/2001/xml-events" xmlns:xlink="http://www.w3.org/1999/xlink"><defs /><line stroke="#333" stroke-width="10" x1="1593.0" x2="1849.0" y1="3849.0" y2="3849.0" /><line stroke="#666" stroke-width="20" x1="1849.0" x2="1849.0" y1="3849.0" y2="3721.0" /><line stroke="#333" stroke-width="10" x1="1849.0" x2="1593.0" y1="3721.0" y2="3721.0" /><line stroke="#333" stroke-width="10" x1="1593.0" x2="1593.0" y1="3721.0" y2="3849.0" /><line stroke="#333" stroke-width="10" x1="1923.0" x2="3214.0" y1="4355.0" y2="4355.0" /><line stroke="#333" stroke-width="10" x1="4289.0" x2="4283.0" y1="4349.0" y2="3899.0" /><line stroke="#333" stroke-width="10" x1="4289.0" x2="3179.0" y1="3305.0" y2="3251.0" /><line stroke="#333" stroke-width="10" x1="1929.0" x2="1863.0" y1="3305.0" y2="3721.0" /><line stroke="#333" stroke-width="10" x1="1849.0" x2="1863.0" y1="3849.0" y2="3849.0" /><line stroke="#666" stroke-width="20" x1="1863.0" x2="1863.0" y1="3721.0" y2="3849.0" /><line stroke="#333" stroke-width="10" x1="1863.0" x2="1849.0" y1="3721.0" y2="3721.0" /><line stroke="#333" stroke-width="10" x1="1863.0" x2="1923.0" y1="3849.0" y2="4355.0" /><line stroke="#d00" stroke-width="20" x1="4283.0" x2="4283.0" y1="3899.0" y2="3744.0" /><line stroke="#333" stroke-width="10" x1="4297.0" x2="4423.0" y1="3885.0" y2="3885.0" /><line stroke="#666" stroke-width="20" x1="4423.0" x2="4421.0" y1="3885.0" y2="3744.0" /><line stroke="#333" stroke-width="10" x1="4421.0" x2="4297.0" y1="3744.0" y2="3744.0" /><line stroke="#666" stroke-width="20" x1="4297.0" x2="4297.0" y1="3744.0" y2="3885.0" /><line stroke="#333" stroke-width="10" x1="4283.0" x2="4297.0" y1="3899.0" y2="3885.0" /><line stroke="#333" stroke-width="10" x1="4297.0" x2="4283.0" y1="3744.0" y2="3744.0" /><line stroke="#333" stroke-width="10" x1="4283.0" x2="4289.0" y1="3744.0" y2="3305.0" /><line stroke="#333" stroke-width="10" x1="4453.0" x2="4709.0" y1="3889.0" y2="3889.0" /><line stroke="#333" stroke-width="10" x1="4709.0" x2="4709.0" y1="3889.0" y2="3745.0" /><line stroke="#333" stroke-width="10" x1="4709.0" x2="4453.0" y1="3745.0" y2="3745.0" /><line stroke="#666" stroke-width="20" x1="4453.0" x2="4453.0" y1="3745.0" y2="3889.0" /><line stroke="#333" stroke-width="10" x1="4423.0" x2="4453.0" y1="3885.0" y2="3889.0" /><line stroke="#333" stroke-width="10" x1="4453.0" x2="4421.0" y1="3745.0" y2="3744.0" /><line stroke="#333" stroke-width="10" x1="3154.0" x2="3194.0" y1="3165.0" y2="2645.0" /><line stroke="#666" stroke-width="20" x1="3194.0" x2="3107.0" y1="2645.0" y2="2492.0" /><line stroke="#333" stroke-width="10" x1="2657.0" x2="3018.0" y1="2958.0" y2="3190.0" /><line stroke="#333" stroke-width="10" x1="3307.0" x2="3513.0" y1="3216.0" y2="3081.0" /><line stroke="#333" stroke-width="10" x1="3347.0" x2="3154.0" y1="2948.0" y2="3165.0" /><line stroke="#333" stroke-width="10" x1="3179.0" x2="3307.0" y1="3251.0" y2="3216.0" /><line stroke="#333" stroke-width="10" x1="2967.0" x2="3051.0" y1="3223.0" y2="3251.0" /><line stroke="#666" stroke-width="20" x1="3058.0" x2="3154.0" y1="3165.0" y2="3165.0" /><line stroke="#333" stroke-width="10" x1="3513.0" x2="3347.0" y1="3081.0" y2="2948.0" /><line stroke="#666" stroke-width="20" x1="3179.0" x2="3051.0" y1="3251.0" y2="3251.0" /><line stroke="#333" stroke-width="10" x1="3051.0" x2="1929.0" y1="3251.0" y2="3305.0" /><line stroke="#666" stroke-width="20" x1="3018.0" x2="3058.0" y1="3190.0" y2="3165.0" /><line stroke="#333" stroke-width="10" x1="3018.0" x2="2967.0" y1="3190.0" y2="3223.0" /><line stroke="#666" stroke-width="20" x1="2723.0" x2="2557.0" y1="2456.0" y2="2708.0" /><line stroke="#333" stroke-width="10" x1="2557.0" x2="2657.0" y1="2708.0" y2="2958.0" /><line stroke="#333" stroke-width="10" x1="3107.0" x2="2723.0" y1="2492.0" y2="2456.0" /><line stroke="#333" stroke-width="10" x1="1689.0" x2="2463.0" y1="2505.0" y2="2655.0" /><line stroke="#666" stroke-width="20" x1="2463.0" x2="2619.0" y1="2655.0" y2="2403.0" /><line stroke="#333" stroke-width="10" x1="2619.0" x2="2205.0" y1="2403.0" y2="1797.0" /><line stroke="#d00" stroke-width="20" x1="2205.0" x2="1849.0" y1="1797.0" y2="1849.0" /><line stroke="#333" stroke-width="10" x1="1503.0" x2="1689.0" y1="1912.0" y2="2505.0" /><line stroke="#333" stroke-width="10" x1="2723.0" x2="2813.0" y1="2456.0" y2="1896.0" /><line stroke="#333" stroke-width="10" x1="2463.0" x2="2258.0" y1="2655.0" y2="2713.0" /><line stroke="#333" stroke-width="10" x1="1658.0" x2="1645.0" y1="2603.0" y2="2834.0" /><line stroke="#333" stroke-width="10" x1="2258.0" x2="1658.0" y1="2713.0" y2="2603.0" /><line stroke="#333" stroke-width="10" x1="2253.0" x2="2557.0" y1="2778.0" y2="2708.0" /><line stroke="#333" stroke-width="10" x1="2413.0" x2="2618.0" y1="1736.0" y2="2171.0" /><line stroke="#333" stroke-width="10" x1="2813.0" x2="2413.0" y1="1896.0" y2="1736.0" /><line stroke="#333" stroke-width="10" x1="2618.0" x2="2619.0" y1="2171.0" y2="2403.0" /><line stroke="#333" stroke-width="10" x1="1645.0" x2="2253.0" y1="2834.0" y2="2778.0" /><line stroke="#333" stroke-width="10" x1="3217.0" x2="3349.0" y1="4595.0" y2="4595.0" /><line stroke="#333" stroke-width="10" x1="3349.0" x2="3346.0" y1="4595.0" y2="4383.0" /><line stroke="#666" stroke-width="20" x1="3346.0" x2="3214.0" y1="4383.0" y2="4380.0" /><line stroke="#333" stroke-width="10" x1="3214.0" x2="3217.0" y1="4380.0" y2="4595.0" /><line stroke="#333" stroke-width="10" x1="3346.0" x2="3349.0" y1="4383.0" y2="4360.0" /><line stroke="#666" stroke-width="20" x1="3214.0" x2="3349.0" y1="4355.0" y2="4360.0" /><line stroke="#333" stroke-width="10" x1="3214.0" x2="3214.0" y1="4355.0" y2="4380.0" /><line stroke="#333" stroke-width="10" x1="3349.0" x2="4289.0" y1="4360.0" y2="4349.0" /><line stroke="#333" stroke-width="10" x1="3242.0" x2="4298.0" y1="2629.0" y2="2669.0" /><line stroke="#333" stroke-width="10" x1="4298.0" x2="4690.0" y1="2669.0" y2="1176.0" /><line stroke="#333" stroke-width="10" x1="4178.0" x2="3154.0" y1="2541.0" y2="2493.0" /><line stroke="#666" stroke-width="20" x1="3154.0" x2="3242.0" y1="2493.0" y2="2629.0" /><line stroke="#333" stroke-width="10" x1="4370.0" x2="4178.0" y1="1657.0" y2="2541.0" /><line stroke="#666" stroke-width="20" x1="4690.0" x2="4554.0" y1="1176.0" y2="1158.0" /><line stroke="#333" stroke-width="10" x1="3194.0" x2="3242.0" y1="2645.0" y2="2629.0" /><line stroke="#333" stroke-width="10" x1="3154.0" x2="3107.0" y1="2493.0" y2="2492.0" /><line stroke="#333" stroke-width="10" x1="4706.0" x2="5274.0" y1="1158.0" y2="934.0" /><line stroke="#333" stroke-width="10" x1="5274.0" x2="4082.0" y1="934.0" y2="662.0" /><line stroke="#333" stroke-width="10" x1="4082.0" x2="4554.0" y1="662.0" y2="1126.0" /><line stroke="#666" stroke-width="20" x1="4554.0" x2="4706.0" y1="1126.0" y2="1158.0" /><line stroke="#333" stroke-width="10" x1="4690.0" x2="4706.0" y1="1176.0" y2="1158.0" /><line stroke="#333" stroke-width="10" x1="4554.0" x2="4554.0" y1="1126.0" y2="1158.0" /><line stroke="#333" stroke-width="10" x1="4554.0" x2="4370.0" y1="1158.0" y2="1657.0" /><line stroke="#333" stroke-width="10" x1="1849.0" x2="1503.0" y1="1849.0" y2="1912.0" /><line stroke="#d00" stroke-width="20" x1="1824.0" x2="2199.0" y1="1803.0" y2="1743.0" /><line stroke="#333" stroke-width="10" x1="2199.0" x2="2027.0" y1="1743.0" y2="1026.0" /><line stroke="#666" stroke-width="20" x1="2027.0" x2="1579.0" y1="1026.0" y2="1040.0" /><line stroke="#333" stroke-width="10" x1="1579.0" x2="1824.0" y1="1040.0" y2="1803.0" /><line stroke="#333" stroke-width="10" x1="2205.0" x2="2199.0" y1="1797.0" y2="1743.0" /><line stroke="#333" stroke-width="10" x1="1824.0" x2="1849.0" y1="1803.0" y2="1849.0" /><line stroke="#666" stroke-width="20" x1="1572.0" x2="2012.0" y1="956.0" y2="948.0" /><line stroke="#333" stroke-width="10" x1="2012.0" x2="1928.0" y1="948.0" y2="780.0" /><line stroke="#333" stroke-width="10" x1="1672.0" x2="1572.0" y1="792.0" y2="956.0" /><line stroke="#999" stroke-width="3" x1="1673.0" x2="1929.0" y1="713.0" y2="713.0" /><line stroke="#333" stroke-width="10" x1="1929.0" x2="1929.0" y1="713.0" y2="641.0" /><line stroke="#999" stroke-width="3" x1="1929.0" x2="1673.0" y1="641.0" y2="641.0" /><line stroke="#333" stroke-width="10" x1="1673.0" x2="1673.0" y1="641.0" y2="713.0" /><line stroke="#999" stroke-width="3" x1="1672.0" x2="1928.0" y1="792.0" y2="780.0" /><line stroke="#333" stroke-width="10" x1="1673.0" x2="1672.0" y1="713.0" y2="792.0" /><line stroke="#333" stroke-width="10" x1="1928.0" x2="1929.0" y1="780.0" y2="713.0" /><line stroke="#999" stroke-width="3" x1="1673.0" x2="1929.0" y1="571.0" y2="571.0" /><line stroke="#333" stroke-width="10" x1="1929.0" x2="1913.0" y1="571.0" y2="487.0" /><line stroke="#999" stroke-width="3" x1="1913.0" x2="1657.0" y1="487.0" y2="487.0" /><line stroke="#333" stroke-width="10" x1="1657.0" x2="1673.0" y1="487.0" y2="571.0" /><line stroke="#333" stroke-width="10" x1="1929.0" x2="1929.0" y1="641.0" y2="571.0" /><line stroke="#333" stroke-width="10" x1="1673.0" x2="1673.0" y1="571.0" y2="641.0" /><line stroke="#999" stroke-width="3" x1="1643.0" x2="1899.0" y1="417.0" y2="417.0" /><line stroke="#999" stroke-width="3" x1="1871.0" x2="1615.0" y1="350.0" y2="351.0" /><line stroke="#333" stroke-width="10" x1="1615.0" x2="1643.0" y1="351.0" y2="417.0" /><line stroke="#333" stroke-width="10" x1="1913.0" x2="1899.0" y1="487.0" y2="417.0" /><line stroke="#333" stroke-width="10" x1="1643.0" x2="1657.0" y1="417.0" y2="487.0" /><line stroke="#333" stroke-width="10" x1="1899.0" x2="1871.0" y1="417.0" y2="350.0" /><line stroke="#333" stroke-width="10" x1="1871.0" x2="1611.0" y1="350.0" y2="5.0" /><line stroke="#333" stroke-width="10" x1="1611.0" x2="715.0" y1="5.0" y2="37.0" /><line stroke="#333" stroke-width="10" x1="1263.0" x2="1615.0" y1="205.0" y2="351.0" /><line stroke="#666" stroke-width="20" x1="715.0" x2="803.0" y1="37.0" y2="455.0" /><line stroke="#333" stroke-width="10" x1="803.0" x2="1115.0" y1="455.0" y2="449.0" /><line stroke="#333" stroke-width="10" x1="1115.0" x2="1263.0" y1="449.0" y2="205.0" /><line stroke="#333" stroke-width="10" x1="2027.0" x2="2012.0" y1="1026.0" y2="948.0" /><line stroke="#333" stroke-width="10" x1="1572.0" x2="1579.0" y1="956.0" y2="1040.0" /><line stroke="#333" stroke-width="10" x1="519.0" x2="762.0" y1="419.0" y2="464.0" /><line stroke="#666" stroke-width="20" x1="762.0" x2="667.0" y1="464.0" y2="34.0" /><line stroke="#333" stroke-width="10" x1="667.0" x2="467.0" y1="34.0" y2="218.0" /><line stroke="#999" stroke-width="3" x1="467.0" x2="519.0" y1="218.0" y2="419.0" /><line stroke="#999" stroke-width="3" x1="338.0" x2="338.0" y1="219.0" y2="419.0" /><line stroke="#333" stroke-width="10" x1="338.0" x2="519.0" y1="419.0" y2="419.0" /><line stroke="#333" stroke-width="10" x1="467.0" x2="338.0" y1="218.0" y2="219.0" /><line stroke="#999" stroke-width="3" x1="169.0" x2="297.0" y1="689.0" y2="419.0" /><line stroke="#333" stroke-width="10" x1="338.0" x2="169.0" y1="219.0" y2="219.0" /><line stroke="#333" stroke-width="10" x1="169.0" x2="169.0" y1="219.0" y2="689.0" /><line stroke="#333" stroke-width="10" x1="297.0" x2="338.0" y1="419.0" y2="419.0" /><line stroke="#333" stroke-width="10" x1="5.0" x2="491.0" y1="1326.0" y2="1326.0" /><line stroke="#0d0" stroke-width="20" x1="491.0" x2="491.0" y1="1326.0" y2="1155.0" /><line stroke="#333" stroke-width="10" x1="169.0" x2="169.0" y1="689.0" y2="1135.0" /><line stroke="#333" stroke-width="10" x1="762.0" x2="803.0" y1="464.0" y2="455.0" /><line stroke="#333" stroke-width="10" x1="715.0" x2="667.0" y1="37.0" y2="34.0" /><line stroke="#333" stroke-width="10" x1="302.0" x2="297.0" y1="1155.0" y2="419.0" /><line stroke="#333" stroke-width="10" x1="491.0" x2="302.0" y1="1155.0" y2="1155.0" /><line stroke="#333" stroke-width="10" x1="169.0" x2="14.0" y1="1135.0" y2="1137.0" /><line stroke="#333" stroke-width="10" x1="14.0" x2="5.0" y1="1137.0" y2="1326.0" /><ellipse cx="1708.0" cy="3793.0" fill="#009" rx="12" ry="24" stroke="#009" stroke-width="5" /><ellipse cx="1637.0" cy="3803.0" fill="#009" rx="12" ry="24" stroke="#009" stroke-width="5" /><ellipse cx="1765.0" cy="3795.0" fill="#009" rx="12" ry="24" stroke="#009" stroke-width="5" /><ellipse cx="1905.0" cy="3667.0" fill="#009" rx="12" ry="24" stroke="#009" stroke-width="5" /><rect fill="#090" height="24" stroke="#090" stroke-width="5" transform="rotate(0,1826.0,2221.0)" width="24" x="1814.0" y="2209.0" /><rect fill="#090" height="24" stroke="#090" stroke-width="5" transform="rotate(0,2618.0,3597.0)" width="24" x="2606.0" y="3585.0" /><rect fill="#900" height="48" stroke="#900" stroke-width="5" transform="rotate(180,4209.0,4219.0)" width="32" x="4193.0" y="4195.0" /><rect fill="#900" height="48" stroke="#900" stroke-width="5" transform="rotate(180,4193.0,3835.0)" width="32" x="4177.0" y="3811.0" /><rect fill="#900" height="48" stroke="#900" stroke-width="5" transform="rotate(180,4205.0,3423.0)" width="32" x="4189.0" y="3399.0" /><rect fill="#900" height="48" stroke="#900" stroke-width="5" transform="rotate(180,3205.0,3827.0)" width="32" x="3189.0" y="3803.0" /><rect fill="#090" height="24" stroke="#090" stroke-width="5" transform="rotate(180,3801.0,4047.0)" width="24" x="3789.0" y="4035.0" /><rect fill="#090" height="24" stroke="#090" stroke-width="5" transform="rotate(180,3801.0,3599.0)" width="24" x="3789.0" y="3587.0" /><rect fill="#900" height="48" stroke="#900" stroke-width="5" transform="rotate(45,2717.0,2791.0)" width="32" x="2701.0" y="2767.0" /><rect fill="#900" height="48" stroke="#900" stroke-width="5" transform="rotate(45,3005.0,2623.0)" width="32" x="2989.0" y="2599.0" /><rect fill="#900" height="48" stroke="#900" stroke-width="5" transform="rotate(45,2833.0,2707.0)" width="32" x="2817.0" y="2683.0" /><rect fill="#900" height="48" stroke="#900" stroke-width="5" transform="rotate(180,2713.0,2635.0)" width="32" x="2697.0" y="2611.0" /><rect fill="#900" height="48" stroke="#900" stroke-width="5" transform="rotate(45,2057.0,2235.0)" width="32" x="2041.0" y="2211.0" /><rect fill="#900" height="48" stroke="#900" stroke-width="5" transform="rotate(45,1749.0,2415.0)" width="32" x="1733.0" y="2391.0" /><rect fill="#900" height="48" stroke="#900" stroke-width="5" transform="rotate(45,2281.0,2047.0)" width="32" x="2265.0" y="2023.0" /><rect fill="#900" height="48" stroke="#900" stroke-width="5" transform="rotate(45,1785.0,1995.0)" width="32" x="1769.0" y="1971.0" /><circle cx="1913.0" cy="3827.0" fill="#900" r="16" stroke="#900" stroke-width="5" /><circle cx="1905.0" cy="3719.0" fill="#090" r="16" stroke="#090" stroke-width="5" /><circle cx="1913.0" cy="3771.0" fill="#090" r="16" stroke="#090" stroke-width="5" /><circle cx="2045.0" cy="3347.0" fill="#090" r="16" stroke="#090" stroke-width="5" /><circle cx="2033.0" cy="4279.0" fill="#090" r="16" stroke="#090" stroke-width="5" /><circle cx="2257.0" cy="3771.0" fill="#900" r="16" stroke="#900" stroke-width="5" /><circle cx="3285.0" cy="4551.0" fill="#900" r="16" stroke="#900" stroke-width="5" /><circle cx="3277.0" cy="4455.0" fill="#090" r="16" stroke="#090" stroke-width="5" /><circle cx="4213.0" cy="3619.0" fill="#009" r="16" stroke="#009" stroke-width="5" /><circle cx="4201.0" cy="4027.0" fill="#009" r="16" stroke="#009" stroke-width="5" /><circle cx="3365.0" cy="3055.0" fill="#009" r="16" stroke="#009" stroke-width="5" /><circle cx="3297.0" cy="3135.0" fill="#009" r="16" stroke="#009" stroke-width="5" /><circle cx="1721.0" cy="2711.0" fill="#900" r="16" stroke="#900" stroke-width="5" /><circle cx="1821.0" cy="2671.0" fill="#090" r="16" stroke="#090" stroke-width="5" /><circle cx="1797.0" cy="2767.0" fill="#090" r="16" stroke="#090" stroke-width="5" /><rect fill="#090" height="24" stroke="#090" stroke-width="5" transform="rotate(180,2525.0,1839.0)" width="24" x="2513.0" y="1827.0" /><rect fill="#090" height="24" stroke="#090" stroke-width="5" transform="rotate(180,2769.0,1915.0)" width="24" x="2757.0" y="1903.0" /><circle cx="2649.0" cy="1983.0" fill="#900" r="16" stroke="#900" stroke-width="5" /><circle cx="2749.0" cy="1987.0" fill="#090" r="16" stroke="#090" stroke-width="5" /><circle cx="1605.0" cy="1967.0" fill="#009" r="16" stroke="#009" stroke-width="5" /><rect fill="#090" height="24" stroke="#090" stroke-width="5" transform="rotate(45,2541.0,2355.0)" width="24" x="2529.0" y="2343.0" /><rect fill="#090" height="24" stroke="#090" stroke-width="5" transform="rotate(45,2397.0,2583.0)" width="24" x="2385.0" y="2571.0" /><ellipse cx="3061.0" cy="2531.0" fill="#900" rx="12" ry="24" stroke="#900" stroke-width="5" /><ellipse cx="2657.0" cy="2839.0" fill="#900" rx="12" ry="24" stroke="#900" stroke-width="5" /><rect fill="#090" height="24" stroke="#090" stroke-width="5" transform="rotate(45,3777.0,4291.0)" width="24" x="3765.0" y="4279.0" /><rect fill="#090" height="24" stroke="#090" stroke-width="5" transform="rotate(45,3837.0,3335.0)" width="24" x="3825.0" y="3323.0" /><rect fill="#090" height="24" stroke="#090" stroke-width="5" transform="rotate(180,2169.0,4295.0)" width="24" x="2157.0" y="4283.0" /><rect fill="#090" height="24" stroke="#090" stroke-width="5" transform="rotate(180,2161.0,3351.0)" width="24" x="2149.0" y="3339.0" /><rect fill="#090" height="24" stroke="#090" stroke-width="5" transform="rotate(45,2869.0,2515.0)" width="24" x="2857.0" y="2503.0" /><rect fill="#090" height="24" stroke="#090" stroke-width="5" transform="rotate(45,2621.0,2755.0)" width="24" x="2609.0" y="2743.0" /><rect fill="#090" height="24" stroke="#090" stroke-width="5" transform="rotate(0,3002.0,2965.0)" width="24" x="2990.0" y="2953.0" /><rect fill="#090" height="24" stroke="#090" stroke-width="5" transform="rotate(0,3930.0,3821.0)" width="24" x="3918.0" y="3809.0" /><rect fill="#090" height="24" stroke="#090" stroke-width="5" transform="rotate(0,3106.0,4133.0)" width="24" x="3094.0" y="4121.0" /><rect fill="#090" height="24" stroke="#090" stroke-width="5" transform="rotate(0,3050.0,3445.0)" width="24" x="3038.0" y="3433.0" /><rect fill="#090" height="24" stroke="#090" stroke-width="5" transform="rotate(0,2450.0,4077.0)" width="24" x="2438.0" y="4065.0" /><rect fill="#090" height="24" stroke="#090" stroke-width="5" transform="rotate(0,2787.0,3852.0)" width="24" x="2775.0" y="3840.0" /><rect fill="#090" height="24" stroke="#090" stroke-width="5" transform="rotate(0,3402.0,3517.0)" width="24" x="3390.0" y="3505.0" /><rect fill="#090" height="24" stroke="#090" stroke-width="5" transform="rotate(0,3506.0,3901.0)" width="24" x="3494.0" y="3889.0" /><rect fill="#090" height="24" stroke="#090" stroke-width="5" transform="rotate(0,3082.0,2853.0)" width="24" x="3070.0" y="2841.0" /><rect fill="#090" height="24" stroke="#090" stroke-width="5" transform="rotate(0,2842.0,2949.0)" width="24" x="2830.0" y="2937.0" /><rect fill="#090" height="24" stroke="#090" stroke-width="5" transform="rotate(0,3066.0,3077.0)" width="24" x="3054.0" y="3065.0" /><rect fill="#090" height="24" stroke="#090" stroke-width="5" transform="rotate(0,2114.0,2477.0)" width="24" x="2102.0" y="2465.0" /><rect fill="#090" height="24" stroke="#090" stroke-width="5" transform="rotate(0,2258.0,2333.0)" width="24" x="2246.0" y="2321.0" /><rect fill="#090" height="24" stroke="#090" stroke-width="5" transform="rotate(0,3254.0,2568.0)" width="24" x="3242.0" y="2556.0" /><rect fill="#090" height="24" stroke="#090" stroke-width="5" transform="rotate(0,3358.0,2572.0)" width="24" x="3346.0" y="2560.0" /><rect fill="#090" height="24" stroke="#090" stroke-width="5" transform="rotate(0,3478.0,2572.0)" width="24" x="3466.0" y="2560.0" /><rect fill="#090" height="24" stroke="#090" stroke-width="5" transform="rotate(0,3586.0,2584.0)" width="24" x="3574.0" y="2572.0" /><rect fill="#090" height="24" stroke="#090" stroke-width="5" transform="rotate(0,3674.0,2584.0)" width="24" x="3662.0" y="2572.0" /><rect fill="#090" height="24" stroke="#090" stroke-width="5" transform="rotate(0,3810.0,2592.0)" width="24" x="3798.0" y="2580.0" /><rect fill="#090" height="24" stroke="#090" stroke-width="5" transform="rotate(0,3954.0,2592.0)" width="24" x="3942.0" y="2580.0" /><rect fill="#090" height="24" stroke="#090" stroke-width="5" transform="rotate(0,3890.0,2600.0)" width="24" x="3878.0" y="2588.0" /><rect fill="#090" height="24" stroke="#090" stroke-width="5" transform="rotate(0,3734.0,2596.0)" width="24" x="3722.0" y="2584.0" /><rect fill="#090" height="24" stroke="#090" stroke-width="5" transform="rotate(0,4058.0,2604.0)" width="24" x="4046.0" y="2592.0" /><rect fill="#090" height="24" stroke="#090" stroke-width="5" transform="rotate(0,4158.0,2608.0)" width="24" x="4146.0" y="2596.0" /><rect fill="#090" height="24" stroke="#090" stroke-width="5" transform="rotate(0,4238.0,2612.0)" width="24" x="4226.0" y="2600.0" /><rect fill="#090" height="24" stroke="#090" stroke-width="5" transform="rotate(0,4262.0,2536.0)" width="24" x="4250.0" y="2524.0" /><rect fill="#090" height="24" stroke="#090" stroke-width="5" transform="rotate(0,4262.0,2464.0)" width="24" x="4250.0" y="2452.0" /><rect fill="#090" height="24" stroke="#090" stroke-width="5" transform="rotate(0,4302.0,2380.0)" width="24" x="4290.0" y="2368.0" /><rect fill="#090" height="24" stroke="#090" stroke-width="5" transform="rotate(0,4306.0,2292.0)" width="24" x="4294.0" y="2280.0" /><rect fill="#090" height="24" stroke="#090" stroke-width="5" transform="rotate(0,4330.0,2204.0)" width="24" x="4318.0" y="2192.0" /><rect fill="#090" height="24" stroke="#090" stroke-width="5" transform="rotate(0,4358.0,2100.0)" width="24" x="4346.0" y="2088.0" /><rect fill="#090" height="24" stroke="#090" stroke-width="5" transform="rotate(0,4382.0,2000.0)" width="24" x="4370.0" y="1988.0" /><rect fill="#090" height="24" stroke="#090" stroke-width="5" transform="rotate(0,4402.0,1896.0)" width="24" x="4390.0" y="1884.0" /><rect fill="#090" height="24" stroke="#090" stroke-width="5" transform="rotate(0,4438.0,1768.0)" width="24" x="4426.0" y="1756.0" /><rect fill="#090" height="24" stroke="#090" stroke-width="5" transform="rotate(0,4482.0,1668.0)" width="24" x="4470.0" y="1656.0" /><rect fill="#090" height="24" stroke="#090" stroke-width="5" transform="rotate(0,4510.0,1528.0)" width="24" x="4498.0" y="1516.0" /><rect fill="#090" height="24" stroke="#090" stroke-width="5" transform="rotate(0,4554.0,1432.0)" width="24" x="4542.0" y="1420.0" /><rect fill="#090" height="24" stroke="#090" stroke-width="5" transform="rotate(0,4574.0,1316.0)" width="24" x="4562.0" y="1304.0" /><rect fill="#090" height="24" stroke="#090" stroke-width="5" transform="rotate(0,4606.0,1232.0)" width="24" x="4594.0" y="1220.0" /><rect fill="#090" height="24" stroke="#090" stroke-width="5" transform="rotate(0,4214.0,2553.0)" width="24" x="4202.0" y="2541.0" /><rect fill="#090" height="24" stroke="#090" stroke-width="5" transform="rotate(0,4529.0,1373.0)" width="24" x="4517.0" y="1361.0" /><rect fill="#900" height="48" stroke="#900" stroke-width="5" transform="rotate(90,4592.0,1009.0)" width="32" x="4576.0" y="985.0" /><rect fill="#900" height="48" stroke="#900" stroke-width="5" transform="rotate(90,4711.0,1044.0)" width="32" x="4695.0" y="1020.0" /><rect fill="#900" height="48" stroke="#900" stroke-width="5" transform="rotate(90,4816.0,1002.0)" width="32" x="4800.0" y="978.0" /><rect fill="#900" height="48" stroke="#900" stroke-width="5" transform="rotate(90,4522.0,925.0)" width="32" x="4506.0" y="901.0" /><ellipse cx="4683.0" cy="862.0" fill="#090" rx="12" ry="24" stroke="#090" stroke-width="5" /><rect fill="#090" height="24" stroke="#090" stroke-width="5" transform="rotate(0,4247.0,752.0)" width="24" x="4235.0" y="740.0" /><rect fill="#090" height="24" stroke="#090" stroke-width="5" transform="rotate(0,5117.0,946.0)" width="24" x="5105.0" y="934.0" /><ellipse cx="4844.0" cy="890.0" fill="#090" rx="12" ry="24" stroke="#090" stroke-width="5" /><ellipse cx="4564.0" cy="834.0" fill="#090" rx="12" ry="24" stroke="#090" stroke-width="5" /><rect fill="#900" height="48" stroke="#900" stroke-width="5" transform="rotate(90,1809.0,1130.0)" width="32" x="1793.0" y="1106.0" /><rect fill="#090" height="24" stroke="#090" stroke-width="5" transform="rotate(90,1690.0,1109.0)" width="24" x="1678.0" y="1097.0" /><rect fill="#090" height="24" stroke="#090" stroke-width="5" transform="rotate(90,1970.0,1102.0)" width="24" x="1958.0" y="1090.0" /><circle cx="4366.0" cy="822.0" fill="#090" r="16" stroke="#090" stroke-width="5" /><circle cx="4975.0" cy="969.0" fill="#090" r="16" stroke="#090" stroke-width="5" /><circle cx="4457.0" cy="801.0" fill="#090" r="16" stroke="#090" stroke-width="5" /><circle cx="4961.0" cy="906.0" fill="#090" r="16" stroke="#090" stroke-width="5" /><circle cx="4289.0" cy="808.0" fill="#009" r="16" stroke="#009" stroke-width="5" /><circle cx="5038.0" cy="969.0" fill="#009" r="16" stroke="#009" stroke-width="5" /><circle cx="1880.0" cy="1081.0" fill="#009" r="16" stroke="#009" stroke-width="5" /><circle cx="1754.0" cy="1081.0" fill="#009" r="16" stroke="#009" stroke-width="5" /><rect fill="#900" height="48" stroke="#900" stroke-width="5" transform="rotate(90,2021.0,1214.0)" width="32" x="2005.0" y="1190.0" /><rect fill="#900" height="48" stroke="#900" stroke-width="5" transform="rotate(90,1713.0,1221.0)" width="32" x="1697.0" y="1197.0" /><circle cx="3163.0" cy="4284.0" fill="#090" r="16" stroke="#090" stroke-width="5" /><circle cx="3387.0" cy="4300.0" fill="#090" r="16" stroke="#090" stroke-width="5" /><circle cx="1947.0" cy="4172.0" fill="#090" r="16" stroke="#090" stroke-width="5" /><circle cx="1963.0" cy="3452.0" fill="#090" r="16" stroke="#090" stroke-width="5" /><rect fill="#090" height="24" stroke="#090" stroke-width="5" transform="rotate(180,1659.0,916.0)" width="24" x="1647.0" y="904.0" /><rect fill="#090" height="24" stroke="#090" stroke-width="5" transform="rotate(180,1939.0,900.0)" width="24" x="1927.0" y="888.0" /><rect fill="#090" height="24" stroke="#090" stroke-width="5" transform="rotate(180,1715.0,756.0)" width="24" x="1703.0" y="744.0" /><rect fill="#090" height="24" stroke="#090" stroke-width="5" transform="rotate(180,1883.0,748.0)" width="24" x="1871.0" y="736.0" /><rect fill="#090" height="24" stroke="#090" stroke-width="5" transform="rotate(180,1899.0,668.0)" width="24" x="1887.0" y="656.0" /><rect fill="#090" height="24" stroke="#090" stroke-width="5" transform="rotate(180,1707.0,676.0)" width="24" x="1695.0" y="664.0" /><rect fill="#090" height="24" stroke="#090" stroke-width="5" transform="rotate(180,1707.0,612.0)" width="24" x="1695.0" y="600.0" /><rect fill="#090" height="24" stroke="#090" stroke-width="5" transform="rotate(180,1699.0,516.0)" width="24" x="1687.0" y="504.0" /><rect fill="#090" height="24" stroke="#090" stroke-width="5" transform="rotate(180,1683.0,444.0)" width="24" x="1671.0" y="432.0" /><rect fill="#090" height="24" stroke="#090" stroke-width="5" transform="rotate(180,1659.0,372.0)" width="24" x="1647.0" y="360.0" /><rect fill="#090" height="24" stroke="#090" stroke-width="5" transform="rotate(180,1843.0,380.0)" width="24" x="1831.0" y="368.0" /><rect fill="#090" height="24" stroke="#090" stroke-width="5" transform="rotate(180,1867.0,460.0)" width="24" x="1855.0" y="448.0" /><rect fill="#090" height="24" stroke="#090" stroke-width="5" transform="rotate(180,1875.0,532.0)" width="24" x="1863.0" y="520.0" /><rect fill="#090" height="24" stroke="#090" stroke-width="5" transform="rotate(180,1883.0,612.0)" width="24" x="1871.0" y="600.0" /><rect fill="#090" height="24" stroke="#090" stroke-width="5" transform="rotate(180,1587.0,60.0)" width="24" x="1575.0" y="48.0" /><rect fill="#090" height="24" stroke="#090" stroke-width="5" transform="rotate(180,779.0,84.0)" width="24" x="767.0" y="72.0" /><rect fill="#090" height="24" stroke="#090" stroke-width="5" transform="rotate(180,835.0,412.0)" width="24" x="823.0" y="400.0" /><circle cx="3523.0" cy="2580.0" fill="#090" r="16" stroke="#090" stroke-width="5" /><circle cx="3411.0" cy="2564.0" fill="#090" r="16" stroke="#090" stroke-width="5" /><circle cx="3131.0" cy="2676.0" fill="#009" r="16" stroke="#009" stroke-width="5" /><circle cx="2715.0" cy="2916.0" fill="#009" r="16" stroke="#009" stroke-width="5" /><circle cx="867.0" cy="76.0" fill="#009" r="16" stroke="#009" stroke-width="5" /><circle cx="979.0" cy="76.0" fill="#009" r="16" stroke="#009" stroke-width="5" /><circle cx="1099.0" cy="76.0" fill="#009" r="16" stroke="#009" stroke-width="5" /><circle cx="1219.0" cy="60.0" fill="#009" r="16" stroke="#009" stroke-width="5" /><circle cx="1323.0" cy="60.0" fill="#009" r="16" stroke="#009" stroke-width="5" /><circle cx="1443.0" cy="68.0" fill="#009" r="16" stroke="#009" stroke-width="5" /><rect fill="#900" height="48" stroke="#900" stroke-width="5" transform="rotate(315,1107.0,308.0)" width="32" x="1091.0" y="284.0" /><circle cx="1027.0" cy="412.0" fill="#090" r="16" stroke="#090" stroke-width="5" /><rect fill="#090" height="24" stroke="#090" stroke-width="5" transform="rotate(0,392.0,268.0)" width="24" x="380.0" y="256.0" /><rect fill="#090" height="24" stroke="#090" stroke-width="5" transform="rotate(0,239.0,266.0)" width="24" x="227.0" y="254.0" /><rect fill="#090" height="24" stroke="#090" stroke-width="5" transform="rotate(315,914.0,391.0)" width="24" x="902.0" y="379.0" /><rect fill="#090" height="24" stroke="#090" stroke-width="5" transform="rotate(315,1031.0,383.0)" width="24" x="1019.0" y="371.0" /><rect fill="#900" height="48" stroke="#900" stroke-width="5" transform="rotate(0,77.0,1209.0)" width="32" x="61.0" y="1185.0" /><rect fill="#900" height="48" stroke="#900" stroke-width="5" transform="rotate(180,446.0,1209.0)" width="32" x="430.0" y="1185.0" /><rect fill="#090" height="24" stroke="#090" stroke-width="5" transform="rotate(315,1685.0,2132.0)" width="24" x="1673.0" y="2120.0" /><rect fill="#090" height="24" stroke="#090" stroke-width="5" transform="rotate(315,1944.0,2024.0)" width="24" x="1932.0" y="2012.0" /><rect fill="#090" height="24" stroke="#090" stroke-width="5" transform="rotate(315,2124.0,1952.0)" width="24" x="2112.0" y="1940.0" /><rect fill="#090" height="24" stroke="#090" stroke-width="5" transform="rotate(180,1505.0,237.0)" width="24" x="1493.0" y="225.0" /><rect fill="#090" height="24" stroke="#090" stroke-width="5" transform="rotate(90,1764.0,1441.0)" width="24" x="1752.0" y="1429.0" /><rect fill="#090" height="24" stroke="#090" stroke-width="5" transform="rotate(0,1896.0,1428.0)" width="24" x="1884.0" y="1416.0" /><rect fill="#090" height="24" stroke="#090" stroke-width="5" transform="rotate(0,1872.0,1588.0)" width="24" x="1860.0" y="1576.0" /><rect fill="#090" height="24" stroke="#090" stroke-width="5" transform="rotate(0,1800.0,852.0)" width="24" x="1788.0" y="840.0" /><rect fill="#090" height="24" stroke="#090" stroke-width="5" transform="rotate(0,648.0,300.0)" width="24" x="636.0" y="288.0" /><rect fill="#090" height="24" stroke="#090" stroke-width="5" transform="rotate(0,232.0,404.0)" width="24" x="220.0" y="392.0" /><rect fill="#090" height="24" stroke="#090" stroke-width="5" transform="rotate(0,232.0,724.0)" width="24" x="220.0" y="712.0" /><rect fill="#090" height="24" stroke="#090" stroke-width="5" transform="rotate(0,984.0,212.0)" width="24" x="972.0" y="200.0" /><rect fill="#090" height="24" stroke="#090" stroke-width="5" transform="rotate(0,1664.0,236.0)" width="24" x="1652.0" y="224.0" /></svg>