<?xml version="1.0" encoding="utf-8" ?>
<svg baseProfile="tiny" height="1024" version="1.2" viewBox="0 0 1738 2442" width="728" xmlns="http://www.w3.org/2000/svg" xmlns:ev="http://www.w3.org/2001/xml-events" xmlns:xlink="http://www.w3.org/1999/xlink"><defs /><line stroke="#333" stroke-width="10" x1="197.0" x2="197.0" y1="5.0" y2="197.0" /><line stroke="#333" stroke-width="10" x1="197.0" x2="581.0" y1="773.0" y2="773.0" /><line stroke="#333" stroke-width="10" x1="1029.0" x2="1029.0" y1="773.0" y2="5.0" /><line stroke="#333" stroke-width="10" x1="1029.0" x2="197.0" y1="5.0" y2="5.0" /><line stroke="#333" stroke-width="10" x1="581.0" x2="645.0" y1="773.0" y2="773.0" /><line stroke="#333" stroke-width="10" x1="645.0" x2="1029.0" y1="773.0" y2="773.0" /><line stroke="#999" stroke-width="3" x1="325.0" x2="901.0" y1="645.0" y2="645.0" /><line stroke="#999" stroke-width="3" x1="201.0" x2="201.0" y1="648.0" y2="642.0" /><line stroke="#999" stroke-width="3" x1="201.0" x2="323.0" y1="642.0" y2="642.0" /><line stroke="#999" stroke-width="3" x1="323.0" x2="323.0" y1="642.0" y2="648.0" /><line stroke="#999" stroke-width="3" x1="323.0" x2="201.0" y1="648.0" y2="648.0" /><line stroke="#999" stroke-width="3" x1="906.0" x2="906.0" y1="649.0" y2="642.0" /><line stroke="#999" stroke-width="3" x1="906.0" x2="1026.0" y1="642.0" y2="642.0" /><line stroke="#999" stroke-width="3" x1="1026.0" x2="1026.0" y1="642.0" y2="649.0" /><line stroke="#999" stroke-width="3" x1="1026.0" x2="906.0" y1="649.0" y2="649.0" /><line stroke="#333" stroke-width="10" x1="197.0" x2="197.0" y1="517.0" y2="773.0" /><line stroke="#333" stroke-width="10" x1="5.0" x2="197.0" y1="517.0" y2="517.0" /><line stroke="#999" stroke-width="3" x1="197.0" x2="197.0" y1="517.0" y2="197.0" /><line stroke="#333" stroke-width="10" x1="197.0" x2="5.0" y1="197.0" y2="197.0" /><line stroke="#333" stroke-width="10" x1="5.0" x2="5.0" y1="197.0" y2="517.0" /><line stroke="#999" stroke-width="3" x1="69.0" x2="69.0" y1="389.0" y2="325.0" /><line stroke="#999" stroke-width="3" x1="69.0" x2="133.0" y1="325.0" y2="325.0" /><line stroke="#999" stroke-width="3" x1="133.0" x2="133.0" y1="325.0" y2="389.0" /><line stroke="#999" stroke-width="3" x1="133.0" x2="69.0" y1="389.0" y2="389.0" /><line stroke="#00d" stroke-width="20" x1="205.0" x2="205.0" y1="630.0" y2="591.0" /><line stroke="#00d" stroke-width="20" x1="205.0" x2="251.0" y1="591.0" y2="591.0" /><line stroke="#00d" stroke-width="20" x1="251.0" x2="251.0" y1="591.0" y2="630.0" /><line stroke="#00d" stroke-width="20" x1="251.0" x2="205.0" y1="630.0" y2="630.0" /><line stroke="#333" stroke-width="10" x1="197.0" x2="197.0" y1="837.0" y2="901.0" /><line stroke="#333" stroke-width="10" x1="197.0" x2="1157.0" y1="901.0" y2="901.0" /><line stroke="#333" stroke-width="10" x1="1157.0" x2="1157.0" y1="901.0" y2="5.0" /><line stroke="#333" stroke-width="10" x1="1157.0" x2="1093.0" y1="5.0" y2="5.0" /><line stroke="#333" stroke-width="10" x1="1093.0" x2="1093.0" y1="5.0" y2="837.0" /><line stroke="#333" stroke-width="10" x1="1093.0" x2="197.0" y1="837.0" y2="837.0" /><line stroke="#00d" stroke-width="20" x1="1153.0" x2="1097.0" y1="64.0" y2="64.0" /><line stroke="#00d" stroke-width="20" x1="1153.0" x2="1153.0" y1="9.0" y2="64.0" /><line stroke="#00d" stroke-width="20" x1="1097.0" x2="1153.0" y1="9.0" y2="9.0" /><line stroke="#00d" stroke-width="20" x1="1097.0" x2="1097.0" y1="64.0" y2="9.0" /><line stroke="#333" stroke-width="10" x1="1221.0" x2="1349.0" y1="133.0" y2="133.0" /><line stroke="#333" stroke-width="10" x1="1221.0" x2="1221.0" y1="5.0" y2="133.0" /><line stroke="#333" stroke-width="10" x1="1541.0" x2="1221.0" y1="5.0" y2="5.0" /><line stroke="#333" stroke-width="10" x1="1541.0" x2="1541.0" y1="133.0" y2="5.0" /><line stroke="#333" stroke-width="10" x1="1413.0" x2="1541.0" y1="133.0" y2="133.0" /><line stroke="#333" stroke-width="10" x1="1413.0" x2="1413.0" y1="197.0" y2="133.0" /><line stroke="#333" stroke-width="10" x1="1541.0" x2="1413.0" y1="325.0" y2="197.0" /><line stroke="#333" stroke-width="10" x1="1541.0" x2="1541.0" y1="453.0" y2="325.0" /><line stroke="#333" stroke-width="10" x1="1733.0" x2="1541.0" y1="453.0" y2="453.0" /><line stroke="#333" stroke-width="10" x1="1733.0" x2="1733.0" y1="517.0" y2="453.0" /><line stroke="#333" stroke-width="10" x1="1541.0" x2="1733.0" y1="517.0" y2="517.0" /><line stroke="#333" stroke-width="10" x1="1541.0" x2="1541.0" y1="581.0" y2="517.0" /><line stroke="#333" stroke-width="10" x1="1733.0" x2="1541.0" y1="581.0" y2="581.0" /><line stroke="#333" stroke-width="10" x1="1733.0" x2="1733.0" y1="645.0" y2="581.0" /><line stroke="#333" stroke-width="10" x1="1541.0" x2="1733.0" y1="645.0" y2="645.0" /><line stroke="#333" stroke-width="10" x1="1541.0" x2="1541.0" y1="709.0" y2="645.0" /><line stroke="#333" stroke-width="10" x1="1733.0" x2="1541.0" y1="709.0" y2="709.0" /><line stroke="#333" stroke-width="10" x1="1733.0" x2="1733.0" y1="773.0" y2="709.0" /><line stroke="#333" stroke-width="10" x1="1541.0" x2="1733.0" y1="773.0" y2="773.0" /><line stroke="#333" stroke-width="10" x1="1477.0" x2="1541.0" y1="837.0" y2="773.0" /><line stroke="#333" stroke-width="10" x1="1413.0" x2="1477.0" y1="837.0" y2="837.0" /><line stroke="#333" stroke-width="10" x1="1413.0" x2="1413.0" y1="901.0" y2="837.0" /><line stroke="#333" stroke-width="10" x1="1349.0" x2="1413.0" y1="901.0" y2="901.0" /><line stroke="#333" stroke-width="10" x1="1349.0" x2="1349.0" y1="837.0" y2="901.0" /><line stroke="#333" stroke-width="10" x1="1285.0" x2="1349.0" y1="837.0" y2="837.0" /><line stroke="#333" stroke-width="10" x1="1221.0" x2="1285.0" y1="773.0" y2="837.0" /><line stroke="#333" stroke-width="10" x1="1221.0" x2="1221.0" y1="325.0" y2="773.0" /><line stroke="#333" stroke-width="10" x1="1349.0" x2="1221.0" y1="197.0" y2="325.0" /><line stroke="#333" stroke-width="10" x1="1349.0" x2="1349.0" y1="133.0" y2="197.0" /><line stroke="#666" stroke-width="20" x1="1412.0" x2="1350.0" y1="192.0" y2="192.0" /><line stroke="#666" stroke-width="20" x1="1412.0" x2="1412.0" y1="139.0" y2="192.0" /><line stroke="#666" stroke-width="20" x1="1350.0" x2="1412.0" y1="139.0" y2="139.0" /><line stroke="#666" stroke-width="20" x1="1350.0" x2="1350.0" y1="192.0" y2="139.0" /><line stroke="#666" stroke-width="20" x1="1349.0" x2="1413.0" y1="834.0" y2="834.0" /><line stroke="#666" stroke-width="20" x1="1413.0" x2="1410.0" y1="834.0" y2="843.0" /><line stroke="#666" stroke-width="20" x1="1410.0" x2="1352.0" y1="843.0" y2="843.0" /><line stroke="#666" stroke-width="20" x1="1352.0" x2="1349.0" y1="843.0" y2="834.0" /><line stroke="#666" stroke-width="20" x1="1548.0" x2="1538.0" y1="769.0" y2="773.0" /><line stroke="#666" stroke-width="20" x1="1548.0" x2="1548.0" y1="713.0" y2="769.0" /><line stroke="#666" stroke-width="20" x1="1538.0" x2="1548.0" y1="709.0" y2="713.0" /><line stroke="#666" stroke-width="20" x1="1538.0" x2="1538.0" y1="773.0" y2="709.0" /><line stroke="#666" stroke-width="20" x1="1548.0" x2="1538.0" y1="641.0" y2="645.0" /><line stroke="#666" stroke-width="20" x1="1538.0" x2="1538.0" y1="645.0" y2="581.0" /><line stroke="#666" stroke-width="20" x1="1538.0" x2="1548.0" y1="581.0" y2="584.0" /><line stroke="#666" stroke-width="20" x1="1548.0" x2="1548.0" y1="584.0" y2="641.0" /><line stroke="#666" stroke-width="20" x1="1549.0" x2="1538.0" y1="513.0" y2="517.0" /><line stroke="#666" stroke-width="20" x1="1549.0" x2="1549.0" y1="456.0" y2="513.0" /><line stroke="#666" stroke-width="20" x1="1538.0" x2="1549.0" y1="453.0" y2="456.0" /><line stroke="#666" stroke-width="20" x1="1538.0" x2="1538.0" y1="517.0" y2="453.0" /><line stroke="#00d" stroke-width="20" x1="1360.0" x2="1360.0" y1="891.0" y2="855.0" /><line stroke="#00d" stroke-width="20" x1="1360.0" x2="1403.0" y1="855.0" y2="855.0" /><line stroke="#00d" stroke-width="20" x1="1403.0" x2="1403.0" y1="855.0" y2="891.0" /><line stroke="#00d" stroke-width="20" x1="1403.0" x2="1360.0" y1="891.0" y2="891.0" /><line stroke="#999" stroke-width="3" x1="1477.0" x2="1285.0" y1="773.0" y2="773.0" /><line stroke="#999" stroke-width="3" x1="1477.0" x2="1477.0" y1="325.0" y2="773.0" /><line stroke="#999" stroke-width="3" x1="1285.0" x2="1477.0" y1="325.0" y2="325.0" /><line stroke="#999" stroke-width="3" x1="1285.0" x2="1285.0" y1="773.0" y2="325.0" /><line stroke="#999" stroke-width="3" x1="1413.0" x2="1349.0" y1="709.0" y2="709.0" /><line stroke="#999" stroke-width="3" x1="1413.0" x2="1413.0" y1="389.0" y2="709.0" /><line stroke="#999" stroke-width="3" x1="1349.0" x2="1413.0" y1="389.0" y2="389.0" /><line stroke="#999" stroke-width="3" x1="1349.0" x2="1349.0" y1="709.0" y2="389.0" /><line stroke="#333" stroke-width="10" x1="197.0" x2="197.0" y1="965.0" y2="1029.0" /><line stroke="#333" stroke-width="10" x1="197.0" x2="1093.0" y1="1029.0" y2="1029.0" /><line stroke="#333" stroke-width="10" x1="1093.0" x2="1093.0" y1="1029.0" y2="1157.0" /><line stroke="#333" stroke-width="10" x1="1093.0" x2="1221.0" y1="1157.0" y2="1157.0" /><line stroke="#333" stroke-width="10" x1="1221.0" x2="1221.0" y1="1157.0" y2="1029.0" /><line stroke="#333" stroke-width="10" x1="1221.0" x2="1733.0" y1="1029.0" y2="1029.0" /><line stroke="#333" stroke-width="10" x1="1733.0" x2="1733.0" y1="1029.0" y2="965.0" /><line stroke="#333" stroke-width="10" x1="1733.0" x2="197.0" y1="965.0" y2="965.0" /><line stroke="#999" stroke-width="3" x1="1095.0" x2="1219.0" y1="1028.0" y2="1028.0" /><line stroke="#999" stroke-width="3" x1="1219.0" x2="1219.0" y1="1028.0" y2="1038.0" /><line stroke="#999" stroke-width="3" x1="1219.0" x2="1095.0" y1="1038.0" y2="1038.0" /><line stroke="#999" stroke-width="3" x1="1095.0" x2="1095.0" y1="1038.0" y2="1028.0" /><line stroke="#666" stroke-width="20" x1="1618.0" x2="1604.0" y1="1024.0" y2="1024.0" /><line stroke="#666" stroke-width="20" x1="1618.0" x2="1618.0" y1="969.0" y2="1024.0" /><line stroke="#666" stroke-width="20" x1="1604.0" x2="1618.0" y1="969.0" y2="969.0" /><line stroke="#666" stroke-width="20" x1="1604.0" x2="1604.0" y1="1024.0" y2="969.0" /><line stroke="#00d" stroke-width="20" x1="203.0" x2="203.0" y1="1021.0" y2="970.0" /><line stroke="#00d" stroke-width="20" x1="203.0" x2="258.0" y1="970.0" y2="970.0" /><line stroke="#00d" stroke-width="20" x1="258.0" x2="258.0" y1="970.0" y2="1021.0" /><line stroke="#00d" stroke-width="20" x1="258.0" x2="203.0" y1="1021.0" y2="1021.0" /><line stroke="#333" stroke-width="10" x1="197.0" x2="197.0" y1="1093.0" y2="2437.0" /><line stroke="#333" stroke-width="10" x1="197.0" x2="1733.0" y1="2437.0" y2="2437.0" /><line stroke="#333" stroke-width="10" x1="1733.0" x2="1733.0" y1="2437.0" y2="1093.0" /><line stroke="#333" stroke-width="10" x1="1733.0" x2="1349.0" y1="1093.0" y2="1093.0" /><line stroke="#333" stroke-width="10" x1="1349.0" x2="1349.0" y1="1093.0" y2="1285.0" /><line stroke="#333" stroke-width="10" x1="1349.0" x2="965.0" y1="1285.0" y2="1285.0" /><line stroke="#333" stroke-width="10" x1="965.0" x2="965.0" y1="1285.0" y2="1093.0" /><line stroke="#333" stroke-width="10" x1="965.0" x2="197.0" y1="1093.0" y2="1093.0" /><line stroke="#333" stroke-width="10" x1="261.0" x2="453.0" y1="1797.0" y2="1797.0" /><line stroke="#333" stroke-width="10" x1="261.0" x2="261.0" y1="2373.0" y2="1797.0" /><line stroke="#333" stroke-width="10" x1="709.0" x2="261.0" y1="2373.0" y2="2373.0" /><line stroke="#333" stroke-width="10" x1="709.0" x2="709.0" y1="1797.0" y2="2373.0" /><line stroke="#333" stroke-width="10" x1="517.0" x2="709.0" y1="1797.0" y2="1797.0" /><line stroke="#333" stroke-width="10" x1="550.0" x2="517.0" y1="1827.0" y2="1797.0" /><line stroke="#333" stroke-width="10" x1="517.0" x2="550.0" y1="1861.0" y2="1827.0" /><line stroke="#333" stroke-width="10" x1="645.0" x2="517.0" y1="1861.0" y2="1861.0" /><line stroke="#333" stroke-width="10" x1="645.0" x2="645.0" y1="2309.0" y2="1861.0" /><line stroke="#333" stroke-width="10" x1="325.0" x2="645.0" y1="2309.0" y2="2309.0" /><line stroke="#333" stroke-width="10" x1="325.0" x2="325.0" y1="1861.0" y2="2309.0" /><line stroke="#333" stroke-width="10" x1="453.0" x2="325.0" y1="1861.0" y2="1861.0" /><line stroke="#333" stroke-width="10" x1="422.0" x2="453.0" y1="1830.0" y2="1861.0" /><line stroke="#333" stroke-width="10" x1="453.0" x2="422.0" y1="1797.0" y2="1830.0" /><line stroke="#999" stroke-width="3" x1="456.0" x2="426.0" y1="1860.0" y2="1830.0" /><line stroke="#999" stroke-width="3" x1="426.0" x2="457.0" y1="1830.0" y2="1798.0" /><line stroke="#999" stroke-width="3" x1="457.0" x2="514.0" y1="1798.0" y2="1798.0" /><line stroke="#999" stroke-width="3" x1="514.0" x2="546.0" y1="1798.0" y2="1827.0" /><line stroke="#999" stroke-width="3" x1="546.0" x2="514.0" y1="1827.0" y2="1860.0" /><line stroke="#999" stroke-width="3" x1="514.0" x2="456.0" y1="1860.0" y2="1860.0" /><line stroke="#00d" stroke-width="20" x1="774.0" x2="773.0" y1="2373.0" y2="2309.0" /><line stroke="#00d" stroke-width="20" x1="773.0" x2="837.0" y1="2309.0" y2="2309.0" /><line stroke="#00d" stroke-width="20" x1="837.0" x2="837.0" y1="2309.0" y2="2373.0" /><line stroke="#00d" stroke-width="20" x1="837.0" x2="774.0" y1="2373.0" y2="2373.0" /><line stroke="#999" stroke-width="3" x1="1503.0" x2="1477.0" y1="1395.0" y2="1395.0" /><line stroke="#999" stroke-width="3" x1="1503.0" x2="1503.0" y1="1267.0" y2="1395.0" /><line stroke="#999" stroke-width="3" x1="1477.0" x2="1503.0" y1="1267.0" y2="1267.0" /><line stroke="#999" stroke-width="3" x1="1477.0" x2="1477.0" y1="1395.0" y2="1267.0" /><line stroke="#999" stroke-width="3" x1="1477.0" x2="1503.0" y1="1417.0" y2="1417.0" /><line stroke="#999" stroke-width="3" x1="1503.0" x2="1503.0" y1="1417.0" y2="1587.0" /><line stroke="#999" stroke-width="3" x1="1503.0" x2="1477.0" y1="1587.0" y2="1587.0" /><line stroke="#999" stroke-width="3" x1="1477.0" x2="1477.0" y1="1587.0" y2="1417.0" /><line stroke="#999" stroke-width="3" x1="1477.0" x2="1503.0" y1="1616.0" y2="1616.0" /><line stroke="#999" stroke-width="3" x1="1503.0" x2="1503.0" y1="1616.0" y2="1779.0" /><line stroke="#999" stroke-width="3" x1="1503.0" x2="1477.0" y1="1779.0" y2="1779.0" /><line stroke="#999" stroke-width="3" x1="1477.0" x2="1477.0" y1="1779.0" y2="1616.0" /><line stroke="#999" stroke-width="3" x1="1477.0" x2="1503.0" y1="1790.0" y2="1790.0" /><line stroke="#999" stroke-width="3" x1="1503.0" x2="1503.0" y1="1790.0" y2="1971.0" /><line stroke="#999" stroke-width="3" x1="1503.0" x2="1477.0" y1="1971.0" y2="1971.0" /><line stroke="#999" stroke-width="3" x1="1477.0" x2="1477.0" y1="1971.0" y2="1790.0" /><line stroke="#999" stroke-width="3" x1="1424.0" x2="1552.0" y1="2002.0" y2="2002.0" /><line stroke="#999" stroke-width="3" x1="1552.0" x2="1616.0" y1="2002.0" y2="2066.0" /><line stroke="#999" stroke-width="3" x1="1616.0" x2="1552.0" y1="2066.0" y2="2130.0" /><line stroke="#999" stroke-width="3" x1="1552.0" x2="1424.0" y1="2130.0" y2="2130.0" /><line stroke="#999" stroke-width="3" x1="1424.0" x2="1360.0" y1="2130.0" y2="2066.0" /><line stroke="#999" stroke-width="3" x1="1360.0" x2="1424.0" y1="2066.0" y2="2002.0" /><line stroke="#999" stroke-width="3" x1="1457.0" x2="1517.0" y1="2137.0" y2="2137.0" /><line stroke="#999" stroke-width="3" x1="1517.0" x2="1517.0" y1="2137.0" y2="2155.0" /><line stroke="#999" stroke-width="3" x1="1517.0" x2="1457.0" y1="2155.0" y2="2155.0" /><line stroke="#999" stroke-width="3" x1="1457.0" x2="1457.0" y1="2155.0" y2="2137.0" /><line stroke="#999" stroke-width="3" x1="1530.0" x2="1465.0" y1="1246.0" y2="1246.0" /><line stroke="#999" stroke-width="3" x1="1575.0" x2="1530.0" y1="1188.0" y2="1246.0" /><line stroke="#999" stroke-width="3" x1="1525.0" x2="1575.0" y1="1128.0" y2="1188.0" /><line stroke="#999" stroke-width="3" x1="1470.0" x2="1525.0" y1="1128.0" y2="1128.0" /><line stroke="#999" stroke-width="3" x1="1420.0" x2="1470.0" y1="1186.0" y2="1128.0" /><line stroke="#999" stroke-width="3" x1="1465.0" x2="1420.0" y1="1246.0" y2="1186.0" /><line stroke="#999" stroke-width="3" x1="517.0" x2="453.0" y1="2245.0" y2="2245.0" /><line stroke="#999" stroke-width="3" x1="517.0" x2="517.0" y1="2181.0" y2="2245.0" /><line stroke="#0d0" stroke-width="20" x1="453.0" x2="517.0" y1="2181.0" y2="2181.0" /><line stroke="#999" stroke-width="3" x1="453.0" x2="453.0" y1="2245.0" y2="2181.0" /><line stroke="#666" stroke-width="20" x1="1445.0" x2="1447.0" y1="2100.0" y2="2030.0" /><line stroke="#666" stroke-width="20" x1="1447.0" x2="1539.0" y1="2030.0" y2="2027.0" /><line stroke="#666" stroke-width="20" x1="1539.0" x2="1541.0" y1="2027.0" y2="2100.0" /><line stroke="#666" stroke-width="20" x1="1541.0" x2="1445.0" y1="2100.0" y2="2100.0" /><line stroke="#999" stroke-width="3" x1="517.0" x2="517.0" y1="453.0" y2="325.0" /><line stroke="#999" stroke-width="3" x1="517.0" x2="645.0" y1="325.0" y2="325.0" /><line stroke="#999" stroke-width="3" x1="645.0" x2="645.0" y1="325.0" y2="453.0" /><line stroke="#999" stroke-width="3" x1="645.0" x2="517.0" y1="453.0" y2="453.0" /><ellipse cx="261.0" cy="69.0" fill="#009" rx="12" ry="24" stroke="#009" stroke-width="5" /><ellipse cx="325.0" cy="69.0" fill="#009" rx="12" ry="24" stroke="#009" stroke-width="5" /><ellipse cx="389.0" cy="69.0" fill="#009" rx="12" ry="24" stroke="#009" stroke-width="5" /><ellipse cx="453.0" cy="69.0" fill="#009" rx="12" ry="24" stroke="#009" stroke-width="5" /><rect fill="#090" height="24" stroke="#090" stroke-width="5" transform="rotate(0,517.0,69.0)" width="24" x="505.0" y="57.0" /><rect fill="#090" height="24" stroke="#090" stroke-width="5" transform="rotate(0,581.0,69.0)" width="24" x="569.0" y="57.0" /><rect fill="#090" height="24" stroke="#090" stroke-width="5" transform="rotate(0,645.0,69.0)" width="24" x="633.0" y="57.0" /><rect fill="#090" height="24" stroke="#090" stroke-width="5" transform="rotate(0,709.0,69.0)" width="24" x="697.0" y="57.0" /><rect fill="#090" height="24" stroke="#090" stroke-width="5" transform="rotate(0,104.0,358.0)" width="24" x="92.0" y="346.0" /><rect fill="#090" height="24" stroke="#090" stroke-width="5" transform="rotate(0,133.0,453.0)" width="24" x="121.0" y="441.0" /><rect fill="#090" height="24" stroke="#090" stroke-width="5" transform="rotate(0,69.0,453.0)" width="24" x="57.0" y="441.0" /><rect fill="#090" height="24" stroke="#090" stroke-width="5" transform="rotate(0,69.0,261.0)" width="24" x="57.0" y="249.0" /><rect fill="#090" height="24" stroke="#090" stroke-width="5" transform="rotate(0,133.0,261.0)" width="24" x="121.0" y="249.0" /><rect fill="#090" height="24" stroke="#090" stroke-width="5" transform="rotate(0,517.0,709.0)" width="24" x="505.0" y="697.0" /><rect fill="#090" height="24" stroke="#090" stroke-width="5" transform="rotate(0,709.0,709.0)" width="24" x="697.0" y="697.0" /><circle cx="965.0" cy="581.0" fill="#090" r="16" stroke="#090" stroke-width="5" /><circle cx="965.0" cy="517.0" fill="#090" r="16" stroke="#090" stroke-width="5" /><circle cx="965.0" cy="453.0" fill="#090" r="16" stroke="#090" stroke-width="5" /><circle cx="965.0" cy="389.0" fill="#090" r="16" stroke="#090" stroke-width="5" /><circle cx="965.0" cy="325.0" fill="#090" r="16" stroke="#090" stroke-width="5" /><circle cx="965.0" cy="261.0" fill="#090" r="16" stroke="#090" stroke-width="5" /><circle cx="965.0" cy="197.0" fill="#090" r="16" stroke="#090" stroke-width="5" /><circle cx="965.0" cy="133.0" fill="#090" r="16" stroke="#090" stroke-width="5" /><circle cx="965.0" cy="69.0" fill="#090" r="16" stroke="#090" stroke-width="5" /><circle cx="901.0" cy="581.0" fill="#090" r="16" stroke="#090" stroke-width="5" /><rect fill="#090" height="24" stroke="#090" stroke-width="5" transform="rotate(0,901.0,69.0)" width="24" x="889.0" y="57.0" /><rect fill="#009" height="24" stroke="#009" stroke-width="5" transform="rotate(0,231.0,867.0)" width="24" x="219.0" y="855.0" /><rect fill="#009" height="24" stroke="#009" stroke-width="5" transform="rotate(90,1381.0,37.0)" width="24" x="1369.0" y="25.0" /><rect fill="#009" height="24" stroke="#009" stroke-width="5" transform="rotate(180,1699.0,994.0)" width="24" x="1687.0" y="982.0" /><rect fill="#009" height="24" stroke="#009" stroke-width="5" transform="rotate(90,1498.0,1189.0)" width="24" x="1486.0" y="1177.0" /><rect fill="#009" height="24" stroke="#009" stroke-width="5" transform="rotate(90,259.0,1151.0)" width="24" x="247.0" y="1139.0" /><rect fill="#900" height="48" stroke="#900" stroke-width="5" transform="rotate(270,1160.0,1071.0)" width="32" x="1144.0" y="1047.0" /><rect fill="#900" height="48" stroke="#900" stroke-width="5" transform="rotate(225,1485.0,2061.0)" width="32" x="1469.0" y="2037.0" /><rect fill="#900" height="48" stroke="#900" stroke-width="5" transform="rotate(225,1491.0,1886.0)" width="32" x="1475.0" y="1862.0" /><rect fill="#900" height="48" stroke="#900" stroke-width="5" transform="rotate(180,1491.0,1498.0)" width="32" x="1475.0" y="1474.0" /><rect fill="#900" height="48" stroke="#900" stroke-width="5" transform="rotate(90,1605.0,2245.0)" width="32" x="1589.0" y="2221.0" /><rect fill="#900" height="48" stroke="#900" stroke-width="5" transform="rotate(90,1029.0,2245.0)" width="32" x="1013.0" y="2221.0" /><rect fill="#900" height="48" stroke="#900" stroke-width="5" transform="rotate(90,485.0,2083.0)" width="32" x="469.0" y="2059.0" /><rect fill="#900" height="48" stroke="#900" stroke-width="5" transform="rotate(90,377.0,1950.0)" width="32" x="361.0" y="1926.0" /><rect fill="#900" height="48" stroke="#900" stroke-width="5" transform="rotate(90,583.0,1950.0)" width="32" x="567.0" y="1926.0" /><rect fill="#900" height="48" stroke="#900" stroke-width="5" transform="rotate(225,772.0,1858.0)" width="32" x="756.0" y="1834.0" /><rect fill="#900" height="48" stroke="#900" stroke-width="5" transform="rotate(225,839.0,1930.0)" width="32" x="823.0" y="1906.0" /><rect fill="#900" height="48" stroke="#900" stroke-width="5" transform="rotate(225,873.0,1846.0)" width="32" x="857.0" y="1822.0" /><rect fill="#900" height="48" stroke="#900" stroke-width="5" transform="rotate(225,952.0,1832.0)" width="32" x="936.0" y="1808.0" /><rect fill="#900" height="48" stroke="#900" stroke-width="5" transform="rotate(225,909.0,1752.0)" width="32" x="893.0" y="1728.0" /><rect fill="#900" height="48" stroke="#900" stroke-width="5" transform="rotate(225,820.0,1779.0)" width="32" x="804.0" y="1755.0" /><rect fill="#900" height="48" stroke="#900" stroke-width="5" transform="rotate(225,933.0,1905.0)" width="32" x="917.0" y="1881.0" /><rect fill="#900" height="48" stroke="#900" stroke-width="5" transform="rotate(180,1126.0,1478.0)" width="32" x="1110.0" y="1454.0" /><rect fill="#900" height="48" stroke="#900" stroke-width="5" transform="rotate(180,1193.0,1550.0)" width="32" x="1177.0" y="1526.0" /><rect fill="#900" height="48" stroke="#900" stroke-width="5" transform="rotate(180,1227.0,1466.0)" width="32" x="1211.0" y="1442.0" /><rect fill="#900" height="48" stroke="#900" stroke-width="5" transform="rotate(180,1306.0,1452.0)" width="32" x="1290.0" y="1428.0" /><rect fill="#900" height="48" stroke="#900" stroke-width="5" transform="rotate(180,1263.0,1372.0)" width="32" x="1247.0" y="1348.0" /><rect fill="#900" height="48" stroke="#900" stroke-width="5" transform="rotate(180,1174.0,1399.0)" width="32" x="1158.0" y="1375.0" /><rect fill="#900" height="48" stroke="#900" stroke-width="5" transform="rotate(180,1287.0,1525.0)" width="32" x="1271.0" y="1501.0" /><circle cx="264.0" cy="1346.0" fill="#090" r="16" stroke="#090" stroke-width="5" /><circle cx="458.0" cy="1152.0" fill="#900" r="16" stroke="#900" stroke-width="5" /><circle cx="237.0" cy="1759.0" fill="#009" r="16" stroke="#009" stroke-width="5" /><circle cx="744.0" cy="2207.0" fill="#009" r="16" stroke="#009" stroke-width="5" /><circle cx="1628.0" cy="2137.0" fill="#009" r="16" stroke="#009" stroke-width="5" /><circle cx="1029.0" cy="2373.0" fill="#009" r="16" stroke="#009" stroke-width="5" /><circle cx="1349.0" cy="2309.0" fill="#009" r="16" stroke="#009" stroke-width="5" /><circle cx="1285.0" cy="2245.0" fill="#009" r="16" stroke="#009" stroke-width="5" /><circle cx="1285.0" cy="2181.0" fill="#009" r="16" stroke="#009" stroke-width="5" /><circle cx="483.0" cy="1756.0" fill="#009" r="16" stroke="#009" stroke-width="5" /><circle cx="547.0" cy="1692.0" fill="#009" r="16" stroke="#009" stroke-width="5" /><circle cx="611.0" cy="1628.0" fill="#009" r="16" stroke="#009" stroke-width="5" /><circle cx="419.0" cy="1692.0" fill="#009" r="16" stroke="#009" stroke-width="5" /><circle cx="355.0" cy="1628.0" fill="#009" r="16" stroke="#009" stroke-width="5" /><circle cx="483.0" cy="1692.0" fill="#009" r="16" stroke="#009" stroke-width="5" /><circle cx="483.0" cy="1628.0" fill="#009" r="16" stroke="#009" stroke-width="5" /><circle cx="483.0" cy="1564.0" fill="#009" r="16" stroke="#009" stroke-width="5" /><circle cx="483.0" cy="1500.0" fill="#009" r="16" stroke="#009" stroke-width="5" /><circle cx="483.0" cy="1436.0" fill="#009" r="16" stroke="#009" stroke-width="5" /><circle cx="773.0" cy="1477.0" fill="#090" r="16" stroke="#090" stroke-width="5" /><circle cx="837.0" cy="1221.0" fill="#090" r="16" stroke="#090" stroke-width="5" /><circle cx="1605.0" cy="1413.0" fill="#090" r="16" stroke="#090" stroke-width="5" /><circle cx="1221.0" cy="1797.0" fill="#090" r="16" stroke="#090" stroke-width="5" /><circle cx="1160.0" cy="1127.0" fill="#009" r="16" stroke="#009" stroke-width="5" /><circle cx="487.0" cy="1895.0" fill="#009" r="16" stroke="#009" stroke-width="5" /><rect fill="#900" height="48" stroke="#900" stroke-width="5" transform="rotate(0,1375.0,996.0)" width="32" x="1359.0" y="972.0" /><rect fill="#900" height="48" stroke="#900" stroke-width="5" transform="rotate(0,359.0,996.0)" width="32" x="343.0" y="972.0" /><rect fill="#900" height="48" stroke="#900" stroke-width="5" transform="rotate(90,1125.0,788.0)" width="32" x="1109.0" y="764.0" /><rect fill="#900" height="48" stroke="#900" stroke-width="5" transform="rotate(90,1125.0,675.0)" width="32" x="1109.0" y="651.0" /><rect fill="#900" height="48" stroke="#900" stroke-width="5" transform="rotate(90,1125.0,546.0)" width="32" x="1109.0" y="522.0" /><rect fill="#900" height="48" stroke="#900" stroke-width="5" transform="rotate(90,1124.0,397.0)" width="32" x="1108.0" y="373.0" /><circle cx="1282.0" cy="68.0" fill="#900" r="16" stroke="#900" stroke-width="5" /><circle cx="1482.0" cy="68.0" fill="#090" r="16" stroke="#090" stroke-width="5" /><rect fill="#090" height="24" stroke="#090" stroke-width="5" transform="rotate(90,1250.0,551.0)" width="24" x="1238.0" y="539.0" /><rect fill="#090" height="24" stroke="#090" stroke-width="5" transform="rotate(90,1701.0,614.0)" width="24" x="1689.0" y="602.0" /><rect fill="#900" height="48" stroke="#900" stroke-width="5" transform="rotate(180,1641.0,482.0)" width="32" x="1625.0" y="458.0" /><rect fill="#900" height="48" stroke="#900" stroke-width="5" transform="rotate(180,1701.0,485.0)" width="32" x="1685.0" y="461.0" /><rect fill="#900" height="48" stroke="#900" stroke-width="5" transform="rotate(180,1585.0,482.0)" width="32" x="1569.0" y="458.0" /><rect fill="#900" height="48" stroke="#900" stroke-width="5" transform="rotate(180,1576.0,607.0)" width="32" x="1560.0" y="583.0" /><rect fill="#900" height="48" stroke="#900" stroke-width="5" transform="rotate(180,1638.0,611.0)" width="32" x="1622.0" y="587.0" /><rect fill="#900" height="48" stroke="#900" stroke-width="5" transform="rotate(180,1638.0,742.0)" width="32" x="1622.0" y="718.0" /><circle cx="1701.0" cy="739.0" fill="#090" r="16" stroke="#090" stroke-width="5" /><rect fill="#090" height="24" stroke="#090" stroke-width="5" transform="rotate(180,1316.0,736.0)" width="24" x="1304.0" y="724.0" /><rect fill="#090" height="24" stroke="#090" stroke-width="5" transform="rotate(180,1447.0,739.0)" width="24" x="1435.0" y="727.0" /><rect fill="#090" height="24" stroke="#090" stroke-width="5" transform="rotate(180,1447.0,363.0)" width="24" x="1435.0" y="351.0" /><rect fill="#090" height="24" stroke="#090" stroke-width="5" transform="rotate(180,1316.0,357.0)" width="24" x="1304.0" y="345.0" /><circle cx="546.0" cy="996.0" fill="#009" r="16" stroke="#009" stroke-width="5" /><circle cx="1375.0" cy="548.0" fill="#009" r="16" stroke="#009" stroke-width="5" /><circle cx="1382.0" cy="676.0" fill="#009" r="16" stroke="#009" stroke-width="5" /><circle cx="1379.0" cy="422.0" fill="#009" r="16" stroke="#009" stroke-width="5" /><ellipse cx="1124.0" cy="101.0" fill="#900" rx="12" ry="24" stroke="#900" stroke-width="5" /><circle cx="1413.0" cy="261.0" fill="#009" r="16" stroke="#009" stroke-width="5" /><rect fill="#090" height="24" stroke="#090" stroke-width="5" transform="rotate(0,1157.0,1989.0)" width="24" x="1145.0" y="1977.0" /><rect fill="#090" height="24" stroke="#090" stroke-width="5" transform="rotate(0,645.0,1285.0)" width="24" x="633.0" y="1273.0" /><rect fill="#090" height="24" stroke="#090" stroke-width="5" transform="rotate(0,1605.0,1733.0)" width="24" x="1593.0" y="1721.0" /><rect fill="#090" height="24" stroke="#090" stroke-width="5" transform="rotate(0,389.0,2245.0)" width="24" x="377.0" y="2233.0" /><rect fill="#090" height="24" stroke="#090" stroke-width="5" transform="rotate(0,581.0,2245.0)" width="24" x="569.0" y="2233.0" /><circle cx="581.0" cy="389.0" fill="#900" r="16" stroke="#900" stroke-width="5" /></svg>