<?xml version="1.0" encoding="utf-8" ?>
<svg baseProfile="tiny" height="651" version="1.2" viewBox="0 0 1034 658" width="1024" xmlns="http://www.w3.org/2000/svg" xmlns:ev="http://www.w3.org/2001/xml-events" xmlns:xlink="http://www.w3.org/1999/xlink"><defs /><line stroke="#333" stroke-width="10" x1="413.0" x2="605.0" y1="613.0" y2="613.0" /><line stroke="#333" stroke-width="10" x1="989.0" x2="989.0" y1="613.0" y2="453.0" /><line stroke="#333" stroke-width="10" x1="989.0" x2="861.0" y1="37.0" y2="37.0" /><line stroke="#333" stroke-width="10" x1="413.0" x2="413.0" y1="37.0" y2="197.0" /><line stroke="#999" stroke-width="3" x1="605.0" x2="861.0" y1="613.0" y2="613.0" /><line stroke="#333" stroke-width="10" x1="605.0" x2="605.0" y1="613.0" y2="653.0" /><line stroke="#333" stroke-width="10" x1="605.0" x2="861.0" y1="653.0" y2="653.0" /><line stroke="#333" stroke-width="10" x1="861.0" x2="861.0" y1="653.0" y2="613.0" /><line stroke="#333" stroke-width="10" x1="861.0" x2="989.0" y1="613.0" y2="613.0" /><line stroke="#333" stroke-width="10" x1="605.0" x2="413.0" y1="37.0" y2="37.0" /><line stroke="#333" stroke-width="10" x1="605.0" x2="605.0" y1="5.0" y2="37.0" /><line stroke="#333" stroke-width="10" x1="861.0" x2="605.0" y1="5.0" y2="5.0" /><line stroke="#333" stroke-width="10" x1="861.0" x2="861.0" y1="37.0" y2="5.0" /><line stroke="#999" stroke-width="3" x1="861.0" x2="605.0" y1="37.0" y2="37.0" /><line stroke="#999" stroke-width="3" x1="989.0" x2="989.0" y1="453.0" y2="197.0" /><line stroke="#333" stroke-width="10" x1="989.0" x2="1029.0" y1="453.0" y2="453.0" /><line stroke="#333" stroke-width="10" x1="1029.0" x2="1029.0" y1="453.0" y2="197.0" /><line stroke="#333" stroke-width="10" x1="1029.0" x2="989.0" y1="197.0" y2="197.0" /><line stroke="#333" stroke-width="10" x1="989.0" x2="989.0" y1="197.0" y2="37.0" /><line stroke="#333" stroke-width="10" x1="413.0" x2="413.0" y1="453.0" y2="613.0" /><line stroke="#333" stroke-width="10" x1="349.0" x2="413.0" y1="453.0" y2="453.0" /><line stroke="#666" stroke-width="20" x1="349.0" x2="349.0" y1="197.0" y2="453.0" /><line stroke="#333" stroke-width="10" x1="413.0" x2="349.0" y1="197.0" y2="197.0" /><line stroke="#999" stroke-width="3" x1="413.0" x2="413.0" y1="197.0" y2="229.0" /><line stroke="#999" stroke-width="3" x1="413.0" x2="413.0" y1="421.0" y2="453.0" /><line stroke="#999" stroke-width="3" x1="477.0" x2="413.0" y1="421.0" y2="421.0" /><line stroke="#999" stroke-width="3" x1="541.0" x2="477.0" y1="357.0" y2="421.0" /><line stroke="#999" stroke-width="3" x1="541.0" x2="541.0" y1="293.0" y2="357.0" /><line stroke="#999" stroke-width="3" x1="477.0" x2="541.0" y1="229.0" y2="293.0" /><line stroke="#999" stroke-width="3" x1="413.0" x2="477.0" y1="229.0" y2="229.0" /><line stroke="#999" stroke-width="3" x1="413.0" x2="413.0" y1="229.0" y2="421.0" /><line stroke="#333" stroke-width="10" x1="285.0" x2="349.0" y1="453.0" y2="453.0" /><line stroke="#666" stroke-width="20" x1="285.0" x2="285.0" y1="453.0" y2="197.0" /><line stroke="#333" stroke-width="10" x1="349.0" x2="285.0" y1="197.0" y2="197.0" /><line stroke="#333" stroke-width="10" x1="29.0" x2="285.0" y1="453.0" y2="453.0" /><line stroke="#333" stroke-width="10" x1="29.0" x2="29.0" y1="357.0" y2="453.0" /><line stroke="#333" stroke-width="10" x1="5.0" x2="29.0" y1="357.0" y2="357.0" /><line stroke="#0d0" stroke-width="20" x1="5.0" x2="5.0" y1="293.0" y2="357.0" /><line stroke="#333" stroke-width="10" x1="29.0" x2="5.0" y1="293.0" y2="293.0" /><line stroke="#333" stroke-width="10" x1="29.0" x2="29.0" y1="197.0" y2="293.0" /><line stroke="#333" stroke-width="10" x1="285.0" x2="29.0" y1="197.0" y2="197.0" /><line stroke="#999" stroke-width="3" x1="29.0" x2="29.0" y1="293.0" y2="357.0" /><ellipse cx="507.0" cy="327.0" fill="#009" rx="12" ry="24" stroke="#009" stroke-width="5" /><rect fill="#090" height="24" stroke="#090" stroke-width="5" transform="rotate(0,955.0,585.0)" width="24" x="943.0" y="573.0" /><rect fill="#090" height="24" stroke="#090" stroke-width="5" transform="rotate(0,959.0,63.0)" width="24" x="947.0" y="51.0" /><rect fill="#090" height="24" stroke="#090" stroke-width="5" transform="rotate(0,447.0,61.0)" width="24" x="435.0" y="49.0" /><rect fill="#090" height="24" stroke="#090" stroke-width="5" transform="rotate(0,441.0,585.0)" width="24" x="429.0" y="573.0" /><rect fill="#090" height="24" stroke="#090" stroke-width="5" transform="rotate(0,129.0,325.0)" width="24" x="117.0" y="313.0" /><rect fill="#090" height="24" stroke="#090" stroke-width="5" transform="rotate(90,737.0,85.0)" width="24" x="725.0" y="73.0" /><rect fill="#090" height="24" stroke="#090" stroke-width="5" transform="rotate(180,941.0,321.0)" width="24" x="929.0" y="309.0" /><rect fill="#090" height="24" stroke="#090" stroke-width="5" transform="rotate(270,737.0,553.0)" width="24" x="725.0" y="541.0" /><rect fill="#090" height="24" stroke="#090" stroke-width="5" transform="rotate(0,451.0,329.0)" width="24" x="439.0" y="317.0" /><rect fill="#090" height="24" stroke="#090" stroke-width="5" transform="rotate(0,765.0,329.0)" width="24" x="753.0" y="317.0" /><rect fill="#090" height="24" stroke="#090" stroke-width="5" transform="rotate(270,699.0,257.0)" width="24" x="687.0" y="245.0" /><rect fill="#090" height="24" stroke="#090" stroke-width="5" transform="rotate(180,647.0,325.0)" width="24" x="635.0" y="313.0" /><rect fill="#090" height="24" stroke="#090" stroke-width="5" transform="rotate(90,701.0,393.0)" width="24" x="689.0" y="381.0" /><rect fill="#090" height="24" stroke="#090" stroke-width="5" transform="rotate(180,241.0,325.0)" width="24" x="229.0" y="313.0" /><ellipse cx="731.0" cy="159.0" fill="#009" rx="12" ry="24" stroke="#009" stroke-width="5" /><ellipse cx="873.0" cy="321.0" fill="#009" rx="12" ry="24" stroke="#009" stroke-width="5" /><ellipse cx="733.0" cy="479.0" fill="#009" rx="12" ry="24" stroke="#009" stroke-width="5" /><circle cx="383.0" cy="329.0" fill="#900" r="16" stroke="#900" stroke-width="5" /><circle cx="521.0" cy="119.0" fill="#900" r="16" stroke="#900" stroke-width="5" /><circle cx="1005.0" cy="321.0" fill="#900" r="16" stroke="#900" stroke-width="5" /><circle cx="741.0" cy="631.0" fill="#900" r="16" stroke="#900" stroke-width="5" /><circle cx="743.0" cy="23.0" fill="#900" r="16" stroke="#900" stroke-width="5" /><circle cx="889.0" cy="521.0" fill="#900" r="16" stroke="#900" stroke-width="5" /><circle cx="513.0" cy="519.0" fill="#900" r="16" stroke="#900" stroke-width="5" /></svg>