<?xml version="1.0" encoding="utf-8" ?>
<svg baseProfile="tiny" height="1018" version="1.2" viewBox="0 0 11994 11930" width="1024" xmlns="http://www.w3.org/2000/svg" xmlns:ev="http://www.w3.org/2001/xml-events" xmlns:xlink="http://www.w3.org/1999/xlink"><defs /><line stroke="#333" stroke-width="10" x1="11797.0" x2="11989.0" y1="7389.0" y2="5981.0" /><line stroke="#333" stroke-width="10" x1="11293.0" x2="11797.0" y1="8757.0" y2="7389.0" /><line stroke="#333" stroke-width="10" x1="10477.0" x2="11293.0" y1="9933.0" y2="8757.0" /><line stroke="#333" stroke-width="10" x1="9397.0" x2="10477.0" y1="10901.0" y2="9933.0" /><line stroke="#333" stroke-width="10" x1="8101.0" x2="9397.0" y1="11573.0" y2="10901.0" /><line stroke="#333" stroke-width="10" x1="6709.0" x2="8101.0" y1="11925.0" y2="11573.0" /><line stroke="#333" stroke-width="10" x1="5285.0" x2="6709.0" y1="11925.0" y2="11925.0" /><line stroke="#333" stroke-width="10" x1="3869.0" x2="5285.0" y1="11573.0" y2="11925.0" /><line stroke="#333" stroke-width="10" x1="2597.0" x2="3869.0" y1="10893.0" y2="11573.0" /><line stroke="#333" stroke-width="10" x1="1517.0" x2="2597.0" y1="9933.0" y2="10893.0" /><line stroke="#333" stroke-width="10" x1="677.0" x2="1517.0" y1="8765.0" y2="9933.0" /><line stroke="#333" stroke-width="10" x1="173.0" x2="677.0" y1="7397.0" y2="8765.0" /><line stroke="#333" stroke-width="10" x1="5.0" x2="173.0" y1="5981.0" y2="7397.0" /><line stroke="#333" stroke-width="10" x1="173.0" x2="5.0" y1="4541.0" y2="5981.0" /><line stroke="#333" stroke-width="10" x1="677.0" x2="173.0" y1="3173.0" y2="4541.0" /><line stroke="#333" stroke-width="10" x1="1493.0" x2="677.0" y1="1997.0" y2="3173.0" /><line stroke="#333" stroke-width="10" x1="2573.0" x2="1493.0" y1="1037.0" y2="1997.0" /><line stroke="#333" stroke-width="10" x1="3845.0" x2="2573.0" y1="365.0" y2="1037.0" /><line stroke="#333" stroke-width="10" x1="5261.0" x2="3845.0" y1="5.0" y2="365.0" /><line stroke="#333" stroke-width="10" x1="6685.0" x2="5261.0" y1="5.0" y2="5.0" /><line stroke="#333" stroke-width="10" x1="8101.0" x2="6685.0" y1="365.0" y2="5.0" /><line stroke="#333" stroke-width="10" x1="9373.0" x2="8101.0" y1="1037.0" y2="365.0" /><line stroke="#333" stroke-width="10" x1="10453.0" x2="9373.0" y1="1997.0" y2="1037.0" /><line stroke="#333" stroke-width="10" x1="11293.0" x2="10453.0" y1="3173.0" y2="1997.0" /><line stroke="#333" stroke-width="10" x1="11797.0" x2="11293.0" y1="4541.0" y2="3173.0" /><line stroke="#333" stroke-width="10" x1="11989.0" x2="11797.0" y1="5981.0" y2="4541.0" /><line stroke="#333" stroke-width="10" x1="2670.0" x2="4134.0" y1="2127.0" y2="2127.0" /><line stroke="#333" stroke-width="10" x1="4134.0" x2="4134.0" y1="2127.0" y2="3975.0" /><line stroke="#333" stroke-width="10" x1="4134.0" x2="2670.0" y1="3975.0" y2="3975.0" /><line stroke="#333" stroke-width="10" x1="2670.0" x2="2670.0" y1="3975.0" y2="2127.0" /><line stroke="#333" stroke-width="10" x1="8973.0" x2="9725.0" y1="4621.0" y2="4621.0" /><line stroke="#333" stroke-width="10" x1="9725.0" x2="9725.0" y1="4621.0" y2="5621.0" /><line stroke="#333" stroke-width="10" x1="9725.0" x2="8973.0" y1="5621.0" y2="5621.0" /><line stroke="#333" stroke-width="10" x1="8973.0" x2="8973.0" y1="5621.0" y2="4621.0" /><line stroke="#333" stroke-width="10" x1="4885.0" x2="6885.0" y1="5365.0" y2="5365.0" /><line stroke="#333" stroke-width="10" x1="6885.0" x2="6885.0" y1="5365.0" y2="7365.0" /><line stroke="#333" stroke-width="10" x1="6885.0" x2="4885.0" y1="7365.0" y2="7365.0" /><line stroke="#333" stroke-width="10" x1="4885.0" x2="4885.0" y1="7365.0" y2="5365.0" /><line stroke="#333" stroke-width="10" x1="6669.0" x2="7669.0" y1="2541.0" y2="2541.0" /><line stroke="#333" stroke-width="10" x1="7669.0" x2="7669.0" y1="2541.0" y2="3789.0" /><line stroke="#333" stroke-width="10" x1="7669.0" x2="6669.0" y1="3789.0" y2="3789.0" /><line stroke="#333" stroke-width="10" x1="6669.0" x2="6669.0" y1="3789.0" y2="2541.0" /><line stroke="#0d0" stroke-width="20" x1="3813.0" x2="3877.0" y1="5637.0" y2="5637.0" /><line stroke="#333" stroke-width="10" x1="3877.0" x2="3877.0" y1="5637.0" y2="5765.0" /><line stroke="#333" stroke-width="10" x1="3877.0" x2="3813.0" y1="5765.0" y2="5765.0" /><line stroke="#333" stroke-width="10" x1="3813.0" x2="3813.0" y1="5765.0" y2="5637.0" /><line stroke="#333" stroke-width="10" x1="6277.0" x2="7773.0" y1="9125.0" y2="9125.0" /><line stroke="#333" stroke-width="10" x1="7773.0" x2="7773.0" y1="9125.0" y2="10621.0" /><line stroke="#333" stroke-width="10" x1="7773.0" x2="6277.0" y1="10621.0" y2="10621.0" /><line stroke="#333" stroke-width="10" x1="6277.0" x2="6277.0" y1="10621.0" y2="9125.0" /><line stroke="#333" stroke-width="10" x1="4497.0" x2="6497.0" y1="3988.0" y2="3988.0" /><line stroke="#333" stroke-width="10" x1="6497.0" x2="6497.0" y1="3988.0" y2="4988.0" /><line stroke="#333" stroke-width="10" x1="6497.0" x2="4497.0" y1="4988.0" y2="4988.0" /><line stroke="#333" stroke-width="10" x1="4497.0" x2="4497.0" y1="4988.0" y2="3988.0" /><line stroke="#333" stroke-width="10" x1="2802.0" x2="3802.0" y1="6319.0" y2="6319.0" /><line stroke="#333" stroke-width="10" x1="3802.0" x2="3802.0" y1="6319.0" y2="8319.0" /><line stroke="#333" stroke-width="10" x1="3802.0" x2="2802.0" y1="8319.0" y2="8319.0" /><line stroke="#333" stroke-width="10" x1="2802.0" x2="2802.0" y1="8319.0" y2="6319.0" /><line stroke="#333" stroke-width="10" x1="7353.0" x2="8353.0" y1="5493.0" y2="5493.0" /><line stroke="#333" stroke-width="10" x1="8353.0" x2="8353.0" y1="5493.0" y2="5997.0" /><line stroke="#333" stroke-width="10" x1="8353.0" x2="7353.0" y1="5997.0" y2="5997.0" /><line stroke="#333" stroke-width="10" x1="7353.0" x2="7353.0" y1="5997.0" y2="5493.0" /><line stroke="#333" stroke-width="10" x1="3844.0" x2="4348.0" y1="9104.0" y2="9104.0" /><line stroke="#333" stroke-width="10" x1="4348.0" x2="4348.0" y1="9104.0" y2="10104.0" /><line stroke="#333" stroke-width="10" x1="4348.0" x2="3844.0" y1="10104.0" y2="10104.0" /><line stroke="#333" stroke-width="10" x1="3844.0" x2="3844.0" y1="10104.0" y2="9104.0" /><ellipse cx="8121.0" cy="846.0" fill="#009" rx="12" ry="24" stroke="#009" stroke-width="5" /><ellipse cx="7975.0" cy="758.0" fill="#009" rx="12" ry="24" stroke="#009" stroke-width="5" /><ellipse cx="8215.0" cy="683.0" fill="#009" rx="12" ry="24" stroke="#009" stroke-width="5" /><ellipse cx="8083.0" cy="713.0" fill="#009" rx="12" ry="24" stroke="#009" stroke-width="5" /><rect fill="#900" height="48" stroke="#900" stroke-width="5" transform="rotate(90,8438.0,8070.0)" width="32" x="8422.0" y="8046.0" /><rect fill="#900" height="48" stroke="#900" stroke-width="5" transform="rotate(90,9235.0,6709.0)" width="32" x="9219.0" y="6685.0" /><rect fill="#900" height="48" stroke="#900" stroke-width="5" transform="rotate(90,1484.0,9087.0)" width="32" x="1468.0" y="9063.0" /><circle cx="4112.0" cy="1286.0" fill="#009" r="16" stroke="#009" stroke-width="5" /><rect fill="#090" height="24" stroke="#090" stroke-width="5" transform="rotate(0,7766.0,924.0)" width="24" x="7754.0" y="912.0" /><circle cx="5072.0" cy="3492.0" fill="#090" r="16" stroke="#090" stroke-width="5" /><circle cx="5732.0" cy="3096.0" fill="#090" r="16" stroke="#090" stroke-width="5" /><circle cx="5096.0" cy="2976.0" fill="#090" r="16" stroke="#090" stroke-width="5" /><circle cx="5492.0" cy="2892.0" fill="#090" r="16" stroke="#090" stroke-width="5" /><circle cx="5360.0" cy="3216.0" fill="#090" r="16" stroke="#090" stroke-width="5" /><circle cx="5096.0" cy="3240.0" fill="#090" r="16" stroke="#090" stroke-width="5" /><circle cx="5408.0" cy="3420.0" fill="#090" r="16" stroke="#090" stroke-width="5" /><circle cx="5708.0" cy="3264.0" fill="#090" r="16" stroke="#090" stroke-width="5" /><circle cx="5468.0" cy="3024.0" fill="#090" r="16" stroke="#090" stroke-width="5" /><circle cx="6128.0" cy="2592.0" fill="#900" r="16" stroke="#900" stroke-width="5" /><rect fill="#900" height="48" stroke="#900" stroke-width="5" transform="rotate(90,3299.0,9061.0)" width="32" x="3283.0" y="9037.0" /><rect fill="#900" height="48" stroke="#900" stroke-width="5" transform="rotate(90,2995.0,8773.0)" width="32" x="2979.0" y="8749.0" /><rect fill="#900" height="48" stroke="#900" stroke-width="5" transform="rotate(90,3283.0,8757.0)" width="32" x="3267.0" y="8733.0" /><rect fill="#900" height="48" stroke="#900" stroke-width="5" transform="rotate(90,2947.0,9093.0)" width="32" x="2931.0" y="9069.0" /><circle cx="7832.0" cy="2065.0" fill="#009" r="16" stroke="#009" stroke-width="5" /><circle cx="2056.0" cy="5167.0" fill="#009" r="16" stroke="#009" stroke-width="5" /><circle cx="1288.0" cy="4017.0" fill="#009" r="16" stroke="#009" stroke-width="5" /><circle cx="7892.0" cy="9192.0" fill="#009" r="16" stroke="#009" stroke-width="5" /><circle cx="7964.0" cy="5131.0" fill="#009" r="16" stroke="#009" stroke-width="5" /><circle cx="5614.0" cy="771.0" fill="#900" r="16" stroke="#900" stroke-width="5" /><circle cx="4726.0" cy="963.0" fill="#090" r="16" stroke="#090" stroke-width="5" /><circle cx="5014.0" cy="855.0" fill="#090" r="16" stroke="#090" stroke-width="5" /><circle cx="4762.0" cy="651.0" fill="#090" r="16" stroke="#090" stroke-width="5" /><circle cx="4918.0" cy="1011.0" fill="#090" r="16" stroke="#090" stroke-width="5" /><circle cx="3124.0" cy="5732.0" fill="#090" r="16" stroke="#090" stroke-width="5" /><circle cx="5346.0" cy="2410.0" fill="#900" r="16" stroke="#900" stroke-width="5" /><circle cx="5190.0" cy="2422.0" fill="#900" r="16" stroke="#900" stroke-width="5" /><circle cx="5370.0" cy="2230.0" fill="#090" r="16" stroke="#090" stroke-width="5" /><circle cx="5250.0" cy="2182.0" fill="#090" r="16" stroke="#090" stroke-width="5" /><circle cx="5226.0" cy="2110.0" fill="#090" r="16" stroke="#090" stroke-width="5" /><circle cx="5346.0" cy="2074.0" fill="#090" r="16" stroke="#090" stroke-width="5" /><circle cx="5442.0" cy="2218.0" fill="#090" r="16" stroke="#090" stroke-width="5" /><circle cx="5454.0" cy="2122.0" fill="#090" r="16" stroke="#090" stroke-width="5" /><rect fill="#900" height="48" stroke="#900" stroke-width="5" transform="rotate(90,6406.0,8774.0)" width="32" x="6390.0" y="8750.0" /><rect fill="#900" height="48" stroke="#900" stroke-width="5" transform="rotate(90,6646.0,8774.0)" width="32" x="6630.0" y="8750.0" /><rect fill="#900" height="48" stroke="#900" stroke-width="5" transform="rotate(90,6931.0,8413.0)" width="32" x="6915.0" y="8389.0" /><rect fill="#900" height="48" stroke="#900" stroke-width="5" transform="rotate(90,8668.0,6976.0)" width="32" x="8652.0" y="6952.0" /><rect fill="#900" height="48" stroke="#900" stroke-width="5" transform="rotate(90,9280.0,6940.0)" width="32" x="9264.0" y="6916.0" /><rect fill="#900" height="48" stroke="#900" stroke-width="5" transform="rotate(90,9004.0,6604.0)" width="32" x="8988.0" y="6580.0" /><rect fill="#900" height="48" stroke="#900" stroke-width="5" transform="rotate(90,8963.0,7109.0)" width="32" x="8947.0" y="7085.0" /><rect fill="#900" height="48" stroke="#900" stroke-width="5" transform="rotate(90,9100.0,6976.0)" width="32" x="9084.0" y="6952.0" /><rect fill="#900" height="48" stroke="#900" stroke-width="5" transform="rotate(90,8740.0,7084.0)" width="32" x="8724.0" y="7060.0" /><rect fill="#900" height="48" stroke="#900" stroke-width="5" transform="rotate(90,1845.0,7236.0)" width="32" x="1829.0" y="7212.0" /><rect fill="#900" height="48" stroke="#900" stroke-width="5" transform="rotate(90,1797.0,6947.0)" width="32" x="1781.0" y="6923.0" /><rect fill="#900" height="48" stroke="#900" stroke-width="5" transform="rotate(90,2241.0,6995.0)" width="32" x="2225.0" y="6971.0" /><rect fill="#900" height="48" stroke="#900" stroke-width="5" transform="rotate(90,2169.0,7343.0)" width="32" x="2153.0" y="7319.0" /><rect fill="#900" height="48" stroke="#900" stroke-width="5" transform="rotate(90,2106.0,9690.0)" width="32" x="2090.0" y="9666.0" /><rect fill="#900" height="48" stroke="#900" stroke-width="5" transform="rotate(90,1814.0,9398.0)" width="32" x="1798.0" y="9374.0" /><circle cx="4816.0" cy="804.0" fill="#090" r="16" stroke="#090" stroke-width="5" /><circle cx="4924.0" cy="720.0" fill="#090" r="16" stroke="#090" stroke-width="5" /><circle cx="5272.0" cy="3067.0" fill="#090" r="16" stroke="#090" stroke-width="5" /><circle cx="5284.0" cy="2911.0" fill="#090" r="16" stroke="#090" stroke-width="5" /><circle cx="5092.0" cy="3091.0" fill="#090" r="16" stroke="#090" stroke-width="5" /><circle cx="5260.0" cy="3319.0" fill="#090" r="16" stroke="#090" stroke-width="5" /><circle cx="5572.0" cy="3151.0" fill="#090" r="16" stroke="#090" stroke-width="5" /><circle cx="5020.0" cy="3379.0" fill="#090" r="16" stroke="#090" stroke-width="5" /><circle cx="5224.0" cy="3439.0" fill="#090" r="16" stroke="#090" stroke-width="5" /><circle cx="4948.0" cy="3175.0" fill="#090" r="16" stroke="#090" stroke-width="5" /><circle cx="5032.0" cy="2959.0" fill="#090" r="16" stroke="#090" stroke-width="5" /><circle cx="5343.0" cy="2167.0" fill="#090" r="16" stroke="#090" stroke-width="5" /><circle cx="5451.0" cy="2035.0" fill="#090" r="16" stroke="#090" stroke-width="5" /><circle cx="5211.0" cy="2023.0" fill="#090" r="16" stroke="#090" stroke-width="5" /><circle cx="5355.0" cy="1975.0" fill="#090" r="16" stroke="#090" stroke-width="5" /><circle cx="5283.0" cy="2251.0" fill="#090" r="16" stroke="#090" stroke-width="5" /><circle cx="5463.0" cy="2287.0" fill="#090" r="16" stroke="#090" stroke-width="5" /><circle cx="5571.0" cy="2167.0" fill="#090" r="16" stroke="#090" stroke-width="5" /><circle cx="5571.0" cy="2059.0" fill="#090" r="16" stroke="#090" stroke-width="5" /><circle cx="5547.0" cy="1939.0" fill="#090" r="16" stroke="#090" stroke-width="5" /><circle cx="5451.0" cy="1891.0" fill="#090" r="16" stroke="#090" stroke-width="5" /><circle cx="5319.0" cy="1891.0" fill="#090" r="16" stroke="#090" stroke-width="5" /><circle cx="5212.0" cy="3187.0" fill="#090" r="16" stroke="#090" stroke-width="5" /><circle cx="5440.0" cy="3115.0" fill="#090" r="16" stroke="#090" stroke-width="5" /><circle cx="5536.0" cy="3247.0" fill="#090" r="16" stroke="#090" stroke-width="5" /><circle cx="5440.0" cy="3343.0" fill="#090" r="16" stroke="#090" stroke-width="5" /><circle cx="5596.0" cy="3403.0" fill="#090" r="16" stroke="#090" stroke-width="5" /><circle cx="5596.0" cy="3043.0" fill="#090" r="16" stroke="#090" stroke-width="5" /><circle cx="5620.0" cy="2899.0" fill="#090" r="16" stroke="#090" stroke-width="5" /><circle cx="5212.0" cy="2863.0" fill="#090" r="16" stroke="#090" stroke-width="5" /><circle cx="4855.0" cy="888.0" fill="#090" r="16" stroke="#090" stroke-width="5" /><circle cx="4807.0" cy="1008.0" fill="#090" r="16" stroke="#090" stroke-width="5" /><circle cx="4915.0" cy="1056.0" fill="#090" r="16" stroke="#090" stroke-width="5" /><circle cx="5047.0" cy="972.0" fill="#090" r="16" stroke="#090" stroke-width="5" /><circle cx="4243.0" cy="10528.0" fill="#009" r="16" stroke="#009" stroke-width="5" /><circle cx="4805.0" cy="9594.0" fill="#009" r="16" stroke="#009" stroke-width="5" /><circle cx="3643.0" cy="10204.0" fill="#009" r="16" stroke="#009" stroke-width="5" /><circle cx="9644.0" cy="4133.0" fill="#009" r="16" stroke="#009" stroke-width="5" /><circle cx="3055.0" cy="1330.0" fill="#009" r="16" stroke="#009" stroke-width="5" /><circle cx="1567.0" cy="2648.0" fill="#009" r="16" stroke="#009" stroke-width="5" /><circle cx="9491.0" cy="2218.0" fill="#009" r="16" stroke="#009" stroke-width="5" /><circle cx="8831.0" cy="3728.0" fill="#009" r="16" stroke="#009" stroke-width="5" /><circle cx="4135.0" cy="6924.0" fill="#009" r="16" stroke="#009" stroke-width="5" /><circle cx="6563.0" cy="1685.0" fill="#009" r="16" stroke="#009" stroke-width="5" /><circle cx="9779.0" cy="9877.0" fill="#009" r="16" stroke="#009" stroke-width="5" /><circle cx="563.0" cy="7813.0" fill="#009" r="16" stroke="#009" stroke-width="5" /><circle cx="6611.0" cy="725.0" fill="#009" r="16" stroke="#009" stroke-width="5" /><circle cx="707.0" cy="5765.0" fill="#009" r="16" stroke="#009" stroke-width="5" /><rect fill="#900" height="48" stroke="#900" stroke-width="5" transform="rotate(90,8854.0,8054.0)" width="32" x="8838.0" y="8030.0" /><rect fill="#900" height="48" stroke="#900" stroke-width="5" transform="rotate(90,8822.0,7702.0)" width="32" x="8806.0" y="7678.0" /><rect fill="#900" height="48" stroke="#900" stroke-width="5" transform="rotate(90,8358.0,7734.0)" width="32" x="8342.0" y="7710.0" /><rect fill="#900" height="48" stroke="#900" stroke-width="5" transform="rotate(90,8710.0,8358.0)" width="32" x="8694.0" y="8334.0" /><rect fill="#900" height="48" stroke="#900" stroke-width="5" transform="rotate(90,8550.0,7462.0)" width="32" x="8534.0" y="7438.0" /><rect fill="#900" height="48" stroke="#900" stroke-width="5" transform="rotate(90,8150.0,7878.0)" width="32" x="8134.0" y="7854.0" /><rect fill="#900" height="48" stroke="#900" stroke-width="5" transform="rotate(90,9078.0,7862.0)" width="32" x="9062.0" y="7838.0" /><rect fill="#900" height="48" stroke="#900" stroke-width="5" transform="rotate(90,9030.0,8358.0)" width="32" x="9014.0" y="8334.0" /><rect fill="#900" height="48" stroke="#900" stroke-width="5" transform="rotate(90,8166.0,8326.0)" width="32" x="8150.0" y="8302.0" /><rect fill="#900" height="48" stroke="#900" stroke-width="5" transform="rotate(90,8134.0,7446.0)" width="32" x="8118.0" y="7422.0" /><rect fill="#900" height="48" stroke="#900" stroke-width="5" transform="rotate(90,9030.0,7446.0)" width="32" x="9014.0" y="7422.0" /><rect fill="#900" height="48" stroke="#900" stroke-width="5" transform="rotate(90,3123.0,9109.0)" width="32" x="3107.0" y="9085.0" /><rect fill="#900" height="48" stroke="#900" stroke-width="5" transform="rotate(90,2947.0,8917.0)" width="32" x="2931.0" y="8893.0" /><rect fill="#900" height="48" stroke="#900" stroke-width="5" transform="rotate(90,3107.0,8677.0)" width="32" x="3091.0" y="8653.0" /><rect fill="#900" height="48" stroke="#900" stroke-width="5" transform="rotate(90,3299.0,8933.0)" width="32" x="3283.0" y="8909.0" /><rect fill="#900" height="48" stroke="#900" stroke-width="5" transform="rotate(90,3427.0,9189.0)" width="32" x="3411.0" y="9165.0" /><rect fill="#900" height="48" stroke="#900" stroke-width="5" transform="rotate(90,3187.0,9285.0)" width="32" x="3171.0" y="9261.0" /><rect fill="#900" height="48" stroke="#900" stroke-width="5" transform="rotate(90,2883.0,9285.0)" width="32" x="2867.0" y="9261.0" /><rect fill="#900" height="48" stroke="#900" stroke-width="5" transform="rotate(90,2355.0,7189.0)" width="32" x="2339.0" y="7165.0" /><rect fill="#900" height="48" stroke="#900" stroke-width="5" transform="rotate(90,2003.0,7445.0)" width="32" x="1987.0" y="7421.0" /><rect fill="#900" height="48" stroke="#900" stroke-width="5" transform="rotate(90,1619.0,7141.0)" width="32" x="1603.0" y="7117.0" /><rect fill="#900" height="48" stroke="#900" stroke-width="5" transform="rotate(90,2035.0,6789.0)" width="32" x="2019.0" y="6765.0" /><rect fill="#900" height="48" stroke="#900" stroke-width="5" transform="rotate(90,6819.0,8661.0)" width="32" x="6803.0" y="8637.0" /><rect fill="#900" height="48" stroke="#900" stroke-width="5" transform="rotate(90,6611.0,8581.0)" width="32" x="6595.0" y="8557.0" /><rect fill="#900" height="48" stroke="#900" stroke-width="5" transform="rotate(90,6707.0,8405.0)" width="32" x="6691.0" y="8381.0" /><rect fill="#900" height="48" stroke="#900" stroke-width="5" transform="rotate(90,6067.0,11381.0)" width="32" x="6051.0" y="11357.0" /><rect fill="#900" height="48" stroke="#900" stroke-width="5" transform="rotate(90,6203.0,11399.0)" width="32" x="6187.0" y="11375.0" /><rect fill="#900" height="48" stroke="#900" stroke-width="5" transform="rotate(90,6223.0,11289.0)" width="32" x="6207.0" y="11265.0" /><rect fill="#900" height="48" stroke="#900" stroke-width="5" transform="rotate(90,6080.0,11244.0)" width="32" x="6064.0" y="11220.0" /><rect fill="#900" height="48" stroke="#900" stroke-width="5" transform="rotate(90,6145.0,11499.0)" width="32" x="6129.0" y="11475.0" /><rect fill="#900" height="48" stroke="#900" stroke-width="5" transform="rotate(90,5935.0,11494.0)" width="32" x="5919.0" y="11470.0" /><rect fill="#900" height="48" stroke="#900" stroke-width="5" transform="rotate(90,5900.0,11329.0)" width="32" x="5884.0" y="11305.0" /><rect fill="#900" height="48" stroke="#900" stroke-width="5" transform="rotate(90,6010.0,11166.0)" width="32" x="5994.0" y="11142.0" /><rect fill="#900" height="48" stroke="#900" stroke-width="5" transform="rotate(90,6223.0,11171.0)" width="32" x="6207.0" y="11147.0" /><rect fill="#900" height="48" stroke="#900" stroke-width="5" transform="rotate(90,6308.0,11329.0)" width="32" x="6292.0" y="11305.0" /><rect fill="#900" height="48" stroke="#900" stroke-width="5" transform="rotate(90,6298.0,11454.0)" width="32" x="6282.0" y="11430.0" /><rect fill="#900" height="48" stroke="#900" stroke-width="5" transform="rotate(90,6258.0,11564.0)" width="32" x="6242.0" y="11540.0" /><rect fill="#900" height="48" stroke="#900" stroke-width="5" transform="rotate(90,6190.0,11609.0)" width="32" x="6174.0" y="11585.0" /><rect fill="#900" height="48" stroke="#900" stroke-width="5" transform="rotate(90,6060.0,11619.0)" width="32" x="6044.0" y="11595.0" /><rect fill="#900" height="48" stroke="#900" stroke-width="5" transform="rotate(90,5950.0,11599.0)" width="32" x="5934.0" y="11575.0" /><rect fill="#900" height="48" stroke="#900" stroke-width="5" transform="rotate(90,5840.0,11524.0)" width="32" x="5824.0" y="11500.0" /><rect fill="#900" height="48" stroke="#900" stroke-width="5" transform="rotate(90,5835.0,11374.0)" width="32" x="5819.0" y="11350.0" /><rect fill="#900" height="48" stroke="#900" stroke-width="5" transform="rotate(90,5820.0,11264.0)" width="32" x="5804.0" y="11240.0" /><rect fill="#900" height="48" stroke="#900" stroke-width="5" transform="rotate(90,5890.0,11116.0)" width="32" x="5874.0" y="11092.0" /><rect fill="#900" height="48" stroke="#900" stroke-width="5" transform="rotate(90,6090.0,11051.0)" width="32" x="6074.0" y="11027.0" /><rect fill="#900" height="48" stroke="#900" stroke-width="5" transform="rotate(90,6263.0,11111.0)" width="32" x="6247.0" y="11087.0" /><rect fill="#900" height="48" stroke="#900" stroke-width="5" transform="rotate(90,6413.0,11209.0)" width="32" x="6397.0" y="11185.0" /><rect fill="#900" height="48" stroke="#900" stroke-width="5" transform="rotate(90,6030.0,11499.0)" width="32" x="6014.0" y="11475.0" /><rect fill="#900" height="48" stroke="#900" stroke-width="5" transform="rotate(90,5990.0,11269.0)" width="32" x="5974.0" y="11245.0" /><rect fill="#900" height="48" stroke="#900" stroke-width="5" transform="rotate(90,5715.0,11096.0)" width="32" x="5699.0" y="11072.0" /><rect fill="#900" height="48" stroke="#900" stroke-width="5" transform="rotate(90,5945.0,10991.0)" width="32" x="5929.0" y="10967.0" /><rect fill="#900" height="48" stroke="#900" stroke-width="5" transform="rotate(90,6238.0,11011.0)" width="32" x="6222.0" y="10987.0" /><rect fill="#900" height="48" stroke="#900" stroke-width="5" transform="rotate(90,6448.0,11354.0)" width="32" x="6432.0" y="11330.0" /><rect fill="#900" height="48" stroke="#900" stroke-width="5" transform="rotate(90,6433.0,11529.0)" width="32" x="6417.0" y="11505.0" /><rect fill="#900" height="48" stroke="#900" stroke-width="5" transform="rotate(90,6125.0,11709.0)" width="32" x="6109.0" y="11685.0" /><rect fill="#900" height="48" stroke="#900" stroke-width="5" transform="rotate(90,5900.0,11669.0)" width="32" x="5884.0" y="11645.0" /><rect fill="#900" height="48" stroke="#900" stroke-width="5" transform="rotate(90,5725.0,11474.0)" width="32" x="5709.0" y="11450.0" /><circle cx="5418.0" cy="457.0" fill="#900" r="16" stroke="#900" stroke-width="5" /><circle cx="5980.0" cy="10151.0" fill="#009" r="16" stroke="#009" stroke-width="5" /><circle cx="9356.0" cy="8329.0" fill="#009" r="16" stroke="#009" stroke-width="5" /><circle cx="1582.0" cy="8580.0" fill="#009" r="16" stroke="#009" stroke-width="5" /><circle cx="7796.0" cy="7612.0" fill="#009" r="16" stroke="#009" stroke-width="5" /><circle cx="7300.0" cy="10778.0" fill="#009" r="16" stroke="#009" stroke-width="5" /><circle cx="4982.0" cy="8624.0" fill="#009" r="16" stroke="#009" stroke-width="5" /><circle cx="11137.0" cy="8107.0" fill="#009" r="16" stroke="#009" stroke-width="5" /><circle cx="5276.0" cy="3179.0" fill="#090" r="16" stroke="#090" stroke-width="5" /><circle cx="5298.0" cy="3542.0" fill="#090" r="16" stroke="#090" stroke-width="5" /><rect fill="#900" height="48" stroke="#900" stroke-width="5" transform="rotate(90,4221.0,11003.0)" width="32" x="4205.0" y="10979.0" /><rect fill="#900" height="48" stroke="#900" stroke-width="5" transform="rotate(90,4629.0,10991.0)" width="32" x="4613.0" y="10967.0" /><rect fill="#900" height="48" stroke="#900" stroke-width="5" transform="rotate(90,4641.0,10655.0)" width="32" x="4625.0" y="10631.0" /><rect fill="#900" height="48" stroke="#900" stroke-width="5" transform="rotate(90,4161.0,10691.0)" width="32" x="4145.0" y="10667.0" /><rect fill="#900" height="48" stroke="#900" stroke-width="5" transform="rotate(90,4413.0,11223.0)" width="32" x="4397.0" y="11199.0" /><rect fill="#900" height="48" stroke="#900" stroke-width="5" transform="rotate(90,4413.0,10415.0)" width="32" x="4397.0" y="10391.0" /><rect fill="#900" height="48" stroke="#900" stroke-width="5" transform="rotate(90,2295.0,9921.0)" width="32" x="2279.0" y="9897.0" /><circle cx="10679.0" cy="5965.0" fill="#009" r="16" stroke="#009" stroke-width="5" /><circle cx="1702.0" cy="9894.0" fill="#009" r="16" stroke="#009" stroke-width="5" /><circle cx="4360.0" cy="8107.0" fill="#009" r="16" stroke="#009" stroke-width="5" /><circle cx="1315.0" cy="5272.0" fill="#009" r="16" stroke="#009" stroke-width="5" /><circle cx="8491.0" cy="11103.0" fill="#009" r="16" stroke="#009" stroke-width="5" /><rect fill="#900" height="48" stroke="#900" stroke-width="5" transform="rotate(90,6326.0,11670.0)" width="32" x="6310.0" y="11646.0" /><rect fill="#900" height="48" stroke="#900" stroke-width="5" transform="rotate(90,8794.0,7431.0)" width="32" x="8778.0" y="7407.0" /><rect fill="#900" height="48" stroke="#900" stroke-width="5" transform="rotate(90,3125.0,8869.0)" width="32" x="3109.0" y="8845.0" /><rect fill="#900" height="48" stroke="#900" stroke-width="5" transform="rotate(90,2098.0,7142.0)" width="32" x="2082.0" y="7118.0" /><rect fill="#900" height="48" stroke="#900" stroke-width="5" transform="rotate(90,8590.0,7881.0)" width="32" x="8574.0" y="7857.0" /><rect fill="#900" height="48" stroke="#900" stroke-width="5" transform="rotate(90,8915.0,6882.0)" width="32" x="8899.0" y="6858.0" /><rect fill="#900" height="48" stroke="#900" stroke-width="5" transform="rotate(90,8461.0,10165.0)" width="32" x="8445.0" y="10141.0" /><rect fill="#900" height="48" stroke="#900" stroke-width="5" transform="rotate(90,8876.0,10038.0)" width="32" x="8860.0" y="10014.0" /><rect fill="#900" height="48" stroke="#900" stroke-width="5" transform="rotate(90,8717.0,9941.0)" width="32" x="8701.0" y="9917.0" /><rect fill="#900" height="48" stroke="#900" stroke-width="5" transform="rotate(90,8477.0,9861.0)" width="32" x="8461.0" y="9837.0" /><rect fill="#900" height="48" stroke="#900" stroke-width="5" transform="rotate(90,8717.0,10229.0)" width="32" x="8701.0" y="10205.0" /><rect fill="#900" height="48" stroke="#900" stroke-width="5" transform="rotate(90,8573.0,10325.0)" width="32" x="8557.0" y="10301.0" /><rect fill="#900" height="48" stroke="#900" stroke-width="5" transform="rotate(90,8269.0,10245.0)" width="32" x="8253.0" y="10221.0" /><rect fill="#900" height="48" stroke="#900" stroke-width="5" transform="rotate(90,8301.0,9813.0)" width="32" x="8285.0" y="9789.0" /><rect fill="#900" height="48" stroke="#900" stroke-width="5" transform="rotate(90,8621.0,9669.0)" width="32" x="8605.0" y="9645.0" /><rect fill="#900" height="48" stroke="#900" stroke-width="5" transform="rotate(90,8861.0,9797.0)" width="32" x="8845.0" y="9773.0" /><rect fill="#900" height="48" stroke="#900" stroke-width="5" transform="rotate(90,9069.0,9973.0)" width="32" x="9053.0" y="9949.0" /><rect fill="#900" height="48" stroke="#900" stroke-width="5" transform="rotate(90,8925.0,10229.0)" width="32" x="8909.0" y="10205.0" /><rect fill="#900" height="48" stroke="#900" stroke-width="5" transform="rotate(90,8957.0,10421.0)" width="32" x="8941.0" y="10397.0" /><rect fill="#900" height="48" stroke="#900" stroke-width="5" transform="rotate(90,8589.0,10453.0)" width="32" x="8573.0" y="10429.0" /><rect fill="#900" height="48" stroke="#900" stroke-width="5" transform="rotate(90,8413.0,10389.0)" width="32" x="8397.0" y="10365.0" /><rect fill="#900" height="48" stroke="#900" stroke-width="5" transform="rotate(90,8157.0,10053.0)" width="32" x="8141.0" y="10029.0" /><rect fill="#900" height="48" stroke="#900" stroke-width="5" transform="rotate(90,8381.0,10021.0)" width="32" x="8365.0" y="9997.0" /><rect fill="#900" height="48" stroke="#900" stroke-width="5" transform="rotate(90,8733.0,10405.0)" width="32" x="8717.0" y="10381.0" /><rect fill="#900" height="48" stroke="#900" stroke-width="5" transform="rotate(90,9069.0,10165.0)" width="32" x="9053.0" y="10141.0" /><rect fill="#900" height="48" stroke="#900" stroke-width="5" transform="rotate(90,9149.0,9765.0)" width="32" x="9133.0" y="9741.0" /><rect fill="#900" height="48" stroke="#900" stroke-width="5" transform="rotate(90,8605.0,10117.0)" width="32" x="8589.0" y="10093.0" /><rect fill="#900" height="48" stroke="#900" stroke-width="5" transform="rotate(90,8783.0,10569.0)" width="32" x="8767.0" y="10545.0" /><rect fill="#900" height="48" stroke="#900" stroke-width="5" transform="rotate(90,8930.0,10597.0)" width="32" x="8914.0" y="10573.0" /><rect fill="#900" height="48" stroke="#900" stroke-width="5" transform="rotate(90,9063.0,10590.0)" width="32" x="9047.0" y="10566.0" /><rect fill="#900" height="48" stroke="#900" stroke-width="5" transform="rotate(90,9140.0,10485.0)" width="32" x="9124.0" y="10461.0" /><rect fill="#900" height="48" stroke="#900" stroke-width="5" transform="rotate(90,9210.0,10380.0)" width="32" x="9194.0" y="10356.0" /><rect fill="#900" height="48" stroke="#900" stroke-width="5" transform="rotate(90,8370.0,10541.0)" width="32" x="8354.0" y="10517.0" /><rect fill="#900" height="48" stroke="#900" stroke-width="5" transform="rotate(90,8239.0,10492.0)" width="32" x="8223.0" y="10468.0" /><rect fill="#900" height="48" stroke="#900" stroke-width="5" transform="rotate(90,8218.0,10380.0)" width="32" x="8202.0" y="10356.0" /><rect fill="#900" height="48" stroke="#900" stroke-width="5" transform="rotate(90,8099.0,10415.0)" width="32" x="8083.0" y="10391.0" /><rect fill="#900" height="48" stroke="#900" stroke-width="5" transform="rotate(90,8036.0,10233.0)" width="32" x="8020.0" y="10209.0" /></svg>