<?xml version="1.0" encoding="utf-8" ?>
<svg baseProfile="tiny" height="974" version="1.2" viewBox="0 0 1994 1898" width="1024" xmlns="http://www.w3.org/2000/svg" xmlns:ev="http://www.w3.org/2001/xml-events" xmlns:xlink="http://www.w3.org/1999/xlink"><defs /><line stroke="#333" stroke-width="10" x1="805.0" x2="805.0" y1="997.0" y2="869.0" /><line stroke="#333" stroke-width="10" x1="805.0" x2="837.0" y1="869.0" y2="869.0" /><line stroke="#999" stroke-width="3" x1="901.0" x2="901.0" y1="869.0" y2="741.0" /><line stroke="#333" stroke-width="10" x1="901.0" x2="869.0" y1="741.0" y2="741.0" /><line stroke="#333" stroke-width="10" x1="805.0" x2="677.0" y1="613.0" y2="613.0" /><line stroke="#333" stroke-width="10" x1="677.0" x2="677.0" y1="613.0" y2="581.0" /><line stroke="#333" stroke-width="10" x1="549.0" x2="549.0" y1="517.0" y2="549.0" /><line stroke="#333" stroke-width="10" x1="549.0" x2="37.0" y1="741.0" y2="741.0" /><line stroke="#333" stroke-width="10" x1="37.0" x2="37.0" y1="741.0" y2="869.0" /><line stroke="#333" stroke-width="10" x1="37.0" x2="549.0" y1="869.0" y2="869.0" /><line stroke="#333" stroke-width="10" x1="549.0" x2="549.0" y1="869.0" y2="997.0" /><line stroke="#333" stroke-width="10" x1="549.0" x2="549.0" y1="997.0" y2="1029.0" /><line stroke="#333" stroke-width="10" x1="549.0" x2="549.0" y1="1029.0" y2="1061.0" /><line stroke="#666" stroke-width="20" x1="549.0" x2="677.0" y1="1029.0" y2="1029.0" /><line stroke="#333" stroke-width="10" x1="677.0" x2="805.0" y1="997.0" y2="997.0" /><line stroke="#999" stroke-width="3" x1="549.0" x2="677.0" y1="997.0" y2="997.0" /><line stroke="#333" stroke-width="10" x1="837.0" x2="869.0" y1="869.0" y2="869.0" /><line stroke="#d00" stroke-width="20" x1="837.0" x2="837.0" y1="869.0" y2="741.0" /><line stroke="#333" stroke-width="10" x1="805.0" x2="805.0" y1="741.0" y2="613.0" /><line stroke="#999" stroke-width="3" x1="805.0" x2="805.0" y1="869.0" y2="741.0" /><line stroke="#333" stroke-width="10" x1="677.0" x2="677.0" y1="581.0" y2="549.0" /><line stroke="#666" stroke-width="20" x1="677.0" x2="549.0" y1="581.0" y2="581.0" /><line stroke="#333" stroke-width="10" x1="549.0" x2="549.0" y1="613.0" y2="741.0" /><line stroke="#999" stroke-width="3" x1="677.0" x2="549.0" y1="613.0" y2="613.0" /><line stroke="#333" stroke-width="10" x1="549.0" x2="549.0" y1="1061.0" y2="1063.0" /><line stroke="#333" stroke-width="10" x1="677.0" x2="677.0" y1="1061.0" y2="1029.0" /><line stroke="#666" stroke-width="20" x1="677.0" x2="549.0" y1="1061.0" y2="1061.0" /><line stroke="#333" stroke-width="10" x1="677.0" x2="677.0" y1="1029.0" y2="997.0" /><line stroke="#333" stroke-width="10" x1="869.0" x2="901.0" y1="869.0" y2="869.0" /><line stroke="#333" stroke-width="10" x1="869.0" x2="837.0" y1="741.0" y2="741.0" /><line stroke="#d00" stroke-width="20" x1="869.0" x2="869.0" y1="741.0" y2="869.0" /><line stroke="#333" stroke-width="10" x1="837.0" x2="805.0" y1="741.0" y2="741.0" /><line stroke="#333" stroke-width="10" x1="677.0" x2="677.0" y1="549.0" y2="517.0" /><line stroke="#333" stroke-width="10" x1="549.0" x2="549.0" y1="549.0" y2="581.0" /><line stroke="#666" stroke-width="20" x1="549.0" x2="677.0" y1="549.0" y2="549.0" /><line stroke="#333" stroke-width="10" x1="549.0" x2="549.0" y1="581.0" y2="613.0" /><line stroke="#999" stroke-width="3" x1="549.0" x2="677.0" y1="1093.0" y2="1093.0" /><line stroke="#333" stroke-width="10" x1="549.0" x2="357.0" y1="1093.0" y2="1093.0" /><line stroke="#333" stroke-width="10" x1="357.0" x2="357.0" y1="1093.0" y2="1157.0" /><line stroke="#333" stroke-width="10" x1="357.0" x2="229.0" y1="1157.0" y2="1157.0" /><line stroke="#333" stroke-width="10" x1="229.0" x2="229.0" y1="1157.0" y2="1317.0" /><line stroke="#333" stroke-width="10" x1="229.0" x2="133.0" y1="1317.0" y2="1317.0" /><line stroke="#999" stroke-width="3" x1="133.0" x2="133.0" y1="1317.0" y2="1573.0" /><line stroke="#333" stroke-width="10" x1="133.0" x2="229.0" y1="1573.0" y2="1573.0" /><line stroke="#333" stroke-width="10" x1="229.0" x2="229.0" y1="1573.0" y2="1765.0" /><line stroke="#333" stroke-width="10" x1="229.0" x2="421.0" y1="1765.0" y2="1765.0" /><line stroke="#333" stroke-width="10" x1="421.0" x2="421.0" y1="1765.0" y2="1701.0" /><line stroke="#333" stroke-width="10" x1="421.0" x2="549.0" y1="1701.0" y2="1701.0" /><line stroke="#333" stroke-width="10" x1="549.0" x2="549.0" y1="1701.0" y2="1893.0" /><line stroke="#333" stroke-width="10" x1="549.0" x2="1381.0" y1="1893.0" y2="1893.0" /><line stroke="#333" stroke-width="10" x1="1381.0" x2="1381.0" y1="1893.0" y2="1797.0" /><line stroke="#333" stroke-width="10" x1="1381.0" x2="645.0" y1="1797.0" y2="1797.0" /><line stroke="#333" stroke-width="10" x1="645.0" x2="645.0" y1="1797.0" y2="1765.0" /><line stroke="#333" stroke-width="10" x1="645.0" x2="1413.0" y1="1765.0" y2="1765.0" /><line stroke="#333" stroke-width="10" x1="1413.0" x2="1413.0" y1="1765.0" y2="1893.0" /><line stroke="#333" stroke-width="10" x1="1413.0" x2="1541.0" y1="1893.0" y2="1893.0" /><line stroke="#333" stroke-width="10" x1="1541.0" x2="1541.0" y1="1893.0" y2="1669.0" /><line stroke="#333" stroke-width="10" x1="1541.0" x2="1669.0" y1="1669.0" y2="1669.0" /><line stroke="#333" stroke-width="10" x1="1669.0" x2="1669.0" y1="1669.0" y2="1797.0" /><line stroke="#333" stroke-width="10" x1="1669.0" x2="1829.0" y1="1797.0" y2="1797.0" /><line stroke="#333" stroke-width="10" x1="1829.0" x2="1829.0" y1="1797.0" y2="1573.0" /><line stroke="#333" stroke-width="10" x1="1829.0" x2="1669.0" y1="1573.0" y2="1573.0" /><line stroke="#333" stroke-width="10" x1="1669.0" x2="1669.0" y1="1573.0" y2="1317.0" /><line stroke="#333" stroke-width="10" x1="1669.0" x2="1925.0" y1="1317.0" y2="1317.0" /><line stroke="#333" stroke-width="10" x1="1925.0" x2="1925.0" y1="1317.0" y2="1509.0" /><line stroke="#333" stroke-width="10" x1="1925.0" x2="1989.0" y1="1509.0" y2="1509.0" /><line stroke="#333" stroke-width="10" x1="1989.0" x2="1989.0" y1="1509.0" y2="1125.0" /><line stroke="#333" stroke-width="10" x1="1989.0" x2="1861.0" y1="1125.0" y2="1125.0" /><line stroke="#333" stroke-width="10" x1="1861.0" x2="1861.0" y1="1125.0" y2="1253.0" /><line stroke="#333" stroke-width="10" x1="1861.0" x2="1733.0" y1="1253.0" y2="1253.0" /><line stroke="#333" stroke-width="10" x1="1733.0" x2="1733.0" y1="1253.0" y2="1157.0" /><line stroke="#333" stroke-width="10" x1="1733.0" x2="1605.0" y1="1157.0" y2="1157.0" /><line stroke="#333" stroke-width="10" x1="1605.0" x2="1605.0" y1="1157.0" y2="1445.0" /><line stroke="#333" stroke-width="10" x1="1605.0" x2="1541.0" y1="1445.0" y2="1445.0" /><line stroke="#333" stroke-width="10" x1="1541.0" x2="1445.0" y1="1445.0" y2="1349.0" /><line stroke="#333" stroke-width="10" x1="1445.0" x2="1445.0" y1="1349.0" y2="1253.0" /><line stroke="#333" stroke-width="10" x1="1445.0" x2="1349.0" y1="1253.0" y2="1253.0" /><line stroke="#333" stroke-width="10" x1="1349.0" x2="1349.0" y1="1253.0" y2="1349.0" /><line stroke="#333" stroke-width="10" x1="1349.0" x2="1253.0" y1="1349.0" y2="1445.0" /><line stroke="#333" stroke-width="10" x1="1253.0" x2="1253.0" y1="1445.0" y2="1541.0" /><line stroke="#333" stroke-width="10" x1="1253.0" x2="1477.0" y1="1541.0" y2="1541.0" /><line stroke="#333" stroke-width="10" x1="1477.0" x2="1477.0" y1="1541.0" y2="1605.0" /><line stroke="#333" stroke-width="10" x1="1477.0" x2="1349.0" y1="1605.0" y2="1605.0" /><line stroke="#333" stroke-width="10" x1="1349.0" x2="1349.0" y1="1605.0" y2="1701.0" /><line stroke="#333" stroke-width="10" x1="1349.0" x2="1093.0" y1="1701.0" y2="1701.0" /><line stroke="#333" stroke-width="10" x1="1093.0" x2="1093.0" y1="1701.0" y2="1413.0" /><line stroke="#333" stroke-width="10" x1="1093.0" x2="1189.0" y1="1413.0" y2="1413.0" /><line stroke="#333" stroke-width="10" x1="1189.0" x2="1189.0" y1="1413.0" y2="1093.0" /><line stroke="#333" stroke-width="10" x1="1189.0" x2="965.0" y1="1093.0" y2="1093.0" /><line stroke="#333" stroke-width="10" x1="965.0" x2="965.0" y1="1093.0" y2="1701.0" /><line stroke="#333" stroke-width="10" x1="965.0" x2="901.0" y1="1701.0" y2="1701.0" /><line stroke="#333" stroke-width="10" x1="901.0" x2="901.0" y1="1701.0" y2="1605.0" /><line stroke="#333" stroke-width="10" x1="901.0" x2="837.0" y1="1605.0" y2="1605.0" /><line stroke="#333" stroke-width="10" x1="837.0" x2="837.0" y1="1605.0" y2="1701.0" /><line stroke="#333" stroke-width="10" x1="837.0" x2="773.0" y1="1701.0" y2="1701.0" /><line stroke="#333" stroke-width="10" x1="773.0" x2="773.0" y1="1701.0" y2="1605.0" /><line stroke="#333" stroke-width="10" x1="773.0" x2="709.0" y1="1605.0" y2="1605.0" /><line stroke="#333" stroke-width="10" x1="709.0" x2="709.0" y1="1605.0" y2="1701.0" /><line stroke="#333" stroke-width="10" x1="709.0" x2="645.0" y1="1701.0" y2="1701.0" /><line stroke="#333" stroke-width="10" x1="645.0" x2="645.0" y1="1701.0" y2="1509.0" /><line stroke="#333" stroke-width="10" x1="645.0" x2="869.0" y1="1509.0" y2="1509.0" /><line stroke="#333" stroke-width="10" x1="869.0" x2="869.0" y1="1509.0" y2="1413.0" /><line stroke="#333" stroke-width="10" x1="869.0" x2="741.0" y1="1413.0" y2="1413.0" /><line stroke="#333" stroke-width="10" x1="741.0" x2="741.0" y1="1413.0" y2="1317.0" /><line stroke="#333" stroke-width="10" x1="741.0" x2="869.0" y1="1317.0" y2="1317.0" /><line stroke="#333" stroke-width="10" x1="869.0" x2="869.0" y1="1317.0" y2="1221.0" /><line stroke="#333" stroke-width="10" x1="869.0" x2="549.0" y1="1221.0" y2="1221.0" /><line stroke="#333" stroke-width="10" x1="549.0" x2="549.0" y1="1221.0" y2="1605.0" /><line stroke="#333" stroke-width="10" x1="549.0" x2="357.0" y1="1605.0" y2="1605.0" /><line stroke="#333" stroke-width="10" x1="357.0" x2="357.0" y1="1605.0" y2="1701.0" /><line stroke="#333" stroke-width="10" x1="357.0" x2="293.0" y1="1701.0" y2="1701.0" /><line stroke="#333" stroke-width="10" x1="293.0" x2="293.0" y1="1701.0" y2="1509.0" /><line stroke="#333" stroke-width="10" x1="293.0" x2="229.0" y1="1509.0" y2="1509.0" /><line stroke="#333" stroke-width="10" x1="229.0" x2="229.0" y1="1509.0" y2="1445.0" /><line stroke="#333" stroke-width="10" x1="229.0" x2="389.0" y1="1445.0" y2="1445.0" /><line stroke="#333" stroke-width="10" x1="389.0" x2="389.0" y1="1445.0" y2="1541.0" /><line stroke="#333" stroke-width="10" x1="389.0" x2="453.0" y1="1541.0" y2="1541.0" /><line stroke="#333" stroke-width="10" x1="453.0" x2="453.0" y1="1541.0" y2="1381.0" /><line stroke="#333" stroke-width="10" x1="453.0" x2="293.0" y1="1381.0" y2="1381.0" /><line stroke="#333" stroke-width="10" x1="293.0" x2="293.0" y1="1381.0" y2="1221.0" /><line stroke="#333" stroke-width="10" x1="293.0" x2="453.0" y1="1221.0" y2="1221.0" /><line stroke="#333" stroke-width="10" x1="453.0" x2="453.0" y1="1221.0" y2="1157.0" /><line stroke="#333" stroke-width="10" x1="453.0" x2="677.0" y1="1157.0" y2="1157.0" /><line stroke="#333" stroke-width="10" x1="677.0" x2="677.0" y1="1093.0" y2="1063.0" /><line stroke="#333" stroke-width="10" x1="677.0" x2="677.0" y1="1157.0" y2="1093.0" /><line stroke="#333" stroke-width="10" x1="677.0" x2="1189.0" y1="517.0" y2="517.0" /><line stroke="#333" stroke-width="10" x1="1189.0" x2="1189.0" y1="517.0" y2="5.0" /><line stroke="#333" stroke-width="10" x1="1189.0" x2="629.0" y1="5.0" y2="5.0" /><line stroke="#333" stroke-width="10" x1="37.0" x2="37.0" y1="5.0" y2="517.0" /><line stroke="#999" stroke-width="3" x1="549.0" x2="677.0" y1="517.0" y2="517.0" /><line stroke="#333" stroke-width="10" x1="37.0" x2="549.0" y1="517.0" y2="517.0" /><line stroke="#999" stroke-width="3" x1="805.0" x2="421.0" y1="357.0" y2="357.0" /><line stroke="#999" stroke-width="3" x1="805.0" x2="805.0" y1="229.0" y2="357.0" /><line stroke="#999" stroke-width="3" x1="421.0" x2="805.0" y1="229.0" y2="229.0" /><line stroke="#999" stroke-width="3" x1="421.0" x2="421.0" y1="357.0" y2="229.0" /><line stroke="#333" stroke-width="10" x1="133.0" x2="117.0" y1="1317.0" y2="1317.0" /><line stroke="#333" stroke-width="10" x1="69.0" x2="69.0" y1="1317.0" y2="1381.0" /><line stroke="#333" stroke-width="10" x1="69.0" x2="117.0" y1="1573.0" y2="1573.0" /><line stroke="#333" stroke-width="10" x1="117.0" x2="69.0" y1="1317.0" y2="1317.0" /><line stroke="#333" stroke-width="10" x1="117.0" x2="133.0" y1="1573.0" y2="1573.0" /><line stroke="#999" stroke-width="3" x1="117.0" x2="117.0" y1="1573.0" y2="1317.0" /><line stroke="#999" stroke-width="3" x1="325.0" x2="325.0" y1="1749.0" y2="1717.0" /><line stroke="#333" stroke-width="10" x1="901.0" x2="933.0" y1="869.0" y2="869.0" /><line stroke="#333" stroke-width="10" x1="933.0" x2="901.0" y1="741.0" y2="741.0" /><line stroke="#333" stroke-width="10" x1="933.0" x2="965.0" y1="869.0" y2="869.0" /><line stroke="#999" stroke-width="3" x1="933.0" x2="933.0" y1="869.0" y2="741.0" /><line stroke="#333" stroke-width="10" x1="965.0" x2="933.0" y1="741.0" y2="741.0" /><line stroke="#333" stroke-width="10" x1="965.0" x2="997.0" y1="869.0" y2="869.0" /><line stroke="#999" stroke-width="3" x1="965.0" x2="965.0" y1="869.0" y2="741.0" /><line stroke="#333" stroke-width="10" x1="997.0" x2="965.0" y1="741.0" y2="741.0" /><line stroke="#333" stroke-width="10" x1="997.0" x2="1029.0" y1="869.0" y2="869.0" /><line stroke="#999" stroke-width="3" x1="997.0" x2="997.0" y1="869.0" y2="741.0" /><line stroke="#333" stroke-width="10" x1="1029.0" x2="997.0" y1="741.0" y2="741.0" /><line stroke="#333" stroke-width="10" x1="1029.0" x2="1061.0" y1="869.0" y2="869.0" /><line stroke="#999" stroke-width="3" x1="1029.0" x2="1029.0" y1="869.0" y2="741.0" /><line stroke="#333" stroke-width="10" x1="1061.0" x2="1029.0" y1="741.0" y2="741.0" /><line stroke="#333" stroke-width="10" x1="1061.0" x2="1093.0" y1="869.0" y2="869.0" /><line stroke="#999" stroke-width="3" x1="1061.0" x2="1061.0" y1="869.0" y2="741.0" /><line stroke="#333" stroke-width="10" x1="1093.0" x2="1061.0" y1="741.0" y2="741.0" /><line stroke="#333" stroke-width="10" x1="1093.0" x2="1125.0" y1="869.0" y2="869.0" /><line stroke="#999" stroke-width="3" x1="1093.0" x2="1093.0" y1="869.0" y2="741.0" /><line stroke="#333" stroke-width="10" x1="1125.0" x2="1093.0" y1="741.0" y2="741.0" /><line stroke="#333" stroke-width="10" x1="1125.0" x2="1157.0" y1="869.0" y2="869.0" /><line stroke="#999" stroke-width="3" x1="1125.0" x2="1125.0" y1="869.0" y2="741.0" /><line stroke="#333" stroke-width="10" x1="1157.0" x2="1125.0" y1="741.0" y2="741.0" /><line stroke="#333" stroke-width="10" x1="1157.0" x2="1189.0" y1="869.0" y2="869.0" /><line stroke="#999" stroke-width="3" x1="1157.0" x2="1157.0" y1="869.0" y2="741.0" /><line stroke="#333" stroke-width="10" x1="1189.0" x2="1157.0" y1="741.0" y2="741.0" /><line stroke="#333" stroke-width="10" x1="1189.0" x2="1221.0" y1="869.0" y2="869.0" /><line stroke="#999" stroke-width="3" x1="1189.0" x2="1189.0" y1="869.0" y2="741.0" /><line stroke="#999" stroke-width="3" x1="1221.0" x2="1221.0" y1="869.0" y2="741.0" /><line stroke="#333" stroke-width="10" x1="1221.0" x2="1189.0" y1="741.0" y2="741.0" /><line stroke="#333" stroke-width="10" x1="1221.0" x2="1221.0" y1="869.0" y2="997.0" /><line stroke="#333" stroke-width="10" x1="1221.0" x2="1349.0" y1="997.0" y2="997.0" /><line stroke="#333" stroke-width="10" x1="1573.0" x2="1573.0" y1="997.0" y2="949.0" /><line stroke="#333" stroke-width="10" x1="1573.0" x2="1445.0" y1="613.0" y2="613.0" /><line stroke="#333" stroke-width="10" x1="1221.0" x2="1221.0" y1="613.0" y2="741.0" /><line stroke="#333" stroke-width="10" x1="1573.0" x2="1573.0" y1="773.0" y2="741.0" /><line stroke="#0d0" stroke-width="20" x1="1599.0" x2="1599.0" y1="821.0" y2="789.0" /><line stroke="#999" stroke-width="3" x1="1573.0" x2="1573.0" y1="949.0" y2="869.0" /><line stroke="#333" stroke-width="10" x1="1573.0" x2="1589.0" y1="949.0" y2="949.0" /><line stroke="#333" stroke-width="10" x1="1637.0" x2="1637.0" y1="949.0" y2="869.0" /><line stroke="#333" stroke-width="10" x1="1637.0" x2="1589.0" y1="869.0" y2="869.0" /><line stroke="#333" stroke-width="10" x1="1589.0" x2="1637.0" y1="949.0" y2="949.0" /><line stroke="#333" stroke-width="10" x1="1589.0" x2="1573.0" y1="869.0" y2="869.0" /><line stroke="#999" stroke-width="3" x1="1589.0" x2="1589.0" y1="869.0" y2="949.0" /><line stroke="#333" stroke-width="10" x1="1573.0" x2="1573.0" y1="869.0" y2="837.0" /><line stroke="#999" stroke-width="3" x1="1449.0" x2="1449.0" y1="837.0" y2="773.0" /><line stroke="#999" stroke-width="3" x1="1569.0" x2="1449.0" y1="869.0" y2="837.0" /><line stroke="#999" stroke-width="3" x1="1449.0" x2="1569.0" y1="773.0" y2="741.0" /><line stroke="#999" stroke-width="3" x1="1445.0" x2="1349.0" y1="613.0" y2="613.0" /><line stroke="#333" stroke-width="10" x1="1445.0" x2="1445.0" y1="613.0" y2="565.0" /><line stroke="#333" stroke-width="10" x1="1445.0" x2="1677.0" y1="565.0" y2="565.0" /><line stroke="#333" stroke-width="10" x1="1677.0" x2="1677.0" y1="565.0" y2="1045.0" /><line stroke="#333" stroke-width="10" x1="1677.0" x2="1445.0" y1="1045.0" y2="1045.0" /><line stroke="#333" stroke-width="10" x1="1445.0" x2="1573.0" y1="997.0" y2="997.0" /><line stroke="#333" stroke-width="10" x1="1445.0" x2="1445.0" y1="1045.0" y2="997.0" /><line stroke="#999" stroke-width="3" x1="1349.0" x2="1445.0" y1="997.0" y2="997.0" /><line stroke="#333" stroke-width="10" x1="1349.0" x2="1349.0" y1="997.0" y2="1125.0" /><line stroke="#333" stroke-width="10" x1="1349.0" x2="1765.0" y1="1125.0" y2="1125.0" /><line stroke="#333" stroke-width="10" x1="1765.0" x2="1765.0" y1="1125.0" y2="933.0" /><line stroke="#333" stroke-width="10" x1="1765.0" x2="1349.0" y1="485.0" y2="485.0" /><line stroke="#333" stroke-width="10" x1="1349.0" x2="1221.0" y1="613.0" y2="613.0" /><line stroke="#333" stroke-width="10" x1="1349.0" x2="1349.0" y1="485.0" y2="613.0" /><line stroke="#333" stroke-width="10" x1="1573.0" x2="1617.0" y1="837.0" y2="825.0" /><line stroke="#333" stroke-width="10" x1="1617.0" x2="1573.0" y1="785.0" y2="773.0" /><line stroke="#999" stroke-width="3" x1="1157.0" x2="1109.0" y1="1869.0" y2="1869.0" /><line stroke="#999" stroke-width="3" x1="1157.0" x2="1157.0" y1="1821.0" y2="1869.0" /><line stroke="#999" stroke-width="3" x1="1109.0" x2="1157.0" y1="1821.0" y2="1821.0" /><line stroke="#999" stroke-width="3" x1="1109.0" x2="1109.0" y1="1869.0" y2="1821.0" /><line stroke="#999" stroke-width="3" x1="773.0" x2="773.0" y1="1877.0" y2="1813.0" /><line stroke="#999" stroke-width="3" x1="1051.0" x2="987.0" y1="1270.0" y2="1270.0" /><line stroke="#999" stroke-width="3" x1="1051.0" x2="1051.0" y1="1206.0" y2="1270.0" /><line stroke="#999" stroke-width="3" x1="987.0" x2="1051.0" y1="1206.0" y2="1206.0" /><line stroke="#999" stroke-width="3" x1="987.0" x2="987.0" y1="1270.0" y2="1206.0" /><line stroke="#999" stroke-width="3" x1="1085.0" x2="973.0" y1="1397.0" y2="1397.0" /><line stroke="#999" stroke-width="3" x1="1981.0" x2="1933.0" y1="1453.0" y2="1453.0" /><line stroke="#999" stroke-width="3" x1="1981.0" x2="1981.0" y1="1445.0" y2="1453.0" /><line stroke="#999" stroke-width="3" x1="1933.0" x2="1981.0" y1="1445.0" y2="1445.0" /><line stroke="#999" stroke-width="3" x1="1933.0" x2="1933.0" y1="1453.0" y2="1445.0" /><line stroke="#333" stroke-width="10" x1="629.0" x2="597.0" y1="5.0" y2="5.0" /><line stroke="#333" stroke-width="10" x1="597.0" x2="37.0" y1="5.0" y2="5.0" /><line stroke="#999" stroke-width="3" x1="597.0" x2="597.0" y1="21.0" y2="13.0" /><line stroke="#999" stroke-width="3" x1="629.0" x2="597.0" y1="21.0" y2="21.0" /><line stroke="#999" stroke-width="3" x1="629.0" x2="629.0" y1="13.0" y2="21.0" /><line stroke="#999" stroke-width="3" x1="597.0" x2="629.0" y1="13.0" y2="13.0" /><line stroke="#333" stroke-width="10" x1="549.0" x2="549.0" y1="1063.0" y2="1093.0" /><line stroke="#333" stroke-width="10" x1="677.0" x2="677.0" y1="1063.0" y2="1061.0" /><line stroke="#999" stroke-width="3" x1="549.0" x2="677.0" y1="1063.0" y2="1063.0" /><line stroke="#999" stroke-width="3" x1="1573.0" x2="1573.0" y1="741.0" y2="661.0" /><line stroke="#333" stroke-width="10" x1="1573.0" x2="1589.0" y1="741.0" y2="741.0" /><line stroke="#333" stroke-width="10" x1="1637.0" x2="1637.0" y1="741.0" y2="661.0" /><line stroke="#333" stroke-width="10" x1="1573.0" x2="1573.0" y1="661.0" y2="613.0" /><line stroke="#333" stroke-width="10" x1="1637.0" x2="1589.0" y1="661.0" y2="661.0" /><line stroke="#999" stroke-width="3" x1="1765.0" x2="1765.0" y1="933.0" y2="677.0" /><line stroke="#333" stroke-width="10" x1="1765.0" x2="1781.0" y1="933.0" y2="933.0" /><line stroke="#333" stroke-width="10" x1="1909.0" x2="1909.0" y1="933.0" y2="677.0" /><line stroke="#333" stroke-width="10" x1="1765.0" x2="1765.0" y1="677.0" y2="485.0" /><line stroke="#333" stroke-width="10" x1="1909.0" x2="1781.0" y1="677.0" y2="677.0" /><line stroke="#333" stroke-width="10" x1="1589.0" x2="1573.0" y1="661.0" y2="661.0" /><line stroke="#333" stroke-width="10" x1="1589.0" x2="1637.0" y1="741.0" y2="741.0" /><line stroke="#999" stroke-width="3" x1="1589.0" x2="1589.0" y1="661.0" y2="741.0" /><line stroke="#333" stroke-width="10" x1="1781.0" x2="1765.0" y1="677.0" y2="677.0" /><line stroke="#333" stroke-width="10" x1="1781.0" x2="1909.0" y1="933.0" y2="933.0" /><line stroke="#999" stroke-width="3" x1="1781.0" x2="1781.0" y1="933.0" y2="677.0" /><line stroke="#333" stroke-width="10" x1="1617.0" x2="1621.0" y1="825.0" y2="821.0" /><line stroke="#333" stroke-width="10" x1="1621.0" x2="1623.0" y1="821.0" y2="817.0" /><line stroke="#333" stroke-width="10" x1="1623.0" x2="1625.0" y1="817.0" y2="813.0" /><line stroke="#333" stroke-width="10" x1="1625.0" x2="1627.0" y1="813.0" y2="809.0" /><line stroke="#333" stroke-width="10" x1="1627.0" x2="1628.0" y1="809.0" y2="805.0" /><line stroke="#333" stroke-width="10" x1="1628.0" x2="1627.0" y1="805.0" y2="801.0" /><line stroke="#333" stroke-width="10" x1="1627.0" x2="1625.0" y1="801.0" y2="797.0" /><line stroke="#333" stroke-width="10" x1="1625.0" x2="1623.0" y1="797.0" y2="793.0" /><line stroke="#333" stroke-width="10" x1="1623.0" x2="1621.0" y1="793.0" y2="789.0" /><line stroke="#333" stroke-width="10" x1="1621.0" x2="1617.0" y1="789.0" y2="785.0" /><line stroke="#999" stroke-width="3" x1="69.0" x2="69.0" y1="1381.0" y2="1509.0" /><line stroke="#333" stroke-width="10" x1="69.0" x2="61.0" y1="1381.0" y2="1381.0" /><line stroke="#333" stroke-width="10" x1="5.0" x2="5.0" y1="1381.0" y2="1509.0" /><line stroke="#333" stroke-width="10" x1="69.0" x2="69.0" y1="1509.0" y2="1573.0" /><line stroke="#333" stroke-width="10" x1="5.0" x2="61.0" y1="1509.0" y2="1509.0" /><line stroke="#333" stroke-width="10" x1="61.0" x2="5.0" y1="1381.0" y2="1381.0" /><line stroke="#333" stroke-width="10" x1="61.0" x2="69.0" y1="1509.0" y2="1509.0" /><line stroke="#999" stroke-width="3" x1="61.0" x2="61.0" y1="1509.0" y2="1381.0" /><line stroke="#999" stroke-width="3" x1="1573.0" x2="1573.0" y1="837.0" y2="773.0" /><ellipse cx="53.0" cy="797.0" fill="#009" rx="12" ry="24" stroke="#009" stroke-width="5" /><circle cx="549.0" cy="805.0" fill="#009" r="16" stroke="#009" stroke-width="5" /><rect fill="#900" height="48" stroke="#900" stroke-width="5" transform="rotate(270,581.0,933.0)" width="32" x="565.0" y="909.0" /><rect fill="#900" height="48" stroke="#900" stroke-width="5" transform="rotate(225,773.0,933.0)" width="32" x="757.0" y="909.0" /><rect fill="#900" height="48" stroke="#900" stroke-width="5" transform="rotate(90,581.0,677.0)" width="32" x="565.0" y="653.0" /><rect fill="#900" height="48" stroke="#900" stroke-width="5" transform="rotate(180,773.0,805.0)" width="32" x="757.0" y="781.0" /><rect fill="#900" height="48" stroke="#900" stroke-width="5" transform="rotate(180,1135.0,1843.0)" width="32" x="1119.0" y="1819.0" /><rect fill="#900" height="48" stroke="#900" stroke-width="5" transform="rotate(90,1019.0,1238.0)" width="32" x="1003.0" y="1214.0" /><rect fill="#900" height="48" stroke="#900" stroke-width="5" transform="rotate(225,1954.0,1327.0)" width="32" x="1938.0" y="1303.0" /><rect fill="#900" height="48" stroke="#900" stroke-width="5" transform="rotate(225,1749.0,1684.0)" width="32" x="1733.0" y="1660.0" /><circle cx="869.0" cy="1637.0" fill="#009" r="16" stroke="#009" stroke-width="5" /><circle cx="1149.0" cy="1133.0" fill="#009" r="16" stroke="#009" stroke-width="5" /><rect fill="#900" height="48" stroke="#900" stroke-width="5" transform="rotate(225,415.0,1452.0)" width="32" x="399.0" y="1428.0" /><rect fill="#900" height="48" stroke="#900" stroke-width="5" transform="rotate(225,240.0,1535.0)" width="32" x="224.0" y="1511.0" /><rect fill="#900" height="48" stroke="#900" stroke-width="5" transform="rotate(135,1119.0,1375.0)" width="32" x="1103.0" y="1351.0" /><rect fill="#900" height="48" stroke="#900" stroke-width="5" transform="rotate(315,434.0,1169.0)" width="32" x="418.0" y="1145.0" /><rect fill="#900" height="48" stroke="#900" stroke-width="5" transform="rotate(315,218.0,1348.0)" width="32" x="202.0" y="1324.0" /><rect fill="#900" height="48" stroke="#900" stroke-width="5" transform="rotate(135,378.0,1692.0)" width="32" x="362.0" y="1668.0" /><rect fill="#900" height="48" stroke="#900" stroke-width="5" transform="rotate(135,656.0,1487.0)" width="32" x="640.0" y="1463.0" /><rect fill="#900" height="48" stroke="#900" stroke-width="5" transform="rotate(90,661.0,1245.0)" width="32" x="645.0" y="1221.0" /><rect fill="#900" height="48" stroke="#900" stroke-width="5" transform="rotate(135,763.0,1282.0)" width="32" x="747.0" y="1258.0" /><rect fill="#900" height="48" stroke="#900" stroke-width="5" transform="rotate(90,1405.0,1285.0)" width="32" x="1389.0" y="1261.0" /><rect fill="#900" height="48" stroke="#900" stroke-width="5" transform="rotate(135,1678.0,1292.0)" width="32" x="1662.0" y="1268.0" /><rect fill="#900" height="48" stroke="#900" stroke-width="5" transform="rotate(135,1888.0,1245.0)" width="32" x="1872.0" y="1221.0" /><rect fill="#900" height="48" stroke="#900" stroke-width="5" transform="rotate(135,1957.0,1165.0)" width="32" x="1941.0" y="1141.0" /><rect fill="#900" height="48" stroke="#900" stroke-width="5" transform="rotate(225,1441.0,1776.0)" width="32" x="1425.0" y="1752.0" /><rect fill="#900" height="48" stroke="#900" stroke-width="5" transform="rotate(225,573.0,1708.0)" width="32" x="557.0" y="1684.0" /><circle cx="981.0" cy="1845.0" fill="#009" r="16" stroke="#009" stroke-width="5" /><rect fill="#900" height="48" stroke="#900" stroke-width="5" transform="rotate(135,1373.0,1692.0)" width="32" x="1357.0" y="1668.0" /><rect fill="#900" height="48" stroke="#900" stroke-width="5" transform="rotate(0,259.0,1187.0)" width="32" x="243.0" y="1163.0" /><rect fill="#900" height="48" stroke="#900" stroke-width="5" transform="rotate(135,988.0,1694.0)" width="32" x="972.0" y="1670.0" /><rect fill="#900" height="48" stroke="#900" stroke-width="5" transform="rotate(90,1027.0,1560.0)" width="32" x="1011.0" y="1536.0" /><rect fill="#900" height="48" stroke="#900" stroke-width="5" transform="rotate(45,1456.0,1504.0)" width="32" x="1440.0" y="1480.0" /><rect fill="#090" height="24" stroke="#090" stroke-width="5" transform="rotate(135,1581.0,1557.0)" width="24" x="1569.0" y="1545.0" /><ellipse cx="1957.0" cy="1485.0" fill="#090" rx="12" ry="24" stroke="#090" stroke-width="5" /><rect fill="#900" height="48" stroke="#900" stroke-width="5" transform="rotate(90,473.0,329.0)" width="32" x="457.0" y="305.0" /><rect fill="#900" height="48" stroke="#900" stroke-width="5" transform="rotate(90,769.0,325.0)" width="32" x="753.0" y="301.0" /><rect fill="#090" height="24" stroke="#090" stroke-width="5" transform="rotate(90,165.0,69.0)" width="24" x="153.0" y="57.0" /><rect fill="#090" height="24" stroke="#090" stroke-width="5" transform="rotate(180,1085.0,437.0)" width="24" x="1073.0" y="425.0" /><rect fill="#900" height="48" stroke="#900" stroke-width="5" transform="rotate(90,1098.0,97.0)" width="32" x="1082.0" y="73.0" /><rect fill="#900" height="48" stroke="#900" stroke-width="5" transform="rotate(0,133.0,453.0)" width="32" x="117.0" y="429.0" /><rect fill="#900" height="48" stroke="#900" stroke-width="5" transform="rotate(90,622.0,65.0)" width="32" x="606.0" y="41.0" /><rect fill="#900" height="48" stroke="#900" stroke-width="5" transform="rotate(90,997.0,69.0)" width="32" x="981.0" y="45.0" /><rect fill="#900" height="48" stroke="#900" stroke-width="5" transform="rotate(180,1093.0,261.0)" width="32" x="1077.0" y="237.0" /><circle cx="1169.0" cy="25.0" fill="#009" r="16" stroke="#009" stroke-width="5" /><circle cx="57.0" cy="497.0" fill="#009" r="16" stroke="#009" stroke-width="5" /><circle cx="645.0" cy="805.0" fill="#009" r="16" stroke="#009" stroke-width="5" /><rect fill="#900" height="48" stroke="#900" stroke-width="5" transform="rotate(0,97.0,1349.0)" width="32" x="81.0" y="1325.0" /><rect fill="#900" height="48" stroke="#900" stroke-width="5" transform="rotate(0,93.0,1438.0)" width="32" x="77.0" y="1414.0" /><rect fill="#900" height="48" stroke="#900" stroke-width="5" transform="rotate(0,97.0,1537.0)" width="32" x="81.0" y="1513.0" /><rect fill="#090" height="24" stroke="#090" stroke-width="5" transform="rotate(270,1417.0,1091.0)" width="24" x="1405.0" y="1079.0" /><rect fill="#900" height="48" stroke="#900" stroke-width="5" transform="rotate(0,1673.0,1085.0)" width="32" x="1657.0" y="1061.0" /><rect fill="#900" height="48" stroke="#900" stroke-width="5" transform="rotate(225,1737.0,577.0)" width="32" x="1721.0" y="553.0" /><rect fill="#900" height="48" stroke="#900" stroke-width="5" transform="rotate(90,537.0,273.0)" width="32" x="521.0" y="249.0" /><rect fill="#900" height="48" stroke="#900" stroke-width="5" transform="rotate(90,705.0,269.0)" width="32" x="689.0" y="245.0" /><rect fill="#900" height="48" stroke="#900" stroke-width="5" transform="rotate(90,621.0,301.0)" width="32" x="605.0" y="277.0" /><circle cx="1841.0" cy="701.0" fill="#090" r="16" stroke="#090" stroke-width="5" /><circle cx="1809.0" cy="1777.0" fill="#009" r="16" stroke="#009" stroke-width="5" /><rect fill="#900" height="48" stroke="#900" stroke-width="5" transform="rotate(90,613.0,1421.0)" width="32" x="597.0" y="1397.0" /><rect fill="#900" height="48" stroke="#900" stroke-width="5" transform="rotate(90,773.0,261.0)" width="32" x="757.0" y="237.0" /><rect fill="#900" height="48" stroke="#900" stroke-width="5" transform="rotate(90,469.0,261.0)" width="32" x="453.0" y="237.0" /><rect fill="#900" height="48" stroke="#900" stroke-width="5" transform="rotate(135,730.0,1690.0)" width="32" x="714.0" y="1666.0" /><rect fill="#900" height="48" stroke="#900" stroke-width="5" transform="rotate(0,134.0,258.0)" width="32" x="118.0" y="234.0" /><circle cx="1837.0" cy="910.0" fill="#090" r="16" stroke="#090" stroke-width="5" /><rect fill="#900" height="48" stroke="#900" stroke-width="5" transform="rotate(180,1613.0,703.0)" width="32" x="1597.0" y="679.0" /><rect fill="#900" height="48" stroke="#900" stroke-width="5" transform="rotate(180,1821.0,837.0)" width="32" x="1805.0" y="813.0" /><rect fill="#900" height="48" stroke="#900" stroke-width="5" transform="rotate(180,1821.0,773.0)" width="32" x="1805.0" y="749.0" /><rect fill="#900" height="48" stroke="#900" stroke-width="5" transform="rotate(180,1885.0,899.0)" width="32" x="1869.0" y="875.0" /><rect fill="#900" height="48" stroke="#900" stroke-width="5" transform="rotate(180,1885.0,709.0)" width="32" x="1869.0" y="685.0" /><rect fill="#900" height="48" stroke="#900" stroke-width="5" transform="rotate(135,773.0,677.0)" width="32" x="757.0" y="653.0" /><rect fill="#090" height="24" stroke="#090" stroke-width="5" transform="rotate(90,1413.0,517.0)" width="24" x="1401.0" y="505.0" /><circle cx="1891.0" cy="913.0" fill="#009" r="16" stroke="#009" stroke-width="5" /><circle cx="1613.0" cy="911.0" fill="#009" r="16" stroke="#009" stroke-width="5" /><rect fill="#900" height="48" stroke="#900" stroke-width="5" transform="rotate(180,1613.0,701.0)" width="32" x="1597.0" y="677.0" /><rect fill="#900" height="48" stroke="#900" stroke-width="5" transform="rotate(180,1133.0,1845.0)" width="32" x="1117.0" y="1821.0" /><rect fill="#900" height="48" stroke="#900" stroke-width="5" transform="rotate(90,1023.0,1247.0)" width="32" x="1007.0" y="1223.0" /><rect fill="#900" height="48" stroke="#900" stroke-width="5" transform="rotate(225,1751.0,1685.0)" width="32" x="1735.0" y="1661.0" /><rect fill="#900" height="48" stroke="#900" stroke-width="5" transform="rotate(270,1955.0,1383.0)" width="32" x="1939.0" y="1359.0" /><ellipse cx="53.0" cy="757.0" fill="#009" rx="12" ry="24" stroke="#009" stroke-width="5" /><rect fill="#900" height="48" stroke="#900" stroke-width="5" transform="rotate(180,773.0,813.0)" width="32" x="757.0" y="789.0" /><ellipse cx="53.0" cy="837.0" fill="#009" rx="12" ry="24" stroke="#009" stroke-width="5" /><ellipse cx="125.0" cy="845.0" fill="#009" rx="12" ry="24" stroke="#009" stroke-width="5" /><rect fill="#900" height="48" stroke="#900" stroke-width="5" transform="rotate(270,1405.0,1093.0)" width="32" x="1389.0" y="1069.0" /><rect fill="#090" height="24" stroke="#090" stroke-width="5" transform="rotate(0,129.0,765.0)" width="24" x="117.0" y="753.0" /><rect fill="#090" height="24" stroke="#090" stroke-width="5" transform="rotate(90,1249.0,649.0)" width="24" x="1237.0" y="637.0" /><rect fill="#090" height="24" stroke="#090" stroke-width="5" transform="rotate(90,1633.0,1185.0)" width="24" x="1621.0" y="1173.0" /><rect fill="#090" height="24" stroke="#090" stroke-width="5" transform="rotate(90,781.0,41.0)" width="24" x="769.0" y="29.0" /><circle cx="837.0" cy="45.0" fill="#009" r="16" stroke="#009" stroke-width="5" /><circle cx="205.0" cy="769.0" fill="#009" r="16" stroke="#009" stroke-width="5" /><circle cx="1249.0" cy="697.0" fill="#009" r="16" stroke="#009" stroke-width="5" /><circle cx="1633.0" cy="1237.0" fill="#009" r="16" stroke="#009" stroke-width="5" /><circle cx="29.0" cy="1489.0" fill="#009" r="16" stroke="#009" stroke-width="5" /><circle cx="29.0" cy="1401.0" fill="#009" r="16" stroke="#009" stroke-width="5" /><circle cx="29.0" cy="1445.0" fill="#009" r="16" stroke="#009" stroke-width="5" /><rect fill="#900" height="48" stroke="#900" stroke-width="5" transform="rotate(0,33.0,1445.0)" width="32" x="17.0" y="1421.0" /><rect fill="#900" height="48" stroke="#900" stroke-width="5" transform="rotate(180,1613.0,909.0)" width="32" x="1597.0" y="885.0" /><circle cx="1889.0" cy="701.0" fill="#009" r="16" stroke="#009" stroke-width="5" /><circle cx="1893.0" cy="873.0" fill="#009" r="16" stroke="#009" stroke-width="5" /><circle cx="1893.0" cy="841.0" fill="#009" r="16" stroke="#009" stroke-width="5" /><circle cx="1893.0" cy="809.0" fill="#009" r="16" stroke="#009" stroke-width="5" /><circle cx="1893.0" cy="777.0" fill="#009" r="16" stroke="#009" stroke-width="5" /><circle cx="1893.0" cy="745.0" fill="#009" r="16" stroke="#009" stroke-width="5" /><circle cx="1749.0" cy="1777.0" fill="#009" r="16" stroke="#009" stroke-width="5" /><circle cx="1689.0" cy="1777.0" fill="#009" r="16" stroke="#009" stroke-width="5" /></svg>