<?xml version="1.0" encoding="utf-8" ?>
<svg baseProfile="tiny" height="981" version="1.2" viewBox="0 0 6154 5898" width="1024" xmlns="http://www.w3.org/2000/svg" xmlns:ev="http://www.w3.org/2001/xml-events" xmlns:xlink="http://www.w3.org/1999/xlink"><defs /><line stroke="#666" stroke-width="20" x1="3141.0" x2="3013.0" y1="3781.0" y2="3781.0" /><line stroke="#333" stroke-width="10" x1="3013.0" x2="3013.0" y1="3781.0" y2="3797.0" /><line stroke="#999" stroke-width="3" x1="3141.0" x2="3013.0" y1="3845.0" y2="3845.0" /><line stroke="#333" stroke-width="10" x1="3141.0" x2="3141.0" y1="3845.0" y2="3829.0" /><line stroke="#666" stroke-width="20" x1="3013.0" x2="3141.0" y1="3765.0" y2="3765.0" /><line stroke="#333" stroke-width="10" x1="3013.0" x2="3013.0" y1="3765.0" y2="3781.0" /><line stroke="#333" stroke-width="10" x1="3141.0" x2="3141.0" y1="3781.0" y2="3765.0" /><line stroke="#999" stroke-width="3" x1="3013.0" x2="3141.0" y1="3525.0" y2="3525.0" /><line stroke="#333" stroke-width="10" x1="3013.0" x2="3013.0" y1="3525.0" y2="3589.0" /><line stroke="#333" stroke-width="10" x1="3141.0" x2="3141.0" y1="3765.0" y2="3653.0" /><line stroke="#333" stroke-width="10" x1="3141.0" x2="3109.0" y1="3397.0" y2="3397.0" /><line stroke="#333" stroke-width="10" x1="3013.0" x2="3013.0" y1="3397.0" y2="3525.0" /><line stroke="#333" stroke-width="10" x1="3141.0" x2="3141.0" y1="3525.0" y2="3397.0" /><line stroke="#333" stroke-width="10" x1="3157.0" x2="3141.0" y1="3589.0" y2="3589.0" /><line stroke="#999" stroke-width="3" x1="3141.0" x2="3141.0" y1="3653.0" y2="3589.0" /><line stroke="#333" stroke-width="10" x1="3141.0" x2="3157.0" y1="3653.0" y2="3653.0" /><line stroke="#666" stroke-width="20" x1="3157.0" x2="3157.0" y1="3653.0" y2="3589.0" /><line stroke="#333" stroke-width="10" x1="3173.0" x2="3157.0" y1="3589.0" y2="3589.0" /><line stroke="#333" stroke-width="10" x1="3157.0" x2="3173.0" y1="3653.0" y2="3653.0" /><line stroke="#666" stroke-width="20" x1="3173.0" x2="3173.0" y1="3589.0" y2="3653.0" /><line stroke="#333" stroke-width="10" x1="3013.0" x2="2997.0" y1="3589.0" y2="3589.0" /><line stroke="#666" stroke-width="20" x1="2997.0" x2="2997.0" y1="3589.0" y2="3653.0" /><line stroke="#333" stroke-width="10" x1="2997.0" x2="3013.0" y1="3653.0" y2="3653.0" /><line stroke="#999" stroke-width="3" x1="3013.0" x2="3013.0" y1="3589.0" y2="3653.0" /><line stroke="#333" stroke-width="10" x1="2997.0" x2="2981.0" y1="3589.0" y2="3589.0" /><line stroke="#666" stroke-width="20" x1="2981.0" x2="2981.0" y1="3653.0" y2="3589.0" /><line stroke="#333" stroke-width="10" x1="2981.0" x2="2997.0" y1="3653.0" y2="3653.0" /><line stroke="#333" stroke-width="10" x1="3141.0" x2="3141.0" y1="3589.0" y2="3525.0" /><line stroke="#333" stroke-width="10" x1="3269.0" x2="3173.0" y1="3589.0" y2="3589.0" /><line stroke="#333" stroke-width="10" x1="3173.0" x2="3205.0" y1="3653.0" y2="3653.0" /><line stroke="#00d" stroke-width="20" x1="3269.0" x2="3269.0" y1="3653.0" y2="3589.0" /><line stroke="#333" stroke-width="10" x1="2981.0" x2="2885.0" y1="3589.0" y2="3589.0" /><line stroke="#00d" stroke-width="20" x1="2885.0" x2="2885.0" y1="3589.0" y2="3653.0" /><line stroke="#333" stroke-width="10" x1="2885.0" x2="2885.0" y1="3653.0" y2="3661.0" /><line stroke="#333" stroke-width="10" x1="3013.0" x2="3013.0" y1="3653.0" y2="3765.0" /><line stroke="#333" stroke-width="10" x1="3333.0" x2="3269.0" y1="3589.0" y2="3589.0" /><line stroke="#333" stroke-width="10" x1="3269.0" x2="3333.0" y1="3653.0" y2="3653.0" /><line stroke="#333" stroke-width="10" x1="3333.0" x2="3333.0" y1="3653.0" y2="3589.0" /><line stroke="#333" stroke-width="10" x1="2885.0" x2="2821.0" y1="3589.0" y2="3589.0" /><line stroke="#333" stroke-width="10" x1="2821.0" x2="2821.0" y1="3589.0" y2="3653.0" /><line stroke="#333" stroke-width="10" x1="2821.0" x2="2885.0" y1="3653.0" y2="3653.0" /><line stroke="#333" stroke-width="10" x1="2949.0" x2="2981.0" y1="3333.0" y2="3333.0" /><line stroke="#333" stroke-width="10" x1="2693.0" x2="2725.0" y1="3525.0" y2="3525.0" /><line stroke="#333" stroke-width="10" x1="3013.0" x2="2757.0" y1="3845.0" y2="3845.0" /><line stroke="#333" stroke-width="10" x1="3461.0" x2="3461.0" y1="3525.0" y2="3717.0" /><line stroke="#333" stroke-width="10" x1="3397.0" x2="3141.0" y1="3845.0" y2="3845.0" /><line stroke="#333" stroke-width="10" x1="3205.0" x2="3205.0" y1="3333.0" y2="3381.0" /><line stroke="#333" stroke-width="10" x1="3205.0" x2="3365.0" y1="3525.0" y2="3525.0" /><line stroke="#333" stroke-width="10" x1="2949.0" x2="2949.0" y1="3525.0" y2="3397.0" /><line stroke="#333" stroke-width="10" x1="2757.0" x2="2757.0" y1="3845.0" y2="3781.0" /><line stroke="#999" stroke-width="3" x1="4357.0" x2="1797.0" y1="773.0" y2="773.0" /><line stroke="#999" stroke-width="3" x1="1797.0" x2="901.0" y1="773.0" y2="2117.0" /><line stroke="#999" stroke-width="3" x1="2053.0" x2="4101.0" y1="5125.0" y2="5125.0" /><line stroke="#999" stroke-width="3" x1="4101.0" x2="4261.0" y1="5125.0" y2="4773.0" /><line stroke="#333" stroke-width="10" x1="3397.0" x2="3397.0" y1="3781.0" y2="3845.0" /><line stroke="#333" stroke-width="10" x1="3333.0" x2="3397.0" y1="3781.0" y2="3781.0" /><line stroke="#333" stroke-width="10" x1="3461.0" x2="3397.0" y1="3717.0" y2="3717.0" /><line stroke="#333" stroke-width="10" x1="3333.0" x2="3333.0" y1="3717.0" y2="3781.0" /><line stroke="#333" stroke-width="10" x1="2693.0" x2="2693.0" y1="3717.0" y2="3525.0" /><line stroke="#333" stroke-width="10" x1="2821.0" x2="2757.0" y1="3717.0" y2="3717.0" /><line stroke="#333" stroke-width="10" x1="2821.0" x2="2821.0" y1="3781.0" y2="3717.0" /><line stroke="#333" stroke-width="10" x1="2757.0" x2="2821.0" y1="3781.0" y2="3781.0" /><line stroke="#333" stroke-width="10" x1="3645.0" x2="2509.0" y1="2181.0" y2="2181.0" /><line stroke="#333" stroke-width="10" x1="2509.0" x2="2509.0" y1="2181.0" y2="2245.0" /><line stroke="#333" stroke-width="10" x1="2509.0" x2="2757.0" y1="3205.0" y2="3205.0" /><line stroke="#333" stroke-width="10" x1="3645.0" x2="3645.0" y1="3205.0" y2="3141.0" /><line stroke="#333" stroke-width="10" x1="3397.0" x2="3333.0" y1="2437.0" y2="2437.0" /><line stroke="#333" stroke-width="10" x1="3333.0" x2="3333.0" y1="2437.0" y2="2373.0" /><line stroke="#333" stroke-width="10" x1="3333.0" x2="3397.0" y1="2373.0" y2="2373.0" /><line stroke="#333" stroke-width="10" x1="3397.0" x2="3397.0" y1="2373.0" y2="2437.0" /><line stroke="#333" stroke-width="10" x1="2821.0" x2="2757.0" y1="2437.0" y2="2437.0" /><line stroke="#333" stroke-width="10" x1="2757.0" x2="2757.0" y1="2437.0" y2="2373.0" /><line stroke="#333" stroke-width="10" x1="2757.0" x2="2821.0" y1="2373.0" y2="2373.0" /><line stroke="#333" stroke-width="10" x1="2821.0" x2="2821.0" y1="2373.0" y2="2437.0" /><line stroke="#333" stroke-width="10" x1="3397.0" x2="3333.0" y1="3013.0" y2="3013.0" /><line stroke="#333" stroke-width="10" x1="3333.0" x2="3333.0" y1="3013.0" y2="2949.0" /><line stroke="#333" stroke-width="10" x1="3333.0" x2="3397.0" y1="2949.0" y2="2949.0" /><line stroke="#333" stroke-width="10" x1="3397.0" x2="3397.0" y1="2949.0" y2="3013.0" /><line stroke="#333" stroke-width="10" x1="2821.0" x2="2757.0" y1="3013.0" y2="3013.0" /><line stroke="#333" stroke-width="10" x1="2757.0" x2="2757.0" y1="3013.0" y2="2949.0" /><line stroke="#333" stroke-width="10" x1="2757.0" x2="2821.0" y1="2949.0" y2="2949.0" /><line stroke="#333" stroke-width="10" x1="2821.0" x2="2821.0" y1="2949.0" y2="3013.0" /><line stroke="#999" stroke-width="3" x1="3077.0" x2="3141.0" y1="2629.0" y2="2629.0" /><line stroke="#999" stroke-width="3" x1="3077.0" x2="3077.0" y1="2629.0" y2="2693.0" /><line stroke="#999" stroke-width="3" x1="3077.0" x2="3141.0" y1="2693.0" y2="2693.0" /><line stroke="#999" stroke-width="3" x1="3141.0" x2="3141.0" y1="2629.0" y2="2693.0" /><line stroke="#999" stroke-width="3" x1="3013.0" x2="3077.0" y1="2629.0" y2="2629.0" /><line stroke="#999" stroke-width="3" x1="3013.0" x2="3013.0" y1="2693.0" y2="2629.0" /><line stroke="#999" stroke-width="3" x1="3013.0" x2="3077.0" y1="2693.0" y2="2693.0" /><line stroke="#999" stroke-width="3" x1="3077.0" x2="3077.0" y1="2693.0" y2="2757.0" /><line stroke="#999" stroke-width="3" x1="3141.0" x2="3077.0" y1="2757.0" y2="2757.0" /><line stroke="#999" stroke-width="3" x1="3141.0" x2="3141.0" y1="2693.0" y2="2757.0" /><line stroke="#999" stroke-width="3" x1="3013.0" x2="3013.0" y1="2757.0" y2="2693.0" /><line stroke="#999" stroke-width="3" x1="3077.0" x2="3013.0" y1="2757.0" y2="2757.0" /><line stroke="#999" stroke-width="3" x1="2917.0" x2="3013.0" y1="2629.0" y2="2533.0" /><line stroke="#999" stroke-width="3" x1="3013.0" x2="3141.0" y1="2533.0" y2="2533.0" /><line stroke="#999" stroke-width="3" x1="3141.0" x2="3237.0" y1="2533.0" y2="2629.0" /><line stroke="#999" stroke-width="3" x1="3237.0" x2="3237.0" y1="2629.0" y2="2757.0" /><line stroke="#999" stroke-width="3" x1="3237.0" x2="3141.0" y1="2757.0" y2="2853.0" /><line stroke="#999" stroke-width="3" x1="3141.0" x2="3013.0" y1="2853.0" y2="2853.0" /><line stroke="#999" stroke-width="3" x1="3013.0" x2="2917.0" y1="2853.0" y2="2757.0" /><line stroke="#999" stroke-width="3" x1="2917.0" x2="2917.0" y1="2757.0" y2="2629.0" /><line stroke="#333" stroke-width="10" x1="2501.0" x2="3653.0" y1="2117.0" y2="2117.0" /><line stroke="#333" stroke-width="10" x1="2501.0" x2="2501.0" y1="3717.0" y2="3525.0" /><line stroke="#333" stroke-width="10" x1="3653.0" x2="3525.0" y1="3717.0" y2="3717.0" /><line stroke="#333" stroke-width="10" x1="3653.0" x2="3653.0" y1="2117.0" y2="2245.0" /><line stroke="#333" stroke-width="10" x1="3397.0" x2="3333.0" y1="3717.0" y2="3717.0" /><line stroke="#00d" stroke-width="20" x1="3397.0" x2="3397.0" y1="3717.0" y2="3781.0" /><line stroke="#00d" stroke-width="20" x1="2757.0" x2="2757.0" y1="3781.0" y2="3717.0" /><line stroke="#999" stroke-width="3" x1="2437.0" x2="3717.0" y1="2053.0" y2="2053.0" /><line stroke="#999" stroke-width="3" x1="2437.0" x2="2437.0" y1="3781.0" y2="2053.0" /><line stroke="#999" stroke-width="3" x1="2693.0" x2="2437.0" y1="3781.0" y2="3781.0" /><line stroke="#999" stroke-width="3" x1="3717.0" x2="3717.0" y1="2053.0" y2="3781.0" /><line stroke="#999" stroke-width="3" x1="2373.0" x2="3781.0" y1="1989.0" y2="1989.0" /><line stroke="#999" stroke-width="3" x1="2373.0" x2="2373.0" y1="3845.0" y2="1989.0" /><line stroke="#999" stroke-width="3" x1="2757.0" x2="2373.0" y1="3845.0" y2="3845.0" /><line stroke="#999" stroke-width="3" x1="3781.0" x2="3781.0" y1="1989.0" y2="3845.0" /><line stroke="#333" stroke-width="10" x1="2757.0" x2="2693.0" y1="3717.0" y2="3717.0" /><line stroke="#333" stroke-width="10" x1="3269.0" x2="3173.0" y1="3237.0" y2="3237.0" /><line stroke="#333" stroke-width="10" x1="3269.0" x2="3269.0" y1="3461.0" y2="3397.0" /><line stroke="#333" stroke-width="10" x1="3525.0" x2="3269.0" y1="3461.0" y2="3461.0" /><line stroke="#333" stroke-width="10" x1="3525.0" x2="3525.0" y1="3717.0" y2="3461.0" /><line stroke="#333" stroke-width="10" x1="2629.0" x2="2501.0" y1="3717.0" y2="3717.0" /><line stroke="#333" stroke-width="10" x1="2629.0" x2="2629.0" y1="3461.0" y2="3717.0" /><line stroke="#333" stroke-width="10" x1="2885.0" x2="2629.0" y1="3461.0" y2="3461.0" /><line stroke="#333" stroke-width="10" x1="2885.0" x2="2885.0" y1="3237.0" y2="3381.0" /><line stroke="#999" stroke-width="3" x1="3461.0" x2="3461.0" y1="3717.0" y2="3781.0" /><line stroke="#999" stroke-width="3" x1="3717.0" x2="3461.0" y1="3781.0" y2="3781.0" /><line stroke="#999" stroke-width="3" x1="2693.0" x2="2693.0" y1="3781.0" y2="3717.0" /><line stroke="#999" stroke-width="3" x1="3781.0" x2="3397.0" y1="3845.0" y2="3845.0" /><line stroke="#999" stroke-width="3" x1="3525.0" x2="3461.0" y1="3717.0" y2="3717.0" /><line stroke="#999" stroke-width="3" x1="2693.0" x2="2629.0" y1="3717.0" y2="3717.0" /><line stroke="#333" stroke-width="10" x1="3653.0" x2="3645.0" y1="2245.0" y2="2245.0" /><line stroke="#999" stroke-width="3" x1="3645.0" x2="3645.0" y1="2373.0" y2="2245.0" /><line stroke="#333" stroke-width="10" x1="3645.0" x2="3653.0" y1="2373.0" y2="2373.0" /><line stroke="#999" stroke-width="3" x1="3653.0" x2="3653.0" y1="2245.0" y2="2373.0" /><line stroke="#333" stroke-width="10" x1="3653.0" x2="3645.0" y1="2629.0" y2="2629.0" /><line stroke="#999" stroke-width="3" x1="3645.0" x2="3645.0" y1="2757.0" y2="2629.0" /><line stroke="#333" stroke-width="10" x1="3645.0" x2="3653.0" y1="2757.0" y2="2757.0" /><line stroke="#999" stroke-width="3" x1="3653.0" x2="3653.0" y1="2629.0" y2="2757.0" /><line stroke="#333" stroke-width="10" x1="3653.0" x2="3645.0" y1="3013.0" y2="3013.0" /><line stroke="#999" stroke-width="3" x1="3645.0" x2="3645.0" y1="3141.0" y2="3013.0" /><line stroke="#333" stroke-width="10" x1="3645.0" x2="3653.0" y1="3141.0" y2="3141.0" /><line stroke="#999" stroke-width="3" x1="3653.0" x2="3653.0" y1="3013.0" y2="3141.0" /><line stroke="#333" stroke-width="10" x1="2509.0" x2="2501.0" y1="2245.0" y2="2245.0" /><line stroke="#999" stroke-width="3" x1="2501.0" x2="2501.0" y1="2373.0" y2="2245.0" /><line stroke="#333" stroke-width="10" x1="2501.0" x2="2509.0" y1="2373.0" y2="2373.0" /><line stroke="#999" stroke-width="3" x1="2509.0" x2="2509.0" y1="2245.0" y2="2373.0" /><line stroke="#333" stroke-width="10" x1="2509.0" x2="2501.0" y1="2629.0" y2="2629.0" /><line stroke="#999" stroke-width="3" x1="2501.0" x2="2501.0" y1="2757.0" y2="2629.0" /><line stroke="#333" stroke-width="10" x1="2501.0" x2="2509.0" y1="2757.0" y2="2757.0" /><line stroke="#999" stroke-width="3" x1="2509.0" x2="2509.0" y1="2629.0" y2="2757.0" /><line stroke="#333" stroke-width="10" x1="2509.0" x2="2501.0" y1="3013.0" y2="3013.0" /><line stroke="#999" stroke-width="3" x1="2501.0" x2="2501.0" y1="3141.0" y2="3013.0" /><line stroke="#333" stroke-width="10" x1="2501.0" x2="2509.0" y1="3141.0" y2="3141.0" /><line stroke="#999" stroke-width="3" x1="2509.0" x2="2509.0" y1="3013.0" y2="3141.0" /><line stroke="#333" stroke-width="10" x1="3653.0" x2="3653.0" y1="2373.0" y2="2629.0" /><line stroke="#333" stroke-width="10" x1="3645.0" x2="3645.0" y1="2245.0" y2="2181.0" /><line stroke="#333" stroke-width="10" x1="3653.0" x2="3653.0" y1="2757.0" y2="3013.0" /><line stroke="#333" stroke-width="10" x1="3645.0" x2="3645.0" y1="2629.0" y2="2373.0" /><line stroke="#333" stroke-width="10" x1="3653.0" x2="3653.0" y1="3141.0" y2="3397.0" /><line stroke="#333" stroke-width="10" x1="3645.0" x2="3645.0" y1="3013.0" y2="2757.0" /><line stroke="#333" stroke-width="10" x1="2509.0" x2="2509.0" y1="3141.0" y2="3205.0" /><line stroke="#333" stroke-width="10" x1="2501.0" x2="2501.0" y1="3013.0" y2="2757.0" /><line stroke="#333" stroke-width="10" x1="2501.0" x2="2501.0" y1="2629.0" y2="2373.0" /><line stroke="#333" stroke-width="10" x1="2509.0" x2="2509.0" y1="2757.0" y2="3013.0" /><line stroke="#333" stroke-width="10" x1="2509.0" x2="2509.0" y1="2373.0" y2="2629.0" /><line stroke="#333" stroke-width="10" x1="2501.0" x2="2501.0" y1="2245.0" y2="2117.0" /><line stroke="#999" stroke-width="3" x1="3461.0" x2="3397.0" y1="3781.0" y2="3781.0" /><line stroke="#999" stroke-width="3" x1="2757.0" x2="2693.0" y1="3781.0" y2="3781.0" /><line stroke="#999" stroke-width="3" x1="3333.0" x2="3397.0" y1="3205.0" y2="3205.0" /><line stroke="#333" stroke-width="10" x1="3333.0" x2="3333.0" y1="3205.0" y2="3221.0" /><line stroke="#666" stroke-width="20" x1="3333.0" x2="3397.0" y1="3221.0" y2="3221.0" /><line stroke="#333" stroke-width="10" x1="3397.0" x2="3397.0" y1="3221.0" y2="3205.0" /><line stroke="#333" stroke-width="10" x1="3333.0" x2="3333.0" y1="3221.0" y2="3237.0" /><line stroke="#666" stroke-width="20" x1="3397.0" x2="3333.0" y1="3237.0" y2="3237.0" /><line stroke="#333" stroke-width="10" x1="3397.0" x2="3397.0" y1="3237.0" y2="3221.0" /><line stroke="#333" stroke-width="10" x1="3333.0" x2="3333.0" y1="3237.0" y2="3269.0" /><line stroke="#999" stroke-width="3" x1="3397.0" x2="3333.0" y1="3269.0" y2="3269.0" /><line stroke="#333" stroke-width="10" x1="3397.0" x2="3397.0" y1="3269.0" y2="3237.0" /><line stroke="#333" stroke-width="10" x1="3645.0" x2="3397.0" y1="3269.0" y2="3269.0" /><line stroke="#333" stroke-width="10" x1="3301.0" x2="3301.0" y1="3269.0" y2="3429.0" /><line stroke="#333" stroke-width="10" x1="3301.0" x2="3549.0" y1="3429.0" y2="3429.0" /><line stroke="#333" stroke-width="10" x1="3645.0" x2="3645.0" y1="3685.0" y2="3525.0" /><line stroke="#333" stroke-width="10" x1="3333.0" x2="3301.0" y1="3269.0" y2="3269.0" /><line stroke="#999" stroke-width="3" x1="2757.0" x2="2821.0" y1="3205.0" y2="3205.0" /><line stroke="#333" stroke-width="10" x1="2757.0" x2="2757.0" y1="3205.0" y2="3221.0" /><line stroke="#666" stroke-width="20" x1="2757.0" x2="2821.0" y1="3221.0" y2="3221.0" /><line stroke="#333" stroke-width="10" x1="2821.0" x2="2821.0" y1="3221.0" y2="3205.0" /><line stroke="#333" stroke-width="10" x1="2757.0" x2="2757.0" y1="3221.0" y2="3237.0" /><line stroke="#666" stroke-width="20" x1="2821.0" x2="2757.0" y1="3237.0" y2="3237.0" /><line stroke="#333" stroke-width="10" x1="2821.0" x2="2821.0" y1="3237.0" y2="3221.0" /><line stroke="#333" stroke-width="10" x1="2757.0" x2="2757.0" y1="3237.0" y2="3269.0" /><line stroke="#999" stroke-width="3" x1="2821.0" x2="2757.0" y1="3269.0" y2="3269.0" /><line stroke="#333" stroke-width="10" x1="2821.0" x2="2821.0" y1="3269.0" y2="3237.0" /><line stroke="#333" stroke-width="10" x1="2853.0" x2="2821.0" y1="3269.0" y2="3269.0" /><line stroke="#333" stroke-width="10" x1="2509.0" x2="2509.0" y1="3269.0" y2="3397.0" /><line stroke="#333" stroke-width="10" x1="2509.0" x2="2605.0" y1="3685.0" y2="3685.0" /><line stroke="#333" stroke-width="10" x1="2853.0" x2="2853.0" y1="3429.0" y2="3269.0" /><line stroke="#333" stroke-width="10" x1="2757.0" x2="2509.0" y1="3269.0" y2="3269.0" /><line stroke="#333" stroke-width="10" x1="3397.0" x2="3645.0" y1="3205.0" y2="3205.0" /><line stroke="#333" stroke-width="10" x1="2821.0" x2="3045.0" y1="3205.0" y2="3205.0" /><line stroke="#333" stroke-width="10" x1="2981.0" x2="3045.0" y1="3301.0" y2="3301.0" /><line stroke="#333" stroke-width="10" x1="3173.0" x2="3173.0" y1="3301.0" y2="3333.0" /><line stroke="#999" stroke-width="3" x1="3045.0" x2="3109.0" y1="3205.0" y2="3205.0" /><line stroke="#333" stroke-width="10" x1="3045.0" x2="3045.0" y1="3205.0" y2="3221.0" /><line stroke="#666" stroke-width="20" x1="3045.0" x2="3109.0" y1="3221.0" y2="3221.0" /><line stroke="#333" stroke-width="10" x1="3109.0" x2="3109.0" y1="3221.0" y2="3205.0" /><line stroke="#333" stroke-width="10" x1="3045.0" x2="3045.0" y1="3221.0" y2="3229.0" /><line stroke="#d00" stroke-width="20" x1="3109.0" x2="3045.0" y1="3229.0" y2="3229.0" /><line stroke="#333" stroke-width="10" x1="3109.0" x2="3109.0" y1="3229.0" y2="3221.0" /><line stroke="#333" stroke-width="10" x1="3109.0" x2="3333.0" y1="3205.0" y2="3205.0" /><line stroke="#333" stroke-width="10" x1="3045.0" x2="3045.0" y1="3229.0" y2="3237.0" /><line stroke="#333" stroke-width="10" x1="3109.0" x2="3109.0" y1="3237.0" y2="3229.0" /><line stroke="#333" stroke-width="10" x1="3045.0" x2="2981.0" y1="3237.0" y2="3237.0" /><line stroke="#333" stroke-width="10" x1="3549.0" x2="3645.0" y1="3685.0" y2="3685.0" /><line stroke="#333" stroke-width="10" x1="3549.0" x2="3549.0" y1="3429.0" y2="3685.0" /><line stroke="#333" stroke-width="10" x1="2605.0" x2="2853.0" y1="3429.0" y2="3429.0" /><line stroke="#333" stroke-width="10" x1="2605.0" x2="2605.0" y1="3685.0" y2="3429.0" /><line stroke="#333" stroke-width="10" x1="3653.0" x2="3645.0" y1="3397.0" y2="3397.0" /><line stroke="#999" stroke-width="3" x1="3645.0" x2="3645.0" y1="3525.0" y2="3397.0" /><line stroke="#333" stroke-width="10" x1="3645.0" x2="3653.0" y1="3525.0" y2="3525.0" /><line stroke="#999" stroke-width="3" x1="3653.0" x2="3653.0" y1="3397.0" y2="3525.0" /><line stroke="#333" stroke-width="10" x1="2509.0" x2="2501.0" y1="3397.0" y2="3397.0" /><line stroke="#999" stroke-width="3" x1="2501.0" x2="2501.0" y1="3525.0" y2="3397.0" /><line stroke="#333" stroke-width="10" x1="2501.0" x2="2509.0" y1="3525.0" y2="3525.0" /><line stroke="#999" stroke-width="3" x1="2509.0" x2="2509.0" y1="3397.0" y2="3525.0" /><line stroke="#333" stroke-width="10" x1="3645.0" x2="3645.0" y1="3397.0" y2="3269.0" /><line stroke="#333" stroke-width="10" x1="3653.0" x2="3653.0" y1="3525.0" y2="3717.0" /><line stroke="#333" stroke-width="10" x1="2509.0" x2="2509.0" y1="3525.0" y2="3685.0" /><line stroke="#333" stroke-width="10" x1="2501.0" x2="2501.0" y1="3397.0" y2="3141.0" /><line stroke="#999" stroke-width="3" x1="3013.0" x2="3013.0" y1="3845.0" y2="4229.0" /><line stroke="#666" stroke-width="20" x1="3205.0" x2="3269.0" y1="3381.0" y2="3381.0" /><line stroke="#333" stroke-width="10" x1="3205.0" x2="3205.0" y1="3381.0" y2="3397.0" /><line stroke="#666" stroke-width="20" x1="3269.0" x2="3205.0" y1="3397.0" y2="3397.0" /><line stroke="#333" stroke-width="10" x1="3269.0" x2="3269.0" y1="3397.0" y2="3381.0" /><line stroke="#666" stroke-width="20" x1="2885.0" x2="2949.0" y1="3381.0" y2="3381.0" /><line stroke="#333" stroke-width="10" x1="2885.0" x2="2885.0" y1="3381.0" y2="3397.0" /><line stroke="#666" stroke-width="20" x1="2949.0" x2="2885.0" y1="3397.0" y2="3397.0" /><line stroke="#333" stroke-width="10" x1="2949.0" x2="2949.0" y1="3397.0" y2="3381.0" /><line stroke="#333" stroke-width="10" x1="3205.0" x2="3205.0" y1="3397.0" y2="3525.0" /><line stroke="#333" stroke-width="10" x1="3269.0" x2="3269.0" y1="3381.0" y2="3237.0" /><line stroke="#333" stroke-width="10" x1="2949.0" x2="2949.0" y1="3381.0" y2="3333.0" /><line stroke="#333" stroke-width="10" x1="2885.0" x2="2885.0" y1="3397.0" y2="3461.0" /><line stroke="#999" stroke-width="3" x1="773.0" x2="2053.0" y1="2309.0" y2="5125.0" /><line stroke="#999" stroke-width="3" x1="5381.0" x2="4357.0" y1="2309.0" y2="773.0" /><line stroke="#999" stroke-width="3" x1="1285.0" x2="261.0" y1="261.0" y2="2309.0" /><line stroke="#999" stroke-width="3" x1="4869.0" x2="1285.0" y1="261.0" y2="261.0" /><line stroke="#999" stroke-width="3" x1="5893.0" x2="4869.0" y1="2309.0" y2="261.0" /><line stroke="#999" stroke-width="3" x1="4613.0" x2="5893.0" y1="5637.0" y2="2309.0" /><line stroke="#999" stroke-width="3" x1="1541.0" x2="4613.0" y1="5637.0" y2="5637.0" /><line stroke="#999" stroke-width="3" x1="261.0" x2="1541.0" y1="2309.0" y2="5637.0" /><line stroke="#333" stroke-width="10" x1="6149.0" x2="5.0" y1="5.0" y2="5.0" /><line stroke="#333" stroke-width="10" x1="5.0" x2="5.0" y1="5.0" y2="5893.0" /><line stroke="#333" stroke-width="10" x1="5.0" x2="6149.0" y1="5893.0" y2="5893.0" /><line stroke="#333" stroke-width="10" x1="6149.0" x2="6149.0" y1="5893.0" y2="5.0" /><line stroke="#999" stroke-width="3" x1="4229.0" x2="4229.0" y1="4357.0" y2="1541.0" /><line stroke="#999" stroke-width="3" x1="1925.0" x2="4229.0" y1="4357.0" y2="4357.0" /><line stroke="#999" stroke-width="3" x1="3141.0" x2="3141.0" y1="4229.0" y2="3845.0" /><line stroke="#999" stroke-width="3" x1="4229.0" x2="1925.0" y1="1541.0" y2="1541.0" /><line stroke="#999" stroke-width="3" x1="3013.0" x2="2053.0" y1="4229.0" y2="4229.0" /><line stroke="#999" stroke-width="3" x1="1925.0" x2="1925.0" y1="1541.0" y2="4357.0" /><line stroke="#999" stroke-width="3" x1="4101.0" x2="3141.0" y1="4229.0" y2="4229.0" /><line stroke="#999" stroke-width="3" x1="2053.0" x2="2053.0" y1="4229.0" y2="1669.0" /><line stroke="#999" stroke-width="3" x1="4101.0" x2="4101.0" y1="1669.0" y2="4229.0" /><line stroke="#999" stroke-width="3" x1="2053.0" x2="4101.0" y1="1669.0" y2="1669.0" /><line stroke="#999" stroke-width="3" x1="3973.0" x2="2629.0" y1="1733.0" y2="1733.0" /><line stroke="#999" stroke-width="3" x1="2629.0" x2="2373.0" y1="1733.0" y2="1989.0" /><line stroke="#999" stroke-width="3" x1="3781.0" x2="3973.0" y1="3845.0" y2="3589.0" /><line stroke="#999" stroke-width="3" x1="2053.0" x2="901.0" y1="4773.0" y2="2117.0" /><line stroke="#999" stroke-width="3" x1="4261.0" x2="2053.0" y1="4773.0" y2="4773.0" /><line stroke="#999" stroke-width="3" x1="3973.0" x2="3973.0" y1="3589.0" y2="1733.0" /><line stroke="#999" stroke-width="3" x1="4261.0" x2="5381.0" y1="4773.0" y2="2309.0" /><line stroke="#999" stroke-width="3" x1="901.0" x2="773.0" y1="2117.0" y2="2309.0" /><line stroke="#d00" stroke-width="20" x1="3205.0" x2="3269.0" y1="3661.0" y2="3661.0" /><line stroke="#333" stroke-width="10" x1="3205.0" x2="3205.0" y1="3661.0" y2="3669.0" /><line stroke="#d00" stroke-width="20" x1="3269.0" x2="3205.0" y1="3669.0" y2="3669.0" /><line stroke="#333" stroke-width="10" x1="3269.0" x2="3269.0" y1="3669.0" y2="3661.0" /><line stroke="#333" stroke-width="10" x1="3205.0" x2="3205.0" y1="3669.0" y2="3685.0" /><line stroke="#0d0" stroke-width="20" x1="3173.0" x2="3301.0" y1="3749.0" y2="3749.0" /><line stroke="#333" stroke-width="10" x1="3301.0" x2="3301.0" y1="3749.0" y2="3685.0" /><line stroke="#333" stroke-width="10" x1="3173.0" x2="3173.0" y1="3749.0" y2="3781.0" /><line stroke="#333" stroke-width="10" x1="3173.0" x2="3205.0" y1="3781.0" y2="3829.0" /><line stroke="#333" stroke-width="10" x1="3301.0" x2="3301.0" y1="3781.0" y2="3749.0" /><line stroke="#333" stroke-width="10" x1="3301.0" x2="3269.0" y1="3685.0" y2="3685.0" /><line stroke="#333" stroke-width="10" x1="3173.0" x2="3173.0" y1="3685.0" y2="3749.0" /><line stroke="#999" stroke-width="3" x1="2949.0" x2="2885.0" y1="3669.0" y2="3669.0" /><line stroke="#333" stroke-width="10" x1="2949.0" x2="2949.0" y1="3669.0" y2="3661.0" /><line stroke="#333" stroke-width="10" x1="2885.0" x2="2885.0" y1="3669.0" y2="3685.0" /><line stroke="#0d0" stroke-width="20" x1="2853.0" x2="2981.0" y1="3749.0" y2="3749.0" /><line stroke="#666" stroke-width="20" x1="2981.0" x2="2981.0" y1="3749.0" y2="3685.0" /><line stroke="#333" stroke-width="10" x1="2853.0" x2="2853.0" y1="3749.0" y2="3781.0" /><line stroke="#333" stroke-width="10" x1="2853.0" x2="2885.0" y1="3781.0" y2="3829.0" /><line stroke="#333" stroke-width="10" x1="2981.0" x2="2981.0" y1="3781.0" y2="3749.0" /><line stroke="#333" stroke-width="10" x1="2949.0" x2="2949.0" y1="3661.0" y2="3653.0" /><line stroke="#333" stroke-width="10" x1="2981.0" x2="2949.0" y1="3685.0" y2="3685.0" /><line stroke="#333" stroke-width="10" x1="2853.0" x2="2853.0" y1="3685.0" y2="3749.0" /><line stroke="#333" stroke-width="10" x1="3269.0" x2="3301.0" y1="3829.0" y2="3781.0" /><line stroke="#333" stroke-width="10" x1="3205.0" x2="3269.0" y1="3829.0" y2="3829.0" /><line stroke="#333" stroke-width="10" x1="2949.0" x2="2981.0" y1="3829.0" y2="3781.0" /><line stroke="#333" stroke-width="10" x1="2885.0" x2="2949.0" y1="3829.0" y2="3829.0" /><line stroke="#333" stroke-width="10" x1="3205.0" x2="3205.0" y1="3653.0" y2="3661.0" /><line stroke="#333" stroke-width="10" x1="3269.0" x2="3269.0" y1="3661.0" y2="3653.0" /><line stroke="#333" stroke-width="10" x1="2949.0" x2="2981.0" y1="3653.0" y2="3653.0" /><line stroke="#999" stroke-width="3" x1="2885.0" x2="2949.0" y1="3661.0" y2="3661.0" /><line stroke="#333" stroke-width="10" x1="2885.0" x2="2885.0" y1="3661.0" y2="3669.0" /><line stroke="#666" stroke-width="20" x1="3365.0" x2="3429.0" y1="3525.0" y2="3525.0" /><line stroke="#333" stroke-width="10" x1="3365.0" x2="3365.0" y1="3525.0" y2="3541.0" /><line stroke="#666" stroke-width="20" x1="3429.0" x2="3365.0" y1="3541.0" y2="3541.0" /><line stroke="#333" stroke-width="10" x1="3429.0" x2="3429.0" y1="3541.0" y2="3525.0" /><line stroke="#333" stroke-width="10" x1="3365.0" x2="3365.0" y1="3541.0" y2="3685.0" /><line stroke="#666" stroke-width="20" x1="3365.0" x2="3429.0" y1="3685.0" y2="3685.0" /><line stroke="#333" stroke-width="10" x1="3429.0" x2="3429.0" y1="3685.0" y2="3541.0" /><line stroke="#666" stroke-width="20" x1="2725.0" x2="2789.0" y1="3525.0" y2="3525.0" /><line stroke="#333" stroke-width="10" x1="2725.0" x2="2725.0" y1="3525.0" y2="3541.0" /><line stroke="#666" stroke-width="20" x1="2789.0" x2="2725.0" y1="3541.0" y2="3541.0" /><line stroke="#333" stroke-width="10" x1="2789.0" x2="2789.0" y1="3541.0" y2="3525.0" /><line stroke="#333" stroke-width="10" x1="2725.0" x2="2725.0" y1="3541.0" y2="3685.0" /><line stroke="#666" stroke-width="20" x1="2725.0" x2="2789.0" y1="3685.0" y2="3685.0" /><line stroke="#333" stroke-width="10" x1="2789.0" x2="2789.0" y1="3685.0" y2="3541.0" /><line stroke="#333" stroke-width="10" x1="3429.0" x2="3461.0" y1="3525.0" y2="3525.0" /><line stroke="#333" stroke-width="10" x1="2789.0" x2="2949.0" y1="3525.0" y2="3525.0" /><line stroke="#333" stroke-width="10" x1="3269.0" x2="3269.0" y1="3685.0" y2="3669.0" /><line stroke="#333" stroke-width="10" x1="3205.0" x2="3173.0" y1="3685.0" y2="3685.0" /><line stroke="#333" stroke-width="10" x1="2949.0" x2="2949.0" y1="3685.0" y2="3669.0" /><line stroke="#333" stroke-width="10" x1="2885.0" x2="2853.0" y1="3685.0" y2="3685.0" /><line stroke="#333" stroke-width="10" x1="3173.0" x2="3141.0" y1="3797.0" y2="3797.0" /><line stroke="#999" stroke-width="3" x1="3141.0" x2="3141.0" y1="3829.0" y2="3797.0" /><line stroke="#333" stroke-width="10" x1="3141.0" x2="3173.0" y1="3829.0" y2="3829.0" /><line stroke="#333" stroke-width="10" x1="3173.0" x2="3173.0" y1="3829.0" y2="3797.0" /><line stroke="#333" stroke-width="10" x1="3013.0" x2="2981.0" y1="3797.0" y2="3797.0" /><line stroke="#333" stroke-width="10" x1="2981.0" x2="2981.0" y1="3797.0" y2="3829.0" /><line stroke="#333" stroke-width="10" x1="2981.0" x2="3013.0" y1="3829.0" y2="3829.0" /><line stroke="#999" stroke-width="3" x1="3013.0" x2="3013.0" y1="3797.0" y2="3829.0" /><line stroke="#333" stroke-width="10" x1="3141.0" x2="3141.0" y1="3797.0" y2="3781.0" /><line stroke="#333" stroke-width="10" x1="3013.0" x2="3013.0" y1="3829.0" y2="3845.0" /><line stroke="#666" stroke-width="20" x1="3045.0" x2="3109.0" y1="3301.0" y2="3301.0" /><line stroke="#333" stroke-width="10" x1="3045.0" x2="3045.0" y1="3301.0" y2="3309.0" /><line stroke="#999" stroke-width="3" x1="3109.0" x2="3045.0" y1="3309.0" y2="3309.0" /><line stroke="#333" stroke-width="10" x1="3109.0" x2="3109.0" y1="3309.0" y2="3301.0" /><line stroke="#333" stroke-width="10" x1="3045.0" x2="3045.0" y1="3309.0" y2="3397.0" /><line stroke="#999" stroke-width="3" x1="3109.0" x2="3045.0" y1="3397.0" y2="3397.0" /><line stroke="#333" stroke-width="10" x1="3109.0" x2="3109.0" y1="3397.0" y2="3309.0" /><line stroke="#333" stroke-width="10" x1="3109.0" x2="3173.0" y1="3301.0" y2="3301.0" /><line stroke="#333" stroke-width="10" x1="3045.0" x2="3013.0" y1="3397.0" y2="3397.0" /><line stroke="#333" stroke-width="10" x1="3173.0" x2="3109.0" y1="3237.0" y2="3237.0" /><line stroke="#333" stroke-width="10" x1="2981.0" x2="2885.0" y1="3237.0" y2="3237.0" /><line stroke="#999" stroke-width="3" x1="3205.0" x2="3269.0" y1="3333.0" y2="3381.0" /><line stroke="#333" stroke-width="10" x1="3173.0" x2="3205.0" y1="3333.0" y2="3333.0" /><line stroke="#333" stroke-width="10" x1="2981.0" x2="2981.0" y1="3333.0" y2="3301.0" /><line stroke="#999" stroke-width="3" x1="3109.0" x2="3173.0" y1="3237.0" y2="3301.0" /><line stroke="#999" stroke-width="3" x1="2885.0" x2="2949.0" y1="3381.0" y2="3333.0" /><line stroke="#999" stroke-width="3" x1="2981.0" x2="3045.0" y1="3301.0" y2="3237.0" /><ellipse cx="3109.0" cy="4549.0" fill="#009" rx="12" ry="24" stroke="#009" stroke-width="5" /><ellipse cx="3045.0" cy="4549.0" fill="#009" rx="12" ry="24" stroke="#009" stroke-width="5" /><ellipse cx="2981.0" cy="4549.0" fill="#009" rx="12" ry="24" stroke="#009" stroke-width="5" /><ellipse cx="3173.0" cy="4549.0" fill="#009" rx="12" ry="24" stroke="#009" stroke-width="5" /><rect fill="#090" height="24" stroke="#090" stroke-width="5" transform="rotate(315,2085.0,5093.0)" width="24" x="2073.0" y="5081.0" /><rect fill="#090" height="24" stroke="#090" stroke-width="5" transform="rotate(225,4069.0,5093.0)" width="24" x="4057.0" y="5081.0" /><rect fill="#090" height="24" stroke="#090" stroke-width="5" transform="rotate(45,1813.0,805.0)" width="24" x="1801.0" y="793.0" /><rect fill="#090" height="24" stroke="#090" stroke-width="5" transform="rotate(135,4341.0,805.0)" width="24" x="4329.0" y="793.0" /><rect fill="#900" height="48" stroke="#900" stroke-width="5" transform="rotate(90,3077.0,2437.0)" width="32" x="3061.0" y="2413.0" /><rect fill="#900" height="48" stroke="#900" stroke-width="5" transform="rotate(90,3077.0,1285.0)" width="32" x="3061.0" y="1261.0" /><circle cx="2757.0" cy="3653.0" fill="#009" r="16" stroke="#009" stroke-width="5" /><rect fill="#009" height="24" stroke="#009" stroke-width="5" transform="rotate(180,3301.0,3621.0)" width="24" x="3289.0" y="3609.0" /><rect fill="#009" height="24" stroke="#009" stroke-width="5" transform="rotate(0,3365.0,3749.0)" width="24" x="3353.0" y="3737.0" /><rect fill="#009" height="24" stroke="#009" stroke-width="5" transform="rotate(0,2853.0,3621.0)" width="24" x="2841.0" y="3609.0" /><rect fill="#009" height="24" stroke="#009" stroke-width="5" transform="rotate(180,2789.0,3749.0)" width="24" x="2777.0" y="3737.0" /><rect fill="#090" height="24" stroke="#090" stroke-width="5" transform="rotate(0,3221.0,2637.0)" width="24" x="3209.0" y="2625.0" /><rect fill="#090" height="24" stroke="#090" stroke-width="5" transform="rotate(0,2933.0,2637.0)" width="24" x="2921.0" y="2625.0" /><rect fill="#090" height="24" stroke="#090" stroke-width="5" transform="rotate(0,2933.0,2749.0)" width="24" x="2921.0" y="2737.0" /><rect fill="#090" height="24" stroke="#090" stroke-width="5" transform="rotate(0,3133.0,2837.0)" width="24" x="3121.0" y="2825.0" /><rect fill="#090" height="24" stroke="#090" stroke-width="5" transform="rotate(0,2533.0,3181.0)" width="24" x="2521.0" y="3169.0" /><rect fill="#090" height="24" stroke="#090" stroke-width="5" transform="rotate(0,3621.0,3181.0)" width="24" x="3609.0" y="3169.0" /><rect fill="#090" height="24" stroke="#090" stroke-width="5" transform="rotate(0,2533.0,2205.0)" width="24" x="2521.0" y="2193.0" /><rect fill="#090" height="24" stroke="#090" stroke-width="5" transform="rotate(0,3621.0,2205.0)" width="24" x="3609.0" y="2193.0" /><rect fill="#090" height="24" stroke="#090" stroke-width="5" transform="rotate(0,3221.0,2749.0)" width="24" x="3209.0" y="2737.0" /><rect fill="#090" height="24" stroke="#090" stroke-width="5" transform="rotate(0,3021.0,2837.0)" width="24" x="3009.0" y="2825.0" /><rect fill="#090" height="24" stroke="#090" stroke-width="5" transform="rotate(0,3133.0,2549.0)" width="24" x="3121.0" y="2537.0" /><rect fill="#090" height="24" stroke="#090" stroke-width="5" transform="rotate(0,3021.0,2549.0)" width="24" x="3009.0" y="2537.0" /><circle cx="2557.0" cy="3605.0" fill="#090" r="16" stroke="#090" stroke-width="5" /><circle cx="2557.0" cy="3653.0" fill="#090" r="16" stroke="#090" stroke-width="5" /><circle cx="3597.0" cy="3605.0" fill="#090" r="16" stroke="#090" stroke-width="5" /><circle cx="3597.0" cy="3605.0" fill="#090" r="16" stroke="#090" stroke-width="5" /><circle cx="3597.0" cy="3653.0" fill="#090" r="16" stroke="#090" stroke-width="5" /><circle cx="3597.0" cy="3557.0" fill="#090" r="16" stroke="#090" stroke-width="5" /><circle cx="3597.0" cy="3557.0" fill="#090" r="16" stroke="#090" stroke-width="5" /><circle cx="3597.0" cy="3653.0" fill="#090" r="16" stroke="#090" stroke-width="5" /><circle cx="2557.0" cy="3605.0" fill="#090" r="16" stroke="#090" stroke-width="5" /><circle cx="2557.0" cy="3653.0" fill="#090" r="16" stroke="#090" stroke-width="5" /><circle cx="2557.0" cy="3557.0" fill="#090" r="16" stroke="#090" stroke-width="5" /><circle cx="2557.0" cy="3557.0" fill="#090" r="16" stroke="#090" stroke-width="5" /><circle cx="2557.0" cy="3461.0" fill="#900" r="16" stroke="#900" stroke-width="5" /><circle cx="2557.0" cy="3461.0" fill="#900" r="16" stroke="#900" stroke-width="5" /><circle cx="2557.0" cy="3509.0" fill="#090" r="16" stroke="#090" stroke-width="5" /><circle cx="2557.0" cy="3509.0" fill="#090" r="16" stroke="#090" stroke-width="5" /><circle cx="3597.0" cy="3509.0" fill="#090" r="16" stroke="#090" stroke-width="5" /><circle cx="3597.0" cy="3461.0" fill="#900" r="16" stroke="#900" stroke-width="5" /><circle cx="3597.0" cy="3461.0" fill="#900" r="16" stroke="#900" stroke-width="5" /><circle cx="3597.0" cy="3509.0" fill="#090" r="16" stroke="#090" stroke-width="5" /><circle cx="3077.0" cy="3621.0" fill="#900" r="16" stroke="#900" stroke-width="5" /><rect fill="#900" height="48" stroke="#900" stroke-width="5" transform="rotate(90,3493.0,3749.0)" width="32" x="3477.0" y="3725.0" /><rect fill="#900" height="48" stroke="#900" stroke-width="5" transform="rotate(90,3685.0,2949.0)" width="32" x="3669.0" y="2925.0" /><rect fill="#900" height="48" stroke="#900" stroke-width="5" transform="rotate(90,2469.0,2437.0)" width="32" x="2453.0" y="2413.0" /><rect fill="#900" height="48" stroke="#900" stroke-width="5" transform="rotate(90,3685.0,2437.0)" width="32" x="3669.0" y="2413.0" /><rect fill="#900" height="48" stroke="#900" stroke-width="5" transform="rotate(270,3493.0,2085.0)" width="32" x="3477.0" y="2061.0" /><rect fill="#900" height="48" stroke="#900" stroke-width="5" transform="rotate(90,2661.0,3749.0)" width="32" x="2645.0" y="3725.0" /><rect fill="#900" height="48" stroke="#900" stroke-width="5" transform="rotate(90,2469.0,3461.0)" width="32" x="2453.0" y="3437.0" /><rect fill="#900" height="48" stroke="#900" stroke-width="5" transform="rotate(270,2661.0,2085.0)" width="32" x="2645.0" y="2061.0" /><rect fill="#900" height="48" stroke="#900" stroke-width="5" transform="rotate(90,2469.0,2949.0)" width="32" x="2453.0" y="2925.0" /><rect fill="#900" height="48" stroke="#900" stroke-width="5" transform="rotate(90,3685.0,3461.0)" width="32" x="3669.0" y="3437.0" /><rect fill="#900" height="48" stroke="#900" stroke-width="5" transform="rotate(270,3749.0,2021.0)" width="32" x="3733.0" y="1997.0" /><rect fill="#900" height="48" stroke="#900" stroke-width="5" transform="rotate(270,2405.0,2021.0)" width="32" x="2389.0" y="1997.0" /><rect fill="#900" height="48" stroke="#900" stroke-width="5" transform="rotate(90,3749.0,2565.0)" width="32" x="3733.0" y="2541.0" /><rect fill="#900" height="48" stroke="#900" stroke-width="5" transform="rotate(90,2405.0,2565.0)" width="32" x="2389.0" y="2541.0" /><rect fill="#900" height="48" stroke="#900" stroke-width="5" transform="rotate(90,3749.0,3333.0)" width="32" x="3733.0" y="3309.0" /><rect fill="#900" height="48" stroke="#900" stroke-width="5" transform="rotate(270,3429.0,2021.0)" width="32" x="3413.0" y="1997.0" /><rect fill="#900" height="48" stroke="#900" stroke-width="5" transform="rotate(90,2725.0,3813.0)" width="32" x="2709.0" y="3789.0" /><rect fill="#900" height="48" stroke="#900" stroke-width="5" transform="rotate(90,2405.0,3813.0)" width="32" x="2389.0" y="3789.0" /><rect fill="#900" height="48" stroke="#900" stroke-width="5" transform="rotate(90,3429.0,3813.0)" width="32" x="3413.0" y="3789.0" /><rect fill="#900" height="48" stroke="#900" stroke-width="5" transform="rotate(90,2405.0,3333.0)" width="32" x="2389.0" y="3309.0" /><rect fill="#900" height="48" stroke="#900" stroke-width="5" transform="rotate(90,3749.0,3813.0)" width="32" x="3733.0" y="3789.0" /><rect fill="#900" height="48" stroke="#900" stroke-width="5" transform="rotate(90,1989.0,2181.0)" width="32" x="1973.0" y="2157.0" /><rect fill="#900" height="48" stroke="#900" stroke-width="5" transform="rotate(90,4165.0,2181.0)" width="32" x="4149.0" y="2157.0" /><rect fill="#900" height="48" stroke="#900" stroke-width="5" transform="rotate(45,3717.0,1605.0)" width="32" x="3701.0" y="1581.0" /><rect fill="#900" height="48" stroke="#900" stroke-width="5" transform="rotate(135,2437.0,1605.0)" width="32" x="2421.0" y="1581.0" /><rect fill="#900" height="48" stroke="#900" stroke-width="5" transform="rotate(135,3717.0,4293.0)" width="32" x="3701.0" y="4269.0" /><rect fill="#900" height="48" stroke="#900" stroke-width="5" transform="rotate(45,2437.0,4293.0)" width="32" x="2421.0" y="4269.0" /><rect fill="#900" height="48" stroke="#900" stroke-width="5" transform="rotate(90,1989.0,3589.0)" width="32" x="1973.0" y="3565.0" /><rect fill="#900" height="48" stroke="#900" stroke-width="5" transform="rotate(90,4165.0,3589.0)" width="32" x="4149.0" y="3565.0" /><circle cx="3077.0" cy="1605.0" fill="#009" r="16" stroke="#009" stroke-width="5" /><circle cx="3077.0" cy="4293.0" fill="#009" r="16" stroke="#009" stroke-width="5" /><rect fill="#900" height="48" stroke="#900" stroke-width="5" transform="rotate(180,5253.0,2373.0)" width="32" x="5237.0" y="2349.0" /><rect fill="#900" height="48" stroke="#900" stroke-width="5" transform="rotate(180,5253.0,2245.0)" width="32" x="5237.0" y="2221.0" /><rect fill="#900" height="48" stroke="#900" stroke-width="5" transform="rotate(180,5125.0,2181.0)" width="32" x="5109.0" y="2157.0" /><rect fill="#900" height="48" stroke="#900" stroke-width="5" transform="rotate(180,5125.0,2437.0)" width="32" x="5109.0" y="2413.0" /><rect fill="#900" height="48" stroke="#900" stroke-width="5" transform="rotate(0,901.0,2373.0)" width="32" x="885.0" y="2349.0" /><rect fill="#900" height="48" stroke="#900" stroke-width="5" transform="rotate(0,1029.0,2437.0)" width="32" x="1013.0" y="2413.0" /><rect fill="#900" height="48" stroke="#900" stroke-width="5" transform="rotate(0,901.0,2245.0)" width="32" x="885.0" y="2221.0" /><rect fill="#900" height="48" stroke="#900" stroke-width="5" transform="rotate(0,1029.0,2181.0)" width="32" x="1013.0" y="2157.0" /><circle cx="3109.0" cy="3557.0" fill="#090" r="16" stroke="#090" stroke-width="5" /><circle cx="3045.0" cy="3557.0" fill="#090" r="16" stroke="#090" stroke-width="5" /><circle cx="3045.0" cy="3557.0" fill="#090" r="16" stroke="#090" stroke-width="5" /><circle cx="3109.0" cy="3685.0" fill="#090" r="16" stroke="#090" stroke-width="5" /><circle cx="3109.0" cy="3685.0" fill="#090" r="16" stroke="#090" stroke-width="5" /><circle cx="3045.0" cy="3685.0" fill="#090" r="16" stroke="#090" stroke-width="5" /><circle cx="3045.0" cy="3685.0" fill="#090" r="16" stroke="#090" stroke-width="5" /><circle cx="3109.0" cy="3557.0" fill="#090" r="16" stroke="#090" stroke-width="5" /><circle cx="2181.0" cy="4997.0" fill="#090" r="16" stroke="#090" stroke-width="5" /><circle cx="1925.0" cy="901.0" fill="#090" r="16" stroke="#090" stroke-width="5" /><circle cx="4229.0" cy="901.0" fill="#090" r="16" stroke="#090" stroke-width="5" /><circle cx="3973.0" cy="4997.0" fill="#090" r="16" stroke="#090" stroke-width="5" /><circle cx="3597.0" cy="3461.0" fill="#900" r="16" stroke="#900" stroke-width="5" /><circle cx="2557.0" cy="3461.0" fill="#900" r="16" stroke="#900" stroke-width="5" /><circle cx="3077.0" cy="4165.0" fill="#900" r="16" stroke="#900" stroke-width="5" /><circle cx="3077.0" cy="4101.0" fill="#090" r="16" stroke="#090" stroke-width="5" /><rect fill="#090" height="24" stroke="#090" stroke-width="5" transform="rotate(270,3325.0,3405.0)" width="24" x="3313.0" y="3393.0" /><rect fill="#090" height="24" stroke="#090" stroke-width="5" transform="rotate(270,2829.0,3405.0)" width="24" x="2817.0" y="3393.0" /><rect fill="#090" height="24" stroke="#090" stroke-width="5" transform="rotate(90,3493.0,3493.0)" width="24" x="3481.0" y="3481.0" /><rect fill="#090" height="24" stroke="#090" stroke-width="5" transform="rotate(90,2661.0,3493.0)" width="24" x="2649.0" y="3481.0" /><rect fill="#090" height="24" stroke="#090" stroke-width="5" transform="rotate(270,3077.0,4485.0)" width="24" x="3065.0" y="4473.0" /><rect fill="#900" height="48" stroke="#900" stroke-width="5" transform="rotate(0,1093.0,2309.0)" width="32" x="1077.0" y="2285.0" /><rect fill="#900" height="48" stroke="#900" stroke-width="5" transform="rotate(180,5061.0,2309.0)" width="32" x="5045.0" y="2285.0" /><rect fill="#900" height="48" stroke="#900" stroke-width="5" transform="rotate(270,2557.0,3629.0)" width="32" x="2541.0" y="3605.0" /><rect fill="#900" height="48" stroke="#900" stroke-width="5" transform="rotate(270,3597.0,3629.0)" width="32" x="3581.0" y="3605.0" /><circle cx="5317.0" cy="2309.0" fill="#090" r="16" stroke="#090" stroke-width="5" /><circle cx="837.0" cy="2309.0" fill="#090" r="16" stroke="#090" stroke-width="5" /><rect fill="#090" height="24" stroke="#090" stroke-width="5" transform="rotate(0,3269.0,3765.0)" width="24" x="3257.0" y="3753.0" /><rect fill="#090" height="24" stroke="#090" stroke-width="5" transform="rotate(0,3205.0,3765.0)" width="24" x="3193.0" y="3753.0" /><ellipse cx="3077.0" cy="2085.0" fill="#090" rx="12" ry="24" stroke="#090" stroke-width="5" /><ellipse cx="3077.0" cy="2213.0" fill="#090" rx="12" ry="24" stroke="#090" stroke-width="5" /><circle cx="3077.0" cy="3365.0" fill="#900" r="16" stroke="#900" stroke-width="5" /><rect fill="#900" height="48" stroke="#900" stroke-width="5" transform="rotate(270,2725.0,2021.0)" width="32" x="2709.0" y="1997.0" /><rect fill="#900" height="48" stroke="#900" stroke-width="5" transform="rotate(270,3237.0,3717.0)" width="32" x="3221.0" y="3693.0" /><rect fill="#900" height="48" stroke="#900" stroke-width="5" transform="rotate(270,3205.0,3717.0)" width="32" x="3189.0" y="3693.0" /><rect fill="#900" height="48" stroke="#900" stroke-width="5" transform="rotate(270,3269.0,3717.0)" width="32" x="3253.0" y="3693.0" /><circle cx="3621.0" cy="3293.0" fill="#009" r="16" stroke="#009" stroke-width="5" /><circle cx="2533.0" cy="3293.0" fill="#009" r="16" stroke="#009" stroke-width="5" /><circle cx="3077.0" cy="3461.0" fill="#009" r="16" stroke="#009" stroke-width="5" /><rect fill="#900" height="48" stroke="#900" stroke-width="5" transform="rotate(90,3204.0,2437.0)" width="32" x="3188.0" y="2413.0" /><rect fill="#900" height="48" stroke="#900" stroke-width="5" transform="rotate(90,2949.0,2437.0)" width="32" x="2933.0" y="2413.0" /><rect fill="#090" height="24" stroke="#090" stroke-width="5" transform="rotate(0,2997.0,4213.0)" width="24" x="2985.0" y="4201.0" /><rect fill="#090" height="24" stroke="#090" stroke-width="5" transform="rotate(0,3157.0,4213.0)" width="24" x="3145.0" y="4201.0" /><rect fill="#090" height="24" stroke="#090" stroke-width="5" transform="rotate(0,3157.0,3813.0)" width="24" x="3145.0" y="3801.0" /><rect fill="#090" height="24" stroke="#090" stroke-width="5" transform="rotate(0,2997.0,3813.0)" width="24" x="2985.0" y="3801.0" /><circle cx="3397.0" cy="3653.0" fill="#009" r="16" stroke="#009" stroke-width="5" /><rect fill="#090" height="24" stroke="#090" stroke-width="5" transform="rotate(0,4085.0,4213.0)" width="24" x="4073.0" y="4201.0" /><rect fill="#090" height="24" stroke="#090" stroke-width="5" transform="rotate(0,2069.0,1685.0)" width="24" x="2057.0" y="1673.0" /><rect fill="#090" height="24" stroke="#090" stroke-width="5" transform="rotate(0,2069.0,4213.0)" width="24" x="2057.0" y="4201.0" /><rect fill="#090" height="24" stroke="#090" stroke-width="5" transform="rotate(0,4085.0,1685.0)" width="24" x="4073.0" y="1673.0" /><circle cx="3397.0" cy="3589.0" fill="#009" r="16" stroke="#009" stroke-width="5" /><rect fill="#900" height="48" stroke="#900" stroke-width="5" transform="rotate(90,3077.0,2309.0)" width="32" x="3061.0" y="2285.0" /><rect fill="#090" height="24" stroke="#090" stroke-width="5" transform="rotate(0,2965.0,3317.0)" width="24" x="2953.0" y="3305.0" /><rect fill="#090" height="24" stroke="#090" stroke-width="5" transform="rotate(0,3189.0,3317.0)" width="24" x="3177.0" y="3305.0" /><circle cx="2757.0" cy="3589.0" fill="#009" r="16" stroke="#009" stroke-width="5" /><rect fill="#090" height="24" stroke="#090" stroke-width="5" transform="rotate(0,3317.0,3285.0)" width="24" x="3305.0" y="3273.0" /><rect fill="#090" height="24" stroke="#090" stroke-width="5" transform="rotate(0,2837.0,3285.0)" width="24" x="2825.0" y="3273.0" /><circle cx="3077.0" cy="2405.0" fill="#009" r="16" stroke="#009" stroke-width="5" /><circle cx="3077.0" cy="2021.0" fill="#900" r="16" stroke="#900" stroke-width="5" /><circle cx="3077.0" cy="5061.0" fill="#900" r="16" stroke="#900" stroke-width="5" /><circle cx="3077.0" cy="837.0" fill="#900" r="16" stroke="#900" stroke-width="5" /><circle cx="2557.0" cy="3461.0" fill="#900" r="16" stroke="#900" stroke-width="5" /><circle cx="2557.0" cy="3461.0" fill="#900" r="16" stroke="#900" stroke-width="5" /><circle cx="3597.0" cy="3461.0" fill="#900" r="16" stroke="#900" stroke-width="5" /><circle cx="3597.0" cy="3461.0" fill="#900" r="16" stroke="#900" stroke-width="5" /><circle cx="3077.0" cy="3621.0" fill="#900" r="16" stroke="#900" stroke-width="5" /><circle cx="3077.0" cy="3621.0" fill="#900" r="16" stroke="#900" stroke-width="5" /><circle cx="3077.0" cy="3621.0" fill="#900" r="16" stroke="#900" stroke-width="5" /><circle cx="3077.0" cy="3621.0" fill="#900" r="16" stroke="#900" stroke-width="5" /><circle cx="4165.0" cy="4293.0" fill="#090" r="16" stroke="#090" stroke-width="5" /><circle cx="1989.0" cy="4293.0" fill="#090" r="16" stroke="#090" stroke-width="5" /><circle cx="1989.0" cy="1605.0" fill="#090" r="16" stroke="#090" stroke-width="5" /><circle cx="4165.0" cy="1605.0" fill="#090" r="16" stroke="#090" stroke-width="5" /></svg>