<?xml version="1.0" encoding="utf-8" ?>
<svg baseProfile="tiny" height="993" version="1.2" viewBox="0 0 6410 6218" width="1024" xmlns="http://www.w3.org/2000/svg" xmlns:ev="http://www.w3.org/2001/xml-events" xmlns:xlink="http://www.w3.org/1999/xlink"><defs /><line stroke="#333" stroke-width="10" x1="4677.0" x2="5573.0" y1="1861.0" y2="1989.0" /><line stroke="#999" stroke-width="3" x1="5573.0" x2="5573.0" y1="1989.0" y2="1797.0" /><line stroke="#333" stroke-width="10" x1="5573.0" x2="4677.0" y1="1797.0" y2="1797.0" /><line stroke="#999" stroke-width="3" x1="4677.0" x2="4677.0" y1="1797.0" y2="1829.0" /><line stroke="#333" stroke-width="10" x1="2611.0" x2="2885.0" y1="3269.0" y2="3269.0" /><line stroke="#333" stroke-width="10" x1="4613.0" x2="4645.0" y1="2445.0" y2="2153.0" /><line stroke="#333" stroke-width="10" x1="4631.0" x2="4357.0" y1="419.0" y2="453.0" /><line stroke="#333" stroke-width="10" x1="3517.0" x2="3517.0" y1="1285.0" y2="1575.0" /><line stroke="#333" stroke-width="10" x1="6131.0" x2="6405.0" y1="3909.0" y2="3909.0" /><line stroke="#333" stroke-width="10" x1="4677.0" x2="4645.0" y1="1797.0" y2="1507.0" /><line stroke="#333" stroke-width="10" x1="3525.0" x2="3251.0" y1="5.0" y2="5.0" /><line stroke="#333" stroke-width="10" x1="3517.0" x2="3525.0" y1="1865.0" y2="1989.0" /><line stroke="#333" stroke-width="10" x1="5573.0" x2="6341.0" y1="1989.0" y2="2309.0" /><line stroke="#333" stroke-width="10" x1="6341.0" x2="6405.0" y1="2309.0" y2="1477.0" /><line stroke="#333" stroke-width="10" x1="6405.0" x2="5573.0" y1="1477.0" y2="1797.0" /><line stroke="#333" stroke-width="10" x1="3077.0" x2="3461.0" y1="2117.0" y2="2181.0" /><line stroke="#333" stroke-width="10" x1="3525.0" x2="3077.0" y1="1989.0" y2="1925.0" /><line stroke="#999" stroke-width="3" x1="3077.0" x2="3077.0" y1="1925.0" y2="2117.0" /><line stroke="#999" stroke-width="3" x1="4677.0" x2="4677.0" y1="1829.0" y2="1861.0" /><line stroke="#333" stroke-width="10" x1="2885.0" x2="4508.0" y1="3269.0" y2="3525.0" /><line stroke="#333" stroke-width="10" x1="4645.0" x2="4677.0" y1="2153.0" y2="1861.0" /><line stroke="#333" stroke-width="10" x1="4357.0" x2="3525.0" y1="453.0" y2="5.0" /><line stroke="#333" stroke-width="10" x1="3517.0" x2="3517.0" y1="1575.0" y2="1865.0" /><line stroke="#333" stroke-width="10" x1="6405.0" x2="4613.0" y1="3909.0" y2="2445.0" /><line stroke="#333" stroke-width="10" x1="4645.0" x2="4631.0" y1="1507.0" y2="419.0" /><line stroke="#333" stroke-width="10" x1="3251.0" x2="3517.0" y1="5.0" y2="1285.0" /><line stroke="#333" stroke-width="10" x1="3461.0" x2="2611.0" y1="2245.0" y2="3269.0" /><line stroke="#999" stroke-width="3" x1="3525.0" x2="3461.0" y1="1989.0" y2="2181.0" /><line stroke="#333" stroke-width="10" x1="3461.0" x2="3461.0" y1="2181.0" y2="2245.0" /><line stroke="#333" stroke-width="10" x1="3077.0" x2="2556.0" y1="1925.0" y2="1874.0" /><line stroke="#333" stroke-width="10" x1="2556.0" x2="1925.0" y1="1874.0" y2="1349.0" /><line stroke="#333" stroke-width="10" x1="1925.0" x2="1541.0" y1="1349.0" y2="1413.0" /><line stroke="#333" stroke-width="10" x1="1541.0" x2="1226.0" y1="1413.0" y2="2606.0" /><line stroke="#333" stroke-width="10" x1="1226.0" x2="1641.0" y1="2606.0" y2="2678.0" /><line stroke="#333" stroke-width="10" x1="1641.0" x2="3077.0" y1="2678.0" y2="2117.0" /><line stroke="#333" stroke-width="10" x1="4508.0" x2="4933.0" y1="3525.0" y2="3653.0" /><line stroke="#333" stroke-width="10" x1="5320.0" x2="6131.0" y1="3749.0" y2="3909.0" /><line stroke="#333" stroke-width="10" x1="4933.0" x2="4997.0" y1="3653.0" y2="3717.0" /><line stroke="#333" stroke-width="10" x1="5125.0" x2="5320.0" y1="3781.0" y2="3749.0" /><line stroke="#999" stroke-width="3" x1="3845.0" x2="3845.0" y1="4293.0" y2="4613.0" /><line stroke="#333" stroke-width="10" x1="3845.0" x2="5125.0" y1="4613.0" y2="3781.0" /><line stroke="#333" stroke-width="10" x1="4997.0" x2="3845.0" y1="3717.0" y2="4293.0" /><line stroke="#999" stroke-width="3" x1="4997.0" x2="5125.0" y1="3717.0" y2="3781.0" /><line stroke="#333" stroke-width="10" x1="3845.0" x2="1413.0" y1="4293.0" y2="3077.0" /><line stroke="#333" stroke-width="10" x1="1413.0" x2="5.0" y1="3077.0" y2="4741.0" /><line stroke="#333" stroke-width="10" x1="5.0" x2="983.0" y1="4741.0" y2="6149.0" /><line stroke="#333" stroke-width="10" x1="983.0" x2="1093.0" y1="6149.0" y2="6213.0" /><line stroke="#333" stroke-width="10" x1="1093.0" x2="3845.0" y1="6213.0" y2="4613.0" /><line stroke="#0d0" stroke-width="20" x1="1669.0" x2="1779.0" y1="4421.0" y2="4485.0" /><line stroke="#0d0" stroke-width="20" x1="1559.0" x2="1669.0" y1="4486.0" y2="4421.0" /><line stroke="#0d0" stroke-width="20" x1="1559.0" x2="1559.0" y1="4613.0" y2="4486.0" /><line stroke="#0d0" stroke-width="20" x1="1669.0" x2="1559.0" y1="4677.0" y2="4613.0" /><line stroke="#0d0" stroke-width="20" x1="1779.0" x2="1669.0" y1="4612.0" y2="4677.0" /><line stroke="#0d0" stroke-width="20" x1="1779.0" x2="1779.0" y1="4485.0" y2="4612.0" /><rect fill="#090" height="24" stroke="#090" stroke-width="5" transform="rotate(225,6149.0,1925.0)" width="24" x="6137.0" y="1913.0" /><ellipse cx="6021.0" cy="1989.0" fill="#009" rx="12" ry="24" stroke="#009" stroke-width="5" /><ellipse cx="6277.0" cy="1925.0" fill="#009" rx="12" ry="24" stroke="#009" stroke-width="5" /><rect fill="#900" height="48" stroke="#900" stroke-width="5" transform="rotate(45,4037.0,2117.0)" width="32" x="4021.0" y="2093.0" /><rect fill="#900" height="48" stroke="#900" stroke-width="5" transform="rotate(225,4357.0,965.0)" width="32" x="4341.0" y="941.0" /><rect fill="#900" height="48" stroke="#900" stroke-width="5" transform="rotate(45,4037.0,1733.0)" width="32" x="4021.0" y="1709.0" /><rect fill="#900" height="48" stroke="#900" stroke-width="5" transform="rotate(225,3845.0,773.0)" width="32" x="3829.0" y="749.0" /><rect fill="#900" height="48" stroke="#900" stroke-width="5" transform="rotate(225,3717.0,2501.0)" width="32" x="3701.0" y="2477.0" /><rect fill="#900" height="48" stroke="#900" stroke-width="5" transform="rotate(225,4293.0,1733.0)" width="32" x="4277.0" y="1709.0" /><rect fill="#900" height="48" stroke="#900" stroke-width="5" transform="rotate(225,3717.0,1477.0)" width="32" x="3701.0" y="1453.0" /><rect fill="#900" height="48" stroke="#900" stroke-width="5" transform="rotate(225,4229.0,2565.0)" width="32" x="4213.0" y="2541.0" /><rect fill="#900" height="48" stroke="#900" stroke-width="5" transform="rotate(225,4869.0,3205.0)" width="32" x="4853.0" y="3181.0" /><rect fill="#900" height="48" stroke="#900" stroke-width="5" transform="rotate(225,3653.0,2885.0)" width="32" x="3637.0" y="2861.0" /><circle cx="5893.0" cy="1861.0" fill="#900" r="16" stroke="#900" stroke-width="5" /><circle cx="5701.0" cy="1925.0" fill="#090" r="16" stroke="#090" stroke-width="5" /><circle cx="4357.0" cy="2373.0" fill="#009" r="16" stroke="#009" stroke-width="5" /><circle cx="3717.0" cy="4485.0" fill="#009" r="16" stroke="#009" stroke-width="5" /><rect fill="#900" height="48" stroke="#900" stroke-width="5" transform="rotate(225,2117.0,4421.0)" width="32" x="2101.0" y="4397.0" /><rect fill="#900" height="48" stroke="#900" stroke-width="5" transform="rotate(225,2757.0,4677.0)" width="32" x="2741.0" y="4653.0" /><rect fill="#900" height="48" stroke="#900" stroke-width="5" transform="rotate(225,3205.0,4229.0)" width="32" x="3189.0" y="4205.0" /><rect fill="#900" height="48" stroke="#900" stroke-width="5" transform="rotate(45,2693.0,4229.0)" width="32" x="2677.0" y="4205.0" /><rect fill="#900" height="48" stroke="#900" stroke-width="5" transform="rotate(45,2309.0,4805.0)" width="32" x="2293.0" y="4781.0" /><rect fill="#900" height="48" stroke="#900" stroke-width="5" transform="rotate(45,1669.0,4549.0)" width="32" x="1653.0" y="4525.0" /><rect fill="#090" height="24" stroke="#090" stroke-width="5" transform="rotate(45,1861.0,1989.0)" width="24" x="1849.0" y="1977.0" /><ellipse cx="1925.0" cy="2117.0" fill="#090" rx="12" ry="24" stroke="#090" stroke-width="5" /><ellipse cx="2117.0" cy="1925.0" fill="#900" rx="12" ry="24" stroke="#900" stroke-width="5" /><circle cx="2245.0" cy="2053.0" fill="#009" r="16" stroke="#009" stroke-width="5" /><rect fill="#090" height="24" stroke="#090" stroke-width="5" transform="rotate(45,2117.0,2117.0)" width="24" x="2105.0" y="2105.0" /><circle cx="4421.0" cy="4101.0" fill="#009" r="16" stroke="#009" stroke-width="5" /><circle cx="3781.0" cy="453.0" fill="#009" r="16" stroke="#009" stroke-width="5" /><circle cx="3845.0" cy="453.0" fill="#009" r="16" stroke="#009" stroke-width="5" /><circle cx="3845.0" cy="389.0" fill="#009" r="16" stroke="#009" stroke-width="5" /><circle cx="3781.0" cy="389.0" fill="#009" r="16" stroke="#009" stroke-width="5" /><circle cx="3653.0" cy="453.0" fill="#009" r="16" stroke="#009" stroke-width="5" /><circle cx="3717.0" cy="453.0" fill="#009" r="16" stroke="#009" stroke-width="5" /><circle cx="3717.0" cy="389.0" fill="#009" r="16" stroke="#009" stroke-width="5" /><circle cx="3653.0" cy="389.0" fill="#009" r="16" stroke="#009" stroke-width="5" /><circle cx="3909.0" cy="453.0" fill="#009" r="16" stroke="#009" stroke-width="5" /><circle cx="3973.0" cy="453.0" fill="#009" r="16" stroke="#009" stroke-width="5" /><circle cx="3973.0" cy="389.0" fill="#009" r="16" stroke="#009" stroke-width="5" /><circle cx="3909.0" cy="389.0" fill="#009" r="16" stroke="#009" stroke-width="5" /><circle cx="3775.0" cy="357.0" fill="#009" r="16" stroke="#009" stroke-width="5" /><circle cx="3839.0" cy="357.0" fill="#009" r="16" stroke="#009" stroke-width="5" /><circle cx="3839.0" cy="293.0" fill="#009" r="16" stroke="#009" stroke-width="5" /><circle cx="3775.0" cy="293.0" fill="#009" r="16" stroke="#009" stroke-width="5" /></svg>