<?xml version="1.0" encoding="utf-8" ?>
<svg baseProfile="tiny" height="387" version="1.2" viewBox="0 0 9015 3415" width="1024" xmlns="http://www.w3.org/2000/svg" xmlns:ev="http://www.w3.org/2001/xml-events" xmlns:xlink="http://www.w3.org/1999/xlink"><defs /><line stroke="#999" stroke-width="3" x1="2181.0" x2="2693.0" y1="2741.0" y2="2805.0" /><line stroke="#999" stroke-width="3" x1="3973.0" x2="3973.0" y1="2165.0" y2="1845.0" /><line stroke="#999" stroke-width="3" x1="3973.0" x2="3717.0" y1="1397.0" y2="949.0" /><line stroke="#999" stroke-width="3" x1="2181.0" x2="1861.0" y1="885.0" y2="1077.0" /><line stroke="#333" stroke-width="10" x1="3973.0" x2="4165.0" y1="2165.0" y2="2293.0" /><line stroke="#999" stroke-width="3" x1="4869.0" x2="4869.0" y1="2421.0" y2="1141.0" /><line stroke="#333" stroke-width="10" x1="4869.0" x2="4549.0" y1="1141.0" y2="1269.0" /><line stroke="#999" stroke-width="3" x1="1733.0" x2="1733.0" y1="1781.0" y2="1845.0" /><line stroke="#999" stroke-width="3" x1="1733.0" x2="1733.0" y1="1845.0" y2="2101.0" /><line stroke="#333" stroke-width="10" x1="1733.0" x2="197.0" y1="1781.0" y2="1781.0" /><line stroke="#333" stroke-width="10" x1="5.0" x2="5.0" y1="1781.0" y2="1845.0" /><line stroke="#333" stroke-width="10" x1="5.0" x2="69.0" y1="1845.0" y2="1909.0" /><line stroke="#999" stroke-width="3" x1="1733.0" x2="1861.0" y1="2101.0" y2="2549.0" /><line stroke="#999" stroke-width="3" x1="1861.0" x2="2181.0" y1="2549.0" y2="2741.0" /><line stroke="#999" stroke-width="3" x1="1861.0" x2="1733.0" y1="1077.0" y2="1525.0" /><line stroke="#999" stroke-width="3" x1="1733.0" x2="1733.0" y1="1525.0" y2="1781.0" /><line stroke="#999" stroke-width="3" x1="2693.0" x2="3141.0" y1="2805.0" y2="2805.0" /><line stroke="#999" stroke-width="3" x1="2693.0" x2="2181.0" y1="757.0" y2="885.0" /><line stroke="#999" stroke-width="3" x1="3141.0" x2="3717.0" y1="2805.0" y2="2613.0" /><line stroke="#999" stroke-width="3" x1="3717.0" x2="3973.0" y1="2613.0" y2="2165.0" /><line stroke="#999" stroke-width="3" x1="3717.0" x2="3141.0" y1="949.0" y2="757.0" /><line stroke="#999" stroke-width="3" x1="3141.0" x2="2693.0" y1="757.0" y2="757.0" /><line stroke="#999" stroke-width="3" x1="3141.0" x2="2501.0" y1="2549.0" y2="2549.0" /><line stroke="#999" stroke-width="3" x1="3717.0" x2="3525.0" y1="2165.0" y2="2421.0" /><line stroke="#999" stroke-width="3" x1="1989.0" x2="2117.0" y1="1589.0" y2="1205.0" /><line stroke="#999" stroke-width="3" x1="2117.0" x2="1989.0" y1="2421.0" y2="2037.0" /><line stroke="#999" stroke-width="3" x1="3525.0" x2="3141.0" y1="2421.0" y2="2549.0" /><line stroke="#999" stroke-width="3" x1="2501.0" x2="2117.0" y1="2549.0" y2="2421.0" /><line stroke="#999" stroke-width="3" x1="1989.0" x2="1989.0" y1="2037.0" y2="1589.0" /><line stroke="#999" stroke-width="3" x1="2693.0" x2="3141.0" y1="1013.0" y2="1013.0" /><line stroke="#999" stroke-width="3" x1="3525.0" x2="3717.0" y1="1141.0" y2="1397.0" /><line stroke="#999" stroke-width="3" x1="3717.0" x2="3717.0" y1="1397.0" y2="2165.0" /><line stroke="#999" stroke-width="3" x1="2117.0" x2="2693.0" y1="1205.0" y2="1013.0" /><line stroke="#999" stroke-width="3" x1="3141.0" x2="3525.0" y1="1013.0" y2="1141.0" /><line stroke="#333" stroke-width="10" x1="4869.0" x2="4933.0" y1="2421.0" y2="2421.0" /><line stroke="#999" stroke-width="3" x1="4933.0" x2="4933.0" y1="1141.0" y2="2421.0" /><line stroke="#333" stroke-width="10" x1="4933.0" x2="4869.0" y1="1141.0" y2="1141.0" /><line stroke="#333" stroke-width="10" x1="4933.0" x2="4997.0" y1="2421.0" y2="2421.0" /><line stroke="#666" stroke-width="20" x1="4997.0" x2="4997.0" y1="2421.0" y2="1141.0" /><line stroke="#333" stroke-width="10" x1="4997.0" x2="4933.0" y1="1141.0" y2="1141.0" /><line stroke="#333" stroke-width="10" x1="4997.0" x2="5342.0" y1="2421.0" y2="3404.0" /><line stroke="#333" stroke-width="10" x1="6780.0" x2="8166.0" y1="3410.0" y2="3153.0" /><line stroke="#333" stroke-width="10" x1="6901.0" x2="5342.0" y1="5.0" y2="33.0" /><line stroke="#333" stroke-width="10" x1="4165.0" x2="4549.0" y1="2293.0" y2="2293.0" /><line stroke="#333" stroke-width="10" x1="4549.0" x2="4869.0" y1="2293.0" y2="2421.0" /><line stroke="#333" stroke-width="10" x1="4549.0" x2="4165.0" y1="1269.0" y2="1269.0" /><line stroke="#333" stroke-width="10" x1="4165.0" x2="3973.0" y1="1269.0" y2="1397.0" /><line stroke="#333" stroke-width="10" x1="5342.0" x2="4997.0" y1="33.0" y2="1141.0" /><line stroke="#333" stroke-width="10" x1="5342.0" x2="6780.0" y1="3404.0" y2="3410.0" /><line stroke="#333" stroke-width="10" x1="9009.0" x2="8383.0" y1="1506.0" y2="395.0" /><line stroke="#333" stroke-width="10" x1="8383.0" x2="6901.0" y1="395.0" y2="5.0" /><line stroke="#333" stroke-width="10" x1="8166.0" x2="9010.0" y1="3153.0" y2="1994.0" /><line stroke="#666" stroke-width="20" x1="9010.0" x2="9009.0" y1="1994.0" y2="1506.0" /><line stroke="#666" stroke-width="20" x1="3973.0" x2="3973.0" y1="1845.0" y2="1717.0" /><line stroke="#999" stroke-width="3" x1="3973.0" x2="3973.0" y1="1717.0" y2="1397.0" /><line stroke="#333" stroke-width="10" x1="197.0" x2="1733.0" y1="1845.0" y2="1845.0" /><line stroke="#333" stroke-width="10" x1="197.0" x2="69.0" y1="1781.0" y2="1717.0" /><line stroke="#333" stroke-width="10" x1="69.0" x2="5.0" y1="1717.0" y2="1781.0" /><line stroke="#333" stroke-width="10" x1="69.0" x2="197.0" y1="1909.0" y2="1845.0" /><ellipse cx="69.0" cy="1781.0" fill="#009" rx="12" ry="24" stroke="#009" stroke-width="5" /><circle cx="2847.0" cy="1779.0" fill="#900" r="16" stroke="#900" stroke-width="5" /><circle cx="8822.0" cy="1740.0" fill="#900" r="16" stroke="#900" stroke-width="5" /><circle cx="8469.0" cy="1704.0" fill="#090" r="16" stroke="#090" stroke-width="5" /><circle cx="8606.0" cy="1809.0" fill="#090" r="16" stroke="#090" stroke-width="5" /><circle cx="8783.0" cy="1908.0" fill="#090" r="16" stroke="#090" stroke-width="5" /><circle cx="8582.0" cy="1561.0" fill="#090" r="16" stroke="#090" stroke-width="5" /><circle cx="8802.0" cy="1503.0" fill="#090" r="16" stroke="#090" stroke-width="5" /><circle cx="2909.0" cy="1965.0" fill="#090" r="16" stroke="#090" stroke-width="5" /><circle cx="2711.0" cy="1965.0" fill="#090" r="16" stroke="#090" stroke-width="5" /><circle cx="2634.0" cy="1790.0" fill="#090" r="16" stroke="#090" stroke-width="5" /><circle cx="2656.0" cy="1614.0" fill="#090" r="16" stroke="#090" stroke-width="5" /><circle cx="2777.0" cy="1527.0" fill="#090" r="16" stroke="#090" stroke-width="5" /><circle cx="2942.0" cy="1559.0" fill="#090" r="16" stroke="#090" stroke-width="5" /><circle cx="3018.0" cy="1702.0" fill="#090" r="16" stroke="#090" stroke-width="5" /><circle cx="3007.0" cy="1856.0" fill="#090" r="16" stroke="#090" stroke-width="5" /><circle cx="2952.0" cy="2679.0" fill="#009" r="16" stroke="#009" stroke-width="5" /><circle cx="2909.0" cy="868.0" fill="#009" r="16" stroke="#009" stroke-width="5" /><circle cx="8026.0" cy="2952.0" fill="#009" r="16" stroke="#009" stroke-width="5" /><circle cx="8253.0" cy="545.0" fill="#009" r="16" stroke="#009" stroke-width="5" /><rect fill="#090" height="24" stroke="#090" stroke-width="5" transform="rotate(180,2847.0,2131.0)" width="24" x="2835.0" y="2119.0" /><rect fill="#090" height="24" stroke="#090" stroke-width="5" transform="rotate(180,2364.0,1736.0)" width="24" x="2352.0" y="1724.0" /><rect fill="#090" height="24" stroke="#090" stroke-width="5" transform="rotate(180,2891.0,1286.0)" width="24" x="2879.0" y="1274.0" /><rect fill="#090" height="24" stroke="#090" stroke-width="5" transform="rotate(180,3264.0,1747.0)" width="24" x="3252.0" y="1735.0" /><rect fill="#090" height="24" stroke="#090" stroke-width="5" transform="rotate(180,3318.0,2636.0)" width="24" x="3306.0" y="2624.0" /><rect fill="#090" height="24" stroke="#090" stroke-width="5" transform="rotate(180,3724.0,2362.0)" width="24" x="3712.0" y="2350.0" /><rect fill="#090" height="24" stroke="#090" stroke-width="5" transform="rotate(180,2661.0,2680.0)" width="24" x="2649.0" y="2668.0" /><rect fill="#090" height="24" stroke="#090" stroke-width="5" transform="rotate(180,2266.0,2603.0)" width="24" x="2254.0" y="2591.0" /><rect fill="#090" height="24" stroke="#090" stroke-width="5" transform="rotate(180,1860.0,2131.0)" width="24" x="1848.0" y="2119.0" /><rect fill="#090" height="24" stroke="#090" stroke-width="5" transform="rotate(180,1838.0,1572.0)" width="24" x="1826.0" y="1560.0" /><rect fill="#090" height="24" stroke="#090" stroke-width="5" transform="rotate(180,2090.0,1078.0)" width="24" x="2078.0" y="1066.0" /><rect fill="#090" height="24" stroke="#090" stroke-width="5" transform="rotate(180,2672.0,891.0)" width="24" x="2660.0" y="879.0" /><rect fill="#090" height="24" stroke="#090" stroke-width="5" transform="rotate(180,3121.0,869.0)" width="24" x="3109.0" y="857.0" /><rect fill="#090" height="24" stroke="#090" stroke-width="5" transform="rotate(180,3570.0,1045.0)" width="24" x="3558.0" y="1033.0" /><rect fill="#090" height="24" stroke="#090" stroke-width="5" transform="rotate(180,3834.0,1418.0)" width="24" x="3822.0" y="1406.0" /><rect fill="#090" height="24" stroke="#090" stroke-width="5" transform="rotate(180,3834.0,2032.0)" width="24" x="3822.0" y="2020.0" /><rect fill="#900" height="48" stroke="#900" stroke-width="5" transform="rotate(180,5779.0,2021.0)" width="32" x="5763.0" y="1997.0" /><rect fill="#900" height="48" stroke="#900" stroke-width="5" transform="rotate(180,5707.0,1435.0)" width="32" x="5691.0" y="1411.0" /><rect fill="#900" height="48" stroke="#900" stroke-width="5" transform="rotate(180,5521.0,2507.0)" width="32" x="5505.0" y="2483.0" /><rect fill="#900" height="48" stroke="#900" stroke-width="5" transform="rotate(180,5450.0,920.0)" width="32" x="5434.0" y="896.0" /><rect fill="#900" height="48" stroke="#900" stroke-width="5" transform="rotate(180,6465.0,1106.0)" width="32" x="6449.0" y="1082.0" /><rect fill="#900" height="48" stroke="#900" stroke-width="5" transform="rotate(180,6207.0,421.0)" width="32" x="6191.0" y="397.0" /><rect fill="#900" height="48" stroke="#900" stroke-width="5" transform="rotate(180,6393.0,1663.0)" width="32" x="6377.0" y="1639.0" /><rect fill="#900" height="48" stroke="#900" stroke-width="5" transform="rotate(180,6393.0,2278.0)" width="32" x="6377.0" y="2254.0" /><rect fill="#900" height="48" stroke="#900" stroke-width="5" transform="rotate(180,6379.0,2850.0)" width="32" x="6363.0" y="2826.0" /><rect fill="#900" height="48" stroke="#900" stroke-width="5" transform="rotate(180,7165.0,2907.0)" width="32" x="7149.0" y="2883.0" /><rect fill="#900" height="48" stroke="#900" stroke-width="5" transform="rotate(180,7851.0,2564.0)" width="32" x="7835.0" y="2540.0" /><rect fill="#900" height="48" stroke="#900" stroke-width="5" transform="rotate(180,8109.0,1992.0)" width="32" x="8093.0" y="1968.0" /><rect fill="#900" height="48" stroke="#900" stroke-width="5" transform="rotate(180,8080.0,1449.0)" width="32" x="8064.0" y="1425.0" /><rect fill="#900" height="48" stroke="#900" stroke-width="5" transform="rotate(180,8008.0,920.0)" width="32" x="7992.0" y="896.0" /><rect fill="#900" height="48" stroke="#900" stroke-width="5" transform="rotate(180,7308.0,549.0)" width="32" x="7292.0" y="525.0" /><rect fill="#900" height="48" stroke="#900" stroke-width="5" transform="rotate(180,7208.0,1192.0)" width="32" x="7192.0" y="1168.0" /><rect fill="#900" height="48" stroke="#900" stroke-width="5" transform="rotate(180,7137.0,2249.0)" width="32" x="7121.0" y="2225.0" /><rect fill="#900" height="48" stroke="#900" stroke-width="5" transform="rotate(180,7151.0,1663.0)" width="32" x="7135.0" y="1639.0" /></svg>