<?xml version="1.0" encoding="utf-8" ?>
<svg baseProfile="tiny" height="618" version="1.2" viewBox="0 0 6794 4106" width="1024" xmlns="http://www.w3.org/2000/svg" xmlns:ev="http://www.w3.org/2001/xml-events" xmlns:xlink="http://www.w3.org/1999/xlink"><defs /><line stroke="#333" stroke-width="10" x1="1989.0" x2="2053.0" y1="1157.0" y2="1157.0" /><line stroke="#333" stroke-width="10" x1="2501.0" x2="2501.0" y1="1157.0" y2="1029.0" /><line stroke="#0d0" stroke-width="20" x1="2501.0" x2="1989.0" y1="645.0" y2="645.0" /><line stroke="#333" stroke-width="10" x1="1989.0" x2="1989.0" y1="645.0" y2="773.0" /><line stroke="#333" stroke-width="10" x1="2757.0" x2="3205.0" y1="1157.0" y2="1157.0" /><line stroke="#333" stroke-width="10" x1="3205.0" x2="3205.0" y1="1157.0" y2="645.0" /><line stroke="#333" stroke-width="10" x1="3205.0" x2="2757.0" y1="645.0" y2="645.0" /><line stroke="#333" stroke-width="10" x1="2757.0" x2="2757.0" y1="645.0" y2="773.0" /><line stroke="#333" stroke-width="10" x1="1221.0" x2="1669.0" y1="1157.0" y2="1157.0" /><line stroke="#333" stroke-width="10" x1="1669.0" x2="1669.0" y1="1157.0" y2="1029.0" /><line stroke="#333" stroke-width="10" x1="1669.0" x2="1221.0" y1="645.0" y2="645.0" /><line stroke="#333" stroke-width="10" x1="1221.0" x2="1221.0" y1="645.0" y2="1157.0" /><line stroke="#333" stroke-width="10" x1="1669.0" x2="1989.0" y1="1029.0" y2="1029.0" /><line stroke="#333" stroke-width="10" x1="1989.0" x2="1669.0" y1="773.0" y2="773.0" /><line stroke="#333" stroke-width="10" x1="1989.0" x2="1989.0" y1="1029.0" y2="1157.0" /><line stroke="#333" stroke-width="10" x1="2501.0" x2="2757.0" y1="1029.0" y2="1029.0" /><line stroke="#333" stroke-width="10" x1="2757.0" x2="2501.0" y1="773.0" y2="773.0" /><line stroke="#333" stroke-width="10" x1="2757.0" x2="2757.0" y1="1029.0" y2="1157.0" /><line stroke="#333" stroke-width="10" x1="2501.0" x2="2501.0" y1="773.0" y2="645.0" /><line stroke="#333" stroke-width="10" x1="1669.0" x2="1669.0" y1="773.0" y2="645.0" /><line stroke="#333" stroke-width="10" x1="2053.0" x2="2181.0" y1="2053.0" y2="2053.0" /><line stroke="#333" stroke-width="10" x1="2437.0" x2="2437.0" y1="2053.0" y2="1285.0" /><line stroke="#333" stroke-width="10" x1="2437.0" x2="2501.0" y1="1157.0" y2="1157.0" /><line stroke="#333" stroke-width="10" x1="2053.0" x2="2053.0" y1="1285.0" y2="2053.0" /><line stroke="#999" stroke-width="3" x1="2053.0" x2="2437.0" y1="1285.0" y2="1285.0" /><line stroke="#333" stroke-width="10" x1="2437.0" x2="2437.0" y1="1285.0" y2="1221.0" /><line stroke="#999" stroke-width="3" x1="2437.0" x2="2053.0" y1="1221.0" y2="1221.0" /><line stroke="#333" stroke-width="10" x1="2053.0" x2="2053.0" y1="1221.0" y2="1285.0" /><line stroke="#333" stroke-width="10" x1="2437.0" x2="2437.0" y1="1221.0" y2="1157.0" /><line stroke="#333" stroke-width="10" x1="2053.0" x2="2053.0" y1="1157.0" y2="1221.0" /><line stroke="#333" stroke-width="10" x1="2181.0" x2="2309.0" y1="2181.0" y2="2181.0" /><line stroke="#333" stroke-width="10" x1="2309.0" x2="2309.0" y1="2181.0" y2="2053.0" /><line stroke="#333" stroke-width="10" x1="2181.0" x2="2181.0" y1="2053.0" y2="2181.0" /><line stroke="#333" stroke-width="10" x1="2309.0" x2="2437.0" y1="2053.0" y2="2053.0" /><line stroke="#333" stroke-width="10" x1="5.0" x2="6789.0" y1="4101.0" y2="4101.0" /><line stroke="#333" stroke-width="10" x1="6789.0" x2="6789.0" y1="4101.0" y2="5.0" /><line stroke="#333" stroke-width="10" x1="6789.0" x2="5.0" y1="5.0" y2="5.0" /><line stroke="#333" stroke-width="10" x1="5.0" x2="5.0" y1="5.0" y2="4101.0" /><line stroke="#999" stroke-width="3" x1="2693.0" x2="2565.0" y1="773.0" y2="773.0" /><line stroke="#999" stroke-width="3" x1="2565.0" x2="2693.0" y1="773.0" y2="773.0" /><line stroke="#999" stroke-width="3" x1="2693.0" x2="2565.0" y1="837.0" y2="837.0" /><line stroke="#999" stroke-width="3" x1="2693.0" x2="2693.0" y1="773.0" y2="837.0" /><line stroke="#999" stroke-width="3" x1="2565.0" x2="2693.0" y1="773.0" y2="773.0" /><line stroke="#999" stroke-width="3" x1="2565.0" x2="2565.0" y1="837.0" y2="773.0" /><ellipse cx="2053.0" cy="709.0" fill="#009" rx="12" ry="24" stroke="#009" stroke-width="5" /><ellipse cx="2181.0" cy="709.0" fill="#009" rx="12" ry="24" stroke="#009" stroke-width="5" /><ellipse cx="2309.0" cy="709.0" fill="#009" rx="12" ry="24" stroke="#009" stroke-width="5" /><ellipse cx="2437.0" cy="709.0" fill="#009" rx="12" ry="24" stroke="#009" stroke-width="5" /><circle cx="3141.0" cy="709.0" fill="#090" r="16" stroke="#090" stroke-width="5" /><circle cx="3077.0" cy="709.0" fill="#090" r="16" stroke="#090" stroke-width="5" /><circle cx="3013.0" cy="709.0" fill="#090" r="16" stroke="#090" stroke-width="5" /><circle cx="2949.0" cy="709.0" fill="#090" r="16" stroke="#090" stroke-width="5" /><circle cx="2885.0" cy="709.0" fill="#090" r="16" stroke="#090" stroke-width="5" /><circle cx="2821.0" cy="709.0" fill="#090" r="16" stroke="#090" stroke-width="5" /><circle cx="3141.0" cy="1093.0" fill="#090" r="16" stroke="#090" stroke-width="5" /><circle cx="3077.0" cy="1093.0" fill="#090" r="16" stroke="#090" stroke-width="5" /><circle cx="3013.0" cy="1093.0" fill="#090" r="16" stroke="#090" stroke-width="5" /><circle cx="2949.0" cy="1093.0" fill="#090" r="16" stroke="#090" stroke-width="5" /><circle cx="2885.0" cy="1093.0" fill="#090" r="16" stroke="#090" stroke-width="5" /><circle cx="2821.0" cy="1093.0" fill="#090" r="16" stroke="#090" stroke-width="5" /><circle cx="3141.0" cy="1029.0" fill="#900" r="16" stroke="#900" stroke-width="5" /><circle cx="3077.0" cy="1029.0" fill="#900" r="16" stroke="#900" stroke-width="5" /><circle cx="3013.0" cy="1029.0" fill="#900" r="16" stroke="#900" stroke-width="5" /><circle cx="2949.0" cy="1029.0" fill="#900" r="16" stroke="#900" stroke-width="5" /><circle cx="2885.0" cy="1029.0" fill="#900" r="16" stroke="#900" stroke-width="5" /><circle cx="2821.0" cy="1029.0" fill="#900" r="16" stroke="#900" stroke-width="5" /><circle cx="3141.0" cy="773.0" fill="#900" r="16" stroke="#900" stroke-width="5" /><circle cx="3077.0" cy="773.0" fill="#900" r="16" stroke="#900" stroke-width="5" /><circle cx="3013.0" cy="773.0" fill="#900" r="16" stroke="#900" stroke-width="5" /><circle cx="2949.0" cy="773.0" fill="#900" r="16" stroke="#900" stroke-width="5" /><circle cx="2885.0" cy="773.0" fill="#900" r="16" stroke="#900" stroke-width="5" /><circle cx="2821.0" cy="773.0" fill="#900" r="16" stroke="#900" stroke-width="5" /><rect fill="#090" height="24" stroke="#090" stroke-width="5" transform="rotate(90,3141.0,965.0)" width="24" x="3129.0" y="953.0" /><rect fill="#090" height="24" stroke="#090" stroke-width="5" transform="rotate(90,3141.0,901.0)" width="24" x="3129.0" y="889.0" /><rect fill="#090" height="24" stroke="#090" stroke-width="5" transform="rotate(90,3141.0,837.0)" width="24" x="3129.0" y="825.0" /><circle cx="1605.0" cy="1029.0" fill="#900" r="16" stroke="#900" stroke-width="5" /><circle cx="1541.0" cy="1029.0" fill="#900" r="16" stroke="#900" stroke-width="5" /><circle cx="1477.0" cy="1029.0" fill="#900" r="16" stroke="#900" stroke-width="5" /><circle cx="1413.0" cy="1029.0" fill="#900" r="16" stroke="#900" stroke-width="5" /><circle cx="1349.0" cy="1029.0" fill="#900" r="16" stroke="#900" stroke-width="5" /><circle cx="1285.0" cy="1029.0" fill="#900" r="16" stroke="#900" stroke-width="5" /><circle cx="1413.0" cy="1093.0" fill="#090" r="16" stroke="#090" stroke-width="5" /><circle cx="1605.0" cy="1093.0" fill="#090" r="16" stroke="#090" stroke-width="5" /><circle cx="1541.0" cy="1093.0" fill="#090" r="16" stroke="#090" stroke-width="5" /><circle cx="1477.0" cy="1093.0" fill="#090" r="16" stroke="#090" stroke-width="5" /><circle cx="1349.0" cy="1093.0" fill="#090" r="16" stroke="#090" stroke-width="5" /><circle cx="1285.0" cy="1093.0" fill="#090" r="16" stroke="#090" stroke-width="5" /><rect fill="#090" height="24" stroke="#090" stroke-width="5" transform="rotate(0,1285.0,965.0)" width="24" x="1273.0" y="953.0" /><rect fill="#090" height="24" stroke="#090" stroke-width="5" transform="rotate(0,1285.0,901.0)" width="24" x="1273.0" y="889.0" /><rect fill="#090" height="24" stroke="#090" stroke-width="5" transform="rotate(0,1285.0,837.0)" width="24" x="1273.0" y="825.0" /><circle cx="1285.0" cy="773.0" fill="#900" r="16" stroke="#900" stroke-width="5" /><circle cx="1349.0" cy="773.0" fill="#900" r="16" stroke="#900" stroke-width="5" /><circle cx="1413.0" cy="773.0" fill="#900" r="16" stroke="#900" stroke-width="5" /><circle cx="1477.0" cy="773.0" fill="#900" r="16" stroke="#900" stroke-width="5" /><circle cx="1541.0" cy="773.0" fill="#900" r="16" stroke="#900" stroke-width="5" /><circle cx="1605.0" cy="773.0" fill="#900" r="16" stroke="#900" stroke-width="5" /><circle cx="1285.0" cy="709.0" fill="#090" r="16" stroke="#090" stroke-width="5" /><circle cx="1349.0" cy="709.0" fill="#090" r="16" stroke="#090" stroke-width="5" /><circle cx="1413.0" cy="709.0" fill="#090" r="16" stroke="#090" stroke-width="5" /><circle cx="1477.0" cy="709.0" fill="#090" r="16" stroke="#090" stroke-width="5" /><circle cx="1541.0" cy="709.0" fill="#090" r="16" stroke="#090" stroke-width="5" /><circle cx="1605.0" cy="709.0" fill="#090" r="16" stroke="#090" stroke-width="5" /><rect fill="#090" height="24" stroke="#090" stroke-width="5" transform="rotate(0,2053.0,1093.0)" width="24" x="2041.0" y="1081.0" /><rect fill="#090" height="24" stroke="#090" stroke-width="5" transform="rotate(0,2437.0,1093.0)" width="24" x="2425.0" y="1081.0" /><rect fill="#090" height="24" stroke="#090" stroke-width="5" transform="rotate(0,2117.0,1989.0)" width="24" x="2105.0" y="1977.0" /><rect fill="#090" height="24" stroke="#090" stroke-width="5" transform="rotate(0,2117.0,1925.0)" width="24" x="2105.0" y="1913.0" /><rect fill="#090" height="24" stroke="#090" stroke-width="5" transform="rotate(0,2373.0,1925.0)" width="24" x="2361.0" y="1913.0" /><rect fill="#090" height="24" stroke="#090" stroke-width="5" transform="rotate(0,2373.0,1989.0)" width="24" x="2361.0" y="1977.0" /><rect fill="#090" height="24" stroke="#090" stroke-width="5" transform="rotate(0,2117.0,1861.0)" width="24" x="2105.0" y="1849.0" /><rect fill="#090" height="24" stroke="#090" stroke-width="5" transform="rotate(0,2245.0,1029.0)" width="24" x="2233.0" y="1017.0" /><rect fill="#090" height="24" stroke="#090" stroke-width="5" transform="rotate(0,2245.0,1093.0)" width="24" x="2233.0" y="1081.0" /><rect fill="#090" height="24" stroke="#090" stroke-width="5" transform="rotate(0,3077.0,901.0)" width="24" x="3065.0" y="889.0" /><rect fill="#090" height="24" stroke="#090" stroke-width="5" transform="rotate(0,1349.0,901.0)" width="24" x="1337.0" y="889.0" /><rect fill="#090" height="24" stroke="#090" stroke-width="5" transform="rotate(0,2373.0,1861.0)" width="24" x="2361.0" y="1849.0" /><rect fill="#090" height="24" stroke="#090" stroke-width="5" transform="rotate(0,2117.0,1797.0)" width="24" x="2105.0" y="1785.0" /><rect fill="#090" height="24" stroke="#090" stroke-width="5" transform="rotate(0,2373.0,1797.0)" width="24" x="2361.0" y="1785.0" /><ellipse cx="2117.0" cy="1605.0" fill="#900" rx="12" ry="24" stroke="#900" stroke-width="5" /><ellipse cx="2117.0" cy="1669.0" fill="#900" rx="12" ry="24" stroke="#900" stroke-width="5" /><ellipse cx="2373.0" cy="1733.0" fill="#900" rx="12" ry="24" stroke="#900" stroke-width="5" /><ellipse cx="2117.0" cy="1541.0" fill="#900" rx="12" ry="24" stroke="#900" stroke-width="5" /><ellipse cx="2117.0" cy="1477.0" fill="#900" rx="12" ry="24" stroke="#900" stroke-width="5" /><ellipse cx="2117.0" cy="1733.0" fill="#900" rx="12" ry="24" stroke="#900" stroke-width="5" /><ellipse cx="2373.0" cy="1669.0" fill="#900" rx="12" ry="24" stroke="#900" stroke-width="5" /><ellipse cx="2373.0" cy="1605.0" fill="#900" rx="12" ry="24" stroke="#900" stroke-width="5" /><ellipse cx="2373.0" cy="1541.0" fill="#900" rx="12" ry="24" stroke="#900" stroke-width="5" /><ellipse cx="2373.0" cy="1477.0" fill="#900" rx="12" ry="24" stroke="#900" stroke-width="5" /><rect fill="#090" height="24" stroke="#090" stroke-width="5" transform="rotate(0,2309.0,1541.0)" width="24" x="2297.0" y="1529.0" /><rect fill="#090" height="24" stroke="#090" stroke-width="5" transform="rotate(0,2181.0,1413.0)" width="24" x="2169.0" y="1401.0" /><rect fill="#900" height="48" stroke="#900" stroke-width="5" transform="rotate(0,2245.0,2117.0)" width="32" x="2229.0" y="2093.0" /><rect fill="#900" height="48" stroke="#900" stroke-width="5" transform="rotate(0,2309.0,1925.0)" width="32" x="2293.0" y="1901.0" /><rect fill="#900" height="48" stroke="#900" stroke-width="5" transform="rotate(0,2181.0,1925.0)" width="32" x="2165.0" y="1901.0" /><rect fill="#900" height="48" stroke="#900" stroke-width="5" transform="rotate(0,2245.0,1989.0)" width="32" x="2229.0" y="1965.0" /><circle cx="1349.0" cy="965.0" fill="#090" r="16" stroke="#090" stroke-width="5" /><circle cx="1413.0" cy="965.0" fill="#090" r="16" stroke="#090" stroke-width="5" /><circle cx="1477.0" cy="965.0" fill="#090" r="16" stroke="#090" stroke-width="5" /><circle cx="1541.0" cy="965.0" fill="#090" r="16" stroke="#090" stroke-width="5" /><circle cx="1605.0" cy="965.0" fill="#090" r="16" stroke="#090" stroke-width="5" /><circle cx="1413.0" cy="901.0" fill="#090" r="16" stroke="#090" stroke-width="5" /><circle cx="1477.0" cy="901.0" fill="#090" r="16" stroke="#090" stroke-width="5" /><circle cx="1541.0" cy="901.0" fill="#090" r="16" stroke="#090" stroke-width="5" /><circle cx="1605.0" cy="901.0" fill="#090" r="16" stroke="#090" stroke-width="5" /><circle cx="1605.0" cy="837.0" fill="#090" r="16" stroke="#090" stroke-width="5" /><circle cx="1541.0" cy="837.0" fill="#090" r="16" stroke="#090" stroke-width="5" /><circle cx="1477.0" cy="837.0" fill="#090" r="16" stroke="#090" stroke-width="5" /><circle cx="1413.0" cy="837.0" fill="#090" r="16" stroke="#090" stroke-width="5" /><circle cx="1349.0" cy="837.0" fill="#090" r="16" stroke="#090" stroke-width="5" /><circle cx="3077.0" cy="965.0" fill="#009" r="16" stroke="#009" stroke-width="5" /><circle cx="3077.0" cy="837.0" fill="#009" r="16" stroke="#009" stroke-width="5" /><circle cx="3013.0" cy="837.0" fill="#009" r="16" stroke="#009" stroke-width="5" /><circle cx="3013.0" cy="901.0" fill="#009" r="16" stroke="#009" stroke-width="5" /><circle cx="3013.0" cy="965.0" fill="#009" r="16" stroke="#009" stroke-width="5" /><circle cx="2949.0" cy="965.0" fill="#009" r="16" stroke="#009" stroke-width="5" /><circle cx="2949.0" cy="901.0" fill="#009" r="16" stroke="#009" stroke-width="5" /><circle cx="2949.0" cy="837.0" fill="#009" r="16" stroke="#009" stroke-width="5" /><circle cx="2885.0" cy="837.0" fill="#009" r="16" stroke="#009" stroke-width="5" /><circle cx="2885.0" cy="901.0" fill="#009" r="16" stroke="#009" stroke-width="5" /><circle cx="2885.0" cy="965.0" fill="#009" r="16" stroke="#009" stroke-width="5" /><circle cx="2821.0" cy="965.0" fill="#009" r="16" stroke="#009" stroke-width="5" /><circle cx="2821.0" cy="901.0" fill="#009" r="16" stroke="#009" stroke-width="5" /><circle cx="2821.0" cy="837.0" fill="#009" r="16" stroke="#009" stroke-width="5" /><circle cx="2053.0" cy="709.0" fill="#009" r="16" stroke="#009" stroke-width="5" /><circle cx="2181.0" cy="709.0" fill="#009" r="16" stroke="#009" stroke-width="5" /><circle cx="2309.0" cy="709.0" fill="#009" r="16" stroke="#009" stroke-width="5" /><circle cx="2437.0" cy="709.0" fill="#009" r="16" stroke="#009" stroke-width="5" /></svg>