<?xml version="1.0" encoding="utf-8" ?>
<svg baseProfile="tiny" height="1024" version="1.2" viewBox="0 0 1754 2826" width="635" xmlns="http://www.w3.org/2000/svg" xmlns:ev="http://www.w3.org/2001/xml-events" xmlns:xlink="http://www.w3.org/1999/xlink"><defs /><line stroke="#333" stroke-width="10" x1="277.0" x2="277.0" y1="5.0" y2="69.0" /><line stroke="#333" stroke-width="10" x1="277.0" x2="213.0" y1="69.0" y2="133.0" /><line stroke="#333" stroke-width="10" x1="213.0" x2="213.0" y1="133.0" y2="261.0" /><line stroke="#333" stroke-width="10" x1="213.0" x2="277.0" y1="261.0" y2="325.0" /><line stroke="#666" stroke-width="20" x1="277.0" x2="341.0" y1="389.0" y2="389.0" /><line stroke="#333" stroke-width="10" x1="341.0" x2="341.0" y1="389.0" y2="325.0" /><line stroke="#333" stroke-width="10" x1="341.0" x2="405.0" y1="325.0" y2="261.0" /><line stroke="#333" stroke-width="10" x1="405.0" x2="405.0" y1="261.0" y2="133.0" /><line stroke="#333" stroke-width="10" x1="405.0" x2="341.0" y1="133.0" y2="69.0" /><line stroke="#333" stroke-width="10" x1="341.0" x2="277.0" y1="5.0" y2="5.0" /><line stroke="#333" stroke-width="10" x1="341.0" x2="341.0" y1="69.0" y2="5.0" /><line stroke="#999" stroke-width="3" x1="277.0" x2="341.0" y1="69.0" y2="69.0" /><line stroke="#999" stroke-width="3" x1="341.0" x2="277.0" y1="325.0" y2="325.0" /><line stroke="#666" stroke-width="20" x1="277.0" x2="277.0" y1="389.0" y2="405.0" /><line stroke="#666" stroke-width="20" x1="341.0" x2="277.0" y1="405.0" y2="405.0" /><line stroke="#666" stroke-width="20" x1="341.0" x2="341.0" y1="405.0" y2="389.0" /><line stroke="#333" stroke-width="10" x1="277.0" x2="213.0" y1="405.0" y2="469.0" /><line stroke="#333" stroke-width="10" x1="213.0" x2="213.0" y1="469.0" y2="501.0" /><line stroke="#333" stroke-width="10" x1="213.0" x2="245.0" y1="597.0" y2="629.0" /><line stroke="#0d0" stroke-width="20" x1="277.0" x2="341.0" y1="661.0" y2="661.0" /><line stroke="#333" stroke-width="10" x1="341.0" x2="373.0" y1="661.0" y2="629.0" /><line stroke="#333" stroke-width="10" x1="405.0" x2="405.0" y1="597.0" y2="469.0" /><line stroke="#333" stroke-width="10" x1="405.0" x2="341.0" y1="469.0" y2="405.0" /><line stroke="#999" stroke-width="3" x1="285.0" x2="253.0" y1="621.0" y2="621.0" /><line stroke="#999" stroke-width="3" x1="285.0" x2="285.0" y1="613.0" y2="621.0" /><line stroke="#999" stroke-width="3" x1="253.0" x2="285.0" y1="613.0" y2="613.0" /><line stroke="#999" stroke-width="3" x1="253.0" x2="253.0" y1="621.0" y2="613.0" /><line stroke="#666" stroke-width="20" x1="277.0" x2="277.0" y1="325.0" y2="389.0" /><line stroke="#333" stroke-width="10" x1="261.0" x2="197.0" y1="325.0" y2="325.0" /><line stroke="#666" stroke-width="20" x1="261.0" x2="261.0" y1="389.0" y2="325.0" /><line stroke="#333" stroke-width="10" x1="197.0" x2="261.0" y1="389.0" y2="389.0" /><line stroke="#999" stroke-width="3" x1="197.0" x2="197.0" y1="389.0" y2="325.0" /><line stroke="#666" stroke-width="20" x1="277.0" x2="261.0" y1="325.0" y2="325.0" /><line stroke="#666" stroke-width="20" x1="261.0" x2="277.0" y1="389.0" y2="389.0" /><line stroke="#333" stroke-width="10" x1="197.0" x2="5.0" y1="261.0" y2="261.0" /><line stroke="#333" stroke-width="10" x1="197.0" x2="197.0" y1="325.0" y2="261.0" /><line stroke="#333" stroke-width="10" x1="5.0" x2="197.0" y1="453.0" y2="453.0" /><line stroke="#333" stroke-width="10" x1="5.0" x2="5.0" y1="261.0" y2="453.0" /><line stroke="#333" stroke-width="10" x1="197.0" x2="197.0" y1="453.0" y2="389.0" /><line stroke="#999" stroke-width="3" x1="213.0" x2="405.0" y1="469.0" y2="469.0" /><line stroke="#333" stroke-width="10" x1="245.0" x2="277.0" y1="629.0" y2="661.0" /><line stroke="#333" stroke-width="10" x1="373.0" x2="405.0" y1="629.0" y2="597.0" /><line stroke="#00d" stroke-width="20" x1="245.0" x2="373.0" y1="629.0" y2="629.0" /><line stroke="#999" stroke-width="3" x1="341.0" x2="341.0" y1="901.0" y2="837.0" /><line stroke="#999" stroke-width="3" x1="277.0" x2="341.0" y1="901.0" y2="901.0" /><line stroke="#999" stroke-width="3" x1="277.0" x2="277.0" y1="837.0" y2="901.0" /><line stroke="#999" stroke-width="3" x1="341.0" x2="277.0" y1="837.0" y2="837.0" /><line stroke="#999" stroke-width="3" x1="405.0" x2="429.0" y1="941.0" y2="869.0" /><line stroke="#999" stroke-width="3" x1="205.0" x2="277.0" y1="941.0" y2="989.0" /><line stroke="#999" stroke-width="3" x1="181.0" x2="205.0" y1="869.0" y2="941.0" /><line stroke="#999" stroke-width="3" x1="205.0" x2="181.0" y1="789.0" y2="869.0" /><line stroke="#999" stroke-width="3" x1="277.0" x2="205.0" y1="741.0" y2="789.0" /><line stroke="#333" stroke-width="10" x1="341.0" x2="277.0" y1="741.0" y2="741.0" /><line stroke="#999" stroke-width="3" x1="405.0" x2="341.0" y1="789.0" y2="741.0" /><line stroke="#999" stroke-width="3" x1="429.0" x2="405.0" y1="869.0" y2="789.0" /><line stroke="#333" stroke-width="10" x1="509.0" x2="565.0" y1="1133.0" y2="989.0" /><line stroke="#333" stroke-width="10" x1="381.0" x2="509.0" y1="1229.0" y2="1133.0" /><line stroke="#333" stroke-width="10" x1="229.0" x2="277.0" y1="1229.0" y2="1229.0" /><line stroke="#333" stroke-width="10" x1="101.0" x2="229.0" y1="1133.0" y2="1229.0" /><line stroke="#333" stroke-width="10" x1="53.0" x2="101.0" y1="989.0" y2="1133.0" /><line stroke="#333" stroke-width="10" x1="101.0" x2="53.0" y1="837.0" y2="989.0" /><line stroke="#333" stroke-width="10" x1="229.0" x2="101.0" y1="741.0" y2="837.0" /><line stroke="#333" stroke-width="10" x1="381.0" x2="341.0" y1="741.0" y2="741.0" /><line stroke="#333" stroke-width="10" x1="509.0" x2="381.0" y1="837.0" y2="741.0" /><line stroke="#333" stroke-width="10" x1="565.0" x2="509.0" y1="989.0" y2="837.0" /><line stroke="#333" stroke-width="10" x1="277.0" x2="229.0" y1="741.0" y2="741.0" /><line stroke="#999" stroke-width="3" x1="277.0" x2="341.0" y1="1229.0" y2="1229.0" /><line stroke="#999" stroke-width="3" x1="277.0" x2="277.0" y1="989.0" y2="1229.0" /><line stroke="#333" stroke-width="10" x1="341.0" x2="381.0" y1="1229.0" y2="1229.0" /><line stroke="#999" stroke-width="3" x1="341.0" x2="341.0" y1="1229.0" y2="989.0" /><line stroke="#999" stroke-width="3" x1="341.0" x2="405.0" y1="989.0" y2="941.0" /><line stroke="#666" stroke-width="20" x1="277.0" x2="341.0" y1="989.0" y2="989.0" /><line stroke="#333" stroke-width="10" x1="341.0" x2="341.0" y1="1245.0" y2="1229.0" /><line stroke="#333" stroke-width="10" x1="277.0" x2="277.0" y1="1229.0" y2="1245.0" /><line stroke="#333" stroke-width="10" x1="341.0" x2="341.0" y1="2757.0" y2="1245.0" /><line stroke="#666" stroke-width="20" x1="341.0" x2="277.0" y1="1245.0" y2="1245.0" /><line stroke="#333" stroke-width="10" x1="277.0" x2="277.0" y1="1245.0" y2="2757.0" /><line stroke="#999" stroke-width="3" x1="293.0" x2="293.0" y1="613.0" y2="605.0" /><line stroke="#999" stroke-width="3" x1="293.0" x2="325.0" y1="605.0" y2="605.0" /><line stroke="#999" stroke-width="3" x1="325.0" x2="325.0" y1="605.0" y2="613.0" /><line stroke="#999" stroke-width="3" x1="325.0" x2="293.0" y1="613.0" y2="613.0" /><line stroke="#999" stroke-width="3" x1="333.0" x2="333.0" y1="621.0" y2="613.0" /><line stroke="#999" stroke-width="3" x1="333.0" x2="365.0" y1="613.0" y2="613.0" /><line stroke="#999" stroke-width="3" x1="365.0" x2="365.0" y1="613.0" y2="621.0" /><line stroke="#999" stroke-width="3" x1="365.0" x2="333.0" y1="621.0" y2="621.0" /><line stroke="#333" stroke-width="10" x1="277.0" x2="437.0" y1="2821.0" y2="2821.0" /><line stroke="#333" stroke-width="10" x1="373.0" x2="341.0" y1="2757.0" y2="2757.0" /><line stroke="#333" stroke-width="10" x1="437.0" x2="437.0" y1="2821.0" y2="1317.0" /><line stroke="#333" stroke-width="10" x1="373.0" x2="373.0" y1="1253.0" y2="2757.0" /><line stroke="#333" stroke-width="10" x1="437.0" x2="501.0" y1="1317.0" y2="1317.0" /><line stroke="#999" stroke-width="3" x1="501.0" x2="501.0" y1="1317.0" y2="1253.0" /><line stroke="#333" stroke-width="10" x1="501.0" x2="373.0" y1="1253.0" y2="1253.0" /><line stroke="#666" stroke-width="20" x1="277.0" x2="277.0" y1="2757.0" y2="2821.0" /><line stroke="#333" stroke-width="10" x1="261.0" x2="277.0" y1="2821.0" y2="2821.0" /><line stroke="#666" stroke-width="20" x1="261.0" x2="261.0" y1="2821.0" y2="2757.0" /><line stroke="#333" stroke-width="10" x1="277.0" x2="261.0" y1="2757.0" y2="2757.0" /><line stroke="#333" stroke-width="10" x1="197.0" x2="261.0" y1="2821.0" y2="2821.0" /><line stroke="#333" stroke-width="10" x1="197.0" x2="197.0" y1="2757.0" y2="2821.0" /><line stroke="#333" stroke-width="10" x1="261.0" x2="197.0" y1="2757.0" y2="2757.0" /><line stroke="#333" stroke-width="10" x1="501.0" x2="501.0" y1="1317.0" y2="1413.0" /><line stroke="#333" stroke-width="10" x1="501.0" x2="597.0" y1="1413.0" y2="1413.0" /><line stroke="#999" stroke-width="3" x1="597.0" x2="661.0" y1="1413.0" y2="1413.0" /><line stroke="#333" stroke-width="10" x1="661.0" x2="661.0" y1="1413.0" y2="1237.0" /><line stroke="#333" stroke-width="10" x1="661.0" x2="501.0" y1="1237.0" y2="1237.0" /><line stroke="#333" stroke-width="10" x1="501.0" x2="501.0" y1="1237.0" y2="1253.0" /><line stroke="#333" stroke-width="10" x1="597.0" x2="597.0" y1="1525.0" y2="1541.0" /><line stroke="#333" stroke-width="10" x1="597.0" x2="597.0" y1="1509.0" y2="1525.0" /><line stroke="#333" stroke-width="10" x1="597.0" x2="597.0" y1="1493.0" y2="1509.0" /><line stroke="#333" stroke-width="10" x1="597.0" x2="597.0" y1="1477.0" y2="1493.0" /><line stroke="#333" stroke-width="10" x1="597.0" x2="597.0" y1="1461.0" y2="1477.0" /><line stroke="#333" stroke-width="10" x1="597.0" x2="597.0" y1="1445.0" y2="1461.0" /><line stroke="#333" stroke-width="10" x1="597.0" x2="597.0" y1="1429.0" y2="1445.0" /><line stroke="#333" stroke-width="10" x1="597.0" x2="597.0" y1="1413.0" y2="1429.0" /><line stroke="#333" stroke-width="10" x1="661.0" x2="661.0" y1="1429.0" y2="1413.0" /><line stroke="#333" stroke-width="10" x1="661.0" x2="661.0" y1="1445.0" y2="1429.0" /><line stroke="#333" stroke-width="10" x1="661.0" x2="661.0" y1="1461.0" y2="1445.0" /><line stroke="#333" stroke-width="10" x1="661.0" x2="661.0" y1="1477.0" y2="1461.0" /><line stroke="#333" stroke-width="10" x1="661.0" x2="661.0" y1="1493.0" y2="1477.0" /><line stroke="#333" stroke-width="10" x1="661.0" x2="661.0" y1="1509.0" y2="1493.0" /><line stroke="#333" stroke-width="10" x1="661.0" x2="661.0" y1="1525.0" y2="1509.0" /><line stroke="#333" stroke-width="10" x1="661.0" x2="661.0" y1="1541.0" y2="1525.0" /><line stroke="#999" stroke-width="3" x1="597.0" x2="661.0" y1="1541.0" y2="1541.0" /><line stroke="#999" stroke-width="3" x1="661.0" x2="597.0" y1="1525.0" y2="1525.0" /><line stroke="#999" stroke-width="3" x1="597.0" x2="661.0" y1="1509.0" y2="1509.0" /><line stroke="#999" stroke-width="3" x1="661.0" x2="597.0" y1="1493.0" y2="1493.0" /><line stroke="#999" stroke-width="3" x1="597.0" x2="661.0" y1="1477.0" y2="1477.0" /><line stroke="#999" stroke-width="3" x1="661.0" x2="597.0" y1="1461.0" y2="1461.0" /><line stroke="#999" stroke-width="3" x1="597.0" x2="661.0" y1="1445.0" y2="1445.0" /><line stroke="#999" stroke-width="3" x1="661.0" x2="597.0" y1="1429.0" y2="1429.0" /><line stroke="#333" stroke-width="10" x1="597.0" x2="597.0" y1="1541.0" y2="1669.0" /><line stroke="#333" stroke-width="10" x1="597.0" x2="725.0" y1="1669.0" y2="1669.0" /><line stroke="#999" stroke-width="3" x1="725.0" x2="725.0" y1="1605.0" y2="1669.0" /><line stroke="#333" stroke-width="10" x1="725.0" x2="661.0" y1="1605.0" y2="1605.0" /><line stroke="#333" stroke-width="10" x1="661.0" x2="661.0" y1="1605.0" y2="1541.0" /><line stroke="#333" stroke-width="10" x1="725.0" x2="789.0" y1="1669.0" y2="1669.0" /><line stroke="#999" stroke-width="3" x1="789.0" x2="789.0" y1="1669.0" y2="1605.0" /><line stroke="#333" stroke-width="10" x1="789.0" x2="725.0" y1="1605.0" y2="1605.0" /><line stroke="#333" stroke-width="10" x1="789.0" x2="869.0" y1="1669.0" y2="1749.0" /><line stroke="#333" stroke-width="10" x1="869.0" x2="933.0" y1="1749.0" y2="1749.0" /><line stroke="#333" stroke-width="10" x1="933.0" x2="933.0" y1="1749.0" y2="1757.0" /><line stroke="#333" stroke-width="10" x1="933.0" x2="997.0" y1="1821.0" y2="1821.0" /><line stroke="#333" stroke-width="10" x1="997.0" x2="997.0" y1="1821.0" y2="1757.0" /><line stroke="#333" stroke-width="10" x1="997.0" x2="1061.0" y1="1749.0" y2="1749.0" /><line stroke="#333" stroke-width="10" x1="1061.0" x2="1061.0" y1="1749.0" y2="1757.0" /><line stroke="#666" stroke-width="20" x1="1061.0" x2="1125.0" y1="1821.0" y2="1821.0" /><line stroke="#333" stroke-width="10" x1="1125.0" x2="1125.0" y1="1821.0" y2="1757.0" /><line stroke="#333" stroke-width="10" x1="1125.0" x2="1189.0" y1="1749.0" y2="1749.0" /><line stroke="#333" stroke-width="10" x1="1189.0" x2="1189.0" y1="1749.0" y2="1669.0" /><line stroke="#333" stroke-width="10" x1="1189.0" x2="1125.0" y1="1525.0" y2="1525.0" /><line stroke="#333" stroke-width="10" x1="1125.0" x2="1125.0" y1="1525.0" y2="1517.0" /><line stroke="#666" stroke-width="20" x1="1125.0" x2="1061.0" y1="1453.0" y2="1453.0" /><line stroke="#333" stroke-width="10" x1="1061.0" x2="1061.0" y1="1453.0" y2="1517.0" /><line stroke="#333" stroke-width="10" x1="1061.0" x2="997.0" y1="1525.0" y2="1525.0" /><line stroke="#333" stroke-width="10" x1="997.0" x2="997.0" y1="1525.0" y2="1517.0" /><line stroke="#333" stroke-width="10" x1="997.0" x2="933.0" y1="1389.0" y2="1389.0" /><line stroke="#333" stroke-width="10" x1="933.0" x2="933.0" y1="1389.0" y2="1517.0" /><line stroke="#333" stroke-width="10" x1="933.0" x2="869.0" y1="1525.0" y2="1525.0" /><line stroke="#333" stroke-width="10" x1="869.0" x2="789.0" y1="1525.0" y2="1605.0" /><line stroke="#333" stroke-width="10" x1="933.0" x2="933.0" y1="1757.0" y2="1821.0" /><line stroke="#333" stroke-width="10" x1="997.0" x2="997.0" y1="1757.0" y2="1749.0" /><line stroke="#333" stroke-width="10" x1="1061.0" x2="1061.0" y1="1757.0" y2="1821.0" /><line stroke="#333" stroke-width="10" x1="1125.0" x2="1125.0" y1="1757.0" y2="1749.0" /><line stroke="#333" stroke-width="10" x1="933.0" x2="933.0" y1="1517.0" y2="1525.0" /><line stroke="#333" stroke-width="10" x1="997.0" x2="997.0" y1="1517.0" y2="1389.0" /><line stroke="#333" stroke-width="10" x1="1061.0" x2="1061.0" y1="1517.0" y2="1525.0" /><line stroke="#333" stroke-width="10" x1="1125.0" x2="1125.0" y1="1517.0" y2="1453.0" /><line stroke="#666" stroke-width="20" x1="1125.0" x2="1061.0" y1="1757.0" y2="1757.0" /><line stroke="#666" stroke-width="20" x1="997.0" x2="933.0" y1="1757.0" y2="1757.0" /><line stroke="#d00" stroke-width="20" x1="933.0" x2="997.0" y1="1749.0" y2="1749.0" /><line stroke="#666" stroke-width="20" x1="1061.0" x2="1125.0" y1="1749.0" y2="1749.0" /><line stroke="#666" stroke-width="20" x1="1061.0" x2="1125.0" y1="1517.0" y2="1517.0" /><line stroke="#666" stroke-width="20" x1="933.0" x2="997.0" y1="1517.0" y2="1517.0" /><line stroke="#666" stroke-width="20" x1="1125.0" x2="1061.0" y1="1525.0" y2="1525.0" /><line stroke="#d00" stroke-width="20" x1="997.0" x2="933.0" y1="1525.0" y2="1525.0" /><line stroke="#333" stroke-width="10" x1="1189.0" x2="1189.0" y1="1605.0" y2="1525.0" /><line stroke="#333" stroke-width="10" x1="1189.0" x2="1269.0" y1="1669.0" y2="1749.0" /><line stroke="#999" stroke-width="3" x1="1197.0" x2="1197.0" y1="1613.0" y2="1661.0" /><line stroke="#999" stroke-width="3" x1="1189.0" x2="1197.0" y1="1621.0" y2="1613.0" /><line stroke="#999" stroke-width="3" x1="1189.0" x2="1189.0" y1="1653.0" y2="1621.0" /><line stroke="#999" stroke-width="3" x1="1197.0" x2="1189.0" y1="1661.0" y2="1653.0" /><line stroke="#333" stroke-width="10" x1="1269.0" x2="1381.0" y1="1749.0" y2="1749.0" /><line stroke="#333" stroke-width="10" x1="1269.0" x2="1189.0" y1="1525.0" y2="1605.0" /><line stroke="#999" stroke-width="3" x1="1381.0" x2="1381.0" y1="1749.0" y2="1525.0" /><line stroke="#333" stroke-width="10" x1="1381.0" x2="1269.0" y1="1525.0" y2="1525.0" /><line stroke="#333" stroke-width="10" x1="1381.0" x2="1477.0" y1="1749.0" y2="1749.0" /><line stroke="#333" stroke-width="10" x1="1477.0" x2="1557.0" y1="1749.0" y2="1669.0" /><line stroke="#333" stroke-width="10" x1="1477.0" x2="1381.0" y1="1525.0" y2="1525.0" /><line stroke="#333" stroke-width="10" x1="1557.0" x2="1477.0" y1="1605.0" y2="1525.0" /><line stroke="#999" stroke-width="3" x1="1557.0" x2="1557.0" y1="1669.0" y2="1605.0" /><line stroke="#333" stroke-width="10" x1="1621.0" x2="1589.0" y1="1605.0" y2="1605.0" /><line stroke="#333" stroke-width="10" x1="1621.0" x2="1621.0" y1="1669.0" y2="1605.0" /><line stroke="#333" stroke-width="10" x1="1557.0" x2="1589.0" y1="1669.0" y2="1669.0" /><line stroke="#333" stroke-width="10" x1="1589.0" x2="1557.0" y1="1605.0" y2="1605.0" /><line stroke="#333" stroke-width="10" x1="1589.0" x2="1621.0" y1="1669.0" y2="1669.0" /><line stroke="#00d" stroke-width="20" x1="1589.0" x2="1589.0" y1="1669.0" y2="1605.0" /><line stroke="#999" stroke-width="3" x1="853.0" x2="789.0" y1="1349.0" y2="1349.0" /><line stroke="#333" stroke-width="10" x1="853.0" x2="853.0" y1="1413.0" y2="1381.0" /><line stroke="#333" stroke-width="10" x1="789.0" x2="853.0" y1="1413.0" y2="1413.0" /><line stroke="#333" stroke-width="10" x1="789.0" x2="789.0" y1="1349.0" y2="1381.0" /><line stroke="#333" stroke-width="10" x1="853.0" x2="1749.0" y1="1349.0" y2="1349.0" /><line stroke="#333" stroke-width="10" x1="1749.0" x2="1749.0" y1="1349.0" y2="325.0" /><line stroke="#333" stroke-width="10" x1="1749.0" x2="1301.0" y1="325.0" y2="325.0" /><line stroke="#333" stroke-width="10" x1="725.0" x2="725.0" y1="325.0" y2="1349.0" /><line stroke="#333" stroke-width="10" x1="725.0" x2="789.0" y1="1349.0" y2="1349.0" /><line stroke="#333" stroke-width="10" x1="789.0" x2="917.0" y1="1157.0" y2="1157.0" /><line stroke="#333" stroke-width="10" x1="917.0" x2="917.0" y1="1157.0" y2="1285.0" /><line stroke="#333" stroke-width="10" x1="917.0" x2="789.0" y1="1285.0" y2="1285.0" /><line stroke="#333" stroke-width="10" x1="789.0" x2="789.0" y1="1285.0" y2="1157.0" /><line stroke="#333" stroke-width="10" x1="981.0" x2="1109.0" y1="1157.0" y2="1157.0" /><line stroke="#333" stroke-width="10" x1="1109.0" x2="1109.0" y1="1157.0" y2="1285.0" /><line stroke="#333" stroke-width="10" x1="1109.0" x2="981.0" y1="1285.0" y2="1285.0" /><line stroke="#333" stroke-width="10" x1="981.0" x2="981.0" y1="1285.0" y2="1157.0" /><line stroke="#333" stroke-width="10" x1="1173.0" x2="1173.0" y1="1285.0" y2="1157.0" /><line stroke="#333" stroke-width="10" x1="1301.0" x2="1173.0" y1="1285.0" y2="1285.0" /><line stroke="#333" stroke-width="10" x1="1301.0" x2="1301.0" y1="1157.0" y2="1285.0" /><line stroke="#333" stroke-width="10" x1="1173.0" x2="1301.0" y1="1157.0" y2="1157.0" /><line stroke="#333" stroke-width="10" x1="1365.0" x2="1365.0" y1="1285.0" y2="1157.0" /><line stroke="#333" stroke-width="10" x1="1493.0" x2="1365.0" y1="1285.0" y2="1285.0" /><line stroke="#333" stroke-width="10" x1="1493.0" x2="1493.0" y1="1157.0" y2="1285.0" /><line stroke="#333" stroke-width="10" x1="1365.0" x2="1493.0" y1="1157.0" y2="1157.0" /><line stroke="#333" stroke-width="10" x1="1557.0" x2="1557.0" y1="1285.0" y2="1157.0" /><line stroke="#333" stroke-width="10" x1="1685.0" x2="1557.0" y1="1285.0" y2="1285.0" /><line stroke="#333" stroke-width="10" x1="1685.0" x2="1685.0" y1="1157.0" y2="1285.0" /><line stroke="#333" stroke-width="10" x1="1557.0" x2="1685.0" y1="1157.0" y2="1157.0" /><line stroke="#333" stroke-width="10" x1="1557.0" x2="1685.0" y1="965.0" y2="965.0" /><line stroke="#333" stroke-width="10" x1="1685.0" x2="1685.0" y1="965.0" y2="1093.0" /><line stroke="#333" stroke-width="10" x1="1685.0" x2="1557.0" y1="1093.0" y2="1093.0" /><line stroke="#333" stroke-width="10" x1="1557.0" x2="1557.0" y1="1093.0" y2="965.0" /><line stroke="#333" stroke-width="10" x1="1365.0" x2="1493.0" y1="965.0" y2="965.0" /><line stroke="#333" stroke-width="10" x1="1493.0" x2="1493.0" y1="965.0" y2="1093.0" /><line stroke="#333" stroke-width="10" x1="1493.0" x2="1365.0" y1="1093.0" y2="1093.0" /><line stroke="#333" stroke-width="10" x1="1365.0" x2="1365.0" y1="1093.0" y2="965.0" /><line stroke="#333" stroke-width="10" x1="1173.0" x2="1301.0" y1="965.0" y2="965.0" /><line stroke="#333" stroke-width="10" x1="1301.0" x2="1301.0" y1="965.0" y2="1093.0" /><line stroke="#333" stroke-width="10" x1="1301.0" x2="1173.0" y1="1093.0" y2="1093.0" /><line stroke="#333" stroke-width="10" x1="1173.0" x2="1173.0" y1="1093.0" y2="965.0" /><line stroke="#333" stroke-width="10" x1="981.0" x2="981.0" y1="1093.0" y2="965.0" /><line stroke="#333" stroke-width="10" x1="1109.0" x2="981.0" y1="1093.0" y2="1093.0" /><line stroke="#333" stroke-width="10" x1="1109.0" x2="1109.0" y1="965.0" y2="1093.0" /><line stroke="#333" stroke-width="10" x1="981.0" x2="1109.0" y1="965.0" y2="965.0" /><line stroke="#333" stroke-width="10" x1="789.0" x2="789.0" y1="1093.0" y2="965.0" /><line stroke="#333" stroke-width="10" x1="917.0" x2="789.0" y1="1093.0" y2="1093.0" /><line stroke="#333" stroke-width="10" x1="917.0" x2="917.0" y1="965.0" y2="1093.0" /><line stroke="#333" stroke-width="10" x1="789.0" x2="917.0" y1="965.0" y2="965.0" /><line stroke="#333" stroke-width="10" x1="1557.0" x2="1685.0" y1="773.0" y2="773.0" /><line stroke="#333" stroke-width="10" x1="1685.0" x2="1685.0" y1="773.0" y2="901.0" /><line stroke="#333" stroke-width="10" x1="1685.0" x2="1557.0" y1="901.0" y2="901.0" /><line stroke="#333" stroke-width="10" x1="1557.0" x2="1557.0" y1="901.0" y2="773.0" /><line stroke="#333" stroke-width="10" x1="1365.0" x2="1493.0" y1="773.0" y2="773.0" /><line stroke="#333" stroke-width="10" x1="1493.0" x2="1493.0" y1="773.0" y2="901.0" /><line stroke="#333" stroke-width="10" x1="1493.0" x2="1365.0" y1="901.0" y2="901.0" /><line stroke="#333" stroke-width="10" x1="1365.0" x2="1365.0" y1="901.0" y2="773.0" /><line stroke="#333" stroke-width="10" x1="1173.0" x2="1301.0" y1="773.0" y2="773.0" /><line stroke="#333" stroke-width="10" x1="1301.0" x2="1301.0" y1="773.0" y2="901.0" /><line stroke="#333" stroke-width="10" x1="1301.0" x2="1173.0" y1="901.0" y2="901.0" /><line stroke="#333" stroke-width="10" x1="1173.0" x2="1173.0" y1="901.0" y2="773.0" /><line stroke="#333" stroke-width="10" x1="981.0" x2="981.0" y1="901.0" y2="773.0" /><line stroke="#333" stroke-width="10" x1="1109.0" x2="981.0" y1="901.0" y2="901.0" /><line stroke="#333" stroke-width="10" x1="1109.0" x2="1109.0" y1="773.0" y2="901.0" /><line stroke="#333" stroke-width="10" x1="981.0" x2="1109.0" y1="773.0" y2="773.0" /><line stroke="#333" stroke-width="10" x1="789.0" x2="789.0" y1="901.0" y2="773.0" /><line stroke="#333" stroke-width="10" x1="917.0" x2="789.0" y1="901.0" y2="901.0" /><line stroke="#333" stroke-width="10" x1="917.0" x2="917.0" y1="773.0" y2="901.0" /><line stroke="#333" stroke-width="10" x1="789.0" x2="917.0" y1="773.0" y2="773.0" /><line stroke="#333" stroke-width="10" x1="1557.0" x2="1685.0" y1="581.0" y2="581.0" /><line stroke="#333" stroke-width="10" x1="1685.0" x2="1685.0" y1="581.0" y2="709.0" /><line stroke="#333" stroke-width="10" x1="1685.0" x2="1557.0" y1="709.0" y2="709.0" /><line stroke="#333" stroke-width="10" x1="1557.0" x2="1557.0" y1="709.0" y2="581.0" /><line stroke="#333" stroke-width="10" x1="1365.0" x2="1493.0" y1="581.0" y2="581.0" /><line stroke="#333" stroke-width="10" x1="1493.0" x2="1493.0" y1="581.0" y2="709.0" /><line stroke="#333" stroke-width="10" x1="1493.0" x2="1365.0" y1="709.0" y2="709.0" /><line stroke="#333" stroke-width="10" x1="1365.0" x2="1365.0" y1="709.0" y2="581.0" /><line stroke="#333" stroke-width="10" x1="1173.0" x2="1301.0" y1="581.0" y2="581.0" /><line stroke="#333" stroke-width="10" x1="1301.0" x2="1301.0" y1="581.0" y2="709.0" /><line stroke="#333" stroke-width="10" x1="1301.0" x2="1173.0" y1="709.0" y2="709.0" /><line stroke="#333" stroke-width="10" x1="1173.0" x2="1173.0" y1="709.0" y2="581.0" /><line stroke="#333" stroke-width="10" x1="981.0" x2="981.0" y1="709.0" y2="581.0" /><line stroke="#333" stroke-width="10" x1="1109.0" x2="981.0" y1="709.0" y2="709.0" /><line stroke="#333" stroke-width="10" x1="1109.0" x2="1109.0" y1="581.0" y2="709.0" /><line stroke="#333" stroke-width="10" x1="981.0" x2="1109.0" y1="581.0" y2="581.0" /><line stroke="#333" stroke-width="10" x1="789.0" x2="789.0" y1="709.0" y2="581.0" /><line stroke="#333" stroke-width="10" x1="917.0" x2="789.0" y1="709.0" y2="709.0" /><line stroke="#333" stroke-width="10" x1="917.0" x2="917.0" y1="581.0" y2="709.0" /><line stroke="#333" stroke-width="10" x1="789.0" x2="917.0" y1="581.0" y2="581.0" /><line stroke="#333" stroke-width="10" x1="789.0" x2="821.0" y1="389.0" y2="389.0" /><line stroke="#333" stroke-width="10" x1="917.0" x2="917.0" y1="389.0" y2="517.0" /><line stroke="#333" stroke-width="10" x1="917.0" x2="789.0" y1="517.0" y2="517.0" /><line stroke="#333" stroke-width="10" x1="789.0" x2="789.0" y1="517.0" y2="389.0" /><line stroke="#333" stroke-width="10" x1="981.0" x2="1109.0" y1="389.0" y2="389.0" /><line stroke="#333" stroke-width="10" x1="1109.0" x2="1109.0" y1="389.0" y2="517.0" /><line stroke="#333" stroke-width="10" x1="1109.0" x2="981.0" y1="517.0" y2="517.0" /><line stroke="#333" stroke-width="10" x1="981.0" x2="981.0" y1="517.0" y2="389.0" /><line stroke="#333" stroke-width="10" x1="1173.0" x2="1173.0" y1="517.0" y2="389.0" /><line stroke="#333" stroke-width="10" x1="1301.0" x2="1173.0" y1="517.0" y2="517.0" /><line stroke="#333" stroke-width="10" x1="1301.0" x2="1301.0" y1="389.0" y2="517.0" /><line stroke="#333" stroke-width="10" x1="1173.0" x2="1221.0" y1="389.0" y2="389.0" /><line stroke="#333" stroke-width="10" x1="1365.0" x2="1365.0" y1="517.0" y2="389.0" /><line stroke="#333" stroke-width="10" x1="1493.0" x2="1365.0" y1="517.0" y2="517.0" /><line stroke="#333" stroke-width="10" x1="1493.0" x2="1493.0" y1="389.0" y2="517.0" /><line stroke="#333" stroke-width="10" x1="1365.0" x2="1493.0" y1="389.0" y2="389.0" /><line stroke="#333" stroke-width="10" x1="1557.0" x2="1557.0" y1="517.0" y2="389.0" /><line stroke="#333" stroke-width="10" x1="1685.0" x2="1557.0" y1="517.0" y2="517.0" /><line stroke="#333" stroke-width="10" x1="1685.0" x2="1685.0" y1="389.0" y2="517.0" /><line stroke="#333" stroke-width="10" x1="1557.0" x2="1685.0" y1="389.0" y2="389.0" /><line stroke="#333" stroke-width="10" x1="789.0" x2="789.0" y1="1381.0" y2="1413.0" /><line stroke="#333" stroke-width="10" x1="853.0" x2="853.0" y1="1381.0" y2="1349.0" /><line stroke="#00d" stroke-width="20" x1="789.0" x2="853.0" y1="1381.0" y2="1381.0" /><line stroke="#666" stroke-width="20" x1="821.0" x2="885.0" y1="389.0" y2="389.0" /><line stroke="#333" stroke-width="10" x1="885.0" x2="917.0" y1="389.0" y2="389.0" /><line stroke="#333" stroke-width="10" x1="821.0" x2="821.0" y1="389.0" y2="421.0" /><line stroke="#333" stroke-width="10" x1="885.0" x2="885.0" y1="421.0" y2="389.0" /><line stroke="#333" stroke-width="10" x1="821.0" x2="821.0" y1="421.0" y2="485.0" /><line stroke="#333" stroke-width="10" x1="821.0" x2="885.0" y1="485.0" y2="485.0" /><line stroke="#333" stroke-width="10" x1="885.0" x2="885.0" y1="485.0" y2="421.0" /><line stroke="#666" stroke-width="20" x1="885.0" x2="821.0" y1="421.0" y2="421.0" /><line stroke="#333" stroke-width="10" x1="1173.0" x2="725.0" y1="325.0" y2="325.0" /><line stroke="#333" stroke-width="10" x1="1301.0" x2="1253.0" y1="325.0" y2="325.0" /><line stroke="#666" stroke-width="20" x1="1301.0" x2="1301.0" y1="325.0" y2="389.0" /><line stroke="#666" stroke-width="20" x1="1173.0" x2="1173.0" y1="389.0" y2="325.0" /><line stroke="#333" stroke-width="10" x1="213.0" x2="213.0" y1="565.0" y2="597.0" /><line stroke="#666" stroke-width="20" x1="213.0" x2="213.0" y1="501.0" y2="565.0" /><line stroke="#333" stroke-width="10" x1="197.0" x2="213.0" y1="565.0" y2="565.0" /><line stroke="#666" stroke-width="20" x1="197.0" x2="197.0" y1="565.0" y2="501.0" /><line stroke="#333" stroke-width="10" x1="213.0" x2="197.0" y1="501.0" y2="501.0" /><line stroke="#333" stroke-width="10" x1="197.0" x2="133.0" y1="501.0" y2="501.0" /><line stroke="#333" stroke-width="10" x1="133.0" x2="133.0" y1="501.0" y2="565.0" /><line stroke="#333" stroke-width="10" x1="133.0" x2="197.0" y1="565.0" y2="565.0" /><line stroke="#333" stroke-width="10" x1="1221.0" x2="1253.0" y1="389.0" y2="389.0" /><line stroke="#333" stroke-width="10" x1="1253.0" x2="1301.0" y1="389.0" y2="389.0" /><line stroke="#333" stroke-width="10" x1="1253.0" x2="1221.0" y1="325.0" y2="325.0" /><line stroke="#333" stroke-width="10" x1="1221.0" x2="1173.0" y1="325.0" y2="325.0" /><line stroke="#00d" stroke-width="20" x1="1221.0" x2="1221.0" y1="325.0" y2="389.0" /><line stroke="#00d" stroke-width="20" x1="1253.0" x2="1253.0" y1="389.0" y2="325.0" /><ellipse cx="309.0" cy="37.0" fill="#009" rx="12" ry="24" stroke="#009" stroke-width="5" /><ellipse cx="309.0" cy="101.0" fill="#009" rx="12" ry="24" stroke="#009" stroke-width="5" /><ellipse cx="261.0" cy="149.0" fill="#009" rx="12" ry="24" stroke="#009" stroke-width="5" /><ellipse cx="357.0" cy="149.0" fill="#009" rx="12" ry="24" stroke="#009" stroke-width="5" /><rect fill="#090" height="24" stroke="#090" stroke-width="5" transform="rotate(90,309.0,197.0)" width="24" x="297.0" y="185.0" /><rect fill="#090" height="24" stroke="#090" stroke-width="5" transform="rotate(0,629.0,1637.0)" width="24" x="617.0" y="1625.0" /><rect fill="#090" height="24" stroke="#090" stroke-width="5" transform="rotate(90,309.0,1045.0)" width="24" x="297.0" y="1033.0" /><rect fill="#090" height="24" stroke="#090" stroke-width="5" transform="rotate(270,309.0,2789.0)" width="24" x="297.0" y="2777.0" /><circle cx="309.0" cy="485.0" fill="#900" r="16" stroke="#900" stroke-width="5" /><rect fill="#900" height="48" stroke="#900" stroke-width="5" transform="rotate(90,309.0,565.0)" width="32" x="293.0" y="541.0" /><circle cx="309.0" cy="357.0" fill="#090" r="16" stroke="#090" stroke-width="5" /><rect fill="#900" height="48" stroke="#900" stroke-width="5" transform="rotate(0,101.0,357.0)" width="32" x="85.0" y="333.0" /><circle cx="53.0" cy="405.0" fill="#009" r="16" stroke="#009" stroke-width="5" /><circle cx="53.0" cy="309.0" fill="#900" r="16" stroke="#900" stroke-width="5" /><ellipse cx="149.0" cy="309.0" fill="#090" rx="12" ry="24" stroke="#090" stroke-width="5" /><circle cx="149.0" cy="405.0" fill="#009" r="16" stroke="#009" stroke-width="5" /><rect fill="#900" height="48" stroke="#900" stroke-width="5" transform="rotate(90,309.0,565.0)" width="32" x="293.0" y="541.0" /><circle cx="53.0" cy="405.0" fill="#900" r="16" stroke="#900" stroke-width="5" /><circle cx="53.0" cy="309.0" fill="#009" r="16" stroke="#009" stroke-width="5" /><rect fill="#009" height="24" stroke="#009" stroke-width="5" transform="rotate(90,309.0,869.0)" width="24" x="297.0" y="857.0" /><circle cx="309.0" cy="1189.0" fill="#009" r="16" stroke="#009" stroke-width="5" /><rect fill="#090" height="24" stroke="#090" stroke-width="5" transform="rotate(90,533.0,989.0)" width="24" x="521.0" y="977.0" /><rect fill="#090" height="24" stroke="#090" stroke-width="5" transform="rotate(90,85.0,989.0)" width="24" x="73.0" y="977.0" /><rect fill="#090" height="24" stroke="#090" stroke-width="5" transform="rotate(90,125.0,1117.0)" width="24" x="113.0" y="1105.0" /><rect fill="#090" height="24" stroke="#090" stroke-width="5" transform="rotate(90,485.0,1117.0)" width="24" x="473.0" y="1105.0" /><rect fill="#090" height="24" stroke="#090" stroke-width="5" transform="rotate(90,485.0,853.0)" width="24" x="473.0" y="841.0" /><rect fill="#090" height="24" stroke="#090" stroke-width="5" transform="rotate(90,125.0,853.0)" width="24" x="113.0" y="841.0" /><rect fill="#900" height="48" stroke="#900" stroke-width="5" transform="rotate(270,221.0,1117.0)" width="32" x="205.0" y="1093.0" /><rect fill="#900" height="48" stroke="#900" stroke-width="5" transform="rotate(270,397.0,1117.0)" width="32" x="381.0" y="1093.0" /><ellipse cx="309.0" cy="1117.0" fill="#900" rx="12" ry="24" stroke="#900" stroke-width="5" /><rect fill="#090" height="24" stroke="#090" stroke-width="5" transform="rotate(90,109.0,1053.0)" width="24" x="97.0" y="1041.0" /><rect fill="#090" height="24" stroke="#090" stroke-width="5" transform="rotate(90,109.0,925.0)" width="24" x="97.0" y="913.0" /><rect fill="#090" height="24" stroke="#090" stroke-width="5" transform="rotate(90,501.0,925.0)" width="24" x="489.0" y="913.0" /><rect fill="#090" height="24" stroke="#090" stroke-width="5" transform="rotate(90,501.0,1053.0)" width="24" x="489.0" y="1041.0" /><rect fill="#090" height="24" stroke="#090" stroke-width="5" transform="rotate(90,309.0,965.0)" width="24" x="297.0" y="953.0" /><circle cx="581.0" cy="1269.0" fill="#009" r="16" stroke="#009" stroke-width="5" /><circle cx="613.0" cy="1301.0" fill="#009" r="16" stroke="#009" stroke-width="5" /><circle cx="549.0" cy="1301.0" fill="#009" r="16" stroke="#009" stroke-width="5" /><circle cx="645.0" cy="1269.0" fill="#009" r="16" stroke="#009" stroke-width="5" /><circle cx="517.0" cy="1269.0" fill="#009" r="16" stroke="#009" stroke-width="5" /><circle cx="581.0" cy="1301.0" fill="#009" r="16" stroke="#009" stroke-width="5" /><circle cx="645.0" cy="1301.0" fill="#009" r="16" stroke="#009" stroke-width="5" /><circle cx="517.0" cy="1301.0" fill="#009" r="16" stroke="#009" stroke-width="5" /><circle cx="613.0" cy="1269.0" fill="#009" r="16" stroke="#009" stroke-width="5" /><circle cx="549.0" cy="1269.0" fill="#009" r="16" stroke="#009" stroke-width="5" /><rect fill="#900" height="48" stroke="#900" stroke-width="5" transform="rotate(180,693.0,1637.0)" width="32" x="677.0" y="1613.0" /><circle cx="629.0" cy="1421.0" fill="#090" r="16" stroke="#090" stroke-width="5" /><ellipse cx="645.0" cy="1469.0" fill="#090" rx="12" ry="24" stroke="#090" stroke-width="5" /><rect fill="#090" height="24" stroke="#090" stroke-width="5" transform="rotate(0,621.0,1517.0)" width="24" x="609.0" y="1505.0" /><circle cx="965.0" cy="1485.0" fill="#009" r="16" stroke="#009" stroke-width="5" /><circle cx="965.0" cy="1421.0" fill="#009" r="16" stroke="#009" stroke-width="5" /><rect fill="#900" height="48" stroke="#900" stroke-width="5" transform="rotate(90,1093.0,1485.0)" width="32" x="1077.0" y="1461.0" /><rect fill="#900" height="48" stroke="#900" stroke-width="5" transform="rotate(270,1093.0,1789.0)" width="32" x="1077.0" y="1765.0" /><rect fill="#900" height="48" stroke="#900" stroke-width="5" transform="rotate(270,965.0,1789.0)" width="32" x="949.0" y="1765.0" /><rect fill="#090" height="24" stroke="#090" stroke-width="5" transform="rotate(180,1141.0,1701.0)" width="24" x="1129.0" y="1689.0" /><rect fill="#090" height="24" stroke="#090" stroke-width="5" transform="rotate(180,1141.0,1573.0)" width="24" x="1129.0" y="1561.0" /><circle cx="1141.0" cy="1637.0" fill="#900" r="16" stroke="#900" stroke-width="5" /><circle cx="1077.0" cy="1709.0" fill="#090" r="16" stroke="#090" stroke-width="5" /><circle cx="1077.0" cy="1637.0" fill="#090" r="16" stroke="#090" stroke-width="5" /><circle cx="1077.0" cy="1573.0" fill="#090" r="16" stroke="#090" stroke-width="5" /><rect fill="#090" height="24" stroke="#090" stroke-width="5" transform="rotate(180,1013.0,1637.0)" width="24" x="1001.0" y="1625.0" /><circle cx="965.0" cy="1453.0" fill="#900" r="16" stroke="#900" stroke-width="5" /><circle cx="229.0" cy="2789.0" fill="#009" r="16" stroke="#009" stroke-width="5" /><rect fill="#900" height="48" stroke="#900" stroke-width="5" transform="rotate(180,1245.0,1637.0)" width="32" x="1229.0" y="1613.0" /><rect fill="#900" height="48" stroke="#900" stroke-width="5" transform="rotate(180,1245.0,1685.0)" width="32" x="1229.0" y="1661.0" /><rect fill="#900" height="48" stroke="#900" stroke-width="5" transform="rotate(180,1245.0,1589.0)" width="32" x="1229.0" y="1565.0" /><circle cx="885.0" cy="1717.0" fill="#009" r="16" stroke="#009" stroke-width="5" /><circle cx="885.0" cy="1557.0" fill="#009" r="16" stroke="#009" stroke-width="5" /><rect fill="#900" height="48" stroke="#900" stroke-width="5" transform="rotate(180,1493.0,1669.0)" width="32" x="1477.0" y="1645.0" /><rect fill="#900" height="48" stroke="#900" stroke-width="5" transform="rotate(180,1493.0,1605.0)" width="32" x="1477.0" y="1581.0" /><rect fill="#009" height="24" stroke="#009" stroke-width="5" transform="rotate(270,821.0,1381.0)" width="24" x="809.0" y="1369.0" /><rect fill="#009" height="24" stroke="#009" stroke-width="5" transform="rotate(180,1589.0,1637.0)" width="24" x="1577.0" y="1625.0" /><rect fill="#009" height="24" stroke="#009" stroke-width="5" transform="rotate(90,309.0,637.0)" width="24" x="297.0" y="625.0" /><rect fill="#900" height="48" stroke="#900" stroke-width="5" transform="rotate(90,853.0,549.0)" width="32" x="837.0" y="525.0" /><rect fill="#900" height="48" stroke="#900" stroke-width="5" transform="rotate(90,853.0,741.0)" width="32" x="837.0" y="717.0" /><rect fill="#900" height="48" stroke="#900" stroke-width="5" transform="rotate(90,853.0,933.0)" width="32" x="837.0" y="909.0" /><rect fill="#900" height="48" stroke="#900" stroke-width="5" transform="rotate(90,1045.0,549.0)" width="32" x="1029.0" y="525.0" /><rect fill="#900" height="48" stroke="#900" stroke-width="5" transform="rotate(90,1045.0,1125.0)" width="32" x="1029.0" y="1101.0" /><rect fill="#900" height="48" stroke="#900" stroke-width="5" transform="rotate(90,853.0,1125.0)" width="32" x="837.0" y="1101.0" /><rect fill="#900" height="48" stroke="#900" stroke-width="5" transform="rotate(90,1237.0,1125.0)" width="32" x="1221.0" y="1101.0" /><rect fill="#900" height="48" stroke="#900" stroke-width="5" transform="rotate(90,1237.0,549.0)" width="32" x="1221.0" y="525.0" /><rect fill="#900" height="48" stroke="#900" stroke-width="5" transform="rotate(90,1045.0,741.0)" width="32" x="1029.0" y="717.0" /><rect fill="#900" height="48" stroke="#900" stroke-width="5" transform="rotate(90,1237.0,741.0)" width="32" x="1221.0" y="717.0" /><rect fill="#900" height="48" stroke="#900" stroke-width="5" transform="rotate(90,1045.0,933.0)" width="32" x="1029.0" y="909.0" /><rect fill="#900" height="48" stroke="#900" stroke-width="5" transform="rotate(90,1237.0,933.0)" width="32" x="1221.0" y="909.0" /><rect fill="#900" height="48" stroke="#900" stroke-width="5" transform="rotate(90,1621.0,741.0)" width="32" x="1605.0" y="717.0" /><rect fill="#900" height="48" stroke="#900" stroke-width="5" transform="rotate(90,1621.0,549.0)" width="32" x="1605.0" y="525.0" /><rect fill="#900" height="48" stroke="#900" stroke-width="5" transform="rotate(90,1621.0,1125.0)" width="32" x="1605.0" y="1101.0" /><rect fill="#900" height="48" stroke="#900" stroke-width="5" transform="rotate(90,1429.0,1125.0)" width="32" x="1413.0" y="1101.0" /><rect fill="#900" height="48" stroke="#900" stroke-width="5" transform="rotate(90,1621.0,933.0)" width="32" x="1605.0" y="909.0" /><rect fill="#900" height="48" stroke="#900" stroke-width="5" transform="rotate(90,1429.0,933.0)" width="32" x="1413.0" y="909.0" /><rect fill="#900" height="48" stroke="#900" stroke-width="5" transform="rotate(90,1429.0,549.0)" width="32" x="1413.0" y="525.0" /><rect fill="#900" height="48" stroke="#900" stroke-width="5" transform="rotate(90,1429.0,741.0)" width="32" x="1413.0" y="717.0" /><circle cx="853.0" cy="453.0" fill="#009" r="16" stroke="#009" stroke-width="5" /><circle cx="853.0" cy="453.0" fill="#900" r="16" stroke="#900" stroke-width="5" /><circle cx="853.0" cy="453.0" fill="#900" r="16" stroke="#900" stroke-width="5" /><circle cx="853.0" cy="453.0" fill="#900" r="16" stroke="#900" stroke-width="5" /><ellipse cx="853.0" cy="453.0" fill="#090" rx="12" ry="24" stroke="#090" stroke-width="5" /><rect fill="#900" height="48" stroke="#900" stroke-width="5" transform="rotate(0,165.0,533.0)" width="32" x="149.0" y="509.0" /></svg>