<?xml version="1.0" encoding="utf-8" ?>
<svg baseProfile="tiny" height="217" version="1.2" viewBox="0 0 7447 1581" width="1024" xmlns="http://www.w3.org/2000/svg" xmlns:ev="http://www.w3.org/2001/xml-events" xmlns:xlink="http://www.w3.org/1999/xlink"><defs /><line stroke="#999" stroke-width="3" x1="6642.0" x2="7442.0" y1="710.0" y2="710.0" /><line stroke="#999" stroke-width="3" x1="6642.0" x2="6642.0" y1="294.0" y2="326.0" /><line stroke="#999" stroke-width="3" x1="7442.0" x2="6642.0" y1="294.0" y2="294.0" /><line stroke="#999" stroke-width="3" x1="7442.0" x2="7442.0" y1="710.0" y2="294.0" /><line stroke="#999" stroke-width="3" x1="6930.0" x2="7122.0" y1="550.0" y2="550.0" /><line stroke="#999" stroke-width="3" x1="7122.0" x2="7122.0" y1="550.0" y2="422.0" /><line stroke="#999" stroke-width="3" x1="7122.0" x2="6930.0" y1="422.0" y2="422.0" /><line stroke="#999" stroke-width="3" x1="6930.0" x2="6930.0" y1="422.0" y2="550.0" /><line stroke="#999" stroke-width="3" x1="6706.0" x2="6802.0" y1="678.0" y2="646.0" /><line stroke="#999" stroke-width="3" x1="6802.0" x2="6738.0" y1="646.0" y2="614.0" /><line stroke="#999" stroke-width="3" x1="6738.0" x2="6706.0" y1="614.0" y2="678.0" /><line stroke="#999" stroke-width="3" x1="7314.0" x2="7378.0" y1="678.0" y2="614.0" /><line stroke="#999" stroke-width="3" x1="7378.0" x2="7282.0" y1="614.0" y2="582.0" /><line stroke="#999" stroke-width="3" x1="7282.0" x2="7314.0" y1="582.0" y2="678.0" /><line stroke="#999" stroke-width="3" x1="5682.0" x2="6514.0" y1="934.0" y2="934.0" /><line stroke="#999" stroke-width="3" x1="5682.0" x2="5682.0" y1="454.0" y2="456.0" /><line stroke="#999" stroke-width="3" x1="6514.0" x2="6322.0" y1="454.0" y2="454.0" /><line stroke="#999" stroke-width="3" x1="6514.0" x2="6514.0" y1="774.0" y2="454.0" /><line stroke="#999" stroke-width="3" x1="6514.0" x2="6514.0" y1="934.0" y2="774.0" /><line stroke="#999" stroke-width="3" x1="6098.0" x2="6162.0" y1="742.0" y2="742.0" /><line stroke="#999" stroke-width="3" x1="6162.0" x2="6162.0" y1="742.0" y2="678.0" /><line stroke="#999" stroke-width="3" x1="6162.0" x2="6098.0" y1="678.0" y2="678.0" /><line stroke="#999" stroke-width="3" x1="6098.0" x2="6098.0" y1="678.0" y2="742.0" /><line stroke="#999" stroke-width="3" x1="5746.0" x2="6034.0" y1="870.0" y2="870.0" /><line stroke="#999" stroke-width="3" x1="6034.0" x2="6034.0" y1="870.0" y2="806.0" /><line stroke="#999" stroke-width="3" x1="6034.0" x2="5746.0" y1="806.0" y2="806.0" /><line stroke="#999" stroke-width="3" x1="5746.0" x2="5746.0" y1="806.0" y2="870.0" /><line stroke="#999" stroke-width="3" x1="5778.0" x2="6066.0" y1="582.0" y2="582.0" /><line stroke="#999" stroke-width="3" x1="6066.0" x2="6066.0" y1="582.0" y2="518.0" /><line stroke="#999" stroke-width="3" x1="6066.0" x2="5778.0" y1="518.0" y2="518.0" /><line stroke="#999" stroke-width="3" x1="5778.0" x2="5778.0" y1="518.0" y2="582.0" /><line stroke="#999" stroke-width="3" x1="6194.0" x2="6482.0" y1="582.0" y2="582.0" /><line stroke="#999" stroke-width="3" x1="6482.0" x2="6482.0" y1="582.0" y2="518.0" /><line stroke="#999" stroke-width="3" x1="6482.0" x2="6194.0" y1="518.0" y2="518.0" /><line stroke="#999" stroke-width="3" x1="6194.0" x2="6194.0" y1="518.0" y2="582.0" /><line stroke="#999" stroke-width="3" x1="6194.0" x2="6482.0" y1="870.0" y2="870.0" /><line stroke="#999" stroke-width="3" x1="6482.0" x2="6482.0" y1="870.0" y2="806.0" /><line stroke="#999" stroke-width="3" x1="6482.0" x2="6194.0" y1="806.0" y2="806.0" /><line stroke="#999" stroke-width="3" x1="6194.0" x2="6194.0" y1="806.0" y2="870.0" /><line stroke="#999" stroke-width="3" x1="6610.0" x2="6578.0" y1="294.0" y2="294.0" /><line stroke="#999" stroke-width="3" x1="6578.0" x2="6514.0" y1="294.0" y2="294.0" /><line stroke="#999" stroke-width="3" x1="6578.0" x2="6610.0" y1="454.0" y2="454.0" /><line stroke="#999" stroke-width="3" x1="6642.0" x2="6642.0" y1="454.0" y2="710.0" /><line stroke="#999" stroke-width="3" x1="6610.0" x2="6642.0" y1="454.0" y2="454.0" /><line stroke="#999" stroke-width="3" x1="6642.0" x2="6642.0" y1="326.0" y2="454.0" /><line stroke="#999" stroke-width="3" x1="6514.0" x2="6514.0" y1="294.0" y2="454.0" /><line stroke="#999" stroke-width="3" x1="6514.0" x2="6578.0" y1="454.0" y2="454.0" /><line stroke="#999" stroke-width="3" x1="6642.0" x2="6610.0" y1="294.0" y2="294.0" /><line stroke="#999" stroke-width="3" x1="6514.0" x2="6322.0" y1="294.0" y2="294.0" /><line stroke="#999" stroke-width="3" x1="6322.0" x2="6322.0" y1="294.0" y2="454.0" /><line stroke="#999" stroke-width="3" x1="6322.0" x2="5682.0" y1="454.0" y2="454.0" /><line stroke="#999" stroke-width="3" x1="5970.0" x2="6034.0" y1="742.0" y2="742.0" /><line stroke="#999" stroke-width="3" x1="6034.0" x2="6034.0" y1="742.0" y2="678.0" /><line stroke="#999" stroke-width="3" x1="6034.0" x2="5970.0" y1="678.0" y2="678.0" /><line stroke="#999" stroke-width="3" x1="5970.0" x2="5970.0" y1="678.0" y2="742.0" /><line stroke="#999" stroke-width="3" x1="5682.0" x2="5680.0" y1="934.0" y2="930.0" /><line stroke="#999" stroke-width="3" x1="5682.0" x2="5682.0" y1="751.0" y2="753.0" /><line stroke="#999" stroke-width="3" x1="5682.0" x2="5495.0" y1="751.0" y2="754.0" /><line stroke="#999" stroke-width="3" x1="5495.0" x2="5499.0" y1="754.0" y2="697.0" /><line stroke="#999" stroke-width="3" x1="5682.0" x2="5682.0" y1="688.0" y2="734.0" /><line stroke="#999" stroke-width="3" x1="5499.0" x2="5682.0" y1="697.0" y2="688.0" /><line stroke="#999" stroke-width="3" x1="5495.0" x2="5682.0" y1="754.0" y2="753.0" /><line stroke="#999" stroke-width="3" x1="4952.0" x2="5394.0" y1="926.0" y2="752.0" /><line stroke="#999" stroke-width="3" x1="4594.0" x2="4952.0" y1="1023.0" y2="926.0" /><line stroke="#999" stroke-width="3" x1="3645.0" x2="3646.0" y1="705.0" y2="733.0" /><line stroke="#999" stroke-width="3" x1="4634.0" x2="3684.0" y1="161.0" y2="428.0" /><line stroke="#999" stroke-width="3" x1="5283.0" x2="4634.0" y1="237.0" y2="161.0" /><line stroke="#999" stroke-width="3" x1="5615.0" x2="5394.0" y1="437.0" y2="435.0" /><line stroke="#999" stroke-width="3" x1="5682.0" x2="5682.0" y1="456.0" y2="688.0" /><line stroke="#999" stroke-width="3" x1="5682.0" x2="5615.0" y1="456.0" y2="437.0" /><line stroke="#999" stroke-width="3" x1="5682.0" x2="5684.0" y1="456.0" y2="688.0" /><line stroke="#999" stroke-width="3" x1="5682.0" x2="5682.0" y1="734.0" y2="751.0" /><line stroke="#999" stroke-width="3" x1="5684.0" x2="5682.0" y1="688.0" y2="734.0" /><line stroke="#999" stroke-width="3" x1="5682.0" x2="5682.0" y1="753.0" y2="934.0" /><line stroke="#999" stroke-width="3" x1="5394.0" x2="5327.0" y1="435.0" y2="435.0" /><line stroke="#999" stroke-width="3" x1="5394.0" x2="5394.0" y1="435.0" y2="752.0" /><line stroke="#999" stroke-width="3" x1="5327.0" x2="5394.0" y1="752.0" y2="752.0" /><line stroke="#999" stroke-width="3" x1="5327.0" x2="5327.0" y1="752.0" y2="435.0" /><line stroke="#999" stroke-width="3" x1="5394.0" x2="5495.0" y1="752.0" y2="754.0" /><line stroke="#999" stroke-width="3" x1="5394.0" x2="5283.0" y1="435.0" y2="237.0" /><line stroke="#999" stroke-width="3" x1="6410.0" x2="6473.0" y1="757.0" y2="758.0" /><line stroke="#999" stroke-width="3" x1="6473.0" x2="6475.0" y1="758.0" y2="699.0" /><line stroke="#999" stroke-width="3" x1="6475.0" x2="6400.0" y1="699.0" y2="697.0" /><line stroke="#999" stroke-width="3" x1="6400.0" x2="6410.0" y1="697.0" y2="757.0" /><line stroke="#999" stroke-width="3" x1="3314.0" x2="3596.0" y1="684.0" y2="707.0" /><line stroke="#999" stroke-width="3" x1="3684.0" x2="3609.0" y1="428.0" y2="401.0" /><line stroke="#999" stroke-width="3" x1="2377.0" x2="1599.0" y1="394.0" y2="371.0" /><line stroke="#999" stroke-width="3" x1="1526.0" x2="1506.0" y1="369.0" y2="643.0" /><line stroke="#999" stroke-width="3" x1="1506.0" x2="2010.0" y1="643.0" y2="890.0" /><line stroke="#999" stroke-width="3" x1="2010.0" x2="2930.0" y1="890.0" y2="937.0" /><line stroke="#999" stroke-width="3" x1="2930.0" x2="3244.0" y1="937.0" y2="824.0" /><line stroke="#999" stroke-width="3" x1="3244.0" x2="3314.0" y1="824.0" y2="684.0" /><line stroke="#999" stroke-width="3" x1="2279.0" x2="2480.0" y1="825.0" y2="815.0" /><line stroke="#999" stroke-width="3" x1="2480.0" x2="2443.0" y1="815.0" y2="661.0" /><line stroke="#999" stroke-width="3" x1="2443.0" x2="2243.0" y1="661.0" y2="682.0" /><line stroke="#999" stroke-width="3" x1="2243.0" x2="2279.0" y1="682.0" y2="825.0" /><line stroke="#999" stroke-width="3" x1="1758.0" x2="1759.0" y1="655.0" y2="617.0" /><line stroke="#999" stroke-width="3" x1="1759.0" x2="1766.0" y1="617.0" y2="441.0" /><line stroke="#999" stroke-width="3" x1="1766.0" x2="1808.0" y1="441.0" y2="443.0" /><line stroke="#999" stroke-width="3" x1="1808.0" x2="1800.0" y1="443.0" y2="658.0" /><line stroke="#999" stroke-width="3" x1="1800.0" x2="1756.0" y1="658.0" y2="656.0" /><line stroke="#999" stroke-width="3" x1="1756.0" x2="1758.0" y1="656.0" y2="655.0" /><line stroke="#999" stroke-width="3" x1="1745.0" x2="1805.0" y1="718.0" y2="718.0" /><line stroke="#999" stroke-width="3" x1="1805.0" x2="1803.0" y1="718.0" y2="690.0" /><line stroke="#999" stroke-width="3" x1="1803.0" x2="1748.0" y1="690.0" y2="690.0" /><line stroke="#999" stroke-width="3" x1="1748.0" x2="1745.0" y1="690.0" y2="718.0" /><line stroke="#999" stroke-width="3" x1="1853.0" x2="1860.0" y1="656.0" y2="479.0" /><line stroke="#999" stroke-width="3" x1="1860.0" x2="1894.0" y1="479.0" y2="484.0" /><line stroke="#999" stroke-width="3" x1="1894.0" x2="1888.0" y1="484.0" y2="642.0" /><line stroke="#999" stroke-width="3" x1="1888.0" x2="1960.0" y1="642.0" y2="502.0" /><line stroke="#999" stroke-width="3" x1="1960.0" x2="1953.0" y1="502.0" y2="639.0" /><line stroke="#999" stroke-width="3" x1="1953.0" x2="1943.0" y1="639.0" y2="583.0" /><line stroke="#999" stroke-width="3" x1="1943.0" x2="1891.0" y1="583.0" y2="663.0" /><line stroke="#999" stroke-width="3" x1="1891.0" x2="1853.0" y1="663.0" y2="656.0" /><line stroke="#999" stroke-width="3" x1="2019.0" x2="1995.0" y1="607.0" y2="505.0" /><line stroke="#999" stroke-width="3" x1="1995.0" x2="2063.0" y1="505.0" y2="559.0" /><line stroke="#999" stroke-width="3" x1="2063.0" x2="2157.0" y1="559.0" y2="513.0" /><line stroke="#999" stroke-width="3" x1="2157.0" x2="2103.0" y1="513.0" y2="609.0" /><line stroke="#999" stroke-width="3" x1="2103.0" x2="2044.0" y1="609.0" y2="642.0" /><line stroke="#999" stroke-width="3" x1="2044.0" x2="2025.0" y1="642.0" y2="599.0" /><line stroke="#999" stroke-width="3" x1="2025.0" x2="2019.0" y1="599.0" y2="607.0" /><line stroke="#999" stroke-width="3" x1="2202.0" x2="2263.0" y1="617.0" y2="498.0" /><line stroke="#999" stroke-width="3" x1="2263.0" x2="2345.0" y1="498.0" y2="495.0" /><line stroke="#999" stroke-width="3" x1="2345.0" x2="2322.0" y1="495.0" y2="520.0" /><line stroke="#999" stroke-width="3" x1="2322.0" x2="2277.0" y1="520.0" y2="540.0" /><line stroke="#999" stroke-width="3" x1="2277.0" x2="2213.0" y1="540.0" y2="621.0" /><line stroke="#999" stroke-width="3" x1="2213.0" x2="2202.0" y1="621.0" y2="617.0" /><line stroke="#999" stroke-width="3" x1="1934.0" x2="1928.0" y1="464.0" y2="405.0" /><line stroke="#999" stroke-width="3" x1="1928.0" x2="2005.0" y1="405.0" y2="395.0" /><line stroke="#999" stroke-width="3" x1="2005.0" x2="2031.0" y1="395.0" y2="427.0" /><line stroke="#999" stroke-width="3" x1="2031.0" x2="1945.0" y1="427.0" y2="437.0" /><line stroke="#999" stroke-width="3" x1="1945.0" x2="1943.0" y1="437.0" y2="446.0" /><line stroke="#999" stroke-width="3" x1="1939.0" x2="1959.0" y1="467.0" y2="488.0" /><line stroke="#999" stroke-width="3" x1="1959.0" x2="2008.0" y1="488.0" y2="465.0" /><line stroke="#999" stroke-width="3" x1="2008.0" x2="1996.0" y1="465.0" y2="446.0" /><line stroke="#999" stroke-width="3" x1="1996.0" x2="1943.0" y1="446.0" y2="446.0" /><line stroke="#999" stroke-width="3" x1="1943.0" x2="1939.0" y1="446.0" y2="467.0" /><line stroke="#999" stroke-width="3" x1="1943.0" x2="1941.0" y1="446.0" y2="446.0" /><line stroke="#999" stroke-width="3" x1="1941.0" x2="1934.0" y1="446.0" y2="464.0" /><line stroke="#999" stroke-width="3" x1="2032.0" x2="2181.0" y1="408.0" y2="396.0" /><line stroke="#999" stroke-width="3" x1="2181.0" x2="2154.0" y1="396.0" y2="424.0" /><line stroke="#999" stroke-width="3" x1="2102.0" x2="2071.0" y1="479.0" y2="467.0" /><line stroke="#999" stroke-width="3" x1="2071.0" x2="2081.0" y1="467.0" y2="458.0" /><line stroke="#999" stroke-width="3" x1="2081.0" x2="2063.0" y1="458.0" y2="439.0" /><line stroke="#999" stroke-width="3" x1="2081.0" x2="2086.0" y1="458.0" y2="453.0" /><line stroke="#999" stroke-width="3" x1="2052.0" x2="2063.0" y1="441.0" y2="439.0" /><line stroke="#999" stroke-width="3" x1="2063.0" x2="2032.0" y1="439.0" y2="408.0" /><line stroke="#999" stroke-width="3" x1="2154.0" x2="2102.0" y1="424.0" y2="479.0" /><line stroke="#999" stroke-width="3" x1="2063.0" x2="2154.0" y1="439.0" y2="424.0" /><line stroke="#999" stroke-width="3" x1="2154.0" x2="2160.0" y1="424.0" y2="423.0" /><line stroke="#999" stroke-width="3" x1="2052.0" x2="2063.0" y1="441.0" y2="439.0" /><line stroke="#999" stroke-width="3" x1="2063.0" x2="2063.0" y1="439.0" y2="439.0" /><line stroke="#999" stroke-width="3" x1="2063.0" x2="2160.0" y1="439.0" y2="423.0" /><line stroke="#999" stroke-width="3" x1="2222.0" x2="2215.0" y1="467.0" y2="406.0" /><line stroke="#999" stroke-width="3" x1="2215.0" x2="2258.0" y1="406.0" y2="404.0" /><line stroke="#999" stroke-width="3" x1="2258.0" x2="2267.0" y1="404.0" y2="441.0" /><line stroke="#999" stroke-width="3" x1="2267.0" x2="2226.0" y1="441.0" y2="464.0" /><line stroke="#999" stroke-width="3" x1="2226.0" x2="2222.0" y1="464.0" y2="467.0" /><line stroke="#999" stroke-width="3" x1="2487.0" x2="2484.0" y1="551.0" y2="544.0" /><line stroke="#999" stroke-width="3" x1="2445.0" x2="2576.0" y1="434.0" y2="434.0" /><line stroke="#999" stroke-width="3" x1="2576.0" x2="2570.0" y1="434.0" y2="479.0" /><line stroke="#999" stroke-width="3" x1="2570.0" x2="2493.0" y1="479.0" y2="481.0" /><line stroke="#999" stroke-width="3" x1="2493.0" x2="2497.0" y1="481.0" y2="538.0" /><line stroke="#999" stroke-width="3" x1="2497.0" x2="2484.0" y1="538.0" y2="544.0" /><line stroke="#999" stroke-width="3" x1="2484.0" x2="2445.0" y1="544.0" y2="434.0" /><line stroke="#999" stroke-width="3" x1="2484.0" x2="2476.0" y1="544.0" y2="548.0" /><line stroke="#999" stroke-width="3" x1="2476.0" x2="2487.0" y1="548.0" y2="551.0" /><line stroke="#999" stroke-width="3" x1="2639.0" x2="2640.0" y1="582.0" y2="453.0" /><line stroke="#999" stroke-width="3" x1="2640.0" x2="2791.0" y1="453.0" y2="444.0" /><line stroke="#999" stroke-width="3" x1="2791.0" x2="2796.0" y1="444.0" y2="596.0" /><line stroke="#999" stroke-width="3" x1="2796.0" x2="2741.0" y1="596.0" y2="588.0" /><line stroke="#999" stroke-width="3" x1="2741.0" x2="2743.0" y1="588.0" y2="472.0" /><line stroke="#999" stroke-width="3" x1="2743.0" x2="2667.0" y1="472.0" y2="478.0" /><line stroke="#999" stroke-width="3" x1="2667.0" x2="2642.0" y1="478.0" y2="578.0" /><line stroke="#999" stroke-width="3" x1="2642.0" x2="2639.0" y1="578.0" y2="582.0" /><line stroke="#999" stroke-width="3" x1="2858.0" x2="2859.0" y1="574.0" y2="578.0" /><line stroke="#999" stroke-width="3" x1="2845.0" x2="2908.0" y1="491.0" y2="489.0" /><line stroke="#999" stroke-width="3" x1="2934.0" x2="2868.0" y1="488.0" y2="562.0" /><line stroke="#999" stroke-width="3" x1="2858.0" x2="2858.0" y1="574.0" y2="574.0" /><line stroke="#999" stroke-width="3" x1="2855.0" x2="2858.0" y1="578.0" y2="574.0" /><line stroke="#999" stroke-width="3" x1="2862.0" x2="2858.0" y1="569.0" y2="574.0" /><line stroke="#999" stroke-width="3" x1="2929.0" x2="2934.0" y1="488.0" y2="488.0" /><line stroke="#999" stroke-width="3" x1="2867.0" x2="2862.0" y1="563.0" y2="569.0" /><line stroke="#999" stroke-width="3" x1="2929.0" x2="2935.0" y1="488.0" y2="481.0" /><line stroke="#999" stroke-width="3" x1="2935.0" x2="2879.0" y1="481.0" y2="416.0" /><line stroke="#999" stroke-width="3" x1="2879.0" x2="2879.0" y1="416.0" y2="454.0" /><line stroke="#999" stroke-width="3" x1="2879.0" x2="2910.0" y1="454.0" y2="478.0" /><line stroke="#999" stroke-width="3" x1="2910.0" x2="2910.0" y1="478.0" y2="486.0" /><line stroke="#999" stroke-width="3" x1="2910.0" x2="2908.0" y1="486.0" y2="489.0" /><line stroke="#999" stroke-width="3" x1="2868.0" x2="2929.0" y1="562.0" y2="488.0" /><line stroke="#999" stroke-width="3" x1="2908.0" x2="2929.0" y1="489.0" y2="488.0" /><line stroke="#999" stroke-width="3" x1="2908.0" x2="2868.0" y1="489.0" y2="562.0" /><line stroke="#999" stroke-width="3" x1="2868.0" x2="2867.0" y1="562.0" y2="563.0" /><line stroke="#999" stroke-width="3" x1="2867.0" x2="2859.0" y1="563.0" y2="578.0" /><line stroke="#999" stroke-width="3" x1="2858.0" x2="2845.0" y1="574.0" y2="491.0" /><line stroke="#999" stroke-width="3" x1="1644.0" x2="1648.0" y1="404.0" y2="404.0" /><line stroke="#999" stroke-width="3" x1="1827.0" x2="1829.0" y1="405.0" y2="385.0" /><line stroke="#999" stroke-width="3" x1="1829.0" x2="1616.0" y1="385.0" y2="384.0" /><line stroke="#999" stroke-width="3" x1="1616.0" x2="1599.0" y1="384.0" y2="371.0" /><line stroke="#999" stroke-width="3" x1="1599.0" x2="1591.0" y1="371.0" y2="371.0" /><line stroke="#999" stroke-width="3" x1="1599.0" x2="1592.0" y1="371.0" y2="366.0" /><line stroke="#999" stroke-width="3" x1="1592.0" x2="1591.0" y1="366.0" y2="371.0" /><line stroke="#999" stroke-width="3" x1="1591.0" x2="1526.0" y1="371.0" y2="369.0" /><line stroke="#999" stroke-width="3" x1="1591.0" x2="1582.0" y1="371.0" y2="402.0" /><line stroke="#999" stroke-width="3" x1="1582.0" x2="1628.0" y1="402.0" y2="434.0" /><line stroke="#999" stroke-width="3" x1="1648.0" x2="1827.0" y1="404.0" y2="405.0" /><line stroke="#999" stroke-width="3" x1="1628.0" x2="1648.0" y1="434.0" y2="404.0" /><line stroke="#999" stroke-width="3" x1="912.0" x2="1506.0" y1="1180.0" y2="643.0" /><line stroke="#999" stroke-width="3" x1="1526.0" x2="643.0" y1="369.0" y2="5.0" /><line stroke="#999" stroke-width="3" x1="643.0" x2="5.0" y1="5.0" y2="269.0" /><line stroke="#999" stroke-width="3" x1="5.0" x2="547.0" y1="269.0" y2="1257.0" /><line stroke="#999" stroke-width="3" x1="544.0" x2="547.0" y1="1256.0" y2="1257.0" /><line stroke="#999" stroke-width="3" x1="521.0" x2="978.0" y1="1576.0" y2="1556.0" /><line stroke="#999" stroke-width="3" x1="978.0" x2="906.0" y1="1556.0" y2="1187.0" /><line stroke="#999" stroke-width="3" x1="906.0" x2="912.0" y1="1187.0" y2="1180.0" /><line stroke="#999" stroke-width="3" x1="906.0" x2="900.0" y1="1187.0" y2="1189.0" /><line stroke="#666" stroke-width="20" x1="664.0" x2="850.0" y1="1479.0" y2="1459.0" /><line stroke="#666" stroke-width="20" x1="850.0" x2="808.0" y1="1459.0" y2="1309.0" /><line stroke="#666" stroke-width="20" x1="808.0" x2="650.0" y1="1309.0" y2="1345.0" /><line stroke="#666" stroke-width="20" x1="650.0" x2="664.0" y1="1345.0" y2="1479.0" /><line stroke="#999" stroke-width="3" x1="272.0" x2="446.0" y1="745.0" y2="735.0" /><line stroke="#999" stroke-width="3" x1="446.0" x2="358.0" y1="735.0" y2="395.0" /><line stroke="#999" stroke-width="3" x1="358.0" x2="191.0" y1="395.0" y2="391.0" /><line stroke="#999" stroke-width="3" x1="191.0" x2="272.0" y1="391.0" y2="745.0" /><line stroke="#999" stroke-width="3" x1="551.0" x2="541.0" y1="436.0" y2="948.0" /><line stroke="#999" stroke-width="3" x1="1027.0" x2="551.0" y1="375.0" y2="436.0" /><line stroke="#999" stroke-width="3" x1="1024.0" x2="1027.0" y1="873.0" y2="375.0" /><line stroke="#999" stroke-width="3" x1="541.0" x2="1024.0" y1="948.0" y2="873.0" /><line stroke="#999" stroke-width="3" x1="514.0" x2="561.0" y1="1109.0" y2="1238.0" /><line stroke="#999" stroke-width="3" x1="818.0" x2="514.0" y1="1024.0" y2="1109.0" /><line stroke="#999" stroke-width="3" x1="872.0" x2="818.0" y1="1139.0" y2="1024.0" /><line stroke="#999" stroke-width="3" x1="561.0" x2="872.0" y1="1238.0" y2="1139.0" /><line stroke="#999" stroke-width="3" x1="329.0" x2="376.0" y1="238.0" y2="367.0" /><line stroke="#999" stroke-width="3" x1="948.0" x2="329.0" y1="157.0" y2="238.0" /><line stroke="#999" stroke-width="3" x1="1002.0" x2="948.0" y1="272.0" y2="157.0" /><line stroke="#999" stroke-width="3" x1="376.0" x2="1002.0" y1="367.0" y2="272.0" /><line stroke="#999" stroke-width="3" x1="3639.0" x2="3646.0" y1="759.0" y2="733.0" /><line stroke="#999" stroke-width="3" x1="3609.0" x2="2377.0" y1="401.0" y2="394.0" /><line stroke="#999" stroke-width="3" x1="3665.0" x2="3609.0" y1="405.0" y2="401.0" /><line stroke="#999" stroke-width="3" x1="3596.0" x2="3639.0" y1="707.0" y2="759.0" /><line stroke="#999" stroke-width="3" x1="3596.0" x2="3599.0" y1="707.0" y2="758.0" /><line stroke="#999" stroke-width="3" x1="3599.0" x2="3639.0" y1="758.0" y2="759.0" /><line stroke="#999" stroke-width="3" x1="3646.0" x2="4594.0" y1="733.0" y2="1023.0" /><line stroke="#999" stroke-width="3" x1="3646.0" x2="3653.0" y1="733.0" y2="739.0" /><line stroke="#999" stroke-width="3" x1="3653.0" x2="3658.0" y1="739.0" y2="711.0" /><line stroke="#999" stroke-width="3" x1="3685.0" x2="3755.0" y1="675.0" y2="677.0" /><line stroke="#999" stroke-width="3" x1="3755.0" x2="3758.0" y1="677.0" y2="606.0" /><line stroke="#999" stroke-width="3" x1="3758.0" x2="3683.0" y1="606.0" y2="602.0" /><line stroke="#999" stroke-width="3" x1="3683.0" x2="3685.0" y1="602.0" y2="675.0" /><line stroke="#999" stroke-width="3" x1="3685.0" x2="3685.0" y1="678.0" y2="675.0" /><line stroke="#999" stroke-width="3" x1="3344.0" x2="3422.0" y1="653.0" y2="658.0" /><line stroke="#999" stroke-width="3" x1="3422.0" x2="3420.0" y1="658.0" y2="605.0" /><line stroke="#999" stroke-width="3" x1="3420.0" x2="3344.0" y1="605.0" y2="603.0" /><line stroke="#999" stroke-width="3" x1="3344.0" x2="3342.0" y1="603.0" y2="656.0" /><line stroke="#999" stroke-width="3" x1="3342.0" x2="3344.0" y1="656.0" y2="653.0" /><line stroke="#999" stroke-width="3" x1="1436.0" x2="1363.0" y1="617.0" y2="350.0" /><line stroke="#999" stroke-width="3" x1="1370.0" x2="1436.0" y1="631.0" y2="617.0" /><line stroke="#999" stroke-width="3" x1="1304.0" x2="1370.0" y1="350.0" y2="631.0" /><line stroke="#999" stroke-width="3" x1="1363.0" x2="1304.0" y1="350.0" y2="350.0" /><line stroke="#999" stroke-width="3" x1="547.0" x2="521.0" y1="1257.0" y2="1576.0" /></svg>