<?xml version="1.0" encoding="utf-8" ?>
<svg baseProfile="tiny" height="1024" version="1.2" viewBox="0 0 1514 1514" width="1024" xmlns="http://www.w3.org/2000/svg" xmlns:ev="http://www.w3.org/2001/xml-events" xmlns:xlink="http://www.w3.org/1999/xlink"><defs /><line stroke="#333" stroke-width="10" x1="1277.0" x2="1509.0" y1="1301.0" y2="757.0" /><line stroke="#333" stroke-width="10" x1="733.0" x2="1277.0" y1="1509.0" y2="1301.0" /><line stroke="#333" stroke-width="10" x1="213.0" x2="733.0" y1="1277.0" y2="1509.0" /><line stroke="#333" stroke-width="10" x1="5.0" x2="213.0" y1="733.0" y2="1277.0" /><line stroke="#333" stroke-width="10" x1="229.0" x2="5.0" y1="213.0" y2="733.0" /><line stroke="#333" stroke-width="10" x1="757.0" x2="229.0" y1="5.0" y2="213.0" /><line stroke="#333" stroke-width="10" x1="1301.0" x2="757.0" y1="229.0" y2="5.0" /><line stroke="#0d0" stroke-width="20" x1="1509.0" x2="1485.0" y1="757.0" y2="693.0" /><line stroke="#999" stroke-width="3" x1="653.0" x2="653.0" y1="501.0" y2="469.0" /><line stroke="#999" stroke-width="3" x1="653.0" x2="781.0" y1="469.0" y2="469.0" /><line stroke="#999" stroke-width="3" x1="781.0" x2="781.0" y1="469.0" y2="501.0" /><line stroke="#999" stroke-width="3" x1="653.0" x2="653.0" y1="533.0" y2="501.0" /><line stroke="#999" stroke-width="3" x1="653.0" x2="781.0" y1="501.0" y2="501.0" /><line stroke="#999" stroke-width="3" x1="781.0" x2="781.0" y1="501.0" y2="533.0" /><line stroke="#999" stroke-width="3" x1="653.0" x2="653.0" y1="565.0" y2="533.0" /><line stroke="#999" stroke-width="3" x1="653.0" x2="781.0" y1="533.0" y2="533.0" /><line stroke="#999" stroke-width="3" x1="781.0" x2="781.0" y1="533.0" y2="565.0" /><line stroke="#999" stroke-width="3" x1="653.0" x2="653.0" y1="597.0" y2="565.0" /><line stroke="#999" stroke-width="3" x1="653.0" x2="781.0" y1="565.0" y2="565.0" /><line stroke="#999" stroke-width="3" x1="781.0" x2="781.0" y1="565.0" y2="597.0" /><line stroke="#999" stroke-width="3" x1="653.0" x2="653.0" y1="629.0" y2="597.0" /><line stroke="#999" stroke-width="3" x1="653.0" x2="781.0" y1="597.0" y2="597.0" /><line stroke="#999" stroke-width="3" x1="781.0" x2="781.0" y1="597.0" y2="629.0" /><line stroke="#999" stroke-width="3" x1="653.0" x2="653.0" y1="661.0" y2="629.0" /><line stroke="#999" stroke-width="3" x1="653.0" x2="781.0" y1="629.0" y2="629.0" /><line stroke="#999" stroke-width="3" x1="781.0" x2="781.0" y1="629.0" y2="661.0" /><line stroke="#999" stroke-width="3" x1="653.0" x2="653.0" y1="693.0" y2="661.0" /><line stroke="#999" stroke-width="3" x1="653.0" x2="781.0" y1="661.0" y2="661.0" /><line stroke="#999" stroke-width="3" x1="781.0" x2="781.0" y1="661.0" y2="693.0" /><line stroke="#999" stroke-width="3" x1="653.0" x2="653.0" y1="725.0" y2="693.0" /><line stroke="#999" stroke-width="3" x1="653.0" x2="781.0" y1="693.0" y2="693.0" /><line stroke="#999" stroke-width="3" x1="781.0" x2="781.0" y1="693.0" y2="725.0" /><line stroke="#999" stroke-width="3" x1="653.0" x2="653.0" y1="757.0" y2="725.0" /><line stroke="#999" stroke-width="3" x1="653.0" x2="781.0" y1="725.0" y2="725.0" /><line stroke="#999" stroke-width="3" x1="781.0" x2="781.0" y1="725.0" y2="757.0" /><line stroke="#999" stroke-width="3" x1="653.0" x2="653.0" y1="789.0" y2="757.0" /><line stroke="#999" stroke-width="3" x1="653.0" x2="781.0" y1="757.0" y2="757.0" /><line stroke="#999" stroke-width="3" x1="781.0" x2="781.0" y1="757.0" y2="789.0" /><line stroke="#999" stroke-width="3" x1="653.0" x2="653.0" y1="821.0" y2="789.0" /><line stroke="#999" stroke-width="3" x1="653.0" x2="781.0" y1="789.0" y2="789.0" /><line stroke="#999" stroke-width="3" x1="781.0" x2="781.0" y1="789.0" y2="821.0" /><line stroke="#999" stroke-width="3" x1="653.0" x2="653.0" y1="853.0" y2="821.0" /><line stroke="#999" stroke-width="3" x1="653.0" x2="781.0" y1="821.0" y2="821.0" /><line stroke="#999" stroke-width="3" x1="781.0" x2="781.0" y1="821.0" y2="853.0" /><line stroke="#999" stroke-width="3" x1="653.0" x2="653.0" y1="885.0" y2="853.0" /><line stroke="#999" stroke-width="3" x1="653.0" x2="781.0" y1="853.0" y2="853.0" /><line stroke="#999" stroke-width="3" x1="781.0" x2="781.0" y1="853.0" y2="885.0" /><line stroke="#999" stroke-width="3" x1="653.0" x2="653.0" y1="917.0" y2="885.0" /><line stroke="#999" stroke-width="3" x1="653.0" x2="781.0" y1="885.0" y2="885.0" /><line stroke="#999" stroke-width="3" x1="781.0" x2="781.0" y1="885.0" y2="917.0" /><line stroke="#999" stroke-width="3" x1="653.0" x2="653.0" y1="949.0" y2="917.0" /><line stroke="#999" stroke-width="3" x1="653.0" x2="781.0" y1="917.0" y2="917.0" /><line stroke="#999" stroke-width="3" x1="781.0" x2="781.0" y1="917.0" y2="949.0" /><line stroke="#999" stroke-width="3" x1="653.0" x2="653.0" y1="981.0" y2="949.0" /><line stroke="#999" stroke-width="3" x1="653.0" x2="781.0" y1="949.0" y2="949.0" /><line stroke="#999" stroke-width="3" x1="781.0" x2="781.0" y1="949.0" y2="981.0" /><line stroke="#999" stroke-width="3" x1="653.0" x2="653.0" y1="1013.0" y2="981.0" /><line stroke="#999" stroke-width="3" x1="653.0" x2="781.0" y1="981.0" y2="981.0" /><line stroke="#999" stroke-width="3" x1="781.0" x2="781.0" y1="981.0" y2="1013.0" /><line stroke="#999" stroke-width="3" x1="653.0" x2="653.0" y1="1045.0" y2="1013.0" /><line stroke="#999" stroke-width="3" x1="653.0" x2="781.0" y1="1013.0" y2="1013.0" /><line stroke="#999" stroke-width="3" x1="781.0" x2="781.0" y1="1013.0" y2="1045.0" /><line stroke="#999" stroke-width="3" x1="653.0" x2="653.0" y1="1077.0" y2="1045.0" /><line stroke="#999" stroke-width="3" x1="653.0" x2="781.0" y1="1045.0" y2="1045.0" /><line stroke="#999" stroke-width="3" x1="781.0" x2="781.0" y1="1045.0" y2="1077.0" /><line stroke="#999" stroke-width="3" x1="653.0" x2="653.0" y1="1109.0" y2="1077.0" /><line stroke="#999" stroke-width="3" x1="653.0" x2="781.0" y1="1077.0" y2="1077.0" /><line stroke="#999" stroke-width="3" x1="781.0" x2="781.0" y1="1077.0" y2="1109.0" /><line stroke="#999" stroke-width="3" x1="653.0" x2="781.0" y1="1109.0" y2="1109.0" /><line stroke="#999" stroke-width="3" x1="1029.0" x2="1421.0" y1="581.0" y2="581.0" /><line stroke="#999" stroke-width="3" x1="1421.0" x2="1421.0" y1="581.0" y2="901.0" /><line stroke="#999" stroke-width="3" x1="1421.0" x2="1029.0" y1="901.0" y2="901.0" /><line stroke="#999" stroke-width="3" x1="1029.0" x2="1029.0" y1="901.0" y2="581.0" /><line stroke="#999" stroke-width="3" x1="229.0" x2="389.0" y1="757.0" y2="757.0" /><line stroke="#999" stroke-width="3" x1="389.0" x2="389.0" y1="757.0" y2="909.0" /><line stroke="#999" stroke-width="3" x1="389.0" x2="229.0" y1="909.0" y2="909.0" /><line stroke="#999" stroke-width="3" x1="229.0" x2="229.0" y1="909.0" y2="757.0" /><line stroke="#333" stroke-width="10" x1="1485.0" x2="1301.0" y1="693.0" y2="229.0" /><ellipse cx="701.0" cy="1093.0" fill="#009" rx="12" ry="24" stroke="#009" stroke-width="5" /><rect fill="#900" height="48" stroke="#900" stroke-width="5" transform="rotate(0,309.0,837.0)" width="32" x="293.0" y="813.0" /><rect fill="#900" height="48" stroke="#900" stroke-width="5" transform="rotate(180,1237.0,741.0)" width="32" x="1221.0" y="717.0" /></svg>