<?xml version="1.0" encoding="utf-8" ?>
<svg baseProfile="tiny" height="599" version="1.2" viewBox="0 0 850 498" width="1024" xmlns="http://www.w3.org/2000/svg" xmlns:ev="http://www.w3.org/2001/xml-events" xmlns:xlink="http://www.w3.org/1999/xlink"><defs /><line stroke="#333" stroke-width="10" x1="5.0" x2="845.0" y1="493.0" y2="493.0" /><line stroke="#333" stroke-width="10" x1="845.0" x2="845.0" y1="493.0" y2="5.0" /><line stroke="#333" stroke-width="10" x1="845.0" x2="5.0" y1="5.0" y2="5.0" /><line stroke="#333" stroke-width="10" x1="5.0" x2="5.0" y1="5.0" y2="493.0" /><line stroke="#0d0" stroke-width="20" x1="349.0" x2="445.0" y1="213.0" y2="213.0" /><line stroke="#0d0" stroke-width="20" x1="445.0" x2="445.0" y1="213.0" y2="317.0" /><line stroke="#0d0" stroke-width="20" x1="445.0" x2="349.0" y1="317.0" y2="317.0" /><line stroke="#0d0" stroke-width="20" x1="349.0" x2="349.0" y1="317.0" y2="213.0" /><ellipse cx="53.0" cy="253.0" fill="#009" rx="12" ry="24" stroke="#009" stroke-width="5" /><rect fill="#900" height="48" stroke="#900" stroke-width="5" transform="rotate(180,397.0,261.0)" width="32" x="381.0" y="237.0" /><rect fill="#900" height="48" stroke="#900" stroke-width="5" transform="rotate(180,789.0,301.0)" width="32" x="773.0" y="277.0" /><rect fill="#900" height="48" stroke="#900" stroke-width="5" transform="rotate(180,789.0,237.0)" width="32" x="773.0" y="213.0" /><rect fill="#900" height="48" stroke="#900" stroke-width="5" transform="rotate(180,789.0,61.0)" width="32" x="773.0" y="37.0" /><rect fill="#900" height="48" stroke="#900" stroke-width="5" transform="rotate(180,781.0,453.0)" width="32" x="765.0" y="429.0" /><circle cx="573.0" cy="261.0" fill="#009" r="16" stroke="#009" stroke-width="5" /><ellipse cx="325.0" cy="301.0" fill="#900" rx="12" ry="24" stroke="#900" stroke-width="5" /><ellipse cx="325.0" cy="261.0" fill="#900" rx="12" ry="24" stroke="#900" stroke-width="5" /><ellipse cx="325.0" cy="221.0" fill="#900" rx="12" ry="24" stroke="#900" stroke-width="5" /><ellipse cx="365.0" cy="189.0" fill="#900" rx="12" ry="24" stroke="#900" stroke-width="5" /><ellipse cx="413.0" cy="189.0" fill="#900" rx="12" ry="24" stroke="#900" stroke-width="5" /><ellipse cx="469.0" cy="229.0" fill="#900" rx="12" ry="24" stroke="#900" stroke-width="5" /><ellipse cx="469.0" cy="269.0" fill="#900" rx="12" ry="24" stroke="#900" stroke-width="5" /><ellipse cx="469.0" cy="309.0" fill="#900" rx="12" ry="24" stroke="#900" stroke-width="5" /><ellipse cx="421.0" cy="341.0" fill="#900" rx="12" ry="24" stroke="#900" stroke-width="5" /><ellipse cx="373.0" cy="341.0" fill="#900" rx="12" ry="24" stroke="#900" stroke-width="5" /><ellipse cx="325.0" cy="341.0" fill="#900" rx="12" ry="24" stroke="#900" stroke-width="5" /><ellipse cx="469.0" cy="341.0" fill="#900" rx="12" ry="24" stroke="#900" stroke-width="5" /><ellipse cx="469.0" cy="189.0" fill="#900" rx="12" ry="24" stroke="#900" stroke-width="5" /><ellipse cx="325.0" cy="189.0" fill="#900" rx="12" ry="24" stroke="#900" stroke-width="5" /></svg>