<?xml version="1.0" encoding="utf-8" ?>
<svg baseProfile="tiny" height="587" version="1.2" viewBox="0 0 3426 1966" width="1024" xmlns="http://www.w3.org/2000/svg" xmlns:ev="http://www.w3.org/2001/xml-events" xmlns:xlink="http://www.w3.org/1999/xlink"><defs /><line stroke="#333" stroke-width="10" x1="1485.0" x2="1485.0" y1="412.0" y2="972.0" /><line stroke="#333" stroke-width="10" x1="2717.0" x2="1485.0" y1="412.0" y2="412.0" /><line stroke="#333" stroke-width="10" x1="2717.0" x2="2717.0" y1="1292.0" y2="748.0" /><line stroke="#333" stroke-width="10" x1="1485.0" x2="2189.0" y1="1292.0" y2="1292.0" /><line stroke="#333" stroke-width="10" x1="1573.0" x2="1573.0" y1="628.0" y2="452.0" /><line stroke="#333" stroke-width="10" x1="1573.0" x2="1709.0" y1="452.0" y2="452.0" /><line stroke="#333" stroke-width="10" x1="1709.0" x2="1709.0" y1="452.0" y2="628.0" /><line stroke="#333" stroke-width="10" x1="1709.0" x2="1573.0" y1="628.0" y2="628.0" /><line stroke="#333" stroke-width="10" x1="1605.0" x2="1605.0" y1="492.0" y2="588.0" /><line stroke="#333" stroke-width="10" x1="1677.0" x2="1605.0" y1="492.0" y2="492.0" /><line stroke="#333" stroke-width="10" x1="1677.0" x2="1677.0" y1="588.0" y2="492.0" /><line stroke="#333" stroke-width="10" x1="1605.0" x2="1677.0" y1="588.0" y2="588.0" /><line stroke="#333" stroke-width="10" x1="1621.0" x2="1621.0" y1="564.0" y2="516.0" /><line stroke="#333" stroke-width="10" x1="1621.0" x2="1669.0" y1="516.0" y2="516.0" /><line stroke="#333" stroke-width="10" x1="1669.0" x2="1669.0" y1="516.0" y2="564.0" /><line stroke="#333" stroke-width="10" x1="1669.0" x2="1621.0" y1="564.0" y2="564.0" /><line stroke="#333" stroke-width="10" x1="1589.0" x2="1589.0" y1="1180.0" y2="1060.0" /><line stroke="#333" stroke-width="10" x1="1589.0" x2="2197.0" y1="1060.0" y2="1060.0" /><line stroke="#333" stroke-width="10" x1="2197.0" x2="2197.0" y1="1060.0" y2="1180.0" /><line stroke="#333" stroke-width="10" x1="2197.0" x2="1589.0" y1="1180.0" y2="1180.0" /><line stroke="#333" stroke-width="10" x1="2189.0" x2="2189.0" y1="1292.0" y2="1356.0" /><line stroke="#999" stroke-width="3" x1="2189.0" x2="2317.0" y1="1292.0" y2="1292.0" /><line stroke="#333" stroke-width="10" x1="2317.0" x2="2317.0" y1="1356.0" y2="1292.0" /><line stroke="#333" stroke-width="10" x1="2189.0" x2="2189.0" y1="1356.0" y2="1388.0" /><line stroke="#999" stroke-width="3" x1="2189.0" x2="2317.0" y1="1356.0" y2="1356.0" /><line stroke="#333" stroke-width="10" x1="2317.0" x2="2317.0" y1="1388.0" y2="1356.0" /><line stroke="#333" stroke-width="10" x1="2189.0" x2="2189.0" y1="1388.0" y2="1420.0" /><line stroke="#999" stroke-width="3" x1="2189.0" x2="2317.0" y1="1388.0" y2="1388.0" /><line stroke="#333" stroke-width="10" x1="2317.0" x2="2317.0" y1="1420.0" y2="1388.0" /><line stroke="#333" stroke-width="10" x1="2189.0" x2="2189.0" y1="1420.0" y2="1452.0" /><line stroke="#999" stroke-width="3" x1="2189.0" x2="2317.0" y1="1420.0" y2="1420.0" /><line stroke="#333" stroke-width="10" x1="2317.0" x2="2317.0" y1="1452.0" y2="1420.0" /><line stroke="#333" stroke-width="10" x1="2189.0" x2="2189.0" y1="1452.0" y2="1484.0" /><line stroke="#999" stroke-width="3" x1="2189.0" x2="2317.0" y1="1452.0" y2="1452.0" /><line stroke="#333" stroke-width="10" x1="2317.0" x2="2317.0" y1="1484.0" y2="1452.0" /><line stroke="#333" stroke-width="10" x1="2189.0" x2="2189.0" y1="1484.0" y2="1596.0" /><line stroke="#999" stroke-width="3" x1="2189.0" x2="2317.0" y1="1484.0" y2="1484.0" /><line stroke="#333" stroke-width="10" x1="2317.0" x2="2317.0" y1="1596.0" y2="1484.0" /><line stroke="#999" stroke-width="3" x1="2189.0" x2="2317.0" y1="1596.0" y2="1596.0" /><line stroke="#333" stroke-width="10" x1="2317.0" x2="2717.0" y1="1292.0" y2="1292.0" /><line stroke="#333" stroke-width="10" x1="2771.0" x2="2582.0" y1="1596.0" y2="1597.0" /><line stroke="#333" stroke-width="10" x1="2005.0" x2="1853.0" y1="1596.0" y2="1756.0" /><line stroke="#333" stroke-width="10" x1="1853.0" x2="2555.0" y1="1756.0" y2="1754.0" /><line stroke="#333" stroke-width="10" x1="2776.0" x2="2771.0" y1="1753.0" y2="1596.0" /><line stroke="#333" stroke-width="10" x1="2189.0" x2="2005.0" y1="1596.0" y2="1596.0" /><line stroke="#333" stroke-width="10" x1="1317.0" x2="1317.0" y1="500.0" y2="1300.0" /><line stroke="#333" stroke-width="10" x1="1405.0" x2="1317.0" y1="500.0" y2="500.0" /><line stroke="#333" stroke-width="10" x1="1405.0" x2="1405.0" y1="1300.0" y2="1036.0" /><line stroke="#999" stroke-width="3" x1="1317.0" x2="1405.0" y1="1300.0" y2="1300.0" /><line stroke="#999" stroke-width="3" x1="1405.0" x2="1405.0" y1="1036.0" y2="972.0" /><line stroke="#333" stroke-width="10" x1="1485.0" x2="1485.0" y1="1036.0" y2="1292.0" /><line stroke="#333" stroke-width="10" x1="1405.0" x2="1445.0" y1="1036.0" y2="1036.0" /><line stroke="#999" stroke-width="3" x1="1485.0" x2="1485.0" y1="972.0" y2="1036.0" /><line stroke="#333" stroke-width="10" x1="1405.0" x2="1405.0" y1="972.0" y2="500.0" /><line stroke="#333" stroke-width="10" x1="1485.0" x2="1461.0" y1="972.0" y2="972.0" /><line stroke="#333" stroke-width="10" x1="1461.0" x2="1445.0" y1="972.0" y2="972.0" /><line stroke="#666" stroke-width="20" x1="1461.0" x2="1461.0" y1="972.0" y2="1036.0" /><line stroke="#333" stroke-width="10" x1="1445.0" x2="1461.0" y1="1036.0" y2="1036.0" /><line stroke="#666" stroke-width="20" x1="1445.0" x2="1445.0" y1="1036.0" y2="972.0" /><line stroke="#333" stroke-width="10" x1="1445.0" x2="1405.0" y1="972.0" y2="972.0" /><line stroke="#333" stroke-width="10" x1="1461.0" x2="1485.0" y1="1036.0" y2="1036.0" /><line stroke="#999" stroke-width="3" x1="2045.0" x2="2077.0" y1="468.0" y2="564.0" /><line stroke="#999" stroke-width="3" x1="2077.0" x2="2013.0" y1="564.0" y2="564.0" /><line stroke="#999" stroke-width="3" x1="2013.0" x2="2045.0" y1="564.0" y2="468.0" /><line stroke="#00d" stroke-width="20" x1="2077.0" x2="2141.0" y1="436.0" y2="436.0" /><line stroke="#00d" stroke-width="20" x1="2141.0" x2="2141.0" y1="436.0" y2="500.0" /><line stroke="#00d" stroke-width="20" x1="2141.0" x2="2077.0" y1="500.0" y2="500.0" /><line stroke="#00d" stroke-width="20" x1="2077.0" x2="2077.0" y1="500.0" y2="436.0" /><line stroke="#333" stroke-width="10" x1="1869.0" x2="1405.0" y1="1372.0" y2="1372.0" /><line stroke="#333" stroke-width="10" x1="2093.0" x2="1869.0" y1="1492.0" y2="1372.0" /><line stroke="#333" stroke-width="10" x1="2021.0" x2="2093.0" y1="1548.0" y2="1492.0" /><line stroke="#333" stroke-width="10" x1="1893.0" x2="2021.0" y1="1468.0" y2="1548.0" /><line stroke="#333" stroke-width="10" x1="1877.0" x2="1893.0" y1="1708.0" y2="1468.0" /><line stroke="#333" stroke-width="10" x1="1789.0" x2="1877.0" y1="1708.0" y2="1708.0" /><line stroke="#333" stroke-width="10" x1="1797.0" x2="1789.0" y1="1476.0" y2="1708.0" /><line stroke="#333" stroke-width="10" x1="1749.0" x2="1797.0" y1="1476.0" y2="1476.0" /><line stroke="#333" stroke-width="10" x1="1733.0" x2="1749.0" y1="1809.0" y2="1476.0" /><line stroke="#333" stroke-width="10" x1="1637.0" x2="1733.0" y1="1708.0" y2="1809.0" /><line stroke="#333" stroke-width="10" x1="1637.0" x2="1637.0" y1="1468.0" y2="1708.0" /><line stroke="#333" stroke-width="10" x1="244.0" x2="475.0" y1="1472.0" y2="1470.0" /><line stroke="#999" stroke-width="3" x1="1317.0" x2="1221.0" y1="1372.0" y2="1372.0" /><line stroke="#333" stroke-width="10" x1="1317.0" x2="1317.0" y1="1300.0" y2="1324.0" /><line stroke="#999" stroke-width="3" x1="1405.0" x2="1317.0" y1="1372.0" y2="1372.0" /><line stroke="#333" stroke-width="10" x1="1405.0" x2="1405.0" y1="1372.0" y2="1340.0" /><line stroke="#333" stroke-width="10" x1="1317.0" x2="1317.0" y1="1324.0" y2="1340.0" /><line stroke="#d00" stroke-width="20" x1="1317.0" x2="1405.0" y1="1324.0" y2="1324.0" /><line stroke="#333" stroke-width="10" x1="1405.0" x2="1405.0" y1="1340.0" y2="1324.0" /><line stroke="#d00" stroke-width="20" x1="1405.0" x2="1317.0" y1="1340.0" y2="1340.0" /><line stroke="#333" stroke-width="10" x1="1405.0" x2="1405.0" y1="1324.0" y2="1300.0" /><line stroke="#333" stroke-width="10" x1="1317.0" x2="1317.0" y1="1340.0" y2="1372.0" /><line stroke="#999" stroke-width="3" x1="1501.0" x2="1637.0" y1="1468.0" y2="1468.0" /><line stroke="#333" stroke-width="10" x1="1501.0" x2="1557.0" y1="1468.0" y2="1732.0" /><line stroke="#333" stroke-width="10" x1="1557.0" x2="1637.0" y1="1732.0" y2="1468.0" /><line stroke="#333" stroke-width="10" x1="1517.0" x2="1461.0" y1="1716.0" y2="1468.0" /><line stroke="#333" stroke-width="10" x1="1461.0" x2="1517.0" y1="1740.0" y2="1716.0" /><line stroke="#999" stroke-width="3" x1="1373.0" x2="1461.0" y1="1468.0" y2="1468.0" /><line stroke="#333" stroke-width="10" x1="1373.0" x2="1461.0" y1="1468.0" y2="1740.0" /><line stroke="#333" stroke-width="10" x1="1461.0" x2="1501.0" y1="1468.0" y2="1468.0" /><line stroke="#333" stroke-width="10" x1="1133.0" x2="1045.0" y1="1372.0" y2="1370.0" /><line stroke="#333" stroke-width="10" x1="1133.0" x2="1133.0" y1="1196.0" y2="1372.0" /><line stroke="#333" stroke-width="10" x1="1229.0" x2="1133.0" y1="1124.0" y2="1196.0" /><line stroke="#999" stroke-width="3" x1="1221.0" x2="1133.0" y1="1372.0" y2="1372.0" /><line stroke="#333" stroke-width="10" x1="1221.0" x2="1229.0" y1="1372.0" y2="1124.0" /><line stroke="#333" stroke-width="10" x1="1253.0" x2="1221.0" y1="1196.0" y2="1372.0" /><line stroke="#333" stroke-width="10" x1="1317.0" x2="1253.0" y1="1372.0" y2="1196.0" /><line stroke="#0d0" stroke-width="20" x1="2955.0" x2="3019.0" y1="1133.0" y2="1133.0" /><line stroke="#0d0" stroke-width="20" x1="3019.0" x2="3019.0" y1="1133.0" y2="1197.0" /><line stroke="#0d0" stroke-width="20" x1="3019.0" x2="2955.0" y1="1197.0" y2="1197.0" /><line stroke="#0d0" stroke-width="20" x1="2955.0" x2="2955.0" y1="1197.0" y2="1133.0" /><line stroke="#333" stroke-width="10" x1="2717.0" x2="2717.0" y1="660.0" y2="412.0" /><line stroke="#333" stroke-width="10" x1="3277.0" x2="3117.0" y1="660.0" y2="660.0" /><line stroke="#333" stroke-width="10" x1="3277.0" x2="3277.0" y1="748.0" y2="660.0" /><line stroke="#999" stroke-width="3" x1="2717.0" x2="2717.0" y1="748.0" y2="660.0" /><line stroke="#333" stroke-width="10" x1="2717.0" x2="2829.0" y1="748.0" y2="748.0" /><line stroke="#333" stroke-width="10" x1="2829.0" x2="2717.0" y1="660.0" y2="660.0" /><line stroke="#333" stroke-width="10" x1="2829.0" x2="2829.0" y1="420.0" y2="660.0" /><line stroke="#999" stroke-width="3" x1="2933.0" x2="2829.0" y1="660.0" y2="660.0" /><line stroke="#333" stroke-width="10" x1="2933.0" x2="2829.0" y1="660.0" y2="420.0" /><line stroke="#999" stroke-width="3" x1="2829.0" x2="2941.0" y1="748.0" y2="748.0" /><line stroke="#333" stroke-width="10" x1="2829.0" x2="2829.0" y1="748.0" y2="956.0" /><line stroke="#333" stroke-width="10" x1="2941.0" x2="3013.0" y1="748.0" y2="748.0" /><line stroke="#333" stroke-width="10" x1="2829.0" x2="2941.0" y1="956.0" y2="748.0" /><line stroke="#333" stroke-width="10" x1="3021.0" x2="2933.0" y1="660.0" y2="660.0" /><line stroke="#333" stroke-width="10" x1="3021.0" x2="3021.0" y1="388.0" y2="660.0" /><line stroke="#333" stroke-width="10" x1="3421.0" x2="3021.0" y1="388.0" y2="388.0" /><line stroke="#333" stroke-width="10" x1="3421.0" x2="3421.0" y1="916.0" y2="388.0" /><line stroke="#333" stroke-width="10" x1="3013.0" x2="3421.0" y1="916.0" y2="916.0" /><line stroke="#333" stroke-width="10" x1="3013.0" x2="3013.0" y1="748.0" y2="916.0" /><line stroke="#333" stroke-width="10" x1="3101.0" x2="3277.0" y1="748.0" y2="748.0" /><line stroke="#333" stroke-width="10" x1="3101.0" x2="3101.0" y1="828.0" y2="748.0" /><line stroke="#333" stroke-width="10" x1="3333.0" x2="3101.0" y1="828.0" y2="828.0" /><line stroke="#333" stroke-width="10" x1="3333.0" x2="3333.0" y1="468.0" y2="828.0" /><line stroke="#333" stroke-width="10" x1="3117.0" x2="3333.0" y1="468.0" y2="468.0" /><line stroke="#333" stroke-width="10" x1="3117.0" x2="3117.0" y1="660.0" y2="468.0" /><line stroke="#00d" stroke-width="20" x1="3021.0" x2="3069.0" y1="660.0" y2="700.0" /><line stroke="#00d" stroke-width="20" x1="3069.0" x2="3101.0" y1="700.0" y2="748.0" /><line stroke="#00d" stroke-width="20" x1="3101.0" x2="3021.0" y1="748.0" y2="748.0" /><line stroke="#00d" stroke-width="20" x1="3021.0" x2="3021.0" y1="748.0" y2="660.0" /><line stroke="#333" stroke-width="10" x1="2021.0" x2="2021.0" y1="116.0" y2="268.0" /><line stroke="#333" stroke-width="10" x1="3085.0" x2="2021.0" y1="5.0" y2="116.0" /><line stroke="#333" stroke-width="10" x1="3085.0" x2="3085.0" y1="268.0" y2="5.0" /><line stroke="#333" stroke-width="10" x1="2021.0" x2="3085.0" y1="268.0" y2="268.0" /><line stroke="#00d" stroke-width="20" x1="2045.0" x2="2109.0" y1="180.0" y2="180.0" /><line stroke="#00d" stroke-width="20" x1="2109.0" x2="2109.0" y1="180.0" y2="244.0" /><line stroke="#00d" stroke-width="20" x1="2109.0" x2="2045.0" y1="244.0" y2="244.0" /><line stroke="#00d" stroke-width="20" x1="2045.0" x2="2045.0" y1="244.0" y2="180.0" /><line stroke="#00d" stroke-width="20" x1="3197.0" x2="3261.0" y1="676.0" y2="676.0" /><line stroke="#00d" stroke-width="20" x1="3261.0" x2="3261.0" y1="676.0" y2="724.0" /><line stroke="#00d" stroke-width="20" x1="3261.0" x2="3197.0" y1="724.0" y2="724.0" /><line stroke="#00d" stroke-width="20" x1="3197.0" x2="3197.0" y1="724.0" y2="676.0" /><line stroke="#999" stroke-width="3" x1="2998.0" x2="3062.0" y1="133.0" y2="133.0" /><line stroke="#999" stroke-width="3" x1="3062.0" x2="3062.0" y1="133.0" y2="197.0" /><line stroke="#999" stroke-width="3" x1="3062.0" x2="2998.0" y1="197.0" y2="197.0" /><line stroke="#999" stroke-width="3" x1="2998.0" x2="2998.0" y1="197.0" y2="133.0" /><line stroke="#999" stroke-width="3" x1="3336.0" x2="3392.0" y1="569.0" y2="569.0" /><line stroke="#999" stroke-width="3" x1="3392.0" x2="3392.0" y1="569.0" y2="633.0" /><line stroke="#999" stroke-width="3" x1="3392.0" x2="3336.0" y1="633.0" y2="633.0" /><line stroke="#999" stroke-width="3" x1="3336.0" x2="3336.0" y1="633.0" y2="569.0" /><line stroke="#999" stroke-width="3" x1="2397.0" x2="2461.0" y1="1676.0" y2="1676.0" /><line stroke="#999" stroke-width="3" x1="2461.0" x2="2461.0" y1="1676.0" y2="1740.0" /><line stroke="#999" stroke-width="3" x1="2461.0" x2="2397.0" y1="1740.0" y2="1740.0" /><line stroke="#999" stroke-width="3" x1="2397.0" x2="2397.0" y1="1740.0" y2="1676.0" /><line stroke="#999" stroke-width="3" x1="1501.0" x2="1565.0" y1="532.0" y2="532.0" /><line stroke="#999" stroke-width="3" x1="1565.0" x2="1565.0" y1="532.0" y2="596.0" /><line stroke="#999" stroke-width="3" x1="1565.0" x2="1501.0" y1="596.0" y2="596.0" /><line stroke="#999" stroke-width="3" x1="1501.0" x2="1501.0" y1="596.0" y2="532.0" /><line stroke="#999" stroke-width="3" x1="1140.0" x2="1246.0" y1="1470.0" y2="1470.0" /><line stroke="#333" stroke-width="10" x1="1140.0" x2="1140.0" y1="1470.0" y2="1939.0" /><line stroke="#333" stroke-width="10" x1="1140.0" x2="1246.0" y1="1939.0" y2="1939.0" /><line stroke="#333" stroke-width="10" x1="1246.0" x2="1373.0" y1="1470.0" y2="1468.0" /><line stroke="#999" stroke-width="3" x1="1246.0" x2="1246.0" y1="1939.0" y2="1829.0" /><line stroke="#333" stroke-width="10" x1="1246.0" x2="1246.0" y1="1829.0" y2="1470.0" /><line stroke="#333" stroke-width="10" x1="3105.0" x2="3052.0" y1="1828.0" y2="1828.0" /><line stroke="#333" stroke-width="10" x1="3105.0" x2="3105.0" y1="1939.0" y2="1828.0" /><line stroke="#333" stroke-width="10" x1="1246.0" x2="1293.0" y1="1939.0" y2="1939.0" /><line stroke="#333" stroke-width="10" x1="2875.0" x2="2874.0" y1="1116.0" y2="1705.0" /><line stroke="#333" stroke-width="10" x1="3052.0" x2="2875.0" y1="1116.0" y2="1116.0" /><line stroke="#333" stroke-width="10" x1="3052.0" x2="3055.0" y1="1828.0" y2="1746.0" /><line stroke="#999" stroke-width="3" x1="2875.0" x2="3052.0" y1="1828.0" y2="1828.0" /><line stroke="#333" stroke-width="10" x1="2875.0" x2="1311.0" y1="1828.0" y2="1830.0" /><line stroke="#333" stroke-width="10" x1="2874.0" x2="2874.0" y1="1705.0" y2="1745.0" /><line stroke="#d00" stroke-width="20" x1="2874.0" x2="3054.0" y1="1705.0" y2="1705.0" /><line stroke="#333" stroke-width="10" x1="3055.0" x2="3054.0" y1="1746.0" y2="1705.0" /><line stroke="#d00" stroke-width="20" x1="3055.0" x2="2874.0" y1="1746.0" y2="1745.0" /><line stroke="#333" stroke-width="10" x1="3054.0" x2="3052.0" y1="1705.0" y2="1116.0" /><line stroke="#333" stroke-width="10" x1="2874.0" x2="2875.0" y1="1745.0" y2="1828.0" /><line stroke="#333" stroke-width="10" x1="1045.0" x2="892.0" y1="1005.0" y2="1369.0" /><line stroke="#333" stroke-width="10" x1="1045.0" x2="1045.0" y1="1370.0" y2="1005.0" /><line stroke="#999" stroke-width="3" x1="903.0" x2="1116.0" y1="1470.0" y2="1469.0" /><line stroke="#333" stroke-width="10" x1="903.0" x2="903.0" y1="1470.0" y2="1788.0" /><line stroke="#333" stroke-width="10" x1="903.0" x2="1009.0" y1="1788.0" y2="1961.0" /><line stroke="#333" stroke-width="10" x1="1009.0" x2="1116.0" y1="1961.0" y2="1469.0" /><line stroke="#333" stroke-width="10" x1="1116.0" x2="1140.0" y1="1469.0" y2="1470.0" /><line stroke="#333" stroke-width="10" x1="892.0" x2="798.0" y1="1369.0" y2="1369.0" /><line stroke="#333" stroke-width="10" x1="1311.0" x2="1293.0" y1="1830.0" y2="1830.0" /><line stroke="#d00" stroke-width="20" x1="1311.0" x2="1311.0" y1="1830.0" y2="1939.0" /><line stroke="#333" stroke-width="10" x1="1293.0" x2="1311.0" y1="1939.0" y2="1939.0" /><line stroke="#d00" stroke-width="20" x1="1293.0" x2="1293.0" y1="1939.0" y2="1830.0" /><line stroke="#333" stroke-width="10" x1="1293.0" x2="1246.0" y1="1830.0" y2="1829.0" /><line stroke="#333" stroke-width="10" x1="1311.0" x2="3105.0" y1="1939.0" y2="1939.0" /><line stroke="#999" stroke-width="3" x1="892.0" x2="1045.0" y1="1369.0" y2="1370.0" /><line stroke="#333" stroke-width="10" x1="694.0" x2="595.0" y1="1369.0" y2="1369.0" /><line stroke="#333" stroke-width="10" x1="694.0" x2="694.0" y1="873.0" y2="1369.0" /><line stroke="#333" stroke-width="10" x1="1231.0" x2="694.0" y1="861.0" y2="873.0" /><line stroke="#333" stroke-width="10" x1="1223.0" x2="1231.0" y1="953.0" y2="861.0" /><line stroke="#333" stroke-width="10" x1="798.0" x2="1223.0" y1="971.0" y2="953.0" /><line stroke="#999" stroke-width="3" x1="798.0" x2="694.0" y1="1369.0" y2="1369.0" /><line stroke="#333" stroke-width="10" x1="798.0" x2="798.0" y1="1369.0" y2="971.0" /><line stroke="#333" stroke-width="10" x1="2582.0" x2="2555.0" y1="1597.0" y2="1597.0" /><line stroke="#d00" stroke-width="20" x1="2582.0" x2="2582.0" y1="1597.0" y2="1754.0" /><line stroke="#333" stroke-width="10" x1="2555.0" x2="2582.0" y1="1754.0" y2="1754.0" /><line stroke="#d00" stroke-width="20" x1="2555.0" x2="2555.0" y1="1754.0" y2="1597.0" /><line stroke="#333" stroke-width="10" x1="2555.0" x2="2317.0" y1="1597.0" y2="1596.0" /><line stroke="#333" stroke-width="10" x1="2582.0" x2="2776.0" y1="1754.0" y2="1753.0" /><line stroke="#999" stroke-width="3" x1="475.0" x2="649.0" y1="1470.0" y2="1469.0" /><line stroke="#333" stroke-width="10" x1="475.0" x2="475.0" y1="1470.0" y2="1841.0" /><line stroke="#333" stroke-width="10" x1="649.0" x2="722.0" y1="1469.0" y2="1471.0" /><line stroke="#333" stroke-width="10" x1="475.0" x2="649.0" y1="1841.0" y2="1469.0" /><line stroke="#999" stroke-width="3" x1="722.0" x2="842.0" y1="1471.0" y2="1470.0" /><line stroke="#333" stroke-width="10" x1="722.0" x2="722.0" y1="1471.0" y2="1831.0" /><line stroke="#333" stroke-width="10" x1="722.0" x2="835.0" y1="1831.0" y2="1831.0" /><line stroke="#333" stroke-width="10" x1="842.0" x2="903.0" y1="1470.0" y2="1470.0" /><line stroke="#333" stroke-width="10" x1="835.0" x2="842.0" y1="1831.0" y2="1470.0" /><line stroke="#999" stroke-width="3" x1="245.0" x2="244.0" y1="1369.0" y2="1472.0" /><line stroke="#999" stroke-width="3" x1="295.0" x2="595.0" y1="1367.0" y2="1369.0" /><line stroke="#333" stroke-width="10" x1="595.0" x2="422.0" y1="1369.0" y2="651.0" /><line stroke="#333" stroke-width="10" x1="422.0" x2="295.0" y1="651.0" y2="1367.0" /><line stroke="#333" stroke-width="10" x1="295.0" x2="245.0" y1="1367.0" y2="1369.0" /><line stroke="#333" stroke-width="10" x1="5.0" x2="5.0" y1="1214.0" y2="1658.0" /><line stroke="#333" stroke-width="10" x1="247.0" x2="5.0" y1="1209.0" y2="1214.0" /><line stroke="#333" stroke-width="10" x1="247.0" x2="244.0" y1="1683.0" y2="1472.0" /><line stroke="#333" stroke-width="10" x1="5.0" x2="247.0" y1="1658.0" y2="1683.0" /><line stroke="#333" stroke-width="10" x1="245.0" x2="247.0" y1="1369.0" y2="1209.0" /><ellipse cx="2657.0" cy="504.0" fill="#009" rx="12" ry="24" stroke="#009" stroke-width="5" /><ellipse cx="3033.0" cy="67.0" fill="#009" rx="12" ry="24" stroke="#009" stroke-width="5" /><ellipse cx="2871.0" cy="1885.0" fill="#009" rx="12" ry="24" stroke="#009" stroke-width="5" /><ellipse cx="772.0" cy="1719.0" fill="#009" rx="12" ry="24" stroke="#009" stroke-width="5" /><rect fill="#090" height="24" stroke="#090" stroke-width="5" transform="rotate(0,2911.0,707.0)" width="24" x="2899.0" y="695.0" /><rect fill="#090" height="24" stroke="#090" stroke-width="5" transform="rotate(0,115.0,1530.0)" width="24" x="103.0" y="1518.0" /><rect fill="#090" height="24" stroke="#090" stroke-width="5" transform="rotate(0,2483.0,1632.0)" width="24" x="2471.0" y="1620.0" /><rect fill="#090" height="24" stroke="#090" stroke-width="5" transform="rotate(0,1835.0,1591.0)" width="24" x="1823.0" y="1579.0" /><circle cx="2477.0" cy="588.0" fill="#900" r="16" stroke="#900" stroke-width="5" /><rect fill="#900" height="48" stroke="#900" stroke-width="5" transform="rotate(135,2125.0,1228.0)" width="32" x="2109.0" y="1204.0" /><rect fill="#900" height="48" stroke="#900" stroke-width="5" transform="rotate(135,2037.0,1252.0)" width="32" x="2021.0" y="1228.0" /><rect fill="#900" height="48" stroke="#900" stroke-width="5" transform="rotate(135,1957.0,1220.0)" width="32" x="1941.0" y="1196.0" /><rect fill="#900" height="48" stroke="#900" stroke-width="5" transform="rotate(135,1837.0,1252.0)" width="32" x="1821.0" y="1228.0" /><rect fill="#900" height="48" stroke="#900" stroke-width="5" transform="rotate(135,1717.0,1252.0)" width="32" x="1701.0" y="1228.0" /><rect fill="#900" height="48" stroke="#900" stroke-width="5" transform="rotate(0,1677.0,1252.0)" width="32" x="1661.0" y="1228.0" /><circle cx="1637.0" cy="1252.0" fill="#090" r="16" stroke="#090" stroke-width="5" /><rect fill="#090" height="24" stroke="#090" stroke-width="5" transform="rotate(135,2509.0,1716.0)" width="24" x="2497.0" y="1704.0" /><rect fill="#090" height="24" stroke="#090" stroke-width="5" transform="rotate(135,1928.0,1720.0)" width="24" x="1916.0" y="1708.0" /><circle cx="1965.0" cy="1692.0" fill="#900" r="16" stroke="#900" stroke-width="5" /><rect fill="#900" height="48" stroke="#900" stroke-width="5" transform="rotate(270,1357.0,724.0)" width="32" x="1341.0" y="700.0" /><rect fill="#900" height="48" stroke="#900" stroke-width="5" transform="rotate(270,1349.0,796.0)" width="32" x="1333.0" y="772.0" /><rect fill="#900" height="48" stroke="#900" stroke-width="5" transform="rotate(270,1349.0,900.0)" width="32" x="1333.0" y="876.0" /><rect fill="#900" height="48" stroke="#900" stroke-width="5" transform="rotate(270,1349.0,1108.0)" width="32" x="1333.0" y="1084.0" /><circle cx="1573.0" cy="1260.0" fill="#090" r="16" stroke="#090" stroke-width="5" /><rect fill="#090" height="24" stroke="#090" stroke-width="5" transform="rotate(135,1557.0,1652.0)" width="24" x="1545.0" y="1640.0" /><circle cx="1557.0" cy="1604.0" fill="#090" r="16" stroke="#090" stroke-width="5" /><circle cx="1557.0" cy="1564.0" fill="#009" r="16" stroke="#009" stroke-width="5" /><circle cx="1653.0" cy="1684.0" fill="#009" r="16" stroke="#009" stroke-width="5" /><circle cx="1805.0" cy="1676.0" fill="#009" r="16" stroke="#009" stroke-width="5" /><circle cx="2053.0" cy="1500.0" fill="#009" r="16" stroke="#009" stroke-width="5" /><circle cx="1469.0" cy="1716.0" fill="#090" r="16" stroke="#090" stroke-width="5" /><circle cx="1253.0" cy="1252.0" fill="#090" r="16" stroke="#090" stroke-width="5" /><rect fill="#900" height="48" stroke="#900" stroke-width="5" transform="rotate(270,1357.0,852.0)" width="32" x="1341.0" y="828.0" /><ellipse cx="3141.0" cy="708.0" fill="#090" rx="12" ry="24" stroke="#090" stroke-width="5" /><rect fill="#090" height="24" stroke="#090" stroke-width="5" transform="rotate(135,2845.0,868.0)" width="24" x="2833.0" y="856.0" /><rect fill="#090" height="24" stroke="#090" stroke-width="5" transform="rotate(135,2845.0,508.0)" width="24" x="2833.0" y="496.0" /><rect fill="#900" height="48" stroke="#900" stroke-width="5" transform="rotate(45,2869.0,572.0)" width="32" x="2853.0" y="548.0" /><rect fill="#900" height="48" stroke="#900" stroke-width="5" transform="rotate(90,3381.0,452.0)" width="32" x="3365.0" y="428.0" /><rect fill="#900" height="48" stroke="#900" stroke-width="5" transform="rotate(0,3165.0,860.0)" width="32" x="3149.0" y="836.0" /><rect fill="#900" height="48" stroke="#900" stroke-width="5" transform="rotate(315,2869.0,812.0)" width="32" x="2853.0" y="788.0" /><circle cx="2685.0" cy="196.0" fill="#009" r="16" stroke="#009" stroke-width="5" /><circle cx="2581.0" cy="196.0" fill="#009" r="16" stroke="#009" stroke-width="5" /><circle cx="2781.0" cy="196.0" fill="#090" r="16" stroke="#090" stroke-width="5" /><circle cx="2381.0" cy="196.0" fill="#900" r="16" stroke="#900" stroke-width="5" /><rect fill="#900" height="48" stroke="#900" stroke-width="5" transform="rotate(0,2285.0,196.0)" width="32" x="2269.0" y="172.0" /><rect fill="#900" height="48" stroke="#900" stroke-width="5" transform="rotate(0,2181.0,196.0)" width="32" x="2165.0" y="172.0" /><rect fill="#900" height="48" stroke="#900" stroke-width="5" transform="rotate(0,2485.0,196.0)" width="32" x="2469.0" y="172.0" /><circle cx="2661.0" cy="444.0" fill="#009" r="16" stroke="#009" stroke-width="5" /><rect fill="#090" height="24" stroke="#090" stroke-width="5" transform="rotate(315,1773.0,1252.0)" width="24" x="1761.0" y="1240.0" /><rect fill="#900" height="48" stroke="#900" stroke-width="5" transform="rotate(315,1885.0,1244.0)" width="32" x="1869.0" y="1220.0" /><rect fill="#009" height="24" stroke="#009" stroke-width="5" transform="rotate(180,3030.0,155.0)" width="24" x="3018.0" y="143.0" /><rect fill="#009" height="24" stroke="#009" stroke-width="5" transform="rotate(270,3373.0,596.0)" width="24" x="3361.0" y="584.0" /><rect fill="#009" height="24" stroke="#009" stroke-width="5" transform="rotate(0,2429.0,1707.0)" width="24" x="2417.0" y="1695.0" /><rect fill="#009" height="24" stroke="#009" stroke-width="5" transform="rotate(0,1533.0,564.0)" width="24" x="1521.0" y="552.0" /><rect fill="#009" height="24" stroke="#009" stroke-width="5" transform="rotate(0,2853.0,628.0)" width="24" x="2841.0" y="616.0" /><rect fill="#900" height="48" stroke="#900" stroke-width="5" transform="rotate(0,2533.0,156.0)" width="32" x="2517.0" y="132.0" /><circle cx="2565.0" cy="452.0" fill="#090" r="16" stroke="#090" stroke-width="5" /><rect fill="#090" height="24" stroke="#090" stroke-width="5" transform="rotate(135,1707.0,1736.0)" width="24" x="1695.0" y="1724.0" /><rect fill="#090" height="24" stroke="#090" stroke-width="5" transform="rotate(135,3026.0,1777.0)" width="24" x="3014.0" y="1765.0" /><rect fill="#900" height="48" stroke="#900" stroke-width="5" transform="rotate(0,890.0,907.0)" width="32" x="874.0" y="883.0" /><rect fill="#900" height="48" stroke="#900" stroke-width="5" transform="rotate(315,1671.0,1880.0)" width="32" x="1655.0" y="1856.0" /><rect fill="#900" height="48" stroke="#900" stroke-width="5" transform="rotate(315,2292.0,1880.0)" width="32" x="2276.0" y="1856.0" /><rect fill="#090" height="24" stroke="#090" stroke-width="5" transform="rotate(315,1958.0,1876.0)" width="24" x="1946.0" y="1864.0" /><rect fill="#900" height="48" stroke="#900" stroke-width="5" transform="rotate(135,1528.0,1884.0)" width="32" x="1512.0" y="1860.0" /><rect fill="#900" height="48" stroke="#900" stroke-width="5" transform="rotate(135,1017.0,1784.0)" width="32" x="1001.0" y="1760.0" /><rect fill="#900" height="48" stroke="#900" stroke-width="5" transform="rotate(135,985.0,1258.0)" width="32" x="969.0" y="1234.0" /><ellipse cx="1129.0" cy="899.0" fill="#090" rx="12" ry="24" stroke="#090" stroke-width="5" /><rect fill="#090" height="24" stroke="#090" stroke-width="5" transform="rotate(135,2738.0,1624.0)" width="24" x="2726.0" y="1612.0" /><ellipse cx="2738.0" cy="1700.0" fill="#090" rx="12" ry="24" stroke="#090" stroke-width="5" /><circle cx="2658.0" cy="1634.0" fill="#090" r="16" stroke="#090" stroke-width="5" /><circle cx="2658.0" cy="1710.0" fill="#090" r="16" stroke="#090" stroke-width="5" /><circle cx="2120.0" cy="1881.0" fill="#009" r="16" stroke="#009" stroke-width="5" /><circle cx="2548.0" cy="1885.0" fill="#009" r="16" stroke="#009" stroke-width="5" /><circle cx="3030.0" cy="1895.0" fill="#009" r="16" stroke="#009" stroke-width="5" /><circle cx="1800.0" cy="1885.0" fill="#009" r="16" stroke="#009" stroke-width="5" /><circle cx="2749.0" cy="1885.0" fill="#090" r="16" stroke="#090" stroke-width="5" /><circle cx="2829.0" cy="1892.0" fill="#090" r="16" stroke="#090" stroke-width="5" /><circle cx="2936.0" cy="1888.0" fill="#090" r="16" stroke="#090" stroke-width="5" /><rect fill="#900" height="48" stroke="#900" stroke-width="5" transform="rotate(135,2990.0,1366.0)" width="32" x="2974.0" y="1342.0" /><rect fill="#900" height="48" stroke="#900" stroke-width="5" transform="rotate(135,2936.0,1537.0)" width="32" x="2920.0" y="1513.0" /><rect fill="#900" height="48" stroke="#900" stroke-width="5" transform="rotate(135,2936.0,1637.0)" width="32" x="2920.0" y="1613.0" /><rect fill="#900" height="48" stroke="#900" stroke-width="5" transform="rotate(135,422.0,1082.0)" width="32" x="406.0" y="1058.0" /><rect fill="#900" height="48" stroke="#900" stroke-width="5" transform="rotate(90,375.0,1275.0)" width="32" x="359.0" y="1251.0" /><rect fill="#900" height="48" stroke="#900" stroke-width="5" transform="rotate(90,442.0,1283.0)" width="32" x="426.0" y="1259.0" /><ellipse cx="482.0" cy="1167.0" fill="#900" rx="12" ry="24" stroke="#900" stroke-width="5" /><circle cx="755.0" cy="1790.0" fill="#009" r="16" stroke="#009" stroke-width="5" /><circle cx="522.0" cy="1631.0" fill="#009" r="16" stroke="#009" stroke-width="5" /><circle cx="1831.0" cy="1511.0" fill="#009" r="16" stroke="#009" stroke-width="5" /><circle cx="1684.0" cy="1561.0" fill="#009" r="16" stroke="#009" stroke-width="5" /><circle cx="961.0" cy="1765.0" fill="#009" r="16" stroke="#009" stroke-width="5" /><circle cx="506.0" cy="1548.0" fill="#009" r="16" stroke="#009" stroke-width="5" /><circle cx="988.0" cy="912.0" fill="#009" r="16" stroke="#009" stroke-width="5" /><circle cx="1175.0" cy="1216.0" fill="#009" r="16" stroke="#009" stroke-width="5" /><circle cx="1479.0" cy="1682.0" fill="#090" r="16" stroke="#090" stroke-width="5" /><circle cx="432.0" cy="906.0" fill="#900" r="16" stroke="#900" stroke-width="5" /><circle cx="3209.0" cy="424.0" fill="#009" r="16" stroke="#009" stroke-width="5" /><rect fill="#090" height="24" stroke="#090" stroke-width="5" transform="rotate(315,1059.0,914.0)" width="24" x="1047.0" y="902.0" /><rect fill="#090" height="24" stroke="#090" stroke-width="5" transform="rotate(135,435.0,833.0)" width="24" x="423.0" y="821.0" /><ellipse cx="294.0" cy="1428.0" fill="#900" rx="12" ry="24" stroke="#900" stroke-width="5" /><rect fill="#900" height="48" stroke="#900" stroke-width="5" transform="rotate(0,3371.0,761.0)" width="32" x="3355.0" y="737.0" /><circle cx="2424.0" cy="1890.0" fill="#090" r="16" stroke="#090" stroke-width="5" /><circle cx="1396.0" cy="1895.0" fill="#090" r="16" stroke="#090" stroke-width="5" /><rect fill="#900" height="48" stroke="#900" stroke-width="5" transform="rotate(135,3008.0,1638.0)" width="32" x="2992.0" y="1614.0" /><rect fill="#900" height="48" stroke="#900" stroke-width="5" transform="rotate(135,3008.0,1552.0)" width="32" x="2992.0" y="1528.0" /><rect fill="#900" height="48" stroke="#900" stroke-width="5" transform="rotate(135,2988.0,1466.0)" width="32" x="2972.0" y="1442.0" /><rect fill="#090" height="24" stroke="#090" stroke-width="5" transform="rotate(135,2908.0,1375.0)" width="24" x="2896.0" y="1363.0" /><rect fill="#090" height="24" stroke="#090" stroke-width="5" transform="rotate(135,2605.0,1910.0)" width="24" x="2593.0" y="1898.0" /><rect fill="#090" height="24" stroke="#090" stroke-width="5" transform="rotate(135,2686.0,1864.0)" width="24" x="2674.0" y="1852.0" /><rect fill="#090" height="24" stroke="#090" stroke-width="5" transform="rotate(270,1195.0,1874.0)" width="24" x="1183.0" y="1862.0" /><rect fill="#900" height="48" stroke="#900" stroke-width="5" transform="rotate(135,1013.0,1678.0)" width="32" x="997.0" y="1654.0" /><rect fill="#900" height="48" stroke="#900" stroke-width="5" transform="rotate(135,2021.0,1632.0)" width="32" x="2005.0" y="1608.0" /><rect fill="#900" height="48" stroke="#900" stroke-width="5" transform="rotate(135,1699.0,1632.0)" width="32" x="1683.0" y="1608.0" /><rect fill="#900" height="48" stroke="#900" stroke-width="5" transform="rotate(135,3069.0,434.0)" width="32" x="3053.0" y="410.0" /><rect fill="#900" height="48" stroke="#900" stroke-width="5" transform="rotate(135,2867.0,222.0)" width="32" x="2851.0" y="198.0" /><rect fill="#900" height="48" stroke="#900" stroke-width="5" transform="rotate(135,2222.0,167.0)" width="32" x="2206.0" y="143.0" /><rect fill="#090" height="24" stroke="#090" stroke-width="5" transform="rotate(135,2908.0,182.0)" width="24" x="2896.0" y="170.0" /><circle cx="1356.0" cy="535.0" fill="#090" r="16" stroke="#090" stroke-width="5" /><circle cx="449.0" cy="992.0" fill="#009" r="16" stroke="#009" stroke-width="5" /><rect fill="#900" height="48" stroke="#900" stroke-width="5" transform="rotate(0,35.0,1258.0)" width="32" x="19.0" y="1234.0" /><rect fill="#900" height="48" stroke="#900" stroke-width="5" transform="rotate(0,116.0,1255.0)" width="32" x="100.0" y="1231.0" /><rect fill="#900" height="48" stroke="#900" stroke-width="5" transform="rotate(0,62.0,1345.0)" width="32" x="46.0" y="1321.0" /><rect fill="#900" height="48" stroke="#900" stroke-width="5" transform="rotate(0,62.0,1465.0)" width="32" x="46.0" y="1441.0" /><rect fill="#900" height="48" stroke="#900" stroke-width="5" transform="rotate(0,62.0,1576.0)" width="32" x="46.0" y="1552.0" /><rect fill="#900" height="48" stroke="#900" stroke-width="5" transform="rotate(0,156.0,1646.0)" width="32" x="140.0" y="1622.0" /><rect fill="#900" height="48" stroke="#900" stroke-width="5" transform="rotate(0,183.0,1606.0)" width="32" x="167.0" y="1582.0" /><rect fill="#900" height="48" stroke="#900" stroke-width="5" transform="rotate(0,183.0,1559.0)" width="32" x="167.0" y="1535.0" /><rect fill="#900" height="48" stroke="#900" stroke-width="5" transform="rotate(90,196.0,1258.0)" width="32" x="180.0" y="1234.0" /><rect fill="#900" height="48" stroke="#900" stroke-width="5" transform="rotate(135,183.0,1345.0)" width="32" x="167.0" y="1321.0" /><rect fill="#900" height="48" stroke="#900" stroke-width="5" transform="rotate(135,89.0,1412.0)" width="32" x="73.0" y="1388.0" /><circle cx="1173.0" cy="1311.0" fill="#090" r="16" stroke="#090" stroke-width="5" /><circle cx="1193.0" cy="1596.0" fill="#090" r="16" stroke="#090" stroke-width="5" /><circle cx="1347.0" cy="1238.0" fill="#090" r="16" stroke="#090" stroke-width="5" /><circle cx="1347.0" cy="573.0" fill="#090" r="16" stroke="#090" stroke-width="5" /><circle cx="1187.0" cy="906.0" fill="#090" r="16" stroke="#090" stroke-width="5" /><circle cx="1013.0" cy="1184.0" fill="#090" r="16" stroke="#090" stroke-width="5" /><circle cx="367.0" cy="1184.0" fill="#090" r="16" stroke="#090" stroke-width="5" /><circle cx="1537.0" cy="474.0" fill="#090" r="16" stroke="#090" stroke-width="5" /><circle cx="2059.0" cy="1708.0" fill="#090" r="16" stroke="#090" stroke-width="5" /><circle cx="2199.0" cy="1879.0" fill="#090" r="16" stroke="#090" stroke-width="5" /><circle cx="2461.0" cy="454.0" fill="#090" r="16" stroke="#090" stroke-width="5" /><circle cx="1350.0" cy="652.0" fill="#009" r="16" stroke="#009" stroke-width="5" /><circle cx="2036.0" cy="611.0" fill="#009" r="16" stroke="#009" stroke-width="5" /><circle cx="2036.0" cy="697.0" fill="#009" r="16" stroke="#009" stroke-width="5" /><circle cx="2036.0" cy="793.0" fill="#009" r="16" stroke="#009" stroke-width="5" /><circle cx="1451.0" cy="1558.0" fill="#009" r="16" stroke="#009" stroke-width="5" /><circle cx="1592.0" cy="1880.0" fill="#009" r="16" stroke="#009" stroke-width="5" /><circle cx="1978.0" cy="1471.0" fill="#090" r="16" stroke="#090" stroke-width="5" /><circle cx="748.0" cy="934.0" fill="#900" r="16" stroke="#900" stroke-width="5" /><circle cx="3293.0" cy="874.0" fill="#900" r="16" stroke="#900" stroke-width="5" /></svg>