<?xml version="1.0" encoding="utf-8" ?>
<svg baseProfile="tiny" height="557" version="1.2" viewBox="0 0 8010 4362" width="1024" xmlns="http://www.w3.org/2000/svg" xmlns:ev="http://www.w3.org/2001/xml-events" xmlns:xlink="http://www.w3.org/1999/xlink"><defs /><line stroke="#333" stroke-width="10" x1="5.0" x2="261.0" y1="1733.0" y2="1733.0" /><line stroke="#999" stroke-width="3" x1="261.0" x2="261.0" y1="1733.0" y2="1541.0" /><line stroke="#333" stroke-width="10" x1="261.0" x2="5.0" y1="1541.0" y2="1541.0" /><line stroke="#333" stroke-width="10" x1="5.0" x2="5.0" y1="1541.0" y2="1733.0" /><line stroke="#999" stroke-width="3" x1="261.0" x2="1029.0" y1="1733.0" y2="1733.0" /><line stroke="#333" stroke-width="10" x1="4165.0" x2="4165.0" y1="1733.0" y2="1669.0" /><line stroke="#999" stroke-width="3" x1="4165.0" x2="261.0" y1="1541.0" y2="1541.0" /><line stroke="#999" stroke-width="3" x1="1029.0" x2="1093.0" y1="1733.0" y2="1733.0" /><line stroke="#999" stroke-width="3" x1="1093.0" x2="4165.0" y1="1733.0" y2="1733.0" /><line stroke="#999" stroke-width="3" x1="1029.0" x2="1029.0" y1="1733.0" y2="1861.0" /><line stroke="#999" stroke-width="3" x1="1093.0" x2="1029.0" y1="1861.0" y2="1861.0" /><line stroke="#999" stroke-width="3" x1="1093.0" x2="1093.0" y1="1861.0" y2="1733.0" /><line stroke="#333" stroke-width="10" x1="261.0" x2="261.0" y1="1733.0" y2="1861.0" /><line stroke="#999" stroke-width="3" x1="1029.0" x2="261.0" y1="1861.0" y2="1861.0" /><line stroke="#999" stroke-width="3" x1="4165.0" x2="1093.0" y1="1861.0" y2="1861.0" /><line stroke="#333" stroke-width="10" x1="4165.0" x2="4165.0" y1="1861.0" y2="1733.0" /><line stroke="#999" stroke-width="3" x1="261.0" x2="389.0" y1="1861.0" y2="3397.0" /><line stroke="#999" stroke-width="3" x1="389.0" x2="3909.0" y1="3397.0" y2="3397.0" /><line stroke="#999" stroke-width="3" x1="3909.0" x2="4165.0" y1="3397.0" y2="1861.0" /><line stroke="#333" stroke-width="10" x1="261.0" x2="261.0" y1="1861.0" y2="3525.0" /><line stroke="#333" stroke-width="10" x1="261.0" x2="4165.0" y1="3525.0" y2="3525.0" /><line stroke="#333" stroke-width="10" x1="4165.0" x2="4165.0" y1="3525.0" y2="1861.0" /><line stroke="#333" stroke-width="10" x1="4165.0" x2="4165.0" y1="1541.0" y2="1413.0" /><line stroke="#999" stroke-width="3" x1="261.0" x2="4165.0" y1="1413.0" y2="1413.0" /><line stroke="#333" stroke-width="10" x1="261.0" x2="261.0" y1="1413.0" y2="1541.0" /><line stroke="#999" stroke-width="3" x1="4165.0" x2="3973.0" y1="1413.0" y2="133.0" /><line stroke="#999" stroke-width="3" x1="3973.0" x2="453.0" y1="133.0" y2="133.0" /><line stroke="#999" stroke-width="3" x1="453.0" x2="261.0" y1="133.0" y2="1413.0" /><line stroke="#333" stroke-width="10" x1="4165.0" x2="4165.0" y1="1413.0" y2="5.0" /><line stroke="#333" stroke-width="10" x1="4165.0" x2="261.0" y1="5.0" y2="5.0" /><line stroke="#333" stroke-width="10" x1="261.0" x2="261.0" y1="5.0" y2="1413.0" /><line stroke="#999" stroke-width="3" x1="1029.0" x2="837.0" y1="3205.0" y2="3205.0" /><line stroke="#999" stroke-width="3" x1="1093.0" x2="1029.0" y1="3077.0" y2="3205.0" /><line stroke="#00d" stroke-width="20" x1="773.0" x2="1093.0" y1="3077.0" y2="3077.0" /><line stroke="#999" stroke-width="3" x1="837.0" x2="773.0" y1="3205.0" y2="3077.0" /><line stroke="#00d" stroke-width="20" x1="1285.0" x2="965.0" y1="389.0" y2="389.0" /><line stroke="#999" stroke-width="3" x1="1221.0" x2="1285.0" y1="261.0" y2="389.0" /><line stroke="#999" stroke-width="3" x1="1029.0" x2="1221.0" y1="261.0" y2="261.0" /><line stroke="#999" stroke-width="3" x1="965.0" x2="1029.0" y1="389.0" y2="261.0" /><line stroke="#999" stroke-width="3" x1="4165.0" x2="4165.0" y1="1669.0" y2="1605.0" /><line stroke="#333" stroke-width="10" x1="4165.0" x2="4165.0" y1="1605.0" y2="1541.0" /><line stroke="#333" stroke-width="10" x1="4165.0" x2="5317.0" y1="1669.0" y2="1669.0" /><line stroke="#333" stroke-width="10" x1="5317.0" x2="5573.0" y1="1669.0" y2="2245.0" /><line stroke="#333" stroke-width="10" x1="5381.0" x2="4165.0" y1="1605.0" y2="1605.0" /><line stroke="#333" stroke-width="10" x1="5573.0" x2="5573.0" y1="2245.0" y2="2949.0" /><line stroke="#333" stroke-width="10" x1="5637.0" x2="5381.0" y1="2181.0" y2="1605.0" /><line stroke="#999" stroke-width="3" x1="5573.0" x2="5637.0" y1="3781.0" y2="3781.0" /><line stroke="#333" stroke-width="10" x1="5637.0" x2="5637.0" y1="3781.0" y2="2949.0" /><line stroke="#999" stroke-width="3" x1="5637.0" x2="5637.0" y1="2949.0" y2="2885.0" /><line stroke="#333" stroke-width="10" x1="5637.0" x2="5637.0" y1="2885.0" y2="2181.0" /><line stroke="#333" stroke-width="10" x1="5573.0" x2="5573.0" y1="3013.0" y2="3781.0" /><line stroke="#999" stroke-width="3" x1="5573.0" x2="5573.0" y1="2949.0" y2="3013.0" /><line stroke="#333" stroke-width="10" x1="5637.0" x2="5701.0" y1="2949.0" y2="2949.0" /><line stroke="#999" stroke-width="3" x1="5701.0" x2="5701.0" y1="2885.0" y2="2949.0" /><line stroke="#333" stroke-width="10" x1="5701.0" x2="5637.0" y1="2885.0" y2="2885.0" /><line stroke="#333" stroke-width="10" x1="5701.0" x2="6149.0" y1="2949.0" y2="2949.0" /><line stroke="#333" stroke-width="10" x1="5829.0" x2="5765.0" y1="2693.0" y2="2693.0" /><line stroke="#333" stroke-width="10" x1="5893.0" x2="5893.0" y1="2757.0" y2="1989.0" /><line stroke="#333" stroke-width="10" x1="5573.0" x2="5509.0" y1="2949.0" y2="2949.0" /><line stroke="#999" stroke-width="3" x1="5509.0" x2="5509.0" y1="2949.0" y2="3013.0" /><line stroke="#333" stroke-width="10" x1="5509.0" x2="5573.0" y1="3013.0" y2="3013.0" /><line stroke="#333" stroke-width="10" x1="5509.0" x2="5445.0" y1="2949.0" y2="2949.0" /><line stroke="#999" stroke-width="3" x1="5445.0" x2="5445.0" y1="3013.0" y2="2949.0" /><line stroke="#333" stroke-width="10" x1="5445.0" x2="5509.0" y1="3013.0" y2="3013.0" /><line stroke="#333" stroke-width="10" x1="5445.0" x2="4997.0" y1="2949.0" y2="2949.0" /><line stroke="#999" stroke-width="3" x1="4997.0" x2="4997.0" y1="2949.0" y2="3013.0" /><line stroke="#333" stroke-width="10" x1="4997.0" x2="5445.0" y1="3013.0" y2="3013.0" /><line stroke="#333" stroke-width="10" x1="4997.0" x2="4741.0" y1="2949.0" y2="2949.0" /><line stroke="#333" stroke-width="10" x1="4677.0" x2="4613.0" y1="2565.0" y2="2629.0" /><line stroke="#333" stroke-width="10" x1="4613.0" x2="4613.0" y1="2629.0" y2="2885.0" /><line stroke="#333" stroke-width="10" x1="4741.0" x2="4677.0" y1="2949.0" y2="2821.0" /><line stroke="#333" stroke-width="10" x1="4677.0" x2="4677.0" y1="2821.0" y2="2693.0" /><line stroke="#333" stroke-width="10" x1="4613.0" x2="4677.0" y1="2885.0" y2="3013.0" /><line stroke="#333" stroke-width="10" x1="4677.0" x2="4997.0" y1="3013.0" y2="3013.0" /><line stroke="#333" stroke-width="10" x1="4677.0" x2="4741.0" y1="2693.0" y2="2629.0" /><line stroke="#333" stroke-width="10" x1="4741.0" x2="4805.0" y1="2629.0" y2="2629.0" /><line stroke="#333" stroke-width="10" x1="4869.0" x2="4933.0" y1="2821.0" y2="2885.0" /><line stroke="#333" stroke-width="10" x1="4805.0" x2="4869.0" y1="2629.0" y2="2693.0" /><line stroke="#333" stroke-width="10" x1="4869.0" x2="4869.0" y1="2693.0" y2="2821.0" /><line stroke="#333" stroke-width="10" x1="4933.0" x2="4869.0" y1="2629.0" y2="2565.0" /><line stroke="#333" stroke-width="10" x1="4869.0" x2="4677.0" y1="2565.0" y2="2565.0" /><line stroke="#333" stroke-width="10" x1="5125.0" x2="5189.0" y1="2885.0" y2="2821.0" /><line stroke="#333" stroke-width="10" x1="4933.0" x2="4933.0" y1="2757.0" y2="2677.0" /><line stroke="#333" stroke-width="10" x1="4933.0" x2="4933.0" y1="2677.0" y2="2629.0" /><line stroke="#333" stroke-width="10" x1="4933.0" x2="5125.0" y1="2885.0" y2="2885.0" /><line stroke="#333" stroke-width="10" x1="4997.0" x2="4933.0" y1="2821.0" y2="2757.0" /><line stroke="#333" stroke-width="10" x1="5189.0" x2="5189.0" y1="2821.0" y2="2501.0" /><line stroke="#333" stroke-width="10" x1="5125.0" x2="5061.0" y1="2757.0" y2="2821.0" /><line stroke="#333" stroke-width="10" x1="5061.0" x2="4997.0" y1="2821.0" y2="2821.0" /><line stroke="#333" stroke-width="10" x1="5189.0" x2="5125.0" y1="2181.0" y2="2117.0" /><line stroke="#333" stroke-width="10" x1="4933.0" x2="4869.0" y1="2117.0" y2="2181.0" /><line stroke="#333" stroke-width="10" x1="5125.0" x2="5125.0" y1="2245.0" y2="2757.0" /><line stroke="#333" stroke-width="10" x1="4997.0" x2="5061.0" y1="2181.0" y2="2181.0" /><line stroke="#333" stroke-width="10" x1="5061.0" x2="5125.0" y1="2181.0" y2="2245.0" /><line stroke="#333" stroke-width="10" x1="5125.0" x2="4933.0" y1="2117.0" y2="2117.0" /><line stroke="#333" stroke-width="10" x1="4869.0" x2="4869.0" y1="2181.0" y2="2309.0" /><line stroke="#333" stroke-width="10" x1="4869.0" x2="4933.0" y1="2437.0" y2="2373.0" /><line stroke="#333" stroke-width="10" x1="4933.0" x2="4997.0" y1="2245.0" y2="2181.0" /><line stroke="#333" stroke-width="10" x1="4933.0" x2="4933.0" y1="2373.0" y2="2245.0" /><line stroke="#333" stroke-width="10" x1="4869.0" x2="4805.0" y1="2309.0" y2="2373.0" /><line stroke="#333" stroke-width="10" x1="4485.0" x2="4421.0" y1="2373.0" y2="2437.0" /><line stroke="#333" stroke-width="10" x1="4485.0" x2="5445.0" y1="3205.0" y2="3205.0" /><line stroke="#333" stroke-width="10" x1="4805.0" x2="4677.0" y1="2373.0" y2="2373.0" /><line stroke="#333" stroke-width="10" x1="4421.0" x2="4421.0" y1="2437.0" y2="3141.0" /><line stroke="#333" stroke-width="10" x1="4421.0" x2="4485.0" y1="3141.0" y2="3205.0" /><line stroke="#333" stroke-width="10" x1="4549.0" x2="4869.0" y1="2437.0" y2="2437.0" /><line stroke="#333" stroke-width="10" x1="4485.0" x2="4485.0" y1="3077.0" y2="2501.0" /><line stroke="#333" stroke-width="10" x1="4485.0" x2="4549.0" y1="2501.0" y2="2437.0" /><line stroke="#333" stroke-width="10" x1="4549.0" x2="4485.0" y1="3141.0" y2="3077.0" /><line stroke="#333" stroke-width="10" x1="5445.0" x2="5445.0" y1="3205.0" y2="3141.0" /><line stroke="#333" stroke-width="10" x1="5445.0" x2="4549.0" y1="3141.0" y2="3141.0" /><line stroke="#333" stroke-width="10" x1="5189.0" x2="5253.0" y1="2501.0" y2="2501.0" /><line stroke="#333" stroke-width="10" x1="5189.0" x2="5189.0" y1="2437.0" y2="2181.0" /><line stroke="#333" stroke-width="10" x1="5381.0" x2="5445.0" y1="2501.0" y2="2373.0" /><line stroke="#333" stroke-width="10" x1="5317.0" x2="5189.0" y1="2437.0" y2="2437.0" /><line stroke="#333" stroke-width="10" x1="5253.0" x2="5317.0" y1="2501.0" y2="2565.0" /><line stroke="#333" stroke-width="10" x1="5317.0" x2="5317.0" y1="2565.0" y2="2821.0" /><line stroke="#333" stroke-width="10" x1="5317.0" x2="5381.0" y1="2821.0" y2="2821.0" /><line stroke="#333" stroke-width="10" x1="5381.0" x2="5381.0" y1="2821.0" y2="2501.0" /><line stroke="#333" stroke-width="10" x1="5445.0" x2="5445.0" y1="2373.0" y2="2181.0" /><line stroke="#333" stroke-width="10" x1="5381.0" x2="5317.0" y1="2309.0" y2="2437.0" /><line stroke="#333" stroke-width="10" x1="5445.0" x2="5253.0" y1="2181.0" y2="1797.0" /><line stroke="#333" stroke-width="10" x1="5381.0" x2="5381.0" y1="2245.0" y2="2309.0" /><line stroke="#333" stroke-width="10" x1="5253.0" x2="5125.0" y1="1797.0" y2="1797.0" /><line stroke="#333" stroke-width="10" x1="5125.0" x2="4997.0" y1="1797.0" y2="1925.0" /><line stroke="#333" stroke-width="10" x1="5189.0" x2="5381.0" y1="1861.0" y2="2245.0" /><line stroke="#333" stroke-width="10" x1="4997.0" x2="4997.0" y1="1925.0" y2="1989.0" /><line stroke="#333" stroke-width="10" x1="5061.0" x2="5189.0" y1="1989.0" y2="1861.0" /><line stroke="#333" stroke-width="10" x1="4997.0" x2="5061.0" y1="1989.0" y2="1989.0" /><line stroke="#333" stroke-width="10" x1="4677.0" x2="4677.0" y1="2373.0" y2="2181.0" /><line stroke="#333" stroke-width="10" x1="4613.0" x2="4485.0" y1="2373.0" y2="2373.0" /><line stroke="#333" stroke-width="10" x1="4805.0" x2="4677.0" y1="1989.0" y2="2053.0" /><line stroke="#333" stroke-width="10" x1="4613.0" x2="4485.0" y1="2117.0" y2="2117.0" /><line stroke="#333" stroke-width="10" x1="4677.0" x2="4869.0" y1="2181.0" y2="2053.0" /><line stroke="#333" stroke-width="10" x1="4869.0" x2="4805.0" y1="1797.0" y2="1797.0" /><line stroke="#333" stroke-width="10" x1="4805.0" x2="4805.0" y1="1797.0" y2="1989.0" /><line stroke="#333" stroke-width="10" x1="4869.0" x2="4869.0" y1="2053.0" y2="1797.0" /><line stroke="#333" stroke-width="10" x1="4677.0" x2="4677.0" y1="2053.0" y2="1797.0" /><line stroke="#333" stroke-width="10" x1="4677.0" x2="4613.0" y1="1797.0" y2="1797.0" /><line stroke="#333" stroke-width="10" x1="4613.0" x2="4613.0" y1="1797.0" y2="2117.0" /><line stroke="#333" stroke-width="10" x1="4613.0" x2="4613.0" y1="2181.0" y2="2373.0" /><line stroke="#333" stroke-width="10" x1="4485.0" x2="4485.0" y1="2117.0" y2="1797.0" /><line stroke="#333" stroke-width="10" x1="4421.0" x2="4613.0" y1="2181.0" y2="2181.0" /><line stroke="#333" stroke-width="10" x1="4485.0" x2="4421.0" y1="1797.0" y2="1797.0" /><line stroke="#333" stroke-width="10" x1="4421.0" x2="4421.0" y1="1797.0" y2="1989.0" /><line stroke="#333" stroke-width="10" x1="4421.0" x2="4293.0" y1="1989.0" y2="1989.0" /><line stroke="#333" stroke-width="10" x1="4421.0" x2="4421.0" y1="2053.0" y2="2181.0" /><line stroke="#666" stroke-width="20" x1="4293.0" x2="4293.0" y1="1989.0" y2="2053.0" /><line stroke="#333" stroke-width="10" x1="4293.0" x2="4421.0" y1="2053.0" y2="2053.0" /><line stroke="#333" stroke-width="10" x1="6085.0" x2="5701.0" y1="2885.0" y2="2885.0" /><line stroke="#333" stroke-width="10" x1="6149.0" x2="6085.0" y1="2821.0" y2="2885.0" /><line stroke="#333" stroke-width="10" x1="6149.0" x2="6213.0" y1="2949.0" y2="2885.0" /><line stroke="#333" stroke-width="10" x1="6213.0" x2="6213.0" y1="2885.0" y2="2373.0" /><line stroke="#333" stroke-width="10" x1="6149.0" x2="6085.0" y1="2501.0" y2="2501.0" /><line stroke="#333" stroke-width="10" x1="6149.0" x2="6149.0" y1="2565.0" y2="2821.0" /><line stroke="#999" stroke-width="3" x1="6085.0" x2="6085.0" y1="2501.0" y2="2565.0" /><line stroke="#333" stroke-width="10" x1="6085.0" x2="6149.0" y1="2565.0" y2="2565.0" /><line stroke="#333" stroke-width="10" x1="6149.0" x2="6085.0" y1="2181.0" y2="2181.0" /><line stroke="#333" stroke-width="10" x1="6149.0" x2="6149.0" y1="2245.0" y2="2501.0" /><line stroke="#999" stroke-width="3" x1="6085.0" x2="6085.0" y1="2181.0" y2="2245.0" /><line stroke="#333" stroke-width="10" x1="6085.0" x2="6149.0" y1="2245.0" y2="2245.0" /><line stroke="#333" stroke-width="10" x1="6085.0" x2="6021.0" y1="2501.0" y2="2501.0" /><line stroke="#333" stroke-width="10" x1="6021.0" x2="6021.0" y1="2501.0" y2="2565.0" /><line stroke="#333" stroke-width="10" x1="6021.0" x2="6085.0" y1="2565.0" y2="2565.0" /><line stroke="#333" stroke-width="10" x1="6085.0" x2="6021.0" y1="2181.0" y2="2181.0" /><line stroke="#333" stroke-width="10" x1="6021.0" x2="6021.0" y1="2181.0" y2="2245.0" /><line stroke="#333" stroke-width="10" x1="6021.0" x2="6085.0" y1="2245.0" y2="2245.0" /><line stroke="#333" stroke-width="10" x1="6213.0" x2="6341.0" y1="2373.0" y2="2373.0" /><line stroke="#333" stroke-width="10" x1="6213.0" x2="6213.0" y1="2309.0" y2="1925.0" /><line stroke="#999" stroke-width="3" x1="6341.0" x2="6341.0" y1="2181.0" y2="2373.0" /><line stroke="#333" stroke-width="10" x1="6341.0" x2="6277.0" y1="2181.0" y2="2181.0" /><line stroke="#999" stroke-width="3" x1="6341.0" x2="6405.0" y1="2373.0" y2="2373.0" /><line stroke="#00d" stroke-width="20" x1="6405.0" x2="6405.0" y1="2373.0" y2="2309.0" /><line stroke="#999" stroke-width="3" x1="6405.0" x2="6341.0" y1="2181.0" y2="2181.0" /><line stroke="#333" stroke-width="10" x1="6341.0" x2="6341.0" y1="2373.0" y2="2949.0" /><line stroke="#999" stroke-width="3" x1="6341.0" x2="6405.0" y1="2949.0" y2="2949.0" /><line stroke="#333" stroke-width="10" x1="6405.0" x2="6405.0" y1="2949.0" y2="2373.0" /><line stroke="#333" stroke-width="10" x1="6405.0" x2="6469.0" y1="2373.0" y2="2373.0" /><line stroke="#999" stroke-width="3" x1="6981.0" x2="6981.0" y1="2309.0" y2="2245.0" /><line stroke="#333" stroke-width="10" x1="6981.0" x2="6469.0" y1="2245.0" y2="2245.0" /><line stroke="#333" stroke-width="10" x1="6405.0" x2="6405.0" y1="2181.0" y2="1989.0" /><line stroke="#666" stroke-width="20" x1="6725.0" x2="6725.0" y1="1861.0" y2="1797.0" /><line stroke="#333" stroke-width="10" x1="6725.0" x2="6469.0" y1="1797.0" y2="1797.0" /><line stroke="#333" stroke-width="10" x1="6277.0" x2="6213.0" y1="2309.0" y2="2309.0" /><line stroke="#333" stroke-width="10" x1="6277.0" x2="6277.0" y1="2181.0" y2="2309.0" /><line stroke="#333" stroke-width="10" x1="6469.0" x2="6405.0" y1="2181.0" y2="2181.0" /><line stroke="#333" stroke-width="10" x1="6469.0" x2="6469.0" y1="2373.0" y2="2309.0" /><line stroke="#333" stroke-width="10" x1="6469.0" x2="6981.0" y1="2309.0" y2="2309.0" /><line stroke="#333" stroke-width="10" x1="6469.0" x2="6469.0" y1="2245.0" y2="2181.0" /><line stroke="#999" stroke-width="3" x1="6405.0" x2="6405.0" y1="2309.0" y2="2245.0" /><line stroke="#00d" stroke-width="20" x1="6405.0" x2="6405.0" y1="2245.0" y2="2181.0" /><line stroke="#333" stroke-width="10" x1="6149.0" x2="6149.0" y1="1989.0" y2="2181.0" /><line stroke="#333" stroke-width="10" x1="5957.0" x2="6085.0" y1="1925.0" y2="1925.0" /><line stroke="#333" stroke-width="10" x1="6213.0" x2="6149.0" y1="1925.0" y2="1861.0" /><line stroke="#333" stroke-width="10" x1="5893.0" x2="5829.0" y1="1861.0" y2="1925.0" /><line stroke="#333" stroke-width="10" x1="5829.0" x2="5829.0" y1="1925.0" y2="2693.0" /><line stroke="#333" stroke-width="10" x1="6149.0" x2="5893.0" y1="1861.0" y2="1861.0" /><line stroke="#333" stroke-width="10" x1="5893.0" x2="5957.0" y1="1989.0" y2="1925.0" /><line stroke="#333" stroke-width="10" x1="6085.0" x2="6149.0" y1="1925.0" y2="1989.0" /><line stroke="#333" stroke-width="10" x1="5765.0" x2="5829.0" y1="2821.0" y2="2821.0" /><line stroke="#333" stroke-width="10" x1="5765.0" x2="5765.0" y1="2693.0" y2="2821.0" /><line stroke="#333" stroke-width="10" x1="5829.0" x2="5893.0" y1="2821.0" y2="2757.0" /><line stroke="#333" stroke-width="10" x1="6981.0" x2="7045.0" y1="2309.0" y2="2309.0" /><line stroke="#999" stroke-width="3" x1="7045.0" x2="7045.0" y1="2245.0" y2="2309.0" /><line stroke="#333" stroke-width="10" x1="7045.0" x2="6981.0" y1="2245.0" y2="2245.0" /><line stroke="#333" stroke-width="10" x1="7045.0" x2="7173.0" y1="2309.0" y2="2309.0" /><line stroke="#333" stroke-width="10" x1="7557.0" x2="7621.0" y1="2309.0" y2="2245.0" /><line stroke="#333" stroke-width="10" x1="7749.0" x2="7813.0" y1="2245.0" y2="2181.0" /><line stroke="#333" stroke-width="10" x1="6405.0" x2="6533.0" y1="1989.0" y2="1861.0" /><line stroke="#333" stroke-width="10" x1="6533.0" x2="6725.0" y1="1861.0" y2="1861.0" /><line stroke="#333" stroke-width="10" x1="6341.0" x2="6341.0" y1="1925.0" y2="2181.0" /><line stroke="#333" stroke-width="10" x1="6469.0" x2="6341.0" y1="1797.0" y2="1925.0" /><line stroke="#333" stroke-width="10" x1="7173.0" x2="7173.0" y1="2309.0" y2="2501.0" /><line stroke="#333" stroke-width="10" x1="7237.0" x2="7557.0" y1="2309.0" y2="2309.0" /><line stroke="#333" stroke-width="10" x1="7301.0" x2="7301.0" y1="2245.0" y2="2053.0" /><line stroke="#333" stroke-width="10" x1="7237.0" x2="7045.0" y1="2245.0" y2="2245.0" /><line stroke="#333" stroke-width="10" x1="6981.0" x2="7173.0" y1="2629.0" y2="2629.0" /><line stroke="#333" stroke-width="10" x1="7237.0" x2="7237.0" y1="2565.0" y2="2309.0" /><line stroke="#333" stroke-width="10" x1="7173.0" x2="7109.0" y1="2501.0" y2="2565.0" /><line stroke="#333" stroke-width="10" x1="7173.0" x2="7237.0" y1="2053.0" y2="2117.0" /><line stroke="#333" stroke-width="10" x1="7237.0" x2="7237.0" y1="2117.0" y2="2245.0" /><line stroke="#333" stroke-width="10" x1="7301.0" x2="7237.0" y1="2053.0" y2="1989.0" /><line stroke="#333" stroke-width="10" x1="7237.0" x2="6597.0" y1="1989.0" y2="1989.0" /><line stroke="#333" stroke-width="10" x1="7173.0" x2="7237.0" y1="2629.0" y2="2565.0" /><line stroke="#333" stroke-width="10" x1="6597.0" x2="6597.0" y1="1989.0" y2="2053.0" /><line stroke="#333" stroke-width="10" x1="6597.0" x2="7173.0" y1="2053.0" y2="2053.0" /><line stroke="#333" stroke-width="10" x1="7493.0" x2="7301.0" y1="2245.0" y2="2245.0" /><line stroke="#333" stroke-width="10" x1="7685.0" x2="7749.0" y1="1925.0" y2="1989.0" /><line stroke="#333" stroke-width="10" x1="7557.0" x2="7493.0" y1="2181.0" y2="2245.0" /><line stroke="#333" stroke-width="10" x1="7813.0" x2="7813.0" y1="2181.0" y2="2117.0" /><line stroke="#333" stroke-width="10" x1="7621.0" x2="7749.0" y1="2245.0" y2="2245.0" /><line stroke="#333" stroke-width="10" x1="7749.0" x2="7685.0" y1="2117.0" y2="2181.0" /><line stroke="#333" stroke-width="10" x1="7813.0" x2="7749.0" y1="1925.0" y2="1861.0" /><line stroke="#333" stroke-width="10" x1="7749.0" x2="7621.0" y1="1861.0" y2="1861.0" /><line stroke="#333" stroke-width="10" x1="7813.0" x2="7813.0" y1="2117.0" y2="1925.0" /><line stroke="#333" stroke-width="10" x1="7749.0" x2="7749.0" y1="1989.0" y2="2117.0" /><line stroke="#333" stroke-width="10" x1="7685.0" x2="7557.0" y1="2181.0" y2="2181.0" /><line stroke="#333" stroke-width="10" x1="7365.0" x2="7365.0" y1="1861.0" y2="1925.0" /><line stroke="#333" stroke-width="10" x1="7365.0" x2="7685.0" y1="1925.0" y2="1925.0" /><line stroke="#333" stroke-width="10" x1="6981.0" x2="6981.0" y1="1733.0" y2="1861.0" /><line stroke="#333" stroke-width="10" x1="7557.0" x2="7365.0" y1="1861.0" y2="1861.0" /><line stroke="#333" stroke-width="10" x1="7621.0" x2="7621.0" y1="1861.0" y2="1733.0" /><line stroke="#333" stroke-width="10" x1="7941.0" x2="7045.0" y1="1669.0" y2="1669.0" /><line stroke="#333" stroke-width="10" x1="7045.0" x2="6981.0" y1="1669.0" y2="1733.0" /><line stroke="#333" stroke-width="10" x1="7109.0" x2="7557.0" y1="1733.0" y2="1733.0" /><line stroke="#333" stroke-width="10" x1="7557.0" x2="7557.0" y1="1733.0" y2="1861.0" /><line stroke="#333" stroke-width="10" x1="7045.0" x2="7109.0" y1="1797.0" y2="1733.0" /><line stroke="#333" stroke-width="10" x1="6981.0" x2="7045.0" y1="1861.0" y2="1861.0" /><line stroke="#333" stroke-width="10" x1="7045.0" x2="7045.0" y1="1861.0" y2="1797.0" /><line stroke="#333" stroke-width="10" x1="7621.0" x2="8005.0" y1="1733.0" y2="1733.0" /><line stroke="#333" stroke-width="10" x1="8005.0" x2="8005.0" y1="1733.0" y2="1669.0" /><line stroke="#666" stroke-width="20" x1="8005.0" x2="7941.0" y1="1669.0" y2="1669.0" /><line stroke="#333" stroke-width="10" x1="7109.0" x2="7045.0" y1="2565.0" y2="2565.0" /><line stroke="#333" stroke-width="10" x1="7045.0" x2="6853.0" y1="2565.0" y2="2437.0" /><line stroke="#333" stroke-width="10" x1="6853.0" x2="6597.0" y1="2437.0" y2="2437.0" /><line stroke="#333" stroke-width="10" x1="6789.0" x2="6981.0" y1="2501.0" y2="2629.0" /><line stroke="#333" stroke-width="10" x1="6597.0" x2="6533.0" y1="2437.0" y2="2501.0" /><line stroke="#333" stroke-width="10" x1="6533.0" x2="6533.0" y1="2501.0" y2="2885.0" /><line stroke="#333" stroke-width="10" x1="6661.0" x2="6789.0" y1="2501.0" y2="2501.0" /><line stroke="#333" stroke-width="10" x1="6533.0" x2="6597.0" y1="2885.0" y2="2949.0" /><line stroke="#333" stroke-width="10" x1="6597.0" x2="6661.0" y1="2565.0" y2="2501.0" /><line stroke="#999" stroke-width="3" x1="7237.0" x2="7237.0" y1="2949.0" y2="2885.0" /><line stroke="#333" stroke-width="10" x1="6597.0" x2="7237.0" y1="2949.0" y2="2949.0" /><line stroke="#333" stroke-width="10" x1="6597.0" x2="6597.0" y1="2821.0" y2="2565.0" /><line stroke="#333" stroke-width="10" x1="6661.0" x2="6597.0" y1="2885.0" y2="2821.0" /><line stroke="#333" stroke-width="10" x1="7237.0" x2="6661.0" y1="2885.0" y2="2885.0" /><line stroke="#333" stroke-width="10" x1="7237.0" x2="7301.0" y1="2949.0" y2="2949.0" /><line stroke="#999" stroke-width="3" x1="7301.0" x2="7301.0" y1="2885.0" y2="2949.0" /><line stroke="#333" stroke-width="10" x1="7301.0" x2="7237.0" y1="2885.0" y2="2885.0" /><line stroke="#333" stroke-width="10" x1="7301.0" x2="7813.0" y1="2949.0" y2="2949.0" /><line stroke="#333" stroke-width="10" x1="7813.0" x2="7877.0" y1="2949.0" y2="2885.0" /><line stroke="#333" stroke-width="10" x1="7877.0" x2="7877.0" y1="2885.0" y2="2693.0" /><line stroke="#333" stroke-width="10" x1="7749.0" x2="7301.0" y1="2885.0" y2="2885.0" /><line stroke="#333" stroke-width="10" x1="7429.0" x2="7429.0" y1="2693.0" y2="2437.0" /><line stroke="#333" stroke-width="10" x1="7813.0" x2="7749.0" y1="2821.0" y2="2885.0" /><line stroke="#333" stroke-width="10" x1="7877.0" x2="7429.0" y1="2693.0" y2="2693.0" /><line stroke="#333" stroke-width="10" x1="7365.0" x2="7813.0" y1="2757.0" y2="2757.0" /><line stroke="#333" stroke-width="10" x1="7813.0" x2="7813.0" y1="2757.0" y2="2821.0" /><line stroke="#666" stroke-width="20" x1="7429.0" x2="7365.0" y1="2437.0" y2="2437.0" /><line stroke="#333" stroke-width="10" x1="7365.0" x2="7365.0" y1="2437.0" y2="2757.0" /><line stroke="#333" stroke-width="10" x1="6341.0" x2="6341.0" y1="2949.0" y2="3013.0" /><line stroke="#999" stroke-width="3" x1="6405.0" x2="6341.0" y1="3013.0" y2="3013.0" /><line stroke="#333" stroke-width="10" x1="6405.0" x2="6405.0" y1="3013.0" y2="2949.0" /><line stroke="#333" stroke-width="10" x1="6341.0" x2="6341.0" y1="3013.0" y2="3269.0" /><line stroke="#333" stroke-width="10" x1="6341.0" x2="6405.0" y1="3269.0" y2="3333.0" /><line stroke="#333" stroke-width="10" x1="7045.0" x2="6981.0" y1="3205.0" y2="3269.0" /><line stroke="#333" stroke-width="10" x1="7045.0" x2="7109.0" y1="3333.0" y2="3269.0" /><line stroke="#333" stroke-width="10" x1="7109.0" x2="7109.0" y1="3269.0" y2="3077.0" /><line stroke="#333" stroke-width="10" x1="6405.0" x2="7045.0" y1="3333.0" y2="3333.0" /><line stroke="#333" stroke-width="10" x1="6469.0" x2="6405.0" y1="3269.0" y2="3205.0" /><line stroke="#333" stroke-width="10" x1="6405.0" x2="6405.0" y1="3205.0" y2="3013.0" /><line stroke="#333" stroke-width="10" x1="6981.0" x2="6469.0" y1="3269.0" y2="3269.0" /><line stroke="#666" stroke-width="20" x1="7109.0" x2="7045.0" y1="3077.0" y2="3077.0" /><line stroke="#333" stroke-width="10" x1="7045.0" x2="7045.0" y1="3077.0" y2="3205.0" /><line stroke="#333" stroke-width="10" x1="5573.0" x2="5573.0" y1="3781.0" y2="3845.0" /><line stroke="#999" stroke-width="3" x1="5637.0" x2="5573.0" y1="3845.0" y2="3845.0" /><line stroke="#333" stroke-width="10" x1="5637.0" x2="5637.0" y1="3845.0" y2="3781.0" /><line stroke="#333" stroke-width="10" x1="5573.0" x2="5573.0" y1="3845.0" y2="4037.0" /><line stroke="#999" stroke-width="3" x1="5573.0" x2="5637.0" y1="4037.0" y2="4037.0" /><line stroke="#333" stroke-width="10" x1="5637.0" x2="5637.0" y1="4037.0" y2="3845.0" /><line stroke="#333" stroke-width="10" x1="5573.0" x2="5573.0" y1="4037.0" y2="4101.0" /><line stroke="#999" stroke-width="3" x1="5637.0" x2="5573.0" y1="4101.0" y2="4101.0" /><line stroke="#333" stroke-width="10" x1="5637.0" x2="5637.0" y1="4101.0" y2="4037.0" /><line stroke="#333" stroke-width="10" x1="5573.0" x2="5509.0" y1="4101.0" y2="4101.0" /><line stroke="#0d0" stroke-width="20" x1="5573.0" x2="5637.0" y1="4293.0" y2="4293.0" /><line stroke="#333" stroke-width="10" x1="5637.0" x2="5701.0" y1="4293.0" y2="4293.0" /><line stroke="#333" stroke-width="10" x1="5573.0" x2="5573.0" y1="4293.0" y2="4357.0" /><line stroke="#333" stroke-width="10" x1="5573.0" x2="5637.0" y1="4357.0" y2="4357.0" /><line stroke="#333" stroke-width="10" x1="5637.0" x2="5637.0" y1="4357.0" y2="4293.0" /><line stroke="#333" stroke-width="10" x1="5509.0" x2="5573.0" y1="4293.0" y2="4293.0" /><line stroke="#333" stroke-width="10" x1="5701.0" x2="5701.0" y1="4293.0" y2="4101.0" /><line stroke="#333" stroke-width="10" x1="5509.0" x2="5509.0" y1="4101.0" y2="4293.0" /><line stroke="#333" stroke-width="10" x1="5701.0" x2="5637.0" y1="4101.0" y2="4101.0" /><ellipse cx="69.0" cy="1669.0" fill="#009" rx="12" ry="24" stroke="#009" stroke-width="5" /><rect fill="#009" height="24" stroke="#009" stroke-width="5" transform="rotate(225,4037.0,1349.0)" width="24" x="4025.0" y="1337.0" /><rect fill="#009" height="24" stroke="#009" stroke-width="5" transform="rotate(90,1065.0,1677.0)" width="24" x="1053.0" y="1665.0" /><rect fill="#009" height="24" stroke="#009" stroke-width="5" transform="rotate(0,6310.0,2276.0)" width="24" x="6298.0" y="2264.0" /><rect fill="#900" height="48" stroke="#900" stroke-width="5" transform="rotate(90,1122.0,1073.0)" width="32" x="1106.0" y="1049.0" /><rect fill="#900" height="48" stroke="#900" stroke-width="5" transform="rotate(90,1527.0,1121.0)" width="32" x="1511.0" y="1097.0" /><rect fill="#900" height="48" stroke="#900" stroke-width="5" transform="rotate(90,1381.0,981.0)" width="32" x="1365.0" y="957.0" /><rect fill="#900" height="48" stroke="#900" stroke-width="5" transform="rotate(90,850.0,1073.0)" width="32" x="834.0" y="1049.0" /><rect fill="#900" height="48" stroke="#900" stroke-width="5" transform="rotate(90,1295.0,1210.0)" width="32" x="1279.0" y="1186.0" /><rect fill="#900" height="48" stroke="#900" stroke-width="5" transform="rotate(270,5606.0,2298.0)" width="32" x="5590.0" y="2274.0" /><rect fill="#900" height="48" stroke="#900" stroke-width="5" transform="rotate(270,5606.0,2653.0)" width="32" x="5590.0" y="2629.0" /><rect fill="#900" height="48" stroke="#900" stroke-width="5" transform="rotate(270,5601.0,2996.0)" width="32" x="5585.0" y="2972.0" /><rect fill="#900" height="48" stroke="#900" stroke-width="5" transform="rotate(270,4709.0,2979.0)" width="32" x="4693.0" y="2955.0" /><rect fill="#900" height="48" stroke="#900" stroke-width="5" transform="rotate(270,4700.0,2615.0)" width="32" x="4684.0" y="2591.0" /><rect fill="#900" height="48" stroke="#900" stroke-width="5" transform="rotate(270,5153.0,2602.0)" width="32" x="5137.0" y="2578.0" /><rect fill="#900" height="48" stroke="#900" stroke-width="5" transform="rotate(270,5335.0,2493.0)" width="32" x="5319.0" y="2469.0" /><rect fill="#900" height="48" stroke="#900" stroke-width="5" transform="rotate(270,5051.0,1943.0)" width="32" x="5035.0" y="1919.0" /><rect fill="#900" height="48" stroke="#900" stroke-width="5" transform="rotate(270,4671.0,2125.0)" width="32" x="4655.0" y="2101.0" /><rect fill="#900" height="48" stroke="#900" stroke-width="5" transform="rotate(270,4451.0,2695.0)" width="32" x="4435.0" y="2671.0" /><rect fill="#900" height="48" stroke="#900" stroke-width="5" transform="rotate(270,4477.0,3160.0)" width="32" x="4461.0" y="3136.0" /><rect fill="#900" height="48" stroke="#900" stroke-width="5" transform="rotate(270,5819.0,2772.0)" width="32" x="5803.0" y="2748.0" /><rect fill="#900" height="48" stroke="#900" stroke-width="5" transform="rotate(270,5861.0,2692.0)" width="32" x="5845.0" y="2668.0" /><rect fill="#900" height="48" stroke="#900" stroke-width="5" transform="rotate(270,7207.0,2324.0)" width="32" x="7191.0" y="2300.0" /><rect fill="#900" height="48" stroke="#900" stroke-width="5" transform="rotate(270,7207.0,2497.0)" width="32" x="7191.0" y="2473.0" /><rect fill="#900" height="48" stroke="#900" stroke-width="5" transform="rotate(270,7139.0,2603.0)" width="32" x="7123.0" y="2579.0" /><rect fill="#900" height="48" stroke="#900" stroke-width="5" transform="rotate(270,6847.0,2497.0)" width="32" x="6831.0" y="2473.0" /><rect fill="#900" height="48" stroke="#900" stroke-width="5" transform="rotate(270,6598.0,2501.0)" width="32" x="6582.0" y="2477.0" /><rect fill="#900" height="48" stroke="#900" stroke-width="5" transform="rotate(270,6606.0,2895.0)" width="32" x="6590.0" y="2871.0" /><rect fill="#900" height="48" stroke="#900" stroke-width="5" transform="rotate(270,7237.0,2065.0)" width="32" x="7221.0" y="2041.0" /><rect fill="#900" height="48" stroke="#900" stroke-width="5" transform="rotate(270,7558.0,2252.0)" width="32" x="7542.0" y="2228.0" /><rect fill="#900" height="48" stroke="#900" stroke-width="5" transform="rotate(270,7744.0,2188.0)" width="32" x="7728.0" y="2164.0" /><rect fill="#900" height="48" stroke="#900" stroke-width="5" transform="rotate(270,7744.0,1930.0)" width="32" x="7728.0" y="1906.0" /><rect fill="#900" height="48" stroke="#900" stroke-width="5" transform="rotate(270,7583.0,1879.0)" width="32" x="7567.0" y="1855.0" /><rect fill="#900" height="48" stroke="#900" stroke-width="5" transform="rotate(270,7592.0,1735.0)" width="32" x="7576.0" y="1711.0" /><rect fill="#900" height="48" stroke="#900" stroke-width="5" transform="rotate(270,7052.0,1731.0)" width="32" x="7036.0" y="1707.0" /><rect fill="#900" height="48" stroke="#900" stroke-width="5" transform="rotate(270,7809.0,2890.0)" width="32" x="7793.0" y="2866.0" /><rect fill="#900" height="48" stroke="#900" stroke-width="5" transform="rotate(270,7043.0,3275.0)" width="32" x="7027.0" y="3251.0" /><rect fill="#900" height="48" stroke="#900" stroke-width="5" transform="rotate(270,6396.0,3280.0)" width="32" x="6380.0" y="3256.0" /><rect fill="#900" height="48" stroke="#900" stroke-width="5" transform="rotate(270,6579.0,3308.0)" width="32" x="6563.0" y="3284.0" /><rect fill="#900" height="48" stroke="#900" stroke-width="5" transform="rotate(270,6770.0,3308.0)" width="32" x="6754.0" y="3284.0" /><rect fill="#900" height="48" stroke="#900" stroke-width="5" transform="rotate(270,6918.0,3308.0)" width="32" x="6902.0" y="3284.0" /><rect fill="#900" height="48" stroke="#900" stroke-width="5" transform="rotate(180,5399.0,3171.0)" width="32" x="5383.0" y="3147.0" /><rect fill="#900" height="48" stroke="#900" stroke-width="5" transform="rotate(270,5608.0,4199.0)" width="32" x="5592.0" y="4175.0" /><rect fill="#900" height="48" stroke="#900" stroke-width="5" transform="rotate(90,7078.0,3114.0)" width="32" x="7062.0" y="3090.0" /><circle cx="1830.0" cy="2669.0" fill="#900" r="16" stroke="#900" stroke-width="5" /><circle cx="4828.0" cy="1837.0" fill="#900" r="16" stroke="#900" stroke-width="5" /><circle cx="4642.0" cy="1845.0" fill="#090" r="16" stroke="#090" stroke-width="5" /><circle cx="4447.0" cy="1849.0" fill="#009" r="16" stroke="#009" stroke-width="5" /><circle cx="3913.0" cy="199.0" fill="#009" r="16" stroke="#009" stroke-width="5" /><circle cx="520.0" cy="179.0" fill="#009" r="16" stroke="#009" stroke-width="5" /><circle cx="427.0" cy="780.0" fill="#090" r="16" stroke="#090" stroke-width="5" /><circle cx="1708.0" cy="184.0" fill="#090" r="16" stroke="#090" stroke-width="5" /><circle cx="2681.0" cy="196.0" fill="#090" r="16" stroke="#090" stroke-width="5" /><circle cx="4003.0" cy="742.0" fill="#090" r="16" stroke="#090" stroke-width="5" /><rect fill="#900" height="48" stroke="#900" stroke-width="5" transform="rotate(90,897.0,1239.0)" width="32" x="881.0" y="1215.0" /><rect fill="#900" height="48" stroke="#900" stroke-width="5" transform="rotate(90,1916.0,1201.0)" width="32" x="1900.0" y="1177.0" /><rect fill="#900" height="48" stroke="#900" stroke-width="5" transform="rotate(90,1776.0,930.0)" width="32" x="1760.0" y="906.0" /><rect fill="#900" height="48" stroke="#900" stroke-width="5" transform="rotate(90,2111.0,905.0)" width="32" x="2095.0" y="881.0" /><rect fill="#900" height="48" stroke="#900" stroke-width="5" transform="rotate(90,2259.0,1176.0)" width="32" x="2243.0" y="1152.0" /><rect fill="#900" height="48" stroke="#900" stroke-width="5" transform="rotate(90,2480.0,909.0)" width="32" x="2464.0" y="885.0" /><rect fill="#900" height="48" stroke="#900" stroke-width="5" transform="rotate(90,2730.0,1142.0)" width="32" x="2714.0" y="1118.0" /><rect fill="#900" height="48" stroke="#900" stroke-width="5" transform="rotate(90,2917.0,875.0)" width="32" x="2901.0" y="851.0" /><rect fill="#900" height="48" stroke="#900" stroke-width="5" transform="rotate(90,3264.0,1133.0)" width="32" x="3248.0" y="1109.0" /><rect fill="#900" height="48" stroke="#900" stroke-width="5" transform="rotate(90,3383.0,930.0)" width="32" x="3367.0" y="906.0" /><circle cx="4944.0" cy="2835.0" fill="#090" r="16" stroke="#090" stroke-width="5" /><circle cx="5329.0" cy="3171.0" fill="#009" r="16" stroke="#009" stroke-width="5" /><circle cx="5857.0" cy="2607.0" fill="#009" r="16" stroke="#009" stroke-width="5" /><circle cx="7013.0" cy="1817.0" fill="#009" r="16" stroke="#009" stroke-width="5" /><circle cx="7403.0" cy="1897.0" fill="#090" r="16" stroke="#090" stroke-width="5" /><circle cx="7961.0" cy="1698.0" fill="#090" r="16" stroke="#090" stroke-width="5" /><circle cx="6628.0" cy="2016.0" fill="#090" r="16" stroke="#090" stroke-width="5" /><rect fill="#900" height="48" stroke="#900" stroke-width="5" transform="rotate(90,7396.0,2470.0)" width="32" x="7380.0" y="2446.0" /><rect fill="#900" height="48" stroke="#900" stroke-width="5" transform="rotate(270,5548.0,4202.0)" width="32" x="5532.0" y="4178.0" /><rect fill="#900" height="48" stroke="#900" stroke-width="5" transform="rotate(270,5671.0,4197.0)" width="32" x="5655.0" y="4173.0" /><circle cx="6698.0" cy="1827.0" fill="#009" r="16" stroke="#009" stroke-width="5" /><rect fill="#090" height="24" stroke="#090" stroke-width="5" transform="rotate(270,6592.0,1827.0)" width="24" x="6580.0" y="1815.0" /><circle cx="5857.0" cy="2517.0" fill="#009" r="16" stroke="#009" stroke-width="5" /><circle cx="5857.0" cy="2415.0" fill="#009" r="16" stroke="#009" stroke-width="5" /><circle cx="3888.0" cy="394.0" fill="#900" r="16" stroke="#900" stroke-width="5" /><rect fill="#090" height="24" stroke="#090" stroke-width="5" transform="rotate(180,1585.0,1644.0)" width="24" x="1573.0" y="1632.0" /><rect fill="#090" height="24" stroke="#090" stroke-width="5" transform="rotate(0,2701.0,1633.0)" width="24" x="2689.0" y="1621.0" /></svg>