<?xml version="1.0" encoding="utf-8" ?>
<svg baseProfile="tiny" height="800" version="1.2" viewBox="0 0 2634 2058" width="1024" xmlns="http://www.w3.org/2000/svg" xmlns:ev="http://www.w3.org/2001/xml-events" xmlns:xlink="http://www.w3.org/1999/xlink"><defs /><line stroke="#333" stroke-width="10" x1="901.0" x2="901.0" y1="133.0" y2="357.0" /><line stroke="#333" stroke-width="10" x1="1125.0" x2="1061.0" y1="133.0" y2="133.0" /><line stroke="#333" stroke-width="10" x1="1125.0" x2="1125.0" y1="357.0" y2="133.0" /><line stroke="#999" stroke-width="3" x1="901.0" x2="997.0" y1="357.0" y2="357.0" /><line stroke="#333" stroke-width="10" x1="965.0" x2="901.0" y1="133.0" y2="133.0" /><line stroke="#333" stroke-width="10" x1="965.0" x2="965.0" y1="5.0" y2="101.0" /><line stroke="#333" stroke-width="10" x1="1061.0" x2="965.0" y1="5.0" y2="5.0" /><line stroke="#999" stroke-width="3" x1="1061.0" x2="965.0" y1="133.0" y2="133.0" /><line stroke="#333" stroke-width="10" x1="1061.0" x2="1061.0" y1="133.0" y2="101.0" /><line stroke="#999" stroke-width="3" x1="965.0" x2="965.0" y1="133.0" y2="165.0" /><line stroke="#999" stroke-width="3" x1="965.0" x2="1061.0" y1="165.0" y2="165.0" /><line stroke="#999" stroke-width="3" x1="1061.0" x2="1061.0" y1="165.0" y2="133.0" /><line stroke="#333" stroke-width="10" x1="965.0" x2="965.0" y1="101.0" y2="133.0" /><line stroke="#333" stroke-width="10" x1="1061.0" x2="1061.0" y1="101.0" y2="5.0" /><line stroke="#999" stroke-width="3" x1="965.0" x2="1061.0" y1="101.0" y2="101.0" /><line stroke="#333" stroke-width="10" x1="1829.0" x2="1381.0" y1="357.0" y2="357.0" /><line stroke="#333" stroke-width="10" x1="1829.0" x2="1829.0" y1="1797.0" y2="1541.0" /><line stroke="#999" stroke-width="3" x1="197.0" x2="389.0" y1="1797.0" y2="1797.0" /><line stroke="#333" stroke-width="10" x1="197.0" x2="197.0" y1="357.0" y2="741.0" /><line stroke="#333" stroke-width="10" x1="901.0" x2="869.0" y1="357.0" y2="357.0" /><line stroke="#999" stroke-width="3" x1="1829.0" x2="1733.0" y1="1541.0" y2="1541.0" /><line stroke="#999" stroke-width="3" x1="1477.0" x2="1477.0" y1="1797.0" y2="1733.0" /><line stroke="#333" stroke-width="10" x1="1477.0" x2="1541.0" y1="1797.0" y2="1797.0" /><line stroke="#333" stroke-width="10" x1="1541.0" x2="1829.0" y1="1797.0" y2="1797.0" /><line stroke="#999" stroke-width="3" x1="1541.0" x2="1541.0" y1="1541.0" y2="1573.0" /><line stroke="#333" stroke-width="10" x1="1829.0" x2="1829.0" y1="1541.0" y2="1477.0" /><line stroke="#333" stroke-width="10" x1="1829.0" x2="1829.0" y1="1477.0" y2="1189.0" /><line stroke="#999" stroke-width="3" x1="1477.0" x2="1541.0" y1="1477.0" y2="1477.0" /><line stroke="#999" stroke-width="3" x1="1477.0" x2="1477.0" y1="1541.0" y2="1477.0" /><line stroke="#999" stroke-width="3" x1="1477.0" x2="1541.0" y1="1541.0" y2="1541.0" /><line stroke="#666" stroke-width="20" x1="1477.0" x2="1477.0" y1="1733.0" y2="1669.0" /><line stroke="#999" stroke-width="3" x1="1541.0" x2="1541.0" y1="1733.0" y2="1797.0" /><line stroke="#999" stroke-width="3" x1="1477.0" x2="1541.0" y1="1733.0" y2="1733.0" /><line stroke="#666" stroke-width="20" x1="1541.0" x2="1541.0" y1="1669.0" y2="1733.0" /><line stroke="#999" stroke-width="3" x1="1541.0" x2="1477.0" y1="1669.0" y2="1669.0" /><line stroke="#999" stroke-width="3" x1="1477.0" x2="1477.0" y1="1669.0" y2="1573.0" /><line stroke="#999" stroke-width="3" x1="1477.0" x2="1349.0" y1="1669.0" y2="1669.0" /><line stroke="#999" stroke-width="3" x1="1477.0" x2="1349.0" y1="1541.0" y2="1541.0" /><line stroke="#999" stroke-width="3" x1="1541.0" x2="1573.0" y1="1477.0" y2="1477.0" /><line stroke="#999" stroke-width="3" x1="1541.0" x2="1541.0" y1="1477.0" y2="1349.0" /><line stroke="#999" stroke-width="3" x1="1701.0" x2="1733.0" y1="1477.0" y2="1477.0" /><line stroke="#999" stroke-width="3" x1="1701.0" x2="1701.0" y1="1477.0" y2="1349.0" /><line stroke="#999" stroke-width="3" x1="1573.0" x2="1541.0" y1="1541.0" y2="1541.0" /><line stroke="#999" stroke-width="3" x1="1573.0" x2="1669.0" y1="1477.0" y2="1477.0" /><line stroke="#999" stroke-width="3" x1="1573.0" x2="1573.0" y1="1541.0" y2="1477.0" /><line stroke="#999" stroke-width="3" x1="1477.0" x2="1477.0" y1="1573.0" y2="1541.0" /><line stroke="#999" stroke-width="3" x1="1477.0" x2="1541.0" y1="1573.0" y2="1573.0" /><line stroke="#999" stroke-width="3" x1="1541.0" x2="1541.0" y1="1573.0" y2="1669.0" /><line stroke="#999" stroke-width="3" x1="1669.0" x2="1573.0" y1="1541.0" y2="1541.0" /><line stroke="#999" stroke-width="3" x1="1669.0" x2="1701.0" y1="1477.0" y2="1477.0" /><line stroke="#999" stroke-width="3" x1="1669.0" x2="1669.0" y1="1541.0" y2="1477.0" /><line stroke="#999" stroke-width="3" x1="1733.0" x2="1669.0" y1="1541.0" y2="1541.0" /><line stroke="#999" stroke-width="3" x1="1733.0" x2="1829.0" y1="1477.0" y2="1477.0" /><line stroke="#999" stroke-width="3" x1="1733.0" x2="1733.0" y1="1477.0" y2="1541.0" /><line stroke="#999" stroke-width="3" x1="997.0" x2="1029.0" y1="357.0" y2="357.0" /><line stroke="#999" stroke-width="3" x1="1029.0" x2="1125.0" y1="357.0" y2="357.0" /><line stroke="#999" stroke-width="3" x1="645.0" x2="741.0" y1="1797.0" y2="1797.0" /><line stroke="#333" stroke-width="10" x1="645.0" x2="645.0" y1="1797.0" y2="1861.0" /><line stroke="#333" stroke-width="10" x1="645.0" x2="837.0" y1="1989.0" y2="1989.0" /><line stroke="#333" stroke-width="10" x1="1125.0" x2="1477.0" y1="1797.0" y2="1797.0" /><line stroke="#333" stroke-width="10" x1="1125.0" x2="1125.0" y1="1989.0" y2="1797.0" /><line stroke="#999" stroke-width="3" x1="837.0" x2="901.0" y1="1989.0" y2="1989.0" /><line stroke="#333" stroke-width="10" x1="837.0" x2="837.0" y1="1989.0" y2="2053.0" /><line stroke="#0d0" stroke-width="20" x1="837.0" x2="901.0" y1="2053.0" y2="2053.0" /><line stroke="#333" stroke-width="10" x1="901.0" x2="1125.0" y1="1989.0" y2="1989.0" /><line stroke="#333" stroke-width="10" x1="901.0" x2="901.0" y1="2053.0" y2="1989.0" /><line stroke="#999" stroke-width="3" x1="741.0" x2="805.0" y1="1797.0" y2="1797.0" /><line stroke="#999" stroke-width="3" x1="741.0" x2="741.0" y1="1861.0" y2="1797.0" /><line stroke="#999" stroke-width="3" x1="805.0" x2="965.0" y1="1797.0" y2="1797.0" /><line stroke="#999" stroke-width="3" x1="805.0" x2="741.0" y1="1861.0" y2="1861.0" /><line stroke="#999" stroke-width="3" x1="805.0" x2="805.0" y1="1797.0" y2="1861.0" /><line stroke="#999" stroke-width="3" x1="965.0" x2="1029.0" y1="1797.0" y2="1797.0" /><line stroke="#999" stroke-width="3" x1="965.0" x2="965.0" y1="1861.0" y2="1797.0" /><line stroke="#999" stroke-width="3" x1="1029.0" x2="1125.0" y1="1797.0" y2="1797.0" /><line stroke="#999" stroke-width="3" x1="1029.0" x2="965.0" y1="1861.0" y2="1861.0" /><line stroke="#999" stroke-width="3" x1="1029.0" x2="1029.0" y1="1797.0" y2="1861.0" /><line stroke="#999" stroke-width="3" x1="709.0" x2="709.0" y1="1221.0" y2="997.0" /><line stroke="#999" stroke-width="3" x1="709.0" x2="933.0" y1="997.0" y2="997.0" /><line stroke="#999" stroke-width="3" x1="933.0" x2="933.0" y1="997.0" y2="1221.0" /><line stroke="#999" stroke-width="3" x1="933.0" x2="709.0" y1="1221.0" y2="1221.0" /><line stroke="#999" stroke-width="3" x1="741.0" x2="741.0" y1="1189.0" y2="1029.0" /><line stroke="#999" stroke-width="3" x1="741.0" x2="901.0" y1="1029.0" y2="1029.0" /><line stroke="#999" stroke-width="3" x1="901.0" x2="901.0" y1="1189.0" y2="1029.0" /><line stroke="#999" stroke-width="3" x1="901.0" x2="741.0" y1="1189.0" y2="1189.0" /><line stroke="#999" stroke-width="3" x1="773.0" x2="773.0" y1="1157.0" y2="1061.0" /><line stroke="#999" stroke-width="3" x1="773.0" x2="869.0" y1="1061.0" y2="1061.0" /><line stroke="#999" stroke-width="3" x1="869.0" x2="869.0" y1="1061.0" y2="1157.0" /><line stroke="#999" stroke-width="3" x1="869.0" x2="773.0" y1="1157.0" y2="1157.0" /><line stroke="#999" stroke-width="3" x1="805.0" x2="805.0" y1="1125.0" y2="1093.0" /><line stroke="#999" stroke-width="3" x1="805.0" x2="837.0" y1="1093.0" y2="1093.0" /><line stroke="#999" stroke-width="3" x1="837.0" x2="837.0" y1="1093.0" y2="1125.0" /><line stroke="#999" stroke-width="3" x1="837.0" x2="805.0" y1="1125.0" y2="1125.0" /><line stroke="#999" stroke-width="3" x1="677.0" x2="677.0" y1="1253.0" y2="965.0" /><line stroke="#999" stroke-width="3" x1="677.0" x2="965.0" y1="965.0" y2="965.0" /><line stroke="#999" stroke-width="3" x1="965.0" x2="965.0" y1="965.0" y2="1253.0" /><line stroke="#999" stroke-width="3" x1="965.0" x2="677.0" y1="1253.0" y2="1253.0" /><line stroke="#999" stroke-width="3" x1="645.0" x2="645.0" y1="1285.0" y2="933.0" /><line stroke="#999" stroke-width="3" x1="645.0" x2="997.0" y1="933.0" y2="933.0" /><line stroke="#999" stroke-width="3" x1="997.0" x2="997.0" y1="933.0" y2="1285.0" /><line stroke="#999" stroke-width="3" x1="997.0" x2="645.0" y1="1285.0" y2="1285.0" /><line stroke="#333" stroke-width="10" x1="869.0" x2="645.0" y1="352.0" y2="352.0" /><line stroke="#333" stroke-width="10" x1="869.0" x2="869.0" y1="357.0" y2="352.0" /><line stroke="#999" stroke-width="3" x1="869.0" x2="645.0" y1="357.0" y2="357.0" /><line stroke="#333" stroke-width="10" x1="645.0" x2="197.0" y1="357.0" y2="357.0" /><line stroke="#333" stroke-width="10" x1="645.0" x2="645.0" y1="352.0" y2="357.0" /><line stroke="#333" stroke-width="10" x1="1381.0" x2="1157.0" y1="352.0" y2="352.0" /><line stroke="#999" stroke-width="3" x1="1381.0" x2="1157.0" y1="357.0" y2="357.0" /><line stroke="#333" stroke-width="10" x1="1381.0" x2="1381.0" y1="357.0" y2="352.0" /><line stroke="#333" stroke-width="10" x1="1157.0" x2="1125.0" y1="357.0" y2="357.0" /><line stroke="#333" stroke-width="10" x1="1157.0" x2="1157.0" y1="352.0" y2="357.0" /><line stroke="#999" stroke-width="3" x1="645.0" x2="613.0" y1="357.0" y2="389.0" /><line stroke="#999" stroke-width="3" x1="613.0" x2="901.0" y1="389.0" y2="389.0" /><line stroke="#999" stroke-width="3" x1="901.0" x2="869.0" y1="389.0" y2="357.0" /><line stroke="#999" stroke-width="3" x1="1157.0" x2="1125.0" y1="357.0" y2="389.0" /><line stroke="#999" stroke-width="3" x1="1125.0" x2="1413.0" y1="389.0" y2="389.0" /><line stroke="#999" stroke-width="3" x1="1413.0" x2="1381.0" y1="389.0" y2="357.0" /><line stroke="#333" stroke-width="10" x1="197.0" x2="197.0" y1="965.0" y2="1029.0" /><line stroke="#999" stroke-width="3" x1="325.0" x2="261.0" y1="741.0" y2="741.0" /><line stroke="#999" stroke-width="3" x1="325.0" x2="325.0" y1="965.0" y2="741.0" /><line stroke="#333" stroke-width="10" x1="197.0" x2="197.0" y1="741.0" y2="965.0" /><line stroke="#999" stroke-width="3" x1="197.0" x2="261.0" y1="965.0" y2="965.0" /><line stroke="#333" stroke-width="10" x1="197.0" x2="197.0" y1="1029.0" y2="1061.0" /><line stroke="#999" stroke-width="3" x1="197.0" x2="261.0" y1="1029.0" y2="1029.0" /><line stroke="#999" stroke-width="3" x1="325.0" x2="325.0" y1="1029.0" y2="1253.0" /><line stroke="#333" stroke-width="10" x1="197.0" x2="197.0" y1="1253.0" y2="1669.0" /><line stroke="#999" stroke-width="3" x1="325.0" x2="261.0" y1="1253.0" y2="1253.0" /><line stroke="#999" stroke-width="3" x1="261.0" x2="197.0" y1="1253.0" y2="1253.0" /><line stroke="#999" stroke-width="3" x1="261.0" x2="325.0" y1="1029.0" y2="1029.0" /><line stroke="#999" stroke-width="3" x1="261.0" x2="261.0" y1="1029.0" y2="1253.0" /><line stroke="#999" stroke-width="3" x1="261.0" x2="325.0" y1="965.0" y2="965.0" /><line stroke="#999" stroke-width="3" x1="261.0" x2="197.0" y1="741.0" y2="741.0" /><line stroke="#999" stroke-width="3" x1="261.0" x2="261.0" y1="965.0" y2="741.0" /><line stroke="#333" stroke-width="10" x1="197.0" x2="197.0" y1="1221.0" y2="1253.0" /><line stroke="#333" stroke-width="10" x1="5.0" x2="69.0" y1="1221.0" y2="1221.0" /><line stroke="#333" stroke-width="10" x1="5.0" x2="5.0" y1="1061.0" y2="1221.0" /><line stroke="#999" stroke-width="3" x1="197.0" x2="197.0" y1="1061.0" y2="1085.0" /><line stroke="#333" stroke-width="10" x1="197.0" x2="5.0" y1="1061.0" y2="1061.0" /><line stroke="#999" stroke-width="3" x1="165.0" x2="165.0" y1="1194.0" y2="1149.0" /><line stroke="#999" stroke-width="3" x1="197.0" x2="197.0" y1="1149.0" y2="1194.0" /><line stroke="#999" stroke-width="3" x1="165.0" x2="197.0" y1="1149.0" y2="1149.0" /><line stroke="#999" stroke-width="3" x1="197.0" x2="197.0" y1="1194.0" y2="1221.0" /><line stroke="#999" stroke-width="3" x1="197.0" x2="165.0" y1="1194.0" y2="1194.0" /><line stroke="#999" stroke-width="3" x1="165.0" x2="165.0" y1="1130.0" y2="1085.0" /><line stroke="#999" stroke-width="3" x1="197.0" x2="197.0" y1="1085.0" y2="1130.0" /><line stroke="#999" stroke-width="3" x1="165.0" x2="197.0" y1="1085.0" y2="1085.0" /><line stroke="#999" stroke-width="3" x1="197.0" x2="197.0" y1="1130.0" y2="1149.0" /><line stroke="#999" stroke-width="3" x1="197.0" x2="165.0" y1="1130.0" y2="1130.0" /><line stroke="#333" stroke-width="10" x1="645.0" x2="645.0" y1="1925.0" y2="1989.0" /><line stroke="#333" stroke-width="10" x1="581.0" x2="645.0" y1="1925.0" y2="1925.0" /><line stroke="#999" stroke-width="3" x1="645.0" x2="645.0" y1="1861.0" y2="1925.0" /><line stroke="#333" stroke-width="10" x1="581.0" x2="581.0" y1="1861.0" y2="1925.0" /><line stroke="#333" stroke-width="10" x1="645.0" x2="581.0" y1="1861.0" y2="1861.0" /><line stroke="#333" stroke-width="10" x1="69.0" x2="133.0" y1="1285.0" y2="1285.0" /><line stroke="#333" stroke-width="10" x1="69.0" x2="69.0" y1="1221.0" y2="1285.0" /><line stroke="#00d" stroke-width="20" x1="69.0" x2="133.0" y1="1221.0" y2="1221.0" /><line stroke="#333" stroke-width="10" x1="133.0" x2="197.0" y1="1221.0" y2="1221.0" /><line stroke="#333" stroke-width="10" x1="133.0" x2="133.0" y1="1285.0" y2="1221.0" /><line stroke="#333" stroke-width="10" x1="389.0" x2="645.0" y1="1797.0" y2="1797.0" /><line stroke="#333" stroke-width="10" x1="389.0" x2="389.0" y1="1957.0" y2="1829.0" /><line stroke="#333" stroke-width="10" x1="37.0" x2="389.0" y1="1957.0" y2="1957.0" /><line stroke="#333" stroke-width="10" x1="37.0" x2="37.0" y1="1669.0" y2="1957.0" /><line stroke="#999" stroke-width="3" x1="197.0" x2="197.0" y1="1669.0" y2="1797.0" /><line stroke="#333" stroke-width="10" x1="197.0" x2="165.0" y1="1669.0" y2="1669.0" /><line stroke="#333" stroke-width="10" x1="165.0" x2="37.0" y1="1669.0" y2="1669.0" /><line stroke="#999" stroke-width="3" x1="165.0" x2="165.0" y1="1669.0" y2="1829.0" /><line stroke="#333" stroke-width="10" x1="389.0" x2="389.0" y1="1829.0" y2="1797.0" /><line stroke="#999" stroke-width="3" x1="165.0" x2="389.0" y1="1829.0" y2="1829.0" /><line stroke="#0d0" stroke-width="20" x1="1989.0" x2="1989.0" y1="1189.0" y2="1029.0" /><line stroke="#333" stroke-width="10" x1="1829.0" x2="1989.0" y1="1189.0" y2="1189.0" /><line stroke="#999" stroke-width="3" x1="1829.0" x2="1829.0" y1="1189.0" y2="1029.0" /><line stroke="#333" stroke-width="10" x1="1829.0" x2="1829.0" y1="1029.0" y2="933.0" /><line stroke="#333" stroke-width="10" x1="1989.0" x2="1829.0" y1="1029.0" y2="1029.0" /><line stroke="#999" stroke-width="3" x1="1829.0" x2="1829.0" y1="933.0" y2="773.0" /><line stroke="#333" stroke-width="10" x1="1829.0" x2="1989.0" y1="933.0" y2="933.0" /><line stroke="#0d0" stroke-width="20" x1="1989.0" x2="1989.0" y1="933.0" y2="773.0" /><line stroke="#333" stroke-width="10" x1="1829.0" x2="1829.0" y1="773.0" y2="357.0" /><line stroke="#333" stroke-width="10" x1="1989.0" x2="1829.0" y1="773.0" y2="773.0" /><line stroke="#333" stroke-width="10" x1="1989.0" x2="1989.0" y1="1189.0" y2="2053.0" /><line stroke="#333" stroke-width="10" x1="1989.0" x2="2629.0" y1="2053.0" y2="2053.0" /><line stroke="#333" stroke-width="10" x1="2629.0" x2="2629.0" y1="2053.0" y2="69.0" /><line stroke="#333" stroke-width="10" x1="2629.0" x2="1989.0" y1="69.0" y2="69.0" /><line stroke="#333" stroke-width="10" x1="1989.0" x2="1989.0" y1="69.0" y2="741.0" /><line stroke="#333" stroke-width="10" x1="1989.0" x2="1989.0" y1="933.0" y2="1029.0" /><line stroke="#333" stroke-width="10" x1="1989.0" x2="1989.0" y1="741.0" y2="773.0" /><line stroke="#999" stroke-width="3" x1="1989.0" x2="2021.0" y1="741.0" y2="741.0" /><line stroke="#999" stroke-width="3" x1="2021.0" x2="2021.0" y1="741.0" y2="101.0" /><line stroke="#999" stroke-width="3" x1="2021.0" x2="2597.0" y1="101.0" y2="101.0" /><line stroke="#999" stroke-width="3" x1="2597.0" x2="2597.0" y1="101.0" y2="2021.0" /><line stroke="#999" stroke-width="3" x1="2597.0" x2="2021.0" y1="2021.0" y2="2021.0" /><line stroke="#999" stroke-width="3" x1="2021.0" x2="2021.0" y1="2021.0" y2="1189.0" /><line stroke="#999" stroke-width="3" x1="2021.0" x2="1989.0" y1="1189.0" y2="1189.0" /><ellipse cx="1012.0" cy="167.0" fill="#009" rx="12" ry="24" stroke="#009" stroke-width="5" /><circle cx="1013.0" cy="41.0" fill="#009" r="16" stroke="#009" stroke-width="5" /><rect fill="#900" height="48" stroke="#900" stroke-width="5" transform="rotate(270,1605.0,1573.0)" width="32" x="1589.0" y="1549.0" /><rect fill="#900" height="48" stroke="#900" stroke-width="5" transform="rotate(270,1765.0,1573.0)" width="32" x="1749.0" y="1549.0" /><rect fill="#900" height="48" stroke="#900" stroke-width="5" transform="rotate(180,1573.0,1733.0)" width="32" x="1557.0" y="1709.0" /><rect fill="#090" height="24" stroke="#090" stroke-width="5" transform="rotate(180,1337.0,1667.0)" width="24" x="1325.0" y="1655.0" /><rect fill="#090" height="24" stroke="#090" stroke-width="5" transform="rotate(180,1340.0,1539.0)" width="24" x="1328.0" y="1527.0" /><rect fill="#090" height="24" stroke="#090" stroke-width="5" transform="rotate(180,1541.0,1337.0)" width="24" x="1529.0" y="1325.0" /><rect fill="#090" height="24" stroke="#090" stroke-width="5" transform="rotate(180,1700.0,1337.0)" width="24" x="1688.0" y="1325.0" /><circle cx="1509.0" cy="1701.0" fill="#900" r="16" stroke="#900" stroke-width="5" /><circle cx="997.0" cy="293.0" fill="#900" r="16" stroke="#900" stroke-width="5" /><circle cx="1061.0" cy="293.0" fill="#090" r="16" stroke="#090" stroke-width="5" /><circle cx="933.0" cy="293.0" fill="#090" r="16" stroke="#090" stroke-width="5" /><circle cx="1061.0" cy="229.0" fill="#009" r="16" stroke="#009" stroke-width="5" /><circle cx="933.0" cy="229.0" fill="#009" r="16" stroke="#009" stroke-width="5" /><circle cx="997.0" cy="229.0" fill="#900" r="16" stroke="#900" stroke-width="5" /><rect fill="#090" height="24" stroke="#090" stroke-width="5" transform="rotate(180,1701.0,1669.0)" width="24" x="1689.0" y="1657.0" /><rect fill="#090" height="24" stroke="#090" stroke-width="5" transform="rotate(180,1765.0,1733.0)" width="24" x="1753.0" y="1721.0" /><rect fill="#090" height="24" stroke="#090" stroke-width="5" transform="rotate(180,1669.0,1605.0)" width="24" x="1657.0" y="1593.0" /><rect fill="#090" height="24" stroke="#090" stroke-width="5" transform="rotate(180,1605.0,1669.0)" width="24" x="1593.0" y="1657.0" /><rect fill="#090" height="24" stroke="#090" stroke-width="5" transform="rotate(180,1797.0,1669.0)" width="24" x="1785.0" y="1657.0" /><rect fill="#090" height="24" stroke="#090" stroke-width="5" transform="rotate(180,1669.0,1733.0)" width="24" x="1657.0" y="1721.0" /><rect fill="#090" height="24" stroke="#090" stroke-width="5" transform="rotate(180,1701.0,1701.0)" width="24" x="1689.0" y="1689.0" /><rect fill="#090" height="24" stroke="#090" stroke-width="5" transform="rotate(180,1637.0,1637.0)" width="24" x="1625.0" y="1625.0" /><rect fill="#090" height="24" stroke="#090" stroke-width="5" transform="rotate(180,1765.0,1637.0)" width="24" x="1753.0" y="1625.0" /><rect fill="#090" height="24" stroke="#090" stroke-width="5" transform="rotate(180,1669.0,1765.0)" width="24" x="1657.0" y="1753.0" /><rect fill="#900" height="48" stroke="#900" stroke-width="5" transform="rotate(180,1573.0,1637.0)" width="32" x="1557.0" y="1613.0" /><rect fill="#900" height="48" stroke="#900" stroke-width="5" transform="rotate(270,677.0,1829.0)" width="32" x="661.0" y="1805.0" /><rect fill="#900" height="48" stroke="#900" stroke-width="5" transform="rotate(270,869.0,1829.0)" width="32" x="853.0" y="1805.0" /><rect fill="#900" height="48" stroke="#900" stroke-width="5" transform="rotate(270,1061.0,1829.0)" width="32" x="1045.0" y="1805.0" /><circle cx="293.0" cy="1221.0" fill="#090" r="16" stroke="#090" stroke-width="5" /><circle cx="293.0" cy="1157.0" fill="#090" r="16" stroke="#090" stroke-width="5" /><circle cx="293.0" cy="933.0" fill="#090" r="16" stroke="#090" stroke-width="5" /><circle cx="293.0" cy="773.0" fill="#090" r="16" stroke="#090" stroke-width="5" /><circle cx="293.0" cy="869.0" fill="#090" r="16" stroke="#090" stroke-width="5" /><circle cx="293.0" cy="1061.0" fill="#090" r="16" stroke="#090" stroke-width="5" /><circle cx="293.0" cy="1093.0" fill="#009" r="16" stroke="#009" stroke-width="5" /><circle cx="293.0" cy="837.0" fill="#009" r="16" stroke="#009" stroke-width="5" /><circle cx="723.0" cy="1013.0" fill="#009" r="16" stroke="#009" stroke-width="5" /><circle cx="731.0" cy="1204.0" fill="#009" r="16" stroke="#009" stroke-width="5" /><circle cx="912.0" cy="1206.0" fill="#009" r="16" stroke="#009" stroke-width="5" /><circle cx="921.0" cy="1017.0" fill="#009" r="16" stroke="#009" stroke-width="5" /><circle cx="918.0" cy="1107.0" fill="#009" r="16" stroke="#009" stroke-width="5" /><circle cx="725.0" cy="1109.0" fill="#009" r="16" stroke="#009" stroke-width="5" /><circle cx="821.0" cy="1109.0" fill="#009" r="16" stroke="#009" stroke-width="5" /><circle cx="821.0" cy="1109.0" fill="#009" r="16" stroke="#009" stroke-width="5" /><circle cx="821.0" cy="1109.0" fill="#009" r="16" stroke="#009" stroke-width="5" /><circle cx="821.0" cy="1109.0" fill="#009" r="16" stroke="#009" stroke-width="5" /><circle cx="821.0" cy="1109.0" fill="#009" r="16" stroke="#009" stroke-width="5" /><circle cx="821.0" cy="1109.0" fill="#009" r="16" stroke="#009" stroke-width="5" /><circle cx="821.0" cy="1109.0" fill="#009" r="16" stroke="#009" stroke-width="5" /><circle cx="821.0" cy="1109.0" fill="#009" r="16" stroke="#009" stroke-width="5" /><circle cx="821.0" cy="1109.0" fill="#009" r="16" stroke="#009" stroke-width="5" /><circle cx="821.0" cy="1109.0" fill="#009" r="16" stroke="#009" stroke-width="5" /><circle cx="821.0" cy="1109.0" fill="#009" r="16" stroke="#009" stroke-width="5" /><circle cx="821.0" cy="1109.0" fill="#009" r="16" stroke="#009" stroke-width="5" /><circle cx="821.0" cy="1109.0" fill="#009" r="16" stroke="#009" stroke-width="5" /><circle cx="821.0" cy="1109.0" fill="#009" r="16" stroke="#009" stroke-width="5" /><circle cx="821.0" cy="1109.0" fill="#009" r="16" stroke="#009" stroke-width="5" /><circle cx="821.0" cy="1109.0" fill="#009" r="16" stroke="#009" stroke-width="5" /><circle cx="821.0" cy="1109.0" fill="#009" r="16" stroke="#009" stroke-width="5" /><circle cx="821.0" cy="1109.0" fill="#009" r="16" stroke="#009" stroke-width="5" /><circle cx="821.0" cy="1109.0" fill="#009" r="16" stroke="#009" stroke-width="5" /><circle cx="821.0" cy="1109.0" fill="#009" r="16" stroke="#009" stroke-width="5" /><circle cx="821.0" cy="1109.0" fill="#009" r="16" stroke="#009" stroke-width="5" /><circle cx="821.0" cy="1109.0" fill="#009" r="16" stroke="#009" stroke-width="5" /><circle cx="821.0" cy="1109.0" fill="#009" r="16" stroke="#009" stroke-width="5" /><circle cx="821.0" cy="1109.0" fill="#009" r="16" stroke="#009" stroke-width="5" /><circle cx="821.0" cy="1109.0" fill="#009" r="16" stroke="#009" stroke-width="5" /><circle cx="821.0" cy="1109.0" fill="#009" r="16" stroke="#009" stroke-width="5" /><circle cx="821.0" cy="1109.0" fill="#009" r="16" stroke="#009" stroke-width="5" /><circle cx="821.0" cy="1109.0" fill="#009" r="16" stroke="#009" stroke-width="5" /><circle cx="821.0" cy="1109.0" fill="#009" r="16" stroke="#009" stroke-width="5" /><circle cx="821.0" cy="1109.0" fill="#009" r="16" stroke="#009" stroke-width="5" /><circle cx="821.0" cy="1109.0" fill="#009" r="16" stroke="#009" stroke-width="5" /><circle cx="821.0" cy="1109.0" fill="#009" r="16" stroke="#009" stroke-width="5" /><circle cx="821.0" cy="1109.0" fill="#009" r="16" stroke="#009" stroke-width="5" /><circle cx="821.0" cy="1109.0" fill="#009" r="16" stroke="#009" stroke-width="5" /><circle cx="821.0" cy="1109.0" fill="#009" r="16" stroke="#009" stroke-width="5" /><circle cx="821.0" cy="1109.0" fill="#009" r="16" stroke="#009" stroke-width="5" /><circle cx="821.0" cy="1109.0" fill="#009" r="16" stroke="#009" stroke-width="5" /><circle cx="821.0" cy="1109.0" fill="#009" r="16" stroke="#009" stroke-width="5" /><circle cx="821.0" cy="1109.0" fill="#009" r="16" stroke="#009" stroke-width="5" /><circle cx="821.0" cy="1109.0" fill="#009" r="16" stroke="#009" stroke-width="5" /><circle cx="821.0" cy="1109.0" fill="#009" r="16" stroke="#009" stroke-width="5" /><circle cx="821.0" cy="1109.0" fill="#009" r="16" stroke="#009" stroke-width="5" /><circle cx="821.0" cy="1109.0" fill="#009" r="16" stroke="#009" stroke-width="5" /><circle cx="821.0" cy="1109.0" fill="#009" r="16" stroke="#009" stroke-width="5" /><circle cx="821.0" cy="1109.0" fill="#009" r="16" stroke="#009" stroke-width="5" /><circle cx="821.0" cy="1109.0" fill="#009" r="16" stroke="#009" stroke-width="5" /><circle cx="821.0" cy="1109.0" fill="#009" r="16" stroke="#009" stroke-width="5" /><circle cx="821.0" cy="1109.0" fill="#009" r="16" stroke="#009" stroke-width="5" /><circle cx="821.0" cy="1109.0" fill="#009" r="16" stroke="#009" stroke-width="5" /><circle cx="821.0" cy="1109.0" fill="#009" r="16" stroke="#009" stroke-width="5" /><circle cx="821.0" cy="1109.0" fill="#009" r="16" stroke="#009" stroke-width="5" /><circle cx="821.0" cy="1109.0" fill="#009" r="16" stroke="#009" stroke-width="5" /><circle cx="821.0" cy="1109.0" fill="#009" r="16" stroke="#009" stroke-width="5" /><circle cx="821.0" cy="1109.0" fill="#009" r="16" stroke="#009" stroke-width="5" /><circle cx="821.0" cy="1109.0" fill="#009" r="16" stroke="#009" stroke-width="5" /><circle cx="821.0" cy="1109.0" fill="#009" r="16" stroke="#009" stroke-width="5" /><circle cx="821.0" cy="1109.0" fill="#009" r="16" stroke="#009" stroke-width="5" /><circle cx="821.0" cy="1109.0" fill="#009" r="16" stroke="#009" stroke-width="5" /><circle cx="821.0" cy="1109.0" fill="#009" r="16" stroke="#009" stroke-width="5" /><circle cx="821.0" cy="1109.0" fill="#009" r="16" stroke="#009" stroke-width="5" /><circle cx="821.0" cy="1109.0" fill="#009" r="16" stroke="#009" stroke-width="5" /><circle cx="821.0" cy="1109.0" fill="#009" r="16" stroke="#009" stroke-width="5" /><circle cx="821.0" cy="1109.0" fill="#009" r="16" stroke="#009" stroke-width="5" /><circle cx="821.0" cy="1109.0" fill="#009" r="16" stroke="#009" stroke-width="5" /><circle cx="821.0" cy="1109.0" fill="#009" r="16" stroke="#009" stroke-width="5" /><circle cx="821.0" cy="1109.0" fill="#009" r="16" stroke="#009" stroke-width="5" /><circle cx="821.0" cy="1109.0" fill="#009" r="16" stroke="#009" stroke-width="5" /><circle cx="821.0" cy="1109.0" fill="#009" r="16" stroke="#009" stroke-width="5" /><circle cx="821.0" cy="1109.0" fill="#009" r="16" stroke="#009" stroke-width="5" /><circle cx="821.0" cy="1109.0" fill="#009" r="16" stroke="#009" stroke-width="5" /><circle cx="821.0" cy="1109.0" fill="#009" r="16" stroke="#009" stroke-width="5" /><circle cx="821.0" cy="1109.0" fill="#009" r="16" stroke="#009" stroke-width="5" /><circle cx="821.0" cy="1109.0" fill="#009" r="16" stroke="#009" stroke-width="5" /><circle cx="821.0" cy="1109.0" fill="#009" r="16" stroke="#009" stroke-width="5" /><circle cx="821.0" cy="1109.0" fill="#009" r="16" stroke="#009" stroke-width="5" /><circle cx="821.0" cy="1109.0" fill="#009" r="16" stroke="#009" stroke-width="5" /><circle cx="821.0" cy="1109.0" fill="#009" r="16" stroke="#009" stroke-width="5" /><circle cx="821.0" cy="1109.0" fill="#009" r="16" stroke="#009" stroke-width="5" /><circle cx="821.0" cy="1109.0" fill="#009" r="16" stroke="#009" stroke-width="5" /><circle cx="821.0" cy="1109.0" fill="#009" r="16" stroke="#009" stroke-width="5" /><circle cx="821.0" cy="1109.0" fill="#009" r="16" stroke="#009" stroke-width="5" /><circle cx="821.0" cy="1109.0" fill="#009" r="16" stroke="#009" stroke-width="5" /><circle cx="821.0" cy="1109.0" fill="#009" r="16" stroke="#009" stroke-width="5" /><circle cx="821.0" cy="1109.0" fill="#009" r="16" stroke="#009" stroke-width="5" /><circle cx="821.0" cy="1109.0" fill="#009" r="16" stroke="#009" stroke-width="5" /><circle cx="821.0" cy="1109.0" fill="#009" r="16" stroke="#009" stroke-width="5" /><circle cx="821.0" cy="1109.0" fill="#009" r="16" stroke="#009" stroke-width="5" /><circle cx="821.0" cy="1109.0" fill="#009" r="16" stroke="#009" stroke-width="5" /><circle cx="821.0" cy="1109.0" fill="#009" r="16" stroke="#009" stroke-width="5" /><circle cx="821.0" cy="1109.0" fill="#009" r="16" stroke="#009" stroke-width="5" /><circle cx="821.0" cy="1109.0" fill="#009" r="16" stroke="#009" stroke-width="5" /><circle cx="821.0" cy="1109.0" fill="#009" r="16" stroke="#009" stroke-width="5" /><circle cx="821.0" cy="1109.0" fill="#009" r="16" stroke="#009" stroke-width="5" /><circle cx="821.0" cy="1109.0" fill="#009" r="16" stroke="#009" stroke-width="5" /><circle cx="821.0" cy="1109.0" fill="#009" r="16" stroke="#009" stroke-width="5" /><circle cx="821.0" cy="1109.0" fill="#009" r="16" stroke="#009" stroke-width="5" /><circle cx="821.0" cy="1109.0" fill="#009" r="16" stroke="#009" stroke-width="5" /><circle cx="821.0" cy="1109.0" fill="#009" r="16" stroke="#009" stroke-width="5" /><circle cx="821.0" cy="1109.0" fill="#009" r="16" stroke="#009" stroke-width="5" /><circle cx="821.0" cy="1109.0" fill="#009" r="16" stroke="#009" stroke-width="5" /><circle cx="821.0" cy="1109.0" fill="#009" r="16" stroke="#009" stroke-width="5" /><circle cx="821.0" cy="1109.0" fill="#009" r="16" stroke="#009" stroke-width="5" /><circle cx="821.0" cy="1109.0" fill="#009" r="16" stroke="#009" stroke-width="5" /><circle cx="821.0" cy="1109.0" fill="#009" r="16" stroke="#009" stroke-width="5" /><circle cx="821.0" cy="1109.0" fill="#009" r="16" stroke="#009" stroke-width="5" /><circle cx="821.0" cy="1109.0" fill="#009" r="16" stroke="#009" stroke-width="5" /><circle cx="821.0" cy="1109.0" fill="#009" r="16" stroke="#009" stroke-width="5" /><circle cx="821.0" cy="1109.0" fill="#009" r="16" stroke="#009" stroke-width="5" /><circle cx="821.0" cy="1109.0" fill="#009" r="16" stroke="#009" stroke-width="5" /><rect fill="#009" height="24" stroke="#009" stroke-width="5" transform="rotate(0,613.0,1893.0)" width="24" x="601.0" y="1881.0" /><rect fill="#900" height="48" stroke="#900" stroke-width="5" transform="rotate(315,133.0,1861.0)" width="32" x="117.0" y="1837.0" /><circle cx="869.0" cy="1957.0" fill="#900" r="16" stroke="#900" stroke-width="5" /><rect fill="#900" height="48" stroke="#900" stroke-width="5" transform="rotate(0,133.0,1733.0)" width="32" x="117.0" y="1709.0" /><rect fill="#900" height="48" stroke="#900" stroke-width="5" transform="rotate(270,325.0,1861.0)" width="32" x="309.0" y="1837.0" /><rect fill="#900" height="48" stroke="#900" stroke-width="5" transform="rotate(0,357.0,645.0)" width="32" x="341.0" y="621.0" /><rect fill="#900" height="48" stroke="#900" stroke-width="5" transform="rotate(225,1445.0,805.0)" width="32" x="1429.0" y="781.0" /><rect fill="#900" height="48" stroke="#900" stroke-width="5" transform="rotate(270,517.0,1765.0)" width="32" x="501.0" y="1741.0" /><rect fill="#900" height="48" stroke="#900" stroke-width="5" transform="rotate(270,1381.0,1765.0)" width="32" x="1365.0" y="1741.0" /><rect fill="#900" height="48" stroke="#900" stroke-width="5" transform="rotate(90,1637.0,1413.0)" width="32" x="1621.0" y="1389.0" /><rect fill="#900" height="48" stroke="#900" stroke-width="5" transform="rotate(90,1765.0,1413.0)" width="32" x="1749.0" y="1389.0" /><rect fill="#900" height="48" stroke="#900" stroke-width="5" transform="rotate(0,1445.0,1605.0)" width="32" x="1429.0" y="1581.0" /><rect fill="#900" height="48" stroke="#900" stroke-width="5" transform="rotate(0,1349.0,1605.0)" width="32" x="1333.0" y="1581.0" /><circle cx="819.0" cy="1010.0" fill="#090" r="16" stroke="#090" stroke-width="5" /><circle cx="822.0" cy="1207.0" fill="#090" r="16" stroke="#090" stroke-width="5" /></svg>