<?xml version="1.0" encoding="utf-8" ?>
<svg baseProfile="tiny" height="1024" version="1.2" viewBox="0 0 1802 3322" width="555" xmlns="http://www.w3.org/2000/svg" xmlns:ev="http://www.w3.org/2001/xml-events" xmlns:xlink="http://www.w3.org/1999/xlink"><defs /><line stroke="#999" stroke-width="3" x1="581.0" x2="709.0" y1="1941.0" y2="1941.0" /><line stroke="#999" stroke-width="3" x1="709.0" x2="709.0" y1="1941.0" y2="1813.0" /><line stroke="#999" stroke-width="3" x1="709.0" x2="581.0" y1="1813.0" y2="1813.0" /><line stroke="#999" stroke-width="3" x1="581.0" x2="581.0" y1="1813.0" y2="1941.0" /><line stroke="#999" stroke-width="3" x1="1093.0" x2="1221.0" y1="1941.0" y2="1941.0" /><line stroke="#999" stroke-width="3" x1="1221.0" x2="1221.0" y1="1941.0" y2="1813.0" /><line stroke="#999" stroke-width="3" x1="1221.0" x2="1093.0" y1="1813.0" y2="1813.0" /><line stroke="#999" stroke-width="3" x1="1093.0" x2="1093.0" y1="1813.0" y2="1941.0" /><line stroke="#999" stroke-width="3" x1="1221.0" x2="1221.0" y1="1429.0" y2="1301.0" /><line stroke="#999" stroke-width="3" x1="1221.0" x2="1093.0" y1="1301.0" y2="1301.0" /><line stroke="#999" stroke-width="3" x1="1093.0" x2="1093.0" y1="1301.0" y2="1429.0" /><line stroke="#999" stroke-width="3" x1="1093.0" x2="1221.0" y1="1429.0" y2="1429.0" /><line stroke="#999" stroke-width="3" x1="709.0" x2="709.0" y1="1429.0" y2="1301.0" /><line stroke="#999" stroke-width="3" x1="709.0" x2="581.0" y1="1301.0" y2="1301.0" /><line stroke="#999" stroke-width="3" x1="581.0" x2="581.0" y1="1301.0" y2="1429.0" /><line stroke="#999" stroke-width="3" x1="581.0" x2="709.0" y1="1429.0" y2="1429.0" /><line stroke="#999" stroke-width="3" x1="581.0" x2="1221.0" y1="2325.0" y2="2325.0" /><line stroke="#999" stroke-width="3" x1="197.0" x2="581.0" y1="1941.0" y2="2325.0" /><line stroke="#333" stroke-width="10" x1="1605.0" x2="1605.0" y1="1941.0" y2="1301.0" /><line stroke="#333" stroke-width="10" x1="1605.0" x2="1221.0" y1="1301.0" y2="917.0" /><line stroke="#999" stroke-width="3" x1="1221.0" x2="1093.0" y1="917.0" y2="917.0" /><line stroke="#333" stroke-width="10" x1="581.0" x2="197.0" y1="917.0" y2="1301.0" /><line stroke="#333" stroke-width="10" x1="197.0" x2="197.0" y1="1301.0" y2="1941.0" /><line stroke="#999" stroke-width="3" x1="1221.0" x2="1605.0" y1="2325.0" y2="1941.0" /><line stroke="#999" stroke-width="3" x1="709.0" x2="901.0" y1="1813.0" y2="1717.0" /><line stroke="#999" stroke-width="3" x1="901.0" x2="1093.0" y1="1717.0" y2="1813.0" /><line stroke="#999" stroke-width="3" x1="1093.0" x2="997.0" y1="1813.0" y2="1621.0" /><line stroke="#999" stroke-width="3" x1="997.0" x2="1093.0" y1="1621.0" y2="1429.0" /><line stroke="#999" stroke-width="3" x1="1093.0" x2="901.0" y1="1429.0" y2="1525.0" /><line stroke="#999" stroke-width="3" x1="901.0" x2="709.0" y1="1525.0" y2="1429.0" /><line stroke="#999" stroke-width="3" x1="709.0" x2="805.0" y1="1429.0" y2="1621.0" /><line stroke="#999" stroke-width="3" x1="805.0" x2="709.0" y1="1621.0" y2="1813.0" /><line stroke="#00d" stroke-width="20" x1="837.0" x2="837.0" y1="3157.0" y2="3093.0" /><line stroke="#00d" stroke-width="20" x1="837.0" x2="837.0" y1="3221.0" y2="3157.0" /><line stroke="#00d" stroke-width="20" x1="901.0" x2="837.0" y1="3221.0" y2="3221.0" /><line stroke="#00d" stroke-width="20" x1="965.0" x2="901.0" y1="3221.0" y2="3221.0" /><line stroke="#00d" stroke-width="20" x1="965.0" x2="965.0" y1="3157.0" y2="3221.0" /><line stroke="#00d" stroke-width="20" x1="965.0" x2="965.0" y1="3093.0" y2="3157.0" /><line stroke="#00d" stroke-width="20" x1="901.0" x2="965.0" y1="3093.0" y2="3093.0" /><line stroke="#00d" stroke-width="20" x1="837.0" x2="901.0" y1="3093.0" y2="3093.0" /><line stroke="#999" stroke-width="3" x1="837.0" x2="901.0" y1="3157.0" y2="3157.0" /><line stroke="#999" stroke-width="3" x1="901.0" x2="901.0" y1="3221.0" y2="3157.0" /><line stroke="#999" stroke-width="3" x1="901.0" x2="901.0" y1="3157.0" y2="3093.0" /><line stroke="#999" stroke-width="3" x1="901.0" x2="965.0" y1="3157.0" y2="3157.0" /><line stroke="#999" stroke-width="3" x1="837.0" x2="901.0" y1="917.0" y2="981.0" /><line stroke="#999" stroke-width="3" x1="901.0" x2="965.0" y1="981.0" y2="917.0" /><line stroke="#999" stroke-width="3" x1="1093.0" x2="965.0" y1="917.0" y2="917.0" /><line stroke="#999" stroke-width="3" x1="1093.0" x2="901.0" y1="917.0" y2="789.0" /><line stroke="#999" stroke-width="3" x1="709.0" x2="581.0" y1="917.0" y2="917.0" /><line stroke="#999" stroke-width="3" x1="901.0" x2="709.0" y1="789.0" y2="917.0" /><line stroke="#999" stroke-width="3" x1="837.0" x2="709.0" y1="917.0" y2="917.0" /><line stroke="#999" stroke-width="3" x1="965.0" x2="837.0" y1="917.0" y2="917.0" /><line stroke="#999" stroke-width="3" x1="1221.0" x2="901.0" y1="917.0" y2="693.0" /><line stroke="#999" stroke-width="3" x1="901.0" x2="581.0" y1="693.0" y2="917.0" /><line stroke="#999" stroke-width="3" x1="1221.0" x2="901.0" y1="917.0" y2="597.0" /><line stroke="#999" stroke-width="3" x1="901.0" x2="581.0" y1="597.0" y2="917.0" /><line stroke="#333" stroke-width="10" x1="1221.0" x2="1029.0" y1="917.0" y2="469.0" /><line stroke="#333" stroke-width="10" x1="1029.0" x2="965.0" y1="469.0" y2="469.0" /><line stroke="#333" stroke-width="10" x1="773.0" x2="581.0" y1="469.0" y2="917.0" /><line stroke="#999" stroke-width="3" x1="197.0" x2="261.0" y1="1941.0" y2="2261.0" /><line stroke="#999" stroke-width="3" x1="261.0" x2="581.0" y1="2261.0" y2="2325.0" /><line stroke="#999" stroke-width="3" x1="1221.0" x2="1541.0" y1="2325.0" y2="2261.0" /><line stroke="#999" stroke-width="3" x1="1541.0" x2="1605.0" y1="2261.0" y2="1941.0" /><line stroke="#999" stroke-width="3" x1="741.0" x2="581.0" y1="2581.0" y2="2325.0" /><line stroke="#999" stroke-width="3" x1="1061.0" x2="741.0" y1="2581.0" y2="2581.0" /><line stroke="#999" stroke-width="3" x1="1221.0" x2="1061.0" y1="2325.0" y2="2581.0" /><line stroke="#333" stroke-width="10" x1="197.0" x2="5.0" y1="1941.0" y2="3061.0" /><line stroke="#333" stroke-width="10" x1="5.0" x2="901.0" y1="3061.0" y2="3317.0" /><line stroke="#333" stroke-width="10" x1="901.0" x2="1797.0" y1="3317.0" y2="3061.0" /><line stroke="#333" stroke-width="10" x1="1797.0" x2="1605.0" y1="3061.0" y2="1941.0" /><line stroke="#333" stroke-width="10" x1="965.0" x2="965.0" y1="469.0" y2="405.0" /><line stroke="#333" stroke-width="10" x1="965.0" x2="1029.0" y1="405.0" y2="405.0" /><line stroke="#333" stroke-width="10" x1="1029.0" x2="1029.0" y1="405.0" y2="341.0" /><line stroke="#333" stroke-width="10" x1="1029.0" x2="1029.0" y1="341.0" y2="277.0" /><line stroke="#333" stroke-width="10" x1="1029.0" x2="1029.0" y1="277.0" y2="213.0" /><line stroke="#333" stroke-width="10" x1="1029.0" x2="1029.0" y1="213.0" y2="149.0" /><line stroke="#333" stroke-width="10" x1="1029.0" x2="1029.0" y1="149.0" y2="85.0" /><line stroke="#333" stroke-width="10" x1="1029.0" x2="1029.0" y1="85.0" y2="21.0" /><line stroke="#333" stroke-width="10" x1="1029.0" x2="933.0" y1="21.0" y2="21.0" /><line stroke="#333" stroke-width="10" x1="773.0" x2="773.0" y1="21.0" y2="85.0" /><line stroke="#333" stroke-width="10" x1="773.0" x2="773.0" y1="85.0" y2="149.0" /><line stroke="#333" stroke-width="10" x1="773.0" x2="773.0" y1="149.0" y2="213.0" /><line stroke="#333" stroke-width="10" x1="773.0" x2="773.0" y1="213.0" y2="277.0" /><line stroke="#333" stroke-width="10" x1="773.0" x2="773.0" y1="277.0" y2="341.0" /><line stroke="#333" stroke-width="10" x1="773.0" x2="773.0" y1="341.0" y2="405.0" /><line stroke="#333" stroke-width="10" x1="773.0" x2="837.0" y1="405.0" y2="405.0" /><line stroke="#333" stroke-width="10" x1="837.0" x2="837.0" y1="405.0" y2="469.0" /><line stroke="#999" stroke-width="3" x1="965.0" x2="837.0" y1="469.0" y2="469.0" /><line stroke="#333" stroke-width="10" x1="837.0" x2="773.0" y1="469.0" y2="469.0" /><line stroke="#999" stroke-width="3" x1="837.0" x2="965.0" y1="405.0" y2="405.0" /><line stroke="#999" stroke-width="3" x1="773.0" x2="1029.0" y1="341.0" y2="341.0" /><line stroke="#999" stroke-width="3" x1="773.0" x2="1029.0" y1="277.0" y2="277.0" /><line stroke="#999" stroke-width="3" x1="773.0" x2="1029.0" y1="213.0" y2="213.0" /><line stroke="#999" stroke-width="3" x1="773.0" x2="1029.0" y1="149.0" y2="149.0" /><line stroke="#999" stroke-width="3" x1="773.0" x2="1029.0" y1="85.0" y2="85.0" /><line stroke="#333" stroke-width="10" x1="933.0" x2="933.0" y1="21.0" y2="5.0" /><line stroke="#333" stroke-width="10" x1="933.0" x2="869.0" y1="5.0" y2="5.0" /><line stroke="#333" stroke-width="10" x1="869.0" x2="869.0" y1="5.0" y2="21.0" /><line stroke="#999" stroke-width="3" x1="933.0" x2="869.0" y1="21.0" y2="21.0" /><line stroke="#333" stroke-width="10" x1="869.0" x2="773.0" y1="21.0" y2="21.0" /><circle cx="901.0" cy="245.0" fill="#900" r="16" stroke="#900" stroke-width="5" /><rect fill="#090" height="24" stroke="#090" stroke-width="5" transform="rotate(270,821.0,3237.0)" width="24" x="809.0" y="3225.0" /><rect fill="#090" height="24" stroke="#090" stroke-width="5" transform="rotate(270,981.0,3237.0)" width="24" x="969.0" y="3225.0" /><rect fill="#090" height="24" stroke="#090" stroke-width="5" transform="rotate(270,981.0,3077.0)" width="24" x="969.0" y="3065.0" /><rect fill="#090" height="24" stroke="#090" stroke-width="5" transform="rotate(270,821.0,3077.0)" width="24" x="809.0" y="3065.0" /><rect fill="#900" height="48" stroke="#900" stroke-width="5" transform="rotate(270,901.0,885.0)" width="32" x="885.0" y="861.0" /><rect fill="#090" height="24" stroke="#090" stroke-width="5" transform="rotate(90,805.0,501.0)" width="24" x="793.0" y="489.0" /><rect fill="#090" height="24" stroke="#090" stroke-width="5" transform="rotate(90,997.0,501.0)" width="24" x="985.0" y="489.0" /><rect fill="#900" height="48" stroke="#900" stroke-width="5" transform="rotate(270,901.0,885.0)" width="32" x="885.0" y="861.0" /><rect fill="#090" height="24" stroke="#090" stroke-width="5" transform="rotate(270,821.0,885.0)" width="24" x="809.0" y="873.0" /><rect fill="#090" height="24" stroke="#090" stroke-width="5" transform="rotate(270,981.0,885.0)" width="24" x="969.0" y="873.0" /><rect fill="#009" height="24" stroke="#009" stroke-width="5" transform="rotate(90,901.0,2437.0)" width="24" x="889.0" y="2425.0" /><rect fill="#090" height="24" stroke="#090" stroke-width="5" transform="rotate(90,853.0,37.0)" width="24" x="841.0" y="25.0" /><rect fill="#090" height="24" stroke="#090" stroke-width="5" transform="rotate(90,949.0,37.0)" width="24" x="937.0" y="25.0" /><rect fill="#090" height="24" stroke="#090" stroke-width="5" transform="rotate(90,805.0,373.0)" width="24" x="793.0" y="361.0" /><rect fill="#090" height="24" stroke="#090" stroke-width="5" transform="rotate(90,997.0,373.0)" width="24" x="985.0" y="361.0" /><rect fill="#900" height="48" stroke="#900" stroke-width="5" transform="rotate(270,645.0,1877.0)" width="32" x="629.0" y="1853.0" /><rect fill="#900" height="48" stroke="#900" stroke-width="5" transform="rotate(270,1157.0,1877.0)" width="32" x="1141.0" y="1853.0" /><rect fill="#900" height="48" stroke="#900" stroke-width="5" transform="rotate(270,645.0,1365.0)" width="32" x="629.0" y="1341.0" /><rect fill="#900" height="48" stroke="#900" stroke-width="5" transform="rotate(270,1157.0,1365.0)" width="32" x="1141.0" y="1341.0" /><rect fill="#900" height="48" stroke="#900" stroke-width="5" transform="rotate(315,645.0,1493.0)" width="32" x="629.0" y="1469.0" /><rect fill="#900" height="48" stroke="#900" stroke-width="5" transform="rotate(225,1157.0,1493.0)" width="32" x="1141.0" y="1469.0" /><rect fill="#900" height="48" stroke="#900" stroke-width="5" transform="rotate(315,645.0,2005.0)" width="32" x="629.0" y="1981.0" /><rect fill="#900" height="48" stroke="#900" stroke-width="5" transform="rotate(225,1157.0,2005.0)" width="32" x="1141.0" y="1981.0" /><rect fill="#090" height="24" stroke="#090" stroke-width="5" transform="rotate(315,261.0,1877.0)" width="24" x="249.0" y="1865.0" /><rect fill="#090" height="24" stroke="#090" stroke-width="5" transform="rotate(315,357.0,2005.0)" width="24" x="345.0" y="1993.0" /><rect fill="#090" height="24" stroke="#090" stroke-width="5" transform="rotate(315,437.0,2101.0)" width="24" x="425.0" y="2089.0" /><rect fill="#090" height="24" stroke="#090" stroke-width="5" transform="rotate(315,549.0,2197.0)" width="24" x="537.0" y="2185.0" /><rect fill="#090" height="24" stroke="#090" stroke-width="5" transform="rotate(225,1237.0,2229.0)" width="24" x="1225.0" y="2217.0" /><rect fill="#090" height="24" stroke="#090" stroke-width="5" transform="rotate(225,1301.0,2133.0)" width="24" x="1289.0" y="2121.0" /><rect fill="#090" height="24" stroke="#090" stroke-width="5" transform="rotate(225,1413.0,2037.0)" width="24" x="1401.0" y="2025.0" /><rect fill="#090" height="24" stroke="#090" stroke-width="5" transform="rotate(225,1509.0,1925.0)" width="24" x="1497.0" y="1913.0" /><rect fill="#090" height="24" stroke="#090" stroke-width="5" transform="rotate(270,789.0,2165.0)" width="24" x="777.0" y="2153.0" /><rect fill="#090" height="24" stroke="#090" stroke-width="5" transform="rotate(270,981.0,2165.0)" width="24" x="969.0" y="2153.0" /><rect fill="#090" height="24" stroke="#090" stroke-width="5" transform="rotate(270,901.0,2053.0)" width="24" x="889.0" y="2041.0" /><ellipse cx="901.0" cy="69.0" fill="#009" rx="12" ry="24" stroke="#009" stroke-width="5" /><ellipse cx="997.0" cy="117.0" fill="#009" rx="12" ry="24" stroke="#009" stroke-width="5" /><ellipse cx="805.0" cy="117.0" fill="#009" rx="12" ry="24" stroke="#009" stroke-width="5" /><ellipse cx="805.0" cy="181.0" fill="#009" rx="12" ry="24" stroke="#009" stroke-width="5" /><circle cx="901.0" cy="949.0" fill="#009" r="16" stroke="#009" stroke-width="5" /><circle cx="901.0" cy="949.0" fill="#009" r="16" stroke="#009" stroke-width="5" /><circle cx="773.0" cy="597.0" fill="#009" r="16" stroke="#009" stroke-width="5" /><circle cx="1029.0" cy="597.0" fill="#009" r="16" stroke="#009" stroke-width="5" /><circle cx="901.0" cy="1621.0" fill="#900" r="16" stroke="#900" stroke-width="5" /><circle cx="773.0" cy="1365.0" fill="#090" r="16" stroke="#090" stroke-width="5" /><rect fill="#900" height="48" stroke="#900" stroke-width="5" transform="rotate(270,1445.0,2837.0)" width="32" x="1429.0" y="2813.0" /><circle cx="901.0" cy="1365.0" fill="#090" r="16" stroke="#090" stroke-width="5" /><rect fill="#900" height="48" stroke="#900" stroke-width="5" transform="rotate(270,1653.0,2773.0)" width="32" x="1637.0" y="2749.0" /><circle cx="1029.0" cy="1365.0" fill="#090" r="16" stroke="#090" stroke-width="5" /><circle cx="773.0" cy="1877.0" fill="#090" r="16" stroke="#090" stroke-width="5" /><rect fill="#900" height="48" stroke="#900" stroke-width="5" transform="rotate(270,1349.0,2901.0)" width="32" x="1333.0" y="2877.0" /><circle cx="901.0" cy="1877.0" fill="#090" r="16" stroke="#090" stroke-width="5" /><rect fill="#900" height="48" stroke="#900" stroke-width="5" transform="rotate(270,1077.0,2885.0)" width="32" x="1061.0" y="2861.0" /><circle cx="1029.0" cy="1877.0" fill="#090" r="16" stroke="#090" stroke-width="5" /><circle cx="645.0" cy="1493.0" fill="#090" r="16" stroke="#090" stroke-width="5" /><rect fill="#900" height="48" stroke="#900" stroke-width="5" transform="rotate(270,1205.0,2821.0)" width="32" x="1189.0" y="2797.0" /><circle cx="645.0" cy="1621.0" fill="#090" r="16" stroke="#090" stroke-width="5" /><rect fill="#900" height="48" stroke="#900" stroke-width="5" transform="rotate(270,933.0,2821.0)" width="32" x="917.0" y="2797.0" /><circle cx="645.0" cy="1749.0" fill="#090" r="16" stroke="#090" stroke-width="5" /><circle cx="1157.0" cy="1749.0" fill="#090" r="16" stroke="#090" stroke-width="5" /><rect fill="#900" height="48" stroke="#900" stroke-width="5" transform="rotate(270,469.0,2805.0)" width="32" x="453.0" y="2781.0" /><circle cx="1157.0" cy="1621.0" fill="#090" r="16" stroke="#090" stroke-width="5" /><rect fill="#900" height="48" stroke="#900" stroke-width="5" transform="rotate(270,821.0,2725.0)" width="32" x="805.0" y="2701.0" /><circle cx="1157.0" cy="1493.0" fill="#090" r="16" stroke="#090" stroke-width="5" /><circle cx="725.0" cy="1797.0" fill="#009" r="16" stroke="#009" stroke-width="5" /><circle cx="1077.0" cy="1797.0" fill="#009" r="16" stroke="#009" stroke-width="5" /><circle cx="1077.0" cy="1445.0" fill="#009" r="16" stroke="#009" stroke-width="5" /><circle cx="725.0" cy="1445.0" fill="#009" r="16" stroke="#009" stroke-width="5" /><circle cx="597.0" cy="949.0" fill="#009" r="16" stroke="#009" stroke-width="5" /><circle cx="1205.0" cy="949.0" fill="#009" r="16" stroke="#009" stroke-width="5" /><circle cx="1573.0" cy="1301.0" fill="#009" r="16" stroke="#009" stroke-width="5" /><circle cx="229.0" cy="1301.0" fill="#009" r="16" stroke="#009" stroke-width="5" /><circle cx="245.0" cy="1941.0" fill="#009" r="16" stroke="#009" stroke-width="5" /><circle cx="1557.0" cy="1941.0" fill="#009" r="16" stroke="#009" stroke-width="5" /><circle cx="597.0" cy="2293.0" fill="#009" r="16" stroke="#009" stroke-width="5" /><circle cx="1205.0" cy="2293.0" fill="#009" r="16" stroke="#009" stroke-width="5" /><circle cx="261.0" cy="1621.0" fill="#900" r="16" stroke="#900" stroke-width="5" /><circle cx="261.0" cy="1685.0" fill="#090" r="16" stroke="#090" stroke-width="5" /><circle cx="261.0" cy="1557.0" fill="#090" r="16" stroke="#090" stroke-width="5" /><circle cx="1541.0" cy="1621.0" fill="#900" r="16" stroke="#900" stroke-width="5" /><circle cx="1541.0" cy="1685.0" fill="#090" r="16" stroke="#090" stroke-width="5" /><circle cx="1541.0" cy="1557.0" fill="#090" r="16" stroke="#090" stroke-width="5" /><circle cx="901.0" cy="437.0" fill="#009" r="16" stroke="#009" stroke-width="5" /><rect fill="#900" height="48" stroke="#900" stroke-width="5" transform="rotate(270,901.0,2517.0)" width="32" x="885.0" y="2493.0" /><rect fill="#900" height="48" stroke="#900" stroke-width="5" transform="rotate(90,901.0,2373.0)" width="32" x="885.0" y="2349.0" /><rect fill="#090" height="24" stroke="#090" stroke-width="5" transform="rotate(180,1493.0,1781.0)" width="24" x="1481.0" y="1769.0" /><rect fill="#900" height="48" stroke="#900" stroke-width="5" transform="rotate(0,837.0,2437.0)" width="32" x="821.0" y="2413.0" /><rect fill="#090" height="24" stroke="#090" stroke-width="5" transform="rotate(270,757.0,2277.0)" width="24" x="745.0" y="2265.0" /><rect fill="#900" height="48" stroke="#900" stroke-width="5" transform="rotate(180,965.0,2437.0)" width="32" x="949.0" y="2413.0" /><rect fill="#090" height="24" stroke="#090" stroke-width="5" transform="rotate(90,517.0,1093.0)" width="24" x="505.0" y="1081.0" /><rect fill="#090" height="24" stroke="#090" stroke-width="5" transform="rotate(90,901.0,133.0)" width="24" x="889.0" y="121.0" /><rect fill="#900" height="48" stroke="#900" stroke-width="5" transform="rotate(270,581.0,2917.0)" width="32" x="565.0" y="2893.0" /><rect fill="#900" height="48" stroke="#900" stroke-width="5" transform="rotate(270,933.0,2917.0)" width="32" x="917.0" y="2893.0" /><rect fill="#900" height="48" stroke="#900" stroke-width="5" transform="rotate(270,1541.0,2933.0)" width="32" x="1525.0" y="2909.0" /><rect fill="#900" height="48" stroke="#900" stroke-width="5" transform="rotate(270,309.0,2773.0)" width="32" x="293.0" y="2749.0" /><rect fill="#900" height="48" stroke="#900" stroke-width="5" transform="rotate(270,485.0,2693.0)" width="32" x="469.0" y="2669.0" /><rect fill="#900" height="48" stroke="#900" stroke-width="5" transform="rotate(270,725.0,2789.0)" width="32" x="709.0" y="2765.0" /><rect fill="#900" height="48" stroke="#900" stroke-width="5" transform="rotate(270,1093.0,2741.0)" width="32" x="1077.0" y="2717.0" /><rect fill="#900" height="48" stroke="#900" stroke-width="5" transform="rotate(270,149.0,2885.0)" width="32" x="133.0" y="2861.0" /><rect fill="#900" height="48" stroke="#900" stroke-width="5" transform="rotate(270,389.0,2869.0)" width="32" x="373.0" y="2845.0" /></svg>