<?xml version="1.0" encoding="utf-8" ?>
<svg baseProfile="tiny" height="16" version="1.2" viewBox="0 0 4618 74" width="1024" xmlns="http://www.w3.org/2000/svg" xmlns:ev="http://www.w3.org/2001/xml-events" xmlns:xlink="http://www.w3.org/1999/xlink"><defs /><line stroke="#333" stroke-width="10" x1="5.0" x2="69.0" y1="69.0" y2="69.0" /><line stroke="#999" stroke-width="3" x1="69.0" x2="69.0" y1="69.0" y2="5.0" /><line stroke="#333" stroke-width="10" x1="69.0" x2="5.0" y1="5.0" y2="5.0" /><line stroke="#333" stroke-width="10" x1="5.0" x2="5.0" y1="5.0" y2="69.0" /><line stroke="#333" stroke-width="10" x1="69.0" x2="133.0" y1="69.0" y2="69.0" /><line stroke="#999" stroke-width="3" x1="133.0" x2="133.0" y1="69.0" y2="5.0" /><line stroke="#333" stroke-width="10" x1="133.0" x2="69.0" y1="5.0" y2="5.0" /><line stroke="#333" stroke-width="10" x1="133.0" x2="197.0" y1="69.0" y2="69.0" /><line stroke="#999" stroke-width="3" x1="197.0" x2="197.0" y1="69.0" y2="5.0" /><line stroke="#333" stroke-width="10" x1="197.0" x2="133.0" y1="5.0" y2="5.0" /><line stroke="#333" stroke-width="10" x1="197.0" x2="261.0" y1="69.0" y2="69.0" /><line stroke="#999" stroke-width="3" x1="261.0" x2="261.0" y1="69.0" y2="5.0" /><line stroke="#333" stroke-width="10" x1="261.0" x2="197.0" y1="5.0" y2="5.0" /><line stroke="#333" stroke-width="10" x1="389.0" x2="453.0" y1="69.0" y2="69.0" /><line stroke="#333" stroke-width="10" x1="261.0" x2="325.0" y1="69.0" y2="69.0" /><line stroke="#999" stroke-width="3" x1="325.0" x2="325.0" y1="69.0" y2="5.0" /><line stroke="#333" stroke-width="10" x1="325.0" x2="261.0" y1="5.0" y2="5.0" /><line stroke="#333" stroke-width="10" x1="325.0" x2="389.0" y1="69.0" y2="69.0" /><line stroke="#999" stroke-width="3" x1="389.0" x2="389.0" y1="69.0" y2="5.0" /><line stroke="#333" stroke-width="10" x1="581.0" x2="517.0" y1="5.0" y2="5.0" /><line stroke="#333" stroke-width="10" x1="389.0" x2="325.0" y1="5.0" y2="5.0" /><line stroke="#999" stroke-width="3" x1="453.0" x2="453.0" y1="69.0" y2="5.0" /><line stroke="#333" stroke-width="10" x1="453.0" x2="389.0" y1="5.0" y2="5.0" /><line stroke="#333" stroke-width="10" x1="581.0" x2="645.0" y1="69.0" y2="69.0" /><line stroke="#333" stroke-width="10" x1="453.0" x2="517.0" y1="69.0" y2="69.0" /><line stroke="#999" stroke-width="3" x1="517.0" x2="517.0" y1="69.0" y2="5.0" /><line stroke="#333" stroke-width="10" x1="517.0" x2="453.0" y1="5.0" y2="5.0" /><line stroke="#333" stroke-width="10" x1="517.0" x2="581.0" y1="69.0" y2="69.0" /><line stroke="#999" stroke-width="3" x1="581.0" x2="581.0" y1="69.0" y2="5.0" /><line stroke="#999" stroke-width="3" x1="645.0" x2="645.0" y1="69.0" y2="5.0" /><line stroke="#333" stroke-width="10" x1="645.0" x2="581.0" y1="5.0" y2="5.0" /><line stroke="#333" stroke-width="10" x1="1093.0" x2="1157.0" y1="69.0" y2="69.0" /><line stroke="#333" stroke-width="10" x1="645.0" x2="709.0" y1="69.0" y2="69.0" /><line stroke="#999" stroke-width="3" x1="709.0" x2="709.0" y1="69.0" y2="5.0" /><line stroke="#333" stroke-width="10" x1="709.0" x2="645.0" y1="5.0" y2="5.0" /><line stroke="#333" stroke-width="10" x1="709.0" x2="773.0" y1="69.0" y2="69.0" /><line stroke="#999" stroke-width="3" x1="773.0" x2="773.0" y1="69.0" y2="5.0" /><line stroke="#333" stroke-width="10" x1="773.0" x2="709.0" y1="5.0" y2="5.0" /><line stroke="#333" stroke-width="10" x1="773.0" x2="837.0" y1="69.0" y2="69.0" /><line stroke="#999" stroke-width="3" x1="837.0" x2="837.0" y1="69.0" y2="5.0" /><line stroke="#333" stroke-width="10" x1="837.0" x2="773.0" y1="5.0" y2="5.0" /><line stroke="#333" stroke-width="10" x1="965.0" x2="1029.0" y1="69.0" y2="69.0" /><line stroke="#333" stroke-width="10" x1="837.0" x2="901.0" y1="69.0" y2="69.0" /><line stroke="#999" stroke-width="3" x1="901.0" x2="901.0" y1="69.0" y2="5.0" /><line stroke="#333" stroke-width="10" x1="901.0" x2="837.0" y1="5.0" y2="5.0" /><line stroke="#333" stroke-width="10" x1="901.0" x2="965.0" y1="69.0" y2="69.0" /><line stroke="#999" stroke-width="3" x1="965.0" x2="965.0" y1="69.0" y2="5.0" /><line stroke="#999" stroke-width="3" x1="1157.0" x2="1157.0" y1="69.0" y2="5.0" /><line stroke="#333" stroke-width="10" x1="965.0" x2="901.0" y1="5.0" y2="5.0" /><line stroke="#999" stroke-width="3" x1="1029.0" x2="1029.0" y1="69.0" y2="5.0" /><line stroke="#333" stroke-width="10" x1="1029.0" x2="965.0" y1="5.0" y2="5.0" /><line stroke="#333" stroke-width="10" x1="1157.0" x2="1093.0" y1="5.0" y2="5.0" /><line stroke="#333" stroke-width="10" x1="1029.0" x2="1093.0" y1="69.0" y2="69.0" /><line stroke="#999" stroke-width="3" x1="1093.0" x2="1093.0" y1="69.0" y2="5.0" /><line stroke="#333" stroke-width="10" x1="1093.0" x2="1029.0" y1="5.0" y2="5.0" /><line stroke="#333" stroke-width="10" x1="1157.0" x2="1221.0" y1="69.0" y2="69.0" /><line stroke="#999" stroke-width="3" x1="1221.0" x2="1221.0" y1="69.0" y2="5.0" /><line stroke="#333" stroke-width="10" x1="1221.0" x2="1157.0" y1="5.0" y2="5.0" /><line stroke="#333" stroke-width="10" x1="2245.0" x2="2181.0" y1="5.0" y2="5.0" /><line stroke="#333" stroke-width="10" x1="1221.0" x2="1285.0" y1="69.0" y2="69.0" /><line stroke="#999" stroke-width="3" x1="1285.0" x2="1285.0" y1="69.0" y2="5.0" /><line stroke="#333" stroke-width="10" x1="1285.0" x2="1221.0" y1="5.0" y2="5.0" /><line stroke="#333" stroke-width="10" x1="1285.0" x2="1349.0" y1="69.0" y2="69.0" /><line stroke="#999" stroke-width="3" x1="1349.0" x2="1349.0" y1="69.0" y2="5.0" /><line stroke="#333" stroke-width="10" x1="1349.0" x2="1285.0" y1="5.0" y2="5.0" /><line stroke="#333" stroke-width="10" x1="1349.0" x2="1413.0" y1="69.0" y2="69.0" /><line stroke="#999" stroke-width="3" x1="1413.0" x2="1413.0" y1="69.0" y2="5.0" /><line stroke="#333" stroke-width="10" x1="1413.0" x2="1349.0" y1="5.0" y2="5.0" /><line stroke="#333" stroke-width="10" x1="1541.0" x2="1605.0" y1="69.0" y2="69.0" /><line stroke="#333" stroke-width="10" x1="1413.0" x2="1477.0" y1="69.0" y2="69.0" /><line stroke="#999" stroke-width="3" x1="1477.0" x2="1477.0" y1="69.0" y2="5.0" /><line stroke="#333" stroke-width="10" x1="1477.0" x2="1413.0" y1="5.0" y2="5.0" /><line stroke="#333" stroke-width="10" x1="1477.0" x2="1541.0" y1="69.0" y2="69.0" /><line stroke="#999" stroke-width="3" x1="1541.0" x2="1541.0" y1="69.0" y2="5.0" /><line stroke="#333" stroke-width="10" x1="1733.0" x2="1669.0" y1="5.0" y2="5.0" /><line stroke="#333" stroke-width="10" x1="1541.0" x2="1477.0" y1="5.0" y2="5.0" /><line stroke="#999" stroke-width="3" x1="1605.0" x2="1605.0" y1="69.0" y2="5.0" /><line stroke="#333" stroke-width="10" x1="1605.0" x2="1541.0" y1="5.0" y2="5.0" /><line stroke="#333" stroke-width="10" x1="1733.0" x2="1797.0" y1="69.0" y2="69.0" /><line stroke="#333" stroke-width="10" x1="1605.0" x2="1669.0" y1="69.0" y2="69.0" /><line stroke="#999" stroke-width="3" x1="1669.0" x2="1669.0" y1="69.0" y2="5.0" /><line stroke="#333" stroke-width="10" x1="1669.0" x2="1605.0" y1="5.0" y2="5.0" /><line stroke="#333" stroke-width="10" x1="1669.0" x2="1733.0" y1="69.0" y2="69.0" /><line stroke="#999" stroke-width="3" x1="1733.0" x2="1733.0" y1="69.0" y2="5.0" /><line stroke="#999" stroke-width="3" x1="1797.0" x2="1797.0" y1="69.0" y2="5.0" /><line stroke="#333" stroke-width="10" x1="1797.0" x2="1733.0" y1="5.0" y2="5.0" /><line stroke="#333" stroke-width="10" x1="2245.0" x2="2309.0" y1="69.0" y2="69.0" /><line stroke="#333" stroke-width="10" x1="1797.0" x2="1861.0" y1="69.0" y2="69.0" /><line stroke="#999" stroke-width="3" x1="1861.0" x2="1861.0" y1="69.0" y2="5.0" /><line stroke="#333" stroke-width="10" x1="1861.0" x2="1797.0" y1="5.0" y2="5.0" /><line stroke="#333" stroke-width="10" x1="1861.0" x2="1925.0" y1="69.0" y2="69.0" /><line stroke="#999" stroke-width="3" x1="1925.0" x2="1925.0" y1="69.0" y2="5.0" /><line stroke="#333" stroke-width="10" x1="1925.0" x2="1861.0" y1="5.0" y2="5.0" /><line stroke="#333" stroke-width="10" x1="1925.0" x2="1989.0" y1="69.0" y2="69.0" /><line stroke="#999" stroke-width="3" x1="1989.0" x2="1989.0" y1="69.0" y2="5.0" /><line stroke="#333" stroke-width="10" x1="1989.0" x2="1925.0" y1="5.0" y2="5.0" /><line stroke="#333" stroke-width="10" x1="2117.0" x2="2181.0" y1="69.0" y2="69.0" /><line stroke="#333" stroke-width="10" x1="1989.0" x2="2053.0" y1="69.0" y2="69.0" /><line stroke="#999" stroke-width="3" x1="2053.0" x2="2053.0" y1="69.0" y2="5.0" /><line stroke="#333" stroke-width="10" x1="2053.0" x2="1989.0" y1="5.0" y2="5.0" /><line stroke="#333" stroke-width="10" x1="2053.0" x2="2117.0" y1="69.0" y2="69.0" /><line stroke="#999" stroke-width="3" x1="2117.0" x2="2117.0" y1="69.0" y2="5.0" /><line stroke="#999" stroke-width="3" x1="2309.0" x2="2309.0" y1="69.0" y2="5.0" /><line stroke="#333" stroke-width="10" x1="2117.0" x2="2053.0" y1="5.0" y2="5.0" /><line stroke="#999" stroke-width="3" x1="2181.0" x2="2181.0" y1="69.0" y2="5.0" /><line stroke="#333" stroke-width="10" x1="2181.0" x2="2117.0" y1="5.0" y2="5.0" /><line stroke="#333" stroke-width="10" x1="2309.0" x2="2245.0" y1="5.0" y2="5.0" /><line stroke="#333" stroke-width="10" x1="2181.0" x2="2245.0" y1="69.0" y2="69.0" /><line stroke="#999" stroke-width="3" x1="2245.0" x2="2245.0" y1="69.0" y2="5.0" /><line stroke="#333" stroke-width="10" x1="2309.0" x2="2373.0" y1="69.0" y2="69.0" /><line stroke="#999" stroke-width="3" x1="2373.0" x2="2373.0" y1="69.0" y2="5.0" /><line stroke="#333" stroke-width="10" x1="2373.0" x2="2309.0" y1="5.0" y2="5.0" /><line stroke="#0d0" stroke-width="20" x1="4549.0" x2="4549.0" y1="69.0" y2="5.0" /><line stroke="#333" stroke-width="10" x1="2373.0" x2="2437.0" y1="69.0" y2="69.0" /><line stroke="#999" stroke-width="3" x1="2437.0" x2="2437.0" y1="69.0" y2="5.0" /><line stroke="#333" stroke-width="10" x1="2437.0" x2="2373.0" y1="5.0" y2="5.0" /><line stroke="#333" stroke-width="10" x1="2437.0" x2="2501.0" y1="69.0" y2="69.0" /><line stroke="#999" stroke-width="3" x1="2501.0" x2="2501.0" y1="69.0" y2="5.0" /><line stroke="#333" stroke-width="10" x1="2501.0" x2="2437.0" y1="5.0" y2="5.0" /><line stroke="#333" stroke-width="10" x1="2501.0" x2="2565.0" y1="69.0" y2="69.0" /><line stroke="#999" stroke-width="3" x1="2565.0" x2="2565.0" y1="69.0" y2="5.0" /><line stroke="#333" stroke-width="10" x1="2565.0" x2="2501.0" y1="5.0" y2="5.0" /><line stroke="#333" stroke-width="10" x1="2693.0" x2="2757.0" y1="69.0" y2="69.0" /><line stroke="#333" stroke-width="10" x1="2565.0" x2="2629.0" y1="69.0" y2="69.0" /><line stroke="#999" stroke-width="3" x1="2629.0" x2="2629.0" y1="69.0" y2="5.0" /><line stroke="#333" stroke-width="10" x1="2629.0" x2="2565.0" y1="5.0" y2="5.0" /><line stroke="#333" stroke-width="10" x1="2629.0" x2="2693.0" y1="69.0" y2="69.0" /><line stroke="#999" stroke-width="3" x1="2693.0" x2="2693.0" y1="69.0" y2="5.0" /><line stroke="#333" stroke-width="10" x1="2885.0" x2="2821.0" y1="5.0" y2="5.0" /><line stroke="#333" stroke-width="10" x1="2693.0" x2="2629.0" y1="5.0" y2="5.0" /><line stroke="#999" stroke-width="3" x1="2757.0" x2="2757.0" y1="69.0" y2="5.0" /><line stroke="#333" stroke-width="10" x1="2757.0" x2="2693.0" y1="5.0" y2="5.0" /><line stroke="#333" stroke-width="10" x1="2885.0" x2="2949.0" y1="69.0" y2="69.0" /><line stroke="#333" stroke-width="10" x1="2757.0" x2="2821.0" y1="69.0" y2="69.0" /><line stroke="#999" stroke-width="3" x1="2821.0" x2="2821.0" y1="69.0" y2="5.0" /><line stroke="#333" stroke-width="10" x1="2821.0" x2="2757.0" y1="5.0" y2="5.0" /><line stroke="#333" stroke-width="10" x1="2821.0" x2="2885.0" y1="69.0" y2="69.0" /><line stroke="#999" stroke-width="3" x1="2885.0" x2="2885.0" y1="69.0" y2="5.0" /><line stroke="#999" stroke-width="3" x1="2949.0" x2="2949.0" y1="69.0" y2="5.0" /><line stroke="#333" stroke-width="10" x1="2949.0" x2="2885.0" y1="5.0" y2="5.0" /><line stroke="#333" stroke-width="10" x1="3397.0" x2="3461.0" y1="69.0" y2="69.0" /><line stroke="#333" stroke-width="10" x1="2949.0" x2="3013.0" y1="69.0" y2="69.0" /><line stroke="#999" stroke-width="3" x1="3013.0" x2="3013.0" y1="69.0" y2="5.0" /><line stroke="#333" stroke-width="10" x1="3013.0" x2="2949.0" y1="5.0" y2="5.0" /><line stroke="#333" stroke-width="10" x1="3013.0" x2="3077.0" y1="69.0" y2="69.0" /><line stroke="#999" stroke-width="3" x1="3077.0" x2="3077.0" y1="69.0" y2="5.0" /><line stroke="#333" stroke-width="10" x1="3077.0" x2="3013.0" y1="5.0" y2="5.0" /><line stroke="#333" stroke-width="10" x1="3077.0" x2="3141.0" y1="69.0" y2="69.0" /><line stroke="#999" stroke-width="3" x1="3141.0" x2="3141.0" y1="69.0" y2="5.0" /><line stroke="#333" stroke-width="10" x1="3141.0" x2="3077.0" y1="5.0" y2="5.0" /><line stroke="#333" stroke-width="10" x1="3269.0" x2="3333.0" y1="69.0" y2="69.0" /><line stroke="#333" stroke-width="10" x1="3141.0" x2="3205.0" y1="69.0" y2="69.0" /><line stroke="#999" stroke-width="3" x1="3205.0" x2="3205.0" y1="69.0" y2="5.0" /><line stroke="#333" stroke-width="10" x1="3205.0" x2="3141.0" y1="5.0" y2="5.0" /><line stroke="#333" stroke-width="10" x1="3205.0" x2="3269.0" y1="69.0" y2="69.0" /><line stroke="#999" stroke-width="3" x1="3269.0" x2="3269.0" y1="69.0" y2="5.0" /><line stroke="#999" stroke-width="3" x1="3461.0" x2="3461.0" y1="69.0" y2="5.0" /><line stroke="#333" stroke-width="10" x1="3269.0" x2="3205.0" y1="5.0" y2="5.0" /><line stroke="#999" stroke-width="3" x1="3333.0" x2="3333.0" y1="69.0" y2="5.0" /><line stroke="#333" stroke-width="10" x1="3333.0" x2="3269.0" y1="5.0" y2="5.0" /><line stroke="#333" stroke-width="10" x1="3461.0" x2="3397.0" y1="5.0" y2="5.0" /><line stroke="#333" stroke-width="10" x1="3333.0" x2="3397.0" y1="69.0" y2="69.0" /><line stroke="#999" stroke-width="3" x1="3397.0" x2="3397.0" y1="69.0" y2="5.0" /><line stroke="#333" stroke-width="10" x1="3397.0" x2="3333.0" y1="5.0" y2="5.0" /><line stroke="#333" stroke-width="10" x1="3461.0" x2="3525.0" y1="69.0" y2="69.0" /><line stroke="#999" stroke-width="3" x1="3525.0" x2="3525.0" y1="69.0" y2="5.0" /><line stroke="#333" stroke-width="10" x1="3525.0" x2="3461.0" y1="5.0" y2="5.0" /><line stroke="#333" stroke-width="10" x1="4549.0" x2="4485.0" y1="5.0" y2="5.0" /><line stroke="#333" stroke-width="10" x1="3525.0" x2="3589.0" y1="69.0" y2="69.0" /><line stroke="#999" stroke-width="3" x1="3589.0" x2="3589.0" y1="69.0" y2="5.0" /><line stroke="#333" stroke-width="10" x1="3589.0" x2="3525.0" y1="5.0" y2="5.0" /><line stroke="#333" stroke-width="10" x1="3589.0" x2="3653.0" y1="69.0" y2="69.0" /><line stroke="#999" stroke-width="3" x1="3653.0" x2="3653.0" y1="69.0" y2="5.0" /><line stroke="#333" stroke-width="10" x1="3653.0" x2="3589.0" y1="5.0" y2="5.0" /><line stroke="#333" stroke-width="10" x1="3653.0" x2="3717.0" y1="69.0" y2="69.0" /><line stroke="#999" stroke-width="3" x1="3717.0" x2="3717.0" y1="69.0" y2="5.0" /><line stroke="#333" stroke-width="10" x1="3717.0" x2="3653.0" y1="5.0" y2="5.0" /><line stroke="#333" stroke-width="10" x1="3845.0" x2="3909.0" y1="69.0" y2="69.0" /><line stroke="#333" stroke-width="10" x1="3717.0" x2="3781.0" y1="69.0" y2="69.0" /><line stroke="#999" stroke-width="3" x1="3781.0" x2="3781.0" y1="69.0" y2="5.0" /><line stroke="#333" stroke-width="10" x1="3781.0" x2="3717.0" y1="5.0" y2="5.0" /><line stroke="#333" stroke-width="10" x1="3781.0" x2="3845.0" y1="69.0" y2="69.0" /><line stroke="#999" stroke-width="3" x1="3845.0" x2="3845.0" y1="69.0" y2="5.0" /><line stroke="#333" stroke-width="10" x1="4037.0" x2="3973.0" y1="5.0" y2="5.0" /><line stroke="#333" stroke-width="10" x1="3845.0" x2="3781.0" y1="5.0" y2="5.0" /><line stroke="#999" stroke-width="3" x1="3909.0" x2="3909.0" y1="69.0" y2="5.0" /><line stroke="#333" stroke-width="10" x1="3909.0" x2="3845.0" y1="5.0" y2="5.0" /><line stroke="#333" stroke-width="10" x1="4037.0" x2="4101.0" y1="69.0" y2="69.0" /><line stroke="#333" stroke-width="10" x1="3909.0" x2="3973.0" y1="69.0" y2="69.0" /><line stroke="#999" stroke-width="3" x1="3973.0" x2="3973.0" y1="69.0" y2="5.0" /><line stroke="#333" stroke-width="10" x1="3973.0" x2="3909.0" y1="5.0" y2="5.0" /><line stroke="#333" stroke-width="10" x1="3973.0" x2="4037.0" y1="69.0" y2="69.0" /><line stroke="#999" stroke-width="3" x1="4037.0" x2="4037.0" y1="69.0" y2="5.0" /><line stroke="#999" stroke-width="3" x1="4101.0" x2="4101.0" y1="69.0" y2="5.0" /><line stroke="#333" stroke-width="10" x1="4101.0" x2="4037.0" y1="5.0" y2="5.0" /><line stroke="#333" stroke-width="10" x1="4549.0" x2="4613.0" y1="69.0" y2="69.0" /><line stroke="#333" stroke-width="10" x1="4101.0" x2="4165.0" y1="69.0" y2="69.0" /><line stroke="#999" stroke-width="3" x1="4165.0" x2="4165.0" y1="69.0" y2="5.0" /><line stroke="#333" stroke-width="10" x1="4165.0" x2="4101.0" y1="5.0" y2="5.0" /><line stroke="#333" stroke-width="10" x1="4165.0" x2="4229.0" y1="69.0" y2="69.0" /><line stroke="#999" stroke-width="3" x1="4229.0" x2="4229.0" y1="69.0" y2="5.0" /><line stroke="#333" stroke-width="10" x1="4229.0" x2="4165.0" y1="5.0" y2="5.0" /><line stroke="#333" stroke-width="10" x1="4229.0" x2="4293.0" y1="69.0" y2="69.0" /><line stroke="#999" stroke-width="3" x1="4293.0" x2="4293.0" y1="69.0" y2="5.0" /><line stroke="#333" stroke-width="10" x1="4293.0" x2="4229.0" y1="5.0" y2="5.0" /><line stroke="#333" stroke-width="10" x1="4421.0" x2="4485.0" y1="69.0" y2="69.0" /><line stroke="#333" stroke-width="10" x1="4293.0" x2="4357.0" y1="69.0" y2="69.0" /><line stroke="#999" stroke-width="3" x1="4357.0" x2="4357.0" y1="69.0" y2="5.0" /><line stroke="#333" stroke-width="10" x1="4357.0" x2="4293.0" y1="5.0" y2="5.0" /><line stroke="#333" stroke-width="10" x1="4357.0" x2="4421.0" y1="69.0" y2="69.0" /><line stroke="#999" stroke-width="3" x1="4421.0" x2="4421.0" y1="69.0" y2="5.0" /><line stroke="#333" stroke-width="10" x1="4613.0" x2="4613.0" y1="69.0" y2="5.0" /><line stroke="#333" stroke-width="10" x1="4421.0" x2="4357.0" y1="5.0" y2="5.0" /><line stroke="#999" stroke-width="3" x1="4485.0" x2="4485.0" y1="69.0" y2="5.0" /><line stroke="#333" stroke-width="10" x1="4485.0" x2="4421.0" y1="5.0" y2="5.0" /><line stroke="#333" stroke-width="10" x1="4613.0" x2="4549.0" y1="5.0" y2="5.0" /><line stroke="#333" stroke-width="10" x1="4485.0" x2="4549.0" y1="69.0" y2="69.0" /><ellipse cx="37.0" cy="37.0" fill="#009" rx="12" ry="24" stroke="#009" stroke-width="5" /></svg>