<?xml version="1.0" encoding="utf-8" ?>
<svg baseProfile="tiny" height="656" version="1.2" viewBox="0 0 714 458" width="1024" xmlns="http://www.w3.org/2000/svg" xmlns:ev="http://www.w3.org/2001/xml-events" xmlns:xlink="http://www.w3.org/1999/xlink"><defs /><line stroke="#333" stroke-width="10" x1="5.0" x2="5.0" y1="165.0" y2="453.0" /><line stroke="#333" stroke-width="10" x1="69.0" x2="5.0" y1="165.0" y2="165.0" /><line stroke="#666" stroke-width="20" x1="69.0" x2="69.0" y1="453.0" y2="389.0" /><line stroke="#333" stroke-width="10" x1="5.0" x2="69.0" y1="453.0" y2="453.0" /><line stroke="#999" stroke-width="3" x1="133.0" x2="133.0" y1="453.0" y2="389.0" /><line stroke="#333" stroke-width="10" x1="69.0" x2="69.0" y1="389.0" y2="165.0" /><line stroke="#333" stroke-width="10" x1="133.0" x2="69.0" y1="389.0" y2="389.0" /><line stroke="#333" stroke-width="10" x1="69.0" x2="133.0" y1="453.0" y2="453.0" /><line stroke="#333" stroke-width="10" x1="133.0" x2="581.0" y1="453.0" y2="453.0" /><line stroke="#333" stroke-width="10" x1="645.0" x2="709.0" y1="325.0" y2="325.0" /><line stroke="#333" stroke-width="10" x1="133.0" x2="133.0" y1="5.0" y2="389.0" /><line stroke="#333" stroke-width="10" x1="581.0" x2="133.0" y1="5.0" y2="5.0" /><line stroke="#999" stroke-width="3" x1="261.0" x2="309.0" y1="293.0" y2="261.0" /><line stroke="#999" stroke-width="3" x1="309.0" x2="293.0" y1="261.0" y2="197.0" /><line stroke="#999" stroke-width="3" x1="293.0" x2="229.0" y1="197.0" y2="149.0" /><line stroke="#999" stroke-width="3" x1="229.0" x2="245.0" y1="149.0" y2="101.0" /><line stroke="#999" stroke-width="3" x1="245.0" x2="293.0" y1="101.0" y2="69.0" /><line stroke="#999" stroke-width="3" x1="293.0" x2="357.0" y1="69.0" y2="69.0" /><line stroke="#999" stroke-width="3" x1="357.0" x2="389.0" y1="69.0" y2="85.0" /><line stroke="#999" stroke-width="3" x1="389.0" x2="421.0" y1="85.0" y2="117.0" /><line stroke="#999" stroke-width="3" x1="421.0" x2="437.0" y1="117.0" y2="181.0" /><line stroke="#999" stroke-width="3" x1="437.0" x2="421.0" y1="181.0" y2="261.0" /><line stroke="#999" stroke-width="3" x1="421.0" x2="437.0" y1="261.0" y2="325.0" /><line stroke="#999" stroke-width="3" x1="437.0" x2="421.0" y1="325.0" y2="373.0" /><line stroke="#999" stroke-width="3" x1="421.0" x2="389.0" y1="373.0" y2="389.0" /><line stroke="#999" stroke-width="3" x1="389.0" x2="341.0" y1="389.0" y2="389.0" /><line stroke="#999" stroke-width="3" x1="341.0" x2="293.0" y1="389.0" y2="373.0" /><line stroke="#999" stroke-width="3" x1="293.0" x2="261.0" y1="373.0" y2="341.0" /><line stroke="#999" stroke-width="3" x1="261.0" x2="261.0" y1="341.0" y2="293.0" /><line stroke="#0d0" stroke-width="20" x1="645.0" x2="645.0" y1="325.0" y2="261.0" /><line stroke="#333" stroke-width="10" x1="581.0" x2="645.0" y1="325.0" y2="325.0" /><line stroke="#333" stroke-width="10" x1="709.0" x2="645.0" y1="261.0" y2="261.0" /><line stroke="#333" stroke-width="10" x1="581.0" x2="581.0" y1="261.0" y2="5.0" /><line stroke="#333" stroke-width="10" x1="645.0" x2="581.0" y1="261.0" y2="261.0" /><line stroke="#333" stroke-width="10" x1="581.0" x2="581.0" y1="453.0" y2="325.0" /><line stroke="#333" stroke-width="10" x1="709.0" x2="709.0" y1="325.0" y2="261.0" /><line stroke="#999" stroke-width="3" x1="581.0" x2="581.0" y1="325.0" y2="261.0" /><ellipse cx="37.0" cy="421.0" fill="#009" rx="12" ry="24" stroke="#009" stroke-width="5" /><rect fill="#900" height="48" stroke="#900" stroke-width="5" transform="rotate(90,37.0,189.0)" width="32" x="21.0" y="165.0" /><rect fill="#900" height="48" stroke="#900" stroke-width="5" transform="rotate(270,37.0,257.0)" width="32" x="21.0" y="233.0" /><ellipse cx="37.0" cy="223.0" fill="#900" rx="12" ry="24" stroke="#900" stroke-width="5" /><rect fill="#090" height="24" stroke="#090" stroke-width="5" transform="rotate(270,517.0,53.0)" width="24" x="505.0" y="41.0" /><rect fill="#090" height="24" stroke="#090" stroke-width="5" transform="rotate(270,181.0,53.0)" width="24" x="169.0" y="41.0" /><rect fill="#090" height="24" stroke="#090" stroke-width="5" transform="rotate(270,549.0,357.0)" width="24" x="537.0" y="345.0" /><rect fill="#090" height="24" stroke="#090" stroke-width="5" transform="rotate(270,549.0,229.0)" width="24" x="537.0" y="217.0" /><circle cx="357.0" cy="213.0" fill="#900" r="16" stroke="#900" stroke-width="5" /><ellipse cx="37.0" cy="223.0" fill="#900" rx="12" ry="24" stroke="#900" stroke-width="5" /><ellipse cx="37.0" cy="223.0" fill="#900" rx="12" ry="24" stroke="#900" stroke-width="5" /><ellipse cx="37.0" cy="223.0" fill="#900" rx="12" ry="24" stroke="#900" stroke-width="5" /><ellipse cx="37.0" cy="223.0" fill="#900" rx="12" ry="24" stroke="#900" stroke-width="5" /><ellipse cx="37.0" cy="223.0" fill="#900" rx="12" ry="24" stroke="#900" stroke-width="5" /><ellipse cx="37.0" cy="223.0" fill="#900" rx="12" ry="24" stroke="#900" stroke-width="5" /><ellipse cx="37.0" cy="223.0" fill="#900" rx="12" ry="24" stroke="#900" stroke-width="5" /><ellipse cx="37.0" cy="223.0" fill="#900" rx="12" ry="24" stroke="#900" stroke-width="5" /></svg>