<?xml version="1.0" encoding="utf-8" ?>
<svg baseProfile="tiny" height="1003" version="1.2" viewBox="0 0 3475 3405" width="1024" xmlns="http://www.w3.org/2000/svg" xmlns:ev="http://www.w3.org/2001/xml-events" xmlns:xlink="http://www.w3.org/1999/xlink"><defs /><line stroke="#999" stroke-width="3" x1="875.0" x2="1133.0" y1="652.0" y2="653.0" /><line stroke="#333" stroke-width="10" x1="1133.0" x2="1133.0" y1="653.0" y2="205.0" /><line stroke="#333" stroke-width="10" x1="1133.0" x2="877.0" y1="205.0" y2="205.0" /><line stroke="#333" stroke-width="10" x1="877.0" x2="875.0" y1="205.0" y2="652.0" /><line stroke="#333" stroke-width="10" x1="875.0" x2="5.0" y1="652.0" y2="5.0" /><line stroke="#333" stroke-width="10" x1="5.0" x2="5.0" y1="5.0" y2="1917.0" /><line stroke="#333" stroke-width="10" x1="5.0" x2="885.0" y1="1917.0" y2="1277.0" /><line stroke="#333" stroke-width="10" x1="885.0" x2="979.0" y1="1277.0" y2="1277.0" /><line stroke="#333" stroke-width="10" x1="1141.0" x2="2029.0" y1="1277.0" y2="1917.0" /><line stroke="#333" stroke-width="10" x1="2029.0" x2="2029.0" y1="1917.0" y2="45.0" /><line stroke="#333" stroke-width="10" x1="2029.0" x2="1133.0" y1="45.0" y2="653.0" /><line stroke="#999" stroke-width="3" x1="885.0" x2="1141.0" y1="1125.0" y2="1125.0" /><line stroke="#999" stroke-width="3" x1="125.0" x2="260.0" y1="1621.0" y2="1530.0" /><line stroke="#999" stroke-width="3" x1="1141.0" x2="1869.0" y1="1125.0" y2="1589.0" /><line stroke="#999" stroke-width="3" x1="1869.0" x2="1869.0" y1="1589.0" y2="349.0" /><line stroke="#999" stroke-width="3" x1="1869.0" x2="1141.0" y1="349.0" y2="821.0" /><line stroke="#999" stroke-width="3" x1="1141.0" x2="885.0" y1="821.0" y2="821.0" /><line stroke="#999" stroke-width="3" x1="885.0" x2="261.0" y1="821.0" y2="397.0" /><line stroke="#999" stroke-width="3" x1="125.0" x2="125.0" y1="309.0" y2="981.0" /><line stroke="#666" stroke-width="20" x1="979.0" x2="1043.0" y1="1277.0" y2="1277.0" /><line stroke="#333" stroke-width="10" x1="1043.0" x2="1141.0" y1="1277.0" y2="1277.0" /><line stroke="#333" stroke-width="10" x1="979.0" x2="979.0" y1="1277.0" y2="1301.0" /><line stroke="#333" stroke-width="10" x1="1043.0" x2="1043.0" y1="1301.0" y2="1277.0" /><line stroke="#666" stroke-width="20" x1="1043.0" x2="979.0" y1="1301.0" y2="1301.0" /><line stroke="#333" stroke-width="10" x1="957.0" x2="1029.0" y1="1629.0" y2="1621.0" /><line stroke="#333" stroke-width="10" x1="979.0" x2="965.0" y1="1301.0" y2="1445.0" /><line stroke="#333" stroke-width="10" x1="1798.0" x2="1734.0" y1="2010.0" y2="1946.0" /><line stroke="#333" stroke-width="10" x1="1576.0" x2="1510.0" y1="1844.0" y2="1820.0" /><line stroke="#333" stroke-width="10" x1="1510.0" x2="1438.0" y1="1820.0" y2="1778.0" /><line stroke="#333" stroke-width="10" x1="1438.0" x2="1366.0" y1="1778.0" y2="1738.0" /><line stroke="#333" stroke-width="10" x1="1366.0" x2="1309.0" y1="1738.0" y2="1693.0" /><line stroke="#333" stroke-width="10" x1="1309.0" x2="1245.0" y1="1693.0" y2="1629.0" /><line stroke="#333" stroke-width="10" x1="1245.0" x2="1181.0" y1="1629.0" y2="1557.0" /><line stroke="#333" stroke-width="10" x1="1181.0" x2="1122.0" y1="1557.0" y2="1493.0" /><line stroke="#333" stroke-width="10" x1="1122.0" x2="1056.0" y1="1493.0" y2="1445.0" /><line stroke="#333" stroke-width="10" x1="1056.0" x2="1043.0" y1="1445.0" y2="1301.0" /><line stroke="#333" stroke-width="10" x1="965.0" x2="877.0" y1="1445.0" y2="1485.0" /><line stroke="#333" stroke-width="10" x1="877.0" x2="813.0" y1="1485.0" y2="1533.0" /><line stroke="#333" stroke-width="10" x1="813.0" x2="725.0" y1="1533.0" y2="1613.0" /><line stroke="#333" stroke-width="10" x1="725.0" x2="678.0" y1="1613.0" y2="1662.0" /><line stroke="#333" stroke-width="10" x1="645.0" x2="606.0" y1="1701.0" y2="1730.0" /><line stroke="#333" stroke-width="10" x1="486.0" x2="422.0" y1="1842.0" y2="1882.0" /><line stroke="#333" stroke-width="10" x1="422.0" x2="334.0" y1="1882.0" y2="1938.0" /><line stroke="#333" stroke-width="10" x1="285.0" x2="350.0" y1="2149.0" y2="2114.0" /><line stroke="#333" stroke-width="10" x1="350.0" x2="414.0" y1="2114.0" y2="2082.0" /><line stroke="#333" stroke-width="10" x1="414.0" x2="470.0" y1="2082.0" y2="2058.0" /><line stroke="#333" stroke-width="10" x1="470.0" x2="542.0" y1="2058.0" y2="2026.0" /><line stroke="#333" stroke-width="10" x1="542.0" x2="590.0" y1="2026.0" y2="1986.0" /><line stroke="#333" stroke-width="10" x1="590.0" x2="652.0" y1="1986.0" y2="1956.0" /><line stroke="#333" stroke-width="10" x1="652.0" x2="684.0" y1="1956.0" y2="1920.0" /><line stroke="#333" stroke-width="10" x1="684.0" x2="726.0" y1="1920.0" y2="1884.0" /><line stroke="#333" stroke-width="10" x1="726.0" x2="756.0" y1="1884.0" y2="1848.0" /><line stroke="#333" stroke-width="10" x1="756.0" x2="792.0" y1="1848.0" y2="1812.0" /><line stroke="#333" stroke-width="10" x1="792.0" x2="829.0" y1="1812.0" y2="1773.0" /><line stroke="#333" stroke-width="10" x1="829.0" x2="868.0" y1="1773.0" y2="1732.0" /><line stroke="#333" stroke-width="10" x1="868.0" x2="918.0" y1="1732.0" y2="1682.0" /><line stroke="#333" stroke-width="10" x1="918.0" x2="957.0" y1="1682.0" y2="1629.0" /><line stroke="#333" stroke-width="10" x1="1029.0" x2="1077.0" y1="1621.0" y2="1661.0" /><line stroke="#333" stroke-width="10" x1="1077.0" x2="1109.0" y1="1661.0" y2="1709.0" /><line stroke="#333" stroke-width="10" x1="1109.0" x2="1165.0" y1="1709.0" y2="1765.0" /><line stroke="#333" stroke-width="10" x1="1165.0" x2="1213.0" y1="1765.0" y2="1821.0" /><line stroke="#333" stroke-width="10" x1="1213.0" x2="1254.0" y1="1821.0" y2="1858.0" /><line stroke="#333" stroke-width="10" x1="1254.0" x2="1310.0" y1="1858.0" y2="1890.0" /><line stroke="#333" stroke-width="10" x1="1310.0" x2="1382.0" y1="1890.0" y2="1930.0" /><line stroke="#333" stroke-width="10" x1="1382.0" x2="1438.0" y1="1930.0" y2="1970.0" /><line stroke="#333" stroke-width="10" x1="1438.0" x2="1502.0" y1="1970.0" y2="2010.0" /><line stroke="#333" stroke-width="10" x1="1502.0" x2="1566.0" y1="2010.0" y2="2034.0" /><line stroke="#333" stroke-width="10" x1="1566.0" x2="1645.0" y1="2034.0" y2="2085.0" /><line stroke="#333" stroke-width="10" x1="1645.0" x2="1709.0" y1="2085.0" y2="2125.0" /><line stroke="#999" stroke-width="3" x1="1709.0" x2="1798.0" y1="2125.0" y2="2010.0" /><line stroke="#0d0" stroke-width="20" x1="69.0" x2="285.0" y1="2151.0" y2="2149.0" /><line stroke="#999" stroke-width="3" x1="965.0" x2="1056.0" y1="1445.0" y2="1445.0" /><line stroke="#999" stroke-width="3" x1="965.0" x2="957.0" y1="1445.0" y2="1629.0" /><line stroke="#999" stroke-width="3" x1="1029.0" x2="1056.0" y1="1621.0" y2="1445.0" /><line stroke="#999" stroke-width="3" x1="1077.0" x2="1122.0" y1="1661.0" y2="1493.0" /><line stroke="#999" stroke-width="3" x1="1109.0" x2="1181.0" y1="1709.0" y2="1557.0" /><line stroke="#999" stroke-width="3" x1="1165.0" x2="1245.0" y1="1765.0" y2="1629.0" /><line stroke="#999" stroke-width="3" x1="1213.0" x2="1309.0" y1="1821.0" y2="1693.0" /><line stroke="#999" stroke-width="3" x1="1254.0" x2="1366.0" y1="1858.0" y2="1738.0" /><line stroke="#999" stroke-width="3" x1="1310.0" x2="1438.0" y1="1890.0" y2="1778.0" /><line stroke="#999" stroke-width="3" x1="1382.0" x2="1510.0" y1="1930.0" y2="1820.0" /><line stroke="#999" stroke-width="3" x1="1438.0" x2="1576.0" y1="1970.0" y2="1844.0" /><line stroke="#333" stroke-width="10" x1="1621.0" x2="1576.0" y1="1869.0" y2="1844.0" /><line stroke="#333" stroke-width="10" x1="1670.0" x2="1621.0" y1="1898.0" y2="1869.0" /><line stroke="#333" stroke-width="10" x1="1734.0" x2="1670.0" y1="1946.0" y2="1898.0" /><line stroke="#999" stroke-width="3" x1="1502.0" x2="1621.0" y1="2010.0" y2="1869.0" /><line stroke="#999" stroke-width="3" x1="1566.0" x2="1670.0" y1="2034.0" y2="1898.0" /><line stroke="#999" stroke-width="3" x1="1645.0" x2="1734.0" y1="2085.0" y2="1946.0" /><line stroke="#999" stroke-width="3" x1="877.0" x2="918.0" y1="1485.0" y2="1682.0" /><line stroke="#999" stroke-width="3" x1="813.0" x2="868.0" y1="1533.0" y2="1732.0" /><line stroke="#999" stroke-width="3" x1="725.0" x2="829.0" y1="1613.0" y2="1773.0" /><line stroke="#333" stroke-width="10" x1="678.0" x2="645.0" y1="1662.0" y2="1701.0" /><line stroke="#333" stroke-width="10" x1="606.0" x2="566.0" y1="1730.0" y2="1762.0" /><line stroke="#999" stroke-width="3" x1="678.0" x2="792.0" y1="1662.0" y2="1812.0" /><line stroke="#999" stroke-width="3" x1="645.0" x2="756.0" y1="1701.0" y2="1848.0" /><line stroke="#999" stroke-width="3" x1="606.0" x2="726.0" y1="1730.0" y2="1884.0" /><line stroke="#999" stroke-width="3" x1="566.0" x2="684.0" y1="1762.0" y2="1920.0" /><line stroke="#333" stroke-width="10" x1="526.0" x2="486.0" y1="1802.0" y2="1842.0" /><line stroke="#333" stroke-width="10" x1="230.0" x2="118.0" y1="1986.0" y2="2058.0" /><line stroke="#333" stroke-width="10" x1="118.0" x2="69.0" y1="2058.0" y2="2151.0" /><line stroke="#999" stroke-width="3" x1="526.0" x2="652.0" y1="1802.0" y2="1956.0" /><line stroke="#999" stroke-width="3" x1="486.0" x2="590.0" y1="1842.0" y2="1986.0" /><line stroke="#999" stroke-width="3" x1="422.0" x2="542.0" y1="1882.0" y2="2026.0" /><line stroke="#999" stroke-width="3" x1="334.0" x2="470.0" y1="1938.0" y2="2058.0" /><line stroke="#999" stroke-width="3" x1="230.0" x2="414.0" y1="1986.0" y2="2082.0" /><line stroke="#999" stroke-width="3" x1="118.0" x2="350.0" y1="2058.0" y2="2114.0" /><line stroke="#333" stroke-width="10" x1="1709.0" x2="1757.0" y1="2125.0" y2="2157.0" /><line stroke="#999" stroke-width="3" x1="1757.0" x2="1886.0" y1="2157.0" y2="2090.0" /><line stroke="#333" stroke-width="10" x1="1886.0" x2="1798.0" y1="2090.0" y2="2010.0" /><line stroke="#333" stroke-width="10" x1="1757.0" x2="1790.0" y1="2157.0" y2="2194.0" /><line stroke="#666" stroke-width="20" x1="1790.0" x2="1998.0" y1="2194.0" y2="2194.0" /><line stroke="#333" stroke-width="10" x1="1998.0" x2="1886.0" y1="2194.0" y2="2090.0" /><line stroke="#333" stroke-width="10" x1="334.0" x2="230.0" y1="1938.0" y2="1986.0" /><line stroke="#333" stroke-width="10" x1="566.0" x2="526.0" y1="1762.0" y2="1802.0" /><line stroke="#999" stroke-width="3" x1="885.0" x2="885.0" y1="1125.0" y2="1277.0" /><line stroke="#999" stroke-width="3" x1="1141.0" x2="1141.0" y1="1277.0" y2="1125.0" /><line stroke="#999" stroke-width="3" x1="125.0" x2="125.0" y1="1117.0" y2="1621.0" /><line stroke="#999" stroke-width="3" x1="125.0" x2="125.0" y1="981.0" y2="1117.0" /><line stroke="#999" stroke-width="3" x1="125.0" x2="167.0" y1="1117.0" y2="1117.0" /><line stroke="#999" stroke-width="3" x1="167.0" x2="167.0" y1="1117.0" y2="981.0" /><line stroke="#999" stroke-width="3" x1="167.0" x2="125.0" y1="981.0" y2="981.0" /><line stroke="#999" stroke-width="3" x1="167.0" x2="205.0" y1="1117.0" y2="1117.0" /><line stroke="#999" stroke-width="3" x1="205.0" x2="205.0" y1="1117.0" y2="981.0" /><line stroke="#999" stroke-width="3" x1="205.0" x2="167.0" y1="981.0" y2="981.0" /><line stroke="#999" stroke-width="3" x1="885.0" x2="885.0" y1="821.0" y2="1125.0" /><line stroke="#999" stroke-width="3" x1="1141.0" x2="1141.0" y1="1125.0" y2="821.0" /><line stroke="#999" stroke-width="3" x1="261.0" x2="125.0" y1="397.0" y2="309.0" /><line stroke="#999" stroke-width="3" x1="260.0" x2="885.0" y1="1530.0" y2="1125.0" /><line stroke="#999" stroke-width="3" x1="261.0" x2="260.0" y1="397.0" y2="1530.0" /><line stroke="#333" stroke-width="10" x1="1790.0" x2="1790.0" y1="2194.0" y2="2208.0" /><line stroke="#333" stroke-width="10" x1="1998.0" x2="1998.0" y1="2208.0" y2="2194.0" /><line stroke="#666" stroke-width="20" x1="1998.0" x2="1790.0" y1="2208.0" y2="2208.0" /><line stroke="#333" stroke-width="10" x1="1790.0" x2="1723.0" y1="2208.0" y2="2208.0" /><line stroke="#333" stroke-width="10" x1="1723.0" x2="1723.0" y1="2208.0" y2="2429.0" /><line stroke="#333" stroke-width="10" x1="1723.0" x2="1790.0" y1="2429.0" y2="2429.0" /><line stroke="#333" stroke-width="10" x1="1790.0" x2="1790.0" y1="2429.0" y2="2484.0" /><line stroke="#333" stroke-width="10" x1="1790.0" x2="1709.0" y1="2589.0" y2="2589.0" /><line stroke="#333" stroke-width="10" x1="1709.0" x2="1709.0" y1="2589.0" y2="2892.0" /><line stroke="#999" stroke-width="3" x1="1709.0" x2="1787.0" y1="2892.0" y2="2892.0" /><line stroke="#999" stroke-width="3" x1="1787.0" x2="1787.0" y1="2892.0" y2="2987.0" /><line stroke="#333" stroke-width="10" x1="1787.0" x2="1995.0" y1="2987.0" y2="2987.0" /><line stroke="#333" stroke-width="10" x1="2111.0" x2="2127.0" y1="2857.0" y2="2857.0" /><line stroke="#333" stroke-width="10" x1="2127.0" x2="2127.0" y1="2857.0" y2="2901.0" /><line stroke="#333" stroke-width="10" x1="2127.0" x2="2145.0" y1="2901.0" y2="2901.0" /><line stroke="#333" stroke-width="10" x1="2733.0" x2="2733.0" y1="2901.0" y2="2711.0" /><line stroke="#333" stroke-width="10" x1="2733.0" x2="2640.0" y1="2711.0" y2="2711.0" /><line stroke="#333" stroke-width="10" x1="2345.0" x2="2345.0" y1="2711.0" y2="2459.0" /><line stroke="#999" stroke-width="3" x1="2345.0" x2="2261.0" y1="2437.0" y2="2437.0" /><line stroke="#999" stroke-width="3" x1="2237.0" x2="2237.0" y1="2459.0" y2="2149.0" /><line stroke="#333" stroke-width="10" x1="2237.0" x2="2081.0" y1="2149.0" y2="2149.0" /><line stroke="#333" stroke-width="10" x1="2081.0" x2="2081.0" y1="2149.0" y2="2206.0" /><line stroke="#333" stroke-width="10" x1="2081.0" x2="2045.0" y1="2206.0" y2="2205.0" /><line stroke="#333" stroke-width="10" x1="1709.0" x2="1709.0" y1="2892.0" y2="2987.0" /><line stroke="#999" stroke-width="3" x1="2111.0" x2="1995.0" y1="2857.0" y2="2857.0" /><line stroke="#999" stroke-width="3" x1="1995.0" x2="1995.0" y1="2857.0" y2="2987.0" /><line stroke="#999" stroke-width="3" x1="1790.0" x2="1789.0" y1="2429.0" y2="2325.0" /><line stroke="#333" stroke-width="10" x1="1790.0" x2="1790.0" y1="2535.0" y2="2589.0" /><line stroke="#999" stroke-width="3" x1="1790.0" x2="1790.0" y1="2484.0" y2="2535.0" /><line stroke="#333" stroke-width="10" x1="1790.0" x2="1743.0" y1="2484.0" y2="2484.0" /><line stroke="#333" stroke-width="10" x1="1743.0" x2="1743.0" y1="2484.0" y2="2535.0" /><line stroke="#333" stroke-width="10" x1="1743.0" x2="1790.0" y1="2535.0" y2="2535.0" /><line stroke="#999" stroke-width="3" x1="2629.0" x2="2733.0" y1="2901.0" y2="2901.0" /><line stroke="#999" stroke-width="3" x1="2629.0" x2="2629.0" y1="2901.0" y2="2997.0" /><line stroke="#333" stroke-width="10" x1="2629.0" x2="2733.0" y1="2997.0" y2="2997.0" /><line stroke="#333" stroke-width="10" x1="2733.0" x2="2733.0" y1="2997.0" y2="2901.0" /><line stroke="#999" stroke-width="3" x1="2145.0" x2="2249.0" y1="2901.0" y2="2901.0" /><line stroke="#999" stroke-width="3" x1="2249.0" x2="2291.0" y1="2901.0" y2="2901.0" /><line stroke="#333" stroke-width="10" x1="2145.0" x2="2145.0" y1="2901.0" y2="2997.0" /><line stroke="#666" stroke-width="20" x1="2145.0" x2="2249.0" y1="2997.0" y2="2997.0" /><line stroke="#999" stroke-width="3" x1="2249.0" x2="2249.0" y1="2997.0" y2="2901.0" /><line stroke="#999" stroke-width="3" x1="2291.0" x2="2333.0" y1="2901.0" y2="2901.0" /><line stroke="#999" stroke-width="3" x1="2333.0" x2="2379.0" y1="2901.0" y2="2901.0" /><line stroke="#999" stroke-width="3" x1="2379.0" x2="2421.0" y1="2901.0" y2="2901.0" /><line stroke="#999" stroke-width="3" x1="2421.0" x2="2461.0" y1="2901.0" y2="2901.0" /><line stroke="#999" stroke-width="3" x1="2461.0" x2="2501.0" y1="2901.0" y2="2901.0" /><line stroke="#999" stroke-width="3" x1="2501.0" x2="2541.0" y1="2901.0" y2="2901.0" /><line stroke="#999" stroke-width="3" x1="2541.0" x2="2581.0" y1="2901.0" y2="2901.0" /><line stroke="#999" stroke-width="3" x1="2581.0" x2="2629.0" y1="2901.0" y2="2901.0" /><line stroke="#333" stroke-width="10" x1="2249.0" x2="2291.0" y1="2997.0" y2="2997.0" /><line stroke="#999" stroke-width="3" x1="2291.0" x2="2291.0" y1="2997.0" y2="2901.0" /><line stroke="#333" stroke-width="10" x1="2291.0" x2="2333.0" y1="2997.0" y2="2997.0" /><line stroke="#999" stroke-width="3" x1="2333.0" x2="2333.0" y1="2997.0" y2="2901.0" /><line stroke="#333" stroke-width="10" x1="2333.0" x2="2379.0" y1="2997.0" y2="2997.0" /><line stroke="#999" stroke-width="3" x1="2379.0" x2="2379.0" y1="2997.0" y2="2901.0" /><line stroke="#333" stroke-width="10" x1="2379.0" x2="2421.0" y1="2997.0" y2="2997.0" /><line stroke="#999" stroke-width="3" x1="2421.0" x2="2421.0" y1="2997.0" y2="2901.0" /><line stroke="#333" stroke-width="10" x1="2421.0" x2="2461.0" y1="2997.0" y2="2997.0" /><line stroke="#999" stroke-width="3" x1="2461.0" x2="2461.0" y1="2997.0" y2="2901.0" /><line stroke="#333" stroke-width="10" x1="2461.0" x2="2501.0" y1="2997.0" y2="2997.0" /><line stroke="#999" stroke-width="3" x1="2501.0" x2="2501.0" y1="2997.0" y2="2901.0" /><line stroke="#333" stroke-width="10" x1="2501.0" x2="2541.0" y1="2997.0" y2="2997.0" /><line stroke="#999" stroke-width="3" x1="2541.0" x2="2541.0" y1="2997.0" y2="2901.0" /><line stroke="#333" stroke-width="10" x1="2541.0" x2="2581.0" y1="2997.0" y2="2997.0" /><line stroke="#999" stroke-width="3" x1="2581.0" x2="2581.0" y1="2997.0" y2="2901.0" /><line stroke="#333" stroke-width="10" x1="2581.0" x2="2629.0" y1="2997.0" y2="2997.0" /><line stroke="#333" stroke-width="10" x1="2508.0" x2="2345.0" y1="2711.0" y2="2711.0" /><line stroke="#666" stroke-width="20" x1="2640.0" x2="2508.0" y1="2711.0" y2="2711.0" /><line stroke="#333" stroke-width="10" x1="2640.0" x2="2640.0" y1="2711.0" y2="2697.0" /><line stroke="#333" stroke-width="10" x1="2508.0" x2="2508.0" y1="2697.0" y2="2711.0" /><line stroke="#666" stroke-width="20" x1="2508.0" x2="2640.0" y1="2697.0" y2="2697.0" /><line stroke="#333" stroke-width="10" x1="2640.0" x2="2733.0" y1="2697.0" y2="2696.0" /><line stroke="#333" stroke-width="10" x1="2733.0" x2="2733.0" y1="2696.0" y2="1848.0" /><line stroke="#333" stroke-width="10" x1="2733.0" x2="2447.0" y1="1848.0" y2="1848.0" /><line stroke="#333" stroke-width="10" x1="1953.0" x2="1953.0" y1="1962.0" y2="2134.0" /><line stroke="#333" stroke-width="10" x1="1953.0" x2="2427.0" y1="2134.0" y2="2134.0" /><line stroke="#333" stroke-width="10" x1="2427.0" x2="2427.0" y1="2134.0" y2="2696.0" /><line stroke="#333" stroke-width="10" x1="2427.0" x2="2508.0" y1="2696.0" y2="2697.0" /><line stroke="#333" stroke-width="10" x1="2447.0" x2="1953.0" y1="1962.0" y2="1962.0" /><line stroke="#333" stroke-width="10" x1="2447.0" x2="2447.0" y1="1848.0" y2="1962.0" /><line stroke="#333" stroke-width="10" x1="2345.0" x2="2346.0" y1="2437.0" y2="2148.0" /><line stroke="#333" stroke-width="10" x1="2346.0" x2="2261.0" y1="2148.0" y2="2149.0" /><line stroke="#333" stroke-width="10" x1="2261.0" x2="2237.0" y1="2149.0" y2="2149.0" /><line stroke="#999" stroke-width="3" x1="2261.0" x2="2261.0" y1="2149.0" y2="2437.0" /><line stroke="#333" stroke-width="10" x1="2345.0" x2="2345.0" y1="2459.0" y2="2437.0" /><line stroke="#999" stroke-width="3" x1="2237.0" x2="2345.0" y1="2459.0" y2="2459.0" /><line stroke="#999" stroke-width="3" x1="1789.0" x2="1790.0" y1="2325.0" y2="2208.0" /><line stroke="#333" stroke-width="10" x1="2045.0" x2="1998.0" y1="2205.0" y2="2208.0" /><line stroke="#666" stroke-width="20" x1="1789.0" x2="2045.0" y1="2325.0" y2="2205.0" /><line stroke="#333" stroke-width="10" x1="2125.0" x2="2216.0" y1="3284.0" y2="3284.0" /><line stroke="#333" stroke-width="10" x1="2698.0" x2="2698.0" y1="3284.0" y2="3193.0" /><line stroke="#333" stroke-width="10" x1="2698.0" x2="2249.0" y1="3011.0" y2="3011.0" /><line stroke="#333" stroke-width="10" x1="2125.0" x2="2125.0" y1="3011.0" y2="3060.0" /><line stroke="#333" stroke-width="10" x1="2145.0" x2="2125.0" y1="3011.0" y2="3011.0" /><line stroke="#666" stroke-width="20" x1="2249.0" x2="2145.0" y1="3011.0" y2="3011.0" /><line stroke="#333" stroke-width="10" x1="2125.0" x2="2125.0" y1="3235.0" y2="3284.0" /><line stroke="#666" stroke-width="20" x1="2125.0" x2="2125.0" y1="3060.0" y2="3235.0" /><line stroke="#666" stroke-width="20" x1="2111.0" x2="2111.0" y1="3235.0" y2="3060.0" /><line stroke="#999" stroke-width="3" x1="2216.0" x2="2401.0" y1="3298.0" y2="3298.0" /><line stroke="#333" stroke-width="10" x1="2401.0" x2="2422.0" y1="3284.0" y2="3284.0" /><line stroke="#999" stroke-width="3" x1="2216.0" x2="2401.0" y1="3284.0" y2="3284.0" /><line stroke="#999" stroke-width="3" x1="2422.0" x2="2607.0" y1="3298.0" y2="3298.0" /><line stroke="#333" stroke-width="10" x1="2607.0" x2="2698.0" y1="3284.0" y2="3284.0" /><line stroke="#999" stroke-width="3" x1="2422.0" x2="2607.0" y1="3284.0" y2="3284.0" /><line stroke="#999" stroke-width="3" x1="2698.0" x2="2698.0" y1="3193.0" y2="3102.0" /><line stroke="#333" stroke-width="10" x1="2698.0" x2="2698.0" y1="3102.0" y2="3011.0" /><line stroke="#333" stroke-width="10" x1="2698.0" x2="2712.0" y1="3193.0" y2="3193.0" /><line stroke="#333" stroke-width="10" x1="2712.0" x2="2698.0" y1="3102.0" y2="3102.0" /><line stroke="#333" stroke-width="10" x1="2216.0" x2="2216.0" y1="3284.0" y2="3298.0" /><line stroke="#333" stroke-width="10" x1="2401.0" x2="2401.0" y1="3298.0" y2="3284.0" /><line stroke="#333" stroke-width="10" x1="2422.0" x2="2422.0" y1="3284.0" y2="3298.0" /><line stroke="#333" stroke-width="10" x1="2607.0" x2="2607.0" y1="3298.0" y2="3284.0" /><line stroke="#333" stroke-width="10" x1="2712.0" x2="2712.0" y1="3193.0" y2="3102.0" /><line stroke="#333" stroke-width="10" x1="2145.0" x2="2145.0" y1="2997.0" y2="3011.0" /><line stroke="#333" stroke-width="10" x1="2249.0" x2="2249.0" y1="3011.0" y2="2997.0" /><line stroke="#333" stroke-width="10" x1="2111.0" x2="2125.0" y1="3235.0" y2="3235.0" /><line stroke="#333" stroke-width="10" x1="2125.0" x2="2111.0" y1="3060.0" y2="3060.0" /><line stroke="#333" stroke-width="10" x1="1711.0" x2="1711.0" y1="3005.0" y2="3400.0" /><line stroke="#333" stroke-width="10" x1="1711.0" x2="3465.0" y1="3400.0" y2="3394.0" /><line stroke="#333" stroke-width="10" x1="2111.0" x2="2111.0" y1="3298.0" y2="3235.0" /><line stroke="#333" stroke-width="10" x1="2216.0" x2="2111.0" y1="3298.0" y2="3298.0" /><line stroke="#333" stroke-width="10" x1="3465.0" x2="3470.0" y1="3394.0" y2="1546.0" /><line stroke="#333" stroke-width="10" x1="3470.0" x2="2068.0" y1="1546.0" y2="1546.0" /><line stroke="#333" stroke-width="10" x1="2068.0" x2="2068.0" y1="1546.0" y2="1814.0" /><line stroke="#333" stroke-width="10" x1="2068.0" x2="2778.0" y1="1814.0" y2="1814.0" /><line stroke="#333" stroke-width="10" x1="2778.0" x2="2778.0" y1="1814.0" y2="3298.0" /><line stroke="#333" stroke-width="10" x1="2778.0" x2="2607.0" y1="3298.0" y2="3298.0" /><line stroke="#333" stroke-width="10" x1="2422.0" x2="2401.0" y1="3298.0" y2="3298.0" /><line stroke="#333" stroke-width="10" x1="2111.0" x2="2109.0" y1="3060.0" y2="3005.0" /><line stroke="#333" stroke-width="10" x1="2109.0" x2="1711.0" y1="3005.0" y2="3005.0" /><line stroke="#333" stroke-width="10" x1="1709.0" x2="1787.0" y1="2987.0" y2="2987.0" /><line stroke="#333" stroke-width="10" x1="1995.0" x2="2111.0" y1="2987.0" y2="2987.0" /><line stroke="#333" stroke-width="10" x1="2111.0" x2="2111.0" y1="2987.0" y2="2857.0" /><ellipse cx="1009.0" cy="418.0" fill="#009" rx="12" ry="24" stroke="#009" stroke-width="5" /><ellipse cx="934.0" cy="353.0" fill="#009" rx="12" ry="24" stroke="#009" stroke-width="5" /><ellipse cx="1009.0" cy="353.0" fill="#009" rx="12" ry="24" stroke="#009" stroke-width="5" /><ellipse cx="1082.0" cy="348.0" fill="#009" rx="12" ry="24" stroke="#009" stroke-width="5" /><rect fill="#090" height="24" stroke="#090" stroke-width="5" transform="rotate(315,61.0,1765.0)" width="24" x="49.0" y="1753.0" /><rect fill="#090" height="24" stroke="#090" stroke-width="5" transform="rotate(225,1957.0,1797.0)" width="24" x="1945.0" y="1785.0" /><rect fill="#090" height="24" stroke="#090" stroke-width="5" transform="rotate(135,1957.0,165.0)" width="24" x="1945.0" y="153.0" /><rect fill="#090" height="24" stroke="#090" stroke-width="5" transform="rotate(45,61.0,125.0)" width="24" x="49.0" y="113.0" /><rect fill="#900" height="48" stroke="#900" stroke-width="5" transform="rotate(315,189.0,1453.0)" width="32" x="173.0" y="1429.0" /><rect fill="#900" height="48" stroke="#900" stroke-width="5" transform="rotate(0,181.0,1357.0)" width="32" x="165.0" y="1333.0" /><rect fill="#900" height="48" stroke="#900" stroke-width="5" transform="rotate(0,181.0,1269.0)" width="32" x="165.0" y="1245.0" /><rect fill="#900" height="48" stroke="#900" stroke-width="5" transform="rotate(0,183.0,1198.0)" width="32" x="167.0" y="1174.0" /><rect fill="#900" height="48" stroke="#900" stroke-width="5" transform="rotate(0,181.0,773.0)" width="32" x="165.0" y="749.0" /><rect fill="#900" height="48" stroke="#900" stroke-width="5" transform="rotate(0,181.0,685.0)" width="32" x="165.0" y="661.0" /><rect fill="#900" height="48" stroke="#900" stroke-width="5" transform="rotate(0,173.0,613.0)" width="32" x="157.0" y="589.0" /><rect fill="#900" height="48" stroke="#900" stroke-width="5" transform="rotate(0,181.0,525.0)" width="32" x="165.0" y="501.0" /><rect fill="#900" height="48" stroke="#900" stroke-width="5" transform="rotate(45,173.0,429.0)" width="32" x="157.0" y="405.0" /><rect fill="#900" height="48" stroke="#900" stroke-width="5" transform="rotate(225,1813.0,1477.0)" width="32" x="1797.0" y="1453.0" /><rect fill="#900" height="48" stroke="#900" stroke-width="5" transform="rotate(180,1805.0,1365.0)" width="32" x="1789.0" y="1341.0" /><rect fill="#900" height="48" stroke="#900" stroke-width="5" transform="rotate(180,1813.0,1293.0)" width="32" x="1797.0" y="1269.0" /><rect fill="#900" height="48" stroke="#900" stroke-width="5" transform="rotate(180,1797.0,1221.0)" width="32" x="1781.0" y="1197.0" /><rect fill="#900" height="48" stroke="#900" stroke-width="5" transform="rotate(180,1805.0,1165.0)" width="32" x="1789.0" y="1141.0" /><rect fill="#900" height="48" stroke="#900" stroke-width="5" transform="rotate(180,1805.0,1085.0)" width="32" x="1789.0" y="1061.0" /><rect fill="#900" height="48" stroke="#900" stroke-width="5" transform="rotate(180,1805.0,1021.0)" width="32" x="1789.0" y="997.0" /><rect fill="#900" height="48" stroke="#900" stroke-width="5" transform="rotate(180,1813.0,957.0)" width="32" x="1797.0" y="933.0" /><rect fill="#900" height="48" stroke="#900" stroke-width="5" transform="rotate(180,1813.0,853.0)" width="32" x="1797.0" y="829.0" /><rect fill="#900" height="48" stroke="#900" stroke-width="5" transform="rotate(180,1805.0,765.0)" width="32" x="1789.0" y="741.0" /><rect fill="#900" height="48" stroke="#900" stroke-width="5" transform="rotate(180,1821.0,701.0)" width="32" x="1805.0" y="677.0" /><rect fill="#900" height="48" stroke="#900" stroke-width="5" transform="rotate(180,1813.0,637.0)" width="32" x="1797.0" y="613.0" /><rect fill="#900" height="48" stroke="#900" stroke-width="5" transform="rotate(180,1805.0,533.0)" width="32" x="1789.0" y="509.0" /><rect fill="#900" height="48" stroke="#900" stroke-width="5" transform="rotate(135,1821.0,437.0)" width="32" x="1805.0" y="413.0" /><rect fill="#900" height="48" stroke="#900" stroke-width="5" transform="rotate(0,174.0,857.0)" width="32" x="158.0" y="833.0" /><rect fill="#900" height="48" stroke="#900" stroke-width="5" transform="rotate(0,170.0,933.0)" width="32" x="154.0" y="909.0" /><rect fill="#090" height="24" stroke="#090" stroke-width="5" transform="rotate(270,919.0,1243.0)" width="24" x="907.0" y="1231.0" /><rect fill="#090" height="24" stroke="#090" stroke-width="5" transform="rotate(270,1107.0,1243.0)" width="24" x="1095.0" y="1231.0" /><rect fill="#090" height="24" stroke="#090" stroke-width="5" transform="rotate(90,919.0,258.0)" width="24" x="907.0" y="246.0" /><rect fill="#090" height="24" stroke="#090" stroke-width="5" transform="rotate(90,1087.0,263.0)" width="24" x="1075.0" y="251.0" /><rect fill="#900" height="48" stroke="#900" stroke-width="5" transform="rotate(90,2538.0,2149.0)" width="32" x="2522.0" y="2125.0" /><rect fill="#090" height="24" stroke="#090" stroke-width="5" transform="rotate(180,2298.0,2689.0)" width="24" x="2286.0" y="2677.0" /><rect fill="#090" height="24" stroke="#090" stroke-width="5" transform="rotate(180,2298.0,2489.0)" width="24" x="2286.0" y="2477.0" /><rect fill="#900" height="48" stroke="#900" stroke-width="5" transform="rotate(270,2053.0,2619.0)" width="32" x="2037.0" y="2595.0" /><rect fill="#900" height="48" stroke="#900" stroke-width="5" transform="rotate(270,1905.0,2724.0)" width="32" x="1889.0" y="2700.0" /><rect fill="#900" height="48" stroke="#900" stroke-width="5" transform="rotate(270,2188.0,2699.0)" width="32" x="2172.0" y="2675.0" /><rect fill="#900" height="48" stroke="#900" stroke-width="5" transform="rotate(270,2083.0,2429.0)" width="32" x="2067.0" y="2405.0" /><rect fill="#900" height="48" stroke="#900" stroke-width="5" transform="rotate(270,1890.0,2519.0)" width="32" x="1874.0" y="2495.0" /><rect fill="#900" height="48" stroke="#900" stroke-width="5" transform="rotate(270,1790.0,2794.0)" width="32" x="1774.0" y="2770.0" /><rect fill="#900" height="48" stroke="#900" stroke-width="5" transform="rotate(270,1920.0,2874.0)" width="32" x="1904.0" y="2850.0" /><rect fill="#900" height="48" stroke="#900" stroke-width="5" transform="rotate(270,2398.0,2814.0)" width="32" x="2382.0" y="2790.0" /><rect fill="#900" height="48" stroke="#900" stroke-width="5" transform="rotate(90,2618.0,2349.0)" width="32" x="2602.0" y="2325.0" /><rect fill="#900" height="48" stroke="#900" stroke-width="5" transform="rotate(90,2488.0,1996.0)" width="32" x="2472.0" y="1972.0" /><rect fill="#900" height="48" stroke="#900" stroke-width="5" transform="rotate(90,2638.0,2011.0)" width="32" x="2622.0" y="1987.0" /><rect fill="#900" height="48" stroke="#900" stroke-width="5" transform="rotate(90,2613.0,2524.0)" width="32" x="2597.0" y="2500.0" /><rect fill="#900" height="48" stroke="#900" stroke-width="5" transform="rotate(90,2518.0,2489.0)" width="32" x="2502.0" y="2465.0" /><rect fill="#900" height="48" stroke="#900" stroke-width="5" transform="rotate(90,2478.0,2329.0)" width="32" x="2462.0" y="2305.0" /><rect fill="#900" height="48" stroke="#900" stroke-width="5" transform="rotate(0,2128.0,2061.0)" width="32" x="2112.0" y="2037.0" /><rect fill="#900" height="48" stroke="#900" stroke-width="5" transform="rotate(0,2278.0,2051.0)" width="32" x="2262.0" y="2027.0" /><rect fill="#900" height="48" stroke="#900" stroke-width="5" transform="rotate(0,2000.0,2061.0)" width="32" x="1984.0" y="2037.0" /><circle cx="1767.0" cy="2509.0" fill="#009" r="16" stroke="#009" stroke-width="5" /><rect fill="#900" height="48" stroke="#900" stroke-width="5" transform="rotate(180,2301.0,2279.0)" width="32" x="2285.0" y="2255.0" /><rect fill="#900" height="48" stroke="#900" stroke-width="5" transform="rotate(180,2305.0,2383.0)" width="32" x="2289.0" y="2359.0" /><rect fill="#900" height="48" stroke="#900" stroke-width="5" transform="rotate(180,2303.0,2205.0)" width="32" x="2287.0" y="2181.0" /><circle cx="1967.0" cy="1641.0" fill="#009" r="16" stroke="#009" stroke-width="5" /><circle cx="1960.0" cy="1522.0" fill="#009" r="16" stroke="#009" stroke-width="5" /><circle cx="1960.0" cy="1460.0" fill="#009" r="16" stroke="#009" stroke-width="5" /><circle cx="1974.0" cy="1349.0" fill="#009" r="16" stroke="#009" stroke-width="5" /><circle cx="1967.0" cy="1216.0" fill="#009" r="16" stroke="#009" stroke-width="5" /><circle cx="1967.0" cy="1153.0" fill="#009" r="16" stroke="#009" stroke-width="5" /><circle cx="1960.0" cy="1006.0" fill="#009" r="16" stroke="#009" stroke-width="5" /><circle cx="1974.0" cy="908.0" fill="#009" r="16" stroke="#009" stroke-width="5" /><circle cx="1960.0" cy="817.0" fill="#009" r="16" stroke="#009" stroke-width="5" /><circle cx="1953.0" cy="740.0" fill="#009" r="16" stroke="#009" stroke-width="5" /><circle cx="1967.0" cy="614.0" fill="#009" r="16" stroke="#009" stroke-width="5" /><circle cx="1967.0" cy="523.0" fill="#009" r="16" stroke="#009" stroke-width="5" /><circle cx="1974.0" cy="404.0" fill="#009" r="16" stroke="#009" stroke-width="5" /><circle cx="1981.0" cy="299.0" fill="#009" r="16" stroke="#009" stroke-width="5" /><circle cx="58.0" cy="1585.0" fill="#009" r="16" stroke="#009" stroke-width="5" /><circle cx="51.0" cy="1487.0" fill="#009" r="16" stroke="#009" stroke-width="5" /><circle cx="44.0" cy="1384.0" fill="#009" r="16" stroke="#009" stroke-width="5" /><circle cx="51.0" cy="1286.0" fill="#009" r="16" stroke="#009" stroke-width="5" /><circle cx="51.0" cy="1216.0" fill="#009" r="16" stroke="#009" stroke-width="5" /><circle cx="37.0" cy="1090.0" fill="#009" r="16" stroke="#009" stroke-width="5" /><circle cx="44.0" cy="985.0" fill="#009" r="16" stroke="#009" stroke-width="5" /><circle cx="37.0" cy="866.0" fill="#009" r="16" stroke="#009" stroke-width="5" /><circle cx="44.0" cy="775.0" fill="#009" r="16" stroke="#009" stroke-width="5" /><circle cx="44.0" cy="726.0" fill="#009" r="16" stroke="#009" stroke-width="5" /><circle cx="44.0" cy="635.0" fill="#009" r="16" stroke="#009" stroke-width="5" /><circle cx="44.0" cy="551.0" fill="#009" r="16" stroke="#009" stroke-width="5" /><circle cx="44.0" cy="474.0" fill="#009" r="16" stroke="#009" stroke-width="5" /><circle cx="44.0" cy="404.0" fill="#009" r="16" stroke="#009" stroke-width="5" /><circle cx="44.0" cy="334.0" fill="#009" r="16" stroke="#009" stroke-width="5" /><circle cx="58.0" cy="257.0" fill="#009" r="16" stroke="#009" stroke-width="5" /></svg>