<?xml version="1.0" encoding="utf-8" ?>
<svg baseProfile="tiny" height="1024" version="1.2" viewBox="0 0 5642 6058" width="953" xmlns="http://www.w3.org/2000/svg" xmlns:ev="http://www.w3.org/2001/xml-events" xmlns:xlink="http://www.w3.org/1999/xlink"><defs /><line stroke="#999" stroke-width="3" x1="133.0" x2="5.0" y1="3237.0" y2="3237.0" /><line stroke="#333" stroke-width="10" x1="197.0" x2="437.0" y1="2917.0" y2="2917.0" /><line stroke="#333" stroke-width="10" x1="5.0" x2="1413.0" y1="4709.0" y2="4709.0" /><line stroke="#333" stroke-width="10" x1="133.0" x2="133.0" y1="4581.0" y2="3237.0" /><line stroke="#333" stroke-width="10" x1="5.0" x2="5.0" y1="3237.0" y2="4709.0" /><line stroke="#333" stroke-width="10" x1="1285.0" x2="133.0" y1="4581.0" y2="4581.0" /><line stroke="#333" stroke-width="10" x1="1413.0" x2="1413.0" y1="4709.0" y2="3749.0" /><line stroke="#333" stroke-width="10" x1="1285.0" x2="1285.0" y1="3877.0" y2="4581.0" /><line stroke="#00d" stroke-width="20" x1="1157.0" x2="1093.0" y1="4005.0" y2="4005.0" /><line stroke="#333" stroke-width="10" x1="261.0" x2="261.0" y1="3045.0" y2="4453.0" /><line stroke="#333" stroke-width="10" x1="389.0" x2="1285.0" y1="3877.0" y2="3877.0" /><line stroke="#333" stroke-width="10" x1="261.0" x2="1221.0" y1="4453.0" y2="4453.0" /><line stroke="#333" stroke-width="10" x1="389.0" x2="389.0" y1="4325.0" y2="3877.0" /><line stroke="#333" stroke-width="10" x1="1093.0" x2="389.0" y1="4325.0" y2="4325.0" /><line stroke="#333" stroke-width="10" x1="1221.0" x2="1221.0" y1="4453.0" y2="4005.0" /><line stroke="#333" stroke-width="10" x1="1093.0" x2="1093.0" y1="4005.0" y2="4325.0" /><line stroke="#333" stroke-width="10" x1="133.0" x2="101.0" y1="3237.0" y2="3205.0" /><line stroke="#333" stroke-width="10" x1="1221.0" x2="1157.0" y1="4005.0" y2="4005.0" /><line stroke="#333" stroke-width="10" x1="101.0" x2="37.0" y1="3013.0" y2="3013.0" /><line stroke="#333" stroke-width="10" x1="37.0" x2="37.0" y1="3013.0" y2="3205.0" /><line stroke="#333" stroke-width="10" x1="37.0" x2="5.0" y1="3205.0" y2="3237.0" /><line stroke="#333" stroke-width="10" x1="101.0" x2="101.0" y1="3205.0" y2="3013.0" /><line stroke="#333" stroke-width="10" x1="1157.0" x2="1093.0" y1="3941.0" y2="3941.0" /><line stroke="#333" stroke-width="10" x1="1093.0" x2="1093.0" y1="3941.0" y2="4005.0" /><line stroke="#333" stroke-width="10" x1="1157.0" x2="1157.0" y1="4005.0" y2="3941.0" /><line stroke="#333" stroke-width="10" x1="1413.0" x2="389.0" y1="3749.0" y2="3749.0" /><line stroke="#333" stroke-width="10" x1="389.0" x2="389.0" y1="3749.0" y2="3109.0" /><line stroke="#333" stroke-width="10" x1="645.0" x2="261.0" y1="3045.0" y2="3045.0" /><line stroke="#333" stroke-width="10" x1="389.0" x2="581.0" y1="3109.0" y2="3109.0" /><line stroke="#333" stroke-width="10" x1="645.0" x2="645.0" y1="3301.0" y2="3045.0" /><line stroke="#333" stroke-width="10" x1="581.0" x2="581.0" y1="3109.0" y2="3237.0" /><line stroke="#333" stroke-width="10" x1="581.0" x2="453.0" y1="3237.0" y2="3237.0" /><line stroke="#333" stroke-width="10" x1="453.0" x2="453.0" y1="3237.0" y2="3685.0" /><line stroke="#333" stroke-width="10" x1="517.0" x2="645.0" y1="3301.0" y2="3301.0" /><line stroke="#333" stroke-width="10" x1="453.0" x2="837.0" y1="3685.0" y2="3685.0" /><line stroke="#333" stroke-width="10" x1="517.0" x2="517.0" y1="3621.0" y2="3301.0" /><line stroke="#333" stroke-width="10" x1="773.0" x2="517.0" y1="3621.0" y2="3621.0" /><line stroke="#333" stroke-width="10" x1="837.0" x2="837.0" y1="3685.0" y2="3429.0" /><line stroke="#333" stroke-width="10" x1="773.0" x2="773.0" y1="3493.0" y2="3621.0" /><line stroke="#333" stroke-width="10" x1="581.0" x2="581.0" y1="3333.0" y2="3493.0" /><line stroke="#333" stroke-width="10" x1="581.0" x2="773.0" y1="3493.0" y2="3493.0" /><line stroke="#333" stroke-width="10" x1="837.0" x2="645.0" y1="3429.0" y2="3429.0" /><line stroke="#333" stroke-width="10" x1="869.0" x2="581.0" y1="3333.0" y2="3333.0" /><line stroke="#333" stroke-width="10" x1="645.0" x2="645.0" y1="3429.0" y2="3397.0" /><line stroke="#333" stroke-width="10" x1="645.0" x2="933.0" y1="3397.0" y2="3397.0" /><line stroke="#333" stroke-width="10" x1="933.0" x2="933.0" y1="3397.0" y2="3173.0" /><line stroke="#333" stroke-width="10" x1="869.0" x2="869.0" y1="3237.0" y2="3333.0" /><line stroke="#333" stroke-width="10" x1="677.0" x2="869.0" y1="3237.0" y2="3237.0" /><line stroke="#333" stroke-width="10" x1="677.0" x2="677.0" y1="3045.0" y2="3237.0" /><line stroke="#333" stroke-width="10" x1="933.0" x2="741.0" y1="3173.0" y2="3173.0" /><line stroke="#333" stroke-width="10" x1="1029.0" x2="677.0" y1="3045.0" y2="3045.0" /><line stroke="#333" stroke-width="10" x1="741.0" x2="741.0" y1="3173.0" y2="3109.0" /><line stroke="#333" stroke-width="10" x1="741.0" x2="965.0" y1="3109.0" y2="3109.0" /><line stroke="#333" stroke-width="10" x1="965.0" x2="965.0" y1="3109.0" y2="3685.0" /><line stroke="#333" stroke-width="10" x1="1029.0" x2="1029.0" y1="3621.0" y2="3045.0" /><line stroke="#333" stroke-width="10" x1="965.0" x2="1413.0" y1="3685.0" y2="3685.0" /><line stroke="#333" stroke-width="10" x1="1413.0" x2="1413.0" y1="3685.0" y2="3109.0" /><line stroke="#333" stroke-width="10" x1="1285.0" x2="1029.0" y1="3621.0" y2="3621.0" /><line stroke="#333" stroke-width="10" x1="1285.0" x2="1285.0" y1="2981.0" y2="3621.0" /><line stroke="#333" stroke-width="10" x1="1925.0" x2="1285.0" y1="2981.0" y2="2981.0" /><line stroke="#333" stroke-width="10" x1="1413.0" x2="1797.0" y1="3109.0" y2="3109.0" /><line stroke="#333" stroke-width="10" x1="1925.0" x2="1925.0" y1="3173.0" y2="2981.0" /><line stroke="#333" stroke-width="10" x1="1797.0" x2="1797.0" y1="3109.0" y2="3301.0" /><line stroke="#333" stroke-width="10" x1="1797.0" x2="3461.0" y1="3301.0" y2="3301.0" /><line stroke="#333" stroke-width="10" x1="1861.0" x2="1861.0" y1="2405.0" y2="2277.0" /><line stroke="#333" stroke-width="10" x1="2245.0" x2="1925.0" y1="3173.0" y2="3173.0" /><line stroke="#333" stroke-width="10" x1="2245.0" x2="2245.0" y1="2917.0" y2="3173.0" /><line stroke="#333" stroke-width="10" x1="3461.0" x2="3461.0" y1="3301.0" y2="2405.0" /><line stroke="#333" stroke-width="10" x1="2373.0" x2="2373.0" y1="3173.0" y2="2789.0" /><line stroke="#333" stroke-width="10" x1="2885.0" x2="2373.0" y1="3173.0" y2="3173.0" /><line stroke="#666" stroke-width="20" x1="485.0" x2="485.0" y1="2853.0" y2="2917.0" /><line stroke="#333" stroke-width="10" x1="1221.0" x2="1221.0" y1="2277.0" y2="2725.0" /><line stroke="#333" stroke-width="10" x1="3013.0" x2="3013.0" y1="3173.0" y2="2597.0" /><line stroke="#333" stroke-width="10" x1="3333.0" x2="3013.0" y1="3173.0" y2="3173.0" /><line stroke="#333" stroke-width="10" x1="3333.0" x2="3333.0" y1="2533.0" y2="3173.0" /><line stroke="#333" stroke-width="10" x1="1925.0" x2="3333.0" y1="2533.0" y2="2533.0" /><line stroke="#333" stroke-width="10" x1="1349.0" x2="1861.0" y1="2405.0" y2="2405.0" /><line stroke="#333" stroke-width="10" x1="485.0" x2="469.0" y1="2853.0" y2="2853.0" /><line stroke="#333" stroke-width="10" x1="1605.0" x2="2245.0" y1="2917.0" y2="2917.0" /><line stroke="#333" stroke-width="10" x1="485.0" x2="517.0" y1="2917.0" y2="2917.0" /><line stroke="#333" stroke-width="10" x1="469.0" x2="485.0" y1="2917.0" y2="2917.0" /><line stroke="#666" stroke-width="20" x1="197.0" x2="197.0" y1="2853.0" y2="2917.0" /><line stroke="#999" stroke-width="3" x1="437.0" x2="437.0" y1="2853.0" y2="2917.0" /><line stroke="#333" stroke-width="10" x1="469.0" x2="437.0" y1="2853.0" y2="2853.0" /><line stroke="#999" stroke-width="3" x1="1605.0" x2="1605.0" y1="2789.0" y2="2917.0" /><line stroke="#333" stroke-width="10" x1="2373.0" x2="1605.0" y1="2789.0" y2="2789.0" /><line stroke="#333" stroke-width="10" x1="517.0" x2="1605.0" y1="2917.0" y2="2917.0" /><line stroke="#333" stroke-width="10" x1="437.0" x2="197.0" y1="2853.0" y2="2853.0" /><line stroke="#333" stroke-width="10" x1="1605.0" x2="1221.0" y1="2789.0" y2="2789.0" /><line stroke="#666" stroke-width="20" x1="469.0" x2="469.0" y1="2917.0" y2="2853.0" /><line stroke="#333" stroke-width="10" x1="437.0" x2="469.0" y1="2917.0" y2="2917.0" /><line stroke="#333" stroke-width="10" x1="1221.0" x2="1221.0" y1="2789.0" y2="2853.0" /><line stroke="#333" stroke-width="10" x1="1221.0" x2="517.0" y1="2853.0" y2="2853.0" /><line stroke="#999" stroke-width="3" x1="517.0" x2="517.0" y1="2853.0" y2="2917.0" /><line stroke="#333" stroke-width="10" x1="517.0" x2="485.0" y1="2853.0" y2="2853.0" /><line stroke="#333" stroke-width="10" x1="2885.0" x2="2885.0" y1="2725.0" y2="3173.0" /><line stroke="#333" stroke-width="10" x1="1221.0" x2="2885.0" y1="2725.0" y2="2725.0" /><line stroke="#333" stroke-width="10" x1="3013.0" x2="1349.0" y1="2597.0" y2="2597.0" /><line stroke="#333" stroke-width="10" x1="1349.0" x2="1349.0" y1="2597.0" y2="2405.0" /><line stroke="#333" stroke-width="10" x1="1861.0" x2="1221.0" y1="2277.0" y2="2277.0" /><line stroke="#333" stroke-width="10" x1="1925.0" x2="1925.0" y1="1765.0" y2="2533.0" /><line stroke="#333" stroke-width="10" x1="3461.0" x2="2053.0" y1="2405.0" y2="2405.0" /><line stroke="#333" stroke-width="10" x1="2053.0" x2="2053.0" y1="2405.0" y2="1893.0" /><line stroke="#333" stroke-width="10" x1="3013.0" x2="1925.0" y1="1765.0" y2="1765.0" /><line stroke="#333" stroke-width="10" x1="2053.0" x2="2885.0" y1="1893.0" y2="1893.0" /><line stroke="#333" stroke-width="10" x1="2885.0" x2="2885.0" y1="1893.0" y2="2341.0" /><line stroke="#333" stroke-width="10" x1="3013.0" x2="3013.0" y1="2213.0" y2="1765.0" /><line stroke="#333" stroke-width="10" x1="3525.0" x2="4229.0" y1="3109.0" y2="3109.0" /><line stroke="#333" stroke-width="10" x1="3653.0" x2="4549.0" y1="2341.0" y2="2341.0" /><line stroke="#333" stroke-width="10" x1="2885.0" x2="3525.0" y1="2341.0" y2="2341.0" /><line stroke="#333" stroke-width="10" x1="3525.0" x2="3525.0" y1="2341.0" y2="3109.0" /><line stroke="#333" stroke-width="10" x1="4549.0" x2="4165.0" y1="613.0" y2="613.0" /><line stroke="#333" stroke-width="10" x1="3653.0" x2="3653.0" y1="2981.0" y2="2341.0" /><line stroke="#999" stroke-width="3" x1="3141.0" x2="3141.0" y1="469.0" y2="373.0" /><line stroke="#333" stroke-width="10" x1="3525.0" x2="3013.0" y1="2213.0" y2="2213.0" /><line stroke="#333" stroke-width="10" x1="4421.0" x2="3653.0" y1="2213.0" y2="2213.0" /><line stroke="#333" stroke-width="10" x1="3525.0" x2="3525.0" y1="1573.0" y2="2213.0" /><line stroke="#333" stroke-width="10" x1="3653.0" x2="3653.0" y1="2213.0" y2="1701.0" /><line stroke="#333" stroke-width="10" x1="4293.0" x2="3525.0" y1="1573.0" y2="1573.0" /><line stroke="#333" stroke-width="10" x1="3653.0" x2="4421.0" y1="1701.0" y2="1701.0" /><line stroke="#333" stroke-width="10" x1="4421.0" x2="4421.0" y1="1701.0" y2="1381.0" /><line stroke="#333" stroke-width="10" x1="4293.0" x2="4293.0" y1="1509.0" y2="1573.0" /><line stroke="#333" stroke-width="10" x1="3397.0" x2="4293.0" y1="1509.0" y2="1509.0" /><line stroke="#333" stroke-width="10" x1="4421.0" x2="3269.0" y1="1381.0" y2="1381.0" /><line stroke="#333" stroke-width="10" x1="3269.0" x2="3269.0" y1="1381.0" y2="1573.0" /><line stroke="#333" stroke-width="10" x1="3397.0" x2="3397.0" y1="1701.0" y2="1509.0" /><line stroke="#333" stroke-width="10" x1="2565.0" x2="3397.0" y1="1701.0" y2="1701.0" /><line stroke="#333" stroke-width="10" x1="2565.0" x2="2565.0" y1="1317.0" y2="1701.0" /><line stroke="#333" stroke-width="10" x1="3269.0" x2="2693.0" y1="1573.0" y2="1573.0" /><line stroke="#333" stroke-width="10" x1="2693.0" x2="2693.0" y1="1573.0" y2="1445.0" /><line stroke="#333" stroke-width="10" x1="3077.0" x2="2565.0" y1="1317.0" y2="1317.0" /><line stroke="#333" stroke-width="10" x1="2693.0" x2="3205.0" y1="1445.0" y2="1445.0" /><line stroke="#333" stroke-width="10" x1="2373.0" x2="3077.0" y1="1125.0" y2="1125.0" /><line stroke="#333" stroke-width="10" x1="3781.0" x2="2245.0" y1="997.0" y2="997.0" /><line stroke="#333" stroke-width="10" x1="3205.0" x2="3909.0" y1="1125.0" y2="1125.0" /><line stroke="#333" stroke-width="10" x1="3077.0" x2="3077.0" y1="1125.0" y2="1317.0" /><line stroke="#333" stroke-width="10" x1="3205.0" x2="3205.0" y1="1445.0" y2="1125.0" /><line stroke="#333" stroke-width="10" x1="1477.0" x2="1221.0" y1="1509.0" y2="1509.0" /><line stroke="#333" stroke-width="10" x1="2245.0" x2="2245.0" y1="997.0" y2="1573.0" /><line stroke="#333" stroke-width="10" x1="2373.0" x2="2373.0" y1="1701.0" y2="1125.0" /><line stroke="#333" stroke-width="10" x1="1797.0" x2="2373.0" y1="1701.0" y2="1701.0" /><line stroke="#333" stroke-width="10" x1="2245.0" x2="1797.0" y1="1573.0" y2="1573.0" /><line stroke="#333" stroke-width="10" x1="1797.0" x2="1797.0" y1="1573.0" y2="997.0" /><line stroke="#333" stroke-width="10" x1="1669.0" x2="1669.0" y1="1125.0" y2="2085.0" /><line stroke="#333" stroke-width="10" x1="1157.0" x2="1093.0" y1="1693.0" y2="1701.0" /><line stroke="#333" stroke-width="10" x1="1797.0" x2="1797.0" y1="2213.0" y2="1701.0" /><line stroke="#333" stroke-width="10" x1="1093.0" x2="1797.0" y1="2213.0" y2="2213.0" /><line stroke="#333" stroke-width="10" x1="1093.0" x2="1093.0" y1="1701.0" y2="2213.0" /><line stroke="#333" stroke-width="10" x1="1669.0" x2="1349.0" y1="2085.0" y2="2085.0" /><line stroke="#999" stroke-width="3" x1="1349.0" x2="1093.0" y1="1701.0" y2="1701.0" /><line stroke="#333" stroke-width="10" x1="1349.0" x2="1349.0" y1="2085.0" y2="1701.0" /><line stroke="#333" stroke-width="10" x1="1285.0" x2="1157.0" y1="1693.0" y2="1693.0" /><line stroke="#333" stroke-width="10" x1="1349.0" x2="1285.0" y1="1701.0" y2="1693.0" /><line stroke="#333" stroke-width="10" x1="1797.0" x2="1093.0" y1="997.0" y2="997.0" /><line stroke="#333" stroke-width="10" x1="1221.0" x2="1669.0" y1="1125.0" y2="1125.0" /><line stroke="#333" stroke-width="10" x1="1093.0" x2="1093.0" y1="997.0" y2="1637.0" /><line stroke="#333" stroke-width="10" x1="1093.0" x2="1605.0" y1="1637.0" y2="1637.0" /><line stroke="#333" stroke-width="10" x1="1221.0" x2="1221.0" y1="1509.0" y2="1125.0" /><line stroke="#333" stroke-width="10" x1="1477.0" x2="1477.0" y1="1381.0" y2="1509.0" /><line stroke="#333" stroke-width="10" x1="1605.0" x2="1605.0" y1="1637.0" y2="1381.0" /><line stroke="#333" stroke-width="10" x1="1605.0" x2="1477.0" y1="1381.0" y2="1381.0" /><line stroke="#333" stroke-width="10" x1="3909.0" x2="3909.0" y1="1125.0" y2="741.0" /><line stroke="#333" stroke-width="10" x1="3781.0" x2="3781.0" y1="869.0" y2="997.0" /><line stroke="#333" stroke-width="10" x1="3909.0" x2="3013.0" y1="741.0" y2="741.0" /><line stroke="#333" stroke-width="10" x1="2885.0" x2="3781.0" y1="869.0" y2="869.0" /><line stroke="#333" stroke-width="10" x1="2885.0" x2="2885.0" y1="549.0" y2="869.0" /><line stroke="#333" stroke-width="10" x1="3013.0" x2="3013.0" y1="741.0" y2="677.0" /><line stroke="#333" stroke-width="10" x1="3717.0" x2="2885.0" y1="549.0" y2="549.0" /><line stroke="#333" stroke-width="10" x1="3013.0" x2="3845.0" y1="677.0" y2="677.0" /><line stroke="#333" stroke-width="10" x1="3845.0" x2="3845.0" y1="677.0" y2="357.0" /><line stroke="#333" stroke-width="10" x1="3717.0" x2="3717.0" y1="485.0" y2="549.0" /><line stroke="#333" stroke-width="10" x1="3845.0" x2="3141.0" y1="357.0" y2="357.0" /><line stroke="#333" stroke-width="10" x1="3013.0" x2="3717.0" y1="485.0" y2="485.0" /><line stroke="#999" stroke-width="3" x1="3013.0" x2="3013.0" y1="165.0" y2="485.0" /><line stroke="#333" stroke-width="10" x1="3141.0" x2="3141.0" y1="357.0" y2="293.0" /><line stroke="#333" stroke-width="10" x1="3141.0" x2="3653.0" y1="293.0" y2="293.0" /><line stroke="#999" stroke-width="3" x1="3653.0" x2="3653.0" y1="293.0" y2="229.0" /><line stroke="#999" stroke-width="3" x1="3653.0" x2="3013.0" y1="165.0" y2="165.0" /><line stroke="#333" stroke-width="10" x1="3717.0" x2="3653.0" y1="229.0" y2="229.0" /><line stroke="#666" stroke-width="20" x1="3717.0" x2="3717.0" y1="293.0" y2="229.0" /><line stroke="#333" stroke-width="10" x1="3653.0" x2="3717.0" y1="293.0" y2="293.0" /><line stroke="#333" stroke-width="10" x1="3653.0" x2="3653.0" y1="229.0" y2="165.0" /><line stroke="#333" stroke-width="10" x1="2997.0" x2="3013.0" y1="485.0" y2="485.0" /><line stroke="#999" stroke-width="3" x1="2997.0" x2="2997.0" y1="485.0" y2="149.0" /><line stroke="#999" stroke-width="3" x1="2997.0" x2="3653.0" y1="149.0" y2="149.0" /><line stroke="#333" stroke-width="10" x1="3653.0" x2="3653.0" y1="165.0" y2="149.0" /><line stroke="#333" stroke-width="10" x1="3653.0" x2="2853.0" y1="5.0" y2="5.0" /><line stroke="#333" stroke-width="10" x1="2853.0" x2="2853.0" y1="5.0" y2="485.0" /><line stroke="#333" stroke-width="10" x1="2853.0" x2="2997.0" y1="485.0" y2="485.0" /><line stroke="#333" stroke-width="10" x1="3653.0" x2="3653.0" y1="149.0" y2="5.0" /><line stroke="#999" stroke-width="3" x1="3141.0" x2="3205.0" y1="373.0" y2="373.0" /><line stroke="#999" stroke-width="3" x1="3205.0" x2="3205.0" y1="373.0" y2="469.0" /><line stroke="#999" stroke-width="3" x1="3205.0" x2="3141.0" y1="469.0" y2="469.0" /><line stroke="#333" stroke-width="10" x1="4613.0" x2="4421.0" y1="1829.0" y2="1829.0" /><line stroke="#333" stroke-width="10" x1="4421.0" x2="4421.0" y1="1829.0" y2="2213.0" /><line stroke="#333" stroke-width="10" x1="4549.0" x2="4549.0" y1="2341.0" y2="1957.0" /><line stroke="#333" stroke-width="10" x1="4549.0" x2="4741.0" y1="1957.0" y2="1957.0" /><line stroke="#333" stroke-width="10" x1="4741.0" x2="4741.0" y1="1957.0" y2="1189.0" /><line stroke="#333" stroke-width="10" x1="4613.0" x2="4613.0" y1="1317.0" y2="1829.0" /><line stroke="#333" stroke-width="10" x1="3973.0" x2="4613.0" y1="1317.0" y2="1317.0" /><line stroke="#333" stroke-width="10" x1="4741.0" x2="4101.0" y1="1189.0" y2="1189.0" /><line stroke="#333" stroke-width="10" x1="3973.0" x2="3973.0" y1="357.0" y2="1317.0" /><line stroke="#333" stroke-width="10" x1="4101.0" x2="4101.0" y1="1189.0" y2="485.0" /><line stroke="#333" stroke-width="10" x1="4805.0" x2="3973.0" y1="357.0" y2="357.0" /><line stroke="#333" stroke-width="10" x1="4805.0" x2="4805.0" y1="1061.0" y2="357.0" /><line stroke="#333" stroke-width="10" x1="4165.0" x2="4805.0" y1="1061.0" y2="1061.0" /><line stroke="#333" stroke-width="10" x1="4101.0" x2="4677.0" y1="485.0" y2="485.0" /><line stroke="#333" stroke-width="10" x1="4677.0" x2="4677.0" y1="485.0" y2="933.0" /><line stroke="#333" stroke-width="10" x1="3653.0" x2="3653.0" y1="3877.0" y2="4133.0" /><line stroke="#333" stroke-width="10" x1="4549.0" x2="4549.0" y1="549.0" y2="613.0" /><line stroke="#333" stroke-width="10" x1="4613.0" x2="4549.0" y1="549.0" y2="549.0" /><line stroke="#333" stroke-width="10" x1="4613.0" x2="4613.0" y1="613.0" y2="549.0" /><line stroke="#999" stroke-width="3" x1="4613.0" x2="4549.0" y1="613.0" y2="613.0" /><line stroke="#333" stroke-width="10" x1="4229.0" x2="4229.0" y1="3109.0" y2="3429.0" /><line stroke="#333" stroke-width="10" x1="4229.0" x2="3653.0" y1="2981.0" y2="2981.0" /><line stroke="#333" stroke-width="10" x1="3845.0" x2="3845.0" y1="2853.0" y2="2533.0" /><line stroke="#333" stroke-width="10" x1="4357.0" x2="3717.0" y1="2405.0" y2="2405.0" /><line stroke="#333" stroke-width="10" x1="4229.0" x2="4229.0" y1="2533.0" y2="2981.0" /><line stroke="#333" stroke-width="10" x1="4357.0" x2="4357.0" y1="3557.0" y2="2405.0" /><line stroke="#333" stroke-width="10" x1="3717.0" x2="3717.0" y1="2405.0" y2="2917.0" /><line stroke="#333" stroke-width="10" x1="3717.0" x2="3845.0" y1="2917.0" y2="2917.0" /><line stroke="#333" stroke-width="10" x1="3845.0" x2="4229.0" y1="2533.0" y2="2533.0" /><line stroke="#00d" stroke-width="20" x1="3845.0" x2="3845.0" y1="2917.0" y2="2853.0" /><line stroke="#333" stroke-width="10" x1="3909.0" x2="3845.0" y1="2853.0" y2="2853.0" /><line stroke="#333" stroke-width="10" x1="3909.0" x2="3909.0" y1="2917.0" y2="2853.0" /><line stroke="#333" stroke-width="10" x1="3845.0" x2="3909.0" y1="2917.0" y2="2917.0" /><line stroke="#333" stroke-width="10" x1="4229.0" x2="3205.0" y1="3429.0" y2="3429.0" /><line stroke="#333" stroke-width="10" x1="3333.0" x2="4357.0" y1="3557.0" y2="3557.0" /><line stroke="#333" stroke-width="10" x1="3205.0" x2="3205.0" y1="3429.0" y2="3685.0" /><line stroke="#333" stroke-width="10" x1="3333.0" x2="3333.0" y1="3813.0" y2="3557.0" /><line stroke="#333" stroke-width="10" x1="3205.0" x2="2245.0" y1="3685.0" y2="3685.0" /><line stroke="#333" stroke-width="10" x1="2117.0" x2="3333.0" y1="3813.0" y2="3813.0" /><line stroke="#333" stroke-width="10" x1="2117.0" x2="2117.0" y1="3557.0" y2="3813.0" /><line stroke="#333" stroke-width="10" x1="2245.0" x2="2245.0" y1="3685.0" y2="3429.0" /><line stroke="#333" stroke-width="10" x1="2245.0" x2="1541.0" y1="3429.0" y2="3429.0" /><line stroke="#333" stroke-width="10" x1="1669.0" x2="1669.0" y1="4581.0" y2="4389.0" /><line stroke="#333" stroke-width="10" x1="1669.0" x2="2117.0" y1="3557.0" y2="3557.0" /><line stroke="#333" stroke-width="10" x1="1541.0" x2="2949.0" y1="4709.0" y2="4709.0" /><line stroke="#333" stroke-width="10" x1="1669.0" x2="2693.0" y1="4389.0" y2="4389.0" /><line stroke="#333" stroke-width="10" x1="1541.0" x2="1541.0" y1="3429.0" y2="4709.0" /><line stroke="#333" stroke-width="10" x1="1669.0" x2="3525.0" y1="4069.0" y2="4069.0" /><line stroke="#333" stroke-width="10" x1="1669.0" x2="1669.0" y1="4261.0" y2="4069.0" /><line stroke="#333" stroke-width="10" x1="1669.0" x2="1669.0" y1="3941.0" y2="3557.0" /><line stroke="#333" stroke-width="10" x1="4549.0" x2="4485.0" y1="3621.0" y2="3621.0" /><line stroke="#333" stroke-width="10" x1="3525.0" x2="3525.0" y1="4069.0" y2="3749.0" /><line stroke="#333" stroke-width="10" x1="2565.0" x2="1669.0" y1="4261.0" y2="4261.0" /><line stroke="#333" stroke-width="10" x1="4293.0" x2="4293.0" y1="933.0" y2="741.0" /><line stroke="#333" stroke-width="10" x1="2821.0" x2="1669.0" y1="4581.0" y2="4581.0" /><line stroke="#333" stroke-width="10" x1="3397.0" x2="1669.0" y1="3941.0" y2="3941.0" /><line stroke="#333" stroke-width="10" x1="3397.0" x2="3397.0" y1="3621.0" y2="3941.0" /><line stroke="#333" stroke-width="10" x1="4357.0" x2="3397.0" y1="3621.0" y2="3621.0" /><line stroke="#333" stroke-width="10" x1="3525.0" x2="4229.0" y1="3749.0" y2="3749.0" /><line stroke="#333" stroke-width="10" x1="4229.0" x2="4229.0" y1="3749.0" y2="4261.0" /><line stroke="#333" stroke-width="10" x1="4357.0" x2="4357.0" y1="4389.0" y2="3621.0" /><line stroke="#333" stroke-width="10" x1="4229.0" x2="3973.0" y1="4261.0" y2="4261.0" /><line stroke="#333" stroke-width="10" x1="3845.0" x2="4357.0" y1="4389.0" y2="4389.0" /><line stroke="#333" stroke-width="10" x1="3845.0" x2="3845.0" y1="4197.0" y2="4389.0" /><line stroke="#999" stroke-width="3" x1="3845.0" x2="3973.0" y1="4197.0" y2="4197.0" /><line stroke="#333" stroke-width="10" x1="3973.0" x2="3973.0" y1="4261.0" y2="4197.0" /><line stroke="#333" stroke-width="10" x1="4165.0" x2="4101.0" y1="3877.0" y2="3813.0" /><line stroke="#333" stroke-width="10" x1="3973.0" x2="4101.0" y1="4197.0" y2="4197.0" /><line stroke="#333" stroke-width="10" x1="3717.0" x2="3845.0" y1="4197.0" y2="4197.0" /><line stroke="#333" stroke-width="10" x1="3717.0" x2="3653.0" y1="3813.0" y2="3877.0" /><line stroke="#333" stroke-width="10" x1="4101.0" x2="4165.0" y1="4197.0" y2="4133.0" /><line stroke="#333" stroke-width="10" x1="4101.0" x2="3717.0" y1="3813.0" y2="3813.0" /><line stroke="#333" stroke-width="10" x1="4165.0" x2="4165.0" y1="4133.0" y2="3877.0" /><line stroke="#333" stroke-width="10" x1="3653.0" x2="3717.0" y1="4133.0" y2="4197.0" /><line stroke="#333" stroke-width="10" x1="4165.0" x2="4165.0" y1="613.0" y2="1061.0" /><line stroke="#333" stroke-width="10" x1="4613.0" x2="4613.0" y1="741.0" y2="613.0" /><line stroke="#333" stroke-width="10" x1="4677.0" x2="4293.0" y1="933.0" y2="933.0" /><line stroke="#333" stroke-width="10" x1="4293.0" x2="4613.0" y1="741.0" y2="741.0" /><line stroke="#333" stroke-width="10" x1="2693.0" x2="2693.0" y1="4389.0" y2="4261.0" /><line stroke="#333" stroke-width="10" x1="2565.0" x2="2565.0" y1="4133.0" y2="4261.0" /><line stroke="#333" stroke-width="10" x1="3589.0" x2="2565.0" y1="4133.0" y2="4133.0" /><line stroke="#333" stroke-width="10" x1="2693.0" x2="3461.0" y1="4261.0" y2="4261.0" /><line stroke="#333" stroke-width="10" x1="3461.0" x2="3461.0" y1="4261.0" y2="4581.0" /><line stroke="#333" stroke-width="10" x1="3589.0" x2="3589.0" y1="4453.0" y2="4133.0" /><line stroke="#333" stroke-width="10" x1="3461.0" x2="4549.0" y1="4581.0" y2="4581.0" /><line stroke="#333" stroke-width="10" x1="4421.0" x2="3589.0" y1="4453.0" y2="4453.0" /><line stroke="#333" stroke-width="10" x1="4421.0" x2="4421.0" y1="3621.0" y2="4453.0" /><line stroke="#333" stroke-width="10" x1="4421.0" x2="4421.0" y1="3557.0" y2="3621.0" /><line stroke="#333" stroke-width="10" x1="4549.0" x2="4549.0" y1="4581.0" y2="3621.0" /><line stroke="#333" stroke-width="10" x1="4485.0" x2="4421.0" y1="3557.0" y2="3557.0" /><line stroke="#333" stroke-width="10" x1="4485.0" x2="4485.0" y1="3621.0" y2="3557.0" /><line stroke="#999" stroke-width="3" x1="4485.0" x2="4421.0" y1="3621.0" y2="3621.0" /><line stroke="#333" stroke-width="10" x1="3397.0" x2="2821.0" y1="4389.0" y2="4389.0" /><line stroke="#333" stroke-width="10" x1="2821.0" x2="2821.0" y1="4389.0" y2="4581.0" /><line stroke="#333" stroke-width="10" x1="2949.0" x2="2949.0" y1="4709.0" y2="4517.0" /><line stroke="#333" stroke-width="10" x1="2949.0" x2="3269.0" y1="4517.0" y2="4517.0" /><line stroke="#333" stroke-width="10" x1="3269.0" x2="3269.0" y1="4517.0" y2="4965.0" /><line stroke="#333" stroke-width="10" x1="3397.0" x2="3397.0" y1="4837.0" y2="4389.0" /><line stroke="#333" stroke-width="10" x1="4805.0" x2="4805.0" y1="4837.0" y2="4133.0" /><line stroke="#333" stroke-width="10" x1="4805.0" x2="4805.0" y1="5797.0" y2="4965.0" /><line stroke="#333" stroke-width="10" x1="4677.0" x2="3397.0" y1="4837.0" y2="4837.0" /><line stroke="#333" stroke-width="10" x1="4677.0" x2="4677.0" y1="4005.0" y2="4837.0" /><line stroke="#333" stroke-width="10" x1="5381.0" x2="4677.0" y1="4005.0" y2="4005.0" /><line stroke="#333" stroke-width="10" x1="3269.0" x2="4677.0" y1="4965.0" y2="4965.0" /><line stroke="#333" stroke-width="10" x1="4677.0" x2="4677.0" y1="4965.0" y2="5669.0" /><line stroke="#333" stroke-width="10" x1="4037.0" x2="4805.0" y1="5797.0" y2="5797.0" /><line stroke="#333" stroke-width="10" x1="4805.0" x2="5253.0" y1="4133.0" y2="4133.0" /><line stroke="#333" stroke-width="10" x1="5253.0" x2="5253.0" y1="4133.0" y2="4581.0" /><line stroke="#333" stroke-width="10" x1="5253.0" x2="5509.0" y1="4581.0" y2="4581.0" /><line stroke="#333" stroke-width="10" x1="5381.0" x2="5381.0" y1="4453.0" y2="4005.0" /><line stroke="#333" stroke-width="10" x1="5637.0" x2="5381.0" y1="4453.0" y2="4453.0" /><line stroke="#333" stroke-width="10" x1="5509.0" x2="5509.0" y1="4581.0" y2="4837.0" /><line stroke="#333" stroke-width="10" x1="5637.0" x2="5637.0" y1="4965.0" y2="4453.0" /><line stroke="#333" stroke-width="10" x1="5509.0" x2="4805.0" y1="4837.0" y2="4837.0" /><line stroke="#333" stroke-width="10" x1="4805.0" x2="5637.0" y1="4965.0" y2="4965.0" /><line stroke="#333" stroke-width="10" x1="4677.0" x2="4165.0" y1="5669.0" y2="5669.0" /><line stroke="#333" stroke-width="10" x1="4037.0" x2="4037.0" y1="5157.0" y2="5797.0" /><line stroke="#333" stroke-width="10" x1="4165.0" x2="4165.0" y1="5669.0" y2="5029.0" /><line stroke="#333" stroke-width="10" x1="4165.0" x2="3269.0" y1="5029.0" y2="5029.0" /><line stroke="#333" stroke-width="10" x1="3269.0" x2="3269.0" y1="5029.0" y2="6053.0" /><line stroke="#333" stroke-width="10" x1="3397.0" x2="4037.0" y1="5157.0" y2="5157.0" /><line stroke="#333" stroke-width="10" x1="3397.0" x2="3397.0" y1="5925.0" y2="5157.0" /><line stroke="#333" stroke-width="10" x1="3269.0" x2="3973.0" y1="6053.0" y2="6053.0" /><line stroke="#333" stroke-width="10" x1="3845.0" x2="3397.0" y1="5925.0" y2="5925.0" /><line stroke="#333" stroke-width="10" x1="3973.0" x2="3973.0" y1="6053.0" y2="5221.0" /><line stroke="#333" stroke-width="10" x1="3973.0" x2="3461.0" y1="5221.0" y2="5221.0" /><line stroke="#333" stroke-width="10" x1="3845.0" x2="3845.0" y1="5349.0" y2="5925.0" /><line stroke="#333" stroke-width="10" x1="3461.0" x2="3461.0" y1="5221.0" y2="5861.0" /><line stroke="#333" stroke-width="10" x1="3589.0" x2="3845.0" y1="5349.0" y2="5349.0" /><line stroke="#00d" stroke-width="20" x1="3589.0" x2="3589.0" y1="5861.0" y2="5797.0" /><line stroke="#333" stroke-width="10" x1="3461.0" x2="3589.0" y1="5861.0" y2="5861.0" /><line stroke="#333" stroke-width="10" x1="3653.0" x2="3589.0" y1="5797.0" y2="5797.0" /><line stroke="#333" stroke-width="10" x1="3653.0" x2="3653.0" y1="5861.0" y2="5797.0" /><line stroke="#333" stroke-width="10" x1="3589.0" x2="3653.0" y1="5861.0" y2="5861.0" /><line stroke="#333" stroke-width="10" x1="3589.0" x2="3589.0" y1="5797.0" y2="5349.0" /><line stroke="#333" stroke-width="10" x1="2885.0" x2="2885.0" y1="5029.0" y2="4773.0" /><line stroke="#333" stroke-width="10" x1="3205.0" x2="3205.0" y1="5221.0" y2="5029.0" /><line stroke="#333" stroke-width="10" x1="3205.0" x2="2885.0" y1="5029.0" y2="5029.0" /><line stroke="#333" stroke-width="10" x1="2437.0" x2="2885.0" y1="5477.0" y2="5477.0" /><line stroke="#333" stroke-width="10" x1="2885.0" x2="3205.0" y1="5221.0" y2="5221.0" /><line stroke="#333" stroke-width="10" x1="2885.0" x2="2885.0" y1="5477.0" y2="5221.0" /><line stroke="#333" stroke-width="10" x1="2885.0" x2="2437.0" y1="4773.0" y2="4773.0" /><line stroke="#333" stroke-width="10" x1="2437.0" x2="2437.0" y1="4773.0" y2="5029.0" /><line stroke="#333" stroke-width="10" x1="2437.0" x2="2437.0" y1="5221.0" y2="5477.0" /><line stroke="#333" stroke-width="10" x1="2181.0" x2="2437.0" y1="5221.0" y2="5221.0" /><line stroke="#666" stroke-width="20" x1="2149.0" x2="2149.0" y1="5157.0" y2="5093.0" /><line stroke="#333" stroke-width="10" x1="2437.0" x2="2181.0" y1="5029.0" y2="5029.0" /><line stroke="#333" stroke-width="10" x1="2181.0" x2="2165.0" y1="5093.0" y2="5093.0" /><line stroke="#999" stroke-width="3" x1="2181.0" x2="2181.0" y1="5093.0" y2="5157.0" /><line stroke="#333" stroke-width="10" x1="2165.0" x2="2181.0" y1="5157.0" y2="5157.0" /><line stroke="#333" stroke-width="10" x1="2181.0" x2="2181.0" y1="5029.0" y2="5093.0" /><line stroke="#333" stroke-width="10" x1="2181.0" x2="2181.0" y1="5157.0" y2="5221.0" /><line stroke="#333" stroke-width="10" x1="2165.0" x2="2149.0" y1="5093.0" y2="5093.0" /><line stroke="#666" stroke-width="20" x1="2165.0" x2="2165.0" y1="5093.0" y2="5157.0" /><line stroke="#333" stroke-width="10" x1="2149.0" x2="2165.0" y1="5157.0" y2="5157.0" /><line stroke="#333" stroke-width="10" x1="2149.0" x2="1989.0" y1="5093.0" y2="5093.0" /><line stroke="#0d0" stroke-width="20" x1="1989.0" x2="1989.0" y1="5093.0" y2="5157.0" /><line stroke="#333" stroke-width="10" x1="1989.0" x2="2149.0" y1="5157.0" y2="5157.0" /><ellipse cx="69.0" cy="3045.0" fill="#009" rx="12" ry="24" stroke="#009" stroke-width="5" /><rect fill="#090" height="24" stroke="#090" stroke-width="5" transform="rotate(90,1157.0,4197.0)" width="24" x="1145.0" y="4185.0" /><rect fill="#090" height="24" stroke="#090" stroke-width="5" transform="rotate(90,1189.0,4101.0)" width="24" x="1177.0" y="4089.0" /><rect fill="#090" height="24" stroke="#090" stroke-width="5" transform="rotate(90,1125.0,4181.0)" width="24" x="1113.0" y="4169.0" /><rect fill="#090" height="24" stroke="#090" stroke-width="5" transform="rotate(90,1125.0,4037.0)" width="24" x="1113.0" y="4025.0" /><rect fill="#009" height="24" stroke="#009" stroke-width="5" transform="rotate(270,1349.0,3621.0)" width="24" x="1337.0" y="3609.0" /><circle cx="1797.0" cy="2341.0" fill="#009" r="16" stroke="#009" stroke-width="5" /><rect fill="#090" height="24" stroke="#090" stroke-width="5" transform="rotate(90,1109.0,1733.0)" width="24" x="1097.0" y="1721.0" /><rect fill="#090" height="24" stroke="#090" stroke-width="5" transform="rotate(90,1333.0,1733.0)" width="24" x="1321.0" y="1721.0" /><rect fill="#090" height="24" stroke="#090" stroke-width="5" transform="rotate(90,1109.0,1797.0)" width="24" x="1097.0" y="1785.0" /><rect fill="#090" height="24" stroke="#090" stroke-width="5" transform="rotate(90,1333.0,1797.0)" width="24" x="1321.0" y="1785.0" /><rect fill="#090" height="24" stroke="#090" stroke-width="5" transform="rotate(90,1333.0,1861.0)" width="24" x="1321.0" y="1849.0" /><rect fill="#090" height="24" stroke="#090" stroke-width="5" transform="rotate(90,1109.0,1861.0)" width="24" x="1097.0" y="1849.0" /><rect fill="#090" height="24" stroke="#090" stroke-width="5" transform="rotate(90,1109.0,1925.0)" width="24" x="1097.0" y="1913.0" /><rect fill="#090" height="24" stroke="#090" stroke-width="5" transform="rotate(90,1333.0,1925.0)" width="24" x="1321.0" y="1913.0" /><rect fill="#090" height="24" stroke="#090" stroke-width="5" transform="rotate(90,1333.0,1989.0)" width="24" x="1321.0" y="1977.0" /><rect fill="#090" height="24" stroke="#090" stroke-width="5" transform="rotate(90,1109.0,1989.0)" width="24" x="1097.0" y="1977.0" /><rect fill="#090" height="24" stroke="#090" stroke-width="5" transform="rotate(90,1157.0,1765.0)" width="24" x="1145.0" y="1753.0" /><rect fill="#090" height="24" stroke="#090" stroke-width="5" transform="rotate(90,1285.0,1765.0)" width="24" x="1273.0" y="1753.0" /><circle cx="1541.0" cy="1445.0" fill="#900" r="16" stroke="#900" stroke-width="5" /><rect fill="#900" height="48" stroke="#900" stroke-width="5" transform="rotate(90,3573.0,53.0)" width="32" x="3557.0" y="29.0" /><rect fill="#900" height="48" stroke="#900" stroke-width="5" transform="rotate(90,3285.0,53.0)" width="32" x="3269.0" y="29.0" /><rect fill="#900" height="48" stroke="#900" stroke-width="5" transform="rotate(90,3029.0,53.0)" width="32" x="3013.0" y="29.0" /><rect fill="#900" height="48" stroke="#900" stroke-width="5" transform="rotate(0,2917.0,229.0)" width="32" x="2901.0" y="205.0" /><rect fill="#900" height="48" stroke="#900" stroke-width="5" transform="rotate(0,2917.0,421.0)" width="32" x="2901.0" y="397.0" /><rect fill="#009" height="24" stroke="#009" stroke-width="5" transform="rotate(90,69.0,3045.0)" width="24" x="57.0" y="3033.0" /><rect fill="#900" height="48" stroke="#900" stroke-width="5" transform="rotate(90,2469.0,5253.0)" width="32" x="2453.0" y="5229.0" /><rect fill="#900" height="48" stroke="#900" stroke-width="5" transform="rotate(90,2469.0,5317.0)" width="32" x="2453.0" y="5293.0" /><rect fill="#900" height="48" stroke="#900" stroke-width="5" transform="rotate(90,2533.0,5253.0)" width="32" x="2517.0" y="5229.0" /><rect fill="#900" height="48" stroke="#900" stroke-width="5" transform="rotate(90,2533.0,5317.0)" width="32" x="2517.0" y="5293.0" /><rect fill="#900" height="48" stroke="#900" stroke-width="5" transform="rotate(90,2533.0,5381.0)" width="32" x="2517.0" y="5357.0" /><rect fill="#900" height="48" stroke="#900" stroke-width="5" transform="rotate(90,2469.0,5381.0)" width="32" x="2453.0" y="5357.0" /><rect fill="#900" height="48" stroke="#900" stroke-width="5" transform="rotate(90,2469.0,5445.0)" width="32" x="2453.0" y="5421.0" /><rect fill="#900" height="48" stroke="#900" stroke-width="5" transform="rotate(90,2533.0,5445.0)" width="32" x="2517.0" y="5421.0" /><rect fill="#900" height="48" stroke="#900" stroke-width="5" transform="rotate(270,2533.0,4997.0)" width="32" x="2517.0" y="4973.0" /><rect fill="#900" height="48" stroke="#900" stroke-width="5" transform="rotate(270,2469.0,4997.0)" width="32" x="2453.0" y="4973.0" /><rect fill="#900" height="48" stroke="#900" stroke-width="5" transform="rotate(270,2469.0,4933.0)" width="32" x="2453.0" y="4909.0" /><rect fill="#900" height="48" stroke="#900" stroke-width="5" transform="rotate(270,2533.0,4933.0)" width="32" x="2517.0" y="4909.0" /><rect fill="#900" height="48" stroke="#900" stroke-width="5" transform="rotate(270,2533.0,4869.0)" width="32" x="2517.0" y="4845.0" /><rect fill="#900" height="48" stroke="#900" stroke-width="5" transform="rotate(270,2469.0,4869.0)" width="32" x="2453.0" y="4845.0" /><rect fill="#900" height="48" stroke="#900" stroke-width="5" transform="rotate(270,2469.0,4805.0)" width="32" x="2453.0" y="4781.0" /><rect fill="#900" height="48" stroke="#900" stroke-width="5" transform="rotate(270,2533.0,4805.0)" width="32" x="2517.0" y="4781.0" /><rect fill="#900" height="48" stroke="#900" stroke-width="5" transform="rotate(90,2597.0,5253.0)" width="32" x="2581.0" y="5229.0" /><rect fill="#900" height="48" stroke="#900" stroke-width="5" transform="rotate(90,2597.0,5317.0)" width="32" x="2581.0" y="5293.0" /><rect fill="#900" height="48" stroke="#900" stroke-width="5" transform="rotate(90,2597.0,5445.0)" width="32" x="2581.0" y="5421.0" /><rect fill="#900" height="48" stroke="#900" stroke-width="5" transform="rotate(90,2597.0,5381.0)" width="32" x="2581.0" y="5357.0" /><rect fill="#900" height="48" stroke="#900" stroke-width="5" transform="rotate(90,2661.0,5445.0)" width="32" x="2645.0" y="5421.0" /><rect fill="#900" height="48" stroke="#900" stroke-width="5" transform="rotate(90,2661.0,5381.0)" width="32" x="2645.0" y="5357.0" /><rect fill="#900" height="48" stroke="#900" stroke-width="5" transform="rotate(90,2661.0,5317.0)" width="32" x="2645.0" y="5293.0" /><rect fill="#900" height="48" stroke="#900" stroke-width="5" transform="rotate(90,2661.0,5253.0)" width="32" x="2645.0" y="5229.0" /><rect fill="#900" height="48" stroke="#900" stroke-width="5" transform="rotate(270,2597.0,4997.0)" width="32" x="2581.0" y="4973.0" /><rect fill="#900" height="48" stroke="#900" stroke-width="5" transform="rotate(270,2661.0,4997.0)" width="32" x="2645.0" y="4973.0" /><rect fill="#900" height="48" stroke="#900" stroke-width="5" transform="rotate(270,2661.0,4933.0)" width="32" x="2645.0" y="4909.0" /><rect fill="#900" height="48" stroke="#900" stroke-width="5" transform="rotate(270,2597.0,4933.0)" width="32" x="2581.0" y="4909.0" /><rect fill="#900" height="48" stroke="#900" stroke-width="5" transform="rotate(270,2597.0,4869.0)" width="32" x="2581.0" y="4845.0" /><rect fill="#900" height="48" stroke="#900" stroke-width="5" transform="rotate(270,2661.0,4869.0)" width="32" x="2645.0" y="4845.0" /><rect fill="#900" height="48" stroke="#900" stroke-width="5" transform="rotate(270,2661.0,4805.0)" width="32" x="2645.0" y="4781.0" /><rect fill="#900" height="48" stroke="#900" stroke-width="5" transform="rotate(270,2597.0,4805.0)" width="32" x="2581.0" y="4781.0" /><rect fill="#900" height="48" stroke="#900" stroke-width="5" transform="rotate(270,2725.0,4997.0)" width="32" x="2709.0" y="4973.0" /><rect fill="#900" height="48" stroke="#900" stroke-width="5" transform="rotate(270,2725.0,4901.0)" width="32" x="2709.0" y="4877.0" /><rect fill="#900" height="48" stroke="#900" stroke-width="5" transform="rotate(270,2725.0,4805.0)" width="32" x="2709.0" y="4781.0" /><rect fill="#900" height="48" stroke="#900" stroke-width="5" transform="rotate(90,2725.0,5253.0)" width="32" x="2709.0" y="5229.0" /><rect fill="#900" height="48" stroke="#900" stroke-width="5" transform="rotate(90,2725.0,5349.0)" width="32" x="2709.0" y="5325.0" /><rect fill="#900" height="48" stroke="#900" stroke-width="5" transform="rotate(90,2725.0,5445.0)" width="32" x="2709.0" y="5421.0" /><rect fill="#900" height="48" stroke="#900" stroke-width="5" transform="rotate(90,2821.0,5445.0)" width="32" x="2805.0" y="5421.0" /><rect fill="#900" height="48" stroke="#900" stroke-width="5" transform="rotate(90,2821.0,5349.0)" width="32" x="2805.0" y="5325.0" /><rect fill="#900" height="48" stroke="#900" stroke-width="5" transform="rotate(90,2821.0,5253.0)" width="32" x="2805.0" y="5229.0" /><rect fill="#900" height="48" stroke="#900" stroke-width="5" transform="rotate(270,2821.0,4997.0)" width="32" x="2805.0" y="4973.0" /><rect fill="#900" height="48" stroke="#900" stroke-width="5" transform="rotate(270,2821.0,4901.0)" width="32" x="2805.0" y="4877.0" /><rect fill="#900" height="48" stroke="#900" stroke-width="5" transform="rotate(270,2821.0,4805.0)" width="32" x="2805.0" y="4781.0" /><rect fill="#009" height="24" stroke="#009" stroke-width="5" transform="rotate(180,3173.0,5125.0)" width="24" x="3161.0" y="5113.0" /><rect fill="#090" height="24" stroke="#090" stroke-width="5" transform="rotate(270,69.0,3941.0)" width="24" x="57.0" y="3929.0" /><rect fill="#090" height="24" stroke="#090" stroke-width="5" transform="rotate(270,1621.0,3765.0)" width="24" x="1609.0" y="3753.0" /><rect fill="#090" height="24" stroke="#090" stroke-width="5" transform="rotate(270,229.0,4645.0)" width="24" x="217.0" y="4633.0" /><rect fill="#090" height="24" stroke="#090" stroke-width="5" transform="rotate(270,325.0,4229.0)" width="24" x="313.0" y="4217.0" /><rect fill="#090" height="24" stroke="#090" stroke-width="5" transform="rotate(270,293.0,3237.0)" width="24" x="281.0" y="3225.0" /><rect fill="#090" height="24" stroke="#090" stroke-width="5" transform="rotate(270,1317.0,3365.0)" width="24" x="1305.0" y="3353.0" /><rect fill="#090" height="24" stroke="#090" stroke-width="5" transform="rotate(270,741.0,3365.0)" width="24" x="729.0" y="3353.0" /><rect fill="#090" height="24" stroke="#090" stroke-width="5" transform="rotate(270,2405.0,3205.0)" width="24" x="2393.0" y="3193.0" /><rect fill="#090" height="24" stroke="#090" stroke-width="5" transform="rotate(270,1829.0,2629.0)" width="24" x="1817.0" y="2617.0" /><rect fill="#090" height="24" stroke="#090" stroke-width="5" transform="rotate(270,2565.0,1861.0)" width="24" x="2553.0" y="1849.0" /><rect fill="#090" height="24" stroke="#090" stroke-width="5" transform="rotate(270,1765.0,1637.0)" width="24" x="1753.0" y="1625.0" /><rect fill="#090" height="24" stroke="#090" stroke-width="5" transform="rotate(270,1157.0,1541.0)" width="24" x="1145.0" y="1529.0" /><rect fill="#090" height="24" stroke="#090" stroke-width="5" transform="rotate(270,3781.0,2277.0)" width="24" x="3769.0" y="2265.0" /><rect fill="#090" height="24" stroke="#090" stroke-width="5" transform="rotate(270,4357.0,1541.0)" width="24" x="4345.0" y="1529.0" /><rect fill="#090" height="24" stroke="#090" stroke-width="5" transform="rotate(270,3141.0,1093.0)" width="24" x="3129.0" y="1081.0" /><rect fill="#090" height="24" stroke="#090" stroke-width="5" transform="rotate(270,3781.0,613.0)" width="24" x="3769.0" y="601.0" /><rect fill="#090" height="24" stroke="#090" stroke-width="5" transform="rotate(270,4069.0,613.0)" width="24" x="4057.0" y="601.0" /><rect fill="#090" height="24" stroke="#090" stroke-width="5" transform="rotate(270,4645.0,1477.0)" width="24" x="4633.0" y="1465.0" /><rect fill="#090" height="24" stroke="#090" stroke-width="5" transform="rotate(270,4261.0,3461.0)" width="24" x="4249.0" y="3449.0" /><rect fill="#090" height="24" stroke="#090" stroke-width="5" transform="rotate(270,2213.0,3749.0)" width="24" x="2201.0" y="3737.0" /><rect fill="#090" height="24" stroke="#090" stroke-width="5" transform="rotate(270,2885.0,4229.0)" width="24" x="2873.0" y="4217.0" /><rect fill="#090" height="24" stroke="#090" stroke-width="5" transform="rotate(270,3333.0,4773.0)" width="24" x="3321.0" y="4761.0" /><rect fill="#090" height="24" stroke="#090" stroke-width="5" transform="rotate(270,4069.0,5349.0)" width="24" x="4057.0" y="5337.0" /><rect fill="#090" height="24" stroke="#090" stroke-width="5" transform="rotate(270,5317.0,4517.0)" width="24" x="5305.0" y="4505.0" /><rect fill="#090" height="24" stroke="#090" stroke-width="5" transform="rotate(270,2885.0,3749.0)" width="24" x="2873.0" y="3737.0" /><rect fill="#090" height="24" stroke="#090" stroke-width="5" transform="rotate(270,1605.0,4613.0)" width="24" x="1593.0" y="4601.0" /><rect fill="#090" height="24" stroke="#090" stroke-width="5" transform="rotate(270,2501.0,2501.0)" width="24" x="2489.0" y="2489.0" /><rect fill="#090" height="24" stroke="#090" stroke-width="5" transform="rotate(270,549.0,4613.0)" width="24" x="537.0" y="4601.0" /><rect fill="#090" height="24" stroke="#090" stroke-width="5" transform="rotate(270,3621.0,2053.0)" width="24" x="3609.0" y="2041.0" /><rect fill="#090" height="24" stroke="#090" stroke-width="5" transform="rotate(270,3813.0,933.0)" width="24" x="3801.0" y="921.0" /><rect fill="#090" height="24" stroke="#090" stroke-width="5" transform="rotate(270,1733.0,1029.0)" width="24" x="1721.0" y="1017.0" /><rect fill="#090" height="24" stroke="#090" stroke-width="5" transform="rotate(270,4325.0,2821.0)" width="24" x="4313.0" y="2809.0" /><rect fill="#090" height="24" stroke="#090" stroke-width="5" transform="rotate(270,2981.0,2821.0)" width="24" x="2969.0" y="2809.0" /><rect fill="#090" height="24" stroke="#090" stroke-width="5" transform="rotate(270,3525.0,4325.0)" width="24" x="3513.0" y="4313.0" /><rect fill="#090" height="24" stroke="#090" stroke-width="5" transform="rotate(270,4773.0,4933.0)" width="24" x="4761.0" y="4921.0" /><rect fill="#090" height="24" stroke="#090" stroke-width="5" transform="rotate(270,3301.0,5445.0)" width="24" x="3289.0" y="5433.0" /><rect fill="#090" height="24" stroke="#090" stroke-width="5" transform="rotate(270,2181.0,1797.0)" width="24" x="2169.0" y="1785.0" /></svg>