<?xml version="1.0" encoding="utf-8" ?>
<svg baseProfile="tiny" height="1024" version="1.2" viewBox="0 0 2314 2570" width="921" xmlns="http://www.w3.org/2000/svg" xmlns:ev="http://www.w3.org/2001/xml-events" xmlns:xlink="http://www.w3.org/1999/xlink"><defs /><line stroke="#333" stroke-width="10" x1="261.0" x2="261.0" y1="2053.0" y2="2309.0" /><line stroke="#999" stroke-width="3" x1="517.0" x2="261.0" y1="2053.0" y2="2053.0" /><line stroke="#999" stroke-width="3" x1="517.0" x2="517.0" y1="2309.0" y2="2053.0" /><line stroke="#333" stroke-width="10" x1="261.0" x2="517.0" y1="2309.0" y2="2309.0" /><line stroke="#333" stroke-width="10" x1="517.0" x2="773.0" y1="2309.0" y2="2309.0" /><line stroke="#999" stroke-width="3" x1="773.0" x2="773.0" y1="2309.0" y2="2053.0" /><line stroke="#999" stroke-width="3" x1="773.0" x2="517.0" y1="2053.0" y2="2053.0" /><line stroke="#333" stroke-width="10" x1="773.0" x2="1029.0" y1="2309.0" y2="2309.0" /><line stroke="#999" stroke-width="3" x1="1029.0" x2="1029.0" y1="2309.0" y2="2053.0" /><line stroke="#999" stroke-width="3" x1="1029.0" x2="773.0" y1="2053.0" y2="2053.0" /><line stroke="#333" stroke-width="10" x1="1029.0" x2="1093.0" y1="2309.0" y2="2309.0" /><line stroke="#999" stroke-width="3" x1="1285.0" x2="1285.0" y1="2309.0" y2="2053.0" /><line stroke="#999" stroke-width="3" x1="1285.0" x2="1029.0" y1="2053.0" y2="2053.0" /><line stroke="#333" stroke-width="10" x1="1285.0" x2="1541.0" y1="2309.0" y2="2309.0" /><line stroke="#999" stroke-width="3" x1="1541.0" x2="1541.0" y1="2309.0" y2="2053.0" /><line stroke="#999" stroke-width="3" x1="1541.0" x2="1285.0" y1="2053.0" y2="2053.0" /><line stroke="#333" stroke-width="10" x1="1541.0" x2="1797.0" y1="2309.0" y2="2309.0" /><line stroke="#999" stroke-width="3" x1="1797.0" x2="1797.0" y1="2309.0" y2="2053.0" /><line stroke="#999" stroke-width="3" x1="1797.0" x2="1541.0" y1="2053.0" y2="2053.0" /><line stroke="#333" stroke-width="10" x1="1797.0" x2="2053.0" y1="2309.0" y2="2309.0" /><line stroke="#999" stroke-width="3" x1="2053.0" x2="2053.0" y1="2309.0" y2="2053.0" /><line stroke="#999" stroke-width="3" x1="2053.0" x2="1797.0" y1="2053.0" y2="2053.0" /><line stroke="#333" stroke-width="10" x1="2053.0" x2="2309.0" y1="2309.0" y2="2309.0" /><line stroke="#333" stroke-width="10" x1="2309.0" x2="2309.0" y1="2309.0" y2="2053.0" /><line stroke="#999" stroke-width="3" x1="2309.0" x2="2053.0" y1="2053.0" y2="2053.0" /><line stroke="#333" stroke-width="10" x1="261.0" x2="261.0" y1="1797.0" y2="2053.0" /><line stroke="#999" stroke-width="3" x1="517.0" x2="517.0" y1="2053.0" y2="1797.0" /><line stroke="#999" stroke-width="3" x1="517.0" x2="261.0" y1="1797.0" y2="1797.0" /><line stroke="#333" stroke-width="10" x1="261.0" x2="261.0" y1="1541.0" y2="1797.0" /><line stroke="#999" stroke-width="3" x1="517.0" x2="517.0" y1="1797.0" y2="1541.0" /><line stroke="#999" stroke-width="3" x1="517.0" x2="261.0" y1="1541.0" y2="1541.0" /><line stroke="#333" stroke-width="10" x1="261.0" x2="261.0" y1="1285.0" y2="1349.0" /><line stroke="#999" stroke-width="3" x1="517.0" x2="517.0" y1="1541.0" y2="1285.0" /><line stroke="#999" stroke-width="3" x1="517.0" x2="261.0" y1="1285.0" y2="1285.0" /><line stroke="#333" stroke-width="10" x1="261.0" x2="261.0" y1="1029.0" y2="1285.0" /><line stroke="#999" stroke-width="3" x1="517.0" x2="517.0" y1="1285.0" y2="1029.0" /><line stroke="#999" stroke-width="3" x1="517.0" x2="261.0" y1="1029.0" y2="1029.0" /><line stroke="#333" stroke-width="10" x1="261.0" x2="261.0" y1="773.0" y2="1029.0" /><line stroke="#999" stroke-width="3" x1="517.0" x2="517.0" y1="1029.0" y2="773.0" /><line stroke="#999" stroke-width="3" x1="517.0" x2="261.0" y1="773.0" y2="773.0" /><line stroke="#333" stroke-width="10" x1="261.0" x2="261.0" y1="517.0" y2="773.0" /><line stroke="#999" stroke-width="3" x1="517.0" x2="517.0" y1="773.0" y2="517.0" /><line stroke="#999" stroke-width="3" x1="517.0" x2="261.0" y1="517.0" y2="517.0" /><line stroke="#333" stroke-width="10" x1="261.0" x2="261.0" y1="261.0" y2="517.0" /><line stroke="#999" stroke-width="3" x1="517.0" x2="517.0" y1="517.0" y2="261.0" /><line stroke="#333" stroke-width="10" x1="517.0" x2="261.0" y1="261.0" y2="261.0" /><line stroke="#999" stroke-width="3" x1="773.0" x2="773.0" y1="2053.0" y2="1797.0" /><line stroke="#999" stroke-width="3" x1="773.0" x2="517.0" y1="1797.0" y2="1797.0" /><line stroke="#999" stroke-width="3" x1="773.0" x2="773.0" y1="1797.0" y2="1541.0" /><line stroke="#999" stroke-width="3" x1="773.0" x2="517.0" y1="1541.0" y2="1541.0" /><line stroke="#999" stroke-width="3" x1="773.0" x2="773.0" y1="1541.0" y2="1285.0" /><line stroke="#999" stroke-width="3" x1="773.0" x2="517.0" y1="1285.0" y2="1285.0" /><line stroke="#999" stroke-width="3" x1="773.0" x2="773.0" y1="1285.0" y2="1029.0" /><line stroke="#999" stroke-width="3" x1="773.0" x2="517.0" y1="1029.0" y2="1029.0" /><line stroke="#999" stroke-width="3" x1="773.0" x2="773.0" y1="1029.0" y2="773.0" /><line stroke="#999" stroke-width="3" x1="773.0" x2="517.0" y1="773.0" y2="773.0" /><line stroke="#999" stroke-width="3" x1="773.0" x2="773.0" y1="773.0" y2="517.0" /><line stroke="#999" stroke-width="3" x1="773.0" x2="517.0" y1="517.0" y2="517.0" /><line stroke="#999" stroke-width="3" x1="773.0" x2="773.0" y1="517.0" y2="261.0" /><line stroke="#333" stroke-width="10" x1="773.0" x2="517.0" y1="261.0" y2="261.0" /><line stroke="#999" stroke-width="3" x1="1029.0" x2="1029.0" y1="2053.0" y2="1797.0" /><line stroke="#999" stroke-width="3" x1="1029.0" x2="773.0" y1="1797.0" y2="1797.0" /><line stroke="#999" stroke-width="3" x1="1285.0" x2="1285.0" y1="2053.0" y2="1797.0" /><line stroke="#999" stroke-width="3" x1="1285.0" x2="1029.0" y1="1797.0" y2="1797.0" /><line stroke="#999" stroke-width="3" x1="1541.0" x2="1541.0" y1="2053.0" y2="1797.0" /><line stroke="#999" stroke-width="3" x1="1541.0" x2="1285.0" y1="1797.0" y2="1797.0" /><line stroke="#999" stroke-width="3" x1="1797.0" x2="1797.0" y1="2053.0" y2="1797.0" /><line stroke="#999" stroke-width="3" x1="1797.0" x2="1541.0" y1="1797.0" y2="1797.0" /><line stroke="#999" stroke-width="3" x1="2053.0" x2="2053.0" y1="2053.0" y2="1797.0" /><line stroke="#999" stroke-width="3" x1="2053.0" x2="1797.0" y1="1797.0" y2="1797.0" /><line stroke="#333" stroke-width="10" x1="2309.0" x2="2309.0" y1="2053.0" y2="1797.0" /><line stroke="#999" stroke-width="3" x1="2309.0" x2="2053.0" y1="1797.0" y2="1797.0" /><line stroke="#999" stroke-width="3" x1="1029.0" x2="1029.0" y1="1797.0" y2="1541.0" /><line stroke="#999" stroke-width="3" x1="1029.0" x2="773.0" y1="1541.0" y2="1541.0" /><line stroke="#999" stroke-width="3" x1="1029.0" x2="1029.0" y1="1541.0" y2="1285.0" /><line stroke="#999" stroke-width="3" x1="1029.0" x2="773.0" y1="1285.0" y2="1285.0" /><line stroke="#999" stroke-width="3" x1="1029.0" x2="1029.0" y1="1285.0" y2="1029.0" /><line stroke="#999" stroke-width="3" x1="1029.0" x2="773.0" y1="1029.0" y2="1029.0" /><line stroke="#999" stroke-width="3" x1="1029.0" x2="1029.0" y1="1029.0" y2="773.0" /><line stroke="#999" stroke-width="3" x1="1029.0" x2="773.0" y1="773.0" y2="773.0" /><line stroke="#999" stroke-width="3" x1="1029.0" x2="1029.0" y1="773.0" y2="517.0" /><line stroke="#999" stroke-width="3" x1="1029.0" x2="773.0" y1="517.0" y2="517.0" /><line stroke="#999" stroke-width="3" x1="1029.0" x2="1029.0" y1="517.0" y2="261.0" /><line stroke="#333" stroke-width="10" x1="1029.0" x2="773.0" y1="261.0" y2="261.0" /><line stroke="#999" stroke-width="3" x1="1285.0" x2="1285.0" y1="1797.0" y2="1541.0" /><line stroke="#999" stroke-width="3" x1="1285.0" x2="1029.0" y1="1541.0" y2="1541.0" /><line stroke="#999" stroke-width="3" x1="1285.0" x2="1285.0" y1="1541.0" y2="1285.0" /><line stroke="#999" stroke-width="3" x1="1285.0" x2="1029.0" y1="1285.0" y2="1285.0" /><line stroke="#999" stroke-width="3" x1="1285.0" x2="1285.0" y1="1285.0" y2="1029.0" /><line stroke="#999" stroke-width="3" x1="1285.0" x2="1029.0" y1="1029.0" y2="1029.0" /><line stroke="#999" stroke-width="3" x1="1285.0" x2="1285.0" y1="1029.0" y2="773.0" /><line stroke="#999" stroke-width="3" x1="1285.0" x2="1029.0" y1="773.0" y2="773.0" /><line stroke="#999" stroke-width="3" x1="1285.0" x2="1285.0" y1="773.0" y2="517.0" /><line stroke="#999" stroke-width="3" x1="1285.0" x2="1029.0" y1="517.0" y2="517.0" /><line stroke="#999" stroke-width="3" x1="1285.0" x2="1285.0" y1="517.0" y2="261.0" /><line stroke="#333" stroke-width="10" x1="1285.0" x2="1029.0" y1="261.0" y2="261.0" /><line stroke="#999" stroke-width="3" x1="1541.0" x2="1541.0" y1="1797.0" y2="1541.0" /><line stroke="#999" stroke-width="3" x1="1541.0" x2="1285.0" y1="1541.0" y2="1541.0" /><line stroke="#999" stroke-width="3" x1="1797.0" x2="1797.0" y1="1797.0" y2="1541.0" /><line stroke="#999" stroke-width="3" x1="1797.0" x2="1541.0" y1="1541.0" y2="1541.0" /><line stroke="#999" stroke-width="3" x1="2053.0" x2="2053.0" y1="1797.0" y2="1541.0" /><line stroke="#999" stroke-width="3" x1="2053.0" x2="1797.0" y1="1541.0" y2="1541.0" /><line stroke="#333" stroke-width="10" x1="2309.0" x2="2309.0" y1="1797.0" y2="1541.0" /><line stroke="#999" stroke-width="3" x1="2309.0" x2="2053.0" y1="1541.0" y2="1541.0" /><line stroke="#999" stroke-width="3" x1="1541.0" x2="1541.0" y1="1541.0" y2="1285.0" /><line stroke="#999" stroke-width="3" x1="1541.0" x2="1285.0" y1="1285.0" y2="1285.0" /><line stroke="#999" stroke-width="3" x1="1797.0" x2="1797.0" y1="1541.0" y2="1285.0" /><line stroke="#999" stroke-width="3" x1="1797.0" x2="1541.0" y1="1285.0" y2="1285.0" /><line stroke="#999" stroke-width="3" x1="2053.0" x2="2053.0" y1="1541.0" y2="1285.0" /><line stroke="#999" stroke-width="3" x1="2053.0" x2="1797.0" y1="1285.0" y2="1285.0" /><line stroke="#333" stroke-width="10" x1="2309.0" x2="2309.0" y1="1541.0" y2="1285.0" /><line stroke="#999" stroke-width="3" x1="2309.0" x2="2053.0" y1="1285.0" y2="1285.0" /><line stroke="#999" stroke-width="3" x1="1541.0" x2="1541.0" y1="1285.0" y2="1029.0" /><line stroke="#999" stroke-width="3" x1="1541.0" x2="1285.0" y1="1029.0" y2="1029.0" /><line stroke="#999" stroke-width="3" x1="1797.0" x2="1797.0" y1="1285.0" y2="1029.0" /><line stroke="#999" stroke-width="3" x1="1797.0" x2="1541.0" y1="1029.0" y2="1029.0" /><line stroke="#999" stroke-width="3" x1="2053.0" x2="2053.0" y1="1285.0" y2="1029.0" /><line stroke="#999" stroke-width="3" x1="2053.0" x2="1797.0" y1="1029.0" y2="1029.0" /><line stroke="#333" stroke-width="10" x1="2309.0" x2="2309.0" y1="1285.0" y2="1029.0" /><line stroke="#999" stroke-width="3" x1="2309.0" x2="2053.0" y1="1029.0" y2="1029.0" /><line stroke="#999" stroke-width="3" x1="1541.0" x2="1541.0" y1="1029.0" y2="773.0" /><line stroke="#999" stroke-width="3" x1="1541.0" x2="1285.0" y1="773.0" y2="773.0" /><line stroke="#999" stroke-width="3" x1="1797.0" x2="1797.0" y1="1029.0" y2="773.0" /><line stroke="#999" stroke-width="3" x1="1797.0" x2="1541.0" y1="773.0" y2="773.0" /><line stroke="#999" stroke-width="3" x1="2053.0" x2="2053.0" y1="1029.0" y2="773.0" /><line stroke="#999" stroke-width="3" x1="2053.0" x2="1797.0" y1="773.0" y2="773.0" /><line stroke="#333" stroke-width="10" x1="2309.0" x2="2309.0" y1="1029.0" y2="773.0" /><line stroke="#999" stroke-width="3" x1="2309.0" x2="2053.0" y1="773.0" y2="773.0" /><line stroke="#999" stroke-width="3" x1="1541.0" x2="1541.0" y1="773.0" y2="517.0" /><line stroke="#999" stroke-width="3" x1="1541.0" x2="1285.0" y1="517.0" y2="517.0" /><line stroke="#999" stroke-width="3" x1="1797.0" x2="1797.0" y1="773.0" y2="517.0" /><line stroke="#999" stroke-width="3" x1="1797.0" x2="1541.0" y1="517.0" y2="517.0" /><line stroke="#999" stroke-width="3" x1="2053.0" x2="2053.0" y1="773.0" y2="517.0" /><line stroke="#999" stroke-width="3" x1="2053.0" x2="1797.0" y1="517.0" y2="517.0" /><line stroke="#333" stroke-width="10" x1="2309.0" x2="2309.0" y1="773.0" y2="517.0" /><line stroke="#999" stroke-width="3" x1="2309.0" x2="2053.0" y1="517.0" y2="517.0" /><line stroke="#999" stroke-width="3" x1="1541.0" x2="1541.0" y1="517.0" y2="261.0" /><line stroke="#333" stroke-width="10" x1="1541.0" x2="1477.0" y1="261.0" y2="261.0" /><line stroke="#999" stroke-width="3" x1="1797.0" x2="1797.0" y1="517.0" y2="261.0" /><line stroke="#333" stroke-width="10" x1="1797.0" x2="1541.0" y1="261.0" y2="261.0" /><line stroke="#999" stroke-width="3" x1="2053.0" x2="2053.0" y1="517.0" y2="261.0" /><line stroke="#333" stroke-width="10" x1="2053.0" x2="1797.0" y1="261.0" y2="261.0" /><line stroke="#333" stroke-width="10" x1="2309.0" x2="2309.0" y1="517.0" y2="261.0" /><line stroke="#333" stroke-width="10" x1="2309.0" x2="2053.0" y1="261.0" y2="261.0" /><line stroke="#666" stroke-width="20" x1="1477.0" x2="1349.0" y1="261.0" y2="261.0" /><line stroke="#333" stroke-width="10" x1="1349.0" x2="1285.0" y1="261.0" y2="261.0" /><line stroke="#333" stroke-width="10" x1="1285.0" x2="1285.0" y1="5.0" y2="245.0" /><line stroke="#333" stroke-width="10" x1="1285.0" x2="1349.0" y1="245.0" y2="245.0" /><line stroke="#666" stroke-width="20" x1="1349.0" x2="1477.0" y1="245.0" y2="245.0" /><line stroke="#333" stroke-width="10" x1="1477.0" x2="1541.0" y1="245.0" y2="245.0" /><line stroke="#333" stroke-width="10" x1="1541.0" x2="1541.0" y1="245.0" y2="5.0" /><line stroke="#333" stroke-width="10" x1="1541.0" x2="1285.0" y1="5.0" y2="5.0" /><line stroke="#333" stroke-width="10" x1="1349.0" x2="1349.0" y1="245.0" y2="261.0" /><line stroke="#333" stroke-width="10" x1="1477.0" x2="1477.0" y1="261.0" y2="245.0" /><line stroke="#333" stroke-width="10" x1="1221.0" x2="1285.0" y1="2309.0" y2="2309.0" /><line stroke="#666" stroke-width="20" x1="1093.0" x2="1221.0" y1="2309.0" y2="2309.0" /><line stroke="#333" stroke-width="10" x1="1029.0" x2="1029.0" y1="2325.0" y2="2565.0" /><line stroke="#333" stroke-width="10" x1="1029.0" x2="1125.0" y1="2565.0" y2="2565.0" /><line stroke="#333" stroke-width="10" x1="1285.0" x2="1285.0" y1="2565.0" y2="2325.0" /><line stroke="#333" stroke-width="10" x1="1285.0" x2="1221.0" y1="2325.0" y2="2325.0" /><line stroke="#999" stroke-width="3" x1="1221.0" x2="1093.0" y1="2325.0" y2="2325.0" /><line stroke="#333" stroke-width="10" x1="1093.0" x2="1029.0" y1="2325.0" y2="2325.0" /><line stroke="#333" stroke-width="10" x1="1093.0" x2="1093.0" y1="2309.0" y2="2325.0" /><line stroke="#333" stroke-width="10" x1="1221.0" x2="1221.0" y1="2325.0" y2="2309.0" /><line stroke="#0d0" stroke-width="20" x1="1125.0" x2="1189.0" y1="2565.0" y2="2565.0" /><line stroke="#333" stroke-width="10" x1="1189.0" x2="1285.0" y1="2565.0" y2="2565.0" /><line stroke="#666" stroke-width="20" x1="261.0" x2="261.0" y1="1349.0" y2="1477.0" /><line stroke="#333" stroke-width="10" x1="261.0" x2="261.0" y1="1477.0" y2="1541.0" /><line stroke="#333" stroke-width="10" x1="5.0" x2="5.0" y1="1285.0" y2="1349.0" /><line stroke="#333" stroke-width="10" x1="5.0" x2="245.0" y1="1541.0" y2="1541.0" /><line stroke="#333" stroke-width="10" x1="245.0" x2="245.0" y1="1541.0" y2="1477.0" /><line stroke="#666" stroke-width="20" x1="245.0" x2="245.0" y1="1477.0" y2="1349.0" /><line stroke="#333" stroke-width="10" x1="245.0" x2="245.0" y1="1349.0" y2="1285.0" /><line stroke="#333" stroke-width="10" x1="245.0" x2="5.0" y1="1285.0" y2="1285.0" /><line stroke="#333" stroke-width="10" x1="245.0" x2="261.0" y1="1477.0" y2="1477.0" /><line stroke="#333" stroke-width="10" x1="261.0" x2="245.0" y1="1349.0" y2="1349.0" /><line stroke="#0d0" stroke-width="20" x1="5.0" x2="5.0" y1="1349.0" y2="1477.0" /><line stroke="#333" stroke-width="10" x1="5.0" x2="5.0" y1="1477.0" y2="1541.0" /><ellipse cx="1413.0" cy="389.0" fill="#009" rx="12" ry="24" stroke="#009" stroke-width="5" /><circle cx="389.0" cy="645.0" fill="#009" r="16" stroke="#009" stroke-width="5" /><circle cx="653.0" cy="645.0" fill="#009" r="16" stroke="#009" stroke-width="5" /><circle cx="901.0" cy="645.0" fill="#009" r="16" stroke="#009" stroke-width="5" /><circle cx="1157.0" cy="645.0" fill="#009" r="16" stroke="#009" stroke-width="5" /><circle cx="1413.0" cy="645.0" fill="#009" r="16" stroke="#009" stroke-width="5" /><circle cx="1669.0" cy="645.0" fill="#009" r="16" stroke="#009" stroke-width="5" /><circle cx="1925.0" cy="645.0" fill="#009" r="16" stroke="#009" stroke-width="5" /><circle cx="2181.0" cy="645.0" fill="#009" r="16" stroke="#009" stroke-width="5" /><circle cx="397.0" cy="389.0" fill="#900" r="16" stroke="#900" stroke-width="5" /><circle cx="2181.0" cy="389.0" fill="#900" r="16" stroke="#900" stroke-width="5" /><circle cx="1925.0" cy="389.0" fill="#900" r="16" stroke="#900" stroke-width="5" /><circle cx="645.0" cy="389.0" fill="#900" r="16" stroke="#900" stroke-width="5" /><circle cx="1669.0" cy="389.0" fill="#900" r="16" stroke="#900" stroke-width="5" /><circle cx="901.0" cy="389.0" fill="#900" r="16" stroke="#900" stroke-width="5" /><circle cx="1157.0" cy="389.0" fill="#900" r="16" stroke="#900" stroke-width="5" /><rect fill="#900" height="48" stroke="#900" stroke-width="5" transform="rotate(90,389.0,1925.0)" width="32" x="373.0" y="1901.0" /><rect fill="#900" height="48" stroke="#900" stroke-width="5" transform="rotate(90,645.0,1925.0)" width="32" x="629.0" y="1901.0" /><rect fill="#900" height="48" stroke="#900" stroke-width="5" transform="rotate(90,901.0,1925.0)" width="32" x="885.0" y="1901.0" /><rect fill="#900" height="48" stroke="#900" stroke-width="5" transform="rotate(90,1157.0,1925.0)" width="32" x="1141.0" y="1901.0" /><rect fill="#900" height="48" stroke="#900" stroke-width="5" transform="rotate(90,1413.0,1925.0)" width="32" x="1397.0" y="1901.0" /><rect fill="#900" height="48" stroke="#900" stroke-width="5" transform="rotate(90,1669.0,1925.0)" width="32" x="1653.0" y="1901.0" /><rect fill="#900" height="48" stroke="#900" stroke-width="5" transform="rotate(90,1925.0,1925.0)" width="32" x="1909.0" y="1901.0" /><rect fill="#900" height="48" stroke="#900" stroke-width="5" transform="rotate(90,2181.0,1925.0)" width="32" x="2165.0" y="1901.0" /><rect fill="#900" height="48" stroke="#900" stroke-width="5" transform="rotate(90,389.0,2181.0)" width="32" x="373.0" y="2157.0" /><rect fill="#900" height="48" stroke="#900" stroke-width="5" transform="rotate(90,2181.0,2181.0)" width="32" x="2165.0" y="2157.0" /><rect fill="#900" height="48" stroke="#900" stroke-width="5" transform="rotate(90,645.0,2181.0)" width="32" x="629.0" y="2157.0" /><rect fill="#900" height="48" stroke="#900" stroke-width="5" transform="rotate(90,1925.0,2181.0)" width="32" x="1909.0" y="2157.0" /><rect fill="#900" height="48" stroke="#900" stroke-width="5" transform="rotate(90,1669.0,2181.0)" width="32" x="1653.0" y="2157.0" /><rect fill="#900" height="48" stroke="#900" stroke-width="5" transform="rotate(90,1413.0,2181.0)" width="32" x="1397.0" y="2157.0" /><rect fill="#900" height="48" stroke="#900" stroke-width="5" transform="rotate(90,1157.0,2181.0)" width="32" x="1141.0" y="2157.0" /><rect fill="#900" height="48" stroke="#900" stroke-width="5" transform="rotate(90,901.0,2181.0)" width="32" x="885.0" y="2157.0" /><ellipse cx="1349.0" cy="389.0" fill="#009" rx="12" ry="24" stroke="#009" stroke-width="5" /><ellipse cx="1477.0" cy="389.0" fill="#009" rx="12" ry="24" stroke="#009" stroke-width="5" /><ellipse cx="1413.0" cy="453.0" fill="#009" rx="12" ry="24" stroke="#009" stroke-width="5" /><rect fill="#090" height="24" stroke="#090" stroke-width="5" transform="rotate(0,389.0,1413.0)" width="24" x="377.0" y="1401.0" /><rect fill="#090" height="24" stroke="#090" stroke-width="5" transform="rotate(0,2181.0,1157.0)" width="24" x="2169.0" y="1145.0" /><rect fill="#090" height="24" stroke="#090" stroke-width="5" transform="rotate(0,2181.0,1413.0)" width="24" x="2169.0" y="1401.0" /><rect fill="#090" height="24" stroke="#090" stroke-width="5" transform="rotate(0,389.0,1157.0)" width="24" x="377.0" y="1145.0" /><circle cx="1413.0" cy="133.0" fill="#009" r="16" stroke="#009" stroke-width="5" /><circle cx="1349.0" cy="69.0" fill="#090" r="16" stroke="#090" stroke-width="5" /><circle cx="1413.0" cy="69.0" fill="#009" r="16" stroke="#009" stroke-width="5" /><circle cx="1476.0" cy="71.0" fill="#009" r="16" stroke="#009" stroke-width="5" /></svg>