<?xml version="1.0" encoding="utf-8" ?>
<svg baseProfile="tiny" height="1014" version="1.2" viewBox="0 0 1690 1674" width="1024" xmlns="http://www.w3.org/2000/svg" xmlns:ev="http://www.w3.org/2001/xml-events" xmlns:xlink="http://www.w3.org/1999/xlink"><defs /><line stroke="#333" stroke-width="10" x1="1349.0" x2="1349.0" y1="837.0" y2="645.0" /><line stroke="#999" stroke-width="3" x1="837.0" x2="1349.0" y1="1349.0" y2="837.0" /><line stroke="#999" stroke-width="3" x1="325.0" x2="837.0" y1="837.0" y2="1349.0" /><line stroke="#333" stroke-width="10" x1="325.0" x2="325.0" y1="645.0" y2="837.0" /><line stroke="#333" stroke-width="10" x1="1349.0" x2="837.0" y1="645.0" y2="645.0" /><line stroke="#333" stroke-width="10" x1="773.0" x2="325.0" y1="645.0" y2="645.0" /><line stroke="#999" stroke-width="3" x1="773.0" x2="837.0" y1="645.0" y2="645.0" /><line stroke="#333" stroke-width="10" x1="837.0" x2="837.0" y1="645.0" y2="613.0" /><line stroke="#333" stroke-width="10" x1="837.0" x2="773.0" y1="613.0" y2="613.0" /><line stroke="#333" stroke-width="10" x1="773.0" x2="773.0" y1="613.0" y2="645.0" /><line stroke="#333" stroke-width="10" x1="837.0" x2="901.0" y1="1349.0" y2="1413.0" /><line stroke="#999" stroke-width="3" x1="901.0" x2="1413.0" y1="1413.0" y2="901.0" /><line stroke="#333" stroke-width="10" x1="1413.0" x2="1349.0" y1="901.0" y2="837.0" /><line stroke="#333" stroke-width="10" x1="325.0" x2="261.0" y1="837.0" y2="901.0" /><line stroke="#999" stroke-width="3" x1="261.0" x2="773.0" y1="901.0" y2="1413.0" /><line stroke="#333" stroke-width="10" x1="773.0" x2="837.0" y1="1413.0" y2="1349.0" /><line stroke="#333" stroke-width="10" x1="261.0" x2="261.0" y1="901.0" y2="645.0" /><line stroke="#333" stroke-width="10" x1="5.0" x2="5.0" y1="645.0" y2="1669.0" /><line stroke="#333" stroke-width="10" x1="5.0" x2="805.0" y1="1669.0" y2="1669.0" /><line stroke="#333" stroke-width="10" x1="805.0" x2="805.0" y1="1669.0" y2="1605.0" /><line stroke="#333" stroke-width="10" x1="901.0" x2="869.0" y1="1413.0" y2="1477.0" /><line stroke="#333" stroke-width="10" x1="869.0" x2="1669.0" y1="1669.0" y2="1669.0" /><line stroke="#333" stroke-width="10" x1="1669.0" x2="1669.0" y1="1669.0" y2="645.0" /><line stroke="#333" stroke-width="10" x1="1413.0" x2="1413.0" y1="645.0" y2="901.0" /><line stroke="#333" stroke-width="10" x1="805.0" x2="869.0" y1="1605.0" y2="1605.0" /><line stroke="#999" stroke-width="3" x1="869.0" x2="869.0" y1="1605.0" y2="1477.0" /><line stroke="#333" stroke-width="10" x1="869.0" x2="805.0" y1="1477.0" y2="1477.0" /><line stroke="#999" stroke-width="3" x1="805.0" x2="805.0" y1="1477.0" y2="1605.0" /><line stroke="#333" stroke-width="10" x1="869.0" x2="869.0" y1="1605.0" y2="1669.0" /><line stroke="#333" stroke-width="10" x1="805.0" x2="773.0" y1="1477.0" y2="1413.0" /><line stroke="#666" stroke-width="20" x1="261.0" x2="5.0" y1="645.0" y2="645.0" /><line stroke="#333" stroke-width="10" x1="261.0" x2="261.0" y1="645.0" y2="629.0" /><line stroke="#333" stroke-width="10" x1="5.0" x2="5.0" y1="629.0" y2="645.0" /><line stroke="#666" stroke-width="20" x1="1669.0" x2="1413.0" y1="645.0" y2="645.0" /><line stroke="#333" stroke-width="10" x1="1669.0" x2="1669.0" y1="645.0" y2="629.0" /><line stroke="#333" stroke-width="10" x1="1413.0" x2="1413.0" y1="629.0" y2="645.0" /><line stroke="#666" stroke-width="20" x1="5.0" x2="261.0" y1="629.0" y2="629.0" /><line stroke="#333" stroke-width="10" x1="757.0" x2="757.0" y1="629.0" y2="597.0" /><line stroke="#333" stroke-width="10" x1="5.0" x2="5.0" y1="437.0" y2="629.0" /><line stroke="#333" stroke-width="10" x1="261.0" x2="757.0" y1="629.0" y2="629.0" /><line stroke="#333" stroke-width="10" x1="853.0" x2="1413.0" y1="629.0" y2="629.0" /><line stroke="#333" stroke-width="10" x1="1669.0" x2="1669.0" y1="629.0" y2="437.0" /><line stroke="#666" stroke-width="20" x1="1413.0" x2="1669.0" y1="629.0" y2="629.0" /><line stroke="#333" stroke-width="10" x1="757.0" x2="797.0" y1="597.0" y2="597.0" /><line stroke="#333" stroke-width="10" x1="853.0" x2="853.0" y1="597.0" y2="629.0" /><line stroke="#333" stroke-width="10" x1="813.0" x2="797.0" y1="485.0" y2="485.0" /><line stroke="#333" stroke-width="10" x1="797.0" x2="773.0" y1="485.0" y2="485.0" /><line stroke="#333" stroke-width="10" x1="813.0" x2="853.0" y1="597.0" y2="597.0" /><line stroke="#333" stroke-width="10" x1="797.0" x2="813.0" y1="597.0" y2="597.0" /><line stroke="#999" stroke-width="3" x1="797.0" x2="797.0" y1="597.0" y2="485.0" /><line stroke="#999" stroke-width="3" x1="813.0" x2="813.0" y1="485.0" y2="597.0" /><line stroke="#999" stroke-width="3" x1="725.0" x2="773.0" y1="437.0" y2="485.0" /><line stroke="#333" stroke-width="10" x1="773.0" x2="773.0" y1="485.0" y2="469.0" /><line stroke="#333" stroke-width="10" x1="725.0" x2="5.0" y1="437.0" y2="437.0" /><line stroke="#999" stroke-width="3" x1="837.0" x2="885.0" y1="485.0" y2="437.0" /><line stroke="#333" stroke-width="10" x1="885.0" x2="885.0" y1="437.0" y2="373.0" /><line stroke="#333" stroke-width="10" x1="837.0" x2="837.0" y1="469.0" y2="485.0" /><line stroke="#333" stroke-width="10" x1="837.0" x2="813.0" y1="485.0" y2="485.0" /><line stroke="#333" stroke-width="10" x1="885.0" x2="837.0" y1="373.0" y2="373.0" /><line stroke="#333" stroke-width="10" x1="725.0" x2="725.0" y1="373.0" y2="437.0" /><line stroke="#333" stroke-width="10" x1="773.0" x2="837.0" y1="469.0" y2="469.0" /><line stroke="#666" stroke-width="20" x1="837.0" x2="773.0" y1="373.0" y2="373.0" /><line stroke="#333" stroke-width="10" x1="837.0" x2="837.0" y1="373.0" y2="357.0" /><line stroke="#333" stroke-width="10" x1="773.0" x2="773.0" y1="357.0" y2="373.0" /><line stroke="#333" stroke-width="10" x1="773.0" x2="725.0" y1="373.0" y2="373.0" /><line stroke="#666" stroke-width="20" x1="773.0" x2="837.0" y1="357.0" y2="357.0" /><line stroke="#333" stroke-width="10" x1="837.0" x2="837.0" y1="357.0" y2="293.0" /><line stroke="#333" stroke-width="10" x1="773.0" x2="773.0" y1="293.0" y2="357.0" /><line stroke="#666" stroke-width="20" x1="837.0" x2="773.0" y1="293.0" y2="293.0" /><line stroke="#333" stroke-width="10" x1="837.0" x2="837.0" y1="293.0" y2="277.0" /><line stroke="#333" stroke-width="10" x1="773.0" x2="773.0" y1="277.0" y2="293.0" /><line stroke="#333" stroke-width="10" x1="725.0" x2="773.0" y1="277.0" y2="277.0" /><line stroke="#333" stroke-width="10" x1="885.0" x2="885.0" y1="277.0" y2="261.0" /><line stroke="#333" stroke-width="10" x1="725.0" x2="725.0" y1="261.0" y2="277.0" /><line stroke="#333" stroke-width="10" x1="837.0" x2="885.0" y1="277.0" y2="277.0" /><line stroke="#666" stroke-width="20" x1="773.0" x2="837.0" y1="277.0" y2="277.0" /><line stroke="#333" stroke-width="10" x1="677.0" x2="725.0" y1="261.0" y2="261.0" /><line stroke="#333" stroke-width="10" x1="933.0" x2="933.0" y1="261.0" y2="213.0" /><line stroke="#333" stroke-width="10" x1="885.0" x2="933.0" y1="261.0" y2="261.0" /><line stroke="#333" stroke-width="10" x1="933.0" x2="885.0" y1="213.0" y2="213.0" /><line stroke="#333" stroke-width="10" x1="677.0" x2="677.0" y1="213.0" y2="261.0" /><line stroke="#333" stroke-width="10" x1="885.0" x2="885.0" y1="213.0" y2="197.0" /><line stroke="#333" stroke-width="10" x1="885.0" x2="837.0" y1="197.0" y2="197.0" /><line stroke="#333" stroke-width="10" x1="725.0" x2="725.0" y1="197.0" y2="213.0" /><line stroke="#333" stroke-width="10" x1="725.0" x2="677.0" y1="213.0" y2="213.0" /><line stroke="#666" stroke-width="20" x1="837.0" x2="773.0" y1="197.0" y2="197.0" /><line stroke="#333" stroke-width="10" x1="837.0" x2="837.0" y1="197.0" y2="181.0" /><line stroke="#333" stroke-width="10" x1="773.0" x2="773.0" y1="181.0" y2="197.0" /><line stroke="#333" stroke-width="10" x1="773.0" x2="725.0" y1="197.0" y2="197.0" /><line stroke="#666" stroke-width="20" x1="773.0" x2="837.0" y1="181.0" y2="181.0" /><line stroke="#333" stroke-width="10" x1="757.0" x2="773.0" y1="181.0" y2="181.0" /><line stroke="#333" stroke-width="10" x1="773.0" x2="757.0" y1="117.0" y2="117.0" /><line stroke="#666" stroke-width="20" x1="773.0" x2="773.0" y1="117.0" y2="181.0" /><line stroke="#333" stroke-width="10" x1="757.0" x2="709.0" y1="117.0" y2="117.0" /><line stroke="#666" stroke-width="20" x1="757.0" x2="757.0" y1="181.0" y2="117.0" /><line stroke="#333" stroke-width="10" x1="709.0" x2="709.0" y1="197.0" y2="181.0" /><line stroke="#333" stroke-width="10" x1="709.0" x2="757.0" y1="181.0" y2="181.0" /><line stroke="#333" stroke-width="10" x1="629.0" x2="661.0" y1="213.0" y2="213.0" /><line stroke="#333" stroke-width="10" x1="661.0" x2="661.0" y1="213.0" y2="197.0" /><line stroke="#333" stroke-width="10" x1="661.0" x2="709.0" y1="197.0" y2="197.0" /><line stroke="#333" stroke-width="10" x1="709.0" x2="661.0" y1="101.0" y2="101.0" /><line stroke="#333" stroke-width="10" x1="709.0" x2="709.0" y1="117.0" y2="101.0" /><line stroke="#333" stroke-width="10" x1="661.0" x2="629.0" y1="85.0" y2="85.0" /><line stroke="#333" stroke-width="10" x1="629.0" x2="629.0" y1="85.0" y2="117.0" /><line stroke="#333" stroke-width="10" x1="661.0" x2="661.0" y1="101.0" y2="85.0" /><line stroke="#333" stroke-width="10" x1="901.0" x2="949.0" y1="197.0" y2="197.0" /><line stroke="#333" stroke-width="10" x1="901.0" x2="901.0" y1="181.0" y2="197.0" /><line stroke="#333" stroke-width="10" x1="949.0" x2="981.0" y1="213.0" y2="213.0" /><line stroke="#333" stroke-width="10" x1="981.0" x2="981.0" y1="213.0" y2="181.0" /><line stroke="#333" stroke-width="10" x1="949.0" x2="949.0" y1="197.0" y2="213.0" /><line stroke="#333" stroke-width="10" x1="837.0" x2="853.0" y1="181.0" y2="181.0" /><line stroke="#999" stroke-width="3" x1="853.0" x2="853.0" y1="117.0" y2="181.0" /><line stroke="#333" stroke-width="10" x1="853.0" x2="837.0" y1="117.0" y2="117.0" /><line stroke="#999" stroke-width="3" x1="837.0" x2="837.0" y1="181.0" y2="117.0" /><line stroke="#333" stroke-width="10" x1="853.0" x2="901.0" y1="181.0" y2="181.0" /><line stroke="#333" stroke-width="10" x1="901.0" x2="901.0" y1="101.0" y2="117.0" /><line stroke="#333" stroke-width="10" x1="901.0" x2="853.0" y1="117.0" y2="117.0" /><line stroke="#333" stroke-width="10" x1="981.0" x2="949.0" y1="85.0" y2="85.0" /><line stroke="#333" stroke-width="10" x1="949.0" x2="949.0" y1="85.0" y2="101.0" /><line stroke="#333" stroke-width="10" x1="949.0" x2="901.0" y1="101.0" y2="101.0" /><line stroke="#666" stroke-width="20" x1="629.0" x2="629.0" y1="117.0" y2="181.0" /><line stroke="#333" stroke-width="10" x1="629.0" x2="629.0" y1="181.0" y2="213.0" /><line stroke="#333" stroke-width="10" x1="981.0" x2="981.0" y1="117.0" y2="85.0" /><line stroke="#666" stroke-width="20" x1="837.0" x2="773.0" y1="117.0" y2="117.0" /><line stroke="#333" stroke-width="10" x1="837.0" x2="837.0" y1="117.0" y2="101.0" /><line stroke="#333" stroke-width="10" x1="773.0" x2="773.0" y1="101.0" y2="117.0" /><line stroke="#333" stroke-width="10" x1="1669.0" x2="885.0" y1="437.0" y2="437.0" /><line stroke="#333" stroke-width="10" x1="725.0" x2="773.0" y1="101.0" y2="101.0" /><line stroke="#333" stroke-width="10" x1="885.0" x2="885.0" y1="101.0" y2="85.0" /><line stroke="#333" stroke-width="10" x1="725.0" x2="725.0" y1="85.0" y2="101.0" /><line stroke="#333" stroke-width="10" x1="837.0" x2="885.0" y1="101.0" y2="101.0" /><line stroke="#666" stroke-width="20" x1="773.0" x2="837.0" y1="101.0" y2="101.0" /><line stroke="#333" stroke-width="10" x1="677.0" x2="725.0" y1="85.0" y2="85.0" /><line stroke="#333" stroke-width="10" x1="933.0" x2="933.0" y1="85.0" y2="69.0" /><line stroke="#333" stroke-width="10" x1="677.0" x2="677.0" y1="69.0" y2="85.0" /><line stroke="#333" stroke-width="10" x1="885.0" x2="933.0" y1="85.0" y2="85.0" /><line stroke="#333" stroke-width="10" x1="629.0" x2="661.0" y1="69.0" y2="69.0" /><line stroke="#0d0" stroke-width="20" x1="981.0" x2="981.0" y1="69.0" y2="5.0" /><line stroke="#333" stroke-width="10" x1="981.0" x2="949.0" y1="5.0" y2="5.0" /><line stroke="#666" stroke-width="20" x1="629.0" x2="629.0" y1="5.0" y2="69.0" /><line stroke="#333" stroke-width="10" x1="933.0" x2="949.0" y1="69.0" y2="69.0" /><line stroke="#999" stroke-width="3" x1="949.0" x2="949.0" y1="5.0" y2="69.0" /><line stroke="#333" stroke-width="10" x1="949.0" x2="933.0" y1="5.0" y2="5.0" /><line stroke="#999" stroke-width="3" x1="933.0" x2="933.0" y1="69.0" y2="5.0" /><line stroke="#333" stroke-width="10" x1="949.0" x2="981.0" y1="69.0" y2="69.0" /><line stroke="#333" stroke-width="10" x1="933.0" x2="677.0" y1="5.0" y2="5.0" /><line stroke="#333" stroke-width="10" x1="661.0" x2="677.0" y1="69.0" y2="69.0" /><line stroke="#666" stroke-width="20" x1="677.0" x2="677.0" y1="5.0" y2="69.0" /><line stroke="#333" stroke-width="10" x1="677.0" x2="661.0" y1="5.0" y2="5.0" /><line stroke="#666" stroke-width="20" x1="661.0" x2="661.0" y1="69.0" y2="5.0" /><line stroke="#333" stroke-width="10" x1="661.0" x2="629.0" y1="5.0" y2="5.0" /><line stroke="#333" stroke-width="10" x1="981.0" x2="997.0" y1="181.0" y2="181.0" /><line stroke="#666" stroke-width="20" x1="997.0" x2="997.0" y1="117.0" y2="181.0" /><line stroke="#333" stroke-width="10" x1="997.0" x2="981.0" y1="117.0" y2="117.0" /><line stroke="#666" stroke-width="20" x1="981.0" x2="981.0" y1="181.0" y2="117.0" /><line stroke="#333" stroke-width="10" x1="997.0" x2="1589.0" y1="181.0" y2="181.0" /><line stroke="#333" stroke-width="10" x1="1621.0" x2="1589.0" y1="117.0" y2="117.0" /><line stroke="#333" stroke-width="10" x1="1589.0" x2="1621.0" y1="181.0" y2="181.0" /><line stroke="#333" stroke-width="10" x1="1589.0" x2="997.0" y1="117.0" y2="117.0" /><line stroke="#666" stroke-width="20" x1="1589.0" x2="1589.0" y1="181.0" y2="117.0" /><line stroke="#333" stroke-width="10" x1="1621.0" x2="1621.0" y1="181.0" y2="189.0" /><line stroke="#333" stroke-width="10" x1="1621.0" x2="1685.0" y1="189.0" y2="189.0" /><line stroke="#333" stroke-width="10" x1="1685.0" x2="1685.0" y1="189.0" y2="117.0" /><line stroke="#0d0" stroke-width="20" x1="1685.0" x2="1621.0" y1="117.0" y2="117.0" /><line stroke="#666" stroke-width="20" x1="1621.0" x2="1621.0" y1="117.0" y2="181.0" /><circle cx="1653.0" cy="149.0" fill="#009" r="16" stroke="#009" stroke-width="5" /><rect fill="#090" height="24" stroke="#090" stroke-width="5" transform="rotate(180,909.0,237.0)" width="24" x="897.0" y="225.0" /><rect fill="#090" height="24" stroke="#090" stroke-width="5" transform="rotate(180,701.0,237.0)" width="24" x="689.0" y="225.0" /><ellipse cx="357.0" cy="677.0" fill="#009" rx="12" ry="24" stroke="#009" stroke-width="5" /><ellipse cx="405.0" cy="677.0" fill="#009" rx="12" ry="24" stroke="#009" stroke-width="5" /><ellipse cx="1317.0" cy="677.0" fill="#009" rx="12" ry="24" stroke="#009" stroke-width="5" /><ellipse cx="1269.0" cy="677.0" fill="#009" rx="12" ry="24" stroke="#009" stroke-width="5" /><rect fill="#090" height="24" stroke="#090" stroke-width="5" transform="rotate(90,805.0,645.0)" width="24" x="793.0" y="633.0" /><rect fill="#090" height="24" stroke="#090" stroke-width="5" transform="rotate(90,37.0,469.0)" width="24" x="25.0" y="457.0" /><rect fill="#090" height="24" stroke="#090" stroke-width="5" transform="rotate(90,1637.0,469.0)" width="24" x="1625.0" y="457.0" /><rect fill="#090" height="24" stroke="#090" stroke-width="5" transform="rotate(270,773.0,1637.0)" width="24" x="761.0" y="1625.0" /><rect fill="#090" height="24" stroke="#090" stroke-width="5" transform="rotate(270,901.0,1637.0)" width="24" x="889.0" y="1625.0" /><rect fill="#900" height="48" stroke="#900" stroke-width="5" transform="rotate(270,53.0,1621.0)" width="32" x="37.0" y="1597.0" /><rect fill="#900" height="48" stroke="#900" stroke-width="5" transform="rotate(270,1621.0,1621.0)" width="32" x="1605.0" y="1597.0" /><rect fill="#900" height="48" stroke="#900" stroke-width="5" transform="rotate(90,133.0,693.0)" width="32" x="117.0" y="669.0" /><rect fill="#900" height="48" stroke="#900" stroke-width="5" transform="rotate(90,1541.0,693.0)" width="32" x="1525.0" y="669.0" /><rect fill="#900" height="48" stroke="#900" stroke-width="5" transform="rotate(90,749.0,397.0)" width="32" x="733.0" y="373.0" /><rect fill="#900" height="48" stroke="#900" stroke-width="5" transform="rotate(90,861.0,397.0)" width="32" x="845.0" y="373.0" /><rect fill="#900" height="48" stroke="#900" stroke-width="5" transform="rotate(270,805.0,445.0)" width="32" x="789.0" y="421.0" /><rect fill="#900" height="48" stroke="#900" stroke-width="5" transform="rotate(180,725.0,597.0)" width="32" x="709.0" y="573.0" /><rect fill="#900" height="48" stroke="#900" stroke-width="5" transform="rotate(180,693.0,469.0)" width="32" x="677.0" y="445.0" /><rect fill="#900" height="48" stroke="#900" stroke-width="5" transform="rotate(0,917.0,469.0)" width="32" x="901.0" y="445.0" /><rect fill="#900" height="48" stroke="#900" stroke-width="5" transform="rotate(0,885.0,597.0)" width="32" x="869.0" y="573.0" /><rect fill="#900" height="48" stroke="#900" stroke-width="5" transform="rotate(270,133.0,597.0)" width="32" x="117.0" y="573.0" /><rect fill="#900" height="48" stroke="#900" stroke-width="5" transform="rotate(270,1541.0,597.0)" width="32" x="1525.0" y="573.0" /><circle cx="357.0" cy="725.0" fill="#900" r="16" stroke="#900" stroke-width="5" /><circle cx="405.0" cy="725.0" fill="#900" r="16" stroke="#900" stroke-width="5" /><circle cx="1269.0" cy="725.0" fill="#900" r="16" stroke="#900" stroke-width="5" /><circle cx="1317.0" cy="725.0" fill="#900" r="16" stroke="#900" stroke-width="5" /><circle cx="85.0" cy="469.0" fill="#900" r="16" stroke="#900" stroke-width="5" /><circle cx="85.0" cy="517.0" fill="#900" r="16" stroke="#900" stroke-width="5" /><circle cx="37.0" cy="517.0" fill="#900" r="16" stroke="#900" stroke-width="5" /><circle cx="725.0" cy="1637.0" fill="#900" r="16" stroke="#900" stroke-width="5" /><circle cx="725.0" cy="1589.0" fill="#900" r="16" stroke="#900" stroke-width="5" /><circle cx="773.0" cy="1589.0" fill="#900" r="16" stroke="#900" stroke-width="5" /><circle cx="901.0" cy="1589.0" fill="#900" r="16" stroke="#900" stroke-width="5" /><circle cx="949.0" cy="1589.0" fill="#900" r="16" stroke="#900" stroke-width="5" /><circle cx="949.0" cy="1637.0" fill="#900" r="16" stroke="#900" stroke-width="5" /><circle cx="1589.0" cy="469.0" fill="#900" r="16" stroke="#900" stroke-width="5" /><circle cx="1589.0" cy="517.0" fill="#900" r="16" stroke="#900" stroke-width="5" /><circle cx="1637.0" cy="517.0" fill="#900" r="16" stroke="#900" stroke-width="5" /><circle cx="805.0" cy="149.0" fill="#009" r="16" stroke="#009" stroke-width="5" /><circle cx="805.0" cy="325.0" fill="#009" r="16" stroke="#009" stroke-width="5" /><circle cx="773.0" cy="1349.0" fill="#090" r="16" stroke="#090" stroke-width="5" /><circle cx="725.0" cy="1301.0" fill="#090" r="16" stroke="#090" stroke-width="5" /><circle cx="677.0" cy="1253.0" fill="#090" r="16" stroke="#090" stroke-width="5" /><circle cx="629.0" cy="1205.0" fill="#090" r="16" stroke="#090" stroke-width="5" /><circle cx="581.0" cy="1157.0" fill="#090" r="16" stroke="#090" stroke-width="5" /><circle cx="533.0" cy="1109.0" fill="#090" r="16" stroke="#090" stroke-width="5" /><circle cx="485.0" cy="1061.0" fill="#090" r="16" stroke="#090" stroke-width="5" /><circle cx="437.0" cy="1013.0" fill="#090" r="16" stroke="#090" stroke-width="5" /><circle cx="389.0" cy="965.0" fill="#090" r="16" stroke="#090" stroke-width="5" /><circle cx="341.0" cy="917.0" fill="#090" r="16" stroke="#090" stroke-width="5" /><circle cx="1333.0" cy="917.0" fill="#090" r="16" stroke="#090" stroke-width="5" /><circle cx="1285.0" cy="965.0" fill="#090" r="16" stroke="#090" stroke-width="5" /><circle cx="1237.0" cy="1013.0" fill="#090" r="16" stroke="#090" stroke-width="5" /><circle cx="1189.0" cy="1061.0" fill="#090" r="16" stroke="#090" stroke-width="5" /><circle cx="1141.0" cy="1109.0" fill="#090" r="16" stroke="#090" stroke-width="5" /><circle cx="1093.0" cy="1157.0" fill="#090" r="16" stroke="#090" stroke-width="5" /><circle cx="1045.0" cy="1205.0" fill="#090" r="16" stroke="#090" stroke-width="5" /><circle cx="997.0" cy="1253.0" fill="#090" r="16" stroke="#090" stroke-width="5" /><circle cx="949.0" cy="1301.0" fill="#090" r="16" stroke="#090" stroke-width="5" /><circle cx="901.0" cy="1349.0" fill="#090" r="16" stroke="#090" stroke-width="5" /><rect fill="#900" height="48" stroke="#900" stroke-width="5" transform="rotate(270,837.0,1509.0)" width="32" x="821.0" y="1485.0" /><rect fill="#900" height="48" stroke="#900" stroke-width="5" transform="rotate(90,837.0,1573.0)" width="32" x="821.0" y="1549.0" /><circle cx="741.0" cy="677.0" fill="#009" r="16" stroke="#009" stroke-width="5" /><circle cx="805.0" cy="709.0" fill="#009" r="16" stroke="#009" stroke-width="5" /><circle cx="869.0" cy="677.0" fill="#009" r="16" stroke="#009" stroke-width="5" /><circle cx="741.0" cy="741.0" fill="#009" r="16" stroke="#009" stroke-width="5" /><circle cx="869.0" cy="741.0" fill="#009" r="16" stroke="#009" stroke-width="5" /><circle cx="805.0" cy="773.0" fill="#009" r="16" stroke="#009" stroke-width="5" /><circle cx="677.0" cy="709.0" fill="#009" r="16" stroke="#009" stroke-width="5" /><circle cx="933.0" cy="709.0" fill="#009" r="16" stroke="#009" stroke-width="5" /><rect fill="#090" height="24" stroke="#090" stroke-width="5" transform="rotate(270,677.0,757.0)" width="24" x="665.0" y="745.0" /><rect fill="#090" height="24" stroke="#090" stroke-width="5" transform="rotate(270,933.0,757.0)" width="24" x="921.0" y="745.0" /><rect fill="#090" height="24" stroke="#090" stroke-width="5" transform="rotate(270,741.0,789.0)" width="24" x="729.0" y="777.0" /><rect fill="#090" height="24" stroke="#090" stroke-width="5" transform="rotate(270,869.0,789.0)" width="24" x="857.0" y="777.0" /><rect fill="#090" height="24" stroke="#090" stroke-width="5" transform="rotate(270,805.0,821.0)" width="24" x="793.0" y="809.0" /><rect fill="#090" height="24" stroke="#090" stroke-width="5" transform="rotate(270,53.0,1557.0)" width="24" x="41.0" y="1545.0" /><rect fill="#090" height="24" stroke="#090" stroke-width="5" transform="rotate(270,117.0,1621.0)" width="24" x="105.0" y="1609.0" /><rect fill="#090" height="24" stroke="#090" stroke-width="5" transform="rotate(270,1621.0,1557.0)" width="24" x="1609.0" y="1545.0" /><rect fill="#090" height="24" stroke="#090" stroke-width="5" transform="rotate(270,1557.0,1621.0)" width="24" x="1545.0" y="1609.0" /><rect fill="#090" height="24" stroke="#090" stroke-width="5" transform="rotate(270,1541.0,757.0)" width="24" x="1529.0" y="745.0" /><rect fill="#090" height="24" stroke="#090" stroke-width="5" transform="rotate(270,133.0,757.0)" width="24" x="121.0" y="745.0" /><rect fill="#090" height="24" stroke="#090" stroke-width="5" transform="rotate(270,613.0,725.0)" width="24" x="601.0" y="713.0" /><rect fill="#090" height="24" stroke="#090" stroke-width="5" transform="rotate(270,997.0,725.0)" width="24" x="985.0" y="713.0" /><rect fill="#090" height="24" stroke="#090" stroke-width="5" transform="rotate(270,613.0,677.0)" width="24" x="601.0" y="665.0" /><rect fill="#090" height="24" stroke="#090" stroke-width="5" transform="rotate(270,997.0,677.0)" width="24" x="985.0" y="665.0" /><rect fill="#090" height="24" stroke="#090" stroke-width="5" transform="rotate(270,837.0,1301.0)" width="24" x="825.0" y="1289.0" /><rect fill="#090" height="24" stroke="#090" stroke-width="5" transform="rotate(270,757.0,1461.0)" width="24" x="745.0" y="1449.0" /><rect fill="#090" height="24" stroke="#090" stroke-width="5" transform="rotate(270,917.0,1461.0)" width="24" x="905.0" y="1449.0" /><rect fill="#900" height="48" stroke="#900" stroke-width="5" transform="rotate(180,1045.0,149.0)" width="32" x="1029.0" y="125.0" /><rect fill="#900" height="48" stroke="#900" stroke-width="5" transform="rotate(180,1133.0,149.0)" width="32" x="1117.0" y="125.0" /><rect fill="#900" height="48" stroke="#900" stroke-width="5" transform="rotate(180,1221.0,149.0)" width="32" x="1205.0" y="125.0" /><rect fill="#900" height="48" stroke="#900" stroke-width="5" transform="rotate(180,1309.0,149.0)" width="32" x="1293.0" y="125.0" /><rect fill="#900" height="48" stroke="#900" stroke-width="5" transform="rotate(180,1397.0,149.0)" width="32" x="1381.0" y="125.0" /><rect fill="#900" height="48" stroke="#900" stroke-width="5" transform="rotate(180,1485.0,149.0)" width="32" x="1469.0" y="125.0" /><rect fill="#900" height="48" stroke="#900" stroke-width="5" transform="rotate(180,1565.0,149.0)" width="32" x="1549.0" y="125.0" /></svg>