<?xml version="1.0" encoding="utf-8" ?>
<svg baseProfile="tiny" height="1024" version="1.2" viewBox="0 0 394 394" width="1024" xmlns="http://www.w3.org/2000/svg" xmlns:ev="http://www.w3.org/2001/xml-events" xmlns:xlink="http://www.w3.org/1999/xlink"><defs /><line stroke="#999" stroke-width="3" x1="197.0" x2="229.0" y1="197.0" y2="197.0" /><line stroke="#999" stroke-width="3" x1="261.0" x2="229.0" y1="197.0" y2="197.0" /><line stroke="#999" stroke-width="3" x1="261.0" x2="293.0" y1="197.0" y2="197.0" /><line stroke="#999" stroke-width="3" x1="325.0" x2="293.0" y1="197.0" y2="197.0" /><line stroke="#999" stroke-width="3" x1="325.0" x2="357.0" y1="197.0" y2="197.0" /><line stroke="#999" stroke-width="3" x1="389.0" x2="357.0" y1="197.0" y2="197.0" /><line stroke="#333" stroke-width="10" x1="389.0" x2="389.0" y1="197.0" y2="165.0" /><line stroke="#999" stroke-width="3" x1="357.0" x2="389.0" y1="165.0" y2="165.0" /><line stroke="#999" stroke-width="3" x1="357.0" x2="325.0" y1="165.0" y2="165.0" /><line stroke="#999" stroke-width="3" x1="293.0" x2="325.0" y1="165.0" y2="165.0" /><line stroke="#999" stroke-width="3" x1="293.0" x2="261.0" y1="165.0" y2="165.0" /><line stroke="#999" stroke-width="3" x1="229.0" x2="261.0" y1="165.0" y2="165.0" /><line stroke="#999" stroke-width="3" x1="229.0" x2="197.0" y1="165.0" y2="165.0" /><line stroke="#999" stroke-width="3" x1="165.0" x2="197.0" y1="165.0" y2="165.0" /><line stroke="#999" stroke-width="3" x1="165.0" x2="133.0" y1="165.0" y2="165.0" /><line stroke="#999" stroke-width="3" x1="101.0" x2="133.0" y1="165.0" y2="165.0" /><line stroke="#999" stroke-width="3" x1="101.0" x2="69.0" y1="165.0" y2="165.0" /><line stroke="#999" stroke-width="3" x1="37.0" x2="69.0" y1="165.0" y2="165.0" /><line stroke="#999" stroke-width="3" x1="37.0" x2="5.0" y1="165.0" y2="165.0" /><line stroke="#333" stroke-width="10" x1="5.0" x2="5.0" y1="133.0" y2="165.0" /><line stroke="#999" stroke-width="3" x1="5.0" x2="37.0" y1="133.0" y2="133.0" /><line stroke="#999" stroke-width="3" x1="69.0" x2="37.0" y1="133.0" y2="133.0" /><line stroke="#999" stroke-width="3" x1="69.0" x2="101.0" y1="133.0" y2="133.0" /><line stroke="#999" stroke-width="3" x1="133.0" x2="101.0" y1="133.0" y2="133.0" /><line stroke="#999" stroke-width="3" x1="133.0" x2="165.0" y1="133.0" y2="133.0" /><line stroke="#999" stroke-width="3" x1="197.0" x2="165.0" y1="133.0" y2="133.0" /><line stroke="#999" stroke-width="3" x1="197.0" x2="229.0" y1="133.0" y2="133.0" /><line stroke="#999" stroke-width="3" x1="261.0" x2="229.0" y1="133.0" y2="133.0" /><line stroke="#999" stroke-width="3" x1="261.0" x2="293.0" y1="133.0" y2="133.0" /><line stroke="#999" stroke-width="3" x1="325.0" x2="293.0" y1="133.0" y2="133.0" /><line stroke="#999" stroke-width="3" x1="325.0" x2="357.0" y1="133.0" y2="133.0" /><line stroke="#999" stroke-width="3" x1="389.0" x2="357.0" y1="133.0" y2="133.0" /><line stroke="#333" stroke-width="10" x1="389.0" x2="389.0" y1="133.0" y2="101.0" /><line stroke="#999" stroke-width="3" x1="357.0" x2="389.0" y1="101.0" y2="101.0" /><line stroke="#999" stroke-width="3" x1="357.0" x2="325.0" y1="101.0" y2="101.0" /><line stroke="#999" stroke-width="3" x1="293.0" x2="325.0" y1="101.0" y2="101.0" /><line stroke="#999" stroke-width="3" x1="293.0" x2="261.0" y1="101.0" y2="101.0" /><line stroke="#999" stroke-width="3" x1="229.0" x2="261.0" y1="101.0" y2="101.0" /><line stroke="#999" stroke-width="3" x1="229.0" x2="197.0" y1="101.0" y2="101.0" /><line stroke="#999" stroke-width="3" x1="165.0" x2="197.0" y1="101.0" y2="101.0" /><line stroke="#999" stroke-width="3" x1="165.0" x2="133.0" y1="101.0" y2="101.0" /><line stroke="#999" stroke-width="3" x1="101.0" x2="133.0" y1="101.0" y2="101.0" /><line stroke="#999" stroke-width="3" x1="101.0" x2="69.0" y1="101.0" y2="101.0" /><line stroke="#999" stroke-width="3" x1="37.0" x2="69.0" y1="101.0" y2="101.0" /><line stroke="#999" stroke-width="3" x1="37.0" x2="5.0" y1="101.0" y2="101.0" /><line stroke="#333" stroke-width="10" x1="5.0" x2="5.0" y1="69.0" y2="101.0" /><line stroke="#999" stroke-width="3" x1="5.0" x2="37.0" y1="69.0" y2="69.0" /><line stroke="#999" stroke-width="3" x1="69.0" x2="37.0" y1="69.0" y2="69.0" /><line stroke="#999" stroke-width="3" x1="69.0" x2="101.0" y1="69.0" y2="69.0" /><line stroke="#999" stroke-width="3" x1="133.0" x2="101.0" y1="69.0" y2="69.0" /><line stroke="#999" stroke-width="3" x1="133.0" x2="165.0" y1="69.0" y2="69.0" /><line stroke="#999" stroke-width="3" x1="197.0" x2="165.0" y1="69.0" y2="69.0" /><line stroke="#999" stroke-width="3" x1="197.0" x2="229.0" y1="69.0" y2="69.0" /><line stroke="#999" stroke-width="3" x1="261.0" x2="229.0" y1="69.0" y2="69.0" /><line stroke="#999" stroke-width="3" x1="261.0" x2="293.0" y1="69.0" y2="69.0" /><line stroke="#999" stroke-width="3" x1="325.0" x2="293.0" y1="69.0" y2="69.0" /><line stroke="#999" stroke-width="3" x1="325.0" x2="357.0" y1="69.0" y2="69.0" /><line stroke="#999" stroke-width="3" x1="389.0" x2="357.0" y1="69.0" y2="69.0" /><line stroke="#333" stroke-width="10" x1="389.0" x2="389.0" y1="69.0" y2="37.0" /><line stroke="#999" stroke-width="3" x1="357.0" x2="389.0" y1="37.0" y2="37.0" /><line stroke="#999" stroke-width="3" x1="357.0" x2="325.0" y1="37.0" y2="37.0" /><line stroke="#999" stroke-width="3" x1="293.0" x2="325.0" y1="37.0" y2="37.0" /><line stroke="#999" stroke-width="3" x1="293.0" x2="261.0" y1="37.0" y2="37.0" /><line stroke="#999" stroke-width="3" x1="229.0" x2="261.0" y1="37.0" y2="37.0" /><line stroke="#999" stroke-width="3" x1="229.0" x2="197.0" y1="37.0" y2="37.0" /><line stroke="#999" stroke-width="3" x1="165.0" x2="197.0" y1="37.0" y2="37.0" /><line stroke="#999" stroke-width="3" x1="165.0" x2="133.0" y1="37.0" y2="37.0" /><line stroke="#999" stroke-width="3" x1="101.0" x2="133.0" y1="37.0" y2="37.0" /><line stroke="#999" stroke-width="3" x1="101.0" x2="69.0" y1="37.0" y2="37.0" /><line stroke="#999" stroke-width="3" x1="37.0" x2="69.0" y1="37.0" y2="37.0" /><line stroke="#999" stroke-width="3" x1="37.0" x2="5.0" y1="37.0" y2="37.0" /><line stroke="#999" stroke-width="3" x1="357.0" x2="389.0" y1="357.0" y2="357.0" /><line stroke="#999" stroke-width="3" x1="357.0" x2="325.0" y1="357.0" y2="357.0" /><line stroke="#999" stroke-width="3" x1="293.0" x2="325.0" y1="357.0" y2="357.0" /><line stroke="#999" stroke-width="3" x1="293.0" x2="261.0" y1="357.0" y2="357.0" /><line stroke="#999" stroke-width="3" x1="229.0" x2="261.0" y1="357.0" y2="357.0" /><line stroke="#999" stroke-width="3" x1="229.0" x2="197.0" y1="357.0" y2="357.0" /><line stroke="#999" stroke-width="3" x1="165.0" x2="197.0" y1="357.0" y2="357.0" /><line stroke="#999" stroke-width="3" x1="165.0" x2="133.0" y1="357.0" y2="357.0" /><line stroke="#999" stroke-width="3" x1="101.0" x2="133.0" y1="357.0" y2="357.0" /><line stroke="#999" stroke-width="3" x1="101.0" x2="69.0" y1="357.0" y2="357.0" /><line stroke="#999" stroke-width="3" x1="37.0" x2="69.0" y1="357.0" y2="357.0" /><line stroke="#999" stroke-width="3" x1="37.0" x2="5.0" y1="357.0" y2="357.0" /><line stroke="#333" stroke-width="10" x1="5.0" x2="5.0" y1="325.0" y2="357.0" /><line stroke="#999" stroke-width="3" x1="5.0" x2="37.0" y1="325.0" y2="325.0" /><line stroke="#999" stroke-width="3" x1="69.0" x2="37.0" y1="325.0" y2="325.0" /><line stroke="#999" stroke-width="3" x1="69.0" x2="101.0" y1="325.0" y2="325.0" /><line stroke="#999" stroke-width="3" x1="133.0" x2="101.0" y1="325.0" y2="325.0" /><line stroke="#999" stroke-width="3" x1="133.0" x2="165.0" y1="325.0" y2="325.0" /><line stroke="#999" stroke-width="3" x1="197.0" x2="165.0" y1="325.0" y2="325.0" /><line stroke="#999" stroke-width="3" x1="197.0" x2="229.0" y1="325.0" y2="325.0" /><line stroke="#999" stroke-width="3" x1="261.0" x2="229.0" y1="325.0" y2="325.0" /><line stroke="#999" stroke-width="3" x1="261.0" x2="293.0" y1="325.0" y2="325.0" /><line stroke="#999" stroke-width="3" x1="325.0" x2="293.0" y1="325.0" y2="325.0" /><line stroke="#999" stroke-width="3" x1="325.0" x2="357.0" y1="325.0" y2="325.0" /><line stroke="#999" stroke-width="3" x1="389.0" x2="357.0" y1="325.0" y2="325.0" /><line stroke="#333" stroke-width="10" x1="389.0" x2="389.0" y1="325.0" y2="293.0" /><line stroke="#999" stroke-width="3" x1="357.0" x2="389.0" y1="293.0" y2="293.0" /><line stroke="#999" stroke-width="3" x1="357.0" x2="325.0" y1="293.0" y2="293.0" /><line stroke="#999" stroke-width="3" x1="293.0" x2="325.0" y1="293.0" y2="293.0" /><line stroke="#999" stroke-width="3" x1="293.0" x2="261.0" y1="293.0" y2="293.0" /><line stroke="#999" stroke-width="3" x1="229.0" x2="261.0" y1="293.0" y2="293.0" /><line stroke="#999" stroke-width="3" x1="229.0" x2="197.0" y1="293.0" y2="293.0" /><line stroke="#999" stroke-width="3" x1="165.0" x2="197.0" y1="293.0" y2="293.0" /><line stroke="#999" stroke-width="3" x1="165.0" x2="133.0" y1="293.0" y2="293.0" /><line stroke="#999" stroke-width="3" x1="101.0" x2="133.0" y1="293.0" y2="293.0" /><line stroke="#999" stroke-width="3" x1="101.0" x2="69.0" y1="293.0" y2="293.0" /><line stroke="#999" stroke-width="3" x1="37.0" x2="69.0" y1="293.0" y2="293.0" /><line stroke="#999" stroke-width="3" x1="37.0" x2="5.0" y1="293.0" y2="293.0" /><line stroke="#333" stroke-width="10" x1="5.0" x2="5.0" y1="261.0" y2="293.0" /><line stroke="#999" stroke-width="3" x1="5.0" x2="37.0" y1="261.0" y2="261.0" /><line stroke="#999" stroke-width="3" x1="69.0" x2="37.0" y1="261.0" y2="261.0" /><line stroke="#999" stroke-width="3" x1="69.0" x2="101.0" y1="261.0" y2="261.0" /><line stroke="#999" stroke-width="3" x1="133.0" x2="101.0" y1="261.0" y2="261.0" /><line stroke="#999" stroke-width="3" x1="133.0" x2="165.0" y1="261.0" y2="261.0" /><line stroke="#999" stroke-width="3" x1="197.0" x2="165.0" y1="261.0" y2="261.0" /><line stroke="#999" stroke-width="3" x1="197.0" x2="229.0" y1="261.0" y2="261.0" /><line stroke="#999" stroke-width="3" x1="261.0" x2="229.0" y1="261.0" y2="261.0" /><line stroke="#999" stroke-width="3" x1="261.0" x2="293.0" y1="261.0" y2="261.0" /><line stroke="#999" stroke-width="3" x1="325.0" x2="293.0" y1="261.0" y2="261.0" /><line stroke="#999" stroke-width="3" x1="325.0" x2="357.0" y1="261.0" y2="261.0" /><line stroke="#999" stroke-width="3" x1="389.0" x2="357.0" y1="261.0" y2="261.0" /><line stroke="#333" stroke-width="10" x1="389.0" x2="389.0" y1="261.0" y2="229.0" /><line stroke="#999" stroke-width="3" x1="357.0" x2="389.0" y1="229.0" y2="229.0" /><line stroke="#999" stroke-width="3" x1="357.0" x2="325.0" y1="229.0" y2="229.0" /><line stroke="#999" stroke-width="3" x1="293.0" x2="325.0" y1="229.0" y2="229.0" /><line stroke="#999" stroke-width="3" x1="293.0" x2="261.0" y1="229.0" y2="229.0" /><line stroke="#999" stroke-width="3" x1="229.0" x2="261.0" y1="229.0" y2="229.0" /><line stroke="#999" stroke-width="3" x1="229.0" x2="197.0" y1="229.0" y2="229.0" /><line stroke="#999" stroke-width="3" x1="165.0" x2="197.0" y1="229.0" y2="229.0" /><line stroke="#999" stroke-width="3" x1="165.0" x2="133.0" y1="229.0" y2="229.0" /><line stroke="#999" stroke-width="3" x1="101.0" x2="133.0" y1="229.0" y2="229.0" /><line stroke="#999" stroke-width="3" x1="101.0" x2="69.0" y1="229.0" y2="229.0" /><line stroke="#999" stroke-width="3" x1="37.0" x2="69.0" y1="229.0" y2="229.0" /><line stroke="#999" stroke-width="3" x1="37.0" x2="5.0" y1="229.0" y2="229.0" /><line stroke="#333" stroke-width="10" x1="5.0" x2="5.0" y1="197.0" y2="229.0" /><line stroke="#999" stroke-width="3" x1="5.0" x2="37.0" y1="197.0" y2="197.0" /><line stroke="#999" stroke-width="3" x1="69.0" x2="37.0" y1="197.0" y2="197.0" /><line stroke="#999" stroke-width="3" x1="69.0" x2="101.0" y1="197.0" y2="197.0" /><line stroke="#999" stroke-width="3" x1="133.0" x2="101.0" y1="197.0" y2="197.0" /><line stroke="#999" stroke-width="3" x1="133.0" x2="165.0" y1="197.0" y2="197.0" /><line stroke="#999" stroke-width="3" x1="197.0" x2="165.0" y1="197.0" y2="197.0" /><line stroke="#999" stroke-width="3" x1="197.0" x2="197.0" y1="165.0" y2="197.0" /><line stroke="#999" stroke-width="3" x1="197.0" x2="197.0" y1="165.0" y2="133.0" /><line stroke="#999" stroke-width="3" x1="197.0" x2="197.0" y1="101.0" y2="133.0" /><line stroke="#999" stroke-width="3" x1="197.0" x2="197.0" y1="101.0" y2="69.0" /><line stroke="#999" stroke-width="3" x1="197.0" x2="197.0" y1="37.0" y2="69.0" /><line stroke="#999" stroke-width="3" x1="197.0" x2="197.0" y1="37.0" y2="5.0" /><line stroke="#333" stroke-width="10" x1="197.0" x2="165.0" y1="5.0" y2="5.0" /><line stroke="#999" stroke-width="3" x1="165.0" x2="165.0" y1="5.0" y2="37.0" /><line stroke="#999" stroke-width="3" x1="165.0" x2="165.0" y1="69.0" y2="37.0" /><line stroke="#999" stroke-width="3" x1="165.0" x2="165.0" y1="69.0" y2="101.0" /><line stroke="#999" stroke-width="3" x1="165.0" x2="165.0" y1="133.0" y2="101.0" /><line stroke="#999" stroke-width="3" x1="165.0" x2="165.0" y1="133.0" y2="165.0" /><line stroke="#999" stroke-width="3" x1="165.0" x2="165.0" y1="197.0" y2="165.0" /><line stroke="#999" stroke-width="3" x1="165.0" x2="165.0" y1="197.0" y2="229.0" /><line stroke="#999" stroke-width="3" x1="165.0" x2="165.0" y1="261.0" y2="229.0" /><line stroke="#999" stroke-width="3" x1="165.0" x2="165.0" y1="261.0" y2="293.0" /><line stroke="#999" stroke-width="3" x1="165.0" x2="165.0" y1="325.0" y2="293.0" /><line stroke="#999" stroke-width="3" x1="165.0" x2="165.0" y1="325.0" y2="357.0" /><line stroke="#999" stroke-width="3" x1="165.0" x2="165.0" y1="389.0" y2="357.0" /><line stroke="#333" stroke-width="10" x1="133.0" x2="165.0" y1="389.0" y2="389.0" /><line stroke="#999" stroke-width="3" x1="133.0" x2="133.0" y1="357.0" y2="389.0" /><line stroke="#999" stroke-width="3" x1="133.0" x2="133.0" y1="357.0" y2="325.0" /><line stroke="#999" stroke-width="3" x1="133.0" x2="133.0" y1="293.0" y2="325.0" /><line stroke="#999" stroke-width="3" x1="133.0" x2="133.0" y1="293.0" y2="261.0" /><line stroke="#999" stroke-width="3" x1="133.0" x2="133.0" y1="229.0" y2="261.0" /><line stroke="#999" stroke-width="3" x1="133.0" x2="133.0" y1="229.0" y2="197.0" /><line stroke="#999" stroke-width="3" x1="133.0" x2="133.0" y1="165.0" y2="197.0" /><line stroke="#999" stroke-width="3" x1="133.0" x2="133.0" y1="165.0" y2="133.0" /><line stroke="#999" stroke-width="3" x1="133.0" x2="133.0" y1="101.0" y2="133.0" /><line stroke="#999" stroke-width="3" x1="133.0" x2="133.0" y1="101.0" y2="69.0" /><line stroke="#999" stroke-width="3" x1="133.0" x2="133.0" y1="37.0" y2="69.0" /><line stroke="#999" stroke-width="3" x1="133.0" x2="133.0" y1="37.0" y2="5.0" /><line stroke="#333" stroke-width="10" x1="133.0" x2="101.0" y1="5.0" y2="5.0" /><line stroke="#999" stroke-width="3" x1="101.0" x2="101.0" y1="5.0" y2="37.0" /><line stroke="#999" stroke-width="3" x1="101.0" x2="101.0" y1="69.0" y2="37.0" /><line stroke="#999" stroke-width="3" x1="101.0" x2="101.0" y1="69.0" y2="101.0" /><line stroke="#999" stroke-width="3" x1="101.0" x2="101.0" y1="133.0" y2="101.0" /><line stroke="#999" stroke-width="3" x1="101.0" x2="101.0" y1="133.0" y2="165.0" /><line stroke="#999" stroke-width="3" x1="101.0" x2="101.0" y1="197.0" y2="165.0" /><line stroke="#999" stroke-width="3" x1="101.0" x2="101.0" y1="197.0" y2="229.0" /><line stroke="#999" stroke-width="3" x1="101.0" x2="101.0" y1="261.0" y2="229.0" /><line stroke="#999" stroke-width="3" x1="101.0" x2="101.0" y1="261.0" y2="293.0" /><line stroke="#999" stroke-width="3" x1="101.0" x2="101.0" y1="325.0" y2="293.0" /><line stroke="#999" stroke-width="3" x1="101.0" x2="101.0" y1="325.0" y2="357.0" /><line stroke="#999" stroke-width="3" x1="101.0" x2="101.0" y1="389.0" y2="357.0" /><line stroke="#333" stroke-width="10" x1="69.0" x2="101.0" y1="389.0" y2="389.0" /><line stroke="#999" stroke-width="3" x1="69.0" x2="69.0" y1="357.0" y2="389.0" /><line stroke="#999" stroke-width="3" x1="69.0" x2="69.0" y1="357.0" y2="325.0" /><line stroke="#999" stroke-width="3" x1="69.0" x2="69.0" y1="293.0" y2="325.0" /><line stroke="#999" stroke-width="3" x1="69.0" x2="69.0" y1="293.0" y2="261.0" /><line stroke="#999" stroke-width="3" x1="69.0" x2="69.0" y1="229.0" y2="261.0" /><line stroke="#999" stroke-width="3" x1="69.0" x2="69.0" y1="229.0" y2="197.0" /><line stroke="#999" stroke-width="3" x1="69.0" x2="69.0" y1="165.0" y2="197.0" /><line stroke="#999" stroke-width="3" x1="69.0" x2="69.0" y1="165.0" y2="133.0" /><line stroke="#999" stroke-width="3" x1="69.0" x2="69.0" y1="101.0" y2="133.0" /><line stroke="#999" stroke-width="3" x1="69.0" x2="69.0" y1="101.0" y2="69.0" /><line stroke="#999" stroke-width="3" x1="69.0" x2="69.0" y1="37.0" y2="69.0" /><line stroke="#999" stroke-width="3" x1="69.0" x2="69.0" y1="37.0" y2="5.0" /><line stroke="#333" stroke-width="10" x1="69.0" x2="37.0" y1="5.0" y2="5.0" /><line stroke="#999" stroke-width="3" x1="37.0" x2="37.0" y1="5.0" y2="37.0" /><line stroke="#999" stroke-width="3" x1="37.0" x2="37.0" y1="69.0" y2="37.0" /><line stroke="#999" stroke-width="3" x1="37.0" x2="37.0" y1="69.0" y2="101.0" /><line stroke="#999" stroke-width="3" x1="37.0" x2="37.0" y1="133.0" y2="101.0" /><line stroke="#999" stroke-width="3" x1="37.0" x2="37.0" y1="133.0" y2="165.0" /><line stroke="#999" stroke-width="3" x1="37.0" x2="37.0" y1="197.0" y2="165.0" /><line stroke="#999" stroke-width="3" x1="37.0" x2="37.0" y1="197.0" y2="229.0" /><line stroke="#999" stroke-width="3" x1="37.0" x2="37.0" y1="261.0" y2="229.0" /><line stroke="#999" stroke-width="3" x1="37.0" x2="37.0" y1="261.0" y2="293.0" /><line stroke="#999" stroke-width="3" x1="37.0" x2="37.0" y1="325.0" y2="293.0" /><line stroke="#999" stroke-width="3" x1="37.0" x2="37.0" y1="325.0" y2="357.0" /><line stroke="#999" stroke-width="3" x1="37.0" x2="37.0" y1="389.0" y2="357.0" /><line stroke="#999" stroke-width="3" x1="357.0" x2="357.0" y1="5.0" y2="37.0" /><line stroke="#999" stroke-width="3" x1="357.0" x2="357.0" y1="69.0" y2="37.0" /><line stroke="#999" stroke-width="3" x1="357.0" x2="357.0" y1="69.0" y2="101.0" /><line stroke="#999" stroke-width="3" x1="357.0" x2="357.0" y1="133.0" y2="101.0" /><line stroke="#999" stroke-width="3" x1="357.0" x2="357.0" y1="133.0" y2="165.0" /><line stroke="#999" stroke-width="3" x1="357.0" x2="357.0" y1="197.0" y2="165.0" /><line stroke="#999" stroke-width="3" x1="357.0" x2="357.0" y1="197.0" y2="229.0" /><line stroke="#999" stroke-width="3" x1="357.0" x2="357.0" y1="261.0" y2="229.0" /><line stroke="#999" stroke-width="3" x1="357.0" x2="357.0" y1="261.0" y2="293.0" /><line stroke="#999" stroke-width="3" x1="357.0" x2="357.0" y1="325.0" y2="293.0" /><line stroke="#999" stroke-width="3" x1="357.0" x2="357.0" y1="325.0" y2="357.0" /><line stroke="#999" stroke-width="3" x1="357.0" x2="357.0" y1="389.0" y2="357.0" /><line stroke="#333" stroke-width="10" x1="325.0" x2="357.0" y1="389.0" y2="389.0" /><line stroke="#999" stroke-width="3" x1="325.0" x2="325.0" y1="357.0" y2="389.0" /><line stroke="#999" stroke-width="3" x1="325.0" x2="325.0" y1="357.0" y2="325.0" /><line stroke="#999" stroke-width="3" x1="325.0" x2="325.0" y1="293.0" y2="325.0" /><line stroke="#999" stroke-width="3" x1="325.0" x2="325.0" y1="293.0" y2="261.0" /><line stroke="#999" stroke-width="3" x1="325.0" x2="325.0" y1="229.0" y2="261.0" /><line stroke="#999" stroke-width="3" x1="325.0" x2="325.0" y1="229.0" y2="197.0" /><line stroke="#999" stroke-width="3" x1="325.0" x2="325.0" y1="165.0" y2="197.0" /><line stroke="#999" stroke-width="3" x1="325.0" x2="325.0" y1="165.0" y2="133.0" /><line stroke="#999" stroke-width="3" x1="325.0" x2="325.0" y1="101.0" y2="133.0" /><line stroke="#999" stroke-width="3" x1="325.0" x2="325.0" y1="101.0" y2="69.0" /><line stroke="#999" stroke-width="3" x1="325.0" x2="325.0" y1="37.0" y2="69.0" /><line stroke="#999" stroke-width="3" x1="325.0" x2="325.0" y1="37.0" y2="5.0" /><line stroke="#333" stroke-width="10" x1="325.0" x2="293.0" y1="5.0" y2="5.0" /><line stroke="#999" stroke-width="3" x1="293.0" x2="293.0" y1="5.0" y2="37.0" /><line stroke="#999" stroke-width="3" x1="293.0" x2="293.0" y1="69.0" y2="37.0" /><line stroke="#999" stroke-width="3" x1="293.0" x2="293.0" y1="69.0" y2="101.0" /><line stroke="#999" stroke-width="3" x1="293.0" x2="293.0" y1="133.0" y2="101.0" /><line stroke="#999" stroke-width="3" x1="293.0" x2="293.0" y1="133.0" y2="165.0" /><line stroke="#999" stroke-width="3" x1="293.0" x2="293.0" y1="197.0" y2="165.0" /><line stroke="#999" stroke-width="3" x1="293.0" x2="293.0" y1="197.0" y2="229.0" /><line stroke="#999" stroke-width="3" x1="293.0" x2="293.0" y1="261.0" y2="229.0" /><line stroke="#999" stroke-width="3" x1="293.0" x2="293.0" y1="261.0" y2="293.0" /><line stroke="#999" stroke-width="3" x1="293.0" x2="293.0" y1="325.0" y2="293.0" /><line stroke="#999" stroke-width="3" x1="293.0" x2="293.0" y1="325.0" y2="357.0" /><line stroke="#999" stroke-width="3" x1="293.0" x2="293.0" y1="389.0" y2="357.0" /><line stroke="#333" stroke-width="10" x1="261.0" x2="293.0" y1="389.0" y2="389.0" /><line stroke="#999" stroke-width="3" x1="261.0" x2="261.0" y1="357.0" y2="389.0" /><line stroke="#999" stroke-width="3" x1="261.0" x2="261.0" y1="357.0" y2="325.0" /><line stroke="#999" stroke-width="3" x1="261.0" x2="261.0" y1="293.0" y2="325.0" /><line stroke="#999" stroke-width="3" x1="261.0" x2="261.0" y1="293.0" y2="261.0" /><line stroke="#999" stroke-width="3" x1="261.0" x2="261.0" y1="229.0" y2="261.0" /><line stroke="#999" stroke-width="3" x1="261.0" x2="261.0" y1="229.0" y2="197.0" /><line stroke="#999" stroke-width="3" x1="261.0" x2="261.0" y1="165.0" y2="197.0" /><line stroke="#999" stroke-width="3" x1="261.0" x2="261.0" y1="165.0" y2="133.0" /><line stroke="#999" stroke-width="3" x1="261.0" x2="261.0" y1="101.0" y2="133.0" /><line stroke="#999" stroke-width="3" x1="261.0" x2="261.0" y1="101.0" y2="69.0" /><line stroke="#999" stroke-width="3" x1="261.0" x2="261.0" y1="37.0" y2="69.0" /><line stroke="#999" stroke-width="3" x1="261.0" x2="261.0" y1="37.0" y2="5.0" /><line stroke="#333" stroke-width="10" x1="261.0" x2="229.0" y1="5.0" y2="5.0" /><line stroke="#999" stroke-width="3" x1="229.0" x2="229.0" y1="5.0" y2="37.0" /><line stroke="#999" stroke-width="3" x1="229.0" x2="229.0" y1="69.0" y2="37.0" /><line stroke="#999" stroke-width="3" x1="229.0" x2="229.0" y1="69.0" y2="101.0" /><line stroke="#999" stroke-width="3" x1="229.0" x2="229.0" y1="133.0" y2="101.0" /><line stroke="#999" stroke-width="3" x1="229.0" x2="229.0" y1="133.0" y2="165.0" /><line stroke="#999" stroke-width="3" x1="229.0" x2="229.0" y1="197.0" y2="165.0" /><line stroke="#999" stroke-width="3" x1="229.0" x2="229.0" y1="197.0" y2="229.0" /><line stroke="#999" stroke-width="3" x1="229.0" x2="229.0" y1="261.0" y2="229.0" /><line stroke="#999" stroke-width="3" x1="229.0" x2="229.0" y1="261.0" y2="293.0" /><line stroke="#999" stroke-width="3" x1="229.0" x2="229.0" y1="325.0" y2="293.0" /><line stroke="#999" stroke-width="3" x1="229.0" x2="229.0" y1="325.0" y2="357.0" /><line stroke="#999" stroke-width="3" x1="229.0" x2="229.0" y1="389.0" y2="357.0" /><line stroke="#333" stroke-width="10" x1="197.0" x2="229.0" y1="389.0" y2="389.0" /><line stroke="#999" stroke-width="3" x1="197.0" x2="197.0" y1="357.0" y2="389.0" /><line stroke="#999" stroke-width="3" x1="197.0" x2="197.0" y1="357.0" y2="325.0" /><line stroke="#999" stroke-width="3" x1="197.0" x2="197.0" y1="293.0" y2="325.0" /><line stroke="#999" stroke-width="3" x1="197.0" x2="197.0" y1="293.0" y2="261.0" /><line stroke="#999" stroke-width="3" x1="197.0" x2="197.0" y1="229.0" y2="261.0" /><line stroke="#999" stroke-width="3" x1="197.0" x2="197.0" y1="229.0" y2="197.0" /><line stroke="#333" stroke-width="10" x1="37.0" x2="69.0" y1="389.0" y2="389.0" /><line stroke="#333" stroke-width="10" x1="5.0" x2="37.0" y1="389.0" y2="389.0" /><line stroke="#333" stroke-width="10" x1="5.0" x2="5.0" y1="357.0" y2="389.0" /><line stroke="#333" stroke-width="10" x1="101.0" x2="133.0" y1="389.0" y2="389.0" /><line stroke="#333" stroke-width="10" x1="165.0" x2="197.0" y1="389.0" y2="389.0" /><line stroke="#333" stroke-width="10" x1="229.0" x2="261.0" y1="389.0" y2="389.0" /><line stroke="#333" stroke-width="10" x1="293.0" x2="325.0" y1="389.0" y2="389.0" /><line stroke="#333" stroke-width="10" x1="389.0" x2="389.0" y1="389.0" y2="357.0" /><line stroke="#333" stroke-width="10" x1="357.0" x2="389.0" y1="389.0" y2="389.0" /><line stroke="#333" stroke-width="10" x1="389.0" x2="389.0" y1="357.0" y2="325.0" /><line stroke="#333" stroke-width="10" x1="389.0" x2="389.0" y1="293.0" y2="261.0" /><line stroke="#333" stroke-width="10" x1="389.0" x2="389.0" y1="229.0" y2="197.0" /><line stroke="#333" stroke-width="10" x1="389.0" x2="389.0" y1="165.0" y2="133.0" /><line stroke="#333" stroke-width="10" x1="389.0" x2="389.0" y1="101.0" y2="69.0" /><line stroke="#333" stroke-width="10" x1="357.0" x2="325.0" y1="5.0" y2="5.0" /><line stroke="#333" stroke-width="10" x1="389.0" x2="357.0" y1="5.0" y2="5.0" /><line stroke="#333" stroke-width="10" x1="389.0" x2="389.0" y1="37.0" y2="5.0" /><line stroke="#333" stroke-width="10" x1="293.0" x2="261.0" y1="5.0" y2="5.0" /><line stroke="#333" stroke-width="10" x1="229.0" x2="197.0" y1="5.0" y2="5.0" /><line stroke="#333" stroke-width="10" x1="165.0" x2="133.0" y1="5.0" y2="5.0" /><line stroke="#333" stroke-width="10" x1="101.0" x2="69.0" y1="5.0" y2="5.0" /><line stroke="#333" stroke-width="10" x1="5.0" x2="5.0" y1="37.0" y2="69.0" /><line stroke="#333" stroke-width="10" x1="5.0" x2="5.0" y1="5.0" y2="37.0" /><line stroke="#333" stroke-width="10" x1="37.0" x2="5.0" y1="5.0" y2="5.0" /><line stroke="#333" stroke-width="10" x1="5.0" x2="5.0" y1="101.0" y2="133.0" /><line stroke="#333" stroke-width="10" x1="5.0" x2="5.0" y1="165.0" y2="197.0" /><line stroke="#333" stroke-width="10" x1="5.0" x2="5.0" y1="229.0" y2="261.0" /><line stroke="#333" stroke-width="10" x1="5.0" x2="5.0" y1="293.0" y2="325.0" /><ellipse cx="213.0" cy="213.0" fill="#009" rx="12" ry="24" stroke="#009" stroke-width="5" /></svg>