<?xml version="1.0" encoding="utf-8" ?>
<svg baseProfile="tiny" height="1024" version="1.2" viewBox="0 0 2113 2651" width="816" xmlns="http://www.w3.org/2000/svg" xmlns:ev="http://www.w3.org/2001/xml-events" xmlns:xlink="http://www.w3.org/1999/xlink"><defs /><line stroke="#333" stroke-width="10" x1="771.0" x2="857.0" y1="95.0" y2="172.0" /><line stroke="#333" stroke-width="10" x1="587.0" x2="771.0" y1="149.0" y2="95.0" /><line stroke="#333" stroke-width="10" x1="583.0" x2="587.0" y1="283.0" y2="149.0" /><line stroke="#999" stroke-width="3" x1="517.0" x2="583.0" y1="303.0" y2="283.0" /><line stroke="#333" stroke-width="10" x1="517.0" x2="517.0" y1="94.0" y2="150.0" /><line stroke="#333" stroke-width="10" x1="710.0" x2="517.0" y1="5.0" y2="94.0" /><line stroke="#333" stroke-width="10" x1="871.0" x2="710.0" y1="26.0" y2="5.0" /><line stroke="#999" stroke-width="3" x1="857.0" x2="871.0" y1="172.0" y2="26.0" /><line stroke="#333" stroke-width="10" x1="850.0" x2="737.0" y1="198.0" y2="215.0" /><line stroke="#333" stroke-width="10" x1="636.0" x2="725.0" y1="477.0" y2="517.0" /><line stroke="#333" stroke-width="10" x1="517.0" x2="636.0" y1="303.0" y2="477.0" /><line stroke="#333" stroke-width="10" x1="631.0" x2="583.0" y1="325.0" y2="283.0" /><line stroke="#333" stroke-width="10" x1="685.0" x2="631.0" y1="287.0" y2="325.0" /><line stroke="#333" stroke-width="10" x1="737.0" x2="685.0" y1="215.0" y2="287.0" /><line stroke="#999" stroke-width="3" x1="1094.0" x2="871.0" y1="340.0" y2="26.0" /><line stroke="#333" stroke-width="10" x1="943.0" x2="1094.0" y1="335.0" y2="340.0" /><line stroke="#333" stroke-width="10" x1="849.0" x2="943.0" y1="429.0" y2="335.0" /><line stroke="#333" stroke-width="10" x1="904.0" x2="849.0" y1="522.0" y2="429.0" /><line stroke="#333" stroke-width="10" x1="857.0" x2="850.0" y1="172.0" y2="198.0" /><line stroke="#999" stroke-width="3" x1="1181.0" x2="1094.0" y1="609.0" y2="340.0" /><line stroke="#333" stroke-width="10" x1="1082.0" x2="1181.0" y1="634.0" y2="609.0" /><line stroke="#999" stroke-width="3" x1="904.0" x2="1082.0" y1="522.0" y2="634.0" /><line stroke="#333" stroke-width="10" x1="993.0" x2="904.0" y1="537.0" y2="522.0" /><line stroke="#333" stroke-width="10" x1="1065.0" x2="993.0" y1="575.0" y2="537.0" /><line stroke="#333" stroke-width="10" x1="1099.0" x2="1065.0" y1="529.0" y2="575.0" /><line stroke="#333" stroke-width="10" x1="1088.0" x2="1099.0" y1="365.0" y2="529.0" /><line stroke="#333" stroke-width="10" x1="1094.0" x2="1088.0" y1="340.0" y2="365.0" /><line stroke="#999" stroke-width="3" x1="1443.0" x2="1469.0" y1="489.0" y2="407.0" /><line stroke="#333" stroke-width="10" x1="1314.0" x2="1443.0" y1="524.0" y2="489.0" /><line stroke="#333" stroke-width="10" x1="1181.0" x2="1314.0" y1="609.0" y2="524.0" /><line stroke="#333" stroke-width="10" x1="1287.0" x2="871.0" y1="256.0" y2="26.0" /><line stroke="#333" stroke-width="10" x1="1383.0" x2="1287.0" y1="305.0" y2="256.0" /><line stroke="#333" stroke-width="10" x1="1469.0" x2="1383.0" y1="407.0" y2="305.0" /><line stroke="#666" stroke-width="20" x1="956.0" x2="1062.0" y1="681.0" y2="765.0" /><line stroke="#666" stroke-width="20" x1="828.0" x2="956.0" y1="681.0" y2="681.0" /><line stroke="#666" stroke-width="20" x1="729.0" x2="828.0" y1="760.0" y2="681.0" /><line stroke="#333" stroke-width="10" x1="672.0" x2="729.0" y1="618.0" y2="760.0" /><line stroke="#333" stroke-width="10" x1="725.0" x2="672.0" y1="517.0" y2="618.0" /><line stroke="#999" stroke-width="3" x1="904.0" x2="725.0" y1="522.0" y2="517.0" /><line stroke="#333" stroke-width="10" x1="1062.0" x2="1082.0" y1="765.0" y2="634.0" /><line stroke="#999" stroke-width="3" x1="725.0" x2="850.0" y1="517.0" y2="198.0" /><line stroke="#333" stroke-width="10" x1="956.0" x2="1062.0" y1="870.0" y2="765.0" /><line stroke="#666" stroke-width="20" x1="956.0" x2="828.0" y1="870.0" y2="870.0" /><line stroke="#333" stroke-width="10" x1="729.0" x2="828.0" y1="760.0" y2="870.0" /><line stroke="#666" stroke-width="20" x1="828.0" x2="956.0" y1="886.0" y2="886.0" /><line stroke="#333" stroke-width="10" x1="956.0" x2="956.0" y1="886.0" y2="870.0" /><line stroke="#333" stroke-width="10" x1="828.0" x2="828.0" y1="870.0" y2="886.0" /><line stroke="#333" stroke-width="10" x1="907.0" x2="1002.0" y1="1225.0" y2="1047.0" /><line stroke="#999" stroke-width="3" x1="824.0" x2="907.0" y1="1168.0" y2="1225.0" /><line stroke="#333" stroke-width="10" x1="871.0" x2="824.0" y1="1070.0" y2="1168.0" /><line stroke="#333" stroke-width="10" x1="837.0" x2="871.0" y1="1000.0" y2="1070.0" /><line stroke="#333" stroke-width="10" x1="778.0" x2="837.0" y1="954.0" y2="1000.0" /><line stroke="#999" stroke-width="3" x1="828.0" x2="778.0" y1="886.0" y2="954.0" /><line stroke="#333" stroke-width="10" x1="1002.0" x2="956.0" y1="1047.0" y2="886.0" /><line stroke="#333" stroke-width="10" x1="518.0" x2="642.0" y1="1086.0" y2="1297.0" /><line stroke="#999" stroke-width="3" x1="638.0" x2="518.0" y1="1090.0" y2="1086.0" /><line stroke="#333" stroke-width="10" x1="668.0" x2="638.0" y1="1156.0" y2="1090.0" /><line stroke="#333" stroke-width="10" x1="724.0" x2="668.0" y1="1200.0" y2="1156.0" /><line stroke="#333" stroke-width="10" x1="824.0" x2="724.0" y1="1168.0" y2="1200.0" /><line stroke="#333" stroke-width="10" x1="638.0" x2="680.0" y1="1090.0" y2="982.0" /><line stroke="#333" stroke-width="10" x1="506.0" x2="518.0" y1="1003.0" y2="1086.0" /><line stroke="#333" stroke-width="10" x1="524.0" x2="506.0" y1="890.0" y2="1003.0" /><line stroke="#333" stroke-width="10" x1="646.0" x2="524.0" y1="838.0" y2="890.0" /><line stroke="#333" stroke-width="10" x1="828.0" x2="646.0" y1="886.0" y2="838.0" /><line stroke="#333" stroke-width="10" x1="680.0" x2="778.0" y1="982.0" y2="954.0" /><line stroke="#666" stroke-width="20" x1="642.0" x2="706.0" y1="1361.0" y2="1361.0" /><line stroke="#333" stroke-width="10" x1="706.0" x2="706.0" y1="1361.0" y2="1297.0" /><line stroke="#999" stroke-width="3" x1="706.0" x2="642.0" y1="1297.0" y2="1297.0" /><line stroke="#333" stroke-width="10" x1="642.0" x2="642.0" y1="1297.0" y2="1361.0" /><line stroke="#333" stroke-width="10" x1="706.0" x2="907.0" y1="1297.0" y2="1225.0" /><line stroke="#666" stroke-width="20" x1="706.0" x2="642.0" y1="1369.0" y2="1369.0" /><line stroke="#333" stroke-width="10" x1="706.0" x2="706.0" y1="1369.0" y2="1361.0" /><line stroke="#333" stroke-width="10" x1="642.0" x2="642.0" y1="1361.0" y2="1369.0" /><line stroke="#333" stroke-width="10" x1="748.0" x2="761.0" y1="1557.0" y2="1472.0" /><line stroke="#333" stroke-width="10" x1="801.0" x2="748.0" y1="1648.0" y2="1557.0" /><line stroke="#999" stroke-width="3" x1="691.0" x2="801.0" y1="1630.0" y2="1648.0" /><line stroke="#333" stroke-width="10" x1="625.0" x2="691.0" y1="1516.0" y2="1630.0" /><line stroke="#333" stroke-width="10" x1="642.0" x2="625.0" y1="1369.0" y2="1516.0" /><line stroke="#333" stroke-width="10" x1="794.0" x2="706.0" y1="1347.0" y2="1369.0" /><line stroke="#999" stroke-width="3" x1="761.0" x2="794.0" y1="1472.0" y2="1347.0" /><line stroke="#999" stroke-width="3" x1="1048.0" x2="983.0" y1="1540.0" y2="1555.0" /><line stroke="#999" stroke-width="3" x1="1118.0" x2="1048.0" y1="1575.0" y2="1540.0" /><line stroke="#999" stroke-width="3" x1="995.0" x2="1118.0" y1="1762.0" y2="1575.0" /><line stroke="#333" stroke-width="10" x1="807.0" x2="995.0" y1="1754.0" y2="1762.0" /><line stroke="#333" stroke-width="10" x1="691.0" x2="807.0" y1="1630.0" y2="1754.0" /><line stroke="#333" stroke-width="10" x1="901.0" x2="801.0" y1="1650.0" y2="1648.0" /><line stroke="#333" stroke-width="10" x1="983.0" x2="901.0" y1="1555.0" y2="1650.0" /><line stroke="#999" stroke-width="3" x1="1118.0" x2="1184.0" y1="1575.0" y2="1435.0" /><line stroke="#333" stroke-width="10" x1="761.0" x2="896.0" y1="1472.0" y2="1462.0" /><line stroke="#333" stroke-width="10" x1="892.0" x2="794.0" y1="1309.0" y2="1347.0" /><line stroke="#333" stroke-width="10" x1="1042.0" x2="892.0" y1="1303.0" y2="1309.0" /><line stroke="#333" stroke-width="10" x1="1184.0" x2="1042.0" y1="1435.0" y2="1303.0" /><line stroke="#333" stroke-width="10" x1="896.0" x2="983.0" y1="1462.0" y2="1555.0" /><line stroke="#333" stroke-width="10" x1="1196.0" x2="1263.0" y1="1654.0" y2="1693.0" /><line stroke="#333" stroke-width="10" x1="1118.0" x2="1196.0" y1="1663.0" y2="1654.0" /><line stroke="#333" stroke-width="10" x1="1070.0" x2="1118.0" y1="1742.0" y2="1663.0" /><line stroke="#999" stroke-width="3" x1="995.0" x2="1070.0" y1="1762.0" y2="1742.0" /><line stroke="#333" stroke-width="10" x1="1309.0" x2="1184.0" y1="1682.0" y2="1435.0" /><line stroke="#999" stroke-width="3" x1="1263.0" x2="1309.0" y1="1693.0" y2="1682.0" /><line stroke="#333" stroke-width="10" x1="1265.0" x2="1343.0" y1="1954.0" y2="1810.0" /><line stroke="#333" stroke-width="10" x1="1137.0" x2="1201.0" y1="1954.0" y2="1954.0" /><line stroke="#999" stroke-width="3" x1="1137.0" x2="1037.0" y1="1954.0" y2="1900.0" /><line stroke="#333" stroke-width="10" x1="995.0" x2="1037.0" y1="1762.0" y2="1900.0" /><line stroke="#333" stroke-width="10" x1="1108.0" x2="1070.0" y1="1787.0" y2="1742.0" /><line stroke="#333" stroke-width="10" x1="1263.0" x2="1251.0" y1="1693.0" y2="1772.0" /><line stroke="#333" stroke-width="10" x1="1251.0" x2="1165.0" y1="1772.0" y2="1817.0" /><line stroke="#333" stroke-width="10" x1="1165.0" x2="1108.0" y1="1817.0" y2="1787.0" /><line stroke="#333" stroke-width="10" x1="1343.0" x2="1309.0" y1="1810.0" y2="1682.0" /><line stroke="#333" stroke-width="10" x1="748.0" x2="779.0" y1="1899.0" y2="1961.0" /><line stroke="#999" stroke-width="3" x1="812.0" x2="748.0" y1="1899.0" y2="1899.0" /><line stroke="#333" stroke-width="10" x1="1037.0" x2="1025.0" y1="1900.0" y2="1912.0" /><line stroke="#333" stroke-width="10" x1="863.0" x2="830.0" y1="1924.0" y2="1913.0" /><line stroke="#333" stroke-width="10" x1="810.0" x2="848.0" y1="1981.0" y2="2001.0" /><line stroke="#999" stroke-width="3" x1="863.0" x2="810.0" y1="1924.0" y2="1981.0" /><line stroke="#333" stroke-width="10" x1="958.0" x2="928.0" y1="1928.0" y2="1931.0" /><line stroke="#333" stroke-width="10" x1="950.0" x2="1001.0" y1="2014.0" y2="2012.0" /><line stroke="#999" stroke-width="3" x1="958.0" x2="950.0" y1="1928.0" y2="2014.0" /><line stroke="#333" stroke-width="10" x1="896.0" x2="950.0" y1="2011.0" y2="2014.0" /><line stroke="#333" stroke-width="10" x1="928.0" x2="897.0" y1="1931.0" y2="1930.0" /><line stroke="#999" stroke-width="3" x1="928.0" x2="896.0" y1="1931.0" y2="2011.0" /><line stroke="#333" stroke-width="10" x1="848.0" x2="896.0" y1="2001.0" y2="2011.0" /><line stroke="#333" stroke-width="10" x1="897.0" x2="863.0" y1="1930.0" y2="1924.0" /><line stroke="#999" stroke-width="3" x1="897.0" x2="848.0" y1="1930.0" y2="2001.0" /><line stroke="#333" stroke-width="10" x1="779.0" x2="810.0" y1="1961.0" y2="1981.0" /><line stroke="#333" stroke-width="10" x1="830.0" x2="812.0" y1="1913.0" y2="1899.0" /><line stroke="#999" stroke-width="3" x1="830.0" x2="779.0" y1="1913.0" y2="1961.0" /><line stroke="#333" stroke-width="10" x1="1001.0" x2="1054.0" y1="2012.0" y2="2006.0" /><line stroke="#333" stroke-width="10" x1="984.0" x2="958.0" y1="1926.0" y2="1928.0" /><line stroke="#999" stroke-width="3" x1="984.0" x2="1001.0" y1="1926.0" y2="2012.0" /><line stroke="#333" stroke-width="10" x1="1008.0" x2="984.0" y1="1920.0" y2="1926.0" /><line stroke="#333" stroke-width="10" x1="1054.0" x2="1102.0" y1="2006.0" y2="1982.0" /><line stroke="#999" stroke-width="3" x1="1008.0" x2="1054.0" y1="1920.0" y2="2006.0" /><line stroke="#333" stroke-width="10" x1="1025.0" x2="1008.0" y1="1912.0" y2="1920.0" /><line stroke="#333" stroke-width="10" x1="1102.0" x2="1137.0" y1="1982.0" y2="1954.0" /><line stroke="#999" stroke-width="3" x1="1102.0" x2="1025.0" y1="1982.0" y2="1912.0" /><line stroke="#333" stroke-width="10" x1="685.0" x2="748.0" y1="1876.0" y2="1899.0" /><line stroke="#333" stroke-width="10" x1="579.0" x2="685.0" y1="1882.0" y2="1876.0" /><line stroke="#999" stroke-width="3" x1="613.0" x2="579.0" y1="1818.0" y2="1882.0" /><line stroke="#333" stroke-width="10" x1="789.0" x2="691.0" y1="1847.0" y2="1822.0" /><line stroke="#333" stroke-width="10" x1="812.0" x2="789.0" y1="1899.0" y2="1847.0" /><line stroke="#333" stroke-width="10" x1="691.0" x2="613.0" y1="1822.0" y2="1818.0" /><line stroke="#333" stroke-width="10" x1="549.0" x2="579.0" y1="1958.0" y2="1882.0" /><line stroke="#999" stroke-width="3" x1="349.0" x2="466.0" y1="2038.0" y2="2030.0" /><line stroke="#999" stroke-width="3" x1="381.0" x2="349.0" y1="1939.0" y2="2038.0" /><line stroke="#999" stroke-width="3" x1="350.0" x2="381.0" y1="1854.0" y2="1939.0" /><line stroke="#999" stroke-width="3" x1="276.0" x2="350.0" y1="1789.0" y2="1854.0" /><line stroke="#333" stroke-width="10" x1="567.0" x2="522.0" y1="1742.0" y2="1729.0" /><line stroke="#333" stroke-width="10" x1="613.0" x2="567.0" y1="1818.0" y2="1742.0" /><line stroke="#999" stroke-width="3" x1="335.0" x2="276.0" y1="1682.0" y2="1789.0" /><line stroke="#333" stroke-width="10" x1="423.0" x2="335.0" y1="1717.0" y2="1682.0" /><line stroke="#333" stroke-width="10" x1="466.0" x2="482.0" y1="2030.0" y2="2009.0" /><line stroke="#999" stroke-width="3" x1="275.0" x2="397.0" y1="2220.0" y2="2175.0" /><line stroke="#333" stroke-width="10" x1="111.0" x2="275.0" y1="2149.0" y2="2220.0" /><line stroke="#333" stroke-width="10" x1="28.0" x2="111.0" y1="1986.0" y2="2149.0" /><line stroke="#999" stroke-width="3" x1="150.0" x2="28.0" y1="2003.0" y2="1986.0" /><line stroke="#999" stroke-width="3" x1="262.0" x2="150.0" y1="2049.0" y2="2003.0" /><line stroke="#999" stroke-width="3" x1="349.0" x2="262.0" y1="2038.0" y2="2049.0" /><line stroke="#999" stroke-width="3" x1="397.0" x2="466.0" y1="2175.0" y2="2030.0" /><line stroke="#999" stroke-width="3" x1="150.0" x2="159.0" y1="2003.0" y2="1864.0" /><line stroke="#333" stroke-width="10" x1="5.0" x2="28.0" y1="1924.0" y2="1986.0" /><line stroke="#333" stroke-width="10" x1="26.0" x2="5.0" y1="1792.0" y2="1924.0" /><line stroke="#333" stroke-width="10" x1="143.0" x2="26.0" y1="1708.0" y2="1792.0" /><line stroke="#333" stroke-width="10" x1="335.0" x2="247.0" y1="1682.0" y2="1694.0" /><line stroke="#999" stroke-width="3" x1="159.0" x2="276.0" y1="1864.0" y2="1789.0" /><line stroke="#333" stroke-width="10" x1="247.0" x2="143.0" y1="1694.0" y2="1708.0" /><line stroke="#999" stroke-width="3" x1="542.0" x2="584.0" y1="2198.0" y2="2062.0" /><line stroke="#333" stroke-width="10" x1="447.0" x2="542.0" y1="2214.0" y2="2198.0" /><line stroke="#333" stroke-width="10" x1="378.0" x2="447.0" y1="2292.0" y2="2214.0" /><line stroke="#333" stroke-width="10" x1="367.0" x2="378.0" y1="2380.0" y2="2292.0" /><line stroke="#333" stroke-width="10" x1="275.0" x2="265.0" y1="2220.0" y2="2307.0" /><line stroke="#333" stroke-width="10" x1="584.0" x2="466.0" y1="2062.0" y2="2030.0" /><line stroke="#999" stroke-width="3" x1="265.0" x2="367.0" y1="2307.0" y2="2380.0" /><line stroke="#333" stroke-width="10" x1="572.0" x2="540.0" y1="2485.0" y2="2485.0" /><line stroke="#999" stroke-width="3" x1="568.0" x2="572.0" y1="2582.0" y2="2485.0" /><line stroke="#333" stroke-width="10" x1="426.0" x2="465.0" y1="2582.0" y2="2582.0" /><line stroke="#333" stroke-width="10" x1="295.0" x2="426.0" y1="2554.0" y2="2582.0" /><line stroke="#333" stroke-width="10" x1="214.0" x2="295.0" y1="2420.0" y2="2554.0" /><line stroke="#333" stroke-width="10" x1="265.0" x2="214.0" y1="2307.0" y2="2420.0" /><line stroke="#333" stroke-width="10" x1="444.0" x2="367.0" y1="2485.0" y2="2380.0" /><line stroke="#333" stroke-width="10" x1="796.0" x2="796.0" y1="2469.0" y2="2406.0" /><line stroke="#333" stroke-width="10" x1="568.0" x2="710.0" y1="2582.0" y2="2532.0" /><line stroke="#333" stroke-width="10" x1="672.0" x2="654.0" y1="2352.0" y2="2440.0" /><line stroke="#333" stroke-width="10" x1="638.0" x2="672.0" y1="2237.0" y2="2352.0" /><line stroke="#333" stroke-width="10" x1="542.0" x2="638.0" y1="2198.0" y2="2237.0" /><line stroke="#333" stroke-width="10" x1="662.0" x2="584.0" y1="2132.0" y2="2062.0" /><line stroke="#333" stroke-width="10" x1="796.0" x2="662.0" y1="2278.0" y2="2132.0" /><line stroke="#333" stroke-width="10" x1="710.0" x2="796.0" y1="2532.0" y2="2469.0" /><line stroke="#333" stroke-width="10" x1="654.0" x2="572.0" y1="2440.0" y2="2485.0" /><line stroke="#666" stroke-width="20" x1="540.0" x2="476.0" y1="2485.0" y2="2485.0" /><line stroke="#333" stroke-width="10" x1="540.0" x2="540.0" y1="2485.0" y2="2469.0" /><line stroke="#666" stroke-width="20" x1="476.0" x2="540.0" y1="2469.0" y2="2469.0" /><line stroke="#333" stroke-width="10" x1="476.0" x2="444.0" y1="2485.0" y2="2485.0" /><line stroke="#333" stroke-width="10" x1="620.0" x2="644.0" y1="2421.0" y2="2349.0" /><line stroke="#333" stroke-width="10" x1="556.0" x2="620.0" y1="2469.0" y2="2421.0" /><line stroke="#333" stroke-width="10" x1="412.0" x2="476.0" y1="2421.0" y2="2469.0" /><line stroke="#333" stroke-width="10" x1="388.0" x2="412.0" y1="2349.0" y2="2421.0" /><line stroke="#333" stroke-width="10" x1="412.0" x2="388.0" y1="2277.0" y2="2349.0" /><line stroke="#333" stroke-width="10" x1="476.0" x2="412.0" y1="2229.0" y2="2277.0" /><line stroke="#333" stroke-width="10" x1="556.0" x2="476.0" y1="2229.0" y2="2229.0" /><line stroke="#333" stroke-width="10" x1="620.0" x2="556.0" y1="2277.0" y2="2229.0" /><line stroke="#333" stroke-width="10" x1="644.0" x2="620.0" y1="2349.0" y2="2277.0" /><line stroke="#333" stroke-width="10" x1="476.0" x2="476.0" y1="2469.0" y2="2485.0" /><line stroke="#333" stroke-width="10" x1="540.0" x2="556.0" y1="2469.0" y2="2469.0" /><line stroke="#333" stroke-width="10" x1="796.0" x2="860.0" y1="2406.0" y2="2406.0" /><line stroke="#999" stroke-width="3" x1="860.0" x2="860.0" y1="2406.0" y2="2342.0" /><line stroke="#333" stroke-width="10" x1="860.0" x2="796.0" y1="2342.0" y2="2342.0" /><line stroke="#999" stroke-width="3" x1="796.0" x2="796.0" y1="2406.0" y2="2342.0" /><line stroke="#333" stroke-width="10" x1="796.0" x2="796.0" y1="2342.0" y2="2278.0" /><line stroke="#999" stroke-width="3" x1="1202.0" x2="1237.0" y1="2521.0" y2="2371.0" /><line stroke="#333" stroke-width="10" x1="1100.0" x2="1202.0" y1="2575.0" y2="2521.0" /><line stroke="#333" stroke-width="10" x1="930.0" x2="1013.0" y1="2513.0" y2="2564.0" /><line stroke="#333" stroke-width="10" x1="860.0" x2="930.0" y1="2406.0" y2="2513.0" /><line stroke="#333" stroke-width="10" x1="1099.0" x2="956.0" y1="2219.0" y2="2272.0" /><line stroke="#333" stroke-width="10" x1="1202.0" x2="1099.0" y1="2260.0" y2="2219.0" /><line stroke="#999" stroke-width="3" x1="1237.0" x2="1202.0" y1="2371.0" y2="2260.0" /><line stroke="#333" stroke-width="10" x1="956.0" x2="860.0" y1="2272.0" y2="2342.0" /><line stroke="#333" stroke-width="10" x1="1013.0" x2="1100.0" y1="2564.0" y2="2575.0" /><line stroke="#333" stroke-width="10" x1="1624.0" x2="1698.0" y1="2503.0" y2="2425.0" /><line stroke="#333" stroke-width="10" x1="1450.0" x2="1624.0" y1="2609.0" y2="2503.0" /><line stroke="#333" stroke-width="10" x1="1293.0" x2="1450.0" y1="2583.0" y2="2609.0" /><line stroke="#333" stroke-width="10" x1="1202.0" x2="1293.0" y1="2521.0" y2="2583.0" /><line stroke="#333" stroke-width="10" x1="1367.0" x2="1202.0" y1="2206.0" y2="2260.0" /><line stroke="#333" stroke-width="10" x1="1553.0" x2="1367.0" y1="2208.0" y2="2206.0" /><line stroke="#999" stroke-width="3" x1="1676.0" x2="1594.0" y1="2301.0" y2="2265.0" /><line stroke="#999" stroke-width="3" x1="1698.0" x2="1662.0" y1="2425.0" y2="2375.0" /><line stroke="#333" stroke-width="10" x1="465.0" x2="529.0" y1="2646.0" y2="2646.0" /><line stroke="#333" stroke-width="10" x1="529.0" x2="529.0" y1="2646.0" y2="2582.0" /><line stroke="#999" stroke-width="3" x1="465.0" x2="529.0" y1="2582.0" y2="2582.0" /><line stroke="#333" stroke-width="10" x1="465.0" x2="465.0" y1="2582.0" y2="2646.0" /><line stroke="#333" stroke-width="10" x1="529.0" x2="568.0" y1="2582.0" y2="2582.0" /><line stroke="#333" stroke-width="10" x1="1698.0" x2="1824.0" y1="2425.0" y2="2315.0" /><line stroke="#333" stroke-width="10" x1="1564.0" x2="1553.0" y1="2080.0" y2="2208.0" /><line stroke="#333" stroke-width="10" x1="1621.0" x2="1564.0" y1="1960.0" y2="2080.0" /><line stroke="#999" stroke-width="3" x1="1729.0" x2="1621.0" y1="1921.0" y2="1960.0" /><line stroke="#999" stroke-width="3" x1="1864.0" x2="1729.0" y1="1963.0" y2="1921.0" /><line stroke="#333" stroke-width="10" x1="1888.0" x2="1903.0" y1="2191.0" y2="2069.0" /><line stroke="#333" stroke-width="10" x1="1824.0" x2="1888.0" y1="2315.0" y2="2191.0" /><line stroke="#999" stroke-width="3" x1="1594.0" x2="1553.0" y1="2265.0" y2="2208.0" /><line stroke="#999" stroke-width="3" x1="1662.0" x2="1676.0" y1="2375.0" y2="2301.0" /><line stroke="#333" stroke-width="10" x1="506.0" x2="522.0" y1="1993.0" y2="1969.0" /><line stroke="#333" stroke-width="10" x1="490.0" x2="450.0" y1="1729.0" y2="1721.0" /><line stroke="#999" stroke-width="3" x1="490.0" x2="506.0" y1="1729.0" y2="1993.0" /><line stroke="#333" stroke-width="10" x1="522.0" x2="549.0" y1="1969.0" y2="1958.0" /><line stroke="#333" stroke-width="10" x1="522.0" x2="490.0" y1="1729.0" y2="1729.0" /><line stroke="#999" stroke-width="3" x1="522.0" x2="522.0" y1="1969.0" y2="1729.0" /><line stroke="#333" stroke-width="10" x1="482.0" x2="506.0" y1="2009.0" y2="1993.0" /><line stroke="#333" stroke-width="10" x1="450.0" x2="423.0" y1="1721.0" y2="1717.0" /><line stroke="#999" stroke-width="3" x1="450.0" x2="482.0" y1="1721.0" y2="2009.0" /><line stroke="#999" stroke-width="3" x1="1984.0" x2="1968.0" y1="1910.0" y2="1777.0" /><line stroke="#333" stroke-width="10" x1="1864.0" x2="1984.0" y1="1963.0" y2="1910.0" /><line stroke="#999" stroke-width="3" x1="1733.0" x2="1593.0" y1="1711.0" y2="1737.0" /><line stroke="#333" stroke-width="10" x1="1769.0" x2="1733.0" y1="1779.0" y2="1711.0" /><line stroke="#333" stroke-width="10" x1="1869.0" x2="1769.0" y1="1799.0" y2="1779.0" /><line stroke="#333" stroke-width="10" x1="1968.0" x2="1869.0" y1="1777.0" y2="1799.0" /><line stroke="#333" stroke-width="10" x1="1593.0" x2="1617.0" y1="1737.0" y2="1854.0" /><line stroke="#333" stroke-width="10" x1="1617.0" x2="1621.0" y1="1854.0" y2="1960.0" /><line stroke="#333" stroke-width="10" x1="2095.0" x2="2091.0" y1="1731.0" y2="1603.0" /><line stroke="#333" stroke-width="10" x1="2047.0" x2="2095.0" y1="1842.0" y2="1731.0" /><line stroke="#333" stroke-width="10" x1="1984.0" x2="2047.0" y1="1910.0" y2="1842.0" /><line stroke="#333" stroke-width="10" x1="1991.0" x2="1968.0" y1="1682.0" y2="1777.0" /><line stroke="#333" stroke-width="10" x1="1975.0" x2="1991.0" y1="1616.0" y2="1682.0" /><line stroke="#333" stroke-width="10" x1="1935.0" x2="1975.0" y1="1582.0" y2="1616.0" /><line stroke="#999" stroke-width="3" x1="1935.0" x2="1967.0" y1="1582.0" y2="1525.0" /><line stroke="#999" stroke-width="3" x1="2091.0" x2="1967.0" y1="1603.0" y2="1525.0" /><line stroke="#333" stroke-width="10" x1="1917.0" x2="1935.0" y1="1612.0" y2="1582.0" /><line stroke="#333" stroke-width="10" x1="1955.0" x2="1917.0" y1="1683.0" y2="1612.0" /><line stroke="#333" stroke-width="10" x1="1937.0" x2="1955.0" y1="1752.0" y2="1683.0" /><line stroke="#333" stroke-width="10" x1="1803.0" x2="1872.0" y1="1753.0" y2="1772.0" /><line stroke="#333" stroke-width="10" x1="1760.0" x2="1803.0" y1="1698.0" y2="1753.0" /><line stroke="#999" stroke-width="3" x1="1785.0" x2="1715.0" y1="1549.0" y2="1624.0" /><line stroke="#999" stroke-width="3" x1="1967.0" x2="1869.0" y1="1525.0" y2="1516.0" /><line stroke="#333" stroke-width="10" x1="1872.0" x2="1937.0" y1="1772.0" y2="1752.0" /><line stroke="#333" stroke-width="10" x1="1733.0" x2="1760.0" y1="1711.0" y2="1698.0" /><line stroke="#999" stroke-width="3" x1="1869.0" x2="1785.0" y1="1516.0" y2="1549.0" /><line stroke="#999" stroke-width="3" x1="1715.0" x2="1733.0" y1="1624.0" y2="1711.0" /><line stroke="#333" stroke-width="10" x1="1609.0" x2="1593.0" y1="1578.0" y2="1737.0" /><line stroke="#333" stroke-width="10" x1="1700.0" x2="1609.0" y1="1479.0" y2="1578.0" /><line stroke="#999" stroke-width="3" x1="1848.0" x2="1700.0" y1="1430.0" y2="1479.0" /><line stroke="#999" stroke-width="3" x1="1869.0" x2="1848.0" y1="1516.0" y2="1430.0" /><line stroke="#999" stroke-width="3" x1="1959.0" x2="1848.0" y1="1431.0" y2="1430.0" /><line stroke="#333" stroke-width="10" x1="2091.0" x2="2057.0" y1="1603.0" y2="1501.0" /><line stroke="#999" stroke-width="3" x1="2057.0" x2="1959.0" y1="1501.0" y2="1431.0" /><line stroke="#333" stroke-width="10" x1="1903.0" x2="1864.0" y1="2069.0" y2="1963.0" /><line stroke="#666" stroke-width="20" x1="1265.0" x2="1201.0" y1="1962.0" y2="1962.0" /><line stroke="#333" stroke-width="10" x1="1265.0" x2="1265.0" y1="1962.0" y2="1954.0" /><line stroke="#666" stroke-width="20" x1="1201.0" x2="1265.0" y1="1954.0" y2="1954.0" /><line stroke="#333" stroke-width="10" x1="1201.0" x2="1201.0" y1="1954.0" y2="1962.0" /><line stroke="#999" stroke-width="3" x1="1201.0" x2="1265.0" y1="2026.0" y2="2026.0" /><line stroke="#333" stroke-width="10" x1="1265.0" x2="1265.0" y1="2026.0" y2="1962.0" /><line stroke="#333" stroke-width="10" x1="1201.0" x2="1201.0" y1="1962.0" y2="2026.0" /><line stroke="#333" stroke-width="10" x1="1508.0" x2="1548.0" y1="2135.0" y2="2039.0" /><line stroke="#333" stroke-width="10" x1="1369.0" x2="1508.0" y1="2175.0" y2="2135.0" /><line stroke="#333" stroke-width="10" x1="1258.0" x2="1369.0" y1="2135.0" y2="2175.0" /><line stroke="#333" stroke-width="10" x1="1201.0" x2="1258.0" y1="2026.0" y2="2135.0" /><line stroke="#333" stroke-width="10" x1="1370.0" x2="1265.0" y1="1944.0" y2="2026.0" /><line stroke="#333" stroke-width="10" x1="1470.0" x2="1452.0" y1="1944.0" y2="1944.0" /><line stroke="#333" stroke-width="10" x1="1548.0" x2="1470.0" y1="2039.0" y2="1944.0" /><line stroke="#999" stroke-width="3" x1="1388.0" x2="1452.0" y1="1944.0" y2="1944.0" /><line stroke="#333" stroke-width="10" x1="1452.0" x2="1452.0" y1="1944.0" y2="1752.0" /><line stroke="#999" stroke-width="3" x1="1452.0" x2="1388.0" y1="1752.0" y2="1752.0" /><line stroke="#333" stroke-width="10" x1="1388.0" x2="1388.0" y1="1752.0" y2="1944.0" /><line stroke="#333" stroke-width="10" x1="1388.0" x2="1370.0" y1="1944.0" y2="1944.0" /><line stroke="#333" stroke-width="10" x1="1452.0" x2="1530.0" y1="1752.0" y2="1704.0" /><line stroke="#333" stroke-width="10" x1="1328.0" x2="1388.0" y1="1659.0" y2="1752.0" /><line stroke="#333" stroke-width="10" x1="1313.0" x2="1328.0" y1="1564.0" y2="1659.0" /><line stroke="#333" stroke-width="10" x1="1539.0" x2="1468.0" y1="1577.0" y2="1473.0" /><line stroke="#333" stroke-width="10" x1="1530.0" x2="1539.0" y1="1704.0" y2="1577.0" /><line stroke="#999" stroke-width="3" x1="1404.0" x2="1468.0" y1="1473.0" y2="1473.0" /><line stroke="#333" stroke-width="10" x1="1468.0" x2="1468.0" y1="1473.0" y2="1217.0" /><line stroke="#999" stroke-width="3" x1="1468.0" x2="1404.0" y1="1217.0" y2="1217.0" /><line stroke="#333" stroke-width="10" x1="1404.0" x2="1404.0" y1="1217.0" y2="1473.0" /><line stroke="#333" stroke-width="10" x1="1404.0" x2="1313.0" y1="1473.0" y2="1564.0" /><line stroke="#333" stroke-width="10" x1="1468.0" x2="1501.0" y1="1217.0" y2="1173.0" /><line stroke="#999" stroke-width="3" x1="1290.0" x2="1324.0" y1="1178.0" y2="1222.0" /><line stroke="#333" stroke-width="10" x1="1346.0" x2="1290.0" y1="1146.0" y2="1178.0" /><line stroke="#333" stroke-width="10" x1="1376.0" x2="1346.0" y1="1102.0" y2="1146.0" /><line stroke="#333" stroke-width="10" x1="1380.0" x2="1397.0" y1="966.0" y2="1032.0" /><line stroke="#999" stroke-width="3" x1="1504.0" x2="1380.0" y1="990.0" y2="966.0" /><line stroke="#333" stroke-width="10" x1="1520.0" x2="1526.0" y1="1119.0" y2="1052.0" /><line stroke="#333" stroke-width="10" x1="1324.0" x2="1404.0" y1="1222.0" y2="1217.0" /><line stroke="#333" stroke-width="10" x1="1526.0" x2="1504.0" y1="1052.0" y2="990.0" /><line stroke="#333" stroke-width="10" x1="1501.0" x2="1520.0" y1="1173.0" y2="1119.0" /><line stroke="#333" stroke-width="10" x1="1504.0" x2="1442.0" y1="990.0" y2="908.0" /><line stroke="#333" stroke-width="10" x1="1342.0" x2="1380.0" y1="968.0" y2="966.0" /><line stroke="#333" stroke-width="10" x1="1319.0" x2="1348.0" y1="1116.0" y2="1088.0" /><line stroke="#333" stroke-width="10" x1="1279.0" x2="1319.0" y1="1141.0" y2="1116.0" /><line stroke="#333" stroke-width="10" x1="1171.0" x2="1206.0" y1="1144.0" y2="1192.0" /><line stroke="#333" stroke-width="10" x1="1384.0" x2="1320.0" y1="856.0" y2="856.0" /><line stroke="#333" stroke-width="10" x1="1442.0" x2="1384.0" y1="908.0" y2="856.0" /><line stroke="#333" stroke-width="10" x1="1290.0" x2="1279.0" y1="1178.0" y2="1141.0" /><line stroke="#333" stroke-width="10" x1="1206.0" x2="1253.0" y1="1192.0" y2="1216.0" /><line stroke="#333" stroke-width="10" x1="1253.0" x2="1324.0" y1="1216.0" y2="1222.0" /><line stroke="#333" stroke-width="10" x1="1215.0" x2="1143.0" y1="941.0" y2="1061.0" /><line stroke="#333" stroke-width="10" x1="1143.0" x2="1171.0" y1="1061.0" y2="1144.0" /><line stroke="#333" stroke-width="10" x1="1320.0" x2="1215.0" y1="856.0" y2="941.0" /><line stroke="#333" stroke-width="10" x1="1397.0" x2="1376.0" y1="1032.0" y2="1102.0" /><line stroke="#333" stroke-width="10" x1="1361.0" x2="1342.0" y1="1026.0" y2="968.0" /><line stroke="#333" stroke-width="10" x1="1348.0" x2="1361.0" y1="1088.0" y2="1026.0" /><line stroke="#333" stroke-width="10" x1="2057.0" x2="2108.0" y1="1501.0" y2="1399.0" /><line stroke="#333" stroke-width="10" x1="1742.0" x2="1692.0" y1="1207.0" y2="1355.0" /><line stroke="#999" stroke-width="3" x1="1831.0" x2="1742.0" y1="1145.0" y2="1207.0" /><line stroke="#999" stroke-width="3" x1="1937.0" x2="1831.0" y1="1109.0" y2="1145.0" /><line stroke="#999" stroke-width="3" x1="2045.0" x2="1937.0" y1="1141.0" y2="1109.0" /><line stroke="#333" stroke-width="10" x1="2091.0" x2="2045.0" y1="1237.0" y2="1141.0" /><line stroke="#333" stroke-width="10" x1="2108.0" x2="2091.0" y1="1399.0" y2="1237.0" /><line stroke="#333" stroke-width="10" x1="1692.0" x2="1700.0" y1="1355.0" y2="1479.0" /><line stroke="#999" stroke-width="3" x1="1618.0" x2="1589.0" y1="955.0" y2="1014.0" /><line stroke="#333" stroke-width="10" x1="1724.0" x2="1618.0" y1="977.0" y2="955.0" /><line stroke="#333" stroke-width="10" x1="1838.0" x2="1724.0" y1="957.0" y2="977.0" /><line stroke="#333" stroke-width="10" x1="1934.0" x2="1838.0" y1="881.0" y2="957.0" /><line stroke="#333" stroke-width="10" x1="2045.0" x2="2064.0" y1="1141.0" y2="1033.0" /><line stroke="#333" stroke-width="10" x1="2064.0" x2="2022.0" y1="1033.0" y2="885.0" /><line stroke="#333" stroke-width="10" x1="1589.0" x2="1652.0" y1="1014.0" y2="1126.0" /><line stroke="#999" stroke-width="3" x1="2022.0" x2="1934.0" y1="885.0" y2="881.0" /><line stroke="#333" stroke-width="10" x1="1836.0" x2="1913.0" y1="917.0" y2="848.0" /><line stroke="#333" stroke-width="10" x1="1731.0" x2="1836.0" y1="941.0" y2="917.0" /><line stroke="#333" stroke-width="10" x1="1622.0" x2="1731.0" y1="921.0" y2="941.0" /><line stroke="#333" stroke-width="10" x1="1618.0" x2="1622.0" y1="955.0" y2="921.0" /><line stroke="#333" stroke-width="10" x1="2022.0" x2="2004.0" y1="885.0" y2="740.0" /><line stroke="#333" stroke-width="10" x1="1913.0" x2="1934.0" y1="848.0" y2="881.0" /><line stroke="#999" stroke-width="3" x1="1785.0" x2="1613.0" y1="571.0" y2="642.0" /><line stroke="#333" stroke-width="10" x1="1926.0" x2="1785.0" y1="644.0" y2="571.0" /><line stroke="#333" stroke-width="10" x1="1516.0" x2="1520.0" y1="752.0" y2="887.0" /><line stroke="#333" stroke-width="10" x1="1613.0" x2="1516.0" y1="642.0" y2="752.0" /><line stroke="#333" stroke-width="10" x1="1520.0" x2="1589.0" y1="887.0" y2="1014.0" /><line stroke="#333" stroke-width="10" x1="2004.0" x2="1926.0" y1="740.0" y2="644.0" /><line stroke="#333" stroke-width="10" x1="1443.0" x2="1568.0" y1="489.0" y2="550.0" /><line stroke="#333" stroke-width="10" x1="1634.0" x2="1469.0" y1="462.0" y2="407.0" /><line stroke="#333" stroke-width="10" x1="1785.0" x2="1634.0" y1="571.0" y2="462.0" /><line stroke="#333" stroke-width="10" x1="1568.0" x2="1613.0" y1="550.0" y2="642.0" /><line stroke="#333" stroke-width="10" x1="1652.0" x2="1742.0" y1="1126.0" y2="1207.0" /><line stroke="#333" stroke-width="10" x1="453.0" x2="517.0" y1="230.0" y2="230.0" /><line stroke="#999" stroke-width="3" x1="517.0" x2="517.0" y1="230.0" y2="166.0" /><line stroke="#333" stroke-width="10" x1="517.0" x2="453.0" y1="166.0" y2="166.0" /><line stroke="#d00" stroke-width="20" x1="453.0" x2="453.0" y1="166.0" y2="230.0" /><line stroke="#333" stroke-width="10" x1="517.0" x2="517.0" y1="230.0" y2="246.0" /><line stroke="#333" stroke-width="10" x1="517.0" x2="517.0" y1="246.0" y2="303.0" /><line stroke="#333" stroke-width="10" x1="517.0" x2="517.0" y1="150.0" y2="166.0" /><line stroke="#333" stroke-width="10" x1="445.0" x2="453.0" y1="230.0" y2="230.0" /><line stroke="#333" stroke-width="10" x1="453.0" x2="445.0" y1="166.0" y2="166.0" /><line stroke="#d00" stroke-width="20" x1="445.0" x2="445.0" y1="230.0" y2="166.0" /><line stroke="#333" stroke-width="10" x1="381.0" x2="429.0" y1="230.0" y2="230.0" /><line stroke="#333" stroke-width="10" x1="445.0" x2="429.0" y1="166.0" y2="166.0" /><line stroke="#333" stroke-width="10" x1="381.0" x2="381.0" y1="166.0" y2="230.0" /><line stroke="#0d0" stroke-width="20" x1="231.0" x2="271.0" y1="1338.0" y2="1282.0" /><line stroke="#0d0" stroke-width="20" x1="271.0" x2="343.0" y1="1282.0" y2="1306.0" /><line stroke="#0d0" stroke-width="20" x1="343.0" x2="343.0" y1="1306.0" y2="1378.0" /><line stroke="#0d0" stroke-width="20" x1="343.0" x2="271.0" y1="1378.0" y2="1394.0" /><line stroke="#0d0" stroke-width="20" x1="271.0" x2="231.0" y1="1394.0" y2="1338.0" /><line stroke="#333" stroke-width="10" x1="343.0" x2="271.0" y1="1162.0" y2="1282.0" /><line stroke="#333" stroke-width="10" x1="343.0" x2="343.0" y1="1306.0" y2="1162.0" /><line stroke="#333" stroke-width="10" x1="271.0" x2="125.0" y1="1282.0" y2="1232.0" /><line stroke="#333" stroke-width="10" x1="125.0" x2="231.0" y1="1232.0" y2="1338.0" /><line stroke="#333" stroke-width="10" x1="231.0" x2="127.0" y1="1338.0" y2="1442.0" /><line stroke="#333" stroke-width="10" x1="127.0" x2="271.0" y1="1442.0" y2="1394.0" /><line stroke="#333" stroke-width="10" x1="495.0" x2="343.0" y1="1346.0" y2="1306.0" /><line stroke="#333" stroke-width="10" x1="343.0" x2="495.0" y1="1378.0" y2="1346.0" /><line stroke="#333" stroke-width="10" x1="357.0" x2="343.0" y1="1539.0" y2="1378.0" /><line stroke="#333" stroke-width="10" x1="271.0" x2="357.0" y1="1394.0" y2="1539.0" /><line stroke="#333" stroke-width="10" x1="429.0" x2="381.0" y1="166.0" y2="166.0" /><line stroke="#333" stroke-width="10" x1="429.0" x2="445.0" y1="230.0" y2="230.0" /><line stroke="#00d" stroke-width="20" x1="429.0" x2="429.0" y1="166.0" y2="230.0" /><ellipse cx="1407.0" cy="417.0" fill="#009" rx="12" ry="24" stroke="#009" stroke-width="5" /><rect fill="#900" height="48" stroke="#900" stroke-width="5" transform="rotate(315,213.0,1978.0)" width="32" x="197.0" y="1954.0" /><rect fill="#900" height="48" stroke="#900" stroke-width="5" transform="rotate(315,267.0,1922.0)" width="32" x="251.0" y="1898.0" /><rect fill="#900" height="48" stroke="#900" stroke-width="5" transform="rotate(315,293.0,2000.0)" width="32" x="277.0" y="1976.0" /><rect fill="#900" height="48" stroke="#900" stroke-width="5" transform="rotate(315,193.0,1903.0)" width="32" x="177.0" y="1879.0" /><rect fill="#900" height="48" stroke="#900" stroke-width="5" transform="rotate(315,329.0,1938.0)" width="32" x="313.0" y="1914.0" /><rect fill="#900" height="48" stroke="#900" stroke-width="5" transform="rotate(315,257.0,1852.0)" width="32" x="241.0" y="1828.0" /><rect fill="#900" height="48" stroke="#900" stroke-width="5" transform="rotate(315,321.0,1873.0)" width="32" x="305.0" y="1849.0" /><ellipse cx="827.0" cy="2373.0" fill="#090" rx="12" ry="24" stroke="#090" stroke-width="5" /><rect fill="#009" height="24" stroke="#009" stroke-width="5" transform="rotate(225,318.0,1410.0)" width="24" x="306.0" y="1398.0" /><rect fill="#900" height="48" stroke="#900" stroke-width="5" transform="rotate(0,490.0,199.0)" width="32" x="474.0" y="175.0" /><rect fill="#900" height="48" stroke="#900" stroke-width="5" transform="rotate(0,577.0,103.0)" width="32" x="561.0" y="79.0" /><rect fill="#900" height="48" stroke="#900" stroke-width="5" transform="rotate(0,694.0,61.0)" width="32" x="678.0" y="37.0" /><rect fill="#900" height="48" stroke="#900" stroke-width="5" transform="rotate(0,793.0,55.0)" width="32" x="777.0" y="31.0" /><rect fill="#900" height="48" stroke="#900" stroke-width="5" transform="rotate(0,778.0,554.0)" width="32" x="762.0" y="530.0" /><rect fill="#900" height="48" stroke="#900" stroke-width="5" transform="rotate(315,844.0,644.0)" width="32" x="828.0" y="620.0" /><rect fill="#900" height="48" stroke="#900" stroke-width="5" transform="rotate(315,938.0,722.0)" width="32" x="922.0" y="698.0" /><rect fill="#900" height="48" stroke="#900" stroke-width="5" transform="rotate(0,694.0,455.0)" width="32" x="678.0" y="431.0" /><rect fill="#900" height="48" stroke="#900" stroke-width="5" transform="rotate(0,622.0,376.0)" width="32" x="606.0" y="352.0" /><rect fill="#900" height="48" stroke="#900" stroke-width="5" transform="rotate(0,736.0,313.0)" width="32" x="720.0" y="289.0" /><rect fill="#900" height="48" stroke="#900" stroke-width="5" transform="rotate(315,865.0,777.0)" width="32" x="849.0" y="753.0" /><rect fill="#900" height="48" stroke="#900" stroke-width="5" transform="rotate(0,917.0,133.0)" width="32" x="901.0" y="109.0" /><rect fill="#900" height="48" stroke="#900" stroke-width="5" transform="rotate(315,1160.0,536.0)" width="32" x="1144.0" y="512.0" /><ellipse cx="1355.0" cy="471.0" fill="#009" rx="12" ry="24" stroke="#009" stroke-width="5" /><ellipse cx="1358.0" cy="357.0" fill="#009" rx="12" ry="24" stroke="#009" stroke-width="5" /><ellipse cx="1301.0" cy="405.0" fill="#009" rx="12" ry="24" stroke="#009" stroke-width="5" /><rect fill="#090" height="24" stroke="#090" stroke-width="5" transform="rotate(180,1352.0,417.0)" width="24" x="1340.0" y="405.0" /><rect fill="#090" height="24" stroke="#090" stroke-width="5" transform="rotate(180,1235.0,1988.0)" width="24" x="1223.0" y="1976.0" /><rect fill="#090" height="24" stroke="#090" stroke-width="5" transform="rotate(180,1953.0,1818.0)" width="24" x="1941.0" y="1806.0" /><rect fill="#090" height="24" stroke="#090" stroke-width="5" transform="rotate(180,691.0,1429.0)" width="24" x="679.0" y="1417.0" /><circle cx="1310.0" cy="370.0" fill="#900" r="16" stroke="#900" stroke-width="5" /><circle cx="1256.0" cy="331.0" fill="#900" r="16" stroke="#900" stroke-width="5" /><circle cx="1193.0" cy="307.0" fill="#900" r="16" stroke="#900" stroke-width="5" /><circle cx="1130.0" cy="280.0" fill="#900" r="16" stroke="#900" stroke-width="5" /><rect fill="#900" height="48" stroke="#900" stroke-width="5" transform="rotate(270,947.0,1017.0)" width="32" x="931.0" y="993.0" /><rect fill="#900" height="48" stroke="#900" stroke-width="5" transform="rotate(0,643.0,920.0)" width="32" x="627.0" y="896.0" /><rect fill="#900" height="48" stroke="#900" stroke-width="5" transform="rotate(315,664.0,1230.0)" width="32" x="648.0" y="1206.0" /><rect fill="#900" height="48" stroke="#900" stroke-width="5" transform="rotate(180,1073.0,1479.0)" width="32" x="1057.0" y="1455.0" /><rect fill="#900" height="48" stroke="#900" stroke-width="5" transform="rotate(135,1043.0,1401.0)" width="32" x="1027.0" y="1377.0" /><rect fill="#900" height="48" stroke="#900" stroke-width="5" transform="rotate(135,941.0,1359.0)" width="32" x="925.0" y="1335.0" /><rect fill="#900" height="48" stroke="#900" stroke-width="5" transform="rotate(180,1073.0,1548.0)" width="32" x="1057.0" y="1524.0" /><rect fill="#900" height="48" stroke="#900" stroke-width="5" transform="rotate(225,1025.0,1617.0)" width="32" x="1009.0" y="1593.0" /><rect fill="#900" height="48" stroke="#900" stroke-width="5" transform="rotate(225,959.0,1668.0)" width="32" x="943.0" y="1644.0" /><rect fill="#900" height="48" stroke="#900" stroke-width="5" transform="rotate(180,1223.0,1872.0)" width="32" x="1207.0" y="1848.0" /><rect fill="#900" height="48" stroke="#900" stroke-width="5" transform="rotate(225,1097.0,1854.0)" width="32" x="1081.0" y="1830.0" /><rect fill="#900" height="48" stroke="#900" stroke-width="5" transform="rotate(180,1396.0,2105.0)" width="32" x="1380.0" y="2081.0" /><rect fill="#900" height="48" stroke="#900" stroke-width="5" transform="rotate(180,1483.0,2069.0)" width="32" x="1467.0" y="2045.0" /><rect fill="#900" height="48" stroke="#900" stroke-width="5" transform="rotate(180,1408.0,2003.0)" width="32" x="1392.0" y="1979.0" /><rect fill="#900" height="48" stroke="#900" stroke-width="5" transform="rotate(90,1378.0,1609.0)" width="32" x="1362.0" y="1585.0" /><rect fill="#900" height="48" stroke="#900" stroke-width="5" transform="rotate(90,1477.0,1609.0)" width="32" x="1461.0" y="1585.0" /><rect fill="#900" height="48" stroke="#900" stroke-width="5" transform="rotate(180,1320.0,1026.0)" width="32" x="1304.0" y="1002.0" /><rect fill="#900" height="48" stroke="#900" stroke-width="5" transform="rotate(180,1269.0,1077.0)" width="32" x="1253.0" y="1053.0" /><rect fill="#900" height="48" stroke="#900" stroke-width="5" transform="rotate(180,1241.0,998.0)" width="32" x="1225.0" y="974.0" /><rect fill="#900" height="48" stroke="#900" stroke-width="5" transform="rotate(90,313.0,2438.0)" width="32" x="297.0" y="2414.0" /><rect fill="#900" height="48" stroke="#900" stroke-width="5" transform="rotate(90,729.0,2386.0)" width="32" x="713.0" y="2362.0" /><rect fill="#900" height="48" stroke="#900" stroke-width="5" transform="rotate(90,465.0,2118.0)" width="32" x="449.0" y="2094.0" /><rect fill="#900" height="48" stroke="#900" stroke-width="5" transform="rotate(0,1089.0,2382.0)" width="32" x="1073.0" y="2358.0" /><rect fill="#900" height="48" stroke="#900" stroke-width="5" transform="rotate(0,1453.0,2382.0)" width="32" x="1437.0" y="2358.0" /><rect fill="#900" height="48" stroke="#900" stroke-width="5" transform="rotate(270,1733.0,2142.0)" width="32" x="1717.0" y="2118.0" /><rect fill="#900" height="48" stroke="#900" stroke-width="5" transform="rotate(225,1857.0,1690.0)" width="32" x="1841.0" y="1666.0" /><rect fill="#900" height="48" stroke="#900" stroke-width="5" transform="rotate(270,1665.0,870.0)" width="32" x="1649.0" y="846.0" /><rect fill="#900" height="48" stroke="#900" stroke-width="5" transform="rotate(270,1741.0,882.0)" width="32" x="1725.0" y="858.0" /><rect fill="#900" height="48" stroke="#900" stroke-width="5" transform="rotate(270,1817.0,846.0)" width="32" x="1801.0" y="822.0" /><rect fill="#900" height="48" stroke="#900" stroke-width="5" transform="rotate(270,1865.0,802.0)" width="32" x="1849.0" y="778.0" /><rect fill="#900" height="48" stroke="#900" stroke-width="5" transform="rotate(270,1653.0,566.0)" width="32" x="1637.0" y="542.0" /><rect fill="#900" height="48" stroke="#900" stroke-width="5" transform="rotate(270,1545.0,482.0)" width="32" x="1529.0" y="458.0" /><circle cx="967.0" cy="592.0" fill="#090" r="16" stroke="#090" stroke-width="5" /><circle cx="604.0" cy="1050.0" fill="#090" r="16" stroke="#090" stroke-width="5" /><circle cx="992.0" cy="1465.0" fill="#090" r="16" stroke="#090" stroke-width="5" /><circle cx="1372.0" cy="2037.0" fill="#090" r="16" stroke="#090" stroke-width="5" /><circle cx="1457.0" cy="1114.0" fill="#090" r="16" stroke="#090" stroke-width="5" /><circle cx="459.0" cy="1787.0" fill="#090" r="16" stroke="#090" stroke-width="5" /><circle cx="64.0" cy="1902.0" fill="#090" r="16" stroke="#090" stroke-width="5" /><circle cx="389.0" cy="2237.0" fill="#090" r="16" stroke="#090" stroke-width="5" /><circle cx="1047.0" cy="2317.0" fill="#090" r="16" stroke="#090" stroke-width="5" /><circle cx="1767.0" cy="2107.0" fill="#090" r="16" stroke="#090" stroke-width="5" /><circle cx="1917.0" cy="1259.0" fill="#090" r="16" stroke="#090" stroke-width="5" /><circle cx="1617.0" cy="491.0" fill="#090" r="16" stroke="#090" stroke-width="5" /><rect fill="#090" height="24" stroke="#090" stroke-width="5" transform="rotate(180,294.0,1336.0)" width="24" x="282.0" y="1324.0" /><circle cx="1291.0" cy="357.0" fill="#009" r="16" stroke="#009" stroke-width="5" /><circle cx="1198.0" cy="420.0" fill="#009" r="16" stroke="#009" stroke-width="5" /><circle cx="774.0" cy="486.0" fill="#009" r="16" stroke="#009" stroke-width="5" /><circle cx="882.0" cy="922.0" fill="#009" r="16" stroke="#009" stroke-width="5" /><circle cx="696.0" cy="1535.0" fill="#009" r="16" stroke="#009" stroke-width="5" /><circle cx="1032.0" cy="1745.0" fill="#009" r="16" stroke="#009" stroke-width="5" /><circle cx="180.0" cy="1809.0" fill="#009" r="16" stroke="#009" stroke-width="5" /><circle cx="603.0" cy="2142.0" fill="#009" r="16" stroke="#009" stroke-width="5" /><circle cx="636.0" cy="2506.0" fill="#009" r="16" stroke="#009" stroke-width="5" /><circle cx="1288.0" cy="2413.0" fill="#009" r="16" stroke="#009" stroke-width="5" /><circle cx="1856.0" cy="1848.0" fill="#009" r="16" stroke="#009" stroke-width="5" /><circle cx="1805.0" cy="1298.0" fill="#009" r="16" stroke="#009" stroke-width="5" /><circle cx="296.0" cy="1347.0" fill="#009" r="16" stroke="#009" stroke-width="5" /><circle cx="497.0" cy="2614.0" fill="#090" r="16" stroke="#090" stroke-width="5" /></svg>