<?xml version="1.0" encoding="utf-8" ?>
<svg baseProfile="tiny" height="997" version="1.2" viewBox="0 0 1792 1746" width="1024" xmlns="http://www.w3.org/2000/svg" xmlns:ev="http://www.w3.org/2001/xml-events" xmlns:xlink="http://www.w3.org/1999/xlink"><defs /><line stroke="#333" stroke-width="10" x1="5.0" x2="261.0" y1="1485.0" y2="1485.0" /><line stroke="#0d0" stroke-width="20" x1="389.0" x2="453.0" y1="1485.0" y2="1485.0" /><line stroke="#333" stroke-width="10" x1="453.0" x2="1157.0" y1="1485.0" y2="1485.0" /><line stroke="#333" stroke-width="10" x1="1157.0" x2="1157.0" y1="1485.0" y2="1741.0" /><line stroke="#333" stroke-width="10" x1="1157.0" x2="1285.0" y1="1741.0" y2="1741.0" /><line stroke="#333" stroke-width="10" x1="1285.0" x2="1285.0" y1="1741.0" y2="1485.0" /><line stroke="#333" stroke-width="10" x1="1285.0" x2="1541.0" y1="589.0" y2="589.0" /><line stroke="#333" stroke-width="10" x1="1541.0" x2="1541.0" y1="589.0" y2="461.0" /><line stroke="#333" stroke-width="10" x1="1541.0" x2="1285.0" y1="461.0" y2="461.0" /><line stroke="#333" stroke-width="10" x1="1285.0" x2="1157.0" y1="461.0" y2="461.0" /><line stroke="#333" stroke-width="10" x1="389.0" x2="389.0" y1="461.0" y2="349.0" /><line stroke="#333" stroke-width="10" x1="389.0" x2="261.0" y1="205.0" y2="205.0" /><line stroke="#333" stroke-width="10" x1="261.0" x2="261.0" y1="205.0" y2="461.0" /><line stroke="#333" stroke-width="10" x1="261.0" x2="261.0" y1="461.0" y2="1037.0" /><line stroke="#333" stroke-width="10" x1="261.0" x2="5.0" y1="1341.0" y2="1341.0" /><line stroke="#333" stroke-width="10" x1="5.0" x2="5.0" y1="1341.0" y2="1485.0" /><line stroke="#999" stroke-width="3" x1="261.0" x2="261.0" y1="1341.0" y2="1485.0" /><line stroke="#999" stroke-width="3" x1="1157.0" x2="1285.0" y1="1485.0" y2="1485.0" /><line stroke="#999" stroke-width="3" x1="1285.0" x2="1285.0" y1="589.0" y2="461.0" /><line stroke="#999" stroke-width="3" x1="389.0" x2="261.0" y1="461.0" y2="461.0" /><line stroke="#999" stroke-width="3" x1="949.0" x2="741.0" y1="717.0" y2="589.0" /><line stroke="#999" stroke-width="3" x1="965.0" x2="949.0" y1="701.0" y2="717.0" /><line stroke="#999" stroke-width="3" x1="741.0" x2="965.0" y1="525.0" y2="701.0" /><line stroke="#999" stroke-width="3" x1="373.0" x2="741.0" y1="765.0" y2="525.0" /><line stroke="#999" stroke-width="3" x1="373.0" x2="389.0" y1="765.0" y2="797.0" /><line stroke="#999" stroke-width="3" x1="741.0" x2="389.0" y1="589.0" y2="797.0" /><line stroke="#999" stroke-width="3" x1="709.0" x2="725.0" y1="765.0" y2="733.0" /><line stroke="#999" stroke-width="3" x1="1045.0" x2="709.0" y1="909.0" y2="765.0" /><line stroke="#999" stroke-width="3" x1="1221.0" x2="1045.0" y1="765.0" y2="909.0" /><line stroke="#999" stroke-width="3" x1="1205.0" x2="1221.0" y1="749.0" y2="765.0" /><line stroke="#999" stroke-width="3" x1="693.0" x2="405.0" y1="1213.0" y2="909.0" /><line stroke="#999" stroke-width="3" x1="693.0" x2="693.0" y1="1165.0" y2="1213.0" /><line stroke="#999" stroke-width="3" x1="485.0" x2="693.0" y1="941.0" y2="1165.0" /><line stroke="#999" stroke-width="3" x1="757.0" x2="805.0" y1="1117.0" y2="941.0" /><line stroke="#999" stroke-width="3" x1="789.0" x2="757.0" y1="1149.0" y2="1117.0" /><line stroke="#999" stroke-width="3" x1="853.0" x2="789.0" y1="909.0" y2="1149.0" /><line stroke="#999" stroke-width="3" x1="629.0" x2="517.0" y1="1373.0" y2="1213.0" /><line stroke="#999" stroke-width="3" x1="517.0" x2="373.0" y1="1213.0" y2="1213.0" /><line stroke="#999" stroke-width="3" x1="373.0" x2="357.0" y1="1213.0" y2="1197.0" /><line stroke="#999" stroke-width="3" x1="357.0" x2="373.0" y1="1197.0" y2="1181.0" /><line stroke="#999" stroke-width="3" x1="373.0" x2="533.0" y1="1181.0" y2="1181.0" /><line stroke="#999" stroke-width="3" x1="533.0" x2="645.0" y1="1181.0" y2="1341.0" /><line stroke="#999" stroke-width="3" x1="645.0" x2="725.0" y1="1341.0" y2="1357.0" /><line stroke="#999" stroke-width="3" x1="725.0" x2="821.0" y1="1357.0" y2="1293.0" /><line stroke="#999" stroke-width="3" x1="821.0" x2="901.0" y1="1293.0" y2="1101.0" /><line stroke="#999" stroke-width="3" x1="901.0" x2="997.0" y1="1101.0" y2="1053.0" /><line stroke="#999" stroke-width="3" x1="997.0" x2="1093.0" y1="1053.0" y2="1053.0" /><line stroke="#999" stroke-width="3" x1="1093.0" x2="1125.0" y1="1053.0" y2="1133.0" /><line stroke="#999" stroke-width="3" x1="997.0" x2="853.0" y1="1277.0" y2="1325.0" /><line stroke="#999" stroke-width="3" x1="853.0" x2="725.0" y1="1325.0" y2="1389.0" /><line stroke="#999" stroke-width="3" x1="725.0" x2="629.0" y1="1389.0" y2="1373.0" /><line stroke="#999" stroke-width="3" x1="1045.0" x2="1205.0" y1="877.0" y2="749.0" /><line stroke="#999" stroke-width="3" x1="725.0" x2="1045.0" y1="733.0" y2="877.0" /><line stroke="#999" stroke-width="3" x1="613.0" x2="485.0" y1="941.0" y2="941.0" /><line stroke="#666" stroke-width="20" x1="677.0" x2="613.0" y1="941.0" y2="941.0" /><line stroke="#999" stroke-width="3" x1="805.0" x2="677.0" y1="941.0" y2="941.0" /><line stroke="#999" stroke-width="3" x1="405.0" x2="853.0" y1="909.0" y2="909.0" /><line stroke="#333" stroke-width="10" x1="1285.0" x2="1285.0" y1="1117.0" y2="957.0" /><line stroke="#d00" stroke-width="20" x1="1285.0" x2="1285.0" y1="1213.0" y2="1117.0" /><line stroke="#333" stroke-width="10" x1="1285.0" x2="1285.0" y1="1485.0" y2="1213.0" /><line stroke="#333" stroke-width="10" x1="1285.0" x2="1293.0" y1="1213.0" y2="1213.0" /><line stroke="#d00" stroke-width="20" x1="1293.0" x2="1293.0" y1="1117.0" y2="1213.0" /><line stroke="#333" stroke-width="10" x1="1293.0" x2="1285.0" y1="1117.0" y2="1117.0" /><line stroke="#333" stroke-width="10" x1="1437.0" x2="1293.0" y1="1117.0" y2="1117.0" /><line stroke="#333" stroke-width="10" x1="1437.0" x2="1437.0" y1="1213.0" y2="1117.0" /><line stroke="#333" stroke-width="10" x1="1293.0" x2="1437.0" y1="1213.0" y2="1213.0" /><line stroke="#999" stroke-width="3" x1="693.0" x2="789.0" y1="1213.0" y2="1149.0" /><line stroke="#999" stroke-width="3" x1="757.0" x2="693.0" y1="1117.0" y2="1165.0" /><line stroke="#00d" stroke-width="20" x1="1372.0" x2="1420.0" y1="1144.0" y2="1144.0" /><line stroke="#00d" stroke-width="20" x1="1420.0" x2="1420.0" y1="1144.0" y2="1192.0" /><line stroke="#00d" stroke-width="20" x1="1420.0" x2="1372.0" y1="1192.0" y2="1192.0" /><line stroke="#00d" stroke-width="20" x1="1372.0" x2="1372.0" y1="1192.0" y2="1144.0" /><line stroke="#999" stroke-width="3" x1="1013.0" x2="917.0" y1="1101.0" y2="1197.0" /><line stroke="#999" stroke-width="3" x1="1125.0" x2="1093.0" y1="1133.0" y2="1181.0" /><line stroke="#999" stroke-width="3" x1="1077.0" x2="1013.0" y1="1165.0" y2="1101.0" /><line stroke="#999" stroke-width="3" x1="1093.0" x2="1077.0" y1="1181.0" y2="1165.0" /><line stroke="#999" stroke-width="3" x1="981.0" x2="997.0" y1="1261.0" y2="1277.0" /><line stroke="#999" stroke-width="3" x1="917.0" x2="981.0" y1="1197.0" y2="1261.0" /><line stroke="#999" stroke-width="3" x1="1093.0" x2="997.0" y1="1181.0" y2="1277.0" /><line stroke="#999" stroke-width="3" x1="981.0" x2="1077.0" y1="1261.0" y2="1165.0" /><line stroke="#999" stroke-width="3" x1="1213.0" x2="1237.0" y1="1461.0" y2="1461.0" /><line stroke="#999" stroke-width="3" x1="1237.0" x2="1229.0" y1="1453.0" y2="1453.0" /><line stroke="#999" stroke-width="3" x1="1229.0" x2="1229.0" y1="1453.0" y2="1429.0" /><line stroke="#999" stroke-width="3" x1="1229.0" x2="1221.0" y1="1429.0" y2="1429.0" /><line stroke="#999" stroke-width="3" x1="1221.0" x2="1221.0" y1="1429.0" y2="1453.0" /><line stroke="#999" stroke-width="3" x1="1221.0" x2="1213.0" y1="1453.0" y2="1453.0" /><line stroke="#999" stroke-width="3" x1="1213.0" x2="1213.0" y1="1453.0" y2="1461.0" /><line stroke="#999" stroke-width="3" x1="1245.0" x2="1237.0" y1="1429.0" y2="1429.0" /><line stroke="#999" stroke-width="3" x1="1237.0" x2="1237.0" y1="1429.0" y2="1453.0" /><line stroke="#999" stroke-width="3" x1="1253.0" x2="1261.0" y1="1461.0" y2="1461.0" /><line stroke="#999" stroke-width="3" x1="1261.0" x2="1253.0" y1="1429.0" y2="1429.0" /><line stroke="#999" stroke-width="3" x1="1261.0" x2="1261.0" y1="1461.0" y2="1429.0" /><line stroke="#999" stroke-width="3" x1="1237.0" x2="1245.0" y1="1461.0" y2="1461.0" /><line stroke="#999" stroke-width="3" x1="1245.0" x2="1253.0" y1="1461.0" y2="1445.0" /><line stroke="#999" stroke-width="3" x1="1253.0" x2="1253.0" y1="1445.0" y2="1461.0" /><line stroke="#999" stroke-width="3" x1="1245.0" x2="1245.0" y1="1445.0" y2="1429.0" /><line stroke="#999" stroke-width="3" x1="1253.0" x2="1245.0" y1="1429.0" y2="1445.0" /><line stroke="#333" stroke-width="10" x1="261.0" x2="389.0" y1="1485.0" y2="1485.0" /><line stroke="#666" stroke-width="20" x1="261.0" x2="261.0" y1="1037.0" y2="1133.0" /><line stroke="#333" stroke-width="10" x1="261.0" x2="261.0" y1="1133.0" y2="1341.0" /><line stroke="#333" stroke-width="10" x1="37.0" x2="245.0" y1="1133.0" y2="1133.0" /><line stroke="#333" stroke-width="10" x1="37.0" x2="37.0" y1="845.0" y2="1133.0" /><line stroke="#333" stroke-width="10" x1="165.0" x2="37.0" y1="845.0" y2="845.0" /><line stroke="#333" stroke-width="10" x1="165.0" x2="165.0" y1="589.0" y2="845.0" /><line stroke="#333" stroke-width="10" x1="229.0" x2="229.0" y1="909.0" y2="525.0" /><line stroke="#333" stroke-width="10" x1="101.0" x2="229.0" y1="909.0" y2="909.0" /><line stroke="#333" stroke-width="10" x1="101.0" x2="101.0" y1="1037.0" y2="909.0" /><line stroke="#333" stroke-width="10" x1="261.0" x2="245.0" y1="1037.0" y2="1037.0" /><line stroke="#333" stroke-width="10" x1="5.0" x2="165.0" y1="589.0" y2="589.0" /><line stroke="#333" stroke-width="10" x1="5.0" x2="5.0" y1="205.0" y2="589.0" /><line stroke="#333" stroke-width="10" x1="229.0" x2="69.0" y1="525.0" y2="525.0" /><line stroke="#333" stroke-width="10" x1="197.0" x2="197.0" y1="445.0" y2="301.0" /><line stroke="#333" stroke-width="10" x1="197.0" x2="69.0" y1="301.0" y2="301.0" /><line stroke="#999" stroke-width="3" x1="69.0" x2="69.0" y1="301.0" y2="445.0" /><line stroke="#333" stroke-width="10" x1="69.0" x2="197.0" y1="445.0" y2="445.0" /><line stroke="#333" stroke-width="10" x1="69.0" x2="69.0" y1="525.0" y2="445.0" /><line stroke="#999" stroke-width="3" x1="421.0" x2="421.0" y1="109.0" y2="13.0" /><line stroke="#333" stroke-width="10" x1="69.0" x2="69.0" y1="301.0" y2="269.0" /><line stroke="#333" stroke-width="10" x1="69.0" x2="293.0" y1="269.0" y2="109.0" /><line stroke="#333" stroke-width="10" x1="293.0" x2="421.0" y1="109.0" y2="109.0" /><line stroke="#333" stroke-width="10" x1="261.0" x2="5.0" y1="13.0" y2="205.0" /><line stroke="#333" stroke-width="10" x1="421.0" x2="261.0" y1="13.0" y2="13.0" /><line stroke="#666" stroke-width="20" x1="389.0" x2="389.0" y1="349.0" y2="253.0" /><line stroke="#333" stroke-width="10" x1="389.0" x2="389.0" y1="253.0" y2="205.0" /><line stroke="#333" stroke-width="10" x1="533.0" x2="477.0" y1="13.0" y2="13.0" /><line stroke="#999" stroke-width="3" x1="469.0" x2="533.0" y1="109.0" y2="13.0" /><line stroke="#333" stroke-width="10" x1="421.0" x2="445.0" y1="109.0" y2="109.0" /><line stroke="#333" stroke-width="10" x1="589.0" x2="565.0" y1="69.0" y2="37.0" /><line stroke="#999" stroke-width="3" x1="493.0" x2="589.0" y1="133.0" y2="69.0" /><line stroke="#333" stroke-width="10" x1="469.0" x2="485.0" y1="109.0" y2="117.0" /><line stroke="#333" stroke-width="10" x1="589.0" x2="669.0" y1="181.0" y2="205.0" /><line stroke="#999" stroke-width="3" x1="493.0" x2="589.0" y1="181.0" y2="181.0" /><line stroke="#333" stroke-width="10" x1="493.0" x2="493.0" y1="133.0" y2="157.0" /><line stroke="#333" stroke-width="10" x1="589.0" x2="589.0" y1="293.0" y2="237.0" /><line stroke="#999" stroke-width="3" x1="493.0" x2="589.0" y1="229.0" y2="293.0" /><line stroke="#333" stroke-width="10" x1="493.0" x2="493.0" y1="181.0" y2="205.0" /><line stroke="#333" stroke-width="10" x1="533.0" x2="565.0" y1="349.0" y2="325.0" /><line stroke="#999" stroke-width="3" x1="469.0" x2="533.0" y1="253.0" y2="349.0" /><line stroke="#333" stroke-width="10" x1="493.0" x2="485.0" y1="229.0" y2="245.0" /><line stroke="#333" stroke-width="10" x1="421.0" x2="477.0" y1="349.0" y2="349.0" /><line stroke="#999" stroke-width="3" x1="421.0" x2="421.0" y1="253.0" y2="349.0" /><line stroke="#333" stroke-width="10" x1="469.0" x2="445.0" y1="253.0" y2="253.0" /><line stroke="#333" stroke-width="10" x1="421.0" x2="405.0" y1="253.0" y2="253.0" /><line stroke="#333" stroke-width="10" x1="389.0" x2="405.0" y1="349.0" y2="349.0" /><line stroke="#333" stroke-width="10" x1="445.0" x2="469.0" y1="109.0" y2="109.0" /><line stroke="#333" stroke-width="10" x1="477.0" x2="421.0" y1="13.0" y2="13.0" /><line stroke="#333" stroke-width="10" x1="485.0" x2="493.0" y1="117.0" y2="133.0" /><line stroke="#333" stroke-width="10" x1="493.0" x2="493.0" y1="157.0" y2="181.0" /><line stroke="#333" stroke-width="10" x1="493.0" x2="493.0" y1="205.0" y2="229.0" /><line stroke="#333" stroke-width="10" x1="485.0" x2="469.0" y1="245.0" y2="253.0" /><line stroke="#333" stroke-width="10" x1="445.0" x2="421.0" y1="253.0" y2="253.0" /><line stroke="#333" stroke-width="10" x1="405.0" x2="389.0" y1="253.0" y2="253.0" /><line stroke="#333" stroke-width="10" x1="405.0" x2="421.0" y1="349.0" y2="349.0" /><line stroke="#333" stroke-width="10" x1="477.0" x2="533.0" y1="349.0" y2="349.0" /><line stroke="#333" stroke-width="10" x1="565.0" x2="589.0" y1="325.0" y2="293.0" /><line stroke="#333" stroke-width="10" x1="589.0" x2="589.0" y1="237.0" y2="181.0" /><line stroke="#333" stroke-width="10" x1="589.0" x2="589.0" y1="125.0" y2="69.0" /><line stroke="#333" stroke-width="10" x1="565.0" x2="533.0" y1="37.0" y2="13.0" /><line stroke="#999" stroke-width="3" x1="445.0" x2="477.0" y1="109.0" y2="13.0" /><line stroke="#999" stroke-width="3" x1="485.0" x2="565.0" y1="117.0" y2="37.0" /><line stroke="#999" stroke-width="3" x1="493.0" x2="589.0" y1="157.0" y2="125.0" /><line stroke="#999" stroke-width="3" x1="493.0" x2="589.0" y1="205.0" y2="237.0" /><line stroke="#999" stroke-width="3" x1="485.0" x2="565.0" y1="245.0" y2="325.0" /><line stroke="#999" stroke-width="3" x1="445.0" x2="477.0" y1="253.0" y2="349.0" /><line stroke="#666" stroke-width="20" x1="405.0" x2="405.0" y1="253.0" y2="349.0" /><line stroke="#333" stroke-width="10" x1="245.0" x2="101.0" y1="1037.0" y2="1037.0" /><line stroke="#333" stroke-width="10" x1="245.0" x2="261.0" y1="1133.0" y2="1133.0" /><line stroke="#666" stroke-width="20" x1="245.0" x2="245.0" y1="1133.0" y2="1037.0" /><line stroke="#333" stroke-width="10" x1="669.0" x2="589.0" y1="101.0" y2="125.0" /><line stroke="#999" stroke-width="3" x1="757.0" x2="669.0" y1="125.0" y2="101.0" /><line stroke="#666" stroke-width="20" x1="229.0" x2="165.0" y1="525.0" y2="589.0" /><line stroke="#333" stroke-width="10" x1="757.0" x2="761.0" y1="125.0" y2="112.0" /><line stroke="#666" stroke-width="20" x1="673.0" x2="761.0" y1="88.0" y2="112.0" /><line stroke="#333" stroke-width="10" x1="673.0" x2="669.0" y1="88.0" y2="101.0" /><line stroke="#333" stroke-width="10" x1="761.0" x2="781.0" y1="112.0" y2="53.0" /><line stroke="#333" stroke-width="10" x1="749.0" x2="685.0" y1="5.0" y2="21.0" /><line stroke="#333" stroke-width="10" x1="685.0" x2="673.0" y1="21.0" y2="88.0" /><line stroke="#333" stroke-width="10" x1="781.0" x2="749.0" y1="53.0" y2="5.0" /><line stroke="#333" stroke-width="10" x1="669.0" x2="757.0" y1="205.0" y2="181.0" /><line stroke="#333" stroke-width="10" x1="757.0" x2="757.0" y1="181.0" y2="125.0" /><line stroke="#999" stroke-width="3" x1="1285.0" x2="1285.0" y1="957.0" y2="845.0" /><line stroke="#333" stroke-width="10" x1="1285.0" x2="1285.0" y1="845.0" y2="589.0" /><line stroke="#333" stroke-width="10" x1="1293.0" x2="1341.0" y1="957.0" y2="957.0" /><line stroke="#999" stroke-width="3" x1="1445.0" x2="1445.0" y1="957.0" y2="845.0" /><line stroke="#333" stroke-width="10" x1="1445.0" x2="1341.0" y1="845.0" y2="845.0" /><line stroke="#666" stroke-width="20" x1="1293.0" x2="1293.0" y1="845.0" y2="957.0" /><line stroke="#333" stroke-width="10" x1="1293.0" x2="1285.0" y1="845.0" y2="845.0" /><line stroke="#333" stroke-width="10" x1="1285.0" x2="1293.0" y1="957.0" y2="957.0" /><line stroke="#00d" stroke-width="20" x1="1372.0" x2="1405.0" y1="882.0" y2="869.0" /><line stroke="#00d" stroke-width="20" x1="1405.0" x2="1432.0" y1="869.0" y2="898.0" /><line stroke="#00d" stroke-width="20" x1="1432.0" x2="1405.0" y1="898.0" y2="929.0" /><line stroke="#00d" stroke-width="20" x1="1372.0" x2="1372.0" y1="914.0" y2="882.0" /><line stroke="#999" stroke-width="3" x1="949.0" x2="1141.0" y1="445.0" y2="445.0" /><line stroke="#333" stroke-width="10" x1="1141.0" x2="1157.0" y1="445.0" y2="405.0" /><line stroke="#999" stroke-width="3" x1="1157.0" x2="933.0" y1="405.0" y2="405.0" /><line stroke="#333" stroke-width="10" x1="933.0" x2="949.0" y1="405.0" y2="445.0" /><line stroke="#333" stroke-width="10" x1="917.0" x2="933.0" y1="365.0" y2="405.0" /><line stroke="#999" stroke-width="3" x1="1173.0" x2="917.0" y1="365.0" y2="365.0" /><line stroke="#333" stroke-width="10" x1="1157.0" x2="1173.0" y1="405.0" y2="365.0" /><line stroke="#333" stroke-width="10" x1="901.0" x2="917.0" y1="325.0" y2="365.0" /><line stroke="#999" stroke-width="3" x1="901.0" x2="1189.0" y1="325.0" y2="325.0" /><line stroke="#333" stroke-width="10" x1="1173.0" x2="1189.0" y1="365.0" y2="325.0" /><line stroke="#333" stroke-width="10" x1="885.0" x2="901.0" y1="285.0" y2="325.0" /><line stroke="#666" stroke-width="20" x1="885.0" x2="1205.0" y1="285.0" y2="285.0" /><line stroke="#333" stroke-width="10" x1="1189.0" x2="1205.0" y1="325.0" y2="285.0" /><line stroke="#333" stroke-width="10" x1="885.0" x2="885.0" y1="173.0" y2="285.0" /><line stroke="#333" stroke-width="10" x1="1205.0" x2="885.0" y1="173.0" y2="173.0" /><line stroke="#333" stroke-width="10" x1="1205.0" x2="1205.0" y1="285.0" y2="173.0" /><line stroke="#333" stroke-width="10" x1="1149.0" x2="1141.0" y1="453.0" y2="445.0" /><line stroke="#999" stroke-width="3" x1="941.0" x2="1149.0" y1="453.0" y2="453.0" /><line stroke="#333" stroke-width="10" x1="949.0" x2="941.0" y1="445.0" y2="453.0" /><line stroke="#333" stroke-width="10" x1="933.0" x2="389.0" y1="461.0" y2="461.0" /><line stroke="#999" stroke-width="3" x1="1157.0" x2="933.0" y1="461.0" y2="461.0" /><line stroke="#333" stroke-width="10" x1="941.0" x2="933.0" y1="453.0" y2="461.0" /><line stroke="#333" stroke-width="10" x1="1157.0" x2="1149.0" y1="461.0" y2="453.0" /><line stroke="#00d" stroke-width="20" x1="1126.0" x2="1171.0" y1="197.0" y2="197.0" /><line stroke="#00d" stroke-width="20" x1="1171.0" x2="1187.0" y1="197.0" y2="236.0" /><line stroke="#00d" stroke-width="20" x1="1187.0" x2="1148.0" y1="236.0" y2="266.0" /><line stroke="#00d" stroke-width="20" x1="1148.0" x2="1110.0" y1="266.0" y2="236.0" /><line stroke="#00d" stroke-width="20" x1="1110.0" x2="1126.0" y1="236.0" y2="197.0" /><line stroke="#00d" stroke-width="20" x1="1405.0" x2="1372.0" y1="929.0" y2="914.0" /><line stroke="#333" stroke-width="10" x1="1461.0" x2="1445.0" y1="829.0" y2="845.0" /><line stroke="#999" stroke-width="3" x1="1461.0" x2="1461.0" y1="829.0" y2="973.0" /><line stroke="#333" stroke-width="10" x1="1445.0" x2="1461.0" y1="957.0" y2="973.0" /><line stroke="#333" stroke-width="10" x1="1657.0" x2="1461.0" y1="727.0" y2="829.0" /><line stroke="#333" stroke-width="10" x1="1787.0" x2="1657.0" y1="896.0" y2="727.0" /><line stroke="#333" stroke-width="10" x1="1637.0" x2="1787.0" y1="1065.0" y2="896.0" /><line stroke="#333" stroke-width="10" x1="1461.0" x2="1637.0" y1="973.0" y2="1065.0" /><line stroke="#333" stroke-width="10" x1="1341.0" x2="1445.0" y1="957.0" y2="957.0" /><line stroke="#333" stroke-width="10" x1="1341.0" x2="1293.0" y1="845.0" y2="845.0" /><line stroke="#666" stroke-width="20" x1="1341.0" x2="1341.0" y1="957.0" y2="845.0" /><rect fill="#090" height="24" stroke="#090" stroke-width="5" transform="rotate(270,1221.0,1677.0)" width="24" x="1209.0" y="1665.0" /><rect fill="#090" height="24" stroke="#090" stroke-width="5" transform="rotate(0,1477.0,525.0)" width="24" x="1465.0" y="513.0" /><circle cx="197.0" cy="1421.0" fill="#900" r="16" stroke="#900" stroke-width="5" /><circle cx="1221.0" cy="1549.0" fill="#900" r="16" stroke="#900" stroke-width="5" /><circle cx="1349.0" cy="525.0" fill="#900" r="16" stroke="#900" stroke-width="5" /><circle cx="325.0" cy="397.0" fill="#900" r="16" stroke="#900" stroke-width="5" /><ellipse cx="133.0" cy="1421.0" fill="#009" rx="12" ry="24" stroke="#009" stroke-width="5" /><ellipse cx="1221.0" cy="1613.0" fill="#009" rx="12" ry="24" stroke="#009" stroke-width="5" /><rect fill="#090" height="24" stroke="#090" stroke-width="5" transform="rotate(270,325.0,269.0)" width="24" x="313.0" y="257.0" /><ellipse cx="1413.0" cy="525.0" fill="#009" rx="12" ry="24" stroke="#009" stroke-width="5" /><ellipse cx="325.0" cy="333.0" fill="#009" rx="12" ry="24" stroke="#009" stroke-width="5" /><rect fill="#090" height="24" stroke="#090" stroke-width="5" transform="rotate(0,859.0,902.0)" width="24" x="847.0" y="890.0" /><rect fill="#090" height="24" stroke="#090" stroke-width="5" transform="rotate(0,799.0,1147.0)" width="24" x="787.0" y="1135.0" /><rect fill="#090" height="24" stroke="#090" stroke-width="5" transform="rotate(0,393.0,896.0)" width="24" x="381.0" y="884.0" /><ellipse cx="1095.0" cy="1297.0" fill="#900" rx="12" ry="24" stroke="#900" stroke-width="5" /><ellipse cx="798.0" cy="1270.0" fill="#900" rx="12" ry="24" stroke="#900" stroke-width="5" /><ellipse cx="1022.0" cy="591.0" fill="#900" rx="12" ry="24" stroke="#900" stroke-width="5" /><ellipse cx="694.0" cy="742.0" fill="#900" rx="12" ry="24" stroke="#900" stroke-width="5" /><ellipse cx="374.0" cy="685.0" fill="#900" rx="12" ry="24" stroke="#900" stroke-width="5" /><circle cx="653.0" cy="976.0" fill="#009" r="16" stroke="#009" stroke-width="5" /><circle cx="742.0" cy="629.0" fill="#009" r="16" stroke="#009" stroke-width="5" /><circle cx="485.0" cy="1261.0" fill="#009" r="16" stroke="#009" stroke-width="5" /><circle cx="1080.0" cy="779.0" fill="#009" r="16" stroke="#009" stroke-width="5" /><circle cx="985.0" cy="788.0" fill="#090" r="16" stroke="#090" stroke-width="5" /><circle cx="613.0" cy="1197.0" fill="#090" r="16" stroke="#090" stroke-width="5" /><circle cx="905.0" cy="764.0" fill="#090" r="16" stroke="#090" stroke-width="5" /><circle cx="577.0" cy="866.0" fill="#090" r="16" stroke="#090" stroke-width="5" /><circle cx="993.0" cy="1161.0" fill="#009" r="16" stroke="#009" stroke-width="5" /><rect fill="#900" height="48" stroke="#900" stroke-width="5" transform="rotate(45,593.0,1003.0)" width="32" x="577.0" y="979.0" /><rect fill="#900" height="48" stroke="#900" stroke-width="5" transform="rotate(225,1044.0,818.0)" width="32" x="1028.0" y="794.0" /><rect fill="#900" height="48" stroke="#900" stroke-width="5" transform="rotate(315,646.0,1259.0)" width="32" x="630.0" y="1235.0" /><rect fill="#900" height="48" stroke="#900" stroke-width="5" transform="rotate(45,686.0,660.0)" width="32" x="670.0" y="636.0" /><ellipse cx="397.0" cy="1453.0" fill="#900" rx="12" ry="24" stroke="#900" stroke-width="5" /><ellipse cx="445.0" cy="1453.0" fill="#900" rx="12" ry="24" stroke="#900" stroke-width="5" /><rect fill="#090" height="24" stroke="#090" stroke-width="5" transform="rotate(0,1233.0,1163.0)" width="24" x="1221.0" y="1151.0" /><ellipse cx="753.0" cy="976.0" fill="#090" rx="12" ry="24" stroke="#090" stroke-width="5" /><rect fill="#009" height="24" stroke="#009" stroke-width="5" transform="rotate(270,740.0,557.0)" width="24" x="728.0" y="545.0" /><rect fill="#090" height="24" stroke="#090" stroke-width="5" transform="rotate(0,691.0,1218.0)" width="24" x="679.0" y="1206.0" /><rect fill="#900" height="48" stroke="#900" stroke-width="5" transform="rotate(135,671.0,1079.0)" width="32" x="655.0" y="1055.0" /><rect fill="#900" height="48" stroke="#900" stroke-width="5" transform="rotate(45,599.0,1009.0)" width="32" x="583.0" y="985.0" /><rect fill="#900" height="48" stroke="#900" stroke-width="5" transform="rotate(45,725.0,1092.0)" width="32" x="709.0" y="1068.0" /><rect fill="#900" height="48" stroke="#900" stroke-width="5" transform="rotate(315,738.0,1038.0)" width="32" x="722.0" y="1014.0" /><rect fill="#900" height="48" stroke="#900" stroke-width="5" transform="rotate(225,679.0,1027.0)" width="32" x="663.0" y="1003.0" /><circle cx="389.0" cy="769.0" fill="#900" r="16" stroke="#900" stroke-width="5" /><circle cx="944.0" cy="699.0" fill="#090" r="16" stroke="#090" stroke-width="5" /><rect fill="#090" height="24" stroke="#090" stroke-width="5" transform="rotate(0,965.0,1199.0)" width="24" x="953.0" y="1187.0" /><circle cx="1013.0" cy="1157.0" fill="#009" r="16" stroke="#009" stroke-width="5" /><rect fill="#900" height="48" stroke="#900" stroke-width="5" transform="rotate(45,983.0,1196.0)" width="32" x="967.0" y="1172.0" /><circle cx="1338.0" cy="1167.0" fill="#009" r="16" stroke="#009" stroke-width="5" /><rect fill="#090" height="24" stroke="#090" stroke-width="5" transform="rotate(180,117.0,381.0)" width="24" x="105.0" y="369.0" /><rect fill="#900" height="48" stroke="#900" stroke-width="5" transform="rotate(180,165.0,333.0)" width="32" x="149.0" y="309.0" /><circle cx="693.0" cy="159.0" fill="#009" r="16" stroke="#009" stroke-width="5" /><rect fill="#900" height="48" stroke="#900" stroke-width="5" transform="rotate(45,129.0,557.0)" width="32" x="113.0" y="533.0" /><rect fill="#900" height="48" stroke="#900" stroke-width="5" transform="rotate(225,629.0,157.0)" width="32" x="613.0" y="133.0" /><circle cx="165.0" cy="399.0" fill="#009" r="16" stroke="#009" stroke-width="5" /><ellipse cx="733.0" cy="53.0" fill="#090" rx="12" ry="24" stroke="#090" stroke-width="5" /><rect fill="#090" height="24" stroke="#090" stroke-width="5" transform="rotate(180,1341.0,901.0)" width="24" x="1329.0" y="889.0" /><rect fill="#900" height="48" stroke="#900" stroke-width="5" transform="rotate(315,1037.0,341.0)" width="32" x="1021.0" y="317.0" /><rect fill="#009" height="24" stroke="#009" stroke-width="5" transform="rotate(90,1149.0,229.0)" width="24" x="1137.0" y="217.0" /><circle cx="941.0" cy="229.0" fill="#009" r="16" stroke="#009" stroke-width="5" /><rect fill="#009" height="24" stroke="#009" stroke-width="5" transform="rotate(180,1400.0,899.0)" width="24" x="1388.0" y="887.0" /><rect fill="#900" height="48" stroke="#900" stroke-width="5" transform="rotate(180,1636.0,898.0)" width="32" x="1620.0" y="874.0" /><rect fill="#900" height="48" stroke="#900" stroke-width="5" transform="rotate(180,1528.0,937.0)" width="32" x="1512.0" y="913.0" /><rect fill="#900" height="48" stroke="#900" stroke-width="5" transform="rotate(180,1722.0,905.0)" width="32" x="1706.0" y="881.0" /><rect fill="#900" height="48" stroke="#900" stroke-width="5" transform="rotate(180,1636.0,810.0)" width="32" x="1620.0" y="786.0" /><rect fill="#900" height="48" stroke="#900" stroke-width="5" transform="rotate(180,1543.0,847.0)" width="32" x="1527.0" y="823.0" /><rect fill="#900" height="48" stroke="#900" stroke-width="5" transform="rotate(180,1623.0,988.0)" width="32" x="1607.0" y="964.0" /></svg>