<?xml version="1.0" encoding="utf-8" ?>
<svg baseProfile="tiny" height="931" version="1.2" viewBox="0 0 8434 7674" width="1024" xmlns="http://www.w3.org/2000/svg" xmlns:ev="http://www.w3.org/2001/xml-events" xmlns:xlink="http://www.w3.org/1999/xlink"><defs /><line stroke="#333" stroke-width="10" x1="8429.0" x2="8429.0" y1="7669.0" y2="5.0" /><line stroke="#333" stroke-width="10" x1="8429.0" x2="373.0" y1="5.0" y2="37.0" /><line stroke="#333" stroke-width="10" x1="453.0" x2="8429.0" y1="7669.0" y2="7669.0" /><line stroke="#333" stroke-width="10" x1="373.0" x2="373.0" y1="37.0" y2="5477.0" /><line stroke="#333" stroke-width="10" x1="453.0" x2="453.0" y1="6373.0" y2="7557.0" /><line stroke="#999" stroke-width="3" x1="565.0" x2="453.0" y1="6373.0" y2="6373.0" /><line stroke="#999" stroke-width="3" x1="565.0" x2="573.0" y1="6373.0" y2="7549.0" /><line stroke="#333" stroke-width="10" x1="453.0" x2="453.0" y1="7557.0" y2="7669.0" /><line stroke="#999" stroke-width="3" x1="573.0" x2="8285.0" y1="7549.0" y2="7549.0" /><line stroke="#999" stroke-width="3" x1="8285.0" x2="8285.0" y1="7549.0" y2="173.0" /><line stroke="#999" stroke-width="3" x1="8285.0" x2="565.0" y1="173.0" y2="165.0" /><line stroke="#999" stroke-width="3" x1="565.0" x2="565.0" y1="165.0" y2="5621.0" /><line stroke="#333" stroke-width="10" x1="453.0" x2="453.0" y1="5621.0" y2="6325.0" /><line stroke="#999" stroke-width="3" x1="565.0" x2="453.0" y1="5621.0" y2="5621.0" /><line stroke="#333" stroke-width="10" x1="373.0" x2="149.0" y1="5477.0" y2="5493.0" /><line stroke="#333" stroke-width="10" x1="5.0" x2="453.0" y1="5621.0" y2="5621.0" /><line stroke="#333" stroke-width="10" x1="5.0" x2="5.0" y1="5493.0" y2="5621.0" /><line stroke="#333" stroke-width="10" x1="149.0" x2="5.0" y1="5493.0" y2="5493.0" /><line stroke="#999" stroke-width="3" x1="565.0" x2="565.0" y1="6325.0" y2="6373.0" /><line stroke="#333" stroke-width="10" x1="453.0" x2="453.0" y1="6325.0" y2="6373.0" /><line stroke="#999" stroke-width="3" x1="453.0" x2="565.0" y1="6325.0" y2="6325.0" /><line stroke="#999" stroke-width="3" x1="2133.0" x2="1557.0" y1="6389.0" y2="6293.0" /><line stroke="#999" stroke-width="3" x1="2229.0" x2="2133.0" y1="6005.0" y2="6389.0" /><line stroke="#999" stroke-width="3" x1="1557.0" x2="1565.0" y1="6293.0" y2="6245.0" /><line stroke="#999" stroke-width="3" x1="1565.0" x2="2101.0" y1="6245.0" y2="6337.0" /><line stroke="#999" stroke-width="3" x1="2101.0" x2="2193.0" y1="6337.0" y2="6001.0" /><line stroke="#999" stroke-width="3" x1="2193.0" x2="2229.0" y1="6001.0" y2="6005.0" /><line stroke="#333" stroke-width="10" x1="3709.0" x2="3709.0" y1="6917.0" y2="6341.0" /><line stroke="#333" stroke-width="10" x1="3829.0" x2="3709.0" y1="6917.0" y2="6917.0" /><line stroke="#333" stroke-width="10" x1="3829.0" x2="3829.0" y1="6789.0" y2="6917.0" /><line stroke="#333" stroke-width="10" x1="3709.0" x2="3829.0" y1="6341.0" y2="6341.0" /><line stroke="#999" stroke-width="3" x1="3829.0" x2="4221.0" y1="6341.0" y2="6341.0" /><line stroke="#333" stroke-width="10" x1="4221.0" x2="4221.0" y1="6413.0" y2="6341.0" /><line stroke="#333" stroke-width="10" x1="3829.0" x2="3829.0" y1="6341.0" y2="6413.0" /><line stroke="#999" stroke-width="3" x1="4221.0" x2="3829.0" y1="6413.0" y2="6413.0" /><line stroke="#333" stroke-width="10" x1="4221.0" x2="4221.0" y1="6789.0" y2="6413.0" /><line stroke="#333" stroke-width="10" x1="4341.0" x2="4221.0" y1="6917.0" y2="6917.0" /><line stroke="#333" stroke-width="10" x1="4341.0" x2="4341.0" y1="6341.0" y2="6917.0" /><line stroke="#333" stroke-width="10" x1="4221.0" x2="4341.0" y1="6341.0" y2="6341.0" /><line stroke="#999" stroke-width="3" x1="4221.0" x2="3829.0" y1="6917.0" y2="6917.0" /><line stroke="#333" stroke-width="10" x1="4221.0" x2="4221.0" y1="6917.0" y2="6789.0" /><line stroke="#333" stroke-width="10" x1="3829.0" x2="3829.0" y1="6413.0" y2="6789.0" /><line stroke="#999" stroke-width="3" x1="4221.0" x2="3829.0" y1="6789.0" y2="6789.0" /><line stroke="#999" stroke-width="3" x1="3709.0" x2="3709.0" y1="6949.0" y2="6917.0" /><line stroke="#999" stroke-width="3" x1="4341.0" x2="3709.0" y1="6949.0" y2="6949.0" /><line stroke="#999" stroke-width="3" x1="4341.0" x2="4341.0" y1="6917.0" y2="6949.0" /><line stroke="#999" stroke-width="3" x1="7349.0" x2="7349.0" y1="7413.0" y2="6597.0" /><line stroke="#999" stroke-width="3" x1="8165.0" x2="7349.0" y1="7413.0" y2="7413.0" /><line stroke="#999" stroke-width="3" x1="8165.0" x2="8165.0" y1="6597.0" y2="7413.0" /><line stroke="#999" stroke-width="3" x1="7349.0" x2="8165.0" y1="6597.0" y2="6597.0" /><line stroke="#999" stroke-width="3" x1="7157.0" x2="6821.0" y1="5797.0" y2="5941.0" /><line stroke="#999" stroke-width="3" x1="6821.0" x2="6581.0" y1="5941.0" y2="5541.0" /><line stroke="#999" stroke-width="3" x1="6581.0" x2="6677.0" y1="5541.0" y2="5445.0" /><line stroke="#999" stroke-width="3" x1="6677.0" x2="6869.0" y1="5445.0" y2="5797.0" /><line stroke="#999" stroke-width="3" x1="6869.0" x2="7125.0" y1="5797.0" y2="5685.0" /><line stroke="#999" stroke-width="3" x1="7125.0" x2="7157.0" y1="5685.0" y2="5797.0" /><line stroke="#999" stroke-width="3" x1="3525.0" x2="3525.0" y1="4581.0" y2="2565.0" /><line stroke="#999" stroke-width="3" x1="5541.0" x2="3525.0" y1="4581.0" y2="4581.0" /><line stroke="#999" stroke-width="3" x1="5541.0" x2="5541.0" y1="2565.0" y2="4581.0" /><line stroke="#999" stroke-width="3" x1="3525.0" x2="4133.0" y1="2565.0" y2="2565.0" /><line stroke="#999" stroke-width="3" x1="7733.0" x2="7461.0" y1="2581.0" y2="2677.0" /><line stroke="#999" stroke-width="3" x1="7461.0" x2="7349.0" y1="2677.0" y2="2437.0" /><line stroke="#999" stroke-width="3" x1="7349.0" x2="7429.0" y1="2437.0" y2="2421.0" /><line stroke="#999" stroke-width="3" x1="7429.0" x2="7509.0" y1="2421.0" y2="2565.0" /><line stroke="#999" stroke-width="3" x1="7509.0" x2="7669.0" y1="2565.0" y2="2469.0" /><line stroke="#999" stroke-width="3" x1="7669.0" x2="7733.0" y1="2469.0" y2="2581.0" /><line stroke="#0d0" stroke-width="20" x1="4501.0" x2="4501.0" y1="3653.0" y2="3589.0" /><line stroke="#0d0" stroke-width="20" x1="4565.0" x2="4501.0" y1="3653.0" y2="3653.0" /><line stroke="#0d0" stroke-width="20" x1="4565.0" x2="4565.0" y1="3589.0" y2="3653.0" /><line stroke="#0d0" stroke-width="20" x1="4501.0" x2="4565.0" y1="3589.0" y2="3589.0" /><line stroke="#999" stroke-width="3" x1="4309.0" x2="4037.0" y1="1061.0" y2="1093.0" /><line stroke="#999" stroke-width="3" x1="4277.0" x2="4309.0" y1="661.0" y2="1061.0" /><line stroke="#999" stroke-width="3" x1="4197.0" x2="4277.0" y1="645.0" y2="661.0" /><line stroke="#999" stroke-width="3" x1="4261.0" x2="4197.0" y1="997.0" y2="645.0" /><line stroke="#999" stroke-width="3" x1="4053.0" x2="4261.0" y1="1013.0" y2="997.0" /><line stroke="#999" stroke-width="3" x1="4037.0" x2="4053.0" y1="1093.0" y2="1013.0" /><line stroke="#999" stroke-width="3" x1="1829.0" x2="1557.0" y1="2213.0" y2="2069.0" /><line stroke="#999" stroke-width="3" x1="2037.0" x2="1829.0" y1="1973.0" y2="2213.0" /><line stroke="#999" stroke-width="3" x1="1989.0" x2="2037.0" y1="1925.0" y2="1973.0" /><line stroke="#999" stroke-width="3" x1="1845.0" x2="1989.0" y1="2101.0" y2="1925.0" /><line stroke="#999" stroke-width="3" x1="1653.0" x2="1845.0" y1="2005.0" y2="2101.0" /><line stroke="#999" stroke-width="3" x1="1557.0" x2="1653.0" y1="2069.0" y2="2005.0" /><line stroke="#999" stroke-width="3" x1="1397.0" x2="1173.0" y1="4757.0" y2="4853.0" /><line stroke="#999" stroke-width="3" x1="1269.0" x2="1397.0" y1="4373.0" y2="4757.0" /><line stroke="#999" stroke-width="3" x1="1125.0" x2="1269.0" y1="4421.0" y2="4373.0" /><line stroke="#999" stroke-width="3" x1="1253.0" x2="1125.0" y1="4661.0" y2="4421.0" /><line stroke="#999" stroke-width="3" x1="1173.0" x2="1253.0" y1="4709.0" y2="4661.0" /><line stroke="#999" stroke-width="3" x1="1173.0" x2="1173.0" y1="4853.0" y2="4709.0" /><line stroke="#999" stroke-width="3" x1="4261.0" x2="4325.0" y1="2565.0" y2="2565.0" /><line stroke="#999" stroke-width="3" x1="4325.0" x2="4469.0" y1="2565.0" y2="2565.0" /><line stroke="#999" stroke-width="3" x1="4261.0" x2="4261.0" y1="2565.0" y2="2629.0" /><line stroke="#999" stroke-width="3" x1="4261.0" x2="4325.0" y1="2629.0" y2="2629.0" /><line stroke="#999" stroke-width="3" x1="4325.0" x2="4325.0" y1="2629.0" y2="2565.0" /><line stroke="#999" stroke-width="3" x1="4133.0" x2="4261.0" y1="2565.0" y2="2565.0" /><line stroke="#999" stroke-width="3" x1="4133.0" x2="4133.0" y1="2565.0" y2="2869.0" /><line stroke="#999" stroke-width="3" x1="4133.0" x2="4469.0" y1="2869.0" y2="2869.0" /><line stroke="#999" stroke-width="3" x1="4469.0" x2="5541.0" y1="2565.0" y2="2565.0" /><line stroke="#999" stroke-width="3" x1="4469.0" x2="4469.0" y1="2565.0" y2="2869.0" /><rect fill="#900" height="48" stroke="#900" stroke-width="5" transform="rotate(135,3645.0,4229.0)" width="32" x="3629.0" y="4205.0" /><rect fill="#900" height="48" stroke="#900" stroke-width="5" transform="rotate(135,4277.0,2789.0)" width="32" x="4261.0" y="2765.0" /><ellipse cx="501.0" cy="6469.0" fill="#009" rx="12" ry="24" stroke="#009" stroke-width="5" /><ellipse cx="501.0" cy="6549.0" fill="#009" rx="12" ry="24" stroke="#009" stroke-width="5" /><ellipse cx="501.0" cy="6645.0" fill="#009" rx="12" ry="24" stroke="#009" stroke-width="5" /><ellipse cx="501.0" cy="6741.0" fill="#009" rx="12" ry="24" stroke="#009" stroke-width="5" /><rect fill="#090" height="24" stroke="#090" stroke-width="5" transform="rotate(270,7733.0,7013.0)" width="24" x="7721.0" y="7001.0" /><rect fill="#090" height="24" stroke="#090" stroke-width="5" transform="rotate(225,4197.0,933.0)" width="24" x="4185.0" y="921.0" /><rect fill="#090" height="24" stroke="#090" stroke-width="5" transform="rotate(270,4021.0,6565.0)" width="24" x="4009.0" y="6553.0" /><rect fill="#090" height="24" stroke="#090" stroke-width="5" transform="rotate(225,1189.0,4645.0)" width="24" x="1177.0" y="4633.0" /><rect fill="#090" height="24" stroke="#090" stroke-width="5" transform="rotate(0,53.0,5557.0)" width="24" x="41.0" y="5545.0" /><rect fill="#090" height="24" stroke="#090" stroke-width="5" transform="rotate(225,8373.0,7573.0)" width="24" x="8361.0" y="7561.0" /><rect fill="#090" height="24" stroke="#090" stroke-width="5" transform="rotate(315,6917.0,5685.0)" width="24" x="6905.0" y="5673.0" /><rect fill="#090" height="24" stroke="#090" stroke-width="5" transform="rotate(315,7557.0,2469.0)" width="24" x="7545.0" y="2457.0" /><rect fill="#090" height="24" stroke="#090" stroke-width="5" transform="rotate(270,1861.0,2005.0)" width="24" x="1849.0" y="1993.0" /><rect fill="#090" height="24" stroke="#090" stroke-width="5" transform="rotate(225,2053.0,6277.0)" width="24" x="2041.0" y="6265.0" /><circle cx="7413.0" cy="7349.0" fill="#090" r="16" stroke="#090" stroke-width="5" /><circle cx="7525.0" cy="7349.0" fill="#090" r="16" stroke="#090" stroke-width="5" /><circle cx="7637.0" cy="7349.0" fill="#090" r="16" stroke="#090" stroke-width="5" /><circle cx="7733.0" cy="7349.0" fill="#090" r="16" stroke="#090" stroke-width="5" /><circle cx="7845.0" cy="7349.0" fill="#090" r="16" stroke="#090" stroke-width="5" /><circle cx="7957.0" cy="7349.0" fill="#090" r="16" stroke="#090" stroke-width="5" /><circle cx="8069.0" cy="7349.0" fill="#090" r="16" stroke="#090" stroke-width="5" /><circle cx="7421.0" cy="7269.0" fill="#090" r="16" stroke="#090" stroke-width="5" /><circle cx="7533.0" cy="7269.0" fill="#090" r="16" stroke="#090" stroke-width="5" /><circle cx="7645.0" cy="7269.0" fill="#090" r="16" stroke="#090" stroke-width="5" /><circle cx="7741.0" cy="7269.0" fill="#090" r="16" stroke="#090" stroke-width="5" /><circle cx="7853.0" cy="7269.0" fill="#090" r="16" stroke="#090" stroke-width="5" /><circle cx="7965.0" cy="7269.0" fill="#090" r="16" stroke="#090" stroke-width="5" /><circle cx="8077.0" cy="7269.0" fill="#090" r="16" stroke="#090" stroke-width="5" /><circle cx="7421.0" cy="7173.0" fill="#090" r="16" stroke="#090" stroke-width="5" /><circle cx="7533.0" cy="7173.0" fill="#090" r="16" stroke="#090" stroke-width="5" /><circle cx="7645.0" cy="7173.0" fill="#090" r="16" stroke="#090" stroke-width="5" /><circle cx="7741.0" cy="7173.0" fill="#090" r="16" stroke="#090" stroke-width="5" /><circle cx="7853.0" cy="7173.0" fill="#090" r="16" stroke="#090" stroke-width="5" /><circle cx="7965.0" cy="7173.0" fill="#090" r="16" stroke="#090" stroke-width="5" /><circle cx="8077.0" cy="7173.0" fill="#090" r="16" stroke="#090" stroke-width="5" /><circle cx="7421.0" cy="7077.0" fill="#090" r="16" stroke="#090" stroke-width="5" /><circle cx="7533.0" cy="7077.0" fill="#090" r="16" stroke="#090" stroke-width="5" /><circle cx="7645.0" cy="7077.0" fill="#090" r="16" stroke="#090" stroke-width="5" /><circle cx="7741.0" cy="7077.0" fill="#090" r="16" stroke="#090" stroke-width="5" /><circle cx="7853.0" cy="7077.0" fill="#090" r="16" stroke="#090" stroke-width="5" /><circle cx="7965.0" cy="7077.0" fill="#090" r="16" stroke="#090" stroke-width="5" /><circle cx="8077.0" cy="7077.0" fill="#090" r="16" stroke="#090" stroke-width="5" /><circle cx="7421.0" cy="6933.0" fill="#090" r="16" stroke="#090" stroke-width="5" /><circle cx="7533.0" cy="6933.0" fill="#090" r="16" stroke="#090" stroke-width="5" /><circle cx="7645.0" cy="6933.0" fill="#090" r="16" stroke="#090" stroke-width="5" /><circle cx="7741.0" cy="6933.0" fill="#090" r="16" stroke="#090" stroke-width="5" /><circle cx="7853.0" cy="6933.0" fill="#090" r="16" stroke="#090" stroke-width="5" /><circle cx="7965.0" cy="6933.0" fill="#090" r="16" stroke="#090" stroke-width="5" /><circle cx="8077.0" cy="6933.0" fill="#090" r="16" stroke="#090" stroke-width="5" /><circle cx="7421.0" cy="6837.0" fill="#090" r="16" stroke="#090" stroke-width="5" /><circle cx="7533.0" cy="6837.0" fill="#090" r="16" stroke="#090" stroke-width="5" /><circle cx="7645.0" cy="6837.0" fill="#090" r="16" stroke="#090" stroke-width="5" /><circle cx="7741.0" cy="6837.0" fill="#090" r="16" stroke="#090" stroke-width="5" /><circle cx="7853.0" cy="6837.0" fill="#090" r="16" stroke="#090" stroke-width="5" /><circle cx="7965.0" cy="6837.0" fill="#090" r="16" stroke="#090" stroke-width="5" /><circle cx="8077.0" cy="6837.0" fill="#090" r="16" stroke="#090" stroke-width="5" /><circle cx="7421.0" cy="6741.0" fill="#090" r="16" stroke="#090" stroke-width="5" /><circle cx="7533.0" cy="6741.0" fill="#090" r="16" stroke="#090" stroke-width="5" /><circle cx="7645.0" cy="6741.0" fill="#090" r="16" stroke="#090" stroke-width="5" /><circle cx="7741.0" cy="6741.0" fill="#090" r="16" stroke="#090" stroke-width="5" /><circle cx="7853.0" cy="6741.0" fill="#090" r="16" stroke="#090" stroke-width="5" /><circle cx="7965.0" cy="6741.0" fill="#090" r="16" stroke="#090" stroke-width="5" /><circle cx="8077.0" cy="6741.0" fill="#090" r="16" stroke="#090" stroke-width="5" /><circle cx="7421.0" cy="6645.0" fill="#090" r="16" stroke="#090" stroke-width="5" /><circle cx="7533.0" cy="6645.0" fill="#090" r="16" stroke="#090" stroke-width="5" /><circle cx="7645.0" cy="6645.0" fill="#090" r="16" stroke="#090" stroke-width="5" /><circle cx="7741.0" cy="6645.0" fill="#090" r="16" stroke="#090" stroke-width="5" /><circle cx="7853.0" cy="6645.0" fill="#090" r="16" stroke="#090" stroke-width="5" /><circle cx="7965.0" cy="6645.0" fill="#090" r="16" stroke="#090" stroke-width="5" /><circle cx="8077.0" cy="6645.0" fill="#090" r="16" stroke="#090" stroke-width="5" /><circle cx="133.0" cy="5557.0" fill="#900" r="16" stroke="#900" stroke-width="5" /><rect fill="#900" height="48" stroke="#900" stroke-width="5" transform="rotate(135,3861.0,4437.0)" width="32" x="3845.0" y="4413.0" /><circle cx="3861.0" cy="6709.0" fill="#009" r="16" stroke="#009" stroke-width="5" /><circle cx="4197.0" cy="6709.0" fill="#009" r="16" stroke="#009" stroke-width="5" /><circle cx="661.0" cy="341.0" fill="#900" r="16" stroke="#900" stroke-width="5" /><circle cx="8101.0" cy="293.0" fill="#900" r="16" stroke="#900" stroke-width="5" /><circle cx="757.0" cy="7397.0" fill="#900" r="16" stroke="#900" stroke-width="5" /><circle cx="469.0" cy="1973.0" fill="#900" r="16" stroke="#900" stroke-width="5" /><circle cx="5269.0" cy="4277.0" fill="#900" r="16" stroke="#900" stroke-width="5" /><circle cx="4021.0" cy="6853.0" fill="#900" r="16" stroke="#900" stroke-width="5" /><circle cx="2085.0" cy="6133.0" fill="#900" r="16" stroke="#900" stroke-width="5" /><circle cx="4149.0" cy="853.0" fill="#900" r="16" stroke="#900" stroke-width="5" /><circle cx="1141.0" cy="4581.0" fill="#900" r="16" stroke="#900" stroke-width="5" /><circle cx="645.0" cy="3157.0" fill="#009" r="16" stroke="#009" stroke-width="5" /><circle cx="629.0" cy="1237.0" fill="#009" r="16" stroke="#009" stroke-width="5" /><circle cx="1349.0" cy="277.0" fill="#009" r="16" stroke="#009" stroke-width="5" /><circle cx="5829.0" cy="277.0" fill="#009" r="16" stroke="#009" stroke-width="5" /><circle cx="8181.0" cy="981.0" fill="#009" r="16" stroke="#009" stroke-width="5" /><circle cx="8181.0" cy="4181.0" fill="#009" r="16" stroke="#009" stroke-width="5" /><circle cx="8213.0" cy="6885.0" fill="#009" r="16" stroke="#009" stroke-width="5" /><circle cx="7461.0" cy="7493.0" fill="#009" r="16" stroke="#009" stroke-width="5" /><circle cx="7605.0" cy="7493.0" fill="#009" r="16" stroke="#009" stroke-width="5" /><circle cx="7733.0" cy="7493.0" fill="#009" r="16" stroke="#009" stroke-width="5" /><circle cx="7845.0" cy="7509.0" fill="#009" r="16" stroke="#009" stroke-width="5" /><circle cx="7941.0" cy="7493.0" fill="#009" r="16" stroke="#009" stroke-width="5" /><circle cx="8069.0" cy="7509.0" fill="#009" r="16" stroke="#009" stroke-width="5" /><circle cx="8181.0" cy="7509.0" fill="#009" r="16" stroke="#009" stroke-width="5" /><circle cx="8213.0" cy="7317.0" fill="#009" r="16" stroke="#009" stroke-width="5" /><circle cx="8213.0" cy="7189.0" fill="#009" r="16" stroke="#009" stroke-width="5" /><circle cx="8229.0" cy="7077.0" fill="#009" r="16" stroke="#009" stroke-width="5" /><circle cx="8201.0" cy="6797.0" fill="#009" r="16" stroke="#009" stroke-width="5" /><circle cx="8201.0" cy="6685.0" fill="#009" r="16" stroke="#009" stroke-width="5" /><circle cx="2969.0" cy="7341.0" fill="#009" r="16" stroke="#009" stroke-width="5" /><circle cx="4589.0" cy="7341.0" fill="#009" r="16" stroke="#009" stroke-width="5" /><circle cx="1889.0" cy="6621.0" fill="#009" r="16" stroke="#009" stroke-width="5" /><circle cx="5345.0" cy="5721.0" fill="#009" r="16" stroke="#009" stroke-width="5" /><circle cx="6209.0" cy="4209.0" fill="#009" r="16" stroke="#009" stroke-width="5" /><circle cx="6101.0" cy="1617.0" fill="#009" r="16" stroke="#009" stroke-width="5" /><circle cx="2897.0" cy="1689.0" fill="#009" r="16" stroke="#009" stroke-width="5" /></svg>