<?xml version="1.0" encoding="utf-8" ?>
<svg baseProfile="tiny" height="1024" version="1.2" viewBox="0 0 5674 6154" width="944" xmlns="http://www.w3.org/2000/svg" xmlns:ev="http://www.w3.org/2001/xml-events" xmlns:xlink="http://www.w3.org/1999/xlink"><defs /><line stroke="#333" stroke-width="10" x1="2821.0" x2="2053.0" y1="5.0" y2="1285.0" /><line stroke="#333" stroke-width="10" x1="2053.0" x2="5.0" y1="1285.0" y2="1285.0" /><line stroke="#333" stroke-width="10" x1="5.0" x2="1093.0" y1="1285.0" y2="3109.0" /><line stroke="#333" stroke-width="10" x1="1093.0" x2="5.0" y1="3109.0" y2="4453.0" /><line stroke="#333" stroke-width="10" x1="5.0" x2="1861.0" y1="4453.0" y2="4453.0" /><line stroke="#333" stroke-width="10" x1="1861.0" x2="2821.0" y1="4453.0" y2="6149.0" /><line stroke="#333" stroke-width="10" x1="2821.0" x2="3781.0" y1="6149.0" y2="4453.0" /><line stroke="#333" stroke-width="10" x1="3781.0" x2="5669.0" y1="4453.0" y2="4453.0" /><line stroke="#333" stroke-width="10" x1="5669.0" x2="4645.0" y1="4453.0" y2="3109.0" /><line stroke="#333" stroke-width="10" x1="4645.0" x2="5669.0" y1="3109.0" y2="1285.0" /><line stroke="#333" stroke-width="10" x1="5669.0" x2="3589.0" y1="1285.0" y2="1285.0" /><line stroke="#333" stroke-width="10" x1="3589.0" x2="2821.0" y1="1285.0" y2="5.0" /><line stroke="#999" stroke-width="3" x1="1093.0" x2="1861.0" y1="3109.0" y2="4453.0" /><line stroke="#999" stroke-width="3" x1="3781.0" x2="4645.0" y1="4453.0" y2="3109.0" /><line stroke="#999" stroke-width="3" x1="3589.0" x2="2053.0" y1="1285.0" y2="1285.0" /><line stroke="#999" stroke-width="3" x1="2053.0" x2="1093.0" y1="1285.0" y2="3109.0" /><line stroke="#999" stroke-width="3" x1="1861.0" x2="3781.0" y1="4453.0" y2="4453.0" /><line stroke="#999" stroke-width="3" x1="4645.0" x2="3589.0" y1="3109.0" y2="1285.0" /><line stroke="#999" stroke-width="3" x1="2889.0" x2="2973.0" y1="2884.0" y2="3029.0" /><line stroke="#999" stroke-width="3" x1="2721.0" x2="2889.0" y1="2884.0" y2="2884.0" /><line stroke="#999" stroke-width="3" x1="2637.0" x2="2721.0" y1="3030.0" y2="2884.0" /><line stroke="#999" stroke-width="3" x1="2719.0" x2="2637.0" y1="3173.0" y2="3030.0" /><line stroke="#999" stroke-width="3" x1="2889.0" x2="2719.0" y1="3173.0" y2="3173.0" /><line stroke="#999" stroke-width="3" x1="2973.0" x2="2889.0" y1="3029.0" y2="3173.0" /><line stroke="#999" stroke-width="3" x1="2865.0" x2="2925.0" y1="2926.0" y2="3029.0" /><line stroke="#999" stroke-width="3" x1="2745.0" x2="2865.0" y1="2926.0" y2="2926.0" /><line stroke="#999" stroke-width="3" x1="2685.0" x2="2745.0" y1="3030.0" y2="2926.0" /><line stroke="#999" stroke-width="3" x1="2746.0" x2="2685.0" y1="3133.0" y2="3030.0" /><line stroke="#999" stroke-width="3" x1="2865.0" x2="2746.0" y1="3133.0" y2="3133.0" /><line stroke="#999" stroke-width="3" x1="2925.0" x2="2865.0" y1="3029.0" y2="3133.0" /><line stroke="#999" stroke-width="3" x1="2917.0" x2="2853.0" y1="3029.0" y2="2933.0" /><line stroke="#999" stroke-width="3" x1="2853.0" x2="2757.0" y1="2933.0" y2="2933.0" /><line stroke="#999" stroke-width="3" x1="2757.0" x2="2693.0" y1="2933.0" y2="3029.0" /><line stroke="#999" stroke-width="3" x1="2693.0" x2="2757.0" y1="3029.0" y2="3125.0" /><line stroke="#999" stroke-width="3" x1="2757.0" x2="2853.0" y1="3125.0" y2="3125.0" /><line stroke="#999" stroke-width="3" x1="2853.0" x2="2917.0" y1="3125.0" y2="3029.0" /><ellipse cx="117.0" cy="1317.0" fill="#009" rx="12" ry="24" stroke="#009" stroke-width="5" /><ellipse cx="165.0" cy="4389.0" fill="#009" rx="12" ry="24" stroke="#009" stroke-width="5" /><ellipse cx="5509.0" cy="4373.0" fill="#009" rx="12" ry="24" stroke="#009" stroke-width="5" /><ellipse cx="5557.0" cy="1381.0" fill="#009" rx="12" ry="24" stroke="#009" stroke-width="5" /><rect fill="#090" height="24" stroke="#090" stroke-width="5" transform="rotate(270,2821.0,6045.0)" width="24" x="2809.0" y="6033.0" /><rect fill="#090" height="24" stroke="#090" stroke-width="5" transform="rotate(90,2821.0,229.0)" width="24" x="2809.0" y="217.0" /><rect fill="#090" height="24" stroke="#090" stroke-width="5" transform="rotate(45,189.0,1365.0)" width="24" x="177.0" y="1353.0" /><rect fill="#090" height="24" stroke="#090" stroke-width="5" transform="rotate(315,277.0,4341.0)" width="24" x="265.0" y="4329.0" /><rect fill="#090" height="24" stroke="#090" stroke-width="5" transform="rotate(225,5397.0,4325.0)" width="24" x="5385.0" y="4313.0" /><rect fill="#090" height="24" stroke="#090" stroke-width="5" transform="rotate(135,5429.0,1445.0)" width="24" x="5417.0" y="1433.0" /><rect fill="#090" height="24" stroke="#090" stroke-width="5" transform="rotate(315,2349.0,3493.0)" width="24" x="2337.0" y="3481.0" /><rect fill="#090" height="24" stroke="#090" stroke-width="5" transform="rotate(225,3285.0,3493.0)" width="24" x="3273.0" y="3481.0" /><rect fill="#090" height="24" stroke="#090" stroke-width="5" transform="rotate(45,2349.0,2581.0)" width="24" x="2337.0" y="2569.0" /><rect fill="#090" height="24" stroke="#090" stroke-width="5" transform="rotate(135,3293.0,2581.0)" width="24" x="3281.0" y="2569.0" /><rect fill="#900" height="48" stroke="#900" stroke-width="5" transform="rotate(135,2085.0,3813.0)" width="32" x="2069.0" y="3789.0" /><rect fill="#900" height="48" stroke="#900" stroke-width="5" transform="rotate(180,2085.0,3461.0)" width="32" x="2069.0" y="3437.0" /><rect fill="#900" height="48" stroke="#900" stroke-width="5" transform="rotate(180,2085.0,3077.0)" width="32" x="2069.0" y="3053.0" /><rect fill="#900" height="48" stroke="#900" stroke-width="5" transform="rotate(180,2085.0,2741.0)" width="32" x="2069.0" y="2717.0" /><rect fill="#900" height="48" stroke="#900" stroke-width="5" transform="rotate(225,2085.0,2405.0)" width="32" x="2069.0" y="2381.0" /><rect fill="#900" height="48" stroke="#900" stroke-width="5" transform="rotate(90,2357.0,3813.0)" width="32" x="2341.0" y="3789.0" /><rect fill="#900" height="48" stroke="#900" stroke-width="5" transform="rotate(90,2677.0,3813.0)" width="32" x="2661.0" y="3789.0" /><rect fill="#900" height="48" stroke="#900" stroke-width="5" transform="rotate(90,2933.0,3813.0)" width="32" x="2917.0" y="3789.0" /><rect fill="#900" height="48" stroke="#900" stroke-width="5" transform="rotate(90,3285.0,3813.0)" width="32" x="3269.0" y="3789.0" /><rect fill="#900" height="48" stroke="#900" stroke-width="5" transform="rotate(45,3541.0,3813.0)" width="32" x="3525.0" y="3789.0" /><rect fill="#900" height="48" stroke="#900" stroke-width="5" transform="rotate(0,3541.0,3477.0)" width="32" x="3525.0" y="3453.0" /><rect fill="#900" height="48" stroke="#900" stroke-width="5" transform="rotate(0,3541.0,3093.0)" width="32" x="3525.0" y="3069.0" /><rect fill="#900" height="48" stroke="#900" stroke-width="5" transform="rotate(0,3541.0,2741.0)" width="32" x="3525.0" y="2717.0" /><rect fill="#900" height="48" stroke="#900" stroke-width="5" transform="rotate(315,3541.0,2405.0)" width="32" x="3525.0" y="2381.0" /><rect fill="#900" height="48" stroke="#900" stroke-width="5" transform="rotate(270,3285.0,2405.0)" width="32" x="3269.0" y="2381.0" /><rect fill="#900" height="48" stroke="#900" stroke-width="5" transform="rotate(270,2933.0,2405.0)" width="32" x="2917.0" y="2381.0" /><rect fill="#900" height="48" stroke="#900" stroke-width="5" transform="rotate(270,2677.0,2405.0)" width="32" x="2661.0" y="2381.0" /><rect fill="#900" height="48" stroke="#900" stroke-width="5" transform="rotate(270,2357.0,2405.0)" width="32" x="2341.0" y="2381.0" /><rect fill="#900" height="48" stroke="#900" stroke-width="5" transform="rotate(135,2469.0,3381.0)" width="32" x="2453.0" y="3357.0" /><rect fill="#900" height="48" stroke="#900" stroke-width="5" transform="rotate(45,3157.0,3381.0)" width="32" x="3141.0" y="3357.0" /><rect fill="#900" height="48" stroke="#900" stroke-width="5" transform="rotate(315,3157.0,2725.0)" width="32" x="3141.0" y="2701.0" /><rect fill="#900" height="48" stroke="#900" stroke-width="5" transform="rotate(225,2469.0,2725.0)" width="32" x="2453.0" y="2701.0" /><rect fill="#900" height="48" stroke="#900" stroke-width="5" transform="rotate(90,2805.0,4181.0)" width="32" x="2789.0" y="4157.0" /><rect fill="#900" height="48" stroke="#900" stroke-width="5" transform="rotate(180,1717.0,3093.0)" width="32" x="1701.0" y="3069.0" /><rect fill="#900" height="48" stroke="#900" stroke-width="5" transform="rotate(0,3813.0,3093.0)" width="32" x="3797.0" y="3069.0" /><rect fill="#900" height="48" stroke="#900" stroke-width="5" transform="rotate(270,2805.0,2053.0)" width="32" x="2789.0" y="2029.0" /><rect fill="#900" height="48" stroke="#900" stroke-width="5" transform="rotate(270,2501.0,4965.0)" width="32" x="2485.0" y="4941.0" /><rect fill="#900" height="48" stroke="#900" stroke-width="5" transform="rotate(270,2581.0,5061.0)" width="32" x="2565.0" y="5037.0" /><rect fill="#900" height="48" stroke="#900" stroke-width="5" transform="rotate(270,2645.0,5221.0)" width="32" x="2629.0" y="5197.0" /><rect fill="#900" height="48" stroke="#900" stroke-width="5" transform="rotate(270,2869.0,5237.0)" width="32" x="2853.0" y="5213.0" /><rect fill="#900" height="48" stroke="#900" stroke-width="5" transform="rotate(270,2869.0,5093.0)" width="32" x="2853.0" y="5069.0" /><rect fill="#900" height="48" stroke="#900" stroke-width="5" transform="rotate(270,2741.0,4933.0)" width="32" x="2725.0" y="4909.0" /><rect fill="#900" height="48" stroke="#900" stroke-width="5" transform="rotate(270,2821.0,4725.0)" width="32" x="2805.0" y="4701.0" /><rect fill="#900" height="48" stroke="#900" stroke-width="5" transform="rotate(270,2981.0,4917.0)" width="32" x="2965.0" y="4893.0" /><rect fill="#900" height="48" stroke="#900" stroke-width="5" transform="rotate(270,3237.0,5125.0)" width="32" x="3221.0" y="5101.0" /><rect fill="#900" height="48" stroke="#900" stroke-width="5" transform="rotate(270,3173.0,4789.0)" width="32" x="3157.0" y="4765.0" /><rect fill="#900" height="48" stroke="#900" stroke-width="5" transform="rotate(270,2997.0,4613.0)" width="32" x="2981.0" y="4589.0" /><rect fill="#900" height="48" stroke="#900" stroke-width="5" transform="rotate(270,2405.0,5109.0)" width="32" x="2389.0" y="5085.0" /><rect fill="#900" height="48" stroke="#900" stroke-width="5" transform="rotate(270,2645.0,4773.0)" width="32" x="2629.0" y="4749.0" /><rect fill="#900" height="48" stroke="#900" stroke-width="5" transform="rotate(270,2245.0,4741.0)" width="32" x="2229.0" y="4717.0" /><rect fill="#900" height="48" stroke="#900" stroke-width="5" transform="rotate(270,2485.0,4613.0)" width="32" x="2469.0" y="4589.0" /><rect fill="#900" height="48" stroke="#900" stroke-width="5" transform="rotate(270,2709.0,5445.0)" width="32" x="2693.0" y="5421.0" /><rect fill="#900" height="48" stroke="#900" stroke-width="5" transform="rotate(270,3109.0,5381.0)" width="32" x="3093.0" y="5357.0" /><rect fill="#900" height="48" stroke="#900" stroke-width="5" transform="rotate(270,3285.0,4773.0)" width="32" x="3269.0" y="4749.0" /><rect fill="#900" height="48" stroke="#900" stroke-width="5" transform="rotate(90,2437.0,1013.0)" width="32" x="2421.0" y="989.0" /><rect fill="#900" height="48" stroke="#900" stroke-width="5" transform="rotate(90,2597.0,1125.0)" width="32" x="2581.0" y="1101.0" /><rect fill="#900" height="48" stroke="#900" stroke-width="5" transform="rotate(90,2725.0,917.0)" width="32" x="2709.0" y="893.0" /><rect fill="#900" height="48" stroke="#900" stroke-width="5" transform="rotate(90,2853.0,1077.0)" width="32" x="2837.0" y="1053.0" /><rect fill="#900" height="48" stroke="#900" stroke-width="5" transform="rotate(90,2933.0,949.0)" width="32" x="2917.0" y="925.0" /><rect fill="#900" height="48" stroke="#900" stroke-width="5" transform="rotate(90,3125.0,1125.0)" width="32" x="3109.0" y="1101.0" /><rect fill="#900" height="48" stroke="#900" stroke-width="5" transform="rotate(90,3157.0,965.0)" width="32" x="3141.0" y="941.0" /><rect fill="#900" height="48" stroke="#900" stroke-width="5" transform="rotate(90,3301.0,1109.0)" width="32" x="3285.0" y="1085.0" /><rect fill="#900" height="48" stroke="#900" stroke-width="5" transform="rotate(90,3077.0,693.0)" width="32" x="3061.0" y="669.0" /><rect fill="#900" height="48" stroke="#900" stroke-width="5" transform="rotate(90,2901.0,837.0)" width="32" x="2885.0" y="813.0" /><rect fill="#900" height="48" stroke="#900" stroke-width="5" transform="rotate(90,2901.0,693.0)" width="32" x="2885.0" y="669.0" /><rect fill="#900" height="48" stroke="#900" stroke-width="5" transform="rotate(90,2645.0,741.0)" width="32" x="2629.0" y="717.0" /><rect fill="#900" height="48" stroke="#900" stroke-width="5" transform="rotate(90,2533.0,901.0)" width="32" x="2517.0" y="877.0" /><rect fill="#900" height="48" stroke="#900" stroke-width="5" transform="rotate(90,2309.0,1125.0)" width="32" x="2293.0" y="1101.0" /><rect fill="#900" height="48" stroke="#900" stroke-width="5" transform="rotate(90,2469.0,789.0)" width="32" x="2453.0" y="765.0" /><rect fill="#900" height="48" stroke="#900" stroke-width="5" transform="rotate(90,2661.0,597.0)" width="32" x="2645.0" y="573.0" /><rect fill="#900" height="48" stroke="#900" stroke-width="5" transform="rotate(90,2805.0,629.0)" width="32" x="2789.0" y="605.0" /><rect fill="#900" height="48" stroke="#900" stroke-width="5" transform="rotate(90,2949.0,485.0)" width="32" x="2933.0" y="461.0" /><rect fill="#900" height="48" stroke="#900" stroke-width="5" transform="rotate(90,2789.0,437.0)" width="32" x="2773.0" y="413.0" /><rect fill="#900" height="48" stroke="#900" stroke-width="5" transform="rotate(90,3093.0,837.0)" width="32" x="3077.0" y="813.0" /><rect fill="#900" height="48" stroke="#900" stroke-width="5" transform="rotate(90,2997.0,1141.0)" width="32" x="2981.0" y="1117.0" /><rect fill="#900" height="48" stroke="#900" stroke-width="5" transform="rotate(270,2453.0,3045.0)" width="32" x="2437.0" y="3021.0" /><rect fill="#900" height="48" stroke="#900" stroke-width="5" transform="rotate(90,3173.0,3045.0)" width="32" x="3157.0" y="3021.0" /><circle cx="485.0" cy="4373.0" fill="#900" r="16" stroke="#900" stroke-width="5" /><circle cx="469.0" cy="4293.0" fill="#090" r="16" stroke="#090" stroke-width="5" /><circle cx="389.0" cy="4229.0" fill="#090" r="16" stroke="#090" stroke-width="5" /><circle cx="437.0" cy="4117.0" fill="#090" r="16" stroke="#090" stroke-width="5" /><circle cx="645.0" cy="4245.0" fill="#090" r="16" stroke="#090" stroke-width="5" /><circle cx="2757.0" cy="5621.0" fill="#090" r="16" stroke="#090" stroke-width="5" /><circle cx="2853.0" cy="5685.0" fill="#090" r="16" stroke="#090" stroke-width="5" /><circle cx="2917.0" cy="5573.0" fill="#090" r="16" stroke="#090" stroke-width="5" /><circle cx="2997.0" cy="5717.0" fill="#090" r="16" stroke="#090" stroke-width="5" /><circle cx="2885.0" cy="5813.0" fill="#090" r="16" stroke="#090" stroke-width="5" /><circle cx="2773.0" cy="5749.0" fill="#090" r="16" stroke="#090" stroke-width="5" /><circle cx="2677.0" cy="5701.0" fill="#090" r="16" stroke="#090" stroke-width="5" /><circle cx="2757.0" cy="5861.0" fill="#090" r="16" stroke="#090" stroke-width="5" /><circle cx="2981.0" cy="5429.0" fill="#090" r="16" stroke="#090" stroke-width="5" /><circle cx="3061.0" cy="5557.0" fill="#090" r="16" stroke="#090" stroke-width="5" /><circle cx="2597.0" cy="5573.0" fill="#090" r="16" stroke="#090" stroke-width="5" /><circle cx="2581.0" cy="5429.0" fill="#090" r="16" stroke="#090" stroke-width="5" /><circle cx="2853.0" cy="5477.0" fill="#090" r="16" stroke="#090" stroke-width="5" /><circle cx="2821.0" cy="5349.0" fill="#090" r="16" stroke="#090" stroke-width="5" /><circle cx="2501.0" cy="5301.0" fill="#090" r="16" stroke="#090" stroke-width="5" /><circle cx="3045.0" cy="5285.0" fill="#090" r="16" stroke="#090" stroke-width="5" /><circle cx="3205.0" cy="5285.0" fill="#090" r="16" stroke="#090" stroke-width="5" /><circle cx="2837.0" cy="357.0" fill="#009" r="16" stroke="#009" stroke-width="5" /><circle cx="2789.0" cy="357.0" fill="#009" r="16" stroke="#009" stroke-width="5" /><circle cx="5381.0" cy="1637.0" fill="#900" r="16" stroke="#900" stroke-width="5" /><circle cx="5157.0" cy="1509.0" fill="#090" r="16" stroke="#090" stroke-width="5" /><circle cx="5189.0" cy="1733.0" fill="#090" r="16" stroke="#090" stroke-width="5" /><circle cx="5029.0" cy="1573.0" fill="#090" r="16" stroke="#090" stroke-width="5" /><circle cx="5013.0" cy="1813.0" fill="#090" r="16" stroke="#090" stroke-width="5" /><circle cx="4821.0" cy="1541.0" fill="#090" r="16" stroke="#090" stroke-width="5" /><circle cx="4789.0" cy="1829.0" fill="#090" r="16" stroke="#090" stroke-width="5" /><circle cx="4997.0" cy="2069.0" fill="#090" r="16" stroke="#090" stroke-width="5" /><circle cx="5189.0" cy="1989.0" fill="#090" r="16" stroke="#090" stroke-width="5" /><circle cx="4981.0" cy="1365.0" fill="#090" r="16" stroke="#090" stroke-width="5" /><circle cx="4757.0" cy="1365.0" fill="#090" r="16" stroke="#090" stroke-width="5" /><circle cx="5221.0" cy="4389.0" fill="#900" r="16" stroke="#900" stroke-width="5" /><circle cx="5269.0" cy="4293.0" fill="#090" r="16" stroke="#090" stroke-width="5" /><circle cx="5301.0" cy="4181.0" fill="#090" r="16" stroke="#090" stroke-width="5" /><circle cx="5061.0" cy="4373.0" fill="#090" r="16" stroke="#090" stroke-width="5" /><circle cx="5141.0" cy="4261.0" fill="#090" r="16" stroke="#090" stroke-width="5" /><circle cx="5189.0" cy="4085.0" fill="#090" r="16" stroke="#090" stroke-width="5" /><circle cx="4965.0" cy="4293.0" fill="#090" r="16" stroke="#090" stroke-width="5" /><circle cx="4997.0" cy="4149.0" fill="#090" r="16" stroke="#090" stroke-width="5" /><circle cx="4789.0" cy="4357.0" fill="#090" r="16" stroke="#090" stroke-width="5" /><circle cx="4805.0" cy="4181.0" fill="#090" r="16" stroke="#090" stroke-width="5" /><circle cx="4869.0" cy="4069.0" fill="#090" r="16" stroke="#090" stroke-width="5" /><circle cx="5029.0" cy="3973.0" fill="#090" r="16" stroke="#090" stroke-width="5" /><circle cx="4901.0" cy="3861.0" fill="#090" r="16" stroke="#090" stroke-width="5" /><circle cx="4773.0" cy="3989.0" fill="#090" r="16" stroke="#090" stroke-width="5" /><circle cx="5045.0" cy="3861.0" fill="#090" r="16" stroke="#090" stroke-width="5" /><circle cx="4661.0" cy="4117.0" fill="#090" r="16" stroke="#090" stroke-width="5" /><circle cx="4629.0" cy="4341.0" fill="#090" r="16" stroke="#090" stroke-width="5" /><circle cx="4485.0" cy="4117.0" fill="#090" r="16" stroke="#090" stroke-width="5" /><circle cx="4597.0" cy="3845.0" fill="#090" r="16" stroke="#090" stroke-width="5" /><circle cx="4789.0" cy="3781.0" fill="#090" r="16" stroke="#090" stroke-width="5" /><circle cx="4949.0" cy="3685.0" fill="#090" r="16" stroke="#090" stroke-width="5" /><circle cx="4421.0" cy="4309.0" fill="#090" r="16" stroke="#090" stroke-width="5" /><circle cx="309.0" cy="1557.0" fill="#900" r="16" stroke="#900" stroke-width="5" /><circle cx="341.0" cy="1445.0" fill="#090" r="16" stroke="#090" stroke-width="5" /><circle cx="421.0" cy="1381.0" fill="#090" r="16" stroke="#090" stroke-width="5" /><circle cx="549.0" cy="1365.0" fill="#090" r="16" stroke="#090" stroke-width="5" /><circle cx="549.0" cy="1493.0" fill="#090" r="16" stroke="#090" stroke-width="5" /><circle cx="469.0" cy="1605.0" fill="#090" r="16" stroke="#090" stroke-width="5" /><circle cx="437.0" cy="1509.0" fill="#090" r="16" stroke="#090" stroke-width="5" /><circle cx="405.0" cy="1733.0" fill="#090" r="16" stroke="#090" stroke-width="5" /><circle cx="533.0" cy="1717.0" fill="#090" r="16" stroke="#090" stroke-width="5" /><circle cx="613.0" cy="1605.0" fill="#090" r="16" stroke="#090" stroke-width="5" /><circle cx="661.0" cy="1461.0" fill="#090" r="16" stroke="#090" stroke-width="5" /><circle cx="709.0" cy="1349.0" fill="#090" r="16" stroke="#090" stroke-width="5" /><circle cx="757.0" cy="1413.0" fill="#090" r="16" stroke="#090" stroke-width="5" /><circle cx="853.0" cy="1397.0" fill="#090" r="16" stroke="#090" stroke-width="5" /><circle cx="853.0" cy="1557.0" fill="#090" r="16" stroke="#090" stroke-width="5" /><circle cx="965.0" cy="1349.0" fill="#090" r="16" stroke="#090" stroke-width="5" /><circle cx="965.0" cy="1493.0" fill="#090" r="16" stroke="#090" stroke-width="5" /><circle cx="725.0" cy="1557.0" fill="#090" r="16" stroke="#090" stroke-width="5" /><circle cx="821.0" cy="1685.0" fill="#090" r="16" stroke="#090" stroke-width="5" /><circle cx="677.0" cy="1733.0" fill="#090" r="16" stroke="#090" stroke-width="5" /><circle cx="581.0" cy="1829.0" fill="#090" r="16" stroke="#090" stroke-width="5" /><circle cx="469.0" cy="1893.0" fill="#090" r="16" stroke="#090" stroke-width="5" /><circle cx="581.0" cy="1957.0" fill="#090" r="16" stroke="#090" stroke-width="5" /><circle cx="725.0" cy="1877.0" fill="#090" r="16" stroke="#090" stroke-width="5" /><circle cx="885.0" cy="1749.0" fill="#090" r="16" stroke="#090" stroke-width="5" /><circle cx="1013.0" cy="1605.0" fill="#090" r="16" stroke="#090" stroke-width="5" /><circle cx="1125.0" cy="1461.0" fill="#090" r="16" stroke="#090" stroke-width="5" /><circle cx="853.0" cy="1909.0" fill="#090" r="16" stroke="#090" stroke-width="5" /><circle cx="773.0" cy="2101.0" fill="#090" r="16" stroke="#090" stroke-width="5" /><circle cx="629.0" cy="2181.0" fill="#090" r="16" stroke="#090" stroke-width="5" /><circle cx="1013.0" cy="2005.0" fill="#090" r="16" stroke="#090" stroke-width="5" /><circle cx="1029.0" cy="1813.0" fill="#090" r="16" stroke="#090" stroke-width="5" /><circle cx="1157.0" cy="1717.0" fill="#090" r="16" stroke="#090" stroke-width="5" /><circle cx="1237.0" cy="1557.0" fill="#090" r="16" stroke="#090" stroke-width="5" /><circle cx="1349.0" cy="1381.0" fill="#090" r="16" stroke="#090" stroke-width="5" /><circle cx="5341.0" cy="1469.0" fill="#009" r="16" stroke="#009" stroke-width="5" /><circle cx="5301.0" cy="1429.0" fill="#009" r="16" stroke="#009" stroke-width="5" /><circle cx="5357.0" cy="4277.0" fill="#009" r="16" stroke="#009" stroke-width="5" /><circle cx="5333.0" cy="4325.0" fill="#009" r="16" stroke="#009" stroke-width="5" /><circle cx="2845.0" cy="5949.0" fill="#009" r="16" stroke="#009" stroke-width="5" /><circle cx="2797.0" cy="5949.0" fill="#009" r="16" stroke="#009" stroke-width="5" /><circle cx="277.0" cy="1381.0" fill="#009" r="16" stroke="#009" stroke-width="5" /><circle cx="237.0" cy="1421.0" fill="#009" r="16" stroke="#009" stroke-width="5" /></svg>