<?xml version="1.0" encoding="utf-8" ?>
<svg baseProfile="tiny" height="1024" version="1.2" viewBox="0 0 2186 2730" width="819" xmlns="http://www.w3.org/2000/svg" xmlns:ev="http://www.w3.org/2001/xml-events" xmlns:xlink="http://www.w3.org/1999/xlink"><defs /><line stroke="#999" stroke-width="3" x1="837.0" x2="837.0" y1="1925.0" y2="1733.0" /><line stroke="#999" stroke-width="3" x1="1029.0" x2="837.0" y1="1925.0" y2="1925.0" /><line stroke="#999" stroke-width="3" x1="1029.0" x2="1029.0" y1="1733.0" y2="1925.0" /><line stroke="#999" stroke-width="3" x1="837.0" x2="1029.0" y1="1733.0" y2="1733.0" /><line stroke="#999" stroke-width="3" x1="837.0" x2="933.0" y1="1733.0" y2="1829.0" /><line stroke="#999" stroke-width="3" x1="933.0" x2="837.0" y1="1829.0" y2="1925.0" /><line stroke="#999" stroke-width="3" x1="933.0" x2="1029.0" y1="1829.0" y2="1733.0" /><line stroke="#999" stroke-width="3" x1="1029.0" x2="933.0" y1="1925.0" y2="1829.0" /><line stroke="#999" stroke-width="3" x1="613.0" x2="869.0" y1="1893.0" y2="2149.0" /><line stroke="#999" stroke-width="3" x1="869.0" x2="1253.0" y1="2149.0" y2="2149.0" /><line stroke="#999" stroke-width="3" x1="1253.0" x2="1253.0" y1="2149.0" y2="1765.0" /><line stroke="#999" stroke-width="3" x1="1029.0" x2="997.0" y1="1221.0" y2="1509.0" /><line stroke="#999" stroke-width="3" x1="997.0" x2="613.0" y1="1509.0" y2="1893.0" /><line stroke="#999" stroke-width="3" x1="1253.0" x2="997.0" y1="1765.0" y2="1509.0" /><line stroke="#999" stroke-width="3" x1="1253.0" x2="1157.0" y1="1765.0" y2="1221.0" /><line stroke="#999" stroke-width="3" x1="1157.0" x2="1029.0" y1="1221.0" y2="1221.0" /><line stroke="#999" stroke-width="3" x1="1029.0" x2="1157.0" y1="1093.0" y2="1093.0" /><line stroke="#999" stroke-width="3" x1="1157.0" x2="1157.0" y1="1093.0" y2="1221.0" /><line stroke="#999" stroke-width="3" x1="1029.0" x2="1029.0" y1="1221.0" y2="1093.0" /><line stroke="#999" stroke-width="3" x1="1157.0" x2="1925.0" y1="1221.0" y2="1125.0" /><line stroke="#333" stroke-width="10" x1="1925.0" x2="1925.0" y1="1125.0" y2="325.0" /><line stroke="#999" stroke-width="3" x1="1029.0" x2="837.0" y1="1093.0" y2="1029.0" /><line stroke="#333" stroke-width="10" x1="277.0" x2="293.0" y1="2181.0" y2="2149.0" /><line stroke="#999" stroke-width="3" x1="1157.0" x2="1765.0" y1="1093.0" y2="645.0" /><line stroke="#999" stroke-width="3" x1="1765.0" x2="1765.0" y1="645.0" y2="453.0" /><line stroke="#999" stroke-width="3" x1="1765.0" x2="1413.0" y1="453.0" y2="453.0" /><line stroke="#999" stroke-width="3" x1="1413.0" x2="1413.0" y1="453.0" y2="709.0" /><line stroke="#999" stroke-width="3" x1="1413.0" x2="1157.0" y1="709.0" y2="709.0" /><line stroke="#999" stroke-width="3" x1="1157.0" x2="1157.0" y1="581.0" y2="709.0" /><line stroke="#999" stroke-width="3" x1="1157.0" x2="1285.0" y1="581.0" y2="581.0" /><line stroke="#999" stroke-width="3" x1="1285.0" x2="1285.0" y1="581.0" y2="325.0" /><line stroke="#999" stroke-width="3" x1="837.0" x2="293.0" y1="1029.0" y2="2149.0" /><line stroke="#999" stroke-width="3" x1="1285.0" x2="1797.0" y1="1125.0" y2="773.0" /><line stroke="#999" stroke-width="3" x1="1797.0" x2="1797.0" y1="773.0" y2="1029.0" /><line stroke="#999" stroke-width="3" x1="1797.0" x2="1285.0" y1="1029.0" y2="1125.0" /><line stroke="#999" stroke-width="3" x1="1029.0" x2="1029.0" y1="325.0" y2="1093.0" /><line stroke="#999" stroke-width="3" x1="1285.0" x2="1029.0" y1="325.0" y2="325.0" /><line stroke="#999" stroke-width="3" x1="869.0" x2="1477.0" y1="2149.0" y2="2373.0" /><line stroke="#333" stroke-width="10" x1="293.0" x2="725.0" y1="2149.0" y2="2378.0" /><line stroke="#333" stroke-width="10" x1="837.0" x2="1477.0" y1="2437.0" y2="2373.0" /><line stroke="#333" stroke-width="10" x1="1477.0" x2="1541.0" y1="2373.0" y2="2195.0" /><line stroke="#999" stroke-width="3" x1="1253.0" x2="1477.0" y1="1765.0" y2="2373.0" /><line stroke="#999" stroke-width="3" x1="1253.0" x2="1477.0" y1="2149.0" y2="2373.0" /><line stroke="#999" stroke-width="3" x1="293.0" x2="1477.0" y1="2149.0" y2="2373.0" /><line stroke="#999" stroke-width="3" x1="1253.0" x2="1925.0" y1="1765.0" y2="1125.0" /><line stroke="#333" stroke-width="10" x1="1925.0" x2="1733.0" y1="325.0" y2="5.0" /><line stroke="#333" stroke-width="10" x1="1733.0" x2="997.0" y1="5.0" y2="5.0" /><line stroke="#333" stroke-width="10" x1="997.0" x2="325.0" y1="5.0" y2="869.0" /><line stroke="#333" stroke-width="10" x1="325.0" x2="645.0" y1="869.0" y2="997.0" /><line stroke="#333" stroke-width="10" x1="645.0" x2="198.0" y1="997.0" y2="1869.0" /><line stroke="#333" stroke-width="10" x1="5.0" x2="581.0" y1="2245.0" y2="2725.0" /><line stroke="#333" stroke-width="10" x1="581.0" x2="821.0" y1="2725.0" y2="2465.0" /><line stroke="#999" stroke-width="3" x1="725.0" x2="837.0" y1="2378.0" y2="2437.0" /><line stroke="#999" stroke-width="3" x1="1925.0" x2="1285.0" y1="325.0" y2="325.0" /><line stroke="#333" stroke-width="10" x1="725.0" x2="721.0" y1="2378.0" y2="2385.0" /><line stroke="#333" stroke-width="10" x1="709.0" x2="277.0" y1="2405.0" y2="2181.0" /><line stroke="#d00" stroke-width="20" x1="825.0" x2="713.0" y1="2458.0" y2="2398.0" /><line stroke="#333" stroke-width="10" x1="833.0" x2="837.0" y1="2444.0" y2="2437.0" /><line stroke="#333" stroke-width="10" x1="713.0" x2="709.0" y1="2398.0" y2="2405.0" /><line stroke="#333" stroke-width="10" x1="821.0" x2="825.0" y1="2465.0" y2="2458.0" /><line stroke="#333" stroke-width="10" x1="721.0" x2="713.0" y1="2385.0" y2="2398.0" /><line stroke="#d00" stroke-width="20" x1="721.0" x2="833.0" y1="2385.0" y2="2444.0" /><line stroke="#333" stroke-width="10" x1="825.0" x2="833.0" y1="2458.0" y2="2444.0" /><line stroke="#999" stroke-width="3" x1="837.0" x2="645.0" y1="1029.0" y2="997.0" /><line stroke="#999" stroke-width="3" x1="1733.0" x2="1285.0" y1="5.0" y2="325.0" /><line stroke="#999" stroke-width="3" x1="1285.0" x2="997.0" y1="325.0" y2="5.0" /><line stroke="#999" stroke-width="3" x1="997.0" x2="1029.0" y1="5.0" y2="325.0" /><line stroke="#999" stroke-width="3" x1="1285.0" x2="1413.0" y1="581.0" y2="709.0" /><line stroke="#0d0" stroke-width="20" x1="1765.0" x2="1765.0" y1="293.0" y2="229.0" /><line stroke="#0d0" stroke-width="20" x1="1765.0" x2="1829.0" y1="229.0" y2="229.0" /><line stroke="#0d0" stroke-width="20" x1="1829.0" x2="1829.0" y1="229.0" y2="293.0" /><line stroke="#0d0" stroke-width="20" x1="1829.0" x2="1765.0" y1="293.0" y2="293.0" /><line stroke="#999" stroke-width="3" x1="277.0" x2="5.0" y1="2181.0" y2="2245.0" /><line stroke="#d00" stroke-width="20" x1="1893.0" x2="1797.0" y1="485.0" y2="485.0" /><line stroke="#999" stroke-width="3" x1="1797.0" x2="1781.0" y1="485.0" y2="469.0" /><line stroke="#d00" stroke-width="20" x1="1781.0" x2="1909.0" y1="469.0" y2="469.0" /><line stroke="#999" stroke-width="3" x1="1909.0" x2="1893.0" y1="469.0" y2="485.0" /><line stroke="#999" stroke-width="3" x1="821.0" x2="709.0" y1="2465.0" y2="2405.0" /><line stroke="#333" stroke-width="10" x1="198.0" x2="5.0" y1="1869.0" y2="2245.0" /><line stroke="#999" stroke-width="3" x1="198.0" x2="293.0" y1="1869.0" y2="2149.0" /><line stroke="#999" stroke-width="3" x1="1765.0" x2="1413.0" y1="645.0" y2="453.0" /><line stroke="#00d" stroke-width="20" x1="1029.0" x2="1157.0" y1="1093.0" y2="581.0" /><line stroke="#999" stroke-width="3" x1="837.0" x2="781.0" y1="1029.0" y2="845.0" /><line stroke="#999" stroke-width="3" x1="781.0" x2="645.0" y1="845.0" y2="997.0" /><line stroke="#999" stroke-width="3" x1="1029.0" x2="837.0" y1="1093.0" y2="661.0" /><line stroke="#999" stroke-width="3" x1="837.0" x2="325.0" y1="661.0" y2="869.0" /><line stroke="#999" stroke-width="3" x1="549.0" x2="933.0" y1="1829.0" y2="1477.0" /><line stroke="#999" stroke-width="3" x1="933.0" x2="837.0" y1="1477.0" y2="1157.0" /><line stroke="#999" stroke-width="3" x1="837.0" x2="549.0" y1="1157.0" y2="1829.0" /><line stroke="#999" stroke-width="3" x1="1541.0" x2="1856.0" y1="2195.0" y2="1317.0" /><line stroke="#333" stroke-width="10" x1="1856.0" x2="1896.0" y1="1317.0" y2="1205.0" /><line stroke="#333" stroke-width="10" x1="1541.0" x2="1733.0" y1="2195.0" y2="2309.0" /><line stroke="#999" stroke-width="3" x1="1733.0" x2="2085.0" y1="2309.0" y2="1381.0" /><line stroke="#333" stroke-width="10" x1="2085.0" x2="1856.0" y1="1381.0" y2="1317.0" /><line stroke="#333" stroke-width="10" x1="1733.0" x2="2181.0" y1="2309.0" y2="1861.0" /><line stroke="#333" stroke-width="10" x1="2181.0" x2="2085.0" y1="1861.0" y2="1381.0" /><line stroke="#333" stroke-width="10" x1="1896.0" x2="1925.0" y1="1205.0" y2="1189.0" /><line stroke="#333" stroke-width="10" x1="1925.0" x2="1925.0" y1="1189.0" y2="1125.0" /><line stroke="#999" stroke-width="3" x1="1896.0" x2="1925.0" y1="1205.0" y2="1125.0" /><line stroke="#00d" stroke-width="20" x1="1253.0" x2="869.0" y1="1765.0" y2="2149.0" /><ellipse cx="1805.0" cy="1173.0" fill="#009" rx="12" ry="24" stroke="#009" stroke-width="5" /><rect fill="#900" height="48" stroke="#900" stroke-width="5" transform="rotate(225,1117.0,1981.0)" width="32" x="1101.0" y="1957.0" /><ellipse cx="877.0" cy="1829.0" fill="#090" rx="12" ry="24" stroke="#090" stroke-width="5" /><ellipse cx="1701.0" cy="501.0" fill="#090" rx="12" ry="24" stroke="#090" stroke-width="5" /><rect fill="#009" height="24" stroke="#009" stroke-width="5" transform="rotate(90,1093.0,1157.0)" width="24" x="1081.0" y="1145.0" /><ellipse cx="1741.0" cy="1189.0" fill="#009" rx="12" ry="24" stroke="#009" stroke-width="5" /><ellipse cx="1829.0" cy="1245.0" fill="#009" rx="12" ry="24" stroke="#009" stroke-width="5" /><ellipse cx="1813.0" cy="1333.0" fill="#009" rx="12" ry="24" stroke="#009" stroke-width="5" /><rect fill="#900" height="48" stroke="#900" stroke-width="5" transform="rotate(90,2037.0,1397.0)" width="32" x="2021.0" y="1373.0" /><rect fill="#900" height="48" stroke="#900" stroke-width="5" transform="rotate(90,2013.0,1469.0)" width="32" x="1997.0" y="1445.0" /><rect fill="#900" height="48" stroke="#900" stroke-width="5" transform="rotate(90,1989.0,1541.0)" width="32" x="1973.0" y="1517.0" /><circle cx="1189.0" cy="1245.0" fill="#009" r="16" stroke="#009" stroke-width="5" /><ellipse cx="1197.0" cy="1293.0" fill="#900" rx="12" ry="24" stroke="#900" stroke-width="5" /><ellipse cx="1229.0" cy="1277.0" fill="#900" rx="12" ry="24" stroke="#900" stroke-width="5" /><ellipse cx="1245.0" cy="1237.0" fill="#900" rx="12" ry="24" stroke="#900" stroke-width="5" /><rect fill="#900" height="48" stroke="#900" stroke-width="5" transform="rotate(0,1245.0,1341.0)" width="32" x="1229.0" y="1317.0" /><rect fill="#900" height="48" stroke="#900" stroke-width="5" transform="rotate(0,1189.0,2181.0)" width="32" x="1173.0" y="2157.0" /><rect fill="#900" height="48" stroke="#900" stroke-width="5" transform="rotate(0,973.0,2229.0)" width="32" x="957.0" y="2205.0" /><rect fill="#900" height="48" stroke="#900" stroke-width="5" transform="rotate(0,1077.0,2197.0)" width="32" x="1061.0" y="2173.0" /><rect fill="#900" height="48" stroke="#900" stroke-width="5" transform="rotate(0,1053.0,2333.0)" width="32" x="1037.0" y="2309.0" /><rect fill="#900" height="48" stroke="#900" stroke-width="5" transform="rotate(315,885.0,2357.0)" width="32" x="869.0" y="2333.0" /><rect fill="#900" height="48" stroke="#900" stroke-width="5" transform="rotate(45,765.0,2117.0)" width="32" x="749.0" y="2093.0" /><rect fill="#900" height="48" stroke="#900" stroke-width="5" transform="rotate(45,653.0,2077.0)" width="32" x="637.0" y="2053.0" /><rect fill="#900" height="48" stroke="#900" stroke-width="5" transform="rotate(45,533.0,2125.0)" width="32" x="517.0" y="2101.0" /><rect fill="#900" height="48" stroke="#900" stroke-width="5" transform="rotate(135,837.0,1389.0)" width="32" x="821.0" y="1365.0" /><rect fill="#900" height="48" stroke="#900" stroke-width="5" transform="rotate(135,861.0,1485.0)" width="32" x="845.0" y="1461.0" /><rect fill="#900" height="48" stroke="#900" stroke-width="5" transform="rotate(135,749.0,1445.0)" width="32" x="733.0" y="1421.0" /><rect fill="#900" height="48" stroke="#900" stroke-width="5" transform="rotate(135,733.0,1565.0)" width="32" x="717.0" y="1541.0" /><rect fill="#900" height="48" stroke="#900" stroke-width="5" transform="rotate(135,989.0,1197.0)" width="32" x="973.0" y="1173.0" /><rect fill="#900" height="48" stroke="#900" stroke-width="5" transform="rotate(135,989.0,1125.0)" width="32" x="973.0" y="1101.0" /><rect fill="#090" height="24" stroke="#090" stroke-width="5" transform="rotate(135,973.0,1485.0)" width="24" x="961.0" y="1473.0" /><rect fill="#090" height="24" stroke="#090" stroke-width="5" transform="rotate(135,349.0,2125.0)" width="24" x="337.0" y="2113.0" /><rect fill="#090" height="24" stroke="#090" stroke-width="5" transform="rotate(135,845.0,1069.0)" width="24" x="833.0" y="1057.0" /><rect fill="#090" height="24" stroke="#090" stroke-width="5" transform="rotate(135,1509.0,1765.0)" width="24" x="1497.0" y="1753.0" /><rect fill="#090" height="24" stroke="#090" stroke-width="5" transform="rotate(135,1653.0,1637.0)" width="24" x="1641.0" y="1625.0" /><rect fill="#090" height="24" stroke="#090" stroke-width="5" transform="rotate(135,1357.0,1541.0)" width="24" x="1345.0" y="1529.0" /><rect fill="#090" height="24" stroke="#090" stroke-width="5" transform="rotate(135,1357.0,1797.0)" width="24" x="1345.0" y="1785.0" /><rect fill="#090" height="24" stroke="#090" stroke-width="5" transform="rotate(135,1525.0,1909.0)" width="24" x="1513.0" y="1897.0" /><rect fill="#090" height="24" stroke="#090" stroke-width="5" transform="rotate(135,1301.0,2077.0)" width="24" x="1289.0" y="2065.0" /><rect fill="#090" height="24" stroke="#090" stroke-width="5" transform="rotate(135,1501.0,1405.0)" width="24" x="1489.0" y="1393.0" /><rect fill="#090" height="24" stroke="#090" stroke-width="5" transform="rotate(135,1053.0,1197.0)" width="24" x="1041.0" y="1185.0" /><rect fill="#900" height="48" stroke="#900" stroke-width="5" transform="rotate(180,1093.0,1157.0)" width="32" x="1077.0" y="1133.0" /><circle cx="989.0" cy="1309.0" fill="#009" r="16" stroke="#009" stroke-width="5" /><circle cx="997.0" cy="1261.0" fill="#009" r="16" stroke="#009" stroke-width="5" /><rect fill="#900" height="48" stroke="#900" stroke-width="5" transform="rotate(90,1445.0,493.0)" width="32" x="1429.0" y="469.0" /><rect fill="#900" height="48" stroke="#900" stroke-width="5" transform="rotate(90,1445.0,557.0)" width="32" x="1429.0" y="533.0" /><rect fill="#900" height="48" stroke="#900" stroke-width="5" transform="rotate(90,1493.0,493.0)" width="32" x="1477.0" y="469.0" /><rect fill="#900" height="48" stroke="#900" stroke-width="5" transform="rotate(135,1589.0,653.0)" width="32" x="1573.0" y="629.0" /><rect fill="#900" height="48" stroke="#900" stroke-width="5" transform="rotate(90,1493.0,549.0)" width="32" x="1477.0" y="525.0" /><rect fill="#900" height="48" stroke="#900" stroke-width="5" transform="rotate(135,1701.0,613.0)" width="32" x="1685.0" y="589.0" /><rect fill="#900" height="48" stroke="#900" stroke-width="5" transform="rotate(45,1061.0,789.0)" width="32" x="1045.0" y="765.0" /><rect fill="#900" height="48" stroke="#900" stroke-width="5" transform="rotate(90,1157.0,453.0)" width="32" x="1141.0" y="429.0" /><rect fill="#900" height="48" stroke="#900" stroke-width="5" transform="rotate(90,1221.0,389.0)" width="32" x="1205.0" y="365.0" /><rect fill="#900" height="48" stroke="#900" stroke-width="5" transform="rotate(90,1085.0,389.0)" width="32" x="1069.0" y="365.0" /><rect fill="#900" height="48" stroke="#900" stroke-width="5" transform="rotate(90,1093.0,517.0)" width="32" x="1077.0" y="493.0" /><rect fill="#900" height="48" stroke="#900" stroke-width="5" transform="rotate(90,1213.0,517.0)" width="32" x="1197.0" y="493.0" /><circle cx="1157.0" cy="365.0" fill="#009" r="16" stroke="#009" stroke-width="5" /><circle cx="1253.0" cy="453.0" fill="#090" r="16" stroke="#090" stroke-width="5" /><circle cx="1069.0" cy="453.0" fill="#009" r="16" stroke="#009" stroke-width="5" /><circle cx="1261.0" cy="557.0" fill="#009" r="16" stroke="#009" stroke-width="5" /><circle cx="1213.0" cy="557.0" fill="#009" r="16" stroke="#009" stroke-width="5" /><circle cx="1165.0" cy="557.0" fill="#009" r="16" stroke="#009" stroke-width="5" /><rect fill="#090" height="24" stroke="#090" stroke-width="5" transform="rotate(90,1181.0,773.0)" width="24" x="1169.0" y="761.0" /><rect fill="#090" height="24" stroke="#090" stroke-width="5" transform="rotate(90,1741.0,557.0)" width="24" x="1729.0" y="545.0" /><rect fill="#090" height="24" stroke="#090" stroke-width="5" transform="rotate(90,1637.0,485.0)" width="24" x="1625.0" y="473.0" /><rect fill="#900" height="48" stroke="#900" stroke-width="5" transform="rotate(180,1605.0,1109.0)" width="32" x="1589.0" y="1085.0" /><rect fill="#900" height="48" stroke="#900" stroke-width="5" transform="rotate(135,1589.0,853.0)" width="32" x="1573.0" y="829.0" /><rect fill="#900" height="48" stroke="#900" stroke-width="5" transform="rotate(135,1877.0,949.0)" width="32" x="1861.0" y="925.0" /><rect fill="#900" height="48" stroke="#900" stroke-width="5" transform="rotate(135,1853.0,853.0)" width="32" x="1837.0" y="829.0" /><rect fill="#900" height="48" stroke="#900" stroke-width="5" transform="rotate(135,1821.0,709.0)" width="32" x="1805.0" y="685.0" /><rect fill="#900" height="48" stroke="#900" stroke-width="5" transform="rotate(90,1829.0,981.0)" width="32" x="1813.0" y="957.0" /><rect fill="#900" height="48" stroke="#900" stroke-width="5" transform="rotate(270,1821.0,797.0)" width="32" x="1805.0" y="773.0" /><rect fill="#900" height="48" stroke="#900" stroke-width="5" transform="rotate(90,1845.0,517.0)" width="32" x="1829.0" y="493.0" /><rect fill="#900" height="48" stroke="#900" stroke-width="5" transform="rotate(90,1789.0,581.0)" width="32" x="1773.0" y="557.0" /><rect fill="#900" height="48" stroke="#900" stroke-width="5" transform="rotate(270,1389.0,485.0)" width="32" x="1373.0" y="461.0" /><ellipse cx="1397.0" cy="437.0" fill="#900" rx="12" ry="24" stroke="#900" stroke-width="5" /><ellipse cx="1357.0" cy="421.0" fill="#900" rx="12" ry="24" stroke="#900" stroke-width="5" /><rect fill="#900" height="48" stroke="#900" stroke-width="5" transform="rotate(0,1309.0,461.0)" width="32" x="1293.0" y="437.0" /><rect fill="#900" height="48" stroke="#900" stroke-width="5" transform="rotate(0,1429.0,365.0)" width="32" x="1413.0" y="341.0" /><rect fill="#900" height="48" stroke="#900" stroke-width="5" transform="rotate(0,1565.0,421.0)" width="32" x="1549.0" y="397.0" /><rect fill="#900" height="48" stroke="#900" stroke-width="5" transform="rotate(0,1749.0,373.0)" width="32" x="1733.0" y="349.0" /><rect fill="#090" height="24" stroke="#090" stroke-width="5" transform="rotate(0,1189.0,645.0)" width="24" x="1177.0" y="633.0" /><rect fill="#900" height="48" stroke="#900" stroke-width="5" transform="rotate(0,1253.0,685.0)" width="32" x="1237.0" y="661.0" /><rect fill="#900" height="48" stroke="#900" stroke-width="5" transform="rotate(0,1293.0,653.0)" width="32" x="1277.0" y="629.0" /><rect fill="#900" height="48" stroke="#900" stroke-width="5" transform="rotate(0,1253.0,613.0)" width="32" x="1237.0" y="589.0" /><rect fill="#090" height="24" stroke="#090" stroke-width="5" transform="rotate(0,1357.0,581.0)" width="24" x="1345.0" y="569.0" /><rect fill="#090" height="24" stroke="#090" stroke-width="5" transform="rotate(0,1445.0,413.0)" width="24" x="1433.0" y="401.0" /><rect fill="#090" height="24" stroke="#090" stroke-width="5" transform="rotate(0,1605.0,1797.0)" width="24" x="1593.0" y="1785.0" /><rect fill="#090" height="24" stroke="#090" stroke-width="5" transform="rotate(0,1317.0,61.0)" width="24" x="1305.0" y="49.0" /><rect fill="#090" height="24" stroke="#090" stroke-width="5" transform="rotate(180,941.0,1997.0)" width="24" x="929.0" y="1985.0" /><circle cx="1405.0" cy="1077.0" fill="#009" r="16" stroke="#009" stroke-width="5" /><circle cx="1765.0" cy="1005.0" fill="#009" r="16" stroke="#009" stroke-width="5" /><circle cx="1765.0" cy="829.0" fill="#009" r="16" stroke="#009" stroke-width="5" /><rect fill="#090" height="24" stroke="#090" stroke-width="5" transform="rotate(315,1485.0,1045.0)" width="24" x="1473.0" y="1033.0" /><rect fill="#900" height="48" stroke="#900" stroke-width="5" transform="rotate(315,1549.0,997.0)" width="32" x="1533.0" y="973.0" /><rect fill="#900" height="48" stroke="#900" stroke-width="5" transform="rotate(315,1589.0,1037.0)" width="32" x="1573.0" y="1013.0" /><rect fill="#900" height="48" stroke="#900" stroke-width="5" transform="rotate(315,1589.0,997.0)" width="32" x="1573.0" y="973.0" /><rect fill="#900" height="48" stroke="#900" stroke-width="5" transform="rotate(315,1629.0,933.0)" width="32" x="1613.0" y="909.0" /><rect fill="#900" height="48" stroke="#900" stroke-width="5" transform="rotate(315,1685.0,1013.0)" width="32" x="1669.0" y="989.0" /><rect fill="#900" height="48" stroke="#900" stroke-width="5" transform="rotate(315,1541.0,1045.0)" width="32" x="1525.0" y="1021.0" /><circle cx="1317.0" cy="357.0" fill="#090" r="16" stroke="#090" stroke-width="5" /><circle cx="1701.0" cy="941.0" fill="#090" r="16" stroke="#090" stroke-width="5" /><rect fill="#900" height="48" stroke="#900" stroke-width="5" transform="rotate(315,917.0,1637.0)" width="32" x="901.0" y="1613.0" /><rect fill="#900" height="48" stroke="#900" stroke-width="5" transform="rotate(270,933.0,1773.0)" width="32" x="917.0" y="1749.0" /><rect fill="#900" height="48" stroke="#900" stroke-width="5" transform="rotate(0,989.0,1829.0)" width="32" x="973.0" y="1805.0" /><rect fill="#900" height="48" stroke="#900" stroke-width="5" transform="rotate(180,877.0,1829.0)" width="32" x="861.0" y="1805.0" /><rect fill="#900" height="48" stroke="#900" stroke-width="5" transform="rotate(90,933.0,1893.0)" width="32" x="917.0" y="1869.0" /><circle cx="933.0" cy="1773.0" fill="#900" r="16" stroke="#900" stroke-width="5" /><rect fill="#090" height="24" stroke="#090" stroke-width="5" transform="rotate(90,989.0,1829.0)" width="24" x="977.0" y="1817.0" /><circle cx="933.0" cy="1893.0" fill="#009" r="16" stroke="#009" stroke-width="5" /><rect fill="#900" height="48" stroke="#900" stroke-width="5" transform="rotate(90,805.0,1877.0)" width="32" x="789.0" y="1853.0" /><rect fill="#900" height="48" stroke="#900" stroke-width="5" transform="rotate(270,869.0,2093.0)" width="32" x="853.0" y="2069.0" /><rect fill="#900" height="48" stroke="#900" stroke-width="5" transform="rotate(270,821.0,2013.0)" width="32" x="805.0" y="1989.0" /><rect fill="#900" height="48" stroke="#900" stroke-width="5" transform="rotate(225,1021.0,2093.0)" width="32" x="1005.0" y="2069.0" /><rect fill="#900" height="48" stroke="#900" stroke-width="5" transform="rotate(225,1213.0,1901.0)" width="32" x="1197.0" y="1877.0" /><rect fill="#900" height="48" stroke="#900" stroke-width="5" transform="rotate(225,1093.0,2069.0)" width="32" x="1077.0" y="2045.0" /><rect fill="#900" height="48" stroke="#900" stroke-width="5" transform="rotate(225,1189.0,1981.0)" width="32" x="1173.0" y="1957.0" /><rect fill="#900" height="48" stroke="#900" stroke-width="5" transform="rotate(225,1141.0,2125.0)" width="32" x="1125.0" y="2101.0" /><rect fill="#900" height="48" stroke="#900" stroke-width="5" transform="rotate(225,1229.0,2029.0)" width="32" x="1213.0" y="2005.0" /><rect fill="#090" height="24" stroke="#090" stroke-width="5" transform="rotate(225,1181.0,2077.0)" width="24" x="1169.0" y="2065.0" /><rect fill="#090" height="24" stroke="#090" stroke-width="5" transform="rotate(225,653.0,1893.0)" width="24" x="641.0" y="1881.0" /><rect fill="#090" height="24" stroke="#090" stroke-width="5" transform="rotate(225,1221.0,1749.0)" width="24" x="1209.0" y="1737.0" /><rect fill="#090" height="24" stroke="#090" stroke-width="5" transform="rotate(225,1061.0,1653.0)" width="24" x="1049.0" y="1641.0" /><rect fill="#090" height="24" stroke="#090" stroke-width="5" transform="rotate(225,1133.0,1821.0)" width="24" x="1121.0" y="1809.0" /><circle cx="1181.0" cy="1501.0" fill="#009" r="16" stroke="#009" stroke-width="5" /><circle cx="1173.0" cy="1445.0" fill="#009" r="16" stroke="#009" stroke-width="5" /><circle cx="965.0" cy="1037.0" fill="#090" r="16" stroke="#090" stroke-width="5" /><rect fill="#090" height="24" stroke="#090" stroke-width="5" transform="rotate(225,925.0,1029.0)" width="24" x="913.0" y="1017.0" /><rect fill="#090" height="24" stroke="#090" stroke-width="5" transform="rotate(225,749.0,533.0)" width="24" x="737.0" y="521.0" /><rect fill="#090" height="24" stroke="#090" stroke-width="5" transform="rotate(225,885.0,469.0)" width="24" x="873.0" y="457.0" /><rect fill="#090" height="24" stroke="#090" stroke-width="5" transform="rotate(225,909.0,661.0)" width="24" x="897.0" y="649.0" /><rect fill="#090" height="24" stroke="#090" stroke-width="5" transform="rotate(225,957.0,549.0)" width="24" x="945.0" y="537.0" /><rect fill="#090" height="24" stroke="#090" stroke-width="5" transform="rotate(225,909.0,357.0)" width="24" x="897.0" y="345.0" /><rect fill="#090" height="24" stroke="#090" stroke-width="5" transform="rotate(225,797.0,477.0)" width="24" x="785.0" y="465.0" /><rect fill="#090" height="24" stroke="#090" stroke-width="5" transform="rotate(225,965.0,453.0)" width="24" x="953.0" y="441.0" /><rect fill="#090" height="24" stroke="#090" stroke-width="5" transform="rotate(225,1349.0,189.0)" width="24" x="1337.0" y="177.0" /><rect fill="#090" height="24" stroke="#090" stroke-width="5" transform="rotate(225,1189.0,77.0)" width="24" x="1177.0" y="65.0" /><rect fill="#090" height="24" stroke="#090" stroke-width="5" transform="rotate(225,1797.0,189.0)" width="24" x="1785.0" y="177.0" /><rect fill="#090" height="24" stroke="#090" stroke-width="5" transform="rotate(225,1861.0,293.0)" width="24" x="1849.0" y="281.0" /><rect fill="#090" height="24" stroke="#090" stroke-width="5" transform="rotate(225,397.0,1861.0)" width="24" x="385.0" y="1849.0" /><rect fill="#090" height="24" stroke="#090" stroke-width="5" transform="rotate(225,413.0,1501.0)" width="24" x="401.0" y="1489.0" /><rect fill="#090" height="24" stroke="#090" stroke-width="5" transform="rotate(225,645.0,1381.0)" width="24" x="633.0" y="1369.0" /><rect fill="#090" height="24" stroke="#090" stroke-width="5" transform="rotate(225,637.0,1061.0)" width="24" x="625.0" y="1049.0" /><rect fill="#090" height="24" stroke="#090" stroke-width="5" transform="rotate(225,1893.0,1093.0)" width="24" x="1881.0" y="1081.0" /><rect fill="#090" height="24" stroke="#090" stroke-width="5" transform="rotate(225,1893.0,349.0)" width="24" x="1881.0" y="337.0" /><rect fill="#090" height="24" stroke="#090" stroke-width="5" transform="rotate(225,1437.0,693.0)" width="24" x="1425.0" y="681.0" /><rect fill="#090" height="24" stroke="#090" stroke-width="5" transform="rotate(0,1389.0,685.0)" width="24" x="1377.0" y="673.0" /><rect fill="#090" height="24" stroke="#090" stroke-width="5" transform="rotate(0,389.0,2069.0)" width="24" x="377.0" y="2057.0" /><rect fill="#090" height="24" stroke="#090" stroke-width="5" transform="rotate(225,1901.0,1173.0)" width="24" x="1889.0" y="1161.0" /><rect fill="#090" height="24" stroke="#090" stroke-width="5" transform="rotate(225,573.0,2677.0)" width="24" x="561.0" y="2665.0" /><rect fill="#090" height="24" stroke="#090" stroke-width="5" transform="rotate(225,333.0,2485.0)" width="24" x="321.0" y="2473.0" /><rect fill="#090" height="24" stroke="#090" stroke-width="5" transform="rotate(225,77.0,2277.0)" width="24" x="65.0" y="2265.0" /><rect fill="#090" height="24" stroke="#090" stroke-width="5" transform="rotate(225,197.0,2381.0)" width="24" x="185.0" y="2369.0" /><rect fill="#090" height="24" stroke="#090" stroke-width="5" transform="rotate(225,445.0,2589.0)" width="24" x="433.0" y="2577.0" /><rect fill="#900" height="48" stroke="#900" stroke-width="5" transform="rotate(315,733.0,2469.0)" width="32" x="717.0" y="2445.0" /><rect fill="#900" height="48" stroke="#900" stroke-width="5" transform="rotate(315,661.0,2453.0)" width="32" x="645.0" y="2429.0" /><rect fill="#900" height="48" stroke="#900" stroke-width="5" transform="rotate(315,685.0,2533.0)" width="32" x="669.0" y="2509.0" /><rect fill="#900" height="48" stroke="#900" stroke-width="5" transform="rotate(45,173.0,2269.0)" width="32" x="157.0" y="2245.0" /><rect fill="#900" height="48" stroke="#900" stroke-width="5" transform="rotate(45,253.0,2237.0)" width="32" x="237.0" y="2213.0" /><rect fill="#900" height="48" stroke="#900" stroke-width="5" transform="rotate(45,261.0,2309.0)" width="32" x="245.0" y="2285.0" /><rect fill="#900" height="48" stroke="#900" stroke-width="5" transform="rotate(45,325.0,2261.0)" width="32" x="309.0" y="2237.0" /><rect fill="#900" height="48" stroke="#900" stroke-width="5" transform="rotate(135,237.0,2141.0)" width="32" x="221.0" y="2117.0" /><rect fill="#900" height="48" stroke="#900" stroke-width="5" transform="rotate(135,165.0,2069.0)" width="32" x="149.0" y="2045.0" /><rect fill="#900" height="48" stroke="#900" stroke-width="5" transform="rotate(45,597.0,949.0)" width="32" x="581.0" y="925.0" /><rect fill="#900" height="48" stroke="#900" stroke-width="5" transform="rotate(180,925.0,1029.0)" width="32" x="909.0" y="1005.0" /><rect fill="#900" height="48" stroke="#900" stroke-width="5" transform="rotate(45,469.0,885.0)" width="32" x="453.0" y="861.0" /><rect fill="#900" height="48" stroke="#900" stroke-width="5" transform="rotate(90,965.0,109.0)" width="32" x="949.0" y="85.0" /><rect fill="#900" height="48" stroke="#900" stroke-width="5" transform="rotate(180,1061.0,293.0)" width="32" x="1045.0" y="269.0" /><rect fill="#900" height="48" stroke="#900" stroke-width="5" transform="rotate(180,1109.0,293.0)" width="32" x="1093.0" y="269.0" /><rect fill="#900" height="48" stroke="#900" stroke-width="5" transform="rotate(180,1053.0,245.0)" width="32" x="1037.0" y="221.0" /><rect fill="#900" height="48" stroke="#900" stroke-width="5" transform="rotate(180,1045.0,189.0)" width="32" x="1029.0" y="165.0" /><rect fill="#900" height="48" stroke="#900" stroke-width="5" transform="rotate(180,1069.0,149.0)" width="32" x="1053.0" y="125.0" /><rect fill="#900" height="48" stroke="#900" stroke-width="5" transform="rotate(180,1125.0,229.0)" width="32" x="1109.0" y="205.0" /><rect fill="#900" height="48" stroke="#900" stroke-width="5" transform="rotate(180,1189.0,285.0)" width="32" x="1173.0" y="261.0" /><rect fill="#090" height="24" stroke="#090" stroke-width="5" transform="rotate(180,1405.0,109.0)" width="24" x="1393.0" y="97.0" /><rect fill="#090" height="24" stroke="#090" stroke-width="5" transform="rotate(180,1261.0,37.0)" width="24" x="1249.0" y="25.0" /><rect fill="#900" height="48" stroke="#900" stroke-width="5" transform="rotate(180,1797.0,261.0)" width="32" x="1781.0" y="237.0" /><rect fill="#900" height="48" stroke="#900" stroke-width="5" transform="rotate(180,1477.0,285.0)" width="32" x="1461.0" y="261.0" /><rect fill="#900" height="48" stroke="#900" stroke-width="5" transform="rotate(180,1525.0,221.0)" width="32" x="1509.0" y="197.0" /><rect fill="#900" height="48" stroke="#900" stroke-width="5" transform="rotate(180,1597.0,157.0)" width="32" x="1581.0" y="133.0" /><rect fill="#900" height="48" stroke="#900" stroke-width="5" transform="rotate(180,1653.0,109.0)" width="32" x="1637.0" y="85.0" /><rect fill="#900" height="48" stroke="#900" stroke-width="5" transform="rotate(180,1717.0,165.0)" width="32" x="1701.0" y="141.0" /><rect fill="#900" height="48" stroke="#900" stroke-width="5" transform="rotate(180,1685.0,237.0)" width="32" x="1669.0" y="213.0" /><rect fill="#900" height="48" stroke="#900" stroke-width="5" transform="rotate(180,1613.0,293.0)" width="32" x="1597.0" y="269.0" /><circle cx="1725.0" cy="293.0" fill="#009" r="16" stroke="#009" stroke-width="5" /><circle cx="1221.0" cy="2125.0" fill="#900" r="16" stroke="#900" stroke-width="5" /><rect fill="#090" height="24" stroke="#090" stroke-width="5" transform="rotate(180,269.0,1909.0)" width="24" x="257.0" y="1897.0" /><rect fill="#090" height="24" stroke="#090" stroke-width="5" transform="rotate(180,365.0,1813.0)" width="24" x="353.0" y="1801.0" /><rect fill="#090" height="24" stroke="#090" stroke-width="5" transform="rotate(180,301.0,1773.0)" width="24" x="289.0" y="1761.0" /><rect fill="#090" height="24" stroke="#090" stroke-width="5" transform="rotate(180,373.0,1677.0)" width="24" x="361.0" y="1665.0" /><rect fill="#090" height="24" stroke="#090" stroke-width="5" transform="rotate(180,685.0,1165.0)" width="24" x="673.0" y="1153.0" /><rect fill="#090" height="24" stroke="#090" stroke-width="5" transform="rotate(180,725.0,1061.0)" width="24" x="713.0" y="1049.0" /><rect fill="#090" height="24" stroke="#090" stroke-width="5" transform="rotate(180,501.0,1389.0)" width="24" x="489.0" y="1377.0" /><rect fill="#090" height="24" stroke="#090" stroke-width="5" transform="rotate(180,509.0,1525.0)" width="24" x="497.0" y="1513.0" /><rect fill="#090" height="24" stroke="#090" stroke-width="5" transform="rotate(180,541.0,1453.0)" width="24" x="529.0" y="1441.0" /><rect fill="#090" height="24" stroke="#090" stroke-width="5" transform="rotate(180,773.0,965.0)" width="24" x="761.0" y="953.0" /><rect fill="#090" height="24" stroke="#090" stroke-width="5" transform="rotate(180,605.0,1229.0)" width="24" x="593.0" y="1217.0" /><rect fill="#090" height="24" stroke="#090" stroke-width="5" transform="rotate(180,469.0,1629.0)" width="24" x="457.0" y="1617.0" /><rect fill="#090" height="24" stroke="#090" stroke-width="5" transform="rotate(180,133.0,2157.0)" width="24" x="121.0" y="2145.0" /><rect fill="#090" height="24" stroke="#090" stroke-width="5" transform="rotate(180,309.0,2005.0)" width="24" x="297.0" y="1993.0" /><rect fill="#090" height="24" stroke="#090" stroke-width="5" transform="rotate(180,813.0,701.0)" width="24" x="801.0" y="689.0" /><circle cx="1757.0" cy="909.0" fill="#009" r="16" stroke="#009" stroke-width="5" /><rect fill="#090" height="24" stroke="#090" stroke-width="5" transform="rotate(180,1173.0,693.0)" width="24" x="1161.0" y="681.0" /><rect fill="#090" height="24" stroke="#090" stroke-width="5" transform="rotate(180,1173.0,597.0)" width="24" x="1161.0" y="585.0" /><circle cx="965.0" cy="1981.0" fill="#090" r="16" stroke="#090" stroke-width="5" /><circle cx="789.0" cy="2381.0" fill="#900" r="16" stroke="#900" stroke-width="5" /><circle cx="1269.0" cy="149.0" fill="#900" r="16" stroke="#900" stroke-width="5" /><circle cx="957.0" cy="1013.0" fill="#900" r="16" stroke="#900" stroke-width="5" /><circle cx="885.0" cy="1085.0" fill="#900" r="16" stroke="#900" stroke-width="5" /><circle cx="1685.0" cy="1221.0" fill="#900" r="16" stroke="#900" stroke-width="5" /><circle cx="517.0" cy="2637.0" fill="#900" r="16" stroke="#900" stroke-width="5" /><rect fill="#090" height="24" stroke="#090" stroke-width="5" transform="rotate(180,605.0,2621.0)" width="24" x="593.0" y="2609.0" /><rect fill="#090" height="24" stroke="#090" stroke-width="5" transform="rotate(0,1357.0,1253.0)" width="24" x="1345.0" y="1241.0" /><rect fill="#090" height="24" stroke="#090" stroke-width="5" transform="rotate(0,437.0,789.0)" width="24" x="425.0" y="777.0" /><rect fill="#090" height="24" stroke="#090" stroke-width="5" transform="rotate(225,1549.0,285.0)" width="24" x="1537.0" y="273.0" /><rect fill="#090" height="24" stroke="#090" stroke-width="5" transform="rotate(225,973.0,1405.0)" width="24" x="961.0" y="1393.0" /><circle cx="1629.0" cy="981.0" fill="#009" r="16" stroke="#009" stroke-width="5" /></svg>