<?xml version="1.0" encoding="utf-8" ?>
<svg baseProfile="tiny" height="923" version="1.2" viewBox="0 0 898 810" width="1024" xmlns="http://www.w3.org/2000/svg" xmlns:ev="http://www.w3.org/2001/xml-events" xmlns:xlink="http://www.w3.org/1999/xlink"><defs /><line stroke="#333" stroke-width="10" x1="285.0" x2="333.0" y1="501.0" y2="565.0" /><line stroke="#999" stroke-width="3" x1="461.0" x2="525.0" y1="629.0" y2="629.0" /><line stroke="#333" stroke-width="10" x1="653.0" x2="589.0" y1="245.0" y2="197.0" /><line stroke="#333" stroke-width="10" x1="461.0" x2="397.0" y1="181.0" y2="197.0" /><line stroke="#333" stroke-width="10" x1="701.0" x2="717.0" y1="501.0" y2="437.0" /><line stroke="#333" stroke-width="10" x1="525.0" x2="589.0" y1="629.0" y2="613.0" /><line stroke="#999" stroke-width="3" x1="717.0" x2="717.0" y1="437.0" y2="373.0" /><line stroke="#333" stroke-width="10" x1="717.0" x2="701.0" y1="373.0" y2="309.0" /><line stroke="#333" stroke-width="10" x1="701.0" x2="653.0" y1="309.0" y2="245.0" /><line stroke="#333" stroke-width="10" x1="589.0" x2="525.0" y1="197.0" y2="181.0" /><line stroke="#999" stroke-width="3" x1="525.0" x2="461.0" y1="181.0" y2="181.0" /><line stroke="#333" stroke-width="10" x1="269.0" x2="285.0" y1="437.0" y2="501.0" /><line stroke="#999" stroke-width="3" x1="269.0" x2="269.0" y1="373.0" y2="437.0" /><line stroke="#333" stroke-width="10" x1="285.0" x2="269.0" y1="309.0" y2="373.0" /><line stroke="#333" stroke-width="10" x1="333.0" x2="285.0" y1="245.0" y2="309.0" /><line stroke="#333" stroke-width="10" x1="397.0" x2="333.0" y1="197.0" y2="245.0" /><line stroke="#999" stroke-width="3" x1="333.0" x2="397.0" y1="565.0" y2="613.0" /><line stroke="#333" stroke-width="10" x1="397.0" x2="461.0" y1="613.0" y2="629.0" /><line stroke="#333" stroke-width="10" x1="589.0" x2="653.0" y1="613.0" y2="565.0" /><line stroke="#333" stroke-width="10" x1="653.0" x2="701.0" y1="565.0" y2="501.0" /><line stroke="#333" stroke-width="10" x1="109.0" x2="109.0" y1="373.0" y2="389.0" /><line stroke="#333" stroke-width="10" x1="109.0" x2="269.0" y1="437.0" y2="437.0" /><line stroke="#999" stroke-width="3" x1="101.0" x2="101.0" y1="389.0" y2="421.0" /><line stroke="#333" stroke-width="10" x1="269.0" x2="109.0" y1="373.0" y2="373.0" /><line stroke="#333" stroke-width="10" x1="461.0" x2="461.0" y1="629.0" y2="789.0" /><line stroke="#333" stroke-width="10" x1="461.0" x2="477.0" y1="789.0" y2="789.0" /><line stroke="#333" stroke-width="10" x1="525.0" x2="525.0" y1="789.0" y2="629.0" /><line stroke="#333" stroke-width="10" x1="101.0" x2="109.0" y1="421.0" y2="421.0" /><line stroke="#999" stroke-width="3" x1="109.0" x2="109.0" y1="421.0" y2="389.0" /><line stroke="#333" stroke-width="10" x1="717.0" x2="877.0" y1="437.0" y2="437.0" /><line stroke="#333" stroke-width="10" x1="877.0" x2="877.0" y1="437.0" y2="421.0" /><line stroke="#333" stroke-width="10" x1="877.0" x2="717.0" y1="373.0" y2="373.0" /><line stroke="#333" stroke-width="10" x1="461.0" x2="461.0" y1="21.0" y2="181.0" /><line stroke="#333" stroke-width="10" x1="109.0" x2="101.0" y1="389.0" y2="389.0" /><line stroke="#333" stroke-width="10" x1="525.0" x2="525.0" y1="181.0" y2="21.0" /><line stroke="#333" stroke-width="10" x1="525.0" x2="509.0" y1="21.0" y2="21.0" /><line stroke="#333" stroke-width="10" x1="477.0" x2="477.0" y1="789.0" y2="797.0" /><line stroke="#999" stroke-width="3" x1="477.0" x2="509.0" y1="797.0" y2="797.0" /><line stroke="#333" stroke-width="10" x1="509.0" x2="509.0" y1="797.0" y2="789.0" /><line stroke="#999" stroke-width="3" x1="509.0" x2="477.0" y1="789.0" y2="789.0" /><line stroke="#999" stroke-width="3" x1="877.0" x2="877.0" y1="389.0" y2="421.0" /><line stroke="#333" stroke-width="10" x1="877.0" x2="885.0" y1="421.0" y2="421.0" /><line stroke="#999" stroke-width="3" x1="885.0" x2="885.0" y1="421.0" y2="389.0" /><line stroke="#333" stroke-width="10" x1="885.0" x2="877.0" y1="389.0" y2="389.0" /><line stroke="#333" stroke-width="10" x1="477.0" x2="477.0" y1="13.0" y2="21.0" /><line stroke="#999" stroke-width="3" x1="477.0" x2="509.0" y1="21.0" y2="21.0" /><line stroke="#333" stroke-width="10" x1="509.0" x2="509.0" y1="21.0" y2="13.0" /><line stroke="#999" stroke-width="3" x1="509.0" x2="477.0" y1="13.0" y2="13.0" /><line stroke="#0d0" stroke-width="20" x1="93.0" x2="93.0" y1="389.0" y2="421.0" /><line stroke="#333" stroke-width="10" x1="93.0" x2="101.0" y1="421.0" y2="421.0" /><line stroke="#333" stroke-width="10" x1="101.0" x2="93.0" y1="389.0" y2="389.0" /><line stroke="#333" stroke-width="10" x1="477.0" x2="477.0" y1="797.0" y2="805.0" /><line stroke="#0d0" stroke-width="20" x1="477.0" x2="509.0" y1="805.0" y2="805.0" /><line stroke="#333" stroke-width="10" x1="509.0" x2="509.0" y1="805.0" y2="797.0" /><line stroke="#333" stroke-width="10" x1="885.0" x2="893.0" y1="421.0" y2="421.0" /><line stroke="#0d0" stroke-width="20" x1="893.0" x2="893.0" y1="421.0" y2="389.0" /><line stroke="#333" stroke-width="10" x1="893.0" x2="885.0" y1="389.0" y2="389.0" /><line stroke="#333" stroke-width="10" x1="477.0" x2="477.0" y1="5.0" y2="13.0" /><line stroke="#333" stroke-width="10" x1="509.0" x2="509.0" y1="13.0" y2="5.0" /><line stroke="#0d0" stroke-width="20" x1="509.0" x2="477.0" y1="5.0" y2="5.0" /><line stroke="#333" stroke-width="10" x1="109.0" x2="109.0" y1="421.0" y2="437.0" /><line stroke="#333" stroke-width="10" x1="509.0" x2="525.0" y1="789.0" y2="789.0" /><line stroke="#333" stroke-width="10" x1="877.0" x2="877.0" y1="389.0" y2="373.0" /><line stroke="#333" stroke-width="10" x1="477.0" x2="461.0" y1="21.0" y2="21.0" /><line stroke="#333" stroke-width="10" x1="205.0" x2="205.0" y1="629.0" y2="645.0" /><line stroke="#333" stroke-width="10" x1="205.0" x2="333.0" y1="693.0" y2="693.0" /><line stroke="#333" stroke-width="10" x1="285.0" x2="205.0" y1="629.0" y2="629.0" /><line stroke="#333" stroke-width="10" x1="333.0" x2="285.0" y1="565.0" y2="629.0" /><line stroke="#333" stroke-width="10" x1="333.0" x2="397.0" y1="693.0" y2="613.0" /><line stroke="#0d0" stroke-width="20" x1="197.0" x2="197.0" y1="645.0" y2="677.0" /><line stroke="#333" stroke-width="10" x1="197.0" x2="205.0" y1="677.0" y2="677.0" /><line stroke="#999" stroke-width="3" x1="205.0" x2="205.0" y1="645.0" y2="677.0" /><line stroke="#333" stroke-width="10" x1="205.0" x2="197.0" y1="645.0" y2="645.0" /><line stroke="#333" stroke-width="10" x1="205.0" x2="205.0" y1="677.0" y2="693.0" /><ellipse cx="493.0" cy="757.0" fill="#009" rx="12" ry="24" stroke="#009" stroke-width="5" /><circle cx="237.0" cy="405.0" fill="#900" r="16" stroke="#900" stroke-width="5" /><circle cx="493.0" cy="661.0" fill="#900" r="16" stroke="#900" stroke-width="5" /><circle cx="749.0" cy="405.0" fill="#900" r="16" stroke="#900" stroke-width="5" /><circle cx="493.0" cy="149.0" fill="#900" r="16" stroke="#900" stroke-width="5" /><ellipse cx="845.0" cy="405.0" fill="#009" rx="12" ry="24" stroke="#009" stroke-width="5" /><ellipse cx="493.0" cy="53.0" fill="#009" rx="12" ry="24" stroke="#009" stroke-width="5" /><ellipse cx="141.0" cy="405.0" fill="#009" rx="12" ry="24" stroke="#009" stroke-width="5" /><rect fill="#090" height="24" stroke="#090" stroke-width="5" transform="rotate(270,493.0,709.0)" width="24" x="481.0" y="697.0" /><rect fill="#090" height="24" stroke="#090" stroke-width="5" transform="rotate(180,797.0,405.0)" width="24" x="785.0" y="393.0" /><rect fill="#090" height="24" stroke="#090" stroke-width="5" transform="rotate(90,493.0,101.0)" width="24" x="481.0" y="89.0" /><rect fill="#090" height="24" stroke="#090" stroke-width="5" transform="rotate(0,189.0,405.0)" width="24" x="177.0" y="393.0" /><rect fill="#900" height="48" stroke="#900" stroke-width="5" transform="rotate(270,493.0,341.0)" width="32" x="477.0" y="317.0" /><rect fill="#900" height="48" stroke="#900" stroke-width="5" transform="rotate(180,429.0,405.0)" width="32" x="413.0" y="381.0" /><rect fill="#900" height="48" stroke="#900" stroke-width="5" transform="rotate(0,557.0,405.0)" width="32" x="541.0" y="381.0" /><rect fill="#900" height="48" stroke="#900" stroke-width="5" transform="rotate(90,493.0,469.0)" width="32" x="477.0" y="445.0" /><circle cx="493.0" cy="405.0" fill="#009" r="16" stroke="#009" stroke-width="5" /><rect fill="#090" height="24" stroke="#090" stroke-width="5" transform="rotate(0,333.0,581.0)" width="24" x="321.0" y="569.0" /><rect fill="#090" height="24" stroke="#090" stroke-width="5" transform="rotate(45,357.0,597.0)" width="24" x="345.0" y="585.0" /><rect fill="#090" height="24" stroke="#090" stroke-width="5" transform="rotate(45,381.0,613.0)" width="24" x="369.0" y="601.0" /></svg>