<?xml version="1.0" encoding="utf-8" ?>
<svg baseProfile="tiny" height="1024" version="1.2" viewBox="0 0 458 522" width="898" xmlns="http://www.w3.org/2000/svg" xmlns:ev="http://www.w3.org/2001/xml-events" xmlns:xlink="http://www.w3.org/1999/xlink"><defs /><line stroke="#333" stroke-width="10" x1="5.0" x2="69.0" y1="133.0" y2="133.0" /><line stroke="#999" stroke-width="3" x1="69.0" x2="69.0" y1="133.0" y2="69.0" /><line stroke="#333" stroke-width="10" x1="69.0" x2="5.0" y1="69.0" y2="69.0" /><line stroke="#333" stroke-width="10" x1="5.0" x2="5.0" y1="69.0" y2="133.0" /><line stroke="#999" stroke-width="3" x1="69.0" x2="133.0" y1="133.0" y2="133.0" /><line stroke="#333" stroke-width="10" x1="133.0" x2="133.0" y1="133.0" y2="69.0" /><line stroke="#666" stroke-width="20" x1="133.0" x2="69.0" y1="69.0" y2="69.0" /><line stroke="#333" stroke-width="10" x1="197.0" x2="133.0" y1="133.0" y2="133.0" /><line stroke="#333" stroke-width="10" x1="197.0" x2="197.0" y1="197.0" y2="133.0" /><line stroke="#333" stroke-width="10" x1="69.0" x2="69.0" y1="133.0" y2="197.0" /><line stroke="#333" stroke-width="10" x1="69.0" x2="133.0" y1="197.0" y2="197.0" /><line stroke="#333" stroke-width="10" x1="261.0" x2="197.0" y1="197.0" y2="197.0" /><line stroke="#999" stroke-width="3" x1="133.0" x2="197.0" y1="197.0" y2="197.0" /><line stroke="#333" stroke-width="10" x1="261.0" x2="261.0" y1="261.0" y2="197.0" /><line stroke="#333" stroke-width="10" x1="133.0" x2="133.0" y1="197.0" y2="261.0" /><line stroke="#333" stroke-width="10" x1="133.0" x2="197.0" y1="261.0" y2="261.0" /><line stroke="#333" stroke-width="10" x1="325.0" x2="261.0" y1="261.0" y2="261.0" /><line stroke="#999" stroke-width="3" x1="197.0" x2="261.0" y1="261.0" y2="261.0" /><line stroke="#333" stroke-width="10" x1="325.0" x2="325.0" y1="325.0" y2="261.0" /><line stroke="#333" stroke-width="10" x1="197.0" x2="197.0" y1="261.0" y2="325.0" /><line stroke="#333" stroke-width="10" x1="197.0" x2="261.0" y1="325.0" y2="325.0" /><line stroke="#333" stroke-width="10" x1="389.0" x2="325.0" y1="325.0" y2="325.0" /><line stroke="#999" stroke-width="3" x1="261.0" x2="325.0" y1="325.0" y2="325.0" /><line stroke="#333" stroke-width="10" x1="389.0" x2="389.0" y1="389.0" y2="325.0" /><line stroke="#333" stroke-width="10" x1="261.0" x2="261.0" y1="325.0" y2="389.0" /><line stroke="#333" stroke-width="10" x1="261.0" x2="325.0" y1="389.0" y2="389.0" /><line stroke="#666" stroke-width="20" x1="325.0" x2="389.0" y1="453.0" y2="453.0" /><line stroke="#999" stroke-width="3" x1="325.0" x2="389.0" y1="389.0" y2="389.0" /><line stroke="#333" stroke-width="10" x1="325.0" x2="325.0" y1="389.0" y2="453.0" /><line stroke="#333" stroke-width="10" x1="389.0" x2="389.0" y1="453.0" y2="389.0" /><line stroke="#333" stroke-width="10" x1="325.0" x2="389.0" y1="517.0" y2="517.0" /><line stroke="#0d0" stroke-width="20" x1="389.0" x2="389.0" y1="517.0" y2="453.0" /><line stroke="#333" stroke-width="10" x1="325.0" x2="325.0" y1="453.0" y2="517.0" /><line stroke="#333" stroke-width="10" x1="389.0" x2="453.0" y1="517.0" y2="517.0" /><line stroke="#333" stroke-width="10" x1="453.0" x2="453.0" y1="517.0" y2="453.0" /><line stroke="#333" stroke-width="10" x1="453.0" x2="389.0" y1="453.0" y2="453.0" /><line stroke="#333" stroke-width="10" x1="133.0" x2="133.0" y1="69.0" y2="5.0" /><line stroke="#0d0" stroke-width="20" x1="133.0" x2="69.0" y1="5.0" y2="5.0" /><line stroke="#333" stroke-width="10" x1="69.0" x2="69.0" y1="5.0" y2="69.0" /><ellipse cx="37.0" cy="101.0" fill="#009" rx="12" ry="24" stroke="#009" stroke-width="5" /><rect fill="#900" height="48" stroke="#900" stroke-width="5" transform="rotate(45,165.0,229.0)" width="32" x="149.0" y="205.0" /><rect fill="#900" height="48" stroke="#900" stroke-width="5" transform="rotate(45,229.0,229.0)" width="32" x="213.0" y="205.0" /><rect fill="#900" height="48" stroke="#900" stroke-width="5" transform="rotate(45,229.0,293.0)" width="32" x="213.0" y="269.0" /></svg>