<?xml version="1.0" encoding="utf-8" ?>
<svg baseProfile="tiny" height="197" version="1.2" viewBox="0 0 5042 970" width="1024" xmlns="http://www.w3.org/2000/svg" xmlns:ev="http://www.w3.org/2001/xml-events" xmlns:xlink="http://www.w3.org/1999/xlink"><defs /><line stroke="#999" stroke-width="3" x1="4493.0" x2="4493.0" y1="453.0" y2="517.0" /><line stroke="#333" stroke-width="10" x1="4525.0" x2="5005.0" y1="725.0" y2="725.0" /><line stroke="#333" stroke-width="10" x1="5005.0" x2="5005.0" y1="213.0" y2="181.0" /><line stroke="#333" stroke-width="10" x1="5037.0" x2="5037.0" y1="693.0" y2="213.0" /><line stroke="#999" stroke-width="3" x1="5005.0" x2="4525.0" y1="213.0" y2="213.0" /><line stroke="#999" stroke-width="3" x1="5005.0" x2="5005.0" y1="693.0" y2="213.0" /><line stroke="#999" stroke-width="3" x1="4525.0" x2="5005.0" y1="693.0" y2="693.0" /><line stroke="#333" stroke-width="10" x1="4525.0" x2="4493.0" y1="213.0" y2="213.0" /><line stroke="#333" stroke-width="10" x1="4525.0" x2="4525.0" y1="181.0" y2="213.0" /><line stroke="#333" stroke-width="10" x1="4493.0" x2="4525.0" y1="693.0" y2="693.0" /><line stroke="#333" stroke-width="10" x1="4525.0" x2="4525.0" y1="693.0" y2="725.0" /><line stroke="#333" stroke-width="10" x1="5005.0" x2="5005.0" y1="725.0" y2="693.0" /><line stroke="#333" stroke-width="10" x1="5005.0" x2="5037.0" y1="693.0" y2="693.0" /><line stroke="#333" stroke-width="10" x1="5037.0" x2="5005.0" y1="213.0" y2="213.0" /><line stroke="#333" stroke-width="10" x1="5005.0" x2="4525.0" y1="181.0" y2="181.0" /><line stroke="#333" stroke-width="10" x1="4493.0" x2="4493.0" y1="213.0" y2="453.0" /><line stroke="#333" stroke-width="10" x1="4493.0" x2="4493.0" y1="517.0" y2="693.0" /><line stroke="#999" stroke-width="3" x1="4525.0" x2="4493.0" y1="517.0" y2="517.0" /><line stroke="#999" stroke-width="3" x1="4525.0" x2="4525.0" y1="517.0" y2="693.0" /><line stroke="#999" stroke-width="3" x1="4493.0" x2="4525.0" y1="453.0" y2="453.0" /><line stroke="#999" stroke-width="3" x1="4525.0" x2="4525.0" y1="453.0" y2="517.0" /><line stroke="#999" stroke-width="3" x1="4525.0" x2="4525.0" y1="213.0" y2="453.0" /><line stroke="#333" stroke-width="10" x1="4381.0" x2="4493.0" y1="517.0" y2="517.0" /><line stroke="#333" stroke-width="10" x1="4493.0" x2="4381.0" y1="453.0" y2="453.0" /><line stroke="#999" stroke-width="3" x1="3229.0" x2="3229.0" y1="261.0" y2="709.0" /><line stroke="#999" stroke-width="3" x1="4069.0" x2="4069.0" y1="261.0" y2="373.0" /><line stroke="#999" stroke-width="3" x1="4381.0" x2="4381.0" y1="517.0" y2="453.0" /><line stroke="#999" stroke-width="3" x1="4069.0" x2="4069.0" y1="597.0" y2="709.0" /><line stroke="#333" stroke-width="10" x1="4381.0" x2="4381.0" y1="709.0" y2="517.0" /><line stroke="#333" stroke-width="10" x1="4381.0" x2="4381.0" y1="453.0" y2="261.0" /><line stroke="#333" stroke-width="10" x1="3773.0" x2="3773.0" y1="373.0" y2="389.0" /><line stroke="#999" stroke-width="3" x1="4125.0" x2="4125.0" y1="389.0" y2="581.0" /><line stroke="#333" stroke-width="10" x1="3773.0" x2="3709.0" y1="597.0" y2="597.0" /><line stroke="#999" stroke-width="3" x1="3373.0" x2="3373.0" y1="525.0" y2="445.0" /><line stroke="#333" stroke-width="10" x1="4141.0" x2="4141.0" y1="581.0" y2="597.0" /><line stroke="#333" stroke-width="10" x1="4141.0" x2="4141.0" y1="373.0" y2="389.0" /><line stroke="#333" stroke-width="10" x1="4669.0" x2="4669.0" y1="549.0" y2="581.0" /><line stroke="#333" stroke-width="10" x1="4013.0" x2="4069.0" y1="373.0" y2="373.0" /><line stroke="#333" stroke-width="10" x1="3901.0" x2="3709.0" y1="261.0" y2="261.0" /><line stroke="#333" stroke-width="10" x1="3485.0" x2="3469.0" y1="597.0" y2="597.0" /><line stroke="#333" stroke-width="10" x1="4125.0" x2="4069.0" y1="261.0" y2="261.0" /><line stroke="#999" stroke-width="3" x1="4125.0" x2="4125.0" y1="261.0" y2="373.0" /><line stroke="#333" stroke-width="10" x1="4069.0" x2="4125.0" y1="373.0" y2="373.0" /><line stroke="#333" stroke-width="10" x1="4125.0" x2="4149.0" y1="709.0" y2="709.0" /><line stroke="#333" stroke-width="10" x1="3901.0" x2="3957.0" y1="373.0" y2="373.0" /><line stroke="#333" stroke-width="10" x1="4069.0" x2="4013.0" y1="261.0" y2="261.0" /><line stroke="#999" stroke-width="3" x1="4013.0" x2="4013.0" y1="261.0" y2="373.0" /><line stroke="#333" stroke-width="10" x1="3957.0" x2="4013.0" y1="373.0" y2="373.0" /><line stroke="#333" stroke-width="10" x1="4013.0" x2="3957.0" y1="261.0" y2="261.0" /><line stroke="#999" stroke-width="3" x1="3957.0" x2="3957.0" y1="261.0" y2="373.0" /><line stroke="#999" stroke-width="3" x1="3485.0" x2="3485.0" y1="373.0" y2="261.0" /><line stroke="#333" stroke-width="10" x1="3957.0" x2="3901.0" y1="261.0" y2="261.0" /><line stroke="#999" stroke-width="3" x1="3901.0" x2="3901.0" y1="261.0" y2="373.0" /><line stroke="#333" stroke-width="10" x1="3541.0" x2="3597.0" y1="373.0" y2="373.0" /><line stroke="#333" stroke-width="10" x1="3541.0" x2="3485.0" y1="261.0" y2="261.0" /><line stroke="#999" stroke-width="3" x1="3541.0" x2="3541.0" y1="373.0" y2="261.0" /><line stroke="#333" stroke-width="10" x1="3485.0" x2="3541.0" y1="373.0" y2="373.0" /><line stroke="#333" stroke-width="10" x1="4381.0" x2="4149.0" y1="261.0" y2="261.0" /><line stroke="#333" stroke-width="10" x1="3597.0" x2="3653.0" y1="373.0" y2="373.0" /><line stroke="#333" stroke-width="10" x1="3597.0" x2="3541.0" y1="261.0" y2="261.0" /><line stroke="#999" stroke-width="3" x1="3597.0" x2="3597.0" y1="373.0" y2="261.0" /><line stroke="#333" stroke-width="10" x1="3653.0" x2="3709.0" y1="373.0" y2="373.0" /><line stroke="#333" stroke-width="10" x1="3653.0" x2="3597.0" y1="261.0" y2="261.0" /><line stroke="#999" stroke-width="3" x1="3653.0" x2="3653.0" y1="373.0" y2="261.0" /><line stroke="#333" stroke-width="10" x1="4125.0" x2="3837.0" y1="389.0" y2="389.0" /><line stroke="#333" stroke-width="10" x1="3709.0" x2="3653.0" y1="261.0" y2="261.0" /><line stroke="#999" stroke-width="3" x1="3709.0" x2="3709.0" y1="373.0" y2="261.0" /><line stroke="#333" stroke-width="10" x1="4125.0" x2="4141.0" y1="373.0" y2="373.0" /><line stroke="#333" stroke-width="10" x1="4141.0" x2="4125.0" y1="389.0" y2="389.0" /><line stroke="#333" stroke-width="10" x1="4125.0" x2="4141.0" y1="581.0" y2="581.0" /><line stroke="#333" stroke-width="10" x1="4141.0" x2="4125.0" y1="597.0" y2="597.0" /><line stroke="#333" stroke-width="10" x1="3469.0" x2="3469.0" y1="597.0" y2="581.0" /><line stroke="#333" stroke-width="10" x1="3469.0" x2="3485.0" y1="373.0" y2="373.0" /><line stroke="#333" stroke-width="10" x1="3469.0" x2="3485.0" y1="581.0" y2="581.0" /><line stroke="#333" stroke-width="10" x1="3469.0" x2="3469.0" y1="389.0" y2="373.0" /><line stroke="#333" stroke-width="10" x1="3485.0" x2="3469.0" y1="389.0" y2="389.0" /><line stroke="#999" stroke-width="3" x1="3773.0" x2="3837.0" y1="373.0" y2="373.0" /><line stroke="#333" stroke-width="10" x1="3837.0" x2="3837.0" y1="389.0" y2="373.0" /><line stroke="#999" stroke-width="3" x1="3837.0" x2="3773.0" y1="389.0" y2="389.0" /><line stroke="#333" stroke-width="10" x1="3773.0" x2="3485.0" y1="389.0" y2="389.0" /><line stroke="#333" stroke-width="10" x1="3709.0" x2="3773.0" y1="373.0" y2="373.0" /><line stroke="#333" stroke-width="10" x1="3837.0" x2="3901.0" y1="373.0" y2="373.0" /><line stroke="#333" stroke-width="10" x1="4125.0" x2="4069.0" y1="597.0" y2="597.0" /><line stroke="#999" stroke-width="3" x1="4125.0" x2="4125.0" y1="597.0" y2="709.0" /><line stroke="#333" stroke-width="10" x1="4069.0" x2="4125.0" y1="709.0" y2="709.0" /><line stroke="#333" stroke-width="10" x1="4013.0" x2="4069.0" y1="709.0" y2="709.0" /><line stroke="#333" stroke-width="10" x1="3957.0" x2="4013.0" y1="709.0" y2="709.0" /><line stroke="#333" stroke-width="10" x1="4069.0" x2="4013.0" y1="597.0" y2="597.0" /><line stroke="#999" stroke-width="3" x1="4013.0" x2="4013.0" y1="597.0" y2="709.0" /><line stroke="#333" stroke-width="10" x1="3901.0" x2="3957.0" y1="709.0" y2="709.0" /><line stroke="#333" stroke-width="10" x1="4013.0" x2="3957.0" y1="597.0" y2="597.0" /><line stroke="#999" stroke-width="3" x1="3957.0" x2="3957.0" y1="597.0" y2="709.0" /><line stroke="#999" stroke-width="3" x1="3485.0" x2="3485.0" y1="709.0" y2="597.0" /><line stroke="#333" stroke-width="10" x1="3957.0" x2="3901.0" y1="597.0" y2="597.0" /><line stroke="#999" stroke-width="3" x1="3901.0" x2="3901.0" y1="597.0" y2="709.0" /><line stroke="#333" stroke-width="10" x1="3597.0" x2="3653.0" y1="709.0" y2="709.0" /><line stroke="#333" stroke-width="10" x1="3541.0" x2="3485.0" y1="597.0" y2="597.0" /><line stroke="#999" stroke-width="3" x1="3541.0" x2="3541.0" y1="709.0" y2="597.0" /><line stroke="#333" stroke-width="10" x1="3485.0" x2="3541.0" y1="709.0" y2="709.0" /><line stroke="#333" stroke-width="10" x1="3485.0" x2="3461.0" y1="261.0" y2="261.0" /><line stroke="#333" stroke-width="10" x1="3541.0" x2="3597.0" y1="709.0" y2="709.0" /><line stroke="#333" stroke-width="10" x1="3597.0" x2="3541.0" y1="597.0" y2="597.0" /><line stroke="#999" stroke-width="3" x1="3597.0" x2="3597.0" y1="709.0" y2="597.0" /><line stroke="#333" stroke-width="10" x1="3709.0" x2="3901.0" y1="709.0" y2="709.0" /><line stroke="#333" stroke-width="10" x1="3653.0" x2="3597.0" y1="597.0" y2="597.0" /><line stroke="#999" stroke-width="3" x1="3653.0" x2="3653.0" y1="709.0" y2="597.0" /><line stroke="#333" stroke-width="10" x1="3653.0" x2="3709.0" y1="709.0" y2="709.0" /><line stroke="#333" stroke-width="10" x1="3709.0" x2="3653.0" y1="597.0" y2="597.0" /><line stroke="#999" stroke-width="3" x1="3709.0" x2="3709.0" y1="709.0" y2="597.0" /><line stroke="#333" stroke-width="10" x1="3773.0" x2="3773.0" y1="581.0" y2="597.0" /><line stroke="#999" stroke-width="3" x1="3773.0" x2="3837.0" y1="581.0" y2="581.0" /><line stroke="#333" stroke-width="10" x1="3837.0" x2="3837.0" y1="597.0" y2="581.0" /><line stroke="#999" stroke-width="3" x1="3837.0" x2="3773.0" y1="597.0" y2="597.0" /><line stroke="#333" stroke-width="10" x1="3901.0" x2="3837.0" y1="597.0" y2="597.0" /><line stroke="#333" stroke-width="10" x1="3485.0" x2="3773.0" y1="581.0" y2="581.0" /><line stroke="#333" stroke-width="10" x1="3837.0" x2="4125.0" y1="581.0" y2="581.0" /><line stroke="#999" stroke-width="3" x1="3373.0" x2="3485.0" y1="445.0" y2="429.0" /><line stroke="#999" stroke-width="3" x1="3405.0" x2="3405.0" y1="501.0" y2="469.0" /><line stroke="#999" stroke-width="3" x1="3485.0" x2="3373.0" y1="541.0" y2="525.0" /><line stroke="#999" stroke-width="3" x1="3485.0" x2="3485.0" y1="541.0" y2="581.0" /><line stroke="#999" stroke-width="3" x1="3485.0" x2="3485.0" y1="389.0" y2="429.0" /><line stroke="#999" stroke-width="3" x1="3405.0" x2="3485.0" y1="469.0" y2="453.0" /><line stroke="#999" stroke-width="3" x1="3485.0" x2="3485.0" y1="517.0" y2="453.0" /><line stroke="#999" stroke-width="3" x1="3485.0" x2="3405.0" y1="517.0" y2="501.0" /><line stroke="#999" stroke-width="3" x1="3485.0" x2="3485.0" y1="541.0" y2="517.0" /><line stroke="#999" stroke-width="3" x1="3485.0" x2="3485.0" y1="453.0" y2="429.0" /><line stroke="#999" stroke-width="3" x1="3789.0" x2="3805.0" y1="453.0" y2="453.0" /><line stroke="#999" stroke-width="3" x1="3805.0" x2="3805.0" y1="453.0" y2="517.0" /><line stroke="#999" stroke-width="3" x1="3805.0" x2="3789.0" y1="517.0" y2="517.0" /><line stroke="#999" stroke-width="3" x1="3789.0" x2="3789.0" y1="517.0" y2="453.0" /><line stroke="#333" stroke-width="10" x1="3229.0" x2="3213.0" y1="261.0" y2="261.0" /><line stroke="#999" stroke-width="3" x1="3213.0" x2="3213.0" y1="709.0" y2="261.0" /><line stroke="#333" stroke-width="10" x1="3213.0" x2="3229.0" y1="709.0" y2="709.0" /><line stroke="#999" stroke-width="3" x1="3437.0" x2="3485.0" y1="541.0" y2="541.0" /><line stroke="#999" stroke-width="3" x1="3437.0" x2="3469.0" y1="389.0" y2="389.0" /><line stroke="#999" stroke-width="3" x1="3469.0" x2="3437.0" y1="581.0" y2="581.0" /><line stroke="#999" stroke-width="3" x1="3485.0" x2="3437.0" y1="429.0" y2="429.0" /><line stroke="#999" stroke-width="3" x1="3413.0" x2="3437.0" y1="549.0" y2="541.0" /><line stroke="#999" stroke-width="3" x1="3413.0" x2="3437.0" y1="397.0" y2="389.0" /><line stroke="#999" stroke-width="3" x1="3413.0" x2="3413.0" y1="573.0" y2="549.0" /><line stroke="#999" stroke-width="3" x1="3437.0" x2="3413.0" y1="581.0" y2="573.0" /><line stroke="#999" stroke-width="3" x1="3437.0" x2="3413.0" y1="429.0" y2="421.0" /><line stroke="#999" stroke-width="3" x1="3413.0" x2="3413.0" y1="421.0" y2="397.0" /><line stroke="#333" stroke-width="10" x1="3213.0" x2="2973.0" y1="261.0" y2="197.0" /><line stroke="#333" stroke-width="10" x1="4669.0" x2="4669.0" y1="325.0" y2="357.0" /><line stroke="#333" stroke-width="10" x1="3229.0" x2="3461.0" y1="709.0" y2="709.0" /><line stroke="#333" stroke-width="10" x1="4637.0" x2="4637.0" y1="581.0" y2="549.0" /><line stroke="#333" stroke-width="10" x1="4637.0" x2="4669.0" y1="325.0" y2="325.0" /><line stroke="#999" stroke-width="3" x1="4861.0" x2="4669.0" y1="325.0" y2="325.0" /><line stroke="#333" stroke-width="10" x1="4669.0" x2="4637.0" y1="357.0" y2="357.0" /><line stroke="#333" stroke-width="10" x1="4861.0" x2="4861.0" y1="581.0" y2="549.0" /><line stroke="#333" stroke-width="10" x1="4637.0" x2="4669.0" y1="549.0" y2="549.0" /><line stroke="#333" stroke-width="10" x1="4861.0" x2="4861.0" y1="357.0" y2="325.0" /><line stroke="#333" stroke-width="10" x1="3461.0" x2="3229.0" y1="261.0" y2="261.0" /><line stroke="#999" stroke-width="3" x1="4637.0" x2="4637.0" y1="357.0" y2="549.0" /><line stroke="#333" stroke-width="10" x1="4861.0" x2="4893.0" y1="549.0" y2="549.0" /><line stroke="#333" stroke-width="10" x1="4893.0" x2="4893.0" y1="325.0" y2="357.0" /><line stroke="#999" stroke-width="3" x1="4669.0" x2="4861.0" y1="581.0" y2="581.0" /><line stroke="#333" stroke-width="10" x1="4669.0" x2="4637.0" y1="581.0" y2="581.0" /><line stroke="#333" stroke-width="10" x1="3461.0" x2="3485.0" y1="709.0" y2="709.0" /><line stroke="#333" stroke-width="10" x1="4861.0" x2="4893.0" y1="325.0" y2="325.0" /><line stroke="#333" stroke-width="10" x1="4893.0" x2="4861.0" y1="581.0" y2="581.0" /><line stroke="#333" stroke-width="10" x1="4149.0" x2="4381.0" y1="709.0" y2="709.0" /><line stroke="#333" stroke-width="10" x1="4637.0" x2="4637.0" y1="357.0" y2="325.0" /><line stroke="#333" stroke-width="10" x1="4893.0" x2="4893.0" y1="549.0" y2="581.0" /><line stroke="#999" stroke-width="3" x1="4893.0" x2="4893.0" y1="549.0" y2="357.0" /><line stroke="#333" stroke-width="10" x1="4893.0" x2="4861.0" y1="357.0" y2="357.0" /><line stroke="#333" stroke-width="10" x1="4149.0" x2="4125.0" y1="261.0" y2="261.0" /><line stroke="#333" stroke-width="10" x1="2973.0" x2="3213.0" y1="773.0" y2="709.0" /><line stroke="#333" stroke-width="10" x1="2845.0" x2="2973.0" y1="965.0" y2="773.0" /><line stroke="#333" stroke-width="10" x1="2973.0" x2="2845.0" y1="197.0" y2="5.0" /><line stroke="#333" stroke-width="10" x1="1949.0" x2="2845.0" y1="965.0" y2="965.0" /><line stroke="#333" stroke-width="10" x1="2845.0" x2="1949.0" y1="5.0" y2="5.0" /><line stroke="#333" stroke-width="10" x1="1885.0" x2="1885.0" y1="197.0" y2="133.0" /><line stroke="#999" stroke-width="3" x1="1949.0" x2="1949.0" y1="773.0" y2="197.0" /><line stroke="#333" stroke-width="10" x1="1949.0" x2="1885.0" y1="197.0" y2="197.0" /><line stroke="#999" stroke-width="3" x1="1949.0" x2="2525.0" y1="197.0" y2="197.0" /><line stroke="#999" stroke-width="3" x1="2525.0" x2="2525.0" y1="197.0" y2="773.0" /><line stroke="#999" stroke-width="3" x1="2525.0" x2="1949.0" y1="773.0" y2="773.0" /><line stroke="#333" stroke-width="10" x1="1949.0" x2="1501.0" y1="5.0" y2="293.0" /><line stroke="#999" stroke-width="3" x1="1373.0" x2="1373.0" y1="581.0" y2="389.0" /><line stroke="#333" stroke-width="10" x1="1501.0" x2="1949.0" y1="677.0" y2="965.0" /><line stroke="#999" stroke-width="3" x1="1501.0" x2="1373.0" y1="677.0" y2="581.0" /><line stroke="#999" stroke-width="3" x1="1373.0" x2="1501.0" y1="389.0" y2="293.0" /><line stroke="#999" stroke-width="3" x1="1629.0" x2="1501.0" y1="581.0" y2="677.0" /><line stroke="#999" stroke-width="3" x1="1501.0" x2="1629.0" y1="293.0" y2="389.0" /><line stroke="#999" stroke-width="3" x1="1629.0" x2="1629.0" y1="389.0" y2="581.0" /><line stroke="#999" stroke-width="3" x1="1981.0" x2="2493.0" y1="229.0" y2="229.0" /><line stroke="#999" stroke-width="3" x1="2493.0" x2="2493.0" y1="229.0" y2="741.0" /><line stroke="#999" stroke-width="3" x1="2493.0" x2="1981.0" y1="741.0" y2="741.0" /><line stroke="#999" stroke-width="3" x1="1981.0" x2="1981.0" y1="741.0" y2="229.0" /><line stroke="#999" stroke-width="3" x1="2013.0" x2="2461.0" y1="261.0" y2="261.0" /><line stroke="#999" stroke-width="3" x1="2461.0" x2="2461.0" y1="261.0" y2="709.0" /><line stroke="#999" stroke-width="3" x1="2461.0" x2="2013.0" y1="709.0" y2="709.0" /><line stroke="#999" stroke-width="3" x1="2013.0" x2="2013.0" y1="709.0" y2="261.0" /><line stroke="#999" stroke-width="3" x1="2045.0" x2="2429.0" y1="293.0" y2="293.0" /><line stroke="#999" stroke-width="3" x1="2429.0" x2="2429.0" y1="293.0" y2="677.0" /><line stroke="#999" stroke-width="3" x1="2429.0" x2="2045.0" y1="677.0" y2="677.0" /><line stroke="#999" stroke-width="3" x1="2045.0" x2="2045.0" y1="677.0" y2="293.0" /><line stroke="#333" stroke-width="10" x1="2077.0" x2="2117.0" y1="605.0" y2="605.0" /><line stroke="#333" stroke-width="10" x1="2117.0" x2="2117.0" y1="605.0" y2="645.0" /><line stroke="#333" stroke-width="10" x1="2117.0" x2="2077.0" y1="645.0" y2="645.0" /><line stroke="#333" stroke-width="10" x1="2077.0" x2="2077.0" y1="645.0" y2="605.0" /><line stroke="#333" stroke-width="10" x1="2357.0" x2="2397.0" y1="605.0" y2="605.0" /><line stroke="#333" stroke-width="10" x1="2397.0" x2="2397.0" y1="605.0" y2="645.0" /><line stroke="#333" stroke-width="10" x1="2397.0" x2="2357.0" y1="645.0" y2="645.0" /><line stroke="#333" stroke-width="10" x1="2357.0" x2="2357.0" y1="645.0" y2="605.0" /><line stroke="#333" stroke-width="10" x1="2357.0" x2="2397.0" y1="325.0" y2="325.0" /><line stroke="#333" stroke-width="10" x1="2397.0" x2="2397.0" y1="325.0" y2="365.0" /><line stroke="#333" stroke-width="10" x1="2397.0" x2="2357.0" y1="365.0" y2="365.0" /><line stroke="#333" stroke-width="10" x1="2357.0" x2="2357.0" y1="365.0" y2="325.0" /><line stroke="#333" stroke-width="10" x1="2077.0" x2="2117.0" y1="325.0" y2="325.0" /><line stroke="#333" stroke-width="10" x1="2117.0" x2="2117.0" y1="325.0" y2="365.0" /><line stroke="#333" stroke-width="10" x1="2117.0" x2="2077.0" y1="365.0" y2="365.0" /><line stroke="#333" stroke-width="10" x1="2077.0" x2="2077.0" y1="365.0" y2="325.0" /><line stroke="#333" stroke-width="10" x1="2525.0" x2="2589.0" y1="773.0" y2="773.0" /><line stroke="#333" stroke-width="10" x1="2589.0" x2="2589.0" y1="773.0" y2="837.0" /><line stroke="#333" stroke-width="10" x1="2589.0" x2="2525.0" y1="837.0" y2="837.0" /><line stroke="#333" stroke-width="10" x1="2525.0" x2="2525.0" y1="837.0" y2="773.0" /><line stroke="#333" stroke-width="10" x1="2525.0" x2="2589.0" y1="133.0" y2="133.0" /><line stroke="#333" stroke-width="10" x1="2589.0" x2="2589.0" y1="133.0" y2="197.0" /><line stroke="#333" stroke-width="10" x1="2589.0" x2="2525.0" y1="197.0" y2="197.0" /><line stroke="#333" stroke-width="10" x1="2525.0" x2="2525.0" y1="197.0" y2="133.0" /><line stroke="#333" stroke-width="10" x1="1885.0" x2="1949.0" y1="773.0" y2="773.0" /><line stroke="#333" stroke-width="10" x1="1949.0" x2="1949.0" y1="773.0" y2="837.0" /><line stroke="#333" stroke-width="10" x1="1949.0" x2="1885.0" y1="837.0" y2="837.0" /><line stroke="#333" stroke-width="10" x1="1885.0" x2="1885.0" y1="837.0" y2="773.0" /><line stroke="#333" stroke-width="10" x1="1885.0" x2="1949.0" y1="133.0" y2="133.0" /><line stroke="#333" stroke-width="10" x1="1949.0" x2="1949.0" y1="133.0" y2="197.0" /><line stroke="#333" stroke-width="10" x1="1325.0" x2="1373.0" y1="773.0" y2="773.0" /><line stroke="#999" stroke-width="3" x1="1325.0" x2="1325.0" y1="197.0" y2="773.0" /><line stroke="#333" stroke-width="10" x1="1373.0" x2="1325.0" y1="197.0" y2="197.0" /><line stroke="#333" stroke-width="10" x1="1373.0" x2="1501.0" y1="773.0" y2="677.0" /><line stroke="#333" stroke-width="10" x1="1501.0" x2="1373.0" y1="293.0" y2="197.0" /><line stroke="#333" stroke-width="10" x1="1325.0" x2="621.0" y1="197.0" y2="197.0" /><line stroke="#333" stroke-width="10" x1="621.0" x2="1325.0" y1="773.0" y2="773.0" /><line stroke="#333" stroke-width="10" x1="621.0" x2="621.0" y1="197.0" y2="277.0" /><line stroke="#333" stroke-width="10" x1="621.0" x2="621.0" y1="677.0" y2="773.0" /><line stroke="#333" stroke-width="10" x1="621.0" x2="813.0" y1="277.0" y2="277.0" /><line stroke="#333" stroke-width="10" x1="813.0" x2="621.0" y1="677.0" y2="677.0" /><line stroke="#999" stroke-width="3" x1="789.0" x2="789.0" y1="341.0" y2="613.0" /><line stroke="#333" stroke-width="10" x1="813.0" x2="789.0" y1="341.0" y2="341.0" /><line stroke="#999" stroke-width="3" x1="813.0" x2="813.0" y1="341.0" y2="613.0" /><line stroke="#333" stroke-width="10" x1="789.0" x2="813.0" y1="613.0" y2="613.0" /><line stroke="#333" stroke-width="10" x1="813.0" x2="813.0" y1="613.0" y2="677.0" /><line stroke="#333" stroke-width="10" x1="813.0" x2="813.0" y1="277.0" y2="341.0" /><line stroke="#333" stroke-width="10" x1="789.0" x2="765.0" y1="341.0" y2="341.0" /><line stroke="#0d0" stroke-width="20" x1="765.0" x2="765.0" y1="613.0" y2="341.0" /><line stroke="#333" stroke-width="10" x1="765.0" x2="789.0" y1="613.0" y2="613.0" /><line stroke="#333" stroke-width="10" x1="765.0" x2="261.0" y1="341.0" y2="253.0" /><line stroke="#333" stroke-width="10" x1="93.0" x2="261.0" y1="685.0" y2="685.0" /><line stroke="#333" stroke-width="10" x1="261.0" x2="765.0" y1="685.0" y2="613.0" /><line stroke="#333" stroke-width="10" x1="261.0" x2="93.0" y1="253.0" y2="253.0" /><line stroke="#999" stroke-width="3" x1="261.0" x2="261.0" y1="253.0" y2="685.0" /><line stroke="#999" stroke-width="3" x1="93.0" x2="93.0" y1="253.0" y2="685.0" /><line stroke="#333" stroke-width="10" x1="93.0" x2="5.0" y1="253.0" y2="501.0" /><line stroke="#333" stroke-width="10" x1="5.0" x2="93.0" y1="501.0" y2="685.0" /><ellipse cx="4797.0" cy="421.0" fill="#009" rx="12" ry="24" stroke="#009" stroke-width="5" /><rect fill="#090" height="24" stroke="#090" stroke-width="5" transform="rotate(90,3437.0,565.0)" width="24" x="3425.0" y="553.0" /><rect fill="#090" height="24" stroke="#090" stroke-width="5" transform="rotate(90,3437.0,405.0)" width="24" x="3425.0" y="393.0" /><rect fill="#900" height="48" stroke="#900" stroke-width="5" transform="rotate(0,3837.0,485.0)" width="32" x="3821.0" y="461.0" /><circle cx="4573.0" cy="453.0" fill="#090" r="16" stroke="#090" stroke-width="5" /><rect fill="#900" height="48" stroke="#900" stroke-width="5" transform="rotate(0,4093.0,309.0)" width="32" x="4077.0" y="285.0" /><circle cx="4189.0" cy="453.0" fill="#090" r="16" stroke="#090" stroke-width="5" /><circle cx="3805.0" cy="325.0" fill="#009" r="16" stroke="#009" stroke-width="5" /><rect fill="#900" height="48" stroke="#900" stroke-width="5" transform="rotate(0,3389.0,645.0)" width="32" x="3373.0" y="621.0" /><rect fill="#900" height="48" stroke="#900" stroke-width="5" transform="rotate(0,3277.0,293.0)" width="32" x="3261.0" y="269.0" /><circle cx="4237.0" cy="453.0" fill="#090" r="16" stroke="#090" stroke-width="5" /><circle cx="4189.0" cy="517.0" fill="#090" r="16" stroke="#090" stroke-width="5" /><circle cx="4237.0" cy="517.0" fill="#090" r="16" stroke="#090" stroke-width="5" /><circle cx="3805.0" cy="645.0" fill="#009" r="16" stroke="#009" stroke-width="5" /><rect fill="#900" height="48" stroke="#900" stroke-width="5" transform="rotate(0,4093.0,661.0)" width="32" x="4077.0" y="637.0" /><rect fill="#900" height="48" stroke="#900" stroke-width="5" transform="rotate(0,3261.0,645.0)" width="32" x="3245.0" y="621.0" /><rect fill="#900" height="48" stroke="#900" stroke-width="5" transform="rotate(0,3405.0,293.0)" width="32" x="3389.0" y="269.0" /><circle cx="4573.0" cy="645.0" fill="#900" r="16" stroke="#900" stroke-width="5" /><circle cx="4957.0" cy="645.0" fill="#090" r="16" stroke="#090" stroke-width="5" /><circle cx="4957.0" cy="261.0" fill="#090" r="16" stroke="#090" stroke-width="5" /><circle cx="4573.0" cy="261.0" fill="#090" r="16" stroke="#090" stroke-width="5" /><circle cx="4765.0" cy="261.0" fill="#090" r="16" stroke="#090" stroke-width="5" /><circle cx="4765.0" cy="645.0" fill="#900" r="16" stroke="#900" stroke-width="5" /><circle cx="4957.0" cy="453.0" fill="#090" r="16" stroke="#090" stroke-width="5" /><rect fill="#900" height="48" stroke="#900" stroke-width="5" transform="rotate(0,2205.0,581.0)" width="32" x="2189.0" y="557.0" /><rect fill="#900" height="48" stroke="#900" stroke-width="5" transform="rotate(0,2205.0,389.0)" width="32" x="2189.0" y="365.0" /><rect fill="#900" height="48" stroke="#900" stroke-width="5" transform="rotate(0,2141.0,485.0)" width="32" x="2125.0" y="461.0" /><circle cx="2701.0" cy="469.0" fill="#090" r="16" stroke="#090" stroke-width="5" /><circle cx="2829.0" cy="725.0" fill="#090" r="16" stroke="#090" stroke-width="5" /><circle cx="2173.0" cy="917.0" fill="#090" r="16" stroke="#090" stroke-width="5" /><circle cx="2989.0" cy="293.0" fill="#090" r="16" stroke="#090" stroke-width="5" /><circle cx="2989.0" cy="469.0" fill="#090" r="16" stroke="#090" stroke-width="5" /><circle cx="2333.0" cy="533.0" fill="#090" r="16" stroke="#090" stroke-width="5" /><circle cx="2333.0" cy="421.0" fill="#090" r="16" stroke="#090" stroke-width="5" /><rect fill="#090" height="24" stroke="#090" stroke-width="5" transform="rotate(90,141.0,469.0)" width="24" x="129.0" y="457.0" /><circle cx="2845.0" cy="469.0" fill="#009" r="16" stroke="#009" stroke-width="5" /><rect fill="#090" height="24" stroke="#090" stroke-width="5" transform="rotate(0,2621.0,549.0)" width="24" x="2609.0" y="537.0" /><rect fill="#090" height="24" stroke="#090" stroke-width="5" transform="rotate(0,2685.0,725.0)" width="24" x="2673.0" y="713.0" /><rect fill="#090" height="24" stroke="#090" stroke-width="5" transform="rotate(0,2941.0,597.0)" width="24" x="2929.0" y="585.0" /><rect fill="#090" height="24" stroke="#090" stroke-width="5" transform="rotate(0,2749.0,277.0)" width="24" x="2737.0" y="265.0" /><rect fill="#090" height="24" stroke="#090" stroke-width="5" transform="rotate(0,2829.0,197.0)" width="24" x="2817.0" y="185.0" /><rect fill="#090" height="24" stroke="#090" stroke-width="5" transform="rotate(0,2397.0,101.0)" width="24" x="2385.0" y="89.0" /><rect fill="#090" height="24" stroke="#090" stroke-width="5" transform="rotate(0,2669.0,901.0)" width="24" x="2657.0" y="889.0" /><rect fill="#090" height="24" stroke="#090" stroke-width="5" transform="rotate(0,2301.0,869.0)" width="24" x="2289.0" y="857.0" /><rect fill="#090" height="24" stroke="#090" stroke-width="5" transform="rotate(0,2925.0,373.0)" width="24" x="2913.0" y="361.0" /><rect fill="#090" height="24" stroke="#090" stroke-width="5" transform="rotate(0,3101.0,677.0)" width="24" x="3089.0" y="665.0" /><rect fill="#090" height="24" stroke="#090" stroke-width="5" transform="rotate(0,2749.0,565.0)" width="24" x="2737.0" y="553.0" /><rect fill="#090" height="24" stroke="#090" stroke-width="5" transform="rotate(0,2637.0,405.0)" width="24" x="2625.0" y="393.0" /><rect fill="#090" height="24" stroke="#090" stroke-width="5" transform="rotate(0,2125.0,101.0)" width="24" x="2113.0" y="89.0" /><rect fill="#090" height="24" stroke="#090" stroke-width="5" transform="rotate(0,2525.0,885.0)" width="24" x="2513.0" y="873.0" /><rect fill="#090" height="24" stroke="#090" stroke-width="5" transform="rotate(0,2829.0,821.0)" width="24" x="2817.0" y="809.0" /><rect fill="#090" height="24" stroke="#090" stroke-width="5" transform="rotate(90,365.0,629.0)" width="24" x="353.0" y="617.0" /><rect fill="#090" height="24" stroke="#090" stroke-width="5" transform="rotate(90,477.0,613.0)" width="24" x="465.0" y="601.0" /><rect fill="#090" height="24" stroke="#090" stroke-width="5" transform="rotate(90,589.0,597.0)" width="24" x="577.0" y="585.0" /><rect fill="#090" height="24" stroke="#090" stroke-width="5" transform="rotate(90,653.0,581.0)" width="24" x="641.0" y="569.0" /><rect fill="#090" height="24" stroke="#090" stroke-width="5" transform="rotate(90,365.0,293.0)" width="24" x="353.0" y="281.0" /><rect fill="#090" height="24" stroke="#090" stroke-width="5" transform="rotate(90,477.0,309.0)" width="24" x="465.0" y="297.0" /><rect fill="#090" height="24" stroke="#090" stroke-width="5" transform="rotate(90,589.0,341.0)" width="24" x="577.0" y="329.0" /><rect fill="#090" height="24" stroke="#090" stroke-width="5" transform="rotate(90,669.0,357.0)" width="24" x="657.0" y="345.0" /></svg>