<?xml version="1.0" encoding="utf-8" ?>
<svg baseProfile="tiny" height="455" version="1.2" viewBox="0 0 2282 1016" width="1024" xmlns="http://www.w3.org/2000/svg" xmlns:ev="http://www.w3.org/2001/xml-events" xmlns:xlink="http://www.w3.org/1999/xlink"><defs /><line stroke="#666" stroke-width="20" x1="341.0" x2="341.0" y1="661.0" y2="725.0" /><line stroke="#333" stroke-width="10" x1="373.0" x2="341.0" y1="661.0" y2="661.0" /><line stroke="#333" stroke-width="10" x1="373.0" x2="373.0" y1="565.0" y2="661.0" /><line stroke="#333" stroke-width="10" x1="389.0" x2="373.0" y1="565.0" y2="565.0" /><line stroke="#333" stroke-width="10" x1="389.0" x2="389.0" y1="549.0" y2="565.0" /><line stroke="#999" stroke-width="3" x1="645.0" x2="389.0" y1="549.0" y2="549.0" /><line stroke="#333" stroke-width="10" x1="645.0" x2="645.0" y1="565.0" y2="549.0" /><line stroke="#333" stroke-width="10" x1="661.0" x2="645.0" y1="565.0" y2="565.0" /><line stroke="#333" stroke-width="10" x1="661.0" x2="661.0" y1="629.0" y2="565.0" /><line stroke="#666" stroke-width="20" x1="661.0" x2="661.0" y1="757.0" y2="629.0" /><line stroke="#333" stroke-width="10" x1="661.0" x2="661.0" y1="837.0" y2="757.0" /><line stroke="#333" stroke-width="10" x1="645.0" x2="661.0" y1="837.0" y2="837.0" /><line stroke="#333" stroke-width="10" x1="645.0" x2="645.0" y1="853.0" y2="837.0" /><line stroke="#999" stroke-width="3" x1="389.0" x2="645.0" y1="853.0" y2="853.0" /><line stroke="#333" stroke-width="10" x1="389.0" x2="389.0" y1="837.0" y2="853.0" /><line stroke="#333" stroke-width="10" x1="373.0" x2="389.0" y1="837.0" y2="837.0" /><line stroke="#333" stroke-width="10" x1="373.0" x2="373.0" y1="725.0" y2="837.0" /><line stroke="#333" stroke-width="10" x1="341.0" x2="373.0" y1="725.0" y2="725.0" /><line stroke="#999" stroke-width="3" x1="373.0" x2="373.0" y1="661.0" y2="725.0" /><line stroke="#333" stroke-width="10" x1="645.0" x2="645.0" y1="549.0" y2="533.0" /><line stroke="#333" stroke-width="10" x1="645.0" x2="709.0" y1="533.0" y2="533.0" /><line stroke="#333" stroke-width="10" x1="709.0" x2="709.0" y1="533.0" y2="565.0" /><line stroke="#333" stroke-width="10" x1="709.0" x2="709.0" y1="837.0" y2="869.0" /><line stroke="#333" stroke-width="10" x1="709.0" x2="645.0" y1="869.0" y2="869.0" /><line stroke="#333" stroke-width="10" x1="645.0" x2="645.0" y1="869.0" y2="853.0" /><line stroke="#333" stroke-width="10" x1="389.0" x2="389.0" y1="853.0" y2="869.0" /><line stroke="#333" stroke-width="10" x1="389.0" x2="373.0" y1="869.0" y2="869.0" /><line stroke="#333" stroke-width="10" x1="373.0" x2="373.0" y1="869.0" y2="997.0" /><line stroke="#333" stroke-width="10" x1="373.0" x2="821.0" y1="997.0" y2="997.0" /><line stroke="#333" stroke-width="10" x1="821.0" x2="373.0" y1="405.0" y2="405.0" /><line stroke="#333" stroke-width="10" x1="373.0" x2="373.0" y1="405.0" y2="533.0" /><line stroke="#333" stroke-width="10" x1="373.0" x2="389.0" y1="533.0" y2="533.0" /><line stroke="#333" stroke-width="10" x1="389.0" x2="389.0" y1="533.0" y2="549.0" /><line stroke="#333" stroke-width="10" x1="677.0" x2="709.0" y1="837.0" y2="837.0" /><line stroke="#333" stroke-width="10" x1="677.0" x2="677.0" y1="757.0" y2="837.0" /><line stroke="#333" stroke-width="10" x1="661.0" x2="677.0" y1="757.0" y2="757.0" /><line stroke="#666" stroke-width="20" x1="677.0" x2="677.0" y1="629.0" y2="757.0" /><line stroke="#333" stroke-width="10" x1="677.0" x2="661.0" y1="629.0" y2="629.0" /><line stroke="#333" stroke-width="10" x1="677.0" x2="677.0" y1="565.0" y2="629.0" /><line stroke="#333" stroke-width="10" x1="709.0" x2="677.0" y1="565.0" y2="565.0" /><line stroke="#333" stroke-width="10" x1="341.0" x2="325.0" y1="661.0" y2="661.0" /><line stroke="#666" stroke-width="20" x1="325.0" x2="325.0" y1="725.0" y2="661.0" /><line stroke="#333" stroke-width="10" x1="325.0" x2="341.0" y1="725.0" y2="725.0" /><line stroke="#333" stroke-width="10" x1="325.0" x2="277.0" y1="661.0" y2="661.0" /><line stroke="#999" stroke-width="3" x1="277.0" x2="277.0" y1="725.0" y2="661.0" /><line stroke="#333" stroke-width="10" x1="277.0" x2="325.0" y1="725.0" y2="725.0" /><line stroke="#333" stroke-width="10" x1="277.0" x2="229.0" y1="661.0" y2="661.0" /><line stroke="#999" stroke-width="3" x1="229.0" x2="229.0" y1="725.0" y2="661.0" /><line stroke="#333" stroke-width="10" x1="229.0" x2="277.0" y1="725.0" y2="725.0" /><line stroke="#333" stroke-width="10" x1="229.0" x2="181.0" y1="661.0" y2="661.0" /><line stroke="#999" stroke-width="3" x1="181.0" x2="181.0" y1="725.0" y2="661.0" /><line stroke="#333" stroke-width="10" x1="181.0" x2="229.0" y1="725.0" y2="725.0" /><line stroke="#333" stroke-width="10" x1="181.0" x2="133.0" y1="661.0" y2="661.0" /><line stroke="#999" stroke-width="3" x1="133.0" x2="133.0" y1="725.0" y2="661.0" /><line stroke="#333" stroke-width="10" x1="133.0" x2="181.0" y1="725.0" y2="725.0" /><line stroke="#333" stroke-width="10" x1="133.0" x2="133.0" y1="661.0" y2="613.0" /><line stroke="#333" stroke-width="10" x1="133.0" x2="5.0" y1="613.0" y2="613.0" /><line stroke="#333" stroke-width="10" x1="5.0" x2="133.0" y1="773.0" y2="773.0" /><line stroke="#333" stroke-width="10" x1="133.0" x2="133.0" y1="773.0" y2="725.0" /><line stroke="#999" stroke-width="3" x1="389.0" x2="645.0" y1="837.0" y2="837.0" /><line stroke="#999" stroke-width="3" x1="645.0" x2="389.0" y1="869.0" y2="869.0" /><line stroke="#999" stroke-width="3" x1="645.0" x2="389.0" y1="565.0" y2="565.0" /><line stroke="#999" stroke-width="3" x1="389.0" x2="645.0" y1="533.0" y2="533.0" /><line stroke="#999" stroke-width="3" x1="565.0" x2="469.0" y1="741.0" y2="741.0" /><line stroke="#999" stroke-width="3" x1="469.0" x2="469.0" y1="741.0" y2="645.0" /><line stroke="#999" stroke-width="3" x1="469.0" x2="565.0" y1="645.0" y2="645.0" /><line stroke="#999" stroke-width="3" x1="565.0" x2="565.0" y1="645.0" y2="741.0" /><line stroke="#999" stroke-width="3" x1="709.0" x2="709.0" y1="837.0" y2="565.0" /><line stroke="#333" stroke-width="10" x1="821.0" x2="821.0" y1="629.0" y2="405.0" /><line stroke="#999" stroke-width="3" x1="821.0" x2="821.0" y1="757.0" y2="629.0" /><line stroke="#333" stroke-width="10" x1="821.0" x2="821.0" y1="997.0" y2="757.0" /><line stroke="#333" stroke-width="10" x1="837.0" x2="821.0" y1="629.0" y2="629.0" /><line stroke="#666" stroke-width="20" x1="837.0" x2="837.0" y1="757.0" y2="629.0" /><line stroke="#333" stroke-width="10" x1="821.0" x2="837.0" y1="757.0" y2="757.0" /><line stroke="#333" stroke-width="10" x1="837.0" x2="869.0" y1="757.0" y2="757.0" /><line stroke="#666" stroke-width="20" x1="869.0" x2="869.0" y1="629.0" y2="757.0" /><line stroke="#333" stroke-width="10" x1="869.0" x2="837.0" y1="629.0" y2="629.0" /><line stroke="#333" stroke-width="10" x1="885.0" x2="869.0" y1="629.0" y2="629.0" /><line stroke="#999" stroke-width="3" x1="885.0" x2="885.0" y1="629.0" y2="757.0" /><line stroke="#333" stroke-width="10" x1="869.0" x2="885.0" y1="757.0" y2="757.0" /><line stroke="#333" stroke-width="10" x1="1189.0" x2="885.0" y1="629.0" y2="629.0" /><line stroke="#999" stroke-width="3" x1="1317.0" x2="1189.0" y1="629.0" y2="629.0" /><line stroke="#333" stroke-width="10" x1="1589.0" x2="1317.0" y1="629.0" y2="629.0" /><line stroke="#999" stroke-width="3" x1="1717.0" x2="1589.0" y1="629.0" y2="629.0" /><line stroke="#333" stroke-width="10" x1="1845.0" x2="1717.0" y1="629.0" y2="629.0" /><line stroke="#333" stroke-width="10" x1="1189.0" x2="1189.0" y1="613.0" y2="629.0" /><line stroke="#d00" stroke-width="20" x1="1317.0" x2="1189.0" y1="613.0" y2="613.0" /><line stroke="#333" stroke-width="10" x1="1317.0" x2="1317.0" y1="629.0" y2="613.0" /><line stroke="#333" stroke-width="10" x1="1317.0" x2="1317.0" y1="613.0" y2="597.0" /><line stroke="#d00" stroke-width="20" x1="1189.0" x2="1317.0" y1="597.0" y2="597.0" /><line stroke="#333" stroke-width="10" x1="1189.0" x2="1189.0" y1="597.0" y2="613.0" /><line stroke="#333" stroke-width="10" x1="1189.0" x2="1189.0" y1="581.0" y2="597.0" /><line stroke="#999" stroke-width="3" x1="1189.0" x2="1317.0" y1="581.0" y2="581.0" /><line stroke="#333" stroke-width="10" x1="1317.0" x2="1317.0" y1="597.0" y2="581.0" /><line stroke="#333" stroke-width="10" x1="1589.0" x2="1589.0" y1="613.0" y2="629.0" /><line stroke="#d00" stroke-width="20" x1="1717.0" x2="1589.0" y1="613.0" y2="613.0" /><line stroke="#333" stroke-width="10" x1="1717.0" x2="1717.0" y1="629.0" y2="613.0" /><line stroke="#333" stroke-width="10" x1="1717.0" x2="1717.0" y1="613.0" y2="581.0" /><line stroke="#d00" stroke-width="20" x1="1589.0" x2="1717.0" y1="581.0" y2="581.0" /><line stroke="#333" stroke-width="10" x1="1589.0" x2="1589.0" y1="581.0" y2="613.0" /><line stroke="#333" stroke-width="10" x1="1589.0" x2="1589.0" y1="565.0" y2="581.0" /><line stroke="#999" stroke-width="3" x1="1589.0" x2="1717.0" y1="565.0" y2="565.0" /><line stroke="#333" stroke-width="10" x1="1717.0" x2="1717.0" y1="581.0" y2="565.0" /><line stroke="#999" stroke-width="3" x1="1549.0" x2="1677.0" y1="757.0" y2="757.0" /><line stroke="#333" stroke-width="10" x1="1677.0" x2="1677.0" y1="773.0" y2="757.0" /><line stroke="#999" stroke-width="3" x1="1677.0" x2="1549.0" y1="773.0" y2="773.0" /><line stroke="#333" stroke-width="10" x1="1549.0" x2="1549.0" y1="757.0" y2="773.0" /><line stroke="#333" stroke-width="10" x1="1549.0" x2="1413.0" y1="773.0" y2="1011.0" /><line stroke="#333" stroke-width="10" x1="1413.0" x2="1813.0" y1="1011.0" y2="1011.0" /><line stroke="#333" stroke-width="10" x1="1813.0" x2="1677.0" y1="1011.0" y2="773.0" /><line stroke="#333" stroke-width="10" x1="933.0" x2="933.0" y1="5.0" y2="581.0" /><line stroke="#333" stroke-width="10" x1="1285.0" x2="1221.0" y1="5.0" y2="5.0" /><line stroke="#333" stroke-width="10" x1="1573.0" x2="1573.0" y1="581.0" y2="5.0" /><line stroke="#999" stroke-width="3" x1="1221.0" x2="1221.0" y1="5.0" y2="69.0" /><line stroke="#999" stroke-width="3" x1="1221.0" x2="1285.0" y1="69.0" y2="69.0" /><line stroke="#999" stroke-width="3" x1="1285.0" x2="1285.0" y1="69.0" y2="5.0" /><line stroke="#999" stroke-width="3" x1="1285.0" x2="1317.0" y1="485.0" y2="517.0" /><line stroke="#999" stroke-width="3" x1="1189.0" x2="1221.0" y1="517.0" y2="485.0" /><line stroke="#999" stroke-width="3" x1="1317.0" x2="1317.0" y1="517.0" y2="581.0" /><line stroke="#999" stroke-width="3" x1="1189.0" x2="1189.0" y1="581.0" y2="517.0" /><line stroke="#333" stroke-width="10" x1="1221.0" x2="1189.0" y1="5.0" y2="5.0" /><line stroke="#333" stroke-width="10" x1="1189.0" x2="933.0" y1="5.0" y2="5.0" /><line stroke="#333" stroke-width="10" x1="1317.0" x2="1285.0" y1="5.0" y2="5.0" /><line stroke="#333" stroke-width="10" x1="1573.0" x2="1317.0" y1="5.0" y2="5.0" /><line stroke="#999" stroke-width="3" x1="1317.0" x2="1317.0" y1="5.0" y2="469.0" /><line stroke="#999" stroke-width="3" x1="1317.0" x2="1349.0" y1="469.0" y2="501.0" /><line stroke="#999" stroke-width="3" x1="1349.0" x2="1349.0" y1="501.0" y2="581.0" /><line stroke="#333" stroke-width="10" x1="1349.0" x2="1573.0" y1="581.0" y2="581.0" /><line stroke="#333" stroke-width="10" x1="1317.0" x2="1349.0" y1="581.0" y2="581.0" /><line stroke="#999" stroke-width="3" x1="1189.0" x2="1189.0" y1="469.0" y2="5.0" /><line stroke="#999" stroke-width="3" x1="1157.0" x2="1189.0" y1="501.0" y2="469.0" /><line stroke="#999" stroke-width="3" x1="1157.0" x2="1157.0" y1="581.0" y2="501.0" /><line stroke="#333" stroke-width="10" x1="1157.0" x2="1189.0" y1="581.0" y2="581.0" /><line stroke="#333" stroke-width="10" x1="933.0" x2="1157.0" y1="581.0" y2="581.0" /><line stroke="#999" stroke-width="3" x1="1549.0" x2="1413.0" y1="533.0" y2="533.0" /><line stroke="#999" stroke-width="3" x1="1549.0" x2="1549.0" y1="53.0" y2="533.0" /><line stroke="#999" stroke-width="3" x1="1413.0" x2="1549.0" y1="53.0" y2="53.0" /><line stroke="#999" stroke-width="3" x1="1413.0" x2="1413.0" y1="533.0" y2="53.0" /><line stroke="#999" stroke-width="3" x1="1093.0" x2="957.0" y1="533.0" y2="533.0" /><line stroke="#999" stroke-width="3" x1="1093.0" x2="1093.0" y1="69.0" y2="533.0" /><line stroke="#999" stroke-width="3" x1="957.0" x2="1093.0" y1="69.0" y2="69.0" /><line stroke="#999" stroke-width="3" x1="957.0" x2="957.0" y1="533.0" y2="69.0" /><line stroke="#999" stroke-width="3" x1="1221.0" x2="1221.0" y1="325.0" y2="485.0" /><line stroke="#999" stroke-width="3" x1="1285.0" x2="1285.0" y1="485.0" y2="325.0" /><line stroke="#999" stroke-width="3" x1="1221.0" x2="1221.0" y1="261.0" y2="325.0" /><line stroke="#999" stroke-width="3" x1="1285.0" x2="1285.0" y1="325.0" y2="261.0" /><line stroke="#999" stroke-width="3" x1="1285.0" x2="1285.0" y1="261.0" y2="69.0" /><line stroke="#999" stroke-width="3" x1="1221.0" x2="1221.0" y1="69.0" y2="261.0" /><line stroke="#00d" stroke-width="20" x1="1333.0" x2="1333.0" y1="325.0" y2="261.0" /><line stroke="#00d" stroke-width="20" x1="1333.0" x2="1397.0" y1="261.0" y2="261.0" /><line stroke="#00d" stroke-width="20" x1="1397.0" x2="1397.0" y1="261.0" y2="325.0" /><line stroke="#00d" stroke-width="20" x1="1397.0" x2="1333.0" y1="325.0" y2="325.0" /><line stroke="#00d" stroke-width="20" x1="1109.0" x2="1173.0" y1="261.0" y2="261.0" /><line stroke="#00d" stroke-width="20" x1="1109.0" x2="1109.0" y1="325.0" y2="261.0" /><line stroke="#00d" stroke-width="20" x1="1173.0" x2="1173.0" y1="261.0" y2="325.0" /><line stroke="#00d" stroke-width="20" x1="1173.0" x2="1109.0" y1="325.0" y2="325.0" /><line stroke="#333" stroke-width="10" x1="1677.0" x2="1845.0" y1="757.0" y2="757.0" /><line stroke="#333" stroke-width="10" x1="885.0" x2="1549.0" y1="757.0" y2="757.0" /><line stroke="#333" stroke-width="10" x1="1589.0" x2="1589.0" y1="533.0" y2="565.0" /><line stroke="#999" stroke-width="3" x1="1589.0" x2="1717.0" y1="533.0" y2="533.0" /><line stroke="#333" stroke-width="10" x1="1717.0" x2="1717.0" y1="565.0" y2="533.0" /><line stroke="#333" stroke-width="10" x1="1717.0" x2="1717.0" y1="533.0" y2="501.0" /><line stroke="#999" stroke-width="3" x1="1589.0" x2="1717.0" y1="501.0" y2="501.0" /><line stroke="#333" stroke-width="10" x1="1589.0" x2="1589.0" y1="501.0" y2="533.0" /><line stroke="#333" stroke-width="10" x1="1589.0" x2="1589.0" y1="469.0" y2="501.0" /><line stroke="#999" stroke-width="3" x1="1589.0" x2="1717.0" y1="469.0" y2="469.0" /><line stroke="#333" stroke-width="10" x1="1717.0" x2="1717.0" y1="501.0" y2="469.0" /><line stroke="#333" stroke-width="10" x1="1717.0" x2="1717.0" y1="469.0" y2="437.0" /><line stroke="#999" stroke-width="3" x1="1589.0" x2="1717.0" y1="437.0" y2="437.0" /><line stroke="#333" stroke-width="10" x1="1589.0" x2="1589.0" y1="437.0" y2="469.0" /><line stroke="#333" stroke-width="10" x1="1589.0" x2="1589.0" y1="405.0" y2="437.0" /><line stroke="#999" stroke-width="3" x1="1589.0" x2="1717.0" y1="405.0" y2="405.0" /><line stroke="#333" stroke-width="10" x1="1717.0" x2="1717.0" y1="437.0" y2="405.0" /><line stroke="#333" stroke-width="10" x1="1717.0" x2="1717.0" y1="405.0" y2="373.0" /><line stroke="#999" stroke-width="3" x1="1589.0" x2="1717.0" y1="373.0" y2="373.0" /><line stroke="#333" stroke-width="10" x1="1589.0" x2="1589.0" y1="373.0" y2="405.0" /><line stroke="#333" stroke-width="10" x1="1589.0" x2="1589.0" y1="245.0" y2="373.0" /><line stroke="#333" stroke-width="10" x1="1717.0" x2="1589.0" y1="245.0" y2="245.0" /><line stroke="#999" stroke-width="3" x1="1717.0" x2="1717.0" y1="245.0" y2="373.0" /><line stroke="#333" stroke-width="10" x1="1717.0" x2="1749.0" y1="373.0" y2="373.0" /><line stroke="#999" stroke-width="3" x1="1749.0" x2="1749.0" y1="245.0" y2="373.0" /><line stroke="#333" stroke-width="10" x1="1749.0" x2="1717.0" y1="245.0" y2="245.0" /><line stroke="#333" stroke-width="10" x1="1781.0" x2="1749.0" y1="245.0" y2="245.0" /><line stroke="#999" stroke-width="3" x1="1781.0" x2="1781.0" y1="245.0" y2="373.0" /><line stroke="#333" stroke-width="10" x1="1749.0" x2="1781.0" y1="373.0" y2="373.0" /><line stroke="#333" stroke-width="10" x1="1781.0" x2="1813.0" y1="373.0" y2="373.0" /><line stroke="#999" stroke-width="3" x1="1813.0" x2="1813.0" y1="245.0" y2="373.0" /><line stroke="#333" stroke-width="10" x1="1813.0" x2="1781.0" y1="245.0" y2="245.0" /><line stroke="#333" stroke-width="10" x1="1845.0" x2="1813.0" y1="245.0" y2="245.0" /><line stroke="#999" stroke-width="3" x1="1845.0" x2="1845.0" y1="245.0" y2="373.0" /><line stroke="#333" stroke-width="10" x1="1813.0" x2="1845.0" y1="373.0" y2="373.0" /><line stroke="#333" stroke-width="10" x1="1845.0" x2="1877.0" y1="373.0" y2="373.0" /><line stroke="#999" stroke-width="3" x1="1877.0" x2="1877.0" y1="245.0" y2="373.0" /><line stroke="#333" stroke-width="10" x1="1877.0" x2="1845.0" y1="245.0" y2="245.0" /><line stroke="#333" stroke-width="10" x1="1909.0" x2="1877.0" y1="245.0" y2="245.0" /><line stroke="#999" stroke-width="3" x1="1909.0" x2="1909.0" y1="245.0" y2="373.0" /><line stroke="#333" stroke-width="10" x1="1877.0" x2="1909.0" y1="373.0" y2="373.0" /><line stroke="#333" stroke-width="10" x1="1909.0" x2="1909.0" y1="373.0" y2="405.0" /><line stroke="#333" stroke-width="10" x1="1749.0" x2="1749.0" y1="405.0" y2="533.0" /><line stroke="#999" stroke-width="3" x1="1909.0" x2="1909.0" y1="405.0" y2="533.0" /><line stroke="#333" stroke-width="10" x1="1909.0" x2="1893.0" y1="405.0" y2="405.0" /><line stroke="#666" stroke-width="20" x1="1893.0" x2="1893.0" y1="405.0" y2="533.0" /><line stroke="#333" stroke-width="10" x1="1893.0" x2="1909.0" y1="533.0" y2="533.0" /><line stroke="#333" stroke-width="10" x1="1877.0" x2="1893.0" y1="533.0" y2="533.0" /><line stroke="#666" stroke-width="20" x1="1877.0" x2="1877.0" y1="533.0" y2="405.0" /><line stroke="#333" stroke-width="10" x1="1893.0" x2="1877.0" y1="405.0" y2="405.0" /><line stroke="#333" stroke-width="10" x1="1877.0" x2="1861.0" y1="405.0" y2="405.0" /><line stroke="#999" stroke-width="3" x1="1861.0" x2="1861.0" y1="533.0" y2="405.0" /><line stroke="#333" stroke-width="10" x1="1861.0" x2="1877.0" y1="533.0" y2="533.0" /><line stroke="#333" stroke-width="10" x1="1861.0" x2="1749.0" y1="405.0" y2="405.0" /><line stroke="#333" stroke-width="10" x1="1749.0" x2="1861.0" y1="533.0" y2="533.0" /><line stroke="#333" stroke-width="10" x1="1909.0" x2="1909.0" y1="533.0" y2="565.0" /><line stroke="#333" stroke-width="10" x1="1909.0" x2="2277.0" y1="565.0" y2="565.0" /><line stroke="#333" stroke-width="10" x1="2277.0" x2="1909.0" y1="245.0" y2="245.0" /><line stroke="#333" stroke-width="10" x1="2277.0" x2="2277.0" y1="565.0" y2="429.0" /><line stroke="#666" stroke-width="20" x1="2277.0" x2="2277.0" y1="429.0" y2="365.0" /><line stroke="#333" stroke-width="10" x1="2277.0" x2="2277.0" y1="365.0" y2="245.0" /><line stroke="#999" stroke-width="3" x1="1845.0" x2="1845.0" y1="757.0" y2="629.0" /><line stroke="#333" stroke-width="10" x1="1861.0" x2="1845.0" y1="629.0" y2="629.0" /><line stroke="#999" stroke-width="3" x1="1861.0" x2="1861.0" y1="757.0" y2="629.0" /><line stroke="#333" stroke-width="10" x1="1845.0" x2="1861.0" y1="757.0" y2="757.0" /><line stroke="#333" stroke-width="10" x1="1861.0" x2="1877.0" y1="757.0" y2="757.0" /><line stroke="#999" stroke-width="3" x1="1877.0" x2="1877.0" y1="629.0" y2="757.0" /><line stroke="#333" stroke-width="10" x1="1877.0" x2="1861.0" y1="629.0" y2="629.0" /><line stroke="#333" stroke-width="10" x1="1893.0" x2="1877.0" y1="629.0" y2="629.0" /><line stroke="#999" stroke-width="3" x1="1893.0" x2="1893.0" y1="629.0" y2="757.0" /><line stroke="#333" stroke-width="10" x1="1877.0" x2="1893.0" y1="757.0" y2="757.0" /><line stroke="#333" stroke-width="10" x1="2021.0" x2="1893.0" y1="629.0" y2="629.0" /><line stroke="#333" stroke-width="10" x1="2021.0" x2="2021.0" y1="661.0" y2="629.0" /><line stroke="#0d0" stroke-width="20" x1="2021.0" x2="2021.0" y1="725.0" y2="661.0" /><line stroke="#333" stroke-width="10" x1="2021.0" x2="2021.0" y1="757.0" y2="725.0" /><line stroke="#333" stroke-width="10" x1="1893.0" x2="2021.0" y1="757.0" y2="757.0" /><line stroke="#999" stroke-width="3" x1="2005.0" x2="2005.0" y1="677.0" y2="709.0" /><line stroke="#999" stroke-width="3" x1="1997.0" x2="2005.0" y1="677.0" y2="677.0" /><line stroke="#999" stroke-width="3" x1="1997.0" x2="1997.0" y1="709.0" y2="677.0" /><line stroke="#999" stroke-width="3" x1="2005.0" x2="1997.0" y1="709.0" y2="709.0" /><line stroke="#333" stroke-width="10" x1="5.0" x2="5.0" y1="613.0" y2="773.0" /><line stroke="#333" stroke-width="10" x1="5.0" x2="5.0" y1="613.0" y2="613.0" /><ellipse cx="391.0" cy="695.0" fill="#009" rx="12" ry="24" stroke="#009" stroke-width="5" /><rect fill="#900" height="48" stroke="#900" stroke-width="5" transform="rotate(90,429.0,933.0)" width="32" x="413.0" y="909.0" /><rect fill="#900" height="48" stroke="#900" stroke-width="5" transform="rotate(270,437.0,453.0)" width="32" x="421.0" y="429.0" /><rect fill="#900" height="48" stroke="#900" stroke-width="5" transform="rotate(270,545.0,457.0)" width="32" x="529.0" y="433.0" /><rect fill="#900" height="48" stroke="#900" stroke-width="5" transform="rotate(0,745.0,717.0)" width="32" x="729.0" y="693.0" /><circle cx="65.0" cy="699.0" fill="#009" r="16" stroke="#009" stroke-width="5" /><circle cx="797.0" cy="965.0" fill="#009" r="16" stroke="#009" stroke-width="5" /><circle cx="627.0" cy="457.0" fill="#090" r="16" stroke="#090" stroke-width="5" /><circle cx="599.0" cy="943.0" fill="#090" r="16" stroke="#090" stroke-width="5" /><rect fill="#900" height="48" stroke="#900" stroke-width="5" transform="rotate(270,769.0,855.0)" width="32" x="753.0" y="831.0" /><rect fill="#900" height="48" stroke="#900" stroke-width="5" transform="rotate(315,745.0,553.0)" width="32" x="729.0" y="529.0" /><rect fill="#090" height="24" stroke="#090" stroke-width="5" transform="rotate(90,713.0,447.0)" width="24" x="701.0" y="435.0" /><ellipse cx="697.0" cy="581.0" fill="#900" rx="12" ry="24" stroke="#900" stroke-width="5" /><ellipse cx="695.0" cy="823.0" fill="#900" rx="12" ry="24" stroke="#900" stroke-width="5" /><rect fill="#900" height="48" stroke="#900" stroke-width="5" transform="rotate(180,751.0,659.0)" width="32" x="735.0" y="635.0" /><circle cx="23.0" cy="759.0" fill="#090" r="16" stroke="#090" stroke-width="5" /><rect fill="#900" height="48" stroke="#900" stroke-width="5" transform="rotate(0,607.0,695.0)" width="32" x="591.0" y="671.0" /><circle cx="799.0" cy="423.0" fill="#009" r="16" stroke="#009" stroke-width="5" /><ellipse cx="409.0" cy="973.0" fill="#090" rx="12" ry="24" stroke="#090" stroke-width="5" /><ellipse cx="1253.0" cy="37.0" fill="#090" rx="12" ry="24" stroke="#090" stroke-width="5" /><ellipse cx="1485.0" cy="505.0" fill="#090" rx="12" ry="24" stroke="#090" stroke-width="5" /><circle cx="113.0" cy="759.0" fill="#090" r="16" stroke="#090" stroke-width="5" /><rect fill="#900" height="48" stroke="#900" stroke-width="5" transform="rotate(180,1459.0,469.0)" width="32" x="1443.0" y="445.0" /><rect fill="#900" height="48" stroke="#900" stroke-width="5" transform="rotate(180,1503.0,447.0)" width="32" x="1487.0" y="423.0" /><rect fill="#900" height="48" stroke="#900" stroke-width="5" transform="rotate(180,1499.0,401.0)" width="32" x="1483.0" y="377.0" /><rect fill="#900" height="48" stroke="#900" stroke-width="5" transform="rotate(180,1499.0,297.0)" width="32" x="1483.0" y="273.0" /><rect fill="#900" height="48" stroke="#900" stroke-width="5" transform="rotate(180,1501.0,249.0)" width="32" x="1485.0" y="225.0" /><rect fill="#900" height="48" stroke="#900" stroke-width="5" transform="rotate(180,1501.0,145.0)" width="32" x="1485.0" y="121.0" /><rect fill="#900" height="48" stroke="#900" stroke-width="5" transform="rotate(180,1499.0,85.0)" width="32" x="1483.0" y="61.0" /><rect fill="#900" height="48" stroke="#900" stroke-width="5" transform="rotate(180,1461.0,423.0)" width="32" x="1445.0" y="399.0" /><rect fill="#900" height="48" stroke="#900" stroke-width="5" transform="rotate(180,1461.0,373.0)" width="32" x="1445.0" y="349.0" /><rect fill="#900" height="48" stroke="#900" stroke-width="5" transform="rotate(180,1463.0,325.0)" width="32" x="1447.0" y="301.0" /><rect fill="#900" height="48" stroke="#900" stroke-width="5" transform="rotate(180,1451.0,237.0)" width="32" x="1435.0" y="213.0" /><rect fill="#900" height="48" stroke="#900" stroke-width="5" transform="rotate(180,1449.0,187.0)" width="32" x="1433.0" y="163.0" /><rect fill="#900" height="48" stroke="#900" stroke-width="5" transform="rotate(180,1449.0,121.0)" width="32" x="1433.0" y="97.0" /><rect fill="#009" height="24" stroke="#009" stroke-width="5" transform="rotate(270,1253.0,541.0)" width="24" x="1241.0" y="529.0" /><rect fill="#900" height="48" stroke="#900" stroke-width="5" transform="rotate(0,1031.0,107.0)" width="32" x="1015.0" y="83.0" /><rect fill="#900" height="48" stroke="#900" stroke-width="5" transform="rotate(0,1033.0,159.0)" width="32" x="1017.0" y="135.0" /><rect fill="#900" height="48" stroke="#900" stroke-width="5" transform="rotate(0,1031.0,257.0)" width="32" x="1015.0" y="233.0" /><rect fill="#900" height="48" stroke="#900" stroke-width="5" transform="rotate(0,1031.0,305.0)" width="32" x="1015.0" y="281.0" /><rect fill="#900" height="48" stroke="#900" stroke-width="5" transform="rotate(0,1031.0,399.0)" width="32" x="1015.0" y="375.0" /><rect fill="#900" height="48" stroke="#900" stroke-width="5" transform="rotate(0,1031.0,445.0)" width="32" x="1015.0" y="421.0" /><rect fill="#900" height="48" stroke="#900" stroke-width="5" transform="rotate(315,1359.0,79.0)" width="32" x="1343.0" y="55.0" /><rect fill="#900" height="48" stroke="#900" stroke-width="5" transform="rotate(0,1147.0,59.0)" width="32" x="1131.0" y="35.0" /><circle cx="1009.0" cy="693.0" fill="#900" r="16" stroke="#900" stroke-width="5" /><circle cx="1793.0" cy="697.0" fill="#090" r="16" stroke="#090" stroke-width="5" /><circle cx="27.0" cy="637.0" fill="#900" r="16" stroke="#900" stroke-width="5" /><circle cx="29.0" cy="677.0" fill="#090" r="16" stroke="#090" stroke-width="5" /><circle cx="67.0" cy="739.0" fill="#090" r="16" stroke="#090" stroke-width="5" /><circle cx="103.0" cy="639.0" fill="#090" r="16" stroke="#090" stroke-width="5" /><rect fill="#900" height="48" stroke="#900" stroke-width="5" transform="rotate(0,1029.0,203.0)" width="32" x="1013.0" y="179.0" /><rect fill="#900" height="48" stroke="#900" stroke-width="5" transform="rotate(0,1031.0,351.0)" width="32" x="1015.0" y="327.0" /><rect fill="#900" height="48" stroke="#900" stroke-width="5" transform="rotate(0,1031.0,497.0)" width="32" x="1015.0" y="473.0" /><circle cx="1255.0" cy="325.0" fill="#009" r="16" stroke="#009" stroke-width="5" /><circle cx="1447.0" cy="75.0" fill="#009" r="16" stroke="#009" stroke-width="5" /><circle cx="1069.0" cy="203.0" fill="#009" r="16" stroke="#009" stroke-width="5" /><rect fill="#900" height="48" stroke="#900" stroke-width="5" transform="rotate(270,1605.0,977.0)" width="32" x="1589.0" y="953.0" /><rect fill="#900" height="48" stroke="#900" stroke-width="5" transform="rotate(270,1679.0,975.0)" width="32" x="1663.0" y="951.0" /><rect fill="#900" height="48" stroke="#900" stroke-width="5" transform="rotate(270,1679.0,909.0)" width="32" x="1663.0" y="885.0" /><rect fill="#900" height="48" stroke="#900" stroke-width="5" transform="rotate(270,1733.0,979.0)" width="32" x="1717.0" y="955.0" /><rect fill="#090" height="24" stroke="#090" stroke-width="5" transform="rotate(270,1623.0,809.0)" width="24" x="1611.0" y="797.0" /><rect fill="#900" height="48" stroke="#900" stroke-width="5" transform="rotate(180,1603.0,693.0)" width="32" x="1587.0" y="669.0" /><rect fill="#900" height="48" stroke="#900" stroke-width="5" transform="rotate(180,1725.0,665.0)" width="32" x="1709.0" y="641.0" /><rect fill="#900" height="48" stroke="#900" stroke-width="5" transform="rotate(180,1727.0,715.0)" width="32" x="1711.0" y="691.0" /><circle cx="1517.0" cy="971.0" fill="#009" r="16" stroke="#009" stroke-width="5" /><circle cx="1251.0" cy="249.0" fill="#090" r="16" stroke="#090" stroke-width="5" /><circle cx="1255.0" cy="379.0" fill="#090" r="16" stroke="#090" stroke-width="5" /><circle cx="1257.0" cy="453.0" fill="#090" r="16" stroke="#090" stroke-width="5" /><circle cx="1251.0" cy="189.0" fill="#090" r="16" stroke="#090" stroke-width="5" /><circle cx="1249.0" cy="133.0" fill="#090" r="16" stroke="#090" stroke-width="5" /><circle cx="487.0" cy="489.0" fill="#090" r="16" stroke="#090" stroke-width="5" /><circle cx="507.0" cy="917.0" fill="#090" r="16" stroke="#090" stroke-width="5" /><circle cx="103.0" cy="687.0" fill="#090" r="16" stroke="#090" stroke-width="5" /><circle cx="1791.0" cy="653.0" fill="#090" r="16" stroke="#090" stroke-width="5" /><circle cx="1671.0" cy="857.0" fill="#090" r="16" stroke="#090" stroke-width="5" /><rect fill="#090" height="24" stroke="#090" stroke-width="5" transform="rotate(0,411.0,497.0)" width="24" x="399.0" y="485.0" /><circle cx="437.0" cy="497.0" fill="#900" r="16" stroke="#900" stroke-width="5" /><rect fill="#900" height="48" stroke="#900" stroke-width="5" transform="rotate(180,1683.0,661.0)" width="32" x="1667.0" y="637.0" /><rect fill="#900" height="48" stroke="#900" stroke-width="5" transform="rotate(225,1677.0,727.0)" width="32" x="1661.0" y="703.0" /><rect fill="#900" height="48" stroke="#900" stroke-width="5" transform="rotate(90,1249.0,91.0)" width="32" x="1233.0" y="67.0" /><rect fill="#900" height="48" stroke="#900" stroke-width="5" transform="rotate(270,1567.0,863.0)" width="32" x="1551.0" y="839.0" /><circle cx="1557.0" cy="919.0" fill="#009" r="16" stroke="#009" stroke-width="5" /><rect fill="#900" height="48" stroke="#900" stroke-width="5" transform="rotate(180,1953.0,495.0)" width="32" x="1937.0" y="471.0" /><rect fill="#900" height="48" stroke="#900" stroke-width="5" transform="rotate(180,1941.0,293.0)" width="32" x="1925.0" y="269.0" /><rect fill="#900" height="48" stroke="#900" stroke-width="5" transform="rotate(0,1793.0,441.0)" width="32" x="1777.0" y="417.0" /><rect fill="#900" height="48" stroke="#900" stroke-width="5" transform="rotate(180,1789.0,507.0)" width="32" x="1773.0" y="483.0" /><rect fill="#900" height="48" stroke="#900" stroke-width="5" transform="rotate(0,1833.0,477.0)" width="32" x="1817.0" y="453.0" /><rect fill="#900" height="48" stroke="#900" stroke-width="5" transform="rotate(90,1641.0,309.0)" width="32" x="1625.0" y="285.0" /><rect fill="#900" height="48" stroke="#900" stroke-width="5" transform="rotate(45,2237.0,533.0)" width="32" x="2221.0" y="509.0" /><rect fill="#900" height="48" stroke="#900" stroke-width="5" transform="rotate(0,2237.0,289.0)" width="32" x="2221.0" y="265.0" /><rect fill="#900" height="48" stroke="#900" stroke-width="5" transform="rotate(0,2231.0,373.0)" width="32" x="2215.0" y="349.0" /><rect fill="#090" height="24" stroke="#090" stroke-width="5" transform="rotate(90,2057.0,453.0)" width="24" x="2045.0" y="441.0" /><rect fill="#900" height="48" stroke="#900" stroke-width="5" transform="rotate(90,2091.0,385.0)" width="32" x="2075.0" y="361.0" /><rect fill="#090" height="24" stroke="#090" stroke-width="5" transform="rotate(0,2089.0,297.0)" width="24" x="2077.0" y="285.0" /><rect fill="#090" height="24" stroke="#090" stroke-width="5" transform="rotate(0,1563.0,843.0)" width="24" x="1551.0" y="831.0" /><circle cx="1833.0" cy="435.0" fill="#090" r="16" stroke="#090" stroke-width="5" /><circle cx="2005.0" cy="361.0" fill="#090" r="16" stroke="#090" stroke-width="5" /><circle cx="2167.0" cy="353.0" fill="#090" r="16" stroke="#090" stroke-width="5" /><circle cx="2165.0" cy="521.0" fill="#090" r="16" stroke="#090" stroke-width="5" /><circle cx="2017.0" cy="293.0" fill="#090" r="16" stroke="#090" stroke-width="5" /><circle cx="2017.0" cy="527.0" fill="#090" r="16" stroke="#090" stroke-width="5" /><circle cx="2189.0" cy="439.0" fill="#009" r="16" stroke="#009" stroke-width="5" /><circle cx="2161.0" cy="281.0" fill="#009" r="16" stroke="#009" stroke-width="5" /><circle cx="1965.0" cy="431.0" fill="#009" r="16" stroke="#009" stroke-width="5" /><circle cx="2087.0" cy="539.0" fill="#009" r="16" stroke="#009" stroke-width="5" /><circle cx="2257.0" cy="465.0" fill="#009" r="16" stroke="#009" stroke-width="5" /><ellipse cx="1929.0" cy="389.0" fill="#900" rx="12" ry="24" stroke="#900" stroke-width="5" /><ellipse cx="1927.0" cy="549.0" fill="#900" rx="12" ry="24" stroke="#900" stroke-width="5" /><rect fill="#090" height="24" stroke="#090" stroke-width="5" transform="rotate(0,1605.0,257.0)" width="24" x="1593.0" y="245.0" /><rect fill="#090" height="24" stroke="#090" stroke-width="5" transform="rotate(0,2117.0,455.0)" width="24" x="2105.0" y="443.0" /><rect fill="#900" height="48" stroke="#900" stroke-width="5" transform="rotate(135,1763.0,305.0)" width="32" x="1747.0" y="281.0" /><rect fill="#900" height="48" stroke="#900" stroke-width="5" transform="rotate(180,1941.0,725.0)" width="32" x="1925.0" y="701.0" /><rect fill="#900" height="48" stroke="#900" stroke-width="5" transform="rotate(0,1941.0,661.0)" width="32" x="1925.0" y="637.0" /></svg>