<?xml version="1.0" encoding="utf-8" ?>
<svg baseProfile="tiny" height="767" version="1.2" viewBox="0 0 1586 1189" width="1024" xmlns="http://www.w3.org/2000/svg" xmlns:ev="http://www.w3.org/2001/xml-events" xmlns:xlink="http://www.w3.org/1999/xlink"><defs /><line stroke="#333" stroke-width="10" x1="517.0" x2="389.0" y1="5.0" y2="5.0" /><line stroke="#333" stroke-width="10" x1="517.0" x2="517.0" y1="213.0" y2="5.0" /><line stroke="#333" stroke-width="10" x1="389.0" x2="389.0" y1="5.0" y2="213.0" /><line stroke="#999" stroke-width="3" x1="389.0" x2="389.0" y1="213.0" y2="246.0" /><line stroke="#999" stroke-width="3" x1="389.0" x2="517.0" y1="213.0" y2="213.0" /><line stroke="#999" stroke-width="3" x1="517.0" x2="517.0" y1="246.0" y2="213.0" /><line stroke="#999" stroke-width="3" x1="389.0" x2="389.0" y1="246.0" y2="278.0" /><line stroke="#999" stroke-width="3" x1="517.0" x2="389.0" y1="246.0" y2="246.0" /><line stroke="#999" stroke-width="3" x1="517.0" x2="517.0" y1="278.0" y2="246.0" /><line stroke="#999" stroke-width="3" x1="389.0" x2="389.0" y1="278.0" y2="310.0" /><line stroke="#999" stroke-width="3" x1="517.0" x2="389.0" y1="278.0" y2="278.0" /><line stroke="#999" stroke-width="3" x1="517.0" x2="517.0" y1="310.0" y2="278.0" /><line stroke="#999" stroke-width="3" x1="389.0" x2="389.0" y1="310.0" y2="340.0" /><line stroke="#999" stroke-width="3" x1="517.0" x2="389.0" y1="310.0" y2="310.0" /><line stroke="#999" stroke-width="3" x1="517.0" x2="517.0" y1="340.0" y2="310.0" /><line stroke="#999" stroke-width="3" x1="389.0" x2="389.0" y1="340.0" y2="372.0" /><line stroke="#999" stroke-width="3" x1="517.0" x2="389.0" y1="340.0" y2="340.0" /><line stroke="#999" stroke-width="3" x1="517.0" x2="517.0" y1="372.0" y2="340.0" /><line stroke="#999" stroke-width="3" x1="389.0" x2="389.0" y1="372.0" y2="405.0" /><line stroke="#999" stroke-width="3" x1="517.0" x2="389.0" y1="372.0" y2="372.0" /><line stroke="#999" stroke-width="3" x1="517.0" x2="517.0" y1="405.0" y2="372.0" /><line stroke="#999" stroke-width="3" x1="389.0" x2="389.0" y1="405.0" y2="430.0" /><line stroke="#999" stroke-width="3" x1="517.0" x2="389.0" y1="405.0" y2="405.0" /><line stroke="#999" stroke-width="3" x1="517.0" x2="517.0" y1="430.0" y2="405.0" /><line stroke="#999" stroke-width="3" x1="389.0" x2="517.0" y1="430.0" y2="430.0" /><line stroke="#333" stroke-width="10" x1="389.0" x2="325.0" y1="213.0" y2="213.0" /><line stroke="#999" stroke-width="3" x1="261.0" x2="325.0" y1="341.0" y2="213.0" /><line stroke="#333" stroke-width="10" x1="389.0" x2="517.0" y1="469.0" y2="469.0" /><line stroke="#333" stroke-width="10" x1="517.0" x2="645.0" y1="469.0" y2="341.0" /><line stroke="#333" stroke-width="10" x1="581.0" x2="517.0" y1="213.0" y2="213.0" /><line stroke="#333" stroke-width="10" x1="261.0" x2="389.0" y1="341.0" y2="469.0" /><line stroke="#999" stroke-width="3" x1="645.0" x2="581.0" y1="341.0" y2="213.0" /><line stroke="#333" stroke-width="10" x1="773.0" x2="581.0" y1="213.0" y2="213.0" /><line stroke="#999" stroke-width="3" x1="709.0" x2="773.0" y1="341.0" y2="213.0" /><line stroke="#999" stroke-width="3" x1="133.0" x2="197.0" y1="213.0" y2="341.0" /><line stroke="#333" stroke-width="10" x1="325.0" x2="133.0" y1="213.0" y2="213.0" /><line stroke="#333" stroke-width="10" x1="837.0" x2="773.0" y1="341.0" y2="213.0" /><line stroke="#333" stroke-width="10" x1="901.0" x2="837.0" y1="597.0" y2="341.0" /><line stroke="#333" stroke-width="10" x1="901.0" x2="901.0" y1="661.0" y2="597.0" /><line stroke="#999" stroke-width="3" x1="901.0" x2="901.0" y1="725.0" y2="661.0" /><line stroke="#333" stroke-width="10" x1="901.0" x2="901.0" y1="789.0" y2="725.0" /><line stroke="#333" stroke-width="10" x1="837.0" x2="901.0" y1="1109.0" y2="789.0" /><line stroke="#333" stroke-width="10" x1="645.0" x2="837.0" y1="1173.0" y2="1109.0" /><line stroke="#333" stroke-width="10" x1="517.0" x2="645.0" y1="1173.0" y2="1173.0" /><line stroke="#333" stroke-width="10" x1="261.0" x2="389.0" y1="1173.0" y2="1173.0" /><line stroke="#333" stroke-width="10" x1="69.0" x2="261.0" y1="1109.0" y2="1173.0" /><line stroke="#333" stroke-width="10" x1="5.0" x2="69.0" y1="789.0" y2="1109.0" /><line stroke="#333" stroke-width="10" x1="5.0" x2="5.0" y1="597.0" y2="789.0" /><line stroke="#333" stroke-width="10" x1="69.0" x2="5.0" y1="341.0" y2="597.0" /><line stroke="#333" stroke-width="10" x1="133.0" x2="69.0" y1="213.0" y2="341.0" /><line stroke="#333" stroke-width="10" x1="133.0" x2="197.0" y1="597.0" y2="341.0" /><line stroke="#999" stroke-width="3" x1="133.0" x2="133.0" y1="789.0" y2="597.0" /><line stroke="#333" stroke-width="10" x1="197.0" x2="133.0" y1="1045.0" y2="789.0" /><line stroke="#333" stroke-width="10" x1="261.0" x2="197.0" y1="1045.0" y2="1045.0" /><line stroke="#333" stroke-width="10" x1="325.0" x2="261.0" y1="981.0" y2="1045.0" /><line stroke="#999" stroke-width="3" x1="389.0" x2="325.0" y1="917.0" y2="981.0" /><line stroke="#999" stroke-width="3" x1="325.0" x2="389.0" y1="917.0" y2="917.0" /><line stroke="#333" stroke-width="10" x1="261.0" x2="325.0" y1="917.0" y2="917.0" /><line stroke="#999" stroke-width="3" x1="325.0" x2="261.0" y1="853.0" y2="917.0" /><line stroke="#333" stroke-width="10" x1="325.0" x2="325.0" y1="789.0" y2="853.0" /><line stroke="#333" stroke-width="10" x1="261.0" x2="325.0" y1="789.0" y2="789.0" /><line stroke="#999" stroke-width="3" x1="197.0" x2="261.0" y1="789.0" y2="789.0" /><line stroke="#999" stroke-width="3" x1="197.0" x2="197.0" y1="597.0" y2="789.0" /><line stroke="#999" stroke-width="3" x1="261.0" x2="197.0" y1="597.0" y2="597.0" /><line stroke="#333" stroke-width="10" x1="325.0" x2="261.0" y1="597.0" y2="597.0" /><line stroke="#333" stroke-width="10" x1="325.0" x2="325.0" y1="533.0" y2="597.0" /><line stroke="#999" stroke-width="3" x1="325.0" x2="325.0" y1="469.0" y2="533.0" /><line stroke="#333" stroke-width="10" x1="390.0" x2="325.0" y1="507.0" y2="469.0" /><line stroke="#999" stroke-width="3" x1="389.0" x2="390.0" y1="533.0" y2="507.0" /><line stroke="#999" stroke-width="3" x1="389.0" x2="389.0" y1="626.0" y2="562.0" /><line stroke="#999" stroke-width="3" x1="517.0" x2="487.0" y1="626.0" y2="626.0" /><line stroke="#999" stroke-width="3" x1="517.0" x2="517.0" y1="533.0" y2="562.0" /><line stroke="#999" stroke-width="3" x1="519.0" x2="517.0" y1="507.0" y2="533.0" /><line stroke="#333" stroke-width="10" x1="581.0" x2="519.0" y1="469.0" y2="507.0" /><line stroke="#999" stroke-width="3" x1="581.0" x2="581.0" y1="533.0" y2="469.0" /><line stroke="#333" stroke-width="10" x1="581.0" x2="581.0" y1="597.0" y2="533.0" /><line stroke="#333" stroke-width="10" x1="645.0" x2="581.0" y1="597.0" y2="597.0" /><line stroke="#999" stroke-width="3" x1="709.0" x2="645.0" y1="597.0" y2="597.0" /><line stroke="#999" stroke-width="3" x1="709.0" x2="709.0" y1="789.0" y2="597.0" /><line stroke="#999" stroke-width="3" x1="645.0" x2="709.0" y1="789.0" y2="789.0" /><line stroke="#333" stroke-width="10" x1="581.0" x2="645.0" y1="789.0" y2="789.0" /><line stroke="#333" stroke-width="10" x1="581.0" x2="581.0" y1="853.0" y2="789.0" /><line stroke="#999" stroke-width="3" x1="645.0" x2="581.0" y1="917.0" y2="853.0" /><line stroke="#333" stroke-width="10" x1="581.0" x2="645.0" y1="917.0" y2="917.0" /><line stroke="#999" stroke-width="3" x1="517.0" x2="581.0" y1="917.0" y2="917.0" /><line stroke="#999" stroke-width="3" x1="581.0" x2="517.0" y1="981.0" y2="917.0" /><line stroke="#333" stroke-width="10" x1="645.0" x2="581.0" y1="1045.0" y2="981.0" /><line stroke="#333" stroke-width="10" x1="709.0" x2="645.0" y1="1045.0" y2="1045.0" /><line stroke="#333" stroke-width="10" x1="773.0" x2="709.0" y1="789.0" y2="1045.0" /><line stroke="#999" stroke-width="3" x1="773.0" x2="773.0" y1="597.0" y2="789.0" /><line stroke="#333" stroke-width="10" x1="709.0" x2="773.0" y1="341.0" y2="597.0" /><line stroke="#999" stroke-width="3" x1="389.0" x2="389.0" y1="562.0" y2="533.0" /><line stroke="#999" stroke-width="3" x1="517.0" x2="517.0" y1="562.0" y2="626.0" /><line stroke="#999" stroke-width="3" x1="487.0" x2="418.0" y1="626.0" y2="626.0" /><line stroke="#999" stroke-width="3" x1="418.0" x2="389.0" y1="626.0" y2="626.0" /><line stroke="#999" stroke-width="3" x1="517.0" x2="389.0" y1="533.0" y2="533.0" /><line stroke="#999" stroke-width="3" x1="487.0" x2="517.0" y1="562.0" y2="562.0" /><line stroke="#999" stroke-width="3" x1="418.0" x2="487.0" y1="562.0" y2="562.0" /><line stroke="#999" stroke-width="3" x1="389.0" x2="418.0" y1="562.0" y2="562.0" /><line stroke="#333" stroke-width="10" x1="519.0" x2="390.0" y1="507.0" y2="507.0" /><line stroke="#999" stroke-width="3" x1="418.0" x2="418.0" y1="626.0" y2="562.0" /><line stroke="#999" stroke-width="3" x1="487.0" x2="487.0" y1="562.0" y2="626.0" /><line stroke="#333" stroke-width="10" x1="581.0" x2="645.0" y1="533.0" y2="597.0" /><line stroke="#333" stroke-width="10" x1="645.0" x2="581.0" y1="469.0" y2="469.0" /><line stroke="#333" stroke-width="10" x1="709.0" x2="645.0" y1="597.0" y2="469.0" /><line stroke="#333" stroke-width="10" x1="261.0" x2="197.0" y1="469.0" y2="597.0" /><line stroke="#333" stroke-width="10" x1="325.0" x2="261.0" y1="469.0" y2="469.0" /><line stroke="#333" stroke-width="10" x1="261.0" x2="325.0" y1="597.0" y2="533.0" /><line stroke="#333" stroke-width="10" x1="325.0" x2="261.0" y1="853.0" y2="789.0" /><line stroke="#333" stroke-width="10" x1="197.0" x2="261.0" y1="789.0" y2="917.0" /><line stroke="#333" stroke-width="10" x1="645.0" x2="581.0" y1="789.0" y2="853.0" /><line stroke="#333" stroke-width="10" x1="645.0" x2="709.0" y1="917.0" y2="789.0" /><line stroke="#333" stroke-width="10" x1="325.0" x2="325.0" y1="917.0" y2="981.0" /><line stroke="#333" stroke-width="10" x1="581.0" x2="581.0" y1="981.0" y2="917.0" /><line stroke="#333" stroke-width="10" x1="917.0" x2="901.0" y1="661.0" y2="661.0" /><line stroke="#d00" stroke-width="20" x1="917.0" x2="917.0" y1="725.0" y2="661.0" /><line stroke="#333" stroke-width="10" x1="901.0" x2="917.0" y1="725.0" y2="725.0" /><line stroke="#333" stroke-width="10" x1="645.0" x2="645.0" y1="341.0" y2="405.0" /><line stroke="#999" stroke-width="3" x1="709.0" x2="645.0" y1="341.0" y2="341.0" /><line stroke="#333" stroke-width="10" x1="709.0" x2="709.0" y1="405.0" y2="341.0" /><line stroke="#333" stroke-width="10" x1="645.0" x2="709.0" y1="405.0" y2="405.0" /><line stroke="#333" stroke-width="10" x1="197.0" x2="197.0" y1="341.0" y2="405.0" /><line stroke="#999" stroke-width="3" x1="261.0" x2="197.0" y1="341.0" y2="341.0" /><line stroke="#333" stroke-width="10" x1="261.0" x2="261.0" y1="405.0" y2="341.0" /><line stroke="#333" stroke-width="10" x1="197.0" x2="261.0" y1="405.0" y2="405.0" /><line stroke="#333" stroke-width="10" x1="197.0" x2="133.0" y1="597.0" y2="597.0" /><line stroke="#333" stroke-width="10" x1="133.0" x2="197.0" y1="789.0" y2="789.0" /><line stroke="#333" stroke-width="10" x1="773.0" x2="709.0" y1="597.0" y2="597.0" /><line stroke="#333" stroke-width="10" x1="709.0" x2="773.0" y1="789.0" y2="789.0" /><line stroke="#333" stroke-width="10" x1="389.0" x2="389.0" y1="1173.0" y2="1184.0" /><line stroke="#999" stroke-width="3" x1="517.0" x2="389.0" y1="1173.0" y2="1173.0" /><line stroke="#333" stroke-width="10" x1="517.0" x2="517.0" y1="1184.0" y2="1173.0" /><line stroke="#333" stroke-width="10" x1="389.0" x2="517.0" y1="1184.0" y2="1184.0" /><line stroke="#999" stroke-width="3" x1="422.0" x2="422.0" y1="1053.0" y2="1034.0" /><line stroke="#999" stroke-width="3" x1="422.0" x2="440.0" y1="1034.0" y2="1015.0" /><line stroke="#999" stroke-width="3" x1="440.0" x2="461.0" y1="1015.0" y2="1015.0" /><line stroke="#999" stroke-width="3" x1="461.0" x2="480.0" y1="1015.0" y2="1034.0" /><line stroke="#999" stroke-width="3" x1="480.0" x2="480.0" y1="1034.0" y2="1054.0" /><line stroke="#999" stroke-width="3" x1="480.0" x2="459.0" y1="1054.0" y2="1071.0" /><line stroke="#999" stroke-width="3" x1="459.0" x2="439.0" y1="1071.0" y2="1071.0" /><line stroke="#999" stroke-width="3" x1="439.0" x2="422.0" y1="1071.0" y2="1053.0" /><line stroke="#d00" stroke-width="20" x1="933.0" x2="933.0" y1="661.0" y2="725.0" /><line stroke="#333" stroke-width="10" x1="949.0" x2="933.0" y1="661.0" y2="661.0" /><line stroke="#333" stroke-width="10" x1="949.0" x2="949.0" y1="597.0" y2="661.0" /><line stroke="#333" stroke-width="10" x1="1189.0" x2="949.0" y1="597.0" y2="597.0" /><line stroke="#999" stroke-width="3" x1="1189.0" x2="1189.0" y1="661.0" y2="629.0" /><line stroke="#999" stroke-width="3" x1="1189.0" x2="1189.0" y1="725.0" y2="693.0" /><line stroke="#999" stroke-width="3" x1="1189.0" x2="1189.0" y1="789.0" y2="757.0" /><line stroke="#333" stroke-width="10" x1="949.0" x2="1189.0" y1="789.0" y2="789.0" /><line stroke="#333" stroke-width="10" x1="949.0" x2="949.0" y1="725.0" y2="789.0" /><line stroke="#333" stroke-width="10" x1="933.0" x2="949.0" y1="725.0" y2="725.0" /><line stroke="#333" stroke-width="10" x1="933.0" x2="917.0" y1="661.0" y2="661.0" /><line stroke="#333" stroke-width="10" x1="917.0" x2="933.0" y1="725.0" y2="725.0" /><line stroke="#333" stroke-width="10" x1="997.0" x2="981.0" y1="773.0" y2="773.0" /><line stroke="#333" stroke-width="10" x1="997.0" x2="997.0" y1="741.0" y2="773.0" /><line stroke="#333" stroke-width="10" x1="965.0" x2="997.0" y1="741.0" y2="741.0" /><line stroke="#333" stroke-width="10" x1="965.0" x2="965.0" y1="757.0" y2="741.0" /><line stroke="#333" stroke-width="10" x1="981.0" x2="965.0" y1="773.0" y2="757.0" /><line stroke="#999" stroke-width="3" x1="965.0" x2="965.0" y1="645.0" y2="629.0" /><line stroke="#999" stroke-width="3" x1="965.0" x2="981.0" y1="629.0" y2="613.0" /><line stroke="#999" stroke-width="3" x1="981.0" x2="997.0" y1="613.0" y2="613.0" /><line stroke="#999" stroke-width="3" x1="997.0" x2="997.0" y1="613.0" y2="645.0" /><line stroke="#999" stroke-width="3" x1="997.0" x2="965.0" y1="645.0" y2="645.0" /><line stroke="#999" stroke-width="3" x1="1045.0" x2="1045.0" y1="645.0" y2="613.0" /><line stroke="#999" stroke-width="3" x1="1045.0" x2="1077.0" y1="613.0" y2="613.0" /><line stroke="#999" stroke-width="3" x1="1077.0" x2="1077.0" y1="613.0" y2="645.0" /><line stroke="#999" stroke-width="3" x1="1077.0" x2="1045.0" y1="645.0" y2="645.0" /><line stroke="#999" stroke-width="3" x1="1045.0" x2="1077.0" y1="741.0" y2="741.0" /><line stroke="#999" stroke-width="3" x1="1045.0" x2="1045.0" y1="773.0" y2="741.0" /><line stroke="#999" stroke-width="3" x1="1077.0" x2="1045.0" y1="773.0" y2="773.0" /><line stroke="#999" stroke-width="3" x1="1077.0" x2="1077.0" y1="741.0" y2="773.0" /><line stroke="#999" stroke-width="3" x1="1125.0" x2="1125.0" y1="773.0" y2="741.0" /><line stroke="#999" stroke-width="3" x1="1125.0" x2="1157.0" y1="741.0" y2="741.0" /><line stroke="#999" stroke-width="3" x1="1157.0" x2="1157.0" y1="741.0" y2="757.0" /><line stroke="#999" stroke-width="3" x1="1157.0" x2="1141.0" y1="757.0" y2="773.0" /><line stroke="#999" stroke-width="3" x1="1141.0" x2="1125.0" y1="773.0" y2="773.0" /><line stroke="#999" stroke-width="3" x1="1125.0" x2="1125.0" y1="645.0" y2="613.0" /><line stroke="#999" stroke-width="3" x1="1125.0" x2="1141.0" y1="613.0" y2="613.0" /><line stroke="#999" stroke-width="3" x1="1141.0" x2="1157.0" y1="613.0" y2="629.0" /><line stroke="#999" stroke-width="3" x1="1157.0" x2="1157.0" y1="629.0" y2="645.0" /><line stroke="#999" stroke-width="3" x1="1157.0" x2="1125.0" y1="645.0" y2="645.0" /><line stroke="#999" stroke-width="3" x1="1189.0" x2="1189.0" y1="629.0" y2="597.0" /><line stroke="#999" stroke-width="3" x1="1189.0" x2="1189.0" y1="757.0" y2="725.0" /><line stroke="#999" stroke-width="3" x1="1189.0" x2="1189.0" y1="693.0" y2="661.0" /><line stroke="#333" stroke-width="10" x1="1221.0" x2="1189.0" y1="597.0" y2="597.0" /><line stroke="#999" stroke-width="3" x1="1221.0" x2="1221.0" y1="629.0" y2="597.0" /><line stroke="#999" stroke-width="3" x1="1189.0" x2="1221.0" y1="629.0" y2="629.0" /><line stroke="#999" stroke-width="3" x1="1221.0" x2="1221.0" y1="661.0" y2="629.0" /><line stroke="#999" stroke-width="3" x1="1189.0" x2="1221.0" y1="661.0" y2="661.0" /><line stroke="#999" stroke-width="3" x1="1221.0" x2="1221.0" y1="693.0" y2="661.0" /><line stroke="#999" stroke-width="3" x1="1189.0" x2="1221.0" y1="693.0" y2="693.0" /><line stroke="#999" stroke-width="3" x1="1221.0" x2="1221.0" y1="725.0" y2="693.0" /><line stroke="#999" stroke-width="3" x1="1189.0" x2="1221.0" y1="725.0" y2="725.0" /><line stroke="#999" stroke-width="3" x1="1221.0" x2="1221.0" y1="757.0" y2="725.0" /><line stroke="#999" stroke-width="3" x1="1189.0" x2="1221.0" y1="757.0" y2="757.0" /><line stroke="#999" stroke-width="3" x1="1221.0" x2="1221.0" y1="789.0" y2="757.0" /><line stroke="#333" stroke-width="10" x1="1189.0" x2="1221.0" y1="789.0" y2="789.0" /><line stroke="#333" stroke-width="10" x1="1509.0" x2="1221.0" y1="597.0" y2="597.0" /><line stroke="#333" stroke-width="10" x1="1509.0" x2="1509.0" y1="661.0" y2="597.0" /><line stroke="#999" stroke-width="3" x1="1381.0" x2="1509.0" y1="629.0" y2="661.0" /><line stroke="#999" stroke-width="3" x1="1429.0" x2="1381.0" y1="661.0" y2="629.0" /><line stroke="#999" stroke-width="3" x1="1317.0" x2="1429.0" y1="645.0" y2="661.0" /><line stroke="#999" stroke-width="3" x1="1397.0" x2="1317.0" y1="677.0" y2="645.0" /><line stroke="#999" stroke-width="3" x1="1301.0" x2="1397.0" y1="693.0" y2="677.0" /><line stroke="#999" stroke-width="3" x1="1397.0" x2="1301.0" y1="709.0" y2="693.0" /><line stroke="#999" stroke-width="3" x1="1317.0" x2="1397.0" y1="741.0" y2="709.0" /><line stroke="#999" stroke-width="3" x1="1429.0" x2="1317.0" y1="725.0" y2="741.0" /><line stroke="#999" stroke-width="3" x1="1381.0" x2="1429.0" y1="757.0" y2="725.0" /><line stroke="#999" stroke-width="3" x1="1509.0" x2="1381.0" y1="725.0" y2="757.0" /><line stroke="#333" stroke-width="10" x1="1509.0" x2="1509.0" y1="789.0" y2="725.0" /><line stroke="#333" stroke-width="10" x1="1221.0" x2="1509.0" y1="789.0" y2="789.0" /><line stroke="#999" stroke-width="3" x1="1509.0" x2="1509.0" y1="725.0" y2="661.0" /><line stroke="#333" stroke-width="10" x1="1517.0" x2="1509.0" y1="661.0" y2="661.0" /><line stroke="#0d0" stroke-width="20" x1="1517.0" x2="1517.0" y1="725.0" y2="661.0" /><line stroke="#333" stroke-width="10" x1="1509.0" x2="1517.0" y1="725.0" y2="725.0" /><line stroke="#333" stroke-width="10" x1="1581.0" x2="1517.0" y1="677.0" y2="661.0" /><line stroke="#333" stroke-width="10" x1="1581.0" x2="1581.0" y1="709.0" y2="677.0" /><line stroke="#333" stroke-width="10" x1="1517.0" x2="1581.0" y1="725.0" y2="709.0" /><rect fill="#090" height="24" stroke="#090" stroke-width="5" transform="rotate(0,679.0,371.0)" width="24" x="667.0" y="359.0" /><rect fill="#090" height="24" stroke="#090" stroke-width="5" transform="rotate(0,229.0,375.0)" width="24" x="217.0" y="363.0" /><rect fill="#090" height="24" stroke="#090" stroke-width="5" transform="rotate(0,564.0,936.0)" width="24" x="552.0" y="924.0" /><rect fill="#090" height="24" stroke="#090" stroke-width="5" transform="rotate(0,347.0,934.0)" width="24" x="335.0" y="922.0" /><rect fill="#090" height="24" stroke="#090" stroke-width="5" transform="rotate(0,645.0,533.0)" width="24" x="633.0" y="521.0" /><ellipse cx="453.0" cy="53.0" fill="#009" rx="12" ry="24" stroke="#009" stroke-width="5" /><ellipse cx="421.0" cy="117.0" fill="#009" rx="12" ry="24" stroke="#009" stroke-width="5" /><ellipse cx="485.0" cy="117.0" fill="#009" rx="12" ry="24" stroke="#009" stroke-width="5" /><ellipse cx="453.0" cy="181.0" fill="#009" rx="12" ry="24" stroke="#009" stroke-width="5" /><rect fill="#090" height="24" stroke="#090" stroke-width="5" transform="rotate(0,83.0,683.0)" width="24" x="71.0" y="671.0" /><rect fill="#090" height="24" stroke="#090" stroke-width="5" transform="rotate(180,833.0,683.0)" width="24" x="821.0" y="671.0" /><rect fill="#090" height="24" stroke="#090" stroke-width="5" transform="rotate(90,453.0,117.0)" width="24" x="441.0" y="105.0" /><rect fill="#090" height="24" stroke="#090" stroke-width="5" transform="rotate(270,398.0,1085.0)" width="24" x="386.0" y="1073.0" /><circle cx="451.0" cy="1043.0" fill="#009" r="16" stroke="#009" stroke-width="5" /><circle cx="354.0" cy="385.0" fill="#009" r="16" stroke="#009" stroke-width="5" /><circle cx="550.0" cy="385.0" fill="#009" r="16" stroke="#009" stroke-width="5" /><circle cx="454.0" cy="449.0" fill="#900" r="16" stroke="#900" stroke-width="5" /><circle cx="674.0" cy="321.0" fill="#090" r="16" stroke="#090" stroke-width="5" /><circle cx="69.0" cy="533.0" fill="#090" r="16" stroke="#090" stroke-width="5" /><rect fill="#900" height="48" stroke="#900" stroke-width="5" transform="rotate(90,453.0,853.0)" width="32" x="437.0" y="829.0" /><rect fill="#900" height="48" stroke="#900" stroke-width="5" transform="rotate(90,389.0,821.0)" width="32" x="373.0" y="797.0" /><rect fill="#900" height="48" stroke="#900" stroke-width="5" transform="rotate(90,517.0,821.0)" width="32" x="501.0" y="797.0" /><circle cx="581.0" cy="277.0" fill="#090" r="16" stroke="#090" stroke-width="5" /><circle cx="325.0" cy="277.0" fill="#090" r="16" stroke="#090" stroke-width="5" /><rect fill="#090" height="24" stroke="#090" stroke-width="5" transform="rotate(0,1141.0,757.0)" width="24" x="1129.0" y="745.0" /><rect fill="#090" height="24" stroke="#090" stroke-width="5" transform="rotate(0,981.0,757.0)" width="24" x="969.0" y="745.0" /><rect fill="#090" height="24" stroke="#090" stroke-width="5" transform="rotate(0,981.0,629.0)" width="24" x="969.0" y="617.0" /><rect fill="#090" height="24" stroke="#090" stroke-width="5" transform="rotate(0,1141.0,629.0)" width="24" x="1129.0" y="617.0" /><rect fill="#090" height="24" stroke="#090" stroke-width="5" transform="rotate(0,1061.0,757.0)" width="24" x="1049.0" y="745.0" /><rect fill="#090" height="24" stroke="#090" stroke-width="5" transform="rotate(0,1061.0,629.0)" width="24" x="1049.0" y="617.0" /><rect fill="#090" height="24" stroke="#090" stroke-width="5" transform="rotate(0,1477.0,629.0)" width="24" x="1465.0" y="617.0" /><rect fill="#090" height="24" stroke="#090" stroke-width="5" transform="rotate(0,1477.0,757.0)" width="24" x="1465.0" y="745.0" /><rect fill="#090" height="24" stroke="#090" stroke-width="5" transform="rotate(0,1261.0,781.0)" width="24" x="1249.0" y="769.0" /><rect fill="#090" height="24" stroke="#090" stroke-width="5" transform="rotate(0,1429.0,781.0)" width="24" x="1417.0" y="769.0" /><rect fill="#090" height="24" stroke="#090" stroke-width="5" transform="rotate(0,1429.0,605.0)" width="24" x="1417.0" y="593.0" /><rect fill="#090" height="24" stroke="#090" stroke-width="5" transform="rotate(0,1261.0,605.0)" width="24" x="1249.0" y="593.0" /><rect fill="#090" height="24" stroke="#090" stroke-width="5" transform="rotate(0,1101.0,605.0)" width="24" x="1089.0" y="593.0" /><rect fill="#090" height="24" stroke="#090" stroke-width="5" transform="rotate(0,1021.0,605.0)" width="24" x="1009.0" y="593.0" /><rect fill="#090" height="24" stroke="#090" stroke-width="5" transform="rotate(0,1101.0,781.0)" width="24" x="1089.0" y="769.0" /><rect fill="#090" height="24" stroke="#090" stroke-width="5" transform="rotate(0,1021.0,781.0)" width="24" x="1009.0" y="769.0" /><rect fill="#090" height="24" stroke="#090" stroke-width="5" transform="rotate(0,957.0,693.0)" width="24" x="945.0" y="681.0" /><rect fill="#090" height="24" stroke="#090" stroke-width="5" transform="rotate(0,1005.0,693.0)" width="24" x="993.0" y="681.0" /><rect fill="#090" height="24" stroke="#090" stroke-width="5" transform="rotate(0,1053.0,693.0)" width="24" x="1041.0" y="681.0" /><rect fill="#090" height="24" stroke="#090" stroke-width="5" transform="rotate(0,1101.0,693.0)" width="24" x="1089.0" y="681.0" /><rect fill="#090" height="24" stroke="#090" stroke-width="5" transform="rotate(0,1149.0,693.0)" width="24" x="1137.0" y="681.0" /><rect fill="#090" height="24" stroke="#090" stroke-width="5" transform="rotate(0,1245.0,693.0)" width="24" x="1233.0" y="681.0" /><rect fill="#090" height="24" stroke="#090" stroke-width="5" transform="rotate(0,1293.0,693.0)" width="24" x="1281.0" y="681.0" /><rect fill="#090" height="24" stroke="#090" stroke-width="5" transform="rotate(0,1197.0,693.0)" width="24" x="1185.0" y="681.0" /><rect fill="#900" height="48" stroke="#900" stroke-width="5" transform="rotate(90,453.0,789.0)" width="32" x="437.0" y="765.0" /><rect fill="#900" height="48" stroke="#900" stroke-width="5" transform="rotate(90,453.0,725.0)" width="32" x="437.0" y="701.0" /></svg>