<?xml version="1.0" encoding="utf-8" ?>
<svg baseProfile="tiny" height="1024" version="1.2" viewBox="0 0 410 2074" width="202" xmlns="http://www.w3.org/2000/svg" xmlns:ev="http://www.w3.org/2001/xml-events" xmlns:xlink="http://www.w3.org/1999/xlink"><defs /><line stroke="#0d0" stroke-width="20" x1="245.0" x2="165.0" y1="5.0" y2="5.0" /><line stroke="#333" stroke-width="10" x1="405.0" x2="405.0" y1="2069.0" y2="5.0" /><line stroke="#333" stroke-width="10" x1="405.0" x2="245.0" y1="5.0" y2="5.0" /><line stroke="#333" stroke-width="10" x1="5.0" x2="405.0" y1="2069.0" y2="2069.0" /><line stroke="#333" stroke-width="10" x1="165.0" x2="21.0" y1="5.0" y2="21.0" /><line stroke="#333" stroke-width="10" x1="21.0" x2="5.0" y1="21.0" y2="2069.0" /><ellipse cx="181.0" cy="1957.0" fill="#009" rx="12" ry="24" stroke="#009" stroke-width="5" /><rect fill="#090" height="24" stroke="#090" stroke-width="5" transform="rotate(0,85.0,1989.0)" width="24" x="73.0" y="1977.0" /><rect fill="#090" height="24" stroke="#090" stroke-width="5" transform="rotate(0,85.0,117.0)" width="24" x="73.0" y="105.0" /><rect fill="#090" height="24" stroke="#090" stroke-width="5" transform="rotate(0,325.0,85.0)" width="24" x="313.0" y="73.0" /><ellipse cx="69.0" cy="2037.0" fill="#009" rx="12" ry="24" stroke="#009" stroke-width="5" /><ellipse cx="309.0" cy="2021.0" fill="#009" rx="12" ry="24" stroke="#009" stroke-width="5" /><rect fill="#900" height="48" stroke="#900" stroke-width="5" transform="rotate(90,181.0,85.0)" width="32" x="165.0" y="61.0" /><ellipse cx="373.0" cy="2021.0" fill="#009" rx="12" ry="24" stroke="#009" stroke-width="5" /><rect fill="#090" height="24" stroke="#090" stroke-width="5" transform="rotate(0,341.0,2005.0)" width="24" x="329.0" y="1993.0" /><rect fill="#900" height="48" stroke="#900" stroke-width="5" transform="rotate(90,181.0,149.0)" width="32" x="165.0" y="125.0" /><circle cx="165.0" cy="1893.0" fill="#900" r="16" stroke="#900" stroke-width="5" /><circle cx="165.0" cy="1813.0" fill="#090" r="16" stroke="#090" stroke-width="5" /><circle cx="165.0" cy="1733.0" fill="#090" r="16" stroke="#090" stroke-width="5" /><rect fill="#900" height="48" stroke="#900" stroke-width="5" transform="rotate(0,181.0,213.0)" width="32" x="165.0" y="189.0" /><rect fill="#900" height="48" stroke="#900" stroke-width="5" transform="rotate(0,181.0,277.0)" width="32" x="165.0" y="253.0" /><rect fill="#900" height="48" stroke="#900" stroke-width="5" transform="rotate(0,181.0,405.0)" width="32" x="165.0" y="381.0" /><rect fill="#900" height="48" stroke="#900" stroke-width="5" transform="rotate(0,181.0,469.0)" width="32" x="165.0" y="445.0" /><rect fill="#900" height="48" stroke="#900" stroke-width="5" transform="rotate(0,181.0,533.0)" width="32" x="165.0" y="509.0" /><rect fill="#900" height="48" stroke="#900" stroke-width="5" transform="rotate(90,181.0,341.0)" width="32" x="165.0" y="317.0" /></svg>