<?xml version="1.0" encoding="utf-8" ?>
<svg baseProfile="tiny" height="517" version="1.2" viewBox="0 0 7370 3722" width="1024" xmlns="http://www.w3.org/2000/svg" xmlns:ev="http://www.w3.org/2001/xml-events" xmlns:xlink="http://www.w3.org/1999/xlink"><defs /><line stroke="#333" stroke-width="10" x1="5893.0" x2="5381.0" y1="2181.0" y2="2181.0" /><line stroke="#333" stroke-width="10" x1="6341.0" x2="5893.0" y1="2373.0" y2="2181.0" /><line stroke="#333" stroke-width="10" x1="6597.0" x2="6341.0" y1="2629.0" y2="2373.0" /><line stroke="#333" stroke-width="10" x1="6597.0" x2="6597.0" y1="3013.0" y2="2629.0" /><line stroke="#333" stroke-width="10" x1="6405.0" x2="6597.0" y1="3525.0" y2="3013.0" /><line stroke="#333" stroke-width="10" x1="6213.0" x2="6405.0" y1="3653.0" y2="3525.0" /><line stroke="#333" stroke-width="10" x1="5741.0" x2="6213.0" y1="3711.0" y2="3653.0" /><line stroke="#0d0" stroke-width="20" x1="5381.0" x2="5741.0" y1="3589.0" y2="3711.0" /><line stroke="#0d0" stroke-width="20" x1="5391.0" x2="5381.0" y1="3221.0" y2="3589.0" /><line stroke="#0d0" stroke-width="20" x1="5701.0" x2="5391.0" y1="3051.0" y2="3221.0" /><line stroke="#333" stroke-width="10" x1="5901.0" x2="5701.0" y1="3131.0" y2="3051.0" /><line stroke="#333" stroke-width="10" x1="6021.0" x2="5901.0" y1="3013.0" y2="3131.0" /><line stroke="#333" stroke-width="10" x1="6021.0" x2="6021.0" y1="2757.0" y2="3013.0" /><line stroke="#333" stroke-width="10" x1="5765.0" x2="6021.0" y1="2629.0" y2="2757.0" /><line stroke="#333" stroke-width="10" x1="5509.0" x2="5765.0" y1="2693.0" y2="2629.0" /><line stroke="#333" stroke-width="10" x1="5189.0" x2="5509.0" y1="2949.0" y2="2693.0" /><line stroke="#333" stroke-width="10" x1="5061.0" x2="5189.0" y1="3141.0" y2="2949.0" /><line stroke="#333" stroke-width="10" x1="4933.0" x2="5061.0" y1="3525.0" y2="3141.0" /><line stroke="#333" stroke-width="10" x1="4549.0" x2="4933.0" y1="3589.0" y2="3525.0" /><line stroke="#333" stroke-width="10" x1="4357.0" x2="4549.0" y1="3461.0" y2="3589.0" /><line stroke="#333" stroke-width="10" x1="3973.0" x2="4357.0" y1="3141.0" y2="3461.0" /><line stroke="#333" stroke-width="10" x1="3781.0" x2="3973.0" y1="2757.0" y2="3141.0" /><line stroke="#333" stroke-width="10" x1="3525.0" x2="3781.0" y1="2501.0" y2="2757.0" /><line stroke="#333" stroke-width="10" x1="3461.0" x2="3525.0" y1="2245.0" y2="2501.0" /><line stroke="#333" stroke-width="10" x1="3589.0" x2="3461.0" y1="1861.0" y2="2245.0" /><line stroke="#333" stroke-width="10" x1="3845.0" x2="3589.0" y1="1669.0" y2="1861.0" /><line stroke="#333" stroke-width="10" x1="4037.0" x2="3845.0" y1="1477.0" y2="1669.0" /><line stroke="#333" stroke-width="10" x1="4165.0" x2="4037.0" y1="1413.0" y2="1477.0" /><line stroke="#333" stroke-width="10" x1="3973.0" x2="4165.0" y1="1157.0" y2="1413.0" /><line stroke="#333" stroke-width="10" x1="3653.0" x2="3973.0" y1="1029.0" y2="1157.0" /><line stroke="#333" stroke-width="10" x1="3717.0" x2="3653.0" y1="709.0" y2="1029.0" /><line stroke="#333" stroke-width="10" x1="4037.0" x2="3717.0" y1="709.0" y2="709.0" /><line stroke="#333" stroke-width="10" x1="4485.0" x2="4037.0" y1="709.0" y2="709.0" /><line stroke="#333" stroke-width="10" x1="4741.0" x2="4485.0" y1="773.0" y2="709.0" /><line stroke="#333" stroke-width="10" x1="4805.0" x2="4741.0" y1="1029.0" y2="773.0" /><line stroke="#333" stroke-width="10" x1="4485.0" x2="4805.0" y1="1157.0" y2="1029.0" /><line stroke="#333" stroke-width="10" x1="4421.0" x2="4485.0" y1="1413.0" y2="1157.0" /><line stroke="#333" stroke-width="10" x1="4613.0" x2="4421.0" y1="1413.0" y2="1413.0" /><line stroke="#333" stroke-width="10" x1="4997.0" x2="4613.0" y1="1349.0" y2="1413.0" /><line stroke="#333" stroke-width="10" x1="5125.0" x2="4997.0" y1="965.0" y2="1349.0" /><line stroke="#333" stroke-width="10" x1="5125.0" x2="5125.0" y1="709.0" y2="965.0" /><line stroke="#333" stroke-width="10" x1="4997.0" x2="5125.0" y1="517.0" y2="709.0" /><line stroke="#333" stroke-width="10" x1="4805.0" x2="4997.0" y1="453.0" y2="517.0" /><line stroke="#333" stroke-width="10" x1="4485.0" x2="4805.0" y1="453.0" y2="453.0" /><line stroke="#333" stroke-width="10" x1="4101.0" x2="4485.0" y1="389.0" y2="453.0" /><line stroke="#333" stroke-width="10" x1="3717.0" x2="4101.0" y1="389.0" y2="389.0" /><line stroke="#333" stroke-width="10" x1="3333.0" x2="3717.0" y1="389.0" y2="389.0" /><line stroke="#333" stroke-width="10" x1="3205.0" x2="3333.0" y1="517.0" y2="389.0" /><line stroke="#333" stroke-width="10" x1="3397.0" x2="3205.0" y1="837.0" y2="517.0" /><line stroke="#333" stroke-width="10" x1="3461.0" x2="3397.0" y1="1349.0" y2="837.0" /><line stroke="#333" stroke-width="10" x1="3461.0" x2="3461.0" y1="1605.0" y2="1349.0" /><line stroke="#333" stroke-width="10" x1="3269.0" x2="3461.0" y1="1925.0" y2="1605.0" /><line stroke="#333" stroke-width="10" x1="3269.0" x2="3269.0" y1="2501.0" y2="1925.0" /><line stroke="#333" stroke-width="10" x1="3397.0" x2="3269.0" y1="2757.0" y2="2501.0" /><line stroke="#333" stroke-width="10" x1="3525.0" x2="3397.0" y1="3077.0" y2="2757.0" /><line stroke="#333" stroke-width="10" x1="3525.0" x2="3525.0" y1="3525.0" y2="3077.0" /><line stroke="#333" stroke-width="10" x1="3013.0" x2="3525.0" y1="3653.0" y2="3525.0" /><line stroke="#333" stroke-width="10" x1="2309.0" x2="3013.0" y1="3717.0" y2="3653.0" /><line stroke="#333" stroke-width="10" x1="1925.0" x2="2309.0" y1="3525.0" y2="3717.0" /><line stroke="#333" stroke-width="10" x1="1861.0" x2="1925.0" y1="3141.0" y2="3525.0" /><line stroke="#333" stroke-width="10" x1="1733.0" x2="1861.0" y1="2757.0" y2="3141.0" /><line stroke="#333" stroke-width="10" x1="1541.0" x2="1733.0" y1="2373.0" y2="2757.0" /><line stroke="#333" stroke-width="10" x1="1413.0" x2="1541.0" y1="1989.0" y2="2373.0" /><line stroke="#333" stroke-width="10" x1="1669.0" x2="1413.0" y1="1669.0" y2="1989.0" /><line stroke="#333" stroke-width="10" x1="1157.0" x2="1669.0" y1="1861.0" y2="1669.0" /><line stroke="#333" stroke-width="10" x1="901.0" x2="1157.0" y1="1605.0" y2="1861.0" /><line stroke="#333" stroke-width="10" x1="1221.0" x2="901.0" y1="1285.0" y2="1605.0" /><line stroke="#333" stroke-width="10" x1="1221.0" x2="1221.0" y1="901.0" y2="1285.0" /><line stroke="#333" stroke-width="10" x1="1605.0" x2="1221.0" y1="1029.0" y2="901.0" /><line stroke="#333" stroke-width="10" x1="1733.0" x2="1605.0" y1="1285.0" y2="1029.0" /><line stroke="#333" stroke-width="10" x1="1861.0" x2="1733.0" y1="709.0" y2="1285.0" /><line stroke="#333" stroke-width="10" x1="1669.0" x2="1861.0" y1="389.0" y2="709.0" /><line stroke="#333" stroke-width="10" x1="965.0" x2="1669.0" y1="517.0" y2="389.0" /><line stroke="#333" stroke-width="10" x1="1029.0" x2="965.0" y1="1093.0" y2="517.0" /><line stroke="#333" stroke-width="10" x1="581.0" x2="1029.0" y1="1477.0" y2="1093.0" /><line stroke="#333" stroke-width="10" x1="453.0" x2="581.0" y1="1797.0" y2="1477.0" /><line stroke="#333" stroke-width="10" x1="1029.0" x2="453.0" y1="2117.0" y2="1797.0" /><line stroke="#333" stroke-width="10" x1="1349.0" x2="1029.0" y1="2565.0" y2="2117.0" /><line stroke="#333" stroke-width="10" x1="1285.0" x2="1349.0" y1="3205.0" y2="2565.0" /><line stroke="#333" stroke-width="10" x1="851.0" x2="1285.0" y1="3451.0" y2="3205.0" /><line stroke="#0d0" stroke-width="20" x1="491.0" x2="851.0" y1="3511.0" y2="3451.0" /><line stroke="#0d0" stroke-width="20" x1="301.0" x2="491.0" y1="3291.0" y2="3511.0" /><line stroke="#0d0" stroke-width="20" x1="501.0" x2="301.0" y1="2921.0" y2="3291.0" /><line stroke="#333" stroke-width="10" x1="861.0" x2="501.0" y1="2701.0" y2="2921.0" /><line stroke="#333" stroke-width="10" x1="645.0" x2="861.0" y1="2309.0" y2="2701.0" /><line stroke="#333" stroke-width="10" x1="197.0" x2="645.0" y1="2245.0" y2="2309.0" /><line stroke="#333" stroke-width="10" x1="5.0" x2="197.0" y1="1861.0" y2="2245.0" /><line stroke="#333" stroke-width="10" x1="261.0" x2="5.0" y1="1349.0" y2="1861.0" /><line stroke="#333" stroke-width="10" x1="645.0" x2="261.0" y1="965.0" y2="1349.0" /><line stroke="#333" stroke-width="10" x1="453.0" x2="645.0" y1="517.0" y2="965.0" /><line stroke="#333" stroke-width="10" x1="773.0" x2="453.0" y1="133.0" y2="517.0" /><line stroke="#333" stroke-width="10" x1="1349.0" x2="773.0" y1="69.0" y2="133.0" /><line stroke="#333" stroke-width="10" x1="1861.0" x2="1349.0" y1="69.0" y2="69.0" /><line stroke="#333" stroke-width="10" x1="2245.0" x2="1861.0" y1="389.0" y2="69.0" /><line stroke="#333" stroke-width="10" x1="2373.0" x2="2245.0" y1="901.0" y2="389.0" /><line stroke="#333" stroke-width="10" x1="2245.0" x2="2373.0" y1="1349.0" y2="901.0" /><line stroke="#333" stroke-width="10" x1="2117.0" x2="2245.0" y1="1733.0" y2="1349.0" /><line stroke="#333" stroke-width="10" x1="2053.0" x2="2117.0" y1="2117.0" y2="1733.0" /><line stroke="#333" stroke-width="10" x1="2309.0" x2="2053.0" y1="2501.0" y2="2117.0" /><line stroke="#333" stroke-width="10" x1="2437.0" x2="2309.0" y1="2885.0" y2="2501.0" /><line stroke="#333" stroke-width="10" x1="2629.0" x2="2437.0" y1="3141.0" y2="2885.0" /><line stroke="#333" stroke-width="10" x1="2885.0" x2="2629.0" y1="3013.0" y2="3141.0" /><line stroke="#333" stroke-width="10" x1="2821.0" x2="2885.0" y1="2565.0" y2="3013.0" /><line stroke="#333" stroke-width="10" x1="2693.0" x2="2821.0" y1="2117.0" y2="2565.0" /><line stroke="#333" stroke-width="10" x1="2821.0" x2="2693.0" y1="1605.0" y2="2117.0" /><line stroke="#333" stroke-width="10" x1="2949.0" x2="2821.0" y1="1221.0" y2="1605.0" /><line stroke="#333" stroke-width="10" x1="2949.0" x2="2949.0" y1="837.0" y2="1221.0" /><line stroke="#333" stroke-width="10" x1="2693.0" x2="2949.0" y1="581.0" y2="837.0" /><line stroke="#333" stroke-width="10" x1="2757.0" x2="2693.0" y1="133.0" y2="581.0" /><line stroke="#333" stroke-width="10" x1="3333.0" x2="2757.0" y1="5.0" y2="133.0" /><line stroke="#333" stroke-width="10" x1="3909.0" x2="3333.0" y1="5.0" y2="5.0" /><line stroke="#333" stroke-width="10" x1="4357.0" x2="3909.0" y1="5.0" y2="5.0" /><line stroke="#333" stroke-width="10" x1="4869.0" x2="4357.0" y1="5.0" y2="5.0" /><line stroke="#333" stroke-width="10" x1="5445.0" x2="4869.0" y1="69.0" y2="5.0" /><line stroke="#333" stroke-width="10" x1="5701.0" x2="5445.0" y1="261.0" y2="69.0" /><line stroke="#333" stroke-width="10" x1="5765.0" x2="5701.0" y1="645.0" y2="261.0" /><line stroke="#333" stroke-width="10" x1="5765.0" x2="5765.0" y1="965.0" y2="645.0" /><line stroke="#333" stroke-width="10" x1="5701.0" x2="5765.0" y1="1477.0" y2="965.0" /><line stroke="#333" stroke-width="10" x1="5509.0" x2="5701.0" y1="1733.0" y2="1477.0" /><line stroke="#333" stroke-width="10" x1="5189.0" x2="5509.0" y1="1925.0" y2="1733.0" /><line stroke="#333" stroke-width="10" x1="4613.0" x2="5189.0" y1="2053.0" y2="1925.0" /><line stroke="#333" stroke-width="10" x1="4165.0" x2="4613.0" y1="2117.0" y2="2053.0" /><line stroke="#333" stroke-width="10" x1="3909.0" x2="4165.0" y1="2309.0" y2="2117.0" /><line stroke="#333" stroke-width="10" x1="4165.0" x2="3909.0" y1="2565.0" y2="2309.0" /><line stroke="#333" stroke-width="10" x1="4421.0" x2="4165.0" y1="2885.0" y2="2565.0" /><line stroke="#333" stroke-width="10" x1="4741.0" x2="4421.0" y1="2501.0" y2="2885.0" /><line stroke="#333" stroke-width="10" x1="5381.0" x2="4741.0" y1="2181.0" y2="2501.0" /><line stroke="#333" stroke-width="10" x1="5893.0" x2="5957.0" y1="645.0" y2="645.0" /><line stroke="#333" stroke-width="10" x1="5893.0" x2="5893.0" y1="325.0" y2="645.0" /><line stroke="#333" stroke-width="10" x1="5957.0" x2="5893.0" y1="325.0" y2="325.0" /><line stroke="#333" stroke-width="10" x1="5957.0" x2="5957.0" y1="421.0" y2="325.0" /><line stroke="#333" stroke-width="10" x1="6053.0" x2="5957.0" y1="325.0" y2="421.0" /><line stroke="#333" stroke-width="10" x1="6085.0" x2="6053.0" y1="325.0" y2="325.0" /><line stroke="#333" stroke-width="10" x1="6085.0" x2="6085.0" y1="389.0" y2="325.0" /><line stroke="#333" stroke-width="10" x1="5989.0" x2="6085.0" y1="485.0" y2="389.0" /><line stroke="#333" stroke-width="10" x1="6085.0" x2="5989.0" y1="581.0" y2="485.0" /><line stroke="#333" stroke-width="10" x1="6085.0" x2="6085.0" y1="645.0" y2="581.0" /><line stroke="#333" stroke-width="10" x1="6053.0" x2="6085.0" y1="645.0" y2="645.0" /><line stroke="#333" stroke-width="10" x1="5957.0" x2="6053.0" y1="549.0" y2="645.0" /><line stroke="#333" stroke-width="10" x1="5957.0" x2="5957.0" y1="645.0" y2="549.0" /><line stroke="#333" stroke-width="10" x1="6149.0" x2="6341.0" y1="645.0" y2="645.0" /><line stroke="#333" stroke-width="10" x1="6149.0" x2="6149.0" y1="453.0" y2="645.0" /><line stroke="#333" stroke-width="10" x1="6277.0" x2="6149.0" y1="453.0" y2="453.0" /><line stroke="#333" stroke-width="10" x1="6277.0" x2="6277.0" y1="389.0" y2="453.0" /><line stroke="#333" stroke-width="10" x1="6149.0" x2="6277.0" y1="389.0" y2="389.0" /><line stroke="#333" stroke-width="10" x1="6149.0" x2="6149.0" y1="325.0" y2="389.0" /><line stroke="#333" stroke-width="10" x1="6341.0" x2="6149.0" y1="325.0" y2="325.0" /><line stroke="#333" stroke-width="10" x1="6341.0" x2="6341.0" y1="517.0" y2="325.0" /><line stroke="#333" stroke-width="10" x1="6213.0" x2="6341.0" y1="517.0" y2="517.0" /><line stroke="#333" stroke-width="10" x1="6213.0" x2="6213.0" y1="581.0" y2="517.0" /><line stroke="#333" stroke-width="10" x1="6341.0" x2="6213.0" y1="581.0" y2="581.0" /><line stroke="#333" stroke-width="10" x1="6341.0" x2="6341.0" y1="645.0" y2="581.0" /><line stroke="#333" stroke-width="10" x1="6469.0" x2="6405.0" y1="325.0" y2="325.0" /><line stroke="#333" stroke-width="10" x1="6469.0" x2="6469.0" y1="453.0" y2="325.0" /><line stroke="#333" stroke-width="10" x1="6533.0" x2="6469.0" y1="453.0" y2="453.0" /><line stroke="#333" stroke-width="10" x1="6533.0" x2="6533.0" y1="517.0" y2="453.0" /><line stroke="#333" stroke-width="10" x1="6469.0" x2="6533.0" y1="517.0" y2="517.0" /><line stroke="#333" stroke-width="10" x1="6469.0" x2="6469.0" y1="581.0" y2="517.0" /><line stroke="#333" stroke-width="10" x1="6597.0" x2="6469.0" y1="581.0" y2="581.0" /><line stroke="#333" stroke-width="10" x1="6597.0" x2="6597.0" y1="645.0" y2="581.0" /><line stroke="#333" stroke-width="10" x1="6405.0" x2="6597.0" y1="645.0" y2="645.0" /><line stroke="#333" stroke-width="10" x1="6405.0" x2="6405.0" y1="325.0" y2="645.0" /><line stroke="#333" stroke-width="10" x1="6661.0" x2="6597.0" y1="261.0" y2="261.0" /><line stroke="#333" stroke-width="10" x1="6853.0" x2="6661.0" y1="645.0" y2="261.0" /><line stroke="#333" stroke-width="10" x1="6853.0" x2="6853.0" y1="709.0" y2="645.0" /><line stroke="#333" stroke-width="10" x1="6789.0" x2="6853.0" y1="709.0" y2="709.0" /><line stroke="#333" stroke-width="10" x1="6597.0" x2="6789.0" y1="325.0" y2="709.0" /><line stroke="#333" stroke-width="10" x1="6597.0" x2="6597.0" y1="261.0" y2="325.0" /><line stroke="#333" stroke-width="10" x1="6917.0" x2="7109.0" y1="645.0" y2="645.0" /><line stroke="#333" stroke-width="10" x1="6917.0" x2="6917.0" y1="453.0" y2="645.0" /><line stroke="#333" stroke-width="10" x1="7045.0" x2="6917.0" y1="453.0" y2="453.0" /><line stroke="#333" stroke-width="10" x1="7045.0" x2="7045.0" y1="325.0" y2="453.0" /><line stroke="#333" stroke-width="10" x1="7109.0" x2="7045.0" y1="325.0" y2="325.0" /><line stroke="#333" stroke-width="10" x1="7109.0" x2="7109.0" y1="645.0" y2="325.0" /><line stroke="#333" stroke-width="10" x1="7045.0" x2="6981.0" y1="581.0" y2="581.0" /><line stroke="#333" stroke-width="10" x1="7045.0" x2="7045.0" y1="517.0" y2="581.0" /><line stroke="#333" stroke-width="10" x1="6981.0" x2="7045.0" y1="517.0" y2="517.0" /><line stroke="#333" stroke-width="10" x1="6981.0" x2="6981.0" y1="581.0" y2="517.0" /><line stroke="#333" stroke-width="10" x1="7173.0" x2="7237.0" y1="645.0" y2="645.0" /><line stroke="#333" stroke-width="10" x1="7173.0" x2="7173.0" y1="453.0" y2="645.0" /><line stroke="#333" stroke-width="10" x1="7301.0" x2="7173.0" y1="453.0" y2="453.0" /><line stroke="#333" stroke-width="10" x1="7301.0" x2="7301.0" y1="325.0" y2="453.0" /><line stroke="#333" stroke-width="10" x1="7365.0" x2="7301.0" y1="325.0" y2="325.0" /><line stroke="#333" stroke-width="10" x1="7365.0" x2="7365.0" y1="645.0" y2="325.0" /><line stroke="#333" stroke-width="10" x1="7301.0" x2="7365.0" y1="645.0" y2="645.0" /><line stroke="#333" stroke-width="10" x1="7301.0" x2="7301.0" y1="517.0" y2="645.0" /><line stroke="#333" stroke-width="10" x1="7237.0" x2="7301.0" y1="517.0" y2="517.0" /><line stroke="#333" stroke-width="10" x1="7237.0" x2="7237.0" y1="645.0" y2="517.0" /><ellipse cx="485.0" cy="3333.0" fill="#009" rx="12" ry="24" stroke="#009" stroke-width="5" /><rect fill="#090" height="24" stroke="#090" stroke-width="5" transform="rotate(315,549.0,3269.0)" width="24" x="537.0" y="3257.0" /><circle cx="453.0" cy="3237.0" fill="#900" r="16" stroke="#900" stroke-width="5" /><circle cx="581.0" cy="3365.0" fill="#900" r="16" stroke="#900" stroke-width="5" /><ellipse cx="1253.0" cy="1317.0" fill="#009" rx="12" ry="24" stroke="#009" stroke-width="5" /><rect fill="#090" height="24" stroke="#090" stroke-width="5" transform="rotate(45,1317.0,1349.0)" width="24" x="1305.0" y="1337.0" /><circle cx="1317.0" cy="1253.0" fill="#900" r="16" stroke="#900" stroke-width="5" /><circle cx="1253.0" cy="1413.0" fill="#900" r="16" stroke="#900" stroke-width="5" /><ellipse cx="4613.0" cy="837.0" fill="#009" rx="12" ry="24" stroke="#009" stroke-width="5" /><rect fill="#090" height="24" stroke="#090" stroke-width="5" transform="rotate(135,4549.0,901.0)" width="24" x="4537.0" y="889.0" /><circle cx="4645.0" cy="933.0" fill="#900" r="16" stroke="#900" stroke-width="5" /><circle cx="4517.0" cy="805.0" fill="#900" r="16" stroke="#900" stroke-width="5" /><ellipse cx="5541.0" cy="3397.0" fill="#009" rx="12" ry="24" stroke="#009" stroke-width="5" /><rect fill="#090" height="24" stroke="#090" stroke-width="5" transform="rotate(0,5605.0,3397.0)" width="24" x="5593.0" y="3385.0" /><circle cx="5573.0" cy="3493.0" fill="#900" r="16" stroke="#900" stroke-width="5" /><circle cx="5573.0" cy="3301.0" fill="#900" r="16" stroke="#900" stroke-width="5" /><rect fill="#090" height="24" stroke="#090" stroke-width="5" transform="rotate(315,1105.0,2915.0)" width="24" x="1093.0" y="2903.0" /><rect fill="#090" height="24" stroke="#090" stroke-width="5" transform="rotate(315,1061.0,2321.0)" width="24" x="1049.0" y="2309.0" /><rect fill="#090" height="24" stroke="#090" stroke-width="5" transform="rotate(315,401.0,2024.0)" width="24" x="389.0" y="2012.0" /><rect fill="#090" height="24" stroke="#090" stroke-width="5" transform="rotate(315,544.0,1353.0)" width="24" x="532.0" y="1341.0" /><rect fill="#090" height="24" stroke="#090" stroke-width="5" transform="rotate(315,863.0,748.0)" width="24" x="851.0" y="736.0" /><rect fill="#090" height="24" stroke="#090" stroke-width="5" transform="rotate(315,1622.0,220.0)" width="24" x="1610.0" y="208.0" /><rect fill="#090" height="24" stroke="#090" stroke-width="5" transform="rotate(315,2161.0,803.0)" width="24" x="2149.0" y="791.0" /><rect fill="#090" height="24" stroke="#090" stroke-width="5" transform="rotate(315,1886.0,1452.0)" width="24" x="1874.0" y="1440.0" /><rect fill="#090" height="24" stroke="#090" stroke-width="5" transform="rotate(315,1787.0,2101.0)" width="24" x="1775.0" y="2089.0" /><rect fill="#090" height="24" stroke="#090" stroke-width="5" transform="rotate(315,2150.0,2981.0)" width="24" x="2138.0" y="2969.0" /><rect fill="#090" height="24" stroke="#090" stroke-width="5" transform="rotate(315,2876.0,3333.0)" width="24" x="2864.0" y="3321.0" /><rect fill="#090" height="24" stroke="#090" stroke-width="5" transform="rotate(315,3096.0,2486.0)" width="24" x="3084.0" y="2474.0" /><rect fill="#090" height="24" stroke="#090" stroke-width="5" transform="rotate(315,3008.0,1980.0)" width="24" x="2996.0" y="1968.0" /><rect fill="#090" height="24" stroke="#090" stroke-width="5" transform="rotate(315,3272.0,1155.0)" width="24" x="3260.0" y="1143.0" /><rect fill="#090" height="24" stroke="#090" stroke-width="5" transform="rotate(315,2975.0,286.0)" width="24" x="2963.0" y="274.0" /><rect fill="#090" height="24" stroke="#090" stroke-width="5" transform="rotate(315,3998.0,187.0)" width="24" x="3986.0" y="175.0" /><rect fill="#090" height="24" stroke="#090" stroke-width="5" transform="rotate(315,5131.0,330.0)" width="24" x="5119.0" y="318.0" /><rect fill="#090" height="24" stroke="#090" stroke-width="5" transform="rotate(315,5395.0,660.0)" width="24" x="5383.0" y="648.0" /><rect fill="#090" height="24" stroke="#090" stroke-width="5" transform="rotate(315,5483.0,1265.0)" width="24" x="5471.0" y="1253.0" /><rect fill="#090" height="24" stroke="#090" stroke-width="5" transform="rotate(315,4944.0,1738.0)" width="24" x="4932.0" y="1726.0" /><rect fill="#090" height="24" stroke="#090" stroke-width="5" transform="rotate(315,4097.0,1914.0)" width="24" x="4085.0" y="1902.0" /><rect fill="#090" height="24" stroke="#090" stroke-width="5" transform="rotate(315,3800.0,2431.0)" width="24" x="3788.0" y="2419.0" /><rect fill="#090" height="24" stroke="#090" stroke-width="5" transform="rotate(315,4262.0,3069.0)" width="24" x="4250.0" y="3057.0" /><rect fill="#090" height="24" stroke="#090" stroke-width="5" transform="rotate(315,5054.0,2750.0)" width="24" x="5042.0" y="2738.0" /><rect fill="#090" height="24" stroke="#090" stroke-width="5" transform="rotate(315,5813.0,2464.0)" width="24" x="5801.0" y="2452.0" /><rect fill="#090" height="24" stroke="#090" stroke-width="5" transform="rotate(315,6385.0,2860.0)" width="24" x="6373.0" y="2848.0" /><rect fill="#090" height="24" stroke="#090" stroke-width="5" transform="rotate(315,6220.0,3278.0)" width="24" x="6208.0" y="3266.0" /><rect fill="#090" height="24" stroke="#090" stroke-width="5" transform="rotate(315,6143.0,2574.0)" width="24" x="6131.0" y="2562.0" /><rect fill="#090" height="24" stroke="#090" stroke-width="5" transform="rotate(315,5527.0,2574.0)" width="24" x="5515.0" y="2562.0" /><rect fill="#090" height="24" stroke="#090" stroke-width="5" transform="rotate(315,4757.0,2937.0)" width="24" x="4745.0" y="2925.0" /><rect fill="#090" height="24" stroke="#090" stroke-width="5" transform="rotate(315,4075.0,2838.0)" width="24" x="4063.0" y="2826.0" /><rect fill="#090" height="24" stroke="#090" stroke-width="5" transform="rotate(315,3767.0,2046.0)" width="24" x="3755.0" y="2034.0" /><rect fill="#090" height="24" stroke="#090" stroke-width="5" transform="rotate(315,4460.0,3102.0)" width="24" x="4448.0" y="3090.0" /><rect fill="#090" height="24" stroke="#090" stroke-width="5" transform="rotate(315,4823.0,3157.0)" width="24" x="4811.0" y="3145.0" /><rect fill="#090" height="24" stroke="#090" stroke-width="5" transform="rotate(315,5384.0,2453.0)" width="24" x="5372.0" y="2441.0" /><rect fill="#090" height="24" stroke="#090" stroke-width="5" transform="rotate(315,6220.0,2838.0)" width="24" x="6208.0" y="2826.0" /><rect fill="#090" height="24" stroke="#090" stroke-width="5" transform="rotate(315,3899.0,1859.0)" width="24" x="3887.0" y="1847.0" /><rect fill="#090" height="24" stroke="#090" stroke-width="5" transform="rotate(315,3679.0,2299.0)" width="24" x="3667.0" y="2287.0" /><rect fill="#090" height="24" stroke="#090" stroke-width="5" transform="rotate(315,3976.0,2651.0)" width="24" x="3964.0" y="2639.0" /><rect fill="#090" height="24" stroke="#090" stroke-width="5" transform="rotate(315,4196.0,1683.0)" width="24" x="4184.0" y="1671.0" /><rect fill="#090" height="24" stroke="#090" stroke-width="5" transform="rotate(315,4460.0,1815.0)" width="24" x="4448.0" y="1803.0" /><rect fill="#090" height="24" stroke="#090" stroke-width="5" transform="rotate(315,4757.0,1628.0)" width="24" x="4745.0" y="1616.0" /><rect fill="#090" height="24" stroke="#090" stroke-width="5" transform="rotate(315,5186.0,1540.0)" width="24" x="5174.0" y="1528.0" /><rect fill="#090" height="24" stroke="#090" stroke-width="5" transform="rotate(315,5252.0,1155.0)" width="24" x="5240.0" y="1143.0" /><rect fill="#090" height="24" stroke="#090" stroke-width="5" transform="rotate(315,5428.0,880.0)" width="24" x="5416.0" y="868.0" /><rect fill="#090" height="24" stroke="#090" stroke-width="5" transform="rotate(315,5406.0,363.0)" width="24" x="5394.0" y="351.0" /><rect fill="#090" height="24" stroke="#090" stroke-width="5" transform="rotate(315,4911.0,242.0)" width="24" x="4899.0" y="230.0" /><rect fill="#090" height="24" stroke="#090" stroke-width="5" transform="rotate(315,4658.0,121.0)" width="24" x="4646.0" y="109.0" /><rect fill="#090" height="24" stroke="#090" stroke-width="5" transform="rotate(315,4482.0,286.0)" width="24" x="4470.0" y="274.0" /><rect fill="#090" height="24" stroke="#090" stroke-width="5" transform="rotate(315,4229.0,165.0)" width="24" x="4217.0" y="153.0" /><rect fill="#090" height="24" stroke="#090" stroke-width="5" transform="rotate(315,3778.0,264.0)" width="24" x="3766.0" y="252.0" /><rect fill="#090" height="24" stroke="#090" stroke-width="5" transform="rotate(315,3393.0,110.0)" width="24" x="3381.0" y="98.0" /><rect fill="#090" height="24" stroke="#090" stroke-width="5" transform="rotate(315,2997.0,561.0)" width="24" x="2985.0" y="549.0" /><rect fill="#090" height="24" stroke="#090" stroke-width="5" transform="rotate(315,3250.0,836.0)" width="24" x="3238.0" y="824.0" /><rect fill="#090" height="24" stroke="#090" stroke-width="5" transform="rotate(315,3041.0,1419.0)" width="24" x="3029.0" y="1407.0" /><rect fill="#090" height="24" stroke="#090" stroke-width="5" transform="rotate(315,3162.0,1837.0)" width="24" x="3150.0" y="1825.0" /><rect fill="#090" height="24" stroke="#090" stroke-width="5" transform="rotate(315,2920.0,2310.0)" width="24" x="2908.0" y="2298.0" /><rect fill="#090" height="24" stroke="#090" stroke-width="5" transform="rotate(315,3129.0,2200.0)" width="24" x="3117.0" y="2188.0" /><rect fill="#090" height="24" stroke="#090" stroke-width="5" transform="rotate(315,3283.0,1562.0)" width="24" x="3271.0" y="1550.0" /><rect fill="#090" height="24" stroke="#090" stroke-width="5" transform="rotate(315,3228.0,2816.0)" width="24" x="3216.0" y="2804.0" /><rect fill="#090" height="24" stroke="#090" stroke-width="5" transform="rotate(315,2953.0,2838.0)" width="24" x="2941.0" y="2826.0" /><rect fill="#090" height="24" stroke="#090" stroke-width="5" transform="rotate(315,3228.0,3223.0)" width="24" x="3216.0" y="3211.0" /><rect fill="#090" height="24" stroke="#090" stroke-width="5" transform="rotate(315,2645.0,3487.0)" width="24" x="2633.0" y="3475.0" /><rect fill="#090" height="24" stroke="#090" stroke-width="5" transform="rotate(315,2337.0,3245.0)" width="24" x="2325.0" y="3233.0" /><rect fill="#090" height="24" stroke="#090" stroke-width="5" transform="rotate(315,2337.0,3487.0)" width="24" x="2325.0" y="3475.0" /><rect fill="#090" height="24" stroke="#090" stroke-width="5" transform="rotate(315,1930.0,2728.0)" width="24" x="1918.0" y="2716.0" /><rect fill="#090" height="24" stroke="#090" stroke-width="5" transform="rotate(315,2150.0,2618.0)" width="24" x="2138.0" y="2606.0" /><rect fill="#090" height="24" stroke="#090" stroke-width="5" transform="rotate(315,1853.0,2453.0)" width="24" x="1841.0" y="2441.0" /><rect fill="#090" height="24" stroke="#090" stroke-width="5" transform="rotate(315,1908.0,1782.0)" width="24" x="1896.0" y="1770.0" /><rect fill="#090" height="24" stroke="#090" stroke-width="5" transform="rotate(315,2172.0,1177.0)" width="24" x="2160.0" y="1165.0" /><rect fill="#090" height="24" stroke="#090" stroke-width="5" transform="rotate(315,2029.0,1122.0)" width="24" x="2017.0" y="1110.0" /><rect fill="#090" height="24" stroke="#090" stroke-width="5" transform="rotate(315,2106.0,616.0)" width="24" x="2094.0" y="604.0" /><rect fill="#090" height="24" stroke="#090" stroke-width="5" transform="rotate(315,1853.0,473.0)" width="24" x="1841.0" y="461.0" /><rect fill="#090" height="24" stroke="#090" stroke-width="5" transform="rotate(315,2051.0,451.0)" width="24" x="2039.0" y="439.0" /><rect fill="#090" height="24" stroke="#090" stroke-width="5" transform="rotate(315,1446.0,275.0)" width="24" x="1434.0" y="263.0" /><rect fill="#090" height="24" stroke="#090" stroke-width="5" transform="rotate(315,1116.0,187.0)" width="24" x="1104.0" y="175.0" /><rect fill="#090" height="24" stroke="#090" stroke-width="5" transform="rotate(315,929.0,363.0)" width="24" x="917.0" y="351.0" /><rect fill="#090" height="24" stroke="#090" stroke-width="5" transform="rotate(315,665.0,539.0)" width="24" x="653.0" y="527.0" /><rect fill="#090" height="24" stroke="#090" stroke-width="5" transform="rotate(315,797.0,957.0)" width="24" x="785.0" y="945.0" /><rect fill="#090" height="24" stroke="#090" stroke-width="5" transform="rotate(315,742.0,1199.0)" width="24" x="730.0" y="1187.0" /><rect fill="#090" height="24" stroke="#090" stroke-width="5" transform="rotate(315,401.0,1562.0)" width="24" x="389.0" y="1550.0" /><rect fill="#090" height="24" stroke="#090" stroke-width="5" transform="rotate(315,181.0,1815.0)" width="24" x="169.0" y="1803.0" /><rect fill="#090" height="24" stroke="#090" stroke-width="5" transform="rotate(315,676.0,2035.0)" width="24" x="664.0" y="2023.0" /><rect fill="#090" height="24" stroke="#090" stroke-width="5" transform="rotate(315,830.0,2277.0)" width="24" x="818.0" y="2265.0" /><rect fill="#090" height="24" stroke="#090" stroke-width="5" transform="rotate(315,1226.0,2618.0)" width="24" x="1214.0" y="2606.0" /><rect fill="#090" height="24" stroke="#090" stroke-width="5" transform="rotate(315,951.0,2849.0)" width="24" x="939.0" y="2837.0" /><rect fill="#090" height="24" stroke="#090" stroke-width="5" transform="rotate(315,1204.0,3146.0)" width="24" x="1192.0" y="3134.0" /><rect fill="#090" height="24" stroke="#090" stroke-width="5" transform="rotate(315,6198.0,3058.0)" width="24" x="6186.0" y="3046.0" /><rect fill="#090" height="24" stroke="#090" stroke-width="5" transform="rotate(315,6462.0,3102.0)" width="24" x="6450.0" y="3090.0" /><rect fill="#090" height="24" stroke="#090" stroke-width="5" transform="rotate(315,1721.0,1485.0)" width="24" x="1709.0" y="1473.0" /><rect fill="#090" height="24" stroke="#090" stroke-width="5" transform="rotate(315,1479.0,1584.0)" width="24" x="1467.0" y="1572.0" /><rect fill="#090" height="24" stroke="#090" stroke-width="5" transform="rotate(315,1600.0,1298.0)" width="24" x="1588.0" y="1286.0" /><rect fill="#090" height="24" stroke="#090" stroke-width="5" transform="rotate(315,1446.0,1122.0)" width="24" x="1434.0" y="1110.0" /><rect fill="#090" height="24" stroke="#090" stroke-width="5" transform="rotate(315,1259.0,1606.0)" width="24" x="1247.0" y="1594.0" /><rect fill="#090" height="24" stroke="#090" stroke-width="5" transform="rotate(315,1479.0,1353.0)" width="24" x="1467.0" y="1341.0" /><rect fill="#090" height="24" stroke="#090" stroke-width="5" transform="rotate(315,4306.0,1122.0)" width="24" x="4294.0" y="1110.0" /><rect fill="#090" height="24" stroke="#090" stroke-width="5" transform="rotate(315,4306.0,913.0)" width="24" x="4294.0" y="901.0" /><rect fill="#090" height="24" stroke="#090" stroke-width="5" transform="rotate(315,4086.0,1034.0)" width="24" x="4074.0" y="1022.0" /><rect fill="#090" height="24" stroke="#090" stroke-width="5" transform="rotate(315,3899.0,847.0)" width="24" x="3887.0" y="835.0" /><rect fill="#090" height="24" stroke="#090" stroke-width="5" transform="rotate(315,4284.0,1364.0)" width="24" x="4272.0" y="1352.0" /><rect fill="#090" height="24" stroke="#090" stroke-width="5" transform="rotate(315,4108.0,858.0)" width="24" x="4096.0" y="846.0" /><rect fill="#900" height="48" stroke="#900" stroke-width="5" transform="rotate(90,1021.0,2611.0)" width="32" x="1005.0" y="2587.0" /><rect fill="#900" height="48" stroke="#900" stroke-width="5" transform="rotate(90,331.0,1791.0)" width="32" x="315.0" y="1767.0" /><rect fill="#900" height="48" stroke="#900" stroke-width="5" transform="rotate(90,621.0,1171.0)" width="32" x="605.0" y="1147.0" /><rect fill="#900" height="48" stroke="#900" stroke-width="5" transform="rotate(180,1941.0,1631.0)" width="32" x="1925.0" y="1607.0" /><rect fill="#900" height="48" stroke="#900" stroke-width="5" transform="rotate(90,1981.0,721.0)" width="32" x="1965.0" y="697.0" /><rect fill="#900" height="48" stroke="#900" stroke-width="5" transform="rotate(90,1291.0,261.0)" width="32" x="1275.0" y="237.0" /><rect fill="#900" height="48" stroke="#900" stroke-width="5" transform="rotate(270,1701.0,2341.0)" width="32" x="1685.0" y="2317.0" /><rect fill="#900" height="48" stroke="#900" stroke-width="5" transform="rotate(270,2151.0,3261.0)" width="32" x="2135.0" y="3237.0" /><rect fill="#900" height="48" stroke="#900" stroke-width="5" transform="rotate(180,3261.0,3001.0)" width="32" x="3245.0" y="2977.0" /><rect fill="#900" height="48" stroke="#900" stroke-width="5" transform="rotate(90,3021.0,1671.0)" width="32" x="3005.0" y="1647.0" /><rect fill="#900" height="48" stroke="#900" stroke-width="5" transform="rotate(0,3171.0,231.0)" width="32" x="3155.0" y="207.0" /><rect fill="#900" height="48" stroke="#900" stroke-width="5" transform="rotate(270,3131.0,1561.0)" width="32" x="3115.0" y="1537.0" /><rect fill="#900" height="48" stroke="#900" stroke-width="5" transform="rotate(0,4701.0,331.0)" width="32" x="4685.0" y="307.0" /><rect fill="#900" height="48" stroke="#900" stroke-width="5" transform="rotate(135,5571.0,1031.0)" width="32" x="5555.0" y="1007.0" /><rect fill="#900" height="48" stroke="#900" stroke-width="5" transform="rotate(180,4971.0,1541.0)" width="32" x="4955.0" y="1517.0" /><rect fill="#900" height="48" stroke="#900" stroke-width="5" transform="rotate(270,4301.0,1891.0)" width="32" x="4285.0" y="1867.0" /><rect fill="#900" height="48" stroke="#900" stroke-width="5" transform="rotate(315,3691.0,2431.0)" width="32" x="3675.0" y="2407.0" /><rect fill="#900" height="48" stroke="#900" stroke-width="5" transform="rotate(315,4601.0,3371.0)" width="32" x="4585.0" y="3347.0" /><rect fill="#900" height="48" stroke="#900" stroke-width="5" transform="rotate(0,5131.0,2491.0)" width="32" x="5115.0" y="2467.0" /><rect fill="#900" height="48" stroke="#900" stroke-width="5" transform="rotate(90,6331.0,2551.0)" width="32" x="6315.0" y="2527.0" /><rect fill="#900" height="48" stroke="#900" stroke-width="5" transform="rotate(45,5801.0,2341.0)" width="32" x="5785.0" y="2317.0" /><rect fill="#900" height="48" stroke="#900" stroke-width="5" transform="rotate(315,4911.0,2911.0)" width="32" x="4895.0" y="2887.0" /><rect fill="#900" height="48" stroke="#900" stroke-width="5" transform="rotate(315,3621.0,2151.0)" width="32" x="3605.0" y="2127.0" /><rect fill="#900" height="48" stroke="#900" stroke-width="5" transform="rotate(180,5211.0,1761.0)" width="32" x="5195.0" y="1737.0" /><rect fill="#900" height="48" stroke="#900" stroke-width="5" transform="rotate(135,2231.0,641.0)" width="32" x="2215.0" y="617.0" /><rect fill="#900" height="48" stroke="#900" stroke-width="5" transform="rotate(225,2081.0,2381.0)" width="32" x="2065.0" y="2357.0" /><rect fill="#900" height="48" stroke="#900" stroke-width="5" transform="rotate(45,731.0,2181.0)" width="32" x="715.0" y="2157.0" /><rect fill="#900" height="48" stroke="#900" stroke-width="5" transform="rotate(90,401.0,1401.0)" width="32" x="385.0" y="1377.0" /><rect fill="#900" height="48" stroke="#900" stroke-width="5" transform="rotate(180,3011.0,3141.0)" width="32" x="2995.0" y="3117.0" /><rect fill="#900" height="48" stroke="#900" stroke-width="5" transform="rotate(90,3081.0,2681.0)" width="32" x="3065.0" y="2657.0" /><rect fill="#900" height="48" stroke="#900" stroke-width="5" transform="rotate(90,3191.0,1751.0)" width="32" x="3175.0" y="1727.0" /><rect fill="#900" height="48" stroke="#900" stroke-width="5" transform="rotate(270,3201.0,1341.0)" width="32" x="3185.0" y="1317.0" /><rect fill="#900" height="48" stroke="#900" stroke-width="5" transform="rotate(315,2921.0,491.0)" width="32" x="2905.0" y="467.0" /><rect fill="#900" height="48" stroke="#900" stroke-width="5" transform="rotate(0,3621.0,221.0)" width="32" x="3605.0" y="197.0" /></svg>