<?xml version="1.0" encoding="utf-8" ?>
<svg baseProfile="tiny" height="1024" version="1.2" viewBox="0 0 3730 4298" width="888" xmlns="http://www.w3.org/2000/svg" xmlns:ev="http://www.w3.org/2001/xml-events" xmlns:xlink="http://www.w3.org/1999/xlink"><defs /><line stroke="#333" stroke-width="10" x1="1557.0" x2="1485.0" y1="389.0" y2="453.0" /><line stroke="#333" stroke-width="10" x1="2181.0" x2="1557.0" y1="389.0" y2="389.0" /><line stroke="#333" stroke-width="10" x1="2181.0" x2="2381.0" y1="1413.0" y2="1229.0" /><line stroke="#333" stroke-width="10" x1="1581.0" x2="1805.0" y1="1413.0" y2="1413.0" /><line stroke="#333" stroke-width="10" x1="2381.0" x2="2317.0" y1="581.0" y2="517.0" /><line stroke="#333" stroke-width="10" x1="1357.0" x2="1357.0" y1="581.0" y2="1213.0" /><line stroke="#333" stroke-width="10" x1="1357.0" x2="1581.0" y1="1213.0" y2="1413.0" /><line stroke="#333" stroke-width="10" x1="2381.0" x2="2381.0" y1="1229.0" y2="581.0" /><line stroke="#333" stroke-width="10" x1="1293.0" x2="1421.0" y1="261.0" y2="517.0" /><line stroke="#333" stroke-width="10" x1="1421.0" x2="1357.0" y1="517.0" y2="581.0" /><line stroke="#333" stroke-width="10" x1="1485.0" x2="1485.0" y1="453.0" y2="261.0" /><line stroke="#333" stroke-width="10" x1="1485.0" x2="1677.0" y1="261.0" y2="5.0" /><line stroke="#333" stroke-width="10" x1="1677.0" x2="1293.0" y1="5.0" y2="261.0" /><line stroke="#333" stroke-width="10" x1="2453.0" x2="2069.0" y1="261.0" y2="5.0" /><line stroke="#333" stroke-width="10" x1="2253.0" x2="2181.0" y1="453.0" y2="389.0" /><line stroke="#333" stroke-width="10" x1="2317.0" x2="2453.0" y1="517.0" y2="261.0" /><line stroke="#333" stroke-width="10" x1="2069.0" x2="2253.0" y1="5.0" y2="261.0" /><line stroke="#333" stroke-width="10" x1="2253.0" x2="2253.0" y1="261.0" y2="453.0" /><line stroke="#666" stroke-width="20" x1="1805.0" x2="1933.0" y1="1413.0" y2="1413.0" /><line stroke="#333" stroke-width="10" x1="1933.0" x2="2181.0" y1="1413.0" y2="1413.0" /><line stroke="#333" stroke-width="10" x1="1805.0" x2="1485.0" y1="1437.0" y2="1437.0" /><line stroke="#333" stroke-width="10" x1="1485.0" x2="1485.0" y1="1437.0" y2="1541.0" /><line stroke="#666" stroke-width="20" x1="1485.0" x2="1485.0" y1="1541.0" y2="1669.0" /><line stroke="#333" stroke-width="10" x1="1485.0" x2="1485.0" y1="1669.0" y2="1733.0" /><line stroke="#999" stroke-width="3" x1="1485.0" x2="1485.0" y1="1733.0" y2="1861.0" /><line stroke="#333" stroke-width="10" x1="1485.0" x2="1485.0" y1="1861.0" y2="1925.0" /><line stroke="#999" stroke-width="3" x1="1485.0" x2="1485.0" y1="1925.0" y2="2053.0" /><line stroke="#333" stroke-width="10" x1="1485.0" x2="1485.0" y1="2053.0" y2="2117.0" /><line stroke="#333" stroke-width="10" x1="1485.0" x2="1805.0" y1="2117.0" y2="2117.0" /><line stroke="#333" stroke-width="10" x1="2253.0" x2="2253.0" y1="2117.0" y2="2053.0" /><line stroke="#999" stroke-width="3" x1="2253.0" x2="2253.0" y1="2053.0" y2="1925.0" /><line stroke="#333" stroke-width="10" x1="2253.0" x2="2253.0" y1="1925.0" y2="1861.0" /><line stroke="#999" stroke-width="3" x1="2253.0" x2="2253.0" y1="1861.0" y2="1733.0" /><line stroke="#333" stroke-width="10" x1="2253.0" x2="2253.0" y1="1733.0" y2="1669.0" /><line stroke="#999" stroke-width="3" x1="2253.0" x2="2253.0" y1="1669.0" y2="1541.0" /><line stroke="#333" stroke-width="10" x1="2253.0" x2="2253.0" y1="1541.0" y2="1437.0" /><line stroke="#333" stroke-width="10" x1="2253.0" x2="1933.0" y1="1437.0" y2="1437.0" /><line stroke="#666" stroke-width="20" x1="1933.0" x2="1805.0" y1="1437.0" y2="1437.0" /><line stroke="#333" stroke-width="10" x1="1805.0" x2="1805.0" y1="1413.0" y2="1437.0" /><line stroke="#333" stroke-width="10" x1="1933.0" x2="1933.0" y1="1437.0" y2="1413.0" /><line stroke="#999" stroke-width="3" x1="1549.0" x2="1549.0" y1="645.0" y2="773.0" /><line stroke="#999" stroke-width="3" x1="1549.0" x2="1677.0" y1="773.0" y2="773.0" /><line stroke="#999" stroke-width="3" x1="1677.0" x2="1677.0" y1="773.0" y2="645.0" /><line stroke="#999" stroke-width="3" x1="1677.0" x2="1549.0" y1="645.0" y2="645.0" /><line stroke="#999" stroke-width="3" x1="1741.0" x2="1741.0" y1="645.0" y2="709.0" /><line stroke="#999" stroke-width="3" x1="1741.0" x2="1805.0" y1="709.0" y2="709.0" /><line stroke="#999" stroke-width="3" x1="1805.0" x2="1805.0" y1="709.0" y2="645.0" /><line stroke="#999" stroke-width="3" x1="1805.0" x2="1741.0" y1="645.0" y2="645.0" /><line stroke="#999" stroke-width="3" x1="1741.0" x2="1741.0" y1="773.0" y2="837.0" /><line stroke="#999" stroke-width="3" x1="1741.0" x2="1805.0" y1="837.0" y2="837.0" /><line stroke="#999" stroke-width="3" x1="1805.0" x2="1805.0" y1="837.0" y2="773.0" /><line stroke="#999" stroke-width="3" x1="1805.0" x2="1741.0" y1="773.0" y2="773.0" /><line stroke="#999" stroke-width="3" x1="1933.0" x2="1933.0" y1="645.0" y2="709.0" /><line stroke="#999" stroke-width="3" x1="1933.0" x2="1997.0" y1="709.0" y2="709.0" /><line stroke="#999" stroke-width="3" x1="1997.0" x2="1997.0" y1="709.0" y2="645.0" /><line stroke="#999" stroke-width="3" x1="1997.0" x2="1933.0" y1="645.0" y2="645.0" /><line stroke="#999" stroke-width="3" x1="1933.0" x2="1933.0" y1="773.0" y2="837.0" /><line stroke="#999" stroke-width="3" x1="1933.0" x2="1997.0" y1="837.0" y2="837.0" /><line stroke="#999" stroke-width="3" x1="1997.0" x2="1997.0" y1="837.0" y2="773.0" /><line stroke="#999" stroke-width="3" x1="1997.0" x2="1933.0" y1="773.0" y2="773.0" /><line stroke="#999" stroke-width="3" x1="2061.0" x2="2061.0" y1="645.0" y2="773.0" /><line stroke="#999" stroke-width="3" x1="2061.0" x2="2189.0" y1="773.0" y2="773.0" /><line stroke="#999" stroke-width="3" x1="2189.0" x2="2189.0" y1="773.0" y2="645.0" /><line stroke="#999" stroke-width="3" x1="2189.0" x2="2061.0" y1="645.0" y2="645.0" /><line stroke="#333" stroke-width="10" x1="5.0" x2="653.0" y1="2053.0" y2="2693.0" /><line stroke="#333" stroke-width="10" x1="653.0" x2="1293.0" y1="2693.0" y2="2053.0" /><line stroke="#333" stroke-width="10" x1="1293.0" x2="1469.0" y1="2053.0" y2="2053.0" /><line stroke="#999" stroke-width="3" x1="1469.0" x2="1469.0" y1="2053.0" y2="1925.0" /><line stroke="#333" stroke-width="10" x1="1469.0" x2="1229.0" y1="1925.0" y2="1925.0" /><line stroke="#333" stroke-width="10" x1="1229.0" x2="653.0" y1="1925.0" y2="2501.0" /><line stroke="#333" stroke-width="10" x1="653.0" x2="205.0" y1="2501.0" y2="2053.0" /><line stroke="#666" stroke-width="20" x1="205.0" x2="141.0" y1="2053.0" y2="2053.0" /><line stroke="#333" stroke-width="10" x1="21.0" x2="653.0" y1="1797.0" y2="2437.0" /><line stroke="#333" stroke-width="10" x1="653.0" x2="1229.0" y1="2437.0" y2="1861.0" /><line stroke="#333" stroke-width="10" x1="1229.0" x2="1469.0" y1="1861.0" y2="1861.0" /><line stroke="#999" stroke-width="3" x1="1469.0" x2="1469.0" y1="1861.0" y2="1733.0" /><line stroke="#333" stroke-width="10" x1="1469.0" x2="1165.0" y1="1733.0" y2="1733.0" /><line stroke="#333" stroke-width="10" x1="1165.0" x2="653.0" y1="1733.0" y2="2245.0" /><line stroke="#333" stroke-width="10" x1="653.0" x2="205.0" y1="2245.0" y2="1797.0" /><line stroke="#666" stroke-width="20" x1="205.0" x2="141.0" y1="1797.0" y2="1797.0" /><line stroke="#333" stroke-width="10" x1="13.0" x2="653.0" y1="1605.0" y2="2181.0" /><line stroke="#333" stroke-width="10" x1="653.0" x2="1165.0" y1="2181.0" y2="1669.0" /><line stroke="#333" stroke-width="10" x1="1165.0" x2="1469.0" y1="1669.0" y2="1669.0" /><line stroke="#666" stroke-width="20" x1="1469.0" x2="1469.0" y1="1669.0" y2="1541.0" /><line stroke="#333" stroke-width="10" x1="1469.0" x2="1101.0" y1="1541.0" y2="1541.0" /><line stroke="#333" stroke-width="10" x1="1101.0" x2="653.0" y1="1541.0" y2="1989.0" /><line stroke="#333" stroke-width="10" x1="653.0" x2="205.0" y1="1989.0" y2="1605.0" /><line stroke="#666" stroke-width="20" x1="205.0" x2="141.0" y1="1605.0" y2="1605.0" /><line stroke="#333" stroke-width="10" x1="1469.0" x2="1485.0" y1="1669.0" y2="1669.0" /><line stroke="#333" stroke-width="10" x1="1485.0" x2="1469.0" y1="1541.0" y2="1541.0" /><line stroke="#333" stroke-width="10" x1="1469.0" x2="1485.0" y1="1861.0" y2="1861.0" /><line stroke="#333" stroke-width="10" x1="1485.0" x2="1469.0" y1="1733.0" y2="1733.0" /><line stroke="#333" stroke-width="10" x1="1469.0" x2="1485.0" y1="2053.0" y2="2053.0" /><line stroke="#333" stroke-width="10" x1="1485.0" x2="1469.0" y1="1925.0" y2="1925.0" /><line stroke="#333" stroke-width="10" x1="2269.0" x2="2445.0" y1="2053.0" y2="2053.0" /><line stroke="#333" stroke-width="10" x1="2445.0" x2="3085.0" y1="2053.0" y2="2693.0" /><line stroke="#333" stroke-width="10" x1="3085.0" x2="3725.0" y1="2693.0" y2="2053.0" /><line stroke="#333" stroke-width="10" x1="3725.0" x2="3597.0" y1="2053.0" y2="2053.0" /><line stroke="#333" stroke-width="10" x1="3533.0" x2="3085.0" y1="2053.0" y2="2501.0" /><line stroke="#333" stroke-width="10" x1="3085.0" x2="2509.0" y1="2501.0" y2="1925.0" /><line stroke="#333" stroke-width="10" x1="2509.0" x2="2269.0" y1="1925.0" y2="1925.0" /><line stroke="#999" stroke-width="3" x1="2269.0" x2="2269.0" y1="1925.0" y2="2053.0" /><line stroke="#333" stroke-width="10" x1="2269.0" x2="2509.0" y1="1861.0" y2="1861.0" /><line stroke="#333" stroke-width="10" x1="2509.0" x2="3085.0" y1="1861.0" y2="2437.0" /><line stroke="#333" stroke-width="10" x1="3085.0" x2="3725.0" y1="2437.0" y2="1797.0" /><line stroke="#333" stroke-width="10" x1="3725.0" x2="3597.0" y1="1797.0" y2="1797.0" /><line stroke="#333" stroke-width="10" x1="3533.0" x2="3085.0" y1="1797.0" y2="2245.0" /><line stroke="#333" stroke-width="10" x1="3085.0" x2="2573.0" y1="2245.0" y2="1733.0" /><line stroke="#333" stroke-width="10" x1="2573.0" x2="2269.0" y1="1733.0" y2="1733.0" /><line stroke="#999" stroke-width="3" x1="2269.0" x2="2269.0" y1="1733.0" y2="1861.0" /><line stroke="#333" stroke-width="10" x1="2269.0" x2="2573.0" y1="1669.0" y2="1669.0" /><line stroke="#333" stroke-width="10" x1="2573.0" x2="3085.0" y1="1669.0" y2="2189.0" /><line stroke="#333" stroke-width="10" x1="3085.0" x2="3725.0" y1="2189.0" y2="1605.0" /><line stroke="#333" stroke-width="10" x1="3725.0" x2="3597.0" y1="1605.0" y2="1605.0" /><line stroke="#333" stroke-width="10" x1="3533.0" x2="3085.0" y1="1605.0" y2="1989.0" /><line stroke="#333" stroke-width="10" x1="3085.0" x2="2637.0" y1="1989.0" y2="1541.0" /><line stroke="#333" stroke-width="10" x1="2637.0" x2="2269.0" y1="1541.0" y2="1541.0" /><line stroke="#999" stroke-width="3" x1="2269.0" x2="2269.0" y1="1541.0" y2="1669.0" /><line stroke="#333" stroke-width="10" x1="2253.0" x2="2269.0" y1="2053.0" y2="2053.0" /><line stroke="#333" stroke-width="10" x1="2269.0" x2="2253.0" y1="1925.0" y2="1925.0" /><line stroke="#333" stroke-width="10" x1="2253.0" x2="2269.0" y1="1861.0" y2="1861.0" /><line stroke="#333" stroke-width="10" x1="2269.0" x2="2253.0" y1="1733.0" y2="1733.0" /><line stroke="#333" stroke-width="10" x1="2253.0" x2="2269.0" y1="1669.0" y2="1669.0" /><line stroke="#333" stroke-width="10" x1="2269.0" x2="2253.0" y1="1541.0" y2="1541.0" /><line stroke="#999" stroke-width="3" x1="1805.0" x2="1933.0" y1="2117.0" y2="2117.0" /><line stroke="#333" stroke-width="10" x1="1933.0" x2="2253.0" y1="2117.0" y2="2117.0" /><line stroke="#333" stroke-width="10" x1="1805.0" x2="1485.0" y1="2165.0" y2="2165.0" /><line stroke="#333" stroke-width="10" x1="1485.0" x2="1229.0" y1="2165.0" y2="2373.0" /><line stroke="#333" stroke-width="10" x1="1229.0" x2="1229.0" y1="2373.0" y2="3589.0" /><line stroke="#333" stroke-width="10" x1="1229.0" x2="1421.0" y1="3589.0" y2="3781.0" /><line stroke="#333" stroke-width="10" x1="1421.0" x2="1805.0" y1="3781.0" y2="3781.0" /><line stroke="#333" stroke-width="10" x1="2317.0" x2="2509.0" y1="3781.0" y2="3589.0" /><line stroke="#333" stroke-width="10" x1="2509.0" x2="2509.0" y1="3589.0" y2="2373.0" /><line stroke="#333" stroke-width="10" x1="2509.0" x2="2253.0" y1="2373.0" y2="2165.0" /><line stroke="#333" stroke-width="10" x1="2253.0" x2="1933.0" y1="2165.0" y2="2165.0" /><line stroke="#999" stroke-width="3" x1="1933.0" x2="1805.0" y1="2165.0" y2="2165.0" /><line stroke="#333" stroke-width="10" x1="1805.0" x2="1805.0" y1="2149.0" y2="2165.0" /><line stroke="#333" stroke-width="10" x1="1933.0" x2="1933.0" y1="2165.0" y2="2149.0" /><line stroke="#d00" stroke-width="20" x1="1933.0" x2="1805.0" y1="2149.0" y2="2149.0" /><line stroke="#333" stroke-width="10" x1="1805.0" x2="1805.0" y1="2117.0" y2="2133.0" /><line stroke="#d00" stroke-width="20" x1="1805.0" x2="1933.0" y1="2133.0" y2="2133.0" /><line stroke="#333" stroke-width="10" x1="1933.0" x2="1933.0" y1="2133.0" y2="2117.0" /><line stroke="#333" stroke-width="10" x1="1805.0" x2="1805.0" y1="2133.0" y2="2149.0" /><line stroke="#333" stroke-width="10" x1="1933.0" x2="1933.0" y1="2149.0" y2="2133.0" /><line stroke="#999" stroke-width="3" x1="1485.0" x2="1485.0" y1="2501.0" y2="2693.0" /><line stroke="#999" stroke-width="3" x1="1485.0" x2="1549.0" y1="2693.0" y2="2693.0" /><line stroke="#999" stroke-width="3" x1="1549.0" x2="1613.0" y1="2693.0" y2="2597.0" /><line stroke="#999" stroke-width="3" x1="1613.0" x2="1549.0" y1="2597.0" y2="2501.0" /><line stroke="#999" stroke-width="3" x1="1549.0" x2="1485.0" y1="2501.0" y2="2501.0" /><line stroke="#999" stroke-width="3" x1="1741.0" x2="1741.0" y1="2501.0" y2="2693.0" /><line stroke="#999" stroke-width="3" x1="1741.0" x2="1805.0" y1="2693.0" y2="2693.0" /><line stroke="#999" stroke-width="3" x1="1805.0" x2="1805.0" y1="2693.0" y2="2501.0" /><line stroke="#999" stroke-width="3" x1="1805.0" x2="1741.0" y1="2501.0" y2="2501.0" /><line stroke="#999" stroke-width="3" x1="1933.0" x2="1933.0" y1="2501.0" y2="2693.0" /><line stroke="#999" stroke-width="3" x1="1933.0" x2="2061.0" y1="2693.0" y2="2693.0" /><line stroke="#999" stroke-width="3" x1="2061.0" x2="2061.0" y1="2693.0" y2="2661.0" /><line stroke="#999" stroke-width="3" x1="2061.0" x2="1997.0" y1="2661.0" y2="2661.0" /><line stroke="#999" stroke-width="3" x1="1997.0" x2="1997.0" y1="2661.0" y2="2613.0" /><line stroke="#999" stroke-width="3" x1="1997.0" x2="2037.0" y1="2613.0" y2="2613.0" /><line stroke="#999" stroke-width="3" x1="2037.0" x2="2037.0" y1="2613.0" y2="2581.0" /><line stroke="#999" stroke-width="3" x1="2037.0" x2="1997.0" y1="2581.0" y2="2581.0" /><line stroke="#999" stroke-width="3" x1="1997.0" x2="1997.0" y1="2581.0" y2="2533.0" /><line stroke="#999" stroke-width="3" x1="1997.0" x2="2061.0" y1="2533.0" y2="2533.0" /><line stroke="#999" stroke-width="3" x1="2061.0" x2="2061.0" y1="2533.0" y2="2501.0" /><line stroke="#999" stroke-width="3" x1="2061.0" x2="1933.0" y1="2501.0" y2="2501.0" /><line stroke="#999" stroke-width="3" x1="2189.0" x2="2189.0" y1="2565.0" y2="2693.0" /><line stroke="#999" stroke-width="3" x1="2189.0" x2="2253.0" y1="2693.0" y2="2693.0" /><line stroke="#999" stroke-width="3" x1="2253.0" x2="2253.0" y1="2693.0" y2="2565.0" /><line stroke="#999" stroke-width="3" x1="2253.0" x2="2189.0" y1="2565.0" y2="2565.0" /><line stroke="#999" stroke-width="3" x1="2189.0" x2="2189.0" y1="2501.0" y2="2533.0" /><line stroke="#999" stroke-width="3" x1="2189.0" x2="2253.0" y1="2533.0" y2="2533.0" /><line stroke="#999" stroke-width="3" x1="2253.0" x2="2253.0" y1="2533.0" y2="2501.0" /><line stroke="#999" stroke-width="3" x1="2253.0" x2="2189.0" y1="2501.0" y2="2501.0" /><line stroke="#666" stroke-width="20" x1="1805.0" x2="1869.0" y1="3781.0" y2="3781.0" /><line stroke="#333" stroke-width="10" x1="1869.0" x2="2317.0" y1="3781.0" y2="3781.0" /><line stroke="#333" stroke-width="10" x1="141.0" x2="77.0" y1="1605.0" y2="1605.0" /><line stroke="#333" stroke-width="10" x1="77.0" x2="13.0" y1="1605.0" y2="1605.0" /><line stroke="#666" stroke-width="20" x1="3597.0" x2="3533.0" y1="1605.0" y2="1605.0" /><line stroke="#666" stroke-width="20" x1="3597.0" x2="3533.0" y1="1797.0" y2="1797.0" /><line stroke="#333" stroke-width="10" x1="3597.0" x2="3533.0" y1="2053.0" y2="2053.0" /><line stroke="#333" stroke-width="10" x1="141.0" x2="21.0" y1="1797.0" y2="1797.0" /><line stroke="#333" stroke-width="10" x1="141.0" x2="5.0" y1="2053.0" y2="2053.0" /><line stroke="#333" stroke-width="10" x1="1805.0" x2="1805.0" y1="3797.0" y2="3973.0" /><line stroke="#999" stroke-width="3" x1="1805.0" x2="1869.0" y1="3973.0" y2="3973.0" /><line stroke="#333" stroke-width="10" x1="1869.0" x2="1869.0" y1="3973.0" y2="3797.0" /><line stroke="#666" stroke-width="20" x1="1869.0" x2="1805.0" y1="3797.0" y2="3797.0" /><line stroke="#333" stroke-width="10" x1="1805.0" x2="1741.0" y1="3973.0" y2="3997.0" /><line stroke="#333" stroke-width="10" x1="1741.0" x2="1677.0" y1="3997.0" y2="4037.0" /><line stroke="#333" stroke-width="10" x1="1677.0" x2="1637.0" y1="4037.0" y2="4101.0" /><line stroke="#333" stroke-width="10" x1="1637.0" x2="1613.0" y1="4101.0" y2="4197.0" /><line stroke="#333" stroke-width="10" x1="1613.0" x2="1613.0" y1="4197.0" y2="4293.0" /><line stroke="#333" stroke-width="10" x1="1613.0" x2="1677.0" y1="4293.0" y2="4229.0" /><line stroke="#333" stroke-width="10" x1="1677.0" x2="1741.0" y1="4229.0" y2="4165.0" /><line stroke="#333" stroke-width="10" x1="1741.0" x2="1805.0" y1="4165.0" y2="4101.0" /><line stroke="#333" stroke-width="10" x1="1805.0" x2="1869.0" y1="4101.0" y2="4101.0" /><line stroke="#333" stroke-width="10" x1="1869.0" x2="1933.0" y1="4101.0" y2="4165.0" /><line stroke="#333" stroke-width="10" x1="1933.0" x2="1997.0" y1="4165.0" y2="4229.0" /><line stroke="#333" stroke-width="10" x1="1997.0" x2="2061.0" y1="4229.0" y2="4293.0" /><line stroke="#333" stroke-width="10" x1="2061.0" x2="2061.0" y1="4293.0" y2="4197.0" /><line stroke="#333" stroke-width="10" x1="2061.0" x2="2045.0" y1="4197.0" y2="4101.0" /><line stroke="#333" stroke-width="10" x1="2045.0" x2="1997.0" y1="4101.0" y2="4037.0" /><line stroke="#333" stroke-width="10" x1="1997.0" x2="1933.0" y1="4037.0" y2="3997.0" /><line stroke="#333" stroke-width="10" x1="1933.0" x2="1869.0" y1="3997.0" y2="3973.0" /><line stroke="#333" stroke-width="10" x1="1805.0" x2="1805.0" y1="3781.0" y2="3797.0" /><line stroke="#333" stroke-width="10" x1="1869.0" x2="1869.0" y1="3797.0" y2="3781.0" /><ellipse cx="1869.0" cy="517.0" fill="#009" rx="12" ry="24" stroke="#009" stroke-width="5" /><ellipse cx="1806.0" cy="452.0" fill="#009" rx="12" ry="24" stroke="#009" stroke-width="5" /><ellipse cx="1869.0" cy="453.0" fill="#009" rx="12" ry="24" stroke="#009" stroke-width="5" /><ellipse cx="1933.0" cy="453.0" fill="#009" rx="12" ry="24" stroke="#009" stroke-width="5" /><rect fill="#090" height="24" stroke="#090" stroke-width="5" transform="rotate(90,1486.0,907.0)" width="24" x="1474.0" y="895.0" /><rect fill="#090" height="24" stroke="#090" stroke-width="5" transform="rotate(90,2254.0,902.0)" width="24" x="2242.0" y="890.0" /><rect fill="#090" height="24" stroke="#090" stroke-width="5" transform="rotate(90,1868.0,1165.0)" width="24" x="1856.0" y="1153.0" /><rect fill="#090" height="24" stroke="#090" stroke-width="5" transform="rotate(90,1868.0,740.0)" width="24" x="1856.0" y="728.0" /><rect fill="#900" height="48" stroke="#900" stroke-width="5" transform="rotate(135,1518.0,160.0)" width="32" x="1502.0" y="136.0" /><rect fill="#900" height="48" stroke="#900" stroke-width="5" transform="rotate(45,2229.0,154.0)" width="32" x="2213.0" y="130.0" /><circle cx="1357.0" cy="285.0" fill="#090" r="16" stroke="#090" stroke-width="5" /><circle cx="2405.0" cy="276.0" fill="#090" r="16" stroke="#090" stroke-width="5" /><rect fill="#090" height="24" stroke="#090" stroke-width="5" transform="rotate(45,2131.0,1316.0)" width="24" x="2119.0" y="1304.0" /><rect fill="#090" height="24" stroke="#090" stroke-width="5" transform="rotate(45,1664.0,976.0)" width="24" x="1652.0" y="964.0" /><rect fill="#090" height="24" stroke="#090" stroke-width="5" transform="rotate(45,1689.0,1294.0)" width="24" x="1677.0" y="1282.0" /><rect fill="#090" height="24" stroke="#090" stroke-width="5" transform="rotate(45,2114.0,1013.0)" width="24" x="2102.0" y="1001.0" /><rect fill="#090" height="24" stroke="#090" stroke-width="5" transform="rotate(45,1754.0,1841.0)" width="24" x="1742.0" y="1829.0" /><rect fill="#090" height="24" stroke="#090" stroke-width="5" transform="rotate(45,1655.0,1597.0)" width="24" x="1643.0" y="1585.0" /><rect fill="#090" height="24" stroke="#090" stroke-width="5" transform="rotate(45,2088.0,1804.0)" width="24" x="2076.0" y="1792.0" /><rect fill="#090" height="24" stroke="#090" stroke-width="5" transform="rotate(45,2803.0,2313.0)" width="24" x="2791.0" y="2301.0" /><rect fill="#090" height="24" stroke="#090" stroke-width="5" transform="rotate(45,991.0,1756.0)" width="24" x="979.0" y="1744.0" /><rect fill="#090" height="24" stroke="#090" stroke-width="5" transform="rotate(45,922.0,2329.0)" width="24" x="910.0" y="2317.0" /><rect fill="#090" height="24" stroke="#090" stroke-width="5" transform="rotate(45,1877.0,3101.0)" width="24" x="1865.0" y="3089.0" /><rect fill="#090" height="24" stroke="#090" stroke-width="5" transform="rotate(45,1407.0,3018.0)" width="24" x="1395.0" y="3006.0" /><rect fill="#090" height="24" stroke="#090" stroke-width="5" transform="rotate(45,1754.0,2350.0)" width="24" x="1742.0" y="2338.0" /><rect fill="#090" height="24" stroke="#090" stroke-width="5" transform="rotate(45,2165.0,2981.0)" width="24" x="2153.0" y="2969.0" /><rect fill="#900" height="48" stroke="#900" stroke-width="5" transform="rotate(90,1552.0,1162.0)" width="32" x="1536.0" y="1138.0" /><rect fill="#900" height="48" stroke="#900" stroke-width="5" transform="rotate(90,1861.0,1326.0)" width="32" x="1845.0" y="1302.0" /><rect fill="#900" height="48" stroke="#900" stroke-width="5" transform="rotate(90,2213.0,1181.0)" width="32" x="2197.0" y="1157.0" /><rect fill="#900" height="48" stroke="#900" stroke-width="5" transform="rotate(90,1432.0,891.0)" width="32" x="1416.0" y="867.0" /><rect fill="#900" height="48" stroke="#900" stroke-width="5" transform="rotate(90,2309.0,877.0)" width="32" x="2293.0" y="853.0" /><rect fill="#900" height="48" stroke="#900" stroke-width="5" transform="rotate(270,1565.0,451.0)" width="32" x="1549.0" y="427.0" /><rect fill="#900" height="48" stroke="#900" stroke-width="5" transform="rotate(270,2178.0,457.0)" width="32" x="2162.0" y="433.0" /><rect fill="#900" height="48" stroke="#900" stroke-width="5" transform="rotate(270,1637.0,1789.0)" width="32" x="1621.0" y="1765.0" /><rect fill="#900" height="48" stroke="#900" stroke-width="5" transform="rotate(270,1844.0,1984.0)" width="32" x="1828.0" y="1960.0" /><rect fill="#900" height="48" stroke="#900" stroke-width="5" transform="rotate(270,1638.0,2026.0)" width="32" x="1622.0" y="2002.0" /><rect fill="#900" height="48" stroke="#900" stroke-width="5" transform="rotate(270,2213.0,1965.0)" width="32" x="2197.0" y="1941.0" /><rect fill="#090" height="24" stroke="#090" stroke-width="5" transform="rotate(270,2002.0,1804.0)" width="24" x="1990.0" y="1792.0" /><rect fill="#900" height="48" stroke="#900" stroke-width="5" transform="rotate(180,2213.0,1477.0)" width="32" x="2197.0" y="1453.0" /><rect fill="#900" height="48" stroke="#900" stroke-width="5" transform="rotate(0,1525.0,1477.0)" width="32" x="1509.0" y="1453.0" /><rect fill="#900" height="48" stroke="#900" stroke-width="5" transform="rotate(0,1381.0,1984.0)" width="32" x="1365.0" y="1960.0" /><rect fill="#900" height="48" stroke="#900" stroke-width="5" transform="rotate(315,1137.0,2111.0)" width="32" x="1121.0" y="2087.0" /><rect fill="#900" height="48" stroke="#900" stroke-width="5" transform="rotate(315,974.0,2265.0)" width="32" x="958.0" y="2241.0" /><rect fill="#900" height="48" stroke="#900" stroke-width="5" transform="rotate(315,747.0,2498.0)" width="32" x="731.0" y="2474.0" /><rect fill="#900" height="48" stroke="#900" stroke-width="5" transform="rotate(45,245.0,2191.0)" width="32" x="229.0" y="2167.0" /><rect fill="#900" height="48" stroke="#900" stroke-width="5" transform="rotate(45,434.0,2398.0)" width="32" x="418.0" y="2374.0" /><rect fill="#900" height="48" stroke="#900" stroke-width="5" transform="rotate(0,605.0,2562.0)" width="32" x="589.0" y="2538.0" /><rect fill="#900" height="48" stroke="#900" stroke-width="5" transform="rotate(0,1391.0,1797.0)" width="32" x="1375.0" y="1773.0" /><rect fill="#900" height="48" stroke="#900" stroke-width="5" transform="rotate(0,1202.0,1811.0)" width="32" x="1186.0" y="1787.0" /><rect fill="#900" height="48" stroke="#900" stroke-width="5" transform="rotate(315,1005.0,1989.0)" width="32" x="989.0" y="1965.0" /><rect fill="#900" height="48" stroke="#900" stroke-width="5" transform="rotate(315,820.0,2178.0)" width="32" x="804.0" y="2154.0" /><rect fill="#900" height="48" stroke="#900" stroke-width="5" transform="rotate(0,660.0,2320.0)" width="32" x="644.0" y="2296.0" /><rect fill="#900" height="48" stroke="#900" stroke-width="5" transform="rotate(45,288.0,1987.0)" width="32" x="272.0" y="1963.0" /><rect fill="#900" height="48" stroke="#900" stroke-width="5" transform="rotate(45,466.0,2171.0)" width="32" x="450.0" y="2147.0" /><rect fill="#900" height="48" stroke="#900" stroke-width="5" transform="rotate(45,1339.0,1606.0)" width="32" x="1323.0" y="1582.0" /><rect fill="#900" height="48" stroke="#900" stroke-width="5" transform="rotate(45,1111.0,1620.0)" width="32" x="1095.0" y="1596.0" /><rect fill="#900" height="48" stroke="#900" stroke-width="5" transform="rotate(315,923.0,1818.0)" width="32" x="907.0" y="1794.0" /><rect fill="#900" height="48" stroke="#900" stroke-width="5" transform="rotate(315,711.0,2037.0)" width="32" x="695.0" y="2013.0" /><rect fill="#900" height="48" stroke="#900" stroke-width="5" transform="rotate(45,454.0,1888.0)" width="32" x="438.0" y="1864.0" /><rect fill="#900" height="48" stroke="#900" stroke-width="5" transform="rotate(45,271.0,1705.0)" width="32" x="255.0" y="1681.0" /><rect fill="#900" height="48" stroke="#900" stroke-width="5" transform="rotate(45,568.0,2009.0)" width="32" x="552.0" y="1985.0" /><rect fill="#900" height="48" stroke="#900" stroke-width="5" transform="rotate(225,2436.0,1599.0)" width="32" x="2420.0" y="1575.0" /><rect fill="#900" height="48" stroke="#900" stroke-width="5" transform="rotate(225,2676.0,1655.0)" width="32" x="2660.0" y="1631.0" /><rect fill="#900" height="48" stroke="#900" stroke-width="5" transform="rotate(225,2830.0,1832.0)" width="32" x="2814.0" y="1808.0" /><rect fill="#900" height="48" stroke="#900" stroke-width="5" transform="rotate(225,3002.0,1987.0)" width="32" x="2986.0" y="1963.0" /><rect fill="#900" height="48" stroke="#900" stroke-width="5" transform="rotate(135,3173.0,2016.0)" width="32" x="3157.0" y="1992.0" /><rect fill="#900" height="48" stroke="#900" stroke-width="5" transform="rotate(135,3350.0,1846.0)" width="32" x="3334.0" y="1822.0" /><rect fill="#900" height="48" stroke="#900" stroke-width="5" transform="rotate(135,3447.0,1719.0)" width="32" x="3431.0" y="1695.0" /><rect fill="#090" height="24" stroke="#090" stroke-width="5" transform="rotate(225,2442.0,1789.0)" width="24" x="2430.0" y="1777.0" /><rect fill="#090" height="24" stroke="#090" stroke-width="5" transform="rotate(225,2648.0,1917.0)" width="24" x="2636.0" y="1905.0" /><rect fill="#090" height="24" stroke="#090" stroke-width="5" transform="rotate(225,2819.0,2086.0)" width="24" x="2807.0" y="2074.0" /><rect fill="#090" height="24" stroke="#090" stroke-width="5" transform="rotate(225,2985.0,2249.0)" width="24" x="2973.0" y="2237.0" /><rect fill="#090" height="24" stroke="#090" stroke-width="5" transform="rotate(135,3224.0,2207.0)" width="24" x="3212.0" y="2195.0" /><rect fill="#090" height="24" stroke="#090" stroke-width="5" transform="rotate(135,3333.0,2093.0)" width="24" x="3321.0" y="2081.0" /><rect fill="#090" height="24" stroke="#090" stroke-width="5" transform="rotate(135,3447.0,1980.0)" width="24" x="3435.0" y="1968.0" /><rect fill="#900" height="48" stroke="#900" stroke-width="5" transform="rotate(135,2389.0,1997.0)" width="32" x="2373.0" y="1973.0" /><rect fill="#900" height="48" stroke="#900" stroke-width="5" transform="rotate(225,2597.0,2109.0)" width="32" x="2581.0" y="2085.0" /><rect fill="#900" height="48" stroke="#900" stroke-width="5" transform="rotate(225,2750.0,2263.0)" width="32" x="2734.0" y="2239.0" /><rect fill="#900" height="48" stroke="#900" stroke-width="5" transform="rotate(225,2933.0,2440.0)" width="32" x="2917.0" y="2416.0" /><rect fill="#900" height="48" stroke="#900" stroke-width="5" transform="rotate(135,3242.0,2447.0)" width="32" x="3226.0" y="2423.0" /><rect fill="#900" height="48" stroke="#900" stroke-width="5" transform="rotate(135,3333.0,2348.0)" width="32" x="3317.0" y="2324.0" /><rect fill="#900" height="48" stroke="#900" stroke-width="5" transform="rotate(135,3447.0,2249.0)" width="32" x="3431.0" y="2225.0" /><rect fill="#900" height="48" stroke="#900" stroke-width="5" transform="rotate(135,3517.0,2165.0)" width="32" x="3501.0" y="2141.0" /><rect fill="#900" height="48" stroke="#900" stroke-width="5" transform="rotate(90,1494.0,3578.0)" width="32" x="1478.0" y="3554.0" /><rect fill="#900" height="48" stroke="#900" stroke-width="5" transform="rotate(90,1654.0,3578.0)" width="32" x="1638.0" y="3554.0" /><rect fill="#900" height="48" stroke="#900" stroke-width="5" transform="rotate(90,1808.0,3586.0)" width="32" x="1792.0" y="3562.0" /><rect fill="#900" height="48" stroke="#900" stroke-width="5" transform="rotate(90,1968.0,3593.0)" width="32" x="1952.0" y="3569.0" /><rect fill="#900" height="48" stroke="#900" stroke-width="5" transform="rotate(90,2133.0,3593.0)" width="32" x="2117.0" y="3569.0" /><rect fill="#900" height="48" stroke="#900" stroke-width="5" transform="rotate(90,2288.0,3586.0)" width="32" x="2272.0" y="3562.0" /><rect fill="#900" height="48" stroke="#900" stroke-width="5" transform="rotate(90,1494.0,3451.0)" width="32" x="1478.0" y="3427.0" /><rect fill="#900" height="48" stroke="#900" stroke-width="5" transform="rotate(90,1654.0,3458.0)" width="32" x="1638.0" y="3434.0" /><rect fill="#900" height="48" stroke="#900" stroke-width="5" transform="rotate(90,1802.0,3458.0)" width="32" x="1786.0" y="3434.0" /><rect fill="#900" height="48" stroke="#900" stroke-width="5" transform="rotate(90,1968.0,3451.0)" width="32" x="1952.0" y="3427.0" /><rect fill="#900" height="48" stroke="#900" stroke-width="5" transform="rotate(90,2151.0,3451.0)" width="32" x="2135.0" y="3427.0" /><rect fill="#900" height="48" stroke="#900" stroke-width="5" transform="rotate(90,2305.0,3451.0)" width="32" x="2289.0" y="3427.0" /><rect fill="#900" height="48" stroke="#900" stroke-width="5" transform="rotate(90,1494.0,3303.0)" width="32" x="1478.0" y="3279.0" /><rect fill="#900" height="48" stroke="#900" stroke-width="5" transform="rotate(90,1642.0,3296.0)" width="32" x="1626.0" y="3272.0" /><rect fill="#900" height="48" stroke="#900" stroke-width="5" transform="rotate(90,1791.0,3296.0)" width="32" x="1775.0" y="3272.0" /><rect fill="#900" height="48" stroke="#900" stroke-width="5" transform="rotate(90,1951.0,3281.0)" width="32" x="1935.0" y="3257.0" /><rect fill="#900" height="48" stroke="#900" stroke-width="5" transform="rotate(90,2128.0,3289.0)" width="32" x="2112.0" y="3265.0" /><rect fill="#900" height="48" stroke="#900" stroke-width="5" transform="rotate(90,2288.0,3281.0)" width="32" x="2272.0" y="3257.0" /><rect fill="#900" height="48" stroke="#900" stroke-width="5" transform="rotate(90,1488.0,3161.0)" width="32" x="1472.0" y="3137.0" /><rect fill="#900" height="48" stroke="#900" stroke-width="5" transform="rotate(90,1637.0,3161.0)" width="32" x="1621.0" y="3137.0" /><rect fill="#900" height="48" stroke="#900" stroke-width="5" transform="rotate(90,1796.0,3154.0)" width="32" x="1780.0" y="3130.0" /><rect fill="#900" height="48" stroke="#900" stroke-width="5" transform="rotate(90,1939.0,3154.0)" width="32" x="1923.0" y="3130.0" /><rect fill="#900" height="48" stroke="#900" stroke-width="5" transform="rotate(90,2128.0,3147.0)" width="32" x="2112.0" y="3123.0" /><rect fill="#900" height="48" stroke="#900" stroke-width="5" transform="rotate(90,2276.0,3140.0)" width="32" x="2260.0" y="3116.0" /><rect fill="#900" height="48" stroke="#900" stroke-width="5" transform="rotate(90,1345.0,2850.0)" width="32" x="1329.0" y="2826.0" /><rect fill="#900" height="48" stroke="#900" stroke-width="5" transform="rotate(90,1585.0,2864.0)" width="32" x="1569.0" y="2840.0" /><rect fill="#900" height="48" stroke="#900" stroke-width="5" transform="rotate(90,1854.0,2850.0)" width="32" x="1838.0" y="2826.0" /><rect fill="#900" height="48" stroke="#900" stroke-width="5" transform="rotate(90,2156.0,2871.0)" width="32" x="2140.0" y="2847.0" /><rect fill="#900" height="48" stroke="#900" stroke-width="5" transform="rotate(90,2356.0,2871.0)" width="32" x="2340.0" y="2847.0" /><rect fill="#090" height="24" stroke="#090" stroke-width="5" transform="rotate(90,1637.0,2992.0)" width="24" x="1625.0" y="2980.0" /><rect fill="#090" height="24" stroke="#090" stroke-width="5" transform="rotate(90,2029.0,2989.0)" width="24" x="2017.0" y="2977.0" /><circle cx="2193.0" cy="2063.0" fill="#090" r="16" stroke="#090" stroke-width="5" /><circle cx="148.0" cy="2119.0" fill="#090" r="16" stroke="#090" stroke-width="5" /><circle cx="1944.0" cy="2317.0" fill="#090" r="16" stroke="#090" stroke-width="5" /><circle cx="1889.0" cy="1554.0" fill="#090" r="16" stroke="#090" stroke-width="5" /><circle cx="3558.0" cy="1855.0" fill="#090" r="16" stroke="#090" stroke-width="5" /><circle cx="1701.0" cy="2308.0" fill="#090" r="16" stroke="#090" stroke-width="5" /><circle cx="1871.0" cy="979.0" fill="#090" r="16" stroke="#090" stroke-width="5" /><circle cx="181.0" cy="1877.0" fill="#090" r="16" stroke="#090" stroke-width="5" /><circle cx="172.0" cy="1610.0" fill="#090" r="16" stroke="#090" stroke-width="5" /><circle cx="3564.0" cy="1610.0" fill="#009" r="16" stroke="#009" stroke-width="5" /><circle cx="3509.0" cy="1637.0" fill="#009" r="16" stroke="#009" stroke-width="5" /><circle cx="3597.0" cy="2109.0" fill="#009" r="16" stroke="#009" stroke-width="5" /><circle cx="2241.0" cy="2289.0" fill="#009" r="16" stroke="#009" stroke-width="5" /><circle cx="1507.0" cy="2298.0" fill="#009" r="16" stroke="#009" stroke-width="5" /><circle cx="1422.0" cy="3655.0" fill="#009" r="16" stroke="#009" stroke-width="5" /><circle cx="1501.0" cy="3683.0" fill="#009" r="16" stroke="#009" stroke-width="5" /><circle cx="1604.0" cy="3683.0" fill="#009" r="16" stroke="#009" stroke-width="5" /><circle cx="1665.0" cy="3693.0" fill="#009" r="16" stroke="#009" stroke-width="5" /><circle cx="1713.0" cy="3683.0" fill="#009" r="16" stroke="#009" stroke-width="5" /><circle cx="1804.0" cy="3674.0" fill="#009" r="16" stroke="#009" stroke-width="5" /><circle cx="1907.0" cy="3674.0" fill="#009" r="16" stroke="#009" stroke-width="5" /><circle cx="1986.0" cy="3683.0" fill="#009" r="16" stroke="#009" stroke-width="5" /><circle cx="2065.0" cy="3683.0" fill="#009" r="16" stroke="#009" stroke-width="5" /><circle cx="2150.0" cy="3683.0" fill="#009" r="16" stroke="#009" stroke-width="5" /><circle cx="2247.0" cy="3683.0" fill="#009" r="16" stroke="#009" stroke-width="5" /><circle cx="2314.0" cy="3683.0" fill="#009" r="16" stroke="#009" stroke-width="5" /><rect fill="#090" height="24" stroke="#090" stroke-width="5" transform="rotate(45,1313.0,3193.0)" width="24" x="1301.0" y="3181.0" /><rect fill="#090" height="24" stroke="#090" stroke-width="5" transform="rotate(45,2405.0,3174.0)" width="24" x="2393.0" y="3162.0" /><rect fill="#090" height="24" stroke="#090" stroke-width="5" transform="rotate(45,2120.0,1573.0)" width="24" x="2108.0" y="1561.0" /><rect fill="#090" height="24" stroke="#090" stroke-width="5" transform="rotate(45,1574.0,1987.0)" width="24" x="1562.0" y="1975.0" /><circle cx="1962.0" cy="1130.0" fill="#900" r="16" stroke="#900" stroke-width="5" /><circle cx="1732.0" cy="1111.0" fill="#900" r="16" stroke="#900" stroke-width="5" /><ellipse cx="3561.0" cy="2089.0" fill="#090" rx="12" ry="24" stroke="#090" stroke-width="5" /></svg>