<?xml version="1.0" encoding="utf-8" ?>
<svg baseProfile="tiny" height="1024" version="1.2" viewBox="0 0 2058 2442" width="862" xmlns="http://www.w3.org/2000/svg" xmlns:ev="http://www.w3.org/2001/xml-events" xmlns:xlink="http://www.w3.org/1999/xlink"><defs /><line stroke="#333" stroke-width="10" x1="261.0" x2="69.0" y1="1157.0" y2="1157.0" /><line stroke="#333" stroke-width="10" x1="261.0" x2="261.0" y1="1221.0" y2="1157.0" /><line stroke="#666" stroke-width="20" x1="261.0" x2="261.0" y1="1285.0" y2="1221.0" /><line stroke="#333" stroke-width="10" x1="261.0" x2="261.0" y1="1349.0" y2="1285.0" /><line stroke="#333" stroke-width="10" x1="69.0" x2="261.0" y1="1349.0" y2="1349.0" /><line stroke="#333" stroke-width="10" x1="69.0" x2="69.0" y1="1157.0" y2="1349.0" /><line stroke="#333" stroke-width="10" x1="293.0" x2="261.0" y1="1221.0" y2="1221.0" /><line stroke="#666" stroke-width="20" x1="293.0" x2="293.0" y1="1221.0" y2="1285.0" /><line stroke="#333" stroke-width="10" x1="261.0" x2="293.0" y1="1285.0" y2="1285.0" /><line stroke="#333" stroke-width="10" x1="453.0" x2="293.0" y1="1221.0" y2="1221.0" /><line stroke="#999" stroke-width="3" x1="517.0" x2="453.0" y1="1221.0" y2="1221.0" /><line stroke="#999" stroke-width="3" x1="581.0" x2="517.0" y1="1157.0" y2="1221.0" /><line stroke="#999" stroke-width="3" x1="581.0" x2="581.0" y1="965.0" y2="1157.0" /><line stroke="#333" stroke-width="10" x1="581.0" x2="581.0" y1="773.0" y2="965.0" /><line stroke="#333" stroke-width="10" x1="453.0" x2="581.0" y1="773.0" y2="773.0" /><line stroke="#00d" stroke-width="20" x1="453.0" x2="453.0" y1="709.0" y2="773.0" /><line stroke="#333" stroke-width="10" x1="709.0" x2="453.0" y1="709.0" y2="709.0" /><line stroke="#333" stroke-width="10" x1="709.0" x2="709.0" y1="965.0" y2="709.0" /><line stroke="#999" stroke-width="3" x1="709.0" x2="709.0" y1="1541.0" y2="965.0" /><line stroke="#333" stroke-width="10" x1="709.0" x2="709.0" y1="1797.0" y2="1541.0" /><line stroke="#333" stroke-width="10" x1="421.0" x2="709.0" y1="1797.0" y2="1797.0" /><line stroke="#666" stroke-width="20" x1="421.0" x2="421.0" y1="1733.0" y2="1797.0" /><line stroke="#333" stroke-width="10" x1="581.0" x2="421.0" y1="1733.0" y2="1733.0" /><line stroke="#333" stroke-width="10" x1="581.0" x2="581.0" y1="1541.0" y2="1733.0" /><line stroke="#999" stroke-width="3" x1="581.0" x2="581.0" y1="1349.0" y2="1541.0" /><line stroke="#999" stroke-width="3" x1="517.0" x2="581.0" y1="1285.0" y2="1349.0" /><line stroke="#999" stroke-width="3" x1="453.0" x2="517.0" y1="1285.0" y2="1285.0" /><line stroke="#333" stroke-width="10" x1="293.0" x2="453.0" y1="1285.0" y2="1285.0" /><line stroke="#333" stroke-width="10" x1="453.0" x2="581.0" y1="1413.0" y2="1541.0" /><line stroke="#333" stroke-width="10" x1="453.0" x2="453.0" y1="1285.0" y2="1413.0" /><line stroke="#333" stroke-width="10" x1="453.0" x2="453.0" y1="1093.0" y2="1221.0" /><line stroke="#333" stroke-width="10" x1="581.0" x2="453.0" y1="965.0" y2="1093.0" /><line stroke="#333" stroke-width="10" x1="389.0" x2="421.0" y1="1797.0" y2="1797.0" /><line stroke="#666" stroke-width="20" x1="389.0" x2="389.0" y1="1797.0" y2="1733.0" /><line stroke="#333" stroke-width="10" x1="421.0" x2="389.0" y1="1733.0" y2="1733.0" /><line stroke="#999" stroke-width="3" x1="773.0" x2="965.0" y1="1349.0" y2="1349.0" /><line stroke="#999" stroke-width="3" x1="773.0" x2="773.0" y1="1349.0" y2="1157.0" /><line stroke="#999" stroke-width="3" x1="965.0" x2="773.0" y1="1157.0" y2="1157.0" /><line stroke="#999" stroke-width="3" x1="965.0" x2="965.0" y1="1349.0" y2="1157.0" /><line stroke="#333" stroke-width="10" x1="1029.0" x2="709.0" y1="965.0" y2="965.0" /><line stroke="#333" stroke-width="10" x1="1029.0" x2="1029.0" y1="1157.0" y2="965.0" /><line stroke="#999" stroke-width="3" x1="1029.0" x2="1029.0" y1="1349.0" y2="1157.0" /><line stroke="#333" stroke-width="10" x1="1029.0" x2="1029.0" y1="1541.0" y2="1349.0" /><line stroke="#333" stroke-width="10" x1="709.0" x2="1029.0" y1="1541.0" y2="1541.0" /><line stroke="#333" stroke-width="10" x1="1093.0" x2="1029.0" y1="1157.0" y2="1157.0" /><line stroke="#333" stroke-width="10" x1="1093.0" x2="1093.0" y1="1221.0" y2="1157.0" /><line stroke="#666" stroke-width="20" x1="1093.0" x2="1093.0" y1="1285.0" y2="1221.0" /><line stroke="#333" stroke-width="10" x1="1093.0" x2="1093.0" y1="1349.0" y2="1285.0" /><line stroke="#333" stroke-width="10" x1="1029.0" x2="1093.0" y1="1349.0" y2="1349.0" /><line stroke="#333" stroke-width="10" x1="1125.0" x2="1093.0" y1="1221.0" y2="1221.0" /><line stroke="#666" stroke-width="20" x1="1125.0" x2="1125.0" y1="1221.0" y2="1285.0" /><line stroke="#333" stroke-width="10" x1="1093.0" x2="1125.0" y1="1285.0" y2="1285.0" /><line stroke="#333" stroke-width="10" x1="1253.0" x2="1125.0" y1="1221.0" y2="1221.0" /><line stroke="#666" stroke-width="20" x1="1253.0" x2="1253.0" y1="1285.0" y2="1221.0" /><line stroke="#333" stroke-width="10" x1="1125.0" x2="1253.0" y1="1285.0" y2="1285.0" /><line stroke="#333" stroke-width="10" x1="1285.0" x2="1253.0" y1="1221.0" y2="1221.0" /><line stroke="#666" stroke-width="20" x1="1285.0" x2="1285.0" y1="1221.0" y2="1285.0" /><line stroke="#333" stroke-width="10" x1="1253.0" x2="1285.0" y1="1285.0" y2="1285.0" /><line stroke="#333" stroke-width="10" x1="389.0" x2="453.0" y1="773.0" y2="773.0" /><line stroke="#333" stroke-width="10" x1="389.0" x2="389.0" y1="709.0" y2="773.0" /><line stroke="#333" stroke-width="10" x1="453.0" x2="389.0" y1="709.0" y2="709.0" /><line stroke="#333" stroke-width="10" x1="389.0" x2="389.0" y1="1989.0" y2="1797.0" /><line stroke="#999" stroke-width="3" x1="325.0" x2="389.0" y1="1989.0" y2="1989.0" /><line stroke="#999" stroke-width="3" x1="197.0" x2="325.0" y1="1989.0" y2="1989.0" /><line stroke="#999" stroke-width="3" x1="197.0" x2="197.0" y1="1733.0" y2="1989.0" /><line stroke="#333" stroke-width="10" x1="389.0" x2="197.0" y1="1733.0" y2="1733.0" /><line stroke="#333" stroke-width="10" x1="389.0" x2="389.0" y1="2021.0" y2="1989.0" /><line stroke="#999" stroke-width="3" x1="165.0" x2="389.0" y1="2021.0" y2="2021.0" /><line stroke="#999" stroke-width="3" x1="165.0" x2="165.0" y1="1797.0" y2="1733.0" /><line stroke="#333" stroke-width="10" x1="197.0" x2="165.0" y1="1733.0" y2="1733.0" /><line stroke="#333" stroke-width="10" x1="389.0" x2="389.0" y1="2117.0" y2="2021.0" /><line stroke="#333" stroke-width="10" x1="421.0" x2="389.0" y1="2117.0" y2="2117.0" /><line stroke="#666" stroke-width="20" x1="421.0" x2="421.0" y1="2181.0" y2="2117.0" /><line stroke="#333" stroke-width="10" x1="5.0" x2="421.0" y1="2181.0" y2="2181.0" /><line stroke="#333" stroke-width="10" x1="5.0" x2="5.0" y1="1733.0" y2="2181.0" /><line stroke="#333" stroke-width="10" x1="165.0" x2="5.0" y1="1733.0" y2="1733.0" /><line stroke="#333" stroke-width="10" x1="453.0" x2="421.0" y1="2117.0" y2="2117.0" /><line stroke="#666" stroke-width="20" x1="453.0" x2="453.0" y1="2117.0" y2="2181.0" /><line stroke="#333" stroke-width="10" x1="421.0" x2="453.0" y1="2181.0" y2="2181.0" /><line stroke="#333" stroke-width="10" x1="933.0" x2="453.0" y1="2117.0" y2="2117.0" /><line stroke="#666" stroke-width="20" x1="933.0" x2="933.0" y1="2181.0" y2="2117.0" /><line stroke="#333" stroke-width="10" x1="453.0" x2="933.0" y1="2181.0" y2="2181.0" /><line stroke="#333" stroke-width="10" x1="965.0" x2="933.0" y1="2117.0" y2="2117.0" /><line stroke="#666" stroke-width="20" x1="965.0" x2="965.0" y1="2117.0" y2="2181.0" /><line stroke="#333" stroke-width="10" x1="933.0" x2="965.0" y1="2181.0" y2="2181.0" /><line stroke="#999" stroke-width="3" x1="1093.0" x2="1029.0" y1="2309.0" y2="2309.0" /><line stroke="#999" stroke-width="3" x1="1029.0" x2="1029.0" y1="2309.0" y2="2245.0" /><line stroke="#999" stroke-width="3" x1="1029.0" x2="1093.0" y1="2245.0" y2="2245.0" /><line stroke="#999" stroke-width="3" x1="1093.0" x2="1093.0" y1="2245.0" y2="2309.0" /><line stroke="#999" stroke-width="3" x1="1541.0" x2="1477.0" y1="2245.0" y2="2245.0" /><line stroke="#999" stroke-width="3" x1="1477.0" x2="1477.0" y1="2245.0" y2="2181.0" /><line stroke="#999" stroke-width="3" x1="1477.0" x2="1541.0" y1="2181.0" y2="2181.0" /><line stroke="#999" stroke-width="3" x1="1541.0" x2="1541.0" y1="2181.0" y2="2245.0" /><line stroke="#999" stroke-width="3" x1="1541.0" x2="1605.0" y1="2181.0" y2="2181.0" /><line stroke="#999" stroke-width="3" x1="1605.0" x2="1605.0" y1="2181.0" y2="2245.0" /><line stroke="#999" stroke-width="3" x1="1605.0" x2="1541.0" y1="2245.0" y2="2245.0" /><line stroke="#999" stroke-width="3" x1="1477.0" x2="1413.0" y1="2245.0" y2="2245.0" /><line stroke="#999" stroke-width="3" x1="1413.0" x2="1413.0" y1="2245.0" y2="2181.0" /><line stroke="#999" stroke-width="3" x1="1413.0" x2="1477.0" y1="2181.0" y2="2181.0" /><line stroke="#999" stroke-width="3" x1="1541.0" x2="1541.0" y1="2245.0" y2="2309.0" /><line stroke="#999" stroke-width="3" x1="1541.0" x2="1477.0" y1="2309.0" y2="2309.0" /><line stroke="#999" stroke-width="3" x1="1477.0" x2="1477.0" y1="2309.0" y2="2245.0" /><line stroke="#999" stroke-width="3" x1="1221.0" x2="1221.0" y1="2181.0" y2="2117.0" /><line stroke="#999" stroke-width="3" x1="1221.0" x2="1285.0" y1="2117.0" y2="2117.0" /><line stroke="#999" stroke-width="3" x1="1285.0" x2="1285.0" y1="2117.0" y2="2181.0" /><line stroke="#999" stroke-width="3" x1="1285.0" x2="1221.0" y1="2181.0" y2="2181.0" /><line stroke="#999" stroke-width="3" x1="1285.0" x2="1285.0" y1="2181.0" y2="2245.0" /><line stroke="#999" stroke-width="3" x1="1285.0" x2="1221.0" y1="2245.0" y2="2245.0" /><line stroke="#999" stroke-width="3" x1="1221.0" x2="1221.0" y1="2245.0" y2="2181.0" /><line stroke="#999" stroke-width="3" x1="1285.0" x2="1349.0" y1="2117.0" y2="2117.0" /><line stroke="#999" stroke-width="3" x1="1349.0" x2="1349.0" y1="2117.0" y2="2181.0" /><line stroke="#999" stroke-width="3" x1="1349.0" x2="1285.0" y1="2181.0" y2="2181.0" /><line stroke="#999" stroke-width="3" x1="1221.0" x2="1093.0" y1="1989.0" y2="1989.0" /><line stroke="#999" stroke-width="3" x1="1093.0" x2="1093.0" y1="1989.0" y2="1925.0" /><line stroke="#999" stroke-width="3" x1="1093.0" x2="1221.0" y1="1925.0" y2="1925.0" /><line stroke="#999" stroke-width="3" x1="1221.0" x2="1221.0" y1="1925.0" y2="1989.0" /><line stroke="#999" stroke-width="3" x1="1413.0" x2="1413.0" y1="1989.0" y2="1925.0" /><line stroke="#999" stroke-width="3" x1="1477.0" x2="1413.0" y1="1925.0" y2="1925.0" /><line stroke="#999" stroke-width="3" x1="1477.0" x2="1477.0" y1="1925.0" y2="1989.0" /><line stroke="#999" stroke-width="3" x1="1413.0" x2="1477.0" y1="1989.0" y2="1989.0" /><line stroke="#999" stroke-width="3" x1="1477.0" x2="1477.0" y1="1989.0" y2="2053.0" /><line stroke="#999" stroke-width="3" x1="1477.0" x2="1413.0" y1="2053.0" y2="2053.0" /><line stroke="#999" stroke-width="3" x1="1413.0" x2="1413.0" y1="2053.0" y2="1989.0" /><line stroke="#999" stroke-width="3" x1="1413.0" x2="1413.0" y1="1925.0" y2="1861.0" /><line stroke="#999" stroke-width="3" x1="1413.0" x2="1477.0" y1="1861.0" y2="1861.0" /><line stroke="#999" stroke-width="3" x1="1477.0" x2="1477.0" y1="1861.0" y2="1925.0" /><line stroke="#999" stroke-width="3" x1="1541.0" x2="1605.0" y1="1989.0" y2="1989.0" /><line stroke="#999" stroke-width="3" x1="1605.0" x2="1605.0" y1="1989.0" y2="2053.0" /><line stroke="#999" stroke-width="3" x1="1605.0" x2="1541.0" y1="2053.0" y2="2053.0" /><line stroke="#999" stroke-width="3" x1="1541.0" x2="1541.0" y1="2053.0" y2="1989.0" /><line stroke="#333" stroke-width="10" x1="965.0" x2="965.0" y1="1797.0" y2="2117.0" /><line stroke="#333" stroke-width="10" x1="1029.0" x2="965.0" y1="1797.0" y2="1797.0" /><line stroke="#999" stroke-width="3" x1="1029.0" x2="1029.0" y1="1861.0" y2="1797.0" /><line stroke="#999" stroke-width="3" x1="1093.0" x2="1029.0" y1="1861.0" y2="1861.0" /><line stroke="#999" stroke-width="3" x1="1093.0" x2="1093.0" y1="1797.0" y2="1861.0" /><line stroke="#333" stroke-width="10" x1="1285.0" x2="1093.0" y1="1797.0" y2="1797.0" /><line stroke="#666" stroke-width="20" x1="1349.0" x2="1285.0" y1="1797.0" y2="1797.0" /><line stroke="#333" stroke-width="10" x1="1605.0" x2="1349.0" y1="1797.0" y2="1797.0" /><line stroke="#999" stroke-width="3" x1="1605.0" x2="1605.0" y1="1925.0" y2="1797.0" /><line stroke="#999" stroke-width="3" x1="1669.0" x2="1605.0" y1="1925.0" y2="1925.0" /><line stroke="#333" stroke-width="10" x1="1669.0" x2="1669.0" y1="2373.0" y2="1925.0" /><line stroke="#999" stroke-width="3" x1="1669.0" x2="1669.0" y1="2437.0" y2="2373.0" /><line stroke="#333" stroke-width="10" x1="1413.0" x2="1669.0" y1="2437.0" y2="2437.0" /><line stroke="#999" stroke-width="3" x1="1413.0" x2="1413.0" y1="2373.0" y2="2437.0" /><line stroke="#999" stroke-width="3" x1="1349.0" x2="1413.0" y1="2373.0" y2="2373.0" /><line stroke="#999" stroke-width="3" x1="1349.0" x2="1349.0" y1="2437.0" y2="2373.0" /><line stroke="#333" stroke-width="10" x1="1285.0" x2="1349.0" y1="2437.0" y2="2437.0" /><line stroke="#999" stroke-width="3" x1="1285.0" x2="1285.0" y1="2373.0" y2="2437.0" /><line stroke="#999" stroke-width="3" x1="1221.0" x2="1285.0" y1="2373.0" y2="2373.0" /><line stroke="#999" stroke-width="3" x1="1221.0" x2="1221.0" y1="2437.0" y2="2373.0" /><line stroke="#333" stroke-width="10" x1="965.0" x2="1221.0" y1="2437.0" y2="2437.0" /><line stroke="#333" stroke-width="10" x1="965.0" x2="965.0" y1="2181.0" y2="2437.0" /><line stroke="#333" stroke-width="10" x1="1221.0" x2="1285.0" y1="2437.0" y2="2437.0" /><line stroke="#333" stroke-width="10" x1="1349.0" x2="1413.0" y1="2437.0" y2="2437.0" /><line stroke="#333" stroke-width="10" x1="1669.0" x2="1605.0" y1="1797.0" y2="1797.0" /><line stroke="#333" stroke-width="10" x1="1669.0" x2="1669.0" y1="1925.0" y2="1797.0" /><line stroke="#333" stroke-width="10" x1="1093.0" x2="1029.0" y1="1797.0" y2="1797.0" /><line stroke="#333" stroke-width="10" x1="1861.0" x2="1669.0" y1="2373.0" y2="2373.0" /><line stroke="#999" stroke-width="3" x1="1861.0" x2="1861.0" y1="2437.0" y2="2373.0" /><line stroke="#333" stroke-width="10" x1="1669.0" x2="1861.0" y1="2437.0" y2="2437.0" /><line stroke="#333" stroke-width="10" x1="1285.0" x2="1285.0" y1="1765.0" y2="1797.0" /><line stroke="#666" stroke-width="20" x1="1285.0" x2="1349.0" y1="1765.0" y2="1765.0" /><line stroke="#333" stroke-width="10" x1="1349.0" x2="1349.0" y1="1797.0" y2="1765.0" /><line stroke="#333" stroke-width="10" x1="1285.0" x2="1285.0" y1="1541.0" y2="1765.0" /><line stroke="#999" stroke-width="3" x1="1349.0" x2="1285.0" y1="1541.0" y2="1541.0" /><line stroke="#333" stroke-width="10" x1="1349.0" x2="1349.0" y1="1765.0" y2="1541.0" /><line stroke="#999" stroke-width="3" x1="1413.0" x2="1285.0" y1="1221.0" y2="1221.0" /><line stroke="#999" stroke-width="3" x1="1413.0" x2="1413.0" y1="1157.0" y2="1221.0" /><line stroke="#999" stroke-width="3" x1="1605.0" x2="1413.0" y1="1157.0" y2="1157.0" /><line stroke="#333" stroke-width="10" x1="1605.0" x2="1605.0" y1="1349.0" y2="1269.0" /><line stroke="#999" stroke-width="3" x1="1413.0" x2="1605.0" y1="1349.0" y2="1349.0" /><line stroke="#999" stroke-width="3" x1="1413.0" x2="1413.0" y1="1285.0" y2="1349.0" /><line stroke="#999" stroke-width="3" x1="1285.0" x2="1413.0" y1="1285.0" y2="1285.0" /><line stroke="#333" stroke-width="10" x1="1605.0" x2="1605.0" y1="1413.0" y2="1349.0" /><line stroke="#999" stroke-width="3" x1="1477.0" x2="1605.0" y1="1413.0" y2="1413.0" /><line stroke="#999" stroke-width="3" x1="1477.0" x2="1477.0" y1="1541.0" y2="1413.0" /><line stroke="#333" stroke-width="10" x1="1413.0" x2="1477.0" y1="1541.0" y2="1541.0" /><line stroke="#999" stroke-width="3" x1="1413.0" x2="1413.0" y1="1413.0" y2="1541.0" /><line stroke="#999" stroke-width="3" x1="1285.0" x2="1413.0" y1="1413.0" y2="1413.0" /><line stroke="#333" stroke-width="10" x1="1285.0" x2="1285.0" y1="1285.0" y2="1413.0" /><line stroke="#333" stroke-width="10" x1="1285.0" x2="1285.0" y1="965.0" y2="1221.0" /><line stroke="#333" stroke-width="10" x1="1413.0" x2="1285.0" y1="965.0" y2="965.0" /><line stroke="#999" stroke-width="3" x1="1413.0" x2="1413.0" y1="1093.0" y2="965.0" /><line stroke="#999" stroke-width="3" x1="1541.0" x2="1413.0" y1="1093.0" y2="1093.0" /><line stroke="#999" stroke-width="3" x1="1541.0" x2="1541.0" y1="965.0" y2="1093.0" /><line stroke="#333" stroke-width="10" x1="1605.0" x2="1541.0" y1="965.0" y2="965.0" /><line stroke="#333" stroke-width="10" x1="1605.0" x2="1605.0" y1="1157.0" y2="965.0" /><line stroke="#333" stroke-width="10" x1="1349.0" x2="1413.0" y1="1541.0" y2="1541.0" /><line stroke="#333" stroke-width="10" x1="1285.0" x2="1285.0" y1="1413.0" y2="1541.0" /><line stroke="#333" stroke-width="10" x1="1605.0" x2="1605.0" y1="1477.0" y2="1413.0" /><line stroke="#666" stroke-width="20" x1="1605.0" x2="1605.0" y1="1541.0" y2="1477.0" /><line stroke="#333" stroke-width="10" x1="1477.0" x2="1605.0" y1="1541.0" y2="1541.0" /><line stroke="#666" stroke-width="20" x1="1477.0" x2="1413.0" y1="965.0" y2="965.0" /><line stroke="#333" stroke-width="10" x1="1541.0" x2="1477.0" y1="965.0" y2="965.0" /><line stroke="#333" stroke-width="10" x1="1637.0" x2="1605.0" y1="1477.0" y2="1477.0" /><line stroke="#666" stroke-width="20" x1="1637.0" x2="1637.0" y1="1477.0" y2="1541.0" /><line stroke="#333" stroke-width="10" x1="1605.0" x2="1637.0" y1="1541.0" y2="1541.0" /><line stroke="#333" stroke-width="10" x1="1605.0" x2="1605.0" y1="1221.0" y2="1157.0" /><line stroke="#333" stroke-width="10" x1="1605.0" x2="1605.0" y1="1269.0" y2="1221.0" /><line stroke="#333" stroke-width="10" x1="1477.0" x2="1477.0" y1="965.0" y2="933.0" /><line stroke="#666" stroke-width="20" x1="1413.0" x2="1477.0" y1="933.0" y2="933.0" /><line stroke="#333" stroke-width="10" x1="1413.0" x2="1413.0" y1="933.0" y2="965.0" /><line stroke="#333" stroke-width="10" x1="1477.0" x2="1477.0" y1="933.0" y2="837.0" /><line stroke="#00d" stroke-width="20" x1="1477.0" x2="1413.0" y1="837.0" y2="837.0" /><line stroke="#333" stroke-width="10" x1="1413.0" x2="1413.0" y1="837.0" y2="933.0" /><line stroke="#333" stroke-width="10" x1="1477.0" x2="1477.0" y1="837.0" y2="773.0" /><line stroke="#333" stroke-width="10" x1="1477.0" x2="1413.0" y1="773.0" y2="773.0" /><line stroke="#333" stroke-width="10" x1="1413.0" x2="1413.0" y1="773.0" y2="837.0" /><line stroke="#999" stroke-width="3" x1="165.0" x2="165.0" y1="1797.0" y2="2021.0" /><line stroke="#333" stroke-width="10" x1="1861.0" x2="1861.0" y1="1797.0" y2="2373.0" /><line stroke="#999" stroke-width="3" x1="1925.0" x2="1861.0" y1="1797.0" y2="1797.0" /><line stroke="#333" stroke-width="10" x1="1925.0" x2="1925.0" y1="2437.0" y2="1797.0" /><line stroke="#333" stroke-width="10" x1="1861.0" x2="1925.0" y1="2437.0" y2="2437.0" /><line stroke="#333" stroke-width="10" x1="1861.0" x2="1861.0" y1="1669.0" y2="1797.0" /><line stroke="#999" stroke-width="3" x1="1925.0" x2="1861.0" y1="1669.0" y2="1669.0" /><line stroke="#333" stroke-width="10" x1="1925.0" x2="1925.0" y1="1797.0" y2="1669.0" /><line stroke="#333" stroke-width="10" x1="1797.0" x2="1637.0" y1="1477.0" y2="1477.0" /><line stroke="#999" stroke-width="3" x1="1797.0" x2="1797.0" y1="1541.0" y2="1477.0" /><line stroke="#333" stroke-width="10" x1="1637.0" x2="1797.0" y1="1541.0" y2="1541.0" /><line stroke="#333" stroke-width="10" x1="1797.0" x2="1861.0" y1="1669.0" y2="1669.0" /><line stroke="#333" stroke-width="10" x1="1797.0" x2="1797.0" y1="1541.0" y2="1669.0" /><line stroke="#333" stroke-width="10" x1="1797.0" x2="1797.0" y1="1349.0" y2="1477.0" /><line stroke="#333" stroke-width="10" x1="2053.0" x2="1797.0" y1="1349.0" y2="1349.0" /><line stroke="#333" stroke-width="10" x1="2053.0" x2="2053.0" y1="1669.0" y2="1349.0" /><line stroke="#333" stroke-width="10" x1="1925.0" x2="2053.0" y1="1669.0" y2="1669.0" /><line stroke="#333" stroke-width="10" x1="197.0" x2="197.0" y1="133.0" y2="197.0" /><line stroke="#333" stroke-width="10" x1="261.0" x2="197.0" y1="133.0" y2="133.0" /><line stroke="#00d" stroke-width="20" x1="261.0" x2="261.0" y1="133.0" y2="197.0" /><line stroke="#00d" stroke-width="20" x1="261.0" x2="197.0" y1="197.0" y2="197.0" /><line stroke="#333" stroke-width="10" x1="325.0" x2="261.0" y1="133.0" y2="133.0" /><line stroke="#333" stroke-width="10" x1="325.0" x2="325.0" y1="197.0" y2="133.0" /><line stroke="#999" stroke-width="3" x1="325.0" x2="325.0" y1="261.0" y2="197.0" /><line stroke="#333" stroke-width="10" x1="197.0" x2="325.0" y1="261.0" y2="261.0" /><line stroke="#333" stroke-width="10" x1="197.0" x2="197.0" y1="197.0" y2="261.0" /><line stroke="#333" stroke-width="10" x1="357.0" x2="325.0" y1="197.0" y2="197.0" /><line stroke="#999" stroke-width="3" x1="357.0" x2="357.0" y1="261.0" y2="197.0" /><line stroke="#333" stroke-width="10" x1="325.0" x2="357.0" y1="261.0" y2="261.0" /><line stroke="#333" stroke-width="10" x1="549.0" x2="357.0" y1="197.0" y2="197.0" /><line stroke="#666" stroke-width="20" x1="549.0" x2="549.0" y1="261.0" y2="197.0" /><line stroke="#333" stroke-width="10" x1="357.0" x2="549.0" y1="261.0" y2="261.0" /><line stroke="#333" stroke-width="10" x1="581.0" x2="549.0" y1="197.0" y2="197.0" /><line stroke="#666" stroke-width="20" x1="581.0" x2="581.0" y1="197.0" y2="261.0" /><line stroke="#333" stroke-width="10" x1="549.0" x2="581.0" y1="261.0" y2="261.0" /><line stroke="#333" stroke-width="10" x1="581.0" x2="581.0" y1="5.0" y2="197.0" /><line stroke="#333" stroke-width="10" x1="1029.0" x2="581.0" y1="5.0" y2="5.0" /><line stroke="#333" stroke-width="10" x1="1029.0" x2="1029.0" y1="325.0" y2="5.0" /><line stroke="#666" stroke-width="20" x1="1029.0" x2="1029.0" y1="389.0" y2="325.0" /><line stroke="#333" stroke-width="10" x1="1029.0" x2="1029.0" y1="453.0" y2="389.0" /><line stroke="#333" stroke-width="10" x1="581.0" x2="1029.0" y1="453.0" y2="453.0" /><line stroke="#333" stroke-width="10" x1="581.0" x2="581.0" y1="261.0" y2="453.0" /><line stroke="#999" stroke-width="3" x1="901.0" x2="709.0" y1="325.0" y2="325.0" /><line stroke="#999" stroke-width="3" x1="709.0" x2="709.0" y1="325.0" y2="133.0" /><line stroke="#999" stroke-width="3" x1="709.0" x2="901.0" y1="133.0" y2="133.0" /><line stroke="#999" stroke-width="3" x1="901.0" x2="901.0" y1="133.0" y2="325.0" /><line stroke="#999" stroke-width="3" x1="837.0" x2="773.0" y1="261.0" y2="261.0" /><line stroke="#999" stroke-width="3" x1="773.0" x2="773.0" y1="261.0" y2="197.0" /><line stroke="#999" stroke-width="3" x1="773.0" x2="837.0" y1="197.0" y2="197.0" /><line stroke="#999" stroke-width="3" x1="837.0" x2="837.0" y1="197.0" y2="261.0" /><line stroke="#333" stroke-width="10" x1="1061.0" x2="1029.0" y1="325.0" y2="325.0" /><line stroke="#666" stroke-width="20" x1="1061.0" x2="1061.0" y1="325.0" y2="389.0" /><line stroke="#333" stroke-width="10" x1="1029.0" x2="1061.0" y1="389.0" y2="389.0" /><line stroke="#333" stroke-width="10" x1="1221.0" x2="1061.0" y1="325.0" y2="325.0" /><line stroke="#333" stroke-width="10" x1="1285.0" x2="1221.0" y1="261.0" y2="325.0" /><line stroke="#333" stroke-width="10" x1="1477.0" x2="1285.0" y1="261.0" y2="261.0" /><line stroke="#333" stroke-width="10" x1="1477.0" x2="1477.0" y1="325.0" y2="261.0" /><line stroke="#333" stroke-width="10" x1="1541.0" x2="1477.0" y1="325.0" y2="325.0" /><line stroke="#0d0" stroke-width="20" x1="1541.0" x2="1541.0" y1="389.0" y2="325.0" /><line stroke="#333" stroke-width="10" x1="1477.0" x2="1541.0" y1="389.0" y2="389.0" /><line stroke="#333" stroke-width="10" x1="1477.0" x2="1477.0" y1="453.0" y2="389.0" /><line stroke="#333" stroke-width="10" x1="1285.0" x2="1477.0" y1="453.0" y2="453.0" /><line stroke="#333" stroke-width="10" x1="1221.0" x2="1285.0" y1="389.0" y2="453.0" /><line stroke="#333" stroke-width="10" x1="1061.0" x2="1221.0" y1="389.0" y2="389.0" /><ellipse cx="101.0" cy="1317.0" fill="#009" rx="12" ry="24" stroke="#009" stroke-width="5" /><ellipse cx="229.0" cy="1317.0" fill="#009" rx="12" ry="24" stroke="#009" stroke-width="5" /><rect fill="#090" height="24" stroke="#090" stroke-width="5" transform="rotate(0,165.0,1253.0)" width="24" x="153.0" y="1241.0" /><ellipse cx="101.0" cy="1189.0" fill="#009" rx="12" ry="24" stroke="#009" stroke-width="5" /><ellipse cx="229.0" cy="1189.0" fill="#009" rx="12" ry="24" stroke="#009" stroke-width="5" /><circle cx="581.0" cy="1253.0" fill="#090" r="16" stroke="#090" stroke-width="5" /><circle cx="357.0" cy="1253.0" fill="#900" r="16" stroke="#900" stroke-width="5" /><circle cx="677.0" cy="1445.0" fill="#009" r="16" stroke="#009" stroke-width="5" /><circle cx="677.0" cy="1061.0" fill="#009" r="16" stroke="#009" stroke-width="5" /><rect fill="#900" height="48" stroke="#900" stroke-width="5" transform="rotate(90,677.0,869.0)" width="32" x="661.0" y="845.0" /><circle cx="677.0" cy="741.0" fill="#009" r="16" stroke="#009" stroke-width="5" /><circle cx="677.0" cy="1765.0" fill="#009" r="16" stroke="#009" stroke-width="5" /><rect fill="#900" height="48" stroke="#900" stroke-width="5" transform="rotate(270,677.0,1637.0)" width="32" x="661.0" y="1613.0" /><rect fill="#900" height="48" stroke="#900" stroke-width="5" transform="rotate(180,933.0,1317.0)" width="32" x="917.0" y="1293.0" /><rect fill="#900" height="48" stroke="#900" stroke-width="5" transform="rotate(180,869.0,1253.0)" width="32" x="853.0" y="1229.0" /><rect fill="#900" height="48" stroke="#900" stroke-width="5" transform="rotate(180,805.0,1189.0)" width="32" x="789.0" y="1165.0" /><rect fill="#900" height="48" stroke="#900" stroke-width="5" transform="rotate(180,1061.0,1317.0)" width="32" x="1045.0" y="1293.0" /><rect fill="#900" height="48" stroke="#900" stroke-width="5" transform="rotate(180,1061.0,1189.0)" width="32" x="1045.0" y="1165.0" /><circle cx="1189.0" cy="1253.0" fill="#090" r="16" stroke="#090" stroke-width="5" /><circle cx="229.0" cy="1829.0" fill="#009" r="16" stroke="#009" stroke-width="5" /><circle cx="293.0" cy="1957.0" fill="#009" r="16" stroke="#009" stroke-width="5" /><rect fill="#900" height="48" stroke="#900" stroke-width="5" transform="rotate(270,357.0,2149.0)" width="32" x="341.0" y="2125.0" /><rect fill="#900" height="48" stroke="#900" stroke-width="5" transform="rotate(270,229.0,2085.0)" width="32" x="213.0" y="2061.0" /><rect fill="#900" height="48" stroke="#900" stroke-width="5" transform="rotate(315,101.0,2085.0)" width="32" x="85.0" y="2061.0" /><rect fill="#900" height="48" stroke="#900" stroke-width="5" transform="rotate(315,37.0,2149.0)" width="32" x="21.0" y="2125.0" /><rect fill="#900" height="48" stroke="#900" stroke-width="5" transform="rotate(315,101.0,1957.0)" width="32" x="85.0" y="1933.0" /><rect fill="#900" height="48" stroke="#900" stroke-width="5" transform="rotate(0,101.0,1765.0)" width="32" x="85.0" y="1741.0" /><rect fill="#900" height="48" stroke="#900" stroke-width="5" transform="rotate(0,37.0,1829.0)" width="32" x="21.0" y="1805.0" /><rect fill="#090" height="24" stroke="#090" stroke-width="5" transform="rotate(135,357.0,1765.0)" width="24" x="345.0" y="1753.0" /><rect fill="#090" height="24" stroke="#090" stroke-width="5" transform="rotate(0,1061.0,1253.0)" width="24" x="1049.0" y="1241.0" /><circle cx="997.0" cy="2341.0" fill="#009" r="16" stroke="#009" stroke-width="5" /><circle cx="1253.0" cy="1829.0" fill="#009" r="16" stroke="#009" stroke-width="5" /><circle cx="1381.0" cy="2085.0" fill="#009" r="16" stroke="#009" stroke-width="5" /><circle cx="1637.0" cy="2085.0" fill="#009" r="16" stroke="#009" stroke-width="5" /><circle cx="1381.0" cy="1829.0" fill="#090" r="16" stroke="#090" stroke-width="5" /><circle cx="1445.0" cy="2149.0" fill="#090" r="16" stroke="#090" stroke-width="5" /><circle cx="1189.0" cy="2341.0" fill="#090" r="16" stroke="#090" stroke-width="5" /><circle cx="997.0" cy="1829.0" fill="#090" r="16" stroke="#090" stroke-width="5" /><circle cx="1637.0" cy="2341.0" fill="#090" r="16" stroke="#090" stroke-width="5" /><circle cx="997.0" cy="1957.0" fill="#009" r="16" stroke="#009" stroke-width="5" /><circle cx="1189.0" cy="2085.0" fill="#900" r="16" stroke="#900" stroke-width="5" /><rect fill="#900" height="48" stroke="#900" stroke-width="5" transform="rotate(270,1061.0,2405.0)" width="32" x="1045.0" y="2381.0" /><rect fill="#900" height="48" stroke="#900" stroke-width="5" transform="rotate(180,1061.0,2085.0)" width="32" x="1045.0" y="2061.0" /><rect fill="#900" height="48" stroke="#900" stroke-width="5" transform="rotate(225,1381.0,2277.0)" width="32" x="1365.0" y="2253.0" /><rect fill="#900" height="48" stroke="#900" stroke-width="5" transform="rotate(90,1509.0,2021.0)" width="32" x="1493.0" y="1997.0" /><rect fill="#900" height="48" stroke="#900" stroke-width="5" transform="rotate(270,1061.0,2277.0)" width="32" x="1045.0" y="2253.0" /><rect fill="#900" height="48" stroke="#900" stroke-width="5" transform="rotate(45,1061.0,1829.0)" width="32" x="1045.0" y="1805.0" /><rect fill="#900" height="48" stroke="#900" stroke-width="5" transform="rotate(180,1445.0,1957.0)" width="32" x="1429.0" y="1933.0" /><rect fill="#900" height="48" stroke="#900" stroke-width="5" transform="rotate(270,1253.0,2405.0)" width="32" x="1237.0" y="2381.0" /><rect fill="#900" height="48" stroke="#900" stroke-width="5" transform="rotate(270,1381.0,2405.0)" width="32" x="1365.0" y="2381.0" /><rect fill="#900" height="48" stroke="#900" stroke-width="5" transform="rotate(90,1509.0,2277.0)" width="32" x="1493.0" y="2253.0" /><rect fill="#900" height="48" stroke="#900" stroke-width="5" transform="rotate(0,1573.0,2213.0)" width="32" x="1557.0" y="2189.0" /><rect fill="#900" height="48" stroke="#900" stroke-width="5" transform="rotate(180,1445.0,2213.0)" width="32" x="1429.0" y="2189.0" /><rect fill="#900" height="48" stroke="#900" stroke-width="5" transform="rotate(180,1637.0,1893.0)" width="32" x="1621.0" y="1869.0" /><rect fill="#900" height="48" stroke="#900" stroke-width="5" transform="rotate(270,1445.0,1893.0)" width="32" x="1429.0" y="1869.0" /><rect fill="#900" height="48" stroke="#900" stroke-width="5" transform="rotate(90,1445.0,2021.0)" width="32" x="1429.0" y="1997.0" /><rect fill="#900" height="48" stroke="#900" stroke-width="5" transform="rotate(45,1125.0,1957.0)" width="32" x="1109.0" y="1933.0" /><rect fill="#900" height="48" stroke="#900" stroke-width="5" transform="rotate(90,1253.0,2213.0)" width="32" x="1237.0" y="2189.0" /><rect fill="#900" height="48" stroke="#900" stroke-width="5" transform="rotate(0,1317.0,2149.0)" width="32" x="1301.0" y="2125.0" /><rect fill="#900" height="48" stroke="#900" stroke-width="5" transform="rotate(0,1189.0,1957.0)" width="32" x="1173.0" y="1933.0" /><rect fill="#900" height="48" stroke="#900" stroke-width="5" transform="rotate(135,1573.0,2021.0)" width="32" x="1557.0" y="1997.0" /><rect fill="#900" height="48" stroke="#900" stroke-width="5" transform="rotate(225,1253.0,2149.0)" width="32" x="1237.0" y="2125.0" /><rect fill="#900" height="48" stroke="#900" stroke-width="5" transform="rotate(270,1509.0,2213.0)" width="32" x="1493.0" y="2189.0" /><rect fill="#900" height="48" stroke="#900" stroke-width="5" transform="rotate(270,1317.0,1669.0)" width="32" x="1301.0" y="1645.0" /><rect fill="#900" height="48" stroke="#900" stroke-width="5" transform="rotate(180,1573.0,1509.0)" width="32" x="1557.0" y="1485.0" /><rect fill="#900" height="48" stroke="#900" stroke-width="5" transform="rotate(180,1573.0,1317.0)" width="32" x="1557.0" y="1293.0" /><rect fill="#900" height="48" stroke="#900" stroke-width="5" transform="rotate(180,1573.0,1189.0)" width="32" x="1557.0" y="1165.0" /><circle cx="1477.0" cy="1253.0" fill="#009" r="16" stroke="#009" stroke-width="5" /><rect fill="#900" height="48" stroke="#900" stroke-width="5" transform="rotate(180,1509.0,1061.0)" width="32" x="1493.0" y="1037.0" /><rect fill="#090" height="24" stroke="#090" stroke-width="5" transform="rotate(0,1317.0,1253.0)" width="24" x="1305.0" y="1241.0" /><rect fill="#090" height="24" stroke="#090" stroke-width="5" transform="rotate(0,901.0,2149.0)" width="24" x="889.0" y="2137.0" /><circle cx="613.0" cy="1573.0" fill="#090" r="16" stroke="#090" stroke-width="5" /><circle cx="613.0" cy="933.0" fill="#090" r="16" stroke="#090" stroke-width="5" /><circle cx="1893.0" cy="2117.0" fill="#009" r="16" stroke="#009" stroke-width="5" /><circle cx="1957.0" cy="1573.0" fill="#009" r="16" stroke="#009" stroke-width="5" /><rect fill="#900" height="48" stroke="#900" stroke-width="5" transform="rotate(180,2021.0,1573.0)" width="32" x="2005.0" y="1549.0" /><rect fill="#900" height="48" stroke="#900" stroke-width="5" transform="rotate(180,1893.0,1509.0)" width="32" x="1877.0" y="1485.0" /><circle cx="1957.0" cy="1445.0" fill="#090" r="16" stroke="#090" stroke-width="5" /><circle cx="1829.0" cy="1381.0" fill="#009" r="16" stroke="#009" stroke-width="5" /><rect fill="#900" height="48" stroke="#900" stroke-width="5" transform="rotate(135,2021.0,1381.0)" width="32" x="2005.0" y="1357.0" /><rect fill="#900" height="48" stroke="#900" stroke-width="5" transform="rotate(270,1829.0,1637.0)" width="32" x="1813.0" y="1613.0" /><rect fill="#009" height="24" stroke="#009" stroke-width="5" transform="rotate(0,421.0,741.0)" width="24" x="409.0" y="729.0" /><rect fill="#009" height="24" stroke="#009" stroke-width="5" transform="rotate(45,229.0,165.0)" width="24" x="217.0" y="153.0" /><rect fill="#090" height="24" stroke="#090" stroke-width="5" transform="rotate(0,613.0,421.0)" width="24" x="601.0" y="409.0" /><rect fill="#090" height="24" stroke="#090" stroke-width="5" transform="rotate(0,997.0,421.0)" width="24" x="985.0" y="409.0" /><rect fill="#090" height="24" stroke="#090" stroke-width="5" transform="rotate(0,997.0,37.0)" width="24" x="985.0" y="25.0" /><rect fill="#090" height="24" stroke="#090" stroke-width="5" transform="rotate(0,613.0,37.0)" width="24" x="601.0" y="25.0" /><rect fill="#900" height="48" stroke="#900" stroke-width="5" transform="rotate(180,933.0,101.0)" width="32" x="917.0" y="77.0" /><rect fill="#900" height="48" stroke="#900" stroke-width="5" transform="rotate(180,933.0,357.0)" width="32" x="917.0" y="333.0" /><rect fill="#900" height="48" stroke="#900" stroke-width="5" transform="rotate(180,677.0,357.0)" width="32" x="661.0" y="333.0" /><rect fill="#900" height="48" stroke="#900" stroke-width="5" transform="rotate(180,677.0,101.0)" width="32" x="661.0" y="77.0" /><circle cx="805.0" cy="293.0" fill="#090" r="16" stroke="#090" stroke-width="5" /><circle cx="869.0" cy="229.0" fill="#090" r="16" stroke="#090" stroke-width="5" /><circle cx="805.0" cy="165.0" fill="#090" r="16" stroke="#090" stroke-width="5" /><circle cx="741.0" cy="229.0" fill="#900" r="16" stroke="#900" stroke-width="5" /><rect fill="#009" height="24" stroke="#009" stroke-width="5" transform="rotate(180,805.0,229.0)" width="24" x="793.0" y="217.0" /><rect fill="#090" height="24" stroke="#090" stroke-width="5" transform="rotate(315,1445.0,421.0)" width="24" x="1433.0" y="409.0" /><rect fill="#090" height="24" stroke="#090" stroke-width="5" transform="rotate(315,1445.0,293.0)" width="24" x="1433.0" y="281.0" /><rect fill="#090" height="24" stroke="#090" stroke-width="5" transform="rotate(180,1381.0,421.0)" width="24" x="1369.0" y="409.0" /><rect fill="#090" height="24" stroke="#090" stroke-width="5" transform="rotate(180,1381.0,293.0)" width="24" x="1369.0" y="281.0" /><rect fill="#090" height="24" stroke="#090" stroke-width="5" transform="rotate(180,1317.0,357.0)" width="24" x="1305.0" y="345.0" /></svg>