<?xml version="1.0" encoding="utf-8" ?>
<svg baseProfile="tiny" height="745" version="1.2" viewBox="0 0 4122 3002" width="1024" xmlns="http://www.w3.org/2000/svg" xmlns:ev="http://www.w3.org/2001/xml-events" xmlns:xlink="http://www.w3.org/1999/xlink"><defs /><line stroke="#333" stroke-width="10" x1="125.0" x2="93.0" y1="1613.0" y2="1701.0" /><line stroke="#333" stroke-width="10" x1="13.0" x2="125.0" y1="1997.0" y2="2077.0" /><line stroke="#333" stroke-width="10" x1="125.0" x2="357.0" y1="2077.0" y2="2365.0" /><line stroke="#333" stroke-width="10" x1="357.0" x2="629.0" y1="2365.0" y2="2725.0" /><line stroke="#333" stroke-width="10" x1="629.0" x2="1109.0" y1="2725.0" y2="2725.0" /><line stroke="#333" stroke-width="10" x1="1109.0" x2="1533.0" y1="2725.0" y2="2853.0" /><line stroke="#333" stroke-width="10" x1="1533.0" x2="2373.0" y1="2853.0" y2="2997.0" /><line stroke="#333" stroke-width="10" x1="2373.0" x2="2397.0" y1="2997.0" y2="2853.0" /><line stroke="#333" stroke-width="10" x1="2397.0" x2="2157.0" y1="2853.0" y2="2525.0" /><line stroke="#333" stroke-width="10" x1="2157.0" x2="2157.0" y1="2525.0" y2="2197.0" /><line stroke="#333" stroke-width="10" x1="2157.0" x2="2429.0" y1="2197.0" y2="2317.0" /><line stroke="#333" stroke-width="10" x1="2429.0" x2="2837.0" y1="2317.0" y2="2757.0" /><line stroke="#333" stroke-width="10" x1="2837.0" x2="3157.0" y1="2757.0" y2="2653.0" /><line stroke="#333" stroke-width="10" x1="3157.0" x2="2957.0" y1="2653.0" y2="2405.0" /><line stroke="#333" stroke-width="10" x1="2957.0" x2="2733.0" y1="2405.0" y2="2117.0" /><line stroke="#333" stroke-width="10" x1="2733.0" x2="2933.0" y1="2117.0" y2="2085.0" /><line stroke="#333" stroke-width="10" x1="2933.0" x2="3477.0" y1="2085.0" y2="2093.0" /><line stroke="#333" stroke-width="10" x1="3477.0" x2="3573.0" y1="2093.0" y2="1805.0" /><line stroke="#333" stroke-width="10" x1="3573.0" x2="3765.0" y1="1805.0" y2="1789.0" /><line stroke="#d00" stroke-width="20" x1="3877.0" x2="3877.0" y1="1781.0" y2="1717.0" /><line stroke="#333" stroke-width="10" x1="3877.0" x2="3805.0" y1="1717.0" y2="1677.0" /><line stroke="#333" stroke-width="10" x1="3213.0" x2="2957.0" y1="1341.0" y2="1677.0" /><line stroke="#333" stroke-width="10" x1="2957.0" x2="2669.0" y1="1677.0" y2="1477.0" /><line stroke="#333" stroke-width="10" x1="2669.0" x2="2669.0" y1="1477.0" y2="1173.0" /><line stroke="#333" stroke-width="10" x1="2669.0" x2="3405.0" y1="1173.0" y2="1125.0" /><line stroke="#333" stroke-width="10" x1="3405.0" x2="4117.0" y1="1125.0" y2="1181.0" /><line stroke="#333" stroke-width="10" x1="4117.0" x2="3973.0" y1="1181.0" y2="813.0" /><line stroke="#333" stroke-width="10" x1="3973.0" x2="3949.0" y1="813.0" y2="485.0" /><line stroke="#333" stroke-width="10" x1="3949.0" x2="3373.0" y1="485.0" y2="317.0" /><line stroke="#333" stroke-width="10" x1="3373.0" x2="2533.0" y1="317.0" y2="5.0" /><line stroke="#333" stroke-width="10" x1="2533.0" x2="2293.0" y1="5.0" y2="557.0" /><line stroke="#333" stroke-width="10" x1="2293.0" x2="1397.0" y1="557.0" y2="317.0" /><line stroke="#333" stroke-width="10" x1="1397.0" x2="1373.0" y1="317.0" y2="685.0" /><line stroke="#333" stroke-width="10" x1="1373.0" x2="1173.0" y1="685.0" y2="1341.0" /><line stroke="#333" stroke-width="10" x1="1173.0" x2="749.0" y1="1341.0" y2="1133.0" /><line stroke="#333" stroke-width="10" x1="749.0" x2="261.0" y1="1133.0" y2="1077.0" /><line stroke="#333" stroke-width="10" x1="261.0" x2="5.0" y1="1077.0" y2="1421.0" /><line stroke="#333" stroke-width="10" x1="5.0" x2="125.0" y1="1421.0" y2="1613.0" /><line stroke="#333" stroke-width="10" x1="93.0" x2="13.0" y1="1701.0" y2="1997.0" /><line stroke="#999" stroke-width="3" x1="1109.0" x2="1093.0" y1="2725.0" y2="2653.0" /><line stroke="#999" stroke-width="3" x1="1045.0" x2="813.0" y1="2477.0" y2="2365.0" /><line stroke="#999" stroke-width="3" x1="813.0" x2="453.0" y1="2365.0" y2="2365.0" /><line stroke="#999" stroke-width="3" x1="1045.0" x2="1317.0" y1="2477.0" y2="2397.0" /><line stroke="#999" stroke-width="3" x1="1317.0" x2="1445.0" y1="2397.0" y2="2453.0" /><line stroke="#999" stroke-width="3" x1="1445.0" x2="1557.0" y1="2453.0" y2="2341.0" /><line stroke="#999" stroke-width="3" x1="1557.0" x2="1229.0" y1="2341.0" y2="2173.0" /><line stroke="#999" stroke-width="3" x1="1229.0" x2="1053.0" y1="2173.0" y2="2325.0" /><line stroke="#999" stroke-width="3" x1="1053.0" x2="717.0" y1="2325.0" y2="2077.0" /><line stroke="#999" stroke-width="3" x1="717.0" x2="645.0" y1="2077.0" y2="2221.0" /><line stroke="#999" stroke-width="3" x1="645.0" x2="813.0" y1="2221.0" y2="2365.0" /><line stroke="#999" stroke-width="3" x1="1229.0" x2="1333.0" y1="2173.0" y2="2125.0" /><line stroke="#999" stroke-width="3" x1="1333.0" x2="1589.0" y1="2125.0" y2="2141.0" /><line stroke="#999" stroke-width="3" x1="1589.0" x2="1629.0" y1="2141.0" y2="1981.0" /><line stroke="#999" stroke-width="3" x1="1629.0" x2="1413.0" y1="1981.0" y2="1797.0" /><line stroke="#999" stroke-width="3" x1="1413.0" x2="1173.0" y1="1797.0" y2="1925.0" /><line stroke="#999" stroke-width="3" x1="1173.0" x2="989.0" y1="1925.0" y2="1893.0" /><line stroke="#999" stroke-width="3" x1="989.0" x2="957.0" y1="1893.0" y2="1893.0" /><line stroke="#999" stroke-width="3" x1="637.0" x2="717.0" y1="1901.0" y2="2077.0" /><line stroke="#999" stroke-width="3" x1="1589.0" x2="1525.0" y1="2141.0" y2="2261.0" /><line stroke="#999" stroke-width="3" x1="1525.0" x2="1677.0" y1="2261.0" y2="2325.0" /><line stroke="#999" stroke-width="3" x1="1677.0" x2="1893.0" y1="2325.0" y2="2285.0" /><line stroke="#999" stroke-width="3" x1="1893.0" x2="1997.0" y1="2285.0" y2="1933.0" /><line stroke="#999" stroke-width="3" x1="1997.0" x2="1509.0" y1="1933.0" y2="1573.0" /><line stroke="#999" stroke-width="3" x1="1509.0" x2="1325.0" y1="1573.0" y2="1573.0" /><line stroke="#999" stroke-width="3" x1="973.0" x2="957.0" y1="1573.0" y2="1893.0" /><line stroke="#999" stroke-width="3" x1="957.0" x2="637.0" y1="1893.0" y2="1901.0" /><line stroke="#999" stroke-width="3" x1="1997.0" x2="2133.0" y1="1933.0" y2="1901.0" /><line stroke="#999" stroke-width="3" x1="2133.0" x2="2269.0" y1="1901.0" y2="1837.0" /><line stroke="#999" stroke-width="3" x1="2269.0" x2="2093.0" y1="1837.0" y2="1677.0" /><line stroke="#999" stroke-width="3" x1="2093.0" x2="1925.0" y1="1677.0" y2="1685.0" /><line stroke="#999" stroke-width="3" x1="1925.0" x2="1733.0" y1="1685.0" y2="1637.0" /><line stroke="#999" stroke-width="3" x1="1733.0" x2="1685.0" y1="1637.0" y2="1501.0" /><line stroke="#999" stroke-width="3" x1="1685.0" x2="1717.0" y1="1501.0" y2="1373.0" /><line stroke="#999" stroke-width="3" x1="1717.0" x2="1557.0" y1="1373.0" y2="1421.0" /><line stroke="#999" stroke-width="3" x1="1557.0" x2="1509.0" y1="1421.0" y2="1573.0" /><line stroke="#999" stroke-width="3" x1="2093.0" x2="2237.0" y1="1677.0" y2="1613.0" /><line stroke="#999" stroke-width="3" x1="2237.0" x2="2133.0" y1="1613.0" y2="1501.0" /><line stroke="#999" stroke-width="3" x1="2133.0" x2="2069.0" y1="1501.0" y2="1333.0" /><line stroke="#999" stroke-width="3" x1="2069.0" x2="1805.0" y1="1333.0" y2="1253.0" /><line stroke="#999" stroke-width="3" x1="1805.0" x2="1717.0" y1="1253.0" y2="1373.0" /><line stroke="#999" stroke-width="3" x1="2269.0" x2="2445.0" y1="1837.0" y2="1933.0" /><line stroke="#999" stroke-width="3" x1="2445.0" x2="2549.0" y1="1933.0" y2="1805.0" /><line stroke="#999" stroke-width="3" x1="2549.0" x2="2485.0" y1="1805.0" y2="1533.0" /><line stroke="#999" stroke-width="3" x1="2485.0" x2="2253.0" y1="1533.0" y2="1125.0" /><line stroke="#999" stroke-width="3" x1="2253.0" x2="1885.0" y1="1125.0" y2="941.0" /><line stroke="#999" stroke-width="3" x1="1885.0" x2="1557.0" y1="941.0" y2="1165.0" /><line stroke="#999" stroke-width="3" x1="1557.0" x2="1325.0" y1="1165.0" y2="1573.0" /><line stroke="#999" stroke-width="3" x1="1325.0" x2="973.0" y1="1573.0" y2="1573.0" /><line stroke="#999" stroke-width="3" x1="1093.0" x2="1045.0" y1="2653.0" y2="2477.0" /><line stroke="#999" stroke-width="3" x1="1589.0" x2="1093.0" y1="2765.0" y2="2653.0" /><line stroke="#999" stroke-width="3" x1="2149.0" x2="1589.0" y1="2885.0" y2="2765.0" /><line stroke="#999" stroke-width="3" x1="2213.0" x2="2149.0" y1="2757.0" y2="2885.0" /><line stroke="#999" stroke-width="3" x1="2045.0" x2="2213.0" y1="2493.0" y2="2757.0" /><line stroke="#999" stroke-width="3" x1="2085.0" x2="2045.0" y1="2277.0" y2="2493.0" /><line stroke="#999" stroke-width="3" x1="2109.0" x2="2085.0" y1="2093.0" y2="2277.0" /><line stroke="#999" stroke-width="3" x1="2373.0" x2="2109.0" y1="2221.0" y2="2093.0" /><line stroke="#999" stroke-width="3" x1="2717.0" x2="2373.0" y1="2485.0" y2="2221.0" /><line stroke="#999" stroke-width="3" x1="2789.0" x2="2717.0" y1="2437.0" y2="2485.0" /><line stroke="#999" stroke-width="3" x1="2605.0" x2="2789.0" y1="2093.0" y2="2437.0" /><line stroke="#999" stroke-width="3" x1="2813.0" x2="2605.0" y1="2045.0" y2="2093.0" /><line stroke="#999" stroke-width="3" x1="3269.0" x2="2813.0" y1="2005.0" y2="2045.0" /><line stroke="#999" stroke-width="3" x1="3437.0" x2="3269.0" y1="1893.0" y2="2005.0" /><line stroke="#999" stroke-width="3" x1="3485.0" x2="3437.0" y1="1693.0" y2="1893.0" /><line stroke="#999" stroke-width="3" x1="3253.0" x2="3485.0" y1="1653.0" y2="1693.0" /><line stroke="#999" stroke-width="3" x1="2925.0" x2="3253.0" y1="1773.0" y2="1653.0" /><line stroke="#999" stroke-width="3" x1="2693.0" x2="2925.0" y1="1645.0" y2="1773.0" /><line stroke="#999" stroke-width="3" x1="2597.0" x2="2693.0" y1="1405.0" y2="1645.0" /><line stroke="#999" stroke-width="3" x1="2533.0" x2="2597.0" y1="1133.0" y2="1405.0" /><line stroke="#999" stroke-width="3" x1="2725.0" x2="2533.0" y1="1045.0" y2="1133.0" /><line stroke="#999" stroke-width="3" x1="3333.0" x2="2725.0" y1="1053.0" y2="1045.0" /><line stroke="#999" stroke-width="3" x1="3133.0" x2="3333.0" y1="717.0" y2="1053.0" /><line stroke="#999" stroke-width="3" x1="2317.0" x2="3133.0" y1="677.0" y2="717.0" /><line stroke="#999" stroke-width="3" x1="1629.0" x2="2317.0" y1="701.0" y2="677.0" /><line stroke="#999" stroke-width="3" x1="1317.0" x2="1629.0" y1="1165.0" y2="701.0" /><line stroke="#999" stroke-width="3" x1="1189.0" x2="1317.0" y1="1445.0" y2="1165.0" /><line stroke="#999" stroke-width="3" x1="797.0" x2="1189.0" y1="1293.0" y2="1445.0" /><line stroke="#999" stroke-width="3" x1="477.0" x2="797.0" y1="1253.0" y2="1293.0" /><line stroke="#999" stroke-width="3" x1="157.0" x2="213.0" y1="1893.0" y2="1485.0" /><line stroke="#999" stroke-width="3" x1="453.0" x2="157.0" y1="2365.0" y2="1893.0" /><line stroke="#999" stroke-width="3" x1="453.0" x2="357.0" y1="2365.0" y2="2365.0" /><line stroke="#999" stroke-width="3" x1="213.0" x2="477.0" y1="1485.0" y2="1253.0" /><line stroke="#333" stroke-width="10" x1="3877.0" x2="3893.0" y1="1781.0" y2="1781.0" /><line stroke="#0d0" stroke-width="20" x1="4005.0" x2="4005.0" y1="1781.0" y2="1749.0" /><line stroke="#333" stroke-width="10" x1="4005.0" x2="3893.0" y1="1749.0" y2="1725.0" /><line stroke="#999" stroke-width="3" x1="1845.0" x2="1965.0" y1="1565.0" y2="1565.0" /><line stroke="#999" stroke-width="3" x1="1965.0" x2="1965.0" y1="1565.0" y2="1485.0" /><line stroke="#999" stroke-width="3" x1="1965.0" x2="1845.0" y1="1485.0" y2="1453.0" /><line stroke="#999" stroke-width="3" x1="1845.0" x2="1805.0" y1="1453.0" y2="1517.0" /><line stroke="#999" stroke-width="3" x1="1805.0" x2="1845.0" y1="1517.0" y2="1565.0" /><line stroke="#333" stroke-width="10" x1="3893.0" x2="4005.0" y1="1781.0" y2="1781.0" /><line stroke="#333" stroke-width="10" x1="3893.0" x2="3877.0" y1="1725.0" y2="1717.0" /><line stroke="#666" stroke-width="20" x1="3893.0" x2="3893.0" y1="1725.0" y2="1781.0" /><line stroke="#333" stroke-width="10" x1="3765.0" x2="3877.0" y1="1789.0" y2="1781.0" /><line stroke="#999" stroke-width="3" x1="3805.0" x2="3765.0" y1="1677.0" y2="1789.0" /><line stroke="#333" stroke-width="10" x1="3805.0" x2="3213.0" y1="1677.0" y2="1341.0" /><line stroke="#999" stroke-width="3" x1="3813.0" x2="3837.0" y1="1765.0" y2="1773.0" /><line stroke="#999" stroke-width="3" x1="3837.0" x2="3861.0" y1="1773.0" y2="1725.0" /><line stroke="#999" stroke-width="3" x1="3861.0" x2="3837.0" y1="1725.0" y2="1717.0" /><line stroke="#999" stroke-width="3" x1="3837.0" x2="3813.0" y1="1717.0" y2="1765.0" /><ellipse cx="3715.0" cy="1715.0" fill="#009" rx="12" ry="24" stroke="#009" stroke-width="5" /><rect fill="#900" height="48" stroke="#900" stroke-width="5" transform="rotate(45,1455.0,2205.0)" width="32" x="1439.0" y="2181.0" /><rect fill="#900" height="48" stroke="#900" stroke-width="5" transform="rotate(225,865.0,1815.0)" width="32" x="849.0" y="1791.0" /><rect fill="#900" height="48" stroke="#900" stroke-width="5" transform="rotate(225,2575.0,2285.0)" width="32" x="2559.0" y="2261.0" /><rect fill="#900" height="48" stroke="#900" stroke-width="5" transform="rotate(180,3285.0,1795.0)" width="32" x="3269.0" y="1771.0" /><rect fill="#900" height="48" stroke="#900" stroke-width="5" transform="rotate(135,3045.0,865.0)" width="32" x="3029.0" y="841.0" /><circle cx="915.0" cy="2615.0" fill="#900" r="16" stroke="#900" stroke-width="5" /><circle cx="1015.0" cy="2675.0" fill="#090" r="16" stroke="#090" stroke-width="5" /><circle cx="975.0" cy="2585.0" fill="#090" r="16" stroke="#090" stroke-width="5" /><circle cx="875.0" cy="2495.0" fill="#090" r="16" stroke="#090" stroke-width="5" /><circle cx="1405.0" cy="2775.0" fill="#009" r="16" stroke="#009" stroke-width="5" /><circle cx="1805.0" cy="2865.0" fill="#009" r="16" stroke="#009" stroke-width="5" /><circle cx="2275.0" cy="2905.0" fill="#009" r="16" stroke="#009" stroke-width="5" /><circle cx="2815.0" cy="2575.0" fill="#009" r="16" stroke="#009" stroke-width="5" /><circle cx="3385.0" cy="2025.0" fill="#009" r="16" stroke="#009" stroke-width="5" /><circle cx="3805.0" cy="1715.0" fill="#009" r="16" stroke="#009" stroke-width="5" /><circle cx="3285.0" cy="1475.0" fill="#009" r="16" stroke="#009" stroke-width="5" /><rect fill="#900" height="48" stroke="#900" stroke-width="5" transform="rotate(0,445.0,2185.0)" width="32" x="429.0" y="2161.0" /><rect fill="#900" height="48" stroke="#900" stroke-width="5" transform="rotate(0,505.0,2095.0)" width="32" x="489.0" y="2071.0" /><rect fill="#900" height="48" stroke="#900" stroke-width="5" transform="rotate(0,375.0,1905.0)" width="32" x="359.0" y="1881.0" /><rect fill="#900" height="48" stroke="#900" stroke-width="5" transform="rotate(0,385.0,1765.0)" width="32" x="369.0" y="1741.0" /><rect fill="#900" height="48" stroke="#900" stroke-width="5" transform="rotate(0,565.0,1535.0)" width="32" x="549.0" y="1511.0" /><rect fill="#900" height="48" stroke="#900" stroke-width="5" transform="rotate(0,745.0,1635.0)" width="32" x="729.0" y="1611.0" /><rect fill="#900" height="48" stroke="#900" stroke-width="5" transform="rotate(0,605.0,1775.0)" width="32" x="589.0" y="1751.0" /><rect fill="#900" height="48" stroke="#900" stroke-width="5" transform="rotate(0,1265.0,1505.0)" width="32" x="1249.0" y="1481.0" /><rect fill="#900" height="48" stroke="#900" stroke-width="5" transform="rotate(0,1385.0,1295.0)" width="32" x="1369.0" y="1271.0" /><rect fill="#900" height="48" stroke="#900" stroke-width="5" transform="rotate(0,2255.0,865.0)" width="32" x="2239.0" y="841.0" /><rect fill="#900" height="48" stroke="#900" stroke-width="5" transform="rotate(0,2525.0,925.0)" width="32" x="2509.0" y="901.0" /><rect fill="#900" height="48" stroke="#900" stroke-width="5" transform="rotate(0,2475.0,1215.0)" width="32" x="2459.0" y="1191.0" /><rect fill="#900" height="48" stroke="#900" stroke-width="5" transform="rotate(0,2815.0,1815.0)" width="32" x="2799.0" y="1791.0" /><rect fill="#900" height="48" stroke="#900" stroke-width="5" transform="rotate(0,3025.0,1885.0)" width="32" x="3009.0" y="1861.0" /><rect fill="#900" height="48" stroke="#900" stroke-width="5" transform="rotate(0,2545.0,2045.0)" width="32" x="2529.0" y="2021.0" /><rect fill="#900" height="48" stroke="#900" stroke-width="5" transform="rotate(0,2175.0,1975.0)" width="32" x="2159.0" y="1951.0" /><rect fill="#900" height="48" stroke="#900" stroke-width="5" transform="rotate(0,1795.0,2425.0)" width="32" x="1779.0" y="2401.0" /><rect fill="#900" height="48" stroke="#900" stroke-width="5" transform="rotate(0,1915.0,2675.0)" width="32" x="1899.0" y="2651.0" /><rect fill="#900" height="48" stroke="#900" stroke-width="5" transform="rotate(0,1335.0,2615.0)" width="32" x="1319.0" y="2591.0" /><rect fill="#900" height="48" stroke="#900" stroke-width="5" transform="rotate(0,1625.0,2585.0)" width="32" x="1609.0" y="2561.0" /><circle cx="2845.0" cy="2675.0" fill="#009" r="16" stroke="#009" stroke-width="5" /><circle cx="2945.0" cy="2665.0" fill="#009" r="16" stroke="#009" stroke-width="5" /><circle cx="2955.0" cy="2565.0" fill="#009" r="16" stroke="#009" stroke-width="5" /><circle cx="3465.0" cy="1635.0" fill="#009" r="16" stroke="#009" stroke-width="5" /><circle cx="65.0" cy="1985.0" fill="#009" r="16" stroke="#009" stroke-width="5" /><circle cx="125.0" cy="1405.0" fill="#009" r="16" stroke="#009" stroke-width="5" /><circle cx="335.0" cy="1185.0" fill="#009" r="16" stroke="#009" stroke-width="5" /><circle cx="1505.0" cy="505.0" fill="#009" r="16" stroke="#009" stroke-width="5" /><circle cx="1445.0" cy="415.0" fill="#009" r="16" stroke="#009" stroke-width="5" /><circle cx="1625.0" cy="475.0" fill="#009" r="16" stroke="#009" stroke-width="5" /><circle cx="2595.0" cy="145.0" fill="#009" r="16" stroke="#009" stroke-width="5" /><circle cx="2745.0" cy="175.0" fill="#009" r="16" stroke="#009" stroke-width="5" /><circle cx="2955.0" cy="255.0" fill="#009" r="16" stroke="#009" stroke-width="5" /><circle cx="2315.0" cy="2845.0" fill="#090" r="16" stroke="#090" stroke-width="5" /><circle cx="205.0" cy="1295.0" fill="#090" r="16" stroke="#090" stroke-width="5" /><circle cx="2895.0" cy="2535.0" fill="#090" r="16" stroke="#090" stroke-width="5" /><circle cx="3635.0" cy="1635.0" fill="#090" r="16" stroke="#090" stroke-width="5" /><circle cx="1445.0" cy="615.0" fill="#090" r="16" stroke="#090" stroke-width="5" /><circle cx="2645.0" cy="255.0" fill="#090" r="16" stroke="#090" stroke-width="5" /><circle cx="3765.0" cy="525.0" fill="#090" r="16" stroke="#090" stroke-width="5" /><circle cx="3885.0" cy="625.0" fill="#090" r="16" stroke="#090" stroke-width="5" /><circle cx="3845.0" cy="795.0" fill="#090" r="16" stroke="#090" stroke-width="5" /><circle cx="3765.0" cy="655.0" fill="#090" r="16" stroke="#090" stroke-width="5" /><circle cx="3695.0" cy="575.0" fill="#090" r="16" stroke="#090" stroke-width="5" /><circle cx="3865.0" cy="715.0" fill="#900" r="16" stroke="#900" stroke-width="5" /><ellipse cx="1895.0" cy="1515.0" fill="#090" rx="12" ry="24" stroke="#090" stroke-width="5" /><ellipse cx="3435.0" cy="1555.0" fill="#009" rx="12" ry="24" stroke="#009" stroke-width="5" /><ellipse cx="3565.0" cy="1745.0" fill="#009" rx="12" ry="24" stroke="#009" stroke-width="5" /><ellipse cx="3525.0" cy="1615.0" fill="#009" rx="12" ry="24" stroke="#009" stroke-width="5" /><rect fill="#090" height="24" stroke="#090" stroke-width="5" transform="rotate(0,3705.0,785.0)" width="24" x="3693.0" y="773.0" /><rect fill="#090" height="24" stroke="#090" stroke-width="5" transform="rotate(0,675.0,2655.0)" width="24" x="663.0" y="2643.0" /><rect fill="#090" height="24" stroke="#090" stroke-width="5" transform="rotate(0,1925.0,865.0)" width="24" x="1913.0" y="853.0" /><rect fill="#090" height="24" stroke="#090" stroke-width="5" transform="rotate(0,2315.0,1045.0)" width="24" x="2303.0" y="1033.0" /><rect fill="#090" height="24" stroke="#090" stroke-width="5" transform="rotate(0,1785.0,1375.0)" width="24" x="1773.0" y="1363.0" /><rect fill="#090" height="24" stroke="#090" stroke-width="5" transform="rotate(0,2075.0,1615.0)" width="24" x="2063.0" y="1603.0" /><rect fill="#090" height="24" stroke="#090" stroke-width="5" transform="rotate(0,2885.0,2465.0)" width="24" x="2873.0" y="2453.0" /><rect fill="#090" height="24" stroke="#090" stroke-width="5" transform="rotate(0,3145.0,1915.0)" width="24" x="3133.0" y="1903.0" /><rect fill="#090" height="24" stroke="#090" stroke-width="5" transform="rotate(0,3165.0,1825.0)" width="24" x="3153.0" y="1813.0" /><rect fill="#090" height="24" stroke="#090" stroke-width="5" transform="rotate(0,2785.0,885.0)" width="24" x="2773.0" y="873.0" /><rect fill="#090" height="24" stroke="#090" stroke-width="5" transform="rotate(0,3145.0,995.0)" width="24" x="3133.0" y="983.0" /></svg>