<?xml version="1.0" encoding="utf-8" ?>
<svg baseProfile="tiny" height="444" version="1.2" viewBox="0 0 3943 1712" width="1024" xmlns="http://www.w3.org/2000/svg" xmlns:ev="http://www.w3.org/2001/xml-events" xmlns:xlink="http://www.w3.org/1999/xlink"><defs /><line stroke="#333" stroke-width="10" x1="2317.0" x2="5.0" y1="114.0" y2="114.0" /><line stroke="#333" stroke-width="10" x1="5.0" x2="6.0" y1="114.0" y2="1336.0" /><line stroke="#999" stroke-width="3" x1="247.0" x2="247.0" y1="1103.0" y2="643.0" /><line stroke="#999" stroke-width="3" x1="247.0" x2="779.0" y1="643.0" y2="643.0" /><line stroke="#999" stroke-width="3" x1="463.0" x2="247.0" y1="1103.0" y2="1103.0" /><line stroke="#999" stroke-width="3" x1="423.0" x2="463.0" y1="1337.0" y2="1103.0" /><line stroke="#999" stroke-width="3" x1="556.0" x2="423.0" y1="1336.0" y2="1337.0" /><line stroke="#999" stroke-width="3" x1="591.0" x2="556.0" y1="1103.0" y2="1336.0" /><line stroke="#999" stroke-width="3" x1="463.0" x2="591.0" y1="1103.0" y2="1103.0" /><line stroke="#333" stroke-width="10" x1="423.0" x2="746.0" y1="1337.0" y2="1574.0" /><line stroke="#333" stroke-width="10" x1="746.0" x2="556.0" y1="1446.0" y2="1336.0" /><line stroke="#999" stroke-width="3" x1="746.0" x2="746.0" y1="1574.0" y2="1446.0" /><line stroke="#333" stroke-width="10" x1="746.0" x2="1402.0" y1="1574.0" y2="1574.0" /><line stroke="#333" stroke-width="10" x1="1402.0" x2="1592.0" y1="1574.0" y2="1707.0" /><line stroke="#333" stroke-width="10" x1="1592.0" x2="2264.0" y1="1707.0" y2="1707.0" /><line stroke="#333" stroke-width="10" x1="2264.0" x2="2264.0" y1="1707.0" y2="1385.0" /><line stroke="#333" stroke-width="10" x1="1592.0" x2="1391.0" y1="1385.0" y2="1446.0" /><line stroke="#333" stroke-width="10" x1="1391.0" x2="746.0" y1="1446.0" y2="1446.0" /><line stroke="#999" stroke-width="3" x1="1592.0" x2="1592.0" y1="1385.0" y2="1707.0" /><line stroke="#999" stroke-width="3" x1="1402.0" x2="1391.0" y1="1574.0" y2="1446.0" /><line stroke="#999" stroke-width="3" x1="1007.0" x2="1007.0" y1="542.0" y2="428.0" /><line stroke="#999" stroke-width="3" x1="1007.0" x2="1172.0" y1="428.0" y2="356.0" /><line stroke="#999" stroke-width="3" x1="1172.0" x2="1172.0" y1="356.0" y2="467.0" /><line stroke="#999" stroke-width="3" x1="1172.0" x2="1007.0" y1="467.0" y2="542.0" /><line stroke="#999" stroke-width="3" x1="1172.0" x2="1493.0" y1="356.0" y2="338.0" /><line stroke="#999" stroke-width="3" x1="1406.0" x2="1172.0" y1="437.0" y2="467.0" /><line stroke="#999" stroke-width="3" x1="1493.0" x2="1559.0" y1="338.0" y2="491.0" /><line stroke="#999" stroke-width="3" x1="1559.0" x2="1769.0" y1="491.0" y2="542.0" /><line stroke="#999" stroke-width="3" x1="1769.0" x2="1889.0" y1="542.0" y2="446.0" /><line stroke="#999" stroke-width="3" x1="1889.0" x2="2193.0" y1="446.0" y2="581.0" /><line stroke="#999" stroke-width="3" x1="2193.0" x2="2317.0" y1="581.0" y2="571.0" /><line stroke="#999" stroke-width="3" x1="2313.0" x2="2193.0" y1="711.0" y2="726.0" /><line stroke="#999" stroke-width="3" x1="2193.0" x2="1919.0" y1="726.0" y2="590.0" /><line stroke="#999" stroke-width="3" x1="1919.0" x2="1730.0" y1="590.0" y2="648.0" /><line stroke="#999" stroke-width="3" x1="1730.0" x2="1478.0" y1="648.0" y2="572.0" /><line stroke="#999" stroke-width="3" x1="1478.0" x2="1406.0" y1="572.0" y2="437.0" /><line stroke="#999" stroke-width="3" x1="491.0" x2="1007.0" y1="428.0" y2="428.0" /><line stroke="#999" stroke-width="3" x1="491.0" x2="491.0" y1="428.0" y2="542.0" /><line stroke="#999" stroke-width="3" x1="1007.0" x2="491.0" y1="542.0" y2="542.0" /><line stroke="#999" stroke-width="3" x1="1406.0" x2="1493.0" y1="437.0" y2="338.0" /><line stroke="#999" stroke-width="3" x1="1559.0" x2="1478.0" y1="491.0" y2="572.0" /><line stroke="#999" stroke-width="3" x1="1730.0" x2="1769.0" y1="648.0" y2="542.0" /><line stroke="#999" stroke-width="3" x1="1889.0" x2="1919.0" y1="446.0" y2="590.0" /><line stroke="#999" stroke-width="3" x1="2193.0" x2="2193.0" y1="726.0" y2="581.0" /><line stroke="#333" stroke-width="10" x1="2313.0" x2="2658.0" y1="711.0" y2="517.0" /><line stroke="#999" stroke-width="3" x1="2658.0" x2="2653.0" y1="517.0" y2="434.0" /><line stroke="#333" stroke-width="10" x1="2653.0" x2="2317.0" y1="434.0" y2="571.0" /><line stroke="#999" stroke-width="3" x1="3017.0" x2="3017.0" y1="414.0" y2="302.0" /><line stroke="#333" stroke-width="10" x1="2658.0" x2="3017.0" y1="517.0" y2="414.0" /><line stroke="#333" stroke-width="10" x1="3017.0" x2="2653.0" y1="302.0" y2="434.0" /><line stroke="#999" stroke-width="3" x1="2317.0" x2="2313.0" y1="571.0" y2="711.0" /><line stroke="#999" stroke-width="3" x1="779.0" x2="779.0" y1="643.0" y2="1103.0" /><line stroke="#999" stroke-width="3" x1="779.0" x2="591.0" y1="1103.0" y2="1103.0" /><line stroke="#999" stroke-width="3" x1="286.0" x2="286.0" y1="1056.0" y2="694.0" /><line stroke="#999" stroke-width="3" x1="732.0" x2="286.0" y1="1056.0" y2="1056.0" /><line stroke="#999" stroke-width="3" x1="732.0" x2="732.0" y1="694.0" y2="1056.0" /><line stroke="#999" stroke-width="3" x1="286.0" x2="732.0" y1="694.0" y2="694.0" /><line stroke="#999" stroke-width="3" x1="674.0" x2="674.0" y1="738.0" y2="1012.0" /><line stroke="#999" stroke-width="3" x1="674.0" x2="342.0" y1="1012.0" y2="1012.0" /><line stroke="#999" stroke-width="3" x1="342.0" x2="342.0" y1="1012.0" y2="738.0" /><line stroke="#999" stroke-width="3" x1="342.0" x2="674.0" y1="738.0" y2="738.0" /><line stroke="#999" stroke-width="3" x1="633.0" x2="633.0" y1="783.0" y2="969.0" /><line stroke="#999" stroke-width="3" x1="633.0" x2="399.0" y1="969.0" y2="969.0" /><line stroke="#999" stroke-width="3" x1="399.0" x2="399.0" y1="969.0" y2="783.0" /><line stroke="#999" stroke-width="3" x1="399.0" x2="633.0" y1="783.0" y2="783.0" /><line stroke="#999" stroke-width="3" x1="457.0" x2="457.0" y1="913.0" y2="837.0" /><line stroke="#999" stroke-width="3" x1="457.0" x2="557.0" y1="837.0" y2="837.0" /><line stroke="#999" stroke-width="3" x1="557.0" x2="557.0" y1="837.0" y2="913.0" /><line stroke="#999" stroke-width="3" x1="557.0" x2="457.0" y1="913.0" y2="913.0" /><line stroke="#999" stroke-width="3" x1="2278.0" x2="2228.0" y1="1087.0" y2="1087.0" /><line stroke="#999" stroke-width="3" x1="2228.0" x2="2228.0" y1="1087.0" y2="977.0" /><line stroke="#999" stroke-width="3" x1="2228.0" x2="2278.0" y1="977.0" y2="977.0" /><line stroke="#999" stroke-width="3" x1="2278.0" x2="2278.0" y1="977.0" y2="996.0" /><line stroke="#999" stroke-width="3" x1="2278.0" x2="2278.0" y1="1053.0" y2="1087.0" /><line stroke="#333" stroke-width="10" x1="2313.0" x2="2313.0" y1="1336.0" y2="1053.0" /><line stroke="#333" stroke-width="10" x1="2313.0" x2="2313.0" y1="996.0" y2="711.0" /><line stroke="#999" stroke-width="3" x1="2297.0" x2="2313.0" y1="996.0" y2="996.0" /><line stroke="#999" stroke-width="3" x1="2313.0" x2="2297.0" y1="1053.0" y2="1053.0" /><line stroke="#999" stroke-width="3" x1="2297.0" x2="2278.0" y1="1053.0" y2="1053.0" /><line stroke="#999" stroke-width="3" x1="2278.0" x2="2278.0" y1="1053.0" y2="996.0" /><line stroke="#333" stroke-width="10" x1="2313.0" x2="2678.0" y1="1053.0" y2="1053.0" /><line stroke="#999" stroke-width="3" x1="2678.0" x2="2677.0" y1="1053.0" y2="996.0" /><line stroke="#333" stroke-width="10" x1="2677.0" x2="2313.0" y1="996.0" y2="996.0" /><line stroke="#999" stroke-width="3" x1="2297.0" x2="2297.0" y1="996.0" y2="1053.0" /><line stroke="#999" stroke-width="3" x1="2278.0" x2="2297.0" y1="996.0" y2="996.0" /><line stroke="#999" stroke-width="3" x1="2313.0" x2="2313.0" y1="1053.0" y2="996.0" /><line stroke="#999" stroke-width="3" x1="2678.0" x2="2729.0" y1="1053.0" y2="1053.0" /><line stroke="#333" stroke-width="10" x1="2729.0" x2="2767.0" y1="1053.0" y2="1053.0" /><line stroke="#333" stroke-width="10" x1="2767.0" x2="2835.0" y1="1053.0" y2="1053.0" /><line stroke="#333" stroke-width="10" x1="2835.0" x2="2880.0" y1="1053.0" y2="1053.0" /><line stroke="#333" stroke-width="10" x1="2880.0" x2="2930.0" y1="1053.0" y2="1053.0" /><line stroke="#333" stroke-width="10" x1="2930.0" x2="2973.0" y1="1053.0" y2="1053.0" /><line stroke="#333" stroke-width="10" x1="2973.0" x2="3350.0" y1="1053.0" y2="1053.0" /><line stroke="#333" stroke-width="10" x1="3350.0" x2="3602.0" y1="1053.0" y2="801.0" /><line stroke="#333" stroke-width="10" x1="3491.0" x2="3308.0" y1="801.0" y2="996.0" /><line stroke="#333" stroke-width="10" x1="3308.0" x2="2973.0" y1="996.0" y2="996.0" /><line stroke="#333" stroke-width="10" x1="2973.0" x2="2930.0" y1="996.0" y2="996.0" /><line stroke="#333" stroke-width="10" x1="2930.0" x2="2880.0" y1="996.0" y2="996.0" /><line stroke="#333" stroke-width="10" x1="2880.0" x2="2835.0" y1="996.0" y2="996.0" /><line stroke="#999" stroke-width="3" x1="2835.0" x2="2767.0" y1="996.0" y2="996.0" /><line stroke="#333" stroke-width="10" x1="2767.0" x2="2729.0" y1="996.0" y2="996.0" /><line stroke="#333" stroke-width="10" x1="2729.0" x2="2677.0" y1="996.0" y2="996.0" /><line stroke="#999" stroke-width="3" x1="2729.0" x2="2729.0" y1="1053.0" y2="996.0" /><line stroke="#999" stroke-width="3" x1="2767.0" x2="2767.0" y1="996.0" y2="1053.0" /><line stroke="#999" stroke-width="3" x1="2835.0" x2="2835.0" y1="1053.0" y2="996.0" /><line stroke="#999" stroke-width="3" x1="2880.0" x2="2880.0" y1="996.0" y2="1053.0" /><line stroke="#999" stroke-width="3" x1="2930.0" x2="2930.0" y1="1053.0" y2="996.0" /><line stroke="#999" stroke-width="3" x1="2973.0" x2="2973.0" y1="996.0" y2="1053.0" /><line stroke="#999" stroke-width="3" x1="3350.0" x2="3308.0" y1="1053.0" y2="996.0" /><line stroke="#999" stroke-width="3" x1="3602.0" x2="3491.0" y1="801.0" y2="801.0" /><line stroke="#333" stroke-width="10" x1="3017.0" x2="3293.0" y1="414.0" y2="419.0" /><line stroke="#999" stroke-width="3" x1="3293.0" x2="3301.0" y1="419.0" y2="306.0" /><line stroke="#333" stroke-width="10" x1="3301.0" x2="3017.0" y1="306.0" y2="302.0" /><line stroke="#333" stroke-width="10" x1="3598.0" x2="3301.0" y1="5.0" y2="306.0" /><line stroke="#333" stroke-width="10" x1="3938.0" x2="3598.0" y1="345.0" y2="5.0" /><line stroke="#333" stroke-width="10" x1="3614.0" x2="3938.0" y1="705.0" y2="345.0" /><line stroke="#333" stroke-width="10" x1="3602.0" x2="3614.0" y1="801.0" y2="705.0" /><line stroke="#333" stroke-width="10" x1="3494.0" x2="3491.0" y1="705.0" y2="801.0" /><line stroke="#999" stroke-width="3" x1="3494.0" x2="3614.0" y1="705.0" y2="705.0" /><line stroke="#333" stroke-width="10" x1="2678.0" x2="2678.0" y1="1053.0" y2="1182.0" /><line stroke="#333" stroke-width="10" x1="2729.0" x2="2729.0" y1="1182.0" y2="1053.0" /><line stroke="#333" stroke-width="10" x1="2678.0" x2="2729.0" y1="1182.0" y2="1182.0" /><line stroke="#333" stroke-width="10" x1="1924.0" x2="1592.0" y1="1385.0" y2="1385.0" /><line stroke="#333" stroke-width="10" x1="2264.0" x2="2010.0" y1="1385.0" y2="1385.0" /><line stroke="#333" stroke-width="10" x1="2010.0" x2="2010.0" y1="1385.0" y2="1336.0" /><line stroke="#333" stroke-width="10" x1="1924.0" x2="1924.0" y1="1336.0" y2="1385.0" /><line stroke="#999" stroke-width="3" x1="2010.0" x2="1924.0" y1="1385.0" y2="1385.0" /><line stroke="#999" stroke-width="3" x1="1924.0" x2="2010.0" y1="1336.0" y2="1336.0" /><line stroke="#333" stroke-width="10" x1="2010.0" x2="2313.0" y1="1336.0" y2="1336.0" /><line stroke="#333" stroke-width="10" x1="556.0" x2="1924.0" y1="1336.0" y2="1336.0" /><line stroke="#999" stroke-width="3" x1="1371.0" x2="1371.0" y1="1232.0" y2="1181.0" /><line stroke="#999" stroke-width="3" x1="1371.0" x2="1437.0" y1="1181.0" y2="1181.0" /><line stroke="#999" stroke-width="3" x1="1437.0" x2="1437.0" y1="1181.0" y2="1232.0" /><line stroke="#999" stroke-width="3" x1="1437.0" x2="1371.0" y1="1232.0" y2="1232.0" /><line stroke="#333" stroke-width="10" x1="2317.0" x2="2317.0" y1="571.0" y2="114.0" /><line stroke="#333" stroke-width="10" x1="6.0" x2="423.0" y1="1336.0" y2="1337.0" /><line stroke="#999" stroke-width="3" x1="42.0" x2="42.0" y1="1300.0" y2="151.0" /><line stroke="#999" stroke-width="3" x1="234.0" x2="42.0" y1="1300.0" y2="1300.0" /><line stroke="#999" stroke-width="3" x1="114.0" x2="234.0" y1="1252.0" y2="1252.0" /><line stroke="#999" stroke-width="3" x1="234.0" x2="234.0" y1="1252.0" y2="1300.0" /><line stroke="#999" stroke-width="3" x1="42.0" x2="114.0" y1="1300.0" y2="1252.0" /><line stroke="#999" stroke-width="3" x1="114.0" x2="114.0" y1="214.0" y2="1252.0" /><line stroke="#999" stroke-width="3" x1="114.0" x2="42.0" y1="214.0" y2="151.0" /><line stroke="#999" stroke-width="3" x1="42.0" x2="384.0" y1="151.0" y2="151.0" /><line stroke="#999" stroke-width="3" x1="384.0" x2="114.0" y1="214.0" y2="214.0" /><line stroke="#999" stroke-width="3" x1="384.0" x2="384.0" y1="151.0" y2="214.0" /><line stroke="#999" stroke-width="3" x1="516.0" x2="384.0" y1="214.0" y2="214.0" /><line stroke="#999" stroke-width="3" x1="384.0" x2="516.0" y1="151.0" y2="151.0" /><line stroke="#999" stroke-width="3" x1="516.0" x2="663.0" y1="151.0" y2="151.0" /><line stroke="#999" stroke-width="3" x1="663.0" x2="804.0" y1="151.0" y2="151.0" /><line stroke="#999" stroke-width="3" x1="804.0" x2="663.0" y1="214.0" y2="214.0" /><line stroke="#999" stroke-width="3" x1="663.0" x2="516.0" y1="214.0" y2="214.0" /><line stroke="#999" stroke-width="3" x1="516.0" x2="516.0" y1="214.0" y2="151.0" /><line stroke="#999" stroke-width="3" x1="663.0" x2="663.0" y1="151.0" y2="214.0" /><line stroke="#999" stroke-width="3" x1="804.0" x2="804.0" y1="214.0" y2="151.0" /><line stroke="#999" stroke-width="3" x1="2186.0" x2="804.0" y1="214.0" y2="214.0" /><line stroke="#999" stroke-width="3" x1="804.0" x2="2257.0" y1="151.0" y2="151.0" /><line stroke="#999" stroke-width="3" x1="2257.0" x2="2257.0" y1="151.0" y2="371.0" /><line stroke="#999" stroke-width="3" x1="2257.0" x2="2186.0" y1="371.0" y2="371.0" /><line stroke="#999" stroke-width="3" x1="2186.0" x2="2186.0" y1="371.0" y2="214.0" /><line stroke="#999" stroke-width="3" x1="2257.0" x2="2186.0" y1="151.0" y2="214.0" /><line stroke="#333" stroke-width="10" x1="1745.0" x2="1667.0" y1="911.0" y2="911.0" /><line stroke="#333" stroke-width="10" x1="1667.0" x2="1667.0" y1="911.0" y2="845.0" /><line stroke="#333" stroke-width="10" x1="1667.0" x2="1745.0" y1="845.0" y2="845.0" /><line stroke="#333" stroke-width="10" x1="1745.0" x2="1745.0" y1="845.0" y2="911.0" /><line stroke="#333" stroke-width="10" x1="3624.0" x2="3624.0" y1="275.0" y2="341.0" /><line stroke="#333" stroke-width="10" x1="3624.0" x2="3563.0" y1="341.0" y2="341.0" /><line stroke="#333" stroke-width="10" x1="3563.0" x2="3563.0" y1="341.0" y2="275.0" /><line stroke="#0d0" stroke-width="20" x1="3563.0" x2="3624.0" y1="275.0" y2="275.0" /><line stroke="#333" stroke-width="10" x1="3416.0" x2="3494.0" y1="603.0" y2="705.0" /><line stroke="#333" stroke-width="10" x1="3293.0" x2="3376.0" y1="419.0" y2="550.0" /><line stroke="#999" stroke-width="3" x1="3416.0" x2="3376.0" y1="603.0" y2="550.0" /><line stroke="#333" stroke-width="10" x1="2899.0" x2="2767.0" y1="874.0" y2="996.0" /><line stroke="#333" stroke-width="10" x1="2835.0" x2="2951.0" y1="996.0" y2="922.0" /><line stroke="#333" stroke-width="10" x1="2958.0" x2="2899.0" y1="829.0" y2="874.0" /><line stroke="#333" stroke-width="10" x1="2951.0" x2="3009.0" y1="922.0" y2="878.0" /><line stroke="#333" stroke-width="10" x1="3009.0" x2="3086.0" y1="878.0" y2="824.0" /><line stroke="#333" stroke-width="10" x1="3086.0" x2="3155.0" y1="824.0" y2="773.0" /><line stroke="#333" stroke-width="10" x1="3155.0" x2="3272.0" y1="773.0" y2="693.0" /><line stroke="#333" stroke-width="10" x1="3225.0" x2="3105.0" y1="644.0" y2="724.0" /><line stroke="#333" stroke-width="10" x1="3105.0" x2="3033.0" y1="724.0" y2="773.0" /><line stroke="#333" stroke-width="10" x1="3033.0" x2="2958.0" y1="773.0" y2="829.0" /><line stroke="#999" stroke-width="3" x1="2899.0" x2="2951.0" y1="874.0" y2="922.0" /><line stroke="#999" stroke-width="3" x1="3009.0" x2="2958.0" y1="878.0" y2="829.0" /><line stroke="#999" stroke-width="3" x1="3033.0" x2="3086.0" y1="773.0" y2="824.0" /><line stroke="#999" stroke-width="3" x1="3155.0" x2="3105.0" y1="773.0" y2="724.0" /><line stroke="#999" stroke-width="3" x1="3225.0" x2="3272.0" y1="644.0" y2="693.0" /><line stroke="#333" stroke-width="10" x1="3272.0" x2="3395.0" y1="693.0" y2="613.0" /><line stroke="#333" stroke-width="10" x1="3395.0" x2="3416.0" y1="613.0" y2="603.0" /><line stroke="#333" stroke-width="10" x1="3347.0" x2="3225.0" y1="557.0" y2="644.0" /><line stroke="#333" stroke-width="10" x1="3376.0" x2="3347.0" y1="550.0" y2="557.0" /><line stroke="#999" stroke-width="3" x1="3347.0" x2="3395.0" y1="557.0" y2="613.0" /><ellipse cx="147.0" cy="247.0" fill="#009" rx="12" ry="24" stroke="#009" stroke-width="5" /><rect fill="#090" height="24" stroke="#090" stroke-width="5" transform="rotate(0,2293.0,1070.0)" width="24" x="2281.0" y="1058.0" /><rect fill="#090" height="24" stroke="#090" stroke-width="5" transform="rotate(0,2295.0,974.0)" width="24" x="2283.0" y="962.0" /><rect fill="#090" height="24" stroke="#090" stroke-width="5" transform="rotate(0,480.0,892.0)" width="24" x="468.0" y="880.0" /><rect fill="#090" height="24" stroke="#090" stroke-width="5" transform="rotate(0,2225.0,1426.0)" width="24" x="2213.0" y="1414.0" /><rect fill="#090" height="24" stroke="#090" stroke-width="5" transform="rotate(0,3601.0,78.0)" width="24" x="3589.0" y="66.0" /><rect fill="#090" height="24" stroke="#090" stroke-width="5" transform="rotate(0,575.0,387.0)" width="24" x="563.0" y="375.0" /><circle cx="592.0" cy="181.0" fill="#900" r="16" stroke="#900" stroke-width="5" /><circle cx="2230.0" cy="1672.0" fill="#900" r="16" stroke="#900" stroke-width="5" /><circle cx="3452.0" cy="537.0" fill="#900" r="16" stroke="#900" stroke-width="5" /><circle cx="527.0" cy="866.0" fill="#900" r="16" stroke="#900" stroke-width="5" /><circle cx="1405.0" cy="1207.0" fill="#900" r="16" stroke="#900" stroke-width="5" /><circle cx="2703.0" cy="1149.0" fill="#009" r="16" stroke="#009" stroke-width="5" /><ellipse cx="483.0" cy="182.0" fill="#900" rx="12" ry="24" stroke="#900" stroke-width="5" /><ellipse cx="546.0" cy="182.0" fill="#900" rx="12" ry="24" stroke="#900" stroke-width="5" /><ellipse cx="638.0" cy="182.0" fill="#900" rx="12" ry="24" stroke="#900" stroke-width="5" /><ellipse cx="694.0" cy="181.0" fill="#900" rx="12" ry="24" stroke="#900" stroke-width="5" /><ellipse cx="1115.0" cy="132.0" fill="#900" rx="12" ry="24" stroke="#900" stroke-width="5" /><ellipse cx="983.0" cy="132.0" fill="#900" rx="12" ry="24" stroke="#900" stroke-width="5" /><ellipse cx="1047.0" cy="132.0" fill="#900" rx="12" ry="24" stroke="#900" stroke-width="5" /><ellipse cx="23.0" cy="724.0" fill="#900" rx="12" ry="24" stroke="#900" stroke-width="5" /><ellipse cx="2035.0" cy="1304.0" fill="#900" rx="12" ry="24" stroke="#900" stroke-width="5" /><ellipse cx="2227.0" cy="1548.0" fill="#900" rx="12" ry="24" stroke="#900" stroke-width="5" /><ellipse cx="2254.0" cy="1101.0" fill="#900" rx="12" ry="24" stroke="#900" stroke-width="5" /><ellipse cx="2256.0" cy="964.0" fill="#900" rx="12" ry="24" stroke="#900" stroke-width="5" /><circle cx="1671.0" cy="1671.0" fill="#009" r="16" stroke="#009" stroke-width="5" /><ellipse cx="1707.0" cy="620.0" fill="#900" rx="12" ry="24" stroke="#900" stroke-width="5" /><ellipse cx="1459.0" cy="1240.0" fill="#900" rx="12" ry="24" stroke="#900" stroke-width="5" /><rect fill="#090" height="24" stroke="#090" stroke-width="5" transform="rotate(0,511.0,403.0)" width="24" x="499.0" y="391.0" /><rect fill="#090" height="24" stroke="#090" stroke-width="5" transform="rotate(0,511.0,563.0)" width="24" x="499.0" y="551.0" /><ellipse cx="2287.0" cy="547.0" fill="#090" rx="12" ry="24" stroke="#090" stroke-width="5" /><ellipse cx="2283.0" cy="739.0" fill="#090" rx="12" ry="24" stroke="#090" stroke-width="5" /><circle cx="2287.0" cy="155.0" fill="#090" r="16" stroke="#090" stroke-width="5" /><circle cx="787.0" cy="1535.0" fill="#090" r="16" stroke="#090" stroke-width="5" /><ellipse cx="591.0" cy="931.0" fill="#900" rx="12" ry="24" stroke="#900" stroke-width="5" /><ellipse cx="547.0" cy="1203.0" fill="#900" rx="12" ry="24" stroke="#900" stroke-width="5" /><ellipse cx="23.0" cy="791.0" fill="#900" rx="12" ry="24" stroke="#900" stroke-width="5" /><ellipse cx="23.0" cy="871.0" fill="#900" rx="12" ry="24" stroke="#900" stroke-width="5" /><ellipse cx="131.0" cy="791.0" fill="#900" rx="12" ry="24" stroke="#900" stroke-width="5" /><ellipse cx="131.0" cy="867.0" fill="#900" rx="12" ry="24" stroke="#900" stroke-width="5" /><ellipse cx="2971.0" cy="347.0" fill="#900" rx="12" ry="24" stroke="#900" stroke-width="5" /><ellipse cx="3619.0" cy="436.0" fill="#900" rx="12" ry="24" stroke="#900" stroke-width="5" /><ellipse cx="1563.0" cy="1607.0" fill="#900" rx="12" ry="24" stroke="#900" stroke-width="5" /><ellipse cx="1563.0" cy="1571.0" fill="#900" rx="12" ry="24" stroke="#900" stroke-width="5" /><ellipse cx="1563.0" cy="1535.0" fill="#900" rx="12" ry="24" stroke="#900" stroke-width="5" /><circle cx="3879.0" cy="351.0" fill="#009" r="16" stroke="#009" stroke-width="5" /><circle cx="3579.0" cy="743.0" fill="#009" r="16" stroke="#009" stroke-width="5" /><circle cx="2949.0" cy="1022.0" fill="#009" r="16" stroke="#009" stroke-width="5" /><circle cx="1255.0" cy="1475.0" fill="#009" r="16" stroke="#009" stroke-width="5" /><circle cx="951.0" cy="1551.0" fill="#009" r="16" stroke="#009" stroke-width="5" /><circle cx="35.0" cy="1315.0" fill="#009" r="16" stroke="#009" stroke-width="5" /><circle cx="87.0" cy="1139.0" fill="#009" r="16" stroke="#009" stroke-width="5" /><circle cx="63.0" cy="135.0" fill="#009" r="16" stroke="#009" stroke-width="5" /><circle cx="1351.0" cy="311.0" fill="#009" r="16" stroke="#009" stroke-width="5" /><circle cx="2027.0" cy="683.0" fill="#090" r="16" stroke="#090" stroke-width="5" /><circle cx="2287.0" cy="903.0" fill="#009" r="16" stroke="#009" stroke-width="5" /><circle cx="2287.0" cy="855.0" fill="#009" r="16" stroke="#009" stroke-width="5" /><circle cx="2287.0" cy="815.0" fill="#009" r="16" stroke="#009" stroke-width="5" /><circle cx="379.0" cy="1035.0" fill="#009" r="16" stroke="#009" stroke-width="5" /><circle cx="327.0" cy="1035.0" fill="#009" r="16" stroke="#009" stroke-width="5" /><circle cx="31.0" cy="183.0" fill="#009" r="16" stroke="#009" stroke-width="5" /><circle cx="2279.0" cy="1304.0" fill="#009" r="16" stroke="#009" stroke-width="5" /><circle cx="2703.0" cy="1095.0" fill="#009" r="16" stroke="#009" stroke-width="5" /><circle cx="1567.0" cy="1651.0" fill="#009" r="16" stroke="#009" stroke-width="5" /><circle cx="591.0" cy="1303.0" fill="#009" r="16" stroke="#009" stroke-width="5" /><rect fill="#090" height="24" stroke="#090" stroke-width="5" transform="rotate(0,1455.0,931.0)" width="24" x="1443.0" y="919.0" /><circle cx="1323.0" cy="419.0" fill="#090" r="16" stroke="#090" stroke-width="5" /><circle cx="1527.0" cy="139.0" fill="#090" r="16" stroke="#090" stroke-width="5" /><circle cx="3423.0" cy="231.0" fill="#090" r="16" stroke="#090" stroke-width="5" /><ellipse cx="3375.0" cy="267.0" fill="#900" rx="12" ry="24" stroke="#900" stroke-width="5" /><ellipse cx="3459.0" cy="179.0" fill="#900" rx="12" ry="24" stroke="#900" stroke-width="5" /><rect fill="#090" height="24" stroke="#090" stroke-width="5" transform="rotate(0,3615.0,487.0)" width="24" x="3603.0" y="475.0" /><rect fill="#090" height="24" stroke="#090" stroke-width="5" transform="rotate(0,3219.0,1023.0)" width="24" x="3207.0" y="1011.0" /><rect fill="#090" height="24" stroke="#090" stroke-width="5" transform="rotate(0,1615.0,1683.0)" width="24" x="1603.0" y="1671.0" /><rect fill="#090" height="24" stroke="#090" stroke-width="5" transform="rotate(0,1627.0,1419.0)" width="24" x="1615.0" y="1407.0" /><circle cx="399.0" cy="1304.0" fill="#090" r="16" stroke="#090" stroke-width="5" /><circle cx="143.0" cy="140.0" fill="#090" r="16" stroke="#090" stroke-width="5" /><rect fill="#900" height="48" stroke="#900" stroke-width="5" transform="rotate(0,627.0,1136.0)" width="32" x="611.0" y="1112.0" /><rect fill="#900" height="48" stroke="#900" stroke-width="5" transform="rotate(0,1781.0,1426.0)" width="32" x="1765.0" y="1402.0" /><rect fill="#900" height="48" stroke="#900" stroke-width="5" transform="rotate(0,1621.0,1586.0)" width="32" x="1605.0" y="1562.0" /><rect fill="#900" height="48" stroke="#900" stroke-width="5" transform="rotate(0,1625.0,1478.0)" width="32" x="1609.0" y="1454.0" /><rect fill="#900" height="48" stroke="#900" stroke-width="5" transform="rotate(0,2811.0,1024.0)" width="32" x="2795.0" y="1000.0" /><rect fill="#900" height="48" stroke="#900" stroke-width="5" transform="rotate(0,1493.0,184.0)" width="32" x="1477.0" y="160.0" /><rect fill="#900" height="48" stroke="#900" stroke-width="5" transform="rotate(0,1973.0,184.0)" width="32" x="1957.0" y="160.0" /><rect fill="#900" height="48" stroke="#900" stroke-width="5" transform="rotate(0,1607.0,540.0)" width="32" x="1591.0" y="516.0" /><rect fill="#900" height="48" stroke="#900" stroke-width="5" transform="rotate(0,1235.0,392.0)" width="32" x="1219.0" y="368.0" /><rect fill="#900" height="48" stroke="#900" stroke-width="5" transform="rotate(0,1075.0,1484.0)" width="32" x="1059.0" y="1460.0" /><rect fill="#900" height="48" stroke="#900" stroke-width="5" transform="rotate(0,411.0,1140.0)" width="32" x="395.0" y="1116.0" /><rect fill="#900" height="48" stroke="#900" stroke-width="5" transform="rotate(0,75.0,832.0)" width="32" x="59.0" y="808.0" /><rect fill="#900" height="48" stroke="#900" stroke-width="5" transform="rotate(0,431.0,184.0)" width="32" x="415.0" y="160.0" /><rect fill="#900" height="48" stroke="#900" stroke-width="5" transform="rotate(0,759.0,184.0)" width="32" x="743.0" y="160.0" /><rect fill="#900" height="48" stroke="#900" stroke-width="5" transform="rotate(0,2275.0,1240.0)" width="32" x="2259.0" y="1216.0" /><rect fill="#900" height="48" stroke="#900" stroke-width="5" transform="rotate(0,2219.0,312.0)" width="32" x="2203.0" y="288.0" /><rect fill="#900" height="48" stroke="#900" stroke-width="5" transform="rotate(0,2731.0,440.0)" width="32" x="2715.0" y="416.0" /><rect fill="#900" height="48" stroke="#900" stroke-width="5" transform="rotate(0,2263.0,616.0)" width="32" x="2247.0" y="592.0" /><rect fill="#900" height="48" stroke="#900" stroke-width="5" transform="rotate(0,2263.0,676.0)" width="32" x="2247.0" y="652.0" /><rect fill="#900" height="48" stroke="#900" stroke-width="5" transform="rotate(0,2907.0,1024.0)" width="32" x="2891.0" y="1000.0" /><rect fill="#900" height="48" stroke="#900" stroke-width="5" transform="rotate(0,3659.0,460.0)" width="32" x="3643.0" y="436.0" /><rect fill="#900" height="48" stroke="#900" stroke-width="5" transform="rotate(0,3575.0,460.0)" width="32" x="3559.0" y="436.0" /><rect fill="#900" height="48" stroke="#900" stroke-width="5" transform="rotate(0,3523.0,772.0)" width="32" x="3507.0" y="748.0" /><rect fill="#900" height="48" stroke="#900" stroke-width="5" transform="rotate(0,663.0,1444.0)" width="32" x="647.0" y="1420.0" /><rect fill="#900" height="48" stroke="#900" stroke-width="5" transform="rotate(0,1387.0,1140.0)" width="32" x="1371.0" y="1116.0" /><rect fill="#900" height="48" stroke="#900" stroke-width="5" transform="rotate(0,1779.0,880.0)" width="32" x="1763.0" y="856.0" /><rect fill="#900" height="48" stroke="#900" stroke-width="5" transform="rotate(0,1043.0,1168.0)" width="32" x="1027.0" y="1144.0" /><rect fill="#900" height="48" stroke="#900" stroke-width="5" transform="rotate(0,1255.0,652.0)" width="32" x="1239.0" y="628.0" /><circle cx="825.0" cy="1018.0" fill="#009" r="16" stroke="#009" stroke-width="5" /><circle cx="885.0" cy="142.0" fill="#009" r="16" stroke="#009" stroke-width="5" /><circle cx="2475.0" cy="580.0" fill="#009" r="16" stroke="#009" stroke-width="5" /><circle cx="3363.0" cy="988.0" fill="#009" r="16" stroke="#009" stroke-width="5" /><circle cx="2109.0" cy="1660.0" fill="#009" r="16" stroke="#009" stroke-width="5" /><circle cx="267.0" cy="922.0" fill="#009" r="16" stroke="#009" stroke-width="5" /><rect fill="#900" height="48" stroke="#900" stroke-width="5" transform="rotate(0,1696.0,1291.0)" width="32" x="1680.0" y="1267.0" /><rect fill="#900" height="48" stroke="#900" stroke-width="5" transform="rotate(0,961.0,586.0)" width="32" x="945.0" y="562.0" /><rect fill="#900" height="48" stroke="#900" stroke-width="5" transform="rotate(0,3109.0,380.0)" width="32" x="3093.0" y="356.0" /><rect fill="#900" height="48" stroke="#900" stroke-width="5" transform="rotate(0,2701.0,1024.0)" width="32" x="2685.0" y="1000.0" /><rect fill="#900" height="48" stroke="#900" stroke-width="5" transform="rotate(0,653.0,816.0)" width="32" x="637.0" y="792.0" /><circle cx="1041.0" cy="490.0" fill="#009" r="16" stroke="#009" stroke-width="5" /><circle cx="2757.0" cy="1022.0" fill="#009" r="16" stroke="#009" stroke-width="5" /><circle cx="2857.0" cy="1022.0" fill="#009" r="16" stroke="#009" stroke-width="5" /><circle cx="1751.0" cy="494.0" fill="#090" r="16" stroke="#090" stroke-width="5" /><circle cx="1979.0" cy="1670.0" fill="#090" r="16" stroke="#090" stroke-width="5" /><circle cx="3374.0" cy="483.0" fill="#090" r="16" stroke="#090" stroke-width="5" /><circle cx="467.0" cy="718.0" fill="#090" r="16" stroke="#090" stroke-width="5" /><rect fill="#900" height="48" stroke="#900" stroke-width="5" transform="rotate(0,1781.0,1526.0)" width="32" x="1765.0" y="1502.0" /><rect fill="#090" height="24" stroke="#090" stroke-width="5" transform="rotate(0,1894.0,1414.0)" width="24" x="1882.0" y="1402.0" /><rect fill="#090" height="24" stroke="#090" stroke-width="5" transform="rotate(0,2040.0,1414.0)" width="24" x="2028.0" y="1402.0" /><rect fill="#090" height="24" stroke="#090" stroke-width="5" transform="rotate(0,750.0,673.0)" width="24" x="738.0" y="661.0" /><rect fill="#090" height="24" stroke="#090" stroke-width="5" transform="rotate(0,279.0,673.0)" width="24" x="267.0" y="661.0" /><rect fill="#090" height="24" stroke="#090" stroke-width="5" transform="rotate(0,277.0,1073.0)" width="24" x="265.0" y="1061.0" /><rect fill="#090" height="24" stroke="#090" stroke-width="5" transform="rotate(0,749.0,1073.0)" width="24" x="737.0" y="1061.0" /><circle cx="595.0" cy="139.0" fill="#009" r="16" stroke="#009" stroke-width="5" /><circle cx="2251.0" cy="1029.0" fill="#009" r="16" stroke="#009" stroke-width="5" /><ellipse cx="3387.0" cy="521.0" fill="#900" rx="12" ry="24" stroke="#900" stroke-width="5" /><ellipse cx="3450.0" cy="467.0" fill="#900" rx="12" ry="24" stroke="#900" stroke-width="5" /><rect fill="#090" height="24" stroke="#090" stroke-width="5" transform="rotate(0,3014.0,828.0)" width="24" x="3002.0" y="816.0" /><circle cx="3101.0" cy="765.0" fill="#009" r="16" stroke="#009" stroke-width="5" /><circle cx="2954.0" cy="873.0" fill="#009" r="16" stroke="#009" stroke-width="5" /><circle cx="3218.0" cy="690.0" fill="#009" r="16" stroke="#009" stroke-width="5" /><circle cx="3281.0" cy="645.0" fill="#009" r="16" stroke="#009" stroke-width="5" /><circle cx="3341.0" cy="606.0" fill="#009" r="16" stroke="#009" stroke-width="5" /><circle cx="3167.0" cy="726.0" fill="#009" r="16" stroke="#009" stroke-width="5" /><circle cx="1868.0" cy="561.0" fill="#009" r="16" stroke="#009" stroke-width="5" /><circle cx="1223.0" cy="996.0" fill="#009" r="16" stroke="#009" stroke-width="5" /><circle cx="2096.0" cy="1416.0" fill="#009" r="16" stroke="#009" stroke-width="5" /></svg>