<?xml version="1.0" encoding="utf-8" ?>
<svg baseProfile="tiny" height="720" version="1.2" viewBox="0 0 7786 5482" width="1024" xmlns="http://www.w3.org/2000/svg" xmlns:ev="http://www.w3.org/2001/xml-events" xmlns:xlink="http://www.w3.org/1999/xlink"><defs /><line stroke="#666" stroke-width="20" x1="3973.0" x2="3141.0" y1="1061.0" y2="1061.0" /><line stroke="#666" stroke-width="20" x1="3141.0" x2="3973.0" y1="965.0" y2="965.0" /><line stroke="#333" stroke-width="10" x1="3973.0" x2="3973.0" y1="965.0" y2="645.0" /><line stroke="#666" stroke-width="20" x1="3973.0" x2="3141.0" y1="645.0" y2="645.0" /><line stroke="#333" stroke-width="10" x1="3141.0" x2="3141.0" y1="645.0" y2="965.0" /><line stroke="#666" stroke-width="20" x1="3141.0" x2="3973.0" y1="581.0" y2="581.0" /><line stroke="#333" stroke-width="10" x1="3973.0" x2="3973.0" y1="581.0" y2="517.0" /><line stroke="#333" stroke-width="10" x1="3973.0" x2="3621.0" y1="165.0" y2="165.0" /><line stroke="#333" stroke-width="10" x1="3141.0" x2="3141.0" y1="165.0" y2="581.0" /><line stroke="#666" stroke-width="20" x1="3461.0" x2="3621.0" y1="101.0" y2="101.0" /><line stroke="#333" stroke-width="10" x1="3621.0" x2="3621.0" y1="101.0" y2="5.0" /><line stroke="#333" stroke-width="10" x1="3621.0" x2="3461.0" y1="5.0" y2="5.0" /><line stroke="#333" stroke-width="10" x1="3461.0" x2="3461.0" y1="5.0" y2="101.0" /><line stroke="#333" stroke-width="10" x1="4005.0" x2="4133.0" y1="517.0" y2="517.0" /><line stroke="#333" stroke-width="10" x1="4133.0" x2="4133.0" y1="517.0" y2="325.0" /><line stroke="#333" stroke-width="10" x1="4133.0" x2="4005.0" y1="325.0" y2="325.0" /><line stroke="#333" stroke-width="10" x1="3621.0" x2="3621.0" y1="165.0" y2="101.0" /><line stroke="#333" stroke-width="10" x1="3461.0" x2="3461.0" y1="101.0" y2="165.0" /><line stroke="#666" stroke-width="20" x1="3621.0" x2="3461.0" y1="165.0" y2="165.0" /><line stroke="#333" stroke-width="10" x1="3461.0" x2="3141.0" y1="165.0" y2="165.0" /><line stroke="#333" stroke-width="10" x1="3973.0" x2="4005.0" y1="517.0" y2="517.0" /><line stroke="#333" stroke-width="10" x1="4005.0" x2="3973.0" y1="325.0" y2="325.0" /><line stroke="#666" stroke-width="20" x1="4005.0" x2="4005.0" y1="325.0" y2="517.0" /><line stroke="#666" stroke-width="20" x1="3973.0" x2="3973.0" y1="517.0" y2="325.0" /><line stroke="#333" stroke-width="10" x1="3973.0" x2="3973.0" y1="325.0" y2="165.0" /><line stroke="#333" stroke-width="10" x1="3973.0" x2="3973.0" y1="645.0" y2="581.0" /><line stroke="#333" stroke-width="10" x1="3141.0" x2="3141.0" y1="581.0" y2="645.0" /><line stroke="#333" stroke-width="10" x1="3973.0" x2="3973.0" y1="1061.0" y2="965.0" /><line stroke="#333" stroke-width="10" x1="3141.0" x2="3141.0" y1="965.0" y2="1061.0" /><line stroke="#333" stroke-width="10" x1="3141.0" x2="3045.0" y1="1061.0" y2="1093.0" /><line stroke="#333" stroke-width="10" x1="4005.0" x2="3973.0" y1="1093.0" y2="1061.0" /><line stroke="#999" stroke-width="3" x1="3493.0" x2="3237.0" y1="1925.0" y2="1861.0" /><line stroke="#999" stroke-width="3" x1="3717.0" x2="3589.0" y1="1925.0" y2="2245.0" /><line stroke="#999" stroke-width="3" x1="3685.0" x2="3973.0" y1="1765.0" y2="1861.0" /><line stroke="#999" stroke-width="3" x1="3493.0" x2="3589.0" y1="1765.0" y2="1509.0" /><line stroke="#999" stroke-width="3" x1="3589.0" x2="3493.0" y1="2245.0" y2="1925.0" /><line stroke="#999" stroke-width="3" x1="3589.0" x2="3685.0" y1="1509.0" y2="1765.0" /><line stroke="#999" stroke-width="3" x1="3973.0" x2="3717.0" y1="1861.0" y2="1925.0" /><line stroke="#999" stroke-width="3" x1="3237.0" x2="3493.0" y1="1861.0" y2="1765.0" /><line stroke="#00d" stroke-width="20" x1="5605.0" x2="5669.0" y1="1605.0" y2="1605.0" /><line stroke="#00d" stroke-width="20" x1="5605.0" x2="5605.0" y1="1669.0" y2="1605.0" /><line stroke="#00d" stroke-width="20" x1="5669.0" x2="5605.0" y1="1669.0" y2="1669.0" /><line stroke="#00d" stroke-width="20" x1="5669.0" x2="5669.0" y1="1605.0" y2="1669.0" /><line stroke="#333" stroke-width="10" x1="3045.0" x2="3045.0" y1="1093.0" y2="1061.0" /><line stroke="#999" stroke-width="3" x1="709.0" x2="3045.0" y1="1765.0" y2="1061.0" /><line stroke="#999" stroke-width="3" x1="3045.0" x2="773.0" y1="1093.0" y2="1765.0" /><line stroke="#999" stroke-width="3" x1="4645.0" x2="3685.0" y1="2437.0" y2="4293.0" /><line stroke="#999" stroke-width="3" x1="773.0" x2="3045.0" y1="1765.0" y2="2373.0" /><line stroke="#999" stroke-width="3" x1="6085.0" x2="4005.0" y1="1573.0" y2="1093.0" /><line stroke="#999" stroke-width="3" x1="3045.0" x2="3685.0" y1="2373.0" y2="4165.0" /><line stroke="#999" stroke-width="3" x1="3685.0" x2="4613.0" y1="4165.0" y2="2405.0" /><line stroke="#999" stroke-width="3" x1="4613.0" x2="6085.0" y1="2405.0" y2="1573.0" /><line stroke="#999" stroke-width="3" x1="4037.0" x2="6181.0" y1="1061.0" y2="1573.0" /><line stroke="#333" stroke-width="10" x1="4037.0" x2="4005.0" y1="1061.0" y2="1093.0" /><line stroke="#999" stroke-width="3" x1="3045.0" x2="3045.0" y1="1061.0" y2="965.0" /><line stroke="#999" stroke-width="3" x1="3045.0" x2="37.0" y1="965.0" y2="965.0" /><line stroke="#333" stroke-width="10" x1="3045.0" x2="3077.0" y1="1061.0" y2="1061.0" /><line stroke="#333" stroke-width="10" x1="3077.0" x2="3077.0" y1="1061.0" y2="933.0" /><line stroke="#333" stroke-width="10" x1="4005.0" x2="4037.0" y1="1061.0" y2="1061.0" /><line stroke="#333" stroke-width="10" x1="3077.0" x2="5.0" y1="933.0" y2="933.0" /><line stroke="#333" stroke-width="10" x1="5.0" x2="5.0" y1="933.0" y2="5477.0" /><line stroke="#333" stroke-width="10" x1="5.0" x2="7781.0" y1="5477.0" y2="5477.0" /><line stroke="#999" stroke-width="3" x1="7749.0" x2="7749.0" y1="5445.0" y2="965.0" /><line stroke="#333" stroke-width="10" x1="7781.0" x2="7781.0" y1="5477.0" y2="933.0" /><line stroke="#999" stroke-width="3" x1="7749.0" x2="4037.0" y1="965.0" y2="965.0" /><line stroke="#333" stroke-width="10" x1="7781.0" x2="4005.0" y1="933.0" y2="933.0" /><line stroke="#333" stroke-width="10" x1="4005.0" x2="4005.0" y1="933.0" y2="1061.0" /><line stroke="#999" stroke-width="3" x1="4037.0" x2="4037.0" y1="965.0" y2="1061.0" /><line stroke="#999" stroke-width="3" x1="37.0" x2="7749.0" y1="5445.0" y2="5445.0" /><line stroke="#999" stroke-width="3" x1="6181.0" x2="4645.0" y1="1573.0" y2="2437.0" /><line stroke="#999" stroke-width="3" x1="37.0" x2="37.0" y1="965.0" y2="5445.0" /><line stroke="#999" stroke-width="3" x1="3013.0" x2="709.0" y1="2405.0" y2="1765.0" /><line stroke="#999" stroke-width="3" x1="3685.0" x2="3013.0" y1="4293.0" y2="2405.0" /><line stroke="#333" stroke-width="10" x1="6021.0" x2="6085.0" y1="1797.0" y2="1797.0" /><line stroke="#333" stroke-width="10" x1="6085.0" x2="6085.0" y1="1797.0" y2="1989.0" /><line stroke="#333" stroke-width="10" x1="6085.0" x2="6021.0" y1="1989.0" y2="1989.0" /><line stroke="#333" stroke-width="10" x1="6021.0" x2="6021.0" y1="1989.0" y2="1797.0" /><line stroke="#999" stroke-width="3" x1="5989.0" x2="6117.0" y1="2021.0" y2="2021.0" /><line stroke="#999" stroke-width="3" x1="6117.0" x2="6117.0" y1="2021.0" y2="1765.0" /><line stroke="#999" stroke-width="3" x1="6117.0" x2="5989.0" y1="1765.0" y2="1765.0" /><line stroke="#999" stroke-width="3" x1="5989.0" x2="5989.0" y1="1765.0" y2="2021.0" /><line stroke="#999" stroke-width="3" x1="2405.0" x2="2405.0" y1="2341.0" y2="2597.0" /><line stroke="#999" stroke-width="3" x1="2533.0" x2="2405.0" y1="2341.0" y2="2341.0" /><line stroke="#999" stroke-width="3" x1="2533.0" x2="2533.0" y1="2597.0" y2="2341.0" /><line stroke="#999" stroke-width="3" x1="2405.0" x2="2533.0" y1="2597.0" y2="2597.0" /><line stroke="#333" stroke-width="10" x1="2437.0" x2="2437.0" y1="2565.0" y2="2373.0" /><line stroke="#333" stroke-width="10" x1="2501.0" x2="2437.0" y1="2565.0" y2="2565.0" /><line stroke="#333" stroke-width="10" x1="2501.0" x2="2501.0" y1="2373.0" y2="2565.0" /><line stroke="#333" stroke-width="10" x1="2437.0" x2="2501.0" y1="2373.0" y2="2373.0" /><ellipse cx="3493.0" cy="37.0" fill="#009" rx="12" ry="24" stroke="#009" stroke-width="5" /><circle cx="3589.0" cy="69.0" fill="#009" r="16" stroke="#009" stroke-width="5" /><circle cx="3589.0" cy="37.0" fill="#009" r="16" stroke="#009" stroke-width="5" /><circle cx="3685.0" cy="197.0" fill="#009" r="16" stroke="#009" stroke-width="5" /><circle cx="3717.0" cy="197.0" fill="#009" r="16" stroke="#009" stroke-width="5" /><circle cx="3749.0" cy="197.0" fill="#009" r="16" stroke="#009" stroke-width="5" /><circle cx="3781.0" cy="197.0" fill="#009" r="16" stroke="#009" stroke-width="5" /><circle cx="3813.0" cy="197.0" fill="#009" r="16" stroke="#009" stroke-width="5" /><circle cx="3845.0" cy="197.0" fill="#009" r="16" stroke="#009" stroke-width="5" /><circle cx="3877.0" cy="197.0" fill="#009" r="16" stroke="#009" stroke-width="5" /><rect fill="#900" height="48" stroke="#900" stroke-width="5" transform="rotate(270,3909.0,453.0)" width="32" x="3893.0" y="429.0" /><rect fill="#900" height="48" stroke="#900" stroke-width="5" transform="rotate(270,3685.0,453.0)" width="32" x="3669.0" y="429.0" /><rect fill="#900" height="48" stroke="#900" stroke-width="5" transform="rotate(270,3525.0,453.0)" width="32" x="3509.0" y="429.0" /><rect fill="#900" height="48" stroke="#900" stroke-width="5" transform="rotate(270,3301.0,453.0)" width="32" x="3285.0" y="429.0" /><rect fill="#900" height="48" stroke="#900" stroke-width="5" transform="rotate(270,3173.0,453.0)" width="32" x="3157.0" y="429.0" /><circle cx="3525.0" cy="69.0" fill="#900" r="16" stroke="#900" stroke-width="5" /><circle cx="3557.0" cy="37.0" fill="#090" r="16" stroke="#090" stroke-width="5" /><rect fill="#090" height="24" stroke="#090" stroke-width="5" transform="rotate(270,3365.0,325.0)" width="24" x="3353.0" y="313.0" /><rect fill="#090" height="24" stroke="#090" stroke-width="5" transform="rotate(270,3749.0,325.0)" width="24" x="3737.0" y="313.0" /><rect fill="#090" height="24" stroke="#090" stroke-width="5" transform="rotate(270,3813.0,709.0)" width="24" x="3801.0" y="697.0" /><rect fill="#090" height="24" stroke="#090" stroke-width="5" transform="rotate(270,3301.0,709.0)" width="24" x="3289.0" y="697.0" /><rect fill="#090" height="24" stroke="#090" stroke-width="5" transform="rotate(270,3173.0,1157.0)" width="24" x="3161.0" y="1145.0" /><rect fill="#090" height="24" stroke="#090" stroke-width="5" transform="rotate(270,3973.0,1125.0)" width="24" x="3961.0" y="1113.0" /><rect fill="#090" height="24" stroke="#090" stroke-width="5" transform="rotate(270,6149.0,1573.0)" width="24" x="6137.0" y="1561.0" /><rect fill="#090" height="24" stroke="#090" stroke-width="5" transform="rotate(270,3621.0,3461.0)" width="24" x="3609.0" y="3449.0" /><rect fill="#090" height="24" stroke="#090" stroke-width="5" transform="rotate(270,933.0,1797.0)" width="24" x="921.0" y="1785.0" /><circle cx="4037.0" cy="453.0" fill="#900" r="16" stroke="#900" stroke-width="5" /><circle cx="4101.0" cy="453.0" fill="#090" r="16" stroke="#090" stroke-width="5" /><circle cx="4101.0" cy="389.0" fill="#090" r="16" stroke="#090" stroke-width="5" /><circle cx="4037.0" cy="357.0" fill="#090" r="16" stroke="#090" stroke-width="5" /><circle cx="4037.0" cy="389.0" fill="#090" r="16" stroke="#090" stroke-width="5" /><circle cx="4101.0" cy="357.0" fill="#090" r="16" stroke="#090" stroke-width="5" /><circle cx="4101.0" cy="485.0" fill="#090" r="16" stroke="#090" stroke-width="5" /><circle cx="4037.0" cy="485.0" fill="#090" r="16" stroke="#090" stroke-width="5" /><rect fill="#090" height="24" stroke="#090" stroke-width="5" transform="rotate(270,4965.0,1605.0)" width="24" x="4953.0" y="1593.0" /><rect fill="#090" height="24" stroke="#090" stroke-width="5" transform="rotate(270,4421.0,1893.0)" width="24" x="4409.0" y="1881.0" /><rect fill="#090" height="24" stroke="#090" stroke-width="5" transform="rotate(270,3941.0,1701.0)" width="24" x="3929.0" y="1689.0" /><rect fill="#090" height="24" stroke="#090" stroke-width="5" transform="rotate(270,4005.0,2405.0)" width="24" x="3993.0" y="2393.0" /><rect fill="#090" height="24" stroke="#090" stroke-width="5" transform="rotate(270,4933.0,1925.0)" width="24" x="4921.0" y="1913.0" /><rect fill="#090" height="24" stroke="#090" stroke-width="5" transform="rotate(270,3205.0,2149.0)" width="24" x="3193.0" y="2137.0" /><rect fill="#090" height="24" stroke="#090" stroke-width="5" transform="rotate(270,2981.0,1733.0)" width="24" x="2969.0" y="1721.0" /><rect fill="#090" height="24" stroke="#090" stroke-width="5" transform="rotate(270,2213.0,1829.0)" width="24" x="2201.0" y="1817.0" /><rect fill="#090" height="24" stroke="#090" stroke-width="5" transform="rotate(270,2661.0,2117.0)" width="24" x="2649.0" y="2105.0" /><rect fill="#900" height="48" stroke="#900" stroke-width="5" transform="rotate(0,3237.0,901.0)" width="32" x="3221.0" y="877.0" /><rect fill="#900" height="48" stroke="#900" stroke-width="5" transform="rotate(0,3269.0,901.0)" width="32" x="3253.0" y="877.0" /><rect fill="#900" height="48" stroke="#900" stroke-width="5" transform="rotate(0,3301.0,901.0)" width="32" x="3285.0" y="877.0" /><rect fill="#900" height="48" stroke="#900" stroke-width="5" transform="rotate(0,3333.0,901.0)" width="32" x="3317.0" y="877.0" /><rect fill="#900" height="48" stroke="#900" stroke-width="5" transform="rotate(0,3365.0,901.0)" width="32" x="3349.0" y="877.0" /><rect fill="#900" height="48" stroke="#900" stroke-width="5" transform="rotate(0,3397.0,901.0)" width="32" x="3381.0" y="877.0" /><rect fill="#900" height="48" stroke="#900" stroke-width="5" transform="rotate(0,3429.0,901.0)" width="32" x="3413.0" y="877.0" /><rect fill="#900" height="48" stroke="#900" stroke-width="5" transform="rotate(0,3461.0,901.0)" width="32" x="3445.0" y="877.0" /><rect fill="#900" height="48" stroke="#900" stroke-width="5" transform="rotate(0,3493.0,901.0)" width="32" x="3477.0" y="877.0" /><rect fill="#900" height="48" stroke="#900" stroke-width="5" transform="rotate(0,3557.0,901.0)" width="32" x="3541.0" y="877.0" /><rect fill="#900" height="48" stroke="#900" stroke-width="5" transform="rotate(0,3557.0,901.0)" width="32" x="3541.0" y="877.0" /><rect fill="#900" height="48" stroke="#900" stroke-width="5" transform="rotate(0,3589.0,901.0)" width="32" x="3573.0" y="877.0" /><rect fill="#900" height="48" stroke="#900" stroke-width="5" transform="rotate(0,3653.0,901.0)" width="32" x="3637.0" y="877.0" /><rect fill="#900" height="48" stroke="#900" stroke-width="5" transform="rotate(0,3685.0,901.0)" width="32" x="3669.0" y="877.0" /><rect fill="#900" height="48" stroke="#900" stroke-width="5" transform="rotate(0,3749.0,901.0)" width="32" x="3733.0" y="877.0" /><rect fill="#900" height="48" stroke="#900" stroke-width="5" transform="rotate(0,3813.0,901.0)" width="32" x="3797.0" y="877.0" /><rect fill="#900" height="48" stroke="#900" stroke-width="5" transform="rotate(0,3845.0,901.0)" width="32" x="3829.0" y="877.0" /><rect fill="#900" height="48" stroke="#900" stroke-width="5" transform="rotate(0,3941.0,901.0)" width="32" x="3925.0" y="877.0" /><rect fill="#900" height="48" stroke="#900" stroke-width="5" transform="rotate(0,3909.0,901.0)" width="32" x="3893.0" y="877.0" /><rect fill="#900" height="48" stroke="#900" stroke-width="5" transform="rotate(0,3941.0,837.0)" width="32" x="3925.0" y="813.0" /><rect fill="#900" height="48" stroke="#900" stroke-width="5" transform="rotate(0,3877.0,837.0)" width="32" x="3861.0" y="813.0" /><rect fill="#900" height="48" stroke="#900" stroke-width="5" transform="rotate(0,3813.0,837.0)" width="32" x="3797.0" y="813.0" /><rect fill="#900" height="48" stroke="#900" stroke-width="5" transform="rotate(0,3749.0,837.0)" width="32" x="3733.0" y="813.0" /><rect fill="#900" height="48" stroke="#900" stroke-width="5" transform="rotate(0,3717.0,837.0)" width="32" x="3701.0" y="813.0" /><rect fill="#900" height="48" stroke="#900" stroke-width="5" transform="rotate(0,3653.0,837.0)" width="32" x="3637.0" y="813.0" /><rect fill="#900" height="48" stroke="#900" stroke-width="5" transform="rotate(0,3621.0,837.0)" width="32" x="3605.0" y="813.0" /><rect fill="#900" height="48" stroke="#900" stroke-width="5" transform="rotate(0,3589.0,837.0)" width="32" x="3573.0" y="813.0" /><rect fill="#900" height="48" stroke="#900" stroke-width="5" transform="rotate(0,3557.0,837.0)" width="32" x="3541.0" y="813.0" /><rect fill="#900" height="48" stroke="#900" stroke-width="5" transform="rotate(0,3493.0,837.0)" width="32" x="3477.0" y="813.0" /><rect fill="#900" height="48" stroke="#900" stroke-width="5" transform="rotate(0,3429.0,805.0)" width="32" x="3413.0" y="781.0" /><rect fill="#900" height="48" stroke="#900" stroke-width="5" transform="rotate(0,3397.0,805.0)" width="32" x="3381.0" y="781.0" /><rect fill="#900" height="48" stroke="#900" stroke-width="5" transform="rotate(0,3365.0,805.0)" width="32" x="3349.0" y="781.0" /><rect fill="#900" height="48" stroke="#900" stroke-width="5" transform="rotate(0,3301.0,805.0)" width="32" x="3285.0" y="781.0" /><rect fill="#900" height="48" stroke="#900" stroke-width="5" transform="rotate(0,3205.0,805.0)" width="32" x="3189.0" y="781.0" /><rect fill="#900" height="48" stroke="#900" stroke-width="5" transform="rotate(0,3205.0,869.0)" width="32" x="3189.0" y="845.0" /><rect fill="#900" height="48" stroke="#900" stroke-width="5" transform="rotate(0,3269.0,837.0)" width="32" x="3253.0" y="813.0" /><rect fill="#900" height="48" stroke="#900" stroke-width="5" transform="rotate(0,3333.0,837.0)" width="32" x="3317.0" y="813.0" /><rect fill="#900" height="48" stroke="#900" stroke-width="5" transform="rotate(0,3397.0,869.0)" width="32" x="3381.0" y="845.0" /><rect fill="#900" height="48" stroke="#900" stroke-width="5" transform="rotate(0,3205.0,773.0)" width="32" x="3189.0" y="749.0" /><rect fill="#900" height="48" stroke="#900" stroke-width="5" transform="rotate(0,3237.0,773.0)" width="32" x="3221.0" y="749.0" /><rect fill="#900" height="48" stroke="#900" stroke-width="5" transform="rotate(0,3301.0,773.0)" width="32" x="3285.0" y="749.0" /><rect fill="#900" height="48" stroke="#900" stroke-width="5" transform="rotate(0,3333.0,773.0)" width="32" x="3317.0" y="749.0" /><rect fill="#900" height="48" stroke="#900" stroke-width="5" transform="rotate(0,3397.0,773.0)" width="32" x="3381.0" y="749.0" /><rect fill="#900" height="48" stroke="#900" stroke-width="5" transform="rotate(0,3429.0,773.0)" width="32" x="3413.0" y="749.0" /><rect fill="#900" height="48" stroke="#900" stroke-width="5" transform="rotate(0,3493.0,773.0)" width="32" x="3477.0" y="749.0" /><rect fill="#900" height="48" stroke="#900" stroke-width="5" transform="rotate(0,3525.0,773.0)" width="32" x="3509.0" y="749.0" /><rect fill="#900" height="48" stroke="#900" stroke-width="5" transform="rotate(0,3589.0,773.0)" width="32" x="3573.0" y="749.0" /><rect fill="#900" height="48" stroke="#900" stroke-width="5" transform="rotate(0,3621.0,773.0)" width="32" x="3605.0" y="749.0" /><rect fill="#900" height="48" stroke="#900" stroke-width="5" transform="rotate(0,3717.0,773.0)" width="32" x="3701.0" y="749.0" /><rect fill="#900" height="48" stroke="#900" stroke-width="5" transform="rotate(0,3749.0,773.0)" width="32" x="3733.0" y="749.0" /><rect fill="#900" height="48" stroke="#900" stroke-width="5" transform="rotate(0,3813.0,773.0)" width="32" x="3797.0" y="749.0" /><rect fill="#900" height="48" stroke="#900" stroke-width="5" transform="rotate(0,3845.0,773.0)" width="32" x="3829.0" y="749.0" /><rect fill="#900" height="48" stroke="#900" stroke-width="5" transform="rotate(0,3877.0,773.0)" width="32" x="3861.0" y="749.0" /><rect fill="#900" height="48" stroke="#900" stroke-width="5" transform="rotate(0,3941.0,773.0)" width="32" x="3925.0" y="749.0" /><rect fill="#900" height="48" stroke="#900" stroke-width="5" transform="rotate(270,3557.0,709.0)" width="32" x="3541.0" y="685.0" /><rect fill="#900" height="48" stroke="#900" stroke-width="5" transform="rotate(270,3461.0,2597.0)" width="32" x="3445.0" y="2573.0" /><rect fill="#900" height="48" stroke="#900" stroke-width="5" transform="rotate(270,5637.0,1733.0)" width="32" x="5621.0" y="1709.0" /><rect fill="#900" height="48" stroke="#900" stroke-width="5" transform="rotate(270,1317.0,1765.0)" width="32" x="1301.0" y="1741.0" /><circle cx="3941.0" cy="677.0" fill="#009" r="16" stroke="#009" stroke-width="5" /><circle cx="3909.0" cy="677.0" fill="#009" r="16" stroke="#009" stroke-width="5" /><circle cx="3877.0" cy="677.0" fill="#009" r="16" stroke="#009" stroke-width="5" /><circle cx="3813.0" cy="677.0" fill="#009" r="16" stroke="#009" stroke-width="5" /><circle cx="3781.0" cy="677.0" fill="#009" r="16" stroke="#009" stroke-width="5" /><circle cx="3749.0" cy="677.0" fill="#009" r="16" stroke="#009" stroke-width="5" /><circle cx="3717.0" cy="677.0" fill="#009" r="16" stroke="#009" stroke-width="5" /><circle cx="3653.0" cy="677.0" fill="#009" r="16" stroke="#009" stroke-width="5" /><circle cx="3461.0" cy="677.0" fill="#009" r="16" stroke="#009" stroke-width="5" /><circle cx="3429.0" cy="677.0" fill="#009" r="16" stroke="#009" stroke-width="5" /><circle cx="3397.0" cy="677.0" fill="#009" r="16" stroke="#009" stroke-width="5" /><circle cx="3173.0" cy="677.0" fill="#009" r="16" stroke="#009" stroke-width="5" /><circle cx="3237.0" cy="677.0" fill="#009" r="16" stroke="#009" stroke-width="5" /><circle cx="3269.0" cy="677.0" fill="#009" r="16" stroke="#009" stroke-width="5" /><circle cx="3301.0" cy="677.0" fill="#009" r="16" stroke="#009" stroke-width="5" /><circle cx="3013.0" cy="1317.0" fill="#009" r="16" stroke="#009" stroke-width="5" /><circle cx="3045.0" cy="1317.0" fill="#009" r="16" stroke="#009" stroke-width="5" /><circle cx="3077.0" cy="1317.0" fill="#009" r="16" stroke="#009" stroke-width="5" /><circle cx="3141.0" cy="1317.0" fill="#009" r="16" stroke="#009" stroke-width="5" /><circle cx="3173.0" cy="1317.0" fill="#009" r="16" stroke="#009" stroke-width="5" /><circle cx="3205.0" cy="1317.0" fill="#009" r="16" stroke="#009" stroke-width="5" /><circle cx="3237.0" cy="1317.0" fill="#009" r="16" stroke="#009" stroke-width="5" /><circle cx="3301.0" cy="1317.0" fill="#009" r="16" stroke="#009" stroke-width="5" /><circle cx="3333.0" cy="1317.0" fill="#009" r="16" stroke="#009" stroke-width="5" /><circle cx="3877.0" cy="1317.0" fill="#009" r="16" stroke="#009" stroke-width="5" /><circle cx="3941.0" cy="1317.0" fill="#009" r="16" stroke="#009" stroke-width="5" /><circle cx="3973.0" cy="1317.0" fill="#009" r="16" stroke="#009" stroke-width="5" /><circle cx="4005.0" cy="1317.0" fill="#009" r="16" stroke="#009" stroke-width="5" /><circle cx="4037.0" cy="1317.0" fill="#009" r="16" stroke="#009" stroke-width="5" /><circle cx="4101.0" cy="1317.0" fill="#009" r="16" stroke="#009" stroke-width="5" /><circle cx="4133.0" cy="1317.0" fill="#009" r="16" stroke="#009" stroke-width="5" /><circle cx="4165.0" cy="1317.0" fill="#009" r="16" stroke="#009" stroke-width="5" /><circle cx="5253.0" cy="1605.0" fill="#009" r="16" stroke="#009" stroke-width="5" /><circle cx="5285.0" cy="1541.0" fill="#009" r="16" stroke="#009" stroke-width="5" /><circle cx="5253.0" cy="1477.0" fill="#009" r="16" stroke="#009" stroke-width="5" /><circle cx="4741.0" cy="2277.0" fill="#009" r="16" stroke="#009" stroke-width="5" /><circle cx="4613.0" cy="2277.0" fill="#009" r="16" stroke="#009" stroke-width="5" /><circle cx="4261.0" cy="2309.0" fill="#009" r="16" stroke="#009" stroke-width="5" /><circle cx="3973.0" cy="2629.0" fill="#009" r="16" stroke="#009" stroke-width="5" /><circle cx="3589.0" cy="2149.0" fill="#009" r="16" stroke="#009" stroke-width="5" /><circle cx="3237.0" cy="2437.0" fill="#009" r="16" stroke="#009" stroke-width="5" /><circle cx="2917.0" cy="2181.0" fill="#009" r="16" stroke="#009" stroke-width="5" /><circle cx="2437.0" cy="2085.0" fill="#009" r="16" stroke="#009" stroke-width="5" /><circle cx="2981.0" cy="1861.0" fill="#009" r="16" stroke="#009" stroke-width="5" /><circle cx="3173.0" cy="1573.0" fill="#009" r="16" stroke="#009" stroke-width="5" /><circle cx="2597.0" cy="1541.0" fill="#090" r="16" stroke="#090" stroke-width="5" /><circle cx="2341.0" cy="1925.0" fill="#090" r="16" stroke="#090" stroke-width="5" /><circle cx="3365.0" cy="1861.0" fill="#090" r="16" stroke="#090" stroke-width="5" /><circle cx="4069.0" cy="1989.0" fill="#090" r="16" stroke="#090" stroke-width="5" /><circle cx="4165.0" cy="1541.0" fill="#090" r="16" stroke="#090" stroke-width="5" /><circle cx="3493.0" cy="1509.0" fill="#090" r="16" stroke="#090" stroke-width="5" /><rect fill="#090" height="24" stroke="#090" stroke-width="5" transform="rotate(0,3333.0,1669.0)" width="24" x="3321.0" y="1657.0" /><rect fill="#090" height="24" stroke="#090" stroke-width="5" transform="rotate(0,3813.0,1573.0)" width="24" x="3801.0" y="1561.0" /><rect fill="#090" height="24" stroke="#090" stroke-width="5" transform="rotate(0,4165.0,1733.0)" width="24" x="4153.0" y="1721.0" /><rect fill="#090" height="24" stroke="#090" stroke-width="5" transform="rotate(0,3525.0,2277.0)" width="24" x="3513.0" y="2265.0" /><rect fill="#090" height="24" stroke="#090" stroke-width="5" transform="rotate(0,3749.0,2565.0)" width="24" x="3737.0" y="2553.0" /><rect fill="#090" height="24" stroke="#090" stroke-width="5" transform="rotate(0,3685.0,3109.0)" width="24" x="3673.0" y="3097.0" /><rect fill="#090" height="24" stroke="#090" stroke-width="5" transform="rotate(0,3685.0,3269.0)" width="24" x="3673.0" y="3257.0" /><rect fill="#090" height="24" stroke="#090" stroke-width="5" transform="rotate(0,4709.0,1893.0)" width="24" x="4697.0" y="1881.0" /><rect fill="#090" height="24" stroke="#090" stroke-width="5" transform="rotate(0,5029.0,1701.0)" width="24" x="5017.0" y="1689.0" /><rect fill="#090" height="24" stroke="#090" stroke-width="5" transform="rotate(0,4549.0,1477.0)" width="24" x="4537.0" y="1465.0" /><rect fill="#090" height="24" stroke="#090" stroke-width="5" transform="rotate(0,2821.0,1445.0)" width="24" x="2809.0" y="1433.0" /><rect fill="#090" height="24" stroke="#090" stroke-width="5" transform="rotate(0,2341.0,1605.0)" width="24" x="2329.0" y="1593.0" /><ellipse cx="3529.0" cy="29.0" fill="#009" rx="12" ry="24" stroke="#009" stroke-width="5" /><ellipse cx="3494.0" cy="78.0" fill="#009" rx="12" ry="24" stroke="#009" stroke-width="5" /><ellipse cx="3561.0" cy="85.0" fill="#009" rx="12" ry="24" stroke="#009" stroke-width="5" /><rect fill="#090" height="24" stroke="#090" stroke-width="5" transform="rotate(0,3189.0,199.0)" width="24" x="3177.0" y="187.0" /><rect fill="#090" height="24" stroke="#090" stroke-width="5" transform="rotate(0,3863.0,943.0)" width="24" x="3851.0" y="931.0" /><rect fill="#090" height="24" stroke="#090" stroke-width="5" transform="rotate(0,3645.0,2727.0)" width="24" x="3633.0" y="2715.0" /><rect fill="#090" height="24" stroke="#090" stroke-width="5" transform="rotate(0,4439.0,2391.0)" width="24" x="4427.0" y="2379.0" /><rect fill="#900" height="48" stroke="#900" stroke-width="5" transform="rotate(0,3525.0,1893.0)" width="32" x="3509.0" y="1869.0" /><rect fill="#900" height="48" stroke="#900" stroke-width="5" transform="rotate(0,3589.0,1893.0)" width="32" x="3573.0" y="1869.0" /><rect fill="#900" height="48" stroke="#900" stroke-width="5" transform="rotate(0,3653.0,1893.0)" width="32" x="3637.0" y="1869.0" /><rect fill="#900" height="48" stroke="#900" stroke-width="5" transform="rotate(0,3621.0,1957.0)" width="32" x="3605.0" y="1933.0" /><rect fill="#900" height="48" stroke="#900" stroke-width="5" transform="rotate(270,3717.0,1893.0)" width="32" x="3701.0" y="1869.0" /><rect fill="#900" height="48" stroke="#900" stroke-width="5" transform="rotate(270,3557.0,1829.0)" width="32" x="3541.0" y="1805.0" /><rect fill="#900" height="48" stroke="#900" stroke-width="5" transform="rotate(270,3493.0,1829.0)" width="32" x="3477.0" y="1805.0" /><rect fill="#900" height="48" stroke="#900" stroke-width="5" transform="rotate(270,3621.0,1829.0)" width="32" x="3605.0" y="1805.0" /><rect fill="#900" height="48" stroke="#900" stroke-width="5" transform="rotate(0,3685.0,1829.0)" width="32" x="3669.0" y="1805.0" /><circle cx="3269.0" cy="201.0" fill="#009" r="16" stroke="#009" stroke-width="5" /><circle cx="3477.0" cy="257.0" fill="#009" r="16" stroke="#009" stroke-width="5" /><circle cx="3437.0" cy="385.0" fill="#009" r="16" stroke="#009" stroke-width="5" /><circle cx="3373.0" cy="521.0" fill="#009" r="16" stroke="#009" stroke-width="5" /><circle cx="3581.0" cy="521.0" fill="#009" r="16" stroke="#009" stroke-width="5" /><circle cx="3773.0" cy="513.0" fill="#009" r="16" stroke="#009" stroke-width="5" /><circle cx="3853.0" cy="337.0" fill="#009" r="16" stroke="#009" stroke-width="5" /><circle cx="3197.0" cy="329.0" fill="#009" r="16" stroke="#009" stroke-width="5" /><rect fill="#009" height="24" stroke="#009" stroke-width="5" transform="rotate(90,3781.0,1829.0)" width="24" x="3769.0" y="1817.0" /><circle cx="3557.0" cy="2085.0" fill="#009" r="16" stroke="#009" stroke-width="5" /><circle cx="3557.0" cy="2021.0" fill="#009" r="16" stroke="#009" stroke-width="5" /><circle cx="3621.0" cy="2021.0" fill="#009" r="16" stroke="#009" stroke-width="5" /><circle cx="3621.0" cy="2085.0" fill="#009" r="16" stroke="#009" stroke-width="5" /></svg>