<?xml version="1.0" encoding="utf-8" ?>
<svg baseProfile="tiny" height="668" version="1.2" viewBox="0 0 9738 6362" width="1024" xmlns="http://www.w3.org/2000/svg" xmlns:ev="http://www.w3.org/2001/xml-events" xmlns:xlink="http://www.w3.org/1999/xlink"><defs /><line stroke="#333" stroke-width="10" x1="5.0" x2="165.0" y1="165.0" y2="6229.0" /><line stroke="#333" stroke-width="10" x1="2917.0" x2="4597.0" y1="4197.0" y2="6341.0" /><line stroke="#333" stroke-width="10" x1="6565.0" x2="6053.0" y1="4165.0" y2="6149.0" /><line stroke="#333" stroke-width="10" x1="9733.0" x2="5.0" y1="5.0" y2="165.0" /><line stroke="#333" stroke-width="10" x1="4693.0" x2="4805.0" y1="4165.0" y2="6357.0" /><line stroke="#333" stroke-width="10" x1="4805.0" x2="6565.0" y1="6357.0" y2="4165.0" /><line stroke="#333" stroke-width="10" x1="4549.0" x2="4693.0" y1="4165.0" y2="4165.0" /><line stroke="#333" stroke-width="10" x1="4597.0" x2="4549.0" y1="6341.0" y2="4165.0" /><line stroke="#333" stroke-width="10" x1="165.0" x2="3637.0" y1="6229.0" y2="6133.0" /><line stroke="#333" stroke-width="10" x1="9621.0" x2="9733.0" y1="6245.0" y2="5.0" /><line stroke="#333" stroke-width="10" x1="6053.0" x2="9621.0" y1="6149.0" y2="6245.0" /><line stroke="#333" stroke-width="10" x1="3637.0" x2="2917.0" y1="6133.0" y2="4197.0" /><line stroke="#999" stroke-width="3" x1="5061.0" x2="5301.0" y1="3573.0" y2="3573.0" /><line stroke="#999" stroke-width="3" x1="5301.0" x2="5301.0" y1="3573.0" y2="3829.0" /><line stroke="#999" stroke-width="3" x1="5301.0" x2="5061.0" y1="3829.0" y2="3829.0" /><line stroke="#999" stroke-width="3" x1="5061.0" x2="5061.0" y1="3829.0" y2="3573.0" /><ellipse cx="4709.0" cy="2981.0" fill="#009" rx="12" ry="24" stroke="#009" stroke-width="5" /><ellipse cx="3461.0" cy="4533.0" fill="#009" rx="12" ry="24" stroke="#009" stroke-width="5" /><ellipse cx="5941.0" cy="4565.0" fill="#009" rx="12" ry="24" stroke="#009" stroke-width="5" /><ellipse cx="6533.0" cy="4661.0" fill="#009" rx="12" ry="24" stroke="#009" stroke-width="5" /><circle cx="4885.0" cy="5925.0" fill="#009" r="16" stroke="#009" stroke-width="5" /><circle cx="4389.0" cy="5845.0" fill="#009" r="16" stroke="#009" stroke-width="5" /><circle cx="2917.0" cy="5797.0" fill="#009" r="16" stroke="#009" stroke-width="5" /><circle cx="725.0" cy="5429.0" fill="#009" r="16" stroke="#009" stroke-width="5" /><circle cx="677.0" cy="613.0" fill="#009" r="16" stroke="#009" stroke-width="5" /><circle cx="8533.0" cy="1029.0" fill="#009" r="16" stroke="#009" stroke-width="5" /><circle cx="3317.0" cy="1093.0" fill="#009" r="16" stroke="#009" stroke-width="5" /><circle cx="2885.0" cy="3349.0" fill="#009" r="16" stroke="#009" stroke-width="5" /><circle cx="5685.0" cy="2229.0" fill="#009" r="16" stroke="#009" stroke-width="5" /><rect fill="#090" height="24" stroke="#090" stroke-width="5" transform="rotate(0,4085.0,4133.0)" width="24" x="4073.0" y="4121.0" /><rect fill="#090" height="24" stroke="#090" stroke-width="5" transform="rotate(0,1749.0,5381.0)" width="24" x="1737.0" y="5369.0" /><rect fill="#090" height="24" stroke="#090" stroke-width="5" transform="rotate(0,7029.0,5717.0)" width="24" x="7017.0" y="5705.0" /><rect fill="#090" height="24" stroke="#090" stroke-width="5" transform="rotate(0,7973.0,2741.0)" width="24" x="7961.0" y="2729.0" /><circle cx="2805.0" cy="2693.0" fill="#090" r="16" stroke="#090" stroke-width="5" /><rect fill="#090" height="24" stroke="#090" stroke-width="5" transform="rotate(0,2693.0,4565.0)" width="24" x="2681.0" y="4553.0" /><rect fill="#090" height="24" stroke="#090" stroke-width="5" transform="rotate(0,3029.0,2069.0)" width="24" x="3017.0" y="2057.0" /><circle cx="2181.0" cy="4277.0" fill="#090" r="16" stroke="#090" stroke-width="5" /><circle cx="1509.0" cy="5013.0" fill="#090" r="16" stroke="#090" stroke-width="5" /><circle cx="2597.0" cy="5557.0" fill="#090" r="16" stroke="#090" stroke-width="5" /><circle cx="3573.0" cy="4149.0" fill="#090" r="16" stroke="#090" stroke-width="5" /><circle cx="4197.0" cy="5397.0" fill="#900" r="16" stroke="#900" stroke-width="5" /><circle cx="5013.0" cy="5461.0" fill="#090" r="16" stroke="#090" stroke-width="5" /><circle cx="5509.0" cy="4373.0" fill="#090" r="16" stroke="#090" stroke-width="5" /><circle cx="6453.0" cy="5669.0" fill="#090" r="16" stroke="#090" stroke-width="5" /><circle cx="6357.0" cy="3477.0" fill="#090" r="16" stroke="#090" stroke-width="5" /><circle cx="8453.0" cy="3989.0" fill="#090" r="16" stroke="#090" stroke-width="5" /><circle cx="7733.0" cy="3717.0" fill="#090" r="16" stroke="#090" stroke-width="5" /><circle cx="8917.0" cy="5253.0" fill="#090" r="16" stroke="#090" stroke-width="5" /><circle cx="8965.0" cy="2645.0" fill="#090" r="16" stroke="#090" stroke-width="5" /><circle cx="7573.0" cy="1573.0" fill="#090" r="16" stroke="#090" stroke-width="5" /><circle cx="6629.0" cy="917.0" fill="#090" r="16" stroke="#090" stroke-width="5" /><circle cx="5157.0" cy="789.0" fill="#090" r="16" stroke="#090" stroke-width="5" /><circle cx="3877.0" cy="1189.0" fill="#090" r="16" stroke="#090" stroke-width="5" /><circle cx="2085.0" cy="1285.0" fill="#090" r="16" stroke="#090" stroke-width="5" /><circle cx="1397.0" cy="1669.0" fill="#090" r="16" stroke="#090" stroke-width="5" /><circle cx="981.0" cy="725.0" fill="#090" r="16" stroke="#090" stroke-width="5" /><circle cx="2165.0" cy="3845.0" fill="#090" r="16" stroke="#090" stroke-width="5" /><circle cx="1141.0" cy="3829.0" fill="#090" r="16" stroke="#090" stroke-width="5" /><circle cx="5861.0" cy="1653.0" fill="#090" r="16" stroke="#090" stroke-width="5" /><circle cx="4245.0" cy="1765.0" fill="#090" r="16" stroke="#090" stroke-width="5" /><circle cx="5349.0" cy="2629.0" fill="#090" r="16" stroke="#090" stroke-width="5" /><circle cx="5365.0" cy="2117.0" fill="#090" r="16" stroke="#090" stroke-width="5" /><circle cx="7733.0" cy="629.0" fill="#090" r="16" stroke="#090" stroke-width="5" /><circle cx="8229.0" cy="565.0" fill="#090" r="16" stroke="#090" stroke-width="5" /><circle cx="8501.0" cy="2005.0" fill="#090" r="16" stroke="#090" stroke-width="5" /><circle cx="7877.0" cy="2101.0" fill="#090" r="16" stroke="#090" stroke-width="5" /><circle cx="9221.0" cy="2437.0" fill="#090" r="16" stroke="#090" stroke-width="5" /><circle cx="9173.0" cy="181.0" fill="#090" r="16" stroke="#090" stroke-width="5" /><circle cx="9205.0" cy="1413.0" fill="#090" r="16" stroke="#090" stroke-width="5" /><circle cx="9077.0" cy="6037.0" fill="#090" r="16" stroke="#090" stroke-width="5" /><circle cx="8341.0" cy="5669.0" fill="#090" r="16" stroke="#090" stroke-width="5" /><circle cx="8213.0" cy="4341.0" fill="#090" r="16" stroke="#090" stroke-width="5" /><circle cx="7365.0" cy="4389.0" fill="#090" r="16" stroke="#090" stroke-width="5" /><circle cx="7365.0" cy="4997.0" fill="#090" r="16" stroke="#090" stroke-width="5" /><circle cx="6165.0" cy="6085.0" fill="#900" r="16" stroke="#900" stroke-width="5" /><circle cx="4837.0" cy="6149.0" fill="#900" r="16" stroke="#900" stroke-width="5" /><circle cx="4533.0" cy="5941.0" fill="#900" r="16" stroke="#900" stroke-width="5" /><circle cx="3493.0" cy="6053.0" fill="#900" r="16" stroke="#900" stroke-width="5" /><circle cx="2741.0" cy="405.0" fill="#900" r="16" stroke="#900" stroke-width="5" /><circle cx="821.0" cy="965.0" fill="#009" r="16" stroke="#009" stroke-width="5" /><circle cx="3445.0" cy="3653.0" fill="#009" r="16" stroke="#009" stroke-width="5" /><circle cx="5477.0" cy="3493.0" fill="#090" r="16" stroke="#090" stroke-width="5" /><circle cx="5685.0" cy="3941.0" fill="#090" r="16" stroke="#090" stroke-width="5" /><circle cx="2549.0" cy="5029.0" fill="#090" r="16" stroke="#090" stroke-width="5" /><circle cx="1221.0" cy="5781.0" fill="#090" r="16" stroke="#090" stroke-width="5" /><circle cx="853.0" cy="4981.0" fill="#090" r="16" stroke="#090" stroke-width="5" /><circle cx="805.0" cy="3829.0" fill="#090" r="16" stroke="#090" stroke-width="5" /><circle cx="1477.0" cy="1829.0" fill="#090" r="16" stroke="#090" stroke-width="5" /><circle cx="1045.0" cy="1925.0" fill="#090" r="16" stroke="#090" stroke-width="5" /><circle cx="1141.0" cy="1045.0" fill="#090" r="16" stroke="#090" stroke-width="5" /><circle cx="3461.0" cy="1301.0" fill="#090" r="16" stroke="#090" stroke-width="5" /><circle cx="3621.0" cy="2981.0" fill="#090" r="16" stroke="#090" stroke-width="5" /><circle cx="2981.0" cy="2517.0" fill="#090" r="16" stroke="#090" stroke-width="5" /><circle cx="3605.0" cy="2005.0" fill="#090" r="16" stroke="#090" stroke-width="5" /><circle cx="4133.0" cy="1813.0" fill="#090" r="16" stroke="#090" stroke-width="5" /><circle cx="4373.0" cy="1429.0" fill="#090" r="16" stroke="#090" stroke-width="5" /><circle cx="6693.0" cy="1381.0" fill="#090" r="16" stroke="#090" stroke-width="5" /><circle cx="6453.0" cy="821.0" fill="#090" r="16" stroke="#090" stroke-width="5" /><circle cx="5669.0" cy="1397.0" fill="#090" r="16" stroke="#090" stroke-width="5" /><circle cx="5989.0" cy="3317.0" fill="#090" r="16" stroke="#090" stroke-width="5" /><circle cx="7893.0" cy="1573.0" fill="#090" r="16" stroke="#090" stroke-width="5" /><circle cx="8229.0" cy="4917.0" fill="#090" r="16" stroke="#090" stroke-width="5" /><circle cx="7509.0" cy="4325.0" fill="#090" r="16" stroke="#090" stroke-width="5" /><circle cx="7253.0" cy="5845.0" fill="#090" r="16" stroke="#090" stroke-width="5" /><circle cx="6597.0" cy="5749.0" fill="#090" r="16" stroke="#090" stroke-width="5" /><circle cx="9077.0" cy="5733.0" fill="#090" r="16" stroke="#090" stroke-width="5" /><circle cx="8405.0" cy="5861.0" fill="#090" r="16" stroke="#090" stroke-width="5" /><circle cx="9093.0" cy="341.0" fill="#090" r="16" stroke="#090" stroke-width="5" /><circle cx="9429.0" cy="85.0" fill="#090" r="16" stroke="#090" stroke-width="5" /><circle cx="9349.0" cy="1205.0" fill="#090" r="16" stroke="#090" stroke-width="5" /><circle cx="6485.0" cy="1333.0" fill="#090" r="16" stroke="#090" stroke-width="5" /><circle cx="6485.0" cy="757.0" fill="#090" r="16" stroke="#090" stroke-width="5" /><circle cx="6277.0" cy="3077.0" fill="#090" r="16" stroke="#090" stroke-width="5" /><circle cx="5701.0" cy="2693.0" fill="#090" r="16" stroke="#090" stroke-width="5" /><circle cx="4965.0" cy="2005.0" fill="#090" r="16" stroke="#090" stroke-width="5" /><circle cx="4101.0" cy="2101.0" fill="#090" r="16" stroke="#090" stroke-width="5" /><circle cx="3909.0" cy="2709.0" fill="#090" r="16" stroke="#090" stroke-width="5" /><circle cx="4005.0" cy="3525.0" fill="#090" r="16" stroke="#090" stroke-width="5" /><circle cx="5845.0" cy="3637.0" fill="#090" r="16" stroke="#090" stroke-width="5" /><circle cx="2149.0" cy="5269.0" fill="#090" r="16" stroke="#090" stroke-width="5" /><circle cx="1477.0" cy="5029.0" fill="#090" r="16" stroke="#090" stroke-width="5" /><circle cx="933.0" cy="4165.0" fill="#090" r="16" stroke="#090" stroke-width="5" /><circle cx="1349.0" cy="3493.0" fill="#090" r="16" stroke="#090" stroke-width="5" /><circle cx="1285.0" cy="1493.0" fill="#090" r="16" stroke="#090" stroke-width="5" /><circle cx="1093.0" cy="2357.0" fill="#090" r="16" stroke="#090" stroke-width="5" /><circle cx="725.0" cy="1941.0" fill="#090" r="16" stroke="#090" stroke-width="5" /><circle cx="1349.0" cy="1173.0" fill="#090" r="16" stroke="#090" stroke-width="5" /><circle cx="2037.0" cy="565.0" fill="#090" r="16" stroke="#090" stroke-width="5" /><circle cx="2901.0" cy="1269.0" fill="#090" r="16" stroke="#090" stroke-width="5" /><circle cx="2709.0" cy="2309.0" fill="#090" r="16" stroke="#090" stroke-width="5" /><circle cx="2597.0" cy="2597.0" fill="#090" r="16" stroke="#090" stroke-width="5" /><circle cx="4549.0" cy="2085.0" fill="#090" r="16" stroke="#090" stroke-width="5" /><circle cx="4661.0" cy="1781.0" fill="#090" r="16" stroke="#090" stroke-width="5" /><circle cx="7061.0" cy="3861.0" fill="#090" r="16" stroke="#090" stroke-width="5" /><circle cx="9109.0" cy="3429.0" fill="#090" r="16" stroke="#090" stroke-width="5" /><circle cx="9077.0" cy="6037.0" fill="#090" r="16" stroke="#090" stroke-width="5" /><rect fill="#900" height="48" stroke="#900" stroke-width="5" transform="rotate(0,4101.0,4581.0)" width="32" x="4085.0" y="4557.0" /><rect fill="#900" height="48" stroke="#900" stroke-width="5" transform="rotate(0,1045.0,5717.0)" width="32" x="1029.0" y="5693.0" /><rect fill="#900" height="48" stroke="#900" stroke-width="5" transform="rotate(0,501.0,5957.0)" width="32" x="485.0" y="5933.0" /><rect fill="#900" height="48" stroke="#900" stroke-width="5" transform="rotate(0,405.0,4677.0)" width="32" x="389.0" y="4653.0" /><rect fill="#900" height="48" stroke="#900" stroke-width="5" transform="rotate(0,1061.0,3557.0)" width="32" x="1045.0" y="3533.0" /><rect fill="#900" height="48" stroke="#900" stroke-width="5" transform="rotate(0,1765.0,1285.0)" width="32" x="1749.0" y="1261.0" /><rect fill="#900" height="48" stroke="#900" stroke-width="5" transform="rotate(0,1157.0,1525.0)" width="32" x="1141.0" y="1501.0" /><rect fill="#900" height="48" stroke="#900" stroke-width="5" transform="rotate(0,453.0,869.0)" width="32" x="437.0" y="845.0" /><rect fill="#900" height="48" stroke="#900" stroke-width="5" transform="rotate(0,2341.0,389.0)" width="32" x="2325.0" y="365.0" /><rect fill="#900" height="48" stroke="#900" stroke-width="5" transform="rotate(0,4373.0,1029.0)" width="32" x="4357.0" y="1005.0" /><rect fill="#900" height="48" stroke="#900" stroke-width="5" transform="rotate(0,5269.0,4277.0)" width="32" x="5253.0" y="4253.0" /><rect fill="#900" height="48" stroke="#900" stroke-width="5" transform="rotate(0,5029.0,4981.0)" width="32" x="5013.0" y="4957.0" /><rect fill="#900" height="48" stroke="#900" stroke-width="5" transform="rotate(0,4197.0,5589.0)" width="32" x="4181.0" y="5565.0" /><rect fill="#900" height="48" stroke="#900" stroke-width="5" transform="rotate(0,7077.0,5781.0)" width="32" x="7061.0" y="5757.0" /><rect fill="#900" height="48" stroke="#900" stroke-width="5" transform="rotate(0,8757.0,5813.0)" width="32" x="8741.0" y="5789.0" /><rect fill="#900" height="48" stroke="#900" stroke-width="5" transform="rotate(0,9141.0,4757.0)" width="32" x="9125.0" y="4733.0" /><rect fill="#900" height="48" stroke="#900" stroke-width="5" transform="rotate(0,9141.0,2821.0)" width="32" x="9125.0" y="2797.0" /><rect fill="#900" height="48" stroke="#900" stroke-width="5" transform="rotate(0,9189.0,741.0)" width="32" x="9173.0" y="717.0" /><rect fill="#900" height="48" stroke="#900" stroke-width="5" transform="rotate(0,7909.0,1493.0)" width="32" x="7893.0" y="1469.0" /><rect fill="#900" height="48" stroke="#900" stroke-width="5" transform="rotate(0,6293.0,2325.0)" width="32" x="6277.0" y="2301.0" /><ellipse cx="4373.0" cy="4165.0" fill="#900" rx="12" ry="24" stroke="#900" stroke-width="5" /><ellipse cx="1013.0" cy="4837.0" fill="#900" rx="12" ry="24" stroke="#900" stroke-width="5" /><ellipse cx="677.0" cy="5429.0" fill="#900" rx="12" ry="24" stroke="#900" stroke-width="5" /><ellipse cx="1045.0" cy="5669.0" fill="#900" rx="12" ry="24" stroke="#900" stroke-width="5" /><ellipse cx="2645.0" cy="5733.0" fill="#900" rx="12" ry="24" stroke="#900" stroke-width="5" /><ellipse cx="2405.0" cy="1957.0" fill="#900" rx="12" ry="24" stroke="#900" stroke-width="5" /><ellipse cx="1413.0" cy="2725.0" fill="#900" rx="12" ry="24" stroke="#900" stroke-width="5" /><ellipse cx="277.0" cy="1221.0" fill="#900" rx="12" ry="24" stroke="#900" stroke-width="5" /><ellipse cx="901.0" cy="1365.0" fill="#900" rx="12" ry="24" stroke="#900" stroke-width="5" /><ellipse cx="2149.0" cy="469.0" fill="#900" rx="12" ry="24" stroke="#900" stroke-width="5" /><ellipse cx="4533.0" cy="389.0" fill="#900" rx="12" ry="24" stroke="#900" stroke-width="5" /><ellipse cx="6469.0" cy="421.0" fill="#900" rx="12" ry="24" stroke="#900" stroke-width="5" /><ellipse cx="8341.0" cy="421.0" fill="#900" rx="12" ry="24" stroke="#900" stroke-width="5" /><ellipse cx="9061.0" cy="1205.0" fill="#900" rx="12" ry="24" stroke="#900" stroke-width="5" /><ellipse cx="9061.0" cy="4357.0" fill="#900" rx="12" ry="24" stroke="#900" stroke-width="5" /><ellipse cx="8261.0" cy="5125.0" fill="#900" rx="12" ry="24" stroke="#900" stroke-width="5" /><ellipse cx="6581.0" cy="5925.0" fill="#900" rx="12" ry="24" stroke="#900" stroke-width="5" /><ellipse cx="4949.0" cy="5525.0" fill="#900" rx="12" ry="24" stroke="#900" stroke-width="5" /><ellipse cx="5349.0" cy="5461.0" fill="#900" rx="12" ry="24" stroke="#900" stroke-width="5" /><ellipse cx="5349.0" cy="4597.0" fill="#900" rx="12" ry="24" stroke="#900" stroke-width="5" /><ellipse cx="4309.0" cy="4485.0" fill="#900" rx="12" ry="24" stroke="#900" stroke-width="5" /><ellipse cx="3701.0" cy="4565.0" fill="#900" rx="12" ry="24" stroke="#900" stroke-width="5" /><ellipse cx="3317.0" cy="3829.0" fill="#900" rx="12" ry="24" stroke="#900" stroke-width="5" /><ellipse cx="2693.0" cy="4021.0" fill="#900" rx="12" ry="24" stroke="#900" stroke-width="5" /><ellipse cx="2565.0" cy="3557.0" fill="#900" rx="12" ry="24" stroke="#900" stroke-width="5" /><circle cx="4357.0" cy="3525.0" fill="#009" r="16" stroke="#009" stroke-width="5" /><circle cx="2357.0" cy="5621.0" fill="#009" r="16" stroke="#009" stroke-width="5" /><circle cx="2181.0" cy="5093.0" fill="#009" r="16" stroke="#009" stroke-width="5" /><circle cx="1301.0" cy="5253.0" fill="#009" r="16" stroke="#009" stroke-width="5" /><circle cx="1189.0" cy="4709.0" fill="#009" r="16" stroke="#009" stroke-width="5" /><circle cx="917.0" cy="5349.0" fill="#009" r="16" stroke="#009" stroke-width="5" /><circle cx="645.0" cy="4517.0" fill="#009" r="16" stroke="#009" stroke-width="5" /><circle cx="725.0" cy="581.0" fill="#009" r="16" stroke="#009" stroke-width="5" /><circle cx="1237.0" cy="1941.0" fill="#009" r="16" stroke="#009" stroke-width="5" /><circle cx="1925.0" cy="357.0" fill="#009" r="16" stroke="#009" stroke-width="5" /><circle cx="4517.0" cy="4517.0" fill="#009" r="16" stroke="#009" stroke-width="5" /><circle cx="4597.0" cy="1653.0" fill="#009" r="16" stroke="#009" stroke-width="5" /><circle cx="5893.0" cy="3205.0" fill="#009" r="16" stroke="#009" stroke-width="5" /><circle cx="6005.0" cy="3685.0" fill="#009" r="16" stroke="#009" stroke-width="5" /><circle cx="6357.0" cy="3893.0" fill="#009" r="16" stroke="#009" stroke-width="5" /><circle cx="7189.0" cy="5109.0" fill="#009" r="16" stroke="#009" stroke-width="5" /><circle cx="8373.0" cy="5221.0" fill="#009" r="16" stroke="#009" stroke-width="5" /><circle cx="8997.0" cy="3989.0" fill="#009" r="16" stroke="#009" stroke-width="5" /><rect fill="#090" height="24" stroke="#090" stroke-width="5" transform="rotate(0,4309.0,4725.0)" width="24" x="4297.0" y="4713.0" /><rect fill="#090" height="24" stroke="#090" stroke-width="5" transform="rotate(0,3061.0,5685.0)" width="24" x="3049.0" y="5673.0" /><rect fill="#090" height="24" stroke="#090" stroke-width="5" transform="rotate(0,1397.0,5669.0)" width="24" x="1385.0" y="5657.0" /><rect fill="#090" height="24" stroke="#090" stroke-width="5" transform="rotate(0,1669.0,1701.0)" width="24" x="1657.0" y="1689.0" /><rect fill="#090" height="24" stroke="#090" stroke-width="5" transform="rotate(0,8181.0,1781.0)" width="24" x="8169.0" y="1769.0" /><rect fill="#090" height="24" stroke="#090" stroke-width="5" transform="rotate(0,6885.0,4693.0)" width="24" x="6873.0" y="4681.0" /><rect fill="#090" height="24" stroke="#090" stroke-width="5" transform="rotate(0,5925.0,4373.0)" width="24" x="5913.0" y="4361.0" /><rect fill="#090" height="24" stroke="#090" stroke-width="5" transform="rotate(0,8533.0,5989.0)" width="24" x="8521.0" y="5977.0" /><ellipse cx="4453.0" cy="2581.0" fill="#009" rx="12" ry="24" stroke="#009" stroke-width="5" /><ellipse cx="4965.0" cy="2597.0" fill="#009" rx="12" ry="24" stroke="#009" stroke-width="5" /><ellipse cx="5029.0" cy="3237.0" fill="#009" rx="12" ry="24" stroke="#009" stroke-width="5" /><rect fill="#090" height="24" stroke="#090" stroke-width="5" transform="rotate(0,4565.0,3717.0)" width="24" x="4553.0" y="3705.0" /><rect fill="#090" height="24" stroke="#090" stroke-width="5" transform="rotate(0,4213.0,3621.0)" width="24" x="4201.0" y="3609.0" /><rect fill="#090" height="24" stroke="#090" stroke-width="5" transform="rotate(0,4293.0,3029.0)" width="24" x="4281.0" y="3017.0" /><rect fill="#090" height="24" stroke="#090" stroke-width="5" transform="rotate(0,4325.0,2549.0)" width="24" x="4313.0" y="2537.0" /><rect fill="#090" height="24" stroke="#090" stroke-width="5" transform="rotate(0,5141.0,2997.0)" width="24" x="5129.0" y="2985.0" /><ellipse cx="5173.0" cy="3701.0" fill="#900" rx="12" ry="24" stroke="#900" stroke-width="5" /><ellipse cx="5173.0" cy="3653.0" fill="#900" rx="12" ry="24" stroke="#900" stroke-width="5" /><ellipse cx="5157.0" cy="3749.0" fill="#900" rx="12" ry="24" stroke="#900" stroke-width="5" /><ellipse cx="5189.0" cy="3749.0" fill="#900" rx="12" ry="24" stroke="#900" stroke-width="5" /></svg>