<?xml version="1.0" encoding="utf-8" ?>
<svg baseProfile="tiny" height="1024" version="1.2" viewBox="0 0 10058 10186" width="1011" xmlns="http://www.w3.org/2000/svg" xmlns:ev="http://www.w3.org/2001/xml-events" xmlns:xlink="http://www.w3.org/1999/xlink"><defs /><line stroke="#333" stroke-width="10" x1="5509.0" x2="8581.0" y1="4469.0" y2="4421.0" /><line stroke="#333" stroke-width="10" x1="8581.0" x2="8581.0" y1="4421.0" y2="5.0" /><line stroke="#333" stroke-width="10" x1="8581.0" x2="1477.0" y1="5.0" y2="5.0" /><line stroke="#333" stroke-width="10" x1="1477.0" x2="1477.0" y1="5.0" y2="4421.0" /><line stroke="#333" stroke-width="10" x1="1477.0" x2="4549.0" y1="4421.0" y2="4469.0" /><line stroke="#333" stroke-width="10" x1="5509.0" x2="5477.0" y1="4485.0" y2="4485.0" /><line stroke="#333" stroke-width="10" x1="7109.0" x2="5509.0" y1="4485.0" y2="4485.0" /><line stroke="#333" stroke-width="10" x1="7109.0" x2="7109.0" y1="4613.0" y2="4485.0" /><line stroke="#333" stroke-width="10" x1="5509.0" x2="7109.0" y1="4613.0" y2="4613.0" /><line stroke="#333" stroke-width="10" x1="5445.0" x2="5477.0" y1="4613.0" y2="4613.0" /><line stroke="#333" stroke-width="10" x1="4549.0" x2="4581.0" y1="4613.0" y2="4613.0" /><line stroke="#333" stroke-width="10" x1="2949.0" x2="4549.0" y1="4613.0" y2="4613.0" /><line stroke="#333" stroke-width="10" x1="2949.0" x2="2949.0" y1="4485.0" y2="4613.0" /><line stroke="#333" stroke-width="10" x1="4549.0" x2="2949.0" y1="4485.0" y2="4485.0" /><line stroke="#333" stroke-width="10" x1="4613.0" x2="4581.0" y1="4485.0" y2="4485.0" /><line stroke="#333" stroke-width="10" x1="4613.0" x2="4613.0" y1="4469.0" y2="4485.0" /><line stroke="#333" stroke-width="10" x1="5445.0" x2="5445.0" y1="4485.0" y2="4469.0" /><line stroke="#999" stroke-width="3" x1="5445.0" x2="5477.0" y1="4293.0" y2="4365.0" /><line stroke="#999" stroke-width="3" x1="5317.0" x2="5381.0" y1="4165.0" y2="4229.0" /><line stroke="#333" stroke-width="10" x1="5109.0" x2="5125.0" y1="4053.0" y2="4061.0" /><line stroke="#999" stroke-width="3" x1="4949.0" x2="5109.0" y1="4053.0" y2="4053.0" /><line stroke="#999" stroke-width="3" x1="4741.0" x2="4845.0" y1="4165.0" y2="4101.0" /><line stroke="#999" stroke-width="3" x1="4613.0" x2="4677.0" y1="4293.0" y2="4229.0" /><line stroke="#333" stroke-width="10" x1="4549.0" x2="4549.0" y1="4469.0" y2="4461.0" /><line stroke="#999" stroke-width="3" x1="4677.0" x2="4645.0" y1="4325.0" y2="4397.0" /><line stroke="#999" stroke-width="3" x1="4797.0" x2="4741.0" y1="4205.0" y2="4261.0" /><line stroke="#333" stroke-width="10" x1="4957.0" x2="4933.0" y1="4149.0" y2="4149.0" /><line stroke="#999" stroke-width="3" x1="4957.0" x2="5101.0" y1="4149.0" y2="4149.0" /><line stroke="#999" stroke-width="3" x1="5261.0" x2="5205.0" y1="4205.0" y2="4173.0" /><line stroke="#999" stroke-width="3" x1="5317.0" x2="5381.0" y1="4261.0" y2="4325.0" /><line stroke="#999" stroke-width="3" x1="5445.0" x2="5413.0" y1="4469.0" y2="4397.0" /><line stroke="#333" stroke-width="10" x1="10053.0" x2="10053.0" y1="10181.0" y2="4677.0" /><line stroke="#333" stroke-width="10" x1="5.0" x2="10053.0" y1="10181.0" y2="10181.0" /><line stroke="#333" stroke-width="10" x1="5.0" x2="5.0" y1="4677.0" y2="10181.0" /><line stroke="#333" stroke-width="10" x1="10053.0" x2="5509.0" y1="4677.0" y2="4629.0" /><line stroke="#333" stroke-width="10" x1="4549.0" x2="5.0" y1="4629.0" y2="4677.0" /><line stroke="#333" stroke-width="10" x1="4613.0" x2="4613.0" y1="4613.0" y2="4629.0" /><line stroke="#333" stroke-width="10" x1="5445.0" x2="5445.0" y1="4629.0" y2="4613.0" /><line stroke="#999" stroke-width="3" x1="4613.0" x2="4581.0" y1="4805.0" y2="4733.0" /><line stroke="#999" stroke-width="3" x1="4741.0" x2="4677.0" y1="4933.0" y2="4869.0" /><line stroke="#333" stroke-width="10" x1="4933.0" x2="4869.0" y1="5029.0" y2="4997.0" /><line stroke="#999" stroke-width="3" x1="5125.0" x2="4933.0" y1="5029.0" y2="5029.0" /><line stroke="#999" stroke-width="3" x1="5317.0" x2="5189.0" y1="4933.0" y2="4997.0" /><line stroke="#999" stroke-width="3" x1="5445.0" x2="5381.0" y1="4805.0" y2="4869.0" /><line stroke="#333" stroke-width="10" x1="5509.0" x2="5509.0" y1="4629.0" y2="4637.0" /><line stroke="#999" stroke-width="3" x1="5381.0" x2="5413.0" y1="4773.0" y2="4701.0" /><line stroke="#999" stroke-width="3" x1="5253.0" x2="5317.0" y1="4901.0" y2="4837.0" /><line stroke="#333" stroke-width="10" x1="5125.0" x2="5189.0" y1="4965.0" y2="4933.0" /><line stroke="#999" stroke-width="3" x1="5125.0" x2="4933.0" y1="4965.0" y2="4965.0" /><line stroke="#999" stroke-width="3" x1="4805.0" x2="4869.0" y1="4901.0" y2="4933.0" /><line stroke="#999" stroke-width="3" x1="4677.0" x2="4741.0" y1="4773.0" y2="4837.0" /><line stroke="#999" stroke-width="3" x1="4613.0" x2="4645.0" y1="4629.0" y2="4701.0" /><line stroke="#333" stroke-width="10" x1="5509.0" x2="5509.0" y1="4461.0" y2="4469.0" /><line stroke="#333" stroke-width="10" x1="4549.0" x2="4549.0" y1="4461.0" y2="4437.0" /><line stroke="#999" stroke-width="3" x1="1541.0" x2="4549.0" y1="4357.0" y2="4461.0" /><line stroke="#999" stroke-width="3" x1="1541.0" x2="1541.0" y1="69.0" y2="4357.0" /><line stroke="#999" stroke-width="3" x1="8517.0" x2="1541.0" y1="69.0" y2="69.0" /><line stroke="#999" stroke-width="3" x1="8517.0" x2="8517.0" y1="4357.0" y2="69.0" /><line stroke="#999" stroke-width="3" x1="5509.0" x2="8517.0" y1="4461.0" y2="4357.0" /><line stroke="#333" stroke-width="10" x1="4949.0" x2="4949.0" y1="4053.0" y2="4061.0" /><line stroke="#333" stroke-width="10" x1="5101.0" x2="5101.0" y1="4149.0" y2="4133.0" /><line stroke="#333" stroke-width="10" x1="4933.0" x2="4933.0" y1="4965.0" y2="5029.0" /><line stroke="#333" stroke-width="10" x1="5125.0" x2="5125.0" y1="5029.0" y2="4965.0" /><line stroke="#333" stroke-width="10" x1="5509.0" x2="5509.0" y1="4637.0" y2="4661.0" /><line stroke="#333" stroke-width="10" x1="4549.0" x2="4549.0" y1="4637.0" y2="4629.0" /><line stroke="#999" stroke-width="3" x1="9989.0" x2="5509.0" y1="4741.0" y2="4637.0" /><line stroke="#999" stroke-width="3" x1="9989.0" x2="9989.0" y1="10117.0" y2="8709.0" /><line stroke="#999" stroke-width="3" x1="69.0" x2="9989.0" y1="10117.0" y2="10117.0" /><line stroke="#999" stroke-width="3" x1="69.0" x2="69.0" y1="4741.0" y2="8709.0" /><line stroke="#999" stroke-width="3" x1="4549.0" x2="69.0" y1="4637.0" y2="4741.0" /><line stroke="#999" stroke-width="3" x1="1477.0" x2="1541.0" y1="4421.0" y2="4357.0" /><line stroke="#999" stroke-width="3" x1="69.0" x2="5.0" y1="4741.0" y2="4677.0" /><line stroke="#999" stroke-width="3" x1="10053.0" x2="9989.0" y1="4677.0" y2="4741.0" /><line stroke="#999" stroke-width="3" x1="8517.0" x2="8581.0" y1="4357.0" y2="4421.0" /><line stroke="#999" stroke-width="3" x1="1477.0" x2="1541.0" y1="5.0" y2="69.0" /><line stroke="#999" stroke-width="3" x1="8517.0" x2="8581.0" y1="69.0" y2="5.0" /><line stroke="#999" stroke-width="3" x1="69.0" x2="5.0" y1="10117.0" y2="10181.0" /><line stroke="#999" stroke-width="3" x1="10053.0" x2="9989.0" y1="10181.0" y2="10117.0" /><line stroke="#333" stroke-width="10" x1="5125.0" x2="5101.0" y1="4149.0" y2="4149.0" /><line stroke="#999" stroke-width="3" x1="5125.0" x2="5213.0" y1="4061.0" y2="4101.0" /><line stroke="#333" stroke-width="10" x1="4933.0" x2="4949.0" y1="4061.0" y2="4053.0" /><line stroke="#999" stroke-width="3" x1="4933.0" x2="4853.0" y1="4149.0" y2="4173.0" /><line stroke="#333" stroke-width="10" x1="5189.0" x2="5125.0" y1="4997.0" y2="5029.0" /><line stroke="#999" stroke-width="3" x1="5189.0" x2="5253.0" y1="4933.0" y2="4901.0" /><line stroke="#333" stroke-width="10" x1="4869.0" x2="4933.0" y1="4933.0" y2="4965.0" /><line stroke="#999" stroke-width="3" x1="4869.0" x2="4741.0" y1="4997.0" y2="4933.0" /><line stroke="#333" stroke-width="10" x1="4997.0" x2="5061.0" y1="4517.0" y2="4517.0" /><line stroke="#333" stroke-width="10" x1="5061.0" x2="5061.0" y1="4517.0" y2="4581.0" /><line stroke="#333" stroke-width="10" x1="5061.0" x2="4997.0" y1="4581.0" y2="4581.0" /><line stroke="#333" stroke-width="10" x1="4997.0" x2="4997.0" y1="4581.0" y2="4517.0" /><line stroke="#999" stroke-width="3" x1="4613.0" x2="4613.0" y1="4485.0" y2="4613.0" /><line stroke="#999" stroke-width="3" x1="4549.0" x2="4549.0" y1="4613.0" y2="4485.0" /><line stroke="#999" stroke-width="3" x1="5445.0" x2="5445.0" y1="4613.0" y2="4485.0" /><line stroke="#999" stroke-width="3" x1="5509.0" x2="5509.0" y1="4485.0" y2="4613.0" /><line stroke="#999" stroke-width="3" x1="4949.0" x2="4957.0" y1="4053.0" y2="3981.0" /><line stroke="#999" stroke-width="3" x1="4957.0" x2="4925.0" y1="3981.0" y2="3981.0" /><line stroke="#999" stroke-width="3" x1="4925.0" x2="4485.0" y1="3981.0" y2="3461.0" /><line stroke="#999" stroke-width="3" x1="4485.0" x2="4485.0" y1="3461.0" y2="3205.0" /><line stroke="#999" stroke-width="3" x1="4485.0" x2="4933.0" y1="3205.0" y2="2309.0" /><line stroke="#999" stroke-width="3" x1="4933.0" x2="5125.0" y1="2309.0" y2="2309.0" /><line stroke="#999" stroke-width="3" x1="5125.0" x2="5573.0" y1="2309.0" y2="3205.0" /><line stroke="#999" stroke-width="3" x1="5573.0" x2="5573.0" y1="3205.0" y2="3461.0" /><line stroke="#999" stroke-width="3" x1="5573.0" x2="5133.0" y1="3461.0" y2="3981.0" /><line stroke="#999" stroke-width="3" x1="5133.0" x2="5101.0" y1="3981.0" y2="3981.0" /><line stroke="#999" stroke-width="3" x1="5101.0" x2="5109.0" y1="3981.0" y2="4053.0" /><line stroke="#999" stroke-width="3" x1="5509.0" x2="5573.0" y1="5317.0" y2="5317.0" /><line stroke="#0d0" stroke-width="20" x1="5573.0" x2="5573.0" y1="5317.0" y2="5381.0" /><line stroke="#999" stroke-width="3" x1="5573.0" x2="5509.0" y1="5381.0" y2="5381.0" /><line stroke="#999" stroke-width="3" x1="5509.0" x2="5509.0" y1="5381.0" y2="5317.0" /><line stroke="#333" stroke-width="10" x1="4805.0" x2="4805.0" y1="5701.0" y2="5573.0" /><line stroke="#333" stroke-width="10" x1="4805.0" x2="4933.0" y1="5573.0" y2="5573.0" /><line stroke="#333" stroke-width="10" x1="4933.0" x2="4933.0" y1="5573.0" y2="5701.0" /><line stroke="#333" stroke-width="10" x1="4933.0" x2="4805.0" y1="5701.0" y2="5701.0" /><line stroke="#333" stroke-width="10" x1="4805.0" x2="4933.0" y1="5317.0" y2="5317.0" /><line stroke="#333" stroke-width="10" x1="4805.0" x2="4805.0" y1="5381.0" y2="5317.0" /><line stroke="#333" stroke-width="10" x1="4933.0" x2="4805.0" y1="5381.0" y2="5381.0" /><line stroke="#333" stroke-width="10" x1="4933.0" x2="4933.0" y1="5317.0" y2="5381.0" /><line stroke="#333" stroke-width="10" x1="5317.0" x2="5317.0" y1="5445.0" y2="5509.0" /><line stroke="#333" stroke-width="10" x1="5253.0" x2="5317.0" y1="5445.0" y2="5445.0" /><line stroke="#333" stroke-width="10" x1="5253.0" x2="5253.0" y1="5509.0" y2="5445.0" /><line stroke="#333" stroke-width="10" x1="5317.0" x2="5253.0" y1="5509.0" y2="5509.0" /><line stroke="#999" stroke-width="3" x1="5573.0" x2="5573.0" y1="5509.0" y2="5637.0" /><line stroke="#999" stroke-width="3" x1="5445.0" x2="5573.0" y1="5509.0" y2="5509.0" /><line stroke="#999" stroke-width="3" x1="5445.0" x2="5445.0" y1="5637.0" y2="5509.0" /><line stroke="#999" stroke-width="3" x1="5573.0" x2="5445.0" y1="5637.0" y2="5637.0" /><line stroke="#333" stroke-width="10" x1="5573.0" x2="5573.0" y1="5861.0" y2="6117.0" /><line stroke="#333" stroke-width="10" x1="5445.0" x2="5573.0" y1="5861.0" y2="5861.0" /><line stroke="#333" stroke-width="10" x1="5445.0" x2="5445.0" y1="6117.0" y2="5861.0" /><line stroke="#333" stroke-width="10" x1="5573.0" x2="5445.0" y1="6117.0" y2="6117.0" /><line stroke="#999" stroke-width="3" x1="5701.0" x2="5125.0" y1="7173.0" y2="7173.0" /><line stroke="#999" stroke-width="3" x1="5701.0" x2="5701.0" y1="5253.0" y2="7157.0" /><line stroke="#999" stroke-width="3" x1="4421.0" x2="4421.0" y1="7173.0" y2="7165.0" /><line stroke="#999" stroke-width="3" x1="4421.0" x2="4933.0" y1="5253.0" y2="5029.0" /><line stroke="#999" stroke-width="3" x1="5125.0" x2="5701.0" y1="5029.0" y2="5253.0" /><line stroke="#999" stroke-width="3" x1="4453.0" x2="4453.0" y1="3493.0" y2="3173.0" /><line stroke="#999" stroke-width="3" x1="4453.0" x2="4901.0" y1="3173.0" y2="2277.0" /><line stroke="#999" stroke-width="3" x1="4901.0" x2="5157.0" y1="2277.0" y2="2277.0" /><line stroke="#999" stroke-width="3" x1="5157.0" x2="5605.0" y1="2277.0" y2="3173.0" /><line stroke="#999" stroke-width="3" x1="5605.0" x2="5605.0" y1="3173.0" y2="3493.0" /><line stroke="#333" stroke-width="10" x1="5509.0" x2="5509.0" y1="4437.0" y2="4461.0" /><line stroke="#999" stroke-width="3" x1="5509.0" x2="5477.0" y1="4661.0" y2="4733.0" /><line stroke="#999" stroke-width="3" x1="4549.0" x2="4581.0" y1="4437.0" y2="4365.0" /><line stroke="#333" stroke-width="10" x1="4549.0" x2="4549.0" y1="4661.0" y2="4637.0" /><line stroke="#333" stroke-width="10" x1="4613.0" x2="4549.0" y1="4629.0" y2="4661.0" /><line stroke="#333" stroke-width="10" x1="4549.0" x2="4613.0" y1="4437.0" y2="4469.0" /><line stroke="#333" stroke-width="10" x1="5445.0" x2="5509.0" y1="4469.0" y2="4437.0" /><line stroke="#333" stroke-width="10" x1="5509.0" x2="5445.0" y1="4661.0" y2="4629.0" /><line stroke="#999" stroke-width="3" x1="4613.0" x2="4677.0" y1="4293.0" y2="4325.0" /><line stroke="#999" stroke-width="3" x1="4741.0" x2="4797.0" y1="4165.0" y2="4205.0" /><line stroke="#999" stroke-width="3" x1="5261.0" x2="5317.0" y1="4205.0" y2="4165.0" /><line stroke="#999" stroke-width="3" x1="5381.0" x2="5445.0" y1="4325.0" y2="4293.0" /><line stroke="#999" stroke-width="3" x1="5381.0" x2="5445.0" y1="4773.0" y2="4805.0" /><line stroke="#999" stroke-width="3" x1="5253.0" x2="5317.0" y1="4901.0" y2="4933.0" /><line stroke="#333" stroke-width="10" x1="5189.0" x2="5189.0" y1="4933.0" y2="4997.0" /><line stroke="#333" stroke-width="10" x1="4869.0" x2="4869.0" y1="4997.0" y2="4933.0" /><line stroke="#999" stroke-width="3" x1="4741.0" x2="4805.0" y1="4933.0" y2="4901.0" /><line stroke="#999" stroke-width="3" x1="4613.0" x2="4677.0" y1="4805.0" y2="4773.0" /><line stroke="#333" stroke-width="10" x1="4933.0" x2="4933.0" y1="4149.0" y2="4061.0" /><line stroke="#333" stroke-width="10" x1="5125.0" x2="5125.0" y1="4061.0" y2="4149.0" /><line stroke="#999" stroke-width="3" x1="5477.0" x2="5509.0" y1="4365.0" y2="4437.0" /><line stroke="#999" stroke-width="3" x1="5413.0" x2="5381.0" y1="4397.0" y2="4325.0" /><line stroke="#999" stroke-width="3" x1="5413.0" x2="5445.0" y1="4701.0" y2="4629.0" /><line stroke="#999" stroke-width="3" x1="5477.0" x2="5445.0" y1="4733.0" y2="4805.0" /><line stroke="#999" stroke-width="3" x1="5381.0" x2="5317.0" y1="4869.0" y2="4933.0" /><line stroke="#999" stroke-width="3" x1="5317.0" x2="5381.0" y1="4837.0" y2="4773.0" /><line stroke="#999" stroke-width="3" x1="4741.0" x2="4805.0" y1="4837.0" y2="4901.0" /><line stroke="#999" stroke-width="3" x1="4677.0" x2="4613.0" y1="4869.0" y2="4805.0" /><line stroke="#999" stroke-width="3" x1="4581.0" x2="4549.0" y1="4733.0" y2="4661.0" /><line stroke="#999" stroke-width="3" x1="4645.0" x2="4677.0" y1="4701.0" y2="4773.0" /><line stroke="#999" stroke-width="3" x1="4581.0" x2="4613.0" y1="4365.0" y2="4293.0" /><line stroke="#999" stroke-width="3" x1="4645.0" x2="4613.0" y1="4397.0" y2="4469.0" /><line stroke="#999" stroke-width="3" x1="5381.0" x2="5445.0" y1="4229.0" y2="4293.0" /><line stroke="#999" stroke-width="3" x1="5317.0" x2="5261.0" y1="4261.0" y2="4205.0" /><line stroke="#999" stroke-width="3" x1="4677.0" x2="4741.0" y1="4229.0" y2="4165.0" /><line stroke="#999" stroke-width="3" x1="4677.0" x2="4741.0" y1="4325.0" y2="4261.0" /><line stroke="#999" stroke-width="3" x1="4677.0" x2="4741.0" y1="4229.0" y2="4261.0" /><line stroke="#999" stroke-width="3" x1="4581.0" x2="4645.0" y1="4365.0" y2="4397.0" /><line stroke="#999" stroke-width="3" x1="4581.0" x2="4645.0" y1="4733.0" y2="4701.0" /><line stroke="#999" stroke-width="3" x1="4677.0" x2="4741.0" y1="4869.0" y2="4837.0" /><line stroke="#999" stroke-width="3" x1="5317.0" x2="5381.0" y1="4837.0" y2="4869.0" /><line stroke="#999" stroke-width="3" x1="5413.0" x2="5477.0" y1="4701.0" y2="4733.0" /><line stroke="#999" stroke-width="3" x1="5413.0" x2="5477.0" y1="4397.0" y2="4365.0" /><line stroke="#999" stroke-width="3" x1="5317.0" x2="5381.0" y1="4261.0" y2="4229.0" /><line stroke="#999" stroke-width="3" x1="4949.0" x2="4453.0" y1="4053.0" y2="3493.0" /><line stroke="#999" stroke-width="3" x1="5605.0" x2="5109.0" y1="3493.0" y2="4053.0" /><line stroke="#999" stroke-width="3" x1="4853.0" x2="4797.0" y1="4173.0" y2="4205.0" /><line stroke="#999" stroke-width="3" x1="4845.0" x2="4933.0" y1="4101.0" y2="4061.0" /><line stroke="#999" stroke-width="3" x1="4845.0" x2="4853.0" y1="4101.0" y2="4173.0" /><line stroke="#999" stroke-width="3" x1="5205.0" x2="5125.0" y1="4173.0" y2="4149.0" /><line stroke="#999" stroke-width="3" x1="5213.0" x2="5317.0" y1="4101.0" y2="4165.0" /><line stroke="#999" stroke-width="3" x1="5213.0" x2="5205.0" y1="4101.0" y2="4173.0" /><line stroke="#333" stroke-width="10" x1="5125.0" x2="5061.0" y1="6405.0" y2="6501.0" /><line stroke="#333" stroke-width="10" x1="5061.0" x2="4933.0" y1="6501.0" y2="6565.0" /><line stroke="#333" stroke-width="10" x1="4933.0" x2="4805.0" y1="6565.0" y2="6501.0" /><line stroke="#333" stroke-width="10" x1="4805.0" x2="4741.0" y1="6501.0" y2="6405.0" /><line stroke="#333" stroke-width="10" x1="4741.0" x2="4805.0" y1="6405.0" y2="6309.0" /><line stroke="#333" stroke-width="10" x1="4805.0" x2="4933.0" y1="6309.0" y2="6245.0" /><line stroke="#333" stroke-width="10" x1="4933.0" x2="5061.0" y1="6245.0" y2="6309.0" /><line stroke="#333" stroke-width="10" x1="5061.0" x2="5125.0" y1="6309.0" y2="6405.0" /><line stroke="#999" stroke-width="3" x1="5125.0" x2="5061.0" y1="7173.0" y2="7173.0" /><line stroke="#999" stroke-width="3" x1="5061.0" x2="4421.0" y1="7173.0" y2="7173.0" /><line stroke="#999" stroke-width="3" x1="9989.0" x2="9989.0" y1="8709.0" y2="4741.0" /><line stroke="#999" stroke-width="3" x1="69.0" x2="69.0" y1="8709.0" y2="10117.0" /><line stroke="#999" stroke-width="3" x1="9989.0" x2="5701.0" y1="8709.0" y2="5253.0" /><line stroke="#999" stroke-width="3" x1="4421.0" x2="69.0" y1="5253.0" y2="8709.0" /><line stroke="#999" stroke-width="3" x1="4421.0" x2="4421.0" y1="7157.0" y2="5253.0" /><line stroke="#999" stroke-width="3" x1="5701.0" x2="5701.0" y1="7157.0" y2="7165.0" /><line stroke="#999" stroke-width="3" x1="4421.0" x2="5701.0" y1="7157.0" y2="7157.0" /><line stroke="#999" stroke-width="3" x1="4421.0" x2="4421.0" y1="7165.0" y2="7157.0" /><line stroke="#999" stroke-width="3" x1="5701.0" x2="5701.0" y1="7165.0" y2="7173.0" /><line stroke="#999" stroke-width="3" x1="5701.0" x2="4421.0" y1="7165.0" y2="7165.0" /><line stroke="#333" stroke-width="10" x1="4581.0" x2="4613.0" y1="4613.0" y2="4613.0" /><line stroke="#333" stroke-width="10" x1="4581.0" x2="4549.0" y1="4485.0" y2="4485.0" /><line stroke="#666" stroke-width="20" x1="4581.0" x2="4581.0" y1="4485.0" y2="4613.0" /><line stroke="#333" stroke-width="10" x1="5477.0" x2="5509.0" y1="4613.0" y2="4613.0" /><line stroke="#333" stroke-width="10" x1="5477.0" x2="5445.0" y1="4485.0" y2="4485.0" /><line stroke="#666" stroke-width="20" x1="5477.0" x2="5477.0" y1="4613.0" y2="4485.0" /><line stroke="#333" stroke-width="10" x1="4957.0" x2="4957.0" y1="4133.0" y2="4149.0" /><line stroke="#333" stroke-width="10" x1="5101.0" x2="5101.0" y1="4133.0" y2="4117.0" /><line stroke="#999" stroke-width="3" x1="5101.0" x2="4957.0" y1="4133.0" y2="4133.0" /><line stroke="#333" stroke-width="10" x1="4957.0" x2="4957.0" y1="4117.0" y2="4133.0" /><line stroke="#333" stroke-width="10" x1="5101.0" x2="5109.0" y1="4117.0" y2="4093.0" /><line stroke="#666" stroke-width="20" x1="4957.0" x2="5101.0" y1="4117.0" y2="4117.0" /><line stroke="#333" stroke-width="10" x1="4949.0" x2="4949.0" y1="4077.0" y2="4093.0" /><line stroke="#333" stroke-width="10" x1="5109.0" x2="5109.0" y1="4077.0" y2="4061.0" /><line stroke="#999" stroke-width="3" x1="4949.0" x2="5109.0" y1="4077.0" y2="4077.0" /><line stroke="#333" stroke-width="10" x1="4949.0" x2="4949.0" y1="4061.0" y2="4077.0" /><line stroke="#333" stroke-width="10" x1="5109.0" x2="5109.0" y1="4061.0" y2="4053.0" /><line stroke="#999" stroke-width="3" x1="4949.0" x2="5109.0" y1="4061.0" y2="4061.0" /><line stroke="#333" stroke-width="10" x1="4949.0" x2="4957.0" y1="4093.0" y2="4117.0" /><line stroke="#333" stroke-width="10" x1="5109.0" x2="5109.0" y1="4093.0" y2="4077.0" /><line stroke="#999" stroke-width="3" x1="4949.0" x2="5109.0" y1="4093.0" y2="4093.0" /><ellipse cx="5029.0" cy="2437.0" fill="#009" rx="12" ry="24" stroke="#009" stroke-width="5" /><circle cx="4821.0" cy="4149.0" fill="#009" r="16" stroke="#009" stroke-width="5" /><circle cx="5237.0" cy="4149.0" fill="#009" r="16" stroke="#009" stroke-width="5" /><circle cx="5381.0" cy="4277.0" fill="#009" r="16" stroke="#009" stroke-width="5" /><circle cx="4677.0" cy="4277.0" fill="#009" r="16" stroke="#009" stroke-width="5" /><rect fill="#900" height="48" stroke="#900" stroke-width="5" transform="rotate(90,5509.0,5573.0)" width="32" x="5493.0" y="5549.0" /><circle cx="5877.0" cy="5525.0" fill="#009" r="16" stroke="#009" stroke-width="5" /><circle cx="5093.0" cy="7461.0" fill="#009" r="16" stroke="#009" stroke-width="5" /><rect fill="#900" height="48" stroke="#900" stroke-width="5" transform="rotate(270,4885.0,4117.0)" width="32" x="4869.0" y="4093.0" /><rect fill="#900" height="48" stroke="#900" stroke-width="5" transform="rotate(270,5173.0,4117.0)" width="32" x="5157.0" y="4093.0" /><rect fill="#900" height="48" stroke="#900" stroke-width="5" transform="rotate(270,4741.0,4213.0)" width="32" x="4725.0" y="4189.0" /><rect fill="#900" height="48" stroke="#900" stroke-width="5" transform="rotate(270,5317.0,4213.0)" width="32" x="5301.0" y="4189.0" /><rect fill="#900" height="48" stroke="#900" stroke-width="5" transform="rotate(270,5429.0,4341.0)" width="32" x="5413.0" y="4317.0" /><rect fill="#900" height="48" stroke="#900" stroke-width="5" transform="rotate(270,4629.0,4341.0)" width="32" x="4613.0" y="4317.0" /><rect fill="#900" height="48" stroke="#900" stroke-width="5" transform="rotate(270,4677.0,4821.0)" width="32" x="4661.0" y="4797.0" /><rect fill="#900" height="48" stroke="#900" stroke-width="5" transform="rotate(270,5381.0,4821.0)" width="32" x="5365.0" y="4797.0" /><rect fill="#900" height="48" stroke="#900" stroke-width="5" transform="rotate(270,4789.0,4165.0)" width="32" x="4773.0" y="4141.0" /><rect fill="#900" height="48" stroke="#900" stroke-width="5" transform="rotate(270,5253.0,4165.0)" width="32" x="5237.0" y="4141.0" /><ellipse cx="5509.0" cy="5573.0" fill="#090" rx="12" ry="24" stroke="#090" stroke-width="5" /><ellipse cx="5469.0" cy="5613.0" fill="#090" rx="12" ry="24" stroke="#090" stroke-width="5" /><ellipse cx="5549.0" cy="5613.0" fill="#090" rx="12" ry="24" stroke="#090" stroke-width="5" /><ellipse cx="5469.0" cy="5533.0" fill="#090" rx="12" ry="24" stroke="#090" stroke-width="5" /><ellipse cx="5549.0" cy="5533.0" fill="#090" rx="12" ry="24" stroke="#090" stroke-width="5" /><ellipse cx="5469.0" cy="5573.0" fill="#090" rx="12" ry="24" stroke="#090" stroke-width="5" /><ellipse cx="5509.0" cy="5613.0" fill="#090" rx="12" ry="24" stroke="#090" stroke-width="5" /><ellipse cx="5549.0" cy="5573.0" fill="#090" rx="12" ry="24" stroke="#090" stroke-width="5" /><ellipse cx="5509.0" cy="5533.0" fill="#090" rx="12" ry="24" stroke="#090" stroke-width="5" /><rect fill="#900" height="48" stroke="#900" stroke-width="5" transform="rotate(0,2997.0,4549.0)" width="32" x="2981.0" y="4525.0" /><rect fill="#900" height="48" stroke="#900" stroke-width="5" transform="rotate(0,3077.0,4549.0)" width="32" x="3061.0" y="4525.0" /><rect fill="#900" height="48" stroke="#900" stroke-width="5" transform="rotate(0,3157.0,4549.0)" width="32" x="3141.0" y="4525.0" /><rect fill="#900" height="48" stroke="#900" stroke-width="5" transform="rotate(0,3237.0,4549.0)" width="32" x="3221.0" y="4525.0" /><rect fill="#900" height="48" stroke="#900" stroke-width="5" transform="rotate(0,3557.0,4549.0)" width="32" x="3541.0" y="4525.0" /><rect fill="#900" height="48" stroke="#900" stroke-width="5" transform="rotate(0,3477.0,4549.0)" width="32" x="3461.0" y="4525.0" /><rect fill="#900" height="48" stroke="#900" stroke-width="5" transform="rotate(0,3317.0,4549.0)" width="32" x="3301.0" y="4525.0" /><rect fill="#900" height="48" stroke="#900" stroke-width="5" transform="rotate(0,3877.0,4549.0)" width="32" x="3861.0" y="4525.0" /><rect fill="#900" height="48" stroke="#900" stroke-width="5" transform="rotate(0,3797.0,4549.0)" width="32" x="3781.0" y="4525.0" /><rect fill="#900" height="48" stroke="#900" stroke-width="5" transform="rotate(0,3717.0,4549.0)" width="32" x="3701.0" y="4525.0" /><rect fill="#900" height="48" stroke="#900" stroke-width="5" transform="rotate(0,4197.0,4549.0)" width="32" x="4181.0" y="4525.0" /><rect fill="#900" height="48" stroke="#900" stroke-width="5" transform="rotate(0,4037.0,4549.0)" width="32" x="4021.0" y="4525.0" /><rect fill="#900" height="48" stroke="#900" stroke-width="5" transform="rotate(0,3957.0,4549.0)" width="32" x="3941.0" y="4525.0" /><rect fill="#900" height="48" stroke="#900" stroke-width="5" transform="rotate(180,6885.0,4549.0)" width="32" x="6869.0" y="4525.0" /><rect fill="#900" height="48" stroke="#900" stroke-width="5" transform="rotate(180,6965.0,4549.0)" width="32" x="6949.0" y="4525.0" /><rect fill="#900" height="48" stroke="#900" stroke-width="5" transform="rotate(180,7045.0,4549.0)" width="32" x="7029.0" y="4525.0" /><rect fill="#900" height="48" stroke="#900" stroke-width="5" transform="rotate(180,6565.0,4549.0)" width="32" x="6549.0" y="4525.0" /><rect fill="#900" height="48" stroke="#900" stroke-width="5" transform="rotate(180,6725.0,4549.0)" width="32" x="6709.0" y="4525.0" /><rect fill="#900" height="48" stroke="#900" stroke-width="5" transform="rotate(180,6805.0,4549.0)" width="32" x="6789.0" y="4525.0" /><rect fill="#900" height="48" stroke="#900" stroke-width="5" transform="rotate(180,6245.0,4549.0)" width="32" x="6229.0" y="4525.0" /><rect fill="#900" height="48" stroke="#900" stroke-width="5" transform="rotate(180,6325.0,4549.0)" width="32" x="6309.0" y="4525.0" /><rect fill="#900" height="48" stroke="#900" stroke-width="5" transform="rotate(180,6485.0,4549.0)" width="32" x="6469.0" y="4525.0" /><rect fill="#900" height="48" stroke="#900" stroke-width="5" transform="rotate(180,6005.0,4549.0)" width="32" x="5989.0" y="4525.0" /><rect fill="#900" height="48" stroke="#900" stroke-width="5" transform="rotate(180,6085.0,4549.0)" width="32" x="6069.0" y="4525.0" /><rect fill="#900" height="48" stroke="#900" stroke-width="5" transform="rotate(180,6165.0,4549.0)" width="32" x="6149.0" y="4525.0" /><rect fill="#900" height="48" stroke="#900" stroke-width="5" transform="rotate(180,5845.0,4549.0)" width="32" x="5829.0" y="4525.0" /><circle cx="5061.0" cy="2501.0" fill="#900" r="16" stroke="#900" stroke-width="5" /><circle cx="4997.0" cy="2501.0" fill="#900" r="16" stroke="#900" stroke-width="5" /><circle cx="5029.0" cy="2533.0" fill="#090" r="16" stroke="#090" stroke-width="5" /><circle cx="5029.0" cy="2629.0" fill="#090" r="16" stroke="#090" stroke-width="5" /><circle cx="5029.0" cy="2581.0" fill="#090" r="16" stroke="#090" stroke-width="5" /><circle cx="5029.0" cy="2677.0" fill="#090" r="16" stroke="#090" stroke-width="5" /><circle cx="5029.0" cy="2725.0" fill="#090" r="16" stroke="#090" stroke-width="5" /><circle cx="5029.0" cy="2773.0" fill="#090" r="16" stroke="#090" stroke-width="5" /><circle cx="4997.0" cy="2549.0" fill="#090" r="16" stroke="#090" stroke-width="5" /><circle cx="5061.0" cy="2549.0" fill="#090" r="16" stroke="#090" stroke-width="5" /><circle cx="5061.0" cy="2597.0" fill="#090" r="16" stroke="#090" stroke-width="5" /><circle cx="5061.0" cy="2645.0" fill="#090" r="16" stroke="#090" stroke-width="5" /><circle cx="4997.0" cy="2597.0" fill="#090" r="16" stroke="#090" stroke-width="5" /><circle cx="4997.0" cy="2645.0" fill="#090" r="16" stroke="#090" stroke-width="5" /><ellipse cx="4997.0" cy="2389.0" fill="#009" rx="12" ry="24" stroke="#009" stroke-width="5" /><ellipse cx="5061.0" cy="2389.0" fill="#009" rx="12" ry="24" stroke="#009" stroke-width="5" /><ellipse cx="5029.0" cy="2341.0" fill="#009" rx="12" ry="24" stroke="#009" stroke-width="5" /><rect fill="#090" height="24" stroke="#090" stroke-width="5" transform="rotate(90,4965.0,2341.0)" width="24" x="4953.0" y="2329.0" /><rect fill="#090" height="24" stroke="#090" stroke-width="5" transform="rotate(90,5093.0,2341.0)" width="24" x="5081.0" y="2329.0" /><circle cx="4933.0" cy="2437.0" fill="#090" r="16" stroke="#090" stroke-width="5" /><circle cx="4885.0" cy="2501.0" fill="#090" r="16" stroke="#090" stroke-width="5" /><circle cx="5125.0" cy="2437.0" fill="#090" r="16" stroke="#090" stroke-width="5" /><circle cx="5173.0" cy="2501.0" fill="#090" r="16" stroke="#090" stroke-width="5" /><circle cx="4917.0" cy="3205.0" fill="#009" r="16" stroke="#009" stroke-width="5" /><circle cx="4917.0" cy="3269.0" fill="#009" r="16" stroke="#009" stroke-width="5" /><circle cx="4917.0" cy="3333.0" fill="#009" r="16" stroke="#009" stroke-width="5" /><circle cx="4917.0" cy="3397.0" fill="#009" r="16" stroke="#009" stroke-width="5" /><circle cx="5141.0" cy="3397.0" fill="#009" r="16" stroke="#009" stroke-width="5" /><circle cx="5141.0" cy="3333.0" fill="#009" r="16" stroke="#009" stroke-width="5" /><circle cx="5141.0" cy="3269.0" fill="#009" r="16" stroke="#009" stroke-width="5" /><circle cx="5141.0" cy="3205.0" fill="#009" r="16" stroke="#009" stroke-width="5" /><circle cx="5029.0" cy="2853.0" fill="#900" r="16" stroke="#900" stroke-width="5" /><circle cx="4629.0" cy="4357.0" fill="#009" r="16" stroke="#009" stroke-width="5" /><circle cx="5429.0" cy="4357.0" fill="#009" r="16" stroke="#009" stroke-width="5" /><circle cx="5029.0" cy="2469.0" fill="#009" r="16" stroke="#009" stroke-width="5" /><circle cx="4997.0" cy="2421.0" fill="#009" r="16" stroke="#009" stroke-width="5" /><circle cx="5061.0" cy="2421.0" fill="#009" r="16" stroke="#009" stroke-width="5" /><circle cx="5029.0" cy="2373.0" fill="#009" r="16" stroke="#009" stroke-width="5" /><circle cx="5109.0" cy="3157.0" fill="#009" r="16" stroke="#009" stroke-width="5" /><circle cx="5109.0" cy="3461.0" fill="#009" r="16" stroke="#009" stroke-width="5" /><circle cx="4949.0" cy="3461.0" fill="#009" r="16" stroke="#009" stroke-width="5" /><circle cx="4949.0" cy="3157.0" fill="#009" r="16" stroke="#009" stroke-width="5" /><circle cx="4741.0" cy="4885.0" fill="#009" r="16" stroke="#009" stroke-width="5" /><circle cx="5317.0" cy="4885.0" fill="#009" r="16" stroke="#009" stroke-width="5" /><circle cx="4997.0" cy="2693.0" fill="#090" r="16" stroke="#090" stroke-width="5" /><circle cx="5061.0" cy="2693.0" fill="#090" r="16" stroke="#090" stroke-width="5" /><circle cx="4981.0" cy="3333.0" fill="#090" r="16" stroke="#090" stroke-width="5" /><circle cx="4981.0" cy="3269.0" fill="#090" r="16" stroke="#090" stroke-width="5" /><circle cx="5029.0" cy="3237.0" fill="#090" r="16" stroke="#090" stroke-width="5" /><circle cx="5029.0" cy="3365.0" fill="#090" r="16" stroke="#090" stroke-width="5" /><circle cx="5077.0" cy="3333.0" fill="#090" r="16" stroke="#090" stroke-width="5" /><circle cx="5077.0" cy="3269.0" fill="#090" r="16" stroke="#090" stroke-width="5" /><circle cx="5029.0" cy="3301.0" fill="#090" r="16" stroke="#090" stroke-width="5" /><rect fill="#900" height="48" stroke="#900" stroke-width="5" transform="rotate(270,5029.0,4613.0)" width="32" x="5013.0" y="4589.0" /><rect fill="#900" height="48" stroke="#900" stroke-width="5" transform="rotate(270,5029.0,4677.0)" width="32" x="5013.0" y="4653.0" /><rect fill="#900" height="48" stroke="#900" stroke-width="5" transform="rotate(0,4117.0,4549.0)" width="32" x="4101.0" y="4525.0" /><rect fill="#900" height="48" stroke="#900" stroke-width="5" transform="rotate(0,4277.0,4549.0)" width="32" x="4261.0" y="4525.0" /><rect fill="#900" height="48" stroke="#900" stroke-width="5" transform="rotate(0,3637.0,4549.0)" width="32" x="3621.0" y="4525.0" /><rect fill="#900" height="48" stroke="#900" stroke-width="5" transform="rotate(180,5925.0,4549.0)" width="32" x="5909.0" y="4525.0" /><rect fill="#900" height="48" stroke="#900" stroke-width="5" transform="rotate(180,6405.0,4549.0)" width="32" x="6389.0" y="4525.0" /><rect fill="#900" height="48" stroke="#900" stroke-width="5" transform="rotate(180,5765.0,4549.0)" width="32" x="5749.0" y="4525.0" /><circle cx="5029.0" cy="3125.0" fill="#090" r="16" stroke="#090" stroke-width="5" /><circle cx="5029.0" cy="3493.0" fill="#090" r="16" stroke="#090" stroke-width="5" /><circle cx="5029.0" cy="3429.0" fill="#090" r="16" stroke="#090" stroke-width="5" /><circle cx="5029.0" cy="3189.0" fill="#090" r="16" stroke="#090" stroke-width="5" /><circle cx="4533.0" cy="3221.0" fill="#090" r="16" stroke="#090" stroke-width="5" /><circle cx="4533.0" cy="3445.0" fill="#090" r="16" stroke="#090" stroke-width="5" /><circle cx="5541.0" cy="3445.0" fill="#090" r="16" stroke="#090" stroke-width="5" /><circle cx="5541.0" cy="3221.0" fill="#090" r="16" stroke="#090" stroke-width="5" /><circle cx="4533.0" cy="3333.0" fill="#090" r="16" stroke="#090" stroke-width="5" /><circle cx="5541.0" cy="3333.0" fill="#090" r="16" stroke="#090" stroke-width="5" /><rect fill="#900" height="48" stroke="#900" stroke-width="5" transform="rotate(270,5029.0,4741.0)" width="32" x="5013.0" y="4717.0" /><rect fill="#900" height="48" stroke="#900" stroke-width="5" transform="rotate(270,5029.0,4197.0)" width="32" x="5013.0" y="4173.0" /><rect fill="#090" height="24" stroke="#090" stroke-width="5" transform="rotate(90,4933.0,4485.0)" width="24" x="4921.0" y="4473.0" /><rect fill="#090" height="24" stroke="#090" stroke-width="5" transform="rotate(90,4933.0,4613.0)" width="24" x="4921.0" y="4601.0" /><rect fill="#090" height="24" stroke="#090" stroke-width="5" transform="rotate(90,5125.0,4485.0)" width="24" x="5113.0" y="4473.0" /><rect fill="#090" height="24" stroke="#090" stroke-width="5" transform="rotate(90,5125.0,4613.0)" width="24" x="5113.0" y="4601.0" /><rect fill="#090" height="24" stroke="#090" stroke-width="5" transform="rotate(90,4933.0,4933.0)" width="24" x="4921.0" y="4921.0" /><rect fill="#090" height="24" stroke="#090" stroke-width="5" transform="rotate(90,5125.0,4933.0)" width="24" x="5113.0" y="4921.0" /><rect fill="#090" height="24" stroke="#090" stroke-width="5" transform="rotate(90,5125.0,4181.0)" width="24" x="5113.0" y="4169.0" /><rect fill="#090" height="24" stroke="#090" stroke-width="5" transform="rotate(90,4933.0,4181.0)" width="24" x="4921.0" y="4169.0" /><rect fill="#090" height="24" stroke="#090" stroke-width="5" transform="rotate(90,4645.0,4469.0)" width="24" x="4633.0" y="4457.0" /><rect fill="#090" height="24" stroke="#090" stroke-width="5" transform="rotate(90,4645.0,4629.0)" width="24" x="4633.0" y="4617.0" /><rect fill="#090" height="24" stroke="#090" stroke-width="5" transform="rotate(90,5413.0,4469.0)" width="24" x="5401.0" y="4457.0" /><rect fill="#090" height="24" stroke="#090" stroke-width="5" transform="rotate(90,5413.0,4629.0)" width="24" x="5401.0" y="4617.0" /><rect fill="#090" height="24" stroke="#090" stroke-width="5" transform="rotate(0,4597.0,3333.0)" width="24" x="4585.0" y="3321.0" /><rect fill="#090" height="24" stroke="#090" stroke-width="5" transform="rotate(180,5477.0,3333.0)" width="24" x="5465.0" y="3321.0" /><circle cx="5029.0" cy="4453.0" fill="#900" r="16" stroke="#900" stroke-width="5" /><circle cx="3029.0" cy="4549.0" fill="#900" r="16" stroke="#900" stroke-width="5" /><circle cx="5893.0" cy="5797.0" fill="#009" r="16" stroke="#009" stroke-width="5" /><circle cx="4293.0" cy="5813.0" fill="#009" r="16" stroke="#009" stroke-width="5" /><circle cx="4213.0" cy="5813.0" fill="#009" r="16" stroke="#009" stroke-width="5" /><circle cx="5973.0" cy="5797.0" fill="#009" r="16" stroke="#009" stroke-width="5" /><circle cx="5029.0" cy="3557.0" fill="#090" r="16" stroke="#090" stroke-width="5" /><circle cx="5029.0" cy="3061.0" fill="#090" r="16" stroke="#090" stroke-width="5" /><rect fill="#090" height="24" stroke="#090" stroke-width="5" transform="rotate(90,4693.0,3333.0)" width="24" x="4681.0" y="3321.0" /><rect fill="#090" height="24" stroke="#090" stroke-width="5" transform="rotate(90,5397.0,3333.0)" width="24" x="5385.0" y="3321.0" /><rect fill="#090" height="24" stroke="#090" stroke-width="5" transform="rotate(90,5477.0,3109.0)" width="24" x="5465.0" y="3097.0" /><rect fill="#090" height="24" stroke="#090" stroke-width="5" transform="rotate(90,4613.0,3109.0)" width="24" x="4601.0" y="3097.0" /><rect fill="#090" height="24" stroke="#090" stroke-width="5" transform="rotate(90,4613.0,3557.0)" width="24" x="4601.0" y="3545.0" /><rect fill="#090" height="24" stroke="#090" stroke-width="5" transform="rotate(90,5477.0,3541.0)" width="24" x="5465.0" y="3529.0" /><rect fill="#090" height="24" stroke="#090" stroke-width="5" transform="rotate(90,4853.0,2565.0)" width="24" x="4841.0" y="2553.0" /><rect fill="#090" height="24" stroke="#090" stroke-width="5" transform="rotate(90,5221.0,2565.0)" width="24" x="5209.0" y="2553.0" /><rect fill="#900" height="48" stroke="#900" stroke-width="5" transform="rotate(90,4773.0,4309.0)" width="32" x="4757.0" y="4285.0" /><rect fill="#900" height="48" stroke="#900" stroke-width="5" transform="rotate(90,5269.0,4293.0)" width="32" x="5253.0" y="4269.0" /><circle cx="3109.0" cy="4549.0" fill="#009" r="16" stroke="#009" stroke-width="5" /><circle cx="7077.0" cy="4549.0" fill="#009" r="16" stroke="#009" stroke-width="5" /><circle cx="4597.0" cy="4549.0" fill="#009" r="16" stroke="#009" stroke-width="5" /><circle cx="5461.0" cy="4549.0" fill="#009" r="16" stroke="#009" stroke-width="5" /></svg>