<?xml version="1.0" encoding="utf-8" ?>
<svg baseProfile="tiny" height="689" version="1.2" viewBox="0 0 490 330" width="1024" xmlns="http://www.w3.org/2000/svg" xmlns:ev="http://www.w3.org/2001/xml-events" xmlns:xlink="http://www.w3.org/1999/xlink"><defs /><line stroke="#999" stroke-width="3" x1="5.0" x2="133.0" y1="149.0" y2="149.0" /><line stroke="#333" stroke-width="10" x1="485.0" x2="485.0" y1="325.0" y2="197.0" /><line stroke="#333" stroke-width="10" x1="5.0" x2="133.0" y1="325.0" y2="325.0" /><line stroke="#333" stroke-width="10" x1="5.0" x2="5.0" y1="5.0" y2="149.0" /><line stroke="#333" stroke-width="10" x1="133.0" x2="197.0" y1="325.0" y2="325.0" /><line stroke="#333" stroke-width="10" x1="5.0" x2="5.0" y1="197.0" y2="325.0" /><line stroke="#999" stroke-width="3" x1="133.0" x2="133.0" y1="197.0" y2="325.0" /><line stroke="#999" stroke-width="3" x1="5.0" x2="133.0" y1="197.0" y2="197.0" /><line stroke="#333" stroke-width="10" x1="261.0" x2="485.0" y1="325.0" y2="325.0" /><line stroke="#333" stroke-width="10" x1="197.0" x2="261.0" y1="325.0" y2="325.0" /><line stroke="#333" stroke-width="10" x1="5.0" x2="5.0" y1="149.0" y2="173.0" /><line stroke="#333" stroke-width="10" x1="5.0" x2="5.0" y1="173.0" y2="197.0" /><line stroke="#333" stroke-width="10" x1="133.0" x2="5.0" y1="5.0" y2="5.0" /><line stroke="#333" stroke-width="10" x1="485.0" x2="485.0" y1="197.0" y2="5.0" /><line stroke="#999" stroke-width="3" x1="197.0" x2="197.0" y1="197.0" y2="325.0" /><line stroke="#999" stroke-width="3" x1="261.0" x2="261.0" y1="197.0" y2="325.0" /><line stroke="#999" stroke-width="3" x1="5.0" x2="133.0" y1="173.0" y2="173.0" /><line stroke="#333" stroke-width="10" x1="485.0" x2="133.0" y1="5.0" y2="5.0" /><line stroke="#999" stroke-width="3" x1="133.0" x2="133.0" y1="173.0" y2="197.0" /><line stroke="#999" stroke-width="3" x1="133.0" x2="133.0" y1="149.0" y2="173.0" /><line stroke="#999" stroke-width="3" x1="133.0" x2="133.0" y1="5.0" y2="149.0" /><line stroke="#999" stroke-width="3" x1="261.0" x2="485.0" y1="197.0" y2="197.0" /><line stroke="#999" stroke-width="3" x1="197.0" x2="261.0" y1="197.0" y2="197.0" /><line stroke="#999" stroke-width="3" x1="133.0" x2="197.0" y1="197.0" y2="197.0" /><rect fill="#900" height="48" stroke="#900" stroke-width="5" transform="rotate(180,389.0,101.0)" width="32" x="373.0" y="77.0" /><circle cx="69.0" cy="229.0" fill="#009" r="16" stroke="#009" stroke-width="5" /><circle cx="37.0" cy="133.0" fill="#090" r="16" stroke="#090" stroke-width="5" /><circle cx="69.0" cy="133.0" fill="#090" r="16" stroke="#090" stroke-width="5" /><circle cx="101.0" cy="133.0" fill="#090" r="16" stroke="#090" stroke-width="5" /><circle cx="101.0" cy="101.0" fill="#090" r="16" stroke="#090" stroke-width="5" /><circle cx="69.0" cy="101.0" fill="#090" r="16" stroke="#090" stroke-width="5" /><circle cx="37.0" cy="101.0" fill="#090" r="16" stroke="#090" stroke-width="5" /><circle cx="421.0" cy="261.0" fill="#900" r="16" stroke="#900" stroke-width="5" /><circle cx="357.0" cy="261.0" fill="#900" r="16" stroke="#900" stroke-width="5" /><circle cx="261.0" cy="165.0" fill="#090" r="16" stroke="#090" stroke-width="5" /><circle cx="261.0" cy="133.0" fill="#090" r="16" stroke="#090" stroke-width="5" /><circle cx="261.0" cy="101.0" fill="#090" r="16" stroke="#090" stroke-width="5" /><circle cx="293.0" cy="165.0" fill="#090" r="16" stroke="#090" stroke-width="5" /><circle cx="293.0" cy="133.0" fill="#090" r="16" stroke="#090" stroke-width="5" /><circle cx="293.0" cy="101.0" fill="#090" r="16" stroke="#090" stroke-width="5" /><circle cx="325.0" cy="165.0" fill="#090" r="16" stroke="#090" stroke-width="5" /><circle cx="325.0" cy="133.0" fill="#090" r="16" stroke="#090" stroke-width="5" /><circle cx="325.0" cy="101.0" fill="#090" r="16" stroke="#090" stroke-width="5" /><circle cx="69.0" cy="293.0" fill="#009" r="16" stroke="#009" stroke-width="5" /><circle cx="69.0" cy="261.0" fill="#009" r="16" stroke="#009" stroke-width="5" /><ellipse cx="37.0" cy="261.0" fill="#009" rx="12" ry="24" stroke="#009" stroke-width="5" /></svg>