<?xml version="1.0" encoding="utf-8" ?>
<svg baseProfile="tiny" height="1019" version="1.2" viewBox="0 0 3698 3682" width="1024" xmlns="http://www.w3.org/2000/svg" xmlns:ev="http://www.w3.org/2001/xml-events" xmlns:xlink="http://www.w3.org/1999/xlink"><defs /><line stroke="#0d0" stroke-width="20" x1="5.0" x2="757.0" y1="3661.0" y2="3661.0" /><line stroke="#333" stroke-width="10" x1="2005.0" x2="1949.0" y1="3661.0" y2="1189.0" /><line stroke="#333" stroke-width="10" x1="2005.0" x2="5.0" y1="5.0" y2="5.0" /><line stroke="#333" stroke-width="10" x1="5.0" x2="5.0" y1="5.0" y2="1389.0" /><line stroke="#999" stroke-width="3" x1="549.0" x2="1549.0" y1="925.0" y2="925.0" /><line stroke="#999" stroke-width="3" x1="1549.0" x2="1949.0" y1="925.0" y2="1189.0" /><line stroke="#999" stroke-width="3" x1="1949.0" x2="949.0" y1="1189.0" y2="1189.0" /><line stroke="#999" stroke-width="3" x1="949.0" x2="549.0" y1="1189.0" y2="925.0" /><line stroke="#333" stroke-width="10" x1="1949.0" x2="2005.0" y1="1189.0" y2="5.0" /><line stroke="#999" stroke-width="3" x1="5.0" x2="981.0" y1="1389.0" y2="1389.0" /><line stroke="#999" stroke-width="3" x1="437.0" x2="5.0" y1="1693.0" y2="1389.0" /><line stroke="#999" stroke-width="3" x1="1437.0" x2="437.0" y1="1693.0" y2="1693.0" /><line stroke="#999" stroke-width="3" x1="981.0" x2="1437.0" y1="1389.0" y2="1693.0" /><line stroke="#333" stroke-width="10" x1="5.0" x2="5.0" y1="1389.0" y2="3661.0" /><line stroke="#0d0" stroke-width="20" x1="1053.0" x2="2005.0" y1="3661.0" y2="3661.0" /><line stroke="#0d0" stroke-width="20" x1="757.0" x2="1053.0" y1="3661.0" y2="3661.0" /><line stroke="#999" stroke-width="3" x1="1013.0" x2="1469.0" y1="2517.0" y2="2821.0" /><line stroke="#999" stroke-width="3" x1="1469.0" x2="469.0" y1="2821.0" y2="2821.0" /><line stroke="#999" stroke-width="3" x1="469.0" x2="37.0" y1="2821.0" y2="2517.0" /><line stroke="#999" stroke-width="3" x1="37.0" x2="1013.0" y1="2517.0" y2="2517.0" /><line stroke="#999" stroke-width="3" x1="981.0" x2="581.0" y1="2317.0" y2="2053.0" /><line stroke="#999" stroke-width="3" x1="1981.0" x2="981.0" y1="2317.0" y2="2317.0" /><line stroke="#999" stroke-width="3" x1="1581.0" x2="1981.0" y1="2053.0" y2="2317.0" /><line stroke="#999" stroke-width="3" x1="581.0" x2="1581.0" y1="2053.0" y2="2053.0" /><line stroke="#999" stroke-width="3" x1="1549.0" x2="2005.0" y1="3053.0" y2="3357.0" /><line stroke="#999" stroke-width="3" x1="2005.0" x2="1005.0" y1="3357.0" y2="3357.0" /><line stroke="#999" stroke-width="3" x1="1005.0" x2="573.0" y1="3357.0" y2="3053.0" /><line stroke="#999" stroke-width="3" x1="573.0" x2="1549.0" y1="3053.0" y2="3053.0" /><ellipse cx="941.0" cy="93.0" fill="#009" rx="12" ry="24" stroke="#009" stroke-width="5" /><rect fill="#900" height="48" stroke="#900" stroke-width="5" transform="rotate(270,389.0,1189.0)" width="32" x="373.0" y="1165.0" /><rect fill="#900" height="48" stroke="#900" stroke-width="5" transform="rotate(270,1661.0,1293.0)" width="32" x="1645.0" y="1269.0" /><rect fill="#900" height="48" stroke="#900" stroke-width="5" transform="rotate(270,437.0,1837.0)" width="32" x="421.0" y="1813.0" /><rect fill="#900" height="48" stroke="#900" stroke-width="5" transform="rotate(270,1429.0,1837.0)" width="32" x="1413.0" y="1813.0" /><rect fill="#900" height="48" stroke="#900" stroke-width="5" transform="rotate(270,949.0,1933.0)" width="32" x="933.0" y="1909.0" /><rect fill="#900" height="48" stroke="#900" stroke-width="5" transform="rotate(270,1853.0,1997.0)" width="32" x="1837.0" y="1973.0" /><rect fill="#900" height="48" stroke="#900" stroke-width="5" transform="rotate(270,1317.0,1429.0)" width="32" x="1301.0" y="1405.0" /><rect fill="#900" height="48" stroke="#900" stroke-width="5" transform="rotate(270,1893.0,885.0)" width="32" x="1877.0" y="861.0" /><rect fill="#900" height="48" stroke="#900" stroke-width="5" transform="rotate(270,1541.0,621.0)" width="32" x="1525.0" y="597.0" /><rect fill="#900" height="48" stroke="#900" stroke-width="5" transform="rotate(270,813.0,669.0)" width="32" x="797.0" y="645.0" /><rect fill="#900" height="48" stroke="#900" stroke-width="5" transform="rotate(270,365.0,765.0)" width="32" x="349.0" y="741.0" /><rect fill="#900" height="48" stroke="#900" stroke-width="5" transform="rotate(270,973.0,2453.0)" width="32" x="957.0" y="2429.0" /><rect fill="#900" height="48" stroke="#900" stroke-width="5" transform="rotate(270,1869.0,1605.0)" width="32" x="1853.0" y="1581.0" /><rect fill="#900" height="48" stroke="#900" stroke-width="5" transform="rotate(270,1661.0,1821.0)" width="32" x="1645.0" y="1797.0" /><rect fill="#900" height="48" stroke="#900" stroke-width="5" transform="rotate(270,893.0,1853.0)" width="32" x="877.0" y="1829.0" /><rect fill="#900" height="48" stroke="#900" stroke-width="5" transform="rotate(270,429.0,1877.0)" width="32" x="413.0" y="1853.0" /><rect fill="#900" height="48" stroke="#900" stroke-width="5" transform="rotate(270,1581.0,1989.0)" width="32" x="1565.0" y="1965.0" /><rect fill="#900" height="48" stroke="#900" stroke-width="5" transform="rotate(270,1685.0,1597.0)" width="32" x="1669.0" y="1573.0" /><rect fill="#900" height="48" stroke="#900" stroke-width="5" transform="rotate(270,1589.0,1589.0)" width="32" x="1573.0" y="1565.0" /><rect fill="#900" height="48" stroke="#900" stroke-width="5" transform="rotate(270,325.0,1165.0)" width="32" x="309.0" y="1141.0" /><rect fill="#900" height="48" stroke="#900" stroke-width="5" transform="rotate(270,421.0,1213.0)" width="32" x="405.0" y="1189.0" /><rect fill="#900" height="48" stroke="#900" stroke-width="5" transform="rotate(270,621.0,1253.0)" width="32" x="605.0" y="1229.0" /><rect fill="#900" height="48" stroke="#900" stroke-width="5" transform="rotate(270,381.0,1029.0)" width="32" x="365.0" y="1005.0" /><rect fill="#900" height="48" stroke="#900" stroke-width="5" transform="rotate(270,709.0,685.0)" width="32" x="693.0" y="661.0" /><rect fill="#900" height="48" stroke="#900" stroke-width="5" transform="rotate(270,797.0,701.0)" width="32" x="781.0" y="677.0" /><rect fill="#900" height="48" stroke="#900" stroke-width="5" transform="rotate(270,1757.0,781.0)" width="32" x="1741.0" y="757.0" /><rect fill="#900" height="48" stroke="#900" stroke-width="5" transform="rotate(270,1197.0,677.0)" width="32" x="1181.0" y="653.0" /><rect fill="#900" height="48" stroke="#900" stroke-width="5" transform="rotate(270,1053.0,765.0)" width="32" x="1037.0" y="741.0" /><rect fill="#900" height="48" stroke="#900" stroke-width="5" transform="rotate(270,1629.0,741.0)" width="32" x="1613.0" y="717.0" /><rect fill="#900" height="48" stroke="#900" stroke-width="5" transform="rotate(270,453.0,709.0)" width="32" x="437.0" y="685.0" /><rect fill="#900" height="48" stroke="#900" stroke-width="5" transform="rotate(270,829.0,797.0)" width="32" x="813.0" y="773.0" /><rect fill="#900" height="48" stroke="#900" stroke-width="5" transform="rotate(270,1077.0,821.0)" width="32" x="1061.0" y="797.0" /><rect fill="#900" height="48" stroke="#900" stroke-width="5" transform="rotate(270,1285.0,821.0)" width="32" x="1269.0" y="797.0" /><circle cx="941.0" cy="357.0" fill="#900" r="16" stroke="#900" stroke-width="5" /><circle cx="925.0" cy="469.0" fill="#090" r="16" stroke="#090" stroke-width="5" /><circle cx="997.0" cy="469.0" fill="#090" r="16" stroke="#090" stroke-width="5" /><circle cx="1077.0" cy="469.0" fill="#090" r="16" stroke="#090" stroke-width="5" /><circle cx="709.0" cy="469.0" fill="#090" r="16" stroke="#090" stroke-width="5" /><circle cx="781.0" cy="469.0" fill="#090" r="16" stroke="#090" stroke-width="5" /><circle cx="861.0" cy="469.0" fill="#090" r="16" stroke="#090" stroke-width="5" /><circle cx="1133.0" cy="469.0" fill="#090" r="16" stroke="#090" stroke-width="5" /><circle cx="1205.0" cy="469.0" fill="#090" r="16" stroke="#090" stroke-width="5" /><circle cx="1285.0" cy="469.0" fill="#090" r="16" stroke="#090" stroke-width="5" /><circle cx="493.0" cy="477.0" fill="#090" r="16" stroke="#090" stroke-width="5" /><circle cx="565.0" cy="477.0" fill="#090" r="16" stroke="#090" stroke-width="5" /><circle cx="645.0" cy="477.0" fill="#090" r="16" stroke="#090" stroke-width="5" /><rect fill="#900" height="48" stroke="#900" stroke-width="5" transform="rotate(315,301.0,3381.0)" width="32" x="285.0" y="3357.0" /><rect fill="#900" height="48" stroke="#900" stroke-width="5" transform="rotate(45,181.0,2981.0)" width="32" x="165.0" y="2957.0" /><rect fill="#900" height="48" stroke="#900" stroke-width="5" transform="rotate(90,1741.0,2821.0)" width="32" x="1725.0" y="2797.0" /><rect fill="#900" height="48" stroke="#900" stroke-width="5" transform="rotate(90,1813.0,3005.0)" width="32" x="1797.0" y="2981.0" /></svg>