<?xml version="1.0" encoding="utf-8" ?>
<svg baseProfile="tiny" height="1024" version="1.2" viewBox="0 0 426 714" width="610" xmlns="http://www.w3.org/2000/svg" xmlns:ev="http://www.w3.org/2001/xml-events" xmlns:xlink="http://www.w3.org/1999/xlink"><defs /><line stroke="#999" stroke-width="3" x1="293.0" x2="293.0" y1="197.0" y2="69.0" /><line stroke="#999" stroke-width="3" x1="165.0" x2="293.0" y1="197.0" y2="197.0" /><line stroke="#999" stroke-width="3" x1="165.0" x2="165.0" y1="69.0" y2="197.0" /><line stroke="#999" stroke-width="3" x1="293.0" x2="165.0" y1="69.0" y2="69.0" /><line stroke="#999" stroke-width="3" x1="301.0" x2="157.0" y1="205.0" y2="205.0" /><line stroke="#999" stroke-width="3" x1="301.0" x2="301.0" y1="61.0" y2="205.0" /><line stroke="#999" stroke-width="3" x1="157.0" x2="301.0" y1="61.0" y2="61.0" /><line stroke="#999" stroke-width="3" x1="157.0" x2="157.0" y1="205.0" y2="61.0" /><line stroke="#333" stroke-width="10" x1="421.0" x2="5.0" y1="5.0" y2="5.0" /><line stroke="#333" stroke-width="10" x1="421.0" x2="421.0" y1="485.0" y2="5.0" /><line stroke="#333" stroke-width="10" x1="5.0" x2="117.0" y1="485.0" y2="485.0" /><line stroke="#333" stroke-width="10" x1="5.0" x2="5.0" y1="5.0" y2="485.0" /><line stroke="#333" stroke-width="10" x1="261.0" x2="277.0" y1="485.0" y2="485.0" /><line stroke="#999" stroke-width="3" x1="133.0" x2="261.0" y1="485.0" y2="485.0" /><line stroke="#333" stroke-width="10" x1="261.0" x2="261.0" y1="517.0" y2="485.0" /><line stroke="#999" stroke-width="3" x1="261.0" x2="133.0" y1="517.0" y2="517.0" /><line stroke="#333" stroke-width="10" x1="133.0" x2="133.0" y1="485.0" y2="517.0" /><line stroke="#999" stroke-width="3" x1="69.0" x2="133.0" y1="261.0" y2="261.0" /><line stroke="#999" stroke-width="3" x1="133.0" x2="133.0" y1="261.0" y2="325.0" /><line stroke="#999" stroke-width="3" x1="133.0" x2="69.0" y1="325.0" y2="325.0" /><line stroke="#999" stroke-width="3" x1="69.0" x2="69.0" y1="325.0" y2="261.0" /><line stroke="#333" stroke-width="10" x1="389.0" x2="261.0" y1="517.0" y2="517.0" /><line stroke="#333" stroke-width="10" x1="389.0" x2="389.0" y1="709.0" y2="517.0" /><line stroke="#333" stroke-width="10" x1="37.0" x2="389.0" y1="709.0" y2="709.0" /><line stroke="#333" stroke-width="10" x1="37.0" x2="37.0" y1="517.0" y2="709.0" /><line stroke="#333" stroke-width="10" x1="133.0" x2="37.0" y1="517.0" y2="517.0" /><line stroke="#999" stroke-width="3" x1="309.0" x2="373.0" y1="277.0" y2="277.0" /><line stroke="#999" stroke-width="3" x1="373.0" x2="373.0" y1="277.0" y2="341.0" /><line stroke="#999" stroke-width="3" x1="373.0" x2="309.0" y1="341.0" y2="341.0" /><line stroke="#999" stroke-width="3" x1="309.0" x2="309.0" y1="341.0" y2="277.0" /><line stroke="#999" stroke-width="3" x1="309.0" x2="309.0" y1="245.0" y2="277.0" /><line stroke="#999" stroke-width="3" x1="277.0" x2="309.0" y1="245.0" y2="245.0" /><line stroke="#999" stroke-width="3" x1="277.0" x2="277.0" y1="373.0" y2="245.0" /><line stroke="#999" stroke-width="3" x1="309.0" x2="277.0" y1="373.0" y2="373.0" /><line stroke="#999" stroke-width="3" x1="309.0" x2="309.0" y1="341.0" y2="373.0" /><line stroke="#333" stroke-width="10" x1="277.0" x2="421.0" y1="485.0" y2="485.0" /><line stroke="#333" stroke-width="10" x1="117.0" x2="133.0" y1="485.0" y2="485.0" /><line stroke="#999" stroke-width="3" x1="117.0" x2="117.0" y1="485.0" y2="461.0" /><line stroke="#999" stroke-width="3" x1="117.0" x2="277.0" y1="461.0" y2="461.0" /><line stroke="#999" stroke-width="3" x1="277.0" x2="277.0" y1="461.0" y2="485.0" /><ellipse cx="229.0" cy="133.0" fill="#009" rx="12" ry="24" stroke="#009" stroke-width="5" /></svg>