<?xml version="1.0" encoding="utf-8" ?>
<svg baseProfile="tiny" height="999" version="1.2" viewBox="0 0 4010 3914" width="1024" xmlns="http://www.w3.org/2000/svg" xmlns:ev="http://www.w3.org/2001/xml-events" xmlns:xlink="http://www.w3.org/1999/xlink"><defs /><line stroke="#333" stroke-width="10" x1="2405.0" x2="2405.0" y1="293.0" y2="5.0" /><line stroke="#333" stroke-width="10" x1="2405.0" x2="2085.0" y1="5.0" y2="5.0" /><line stroke="#333" stroke-width="10" x1="2085.0" x2="2085.0" y1="5.0" y2="293.0" /><line stroke="#999" stroke-width="3" x1="2181.0" x2="2309.0" y1="293.0" y2="293.0" /><line stroke="#999" stroke-width="3" x1="2309.0" x2="2309.0" y1="325.0" y2="293.0" /><line stroke="#666" stroke-width="20" x1="2181.0" x2="2309.0" y1="325.0" y2="325.0" /><line stroke="#999" stroke-width="3" x1="2181.0" x2="2181.0" y1="293.0" y2="325.0" /><line stroke="#999" stroke-width="3" x1="2309.0" x2="2309.0" y1="341.0" y2="325.0" /><line stroke="#999" stroke-width="3" x1="2181.0" x2="2181.0" y1="325.0" y2="341.0" /><line stroke="#999" stroke-width="3" x1="2309.0" x2="2309.0" y1="373.0" y2="341.0" /><line stroke="#999" stroke-width="3" x1="2181.0" x2="2309.0" y1="373.0" y2="373.0" /><line stroke="#999" stroke-width="3" x1="2181.0" x2="2181.0" y1="341.0" y2="373.0" /><line stroke="#666" stroke-width="20" x1="2309.0" x2="2181.0" y1="341.0" y2="341.0" /><line stroke="#333" stroke-width="10" x1="2165.0" x2="2181.0" y1="325.0" y2="373.0" /><line stroke="#333" stroke-width="10" x1="2309.0" x2="2325.0" y1="373.0" y2="325.0" /><line stroke="#333" stroke-width="10" x1="2085.0" x2="2181.0" y1="293.0" y2="293.0" /><line stroke="#333" stroke-width="10" x1="2181.0" x2="2165.0" y1="293.0" y2="325.0" /><line stroke="#333" stroke-width="10" x1="2309.0" x2="2405.0" y1="293.0" y2="293.0" /><line stroke="#333" stroke-width="10" x1="2325.0" x2="2309.0" y1="325.0" y2="293.0" /><line stroke="#333" stroke-width="10" x1="4005.0" x2="2309.0" y1="373.0" y2="373.0" /><line stroke="#333" stroke-width="10" x1="4005.0" x2="4005.0" y1="2293.0" y2="373.0" /><line stroke="#999" stroke-width="3" x1="597.0" x2="661.0" y1="2293.0" y2="2293.0" /><line stroke="#333" stroke-width="10" x1="597.0" x2="597.0" y1="373.0" y2="2293.0" /><line stroke="#333" stroke-width="10" x1="2181.0" x2="597.0" y1="373.0" y2="373.0" /><line stroke="#999" stroke-width="3" x1="2181.0" x2="2181.0" y1="565.0" y2="373.0" /><line stroke="#999" stroke-width="3" x1="2309.0" x2="2309.0" y1="373.0" y2="565.0" /><line stroke="#999" stroke-width="3" x1="2181.0" x2="2181.0" y1="581.0" y2="565.0" /><line stroke="#999" stroke-width="3" x1="2309.0" x2="2309.0" y1="565.0" y2="581.0" /><line stroke="#999" stroke-width="3" x1="2309.0" x2="2325.0" y1="581.0" y2="581.0" /><line stroke="#999" stroke-width="3" x1="2581.0" x2="2309.0" y1="677.0" y2="677.0" /><line stroke="#999" stroke-width="3" x1="1765.0" x2="1781.0" y1="581.0" y2="581.0" /><line stroke="#999" stroke-width="3" x1="2181.0" x2="1861.0" y1="677.0" y2="677.0" /><line stroke="#999" stroke-width="3" x1="2677.0" x2="2661.0" y1="2021.0" y2="2021.0" /><line stroke="#999" stroke-width="3" x1="2581.0" x2="2581.0" y1="1893.0" y2="677.0" /><line stroke="#999" stroke-width="3" x1="1861.0" x2="2405.0" y1="1893.0" y2="1893.0" /><line stroke="#999" stroke-width="3" x1="1861.0" x2="1861.0" y1="677.0" y2="1893.0" /><line stroke="#999" stroke-width="3" x1="2181.0" x2="2309.0" y1="677.0" y2="677.0" /><line stroke="#999" stroke-width="3" x1="2309.0" x2="2181.0" y1="693.0" y2="693.0" /><line stroke="#999" stroke-width="3" x1="2309.0" x2="2309.0" y1="677.0" y2="693.0" /><line stroke="#999" stroke-width="3" x1="2181.0" x2="2181.0" y1="693.0" y2="677.0" /><line stroke="#999" stroke-width="3" x1="2181.0" x2="2181.0" y1="871.0" y2="693.0" /><line stroke="#999" stroke-width="3" x1="2309.0" x2="2181.0" y1="871.0" y2="871.0" /><line stroke="#999" stroke-width="3" x1="2309.0" x2="2309.0" y1="693.0" y2="871.0" /><line stroke="#333" stroke-width="10" x1="2309.0" x2="2725.0" y1="2293.0" y2="2293.0" /><line stroke="#999" stroke-width="3" x1="2181.0" x2="2309.0" y1="2293.0" y2="2293.0" /><line stroke="#999" stroke-width="3" x1="2181.0" x2="2165.0" y1="2021.0" y2="2021.0" /><line stroke="#999" stroke-width="3" x1="2309.0" x2="2309.0" y1="2021.0" y2="2037.0" /><line stroke="#999" stroke-width="3" x1="2181.0" x2="2181.0" y1="2293.0" y2="2037.0" /><line stroke="#999" stroke-width="3" x1="2165.0" x2="1781.0" y1="2021.0" y2="2021.0" /><line stroke="#999" stroke-width="3" x1="2181.0" x2="2181.0" y1="2037.0" y2="2021.0" /><line stroke="#999" stroke-width="3" x1="2165.0" x2="2165.0" y1="2037.0" y2="2021.0" /><line stroke="#999" stroke-width="3" x1="2181.0" x2="2165.0" y1="2037.0" y2="2037.0" /><line stroke="#999" stroke-width="3" x1="2325.0" x2="2309.0" y1="2021.0" y2="2021.0" /><line stroke="#999" stroke-width="3" x1="2309.0" x2="2309.0" y1="2037.0" y2="2293.0" /><line stroke="#999" stroke-width="3" x1="2325.0" x2="2309.0" y1="2037.0" y2="2037.0" /><line stroke="#999" stroke-width="3" x1="2325.0" x2="2325.0" y1="2021.0" y2="2037.0" /><line stroke="#999" stroke-width="3" x1="2325.0" x2="2661.0" y1="581.0" y2="581.0" /><line stroke="#999" stroke-width="3" x1="2165.0" x2="2181.0" y1="581.0" y2="581.0" /><line stroke="#999" stroke-width="3" x1="2165.0" x2="2181.0" y1="565.0" y2="565.0" /><line stroke="#999" stroke-width="3" x1="2165.0" x2="2165.0" y1="581.0" y2="565.0" /><line stroke="#999" stroke-width="3" x1="2325.0" x2="2325.0" y1="565.0" y2="581.0" /><line stroke="#999" stroke-width="3" x1="2309.0" x2="2325.0" y1="565.0" y2="565.0" /><line stroke="#999" stroke-width="3" x1="2677.0" x2="2677.0" y1="581.0" y2="2021.0" /><line stroke="#999" stroke-width="3" x1="2661.0" x2="2677.0" y1="581.0" y2="581.0" /><line stroke="#999" stroke-width="3" x1="2677.0" x2="2677.0" y1="565.0" y2="581.0" /><line stroke="#999" stroke-width="3" x1="2661.0" x2="2677.0" y1="565.0" y2="565.0" /><line stroke="#999" stroke-width="3" x1="2661.0" x2="2661.0" y1="581.0" y2="565.0" /><line stroke="#999" stroke-width="3" x1="1765.0" x2="1765.0" y1="2021.0" y2="581.0" /><line stroke="#999" stroke-width="3" x1="1781.0" x2="2165.0" y1="581.0" y2="581.0" /><line stroke="#999" stroke-width="3" x1="1781.0" x2="1781.0" y1="565.0" y2="581.0" /><line stroke="#999" stroke-width="3" x1="1765.0" x2="1781.0" y1="565.0" y2="565.0" /><line stroke="#999" stroke-width="3" x1="1765.0" x2="1765.0" y1="581.0" y2="565.0" /><line stroke="#999" stroke-width="3" x1="2661.0" x2="2325.0" y1="2021.0" y2="2021.0" /><line stroke="#999" stroke-width="3" x1="2661.0" x2="2661.0" y1="2037.0" y2="2021.0" /><line stroke="#999" stroke-width="3" x1="2677.0" x2="2661.0" y1="2037.0" y2="2037.0" /><line stroke="#999" stroke-width="3" x1="2677.0" x2="2677.0" y1="2021.0" y2="2037.0" /><line stroke="#999" stroke-width="3" x1="1781.0" x2="1765.0" y1="2021.0" y2="2021.0" /><line stroke="#999" stroke-width="3" x1="1765.0" x2="1765.0" y1="2037.0" y2="2021.0" /><line stroke="#999" stroke-width="3" x1="1781.0" x2="1765.0" y1="2037.0" y2="2037.0" /><line stroke="#999" stroke-width="3" x1="1781.0" x2="1781.0" y1="2021.0" y2="2037.0" /><line stroke="#666" stroke-width="20" x1="2181.0" x2="2309.0" y1="2325.0" y2="2325.0" /><line stroke="#666" stroke-width="20" x1="2309.0" x2="2181.0" y1="2341.0" y2="2341.0" /><line stroke="#999" stroke-width="3" x1="2309.0" x2="2309.0" y1="2325.0" y2="2293.0" /><line stroke="#999" stroke-width="3" x1="2309.0" x2="2309.0" y1="2341.0" y2="2325.0" /><line stroke="#999" stroke-width="3" x1="2309.0" x2="2309.0" y1="2373.0" y2="2341.0" /><line stroke="#999" stroke-width="3" x1="2181.0" x2="2309.0" y1="2373.0" y2="2373.0" /><line stroke="#999" stroke-width="3" x1="2181.0" x2="2181.0" y1="2341.0" y2="2373.0" /><line stroke="#999" stroke-width="3" x1="2181.0" x2="2181.0" y1="2325.0" y2="2341.0" /><line stroke="#999" stroke-width="3" x1="2181.0" x2="2181.0" y1="2293.0" y2="2325.0" /><line stroke="#333" stroke-width="10" x1="2325.0" x2="2309.0" y1="2325.0" y2="2293.0" /><line stroke="#333" stroke-width="10" x1="2309.0" x2="2325.0" y1="2373.0" y2="2325.0" /><line stroke="#333" stroke-width="10" x1="2165.0" x2="2181.0" y1="2325.0" y2="2373.0" /><line stroke="#333" stroke-width="10" x1="2181.0" x2="2165.0" y1="2293.0" y2="2325.0" /><line stroke="#333" stroke-width="10" x1="2709.0" x2="2309.0" y1="2373.0" y2="2373.0" /><line stroke="#999" stroke-width="3" x1="2709.0" x2="2709.0" y1="3253.0" y2="2517.0" /><line stroke="#999" stroke-width="3" x1="1813.0" x2="2101.0" y1="3253.0" y2="3253.0" /><line stroke="#333" stroke-width="10" x1="2181.0" x2="1813.0" y1="2373.0" y2="2373.0" /><line stroke="#999" stroke-width="3" x1="2165.0" x2="2373.0" y1="3253.0" y2="3253.0" /><line stroke="#999" stroke-width="3" x1="2373.0" x2="2437.0" y1="3253.0" y2="3253.0" /><line stroke="#999" stroke-width="3" x1="2373.0" x2="2373.0" y1="3189.0" y2="3253.0" /><line stroke="#999" stroke-width="3" x1="2165.0" x2="2373.0" y1="3189.0" y2="3189.0" /><line stroke="#999" stroke-width="3" x1="2165.0" x2="2165.0" y1="3253.0" y2="3189.0" /><line stroke="#999" stroke-width="3" x1="2373.0" x2="2373.0" y1="3333.0" y2="3269.0" /><line stroke="#333" stroke-width="10" x1="2165.0" x2="2373.0" y1="3333.0" y2="3333.0" /><line stroke="#999" stroke-width="3" x1="2165.0" x2="2165.0" y1="3253.0" y2="3269.0" /><line stroke="#999" stroke-width="3" x1="2373.0" x2="2373.0" y1="3269.0" y2="3253.0" /><line stroke="#333" stroke-width="10" x1="2373.0" x2="2421.0" y1="3333.0" y2="3333.0" /><line stroke="#333" stroke-width="10" x1="2709.0" x2="2709.0" y1="2517.0" y2="2437.0" /><line stroke="#333" stroke-width="10" x1="2725.0" x2="2709.0" y1="2517.0" y2="2517.0" /><line stroke="#333" stroke-width="10" x1="2789.0" x2="2789.0" y1="3333.0" y2="2901.0" /><line stroke="#333" stroke-width="10" x1="2789.0" x2="2725.0" y1="2517.0" y2="2517.0" /><line stroke="#999" stroke-width="3" x1="2725.0" x2="2725.0" y1="2517.0" y2="3269.0" /><line stroke="#999" stroke-width="3" x1="2421.0" x2="2373.0" y1="3269.0" y2="3269.0" /><line stroke="#999" stroke-width="3" x1="2437.0" x2="2709.0" y1="3253.0" y2="3253.0" /><line stroke="#999" stroke-width="3" x1="2421.0" x2="2421.0" y1="3269.0" y2="3333.0" /><line stroke="#999" stroke-width="3" x1="2725.0" x2="2437.0" y1="3269.0" y2="3269.0" /><line stroke="#333" stroke-width="10" x1="2421.0" x2="2437.0" y1="3333.0" y2="3333.0" /><line stroke="#999" stroke-width="3" x1="2437.0" x2="2421.0" y1="3269.0" y2="3269.0" /><line stroke="#333" stroke-width="10" x1="2437.0" x2="2789.0" y1="3333.0" y2="3333.0" /><line stroke="#999" stroke-width="3" x1="2437.0" x2="2437.0" y1="3269.0" y2="3333.0" /><line stroke="#999" stroke-width="3" x1="2437.0" x2="2437.0" y1="3253.0" y2="3269.0" /><line stroke="#999" stroke-width="3" x1="2165.0" x2="2165.0" y1="3269.0" y2="3333.0" /><line stroke="#999" stroke-width="3" x1="1797.0" x2="1797.0" y1="3269.0" y2="2517.0" /><line stroke="#999" stroke-width="3" x1="2165.0" x2="2117.0" y1="3269.0" y2="3269.0" /><line stroke="#333" stroke-width="10" x1="1733.0" x2="1733.0" y1="2517.0" y2="3205.0" /><line stroke="#333" stroke-width="10" x1="2117.0" x2="2165.0" y1="3333.0" y2="3333.0" /><line stroke="#333" stroke-width="10" x1="2101.0" x2="2117.0" y1="3333.0" y2="3333.0" /><line stroke="#333" stroke-width="10" x1="1733.0" x2="2101.0" y1="3333.0" y2="3333.0" /><line stroke="#999" stroke-width="3" x1="2101.0" x2="1797.0" y1="3269.0" y2="3269.0" /><line stroke="#999" stroke-width="3" x1="2117.0" x2="2101.0" y1="3269.0" y2="3269.0" /><line stroke="#999" stroke-width="3" x1="2117.0" x2="2117.0" y1="3333.0" y2="3269.0" /><line stroke="#999" stroke-width="3" x1="2101.0" x2="2101.0" y1="3333.0" y2="3269.0" /><line stroke="#999" stroke-width="3" x1="2101.0" x2="2165.0" y1="3253.0" y2="3253.0" /><line stroke="#999" stroke-width="3" x1="2101.0" x2="2101.0" y1="3269.0" y2="3253.0" /><line stroke="#333" stroke-width="10" x1="1797.0" x2="1733.0" y1="2517.0" y2="2517.0" /><line stroke="#999" stroke-width="3" x1="1813.0" x2="1813.0" y1="2517.0" y2="3253.0" /><line stroke="#333" stroke-width="10" x1="1813.0" x2="1797.0" y1="2517.0" y2="2517.0" /><line stroke="#999" stroke-width="3" x1="2437.0" x2="2437.0" y1="3141.0" y2="3253.0" /><line stroke="#999" stroke-width="3" x1="2101.0" x2="2437.0" y1="3141.0" y2="3141.0" /><line stroke="#999" stroke-width="3" x1="2101.0" x2="2101.0" y1="3253.0" y2="3141.0" /><line stroke="#999" stroke-width="3" x1="2789.0" x2="2789.0" y1="2901.0" y2="2837.0" /><line stroke="#333" stroke-width="10" x1="2789.0" x2="2789.0" y1="2837.0" y2="2517.0" /><line stroke="#999" stroke-width="3" x1="2869.0" x2="2837.0" y1="2837.0" y2="2837.0" /><line stroke="#333" stroke-width="10" x1="2789.0" x2="2837.0" y1="2901.0" y2="2901.0" /><line stroke="#333" stroke-width="10" x1="2853.0" x2="2869.0" y1="2917.0" y2="2901.0" /><line stroke="#333" stroke-width="10" x1="2869.0" x2="2853.0" y1="2837.0" y2="2821.0" /><line stroke="#999" stroke-width="3" x1="3125.0" x2="2869.0" y1="2837.0" y2="2837.0" /><line stroke="#999" stroke-width="3" x1="2869.0" x2="3125.0" y1="2901.0" y2="2901.0" /><line stroke="#999" stroke-width="3" x1="3125.0" x2="3125.0" y1="2741.0" y2="2821.0" /><line stroke="#999" stroke-width="3" x1="3365.0" x2="3125.0" y1="2741.0" y2="2741.0" /><line stroke="#999" stroke-width="3" x1="3365.0" x2="3365.0" y1="2997.0" y2="2741.0" /><line stroke="#999" stroke-width="3" x1="3125.0" x2="3365.0" y1="2997.0" y2="2997.0" /><line stroke="#999" stroke-width="3" x1="3125.0" x2="3125.0" y1="2901.0" y2="2917.0" /><line stroke="#999" stroke-width="3" x1="3125.0" x2="3125.0" y1="2901.0" y2="2837.0" /><line stroke="#333" stroke-width="10" x1="2869.0" x2="2869.0" y1="2341.0" y2="2821.0" /><line stroke="#333" stroke-width="10" x1="4005.0" x2="2869.0" y1="2341.0" y2="2341.0" /><line stroke="#333" stroke-width="10" x1="4005.0" x2="4005.0" y1="3477.0" y2="2341.0" /><line stroke="#333" stroke-width="10" x1="2869.0" x2="4005.0" y1="3477.0" y2="3477.0" /><line stroke="#333" stroke-width="10" x1="2869.0" x2="2869.0" y1="2901.0" y2="2917.0" /><line stroke="#333" stroke-width="10" x1="2869.0" x2="2869.0" y1="2917.0" y2="3477.0" /><line stroke="#333" stroke-width="10" x1="2869.0" x2="2869.0" y1="2821.0" y2="2837.0" /><line stroke="#999" stroke-width="3" x1="3125.0" x2="3125.0" y1="2821.0" y2="2837.0" /><line stroke="#999" stroke-width="3" x1="3125.0" x2="3125.0" y1="2917.0" y2="2997.0" /><line stroke="#999" stroke-width="3" x1="3125.0" x2="2869.0" y1="2917.0" y2="2917.0" /><line stroke="#999" stroke-width="3" x1="2869.0" x2="3125.0" y1="2821.0" y2="2821.0" /><line stroke="#999" stroke-width="3" x1="2837.0" x2="2869.0" y1="2901.0" y2="2901.0" /><line stroke="#333" stroke-width="10" x1="2837.0" x2="2789.0" y1="2837.0" y2="2837.0" /><line stroke="#333" stroke-width="10" x1="2853.0" x2="2837.0" y1="2821.0" y2="2837.0" /><line stroke="#333" stroke-width="10" x1="2837.0" x2="2853.0" y1="2901.0" y2="2917.0" /><line stroke="#999" stroke-width="3" x1="2837.0" x2="2837.0" y1="2837.0" y2="2901.0" /><line stroke="#999" stroke-width="3" x1="1941.0" x2="1941.0" y1="2981.0" y2="2885.0" /><line stroke="#999" stroke-width="3" x1="2037.0" x2="1941.0" y1="2981.0" y2="2981.0" /><line stroke="#999" stroke-width="3" x1="1941.0" x2="2037.0" y1="2885.0" y2="2885.0" /><line stroke="#999" stroke-width="3" x1="1957.0" x2="1957.0" y1="2901.0" y2="2965.0" /><line stroke="#999" stroke-width="3" x1="2021.0" x2="1957.0" y1="2901.0" y2="2901.0" /><line stroke="#999" stroke-width="3" x1="1957.0" x2="2021.0" y1="2965.0" y2="2965.0" /><line stroke="#999" stroke-width="3" x1="2021.0" x2="2021.0" y1="2901.0" y2="2965.0" /><line stroke="#999" stroke-width="3" x1="2037.0" x2="2037.0" y1="2885.0" y2="2981.0" /><line stroke="#999" stroke-width="3" x1="2037.0" x2="2037.0" y1="2709.0" y2="2805.0" /><line stroke="#999" stroke-width="3" x1="2021.0" x2="2021.0" y1="2725.0" y2="2789.0" /><line stroke="#999" stroke-width="3" x1="1957.0" x2="2021.0" y1="2789.0" y2="2789.0" /><line stroke="#999" stroke-width="3" x1="2021.0" x2="1957.0" y1="2725.0" y2="2725.0" /><line stroke="#999" stroke-width="3" x1="1957.0" x2="1957.0" y1="2725.0" y2="2789.0" /><line stroke="#999" stroke-width="3" x1="1941.0" x2="2037.0" y1="2709.0" y2="2709.0" /><line stroke="#999" stroke-width="3" x1="2037.0" x2="1941.0" y1="2805.0" y2="2805.0" /><line stroke="#999" stroke-width="3" x1="1941.0" x2="1941.0" y1="2805.0" y2="2709.0" /><line stroke="#999" stroke-width="3" x1="1941.0" x2="1941.0" y1="2629.0" y2="2533.0" /><line stroke="#999" stroke-width="3" x1="2037.0" x2="1941.0" y1="2629.0" y2="2629.0" /><line stroke="#999" stroke-width="3" x1="1941.0" x2="2037.0" y1="2533.0" y2="2533.0" /><line stroke="#999" stroke-width="3" x1="1957.0" x2="1957.0" y1="2549.0" y2="2613.0" /><line stroke="#999" stroke-width="3" x1="2021.0" x2="1957.0" y1="2549.0" y2="2549.0" /><line stroke="#999" stroke-width="3" x1="1957.0" x2="2021.0" y1="2613.0" y2="2613.0" /><line stroke="#999" stroke-width="3" x1="2021.0" x2="2021.0" y1="2549.0" y2="2613.0" /><line stroke="#999" stroke-width="3" x1="2037.0" x2="2037.0" y1="2533.0" y2="2629.0" /><line stroke="#999" stroke-width="3" x1="2597.0" x2="2597.0" y1="2885.0" y2="2981.0" /><line stroke="#999" stroke-width="3" x1="2581.0" x2="2581.0" y1="2901.0" y2="2965.0" /><line stroke="#999" stroke-width="3" x1="2517.0" x2="2581.0" y1="2965.0" y2="2965.0" /><line stroke="#999" stroke-width="3" x1="2581.0" x2="2517.0" y1="2901.0" y2="2901.0" /><line stroke="#999" stroke-width="3" x1="2517.0" x2="2517.0" y1="2901.0" y2="2965.0" /><line stroke="#999" stroke-width="3" x1="2501.0" x2="2597.0" y1="2885.0" y2="2885.0" /><line stroke="#999" stroke-width="3" x1="2597.0" x2="2501.0" y1="2981.0" y2="2981.0" /><line stroke="#999" stroke-width="3" x1="2501.0" x2="2501.0" y1="2981.0" y2="2885.0" /><line stroke="#999" stroke-width="3" x1="2501.0" x2="2501.0" y1="2805.0" y2="2709.0" /><line stroke="#999" stroke-width="3" x1="2597.0" x2="2501.0" y1="2805.0" y2="2805.0" /><line stroke="#999" stroke-width="3" x1="2501.0" x2="2597.0" y1="2709.0" y2="2709.0" /><line stroke="#999" stroke-width="3" x1="2517.0" x2="2517.0" y1="2725.0" y2="2789.0" /><line stroke="#999" stroke-width="3" x1="2581.0" x2="2517.0" y1="2725.0" y2="2725.0" /><line stroke="#999" stroke-width="3" x1="2517.0" x2="2581.0" y1="2789.0" y2="2789.0" /><line stroke="#999" stroke-width="3" x1="2581.0" x2="2581.0" y1="2725.0" y2="2789.0" /><line stroke="#999" stroke-width="3" x1="2597.0" x2="2597.0" y1="2709.0" y2="2805.0" /><line stroke="#999" stroke-width="3" x1="2597.0" x2="2597.0" y1="2533.0" y2="2629.0" /><line stroke="#999" stroke-width="3" x1="2581.0" x2="2581.0" y1="2549.0" y2="2613.0" /><line stroke="#999" stroke-width="3" x1="2517.0" x2="2581.0" y1="2613.0" y2="2613.0" /><line stroke="#999" stroke-width="3" x1="2581.0" x2="2517.0" y1="2549.0" y2="2549.0" /><line stroke="#999" stroke-width="3" x1="2517.0" x2="2517.0" y1="2549.0" y2="2613.0" /><line stroke="#999" stroke-width="3" x1="2501.0" x2="2597.0" y1="2533.0" y2="2533.0" /><line stroke="#999" stroke-width="3" x1="2597.0" x2="2501.0" y1="2629.0" y2="2629.0" /><line stroke="#999" stroke-width="3" x1="2501.0" x2="2501.0" y1="2629.0" y2="2533.0" /><line stroke="#666" stroke-width="20" x1="1733.0" x2="1733.0" y1="3205.0" y2="3333.0" /><line stroke="#333" stroke-width="10" x1="1733.0" x2="1717.0" y1="3205.0" y2="3205.0" /><line stroke="#333" stroke-width="10" x1="1717.0" x2="1733.0" y1="3333.0" y2="3333.0" /><line stroke="#333" stroke-width="10" x1="1717.0" x2="1685.0" y1="3205.0" y2="3205.0" /><line stroke="#333" stroke-width="10" x1="1685.0" x2="1717.0" y1="3333.0" y2="3333.0" /><line stroke="#999" stroke-width="3" x1="1685.0" x2="1685.0" y1="3205.0" y2="3333.0" /><line stroke="#999" stroke-width="3" x1="341.0" x2="1685.0" y1="3333.0" y2="3333.0" /><line stroke="#999" stroke-width="3" x1="341.0" x2="341.0" y1="3205.0" y2="3333.0" /><line stroke="#999" stroke-width="3" x1="1685.0" x2="341.0" y1="3205.0" y2="3205.0" /><line stroke="#666" stroke-width="20" x1="1717.0" x2="1717.0" y1="3333.0" y2="3205.0" /><line stroke="#333" stroke-width="10" x1="1685.0" x2="1685.0" y1="3909.0" y2="3333.0" /><line stroke="#333" stroke-width="10" x1="341.0" x2="1685.0" y1="3909.0" y2="3909.0" /><line stroke="#333" stroke-width="10" x1="1685.0" x2="1349.0" y1="2517.0" y2="2517.0" /><line stroke="#333" stroke-width="10" x1="1685.0" x2="1685.0" y1="3205.0" y2="2517.0" /><line stroke="#666" stroke-width="20" x1="309.0" x2="309.0" y1="3205.0" y2="3333.0" /><line stroke="#333" stroke-width="10" x1="341.0" x2="309.0" y1="3205.0" y2="3205.0" /><line stroke="#333" stroke-width="10" x1="309.0" x2="341.0" y1="3333.0" y2="3333.0" /><line stroke="#333" stroke-width="10" x1="293.0" x2="309.0" y1="3333.0" y2="3333.0" /><line stroke="#333" stroke-width="10" x1="261.0" x2="293.0" y1="3333.0" y2="3333.0" /><line stroke="#999" stroke-width="3" x1="261.0" x2="261.0" y1="3205.0" y2="3333.0" /><line stroke="#333" stroke-width="10" x1="293.0" x2="261.0" y1="3205.0" y2="3205.0" /><line stroke="#333" stroke-width="10" x1="309.0" x2="293.0" y1="3205.0" y2="3205.0" /><line stroke="#666" stroke-width="20" x1="293.0" x2="293.0" y1="3333.0" y2="3205.0" /><line stroke="#333" stroke-width="10" x1="341.0" x2="341.0" y1="3333.0" y2="3909.0" /><line stroke="#333" stroke-width="10" x1="341.0" x2="341.0" y1="2517.0" y2="3205.0" /><line stroke="#333" stroke-width="10" x1="1813.0" x2="1813.0" y1="2501.0" y2="2517.0" /><line stroke="#999" stroke-width="3" x1="1813.0" x2="1813.0" y1="2373.0" y2="2501.0" /><line stroke="#333" stroke-width="10" x1="1781.0" x2="1813.0" y1="2501.0" y2="2501.0" /><line stroke="#333" stroke-width="10" x1="1765.0" x2="1781.0" y1="2501.0" y2="2501.0" /><line stroke="#333" stroke-width="10" x1="1733.0" x2="1765.0" y1="2501.0" y2="2501.0" /><line stroke="#999" stroke-width="3" x1="1733.0" x2="1733.0" y1="2373.0" y2="2501.0" /><line stroke="#333" stroke-width="10" x1="1765.0" x2="1733.0" y1="2373.0" y2="2373.0" /><line stroke="#333" stroke-width="10" x1="1781.0" x2="1765.0" y1="2373.0" y2="2373.0" /><line stroke="#333" stroke-width="10" x1="1813.0" x2="1781.0" y1="2373.0" y2="2373.0" /><line stroke="#666" stroke-width="20" x1="1781.0" x2="1781.0" y1="2373.0" y2="2501.0" /><line stroke="#666" stroke-width="20" x1="1765.0" x2="1765.0" y1="2501.0" y2="2373.0" /><line stroke="#333" stroke-width="10" x1="1589.0" x2="1621.0" y1="2501.0" y2="2501.0" /><line stroke="#999" stroke-width="3" x1="1589.0" x2="1589.0" y1="2437.0" y2="2501.0" /><line stroke="#333" stroke-width="10" x1="1621.0" x2="1589.0" y1="2437.0" y2="2437.0" /><line stroke="#333" stroke-width="10" x1="1621.0" x2="1621.0" y1="2373.0" y2="2437.0" /><line stroke="#333" stroke-width="10" x1="1733.0" x2="1621.0" y1="2373.0" y2="2373.0" /><line stroke="#333" stroke-width="10" x1="1621.0" x2="1733.0" y1="2501.0" y2="2501.0" /><line stroke="#999" stroke-width="3" x1="1621.0" x2="1621.0" y1="2437.0" y2="2501.0" /><line stroke="#333" stroke-width="10" x1="1557.0" x2="1589.0" y1="2501.0" y2="2501.0" /><line stroke="#333" stroke-width="10" x1="1525.0" x2="1557.0" y1="2501.0" y2="2501.0" /><line stroke="#333" stroke-width="10" x1="1493.0" x2="1525.0" y1="2501.0" y2="2501.0" /><line stroke="#999" stroke-width="3" x1="1493.0" x2="1493.0" y1="2437.0" y2="2501.0" /><line stroke="#333" stroke-width="10" x1="1525.0" x2="1493.0" y1="2437.0" y2="2437.0" /><line stroke="#333" stroke-width="10" x1="1557.0" x2="1525.0" y1="2437.0" y2="2437.0" /><line stroke="#333" stroke-width="10" x1="1589.0" x2="1557.0" y1="2437.0" y2="2437.0" /><line stroke="#999" stroke-width="3" x1="1557.0" x2="1557.0" y1="2437.0" y2="2501.0" /><line stroke="#999" stroke-width="3" x1="1525.0" x2="1525.0" y1="2437.0" y2="2501.0" /><line stroke="#333" stroke-width="10" x1="1461.0" x2="1493.0" y1="2501.0" y2="2501.0" /><line stroke="#999" stroke-width="3" x1="1461.0" x2="1461.0" y1="2437.0" y2="2501.0" /><line stroke="#333" stroke-width="10" x1="1493.0" x2="1461.0" y1="2437.0" y2="2437.0" /><line stroke="#999" stroke-width="3" x1="885.0" x2="1349.0" y1="2501.0" y2="2501.0" /><line stroke="#333" stroke-width="10" x1="1461.0" x2="661.0" y1="2437.0" y2="2437.0" /><line stroke="#333" stroke-width="10" x1="885.0" x2="341.0" y1="2517.0" y2="2517.0" /><line stroke="#999" stroke-width="3" x1="1349.0" x2="885.0" y1="2517.0" y2="2517.0" /><line stroke="#333" stroke-width="10" x1="1349.0" x2="1461.0" y1="2501.0" y2="2501.0" /><line stroke="#333" stroke-width="10" x1="1349.0" x2="1349.0" y1="2517.0" y2="2501.0" /><line stroke="#333" stroke-width="10" x1="885.0" x2="885.0" y1="2501.0" y2="2517.0" /><line stroke="#333" stroke-width="10" x1="261.0" x2="261.0" y1="3381.0" y2="3333.0" /><line stroke="#333" stroke-width="10" x1="69.0" x2="261.0" y1="3381.0" y2="3381.0" /><line stroke="#333" stroke-width="10" x1="69.0" x2="69.0" y1="3157.0" y2="3205.0" /><line stroke="#333" stroke-width="10" x1="261.0" x2="69.0" y1="3157.0" y2="3157.0" /><line stroke="#333" stroke-width="10" x1="261.0" x2="261.0" y1="3205.0" y2="3157.0" /><line stroke="#333" stroke-width="10" x1="69.0" x2="69.0" y1="3269.0" y2="3381.0" /><line stroke="#00d" stroke-width="20" x1="69.0" x2="69.0" y1="3205.0" y2="3269.0" /><line stroke="#333" stroke-width="10" x1="5.0" x2="69.0" y1="3269.0" y2="3269.0" /><line stroke="#333" stroke-width="10" x1="5.0" x2="5.0" y1="3205.0" y2="3269.0" /><line stroke="#333" stroke-width="10" x1="69.0" x2="5.0" y1="3205.0" y2="3205.0" /><line stroke="#999" stroke-width="3" x1="2565.0" x2="2501.0" y1="1877.0" y2="1877.0" /><line stroke="#999" stroke-width="3" x1="2565.0" x2="2565.0" y1="693.0" y2="1877.0" /><line stroke="#999" stroke-width="3" x1="2325.0" x2="2565.0" y1="693.0" y2="693.0" /><line stroke="#999" stroke-width="3" x1="2325.0" x2="2325.0" y1="885.0" y2="693.0" /><line stroke="#999" stroke-width="3" x1="2165.0" x2="2325.0" y1="885.0" y2="885.0" /><line stroke="#999" stroke-width="3" x1="2165.0" x2="2165.0" y1="693.0" y2="885.0" /><line stroke="#999" stroke-width="3" x1="1877.0" x2="2165.0" y1="693.0" y2="693.0" /><line stroke="#999" stroke-width="3" x1="1877.0" x2="1877.0" y1="1877.0" y2="693.0" /><line stroke="#999" stroke-width="3" x1="2501.0" x2="2581.0" y1="1893.0" y2="1893.0" /><line stroke="#999" stroke-width="3" x1="2405.0" x2="1877.0" y1="1877.0" y2="1877.0" /><line stroke="#999" stroke-width="3" x1="2501.0" x2="2501.0" y1="1893.0" y2="1877.0" /><line stroke="#999" stroke-width="3" x1="2405.0" x2="2405.0" y1="1877.0" y2="1893.0" /><line stroke="#999" stroke-width="3" x1="2501.0" x2="2501.0" y1="1813.0" y2="1877.0" /><line stroke="#999" stroke-width="3" x1="2405.0" x2="2501.0" y1="1813.0" y2="1813.0" /><line stroke="#999" stroke-width="3" x1="2405.0" x2="2405.0" y1="1877.0" y2="1813.0" /><line stroke="#666" stroke-width="20" x1="2501.0" x2="2405.0" y1="1893.0" y2="1893.0" /><line stroke="#666" stroke-width="20" x1="2405.0" x2="2501.0" y1="1877.0" y2="1877.0" /><line stroke="#333" stroke-width="10" x1="661.0" x2="885.0" y1="2501.0" y2="2501.0" /><line stroke="#333" stroke-width="10" x1="613.0" x2="661.0" y1="2501.0" y2="2501.0" /><line stroke="#333" stroke-width="10" x1="597.0" x2="613.0" y1="2469.0" y2="2501.0" /><line stroke="#333" stroke-width="10" x1="597.0" x2="597.0" y1="2421.0" y2="2469.0" /><line stroke="#333" stroke-width="10" x1="597.0" x2="597.0" y1="2389.0" y2="2421.0" /><line stroke="#333" stroke-width="10" x1="597.0" x2="597.0" y1="2357.0" y2="2389.0" /><line stroke="#333" stroke-width="10" x1="597.0" x2="597.0" y1="2325.0" y2="2357.0" /><line stroke="#333" stroke-width="10" x1="597.0" x2="597.0" y1="2293.0" y2="2325.0" /><line stroke="#999" stroke-width="3" x1="597.0" x2="661.0" y1="2469.0" y2="2437.0" /><line stroke="#333" stroke-width="10" x1="661.0" x2="661.0" y1="2357.0" y2="2325.0" /><line stroke="#333" stroke-width="10" x1="661.0" x2="661.0" y1="2389.0" y2="2357.0" /><line stroke="#333" stroke-width="10" x1="661.0" x2="661.0" y1="2421.0" y2="2389.0" /><line stroke="#333" stroke-width="10" x1="661.0" x2="661.0" y1="2437.0" y2="2421.0" /><line stroke="#999" stroke-width="3" x1="597.0" x2="661.0" y1="2421.0" y2="2421.0" /><line stroke="#999" stroke-width="3" x1="597.0" x2="661.0" y1="2389.0" y2="2389.0" /><line stroke="#999" stroke-width="3" x1="597.0" x2="661.0" y1="2357.0" y2="2357.0" /><line stroke="#999" stroke-width="3" x1="597.0" x2="661.0" y1="2325.0" y2="2325.0" /><line stroke="#333" stroke-width="10" x1="661.0" x2="2181.0" y1="2293.0" y2="2293.0" /><line stroke="#333" stroke-width="10" x1="661.0" x2="661.0" y1="2325.0" y2="2293.0" /><line stroke="#999" stroke-width="3" x1="661.0" x2="661.0" y1="2501.0" y2="2437.0" /><line stroke="#666" stroke-width="20" x1="2709.0" x2="2709.0" y1="2437.0" y2="2373.0" /><line stroke="#333" stroke-width="10" x1="2725.0" x2="2709.0" y1="2373.0" y2="2373.0" /><line stroke="#333" stroke-width="10" x1="2709.0" x2="2725.0" y1="2437.0" y2="2437.0" /><line stroke="#666" stroke-width="20" x1="2805.0" x2="2725.0" y1="2373.0" y2="2373.0" /><line stroke="#333" stroke-width="10" x1="2805.0" x2="2805.0" y1="2437.0" y2="2373.0" /><line stroke="#333" stroke-width="10" x1="2725.0" x2="2805.0" y1="2437.0" y2="2437.0" /><line stroke="#666" stroke-width="20" x1="2725.0" x2="2725.0" y1="2373.0" y2="2437.0" /><line stroke="#333" stroke-width="10" x1="2805.0" x2="4005.0" y1="2293.0" y2="2293.0" /><line stroke="#666" stroke-width="20" x1="2725.0" x2="2805.0" y1="2293.0" y2="2293.0" /><line stroke="#333" stroke-width="10" x1="2805.0" x2="2805.0" y1="2373.0" y2="2293.0" /><line stroke="#333" stroke-width="10" x1="2725.0" x2="2725.0" y1="2293.0" y2="2373.0" /><ellipse cx="2213.0" cy="101.0" fill="#009" rx="12" ry="24" stroke="#009" stroke-width="5" /><rect fill="#090" height="24" stroke="#090" stroke-width="5" transform="rotate(90,3141.0,2981.0)" width="24" x="3129.0" y="2969.0" /><rect fill="#090" height="24" stroke="#090" stroke-width="5" transform="rotate(90,3349.0,2981.0)" width="24" x="3337.0" y="2969.0" /><rect fill="#090" height="24" stroke="#090" stroke-width="5" transform="rotate(90,3349.0,2757.0)" width="24" x="3337.0" y="2745.0" /><rect fill="#090" height="24" stroke="#090" stroke-width="5" transform="rotate(90,3141.0,2757.0)" width="24" x="3129.0" y="2745.0" /><rect fill="#900" height="48" stroke="#900" stroke-width="5" transform="rotate(0,1989.0,2933.0)" width="32" x="1973.0" y="2909.0" /><rect fill="#090" height="24" stroke="#090" stroke-width="5" transform="rotate(0,1989.0,2757.0)" width="24" x="1977.0" y="2745.0" /><rect fill="#900" height="48" stroke="#900" stroke-width="5" transform="rotate(0,1989.0,2581.0)" width="32" x="1973.0" y="2557.0" /><rect fill="#900" height="48" stroke="#900" stroke-width="5" transform="rotate(180,2549.0,2757.0)" width="32" x="2533.0" y="2733.0" /><rect fill="#900" height="48" stroke="#900" stroke-width="5" transform="rotate(180,2549.0,2933.0)" width="32" x="2533.0" y="2909.0" /><rect fill="#090" height="24" stroke="#090" stroke-width="5" transform="rotate(0,2549.0,2581.0)" width="24" x="2537.0" y="2569.0" /><circle cx="3301.0" cy="2869.0" fill="#900" r="16" stroke="#900" stroke-width="5" /><circle cx="2949.0" cy="2869.0" fill="#090" r="16" stroke="#090" stroke-width="5" /><circle cx="3013.0" cy="2869.0" fill="#090" r="16" stroke="#090" stroke-width="5" /><circle cx="2245.0" cy="37.0" fill="#900" r="16" stroke="#900" stroke-width="5" /><circle cx="1765.0" cy="2549.0" fill="#090" r="16" stroke="#090" stroke-width="5" /><circle cx="1765.0" cy="2597.0" fill="#090" r="16" stroke="#090" stroke-width="5" /><circle cx="133.0" cy="3269.0" fill="#900" r="16" stroke="#900" stroke-width="5" /><circle cx="133.0" cy="3189.0" fill="#090" r="16" stroke="#090" stroke-width="5" /><circle cx="133.0" cy="3349.0" fill="#090" r="16" stroke="#090" stroke-width="5" /><circle cx="197.0" cy="3349.0" fill="#090" r="16" stroke="#090" stroke-width="5" /><circle cx="197.0" cy="3189.0" fill="#090" r="16" stroke="#090" stroke-width="5" /><rect fill="#009" height="24" stroke="#009" stroke-width="5" transform="rotate(270,2243.0,833.0)" width="24" x="2231.0" y="821.0" /><circle cx="2533.0" cy="725.0" fill="#090" r="16" stroke="#090" stroke-width="5" /><circle cx="2485.0" cy="725.0" fill="#090" r="16" stroke="#090" stroke-width="5" /><circle cx="2437.0" cy="725.0" fill="#090" r="16" stroke="#090" stroke-width="5" /><circle cx="2389.0" cy="725.0" fill="#090" r="16" stroke="#090" stroke-width="5" /><circle cx="2517.0" cy="773.0" fill="#090" r="16" stroke="#090" stroke-width="5" /><circle cx="2469.0" cy="773.0" fill="#090" r="16" stroke="#090" stroke-width="5" /><circle cx="2421.0" cy="773.0" fill="#090" r="16" stroke="#090" stroke-width="5" /><circle cx="2373.0" cy="773.0" fill="#090" r="16" stroke="#090" stroke-width="5" /><circle cx="2389.0" cy="821.0" fill="#090" r="16" stroke="#090" stroke-width="5" /><circle cx="2437.0" cy="821.0" fill="#090" r="16" stroke="#090" stroke-width="5" /><circle cx="2485.0" cy="821.0" fill="#090" r="16" stroke="#090" stroke-width="5" /><circle cx="2533.0" cy="821.0" fill="#090" r="16" stroke="#090" stroke-width="5" /><circle cx="2133.0" cy="725.0" fill="#090" r="16" stroke="#090" stroke-width="5" /><circle cx="2085.0" cy="725.0" fill="#090" r="16" stroke="#090" stroke-width="5" /><circle cx="2037.0" cy="725.0" fill="#090" r="16" stroke="#090" stroke-width="5" /><circle cx="1989.0" cy="725.0" fill="#090" r="16" stroke="#090" stroke-width="5" /><circle cx="1941.0" cy="725.0" fill="#090" r="16" stroke="#090" stroke-width="5" /><circle cx="1925.0" cy="773.0" fill="#090" r="16" stroke="#090" stroke-width="5" /><circle cx="1973.0" cy="773.0" fill="#090" r="16" stroke="#090" stroke-width="5" /><circle cx="2021.0" cy="773.0" fill="#090" r="16" stroke="#090" stroke-width="5" /><circle cx="2069.0" cy="773.0" fill="#090" r="16" stroke="#090" stroke-width="5" /><circle cx="2117.0" cy="773.0" fill="#090" r="16" stroke="#090" stroke-width="5" /><circle cx="2085.0" cy="821.0" fill="#090" r="16" stroke="#090" stroke-width="5" /><circle cx="2037.0" cy="821.0" fill="#090" r="16" stroke="#090" stroke-width="5" /><circle cx="1989.0" cy="821.0" fill="#090" r="16" stroke="#090" stroke-width="5" /><circle cx="1941.0" cy="821.0" fill="#090" r="16" stroke="#090" stroke-width="5" /><circle cx="2405.0" cy="965.0" fill="#090" r="16" stroke="#090" stroke-width="5" /><circle cx="2453.0" cy="965.0" fill="#090" r="16" stroke="#090" stroke-width="5" /><circle cx="2501.0" cy="965.0" fill="#090" r="16" stroke="#090" stroke-width="5" /><circle cx="2485.0" cy="917.0" fill="#090" r="16" stroke="#090" stroke-width="5" /><circle cx="2437.0" cy="917.0" fill="#090" r="16" stroke="#090" stroke-width="5" /><circle cx="2437.0" cy="1013.0" fill="#090" r="16" stroke="#090" stroke-width="5" /><circle cx="2485.0" cy="1013.0" fill="#090" r="16" stroke="#090" stroke-width="5" /><circle cx="2533.0" cy="917.0" fill="#090" r="16" stroke="#090" stroke-width="5" /><circle cx="2533.0" cy="1013.0" fill="#090" r="16" stroke="#090" stroke-width="5" /><circle cx="2389.0" cy="1013.0" fill="#090" r="16" stroke="#090" stroke-width="5" /><circle cx="2389.0" cy="917.0" fill="#090" r="16" stroke="#090" stroke-width="5" /><circle cx="2421.0" cy="1061.0" fill="#090" r="16" stroke="#090" stroke-width="5" /><circle cx="2469.0" cy="1061.0" fill="#090" r="16" stroke="#090" stroke-width="5" /><circle cx="2517.0" cy="1061.0" fill="#090" r="16" stroke="#090" stroke-width="5" /><circle cx="1989.0" cy="965.0" fill="#090" r="16" stroke="#090" stroke-width="5" /><circle cx="2037.0" cy="965.0" fill="#090" r="16" stroke="#090" stroke-width="5" /><circle cx="2037.0" cy="917.0" fill="#090" r="16" stroke="#090" stroke-width="5" /><circle cx="1989.0" cy="917.0" fill="#090" r="16" stroke="#090" stroke-width="5" /><circle cx="1941.0" cy="917.0" fill="#090" r="16" stroke="#090" stroke-width="5" /><circle cx="1941.0" cy="965.0" fill="#090" r="16" stroke="#090" stroke-width="5" /><circle cx="2085.0" cy="965.0" fill="#090" r="16" stroke="#090" stroke-width="5" /><circle cx="2053.0" cy="1013.0" fill="#090" r="16" stroke="#090" stroke-width="5" /><circle cx="2005.0" cy="1013.0" fill="#090" r="16" stroke="#090" stroke-width="5" /><circle cx="1957.0" cy="1013.0" fill="#090" r="16" stroke="#090" stroke-width="5" /><circle cx="1909.0" cy="1013.0" fill="#090" r="16" stroke="#090" stroke-width="5" /><circle cx="2021.0" cy="1061.0" fill="#090" r="16" stroke="#090" stroke-width="5" /><circle cx="1973.0" cy="1061.0" fill="#090" r="16" stroke="#090" stroke-width="5" /><circle cx="1925.0" cy="1061.0" fill="#090" r="16" stroke="#090" stroke-width="5" /><circle cx="2197.0" cy="1061.0" fill="#090" r="16" stroke="#090" stroke-width="5" /><circle cx="2245.0" cy="1061.0" fill="#090" r="16" stroke="#090" stroke-width="5" /><circle cx="2293.0" cy="1061.0" fill="#090" r="16" stroke="#090" stroke-width="5" /><circle cx="2293.0" cy="1013.0" fill="#090" r="16" stroke="#090" stroke-width="5" /><circle cx="2245.0" cy="1013.0" fill="#090" r="16" stroke="#090" stroke-width="5" /><circle cx="2197.0" cy="1013.0" fill="#090" r="16" stroke="#090" stroke-width="5" /><circle cx="2197.0" cy="965.0" fill="#090" r="16" stroke="#090" stroke-width="5" /><circle cx="2245.0" cy="965.0" fill="#090" r="16" stroke="#090" stroke-width="5" /><circle cx="2293.0" cy="965.0" fill="#090" r="16" stroke="#090" stroke-width="5" /><circle cx="2293.0" cy="917.0" fill="#090" r="16" stroke="#090" stroke-width="5" /><circle cx="2245.0" cy="917.0" fill="#090" r="16" stroke="#090" stroke-width="5" /><circle cx="2197.0" cy="917.0" fill="#090" r="16" stroke="#090" stroke-width="5" /><circle cx="1941.0" cy="1253.0" fill="#009" r="16" stroke="#009" stroke-width="5" /><circle cx="1925.0" cy="1205.0" fill="#009" r="16" stroke="#009" stroke-width="5" /><circle cx="1973.0" cy="1205.0" fill="#009" r="16" stroke="#009" stroke-width="5" /><circle cx="2021.0" cy="1205.0" fill="#009" r="16" stroke="#009" stroke-width="5" /><circle cx="2069.0" cy="1205.0" fill="#009" r="16" stroke="#009" stroke-width="5" /><circle cx="2085.0" cy="1253.0" fill="#009" r="16" stroke="#009" stroke-width="5" /><circle cx="2037.0" cy="1253.0" fill="#009" r="16" stroke="#009" stroke-width="5" /><circle cx="1989.0" cy="1253.0" fill="#009" r="16" stroke="#009" stroke-width="5" /><circle cx="1925.0" cy="1301.0" fill="#009" r="16" stroke="#009" stroke-width="5" /><circle cx="1973.0" cy="1301.0" fill="#009" r="16" stroke="#009" stroke-width="5" /><circle cx="2021.0" cy="1301.0" fill="#009" r="16" stroke="#009" stroke-width="5" /><circle cx="2069.0" cy="1301.0" fill="#009" r="16" stroke="#009" stroke-width="5" /><circle cx="2405.0" cy="1205.0" fill="#009" r="16" stroke="#009" stroke-width="5" /><circle cx="2453.0" cy="1205.0" fill="#009" r="16" stroke="#009" stroke-width="5" /><circle cx="2501.0" cy="1205.0" fill="#009" r="16" stroke="#009" stroke-width="5" /><circle cx="2389.0" cy="1253.0" fill="#009" r="16" stroke="#009" stroke-width="5" /><circle cx="2437.0" cy="1253.0" fill="#009" r="16" stroke="#009" stroke-width="5" /><circle cx="2485.0" cy="1253.0" fill="#009" r="16" stroke="#009" stroke-width="5" /><circle cx="2533.0" cy="1253.0" fill="#009" r="16" stroke="#009" stroke-width="5" /><circle cx="2501.0" cy="1301.0" fill="#009" r="16" stroke="#009" stroke-width="5" /><circle cx="2453.0" cy="1301.0" fill="#009" r="16" stroke="#009" stroke-width="5" /><circle cx="2405.0" cy="1301.0" fill="#009" r="16" stroke="#009" stroke-width="5" /><circle cx="2405.0" cy="1445.0" fill="#009" r="16" stroke="#009" stroke-width="5" /><circle cx="2405.0" cy="1493.0" fill="#009" r="16" stroke="#009" stroke-width="5" /><circle cx="2405.0" cy="1541.0" fill="#009" r="16" stroke="#009" stroke-width="5" /><circle cx="2453.0" cy="1541.0" fill="#009" r="16" stroke="#009" stroke-width="5" /><circle cx="2501.0" cy="1541.0" fill="#009" r="16" stroke="#009" stroke-width="5" /><circle cx="2501.0" cy="1493.0" fill="#009" r="16" stroke="#009" stroke-width="5" /><circle cx="2501.0" cy="1445.0" fill="#009" r="16" stroke="#009" stroke-width="5" /><circle cx="2453.0" cy="1445.0" fill="#009" r="16" stroke="#009" stroke-width="5" /><circle cx="2453.0" cy="1493.0" fill="#009" r="16" stroke="#009" stroke-width="5" /><circle cx="1941.0" cy="1445.0" fill="#009" r="16" stroke="#009" stroke-width="5" /><circle cx="1989.0" cy="1445.0" fill="#009" r="16" stroke="#009" stroke-width="5" /><circle cx="2037.0" cy="1445.0" fill="#009" r="16" stroke="#009" stroke-width="5" /><circle cx="2037.0" cy="1493.0" fill="#009" r="16" stroke="#009" stroke-width="5" /><circle cx="2037.0" cy="1541.0" fill="#009" r="16" stroke="#009" stroke-width="5" /><circle cx="1989.0" cy="1541.0" fill="#009" r="16" stroke="#009" stroke-width="5" /><circle cx="1941.0" cy="1541.0" fill="#009" r="16" stroke="#009" stroke-width="5" /><circle cx="1941.0" cy="1493.0" fill="#009" r="16" stroke="#009" stroke-width="5" /><circle cx="1989.0" cy="1493.0" fill="#009" r="16" stroke="#009" stroke-width="5" /><circle cx="2181.0" cy="1413.0" fill="#009" r="16" stroke="#009" stroke-width="5" /><circle cx="2229.0" cy="1461.0" fill="#009" r="16" stroke="#009" stroke-width="5" /><circle cx="2277.0" cy="1413.0" fill="#009" r="16" stroke="#009" stroke-width="5" /><circle cx="2277.0" cy="1365.0" fill="#009" r="16" stroke="#009" stroke-width="5" /><circle cx="2277.0" cy="1317.0" fill="#009" r="16" stroke="#009" stroke-width="5" /><circle cx="2277.0" cy="1269.0" fill="#009" r="16" stroke="#009" stroke-width="5" /><circle cx="2181.0" cy="1221.0" fill="#009" r="16" stroke="#009" stroke-width="5" /><circle cx="2181.0" cy="1269.0" fill="#009" r="16" stroke="#009" stroke-width="5" /><circle cx="2181.0" cy="1317.0" fill="#009" r="16" stroke="#009" stroke-width="5" /><circle cx="2181.0" cy="1365.0" fill="#009" r="16" stroke="#009" stroke-width="5" /><circle cx="2277.0" cy="1221.0" fill="#009" r="16" stroke="#009" stroke-width="5" /><circle cx="2229.0" cy="1221.0" fill="#009" r="16" stroke="#009" stroke-width="5" /><circle cx="2181.0" cy="1461.0" fill="#009" r="16" stroke="#009" stroke-width="5" /><circle cx="2277.0" cy="1461.0" fill="#009" r="16" stroke="#009" stroke-width="5" /><circle cx="2229.0" cy="1413.0" fill="#009" r="16" stroke="#009" stroke-width="5" /><circle cx="2229.0" cy="1365.0" fill="#009" r="16" stroke="#009" stroke-width="5" /><circle cx="2229.0" cy="1317.0" fill="#009" r="16" stroke="#009" stroke-width="5" /><circle cx="2229.0" cy="1269.0" fill="#009" r="16" stroke="#009" stroke-width="5" /><circle cx="1909.0" cy="1845.0" fill="#009" r="16" stroke="#009" stroke-width="5" /><circle cx="2533.0" cy="1845.0" fill="#009" r="16" stroke="#009" stroke-width="5" /><circle cx="2165.0" cy="1589.0" fill="#090" r="16" stroke="#090" stroke-width="5" /><circle cx="2213.0" cy="1589.0" fill="#090" r="16" stroke="#090" stroke-width="5" /><circle cx="2261.0" cy="1589.0" fill="#090" r="16" stroke="#090" stroke-width="5" /><circle cx="2309.0" cy="1589.0" fill="#090" r="16" stroke="#090" stroke-width="5" /><circle cx="2181.0" cy="1637.0" fill="#090" r="16" stroke="#090" stroke-width="5" /><circle cx="2229.0" cy="1637.0" fill="#090" r="16" stroke="#090" stroke-width="5" /><circle cx="2277.0" cy="1637.0" fill="#090" r="16" stroke="#090" stroke-width="5" /><circle cx="2261.0" cy="1685.0" fill="#090" r="16" stroke="#090" stroke-width="5" /><circle cx="2213.0" cy="1685.0" fill="#090" r="16" stroke="#090" stroke-width="5" /><circle cx="1909.0" cy="1717.0" fill="#009" r="16" stroke="#009" stroke-width="5" /><circle cx="2053.0" cy="1845.0" fill="#009" r="16" stroke="#009" stroke-width="5" /><circle cx="2373.0" cy="1845.0" fill="#009" r="16" stroke="#009" stroke-width="5" /><circle cx="2213.0" cy="1845.0" fill="#090" r="16" stroke="#090" stroke-width="5" /><circle cx="2165.0" cy="1845.0" fill="#090" r="16" stroke="#090" stroke-width="5" /><circle cx="2117.0" cy="1845.0" fill="#090" r="16" stroke="#090" stroke-width="5" /><circle cx="2261.0" cy="1845.0" fill="#090" r="16" stroke="#090" stroke-width="5" /><circle cx="2309.0" cy="1845.0" fill="#090" r="16" stroke="#090" stroke-width="5" /><circle cx="2245.0" cy="1141.0" fill="#009" r="16" stroke="#009" stroke-width="5" /><circle cx="629.0" cy="405.0" fill="#900" r="16" stroke="#900" stroke-width="5" /><circle cx="2149.0" cy="405.0" fill="#090" r="16" stroke="#090" stroke-width="5" /><circle cx="2773.0" cy="2405.0" fill="#900" r="16" stroke="#900" stroke-width="5" /><circle cx="2309.0" cy="37.0" fill="#090" r="16" stroke="#090" stroke-width="5" /><circle cx="2181.0" cy="37.0" fill="#090" r="16" stroke="#090" stroke-width="5" /><rect fill="#090" height="24" stroke="#090" stroke-width="5" transform="rotate(315,1797.0,1989.0)" width="24" x="1785.0" y="1977.0" /><rect fill="#090" height="24" stroke="#090" stroke-width="5" transform="rotate(225,2645.0,1989.0)" width="24" x="2633.0" y="1977.0" /><rect fill="#090" height="24" stroke="#090" stroke-width="5" transform="rotate(135,2645.0,613.0)" width="24" x="2633.0" y="601.0" /><rect fill="#090" height="24" stroke="#090" stroke-width="5" transform="rotate(45,1797.0,613.0)" width="24" x="1785.0" y="601.0" /><ellipse cx="2261.0" cy="101.0" fill="#009" rx="12" ry="24" stroke="#009" stroke-width="5" /><ellipse cx="2309.0" cy="117.0" fill="#009" rx="12" ry="24" stroke="#009" stroke-width="5" /><ellipse cx="2165.0" cy="117.0" fill="#009" rx="12" ry="24" stroke="#009" stroke-width="5" /><rect fill="#090" height="24" stroke="#090" stroke-width="5" transform="rotate(90,3973.0,2261.0)" width="24" x="3961.0" y="2249.0" /><circle cx="3925.0" cy="2261.0" fill="#090" r="16" stroke="#090" stroke-width="5" /></svg>