<?xml version="1.0" encoding="utf-8" ?>
<svg baseProfile="tiny" height="1024" version="1.2" viewBox="0 0 1882 2266" width="850" xmlns="http://www.w3.org/2000/svg" xmlns:ev="http://www.w3.org/2001/xml-events" xmlns:xlink="http://www.w3.org/1999/xlink"><defs /><line stroke="#333" stroke-width="10" x1="1573.0" x2="1669.0" y1="1493.0" y2="1429.0" /><line stroke="#999" stroke-width="3" x1="1477.0" x2="1573.0" y1="1493.0" y2="1493.0" /><line stroke="#333" stroke-width="10" x1="1669.0" x2="1573.0" y1="1301.0" y2="1237.0" /><line stroke="#999" stroke-width="3" x1="1669.0" x2="1669.0" y1="1429.0" y2="1301.0" /><line stroke="#333" stroke-width="10" x1="1477.0" x2="1381.0" y1="1237.0" y2="1301.0" /><line stroke="#666" stroke-width="20" x1="1573.0" x2="1477.0" y1="1237.0" y2="1237.0" /><line stroke="#333" stroke-width="10" x1="1381.0" x2="1477.0" y1="1429.0" y2="1493.0" /><line stroke="#333" stroke-width="10" x1="1381.0" x2="1381.0" y1="1301.0" y2="1429.0" /><line stroke="#333" stroke-width="10" x1="1733.0" x2="1797.0" y1="1237.0" y2="1141.0" /><line stroke="#333" stroke-width="10" x1="1573.0" x2="1733.0" y1="1205.0" y2="1237.0" /><line stroke="#333" stroke-width="10" x1="1797.0" x2="1573.0" y1="1077.0" y2="981.0" /><line stroke="#333" stroke-width="10" x1="1797.0" x2="1797.0" y1="1141.0" y2="1077.0" /><line stroke="#333" stroke-width="10" x1="1477.0" x2="1253.0" y1="981.0" y2="1077.0" /><line stroke="#666" stroke-width="20" x1="1573.0" x2="1477.0" y1="981.0" y2="981.0" /><line stroke="#333" stroke-width="10" x1="1253.0" x2="1317.0" y1="1141.0" y2="1237.0" /><line stroke="#333" stroke-width="10" x1="1253.0" x2="1253.0" y1="1077.0" y2="1141.0" /><line stroke="#666" stroke-width="20" x1="1477.0" x2="1573.0" y1="1205.0" y2="1205.0" /><line stroke="#333" stroke-width="10" x1="1317.0" x2="1477.0" y1="1237.0" y2="1205.0" /><line stroke="#333" stroke-width="10" x1="1573.0" x2="1573.0" y1="1237.0" y2="1205.0" /><line stroke="#333" stroke-width="10" x1="1477.0" x2="1477.0" y1="1205.0" y2="1237.0" /><line stroke="#333" stroke-width="10" x1="1573.0" x2="1573.0" y1="965.0" y2="917.0" /><line stroke="#666" stroke-width="20" x1="1477.0" x2="1573.0" y1="965.0" y2="965.0" /><line stroke="#333" stroke-width="10" x1="1477.0" x2="1477.0" y1="917.0" y2="965.0" /><line stroke="#999" stroke-width="3" x1="1573.0" x2="1477.0" y1="917.0" y2="917.0" /><line stroke="#333" stroke-width="10" x1="1573.0" x2="1573.0" y1="981.0" y2="965.0" /><line stroke="#333" stroke-width="10" x1="1477.0" x2="1477.0" y1="965.0" y2="981.0" /><line stroke="#999" stroke-width="3" x1="1573.0" x2="1573.0" y1="917.0" y2="741.0" /><line stroke="#999" stroke-width="3" x1="1477.0" x2="1477.0" y1="741.0" y2="917.0" /><line stroke="#666" stroke-width="20" x1="1573.0" x2="1477.0" y1="741.0" y2="741.0" /><line stroke="#333" stroke-width="10" x1="1621.0" x2="1669.0" y1="917.0" y2="901.0" /><line stroke="#333" stroke-width="10" x1="1573.0" x2="1621.0" y1="917.0" y2="917.0" /><line stroke="#333" stroke-width="10" x1="1701.0" x2="1717.0" y1="869.0" y2="837.0" /><line stroke="#333" stroke-width="10" x1="1669.0" x2="1701.0" y1="901.0" y2="869.0" /><line stroke="#333" stroke-width="10" x1="1717.0" x2="1701.0" y1="821.0" y2="789.0" /><line stroke="#333" stroke-width="10" x1="1717.0" x2="1717.0" y1="837.0" y2="821.0" /><line stroke="#333" stroke-width="10" x1="1669.0" x2="1621.0" y1="757.0" y2="741.0" /><line stroke="#333" stroke-width="10" x1="1701.0" x2="1669.0" y1="789.0" y2="757.0" /><line stroke="#333" stroke-width="10" x1="1621.0" x2="1573.0" y1="741.0" y2="741.0" /><line stroke="#333" stroke-width="10" x1="1429.0" x2="1381.0" y1="741.0" y2="757.0" /><line stroke="#333" stroke-width="10" x1="1477.0" x2="1429.0" y1="741.0" y2="741.0" /><line stroke="#333" stroke-width="10" x1="1349.0" x2="1333.0" y1="789.0" y2="821.0" /><line stroke="#333" stroke-width="10" x1="1381.0" x2="1349.0" y1="757.0" y2="789.0" /><line stroke="#333" stroke-width="10" x1="1333.0" x2="1349.0" y1="837.0" y2="869.0" /><line stroke="#333" stroke-width="10" x1="1333.0" x2="1333.0" y1="821.0" y2="837.0" /><line stroke="#333" stroke-width="10" x1="1381.0" x2="1429.0" y1="901.0" y2="917.0" /><line stroke="#333" stroke-width="10" x1="1349.0" x2="1381.0" y1="869.0" y2="901.0" /><line stroke="#333" stroke-width="10" x1="1429.0" x2="1477.0" y1="917.0" y2="917.0" /><line stroke="#999" stroke-width="3" x1="1573.0" x2="1477.0" y1="709.0" y2="709.0" /><line stroke="#333" stroke-width="10" x1="1573.0" x2="1573.0" y1="741.0" y2="709.0" /><line stroke="#333" stroke-width="10" x1="1477.0" x2="1477.0" y1="709.0" y2="741.0" /><line stroke="#333" stroke-width="10" x1="1573.0" x2="1573.0" y1="709.0" y2="677.0" /><line stroke="#333" stroke-width="10" x1="1477.0" x2="1477.0" y1="677.0" y2="709.0" /><line stroke="#999" stroke-width="3" x1="1573.0" x2="1477.0" y1="677.0" y2="677.0" /><line stroke="#333" stroke-width="10" x1="1573.0" x2="1573.0" y1="677.0" y2="645.0" /><line stroke="#333" stroke-width="10" x1="1477.0" x2="1477.0" y1="645.0" y2="677.0" /><line stroke="#999" stroke-width="3" x1="1573.0" x2="1477.0" y1="645.0" y2="645.0" /><line stroke="#999" stroke-width="3" x1="1605.0" x2="1605.0" y1="613.0" y2="549.0" /><line stroke="#333" stroke-width="10" x1="1573.0" x2="1605.0" y1="645.0" y2="613.0" /><line stroke="#333" stroke-width="10" x1="1573.0" x2="1477.0" y1="405.0" y2="405.0" /><line stroke="#333" stroke-width="10" x1="1605.0" x2="1573.0" y1="549.0" y2="405.0" /><line stroke="#999" stroke-width="3" x1="1381.0" x2="1381.0" y1="533.0" y2="597.0" /><line stroke="#333" stroke-width="10" x1="1477.0" x2="1381.0" y1="405.0" y2="533.0" /><line stroke="#333" stroke-width="10" x1="1381.0" x2="1477.0" y1="597.0" y2="645.0" /><line stroke="#333" stroke-width="10" x1="1669.0" x2="1669.0" y1="613.0" y2="549.0" /><line stroke="#999" stroke-width="3" x1="1605.0" x2="1669.0" y1="613.0" y2="613.0" /><line stroke="#333" stroke-width="10" x1="1669.0" x2="1605.0" y1="549.0" y2="549.0" /><line stroke="#333" stroke-width="10" x1="1669.0" x2="1669.0" y1="717.0" y2="613.0" /><line stroke="#333" stroke-width="10" x1="1605.0" x2="1669.0" y1="717.0" y2="717.0" /><line stroke="#333" stroke-width="10" x1="1605.0" x2="1605.0" y1="613.0" y2="717.0" /><line stroke="#333" stroke-width="10" x1="1573.0" x2="1573.0" y1="1573.0" y2="1493.0" /><line stroke="#999" stroke-width="3" x1="1477.0" x2="1573.0" y1="1573.0" y2="1573.0" /><line stroke="#333" stroke-width="10" x1="1477.0" x2="1477.0" y1="1493.0" y2="1573.0" /><line stroke="#333" stroke-width="10" x1="1877.0" x2="1877.0" y1="1429.0" y2="1301.0" /><line stroke="#333" stroke-width="10" x1="1685.0" x2="1877.0" y1="1429.0" y2="1429.0" /><line stroke="#999" stroke-width="3" x1="1685.0" x2="1685.0" y1="1301.0" y2="1429.0" /><line stroke="#333" stroke-width="10" x1="1877.0" x2="1685.0" y1="1301.0" y2="1301.0" /><line stroke="#333" stroke-width="10" x1="1669.0" x2="1685.0" y1="1429.0" y2="1429.0" /><line stroke="#333" stroke-width="10" x1="1685.0" x2="1669.0" y1="1301.0" y2="1301.0" /><line stroke="#333" stroke-width="10" x1="1349.0" x2="1381.0" y1="597.0" y2="597.0" /><line stroke="#999" stroke-width="3" x1="1349.0" x2="1349.0" y1="533.0" y2="597.0" /><line stroke="#333" stroke-width="10" x1="1381.0" x2="1349.0" y1="533.0" y2="533.0" /><line stroke="#333" stroke-width="10" x1="1317.0" x2="1349.0" y1="597.0" y2="597.0" /><line stroke="#999" stroke-width="3" x1="1317.0" x2="1317.0" y1="533.0" y2="597.0" /><line stroke="#333" stroke-width="10" x1="1349.0" x2="1317.0" y1="533.0" y2="533.0" /><line stroke="#333" stroke-width="10" x1="1285.0" x2="1317.0" y1="597.0" y2="597.0" /><line stroke="#999" stroke-width="3" x1="1285.0" x2="1285.0" y1="533.0" y2="597.0" /><line stroke="#333" stroke-width="10" x1="1317.0" x2="1285.0" y1="533.0" y2="533.0" /><line stroke="#333" stroke-width="10" x1="1125.0" x2="1285.0" y1="597.0" y2="597.0" /><line stroke="#999" stroke-width="3" x1="1125.0" x2="1125.0" y1="533.0" y2="597.0" /><line stroke="#333" stroke-width="10" x1="1285.0" x2="1125.0" y1="533.0" y2="533.0" /><line stroke="#999" stroke-width="3" x1="1061.0" x2="1125.0" y1="597.0" y2="597.0" /><line stroke="#333" stroke-width="10" x1="1061.0" x2="1061.0" y1="533.0" y2="597.0" /><line stroke="#333" stroke-width="10" x1="1125.0" x2="1061.0" y1="533.0" y2="533.0" /><line stroke="#333" stroke-width="10" x1="1125.0" x2="1125.0" y1="789.0" y2="597.0" /><line stroke="#999" stroke-width="3" x1="1061.0" x2="1125.0" y1="789.0" y2="789.0" /><line stroke="#333" stroke-width="10" x1="1061.0" x2="1061.0" y1="597.0" y2="789.0" /><line stroke="#333" stroke-width="10" x1="1125.0" x2="1125.0" y1="917.0" y2="789.0" /><line stroke="#999" stroke-width="3" x1="1061.0" x2="1125.0" y1="917.0" y2="917.0" /><line stroke="#333" stroke-width="10" x1="1061.0" x2="1061.0" y1="789.0" y2="917.0" /><line stroke="#333" stroke-width="10" x1="1125.0" x2="1125.0" y1="1077.0" y2="917.0" /><line stroke="#999" stroke-width="3" x1="1061.0" x2="1125.0" y1="1077.0" y2="1077.0" /><line stroke="#333" stroke-width="10" x1="1061.0" x2="1061.0" y1="917.0" y2="1077.0" /><line stroke="#333" stroke-width="10" x1="1125.0" x2="1125.0" y1="1141.0" y2="1077.0" /><line stroke="#999" stroke-width="3" x1="1061.0" x2="1125.0" y1="1141.0" y2="1141.0" /><line stroke="#999" stroke-width="3" x1="1061.0" x2="1061.0" y1="1077.0" y2="1141.0" /><line stroke="#333" stroke-width="10" x1="1573.0" x2="1573.0" y1="1597.0" y2="1573.0" /><line stroke="#333" stroke-width="10" x1="1477.0" x2="1573.0" y1="1597.0" y2="1597.0" /><line stroke="#333" stroke-width="10" x1="1477.0" x2="1477.0" y1="1573.0" y2="1597.0" /><line stroke="#333" stroke-width="10" x1="1125.0" x2="1125.0" y1="1157.0" y2="1141.0" /><line stroke="#999" stroke-width="3" x1="1125.0" x2="1061.0" y1="1157.0" y2="1157.0" /><line stroke="#333" stroke-width="10" x1="1061.0" x2="1061.0" y1="1141.0" y2="1157.0" /><line stroke="#333" stroke-width="10" x1="1125.0" x2="1125.0" y1="1213.0" y2="1157.0" /><line stroke="#333" stroke-width="10" x1="1133.0" x2="1125.0" y1="1245.0" y2="1213.0" /><line stroke="#999" stroke-width="3" x1="1077.0" x2="1133.0" y1="1245.0" y2="1245.0" /><line stroke="#333" stroke-width="10" x1="1061.0" x2="1077.0" y1="1213.0" y2="1245.0" /><line stroke="#333" stroke-width="10" x1="1061.0" x2="1061.0" y1="1157.0" y2="1213.0" /><line stroke="#333" stroke-width="10" x1="1029.0" x2="1061.0" y1="1141.0" y2="1141.0" /><line stroke="#333" stroke-width="10" x1="997.0" x2="1029.0" y1="1141.0" y2="1141.0" /><line stroke="#333" stroke-width="10" x1="965.0" x2="997.0" y1="1141.0" y2="1141.0" /><line stroke="#333" stroke-width="10" x1="933.0" x2="965.0" y1="1141.0" y2="1141.0" /><line stroke="#333" stroke-width="10" x1="885.0" x2="933.0" y1="1125.0" y2="1141.0" /><line stroke="#333" stroke-width="10" x1="853.0" x2="885.0" y1="1077.0" y2="1125.0" /><line stroke="#333" stroke-width="10" x1="853.0" x2="853.0" y1="1045.0" y2="1077.0" /><line stroke="#999" stroke-width="3" x1="933.0" x2="853.0" y1="1045.0" y2="1045.0" /><line stroke="#333" stroke-width="10" x1="933.0" x2="933.0" y1="1077.0" y2="1045.0" /><line stroke="#333" stroke-width="10" x1="965.0" x2="933.0" y1="1077.0" y2="1077.0" /><line stroke="#333" stroke-width="10" x1="997.0" x2="965.0" y1="1077.0" y2="1077.0" /><line stroke="#333" stroke-width="10" x1="1029.0" x2="997.0" y1="1077.0" y2="1077.0" /><line stroke="#333" stroke-width="10" x1="1061.0" x2="1029.0" y1="1077.0" y2="1077.0" /><line stroke="#999" stroke-width="3" x1="1029.0" x2="1029.0" y1="1077.0" y2="1141.0" /><line stroke="#999" stroke-width="3" x1="997.0" x2="997.0" y1="1077.0" y2="1141.0" /><line stroke="#999" stroke-width="3" x1="965.0" x2="965.0" y1="1077.0" y2="1141.0" /><line stroke="#999" stroke-width="3" x1="933.0" x2="933.0" y1="1077.0" y2="1141.0" /><line stroke="#999" stroke-width="3" x1="933.0" x2="885.0" y1="1077.0" y2="1125.0" /><line stroke="#999" stroke-width="3" x1="933.0" x2="853.0" y1="1077.0" y2="1077.0" /><line stroke="#333" stroke-width="10" x1="853.0" x2="853.0" y1="997.0" y2="1045.0" /><line stroke="#666" stroke-width="20" x1="933.0" x2="853.0" y1="997.0" y2="997.0" /><line stroke="#333" stroke-width="10" x1="933.0" x2="933.0" y1="1045.0" y2="997.0" /><line stroke="#333" stroke-width="10" x1="853.0" x2="853.0" y1="981.0" y2="997.0" /><line stroke="#666" stroke-width="20" x1="853.0" x2="933.0" y1="981.0" y2="981.0" /><line stroke="#333" stroke-width="10" x1="933.0" x2="933.0" y1="997.0" y2="981.0" /><line stroke="#333" stroke-width="10" x1="853.0" x2="853.0" y1="949.0" y2="981.0" /><line stroke="#333" stroke-width="10" x1="821.0" x2="853.0" y1="917.0" y2="949.0" /><line stroke="#333" stroke-width="10" x1="789.0" x2="821.0" y1="901.0" y2="917.0" /><line stroke="#333" stroke-width="10" x1="773.0" x2="789.0" y1="869.0" y2="901.0" /><line stroke="#333" stroke-width="10" x1="821.0" x2="773.0" y1="821.0" y2="869.0" /><line stroke="#333" stroke-width="10" x1="901.0" x2="821.0" y1="773.0" y2="821.0" /><line stroke="#333" stroke-width="10" x1="821.0" x2="901.0" y1="741.0" y2="773.0" /><line stroke="#333" stroke-width="10" x1="821.0" x2="821.0" y1="693.0" y2="741.0" /><line stroke="#999" stroke-width="3" x1="965.0" x2="821.0" y1="693.0" y2="693.0" /><line stroke="#333" stroke-width="10" x1="965.0" x2="965.0" y1="805.0" y2="693.0" /><line stroke="#333" stroke-width="10" x1="917.0" x2="965.0" y1="853.0" y2="805.0" /><line stroke="#333" stroke-width="10" x1="869.0" x2="917.0" y1="869.0" y2="853.0" /><line stroke="#333" stroke-width="10" x1="885.0" x2="869.0" y1="901.0" y2="869.0" /><line stroke="#333" stroke-width="10" x1="917.0" x2="885.0" y1="917.0" y2="901.0" /><line stroke="#333" stroke-width="10" x1="933.0" x2="917.0" y1="949.0" y2="917.0" /><line stroke="#333" stroke-width="10" x1="933.0" x2="933.0" y1="981.0" y2="949.0" /><line stroke="#333" stroke-width="10" x1="789.0" x2="821.0" y1="661.0" y2="693.0" /><line stroke="#333" stroke-width="10" x1="741.0" x2="789.0" y1="581.0" y2="661.0" /><line stroke="#333" stroke-width="10" x1="725.0" x2="741.0" y1="581.0" y2="581.0" /><line stroke="#333" stroke-width="10" x1="701.0" x2="725.0" y1="629.0" y2="581.0" /><line stroke="#999" stroke-width="3" x1="597.0" x2="701.0" y1="629.0" y2="629.0" /><line stroke="#333" stroke-width="10" x1="661.0" x2="597.0" y1="533.0" y2="629.0" /><line stroke="#333" stroke-width="10" x1="693.0" x2="661.0" y1="485.0" y2="533.0" /><line stroke="#333" stroke-width="10" x1="741.0" x2="693.0" y1="405.0" y2="485.0" /><line stroke="#333" stroke-width="10" x1="677.0" x2="741.0" y1="421.0" y2="405.0" /><line stroke="#333" stroke-width="10" x1="629.0" x2="677.0" y1="453.0" y2="421.0" /><line stroke="#333" stroke-width="10" x1="597.0" x2="629.0" y1="453.0" y2="453.0" /><line stroke="#333" stroke-width="10" x1="549.0" x2="597.0" y1="389.0" y2="453.0" /><line stroke="#333" stroke-width="10" x1="549.0" x2="549.0" y1="277.0" y2="389.0" /><line stroke="#333" stroke-width="10" x1="613.0" x2="549.0" y1="181.0" y2="277.0" /><line stroke="#333" stroke-width="10" x1="725.0" x2="613.0" y1="117.0" y2="181.0" /><line stroke="#666" stroke-width="20" x1="725.0" x2="725.0" y1="245.0" y2="117.0" /><line stroke="#333" stroke-width="10" x1="661.0" x2="725.0" y1="293.0" y2="245.0" /><line stroke="#333" stroke-width="10" x1="741.0" x2="661.0" y1="293.0" y2="293.0" /><line stroke="#333" stroke-width="10" x1="821.0" x2="741.0" y1="325.0" y2="293.0" /><line stroke="#333" stroke-width="10" x1="837.0" x2="821.0" y1="437.0" y2="325.0" /><line stroke="#333" stroke-width="10" x1="805.0" x2="837.0" y1="469.0" y2="437.0" /><line stroke="#333" stroke-width="10" x1="821.0" x2="805.0" y1="517.0" y2="469.0" /><line stroke="#333" stroke-width="10" x1="853.0" x2="821.0" y1="565.0" y2="517.0" /><line stroke="#333" stroke-width="10" x1="933.0" x2="853.0" y1="629.0" y2="565.0" /><line stroke="#333" stroke-width="10" x1="965.0" x2="933.0" y1="693.0" y2="629.0" /><line stroke="#333" stroke-width="10" x1="701.0" x2="701.0" y1="645.0" y2="629.0" /><line stroke="#333" stroke-width="10" x1="725.0" x2="701.0" y1="693.0" y2="645.0" /><line stroke="#333" stroke-width="10" x1="725.0" x2="725.0" y1="725.0" y2="693.0" /><line stroke="#333" stroke-width="10" x1="693.0" x2="725.0" y1="757.0" y2="725.0" /><line stroke="#666" stroke-width="20" x1="629.0" x2="693.0" y1="757.0" y2="757.0" /><line stroke="#333" stroke-width="10" x1="597.0" x2="629.0" y1="725.0" y2="757.0" /><line stroke="#333" stroke-width="10" x1="597.0" x2="597.0" y1="645.0" y2="725.0" /><line stroke="#333" stroke-width="10" x1="597.0" x2="597.0" y1="629.0" y2="645.0" /><line stroke="#999" stroke-width="3" x1="701.0" x2="597.0" y1="645.0" y2="645.0" /><line stroke="#333" stroke-width="10" x1="757.0" x2="725.0" y1="117.0" y2="117.0" /><line stroke="#999" stroke-width="3" x1="757.0" x2="757.0" y1="245.0" y2="117.0" /><line stroke="#333" stroke-width="10" x1="725.0" x2="757.0" y1="245.0" y2="245.0" /><line stroke="#333" stroke-width="10" x1="757.0" x2="757.0" y1="85.0" y2="117.0" /><line stroke="#333" stroke-width="10" x1="677.0" x2="757.0" y1="85.0" y2="85.0" /><line stroke="#333" stroke-width="10" x1="645.0" x2="677.0" y1="117.0" y2="85.0" /><line stroke="#999" stroke-width="3" x1="565.0" x2="645.0" y1="101.0" y2="117.0" /><line stroke="#333" stroke-width="10" x1="597.0" x2="565.0" y1="5.0" y2="101.0" /><line stroke="#333" stroke-width="10" x1="693.0" x2="597.0" y1="5.0" y2="5.0" /><line stroke="#333" stroke-width="10" x1="789.0" x2="693.0" y1="5.0" y2="5.0" /><line stroke="#333" stroke-width="10" x1="853.0" x2="789.0" y1="69.0" y2="5.0" /><line stroke="#333" stroke-width="10" x1="869.0" x2="853.0" y1="181.0" y2="69.0" /><line stroke="#333" stroke-width="10" x1="757.0" x2="869.0" y1="245.0" y2="181.0" /><line stroke="#333" stroke-width="10" x1="533.0" x2="469.0" y1="21.0" y2="21.0" /><line stroke="#333" stroke-width="10" x1="565.0" x2="533.0" y1="101.0" y2="21.0" /><line stroke="#999" stroke-width="3" x1="437.0" x2="565.0" y1="101.0" y2="101.0" /><line stroke="#333" stroke-width="10" x1="469.0" x2="437.0" y1="21.0" y2="101.0" /><line stroke="#333" stroke-width="10" x1="549.0" x2="645.0" y1="181.0" y2="117.0" /><line stroke="#333" stroke-width="10" x1="517.0" x2="549.0" y1="261.0" y2="181.0" /><line stroke="#999" stroke-width="3" x1="373.0" x2="517.0" y1="277.0" y2="261.0" /><line stroke="#333" stroke-width="10" x1="389.0" x2="373.0" y1="165.0" y2="277.0" /><line stroke="#333" stroke-width="10" x1="437.0" x2="389.0" y1="101.0" y2="165.0" /><line stroke="#333" stroke-width="10" x1="501.0" x2="517.0" y1="437.0" y2="261.0" /><line stroke="#999" stroke-width="3" x1="373.0" x2="501.0" y1="389.0" y2="437.0" /><line stroke="#333" stroke-width="10" x1="309.0" x2="373.0" y1="357.0" y2="389.0" /><line stroke="#333" stroke-width="10" x1="293.0" x2="309.0" y1="237.0" y2="357.0" /><line stroke="#333" stroke-width="10" x1="373.0" x2="293.0" y1="277.0" y2="237.0" /><line stroke="#333" stroke-width="10" x1="485.0" x2="501.0" y1="517.0" y2="437.0" /><line stroke="#999" stroke-width="3" x1="357.0" x2="485.0" y1="661.0" y2="517.0" /><line stroke="#999" stroke-width="3" x1="261.0" x2="357.0" y1="661.0" y2="661.0" /><line stroke="#333" stroke-width="10" x1="405.0" x2="261.0" y1="517.0" y2="661.0" /><line stroke="#333" stroke-width="10" x1="373.0" x2="405.0" y1="389.0" y2="517.0" /><line stroke="#333" stroke-width="10" x1="533.0" x2="485.0" y1="645.0" y2="517.0" /><line stroke="#333" stroke-width="10" x1="549.0" x2="533.0" y1="725.0" y2="645.0" /><line stroke="#333" stroke-width="10" x1="469.0" x2="549.0" y1="709.0" y2="725.0" /><line stroke="#333" stroke-width="10" x1="357.0" x2="469.0" y1="661.0" y2="709.0" /><line stroke="#333" stroke-width="10" x1="693.0" x2="693.0" y1="773.0" y2="757.0" /><line stroke="#333" stroke-width="10" x1="693.0" x2="693.0" y1="1109.0" y2="773.0" /><line stroke="#333" stroke-width="10" x1="773.0" x2="693.0" y1="1109.0" y2="1109.0" /><line stroke="#333" stroke-width="10" x1="773.0" x2="773.0" y1="1173.0" y2="1109.0" /><line stroke="#333" stroke-width="10" x1="693.0" x2="773.0" y1="1173.0" y2="1173.0" /><line stroke="#333" stroke-width="10" x1="693.0" x2="693.0" y1="1205.0" y2="1173.0" /><line stroke="#999" stroke-width="3" x1="629.0" x2="693.0" y1="1205.0" y2="1205.0" /><line stroke="#333" stroke-width="10" x1="629.0" x2="629.0" y1="773.0" y2="1205.0" /><line stroke="#333" stroke-width="10" x1="629.0" x2="629.0" y1="757.0" y2="773.0" /><line stroke="#666" stroke-width="20" x1="693.0" x2="629.0" y1="773.0" y2="773.0" /><line stroke="#333" stroke-width="10" x1="693.0" x2="693.0" y1="1269.0" y2="1205.0" /><line stroke="#333" stroke-width="10" x1="1077.0" x2="693.0" y1="1269.0" y2="1269.0" /><line stroke="#666" stroke-width="20" x1="1133.0" x2="1077.0" y1="1269.0" y2="1269.0" /><line stroke="#333" stroke-width="10" x1="1133.0" x2="1133.0" y1="1333.0" y2="1269.0" /><line stroke="#333" stroke-width="10" x1="693.0" x2="1133.0" y1="1333.0" y2="1333.0" /><line stroke="#333" stroke-width="10" x1="629.0" x2="693.0" y1="1285.0" y2="1333.0" /><line stroke="#333" stroke-width="10" x1="629.0" x2="629.0" y1="1205.0" y2="1285.0" /><line stroke="#333" stroke-width="10" x1="1133.0" x2="1133.0" y1="1269.0" y2="1245.0" /><line stroke="#333" stroke-width="10" x1="1077.0" x2="1077.0" y1="1245.0" y2="1269.0" /><line stroke="#333" stroke-width="10" x1="357.0" x2="357.0" y1="845.0" y2="661.0" /><line stroke="#666" stroke-width="20" x1="261.0" x2="357.0" y1="845.0" y2="845.0" /><line stroke="#333" stroke-width="10" x1="261.0" x2="261.0" y1="661.0" y2="845.0" /><line stroke="#333" stroke-width="10" x1="357.0" x2="357.0" y1="861.0" y2="845.0" /><line stroke="#666" stroke-width="20" x1="357.0" x2="261.0" y1="861.0" y2="861.0" /><line stroke="#333" stroke-width="10" x1="261.0" x2="261.0" y1="845.0" y2="861.0" /><line stroke="#333" stroke-width="10" x1="445.0" x2="357.0" y1="1005.0" y2="861.0" /><line stroke="#999" stroke-width="3" x1="445.0" x2="445.0" y1="1117.0" y2="1005.0" /><line stroke="#333" stroke-width="10" x1="357.0" x2="445.0" y1="1253.0" y2="1117.0" /><line stroke="#999" stroke-width="3" x1="261.0" x2="357.0" y1="1253.0" y2="1253.0" /><line stroke="#333" stroke-width="10" x1="165.0" x2="261.0" y1="1117.0" y2="1253.0" /><line stroke="#999" stroke-width="3" x1="165.0" x2="165.0" y1="1005.0" y2="1117.0" /><line stroke="#333" stroke-width="10" x1="261.0" x2="165.0" y1="861.0" y2="1005.0" /><line stroke="#333" stroke-width="10" x1="461.0" x2="445.0" y1="1005.0" y2="1005.0" /><line stroke="#333" stroke-width="10" x1="549.0" x2="461.0" y1="1005.0" y2="1005.0" /><line stroke="#333" stroke-width="10" x1="549.0" x2="549.0" y1="1117.0" y2="1005.0" /><line stroke="#333" stroke-width="10" x1="461.0" x2="549.0" y1="1117.0" y2="1117.0" /><line stroke="#333" stroke-width="10" x1="445.0" x2="461.0" y1="1117.0" y2="1117.0" /><line stroke="#999" stroke-width="3" x1="461.0" x2="461.0" y1="1005.0" y2="1117.0" /><line stroke="#333" stroke-width="10" x1="149.0" x2="165.0" y1="1117.0" y2="1117.0" /><line stroke="#333" stroke-width="10" x1="61.0" x2="149.0" y1="1117.0" y2="1117.0" /><line stroke="#333" stroke-width="10" x1="61.0" x2="61.0" y1="1005.0" y2="1117.0" /><line stroke="#333" stroke-width="10" x1="149.0" x2="61.0" y1="1005.0" y2="1005.0" /><line stroke="#333" stroke-width="10" x1="165.0" x2="149.0" y1="1005.0" y2="1005.0" /><line stroke="#999" stroke-width="3" x1="149.0" x2="149.0" y1="1117.0" y2="1005.0" /><line stroke="#333" stroke-width="10" x1="357.0" x2="357.0" y1="1365.0" y2="1253.0" /><line stroke="#999" stroke-width="3" x1="261.0" x2="357.0" y1="1373.0" y2="1365.0" /><line stroke="#999" stroke-width="3" x1="261.0" x2="261.0" y1="1253.0" y2="1373.0" /><line stroke="#333" stroke-width="10" x1="477.0" x2="357.0" y1="1509.0" y2="1365.0" /><line stroke="#333" stroke-width="10" x1="605.0" x2="477.0" y1="1533.0" y2="1509.0" /><line stroke="#333" stroke-width="10" x1="773.0" x2="605.0" y1="1509.0" y2="1533.0" /><line stroke="#333" stroke-width="10" x1="821.0" x2="773.0" y1="1589.0" y2="1509.0" /><line stroke="#333" stroke-width="10" x1="837.0" x2="821.0" y1="1677.0" y2="1589.0" /><line stroke="#333" stroke-width="10" x1="909.0" x2="837.0" y1="1669.0" y2="1677.0" /><line stroke="#333" stroke-width="10" x1="941.0" x2="909.0" y1="1597.0" y2="1669.0" /><line stroke="#333" stroke-width="10" x1="941.0" x2="941.0" y1="1533.0" y2="1597.0" /><line stroke="#333" stroke-width="10" x1="989.0" x2="941.0" y1="1493.0" y2="1533.0" /><line stroke="#333" stroke-width="10" x1="1053.0" x2="989.0" y1="1477.0" y2="1493.0" /><line stroke="#333" stroke-width="10" x1="1109.0" x2="1053.0" y1="1493.0" y2="1477.0" /><line stroke="#333" stroke-width="10" x1="1165.0" x2="1109.0" y1="1525.0" y2="1493.0" /><line stroke="#333" stroke-width="10" x1="1197.0" x2="1165.0" y1="1573.0" y2="1525.0" /><line stroke="#333" stroke-width="10" x1="1269.0" x2="1197.0" y1="1653.0" y2="1573.0" /><line stroke="#333" stroke-width="10" x1="1325.0" x2="1269.0" y1="1677.0" y2="1653.0" /><line stroke="#333" stroke-width="10" x1="1365.0" x2="1325.0" y1="1701.0" y2="1677.0" /><line stroke="#333" stroke-width="10" x1="1373.0" x2="1365.0" y1="1797.0" y2="1701.0" /><line stroke="#333" stroke-width="10" x1="1445.0" x2="1373.0" y1="1797.0" y2="1797.0" /><line stroke="#333" stroke-width="10" x1="1525.0" x2="1445.0" y1="1773.0" y2="1797.0" /><line stroke="#333" stroke-width="10" x1="1605.0" x2="1525.0" y1="1733.0" y2="1773.0" /><line stroke="#333" stroke-width="10" x1="1773.0" x2="1605.0" y1="1725.0" y2="1733.0" /><line stroke="#333" stroke-width="10" x1="1773.0" x2="1773.0" y1="1789.0" y2="1725.0" /><line stroke="#999" stroke-width="3" x1="1645.0" x2="1773.0" y1="1813.0" y2="1789.0" /><line stroke="#999" stroke-width="3" x1="1509.0" x2="1645.0" y1="1861.0" y2="1813.0" /><line stroke="#999" stroke-width="3" x1="1421.0" x2="1509.0" y1="1877.0" y2="1861.0" /><line stroke="#999" stroke-width="3" x1="1341.0" x2="1421.0" y1="1869.0" y2="1877.0" /><line stroke="#999" stroke-width="3" x1="1293.0" x2="1341.0" y1="1829.0" y2="1869.0" /><line stroke="#999" stroke-width="3" x1="1293.0" x2="1293.0" y1="1773.0" y2="1829.0" /><line stroke="#999" stroke-width="3" x1="1261.0" x2="1293.0" y1="1725.0" y2="1773.0" /><line stroke="#999" stroke-width="3" x1="1205.0" x2="1261.0" y1="1717.0" y2="1725.0" /><line stroke="#999" stroke-width="3" x1="1165.0" x2="1205.0" y1="1677.0" y2="1717.0" /><line stroke="#999" stroke-width="3" x1="1133.0" x2="1165.0" y1="1637.0" y2="1677.0" /><line stroke="#999" stroke-width="3" x1="1109.0" x2="1133.0" y1="1589.0" y2="1637.0" /><line stroke="#999" stroke-width="3" x1="1061.0" x2="1109.0" y1="1573.0" y2="1589.0" /><line stroke="#999" stroke-width="3" x1="1021.0" x2="1061.0" y1="1605.0" y2="1573.0" /><line stroke="#999" stroke-width="3" x1="1021.0" x2="1021.0" y1="1661.0" y2="1605.0" /><line stroke="#999" stroke-width="3" x1="1005.0" x2="1021.0" y1="1717.0" y2="1661.0" /><line stroke="#999" stroke-width="3" x1="949.0" x2="1005.0" y1="1765.0" y2="1717.0" /><line stroke="#999" stroke-width="3" x1="829.0" x2="949.0" y1="1781.0" y2="1765.0" /><line stroke="#999" stroke-width="3" x1="733.0" x2="829.0" y1="1725.0" y2="1781.0" /><line stroke="#999" stroke-width="3" x1="725.0" x2="733.0" y1="1653.0" y2="1725.0" /><line stroke="#999" stroke-width="3" x1="693.0" x2="725.0" y1="1605.0" y2="1653.0" /><line stroke="#999" stroke-width="3" x1="613.0" x2="693.0" y1="1629.0" y2="1605.0" /><line stroke="#999" stroke-width="3" x1="477.0" x2="613.0" y1="1605.0" y2="1629.0" /><line stroke="#999" stroke-width="3" x1="381.0" x2="477.0" y1="1525.0" y2="1605.0" /><line stroke="#999" stroke-width="3" x1="261.0" x2="381.0" y1="1373.0" y2="1525.0" /><line stroke="#333" stroke-width="10" x1="1773.0" x2="1773.0" y1="2053.0" y2="1789.0" /><line stroke="#333" stroke-width="10" x1="1525.0" x2="1773.0" y1="2069.0" y2="2053.0" /><line stroke="#333" stroke-width="10" x1="1213.0" x2="1525.0" y1="2045.0" y2="2069.0" /><line stroke="#666" stroke-width="20" x1="1069.0" x2="1213.0" y1="2045.0" y2="2045.0" /><line stroke="#333" stroke-width="10" x1="885.0" x2="1069.0" y1="2029.0" y2="2045.0" /><line stroke="#333" stroke-width="10" x1="645.0" x2="885.0" y1="1965.0" y2="2029.0" /><line stroke="#333" stroke-width="10" x1="389.0" x2="645.0" y1="2061.0" y2="1965.0" /><line stroke="#333" stroke-width="10" x1="229.0" x2="389.0" y1="1965.0" y2="2061.0" /><line stroke="#333" stroke-width="10" x1="5.0" x2="229.0" y1="1677.0" y2="1965.0" /><line stroke="#333" stroke-width="10" x1="5.0" x2="5.0" y1="1517.0" y2="1677.0" /><line stroke="#333" stroke-width="10" x1="221.0" x2="5.0" y1="1253.0" y2="1517.0" /><line stroke="#333" stroke-width="10" x1="261.0" x2="221.0" y1="1253.0" y2="1253.0" /><line stroke="#333" stroke-width="10" x1="1213.0" x2="1213.0" y1="2061.0" y2="2045.0" /><line stroke="#333" stroke-width="10" x1="1213.0" x2="1213.0" y1="2189.0" y2="2061.0" /><line stroke="#333" stroke-width="10" x1="1181.0" x2="1213.0" y1="2261.0" y2="2189.0" /><line stroke="#0d0" stroke-width="20" x1="1117.0" x2="1181.0" y1="2261.0" y2="2261.0" /><line stroke="#333" stroke-width="10" x1="1069.0" x2="1117.0" y1="2181.0" y2="2261.0" /><line stroke="#333" stroke-width="10" x1="1069.0" x2="1069.0" y1="2061.0" y2="2181.0" /><line stroke="#333" stroke-width="10" x1="1069.0" x2="1069.0" y1="2045.0" y2="2061.0" /><line stroke="#666" stroke-width="20" x1="1213.0" x2="1069.0" y1="2061.0" y2="2061.0" /><ellipse cx="1525.0" cy="1333.0" fill="#009" rx="12" ry="24" stroke="#009" stroke-width="5" /><rect fill="#900" height="48" stroke="#900" stroke-width="5" transform="rotate(180,1701.0,1205.0)" width="32" x="1685.0" y="1181.0" /><rect fill="#900" height="48" stroke="#900" stroke-width="5" transform="rotate(0,1349.0,1205.0)" width="32" x="1333.0" y="1181.0" /><rect fill="#900" height="48" stroke="#900" stroke-width="5" transform="rotate(0,1445.0,885.0)" width="32" x="1429.0" y="861.0" /><rect fill="#900" height="48" stroke="#900" stroke-width="5" transform="rotate(180,1605.0,885.0)" width="32" x="1589.0" y="861.0" /><rect fill="#900" height="48" stroke="#900" stroke-width="5" transform="rotate(270,1637.0,653.0)" width="32" x="1621.0" y="629.0" /><circle cx="1637.0" cy="693.0" fill="#009" r="16" stroke="#009" stroke-width="5" /><rect fill="#900" height="48" stroke="#900" stroke-width="5" transform="rotate(270,1525.0,1541.0)" width="32" x="1509.0" y="1517.0" /><rect fill="#090" height="24" stroke="#090" stroke-width="5" transform="rotate(180,1749.0,1365.0)" width="24" x="1737.0" y="1353.0" /><rect fill="#900" height="48" stroke="#900" stroke-width="5" transform="rotate(180,1829.0,1365.0)" width="32" x="1813.0" y="1341.0" /><rect fill="#900" height="48" stroke="#900" stroke-width="5" transform="rotate(90,1093.0,757.0)" width="32" x="1077.0" y="733.0" /><circle cx="1497.0" cy="1519.0" fill="#090" r="16" stroke="#090" stroke-width="5" /><circle cx="1553.0" cy="1517.0" fill="#009" r="16" stroke="#009" stroke-width="5" /><circle cx="1796.0" cy="1406.0" fill="#090" r="16" stroke="#090" stroke-width="5" /><circle cx="1792.0" cy="1326.0" fill="#090" r="16" stroke="#090" stroke-width="5" /><circle cx="1095.0" cy="1220.0" fill="#009" r="16" stroke="#009" stroke-width="5" /><circle cx="1095.0" cy="1176.0" fill="#009" r="16" stroke="#009" stroke-width="5" /><circle cx="1497.0" cy="1576.0" fill="#009" r="16" stroke="#009" stroke-width="5" /><rect fill="#900" height="48" stroke="#900" stroke-width="5" transform="rotate(135,909.0,819.0)" width="32" x="893.0" y="795.0" /><rect fill="#900" height="48" stroke="#900" stroke-width="5" transform="rotate(90,853.0,725.0)" width="32" x="837.0" y="701.0" /><rect fill="#900" height="48" stroke="#900" stroke-width="5" transform="rotate(315,677.0,597.0)" width="32" x="661.0" y="573.0" /><rect fill="#900" height="48" stroke="#900" stroke-width="5" transform="rotate(315,613.0,421.0)" width="32" x="597.0" y="397.0" /><rect fill="#090" height="24" stroke="#090" stroke-width="5" transform="rotate(90,627.0,237.0)" width="24" x="615.0" y="225.0" /><rect fill="#900" height="48" stroke="#900" stroke-width="5" transform="rotate(270,690.0,705.0)" width="32" x="674.0" y="681.0" /><rect fill="#090" height="24" stroke="#090" stroke-width="5" transform="rotate(90,501.0,37.0)" width="24" x="489.0" y="25.0" /><rect fill="#090" height="24" stroke="#090" stroke-width="5" transform="rotate(90,517.0,693.0)" width="24" x="505.0" y="681.0" /><rect fill="#090" height="24" stroke="#090" stroke-width="5" transform="rotate(90,485.0,661.0)" width="24" x="473.0" y="649.0" /><rect fill="#900" height="48" stroke="#900" stroke-width="5" transform="rotate(0,724.0,61.0)" width="32" x="708.0" y="37.0" /><rect fill="#900" height="48" stroke="#900" stroke-width="5" transform="rotate(0,329.0,287.0)" width="32" x="313.0" y="263.0" /><rect fill="#090" height="24" stroke="#090" stroke-width="5" transform="rotate(270,478.0,604.0)" width="24" x="466.0" y="592.0" /><rect fill="#900" height="48" stroke="#900" stroke-width="5" transform="rotate(180,741.0,1141.0)" width="32" x="725.0" y="1117.0" /><circle cx="949.0" cy="1301.0" fill="#009" r="16" stroke="#009" stroke-width="5" /><rect fill="#090" height="24" stroke="#090" stroke-width="5" transform="rotate(90,853.0,1301.0)" width="24" x="841.0" y="1289.0" /><rect fill="#900" height="48" stroke="#900" stroke-width="5" transform="rotate(225,486.0,1090.0)" width="32" x="470.0" y="1066.0" /><rect fill="#900" height="48" stroke="#900" stroke-width="5" transform="rotate(180,486.0,1032.0)" width="32" x="470.0" y="1008.0" /><rect fill="#900" height="48" stroke="#900" stroke-width="5" transform="rotate(0,129.0,1095.0)" width="32" x="113.0" y="1071.0" /><rect fill="#900" height="48" stroke="#900" stroke-width="5" transform="rotate(270,309.0,1221.0)" width="32" x="293.0" y="1197.0" /><rect fill="#900" height="48" stroke="#900" stroke-width="5" transform="rotate(0,117.0,1039.0)" width="32" x="101.0" y="1015.0" /><rect fill="#900" height="48" stroke="#900" stroke-width="5" transform="rotate(0,196.0,1720.0)" width="32" x="180.0" y="1696.0" /><rect fill="#900" height="48" stroke="#900" stroke-width="5" transform="rotate(0,1536.0,1975.0)" width="32" x="1520.0" y="1951.0" /><rect fill="#900" height="48" stroke="#900" stroke-width="5" transform="rotate(0,436.0,1760.0)" width="32" x="420.0" y="1736.0" /><rect fill="#900" height="48" stroke="#900" stroke-width="5" transform="rotate(0,1076.0,1860.0)" width="32" x="1060.0" y="1836.0" /><rect fill="#900" height="48" stroke="#900" stroke-width="5" transform="rotate(0,796.0,1935.0)" width="32" x="780.0" y="1911.0" /><rect fill="#900" height="48" stroke="#900" stroke-width="5" transform="rotate(0,531.0,1810.0)" width="32" x="515.0" y="1786.0" /><rect fill="#900" height="48" stroke="#900" stroke-width="5" transform="rotate(0,261.0,1630.0)" width="32" x="245.0" y="1606.0" /><rect fill="#900" height="48" stroke="#900" stroke-width="5" transform="rotate(0,331.0,1840.0)" width="32" x="315.0" y="1816.0" /><rect fill="#900" height="48" stroke="#900" stroke-width="5" transform="rotate(0,1371.0,1965.0)" width="32" x="1355.0" y="1941.0" /><rect fill="#900" height="48" stroke="#900" stroke-width="5" transform="rotate(0,1646.0,1920.0)" width="32" x="1630.0" y="1896.0" /><rect fill="#900" height="48" stroke="#900" stroke-width="5" transform="rotate(0,376.0,1680.0)" width="32" x="360.0" y="1656.0" /><rect fill="#900" height="48" stroke="#900" stroke-width="5" transform="rotate(0,951.0,1960.0)" width="32" x="935.0" y="1936.0" /><rect fill="#900" height="48" stroke="#900" stroke-width="5" transform="rotate(0,716.0,1785.0)" width="32" x="700.0" y="1761.0" /><rect fill="#900" height="48" stroke="#900" stroke-width="5" transform="rotate(0,601.0,1840.0)" width="32" x="585.0" y="1816.0" /><rect fill="#900" height="48" stroke="#900" stroke-width="5" transform="rotate(0,486.0,1920.0)" width="32" x="470.0" y="1896.0" /><rect fill="#900" height="48" stroke="#900" stroke-width="5" transform="rotate(0,281.0,1895.0)" width="32" x="265.0" y="1871.0" /><rect fill="#900" height="48" stroke="#900" stroke-width="5" transform="rotate(0,101.0,1585.0)" width="32" x="85.0" y="1561.0" /><rect fill="#900" height="48" stroke="#900" stroke-width="5" transform="rotate(0,266.0,1540.0)" width="32" x="250.0" y="1516.0" /><rect fill="#900" height="48" stroke="#900" stroke-width="5" transform="rotate(0,566.0,1680.0)" width="32" x="550.0" y="1656.0" /><rect fill="#900" height="48" stroke="#900" stroke-width="5" transform="rotate(0,951.0,1870.0)" width="32" x="935.0" y="1846.0" /><rect fill="#900" height="48" stroke="#900" stroke-width="5" transform="rotate(0,1176.0,1880.0)" width="32" x="1160.0" y="1856.0" /><rect fill="#900" height="48" stroke="#900" stroke-width="5" transform="rotate(90,981.0,1565.0)" width="32" x="965.0" y="1541.0" /><rect fill="#900" height="48" stroke="#900" stroke-width="5" transform="rotate(0,686.0,1900.0)" width="32" x="670.0" y="1876.0" /><rect fill="#900" height="48" stroke="#900" stroke-width="5" transform="rotate(270,636.0,705.0)" width="32" x="620.0" y="681.0" /><circle cx="1676.0" cy="1775.0" fill="#900" r="16" stroke="#900" stroke-width="5" /><circle cx="1041.0" cy="1300.0" fill="#900" r="16" stroke="#900" stroke-width="5" /><circle cx="1101.0" cy="1301.0" fill="#090" r="16" stroke="#090" stroke-width="5" /><circle cx="1725.0" cy="1786.0" fill="#090" r="16" stroke="#090" stroke-width="5" /><circle cx="750.0" cy="1573.0" fill="#090" r="16" stroke="#090" stroke-width="5" /><circle cx="334.0" cy="1408.0" fill="#009" r="16" stroke="#009" stroke-width="5" /><circle cx="1056.0" cy="1528.0" fill="#009" r="16" stroke="#009" stroke-width="5" /><circle cx="1593.0" cy="1789.0" fill="#009" r="16" stroke="#009" stroke-width="5" /><rect fill="#090" height="24" stroke="#090" stroke-width="5" transform="rotate(90,1279.0,1097.0)" width="24" x="1267.0" y="1085.0" /><rect fill="#090" height="24" stroke="#090" stroke-width="5" transform="rotate(90,1767.0,1097.0)" width="24" x="1755.0" y="1085.0" /><rect fill="#090" height="24" stroke="#090" stroke-width="5" transform="rotate(0,1071.0,1633.0)" width="24" x="1059.0" y="1621.0" /><rect fill="#900" height="48" stroke="#900" stroke-width="5" transform="rotate(270,1148.0,2104.0)" width="32" x="1132.0" y="2080.0" /><rect fill="#090" height="24" stroke="#090" stroke-width="5" transform="rotate(0,1447.0,1401.0)" width="24" x="1435.0" y="1389.0" /><rect fill="#900" height="48" stroke="#900" stroke-width="5" transform="rotate(270,160.0,1496.0)" width="32" x="144.0" y="1472.0" /><rect fill="#900" height="48" stroke="#900" stroke-width="5" transform="rotate(270,268.0,1780.0)" width="32" x="252.0" y="1756.0" /><rect fill="#900" height="48" stroke="#900" stroke-width="5" transform="rotate(270,1116.0,1764.0)" width="32" x="1100.0" y="1740.0" /><rect fill="#900" height="48" stroke="#900" stroke-width="5" transform="rotate(270,1224.0,1772.0)" width="32" x="1208.0" y="1748.0" /><rect fill="#900" height="48" stroke="#900" stroke-width="5" transform="rotate(0,672.0,1680.0)" width="32" x="656.0" y="1656.0" /><rect fill="#900" height="48" stroke="#900" stroke-width="5" transform="rotate(0,384.0,1576.0)" width="32" x="368.0" y="1552.0" /><rect fill="#900" height="48" stroke="#900" stroke-width="5" transform="rotate(0,840.0,1844.0)" width="32" x="824.0" y="1820.0" /><rect fill="#900" height="48" stroke="#900" stroke-width="5" transform="rotate(0,1052.0,1964.0)" width="32" x="1036.0" y="1940.0" /><rect fill="#900" height="48" stroke="#900" stroke-width="5" transform="rotate(0,396.0,1996.0)" width="32" x="380.0" y="1972.0" /><rect fill="#900" height="48" stroke="#900" stroke-width="5" transform="rotate(0,1012.0,1780.0)" width="32" x="996.0" y="1756.0" /><rect fill="#900" height="48" stroke="#900" stroke-width="5" transform="rotate(0,1244.0,1980.0)" width="32" x="1228.0" y="1956.0" /><rect fill="#900" height="48" stroke="#900" stroke-width="5" transform="rotate(270,1145.0,2191.0)" width="32" x="1129.0" y="2167.0" /><rect fill="#090" height="24" stroke="#090" stroke-width="5" transform="rotate(0,232.0,1324.0)" width="24" x="220.0" y="1312.0" /><rect fill="#090" height="24" stroke="#090" stroke-width="5" transform="rotate(90,501.0,72.0)" width="24" x="489.0" y="60.0" /><rect fill="#090" height="24" stroke="#090" stroke-width="5" transform="rotate(0,77.0,1095.0)" width="24" x="65.0" y="1083.0" /><ellipse cx="1565.0" cy="1333.0" fill="#009" rx="12" ry="24" stroke="#009" stroke-width="5" /><ellipse cx="1485.0" cy="1333.0" fill="#009" rx="12" ry="24" stroke="#009" stroke-width="5" /><ellipse cx="1525.0" cy="1373.0" fill="#009" rx="12" ry="24" stroke="#009" stroke-width="5" /><rect fill="#090" height="24" stroke="#090" stroke-width="5" transform="rotate(90,1525.0,1293.0)" width="24" x="1513.0" y="1281.0" /><rect fill="#090" height="24" stroke="#090" stroke-width="5" transform="rotate(180,1095.0,1110.0)" width="24" x="1083.0" y="1098.0" /><rect fill="#090" height="24" stroke="#090" stroke-width="5" transform="rotate(90,180.0,1362.0)" width="24" x="168.0" y="1350.0" /><circle cx="216.0" cy="1410.0" fill="#900" r="16" stroke="#900" stroke-width="5" /><rect fill="#090" height="24" stroke="#090" stroke-width="5" transform="rotate(90,1637.0,586.0)" width="24" x="1625.0" y="574.0" /><circle cx="1637.0" cy="638.0" fill="#900" r="16" stroke="#900" stroke-width="5" /><circle cx="789.0" cy="554.0" fill="#090" r="16" stroke="#090" stroke-width="5" /><circle cx="309.0" cy="1050.0" fill="#090" r="16" stroke="#090" stroke-width="5" /><circle cx="1521.0" cy="938.0" fill="#009" r="16" stroke="#009" stroke-width="5" /><circle cx="71.0" cy="1051.0" fill="#900" r="16" stroke="#900" stroke-width="5" /><circle cx="174.0" cy="1614.0" fill="#009" r="16" stroke="#009" stroke-width="5" /><circle cx="1740.0" cy="2004.0" fill="#009" r="16" stroke="#009" stroke-width="5" /><circle cx="1066.0" cy="1593.0" fill="#090" r="16" stroke="#090" stroke-width="5" /><circle cx="682.0" cy="1635.0" fill="#090" r="16" stroke="#090" stroke-width="5" /><circle cx="1729.0" cy="1848.0" fill="#009" r="16" stroke="#009" stroke-width="5" /><circle cx="338.0" cy="337.0" fill="#090" r="16" stroke="#090" stroke-width="5" /></svg>