<?xml version="1.0" encoding="utf-8" ?>
<svg baseProfile="tiny" height="1024" version="1.2" viewBox="0 0 2010 2010" width="1024" xmlns="http://www.w3.org/2000/svg" xmlns:ev="http://www.w3.org/2001/xml-events" xmlns:xlink="http://www.w3.org/1999/xlink"><defs /><line stroke="#333" stroke-width="10" x1="5.0" x2="757.0" y1="2005.0" y2="2005.0" /><line stroke="#333" stroke-width="10" x1="2005.0" x2="1949.0" y1="2005.0" y2="1189.0" /><line stroke="#333" stroke-width="10" x1="2005.0" x2="5.0" y1="5.0" y2="5.0" /><line stroke="#333" stroke-width="10" x1="5.0" x2="5.0" y1="5.0" y2="1389.0" /><line stroke="#333" stroke-width="10" x1="549.0" x2="1549.0" y1="925.0" y2="925.0" /><line stroke="#333" stroke-width="10" x1="1549.0" x2="1949.0" y1="925.0" y2="1189.0" /><line stroke="#333" stroke-width="10" x1="1949.0" x2="949.0" y1="1189.0" y2="1189.0" /><line stroke="#333" stroke-width="10" x1="949.0" x2="549.0" y1="1189.0" y2="925.0" /><line stroke="#333" stroke-width="10" x1="1949.0" x2="2005.0" y1="1189.0" y2="5.0" /><line stroke="#333" stroke-width="10" x1="5.0" x2="981.0" y1="1389.0" y2="1389.0" /><line stroke="#333" stroke-width="10" x1="437.0" x2="5.0" y1="1693.0" y2="1389.0" /><line stroke="#333" stroke-width="10" x1="1437.0" x2="437.0" y1="1693.0" y2="1693.0" /><line stroke="#333" stroke-width="10" x1="981.0" x2="1437.0" y1="1389.0" y2="1693.0" /><line stroke="#333" stroke-width="10" x1="5.0" x2="5.0" y1="1389.0" y2="2005.0" /><line stroke="#333" stroke-width="10" x1="1053.0" x2="2005.0" y1="2005.0" y2="2005.0" /><line stroke="#0d0" stroke-width="20" x1="757.0" x2="1053.0" y1="2005.0" y2="2005.0" /><ellipse cx="941.0" cy="93.0" fill="#009" rx="12" ry="24" stroke="#009" stroke-width="5" /><rect fill="#900" height="48" stroke="#900" stroke-width="5" transform="rotate(270,245.0,637.0)" width="32" x="229.0" y="613.0" /><rect fill="#900" height="48" stroke="#900" stroke-width="5" transform="rotate(270,1717.0,645.0)" width="32" x="1701.0" y="621.0" /><rect fill="#900" height="48" stroke="#900" stroke-width="5" transform="rotate(270,549.0,637.0)" width="32" x="533.0" y="613.0" /><rect fill="#900" height="48" stroke="#900" stroke-width="5" transform="rotate(270,853.0,637.0)" width="32" x="837.0" y="613.0" /><rect fill="#900" height="48" stroke="#900" stroke-width="5" transform="rotate(270,1149.0,637.0)" width="32" x="1133.0" y="613.0" /><rect fill="#900" height="48" stroke="#900" stroke-width="5" transform="rotate(270,1421.0,637.0)" width="32" x="1405.0" y="613.0" /><rect fill="#900" height="48" stroke="#900" stroke-width="5" transform="rotate(0,157.0,1901.0)" width="32" x="141.0" y="1877.0" /><rect fill="#900" height="48" stroke="#900" stroke-width="5" transform="rotate(0,461.0,1901.0)" width="32" x="445.0" y="1877.0" /><rect fill="#900" height="48" stroke="#900" stroke-width="5" transform="rotate(0,757.0,1901.0)" width="32" x="741.0" y="1877.0" /><rect fill="#900" height="48" stroke="#900" stroke-width="5" transform="rotate(0,1029.0,1901.0)" width="32" x="1013.0" y="1877.0" /><rect fill="#900" height="48" stroke="#900" stroke-width="5" transform="rotate(0,157.0,1813.0)" width="32" x="141.0" y="1789.0" /><rect fill="#900" height="48" stroke="#900" stroke-width="5" transform="rotate(0,461.0,1813.0)" width="32" x="445.0" y="1789.0" /><rect fill="#900" height="48" stroke="#900" stroke-width="5" transform="rotate(0,757.0,1813.0)" width="32" x="741.0" y="1789.0" /><rect fill="#900" height="48" stroke="#900" stroke-width="5" transform="rotate(0,1029.0,1813.0)" width="32" x="1013.0" y="1789.0" /><circle cx="933.0" cy="213.0" fill="#900" r="16" stroke="#900" stroke-width="5" /><circle cx="1013.0" cy="213.0" fill="#090" r="16" stroke="#090" stroke-width="5" /><circle cx="1021.0" cy="301.0" fill="#090" r="16" stroke="#090" stroke-width="5" /><circle cx="853.0" cy="213.0" fill="#090" r="16" stroke="#090" stroke-width="5" /><circle cx="861.0" cy="301.0" fill="#090" r="16" stroke="#090" stroke-width="5" /><circle cx="1021.0" cy="365.0" fill="#090" r="16" stroke="#090" stroke-width="5" /><circle cx="861.0" cy="365.0" fill="#090" r="16" stroke="#090" stroke-width="5" /></svg>