<?xml version="1.0" encoding="utf-8" ?>
<svg baseProfile="tiny" height="689" version="1.2" viewBox="0 0 2058 1386" width="1024" xmlns="http://www.w3.org/2000/svg" xmlns:ev="http://www.w3.org/2001/xml-events" xmlns:xlink="http://www.w3.org/1999/xlink"><defs /><line stroke="#333" stroke-width="10" x1="261.0" x2="261.0" y1="325.0" y2="453.0" /><line stroke="#333" stroke-width="10" x1="389.0" x2="261.0" y1="325.0" y2="325.0" /><line stroke="#333" stroke-width="10" x1="453.0" x2="389.0" y1="325.0" y2="325.0" /><line stroke="#333" stroke-width="10" x1="453.0" x2="453.0" y1="389.0" y2="325.0" /><line stroke="#333" stroke-width="10" x1="965.0" x2="453.0" y1="389.0" y2="389.0" /><line stroke="#333" stroke-width="10" x1="965.0" x2="965.0" y1="965.0" y2="389.0" /><line stroke="#333" stroke-width="10" x1="2053.0" x2="1957.0" y1="869.0" y2="869.0" /><line stroke="#333" stroke-width="10" x1="1285.0" x2="2053.0" y1="1381.0" y2="1381.0" /><line stroke="#333" stroke-width="10" x1="901.0" x2="1285.0" y1="1029.0" y2="1029.0" /><line stroke="#333" stroke-width="10" x1="901.0" x2="901.0" y1="453.0" y2="1029.0" /><line stroke="#333" stroke-width="10" x1="453.0" x2="901.0" y1="453.0" y2="453.0" /><line stroke="#333" stroke-width="10" x1="453.0" x2="453.0" y1="517.0" y2="453.0" /><line stroke="#333" stroke-width="10" x1="5.0" x2="453.0" y1="517.0" y2="517.0" /><line stroke="#333" stroke-width="10" x1="5.0" x2="5.0" y1="5.0" y2="517.0" /><line stroke="#333" stroke-width="10" x1="1413.0" x2="5.0" y1="5.0" y2="5.0" /><line stroke="#333" stroke-width="10" x1="1413.0" x2="1413.0" y1="645.0" y2="5.0" /><line stroke="#333" stroke-width="10" x1="1733.0" x2="1413.0" y1="645.0" y2="645.0" /><line stroke="#333" stroke-width="10" x1="1733.0" x2="1733.0" y1="197.0" y2="645.0" /><line stroke="#333" stroke-width="10" x1="1989.0" x2="1733.0" y1="197.0" y2="197.0" /><line stroke="#333" stroke-width="10" x1="1989.0" x2="1989.0" y1="261.0" y2="197.0" /><line stroke="#333" stroke-width="10" x1="1797.0" x2="1989.0" y1="261.0" y2="261.0" /><line stroke="#333" stroke-width="10" x1="1797.0" x2="1797.0" y1="709.0" y2="261.0" /><line stroke="#333" stroke-width="10" x1="1029.0" x2="1797.0" y1="709.0" y2="709.0" /><line stroke="#333" stroke-width="10" x1="1029.0" x2="1029.0" y1="261.0" y2="709.0" /><line stroke="#333" stroke-width="10" x1="1093.0" x2="1029.0" y1="261.0" y2="261.0" /><line stroke="#333" stroke-width="10" x1="1093.0" x2="1093.0" y1="645.0" y2="261.0" /><line stroke="#333" stroke-width="10" x1="1349.0" x2="1093.0" y1="645.0" y2="645.0" /><line stroke="#333" stroke-width="10" x1="1349.0" x2="1349.0" y1="517.0" y2="645.0" /><line stroke="#333" stroke-width="10" x1="1157.0" x2="1349.0" y1="517.0" y2="517.0" /><line stroke="#333" stroke-width="10" x1="1157.0" x2="1157.0" y1="453.0" y2="517.0" /><line stroke="#333" stroke-width="10" x1="1349.0" x2="1157.0" y1="453.0" y2="453.0" /><line stroke="#333" stroke-width="10" x1="1349.0" x2="1349.0" y1="389.0" y2="453.0" /><line stroke="#333" stroke-width="10" x1="1221.0" x2="1349.0" y1="389.0" y2="389.0" /><line stroke="#333" stroke-width="10" x1="1221.0" x2="1221.0" y1="325.0" y2="389.0" /><line stroke="#333" stroke-width="10" x1="1349.0" x2="1221.0" y1="325.0" y2="325.0" /><line stroke="#333" stroke-width="10" x1="1349.0" x2="1349.0" y1="261.0" y2="325.0" /><line stroke="#333" stroke-width="10" x1="1285.0" x2="1349.0" y1="261.0" y2="261.0" /><line stroke="#333" stroke-width="10" x1="1285.0" x2="1285.0" y1="197.0" y2="261.0" /><line stroke="#333" stroke-width="10" x1="1349.0" x2="1285.0" y1="197.0" y2="197.0" /><line stroke="#333" stroke-width="10" x1="1349.0" x2="1349.0" y1="69.0" y2="197.0" /><line stroke="#333" stroke-width="10" x1="69.0" x2="1349.0" y1="69.0" y2="69.0" /><line stroke="#333" stroke-width="10" x1="69.0" x2="69.0" y1="453.0" y2="69.0" /><line stroke="#333" stroke-width="10" x1="261.0" x2="69.0" y1="453.0" y2="453.0" /><line stroke="#333" stroke-width="10" x1="1285.0" x2="1285.0" y1="1029.0" y2="1381.0" /><line stroke="#333" stroke-width="10" x1="1285.0" x2="965.0" y1="965.0" y2="965.0" /><line stroke="#333" stroke-width="10" x1="1285.0" x2="1285.0" y1="869.0" y2="965.0" /><line stroke="#333" stroke-width="10" x1="1957.0" x2="1285.0" y1="869.0" y2="869.0" /><line stroke="#333" stroke-width="10" x1="2053.0" x2="2053.0" y1="1381.0" y2="869.0" /><line stroke="#999" stroke-width="3" x1="1349.0" x2="1349.0" y1="1317.0" y2="933.0" /><line stroke="#999" stroke-width="3" x1="1349.0" x2="1957.0" y1="933.0" y2="933.0" /><line stroke="#999" stroke-width="3" x1="1957.0" x2="1957.0" y1="933.0" y2="1285.0" /><line stroke="#0d0" stroke-width="20" x1="1957.0" x2="1925.0" y1="1285.0" y2="1317.0" /><line stroke="#999" stroke-width="3" x1="1925.0" x2="1349.0" y1="1317.0" y2="1317.0" /><line stroke="#999" stroke-width="3" x1="1285.0" x2="1285.0" y1="965.0" y2="1029.0" /><ellipse cx="357.0" cy="421.0" fill="#009" rx="12" ry="24" stroke="#009" stroke-width="5" /><rect fill="#900" height="48" stroke="#900" stroke-width="5" transform="rotate(0,197.0,485.0)" width="32" x="181.0" y="461.0" /><rect fill="#900" height="48" stroke="#900" stroke-width="5" transform="rotate(0,133.0,485.0)" width="32" x="117.0" y="461.0" /><rect fill="#900" height="48" stroke="#900" stroke-width="5" transform="rotate(0,37.0,485.0)" width="32" x="21.0" y="461.0" /><rect fill="#900" height="48" stroke="#900" stroke-width="5" transform="rotate(0,37.0,389.0)" width="32" x="21.0" y="365.0" /><rect fill="#900" height="48" stroke="#900" stroke-width="5" transform="rotate(0,37.0,325.0)" width="32" x="21.0" y="301.0" /><rect fill="#900" height="48" stroke="#900" stroke-width="5" transform="rotate(0,37.0,165.0)" width="32" x="21.0" y="141.0" /><rect fill="#900" height="48" stroke="#900" stroke-width="5" transform="rotate(0,37.0,69.0)" width="32" x="21.0" y="45.0" /><rect fill="#900" height="48" stroke="#900" stroke-width="5" transform="rotate(0,69.0,37.0)" width="32" x="53.0" y="13.0" /><rect fill="#900" height="48" stroke="#900" stroke-width="5" transform="rotate(0,197.0,37.0)" width="32" x="181.0" y="13.0" /><rect fill="#900" height="48" stroke="#900" stroke-width="5" transform="rotate(0,325.0,37.0)" width="32" x="309.0" y="13.0" /><rect fill="#900" height="48" stroke="#900" stroke-width="5" transform="rotate(0,453.0,37.0)" width="32" x="437.0" y="13.0" /><rect fill="#900" height="48" stroke="#900" stroke-width="5" transform="rotate(0,549.0,37.0)" width="32" x="533.0" y="13.0" /><rect fill="#900" height="48" stroke="#900" stroke-width="5" transform="rotate(0,677.0,37.0)" width="32" x="661.0" y="13.0" /><rect fill="#900" height="48" stroke="#900" stroke-width="5" transform="rotate(0,773.0,37.0)" width="32" x="757.0" y="13.0" /><rect fill="#900" height="48" stroke="#900" stroke-width="5" transform="rotate(0,869.0,37.0)" width="32" x="853.0" y="13.0" /><rect fill="#900" height="48" stroke="#900" stroke-width="5" transform="rotate(0,997.0,37.0)" width="32" x="981.0" y="13.0" /><rect fill="#900" height="48" stroke="#900" stroke-width="5" transform="rotate(0,1125.0,37.0)" width="32" x="1109.0" y="13.0" /><rect fill="#900" height="48" stroke="#900" stroke-width="5" transform="rotate(0,1221.0,37.0)" width="32" x="1205.0" y="13.0" /><rect fill="#900" height="48" stroke="#900" stroke-width="5" transform="rotate(0,1317.0,37.0)" width="32" x="1301.0" y="13.0" /><rect fill="#900" height="48" stroke="#900" stroke-width="5" transform="rotate(0,1317.0,997.0)" width="32" x="1301.0" y="973.0" /><rect fill="#900" height="48" stroke="#900" stroke-width="5" transform="rotate(0,1317.0,901.0)" width="32" x="1301.0" y="877.0" /><rect fill="#900" height="48" stroke="#900" stroke-width="5" transform="rotate(0,1413.0,901.0)" width="32" x="1397.0" y="877.0" /><rect fill="#900" height="48" stroke="#900" stroke-width="5" transform="rotate(0,1573.0,901.0)" width="32" x="1557.0" y="877.0" /><rect fill="#900" height="48" stroke="#900" stroke-width="5" transform="rotate(0,1733.0,901.0)" width="32" x="1717.0" y="877.0" /><rect fill="#900" height="48" stroke="#900" stroke-width="5" transform="rotate(0,1861.0,901.0)" width="32" x="1845.0" y="877.0" /><rect fill="#900" height="48" stroke="#900" stroke-width="5" transform="rotate(0,1989.0,901.0)" width="32" x="1973.0" y="877.0" /><rect fill="#900" height="48" stroke="#900" stroke-width="5" transform="rotate(0,1317.0,1093.0)" width="32" x="1301.0" y="1069.0" /><rect fill="#900" height="48" stroke="#900" stroke-width="5" transform="rotate(0,1317.0,1253.0)" width="32" x="1301.0" y="1229.0" /><rect fill="#900" height="48" stroke="#900" stroke-width="5" transform="rotate(0,1317.0,1349.0)" width="32" x="1301.0" y="1325.0" /><rect fill="#900" height="48" stroke="#900" stroke-width="5" transform="rotate(0,1445.0,1349.0)" width="32" x="1429.0" y="1325.0" /><rect fill="#900" height="48" stroke="#900" stroke-width="5" transform="rotate(0,1701.0,1349.0)" width="32" x="1685.0" y="1325.0" /><rect fill="#900" height="48" stroke="#900" stroke-width="5" transform="rotate(0,1925.0,1349.0)" width="32" x="1909.0" y="1325.0" /><rect fill="#900" height="48" stroke="#900" stroke-width="5" transform="rotate(0,1989.0,1093.0)" width="32" x="1973.0" y="1069.0" /><rect fill="#900" height="48" stroke="#900" stroke-width="5" transform="rotate(0,1989.0,997.0)" width="32" x="1973.0" y="973.0" /><rect fill="#900" height="48" stroke="#900" stroke-width="5" transform="rotate(270,1989.0,1317.0)" width="32" x="1973.0" y="1293.0" /><rect fill="#090" height="24" stroke="#090" stroke-width="5" transform="rotate(270,1989.0,1189.0)" width="24" x="1977.0" y="1177.0" /><rect fill="#090" height="24" stroke="#090" stroke-width="5" transform="rotate(270,1125.0,997.0)" width="24" x="1113.0" y="985.0" /><rect fill="#090" height="24" stroke="#090" stroke-width="5" transform="rotate(270,933.0,421.0)" width="24" x="921.0" y="409.0" /><rect fill="#090" height="24" stroke="#090" stroke-width="5" transform="rotate(270,485.0,421.0)" width="24" x="473.0" y="409.0" /><rect fill="#090" height="24" stroke="#090" stroke-width="5" transform="rotate(270,37.0,261.0)" width="24" x="25.0" y="249.0" /><rect fill="#090" height="24" stroke="#090" stroke-width="5" transform="rotate(270,1317.0,229.0)" width="24" x="1305.0" y="217.0" /><circle cx="1253.0" cy="357.0" fill="#009" r="16" stroke="#009" stroke-width="5" /><circle cx="1189.0" cy="485.0" fill="#009" r="16" stroke="#009" stroke-width="5" /><circle cx="1285.0" cy="485.0" fill="#009" r="16" stroke="#009" stroke-width="5" /><circle cx="1957.0" cy="229.0" fill="#009" r="16" stroke="#009" stroke-width="5" /><circle cx="1829.0" cy="229.0" fill="#009" r="16" stroke="#009" stroke-width="5" /><rect fill="#900" height="48" stroke="#900" stroke-width="5" transform="rotate(90,1061.0,293.0)" width="32" x="1045.0" y="269.0" /><rect fill="#900" height="48" stroke="#900" stroke-width="5" transform="rotate(90,1061.0,389.0)" width="32" x="1045.0" y="365.0" /><rect fill="#900" height="48" stroke="#900" stroke-width="5" transform="rotate(90,1061.0,549.0)" width="32" x="1045.0" y="525.0" /><rect fill="#900" height="48" stroke="#900" stroke-width="5" transform="rotate(90,1061.0,645.0)" width="32" x="1045.0" y="621.0" /><rect fill="#900" height="48" stroke="#900" stroke-width="5" transform="rotate(90,1061.0,485.0)" width="32" x="1045.0" y="461.0" /><rect fill="#900" height="48" stroke="#900" stroke-width="5" transform="rotate(90,1381.0,517.0)" width="32" x="1365.0" y="493.0" /><rect fill="#900" height="48" stroke="#900" stroke-width="5" transform="rotate(90,1381.0,357.0)" width="32" x="1365.0" y="333.0" /><rect fill="#900" height="48" stroke="#900" stroke-width="5" transform="rotate(90,1381.0,229.0)" width="32" x="1365.0" y="205.0" /><rect fill="#900" height="48" stroke="#900" stroke-width="5" transform="rotate(90,1381.0,69.0)" width="32" x="1365.0" y="45.0" /><rect fill="#900" height="48" stroke="#900" stroke-width="5" transform="rotate(90,1765.0,645.0)" width="32" x="1749.0" y="621.0" /><rect fill="#900" height="48" stroke="#900" stroke-width="5" transform="rotate(90,1765.0,517.0)" width="32" x="1749.0" y="493.0" /><rect fill="#900" height="48" stroke="#900" stroke-width="5" transform="rotate(90,1765.0,357.0)" width="32" x="1749.0" y="333.0" /><rect fill="#090" height="24" stroke="#090" stroke-width="5" transform="rotate(180,1893.0,229.0)" width="24" x="1881.0" y="217.0" /><rect fill="#900" height="48" stroke="#900" stroke-width="5" transform="rotate(270,1381.0,677.0)" width="32" x="1365.0" y="653.0" /><rect fill="#900" height="48" stroke="#900" stroke-width="5" transform="rotate(270,1381.0,613.0)" width="32" x="1365.0" y="589.0" /><rect fill="#900" height="48" stroke="#900" stroke-width="5" transform="rotate(270,933.0,997.0)" width="32" x="917.0" y="973.0" /><rect fill="#900" height="48" stroke="#900" stroke-width="5" transform="rotate(180,741.0,421.0)" width="32" x="725.0" y="397.0" /><rect fill="#900" height="48" stroke="#900" stroke-width="5" transform="rotate(180,837.0,421.0)" width="32" x="821.0" y="397.0" /><rect fill="#900" height="48" stroke="#900" stroke-width="5" transform="rotate(180,613.0,421.0)" width="32" x="597.0" y="397.0" /><circle cx="421.0" cy="485.0" fill="#900" r="16" stroke="#900" stroke-width="5" /><circle cx="421.0" cy="357.0" fill="#900" r="16" stroke="#900" stroke-width="5" /><circle cx="293.0" cy="357.0" fill="#900" r="16" stroke="#900" stroke-width="5" /><circle cx="293.0" cy="485.0" fill="#900" r="16" stroke="#900" stroke-width="5" /><circle cx="357.0" cy="421.0" fill="#009" r="16" stroke="#009" stroke-width="5" /><circle cx="357.0" cy="421.0" fill="#009" r="16" stroke="#009" stroke-width="5" /></svg>