<?xml version="1.0" encoding="utf-8" ?>
<svg baseProfile="tiny" height="491" version="1.2" viewBox="0 0 554 266" width="1024" xmlns="http://www.w3.org/2000/svg" xmlns:ev="http://www.w3.org/2001/xml-events" xmlns:xlink="http://www.w3.org/1999/xlink"><defs /><line stroke="#333" stroke-width="10" x1="133.0" x2="133.0" y1="85.0" y2="101.0" /><line stroke="#333" stroke-width="10" x1="197.0" x2="133.0" y1="85.0" y2="85.0" /><line stroke="#333" stroke-width="10" x1="197.0" x2="197.0" y1="149.0" y2="261.0" /><line stroke="#333" stroke-width="10" x1="133.0" x2="197.0" y1="149.0" y2="149.0" /><line stroke="#333" stroke-width="10" x1="133.0" x2="133.0" y1="133.0" y2="149.0" /><line stroke="#333" stroke-width="10" x1="133.0" x2="5.0" y1="101.0" y2="101.0" /><line stroke="#666" stroke-width="20" x1="5.0" x2="5.0" y1="101.0" y2="133.0" /><line stroke="#333" stroke-width="10" x1="5.0" x2="133.0" y1="133.0" y2="133.0" /><line stroke="#999" stroke-width="3" x1="133.0" x2="133.0" y1="101.0" y2="133.0" /><line stroke="#333" stroke-width="10" x1="341.0" x2="197.0" y1="5.0" y2="5.0" /><line stroke="#333" stroke-width="10" x1="341.0" x2="341.0" y1="261.0" y2="149.0" /><line stroke="#333" stroke-width="10" x1="197.0" x2="197.0" y1="5.0" y2="85.0" /><line stroke="#333" stroke-width="10" x1="197.0" x2="341.0" y1="261.0" y2="261.0" /><line stroke="#999" stroke-width="3" x1="197.0" x2="197.0" y1="149.0" y2="85.0" /><line stroke="#333" stroke-width="10" x1="341.0" x2="549.0" y1="149.0" y2="149.0" /><line stroke="#333" stroke-width="10" x1="341.0" x2="341.0" y1="69.0" y2="5.0" /><line stroke="#333" stroke-width="10" x1="549.0" x2="549.0" y1="69.0" y2="5.0" /><line stroke="#333" stroke-width="10" x1="549.0" x2="549.0" y1="149.0" y2="69.0" /><line stroke="#333" stroke-width="10" x1="485.0" x2="341.0" y1="69.0" y2="69.0" /><line stroke="#0d0" stroke-width="20" x1="549.0" x2="485.0" y1="5.0" y2="5.0" /><line stroke="#333" stroke-width="10" x1="485.0" x2="485.0" y1="5.0" y2="69.0" /><line stroke="#999" stroke-width="3" x1="341.0" x2="341.0" y1="69.0" y2="149.0" /><line stroke="#999" stroke-width="3" x1="213.0" x2="213.0" y1="245.0" y2="21.0" /><line stroke="#999" stroke-width="3" x1="213.0" x2="325.0" y1="21.0" y2="21.0" /><line stroke="#999" stroke-width="3" x1="325.0" x2="325.0" y1="21.0" y2="245.0" /><line stroke="#999" stroke-width="3" x1="325.0" x2="213.0" y1="245.0" y2="245.0" /><ellipse cx="165.0" cy="117.0" fill="#009" rx="12" ry="24" stroke="#009" stroke-width="5" /><rect fill="#900" height="48" stroke="#900" stroke-width="5" transform="rotate(180,261.0,213.0)" width="32" x="245.0" y="189.0" /><rect fill="#900" height="48" stroke="#900" stroke-width="5" transform="rotate(180,261.0,165.0)" width="32" x="245.0" y="141.0" /><rect fill="#900" height="48" stroke="#900" stroke-width="5" transform="rotate(180,261.0,133.0)" width="32" x="245.0" y="109.0" /><rect fill="#900" height="48" stroke="#900" stroke-width="5" transform="rotate(180,261.0,69.0)" width="32" x="245.0" y="45.0" /><rect fill="#900" height="48" stroke="#900" stroke-width="5" transform="rotate(180,309.0,101.0)" width="32" x="293.0" y="77.0" /><rect fill="#900" height="48" stroke="#900" stroke-width="5" transform="rotate(180,309.0,165.0)" width="32" x="293.0" y="141.0" /><rect fill="#900" height="48" stroke="#900" stroke-width="5" transform="rotate(180,309.0,213.0)" width="32" x="293.0" y="189.0" /><rect fill="#900" height="48" stroke="#900" stroke-width="5" transform="rotate(180,213.0,85.0)" width="32" x="197.0" y="61.0" /><rect fill="#900" height="48" stroke="#900" stroke-width="5" transform="rotate(180,213.0,37.0)" width="32" x="197.0" y="13.0" /><rect fill="#900" height="48" stroke="#900" stroke-width="5" transform="rotate(180,309.0,37.0)" width="32" x="293.0" y="13.0" /><rect fill="#900" height="48" stroke="#900" stroke-width="5" transform="rotate(180,213.0,165.0)" width="32" x="197.0" y="141.0" /><rect fill="#900" height="48" stroke="#900" stroke-width="5" transform="rotate(180,213.0,229.0)" width="32" x="197.0" y="205.0" /><rect fill="#900" height="48" stroke="#900" stroke-width="5" transform="rotate(180,421.0,101.0)" width="32" x="405.0" y="77.0" /><rect fill="#900" height="48" stroke="#900" stroke-width="5" transform="rotate(180,501.0,101.0)" width="32" x="485.0" y="77.0" /><rect fill="#900" height="48" stroke="#900" stroke-width="5" transform="rotate(90,517.0,37.0)" width="32" x="501.0" y="13.0" /></svg>