<?xml version="1.0" encoding="utf-8" ?>
<svg baseProfile="tiny" height="658" version="1.2" viewBox="0 0 2602 1674" width="1024" xmlns="http://www.w3.org/2000/svg" xmlns:ev="http://www.w3.org/2001/xml-events" xmlns:xlink="http://www.w3.org/1999/xlink"><defs /><line stroke="#333" stroke-width="10" x1="837.0" x2="805.0" y1="645.0" y2="741.0" /><line stroke="#333" stroke-width="10" x1="837.0" x2="821.0" y1="293.0" y2="325.0" /><line stroke="#333" stroke-width="10" x1="997.0" x2="837.0" y1="165.0" y2="293.0" /><line stroke="#333" stroke-width="10" x1="1093.0" x2="997.0" y1="165.0" y2="165.0" /><line stroke="#333" stroke-width="10" x1="1237.0" x2="1157.0" y1="149.0" y2="165.0" /><line stroke="#333" stroke-width="10" x1="1381.0" x2="1381.0" y1="645.0" y2="533.0" /><line stroke="#333" stroke-width="10" x1="1413.0" x2="1381.0" y1="741.0" y2="645.0" /><line stroke="#333" stroke-width="10" x1="933.0" x2="997.0" y1="741.0" y2="741.0" /><line stroke="#999" stroke-width="3" x1="1093.0" x2="1157.0" y1="165.0" y2="165.0" /><line stroke="#333" stroke-width="10" x1="1157.0" x2="1157.0" y1="165.0" y2="133.0" /><line stroke="#333" stroke-width="10" x1="1157.0" x2="1093.0" y1="133.0" y2="133.0" /><line stroke="#333" stroke-width="10" x1="1093.0" x2="1093.0" y1="133.0" y2="165.0" /><line stroke="#999" stroke-width="3" x1="965.0" x2="997.0" y1="389.0" y2="389.0" /><line stroke="#999" stroke-width="3" x1="997.0" x2="997.0" y1="389.0" y2="357.0" /><line stroke="#999" stroke-width="3" x1="997.0" x2="965.0" y1="357.0" y2="357.0" /><line stroke="#999" stroke-width="3" x1="965.0" x2="965.0" y1="357.0" y2="389.0" /><line stroke="#999" stroke-width="3" x1="997.0" x2="1221.0" y1="357.0" y2="357.0" /><line stroke="#999" stroke-width="3" x1="965.0" x2="997.0" y1="581.0" y2="581.0" /><line stroke="#999" stroke-width="3" x1="997.0" x2="997.0" y1="581.0" y2="549.0" /><line stroke="#999" stroke-width="3" x1="997.0" x2="965.0" y1="549.0" y2="549.0" /><line stroke="#999" stroke-width="3" x1="965.0" x2="965.0" y1="549.0" y2="581.0" /><line stroke="#999" stroke-width="3" x1="965.0" x2="965.0" y1="549.0" y2="389.0" /><line stroke="#999" stroke-width="3" x1="1221.0" x2="1253.0" y1="581.0" y2="581.0" /><line stroke="#999" stroke-width="3" x1="1253.0" x2="1253.0" y1="581.0" y2="549.0" /><line stroke="#999" stroke-width="3" x1="1253.0" x2="1221.0" y1="549.0" y2="549.0" /><line stroke="#999" stroke-width="3" x1="1221.0" x2="1221.0" y1="549.0" y2="581.0" /><line stroke="#999" stroke-width="3" x1="1221.0" x2="997.0" y1="581.0" y2="581.0" /><line stroke="#999" stroke-width="3" x1="1253.0" x2="1221.0" y1="357.0" y2="357.0" /><line stroke="#999" stroke-width="3" x1="1221.0" x2="1221.0" y1="357.0" y2="389.0" /><line stroke="#999" stroke-width="3" x1="1221.0" x2="1253.0" y1="389.0" y2="389.0" /><line stroke="#999" stroke-width="3" x1="1253.0" x2="1253.0" y1="389.0" y2="357.0" /><line stroke="#999" stroke-width="3" x1="1253.0" x2="1253.0" y1="389.0" y2="549.0" /><line stroke="#333" stroke-width="10" x1="805.0" x2="805.0" y1="741.0" y2="757.0" /><line stroke="#333" stroke-width="10" x1="933.0" x2="933.0" y1="757.0" y2="741.0" /><line stroke="#666" stroke-width="20" x1="805.0" x2="933.0" y1="741.0" y2="741.0" /><line stroke="#333" stroke-width="10" x1="1285.0" x2="1285.0" y1="741.0" y2="757.0" /><line stroke="#333" stroke-width="10" x1="1413.0" x2="1413.0" y1="757.0" y2="741.0" /><line stroke="#999" stroke-width="3" x1="1285.0" x2="1413.0" y1="741.0" y2="741.0" /><line stroke="#999" stroke-width="3" x1="997.0" x2="1061.0" y1="741.0" y2="709.0" /><line stroke="#999" stroke-width="3" x1="1061.0" x2="1157.0" y1="709.0" y2="709.0" /><line stroke="#999" stroke-width="3" x1="1157.0" x2="1221.0" y1="709.0" y2="741.0" /><line stroke="#333" stroke-width="10" x1="997.0" x2="1061.0" y1="741.0" y2="741.0" /><line stroke="#333" stroke-width="10" x1="1221.0" x2="1285.0" y1="741.0" y2="741.0" /><line stroke="#333" stroke-width="10" x1="805.0" x2="773.0" y1="757.0" y2="773.0" /><line stroke="#333" stroke-width="10" x1="773.0" x2="773.0" y1="773.0" y2="613.0" /><line stroke="#333" stroke-width="10" x1="773.0" x2="645.0" y1="613.0" y2="613.0" /><line stroke="#333" stroke-width="10" x1="357.0" x2="357.0" y1="613.0" y2="741.0" /><line stroke="#333" stroke-width="10" x1="357.0" x2="421.0" y1="1125.0" y2="1125.0" /><line stroke="#333" stroke-width="10" x1="773.0" x2="773.0" y1="1125.0" y2="1093.0" /><line stroke="#333" stroke-width="10" x1="773.0" x2="805.0" y1="901.0" y2="901.0" /><line stroke="#333" stroke-width="10" x1="805.0" x2="869.0" y1="901.0" y2="901.0" /><line stroke="#666" stroke-width="20" x1="933.0" x2="805.0" y1="757.0" y2="757.0" /><line stroke="#999" stroke-width="3" x1="485.0" x2="613.0" y1="997.0" y2="997.0" /><line stroke="#999" stroke-width="3" x1="613.0" x2="613.0" y1="997.0" y2="741.0" /><line stroke="#999" stroke-width="3" x1="613.0" x2="485.0" y1="741.0" y2="741.0" /><line stroke="#999" stroke-width="3" x1="485.0" x2="485.0" y1="741.0" y2="997.0" /><line stroke="#999" stroke-width="3" x1="453.0" x2="645.0" y1="709.0" y2="709.0" /><line stroke="#999" stroke-width="3" x1="645.0" x2="645.0" y1="709.0" y2="1029.0" /><line stroke="#999" stroke-width="3" x1="645.0" x2="453.0" y1="1029.0" y2="1029.0" /><line stroke="#999" stroke-width="3" x1="453.0" x2="453.0" y1="1029.0" y2="709.0" /><line stroke="#999" stroke-width="3" x1="933.0" x2="885.0" y1="869.0" y2="853.0" /><line stroke="#999" stroke-width="3" x1="885.0" x2="901.0" y1="853.0" y2="901.0" /><line stroke="#999" stroke-width="3" x1="933.0" x2="869.0" y1="853.0" y2="837.0" /><line stroke="#999" stroke-width="3" x1="869.0" x2="885.0" y1="837.0" y2="901.0" /><line stroke="#999" stroke-width="3" x1="933.0" x2="853.0" y1="837.0" y2="821.0" /><line stroke="#999" stroke-width="3" x1="853.0" x2="869.0" y1="821.0" y2="901.0" /><line stroke="#333" stroke-width="10" x1="869.0" x2="885.0" y1="901.0" y2="901.0" /><line stroke="#333" stroke-width="10" x1="885.0" x2="901.0" y1="901.0" y2="901.0" /><line stroke="#333" stroke-width="10" x1="901.0" x2="933.0" y1="901.0" y2="901.0" /><line stroke="#333" stroke-width="10" x1="933.0" x2="933.0" y1="901.0" y2="869.0" /><line stroke="#333" stroke-width="10" x1="933.0" x2="933.0" y1="869.0" y2="853.0" /><line stroke="#333" stroke-width="10" x1="933.0" x2="933.0" y1="853.0" y2="837.0" /><line stroke="#333" stroke-width="10" x1="933.0" x2="933.0" y1="837.0" y2="757.0" /><line stroke="#333" stroke-width="10" x1="485.0" x2="485.0" y1="581.0" y2="613.0" /><line stroke="#333" stroke-width="10" x1="645.0" x2="645.0" y1="613.0" y2="581.0" /><line stroke="#999" stroke-width="3" x1="645.0" x2="485.0" y1="613.0" y2="613.0" /><line stroke="#333" stroke-width="10" x1="485.0" x2="421.0" y1="613.0" y2="613.0" /><line stroke="#999" stroke-width="3" x1="357.0" x2="357.0" y1="741.0" y2="997.0" /><line stroke="#333" stroke-width="10" x1="357.0" x2="325.0" y1="741.0" y2="741.0" /><line stroke="#333" stroke-width="10" x1="325.0" x2="357.0" y1="997.0" y2="997.0" /><line stroke="#333" stroke-width="10" x1="357.0" x2="357.0" y1="997.0" y2="1125.0" /><line stroke="#333" stroke-width="10" x1="485.0" x2="485.0" y1="1125.0" y2="1157.0" /><line stroke="#333" stroke-width="10" x1="645.0" x2="645.0" y1="1157.0" y2="1125.0" /><line stroke="#999" stroke-width="3" x1="485.0" x2="645.0" y1="1125.0" y2="1125.0" /><line stroke="#333" stroke-width="10" x1="645.0" x2="773.0" y1="1125.0" y2="1125.0" /><line stroke="#333" stroke-width="10" x1="645.0" x2="645.0" y1="1253.0" y2="1157.0" /><line stroke="#333" stroke-width="10" x1="645.0" x2="645.0" y1="581.0" y2="485.0" /><line stroke="#999" stroke-width="3" x1="645.0" x2="485.0" y1="581.0" y2="581.0" /><line stroke="#333" stroke-width="10" x1="325.0" x2="485.0" y1="581.0" y2="581.0" /><line stroke="#333" stroke-width="10" x1="325.0" x2="325.0" y1="741.0" y2="581.0" /><line stroke="#999" stroke-width="3" x1="325.0" x2="325.0" y1="741.0" y2="997.0" /><line stroke="#333" stroke-width="10" x1="325.0" x2="325.0" y1="1157.0" y2="997.0" /><line stroke="#333" stroke-width="10" x1="485.0" x2="325.0" y1="1157.0" y2="1157.0" /><line stroke="#999" stroke-width="3" x1="485.0" x2="645.0" y1="1157.0" y2="1157.0" /><line stroke="#333" stroke-width="10" x1="645.0" x2="549.0" y1="485.0" y2="389.0" /><line stroke="#333" stroke-width="10" x1="549.0" x2="645.0" y1="1349.0" y2="1253.0" /><line stroke="#999" stroke-width="3" x1="197.0" x2="645.0" y1="1253.0" y2="1253.0" /><line stroke="#999" stroke-width="3" x1="197.0" x2="197.0" y1="485.0" y2="1253.0" /><line stroke="#999" stroke-width="3" x1="645.0" x2="197.0" y1="485.0" y2="485.0" /><line stroke="#333" stroke-width="10" x1="549.0" x2="453.0" y1="389.0" y2="293.0" /><line stroke="#333" stroke-width="10" x1="453.0" x2="5.0" y1="293.0" y2="293.0" /><line stroke="#333" stroke-width="10" x1="5.0" x2="5.0" y1="293.0" y2="1445.0" /><line stroke="#333" stroke-width="10" x1="5.0" x2="453.0" y1="1445.0" y2="1445.0" /><line stroke="#333" stroke-width="10" x1="453.0" x2="549.0" y1="1445.0" y2="1349.0" /><line stroke="#999" stroke-width="3" x1="101.0" x2="549.0" y1="1349.0" y2="1349.0" /><line stroke="#999" stroke-width="3" x1="101.0" x2="101.0" y1="389.0" y2="1349.0" /><line stroke="#999" stroke-width="3" x1="549.0" x2="101.0" y1="389.0" y2="389.0" /><line stroke="#666" stroke-width="20" x1="421.0" x2="421.0" y1="613.0" y2="1125.0" /><line stroke="#333" stroke-width="10" x1="421.0" x2="485.0" y1="1125.0" y2="1125.0" /><line stroke="#333" stroke-width="10" x1="421.0" x2="357.0" y1="613.0" y2="613.0" /><line stroke="#333" stroke-width="10" x1="869.0" x2="869.0" y1="1093.0" y2="965.0" /><line stroke="#333" stroke-width="10" x1="869.0" x2="805.0" y1="965.0" y2="965.0" /><line stroke="#333" stroke-width="10" x1="773.0" x2="773.0" y1="965.0" y2="901.0" /><line stroke="#333" stroke-width="10" x1="773.0" x2="805.0" y1="1093.0" y2="1093.0" /><line stroke="#999" stroke-width="3" x1="805.0" x2="805.0" y1="965.0" y2="1093.0" /><line stroke="#333" stroke-width="10" x1="805.0" x2="773.0" y1="965.0" y2="965.0" /><line stroke="#999" stroke-width="3" x1="773.0" x2="773.0" y1="1093.0" y2="965.0" /><line stroke="#333" stroke-width="10" x1="805.0" x2="869.0" y1="1093.0" y2="1093.0" /><line stroke="#333" stroke-width="10" x1="1285.0" x2="1125.0" y1="757.0" y2="837.0" /><line stroke="#333" stroke-width="10" x1="1125.0" x2="1125.0" y1="837.0" y2="869.0" /><line stroke="#333" stroke-width="10" x1="1637.0" x2="1685.0" y1="1157.0" y2="1077.0" /><line stroke="#333" stroke-width="10" x1="1605.0" x2="1541.0" y1="837.0" y2="805.0" /><line stroke="#333" stroke-width="10" x1="1541.0" x2="1413.0" y1="805.0" y2="757.0" /><line stroke="#999" stroke-width="3" x1="1413.0" x2="1285.0" y1="757.0" y2="757.0" /><line stroke="#999" stroke-width="3" x1="1253.0" x2="1253.0" y1="901.0" y2="869.0" /><line stroke="#999" stroke-width="3" x1="1253.0" x2="1125.0" y1="869.0" y2="869.0" /><line stroke="#333" stroke-width="10" x1="1125.0" x2="1125.0" y1="869.0" y2="901.0" /><line stroke="#999" stroke-width="3" x1="1253.0" x2="1253.0" y1="933.0" y2="901.0" /><line stroke="#999" stroke-width="3" x1="1125.0" x2="1253.0" y1="901.0" y2="901.0" /><line stroke="#333" stroke-width="10" x1="1125.0" x2="1125.0" y1="901.0" y2="933.0" /><line stroke="#999" stroke-width="3" x1="1253.0" x2="1253.0" y1="965.0" y2="933.0" /><line stroke="#999" stroke-width="3" x1="1125.0" x2="1253.0" y1="933.0" y2="933.0" /><line stroke="#333" stroke-width="10" x1="1125.0" x2="1125.0" y1="933.0" y2="965.0" /><line stroke="#999" stroke-width="3" x1="1253.0" x2="1253.0" y1="997.0" y2="965.0" /><line stroke="#999" stroke-width="3" x1="1125.0" x2="1253.0" y1="965.0" y2="965.0" /><line stroke="#333" stroke-width="10" x1="1125.0" x2="1125.0" y1="965.0" y2="997.0" /><line stroke="#999" stroke-width="3" x1="1253.0" x2="1253.0" y1="997.0" y2="1253.0" /><line stroke="#999" stroke-width="3" x1="1317.0" x2="1317.0" y1="1317.0" y2="1349.0" /><line stroke="#333" stroke-width="10" x1="1125.0" x2="1125.0" y1="997.0" y2="1157.0" /><line stroke="#999" stroke-width="3" x1="1125.0" x2="1253.0" y1="997.0" y2="997.0" /><line stroke="#333" stroke-width="10" x1="1317.0" x2="1349.0" y1="1445.0" y2="1445.0" /><line stroke="#999" stroke-width="3" x1="1157.0" x2="1221.0" y1="1029.0" y2="1029.0" /><line stroke="#999" stroke-width="3" x1="1221.0" x2="1221.0" y1="1029.0" y2="1413.0" /><line stroke="#999" stroke-width="3" x1="1221.0" x2="1157.0" y1="1413.0" y2="1413.0" /><line stroke="#999" stroke-width="3" x1="1157.0" x2="1157.0" y1="1413.0" y2="1029.0" /><line stroke="#333" stroke-width="10" x1="1093.0" x2="1125.0" y1="1285.0" y2="1285.0" /><line stroke="#333" stroke-width="10" x1="1093.0" x2="1093.0" y1="1157.0" y2="1285.0" /><line stroke="#333" stroke-width="10" x1="1125.0" x2="1093.0" y1="1157.0" y2="1157.0" /><line stroke="#999" stroke-width="3" x1="1125.0" x2="1125.0" y1="1157.0" y2="1285.0" /><line stroke="#333" stroke-width="10" x1="1125.0" x2="1125.0" y1="1285.0" y2="1445.0" /><line stroke="#333" stroke-width="10" x1="1253.0" x2="1253.0" y1="1477.0" y2="1445.0" /><line stroke="#333" stroke-width="10" x1="1125.0" x2="1253.0" y1="1477.0" y2="1477.0" /><line stroke="#333" stroke-width="10" x1="1125.0" x2="1125.0" y1="1445.0" y2="1477.0" /><line stroke="#999" stroke-width="3" x1="1125.0" x2="1253.0" y1="1445.0" y2="1445.0" /><line stroke="#333" stroke-width="10" x1="1253.0" x2="1317.0" y1="1445.0" y2="1445.0" /><line stroke="#999" stroke-width="3" x1="1253.0" x2="1317.0" y1="1413.0" y2="1413.0" /><line stroke="#999" stroke-width="3" x1="1317.0" x2="1317.0" y1="1413.0" y2="1349.0" /><line stroke="#999" stroke-width="3" x1="1317.0" x2="1253.0" y1="1349.0" y2="1349.0" /><line stroke="#999" stroke-width="3" x1="1253.0" x2="1253.0" y1="1413.0" y2="1349.0" /><line stroke="#999" stroke-width="3" x1="1317.0" x2="1317.0" y1="1413.0" y2="1445.0" /><line stroke="#333" stroke-width="10" x1="1685.0" x2="1701.0" y1="1061.0" y2="1061.0" /><line stroke="#333" stroke-width="10" x1="1701.0" x2="1685.0" y1="933.0" y2="933.0" /><line stroke="#d00" stroke-width="20" x1="1685.0" x2="1685.0" y1="1061.0" y2="933.0" /><line stroke="#333" stroke-width="10" x1="1685.0" x2="1685.0" y1="933.0" y2="917.0" /><line stroke="#333" stroke-width="10" x1="1637.0" x2="1637.0" y1="1285.0" y2="1157.0" /><line stroke="#333" stroke-width="10" x1="1685.0" x2="1685.0" y1="1077.0" y2="1061.0" /><line stroke="#333" stroke-width="10" x1="1685.0" x2="1605.0" y1="917.0" y2="837.0" /><line stroke="#999" stroke-width="3" x1="1381.0" x2="1509.0" y1="1285.0" y2="1285.0" /><line stroke="#999" stroke-width="3" x1="1509.0" x2="1509.0" y1="1285.0" y2="965.0" /><line stroke="#999" stroke-width="3" x1="1509.0" x2="1381.0" y1="965.0" y2="965.0" /><line stroke="#999" stroke-width="3" x1="1381.0" x2="1381.0" y1="965.0" y2="1285.0" /><line stroke="#333" stroke-width="10" x1="1637.0" x2="1637.0" y1="1381.0" y2="1285.0" /><line stroke="#666" stroke-width="20" x1="1573.0" x2="1573.0" y1="1445.0" y2="1381.0" /><line stroke="#666" stroke-width="20" x1="1573.0" x2="1637.0" y1="1381.0" y2="1381.0" /><line stroke="#333" stroke-width="10" x1="1573.0" x2="1573.0" y1="1445.0" y2="1461.0" /><line stroke="#333" stroke-width="10" x1="1637.0" x2="1637.0" y1="1461.0" y2="1445.0" /><line stroke="#999" stroke-width="3" x1="1573.0" x2="1637.0" y1="1445.0" y2="1445.0" /><line stroke="#999" stroke-width="3" x1="1637.0" x2="1637.0" y1="1445.0" y2="1381.0" /><line stroke="#333" stroke-width="10" x1="1653.0" x2="1637.0" y1="1381.0" y2="1381.0" /><line stroke="#333" stroke-width="10" x1="1637.0" x2="1653.0" y1="1445.0" y2="1445.0" /><line stroke="#333" stroke-width="10" x1="1573.0" x2="1573.0" y1="1461.0" y2="1541.0" /><line stroke="#333" stroke-width="10" x1="1573.0" x2="1637.0" y1="1541.0" y2="1541.0" /><line stroke="#333" stroke-width="10" x1="1637.0" x2="1637.0" y1="1541.0" y2="1461.0" /><line stroke="#999" stroke-width="3" x1="1637.0" x2="1573.0" y1="1461.0" y2="1461.0" /><line stroke="#333" stroke-width="10" x1="1653.0" x2="1733.0" y1="1445.0" y2="1445.0" /><line stroke="#333" stroke-width="10" x1="1733.0" x2="1733.0" y1="1445.0" y2="1381.0" /><line stroke="#333" stroke-width="10" x1="1733.0" x2="1653.0" y1="1381.0" y2="1381.0" /><line stroke="#999" stroke-width="3" x1="1653.0" x2="1653.0" y1="1381.0" y2="1445.0" /><line stroke="#333" stroke-width="10" x1="1349.0" x2="1349.0" y1="1445.0" y2="1477.0" /><line stroke="#333" stroke-width="10" x1="1477.0" x2="1477.0" y1="1477.0" y2="1445.0" /><line stroke="#999" stroke-width="3" x1="1349.0" x2="1477.0" y1="1445.0" y2="1445.0" /><line stroke="#333" stroke-width="10" x1="1477.0" x2="1573.0" y1="1445.0" y2="1445.0" /><line stroke="#333" stroke-width="10" x1="1349.0" x2="1253.0" y1="1477.0" y2="1501.0" /><line stroke="#333" stroke-width="10" x1="1541.0" x2="1509.0" y1="1477.0" y2="1477.0" /><line stroke="#999" stroke-width="3" x1="1253.0" x2="1253.0" y1="1501.0" y2="1605.0" /><line stroke="#999" stroke-width="3" x1="1253.0" x2="1509.0" y1="1605.0" y2="1605.0" /><line stroke="#333" stroke-width="10" x1="1541.0" x2="1541.0" y1="1637.0" y2="1605.0" /><line stroke="#333" stroke-width="10" x1="1253.0" x2="1221.0" y1="1501.0" y2="1509.0" /><line stroke="#333" stroke-width="10" x1="1541.0" x2="1541.0" y1="1605.0" y2="1477.0" /><line stroke="#333" stroke-width="10" x1="1221.0" x2="1189.0" y1="1509.0" y2="1509.0" /><line stroke="#333" stroke-width="10" x1="1189.0" x2="1189.0" y1="1509.0" y2="1669.0" /><line stroke="#333" stroke-width="10" x1="1189.0" x2="1541.0" y1="1669.0" y2="1669.0" /><line stroke="#333" stroke-width="10" x1="1541.0" x2="1541.0" y1="1669.0" y2="1637.0" /><line stroke="#999" stroke-width="3" x1="1221.0" x2="1541.0" y1="1637.0" y2="1637.0" /><line stroke="#999" stroke-width="3" x1="1221.0" x2="1221.0" y1="1509.0" y2="1637.0" /><line stroke="#999" stroke-width="3" x1="1509.0" x2="1509.0" y1="1605.0" y2="1477.0" /><line stroke="#333" stroke-width="10" x1="1509.0" x2="1477.0" y1="1477.0" y2="1477.0" /><line stroke="#999" stroke-width="3" x1="1509.0" x2="1541.0" y1="1605.0" y2="1605.0" /><line stroke="#999" stroke-width="3" x1="1733.0" x2="1733.0" y1="1061.0" y2="933.0" /><line stroke="#d00" stroke-width="20" x1="1701.0" x2="1701.0" y1="933.0" y2="1061.0" /><line stroke="#999" stroke-width="3" x1="1733.0" x2="1765.0" y1="1285.0" y2="1253.0" /><line stroke="#999" stroke-width="3" x1="1765.0" x2="1797.0" y1="1253.0" y2="1253.0" /><line stroke="#999" stroke-width="3" x1="1797.0" x2="1861.0" y1="1253.0" y2="1285.0" /><line stroke="#999" stroke-width="3" x1="1861.0" x2="1957.0" y1="1285.0" y2="1285.0" /><line stroke="#999" stroke-width="3" x1="1957.0" x2="2053.0" y1="1285.0" y2="1253.0" /><line stroke="#999" stroke-width="3" x1="2053.0" x2="2117.0" y1="1253.0" y2="1285.0" /><line stroke="#999" stroke-width="3" x1="2117.0" x2="2213.0" y1="1285.0" y2="1253.0" /><line stroke="#999" stroke-width="3" x1="2213.0" x2="2245.0" y1="1253.0" y2="1253.0" /><line stroke="#999" stroke-width="3" x1="2245.0" x2="2277.0" y1="1253.0" y2="1285.0" /><line stroke="#999" stroke-width="3" x1="2277.0" x2="2341.0" y1="1285.0" y2="1253.0" /><line stroke="#999" stroke-width="3" x1="2341.0" x2="2437.0" y1="1253.0" y2="1285.0" /><line stroke="#999" stroke-width="3" x1="2437.0" x2="2533.0" y1="1285.0" y2="1285.0" /><line stroke="#999" stroke-width="3" x1="2437.0" x2="2373.0" y1="1157.0" y2="1125.0" /><line stroke="#999" stroke-width="3" x1="2373.0" x2="2245.0" y1="1125.0" y2="1125.0" /><line stroke="#999" stroke-width="3" x1="2245.0" x2="2181.0" y1="1125.0" y2="1093.0" /><line stroke="#999" stroke-width="3" x1="2181.0" x2="2149.0" y1="1093.0" y2="1125.0" /><line stroke="#999" stroke-width="3" x1="2149.0" x2="2053.0" y1="1125.0" y2="1157.0" /><line stroke="#999" stroke-width="3" x1="2053.0" x2="1989.0" y1="1157.0" y2="1157.0" /><line stroke="#999" stroke-width="3" x1="1989.0" x2="1925.0" y1="1157.0" y2="1189.0" /><line stroke="#999" stroke-width="3" x1="1925.0" x2="1861.0" y1="1189.0" y2="1157.0" /><line stroke="#999" stroke-width="3" x1="1861.0" x2="1797.0" y1="1157.0" y2="1157.0" /><line stroke="#999" stroke-width="3" x1="1797.0" x2="1733.0" y1="1157.0" y2="1221.0" /><line stroke="#999" stroke-width="3" x1="1733.0" x2="1733.0" y1="1221.0" y2="1285.0" /><line stroke="#999" stroke-width="3" x1="2533.0" x2="2437.0" y1="1133.0" y2="1157.0" /><line stroke="#999" stroke-width="3" x1="1733.0" x2="1733.0" y1="1285.0" y2="1317.0" /><line stroke="#999" stroke-width="3" x1="1733.0" x2="1797.0" y1="1317.0" y2="1381.0" /><line stroke="#999" stroke-width="3" x1="1797.0" x2="2469.0" y1="1381.0" y2="1381.0" /><line stroke="#999" stroke-width="3" x1="2469.0" x2="2533.0" y1="1381.0" y2="1317.0" /><line stroke="#999" stroke-width="3" x1="2533.0" x2="2533.0" y1="1317.0" y2="1285.0" /><line stroke="#999" stroke-width="3" x1="2533.0" x2="2565.0" y1="1285.0" y2="1221.0" /><line stroke="#333" stroke-width="10" x1="2565.0" x2="2565.0" y1="1317.0" y2="1221.0" /><line stroke="#999" stroke-width="3" x1="1701.0" x2="1733.0" y1="1285.0" y2="1285.0" /><line stroke="#999" stroke-width="3" x1="1733.0" x2="1701.0" y1="1221.0" y2="1221.0" /><line stroke="#999" stroke-width="3" x1="1733.0" x2="1733.0" y1="1061.0" y2="1221.0" /><line stroke="#999" stroke-width="3" x1="1701.0" x2="1733.0" y1="1061.0" y2="1061.0" /><line stroke="#999" stroke-width="3" x1="1733.0" x2="1797.0" y1="677.0" y2="613.0" /><line stroke="#999" stroke-width="3" x1="1797.0" x2="2469.0" y1="613.0" y2="613.0" /><line stroke="#999" stroke-width="3" x1="2469.0" x2="2533.0" y1="613.0" y2="677.0" /><line stroke="#999" stroke-width="3" x1="2533.0" x2="2533.0" y1="677.0" y2="1133.0" /><line stroke="#999" stroke-width="3" x1="2533.0" x2="2533.0" y1="1221.0" y2="1133.0" /><line stroke="#999" stroke-width="3" x1="2565.0" x2="2533.0" y1="1221.0" y2="1221.0" /><line stroke="#333" stroke-width="10" x1="2565.0" x2="2565.0" y1="1221.0" y2="1125.0" /><line stroke="#999" stroke-width="3" x1="2565.0" x2="2533.0" y1="1125.0" y2="1133.0" /><line stroke="#333" stroke-width="10" x1="1797.0" x2="1669.0" y1="549.0" y2="677.0" /><line stroke="#333" stroke-width="10" x1="2469.0" x2="1797.0" y1="549.0" y2="549.0" /><line stroke="#333" stroke-width="10" x1="2597.0" x2="2469.0" y1="677.0" y2="549.0" /><line stroke="#333" stroke-width="10" x1="2597.0" x2="2597.0" y1="1093.0" y2="677.0" /><line stroke="#333" stroke-width="10" x1="2565.0" x2="2597.0" y1="1125.0" y2="1093.0" /><line stroke="#999" stroke-width="3" x1="2565.0" x2="2565.0" y1="1125.0" y2="677.0" /><line stroke="#999" stroke-width="3" x1="2565.0" x2="2469.0" y1="677.0" y2="581.0" /><line stroke="#999" stroke-width="3" x1="2469.0" x2="1797.0" y1="581.0" y2="581.0" /><line stroke="#999" stroke-width="3" x1="1797.0" x2="1701.0" y1="581.0" y2="677.0" /><line stroke="#333" stroke-width="10" x1="1701.0" x2="1701.0" y1="677.0" y2="933.0" /><line stroke="#333" stroke-width="10" x1="1669.0" x2="1701.0" y1="1317.0" y2="1349.0" /><line stroke="#333" stroke-width="10" x1="1669.0" x2="1669.0" y1="1285.0" y2="1317.0" /><line stroke="#999" stroke-width="3" x1="1701.0" x2="1701.0" y1="1285.0" y2="1317.0" /><line stroke="#999" stroke-width="3" x1="1701.0" x2="1797.0" y1="1317.0" y2="1413.0" /><line stroke="#999" stroke-width="3" x1="1797.0" x2="2469.0" y1="1413.0" y2="1413.0" /><line stroke="#999" stroke-width="3" x1="2469.0" x2="2565.0" y1="1413.0" y2="1317.0" /><line stroke="#333" stroke-width="10" x1="2597.0" x2="2565.0" y1="1317.0" y2="1317.0" /><line stroke="#333" stroke-width="10" x1="2597.0" x2="2597.0" y1="1349.0" y2="1317.0" /><line stroke="#333" stroke-width="10" x1="2469.0" x2="2597.0" y1="1445.0" y2="1349.0" /><line stroke="#333" stroke-width="10" x1="1797.0" x2="2469.0" y1="1445.0" y2="1445.0" /><line stroke="#333" stroke-width="10" x1="1733.0" x2="1797.0" y1="1381.0" y2="1445.0" /><line stroke="#333" stroke-width="10" x1="1701.0" x2="1733.0" y1="1349.0" y2="1381.0" /><line stroke="#999" stroke-width="3" x1="1701.0" x2="1701.0" y1="1221.0" y2="1285.0" /><line stroke="#999" stroke-width="3" x1="1701.0" x2="1669.0" y1="1285.0" y2="1285.0" /><line stroke="#999" stroke-width="3" x1="1733.0" x2="1701.0" y1="677.0" y2="677.0" /><line stroke="#333" stroke-width="10" x1="1669.0" x2="1701.0" y1="677.0" y2="677.0" /><line stroke="#999" stroke-width="3" x1="1733.0" x2="1701.0" y1="933.0" y2="933.0" /><line stroke="#999" stroke-width="3" x1="1733.0" x2="1733.0" y1="933.0" y2="677.0" /><line stroke="#333" stroke-width="10" x1="1701.0" x2="1669.0" y1="1221.0" y2="1221.0" /><line stroke="#333" stroke-width="10" x1="1701.0" x2="1701.0" y1="1061.0" y2="1221.0" /><line stroke="#333" stroke-width="10" x1="1669.0" x2="1669.0" y1="1221.0" y2="1285.0" /><line stroke="#666" stroke-width="20" x1="2405.0" x2="2469.0" y1="709.0" y2="709.0" /><line stroke="#666" stroke-width="20" x1="2469.0" x2="2469.0" y1="709.0" y2="645.0" /><line stroke="#666" stroke-width="20" x1="2469.0" x2="2405.0" y1="645.0" y2="645.0" /><line stroke="#666" stroke-width="20" x1="2405.0" x2="2405.0" y1="645.0" y2="709.0" /><line stroke="#333" stroke-width="10" x1="1381.0" x2="1253.0" y1="5.0" y2="133.0" /><line stroke="#333" stroke-width="10" x1="1541.0" x2="1381.0" y1="133.0" y2="5.0" /><line stroke="#333" stroke-width="10" x1="677.0" x2="805.0" y1="517.0" y2="517.0" /><line stroke="#333" stroke-width="10" x1="677.0" x2="677.0" y1="325.0" y2="517.0" /><line stroke="#333" stroke-width="10" x1="821.0" x2="837.0" y1="517.0" y2="645.0" /><line stroke="#999" stroke-width="3" x1="1253.0" x2="1413.0" y1="133.0" y2="261.0" /><line stroke="#333" stroke-width="10" x1="1397.0" x2="1413.0" y1="277.0" y2="261.0" /><line stroke="#999" stroke-width="3" x1="1397.0" x2="1237.0" y1="277.0" y2="149.0" /><line stroke="#333" stroke-width="10" x1="1253.0" x2="1237.0" y1="133.0" y2="149.0" /><line stroke="#333" stroke-width="10" x1="1413.0" x2="1541.0" y1="261.0" y2="133.0" /><line stroke="#999" stroke-width="3" x1="805.0" x2="805.0" y1="517.0" y2="325.0" /><line stroke="#333" stroke-width="10" x1="821.0" x2="805.0" y1="325.0" y2="325.0" /><line stroke="#999" stroke-width="3" x1="821.0" x2="821.0" y1="325.0" y2="517.0" /><line stroke="#333" stroke-width="10" x1="805.0" x2="821.0" y1="517.0" y2="517.0" /><line stroke="#333" stroke-width="10" x1="805.0" x2="677.0" y1="325.0" y2="325.0" /><line stroke="#999" stroke-width="3" x1="1349.0" x2="1349.0" y1="1477.0" y2="1509.0" /><line stroke="#999" stroke-width="3" x1="1349.0" x2="1477.0" y1="1509.0" y2="1509.0" /><line stroke="#999" stroke-width="3" x1="1477.0" x2="1477.0" y1="1509.0" y2="1477.0" /><line stroke="#999" stroke-width="3" x1="1477.0" x2="1349.0" y1="1477.0" y2="1477.0" /><line stroke="#333" stroke-width="10" x1="1381.0" x2="1397.0" y1="517.0" y2="517.0" /><line stroke="#333" stroke-width="10" x1="1397.0" x2="1381.0" y1="389.0" y2="389.0" /><line stroke="#d00" stroke-width="20" x1="1381.0" x2="1381.0" y1="517.0" y2="389.0" /><line stroke="#333" stroke-width="10" x1="1381.0" x2="1381.0" y1="389.0" y2="373.0" /><line stroke="#333" stroke-width="10" x1="1381.0" x2="1397.0" y1="373.0" y2="277.0" /><line stroke="#333" stroke-width="10" x1="1381.0" x2="1381.0" y1="533.0" y2="517.0" /><line stroke="#333" stroke-width="10" x1="1477.0" x2="1397.0" y1="357.0" y2="389.0" /><line stroke="#333" stroke-width="10" x1="1605.0" x2="1477.0" y1="357.0" y2="357.0" /><line stroke="#333" stroke-width="10" x1="1669.0" x2="1605.0" y1="389.0" y2="357.0" /><line stroke="#333" stroke-width="10" x1="1605.0" x2="1669.0" y1="549.0" y2="517.0" /><line stroke="#333" stroke-width="10" x1="1477.0" x2="1605.0" y1="549.0" y2="549.0" /><line stroke="#333" stroke-width="10" x1="1397.0" x2="1477.0" y1="517.0" y2="549.0" /><line stroke="#d00" stroke-width="20" x1="1397.0" x2="1397.0" y1="389.0" y2="517.0" /><line stroke="#333" stroke-width="10" x1="1669.0" x2="1669.0" y1="517.0" y2="469.0" /><line stroke="#999" stroke-width="3" x1="1653.0" x2="1653.0" y1="469.0" y2="437.0" /><line stroke="#999" stroke-width="3" x1="1653.0" x2="1669.0" y1="437.0" y2="437.0" /><line stroke="#0d0" stroke-width="20" x1="1669.0" x2="1669.0" y1="469.0" y2="437.0" /><line stroke="#999" stroke-width="3" x1="1669.0" x2="1653.0" y1="469.0" y2="469.0" /><line stroke="#333" stroke-width="10" x1="1669.0" x2="1669.0" y1="437.0" y2="389.0" /><line stroke="#333" stroke-width="10" x1="1061.0" x2="1061.0" y1="741.0" y2="773.0" /><line stroke="#333" stroke-width="10" x1="1061.0" x2="1093.0" y1="773.0" y2="773.0" /><line stroke="#333" stroke-width="10" x1="1157.0" x2="1157.0" y1="773.0" y2="741.0" /><line stroke="#999" stroke-width="3" x1="1061.0" x2="1157.0" y1="741.0" y2="741.0" /><line stroke="#333" stroke-width="10" x1="1157.0" x2="1221.0" y1="741.0" y2="741.0" /><line stroke="#333" stroke-width="10" x1="1093.0" x2="1125.0" y1="773.0" y2="773.0" /><line stroke="#333" stroke-width="10" x1="1125.0" x2="1157.0" y1="773.0" y2="773.0" /><line stroke="#999" stroke-width="3" x1="1253.0" x2="1285.0" y1="1285.0" y2="1269.0" /><line stroke="#999" stroke-width="3" x1="1285.0" x2="1285.0" y1="1269.0" y2="1317.0" /><line stroke="#999" stroke-width="3" x1="1253.0" x2="1285.0" y1="1269.0" y2="1253.0" /><line stroke="#999" stroke-width="3" x1="1285.0" x2="1301.0" y1="1253.0" y2="1317.0" /><line stroke="#999" stroke-width="3" x1="1253.0" x2="1285.0" y1="1253.0" y2="1237.0" /><line stroke="#999" stroke-width="3" x1="1285.0" x2="1317.0" y1="1237.0" y2="1317.0" /><line stroke="#999" stroke-width="3" x1="1301.0" x2="1317.0" y1="1317.0" y2="1317.0" /><line stroke="#999" stroke-width="3" x1="1285.0" x2="1301.0" y1="1317.0" y2="1317.0" /><line stroke="#999" stroke-width="3" x1="1253.0" x2="1285.0" y1="1317.0" y2="1317.0" /><line stroke="#999" stroke-width="3" x1="1253.0" x2="1253.0" y1="1285.0" y2="1317.0" /><line stroke="#999" stroke-width="3" x1="1253.0" x2="1253.0" y1="1269.0" y2="1285.0" /><line stroke="#999" stroke-width="3" x1="1253.0" x2="1253.0" y1="1253.0" y2="1269.0" /><rect fill="#090" height="24" stroke="#090" stroke-width="5" transform="rotate(45,981.0,373.0)" width="24" x="969.0" y="361.0" /><rect fill="#090" height="24" stroke="#090" stroke-width="5" transform="rotate(315,981.0,565.0)" width="24" x="969.0" y="553.0" /><rect fill="#090" height="24" stroke="#090" stroke-width="5" transform="rotate(225,1237.0,565.0)" width="24" x="1225.0" y="553.0" /><rect fill="#090" height="24" stroke="#090" stroke-width="5" transform="rotate(135,1237.0,373.0)" width="24" x="1225.0" y="361.0" /><rect fill="#090" height="24" stroke="#090" stroke-width="5" transform="rotate(90,917.0,885.0)" width="24" x="905.0" y="873.0" /><circle cx="389.0" cy="869.0" fill="#900" r="16" stroke="#900" stroke-width="5" /><rect fill="#900" height="48" stroke="#900" stroke-width="5" transform="rotate(180,837.0,1061.0)" width="32" x="821.0" y="1037.0" /><rect fill="#900" height="48" stroke="#900" stroke-width="5" transform="rotate(180,837.0,997.0)" width="32" x="821.0" y="973.0" /><ellipse cx="1605.0" cy="1413.0" fill="#090" rx="12" ry="24" stroke="#090" stroke-width="5" /><rect fill="#090" height="24" stroke="#090" stroke-width="5" transform="rotate(270,1445.0,1221.0)" width="24" x="1433.0" y="1209.0" /><rect fill="#090" height="24" stroke="#090" stroke-width="5" transform="rotate(270,1461.0,1205.0)" width="24" x="1449.0" y="1193.0" /><ellipse cx="1125.0" cy="181.0" fill="#009" rx="12" ry="24" stroke="#009" stroke-width="5" /><rect fill="#900" height="48" stroke="#900" stroke-width="5" transform="rotate(180,1701.0,1413.0)" width="32" x="1685.0" y="1389.0" /><rect fill="#900" height="48" stroke="#900" stroke-width="5" transform="rotate(270,1605.0,1509.0)" width="32" x="1589.0" y="1485.0" /><rect fill="#090" height="24" stroke="#090" stroke-width="5" transform="rotate(270,1301.0,1557.0)" width="24" x="1289.0" y="1545.0" /><rect fill="#090" height="24" stroke="#090" stroke-width="5" transform="rotate(270,1413.0,1573.0)" width="24" x="1401.0" y="1561.0" /><rect fill="#090" height="24" stroke="#090" stroke-width="5" transform="rotate(270,1429.0,1557.0)" width="24" x="1417.0" y="1545.0" /><ellipse cx="1797.0" cy="1285.0" fill="#900" rx="12" ry="24" stroke="#900" stroke-width="5" /><ellipse cx="1861.0" cy="1317.0" fill="#900" rx="12" ry="24" stroke="#900" stroke-width="5" /><ellipse cx="2021.0" cy="1285.0" fill="#900" rx="12" ry="24" stroke="#900" stroke-width="5" /><ellipse cx="2117.0" cy="1317.0" fill="#900" rx="12" ry="24" stroke="#900" stroke-width="5" /><ellipse cx="2501.0" cy="1317.0" fill="#900" rx="12" ry="24" stroke="#900" stroke-width="5" /><ellipse cx="2373.0" cy="1285.0" fill="#900" rx="12" ry="24" stroke="#900" stroke-width="5" /><ellipse cx="2277.0" cy="1317.0" fill="#900" rx="12" ry="24" stroke="#900" stroke-width="5" /><ellipse cx="2437.0" cy="677.0" fill="#090" rx="12" ry="24" stroke="#090" stroke-width="5" /><rect fill="#900" height="48" stroke="#900" stroke-width="5" transform="rotate(180,2341.0,677.0)" width="32" x="2325.0" y="653.0" /><rect fill="#900" height="48" stroke="#900" stroke-width="5" transform="rotate(180,2437.0,773.0)" width="32" x="2421.0" y="749.0" /><rect fill="#900" height="48" stroke="#900" stroke-width="5" transform="rotate(135,2181.0,677.0)" width="32" x="2165.0" y="653.0" /><rect fill="#900" height="48" stroke="#900" stroke-width="5" transform="rotate(135,2277.0,773.0)" width="32" x="2261.0" y="749.0" /><rect fill="#900" height="48" stroke="#900" stroke-width="5" transform="rotate(135,2373.0,869.0)" width="32" x="2357.0" y="845.0" /><rect fill="#900" height="48" stroke="#900" stroke-width="5" transform="rotate(180,2469.0,965.0)" width="32" x="2453.0" y="941.0" /><rect fill="#900" height="48" stroke="#900" stroke-width="5" transform="rotate(225,2341.0,1317.0)" width="32" x="2325.0" y="1293.0" /><rect fill="#900" height="48" stroke="#900" stroke-width="5" transform="rotate(225,2181.0,1317.0)" width="32" x="2165.0" y="1293.0" /><rect fill="#900" height="48" stroke="#900" stroke-width="5" transform="rotate(225,1957.0,1317.0)" width="32" x="1941.0" y="1293.0" /><rect fill="#900" height="48" stroke="#900" stroke-width="5" transform="rotate(270,1765.0,1141.0)" width="32" x="1749.0" y="1117.0" /><rect fill="#900" height="48" stroke="#900" stroke-width="5" transform="rotate(90,1765.0,837.0)" width="32" x="1749.0" y="813.0" /><rect fill="#090" height="24" stroke="#090" stroke-width="5" transform="rotate(90,2149.0,917.0)" width="24" x="2137.0" y="905.0" /><rect fill="#090" height="24" stroke="#090" stroke-width="5" transform="rotate(90,1909.0,725.0)" width="24" x="1897.0" y="713.0" /><rect fill="#090" height="24" stroke="#090" stroke-width="5" transform="rotate(90,2421.0,1061.0)" width="24" x="2409.0" y="1049.0" /><rect fill="#090" height="24" stroke="#090" stroke-width="5" transform="rotate(90,1925.0,1109.0)" width="24" x="1913.0" y="1097.0" /><ellipse cx="2453.0" cy="869.0" fill="#900" rx="12" ry="24" stroke="#900" stroke-width="5" /><rect fill="#900" height="48" stroke="#900" stroke-width="5" transform="rotate(0,773.0,485.0)" width="32" x="757.0" y="461.0" /><rect fill="#900" height="48" stroke="#900" stroke-width="5" transform="rotate(0,773.0,357.0)" width="32" x="757.0" y="333.0" /><rect fill="#900" height="48" stroke="#900" stroke-width="5" transform="rotate(0,709.0,389.0)" width="32" x="693.0" y="365.0" /><rect fill="#900" height="48" stroke="#900" stroke-width="5" transform="rotate(0,709.0,453.0)" width="32" x="693.0" y="429.0" /><rect fill="#900" height="48" stroke="#900" stroke-width="5" transform="rotate(0,773.0,421.0)" width="32" x="757.0" y="397.0" /><rect fill="#900" height="48" stroke="#900" stroke-width="5" transform="rotate(135,1317.0,133.0)" width="32" x="1301.0" y="109.0" /><rect fill="#900" height="48" stroke="#900" stroke-width="5" transform="rotate(135,1413.0,197.0)" width="32" x="1397.0" y="173.0" /><rect fill="#900" height="48" stroke="#900" stroke-width="5" transform="rotate(90,1381.0,69.0)" width="32" x="1365.0" y="45.0" /><rect fill="#900" height="48" stroke="#900" stroke-width="5" transform="rotate(180,1477.0,133.0)" width="32" x="1461.0" y="109.0" /><circle cx="1477.0" cy="1573.0" fill="#009" r="16" stroke="#009" stroke-width="5" /><circle cx="549.0" cy="885.0" fill="#009" r="16" stroke="#009" stroke-width="5" /><rect fill="#900" height="48" stroke="#900" stroke-width="5" transform="rotate(315,517.0,965.0)" width="32" x="501.0" y="941.0" /><rect fill="#900" height="48" stroke="#900" stroke-width="5" transform="rotate(315,581.0,965.0)" width="32" x="565.0" y="941.0" /><rect fill="#900" height="48" stroke="#900" stroke-width="5" transform="rotate(45,581.0,789.0)" width="32" x="565.0" y="765.0" /><rect fill="#900" height="48" stroke="#900" stroke-width="5" transform="rotate(0,517.0,837.0)" width="32" x="501.0" y="813.0" /><circle cx="749.0" cy="637.0" fill="#090" r="16" stroke="#090" stroke-width="5" /><circle cx="389.0" cy="1101.0" fill="#090" r="16" stroke="#090" stroke-width="5" /><circle cx="517.0" cy="781.0" fill="#090" r="16" stroke="#090" stroke-width="5" /><circle cx="757.0" cy="1109.0" fill="#009" r="16" stroke="#009" stroke-width="5" /><circle cx="821.0" cy="885.0" fill="#009" r="16" stroke="#009" stroke-width="5" /><circle cx="1077.0" cy="725.0" fill="#009" r="16" stroke="#009" stroke-width="5" /><circle cx="1109.0" cy="725.0" fill="#009" r="16" stroke="#009" stroke-width="5" /><circle cx="1141.0" cy="725.0" fill="#009" r="16" stroke="#009" stroke-width="5" /><rect fill="#900" height="48" stroke="#900" stroke-width="5" transform="rotate(225,1541.0,517.0)" width="32" x="1525.0" y="493.0" /><rect fill="#900" height="48" stroke="#900" stroke-width="5" transform="rotate(135,1541.0,389.0)" width="32" x="1525.0" y="365.0" /><rect fill="#900" height="48" stroke="#900" stroke-width="5" transform="rotate(270,709.0,1029.0)" width="32" x="693.0" y="1005.0" /><rect fill="#900" height="48" stroke="#900" stroke-width="5" transform="rotate(45,549.0,645.0)" width="32" x="533.0" y="621.0" /><rect fill="#900" height="48" stroke="#900" stroke-width="5" transform="rotate(270,1413.0,1125.0)" width="32" x="1397.0" y="1101.0" /><rect fill="#900" height="48" stroke="#900" stroke-width="5" transform="rotate(270,1477.0,1061.0)" width="32" x="1461.0" y="1037.0" /><rect fill="#900" height="48" stroke="#900" stroke-width="5" transform="rotate(270,1365.0,1557.0)" width="32" x="1349.0" y="1533.0" /><rect fill="#900" height="48" stroke="#900" stroke-width="5" transform="rotate(270,1477.0,1541.0)" width="32" x="1461.0" y="1517.0" /><rect fill="#900" height="48" stroke="#900" stroke-width="5" transform="rotate(315,1189.0,1381.0)" width="32" x="1173.0" y="1357.0" /><rect fill="#900" height="48" stroke="#900" stroke-width="5" transform="rotate(315,1189.0,1221.0)" width="32" x="1173.0" y="1197.0" /><rect fill="#900" height="48" stroke="#900" stroke-width="5" transform="rotate(0,1221.0,837.0)" width="32" x="1205.0" y="813.0" /><rect fill="#090" height="24" stroke="#090" stroke-width="5" transform="rotate(0,1269.0,1301.0)" width="24" x="1257.0" y="1289.0" /><circle cx="1269.0" cy="1013.0" fill="#009" r="16" stroke="#009" stroke-width="5" /><circle cx="1109.0" cy="1173.0" fill="#009" r="16" stroke="#009" stroke-width="5" /><circle cx="1109.0" cy="1205.0" fill="#009" r="16" stroke="#009" stroke-width="5" /><circle cx="1109.0" cy="1237.0" fill="#009" r="16" stroke="#009" stroke-width="5" /><circle cx="1109.0" cy="1269.0" fill="#009" r="16" stroke="#009" stroke-width="5" /><circle cx="1141.0" cy="1461.0" fill="#009" r="16" stroke="#009" stroke-width="5" /><circle cx="1173.0" cy="1461.0" fill="#009" r="16" stroke="#009" stroke-width="5" /><circle cx="1205.0" cy="1461.0" fill="#009" r="16" stroke="#009" stroke-width="5" /><circle cx="1237.0" cy="1461.0" fill="#009" r="16" stroke="#009" stroke-width="5" /><circle cx="1189.0" cy="1141.0" fill="#090" r="16" stroke="#090" stroke-width="5" /><circle cx="1141.0" cy="1381.0" fill="#090" r="16" stroke="#090" stroke-width="5" /><circle cx="1717.0" cy="1413.0" fill="#009" r="16" stroke="#009" stroke-width="5" /><circle cx="1509.0" cy="1429.0" fill="#090" r="16" stroke="#090" stroke-width="5" /><circle cx="1829.0" cy="629.0" fill="#009" r="16" stroke="#009" stroke-width="5" /><circle cx="2517.0" cy="693.0" fill="#090" r="16" stroke="#090" stroke-width="5" /><circle cx="2437.0" cy="1349.0" fill="#090" r="16" stroke="#090" stroke-width="5" /><circle cx="2053.0" cy="1349.0" fill="#009" r="16" stroke="#009" stroke-width="5" /><rect fill="#090" height="24" stroke="#090" stroke-width="5" transform="rotate(0,1717.0,1253.0)" width="24" x="1705.0" y="1241.0" /><rect fill="#090" height="24" stroke="#090" stroke-width="5" transform="rotate(0,2293.0,997.0)" width="24" x="2281.0" y="985.0" /><rect fill="#090" height="24" stroke="#090" stroke-width="5" transform="rotate(0,1973.0,933.0)" width="24" x="1961.0" y="921.0" /><rect fill="#090" height="24" stroke="#090" stroke-width="5" transform="rotate(0,2101.0,773.0)" width="24" x="2089.0" y="761.0" /><circle cx="1413.0" cy="1029.0" fill="#090" r="16" stroke="#090" stroke-width="5" /><circle cx="1477.0" cy="1141.0" fill="#090" r="16" stroke="#090" stroke-width="5" /><rect fill="#090" height="24" stroke="#090" stroke-width="5" transform="rotate(0,1013.0,501.0)" width="24" x="1001.0" y="489.0" /><rect fill="#090" height="24" stroke="#090" stroke-width="5" transform="rotate(0,1349.0,709.0)" width="24" x="1337.0" y="697.0" /><rect fill="#090" height="24" stroke="#090" stroke-width="5" transform="rotate(0,1509.0,453.0)" width="24" x="1497.0" y="441.0" /><circle cx="853.0" cy="581.0" fill="#090" r="16" stroke="#090" stroke-width="5" /><circle cx="389.0" cy="645.0" fill="#009" r="16" stroke="#009" stroke-width="5" /></svg>