<?xml version="1.0" encoding="utf-8" ?>
<svg baseProfile="tiny" height="796" version="1.2" viewBox="0 0 4618 3594" width="1024" xmlns="http://www.w3.org/2000/svg" xmlns:ev="http://www.w3.org/2001/xml-events" xmlns:xlink="http://www.w3.org/1999/xlink"><defs /><line stroke="#333" stroke-width="10" x1="3013.0" x2="2757.0" y1="1605.0" y2="1093.0" /><line stroke="#333" stroke-width="10" x1="1989.0" x2="2117.0" y1="581.0" y2="837.0" /><line stroke="#333" stroke-width="10" x1="2501.0" x2="2437.0" y1="837.0" y2="805.0" /><line stroke="#333" stroke-width="10" x1="2245.0" x2="1989.0" y1="1093.0" y2="1349.0" /><line stroke="#333" stroke-width="10" x1="2501.0" x2="3013.0" y1="1349.0" y2="1605.0" /><line stroke="#333" stroke-width="10" x1="2757.0" x2="2789.0" y1="1093.0" y2="1061.0" /><line stroke="#333" stroke-width="10" x1="2757.0" x2="2597.0" y1="581.0" y2="741.0" /><line stroke="#333" stroke-width="10" x1="2821.0" x2="2757.0" y1="517.0" y2="581.0" /><line stroke="#333" stroke-width="10" x1="3013.0" x2="3077.0" y1="837.0" y2="773.0" /><line stroke="#666" stroke-width="20" x1="2821.0" x2="3077.0" y1="517.0" y2="773.0" /><line stroke="#333" stroke-width="10" x1="2245.0" x2="2501.0" y1="1605.0" y2="1349.0" /><line stroke="#333" stroke-width="10" x1="2181.0" x2="2245.0" y1="1669.0" y2="1605.0" /><line stroke="#333" stroke-width="10" x1="1989.0" x2="1925.0" y1="1349.0" y2="1413.0" /><line stroke="#999" stroke-width="3" x1="2181.0" x2="1925.0" y1="1669.0" y2="1413.0" /><line stroke="#666" stroke-width="20" x1="3013.0" x2="2757.0" y1="837.0" y2="581.0" /><line stroke="#999" stroke-width="3" x1="1989.0" x2="2245.0" y1="1349.0" y2="1605.0" /><line stroke="#333" stroke-width="10" x1="2821.0" x2="2821.0" y1="389.0" y2="517.0" /><line stroke="#333" stroke-width="10" x1="2693.0" x2="2821.0" y1="389.0" y2="389.0" /><line stroke="#333" stroke-width="10" x1="2501.0" x2="2693.0" y1="581.0" y2="389.0" /><line stroke="#333" stroke-width="10" x1="2501.0" x2="2501.0" y1="645.0" y2="581.0" /><line stroke="#333" stroke-width="10" x1="2693.0" x2="2501.0" y1="453.0" y2="645.0" /><line stroke="#333" stroke-width="10" x1="2757.0" x2="2693.0" y1="453.0" y2="453.0" /><line stroke="#333" stroke-width="10" x1="2757.0" x2="2757.0" y1="517.0" y2="453.0" /><line stroke="#333" stroke-width="10" x1="2501.0" x2="2757.0" y1="773.0" y2="517.0" /><line stroke="#333" stroke-width="10" x1="1989.0" x2="2501.0" y1="517.0" y2="773.0" /><line stroke="#333" stroke-width="10" x1="1989.0" x2="1989.0" y1="261.0" y2="517.0" /><line stroke="#333" stroke-width="10" x1="3333.0" x2="3333.0" y1="1605.0" y2="389.0" /><line stroke="#333" stroke-width="10" x1="3077.0" x2="3333.0" y1="1605.0" y2="1605.0" /><line stroke="#333" stroke-width="10" x1="2821.0" x2="3077.0" y1="1093.0" y2="1605.0" /><line stroke="#333" stroke-width="10" x1="3077.0" x2="2821.0" y1="837.0" y2="1093.0" /><line stroke="#333" stroke-width="10" x1="3141.0" x2="3077.0" y1="837.0" y2="837.0" /><line stroke="#333" stroke-width="10" x1="3141.0" x2="3141.0" y1="901.0" y2="837.0" /><line stroke="#333" stroke-width="10" x1="2949.0" x2="3141.0" y1="1093.0" y2="901.0" /><line stroke="#333" stroke-width="10" x1="3013.0" x2="2949.0" y1="1093.0" y2="1093.0" /><line stroke="#333" stroke-width="10" x1="3205.0" x2="3013.0" y1="901.0" y2="1093.0" /><line stroke="#333" stroke-width="10" x1="3205.0" x2="3205.0" y1="773.0" y2="901.0" /><line stroke="#333" stroke-width="10" x1="3077.0" x2="3205.0" y1="773.0" y2="773.0" /><line stroke="#999" stroke-width="3" x1="2437.0" x2="2053.0" y1="645.0" y2="453.0" /><line stroke="#999" stroke-width="3" x1="2437.0" x2="2437.0" y1="517.0" y2="645.0" /><line stroke="#999" stroke-width="3" x1="2565.0" x2="2437.0" y1="389.0" y2="517.0" /><line stroke="#999" stroke-width="3" x1="2629.0" x2="2565.0" y1="389.0" y2="389.0" /><line stroke="#999" stroke-width="3" x1="2693.0" x2="2629.0" y1="325.0" y2="389.0" /><line stroke="#999" stroke-width="3" x1="2053.0" x2="2693.0" y1="325.0" y2="325.0" /><line stroke="#999" stroke-width="3" x1="2117.0" x2="2053.0" y1="389.0" y2="325.0" /><line stroke="#999" stroke-width="3" x1="2053.0" x2="2117.0" y1="453.0" y2="389.0" /><line stroke="#999" stroke-width="3" x1="3141.0" x2="2949.0" y1="1541.0" y2="1157.0" /><line stroke="#999" stroke-width="3" x1="3205.0" x2="3141.0" y1="1477.0" y2="1541.0" /><line stroke="#999" stroke-width="3" x1="3269.0" x2="3205.0" y1="1541.0" y2="1477.0" /><line stroke="#999" stroke-width="3" x1="3269.0" x2="3269.0" y1="901.0" y2="1541.0" /><line stroke="#999" stroke-width="3" x1="3205.0" x2="3269.0" y1="965.0" y2="901.0" /><line stroke="#999" stroke-width="3" x1="3205.0" x2="3205.0" y1="1029.0" y2="965.0" /><line stroke="#999" stroke-width="3" x1="3077.0" x2="3205.0" y1="1157.0" y2="1029.0" /><line stroke="#999" stroke-width="3" x1="2949.0" x2="3077.0" y1="1157.0" y2="1157.0" /><line stroke="#999" stroke-width="3" x1="2885.0" x2="2821.0" y1="389.0" y2="325.0" /><line stroke="#999" stroke-width="3" x1="2885.0" x2="2885.0" y1="517.0" y2="389.0" /><line stroke="#999" stroke-width="3" x1="3077.0" x2="2885.0" y1="709.0" y2="517.0" /><line stroke="#999" stroke-width="3" x1="3205.0" x2="3077.0" y1="709.0" y2="709.0" /><line stroke="#999" stroke-width="3" x1="3269.0" x2="3205.0" y1="773.0" y2="709.0" /><line stroke="#999" stroke-width="3" x1="3269.0" x2="3269.0" y1="709.0" y2="773.0" /><line stroke="#999" stroke-width="3" x1="3205.0" x2="3269.0" y1="645.0" y2="709.0" /><line stroke="#999" stroke-width="3" x1="3205.0" x2="3205.0" y1="517.0" y2="645.0" /><line stroke="#999" stroke-width="3" x1="3269.0" x2="3205.0" y1="453.0" y2="517.0" /><line stroke="#999" stroke-width="3" x1="3269.0" x2="3269.0" y1="389.0" y2="453.0" /><line stroke="#999" stroke-width="3" x1="3205.0" x2="3269.0" y1="325.0" y2="389.0" /><line stroke="#999" stroke-width="3" x1="3141.0" x2="3205.0" y1="325.0" y2="325.0" /><line stroke="#999" stroke-width="3" x1="3077.0" x2="3141.0" y1="389.0" y2="325.0" /><line stroke="#999" stroke-width="3" x1="2949.0" x2="3077.0" y1="389.0" y2="389.0" /><line stroke="#999" stroke-width="3" x1="2885.0" x2="2949.0" y1="325.0" y2="389.0" /><line stroke="#999" stroke-width="3" x1="2821.0" x2="2885.0" y1="325.0" y2="325.0" /><line stroke="#999" stroke-width="3" x1="2181.0" x2="2245.0" y1="453.0" y2="453.0" /><line stroke="#999" stroke-width="3" x1="2437.0" x2="2437.0" y1="453.0" y2="389.0" /><line stroke="#999" stroke-width="3" x1="2437.0" x2="2181.0" y1="389.0" y2="389.0" /><line stroke="#999" stroke-width="3" x1="2181.0" x2="2181.0" y1="389.0" y2="453.0" /><line stroke="#999" stroke-width="3" x1="2245.0" x2="2373.0" y1="517.0" y2="517.0" /><line stroke="#999" stroke-width="3" x1="2373.0" x2="2373.0" y1="517.0" y2="453.0" /><line stroke="#999" stroke-width="3" x1="2245.0" x2="2245.0" y1="453.0" y2="517.0" /><line stroke="#999" stroke-width="3" x1="2373.0" x2="2437.0" y1="453.0" y2="453.0" /><line stroke="#999" stroke-width="3" x1="2949.0" x2="3013.0" y1="517.0" y2="517.0" /><line stroke="#999" stroke-width="3" x1="3141.0" x2="3141.0" y1="517.0" y2="453.0" /><line stroke="#999" stroke-width="3" x1="3141.0" x2="2949.0" y1="453.0" y2="453.0" /><line stroke="#999" stroke-width="3" x1="2949.0" x2="2949.0" y1="453.0" y2="517.0" /><line stroke="#999" stroke-width="3" x1="3013.0" x2="3077.0" y1="581.0" y2="581.0" /><line stroke="#999" stroke-width="3" x1="3141.0" x2="3141.0" y1="581.0" y2="517.0" /><line stroke="#999" stroke-width="3" x1="3013.0" x2="3013.0" y1="517.0" y2="581.0" /><line stroke="#999" stroke-width="3" x1="3077.0" x2="3141.0" y1="645.0" y2="645.0" /><line stroke="#999" stroke-width="3" x1="3141.0" x2="3141.0" y1="645.0" y2="581.0" /><line stroke="#999" stroke-width="3" x1="3077.0" x2="3077.0" y1="581.0" y2="645.0" /><line stroke="#999" stroke-width="3" x1="3141.0" x2="3205.0" y1="1413.0" y2="1413.0" /><line stroke="#999" stroke-width="3" x1="3205.0" x2="3205.0" y1="1413.0" y2="1157.0" /><line stroke="#999" stroke-width="3" x1="3205.0" x2="3141.0" y1="1157.0" y2="1157.0" /><line stroke="#999" stroke-width="3" x1="3141.0" x2="3141.0" y1="1157.0" y2="1221.0" /><line stroke="#999" stroke-width="3" x1="3077.0" x2="3141.0" y1="1349.0" y2="1349.0" /><line stroke="#999" stroke-width="3" x1="3141.0" x2="3077.0" y1="1221.0" y2="1221.0" /><line stroke="#999" stroke-width="3" x1="3077.0" x2="3077.0" y1="1221.0" y2="1349.0" /><line stroke="#999" stroke-width="3" x1="3141.0" x2="3141.0" y1="1349.0" y2="1413.0" /><line stroke="#666" stroke-width="20" x1="3333.0" x2="3205.0" y1="261.0" y2="261.0" /><line stroke="#333" stroke-width="10" x1="3205.0" x2="3205.0" y1="229.0" y2="261.0" /><line stroke="#333" stroke-width="10" x1="3205.0" x2="1989.0" y1="261.0" y2="261.0" /><line stroke="#333" stroke-width="10" x1="3333.0" x2="3365.0" y1="389.0" y2="389.0" /><line stroke="#666" stroke-width="20" x1="3333.0" x2="3333.0" y1="389.0" y2="261.0" /><line stroke="#333" stroke-width="10" x1="3141.0" x2="3205.0" y1="229.0" y2="229.0" /><line stroke="#666" stroke-width="20" x1="3205.0" x2="3365.0" y1="229.0" y2="229.0" /><line stroke="#666" stroke-width="20" x1="3365.0" x2="3365.0" y1="229.0" y2="389.0" /><line stroke="#333" stroke-width="10" x1="3365.0" x2="3365.0" y1="389.0" y2="453.0" /><line stroke="#333" stroke-width="10" x1="3557.0" x2="3589.0" y1="165.0" y2="165.0" /><line stroke="#666" stroke-width="20" x1="3589.0" x2="3589.0" y1="165.0" y2="101.0" /><line stroke="#333" stroke-width="10" x1="3589.0" x2="3493.0" y1="101.0" y2="101.0" /><line stroke="#999" stroke-width="3" x1="3493.0" x2="3557.0" y1="101.0" y2="165.0" /><line stroke="#999" stroke-width="3" x1="3429.0" x2="3493.0" y1="37.0" y2="101.0" /><line stroke="#333" stroke-width="10" x1="3493.0" x2="3493.0" y1="101.0" y2="5.0" /><line stroke="#666" stroke-width="20" x1="3493.0" x2="3429.0" y1="5.0" y2="5.0" /><line stroke="#333" stroke-width="10" x1="3429.0" x2="3429.0" y1="5.0" y2="37.0" /><line stroke="#333" stroke-width="10" x1="3429.0" x2="3269.0" y1="37.0" y2="37.0" /><line stroke="#333" stroke-width="10" x1="3493.0" x2="3589.0" y1="389.0" y2="389.0" /><line stroke="#666" stroke-width="20" x1="3589.0" x2="3589.0" y1="389.0" y2="325.0" /><line stroke="#333" stroke-width="10" x1="3589.0" x2="3557.0" y1="325.0" y2="325.0" /><line stroke="#999" stroke-width="3" x1="3557.0" x2="3493.0" y1="325.0" y2="389.0" /><line stroke="#333" stroke-width="10" x1="3557.0" x2="3557.0" y1="325.0" y2="165.0" /><line stroke="#666" stroke-width="20" x1="3429.0" x2="3493.0" y1="485.0" y2="485.0" /><line stroke="#333" stroke-width="10" x1="3493.0" x2="3493.0" y1="485.0" y2="389.0" /><line stroke="#999" stroke-width="3" x1="3493.0" x2="3429.0" y1="389.0" y2="453.0" /><line stroke="#333" stroke-width="10" x1="3429.0" x2="3429.0" y1="453.0" y2="485.0" /><line stroke="#333" stroke-width="10" x1="3365.0" x2="3429.0" y1="453.0" y2="453.0" /><line stroke="#333" stroke-width="10" x1="3109.0" x2="3141.0" y1="165.0" y2="165.0" /><line stroke="#666" stroke-width="20" x1="3109.0" x2="3109.0" y1="101.0" y2="165.0" /><line stroke="#333" stroke-width="10" x1="3205.0" x2="3109.0" y1="101.0" y2="101.0" /><line stroke="#999" stroke-width="3" x1="3141.0" x2="3205.0" y1="165.0" y2="101.0" /><line stroke="#333" stroke-width="10" x1="3141.0" x2="3141.0" y1="165.0" y2="229.0" /><line stroke="#999" stroke-width="3" x1="3205.0" x2="3269.0" y1="101.0" y2="37.0" /><line stroke="#333" stroke-width="10" x1="3269.0" x2="3269.0" y1="37.0" y2="5.0" /><line stroke="#666" stroke-width="20" x1="3269.0" x2="3205.0" y1="5.0" y2="5.0" /><line stroke="#333" stroke-width="10" x1="3205.0" x2="3205.0" y1="5.0" y2="101.0" /><line stroke="#999" stroke-width="3" x1="3397.0" x2="3173.0" y1="197.0" y2="197.0" /><line stroke="#999" stroke-width="3" x1="3397.0" x2="3397.0" y1="421.0" y2="197.0" /><line stroke="#999" stroke-width="3" x1="3525.0" x2="3397.0" y1="293.0" y2="421.0" /><line stroke="#999" stroke-width="3" x1="3525.0" x2="3525.0" y1="197.0" y2="293.0" /><line stroke="#999" stroke-width="3" x1="3397.0" x2="3525.0" y1="69.0" y2="197.0" /><line stroke="#999" stroke-width="3" x1="3301.0" x2="3397.0" y1="69.0" y2="69.0" /><line stroke="#999" stroke-width="3" x1="3173.0" x2="3301.0" y1="197.0" y2="69.0" /><line stroke="#999" stroke-width="3" x1="3429.0" x2="3429.0" y1="357.0" y2="165.0" /><line stroke="#999" stroke-width="3" x1="3493.0" x2="3429.0" y1="293.0" y2="357.0" /><line stroke="#999" stroke-width="3" x1="3493.0" x2="3493.0" y1="197.0" y2="293.0" /><line stroke="#999" stroke-width="3" x1="3397.0" x2="3493.0" y1="101.0" y2="197.0" /><line stroke="#999" stroke-width="3" x1="3301.0" x2="3397.0" y1="101.0" y2="101.0" /><line stroke="#999" stroke-width="3" x1="3237.0" x2="3301.0" y1="165.0" y2="101.0" /><line stroke="#999" stroke-width="3" x1="3429.0" x2="3237.0" y1="165.0" y2="165.0" /><line stroke="#999" stroke-width="3" x1="3429.0" x2="3397.0" y1="165.0" y2="101.0" /><line stroke="#999" stroke-width="3" x1="3429.0" x2="3493.0" y1="165.0" y2="197.0" /><line stroke="#333" stroke-width="10" x1="1925.0" x2="2213.0" y1="1413.0" y2="1093.0" /><line stroke="#333" stroke-width="10" x1="2213.0" x2="1957.0" y1="1093.0" y2="581.0" /><line stroke="#333" stroke-width="10" x1="1957.0" x2="1541.0" y1="581.0" y2="581.0" /><line stroke="#333" stroke-width="10" x1="1541.0" x2="5.0" y1="581.0" y2="2117.0" /><line stroke="#333" stroke-width="10" x1="5.0" x2="1477.0" y1="2117.0" y2="3589.0" /><line stroke="#333" stroke-width="10" x1="1477.0" x2="3013.0" y1="3589.0" y2="2053.0" /><line stroke="#333" stroke-width="10" x1="3013.0" x2="3013.0" y1="2053.0" y2="1637.0" /><line stroke="#333" stroke-width="10" x1="3013.0" x2="2501.0" y1="1637.0" y2="1381.0" /><line stroke="#333" stroke-width="10" x1="2501.0" x2="2181.0" y1="1381.0" y2="1669.0" /><line stroke="#00d" stroke-width="20" x1="1445.0" x2="1413.0" y1="2245.0" y2="2245.0" /><line stroke="#00d" stroke-width="20" x1="1413.0" x2="1413.0" y1="2213.0" y2="2181.0" /><line stroke="#00d" stroke-width="20" x1="1445.0" x2="1477.0" y1="2181.0" y2="2181.0" /><line stroke="#00d" stroke-width="20" x1="1477.0" x2="1477.0" y1="2213.0" y2="2245.0" /><line stroke="#00d" stroke-width="20" x1="1413.0" x2="1445.0" y1="2181.0" y2="2181.0" /><line stroke="#999" stroke-width="3" x1="1445.0" x2="1445.0" y1="2117.0" y2="2181.0" /><line stroke="#999" stroke-width="3" x1="1349.0" x2="1445.0" y1="2117.0" y2="2117.0" /><line stroke="#999" stroke-width="3" x1="1413.0" x2="1349.0" y1="2181.0" y2="2117.0" /><line stroke="#999" stroke-width="3" x1="1541.0" x2="1477.0" y1="2117.0" y2="2181.0" /><line stroke="#999" stroke-width="3" x1="1445.0" x2="1541.0" y1="2117.0" y2="2117.0" /><line stroke="#999" stroke-width="3" x1="1541.0" x2="1477.0" y1="2213.0" y2="2213.0" /><line stroke="#999" stroke-width="3" x1="1541.0" x2="1541.0" y1="2117.0" y2="2213.0" /><line stroke="#00d" stroke-width="20" x1="1477.0" x2="1477.0" y1="2181.0" y2="2213.0" /><line stroke="#999" stroke-width="3" x1="1541.0" x2="1477.0" y1="2309.0" y2="2245.0" /><line stroke="#999" stroke-width="3" x1="1541.0" x2="1541.0" y1="2213.0" y2="2309.0" /><line stroke="#00d" stroke-width="20" x1="1477.0" x2="1445.0" y1="2245.0" y2="2245.0" /><line stroke="#999" stroke-width="3" x1="1445.0" x2="1445.0" y1="2309.0" y2="2245.0" /><line stroke="#999" stroke-width="3" x1="1541.0" x2="1445.0" y1="2309.0" y2="2309.0" /><line stroke="#999" stroke-width="3" x1="1349.0" x2="1413.0" y1="2309.0" y2="2245.0" /><line stroke="#999" stroke-width="3" x1="1445.0" x2="1349.0" y1="2309.0" y2="2309.0" /><line stroke="#00d" stroke-width="20" x1="1413.0" x2="1413.0" y1="2245.0" y2="2213.0" /><line stroke="#999" stroke-width="3" x1="1349.0" x2="1413.0" y1="2213.0" y2="2213.0" /><line stroke="#999" stroke-width="3" x1="1349.0" x2="1349.0" y1="2309.0" y2="2213.0" /><line stroke="#999" stroke-width="3" x1="1349.0" x2="1349.0" y1="2213.0" y2="2117.0" /><line stroke="#333" stroke-width="10" x1="2117.0" x2="2149.0" y1="837.0" y2="901.0" /><line stroke="#333" stroke-width="10" x1="2309.0" x2="1989.0" y1="741.0" y2="581.0" /><line stroke="#999" stroke-width="3" x1="2117.0" x2="2309.0" y1="837.0" y2="741.0" /><line stroke="#333" stroke-width="10" x1="2149.0" x2="2181.0" y1="901.0" y2="965.0" /><line stroke="#333" stroke-width="10" x1="2373.0" x2="2309.0" y1="773.0" y2="741.0" /><line stroke="#999" stroke-width="3" x1="2149.0" x2="2373.0" y1="901.0" y2="773.0" /><line stroke="#333" stroke-width="10" x1="2181.0" x2="2213.0" y1="965.0" y2="1029.0" /><line stroke="#333" stroke-width="10" x1="2437.0" x2="2373.0" y1="805.0" y2="773.0" /><line stroke="#999" stroke-width="3" x1="2181.0" x2="2437.0" y1="965.0" y2="805.0" /><line stroke="#333" stroke-width="10" x1="2213.0" x2="2245.0" y1="1029.0" y2="1093.0" /><line stroke="#999" stroke-width="3" x1="2213.0" x2="2501.0" y1="1029.0" y2="837.0" /><line stroke="#999" stroke-width="3" x1="2501.0" x2="2757.0" y1="837.0" y2="1093.0" /><line stroke="#333" stroke-width="10" x1="2565.0" x2="2533.0" y1="773.0" y2="805.0" /><line stroke="#333" stroke-width="10" x1="2820.0" x2="2853.0" y1="1027.0" y2="997.0" /><line stroke="#999" stroke-width="3" x1="2565.0" x2="2820.0" y1="773.0" y2="1027.0" /><line stroke="#333" stroke-width="10" x1="2533.0" x2="2501.0" y1="805.0" y2="837.0" /><line stroke="#333" stroke-width="10" x1="2789.0" x2="2820.0" y1="1061.0" y2="1027.0" /><line stroke="#999" stroke-width="3" x1="2533.0" x2="2789.0" y1="805.0" y2="1061.0" /><line stroke="#333" stroke-width="10" x1="2597.0" x2="2565.0" y1="741.0" y2="773.0" /><line stroke="#333" stroke-width="10" x1="2853.0" x2="3013.0" y1="997.0" y2="837.0" /><line stroke="#999" stroke-width="3" x1="2597.0" x2="2853.0" y1="741.0" y2="997.0" /><line stroke="#333" stroke-width="10" x1="3781.0" x2="3909.0" y1="1221.0" y2="1221.0" /><line stroke="#333" stroke-width="10" x1="3781.0" x2="3781.0" y1="1157.0" y2="1221.0" /><line stroke="#333" stroke-width="10" x1="3909.0" x2="3781.0" y1="1157.0" y2="1157.0" /><line stroke="#333" stroke-width="10" x1="3909.0" x2="3973.0" y1="1221.0" y2="1221.0" /><line stroke="#333" stroke-width="10" x1="3973.0" x2="3909.0" y1="1157.0" y2="1157.0" /><line stroke="#999" stroke-width="3" x1="3909.0" x2="3909.0" y1="1157.0" y2="1221.0" /><line stroke="#333" stroke-width="10" x1="3973.0" x2="4037.0" y1="1221.0" y2="1221.0" /><line stroke="#333" stroke-width="10" x1="4037.0" x2="3973.0" y1="1157.0" y2="1157.0" /><line stroke="#999" stroke-width="3" x1="3973.0" x2="3973.0" y1="1157.0" y2="1221.0" /><line stroke="#333" stroke-width="10" x1="4037.0" x2="4101.0" y1="1221.0" y2="1221.0" /><line stroke="#333" stroke-width="10" x1="4101.0" x2="4037.0" y1="1157.0" y2="1157.0" /><line stroke="#999" stroke-width="3" x1="4037.0" x2="4037.0" y1="1157.0" y2="1221.0" /><line stroke="#333" stroke-width="10" x1="4101.0" x2="4165.0" y1="1221.0" y2="1221.0" /><line stroke="#333" stroke-width="10" x1="4165.0" x2="4101.0" y1="1157.0" y2="1157.0" /><line stroke="#999" stroke-width="3" x1="4101.0" x2="4101.0" y1="1157.0" y2="1221.0" /><line stroke="#333" stroke-width="10" x1="4165.0" x2="4229.0" y1="1221.0" y2="1221.0" /><line stroke="#333" stroke-width="10" x1="4229.0" x2="4165.0" y1="1157.0" y2="1157.0" /><line stroke="#999" stroke-width="3" x1="4165.0" x2="4165.0" y1="1157.0" y2="1221.0" /><line stroke="#333" stroke-width="10" x1="4229.0" x2="4293.0" y1="1221.0" y2="1221.0" /><line stroke="#333" stroke-width="10" x1="4293.0" x2="4229.0" y1="1157.0" y2="1157.0" /><line stroke="#999" stroke-width="3" x1="4229.0" x2="4229.0" y1="1157.0" y2="1221.0" /><line stroke="#333" stroke-width="10" x1="4293.0" x2="4357.0" y1="1221.0" y2="1221.0" /><line stroke="#333" stroke-width="10" x1="4357.0" x2="4293.0" y1="1157.0" y2="1157.0" /><line stroke="#999" stroke-width="3" x1="4293.0" x2="4293.0" y1="1157.0" y2="1221.0" /><line stroke="#333" stroke-width="10" x1="4357.0" x2="4421.0" y1="1221.0" y2="1221.0" /><line stroke="#333" stroke-width="10" x1="4421.0" x2="4357.0" y1="1157.0" y2="1157.0" /><line stroke="#999" stroke-width="3" x1="4357.0" x2="4357.0" y1="1157.0" y2="1221.0" /><line stroke="#333" stroke-width="10" x1="4421.0" x2="4485.0" y1="1221.0" y2="1221.0" /><line stroke="#333" stroke-width="10" x1="4485.0" x2="4421.0" y1="1157.0" y2="1157.0" /><line stroke="#999" stroke-width="3" x1="4421.0" x2="4421.0" y1="1157.0" y2="1221.0" /><line stroke="#333" stroke-width="10" x1="4485.0" x2="4613.0" y1="1221.0" y2="1221.0" /><line stroke="#0d0" stroke-width="20" x1="4613.0" x2="4613.0" y1="1221.0" y2="1157.0" /><line stroke="#333" stroke-width="10" x1="4613.0" x2="4485.0" y1="1157.0" y2="1157.0" /><line stroke="#999" stroke-width="3" x1="4485.0" x2="4485.0" y1="1157.0" y2="1221.0" /><ellipse cx="2117.0" cy="741.0" fill="#009" rx="12" ry="24" stroke="#009" stroke-width="5" /><ellipse cx="2085.0" cy="677.0" fill="#009" rx="12" ry="24" stroke="#009" stroke-width="5" /><rect fill="#090" height="24" stroke="#090" stroke-width="5" transform="rotate(225,2181.0,741.0)" width="24" x="2169.0" y="729.0" /><ellipse cx="2917.0" cy="1509.0" fill="#009" rx="12" ry="24" stroke="#009" stroke-width="5" /><ellipse cx="2853.0" cy="1477.0" fill="#009" rx="12" ry="24" stroke="#009" stroke-width="5" /><rect fill="#090" height="24" stroke="#090" stroke-width="5" transform="rotate(45,2853.0,1413.0)" width="24" x="2841.0" y="1401.0" /><rect fill="#090" height="24" stroke="#090" stroke-width="5" transform="rotate(135,2853.0,741.0)" width="24" x="2841.0" y="729.0" /><rect fill="#090" height="24" stroke="#090" stroke-width="5" transform="rotate(0,2053.0,1349.0)" width="24" x="2041.0" y="1337.0" /><rect fill="#090" height="24" stroke="#090" stroke-width="5" transform="rotate(270,2245.0,1541.0)" width="24" x="2233.0" y="1529.0" /><rect fill="#090" height="24" stroke="#090" stroke-width="5" transform="rotate(135,3109.0,869.0)" width="24" x="3097.0" y="857.0" /><rect fill="#090" height="24" stroke="#090" stroke-width="5" transform="rotate(135,2725.0,485.0)" width="24" x="2713.0" y="473.0" /><circle cx="2661.0" cy="549.0" fill="#090" r="16" stroke="#090" stroke-width="5" /><circle cx="3045.0" cy="933.0" fill="#090" r="16" stroke="#090" stroke-width="5" /><circle cx="3301.0" cy="133.0" fill="#090" r="16" stroke="#090" stroke-width="5" /><circle cx="3365.0" cy="133.0" fill="#090" r="16" stroke="#090" stroke-width="5" /><circle cx="3461.0" cy="229.0" fill="#090" r="16" stroke="#090" stroke-width="5" /><circle cx="3461.0" cy="293.0" fill="#090" r="16" stroke="#090" stroke-width="5" /><rect fill="#090" height="24" stroke="#090" stroke-width="5" transform="rotate(135,3301.0,293.0)" width="24" x="3289.0" y="281.0" /><circle cx="3205.0" cy="1541.0" fill="#900" r="16" stroke="#900" stroke-width="5" /><circle cx="2053.0" cy="389.0" fill="#900" r="16" stroke="#900" stroke-width="5" /><circle cx="3013.0" cy="325.0" fill="#900" r="16" stroke="#900" stroke-width="5" /><circle cx="3269.0" cy="581.0" fill="#900" r="16" stroke="#900" stroke-width="5" /><circle cx="3109.0" cy="485.0" fill="#090" r="16" stroke="#090" stroke-width="5" /><circle cx="3045.0" cy="485.0" fill="#090" r="16" stroke="#090" stroke-width="5" /><circle cx="3045.0" cy="549.0" fill="#090" r="16" stroke="#090" stroke-width="5" /><circle cx="3109.0" cy="549.0" fill="#090" r="16" stroke="#090" stroke-width="5" /><rect fill="#900" height="48" stroke="#900" stroke-width="5" transform="rotate(135,3109.0,613.0)" width="32" x="3093.0" y="589.0" /><rect fill="#900" height="48" stroke="#900" stroke-width="5" transform="rotate(135,2981.0,485.0)" width="32" x="2965.0" y="461.0" /><rect fill="#900" height="48" stroke="#900" stroke-width="5" transform="rotate(135,2309.0,453.0)" width="32" x="2293.0" y="429.0" /><rect fill="#900" height="48" stroke="#900" stroke-width="5" transform="rotate(135,3141.0,1285.0)" width="32" x="3125.0" y="1261.0" /><rect fill="#900" height="48" stroke="#900" stroke-width="5" transform="rotate(135,3397.0,197.0)" width="32" x="3381.0" y="173.0" /><rect fill="#900" height="48" stroke="#900" stroke-width="5" transform="rotate(135,3205.0,389.0)" width="32" x="3189.0" y="365.0" /><rect fill="#900" height="48" stroke="#900" stroke-width="5" transform="rotate(135,3141.0,389.0)" width="32" x="3125.0" y="365.0" /><rect fill="#900" height="48" stroke="#900" stroke-width="5" transform="rotate(135,3205.0,453.0)" width="32" x="3189.0" y="429.0" /><rect fill="#900" height="48" stroke="#900" stroke-width="5" transform="rotate(135,3173.0,325.0)" width="32" x="3157.0" y="301.0" /><rect fill="#900" height="48" stroke="#900" stroke-width="5" transform="rotate(135,3269.0,421.0)" width="32" x="3253.0" y="397.0" /><circle cx="2277.0" cy="1061.0" fill="#900" r="16" stroke="#900" stroke-width="5" /><circle cx="2469.0" cy="869.0" fill="#900" r="16" stroke="#900" stroke-width="5" /><circle cx="2565.0" cy="1317.0" fill="#900" r="16" stroke="#900" stroke-width="5" /><circle cx="2725.0" cy="1157.0" fill="#900" r="16" stroke="#900" stroke-width="5" /><rect fill="#900" height="48" stroke="#900" stroke-width="5" transform="rotate(315,2565.0,1093.0)" width="32" x="2549.0" y="1069.0" /><rect fill="#900" height="48" stroke="#900" stroke-width="5" transform="rotate(135,2437.0,1093.0)" width="32" x="2421.0" y="1069.0" /><rect fill="#900" height="48" stroke="#900" stroke-width="5" transform="rotate(135,2501.0,1157.0)" width="32" x="2485.0" y="1133.0" /><rect fill="#900" height="48" stroke="#900" stroke-width="5" transform="rotate(315,2501.0,1029.0)" width="32" x="2485.0" y="1005.0" /><circle cx="2501.0" cy="1093.0" fill="#009" r="16" stroke="#009" stroke-width="5" /><rect fill="#900" height="48" stroke="#900" stroke-width="5" transform="rotate(0,133.0,2117.0)" width="32" x="117.0" y="2093.0" /><rect fill="#900" height="48" stroke="#900" stroke-width="5" transform="rotate(270,1477.0,3461.0)" width="32" x="1461.0" y="3437.0" /><rect fill="#900" height="48" stroke="#900" stroke-width="5" transform="rotate(315,837.0,2821.0)" width="32" x="821.0" y="2797.0" /><rect fill="#900" height="48" stroke="#900" stroke-width="5" transform="rotate(135,2949.0,1669.0)" width="32" x="2933.0" y="1645.0" /><rect fill="#900" height="48" stroke="#900" stroke-width="5" transform="rotate(135,1925.0,645.0)" width="32" x="1909.0" y="621.0" /><rect fill="#900" height="48" stroke="#900" stroke-width="5" transform="rotate(90,1541.0,645.0)" width="32" x="1525.0" y="621.0" /><rect fill="#900" height="48" stroke="#900" stroke-width="5" transform="rotate(180,2949.0,2053.0)" width="32" x="2933.0" y="2029.0" /><rect fill="#900" height="48" stroke="#900" stroke-width="5" transform="rotate(180,2117.0,1093.0)" width="32" x="2101.0" y="1069.0" /><rect fill="#900" height="48" stroke="#900" stroke-width="5" transform="rotate(90,2501.0,1477.0)" width="32" x="2485.0" y="1453.0" /><rect fill="#900" height="48" stroke="#900" stroke-width="5" transform="rotate(45,837.0,1349.0)" width="32" x="821.0" y="1325.0" /><rect fill="#900" height="48" stroke="#900" stroke-width="5" transform="rotate(225,2373.0,2629.0)" width="32" x="2357.0" y="2605.0" /><rect fill="#900" height="48" stroke="#900" stroke-width="5" transform="rotate(180,1301.0,2165.0)" width="32" x="1285.0" y="2141.0" /><rect fill="#900" height="48" stroke="#900" stroke-width="5" transform="rotate(180,1301.0,2261.0)" width="32" x="1285.0" y="2237.0" /><rect fill="#900" height="48" stroke="#900" stroke-width="5" transform="rotate(90,1397.0,2357.0)" width="32" x="1381.0" y="2333.0" /><rect fill="#900" height="48" stroke="#900" stroke-width="5" transform="rotate(90,1493.0,2357.0)" width="32" x="1477.0" y="2333.0" /><rect fill="#900" height="48" stroke="#900" stroke-width="5" transform="rotate(0,1589.0,2261.0)" width="32" x="1573.0" y="2237.0" /><rect fill="#900" height="48" stroke="#900" stroke-width="5" transform="rotate(0,1589.0,2165.0)" width="32" x="1573.0" y="2141.0" /><rect fill="#900" height="48" stroke="#900" stroke-width="5" transform="rotate(270,1493.0,2069.0)" width="32" x="1477.0" y="2045.0" /><rect fill="#900" height="48" stroke="#900" stroke-width="5" transform="rotate(270,1397.0,2069.0)" width="32" x="1381.0" y="2045.0" /><rect fill="#900" height="48" stroke="#900" stroke-width="5" transform="rotate(135,1925.0,1477.0)" width="32" x="1909.0" y="1453.0" /><rect fill="#900" height="48" stroke="#900" stroke-width="5" transform="rotate(135,1989.0,1541.0)" width="32" x="1973.0" y="1517.0" /><rect fill="#900" height="48" stroke="#900" stroke-width="5" transform="rotate(135,2053.0,1605.0)" width="32" x="2037.0" y="1581.0" /><rect fill="#900" height="48" stroke="#900" stroke-width="5" transform="rotate(135,2117.0,1669.0)" width="32" x="2101.0" y="1645.0" /><rect fill="#900" height="48" stroke="#900" stroke-width="5" transform="rotate(135,1925.0,1541.0)" width="32" x="1909.0" y="1517.0" /><rect fill="#900" height="48" stroke="#900" stroke-width="5" transform="rotate(135,1989.0,1605.0)" width="32" x="1973.0" y="1581.0" /><rect fill="#900" height="48" stroke="#900" stroke-width="5" transform="rotate(135,2053.0,1669.0)" width="32" x="2037.0" y="1645.0" /><rect fill="#900" height="48" stroke="#900" stroke-width="5" transform="rotate(135,1925.0,1605.0)" width="32" x="1909.0" y="1581.0" /><rect fill="#900" height="48" stroke="#900" stroke-width="5" transform="rotate(135,1989.0,1669.0)" width="32" x="1973.0" y="1645.0" /><rect fill="#900" height="48" stroke="#900" stroke-width="5" transform="rotate(135,1925.0,1669.0)" width="32" x="1909.0" y="1645.0" /><rect fill="#090" height="24" stroke="#090" stroke-width="5" transform="rotate(135,1733.0,645.0)" width="24" x="1721.0" y="633.0" /><rect fill="#090" height="24" stroke="#090" stroke-width="5" transform="rotate(135,1989.0,901.0)" width="24" x="1977.0" y="889.0" /><rect fill="#090" height="24" stroke="#090" stroke-width="5" transform="rotate(135,2949.0,1861.0)" width="24" x="2937.0" y="1849.0" /><rect fill="#090" height="24" stroke="#090" stroke-width="5" transform="rotate(135,2693.0,1605.0)" width="24" x="2681.0" y="1593.0" /><rect fill="#090" height="24" stroke="#090" stroke-width="5" transform="rotate(135,1157.0,2501.0)" width="24" x="1145.0" y="2489.0" /><rect fill="#090" height="24" stroke="#090" stroke-width="5" transform="rotate(135,1157.0,1925.0)" width="24" x="1145.0" y="1913.0" /><rect fill="#090" height="24" stroke="#090" stroke-width="5" transform="rotate(135,1733.0,1925.0)" width="24" x="1721.0" y="1913.0" /><rect fill="#090" height="24" stroke="#090" stroke-width="5" transform="rotate(135,1733.0,2501.0)" width="24" x="1721.0" y="2489.0" /><rect fill="#090" height="24" stroke="#090" stroke-width="5" transform="rotate(135,1541.0,2501.0)" width="24" x="1529.0" y="2489.0" /><rect fill="#090" height="24" stroke="#090" stroke-width="5" transform="rotate(135,1733.0,2309.0)" width="24" x="1721.0" y="2297.0" /><rect fill="#090" height="24" stroke="#090" stroke-width="5" transform="rotate(135,1157.0,2309.0)" width="24" x="1145.0" y="2297.0" /><rect fill="#090" height="24" stroke="#090" stroke-width="5" transform="rotate(135,1349.0,2501.0)" width="24" x="1337.0" y="2489.0" /><rect fill="#090" height="24" stroke="#090" stroke-width="5" transform="rotate(135,1157.0,2117.0)" width="24" x="1145.0" y="2105.0" /><rect fill="#090" height="24" stroke="#090" stroke-width="5" transform="rotate(135,1349.0,1925.0)" width="24" x="1337.0" y="1913.0" /><rect fill="#090" height="24" stroke="#090" stroke-width="5" transform="rotate(135,1541.0,1925.0)" width="24" x="1529.0" y="1913.0" /><rect fill="#090" height="24" stroke="#090" stroke-width="5" transform="rotate(135,1733.0,2117.0)" width="24" x="1721.0" y="2105.0" /><rect fill="#009" height="24" stroke="#009" stroke-width="5" transform="rotate(0,3813.0,1189.0)" width="24" x="3801.0" y="1177.0" /><circle cx="1733.0" cy="901.0" fill="#090" r="16" stroke="#090" stroke-width="5" /><circle cx="2693.0" cy="1861.0" fill="#090" r="16" stroke="#090" stroke-width="5" /><circle cx="2117.0" cy="1349.0" fill="#090" r="16" stroke="#090" stroke-width="5" /><circle cx="2245.0" cy="1477.0" fill="#090" r="16" stroke="#090" stroke-width="5" /><circle cx="1989.0" cy="1733.0" fill="#090" r="16" stroke="#090" stroke-width="5" /><circle cx="1861.0" cy="1605.0" fill="#090" r="16" stroke="#090" stroke-width="5" /></svg>