<?xml version="1.0" encoding="utf-8" ?>
<svg baseProfile="tiny" height="1024" version="1.2" viewBox="0 0 1290 1786" width="739" xmlns="http://www.w3.org/2000/svg" xmlns:ev="http://www.w3.org/2001/xml-events" xmlns:xlink="http://www.w3.org/1999/xlink"><defs /><line stroke="#333" stroke-width="10" x1="69.0" x2="69.0" y1="5.0" y2="325.0" /><line stroke="#333" stroke-width="10" x1="69.0" x2="325.0" y1="325.0" y2="581.0" /><line stroke="#333" stroke-width="10" x1="773.0" x2="965.0" y1="773.0" y2="581.0" /><line stroke="#333" stroke-width="10" x1="1221.0" x2="1221.0" y1="325.0" y2="5.0" /><line stroke="#333" stroke-width="10" x1="1221.0" x2="901.0" y1="5.0" y2="5.0" /><line stroke="#333" stroke-width="10" x1="901.0" x2="645.0" y1="5.0" y2="261.0" /><line stroke="#333" stroke-width="10" x1="645.0" x2="389.0" y1="261.0" y2="5.0" /><line stroke="#333" stroke-width="10" x1="389.0" x2="69.0" y1="5.0" y2="5.0" /><line stroke="#666" stroke-width="20" x1="773.0" x2="517.0" y1="837.0" y2="837.0" /><line stroke="#333" stroke-width="10" x1="773.0" x2="773.0" y1="837.0" y2="773.0" /><line stroke="#666" stroke-width="20" x1="517.0" x2="773.0" y1="773.0" y2="773.0" /><line stroke="#333" stroke-width="10" x1="517.0" x2="517.0" y1="773.0" y2="837.0" /><line stroke="#999" stroke-width="3" x1="69.0" x2="389.0" y1="325.0" y2="5.0" /><line stroke="#999" stroke-width="3" x1="901.0" x2="1221.0" y1="5.0" y2="325.0" /><line stroke="#333" stroke-width="10" x1="965.0" x2="1221.0" y1="581.0" y2="325.0" /><line stroke="#999" stroke-width="3" x1="645.0" x2="965.0" y1="261.0" y2="581.0" /><line stroke="#333" stroke-width="10" x1="325.0" x2="517.0" y1="581.0" y2="773.0" /><line stroke="#999" stroke-width="3" x1="645.0" x2="325.0" y1="261.0" y2="581.0" /><line stroke="#333" stroke-width="10" x1="901.0" x2="773.0" y1="901.0" y2="837.0" /><line stroke="#333" stroke-width="10" x1="1157.0" x2="901.0" y1="773.0" y2="901.0" /><line stroke="#333" stroke-width="10" x1="1285.0" x2="1157.0" y1="1029.0" y2="773.0" /><line stroke="#333" stroke-width="10" x1="1221.0" x2="1285.0" y1="1157.0" y2="1029.0" /><line stroke="#333" stroke-width="10" x1="1093.0" x2="1221.0" y1="1221.0" y2="1157.0" /><line stroke="#333" stroke-width="10" x1="837.0" x2="1093.0" y1="1093.0" y2="1221.0" /><line stroke="#333" stroke-width="10" x1="709.0" x2="837.0" y1="1157.0" y2="1093.0" /><line stroke="#666" stroke-width="20" x1="645.0" x2="709.0" y1="1285.0" y2="1157.0" /><line stroke="#666" stroke-width="20" x1="581.0" x2="645.0" y1="1157.0" y2="1285.0" /><line stroke="#333" stroke-width="10" x1="453.0" x2="581.0" y1="1093.0" y2="1157.0" /><line stroke="#333" stroke-width="10" x1="197.0" x2="453.0" y1="1221.0" y2="1093.0" /><line stroke="#333" stroke-width="10" x1="69.0" x2="197.0" y1="1157.0" y2="1221.0" /><line stroke="#333" stroke-width="10" x1="5.0" x2="69.0" y1="1029.0" y2="1157.0" /><line stroke="#333" stroke-width="10" x1="133.0" x2="5.0" y1="773.0" y2="1029.0" /><line stroke="#333" stroke-width="10" x1="389.0" x2="133.0" y1="901.0" y2="773.0" /><line stroke="#333" stroke-width="10" x1="517.0" x2="389.0" y1="837.0" y2="901.0" /><line stroke="#333" stroke-width="10" x1="581.0" x2="549.0" y1="1157.0" y2="1173.0" /><line stroke="#666" stroke-width="20" x1="613.0" x2="549.0" y1="1301.0" y2="1173.0" /><line stroke="#333" stroke-width="10" x1="613.0" x2="645.0" y1="1301.0" y2="1285.0" /><line stroke="#333" stroke-width="10" x1="645.0" x2="677.0" y1="1285.0" y2="1301.0" /><line stroke="#666" stroke-width="20" x1="741.0" x2="677.0" y1="1173.0" y2="1301.0" /><line stroke="#333" stroke-width="10" x1="741.0" x2="709.0" y1="1173.0" y2="1157.0" /><line stroke="#333" stroke-width="10" x1="549.0" x2="453.0" y1="1173.0" y2="1125.0" /><line stroke="#333" stroke-width="10" x1="453.0" x2="197.0" y1="1125.0" y2="1253.0" /><line stroke="#333" stroke-width="10" x1="197.0" x2="197.0" y1="1253.0" y2="1509.0" /><line stroke="#333" stroke-width="10" x1="197.0" x2="325.0" y1="1509.0" y2="1509.0" /><line stroke="#333" stroke-width="10" x1="629.0" x2="613.0" y1="1333.0" y2="1301.0" /><line stroke="#333" stroke-width="10" x1="677.0" x2="661.0" y1="1301.0" y2="1333.0" /><line stroke="#333" stroke-width="10" x1="661.0" x2="837.0" y1="1509.0" y2="1509.0" /><line stroke="#333" stroke-width="10" x1="1093.0" x2="1093.0" y1="1509.0" y2="1253.0" /><line stroke="#333" stroke-width="10" x1="1093.0" x2="837.0" y1="1253.0" y2="1125.0" /><line stroke="#333" stroke-width="10" x1="837.0" x2="741.0" y1="1125.0" y2="1173.0" /><line stroke="#333" stroke-width="10" x1="629.0" x2="661.0" y1="1509.0" y2="1509.0" /><line stroke="#666" stroke-width="20" x1="661.0" x2="661.0" y1="1333.0" y2="1509.0" /><line stroke="#333" stroke-width="10" x1="661.0" x2="629.0" y1="1333.0" y2="1333.0" /><line stroke="#666" stroke-width="20" x1="629.0" x2="629.0" y1="1509.0" y2="1333.0" /><line stroke="#666" stroke-width="20" x1="453.0" x2="325.0" y1="1525.0" y2="1525.0" /><line stroke="#333" stroke-width="10" x1="453.0" x2="453.0" y1="1525.0" y2="1509.0" /><line stroke="#666" stroke-width="20" x1="325.0" x2="453.0" y1="1509.0" y2="1509.0" /><line stroke="#333" stroke-width="10" x1="325.0" x2="325.0" y1="1509.0" y2="1525.0" /><line stroke="#333" stroke-width="10" x1="453.0" x2="629.0" y1="1509.0" y2="1509.0" /><line stroke="#666" stroke-width="20" x1="837.0" x2="965.0" y1="1509.0" y2="1509.0" /><line stroke="#333" stroke-width="10" x1="837.0" x2="837.0" y1="1509.0" y2="1525.0" /><line stroke="#666" stroke-width="20" x1="965.0" x2="837.0" y1="1525.0" y2="1525.0" /><line stroke="#333" stroke-width="10" x1="965.0" x2="965.0" y1="1525.0" y2="1509.0" /><line stroke="#333" stroke-width="10" x1="965.0" x2="1093.0" y1="1509.0" y2="1509.0" /><line stroke="#333" stroke-width="10" x1="645.0" x2="453.0" y1="1621.0" y2="1525.0" /><line stroke="#333" stroke-width="10" x1="837.0" x2="645.0" y1="1525.0" y2="1621.0" /><line stroke="#333" stroke-width="10" x1="837.0" x2="965.0" y1="1717.0" y2="1781.0" /><line stroke="#333" stroke-width="10" x1="709.0" x2="837.0" y1="1781.0" y2="1717.0" /><line stroke="#d00" stroke-width="20" x1="645.0" x2="709.0" y1="1749.0" y2="1781.0" /><line stroke="#666" stroke-width="20" x1="581.0" x2="645.0" y1="1781.0" y2="1749.0" /><line stroke="#333" stroke-width="10" x1="453.0" x2="581.0" y1="1717.0" y2="1781.0" /><line stroke="#333" stroke-width="10" x1="325.0" x2="453.0" y1="1781.0" y2="1717.0" /><line stroke="#333" stroke-width="10" x1="309.0" x2="325.0" y1="1781.0" y2="1781.0" /><line stroke="#333" stroke-width="10" x1="325.0" x2="309.0" y1="1525.0" y2="1525.0" /><line stroke="#999" stroke-width="3" x1="325.0" x2="325.0" y1="1525.0" y2="1781.0" /><line stroke="#333" stroke-width="10" x1="53.0" x2="309.0" y1="1781.0" y2="1781.0" /><line stroke="#333" stroke-width="10" x1="53.0" x2="53.0" y1="1525.0" y2="1781.0" /><line stroke="#333" stroke-width="10" x1="309.0" x2="53.0" y1="1525.0" y2="1525.0" /><line stroke="#999" stroke-width="3" x1="309.0" x2="309.0" y1="1781.0" y2="1525.0" /><line stroke="#333" stroke-width="10" x1="965.0" x2="973.0" y1="1781.0" y2="1781.0" /><line stroke="#999" stroke-width="3" x1="973.0" x2="973.0" y1="1525.0" y2="1781.0" /><line stroke="#333" stroke-width="10" x1="973.0" x2="965.0" y1="1525.0" y2="1525.0" /><line stroke="#999" stroke-width="3" x1="965.0" x2="965.0" y1="1781.0" y2="1525.0" /><line stroke="#333" stroke-width="10" x1="973.0" x2="1069.0" y1="1781.0" y2="1685.0" /><line stroke="#0d0" stroke-width="20" x1="1069.0" x2="1069.0" y1="1685.0" y2="1621.0" /><line stroke="#333" stroke-width="10" x1="1069.0" x2="973.0" y1="1621.0" y2="1525.0" /><ellipse cx="133.0" cy="133.0" fill="#009" rx="12" ry="24" stroke="#009" stroke-width="5" /><ellipse cx="197.0" cy="69.0" fill="#009" rx="12" ry="24" stroke="#009" stroke-width="5" /><ellipse cx="1093.0" cy="69.0" fill="#009" rx="12" ry="24" stroke="#009" stroke-width="5" /><ellipse cx="1157.0" cy="133.0" fill="#009" rx="12" ry="24" stroke="#009" stroke-width="5" /><rect fill="#090" height="24" stroke="#090" stroke-width="5" transform="rotate(45,133.0,69.0)" width="24" x="121.0" y="57.0" /><rect fill="#090" height="24" stroke="#090" stroke-width="5" transform="rotate(135,1157.0,69.0)" width="24" x="1145.0" y="57.0" /><circle cx="133.0" cy="197.0" fill="#090" r="16" stroke="#090" stroke-width="5" /><circle cx="1157.0" cy="197.0" fill="#090" r="16" stroke="#090" stroke-width="5" /><circle cx="261.0" cy="69.0" fill="#090" r="16" stroke="#090" stroke-width="5" /><circle cx="1029.0" cy="69.0" fill="#090" r="16" stroke="#090" stroke-width="5" /><circle cx="197.0" cy="133.0" fill="#900" r="16" stroke="#900" stroke-width="5" /><circle cx="1093.0" cy="133.0" fill="#900" r="16" stroke="#900" stroke-width="5" /><rect fill="#090" height="24" stroke="#090" stroke-width="5" transform="rotate(315,101.0,1125.0)" width="24" x="89.0" y="1113.0" /><rect fill="#090" height="24" stroke="#090" stroke-width="5" transform="rotate(225,1189.0,1125.0)" width="24" x="1177.0" y="1113.0" /><rect fill="#900" height="48" stroke="#900" stroke-width="5" transform="rotate(225,405.0,565.0)" width="32" x="389.0" y="541.0" /><rect fill="#900" height="48" stroke="#900" stroke-width="5" transform="rotate(315,901.0,581.0)" width="32" x="885.0" y="557.0" /><rect fill="#900" height="48" stroke="#900" stroke-width="5" transform="rotate(90,645.0,309.0)" width="32" x="629.0" y="285.0" /><rect fill="#900" height="48" stroke="#900" stroke-width="5" transform="rotate(180,597.0,357.0)" width="32" x="581.0" y="333.0" /><rect fill="#900" height="48" stroke="#900" stroke-width="5" transform="rotate(0,693.0,357.0)" width="32" x="677.0" y="333.0" /><rect fill="#900" height="48" stroke="#900" stroke-width="5" transform="rotate(225,597.0,261.0)" width="32" x="581.0" y="237.0" /><rect fill="#900" height="48" stroke="#900" stroke-width="5" transform="rotate(315,693.0,261.0)" width="32" x="677.0" y="237.0" /><rect fill="#900" height="48" stroke="#900" stroke-width="5" transform="rotate(270,645.0,725.0)" width="32" x="629.0" y="701.0" /><rect fill="#900" height="48" stroke="#900" stroke-width="5" transform="rotate(45,549.0,885.0)" width="32" x="533.0" y="861.0" /><rect fill="#900" height="48" stroke="#900" stroke-width="5" transform="rotate(135,741.0,885.0)" width="32" x="725.0" y="861.0" /><rect fill="#900" height="48" stroke="#900" stroke-width="5" transform="rotate(90,645.0,885.0)" width="32" x="629.0" y="861.0" /><rect fill="#900" height="48" stroke="#900" stroke-width="5" transform="rotate(135,1141.0,821.0)" width="32" x="1125.0" y="797.0" /><rect fill="#900" height="48" stroke="#900" stroke-width="5" transform="rotate(180,1253.0,1029.0)" width="32" x="1237.0" y="1005.0" /><rect fill="#900" height="48" stroke="#900" stroke-width="5" transform="rotate(45,149.0,821.0)" width="32" x="133.0" y="797.0" /><rect fill="#900" height="48" stroke="#900" stroke-width="5" transform="rotate(0,37.0,1029.0)" width="32" x="21.0" y="1005.0" /><rect fill="#900" height="48" stroke="#900" stroke-width="5" transform="rotate(270,645.0,1237.0)" width="32" x="629.0" y="1213.0" /><rect fill="#900" height="48" stroke="#900" stroke-width="5" transform="rotate(270,645.0,1173.0)" width="32" x="629.0" y="1149.0" /><rect fill="#900" height="48" stroke="#900" stroke-width="5" transform="rotate(270,197.0,1189.0)" width="32" x="181.0" y="1165.0" /><rect fill="#900" height="48" stroke="#900" stroke-width="5" transform="rotate(270,1093.0,1189.0)" width="32" x="1077.0" y="1165.0" /><rect fill="#900" height="48" stroke="#900" stroke-width="5" transform="rotate(90,389.0,933.0)" width="32" x="373.0" y="909.0" /><rect fill="#900" height="48" stroke="#900" stroke-width="5" transform="rotate(90,901.0,933.0)" width="32" x="885.0" y="909.0" /><rect fill="#900" height="48" stroke="#900" stroke-width="5" transform="rotate(270,453.0,1045.0)" width="32" x="437.0" y="1021.0" /><rect fill="#900" height="48" stroke="#900" stroke-width="5" transform="rotate(270,837.0,1045.0)" width="32" x="821.0" y="1021.0" /><circle cx="229.0" cy="1013.0" fill="#900" r="16" stroke="#900" stroke-width="5" /><circle cx="1077.0" cy="1013.0" fill="#900" r="16" stroke="#900" stroke-width="5" /><circle cx="645.0" cy="1013.0" fill="#900" r="16" stroke="#900" stroke-width="5" /><circle cx="645.0" cy="533.0" fill="#900" r="16" stroke="#900" stroke-width="5" /><circle cx="389.0" cy="53.0" fill="#900" r="16" stroke="#900" stroke-width="5" /><circle cx="901.0" cy="53.0" fill="#900" r="16" stroke="#900" stroke-width="5" /><circle cx="1173.0" cy="325.0" fill="#090" r="16" stroke="#090" stroke-width="5" /><circle cx="117.0" cy="325.0" fill="#090" r="16" stroke="#090" stroke-width="5" /><ellipse cx="85.0" cy="1653.0" fill="#090" rx="12" ry="24" stroke="#090" stroke-width="5" /><rect fill="#900" height="48" stroke="#900" stroke-width="5" transform="rotate(315,261.0,1733.0)" width="32" x="245.0" y="1709.0" /><rect fill="#900" height="48" stroke="#900" stroke-width="5" transform="rotate(0,261.0,1653.0)" width="32" x="245.0" y="1629.0" /><rect fill="#900" height="48" stroke="#900" stroke-width="5" transform="rotate(45,261.0,1573.0)" width="32" x="245.0" y="1549.0" /><rect fill="#090" height="24" stroke="#090" stroke-width="5" transform="rotate(0,197.0,1733.0)" width="24" x="185.0" y="1721.0" /><rect fill="#090" height="24" stroke="#090" stroke-width="5" transform="rotate(0,197.0,1653.0)" width="24" x="185.0" y="1641.0" /><rect fill="#090" height="24" stroke="#090" stroke-width="5" transform="rotate(0,197.0,1573.0)" width="24" x="185.0" y="1561.0" /><rect fill="#900" height="48" stroke="#900" stroke-width="5" transform="rotate(45,133.0,1733.0)" width="32" x="117.0" y="1709.0" /><rect fill="#900" height="48" stroke="#900" stroke-width="5" transform="rotate(0,133.0,1653.0)" width="32" x="117.0" y="1629.0" /><rect fill="#900" height="48" stroke="#900" stroke-width="5" transform="rotate(315,133.0,1573.0)" width="32" x="117.0" y="1549.0" /><rect fill="#900" height="48" stroke="#900" stroke-width="5" transform="rotate(270,85.0,1573.0)" width="32" x="69.0" y="1549.0" /><rect fill="#900" height="48" stroke="#900" stroke-width="5" transform="rotate(90,85.0,1733.0)" width="32" x="69.0" y="1709.0" /><circle cx="85.0" cy="1693.0" fill="#090" r="16" stroke="#090" stroke-width="5" /><circle cx="133.0" cy="1693.0" fill="#090" r="16" stroke="#090" stroke-width="5" /><circle cx="133.0" cy="1613.0" fill="#090" r="16" stroke="#090" stroke-width="5" /><circle cx="85.0" cy="1613.0" fill="#090" r="16" stroke="#090" stroke-width="5" /><rect fill="#900" height="48" stroke="#900" stroke-width="5" transform="rotate(315,245.0,1461.0)" width="32" x="229.0" y="1437.0" /><rect fill="#900" height="48" stroke="#900" stroke-width="5" transform="rotate(225,1045.0,1461.0)" width="32" x="1029.0" y="1437.0" /><rect fill="#900" height="48" stroke="#900" stroke-width="5" transform="rotate(135,1045.0,1285.0)" width="32" x="1029.0" y="1261.0" /><rect fill="#900" height="48" stroke="#900" stroke-width="5" transform="rotate(45,245.0,1285.0)" width="32" x="229.0" y="1261.0" /><rect fill="#900" height="48" stroke="#900" stroke-width="5" transform="rotate(90,453.0,1189.0)" width="32" x="437.0" y="1165.0" /><rect fill="#900" height="48" stroke="#900" stroke-width="5" transform="rotate(90,837.0,1189.0)" width="32" x="821.0" y="1165.0" /><rect fill="#900" height="48" stroke="#900" stroke-width="5" transform="rotate(0,693.0,1365.0)" width="32" x="677.0" y="1341.0" /><rect fill="#900" height="48" stroke="#900" stroke-width="5" transform="rotate(0,693.0,1477.0)" width="32" x="677.0" y="1453.0" /><rect fill="#900" height="48" stroke="#900" stroke-width="5" transform="rotate(180,597.0,1477.0)" width="32" x="581.0" y="1453.0" /><rect fill="#900" height="48" stroke="#900" stroke-width="5" transform="rotate(180,597.0,1365.0)" width="32" x="581.0" y="1341.0" /><rect fill="#900" height="48" stroke="#900" stroke-width="5" transform="rotate(270,581.0,1733.0)" width="32" x="565.0" y="1709.0" /><rect fill="#900" height="48" stroke="#900" stroke-width="5" transform="rotate(270,709.0,1733.0)" width="32" x="693.0" y="1709.0" /><rect fill="#900" height="48" stroke="#900" stroke-width="5" transform="rotate(90,645.0,1653.0)" width="32" x="629.0" y="1629.0" /></svg>