<?xml version="1.0" encoding="utf-8" ?>
<svg baseProfile="tiny" height="1024" version="1.2" viewBox="0 0 3594 4106" width="896" xmlns="http://www.w3.org/2000/svg" xmlns:ev="http://www.w3.org/2001/xml-events" xmlns:xlink="http://www.w3.org/1999/xlink"><defs /><line stroke="#333" stroke-width="10" x1="2501.0" x2="2501.0" y1="1093.0" y2="965.0" /><line stroke="#333" stroke-width="10" x1="2629.0" x2="2501.0" y1="1093.0" y2="1093.0" /><line stroke="#333" stroke-width="10" x1="2629.0" x2="2629.0" y1="1477.0" y2="1357.0" /><line stroke="#333" stroke-width="10" x1="2501.0" x2="2629.0" y1="1477.0" y2="1477.0" /><line stroke="#333" stroke-width="10" x1="2501.0" x2="2381.0" y1="965.0" y2="965.0" /><line stroke="#333" stroke-width="10" x1="2117.0" x2="2117.0" y1="965.0" y2="1093.0" /><line stroke="#333" stroke-width="10" x1="2117.0" x2="1989.0" y1="1093.0" y2="1093.0" /><line stroke="#999" stroke-width="3" x1="2245.0" x2="2181.0" y1="1157.0" y2="1157.0" /><line stroke="#999" stroke-width="3" x1="2181.0" x2="2181.0" y1="1157.0" y2="1221.0" /><line stroke="#999" stroke-width="3" x1="2181.0" x2="2053.0" y1="1221.0" y2="1285.0" /><line stroke="#999" stroke-width="3" x1="2053.0" x2="2181.0" y1="1285.0" y2="1349.0" /><line stroke="#999" stroke-width="3" x1="2181.0" x2="2181.0" y1="1349.0" y2="1413.0" /><line stroke="#999" stroke-width="3" x1="2181.0" x2="2237.0" y1="1413.0" y2="1413.0" /><line stroke="#999" stroke-width="3" x1="2237.0" x2="2309.0" y1="1413.0" y2="1541.0" /><line stroke="#999" stroke-width="3" x1="2309.0" x2="2373.0" y1="1541.0" y2="1413.0" /><line stroke="#999" stroke-width="3" x1="2373.0" x2="2437.0" y1="1413.0" y2="1413.0" /><line stroke="#999" stroke-width="3" x1="2437.0" x2="2437.0" y1="1413.0" y2="1349.0" /><line stroke="#999" stroke-width="3" x1="2437.0" x2="2565.0" y1="1349.0" y2="1285.0" /><line stroke="#999" stroke-width="3" x1="2565.0" x2="2437.0" y1="1285.0" y2="1221.0" /><line stroke="#999" stroke-width="3" x1="2437.0" x2="2437.0" y1="1221.0" y2="1157.0" /><line stroke="#999" stroke-width="3" x1="2437.0" x2="2373.0" y1="1157.0" y2="1157.0" /><line stroke="#999" stroke-width="3" x1="2373.0" x2="2309.0" y1="1157.0" y2="1029.0" /><line stroke="#999" stroke-width="3" x1="2309.0" x2="2245.0" y1="1029.0" y2="1157.0" /><line stroke="#333" stroke-width="10" x1="1989.0" x2="1989.0" y1="1093.0" y2="1221.0" /><line stroke="#333" stroke-width="10" x1="1989.0" x2="2117.0" y1="1477.0" y2="1477.0" /><line stroke="#333" stroke-width="10" x1="2117.0" x2="2117.0" y1="1477.0" y2="1605.0" /><line stroke="#333" stroke-width="10" x1="2117.0" x2="2237.0" y1="1605.0" y2="1605.0" /><line stroke="#333" stroke-width="10" x1="2501.0" x2="2501.0" y1="1605.0" y2="1477.0" /><line stroke="#666" stroke-width="20" x1="1989.0" x2="1989.0" y1="1221.0" y2="1349.0" /><line stroke="#333" stroke-width="10" x1="1989.0" x2="1989.0" y1="1349.0" y2="1477.0" /><line stroke="#333" stroke-width="10" x1="1541.0" x2="1541.0" y1="965.0" y2="1605.0" /><line stroke="#333" stroke-width="10" x1="1541.0" x2="1605.0" y1="1605.0" y2="1605.0" /><line stroke="#333" stroke-width="10" x1="1965.0" x2="1965.0" y1="1605.0" y2="1349.0" /><line stroke="#666" stroke-width="20" x1="1965.0" x2="1965.0" y1="1349.0" y2="1221.0" /><line stroke="#333" stroke-width="10" x1="1965.0" x2="1965.0" y1="1221.0" y2="965.0" /><line stroke="#333" stroke-width="10" x1="1965.0" x2="1669.0" y1="965.0" y2="965.0" /><line stroke="#333" stroke-width="10" x1="1965.0" x2="1989.0" y1="1349.0" y2="1349.0" /><line stroke="#333" stroke-width="10" x1="1989.0" x2="1965.0" y1="1221.0" y2="1221.0" /><line stroke="#999" stroke-width="3" x1="1605.0" x2="1605.0" y1="1477.0" y2="1541.0" /><line stroke="#999" stroke-width="3" x1="1605.0" x2="1861.0" y1="1541.0" y2="1541.0" /><line stroke="#999" stroke-width="3" x1="1861.0" x2="1861.0" y1="1541.0" y2="1477.0" /><line stroke="#999" stroke-width="3" x1="1861.0" x2="1733.0" y1="1477.0" y2="1477.0" /><line stroke="#999" stroke-width="3" x1="1733.0" x2="1733.0" y1="1477.0" y2="1413.0" /><line stroke="#999" stroke-width="3" x1="1733.0" x2="1861.0" y1="1413.0" y2="1413.0" /><line stroke="#999" stroke-width="3" x1="1861.0" x2="1861.0" y1="1413.0" y2="1349.0" /><line stroke="#999" stroke-width="3" x1="1861.0" x2="1669.0" y1="1349.0" y2="1349.0" /><line stroke="#999" stroke-width="3" x1="1669.0" x2="1669.0" y1="1349.0" y2="1477.0" /><line stroke="#999" stroke-width="3" x1="1669.0" x2="1605.0" y1="1477.0" y2="1477.0" /><line stroke="#999" stroke-width="3" x1="1605.0" x2="1605.0" y1="1093.0" y2="1285.0" /><line stroke="#999" stroke-width="3" x1="1605.0" x2="1669.0" y1="1285.0" y2="1285.0" /><line stroke="#999" stroke-width="3" x1="1669.0" x2="1669.0" y1="1285.0" y2="1157.0" /><line stroke="#999" stroke-width="3" x1="1669.0" x2="1797.0" y1="1157.0" y2="1157.0" /><line stroke="#999" stroke-width="3" x1="1797.0" x2="1797.0" y1="1157.0" y2="1285.0" /><line stroke="#999" stroke-width="3" x1="1797.0" x2="1861.0" y1="1285.0" y2="1285.0" /><line stroke="#999" stroke-width="3" x1="1861.0" x2="1861.0" y1="1285.0" y2="1093.0" /><line stroke="#999" stroke-width="3" x1="1861.0" x2="1797.0" y1="1093.0" y2="1093.0" /><line stroke="#999" stroke-width="3" x1="1797.0" x2="1669.0" y1="1029.0" y2="1029.0" /><line stroke="#999" stroke-width="3" x1="1669.0" x2="1669.0" y1="1029.0" y2="1093.0" /><line stroke="#999" stroke-width="3" x1="1669.0" x2="1605.0" y1="1093.0" y2="1093.0" /><line stroke="#999" stroke-width="3" x1="1797.0" x2="1797.0" y1="1093.0" y2="1029.0" /><line stroke="#666" stroke-width="20" x1="1605.0" x2="1669.0" y1="1605.0" y2="1605.0" /><line stroke="#333" stroke-width="10" x1="1669.0" x2="1965.0" y1="1605.0" y2="1605.0" /><line stroke="#666" stroke-width="20" x1="1669.0" x2="1605.0" y1="965.0" y2="965.0" /><line stroke="#333" stroke-width="10" x1="1605.0" x2="1541.0" y1="965.0" y2="965.0" /><line stroke="#999" stroke-width="3" x1="1285.0" x2="1285.0" y1="1733.0" y2="1797.0" /><line stroke="#333" stroke-width="10" x1="1285.0" x2="1669.0" y1="1797.0" y2="1797.0" /><line stroke="#333" stroke-width="10" x1="1669.0" x2="1669.0" y1="1797.0" y2="1637.0" /><line stroke="#666" stroke-width="20" x1="1669.0" x2="1605.0" y1="1637.0" y2="1637.0" /><line stroke="#333" stroke-width="10" x1="1605.0" x2="1605.0" y1="1637.0" y2="1733.0" /><line stroke="#333" stroke-width="10" x1="1605.0" x2="1285.0" y1="1733.0" y2="1733.0" /><line stroke="#333" stroke-width="10" x1="1605.0" x2="1605.0" y1="1605.0" y2="1637.0" /><line stroke="#333" stroke-width="10" x1="1669.0" x2="1669.0" y1="1637.0" y2="1605.0" /><line stroke="#999" stroke-width="3" x1="1285.0" x2="1285.0" y1="773.0" y2="837.0" /><line stroke="#333" stroke-width="10" x1="1285.0" x2="1605.0" y1="837.0" y2="837.0" /><line stroke="#333" stroke-width="10" x1="1605.0" x2="1605.0" y1="837.0" y2="941.0" /><line stroke="#666" stroke-width="20" x1="1605.0" x2="1669.0" y1="941.0" y2="941.0" /><line stroke="#333" stroke-width="10" x1="1669.0" x2="1669.0" y1="941.0" y2="773.0" /><line stroke="#333" stroke-width="10" x1="1669.0" x2="1285.0" y1="773.0" y2="773.0" /><line stroke="#333" stroke-width="10" x1="1605.0" x2="1605.0" y1="941.0" y2="965.0" /><line stroke="#333" stroke-width="10" x1="1669.0" x2="1669.0" y1="965.0" y2="941.0" /><line stroke="#333" stroke-width="10" x1="773.0" x2="773.0" y1="709.0" y2="965.0" /><line stroke="#333" stroke-width="10" x1="773.0" x2="1285.0" y1="1861.0" y2="1861.0" /><line stroke="#333" stroke-width="10" x1="1285.0" x2="1285.0" y1="1861.0" y2="1797.0" /><line stroke="#333" stroke-width="10" x1="1285.0" x2="1285.0" y1="1733.0" y2="837.0" /><line stroke="#333" stroke-width="10" x1="1285.0" x2="1285.0" y1="773.0" y2="709.0" /><line stroke="#333" stroke-width="10" x1="1285.0" x2="773.0" y1="709.0" y2="709.0" /><line stroke="#999" stroke-width="3" x1="837.0" x2="837.0" y1="773.0" y2="1797.0" /><line stroke="#999" stroke-width="3" x1="837.0" x2="1157.0" y1="1797.0" y2="1797.0" /><line stroke="#999" stroke-width="3" x1="1157.0" x2="1157.0" y1="1797.0" y2="1733.0" /><line stroke="#999" stroke-width="3" x1="1157.0" x2="1029.0" y1="1733.0" y2="1733.0" /><line stroke="#999" stroke-width="3" x1="1029.0" x2="1029.0" y1="1733.0" y2="837.0" /><line stroke="#999" stroke-width="3" x1="1029.0" x2="1157.0" y1="837.0" y2="837.0" /><line stroke="#999" stroke-width="3" x1="1157.0" x2="1157.0" y1="837.0" y2="773.0" /><line stroke="#999" stroke-width="3" x1="1157.0" x2="837.0" y1="773.0" y2="773.0" /><line stroke="#999" stroke-width="3" x1="773.0" x2="773.0" y1="965.0" y2="1605.0" /><line stroke="#333" stroke-width="10" x1="773.0" x2="773.0" y1="1605.0" y2="1861.0" /><line stroke="#999" stroke-width="3" x1="261.0" x2="261.0" y1="1221.0" y2="1349.0" /><line stroke="#333" stroke-width="10" x1="261.0" x2="581.0" y1="1349.0" y2="1349.0" /><line stroke="#333" stroke-width="10" x1="581.0" x2="581.0" y1="1349.0" y2="1541.0" /><line stroke="#333" stroke-width="10" x1="581.0" x2="773.0" y1="1541.0" y2="1605.0" /><line stroke="#333" stroke-width="10" x1="773.0" x2="581.0" y1="965.0" y2="1029.0" /><line stroke="#333" stroke-width="10" x1="581.0" x2="581.0" y1="1029.0" y2="1221.0" /><line stroke="#333" stroke-width="10" x1="581.0" x2="261.0" y1="1221.0" y2="1221.0" /><line stroke="#333" stroke-width="10" x1="5.0" x2="5.0" y1="901.0" y2="1669.0" /><line stroke="#333" stroke-width="10" x1="5.0" x2="261.0" y1="1669.0" y2="1669.0" /><line stroke="#333" stroke-width="10" x1="261.0" x2="261.0" y1="1669.0" y2="1477.0" /><line stroke="#333" stroke-width="10" x1="261.0" x2="453.0" y1="1477.0" y2="1477.0" /><line stroke="#333" stroke-width="10" x1="453.0" x2="453.0" y1="1477.0" y2="1669.0" /><line stroke="#666" stroke-width="20" x1="453.0" x2="517.0" y1="1669.0" y2="1669.0" /><line stroke="#333" stroke-width="10" x1="517.0" x2="517.0" y1="1669.0" y2="1413.0" /><line stroke="#333" stroke-width="10" x1="517.0" x2="261.0" y1="1413.0" y2="1413.0" /><line stroke="#333" stroke-width="10" x1="261.0" x2="261.0" y1="1413.0" y2="1349.0" /><line stroke="#333" stroke-width="10" x1="261.0" x2="261.0" y1="1221.0" y2="1157.0" /><line stroke="#333" stroke-width="10" x1="261.0" x2="517.0" y1="1157.0" y2="1157.0" /><line stroke="#333" stroke-width="10" x1="517.0" x2="517.0" y1="1157.0" y2="901.0" /><line stroke="#666" stroke-width="20" x1="517.0" x2="453.0" y1="901.0" y2="901.0" /><line stroke="#333" stroke-width="10" x1="453.0" x2="453.0" y1="901.0" y2="1093.0" /><line stroke="#333" stroke-width="10" x1="453.0" x2="261.0" y1="1093.0" y2="1093.0" /><line stroke="#333" stroke-width="10" x1="261.0" x2="261.0" y1="1093.0" y2="901.0" /><line stroke="#333" stroke-width="10" x1="261.0" x2="5.0" y1="901.0" y2="901.0" /><line stroke="#00d" stroke-width="20" x1="69.0" x2="69.0" y1="965.0" y2="1029.0" /><line stroke="#00d" stroke-width="20" x1="69.0" x2="133.0" y1="1029.0" y2="1029.0" /><line stroke="#00d" stroke-width="20" x1="133.0" x2="133.0" y1="1029.0" y2="965.0" /><line stroke="#00d" stroke-width="20" x1="133.0" x2="69.0" y1="965.0" y2="965.0" /><line stroke="#333" stroke-width="10" x1="389.0" x2="453.0" y1="517.0" y2="773.0" /><line stroke="#333" stroke-width="10" x1="453.0" x2="453.0" y1="773.0" y2="837.0" /><line stroke="#666" stroke-width="20" x1="453.0" x2="517.0" y1="837.0" y2="837.0" /><line stroke="#333" stroke-width="10" x1="517.0" x2="517.0" y1="837.0" y2="773.0" /><line stroke="#333" stroke-width="10" x1="517.0" x2="581.0" y1="773.0" y2="517.0" /><line stroke="#333" stroke-width="10" x1="581.0" x2="773.0" y1="517.0" y2="453.0" /><line stroke="#333" stroke-width="10" x1="773.0" x2="965.0" y1="453.0" y2="317.0" /><line stroke="#333" stroke-width="10" x1="965.0" x2="965.0" y1="317.0" y2="197.0" /><line stroke="#333" stroke-width="10" x1="965.0" x2="765.0" y1="197.0" y2="61.0" /><line stroke="#333" stroke-width="10" x1="765.0" x2="573.0" y1="61.0" y2="5.0" /><line stroke="#333" stroke-width="10" x1="573.0" x2="389.0" y1="5.0" y2="5.0" /><line stroke="#333" stroke-width="10" x1="389.0" x2="197.0" y1="5.0" y2="69.0" /><line stroke="#333" stroke-width="10" x1="197.0" x2="5.0" y1="69.0" y2="205.0" /><line stroke="#333" stroke-width="10" x1="5.0" x2="5.0" y1="205.0" y2="325.0" /><line stroke="#333" stroke-width="10" x1="5.0" x2="197.0" y1="325.0" y2="453.0" /><line stroke="#333" stroke-width="10" x1="197.0" x2="389.0" y1="453.0" y2="517.0" /><line stroke="#333" stroke-width="10" x1="453.0" x2="453.0" y1="837.0" y2="901.0" /><line stroke="#333" stroke-width="10" x1="517.0" x2="517.0" y1="901.0" y2="837.0" /><line stroke="#999" stroke-width="3" x1="133.0" x2="133.0" y1="197.0" y2="325.0" /><line stroke="#999" stroke-width="3" x1="133.0" x2="261.0" y1="325.0" y2="325.0" /><line stroke="#999" stroke-width="3" x1="261.0" x2="261.0" y1="325.0" y2="197.0" /><line stroke="#999" stroke-width="3" x1="261.0" x2="133.0" y1="197.0" y2="197.0" /><line stroke="#999" stroke-width="3" x1="709.0" x2="709.0" y1="197.0" y2="325.0" /><line stroke="#999" stroke-width="3" x1="709.0" x2="837.0" y1="325.0" y2="325.0" /><line stroke="#999" stroke-width="3" x1="837.0" x2="837.0" y1="325.0" y2="197.0" /><line stroke="#999" stroke-width="3" x1="837.0" x2="709.0" y1="197.0" y2="197.0" /><line stroke="#333" stroke-width="10" x1="453.0" x2="389.0" y1="1733.0" y2="1797.0" /><line stroke="#333" stroke-width="10" x1="389.0" x2="389.0" y1="1797.0" y2="2501.0" /><line stroke="#333" stroke-width="10" x1="389.0" x2="453.0" y1="2501.0" y2="2565.0" /><line stroke="#333" stroke-width="10" x1="453.0" x2="517.0" y1="2565.0" y2="2565.0" /><line stroke="#333" stroke-width="10" x1="517.0" x2="581.0" y1="2565.0" y2="2501.0" /><line stroke="#333" stroke-width="10" x1="581.0" x2="581.0" y1="2501.0" y2="1789.0" /><line stroke="#333" stroke-width="10" x1="581.0" x2="517.0" y1="1789.0" y2="1733.0" /><line stroke="#666" stroke-width="20" x1="517.0" x2="453.0" y1="1733.0" y2="1733.0" /><line stroke="#999" stroke-width="3" x1="453.0" x2="453.0" y1="1797.0" y2="1989.0" /><line stroke="#999" stroke-width="3" x1="453.0" x2="517.0" y1="1989.0" y2="1989.0" /><line stroke="#999" stroke-width="3" x1="517.0" x2="517.0" y1="1989.0" y2="1797.0" /><line stroke="#999" stroke-width="3" x1="517.0" x2="453.0" y1="1797.0" y2="1797.0" /><line stroke="#999" stroke-width="3" x1="453.0" x2="453.0" y1="2053.0" y2="2245.0" /><line stroke="#999" stroke-width="3" x1="453.0" x2="517.0" y1="2245.0" y2="2245.0" /><line stroke="#999" stroke-width="3" x1="517.0" x2="517.0" y1="2245.0" y2="2053.0" /><line stroke="#999" stroke-width="3" x1="517.0" x2="453.0" y1="2053.0" y2="2053.0" /><line stroke="#999" stroke-width="3" x1="453.0" x2="453.0" y1="2309.0" y2="2501.0" /><line stroke="#999" stroke-width="3" x1="453.0" x2="517.0" y1="2501.0" y2="2501.0" /><line stroke="#999" stroke-width="3" x1="517.0" x2="517.0" y1="2501.0" y2="2309.0" /><line stroke="#999" stroke-width="3" x1="517.0" x2="453.0" y1="2309.0" y2="2309.0" /><line stroke="#333" stroke-width="10" x1="453.0" x2="453.0" y1="1669.0" y2="1733.0" /><line stroke="#333" stroke-width="10" x1="517.0" x2="517.0" y1="1733.0" y2="1669.0" /><line stroke="#333" stroke-width="10" x1="2237.0" x2="2245.0" y1="1605.0" y2="1605.0" /><line stroke="#d00" stroke-width="20" x1="2245.0" x2="2373.0" y1="1605.0" y2="1605.0" /><line stroke="#333" stroke-width="10" x1="2373.0" x2="2381.0" y1="1605.0" y2="1605.0" /><line stroke="#333" stroke-width="10" x1="2381.0" x2="2501.0" y1="1605.0" y2="1605.0" /><line stroke="#333" stroke-width="10" x1="2245.0" x2="2245.0" y1="1629.0" y2="1733.0" /><line stroke="#333" stroke-width="10" x1="2245.0" x2="2181.0" y1="1733.0" y2="1733.0" /><line stroke="#333" stroke-width="10" x1="2181.0" x2="2181.0" y1="1733.0" y2="1797.0" /><line stroke="#333" stroke-width="10" x1="2181.0" x2="2245.0" y1="1797.0" y2="1797.0" /><line stroke="#333" stroke-width="10" x1="2245.0" x2="2245.0" y1="1797.0" y2="1925.0" /><line stroke="#333" stroke-width="10" x1="2245.0" x2="2181.0" y1="1925.0" y2="1925.0" /><line stroke="#333" stroke-width="10" x1="2181.0" x2="2181.0" y1="1925.0" y2="1989.0" /><line stroke="#333" stroke-width="10" x1="2181.0" x2="2245.0" y1="1989.0" y2="1989.0" /><line stroke="#333" stroke-width="10" x1="2245.0" x2="2245.0" y1="1989.0" y2="2117.0" /><line stroke="#666" stroke-width="20" x1="2245.0" x2="2373.0" y1="2117.0" y2="2117.0" /><line stroke="#333" stroke-width="10" x1="2373.0" x2="2373.0" y1="2117.0" y2="1989.0" /><line stroke="#333" stroke-width="10" x1="2373.0" x2="2437.0" y1="1989.0" y2="1989.0" /><line stroke="#333" stroke-width="10" x1="2437.0" x2="2437.0" y1="1989.0" y2="1925.0" /><line stroke="#333" stroke-width="10" x1="2437.0" x2="2373.0" y1="1925.0" y2="1925.0" /><line stroke="#333" stroke-width="10" x1="2373.0" x2="2373.0" y1="1925.0" y2="1797.0" /><line stroke="#333" stroke-width="10" x1="2373.0" x2="2437.0" y1="1797.0" y2="1797.0" /><line stroke="#333" stroke-width="10" x1="2437.0" x2="2437.0" y1="1797.0" y2="1733.0" /><line stroke="#333" stroke-width="10" x1="2437.0" x2="2373.0" y1="1733.0" y2="1733.0" /><line stroke="#333" stroke-width="10" x1="2373.0" x2="2373.0" y1="1733.0" y2="1629.0" /><line stroke="#666" stroke-width="20" x1="2373.0" x2="2245.0" y1="1629.0" y2="1629.0" /><line stroke="#333" stroke-width="10" x1="2245.0" x2="2245.0" y1="1605.0" y2="1629.0" /><line stroke="#333" stroke-width="10" x1="2373.0" x2="2373.0" y1="1629.0" y2="1605.0" /><line stroke="#999" stroke-width="3" x1="2181.0" x2="2181.0" y1="2501.0" y2="2565.0" /><line stroke="#999" stroke-width="3" x1="2181.0" x2="2437.0" y1="2565.0" y2="2565.0" /><line stroke="#999" stroke-width="3" x1="2437.0" x2="2437.0" y1="2565.0" y2="2501.0" /><line stroke="#999" stroke-width="3" x1="2437.0" x2="2181.0" y1="2501.0" y2="2501.0" /><line stroke="#999" stroke-width="3" x1="2181.0" x2="2437.0" y1="2757.0" y2="2757.0" /><line stroke="#999" stroke-width="3" x1="2437.0" x2="2437.0" y1="2757.0" y2="2693.0" /><line stroke="#999" stroke-width="3" x1="2437.0" x2="2181.0" y1="2693.0" y2="2693.0" /><line stroke="#999" stroke-width="3" x1="2181.0" x2="2181.0" y1="2693.0" y2="2757.0" /><line stroke="#999" stroke-width="3" x1="2117.0" x2="2117.0" y1="2437.0" y2="2821.0" /><line stroke="#999" stroke-width="3" x1="2117.0" x2="2501.0" y1="2821.0" y2="2821.0" /><line stroke="#999" stroke-width="3" x1="2501.0" x2="2501.0" y1="2821.0" y2="2437.0" /><line stroke="#999" stroke-width="3" x1="2501.0" x2="2117.0" y1="2437.0" y2="2437.0" /><line stroke="#333" stroke-width="10" x1="2245.0" x2="1989.0" y1="2181.0" y2="2309.0" /><line stroke="#333" stroke-width="10" x1="1989.0" x2="1989.0" y1="2309.0" y2="2949.0" /><line stroke="#333" stroke-width="10" x1="1989.0" x2="2245.0" y1="2949.0" y2="3013.0" /><line stroke="#666" stroke-width="20" x1="2245.0" x2="2373.0" y1="3013.0" y2="3013.0" /><line stroke="#333" stroke-width="10" x1="2373.0" x2="2629.0" y1="3013.0" y2="2949.0" /><line stroke="#333" stroke-width="10" x1="2629.0" x2="2629.0" y1="2949.0" y2="2309.0" /><line stroke="#333" stroke-width="10" x1="2629.0" x2="2373.0" y1="2309.0" y2="2181.0" /><line stroke="#666" stroke-width="20" x1="2373.0" x2="2245.0" y1="2181.0" y2="2181.0" /><line stroke="#333" stroke-width="10" x1="2245.0" x2="2245.0" y1="2117.0" y2="2181.0" /><line stroke="#333" stroke-width="10" x1="2373.0" x2="2373.0" y1="2181.0" y2="2117.0" /><line stroke="#999" stroke-width="3" x1="2181.0" x2="2181.0" y1="2597.0" y2="2661.0" /><line stroke="#999" stroke-width="3" x1="2181.0" x2="2245.0" y1="2661.0" y2="2661.0" /><line stroke="#999" stroke-width="3" x1="2245.0" x2="2245.0" y1="2661.0" y2="2597.0" /><line stroke="#999" stroke-width="3" x1="2245.0" x2="2181.0" y1="2597.0" y2="2597.0" /><line stroke="#999" stroke-width="3" x1="2373.0" x2="2373.0" y1="2597.0" y2="2661.0" /><line stroke="#999" stroke-width="3" x1="2373.0" x2="2437.0" y1="2661.0" y2="2661.0" /><line stroke="#999" stroke-width="3" x1="2437.0" x2="2437.0" y1="2661.0" y2="2597.0" /><line stroke="#999" stroke-width="3" x1="2437.0" x2="2373.0" y1="2597.0" y2="2597.0" /><line stroke="#333" stroke-width="10" x1="2245.0" x2="2245.0" y1="3141.0" y2="3205.0" /><line stroke="#999" stroke-width="3" x1="2245.0" x2="2373.0" y1="3205.0" y2="3205.0" /><line stroke="#333" stroke-width="10" x1="2373.0" x2="2373.0" y1="3205.0" y2="3141.0" /><line stroke="#999" stroke-width="3" x1="2373.0" x2="2245.0" y1="3141.0" y2="3141.0" /><line stroke="#333" stroke-width="10" x1="2245.0" x2="2245.0" y1="3205.0" y2="3269.0" /><line stroke="#999" stroke-width="3" x1="2245.0" x2="2373.0" y1="3269.0" y2="3269.0" /><line stroke="#333" stroke-width="10" x1="2373.0" x2="2373.0" y1="3269.0" y2="3205.0" /><line stroke="#333" stroke-width="10" x1="2245.0" x2="2245.0" y1="3269.0" y2="3333.0" /><line stroke="#999" stroke-width="3" x1="2245.0" x2="2373.0" y1="3333.0" y2="3333.0" /><line stroke="#333" stroke-width="10" x1="2373.0" x2="2373.0" y1="3333.0" y2="3269.0" /><line stroke="#333" stroke-width="10" x1="2245.0" x2="2245.0" y1="3077.0" y2="3141.0" /><line stroke="#333" stroke-width="10" x1="2373.0" x2="2373.0" y1="3141.0" y2="3077.0" /><line stroke="#666" stroke-width="20" x1="2373.0" x2="2245.0" y1="3077.0" y2="3077.0" /><line stroke="#333" stroke-width="10" x1="2245.0" x2="2245.0" y1="3013.0" y2="3077.0" /><line stroke="#333" stroke-width="10" x1="2373.0" x2="2373.0" y1="3077.0" y2="3013.0" /><line stroke="#333" stroke-width="10" x1="2245.0" x2="2053.0" y1="3333.0" y2="3333.0" /><line stroke="#333" stroke-width="10" x1="2053.0" x2="2053.0" y1="3333.0" y2="3589.0" /><line stroke="#333" stroke-width="10" x1="2053.0" x2="2565.0" y1="3845.0" y2="3845.0" /><line stroke="#333" stroke-width="10" x1="2565.0" x2="2565.0" y1="3845.0" y2="3333.0" /><line stroke="#333" stroke-width="10" x1="2565.0" x2="2373.0" y1="3333.0" y2="3333.0" /><line stroke="#999" stroke-width="3" x1="2117.0" x2="2117.0" y1="3397.0" y2="3461.0" /><line stroke="#999" stroke-width="3" x1="2117.0" x2="2181.0" y1="3461.0" y2="3461.0" /><line stroke="#999" stroke-width="3" x1="2181.0" x2="2181.0" y1="3461.0" y2="3397.0" /><line stroke="#999" stroke-width="3" x1="2181.0" x2="2117.0" y1="3397.0" y2="3397.0" /><line stroke="#999" stroke-width="3" x1="2117.0" x2="2117.0" y1="3717.0" y2="3781.0" /><line stroke="#999" stroke-width="3" x1="2117.0" x2="2181.0" y1="3781.0" y2="3781.0" /><line stroke="#999" stroke-width="3" x1="2181.0" x2="2181.0" y1="3781.0" y2="3717.0" /><line stroke="#999" stroke-width="3" x1="2181.0" x2="2117.0" y1="3717.0" y2="3717.0" /><line stroke="#999" stroke-width="3" x1="2437.0" x2="2437.0" y1="3717.0" y2="3781.0" /><line stroke="#999" stroke-width="3" x1="2437.0" x2="2501.0" y1="3781.0" y2="3781.0" /><line stroke="#999" stroke-width="3" x1="2501.0" x2="2501.0" y1="3781.0" y2="3717.0" /><line stroke="#999" stroke-width="3" x1="2501.0" x2="2437.0" y1="3717.0" y2="3717.0" /><line stroke="#999" stroke-width="3" x1="2437.0" x2="2501.0" y1="3461.0" y2="3461.0" /><line stroke="#999" stroke-width="3" x1="2501.0" x2="2501.0" y1="3461.0" y2="3397.0" /><line stroke="#999" stroke-width="3" x1="2501.0" x2="2437.0" y1="3397.0" y2="3397.0" /><line stroke="#999" stroke-width="3" x1="2437.0" x2="2437.0" y1="3397.0" y2="3461.0" /><line stroke="#666" stroke-width="20" x1="2053.0" x2="2053.0" y1="3589.0" y2="3653.0" /><line stroke="#333" stroke-width="10" x1="2053.0" x2="2053.0" y1="3653.0" y2="3845.0" /><line stroke="#333" stroke-width="10" x1="1797.0" x2="1797.0" y1="3589.0" y2="4037.0" /><line stroke="#333" stroke-width="10" x1="1797.0" x2="2437.0" y1="4037.0" y2="4037.0" /><line stroke="#333" stroke-width="10" x1="2565.0" x2="2565.0" y1="4037.0" y2="3910.0" /><line stroke="#333" stroke-width="10" x1="2565.0" x2="2053.0" y1="3910.0" y2="3910.0" /><line stroke="#333" stroke-width="10" x1="2053.0" x2="2053.0" y1="3910.0" y2="3973.0" /><line stroke="#333" stroke-width="10" x1="2053.0" x2="1861.0" y1="3973.0" y2="3973.0" /><line stroke="#333" stroke-width="10" x1="1861.0" x2="1861.0" y1="3973.0" y2="3653.0" /><line stroke="#333" stroke-width="10" x1="1861.0" x2="2029.0" y1="3653.0" y2="3653.0" /><line stroke="#666" stroke-width="20" x1="2029.0" x2="2029.0" y1="3653.0" y2="3589.0" /><line stroke="#333" stroke-width="10" x1="2029.0" x2="1797.0" y1="3589.0" y2="3589.0" /><line stroke="#333" stroke-width="10" x1="2053.0" x2="2029.0" y1="3589.0" y2="3589.0" /><line stroke="#333" stroke-width="10" x1="2029.0" x2="2053.0" y1="3653.0" y2="3653.0" /><line stroke="#999" stroke-width="3" x1="2245.0" x2="2245.0" y1="3525.0" y2="3653.0" /><line stroke="#999" stroke-width="3" x1="2245.0" x2="2373.0" y1="3653.0" y2="3653.0" /><line stroke="#999" stroke-width="3" x1="2373.0" x2="2373.0" y1="3653.0" y2="3525.0" /><line stroke="#999" stroke-width="3" x1="2373.0" x2="2245.0" y1="3525.0" y2="3525.0" /><line stroke="#00d" stroke-width="20" x1="2437.0" x2="2501.0" y1="4037.0" y2="4037.0" /><line stroke="#333" stroke-width="10" x1="2501.0" x2="2565.0" y1="4037.0" y2="4037.0" /><line stroke="#333" stroke-width="10" x1="2437.0" x2="2437.0" y1="4037.0" y2="4101.0" /><line stroke="#333" stroke-width="10" x1="2437.0" x2="2501.0" y1="4101.0" y2="4101.0" /><line stroke="#333" stroke-width="10" x1="2501.0" x2="2501.0" y1="4101.0" y2="4037.0" /><line stroke="#d00" stroke-width="20" x1="2629.0" x2="2629.0" y1="1349.0" y2="1221.0" /><line stroke="#333" stroke-width="10" x1="2629.0" x2="2629.0" y1="1221.0" y2="1213.0" /><line stroke="#333" stroke-width="10" x1="2629.0" x2="2629.0" y1="1357.0" y2="1349.0" /><line stroke="#333" stroke-width="10" x1="2629.0" x2="2629.0" y1="1213.0" y2="1093.0" /><line stroke="#333" stroke-width="10" x1="2637.0" x2="2637.0" y1="1349.0" y2="1669.0" /><line stroke="#333" stroke-width="10" x1="2637.0" x2="3525.0" y1="1669.0" y2="1669.0" /><line stroke="#333" stroke-width="10" x1="3525.0" x2="3525.0" y1="1669.0" y2="1349.0" /><line stroke="#333" stroke-width="10" x1="3525.0" x2="2637.0" y1="965.0" y2="965.0" /><line stroke="#333" stroke-width="10" x1="2637.0" x2="2637.0" y1="965.0" y2="1221.0" /><line stroke="#d00" stroke-width="20" x1="2637.0" x2="2637.0" y1="1221.0" y2="1349.0" /><line stroke="#333" stroke-width="10" x1="2629.0" x2="2637.0" y1="1349.0" y2="1349.0" /><line stroke="#333" stroke-width="10" x1="2637.0" x2="2629.0" y1="1221.0" y2="1221.0" /><line stroke="#999" stroke-width="3" x1="2757.0" x2="2757.0" y1="1093.0" y2="1221.0" /><line stroke="#999" stroke-width="3" x1="2757.0" x2="3013.0" y1="1221.0" y2="1221.0" /><line stroke="#999" stroke-width="3" x1="3013.0" x2="3013.0" y1="1221.0" y2="1093.0" /><line stroke="#999" stroke-width="3" x1="3013.0" x2="2757.0" y1="1093.0" y2="1093.0" /><line stroke="#999" stroke-width="3" x1="2757.0" x2="2757.0" y1="1413.0" y2="1541.0" /><line stroke="#999" stroke-width="3" x1="2757.0" x2="3013.0" y1="1541.0" y2="1541.0" /><line stroke="#999" stroke-width="3" x1="3013.0" x2="3013.0" y1="1541.0" y2="1413.0" /><line stroke="#999" stroke-width="3" x1="3013.0" x2="2757.0" y1="1413.0" y2="1413.0" /><line stroke="#999" stroke-width="3" x1="3141.0" x2="3141.0" y1="1413.0" y2="1541.0" /><line stroke="#999" stroke-width="3" x1="3141.0" x2="3397.0" y1="1541.0" y2="1541.0" /><line stroke="#999" stroke-width="3" x1="3397.0" x2="3397.0" y1="1541.0" y2="1413.0" /><line stroke="#999" stroke-width="3" x1="3397.0" x2="3141.0" y1="1413.0" y2="1413.0" /><line stroke="#999" stroke-width="3" x1="3141.0" x2="3141.0" y1="1093.0" y2="1221.0" /><line stroke="#999" stroke-width="3" x1="3141.0" x2="3397.0" y1="1221.0" y2="1221.0" /><line stroke="#999" stroke-width="3" x1="3397.0" x2="3397.0" y1="1221.0" y2="1093.0" /><line stroke="#999" stroke-width="3" x1="3397.0" x2="3141.0" y1="1093.0" y2="1093.0" /><line stroke="#00d" stroke-width="20" x1="3525.0" x2="3525.0" y1="1349.0" y2="1285.0" /><line stroke="#333" stroke-width="10" x1="3525.0" x2="3525.0" y1="1285.0" y2="965.0" /><line stroke="#333" stroke-width="10" x1="3525.0" x2="3589.0" y1="1349.0" y2="1349.0" /><line stroke="#333" stroke-width="10" x1="3589.0" x2="3589.0" y1="1349.0" y2="1285.0" /><line stroke="#333" stroke-width="10" x1="3589.0" x2="3525.0" y1="1285.0" y2="1285.0" /><line stroke="#333" stroke-width="10" x1="2381.0" x2="2373.0" y1="965.0" y2="965.0" /><line stroke="#d00" stroke-width="20" x1="2373.0" x2="2245.0" y1="965.0" y2="965.0" /><line stroke="#333" stroke-width="10" x1="2245.0" x2="2237.0" y1="965.0" y2="965.0" /><line stroke="#333" stroke-width="10" x1="2237.0" x2="2117.0" y1="965.0" y2="965.0" /><line stroke="#d00" stroke-width="20" x1="2245.0" x2="2373.0" y1="901.0" y2="901.0" /><line stroke="#333" stroke-width="10" x1="2373.0" x2="2437.0" y1="901.0" y2="837.0" /><line stroke="#333" stroke-width="10" x1="2437.0" x2="2341.0" y1="837.0" y2="773.0" /><line stroke="#0d0" stroke-width="20" x1="2341.0" x2="2277.0" y1="773.0" y2="773.0" /><line stroke="#333" stroke-width="10" x1="2277.0" x2="2181.0" y1="773.0" y2="837.0" /><line stroke="#333" stroke-width="10" x1="2181.0" x2="2245.0" y1="837.0" y2="901.0" /><line stroke="#333" stroke-width="10" x1="2245.0" x2="2245.0" y1="901.0" y2="965.0" /><line stroke="#333" stroke-width="10" x1="2373.0" x2="2373.0" y1="965.0" y2="901.0" /><ellipse cx="2413.0" cy="1181.0" fill="#009" rx="12" ry="24" stroke="#009" stroke-width="5" /><ellipse cx="2213.0" cy="1373.0" fill="#009" rx="12" ry="24" stroke="#009" stroke-width="5" /><ellipse cx="2413.0" cy="1381.0" fill="#009" rx="12" ry="24" stroke="#009" stroke-width="5" /><ellipse cx="2213.0" cy="1189.0" fill="#009" rx="12" ry="24" stroke="#009" stroke-width="5" /><circle cx="2310.0" cy="1284.0" fill="#900" r="16" stroke="#900" stroke-width="5" /><rect fill="#090" height="24" stroke="#090" stroke-width="5" transform="rotate(270,1572.0,1574.0)" width="24" x="1560.0" y="1562.0" /><rect fill="#900" height="48" stroke="#900" stroke-width="5" transform="rotate(90,1703.0,1200.0)" width="32" x="1687.0" y="1176.0" /><rect fill="#900" height="48" stroke="#900" stroke-width="5" transform="rotate(90,1763.0,1200.0)" width="32" x="1747.0" y="1176.0" /><rect fill="#900" height="48" stroke="#900" stroke-width="5" transform="rotate(0,1765.0,1451.0)" width="32" x="1749.0" y="1427.0" /><rect fill="#900" height="48" stroke="#900" stroke-width="5" transform="rotate(0,1922.0,1282.0)" width="32" x="1906.0" y="1258.0" /><circle cx="1628.0" cy="1055.0" fill="#009" r="16" stroke="#009" stroke-width="5" /><circle cx="1827.0" cy="1055.0" fill="#090" r="16" stroke="#090" stroke-width="5" /><rect fill="#900" height="48" stroke="#900" stroke-width="5" transform="rotate(90,194.0,261.0)" width="32" x="178.0" y="237.0" /><rect fill="#900" height="48" stroke="#900" stroke-width="5" transform="rotate(90,769.0,261.0)" width="32" x="753.0" y="237.0" /><ellipse cx="480.0" cy="68.0" fill="#090" rx="12" ry="24" stroke="#090" stroke-width="5" /><rect fill="#900" height="48" stroke="#900" stroke-width="5" transform="rotate(270,474.0,258.0)" width="32" x="458.0" y="234.0" /><rect fill="#090" height="24" stroke="#090" stroke-width="5" transform="rotate(0,265.0,335.0)" width="24" x="253.0" y="323.0" /><rect fill="#090" height="24" stroke="#090" stroke-width="5" transform="rotate(0,130.0,335.0)" width="24" x="118.0" y="323.0" /><rect fill="#090" height="24" stroke="#090" stroke-width="5" transform="rotate(0,130.0,193.0)" width="24" x="118.0" y="181.0" /><rect fill="#090" height="24" stroke="#090" stroke-width="5" transform="rotate(0,265.0,193.0)" width="24" x="253.0" y="181.0" /><rect fill="#090" height="24" stroke="#090" stroke-width="5" transform="rotate(0,702.0,193.0)" width="24" x="690.0" y="181.0" /><rect fill="#090" height="24" stroke="#090" stroke-width="5" transform="rotate(0,702.0,332.0)" width="24" x="690.0" y="320.0" /><rect fill="#090" height="24" stroke="#090" stroke-width="5" transform="rotate(0,840.0,332.0)" width="24" x="828.0" y="320.0" /><rect fill="#090" height="24" stroke="#090" stroke-width="5" transform="rotate(0,846.0,197.0)" width="24" x="834.0" y="185.0" /><circle cx="1116.0" cy="1768.0" fill="#090" r="16" stroke="#090" stroke-width="5" /><circle cx="1141.0" cy="805.0" fill="#090" r="16" stroke="#090" stroke-width="5" /><rect fill="#900" height="48" stroke="#900" stroke-width="5" transform="rotate(0,1004.0,1287.0)" width="32" x="988.0" y="1263.0" /><rect fill="#900" height="48" stroke="#900" stroke-width="5" transform="rotate(0,1004.0,1694.0)" width="32" x="988.0" y="1670.0" /><rect fill="#900" height="48" stroke="#900" stroke-width="5" transform="rotate(0,1004.0,1508.0)" width="32" x="988.0" y="1484.0" /><rect fill="#900" height="48" stroke="#900" stroke-width="5" transform="rotate(0,997.0,875.0)" width="32" x="981.0" y="851.0" /><rect fill="#900" height="48" stroke="#900" stroke-width="5" transform="rotate(0,1004.0,1065.0)" width="32" x="988.0" y="1041.0" /><rect fill="#900" height="48" stroke="#900" stroke-width="5" transform="rotate(0,872.0,872.0)" width="32" x="856.0" y="848.0" /><rect fill="#900" height="48" stroke="#900" stroke-width="5" transform="rotate(0,875.0,1065.0)" width="32" x="859.0" y="1041.0" /><rect fill="#900" height="48" stroke="#900" stroke-width="5" transform="rotate(0,863.0,1287.0)" width="32" x="847.0" y="1263.0" /><rect fill="#900" height="48" stroke="#900" stroke-width="5" transform="rotate(0,869.0,1502.0)" width="32" x="853.0" y="1478.0" /><rect fill="#900" height="48" stroke="#900" stroke-width="5" transform="rotate(0,872.0,1688.0)" width="32" x="856.0" y="1664.0" /><rect fill="#900" height="48" stroke="#900" stroke-width="5" transform="rotate(0,339.0,1287.0)" width="32" x="323.0" y="1263.0" /><circle cx="622.0" cy="1505.0" fill="#009" r="16" stroke="#009" stroke-width="5" /><circle cx="615.0" cy="1062.0" fill="#009" r="16" stroke="#009" stroke-width="5" /><rect fill="#090" height="24" stroke="#090" stroke-width="5" transform="rotate(0,850.0,1788.0)" width="24" x="838.0" y="1776.0" /><rect fill="#090" height="24" stroke="#090" stroke-width="5" transform="rotate(0,850.0,785.0)" width="24" x="838.0" y="773.0" /><rect fill="#009" height="24" stroke="#009" stroke-width="5" transform="rotate(0,2305.0,1293.0)" width="24" x="2293.0" y="1281.0" /><rect fill="#900" height="48" stroke="#900" stroke-width="5" transform="rotate(90,483.0,936.0)" width="32" x="467.0" y="912.0" /><rect fill="#900" height="48" stroke="#900" stroke-width="5" transform="rotate(270,483.0,1640.0)" width="32" x="467.0" y="1616.0" /><rect fill="#900" height="48" stroke="#900" stroke-width="5" transform="rotate(45,53.0,949.0)" width="32" x="37.0" y="925.0" /><rect fill="#900" height="48" stroke="#900" stroke-width="5" transform="rotate(315,63.0,1604.0)" width="32" x="47.0" y="1580.0" /><circle cx="466.0" cy="2482.0" fill="#090" r="16" stroke="#090" stroke-width="5" /><circle cx="496.0" cy="2469.0" fill="#090" r="16" stroke="#090" stroke-width="5" /><circle cx="473.0" cy="2465.0" fill="#900" r="16" stroke="#900" stroke-width="5" /><circle cx="483.0" cy="2177.0" fill="#009" r="16" stroke="#009" stroke-width="5" /><circle cx="483.0" cy="1922.0" fill="#009" r="16" stroke="#009" stroke-width="5" /><rect fill="#900" height="48" stroke="#900" stroke-width="5" transform="rotate(0,2216.0,1957.0)" width="32" x="2200.0" y="1933.0" /><rect fill="#900" height="48" stroke="#900" stroke-width="5" transform="rotate(0,2214.0,1765.0)" width="32" x="2198.0" y="1741.0" /><rect fill="#900" height="48" stroke="#900" stroke-width="5" transform="rotate(180,2402.0,1763.0)" width="32" x="2386.0" y="1739.0" /><rect fill="#900" height="48" stroke="#900" stroke-width="5" transform="rotate(180,2398.0,1956.0)" width="32" x="2382.0" y="1932.0" /><circle cx="2193.0" cy="1767.0" fill="#009" r="16" stroke="#009" stroke-width="5" /><circle cx="2197.0" cy="1957.0" fill="#009" r="16" stroke="#009" stroke-width="5" /><circle cx="2417.0" cy="1956.0" fill="#009" r="16" stroke="#009" stroke-width="5" /><circle cx="2417.0" cy="1763.0" fill="#009" r="16" stroke="#009" stroke-width="5" /><rect fill="#900" height="48" stroke="#900" stroke-width="5" transform="rotate(270,2309.0,2053.0)" width="32" x="2293.0" y="2029.0" /><circle cx="2277.0" cy="1668.0" fill="#090" r="16" stroke="#090" stroke-width="5" /><circle cx="2307.0" cy="1670.0" fill="#090" r="16" stroke="#090" stroke-width="5" /><circle cx="2337.0" cy="1670.0" fill="#090" r="16" stroke="#090" stroke-width="5" /><rect fill="#900" height="48" stroke="#900" stroke-width="5" transform="rotate(180,2207.0,2628.0)" width="32" x="2191.0" y="2604.0" /><rect fill="#900" height="48" stroke="#900" stroke-width="5" transform="rotate(0,2401.0,2633.0)" width="32" x="2385.0" y="2609.0" /><rect fill="#900" height="48" stroke="#900" stroke-width="5" transform="rotate(90,2309.0,2850.0)" width="32" x="2293.0" y="2826.0" /><rect fill="#900" height="48" stroke="#900" stroke-width="5" transform="rotate(90,2053.0,2629.0)" width="32" x="2037.0" y="2605.0" /><rect fill="#900" height="48" stroke="#900" stroke-width="5" transform="rotate(90,2566.0,2626.0)" width="32" x="2550.0" y="2602.0" /><rect fill="#900" height="48" stroke="#900" stroke-width="5" transform="rotate(90,2312.0,2372.0)" width="32" x="2296.0" y="2348.0" /><ellipse cx="2219.0" cy="2629.0" fill="#090" rx="12" ry="24" stroke="#090" stroke-width="5" /><rect fill="#009" height="24" stroke="#009" stroke-width="5" transform="rotate(180,2212.0,2622.0)" width="24" x="2200.0" y="2610.0" /><rect fill="#009" height="24" stroke="#009" stroke-width="5" transform="rotate(0,2404.0,2626.0)" width="24" x="2392.0" y="2614.0" /><ellipse cx="2409.0" cy="2630.0" fill="#090" rx="12" ry="24" stroke="#090" stroke-width="5" /><circle cx="2312.0" cy="3042.0" fill="#900" r="16" stroke="#900" stroke-width="5" /><circle cx="2312.0" cy="3107.0" fill="#090" r="16" stroke="#090" stroke-width="5" /><circle cx="2306.0" cy="3299.0" fill="#090" r="16" stroke="#090" stroke-width="5" /><circle cx="2308.0" cy="3232.0" fill="#090" r="16" stroke="#090" stroke-width="5" /><circle cx="2310.0" cy="3172.0" fill="#090" r="16" stroke="#090" stroke-width="5" /><rect fill="#900" height="48" stroke="#900" stroke-width="5" transform="rotate(0,2141.0,3493.0)" width="32" x="2125.0" y="3469.0" /><rect fill="#900" height="48" stroke="#900" stroke-width="5" transform="rotate(180,2485.0,3485.0)" width="32" x="2469.0" y="3461.0" /><rect fill="#900" height="48" stroke="#900" stroke-width="5" transform="rotate(0,2133.0,3813.0)" width="32" x="2117.0" y="3789.0" /><rect fill="#900" height="48" stroke="#900" stroke-width="5" transform="rotate(180,2485.0,3813.0)" width="32" x="2469.0" y="3789.0" /><rect fill="#090" height="24" stroke="#090" stroke-width="5" transform="rotate(0,2061.0,3621.0)" width="24" x="2049.0" y="3609.0" /><rect fill="#090" height="24" stroke="#090" stroke-width="5" transform="rotate(0,1828.0,3622.0)" width="24" x="1816.0" y="3610.0" /><rect fill="#090" height="24" stroke="#090" stroke-width="5" transform="rotate(270,1826.0,4008.0)" width="24" x="1814.0" y="3996.0" /><circle cx="2273.0" cy="3618.0" fill="#090" r="16" stroke="#090" stroke-width="5" /><circle cx="2342.0" cy="3618.0" fill="#090" r="16" stroke="#090" stroke-width="5" /><circle cx="2277.0" cy="3549.0" fill="#090" r="16" stroke="#090" stroke-width="5" /><rect fill="#090" height="24" stroke="#090" stroke-width="5" transform="rotate(0,2344.0,3549.0)" width="24" x="2332.0" y="3537.0" /><rect fill="#900" height="48" stroke="#900" stroke-width="5" transform="rotate(180,2501.0,3974.0)" width="32" x="2485.0" y="3950.0" /><rect fill="#900" height="48" stroke="#900" stroke-width="5" transform="rotate(180,2307.0,3973.0)" width="32" x="2291.0" y="3949.0" /><rect fill="#090" height="24" stroke="#090" stroke-width="5" transform="rotate(180,2061.0,3917.0)" width="24" x="2049.0" y="3905.0" /><rect fill="#090" height="24" stroke="#090" stroke-width="5" transform="rotate(180,2557.0,3918.0)" width="24" x="2545.0" y="3906.0" /><rect fill="#090" height="24" stroke="#090" stroke-width="5" transform="rotate(180,2557.0,4029.0)" width="24" x="2545.0" y="4017.0" /><rect fill="#090" height="24" stroke="#090" stroke-width="5" transform="rotate(0,2038.0,4006.0)" width="24" x="2026.0" y="3994.0" /><rect fill="#900" height="48" stroke="#900" stroke-width="5" transform="rotate(0,3036.0,1478.0)" width="32" x="3020.0" y="1454.0" /><rect fill="#900" height="48" stroke="#900" stroke-width="5" transform="rotate(0,3423.0,1477.0)" width="32" x="3407.0" y="1453.0" /><rect fill="#900" height="48" stroke="#900" stroke-width="5" transform="rotate(0,3423.0,1160.0)" width="32" x="3407.0" y="1136.0" /><rect fill="#900" height="48" stroke="#900" stroke-width="5" transform="rotate(0,3034.0,1156.0)" width="32" x="3018.0" y="1132.0" /><circle cx="2692.0" cy="1286.0" fill="#009" r="16" stroke="#009" stroke-width="5" /><circle cx="2727.0" cy="1287.0" fill="#009" r="16" stroke="#009" stroke-width="5" /><circle cx="2740.0" cy="1221.0" fill="#090" r="16" stroke="#090" stroke-width="5" /><circle cx="2741.0" cy="1155.0" fill="#090" r="16" stroke="#090" stroke-width="5" /><circle cx="2740.0" cy="1092.0" fill="#090" r="16" stroke="#090" stroke-width="5" /><circle cx="2738.0" cy="1541.0" fill="#090" r="16" stroke="#090" stroke-width="5" /><circle cx="2738.0" cy="1478.0" fill="#090" r="16" stroke="#090" stroke-width="5" /><circle cx="2737.0" cy="1414.0" fill="#090" r="16" stroke="#090" stroke-width="5" /><circle cx="3117.0" cy="1539.0" fill="#090" r="16" stroke="#090" stroke-width="5" /><circle cx="3114.0" cy="1478.0" fill="#090" r="16" stroke="#090" stroke-width="5" /><circle cx="3114.0" cy="1414.0" fill="#090" r="16" stroke="#090" stroke-width="5" /><rect fill="#090" height="24" stroke="#090" stroke-width="5" transform="rotate(0,3039.0,1308.0)" width="24" x="3027.0" y="1296.0" /><rect fill="#090" height="24" stroke="#090" stroke-width="5" transform="rotate(0,2303.0,1250.0)" width="24" x="2291.0" y="1238.0" /><rect fill="#090" height="24" stroke="#090" stroke-width="5" transform="rotate(0,897.0,1348.0)" width="24" x="885.0" y="1336.0" /><rect fill="#090" height="24" stroke="#090" stroke-width="5" transform="rotate(0,471.0,399.0)" width="24" x="459.0" y="387.0" /><rect fill="#090" height="24" stroke="#090" stroke-width="5" transform="rotate(0,484.0,1589.0)" width="24" x="472.0" y="1577.0" /><rect fill="#090" height="24" stroke="#090" stroke-width="5" transform="rotate(0,2232.0,2625.0)" width="24" x="2220.0" y="2613.0" /><circle cx="2054.0" cy="2707.0" fill="#900" r="16" stroke="#900" stroke-width="5" /><circle cx="954.0" cy="1345.0" fill="#900" r="16" stroke="#900" stroke-width="5" /><circle cx="2906.0" cy="1314.0" fill="#900" r="16" stroke="#900" stroke-width="5" /><circle cx="493.0" cy="328.0" fill="#900" r="16" stroke="#900" stroke-width="5" /><circle cx="480.0" cy="1516.0" fill="#900" r="16" stroke="#900" stroke-width="5" /></svg>