<?xml version="1.0" encoding="utf-8" ?>
<svg baseProfile="tiny" height="444" version="1.2" viewBox="0 0 3562 1546" width="1024" xmlns="http://www.w3.org/2000/svg" xmlns:ev="http://www.w3.org/2001/xml-events" xmlns:xlink="http://www.w3.org/1999/xlink"><defs /><line stroke="#999" stroke-width="3" x1="1285.0" x2="1093.0" y1="197.0" y2="197.0" /><line stroke="#333" stroke-width="10" x1="1221.0" x2="1221.0" y1="453.0" y2="445.0" /><line stroke="#666" stroke-width="20" x1="837.0" x2="1221.0" y1="453.0" y2="453.0" /><line stroke="#333" stroke-width="10" x1="773.0" x2="837.0" y1="197.0" y2="445.0" /><line stroke="#999" stroke-width="3" x1="965.0" x2="773.0" y1="197.0" y2="197.0" /><line stroke="#999" stroke-width="3" x1="965.0" x2="965.0" y1="5.0" y2="197.0" /><line stroke="#333" stroke-width="10" x1="1093.0" x2="965.0" y1="5.0" y2="5.0" /><line stroke="#999" stroke-width="3" x1="1093.0" x2="1093.0" y1="197.0" y2="5.0" /><line stroke="#333" stroke-width="10" x1="1221.0" x2="1221.0" y1="517.0" y2="453.0" /><line stroke="#666" stroke-width="20" x1="1221.0" x2="837.0" y1="517.0" y2="517.0" /><line stroke="#333" stroke-width="10" x1="837.0" x2="837.0" y1="453.0" y2="517.0" /><line stroke="#333" stroke-width="10" x1="1413.0" x2="1221.0" y1="517.0" y2="517.0" /><line stroke="#999" stroke-width="3" x1="1413.0" x2="1413.0" y1="645.0" y2="517.0" /><line stroke="#333" stroke-width="10" x1="1285.0" x2="1413.0" y1="645.0" y2="645.0" /><line stroke="#333" stroke-width="10" x1="1285.0" x2="1285.0" y1="1029.0" y2="645.0" /><line stroke="#999" stroke-width="3" x1="1157.0" x2="1285.0" y1="1029.0" y2="1029.0" /><line stroke="#333" stroke-width="10" x1="965.0" x2="1157.0" y1="1029.0" y2="1029.0" /><line stroke="#333" stroke-width="10" x1="645.0" x2="965.0" y1="1029.0" y2="1029.0" /><line stroke="#333" stroke-width="10" x1="645.0" x2="645.0" y1="965.0" y2="1029.0" /><line stroke="#999" stroke-width="3" x1="645.0" x2="645.0" y1="837.0" y2="965.0" /><line stroke="#333" stroke-width="10" x1="645.0" x2="645.0" y1="645.0" y2="837.0" /><line stroke="#333" stroke-width="10" x1="837.0" x2="829.0" y1="517.0" y2="525.0" /><line stroke="#333" stroke-width="10" x1="581.0" x2="645.0" y1="965.0" y2="965.0" /><line stroke="#999" stroke-width="3" x1="581.0" x2="581.0" y1="837.0" y2="965.0" /><line stroke="#333" stroke-width="10" x1="645.0" x2="581.0" y1="837.0" y2="837.0" /><line stroke="#333" stroke-width="10" x1="517.0" x2="581.0" y1="965.0" y2="965.0" /><line stroke="#999" stroke-width="3" x1="517.0" x2="517.0" y1="837.0" y2="965.0" /><line stroke="#333" stroke-width="10" x1="581.0" x2="517.0" y1="837.0" y2="837.0" /><line stroke="#333" stroke-width="10" x1="453.0" x2="517.0" y1="965.0" y2="965.0" /><line stroke="#999" stroke-width="3" x1="453.0" x2="453.0" y1="837.0" y2="965.0" /><line stroke="#333" stroke-width="10" x1="517.0" x2="453.0" y1="837.0" y2="837.0" /><line stroke="#333" stroke-width="10" x1="389.0" x2="453.0" y1="965.0" y2="965.0" /><line stroke="#999" stroke-width="3" x1="389.0" x2="389.0" y1="837.0" y2="965.0" /><line stroke="#333" stroke-width="10" x1="453.0" x2="389.0" y1="837.0" y2="837.0" /><line stroke="#333" stroke-width="10" x1="325.0" x2="389.0" y1="965.0" y2="965.0" /><line stroke="#999" stroke-width="3" x1="325.0" x2="325.0" y1="837.0" y2="965.0" /><line stroke="#333" stroke-width="10" x1="389.0" x2="325.0" y1="837.0" y2="837.0" /><line stroke="#333" stroke-width="10" x1="261.0" x2="325.0" y1="965.0" y2="965.0" /><line stroke="#999" stroke-width="3" x1="261.0" x2="261.0" y1="837.0" y2="965.0" /><line stroke="#333" stroke-width="10" x1="325.0" x2="261.0" y1="837.0" y2="837.0" /><line stroke="#333" stroke-width="10" x1="197.0" x2="261.0" y1="965.0" y2="965.0" /><line stroke="#999" stroke-width="3" x1="261.0" x2="197.0" y1="837.0" y2="965.0" /><line stroke="#333" stroke-width="10" x1="133.0" x2="197.0" y1="901.0" y2="965.0" /><line stroke="#999" stroke-width="3" x1="261.0" x2="133.0" y1="837.0" y2="901.0" /><line stroke="#333" stroke-width="10" x1="133.0" x2="133.0" y1="773.0" y2="901.0" /><line stroke="#999" stroke-width="3" x1="261.0" x2="133.0" y1="773.0" y2="773.0" /><line stroke="#333" stroke-width="10" x1="261.0" x2="261.0" y1="837.0" y2="773.0" /><line stroke="#333" stroke-width="10" x1="133.0" x2="133.0" y1="709.0" y2="773.0" /><line stroke="#999" stroke-width="3" x1="261.0" x2="133.0" y1="709.0" y2="709.0" /><line stroke="#333" stroke-width="10" x1="261.0" x2="261.0" y1="773.0" y2="709.0" /><line stroke="#333" stroke-width="10" x1="133.0" x2="133.0" y1="645.0" y2="709.0" /><line stroke="#999" stroke-width="3" x1="261.0" x2="133.0" y1="645.0" y2="645.0" /><line stroke="#333" stroke-width="10" x1="261.0" x2="261.0" y1="709.0" y2="645.0" /><line stroke="#333" stroke-width="10" x1="5.0" x2="133.0" y1="645.0" y2="645.0" /><line stroke="#333" stroke-width="10" x1="5.0" x2="5.0" y1="453.0" y2="645.0" /><line stroke="#333" stroke-width="10" x1="389.0" x2="5.0" y1="453.0" y2="453.0" /><line stroke="#333" stroke-width="10" x1="293.0" x2="389.0" y1="261.0" y2="453.0" /><line stroke="#d00" stroke-width="20" x1="549.0" x2="293.0" y1="229.0" y2="229.0" /><line stroke="#333" stroke-width="10" x1="549.0" x2="549.0" y1="645.0" y2="261.0" /><line stroke="#333" stroke-width="10" x1="261.0" x2="549.0" y1="645.0" y2="645.0" /><line stroke="#333" stroke-width="10" x1="293.0" x2="293.0" y1="229.0" y2="261.0" /><line stroke="#333" stroke-width="10" x1="549.0" x2="549.0" y1="261.0" y2="229.0" /><line stroke="#333" stroke-width="10" x1="293.0" x2="293.0" y1="197.0" y2="229.0" /><line stroke="#d00" stroke-width="20" x1="293.0" x2="549.0" y1="197.0" y2="197.0" /><line stroke="#333" stroke-width="10" x1="549.0" x2="549.0" y1="229.0" y2="197.0" /><line stroke="#333" stroke-width="10" x1="709.0" x2="773.0" y1="197.0" y2="197.0" /><line stroke="#333" stroke-width="10" x1="549.0" x2="709.0" y1="165.0" y2="197.0" /><line stroke="#333" stroke-width="10" x1="549.0" x2="549.0" y1="197.0" y2="165.0" /><line stroke="#333" stroke-width="10" x1="293.0" x2="293.0" y1="165.0" y2="197.0" /><line stroke="#333" stroke-width="10" x1="293.0" x2="293.0" y1="5.0" y2="165.0" /><line stroke="#333" stroke-width="10" x1="965.0" x2="293.0" y1="5.0" y2="5.0" /><line stroke="#333" stroke-width="10" x1="1285.0" x2="1285.0" y1="1285.0" y2="1029.0" /><line stroke="#333" stroke-width="10" x1="1413.0" x2="1285.0" y1="1285.0" y2="1285.0" /><line stroke="#666" stroke-width="20" x1="1413.0" x2="1413.0" y1="1349.0" y2="1285.0" /><line stroke="#333" stroke-width="10" x1="1221.0" x2="1413.0" y1="1349.0" y2="1349.0" /><line stroke="#333" stroke-width="10" x1="1157.0" x2="1221.0" y1="1285.0" y2="1349.0" /><line stroke="#333" stroke-width="10" x1="1157.0" x2="1157.0" y1="1029.0" y2="1285.0" /><line stroke="#333" stroke-width="10" x1="1429.0" x2="1413.0" y1="1285.0" y2="1285.0" /><line stroke="#666" stroke-width="20" x1="1429.0" x2="1429.0" y1="1285.0" y2="1349.0" /><line stroke="#333" stroke-width="10" x1="1413.0" x2="1429.0" y1="1349.0" y2="1349.0" /><line stroke="#333" stroke-width="10" x1="1429.0" x2="1589.0" y1="1349.0" y2="1349.0" /><line stroke="#333" stroke-width="10" x1="1589.0" x2="1429.0" y1="1285.0" y2="1285.0" /><line stroke="#333" stroke-width="10" x1="1589.0" x2="1589.0" y1="1141.0" y2="1285.0" /><line stroke="#333" stroke-width="10" x1="1813.0" x2="1589.0" y1="1141.0" y2="1141.0" /><line stroke="#333" stroke-width="10" x1="1589.0" x2="1813.0" y1="1493.0" y2="1493.0" /><line stroke="#333" stroke-width="10" x1="1589.0" x2="1589.0" y1="1349.0" y2="1493.0" /><line stroke="#333" stroke-width="10" x1="1813.0" x2="1813.0" y1="1301.0" y2="1141.0" /><line stroke="#999" stroke-width="3" x1="1813.0" x2="1813.0" y1="1349.0" y2="1301.0" /><line stroke="#333" stroke-width="10" x1="1813.0" x2="1813.0" y1="1493.0" y2="1349.0" /><line stroke="#333" stroke-width="10" x1="1893.0" x2="1813.0" y1="1301.0" y2="1301.0" /><line stroke="#999" stroke-width="3" x1="1893.0" x2="1893.0" y1="1349.0" y2="1301.0" /><line stroke="#333" stroke-width="10" x1="1813.0" x2="1893.0" y1="1349.0" y2="1349.0" /><line stroke="#999" stroke-width="3" x1="1589.0" x2="1589.0" y1="1349.0" y2="1285.0" /><line stroke="#999" stroke-width="3" x1="1621.0" x2="1597.0" y1="1349.0" y2="1349.0" /><line stroke="#999" stroke-width="3" x1="1621.0" x2="1621.0" y1="1285.0" y2="1349.0" /><line stroke="#999" stroke-width="3" x1="1589.0" x2="1597.0" y1="1285.0" y2="1285.0" /><line stroke="#333" stroke-width="10" x1="1989.0" x2="1893.0" y1="1285.0" y2="1301.0" /><line stroke="#333" stroke-width="10" x1="1989.0" x2="1989.0" y1="1253.0" y2="1285.0" /><line stroke="#333" stroke-width="10" x1="1989.0" x2="1989.0" y1="837.0" y2="1253.0" /><line stroke="#333" stroke-width="10" x1="2053.0" x2="1989.0" y1="773.0" y2="837.0" /><line stroke="#333" stroke-width="10" x1="2181.0" x2="2053.0" y1="773.0" y2="773.0" /><line stroke="#333" stroke-width="10" x1="2405.0" x2="2277.0" y1="773.0" y2="773.0" /><line stroke="#999" stroke-width="3" x1="2405.0" x2="2405.0" y1="869.0" y2="773.0" /><line stroke="#333" stroke-width="10" x1="2085.0" x2="2405.0" y1="869.0" y2="869.0" /><line stroke="#333" stroke-width="10" x1="2085.0" x2="2085.0" y1="1253.0" y2="869.0" /><line stroke="#333" stroke-width="10" x1="2085.0" x2="2085.0" y1="1317.0" y2="1253.0" /><line stroke="#333" stroke-width="10" x1="1989.0" x2="2085.0" y1="1349.0" y2="1317.0" /><line stroke="#333" stroke-width="10" x1="1893.0" x2="1989.0" y1="1349.0" y2="1349.0" /><line stroke="#333" stroke-width="10" x1="1701.0" x2="1413.0" y1="517.0" y2="517.0" /><line stroke="#333" stroke-width="10" x1="1733.0" x2="1701.0" y1="517.0" y2="517.0" /><line stroke="#d00" stroke-width="20" x1="1861.0" x2="1733.0" y1="517.0" y2="517.0" /><line stroke="#333" stroke-width="10" x1="1893.0" x2="1861.0" y1="517.0" y2="517.0" /><line stroke="#333" stroke-width="10" x1="2277.0" x2="1893.0" y1="517.0" y2="517.0" /><line stroke="#333" stroke-width="10" x1="2277.0" x2="2277.0" y1="709.0" y2="517.0" /><line stroke="#333" stroke-width="10" x1="2181.0" x2="2181.0" y1="645.0" y2="709.0" /><line stroke="#333" stroke-width="10" x1="1413.0" x2="2181.0" y1="645.0" y2="645.0" /><line stroke="#999" stroke-width="3" x1="2277.0" x2="2181.0" y1="773.0" y2="773.0" /><line stroke="#333" stroke-width="10" x1="2181.0" x2="2181.0" y1="709.0" y2="773.0" /><line stroke="#999" stroke-width="3" x1="2277.0" x2="2181.0" y1="709.0" y2="709.0" /><line stroke="#333" stroke-width="10" x1="2277.0" x2="2277.0" y1="773.0" y2="709.0" /><line stroke="#333" stroke-width="10" x1="1733.0" x2="1733.0" y1="485.0" y2="517.0" /><line stroke="#d00" stroke-width="20" x1="1733.0" x2="1861.0" y1="485.0" y2="485.0" /><line stroke="#333" stroke-width="10" x1="1861.0" x2="1861.0" y1="517.0" y2="485.0" /><line stroke="#333" stroke-width="10" x1="1733.0" x2="1093.0" y1="5.0" y2="5.0" /><line stroke="#333" stroke-width="10" x1="1797.0" x2="1733.0" y1="37.0" y2="5.0" /><line stroke="#333" stroke-width="10" x1="1893.0" x2="1797.0" y1="133.0" y2="37.0" /><line stroke="#333" stroke-width="10" x1="1925.0" x2="1893.0" y1="229.0" y2="133.0" /><line stroke="#333" stroke-width="10" x1="1925.0" x2="1925.0" y1="485.0" y2="229.0" /><line stroke="#333" stroke-width="10" x1="1861.0" x2="1925.0" y1="485.0" y2="485.0" /><line stroke="#333" stroke-width="10" x1="1669.0" x2="1733.0" y1="485.0" y2="485.0" /><line stroke="#333" stroke-width="10" x1="1669.0" x2="1669.0" y1="229.0" y2="485.0" /><line stroke="#333" stroke-width="10" x1="1669.0" x2="1669.0" y1="197.0" y2="229.0" /><line stroke="#333" stroke-width="10" x1="1285.0" x2="1669.0" y1="197.0" y2="197.0" /><line stroke="#333" stroke-width="10" x1="2469.0" x2="2405.0" y1="773.0" y2="773.0" /><line stroke="#333" stroke-width="10" x1="2501.0" x2="2469.0" y1="805.0" y2="773.0" /><line stroke="#333" stroke-width="10" x1="2533.0" x2="2501.0" y1="869.0" y2="805.0" /><line stroke="#333" stroke-width="10" x1="2565.0" x2="2533.0" y1="901.0" y2="869.0" /><line stroke="#333" stroke-width="10" x1="2629.0" x2="2565.0" y1="933.0" y2="901.0" /><line stroke="#333" stroke-width="10" x1="2693.0" x2="2629.0" y1="933.0" y2="933.0" /><line stroke="#333" stroke-width="10" x1="2757.0" x2="2693.0" y1="933.0" y2="933.0" /><line stroke="#333" stroke-width="10" x1="2821.0" x2="2757.0" y1="869.0" y2="933.0" /><line stroke="#333" stroke-width="10" x1="2917.0" x2="2821.0" y1="869.0" y2="869.0" /><line stroke="#999" stroke-width="3" x1="2917.0" x2="2917.0" y1="933.0" y2="869.0" /><line stroke="#333" stroke-width="10" x1="2885.0" x2="2917.0" y1="965.0" y2="933.0" /><line stroke="#333" stroke-width="10" x1="2853.0" x2="2885.0" y1="997.0" y2="965.0" /><line stroke="#333" stroke-width="10" x1="2885.0" x2="2853.0" y1="1029.0" y2="997.0" /><line stroke="#333" stroke-width="10" x1="2917.0" x2="2885.0" y1="1061.0" y2="1029.0" /><line stroke="#333" stroke-width="10" x1="2917.0" x2="2917.0" y1="1093.0" y2="1061.0" /><line stroke="#333" stroke-width="10" x1="2917.0" x2="2917.0" y1="1253.0" y2="1093.0" /><line stroke="#999" stroke-width="3" x1="2853.0" x2="2917.0" y1="1253.0" y2="1253.0" /><line stroke="#333" stroke-width="10" x1="2853.0" x2="2853.0" y1="1093.0" y2="1253.0" /><line stroke="#333" stroke-width="10" x1="2821.0" x2="2853.0" y1="1061.0" y2="1093.0" /><line stroke="#333" stroke-width="10" x1="2789.0" x2="2821.0" y1="1029.0" y2="1061.0" /><line stroke="#333" stroke-width="10" x1="2757.0" x2="2789.0" y1="997.0" y2="1029.0" /><line stroke="#333" stroke-width="10" x1="2693.0" x2="2757.0" y1="997.0" y2="997.0" /><line stroke="#333" stroke-width="10" x1="2597.0" x2="2693.0" y1="997.0" y2="997.0" /><line stroke="#333" stroke-width="10" x1="2533.0" x2="2597.0" y1="965.0" y2="997.0" /><line stroke="#333" stroke-width="10" x1="2469.0" x2="2533.0" y1="933.0" y2="965.0" /><line stroke="#333" stroke-width="10" x1="2437.0" x2="2469.0" y1="901.0" y2="933.0" /><line stroke="#333" stroke-width="10" x1="2405.0" x2="2437.0" y1="869.0" y2="901.0" /><line stroke="#333" stroke-width="10" x1="2917.0" x2="2917.0" y1="1317.0" y2="1253.0" /><line stroke="#999" stroke-width="3" x1="2853.0" x2="2917.0" y1="1317.0" y2="1317.0" /><line stroke="#333" stroke-width="10" x1="2853.0" x2="2853.0" y1="1253.0" y2="1317.0" /><line stroke="#333" stroke-width="10" x1="3109.0" x2="2917.0" y1="1317.0" y2="1317.0" /><line stroke="#333" stroke-width="10" x1="3109.0" x2="3109.0" y1="1413.0" y2="1317.0" /><line stroke="#333" stroke-width="10" x1="3109.0" x2="3109.0" y1="1541.0" y2="1413.0" /><line stroke="#333" stroke-width="10" x1="2661.0" x2="3109.0" y1="1541.0" y2="1541.0" /><line stroke="#333" stroke-width="10" x1="2661.0" x2="2661.0" y1="1413.0" y2="1541.0" /><line stroke="#333" stroke-width="10" x1="2661.0" x2="2661.0" y1="1317.0" y2="1413.0" /><line stroke="#333" stroke-width="10" x1="2853.0" x2="2661.0" y1="1317.0" y2="1317.0" /><line stroke="#333" stroke-width="10" x1="2949.0" x2="2917.0" y1="869.0" y2="869.0" /><line stroke="#999" stroke-width="3" x1="2949.0" x2="2949.0" y1="933.0" y2="869.0" /><line stroke="#333" stroke-width="10" x1="2917.0" x2="2949.0" y1="933.0" y2="933.0" /><line stroke="#333" stroke-width="10" x1="2981.0" x2="2949.0" y1="869.0" y2="869.0" /><line stroke="#999" stroke-width="3" x1="2981.0" x2="2981.0" y1="933.0" y2="869.0" /><line stroke="#333" stroke-width="10" x1="2949.0" x2="2981.0" y1="933.0" y2="933.0" /><line stroke="#333" stroke-width="10" x1="3013.0" x2="2981.0" y1="869.0" y2="869.0" /><line stroke="#999" stroke-width="3" x1="3013.0" x2="3013.0" y1="933.0" y2="869.0" /><line stroke="#333" stroke-width="10" x1="2981.0" x2="3013.0" y1="933.0" y2="933.0" /><line stroke="#333" stroke-width="10" x1="3045.0" x2="3013.0" y1="869.0" y2="869.0" /><line stroke="#999" stroke-width="3" x1="3045.0" x2="3045.0" y1="933.0" y2="869.0" /><line stroke="#333" stroke-width="10" x1="3013.0" x2="3045.0" y1="933.0" y2="933.0" /><line stroke="#333" stroke-width="10" x1="3109.0" x2="3045.0" y1="805.0" y2="869.0" /><line stroke="#333" stroke-width="10" x1="3205.0" x2="3109.0" y1="741.0" y2="805.0" /><line stroke="#333" stroke-width="10" x1="3333.0" x2="3205.0" y1="741.0" y2="741.0" /><line stroke="#333" stroke-width="10" x1="3429.0" x2="3333.0" y1="805.0" y2="741.0" /><line stroke="#333" stroke-width="10" x1="3557.0" x2="3549.0" y1="805.0" y2="805.0" /><line stroke="#333" stroke-width="10" x1="3429.0" x2="3549.0" y1="997.0" y2="997.0" /><line stroke="#333" stroke-width="10" x1="3333.0" x2="3429.0" y1="1061.0" y2="997.0" /><line stroke="#333" stroke-width="10" x1="3205.0" x2="3333.0" y1="1061.0" y2="1061.0" /><line stroke="#333" stroke-width="10" x1="3109.0" x2="3205.0" y1="997.0" y2="1061.0" /><line stroke="#333" stroke-width="10" x1="3045.0" x2="3109.0" y1="933.0" y2="997.0" /><line stroke="#333" stroke-width="10" x1="3557.0" x2="3557.0" y1="869.0" y2="805.0" /><line stroke="#333" stroke-width="10" x1="3557.0" x2="3557.0" y1="997.0" y2="933.0" /><line stroke="#999" stroke-width="3" x1="1597.0" x2="1621.0" y1="1285.0" y2="1285.0" /><line stroke="#999" stroke-width="3" x1="1597.0" x2="1589.0" y1="1349.0" y2="1349.0" /><line stroke="#999" stroke-width="3" x1="1805.0" x2="1813.0" y1="1349.0" y2="1349.0" /><line stroke="#999" stroke-width="3" x1="1805.0" x2="1805.0" y1="1485.0" y2="1349.0" /><line stroke="#999" stroke-width="3" x1="1597.0" x2="1805.0" y1="1485.0" y2="1485.0" /><line stroke="#999" stroke-width="3" x1="1597.0" x2="1597.0" y1="1349.0" y2="1485.0" /><line stroke="#999" stroke-width="3" x1="1597.0" x2="1597.0" y1="1149.0" y2="1285.0" /><line stroke="#999" stroke-width="3" x1="1805.0" x2="1597.0" y1="1149.0" y2="1149.0" /><line stroke="#999" stroke-width="3" x1="1805.0" x2="1805.0" y1="1301.0" y2="1149.0" /><line stroke="#999" stroke-width="3" x1="1813.0" x2="1805.0" y1="1301.0" y2="1301.0" /><line stroke="#333" stroke-width="10" x1="3549.0" x2="3557.0" y1="997.0" y2="997.0" /><line stroke="#333" stroke-width="10" x1="3549.0" x2="3429.0" y1="805.0" y2="805.0" /><line stroke="#999" stroke-width="3" x1="3549.0" x2="3557.0" y1="933.0" y2="933.0" /><line stroke="#999" stroke-width="3" x1="3549.0" x2="3549.0" y1="997.0" y2="933.0" /><line stroke="#999" stroke-width="3" x1="3549.0" x2="3549.0" y1="869.0" y2="805.0" /><line stroke="#999" stroke-width="3" x1="3557.0" x2="3549.0" y1="869.0" y2="869.0" /><line stroke="#333" stroke-width="10" x1="1221.0" x2="1285.0" y1="445.0" y2="197.0" /><line stroke="#333" stroke-width="10" x1="837.0" x2="837.0" y1="445.0" y2="453.0" /><line stroke="#333" stroke-width="10" x1="829.0" x2="645.0" y1="525.0" y2="645.0" /><line stroke="#999" stroke-width="3" x1="837.0" x2="1221.0" y1="445.0" y2="445.0" /><line stroke="#999" stroke-width="3" x1="1221.0" x2="829.0" y1="525.0" y2="525.0" /><line stroke="#999" stroke-width="3" x1="1221.0" x2="1221.0" y1="517.0" y2="525.0" /><line stroke="#0d0" stroke-width="20" x1="3549.0" x2="3549.0" y1="933.0" y2="869.0" /><line stroke="#333" stroke-width="10" x1="3557.0" x2="3557.0" y1="933.0" y2="869.0" /><ellipse cx="997.0" cy="37.0" fill="#009" rx="12" ry="24" stroke="#009" stroke-width="5" /><ellipse cx="1061.0" cy="37.0" fill="#009" rx="12" ry="24" stroke="#009" stroke-width="5" /><ellipse cx="1061.0" cy="101.0" fill="#009" rx="12" ry="24" stroke="#009" stroke-width="5" /><ellipse cx="997.0" cy="101.0" fill="#009" rx="12" ry="24" stroke="#009" stroke-width="5" /><rect fill="#900" height="48" stroke="#900" stroke-width="5" transform="rotate(0,805.0,229.0)" width="32" x="789.0" y="205.0" /><rect fill="#900" height="48" stroke="#900" stroke-width="5" transform="rotate(180,1253.0,229.0)" width="32" x="1237.0" y="205.0" /><rect fill="#900" height="48" stroke="#900" stroke-width="5" transform="rotate(270,997.0,421.0)" width="32" x="981.0" y="397.0" /><rect fill="#900" height="48" stroke="#900" stroke-width="5" transform="rotate(270,1061.0,421.0)" width="32" x="1045.0" y="397.0" /><rect fill="#090" height="24" stroke="#090" stroke-width="5" transform="rotate(90,1029.0,37.0)" width="24" x="1017.0" y="25.0" /><rect fill="#900" height="48" stroke="#900" stroke-width="5" transform="rotate(180,1381.0,613.0)" width="32" x="1365.0" y="589.0" /><rect fill="#900" height="48" stroke="#900" stroke-width="5" transform="rotate(180,1381.0,549.0)" width="32" x="1365.0" y="525.0" /><rect fill="#900" height="48" stroke="#900" stroke-width="5" transform="rotate(180,1317.0,613.0)" width="32" x="1301.0" y="589.0" /><rect fill="#900" height="48" stroke="#900" stroke-width="5" transform="rotate(180,1317.0,549.0)" width="32" x="1301.0" y="525.0" /><rect fill="#900" height="48" stroke="#900" stroke-width="5" transform="rotate(180,1349.0,581.0)" width="32" x="1333.0" y="557.0" /><circle cx="767.0" cy="955.0" fill="#900" r="16" stroke="#900" stroke-width="5" /><circle cx="1089.0" cy="847.0" fill="#090" r="16" stroke="#090" stroke-width="5" /><circle cx="705.0" cy="661.0" fill="#090" r="16" stroke="#090" stroke-width="5" /><circle cx="297.0" cy="883.0" fill="#090" r="16" stroke="#090" stroke-width="5" /><circle cx="1233.0" cy="577.0" fill="#090" r="16" stroke="#090" stroke-width="5" /><circle cx="877.0" cy="333.0" fill="#090" r="16" stroke="#090" stroke-width="5" /><circle cx="1163.0" cy="311.0" fill="#090" r="16" stroke="#090" stroke-width="5" /><circle cx="873.0" cy="755.0" fill="#009" r="16" stroke="#009" stroke-width="5" /><circle cx="1217.0" cy="933.0" fill="#009" r="16" stroke="#009" stroke-width="5" /><circle cx="453.0" cy="897.0" fill="#009" r="16" stroke="#009" stroke-width="5" /><circle cx="111.0" cy="547.0" fill="#009" r="16" stroke="#009" stroke-width="5" /><circle cx="499.0" cy="319.0" fill="#009" r="16" stroke="#009" stroke-width="5" /><circle cx="1053.0" cy="655.0" fill="#009" r="16" stroke="#009" stroke-width="5" /><circle cx="977.0" cy="281.0" fill="#009" r="16" stroke="#009" stroke-width="5" /><circle cx="1165.0" cy="405.0" fill="#009" r="16" stroke="#009" stroke-width="5" /><rect fill="#090" height="24" stroke="#090" stroke-width="5" transform="rotate(0,350.0,77.0)" width="24" x="338.0" y="65.0" /><rect fill="#090" height="24" stroke="#090" stroke-width="5" transform="rotate(90,2037.0,1029.0)" width="24" x="2025.0" y="1017.0" /><rect fill="#090" height="24" stroke="#090" stroke-width="5" transform="rotate(180,1797.0,133.0)" width="24" x="1785.0" y="121.0" /><ellipse cx="1834.0" cy="1326.0" fill="#090" rx="12" ry="24" stroke="#090" stroke-width="5" /><rect fill="#900" height="48" stroke="#900" stroke-width="5" transform="rotate(270,1698.0,1459.0)" width="32" x="1682.0" y="1435.0" /><rect fill="#900" height="48" stroke="#900" stroke-width="5" transform="rotate(90,1705.0,1181.0)" width="32" x="1689.0" y="1157.0" /><rect fill="#900" height="48" stroke="#900" stroke-width="5" transform="rotate(90,2037.0,1182.0)" width="32" x="2021.0" y="1158.0" /><rect fill="#900" height="48" stroke="#900" stroke-width="5" transform="rotate(90,2232.0,593.0)" width="32" x="2216.0" y="569.0" /><rect fill="#900" height="48" stroke="#900" stroke-width="5" transform="rotate(180,2367.0,815.0)" width="32" x="2351.0" y="791.0" /><circle cx="2040.0" cy="1076.0" fill="#900" r="16" stroke="#900" stroke-width="5" /><circle cx="2011.0" cy="1123.0" fill="#090" r="16" stroke="#090" stroke-width="5" /><circle cx="2062.0" cy="1122.0" fill="#090" r="16" stroke="#090" stroke-width="5" /><circle cx="2021.0" cy="925.0" fill="#090" r="16" stroke="#090" stroke-width="5" /><circle cx="1780.0" cy="1194.0" fill="#090" r="16" stroke="#090" stroke-width="5" /><circle cx="1780.0" cy="1408.0" fill="#090" r="16" stroke="#090" stroke-width="5" /><circle cx="1993.0" cy="1322.0" fill="#090" r="16" stroke="#090" stroke-width="5" /><circle cx="2048.0" cy="1249.0" fill="#009" r="16" stroke="#009" stroke-width="5" /><circle cx="1474.0" cy="1318.0" fill="#009" r="16" stroke="#009" stroke-width="5" /><circle cx="1553.0" cy="1318.0" fill="#009" r="16" stroke="#009" stroke-width="5" /><circle cx="1726.0" cy="1317.0" fill="#009" r="16" stroke="#009" stroke-width="5" /><circle cx="2028.0" cy="990.0" fill="#009" r="16" stroke="#009" stroke-width="5" /><circle cx="1919.0" cy="1324.0" fill="#090" r="16" stroke="#090" stroke-width="5" /><circle cx="1611.0" cy="1170.0" fill="#090" r="16" stroke="#090" stroke-width="5" /><circle cx="1611.0" cy="1320.0" fill="#090" r="16" stroke="#090" stroke-width="5" /><circle cx="1607.0" cy="1474.0" fill="#090" r="16" stroke="#090" stroke-width="5" /><circle cx="2084.0" cy="813.0" fill="#090" r="16" stroke="#090" stroke-width="5" /><circle cx="2258.0" cy="833.0" fill="#090" r="16" stroke="#090" stroke-width="5" /><rect fill="#900" height="48" stroke="#900" stroke-width="5" transform="rotate(180,3493.0,965.0)" width="32" x="3477.0" y="941.0" /><rect fill="#900" height="48" stroke="#900" stroke-width="5" transform="rotate(180,3493.0,837.0)" width="32" x="3477.0" y="813.0" /><rect fill="#900" height="48" stroke="#900" stroke-width="5" transform="rotate(270,2725.0,1509.0)" width="32" x="2709.0" y="1485.0" /><rect fill="#900" height="48" stroke="#900" stroke-width="5" transform="rotate(270,3045.0,1509.0)" width="32" x="3029.0" y="1485.0" /><rect fill="#900" height="48" stroke="#900" stroke-width="5" transform="rotate(270,2853.0,1509.0)" width="32" x="2837.0" y="1485.0" /><rect fill="#900" height="48" stroke="#900" stroke-width="5" transform="rotate(270,2917.0,1509.0)" width="32" x="2901.0" y="1485.0" /><circle cx="1709.0" cy="101.0" fill="#900" r="16" stroke="#900" stroke-width="5" /><circle cx="1317.0" cy="77.0" fill="#900" r="16" stroke="#900" stroke-width="5" /><circle cx="621.0" cy="101.0" fill="#900" r="16" stroke="#900" stroke-width="5" /><circle cx="1501.0" cy="149.0" fill="#090" r="16" stroke="#090" stroke-width="5" /><circle cx="1837.0" cy="381.0" fill="#090" r="16" stroke="#090" stroke-width="5" /><circle cx="1589.0" cy="589.0" fill="#090" r="16" stroke="#090" stroke-width="5" /><circle cx="341.0" cy="533.0" fill="#090" r="16" stroke="#090" stroke-width="5" /><circle cx="477.0" cy="109.0" fill="#090" r="16" stroke="#090" stroke-width="5" /><rect fill="#090" height="24" stroke="#090" stroke-width="5" transform="rotate(180,3277.0,885.0)" width="24" x="3265.0" y="873.0" /><rect fill="#090" height="24" stroke="#090" stroke-width="5" transform="rotate(270,2877.0,1405.0)" width="24" x="2865.0" y="1393.0" /><rect fill="#090" height="24" stroke="#090" stroke-width="5" transform="rotate(45,2533.0,917.0)" width="24" x="2521.0" y="905.0" /><rect fill="#090" height="24" stroke="#090" stroke-width="5" transform="rotate(0,1773.0,589.0)" width="24" x="1761.0" y="577.0" /><rect fill="#090" height="24" stroke="#090" stroke-width="5" transform="rotate(90,189.0,829.0)" width="24" x="177.0" y="817.0" /><rect fill="#090" height="24" stroke="#090" stroke-width="5" transform="rotate(270,949.0,965.0)" width="24" x="937.0" y="953.0" /></svg>