<?xml version="1.0" encoding="utf-8" ?>
<svg baseProfile="tiny" height="528" version="1.2" viewBox="0 0 6090 3146" width="1024" xmlns="http://www.w3.org/2000/svg" xmlns:ev="http://www.w3.org/2001/xml-events" xmlns:xlink="http://www.w3.org/1999/xlink"><defs /><line stroke="#999" stroke-width="3" x1="3397.0" x2="3397.0" y1="1797.0" y2="1349.0" /><line stroke="#999" stroke-width="3" x1="2693.0" x2="3397.0" y1="1797.0" y2="1797.0" /><line stroke="#999" stroke-width="3" x1="2693.0" x2="2693.0" y1="1349.0" y2="1797.0" /><line stroke="#999" stroke-width="3" x1="3397.0" x2="2693.0" y1="1349.0" y2="1349.0" /><line stroke="#999" stroke-width="3" x1="2949.0" x2="3141.0" y1="1669.0" y2="1669.0" /><line stroke="#999" stroke-width="3" x1="3141.0" x2="3141.0" y1="1669.0" y2="1477.0" /><line stroke="#999" stroke-width="3" x1="3141.0" x2="2949.0" y1="1477.0" y2="1477.0" /><line stroke="#999" stroke-width="3" x1="2949.0" x2="2949.0" y1="1477.0" y2="1669.0" /><line stroke="#333" stroke-width="10" x1="1989.0" x2="2693.0" y1="773.0" y2="773.0" /><line stroke="#333" stroke-width="10" x1="1989.0" x2="1989.0" y1="1349.0" y2="773.0" /><line stroke="#333" stroke-width="10" x1="2693.0" x2="1989.0" y1="1349.0" y2="1349.0" /><line stroke="#333" stroke-width="10" x1="2693.0" x2="2693.0" y1="773.0" y2="1349.0" /><line stroke="#333" stroke-width="10" x1="4101.0" x2="4101.0" y1="773.0" y2="1349.0" /><line stroke="#333" stroke-width="10" x1="3397.0" x2="4101.0" y1="773.0" y2="773.0" /><line stroke="#333" stroke-width="10" x1="3397.0" x2="3397.0" y1="1349.0" y2="773.0" /><line stroke="#333" stroke-width="10" x1="4101.0" x2="3397.0" y1="1349.0" y2="1349.0" /><line stroke="#333" stroke-width="10" x1="4101.0" x2="3397.0" y1="2373.0" y2="2373.0" /><line stroke="#333" stroke-width="10" x1="4101.0" x2="4101.0" y1="1797.0" y2="2373.0" /><line stroke="#333" stroke-width="10" x1="3397.0" x2="4101.0" y1="1797.0" y2="1797.0" /><line stroke="#333" stroke-width="10" x1="3397.0" x2="3397.0" y1="2373.0" y2="1797.0" /><line stroke="#333" stroke-width="10" x1="1989.0" x2="1989.0" y1="2373.0" y2="1797.0" /><line stroke="#333" stroke-width="10" x1="2693.0" x2="1989.0" y1="2373.0" y2="2373.0" /><line stroke="#333" stroke-width="10" x1="2693.0" x2="2693.0" y1="1797.0" y2="2373.0" /><line stroke="#333" stroke-width="10" x1="1989.0" x2="2693.0" y1="1797.0" y2="1797.0" /><line stroke="#333" stroke-width="10" x1="5573.0" x2="6085.0" y1="3141.0" y2="2629.0" /><line stroke="#333" stroke-width="10" x1="6085.0" x2="6085.0" y1="2629.0" y2="517.0" /><line stroke="#333" stroke-width="10" x1="6085.0" x2="5573.0" y1="517.0" y2="5.0" /><line stroke="#333" stroke-width="10" x1="5573.0" x2="517.0" y1="5.0" y2="5.0" /><line stroke="#333" stroke-width="10" x1="517.0" x2="5.0" y1="5.0" y2="517.0" /><line stroke="#333" stroke-width="10" x1="5.0" x2="5.0" y1="517.0" y2="2629.0" /><line stroke="#333" stroke-width="10" x1="5.0" x2="517.0" y1="2629.0" y2="3141.0" /><line stroke="#333" stroke-width="10" x1="517.0" x2="5573.0" y1="3141.0" y2="3141.0" /><rect fill="#900" height="48" stroke="#900" stroke-width="5" transform="rotate(135,5381.0,325.0)" width="32" x="5365.0" y="301.0" /><rect fill="#900" height="48" stroke="#900" stroke-width="5" transform="rotate(0,2501.0,581.0)" width="32" x="2485.0" y="557.0" /><rect fill="#900" height="48" stroke="#900" stroke-width="5" transform="rotate(0,2501.0,389.0)" width="32" x="2485.0" y="365.0" /><rect fill="#900" height="48" stroke="#900" stroke-width="5" transform="rotate(0,2501.0,197.0)" width="32" x="2485.0" y="173.0" /><rect fill="#900" height="48" stroke="#900" stroke-width="5" transform="rotate(180,3589.0,581.0)" width="32" x="3573.0" y="557.0" /><rect fill="#900" height="48" stroke="#900" stroke-width="5" transform="rotate(180,3589.0,389.0)" width="32" x="3573.0" y="365.0" /><rect fill="#900" height="48" stroke="#900" stroke-width="5" transform="rotate(180,3589.0,197.0)" width="32" x="3573.0" y="173.0" /><rect fill="#900" height="48" stroke="#900" stroke-width="5" transform="rotate(180,2117.0,581.0)" width="32" x="2101.0" y="557.0" /><rect fill="#900" height="48" stroke="#900" stroke-width="5" transform="rotate(180,2117.0,389.0)" width="32" x="2101.0" y="365.0" /><rect fill="#900" height="48" stroke="#900" stroke-width="5" transform="rotate(180,2117.0,197.0)" width="32" x="2101.0" y="173.0" /><rect fill="#900" height="48" stroke="#900" stroke-width="5" transform="rotate(0,3973.0,197.0)" width="32" x="3957.0" y="173.0" /><rect fill="#900" height="48" stroke="#900" stroke-width="5" transform="rotate(0,3973.0,389.0)" width="32" x="3957.0" y="365.0" /><rect fill="#900" height="48" stroke="#900" stroke-width="5" transform="rotate(0,3973.0,581.0)" width="32" x="3957.0" y="557.0" /><rect fill="#900" height="48" stroke="#900" stroke-width="5" transform="rotate(90,2693.0,197.0)" width="32" x="2677.0" y="173.0" /><rect fill="#900" height="48" stroke="#900" stroke-width="5" transform="rotate(90,3397.0,197.0)" width="32" x="3381.0" y="173.0" /><rect fill="#900" height="48" stroke="#900" stroke-width="5" transform="rotate(90,2885.0,197.0)" width="32" x="2869.0" y="173.0" /><rect fill="#900" height="48" stroke="#900" stroke-width="5" transform="rotate(90,3205.0,197.0)" width="32" x="3189.0" y="173.0" /><rect fill="#090" height="24" stroke="#090" stroke-width="5" transform="rotate(90,389.0,837.0)" width="24" x="377.0" y="825.0" /><rect fill="#900" height="48" stroke="#900" stroke-width="5" transform="rotate(90,1605.0,837.0)" width="32" x="1589.0" y="813.0" /><rect fill="#900" height="48" stroke="#900" stroke-width="5" transform="rotate(90,709.0,837.0)" width="32" x="693.0" y="813.0" /><rect fill="#900" height="48" stroke="#900" stroke-width="5" transform="rotate(270,325.0,2181.0)" width="32" x="309.0" y="2157.0" /><rect fill="#090" height="24" stroke="#090" stroke-width="5" transform="rotate(270,709.0,2181.0)" width="24" x="697.0" y="2169.0" /><rect fill="#090" height="24" stroke="#090" stroke-width="5" transform="rotate(270,1605.0,2181.0)" width="24" x="1593.0" y="2169.0" /><rect fill="#090" height="24" stroke="#090" stroke-width="5" transform="rotate(90,1285.0,837.0)" width="24" x="1273.0" y="825.0" /><rect fill="#900" height="48" stroke="#900" stroke-width="5" transform="rotate(270,1285.0,2181.0)" width="32" x="1269.0" y="2157.0" /><rect fill="#900" height="48" stroke="#900" stroke-width="5" transform="rotate(0,197.0,1733.0)" width="32" x="181.0" y="1709.0" /><rect fill="#900" height="48" stroke="#900" stroke-width="5" transform="rotate(0,197.0,1541.0)" width="32" x="181.0" y="1517.0" /><rect fill="#900" height="48" stroke="#900" stroke-width="5" transform="rotate(0,197.0,1349.0)" width="32" x="181.0" y="1325.0" /><rect fill="#900" height="48" stroke="#900" stroke-width="5" transform="rotate(180,5829.0,1733.0)" width="32" x="5813.0" y="1709.0" /><rect fill="#900" height="48" stroke="#900" stroke-width="5" transform="rotate(180,5829.0,1541.0)" width="32" x="5813.0" y="1517.0" /><rect fill="#900" height="48" stroke="#900" stroke-width="5" transform="rotate(180,5829.0,1349.0)" width="32" x="5813.0" y="1325.0" /><rect fill="#900" height="48" stroke="#900" stroke-width="5" transform="rotate(270,4421.0,2181.0)" width="32" x="4405.0" y="2157.0" /><rect fill="#090" height="24" stroke="#090" stroke-width="5" transform="rotate(270,4741.0,2181.0)" width="24" x="4729.0" y="2169.0" /><rect fill="#900" height="48" stroke="#900" stroke-width="5" transform="rotate(270,5317.0,2181.0)" width="32" x="5301.0" y="2157.0" /><rect fill="#090" height="24" stroke="#090" stroke-width="5" transform="rotate(270,5637.0,2181.0)" width="24" x="5625.0" y="2169.0" /><rect fill="#900" height="48" stroke="#900" stroke-width="5" transform="rotate(90,4357.0,901.0)" width="32" x="4341.0" y="877.0" /><rect fill="#900" height="48" stroke="#900" stroke-width="5" transform="rotate(90,5253.0,901.0)" width="32" x="5237.0" y="877.0" /><rect fill="#090" height="24" stroke="#090" stroke-width="5" transform="rotate(90,5573.0,901.0)" width="24" x="5561.0" y="889.0" /><rect fill="#090" height="24" stroke="#090" stroke-width="5" transform="rotate(90,4677.0,901.0)" width="24" x="4665.0" y="889.0" /><rect fill="#900" height="48" stroke="#900" stroke-width="5" transform="rotate(0,3973.0,2565.0)" width="32" x="3957.0" y="2541.0" /><rect fill="#900" height="48" stroke="#900" stroke-width="5" transform="rotate(0,3973.0,2757.0)" width="32" x="3957.0" y="2733.0" /><rect fill="#900" height="48" stroke="#900" stroke-width="5" transform="rotate(0,3973.0,2949.0)" width="32" x="3957.0" y="2925.0" /><rect fill="#900" height="48" stroke="#900" stroke-width="5" transform="rotate(180,3589.0,2949.0)" width="32" x="3573.0" y="2925.0" /><rect fill="#900" height="48" stroke="#900" stroke-width="5" transform="rotate(180,3589.0,2757.0)" width="32" x="3573.0" y="2733.0" /><rect fill="#900" height="48" stroke="#900" stroke-width="5" transform="rotate(180,3589.0,2565.0)" width="32" x="3573.0" y="2541.0" /><rect fill="#900" height="48" stroke="#900" stroke-width="5" transform="rotate(270,3397.0,2949.0)" width="32" x="3381.0" y="2925.0" /><rect fill="#900" height="48" stroke="#900" stroke-width="5" transform="rotate(270,3205.0,2949.0)" width="32" x="3189.0" y="2925.0" /><rect fill="#900" height="48" stroke="#900" stroke-width="5" transform="rotate(270,2885.0,2949.0)" width="32" x="2869.0" y="2925.0" /><rect fill="#900" height="48" stroke="#900" stroke-width="5" transform="rotate(270,2693.0,2949.0)" width="32" x="2677.0" y="2925.0" /><rect fill="#900" height="48" stroke="#900" stroke-width="5" transform="rotate(0,2501.0,2949.0)" width="32" x="2485.0" y="2925.0" /><rect fill="#900" height="48" stroke="#900" stroke-width="5" transform="rotate(0,2501.0,2757.0)" width="32" x="2485.0" y="2733.0" /><rect fill="#900" height="48" stroke="#900" stroke-width="5" transform="rotate(0,2501.0,2565.0)" width="32" x="2485.0" y="2541.0" /><rect fill="#900" height="48" stroke="#900" stroke-width="5" transform="rotate(180,2117.0,2565.0)" width="32" x="2101.0" y="2541.0" /><rect fill="#900" height="48" stroke="#900" stroke-width="5" transform="rotate(180,2117.0,2757.0)" width="32" x="2101.0" y="2733.0" /><rect fill="#900" height="48" stroke="#900" stroke-width="5" transform="rotate(180,2117.0,2949.0)" width="32" x="2101.0" y="2925.0" /><rect fill="#090" height="24" stroke="#090" stroke-width="5" transform="rotate(270,2757.0,1733.0)" width="24" x="2745.0" y="1721.0" /><circle cx="3333.0" cy="1733.0" fill="#090" r="16" stroke="#090" stroke-width="5" /><circle cx="3333.0" cy="1413.0" fill="#090" r="16" stroke="#090" stroke-width="5" /><circle cx="2757.0" cy="1413.0" fill="#090" r="16" stroke="#090" stroke-width="5" /><circle cx="2757.0" cy="1573.0" fill="#090" r="16" stroke="#090" stroke-width="5" /><circle cx="3333.0" cy="1573.0" fill="#090" r="16" stroke="#090" stroke-width="5" /><circle cx="2885.0" cy="1733.0" fill="#900" r="16" stroke="#900" stroke-width="5" /><circle cx="3045.0" cy="1733.0" fill="#900" r="16" stroke="#900" stroke-width="5" /><circle cx="3205.0" cy="1733.0" fill="#900" r="16" stroke="#900" stroke-width="5" /><circle cx="3205.0" cy="1413.0" fill="#900" r="16" stroke="#900" stroke-width="5" /><circle cx="3045.0" cy="1413.0" fill="#900" r="16" stroke="#900" stroke-width="5" /><circle cx="2885.0" cy="1413.0" fill="#900" r="16" stroke="#900" stroke-width="5" /><ellipse cx="2981.0" cy="1637.0" fill="#009" rx="12" ry="24" stroke="#009" stroke-width="5" /><ellipse cx="3109.0" cy="1637.0" fill="#009" rx="12" ry="24" stroke="#009" stroke-width="5" /><ellipse cx="3109.0" cy="1509.0" fill="#009" rx="12" ry="24" stroke="#009" stroke-width="5" /><ellipse cx="2981.0" cy="1509.0" fill="#009" rx="12" ry="24" stroke="#009" stroke-width="5" /><rect fill="#090" height="24" stroke="#090" stroke-width="5" transform="rotate(90,3045.0,1637.0)" width="24" x="3033.0" y="1625.0" /><rect fill="#090" height="24" stroke="#090" stroke-width="5" transform="rotate(270,3045.0,1509.0)" width="24" x="3033.0" y="1497.0" /><rect fill="#090" height="24" stroke="#090" stroke-width="5" transform="rotate(180,2981.0,1573.0)" width="24" x="2969.0" y="1561.0" /><rect fill="#090" height="24" stroke="#090" stroke-width="5" transform="rotate(0,3109.0,1573.0)" width="24" x="3097.0" y="1561.0" /><circle cx="853.0" cy="1557.0" fill="#009" r="16" stroke="#009" stroke-width="5" /><circle cx="3069.0" cy="2685.0" fill="#009" r="16" stroke="#009" stroke-width="5" /><circle cx="5269.0" cy="1597.0" fill="#009" r="16" stroke="#009" stroke-width="5" /><circle cx="3037.0" cy="453.0" fill="#009" r="16" stroke="#009" stroke-width="5" /><circle cx="1325.0" cy="1541.0" fill="#090" r="16" stroke="#090" stroke-width="5" /><circle cx="3101.0" cy="2253.0" fill="#090" r="16" stroke="#090" stroke-width="5" /><circle cx="4589.0" cy="1621.0" fill="#090" r="16" stroke="#090" stroke-width="5" /><circle cx="3045.0" cy="661.0" fill="#090" r="16" stroke="#090" stroke-width="5" /><circle cx="3045.0" cy="813.0" fill="#090" r="16" stroke="#090" stroke-width="5" /><circle cx="4461.0" cy="1621.0" fill="#090" r="16" stroke="#090" stroke-width="5" /><circle cx="3069.0" cy="2125.0" fill="#090" r="16" stroke="#090" stroke-width="5" /><circle cx="1413.0" cy="1533.0" fill="#090" r="16" stroke="#090" stroke-width="5" /><circle cx="2965.0" cy="2253.0" fill="#090" r="16" stroke="#090" stroke-width="5" /><circle cx="1429.0" cy="1621.0" fill="#090" r="16" stroke="#090" stroke-width="5" /><circle cx="4501.0" cy="1501.0" fill="#090" r="16" stroke="#090" stroke-width="5" /><circle cx="2909.0" cy="845.0" fill="#090" r="16" stroke="#090" stroke-width="5" /><circle cx="3181.0" cy="861.0" fill="#090" r="16" stroke="#090" stroke-width="5" /><circle cx="4397.0" cy="1485.0" fill="#090" r="16" stroke="#090" stroke-width="5" /><circle cx="3221.0" cy="2277.0" fill="#090" r="16" stroke="#090" stroke-width="5" /><circle cx="1445.0" cy="1397.0" fill="#090" r="16" stroke="#090" stroke-width="5" /><rect fill="#090" height="24" stroke="#090" stroke-width="5" transform="rotate(135,5524.0,194.0)" width="24" x="5512.0" y="182.0" /><rect fill="#090" height="24" stroke="#090" stroke-width="5" transform="rotate(45,516.0,244.0)" width="24" x="504.0" y="232.0" /><rect fill="#090" height="24" stroke="#090" stroke-width="5" transform="rotate(315,466.0,2862.0)" width="24" x="454.0" y="2850.0" /><rect fill="#090" height="24" stroke="#090" stroke-width="5" transform="rotate(225,5482.0,2872.0)" width="24" x="5470.0" y="2860.0" /></svg>