<?xml version="1.0" encoding="utf-8" ?>
<svg baseProfile="tiny" height="555" version="1.2" viewBox="0 0 3914 2122" width="1024" xmlns="http://www.w3.org/2000/svg" xmlns:ev="http://www.w3.org/2001/xml-events" xmlns:xlink="http://www.w3.org/1999/xlink"><defs /><line stroke="#00d" stroke-width="20" x1="3589.0" x2="3461.0" y1="901.0" y2="965.0" /><line stroke="#00d" stroke-width="20" x1="3717.0" x2="3589.0" y1="965.0" y2="901.0" /><line stroke="#333" stroke-width="10" x1="3589.0" x2="3717.0" y1="1093.0" y2="965.0" /><line stroke="#333" stroke-width="10" x1="3461.0" x2="3589.0" y1="965.0" y2="1093.0" /><line stroke="#999" stroke-width="3" x1="3397.0" x2="3461.0" y1="773.0" y2="965.0" /><line stroke="#999" stroke-width="3" x1="3461.0" x2="3397.0" y1="581.0" y2="773.0" /><line stroke="#999" stroke-width="3" x1="3589.0" x2="3461.0" y1="517.0" y2="581.0" /><line stroke="#999" stroke-width="3" x1="3717.0" x2="3589.0" y1="581.0" y2="517.0" /><line stroke="#999" stroke-width="3" x1="3781.0" x2="3717.0" y1="773.0" y2="581.0" /><line stroke="#999" stroke-width="3" x1="3717.0" x2="3781.0" y1="965.0" y2="773.0" /><line stroke="#333" stroke-width="10" x1="3333.0" x2="3461.0" y1="837.0" y2="965.0" /><line stroke="#333" stroke-width="10" x1="3301.0" x2="3333.0" y1="773.0" y2="837.0" /><line stroke="#333" stroke-width="10" x1="3301.0" x2="3269.0" y1="485.0" y2="581.0" /><line stroke="#333" stroke-width="10" x1="3397.0" x2="3301.0" y1="357.0" y2="485.0" /><line stroke="#333" stroke-width="10" x1="3621.0" x2="3557.0" y1="325.0" y2="325.0" /><line stroke="#333" stroke-width="10" x1="3781.0" x2="3621.0" y1="357.0" y2="325.0" /><line stroke="#333" stroke-width="10" x1="3877.0" x2="3781.0" y1="485.0" y2="357.0" /><line stroke="#333" stroke-width="10" x1="3877.0" x2="3909.0" y1="773.0" y2="645.0" /><line stroke="#333" stroke-width="10" x1="3845.0" x2="3877.0" y1="837.0" y2="773.0" /><line stroke="#333" stroke-width="10" x1="3717.0" x2="3845.0" y1="965.0" y2="837.0" /><line stroke="#333" stroke-width="10" x1="3069.0" x2="3077.0" y1="389.0" y2="317.0" /><line stroke="#333" stroke-width="10" x1="3045.0" x2="3069.0" y1="453.0" y2="389.0" /><line stroke="#333" stroke-width="10" x1="3013.0" x2="3045.0" y1="509.0" y2="453.0" /><line stroke="#333" stroke-width="10" x1="2965.0" x2="3013.0" y1="557.0" y2="509.0" /><line stroke="#333" stroke-width="10" x1="2917.0" x2="2965.0" y1="597.0" y2="557.0" /><line stroke="#333" stroke-width="10" x1="2853.0" x2="2917.0" y1="621.0" y2="597.0" /><line stroke="#333" stroke-width="10" x1="2789.0" x2="2853.0" y1="637.0" y2="621.0" /><line stroke="#333" stroke-width="10" x1="2717.0" x2="2789.0" y1="637.0" y2="637.0" /><line stroke="#333" stroke-width="10" x1="2653.0" x2="2717.0" y1="621.0" y2="637.0" /><line stroke="#333" stroke-width="10" x1="2597.0" x2="2653.0" y1="597.0" y2="621.0" /><line stroke="#333" stroke-width="10" x1="2541.0" x2="2597.0" y1="565.0" y2="597.0" /><line stroke="#333" stroke-width="10" x1="2493.0" x2="2541.0" y1="517.0" y2="565.0" /><line stroke="#666" stroke-width="20" x1="2461.0" x2="2493.0" y1="461.0" y2="517.0" /><line stroke="#333" stroke-width="10" x1="2437.0" x2="2461.0" y1="389.0" y2="461.0" /><line stroke="#333" stroke-width="10" x1="2437.0" x2="2437.0" y1="261.0" y2="389.0" /><line stroke="#333" stroke-width="10" x1="2461.0" x2="2437.0" y1="189.0" y2="261.0" /><line stroke="#333" stroke-width="10" x1="2493.0" x2="2461.0" y1="133.0" y2="189.0" /><line stroke="#333" stroke-width="10" x1="2541.0" x2="2493.0" y1="85.0" y2="133.0" /><line stroke="#333" stroke-width="10" x1="2597.0" x2="2541.0" y1="45.0" y2="85.0" /><line stroke="#333" stroke-width="10" x1="2653.0" x2="2597.0" y1="13.0" y2="45.0" /><line stroke="#333" stroke-width="10" x1="2717.0" x2="2653.0" y1="5.0" y2="13.0" /><line stroke="#333" stroke-width="10" x1="2789.0" x2="2717.0" y1="5.0" y2="5.0" /><line stroke="#333" stroke-width="10" x1="2853.0" x2="2789.0" y1="13.0" y2="5.0" /><line stroke="#333" stroke-width="10" x1="2909.0" x2="2853.0" y1="45.0" y2="13.0" /><line stroke="#333" stroke-width="10" x1="2965.0" x2="2909.0" y1="85.0" y2="45.0" /><line stroke="#333" stroke-width="10" x1="3013.0" x2="2965.0" y1="133.0" y2="85.0" /><line stroke="#333" stroke-width="10" x1="3045.0" x2="3013.0" y1="189.0" y2="133.0" /><line stroke="#333" stroke-width="10" x1="3069.0" x2="3045.0" y1="253.0" y2="189.0" /><line stroke="#333" stroke-width="10" x1="3077.0" x2="3069.0" y1="317.0" y2="253.0" /><line stroke="#999" stroke-width="3" x1="2541.0" x2="3077.0" y1="565.0" y2="317.0" /><line stroke="#999" stroke-width="3" x1="2709.0" x2="2541.0" y1="53.0" y2="85.0" /><line stroke="#999" stroke-width="3" x1="2949.0" x2="2853.0" y1="133.0" y2="69.0" /><line stroke="#999" stroke-width="3" x1="3077.0" x2="2949.0" y1="317.0" y2="133.0" /><line stroke="#00d" stroke-width="20" x1="2597.0" x2="2573.0" y1="277.0" y2="293.0" /><line stroke="#00d" stroke-width="20" x1="2613.0" x2="2597.0" y1="293.0" y2="277.0" /><line stroke="#00d" stroke-width="20" x1="2597.0" x2="2613.0" y1="317.0" y2="293.0" /><line stroke="#00d" stroke-width="20" x1="2581.0" x2="2597.0" y1="309.0" y2="317.0" /><line stroke="#00d" stroke-width="20" x1="2573.0" x2="2581.0" y1="293.0" y2="309.0" /><line stroke="#999" stroke-width="3" x1="2565.0" x2="2573.0" y1="261.0" y2="293.0" /><line stroke="#999" stroke-width="3" x1="2581.0" x2="2565.0" y1="213.0" y2="261.0" /><line stroke="#999" stroke-width="3" x1="2629.0" x2="2581.0" y1="197.0" y2="213.0" /><line stroke="#999" stroke-width="3" x1="2677.0" x2="2629.0" y1="213.0" y2="197.0" /><line stroke="#999" stroke-width="3" x1="2693.0" x2="2677.0" y1="261.0" y2="213.0" /><line stroke="#999" stroke-width="3" x1="2677.0" x2="2693.0" y1="309.0" y2="261.0" /><line stroke="#999" stroke-width="3" x1="2629.0" x2="2677.0" y1="325.0" y2="309.0" /><line stroke="#999" stroke-width="3" x1="2597.0" x2="2629.0" y1="317.0" y2="325.0" /><line stroke="#333" stroke-width="10" x1="3557.0" x2="3397.0" y1="325.0" y2="357.0" /><line stroke="#333" stroke-width="10" x1="3269.0" x2="3269.0" y1="581.0" y2="645.0" /><line stroke="#333" stroke-width="10" x1="3269.0" x2="3301.0" y1="645.0" y2="773.0" /><line stroke="#333" stroke-width="10" x1="3909.0" x2="3909.0" y1="645.0" y2="581.0" /><line stroke="#333" stroke-width="10" x1="3909.0" x2="3877.0" y1="581.0" y2="485.0" /><line stroke="#999" stroke-width="3" x1="2853.0" x2="2709.0" y1="69.0" y2="53.0" /><line stroke="#333" stroke-width="10" x1="3845.0" x2="3845.0" y1="1477.0" y2="1445.0" /><line stroke="#333" stroke-width="10" x1="3461.0" x2="3845.0" y1="1477.0" y2="1477.0" /><line stroke="#333" stroke-width="10" x1="3205.0" x2="3461.0" y1="1605.0" y2="1477.0" /><line stroke="#333" stroke-width="10" x1="3205.0" x2="3205.0" y1="1733.0" y2="1605.0" /><line stroke="#333" stroke-width="10" x1="2885.0" x2="3205.0" y1="1733.0" y2="1733.0" /><line stroke="#333" stroke-width="10" x1="2821.0" x2="2885.0" y1="1861.0" y2="1733.0" /><line stroke="#333" stroke-width="10" x1="1925.0" x2="2821.0" y1="1861.0" y2="1861.0" /><line stroke="#333" stroke-width="10" x1="1925.0" x2="1925.0" y1="2117.0" y2="1861.0" /><line stroke="#333" stroke-width="10" x1="1413.0" x2="1925.0" y1="2117.0" y2="2117.0" /><line stroke="#333" stroke-width="10" x1="1413.0" x2="1413.0" y1="1861.0" y2="2117.0" /><line stroke="#999" stroke-width="3" x1="1541.0" x2="1413.0" y1="1861.0" y2="1861.0" /><line stroke="#333" stroke-width="10" x1="1541.0" x2="1541.0" y1="1989.0" y2="1861.0" /><line stroke="#333" stroke-width="10" x1="1797.0" x2="1541.0" y1="1989.0" y2="1989.0" /><line stroke="#333" stroke-width="10" x1="1797.0" x2="1797.0" y1="1733.0" y2="1989.0" /><line stroke="#333" stroke-width="10" x1="1925.0" x2="1797.0" y1="1733.0" y2="1733.0" /><line stroke="#333" stroke-width="10" x1="1925.0" x2="1925.0" y1="1477.0" y2="1733.0" /><line stroke="#333" stroke-width="10" x1="2181.0" x2="1925.0" y1="1477.0" y2="1477.0" /><line stroke="#333" stroke-width="10" x1="2181.0" x2="2181.0" y1="1349.0" y2="1477.0" /><line stroke="#333" stroke-width="10" x1="2437.0" x2="2181.0" y1="1349.0" y2="1349.0" /><line stroke="#999" stroke-width="3" x1="2437.0" x2="2437.0" y1="1477.0" y2="1349.0" /><line stroke="#333" stroke-width="10" x1="2309.0" x2="2437.0" y1="1477.0" y2="1477.0" /><line stroke="#333" stroke-width="10" x1="2309.0" x2="2309.0" y1="1605.0" y2="1477.0" /><line stroke="#333" stroke-width="10" x1="2053.0" x2="2309.0" y1="1605.0" y2="1605.0" /><line stroke="#333" stroke-width="10" x1="2053.0" x2="2053.0" y1="1733.0" y2="1605.0" /><line stroke="#333" stroke-width="10" x1="2693.0" x2="2053.0" y1="1733.0" y2="1733.0" /><line stroke="#333" stroke-width="10" x1="2757.0" x2="2693.0" y1="1605.0" y2="1733.0" /><line stroke="#333" stroke-width="10" x1="3077.0" x2="2757.0" y1="1605.0" y2="1605.0" /><line stroke="#333" stroke-width="10" x1="3141.0" x2="3077.0" y1="1477.0" y2="1605.0" /><line stroke="#333" stroke-width="10" x1="3333.0" x2="3141.0" y1="1349.0" y2="1477.0" /><line stroke="#333" stroke-width="10" x1="3845.0" x2="3333.0" y1="1349.0" y2="1349.0" /><line stroke="#333" stroke-width="10" x1="2437.0" x2="2437.0" y1="1221.0" y2="1349.0" /><line stroke="#333" stroke-width="10" x1="2949.0" x2="2437.0" y1="1221.0" y2="1221.0" /><line stroke="#333" stroke-width="10" x1="2949.0" x2="2949.0" y1="1477.0" y2="1221.0" /><line stroke="#333" stroke-width="10" x1="2437.0" x2="2949.0" y1="1477.0" y2="1477.0" /><line stroke="#333" stroke-width="10" x1="1413.0" x2="1413.0" y1="1797.0" y2="1861.0" /><line stroke="#999" stroke-width="3" x1="1413.0" x2="1541.0" y1="1797.0" y2="1797.0" /><line stroke="#333" stroke-width="10" x1="1541.0" x2="1541.0" y1="1861.0" y2="1797.0" /><line stroke="#333" stroke-width="10" x1="1413.0" x2="1413.0" y1="1741.0" y2="1797.0" /><line stroke="#999" stroke-width="3" x1="1541.0" x2="1413.0" y1="1741.0" y2="1741.0" /><line stroke="#333" stroke-width="10" x1="1541.0" x2="1541.0" y1="1797.0" y2="1741.0" /><line stroke="#333" stroke-width="10" x1="1413.0" x2="1413.0" y1="1693.0" y2="1741.0" /><line stroke="#999" stroke-width="3" x1="1541.0" x2="1413.0" y1="1693.0" y2="1693.0" /><line stroke="#333" stroke-width="10" x1="1541.0" x2="1541.0" y1="1741.0" y2="1693.0" /><line stroke="#333" stroke-width="10" x1="1413.0" x2="1413.0" y1="1645.0" y2="1693.0" /><line stroke="#999" stroke-width="3" x1="1541.0" x2="1413.0" y1="1645.0" y2="1645.0" /><line stroke="#333" stroke-width="10" x1="1541.0" x2="1541.0" y1="1693.0" y2="1645.0" /><line stroke="#333" stroke-width="10" x1="1413.0" x2="1413.0" y1="1589.0" y2="1645.0" /><line stroke="#999" stroke-width="3" x1="1541.0" x2="1413.0" y1="1589.0" y2="1589.0" /><line stroke="#333" stroke-width="10" x1="1541.0" x2="1541.0" y1="1645.0" y2="1589.0" /><line stroke="#333" stroke-width="10" x1="1413.0" x2="1413.0" y1="1533.0" y2="1589.0" /><line stroke="#999" stroke-width="3" x1="1541.0" x2="1413.0" y1="1533.0" y2="1533.0" /><line stroke="#333" stroke-width="10" x1="1541.0" x2="1541.0" y1="1589.0" y2="1533.0" /><line stroke="#333" stroke-width="10" x1="1413.0" x2="1413.0" y1="1477.0" y2="1533.0" /><line stroke="#999" stroke-width="3" x1="1541.0" x2="1413.0" y1="1477.0" y2="1477.0" /><line stroke="#333" stroke-width="10" x1="1541.0" x2="1541.0" y1="1533.0" y2="1477.0" /><line stroke="#333" stroke-width="10" x1="1413.0" x2="1413.0" y1="1349.0" y2="1477.0" /><line stroke="#333" stroke-width="10" x1="1285.0" x2="1413.0" y1="1349.0" y2="1349.0" /><line stroke="#333" stroke-width="10" x1="1285.0" x2="1285.0" y1="1477.0" y2="1349.0" /><line stroke="#333" stroke-width="10" x1="901.0" x2="1285.0" y1="1477.0" y2="1477.0" /><line stroke="#999" stroke-width="3" x1="901.0" x2="901.0" y1="1349.0" y2="1477.0" /><line stroke="#333" stroke-width="10" x1="1157.0" x2="901.0" y1="1349.0" y2="1349.0" /><line stroke="#333" stroke-width="10" x1="1157.0" x2="1157.0" y1="1221.0" y2="1349.0" /><line stroke="#333" stroke-width="10" x1="2053.0" x2="1157.0" y1="1221.0" y2="1221.0" /><line stroke="#333" stroke-width="10" x1="2053.0" x2="2053.0" y1="1349.0" y2="1221.0" /><line stroke="#333" stroke-width="10" x1="1541.0" x2="2053.0" y1="1349.0" y2="1349.0" /><line stroke="#333" stroke-width="10" x1="1541.0" x2="1541.0" y1="1477.0" y2="1349.0" /><line stroke="#333" stroke-width="10" x1="901.0" x2="901.0" y1="1605.0" y2="1477.0" /><line stroke="#333" stroke-width="10" x1="389.0" x2="901.0" y1="1605.0" y2="1605.0" /><line stroke="#333" stroke-width="10" x1="389.0" x2="389.0" y1="1733.0" y2="1605.0" /><line stroke="#333" stroke-width="10" x1="69.0" x2="389.0" y1="1733.0" y2="1733.0" /><line stroke="#333" stroke-width="10" x1="69.0" x2="5.0" y1="1221.0" y2="1445.0" /><line stroke="#333" stroke-width="10" x1="901.0" x2="69.0" y1="1221.0" y2="1221.0" /><line stroke="#333" stroke-width="10" x1="901.0" x2="901.0" y1="1349.0" y2="1221.0" /><line stroke="#333" stroke-width="10" x1="3845.0" x2="3845.0" y1="1445.0" y2="1381.0" /><line stroke="#333" stroke-width="10" x1="3845.0" x2="3845.0" y1="1381.0" y2="1349.0" /><line stroke="#0d0" stroke-width="20" x1="5.0" x2="5.0" y1="1445.0" y2="1509.0" /><line stroke="#333" stroke-width="10" x1="5.0" x2="69.0" y1="1509.0" y2="1733.0" /><ellipse cx="3589.0" cy="453.0" fill="#009" rx="12" ry="24" stroke="#009" stroke-width="5" /><rect fill="#009" height="24" stroke="#009" stroke-width="5" transform="rotate(225,2836.0,512.0)" width="24" x="2824.0" y="500.0" /><rect fill="#009" height="24" stroke="#009" stroke-width="5" transform="rotate(180,2821.0,1349.0)" width="24" x="2809.0" y="1337.0" /><rect fill="#090" height="24" stroke="#090" stroke-width="5" transform="rotate(0,2467.0,1287.0)" width="24" x="2455.0" y="1275.0" /><rect fill="#090" height="24" stroke="#090" stroke-width="5" transform="rotate(0,2585.0,1263.0)" width="24" x="2573.0" y="1251.0" /><rect fill="#090" height="24" stroke="#090" stroke-width="5" transform="rotate(0,2588.0,1299.0)" width="24" x="2576.0" y="1287.0" /><rect fill="#090" height="24" stroke="#090" stroke-width="5" transform="rotate(0,2912.0,1353.0)" width="24" x="2900.0" y="1341.0" /><rect fill="#090" height="24" stroke="#090" stroke-width="5" transform="rotate(0,2810.0,1260.0)" width="24" x="2798.0" y="1248.0" /><rect fill="#090" height="24" stroke="#090" stroke-width="5" transform="rotate(0,2579.0,1446.0)" width="24" x="2567.0" y="1434.0" /><rect fill="#090" height="24" stroke="#090" stroke-width="5" transform="rotate(0,2783.0,1449.0)" width="24" x="2771.0" y="1437.0" /><rect fill="#090" height="24" stroke="#090" stroke-width="5" transform="rotate(0,2684.0,1350.0)" width="24" x="2672.0" y="1338.0" /><ellipse cx="2759.0" cy="1353.0" fill="#090" rx="12" ry="24" stroke="#090" stroke-width="5" /><rect fill="#090" height="24" stroke="#090" stroke-width="5" transform="rotate(0,453.0,1461.0)" width="24" x="441.0" y="1449.0" /><rect fill="#090" height="24" stroke="#090" stroke-width="5" transform="rotate(0,517.0,1461.0)" width="24" x="505.0" y="1449.0" /><rect fill="#090" height="24" stroke="#090" stroke-width="5" transform="rotate(0,485.0,1461.0)" width="24" x="473.0" y="1449.0" /><rect fill="#090" height="24" stroke="#090" stroke-width="5" transform="rotate(0,549.0,1461.0)" width="24" x="537.0" y="1449.0" /><rect fill="#090" height="24" stroke="#090" stroke-width="5" transform="rotate(0,581.0,1461.0)" width="24" x="569.0" y="1449.0" /><rect fill="#090" height="24" stroke="#090" stroke-width="5" transform="rotate(0,613.0,1461.0)" width="24" x="601.0" y="1449.0" /><rect fill="#090" height="24" stroke="#090" stroke-width="5" transform="rotate(0,645.0,1461.0)" width="24" x="633.0" y="1449.0" /><rect fill="#090" height="24" stroke="#090" stroke-width="5" transform="rotate(0,677.0,1461.0)" width="24" x="665.0" y="1449.0" /><rect fill="#090" height="24" stroke="#090" stroke-width="5" transform="rotate(0,709.0,1461.0)" width="24" x="697.0" y="1449.0" /><rect fill="#090" height="24" stroke="#090" stroke-width="5" transform="rotate(0,741.0,1461.0)" width="24" x="729.0" y="1449.0" /><rect fill="#090" height="24" stroke="#090" stroke-width="5" transform="rotate(0,741.0,1429.0)" width="24" x="729.0" y="1417.0" /><rect fill="#090" height="24" stroke="#090" stroke-width="5" transform="rotate(0,709.0,1429.0)" width="24" x="697.0" y="1417.0" /><rect fill="#090" height="24" stroke="#090" stroke-width="5" transform="rotate(0,677.0,1429.0)" width="24" x="665.0" y="1417.0" /><rect fill="#090" height="24" stroke="#090" stroke-width="5" transform="rotate(0,645.0,1429.0)" width="24" x="633.0" y="1417.0" /><rect fill="#090" height="24" stroke="#090" stroke-width="5" transform="rotate(0,613.0,1429.0)" width="24" x="601.0" y="1417.0" /><rect fill="#090" height="24" stroke="#090" stroke-width="5" transform="rotate(0,581.0,1429.0)" width="24" x="569.0" y="1417.0" /><rect fill="#090" height="24" stroke="#090" stroke-width="5" transform="rotate(0,549.0,1429.0)" width="24" x="537.0" y="1417.0" /><rect fill="#090" height="24" stroke="#090" stroke-width="5" transform="rotate(0,517.0,1429.0)" width="24" x="505.0" y="1417.0" /><rect fill="#090" height="24" stroke="#090" stroke-width="5" transform="rotate(0,485.0,1429.0)" width="24" x="473.0" y="1417.0" /><rect fill="#090" height="24" stroke="#090" stroke-width="5" transform="rotate(0,453.0,1429.0)" width="24" x="441.0" y="1417.0" /><rect fill="#090" height="24" stroke="#090" stroke-width="5" transform="rotate(0,245.0,1621.0)" width="24" x="233.0" y="1609.0" /><rect fill="#090" height="24" stroke="#090" stroke-width="5" transform="rotate(0,213.0,1589.0)" width="24" x="201.0" y="1577.0" /><rect fill="#090" height="24" stroke="#090" stroke-width="5" transform="rotate(0,181.0,1557.0)" width="24" x="169.0" y="1545.0" /><rect fill="#090" height="24" stroke="#090" stroke-width="5" transform="rotate(0,245.0,1589.0)" width="24" x="233.0" y="1577.0" /><rect fill="#090" height="24" stroke="#090" stroke-width="5" transform="rotate(0,213.0,1557.0)" width="24" x="201.0" y="1545.0" /><rect fill="#090" height="24" stroke="#090" stroke-width="5" transform="rotate(0,197.0,1525.0)" width="24" x="185.0" y="1513.0" /><rect fill="#090" height="24" stroke="#090" stroke-width="5" transform="rotate(0,245.0,1285.0)" width="24" x="233.0" y="1273.0" /><rect fill="#090" height="24" stroke="#090" stroke-width="5" transform="rotate(0,245.0,1317.0)" width="24" x="233.0" y="1305.0" /><rect fill="#090" height="24" stroke="#090" stroke-width="5" transform="rotate(0,213.0,1317.0)" width="24" x="201.0" y="1305.0" /><rect fill="#090" height="24" stroke="#090" stroke-width="5" transform="rotate(0,213.0,1349.0)" width="24" x="201.0" y="1337.0" /><rect fill="#090" height="24" stroke="#090" stroke-width="5" transform="rotate(0,181.0,1349.0)" width="24" x="169.0" y="1337.0" /><rect fill="#090" height="24" stroke="#090" stroke-width="5" transform="rotate(0,197.0,1381.0)" width="24" x="185.0" y="1369.0" /><rect fill="#090" height="24" stroke="#090" stroke-width="5" transform="rotate(0,277.0,1301.0)" width="24" x="265.0" y="1289.0" /><rect fill="#090" height="24" stroke="#090" stroke-width="5" transform="rotate(0,277.0,1605.0)" width="24" x="265.0" y="1593.0" /><rect fill="#900" height="48" stroke="#900" stroke-width="5" transform="rotate(270,3505.0,854.0)" width="32" x="3489.0" y="830.0" /><rect fill="#900" height="48" stroke="#900" stroke-width="5" transform="rotate(270,3670.0,857.0)" width="32" x="3654.0" y="833.0" /><rect fill="#900" height="48" stroke="#900" stroke-width="5" transform="rotate(270,3574.0,760.0)" width="32" x="3558.0" y="736.0" /><rect fill="#900" height="48" stroke="#900" stroke-width="5" transform="rotate(270,3571.0,628.0)" width="32" x="3555.0" y="604.0" /><rect fill="#900" height="48" stroke="#900" stroke-width="5" transform="rotate(270,3478.0,721.0)" width="32" x="3462.0" y="697.0" /><rect fill="#900" height="48" stroke="#900" stroke-width="5" transform="rotate(270,3679.0,721.0)" width="32" x="3663.0" y="697.0" /><rect fill="#900" height="48" stroke="#900" stroke-width="5" transform="rotate(270,3586.0,854.0)" width="32" x="3570.0" y="830.0" /><rect fill="#900" height="48" stroke="#900" stroke-width="5" transform="rotate(270,2544.0,474.0)" width="32" x="2528.0" y="450.0" /><rect fill="#900" height="48" stroke="#900" stroke-width="5" transform="rotate(270,2941.0,289.0)" width="32" x="2925.0" y="265.0" /><rect fill="#900" height="48" stroke="#900" stroke-width="5" transform="rotate(270,2745.0,146.0)" width="32" x="2729.0" y="122.0" /><rect fill="#900" height="48" stroke="#900" stroke-width="5" transform="rotate(270,2502.0,257.0)" width="32" x="2486.0" y="233.0" /><rect fill="#900" height="48" stroke="#900" stroke-width="5" transform="rotate(270,2682.0,390.0)" width="32" x="2666.0" y="366.0" /><rect fill="#900" height="48" stroke="#900" stroke-width="5" transform="rotate(270,2808.0,266.0)" width="32" x="2792.0" y="242.0" /><rect fill="#900" height="48" stroke="#900" stroke-width="5" transform="rotate(270,2595.0,134.0)" width="32" x="2579.0" y="110.0" /><rect fill="#900" height="48" stroke="#900" stroke-width="5" transform="rotate(270,2862.0,161.0)" width="32" x="2846.0" y="137.0" /><rect fill="#900" height="48" stroke="#900" stroke-width="5" transform="rotate(270,2256.0,1552.0)" width="32" x="2240.0" y="1528.0" /><rect fill="#900" height="48" stroke="#900" stroke-width="5" transform="rotate(270,2001.0,1662.0)" width="32" x="1985.0" y="1638.0" /><rect fill="#900" height="48" stroke="#900" stroke-width="5" transform="rotate(270,1866.0,1927.0)" width="32" x="1850.0" y="1903.0" /><rect fill="#900" height="48" stroke="#900" stroke-width="5" transform="rotate(135,2806.0,1677.0)" width="32" x="2790.0" y="1653.0" /><rect fill="#900" height="48" stroke="#900" stroke-width="5" transform="rotate(180,3784.0,1422.0)" width="32" x="3768.0" y="1398.0" /><rect fill="#900" height="48" stroke="#900" stroke-width="5" transform="rotate(0,132.0,1652.0)" width="32" x="116.0" y="1628.0" /><rect fill="#900" height="48" stroke="#900" stroke-width="5" transform="rotate(0,107.0,1299.0)" width="32" x="91.0" y="1275.0" /><rect fill="#900" height="48" stroke="#900" stroke-width="5" transform="rotate(0,622.0,1542.0)" width="32" x="606.0" y="1518.0" /><rect fill="#900" height="48" stroke="#900" stroke-width="5" transform="rotate(0,627.0,1317.0)" width="32" x="611.0" y="1293.0" /><rect fill="#900" height="48" stroke="#900" stroke-width="5" transform="rotate(0,100.0,1452.0)" width="32" x="84.0" y="1428.0" /><rect fill="#900" height="48" stroke="#900" stroke-width="5" transform="rotate(0,294.0,1390.0)" width="32" x="278.0" y="1366.0" /><rect fill="#900" height="48" stroke="#900" stroke-width="5" transform="rotate(0,294.0,1525.0)" width="32" x="278.0" y="1501.0" /><circle cx="3357.0" cy="615.0" fill="#009" r="16" stroke="#009" stroke-width="5" /><circle cx="3807.0" cy="605.0" fill="#009" r="16" stroke="#009" stroke-width="5" /><circle cx="2675.0" cy="36.0" fill="#090" r="16" stroke="#090" stroke-width="5" /><circle cx="2767.0" cy="32.0" fill="#090" r="16" stroke="#090" stroke-width="5" /><circle cx="2873.0" cy="54.0" fill="#090" r="16" stroke="#090" stroke-width="5" /><circle cx="2929.0" cy="92.0" fill="#090" r="16" stroke="#090" stroke-width="5" /><circle cx="2987.0" cy="148.0" fill="#090" r="16" stroke="#090" stroke-width="5" /><circle cx="3027.0" cy="206.0" fill="#090" r="16" stroke="#090" stroke-width="5" /><circle cx="2635.0" cy="256.0" fill="#900" r="16" stroke="#900" stroke-width="5" /><circle cx="2591.0" cy="1356.0" fill="#009" r="16" stroke="#009" stroke-width="5" /><circle cx="2497.0" cy="1442.0" fill="#009" r="16" stroke="#009" stroke-width="5" /><circle cx="2673.0" cy="1446.0" fill="#009" r="16" stroke="#009" stroke-width="5" /><circle cx="2883.0" cy="1446.0" fill="#009" r="16" stroke="#009" stroke-width="5" /><circle cx="2899.0" cy="1250.0" fill="#009" r="16" stroke="#009" stroke-width="5" /><circle cx="2703.0" cy="1262.0" fill="#009" r="16" stroke="#009" stroke-width="5" /><circle cx="2525.0" cy="1264.0" fill="#009" r="16" stroke="#009" stroke-width="5" /><circle cx="2019.0" cy="1316.0" fill="#090" r="16" stroke="#090" stroke-width="5" /><circle cx="2015.0" cy="1256.0" fill="#090" r="16" stroke="#090" stroke-width="5" /><circle cx="1955.0" cy="1256.0" fill="#090" r="16" stroke="#090" stroke-width="5" /><circle cx="1955.0" cy="1312.0" fill="#090" r="16" stroke="#090" stroke-width="5" /><circle cx="199.0" cy="1455.0" fill="#009" r="16" stroke="#009" stroke-width="5" /><circle cx="463.0" cy="1509.0" fill="#009" r="16" stroke="#009" stroke-width="5" /><circle cx="526.0" cy="1509.0" fill="#009" r="16" stroke="#009" stroke-width="5" /><circle cx="671.0" cy="1506.0" fill="#009" r="16" stroke="#009" stroke-width="5" /><circle cx="737.0" cy="1506.0" fill="#009" r="16" stroke="#009" stroke-width="5" /><circle cx="731.0" cy="1386.0" fill="#009" r="16" stroke="#009" stroke-width="5" /><circle cx="671.0" cy="1386.0" fill="#009" r="16" stroke="#009" stroke-width="5" /><circle cx="466.0" cy="1380.0" fill="#009" r="16" stroke="#009" stroke-width="5" /><circle cx="523.0" cy="1380.0" fill="#009" r="16" stroke="#009" stroke-width="5" /><circle cx="265.0" cy="1365.0" fill="#009" r="16" stroke="#009" stroke-width="5" /><circle cx="256.0" cy="1543.0" fill="#009" r="16" stroke="#009" stroke-width="5" /><circle cx="184.0" cy="1612.0" fill="#009" r="16" stroke="#009" stroke-width="5" /><circle cx="181.0" cy="1284.0" fill="#009" r="16" stroke="#009" stroke-width="5" /><circle cx="2679.0" cy="568.0" fill="#009" r="16" stroke="#009" stroke-width="5" /><circle cx="2954.0" cy="458.0" fill="#009" r="16" stroke="#009" stroke-width="5" /><circle cx="3005.0" cy="299.0" fill="#009" r="16" stroke="#009" stroke-width="5" /><circle cx="2553.0" cy="527.0" fill="#009" r="16" stroke="#009" stroke-width="5" /><ellipse cx="3650.0" cy="415.0" fill="#009" rx="12" ry="24" stroke="#009" stroke-width="5" /><ellipse cx="3534.0" cy="415.0" fill="#009" rx="12" ry="24" stroke="#009" stroke-width="5" /><ellipse cx="3586.0" cy="375.0" fill="#009" rx="12" ry="24" stroke="#009" stroke-width="5" /><rect fill="#090" height="24" stroke="#090" stroke-width="5" transform="rotate(90,3750.0,491.0)" width="24" x="3738.0" y="479.0" /><rect fill="#090" height="24" stroke="#090" stroke-width="5" transform="rotate(90,2882.0,559.0)" width="24" x="2870.0" y="547.0" /><rect fill="#090" height="24" stroke="#090" stroke-width="5" transform="rotate(90,3402.0,1415.0)" width="24" x="3390.0" y="1403.0" /><rect fill="#090" height="24" stroke="#090" stroke-width="5" transform="rotate(90,1466.0,1263.0)" width="24" x="1454.0" y="1251.0" /></svg>