<?xml version="1.0" encoding="utf-8" ?>
<svg baseProfile="tiny" height="778" version="1.2" viewBox="0 0 1994 1515" width="1024" xmlns="http://www.w3.org/2000/svg" xmlns:ev="http://www.w3.org/2001/xml-events" xmlns:xlink="http://www.w3.org/1999/xlink"><defs /><line stroke="#333" stroke-width="10" x1="837.0" x2="1157.0" y1="902.0" y2="902.0" /><line stroke="#333" stroke-width="10" x1="1157.0" x2="1157.0" y1="902.0" y2="582.0" /><line stroke="#333" stroke-width="10" x1="1157.0" x2="837.0" y1="582.0" y2="582.0" /><line stroke="#333" stroke-width="10" x1="837.0" x2="837.0" y1="582.0" y2="902.0" /><line stroke="#333" stroke-width="10" x1="485.0" x2="805.0" y1="902.0" y2="902.0" /><line stroke="#333" stroke-width="10" x1="805.0" x2="805.0" y1="902.0" y2="582.0" /><line stroke="#333" stroke-width="10" x1="805.0" x2="485.0" y1="582.0" y2="582.0" /><line stroke="#333" stroke-width="10" x1="485.0" x2="485.0" y1="582.0" y2="902.0" /><line stroke="#333" stroke-width="10" x1="837.0" x2="901.0" y1="1254.0" y2="1254.0" /><line stroke="#333" stroke-width="10" x1="1157.0" x2="1157.0" y1="1254.0" y2="934.0" /><line stroke="#333" stroke-width="10" x1="1157.0" x2="901.0" y1="934.0" y2="934.0" /><line stroke="#333" stroke-width="10" x1="837.0" x2="837.0" y1="934.0" y2="998.0" /><line stroke="#333" stroke-width="10" x1="1509.0" x2="1509.0" y1="902.0" y2="838.0" /><line stroke="#333" stroke-width="10" x1="1509.0" x2="1189.0" y1="582.0" y2="582.0" /><line stroke="#333" stroke-width="10" x1="837.0" x2="1093.0" y1="550.0" y2="550.0" /><line stroke="#333" stroke-width="10" x1="1157.0" x2="1157.0" y1="550.0" y2="486.0" /><line stroke="#333" stroke-width="10" x1="1157.0" x2="1093.0" y1="230.0" y2="230.0" /><line stroke="#333" stroke-width="10" x1="837.0" x2="837.0" y1="230.0" y2="550.0" /><line stroke="#00d" stroke-width="20" x1="1477.0" x2="1413.0" y1="774.0" y2="774.0" /><line stroke="#00d" stroke-width="20" x1="1477.0" x2="1477.0" y1="710.0" y2="774.0" /><line stroke="#00d" stroke-width="20" x1="1413.0" x2="1477.0" y1="710.0" y2="710.0" /><line stroke="#00d" stroke-width="20" x1="1413.0" x2="1413.0" y1="774.0" y2="710.0" /><line stroke="#00d" stroke-width="20" x1="581.0" x2="517.0" y1="774.0" y2="774.0" /><line stroke="#00d" stroke-width="20" x1="581.0" x2="581.0" y1="710.0" y2="774.0" /><line stroke="#00d" stroke-width="20" x1="517.0" x2="581.0" y1="710.0" y2="710.0" /><line stroke="#00d" stroke-width="20" x1="517.0" x2="517.0" y1="774.0" y2="710.0" /><line stroke="#00d" stroke-width="20" x1="965.0" x2="901.0" y1="838.0" y2="838.0" /><line stroke="#00d" stroke-width="20" x1="965.0" x2="965.0" y1="774.0" y2="838.0" /><line stroke="#00d" stroke-width="20" x1="901.0" x2="965.0" y1="774.0" y2="774.0" /><line stroke="#00d" stroke-width="20" x1="901.0" x2="901.0" y1="838.0" y2="774.0" /><line stroke="#00d" stroke-width="20" x1="1093.0" x2="1029.0" y1="838.0" y2="838.0" /><line stroke="#00d" stroke-width="20" x1="1093.0" x2="1093.0" y1="774.0" y2="838.0" /><line stroke="#00d" stroke-width="20" x1="1029.0" x2="1093.0" y1="774.0" y2="774.0" /><line stroke="#00d" stroke-width="20" x1="1029.0" x2="1029.0" y1="838.0" y2="774.0" /><line stroke="#00d" stroke-width="20" x1="965.0" x2="901.0" y1="710.0" y2="710.0" /><line stroke="#00d" stroke-width="20" x1="965.0" x2="965.0" y1="646.0" y2="710.0" /><line stroke="#00d" stroke-width="20" x1="901.0" x2="965.0" y1="646.0" y2="646.0" /><line stroke="#00d" stroke-width="20" x1="901.0" x2="901.0" y1="710.0" y2="646.0" /><line stroke="#00d" stroke-width="20" x1="1093.0" x2="1029.0" y1="710.0" y2="710.0" /><line stroke="#00d" stroke-width="20" x1="1093.0" x2="1093.0" y1="646.0" y2="710.0" /><line stroke="#00d" stroke-width="20" x1="1029.0" x2="1093.0" y1="646.0" y2="646.0" /><line stroke="#00d" stroke-width="20" x1="1029.0" x2="1029.0" y1="710.0" y2="646.0" /><line stroke="#00d" stroke-width="20" x1="1029.0" x2="965.0" y1="326.0" y2="326.0" /><line stroke="#00d" stroke-width="20" x1="1029.0" x2="1029.0" y1="262.0" y2="326.0" /><line stroke="#00d" stroke-width="20" x1="965.0" x2="1029.0" y1="262.0" y2="262.0" /><line stroke="#00d" stroke-width="20" x1="965.0" x2="965.0" y1="326.0" y2="262.0" /><line stroke="#00d" stroke-width="20" x1="1029.0" x2="965.0" y1="1222.0" y2="1222.0" /><line stroke="#00d" stroke-width="20" x1="1029.0" x2="1029.0" y1="1158.0" y2="1222.0" /><line stroke="#00d" stroke-width="20" x1="965.0" x2="1029.0" y1="1158.0" y2="1158.0" /><line stroke="#00d" stroke-width="20" x1="965.0" x2="965.0" y1="1222.0" y2="1158.0" /><line stroke="#00d" stroke-width="20" x1="709.0" x2="773.0" y1="710.0" y2="710.0" /><line stroke="#00d" stroke-width="20" x1="773.0" x2="773.0" y1="710.0" y2="774.0" /><line stroke="#00d" stroke-width="20" x1="773.0" x2="709.0" y1="774.0" y2="774.0" /><line stroke="#00d" stroke-width="20" x1="709.0" x2="709.0" y1="774.0" y2="710.0" /><line stroke="#00d" stroke-width="20" x1="965.0" x2="1029.0" y1="966.0" y2="966.0" /><line stroke="#00d" stroke-width="20" x1="1029.0" x2="1029.0" y1="966.0" y2="1030.0" /><line stroke="#00d" stroke-width="20" x1="1029.0" x2="965.0" y1="1030.0" y2="1030.0" /><line stroke="#00d" stroke-width="20" x1="965.0" x2="965.0" y1="1030.0" y2="966.0" /><line stroke="#00d" stroke-width="20" x1="1221.0" x2="1285.0" y1="710.0" y2="710.0" /><line stroke="#00d" stroke-width="20" x1="1285.0" x2="1285.0" y1="710.0" y2="774.0" /><line stroke="#00d" stroke-width="20" x1="1285.0" x2="1221.0" y1="774.0" y2="774.0" /><line stroke="#00d" stroke-width="20" x1="1221.0" x2="1221.0" y1="774.0" y2="710.0" /><line stroke="#00d" stroke-width="20" x1="965.0" x2="1029.0" y1="454.0" y2="454.0" /><line stroke="#00d" stroke-width="20" x1="1029.0" x2="1029.0" y1="454.0" y2="518.0" /><line stroke="#00d" stroke-width="20" x1="1029.0" x2="965.0" y1="518.0" y2="518.0" /><line stroke="#00d" stroke-width="20" x1="965.0" x2="965.0" y1="518.0" y2="454.0" /><line stroke="#666" stroke-width="20" x1="1829.0" x2="1829.0" y1="550.0" y2="422.0" /><line stroke="#333" stroke-width="10" x1="1189.0" x2="1829.0" y1="550.0" y2="550.0" /><line stroke="#333" stroke-width="10" x1="1189.0" x2="1189.0" y1="6.0" y2="550.0" /><line stroke="#333" stroke-width="10" x1="1829.0" x2="1189.0" y1="6.0" y2="6.0" /><line stroke="#999" stroke-width="3" x1="1221.0" x2="1285.0" y1="454.0" y2="454.0" /><line stroke="#999" stroke-width="3" x1="1285.0" x2="1285.0" y1="454.0" y2="518.0" /><line stroke="#999" stroke-width="3" x1="1285.0" x2="1221.0" y1="518.0" y2="518.0" /><line stroke="#999" stroke-width="3" x1="1221.0" x2="1221.0" y1="518.0" y2="454.0" /><line stroke="#333" stroke-width="10" x1="1861.0" x2="1989.0" y1="550.0" y2="550.0" /><line stroke="#333" stroke-width="10" x1="1989.0" x2="1989.0" y1="550.0" y2="518.0" /><line stroke="#333" stroke-width="10" x1="1989.0" x2="1861.0" y1="422.0" y2="422.0" /><line stroke="#666" stroke-width="20" x1="1861.0" x2="1861.0" y1="422.0" y2="550.0" /><line stroke="#333" stroke-width="10" x1="1829.0" x2="1829.0" y1="422.0" y2="70.0" /><line stroke="#333" stroke-width="10" x1="1861.0" x2="1829.0" y1="422.0" y2="422.0" /><line stroke="#333" stroke-width="10" x1="1829.0" x2="1861.0" y1="550.0" y2="550.0" /><line stroke="#333" stroke-width="10" x1="1861.0" x2="1869.0" y1="70.0" y2="70.0" /><line stroke="#333" stroke-width="10" x1="1925.0" x2="1925.0" y1="70.0" y2="6.0" /><line stroke="#333" stroke-width="10" x1="1925.0" x2="1869.0" y1="6.0" y2="6.0" /><line stroke="#666" stroke-width="20" x1="1861.0" x2="1861.0" y1="6.0" y2="70.0" /><line stroke="#666" stroke-width="20" x1="1829.0" x2="1829.0" y1="70.0" y2="6.0" /><line stroke="#333" stroke-width="10" x1="1829.0" x2="1861.0" y1="70.0" y2="70.0" /><line stroke="#333" stroke-width="10" x1="1861.0" x2="1829.0" y1="6.0" y2="6.0" /><line stroke="#666" stroke-width="20" x1="1989.0" x2="1989.0" y1="518.0" y2="454.0" /><line stroke="#333" stroke-width="10" x1="1989.0" x2="1989.0" y1="454.0" y2="422.0" /><line stroke="#333" stroke-width="10" x1="1869.0" x2="1861.0" y1="6.0" y2="6.0" /><line stroke="#333" stroke-width="10" x1="1869.0" x2="1925.0" y1="70.0" y2="70.0" /><line stroke="#00d" stroke-width="20" x1="1869.0" x2="1869.0" y1="70.0" y2="6.0" /><line stroke="#333" stroke-width="10" x1="1189.0" x2="1829.0" y1="1510.0" y2="1510.0" /><line stroke="#666" stroke-width="20" x1="1829.0" x2="1829.0" y1="1510.0" y2="1382.0" /><line stroke="#333" stroke-width="10" x1="1829.0" x2="1189.0" y1="934.0" y2="934.0" /><line stroke="#333" stroke-width="10" x1="1189.0" x2="1189.0" y1="934.0" y2="1510.0" /><line stroke="#333" stroke-width="10" x1="1861.0" x2="1989.0" y1="1510.0" y2="1510.0" /><line stroke="#333" stroke-width="10" x1="1989.0" x2="1989.0" y1="1510.0" y2="1478.0" /><line stroke="#333" stroke-width="10" x1="1989.0" x2="1861.0" y1="1382.0" y2="1382.0" /><line stroke="#666" stroke-width="20" x1="1861.0" x2="1861.0" y1="1382.0" y2="1510.0" /><line stroke="#333" stroke-width="10" x1="1829.0" x2="1829.0" y1="1382.0" y2="998.0" /><line stroke="#333" stroke-width="10" x1="1861.0" x2="1829.0" y1="1382.0" y2="1382.0" /><line stroke="#333" stroke-width="10" x1="1829.0" x2="1861.0" y1="1510.0" y2="1510.0" /><line stroke="#666" stroke-width="20" x1="1989.0" x2="1989.0" y1="1478.0" y2="1414.0" /><line stroke="#333" stroke-width="10" x1="1989.0" x2="1989.0" y1="1414.0" y2="1382.0" /><line stroke="#333" stroke-width="10" x1="1861.0" x2="1869.0" y1="998.0" y2="998.0" /><line stroke="#333" stroke-width="10" x1="1925.0" x2="1925.0" y1="998.0" y2="934.0" /><line stroke="#333" stroke-width="10" x1="1925.0" x2="1869.0" y1="934.0" y2="934.0" /><line stroke="#666" stroke-width="20" x1="1829.0" x2="1829.0" y1="998.0" y2="934.0" /><line stroke="#333" stroke-width="10" x1="1829.0" x2="1861.0" y1="998.0" y2="998.0" /><line stroke="#333" stroke-width="10" x1="1861.0" x2="1829.0" y1="934.0" y2="934.0" /><line stroke="#999" stroke-width="3" x1="1221.0" x2="1285.0" y1="966.0" y2="966.0" /><line stroke="#999" stroke-width="3" x1="1285.0" x2="1285.0" y1="966.0" y2="1030.0" /><line stroke="#999" stroke-width="3" x1="1285.0" x2="1221.0" y1="1030.0" y2="1030.0" /><line stroke="#999" stroke-width="3" x1="1221.0" x2="1221.0" y1="1030.0" y2="966.0" /><line stroke="#333" stroke-width="10" x1="1869.0" x2="1925.0" y1="998.0" y2="998.0" /><line stroke="#333" stroke-width="10" x1="1869.0" x2="1861.0" y1="934.0" y2="934.0" /><line stroke="#00d" stroke-width="20" x1="1869.0" x2="1869.0" y1="998.0" y2="934.0" /><line stroke="#333" stroke-width="10" x1="165.0" x2="805.0" y1="1510.0" y2="1510.0" /><line stroke="#333" stroke-width="10" x1="805.0" x2="805.0" y1="1510.0" y2="934.0" /><line stroke="#333" stroke-width="10" x1="805.0" x2="165.0" y1="934.0" y2="934.0" /><line stroke="#666" stroke-width="20" x1="165.0" x2="165.0" y1="934.0" y2="998.0" /><line stroke="#999" stroke-width="3" x1="709.0" x2="773.0" y1="966.0" y2="966.0" /><line stroke="#999" stroke-width="3" x1="773.0" x2="773.0" y1="966.0" y2="1030.0" /><line stroke="#999" stroke-width="3" x1="773.0" x2="709.0" y1="1030.0" y2="1030.0" /><line stroke="#999" stroke-width="3" x1="709.0" x2="709.0" y1="1030.0" y2="966.0" /><line stroke="#333" stroke-width="10" x1="5.0" x2="133.0" y1="1510.0" y2="1510.0" /><line stroke="#666" stroke-width="20" x1="133.0" x2="133.0" y1="1510.0" y2="1382.0" /><line stroke="#333" stroke-width="10" x1="133.0" x2="5.0" y1="1382.0" y2="1382.0" /><line stroke="#333" stroke-width="10" x1="5.0" x2="5.0" y1="1382.0" y2="1414.0" /><line stroke="#666" stroke-width="20" x1="165.0" x2="165.0" y1="1382.0" y2="1510.0" /><line stroke="#333" stroke-width="10" x1="165.0" x2="133.0" y1="1382.0" y2="1382.0" /><line stroke="#333" stroke-width="10" x1="133.0" x2="165.0" y1="1510.0" y2="1510.0" /><line stroke="#333" stroke-width="10" x1="5.0" x2="5.0" y1="1478.0" y2="1510.0" /><line stroke="#666" stroke-width="20" x1="5.0" x2="5.0" y1="1414.0" y2="1478.0" /><line stroke="#333" stroke-width="10" x1="69.0" x2="125.0" y1="998.0" y2="998.0" /><line stroke="#666" stroke-width="20" x1="133.0" x2="133.0" y1="998.0" y2="934.0" /><line stroke="#333" stroke-width="10" x1="133.0" x2="125.0" y1="934.0" y2="934.0" /><line stroke="#333" stroke-width="10" x1="69.0" x2="69.0" y1="934.0" y2="998.0" /><line stroke="#333" stroke-width="10" x1="165.0" x2="165.0" y1="998.0" y2="1382.0" /><line stroke="#333" stroke-width="10" x1="133.0" x2="165.0" y1="998.0" y2="998.0" /><line stroke="#333" stroke-width="10" x1="165.0" x2="133.0" y1="934.0" y2="934.0" /><line stroke="#333" stroke-width="10" x1="125.0" x2="133.0" y1="998.0" y2="998.0" /><line stroke="#333" stroke-width="10" x1="125.0" x2="69.0" y1="934.0" y2="934.0" /><line stroke="#00d" stroke-width="20" x1="125.0" x2="125.0" y1="934.0" y2="998.0" /><line stroke="#333" stroke-width="10" x1="485.0" x2="805.0" y1="550.0" y2="550.0" /><line stroke="#333" stroke-width="10" x1="805.0" x2="805.0" y1="550.0" y2="230.0" /><line stroke="#333" stroke-width="10" x1="805.0" x2="485.0" y1="230.0" y2="230.0" /><line stroke="#333" stroke-width="10" x1="485.0" x2="485.0" y1="230.0" y2="454.0" /><line stroke="#00d" stroke-width="20" x1="709.0" x2="773.0" y1="454.0" y2="454.0" /><line stroke="#00d" stroke-width="20" x1="773.0" x2="773.0" y1="454.0" y2="518.0" /><line stroke="#00d" stroke-width="20" x1="773.0" x2="709.0" y1="518.0" y2="518.0" /><line stroke="#00d" stroke-width="20" x1="709.0" x2="709.0" y1="518.0" y2="454.0" /><line stroke="#333" stroke-width="10" x1="325.0" x2="453.0" y1="582.0" y2="582.0" /><line stroke="#333" stroke-width="10" x1="453.0" x2="453.0" y1="582.0" y2="518.0" /><line stroke="#333" stroke-width="10" x1="453.0" x2="325.0" y1="390.0" y2="390.0" /><line stroke="#333" stroke-width="10" x1="325.0" x2="325.0" y1="390.0" y2="454.0" /><line stroke="#666" stroke-width="20" x1="453.0" x2="453.0" y1="518.0" y2="454.0" /><line stroke="#333" stroke-width="10" x1="485.0" x2="485.0" y1="518.0" y2="550.0" /><line stroke="#666" stroke-width="20" x1="485.0" x2="485.0" y1="454.0" y2="518.0" /><line stroke="#333" stroke-width="10" x1="453.0" x2="453.0" y1="454.0" y2="390.0" /><line stroke="#333" stroke-width="10" x1="485.0" x2="453.0" y1="454.0" y2="454.0" /><line stroke="#333" stroke-width="10" x1="453.0" x2="485.0" y1="518.0" y2="518.0" /><line stroke="#333" stroke-width="10" x1="325.0" x2="325.0" y1="518.0" y2="582.0" /><line stroke="#0d0" stroke-width="20" x1="325.0" x2="325.0" y1="454.0" y2="518.0" /><line stroke="#333" stroke-width="10" x1="1541.0" x2="1605.0" y1="902.0" y2="902.0" /><line stroke="#333" stroke-width="10" x1="1989.0" x2="1989.0" y1="902.0" y2="582.0" /><line stroke="#333" stroke-width="10" x1="1989.0" x2="1541.0" y1="582.0" y2="582.0" /><line stroke="#333" stroke-width="10" x1="1541.0" x2="1541.0" y1="582.0" y2="838.0" /><line stroke="#333" stroke-width="10" x1="834.0" x2="1087.0" y1="198.0" y2="198.0" /><line stroke="#333" stroke-width="10" x1="1151.0" x2="1152.0" y1="198.0" y2="134.0" /><line stroke="#333" stroke-width="10" x1="834.0" x2="834.0" y1="6.0" y2="198.0" /><line stroke="#333" stroke-width="10" x1="837.0" x2="1157.0" y1="1510.0" y2="1510.0" /><line stroke="#333" stroke-width="10" x1="1157.0" x2="1157.0" y1="1510.0" y2="1350.0" /><line stroke="#333" stroke-width="10" x1="1157.0" x2="1093.0" y1="1286.0" y2="1286.0" /><line stroke="#333" stroke-width="10" x1="837.0" x2="837.0" y1="1286.0" y2="1350.0" /><line stroke="#333" stroke-width="10" x1="5.0" x2="69.0" y1="902.0" y2="902.0" /><line stroke="#333" stroke-width="10" x1="453.0" x2="453.0" y1="902.0" y2="838.0" /><line stroke="#333" stroke-width="10" x1="453.0" x2="5.0" y1="614.0" y2="614.0" /><line stroke="#333" stroke-width="10" x1="5.0" x2="5.0" y1="614.0" y2="838.0" /><line stroke="#333" stroke-width="10" x1="773.0" x2="709.0" y1="6.0" y2="6.0" /><line stroke="#333" stroke-width="10" x1="773.0" x2="773.0" y1="198.0" y2="134.0" /><line stroke="#333" stroke-width="10" x1="453.0" x2="709.0" y1="198.0" y2="198.0" /><line stroke="#333" stroke-width="10" x1="261.0" x2="261.0" y1="582.0" y2="518.0" /><line stroke="#333" stroke-width="10" x1="5.0" x2="69.0" y1="582.0" y2="582.0" /><line stroke="#333" stroke-width="10" x1="5.0" x2="5.0" y1="6.0" y2="70.0" /><line stroke="#333" stroke-width="10" x1="453.0" x2="453.0" y1="326.0" y2="262.0" /><line stroke="#333" stroke-width="10" x1="261.0" x2="389.0" y1="326.0" y2="326.0" /><line stroke="#333" stroke-width="10" x1="389.0" x2="453.0" y1="326.0" y2="326.0" /><line stroke="#00d" stroke-width="20" x1="389.0" x2="389.0" y1="326.0" y2="262.0" /><line stroke="#333" stroke-width="10" x1="453.0" x2="453.0" y1="262.0" y2="198.0" /><line stroke="#00d" stroke-width="20" x1="389.0" x2="453.0" y1="262.0" y2="262.0" /><line stroke="#333" stroke-width="10" x1="5.0" x2="133.0" y1="1350.0" y2="1350.0" /><line stroke="#333" stroke-width="10" x1="133.0" x2="133.0" y1="1350.0" y2="1286.0" /><line stroke="#333" stroke-width="10" x1="133.0" x2="5.0" y1="1030.0" y2="1030.0" /><line stroke="#333" stroke-width="10" x1="5.0" x2="5.0" y1="1030.0" y2="1094.0" /><line stroke="#333" stroke-width="10" x1="1861.0" x2="1989.0" y1="1350.0" y2="1350.0" /><line stroke="#333" stroke-width="10" x1="1989.0" x2="1989.0" y1="1350.0" y2="1286.0" /><line stroke="#333" stroke-width="10" x1="1989.0" x2="1861.0" y1="1030.0" y2="1030.0" /><line stroke="#333" stroke-width="10" x1="1861.0" x2="1861.0" y1="1030.0" y2="1094.0" /><line stroke="#333" stroke-width="10" x1="1861.0" x2="1989.0" y1="390.0" y2="390.0" /><line stroke="#333" stroke-width="10" x1="1989.0" x2="1989.0" y1="390.0" y2="326.0" /><line stroke="#333" stroke-width="10" x1="1989.0" x2="1861.0" y1="134.0" y2="134.0" /><line stroke="#333" stroke-width="10" x1="1861.0" x2="1861.0" y1="134.0" y2="198.0" /><line stroke="#333" stroke-width="10" x1="5.0" x2="5.0" y1="518.0" y2="582.0" /><line stroke="#333" stroke-width="10" x1="261.0" x2="261.0" y1="518.0" y2="326.0" /><line stroke="#999" stroke-width="3" x1="197.0" x2="261.0" y1="518.0" y2="518.0" /><line stroke="#00d" stroke-width="20" x1="5.0" x2="69.0" y1="518.0" y2="518.0" /><line stroke="#333" stroke-width="10" x1="69.0" x2="197.0" y1="582.0" y2="582.0" /><line stroke="#00d" stroke-width="20" x1="69.0" x2="69.0" y1="518.0" y2="582.0" /><line stroke="#333" stroke-width="10" x1="197.0" x2="261.0" y1="582.0" y2="582.0" /><line stroke="#999" stroke-width="3" x1="197.0" x2="197.0" y1="582.0" y2="518.0" /><line stroke="#333" stroke-width="10" x1="5.0" x2="5.0" y1="70.0" y2="518.0" /><line stroke="#333" stroke-width="10" x1="773.0" x2="773.0" y1="70.0" y2="6.0" /><line stroke="#999" stroke-width="3" x1="773.0" x2="709.0" y1="70.0" y2="70.0" /><line stroke="#00d" stroke-width="20" x1="69.0" x2="5.0" y1="70.0" y2="70.0" /><line stroke="#333" stroke-width="10" x1="69.0" x2="5.0" y1="6.0" y2="6.0" /><line stroke="#00d" stroke-width="20" x1="69.0" x2="69.0" y1="6.0" y2="70.0" /><line stroke="#333" stroke-width="10" x1="709.0" x2="69.0" y1="6.0" y2="6.0" /><line stroke="#999" stroke-width="3" x1="709.0" x2="709.0" y1="70.0" y2="6.0" /><line stroke="#333" stroke-width="10" x1="709.0" x2="773.0" y1="198.0" y2="198.0" /><line stroke="#333" stroke-width="10" x1="773.0" x2="773.0" y1="134.0" y2="70.0" /><line stroke="#999" stroke-width="3" x1="709.0" x2="709.0" y1="198.0" y2="134.0" /><line stroke="#999" stroke-width="3" x1="709.0" x2="773.0" y1="134.0" y2="134.0" /><line stroke="#333" stroke-width="10" x1="901.0" x2="837.0" y1="934.0" y2="934.0" /><line stroke="#333" stroke-width="10" x1="901.0" x2="1157.0" y1="1254.0" y2="1254.0" /><line stroke="#00d" stroke-width="20" x1="901.0" x2="901.0" y1="934.0" y2="998.0" /><line stroke="#333" stroke-width="10" x1="837.0" x2="837.0" y1="998.0" y2="1254.0" /><line stroke="#00d" stroke-width="20" x1="901.0" x2="837.0" y1="998.0" y2="998.0" /><line stroke="#333" stroke-width="10" x1="1157.0" x2="1157.0" y1="1350.0" y2="1286.0" /><line stroke="#333" stroke-width="10" x1="837.0" x2="837.0" y1="1350.0" y2="1510.0" /><line stroke="#333" stroke-width="10" x1="1093.0" x2="837.0" y1="1286.0" y2="1286.0" /><line stroke="#00d" stroke-width="20" x1="1157.0" x2="1093.0" y1="1350.0" y2="1350.0" /><line stroke="#00d" stroke-width="20" x1="1093.0" x2="1093.0" y1="1350.0" y2="1286.0" /><line stroke="#333" stroke-width="10" x1="1189.0" x2="1189.0" y1="582.0" y2="838.0" /><line stroke="#333" stroke-width="10" x1="1189.0" x2="1253.0" y1="902.0" y2="902.0" /><line stroke="#333" stroke-width="10" x1="1509.0" x2="1509.0" y1="838.0" y2="582.0" /><line stroke="#333" stroke-width="10" x1="1189.0" x2="1189.0" y1="838.0" y2="902.0" /><line stroke="#00d" stroke-width="20" x1="1189.0" x2="1253.0" y1="838.0" y2="838.0" /><line stroke="#333" stroke-width="10" x1="1253.0" x2="1509.0" y1="902.0" y2="902.0" /><line stroke="#00d" stroke-width="20" x1="1253.0" x2="1253.0" y1="838.0" y2="902.0" /><line stroke="#333" stroke-width="10" x1="1605.0" x2="1989.0" y1="902.0" y2="902.0" /><line stroke="#00d" stroke-width="20" x1="1605.0" x2="1605.0" y1="838.0" y2="902.0" /><line stroke="#333" stroke-width="10" x1="1541.0" x2="1541.0" y1="838.0" y2="902.0" /><line stroke="#00d" stroke-width="20" x1="1541.0" x2="1605.0" y1="838.0" y2="838.0" /><line stroke="#333" stroke-width="10" x1="1093.0" x2="1157.0" y1="550.0" y2="550.0" /><line stroke="#333" stroke-width="10" x1="1093.0" x2="837.0" y1="230.0" y2="230.0" /><line stroke="#00d" stroke-width="20" x1="1093.0" x2="1093.0" y1="550.0" y2="486.0" /><line stroke="#333" stroke-width="10" x1="1157.0" x2="1157.0" y1="486.0" y2="230.0" /><line stroke="#00d" stroke-width="20" x1="1093.0" x2="1157.0" y1="486.0" y2="486.0" /><line stroke="#333" stroke-width="10" x1="1087.0" x2="1151.0" y1="198.0" y2="198.0" /><line stroke="#333" stroke-width="10" x1="1152.0" x2="834.0" y1="5.0" y2="6.0" /><line stroke="#333" stroke-width="10" x1="1152.0" x2="1152.0" y1="134.0" y2="5.0" /><line stroke="#00d" stroke-width="20" x1="1087.0" x2="1087.0" y1="198.0" y2="134.0" /><line stroke="#00d" stroke-width="20" x1="1087.0" x2="1152.0" y1="134.0" y2="134.0" /><line stroke="#666" stroke-width="20" x1="1861.0" x2="1861.0" y1="934.0" y2="998.0" /><line stroke="#333" stroke-width="10" x1="5.0" x2="5.0" y1="1094.0" y2="1286.0" /><line stroke="#333" stroke-width="10" x1="133.0" x2="133.0" y1="1094.0" y2="1030.0" /><line stroke="#00d" stroke-width="20" x1="133.0" x2="5.0" y1="1094.0" y2="1094.0" /><line stroke="#333" stroke-width="10" x1="5.0" x2="5.0" y1="1286.0" y2="1350.0" /><line stroke="#333" stroke-width="10" x1="133.0" x2="133.0" y1="1286.0" y2="1094.0" /><line stroke="#00d" stroke-width="20" x1="5.0" x2="133.0" y1="1286.0" y2="1286.0" /><line stroke="#333" stroke-width="10" x1="1861.0" x2="1861.0" y1="1286.0" y2="1350.0" /><line stroke="#333" stroke-width="10" x1="1989.0" x2="1989.0" y1="1286.0" y2="1094.0" /><line stroke="#00d" stroke-width="20" x1="1861.0" x2="1989.0" y1="1286.0" y2="1286.0" /><line stroke="#333" stroke-width="10" x1="1861.0" x2="1861.0" y1="1094.0" y2="1286.0" /><line stroke="#333" stroke-width="10" x1="1989.0" x2="1989.0" y1="1094.0" y2="1030.0" /><line stroke="#00d" stroke-width="20" x1="1989.0" x2="1861.0" y1="1094.0" y2="1094.0" /><line stroke="#333" stroke-width="10" x1="1861.0" x2="1861.0" y1="326.0" y2="390.0" /><line stroke="#333" stroke-width="10" x1="1989.0" x2="1989.0" y1="326.0" y2="198.0" /><line stroke="#00d" stroke-width="20" x1="1861.0" x2="1989.0" y1="326.0" y2="326.0" /><line stroke="#333" stroke-width="10" x1="1861.0" x2="1861.0" y1="198.0" y2="326.0" /><line stroke="#333" stroke-width="10" x1="1989.0" x2="1989.0" y1="198.0" y2="134.0" /><line stroke="#00d" stroke-width="20" x1="1989.0" x2="1861.0" y1="198.0" y2="198.0" /><line stroke="#333" stroke-width="10" x1="5.0" x2="5.0" y1="838.0" y2="902.0" /><line stroke="#333" stroke-width="10" x1="453.0" x2="453.0" y1="838.0" y2="614.0" /><line stroke="#00d" stroke-width="20" x1="5.0" x2="69.0" y1="838.0" y2="838.0" /><line stroke="#333" stroke-width="10" x1="69.0" x2="453.0" y1="902.0" y2="902.0" /><line stroke="#00d" stroke-width="20" x1="69.0" x2="69.0" y1="838.0" y2="902.0" /><rect fill="#009" height="24" stroke="#009" stroke-width="5" transform="rotate(270,997.0,1190.0)" width="24" x="985.0" y="1178.0" /><rect fill="#009" height="24" stroke="#009" stroke-width="5" transform="rotate(315,933.0,806.0)" width="24" x="921.0" y="794.0" /><ellipse cx="997.0" cy="742.0" fill="#009" rx="12" ry="24" stroke="#009" stroke-width="5" /><rect fill="#009" height="24" stroke="#009" stroke-width="5" transform="rotate(225,1061.0,806.0)" width="24" x="1049.0" y="794.0" /><rect fill="#009" height="24" stroke="#009" stroke-width="5" transform="rotate(180,1445.0,742.0)" width="24" x="1433.0" y="730.0" /><rect fill="#009" height="24" stroke="#009" stroke-width="5" transform="rotate(135,1061.0,678.0)" width="24" x="1049.0" y="666.0" /><rect fill="#009" height="24" stroke="#009" stroke-width="5" transform="rotate(90,997.0,294.0)" width="24" x="985.0" y="282.0" /><rect fill="#009" height="24" stroke="#009" stroke-width="5" transform="rotate(45,933.0,678.0)" width="24" x="921.0" y="666.0" /><rect fill="#009" height="24" stroke="#009" stroke-width="5" transform="rotate(0,549.0,742.0)" width="24" x="537.0" y="730.0" /><rect fill="#009" height="24" stroke="#009" stroke-width="5" transform="rotate(315,1253.0,486.0)" width="24" x="1241.0" y="474.0" /><rect fill="#009" height="24" stroke="#009" stroke-width="5" transform="rotate(270,996.0,743.0)" width="24" x="984.0" y="731.0" /><rect fill="#009" height="24" stroke="#009" stroke-width="5" transform="rotate(45,1253.0,998.0)" width="24" x="1241.0" y="986.0" /><rect fill="#009" height="24" stroke="#009" stroke-width="5" transform="rotate(135,741.0,998.0)" width="24" x="729.0" y="986.0" /><rect fill="#009" height="24" stroke="#009" stroke-width="5" transform="rotate(225,741.0,486.0)" width="24" x="729.0" y="474.0" /><rect fill="#009" height="24" stroke="#009" stroke-width="5" transform="rotate(180,741.0,742.0)" width="24" x="729.0" y="730.0" /><rect fill="#900" height="48" stroke="#900" stroke-width="5" transform="rotate(270,224.0,1447.0)" width="32" x="208.0" y="1423.0" /><rect fill="#900" height="48" stroke="#900" stroke-width="5" transform="rotate(270,561.0,1422.0)" width="32" x="545.0" y="1398.0" /><rect fill="#900" height="48" stroke="#900" stroke-width="5" transform="rotate(270,395.0,1436.0)" width="32" x="379.0" y="1412.0" /><rect fill="#900" height="48" stroke="#900" stroke-width="5" transform="rotate(270,731.0,1352.0)" width="32" x="715.0" y="1328.0" /><rect fill="#900" height="48" stroke="#900" stroke-width="5" transform="rotate(270,227.0,974.0)" width="32" x="211.0" y="950.0" /><rect fill="#900" height="48" stroke="#900" stroke-width="5" transform="rotate(270,645.0,1422.0)" width="32" x="629.0" y="1398.0" /><rect fill="#900" height="48" stroke="#900" stroke-width="5" transform="rotate(270,477.0,1422.0)" width="32" x="461.0" y="1398.0" /><rect fill="#900" height="48" stroke="#900" stroke-width="5" transform="rotate(270,645.0,1338.0)" width="32" x="629.0" y="1314.0" /><rect fill="#900" height="48" stroke="#900" stroke-width="5" transform="rotate(270,731.0,1436.0)" width="32" x="715.0" y="1412.0" /><rect fill="#900" height="48" stroke="#900" stroke-width="5" transform="rotate(270,311.0,1355.0)" width="32" x="295.0" y="1331.0" /><rect fill="#900" height="48" stroke="#900" stroke-width="5" transform="rotate(270,395.0,1352.0)" width="32" x="379.0" y="1328.0" /><rect fill="#900" height="48" stroke="#900" stroke-width="5" transform="rotate(270,227.0,1355.0)" width="32" x="211.0" y="1331.0" /><rect fill="#900" height="48" stroke="#900" stroke-width="5" transform="rotate(270,561.0,1338.0)" width="32" x="545.0" y="1314.0" /><rect fill="#900" height="48" stroke="#900" stroke-width="5" transform="rotate(270,477.0,1338.0)" width="32" x="461.0" y="1314.0" /><rect fill="#900" height="48" stroke="#900" stroke-width="5" transform="rotate(270,311.0,1439.0)" width="32" x="295.0" y="1415.0" /><rect fill="#900" height="48" stroke="#900" stroke-width="5" transform="rotate(270,1437.0,1366.0)" width="32" x="1421.0" y="1342.0" /><rect fill="#900" height="48" stroke="#900" stroke-width="5" transform="rotate(270,1695.0,1373.0)" width="32" x="1679.0" y="1349.0" /><rect fill="#900" height="48" stroke="#900" stroke-width="5" transform="rotate(270,1695.0,1109.0)" width="32" x="1679.0" y="1085.0" /><rect fill="#900" height="48" stroke="#900" stroke-width="5" transform="rotate(270,1434.0,1112.0)" width="32" x="1418.0" y="1088.0" /><rect fill="#900" height="48" stroke="#900" stroke-width="5" transform="rotate(270,1789.0,510.0)" width="32" x="1773.0" y="486.0" /><rect fill="#900" height="48" stroke="#900" stroke-width="5" transform="rotate(270,1741.0,318.0)" width="32" x="1725.0" y="294.0" /><rect fill="#900" height="48" stroke="#900" stroke-width="5" transform="rotate(270,1459.0,332.0)" width="32" x="1443.0" y="308.0" /><rect fill="#900" height="48" stroke="#900" stroke-width="5" transform="rotate(270,1629.0,426.0)" width="32" x="1613.0" y="402.0" /><rect fill="#900" height="48" stroke="#900" stroke-width="5" transform="rotate(270,1657.0,174.0)" width="32" x="1641.0" y="150.0" /><rect fill="#900" height="48" stroke="#900" stroke-width="5" transform="rotate(270,1321.0,114.0)" width="32" x="1305.0" y="90.0" /><rect fill="#900" height="48" stroke="#900" stroke-width="5" transform="rotate(270,1313.0,326.0)" width="32" x="1297.0" y="302.0" /><rect fill="#900" height="48" stroke="#900" stroke-width="5" transform="rotate(270,1485.0,446.0)" width="32" x="1469.0" y="422.0" /><rect fill="#900" height="48" stroke="#900" stroke-width="5" transform="rotate(270,1601.0,302.0)" width="32" x="1585.0" y="278.0" /><rect fill="#900" height="48" stroke="#900" stroke-width="5" transform="rotate(270,1637.0,262.0)" width="32" x="1621.0" y="238.0" /><rect fill="#900" height="48" stroke="#900" stroke-width="5" transform="rotate(270,1510.0,149.0)" width="32" x="1494.0" y="125.0" /><rect fill="#900" height="48" stroke="#900" stroke-width="5" transform="rotate(270,1684.0,71.0)" width="32" x="1668.0" y="47.0" /><rect fill="#900" height="48" stroke="#900" stroke-width="5" transform="rotate(270,1789.0,182.0)" width="32" x="1773.0" y="158.0" /><rect fill="#900" height="48" stroke="#900" stroke-width="5" transform="rotate(270,1366.0,191.0)" width="32" x="1350.0" y="167.0" /><rect fill="#900" height="48" stroke="#900" stroke-width="5" transform="rotate(270,1513.0,221.0)" width="32" x="1497.0" y="197.0" /><rect fill="#900" height="48" stroke="#900" stroke-width="5" transform="rotate(270,1234.0,254.0)" width="32" x="1218.0" y="230.0" /><rect fill="#900" height="48" stroke="#900" stroke-width="5" transform="rotate(270,1357.0,461.0)" width="32" x="1341.0" y="437.0" /><rect fill="#900" height="48" stroke="#900" stroke-width="5" transform="rotate(270,1390.0,305.0)" width="32" x="1374.0" y="281.0" /><rect fill="#900" height="48" stroke="#900" stroke-width="5" transform="rotate(270,1417.0,392.0)" width="32" x="1401.0" y="368.0" /><rect fill="#900" height="48" stroke="#900" stroke-width="5" transform="rotate(270,1489.0,395.0)" width="32" x="1473.0" y="371.0" /><rect fill="#900" height="48" stroke="#900" stroke-width="5" transform="rotate(270,1579.0,374.0)" width="32" x="1563.0" y="350.0" /><rect fill="#900" height="48" stroke="#900" stroke-width="5" transform="rotate(270,1696.0,377.0)" width="32" x="1680.0" y="353.0" /><rect fill="#900" height="48" stroke="#900" stroke-width="5" transform="rotate(270,1684.0,251.0)" width="32" x="1668.0" y="227.0" /><rect fill="#900" height="48" stroke="#900" stroke-width="5" transform="rotate(270,1579.0,233.0)" width="32" x="1563.0" y="209.0" /><rect fill="#900" height="48" stroke="#900" stroke-width="5" transform="rotate(270,1564.0,62.0)" width="32" x="1548.0" y="38.0" /><rect fill="#900" height="48" stroke="#900" stroke-width="5" transform="rotate(270,1396.0,92.0)" width="32" x="1380.0" y="68.0" /><rect fill="#900" height="48" stroke="#900" stroke-width="5" transform="rotate(270,1417.0,185.0)" width="32" x="1401.0" y="161.0" /><rect fill="#900" height="48" stroke="#900" stroke-width="5" transform="rotate(270,1468.0,65.0)" width="32" x="1452.0" y="41.0" /><rect fill="#900" height="48" stroke="#900" stroke-width="5" transform="rotate(270,1264.0,62.0)" width="32" x="1248.0" y="38.0" /><rect fill="#900" height="48" stroke="#900" stroke-width="5" transform="rotate(270,1255.0,173.0)" width="32" x="1239.0" y="149.0" /><rect fill="#900" height="48" stroke="#900" stroke-width="5" transform="rotate(270,1306.0,227.0)" width="32" x="1290.0" y="203.0" /><rect fill="#900" height="48" stroke="#900" stroke-width="5" transform="rotate(270,1225.0,353.0)" width="32" x="1209.0" y="329.0" /><rect fill="#900" height="48" stroke="#900" stroke-width="5" transform="rotate(270,1300.0,386.0)" width="32" x="1284.0" y="362.0" /><rect fill="#900" height="48" stroke="#900" stroke-width="5" transform="rotate(270,1411.0,500.0)" width="32" x="1395.0" y="476.0" /><rect fill="#900" height="48" stroke="#900" stroke-width="5" transform="rotate(270,1696.0,497.0)" width="32" x="1680.0" y="473.0" /><rect fill="#900" height="48" stroke="#900" stroke-width="5" transform="rotate(270,1576.0,503.0)" width="32" x="1560.0" y="479.0" /><rect fill="#900" height="48" stroke="#900" stroke-width="5" transform="rotate(270,1756.0,437.0)" width="32" x="1740.0" y="413.0" /><rect fill="#900" height="48" stroke="#900" stroke-width="5" transform="rotate(270,1765.0,83.0)" width="32" x="1749.0" y="59.0" /><rect fill="#900" height="48" stroke="#900" stroke-width="5" transform="rotate(270,1600.0,128.0)" width="32" x="1584.0" y="104.0" /><rect fill="#900" height="48" stroke="#900" stroke-width="5" transform="rotate(270,1336.0,41.0)" width="32" x="1320.0" y="17.0" /><rect fill="#900" height="48" stroke="#900" stroke-width="5" transform="rotate(270,1387.0,47.0)" width="32" x="1371.0" y="23.0" /><rect fill="#900" height="48" stroke="#900" stroke-width="5" transform="rotate(270,1239.0,119.0)" width="32" x="1223.0" y="95.0" /><rect fill="#900" height="48" stroke="#900" stroke-width="5" transform="rotate(270,1447.0,242.0)" width="32" x="1431.0" y="218.0" /><rect fill="#900" height="48" stroke="#900" stroke-width="5" transform="rotate(270,1528.0,299.0)" width="32" x="1512.0" y="275.0" /><rect fill="#009" height="24" stroke="#009" stroke-width="5" transform="rotate(90,869.0,966.0)" width="24" x="857.0" y="954.0" /><rect fill="#009" height="24" stroke="#009" stroke-width="5" transform="rotate(90,1125.0,1318.0)" width="24" x="1113.0" y="1306.0" /><rect fill="#009" height="24" stroke="#009" stroke-width="5" transform="rotate(315,1221.0,870.0)" width="24" x="1209.0" y="858.0" /><rect fill="#009" height="24" stroke="#009" stroke-width="5" transform="rotate(315,1573.0,870.0)" width="24" x="1561.0" y="858.0" /><rect fill="#009" height="24" stroke="#009" stroke-width="5" transform="rotate(225,1125.0,518.0)" width="24" x="1113.0" y="506.0" /><rect fill="#009" height="24" stroke="#009" stroke-width="5" transform="rotate(225,1125.0,166.0)" width="24" x="1113.0" y="154.0" /><rect fill="#009" height="24" stroke="#009" stroke-width="5" transform="rotate(225,421.0,294.0)" width="24" x="409.0" y="282.0" /><rect fill="#009" height="24" stroke="#009" stroke-width="5" transform="rotate(90,69.0,1062.0)" width="24" x="57.0" y="1050.0" /><rect fill="#009" height="24" stroke="#009" stroke-width="5" transform="rotate(90,1925.0,1062.0)" width="24" x="1913.0" y="1050.0" /><rect fill="#009" height="24" stroke="#009" stroke-width="5" transform="rotate(90,1925.0,166.0)" width="24" x="1913.0" y="154.0" /><rect fill="#009" height="24" stroke="#009" stroke-width="5" transform="rotate(270,1925.0,358.0)" width="24" x="1913.0" y="346.0" /><rect fill="#009" height="24" stroke="#009" stroke-width="5" transform="rotate(270,1925.0,1318.0)" width="24" x="1913.0" y="1306.0" /><rect fill="#009" height="24" stroke="#009" stroke-width="5" transform="rotate(270,69.0,1318.0)" width="24" x="57.0" y="1306.0" /><rect fill="#009" height="24" stroke="#009" stroke-width="5" transform="rotate(45,37.0,38.0)" width="24" x="25.0" y="26.0" /><rect fill="#009" height="24" stroke="#009" stroke-width="5" transform="rotate(315,37.0,870.0)" width="24" x="25.0" y="858.0" /><rect fill="#009" height="24" stroke="#009" stroke-width="5" transform="rotate(315,37.0,550.0)" width="24" x="25.0" y="538.0" /><rect fill="#900" height="48" stroke="#900" stroke-width="5" transform="rotate(270,317.0,1169.0)" width="32" x="301.0" y="1145.0" /><rect fill="#900" height="48" stroke="#900" stroke-width="5" transform="rotate(270,657.0,1184.0)" width="32" x="641.0" y="1160.0" /><rect fill="#900" height="48" stroke="#900" stroke-width="5" transform="rotate(270,1244.0,1166.0)" width="32" x="1228.0" y="1142.0" /><rect fill="#900" height="48" stroke="#900" stroke-width="5" transform="rotate(270,1560.0,1235.0)" width="32" x="1544.0" y="1211.0" /><rect fill="#900" height="48" stroke="#900" stroke-width="5" transform="rotate(270,1250.0,1442.0)" width="32" x="1234.0" y="1418.0" /><rect fill="#900" height="48" stroke="#900" stroke-width="5" transform="rotate(270,1256.0,1289.0)" width="32" x="1240.0" y="1265.0" /><circle cx="39.0" cy="647.0" fill="#009" r="16" stroke="#009" stroke-width="5" /><ellipse cx="990.0" cy="98.0" fill="#009" rx="12" ry="24" stroke="#009" stroke-width="5" /><ellipse cx="1749.0" cy="743.0" fill="#009" rx="12" ry="24" stroke="#009" stroke-width="5" /><ellipse cx="978.0" cy="1400.0" fill="#009" rx="12" ry="24" stroke="#009" stroke-width="5" /><circle cx="393.0" cy="851.0" fill="#009" r="16" stroke="#009" stroke-width="5" /><circle cx="402.0" cy="665.0" fill="#009" r="16" stroke="#009" stroke-width="5" /><circle cx="141.0" cy="851.0" fill="#009" r="16" stroke="#009" stroke-width="5" /><circle cx="270.0" cy="728.0" fill="#009" r="16" stroke="#009" stroke-width="5" /><circle cx="897.0" cy="143.0" fill="#900" r="16" stroke="#900" stroke-width="5" /><circle cx="897.0" cy="59.0" fill="#900" r="16" stroke="#900" stroke-width="5" /><circle cx="1116.0" cy="53.0" fill="#090" r="16" stroke="#090" stroke-width="5" /><circle cx="1035.0" cy="155.0" fill="#090" r="16" stroke="#090" stroke-width="5" /><circle cx="1017.0" cy="50.0" fill="#090" r="16" stroke="#090" stroke-width="5" /><circle cx="1059.0" cy="98.0" fill="#009" r="16" stroke="#009" stroke-width="5" /><circle cx="1575.0" cy="611.0" fill="#009" r="16" stroke="#009" stroke-width="5" /><circle cx="1944.0" cy="635.0" fill="#900" r="16" stroke="#900" stroke-width="5" /><circle cx="1923.0" cy="848.0" fill="#090" r="16" stroke="#090" stroke-width="5" /><circle cx="1701.0" cy="854.0" fill="#090" r="16" stroke="#090" stroke-width="5" /><circle cx="1833.0" cy="671.0" fill="#090" r="16" stroke="#090" stroke-width="5" /><circle cx="1902.0" cy="749.0" fill="#090" r="16" stroke="#090" stroke-width="5" /><circle cx="1608.0" cy="725.0" fill="#090" r="16" stroke="#090" stroke-width="5" /><circle cx="1698.0" cy="644.0" fill="#090" r="16" stroke="#090" stroke-width="5" /><circle cx="1770.0" cy="638.0" fill="#090" r="16" stroke="#090" stroke-width="5" /><circle cx="1812.0" cy="806.0" fill="#090" r="16" stroke="#090" stroke-width="5" /><circle cx="1872.0" cy="803.0" fill="#090" r="16" stroke="#090" stroke-width="5" /><circle cx="1686.0" cy="764.0" fill="#090" r="16" stroke="#090" stroke-width="5" /><circle cx="960.0" cy="161.0" fill="#090" r="16" stroke="#090" stroke-width="5" /><circle cx="945.0" cy="50.0" fill="#090" r="16" stroke="#090" stroke-width="5" /><circle cx="1122.0" cy="1433.0" fill="#009" r="16" stroke="#009" stroke-width="5" /><circle cx="882.0" cy="1460.0" fill="#009" r="16" stroke="#009" stroke-width="5" /><circle cx="1017.0" cy="1454.0" fill="#009" r="16" stroke="#009" stroke-width="5" /><circle cx="1350.0" cy="668.0" fill="#900" r="16" stroke="#900" stroke-width="5" /><circle cx="1347.0" cy="827.0" fill="#090" r="16" stroke="#090" stroke-width="5" /><circle cx="1419.0" cy="833.0" fill="#090" r="16" stroke="#090" stroke-width="5" /><circle cx="1299.0" cy="869.0" fill="#090" r="16" stroke="#090" stroke-width="5" /><circle cx="1356.0" cy="734.0" fill="#090" r="16" stroke="#090" stroke-width="5" /><circle cx="1425.0" cy="656.0" fill="#090" r="16" stroke="#090" stroke-width="5" /><circle cx="1287.0" cy="632.0" fill="#090" r="16" stroke="#090" stroke-width="5" /><circle cx="1227.0" cy="674.0" fill="#090" r="16" stroke="#090" stroke-width="5" /><circle cx="1290.0" cy="680.0" fill="#090" r="16" stroke="#090" stroke-width="5" /><circle cx="1464.0" cy="845.0" fill="#090" r="16" stroke="#090" stroke-width="5" /><circle cx="894.0" cy="1091.0" fill="#090" r="16" stroke="#090" stroke-width="5" /><circle cx="1113.0" cy="1166.0" fill="#090" r="16" stroke="#090" stroke-width="5" /><circle cx="1113.0" cy="1046.0" fill="#090" r="16" stroke="#090" stroke-width="5" /><circle cx="909.0" cy="1187.0" fill="#090" r="16" stroke="#090" stroke-width="5" /><circle cx="1005.0" cy="1097.0" fill="#090" r="16" stroke="#090" stroke-width="5" /><circle cx="1080.0" cy="1004.0" fill="#090" r="16" stroke="#090" stroke-width="5" /><circle cx="921.0" cy="1025.0" fill="#090" r="16" stroke="#090" stroke-width="5" /><circle cx="1089.0" cy="422.0" fill="#090" r="16" stroke="#090" stroke-width="5" /><circle cx="1089.0" cy="305.0" fill="#090" r="16" stroke="#090" stroke-width="5" /><circle cx="1023.0" cy="398.0" fill="#090" r="16" stroke="#090" stroke-width="5" /><circle cx="891.0" cy="497.0" fill="#090" r="16" stroke="#090" stroke-width="5" /><circle cx="900.0" cy="401.0" fill="#090" r="16" stroke="#090" stroke-width="5" /><circle cx="897.0" cy="317.0" fill="#090" r="16" stroke="#090" stroke-width="5" /></svg>