<?xml version="1.0" encoding="utf-8" ?>
<svg baseProfile="tiny" height="604" version="1.2" viewBox="0 0 9994 5898" width="1024" xmlns="http://www.w3.org/2000/svg" xmlns:ev="http://www.w3.org/2001/xml-events" xmlns:xlink="http://www.w3.org/1999/xlink"><defs /><line stroke="#333" stroke-width="10" x1="2309.0" x2="5.0" y1="2053.0" y2="517.0" /><line stroke="#333" stroke-width="10" x1="2309.0" x2="2309.0" y1="5637.0" y2="2053.0" /><line stroke="#0d0" stroke-width="20" x1="2053.0" x2="2309.0" y1="5893.0" y2="5637.0" /><line stroke="#333" stroke-width="10" x1="4869.0" x2="3973.0" y1="2053.0" y2="1413.0" /><line stroke="#333" stroke-width="10" x1="4869.0" x2="4869.0" y1="5637.0" y2="2053.0" /><line stroke="#0d0" stroke-width="20" x1="4613.0" x2="4869.0" y1="5893.0" y2="5637.0" /><line stroke="#333" stroke-width="10" x1="2821.0" x2="4613.0" y1="5893.0" y2="5893.0" /><line stroke="#0d0" stroke-width="20" x1="2565.0" x2="2821.0" y1="5637.0" y2="5893.0" /><line stroke="#333" stroke-width="10" x1="2565.0" x2="2565.0" y1="2053.0" y2="5637.0" /><line stroke="#333" stroke-width="10" x1="3973.0" x2="2565.0" y1="1413.0" y2="2053.0" /><line stroke="#333" stroke-width="10" x1="6021.0" x2="5125.0" y1="1413.0" y2="2053.0" /><line stroke="#333" stroke-width="10" x1="7429.0" x2="6021.0" y1="2053.0" y2="1413.0" /><line stroke="#333" stroke-width="10" x1="7429.0" x2="7429.0" y1="5637.0" y2="2053.0" /><line stroke="#0d0" stroke-width="20" x1="7173.0" x2="7429.0" y1="5893.0" y2="5637.0" /><line stroke="#333" stroke-width="10" x1="5381.0" x2="7173.0" y1="5893.0" y2="5893.0" /><line stroke="#0d0" stroke-width="20" x1="5125.0" x2="5381.0" y1="5637.0" y2="5893.0" /><line stroke="#333" stroke-width="10" x1="5125.0" x2="5125.0" y1="2053.0" y2="5637.0" /><line stroke="#333" stroke-width="10" x1="8453.0" x2="7685.0" y1="1541.0" y2="2053.0" /><line stroke="#333" stroke-width="10" x1="8453.0" x2="8453.0" y1="4229.0" y2="1541.0" /><line stroke="#333" stroke-width="10" x1="8837.0" x2="8453.0" y1="1541.0" y2="4229.0" /><line stroke="#333" stroke-width="10" x1="9221.0" x2="8837.0" y1="3845.0" y2="1541.0" /><line stroke="#333" stroke-width="10" x1="9221.0" x2="9221.0" y1="1029.0" y2="3845.0" /><line stroke="#333" stroke-width="10" x1="9989.0" x2="9221.0" y1="517.0" y2="1029.0" /><line stroke="#333" stroke-width="10" x1="8837.0" x2="9029.0" y1="5125.0" y2="5893.0" /><line stroke="#333" stroke-width="10" x1="8645.0" x2="8837.0" y1="5893.0" y2="5125.0" /><line stroke="#333" stroke-width="10" x1="261.0" x2="2053.0" y1="5893.0" y2="5893.0" /><line stroke="#0d0" stroke-width="20" x1="5.0" x2="261.0" y1="5893.0" y2="5893.0" /><line stroke="#0d0" stroke-width="20" x1="5.0" x2="5.0" y1="5637.0" y2="5893.0" /><line stroke="#333" stroke-width="10" x1="5.0" x2="5.0" y1="517.0" y2="5637.0" /><line stroke="#00d" stroke-width="20" x1="261.0" x2="261.0" y1="5637.0" y2="5893.0" /><line stroke="#00d" stroke-width="20" x1="5.0" x2="261.0" y1="5637.0" y2="5637.0" /><line stroke="#00d" stroke-width="20" x1="2053.0" x2="2309.0" y1="5637.0" y2="5637.0" /><line stroke="#00d" stroke-width="20" x1="2053.0" x2="2053.0" y1="5893.0" y2="5637.0" /><line stroke="#00d" stroke-width="20" x1="2821.0" x2="2821.0" y1="5637.0" y2="5893.0" /><line stroke="#00d" stroke-width="20" x1="2565.0" x2="2821.0" y1="5637.0" y2="5637.0" /><line stroke="#00d" stroke-width="20" x1="4613.0" x2="4869.0" y1="5637.0" y2="5637.0" /><line stroke="#00d" stroke-width="20" x1="4613.0" x2="4613.0" y1="5893.0" y2="5637.0" /><line stroke="#00d" stroke-width="20" x1="5381.0" x2="5381.0" y1="5637.0" y2="5893.0" /><line stroke="#00d" stroke-width="20" x1="5125.0" x2="5381.0" y1="5637.0" y2="5637.0" /><line stroke="#00d" stroke-width="20" x1="7173.0" x2="7429.0" y1="5637.0" y2="5637.0" /><line stroke="#00d" stroke-width="20" x1="7173.0" x2="7173.0" y1="5893.0" y2="5637.0" /><line stroke="#333" stroke-width="10" x1="7941.0" x2="8645.0" y1="5893.0" y2="5893.0" /><line stroke="#0d0" stroke-width="20" x1="7685.0" x2="7941.0" y1="5893.0" y2="5893.0" /><line stroke="#0d0" stroke-width="20" x1="7685.0" x2="7685.0" y1="5637.0" y2="5893.0" /><line stroke="#333" stroke-width="10" x1="7685.0" x2="7685.0" y1="2053.0" y2="5637.0" /><line stroke="#00d" stroke-width="20" x1="7941.0" x2="7941.0" y1="5637.0" y2="5893.0" /><line stroke="#00d" stroke-width="20" x1="7685.0" x2="7941.0" y1="5637.0" y2="5637.0" /><line stroke="#333" stroke-width="10" x1="9989.0" x2="9989.0" y1="5637.0" y2="517.0" /><line stroke="#0d0" stroke-width="20" x1="9989.0" x2="9989.0" y1="5893.0" y2="5637.0" /><line stroke="#0d0" stroke-width="20" x1="9733.0" x2="9989.0" y1="5893.0" y2="5893.0" /><line stroke="#333" stroke-width="10" x1="9029.0" x2="9733.0" y1="5893.0" y2="5893.0" /><line stroke="#00d" stroke-width="20" x1="9733.0" x2="9989.0" y1="5637.0" y2="5637.0" /><line stroke="#00d" stroke-width="20" x1="9733.0" x2="9733.0" y1="5893.0" y2="5637.0" /><line stroke="#999" stroke-width="3" x1="1029.0" x2="1285.0" y1="2693.0" y2="2821.0" /><line stroke="#999" stroke-width="3" x1="1029.0" x2="1029.0" y1="5125.0" y2="2693.0" /><line stroke="#999" stroke-width="3" x1="1285.0" x2="1029.0" y1="5125.0" y2="5125.0" /><line stroke="#999" stroke-width="3" x1="1285.0" x2="1285.0" y1="2821.0" y2="5125.0" /><line stroke="#999" stroke-width="3" x1="3589.0" x2="3589.0" y1="5125.0" y2="2821.0" /><line stroke="#999" stroke-width="3" x1="3845.0" x2="3589.0" y1="5125.0" y2="5125.0" /><line stroke="#999" stroke-width="3" x1="3845.0" x2="3845.0" y1="2821.0" y2="5125.0" /><line stroke="#999" stroke-width="3" x1="3845.0" x2="3845.0" y1="2693.0" y2="2821.0" /><line stroke="#999" stroke-width="3" x1="3589.0" x2="3845.0" y1="2821.0" y2="2693.0" /><line stroke="#999" stroke-width="3" x1="6405.0" x2="6405.0" y1="2821.0" y2="5125.0" /><line stroke="#999" stroke-width="3" x1="6149.0" x2="6405.0" y1="2693.0" y2="2821.0" /><line stroke="#999" stroke-width="3" x1="6149.0" x2="6149.0" y1="2821.0" y2="2693.0" /><line stroke="#999" stroke-width="3" x1="6149.0" x2="6149.0" y1="5125.0" y2="2821.0" /><line stroke="#999" stroke-width="3" x1="6405.0" x2="6149.0" y1="5125.0" y2="5125.0" /><line stroke="#999" stroke-width="3" x1="8837.0" x2="8453.0" y1="5125.0" y2="4229.0" /><line stroke="#999" stroke-width="3" x1="9221.0" x2="8837.0" y1="3845.0" y2="5125.0" /><line stroke="#333" stroke-width="10" x1="197.0" x2="197.0" y1="69.0" y2="389.0" /><line stroke="#333" stroke-width="10" x1="261.0" x2="197.0" y1="69.0" y2="69.0" /><line stroke="#333" stroke-width="10" x1="261.0" x2="261.0" y1="197.0" y2="69.0" /><line stroke="#333" stroke-width="10" x1="357.0" x2="261.0" y1="69.0" y2="197.0" /><line stroke="#333" stroke-width="10" x1="389.0" x2="357.0" y1="69.0" y2="69.0" /><line stroke="#333" stroke-width="10" x1="389.0" x2="389.0" y1="133.0" y2="69.0" /><line stroke="#333" stroke-width="10" x1="317.0" x2="389.0" y1="229.0" y2="133.0" /><line stroke="#333" stroke-width="10" x1="389.0" x2="317.0" y1="325.0" y2="229.0" /><line stroke="#333" stroke-width="10" x1="389.0" x2="389.0" y1="389.0" y2="325.0" /><line stroke="#333" stroke-width="10" x1="357.0" x2="389.0" y1="389.0" y2="389.0" /><line stroke="#333" stroke-width="10" x1="261.0" x2="357.0" y1="261.0" y2="389.0" /><line stroke="#333" stroke-width="10" x1="261.0" x2="261.0" y1="389.0" y2="261.0" /><line stroke="#333" stroke-width="10" x1="197.0" x2="261.0" y1="389.0" y2="389.0" /><line stroke="#333" stroke-width="10" x1="645.0" x2="645.0" y1="389.0" y2="325.0" /><line stroke="#333" stroke-width="10" x1="453.0" x2="645.0" y1="389.0" y2="389.0" /><line stroke="#333" stroke-width="10" x1="453.0" x2="453.0" y1="197.0" y2="389.0" /><line stroke="#333" stroke-width="10" x1="581.0" x2="453.0" y1="197.0" y2="197.0" /><line stroke="#333" stroke-width="10" x1="581.0" x2="581.0" y1="133.0" y2="197.0" /><line stroke="#333" stroke-width="10" x1="453.0" x2="581.0" y1="133.0" y2="133.0" /><line stroke="#333" stroke-width="10" x1="453.0" x2="453.0" y1="69.0" y2="133.0" /><line stroke="#333" stroke-width="10" x1="645.0" x2="453.0" y1="69.0" y2="69.0" /><line stroke="#333" stroke-width="10" x1="645.0" x2="645.0" y1="261.0" y2="69.0" /><line stroke="#333" stroke-width="10" x1="517.0" x2="645.0" y1="261.0" y2="261.0" /><line stroke="#333" stroke-width="10" x1="517.0" x2="517.0" y1="325.0" y2="261.0" /><line stroke="#333" stroke-width="10" x1="645.0" x2="517.0" y1="325.0" y2="325.0" /><line stroke="#333" stroke-width="10" x1="709.0" x2="709.0" y1="69.0" y2="389.0" /><line stroke="#333" stroke-width="10" x1="773.0" x2="709.0" y1="69.0" y2="69.0" /><line stroke="#333" stroke-width="10" x1="773.0" x2="773.0" y1="197.0" y2="69.0" /><line stroke="#333" stroke-width="10" x1="837.0" x2="773.0" y1="197.0" y2="197.0" /><line stroke="#333" stroke-width="10" x1="837.0" x2="837.0" y1="261.0" y2="197.0" /><line stroke="#333" stroke-width="10" x1="773.0" x2="837.0" y1="261.0" y2="261.0" /><line stroke="#333" stroke-width="10" x1="773.0" x2="773.0" y1="325.0" y2="261.0" /><line stroke="#333" stroke-width="10" x1="901.0" x2="773.0" y1="325.0" y2="325.0" /><line stroke="#333" stroke-width="10" x1="901.0" x2="901.0" y1="389.0" y2="325.0" /><line stroke="#333" stroke-width="10" x1="709.0" x2="901.0" y1="389.0" y2="389.0" /><line stroke="#333" stroke-width="10" x1="1093.0" x2="1157.0" y1="453.0" y2="453.0" /><line stroke="#333" stroke-width="10" x1="901.0" x2="1093.0" y1="69.0" y2="453.0" /><line stroke="#333" stroke-width="10" x1="901.0" x2="901.0" y1="5.0" y2="69.0" /><line stroke="#333" stroke-width="10" x1="965.0" x2="901.0" y1="5.0" y2="5.0" /><line stroke="#333" stroke-width="10" x1="1157.0" x2="965.0" y1="389.0" y2="5.0" /><line stroke="#333" stroke-width="10" x1="1157.0" x2="1157.0" y1="453.0" y2="389.0" /><line stroke="#333" stroke-width="10" x1="1221.0" x2="1413.0" y1="389.0" y2="389.0" /><line stroke="#333" stroke-width="10" x1="1221.0" x2="1221.0" y1="197.0" y2="389.0" /><line stroke="#333" stroke-width="10" x1="1349.0" x2="1221.0" y1="197.0" y2="197.0" /><line stroke="#333" stroke-width="10" x1="1349.0" x2="1349.0" y1="69.0" y2="197.0" /><line stroke="#333" stroke-width="10" x1="1413.0" x2="1349.0" y1="69.0" y2="69.0" /><line stroke="#333" stroke-width="10" x1="1413.0" x2="1413.0" y1="389.0" y2="69.0" /><line stroke="#333" stroke-width="10" x1="1285.0" x2="1285.0" y1="325.0" y2="261.0" /><line stroke="#333" stroke-width="10" x1="1349.0" x2="1285.0" y1="325.0" y2="325.0" /><line stroke="#333" stroke-width="10" x1="1349.0" x2="1349.0" y1="261.0" y2="325.0" /><line stroke="#333" stroke-width="10" x1="1285.0" x2="1349.0" y1="261.0" y2="261.0" /><line stroke="#333" stroke-width="10" x1="1477.0" x2="1541.0" y1="389.0" y2="389.0" /><line stroke="#333" stroke-width="10" x1="1477.0" x2="1477.0" y1="197.0" y2="389.0" /><line stroke="#333" stroke-width="10" x1="1605.0" x2="1477.0" y1="197.0" y2="197.0" /><line stroke="#333" stroke-width="10" x1="1605.0" x2="1605.0" y1="69.0" y2="197.0" /><line stroke="#333" stroke-width="10" x1="1669.0" x2="1605.0" y1="69.0" y2="69.0" /><line stroke="#333" stroke-width="10" x1="1669.0" x2="1669.0" y1="389.0" y2="69.0" /><line stroke="#333" stroke-width="10" x1="1605.0" x2="1669.0" y1="389.0" y2="389.0" /><line stroke="#333" stroke-width="10" x1="1605.0" x2="1605.0" y1="261.0" y2="389.0" /><line stroke="#333" stroke-width="10" x1="1541.0" x2="1605.0" y1="261.0" y2="261.0" /><line stroke="#333" stroke-width="10" x1="1541.0" x2="1541.0" y1="389.0" y2="261.0" /><ellipse cx="901.0" cy="5765.0" fill="#009" rx="12" ry="24" stroke="#009" stroke-width="5" /><rect fill="#009" height="24" stroke="#009" stroke-width="5" transform="rotate(315,2757.0,5701.0)" width="24" x="2745.0" y="5689.0" /><rect fill="#009" height="24" stroke="#009" stroke-width="5" transform="rotate(225,2117.0,5701.0)" width="24" x="2105.0" y="5689.0" /><rect fill="#009" height="24" stroke="#009" stroke-width="5" transform="rotate(315,197.0,5701.0)" width="24" x="185.0" y="5689.0" /><rect fill="#009" height="24" stroke="#009" stroke-width="5" transform="rotate(225,4677.0,5701.0)" width="24" x="4665.0" y="5689.0" /><rect fill="#009" height="24" stroke="#009" stroke-width="5" transform="rotate(315,5317.0,5701.0)" width="24" x="5305.0" y="5689.0" /><rect fill="#009" height="24" stroke="#009" stroke-width="5" transform="rotate(225,7237.0,5701.0)" width="24" x="7225.0" y="5689.0" /><rect fill="#009" height="24" stroke="#009" stroke-width="5" transform="rotate(315,7877.0,5701.0)" width="24" x="7865.0" y="5689.0" /><rect fill="#009" height="24" stroke="#009" stroke-width="5" transform="rotate(225,9797.0,5701.0)" width="24" x="9785.0" y="5689.0" /><ellipse cx="3461.0" cy="5765.0" fill="#009" rx="12" ry="24" stroke="#009" stroke-width="5" /><ellipse cx="6021.0" cy="5765.0" fill="#009" rx="12" ry="24" stroke="#009" stroke-width="5" /><ellipse cx="8453.0" cy="5765.0" fill="#009" rx="12" ry="24" stroke="#009" stroke-width="5" /><rect fill="#090" height="24" stroke="#090" stroke-width="5" transform="rotate(270,9221.0,5765.0)" width="24" x="9209.0" y="5753.0" /><rect fill="#090" height="24" stroke="#090" stroke-width="5" transform="rotate(270,6533.0,5765.0)" width="24" x="6521.0" y="5753.0" /><rect fill="#090" height="24" stroke="#090" stroke-width="5" transform="rotate(270,3973.0,5765.0)" width="24" x="3961.0" y="5753.0" /><rect fill="#090" height="24" stroke="#090" stroke-width="5" transform="rotate(270,1413.0,5765.0)" width="24" x="1401.0" y="5753.0" /><circle cx="1157.0" cy="4485.0" fill="#900" r="16" stroke="#900" stroke-width="5" /><circle cx="1157.0" cy="3973.0" fill="#900" r="16" stroke="#900" stroke-width="5" /><circle cx="1157.0" cy="3461.0" fill="#900" r="16" stroke="#900" stroke-width="5" /><circle cx="1157.0" cy="2949.0" fill="#900" r="16" stroke="#900" stroke-width="5" /><circle cx="1157.0" cy="4997.0" fill="#900" r="16" stroke="#900" stroke-width="5" /><circle cx="3717.0" cy="2949.0" fill="#900" r="16" stroke="#900" stroke-width="5" /><circle cx="3717.0" cy="3461.0" fill="#900" r="16" stroke="#900" stroke-width="5" /><circle cx="3717.0" cy="3973.0" fill="#900" r="16" stroke="#900" stroke-width="5" /><circle cx="3717.0" cy="4485.0" fill="#900" r="16" stroke="#900" stroke-width="5" /><circle cx="3717.0" cy="4997.0" fill="#900" r="16" stroke="#900" stroke-width="5" /><circle cx="6277.0" cy="4997.0" fill="#900" r="16" stroke="#900" stroke-width="5" /><circle cx="6277.0" cy="4485.0" fill="#900" r="16" stroke="#900" stroke-width="5" /><circle cx="6277.0" cy="3973.0" fill="#900" r="16" stroke="#900" stroke-width="5" /><circle cx="6277.0" cy="3461.0" fill="#900" r="16" stroke="#900" stroke-width="5" /><circle cx="6277.0" cy="2949.0" fill="#900" r="16" stroke="#900" stroke-width="5" /><circle cx="8837.0" cy="2693.0" fill="#900" r="16" stroke="#900" stroke-width="5" /><circle cx="8837.0" cy="3205.0" fill="#900" r="16" stroke="#900" stroke-width="5" /><circle cx="8837.0" cy="3717.0" fill="#900" r="16" stroke="#900" stroke-width="5" /><circle cx="8837.0" cy="4229.0" fill="#900" r="16" stroke="#900" stroke-width="5" /><circle cx="8837.0" cy="4741.0" fill="#900" r="16" stroke="#900" stroke-width="5" /><rect fill="#090" height="24" stroke="#090" stroke-width="5" transform="rotate(0,997.0,5157.0)" width="24" x="985.0" y="5145.0" /><rect fill="#090" height="24" stroke="#090" stroke-width="5" transform="rotate(0,1157.0,5157.0)" width="24" x="1145.0" y="5145.0" /><rect fill="#090" height="24" stroke="#090" stroke-width="5" transform="rotate(0,1317.0,5157.0)" width="24" x="1305.0" y="5145.0" /><rect fill="#090" height="24" stroke="#090" stroke-width="5" transform="rotate(0,1317.0,4997.0)" width="24" x="1305.0" y="4985.0" /><rect fill="#090" height="24" stroke="#090" stroke-width="5" transform="rotate(0,1317.0,4837.0)" width="24" x="1305.0" y="4825.0" /><rect fill="#090" height="24" stroke="#090" stroke-width="5" transform="rotate(0,1317.0,4677.0)" width="24" x="1305.0" y="4665.0" /><rect fill="#090" height="24" stroke="#090" stroke-width="5" transform="rotate(0,1317.0,4197.0)" width="24" x="1305.0" y="4185.0" /><rect fill="#090" height="24" stroke="#090" stroke-width="5" transform="rotate(0,1317.0,4037.0)" width="24" x="1305.0" y="4025.0" /><rect fill="#090" height="24" stroke="#090" stroke-width="5" transform="rotate(0,1317.0,3717.0)" width="24" x="1305.0" y="3705.0" /><rect fill="#090" height="24" stroke="#090" stroke-width="5" transform="rotate(0,1317.0,3397.0)" width="24" x="1305.0" y="3385.0" /><rect fill="#090" height="24" stroke="#090" stroke-width="5" transform="rotate(0,1317.0,3237.0)" width="24" x="1305.0" y="3225.0" /><rect fill="#090" height="24" stroke="#090" stroke-width="5" transform="rotate(0,1317.0,3077.0)" width="24" x="1305.0" y="3065.0" /><rect fill="#090" height="24" stroke="#090" stroke-width="5" transform="rotate(0,997.0,4997.0)" width="24" x="985.0" y="4985.0" /><rect fill="#090" height="24" stroke="#090" stroke-width="5" transform="rotate(0,997.0,4837.0)" width="24" x="985.0" y="4825.0" /><rect fill="#090" height="24" stroke="#090" stroke-width="5" transform="rotate(0,997.0,4677.0)" width="24" x="985.0" y="4665.0" /><rect fill="#090" height="24" stroke="#090" stroke-width="5" transform="rotate(0,997.0,4197.0)" width="24" x="985.0" y="4185.0" /><rect fill="#090" height="24" stroke="#090" stroke-width="5" transform="rotate(0,997.0,4037.0)" width="24" x="985.0" y="4025.0" /><rect fill="#090" height="24" stroke="#090" stroke-width="5" transform="rotate(0,997.0,3717.0)" width="24" x="985.0" y="3705.0" /><rect fill="#090" height="24" stroke="#090" stroke-width="5" transform="rotate(0,997.0,3397.0)" width="24" x="985.0" y="3385.0" /><rect fill="#090" height="24" stroke="#090" stroke-width="5" transform="rotate(0,997.0,3237.0)" width="24" x="985.0" y="3225.0" /><rect fill="#090" height="24" stroke="#090" stroke-width="5" transform="rotate(0,997.0,3077.0)" width="24" x="985.0" y="3065.0" /><rect fill="#090" height="24" stroke="#090" stroke-width="5" transform="rotate(0,997.0,2757.0)" width="24" x="985.0" y="2745.0" /><rect fill="#090" height="24" stroke="#090" stroke-width="5" transform="rotate(0,1317.0,2757.0)" width="24" x="1305.0" y="2745.0" /><rect fill="#090" height="24" stroke="#090" stroke-width="5" transform="rotate(0,1157.0,2661.0)" width="24" x="1145.0" y="2649.0" /><rect fill="#090" height="24" stroke="#090" stroke-width="5" transform="rotate(0,997.0,2597.0)" width="24" x="985.0" y="2585.0" /><rect fill="#090" height="24" stroke="#090" stroke-width="5" transform="rotate(0,3557.0,5157.0)" width="24" x="3545.0" y="5145.0" /><rect fill="#090" height="24" stroke="#090" stroke-width="5" transform="rotate(0,3557.0,4997.0)" width="24" x="3545.0" y="4985.0" /><rect fill="#090" height="24" stroke="#090" stroke-width="5" transform="rotate(0,3557.0,4837.0)" width="24" x="3545.0" y="4825.0" /><rect fill="#090" height="24" stroke="#090" stroke-width="5" transform="rotate(0,3557.0,4517.0)" width="24" x="3545.0" y="4505.0" /><rect fill="#090" height="24" stroke="#090" stroke-width="5" transform="rotate(0,3557.0,4197.0)" width="24" x="3545.0" y="4185.0" /><rect fill="#090" height="24" stroke="#090" stroke-width="5" transform="rotate(0,3557.0,4037.0)" width="24" x="3545.0" y="4025.0" /><rect fill="#090" height="24" stroke="#090" stroke-width="5" transform="rotate(0,3557.0,3717.0)" width="24" x="3545.0" y="3705.0" /><rect fill="#090" height="24" stroke="#090" stroke-width="5" transform="rotate(0,3557.0,3397.0)" width="24" x="3545.0" y="3385.0" /><rect fill="#090" height="24" stroke="#090" stroke-width="5" transform="rotate(0,3557.0,3077.0)" width="24" x="3545.0" y="3065.0" /><rect fill="#090" height="24" stroke="#090" stroke-width="5" transform="rotate(0,3557.0,2917.0)" width="24" x="3545.0" y="2905.0" /><rect fill="#090" height="24" stroke="#090" stroke-width="5" transform="rotate(0,3557.0,2757.0)" width="24" x="3545.0" y="2745.0" /><rect fill="#090" height="24" stroke="#090" stroke-width="5" transform="rotate(0,3717.0,2661.0)" width="24" x="3705.0" y="2649.0" /><rect fill="#090" height="24" stroke="#090" stroke-width="5" transform="rotate(0,3877.0,2597.0)" width="24" x="3865.0" y="2585.0" /><rect fill="#090" height="24" stroke="#090" stroke-width="5" transform="rotate(0,3877.0,2757.0)" width="24" x="3865.0" y="2745.0" /><rect fill="#090" height="24" stroke="#090" stroke-width="5" transform="rotate(0,3877.0,2917.0)" width="24" x="3865.0" y="2905.0" /><rect fill="#090" height="24" stroke="#090" stroke-width="5" transform="rotate(0,3877.0,3077.0)" width="24" x="3865.0" y="3065.0" /><rect fill="#090" height="24" stroke="#090" stroke-width="5" transform="rotate(0,3877.0,3397.0)" width="24" x="3865.0" y="3385.0" /><rect fill="#090" height="24" stroke="#090" stroke-width="5" transform="rotate(0,3877.0,3717.0)" width="24" x="3865.0" y="3705.0" /><rect fill="#090" height="24" stroke="#090" stroke-width="5" transform="rotate(0,3877.0,3877.0)" width="24" x="3865.0" y="3865.0" /><rect fill="#090" height="24" stroke="#090" stroke-width="5" transform="rotate(0,3877.0,4197.0)" width="24" x="3865.0" y="4185.0" /><rect fill="#090" height="24" stroke="#090" stroke-width="5" transform="rotate(0,3877.0,4517.0)" width="24" x="3865.0" y="4505.0" /><rect fill="#090" height="24" stroke="#090" stroke-width="5" transform="rotate(0,3877.0,4677.0)" width="24" x="3865.0" y="4665.0" /><rect fill="#090" height="24" stroke="#090" stroke-width="5" transform="rotate(0,3877.0,4997.0)" width="24" x="3865.0" y="4985.0" /><rect fill="#090" height="24" stroke="#090" stroke-width="5" transform="rotate(0,3877.0,5157.0)" width="24" x="3865.0" y="5145.0" /><rect fill="#090" height="24" stroke="#090" stroke-width="5" transform="rotate(0,3717.0,5157.0)" width="24" x="3705.0" y="5145.0" /><rect fill="#090" height="24" stroke="#090" stroke-width="5" transform="rotate(0,6117.0,5157.0)" width="24" x="6105.0" y="5145.0" /><rect fill="#090" height="24" stroke="#090" stroke-width="5" transform="rotate(0,6117.0,4997.0)" width="24" x="6105.0" y="4985.0" /><rect fill="#090" height="24" stroke="#090" stroke-width="5" transform="rotate(0,6117.0,4837.0)" width="24" x="6105.0" y="4825.0" /><rect fill="#090" height="24" stroke="#090" stroke-width="5" transform="rotate(0,6117.0,4677.0)" width="24" x="6105.0" y="4665.0" /><rect fill="#090" height="24" stroke="#090" stroke-width="5" transform="rotate(0,6117.0,4357.0)" width="24" x="6105.0" y="4345.0" /><rect fill="#090" height="24" stroke="#090" stroke-width="5" transform="rotate(0,6117.0,4037.0)" width="24" x="6105.0" y="4025.0" /><rect fill="#090" height="24" stroke="#090" stroke-width="5" transform="rotate(0,6117.0,3717.0)" width="24" x="6105.0" y="3705.0" /><rect fill="#090" height="24" stroke="#090" stroke-width="5" transform="rotate(0,6117.0,3557.0)" width="24" x="6105.0" y="3545.0" /><rect fill="#090" height="24" stroke="#090" stroke-width="5" transform="rotate(0,6117.0,3397.0)" width="24" x="6105.0" y="3385.0" /><rect fill="#090" height="24" stroke="#090" stroke-width="5" transform="rotate(0,6117.0,3237.0)" width="24" x="6105.0" y="3225.0" /><rect fill="#090" height="24" stroke="#090" stroke-width="5" transform="rotate(0,6117.0,3077.0)" width="24" x="6105.0" y="3065.0" /><rect fill="#090" height="24" stroke="#090" stroke-width="5" transform="rotate(0,6117.0,2917.0)" width="24" x="6105.0" y="2905.0" /><rect fill="#090" height="24" stroke="#090" stroke-width="5" transform="rotate(0,6437.0,2917.0)" width="24" x="6425.0" y="2905.0" /><rect fill="#090" height="24" stroke="#090" stroke-width="5" transform="rotate(0,6437.0,3077.0)" width="24" x="6425.0" y="3065.0" /><rect fill="#090" height="24" stroke="#090" stroke-width="5" transform="rotate(0,6437.0,3237.0)" width="24" x="6425.0" y="3225.0" /><rect fill="#090" height="24" stroke="#090" stroke-width="5" transform="rotate(0,6437.0,3397.0)" width="24" x="6425.0" y="3385.0" /><rect fill="#090" height="24" stroke="#090" stroke-width="5" transform="rotate(0,6437.0,3557.0)" width="24" x="6425.0" y="3545.0" /><rect fill="#090" height="24" stroke="#090" stroke-width="5" transform="rotate(0,6437.0,3717.0)" width="24" x="6425.0" y="3705.0" /><rect fill="#090" height="24" stroke="#090" stroke-width="5" transform="rotate(0,6437.0,4037.0)" width="24" x="6425.0" y="4025.0" /><rect fill="#090" height="24" stroke="#090" stroke-width="5" transform="rotate(0,6437.0,4517.0)" width="24" x="6425.0" y="4505.0" /><rect fill="#090" height="24" stroke="#090" stroke-width="5" transform="rotate(0,6437.0,4677.0)" width="24" x="6425.0" y="4665.0" /><rect fill="#090" height="24" stroke="#090" stroke-width="5" transform="rotate(0,6437.0,4837.0)" width="24" x="6425.0" y="4825.0" /><rect fill="#090" height="24" stroke="#090" stroke-width="5" transform="rotate(0,6437.0,4997.0)" width="24" x="6425.0" y="4985.0" /><rect fill="#090" height="24" stroke="#090" stroke-width="5" transform="rotate(0,6437.0,5157.0)" width="24" x="6425.0" y="5145.0" /><rect fill="#090" height="24" stroke="#090" stroke-width="5" transform="rotate(0,6277.0,5157.0)" width="24" x="6265.0" y="5145.0" /><rect fill="#090" height="24" stroke="#090" stroke-width="5" transform="rotate(270,8869.0,5125.0)" width="24" x="8857.0" y="5113.0" /><rect fill="#090" height="24" stroke="#090" stroke-width="5" transform="rotate(270,8805.0,5125.0)" width="24" x="8793.0" y="5113.0" /><rect fill="#090" height="24" stroke="#090" stroke-width="5" transform="rotate(270,8757.0,5021.0)" width="24" x="8745.0" y="5009.0" /><rect fill="#090" height="24" stroke="#090" stroke-width="5" transform="rotate(270,8709.0,4901.0)" width="24" x="8697.0" y="4889.0" /><rect fill="#090" height="24" stroke="#090" stroke-width="5" transform="rotate(270,8613.0,4677.0)" width="24" x="8601.0" y="4665.0" /><rect fill="#090" height="24" stroke="#090" stroke-width="5" transform="rotate(270,8469.0,4349.0)" width="24" x="8457.0" y="4337.0" /><rect fill="#090" height="24" stroke="#090" stroke-width="5" transform="rotate(270,8517.0,4453.0)" width="24" x="8505.0" y="4441.0" /><rect fill="#090" height="24" stroke="#090" stroke-width="5" transform="rotate(270,8421.0,4229.0)" width="24" x="8409.0" y="4217.0" /><rect fill="#090" height="24" stroke="#090" stroke-width="5" transform="rotate(270,8565.0,4573.0)" width="24" x="8553.0" y="4561.0" /><rect fill="#090" height="24" stroke="#090" stroke-width="5" transform="rotate(270,8653.0,4789.0)" width="24" x="8641.0" y="4777.0" /><rect fill="#090" height="24" stroke="#090" stroke-width="5" transform="rotate(270,8901.0,5021.0)" width="24" x="8889.0" y="5009.0" /><rect fill="#090" height="24" stroke="#090" stroke-width="5" transform="rotate(270,8933.0,4901.0)" width="24" x="8921.0" y="4889.0" /><rect fill="#090" height="24" stroke="#090" stroke-width="5" transform="rotate(270,8965.0,4789.0)" width="24" x="8953.0" y="4777.0" /><rect fill="#090" height="24" stroke="#090" stroke-width="5" transform="rotate(270,8997.0,4677.0)" width="24" x="8985.0" y="4665.0" /><rect fill="#090" height="24" stroke="#090" stroke-width="5" transform="rotate(270,9037.0,4565.0)" width="24" x="9025.0" y="4553.0" /><rect fill="#090" height="24" stroke="#090" stroke-width="5" transform="rotate(270,9069.0,4453.0)" width="24" x="9057.0" y="4441.0" /><rect fill="#090" height="24" stroke="#090" stroke-width="5" transform="rotate(270,9101.0,4349.0)" width="24" x="9089.0" y="4337.0" /><rect fill="#090" height="24" stroke="#090" stroke-width="5" transform="rotate(270,9133.0,4237.0)" width="24" x="9121.0" y="4225.0" /><rect fill="#090" height="24" stroke="#090" stroke-width="5" transform="rotate(270,9173.0,4109.0)" width="24" x="9161.0" y="4097.0" /><rect fill="#090" height="24" stroke="#090" stroke-width="5" transform="rotate(270,9213.0,3989.0)" width="24" x="9201.0" y="3977.0" /><rect fill="#090" height="24" stroke="#090" stroke-width="5" transform="rotate(270,9245.0,3861.0)" width="24" x="9233.0" y="3849.0" /><rect fill="#090" height="24" stroke="#090" stroke-width="5" transform="rotate(0,1317.0,4517.0)" width="24" x="1305.0" y="4505.0" /><rect fill="#090" height="24" stroke="#090" stroke-width="5" transform="rotate(0,1317.0,4357.0)" width="24" x="1305.0" y="4345.0" /><rect fill="#090" height="24" stroke="#090" stroke-width="5" transform="rotate(0,997.0,4517.0)" width="24" x="985.0" y="4505.0" /><rect fill="#090" height="24" stroke="#090" stroke-width="5" transform="rotate(0,997.0,4357.0)" width="24" x="985.0" y="4345.0" /><rect fill="#090" height="24" stroke="#090" stroke-width="5" transform="rotate(0,1317.0,3877.0)" width="24" x="1305.0" y="3865.0" /><rect fill="#090" height="24" stroke="#090" stroke-width="5" transform="rotate(0,997.0,3877.0)" width="24" x="985.0" y="3865.0" /><rect fill="#090" height="24" stroke="#090" stroke-width="5" transform="rotate(0,1317.0,3557.0)" width="24" x="1305.0" y="3545.0" /><rect fill="#090" height="24" stroke="#090" stroke-width="5" transform="rotate(0,997.0,3557.0)" width="24" x="985.0" y="3545.0" /><rect fill="#090" height="24" stroke="#090" stroke-width="5" transform="rotate(0,997.0,2917.0)" width="24" x="985.0" y="2905.0" /><rect fill="#090" height="24" stroke="#090" stroke-width="5" transform="rotate(0,1317.0,2917.0)" width="24" x="1305.0" y="2905.0" /><rect fill="#090" height="24" stroke="#090" stroke-width="5" transform="rotate(0,3557.0,4677.0)" width="24" x="3545.0" y="4665.0" /><rect fill="#090" height="24" stroke="#090" stroke-width="5" transform="rotate(0,3557.0,4357.0)" width="24" x="3545.0" y="4345.0" /><rect fill="#090" height="24" stroke="#090" stroke-width="5" transform="rotate(0,3877.0,4837.0)" width="24" x="3865.0" y="4825.0" /><rect fill="#090" height="24" stroke="#090" stroke-width="5" transform="rotate(0,3877.0,4357.0)" width="24" x="3865.0" y="4345.0" /><rect fill="#090" height="24" stroke="#090" stroke-width="5" transform="rotate(0,3877.0,4037.0)" width="24" x="3865.0" y="4025.0" /><rect fill="#090" height="24" stroke="#090" stroke-width="5" transform="rotate(0,3557.0,3877.0)" width="24" x="3545.0" y="3865.0" /><rect fill="#090" height="24" stroke="#090" stroke-width="5" transform="rotate(0,3877.0,3557.0)" width="24" x="3865.0" y="3545.0" /><rect fill="#090" height="24" stroke="#090" stroke-width="5" transform="rotate(0,3557.0,3557.0)" width="24" x="3545.0" y="3545.0" /><rect fill="#090" height="24" stroke="#090" stroke-width="5" transform="rotate(0,3877.0,3237.0)" width="24" x="3865.0" y="3225.0" /><rect fill="#090" height="24" stroke="#090" stroke-width="5" transform="rotate(0,3557.0,3237.0)" width="24" x="3545.0" y="3225.0" /><rect fill="#090" height="24" stroke="#090" stroke-width="5" transform="rotate(0,6117.0,4517.0)" width="24" x="6105.0" y="4505.0" /><rect fill="#090" height="24" stroke="#090" stroke-width="5" transform="rotate(0,6437.0,4357.0)" width="24" x="6425.0" y="4345.0" /><rect fill="#090" height="24" stroke="#090" stroke-width="5" transform="rotate(0,6437.0,4197.0)" width="24" x="6425.0" y="4185.0" /><rect fill="#090" height="24" stroke="#090" stroke-width="5" transform="rotate(0,6117.0,4197.0)" width="24" x="6105.0" y="4185.0" /><rect fill="#090" height="24" stroke="#090" stroke-width="5" transform="rotate(0,6437.0,3877.0)" width="24" x="6425.0" y="3865.0" /><rect fill="#090" height="24" stroke="#090" stroke-width="5" transform="rotate(0,6117.0,3877.0)" width="24" x="6105.0" y="3865.0" /><rect fill="#090" height="24" stroke="#090" stroke-width="5" transform="rotate(0,6117.0,2757.0)" width="24" x="6105.0" y="2745.0" /><rect fill="#090" height="24" stroke="#090" stroke-width="5" transform="rotate(0,6437.0,2757.0)" width="24" x="6425.0" y="2745.0" /><rect fill="#090" height="24" stroke="#090" stroke-width="5" transform="rotate(0,6117.0,2597.0)" width="24" x="6105.0" y="2585.0" /><rect fill="#090" height="24" stroke="#090" stroke-width="5" transform="rotate(0,6277.0,2693.0)" width="24" x="6265.0" y="2681.0" /><rect fill="#900" height="48" stroke="#900" stroke-width="5" transform="rotate(90,166.0,842.0)" width="32" x="150.0" y="818.0" /><rect fill="#900" height="48" stroke="#900" stroke-width="5" transform="rotate(90,7833.0,2151.0)" width="32" x="7817.0" y="2127.0" /><rect fill="#900" height="48" stroke="#900" stroke-width="5" transform="rotate(90,8071.0,1998.0)" width="32" x="8055.0" y="1974.0" /><rect fill="#900" height="48" stroke="#900" stroke-width="5" transform="rotate(90,8309.0,1845.0)" width="32" x="8293.0" y="1821.0" /><rect fill="#900" height="48" stroke="#900" stroke-width="5" transform="rotate(90,9363.0,1080.0)" width="32" x="9347.0" y="1056.0" /><rect fill="#900" height="48" stroke="#900" stroke-width="5" transform="rotate(90,9635.0,910.0)" width="32" x="9619.0" y="886.0" /><rect fill="#900" height="48" stroke="#900" stroke-width="5" transform="rotate(90,9873.0,757.0)" width="32" x="9857.0" y="733.0" /><rect fill="#900" height="48" stroke="#900" stroke-width="5" transform="rotate(90,5334.0,2117.0)" width="32" x="5318.0" y="2093.0" /><rect fill="#900" height="48" stroke="#900" stroke-width="5" transform="rotate(90,5674.0,1879.0)" width="32" x="5658.0" y="1855.0" /><rect fill="#900" height="48" stroke="#900" stroke-width="5" transform="rotate(90,5997.0,1624.0)" width="32" x="5981.0" y="1600.0" /><rect fill="#900" height="48" stroke="#900" stroke-width="5" transform="rotate(90,6337.0,1743.0)" width="32" x="6321.0" y="1719.0" /><rect fill="#900" height="48" stroke="#900" stroke-width="5" transform="rotate(90,6660.0,1896.0)" width="32" x="6644.0" y="1872.0" /><rect fill="#900" height="48" stroke="#900" stroke-width="5" transform="rotate(90,7017.0,2015.0)" width="32" x="7001.0" y="1991.0" /><rect fill="#900" height="48" stroke="#900" stroke-width="5" transform="rotate(90,7323.0,2134.0)" width="32" x="7307.0" y="2110.0" /><rect fill="#900" height="48" stroke="#900" stroke-width="5" transform="rotate(90,455.0,1046.0)" width="32" x="439.0" y="1022.0" /><rect fill="#900" height="48" stroke="#900" stroke-width="5" transform="rotate(90,795.0,1267.0)" width="32" x="779.0" y="1243.0" /><rect fill="#900" height="48" stroke="#900" stroke-width="5" transform="rotate(90,1101.0,1454.0)" width="32" x="1085.0" y="1430.0" /><rect fill="#900" height="48" stroke="#900" stroke-width="5" transform="rotate(90,1424.0,1692.0)" width="32" x="1408.0" y="1668.0" /><rect fill="#900" height="48" stroke="#900" stroke-width="5" transform="rotate(90,1764.0,1896.0)" width="32" x="1748.0" y="1872.0" /><rect fill="#900" height="48" stroke="#900" stroke-width="5" transform="rotate(90,2121.0,2100.0)" width="32" x="2105.0" y="2076.0" /><rect fill="#090" height="24" stroke="#090" stroke-width="5" transform="rotate(90,2750.0,2151.0)" width="24" x="2738.0" y="2139.0" /><rect fill="#090" height="24" stroke="#090" stroke-width="5" transform="rotate(90,3260.0,1947.0)" width="24" x="3248.0" y="1935.0" /><rect fill="#090" height="24" stroke="#090" stroke-width="5" transform="rotate(90,3787.0,1709.0)" width="24" x="3775.0" y="1697.0" /><rect fill="#090" height="24" stroke="#090" stroke-width="5" transform="rotate(90,4297.0,1845.0)" width="24" x="4285.0" y="1833.0" /><rect fill="#090" height="24" stroke="#090" stroke-width="5" transform="rotate(90,4722.0,2117.0)" width="24" x="4710.0" y="2105.0" /><circle cx="8837.0" cy="2181.0" fill="#900" r="16" stroke="#900" stroke-width="5" /></svg>