<?xml version="1.0" encoding="utf-8" ?>
<svg baseProfile="tiny" height="1024" version="1.2" viewBox="0 0 2251 3338" width="690" xmlns="http://www.w3.org/2000/svg" xmlns:ev="http://www.w3.org/2001/xml-events" xmlns:xlink="http://www.w3.org/1999/xlink"><defs /><line stroke="#333" stroke-width="10" x1="1093.0" x2="1029.0" y1="1093.0" y2="1093.0" /><line stroke="#999" stroke-width="3" x1="901.0" x2="837.0" y1="1093.0" y2="1157.0" /><line stroke="#333" stroke-width="10" x1="901.0" x2="1093.0" y1="1669.0" y2="1669.0" /><line stroke="#333" stroke-width="10" x1="1093.0" x2="1093.0" y1="1669.0" y2="1605.0" /><line stroke="#333" stroke-width="10" x1="901.0" x2="5.0" y1="1093.0" y2="1093.0" /><line stroke="#333" stroke-width="10" x1="5.0" x2="5.0" y1="1093.0" y2="1669.0" /><line stroke="#333" stroke-width="10" x1="5.0" x2="901.0" y1="1669.0" y2="1669.0" /><line stroke="#999" stroke-width="3" x1="260.0" x2="196.0" y1="1224.0" y2="1288.0" /><line stroke="#999" stroke-width="3" x1="196.0" x2="196.0" y1="1288.0" y2="1480.0" /><line stroke="#999" stroke-width="3" x1="196.0" x2="260.0" y1="1480.0" y2="1544.0" /><line stroke="#999" stroke-width="3" x1="260.0" x2="388.0" y1="1544.0" y2="1544.0" /><line stroke="#999" stroke-width="3" x1="388.0" x2="452.0" y1="1544.0" y2="1480.0" /><line stroke="#999" stroke-width="3" x1="452.0" x2="453.0" y1="1480.0" y2="1413.0" /><line stroke="#999" stroke-width="3" x1="452.0" x2="388.0" y1="1288.0" y2="1224.0" /><line stroke="#999" stroke-width="3" x1="388.0" x2="260.0" y1="1224.0" y2="1224.0" /><line stroke="#999" stroke-width="3" x1="453.0" x2="453.0" y1="1413.0" y2="1349.0" /><line stroke="#999" stroke-width="3" x1="453.0" x2="452.0" y1="1349.0" y2="1288.0" /><line stroke="#999" stroke-width="3" x1="453.0" x2="517.0" y1="1413.0" y2="1413.0" /><line stroke="#999" stroke-width="3" x1="517.0" x2="517.0" y1="1413.0" y2="1349.0" /><line stroke="#999" stroke-width="3" x1="517.0" x2="453.0" y1="1349.0" y2="1349.0" /><line stroke="#999" stroke-width="3" x1="517.0" x2="581.0" y1="1413.0" y2="1413.0" /><line stroke="#999" stroke-width="3" x1="581.0" x2="581.0" y1="1413.0" y2="1349.0" /><line stroke="#999" stroke-width="3" x1="581.0" x2="517.0" y1="1349.0" y2="1349.0" /><line stroke="#999" stroke-width="3" x1="581.0" x2="645.0" y1="1413.0" y2="1413.0" /><line stroke="#999" stroke-width="3" x1="645.0" x2="645.0" y1="1413.0" y2="1349.0" /><line stroke="#999" stroke-width="3" x1="645.0" x2="581.0" y1="1349.0" y2="1349.0" /><line stroke="#999" stroke-width="3" x1="645.0" x2="709.0" y1="1413.0" y2="1413.0" /><line stroke="#999" stroke-width="3" x1="709.0" x2="709.0" y1="1413.0" y2="1349.0" /><line stroke="#999" stroke-width="3" x1="709.0" x2="645.0" y1="1349.0" y2="1349.0" /><line stroke="#999" stroke-width="3" x1="709.0" x2="773.0" y1="1413.0" y2="1413.0" /><line stroke="#999" stroke-width="3" x1="773.0" x2="773.0" y1="1413.0" y2="1349.0" /><line stroke="#999" stroke-width="3" x1="773.0" x2="709.0" y1="1349.0" y2="1349.0" /><line stroke="#999" stroke-width="3" x1="773.0" x2="837.0" y1="1413.0" y2="1413.0" /><line stroke="#999" stroke-width="3" x1="837.0" x2="837.0" y1="1413.0" y2="1349.0" /><line stroke="#999" stroke-width="3" x1="837.0" x2="773.0" y1="1349.0" y2="1349.0" /><line stroke="#999" stroke-width="3" x1="837.0" x2="837.0" y1="1157.0" y2="1349.0" /><line stroke="#999" stroke-width="3" x1="837.0" x2="837.0" y1="1413.0" y2="1605.0" /><line stroke="#999" stroke-width="3" x1="837.0" x2="901.0" y1="1605.0" y2="1669.0" /><line stroke="#999" stroke-width="3" x1="1029.0" x2="965.0" y1="1093.0" y2="1093.0" /><line stroke="#333" stroke-width="10" x1="965.0" x2="901.0" y1="1093.0" y2="1093.0" /><line stroke="#333" stroke-width="10" x1="965.0" x2="965.0" y1="1029.0" y2="1093.0" /><line stroke="#333" stroke-width="10" x1="1029.0" x2="1029.0" y1="1093.0" y2="1029.0" /><line stroke="#999" stroke-width="3" x1="1029.0" x2="965.0" y1="1029.0" y2="1029.0" /><line stroke="#333" stroke-width="10" x1="965.0" x2="965.0" y1="965.0" y2="1029.0" /><line stroke="#999" stroke-width="3" x1="1029.0" x2="1029.0" y1="1029.0" y2="965.0" /><line stroke="#333" stroke-width="10" x1="1029.0" x2="965.0" y1="965.0" y2="965.0" /><line stroke="#333" stroke-width="10" x1="1029.0" x2="1157.0" y1="1029.0" y2="1029.0" /><line stroke="#999" stroke-width="3" x1="1157.0" x2="1157.0" y1="1029.0" y2="965.0" /><line stroke="#333" stroke-width="10" x1="1157.0" x2="1029.0" y1="965.0" y2="965.0" /><line stroke="#333" stroke-width="10" x1="1157.0" x2="1157.0" y1="1029.0" y2="1285.0" /><line stroke="#333" stroke-width="10" x1="1157.0" x2="1285.0" y1="1285.0" y2="1285.0" /><line stroke="#333" stroke-width="10" x1="1413.0" x2="1413.0" y1="1285.0" y2="1093.0" /><line stroke="#333" stroke-width="10" x1="1413.0" x2="1157.0" y1="965.0" y2="965.0" /><line stroke="#666" stroke-width="20" x1="1285.0" x2="1349.0" y1="1285.0" y2="1285.0" /><line stroke="#333" stroke-width="10" x1="1349.0" x2="1413.0" y1="1285.0" y2="1285.0" /><line stroke="#666" stroke-width="20" x1="1413.0" x2="1413.0" y1="1093.0" y2="1029.0" /><line stroke="#333" stroke-width="10" x1="1413.0" x2="1413.0" y1="1029.0" y2="965.0" /><line stroke="#333" stroke-width="10" x1="1157.0" x2="1157.0" y1="1301.0" y2="1413.0" /><line stroke="#999" stroke-width="3" x1="1157.0" x2="1285.0" y1="1413.0" y2="1413.0" /><line stroke="#999" stroke-width="3" x1="1285.0" x2="1285.0" y1="1413.0" y2="1477.0" /><line stroke="#999" stroke-width="3" x1="1285.0" x2="1221.0" y1="1477.0" y2="1541.0" /><line stroke="#999" stroke-width="3" x1="1221.0" x2="1221.0" y1="1541.0" y2="1605.0" /><line stroke="#999" stroke-width="3" x1="1221.0" x2="1397.0" y1="1605.0" y2="1605.0" /><line stroke="#999" stroke-width="3" x1="1397.0" x2="1397.0" y1="1605.0" y2="1541.0" /><line stroke="#999" stroke-width="3" x1="1397.0" x2="1349.0" y1="1541.0" y2="1477.0" /><line stroke="#999" stroke-width="3" x1="1349.0" x2="1349.0" y1="1477.0" y2="1413.0" /><line stroke="#999" stroke-width="3" x1="1349.0" x2="1413.0" y1="1413.0" y2="1413.0" /><line stroke="#333" stroke-width="10" x1="1413.0" x2="1413.0" y1="1413.0" y2="1301.0" /><line stroke="#333" stroke-width="10" x1="1413.0" x2="1349.0" y1="1301.0" y2="1301.0" /><line stroke="#666" stroke-width="20" x1="1349.0" x2="1285.0" y1="1301.0" y2="1301.0" /><line stroke="#333" stroke-width="10" x1="1285.0" x2="1157.0" y1="1301.0" y2="1301.0" /><line stroke="#333" stroke-width="10" x1="1285.0" x2="1285.0" y1="1285.0" y2="1301.0" /><line stroke="#333" stroke-width="10" x1="1349.0" x2="1349.0" y1="1301.0" y2="1285.0" /><line stroke="#333" stroke-width="10" x1="1157.0" x2="1157.0" y1="1925.0" y2="2053.0" /><line stroke="#333" stroke-width="10" x1="1157.0" x2="1221.0" y1="2053.0" y2="2053.0" /><line stroke="#333" stroke-width="10" x1="1413.0" x2="1413.0" y1="2053.0" y2="1925.0" /><line stroke="#999" stroke-width="3" x1="1413.0" x2="1349.0" y1="1925.0" y2="1925.0" /><line stroke="#999" stroke-width="3" x1="1349.0" x2="1349.0" y1="1925.0" y2="1861.0" /><line stroke="#999" stroke-width="3" x1="1349.0" x2="1349.0" y1="1861.0" y2="1797.0" /><line stroke="#999" stroke-width="3" x1="1349.0" x2="1349.0" y1="1797.0" y2="1733.0" /><line stroke="#999" stroke-width="3" x1="1349.0" x2="1285.0" y1="1733.0" y2="1733.0" /><line stroke="#999" stroke-width="3" x1="1285.0" x2="1285.0" y1="1733.0" y2="1797.0" /><line stroke="#999" stroke-width="3" x1="1285.0" x2="1285.0" y1="1797.0" y2="1853.0" /><line stroke="#999" stroke-width="3" x1="1285.0" x2="1285.0" y1="1853.0" y2="1925.0" /><line stroke="#999" stroke-width="3" x1="1285.0" x2="1157.0" y1="1925.0" y2="1925.0" /><line stroke="#333" stroke-width="10" x1="1157.0" x2="1157.0" y1="1413.0" y2="1541.0" /><line stroke="#333" stroke-width="10" x1="1413.0" x2="1413.0" y1="1925.0" y2="1413.0" /><line stroke="#333" stroke-width="10" x1="1221.0" x2="1429.0" y1="901.0" y2="901.0" /><line stroke="#333" stroke-width="10" x1="1429.0" x2="1429.0" y1="901.0" y2="1029.0" /><line stroke="#666" stroke-width="20" x1="1429.0" x2="1429.0" y1="1029.0" y2="1093.0" /><line stroke="#333" stroke-width="10" x1="1429.0" x2="1429.0" y1="1093.0" y2="1125.0" /><line stroke="#333" stroke-width="10" x1="1429.0" x2="1669.0" y1="1125.0" y2="1125.0" /><line stroke="#333" stroke-width="10" x1="1669.0" x2="1669.0" y1="1125.0" y2="773.0" /><line stroke="#333" stroke-width="10" x1="1669.0" x2="1365.0" y1="773.0" y2="773.0" /><line stroke="#333" stroke-width="10" x1="1221.0" x2="1221.0" y1="773.0" y2="901.0" /><line stroke="#333" stroke-width="10" x1="1413.0" x2="1429.0" y1="1093.0" y2="1093.0" /><line stroke="#333" stroke-width="10" x1="1429.0" x2="1413.0" y1="1029.0" y2="1029.0" /><line stroke="#d00" stroke-width="20" x1="1349.0" x2="1285.0" y1="773.0" y2="773.0" /><line stroke="#333" stroke-width="10" x1="1285.0" x2="1269.0" y1="773.0" y2="773.0" /><line stroke="#333" stroke-width="10" x1="1285.0" x2="1285.0" y1="709.0" y2="773.0" /><line stroke="#333" stroke-width="10" x1="1349.0" x2="1349.0" y1="773.0" y2="709.0" /><line stroke="#666" stroke-width="20" x1="1349.0" x2="1285.0" y1="709.0" y2="709.0" /><line stroke="#999" stroke-width="3" x1="1349.0" x2="1349.0" y1="709.0" y2="517.0" /><line stroke="#999" stroke-width="3" x1="1349.0" x2="1669.0" y1="517.0" y2="517.0" /><line stroke="#999" stroke-width="3" x1="1669.0" x2="1666.0" y1="517.0" y2="192.0" /><line stroke="#999" stroke-width="3" x1="1666.0" x2="1474.0" y1="192.0" y2="192.0" /><line stroke="#999" stroke-width="3" x1="1474.0" x2="1474.0" y1="192.0" y2="448.0" /><line stroke="#999" stroke-width="3" x1="1474.0" x2="1285.0" y1="448.0" y2="453.0" /><line stroke="#999" stroke-width="3" x1="1285.0" x2="1285.0" y1="453.0" y2="709.0" /><line stroke="#333" stroke-width="10" x1="1349.0" x2="1861.0" y1="709.0" y2="709.0" /><line stroke="#333" stroke-width="10" x1="2053.0" x2="2053.0" y1="709.0" y2="325.0" /><line stroke="#333" stroke-width="10" x1="2053.0" x2="1221.0" y1="5.0" y2="5.0" /><line stroke="#333" stroke-width="10" x1="1221.0" x2="1221.0" y1="5.0" y2="709.0" /><line stroke="#333" stroke-width="10" x1="1221.0" x2="1285.0" y1="709.0" y2="709.0" /><line stroke="#333" stroke-width="10" x1="1365.0" x2="1349.0" y1="773.0" y2="773.0" /><line stroke="#333" stroke-width="10" x1="1269.0" x2="1221.0" y1="773.0" y2="773.0" /><line stroke="#666" stroke-width="20" x1="2053.0" x2="2053.0" y1="325.0" y2="253.0" /><line stroke="#333" stroke-width="10" x1="2053.0" x2="2053.0" y1="253.0" y2="5.0" /><line stroke="#333" stroke-width="10" x1="2085.0" x2="2109.0" y1="325.0" y2="389.0" /><line stroke="#333" stroke-width="10" x1="2109.0" x2="2173.0" y1="389.0" y2="389.0" /><line stroke="#333" stroke-width="10" x1="2173.0" x2="2246.0" y1="389.0" y2="305.0" /><line stroke="#0d0" stroke-width="20" x1="2246.0" x2="2246.0" y1="305.0" y2="273.0" /><line stroke="#333" stroke-width="10" x1="2246.0" x2="2181.0" y1="273.0" y2="197.0" /><line stroke="#333" stroke-width="10" x1="2181.0" x2="2117.0" y1="197.0" y2="197.0" /><line stroke="#333" stroke-width="10" x1="2117.0" x2="2085.0" y1="197.0" y2="253.0" /><line stroke="#666" stroke-width="20" x1="2085.0" x2="2085.0" y1="253.0" y2="325.0" /><line stroke="#333" stroke-width="10" x1="2085.0" x2="2053.0" y1="253.0" y2="253.0" /><line stroke="#333" stroke-width="10" x1="2053.0" x2="2085.0" y1="325.0" y2="325.0" /><line stroke="#666" stroke-width="20" x1="1221.0" x2="1285.0" y1="2053.0" y2="2053.0" /><line stroke="#333" stroke-width="10" x1="1285.0" x2="1413.0" y1="2053.0" y2="2053.0" /><line stroke="#999" stroke-width="3" x1="1221.0" x2="1221.0" y1="2117.0" y2="2245.0" /><line stroke="#999" stroke-width="3" x1="1221.0" x2="1597.0" y1="2245.0" y2="2245.0" /><line stroke="#999" stroke-width="3" x1="1597.0" x2="1668.0" y1="2245.0" y2="2315.0" /><line stroke="#999" stroke-width="3" x1="1668.0" x2="1669.0" y1="2315.0" y2="2629.0" /><line stroke="#999" stroke-width="3" x1="1669.0" x2="1605.0" y1="2629.0" y2="2693.0" /><line stroke="#999" stroke-width="3" x1="1605.0" x2="1605.0" y1="2693.0" y2="2757.0" /><line stroke="#999" stroke-width="3" x1="1605.0" x2="1669.0" y1="2757.0" y2="2821.0" /><line stroke="#999" stroke-width="3" x1="1669.0" x2="1669.0" y1="2821.0" y2="3013.0" /><line stroke="#999" stroke-width="3" x1="1669.0" x2="1605.0" y1="3013.0" y2="3077.0" /><line stroke="#999" stroke-width="3" x1="1605.0" x2="1285.0" y1="3077.0" y2="3077.0" /><line stroke="#999" stroke-width="3" x1="1285.0" x2="1285.0" y1="3077.0" y2="3013.0" /><line stroke="#999" stroke-width="3" x1="1285.0" x2="1085.0" y1="3013.0" y2="3013.0" /><line stroke="#999" stroke-width="3" x1="1085.0" x2="1085.0" y1="3013.0" y2="3077.0" /><line stroke="#999" stroke-width="3" x1="1085.0" x2="1085.0" y1="3077.0" y2="3141.0" /><line stroke="#999" stroke-width="3" x1="1085.0" x2="1085.0" y1="3141.0" y2="3205.0" /><line stroke="#999" stroke-width="3" x1="1085.0" x2="1285.0" y1="3205.0" y2="3205.0" /><line stroke="#999" stroke-width="3" x1="1285.0" x2="1285.0" y1="3205.0" y2="3141.0" /><line stroke="#999" stroke-width="3" x1="1285.0" x2="1733.0" y1="3141.0" y2="3141.0" /><line stroke="#999" stroke-width="3" x1="1733.0" x2="1733.0" y1="3141.0" y2="2821.0" /><line stroke="#999" stroke-width="3" x1="1733.0" x2="1797.0" y1="2821.0" y2="2757.0" /><line stroke="#999" stroke-width="3" x1="1797.0" x2="1797.0" y1="2757.0" y2="2685.0" /><line stroke="#999" stroke-width="3" x1="1797.0" x2="1733.0" y1="2685.0" y2="2621.0" /><line stroke="#999" stroke-width="3" x1="1733.0" x2="1733.0" y1="2621.0" y2="2181.0" /><line stroke="#999" stroke-width="3" x1="1733.0" x2="1349.0" y1="2181.0" y2="2181.0" /><line stroke="#999" stroke-width="3" x1="1349.0" x2="1285.0" y1="2181.0" y2="2117.0" /><line stroke="#666" stroke-width="20" x1="1285.0" x2="1221.0" y1="2117.0" y2="2117.0" /><line stroke="#333" stroke-width="10" x1="1221.0" x2="1221.0" y1="2053.0" y2="2117.0" /><line stroke="#333" stroke-width="10" x1="1285.0" x2="1285.0" y1="2117.0" y2="2053.0" /><line stroke="#333" stroke-width="10" x1="837.0" x2="837.0" y1="2117.0" y2="3333.0" /><line stroke="#333" stroke-width="10" x1="837.0" x2="1989.0" y1="3333.0" y2="3333.0" /><line stroke="#333" stroke-width="10" x1="1989.0" x2="1989.0" y1="3333.0" y2="2117.0" /><line stroke="#333" stroke-width="10" x1="1989.0" x2="1925.0" y1="2117.0" y2="2117.0" /><line stroke="#333" stroke-width="10" x1="1221.0" x2="837.0" y1="2117.0" y2="2117.0" /><line stroke="#999" stroke-width="3" x1="1093.0" x2="1093.0" y1="1605.0" y2="1541.0" /><line stroke="#333" stroke-width="10" x1="1093.0" x2="1093.0" y1="1541.0" y2="1093.0" /><line stroke="#999" stroke-width="3" x1="1157.0" x2="1157.0" y1="1541.0" y2="1605.0" /><line stroke="#333" stroke-width="10" x1="1157.0" x2="1157.0" y1="1605.0" y2="1925.0" /><line stroke="#333" stroke-width="10" x1="1093.0" x2="1157.0" y1="1605.0" y2="1605.0" /><line stroke="#333" stroke-width="10" x1="1157.0" x2="1093.0" y1="1541.0" y2="1541.0" /><line stroke="#d00" stroke-width="20" x1="1925.0" x2="1861.0" y1="2117.0" y2="2117.0" /><line stroke="#333" stroke-width="10" x1="1861.0" x2="1285.0" y1="2117.0" y2="2117.0" /><line stroke="#333" stroke-width="10" x1="1861.0" x2="1861.0" y1="1605.0" y2="2053.0" /><line stroke="#666" stroke-width="20" x1="1861.0" x2="1925.0" y1="2053.0" y2="2053.0" /><line stroke="#333" stroke-width="10" x1="1925.0" x2="1925.0" y1="2053.0" y2="1605.0" /><line stroke="#999" stroke-width="3" x1="1925.0" x2="1861.0" y1="1605.0" y2="1605.0" /><line stroke="#333" stroke-width="10" x1="1861.0" x2="1861.0" y1="2053.0" y2="2117.0" /><line stroke="#333" stroke-width="10" x1="1925.0" x2="1925.0" y1="2117.0" y2="2053.0" /><line stroke="#333" stroke-width="10" x1="1861.0" x2="1861.0" y1="1157.0" y2="1605.0" /><line stroke="#333" stroke-width="10" x1="1925.0" x2="1925.0" y1="1605.0" y2="1157.0" /><line stroke="#999" stroke-width="3" x1="1925.0" x2="1861.0" y1="1157.0" y2="1157.0" /><line stroke="#333" stroke-width="10" x1="1861.0" x2="1861.0" y1="1029.0" y2="1157.0" /><line stroke="#333" stroke-width="10" x1="1925.0" x2="1925.0" y1="1157.0" y2="1029.0" /><line stroke="#999" stroke-width="3" x1="1925.0" x2="1861.0" y1="1029.0" y2="1029.0" /><line stroke="#333" stroke-width="10" x1="1862.0" x2="1861.0" y1="902.0" y2="1029.0" /><line stroke="#333" stroke-width="10" x1="1925.0" x2="1925.0" y1="1029.0" y2="901.0" /><line stroke="#999" stroke-width="3" x1="1925.0" x2="1862.0" y1="901.0" y2="902.0" /><line stroke="#333" stroke-width="10" x1="1861.0" x2="1862.0" y1="773.0" y2="902.0" /><line stroke="#333" stroke-width="10" x1="1925.0" x2="1925.0" y1="901.0" y2="773.0" /><line stroke="#999" stroke-width="3" x1="1925.0" x2="1861.0" y1="773.0" y2="773.0" /><line stroke="#999" stroke-width="3" x1="1861.0" x2="1925.0" y1="709.0" y2="709.0" /><line stroke="#333" stroke-width="10" x1="1925.0" x2="2053.0" y1="709.0" y2="709.0" /><line stroke="#333" stroke-width="10" x1="1861.0" x2="1861.0" y1="709.0" y2="773.0" /><line stroke="#333" stroke-width="10" x1="1925.0" x2="1925.0" y1="773.0" y2="709.0" /><line stroke="#00d" stroke-width="20" x1="1093.0" x2="1093.0" y1="2565.0" y2="2629.0" /><line stroke="#00d" stroke-width="20" x1="1093.0" x2="1157.0" y1="2629.0" y2="2629.0" /><line stroke="#00d" stroke-width="20" x1="1157.0" x2="1157.0" y1="2629.0" y2="2565.0" /><line stroke="#00d" stroke-width="20" x1="1157.0" x2="1093.0" y1="2565.0" y2="2565.0" /><ellipse cx="261.0" cy="1381.0" fill="#009" rx="12" ry="24" stroke="#009" stroke-width="5" /><ellipse cx="261.0" cy="1469.0" fill="#009" rx="12" ry="24" stroke="#009" stroke-width="5" /><ellipse cx="261.0" cy="1285.0" fill="#009" rx="12" ry="24" stroke="#009" stroke-width="5" /><ellipse cx="325.0" cy="1381.0" fill="#009" rx="12" ry="24" stroke="#009" stroke-width="5" /><rect fill="#900" height="48" stroke="#900" stroke-width="5" transform="rotate(0,741.0,1381.0)" width="32" x="725.0" y="1357.0" /><rect fill="#900" height="48" stroke="#900" stroke-width="5" transform="rotate(0,901.0,1485.0)" width="32" x="885.0" y="1461.0" /><rect fill="#900" height="48" stroke="#900" stroke-width="5" transform="rotate(0,875.0,1287.0)" width="32" x="859.0" y="1263.0" /><rect fill="#900" height="48" stroke="#900" stroke-width="5" transform="rotate(0,941.0,1389.0)" width="32" x="925.0" y="1365.0" /><rect fill="#090" height="24" stroke="#090" stroke-width="5" transform="rotate(90,997.0,1046.0)" width="24" x="985.0" y="1034.0" /><rect fill="#090" height="24" stroke="#090" stroke-width="5" transform="rotate(90,991.0,996.0)" width="24" x="979.0" y="984.0" /><circle cx="419.0" cy="1388.0" fill="#090" r="16" stroke="#090" stroke-width="5" /><rect fill="#900" height="48" stroke="#900" stroke-width="5" transform="rotate(270,1177.0,1057.0)" width="32" x="1161.0" y="1033.0" /><rect fill="#900" height="48" stroke="#900" stroke-width="5" transform="rotate(180,1333.0,997.0)" width="32" x="1317.0" y="973.0" /><rect fill="#900" height="48" stroke="#900" stroke-width="5" transform="rotate(225,1275.0,1074.0)" width="32" x="1259.0" y="1050.0" /><rect fill="#900" height="48" stroke="#900" stroke-width="5" transform="rotate(270,1220.0,1892.0)" width="32" x="1204.0" y="1868.0" /><rect fill="#900" height="48" stroke="#900" stroke-width="5" transform="rotate(90,1221.0,1469.0)" width="32" x="1205.0" y="1445.0" /><circle cx="1284.0" cy="830.0" fill="#090" r="16" stroke="#090" stroke-width="5" /><rect fill="#900" height="48" stroke="#900" stroke-width="5" transform="rotate(270,1284.0,827.0)" width="32" x="1268.0" y="803.0" /><circle cx="1336.0" cy="830.0" fill="#090" r="16" stroke="#090" stroke-width="5" /><circle cx="1400.0" cy="836.0" fill="#090" r="16" stroke="#090" stroke-width="5" /><rect fill="#090" height="24" stroke="#090" stroke-width="5" transform="rotate(270,1421.0,869.0)" width="24" x="1409.0" y="857.0" /><rect fill="#900" height="48" stroke="#900" stroke-width="5" transform="rotate(135,1605.0,837.0)" width="32" x="1589.0" y="813.0" /><rect fill="#900" height="48" stroke="#900" stroke-width="5" transform="rotate(180,1621.0,1071.0)" width="32" x="1605.0" y="1047.0" /><ellipse cx="1141.0" cy="3109.0" fill="#090" rx="12" ry="24" stroke="#090" stroke-width="5" /><circle cx="1192.0" cy="2017.0" fill="#090" r="16" stroke="#090" stroke-width="5" /><circle cx="1213.0" cy="2005.0" fill="#090" r="16" stroke="#090" stroke-width="5" /><circle cx="1199.0" cy="1989.0" fill="#900" r="16" stroke="#900" stroke-width="5" /><circle cx="1220.0" cy="1351.0" fill="#090" r="16" stroke="#090" stroke-width="5" /><circle cx="1242.0" cy="1351.0" fill="#090" r="16" stroke="#090" stroke-width="5" /><circle cx="1269.0" cy="1349.0" fill="#090" r="16" stroke="#090" stroke-width="5" /><rect fill="#900" height="48" stroke="#900" stroke-width="5" transform="rotate(180,1991.0,652.0)" width="32" x="1975.0" y="628.0" /><rect fill="#900" height="48" stroke="#900" stroke-width="5" transform="rotate(135,1997.0,69.0)" width="32" x="1981.0" y="45.0" /><rect fill="#090" height="24" stroke="#090" stroke-width="5" transform="rotate(0,389.0,1525.0)" width="24" x="377.0" y="1513.0" /><rect fill="#090" height="24" stroke="#090" stroke-width="5" transform="rotate(0,269.0,1525.0)" width="24" x="257.0" y="1513.0" /><rect fill="#090" height="24" stroke="#090" stroke-width="5" transform="rotate(0,264.0,1239.0)" width="24" x="252.0" y="1227.0" /><rect fill="#090" height="24" stroke="#090" stroke-width="5" transform="rotate(0,383.0,1239.0)" width="24" x="371.0" y="1227.0" /><circle cx="1316.0" cy="676.0" fill="#009" r="16" stroke="#009" stroke-width="5" /><circle cx="1316.0" cy="626.0" fill="#009" r="16" stroke="#009" stroke-width="5" /><circle cx="1312.0" cy="580.0" fill="#009" r="16" stroke="#009" stroke-width="5" /><rect fill="#900" height="48" stroke="#900" stroke-width="5" transform="rotate(135,1575.0,359.0)" width="32" x="1559.0" y="335.0" /><circle cx="1315.0" cy="1776.0" fill="#090" r="16" stroke="#090" stroke-width="5" /><circle cx="1315.0" cy="1830.0" fill="#090" r="16" stroke="#090" stroke-width="5" /><circle cx="1315.0" cy="1884.0" fill="#090" r="16" stroke="#090" stroke-width="5" /><circle cx="1687.0" cy="2725.0" fill="#090" r="16" stroke="#090" stroke-width="5" /><circle cx="1179.0" cy="3111.0" fill="#090" r="16" stroke="#090" stroke-width="5" /><circle cx="1694.0" cy="3104.0" fill="#090" r="16" stroke="#090" stroke-width="5" /><circle cx="1701.0" cy="2223.0" fill="#090" r="16" stroke="#090" stroke-width="5" /><circle cx="1267.0" cy="2203.0" fill="#090" r="16" stroke="#090" stroke-width="5" /><rect fill="#900" height="48" stroke="#900" stroke-width="5" transform="rotate(90,1221.0,3117.0)" width="32" x="1205.0" y="3093.0" /><rect fill="#900" height="48" stroke="#900" stroke-width="5" transform="rotate(225,1640.0,3077.0)" width="32" x="1624.0" y="3053.0" /><rect fill="#900" height="48" stroke="#900" stroke-width="5" transform="rotate(180,1645.0,2253.0)" width="32" x="1629.0" y="2229.0" /><rect fill="#900" height="48" stroke="#900" stroke-width="5" transform="rotate(225,1775.0,3185.0)" width="32" x="1759.0" y="3161.0" /><rect fill="#090" height="24" stroke="#090" stroke-width="5" transform="rotate(0,1122.0,1574.0)" width="24" x="1110.0" y="1562.0" /><circle cx="1891.0" cy="1959.0" fill="#090" r="16" stroke="#090" stroke-width="5" /><circle cx="1891.0" cy="1886.0" fill="#090" r="16" stroke="#090" stroke-width="5" /><circle cx="1893.0" cy="1823.0" fill="#090" r="16" stroke="#090" stroke-width="5" /><circle cx="1893.0" cy="1761.0" fill="#090" r="16" stroke="#090" stroke-width="5" /><circle cx="1893.0" cy="1699.0" fill="#090" r="16" stroke="#090" stroke-width="5" /><circle cx="1895.0" cy="1639.0" fill="#090" r="16" stroke="#090" stroke-width="5" /><rect fill="#090" height="24" stroke="#090" stroke-width="5" transform="rotate(0,1893.0,1561.0)" width="24" x="1881.0" y="1549.0" /><circle cx="1892.0" cy="1494.0" fill="#900" r="16" stroke="#900" stroke-width="5" /><rect fill="#009" height="24" stroke="#009" stroke-width="5" transform="rotate(0,1706.0,2725.0)" width="24" x="1694.0" y="2713.0" /><circle cx="1282.0" cy="2012.0" fill="#009" r="16" stroke="#009" stroke-width="5" /></svg>