<?xml version="1.0" encoding="utf-8" ?>
<svg baseProfile="tiny" height="809" version="1.2" viewBox="0 0 2442 1930" width="1024" xmlns="http://www.w3.org/2000/svg" xmlns:ev="http://www.w3.org/2001/xml-events" xmlns:xlink="http://www.w3.org/1999/xlink"><defs /><line stroke="#999" stroke-width="3" x1="1925.0" x2="2245.0" y1="773.0" y2="581.0" /><line stroke="#333" stroke-width="10" x1="2245.0" x2="2181.0" y1="581.0" y2="517.0" /><line stroke="#333" stroke-width="10" x1="2181.0" x2="2117.0" y1="517.0" y2="453.0" /><line stroke="#999" stroke-width="3" x1="1925.0" x2="2117.0" y1="773.0" y2="453.0" /><line stroke="#999" stroke-width="3" x1="1925.0" x2="2245.0" y1="773.0" y2="709.0" /><line stroke="#333" stroke-width="10" x1="2245.0" x2="2245.0" y1="709.0" y2="581.0" /><line stroke="#999" stroke-width="3" x1="1925.0" x2="2245.0" y1="773.0" y2="837.0" /><line stroke="#333" stroke-width="10" x1="2245.0" x2="2245.0" y1="837.0" y2="709.0" /><line stroke="#999" stroke-width="3" x1="1925.0" x2="2245.0" y1="773.0" y2="965.0" /><line stroke="#333" stroke-width="10" x1="2245.0" x2="2245.0" y1="965.0" y2="837.0" /><line stroke="#333" stroke-width="10" x1="2117.0" x2="2181.0" y1="1093.0" y2="1029.0" /><line stroke="#333" stroke-width="10" x1="2181.0" x2="2245.0" y1="1029.0" y2="965.0" /><line stroke="#999" stroke-width="3" x1="1925.0" x2="2117.0" y1="773.0" y2="1093.0" /><line stroke="#333" stroke-width="10" x1="1797.0" x2="1797.0" y1="773.0" y2="901.0" /><line stroke="#333" stroke-width="10" x1="1797.0" x2="1893.0" y1="1093.0" y2="1093.0" /><line stroke="#999" stroke-width="3" x1="1925.0" x2="1797.0" y1="773.0" y2="773.0" /><line stroke="#333" stroke-width="10" x1="2117.0" x2="1989.0" y1="453.0" y2="453.0" /><line stroke="#333" stroke-width="10" x1="1797.0" x2="1797.0" y1="453.0" y2="517.0" /><line stroke="#333" stroke-width="10" x1="1765.0" x2="1797.0" y1="1029.0" y2="1029.0" /><line stroke="#666" stroke-width="20" x1="1797.0" x2="1797.0" y1="901.0" y2="1029.0" /><line stroke="#333" stroke-width="10" x1="1797.0" x2="1765.0" y1="901.0" y2="901.0" /><line stroke="#666" stroke-width="20" x1="1765.0" x2="1765.0" y1="1029.0" y2="901.0" /><line stroke="#333" stroke-width="10" x1="1797.0" x2="1797.0" y1="1029.0" y2="1093.0" /><line stroke="#333" stroke-width="10" x1="1765.0" x2="1797.0" y1="645.0" y2="645.0" /><line stroke="#666" stroke-width="20" x1="1797.0" x2="1797.0" y1="645.0" y2="517.0" /><line stroke="#333" stroke-width="10" x1="1797.0" x2="1765.0" y1="517.0" y2="517.0" /><line stroke="#666" stroke-width="20" x1="1765.0" x2="1765.0" y1="517.0" y2="645.0" /><line stroke="#333" stroke-width="10" x1="1797.0" x2="1797.0" y1="645.0" y2="773.0" /><line stroke="#333" stroke-width="10" x1="1285.0" x2="1365.0" y1="1029.0" y2="1029.0" /><line stroke="#333" stroke-width="10" x1="1765.0" x2="1669.0" y1="901.0" y2="901.0" /><line stroke="#999" stroke-width="3" x1="1285.0" x2="1285.0" y1="773.0" y2="1029.0" /><line stroke="#333" stroke-width="10" x1="1669.0" x2="1669.0" y1="901.0" y2="773.0" /><line stroke="#333" stroke-width="10" x1="1669.0" x2="1285.0" y1="773.0" y2="773.0" /><line stroke="#333" stroke-width="10" x1="1221.0" x2="1221.0" y1="1221.0" y2="1093.0" /><line stroke="#333" stroke-width="10" x1="1285.0" x2="1221.0" y1="773.0" y2="773.0" /><line stroke="#333" stroke-width="10" x1="901.0" x2="901.0" y1="773.0" y2="949.0" /><line stroke="#333" stroke-width="10" x1="1221.0" x2="1285.0" y1="1093.0" y2="1029.0" /><line stroke="#333" stroke-width="10" x1="901.0" x2="1029.0" y1="709.0" y2="709.0" /><line stroke="#333" stroke-width="10" x1="1765.0" x2="1765.0" y1="517.0" y2="453.0" /><line stroke="#333" stroke-width="10" x1="901.0" x2="901.0" y1="453.0" y2="709.0" /><line stroke="#999" stroke-width="3" x1="1029.0" x2="1093.0" y1="773.0" y2="773.0" /><line stroke="#333" stroke-width="10" x1="1093.0" x2="1093.0" y1="773.0" y2="709.0" /><line stroke="#999" stroke-width="3" x1="1029.0" x2="1093.0" y1="709.0" y2="709.0" /><line stroke="#333" stroke-width="10" x1="1029.0" x2="1029.0" y1="709.0" y2="773.0" /><line stroke="#333" stroke-width="10" x1="1029.0" x2="901.0" y1="773.0" y2="773.0" /><line stroke="#333" stroke-width="10" x1="1093.0" x2="1157.0" y1="709.0" y2="709.0" /><line stroke="#999" stroke-width="3" x1="1157.0" x2="1221.0" y1="773.0" y2="773.0" /><line stroke="#333" stroke-width="10" x1="1221.0" x2="1221.0" y1="773.0" y2="709.0" /><line stroke="#999" stroke-width="3" x1="1157.0" x2="1221.0" y1="709.0" y2="709.0" /><line stroke="#333" stroke-width="10" x1="1157.0" x2="1157.0" y1="709.0" y2="773.0" /><line stroke="#333" stroke-width="10" x1="1157.0" x2="1093.0" y1="773.0" y2="773.0" /><line stroke="#333" stroke-width="10" x1="1221.0" x2="1255.0" y1="709.0" y2="709.0" /><line stroke="#333" stroke-width="10" x1="1765.0" x2="1765.0" y1="709.0" y2="645.0" /><line stroke="#333" stroke-width="10" x1="1765.0" x2="1701.0" y1="453.0" y2="453.0" /><line stroke="#333" stroke-width="10" x1="901.0" x2="997.0" y1="1221.0" y2="1221.0" /><line stroke="#333" stroke-width="10" x1="1255.0" x2="1765.0" y1="709.0" y2="709.0" /><line stroke="#333" stroke-width="10" x1="1255.0" x2="1157.0" y1="453.0" y2="453.0" /><line stroke="#666" stroke-width="20" x1="1255.0" x2="1255.0" y1="709.0" y2="453.0" /><line stroke="#666" stroke-width="20" x1="1989.0" x2="1861.0" y1="453.0" y2="453.0" /><line stroke="#333" stroke-width="10" x1="1989.0" x2="1989.0" y1="453.0" y2="421.0" /><line stroke="#333" stroke-width="10" x1="1861.0" x2="1861.0" y1="421.0" y2="453.0" /><line stroke="#333" stroke-width="10" x1="1861.0" x2="1797.0" y1="453.0" y2="453.0" /><line stroke="#666" stroke-width="20" x1="1861.0" x2="1989.0" y1="421.0" y2="421.0" /><line stroke="#333" stroke-width="10" x1="1989.0" x2="1989.0" y1="421.0" y2="261.0" /><line stroke="#333" stroke-width="10" x1="2053.0" x2="2277.0" y1="197.0" y2="197.0" /><line stroke="#333" stroke-width="10" x1="1861.0" x2="1861.0" y1="133.0" y2="421.0" /><line stroke="#333" stroke-width="10" x1="1989.0" x2="2053.0" y1="261.0" y2="197.0" /><line stroke="#333" stroke-width="10" x1="1925.0" x2="1861.0" y1="69.0" y2="133.0" /><line stroke="#333" stroke-width="10" x1="2277.0" x2="1925.0" y1="69.0" y2="69.0" /><line stroke="#999" stroke-width="3" x1="2277.0" x2="2277.0" y1="197.0" y2="69.0" /><line stroke="#333" stroke-width="10" x1="2277.0" x2="2277.0" y1="197.0" y2="965.0" /><line stroke="#999" stroke-width="3" x1="2277.0" x2="2437.0" y1="965.0" y2="965.0" /><line stroke="#333" stroke-width="10" x1="2437.0" x2="2277.0" y1="69.0" y2="69.0" /><line stroke="#333" stroke-width="10" x1="2437.0" x2="2437.0" y1="965.0" y2="69.0" /><line stroke="#999" stroke-width="3" x1="2117.0" x2="2149.0" y1="1125.0" y2="1253.0" /><line stroke="#333" stroke-width="10" x1="2149.0" x2="2437.0" y1="1253.0" y2="965.0" /><line stroke="#333" stroke-width="10" x1="2277.0" x2="2117.0" y1="965.0" y2="1125.0" /><line stroke="#333" stroke-width="10" x1="1797.0" x2="2149.0" y1="1253.0" y2="1253.0" /><line stroke="#333" stroke-width="10" x1="2117.0" x2="2021.0" y1="1125.0" y2="1125.0" /><line stroke="#333" stroke-width="10" x1="1797.0" x2="1797.0" y1="1125.0" y2="1253.0" /><line stroke="#333" stroke-width="10" x1="2021.0" x2="2021.0" y1="1125.0" y2="1093.0" /><line stroke="#666" stroke-width="20" x1="1893.0" x2="2021.0" y1="1093.0" y2="1093.0" /><line stroke="#333" stroke-width="10" x1="1893.0" x2="1893.0" y1="1093.0" y2="1125.0" /><line stroke="#666" stroke-width="20" x1="2021.0" x2="1893.0" y1="1125.0" y2="1125.0" /><line stroke="#333" stroke-width="10" x1="1893.0" x2="1797.0" y1="1125.0" y2="1125.0" /><line stroke="#333" stroke-width="10" x1="2021.0" x2="2117.0" y1="1093.0" y2="1093.0" /><line stroke="#666" stroke-width="20" x1="1125.0" x2="997.0" y1="1253.0" y2="1253.0" /><line stroke="#333" stroke-width="10" x1="1125.0" x2="1125.0" y1="1253.0" y2="1221.0" /><line stroke="#666" stroke-width="20" x1="997.0" x2="1125.0" y1="1221.0" y2="1221.0" /><line stroke="#333" stroke-width="10" x1="997.0" x2="997.0" y1="1221.0" y2="1253.0" /><line stroke="#333" stroke-width="10" x1="1125.0" x2="1221.0" y1="1221.0" y2="1221.0" /><line stroke="#666" stroke-width="20" x1="997.0" x2="1125.0" y1="1669.0" y2="1669.0" /><line stroke="#999" stroke-width="3" x1="1125.0" x2="1125.0" y1="1669.0" y2="1637.0" /><line stroke="#999" stroke-width="3" x1="997.0" x2="997.0" y1="1253.0" y2="1285.0" /><line stroke="#333" stroke-width="10" x1="933.0" x2="933.0" y1="1637.0" y2="1669.0" /><line stroke="#333" stroke-width="10" x1="997.0" x2="933.0" y1="1253.0" y2="1253.0" /><line stroke="#333" stroke-width="10" x1="933.0" x2="805.0" y1="1285.0" y2="1285.0" /><line stroke="#333" stroke-width="10" x1="1125.0" x2="1189.0" y1="1669.0" y2="1669.0" /><line stroke="#333" stroke-width="10" x1="1189.0" x2="1317.0" y1="1637.0" y2="1637.0" /><line stroke="#333" stroke-width="10" x1="1189.0" x2="1189.0" y1="1285.0" y2="1253.0" /><line stroke="#333" stroke-width="10" x1="1157.0" x2="1189.0" y1="1861.0" y2="1765.0" /><line stroke="#333" stroke-width="10" x1="1061.0" x2="1157.0" y1="1925.0" y2="1861.0" /><line stroke="#333" stroke-width="10" x1="965.0" x2="1061.0" y1="1861.0" y2="1925.0" /><line stroke="#333" stroke-width="10" x1="933.0" x2="965.0" y1="1765.0" y2="1861.0" /><line stroke="#333" stroke-width="10" x1="997.0" x2="997.0" y1="1669.0" y2="1701.0" /><line stroke="#333" stroke-width="10" x1="1189.0" x2="1125.0" y1="1765.0" y2="1701.0" /><line stroke="#333" stroke-width="10" x1="933.0" x2="997.0" y1="1669.0" y2="1669.0" /><line stroke="#333" stroke-width="10" x1="805.0" x2="933.0" y1="1637.0" y2="1637.0" /><line stroke="#333" stroke-width="10" x1="1189.0" x2="1189.0" y1="1669.0" y2="1637.0" /><line stroke="#333" stroke-width="10" x1="1317.0" x2="1317.0" y1="1637.0" y2="1285.0" /><line stroke="#333" stroke-width="10" x1="805.0" x2="805.0" y1="1285.0" y2="1477.0" /><line stroke="#333" stroke-width="10" x1="933.0" x2="933.0" y1="1253.0" y2="1285.0" /><line stroke="#333" stroke-width="10" x1="1189.0" x2="1125.0" y1="1253.0" y2="1253.0" /><line stroke="#333" stroke-width="10" x1="1317.0" x2="1189.0" y1="1285.0" y2="1285.0" /><line stroke="#999" stroke-width="3" x1="997.0" x2="997.0" y1="1285.0" y2="1509.0" /><line stroke="#999" stroke-width="3" x1="1125.0" x2="1125.0" y1="1285.0" y2="1253.0" /><line stroke="#999" stroke-width="3" x1="997.0" x2="1125.0" y1="1285.0" y2="1285.0" /><line stroke="#333" stroke-width="10" x1="869.0" x2="901.0" y1="1093.0" y2="1093.0" /><line stroke="#d00" stroke-width="20" x1="901.0" x2="901.0" y1="965.0" y2="1093.0" /><line stroke="#333" stroke-width="10" x1="901.0" x2="869.0" y1="965.0" y2="965.0" /><line stroke="#d00" stroke-width="20" x1="869.0" x2="869.0" y1="1093.0" y2="965.0" /><line stroke="#999" stroke-width="3" x1="549.0" x2="677.0" y1="1093.0" y2="1093.0" /><line stroke="#333" stroke-width="10" x1="869.0" x2="837.0" y1="965.0" y2="965.0" /><line stroke="#333" stroke-width="10" x1="549.0" x2="549.0" y1="965.0" y2="1093.0" /><line stroke="#333" stroke-width="10" x1="901.0" x2="901.0" y1="1093.0" y2="1109.0" /><line stroke="#333" stroke-width="10" x1="901.0" x2="901.0" y1="1109.0" y2="1221.0" /><line stroke="#333" stroke-width="10" x1="901.0" x2="901.0" y1="949.0" y2="965.0" /><line stroke="#333" stroke-width="10" x1="997.0" x2="933.0" y1="1701.0" y2="1765.0" /><line stroke="#333" stroke-width="10" x1="1125.0" x2="1125.0" y1="1701.0" y2="1669.0" /><line stroke="#666" stroke-width="20" x1="1125.0" x2="997.0" y1="1701.0" y2="1701.0" /><line stroke="#999" stroke-width="3" x1="997.0" x2="997.0" y1="1637.0" y2="1669.0" /><line stroke="#999" stroke-width="3" x1="1125.0" x2="1125.0" y1="1637.0" y2="1509.0" /><line stroke="#999" stroke-width="3" x1="997.0" x2="1125.0" y1="1637.0" y2="1637.0" /><line stroke="#999" stroke-width="3" x1="997.0" x2="997.0" y1="1509.0" y2="1637.0" /><line stroke="#999" stroke-width="3" x1="1125.0" x2="1125.0" y1="1509.0" y2="1285.0" /><line stroke="#666" stroke-width="20" x1="997.0" x2="1125.0" y1="1509.0" y2="1509.0" /><line stroke="#333" stroke-width="10" x1="213.0" x2="677.0" y1="1445.0" y2="1445.0" /><line stroke="#333" stroke-width="10" x1="677.0" x2="677.0" y1="1445.0" y2="1093.0" /><line stroke="#333" stroke-width="10" x1="549.0" x2="549.0" y1="1093.0" y2="1317.0" /><line stroke="#333" stroke-width="10" x1="677.0" x2="869.0" y1="1093.0" y2="1093.0" /><line stroke="#333" stroke-width="10" x1="549.0" x2="421.0" y1="1317.0" y2="1317.0" /><line stroke="#333" stroke-width="10" x1="213.0" x2="213.0" y1="1317.0" y2="1333.0" /><line stroke="#999" stroke-width="3" x1="261.0" x2="421.0" y1="1317.0" y2="1317.0" /><line stroke="#999" stroke-width="3" x1="421.0" x2="421.0" y1="1253.0" y2="1317.0" /><line stroke="#999" stroke-width="3" x1="357.0" x2="421.0" y1="1189.0" y2="1253.0" /><line stroke="#999" stroke-width="3" x1="261.0" x2="261.0" y1="1317.0" y2="1253.0" /><line stroke="#333" stroke-width="10" x1="261.0" x2="213.0" y1="1317.0" y2="1317.0" /><line stroke="#999" stroke-width="3" x1="325.0" x2="357.0" y1="1189.0" y2="1189.0" /><line stroke="#999" stroke-width="3" x1="261.0" x2="325.0" y1="1253.0" y2="1189.0" /><line stroke="#333" stroke-width="10" x1="421.0" x2="517.0" y1="1317.0" y2="1285.0" /><line stroke="#333" stroke-width="10" x1="517.0" x2="517.0" y1="1285.0" y2="965.0" /><line stroke="#333" stroke-width="10" x1="165.0" x2="261.0" y1="1285.0" y2="1317.0" /><line stroke="#333" stroke-width="10" x1="165.0" x2="165.0" y1="965.0" y2="1285.0" /><line stroke="#333" stroke-width="10" x1="517.0" x2="357.0" y1="965.0" y2="965.0" /><line stroke="#666" stroke-width="20" x1="357.0" x2="229.0" y1="965.0" y2="965.0" /><line stroke="#333" stroke-width="10" x1="357.0" x2="357.0" y1="965.0" y2="933.0" /><line stroke="#333" stroke-width="10" x1="229.0" x2="229.0" y1="933.0" y2="965.0" /><line stroke="#333" stroke-width="10" x1="229.0" x2="165.0" y1="965.0" y2="965.0" /><line stroke="#666" stroke-width="20" x1="229.0" x2="357.0" y1="933.0" y2="933.0" /><line stroke="#333" stroke-width="10" x1="357.0" x2="357.0" y1="933.0" y2="869.0" /><line stroke="#333" stroke-width="10" x1="357.0" x2="229.0" y1="741.0" y2="741.0" /><line stroke="#333" stroke-width="10" x1="229.0" x2="229.0" y1="741.0" y2="933.0" /><line stroke="#333" stroke-width="10" x1="357.0" x2="389.0" y1="869.0" y2="869.0" /><line stroke="#999" stroke-width="3" x1="645.0" x2="645.0" y1="869.0" y2="741.0" /><line stroke="#333" stroke-width="10" x1="645.0" x2="613.0" y1="741.0" y2="741.0" /><line stroke="#999" stroke-width="3" x1="357.0" x2="357.0" y1="741.0" y2="869.0" /><line stroke="#333" stroke-width="10" x1="389.0" x2="421.0" y1="869.0" y2="869.0" /><line stroke="#333" stroke-width="10" x1="421.0" x2="453.0" y1="869.0" y2="869.0" /><line stroke="#333" stroke-width="10" x1="453.0" x2="485.0" y1="869.0" y2="869.0" /><line stroke="#333" stroke-width="10" x1="485.0" x2="517.0" y1="869.0" y2="869.0" /><line stroke="#333" stroke-width="10" x1="517.0" x2="549.0" y1="869.0" y2="869.0" /><line stroke="#333" stroke-width="10" x1="549.0" x2="581.0" y1="869.0" y2="869.0" /><line stroke="#333" stroke-width="10" x1="581.0" x2="613.0" y1="869.0" y2="869.0" /><line stroke="#333" stroke-width="10" x1="613.0" x2="645.0" y1="869.0" y2="869.0" /><line stroke="#333" stroke-width="10" x1="389.0" x2="357.0" y1="741.0" y2="741.0" /><line stroke="#333" stroke-width="10" x1="421.0" x2="389.0" y1="741.0" y2="741.0" /><line stroke="#333" stroke-width="10" x1="453.0" x2="421.0" y1="741.0" y2="741.0" /><line stroke="#333" stroke-width="10" x1="485.0" x2="453.0" y1="741.0" y2="741.0" /><line stroke="#333" stroke-width="10" x1="517.0" x2="485.0" y1="741.0" y2="741.0" /><line stroke="#333" stroke-width="10" x1="549.0" x2="517.0" y1="741.0" y2="741.0" /><line stroke="#333" stroke-width="10" x1="581.0" x2="549.0" y1="741.0" y2="741.0" /><line stroke="#333" stroke-width="10" x1="613.0" x2="581.0" y1="741.0" y2="741.0" /><line stroke="#999" stroke-width="3" x1="613.0" x2="613.0" y1="869.0" y2="741.0" /><line stroke="#999" stroke-width="3" x1="581.0" x2="581.0" y1="741.0" y2="869.0" /><line stroke="#999" stroke-width="3" x1="549.0" x2="549.0" y1="869.0" y2="741.0" /><line stroke="#999" stroke-width="3" x1="517.0" x2="517.0" y1="869.0" y2="741.0" /><line stroke="#999" stroke-width="3" x1="485.0" x2="485.0" y1="869.0" y2="741.0" /><line stroke="#999" stroke-width="3" x1="453.0" x2="453.0" y1="741.0" y2="869.0" /><line stroke="#999" stroke-width="3" x1="421.0" x2="421.0" y1="869.0" y2="741.0" /><line stroke="#999" stroke-width="3" x1="389.0" x2="389.0" y1="869.0" y2="741.0" /><line stroke="#333" stroke-width="10" x1="645.0" x2="645.0" y1="869.0" y2="933.0" /><line stroke="#999" stroke-width="3" x1="677.0" x2="709.0" y1="965.0" y2="965.0" /><line stroke="#333" stroke-width="10" x1="837.0" x2="645.0" y1="741.0" y2="741.0" /><line stroke="#333" stroke-width="10" x1="677.0" x2="549.0" y1="965.0" y2="965.0" /><line stroke="#333" stroke-width="10" x1="837.0" x2="837.0" y1="965.0" y2="741.0" /><line stroke="#333" stroke-width="10" x1="645.0" x2="677.0" y1="933.0" y2="965.0" /><line stroke="#999" stroke-width="3" x1="709.0" x2="805.0" y1="965.0" y2="965.0" /><line stroke="#999" stroke-width="3" x1="805.0" x2="837.0" y1="965.0" y2="965.0" /><line stroke="#666" stroke-width="20" x1="1509.0" x2="1381.0" y1="1061.0" y2="1061.0" /><line stroke="#333" stroke-width="10" x1="1509.0" x2="1509.0" y1="1061.0" y2="1029.0" /><line stroke="#666" stroke-width="20" x1="1381.0" x2="1509.0" y1="1029.0" y2="1029.0" /><line stroke="#333" stroke-width="10" x1="1381.0" x2="1381.0" y1="1029.0" y2="1061.0" /><line stroke="#333" stroke-width="10" x1="1509.0" x2="1525.0" y1="1029.0" y2="1029.0" /><line stroke="#333" stroke-width="10" x1="1365.0" x2="1381.0" y1="1029.0" y2="1029.0" /><line stroke="#333" stroke-width="10" x1="1525.0" x2="1765.0" y1="1029.0" y2="1029.0" /><line stroke="#999" stroke-width="3" x1="1381.0" x2="1509.0" y1="1349.0" y2="1349.0" /><line stroke="#333" stroke-width="10" x1="1509.0" x2="1509.0" y1="1349.0" y2="1061.0" /><line stroke="#333" stroke-width="10" x1="1381.0" x2="1381.0" y1="1061.0" y2="1349.0" /><line stroke="#999" stroke-width="3" x1="1509.0" x2="1381.0" y1="1477.0" y2="1477.0" /><line stroke="#0d0" stroke-width="20" x1="1509.0" x2="1509.0" y1="1477.0" y2="1349.0" /><line stroke="#0d0" stroke-width="20" x1="1381.0" x2="1381.0" y1="1349.0" y2="1477.0" /><line stroke="#333" stroke-width="10" x1="1381.0" x2="1509.0" y1="1637.0" y2="1637.0" /><line stroke="#333" stroke-width="10" x1="1509.0" x2="1509.0" y1="1637.0" y2="1477.0" /><line stroke="#333" stroke-width="10" x1="1381.0" x2="1381.0" y1="1477.0" y2="1637.0" /><line stroke="#999" stroke-width="3" x1="1477.0" x2="1413.0" y1="1621.0" y2="1621.0" /><line stroke="#999" stroke-width="3" x1="1477.0" x2="1477.0" y1="1605.0" y2="1621.0" /><line stroke="#0d0" stroke-width="20" x1="1413.0" x2="1477.0" y1="1605.0" y2="1605.0" /><line stroke="#999" stroke-width="3" x1="1413.0" x2="1413.0" y1="1621.0" y2="1605.0" /><line stroke="#333" stroke-width="10" x1="1157.0" x2="1189.0" y1="997.0" y2="997.0" /><line stroke="#333" stroke-width="10" x1="1189.0" x2="1189.0" y1="997.0" y2="1029.0" /><line stroke="#333" stroke-width="10" x1="1189.0" x2="1157.0" y1="1029.0" y2="1029.0" /><line stroke="#333" stroke-width="10" x1="1157.0" x2="1157.0" y1="1029.0" y2="997.0" /><line stroke="#333" stroke-width="10" x1="1029.0" x2="1061.0" y1="997.0" y2="997.0" /><line stroke="#333" stroke-width="10" x1="1061.0" x2="1061.0" y1="997.0" y2="1029.0" /><line stroke="#333" stroke-width="10" x1="1061.0" x2="1029.0" y1="1029.0" y2="1029.0" /><line stroke="#333" stroke-width="10" x1="1029.0" x2="1029.0" y1="1029.0" y2="997.0" /><line stroke="#333" stroke-width="10" x1="1509.0" x2="1509.0" y1="869.0" y2="901.0" /><line stroke="#333" stroke-width="10" x1="1509.0" x2="1477.0" y1="901.0" y2="933.0" /><line stroke="#333" stroke-width="10" x1="1477.0" x2="1445.0" y1="933.0" y2="933.0" /><line stroke="#333" stroke-width="10" x1="1445.0" x2="1413.0" y1="933.0" y2="901.0" /><line stroke="#333" stroke-width="10" x1="1413.0" x2="1413.0" y1="901.0" y2="869.0" /><line stroke="#333" stroke-width="10" x1="1413.0" x2="1445.0" y1="869.0" y2="837.0" /><line stroke="#333" stroke-width="10" x1="1445.0" x2="1477.0" y1="837.0" y2="837.0" /><line stroke="#333" stroke-width="10" x1="1477.0" x2="1509.0" y1="837.0" y2="869.0" /><line stroke="#999" stroke-width="3" x1="997.0" x2="1157.0" y1="453.0" y2="453.0" /><line stroke="#333" stroke-width="10" x1="1157.0" x2="1157.0" y1="453.0" y2="437.0" /><line stroke="#999" stroke-width="3" x1="1157.0" x2="997.0" y1="437.0" y2="437.0" /><line stroke="#333" stroke-width="10" x1="997.0" x2="997.0" y1="437.0" y2="453.0" /><line stroke="#333" stroke-width="10" x1="997.0" x2="901.0" y1="453.0" y2="453.0" /><line stroke="#999" stroke-width="3" x1="1349.0" x2="1701.0" y1="453.0" y2="453.0" /><line stroke="#333" stroke-width="10" x1="1701.0" x2="1701.0" y1="453.0" y2="437.0" /><line stroke="#999" stroke-width="3" x1="1701.0" x2="1349.0" y1="437.0" y2="437.0" /><line stroke="#333" stroke-width="10" x1="1349.0" x2="1349.0" y1="437.0" y2="453.0" /><line stroke="#333" stroke-width="10" x1="1349.0" x2="1255.0" y1="453.0" y2="453.0" /><line stroke="#333" stroke-width="10" x1="1701.0" x2="1765.0" y1="437.0" y2="373.0" /><line stroke="#333" stroke-width="10" x1="1765.0" x2="933.0" y1="5.0" y2="5.0" /><line stroke="#999" stroke-width="3" x1="933.0" x2="933.0" y1="5.0" y2="133.0" /><line stroke="#333" stroke-width="10" x1="1157.0" x2="1349.0" y1="437.0" y2="437.0" /><line stroke="#333" stroke-width="10" x1="1765.0" x2="1765.0" y1="373.0" y2="5.0" /><line stroke="#333" stroke-width="10" x1="933.0" x2="997.0" y1="373.0" y2="437.0" /><line stroke="#333" stroke-width="10" x1="205.0" x2="213.0" y1="1429.0" y2="1429.0" /><line stroke="#999" stroke-width="3" x1="213.0" x2="213.0" y1="1429.0" y2="1333.0" /><line stroke="#333" stroke-width="10" x1="213.0" x2="205.0" y1="1333.0" y2="1333.0" /><line stroke="#999" stroke-width="3" x1="205.0" x2="205.0" y1="1333.0" y2="1429.0" /><line stroke="#333" stroke-width="10" x1="213.0" x2="213.0" y1="1429.0" y2="1445.0" /><line stroke="#333" stroke-width="10" x1="5.0" x2="205.0" y1="1573.0" y2="1573.0" /><line stroke="#333" stroke-width="10" x1="205.0" x2="133.0" y1="1333.0" y2="1309.0" /><line stroke="#333" stroke-width="10" x1="5.0" x2="5.0" y1="1189.0" y2="1573.0" /><line stroke="#999" stroke-width="3" x1="205.0" x2="205.0" y1="1573.0" y2="1477.0" /><line stroke="#333" stroke-width="10" x1="133.0" x2="133.0" y1="1309.0" y2="1189.0" /><line stroke="#999" stroke-width="3" x1="133.0" x2="5.0" y1="1189.0" y2="1189.0" /><line stroke="#333" stroke-width="10" x1="133.0" x2="133.0" y1="1189.0" y2="133.0" /><line stroke="#333" stroke-width="10" x1="133.0" x2="5.0" y1="5.0" y2="5.0" /><line stroke="#333" stroke-width="10" x1="5.0" x2="5.0" y1="5.0" y2="1189.0" /><line stroke="#333" stroke-width="10" x1="133.0" x2="933.0" y1="133.0" y2="133.0" /><line stroke="#333" stroke-width="10" x1="933.0" x2="133.0" y1="5.0" y2="5.0" /><line stroke="#999" stroke-width="3" x1="133.0" x2="133.0" y1="5.0" y2="133.0" /><line stroke="#333" stroke-width="10" x1="933.0" x2="933.0" y1="133.0" y2="373.0" /><line stroke="#333" stroke-width="10" x1="205.0" x2="805.0" y1="1573.0" y2="1573.0" /><line stroke="#999" stroke-width="3" x1="805.0" x2="805.0" y1="1573.0" y2="1477.0" /><line stroke="#333" stroke-width="10" x1="805.0" x2="205.0" y1="1477.0" y2="1477.0" /><line stroke="#333" stroke-width="10" x1="805.0" x2="805.0" y1="1573.0" y2="1637.0" /><line stroke="#333" stroke-width="10" x1="205.0" x2="205.0" y1="1477.0" y2="1429.0" /><ellipse cx="933.0" cy="581.0" fill="#009" rx="12" ry="24" stroke="#009" stroke-width="5" /><rect fill="#090" height="24" stroke="#090" stroke-width="5" transform="rotate(0,1829.0,805.0)" width="24" x="1817.0" y="793.0" /><rect fill="#090" height="24" stroke="#090" stroke-width="5" transform="rotate(0,1733.0,677.0)" width="24" x="1721.0" y="665.0" /><rect fill="#090" height="24" stroke="#090" stroke-width="5" transform="rotate(0,1829.0,1061.0)" width="24" x="1817.0" y="1049.0" /><rect fill="#090" height="24" stroke="#090" stroke-width="5" transform="rotate(0,1733.0,485.0)" width="24" x="1721.0" y="473.0" /><rect fill="#900" height="48" stroke="#900" stroke-width="5" transform="rotate(90,1061.0,741.0)" width="32" x="1045.0" y="717.0" /><rect fill="#900" height="48" stroke="#900" stroke-width="5" transform="rotate(90,1189.0,741.0)" width="32" x="1173.0" y="717.0" /><circle cx="1637.0" cy="805.0" fill="#900" r="16" stroke="#900" stroke-width="5" /><circle cx="1637.0" cy="869.0" fill="#090" r="16" stroke="#090" stroke-width="5" /><circle cx="1893.0" cy="1061.0" fill="#009" r="16" stroke="#009" stroke-width="5" /><circle cx="1957.0" cy="1061.0" fill="#009" r="16" stroke="#009" stroke-width="5" /><rect fill="#090" height="24" stroke="#090" stroke-width="5" transform="rotate(0,1829.0,965.0)" width="24" x="1817.0" y="953.0" /><rect fill="#900" height="48" stroke="#900" stroke-width="5" transform="rotate(270,1061.0,1797.0)" width="32" x="1045.0" y="1773.0" /><ellipse cx="1061.0" cy="1861.0" fill="#090" rx="12" ry="24" stroke="#090" stroke-width="5" /><rect fill="#900" height="48" stroke="#900" stroke-width="5" transform="rotate(270,997.0,1797.0)" width="32" x="981.0" y="1773.0" /><rect fill="#900" height="48" stroke="#900" stroke-width="5" transform="rotate(270,1125.0,1797.0)" width="32" x="1109.0" y="1773.0" /><circle cx="1285.0" cy="1605.0" fill="#009" r="16" stroke="#009" stroke-width="5" /><circle cx="1061.0" cy="1509.0" fill="#009" r="16" stroke="#009" stroke-width="5" /><rect fill="#090" height="24" stroke="#090" stroke-width="5" transform="rotate(0,965.0,1637.0)" width="24" x="953.0" y="1625.0" /><rect fill="#090" height="24" stroke="#090" stroke-width="5" transform="rotate(0,1157.0,1637.0)" width="24" x="1145.0" y="1625.0" /><rect fill="#090" height="24" stroke="#090" stroke-width="5" transform="rotate(0,933.0,1189.0)" width="24" x="921.0" y="1177.0" /><rect fill="#090" height="24" stroke="#090" stroke-width="5" transform="rotate(0,1189.0,1189.0)" width="24" x="1177.0" y="1177.0" /><circle cx="1109.0" cy="1013.0" fill="#900" r="16" stroke="#900" stroke-width="5" /><circle cx="933.0" cy="677.0" fill="#090" r="16" stroke="#090" stroke-width="5" /><circle cx="933.0" cy="485.0" fill="#090" r="16" stroke="#090" stroke-width="5" /><rect fill="#090" height="24" stroke="#090" stroke-width="5" transform="rotate(0,2309.0,997.0)" width="24" x="2297.0" y="985.0" /><rect fill="#090" height="24" stroke="#090" stroke-width="5" transform="rotate(0,2181.0,677.0)" width="24" x="2169.0" y="665.0" /><rect fill="#090" height="24" stroke="#090" stroke-width="5" transform="rotate(0,2181.0,773.0)" width="24" x="2169.0" y="761.0" /><rect fill="#090" height="24" stroke="#090" stroke-width="5" transform="rotate(0,2181.0,869.0)" width="24" x="2169.0" y="857.0" /><rect fill="#090" height="24" stroke="#090" stroke-width="5" transform="rotate(0,2117.0,965.0)" width="24" x="2105.0" y="953.0" /><rect fill="#090" height="24" stroke="#090" stroke-width="5" transform="rotate(0,2149.0,549.0)" width="24" x="2137.0" y="537.0" /><rect fill="#090" height="24" stroke="#090" stroke-width="5" transform="rotate(180,1861.0,581.0)" width="24" x="1849.0" y="569.0" /><circle cx="2405.0" cy="101.0" fill="#009" r="16" stroke="#009" stroke-width="5" /><rect fill="#090" height="24" stroke="#090" stroke-width="5" transform="rotate(0,1893.0,1157.0)" width="24" x="1881.0" y="1145.0" /><rect fill="#090" height="24" stroke="#090" stroke-width="5" transform="rotate(0,2021.0,1157.0)" width="24" x="2009.0" y="1145.0" /><rect fill="#900" height="48" stroke="#900" stroke-width="5" transform="rotate(270,1125.0,1733.0)" width="32" x="1109.0" y="1709.0" /><rect fill="#900" height="48" stroke="#900" stroke-width="5" transform="rotate(270,1061.0,1733.0)" width="32" x="1045.0" y="1709.0" /><rect fill="#900" height="48" stroke="#900" stroke-width="5" transform="rotate(270,997.0,1733.0)" width="32" x="981.0" y="1709.0" /><rect fill="#900" height="48" stroke="#900" stroke-width="5" transform="rotate(0,229.0,1253.0)" width="32" x="213.0" y="1229.0" /><rect fill="#900" height="48" stroke="#900" stroke-width="5" transform="rotate(180,453.0,1253.0)" width="32" x="437.0" y="1229.0" /><rect fill="#900" height="48" stroke="#900" stroke-width="5" transform="rotate(45,261.0,1189.0)" width="32" x="245.0" y="1165.0" /><rect fill="#900" height="48" stroke="#900" stroke-width="5" transform="rotate(90,341.0,1157.0)" width="32" x="325.0" y="1133.0" /><rect fill="#900" height="48" stroke="#900" stroke-width="5" transform="rotate(135,421.0,1189.0)" width="32" x="405.0" y="1165.0" /><rect fill="#900" height="48" stroke="#900" stroke-width="5" transform="rotate(270,2341.0,773.0)" width="32" x="2325.0" y="749.0" /><rect fill="#900" height="48" stroke="#900" stroke-width="5" transform="rotate(270,2405.0,581.0)" width="32" x="2389.0" y="557.0" /><rect fill="#900" height="48" stroke="#900" stroke-width="5" transform="rotate(270,2309.0,421.0)" width="32" x="2293.0" y="397.0" /><rect fill="#900" height="48" stroke="#900" stroke-width="5" transform="rotate(270,2373.0,261.0)" width="32" x="2357.0" y="237.0" /><rect fill="#090" height="24" stroke="#090" stroke-width="5" transform="rotate(270,261.0,1349.0)" width="24" x="249.0" y="1337.0" /><rect fill="#090" height="24" stroke="#090" stroke-width="5" transform="rotate(270,421.0,1349.0)" width="24" x="409.0" y="1337.0" /><rect fill="#090" height="24" stroke="#090" stroke-width="5" transform="rotate(270,565.0,1109.0)" width="24" x="553.0" y="1097.0" /><rect fill="#090" height="24" stroke="#090" stroke-width="5" transform="rotate(270,661.0,1109.0)" width="24" x="649.0" y="1097.0" /><circle cx="837.0" cy="1605.0" fill="#009" r="16" stroke="#009" stroke-width="5" /><circle cx="837.0" cy="1317.0" fill="#009" r="16" stroke="#009" stroke-width="5" /><circle cx="1285.0" cy="1317.0" fill="#009" r="16" stroke="#009" stroke-width="5" /><ellipse cx="741.0" cy="901.0" fill="#090" rx="12" ry="24" stroke="#090" stroke-width="5" /><rect fill="#900" height="48" stroke="#900" stroke-width="5" transform="rotate(45,197.0,997.0)" width="32" x="181.0" y="973.0" /><rect fill="#900" height="48" stroke="#900" stroke-width="5" transform="rotate(135,485.0,997.0)" width="32" x="469.0" y="973.0" /><rect fill="#900" height="48" stroke="#900" stroke-width="5" transform="rotate(90,805.0,901.0)" width="32" x="789.0" y="877.0" /><rect fill="#900" height="48" stroke="#900" stroke-width="5" transform="rotate(90,677.0,901.0)" width="32" x="661.0" y="877.0" /><rect fill="#900" height="48" stroke="#900" stroke-width="5" transform="rotate(90,741.0,837.0)" width="32" x="725.0" y="813.0" /><rect fill="#900" height="48" stroke="#900" stroke-width="5" transform="rotate(90,677.0,773.0)" width="32" x="661.0" y="749.0" /><rect fill="#900" height="48" stroke="#900" stroke-width="5" transform="rotate(90,805.0,773.0)" width="32" x="789.0" y="749.0" /><rect fill="#090" height="24" stroke="#090" stroke-width="5" transform="rotate(90,261.0,773.0)" width="24" x="249.0" y="761.0" /><circle cx="357.0" cy="805.0" fill="#009" r="16" stroke="#009" stroke-width="5" /><circle cx="389.0" cy="805.0" fill="#009" r="16" stroke="#009" stroke-width="5" /><circle cx="421.0" cy="805.0" fill="#009" r="16" stroke="#009" stroke-width="5" /><circle cx="453.0" cy="805.0" fill="#009" r="16" stroke="#009" stroke-width="5" /><circle cx="485.0" cy="805.0" fill="#009" r="16" stroke="#009" stroke-width="5" /><circle cx="517.0" cy="805.0" fill="#009" r="16" stroke="#009" stroke-width="5" /><circle cx="549.0" cy="805.0" fill="#009" r="16" stroke="#009" stroke-width="5" /><circle cx="581.0" cy="805.0" fill="#009" r="16" stroke="#009" stroke-width="5" /><circle cx="613.0" cy="805.0" fill="#009" r="16" stroke="#009" stroke-width="5" /><rect fill="#900" height="48" stroke="#900" stroke-width="5" transform="rotate(270,1445.0,1413.0)" width="32" x="1429.0" y="1389.0" /><rect fill="#090" height="24" stroke="#090" stroke-width="5" transform="rotate(0,1253.0,133.0)" width="24" x="1241.0" y="121.0" /><rect fill="#090" height="24" stroke="#090" stroke-width="5" transform="rotate(0,1413.0,133.0)" width="24" x="1401.0" y="121.0" /><rect fill="#090" height="24" stroke="#090" stroke-width="5" transform="rotate(0,1573.0,133.0)" width="24" x="1561.0" y="121.0" /><rect fill="#090" height="24" stroke="#090" stroke-width="5" transform="rotate(0,1093.0,133.0)" width="24" x="1081.0" y="121.0" /><circle cx="1093.0" cy="69.0" fill="#900" r="16" stroke="#900" stroke-width="5" /><circle cx="1413.0" cy="69.0" fill="#090" r="16" stroke="#090" stroke-width="5" /><circle cx="1573.0" cy="69.0" fill="#090" r="16" stroke="#090" stroke-width="5" /><rect fill="#090" height="24" stroke="#090" stroke-width="5" transform="rotate(0,1541.0,261.0)" width="24" x="1529.0" y="249.0" /><rect fill="#090" height="24" stroke="#090" stroke-width="5" transform="rotate(0,1701.0,133.0)" width="24" x="1689.0" y="121.0" /><rect fill="#090" height="24" stroke="#090" stroke-width="5" transform="rotate(0,1285.0,293.0)" width="24" x="1273.0" y="281.0" /><rect fill="#090" height="24" stroke="#090" stroke-width="5" transform="rotate(0,1381.0,229.0)" width="24" x="1369.0" y="217.0" /><rect fill="#090" height="24" stroke="#090" stroke-width="5" transform="rotate(0,1157.0,325.0)" width="24" x="1145.0" y="313.0" /><rect fill="#090" height="24" stroke="#090" stroke-width="5" transform="rotate(0,997.0,165.0)" width="24" x="985.0" y="153.0" /><rect fill="#090" height="24" stroke="#090" stroke-width="5" transform="rotate(0,1061.0,261.0)" width="24" x="1049.0" y="249.0" /><rect fill="#090" height="24" stroke="#090" stroke-width="5" transform="rotate(0,1317.0,165.0)" width="24" x="1305.0" y="153.0" /><rect fill="#090" height="24" stroke="#090" stroke-width="5" transform="rotate(0,1445.0,293.0)" width="24" x="1433.0" y="281.0" /><rect fill="#090" height="24" stroke="#090" stroke-width="5" transform="rotate(0,1509.0,133.0)" width="24" x="1497.0" y="121.0" /><rect fill="#090" height="24" stroke="#090" stroke-width="5" transform="rotate(0,1189.0,133.0)" width="24" x="1177.0" y="121.0" /><rect fill="#090" height="24" stroke="#090" stroke-width="5" transform="rotate(0,1189.0,229.0)" width="24" x="1177.0" y="217.0" /><rect fill="#090" height="24" stroke="#090" stroke-width="5" transform="rotate(0,997.0,293.0)" width="24" x="985.0" y="281.0" /><rect fill="#090" height="24" stroke="#090" stroke-width="5" transform="rotate(0,1637.0,293.0)" width="24" x="1625.0" y="281.0" /><rect fill="#090" height="24" stroke="#090" stroke-width="5" transform="rotate(0,1669.0,197.0)" width="24" x="1657.0" y="185.0" /><circle cx="101.0" cy="1381.0" fill="#900" r="16" stroke="#900" stroke-width="5" /><rect fill="#090" height="24" stroke="#090" stroke-width="5" transform="rotate(0,1701.0,261.0)" width="24" x="1689.0" y="249.0" /><rect fill="#090" height="24" stroke="#090" stroke-width="5" transform="rotate(0,1477.0,197.0)" width="24" x="1465.0" y="185.0" /></svg>