<?xml version="1.0" encoding="utf-8" ?>
<svg baseProfile="tiny" height="817" version="1.2" viewBox="0 0 2392 1910" width="1024" xmlns="http://www.w3.org/2000/svg" xmlns:ev="http://www.w3.org/2001/xml-events" xmlns:xlink="http://www.w3.org/1999/xlink"><defs /><line stroke="#333" stroke-width="10" x1="1099.0" x2="1204.0" y1="1108.0" y2="1258.0" /><line stroke="#333" stroke-width="10" x1="1204.0" x2="1236.0" y1="1258.0" y2="1213.0" /><line stroke="#333" stroke-width="10" x1="1310.0" x2="1475.0" y1="1108.0" y2="1108.0" /><line stroke="#999" stroke-width="3" x1="1370.0" x2="1475.0" y1="964.0" y2="1108.0" /><line stroke="#333" stroke-width="10" x1="1370.0" x2="1475.0" y1="964.0" y2="838.0" /><line stroke="#999" stroke-width="3" x1="1310.0" x2="1475.0" y1="838.0" y2="838.0" /><line stroke="#333" stroke-width="10" x1="1310.0" x2="1204.0" y1="838.0" y2="701.0" /><line stroke="#999" stroke-width="3" x1="1100.0" x2="1204.0" y1="838.0" y2="701.0" /><line stroke="#999" stroke-width="3" x1="1028.0" x2="925.0" y1="967.0" y2="838.0" /><line stroke="#333" stroke-width="10" x1="1028.0" x2="925.0" y1="967.0" y2="1108.0" /><line stroke="#333" stroke-width="10" x1="925.0" x2="798.0" y1="1108.0" y2="1093.0" /><line stroke="#333" stroke-width="10" x1="798.0" x2="798.0" y1="1093.0" y2="1029.0" /><line stroke="#333" stroke-width="10" x1="798.0" x2="734.0" y1="1029.0" y2="1029.0" /><line stroke="#333" stroke-width="10" x1="734.0" x2="734.0" y1="1029.0" y2="1093.0" /><line stroke="#333" stroke-width="10" x1="734.0" x2="702.0" y1="1093.0" y2="1093.0" /><line stroke="#999" stroke-width="3" x1="440.0" x2="556.0" y1="1469.0" y2="1469.0" /><line stroke="#333" stroke-width="10" x1="862.0" x2="1099.0" y1="1469.0" y2="1108.0" /><line stroke="#999" stroke-width="3" x1="1099.0" x2="925.0" y1="1108.0" y2="1108.0" /><line stroke="#333" stroke-width="10" x1="1475.0" x2="1653.0" y1="1108.0" y2="1349.0" /><line stroke="#333" stroke-width="10" x1="1653.0" x2="1758.0" y1="1349.0" y2="1349.0" /><line stroke="#333" stroke-width="10" x1="2344.0" x2="2197.0" y1="1349.0" y2="1159.0" /><line stroke="#333" stroke-width="10" x1="1475.0" x2="1630.0" y1="838.0" y2="838.0" /><line stroke="#333" stroke-width="10" x1="1630.0" x2="1726.0" y1="838.0" y2="709.0" /><line stroke="#333" stroke-width="10" x1="1726.0" x2="1822.0" y1="709.0" y2="709.0" /><line stroke="#333" stroke-width="10" x1="1822.0" x2="1822.0" y1="709.0" y2="773.0" /><line stroke="#333" stroke-width="10" x1="1822.0" x2="1886.0" y1="773.0" y2="773.0" /><line stroke="#333" stroke-width="10" x1="1886.0" x2="1886.0" y1="773.0" y2="709.0" /><line stroke="#333" stroke-width="10" x1="1886.0" x2="2078.0" y1="709.0" y2="709.0" /><line stroke="#999" stroke-width="3" x1="2078.0" x2="2147.0" y1="709.0" y2="604.0" /><line stroke="#333" stroke-width="10" x1="2288.0" x2="2062.0" y1="401.0" y2="117.0" /><line stroke="#333" stroke-width="10" x1="2062.0" x2="1822.0" y1="117.0" y2="117.0" /><line stroke="#333" stroke-width="10" x1="1630.0" x2="1332.0" y1="117.0" y2="483.0" /><line stroke="#333" stroke-width="10" x1="1332.0" x2="1462.0" y1="483.0" y2="649.0" /><line stroke="#333" stroke-width="10" x1="1462.0" x2="1310.0" y1="649.0" y2="838.0" /><line stroke="#333" stroke-width="10" x1="1204.0" x2="1286.0" y1="701.0" y2="592.0" /><line stroke="#333" stroke-width="10" x1="1286.0" x2="1172.0" y1="592.0" y2="440.0" /><line stroke="#333" stroke-width="10" x1="1172.0" x2="1268.0" y1="440.0" y2="317.0" /><line stroke="#333" stroke-width="10" x1="1268.0" x2="1324.0" y1="317.0" y2="365.0" /><line stroke="#333" stroke-width="10" x1="1324.0" x2="1373.0" y1="365.0" y2="300.0" /><line stroke="#333" stroke-width="10" x1="1373.0" x2="1316.0" y1="300.0" y2="253.0" /><line stroke="#333" stroke-width="10" x1="1316.0" x2="1211.0" y1="253.0" y2="117.0" /><line stroke="#333" stroke-width="10" x1="1118.0" x2="968.0" y1="5.0" y2="220.0" /><line stroke="#333" stroke-width="10" x1="968.0" x2="824.0" y1="220.0" y2="16.0" /><line stroke="#333" stroke-width="10" x1="824.0" x2="661.0" y1="16.0" y2="232.0" /><line stroke="#999" stroke-width="3" x1="661.0" x2="745.0" y1="232.0" y2="359.0" /><line stroke="#333" stroke-width="10" x1="745.0" x2="655.0" y1="359.0" y2="488.0" /><line stroke="#333" stroke-width="10" x1="655.0" x2="899.0" y1="488.0" y2="785.0" /><line stroke="#333" stroke-width="10" x1="899.0" x2="983.0" y1="785.0" y2="670.0" /><line stroke="#333" stroke-width="10" x1="983.0" x2="1100.0" y1="670.0" y2="838.0" /><line stroke="#333" stroke-width="10" x1="1100.0" x2="925.0" y1="838.0" y2="838.0" /><line stroke="#333" stroke-width="10" x1="925.0" x2="798.0" y1="838.0" y2="699.0" /><line stroke="#333" stroke-width="10" x1="798.0" x2="424.0" y1="699.0" y2="699.0" /><line stroke="#999" stroke-width="3" x1="424.0" x2="271.0" y1="699.0" y2="765.0" /><line stroke="#999" stroke-width="3" x1="202.0" x2="202.0" y1="795.0" y2="987.0" /><line stroke="#333" stroke-width="10" x1="202.0" x2="368.0" y1="987.0" y2="1225.0" /><line stroke="#333" stroke-width="10" x1="439.0" x2="724.0" y1="1337.0" y2="967.0" /><line stroke="#333" stroke-width="10" x1="724.0" x2="1028.0" y1="967.0" y2="967.0" /><line stroke="#999" stroke-width="3" x1="2197.0" x2="2110.0" y1="1159.0" y2="1047.0" /><line stroke="#333" stroke-width="10" x1="2046.0" x2="1566.0" y1="964.0" y2="964.0" /><line stroke="#999" stroke-width="3" x1="1310.0" x2="1236.0" y1="1108.0" y2="1213.0" /><line stroke="#333" stroke-width="10" x1="1539.0" x2="1310.0" y1="1418.0" y2="1108.0" /><line stroke="#333" stroke-width="10" x1="1449.0" x2="1539.0" y1="1526.0" y2="1418.0" /><line stroke="#333" stroke-width="10" x1="1533.0" x2="1449.0" y1="1634.0" y2="1526.0" /><line stroke="#999" stroke-width="3" x1="1440.0" x2="1533.0" y1="1746.0" y2="1634.0" /><line stroke="#999" stroke-width="3" x1="1206.0" x2="1306.0" y1="1781.0" y2="1905.0" /><line stroke="#333" stroke-width="10" x1="1155.0" x2="1206.0" y1="1403.0" y2="1485.0" /><line stroke="#333" stroke-width="10" x1="1260.0" x2="1155.0" y1="1249.0" y2="1403.0" /><line stroke="#333" stroke-width="10" x1="1236.0" x2="1260.0" y1="1213.0" y2="1249.0" /><line stroke="#333" stroke-width="10" x1="202.0" x2="94.0" y1="795.0" y2="837.0" /><line stroke="#00d" stroke-width="20" x1="94.0" x2="94.0" y1="837.0" y2="901.0" /><line stroke="#333" stroke-width="10" x1="94.0" x2="202.0" y1="901.0" y2="987.0" /><line stroke="#333" stroke-width="10" x1="94.0" x2="30.0" y1="837.0" y2="837.0" /><line stroke="#333" stroke-width="10" x1="30.0" x2="30.0" y1="837.0" y2="901.0" /><line stroke="#333" stroke-width="10" x1="30.0" x2="94.0" y1="901.0" y2="901.0" /><line stroke="#999" stroke-width="3" x1="582.0" x2="476.0" y1="907.0" y2="1038.0" /><line stroke="#999" stroke-width="3" x1="663.0" x2="582.0" y1="907.0" y2="907.0" /><line stroke="#999" stroke-width="3" x1="630.0" x2="663.0" y1="862.0" y2="907.0" /><line stroke="#999" stroke-width="3" x1="513.0" x2="630.0" y1="862.0" y2="862.0" /><line stroke="#999" stroke-width="3" x1="456.0" x2="513.0" y1="886.0" y2="862.0" /><line stroke="#999" stroke-width="3" x1="456.0" x2="456.0" y1="946.0" y2="886.0" /><line stroke="#999" stroke-width="3" x1="405.0" x2="456.0" y1="946.0" y2="946.0" /><line stroke="#999" stroke-width="3" x1="476.0" x2="405.0" y1="1038.0" y2="946.0" /><line stroke="#00d" stroke-width="20" x1="798.0" x2="734.0" y1="1093.0" y2="1093.0" /><line stroke="#00d" stroke-width="20" x1="1268.0" x2="1316.0" y1="317.0" y2="253.0" /><line stroke="#333" stroke-width="10" x1="845.0" x2="795.0" y1="623.0" y2="557.0" /><line stroke="#333" stroke-width="10" x1="890.0" x2="845.0" y1="554.0" y2="623.0" /><line stroke="#333" stroke-width="10" x1="842.0" x2="890.0" y1="494.0" y2="554.0" /><line stroke="#333" stroke-width="10" x1="795.0" x2="842.0" y1="557.0" y2="494.0" /><line stroke="#333" stroke-width="10" x1="1157.0" x2="1106.0" y1="602.0" y2="668.0" /><line stroke="#333" stroke-width="10" x1="1106.0" x2="1157.0" y1="533.0" y2="602.0" /><line stroke="#333" stroke-width="10" x1="1055.0" x2="1106.0" y1="599.0" y2="533.0" /><line stroke="#333" stroke-width="10" x1="1106.0" x2="1055.0" y1="668.0" y2="599.0" /><line stroke="#333" stroke-width="10" x1="1151.0" x2="1097.0" y1="295.0" y2="368.0" /><line stroke="#333" stroke-width="10" x1="1103.0" x2="1151.0" y1="226.0" y2="295.0" /><line stroke="#333" stroke-width="10" x1="1046.0" x2="1103.0" y1="301.0" y2="226.0" /><line stroke="#333" stroke-width="10" x1="1097.0" x2="1046.0" y1="368.0" y2="301.0" /><line stroke="#333" stroke-width="10" x1="839.0" x2="794.0" y1="247.0" y2="307.0" /><line stroke="#333" stroke-width="10" x1="797.0" x2="839.0" y1="190.0" y2="247.0" /><line stroke="#333" stroke-width="10" x1="748.0" x2="797.0" y1="247.0" y2="190.0" /><line stroke="#333" stroke-width="10" x1="794.0" x2="748.0" y1="307.0" y2="247.0" /><line stroke="#00d" stroke-width="20" x1="1822.0" x2="1886.0" y1="709.0" y2="709.0" /><line stroke="#999" stroke-width="3" x1="1866.0" x2="1790.0" y1="485.0" y2="485.0" /><line stroke="#999" stroke-width="3" x1="1910.0" x2="1866.0" y1="421.0" y2="485.0" /><line stroke="#999" stroke-width="3" x1="1866.0" x2="1910.0" y1="357.0" y2="421.0" /><line stroke="#999" stroke-width="3" x1="1790.0" x2="1866.0" y1="357.0" y2="357.0" /><line stroke="#999" stroke-width="3" x1="1742.0" x2="1790.0" y1="421.0" y2="357.0" /><line stroke="#999" stroke-width="3" x1="1742.0" x2="1790.0" y1="421.0" y2="485.0" /><line stroke="#999" stroke-width="3" x1="2039.0" x2="1871.0" y1="1220.0" y2="1220.0" /><line stroke="#999" stroke-width="3" x1="1931.0" x2="2039.0" y1="1084.0" y2="1220.0" /><line stroke="#999" stroke-width="3" x1="1763.0" x2="1931.0" y1="1084.0" y2="1084.0" /><line stroke="#999" stroke-width="3" x1="1871.0" x2="1763.0" y1="1220.0" y2="1084.0" /><line stroke="#333" stroke-width="10" x1="1341.0" x2="1270.0" y1="1484.0" y2="1392.0" /><line stroke="#333" stroke-width="10" x1="1400.0" x2="1341.0" y1="1408.0" y2="1484.0" /><line stroke="#333" stroke-width="10" x1="1331.0" x2="1400.0" y1="1313.0" y2="1408.0" /><line stroke="#333" stroke-width="10" x1="1270.0" x2="1331.0" y1="1392.0" y2="1313.0" /><line stroke="#333" stroke-width="10" x1="1372.0" x2="1314.0" y1="1673.0" y2="1745.0" /><line stroke="#333" stroke-width="10" x1="1318.0" x2="1372.0" y1="1598.0" y2="1673.0" /><line stroke="#333" stroke-width="10" x1="1259.0" x2="1318.0" y1="1668.0" y2="1598.0" /><line stroke="#333" stroke-width="10" x1="1314.0" x2="1259.0" y1="1745.0" y2="1668.0" /><line stroke="#333" stroke-width="10" x1="1206.0" x2="1166.0" y1="1485.0" y2="1541.0" /><line stroke="#333" stroke-width="10" x1="1166.0" x2="1115.0" y1="1541.0" y2="1495.0" /><line stroke="#333" stroke-width="10" x1="1115.0" x2="1068.0" y1="1495.0" y2="1557.0" /><line stroke="#333" stroke-width="10" x1="1116.0" x2="1086.0" y1="1603.0" y2="1637.0" /><line stroke="#333" stroke-width="10" x1="1068.0" x2="1116.0" y1="1557.0" y2="1603.0" /><line stroke="#00d" stroke-width="20" x1="1166.0" x2="1116.0" y1="1541.0" y2="1603.0" /><line stroke="#999" stroke-width="3" x1="813.0" x2="630.0" y1="1364.0" y2="1364.0" /><line stroke="#999" stroke-width="3" x1="907.0" x2="813.0" y1="1228.0" y2="1364.0" /><line stroke="#999" stroke-width="3" x1="716.0" x2="907.0" y1="1228.0" y2="1228.0" /><line stroke="#999" stroke-width="3" x1="630.0" x2="716.0" y1="1364.0" y2="1228.0" /><line stroke="#999" stroke-width="3" x1="788.0" x2="700.0" y1="1331.0" y2="1331.0" /><line stroke="#999" stroke-width="3" x1="838.0" x2="788.0" y1="1259.0" y2="1331.0" /><line stroke="#999" stroke-width="3" x1="838.0" x2="750.0" y1="1259.0" y2="1259.0" /><line stroke="#999" stroke-width="3" x1="700.0" x2="750.0" y1="1331.0" y2="1259.0" /><line stroke="#999" stroke-width="3" x1="2198.0" x2="2344.0" y1="1349.0" y2="1349.0" /><line stroke="#333" stroke-width="10" x1="1728.0" x2="1688.0" y1="1634.0" y2="1634.0" /><line stroke="#333" stroke-width="10" x1="1768.0" x2="1728.0" y1="1634.0" y2="1634.0" /><line stroke="#333" stroke-width="10" x1="1962.0" x2="1862.0" y1="1634.0" y2="1634.0" /><line stroke="#333" stroke-width="10" x1="2007.0" x2="1962.0" y1="1577.0" y2="1634.0" /><line stroke="#333" stroke-width="10" x1="2039.0" x2="2007.0" y1="1537.0" y2="1577.0" /><line stroke="#333" stroke-width="10" x1="2071.0" x2="2039.0" y1="1497.0" y2="1537.0" /><line stroke="#333" stroke-width="10" x1="2096.0" x2="2071.0" y1="1465.0" y2="1497.0" /><line stroke="#333" stroke-width="10" x1="2198.0" x2="2096.0" y1="1349.0" y2="1465.0" /><line stroke="#333" stroke-width="10" x1="1086.0" x2="1206.0" y1="1637.0" y2="1781.0" /><line stroke="#333" stroke-width="10" x1="556.0" x2="734.0" y1="1469.0" y2="1469.0" /><line stroke="#999" stroke-width="3" x1="734.0" x2="862.0" y1="1469.0" y2="1469.0" /><line stroke="#333" stroke-width="10" x1="1815.0" x2="1768.0" y1="1634.0" y2="1634.0" /><line stroke="#333" stroke-width="10" x1="2256.0" x2="2344.0" y1="1465.0" y2="1349.0" /><line stroke="#333" stroke-width="10" x1="2229.0" x2="2256.0" y1="1497.0" y2="1465.0" /><line stroke="#333" stroke-width="10" x1="2198.0" x2="2229.0" y1="1537.0" y2="1497.0" /><line stroke="#333" stroke-width="10" x1="2166.0" x2="2198.0" y1="1577.0" y2="1537.0" /><line stroke="#333" stroke-width="10" x1="2030.0" x2="2166.0" y1="1746.0" y2="1577.0" /><line stroke="#333" stroke-width="10" x1="1725.0" x2="1772.0" y1="1746.0" y2="1746.0" /><line stroke="#333" stroke-width="10" x1="1678.0" x2="1725.0" y1="1746.0" y2="1746.0" /><line stroke="#333" stroke-width="10" x1="1637.0" x2="1678.0" y1="1746.0" y2="1746.0" /><line stroke="#333" stroke-width="10" x1="1596.0" x2="1637.0" y1="1746.0" y2="1746.0" /><line stroke="#999" stroke-width="3" x1="1688.0" x2="1596.0" y1="1634.0" y2="1746.0" /><line stroke="#999" stroke-width="3" x1="1728.0" x2="1637.0" y1="1634.0" y2="1746.0" /><line stroke="#999" stroke-width="3" x1="1768.0" x2="1678.0" y1="1634.0" y2="1746.0" /><line stroke="#999" stroke-width="3" x1="1815.0" x2="1725.0" y1="1634.0" y2="1746.0" /><line stroke="#999" stroke-width="3" x1="2007.0" x2="2166.0" y1="1577.0" y2="1577.0" /><line stroke="#999" stroke-width="3" x1="2039.0" x2="2198.0" y1="1537.0" y2="1537.0" /><line stroke="#999" stroke-width="3" x1="2071.0" x2="2229.0" y1="1497.0" y2="1497.0" /><line stroke="#999" stroke-width="3" x1="2096.0" x2="2256.0" y1="1465.0" y2="1465.0" /><line stroke="#333" stroke-width="10" x1="2147.0" x2="2288.0" y1="604.0" y2="401.0" /><line stroke="#333" stroke-width="10" x1="2110.0" x2="2046.0" y1="1047.0" y2="964.0" /><line stroke="#333" stroke-width="10" x1="2159.0" x2="2110.0" y1="971.0" y2="1047.0" /><line stroke="#333" stroke-width="10" x1="2179.0" x2="2159.0" y1="945.0" y2="971.0" /><line stroke="#333" stroke-width="10" x1="2199.0" x2="2179.0" y1="919.0" y2="945.0" /><line stroke="#333" stroke-width="10" x1="2219.0" x2="2199.0" y1="893.0" y2="919.0" /><line stroke="#333" stroke-width="10" x1="2187.0" x2="2219.0" y1="853.0" y2="893.0" /><line stroke="#333" stroke-width="10" x1="2163.0" x2="2187.0" y1="821.0" y2="853.0" /><line stroke="#333" stroke-width="10" x1="2139.0" x2="2163.0" y1="789.0" y2="821.0" /><line stroke="#333" stroke-width="10" x1="2078.0" x2="2139.0" y1="709.0" y2="789.0" /><line stroke="#333" stroke-width="10" x1="2217.0" x2="2147.0" y1="691.0" y2="604.0" /><line stroke="#333" stroke-width="10" x1="2245.0" x2="2217.0" y1="723.0" y2="691.0" /><line stroke="#333" stroke-width="10" x1="2269.0" x2="2245.0" y1="755.0" y2="723.0" /><line stroke="#333" stroke-width="10" x1="2297.0" x2="2269.0" y1="787.0" y2="755.0" /><line stroke="#333" stroke-width="10" x1="2387.0" x2="2297.0" y1="905.0" y2="787.0" /><line stroke="#333" stroke-width="10" x1="2312.0" x2="2387.0" y1="1008.0" y2="905.0" /><line stroke="#333" stroke-width="10" x1="2292.0" x2="2312.0" y1="1034.0" y2="1008.0" /><line stroke="#333" stroke-width="10" x1="2272.0" x2="2292.0" y1="1060.0" y2="1034.0" /><line stroke="#333" stroke-width="10" x1="2252.0" x2="2272.0" y1="1086.0" y2="1060.0" /><line stroke="#333" stroke-width="10" x1="2197.0" x2="2252.0" y1="1159.0" y2="1086.0" /><line stroke="#999" stroke-width="3" x1="2217.0" x2="2139.0" y1="691.0" y2="789.0" /><line stroke="#999" stroke-width="3" x1="2245.0" x2="2163.0" y1="723.0" y2="821.0" /><line stroke="#999" stroke-width="3" x1="2269.0" x2="2187.0" y1="755.0" y2="853.0" /><line stroke="#999" stroke-width="3" x1="2297.0" x2="2219.0" y1="787.0" y2="893.0" /><line stroke="#999" stroke-width="3" x1="2312.0" x2="2219.0" y1="1008.0" y2="893.0" /><line stroke="#999" stroke-width="3" x1="2292.0" x2="2199.0" y1="1034.0" y2="919.0" /><line stroke="#999" stroke-width="3" x1="2272.0" x2="2179.0" y1="1060.0" y2="945.0" /><line stroke="#999" stroke-width="3" x1="2252.0" x2="2159.0" y1="1086.0" y2="971.0" /><line stroke="#999" stroke-width="3" x1="1211.0" x2="1118.0" y1="117.0" y2="5.0" /><line stroke="#333" stroke-width="10" x1="1548.0" x2="1630.0" y1="117.0" y2="117.0" /><line stroke="#333" stroke-width="10" x1="1493.0" x2="1548.0" y1="117.0" y2="117.0" /><line stroke="#333" stroke-width="10" x1="1447.0" x2="1493.0" y1="117.0" y2="117.0" /><line stroke="#333" stroke-width="10" x1="1406.0" x2="1447.0" y1="117.0" y2="117.0" /><line stroke="#333" stroke-width="10" x1="1374.0" x2="1406.0" y1="117.0" y2="117.0" /><line stroke="#333" stroke-width="10" x1="1211.0" x2="1374.0" y1="117.0" y2="117.0" /><line stroke="#999" stroke-width="3" x1="1822.0" x2="1630.0" y1="117.0" y2="117.0" /><line stroke="#333" stroke-width="10" x1="1278.0" x2="1118.0" y1="5.0" y2="5.0" /><line stroke="#333" stroke-width="10" x1="1310.0" x2="1278.0" y1="5.0" y2="5.0" /><line stroke="#333" stroke-width="10" x1="1351.0" x2="1310.0" y1="5.0" y2="5.0" /><line stroke="#333" stroke-width="10" x1="1397.0" x2="1351.0" y1="5.0" y2="5.0" /><line stroke="#333" stroke-width="10" x1="1452.0" x2="1397.0" y1="5.0" y2="5.0" /><line stroke="#333" stroke-width="10" x1="1726.0" x2="1452.0" y1="5.0" y2="5.0" /><line stroke="#333" stroke-width="10" x1="1822.0" x2="1726.0" y1="117.0" y2="5.0" /><line stroke="#999" stroke-width="3" x1="1452.0" x2="1548.0" y1="5.0" y2="117.0" /><line stroke="#999" stroke-width="3" x1="1397.0" x2="1493.0" y1="5.0" y2="117.0" /><line stroke="#999" stroke-width="3" x1="1351.0" x2="1447.0" y1="5.0" y2="117.0" /><line stroke="#999" stroke-width="3" x1="1310.0" x2="1406.0" y1="5.0" y2="117.0" /><line stroke="#999" stroke-width="3" x1="1278.0" x2="1374.0" y1="5.0" y2="117.0" /><line stroke="#333" stroke-width="10" x1="1306.0" x2="1440.0" y1="1905.0" y2="1746.0" /><line stroke="#333" stroke-width="10" x1="1440.0" x2="1596.0" y1="1746.0" y2="1746.0" /><line stroke="#333" stroke-width="10" x1="1688.0" x2="1533.0" y1="1634.0" y2="1634.0" /><line stroke="#333" stroke-width="10" x1="271.0" x2="202.0" y1="765.0" y2="795.0" /><line stroke="#333" stroke-width="10" x1="344.0" x2="271.0" y1="574.0" y2="765.0" /><line stroke="#333" stroke-width="10" x1="361.0" x2="344.0" y1="536.0" y2="574.0" /><line stroke="#333" stroke-width="10" x1="376.0" x2="361.0" y1="498.0" y2="536.0" /><line stroke="#333" stroke-width="10" x1="392.0" x2="376.0" y1="463.0" y2="498.0" /><line stroke="#333" stroke-width="10" x1="407.0" x2="392.0" y1="429.0" y2="463.0" /><line stroke="#333" stroke-width="10" x1="499.0" x2="407.0" y1="232.0" y2="429.0" /><line stroke="#333" stroke-width="10" x1="661.0" x2="499.0" y1="232.0" y2="232.0" /><line stroke="#333" stroke-width="10" x1="578.0" x2="745.0" y1="359.0" y2="359.0" /><line stroke="#333" stroke-width="10" x1="511.0" x2="578.0" y1="481.0" y2="359.0" /><line stroke="#333" stroke-width="10" x1="495.0" x2="511.0" y1="518.0" y2="481.0" /><line stroke="#333" stroke-width="10" x1="481.0" x2="495.0" y1="551.0" y2="518.0" /><line stroke="#333" stroke-width="10" x1="466.0" x2="481.0" y1="589.0" y2="551.0" /><line stroke="#333" stroke-width="10" x1="451.0" x2="466.0" y1="628.0" y2="589.0" /><line stroke="#333" stroke-width="10" x1="424.0" x2="451.0" y1="699.0" y2="628.0" /><line stroke="#999" stroke-width="3" x1="451.0" x2="344.0" y1="628.0" y2="574.0" /><line stroke="#999" stroke-width="3" x1="466.0" x2="361.0" y1="589.0" y2="536.0" /><line stroke="#999" stroke-width="3" x1="481.0" x2="376.0" y1="551.0" y2="498.0" /><line stroke="#999" stroke-width="3" x1="495.0" x2="392.0" y1="518.0" y2="463.0" /><line stroke="#999" stroke-width="3" x1="511.0" x2="407.0" y1="481.0" y2="429.0" /><line stroke="#999" stroke-width="3" x1="368.0" x2="439.0" y1="1225.0" y2="1337.0" /><line stroke="#333" stroke-width="10" x1="457.0" x2="556.0" y1="1601.0" y2="1469.0" /><line stroke="#333" stroke-width="10" x1="441.0" x2="457.0" y1="1624.0" y2="1601.0" /><line stroke="#333" stroke-width="10" x1="422.0" x2="441.0" y1="1651.0" y2="1624.0" /><line stroke="#333" stroke-width="10" x1="343.0" x2="422.0" y1="1763.0" y2="1651.0" /><line stroke="#333" stroke-width="10" x1="288.0" x2="343.0" y1="1689.0" y2="1763.0" /><line stroke="#333" stroke-width="10" x1="269.0" x2="288.0" y1="1662.0" y2="1689.0" /><line stroke="#333" stroke-width="10" x1="248.0" x2="269.0" y1="1635.0" y2="1662.0" /><line stroke="#333" stroke-width="10" x1="230.0" x2="248.0" y1="1611.0" y2="1635.0" /><line stroke="#333" stroke-width="10" x1="156.0" x2="230.0" y1="1518.0" y2="1611.0" /><line stroke="#999" stroke-width="3" x1="156.0" x2="231.0" y1="1518.0" y2="1418.0" /><line stroke="#333" stroke-width="10" x1="252.0" x2="231.0" y1="1391.0" y2="1418.0" /><line stroke="#333" stroke-width="10" x1="270.0" x2="252.0" y1="1365.0" y2="1391.0" /><line stroke="#333" stroke-width="10" x1="368.0" x2="270.0" y1="1225.0" y2="1365.0" /><line stroke="#333" stroke-width="10" x1="350.0" x2="439.0" y1="1458.0" y2="1337.0" /><line stroke="#333" stroke-width="10" x1="329.0" x2="350.0" y1="1487.0" y2="1458.0" /><line stroke="#333" stroke-width="10" x1="312.0" x2="329.0" y1="1511.0" y2="1487.0" /><line stroke="#333" stroke-width="10" x1="329.0" x2="312.0" y1="1531.0" y2="1511.0" /><line stroke="#333" stroke-width="10" x1="346.0" x2="329.0" y1="1555.0" y2="1531.0" /><line stroke="#333" stroke-width="10" x1="363.0" x2="346.0" y1="1577.0" y2="1555.0" /><line stroke="#333" stroke-width="10" x1="380.0" x2="363.0" y1="1553.0" y2="1577.0" /><line stroke="#333" stroke-width="10" x1="397.0" x2="380.0" y1="1529.0" y2="1553.0" /><line stroke="#333" stroke-width="10" x1="440.0" x2="397.0" y1="1469.0" y2="1529.0" /><line stroke="#999" stroke-width="3" x1="270.0" x2="350.0" y1="1365.0" y2="1458.0" /><line stroke="#999" stroke-width="3" x1="252.0" x2="329.0" y1="1391.0" y2="1487.0" /><line stroke="#999" stroke-width="3" x1="231.0" x2="312.0" y1="1418.0" y2="1511.0" /><line stroke="#999" stroke-width="3" x1="230.0" x2="312.0" y1="1611.0" y2="1511.0" /><line stroke="#999" stroke-width="3" x1="248.0" x2="329.0" y1="1635.0" y2="1531.0" /><line stroke="#999" stroke-width="3" x1="269.0" x2="346.0" y1="1662.0" y2="1555.0" /><line stroke="#999" stroke-width="3" x1="288.0" x2="363.0" y1="1689.0" y2="1577.0" /><line stroke="#999" stroke-width="3" x1="422.0" x2="363.0" y1="1651.0" y2="1577.0" /><line stroke="#999" stroke-width="3" x1="441.0" x2="380.0" y1="1624.0" y2="1553.0" /><line stroke="#999" stroke-width="3" x1="457.0" x2="397.0" y1="1601.0" y2="1529.0" /><line stroke="#333" stroke-width="10" x1="908.0" x2="862.0" y1="1529.0" y2="1469.0" /><line stroke="#333" stroke-width="10" x1="972.0" x2="908.0" y1="1605.0" y2="1529.0" /><line stroke="#333" stroke-width="10" x1="930.0" x2="972.0" y1="1665.0" y2="1605.0" /><line stroke="#333" stroke-width="10" x1="896.0" x2="930.0" y1="1713.0" y2="1665.0" /><line stroke="#333" stroke-width="10" x1="871.0" x2="896.0" y1="1752.0" y2="1713.0" /><line stroke="#333" stroke-width="10" x1="888.0" x2="871.0" y1="1781.0" y2="1752.0" /><line stroke="#333" stroke-width="10" x1="990.0" x2="932.0" y1="1781.0" y2="1781.0" /><line stroke="#333" stroke-width="10" x1="1046.0" x2="990.0" y1="1781.0" y2="1781.0" /><line stroke="#333" stroke-width="10" x1="1098.0" x2="1046.0" y1="1781.0" y2="1781.0" /><line stroke="#333" stroke-width="10" x1="1206.0" x2="1098.0" y1="1781.0" y2="1781.0" /><line stroke="#333" stroke-width="10" x1="1062.0" x2="1306.0" y1="1905.0" y2="1905.0" /><line stroke="#333" stroke-width="10" x1="998.0" x2="1062.0" y1="1905.0" y2="1905.0" /><line stroke="#333" stroke-width="10" x1="928.0" x2="998.0" y1="1905.0" y2="1905.0" /><line stroke="#333" stroke-width="10" x1="794.0" x2="844.0" y1="1829.0" y2="1905.0" /><line stroke="#333" stroke-width="10" x1="749.0" x2="794.0" y1="1752.0" y2="1829.0" /><line stroke="#333" stroke-width="10" x1="786.0" x2="749.0" y1="1689.0" y2="1752.0" /><line stroke="#333" stroke-width="10" x1="812.0" x2="786.0" y1="1644.0" y2="1689.0" /><line stroke="#333" stroke-width="10" x1="832.0" x2="812.0" y1="1605.0" y2="1644.0" /><line stroke="#333" stroke-width="10" x1="793.0" x2="832.0" y1="1553.0" y2="1605.0" /><line stroke="#333" stroke-width="10" x1="734.0" x2="793.0" y1="1469.0" y2="1553.0" /><line stroke="#999" stroke-width="3" x1="1062.0" x2="1098.0" y1="1905.0" y2="1781.0" /><line stroke="#999" stroke-width="3" x1="998.0" x2="1046.0" y1="1905.0" y2="1781.0" /><line stroke="#999" stroke-width="3" x1="928.0" x2="990.0" y1="1905.0" y2="1781.0" /><line stroke="#999" stroke-width="3" x1="794.0" x2="888.0" y1="1829.0" y2="1781.0" /><line stroke="#999" stroke-width="3" x1="749.0" x2="871.0" y1="1752.0" y2="1752.0" /><line stroke="#999" stroke-width="3" x1="786.0" x2="896.0" y1="1689.0" y2="1713.0" /><line stroke="#999" stroke-width="3" x1="812.0" x2="930.0" y1="1644.0" y2="1665.0" /><line stroke="#999" stroke-width="3" x1="832.0" x2="972.0" y1="1605.0" y2="1605.0" /><line stroke="#999" stroke-width="3" x1="793.0" x2="908.0" y1="1553.0" y2="1529.0" /><line stroke="#333" stroke-width="10" x1="1822.0" x2="2198.0" y1="1349.0" y2="1349.0" /><line stroke="#00d" stroke-width="20" x1="1758.0" x2="1822.0" y1="1349.0" y2="1349.0" /><line stroke="#333" stroke-width="10" x1="1822.0" x2="1822.0" y1="1413.0" y2="1349.0" /><line stroke="#333" stroke-width="10" x1="1758.0" x2="1822.0" y1="1413.0" y2="1413.0" /><line stroke="#333" stroke-width="10" x1="1758.0" x2="1758.0" y1="1349.0" y2="1413.0" /><line stroke="#333" stroke-width="10" x1="1862.0" x2="1815.0" y1="1634.0" y2="1634.0" /><line stroke="#333" stroke-width="10" x1="1772.0" x2="2030.0" y1="1746.0" y2="1746.0" /><line stroke="#999" stroke-width="3" x1="1862.0" x2="1772.0" y1="1634.0" y2="1746.0" /><line stroke="#333" stroke-width="10" x1="702.0" x2="440.0" y1="1093.0" y2="1469.0" /><line stroke="#333" stroke-width="10" x1="1566.0" x2="1370.0" y1="964.0" y2="964.0" /><line stroke="#999" stroke-width="3" x1="1475.0" x2="1566.0" y1="1108.0" y2="964.0" /><line stroke="#333" stroke-width="10" x1="844.0" x2="928.0" y1="1905.0" y2="1905.0" /><line stroke="#333" stroke-width="10" x1="932.0" x2="888.0" y1="1781.0" y2="1781.0" /><line stroke="#999" stroke-width="3" x1="844.0" x2="932.0" y1="1905.0" y2="1781.0" /><line stroke="#333" stroke-width="10" x1="83.0" x2="156.0" y1="1421.0" y2="1518.0" /><line stroke="#999" stroke-width="3" x1="155.0" x2="83.0" y1="1323.0" y2="1421.0" /><line stroke="#333" stroke-width="10" x1="231.0" x2="155.0" y1="1418.0" y2="1323.0" /><line stroke="#333" stroke-width="10" x1="5.0" x2="83.0" y1="1323.0" y2="1421.0" /><line stroke="#0d0" stroke-width="20" x1="79.0" x2="5.0" y1="1227.0" y2="1323.0" /><line stroke="#333" stroke-width="10" x1="155.0" x2="79.0" y1="1323.0" y2="1227.0" /><rect fill="#090" height="24" stroke="#090" stroke-width="5" transform="rotate(270,1205.0,1196.0)" width="24" x="1193.0" y="1184.0" /><rect fill="#090" height="24" stroke="#090" stroke-width="5" transform="rotate(315,1669.0,1321.0)" width="24" x="1657.0" y="1309.0" /><rect fill="#090" height="24" stroke="#090" stroke-width="5" transform="rotate(225,1606.0,811.0)" width="24" x="1594.0" y="799.0" /><rect fill="#090" height="24" stroke="#090" stroke-width="5" transform="rotate(225,1241.0,593.0)" width="24" x="1229.0" y="581.0" /><rect fill="#090" height="24" stroke="#090" stroke-width="5" transform="rotate(90,774.0,726.0)" width="24" x="762.0" y="714.0" /><rect fill="#090" height="24" stroke="#090" stroke-width="5" transform="rotate(180,2337.0,906.0)" width="24" x="2325.0" y="894.0" /><circle cx="1204.0" cy="967.0" fill="#900" r="16" stroke="#900" stroke-width="5" /><rect fill="#009" height="24" stroke="#009" stroke-width="5" transform="rotate(225,1318.0,308.0)" width="24" x="1306.0" y="296.0" /><rect fill="#009" height="24" stroke="#009" stroke-width="5" transform="rotate(0,62.0,868.0)" width="24" x="50.0" y="856.0" /><rect fill="#009" height="24" stroke="#009" stroke-width="5" transform="rotate(90,766.0,1061.0)" width="24" x="754.0" y="1049.0" /><rect fill="#009" height="24" stroke="#009" stroke-width="5" transform="rotate(45,1116.0,1551.0)" width="24" x="1104.0" y="1539.0" /><rect fill="#009" height="24" stroke="#009" stroke-width="5" transform="rotate(270,1854.0,741.0)" width="24" x="1842.0" y="729.0" /><rect fill="#009" height="24" stroke="#009" stroke-width="5" transform="rotate(270,1790.0,1381.0)" width="24" x="1778.0" y="1369.0" /><circle cx="598.0" cy="933.0" fill="#090" r="16" stroke="#090" stroke-width="5" /><circle cx="433.0" cy="923.0" fill="#009" r="16" stroke="#009" stroke-width="5" /><circle cx="529.0" cy="264.0" fill="#900" r="16" stroke="#900" stroke-width="5" /><circle cx="799.0" cy="613.0" fill="#900" r="16" stroke="#900" stroke-width="5" /><circle cx="750.0" cy="191.0" fill="#900" r="16" stroke="#900" stroke-width="5" /><circle cx="1153.0" cy="235.0" fill="#900" r="16" stroke="#900" stroke-width="5" /><circle cx="1376.0" cy="483.0" fill="#090" r="16" stroke="#090" stroke-width="5" /><circle cx="2041.0" cy="144.0" fill="#090" r="16" stroke="#090" stroke-width="5" /><circle cx="2247.0" cy="403.0" fill="#090" r="16" stroke="#090" stroke-width="5" /><circle cx="1828.0" cy="419.0" fill="#900" r="16" stroke="#900" stroke-width="5" /><circle cx="2001.0" cy="1691.0" fill="#009" r="16" stroke="#009" stroke-width="5" /><circle cx="1363.0" cy="1736.0" fill="#900" r="16" stroke="#900" stroke-width="5" /><rect fill="#090" height="24" stroke="#090" stroke-width="5" transform="rotate(0,829.0,1728.0)" width="24" x="817.0" y="1716.0" /><circle cx="768.0" cy="1295.0" fill="#009" r="16" stroke="#009" stroke-width="5" /><circle cx="296.0" cy="1601.0" fill="#900" r="16" stroke="#900" stroke-width="5" /><ellipse cx="1012.0" cy="1064.0" fill="#009" rx="12" ry="24" stroke="#009" stroke-width="5" /><circle cx="2026.0" cy="1000.0" fill="#009" r="16" stroke="#009" stroke-width="5" /><circle cx="2064.0" cy="1240.0" fill="#090" r="16" stroke="#090" stroke-width="5" /><circle cx="1739.0" cy="1064.0" fill="#090" r="16" stroke="#090" stroke-width="5" /><circle cx="1850.0" cy="1244.0" fill="#090" r="16" stroke="#090" stroke-width="5" /><circle cx="1952.0" cy="1062.0" fill="#090" r="16" stroke="#090" stroke-width="5" /><circle cx="965.0" cy="432.0" fill="#090" r="16" stroke="#090" stroke-width="5" /><circle cx="1265.0" cy="1324.0" fill="#090" r="16" stroke="#090" stroke-width="5" /></svg>