<?xml version="1.0" encoding="utf-8" ?>
<svg baseProfile="tiny" height="883" version="1.2" viewBox="0 0 1866 1610" width="1024" xmlns="http://www.w3.org/2000/svg" xmlns:ev="http://www.w3.org/2001/xml-events" xmlns:xlink="http://www.w3.org/1999/xlink"><defs /><line stroke="#333" stroke-width="10" x1="1349.0" x2="1861.0" y1="1605.0" y2="1093.0" /><line stroke="#333" stroke-width="10" x1="517.0" x2="1349.0" y1="1605.0" y2="1605.0" /><line stroke="#333" stroke-width="10" x1="5.0" x2="517.0" y1="1093.0" y2="1605.0" /><line stroke="#333" stroke-width="10" x1="5.0" x2="5.0" y1="517.0" y2="1093.0" /><line stroke="#333" stroke-width="10" x1="517.0" x2="5.0" y1="5.0" y2="517.0" /><line stroke="#333" stroke-width="10" x1="1349.0" x2="517.0" y1="5.0" y2="5.0" /><line stroke="#333" stroke-width="10" x1="1861.0" x2="1349.0" y1="517.0" y2="5.0" /><line stroke="#333" stroke-width="10" x1="1861.0" x2="1861.0" y1="1093.0" y2="517.0" /><line stroke="#333" stroke-width="10" x1="517.0" x2="1349.0" y1="389.0" y2="389.0" /><line stroke="#333" stroke-width="10" x1="1349.0" x2="1349.0" y1="389.0" y2="773.0" /><line stroke="#333" stroke-width="10" x1="1349.0" x2="1285.0" y1="773.0" y2="773.0" /><line stroke="#333" stroke-width="10" x1="1285.0" x2="1285.0" y1="773.0" y2="837.0" /><line stroke="#333" stroke-width="10" x1="1285.0" x2="1349.0" y1="837.0" y2="837.0" /><line stroke="#333" stroke-width="10" x1="1349.0" x2="1349.0" y1="837.0" y2="1221.0" /><line stroke="#333" stroke-width="10" x1="1349.0" x2="517.0" y1="1221.0" y2="1221.0" /><line stroke="#333" stroke-width="10" x1="517.0" x2="517.0" y1="1221.0" y2="389.0" /><line stroke="#00d" stroke-width="20" x1="1349.0" x2="1349.0" y1="773.0" y2="837.0" /><line stroke="#333" stroke-width="10" x1="645.0" x2="645.0" y1="517.0" y2="1093.0" /><line stroke="#333" stroke-width="10" x1="1221.0" x2="645.0" y1="517.0" y2="517.0" /><line stroke="#333" stroke-width="10" x1="1221.0" x2="1221.0" y1="1093.0" y2="837.0" /><line stroke="#333" stroke-width="10" x1="645.0" x2="1221.0" y1="1093.0" y2="1093.0" /><line stroke="#999" stroke-width="3" x1="1093.0" x2="1093.0" y1="1029.0" y2="901.0" /><line stroke="#999" stroke-width="3" x1="1093.0" x2="1093.0" y1="709.0" y2="581.0" /><line stroke="#999" stroke-width="3" x1="837.0" x2="837.0" y1="965.0" y2="645.0" /><line stroke="#999" stroke-width="3" x1="773.0" x2="837.0" y1="965.0" y2="965.0" /><line stroke="#999" stroke-width="3" x1="773.0" x2="773.0" y1="645.0" y2="965.0" /><line stroke="#999" stroke-width="3" x1="837.0" x2="773.0" y1="645.0" y2="645.0" /><line stroke="#999" stroke-width="3" x1="965.0" x2="1093.0" y1="709.0" y2="709.0" /><line stroke="#999" stroke-width="3" x1="965.0" x2="965.0" y1="581.0" y2="709.0" /><line stroke="#999" stroke-width="3" x1="1093.0" x2="965.0" y1="581.0" y2="581.0" /><line stroke="#999" stroke-width="3" x1="965.0" x2="1093.0" y1="1029.0" y2="1029.0" /><line stroke="#999" stroke-width="3" x1="965.0" x2="965.0" y1="901.0" y2="1029.0" /><line stroke="#999" stroke-width="3" x1="1093.0" x2="965.0" y1="901.0" y2="901.0" /><line stroke="#333" stroke-width="10" x1="1221.0" x2="1221.0" y1="773.0" y2="517.0" /><line stroke="#333" stroke-width="10" x1="1221.0" x2="1221.0" y1="837.0" y2="773.0" /><line stroke="#999" stroke-width="3" x1="1157.0" x2="1221.0" y1="837.0" y2="837.0" /><line stroke="#999" stroke-width="3" x1="1157.0" x2="1157.0" y1="773.0" y2="837.0" /><line stroke="#999" stroke-width="3" x1="1221.0" x2="1157.0" y1="773.0" y2="773.0" /><rect fill="#009" height="24" stroke="#009" stroke-width="5" transform="rotate(180,1189.0,805.0)" width="24" x="1177.0" y="793.0" /><rect fill="#900" height="48" stroke="#900" stroke-width="5" transform="rotate(315,1029.0,965.0)" width="32" x="1013.0" y="941.0" /><rect fill="#900" height="48" stroke="#900" stroke-width="5" transform="rotate(45,1029.0,645.0)" width="32" x="1013.0" y="621.0" /><rect fill="#900" height="48" stroke="#900" stroke-width="5" transform="rotate(0,709.0,805.0)" width="32" x="693.0" y="781.0" /><rect fill="#090" height="24" stroke="#090" stroke-width="5" transform="rotate(270,517.0,1541.0)" width="24" x="505.0" y="1529.0" /><ellipse cx="1349.0" cy="1541.0" fill="#009" rx="12" ry="24" stroke="#009" stroke-width="5" /><rect fill="#090" height="24" stroke="#090" stroke-width="5" transform="rotate(90,1349.0,69.0)" width="24" x="1337.0" y="57.0" /><ellipse cx="517.0" cy="69.0" fill="#009" rx="12" ry="24" stroke="#009" stroke-width="5" /><rect fill="#090" height="24" stroke="#090" stroke-width="5" transform="rotate(0,69.0,517.0)" width="24" x="57.0" y="505.0" /><ellipse cx="69.0" cy="1093.0" fill="#009" rx="12" ry="24" stroke="#009" stroke-width="5" /><rect fill="#090" height="24" stroke="#090" stroke-width="5" transform="rotate(180,1797.0,1093.0)" width="24" x="1785.0" y="1081.0" /><ellipse cx="1797.0" cy="517.0" fill="#009" rx="12" ry="24" stroke="#009" stroke-width="5" /><circle cx="1381.0" cy="805.0" fill="#009" r="16" stroke="#009" stroke-width="5" /><circle cx="933.0" cy="197.0" fill="#900" r="16" stroke="#900" stroke-width="5" /><circle cx="837.0" cy="261.0" fill="#090" r="16" stroke="#090" stroke-width="5" /><circle cx="901.0" cy="261.0" fill="#090" r="16" stroke="#090" stroke-width="5" /><circle cx="965.0" cy="261.0" fill="#090" r="16" stroke="#090" stroke-width="5" /><circle cx="1029.0" cy="261.0" fill="#090" r="16" stroke="#090" stroke-width="5" /><circle cx="997.0" cy="197.0" fill="#090" r="16" stroke="#090" stroke-width="5" /><circle cx="869.0" cy="197.0" fill="#090" r="16" stroke="#090" stroke-width="5" /><circle cx="837.0" cy="133.0" fill="#090" r="16" stroke="#090" stroke-width="5" /><circle cx="901.0" cy="133.0" fill="#090" r="16" stroke="#090" stroke-width="5" /><circle cx="965.0" cy="133.0" fill="#090" r="16" stroke="#090" stroke-width="5" /><circle cx="1029.0" cy="133.0" fill="#090" r="16" stroke="#090" stroke-width="5" /><circle cx="933.0" cy="1413.0" fill="#900" r="16" stroke="#900" stroke-width="5" /><circle cx="901.0" cy="1349.0" fill="#090" r="16" stroke="#090" stroke-width="5" /><circle cx="965.0" cy="1349.0" fill="#090" r="16" stroke="#090" stroke-width="5" /><circle cx="1029.0" cy="1349.0" fill="#090" r="16" stroke="#090" stroke-width="5" /><circle cx="837.0" cy="1349.0" fill="#090" r="16" stroke="#090" stroke-width="5" /><circle cx="869.0" cy="1413.0" fill="#090" r="16" stroke="#090" stroke-width="5" /><circle cx="901.0" cy="1477.0" fill="#090" r="16" stroke="#090" stroke-width="5" /><circle cx="837.0" cy="1477.0" fill="#090" r="16" stroke="#090" stroke-width="5" /><circle cx="965.0" cy="1477.0" fill="#090" r="16" stroke="#090" stroke-width="5" /><circle cx="997.0" cy="1413.0" fill="#090" r="16" stroke="#090" stroke-width="5" /><circle cx="1029.0" cy="1477.0" fill="#090" r="16" stroke="#090" stroke-width="5" /><circle cx="1605.0" cy="805.0" fill="#900" r="16" stroke="#900" stroke-width="5" /><circle cx="1541.0" cy="837.0" fill="#090" r="16" stroke="#090" stroke-width="5" /><circle cx="1669.0" cy="837.0" fill="#090" r="16" stroke="#090" stroke-width="5" /><circle cx="1669.0" cy="773.0" fill="#090" r="16" stroke="#090" stroke-width="5" /><circle cx="1669.0" cy="709.0" fill="#090" r="16" stroke="#090" stroke-width="5" /><circle cx="1605.0" cy="741.0" fill="#090" r="16" stroke="#090" stroke-width="5" /><circle cx="1541.0" cy="773.0" fill="#090" r="16" stroke="#090" stroke-width="5" /><circle cx="1541.0" cy="709.0" fill="#090" r="16" stroke="#090" stroke-width="5" /><circle cx="1541.0" cy="901.0" fill="#090" r="16" stroke="#090" stroke-width="5" /><circle cx="1669.0" cy="901.0" fill="#090" r="16" stroke="#090" stroke-width="5" /><circle cx="1605.0" cy="869.0" fill="#090" r="16" stroke="#090" stroke-width="5" /><circle cx="293.0" cy="805.0" fill="#900" r="16" stroke="#900" stroke-width="5" /><circle cx="357.0" cy="837.0" fill="#090" r="16" stroke="#090" stroke-width="5" /><circle cx="357.0" cy="901.0" fill="#090" r="16" stroke="#090" stroke-width="5" /><circle cx="357.0" cy="773.0" fill="#090" r="16" stroke="#090" stroke-width="5" /><circle cx="357.0" cy="709.0" fill="#090" r="16" stroke="#090" stroke-width="5" /><circle cx="229.0" cy="901.0" fill="#090" r="16" stroke="#090" stroke-width="5" /><circle cx="229.0" cy="837.0" fill="#090" r="16" stroke="#090" stroke-width="5" /><circle cx="229.0" cy="773.0" fill="#090" r="16" stroke="#090" stroke-width="5" /><circle cx="229.0" cy="709.0" fill="#090" r="16" stroke="#090" stroke-width="5" /><circle cx="293.0" cy="741.0" fill="#090" r="16" stroke="#090" stroke-width="5" /><circle cx="293.0" cy="869.0" fill="#090" r="16" stroke="#090" stroke-width="5" /><circle cx="677.0" cy="1061.0" fill="#009" r="16" stroke="#009" stroke-width="5" /><circle cx="677.0" cy="549.0" fill="#009" r="16" stroke="#009" stroke-width="5" /></svg>