<?xml version="1.0" encoding="utf-8" ?>
<svg baseProfile="tiny" height="762" version="1.2" viewBox="0 0 11018 8202" width="1024" xmlns="http://www.w3.org/2000/svg" xmlns:ev="http://www.w3.org/2001/xml-events" xmlns:xlink="http://www.w3.org/1999/xlink"><defs /><line stroke="#999" stroke-width="3" x1="7467.0" x2="7467.0" y1="4209.0" y2="3980.0" /><line stroke="#333" stroke-width="10" x1="5925.0" x2="7467.0" y1="5221.0" y2="4209.0" /><line stroke="#333" stroke-width="10" x1="4254.0" x2="5640.0" y1="4230.0" y2="5217.0" /><line stroke="#333" stroke-width="10" x1="4800.0" x2="4254.0" y1="2783.0" y2="4001.0" /><line stroke="#333" stroke-width="10" x1="6709.0" x2="4941.0" y1="2518.0" y2="2518.0" /><line stroke="#999" stroke-width="3" x1="7949.0" x2="3541.0" y1="853.0" y2="853.0" /><line stroke="#999" stroke-width="3" x1="3541.0" x2="1659.0" y1="853.0" y2="4202.0" /><line stroke="#999" stroke-width="3" x1="1659.0" x2="5783.0" y1="4202.0" y2="7374.0" /><line stroke="#999" stroke-width="3" x1="5783.0" x2="10103.0" y1="7374.0" y2="4302.0" /><line stroke="#999" stroke-width="3" x1="10103.0" x2="7949.0" y1="4302.0" y2="853.0" /><line stroke="#333" stroke-width="10" x1="3725.0" x2="7853.0" y1="1045.0" y2="1045.0" /><line stroke="#333" stroke-width="10" x1="2058.0" x2="3564.0" y1="3995.0" y2="1367.0" /><line stroke="#999" stroke-width="3" x1="5917.0" x2="5644.0" y1="7044.0" y2="7065.0" /><line stroke="#333" stroke-width="10" x1="9610.0" x2="5917.0" y1="4209.0" y2="7044.0" /><line stroke="#999" stroke-width="3" x1="7853.0" x2="8044.0" y1="1045.0" y2="1331.0" /><line stroke="#999" stroke-width="3" x1="5640.0" x2="5925.0" y1="5217.0" y2="5221.0" /><line stroke="#333" stroke-width="10" x1="5644.0" x2="2004.0" y1="7065.0" y2="4245.0" /><line stroke="#333" stroke-width="10" x1="5640.0" x2="5644.0" y1="5217.0" y2="7065.0" /><line stroke="#333" stroke-width="10" x1="5917.0" x2="5925.0" y1="7044.0" y2="5221.0" /><line stroke="#333" stroke-width="10" x1="7467.0" x2="6879.0" y1="3980.0" y2="2787.0" /><line stroke="#999" stroke-width="3" x1="9520.0" x2="9610.0" y1="3977.0" y2="4209.0" /><line stroke="#333" stroke-width="10" x1="7467.0" x2="9610.0" y1="4209.0" y2="4209.0" /><line stroke="#333" stroke-width="10" x1="9520.0" x2="7467.0" y1="3977.0" y2="3980.0" /><line stroke="#999" stroke-width="3" x1="4254.0" x2="4254.0" y1="4001.0" y2="4230.0" /><line stroke="#999" stroke-width="3" x1="2004.0" x2="2058.0" y1="4245.0" y2="3995.0" /><line stroke="#333" stroke-width="10" x1="2004.0" x2="4254.0" y1="4245.0" y2="4230.0" /><line stroke="#333" stroke-width="10" x1="4254.0" x2="2058.0" y1="4001.0" y2="3995.0" /><line stroke="#999" stroke-width="3" x1="4941.0" x2="4800.0" y1="2518.0" y2="2783.0" /><line stroke="#999" stroke-width="3" x1="3564.0" x2="3725.0" y1="1367.0" y2="1045.0" /><line stroke="#333" stroke-width="10" x1="3564.0" x2="4800.0" y1="1367.0" y2="2783.0" /><line stroke="#333" stroke-width="10" x1="4941.0" x2="3725.0" y1="2518.0" y2="1045.0" /><line stroke="#999" stroke-width="3" x1="6879.0" x2="6709.0" y1="2787.0" y2="2518.0" /><line stroke="#333" stroke-width="10" x1="8044.0" x2="9520.0" y1="1331.0" y2="3977.0" /><line stroke="#333" stroke-width="10" x1="6879.0" x2="8044.0" y1="2787.0" y2="1331.0" /><line stroke="#333" stroke-width="10" x1="7853.0" x2="6709.0" y1="1045.0" y2="2518.0" /><line stroke="#333" stroke-width="10" x1="6661.0" x2="6661.0" y1="2437.0" y2="1317.0" /><line stroke="#333" stroke-width="10" x1="4997.0" x2="6661.0" y1="2437.0" y2="2437.0" /><line stroke="#333" stroke-width="10" x1="4997.0" x2="4997.0" y1="1157.0" y2="2437.0" /><line stroke="#999" stroke-width="3" x1="6469.0" x2="6469.0" y1="1317.0" y2="1157.0" /><line stroke="#00d" stroke-width="20" x1="5125.0" x2="5061.0" y1="1285.0" y2="1285.0" /><line stroke="#00d" stroke-width="20" x1="5125.0" x2="5125.0" y1="1221.0" y2="1285.0" /><line stroke="#00d" stroke-width="20" x1="5061.0" x2="5125.0" y1="1221.0" y2="1221.0" /><line stroke="#00d" stroke-width="20" x1="5061.0" x2="5061.0" y1="1285.0" y2="1221.0" /><line stroke="#00d" stroke-width="20" x1="5765.0" x2="5765.0" y1="965.0" y2="901.0" /><line stroke="#00d" stroke-width="20" x1="5765.0" x2="5829.0" y1="901.0" y2="901.0" /><line stroke="#00d" stroke-width="20" x1="5829.0" x2="5829.0" y1="901.0" y2="965.0" /><line stroke="#00d" stroke-width="20" x1="5829.0" x2="5765.0" y1="965.0" y2="965.0" /><line stroke="#999" stroke-width="3" x1="5253.0" x2="5125.0" y1="2181.0" y2="2181.0" /><line stroke="#999" stroke-width="3" x1="5253.0" x2="5253.0" y1="2053.0" y2="2181.0" /><line stroke="#999" stroke-width="3" x1="5125.0" x2="5253.0" y1="2053.0" y2="2053.0" /><line stroke="#999" stroke-width="3" x1="5125.0" x2="5125.0" y1="2181.0" y2="2053.0" /><line stroke="#333" stroke-width="10" x1="5509.0" x2="5381.0" y1="2053.0" y2="2053.0" /><line stroke="#333" stroke-width="10" x1="5509.0" x2="5509.0" y1="1925.0" y2="2053.0" /><line stroke="#333" stroke-width="10" x1="5637.0" x2="5509.0" y1="1925.0" y2="1925.0" /><line stroke="#333" stroke-width="10" x1="5637.0" x2="5637.0" y1="1797.0" y2="1925.0" /><line stroke="#333" stroke-width="10" x1="5381.0" x2="5509.0" y1="1797.0" y2="1797.0" /><line stroke="#333" stroke-width="10" x1="5381.0" x2="5381.0" y1="2053.0" y2="1925.0" /><line stroke="#333" stroke-width="10" x1="5381.0" x2="5381.0" y1="1925.0" y2="1797.0" /><line stroke="#333" stroke-width="10" x1="5509.0" x2="5637.0" y1="1797.0" y2="1797.0" /><line stroke="#999" stroke-width="3" x1="5765.0" x2="5733.0" y1="1541.0" y2="1541.0" /><line stroke="#999" stroke-width="3" x1="5765.0" x2="5765.0" y1="1509.0" y2="1541.0" /><line stroke="#999" stroke-width="3" x1="5733.0" x2="5765.0" y1="1509.0" y2="1509.0" /><line stroke="#999" stroke-width="3" x1="5733.0" x2="5733.0" y1="1541.0" y2="1509.0" /><line stroke="#999" stroke-width="3" x1="6181.0" x2="6149.0" y1="1925.0" y2="1925.0" /><line stroke="#999" stroke-width="3" x1="6181.0" x2="6181.0" y1="1893.0" y2="1925.0" /><line stroke="#999" stroke-width="3" x1="6149.0" x2="6181.0" y1="1893.0" y2="1893.0" /><line stroke="#999" stroke-width="3" x1="6149.0" x2="6149.0" y1="1925.0" y2="1893.0" /><line stroke="#999" stroke-width="3" x1="6309.0" x2="6277.0" y1="1797.0" y2="1797.0" /><line stroke="#999" stroke-width="3" x1="6309.0" x2="6309.0" y1="1765.0" y2="1797.0" /><line stroke="#999" stroke-width="3" x1="6277.0" x2="6309.0" y1="1765.0" y2="1765.0" /><line stroke="#999" stroke-width="3" x1="6277.0" x2="6277.0" y1="1797.0" y2="1765.0" /><line stroke="#999" stroke-width="3" x1="6661.0" x2="6469.0" y1="1317.0" y2="1317.0" /><line stroke="#333" stroke-width="10" x1="6469.0" x2="4997.0" y1="1157.0" y2="1157.0" /><line stroke="#333" stroke-width="10" x1="6661.0" x2="6469.0" y1="1157.0" y2="1157.0" /><line stroke="#333" stroke-width="10" x1="6661.0" x2="6661.0" y1="1317.0" y2="1221.0" /><line stroke="#999" stroke-width="3" x1="6517.0" x2="6501.0" y1="1237.0" y2="1237.0" /><line stroke="#999" stroke-width="3" x1="6517.0" x2="6517.0" y1="1253.0" y2="1237.0" /><line stroke="#999" stroke-width="3" x1="6533.0" x2="6517.0" y1="1253.0" y2="1253.0" /><line stroke="#999" stroke-width="3" x1="6533.0" x2="6533.0" y1="1221.0" y2="1253.0" /><line stroke="#999" stroke-width="3" x1="6501.0" x2="6533.0" y1="1221.0" y2="1221.0" /><line stroke="#999" stroke-width="3" x1="6501.0" x2="6501.0" y1="1237.0" y2="1221.0" /><line stroke="#333" stroke-width="10" x1="5381.0" x2="5381.0" y1="1413.0" y2="1541.0" /><line stroke="#333" stroke-width="10" x1="5893.0" x2="5381.0" y1="1413.0" y2="1413.0" /><line stroke="#333" stroke-width="10" x1="5893.0" x2="5893.0" y1="2309.0" y2="1797.0" /><line stroke="#333" stroke-width="10" x1="6533.0" x2="5893.0" y1="2309.0" y2="2309.0" /><line stroke="#333" stroke-width="10" x1="6533.0" x2="6533.0" y1="1925.0" y2="2309.0" /><line stroke="#333" stroke-width="10" x1="6405.0" x2="6533.0" y1="1925.0" y2="1925.0" /><line stroke="#333" stroke-width="10" x1="6405.0" x2="6405.0" y1="2181.0" y2="1925.0" /><line stroke="#333" stroke-width="10" x1="6021.0" x2="6405.0" y1="2181.0" y2="2181.0" /><line stroke="#333" stroke-width="10" x1="6021.0" x2="6021.0" y1="1285.0" y2="1413.0" /><line stroke="#333" stroke-width="10" x1="5253.0" x2="5381.0" y1="1285.0" y2="1285.0" /><line stroke="#333" stroke-width="10" x1="5253.0" x2="5253.0" y1="1541.0" y2="1413.0" /><line stroke="#333" stroke-width="10" x1="5381.0" x2="5253.0" y1="1541.0" y2="1541.0" /><line stroke="#333" stroke-width="10" x1="5253.0" x2="5253.0" y1="1413.0" y2="1285.0" /><line stroke="#333" stroke-width="10" x1="5381.0" x2="5893.0" y1="1285.0" y2="1285.0" /><line stroke="#333" stroke-width="10" x1="5893.0" x2="6021.0" y1="1285.0" y2="1285.0" /><line stroke="#333" stroke-width="10" x1="6021.0" x2="6021.0" y1="1413.0" y2="1669.0" /><line stroke="#999" stroke-width="3" x1="5893.0" x2="5893.0" y1="1797.0" y2="1669.0" /><line stroke="#333" stroke-width="10" x1="6021.0" x2="6021.0" y1="1797.0" y2="2181.0" /><line stroke="#333" stroke-width="10" x1="5893.0" x2="5893.0" y1="1669.0" y2="1413.0" /><line stroke="#999" stroke-width="3" x1="6021.0" x2="6021.0" y1="1669.0" y2="1797.0" /><line stroke="#333" stroke-width="10" x1="5893.0" x2="6021.0" y1="1797.0" y2="1797.0" /><line stroke="#333" stroke-width="10" x1="6021.0" x2="5893.0" y1="1669.0" y2="1669.0" /><line stroke="#999" stroke-width="3" x1="6661.0" x2="6661.0" y1="1221.0" y2="1157.0" /><line stroke="#333" stroke-width="10" x1="6917.0" x2="6661.0" y1="1157.0" y2="1157.0" /><line stroke="#333" stroke-width="10" x1="6917.0" x2="6917.0" y1="1669.0" y2="1157.0" /><line stroke="#666" stroke-width="20" x1="6853.0" x2="6917.0" y1="1669.0" y2="1669.0" /><line stroke="#333" stroke-width="10" x1="6853.0" x2="6853.0" y1="1221.0" y2="1669.0" /><line stroke="#333" stroke-width="10" x1="6661.0" x2="6853.0" y1="1221.0" y2="1221.0" /><line stroke="#999" stroke-width="3" x1="5221.0" x2="5157.0" y1="2149.0" y2="2149.0" /><line stroke="#999" stroke-width="3" x1="5221.0" x2="5221.0" y1="2085.0" y2="2149.0" /><line stroke="#999" stroke-width="3" x1="5157.0" x2="5221.0" y1="2085.0" y2="2085.0" /><line stroke="#999" stroke-width="3" x1="5157.0" x2="5157.0" y1="2149.0" y2="2085.0" /><line stroke="#666" stroke-width="20" x1="6285.0" x2="6397.0" y1="1541.0" y2="1541.0" /><line stroke="#333" stroke-width="10" x1="6397.0" x2="6405.0" y1="1541.0" y2="1541.0" /><line stroke="#333" stroke-width="10" x1="6405.0" x2="6405.0" y1="1541.0" y2="1669.0" /><line stroke="#333" stroke-width="10" x1="6405.0" x2="6277.0" y1="1669.0" y2="1669.0" /><line stroke="#333" stroke-width="10" x1="6277.0" x2="6277.0" y1="1669.0" y2="1541.0" /><line stroke="#333" stroke-width="10" x1="6277.0" x2="6285.0" y1="1541.0" y2="1541.0" /><line stroke="#333" stroke-width="10" x1="6285.0" x2="6285.0" y1="1541.0" y2="1549.0" /><line stroke="#333" stroke-width="10" x1="6397.0" x2="6397.0" y1="1549.0" y2="1541.0" /><line stroke="#666" stroke-width="20" x1="6397.0" x2="6285.0" y1="1549.0" y2="1549.0" /><line stroke="#333" stroke-width="10" x1="6397.0" x2="6397.0" y1="1661.0" y2="1549.0" /><line stroke="#333" stroke-width="10" x1="6285.0" x2="6397.0" y1="1661.0" y2="1661.0" /><line stroke="#333" stroke-width="10" x1="6285.0" x2="6285.0" y1="1549.0" y2="1661.0" /><line stroke="#999" stroke-width="3" x1="5782.0" x2="1414.0" y1="7591.0" y2="4268.0" /><line stroke="#999" stroke-width="3" x1="1414.0" x2="3408.0" y1="4268.0" y2="691.0" /><line stroke="#999" stroke-width="3" x1="3408.0" x2="7983.0" y1="691.0" y2="673.0" /><line stroke="#999" stroke-width="3" x1="7983.0" x2="10376.0" y1="673.0" y2="4287.0" /><line stroke="#999" stroke-width="3" x1="10376.0" x2="5782.0" y1="4287.0" y2="7591.0" /><line stroke="#333" stroke-width="10" x1="5.0" x2="11013.0" y1="8197.0" y2="8197.0" /><line stroke="#333" stroke-width="10" x1="11013.0" x2="11013.0" y1="8197.0" y2="5.0" /><line stroke="#333" stroke-width="10" x1="11013.0" x2="5.0" y1="5.0" y2="5.0" /><line stroke="#333" stroke-width="10" x1="5.0" x2="5.0" y1="5.0" y2="8197.0" /><line stroke="#999" stroke-width="3" x1="5893.0" x2="5861.0" y1="261.0" y2="261.0" /><line stroke="#999" stroke-width="3" x1="5893.0" x2="5893.0" y1="133.0" y2="261.0" /><line stroke="#999" stroke-width="3" x1="5765.0" x2="5893.0" y1="133.0" y2="133.0" /><line stroke="#999" stroke-width="3" x1="5765.0" x2="5765.0" y1="261.0" y2="133.0" /><line stroke="#999" stroke-width="3" x1="5797.0" x2="5765.0" y1="261.0" y2="261.0" /><line stroke="#0d0" stroke-width="20" x1="5861.0" x2="5797.0" y1="261.0" y2="261.0" /><ellipse cx="5701.0" cy="7173.0" fill="#009" rx="12" ry="24" stroke="#009" stroke-width="5" /><rect fill="#090" height="24" stroke="#090" stroke-width="5" transform="rotate(0,3781.0,997.0)" width="24" x="3769.0" y="985.0" /><rect fill="#090" height="24" stroke="#090" stroke-width="5" transform="rotate(0,5797.0,997.0)" width="24" x="5785.0" y="985.0" /><rect fill="#090" height="24" stroke="#090" stroke-width="5" transform="rotate(0,7813.0,997.0)" width="24" x="7801.0" y="985.0" /><rect fill="#090" height="24" stroke="#090" stroke-width="5" transform="rotate(0,1989.0,4325.0)" width="24" x="1977.0" y="4313.0" /><rect fill="#090" height="24" stroke="#090" stroke-width="5" transform="rotate(0,5605.0,7077.0)" width="24" x="5593.0" y="7065.0" /><rect fill="#090" height="24" stroke="#090" stroke-width="5" transform="rotate(0,5925.0,7077.0)" width="24" x="5913.0" y="7065.0" /><rect fill="#090" height="24" stroke="#090" stroke-width="5" transform="rotate(0,9605.0,4261.0)" width="24" x="9593.0" y="4249.0" /><rect fill="#090" height="24" stroke="#090" stroke-width="5" transform="rotate(0,9541.0,3909.0)" width="24" x="9529.0" y="3897.0" /><rect fill="#090" height="24" stroke="#090" stroke-width="5" transform="rotate(0,5669.0,6981.0)" width="24" x="5657.0" y="6969.0" /><rect fill="#090" height="24" stroke="#090" stroke-width="5" transform="rotate(0,5893.0,6981.0)" width="24" x="5881.0" y="6969.0" /><rect fill="#090" height="24" stroke="#090" stroke-width="5" transform="rotate(0,5893.0,6533.0)" width="24" x="5881.0" y="6521.0" /><rect fill="#090" height="24" stroke="#090" stroke-width="5" transform="rotate(0,5669.0,6533.0)" width="24" x="5657.0" y="6521.0" /><rect fill="#090" height="24" stroke="#090" stroke-width="5" transform="rotate(0,5669.0,5253.0)" width="24" x="5657.0" y="5241.0" /><rect fill="#090" height="24" stroke="#090" stroke-width="5" transform="rotate(0,5893.0,5253.0)" width="24" x="5881.0" y="5241.0" /><rect fill="#090" height="24" stroke="#090" stroke-width="5" transform="rotate(0,7525.0,4165.0)" width="24" x="7513.0" y="4153.0" /><rect fill="#090" height="24" stroke="#090" stroke-width="5" transform="rotate(0,8293.0,4165.0)" width="24" x="8281.0" y="4153.0" /><rect fill="#090" height="24" stroke="#090" stroke-width="5" transform="rotate(0,9541.0,4165.0)" width="24" x="9529.0" y="4153.0" /><rect fill="#090" height="24" stroke="#090" stroke-width="5" transform="rotate(0,6981.0,2597.0)" width="24" x="6969.0" y="2585.0" /><rect fill="#090" height="24" stroke="#090" stroke-width="5" transform="rotate(0,7397.0,2085.0)" width="24" x="7385.0" y="2073.0" /><rect fill="#090" height="24" stroke="#090" stroke-width="5" transform="rotate(0,7973.0,1349.0)" width="24" x="7961.0" y="1337.0" /><rect fill="#090" height="24" stroke="#090" stroke-width="5" transform="rotate(0,3749.0,1125.0)" width="24" x="3737.0" y="1113.0" /><rect fill="#090" height="24" stroke="#090" stroke-width="5" transform="rotate(0,4197.0,1669.0)" width="24" x="4185.0" y="1657.0" /><rect fill="#090" height="24" stroke="#090" stroke-width="5" transform="rotate(0,4869.0,2501.0)" width="24" x="4857.0" y="2489.0" /><rect fill="#090" height="24" stroke="#090" stroke-width="5" transform="rotate(0,2085.0,4197.0)" width="24" x="2073.0" y="4185.0" /><rect fill="#090" height="24" stroke="#090" stroke-width="5" transform="rotate(0,3077.0,4197.0)" width="24" x="3065.0" y="4185.0" /><rect fill="#090" height="24" stroke="#090" stroke-width="5" transform="rotate(0,4229.0,4197.0)" width="24" x="4217.0" y="4185.0" /><rect fill="#009" height="24" stroke="#009" stroke-width="5" transform="rotate(0,5093.0,1253.0)" width="24" x="5081.0" y="1241.0" /><rect fill="#900" height="48" stroke="#900" stroke-width="5" transform="rotate(0,6613.0,1201.0)" width="32" x="6597.0" y="1177.0" /><rect fill="#009" height="24" stroke="#009" stroke-width="5" transform="rotate(0,5797.0,933.0)" width="24" x="5785.0" y="921.0" /><rect fill="#900" height="48" stroke="#900" stroke-width="5" transform="rotate(0,5957.0,1733.0)" width="32" x="5941.0" y="1709.0" /><circle cx="6341.0" cy="1581.0" fill="#900" r="16" stroke="#900" stroke-width="5" /><circle cx="6317.0" cy="1629.0" fill="#090" r="16" stroke="#090" stroke-width="5" /><circle cx="6365.0" cy="1629.0" fill="#090" r="16" stroke="#090" stroke-width="5" /><ellipse cx="1854.0" cy="4158.0" fill="#009" rx="12" ry="24" stroke="#009" stroke-width="5" /><ellipse cx="9751.0" cy="4119.0" fill="#009" rx="12" ry="24" stroke="#009" stroke-width="5" /><ellipse cx="5806.0" cy="3768.0" fill="#009" rx="12" ry="24" stroke="#009" stroke-width="5" /><rect fill="#090" height="24" stroke="#090" stroke-width="5" transform="rotate(0,3533.0,5525.0)" width="24" x="3521.0" y="5513.0" /><rect fill="#090" height="24" stroke="#090" stroke-width="5" transform="rotate(0,5780.0,2368.0)" width="24" x="5768.0" y="2356.0" /><rect fill="#090" height="24" stroke="#090" stroke-width="5" transform="rotate(0,7730.0,5755.0)" width="24" x="7718.0" y="5743.0" /><rect fill="#090" height="24" stroke="#090" stroke-width="5" transform="rotate(0,7821.0,1292.0)" width="24" x="7809.0" y="1280.0" /><rect fill="#900" height="48" stroke="#900" stroke-width="5" transform="rotate(0,4948.0,2694.0)" width="32" x="4932.0" y="2670.0" /><rect fill="#900" height="48" stroke="#900" stroke-width="5" transform="rotate(0,4417.0,4098.0)" width="32" x="4401.0" y="4074.0" /><rect fill="#900" height="48" stroke="#900" stroke-width="5" transform="rotate(0,5767.0,5081.0)" width="32" x="5751.0" y="5057.0" /><rect fill="#900" height="48" stroke="#900" stroke-width="5" transform="rotate(0,7327.0,4082.0)" width="32" x="7311.0" y="4058.0" /><rect fill="#900" height="48" stroke="#900" stroke-width="5" transform="rotate(0,6690.0,2730.0)" width="32" x="6674.0" y="2706.0" /><rect fill="#900" height="48" stroke="#900" stroke-width="5" transform="rotate(0,5767.0,4262.0)" width="32" x="5751.0" y="4238.0" /><rect fill="#900" height="48" stroke="#900" stroke-width="5" transform="rotate(0,5221.0,3991.0)" width="32" x="5205.0" y="3967.0" /><rect fill="#900" height="48" stroke="#900" stroke-width="5" transform="rotate(0,6352.0,4004.0)" width="32" x="6336.0" y="3980.0" /><rect fill="#900" height="48" stroke="#900" stroke-width="5" transform="rotate(0,6183.0,3367.0)" width="32" x="6167.0" y="3343.0" /><rect fill="#900" height="48" stroke="#900" stroke-width="5" transform="rotate(0,5377.0,3341.0)" width="32" x="5361.0" y="3317.0" /><circle cx="5381.0" cy="4613.0" fill="#090" r="16" stroke="#090" stroke-width="5" /><circle cx="5637.0" cy="4613.0" fill="#090" r="16" stroke="#090" stroke-width="5" /><circle cx="5893.0" cy="4613.0" fill="#090" r="16" stroke="#090" stroke-width="5" /><circle cx="6149.0" cy="4613.0" fill="#090" r="16" stroke="#090" stroke-width="5" /><circle cx="5381.0" cy="4357.0" fill="#090" r="16" stroke="#090" stroke-width="5" /><circle cx="5637.0" cy="4357.0" fill="#090" r="16" stroke="#090" stroke-width="5" /><circle cx="5893.0" cy="4357.0" fill="#090" r="16" stroke="#090" stroke-width="5" /><circle cx="6149.0" cy="4357.0" fill="#090" r="16" stroke="#090" stroke-width="5" /><circle cx="6149.0" cy="2821.0" fill="#090" r="16" stroke="#090" stroke-width="5" /><circle cx="6149.0" cy="3077.0" fill="#090" r="16" stroke="#090" stroke-width="5" /><circle cx="5893.0" cy="3077.0" fill="#090" r="16" stroke="#090" stroke-width="5" /><circle cx="5893.0" cy="2821.0" fill="#090" r="16" stroke="#090" stroke-width="5" /><circle cx="5637.0" cy="2821.0" fill="#090" r="16" stroke="#090" stroke-width="5" /><circle cx="5637.0" cy="3077.0" fill="#090" r="16" stroke="#090" stroke-width="5" /><circle cx="5381.0" cy="3077.0" fill="#090" r="16" stroke="#090" stroke-width="5" /><circle cx="5381.0" cy="2821.0" fill="#090" r="16" stroke="#090" stroke-width="5" /><circle cx="5637.0" cy="3845.0" fill="#900" r="16" stroke="#900" stroke-width="5" /><circle cx="261.0" cy="7685.0" fill="#090" r="16" stroke="#090" stroke-width="5" /><circle cx="517.0" cy="7685.0" fill="#090" r="16" stroke="#090" stroke-width="5" /><circle cx="773.0" cy="7685.0" fill="#090" r="16" stroke="#090" stroke-width="5" /><circle cx="1029.0" cy="7685.0" fill="#090" r="16" stroke="#090" stroke-width="5" /><circle cx="1029.0" cy="7941.0" fill="#090" r="16" stroke="#090" stroke-width="5" /><circle cx="773.0" cy="7941.0" fill="#090" r="16" stroke="#090" stroke-width="5" /><circle cx="517.0" cy="7941.0" fill="#090" r="16" stroke="#090" stroke-width="5" /><circle cx="261.0" cy="7941.0" fill="#090" r="16" stroke="#090" stroke-width="5" /><circle cx="9733.0" cy="7941.0" fill="#090" r="16" stroke="#090" stroke-width="5" /><circle cx="9733.0" cy="7685.0" fill="#090" r="16" stroke="#090" stroke-width="5" /><circle cx="9989.0" cy="7685.0" fill="#090" r="16" stroke="#090" stroke-width="5" /><circle cx="10245.0" cy="7685.0" fill="#090" r="16" stroke="#090" stroke-width="5" /><circle cx="10501.0" cy="7685.0" fill="#090" r="16" stroke="#090" stroke-width="5" /><circle cx="10501.0" cy="7941.0" fill="#090" r="16" stroke="#090" stroke-width="5" /><circle cx="10245.0" cy="7941.0" fill="#090" r="16" stroke="#090" stroke-width="5" /><circle cx="9989.0" cy="7941.0" fill="#090" r="16" stroke="#090" stroke-width="5" /><circle cx="261.0" cy="517.0" fill="#090" r="16" stroke="#090" stroke-width="5" /><circle cx="261.0" cy="773.0" fill="#090" r="16" stroke="#090" stroke-width="5" /><circle cx="517.0" cy="517.0" fill="#090" r="16" stroke="#090" stroke-width="5" /><circle cx="773.0" cy="517.0" fill="#090" r="16" stroke="#090" stroke-width="5" /><circle cx="1029.0" cy="517.0" fill="#090" r="16" stroke="#090" stroke-width="5" /><circle cx="1029.0" cy="773.0" fill="#090" r="16" stroke="#090" stroke-width="5" /><circle cx="773.0" cy="773.0" fill="#090" r="16" stroke="#090" stroke-width="5" /><circle cx="517.0" cy="773.0" fill="#090" r="16" stroke="#090" stroke-width="5" /><circle cx="9733.0" cy="517.0" fill="#090" r="16" stroke="#090" stroke-width="5" /><circle cx="9733.0" cy="773.0" fill="#090" r="16" stroke="#090" stroke-width="5" /><circle cx="9989.0" cy="517.0" fill="#090" r="16" stroke="#090" stroke-width="5" /><circle cx="10245.0" cy="517.0" fill="#090" r="16" stroke="#090" stroke-width="5" /><circle cx="10501.0" cy="517.0" fill="#090" r="16" stroke="#090" stroke-width="5" /><circle cx="10501.0" cy="773.0" fill="#090" r="16" stroke="#090" stroke-width="5" /><circle cx="10245.0" cy="773.0" fill="#090" r="16" stroke="#090" stroke-width="5" /><circle cx="9989.0" cy="773.0" fill="#090" r="16" stroke="#090" stroke-width="5" /><circle cx="773.0" cy="4357.0" fill="#090" r="16" stroke="#090" stroke-width="5" /><circle cx="261.0" cy="4357.0" fill="#090" r="16" stroke="#090" stroke-width="5" /><circle cx="261.0" cy="4613.0" fill="#090" r="16" stroke="#090" stroke-width="5" /><circle cx="517.0" cy="4357.0" fill="#090" r="16" stroke="#090" stroke-width="5" /><circle cx="1029.0" cy="4357.0" fill="#090" r="16" stroke="#090" stroke-width="5" /><circle cx="1029.0" cy="4613.0" fill="#090" r="16" stroke="#090" stroke-width="5" /><circle cx="773.0" cy="4613.0" fill="#090" r="16" stroke="#090" stroke-width="5" /><circle cx="517.0" cy="4613.0" fill="#090" r="16" stroke="#090" stroke-width="5" /><circle cx="5637.0" cy="7941.0" fill="#009" r="16" stroke="#009" stroke-width="5" /><circle cx="5893.0" cy="517.0" fill="#009" r="16" stroke="#009" stroke-width="5" /><circle cx="10501.0" cy="4357.0" fill="#009" r="16" stroke="#009" stroke-width="5" /><circle cx="1285.0" cy="4357.0" fill="#009" r="16" stroke="#009" stroke-width="5" /><circle cx="3333.0" cy="6149.0" fill="#009" r="16" stroke="#009" stroke-width="5" /><circle cx="8453.0" cy="5893.0" fill="#009" r="16" stroke="#009" stroke-width="5" /><rect fill="#900" height="48" stroke="#900" stroke-width="5" transform="rotate(0,1541.0,6405.0)" width="32" x="1525.0" y="6381.0" /><rect fill="#900" height="48" stroke="#900" stroke-width="5" transform="rotate(0,9477.0,6661.0)" width="32" x="9461.0" y="6637.0" /><rect fill="#900" height="48" stroke="#900" stroke-width="5" transform="rotate(0,1541.0,1541.0)" width="32" x="1525.0" y="1517.0" /><rect fill="#900" height="48" stroke="#900" stroke-width="5" transform="rotate(0,1797.0,1541.0)" width="32" x="1781.0" y="1517.0" /><rect fill="#900" height="48" stroke="#900" stroke-width="5" transform="rotate(0,1285.0,1541.0)" width="32" x="1269.0" y="1517.0" /><rect fill="#900" height="48" stroke="#900" stroke-width="5" transform="rotate(0,9733.0,1541.0)" width="32" x="9717.0" y="1517.0" /></svg>