<?xml version="1.0" encoding="utf-8" ?>
<svg baseProfile="tiny" height="1024" version="1.2" viewBox="0 0 2110 2110" width="1024" xmlns="http://www.w3.org/2000/svg" xmlns:ev="http://www.w3.org/2001/xml-events" xmlns:xlink="http://www.w3.org/1999/xlink"><defs /><line stroke="#333" stroke-width="10" x1="5.0" x2="5.0" y1="705.0" y2="1405.0" /><line stroke="#333" stroke-width="10" x1="705.0" x2="5.0" y1="5.0" y2="705.0" /><line stroke="#333" stroke-width="10" x1="1405.0" x2="705.0" y1="5.0" y2="5.0" /><line stroke="#333" stroke-width="10" x1="2105.0" x2="1405.0" y1="705.0" y2="5.0" /><line stroke="#333" stroke-width="10" x1="2105.0" x2="2105.0" y1="1405.0" y2="705.0" /><line stroke="#333" stroke-width="10" x1="1405.0" x2="2105.0" y1="2105.0" y2="1405.0" /><line stroke="#333" stroke-width="10" x1="705.0" x2="1405.0" y1="2105.0" y2="2105.0" /><line stroke="#333" stroke-width="10" x1="5.0" x2="705.0" y1="1405.0" y2="2105.0" /><line stroke="#333" stroke-width="10" x1="705.0" x2="455.0" y1="1655.0" y2="1405.0" /><line stroke="#333" stroke-width="10" x1="1655.0" x2="1405.0" y1="1405.0" y2="1655.0" /><line stroke="#333" stroke-width="10" x1="1405.0" x2="1655.0" y1="455.0" y2="705.0" /><line stroke="#333" stroke-width="10" x1="455.0" x2="705.0" y1="705.0" y2="455.0" /><line stroke="#333" stroke-width="10" x1="905.0" x2="705.0" y1="1655.0" y2="1655.0" /><line stroke="#333" stroke-width="10" x1="905.0" x2="905.0" y1="1605.0" y2="1655.0" /><line stroke="#333" stroke-width="10" x1="730.0" x2="905.0" y1="1605.0" y2="1605.0" /><line stroke="#333" stroke-width="10" x1="505.0" x2="730.0" y1="1380.0" y2="1605.0" /><line stroke="#333" stroke-width="10" x1="505.0" x2="505.0" y1="1205.0" y2="1380.0" /><line stroke="#333" stroke-width="10" x1="455.0" x2="505.0" y1="1205.0" y2="1205.0" /><line stroke="#333" stroke-width="10" x1="455.0" x2="455.0" y1="1405.0" y2="1205.0" /><line stroke="#333" stroke-width="10" x1="1655.0" x2="1655.0" y1="1205.0" y2="1405.0" /><line stroke="#333" stroke-width="10" x1="1605.0" x2="1655.0" y1="1205.0" y2="1205.0" /><line stroke="#333" stroke-width="10" x1="1605.0" x2="1605.0" y1="1380.0" y2="1205.0" /><line stroke="#333" stroke-width="10" x1="1380.0" x2="1605.0" y1="1605.0" y2="1380.0" /><line stroke="#333" stroke-width="10" x1="1205.0" x2="1380.0" y1="1605.0" y2="1605.0" /><line stroke="#333" stroke-width="10" x1="1205.0" x2="1205.0" y1="1655.0" y2="1605.0" /><line stroke="#333" stroke-width="10" x1="1405.0" x2="1205.0" y1="1655.0" y2="1655.0" /><line stroke="#333" stroke-width="10" x1="1380.0" x2="1205.0" y1="505.0" y2="505.0" /><line stroke="#333" stroke-width="10" x1="1605.0" x2="1380.0" y1="730.0" y2="505.0" /><line stroke="#333" stroke-width="10" x1="1605.0" x2="1605.0" y1="905.0" y2="730.0" /><line stroke="#333" stroke-width="10" x1="1655.0" x2="1605.0" y1="905.0" y2="905.0" /><line stroke="#333" stroke-width="10" x1="1655.0" x2="1655.0" y1="705.0" y2="905.0" /><line stroke="#333" stroke-width="10" x1="455.0" x2="455.0" y1="905.0" y2="705.0" /><line stroke="#333" stroke-width="10" x1="505.0" x2="455.0" y1="905.0" y2="905.0" /><line stroke="#333" stroke-width="10" x1="505.0" x2="505.0" y1="730.0" y2="905.0" /><line stroke="#333" stroke-width="10" x1="730.0" x2="505.0" y1="505.0" y2="730.0" /><line stroke="#333" stroke-width="10" x1="905.0" x2="730.0" y1="505.0" y2="505.0" /><line stroke="#333" stroke-width="10" x1="905.0" x2="905.0" y1="455.0" y2="505.0" /><line stroke="#333" stroke-width="10" x1="705.0" x2="905.0" y1="455.0" y2="455.0" /><line stroke="#333" stroke-width="10" x1="1205.0" x2="1405.0" y1="455.0" y2="455.0" /><line stroke="#333" stroke-width="10" x1="1205.0" x2="1205.0" y1="505.0" y2="455.0" /><line stroke="#999" stroke-width="3" x1="1025.0" x2="1025.0" y1="1085.0" y2="1025.0" /><line stroke="#999" stroke-width="3" x1="1085.0" x2="1025.0" y1="1085.0" y2="1085.0" /><line stroke="#999" stroke-width="3" x1="1085.0" x2="1085.0" y1="1025.0" y2="1085.0" /><line stroke="#999" stroke-width="3" x1="1025.0" x2="1085.0" y1="1025.0" y2="1025.0" /><line stroke="#999" stroke-width="3" x1="1205.0" x2="1205.0" y1="1205.0" y2="905.0" /><line stroke="#999" stroke-width="3" x1="905.0" x2="1205.0" y1="1205.0" y2="1205.0" /><line stroke="#999" stroke-width="3" x1="905.0" x2="905.0" y1="905.0" y2="1205.0" /><line stroke="#999" stroke-width="3" x1="1205.0" x2="905.0" y1="905.0" y2="905.0" /><rect fill="#090" height="24" stroke="#090" stroke-width="5" transform="rotate(180,1630.0,1055.0)" width="24" x="1618.0" y="1043.0" /><rect fill="#090" height="24" stroke="#090" stroke-width="5" transform="rotate(270,1055.0,1630.0)" width="24" x="1043.0" y="1618.0" /><rect fill="#090" height="24" stroke="#090" stroke-width="5" transform="rotate(0,480.0,1055.0)" width="24" x="468.0" y="1043.0" /><rect fill="#090" height="24" stroke="#090" stroke-width="5" transform="rotate(90,1055.0,480.0)" width="24" x="1043.0" y="468.0" /><circle cx="1055.0" cy="1055.0" fill="#900" r="16" stroke="#900" stroke-width="5" /><circle cx="1457.0" cy="1459.0" fill="#900" r="16" stroke="#900" stroke-width="5" /><circle cx="1457.0" cy="654.0" fill="#900" r="16" stroke="#900" stroke-width="5" /><circle cx="647.0" cy="664.0" fill="#900" r="16" stroke="#900" stroke-width="5" /><circle cx="657.0" cy="1459.0" fill="#900" r="16" stroke="#900" stroke-width="5" /><ellipse cx="1055.0" cy="1275.0" fill="#009" rx="12" ry="24" stroke="#009" stroke-width="5" /><rect fill="#900" height="48" stroke="#900" stroke-width="5" transform="rotate(270,1534.0,1742.0)" width="32" x="1518.0" y="1718.0" /><rect fill="#900" height="48" stroke="#900" stroke-width="5" transform="rotate(270,1744.0,1542.0)" width="32" x="1728.0" y="1518.0" /><rect fill="#900" height="48" stroke="#900" stroke-width="5" transform="rotate(270,1854.0,1242.0)" width="32" x="1838.0" y="1218.0" /><rect fill="#900" height="48" stroke="#900" stroke-width="5" transform="rotate(270,1874.0,842.0)" width="32" x="1858.0" y="818.0" /><rect fill="#900" height="48" stroke="#900" stroke-width="5" transform="rotate(270,1774.0,622.0)" width="32" x="1758.0" y="598.0" /><rect fill="#900" height="48" stroke="#900" stroke-width="5" transform="rotate(270,1494.0,362.0)" width="32" x="1478.0" y="338.0" /><rect fill="#900" height="48" stroke="#900" stroke-width="5" transform="rotate(270,1234.0,202.0)" width="32" x="1218.0" y="178.0" /><rect fill="#900" height="48" stroke="#900" stroke-width="5" transform="rotate(270,864.0,212.0)" width="32" x="848.0" y="188.0" /><rect fill="#900" height="48" stroke="#900" stroke-width="5" transform="rotate(270,604.0,362.0)" width="32" x="588.0" y="338.0" /><rect fill="#900" height="48" stroke="#900" stroke-width="5" transform="rotate(270,324.0,622.0)" width="32" x="308.0" y="598.0" /><rect fill="#900" height="48" stroke="#900" stroke-width="5" transform="rotate(270,234.0,902.0)" width="32" x="218.0" y="878.0" /><rect fill="#900" height="48" stroke="#900" stroke-width="5" transform="rotate(270,244.0,1222.0)" width="32" x="228.0" y="1198.0" /><rect fill="#900" height="48" stroke="#900" stroke-width="5" transform="rotate(270,344.0,1492.0)" width="32" x="328.0" y="1468.0" /><rect fill="#900" height="48" stroke="#900" stroke-width="5" transform="rotate(270,624.0,1782.0)" width="32" x="608.0" y="1758.0" /><rect fill="#900" height="48" stroke="#900" stroke-width="5" transform="rotate(270,904.0,1882.0)" width="32" x="888.0" y="1858.0" /><rect fill="#900" height="48" stroke="#900" stroke-width="5" transform="rotate(270,1204.0,1882.0)" width="32" x="1188.0" y="1858.0" /><circle cx="1147.0" cy="1055.0" fill="#900" r="16" stroke="#900" stroke-width="5" /><circle cx="1055.0" cy="1143.0" fill="#900" r="16" stroke="#900" stroke-width="5" /><circle cx="965.0" cy="1055.0" fill="#900" r="16" stroke="#900" stroke-width="5" /><circle cx="1055.0" cy="965.0" fill="#900" r="16" stroke="#900" stroke-width="5" /></svg>