<?xml version="1.0" encoding="utf-8" ?>
<svg baseProfile="tiny" height="630" version="1.2" viewBox="0 0 3370 2074" width="1024" xmlns="http://www.w3.org/2000/svg" xmlns:ev="http://www.w3.org/2001/xml-events" xmlns:xlink="http://www.w3.org/1999/xlink"><defs /><line stroke="#333" stroke-width="10" x1="3365.0" x2="3365.0" y1="989.0" y2="925.0" /><line stroke="#333" stroke-width="10" x1="3301.0" x2="3365.0" y1="989.0" y2="989.0" /><line stroke="#999" stroke-width="3" x1="3301.0" x2="3301.0" y1="925.0" y2="989.0" /><line stroke="#333" stroke-width="10" x1="3365.0" x2="3301.0" y1="925.0" y2="925.0" /><line stroke="#999" stroke-width="3" x1="2725.0" x2="2661.0" y1="1565.0" y2="1565.0" /><line stroke="#333" stroke-width="10" x1="2725.0" x2="2725.0" y1="1629.0" y2="1565.0" /><line stroke="#333" stroke-width="10" x1="2661.0" x2="2725.0" y1="1629.0" y2="1629.0" /><line stroke="#333" stroke-width="10" x1="2661.0" x2="2661.0" y1="1565.0" y2="1629.0" /><line stroke="#333" stroke-width="10" x1="1573.0" x2="1509.0" y1="925.0" y2="925.0" /><line stroke="#999" stroke-width="3" x1="1573.0" x2="1573.0" y1="989.0" y2="925.0" /><line stroke="#333" stroke-width="10" x1="1509.0" x2="1573.0" y1="989.0" y2="989.0" /><line stroke="#333" stroke-width="10" x1="1509.0" x2="1509.0" y1="925.0" y2="989.0" /><line stroke="#333" stroke-width="10" x1="2597.0" x2="2533.0" y1="349.0" y2="349.0" /><line stroke="#333" stroke-width="10" x1="2597.0" x2="2597.0" y1="413.0" y2="349.0" /><line stroke="#999" stroke-width="3" x1="2533.0" x2="2597.0" y1="413.0" y2="413.0" /><line stroke="#333" stroke-width="10" x1="2533.0" x2="2533.0" y1="349.0" y2="413.0" /><line stroke="#666" stroke-width="20" x1="1573.0" x2="1653.0" y1="1565.0" y2="1565.0" /><line stroke="#333" stroke-width="10" x1="2725.0" x2="2997.0" y1="1565.0" y2="1565.0" /><line stroke="#333" stroke-width="10" x1="3301.0" x2="3301.0" y1="1565.0" y2="989.0" /><line stroke="#333" stroke-width="10" x1="3301.0" x2="2597.0" y1="413.0" y2="413.0" /><line stroke="#333" stroke-width="10" x1="3301.0" x2="3301.0" y1="925.0" y2="413.0" /><line stroke="#333" stroke-width="10" x1="1573.0" x2="1573.0" y1="413.0" y2="669.0" /><line stroke="#333" stroke-width="10" x1="2533.0" x2="2341.0" y1="413.0" y2="413.0" /><line stroke="#333" stroke-width="10" x1="1573.0" x2="1573.0" y1="989.0" y2="1405.0" /><line stroke="#999" stroke-width="3" x1="2597.0" x2="2597.0" y1="605.0" y2="541.0" /><line stroke="#999" stroke-width="3" x1="2597.0" x2="2597.0" y1="669.0" y2="605.0" /><line stroke="#999" stroke-width="3" x1="2533.0" x2="2597.0" y1="669.0" y2="669.0" /><line stroke="#999" stroke-width="3" x1="2533.0" x2="2533.0" y1="541.0" y2="669.0" /><line stroke="#999" stroke-width="3" x1="2597.0" x2="2533.0" y1="541.0" y2="541.0" /><line stroke="#999" stroke-width="3" x1="2661.0" x2="2597.0" y1="541.0" y2="541.0" /><line stroke="#999" stroke-width="3" x1="2661.0" x2="2661.0" y1="605.0" y2="541.0" /><line stroke="#999" stroke-width="3" x1="2597.0" x2="2661.0" y1="605.0" y2="605.0" /><line stroke="#333" stroke-width="10" x1="1573.0" x2="1573.0" y1="861.0" y2="925.0" /><line stroke="#333" stroke-width="10" x1="2341.0" x2="1637.0" y1="413.0" y2="413.0" /><line stroke="#999" stroke-width="3" x1="2341.0" x2="2341.0" y1="477.0" y2="413.0" /><line stroke="#999" stroke-width="3" x1="1829.0" x2="1861.0" y1="477.0" y2="477.0" /><line stroke="#999" stroke-width="3" x1="1829.0" x2="1829.0" y1="541.0" y2="477.0" /><line stroke="#999" stroke-width="3" x1="1637.0" x2="1829.0" y1="541.0" y2="541.0" /><line stroke="#999" stroke-width="3" x1="1637.0" x2="1637.0" y1="861.0" y2="733.0" /><line stroke="#999" stroke-width="3" x1="1573.0" x2="1637.0" y1="861.0" y2="861.0" /><line stroke="#999" stroke-width="3" x1="2213.0" x2="2213.0" y1="541.0" y2="733.0" /><line stroke="#999" stroke-width="3" x1="2405.0" x2="2213.0" y1="541.0" y2="541.0" /><line stroke="#999" stroke-width="3" x1="2405.0" x2="2405.0" y1="605.0" y2="541.0" /><line stroke="#999" stroke-width="3" x1="2277.0" x2="2405.0" y1="605.0" y2="605.0" /><line stroke="#999" stroke-width="3" x1="2277.0" x2="2277.0" y1="733.0" y2="605.0" /><line stroke="#999" stroke-width="3" x1="2213.0" x2="2277.0" y1="733.0" y2="733.0" /><line stroke="#999" stroke-width="3" x1="2405.0" x2="2341.0" y1="797.0" y2="797.0" /><line stroke="#999" stroke-width="3" x1="2405.0" x2="2405.0" y1="733.0" y2="797.0" /><line stroke="#999" stroke-width="3" x1="2341.0" x2="2405.0" y1="733.0" y2="733.0" /><line stroke="#999" stroke-width="3" x1="2341.0" x2="2341.0" y1="669.0" y2="733.0" /><line stroke="#999" stroke-width="3" x1="2469.0" x2="2341.0" y1="669.0" y2="669.0" /><line stroke="#999" stroke-width="3" x1="2469.0" x2="2469.0" y1="733.0" y2="669.0" /><line stroke="#333" stroke-width="10" x1="2469.0" x2="2469.0" y1="797.0" y2="733.0" /><line stroke="#999" stroke-width="3" x1="2469.0" x2="2469.0" y1="861.0" y2="797.0" /><line stroke="#999" stroke-width="3" x1="2213.0" x2="2469.0" y1="861.0" y2="861.0" /><line stroke="#333" stroke-width="10" x1="2213.0" x2="2213.0" y1="797.0" y2="861.0" /><line stroke="#999" stroke-width="3" x1="2341.0" x2="2213.0" y1="797.0" y2="797.0" /><line stroke="#333" stroke-width="10" x1="2853.0" x2="2853.0" y1="1053.0" y2="925.0" /><line stroke="#333" stroke-width="10" x1="2981.0" x2="2853.0" y1="1053.0" y2="1053.0" /><line stroke="#333" stroke-width="10" x1="2981.0" x2="2981.0" y1="925.0" y2="1053.0" /><line stroke="#333" stroke-width="10" x1="2853.0" x2="2981.0" y1="925.0" y2="925.0" /><line stroke="#999" stroke-width="3" x1="1957.0" x2="2341.0" y1="477.0" y2="477.0" /><line stroke="#999" stroke-width="3" x1="1893.0" x2="1925.0" y1="477.0" y2="477.0" /><line stroke="#999" stroke-width="3" x1="1925.0" x2="1957.0" y1="477.0" y2="477.0" /><line stroke="#999" stroke-width="3" x1="1861.0" x2="1893.0" y1="477.0" y2="477.0" /><line stroke="#999" stroke-width="3" x1="1893.0" x2="1861.0" y1="541.0" y2="541.0" /><line stroke="#999" stroke-width="3" x1="1861.0" x2="1829.0" y1="541.0" y2="541.0" /><line stroke="#999" stroke-width="3" x1="1925.0" x2="1893.0" y1="541.0" y2="541.0" /><line stroke="#999" stroke-width="3" x1="1925.0" x2="1925.0" y1="541.0" y2="477.0" /><line stroke="#999" stroke-width="3" x1="1893.0" x2="1893.0" y1="541.0" y2="477.0" /><line stroke="#999" stroke-width="3" x1="1861.0" x2="1861.0" y1="541.0" y2="477.0" /><line stroke="#333" stroke-width="10" x1="2469.0" x2="2213.0" y1="1117.0" y2="1117.0" /><line stroke="#333" stroke-width="10" x1="2469.0" x2="2469.0" y1="1053.0" y2="1117.0" /><line stroke="#999" stroke-width="3" x1="2469.0" x2="2469.0" y1="989.0" y2="1053.0" /><line stroke="#333" stroke-width="10" x1="2469.0" x2="2469.0" y1="925.0" y2="989.0" /><line stroke="#333" stroke-width="10" x1="2213.0" x2="2469.0" y1="925.0" y2="925.0" /><line stroke="#333" stroke-width="10" x1="2213.0" x2="2213.0" y1="1117.0" y2="925.0" /><line stroke="#333" stroke-width="10" x1="2437.0" x2="2469.0" y1="1053.0" y2="1053.0" /><line stroke="#999" stroke-width="3" x1="2437.0" x2="2437.0" y1="989.0" y2="1053.0" /><line stroke="#333" stroke-width="10" x1="2469.0" x2="2437.0" y1="989.0" y2="989.0" /><line stroke="#333" stroke-width="10" x1="2421.0" x2="2437.0" y1="1053.0" y2="1053.0" /><line stroke="#999" stroke-width="3" x1="2421.0" x2="2421.0" y1="1053.0" y2="989.0" /><line stroke="#333" stroke-width="10" x1="2437.0" x2="2421.0" y1="989.0" y2="989.0" /><line stroke="#333" stroke-width="10" x1="2389.0" x2="2421.0" y1="1053.0" y2="1053.0" /><line stroke="#999" stroke-width="3" x1="2389.0" x2="2389.0" y1="989.0" y2="1053.0" /><line stroke="#333" stroke-width="10" x1="2421.0" x2="2389.0" y1="989.0" y2="989.0" /><line stroke="#333" stroke-width="10" x1="2373.0" x2="2389.0" y1="1053.0" y2="1053.0" /><line stroke="#999" stroke-width="3" x1="2373.0" x2="2373.0" y1="1053.0" y2="989.0" /><line stroke="#333" stroke-width="10" x1="2389.0" x2="2373.0" y1="989.0" y2="989.0" /><line stroke="#333" stroke-width="10" x1="2341.0" x2="2373.0" y1="1053.0" y2="1053.0" /><line stroke="#999" stroke-width="3" x1="2341.0" x2="2341.0" y1="989.0" y2="1053.0" /><line stroke="#333" stroke-width="10" x1="2373.0" x2="2341.0" y1="989.0" y2="989.0" /><line stroke="#333" stroke-width="10" x1="2325.0" x2="2341.0" y1="1053.0" y2="1053.0" /><line stroke="#999" stroke-width="3" x1="2325.0" x2="2325.0" y1="1053.0" y2="989.0" /><line stroke="#333" stroke-width="10" x1="2341.0" x2="2325.0" y1="989.0" y2="989.0" /><line stroke="#333" stroke-width="10" x1="2301.0" x2="2325.0" y1="1053.0" y2="1053.0" /><line stroke="#666" stroke-width="20" x1="2301.0" x2="2301.0" y1="989.0" y2="1053.0" /><line stroke="#333" stroke-width="10" x1="2325.0" x2="2301.0" y1="989.0" y2="989.0" /><line stroke="#333" stroke-width="10" x1="2285.0" x2="2301.0" y1="1053.0" y2="1053.0" /><line stroke="#666" stroke-width="20" x1="2285.0" x2="2285.0" y1="1053.0" y2="989.0" /><line stroke="#333" stroke-width="10" x1="2301.0" x2="2285.0" y1="989.0" y2="989.0" /><line stroke="#333" stroke-width="10" x1="2261.0" x2="2285.0" y1="1053.0" y2="1053.0" /><line stroke="#333" stroke-width="10" x1="2285.0" x2="2261.0" y1="989.0" y2="989.0" /><line stroke="#666" stroke-width="20" x1="1637.0" x2="1573.0" y1="413.0" y2="413.0" /><line stroke="#333" stroke-width="10" x1="1573.0" x2="1573.0" y1="397.0" y2="413.0" /><line stroke="#666" stroke-width="20" x1="1573.0" x2="1637.0" y1="397.0" y2="397.0" /><line stroke="#333" stroke-width="10" x1="1637.0" x2="1637.0" y1="413.0" y2="397.0" /><line stroke="#333" stroke-width="10" x1="1573.0" x2="1573.0" y1="349.0" y2="397.0" /><line stroke="#666" stroke-width="20" x1="1637.0" x2="1573.0" y1="349.0" y2="349.0" /><line stroke="#333" stroke-width="10" x1="1637.0" x2="1637.0" y1="397.0" y2="349.0" /><line stroke="#333" stroke-width="10" x1="2725.0" x2="2597.0" y1="797.0" y2="797.0" /><line stroke="#333" stroke-width="10" x1="2725.0" x2="2725.0" y1="669.0" y2="797.0" /><line stroke="#333" stroke-width="10" x1="2661.0" x2="2725.0" y1="669.0" y2="669.0" /><line stroke="#333" stroke-width="10" x1="2661.0" x2="2661.0" y1="733.0" y2="669.0" /><line stroke="#333" stroke-width="10" x1="2469.0" x2="2661.0" y1="733.0" y2="733.0" /><line stroke="#999" stroke-width="3" x1="1957.0" x2="2149.0" y1="541.0" y2="541.0" /><line stroke="#999" stroke-width="3" x1="1957.0" x2="1957.0" y1="733.0" y2="541.0" /><line stroke="#999" stroke-width="3" x1="2149.0" x2="2021.0" y1="733.0" y2="733.0" /><line stroke="#999" stroke-width="3" x1="2149.0" x2="2149.0" y1="541.0" y2="733.0" /><line stroke="#999" stroke-width="3" x1="2085.0" x2="2021.0" y1="605.0" y2="605.0" /><line stroke="#999" stroke-width="3" x1="2085.0" x2="2085.0" y1="669.0" y2="605.0" /><line stroke="#999" stroke-width="3" x1="2021.0" x2="2085.0" y1="669.0" y2="669.0" /><line stroke="#999" stroke-width="3" x1="2021.0" x2="2021.0" y1="605.0" y2="669.0" /><line stroke="#333" stroke-width="10" x1="1653.0" x2="1653.0" y1="1565.0" y2="1437.0" /><line stroke="#333" stroke-width="10" x1="1645.0" x2="1653.0" y1="1405.0" y2="1405.0" /><line stroke="#333" stroke-width="10" x1="1573.0" x2="1573.0" y1="1437.0" y2="1565.0" /><line stroke="#333" stroke-width="10" x1="1653.0" x2="1645.0" y1="1437.0" y2="1437.0" /><line stroke="#333" stroke-width="10" x1="1573.0" x2="1581.0" y1="1405.0" y2="1405.0" /><line stroke="#333" stroke-width="10" x1="1581.0" x2="1573.0" y1="1437.0" y2="1437.0" /><line stroke="#d00" stroke-width="20" x1="1581.0" x2="1645.0" y1="1405.0" y2="1405.0" /><line stroke="#666" stroke-width="20" x1="1645.0" x2="1581.0" y1="1437.0" y2="1437.0" /><line stroke="#333" stroke-width="10" x1="1645.0" x2="1645.0" y1="1437.0" y2="1405.0" /><line stroke="#333" stroke-width="10" x1="1581.0" x2="1581.0" y1="1405.0" y2="1437.0" /><line stroke="#333" stroke-width="10" x1="1701.0" x2="2661.0" y1="1565.0" y2="1565.0" /><line stroke="#333" stroke-width="10" x1="1653.0" x2="1701.0" y1="1405.0" y2="1405.0" /><line stroke="#333" stroke-width="10" x1="1701.0" x2="1701.0" y1="1405.0" y2="1565.0" /><line stroke="#333" stroke-width="10" x1="2533.0" x2="2469.0" y1="797.0" y2="797.0" /><line stroke="#333" stroke-width="10" x1="2085.0" x2="2213.0" y1="797.0" y2="797.0" /><line stroke="#333" stroke-width="10" x1="2085.0" x2="2085.0" y1="1245.0" y2="797.0" /><line stroke="#333" stroke-width="10" x1="2597.0" x2="2085.0" y1="1245.0" y2="1245.0" /><line stroke="#333" stroke-width="10" x1="2597.0" x2="2597.0" y1="797.0" y2="1245.0" /><line stroke="#333" stroke-width="10" x1="2533.0" x2="2533.0" y1="1181.0" y2="797.0" /><line stroke="#333" stroke-width="10" x1="2149.0" x2="2533.0" y1="1181.0" y2="1181.0" /><line stroke="#333" stroke-width="10" x1="2149.0" x2="2149.0" y1="861.0" y2="1181.0" /><line stroke="#333" stroke-width="10" x1="2213.0" x2="2149.0" y1="861.0" y2="861.0" /><line stroke="#333" stroke-width="10" x1="1957.0" x2="2021.0" y1="733.0" y2="733.0" /><line stroke="#333" stroke-width="10" x1="1829.0" x2="1957.0" y1="797.0" y2="797.0" /><line stroke="#333" stroke-width="10" x1="1829.0" x2="1829.0" y1="1117.0" y2="797.0" /><line stroke="#333" stroke-width="10" x1="2021.0" x2="1829.0" y1="1117.0" y2="1117.0" /><line stroke="#333" stroke-width="10" x1="2021.0" x2="2021.0" y1="989.0" y2="1117.0" /><line stroke="#333" stroke-width="10" x1="1957.0" x2="2021.0" y1="989.0" y2="989.0" /><line stroke="#333" stroke-width="10" x1="1957.0" x2="1957.0" y1="1053.0" y2="989.0" /><line stroke="#333" stroke-width="10" x1="1893.0" x2="1957.0" y1="1053.0" y2="1053.0" /><line stroke="#333" stroke-width="10" x1="1893.0" x2="1893.0" y1="861.0" y2="1053.0" /><line stroke="#333" stroke-width="10" x1="1957.0" x2="1893.0" y1="861.0" y2="861.0" /><line stroke="#333" stroke-width="10" x1="1957.0" x2="1957.0" y1="925.0" y2="861.0" /><line stroke="#333" stroke-width="10" x1="2021.0" x2="1957.0" y1="925.0" y2="925.0" /><line stroke="#333" stroke-width="10" x1="2021.0" x2="2021.0" y1="733.0" y2="925.0" /><line stroke="#333" stroke-width="10" x1="1957.0" x2="1957.0" y1="797.0" y2="733.0" /><line stroke="#999" stroke-width="3" x1="1893.0" x2="2021.0" y1="1309.0" y2="1309.0" /><line stroke="#999" stroke-width="3" x1="1893.0" x2="1893.0" y1="1181.0" y2="1309.0" /><line stroke="#999" stroke-width="3" x1="2021.0" x2="1893.0" y1="1181.0" y2="1181.0" /><line stroke="#999" stroke-width="3" x1="2021.0" x2="2021.0" y1="1309.0" y2="1181.0" /><line stroke="#999" stroke-width="3" x1="3264.0" x2="3296.0" y1="801.0" y2="673.0" /><line stroke="#999" stroke-width="3" x1="3264.0" x2="3168.0" y1="801.0" y2="897.0" /><line stroke="#999" stroke-width="3" x1="3064.0" x2="3168.0" y1="929.0" y2="897.0" /><line stroke="#999" stroke-width="3" x1="3064.0" x2="2912.0" y1="929.0" y2="897.0" /><line stroke="#999" stroke-width="3" x1="2824.0" x2="2912.0" y1="801.0" y2="897.0" /><line stroke="#999" stroke-width="3" x1="2824.0" x2="2784.0" y1="801.0" y2="673.0" /><line stroke="#999" stroke-width="3" x1="2824.0" x2="2784.0" y1="545.0" y2="673.0" /><line stroke="#999" stroke-width="3" x1="2824.0" x2="2912.0" y1="545.0" y2="449.0" /><line stroke="#999" stroke-width="3" x1="3040.0" x2="2912.0" y1="417.0" y2="449.0" /><line stroke="#999" stroke-width="3" x1="3168.0" x2="3040.0" y1="449.0" y2="417.0" /><line stroke="#999" stroke-width="3" x1="3264.0" x2="3168.0" y1="545.0" y2="449.0" /><line stroke="#999" stroke-width="3" x1="3296.0" x2="3264.0" y1="673.0" y2="545.0" /><line stroke="#999" stroke-width="3" x1="3181.0" x2="3173.0" y1="669.0" y2="717.0" /><line stroke="#999" stroke-width="3" x1="3117.0" x2="3173.0" y1="781.0" y2="717.0" /><line stroke="#999" stroke-width="3" x1="3117.0" x2="3061.0" y1="781.0" y2="797.0" /><line stroke="#999" stroke-width="3" x1="2989.0" x2="3061.0" y1="781.0" y2="797.0" /><line stroke="#999" stroke-width="3" x1="2989.0" x2="2949.0" y1="781.0" y2="749.0" /><line stroke="#999" stroke-width="3" x1="2925.0" x2="2949.0" y1="669.0" y2="749.0" /><line stroke="#999" stroke-width="3" x1="2925.0" x2="2941.0" y1="669.0" y2="613.0" /><line stroke="#999" stroke-width="3" x1="3005.0" x2="2941.0" y1="557.0" y2="613.0" /><line stroke="#999" stroke-width="3" x1="3005.0" x2="3053.0" y1="557.0" y2="541.0" /><line stroke="#999" stroke-width="3" x1="3053.0" x2="3101.0" y1="541.0" y2="557.0" /><line stroke="#999" stroke-width="3" x1="3101.0" x2="3141.0" y1="557.0" y2="581.0" /><line stroke="#999" stroke-width="3" x1="3141.0" x2="3173.0" y1="581.0" y2="621.0" /><line stroke="#999" stroke-width="3" x1="3173.0" x2="3181.0" y1="621.0" y2="669.0" /><line stroke="#999" stroke-width="3" x1="2949.0" x2="2824.0" y1="749.0" y2="801.0" /><line stroke="#999" stroke-width="3" x1="2784.0" x2="2925.0" y1="673.0" y2="669.0" /><line stroke="#999" stroke-width="3" x1="2941.0" x2="2824.0" y1="613.0" y2="545.0" /><line stroke="#999" stroke-width="3" x1="2912.0" x2="3005.0" y1="449.0" y2="557.0" /><line stroke="#999" stroke-width="3" x1="2912.0" x2="2989.0" y1="897.0" y2="781.0" /><line stroke="#999" stroke-width="3" x1="3061.0" x2="3064.0" y1="797.0" y2="929.0" /><line stroke="#999" stroke-width="3" x1="3168.0" x2="3117.0" y1="897.0" y2="781.0" /><line stroke="#999" stroke-width="3" x1="3173.0" x2="3264.0" y1="717.0" y2="801.0" /><line stroke="#999" stroke-width="3" x1="3109.0" x2="3109.0" y1="1117.0" y2="1085.0" /><line stroke="#999" stroke-width="3" x1="3045.0" x2="3109.0" y1="1117.0" y2="1117.0" /><line stroke="#999" stroke-width="3" x1="3045.0" x2="3045.0" y1="1085.0" y2="1117.0" /><line stroke="#999" stroke-width="3" x1="3109.0" x2="3045.0" y1="1085.0" y2="1085.0" /><line stroke="#999" stroke-width="3" x1="3109.0" x2="3109.0" y1="1149.0" y2="1117.0" /><line stroke="#999" stroke-width="3" x1="3045.0" x2="3109.0" y1="1149.0" y2="1149.0" /><line stroke="#999" stroke-width="3" x1="3045.0" x2="3045.0" y1="1117.0" y2="1149.0" /><line stroke="#999" stroke-width="3" x1="3109.0" x2="3109.0" y1="1181.0" y2="1149.0" /><line stroke="#999" stroke-width="3" x1="3045.0" x2="3109.0" y1="1181.0" y2="1181.0" /><line stroke="#999" stroke-width="3" x1="3045.0" x2="3045.0" y1="1149.0" y2="1181.0" /><line stroke="#999" stroke-width="3" x1="3173.0" x2="3141.0" y1="1181.0" y2="1181.0" /><line stroke="#999" stroke-width="3" x1="3173.0" x2="3173.0" y1="1373.0" y2="1181.0" /><line stroke="#999" stroke-width="3" x1="2981.0" x2="3173.0" y1="1373.0" y2="1373.0" /><line stroke="#999" stroke-width="3" x1="2981.0" x2="2981.0" y1="1181.0" y2="1373.0" /><line stroke="#999" stroke-width="3" x1="3045.0" x2="3013.0" y1="1181.0" y2="1181.0" /><line stroke="#333" stroke-width="10" x1="3045.0" x2="3045.0" y1="1309.0" y2="1245.0" /><line stroke="#333" stroke-width="10" x1="3109.0" x2="3045.0" y1="1309.0" y2="1309.0" /><line stroke="#333" stroke-width="10" x1="3109.0" x2="3109.0" y1="1245.0" y2="1309.0" /><line stroke="#333" stroke-width="10" x1="3045.0" x2="3109.0" y1="1245.0" y2="1245.0" /><line stroke="#999" stroke-width="3" x1="3141.0" x2="3109.0" y1="1181.0" y2="1181.0" /><line stroke="#999" stroke-width="3" x1="3013.0" x2="2981.0" y1="1181.0" y2="1181.0" /><line stroke="#333" stroke-width="10" x1="1645.0" x2="1709.0" y1="1261.0" y2="1149.0" /><line stroke="#333" stroke-width="10" x1="1757.0" x2="1645.0" y1="1325.0" y2="1261.0" /><line stroke="#333" stroke-width="10" x1="1821.0" x2="1757.0" y1="1213.0" y2="1325.0" /><line stroke="#333" stroke-width="10" x1="1709.0" x2="1821.0" y1="1149.0" y2="1213.0" /><line stroke="#333" stroke-width="10" x1="3013.0" x2="3301.0" y1="1565.0" y2="1565.0" /><line stroke="#999" stroke-width="3" x1="2997.0" x2="3013.0" y1="1565.0" y2="1565.0" /><line stroke="#333" stroke-width="10" x1="2989.0" x2="3013.0" y1="1757.0" y2="1565.0" /><line stroke="#333" stroke-width="10" x1="3045.0" x2="2989.0" y1="1845.0" y2="1757.0" /><line stroke="#333" stroke-width="10" x1="3085.0" x2="3053.0" y1="2069.0" y2="1869.0" /><line stroke="#333" stroke-width="10" x1="2853.0" x2="3085.0" y1="2069.0" y2="2069.0" /><line stroke="#333" stroke-width="10" x1="2909.0" x2="2901.0" y1="1837.0" y2="1861.0" /><line stroke="#333" stroke-width="10" x1="2973.0" x2="2909.0" y1="1757.0" y2="1837.0" /><line stroke="#333" stroke-width="10" x1="2997.0" x2="2973.0" y1="1565.0" y2="1757.0" /><line stroke="#999" stroke-width="3" x1="2973.0" x2="2989.0" y1="1757.0" y2="1757.0" /><line stroke="#00d" stroke-width="20" x1="3045.0" x2="2925.0" y1="1845.0" y2="1837.0" /><line stroke="#333" stroke-width="10" x1="3053.0" x2="3045.0" y1="1869.0" y2="1845.0" /><line stroke="#333" stroke-width="10" x1="2901.0" x2="2853.0" y1="1861.0" y2="2069.0" /><line stroke="#999" stroke-width="3" x1="3053.0" x2="2925.0" y1="1869.0" y2="1861.0" /><line stroke="#666" stroke-width="20" x1="2709.0" x2="2637.0" y1="861.0" y2="837.0" /><line stroke="#666" stroke-width="20" x1="2677.0" x2="2709.0" y1="933.0" y2="861.0" /><line stroke="#666" stroke-width="20" x1="2621.0" x2="2677.0" y1="901.0" y2="933.0" /><line stroke="#666" stroke-width="20" x1="2637.0" x2="2621.0" y1="837.0" y2="901.0" /><line stroke="#333" stroke-width="10" x1="2261.0" x2="2261.0" y1="989.0" y2="1053.0" /><line stroke="#999" stroke-width="3" x1="2925.0" x2="2901.0" y1="1861.0" y2="1861.0" /><line stroke="#00d" stroke-width="20" x1="2925.0" x2="2909.0" y1="1837.0" y2="1837.0" /><line stroke="#999" stroke-width="3" x1="2925.0" x2="2925.0" y1="1837.0" y2="1861.0" /><line stroke="#999" stroke-width="3" x1="2597.0" x2="3013.0" y1="1245.0" y2="1565.0" /><line stroke="#999" stroke-width="3" x1="1637.0" x2="1829.0" y1="861.0" y2="1117.0" /><line stroke="#999" stroke-width="3" x1="2149.0" x2="2213.0" y1="733.0" y2="797.0" /><line stroke="#999" stroke-width="3" x1="1637.0" x2="1637.0" y1="669.0" y2="541.0" /><line stroke="#999" stroke-width="3" x1="1573.0" x2="1573.0" y1="669.0" y2="733.0" /><line stroke="#333" stroke-width="10" x1="1573.0" x2="1573.0" y1="733.0" y2="861.0" /><line stroke="#999" stroke-width="3" x1="1637.0" x2="1637.0" y1="733.0" y2="669.0" /><line stroke="#999" stroke-width="3" x1="1573.0" x2="1637.0" y1="733.0" y2="733.0" /><line stroke="#999" stroke-width="3" x1="1637.0" x2="1573.0" y1="669.0" y2="669.0" /><line stroke="#333" stroke-width="10" x1="1317.0" x2="1573.0" y1="733.0" y2="733.0" /><line stroke="#333" stroke-width="10" x1="1573.0" x2="1317.0" y1="669.0" y2="669.0" /><line stroke="#333" stroke-width="10" x1="1269.0" x2="1317.0" y1="709.0" y2="733.0" /><line stroke="#333" stroke-width="10" x1="1229.0" x2="1269.0" y1="661.0" y2="709.0" /><line stroke="#333" stroke-width="10" x1="1197.0" x2="1229.0" y1="597.0" y2="661.0" /><line stroke="#333" stroke-width="10" x1="1133.0" x2="1197.0" y1="565.0" y2="597.0" /><line stroke="#333" stroke-width="10" x1="1037.0" x2="1133.0" y1="573.0" y2="565.0" /><line stroke="#333" stroke-width="10" x1="973.0" x2="1037.0" y1="661.0" y2="573.0" /><line stroke="#333" stroke-width="10" x1="1005.0" x2="973.0" y1="797.0" y2="661.0" /><line stroke="#999" stroke-width="3" x1="885.0" x2="1005.0" y1="805.0" y2="797.0" /><line stroke="#333" stroke-width="10" x1="869.0" x2="885.0" y1="661.0" y2="805.0" /><line stroke="#333" stroke-width="10" x1="917.0" x2="869.0" y1="525.0" y2="661.0" /><line stroke="#333" stroke-width="10" x1="1061.0" x2="917.0" y1="461.0" y2="525.0" /><line stroke="#333" stroke-width="10" x1="1181.0" x2="1061.0" y1="469.0" y2="461.0" /><line stroke="#333" stroke-width="10" x1="1229.0" x2="1181.0" y1="453.0" y2="469.0" /><line stroke="#333" stroke-width="10" x1="1269.0" x2="1229.0" y1="389.0" y2="453.0" /><line stroke="#333" stroke-width="10" x1="1253.0" x2="1269.0" y1="317.0" y2="389.0" /><line stroke="#999" stroke-width="3" x1="1365.0" x2="1253.0" y1="317.0" y2="317.0" /><line stroke="#333" stroke-width="10" x1="1373.0" x2="1365.0" y1="405.0" y2="317.0" /><line stroke="#333" stroke-width="10" x1="1333.0" x2="1373.0" y1="485.0" y2="405.0" /><line stroke="#333" stroke-width="10" x1="1285.0" x2="1333.0" y1="541.0" y2="485.0" /><line stroke="#333" stroke-width="10" x1="1293.0" x2="1285.0" y1="613.0" y2="541.0" /><line stroke="#333" stroke-width="10" x1="1317.0" x2="1293.0" y1="669.0" y2="613.0" /><line stroke="#333" stroke-width="10" x1="1117.0" x2="1005.0" y1="941.0" y2="797.0" /><line stroke="#333" stroke-width="10" x1="981.0" x2="1117.0" y1="1077.0" y2="941.0" /><line stroke="#333" stroke-width="10" x1="821.0" x2="877.0" y1="965.0" y2="1005.0" /><line stroke="#333" stroke-width="10" x1="885.0" x2="821.0" y1="805.0" y2="965.0" /><line stroke="#333" stroke-width="10" x1="771.0" x2="779.0" y1="1488.0" y2="1440.0" /><line stroke="#333" stroke-width="10" x1="755.0" x2="771.0" y1="1544.0" y2="1488.0" /><line stroke="#333" stroke-width="10" x1="731.0" x2="755.0" y1="1592.0" y2="1544.0" /><line stroke="#333" stroke-width="10" x1="691.0" x2="731.0" y1="1632.0" y2="1592.0" /><line stroke="#333" stroke-width="10" x1="651.0" x2="691.0" y1="1656.0" y2="1632.0" /><line stroke="#333" stroke-width="10" x1="603.0" x2="651.0" y1="1680.0" y2="1656.0" /><line stroke="#999" stroke-width="3" x1="547.0" x2="603.0" y1="1696.0" y2="1680.0" /><line stroke="#333" stroke-width="10" x1="499.0" x2="547.0" y1="1696.0" y2="1696.0" /><line stroke="#333" stroke-width="10" x1="443.0" x2="499.0" y1="1680.0" y2="1696.0" /><line stroke="#333" stroke-width="10" x1="395.0" x2="443.0" y1="1656.0" y2="1680.0" /><line stroke="#333" stroke-width="10" x1="347.0" x2="395.0" y1="1632.0" y2="1656.0" /><line stroke="#333" stroke-width="10" x1="315.0" x2="347.0" y1="1592.0" y2="1632.0" /><line stroke="#333" stroke-width="10" x1="291.0" x2="315.0" y1="1544.0" y2="1592.0" /><line stroke="#333" stroke-width="10" x1="275.0" x2="291.0" y1="1488.0" y2="1544.0" /><line stroke="#333" stroke-width="10" x1="267.0" x2="275.0" y1="1440.0" y2="1488.0" /><line stroke="#999" stroke-width="3" x1="275.0" x2="267.0" y1="1384.0" y2="1440.0" /><line stroke="#333" stroke-width="10" x1="291.0" x2="275.0" y1="1336.0" y2="1384.0" /><line stroke="#333" stroke-width="10" x1="315.0" x2="291.0" y1="1288.0" y2="1336.0" /><line stroke="#333" stroke-width="10" x1="347.0" x2="315.0" y1="1248.0" y2="1288.0" /><line stroke="#333" stroke-width="10" x1="395.0" x2="347.0" y1="1216.0" y2="1248.0" /><line stroke="#333" stroke-width="10" x1="443.0" x2="395.0" y1="1192.0" y2="1216.0" /><line stroke="#333" stroke-width="10" x1="491.0" x2="443.0" y1="1184.0" y2="1192.0" /><line stroke="#333" stroke-width="10" x1="547.0" x2="491.0" y1="1184.0" y2="1184.0" /><line stroke="#333" stroke-width="10" x1="603.0" x2="547.0" y1="1192.0" y2="1184.0" /><line stroke="#333" stroke-width="10" x1="651.0" x2="603.0" y1="1216.0" y2="1192.0" /><line stroke="#333" stroke-width="10" x1="691.0" x2="651.0" y1="1248.0" y2="1216.0" /><line stroke="#999" stroke-width="3" x1="731.0" x2="691.0" y1="1288.0" y2="1248.0" /><line stroke="#333" stroke-width="10" x1="755.0" x2="731.0" y1="1336.0" y2="1288.0" /><line stroke="#333" stroke-width="10" x1="771.0" x2="755.0" y1="1384.0" y2="1336.0" /><line stroke="#333" stroke-width="10" x1="779.0" x2="771.0" y1="1440.0" y2="1384.0" /><line stroke="#999" stroke-width="3" x1="603.0" x2="275.0" y1="1680.0" y2="1384.0" /><line stroke="#999" stroke-width="3" x1="691.0" x2="603.0" y1="1248.0" y2="1680.0" /><line stroke="#999" stroke-width="3" x1="275.0" x2="691.0" y1="1384.0" y2="1248.0" /><line stroke="#666" stroke-width="20" x1="301.0" x2="589.0" y1="1389.0" y2="1645.0" /><line stroke="#666" stroke-width="20" x1="661.0" x2="301.0" y1="1277.0" y2="1389.0" /><line stroke="#666" stroke-width="20" x1="589.0" x2="661.0" y1="1645.0" y2="1277.0" /><line stroke="#666" stroke-width="20" x1="877.0" x2="925.0" y1="1005.0" y2="1037.0" /><line stroke="#333" stroke-width="10" x1="925.0" x2="981.0" y1="1037.0" y2="1077.0" /><line stroke="#333" stroke-width="10" x1="909.0" x2="925.0" y1="1053.0" y2="1037.0" /><line stroke="#666" stroke-width="20" x1="909.0" x2="861.0" y1="1053.0" y2="1021.0" /><line stroke="#333" stroke-width="10" x1="877.0" x2="861.0" y1="1005.0" y2="1021.0" /><line stroke="#333" stroke-width="10" x1="717.0" x2="706.0" y1="1221.0" y2="1237.0" /><line stroke="#666" stroke-width="20" x1="717.0" x2="757.0" y1="1221.0" y2="1261.0" /><line stroke="#333" stroke-width="10" x1="731.0" x2="746.0" y1="1288.0" y2="1277.0" /><line stroke="#333" stroke-width="10" x1="757.0" x2="909.0" y1="1261.0" y2="1053.0" /><line stroke="#333" stroke-width="10" x1="861.0" x2="717.0" y1="1021.0" y2="1221.0" /><line stroke="#333" stroke-width="10" x1="706.0" x2="691.0" y1="1237.0" y2="1248.0" /><line stroke="#333" stroke-width="10" x1="746.0" x2="757.0" y1="1277.0" y2="1261.0" /><line stroke="#666" stroke-width="20" x1="746.0" x2="706.0" y1="1277.0" y2="1237.0" /><line stroke="#333" stroke-width="10" x1="605.0" x2="603.0" y1="1693.0" y2="1680.0" /><line stroke="#999" stroke-width="3" x1="549.0" x2="605.0" y1="1709.0" y2="1693.0" /><line stroke="#333" stroke-width="10" x1="547.0" x2="549.0" y1="1696.0" y2="1709.0" /><line stroke="#333" stroke-width="10" x1="253.0" x2="267.0" y1="1437.0" y2="1440.0" /><line stroke="#999" stroke-width="3" x1="261.0" x2="253.0" y1="1381.0" y2="1437.0" /><line stroke="#333" stroke-width="10" x1="275.0" x2="261.0" y1="1384.0" y2="1381.0" /><line stroke="#333" stroke-width="10" x1="221.0" x2="253.0" y1="1445.0" y2="1437.0" /><line stroke="#333" stroke-width="10" x1="189.0" x2="221.0" y1="1493.0" y2="1445.0" /><line stroke="#333" stroke-width="10" x1="197.0" x2="189.0" y1="1541.0" y2="1493.0" /><line stroke="#333" stroke-width="10" x1="213.0" x2="197.0" y1="1597.0" y2="1541.0" /><line stroke="#333" stroke-width="10" x1="245.0" x2="213.0" y1="1645.0" y2="1597.0" /><line stroke="#333" stroke-width="10" x1="293.0" x2="245.0" y1="1685.0" y2="1645.0" /><line stroke="#333" stroke-width="10" x1="333.0" x2="293.0" y1="1709.0" y2="1685.0" /><line stroke="#333" stroke-width="10" x1="373.0" x2="333.0" y1="1733.0" y2="1709.0" /><line stroke="#333" stroke-width="10" x1="421.0" x2="373.0" y1="1741.0" y2="1733.0" /><line stroke="#333" stroke-width="10" x1="469.0" x2="421.0" y1="1741.0" y2="1741.0" /><line stroke="#333" stroke-width="10" x1="509.0" x2="469.0" y1="1741.0" y2="1741.0" /><line stroke="#333" stroke-width="10" x1="533.0" x2="509.0" y1="1725.0" y2="1741.0" /><line stroke="#333" stroke-width="10" x1="549.0" x2="533.0" y1="1709.0" y2="1725.0" /><line stroke="#333" stroke-width="10" x1="597.0" x2="605.0" y1="1733.0" y2="1693.0" /><line stroke="#333" stroke-width="10" x1="565.0" x2="597.0" y1="1781.0" y2="1733.0" /><line stroke="#333" stroke-width="10" x1="501.0" x2="565.0" y1="1805.0" y2="1781.0" /><line stroke="#333" stroke-width="10" x1="413.0" x2="501.0" y1="1813.0" y2="1805.0" /><line stroke="#333" stroke-width="10" x1="341.0" x2="413.0" y1="1813.0" y2="1813.0" /><line stroke="#333" stroke-width="10" x1="261.0" x2="341.0" y1="1789.0" y2="1813.0" /><line stroke="#333" stroke-width="10" x1="189.0" x2="261.0" y1="1781.0" y2="1789.0" /><line stroke="#333" stroke-width="10" x1="93.0" x2="189.0" y1="1781.0" y2="1781.0" /><line stroke="#333" stroke-width="10" x1="61.0" x2="93.0" y1="1797.0" y2="1781.0" /><line stroke="#666" stroke-width="20" x1="13.0" x2="61.0" y1="1749.0" y2="1797.0" /><line stroke="#333" stroke-width="10" x1="21.0" x2="13.0" y1="1717.0" y2="1749.0" /><line stroke="#333" stroke-width="10" x1="77.0" x2="21.0" y1="1629.0" y2="1717.0" /><line stroke="#333" stroke-width="10" x1="117.0" x2="77.0" y1="1557.0" y2="1629.0" /><line stroke="#333" stroke-width="10" x1="117.0" x2="117.0" y1="1517.0" y2="1557.0" /><line stroke="#333" stroke-width="10" x1="133.0" x2="117.0" y1="1445.0" y2="1517.0" /><line stroke="#333" stroke-width="10" x1="181.0" x2="133.0" y1="1397.0" y2="1445.0" /><line stroke="#333" stroke-width="10" x1="229.0" x2="181.0" y1="1381.0" y2="1397.0" /><line stroke="#333" stroke-width="10" x1="261.0" x2="229.0" y1="1381.0" y2="1381.0" /><line stroke="#333" stroke-width="10" x1="1229.0" x2="1253.0" y1="141.0" y2="293.0" /><line stroke="#999" stroke-width="3" x1="1349.0" x2="1229.0" y1="117.0" y2="141.0" /><line stroke="#333" stroke-width="10" x1="1365.0" x2="1365.0" y1="317.0" y2="293.0" /><line stroke="#333" stroke-width="10" x1="1189.0" x2="1229.0" y1="117.0" y2="141.0" /><line stroke="#999" stroke-width="3" x1="1237.0" x2="1189.0" y1="5.0" y2="117.0" /><line stroke="#333" stroke-width="10" x1="1349.0" x2="1237.0" y1="117.0" y2="5.0" /><line stroke="#333" stroke-width="10" x1="1141.0" x2="1189.0" y1="133.0" y2="117.0" /><line stroke="#999" stroke-width="3" x1="1085.0" x2="1141.0" y1="5.0" y2="133.0" /><line stroke="#333" stroke-width="10" x1="1237.0" x2="1085.0" y1="5.0" y2="5.0" /><line stroke="#333" stroke-width="10" x1="1117.0" x2="1141.0" y1="189.0" y2="133.0" /><line stroke="#999" stroke-width="3" x1="989.0" x2="1117.0" y1="101.0" y2="189.0" /><line stroke="#333" stroke-width="10" x1="1085.0" x2="989.0" y1="5.0" y2="101.0" /><line stroke="#333" stroke-width="10" x1="1069.0" x2="1117.0" y1="293.0" y2="189.0" /><line stroke="#999" stroke-width="3" x1="941.0" x2="1069.0" y1="133.0" y2="293.0" /><line stroke="#333" stroke-width="10" x1="989.0" x2="941.0" y1="101.0" y2="133.0" /><line stroke="#333" stroke-width="10" x1="949.0" x2="1069.0" y1="333.0" y2="293.0" /><line stroke="#999" stroke-width="3" x1="885.0" x2="949.0" y1="141.0" y2="333.0" /><line stroke="#333" stroke-width="10" x1="941.0" x2="885.0" y1="133.0" y2="141.0" /><line stroke="#333" stroke-width="10" x1="829.0" x2="949.0" y1="325.0" y2="333.0" /><line stroke="#999" stroke-width="3" x1="837.0" x2="829.0" y1="117.0" y2="325.0" /><line stroke="#333" stroke-width="10" x1="885.0" x2="837.0" y1="141.0" y2="117.0" /><line stroke="#333" stroke-width="10" x1="757.0" x2="829.0" y1="221.0" y2="325.0" /><line stroke="#999" stroke-width="3" x1="797.0" x2="757.0" y1="85.0" y2="221.0" /><line stroke="#333" stroke-width="10" x1="837.0" x2="797.0" y1="117.0" y2="85.0" /><line stroke="#333" stroke-width="10" x1="709.0" x2="757.0" y1="165.0" y2="221.0" /><line stroke="#999" stroke-width="3" x1="709.0" x2="709.0" y1="13.0" y2="165.0" /><line stroke="#333" stroke-width="10" x1="797.0" x2="709.0" y1="85.0" y2="13.0" /><line stroke="#333" stroke-width="10" x1="669.0" x2="709.0" y1="133.0" y2="165.0" /><line stroke="#999" stroke-width="3" x1="629.0" x2="669.0" y1="21.0" y2="133.0" /><line stroke="#333" stroke-width="10" x1="709.0" x2="629.0" y1="13.0" y2="21.0" /><line stroke="#333" stroke-width="10" x1="629.0" x2="669.0" y1="165.0" y2="133.0" /><line stroke="#999" stroke-width="3" x1="565.0" x2="629.0" y1="53.0" y2="165.0" /><line stroke="#333" stroke-width="10" x1="629.0" x2="565.0" y1="21.0" y2="53.0" /><line stroke="#333" stroke-width="10" x1="597.0" x2="629.0" y1="237.0" y2="165.0" /><line stroke="#999" stroke-width="3" x1="493.0" x2="597.0" y1="149.0" y2="237.0" /><line stroke="#333" stroke-width="10" x1="565.0" x2="493.0" y1="53.0" y2="149.0" /><line stroke="#333" stroke-width="10" x1="557.0" x2="597.0" y1="309.0" y2="237.0" /><line stroke="#999" stroke-width="3" x1="453.0" x2="557.0" y1="189.0" y2="309.0" /><line stroke="#333" stroke-width="10" x1="493.0" x2="453.0" y1="149.0" y2="189.0" /><line stroke="#333" stroke-width="10" x1="461.0" x2="557.0" y1="357.0" y2="309.0" /><line stroke="#999" stroke-width="3" x1="405.0" x2="461.0" y1="189.0" y2="357.0" /><line stroke="#333" stroke-width="10" x1="453.0" x2="405.0" y1="189.0" y2="189.0" /><line stroke="#333" stroke-width="10" x1="301.0" x2="461.0" y1="317.0" y2="357.0" /><line stroke="#999" stroke-width="3" x1="357.0" x2="301.0" y1="149.0" y2="317.0" /><line stroke="#333" stroke-width="10" x1="405.0" x2="357.0" y1="189.0" y2="149.0" /><line stroke="#333" stroke-width="10" x1="125.0" x2="301.0" y1="357.0" y2="317.0" /><line stroke="#333" stroke-width="10" x1="5.0" x2="125.0" y1="189.0" y2="357.0" /><line stroke="#0d0" stroke-width="20" x1="21.0" x2="5.0" y1="133.0" y2="189.0" /><line stroke="#333" stroke-width="10" x1="229.0" x2="21.0" y1="5.0" y2="133.0" /><line stroke="#333" stroke-width="10" x1="357.0" x2="229.0" y1="149.0" y2="5.0" /><line stroke="#999" stroke-width="3" x1="187.0" x2="171.0" y1="228.0" y2="228.0" /><line stroke="#999" stroke-width="3" x1="187.0" x2="187.0" y1="196.0" y2="228.0" /><line stroke="#999" stroke-width="3" x1="171.0" x2="187.0" y1="196.0" y2="196.0" /><line stroke="#999" stroke-width="3" x1="171.0" x2="171.0" y1="228.0" y2="196.0" /><line stroke="#333" stroke-width="10" x1="1253.0" x2="1253.0" y1="293.0" y2="317.0" /><line stroke="#333" stroke-width="10" x1="1365.0" x2="1349.0" y1="293.0" y2="117.0" /><line stroke="#999" stroke-width="3" x1="1365.0" x2="1253.0" y1="293.0" y2="293.0" /><line stroke="#999" stroke-width="3" x1="2658.0" x2="2770.0" y1="1205.0" y2="1165.0" /><line stroke="#999" stroke-width="3" x1="2770.0" x2="2658.0" y1="1237.0" y2="1205.0" /><line stroke="#999" stroke-width="3" x1="2762.0" x2="2770.0" y1="1341.0" y2="1237.0" /><line stroke="#999" stroke-width="3" x1="2842.0" x2="2762.0" y1="1261.0" y2="1341.0" /><line stroke="#999" stroke-width="3" x1="2930.0" x2="2842.0" y1="1285.0" y2="1261.0" /><line stroke="#999" stroke-width="3" x1="2882.0" x2="2930.0" y1="1205.0" y2="1285.0" /><line stroke="#999" stroke-width="3" x1="2930.0" x2="2882.0" y1="1125.0" y2="1205.0" /><line stroke="#999" stroke-width="3" x1="2842.0" x2="2930.0" y1="1149.0" y2="1125.0" /><line stroke="#999" stroke-width="3" x1="2770.0" x2="2842.0" y1="1061.0" y2="1149.0" /><line stroke="#999" stroke-width="3" x1="2770.0" x2="2770.0" y1="1165.0" y2="1061.0" /><ellipse cx="2565.0" cy="385.0" fill="#009" rx="12" ry="24" stroke="#009" stroke-width="5" /><ellipse cx="1541.0" cy="961.0" fill="#009" rx="12" ry="24" stroke="#009" stroke-width="5" /><ellipse cx="3333.0" cy="961.0" fill="#009" rx="12" ry="24" stroke="#009" stroke-width="5" /><ellipse cx="2693.0" cy="1593.0" fill="#009" rx="12" ry="24" stroke="#009" stroke-width="5" /><ellipse cx="2053.0" cy="633.0" fill="#090" rx="12" ry="24" stroke="#090" stroke-width="5" /><rect fill="#900" height="48" stroke="#900" stroke-width="5" transform="rotate(180,2369.0,765.0)" width="32" x="2353.0" y="741.0" /><rect fill="#900" height="48" stroke="#900" stroke-width="5" transform="rotate(270,1614.0,1467.0)" width="32" x="1598.0" y="1443.0" /><rect fill="#900" height="48" stroke="#900" stroke-width="5" transform="rotate(270,1928.0,1015.0)" width="32" x="1912.0" y="991.0" /><rect fill="#900" height="48" stroke="#900" stroke-width="5" transform="rotate(90,1923.0,900.0)" width="32" x="1907.0" y="876.0" /><rect fill="#900" height="48" stroke="#900" stroke-width="5" transform="rotate(270,1948.0,1245.0)" width="32" x="1932.0" y="1221.0" /><rect fill="#900" height="48" stroke="#900" stroke-width="5" transform="rotate(270,2623.0,645.0)" width="32" x="2607.0" y="621.0" /><rect fill="#900" height="48" stroke="#900" stroke-width="5" transform="rotate(90,3045.0,753.0)" width="32" x="3029.0" y="729.0" /><rect fill="#900" height="48" stroke="#900" stroke-width="5" transform="rotate(135,2986.0,726.0)" width="32" x="2970.0" y="702.0" /><rect fill="#900" height="48" stroke="#900" stroke-width="5" transform="rotate(180,2969.0,657.0)" width="32" x="2953.0" y="633.0" /><rect fill="#900" height="48" stroke="#900" stroke-width="5" transform="rotate(270,3013.0,605.0)" width="32" x="2997.0" y="581.0" /><rect fill="#900" height="48" stroke="#900" stroke-width="5" transform="rotate(270,3046.0,676.0)" width="32" x="3030.0" y="652.0" /><rect fill="#900" height="48" stroke="#900" stroke-width="5" transform="rotate(90,3111.0,729.0)" width="32" x="3095.0" y="705.0" /><rect fill="#900" height="48" stroke="#900" stroke-width="5" transform="rotate(270,3121.0,661.0)" width="32" x="3105.0" y="637.0" /><rect fill="#900" height="48" stroke="#900" stroke-width="5" transform="rotate(270,3081.0,611.0)" width="32" x="3065.0" y="587.0" /><rect fill="#900" height="48" stroke="#900" stroke-width="5" transform="rotate(270,2910.0,2022.0)" width="32" x="2894.0" y="1998.0" /><rect fill="#900" height="48" stroke="#900" stroke-width="5" transform="rotate(270,2974.0,2024.0)" width="32" x="2958.0" y="2000.0" /><rect fill="#900" height="48" stroke="#900" stroke-width="5" transform="rotate(270,3038.0,2024.0)" width="32" x="3022.0" y="2000.0" /><rect fill="#900" height="48" stroke="#900" stroke-width="5" transform="rotate(270,2912.0,1952.0)" width="32" x="2896.0" y="1928.0" /><rect fill="#900" height="48" stroke="#900" stroke-width="5" transform="rotate(270,2976.0,1958.0)" width="32" x="2960.0" y="1934.0" /><rect fill="#900" height="48" stroke="#900" stroke-width="5" transform="rotate(270,3022.0,1908.0)" width="32" x="3006.0" y="1884.0" /><rect fill="#900" height="48" stroke="#900" stroke-width="5" transform="rotate(270,2950.0,1896.0)" width="32" x="2934.0" y="1872.0" /><circle cx="2662.0" cy="883.0" fill="#900" r="16" stroke="#900" stroke-width="5" /><rect fill="#009" height="24" stroke="#009" stroke-width="5" transform="rotate(90,2664.0,882.0)" width="24" x="2652.0" y="870.0" /><circle cx="2242.0" cy="647.0" fill="#009" r="16" stroke="#009" stroke-width="5" /><circle cx="2750.0" cy="643.0" fill="#900" r="16" stroke="#900" stroke-width="5" /><circle cx="2562.0" cy="459.0" fill="#900" r="16" stroke="#900" stroke-width="5" /><circle cx="2754.0" cy="643.0" fill="#090" r="16" stroke="#090" stroke-width="5" /><circle cx="3082.0" cy="1339.0" fill="#009" r="16" stroke="#009" stroke-width="5" /><circle cx="2358.0" cy="1023.0" fill="#009" r="16" stroke="#009" stroke-width="5" /><circle cx="2302.0" cy="451.0" fill="#090" r="16" stroke="#090" stroke-width="5" /><circle cx="2250.0" cy="451.0" fill="#090" r="16" stroke="#090" stroke-width="5" /><circle cx="2198.0" cy="451.0" fill="#090" r="16" stroke="#090" stroke-width="5" /><circle cx="2142.0" cy="451.0" fill="#090" r="16" stroke="#090" stroke-width="5" /><circle cx="2082.0" cy="455.0" fill="#090" r="16" stroke="#090" stroke-width="5" /><circle cx="2018.0" cy="455.0" fill="#090" r="16" stroke="#090" stroke-width="5" /><circle cx="1962.0" cy="451.0" fill="#090" r="16" stroke="#090" stroke-width="5" /><circle cx="3258.0" cy="951.0" fill="#900" r="16" stroke="#900" stroke-width="5" /><circle cx="2682.0" cy="1527.0" fill="#900" r="16" stroke="#900" stroke-width="5" /><circle cx="1594.0" cy="963.0" fill="#900" r="16" stroke="#900" stroke-width="5" /><circle cx="1606.0" cy="375.0" fill="#090" r="16" stroke="#090" stroke-width="5" /><circle cx="2250.0" cy="1147.0" fill="#900" r="16" stroke="#900" stroke-width="5" /><circle cx="2254.0" cy="1143.0" fill="#900" r="16" stroke="#900" stroke-width="5" /><circle cx="2314.0" cy="1147.0" fill="#090" r="16" stroke="#090" stroke-width="5" /><circle cx="2366.0" cy="1147.0" fill="#090" r="16" stroke="#090" stroke-width="5" /><rect fill="#900" height="48" stroke="#900" stroke-width="5" transform="rotate(270,2174.0,1027.0)" width="32" x="2158.0" y="1003.0" /><rect fill="#900" height="48" stroke="#900" stroke-width="5" transform="rotate(270,2230.0,903.0)" width="32" x="2214.0" y="879.0" /><rect fill="#900" height="48" stroke="#900" stroke-width="5" transform="rotate(270,2290.0,899.0)" width="32" x="2274.0" y="875.0" /><rect fill="#900" height="48" stroke="#900" stroke-width="5" transform="rotate(270,2362.0,899.0)" width="32" x="2346.0" y="875.0" /><rect fill="#900" height="48" stroke="#900" stroke-width="5" transform="rotate(270,2442.0,899.0)" width="32" x="2426.0" y="875.0" /><rect fill="#900" height="48" stroke="#900" stroke-width="5" transform="rotate(270,2498.0,1087.0)" width="32" x="2482.0" y="1063.0" /><circle cx="1918.0" cy="963.0" fill="#009" r="16" stroke="#009" stroke-width="5" /><rect fill="#900" height="48" stroke="#900" stroke-width="5" transform="rotate(180,2310.0,643.0)" width="32" x="2294.0" y="619.0" /><rect fill="#900" height="48" stroke="#900" stroke-width="5" transform="rotate(0,1914.0,751.0)" width="32" x="1898.0" y="727.0" /><rect fill="#900" height="48" stroke="#900" stroke-width="5" transform="rotate(180,1666.0,1335.0)" width="32" x="1650.0" y="1311.0" /><rect fill="#900" height="48" stroke="#900" stroke-width="5" transform="rotate(180,3206.0,1319.0)" width="32" x="3190.0" y="1295.0" /><rect fill="#900" height="48" stroke="#900" stroke-width="5" transform="rotate(270,2906.0,1107.0)" width="32" x="2890.0" y="1083.0" /><rect fill="#900" height="48" stroke="#900" stroke-width="5" transform="rotate(180,2314.0,1315.0)" width="32" x="2298.0" y="1291.0" /><rect fill="#900" height="48" stroke="#900" stroke-width="5" transform="rotate(180,2038.0,1475.0)" width="32" x="2022.0" y="1451.0" /><rect fill="#900" height="48" stroke="#900" stroke-width="5" transform="rotate(0,2766.0,1399.0)" width="32" x="2750.0" y="1375.0" /><rect fill="#900" height="48" stroke="#900" stroke-width="5" transform="rotate(270,2702.0,1115.0)" width="32" x="2686.0" y="1091.0" /><rect fill="#900" height="48" stroke="#900" stroke-width="5" transform="rotate(180,2186.0,583.0)" width="32" x="2170.0" y="559.0" /><rect fill="#900" height="48" stroke="#900" stroke-width="5" transform="rotate(270,1614.0,1527.0)" width="32" x="1598.0" y="1503.0" /><circle cx="1602.0" cy="831.0" fill="#009" r="16" stroke="#009" stroke-width="5" /><circle cx="1605.0" cy="769.0" fill="#009" r="16" stroke="#009" stroke-width="5" /><circle cx="1605.0" cy="705.0" fill="#009" r="16" stroke="#009" stroke-width="5" /><circle cx="3053.0" cy="665.0" fill="#009" r="16" stroke="#009" stroke-width="5" /><rect fill="#090" height="24" stroke="#090" stroke-width="5" transform="rotate(90,2565.0,385.0)" width="24" x="2553.0" y="373.0" /><rect fill="#090" height="24" stroke="#090" stroke-width="5" transform="rotate(0,1541.0,961.0)" width="24" x="1529.0" y="949.0" /><rect fill="#090" height="24" stroke="#090" stroke-width="5" transform="rotate(180,3333.0,961.0)" width="24" x="3321.0" y="949.0" /><rect fill="#090" height="24" stroke="#090" stroke-width="5" transform="rotate(270,2693.0,1593.0)" width="24" x="2681.0" y="1581.0" /><ellipse cx="2053.0" cy="1007.0" fill="#900" rx="12" ry="24" stroke="#900" stroke-width="5" /><ellipse cx="2384.0" cy="1481.0" fill="#900" rx="12" ry="24" stroke="#900" stroke-width="5" /><ellipse cx="2399.0" cy="906.0" fill="#900" rx="12" ry="24" stroke="#900" stroke-width="5" /><rect fill="#900" height="48" stroke="#900" stroke-width="5" transform="rotate(315,517.0,1435.0)" width="32" x="501.0" y="1411.0" /><rect fill="#900" height="48" stroke="#900" stroke-width="5" transform="rotate(315,117.0,1689.0)" width="32" x="101.0" y="1665.0" /><rect fill="#900" height="48" stroke="#900" stroke-width="5" transform="rotate(315,211.0,1731.0)" width="32" x="195.0" y="1707.0" /><rect fill="#900" height="48" stroke="#900" stroke-width="5" transform="rotate(315,153.0,1585.0)" width="32" x="137.0" y="1561.0" /><rect fill="#900" height="48" stroke="#900" stroke-width="5" transform="rotate(315,197.0,287.0)" width="32" x="181.0" y="263.0" /><rect fill="#900" height="48" stroke="#900" stroke-width="5" transform="rotate(315,519.0,221.0)" width="32" x="503.0" y="197.0" /><rect fill="#900" height="48" stroke="#900" stroke-width="5" transform="rotate(315,729.0,121.0)" width="32" x="713.0" y="97.0" /><rect fill="#900" height="48" stroke="#900" stroke-width="5" transform="rotate(315,967.0,251.0)" width="32" x="951.0" y="227.0" /><ellipse cx="1111.0" cy="133.0" fill="#900" rx="12" ry="24" stroke="#900" stroke-width="5" /><ellipse cx="1005.0" cy="119.0" fill="#900" rx="12" ry="24" stroke="#900" stroke-width="5" /><ellipse cx="937.0" cy="195.0" fill="#900" rx="12" ry="24" stroke="#900" stroke-width="5" /><ellipse cx="843.0" cy="219.0" fill="#900" rx="12" ry="24" stroke="#900" stroke-width="5" /><ellipse cx="801.0" cy="155.0" fill="#900" rx="12" ry="24" stroke="#900" stroke-width="5" /><rect fill="#900" height="48" stroke="#900" stroke-width="5" transform="rotate(315,599.0,107.0)" width="32" x="583.0" y="83.0" /><ellipse cx="567.0" cy="175.0" fill="#900" rx="12" ry="24" stroke="#900" stroke-width="5" /><ellipse cx="473.0" cy="303.0" fill="#900" rx="12" ry="24" stroke="#900" stroke-width="5" /><ellipse cx="1077.0" cy="131.0" fill="#900" rx="12" ry="24" stroke="#900" stroke-width="5" /><ellipse cx="1045.0" cy="129.0" fill="#900" rx="12" ry="24" stroke="#900" stroke-width="5" /></svg>