<?xml version="1.0" encoding="utf-8" ?>
<svg baseProfile="tiny" height="512" version="1.2" viewBox="0 0 8074 4042" width="1024" xmlns="http://www.w3.org/2000/svg" xmlns:ev="http://www.w3.org/2001/xml-events" xmlns:xlink="http://www.w3.org/1999/xlink"><defs /><line stroke="#999" stroke-width="3" x1="6021.0" x2="6277.0" y1="2757.0" y2="2501.0" /><line stroke="#999" stroke-width="3" x1="5765.0" x2="6021.0" y1="2501.0" y2="2757.0" /><line stroke="#999" stroke-width="3" x1="5765.0" x2="5765.0" y1="2245.0" y2="2501.0" /><line stroke="#999" stroke-width="3" x1="6021.0" x2="5765.0" y1="1989.0" y2="2245.0" /><line stroke="#999" stroke-width="3" x1="6277.0" x2="6021.0" y1="2245.0" y2="1989.0" /><line stroke="#999" stroke-width="3" x1="6277.0" x2="6277.0" y1="2501.0" y2="2373.0" /><line stroke="#333" stroke-width="10" x1="2693.0" x2="8069.0" y1="3781.0" y2="3781.0" /><line stroke="#333" stroke-width="10" x1="2693.0" x2="2693.0" y1="709.0" y2="2373.0" /><line stroke="#333" stroke-width="10" x1="5509.0" x2="2693.0" y1="453.0" y2="709.0" /><line stroke="#333" stroke-width="10" x1="8069.0" x2="5509.0" y1="965.0" y2="453.0" /><line stroke="#333" stroke-width="10" x1="8069.0" x2="8069.0" y1="3781.0" y2="965.0" /><line stroke="#999" stroke-width="3" x1="6277.0" x2="6277.0" y1="2373.0" y2="2309.0" /><line stroke="#999" stroke-width="3" x1="6277.0" x2="6277.0" y1="2309.0" y2="2245.0" /><line stroke="#666" stroke-width="20" x1="2693.0" x2="2693.0" y1="2373.0" y2="2501.0" /><line stroke="#333" stroke-width="10" x1="2693.0" x2="2693.0" y1="2501.0" y2="3781.0" /><line stroke="#333" stroke-width="10" x1="2565.0" x2="2693.0" y1="2501.0" y2="2501.0" /><line stroke="#666" stroke-width="20" x1="2565.0" x2="2565.0" y1="2501.0" y2="2373.0" /><line stroke="#333" stroke-width="10" x1="2693.0" x2="2565.0" y1="2373.0" y2="2373.0" /><line stroke="#333" stroke-width="10" x1="2437.0" x2="2565.0" y1="2629.0" y2="2501.0" /><line stroke="#333" stroke-width="10" x1="1413.0" x2="1797.0" y1="2629.0" y2="2629.0" /><line stroke="#333" stroke-width="10" x1="1285.0" x2="1413.0" y1="2501.0" y2="2629.0" /><line stroke="#333" stroke-width="10" x1="1029.0" x2="1285.0" y1="2245.0" y2="2501.0" /><line stroke="#333" stroke-width="10" x1="1029.0" x2="1029.0" y1="1733.0" y2="1861.0" /><line stroke="#999" stroke-width="3" x1="1285.0" x2="1029.0" y1="1733.0" y2="1733.0" /><line stroke="#333" stroke-width="10" x1="1285.0" x2="1285.0" y1="2117.0" y2="1733.0" /><line stroke="#333" stroke-width="10" x1="1285.0" x2="1285.0" y1="2245.0" y2="2117.0" /><line stroke="#333" stroke-width="10" x1="1413.0" x2="1285.0" y1="2245.0" y2="2245.0" /><line stroke="#333" stroke-width="10" x1="2437.0" x2="1413.0" y1="2245.0" y2="2245.0" /><line stroke="#333" stroke-width="10" x1="2565.0" x2="2437.0" y1="2373.0" y2="2245.0" /><line stroke="#999" stroke-width="3" x1="1029.0" x2="1029.0" y1="1477.0" y2="1733.0" /><line stroke="#999" stroke-width="3" x1="1285.0" x2="1029.0" y1="1477.0" y2="1477.0" /><line stroke="#999" stroke-width="3" x1="1285.0" x2="1285.0" y1="1733.0" y2="1477.0" /><line stroke="#999" stroke-width="3" x1="1029.0" x2="1029.0" y1="1221.0" y2="1477.0" /><line stroke="#999" stroke-width="3" x1="1285.0" x2="1029.0" y1="1221.0" y2="1221.0" /><line stroke="#999" stroke-width="3" x1="1285.0" x2="1285.0" y1="1477.0" y2="1221.0" /><line stroke="#999" stroke-width="3" x1="1029.0" x2="1029.0" y1="965.0" y2="1221.0" /><line stroke="#999" stroke-width="3" x1="1285.0" x2="1029.0" y1="965.0" y2="965.0" /><line stroke="#999" stroke-width="3" x1="1285.0" x2="1285.0" y1="1221.0" y2="965.0" /><line stroke="#999" stroke-width="3" x1="1029.0" x2="1029.0" y1="709.0" y2="965.0" /><line stroke="#999" stroke-width="3" x1="1285.0" x2="1029.0" y1="709.0" y2="709.0" /><line stroke="#999" stroke-width="3" x1="1285.0" x2="1285.0" y1="965.0" y2="709.0" /><line stroke="#999" stroke-width="3" x1="1029.0" x2="1029.0" y1="453.0" y2="709.0" /><line stroke="#999" stroke-width="3" x1="1285.0" x2="1029.0" y1="453.0" y2="453.0" /><line stroke="#999" stroke-width="3" x1="1285.0" x2="1285.0" y1="709.0" y2="453.0" /><line stroke="#333" stroke-width="10" x1="901.0" x2="1029.0" y1="325.0" y2="453.0" /><line stroke="#666" stroke-width="20" x1="901.0" x2="901.0" y1="197.0" y2="325.0" /><line stroke="#333" stroke-width="10" x1="1029.0" x2="901.0" y1="69.0" y2="197.0" /><line stroke="#00d" stroke-width="20" x1="1285.0" x2="1221.0" y1="69.0" y2="69.0" /><line stroke="#333" stroke-width="10" x1="1413.0" x2="1285.0" y1="197.0" y2="69.0" /><line stroke="#333" stroke-width="10" x1="1413.0" x2="1413.0" y1="325.0" y2="197.0" /><line stroke="#333" stroke-width="10" x1="1285.0" x2="1413.0" y1="453.0" y2="325.0" /><line stroke="#333" stroke-width="10" x1="2053.0" x2="1285.0" y1="453.0" y2="453.0" /><line stroke="#333" stroke-width="10" x1="2053.0" x2="2053.0" y1="1733.0" y2="453.0" /><line stroke="#333" stroke-width="10" x1="1285.0" x2="2053.0" y1="1733.0" y2="1733.0" /><line stroke="#333" stroke-width="10" x1="261.0" x2="1029.0" y1="1733.0" y2="1733.0" /><line stroke="#333" stroke-width="10" x1="261.0" x2="261.0" y1="453.0" y2="1733.0" /><line stroke="#333" stroke-width="10" x1="1029.0" x2="261.0" y1="453.0" y2="453.0" /><line stroke="#00d" stroke-width="20" x1="1093.0" x2="1029.0" y1="69.0" y2="69.0" /><line stroke="#333" stroke-width="10" x1="1221.0" x2="1093.0" y1="69.0" y2="69.0" /><line stroke="#333" stroke-width="10" x1="1221.0" x2="1221.0" y1="5.0" y2="69.0" /><line stroke="#333" stroke-width="10" x1="1285.0" x2="1221.0" y1="5.0" y2="5.0" /><line stroke="#333" stroke-width="10" x1="1285.0" x2="1285.0" y1="69.0" y2="5.0" /><line stroke="#333" stroke-width="10" x1="1029.0" x2="1029.0" y1="5.0" y2="69.0" /><line stroke="#333" stroke-width="10" x1="1093.0" x2="1029.0" y1="5.0" y2="5.0" /><line stroke="#333" stroke-width="10" x1="1093.0" x2="1093.0" y1="69.0" y2="5.0" /><line stroke="#333" stroke-width="10" x1="1925.0" x2="2437.0" y1="2629.0" y2="2629.0" /><line stroke="#999" stroke-width="3" x1="1797.0" x2="1925.0" y1="2629.0" y2="2629.0" /><line stroke="#333" stroke-width="10" x1="1925.0" x2="1925.0" y1="2757.0" y2="2629.0" /><line stroke="#333" stroke-width="10" x1="1797.0" x2="1925.0" y1="2949.0" y2="2757.0" /><line stroke="#333" stroke-width="10" x1="1541.0" x2="1797.0" y1="2949.0" y2="2949.0" /><line stroke="#999" stroke-width="3" x1="1541.0" x2="1541.0" y1="2821.0" y2="2949.0" /><line stroke="#333" stroke-width="10" x1="1733.0" x2="1541.0" y1="2821.0" y2="2821.0" /><line stroke="#333" stroke-width="10" x1="1797.0" x2="1733.0" y1="2757.0" y2="2821.0" /><line stroke="#333" stroke-width="10" x1="1797.0" x2="1797.0" y1="2629.0" y2="2757.0" /><line stroke="#333" stroke-width="10" x1="1477.0" x2="1541.0" y1="2949.0" y2="2949.0" /><line stroke="#999" stroke-width="3" x1="1477.0" x2="1477.0" y1="2949.0" y2="2821.0" /><line stroke="#333" stroke-width="10" x1="1541.0" x2="1477.0" y1="2821.0" y2="2821.0" /><line stroke="#333" stroke-width="10" x1="1477.0" x2="1477.0" y1="3333.0" y2="2949.0" /><line stroke="#333" stroke-width="10" x1="1285.0" x2="1477.0" y1="3525.0" y2="3333.0" /><line stroke="#999" stroke-width="3" x1="1221.0" x2="1285.0" y1="3525.0" y2="3525.0" /><line stroke="#999" stroke-width="3" x1="1093.0" x2="1221.0" y1="3397.0" y2="3525.0" /><line stroke="#999" stroke-width="3" x1="1093.0" x2="1093.0" y1="2949.0" y2="3397.0" /><line stroke="#999" stroke-width="3" x1="1029.0" x2="1093.0" y1="2885.0" y2="2949.0" /><line stroke="#999" stroke-width="3" x1="1093.0" x2="1029.0" y1="2757.0" y2="2885.0" /><line stroke="#333" stroke-width="10" x1="1413.0" x2="1093.0" y1="2757.0" y2="2757.0" /><line stroke="#333" stroke-width="10" x1="1477.0" x2="1413.0" y1="2821.0" y2="2757.0" /><line stroke="#333" stroke-width="10" x1="773.0" x2="1221.0" y1="3525.0" y2="3525.0" /><line stroke="#333" stroke-width="10" x1="773.0" x2="773.0" y1="2757.0" y2="3525.0" /><line stroke="#333" stroke-width="10" x1="1093.0" x2="773.0" y1="2757.0" y2="2757.0" /><line stroke="#999" stroke-width="3" x1="5.0" x2="133.0" y1="325.0" y2="325.0" /><line stroke="#333" stroke-width="10" x1="5.0" x2="5.0" y1="197.0" y2="325.0" /><line stroke="#333" stroke-width="10" x1="901.0" x2="773.0" y1="197.0" y2="197.0" /><line stroke="#333" stroke-width="10" x1="133.0" x2="773.0" y1="325.0" y2="325.0" /><line stroke="#333" stroke-width="10" x1="133.0" x2="133.0" y1="1861.0" y2="325.0" /><line stroke="#999" stroke-width="3" x1="5.0" x2="133.0" y1="1861.0" y2="1861.0" /><line stroke="#333" stroke-width="10" x1="5.0" x2="5.0" y1="325.0" y2="1861.0" /><line stroke="#999" stroke-width="3" x1="133.0" x2="133.0" y1="1989.0" y2="1861.0" /><line stroke="#333" stroke-width="10" x1="5.0" x2="133.0" y1="1989.0" y2="1989.0" /><line stroke="#333" stroke-width="10" x1="5.0" x2="5.0" y1="1861.0" y2="1989.0" /><line stroke="#333" stroke-width="10" x1="1029.0" x2="1029.0" y1="1989.0" y2="2245.0" /><line stroke="#999" stroke-width="3" x1="1029.0" x2="1029.0" y1="1861.0" y2="1989.0" /><line stroke="#333" stroke-width="10" x1="901.0" x2="1029.0" y1="1989.0" y2="1989.0" /><line stroke="#666" stroke-width="20" x1="901.0" x2="901.0" y1="1989.0" y2="1861.0" /><line stroke="#333" stroke-width="10" x1="1029.0" x2="901.0" y1="1861.0" y2="1861.0" /><line stroke="#333" stroke-width="10" x1="901.0" x2="133.0" y1="1861.0" y2="1861.0" /><line stroke="#333" stroke-width="10" x1="133.0" x2="901.0" y1="1989.0" y2="1989.0" /><line stroke="#333" stroke-width="10" x1="773.0" x2="901.0" y1="325.0" y2="325.0" /><line stroke="#333" stroke-width="10" x1="773.0" x2="5.0" y1="197.0" y2="197.0" /><line stroke="#666" stroke-width="20" x1="773.0" x2="773.0" y1="325.0" y2="197.0" /><line stroke="#333" stroke-width="10" x1="1285.0" x2="1285.0" y1="3533.0" y2="3525.0" /><line stroke="#666" stroke-width="20" x1="1221.0" x2="1285.0" y1="3533.0" y2="3533.0" /><line stroke="#333" stroke-width="10" x1="1221.0" x2="1221.0" y1="3525.0" y2="3533.0" /><line stroke="#333" stroke-width="10" x1="1285.0" x2="1285.0" y1="3541.0" y2="3533.0" /><line stroke="#666" stroke-width="20" x1="1285.0" x2="1221.0" y1="3541.0" y2="3541.0" /><line stroke="#333" stroke-width="10" x1="1221.0" x2="1221.0" y1="3533.0" y2="3541.0" /><line stroke="#333" stroke-width="10" x1="1285.0" x2="1285.0" y1="3549.0" y2="3541.0" /><line stroke="#999" stroke-width="3" x1="1221.0" x2="1285.0" y1="3549.0" y2="3549.0" /><line stroke="#333" stroke-width="10" x1="1221.0" x2="1221.0" y1="3541.0" y2="3549.0" /><line stroke="#333" stroke-width="10" x1="1285.0" x2="1285.0" y1="3653.0" y2="3549.0" /><line stroke="#333" stroke-width="10" x1="1285.0" x2="1285.0" y1="3717.0" y2="3653.0" /><line stroke="#333" stroke-width="10" x1="1221.0" x2="1285.0" y1="3717.0" y2="3717.0" /><line stroke="#333" stroke-width="10" x1="261.0" x2="1221.0" y1="3717.0" y2="3717.0" /><line stroke="#999" stroke-width="3" x1="261.0" x2="261.0" y1="3653.0" y2="3717.0" /><line stroke="#333" stroke-width="10" x1="1221.0" x2="261.0" y1="3653.0" y2="3653.0" /><line stroke="#333" stroke-width="10" x1="1221.0" x2="1221.0" y1="3549.0" y2="3653.0" /><line stroke="#333" stroke-width="10" x1="261.0" x2="261.0" y1="3749.0" y2="3717.0" /><line stroke="#999" stroke-width="3" x1="101.0" x2="261.0" y1="3685.0" y2="3749.0" /><line stroke="#333" stroke-width="10" x1="261.0" x2="101.0" y1="3653.0" y2="3685.0" /><line stroke="#333" stroke-width="10" x1="261.0" x2="261.0" y1="3781.0" y2="3749.0" /><line stroke="#999" stroke-width="3" x1="101.0" x2="261.0" y1="3781.0" y2="3781.0" /><line stroke="#333" stroke-width="10" x1="101.0" x2="101.0" y1="3685.0" y2="3781.0" /><line stroke="#333" stroke-width="10" x1="293.0" x2="261.0" y1="3845.0" y2="3781.0" /><line stroke="#999" stroke-width="3" x1="69.0" x2="293.0" y1="3845.0" y2="3845.0" /><line stroke="#333" stroke-width="10" x1="101.0" x2="69.0" y1="3781.0" y2="3845.0" /><line stroke="#333" stroke-width="10" x1="261.0" x2="293.0" y1="3909.0" y2="3845.0" /><line stroke="#999" stroke-width="3" x1="133.0" x2="261.0" y1="3909.0" y2="3909.0" /><line stroke="#333" stroke-width="10" x1="69.0" x2="133.0" y1="3845.0" y2="3909.0" /><line stroke="#333" stroke-width="10" x1="261.0" x2="261.0" y1="4037.0" y2="3909.0" /><line stroke="#0d0" stroke-width="20" x1="133.0" x2="261.0" y1="4037.0" y2="4037.0" /><line stroke="#333" stroke-width="10" x1="133.0" x2="133.0" y1="3909.0" y2="4037.0" /><ellipse cx="6021.0" cy="2373.0" fill="#009" rx="12" ry="24" stroke="#009" stroke-width="5" /><rect fill="#009" height="24" stroke="#009" stroke-width="5" transform="rotate(270,1157.0,1797.0)" width="24" x="1145.0" y="1785.0" /><rect fill="#009" height="24" stroke="#009" stroke-width="5" transform="rotate(0,2757.0,2245.0)" width="24" x="2745.0" y="2233.0" /><rect fill="#090" height="24" stroke="#090" stroke-width="5" transform="rotate(0,2949.0,837.0)" width="24" x="2937.0" y="825.0" /><rect fill="#090" height="24" stroke="#090" stroke-width="5" transform="rotate(0,3973.0,837.0)" width="24" x="3961.0" y="825.0" /><rect fill="#090" height="24" stroke="#090" stroke-width="5" transform="rotate(0,3461.0,1093.0)" width="24" x="3449.0" y="1081.0" /><rect fill="#090" height="24" stroke="#090" stroke-width="5" transform="rotate(0,3461.0,837.0)" width="24" x="3449.0" y="825.0" /><rect fill="#090" height="24" stroke="#090" stroke-width="5" transform="rotate(0,3205.0,3269.0)" width="24" x="3193.0" y="3257.0" /><rect fill="#090" height="24" stroke="#090" stroke-width="5" transform="rotate(0,3205.0,3141.0)" width="24" x="3193.0" y="3129.0" /><rect fill="#090" height="24" stroke="#090" stroke-width="5" transform="rotate(0,3205.0,3013.0)" width="24" x="3193.0" y="3001.0" /><rect fill="#090" height="24" stroke="#090" stroke-width="5" transform="rotate(0,3205.0,2885.0)" width="24" x="3193.0" y="2873.0" /><rect fill="#090" height="24" stroke="#090" stroke-width="5" transform="rotate(0,3205.0,2757.0)" width="24" x="3193.0" y="2745.0" /><rect fill="#090" height="24" stroke="#090" stroke-width="5" transform="rotate(0,3333.0,3269.0)" width="24" x="3321.0" y="3257.0" /><rect fill="#090" height="24" stroke="#090" stroke-width="5" transform="rotate(0,3461.0,3269.0)" width="24" x="3449.0" y="3257.0" /><rect fill="#090" height="24" stroke="#090" stroke-width="5" transform="rotate(0,3589.0,3141.0)" width="24" x="3577.0" y="3129.0" /><rect fill="#090" height="24" stroke="#090" stroke-width="5" transform="rotate(0,3589.0,3013.0)" width="24" x="3577.0" y="3001.0" /><rect fill="#090" height="24" stroke="#090" stroke-width="5" transform="rotate(0,3461.0,3013.0)" width="24" x="3449.0" y="3001.0" /><rect fill="#090" height="24" stroke="#090" stroke-width="5" transform="rotate(0,3333.0,3013.0)" width="24" x="3321.0" y="3001.0" /><rect fill="#090" height="24" stroke="#090" stroke-width="5" transform="rotate(0,4357.0,2885.0)" width="24" x="4345.0" y="2873.0" /><rect fill="#090" height="24" stroke="#090" stroke-width="5" transform="rotate(0,4229.0,2885.0)" width="24" x="4217.0" y="2873.0" /><rect fill="#090" height="24" stroke="#090" stroke-width="5" transform="rotate(0,4101.0,2885.0)" width="24" x="4089.0" y="2873.0" /><rect fill="#090" height="24" stroke="#090" stroke-width="5" transform="rotate(0,3973.0,2885.0)" width="24" x="3961.0" y="2873.0" /><rect fill="#090" height="24" stroke="#090" stroke-width="5" transform="rotate(0,4869.0,3269.0)" width="24" x="4857.0" y="3257.0" /><rect fill="#090" height="24" stroke="#090" stroke-width="5" transform="rotate(0,4869.0,3141.0)" width="24" x="4857.0" y="3129.0" /><rect fill="#090" height="24" stroke="#090" stroke-width="5" transform="rotate(0,4869.0,3013.0)" width="24" x="4857.0" y="3001.0" /><rect fill="#090" height="24" stroke="#090" stroke-width="5" transform="rotate(0,4869.0,2885.0)" width="24" x="4857.0" y="2873.0" /><rect fill="#090" height="24" stroke="#090" stroke-width="5" transform="rotate(0,4869.0,2757.0)" width="24" x="4857.0" y="2745.0" /><rect fill="#090" height="24" stroke="#090" stroke-width="5" transform="rotate(0,4997.0,2757.0)" width="24" x="4985.0" y="2745.0" /><rect fill="#090" height="24" stroke="#090" stroke-width="5" transform="rotate(0,5125.0,2757.0)" width="24" x="5113.0" y="2745.0" /><rect fill="#090" height="24" stroke="#090" stroke-width="5" transform="rotate(0,5253.0,2757.0)" width="24" x="5241.0" y="2745.0" /><rect fill="#090" height="24" stroke="#090" stroke-width="5" transform="rotate(0,5253.0,2885.0)" width="24" x="5241.0" y="2873.0" /><rect fill="#090" height="24" stroke="#090" stroke-width="5" transform="rotate(0,5253.0,3013.0)" width="24" x="5241.0" y="3001.0" /><rect fill="#090" height="24" stroke="#090" stroke-width="5" transform="rotate(0,5253.0,3141.0)" width="24" x="5241.0" y="3129.0" /><rect fill="#090" height="24" stroke="#090" stroke-width="5" transform="rotate(0,5253.0,3269.0)" width="24" x="5241.0" y="3257.0" /><rect fill="#090" height="24" stroke="#090" stroke-width="5" transform="rotate(0,5509.0,3269.0)" width="24" x="5497.0" y="3257.0" /><rect fill="#090" height="24" stroke="#090" stroke-width="5" transform="rotate(0,5509.0,3141.0)" width="24" x="5497.0" y="3129.0" /><rect fill="#090" height="24" stroke="#090" stroke-width="5" transform="rotate(0,5509.0,3013.0)" width="24" x="5497.0" y="3001.0" /><rect fill="#090" height="24" stroke="#090" stroke-width="5" transform="rotate(0,5509.0,2885.0)" width="24" x="5497.0" y="2873.0" /><rect fill="#090" height="24" stroke="#090" stroke-width="5" transform="rotate(0,5509.0,2757.0)" width="24" x="5497.0" y="2745.0" /><rect fill="#090" height="24" stroke="#090" stroke-width="5" transform="rotate(0,5637.0,2757.0)" width="24" x="5625.0" y="2745.0" /><rect fill="#090" height="24" stroke="#090" stroke-width="5" transform="rotate(0,5893.0,2757.0)" width="24" x="5881.0" y="2745.0" /><rect fill="#090" height="24" stroke="#090" stroke-width="5" transform="rotate(0,5765.0,2757.0)" width="24" x="5753.0" y="2745.0" /><rect fill="#090" height="24" stroke="#090" stroke-width="5" transform="rotate(0,4613.0,2757.0)" width="24" x="4601.0" y="2745.0" /><rect fill="#090" height="24" stroke="#090" stroke-width="5" transform="rotate(0,4485.0,2885.0)" width="24" x="4473.0" y="2873.0" /><rect fill="#090" height="24" stroke="#090" stroke-width="5" transform="rotate(0,4357.0,3013.0)" width="24" x="4345.0" y="3001.0" /><rect fill="#090" height="24" stroke="#090" stroke-width="5" transform="rotate(0,4229.0,3141.0)" width="24" x="4217.0" y="3129.0" /><rect fill="#090" height="24" stroke="#090" stroke-width="5" transform="rotate(0,4101.0,3269.0)" width="24" x="4089.0" y="3257.0" /><rect fill="#090" height="24" stroke="#090" stroke-width="5" transform="rotate(0,3973.0,3141.0)" width="24" x="3961.0" y="3129.0" /><rect fill="#090" height="24" stroke="#090" stroke-width="5" transform="rotate(0,3845.0,3013.0)" width="24" x="3833.0" y="3001.0" /><rect fill="#090" height="24" stroke="#090" stroke-width="5" transform="rotate(0,3717.0,2885.0)" width="24" x="3705.0" y="2873.0" /><rect fill="#090" height="24" stroke="#090" stroke-width="5" transform="rotate(0,3589.0,2757.0)" width="24" x="3577.0" y="2745.0" /><rect fill="#090" height="24" stroke="#090" stroke-width="5" transform="rotate(0,3845.0,2885.0)" width="24" x="3833.0" y="2873.0" /><rect fill="#900" height="48" stroke="#900" stroke-width="5" transform="rotate(45,4613.0,1093.0)" width="32" x="4597.0" y="1069.0" /><rect fill="#900" height="48" stroke="#900" stroke-width="5" transform="rotate(45,4485.0,1221.0)" width="32" x="4469.0" y="1197.0" /><rect fill="#900" height="48" stroke="#900" stroke-width="5" transform="rotate(45,4741.0,965.0)" width="32" x="4725.0" y="941.0" /><rect fill="#900" height="48" stroke="#900" stroke-width="5" transform="rotate(135,6917.0,965.0)" width="32" x="6901.0" y="941.0" /><rect fill="#900" height="48" stroke="#900" stroke-width="5" transform="rotate(135,7045.0,1093.0)" width="32" x="7029.0" y="1069.0" /><rect fill="#900" height="48" stroke="#900" stroke-width="5" transform="rotate(135,7173.0,1221.0)" width="32" x="7157.0" y="1197.0" /><rect fill="#900" height="48" stroke="#900" stroke-width="5" transform="rotate(225,6661.0,3269.0)" width="32" x="6645.0" y="3245.0" /><rect fill="#900" height="48" stroke="#900" stroke-width="5" transform="rotate(225,6789.0,3141.0)" width="32" x="6773.0" y="3117.0" /><rect fill="#900" height="48" stroke="#900" stroke-width="5" transform="rotate(225,6917.0,3013.0)" width="32" x="6901.0" y="2989.0" /><rect fill="#900" height="48" stroke="#900" stroke-width="5" transform="rotate(0,3461.0,2245.0)" width="32" x="3445.0" y="2221.0" /><rect fill="#900" height="48" stroke="#900" stroke-width="5" transform="rotate(0,3461.0,2117.0)" width="32" x="3445.0" y="2093.0" /><rect fill="#900" height="48" stroke="#900" stroke-width="5" transform="rotate(0,3461.0,2373.0)" width="32" x="3445.0" y="2349.0" /><rect fill="#900" height="48" stroke="#900" stroke-width="5" transform="rotate(0,3589.0,2373.0)" width="32" x="3573.0" y="2349.0" /><rect fill="#900" height="48" stroke="#900" stroke-width="5" transform="rotate(0,3717.0,2245.0)" width="32" x="3701.0" y="2221.0" /><rect fill="#900" height="48" stroke="#900" stroke-width="5" transform="rotate(0,3589.0,2117.0)" width="32" x="3573.0" y="2093.0" /><rect fill="#900" height="48" stroke="#900" stroke-width="5" transform="rotate(0,3845.0,2117.0)" width="32" x="3829.0" y="2093.0" /><rect fill="#090" height="24" stroke="#090" stroke-width="5" transform="rotate(270,2309.0,2309.0)" width="24" x="2297.0" y="2297.0" /><rect fill="#090" height="24" stroke="#090" stroke-width="5" transform="rotate(270,2309.0,2565.0)" width="24" x="2297.0" y="2553.0" /><rect fill="#090" height="24" stroke="#090" stroke-width="5" transform="rotate(270,1477.0,2565.0)" width="24" x="1465.0" y="2553.0" /><rect fill="#090" height="24" stroke="#090" stroke-width="5" transform="rotate(270,1477.0,2309.0)" width="24" x="1465.0" y="2297.0" /><rect fill="#090" height="24" stroke="#090" stroke-width="5" transform="rotate(270,1221.0,2053.0)" width="24" x="1209.0" y="2041.0" /><rect fill="#090" height="24" stroke="#090" stroke-width="5" transform="rotate(270,1093.0,2053.0)" width="24" x="1081.0" y="2041.0" /><rect fill="#900" height="48" stroke="#900" stroke-width="5" transform="rotate(315,837.0,3461.0)" width="32" x="821.0" y="3437.0" /><rect fill="#900" height="48" stroke="#900" stroke-width="5" transform="rotate(0,837.0,3333.0)" width="32" x="821.0" y="3309.0" /><rect fill="#900" height="48" stroke="#900" stroke-width="5" transform="rotate(0,901.0,3397.0)" width="32" x="885.0" y="3373.0" /><rect fill="#900" height="48" stroke="#900" stroke-width="5" transform="rotate(0,901.0,3333.0)" width="32" x="885.0" y="3309.0" /><rect fill="#900" height="48" stroke="#900" stroke-width="5" transform="rotate(0,965.0,3333.0)" width="32" x="949.0" y="3309.0" /><rect fill="#900" height="48" stroke="#900" stroke-width="5" transform="rotate(0,837.0,3205.0)" width="32" x="821.0" y="3181.0" /><rect fill="#900" height="48" stroke="#900" stroke-width="5" transform="rotate(0,901.0,3141.0)" width="32" x="885.0" y="3117.0" /><rect fill="#900" height="48" stroke="#900" stroke-width="5" transform="rotate(0,837.0,3077.0)" width="32" x="821.0" y="3053.0" /><rect fill="#900" height="48" stroke="#900" stroke-width="5" transform="rotate(0,837.0,3141.0)" width="32" x="821.0" y="3117.0" /><rect fill="#900" height="48" stroke="#900" stroke-width="5" transform="rotate(0,2437.0,2373.0)" width="32" x="2421.0" y="2349.0" /><rect fill="#900" height="48" stroke="#900" stroke-width="5" transform="rotate(0,2181.0,2501.0)" width="32" x="2165.0" y="2477.0" /><circle cx="1157.0" cy="837.0" fill="#900" r="16" stroke="#900" stroke-width="5" /><circle cx="1157.0" cy="581.0" fill="#090" r="16" stroke="#090" stroke-width="5" /><circle cx="1157.0" cy="325.0" fill="#090" r="16" stroke="#090" stroke-width="5" /><circle cx="1157.0" cy="197.0" fill="#900" r="16" stroke="#900" stroke-width="5" /><circle cx="1861.0" cy="2565.0" fill="#009" r="16" stroke="#009" stroke-width="5" /><circle cx="1157.0" cy="1605.0" fill="#009" r="16" stroke="#009" stroke-width="5" /><rect fill="#900" height="48" stroke="#900" stroke-width="5" transform="rotate(0,965.0,325.0)" width="32" x="949.0" y="301.0" /><rect fill="#900" height="48" stroke="#900" stroke-width="5" transform="rotate(0,965.0,261.0)" width="32" x="949.0" y="237.0" /><rect fill="#900" height="48" stroke="#900" stroke-width="5" transform="rotate(180,1349.0,325.0)" width="32" x="1333.0" y="301.0" /><rect fill="#900" height="48" stroke="#900" stroke-width="5" transform="rotate(180,1349.0,261.0)" width="32" x="1333.0" y="237.0" /><rect fill="#900" height="48" stroke="#900" stroke-width="5" transform="rotate(270,69.0,389.0)" width="32" x="53.0" y="365.0" /><circle cx="709.0" cy="261.0" fill="#090" r="16" stroke="#090" stroke-width="5" /><rect fill="#900" height="48" stroke="#900" stroke-width="5" transform="rotate(0,869.0,3685.0)" width="32" x="853.0" y="3661.0" /><rect fill="#090" height="24" stroke="#090" stroke-width="5" transform="rotate(0,709.0,3685.0)" width="24" x="697.0" y="3673.0" /><rect fill="#090" height="24" stroke="#090" stroke-width="5" transform="rotate(0,613.0,3685.0)" width="24" x="601.0" y="3673.0" /><rect fill="#900" height="48" stroke="#900" stroke-width="5" transform="rotate(0,197.0,3717.0)" width="32" x="181.0" y="3693.0" /><rect fill="#900" height="48" stroke="#900" stroke-width="5" transform="rotate(0,133.0,3717.0)" width="32" x="117.0" y="3693.0" /><rect fill="#900" height="48" stroke="#900" stroke-width="5" transform="rotate(0,133.0,3781.0)" width="32" x="117.0" y="3757.0" /><rect fill="#900" height="48" stroke="#900" stroke-width="5" transform="rotate(0,197.0,3781.0)" width="32" x="181.0" y="3757.0" /><rect fill="#900" height="48" stroke="#900" stroke-width="5" transform="rotate(0,133.0,3845.0)" width="32" x="117.0" y="3821.0" /><rect fill="#900" height="48" stroke="#900" stroke-width="5" transform="rotate(0,197.0,3845.0)" width="32" x="181.0" y="3821.0" /><circle cx="389.0" cy="3685.0" fill="#090" r="16" stroke="#090" stroke-width="5" /><circle cx="485.0" cy="3685.0" fill="#090" r="16" stroke="#090" stroke-width="5" /><circle cx="5253.0" cy="1477.0" fill="#009" r="16" stroke="#009" stroke-width="5" /><circle cx="5125.0" cy="1605.0" fill="#009" r="16" stroke="#009" stroke-width="5" /><circle cx="5125.0" cy="1477.0" fill="#009" r="16" stroke="#009" stroke-width="5" /><circle cx="4997.0" cy="1477.0" fill="#009" r="16" stroke="#009" stroke-width="5" /><circle cx="4997.0" cy="1605.0" fill="#009" r="16" stroke="#009" stroke-width="5" /><circle cx="4997.0" cy="1349.0" fill="#009" r="16" stroke="#009" stroke-width="5" /><circle cx="5125.0" cy="1349.0" fill="#009" r="16" stroke="#009" stroke-width="5" /><circle cx="5253.0" cy="1349.0" fill="#009" r="16" stroke="#009" stroke-width="5" /><circle cx="5253.0" cy="1605.0" fill="#009" r="16" stroke="#009" stroke-width="5" /><circle cx="5381.0" cy="1605.0" fill="#009" r="16" stroke="#009" stroke-width="5" /><circle cx="5381.0" cy="1477.0" fill="#009" r="16" stroke="#009" stroke-width="5" /><circle cx="5381.0" cy="1349.0" fill="#009" r="16" stroke="#009" stroke-width="5" /><circle cx="5381.0" cy="1221.0" fill="#009" r="16" stroke="#009" stroke-width="5" /><circle cx="5253.0" cy="1221.0" fill="#009" r="16" stroke="#009" stroke-width="5" /><circle cx="5125.0" cy="1221.0" fill="#009" r="16" stroke="#009" stroke-width="5" /><circle cx="4997.0" cy="1221.0" fill="#009" r="16" stroke="#009" stroke-width="5" /></svg>