<?xml version="1.0" encoding="utf-8" ?>
<svg baseProfile="tiny" height="1024" version="1.2" viewBox="0 0 4746 5834" width="833" xmlns="http://www.w3.org/2000/svg" xmlns:ev="http://www.w3.org/2001/xml-events" xmlns:xlink="http://www.w3.org/1999/xlink"><defs /><line stroke="#999" stroke-width="3" x1="773.0" x2="773.0" y1="1093.0" y2="1413.0" /><line stroke="#333" stroke-width="10" x1="773.0" x2="965.0" y1="1413.0" y2="1413.0" /><line stroke="#999" stroke-width="3" x1="3717.0" x2="4037.0" y1="1413.0" y2="1093.0" /><line stroke="#333" stroke-width="10" x1="2757.0" x2="2373.0" y1="1093.0" y2="1093.0" /><line stroke="#333" stroke-width="10" x1="4037.0" x2="2757.0" y1="1093.0" y2="1093.0" /><line stroke="#333" stroke-width="10" x1="3717.0" x2="3717.0" y1="1413.0" y2="3077.0" /><line stroke="#999" stroke-width="3" x1="3717.0" x2="4037.0" y1="3077.0" y2="3077.0" /><line stroke="#333" stroke-width="10" x1="4037.0" x2="4037.0" y1="3077.0" y2="1605.0" /><line stroke="#999" stroke-width="3" x1="3717.0" x2="3717.0" y1="3077.0" y2="3397.0" /><line stroke="#666" stroke-width="20" x1="3717.0" x2="4037.0" y1="3397.0" y2="3397.0" /><line stroke="#333" stroke-width="10" x1="4037.0" x2="4037.0" y1="3397.0" y2="3077.0" /><line stroke="#999" stroke-width="3" x1="773.0" x2="453.0" y1="3077.0" y2="3397.0" /><line stroke="#333" stroke-width="10" x1="453.0" x2="709.0" y1="3397.0" y2="3397.0" /><line stroke="#333" stroke-width="10" x1="453.0" x2="453.0" y1="1093.0" y2="3397.0" /><line stroke="#333" stroke-width="10" x1="3717.0" x2="2373.0" y1="3077.0" y2="3077.0" /><line stroke="#999" stroke-width="3" x1="453.0" x2="773.0" y1="1093.0" y2="1413.0" /><line stroke="#333" stroke-width="10" x1="773.0" x2="773.0" y1="3077.0" y2="1413.0" /><line stroke="#333" stroke-width="10" x1="773.0" x2="453.0" y1="1093.0" y2="1093.0" /><line stroke="#333" stroke-width="10" x1="3717.0" x2="3717.0" y1="3397.0" y2="3429.0" /><line stroke="#666" stroke-width="20" x1="4037.0" x2="3717.0" y1="3429.0" y2="3429.0" /><line stroke="#333" stroke-width="10" x1="4037.0" x2="4037.0" y1="3429.0" y2="3397.0" /><line stroke="#333" stroke-width="10" x1="3717.0" x2="3717.0" y1="3429.0" y2="3525.0" /><line stroke="#333" stroke-width="10" x1="3717.0" x2="4037.0" y1="3717.0" y2="3717.0" /><line stroke="#333" stroke-width="10" x1="4037.0" x2="4037.0" y1="3717.0" y2="3429.0" /><line stroke="#666" stroke-width="20" x1="709.0" x2="901.0" y1="3397.0" y2="3397.0" /><line stroke="#333" stroke-width="10" x1="901.0" x2="2181.0" y1="3397.0" y2="3397.0" /><line stroke="#333" stroke-width="10" x1="709.0" x2="709.0" y1="3397.0" y2="3461.0" /><line stroke="#666" stroke-width="20" x1="901.0" x2="709.0" y1="3461.0" y2="3461.0" /><line stroke="#333" stroke-width="10" x1="901.0" x2="901.0" y1="3461.0" y2="3397.0" /><line stroke="#333" stroke-width="10" x1="709.0" x2="389.0" y1="3461.0" y2="3461.0" /><line stroke="#333" stroke-width="10" x1="389.0" x2="1157.0" y1="3653.0" y2="3653.0" /><line stroke="#333" stroke-width="10" x1="1157.0" x2="1157.0" y1="3653.0" y2="3461.0" /><line stroke="#333" stroke-width="10" x1="1157.0" x2="901.0" y1="3461.0" y2="3461.0" /><line stroke="#d00" stroke-width="20" x1="389.0" x2="389.0" y1="3461.0" y2="3653.0" /><line stroke="#333" stroke-width="10" x1="4037.0" x2="4037.0" y1="1541.0" y2="1093.0" /><line stroke="#d00" stroke-width="20" x1="4037.0" x2="4037.0" y1="1605.0" y2="1541.0" /><line stroke="#666" stroke-width="20" x1="4069.0" x2="4069.0" y1="1541.0" y2="1605.0" /><line stroke="#333" stroke-width="10" x1="4037.0" x2="4069.0" y1="1605.0" y2="1605.0" /><line stroke="#333" stroke-width="10" x1="4069.0" x2="4037.0" y1="1541.0" y2="1541.0" /><line stroke="#333" stroke-width="10" x1="4069.0" x2="4133.0" y1="1605.0" y2="1605.0" /><line stroke="#0d0" stroke-width="20" x1="4133.0" x2="4133.0" y1="1605.0" y2="1541.0" /><line stroke="#333" stroke-width="10" x1="4133.0" x2="4069.0" y1="1541.0" y2="1541.0" /><line stroke="#333" stroke-width="10" x1="2181.0" x2="773.0" y1="3077.0" y2="3077.0" /><line stroke="#999" stroke-width="3" x1="2373.0" x2="2181.0" y1="3077.0" y2="3077.0" /><line stroke="#333" stroke-width="10" x1="2181.0" x2="2181.0" y1="1413.0" y2="2757.0" /><line stroke="#999" stroke-width="3" x1="2181.0" x2="2373.0" y1="1413.0" y2="1413.0" /><line stroke="#333" stroke-width="10" x1="2373.0" x2="2373.0" y1="3077.0" y2="1861.0" /><line stroke="#333" stroke-width="10" x1="2373.0" x2="3717.0" y1="1413.0" y2="1413.0" /><line stroke="#333" stroke-width="10" x1="965.0" x2="965.0" y1="1413.0" y2="1509.0" /><line stroke="#666" stroke-width="20" x1="1093.0" x2="965.0" y1="1509.0" y2="1509.0" /><line stroke="#333" stroke-width="10" x1="1093.0" x2="1093.0" y1="1509.0" y2="1413.0" /><line stroke="#666" stroke-width="20" x1="965.0" x2="1093.0" y1="1413.0" y2="1413.0" /><line stroke="#333" stroke-width="10" x1="965.0" x2="965.0" y1="1509.0" y2="1733.0" /><line stroke="#333" stroke-width="10" x1="1093.0" x2="2181.0" y1="1413.0" y2="1413.0" /><line stroke="#d00" stroke-width="20" x1="965.0" x2="1093.0" y1="1733.0" y2="1733.0" /><line stroke="#333" stroke-width="10" x1="1093.0" x2="1093.0" y1="1733.0" y2="1509.0" /><line stroke="#666" stroke-width="20" x1="2373.0" x2="2373.0" y1="1861.0" y2="1669.0" /><line stroke="#333" stroke-width="10" x1="2373.0" x2="2437.0" y1="1861.0" y2="1861.0" /><line stroke="#666" stroke-width="20" x1="2437.0" x2="2437.0" y1="1669.0" y2="1861.0" /><line stroke="#333" stroke-width="10" x1="2437.0" x2="2373.0" y1="1669.0" y2="1669.0" /><line stroke="#333" stroke-width="10" x1="2373.0" x2="2373.0" y1="1669.0" y2="1413.0" /><line stroke="#333" stroke-width="10" x1="2565.0" x2="2565.0" y1="1605.0" y2="1669.0" /><line stroke="#666" stroke-width="20" x1="2117.0" x2="2117.0" y1="2821.0" y2="2757.0" /><line stroke="#333" stroke-width="10" x1="3333.0" x2="3333.0" y1="1861.0" y2="1669.0" /><line stroke="#333" stroke-width="10" x1="3333.0" x2="2757.0" y1="1669.0" y2="1669.0" /><line stroke="#d00" stroke-width="20" x1="2757.0" x2="2565.0" y1="1669.0" y2="1669.0" /><line stroke="#333" stroke-width="10" x1="2757.0" x2="2757.0" y1="1669.0" y2="1605.0" /><line stroke="#666" stroke-width="20" x1="2565.0" x2="2757.0" y1="1605.0" y2="1605.0" /><line stroke="#333" stroke-width="10" x1="2565.0" x2="2437.0" y1="1669.0" y2="1669.0" /><line stroke="#333" stroke-width="10" x1="2565.0" x2="2565.0" y1="1477.0" y2="1605.0" /><line stroke="#333" stroke-width="10" x1="2757.0" x2="2757.0" y1="1605.0" y2="1477.0" /><line stroke="#333" stroke-width="10" x1="2757.0" x2="2565.0" y1="1477.0" y2="1477.0" /><line stroke="#333" stroke-width="10" x1="2437.0" x2="3333.0" y1="1861.0" y2="1861.0" /><line stroke="#333" stroke-width="10" x1="2117.0" x2="2181.0" y1="2821.0" y2="2821.0" /><line stroke="#666" stroke-width="20" x1="2181.0" x2="2181.0" y1="2757.0" y2="2821.0" /><line stroke="#333" stroke-width="10" x1="2181.0" x2="2117.0" y1="2757.0" y2="2757.0" /><line stroke="#333" stroke-width="10" x1="2181.0" x2="2181.0" y1="2821.0" y2="3077.0" /><line stroke="#999" stroke-width="3" x1="1285.0" x2="1093.0" y1="2693.0" y2="2885.0" /><line stroke="#333" stroke-width="10" x1="1093.0" x2="2053.0" y1="2885.0" y2="2885.0" /><line stroke="#333" stroke-width="10" x1="2053.0" x2="2117.0" y1="2885.0" y2="2821.0" /><line stroke="#333" stroke-width="10" x1="2117.0" x2="2053.0" y1="2757.0" y2="2693.0" /><line stroke="#333" stroke-width="10" x1="2053.0" x2="1285.0" y1="2693.0" y2="2693.0" /><line stroke="#333" stroke-width="10" x1="1093.0" x2="1093.0" y1="2565.0" y2="2885.0" /><line stroke="#333" stroke-width="10" x1="1093.0" x2="1093.0" y1="2181.0" y2="2421.0" /><line stroke="#333" stroke-width="10" x1="1285.0" x2="1285.0" y1="2693.0" y2="2565.0" /><line stroke="#999" stroke-width="3" x1="1285.0" x2="1093.0" y1="2565.0" y2="2565.0" /><line stroke="#666" stroke-width="20" x1="1029.0" x2="1029.0" y1="2501.0" y2="2421.0" /><line stroke="#333" stroke-width="10" x1="1285.0" x2="1285.0" y1="2565.0" y2="2373.0" /><line stroke="#999" stroke-width="3" x1="1285.0" x2="1093.0" y1="2373.0" y2="2181.0" /><line stroke="#333" stroke-width="10" x1="1029.0" x2="1093.0" y1="2501.0" y2="2501.0" /><line stroke="#d00" stroke-width="20" x1="1093.0" x2="1093.0" y1="2421.0" y2="2501.0" /><line stroke="#333" stroke-width="10" x1="1093.0" x2="1029.0" y1="2421.0" y2="2421.0" /><line stroke="#333" stroke-width="10" x1="1093.0" x2="1093.0" y1="2501.0" y2="2565.0" /><line stroke="#333" stroke-width="10" x1="837.0" x2="837.0" y1="2325.0" y2="2629.0" /><line stroke="#333" stroke-width="10" x1="837.0" x2="1029.0" y1="2629.0" y2="2501.0" /><line stroke="#333" stroke-width="10" x1="1413.0" x2="1413.0" y1="2373.0" y2="2437.0" /><line stroke="#333" stroke-width="10" x1="1029.0" x2="837.0" y1="2421.0" y2="2325.0" /><line stroke="#333" stroke-width="10" x1="1285.0" x2="1413.0" y1="2373.0" y2="2373.0" /><line stroke="#333" stroke-width="10" x1="1669.0" x2="1669.0" y1="2373.0" y2="2181.0" /><line stroke="#333" stroke-width="10" x1="1669.0" x2="1093.0" y1="2181.0" y2="2181.0" /><line stroke="#666" stroke-width="20" x1="1477.0" x2="1413.0" y1="2437.0" y2="2437.0" /><line stroke="#333" stroke-width="10" x1="1477.0" x2="1477.0" y1="2437.0" y2="2373.0" /><line stroke="#d00" stroke-width="20" x1="1413.0" x2="1477.0" y1="2373.0" y2="2373.0" /><line stroke="#333" stroke-width="10" x1="1413.0" x2="1349.0" y1="2437.0" y2="2565.0" /><line stroke="#333" stroke-width="10" x1="1477.0" x2="1669.0" y1="2373.0" y2="2373.0" /><line stroke="#333" stroke-width="10" x1="1349.0" x2="1669.0" y1="2565.0" y2="2565.0" /><line stroke="#333" stroke-width="10" x1="1669.0" x2="1477.0" y1="2565.0" y2="2437.0" /><line stroke="#666" stroke-width="20" x1="325.0" x2="325.0" y1="3653.0" y2="3461.0" /><line stroke="#333" stroke-width="10" x1="325.0" x2="389.0" y1="3653.0" y2="3653.0" /><line stroke="#333" stroke-width="10" x1="5.0" x2="5.0" y1="3461.0" y2="3653.0" /><line stroke="#333" stroke-width="10" x1="389.0" x2="325.0" y1="3461.0" y2="3461.0" /><line stroke="#333" stroke-width="10" x1="5.0" x2="325.0" y1="3653.0" y2="3653.0" /><line stroke="#333" stroke-width="10" x1="325.0" x2="5.0" y1="3461.0" y2="3461.0" /><line stroke="#666" stroke-width="20" x1="2373.0" x2="2181.0" y1="1093.0" y2="1093.0" /><line stroke="#333" stroke-width="10" x1="2181.0" x2="773.0" y1="1093.0" y2="1093.0" /><line stroke="#333" stroke-width="10" x1="2181.0" x2="2181.0" y1="1029.0" y2="1093.0" /><line stroke="#333" stroke-width="10" x1="2085.0" x2="453.0" y1="181.0" y2="181.0" /><line stroke="#333" stroke-width="10" x1="2373.0" x2="2373.0" y1="1093.0" y2="1029.0" /><line stroke="#666" stroke-width="20" x1="2181.0" x2="2373.0" y1="1029.0" y2="1029.0" /><line stroke="#333" stroke-width="10" x1="453.0" x2="2181.0" y1="1029.0" y2="1029.0" /><line stroke="#333" stroke-width="10" x1="2373.0" x2="4037.0" y1="1029.0" y2="1029.0" /><line stroke="#333" stroke-width="10" x1="4037.0" x2="3013.0" y1="181.0" y2="181.0" /><line stroke="#333" stroke-width="10" x1="4037.0" x2="4037.0" y1="1029.0" y2="181.0" /><line stroke="#333" stroke-width="10" x1="453.0" x2="453.0" y1="181.0" y2="1029.0" /><line stroke="#666" stroke-width="20" x1="2181.0" x2="2309.0" y1="3397.0" y2="3397.0" /><line stroke="#333" stroke-width="10" x1="2309.0" x2="3717.0" y1="3397.0" y2="3397.0" /><line stroke="#333" stroke-width="10" x1="2181.0" x2="2181.0" y1="3397.0" y2="3461.0" /><line stroke="#666" stroke-width="20" x1="2309.0" x2="2181.0" y1="3461.0" y2="3461.0" /><line stroke="#333" stroke-width="10" x1="2309.0" x2="2309.0" y1="3461.0" y2="3397.0" /><line stroke="#333" stroke-width="10" x1="2181.0" x2="2181.0" y1="3733.0" y2="3781.0" /><line stroke="#666" stroke-width="20" x1="2181.0" x2="2309.0" y1="3733.0" y2="3733.0" /><line stroke="#666" stroke-width="20" x1="2309.0" x2="2181.0" y1="3781.0" y2="3781.0" /><line stroke="#333" stroke-width="10" x1="2309.0" x2="2309.0" y1="3733.0" y2="3461.0" /><line stroke="#333" stroke-width="10" x1="2181.0" x2="2181.0" y1="3461.0" y2="3733.0" /><line stroke="#333" stroke-width="10" x1="2309.0" x2="2309.0" y1="3781.0" y2="3733.0" /><line stroke="#999" stroke-width="3" x1="2181.0" x2="2181.0" y1="3781.0" y2="4101.0" /><line stroke="#333" stroke-width="10" x1="2181.0" x2="2309.0" y1="4101.0" y2="4101.0" /><line stroke="#999" stroke-width="3" x1="2309.0" x2="2309.0" y1="4101.0" y2="3781.0" /><line stroke="#666" stroke-width="20" x1="3653.0" x2="3653.0" y1="3653.0" y2="3525.0" /><line stroke="#333" stroke-width="10" x1="2309.0" x2="3717.0" y1="4101.0" y2="4101.0" /><line stroke="#333" stroke-width="10" x1="3653.0" x2="3717.0" y1="3653.0" y2="3653.0" /><line stroke="#333" stroke-width="10" x1="4037.0" x2="2309.0" y1="3781.0" y2="3781.0" /><line stroke="#999" stroke-width="3" x1="453.0" x2="773.0" y1="3781.0" y2="4101.0" /><line stroke="#333" stroke-width="10" x1="2181.0" x2="453.0" y1="3781.0" y2="3781.0" /><line stroke="#999" stroke-width="3" x1="3717.0" x2="4037.0" y1="4101.0" y2="3781.0" /><line stroke="#999" stroke-width="3" x1="773.0" x2="453.0" y1="5509.0" y2="5509.0" /><line stroke="#333" stroke-width="10" x1="453.0" x2="453.0" y1="5509.0" y2="5829.0" /><line stroke="#333" stroke-width="10" x1="773.0" x2="2181.0" y1="4101.0" y2="4101.0" /><line stroke="#666" stroke-width="20" x1="3717.0" x2="3717.0" y1="3525.0" y2="3653.0" /><line stroke="#333" stroke-width="10" x1="3717.0" x2="3653.0" y1="3525.0" y2="3525.0" /><line stroke="#333" stroke-width="10" x1="3717.0" x2="3717.0" y1="3653.0" y2="3717.0" /><line stroke="#333" stroke-width="10" x1="3397.0" x2="3397.0" y1="3525.0" y2="3653.0" /><line stroke="#333" stroke-width="10" x1="3397.0" x2="3653.0" y1="3653.0" y2="3653.0" /><line stroke="#333" stroke-width="10" x1="3653.0" x2="3397.0" y1="3525.0" y2="3525.0" /><line stroke="#333" stroke-width="10" x1="965.0" x2="965.0" y1="1733.0" y2="1797.0" /><line stroke="#666" stroke-width="20" x1="1093.0" x2="965.0" y1="1797.0" y2="1797.0" /><line stroke="#333" stroke-width="10" x1="1093.0" x2="1093.0" y1="1797.0" y2="1733.0" /><line stroke="#333" stroke-width="10" x1="965.0" x2="965.0" y1="1797.0" y2="2053.0" /><line stroke="#333" stroke-width="10" x1="965.0" x2="1093.0" y1="2053.0" y2="2053.0" /><line stroke="#333" stroke-width="10" x1="1093.0" x2="1093.0" y1="2053.0" y2="1797.0" /><line stroke="#333" stroke-width="10" x1="4293.0" x2="4293.0" y1="4293.0" y2="5317.0" /><line stroke="#999" stroke-width="3" x1="4293.0" x2="4421.0" y1="5317.0" y2="5381.0" /><line stroke="#333" stroke-width="10" x1="4421.0" x2="4421.0" y1="5381.0" y2="4613.0" /><line stroke="#333" stroke-width="10" x1="4421.0" x2="4293.0" y1="4293.0" y2="4293.0" /><line stroke="#999" stroke-width="3" x1="4421.0" x2="4421.0" y1="4485.0" y2="4613.0" /><line stroke="#333" stroke-width="10" x1="4421.0" x2="4741.0" y1="4613.0" y2="4613.0" /><line stroke="#333" stroke-width="10" x1="4741.0" x2="4741.0" y1="4613.0" y2="4485.0" /><line stroke="#333" stroke-width="10" x1="4741.0" x2="4421.0" y1="4485.0" y2="4485.0" /><line stroke="#333" stroke-width="10" x1="4421.0" x2="4421.0" y1="4485.0" y2="4293.0" /><line stroke="#333" stroke-width="10" x1="453.0" x2="453.0" y1="3781.0" y2="5509.0" /><line stroke="#999" stroke-width="3" x1="773.0" x2="453.0" y1="5509.0" y2="5829.0" /><line stroke="#333" stroke-width="10" x1="773.0" x2="773.0" y1="5509.0" y2="4101.0" /><line stroke="#333" stroke-width="10" x1="453.0" x2="4037.0" y1="5829.0" y2="5829.0" /><line stroke="#999" stroke-width="3" x1="4037.0" x2="3717.0" y1="5829.0" y2="5509.0" /><line stroke="#333" stroke-width="10" x1="3717.0" x2="773.0" y1="5509.0" y2="5509.0" /><line stroke="#333" stroke-width="10" x1="2949.0" x2="2949.0" y1="5.0" y2="181.0" /><line stroke="#999" stroke-width="3" x1="2949.0" x2="3013.0" y1="181.0" y2="181.0" /><line stroke="#333" stroke-width="10" x1="3013.0" x2="2949.0" y1="5.0" y2="5.0" /><line stroke="#333" stroke-width="10" x1="2949.0" x2="2085.0" y1="181.0" y2="181.0" /><line stroke="#333" stroke-width="10" x1="3717.0" x2="3717.0" y1="4101.0" y2="5509.0" /><line stroke="#d00" stroke-width="20" x1="4037.0" x2="4037.0" y1="5381.0" y2="5317.0" /><line stroke="#333" stroke-width="10" x1="4037.0" x2="4037.0" y1="5829.0" y2="5381.0" /><line stroke="#666" stroke-width="20" x1="4101.0" x2="4101.0" y1="5317.0" y2="5381.0" /><line stroke="#333" stroke-width="10" x1="4037.0" x2="4037.0" y1="5317.0" y2="3781.0" /><line stroke="#333" stroke-width="10" x1="4101.0" x2="4421.0" y1="5381.0" y2="5381.0" /><line stroke="#333" stroke-width="10" x1="4293.0" x2="4101.0" y1="5317.0" y2="5317.0" /><line stroke="#333" stroke-width="10" x1="4037.0" x2="4101.0" y1="5381.0" y2="5381.0" /><line stroke="#333" stroke-width="10" x1="4101.0" x2="4037.0" y1="5317.0" y2="5317.0" /><line stroke="#333" stroke-width="10" x1="3013.0" x2="3013.0" y1="181.0" y2="5.0" /><circle cx="3797.0" cy="3653.0" fill="#090" r="16" stroke="#090" stroke-width="5" /><circle cx="3925.0" cy="3621.0" fill="#090" r="16" stroke="#090" stroke-width="5" /><circle cx="3781.0" cy="3493.0" fill="#090" r="16" stroke="#090" stroke-width="5" /><circle cx="3861.0" cy="3557.0" fill="#900" r="16" stroke="#900" stroke-width="5" /><circle cx="3973.0" cy="3493.0" fill="#090" r="16" stroke="#090" stroke-width="5" /><rect fill="#900" height="48" stroke="#900" stroke-width="5" transform="rotate(90,677.0,2981.0)" width="32" x="661.0" y="2957.0" /><rect fill="#900" height="48" stroke="#900" stroke-width="5" transform="rotate(90,597.0,2885.0)" width="32" x="581.0" y="2861.0" /><rect fill="#900" height="48" stroke="#900" stroke-width="5" transform="rotate(90,709.0,2837.0)" width="32" x="693.0" y="2813.0" /><rect fill="#900" height="48" stroke="#900" stroke-width="5" transform="rotate(90,533.0,2773.0)" width="32" x="517.0" y="2749.0" /><rect fill="#900" height="48" stroke="#900" stroke-width="5" transform="rotate(0,1045.0,3173.0)" width="32" x="1029.0" y="3149.0" /><circle cx="1125.0" cy="1269.0" fill="#009" r="16" stroke="#009" stroke-width="5" /><rect fill="#090" height="24" stroke="#090" stroke-width="5" transform="rotate(0,2901.0,1253.0)" width="24" x="2889.0" y="1241.0" /><rect fill="#090" height="24" stroke="#090" stroke-width="5" transform="rotate(0,3781.0,1605.0)" width="24" x="3769.0" y="1593.0" /><circle cx="3205.0" cy="1765.0" fill="#090" r="16" stroke="#090" stroke-width="5" /><circle cx="1173.0" cy="2613.0" fill="#090" r="16" stroke="#090" stroke-width="5" /><circle cx="1173.0" cy="2709.0" fill="#090" r="16" stroke="#090" stroke-width="5" /><circle cx="1301.0" cy="2261.0" fill="#090" r="16" stroke="#090" stroke-width="5" /><circle cx="1429.0" cy="2261.0" fill="#090" r="16" stroke="#090" stroke-width="5" /><circle cx="1557.0" cy="2261.0" fill="#090" r="16" stroke="#090" stroke-width="5" /><ellipse cx="1477.0" cy="2501.0" fill="#090" rx="12" ry="24" stroke="#090" stroke-width="5" /><circle cx="149.0" cy="3541.0" fill="#900" r="16" stroke="#900" stroke-width="5" /><rect fill="#090" height="24" stroke="#090" stroke-width="5" transform="rotate(0,3781.0,1669.0)" width="24" x="3769.0" y="1657.0" /><rect fill="#090" height="24" stroke="#090" stroke-width="5" transform="rotate(0,3781.0,1733.0)" width="24" x="3769.0" y="1721.0" /><rect fill="#090" height="24" stroke="#090" stroke-width="5" transform="rotate(0,3781.0,1797.0)" width="24" x="3769.0" y="1785.0" /><rect fill="#090" height="24" stroke="#090" stroke-width="5" transform="rotate(0,3781.0,1861.0)" width="24" x="3769.0" y="1849.0" /><rect fill="#090" height="24" stroke="#090" stroke-width="5" transform="rotate(0,3781.0,1925.0)" width="24" x="3769.0" y="1913.0" /><rect fill="#090" height="24" stroke="#090" stroke-width="5" transform="rotate(0,3781.0,1989.0)" width="24" x="3769.0" y="1977.0" /><rect fill="#090" height="24" stroke="#090" stroke-width="5" transform="rotate(0,3781.0,2053.0)" width="24" x="3769.0" y="2041.0" /><rect fill="#090" height="24" stroke="#090" stroke-width="5" transform="rotate(0,3781.0,2117.0)" width="24" x="3769.0" y="2105.0" /><rect fill="#090" height="24" stroke="#090" stroke-width="5" transform="rotate(0,3781.0,2181.0)" width="24" x="3769.0" y="2169.0" /><circle cx="1349.0" cy="1157.0" fill="#009" r="16" stroke="#009" stroke-width="5" /><circle cx="1941.0" cy="1157.0" fill="#009" r="16" stroke="#009" stroke-width="5" /><circle cx="2565.0" cy="1157.0" fill="#009" r="16" stroke="#009" stroke-width="5" /><circle cx="2981.0" cy="1765.0" fill="#090" r="16" stroke="#090" stroke-width="5" /><circle cx="3093.0" cy="1765.0" fill="#090" r="16" stroke="#090" stroke-width="5" /><circle cx="3045.0" cy="3221.0" fill="#009" r="16" stroke="#009" stroke-width="5" /><rect fill="#900" height="48" stroke="#900" stroke-width="5" transform="rotate(0,549.0,3125.0)" width="32" x="533.0" y="3101.0" /><rect fill="#900" height="48" stroke="#900" stroke-width="5" transform="rotate(90,549.0,2981.0)" width="32" x="533.0" y="2957.0" /><circle cx="85.0" cy="3605.0" fill="#090" r="16" stroke="#090" stroke-width="5" /><circle cx="261.0" cy="3605.0" fill="#090" r="16" stroke="#090" stroke-width="5" /><circle cx="261.0" cy="3509.0" fill="#009" r="16" stroke="#009" stroke-width="5" /><circle cx="485.0" cy="3589.0" fill="#090" r="16" stroke="#090" stroke-width="5" /><circle cx="485.0" cy="3509.0" fill="#090" r="16" stroke="#090" stroke-width="5" /><circle cx="1077.0" cy="3541.0" fill="#009" r="16" stroke="#009" stroke-width="5" /><circle cx="1077.0" cy="3605.0" fill="#009" r="16" stroke="#009" stroke-width="5" /><circle cx="597.0" cy="325.0" fill="#009" r="16" stroke="#009" stroke-width="5" /><circle cx="725.0" cy="325.0" fill="#009" r="16" stroke="#009" stroke-width="5" /><circle cx="853.0" cy="325.0" fill="#009" r="16" stroke="#009" stroke-width="5" /><rect fill="#900" height="48" stroke="#900" stroke-width="5" transform="rotate(0,661.0,757.0)" width="32" x="645.0" y="733.0" /><rect fill="#900" height="48" stroke="#900" stroke-width="5" transform="rotate(0,757.0,757.0)" width="32" x="741.0" y="733.0" /><rect fill="#900" height="48" stroke="#900" stroke-width="5" transform="rotate(0,885.0,757.0)" width="32" x="869.0" y="733.0" /><rect fill="#900" height="48" stroke="#900" stroke-width="5" transform="rotate(0,725.0,613.0)" width="32" x="709.0" y="589.0" /><rect fill="#900" height="48" stroke="#900" stroke-width="5" transform="rotate(0,853.0,629.0)" width="32" x="837.0" y="605.0" /><rect fill="#900" height="48" stroke="#900" stroke-width="5" transform="rotate(0,837.0,501.0)" width="32" x="821.0" y="477.0" /><ellipse cx="1029.0" cy="565.0" fill="#900" rx="12" ry="24" stroke="#900" stroke-width="5" /><ellipse cx="1301.0" cy="821.0" fill="#900" rx="12" ry="24" stroke="#900" stroke-width="5" /><ellipse cx="1301.0" cy="709.0" fill="#900" rx="12" ry="24" stroke="#900" stroke-width="5" /><ellipse cx="1301.0" cy="613.0" fill="#900" rx="12" ry="24" stroke="#900" stroke-width="5" /><ellipse cx="1301.0" cy="533.0" fill="#900" rx="12" ry="24" stroke="#900" stroke-width="5" /><ellipse cx="1301.0" cy="453.0" fill="#900" rx="12" ry="24" stroke="#900" stroke-width="5" /><ellipse cx="1301.0" cy="357.0" fill="#900" rx="12" ry="24" stroke="#900" stroke-width="5" /><ellipse cx="1237.0" cy="421.0" fill="#900" rx="12" ry="24" stroke="#900" stroke-width="5" /><ellipse cx="1221.0" cy="517.0" fill="#900" rx="12" ry="24" stroke="#900" stroke-width="5" /><ellipse cx="1189.0" cy="597.0" fill="#900" rx="12" ry="24" stroke="#900" stroke-width="5" /><ellipse cx="1189.0" cy="693.0" fill="#900" rx="12" ry="24" stroke="#900" stroke-width="5" /><ellipse cx="1141.0" cy="773.0" fill="#900" rx="12" ry="24" stroke="#900" stroke-width="5" /><ellipse cx="1109.0" cy="853.0" fill="#900" rx="12" ry="24" stroke="#900" stroke-width="5" /><rect fill="#900" height="48" stroke="#900" stroke-width="5" transform="rotate(0,3653.0,517.0)" width="32" x="3637.0" y="493.0" /><rect fill="#900" height="48" stroke="#900" stroke-width="5" transform="rotate(180,3461.0,645.0)" width="32" x="3445.0" y="621.0" /><circle cx="3845.0" cy="901.0" fill="#009" r="16" stroke="#009" stroke-width="5" /><rect fill="#900" height="48" stroke="#900" stroke-width="5" transform="rotate(180,3845.0,389.0)" width="32" x="3829.0" y="365.0" /><rect fill="#900" height="48" stroke="#900" stroke-width="5" transform="rotate(0,3845.0,645.0)" width="32" x="3829.0" y="621.0" /><rect fill="#900" height="48" stroke="#900" stroke-width="5" transform="rotate(0,3653.0,837.0)" width="32" x="3637.0" y="813.0" /><circle cx="2021.0" cy="485.0" fill="#009" r="16" stroke="#009" stroke-width="5" /><rect fill="#900" height="48" stroke="#900" stroke-width="5" transform="rotate(0,1413.0,3173.0)" width="32" x="1397.0" y="3149.0" /><rect fill="#900" height="48" stroke="#900" stroke-width="5" transform="rotate(0,1701.0,3253.0)" width="32" x="1685.0" y="3229.0" /><rect fill="#900" height="48" stroke="#900" stroke-width="5" transform="rotate(0,1957.0,3237.0)" width="32" x="1941.0" y="3213.0" /><rect fill="#900" height="48" stroke="#900" stroke-width="5" transform="rotate(0,2149.0,3205.0)" width="32" x="2133.0" y="3181.0" /><rect fill="#900" height="48" stroke="#900" stroke-width="5" transform="rotate(180,2421.0,3285.0)" width="32" x="2405.0" y="3261.0" /><rect fill="#900" height="48" stroke="#900" stroke-width="5" transform="rotate(180,2549.0,3157.0)" width="32" x="2533.0" y="3133.0" /><ellipse cx="1157.0" cy="5669.0" fill="#009" rx="12" ry="24" stroke="#009" stroke-width="5" /><rect fill="#090" height="24" stroke="#090" stroke-width="5" transform="rotate(0,1413.0,5669.0)" width="24" x="1401.0" y="5657.0" /><circle cx="1701.0" cy="5669.0" fill="#090" r="16" stroke="#090" stroke-width="5" /><circle cx="2021.0" cy="5669.0" fill="#090" r="16" stroke="#090" stroke-width="5" /><circle cx="629.0" cy="3573.0" fill="#090" r="16" stroke="#090" stroke-width="5" /><circle cx="741.0" cy="3573.0" fill="#090" r="16" stroke="#090" stroke-width="5" /><circle cx="837.0" cy="3573.0" fill="#090" r="16" stroke="#090" stroke-width="5" /><circle cx="965.0" cy="3573.0" fill="#090" r="16" stroke="#090" stroke-width="5" /><circle cx="3861.0" cy="3637.0" fill="#090" r="16" stroke="#090" stroke-width="5" /><rect fill="#900" height="48" stroke="#900" stroke-width="5" transform="rotate(180,3893.0,5749.0)" width="32" x="3877.0" y="5725.0" /><rect fill="#900" height="48" stroke="#900" stroke-width="5" transform="rotate(180,3877.0,5621.0)" width="32" x="3861.0" y="5597.0" /><rect fill="#900" height="48" stroke="#900" stroke-width="5" transform="rotate(180,3877.0,5381.0)" width="32" x="3861.0" y="5357.0" /><rect fill="#900" height="48" stroke="#900" stroke-width="5" transform="rotate(180,3653.0,5717.0)" width="32" x="3637.0" y="5693.0" /><rect fill="#900" height="48" stroke="#900" stroke-width="5" transform="rotate(180,3765.0,5589.0)" width="32" x="3749.0" y="5565.0" /><circle cx="901.0" cy="2421.0" fill="#009" r="16" stroke="#009" stroke-width="5" /><circle cx="1029.0" cy="1909.0" fill="#900" r="16" stroke="#900" stroke-width="5" /><rect fill="#900" height="48" stroke="#900" stroke-width="5" transform="rotate(90,4357.0,4565.0)" width="32" x="4341.0" y="4541.0" /><rect fill="#900" height="48" stroke="#900" stroke-width="5" transform="rotate(90,4357.0,4789.0)" width="32" x="4341.0" y="4765.0" /><rect fill="#900" height="48" stroke="#900" stroke-width="5" transform="rotate(90,4357.0,4981.0)" width="32" x="4341.0" y="4957.0" /><ellipse cx="4629.0" cy="4549.0" fill="#090" rx="12" ry="24" stroke="#090" stroke-width="5" /><circle cx="4357.0" cy="4357.0" fill="#009" r="16" stroke="#009" stroke-width="5" /><rect fill="#900" height="48" stroke="#900" stroke-width="5" transform="rotate(180,4501.0,4549.0)" width="32" x="4485.0" y="4525.0" /><rect fill="#900" height="48" stroke="#900" stroke-width="5" transform="rotate(90,3781.0,5333.0)" width="32" x="3765.0" y="5309.0" /><rect fill="#900" height="48" stroke="#900" stroke-width="5" transform="rotate(90,3989.0,5413.0)" width="32" x="3973.0" y="5389.0" /><rect fill="#900" height="48" stroke="#900" stroke-width="5" transform="rotate(90,3973.0,5237.0)" width="32" x="3957.0" y="5213.0" /><rect fill="#900" height="48" stroke="#900" stroke-width="5" transform="rotate(90,3797.0,4949.0)" width="32" x="3781.0" y="4925.0" /><rect fill="#900" height="48" stroke="#900" stroke-width="5" transform="rotate(90,3957.0,4869.0)" width="32" x="3941.0" y="4845.0" /><rect fill="#900" height="48" stroke="#900" stroke-width="5" transform="rotate(0,3829.0,4613.0)" width="32" x="3813.0" y="4589.0" /><rect fill="#900" height="48" stroke="#900" stroke-width="5" transform="rotate(90,3429.0,3909.0)" width="32" x="3413.0" y="3885.0" /><rect fill="#900" height="48" stroke="#900" stroke-width="5" transform="rotate(90,3861.0,4277.0)" width="32" x="3845.0" y="4253.0" /><rect fill="#900" height="48" stroke="#900" stroke-width="5" transform="rotate(90,2245.0,3589.0)" width="32" x="2229.0" y="3565.0" /><rect fill="#900" height="48" stroke="#900" stroke-width="5" transform="rotate(90,613.0,5221.0)" width="32" x="597.0" y="5197.0" /><rect fill="#900" height="48" stroke="#900" stroke-width="5" transform="rotate(90,597.0,2613.0)" width="32" x="581.0" y="2589.0" /><rect fill="#900" height="48" stroke="#900" stroke-width="5" transform="rotate(90,597.0,2373.0)" width="32" x="581.0" y="2349.0" /><rect fill="#900" height="48" stroke="#900" stroke-width="5" transform="rotate(90,1205.0,2453.0)" width="32" x="1189.0" y="2429.0" /><rect fill="#900" height="48" stroke="#900" stroke-width="5" transform="rotate(90,1237.0,2245.0)" width="32" x="1221.0" y="2221.0" /><rect fill="#900" height="48" stroke="#900" stroke-width="5" transform="rotate(90,1157.0,2389.0)" width="32" x="1141.0" y="2365.0" /><rect fill="#900" height="48" stroke="#900" stroke-width="5" transform="rotate(90,1237.0,2533.0)" width="32" x="1221.0" y="2509.0" /><rect fill="#900" height="48" stroke="#900" stroke-width="5" transform="rotate(90,2261.0,2885.0)" width="32" x="2245.0" y="2861.0" /><rect fill="#900" height="48" stroke="#900" stroke-width="5" transform="rotate(90,2309.0,1061.0)" width="32" x="2293.0" y="1037.0" /><rect fill="#900" height="48" stroke="#900" stroke-width="5" transform="rotate(90,2421.0,341.0)" width="32" x="2405.0" y="317.0" /><rect fill="#900" height="48" stroke="#900" stroke-width="5" transform="rotate(90,2133.0,341.0)" width="32" x="2117.0" y="317.0" /><rect fill="#900" height="48" stroke="#900" stroke-width="5" transform="rotate(90,2245.0,581.0)" width="32" x="2229.0" y="557.0" /><circle cx="629.0" cy="3845.0" fill="#009" r="16" stroke="#009" stroke-width="5" /><circle cx="949.0" cy="3845.0" fill="#009" r="16" stroke="#009" stroke-width="5" /><circle cx="1221.0" cy="3829.0" fill="#009" r="16" stroke="#009" stroke-width="5" /><circle cx="1573.0" cy="3829.0" fill="#009" r="16" stroke="#009" stroke-width="5" /><circle cx="1845.0" cy="3845.0" fill="#009" r="16" stroke="#009" stroke-width="5" /><circle cx="3733.0" cy="3829.0" fill="#009" r="16" stroke="#009" stroke-width="5" /><circle cx="2533.0" cy="5557.0" fill="#009" r="16" stroke="#009" stroke-width="5" /><ellipse cx="1029.0" cy="1621.0" fill="#090" rx="12" ry="24" stroke="#090" stroke-width="5" /><circle cx="3461.0" cy="3589.0" fill="#900" r="16" stroke="#900" stroke-width="5" /><circle cx="2581.0" cy="1765.0" fill="#009" r="16" stroke="#009" stroke-width="5" /><circle cx="3781.0" cy="3573.0" fill="#090" r="16" stroke="#090" stroke-width="5" /><circle cx="3941.0" cy="3557.0" fill="#090" r="16" stroke="#090" stroke-width="5" /><circle cx="2885.0" cy="1765.0" fill="#090" r="16" stroke="#090" stroke-width="5" /><circle cx="917.0" cy="2501.0" fill="#900" r="16" stroke="#900" stroke-width="5" /><circle cx="3541.0" cy="3589.0" fill="#090" r="16" stroke="#090" stroke-width="5" /><rect fill="#900" height="48" stroke="#900" stroke-width="5" transform="rotate(0,2037.0,821.0)" width="32" x="2021.0" y="797.0" /><rect fill="#900" height="48" stroke="#900" stroke-width="5" transform="rotate(0,1973.0,933.0)" width="32" x="1957.0" y="909.0" /><rect fill="#900" height="48" stroke="#900" stroke-width="5" transform="rotate(0,3109.0,581.0)" width="32" x="3093.0" y="557.0" /><rect fill="#900" height="48" stroke="#900" stroke-width="5" transform="rotate(0,2005.0,661.0)" width="32" x="1989.0" y="637.0" /><rect fill="#900" height="48" stroke="#900" stroke-width="5" transform="rotate(90,1893.0,357.0)" width="32" x="1877.0" y="333.0" /><rect fill="#900" height="48" stroke="#900" stroke-width="5" transform="rotate(90,2629.0,373.0)" width="32" x="2613.0" y="349.0" /><rect fill="#900" height="48" stroke="#900" stroke-width="5" transform="rotate(90,2949.0,341.0)" width="32" x="2933.0" y="317.0" /><rect fill="#900" height="48" stroke="#900" stroke-width="5" transform="rotate(90,2981.0,133.0)" width="32" x="2965.0" y="109.0" /><circle cx="2453.0" cy="645.0" fill="#090" r="16" stroke="#090" stroke-width="5" /><circle cx="2741.0" cy="885.0" fill="#090" r="16" stroke="#090" stroke-width="5" /><circle cx="1749.0" cy="821.0" fill="#090" r="16" stroke="#090" stroke-width="5" /><circle cx="3045.0" cy="901.0" fill="#090" r="16" stroke="#090" stroke-width="5" /><circle cx="2901.0" cy="709.0" fill="#090" r="16" stroke="#090" stroke-width="5" /><circle cx="2661.0" cy="1541.0" fill="#009" r="16" stroke="#009" stroke-width="5" /><circle cx="2677.0" cy="1765.0" fill="#090" r="16" stroke="#090" stroke-width="5" /><circle cx="2789.0" cy="1765.0" fill="#090" r="16" stroke="#090" stroke-width="5" /><rect fill="#900" height="48" stroke="#900" stroke-width="5" transform="rotate(90,2245.0,1061.0)" width="32" x="2229.0" y="1037.0" /></svg>