<?xml version="1.0" encoding="utf-8" ?>
<svg baseProfile="tiny" height="1024" version="1.2" viewBox="0 0 3466 4090" width="867" xmlns="http://www.w3.org/2000/svg" xmlns:ev="http://www.w3.org/2001/xml-events" xmlns:xlink="http://www.w3.org/1999/xlink"><defs /><line stroke="#999" stroke-width="3" x1="2245.0" x2="2245.0" y1="2029.0" y2="1837.0" /><line stroke="#999" stroke-width="3" x1="2181.0" x2="2245.0" y1="2221.0" y2="2029.0" /><line stroke="#999" stroke-width="3" x1="2021.0" x2="2181.0" y1="2381.0" y2="2221.0" /><line stroke="#999" stroke-width="3" x1="1829.0" x2="2021.0" y1="2445.0" y2="2381.0" /><line stroke="#999" stroke-width="3" x1="1637.0" x2="1829.0" y1="2445.0" y2="2445.0" /><line stroke="#999" stroke-width="3" x1="1445.0" x2="1637.0" y1="2381.0" y2="2445.0" /><line stroke="#999" stroke-width="3" x1="1285.0" x2="1445.0" y1="2221.0" y2="2381.0" /><line stroke="#999" stroke-width="3" x1="1221.0" x2="1285.0" y1="2029.0" y2="2221.0" /><line stroke="#999" stroke-width="3" x1="1221.0" x2="1221.0" y1="1837.0" y2="2029.0" /><line stroke="#999" stroke-width="3" x1="1285.0" x2="1221.0" y1="1645.0" y2="1837.0" /><line stroke="#999" stroke-width="3" x1="1445.0" x2="1285.0" y1="1485.0" y2="1645.0" /><line stroke="#999" stroke-width="3" x1="1637.0" x2="1445.0" y1="1421.0" y2="1485.0" /><line stroke="#999" stroke-width="3" x1="1829.0" x2="1637.0" y1="1421.0" y2="1421.0" /><line stroke="#999" stroke-width="3" x1="2021.0" x2="1829.0" y1="1485.0" y2="1421.0" /><line stroke="#999" stroke-width="3" x1="2181.0" x2="2021.0" y1="1645.0" y2="1485.0" /><line stroke="#999" stroke-width="3" x1="2245.0" x2="2181.0" y1="1837.0" y2="1645.0" /><line stroke="#999" stroke-width="3" x1="2365.0" x2="2365.0" y1="2061.0" y2="1805.0" /><line stroke="#999" stroke-width="3" x1="2277.0" x2="2365.0" y1="2285.0" y2="2061.0" /><line stroke="#999" stroke-width="3" x1="2085.0" x2="2277.0" y1="2477.0" y2="2285.0" /><line stroke="#999" stroke-width="3" x1="1861.0" x2="2085.0" y1="2573.0" y2="2477.0" /><line stroke="#999" stroke-width="3" x1="1605.0" x2="1861.0" y1="2573.0" y2="2573.0" /><line stroke="#999" stroke-width="3" x1="1381.0" x2="1605.0" y1="2477.0" y2="2573.0" /><line stroke="#999" stroke-width="3" x1="1189.0" x2="1381.0" y1="2285.0" y2="2477.0" /><line stroke="#999" stroke-width="3" x1="1093.0" x2="1189.0" y1="2061.0" y2="2285.0" /><line stroke="#999" stroke-width="3" x1="1093.0" x2="1093.0" y1="1805.0" y2="2061.0" /><line stroke="#999" stroke-width="3" x1="1189.0" x2="1093.0" y1="1581.0" y2="1805.0" /><line stroke="#999" stroke-width="3" x1="1381.0" x2="1189.0" y1="1389.0" y2="1581.0" /><line stroke="#999" stroke-width="3" x1="1605.0" x2="1381.0" y1="1293.0" y2="1389.0" /><line stroke="#999" stroke-width="3" x1="1861.0" x2="1605.0" y1="1293.0" y2="1293.0" /><line stroke="#999" stroke-width="3" x1="2085.0" x2="1861.0" y1="1389.0" y2="1293.0" /><line stroke="#999" stroke-width="3" x1="2277.0" x2="2085.0" y1="1581.0" y2="1389.0" /><line stroke="#999" stroke-width="3" x1="2365.0" x2="2277.0" y1="1805.0" y2="1581.0" /><line stroke="#d00" stroke-width="20" x1="2501.0" x2="2501.0" y1="2061.0" y2="1805.0" /><line stroke="#333" stroke-width="10" x1="2309.0" x2="2501.0" y1="2509.0" y2="2061.0" /><line stroke="#333" stroke-width="10" x1="1925.0" x2="2309.0" y1="2701.0" y2="2509.0" /><line stroke="#333" stroke-width="10" x1="1541.0" x2="1925.0" y1="2701.0" y2="2701.0" /><line stroke="#333" stroke-width="10" x1="1157.0" x2="1541.0" y1="2509.0" y2="2701.0" /><line stroke="#333" stroke-width="10" x1="965.0" x2="1157.0" y1="2061.0" y2="2509.0" /><line stroke="#d00" stroke-width="20" x1="965.0" x2="965.0" y1="1805.0" y2="2061.0" /><line stroke="#333" stroke-width="10" x1="1157.0" x2="965.0" y1="1357.0" y2="1805.0" /><line stroke="#333" stroke-width="10" x1="1541.0" x2="1157.0" y1="1165.0" y2="1357.0" /><line stroke="#333" stroke-width="10" x1="1925.0" x2="1541.0" y1="1165.0" y2="1165.0" /><line stroke="#333" stroke-width="10" x1="2309.0" x2="1925.0" y1="1357.0" y2="1165.0" /><line stroke="#333" stroke-width="10" x1="2501.0" x2="2309.0" y1="1805.0" y2="1357.0" /><line stroke="#999" stroke-width="3" x1="1861.0" x2="1829.0" y1="1293.0" y2="1421.0" /><line stroke="#999" stroke-width="3" x1="2245.0" x2="2365.0" y1="1837.0" y2="1805.0" /><line stroke="#999" stroke-width="3" x1="2365.0" x2="2245.0" y1="2061.0" y2="2029.0" /><line stroke="#999" stroke-width="3" x1="1829.0" x2="1861.0" y1="2445.0" y2="2573.0" /><line stroke="#999" stroke-width="3" x1="1605.0" x2="1637.0" y1="2573.0" y2="2445.0" /><line stroke="#999" stroke-width="3" x1="1221.0" x2="1093.0" y1="2029.0" y2="2061.0" /><line stroke="#999" stroke-width="3" x1="1093.0" x2="1221.0" y1="1805.0" y2="1837.0" /><line stroke="#999" stroke-width="3" x1="1637.0" x2="1605.0" y1="1421.0" y2="1293.0" /><line stroke="#999" stroke-width="3" x1="2365.0" x2="2501.0" y1="1805.0" y2="1805.0" /><line stroke="#999" stroke-width="3" x1="2501.0" x2="2365.0" y1="2061.0" y2="2061.0" /><line stroke="#999" stroke-width="3" x1="1093.0" x2="965.0" y1="2061.0" y2="2061.0" /><line stroke="#999" stroke-width="3" x1="965.0" x2="1093.0" y1="1805.0" y2="1805.0" /><line stroke="#333" stroke-width="10" x1="2565.0" x2="2565.0" y1="2061.0" y2="2765.0" /><line stroke="#333" stroke-width="10" x1="2565.0" x2="901.0" y1="2765.0" y2="2765.0" /><line stroke="#333" stroke-width="10" x1="901.0" x2="901.0" y1="2765.0" y2="2061.0" /><line stroke="#999" stroke-width="3" x1="901.0" x2="901.0" y1="2061.0" y2="1805.0" /><line stroke="#333" stroke-width="10" x1="901.0" x2="901.0" y1="1805.0" y2="1101.0" /><line stroke="#333" stroke-width="10" x1="901.0" x2="2565.0" y1="1101.0" y2="1101.0" /><line stroke="#333" stroke-width="10" x1="2565.0" x2="2565.0" y1="1101.0" y2="1805.0" /><line stroke="#999" stroke-width="3" x1="2565.0" x2="2565.0" y1="1805.0" y2="2061.0" /><line stroke="#999" stroke-width="3" x1="2821.0" x2="2821.0" y1="845.0" y2="3021.0" /><line stroke="#999" stroke-width="3" x1="1669.0" x2="645.0" y1="3021.0" y2="3021.0" /><line stroke="#999" stroke-width="3" x1="645.0" x2="645.0" y1="3021.0" y2="845.0" /><line stroke="#999" stroke-width="3" x1="645.0" x2="2821.0" y1="845.0" y2="845.0" /><line stroke="#333" stroke-width="10" x1="2565.0" x2="2501.0" y1="1805.0" y2="1805.0" /><line stroke="#333" stroke-width="10" x1="2501.0" x2="2565.0" y1="2061.0" y2="2061.0" /><line stroke="#333" stroke-width="10" x1="901.0" x2="965.0" y1="2061.0" y2="2061.0" /><line stroke="#333" stroke-width="10" x1="965.0" x2="901.0" y1="1805.0" y2="1805.0" /><line stroke="#333" stroke-width="10" x1="69.0" x2="1669.0" y1="3597.0" y2="3597.0" /><line stroke="#333" stroke-width="10" x1="3397.0" x2="3397.0" y1="3597.0" y2="2765.0" /><line stroke="#333" stroke-width="10" x1="69.0" x2="69.0" y1="269.0" y2="1101.0" /><line stroke="#999" stroke-width="3" x1="1797.0" x2="1797.0" y1="3021.0" y2="3597.0" /><line stroke="#333" stroke-width="10" x1="1669.0" x2="1701.0" y1="3597.0" y2="3597.0" /><line stroke="#999" stroke-width="3" x1="1669.0" x2="1669.0" y1="3597.0" y2="3021.0" /><line stroke="#999" stroke-width="3" x1="2821.0" x2="1797.0" y1="3021.0" y2="3021.0" /><line stroke="#333" stroke-width="10" x1="1861.0" x2="1989.0" y1="4077.0" y2="3861.0" /><line stroke="#333" stroke-width="10" x1="1605.0" x2="1669.0" y1="4077.0" y2="4077.0" /><line stroke="#333" stroke-width="10" x1="1477.0" x2="1605.0" y1="3861.0" y2="4077.0" /><line stroke="#333" stroke-width="10" x1="1605.0" x2="1477.0" y1="3645.0" y2="3861.0" /><line stroke="#333" stroke-width="10" x1="1861.0" x2="1765.0" y1="3645.0" y2="3645.0" /><line stroke="#333" stroke-width="10" x1="1989.0" x2="1861.0" y1="3861.0" y2="3645.0" /><line stroke="#666" stroke-width="20" x1="1765.0" x2="1701.0" y1="3629.0" y2="3629.0" /><line stroke="#333" stroke-width="10" x1="1765.0" x2="1765.0" y1="3629.0" y2="3621.0" /><line stroke="#d00" stroke-width="20" x1="1701.0" x2="1765.0" y1="3621.0" y2="3621.0" /><line stroke="#333" stroke-width="10" x1="1701.0" x2="1701.0" y1="3621.0" y2="3629.0" /><line stroke="#333" stroke-width="10" x1="1765.0" x2="1765.0" y1="3621.0" y2="3597.0" /><line stroke="#999" stroke-width="3" x1="1701.0" x2="1765.0" y1="3597.0" y2="3597.0" /><line stroke="#333" stroke-width="10" x1="1701.0" x2="1701.0" y1="3597.0" y2="3621.0" /><line stroke="#333" stroke-width="10" x1="1765.0" x2="1797.0" y1="3597.0" y2="3597.0" /><line stroke="#333" stroke-width="10" x1="1797.0" x2="3397.0" y1="3597.0" y2="3597.0" /><line stroke="#333" stroke-width="10" x1="1701.0" x2="1701.0" y1="3629.0" y2="3645.0" /><line stroke="#333" stroke-width="10" x1="1669.0" x2="1717.0" y1="4077.0" y2="4077.0" /><line stroke="#0d0" stroke-width="20" x1="1669.0" x2="1669.0" y1="4077.0" y2="3949.0" /><line stroke="#0d0" stroke-width="20" x1="1669.0" x2="1797.0" y1="3949.0" y2="3949.0" /><line stroke="#0d0" stroke-width="20" x1="1797.0" x2="1797.0" y1="3949.0" y2="4077.0" /><line stroke="#333" stroke-width="10" x1="1765.0" x2="1765.0" y1="3645.0" y2="3629.0" /><line stroke="#333" stroke-width="10" x1="1701.0" x2="1605.0" y1="3645.0" y2="3645.0" /><line stroke="#999" stroke-width="3" x1="1765.0" x2="1701.0" y1="3645.0" y2="3645.0" /><line stroke="#333" stroke-width="10" x1="1797.0" x2="1861.0" y1="4077.0" y2="4077.0" /><line stroke="#666" stroke-width="20" x1="1861.0" x2="1861.0" y1="3885.0" y2="4077.0" /><line stroke="#666" stroke-width="20" x1="1605.0" x2="1861.0" y1="3885.0" y2="3885.0" /><line stroke="#666" stroke-width="20" x1="1605.0" x2="1605.0" y1="4077.0" y2="3885.0" /><line stroke="#00d" stroke-width="20" x1="3141.0" x2="3077.0" y1="3341.0" y2="3341.0" /><line stroke="#00d" stroke-width="20" x1="3141.0" x2="3141.0" y1="3277.0" y2="3341.0" /><line stroke="#00d" stroke-width="20" x1="3077.0" x2="3141.0" y1="3277.0" y2="3277.0" /><line stroke="#00d" stroke-width="20" x1="3077.0" x2="3077.0" y1="3341.0" y2="3277.0" /><line stroke="#00d" stroke-width="20" x1="325.0" x2="325.0" y1="3341.0" y2="3277.0" /><line stroke="#00d" stroke-width="20" x1="325.0" x2="389.0" y1="3277.0" y2="3277.0" /><line stroke="#00d" stroke-width="20" x1="389.0" x2="389.0" y1="3277.0" y2="3341.0" /><line stroke="#00d" stroke-width="20" x1="389.0" x2="325.0" y1="3341.0" y2="3341.0" /><line stroke="#00d" stroke-width="20" x1="325.0" x2="325.0" y1="589.0" y2="525.0" /><line stroke="#00d" stroke-width="20" x1="325.0" x2="389.0" y1="525.0" y2="525.0" /><line stroke="#00d" stroke-width="20" x1="389.0" x2="389.0" y1="525.0" y2="589.0" /><line stroke="#00d" stroke-width="20" x1="389.0" x2="325.0" y1="589.0" y2="589.0" /><line stroke="#00d" stroke-width="20" x1="3077.0" x2="3077.0" y1="589.0" y2="525.0" /><line stroke="#00d" stroke-width="20" x1="3077.0" x2="3141.0" y1="525.0" y2="525.0" /><line stroke="#00d" stroke-width="20" x1="3141.0" x2="3141.0" y1="525.0" y2="589.0" /><line stroke="#00d" stroke-width="20" x1="3141.0" x2="3077.0" y1="589.0" y2="589.0" /><line stroke="#333" stroke-width="10" x1="3397.0" x2="3461.0" y1="2765.0" y2="2765.0" /><line stroke="#333" stroke-width="10" x1="3461.0" x2="3461.0" y1="2765.0" y2="1101.0" /><line stroke="#333" stroke-width="10" x1="3461.0" x2="3397.0" y1="1101.0" y2="1101.0" /><line stroke="#999" stroke-width="3" x1="3397.0" x2="3397.0" y1="2765.0" y2="1101.0" /><line stroke="#333" stroke-width="10" x1="5.0" x2="69.0" y1="2765.0" y2="2765.0" /><line stroke="#999" stroke-width="3" x1="69.0" x2="69.0" y1="1101.0" y2="2765.0" /><line stroke="#333" stroke-width="10" x1="69.0" x2="5.0" y1="1101.0" y2="1101.0" /><line stroke="#333" stroke-width="10" x1="5.0" x2="5.0" y1="1101.0" y2="2765.0" /><line stroke="#999" stroke-width="3" x1="2565.0" x2="901.0" y1="269.0" y2="269.0" /><line stroke="#333" stroke-width="10" x1="2565.0" x2="2565.0" y1="269.0" y2="205.0" /><line stroke="#333" stroke-width="10" x1="2565.0" x2="901.0" y1="205.0" y2="205.0" /><line stroke="#333" stroke-width="10" x1="901.0" x2="901.0" y1="205.0" y2="269.0" /><line stroke="#333" stroke-width="10" x1="3397.0" x2="3397.0" y1="1101.0" y2="269.0" /><line stroke="#333" stroke-width="10" x1="901.0" x2="133.0" y1="269.0" y2="269.0" /><line stroke="#333" stroke-width="10" x1="69.0" x2="69.0" y1="2765.0" y2="3597.0" /><line stroke="#666" stroke-width="20" x1="69.0" x2="133.0" y1="261.0" y2="261.0" /><line stroke="#333" stroke-width="10" x1="69.0" x2="69.0" y1="5.0" y2="261.0" /><line stroke="#333" stroke-width="10" x1="133.0" x2="133.0" y1="261.0" y2="5.0" /><line stroke="#999" stroke-width="3" x1="133.0" x2="69.0" y1="269.0" y2="269.0" /><line stroke="#333" stroke-width="10" x1="133.0" x2="133.0" y1="269.0" y2="261.0" /><line stroke="#333" stroke-width="10" x1="69.0" x2="69.0" y1="261.0" y2="269.0" /><line stroke="#333" stroke-width="10" x1="3397.0" x2="2565.0" y1="269.0" y2="269.0" /><line stroke="#0d0" stroke-width="20" x1="133.0" x2="69.0" y1="5.0" y2="5.0" /><line stroke="#999" stroke-width="3" x1="1973.0" x2="1989.0" y1="2005.0" y2="1941.0" /><line stroke="#999" stroke-width="3" x1="1949.0" x2="1973.0" y1="2069.0" y2="2005.0" /><line stroke="#999" stroke-width="3" x1="1909.0" x2="1949.0" y1="2117.0" y2="2069.0" /><line stroke="#999" stroke-width="3" x1="1861.0" x2="1909.0" y1="2157.0" y2="2117.0" /><line stroke="#999" stroke-width="3" x1="1797.0" x2="1861.0" y1="2181.0" y2="2157.0" /><line stroke="#999" stroke-width="3" x1="1733.0" x2="1797.0" y1="2189.0" y2="2181.0" /><line stroke="#999" stroke-width="3" x1="1661.0" x2="1733.0" y1="2181.0" y2="2189.0" /><line stroke="#999" stroke-width="3" x1="1605.0" x2="1661.0" y1="2157.0" y2="2181.0" /><line stroke="#999" stroke-width="3" x1="1549.0" x2="1605.0" y1="2117.0" y2="2157.0" /><line stroke="#999" stroke-width="3" x1="1509.0" x2="1549.0" y1="2061.0" y2="2117.0" /><line stroke="#999" stroke-width="3" x1="1485.0" x2="1509.0" y1="2005.0" y2="2061.0" /><line stroke="#999" stroke-width="3" x1="1477.0" x2="1485.0" y1="1941.0" y2="2005.0" /><line stroke="#999" stroke-width="3" x1="1485.0" x2="1477.0" y1="1869.0" y2="1941.0" /><line stroke="#999" stroke-width="3" x1="1509.0" x2="1485.0" y1="1813.0" y2="1869.0" /><line stroke="#999" stroke-width="3" x1="1549.0" x2="1509.0" y1="1757.0" y2="1813.0" /><line stroke="#999" stroke-width="3" x1="1605.0" x2="1549.0" y1="1717.0" y2="1757.0" /><line stroke="#999" stroke-width="3" x1="1661.0" x2="1605.0" y1="1693.0" y2="1717.0" /><line stroke="#999" stroke-width="3" x1="1733.0" x2="1661.0" y1="1685.0" y2="1693.0" /><line stroke="#999" stroke-width="3" x1="1797.0" x2="1733.0" y1="1693.0" y2="1685.0" /><line stroke="#999" stroke-width="3" x1="1853.0" x2="1797.0" y1="1717.0" y2="1693.0" /><line stroke="#999" stroke-width="3" x1="1909.0" x2="1853.0" y1="1757.0" y2="1717.0" /><line stroke="#999" stroke-width="3" x1="1949.0" x2="1909.0" y1="1813.0" y2="1757.0" /><line stroke="#999" stroke-width="3" x1="1973.0" x2="1949.0" y1="1869.0" y2="1813.0" /><line stroke="#999" stroke-width="3" x1="1989.0" x2="1973.0" y1="1941.0" y2="1869.0" /><line stroke="#999" stroke-width="3" x1="1797.0" x2="1669.0" y1="3021.0" y2="3021.0" /><line stroke="#333" stroke-width="10" x1="1717.0" x2="1749.0" y1="4085.0" y2="4085.0" /><line stroke="#333" stroke-width="10" x1="1749.0" x2="1749.0" y1="4085.0" y2="4077.0" /><line stroke="#999" stroke-width="3" x1="1717.0" x2="1749.0" y1="4077.0" y2="4077.0" /><line stroke="#333" stroke-width="10" x1="1717.0" x2="1717.0" y1="4077.0" y2="4085.0" /><line stroke="#333" stroke-width="10" x1="1749.0" x2="1797.0" y1="4077.0" y2="4077.0" /><ellipse cx="1861.0" cy="2061.0" fill="#009" rx="12" ry="24" stroke="#009" stroke-width="5" /><ellipse cx="1605.0" cy="2061.0" fill="#009" rx="12" ry="24" stroke="#009" stroke-width="5" /><ellipse cx="1605.0" cy="1805.0" fill="#009" rx="12" ry="24" stroke="#009" stroke-width="5" /><ellipse cx="1861.0" cy="1805.0" fill="#009" rx="12" ry="24" stroke="#009" stroke-width="5" /><rect fill="#090" height="24" stroke="#090" stroke-width="5" transform="rotate(180,2181.0,1933.0)" width="24" x="2169.0" y="1921.0" /><rect fill="#090" height="24" stroke="#090" stroke-width="5" transform="rotate(0,1285.0,1933.0)" width="24" x="1273.0" y="1921.0" /><rect fill="#090" height="24" stroke="#090" stroke-width="5" transform="rotate(270,1733.0,2381.0)" width="24" x="1721.0" y="2369.0" /><rect fill="#090" height="24" stroke="#090" stroke-width="5" transform="rotate(90,1733.0,1485.0)" width="24" x="1721.0" y="1473.0" /><ellipse cx="1733.0" cy="973.0" fill="#090" rx="12" ry="24" stroke="#090" stroke-width="5" /><ellipse cx="2421.0" cy="1773.0" fill="#090" rx="12" ry="24" stroke="#090" stroke-width="5" /><ellipse cx="1045.0" cy="2093.0" fill="#090" rx="12" ry="24" stroke="#090" stroke-width="5" /><rect fill="#009" height="24" stroke="#009" stroke-width="5" transform="rotate(90,1733.0,1933.0)" width="24" x="1721.0" y="1921.0" /><rect fill="#090" height="24" stroke="#090" stroke-width="5" transform="rotate(0,1645.0,4061.0)" width="24" x="1633.0" y="4049.0" /><rect fill="#090" height="24" stroke="#090" stroke-width="5" transform="rotate(0,1685.0,3213.0)" width="24" x="1673.0" y="3201.0" /><rect fill="#090" height="24" stroke="#090" stroke-width="5" transform="rotate(0,1781.0,3213.0)" width="24" x="1769.0" y="3201.0" /><rect fill="#090" height="24" stroke="#090" stroke-width="5" transform="rotate(0,1685.0,3037.0)" width="24" x="1673.0" y="3025.0" /><rect fill="#090" height="24" stroke="#090" stroke-width="5" transform="rotate(0,1781.0,3037.0)" width="24" x="1769.0" y="3025.0" /><rect fill="#090" height="24" stroke="#090" stroke-width="5" transform="rotate(0,1781.0,3581.0)" width="24" x="1769.0" y="3569.0" /><rect fill="#090" height="24" stroke="#090" stroke-width="5" transform="rotate(0,1685.0,3581.0)" width="24" x="1673.0" y="3569.0" /><rect fill="#090" height="24" stroke="#090" stroke-width="5" transform="rotate(0,1685.0,3405.0)" width="24" x="1673.0" y="3393.0" /><rect fill="#090" height="24" stroke="#090" stroke-width="5" transform="rotate(0,1781.0,3405.0)" width="24" x="1769.0" y="3393.0" /><rect fill="#090" height="24" stroke="#090" stroke-width="5" transform="rotate(0,1645.0,4013.0)" width="24" x="1633.0" y="4001.0" /><rect fill="#090" height="24" stroke="#090" stroke-width="5" transform="rotate(0,1645.0,3965.0)" width="24" x="1633.0" y="3953.0" /><rect fill="#090" height="24" stroke="#090" stroke-width="5" transform="rotate(0,1685.0,3925.0)" width="24" x="1673.0" y="3913.0" /><rect fill="#090" height="24" stroke="#090" stroke-width="5" transform="rotate(0,1733.0,3925.0)" width="24" x="1721.0" y="3913.0" /><rect fill="#090" height="24" stroke="#090" stroke-width="5" transform="rotate(0,1781.0,3925.0)" width="24" x="1769.0" y="3913.0" /><rect fill="#090" height="24" stroke="#090" stroke-width="5" transform="rotate(0,1821.0,3965.0)" width="24" x="1809.0" y="3953.0" /><rect fill="#090" height="24" stroke="#090" stroke-width="5" transform="rotate(0,1821.0,4013.0)" width="24" x="1809.0" y="4001.0" /><rect fill="#090" height="24" stroke="#090" stroke-width="5" transform="rotate(0,1821.0,4061.0)" width="24" x="1809.0" y="4049.0" /><rect fill="#900" height="48" stroke="#900" stroke-width="5" transform="rotate(270,1733.0,3677.0)" width="32" x="1717.0" y="3653.0" /><rect fill="#090" height="24" stroke="#090" stroke-width="5" transform="rotate(225,2053.0,2253.0)" width="24" x="2041.0" y="2241.0" /><rect fill="#090" height="24" stroke="#090" stroke-width="5" transform="rotate(315,1413.0,2253.0)" width="24" x="1401.0" y="2241.0" /><rect fill="#090" height="24" stroke="#090" stroke-width="5" transform="rotate(135,2053.0,1613.0)" width="24" x="2041.0" y="1601.0" /><rect fill="#090" height="24" stroke="#090" stroke-width="5" transform="rotate(45,1413.0,1613.0)" width="24" x="1401.0" y="1601.0" /><rect fill="#090" height="24" stroke="#090" stroke-width="5" transform="rotate(0,1965.0,3861.0)" width="24" x="1953.0" y="3849.0" /><rect fill="#090" height="24" stroke="#090" stroke-width="5" transform="rotate(0,1501.0,3861.0)" width="24" x="1489.0" y="3849.0" /><ellipse cx="773.0" cy="2893.0" fill="#900" rx="12" ry="24" stroke="#900" stroke-width="5" /><ellipse cx="2693.0" cy="2893.0" fill="#900" rx="12" ry="24" stroke="#900" stroke-width="5" /><rect fill="#090" height="24" stroke="#090" stroke-width="5" transform="rotate(0,2805.0,861.0)" width="24" x="2793.0" y="849.0" /><rect fill="#090" height="24" stroke="#090" stroke-width="5" transform="rotate(0,661.0,861.0)" width="24" x="649.0" y="849.0" /><rect fill="#090" height="24" stroke="#090" stroke-width="5" transform="rotate(0,2805.0,3005.0)" width="24" x="2793.0" y="2993.0" /><rect fill="#090" height="24" stroke="#090" stroke-width="5" transform="rotate(0,661.0,3005.0)" width="24" x="649.0" y="2993.0" /><circle cx="2149.0" cy="1741.0" fill="#900" r="16" stroke="#900" stroke-width="5" /><circle cx="2421.0" cy="2093.0" fill="#900" r="16" stroke="#900" stroke-width="5" /><circle cx="1045.0" cy="1773.0" fill="#900" r="16" stroke="#900" stroke-width="5" /><circle cx="1317.0" cy="2125.0" fill="#900" r="16" stroke="#900" stroke-width="5" /><circle cx="1925.0" cy="2349.0" fill="#900" r="16" stroke="#900" stroke-width="5" /><circle cx="1541.0" cy="2349.0" fill="#090" r="16" stroke="#090" stroke-width="5" /><rect fill="#900" height="48" stroke="#900" stroke-width="5" transform="rotate(135,2213.0,1421.0)" width="32" x="2197.0" y="1397.0" /><circle cx="1925.0" cy="1517.0" fill="#090" r="16" stroke="#090" stroke-width="5" /><circle cx="1317.0" cy="1741.0" fill="#090" r="16" stroke="#090" stroke-width="5" /><rect fill="#900" height="48" stroke="#900" stroke-width="5" transform="rotate(90,1733.0,1229.0)" width="32" x="1717.0" y="1205.0" /><circle cx="1541.0" cy="1517.0" fill="#900" r="16" stroke="#900" stroke-width="5" /><circle cx="2149.0" cy="2125.0" fill="#090" r="16" stroke="#090" stroke-width="5" /><rect fill="#900" height="48" stroke="#900" stroke-width="5" transform="rotate(45,1253.0,1421.0)" width="32" x="1237.0" y="1397.0" /><rect fill="#900" height="48" stroke="#900" stroke-width="5" transform="rotate(225,2213.0,2445.0)" width="32" x="2197.0" y="2421.0" /><rect fill="#900" height="48" stroke="#900" stroke-width="5" transform="rotate(270,1733.0,2637.0)" width="32" x="1717.0" y="2613.0" /><rect fill="#900" height="48" stroke="#900" stroke-width="5" transform="rotate(315,1253.0,2445.0)" width="32" x="1237.0" y="2421.0" /><rect fill="#900" height="48" stroke="#900" stroke-width="5" transform="rotate(225,2373.0,2205.0)" width="32" x="2357.0" y="2181.0" /><rect fill="#900" height="48" stroke="#900" stroke-width="5" transform="rotate(270,1989.0,2605.0)" width="32" x="1973.0" y="2581.0" /><rect fill="#900" height="48" stroke="#900" stroke-width="5" transform="rotate(270,1477.0,2605.0)" width="32" x="1461.0" y="2581.0" /><rect fill="#900" height="48" stroke="#900" stroke-width="5" transform="rotate(315,1093.0,2205.0)" width="32" x="1077.0" y="2181.0" /><rect fill="#900" height="48" stroke="#900" stroke-width="5" transform="rotate(45,1093.0,1661.0)" width="32" x="1077.0" y="1637.0" /><rect fill="#900" height="48" stroke="#900" stroke-width="5" transform="rotate(90,1477.0,1261.0)" width="32" x="1461.0" y="1237.0" /><rect fill="#900" height="48" stroke="#900" stroke-width="5" transform="rotate(90,1989.0,1261.0)" width="32" x="1973.0" y="1237.0" /><rect fill="#900" height="48" stroke="#900" stroke-width="5" transform="rotate(135,2373.0,1661.0)" width="32" x="2357.0" y="1637.0" /><rect fill="#900" height="48" stroke="#900" stroke-width="5" transform="rotate(225,2213.0,2253.0)" width="32" x="2197.0" y="2229.0" /><rect fill="#900" height="48" stroke="#900" stroke-width="5" transform="rotate(135,2213.0,1613.0)" width="32" x="2197.0" y="1589.0" /><rect fill="#900" height="48" stroke="#900" stroke-width="5" transform="rotate(180,2437.0,1933.0)" width="32" x="2421.0" y="1909.0" /><rect fill="#900" height="48" stroke="#900" stroke-width="5" transform="rotate(45,1253.0,1613.0)" width="32" x="1237.0" y="1589.0" /><rect fill="#900" height="48" stroke="#900" stroke-width="5" transform="rotate(0,1029.0,1933.0)" width="32" x="1013.0" y="1909.0" /><rect fill="#900" height="48" stroke="#900" stroke-width="5" transform="rotate(315,1253.0,2253.0)" width="32" x="1237.0" y="2229.0" /><circle cx="2309.0" cy="1549.0" fill="#009" r="16" stroke="#009" stroke-width="5" /><circle cx="2117.0" cy="1325.0" fill="#090" r="16" stroke="#090" stroke-width="5" /><circle cx="1861.0" cy="1229.0" fill="#009" r="16" stroke="#009" stroke-width="5" /><circle cx="1605.0" cy="1229.0" fill="#009" r="16" stroke="#009" stroke-width="5" /><circle cx="1349.0" cy="1325.0" fill="#090" r="16" stroke="#090" stroke-width="5" /><circle cx="1157.0" cy="1549.0" fill="#009" r="16" stroke="#009" stroke-width="5" /><circle cx="2309.0" cy="2317.0" fill="#009" r="16" stroke="#009" stroke-width="5" /><circle cx="2117.0" cy="2541.0" fill="#090" r="16" stroke="#090" stroke-width="5" /><circle cx="1861.0" cy="2637.0" fill="#009" r="16" stroke="#009" stroke-width="5" /><circle cx="1605.0" cy="2637.0" fill="#009" r="16" stroke="#009" stroke-width="5" /><circle cx="1349.0" cy="2541.0" fill="#090" r="16" stroke="#090" stroke-width="5" /><circle cx="1157.0" cy="2317.0" fill="#009" r="16" stroke="#009" stroke-width="5" /><rect fill="#900" height="48" stroke="#900" stroke-width="5" transform="rotate(315,1413.0,2413.0)" width="32" x="1397.0" y="2389.0" /><rect fill="#900" height="48" stroke="#900" stroke-width="5" transform="rotate(45,1413.0,1453.0)" width="32" x="1397.0" y="1429.0" /><rect fill="#900" height="48" stroke="#900" stroke-width="5" transform="rotate(135,2053.0,1453.0)" width="32" x="2037.0" y="1429.0" /><rect fill="#900" height="48" stroke="#900" stroke-width="5" transform="rotate(225,2053.0,2413.0)" width="32" x="2037.0" y="2389.0" /><circle cx="1413.0" cy="1933.0" fill="#009" r="16" stroke="#009" stroke-width="5" /><circle cx="1733.0" cy="2253.0" fill="#009" r="16" stroke="#009" stroke-width="5" /><circle cx="2053.0" cy="1933.0" fill="#009" r="16" stroke="#009" stroke-width="5" /><circle cx="1733.0" cy="1613.0" fill="#009" r="16" stroke="#009" stroke-width="5" /><circle cx="1989.0" cy="1677.0" fill="#009" r="16" stroke="#009" stroke-width="5" /><circle cx="1477.0" cy="1677.0" fill="#009" r="16" stroke="#009" stroke-width="5" /><circle cx="1477.0" cy="2189.0" fill="#009" r="16" stroke="#009" stroke-width="5" /><circle cx="1989.0" cy="2189.0" fill="#009" r="16" stroke="#009" stroke-width="5" /><ellipse cx="2693.0" cy="2445.0" fill="#900" rx="12" ry="24" stroke="#900" stroke-width="5" /><ellipse cx="773.0" cy="1485.0" fill="#900" rx="12" ry="24" stroke="#900" stroke-width="5" /><ellipse cx="773.0" cy="973.0" fill="#900" rx="12" ry="24" stroke="#900" stroke-width="5" /><rect fill="#900" height="48" stroke="#900" stroke-width="5" transform="rotate(90,2597.0,1293.0)" width="32" x="2581.0" y="1269.0" /><rect fill="#900" height="48" stroke="#900" stroke-width="5" transform="rotate(90,869.0,1293.0)" width="32" x="853.0" y="1269.0" /><ellipse cx="2693.0" cy="973.0" fill="#900" rx="12" ry="24" stroke="#900" stroke-width="5" /><rect fill="#900" height="48" stroke="#900" stroke-width="5" transform="rotate(270,869.0,2573.0)" width="32" x="853.0" y="2549.0" /><rect fill="#090" height="24" stroke="#090" stroke-width="5" transform="rotate(270,2757.0,2957.0)" width="24" x="2745.0" y="2945.0" /><rect fill="#090" height="24" stroke="#090" stroke-width="5" transform="rotate(270,709.0,2957.0)" width="24" x="697.0" y="2945.0" /><rect fill="#090" height="24" stroke="#090" stroke-width="5" transform="rotate(90,709.0,909.0)" width="24" x="697.0" y="897.0" /><ellipse cx="1221.0" cy="973.0" fill="#900" rx="12" ry="24" stroke="#900" stroke-width="5" /><rect fill="#090" height="24" stroke="#090" stroke-width="5" transform="rotate(270,1733.0,3533.0)" width="24" x="1721.0" y="3521.0" /><ellipse cx="2693.0" cy="1421.0" fill="#900" rx="12" ry="24" stroke="#900" stroke-width="5" /><rect fill="#090" height="24" stroke="#090" stroke-width="5" transform="rotate(90,2757.0,909.0)" width="24" x="2745.0" y="897.0" /><ellipse cx="2245.0" cy="973.0" fill="#900" rx="12" ry="24" stroke="#900" stroke-width="5" /><ellipse cx="773.0" cy="2445.0" fill="#900" rx="12" ry="24" stroke="#900" stroke-width="5" /><ellipse cx="1221.0" cy="2893.0" fill="#900" rx="12" ry="24" stroke="#900" stroke-width="5" /><ellipse cx="2245.0" cy="2893.0" fill="#900" rx="12" ry="24" stroke="#900" stroke-width="5" /><ellipse cx="1733.0" cy="2893.0" fill="#900" rx="12" ry="24" stroke="#900" stroke-width="5" /><circle cx="2293.0" cy="1933.0" fill="#009" r="16" stroke="#009" stroke-width="5" /><circle cx="1157.0" cy="1933.0" fill="#009" r="16" stroke="#009" stroke-width="5" /><rect fill="#900" height="48" stroke="#900" stroke-width="5" transform="rotate(270,2597.0,2573.0)" width="32" x="2581.0" y="2549.0" /><rect fill="#900" height="48" stroke="#900" stroke-width="5" transform="rotate(180,1093.0,2797.0)" width="32" x="1077.0" y="2773.0" /><rect fill="#900" height="48" stroke="#900" stroke-width="5" transform="rotate(0,2373.0,2797.0)" width="32" x="2357.0" y="2773.0" /><rect fill="#900" height="48" stroke="#900" stroke-width="5" transform="rotate(0,2373.0,1069.0)" width="32" x="2357.0" y="1045.0" /><rect fill="#900" height="48" stroke="#900" stroke-width="5" transform="rotate(180,1093.0,1069.0)" width="32" x="1077.0" y="1045.0" /><rect fill="#900" height="48" stroke="#900" stroke-width="5" transform="rotate(180,3429.0,1933.0)" width="32" x="3413.0" y="1909.0" /><rect fill="#900" height="48" stroke="#900" stroke-width="5" transform="rotate(180,3429.0,1549.0)" width="32" x="3413.0" y="1525.0" /><rect fill="#900" height="48" stroke="#900" stroke-width="5" transform="rotate(180,3429.0,1165.0)" width="32" x="3413.0" y="1141.0" /><rect fill="#900" height="48" stroke="#900" stroke-width="5" transform="rotate(180,3429.0,2701.0)" width="32" x="3413.0" y="2677.0" /><rect fill="#900" height="48" stroke="#900" stroke-width="5" transform="rotate(180,3429.0,2317.0)" width="32" x="3413.0" y="2293.0" /><circle cx="1829.0" cy="3053.0" fill="#009" r="16" stroke="#009" stroke-width="5" /><circle cx="1637.0" cy="3053.0" fill="#009" r="16" stroke="#009" stroke-width="5" /><rect fill="#900" height="48" stroke="#900" stroke-width="5" transform="rotate(0,37.0,2317.0)" width="32" x="21.0" y="2293.0" /><rect fill="#900" height="48" stroke="#900" stroke-width="5" transform="rotate(0,37.0,2701.0)" width="32" x="21.0" y="2677.0" /><rect fill="#900" height="48" stroke="#900" stroke-width="5" transform="rotate(0,37.0,1165.0)" width="32" x="21.0" y="1141.0" /><rect fill="#900" height="48" stroke="#900" stroke-width="5" transform="rotate(0,37.0,1549.0)" width="32" x="21.0" y="1525.0" /><rect fill="#900" height="48" stroke="#900" stroke-width="5" transform="rotate(0,37.0,1933.0)" width="32" x="21.0" y="1909.0" /><rect fill="#900" height="48" stroke="#900" stroke-width="5" transform="rotate(90,1733.0,237.0)" width="32" x="1717.0" y="213.0" /><rect fill="#900" height="48" stroke="#900" stroke-width="5" transform="rotate(90,2117.0,237.0)" width="32" x="2101.0" y="213.0" /><rect fill="#900" height="48" stroke="#900" stroke-width="5" transform="rotate(90,2501.0,237.0)" width="32" x="2485.0" y="213.0" /><rect fill="#900" height="48" stroke="#900" stroke-width="5" transform="rotate(90,966.0,237.0)" width="32" x="950.0" y="213.0" /><rect fill="#900" height="48" stroke="#900" stroke-width="5" transform="rotate(90,1350.0,237.0)" width="32" x="1334.0" y="213.0" /><circle cx="1733.0" cy="3837.0" fill="#009" r="16" stroke="#009" stroke-width="5" /><circle cx="101.0" cy="45.0" fill="#009" r="16" stroke="#009" stroke-width="5" /><circle cx="1733.0" cy="3853.0" fill="#009" r="16" stroke="#009" stroke-width="5" /><rect fill="#900" height="48" stroke="#900" stroke-width="5" transform="rotate(270,1701.0,3757.0)" width="32" x="1685.0" y="3733.0" /><rect fill="#900" height="48" stroke="#900" stroke-width="5" transform="rotate(270,1765.0,3757.0)" width="32" x="1749.0" y="3733.0" /><rect fill="#900" height="48" stroke="#900" stroke-width="5" transform="rotate(270,1701.0,3693.0)" width="32" x="1685.0" y="3669.0" /><rect fill="#900" height="48" stroke="#900" stroke-width="5" transform="rotate(270,1765.0,3693.0)" width="32" x="1749.0" y="3669.0" /><rect fill="#090" height="24" stroke="#090" stroke-width="5" transform="rotate(0,2805.0,2317.0)" width="24" x="2793.0" y="2305.0" /><rect fill="#090" height="24" stroke="#090" stroke-width="5" transform="rotate(0,661.0,1549.0)" width="24" x="649.0" y="1537.0" /><rect fill="#090" height="24" stroke="#090" stroke-width="5" transform="rotate(0,2805.0,1550.0)" width="24" x="2793.0" y="1538.0" /><rect fill="#090" height="24" stroke="#090" stroke-width="5" transform="rotate(0,1349.0,861.0)" width="24" x="1337.0" y="849.0" /><rect fill="#090" height="24" stroke="#090" stroke-width="5" transform="rotate(0,2117.0,861.0)" width="24" x="2105.0" y="849.0" /><rect fill="#090" height="24" stroke="#090" stroke-width="5" transform="rotate(0,661.0,2317.0)" width="24" x="649.0" y="2305.0" /><rect fill="#090" height="24" stroke="#090" stroke-width="5" transform="rotate(0,2805.0,1933.0)" width="24" x="2793.0" y="1921.0" /><rect fill="#090" height="24" stroke="#090" stroke-width="5" transform="rotate(0,1733.0,861.0)" width="24" x="1721.0" y="849.0" /><rect fill="#090" height="24" stroke="#090" stroke-width="5" transform="rotate(0,661.0,1933.0)" width="24" x="649.0" y="1921.0" /><rect fill="#090" height="24" stroke="#090" stroke-width="5" transform="rotate(0,2117.0,3005.0)" width="24" x="2105.0" y="2993.0" /><rect fill="#090" height="24" stroke="#090" stroke-width="5" transform="rotate(0,1349.0,3005.0)" width="24" x="1337.0" y="2993.0" /><rect fill="#090" height="24" stroke="#090" stroke-width="5" transform="rotate(0,101.0,301.0)" width="24" x="89.0" y="289.0" /></svg>