<?xml version="1.0" encoding="utf-8" ?>
<svg baseProfile="tiny" height="1024" version="1.2" viewBox="0 0 1346 2226" width="619" xmlns="http://www.w3.org/2000/svg" xmlns:ev="http://www.w3.org/2001/xml-events" xmlns:xlink="http://www.w3.org/1999/xlink"><defs /><line stroke="#333" stroke-width="10" x1="965.0" x2="965.0" y1="773.0" y2="517.0" /><line stroke="#333" stroke-width="10" x1="965.0" x2="837.0" y1="517.0" y2="517.0" /><line stroke="#333" stroke-width="10" x1="645.0" x2="645.0" y1="517.0" y2="773.0" /><line stroke="#333" stroke-width="10" x1="645.0" x2="773.0" y1="773.0" y2="773.0" /><line stroke="#333" stroke-width="10" x1="773.0" x2="645.0" y1="517.0" y2="517.0" /><line stroke="#999" stroke-width="3" x1="773.0" x2="773.0" y1="581.0" y2="517.0" /><line stroke="#999" stroke-width="3" x1="837.0" x2="773.0" y1="581.0" y2="581.0" /><line stroke="#999" stroke-width="3" x1="837.0" x2="837.0" y1="517.0" y2="581.0" /><line stroke="#999" stroke-width="3" x1="837.0" x2="773.0" y1="517.0" y2="517.0" /><line stroke="#333" stroke-width="10" x1="773.0" x2="773.0" y1="325.0" y2="517.0" /><line stroke="#333" stroke-width="10" x1="581.0" x2="773.0" y1="325.0" y2="325.0" /><line stroke="#333" stroke-width="10" x1="581.0" x2="581.0" y1="469.0" y2="325.0" /><line stroke="#666" stroke-width="20" x1="517.0" x2="581.0" y1="469.0" y2="469.0" /><line stroke="#333" stroke-width="10" x1="517.0" x2="517.0" y1="325.0" y2="469.0" /><line stroke="#333" stroke-width="10" x1="581.0" x2="517.0" y1="261.0" y2="261.0" /><line stroke="#333" stroke-width="10" x1="837.0" x2="837.0" y1="517.0" y2="261.0" /><line stroke="#999" stroke-width="3" x1="773.0" x2="773.0" y1="261.0" y2="325.0" /><line stroke="#333" stroke-width="10" x1="837.0" x2="773.0" y1="261.0" y2="261.0" /><line stroke="#999" stroke-width="3" x1="581.0" x2="581.0" y1="261.0" y2="325.0" /><line stroke="#333" stroke-width="10" x1="773.0" x2="581.0" y1="261.0" y2="261.0" /><line stroke="#999" stroke-width="3" x1="581.0" x2="517.0" y1="325.0" y2="325.0" /><line stroke="#999" stroke-width="3" x1="517.0" x2="517.0" y1="261.0" y2="325.0" /><line stroke="#333" stroke-width="10" x1="517.0" x2="517.0" y1="469.0" y2="477.0" /><line stroke="#333" stroke-width="10" x1="581.0" x2="581.0" y1="477.0" y2="469.0" /><line stroke="#333" stroke-width="10" x1="517.0" x2="453.0" y1="261.0" y2="261.0" /><line stroke="#999" stroke-width="3" x1="325.0" x2="325.0" y1="261.0" y2="325.0" /><line stroke="#999" stroke-width="3" x1="325.0" x2="453.0" y1="325.0" y2="325.0" /><line stroke="#333" stroke-width="10" x1="453.0" x2="517.0" y1="325.0" y2="325.0" /><line stroke="#999" stroke-width="3" x1="453.0" x2="453.0" y1="325.0" y2="261.0" /><line stroke="#999" stroke-width="3" x1="453.0" x2="325.0" y1="261.0" y2="261.0" /><line stroke="#333" stroke-width="10" x1="453.0" x2="453.0" y1="581.0" y2="325.0" /><line stroke="#333" stroke-width="10" x1="389.0" x2="453.0" y1="581.0" y2="581.0" /><line stroke="#333" stroke-width="10" x1="5.0" x2="5.0" y1="5.0" y2="581.0" /><line stroke="#333" stroke-width="10" x1="453.0" x2="5.0" y1="5.0" y2="5.0" /><line stroke="#333" stroke-width="10" x1="453.0" x2="453.0" y1="261.0" y2="5.0" /><line stroke="#333" stroke-width="10" x1="5.0" x2="69.0" y1="581.0" y2="581.0" /><line stroke="#333" stroke-width="10" x1="69.0" x2="69.0" y1="581.0" y2="837.0" /><line stroke="#333" stroke-width="10" x1="69.0" x2="709.0" y1="901.0" y2="901.0" /><line stroke="#999" stroke-width="3" x1="773.0" x2="773.0" y1="837.0" y2="901.0" /><line stroke="#333" stroke-width="10" x1="773.0" x2="709.0" y1="837.0" y2="837.0" /><line stroke="#333" stroke-width="10" x1="389.0" x2="389.0" y1="837.0" y2="581.0" /><line stroke="#666" stroke-width="20" x1="69.0" x2="389.0" y1="581.0" y2="581.0" /><line stroke="#666" stroke-width="20" x1="389.0" x2="69.0" y1="837.0" y2="837.0" /><line stroke="#333" stroke-width="10" x1="69.0" x2="69.0" y1="837.0" y2="901.0" /><line stroke="#333" stroke-width="10" x1="773.0" x2="773.0" y1="773.0" y2="837.0" /><line stroke="#666" stroke-width="20" x1="773.0" x2="837.0" y1="773.0" y2="773.0" /><line stroke="#333" stroke-width="10" x1="837.0" x2="965.0" y1="773.0" y2="773.0" /><line stroke="#333" stroke-width="10" x1="837.0" x2="837.0" y1="837.0" y2="773.0" /><line stroke="#999" stroke-width="3" x1="773.0" x2="837.0" y1="1029.0" y2="1029.0" /><line stroke="#333" stroke-width="10" x1="773.0" x2="773.0" y1="901.0" y2="1029.0" /><line stroke="#666" stroke-width="20" x1="837.0" x2="773.0" y1="837.0" y2="837.0" /><line stroke="#333" stroke-width="10" x1="837.0" x2="837.0" y1="1029.0" y2="837.0" /><line stroke="#333" stroke-width="10" x1="773.0" x2="773.0" y1="1029.0" y2="1093.0" /><line stroke="#999" stroke-width="3" x1="773.0" x2="837.0" y1="1093.0" y2="1093.0" /><line stroke="#333" stroke-width="10" x1="837.0" x2="837.0" y1="1093.0" y2="1029.0" /><line stroke="#333" stroke-width="10" x1="773.0" x2="773.0" y1="1093.0" y2="1157.0" /><line stroke="#666" stroke-width="20" x1="773.0" x2="837.0" y1="1157.0" y2="1157.0" /><line stroke="#333" stroke-width="10" x1="837.0" x2="837.0" y1="1157.0" y2="1093.0" /><line stroke="#333" stroke-width="10" x1="773.0" x2="773.0" y1="1157.0" y2="1221.0" /><line stroke="#666" stroke-width="20" x1="773.0" x2="837.0" y1="1221.0" y2="1221.0" /><line stroke="#333" stroke-width="10" x1="837.0" x2="837.0" y1="1221.0" y2="1157.0" /><line stroke="#333" stroke-width="10" x1="773.0" x2="741.0" y1="1221.0" y2="1221.0" /><line stroke="#333" stroke-width="10" x1="581.0" x2="581.0" y1="1221.0" y2="1349.0" /><line stroke="#333" stroke-width="10" x1="581.0" x2="741.0" y1="1349.0" y2="1349.0" /><line stroke="#999" stroke-width="3" x1="773.0" x2="773.0" y1="1221.0" y2="1349.0" /><line stroke="#999" stroke-width="3" x1="773.0" x2="837.0" y1="1349.0" y2="1349.0" /><line stroke="#999" stroke-width="3" x1="837.0" x2="837.0" y1="1349.0" y2="1221.0" /><line stroke="#333" stroke-width="10" x1="837.0" x2="861.0" y1="1349.0" y2="1349.0" /><line stroke="#666" stroke-width="20" x1="1029.0" x2="1029.0" y1="1349.0" y2="1285.0" /><line stroke="#333" stroke-width="10" x1="1029.0" x2="861.0" y1="1221.0" y2="1221.0" /><line stroke="#333" stroke-width="10" x1="1029.0" x2="1093.0" y1="1349.0" y2="1349.0" /><line stroke="#333" stroke-width="10" x1="1093.0" x2="1093.0" y1="1349.0" y2="1413.0" /><line stroke="#333" stroke-width="10" x1="1093.0" x2="997.0" y1="1413.0" y2="1413.0" /><line stroke="#333" stroke-width="10" x1="1029.0" x2="1029.0" y1="1285.0" y2="1221.0" /><line stroke="#333" stroke-width="10" x1="1093.0" x2="1029.0" y1="1285.0" y2="1285.0" /><line stroke="#333" stroke-width="10" x1="1157.0" x2="1157.0" y1="1349.0" y2="1285.0" /><line stroke="#999" stroke-width="3" x1="1093.0" x2="1157.0" y1="1413.0" y2="1413.0" /><line stroke="#333" stroke-width="10" x1="1157.0" x2="1157.0" y1="1477.0" y2="1413.0" /><line stroke="#999" stroke-width="3" x1="1093.0" x2="1157.0" y1="1349.0" y2="1349.0" /><line stroke="#333" stroke-width="10" x1="1157.0" x2="1157.0" y1="1413.0" y2="1349.0" /><line stroke="#666" stroke-width="20" x1="773.0" x2="837.0" y1="1605.0" y2="1605.0" /><line stroke="#333" stroke-width="10" x1="773.0" x2="453.0" y1="1605.0" y2="1733.0" /><line stroke="#666" stroke-width="20" x1="1157.0" x2="453.0" y1="1733.0" y2="1733.0" /><line stroke="#333" stroke-width="10" x1="1157.0" x2="837.0" y1="1733.0" y2="1605.0" /><line stroke="#333" stroke-width="10" x1="453.0" x2="453.0" y1="1733.0" y2="1861.0" /><line stroke="#666" stroke-width="20" x1="453.0" x2="501.0" y1="1861.0" y2="1861.0" /><line stroke="#666" stroke-width="20" x1="773.0" x2="837.0" y1="1861.0" y2="1861.0" /><line stroke="#333" stroke-width="10" x1="837.0" x2="1117.0" y1="1861.0" y2="1861.0" /><line stroke="#333" stroke-width="10" x1="1157.0" x2="1157.0" y1="1861.0" y2="1733.0" /><line stroke="#333" stroke-width="10" x1="773.0" x2="773.0" y1="1861.0" y2="1885.0" /><line stroke="#666" stroke-width="20" x1="837.0" x2="773.0" y1="1885.0" y2="1885.0" /><line stroke="#333" stroke-width="10" x1="837.0" x2="837.0" y1="1885.0" y2="1861.0" /><line stroke="#333" stroke-width="10" x1="773.0" x2="773.0" y1="1885.0" y2="1989.0" /><line stroke="#0d0" stroke-width="20" x1="773.0" x2="837.0" y1="1989.0" y2="1989.0" /><line stroke="#333" stroke-width="10" x1="837.0" x2="837.0" y1="1989.0" y2="1885.0" /><line stroke="#666" stroke-width="20" x1="1093.0" x2="1093.0" y1="1285.0" y2="1349.0" /><line stroke="#333" stroke-width="10" x1="1157.0" x2="1093.0" y1="1285.0" y2="1285.0" /><line stroke="#333" stroke-width="10" x1="861.0" x2="1029.0" y1="1349.0" y2="1349.0" /><line stroke="#999" stroke-width="3" x1="861.0" x2="861.0" y1="1221.0" y2="1349.0" /><line stroke="#333" stroke-width="10" x1="861.0" x2="837.0" y1="1221.0" y2="1221.0" /><line stroke="#333" stroke-width="10" x1="741.0" x2="773.0" y1="1349.0" y2="1349.0" /><line stroke="#999" stroke-width="3" x1="741.0" x2="741.0" y1="1349.0" y2="1221.0" /><line stroke="#333" stroke-width="10" x1="741.0" x2="581.0" y1="1221.0" y2="1221.0" /><line stroke="#333" stroke-width="10" x1="709.0" x2="773.0" y1="901.0" y2="901.0" /><line stroke="#999" stroke-width="3" x1="709.0" x2="709.0" y1="901.0" y2="837.0" /><line stroke="#333" stroke-width="10" x1="709.0" x2="389.0" y1="837.0" y2="837.0" /><line stroke="#333" stroke-width="10" x1="997.0" x2="1157.0" y1="1477.0" y2="1477.0" /><line stroke="#999" stroke-width="3" x1="997.0" x2="997.0" y1="1413.0" y2="1477.0" /><line stroke="#333" stroke-width="10" x1="773.0" x2="773.0" y1="1349.0" y2="1413.0" /><line stroke="#999" stroke-width="3" x1="837.0" x2="773.0" y1="1413.0" y2="1413.0" /><line stroke="#333" stroke-width="10" x1="837.0" x2="837.0" y1="1413.0" y2="1349.0" /><line stroke="#333" stroke-width="10" x1="773.0" x2="773.0" y1="1413.0" y2="1605.0" /><line stroke="#333" stroke-width="10" x1="837.0" x2="837.0" y1="1605.0" y2="1477.0" /><line stroke="#333" stroke-width="10" x1="837.0" x2="997.0" y1="1477.0" y2="1477.0" /><line stroke="#999" stroke-width="3" x1="837.0" x2="837.0" y1="1413.0" y2="1477.0" /><line stroke="#333" stroke-width="10" x1="997.0" x2="837.0" y1="1413.0" y2="1413.0" /><line stroke="#333" stroke-width="10" x1="1157.0" x2="1157.0" y1="1997.0" y2="1861.0" /><line stroke="#666" stroke-width="20" x1="1157.0" x2="1117.0" y1="1997.0" y2="1997.0" /><line stroke="#333" stroke-width="10" x1="1117.0" x2="1117.0" y1="1861.0" y2="1997.0" /><line stroke="#666" stroke-width="20" x1="1117.0" x2="1157.0" y1="1861.0" y2="1861.0" /><line stroke="#333" stroke-width="10" x1="453.0" x2="453.0" y1="1861.0" y2="2221.0" /><line stroke="#333" stroke-width="10" x1="453.0" x2="1341.0" y1="2221.0" y2="2221.0" /><line stroke="#333" stroke-width="10" x1="1341.0" x2="1341.0" y1="2221.0" y2="2061.0" /><line stroke="#333" stroke-width="10" x1="1341.0" x2="1157.0" y1="2061.0" y2="2061.0" /><line stroke="#333" stroke-width="10" x1="1157.0" x2="1157.0" y1="2061.0" y2="1997.0" /><line stroke="#333" stroke-width="10" x1="1117.0" x2="1117.0" y1="1997.0" y2="2061.0" /><line stroke="#333" stroke-width="10" x1="1117.0" x2="709.0" y1="2061.0" y2="2061.0" /><line stroke="#333" stroke-width="10" x1="709.0" x2="709.0" y1="2061.0" y2="1861.0" /><line stroke="#333" stroke-width="10" x1="709.0" x2="773.0" y1="1861.0" y2="1861.0" /><line stroke="#666" stroke-width="20" x1="653.0" x2="709.0" y1="1861.0" y2="1861.0" /><line stroke="#333" stroke-width="10" x1="653.0" x2="653.0" y1="1861.0" y2="2109.0" /><line stroke="#333" stroke-width="10" x1="653.0" x2="1293.0" y1="2109.0" y2="2109.0" /><line stroke="#333" stroke-width="10" x1="1293.0" x2="1293.0" y1="2109.0" y2="2173.0" /><line stroke="#333" stroke-width="10" x1="1293.0" x2="501.0" y1="2173.0" y2="2173.0" /><line stroke="#333" stroke-width="10" x1="501.0" x2="501.0" y1="2173.0" y2="1861.0" /><line stroke="#333" stroke-width="10" x1="501.0" x2="653.0" y1="1861.0" y2="1861.0" /><line stroke="#666" stroke-width="20" x1="453.0" x2="501.0" y1="2221.0" y2="2173.0" /><line stroke="#999" stroke-width="3" x1="1341.0" x2="1293.0" y1="2221.0" y2="2173.0" /><line stroke="#999" stroke-width="3" x1="1341.0" x2="1293.0" y1="2061.0" y2="2109.0" /><line stroke="#999" stroke-width="3" x1="1157.0" x2="1117.0" y1="2061.0" y2="2061.0" /><line stroke="#666" stroke-width="20" x1="709.0" x2="653.0" y1="2061.0" y2="2109.0" /><line stroke="#666" stroke-width="20" x1="581.0" x2="517.0" y1="477.0" y2="477.0" /><line stroke="#333" stroke-width="10" x1="517.0" x2="517.0" y1="477.0" y2="501.0" /><line stroke="#333" stroke-width="10" x1="517.0" x2="533.0" y1="501.0" y2="501.0" /><line stroke="#666" stroke-width="20" x1="533.0" x2="565.0" y1="501.0" y2="501.0" /><line stroke="#333" stroke-width="10" x1="565.0" x2="581.0" y1="501.0" y2="501.0" /><line stroke="#333" stroke-width="10" x1="581.0" x2="581.0" y1="501.0" y2="477.0" /><ellipse cx="681.0" cy="545.0" fill="#009" rx="12" ry="24" stroke="#009" stroke-width="5" /><ellipse cx="929.0" cy="545.0" fill="#009" rx="12" ry="24" stroke="#009" stroke-width="5" /><ellipse cx="681.0" cy="745.0" fill="#009" rx="12" ry="24" stroke="#009" stroke-width="5" /><ellipse cx="929.0" cy="745.0" fill="#009" rx="12" ry="24" stroke="#009" stroke-width="5" /><rect fill="#090" height="24" stroke="#090" stroke-width="5" transform="rotate(0,685.0,649.0)" width="24" x="673.0" y="637.0" /><rect fill="#090" height="24" stroke="#090" stroke-width="5" transform="rotate(270,805.0,1001.0)" width="24" x="793.0" y="989.0" /><rect fill="#090" height="24" stroke="#090" stroke-width="5" transform="rotate(0,489.0,1761.0)" width="24" x="477.0" y="1749.0" /><rect fill="#090" height="24" stroke="#090" stroke-width="5" transform="rotate(180,929.0,649.0)" width="24" x="917.0" y="637.0" /><rect fill="#900" height="48" stroke="#900" stroke-width="5" transform="rotate(270,805.0,877.0)" width="32" x="789.0" y="853.0" /><rect fill="#900" height="48" stroke="#900" stroke-width="5" transform="rotate(315,105.0,553.0)" width="32" x="89.0" y="529.0" /><rect fill="#900" height="48" stroke="#900" stroke-width="5" transform="rotate(270,417.0,553.0)" width="32" x="401.0" y="529.0" /><rect fill="#900" height="48" stroke="#900" stroke-width="5" transform="rotate(90,417.0,33.0)" width="32" x="401.0" y="9.0" /><rect fill="#900" height="48" stroke="#900" stroke-width="5" transform="rotate(45,113.0,33.0)" width="32" x="97.0" y="9.0" /><rect fill="#900" height="48" stroke="#900" stroke-width="5" transform="rotate(315,41.0,553.0)" width="32" x="25.0" y="529.0" /><rect fill="#900" height="48" stroke="#900" stroke-width="5" transform="rotate(45,41.0,33.0)" width="32" x="25.0" y="9.0" /><rect fill="#900" height="48" stroke="#900" stroke-width="5" transform="rotate(90,345.0,33.0)" width="32" x="329.0" y="9.0" /><rect fill="#900" height="48" stroke="#900" stroke-width="5" transform="rotate(270,345.0,553.0)" width="32" x="329.0" y="529.0" /><rect fill="#900" height="48" stroke="#900" stroke-width="5" transform="rotate(0,45.0,297.0)" width="32" x="29.0" y="273.0" /><rect fill="#900" height="48" stroke="#900" stroke-width="5" transform="rotate(45,193.0,185.0)" width="32" x="177.0" y="161.0" /><rect fill="#900" height="48" stroke="#900" stroke-width="5" transform="rotate(315,189.0,429.0)" width="32" x="173.0" y="405.0" /><rect fill="#900" height="48" stroke="#900" stroke-width="5" transform="rotate(0,153.0,293.0)" width="32" x="137.0" y="269.0" /><rect fill="#090" height="24" stroke="#090" stroke-width="5" transform="rotate(0,801.0,685.0)" width="24" x="789.0" y="673.0" /><rect fill="#090" height="24" stroke="#090" stroke-width="5" transform="rotate(0,549.0,293.0)" width="24" x="537.0" y="281.0" /><rect fill="#090" height="24" stroke="#090" stroke-width="5" transform="rotate(0,805.0,949.0)" width="24" x="793.0" y="937.0" /><circle cx="681.0" cy="693.0" fill="#900" r="16" stroke="#900" stroke-width="5" /><circle cx="929.0" cy="701.0" fill="#900" r="16" stroke="#900" stroke-width="5" /><rect fill="#090" height="24" stroke="#090" stroke-width="5" transform="rotate(0,737.0,745.0)" width="24" x="725.0" y="733.0" /><rect fill="#090" height="24" stroke="#090" stroke-width="5" transform="rotate(0,869.0,745.0)" width="24" x="857.0" y="733.0" /><circle cx="857.0" cy="685.0" fill="#090" r="16" stroke="#090" stroke-width="5" /><circle cx="737.0" cy="697.0" fill="#090" r="16" stroke="#090" stroke-width="5" /><circle cx="733.0" cy="637.0" fill="#090" r="16" stroke="#090" stroke-width="5" /><circle cx="865.0" cy="633.0" fill="#090" r="16" stroke="#090" stroke-width="5" /><circle cx="417.0" cy="293.0" fill="#090" r="16" stroke="#090" stroke-width="5" /><circle cx="549.0" cy="353.0" fill="#090" r="16" stroke="#090" stroke-width="5" /><circle cx="609.0" cy="293.0" fill="#090" r="16" stroke="#090" stroke-width="5" /><circle cx="725.0" cy="293.0" fill="#090" r="16" stroke="#090" stroke-width="5" /><circle cx="805.0" cy="301.0" fill="#090" r="16" stroke="#090" stroke-width="5" /><circle cx="801.0" cy="433.0" fill="#090" r="16" stroke="#090" stroke-width="5" /><rect fill="#900" height="48" stroke="#900" stroke-width="5" transform="rotate(0,612.0,1319.0)" width="32" x="596.0" y="1295.0" /><rect fill="#900" height="48" stroke="#900" stroke-width="5" transform="rotate(0,612.0,1250.0)" width="32" x="596.0" y="1226.0" /><rect fill="#900" height="48" stroke="#900" stroke-width="5" transform="rotate(0,705.0,1325.0)" width="32" x="689.0" y="1301.0" /><rect fill="#900" height="48" stroke="#900" stroke-width="5" transform="rotate(0,666.0,1283.0)" width="32" x="650.0" y="1259.0" /><rect fill="#900" height="48" stroke="#900" stroke-width="5" transform="rotate(0,708.0,1247.0)" width="32" x="692.0" y="1223.0" /><rect fill="#900" height="48" stroke="#900" stroke-width="5" transform="rotate(180,903.0,1322.0)" width="32" x="887.0" y="1298.0" /><rect fill="#900" height="48" stroke="#900" stroke-width="5" transform="rotate(180,897.0,1274.0)" width="32" x="881.0" y="1250.0" /><rect fill="#900" height="48" stroke="#900" stroke-width="5" transform="rotate(180,963.0,1319.0)" width="32" x="947.0" y="1295.0" /><rect fill="#900" height="48" stroke="#900" stroke-width="5" transform="rotate(180,1005.0,1244.0)" width="32" x="989.0" y="1220.0" /><rect fill="#900" height="48" stroke="#900" stroke-width="5" transform="rotate(180,945.0,1259.0)" width="32" x="929.0" y="1235.0" /><rect fill="#090" height="24" stroke="#090" stroke-width="5" transform="rotate(270,807.0,1574.0)" width="24" x="795.0" y="1562.0" /><rect fill="#090" height="24" stroke="#090" stroke-width="5" transform="rotate(0,1134.0,1841.0)" width="24" x="1122.0" y="1829.0" /><rect fill="#900" height="48" stroke="#900" stroke-width="5" transform="rotate(270,114.0,872.0)" width="32" x="98.0" y="848.0" /><rect fill="#900" height="48" stroke="#900" stroke-width="5" transform="rotate(270,336.0,869.0)" width="32" x="320.0" y="845.0" /><rect fill="#900" height="48" stroke="#900" stroke-width="5" transform="rotate(180,660.0,869.0)" width="32" x="644.0" y="845.0" /><rect fill="#900" height="48" stroke="#900" stroke-width="5" transform="rotate(270,807.0,1919.0)" width="32" x="791.0" y="1895.0" /><rect fill="#900" height="48" stroke="#900" stroke-width="5" transform="rotate(270,807.0,1958.0)" width="32" x="791.0" y="1934.0" /><rect fill="#900" height="48" stroke="#900" stroke-width="5" transform="rotate(180,540.0,2201.0)" width="32" x="524.0" y="2177.0" /><rect fill="#900" height="48" stroke="#900" stroke-width="5" transform="rotate(270,1137.0,2039.0)" width="32" x="1121.0" y="2015.0" /><rect fill="#900" height="48" stroke="#900" stroke-width="5" transform="rotate(180,735.0,2084.0)" width="32" x="719.0" y="2060.0" /><rect fill="#900" height="48" stroke="#900" stroke-width="5" transform="rotate(315,552.0,1820.0)" width="32" x="536.0" y="1796.0" /><rect fill="#900" height="48" stroke="#900" stroke-width="5" transform="rotate(225,996.0,1784.0)" width="32" x="980.0" y="1760.0" /><rect fill="#900" height="48" stroke="#900" stroke-width="5" transform="rotate(315,678.0,1820.0)" width="32" x="662.0" y="1796.0" /><rect fill="#900" height="48" stroke="#900" stroke-width="5" transform="rotate(225,900.0,1817.0)" width="32" x="884.0" y="1793.0" /><rect fill="#900" height="48" stroke="#900" stroke-width="5" transform="rotate(0,1257.0,2195.0)" width="32" x="1241.0" y="2171.0" /><circle cx="801.0" cy="479.0" fill="#090" r="16" stroke="#090" stroke-width="5" /><circle cx="801.0" cy="365.0" fill="#090" r="16" stroke="#090" stroke-width="5" /><circle cx="657.0" cy="293.0" fill="#090" r="16" stroke="#090" stroke-width="5" /><circle cx="549.0" cy="425.0" fill="#900" r="16" stroke="#900" stroke-width="5" /><circle cx="363.0" cy="293.0" fill="#900" r="16" stroke="#900" stroke-width="5" /></svg>