<?xml version="1.0" encoding="utf-8" ?>
<svg baseProfile="tiny" height="812" version="1.2" viewBox="0 0 3722 2954" width="1024" xmlns="http://www.w3.org/2000/svg" xmlns:ev="http://www.w3.org/2001/xml-events" xmlns:xlink="http://www.w3.org/1999/xlink"><defs /><line stroke="#333" stroke-width="10" x1="1285.0" x2="1413.0" y1="1669.0" y2="1669.0" /><line stroke="#333" stroke-width="10" x1="1285.0" x2="1285.0" y1="1413.0" y2="1669.0" /><line stroke="#333" stroke-width="10" x1="1541.0" x2="1413.0" y1="1413.0" y2="1413.0" /><line stroke="#333" stroke-width="10" x1="1541.0" x2="1541.0" y1="1669.0" y2="1413.0" /><line stroke="#333" stroke-width="10" x1="1477.0" x2="1541.0" y1="1669.0" y2="1669.0" /><line stroke="#999" stroke-width="3" x1="1477.0" x2="1413.0" y1="1669.0" y2="1669.0" /><line stroke="#999" stroke-width="3" x1="1413.0" x2="1413.0" y1="1669.0" y2="1605.0" /><line stroke="#999" stroke-width="3" x1="1413.0" x2="1477.0" y1="1605.0" y2="1605.0" /><line stroke="#999" stroke-width="3" x1="1477.0" x2="1477.0" y1="1605.0" y2="1669.0" /><line stroke="#333" stroke-width="10" x1="1477.0" x2="1477.0" y1="1797.0" y2="1669.0" /><line stroke="#333" stroke-width="10" x1="1413.0" x2="1477.0" y1="1797.0" y2="1797.0" /><line stroke="#333" stroke-width="10" x1="1413.0" x2="1413.0" y1="1669.0" y2="1797.0" /><line stroke="#666" stroke-width="20" x1="1413.0" x2="1285.0" y1="1413.0" y2="1413.0" /><line stroke="#333" stroke-width="10" x1="1285.0" x2="1285.0" y1="1397.0" y2="1413.0" /><line stroke="#666" stroke-width="20" x1="1285.0" x2="1413.0" y1="1397.0" y2="1397.0" /><line stroke="#333" stroke-width="10" x1="1413.0" x2="1413.0" y1="1413.0" y2="1397.0" /><line stroke="#333" stroke-width="10" x1="1285.0" x2="1285.0" y1="1285.0" y2="1301.0" /><line stroke="#666" stroke-width="20" x1="1285.0" x2="1413.0" y1="1285.0" y2="1285.0" /><line stroke="#333" stroke-width="10" x1="1413.0" x2="1413.0" y1="1301.0" y2="1285.0" /><line stroke="#666" stroke-width="20" x1="1413.0" x2="1285.0" y1="1301.0" y2="1301.0" /><line stroke="#333" stroke-width="10" x1="1285.0" x2="1285.0" y1="1301.0" y2="1349.0" /><line stroke="#333" stroke-width="10" x1="1413.0" x2="1413.0" y1="1397.0" y2="1349.0" /><line stroke="#333" stroke-width="10" x1="1285.0" x2="1285.0" y1="1157.0" y2="1285.0" /><line stroke="#333" stroke-width="10" x1="1541.0" x2="1285.0" y1="1157.0" y2="1157.0" /><line stroke="#999" stroke-width="3" x1="1541.0" x2="1541.0" y1="1285.0" y2="1157.0" /><line stroke="#333" stroke-width="10" x1="1413.0" x2="1541.0" y1="1285.0" y2="1285.0" /><line stroke="#333" stroke-width="10" x1="1285.0" x2="1285.0" y1="1349.0" y2="1397.0" /><line stroke="#333" stroke-width="10" x1="1413.0" x2="1413.0" y1="1349.0" y2="1301.0" /><line stroke="#999" stroke-width="3" x1="1413.0" x2="1285.0" y1="1349.0" y2="1349.0" /><line stroke="#333" stroke-width="10" x1="1669.0" x2="1541.0" y1="1029.0" y2="1157.0" /><line stroke="#999" stroke-width="3" x1="1797.0" x2="1669.0" y1="1029.0" y2="1029.0" /><line stroke="#333" stroke-width="10" x1="1925.0" x2="1797.0" y1="1157.0" y2="1029.0" /><line stroke="#999" stroke-width="3" x1="1925.0" x2="1925.0" y1="1285.0" y2="1157.0" /><line stroke="#333" stroke-width="10" x1="1797.0" x2="1925.0" y1="1413.0" y2="1285.0" /><line stroke="#999" stroke-width="3" x1="1669.0" x2="1797.0" y1="1413.0" y2="1413.0" /><line stroke="#333" stroke-width="10" x1="1541.0" x2="1669.0" y1="1285.0" y2="1413.0" /><line stroke="#333" stroke-width="10" x1="1797.0" x2="1797.0" y1="1669.0" y2="1413.0" /><line stroke="#333" stroke-width="10" x1="1669.0" x2="1669.0" y1="1413.0" y2="1669.0" /><line stroke="#333" stroke-width="10" x1="2181.0" x2="2063.0" y1="1157.0" y2="1157.0" /><line stroke="#999" stroke-width="3" x1="2181.0" x2="2181.0" y1="1285.0" y2="1253.0" /><line stroke="#333" stroke-width="10" x1="1925.0" x2="1989.0" y1="1285.0" y2="1285.0" /><line stroke="#333" stroke-width="10" x1="1669.0" x2="1669.0" y1="773.0" y2="1029.0" /><line stroke="#666" stroke-width="20" x1="1797.0" x2="1669.0" y1="773.0" y2="773.0" /><line stroke="#333" stroke-width="10" x1="1797.0" x2="1797.0" y1="1029.0" y2="773.0" /><line stroke="#999" stroke-width="3" x1="2181.0" x2="2181.0" y1="1221.0" y2="1189.0" /><line stroke="#666" stroke-width="20" x1="2181.0" x2="2181.0" y1="1189.0" y2="1157.0" /><line stroke="#666" stroke-width="20" x1="2181.0" x2="2181.0" y1="1253.0" y2="1221.0" /><line stroke="#333" stroke-width="10" x1="2053.0" x2="2063.0" y1="1285.0" y2="1285.0" /><line stroke="#333" stroke-width="10" x1="2053.0" x2="1925.0" y1="1157.0" y2="1157.0" /><line stroke="#666" stroke-width="20" x1="2053.0" x2="2053.0" y1="1285.0" y2="1157.0" /><line stroke="#999" stroke-width="3" x1="2197.0" x2="2181.0" y1="1253.0" y2="1253.0" /><line stroke="#999" stroke-width="3" x1="2197.0" x2="2197.0" y1="1253.0" y2="1285.0" /><line stroke="#333" stroke-width="10" x1="2181.0" x2="2197.0" y1="1285.0" y2="1285.0" /><line stroke="#999" stroke-width="3" x1="2197.0" x2="2181.0" y1="1221.0" y2="1221.0" /><line stroke="#999" stroke-width="3" x1="2197.0" x2="2197.0" y1="1221.0" y2="1253.0" /><line stroke="#999" stroke-width="3" x1="2197.0" x2="2181.0" y1="1189.0" y2="1189.0" /><line stroke="#999" stroke-width="3" x1="2197.0" x2="2197.0" y1="1189.0" y2="1221.0" /><line stroke="#333" stroke-width="10" x1="2197.0" x2="2181.0" y1="1157.0" y2="1157.0" /><line stroke="#999" stroke-width="3" x1="2197.0" x2="2197.0" y1="1157.0" y2="1189.0" /><line stroke="#333" stroke-width="10" x1="2309.0" x2="2197.0" y1="1157.0" y2="1157.0" /><line stroke="#333" stroke-width="10" x1="2309.0" x2="2309.0" y1="1285.0" y2="1221.0" /><line stroke="#333" stroke-width="10" x1="2197.0" x2="2309.0" y1="1285.0" y2="1285.0" /><line stroke="#333" stroke-width="10" x1="2063.0" x2="2053.0" y1="1157.0" y2="1157.0" /><line stroke="#333" stroke-width="10" x1="2063.0" x2="2181.0" y1="1285.0" y2="1285.0" /><line stroke="#999" stroke-width="3" x1="2063.0" x2="2063.0" y1="1285.0" y2="1157.0" /><line stroke="#999" stroke-width="3" x1="1669.0" x2="1797.0" y1="1669.0" y2="1669.0" /><line stroke="#999" stroke-width="3" x1="1669.0" x2="1797.0" y1="1029.0" y2="773.0" /><line stroke="#999" stroke-width="3" x1="1669.0" x2="1797.0" y1="1413.0" y2="1669.0" /><line stroke="#999" stroke-width="3" x1="1797.0" x2="1797.0" y1="1797.0" y2="1669.0" /><line stroke="#333" stroke-width="10" x1="1669.0" x2="1797.0" y1="1669.0" y2="1797.0" /><line stroke="#333" stroke-width="10" x1="1925.0" x2="1797.0" y1="1797.0" y2="1669.0" /><line stroke="#999" stroke-width="3" x1="1797.0" x2="1925.0" y1="1797.0" y2="1797.0" /><line stroke="#333" stroke-width="10" x1="1925.0" x2="1925.0" y1="1925.0" y2="1893.0" /><line stroke="#999" stroke-width="3" x1="1925.0" x2="1861.0" y1="1925.0" y2="1925.0" /><line stroke="#333" stroke-width="10" x1="1797.0" x2="1813.0" y1="1797.0" y2="1829.0" /><line stroke="#999" stroke-width="3" x1="2309.0" x2="2245.0" y1="1925.0" y2="1925.0" /><line stroke="#333" stroke-width="10" x1="2309.0" x2="2309.0" y1="2565.0" y2="2309.0" /><line stroke="#333" stroke-width="10" x1="1541.0" x2="1797.0" y1="2565.0" y2="2565.0" /><line stroke="#333" stroke-width="10" x1="1541.0" x2="1541.0" y1="1925.0" y2="2165.0" /><line stroke="#333" stroke-width="10" x1="1861.0" x2="1541.0" y1="1925.0" y2="1925.0" /><line stroke="#333" stroke-width="10" x1="1829.0" x2="1845.0" y1="1861.0" y2="1893.0" /><line stroke="#333" stroke-width="10" x1="1813.0" x2="1829.0" y1="1829.0" y2="1861.0" /><line stroke="#333" stroke-width="10" x1="1845.0" x2="1861.0" y1="1893.0" y2="1925.0" /><line stroke="#333" stroke-width="10" x1="1925.0" x2="1925.0" y1="1861.0" y2="1829.0" /><line stroke="#333" stroke-width="10" x1="1925.0" x2="1925.0" y1="1893.0" y2="1861.0" /><line stroke="#333" stroke-width="10" x1="1925.0" x2="1925.0" y1="1829.0" y2="1797.0" /><line stroke="#999" stroke-width="3" x1="1813.0" x2="1925.0" y1="1829.0" y2="1829.0" /><line stroke="#999" stroke-width="3" x1="1829.0" x2="1925.0" y1="1861.0" y2="1861.0" /><line stroke="#999" stroke-width="3" x1="1845.0" x2="1925.0" y1="1893.0" y2="1893.0" /><line stroke="#333" stroke-width="10" x1="2245.0" x2="1925.0" y1="1925.0" y2="1925.0" /><line stroke="#333" stroke-width="10" x1="2309.0" x2="2309.0" y1="1957.0" y2="1941.0" /><line stroke="#333" stroke-width="10" x1="2309.0" x2="2309.0" y1="1941.0" y2="1925.0" /><line stroke="#999" stroke-width="3" x1="2309.0" x2="2245.0" y1="1973.0" y2="1973.0" /><line stroke="#333" stroke-width="10" x1="2309.0" x2="2309.0" y1="1989.0" y2="1973.0" /><line stroke="#999" stroke-width="3" x1="2245.0" x2="2309.0" y1="1989.0" y2="1989.0" /><line stroke="#999" stroke-width="3" x1="2245.0" x2="2245.0" y1="1973.0" y2="1989.0" /><line stroke="#999" stroke-width="3" x1="2245.0" x2="2245.0" y1="1957.0" y2="1973.0" /><line stroke="#999" stroke-width="3" x1="2309.0" x2="2245.0" y1="1957.0" y2="1957.0" /><line stroke="#333" stroke-width="10" x1="2309.0" x2="2309.0" y1="1973.0" y2="1957.0" /><line stroke="#999" stroke-width="3" x1="2245.0" x2="2245.0" y1="1941.0" y2="1957.0" /><line stroke="#999" stroke-width="3" x1="2309.0" x2="2245.0" y1="1941.0" y2="1941.0" /><line stroke="#999" stroke-width="3" x1="2245.0" x2="2245.0" y1="1925.0" y2="1941.0" /><line stroke="#333" stroke-width="10" x1="2245.0" x2="2245.0" y1="1733.0" y2="1925.0" /><line stroke="#999" stroke-width="3" x1="2309.0" x2="2245.0" y1="1733.0" y2="1733.0" /><line stroke="#333" stroke-width="10" x1="2309.0" x2="2309.0" y1="1925.0" y2="1733.0" /><line stroke="#333" stroke-width="10" x1="1669.0" x2="1669.0" y1="757.0" y2="773.0" /><line stroke="#666" stroke-width="20" x1="1669.0" x2="1797.0" y1="757.0" y2="757.0" /><line stroke="#333" stroke-width="10" x1="1797.0" x2="1797.0" y1="773.0" y2="757.0" /><line stroke="#333" stroke-width="10" x1="1669.0" x2="1669.0" y1="645.0" y2="757.0" /><line stroke="#333" stroke-width="10" x1="1925.0" x2="1669.0" y1="517.0" y2="645.0" /><line stroke="#999" stroke-width="3" x1="1925.0" x2="1925.0" y1="645.0" y2="517.0" /><line stroke="#333" stroke-width="10" x1="2373.0" x2="2309.0" y1="517.0" y2="517.0" /><line stroke="#333" stroke-width="10" x1="1925.0" x2="1989.0" y1="645.0" y2="645.0" /><line stroke="#333" stroke-width="10" x1="2117.0" x2="2053.0" y1="517.0" y2="517.0" /><line stroke="#999" stroke-width="3" x1="2181.0" x2="2117.0" y1="517.0" y2="517.0" /><line stroke="#999" stroke-width="3" x1="2053.0" x2="1989.0" y1="517.0" y2="517.0" /><line stroke="#333" stroke-width="10" x1="2117.0" x2="2117.0" y1="389.0" y2="517.0" /><line stroke="#333" stroke-width="10" x1="2181.0" x2="2117.0" y1="389.0" y2="389.0" /><line stroke="#333" stroke-width="10" x1="2181.0" x2="2181.0" y1="517.0" y2="389.0" /><line stroke="#333" stroke-width="10" x1="1989.0" x2="1989.0" y1="389.0" y2="517.0" /><line stroke="#999" stroke-width="3" x1="2053.0" x2="1989.0" y1="389.0" y2="389.0" /><line stroke="#333" stroke-width="10" x1="2053.0" x2="2053.0" y1="517.0" y2="389.0" /><line stroke="#999" stroke-width="3" x1="2373.0" x2="2373.0" y1="645.0" y2="517.0" /><line stroke="#333" stroke-width="10" x1="2053.0" x2="2117.0" y1="645.0" y2="645.0" /><line stroke="#999" stroke-width="3" x1="1989.0" x2="2053.0" y1="645.0" y2="645.0" /><line stroke="#333" stroke-width="10" x1="2053.0" x2="2053.0" y1="789.0" y2="781.0" /><line stroke="#666" stroke-width="20" x1="2053.0" x2="1989.0" y1="789.0" y2="789.0" /><line stroke="#333" stroke-width="10" x1="1989.0" x2="1989.0" y1="645.0" y2="773.0" /><line stroke="#333" stroke-width="10" x1="2181.0" x2="2245.0" y1="645.0" y2="645.0" /><line stroke="#999" stroke-width="3" x1="2117.0" x2="2181.0" y1="645.0" y2="645.0" /><line stroke="#333" stroke-width="10" x1="2181.0" x2="2181.0" y1="773.0" y2="645.0" /><line stroke="#333" stroke-width="10" x1="2117.0" x2="2181.0" y1="773.0" y2="773.0" /><line stroke="#333" stroke-width="10" x1="2117.0" x2="2117.0" y1="645.0" y2="773.0" /><line stroke="#999" stroke-width="3" x1="2245.0" x2="2309.0" y1="645.0" y2="645.0" /><line stroke="#333" stroke-width="10" x1="2309.0" x2="2373.0" y1="645.0" y2="645.0" /><line stroke="#333" stroke-width="10" x1="2309.0" x2="2309.0" y1="773.0" y2="645.0" /><line stroke="#333" stroke-width="10" x1="2245.0" x2="2309.0" y1="773.0" y2="773.0" /><line stroke="#333" stroke-width="10" x1="2245.0" x2="2245.0" y1="645.0" y2="773.0" /><line stroke="#333" stroke-width="10" x1="2245.0" x2="2181.0" y1="517.0" y2="517.0" /><line stroke="#999" stroke-width="3" x1="2309.0" x2="2245.0" y1="517.0" y2="517.0" /><line stroke="#333" stroke-width="10" x1="2245.0" x2="2245.0" y1="389.0" y2="517.0" /><line stroke="#333" stroke-width="10" x1="2309.0" x2="2245.0" y1="389.0" y2="389.0" /><line stroke="#333" stroke-width="10" x1="2309.0" x2="2309.0" y1="517.0" y2="389.0" /><line stroke="#333" stroke-width="10" x1="2437.0" x2="2373.0" y1="517.0" y2="517.0" /><line stroke="#666" stroke-width="20" x1="2437.0" x2="2437.0" y1="645.0" y2="517.0" /><line stroke="#333" stroke-width="10" x1="2373.0" x2="2437.0" y1="645.0" y2="645.0" /><line stroke="#333" stroke-width="10" x1="2469.0" x2="2437.0" y1="517.0" y2="517.0" /><line stroke="#666" stroke-width="20" x1="2469.0" x2="2469.0" y1="517.0" y2="645.0" /><line stroke="#333" stroke-width="10" x1="2437.0" x2="2469.0" y1="645.0" y2="645.0" /><line stroke="#333" stroke-width="10" x1="2373.0" x2="2053.0" y1="837.0" y2="789.0" /><line stroke="#333" stroke-width="10" x1="2373.0" x2="2373.0" y1="965.0" y2="837.0" /><line stroke="#333" stroke-width="10" x1="2245.0" x2="2373.0" y1="1093.0" y2="965.0" /><line stroke="#333" stroke-width="10" x1="1925.0" x2="2245.0" y1="1093.0" y2="1093.0" /><line stroke="#333" stroke-width="10" x1="1861.0" x2="1925.0" y1="965.0" y2="1093.0" /><line stroke="#333" stroke-width="10" x1="1861.0" x2="1861.0" y1="837.0" y2="965.0" /><line stroke="#333" stroke-width="10" x1="1989.0" x2="1861.0" y1="789.0" y2="837.0" /><line stroke="#333" stroke-width="10" x1="1925.0" x2="2309.0" y1="2565.0" y2="2565.0" /><line stroke="#999" stroke-width="3" x1="1797.0" x2="1925.0" y1="2565.0" y2="2565.0" /><line stroke="#333" stroke-width="10" x1="1541.0" x2="1541.0" y1="2325.0" y2="2565.0" /><line stroke="#d00" stroke-width="20" x1="1541.0" x2="1541.0" y1="2165.0" y2="2181.0" /><line stroke="#333" stroke-width="10" x1="2309.0" x2="2309.0" y1="2181.0" y2="1989.0" /><line stroke="#333" stroke-width="10" x1="1509.0" x2="1541.0" y1="2309.0" y2="2325.0" /><line stroke="#333" stroke-width="10" x1="1541.0" x2="1509.0" y1="2165.0" y2="2181.0" /><line stroke="#333" stroke-width="10" x1="1445.0" x2="1509.0" y1="2309.0" y2="2309.0" /><line stroke="#999" stroke-width="3" x1="1445.0" x2="1445.0" y1="2181.0" y2="2309.0" /><line stroke="#333" stroke-width="10" x1="1509.0" x2="1445.0" y1="2181.0" y2="2181.0" /><line stroke="#333" stroke-width="10" x1="1381.0" x2="1445.0" y1="2309.0" y2="2309.0" /><line stroke="#999" stroke-width="3" x1="1381.0" x2="1381.0" y1="2181.0" y2="2309.0" /><line stroke="#333" stroke-width="10" x1="1445.0" x2="1381.0" y1="2181.0" y2="2181.0" /><line stroke="#333" stroke-width="10" x1="1317.0" x2="1381.0" y1="2309.0" y2="2309.0" /><line stroke="#999" stroke-width="3" x1="1317.0" x2="1317.0" y1="2181.0" y2="2309.0" /><line stroke="#333" stroke-width="10" x1="1381.0" x2="1317.0" y1="2181.0" y2="2181.0" /><line stroke="#333" stroke-width="10" x1="1253.0" x2="1317.0" y1="2309.0" y2="2309.0" /><line stroke="#999" stroke-width="3" x1="1253.0" x2="1253.0" y1="2181.0" y2="2309.0" /><line stroke="#333" stroke-width="10" x1="1317.0" x2="1253.0" y1="2181.0" y2="2181.0" /><line stroke="#333" stroke-width="10" x1="1189.0" x2="1253.0" y1="2309.0" y2="2309.0" /><line stroke="#999" stroke-width="3" x1="1189.0" x2="1189.0" y1="2181.0" y2="2309.0" /><line stroke="#333" stroke-width="10" x1="1253.0" x2="1189.0" y1="2181.0" y2="2181.0" /><line stroke="#333" stroke-width="10" x1="1125.0" x2="1189.0" y1="2309.0" y2="2309.0" /><line stroke="#999" stroke-width="3" x1="1125.0" x2="1125.0" y1="2181.0" y2="2309.0" /><line stroke="#333" stroke-width="10" x1="1189.0" x2="1125.0" y1="2181.0" y2="2181.0" /><line stroke="#999" stroke-width="3" x1="517.0" x2="1093.0" y1="2309.0" y2="2309.0" /><line stroke="#666" stroke-width="20" x1="517.0" x2="517.0" y1="2181.0" y2="2309.0" /><line stroke="#333" stroke-width="10" x1="1125.0" x2="1093.0" y1="2181.0" y2="2181.0" /><line stroke="#999" stroke-width="3" x1="1093.0" x2="517.0" y1="2181.0" y2="2181.0" /><line stroke="#333" stroke-width="10" x1="1093.0" x2="1125.0" y1="2309.0" y2="2309.0" /><line stroke="#333" stroke-width="10" x1="517.0" x2="517.0" y1="1541.0" y2="1925.0" /><line stroke="#333" stroke-width="10" x1="1093.0" x2="517.0" y1="1541.0" y2="1541.0" /><line stroke="#333" stroke-width="10" x1="1093.0" x2="1093.0" y1="2181.0" y2="1925.0" /><line stroke="#333" stroke-width="10" x1="1093.0" x2="1093.0" y1="2949.0" y2="2565.0" /><line stroke="#333" stroke-width="10" x1="517.0" x2="1093.0" y1="2949.0" y2="2949.0" /><line stroke="#333" stroke-width="10" x1="517.0" x2="517.0" y1="2309.0" y2="2565.0" /><line stroke="#333" stroke-width="10" x1="1797.0" x2="1925.0" y1="757.0" y2="645.0" /><line stroke="#333" stroke-width="10" x1="2053.0" x2="2053.0" y1="773.0" y2="645.0" /><line stroke="#333" stroke-width="10" x1="1989.0" x2="1989.0" y1="773.0" y2="781.0" /><line stroke="#666" stroke-width="20" x1="1989.0" x2="2053.0" y1="773.0" y2="773.0" /><line stroke="#333" stroke-width="10" x1="1093.0" x2="1093.0" y1="2565.0" y2="2309.0" /><line stroke="#333" stroke-width="10" x1="517.0" x2="517.0" y1="2565.0" y2="2949.0" /><line stroke="#333" stroke-width="10" x1="1093.0" x2="1093.0" y1="1925.0" y2="1541.0" /><line stroke="#333" stroke-width="10" x1="517.0" x2="517.0" y1="1925.0" y2="2181.0" /><line stroke="#999" stroke-width="3" x1="517.0" x2="1093.0" y1="2565.0" y2="2565.0" /><line stroke="#999" stroke-width="3" x1="517.0" x2="1093.0" y1="1925.0" y2="1925.0" /><line stroke="#333" stroke-width="10" x1="485.0" x2="517.0" y1="2309.0" y2="2309.0" /><line stroke="#666" stroke-width="20" x1="485.0" x2="485.0" y1="2309.0" y2="2181.0" /><line stroke="#333" stroke-width="10" x1="517.0" x2="485.0" y1="2181.0" y2="2181.0" /><line stroke="#333" stroke-width="10" x1="389.0" x2="485.0" y1="2309.0" y2="2309.0" /><line stroke="#999" stroke-width="3" x1="389.0" x2="389.0" y1="2181.0" y2="2309.0" /><line stroke="#333" stroke-width="10" x1="485.0" x2="389.0" y1="2181.0" y2="2181.0" /><line stroke="#333" stroke-width="10" x1="261.0" x2="389.0" y1="2437.0" y2="2309.0" /><line stroke="#333" stroke-width="10" x1="133.0" x2="261.0" y1="2437.0" y2="2437.0" /><line stroke="#333" stroke-width="10" x1="5.0" x2="133.0" y1="2309.0" y2="2437.0" /><line stroke="#333" stroke-width="10" x1="5.0" x2="5.0" y1="2181.0" y2="2309.0" /><line stroke="#333" stroke-width="10" x1="133.0" x2="5.0" y1="2053.0" y2="2181.0" /><line stroke="#333" stroke-width="10" x1="261.0" x2="133.0" y1="2053.0" y2="2053.0" /><line stroke="#333" stroke-width="10" x1="389.0" x2="261.0" y1="2181.0" y2="2053.0" /><line stroke="#999" stroke-width="3" x1="229.0" x2="181.0" y1="2229.0" y2="2229.0" /><line stroke="#999" stroke-width="3" x1="229.0" x2="229.0" y1="2277.0" y2="2229.0" /><line stroke="#999" stroke-width="3" x1="181.0" x2="229.0" y1="2277.0" y2="2277.0" /><line stroke="#999" stroke-width="3" x1="181.0" x2="181.0" y1="2229.0" y2="2277.0" /><line stroke="#999" stroke-width="3" x1="165.0" x2="181.0" y1="2277.0" y2="2277.0" /><line stroke="#999" stroke-width="3" x1="165.0" x2="165.0" y1="2293.0" y2="2277.0" /><line stroke="#999" stroke-width="3" x1="229.0" x2="165.0" y1="2293.0" y2="2293.0" /><line stroke="#999" stroke-width="3" x1="229.0" x2="229.0" y1="2277.0" y2="2293.0" /><line stroke="#999" stroke-width="3" x1="165.0" x2="181.0" y1="2229.0" y2="2229.0" /><line stroke="#999" stroke-width="3" x1="165.0" x2="165.0" y1="2213.0" y2="2229.0" /><line stroke="#999" stroke-width="3" x1="229.0" x2="165.0" y1="2213.0" y2="2213.0" /><line stroke="#999" stroke-width="3" x1="229.0" x2="229.0" y1="2229.0" y2="2213.0" /><line stroke="#666" stroke-width="20" x1="165.0" x2="165.0" y1="2277.0" y2="2229.0" /><line stroke="#333" stroke-width="10" x1="2565.0" x2="2469.0" y1="501.0" y2="517.0" /><line stroke="#999" stroke-width="3" x1="2565.0" x2="2565.0" y1="661.0" y2="501.0" /><line stroke="#333" stroke-width="10" x1="2469.0" x2="2565.0" y1="645.0" y2="661.0" /><line stroke="#999" stroke-width="3" x1="2949.0" x2="2565.0" y1="501.0" y2="501.0" /><line stroke="#d00" stroke-width="20" x1="2949.0" x2="2949.0" y1="661.0" y2="645.0" /><line stroke="#999" stroke-width="3" x1="2565.0" x2="2949.0" y1="661.0" y2="661.0" /><line stroke="#333" stroke-width="10" x1="2949.0" x2="2949.0" y1="901.0" y2="661.0" /><line stroke="#333" stroke-width="10" x1="2821.0" x2="2949.0" y1="901.0" y2="901.0" /><line stroke="#999" stroke-width="3" x1="2821.0" x2="2821.0" y1="773.0" y2="901.0" /><line stroke="#999" stroke-width="3" x1="2693.0" x2="2821.0" y1="773.0" y2="773.0" /><line stroke="#999" stroke-width="3" x1="2693.0" x2="2693.0" y1="901.0" y2="773.0" /><line stroke="#333" stroke-width="10" x1="2565.0" x2="2693.0" y1="901.0" y2="901.0" /><line stroke="#333" stroke-width="10" x1="2565.0" x2="2565.0" y1="661.0" y2="901.0" /><line stroke="#666" stroke-width="20" x1="2693.0" x2="2821.0" y1="901.0" y2="901.0" /><line stroke="#333" stroke-width="10" x1="2565.0" x2="2565.0" y1="261.0" y2="501.0" /><line stroke="#333" stroke-width="10" x1="2693.0" x2="2565.0" y1="261.0" y2="261.0" /><line stroke="#999" stroke-width="3" x1="2693.0" x2="2693.0" y1="389.0" y2="261.0" /><line stroke="#999" stroke-width="3" x1="2821.0" x2="2693.0" y1="389.0" y2="389.0" /><line stroke="#999" stroke-width="3" x1="2821.0" x2="2821.0" y1="261.0" y2="389.0" /><line stroke="#333" stroke-width="10" x1="2949.0" x2="2821.0" y1="261.0" y2="261.0" /><line stroke="#333" stroke-width="10" x1="2949.0" x2="2949.0" y1="501.0" y2="261.0" /><line stroke="#666" stroke-width="20" x1="2821.0" x2="2693.0" y1="261.0" y2="261.0" /><line stroke="#333" stroke-width="10" x1="2821.0" x2="2821.0" y1="933.0" y2="901.0" /><line stroke="#666" stroke-width="20" x1="2821.0" x2="2693.0" y1="933.0" y2="933.0" /><line stroke="#333" stroke-width="10" x1="2693.0" x2="2693.0" y1="901.0" y2="933.0" /><line stroke="#333" stroke-width="10" x1="2821.0" x2="2821.0" y1="1413.0" y2="933.0" /><line stroke="#333" stroke-width="10" x1="2949.0" x2="2821.0" y1="1541.0" y2="1413.0" /><line stroke="#333" stroke-width="10" x1="2949.0" x2="2949.0" y1="1669.0" y2="1541.0" /><line stroke="#333" stroke-width="10" x1="2821.0" x2="2949.0" y1="1797.0" y2="1669.0" /><line stroke="#333" stroke-width="10" x1="2821.0" x2="2821.0" y1="2309.0" y2="1797.0" /><line stroke="#333" stroke-width="10" x1="2437.0" x2="2821.0" y1="2309.0" y2="2309.0" /><line stroke="#999" stroke-width="3" x1="2437.0" x2="2437.0" y1="2181.0" y2="2309.0" /><line stroke="#333" stroke-width="10" x1="2693.0" x2="2437.0" y1="2181.0" y2="2181.0" /><line stroke="#333" stroke-width="10" x1="2693.0" x2="2693.0" y1="1797.0" y2="2181.0" /><line stroke="#333" stroke-width="10" x1="2565.0" x2="2693.0" y1="1669.0" y2="1797.0" /><line stroke="#999" stroke-width="3" x1="2565.0" x2="2565.0" y1="1541.0" y2="1669.0" /><line stroke="#333" stroke-width="10" x1="2693.0" x2="2565.0" y1="1413.0" y2="1541.0" /><line stroke="#333" stroke-width="10" x1="2693.0" x2="2693.0" y1="933.0" y2="1413.0" /><line stroke="#333" stroke-width="10" x1="2309.0" x2="2437.0" y1="2309.0" y2="2309.0" /><line stroke="#999" stroke-width="3" x1="2309.0" x2="2309.0" y1="2309.0" y2="2181.0" /><line stroke="#333" stroke-width="10" x1="2437.0" x2="2309.0" y1="2181.0" y2="2181.0" /><line stroke="#333" stroke-width="10" x1="1925.0" x2="1925.0" y1="2597.0" y2="2565.0" /><line stroke="#999" stroke-width="3" x1="1925.0" x2="1797.0" y1="2597.0" y2="2597.0" /><line stroke="#333" stroke-width="10" x1="1797.0" x2="1797.0" y1="2565.0" y2="2597.0" /><line stroke="#333" stroke-width="10" x1="2053.0" x2="1925.0" y1="2853.0" y2="2597.0" /><line stroke="#333" stroke-width="10" x1="1925.0" x2="2053.0" y1="2949.0" y2="2853.0" /><line stroke="#333" stroke-width="10" x1="1797.0" x2="1829.0" y1="2949.0" y2="2949.0" /><line stroke="#333" stroke-width="10" x1="1669.0" x2="1797.0" y1="2853.0" y2="2949.0" /><line stroke="#333" stroke-width="10" x1="1797.0" x2="1669.0" y1="2597.0" y2="2853.0" /><line stroke="#333" stroke-width="10" x1="2245.0" x2="2245.0" y1="1541.0" y2="1733.0" /><line stroke="#333" stroke-width="10" x1="2437.0" x2="2245.0" y1="1541.0" y2="1541.0" /><line stroke="#999" stroke-width="3" x1="2437.0" x2="2437.0" y1="1669.0" y2="1541.0" /><line stroke="#333" stroke-width="10" x1="2309.0" x2="2437.0" y1="1669.0" y2="1669.0" /><line stroke="#333" stroke-width="10" x1="2309.0" x2="2309.0" y1="1733.0" y2="1669.0" /><line stroke="#333" stroke-width="10" x1="2437.0" x2="2533.0" y1="1669.0" y2="1669.0" /><line stroke="#333" stroke-width="10" x1="2565.0" x2="2533.0" y1="1541.0" y2="1541.0" /><line stroke="#333" stroke-width="10" x1="2533.0" x2="2437.0" y1="1541.0" y2="1541.0" /><line stroke="#333" stroke-width="10" x1="2533.0" x2="2565.0" y1="1669.0" y2="1669.0" /><line stroke="#666" stroke-width="20" x1="2533.0" x2="2533.0" y1="1669.0" y2="1541.0" /><line stroke="#333" stroke-width="10" x1="2981.0" x2="2949.0" y1="501.0" y2="501.0" /><line stroke="#d00" stroke-width="20" x1="2981.0" x2="2981.0" y1="501.0" y2="517.0" /><line stroke="#333" stroke-width="10" x1="2949.0" x2="2981.0" y1="661.0" y2="661.0" /><line stroke="#333" stroke-width="10" x1="3173.0" x2="2981.0" y1="517.0" y2="501.0" /><line stroke="#999" stroke-width="3" x1="3173.0" x2="3173.0" y1="645.0" y2="517.0" /><line stroke="#333" stroke-width="10" x1="2981.0" x2="3173.0" y1="661.0" y2="645.0" /><line stroke="#333" stroke-width="10" x1="3205.0" x2="3173.0" y1="517.0" y2="517.0" /><line stroke="#999" stroke-width="3" x1="3205.0" x2="3205.0" y1="517.0" y2="645.0" /><line stroke="#333" stroke-width="10" x1="3173.0" x2="3205.0" y1="645.0" y2="645.0" /><line stroke="#999" stroke-width="3" x1="3333.0" x2="3205.0" y1="517.0" y2="517.0" /><line stroke="#999" stroke-width="3" x1="3333.0" x2="3333.0" y1="645.0" y2="517.0" /><line stroke="#999" stroke-width="3" x1="3205.0" x2="3333.0" y1="645.0" y2="645.0" /><line stroke="#333" stroke-width="10" x1="3333.0" x2="3333.0" y1="677.0" y2="645.0" /><line stroke="#999" stroke-width="3" x1="3333.0" x2="3205.0" y1="677.0" y2="677.0" /><line stroke="#333" stroke-width="10" x1="3205.0" x2="3205.0" y1="645.0" y2="677.0" /><line stroke="#333" stroke-width="10" x1="3365.0" x2="3333.0" y1="517.0" y2="517.0" /><line stroke="#999" stroke-width="3" x1="3365.0" x2="3365.0" y1="517.0" y2="645.0" /><line stroke="#333" stroke-width="10" x1="3333.0" x2="3365.0" y1="645.0" y2="645.0" /><line stroke="#333" stroke-width="10" x1="3205.0" x2="3205.0" y1="485.0" y2="517.0" /><line stroke="#999" stroke-width="3" x1="3205.0" x2="3333.0" y1="485.0" y2="485.0" /><line stroke="#333" stroke-width="10" x1="3333.0" x2="3333.0" y1="517.0" y2="485.0" /><line stroke="#333" stroke-width="10" x1="3717.0" x2="3365.0" y1="517.0" y2="517.0" /><line stroke="#333" stroke-width="10" x1="3717.0" x2="3717.0" y1="645.0" y2="517.0" /><line stroke="#999" stroke-width="3" x1="3589.0" x2="3717.0" y1="645.0" y2="645.0" /><line stroke="#333" stroke-width="10" x1="3365.0" x2="3589.0" y1="645.0" y2="645.0" /><line stroke="#333" stroke-width="10" x1="3717.0" x2="3717.0" y1="773.0" y2="645.0" /><line stroke="#999" stroke-width="3" x1="3589.0" x2="3717.0" y1="645.0" y2="773.0" /><line stroke="#333" stroke-width="10" x1="3333.0" x2="3333.0" y1="773.0" y2="677.0" /><line stroke="#333" stroke-width="10" x1="3589.0" x2="3333.0" y1="773.0" y2="773.0" /><line stroke="#333" stroke-width="10" x1="3589.0" x2="3589.0" y1="645.0" y2="653.0" /><line stroke="#333" stroke-width="10" x1="3717.0" x2="3717.0" y1="901.0" y2="781.0" /><line stroke="#333" stroke-width="10" x1="3205.0" x2="3717.0" y1="901.0" y2="901.0" /><line stroke="#333" stroke-width="10" x1="3205.0" x2="3205.0" y1="677.0" y2="901.0" /><line stroke="#333" stroke-width="10" x1="3205.0" x2="3205.0" y1="325.0" y2="485.0" /><line stroke="#999" stroke-width="3" x1="3205.0" x2="3205.0" y1="261.0" y2="325.0" /><line stroke="#333" stroke-width="10" x1="3205.0" x2="3205.0" y1="133.0" y2="261.0" /><line stroke="#999" stroke-width="3" x1="3205.0" x2="3205.0" y1="5.0" y2="133.0" /><line stroke="#333" stroke-width="10" x1="3333.0" x2="3205.0" y1="5.0" y2="5.0" /><line stroke="#333" stroke-width="10" x1="3333.0" x2="3333.0" y1="197.0" y2="5.0" /><line stroke="#999" stroke-width="3" x1="3333.0" x2="3333.0" y1="261.0" y2="197.0" /><line stroke="#333" stroke-width="10" x1="3333.0" x2="3333.0" y1="325.0" y2="261.0" /><line stroke="#999" stroke-width="3" x1="3333.0" x2="3333.0" y1="389.0" y2="325.0" /><line stroke="#333" stroke-width="10" x1="3333.0" x2="3333.0" y1="485.0" y2="389.0" /><line stroke="#333" stroke-width="10" x1="3397.0" x2="3333.0" y1="325.0" y2="325.0" /><line stroke="#333" stroke-width="10" x1="3397.0" x2="3397.0" y1="389.0" y2="325.0" /><line stroke="#333" stroke-width="10" x1="3333.0" x2="3397.0" y1="389.0" y2="389.0" /><line stroke="#333" stroke-width="10" x1="3397.0" x2="3333.0" y1="197.0" y2="197.0" /><line stroke="#333" stroke-width="10" x1="3397.0" x2="3397.0" y1="261.0" y2="197.0" /><line stroke="#333" stroke-width="10" x1="3333.0" x2="3397.0" y1="261.0" y2="261.0" /><line stroke="#333" stroke-width="10" x1="3141.0" x2="3205.0" y1="325.0" y2="325.0" /><line stroke="#333" stroke-width="10" x1="3141.0" x2="3141.0" y1="261.0" y2="325.0" /><line stroke="#333" stroke-width="10" x1="3205.0" x2="3141.0" y1="261.0" y2="261.0" /><line stroke="#999" stroke-width="3" x1="3077.0" x2="3205.0" y1="5.0" y2="133.0" /><line stroke="#333" stroke-width="10" x1="3205.0" x2="3077.0" y1="5.0" y2="5.0" /><line stroke="#333" stroke-width="10" x1="2821.0" x2="3197.0" y1="133.0" y2="133.0" /><line stroke="#333" stroke-width="10" x1="2821.0" x2="2821.0" y1="229.0" y2="133.0" /><line stroke="#666" stroke-width="20" x1="2693.0" x2="2821.0" y1="229.0" y2="229.0" /><line stroke="#999" stroke-width="3" x1="2693.0" x2="2693.0" y1="5.0" y2="133.0" /><line stroke="#333" stroke-width="10" x1="3077.0" x2="3069.0" y1="5.0" y2="5.0" /><line stroke="#333" stroke-width="10" x1="2693.0" x2="2693.0" y1="229.0" y2="261.0" /><line stroke="#333" stroke-width="10" x1="2821.0" x2="2821.0" y1="261.0" y2="229.0" /><line stroke="#333" stroke-width="10" x1="3717.0" x2="3717.0" y1="781.0" y2="773.0" /><line stroke="#333" stroke-width="10" x1="3589.0" x2="3589.0" y1="653.0" y2="773.0" /><line stroke="#999" stroke-width="3" x1="3589.0" x2="3717.0" y1="653.0" y2="781.0" /><line stroke="#333" stroke-width="10" x1="3197.0" x2="3205.0" y1="133.0" y2="133.0" /><line stroke="#333" stroke-width="10" x1="3069.0" x2="2693.0" y1="5.0" y2="5.0" /><line stroke="#999" stroke-width="3" x1="3069.0" x2="3197.0" y1="5.0" y2="133.0" /><line stroke="#333" stroke-width="10" x1="2693.0" x2="2693.0" y1="133.0" y2="229.0" /><line stroke="#333" stroke-width="10" x1="1989.0" x2="1989.0" y1="197.0" y2="325.0" /><line stroke="#999" stroke-width="3" x1="2117.0" x2="1989.0" y1="197.0" y2="197.0" /><line stroke="#333" stroke-width="10" x1="2053.0" x2="2117.0" y1="325.0" y2="197.0" /><line stroke="#333" stroke-width="10" x1="2053.0" x2="1989.0" y1="5.0" y2="197.0" /><line stroke="#999" stroke-width="3" x1="2181.0" x2="2053.0" y1="133.0" y2="5.0" /><line stroke="#333" stroke-width="10" x1="2117.0" x2="2181.0" y1="197.0" y2="133.0" /><line stroke="#333" stroke-width="10" x1="2181.0" x2="2693.0" y1="133.0" y2="133.0" /><line stroke="#333" stroke-width="10" x1="2693.0" x2="2053.0" y1="5.0" y2="5.0" /><line stroke="#999" stroke-width="3" x1="1989.0" x2="2053.0" y1="325.0" y2="325.0" /><line stroke="#333" stroke-width="10" x1="1893.0" x2="1925.0" y1="2949.0" y2="2949.0" /><line stroke="#0d0" stroke-width="20" x1="1829.0" x2="1893.0" y1="2949.0" y2="2949.0" /><line stroke="#999" stroke-width="3" x1="1989.0" x2="2053.0" y1="1285.0" y2="1285.0" /><line stroke="#666" stroke-width="20" x1="2309.0" x2="2309.0" y1="1221.0" y2="1157.0" /><line stroke="#333" stroke-width="10" x1="2501.0" x2="2469.0" y1="1221.0" y2="1205.0" /><line stroke="#333" stroke-width="10" x1="2501.0" x2="2565.0" y1="1349.0" y2="1285.0" /><line stroke="#333" stroke-width="10" x1="2373.0" x2="2501.0" y1="1413.0" y2="1349.0" /><line stroke="#333" stroke-width="10" x1="2085.0" x2="2373.0" y1="1413.0" y2="1413.0" /><line stroke="#999" stroke-width="3" x1="2085.0" x2="2085.0" y1="1349.0" y2="1413.0" /><line stroke="#333" stroke-width="10" x1="2373.0" x2="2085.0" y1="1349.0" y2="1349.0" /><line stroke="#333" stroke-width="10" x1="2437.0" x2="2373.0" y1="1285.0" y2="1349.0" /><line stroke="#333" stroke-width="10" x1="2309.0" x2="2373.0" y1="1221.0" y2="1221.0" /><line stroke="#333" stroke-width="10" x1="2373.0" x2="2309.0" y1="1157.0" y2="1157.0" /><line stroke="#999" stroke-width="3" x1="2373.0" x2="2373.0" y1="1157.0" y2="1221.0" /><line stroke="#333" stroke-width="10" x1="2021.0" x2="2085.0" y1="1349.0" y2="1413.0" /><line stroke="#666" stroke-width="20" x1="2085.0" x2="2021.0" y1="1349.0" y2="1349.0" /><line stroke="#333" stroke-width="10" x1="1989.0" x2="2021.0" y1="1285.0" y2="1349.0" /><line stroke="#333" stroke-width="10" x1="2085.0" x2="2053.0" y1="1349.0" y2="1285.0" /><line stroke="#333" stroke-width="10" x1="2565.0" x2="2501.0" y1="1285.0" y2="1221.0" /><line stroke="#d00" stroke-width="20" x1="2981.0" x2="2981.0" y1="645.0" y2="661.0" /><line stroke="#d00" stroke-width="20" x1="2949.0" x2="2949.0" y1="645.0" y2="517.0" /><line stroke="#333" stroke-width="10" x1="2053.0" x2="2053.0" y1="781.0" y2="773.0" /><line stroke="#333" stroke-width="10" x1="1989.0" x2="1989.0" y1="781.0" y2="789.0" /><line stroke="#d00" stroke-width="20" x1="2949.0" x2="2949.0" y1="517.0" y2="501.0" /><line stroke="#d00" stroke-width="20" x1="2981.0" x2="2981.0" y1="517.0" y2="645.0" /><line stroke="#d00" stroke-width="20" x1="1541.0" x2="1541.0" y1="2309.0" y2="2325.0" /><line stroke="#d00" stroke-width="20" x1="1541.0" x2="1541.0" y1="2181.0" y2="2309.0" /><line stroke="#333" stroke-width="10" x1="1989.0" x2="1925.0" y1="517.0" y2="517.0" /><line stroke="#333" stroke-width="10" x1="1989.0" x2="1989.0" y1="325.0" y2="389.0" /><line stroke="#333" stroke-width="10" x1="2053.0" x2="2053.0" y1="389.0" y2="325.0" /><line stroke="#d00" stroke-width="20" x1="1509.0" x2="1509.0" y1="2309.0" y2="2181.0" /><line stroke="#333" stroke-width="10" x1="2469.0" x2="2373.0" y1="1205.0" y2="1157.0" /><line stroke="#999" stroke-width="3" x1="2469.0" x2="2373.0" y1="1205.0" y2="1221.0" /><line stroke="#333" stroke-width="10" x1="2373.0" x2="2437.0" y1="1221.0" y2="1285.0" /><ellipse cx="1445.0" cy="1765.0" fill="#009" rx="12" ry="24" stroke="#009" stroke-width="5" /><circle cx="1445.0" cy="1702.0" fill="#900" r="16" stroke="#900" stroke-width="5" /><rect fill="#900" height="48" stroke="#900" stroke-width="5" transform="rotate(90,1328.0,1454.0)" width="32" x="1312.0" y="1430.0" /><rect fill="#900" height="48" stroke="#900" stroke-width="5" transform="rotate(90,1496.0,1462.0)" width="32" x="1480.0" y="1438.0" /><circle cx="1409.0" cy="1459.0" fill="#090" r="16" stroke="#090" stroke-width="5" /><rect fill="#090" height="24" stroke="#090" stroke-width="5" transform="rotate(270,2278.0,1255.0)" width="24" x="2266.0" y="1243.0" /><rect fill="#900" height="48" stroke="#900" stroke-width="5" transform="rotate(180,2279.0,1187.0)" width="32" x="2263.0" y="1163.0" /><circle cx="2231.0" cy="1255.0" fill="#009" r="16" stroke="#009" stroke-width="5" /><rect fill="#900" height="48" stroke="#900" stroke-width="5" transform="rotate(180,2229.0,1188.0)" width="32" x="2213.0" y="1164.0" /><rect fill="#900" height="48" stroke="#900" stroke-width="5" transform="rotate(90,1349.0,1220.0)" width="32" x="1333.0" y="1196.0" /><rect fill="#900" height="48" stroke="#900" stroke-width="5" transform="rotate(270,1731.0,1620.0)" width="32" x="1715.0" y="1596.0" /><rect fill="#900" height="48" stroke="#900" stroke-width="5" transform="rotate(90,1731.0,822.0)" width="32" x="1715.0" y="798.0" /><rect fill="#090" height="24" stroke="#090" stroke-width="5" transform="rotate(270,1323.0,1633.0)" width="24" x="1311.0" y="1621.0" /><rect fill="#900" height="48" stroke="#900" stroke-width="5" transform="rotate(90,2149.0,485.0)" width="32" x="2133.0" y="461.0" /><rect fill="#900" height="48" stroke="#900" stroke-width="5" transform="rotate(90,2021.0,485.0)" width="32" x="2005.0" y="461.0" /><rect fill="#900" height="48" stroke="#900" stroke-width="5" transform="rotate(90,2149.0,421.0)" width="32" x="2133.0" y="397.0" /><rect fill="#900" height="48" stroke="#900" stroke-width="5" transform="rotate(90,2021.0,421.0)" width="32" x="2005.0" y="397.0" /><rect fill="#900" height="48" stroke="#900" stroke-width="5" transform="rotate(90,2277.0,485.0)" width="32" x="2261.0" y="461.0" /><rect fill="#900" height="48" stroke="#900" stroke-width="5" transform="rotate(90,2277.0,421.0)" width="32" x="2261.0" y="397.0" /><rect fill="#900" height="48" stroke="#900" stroke-width="5" transform="rotate(270,2277.0,677.0)" width="32" x="2261.0" y="653.0" /><rect fill="#900" height="48" stroke="#900" stroke-width="5" transform="rotate(270,2277.0,741.0)" width="32" x="2261.0" y="717.0" /><rect fill="#900" height="48" stroke="#900" stroke-width="5" transform="rotate(270,2149.0,677.0)" width="32" x="2133.0" y="653.0" /><rect fill="#900" height="48" stroke="#900" stroke-width="5" transform="rotate(270,2149.0,741.0)" width="32" x="2133.0" y="717.0" /><rect fill="#900" height="48" stroke="#900" stroke-width="5" transform="rotate(270,2021.0,677.0)" width="32" x="2005.0" y="653.0" /><rect fill="#900" height="48" stroke="#900" stroke-width="5" transform="rotate(270,2021.0,741.0)" width="32" x="2005.0" y="717.0" /><circle cx="1925.0" cy="965.0" fill="#009" r="16" stroke="#009" stroke-width="5" /><circle cx="2309.0" cy="901.0" fill="#009" r="16" stroke="#009" stroke-width="5" /><rect fill="#900" height="48" stroke="#900" stroke-width="5" transform="rotate(270,1989.0,837.0)" width="32" x="1973.0" y="813.0" /><rect fill="#900" height="48" stroke="#900" stroke-width="5" transform="rotate(270,2053.0,837.0)" width="32" x="2037.0" y="813.0" /><rect fill="#090" height="24" stroke="#090" stroke-width="5" transform="rotate(270,2117.0,1029.0)" width="24" x="2105.0" y="1017.0" /><rect fill="#900" height="48" stroke="#900" stroke-width="5" transform="rotate(270,773.0,2821.0)" width="32" x="757.0" y="2797.0" /><rect fill="#900" height="48" stroke="#900" stroke-width="5" transform="rotate(90,773.0,1797.0)" width="32" x="757.0" y="1773.0" /><rect fill="#900" height="48" stroke="#900" stroke-width="5" transform="rotate(90,658.0,1801.0)" width="32" x="642.0" y="1777.0" /><rect fill="#900" height="48" stroke="#900" stroke-width="5" transform="rotate(90,892.0,1795.0)" width="32" x="876.0" y="1771.0" /><rect fill="#900" height="48" stroke="#900" stroke-width="5" transform="rotate(90,1000.0,1795.0)" width="32" x="984.0" y="1771.0" /><rect fill="#900" height="48" stroke="#900" stroke-width="5" transform="rotate(270,994.0,2749.0)" width="32" x="978.0" y="2725.0" /><rect fill="#900" height="48" stroke="#900" stroke-width="5" transform="rotate(270,886.0,2683.0)" width="32" x="870.0" y="2659.0" /><rect fill="#900" height="48" stroke="#900" stroke-width="5" transform="rotate(270,694.0,2689.0)" width="32" x="678.0" y="2665.0" /><rect fill="#090" height="24" stroke="#090" stroke-width="5" transform="rotate(0,206.0,2127.0)" width="24" x="194.0" y="2115.0" /><rect fill="#090" height="24" stroke="#090" stroke-width="5" transform="rotate(0,198.0,2365.0)" width="24" x="186.0" y="2353.0" /><circle cx="77.0" cy="2257.0" fill="#009" r="16" stroke="#009" stroke-width="5" /><rect fill="#900" height="48" stroke="#900" stroke-width="5" transform="rotate(270,2726.0,807.0)" width="32" x="2710.0" y="783.0" /><rect fill="#900" height="48" stroke="#900" stroke-width="5" transform="rotate(90,2729.0,352.0)" width="32" x="2713.0" y="328.0" /><rect fill="#090" height="24" stroke="#090" stroke-width="5" transform="rotate(270,1829.0,2661.0)" width="24" x="1817.0" y="2649.0" /><rect fill="#090" height="24" stroke="#090" stroke-width="5" transform="rotate(270,1925.0,2725.0)" width="24" x="1913.0" y="2713.0" /><rect fill="#090" height="24" stroke="#090" stroke-width="5" transform="rotate(270,1829.0,2725.0)" width="24" x="1817.0" y="2713.0" /><rect fill="#090" height="24" stroke="#090" stroke-width="5" transform="rotate(270,1925.0,2789.0)" width="24" x="1913.0" y="2777.0" /><rect fill="#090" height="24" stroke="#090" stroke-width="5" transform="rotate(270,1957.0,2853.0)" width="24" x="1945.0" y="2841.0" /><rect fill="#090" height="24" stroke="#090" stroke-width="5" transform="rotate(270,1829.0,2789.0)" width="24" x="1817.0" y="2777.0" /><circle cx="1829.0" cy="2885.0" fill="#009" r="16" stroke="#009" stroke-width="5" /><rect fill="#900" height="48" stroke="#900" stroke-width="5" transform="rotate(270,1742.0,2228.0)" width="32" x="1726.0" y="2204.0" /><rect fill="#900" height="48" stroke="#900" stroke-width="5" transform="rotate(270,2102.0,2278.0)" width="32" x="2086.0" y="2254.0" /><circle cx="2283.0" cy="1579.0" fill="#009" r="16" stroke="#009" stroke-width="5" /><circle cx="2349.0" cy="1579.0" fill="#009" r="16" stroke="#009" stroke-width="5" /><rect fill="#900" height="48" stroke="#900" stroke-width="5" transform="rotate(90,2697.0,1691.0)" width="32" x="2681.0" y="1667.0" /><rect fill="#900" height="48" stroke="#900" stroke-width="5" transform="rotate(90,2821.0,1687.0)" width="32" x="2805.0" y="1663.0" /><rect fill="#900" height="48" stroke="#900" stroke-width="5" transform="rotate(90,2837.0,1575.0)" width="32" x="2821.0" y="1551.0" /><rect fill="#900" height="48" stroke="#900" stroke-width="5" transform="rotate(90,2721.0,1575.0)" width="32" x="2705.0" y="1551.0" /><rect fill="#900" height="48" stroke="#900" stroke-width="5" transform="rotate(90,2749.0,1331.0)" width="32" x="2733.0" y="1307.0" /><rect fill="#900" height="48" stroke="#900" stroke-width="5" transform="rotate(90,2753.0,1087.0)" width="32" x="2737.0" y="1063.0" /><rect fill="#900" height="48" stroke="#900" stroke-width="5" transform="rotate(90,2772.0,1782.0)" width="32" x="2756.0" y="1758.0" /><rect fill="#900" height="48" stroke="#900" stroke-width="5" transform="rotate(90,2764.0,2050.0)" width="32" x="2748.0" y="2026.0" /><rect fill="#900" height="48" stroke="#900" stroke-width="5" transform="rotate(90,2760.0,1938.0)" width="32" x="2744.0" y="1914.0" /><rect fill="#900" height="48" stroke="#900" stroke-width="5" transform="rotate(90,2765.0,1199.0)" width="32" x="2749.0" y="1175.0" /><rect fill="#900" height="48" stroke="#900" stroke-width="5" transform="rotate(90,2773.0,1467.0)" width="32" x="2757.0" y="1443.0" /><rect fill="#900" height="48" stroke="#900" stroke-width="5" transform="rotate(270,1945.0,2079.0)" width="32" x="1929.0" y="2055.0" /><rect fill="#900" height="48" stroke="#900" stroke-width="5" transform="rotate(270,1917.0,2419.0)" width="32" x="1901.0" y="2395.0" /><rect fill="#900" height="48" stroke="#900" stroke-width="5" transform="rotate(270,1697.0,2419.0)" width="32" x="1681.0" y="2395.0" /><rect fill="#900" height="48" stroke="#900" stroke-width="5" transform="rotate(270,2137.0,2419.0)" width="32" x="2121.0" y="2395.0" /><rect fill="#900" height="48" stroke="#900" stroke-width="5" transform="rotate(270,1933.0,2279.0)" width="32" x="1917.0" y="2255.0" /><rect fill="#900" height="48" stroke="#900" stroke-width="5" transform="rotate(270,1781.0,2047.0)" width="32" x="1765.0" y="2023.0" /><rect fill="#900" height="48" stroke="#900" stroke-width="5" transform="rotate(270,2089.0,2059.0)" width="32" x="2073.0" y="2035.0" /><rect fill="#900" height="48" stroke="#900" stroke-width="5" transform="rotate(270,1737.0,1311.0)" width="32" x="1721.0" y="1287.0" /><rect fill="#900" height="48" stroke="#900" stroke-width="5" transform="rotate(270,1737.0,1147.0)" width="32" x="1721.0" y="1123.0" /><ellipse cx="2780.0" cy="867.0" fill="#090" rx="12" ry="24" stroke="#090" stroke-width="5" /><ellipse cx="2787.0" cy="294.0" fill="#090" rx="12" ry="24" stroke="#090" stroke-width="5" /><rect fill="#900" height="48" stroke="#900" stroke-width="5" transform="rotate(0,3173.0,293.0)" width="32" x="3157.0" y="269.0" /><rect fill="#900" height="48" stroke="#900" stroke-width="5" transform="rotate(180,3365.0,357.0)" width="32" x="3349.0" y="333.0" /><rect fill="#900" height="48" stroke="#900" stroke-width="5" transform="rotate(180,3365.0,229.0)" width="32" x="3349.0" y="205.0" /><circle cx="2335.0" cy="577.0" fill="#009" r="16" stroke="#009" stroke-width="5" /><circle cx="1631.0" cy="1122.0" fill="#009" r="16" stroke="#009" stroke-width="5" /><circle cx="1636.0" cy="1322.0" fill="#009" r="16" stroke="#009" stroke-width="5" /><circle cx="1831.0" cy="1332.0" fill="#009" r="16" stroke="#009" stroke-width="5" /><circle cx="1836.0" cy="1107.0" fill="#009" r="16" stroke="#009" stroke-width="5" /><circle cx="3651.0" cy="837.0" fill="#900" r="16" stroke="#900" stroke-width="5" /><circle cx="2381.0" cy="1637.0" fill="#900" r="16" stroke="#900" stroke-width="5" /><rect fill="#900" height="48" stroke="#900" stroke-width="5" transform="rotate(270,1648.0,2095.0)" width="32" x="1632.0" y="2071.0" /><rect fill="#900" height="48" stroke="#900" stroke-width="5" transform="rotate(270,1846.0,2155.0)" width="32" x="1830.0" y="2131.0" /><rect fill="#900" height="48" stroke="#900" stroke-width="5" transform="rotate(270,1816.0,2347.0)" width="32" x="1800.0" y="2323.0" /><rect fill="#900" height="48" stroke="#900" stroke-width="5" transform="rotate(270,1816.0,2461.0)" width="32" x="1800.0" y="2437.0" /><rect fill="#900" height="48" stroke="#900" stroke-width="5" transform="rotate(270,1642.0,2341.0)" width="32" x="1626.0" y="2317.0" /><rect fill="#900" height="48" stroke="#900" stroke-width="5" transform="rotate(270,2206.0,2107.0)" width="32" x="2190.0" y="2083.0" /><rect fill="#900" height="48" stroke="#900" stroke-width="5" transform="rotate(90,2638.0,1585.0)" width="32" x="2622.0" y="1561.0" /><rect fill="#900" height="48" stroke="#900" stroke-width="5" transform="rotate(90,2782.0,1621.0)" width="32" x="2766.0" y="1597.0" /><rect fill="#900" height="48" stroke="#900" stroke-width="5" transform="rotate(90,2740.0,1861.0)" width="32" x="2724.0" y="1837.0" /><rect fill="#900" height="48" stroke="#900" stroke-width="5" transform="rotate(270,2062.0,895.0)" width="32" x="2046.0" y="871.0" /><rect fill="#900" height="48" stroke="#900" stroke-width="5" transform="rotate(270,2194.0,895.0)" width="32" x="2178.0" y="871.0" /><rect fill="#900" height="48" stroke="#900" stroke-width="5" transform="rotate(90,2722.0,289.0)" width="32" x="2706.0" y="265.0" /><rect fill="#900" height="48" stroke="#900" stroke-width="5" transform="rotate(270,2788.0,802.0)" width="32" x="2772.0" y="778.0" /><rect fill="#900" height="48" stroke="#900" stroke-width="5" transform="rotate(180,3043.0,583.0)" width="32" x="3027.0" y="559.0" /><rect fill="#900" height="48" stroke="#900" stroke-width="5" transform="rotate(180,3118.0,583.0)" width="32" x="3102.0" y="559.0" /><rect fill="#900" height="48" stroke="#900" stroke-width="5" transform="rotate(0,3016.0,67.0)" width="32" x="3000.0" y="43.0" /><rect fill="#900" height="48" stroke="#900" stroke-width="5" transform="rotate(0,2410.0,70.0)" width="32" x="2394.0" y="46.0" /><circle cx="1901.0" cy="2893.0" fill="#009" r="16" stroke="#009" stroke-width="5" /><rect fill="#900" height="48" stroke="#900" stroke-width="5" transform="rotate(90,117.0,2149.0)" width="32" x="101.0" y="2125.0" /><circle cx="1478.0" cy="2244.0" fill="#009" r="16" stroke="#009" stroke-width="5" /><circle cx="119.0" cy="2337.0" fill="#009" r="16" stroke="#009" stroke-width="5" /><circle cx="1409.0" cy="2247.0" fill="#009" r="16" stroke="#009" stroke-width="5" /><circle cx="1645.0" cy="1981.0" fill="#009" r="16" stroke="#009" stroke-width="5" /><circle cx="1645.0" cy="2477.0" fill="#009" r="16" stroke="#009" stroke-width="5" /><circle cx="2693.0" cy="1501.0" fill="#009" r="16" stroke="#009" stroke-width="5" /><circle cx="2741.0" cy="2141.0" fill="#009" r="16" stroke="#009" stroke-width="5" /><circle cx="2237.0" cy="69.0" fill="#009" r="16" stroke="#009" stroke-width="5" /></svg>