<?xml version="1.0" encoding="utf-8" ?>
<svg baseProfile="tiny" height="1024" version="1.2" viewBox="0 0 1074 2346" width="468" xmlns="http://www.w3.org/2000/svg" xmlns:ev="http://www.w3.org/2001/xml-events" xmlns:xlink="http://www.w3.org/1999/xlink"><defs /><line stroke="#333" stroke-width="10" x1="533.0" x2="533.0" y1="997.0" y2="1117.0" /><line stroke="#333" stroke-width="10" x1="661.0" x2="661.0" y1="1429.0" y2="1245.0" /><line stroke="#666" stroke-width="20" x1="533.0" x2="661.0" y1="1429.0" y2="1429.0" /><line stroke="#333" stroke-width="10" x1="661.0" x2="661.0" y1="997.0" y2="989.0" /><line stroke="#d00" stroke-width="20" x1="661.0" x2="533.0" y1="989.0" y2="989.0" /><line stroke="#333" stroke-width="10" x1="533.0" x2="533.0" y1="989.0" y2="997.0" /><line stroke="#333" stroke-width="10" x1="533.0" x2="533.0" y1="1429.0" y2="1437.0" /><line stroke="#666" stroke-width="20" x1="661.0" x2="533.0" y1="1437.0" y2="1437.0" /><line stroke="#333" stroke-width="10" x1="661.0" x2="661.0" y1="1437.0" y2="1429.0" /><line stroke="#333" stroke-width="10" x1="533.0" x2="517.0" y1="1437.0" y2="1437.0" /><line stroke="#333" stroke-width="10" x1="517.0" x2="517.0" y1="1437.0" y2="1373.0" /><line stroke="#333" stroke-width="10" x1="517.0" x2="453.0" y1="1373.0" y2="1373.0" /><line stroke="#333" stroke-width="10" x1="677.0" x2="661.0" y1="1437.0" y2="1437.0" /><line stroke="#333" stroke-width="10" x1="677.0" x2="677.0" y1="1373.0" y2="1437.0" /><line stroke="#333" stroke-width="10" x1="741.0" x2="677.0" y1="1373.0" y2="1373.0" /><line stroke="#333" stroke-width="10" x1="741.0" x2="741.0" y1="1533.0" y2="1373.0" /><line stroke="#999" stroke-width="3" x1="741.0" x2="669.0" y1="1533.0" y2="1533.0" /><line stroke="#333" stroke-width="10" x1="453.0" x2="453.0" y1="1373.0" y2="1533.0" /><line stroke="#333" stroke-width="10" x1="453.0" x2="453.0" y1="1533.0" y2="1653.0" /><line stroke="#333" stroke-width="10" x1="453.0" x2="541.0" y1="1653.0" y2="1653.0" /><line stroke="#333" stroke-width="10" x1="741.0" x2="741.0" y1="1653.0" y2="1533.0" /><line stroke="#999" stroke-width="3" x1="541.0" x2="453.0" y1="1533.0" y2="1533.0" /><line stroke="#999" stroke-width="3" x1="541.0" x2="541.0" y1="1533.0" y2="1653.0" /><line stroke="#666" stroke-width="20" x1="541.0" x2="669.0" y1="1653.0" y2="1653.0" /><line stroke="#333" stroke-width="10" x1="669.0" x2="741.0" y1="1653.0" y2="1653.0" /><line stroke="#999" stroke-width="3" x1="669.0" x2="669.0" y1="1653.0" y2="1533.0" /><line stroke="#999" stroke-width="3" x1="669.0" x2="541.0" y1="1533.0" y2="1533.0" /><line stroke="#333" stroke-width="10" x1="541.0" x2="541.0" y1="1653.0" y2="1661.0" /><line stroke="#666" stroke-width="20" x1="669.0" x2="541.0" y1="1661.0" y2="1661.0" /><line stroke="#333" stroke-width="10" x1="669.0" x2="669.0" y1="1661.0" y2="1653.0" /><line stroke="#333" stroke-width="10" x1="541.0" x2="237.0" y1="1661.0" y2="1661.0" /><line stroke="#333" stroke-width="10" x1="941.0" x2="669.0" y1="1661.0" y2="1661.0" /><line stroke="#333" stroke-width="10" x1="941.0" x2="941.0" y1="2341.0" y2="1661.0" /><line stroke="#333" stroke-width="10" x1="237.0" x2="237.0" y1="1661.0" y2="2333.0" /><line stroke="#333" stroke-width="10" x1="333.0" x2="333.0" y1="2333.0" y2="2117.0" /><line stroke="#333" stroke-width="10" x1="237.0" x2="333.0" y1="2333.0" y2="2333.0" /><line stroke="#333" stroke-width="10" x1="845.0" x2="941.0" y1="2341.0" y2="2341.0" /><line stroke="#333" stroke-width="10" x1="845.0" x2="845.0" y1="2117.0" y2="2341.0" /><line stroke="#333" stroke-width="10" x1="533.0" x2="533.0" y1="981.0" y2="989.0" /><line stroke="#d00" stroke-width="20" x1="533.0" x2="661.0" y1="981.0" y2="981.0" /><line stroke="#333" stroke-width="10" x1="661.0" x2="661.0" y1="989.0" y2="981.0" /><line stroke="#333" stroke-width="10" x1="533.0" x2="533.0" y1="933.0" y2="981.0" /><line stroke="#333" stroke-width="10" x1="365.0" x2="533.0" y1="933.0" y2="933.0" /><line stroke="#333" stroke-width="10" x1="365.0" x2="365.0" y1="261.0" y2="933.0" /><line stroke="#333" stroke-width="10" x1="813.0" x2="813.0" y1="933.0" y2="773.0" /><line stroke="#333" stroke-width="10" x1="661.0" x2="813.0" y1="933.0" y2="933.0" /><line stroke="#333" stroke-width="10" x1="661.0" x2="661.0" y1="981.0" y2="933.0" /><line stroke="#333" stroke-width="10" x1="813.0" x2="621.0" y1="261.0" y2="261.0" /><line stroke="#999" stroke-width="3" x1="701.0" x2="445.0" y1="757.0" y2="757.0" /><line stroke="#999" stroke-width="3" x1="445.0" x2="445.0" y1="757.0" y2="733.0" /><line stroke="#999" stroke-width="3" x1="445.0" x2="701.0" y1="325.0" y2="325.0" /><line stroke="#999" stroke-width="3" x1="701.0" x2="701.0" y1="325.0" y2="733.0" /><line stroke="#333" stroke-width="10" x1="661.0" x2="669.0" y1="1245.0" y2="1245.0" /><line stroke="#d00" stroke-width="20" x1="669.0" x2="669.0" y1="1245.0" y2="1117.0" /><line stroke="#333" stroke-width="10" x1="669.0" x2="661.0" y1="1117.0" y2="1117.0" /><line stroke="#333" stroke-width="10" x1="661.0" x2="661.0" y1="1117.0" y2="997.0" /><line stroke="#333" stroke-width="10" x1="533.0" x2="525.0" y1="1117.0" y2="1117.0" /><line stroke="#d00" stroke-width="20" x1="525.0" x2="525.0" y1="1117.0" y2="1245.0" /><line stroke="#333" stroke-width="10" x1="525.0" x2="533.0" y1="1245.0" y2="1245.0" /><line stroke="#333" stroke-width="10" x1="533.0" x2="533.0" y1="1245.0" y2="1429.0" /><line stroke="#333" stroke-width="10" x1="669.0" x2="677.0" y1="1245.0" y2="1245.0" /><line stroke="#d00" stroke-width="20" x1="677.0" x2="677.0" y1="1117.0" y2="1245.0" /><line stroke="#333" stroke-width="10" x1="677.0" x2="669.0" y1="1117.0" y2="1117.0" /><line stroke="#333" stroke-width="10" x1="525.0" x2="517.0" y1="1117.0" y2="1117.0" /><line stroke="#d00" stroke-width="20" x1="517.0" x2="517.0" y1="1245.0" y2="1117.0" /><line stroke="#333" stroke-width="10" x1="517.0" x2="525.0" y1="1245.0" y2="1245.0" /><line stroke="#333" stroke-width="10" x1="677.0" x2="821.0" y1="1245.0" y2="1245.0" /><line stroke="#333" stroke-width="10" x1="821.0" x2="821.0" y1="1245.0" y2="1061.0" /><line stroke="#333" stroke-width="10" x1="821.0" x2="757.0" y1="1061.0" y2="1061.0" /><line stroke="#333" stroke-width="10" x1="757.0" x2="757.0" y1="1061.0" y2="1117.0" /><line stroke="#333" stroke-width="10" x1="757.0" x2="677.0" y1="1117.0" y2="1117.0" /><line stroke="#666" stroke-width="20" x1="405.0" x2="405.0" y1="1117.0" y2="1245.0" /><line stroke="#333" stroke-width="10" x1="517.0" x2="405.0" y1="1117.0" y2="1117.0" /><line stroke="#333" stroke-width="10" x1="405.0" x2="397.0" y1="1245.0" y2="1245.0" /><line stroke="#666" stroke-width="20" x1="397.0" x2="397.0" y1="1245.0" y2="1117.0" /><line stroke="#333" stroke-width="10" x1="405.0" x2="397.0" y1="1117.0" y2="1117.0" /><line stroke="#333" stroke-width="10" x1="5.0" x2="5.0" y1="1149.0" y2="1277.0" /><line stroke="#333" stroke-width="10" x1="5.0" x2="317.0" y1="1277.0" y2="1277.0" /><line stroke="#333" stroke-width="10" x1="349.0" x2="5.0" y1="1149.0" y2="1149.0" /><line stroke="#333" stroke-width="10" x1="349.0" x2="349.0" y1="1117.0" y2="1149.0" /><line stroke="#333" stroke-width="10" x1="397.0" x2="349.0" y1="1117.0" y2="1117.0" /><line stroke="#333" stroke-width="10" x1="349.0" x2="349.0" y1="1213.0" y2="1245.0" /><line stroke="#333" stroke-width="10" x1="349.0" x2="397.0" y1="1245.0" y2="1245.0" /><line stroke="#333" stroke-width="10" x1="405.0" x2="517.0" y1="1245.0" y2="1245.0" /><line stroke="#333" stroke-width="10" x1="333.0" x2="845.0" y1="2117.0" y2="2117.0" /><line stroke="#333" stroke-width="10" x1="557.0" x2="365.0" y1="261.0" y2="261.0" /><line stroke="#999" stroke-width="3" x1="557.0" x2="621.0" y1="261.0" y2="261.0" /><line stroke="#333" stroke-width="10" x1="621.0" x2="621.0" y1="261.0" y2="229.0" /><line stroke="#999" stroke-width="3" x1="621.0" x2="557.0" y1="133.0" y2="133.0" /><line stroke="#333" stroke-width="10" x1="557.0" x2="557.0" y1="133.0" y2="165.0" /><line stroke="#333" stroke-width="10" x1="557.0" x2="557.0" y1="197.0" y2="229.0" /><line stroke="#999" stroke-width="3" x1="621.0" x2="557.0" y1="197.0" y2="197.0" /><line stroke="#333" stroke-width="10" x1="621.0" x2="621.0" y1="197.0" y2="165.0" /><line stroke="#333" stroke-width="10" x1="621.0" x2="621.0" y1="229.0" y2="197.0" /><line stroke="#999" stroke-width="3" x1="621.0" x2="557.0" y1="229.0" y2="229.0" /><line stroke="#333" stroke-width="10" x1="557.0" x2="557.0" y1="229.0" y2="261.0" /><line stroke="#333" stroke-width="10" x1="557.0" x2="557.0" y1="165.0" y2="197.0" /><line stroke="#999" stroke-width="3" x1="621.0" x2="557.0" y1="165.0" y2="165.0" /><line stroke="#333" stroke-width="10" x1="621.0" x2="621.0" y1="165.0" y2="133.0" /><line stroke="#0d0" stroke-width="20" x1="621.0" x2="557.0" y1="5.0" y2="5.0" /><line stroke="#333" stroke-width="10" x1="557.0" x2="557.0" y1="5.0" y2="133.0" /><line stroke="#333" stroke-width="10" x1="621.0" x2="621.0" y1="133.0" y2="5.0" /><line stroke="#333" stroke-width="10" x1="317.0" x2="349.0" y1="1213.0" y2="1213.0" /><line stroke="#333" stroke-width="10" x1="317.0" x2="317.0" y1="1277.0" y2="1213.0" /><line stroke="#999" stroke-width="3" x1="445.0" x2="445.0" y1="733.0" y2="325.0" /><line stroke="#00d" stroke-width="20" x1="445.0" x2="701.0" y1="733.0" y2="733.0" /><line stroke="#999" stroke-width="3" x1="701.0" x2="701.0" y1="733.0" y2="757.0" /><line stroke="#666" stroke-width="20" x1="813.0" x2="813.0" y1="773.0" y2="709.0" /><line stroke="#333" stroke-width="10" x1="813.0" x2="821.0" y1="773.0" y2="773.0" /><line stroke="#666" stroke-width="20" x1="821.0" x2="821.0" y1="709.0" y2="773.0" /><line stroke="#333" stroke-width="10" x1="821.0" x2="813.0" y1="709.0" y2="709.0" /><line stroke="#333" stroke-width="10" x1="813.0" x2="813.0" y1="709.0" y2="261.0" /><line stroke="#333" stroke-width="10" x1="821.0" x2="1069.0" y1="773.0" y2="773.0" /><line stroke="#333" stroke-width="10" x1="1069.0" x2="1069.0" y1="773.0" y2="709.0" /><line stroke="#333" stroke-width="10" x1="1069.0" x2="821.0" y1="709.0" y2="709.0" /><rect fill="#090" height="24" stroke="#090" stroke-width="5" transform="rotate(0,549.0,1647.0)" width="24" x="537.0" y="1635.0" /><rect fill="#090" height="24" stroke="#090" stroke-width="5" transform="rotate(0,661.0,1646.0)" width="24" x="649.0" y="1634.0" /><circle cx="895.0" cy="2304.0" fill="#900" r="16" stroke="#900" stroke-width="5" /><ellipse cx="343.0" cy="1177.0" fill="#090" rx="12" ry="24" stroke="#090" stroke-width="5" /><ellipse cx="285.0" cy="2297.0" fill="#090" rx="12" ry="24" stroke="#090" stroke-width="5" /><ellipse cx="789.0" cy="1079.0" fill="#090" rx="12" ry="24" stroke="#090" stroke-width="5" /><circle cx="592.0" cy="2095.0" fill="#009" r="16" stroke="#009" stroke-width="5" /><ellipse cx="597.0" cy="1197.0" fill="#009" rx="12" ry="24" stroke="#009" stroke-width="5" /><circle cx="895.0" cy="2267.0" fill="#009" r="16" stroke="#009" stroke-width="5" /><circle cx="515.0" cy="915.0" fill="#090" r="16" stroke="#090" stroke-width="5" /><circle cx="375.0" cy="919.0" fill="#090" r="16" stroke="#090" stroke-width="5" /><circle cx="675.0" cy="913.0" fill="#090" r="16" stroke="#090" stroke-width="5" /><circle cx="771.0" cy="919.0" fill="#090" r="16" stroke="#090" stroke-width="5" /><circle cx="759.0" cy="267.0" fill="#090" r="16" stroke="#090" stroke-width="5" /><circle cx="385.0" cy="263.0" fill="#090" r="16" stroke="#090" stroke-width="5" /><circle cx="767.0" cy="579.0" fill="#090" r="16" stroke="#090" stroke-width="5" /><circle cx="383.0" cy="573.0" fill="#090" r="16" stroke="#090" stroke-width="5" /><circle cx="381.0" cy="775.0" fill="#090" r="16" stroke="#090" stroke-width="5" /><circle cx="771.0" cy="779.0" fill="#090" r="16" stroke="#090" stroke-width="5" /><circle cx="767.0" cy="369.0" fill="#090" r="16" stroke="#090" stroke-width="5" /><circle cx="383.0" cy="359.0" fill="#090" r="16" stroke="#090" stroke-width="5" /><rect fill="#900" height="48" stroke="#900" stroke-width="5" transform="rotate(0,257.0,2045.0)" width="32" x="241.0" y="2021.0" /><rect fill="#900" height="48" stroke="#900" stroke-width="5" transform="rotate(0,253.0,1711.0)" width="32" x="237.0" y="1687.0" /><rect fill="#900" height="48" stroke="#900" stroke-width="5" transform="rotate(180,907.0,1711.0)" width="32" x="891.0" y="1687.0" /><rect fill="#900" height="48" stroke="#900" stroke-width="5" transform="rotate(180,913.0,2087.0)" width="32" x="897.0" y="2063.0" /><rect fill="#090" height="24" stroke="#090" stroke-width="5" transform="rotate(270,281.0,2175.0)" width="24" x="269.0" y="2163.0" /><rect fill="#090" height="24" stroke="#090" stroke-width="5" transform="rotate(270,897.0,2171.0)" width="24" x="885.0" y="2159.0" /><rect fill="#900" height="48" stroke="#900" stroke-width="5" transform="rotate(270,577.0,1777.0)" width="32" x="561.0" y="1753.0" /><rect fill="#900" height="48" stroke="#900" stroke-width="5" transform="rotate(270,631.0,1777.0)" width="32" x="615.0" y="1753.0" /><rect fill="#900" height="48" stroke="#900" stroke-width="5" transform="rotate(90,483.0,1395.0)" width="32" x="467.0" y="1371.0" /><rect fill="#900" height="48" stroke="#900" stroke-width="5" transform="rotate(90,707.0,1399.0)" width="32" x="691.0" y="1375.0" /><rect fill="#900" height="48" stroke="#900" stroke-width="5" transform="rotate(180,735.0,1177.0)" width="32" x="719.0" y="1153.0" /><rect fill="#900" height="48" stroke="#900" stroke-width="5" transform="rotate(90,590.0,286.0)" width="32" x="574.0" y="262.0" /><rect fill="#900" height="48" stroke="#900" stroke-width="5" transform="rotate(0,27.0,1215.0)" width="32" x="11.0" y="1191.0" /><rect fill="#900" height="48" stroke="#900" stroke-width="5" transform="rotate(0,117.0,1211.0)" width="32" x="101.0" y="1187.0" /><rect fill="#900" height="48" stroke="#900" stroke-width="5" transform="rotate(270,281.0,1255.0)" width="32" x="265.0" y="1231.0" /><rect fill="#900" height="48" stroke="#900" stroke-width="5" transform="rotate(90,285.0,1165.0)" width="32" x="269.0" y="1141.0" /><rect fill="#090" height="24" stroke="#090" stroke-width="5" transform="rotate(0,71.0,1257.0)" width="24" x="59.0" y="1245.0" /><rect fill="#090" height="24" stroke="#090" stroke-width="5" transform="rotate(0,71.0,1165.0)" width="24" x="59.0" y="1153.0" /><rect fill="#090" height="24" stroke="#090" stroke-width="5" transform="rotate(0,143.0,1253.0)" width="24" x="131.0" y="1241.0" /><rect fill="#090" height="24" stroke="#090" stroke-width="5" transform="rotate(0,141.0,1173.0)" width="24" x="129.0" y="1161.0" /><rect fill="#090" height="24" stroke="#090" stroke-width="5" transform="rotate(0,201.0,1255.0)" width="24" x="189.0" y="1243.0" /><rect fill="#090" height="24" stroke="#090" stroke-width="5" transform="rotate(0,201.0,1171.0)" width="24" x="189.0" y="1159.0" /><circle cx="509.0" cy="1961.0" fill="#090" r="16" stroke="#090" stroke-width="5" /><circle cx="693.0" cy="1961.0" fill="#090" r="16" stroke="#090" stroke-width="5" /><circle cx="485.0" cy="1715.0" fill="#090" r="16" stroke="#090" stroke-width="5" /><circle cx="717.0" cy="1715.0" fill="#090" r="16" stroke="#090" stroke-width="5" /><circle cx="1036.0" cy="740.0" fill="#900" r="16" stroke="#900" stroke-width="5" /><rect fill="#009" height="24" stroke="#009" stroke-width="5" transform="rotate(0,890.0,739.0)" width="24" x="878.0" y="727.0" /></svg>