<?xml version="1.0" encoding="utf-8" ?>
<svg baseProfile="tiny" height="246" version="1.2" viewBox="0 0 4298 1034" width="1024" xmlns="http://www.w3.org/2000/svg" xmlns:ev="http://www.w3.org/2001/xml-events" xmlns:xlink="http://www.w3.org/1999/xlink"><defs /><line stroke="#333" stroke-width="10" x1="1285.0" x2="901.0" y1="5.0" y2="5.0" /><line stroke="#999" stroke-width="3" x1="1285.0" x2="1285.0" y1="261.0" y2="5.0" /><line stroke="#333" stroke-width="10" x1="901.0" x2="1285.0" y1="261.0" y2="261.0" /><line stroke="#333" stroke-width="10" x1="901.0" x2="901.0" y1="5.0" y2="261.0" /><line stroke="#333" stroke-width="10" x1="1413.0" x2="1285.0" y1="5.0" y2="5.0" /><line stroke="#999" stroke-width="3" x1="1413.0" x2="1413.0" y1="261.0" y2="5.0" /><line stroke="#333" stroke-width="10" x1="1285.0" x2="1413.0" y1="261.0" y2="261.0" /><line stroke="#333" stroke-width="10" x1="1541.0" x2="1413.0" y1="5.0" y2="5.0" /><line stroke="#999" stroke-width="3" x1="1541.0" x2="1541.0" y1="261.0" y2="5.0" /><line stroke="#333" stroke-width="10" x1="1413.0" x2="1541.0" y1="261.0" y2="261.0" /><line stroke="#333" stroke-width="10" x1="1669.0" x2="1541.0" y1="5.0" y2="5.0" /><line stroke="#999" stroke-width="3" x1="1669.0" x2="1669.0" y1="261.0" y2="5.0" /><line stroke="#333" stroke-width="10" x1="1541.0" x2="1669.0" y1="261.0" y2="261.0" /><line stroke="#333" stroke-width="10" x1="1797.0" x2="1669.0" y1="5.0" y2="5.0" /><line stroke="#999" stroke-width="3" x1="1797.0" x2="1797.0" y1="261.0" y2="5.0" /><line stroke="#333" stroke-width="10" x1="1669.0" x2="1797.0" y1="261.0" y2="261.0" /><line stroke="#333" stroke-width="10" x1="2053.0" x2="1797.0" y1="5.0" y2="5.0" /><line stroke="#999" stroke-width="3" x1="2053.0" x2="2053.0" y1="261.0" y2="5.0" /><line stroke="#333" stroke-width="10" x1="1797.0" x2="2053.0" y1="261.0" y2="261.0" /><line stroke="#333" stroke-width="10" x1="2181.0" x2="2053.0" y1="5.0" y2="5.0" /><line stroke="#999" stroke-width="3" x1="2181.0" x2="2181.0" y1="261.0" y2="5.0" /><line stroke="#333" stroke-width="10" x1="2053.0" x2="2181.0" y1="261.0" y2="261.0" /><line stroke="#333" stroke-width="10" x1="2437.0" x2="2181.0" y1="5.0" y2="5.0" /><line stroke="#999" stroke-width="3" x1="2437.0" x2="2437.0" y1="261.0" y2="5.0" /><line stroke="#333" stroke-width="10" x1="2181.0" x2="2405.0" y1="261.0" y2="261.0" /><line stroke="#333" stroke-width="10" x1="2501.0" x2="2437.0" y1="5.0" y2="5.0" /><line stroke="#999" stroke-width="3" x1="2501.0" x2="2501.0" y1="261.0" y2="5.0" /><line stroke="#333" stroke-width="10" x1="2437.0" x2="2501.0" y1="261.0" y2="261.0" /><line stroke="#333" stroke-width="10" x1="2181.0" x2="2405.0" y1="261.0" y2="261.0" /><line stroke="#333" stroke-width="10" x1="2437.0" x2="2181.0" y1="5.0" y2="5.0" /><line stroke="#999" stroke-width="3" x1="2181.0" x2="2181.0" y1="261.0" y2="5.0" /><line stroke="#333" stroke-width="10" x1="2565.0" x2="2501.0" y1="5.0" y2="5.0" /><line stroke="#999" stroke-width="3" x1="2565.0" x2="2565.0" y1="261.0" y2="5.0" /><line stroke="#333" stroke-width="10" x1="2501.0" x2="2565.0" y1="261.0" y2="261.0" /><line stroke="#333" stroke-width="10" x1="2629.0" x2="2565.0" y1="5.0" y2="5.0" /><line stroke="#999" stroke-width="3" x1="2629.0" x2="2629.0" y1="261.0" y2="5.0" /><line stroke="#333" stroke-width="10" x1="2565.0" x2="2629.0" y1="261.0" y2="261.0" /><line stroke="#333" stroke-width="10" x1="2693.0" x2="2629.0" y1="5.0" y2="5.0" /><line stroke="#999" stroke-width="3" x1="2693.0" x2="2693.0" y1="261.0" y2="5.0" /><line stroke="#333" stroke-width="10" x1="2629.0" x2="2693.0" y1="261.0" y2="261.0" /><line stroke="#333" stroke-width="10" x1="2757.0" x2="2693.0" y1="5.0" y2="5.0" /><line stroke="#999" stroke-width="3" x1="2757.0" x2="2757.0" y1="261.0" y2="5.0" /><line stroke="#333" stroke-width="10" x1="2693.0" x2="2757.0" y1="261.0" y2="261.0" /><line stroke="#333" stroke-width="10" x1="2821.0" x2="2757.0" y1="5.0" y2="5.0" /><line stroke="#999" stroke-width="3" x1="2821.0" x2="2821.0" y1="261.0" y2="5.0" /><line stroke="#333" stroke-width="10" x1="2757.0" x2="2821.0" y1="261.0" y2="261.0" /><line stroke="#333" stroke-width="10" x1="2405.0" x2="2437.0" y1="261.0" y2="261.0" /><line stroke="#333" stroke-width="10" x1="3205.0" x2="2821.0" y1="5.0" y2="5.0" /><line stroke="#999" stroke-width="3" x1="3205.0" x2="3205.0" y1="261.0" y2="5.0" /><line stroke="#333" stroke-width="10" x1="2821.0" x2="3205.0" y1="261.0" y2="261.0" /><line stroke="#333" stroke-width="10" x1="3781.0" x2="3205.0" y1="5.0" y2="5.0" /><line stroke="#666" stroke-width="20" x1="3781.0" x2="3781.0" y1="261.0" y2="5.0" /><line stroke="#333" stroke-width="10" x1="3205.0" x2="3781.0" y1="261.0" y2="261.0" /><line stroke="#333" stroke-width="10" x1="3845.0" x2="3781.0" y1="5.0" y2="5.0" /><line stroke="#666" stroke-width="20" x1="3845.0" x2="3845.0" y1="5.0" y2="261.0" /><line stroke="#333" stroke-width="10" x1="3781.0" x2="3845.0" y1="261.0" y2="261.0" /><line stroke="#333" stroke-width="10" x1="4229.0" x2="3845.0" y1="5.0" y2="5.0" /><line stroke="#333" stroke-width="10" x1="4229.0" x2="4229.0" y1="261.0" y2="197.0" /><line stroke="#333" stroke-width="10" x1="3845.0" x2="4229.0" y1="261.0" y2="261.0" /><line stroke="#333" stroke-width="10" x1="4229.0" x2="4229.0" y1="133.0" y2="5.0" /><line stroke="#00d" stroke-width="20" x1="4229.0" x2="4229.0" y1="197.0" y2="133.0" /><line stroke="#333" stroke-width="10" x1="4293.0" x2="4229.0" y1="133.0" y2="133.0" /><line stroke="#333" stroke-width="10" x1="4293.0" x2="4293.0" y1="197.0" y2="133.0" /><line stroke="#333" stroke-width="10" x1="4229.0" x2="4293.0" y1="197.0" y2="197.0" /><line stroke="#333" stroke-width="10" x1="4229.0" x2="3973.0" y1="325.0" y2="325.0" /><line stroke="#00d" stroke-width="20" x1="4229.0" x2="4229.0" y1="453.0" y2="389.0" /><line stroke="#333" stroke-width="10" x1="3973.0" x2="4229.0" y1="453.0" y2="453.0" /><line stroke="#666" stroke-width="20" x1="3973.0" x2="3973.0" y1="325.0" y2="453.0" /><line stroke="#333" stroke-width="10" x1="4229.0" x2="4229.0" y1="389.0" y2="325.0" /><line stroke="#333" stroke-width="10" x1="4293.0" x2="4229.0" y1="389.0" y2="389.0" /><line stroke="#333" stroke-width="10" x1="4293.0" x2="4293.0" y1="453.0" y2="389.0" /><line stroke="#333" stroke-width="10" x1="4229.0" x2="4293.0" y1="453.0" y2="453.0" /><line stroke="#333" stroke-width="10" x1="3973.0" x2="3941.0" y1="325.0" y2="325.0" /><line stroke="#333" stroke-width="10" x1="3941.0" x2="3973.0" y1="453.0" y2="453.0" /><line stroke="#666" stroke-width="20" x1="3941.0" x2="3941.0" y1="453.0" y2="325.0" /><line stroke="#333" stroke-width="10" x1="3941.0" x2="3749.0" y1="325.0" y2="389.0" /><line stroke="#333" stroke-width="10" x1="3749.0" x2="3941.0" y1="453.0" y2="453.0" /><line stroke="#999" stroke-width="3" x1="2949.0" x2="2949.0" y1="645.0" y2="773.0" /><line stroke="#333" stroke-width="10" x1="2949.0" x2="2949.0" y1="389.0" y2="645.0" /><line stroke="#333" stroke-width="10" x1="3749.0" x2="2949.0" y1="389.0" y2="389.0" /><line stroke="#999" stroke-width="3" x1="3749.0" x2="3749.0" y1="389.0" y2="453.0" /><line stroke="#333" stroke-width="10" x1="3717.0" x2="3749.0" y1="901.0" y2="453.0" /><line stroke="#333" stroke-width="10" x1="2949.0" x2="3717.0" y1="901.0" y2="901.0" /><line stroke="#333" stroke-width="10" x1="2949.0" x2="2949.0" y1="773.0" y2="901.0" /><line stroke="#333" stroke-width="10" x1="2949.0" x2="2821.0" y1="645.0" y2="645.0" /><line stroke="#333" stroke-width="10" x1="2821.0" x2="2949.0" y1="773.0" y2="773.0" /><line stroke="#999" stroke-width="3" x1="2821.0" x2="2821.0" y1="773.0" y2="645.0" /><line stroke="#333" stroke-width="10" x1="2821.0" x2="2389.0" y1="645.0" y2="585.0" /><line stroke="#333" stroke-width="10" x1="2347.0" x2="2821.0" y1="776.0" y2="773.0" /><line stroke="#999" stroke-width="3" x1="2389.0" x2="2347.0" y1="585.0" y2="776.0" /><line stroke="#999" stroke-width="3" x1="3525.0" x2="3589.0" y1="645.0" y2="645.0" /><line stroke="#999" stroke-width="3" x1="3589.0" x2="3589.0" y1="645.0" y2="709.0" /><line stroke="#999" stroke-width="3" x1="3589.0" x2="3525.0" y1="709.0" y2="709.0" /><line stroke="#999" stroke-width="3" x1="3525.0" x2="3525.0" y1="709.0" y2="645.0" /><line stroke="#999" stroke-width="3" x1="2181.0" x2="2181.0" y1="645.0" y2="773.0" /><line stroke="#999" stroke-width="3" x1="2181.0" x2="2181.0" y1="517.0" y2="645.0" /><line stroke="#333" stroke-width="10" x1="2309.0" x2="2181.0" y1="517.0" y2="517.0" /><line stroke="#333" stroke-width="10" x1="2389.0" x2="2309.0" y1="585.0" y2="517.0" /><line stroke="#333" stroke-width="10" x1="2309.0" x2="2347.0" y1="901.0" y2="776.0" /><line stroke="#333" stroke-width="10" x1="2245.0" x2="2309.0" y1="901.0" y2="901.0" /><line stroke="#333" stroke-width="10" x1="2181.0" x2="2245.0" y1="901.0" y2="901.0" /><line stroke="#999" stroke-width="3" x1="2181.0" x2="2181.0" y1="773.0" y2="901.0" /><line stroke="#999" stroke-width="3" x1="2181.0" x2="1797.0" y1="773.0" y2="773.0" /><line stroke="#333" stroke-width="10" x1="1797.0" x2="2181.0" y1="901.0" y2="901.0" /><line stroke="#999" stroke-width="3" x1="1797.0" x2="1797.0" y1="773.0" y2="901.0" /><line stroke="#999" stroke-width="3" x1="1797.0" x2="2181.0" y1="645.0" y2="645.0" /><line stroke="#999" stroke-width="3" x1="1797.0" x2="1797.0" y1="645.0" y2="773.0" /><line stroke="#333" stroke-width="10" x1="2181.0" x2="1797.0" y1="517.0" y2="517.0" /><line stroke="#999" stroke-width="3" x1="1797.0" x2="1797.0" y1="517.0" y2="645.0" /><line stroke="#333" stroke-width="10" x1="1797.0" x2="1669.0" y1="517.0" y2="517.0" /><line stroke="#333" stroke-width="10" x1="1669.0" x2="1797.0" y1="901.0" y2="901.0" /><line stroke="#999" stroke-width="3" x1="1669.0" x2="1669.0" y1="517.0" y2="901.0" /><line stroke="#333" stroke-width="10" x1="1669.0" x2="1541.0" y1="517.0" y2="645.0" /><line stroke="#333" stroke-width="10" x1="1541.0" x2="1669.0" y1="773.0" y2="901.0" /><line stroke="#999" stroke-width="3" x1="1541.0" x2="1541.0" y1="645.0" y2="773.0" /><line stroke="#333" stroke-width="10" x1="1541.0" x2="1157.0" y1="645.0" y2="645.0" /><line stroke="#333" stroke-width="10" x1="1413.0" x2="1541.0" y1="773.0" y2="773.0" /><line stroke="#999" stroke-width="3" x1="1285.0" x2="1413.0" y1="773.0" y2="773.0" /><line stroke="#333" stroke-width="10" x1="1157.0" x2="1285.0" y1="773.0" y2="773.0" /><line stroke="#666" stroke-width="20" x1="1157.0" x2="1157.0" y1="645.0" y2="773.0" /><line stroke="#333" stroke-width="10" x1="1413.0" x2="1413.0" y1="805.0" y2="773.0" /><line stroke="#999" stroke-width="3" x1="1285.0" x2="1413.0" y1="805.0" y2="805.0" /><line stroke="#333" stroke-width="10" x1="1285.0" x2="1285.0" y1="773.0" y2="805.0" /><line stroke="#333" stroke-width="10" x1="1157.0" x2="1125.0" y1="645.0" y2="613.0" /><line stroke="#333" stroke-width="10" x1="1029.0" x2="1157.0" y1="901.0" y2="773.0" /><line stroke="#999" stroke-width="3" x1="1029.0" x2="1029.0" y1="517.0" y2="901.0" /><line stroke="#333" stroke-width="10" x1="1427.0" x2="1413.0" y1="1001.0" y2="805.0" /><line stroke="#333" stroke-width="10" x1="1251.0" x2="1427.0" y1="1009.0" y2="1001.0" /><line stroke="#333" stroke-width="10" x1="1285.0" x2="1251.0" y1="805.0" y2="1009.0" /><line stroke="#333" stroke-width="10" x1="1061.0" x2="1029.0" y1="549.0" y2="517.0" /><line stroke="#999" stroke-width="3" x1="1157.0" x2="1093.0" y1="581.0" y2="517.0" /><line stroke="#333" stroke-width="10" x1="1125.0" x2="1157.0" y1="613.0" y2="581.0" /><line stroke="#333" stroke-width="10" x1="1093.0" x2="1061.0" y1="517.0" y2="549.0" /><line stroke="#999" stroke-width="3" x1="1061.0" x2="1125.0" y1="549.0" y2="613.0" /><line stroke="#333" stroke-width="10" x1="1221.0" x2="1093.0" y1="581.0" y2="453.0" /><line stroke="#333" stroke-width="10" x1="1189.0" x2="1221.0" y1="613.0" y2="581.0" /><line stroke="#333" stroke-width="10" x1="1157.0" x2="1189.0" y1="581.0" y2="613.0" /><line stroke="#333" stroke-width="10" x1="1061.0" x2="1093.0" y1="485.0" y2="517.0" /><line stroke="#333" stroke-width="10" x1="1093.0" x2="1061.0" y1="453.0" y2="485.0" /><line stroke="#333" stroke-width="10" x1="1029.0" x2="965.0" y1="517.0" y2="581.0" /><line stroke="#333" stroke-width="10" x1="965.0" x2="1029.0" y1="837.0" y2="901.0" /><line stroke="#999" stroke-width="3" x1="965.0" x2="965.0" y1="581.0" y2="837.0" /><line stroke="#333" stroke-width="10" x1="965.0" x2="901.0" y1="581.0" y2="581.0" /><line stroke="#333" stroke-width="10" x1="901.0" x2="965.0" y1="837.0" y2="837.0" /><line stroke="#999" stroke-width="3" x1="901.0" x2="901.0" y1="581.0" y2="837.0" /><line stroke="#333" stroke-width="10" x1="901.0" x2="837.0" y1="581.0" y2="645.0" /><line stroke="#333" stroke-width="10" x1="837.0" x2="901.0" y1="773.0" y2="837.0" /><line stroke="#999" stroke-width="3" x1="837.0" x2="837.0" y1="645.0" y2="773.0" /><line stroke="#333" stroke-width="10" x1="837.0" x2="773.0" y1="645.0" y2="645.0" /><line stroke="#333" stroke-width="10" x1="773.0" x2="837.0" y1="773.0" y2="773.0" /><line stroke="#999" stroke-width="3" x1="773.0" x2="773.0" y1="645.0" y2="773.0" /><line stroke="#333" stroke-width="10" x1="773.0" x2="709.0" y1="645.0" y2="645.0" /><line stroke="#333" stroke-width="10" x1="709.0" x2="773.0" y1="773.0" y2="773.0" /><line stroke="#999" stroke-width="3" x1="709.0" x2="709.0" y1="645.0" y2="773.0" /><line stroke="#333" stroke-width="10" x1="709.0" x2="645.0" y1="645.0" y2="645.0" /><line stroke="#333" stroke-width="10" x1="645.0" x2="709.0" y1="773.0" y2="773.0" /><line stroke="#999" stroke-width="3" x1="645.0" x2="645.0" y1="645.0" y2="773.0" /><line stroke="#333" stroke-width="10" x1="645.0" x2="581.0" y1="645.0" y2="645.0" /><line stroke="#333" stroke-width="10" x1="581.0" x2="645.0" y1="773.0" y2="773.0" /><line stroke="#999" stroke-width="3" x1="581.0" x2="581.0" y1="645.0" y2="773.0" /><line stroke="#333" stroke-width="10" x1="581.0" x2="389.0" y1="517.0" y2="517.0" /><line stroke="#333" stroke-width="10" x1="581.0" x2="581.0" y1="645.0" y2="517.0" /><line stroke="#333" stroke-width="10" x1="581.0" x2="581.0" y1="1029.0" y2="773.0" /><line stroke="#333" stroke-width="10" x1="389.0" x2="581.0" y1="1029.0" y2="1029.0" /><line stroke="#999" stroke-width="3" x1="389.0" x2="389.0" y1="517.0" y2="1029.0" /><line stroke="#333" stroke-width="10" x1="389.0" x2="357.0" y1="517.0" y2="517.0" /><line stroke="#333" stroke-width="10" x1="357.0" x2="389.0" y1="1029.0" y2="1029.0" /><line stroke="#999" stroke-width="3" x1="357.0" x2="357.0" y1="517.0" y2="1029.0" /><line stroke="#333" stroke-width="10" x1="357.0" x2="5.0" y1="517.0" y2="773.0" /><line stroke="#333" stroke-width="10" x1="5.0" x2="357.0" y1="901.0" y2="1029.0" /><line stroke="#0d0" stroke-width="20" x1="5.0" x2="5.0" y1="773.0" y2="901.0" /><line stroke="#999" stroke-width="3" x1="69.0" x2="133.0" y1="837.0" y2="837.0" /><line stroke="#999" stroke-width="3" x1="133.0" x2="133.0" y1="837.0" y2="901.0" /><line stroke="#999" stroke-width="3" x1="133.0" x2="69.0" y1="901.0" y2="901.0" /><line stroke="#999" stroke-width="3" x1="69.0" x2="69.0" y1="901.0" y2="837.0" /><line stroke="#999" stroke-width="3" x1="553.0" x2="569.0" y1="975.0" y2="975.0" /><line stroke="#999" stroke-width="3" x1="569.0" x2="569.0" y1="975.0" y2="999.0" /><line stroke="#999" stroke-width="3" x1="569.0" x2="553.0" y1="999.0" y2="999.0" /><line stroke="#999" stroke-width="3" x1="553.0" x2="553.0" y1="999.0" y2="975.0" /><ellipse cx="3645.0" cy="466.0" fill="#009" rx="12" ry="24" stroke="#009" stroke-width="5" /><circle cx="2181.0" cy="133.0" fill="#009" r="16" stroke="#009" stroke-width="5" /><rect fill="#009" height="24" stroke="#009" stroke-width="5" transform="rotate(0,4080.0,394.0)" width="24" x="4068.0" y="382.0" /><rect fill="#009" height="24" stroke="#009" stroke-width="5" transform="rotate(0,4165.0,197.0)" width="24" x="4153.0" y="185.0" /><rect fill="#090" height="24" stroke="#090" stroke-width="5" transform="rotate(0,3013.0,837.0)" width="24" x="3001.0" y="825.0" /><rect fill="#090" height="24" stroke="#090" stroke-width="5" transform="rotate(0,3077.0,837.0)" width="24" x="3065.0" y="825.0" /><rect fill="#090" height="24" stroke="#090" stroke-width="5" transform="rotate(0,3141.0,837.0)" width="24" x="3129.0" y="825.0" /><rect fill="#090" height="24" stroke="#090" stroke-width="5" transform="rotate(0,3205.0,837.0)" width="24" x="3193.0" y="825.0" /><rect fill="#090" height="24" stroke="#090" stroke-width="5" transform="rotate(0,3269.0,837.0)" width="24" x="3257.0" y="825.0" /><rect fill="#090" height="24" stroke="#090" stroke-width="5" transform="rotate(0,3333.0,837.0)" width="24" x="3321.0" y="825.0" /><rect fill="#090" height="24" stroke="#090" stroke-width="5" transform="rotate(0,3397.0,837.0)" width="24" x="3385.0" y="825.0" /><rect fill="#090" height="24" stroke="#090" stroke-width="5" transform="rotate(0,3461.0,837.0)" width="24" x="3449.0" y="825.0" /><rect fill="#090" height="24" stroke="#090" stroke-width="5" transform="rotate(0,3525.0,837.0)" width="24" x="3513.0" y="825.0" /><rect fill="#090" height="24" stroke="#090" stroke-width="5" transform="rotate(0,3589.0,837.0)" width="24" x="3577.0" y="825.0" /><rect fill="#090" height="24" stroke="#090" stroke-width="5" transform="rotate(0,3653.0,837.0)" width="24" x="3641.0" y="825.0" /><rect fill="#090" height="24" stroke="#090" stroke-width="5" transform="rotate(0,3013.0,453.0)" width="24" x="3001.0" y="441.0" /><rect fill="#090" height="24" stroke="#090" stroke-width="5" transform="rotate(0,3077.0,453.0)" width="24" x="3065.0" y="441.0" /><rect fill="#090" height="24" stroke="#090" stroke-width="5" transform="rotate(0,3141.0,453.0)" width="24" x="3129.0" y="441.0" /><rect fill="#090" height="24" stroke="#090" stroke-width="5" transform="rotate(0,3205.0,453.0)" width="24" x="3193.0" y="441.0" /><rect fill="#090" height="24" stroke="#090" stroke-width="5" transform="rotate(0,3269.0,453.0)" width="24" x="3257.0" y="441.0" /><rect fill="#090" height="24" stroke="#090" stroke-width="5" transform="rotate(0,3333.0,453.0)" width="24" x="3321.0" y="441.0" /><rect fill="#090" height="24" stroke="#090" stroke-width="5" transform="rotate(0,3397.0,453.0)" width="24" x="3385.0" y="441.0" /><rect fill="#090" height="24" stroke="#090" stroke-width="5" transform="rotate(0,3461.0,453.0)" width="24" x="3449.0" y="441.0" /><rect fill="#090" height="24" stroke="#090" stroke-width="5" transform="rotate(0,3525.0,453.0)" width="24" x="3513.0" y="441.0" /><circle cx="3621.0" cy="133.0" fill="#900" r="16" stroke="#900" stroke-width="5" /><rect fill="#900" height="48" stroke="#900" stroke-width="5" transform="rotate(0,3045.0,715.0)" width="32" x="3029.0" y="691.0" /><rect fill="#900" height="48" stroke="#900" stroke-width="5" transform="rotate(0,3093.0,589.0)" width="32" x="3077.0" y="565.0" /><rect fill="#900" height="48" stroke="#900" stroke-width="5" transform="rotate(0,3285.0,709.0)" width="32" x="3269.0" y="685.0" /><rect fill="#900" height="48" stroke="#900" stroke-width="5" transform="rotate(0,3273.0,559.0)" width="32" x="3257.0" y="535.0" /><circle cx="3429.0" cy="601.0" fill="#009" r="16" stroke="#009" stroke-width="5" /><ellipse cx="1607.0" cy="763.0" fill="#900" rx="12" ry="24" stroke="#900" stroke-width="5" /><ellipse cx="1607.0" cy="667.0" fill="#900" rx="12" ry="24" stroke="#900" stroke-width="5" /><rect fill="#900" height="48" stroke="#900" stroke-width="5" transform="rotate(0,1763.0,773.0)" width="32" x="1747.0" y="749.0" /><rect fill="#900" height="48" stroke="#900" stroke-width="5" transform="rotate(0,1731.0,681.0)" width="32" x="1715.0" y="657.0" /><rect fill="#900" height="48" stroke="#900" stroke-width="5" transform="rotate(0,1723.0,853.0)" width="32" x="1707.0" y="829.0" /><rect fill="#900" height="48" stroke="#900" stroke-width="5" transform="rotate(0,1715.0,589.0)" width="32" x="1699.0" y="565.0" /><circle cx="1339.0" cy="957.0" fill="#009" r="16" stroke="#009" stroke-width="5" /><circle cx="867.0" cy="701.0" fill="#009" r="16" stroke="#009" stroke-width="5" /><rect fill="#900" height="48" stroke="#900" stroke-width="5" transform="rotate(225,1347.0,861.0)" width="32" x="1331.0" y="837.0" /><rect fill="#900" height="48" stroke="#900" stroke-width="5" transform="rotate(0,299.0,913.0)" width="32" x="283.0" y="889.0" /><rect fill="#900" height="48" stroke="#900" stroke-width="5" transform="rotate(0,283.0,797.0)" width="32" x="267.0" y="773.0" /><rect fill="#900" height="48" stroke="#900" stroke-width="5" transform="rotate(0,291.0,705.0)" width="32" x="275.0" y="681.0" /><rect fill="#900" height="48" stroke="#900" stroke-width="5" transform="rotate(0,179.0,757.0)" width="32" x="163.0" y="733.0" /><circle cx="195.0" cy="893.0" fill="#900" r="16" stroke="#900" stroke-width="5" /><ellipse cx="211.0" cy="669.0" fill="#900" rx="12" ry="24" stroke="#900" stroke-width="5" /><ellipse cx="211.0" cy="829.0" fill="#900" rx="12" ry="24" stroke="#900" stroke-width="5" /></svg>