<?xml version="1.0" encoding="utf-8" ?>
<svg baseProfile="tiny" height="835" version="1.2" viewBox="0 0 3322 2710" width="1024" xmlns="http://www.w3.org/2000/svg" xmlns:ev="http://www.w3.org/2001/xml-events" xmlns:xlink="http://www.w3.org/1999/xlink"><defs /><line stroke="#999" stroke-width="3" x1="2307.0" x2="2477.0" y1="2097.0" y2="2169.0" /><line stroke="#999" stroke-width="3" x1="317.0" x2="269.0" y1="358.0" y2="406.0" /><line stroke="#999" stroke-width="3" x1="317.0" x2="445.0" y1="358.0" y2="574.0" /><line stroke="#333" stroke-width="10" x1="5.0" x2="221.0" y1="361.0" y2="361.0" /><line stroke="#333" stroke-width="10" x1="5.0" x2="5.0" y1="5.0" y2="361.0" /><line stroke="#333" stroke-width="10" x1="269.0" x2="5.0" y1="5.0" y2="5.0" /><line stroke="#333" stroke-width="10" x1="317.0" x2="301.0" y1="358.0" y2="345.0" /><line stroke="#999" stroke-width="3" x1="3213.0" x2="3213.0" y1="2574.0" y2="1897.0" /><line stroke="#999" stroke-width="3" x1="269.0" x2="1741.0" y1="2574.0" y2="2569.0" /><line stroke="#999" stroke-width="3" x1="3213.0" x2="2169.0" y1="358.0" y2="353.0" /><line stroke="#999" stroke-width="3" x1="269.0" x2="269.0" y1="406.0" y2="1897.0" /><line stroke="#999" stroke-width="3" x1="509.0" x2="389.0" y1="774.0" y2="590.0" /><line stroke="#999" stroke-width="3" x1="2653.0" x2="2629.0" y1="2238.0" y2="2305.0" /><line stroke="#999" stroke-width="3" x1="909.0" x2="1509.0" y1="518.0" y2="526.0" /><line stroke="#999" stroke-width="3" x1="2965.0" x2="3029.0" y1="478.0" y2="502.0" /><line stroke="#999" stroke-width="3" x1="445.0" x2="581.0" y1="574.0" y2="774.0" /><line stroke="#999" stroke-width="3" x1="389.0" x2="269.0" y1="590.0" y2="406.0" /><line stroke="#999" stroke-width="3" x1="541.0" x2="509.0" y1="1118.0" y2="774.0" /><line stroke="#999" stroke-width="3" x1="581.0" x2="909.0" y1="774.0" y2="518.0" /><line stroke="#999" stroke-width="3" x1="1509.0" x2="2765.0" y1="526.0" y2="574.0" /><line stroke="#999" stroke-width="3" x1="1821.0" x2="1853.0" y1="633.0" y2="1001.0" /><line stroke="#999" stroke-width="3" x1="909.0" x2="589.0" y1="614.0" y2="838.0" /><line stroke="#999" stroke-width="3" x1="629.0" x2="606.0" y1="1118.0" y2="1324.0" /><line stroke="#999" stroke-width="3" x1="2437.0" x2="2237.0" y1="1030.0" y2="1241.0" /><line stroke="#999" stroke-width="3" x1="1789.0" x2="1749.0" y1="1030.0" y2="622.0" /><line stroke="#999" stroke-width="3" x1="2181.0" x2="2365.0" y1="1193.0" y2="1009.0" /><line stroke="#999" stroke-width="3" x1="1749.0" x2="1277.0" y1="622.0" y2="614.0" /><line stroke="#999" stroke-width="3" x1="2157.0" x2="2005.0" y1="1286.0" y2="1174.0" /><line stroke="#999" stroke-width="3" x1="1853.0" x2="2181.0" y1="1001.0" y2="1193.0" /><line stroke="#999" stroke-width="3" x1="1717.0" x2="1837.0" y1="1126.0" y2="1142.0" /><line stroke="#999" stroke-width="3" x1="1837.0" x2="1925.0" y1="1142.0" y2="1126.0" /><line stroke="#999" stroke-width="3" x1="1397.0" x2="1485.0" y1="846.0" y2="982.0" /><line stroke="#999" stroke-width="3" x1="1197.0" x2="909.0" y1="606.0" y2="614.0" /><line stroke="#999" stroke-width="3" x1="1277.0" x2="1397.0" y1="614.0" y2="846.0" /><line stroke="#999" stroke-width="3" x1="1245.0" x2="1197.0" y1="718.0" y2="606.0" /><line stroke="#999" stroke-width="3" x1="2765.0" x2="2677.0" y1="646.0" y2="649.0" /><line stroke="#999" stroke-width="3" x1="2765.0" x2="2765.0" y1="646.0" y2="574.0" /><line stroke="#999" stroke-width="3" x1="3029.0" x2="2981.0" y1="502.0" y2="566.0" /><line stroke="#999" stroke-width="3" x1="2925.0" x2="2845.0" y1="606.0" y2="630.0" /><line stroke="#999" stroke-width="3" x1="2925.0" x2="2885.0" y1="606.0" y2="542.0" /><line stroke="#999" stroke-width="3" x1="2925.0" x2="2965.0" y1="518.0" y2="478.0" /><line stroke="#999" stroke-width="3" x1="2829.0" x2="2885.0" y1="566.0" y2="542.0" /><line stroke="#999" stroke-width="3" x1="1925.0" x2="1789.0" y1="1126.0" y2="1030.0" /><line stroke="#999" stroke-width="3" x1="1517.0" x2="1645.0" y1="806.0" y2="806.0" /><line stroke="#999" stroke-width="3" x1="1533.0" x2="1517.0" y1="950.0" y2="806.0" /><line stroke="#999" stroke-width="3" x1="1541.0" x2="1717.0" y1="1022.0" y2="1126.0" /><line stroke="#999" stroke-width="3" x1="1485.0" x2="1533.0" y1="982.0" y2="950.0" /><line stroke="#999" stroke-width="3" x1="1581.0" x2="1541.0" y1="990.0" y2="1022.0" /><line stroke="#999" stroke-width="3" x1="1645.0" x2="1581.0" y1="1062.0" y2="990.0" /><line stroke="#999" stroke-width="3" x1="1733.0" x2="1645.0" y1="934.0" y2="1062.0" /><line stroke="#999" stroke-width="3" x1="1645.0" x2="1733.0" y1="806.0" y2="934.0" /><line stroke="#999" stroke-width="3" x1="1341.0" x2="1037.0" y1="2526.0" y2="2390.0" /><line stroke="#999" stroke-width="3" x1="2037.0" x2="2141.0" y1="2062.0" y2="1993.0" /><line stroke="#999" stroke-width="3" x1="1037.0" x2="813.0" y1="2390.0" y2="2374.0" /><line stroke="#999" stroke-width="3" x1="821.0" x2="1077.0" y1="2302.0" y2="2329.0" /><line stroke="#999" stroke-width="3" x1="458.0" x2="489.0" y1="1598.0" y2="1482.0" /><line stroke="#999" stroke-width="3" x1="410.0" x2="458.0" y1="1590.0" y2="1598.0" /><line stroke="#999" stroke-width="3" x1="370.0" x2="410.0" y1="1590.0" y2="1590.0" /><line stroke="#999" stroke-width="3" x1="370.0" x2="362.0" y1="1590.0" y2="1686.0" /><line stroke="#999" stroke-width="3" x1="410.0" x2="362.0" y1="1686.0" y2="1686.0" /><line stroke="#999" stroke-width="3" x1="450.0" x2="410.0" y1="1686.0" y2="1686.0" /><line stroke="#999" stroke-width="3" x1="410.0" x2="410.0" y1="1590.0" y2="1686.0" /><line stroke="#999" stroke-width="3" x1="458.0" x2="450.0" y1="1598.0" y2="1686.0" /><line stroke="#999" stroke-width="3" x1="2429.0" x2="1821.0" y1="633.0" y2="633.0" /><line stroke="#999" stroke-width="3" x1="2365.0" x2="2429.0" y1="1009.0" y2="633.0" /><line stroke="#999" stroke-width="3" x1="2525.0" x2="2437.0" y1="633.0" y2="1030.0" /><line stroke="#333" stroke-width="10" x1="301.0" x2="285.0" y1="345.0" y2="329.0" /><line stroke="#333" stroke-width="10" x1="253.0" x2="269.0" y1="393.0" y2="406.0" /><line stroke="#999" stroke-width="3" x1="301.0" x2="253.0" y1="345.0" y2="393.0" /><line stroke="#333" stroke-width="10" x1="237.0" x2="253.0" y1="377.0" y2="393.0" /><line stroke="#333" stroke-width="10" x1="285.0" x2="269.0" y1="329.0" y2="313.0" /><line stroke="#666" stroke-width="20" x1="237.0" x2="285.0" y1="377.0" y2="329.0" /><line stroke="#333" stroke-width="10" x1="269.0" x2="269.0" y1="313.0" y2="5.0" /><line stroke="#333" stroke-width="10" x1="221.0" x2="237.0" y1="361.0" y2="377.0" /><line stroke="#999" stroke-width="3" x1="221.0" x2="269.0" y1="361.0" y2="313.0" /><line stroke="#999" stroke-width="3" x1="802.0" x2="594.0" y1="1355.0" y2="1403.0" /><line stroke="#999" stroke-width="3" x1="782.0" x2="757.0" y1="1276.0" y2="1137.0" /><line stroke="#999" stroke-width="3" x1="744.0" x2="856.0" y1="1622.0" y2="1574.0" /><line stroke="#999" stroke-width="3" x1="594.0" x2="517.0" y1="1403.0" y2="1825.0" /><line stroke="#999" stroke-width="3" x1="606.0" x2="782.0" y1="1324.0" y2="1276.0" /><line stroke="#999" stroke-width="3" x1="805.0" x2="997.0" y1="913.0" y2="777.0" /><line stroke="#999" stroke-width="3" x1="611.0" x2="651.0" y1="1611.0" y2="1539.0" /><line stroke="#999" stroke-width="3" x1="856.0" x2="802.0" y1="1574.0" y2="1355.0" /><line stroke="#999" stroke-width="3" x1="757.0" x2="805.0" y1="1137.0" y2="913.0" /><line stroke="#999" stroke-width="3" x1="720.0" x2="611.0" y1="1694.0" y2="1611.0" /><line stroke="#999" stroke-width="3" x1="651.0" x2="744.0" y1="1539.0" y2="1622.0" /><line stroke="#999" stroke-width="3" x1="1013.0" x2="877.0" y1="873.0" y2="969.0" /><line stroke="#999" stroke-width="3" x1="845.0" x2="859.0" y1="1161.0" y2="1343.0" /><line stroke="#999" stroke-width="3" x1="859.0" x2="893.0" y1="1343.0" y2="1449.0" /><line stroke="#999" stroke-width="3" x1="877.0" x2="845.0" y1="969.0" y2="1161.0" /><line stroke="#999" stroke-width="3" x1="813.0" x2="821.0" y1="2374.0" y2="2302.0" /><line stroke="#999" stroke-width="3" x1="594.0" x2="606.0" y1="1403.0" y2="1324.0" /><line stroke="#999" stroke-width="3" x1="1197.0" x2="1277.0" y1="606.0" y2="614.0" /><line stroke="#999" stroke-width="3" x1="1749.0" x2="1821.0" y1="622.0" y2="633.0" /><line stroke="#999" stroke-width="3" x1="2429.0" x2="2525.0" y1="633.0" y2="633.0" /><line stroke="#999" stroke-width="3" x1="581.0" x2="589.0" y1="774.0" y2="838.0" /><line stroke="#999" stroke-width="3" x1="2397.0" x2="2320.0" y1="1745.0" y2="1607.0" /><line stroke="#999" stroke-width="3" x1="3213.0" x2="3029.0" y1="358.0" y2="502.0" /><line stroke="#999" stroke-width="3" x1="1453.0" x2="1309.0" y1="1033.0" y2="849.0" /><line stroke="#999" stroke-width="3" x1="1213.0" x2="1453.0" y1="857.0" y2="1033.0" /><line stroke="#999" stroke-width="3" x1="2981.0" x2="2925.0" y1="566.0" y2="606.0" /><line stroke="#999" stroke-width="3" x1="2885.0" x2="2925.0" y1="542.0" y2="518.0" /><line stroke="#999" stroke-width="3" x1="2765.0" x2="2829.0" y1="574.0" y2="566.0" /><line stroke="#999" stroke-width="3" x1="2845.0" x2="2765.0" y1="630.0" y2="646.0" /><line stroke="#999" stroke-width="3" x1="1077.0" x2="1341.0" y1="2329.0" y2="2462.0" /><line stroke="#999" stroke-width="3" x1="1213.0" x2="1226.0" y1="857.0" y2="899.0" /><line stroke="#999" stroke-width="3" x1="2005.0" x2="1733.0" y1="1174.0" y2="1201.0" /><line stroke="#999" stroke-width="3" x1="1146.0" x2="1118.0" y1="955.0" y2="902.0" /><line stroke="#999" stroke-width="3" x1="1226.0" x2="1146.0" y1="899.0" y2="955.0" /><line stroke="#999" stroke-width="3" x1="2133.0" x2="1941.0" y1="2113.0" y2="2393.0" /><line stroke="#999" stroke-width="3" x1="2141.0" x2="2225.0" y1="1993.0" y2="2063.0" /><line stroke="#999" stroke-width="3" x1="2629.0" x2="2133.0" y1="2305.0" y2="2113.0" /><line stroke="#999" stroke-width="3" x1="2225.0" x2="2307.0" y1="2063.0" y2="2097.0" /><line stroke="#999" stroke-width="3" x1="2505.0" x2="2307.0" y1="1751.0" y2="2097.0" /><line stroke="#999" stroke-width="3" x1="1877.0" x2="2037.0" y1="2329.0" y2="2062.0" /><line stroke="#999" stroke-width="3" x1="437.0" x2="450.0" y1="1825.0" y2="1686.0" /><line stroke="#999" stroke-width="3" x1="517.0" x2="437.0" y1="1825.0" y2="1825.0" /><line stroke="#999" stroke-width="3" x1="517.0" x2="821.0" y1="1825.0" y2="2302.0" /><line stroke="#999" stroke-width="3" x1="269.0" x2="813.0" y1="2574.0" y2="2374.0" /><line stroke="#999" stroke-width="3" x1="489.0" x2="541.0" y1="1482.0" y2="1118.0" /><line stroke="#999" stroke-width="3" x1="589.0" x2="629.0" y1="838.0" y2="1118.0" /><line stroke="#999" stroke-width="3" x1="914.0" x2="960.0" y1="1511.0" y2="1630.0" /><line stroke="#999" stroke-width="3" x1="1407.0" x2="1285.0" y1="2284.0" y2="2113.0" /><line stroke="#999" stroke-width="3" x1="1597.0" x2="1341.0" y1="2521.0" y2="2526.0" /><line stroke="#999" stroke-width="3" x1="1941.0" x2="1693.0" y1="2393.0" y2="2513.0" /><line stroke="#999" stroke-width="3" x1="1693.0" x2="1597.0" y1="2513.0" y2="2521.0" /><line stroke="#999" stroke-width="3" x1="1693.0" x2="1653.0" y1="2513.0" y2="2441.0" /><line stroke="#999" stroke-width="3" x1="1653.0" x2="1877.0" y1="2441.0" y2="2329.0" /><line stroke="#999" stroke-width="3" x1="1341.0" x2="1573.0" y1="2462.0" y2="2457.0" /><line stroke="#999" stroke-width="3" x1="1565.0" x2="1407.0" y1="2409.0" y2="2284.0" /><line stroke="#999" stroke-width="3" x1="1565.0" x2="1573.0" y1="2409.0" y2="2457.0" /><line stroke="#999" stroke-width="3" x1="1653.0" x2="1637.0" y1="2441.0" y2="2393.0" /><line stroke="#999" stroke-width="3" x1="1565.0" x2="1637.0" y1="2409.0" y2="2393.0" /><line stroke="#999" stroke-width="3" x1="1585.0" x2="1353.0" y1="2326.0" y2="2102.0" /><line stroke="#999" stroke-width="3" x1="1309.0" x2="1245.0" y1="849.0" y2="718.0" /><line stroke="#999" stroke-width="3" x1="1733.0" x2="1453.0" y1="1201.0" y2="1033.0" /><line stroke="#999" stroke-width="3" x1="1205.0" x2="1245.0" y1="993.0" y2="977.0" /><line stroke="#999" stroke-width="3" x1="1101.0" x2="1121.0" y1="1769.0" y2="1498.0" /><line stroke="#999" stroke-width="3" x1="1285.0" x2="1101.0" y1="2113.0" y2="1769.0" /><line stroke="#999" stroke-width="3" x1="1166.0" x2="1205.0" y1="1742.0" y2="993.0" /><line stroke="#999" stroke-width="3" x1="1353.0" x2="1166.0" y1="2102.0" y2="1742.0" /><line stroke="#999" stroke-width="3" x1="1793.0" x2="1585.0" y1="1886.0" y2="2326.0" /><line stroke="#999" stroke-width="3" x1="1565.0" x2="1793.0" y1="1225.0" y2="1886.0" /><line stroke="#999" stroke-width="3" x1="1245.0" x2="1565.0" y1="977.0" y2="1225.0" /><line stroke="#999" stroke-width="3" x1="1893.0" x2="1637.0" y1="1863.0" y2="2393.0" /><line stroke="#999" stroke-width="3" x1="1629.0" x2="1789.0" y1="1169.0" y2="1617.0" /><line stroke="#999" stroke-width="3" x1="1226.0" x2="1629.0" y1="899.0" y2="1169.0" /><line stroke="#999" stroke-width="3" x1="1725.0" x2="1565.0" y1="1945.0" y2="1321.0" /><line stroke="#999" stroke-width="3" x1="1517.0" x2="1725.0" y1="2153.0" y2="1945.0" /><line stroke="#999" stroke-width="3" x1="1341.0" x2="1517.0" y1="1953.0" y2="2153.0" /><line stroke="#999" stroke-width="3" x1="1237.0" x2="1221.0" y1="1017.0" y2="1585.0" /><line stroke="#999" stroke-width="3" x1="1221.0" x2="1341.0" y1="1585.0" y2="1953.0" /><line stroke="#999" stroke-width="3" x1="1565.0" x2="1237.0" y1="1321.0" y2="1017.0" /><line stroke="#999" stroke-width="3" x1="1653.0" x2="1469.0" y1="1833.0" y2="2049.0" /><line stroke="#999" stroke-width="3" x1="1469.0" x2="1357.0" y1="2049.0" y2="1849.0" /><line stroke="#999" stroke-width="3" x1="1357.0" x2="1269.0" y1="1849.0" y2="1161.0" /><line stroke="#999" stroke-width="3" x1="1269.0" x2="1309.0" y1="1161.0" y2="1121.0" /><line stroke="#999" stroke-width="3" x1="1309.0" x2="1581.0" y1="1121.0" y2="1505.0" /><line stroke="#999" stroke-width="3" x1="1121.0" x2="1125.0" y1="1498.0" y2="1433.0" /><line stroke="#999" stroke-width="3" x1="1121.0" x2="914.0" y1="1498.0" y2="1511.0" /><line stroke="#999" stroke-width="3" x1="1125.0" x2="1093.0" y1="1137.0" y2="1345.0" /><line stroke="#999" stroke-width="3" x1="1093.0" x2="957.0" y1="1345.0" y2="1393.0" /><line stroke="#999" stroke-width="3" x1="957.0" x2="885.0" y1="1393.0" y2="1233.0" /><line stroke="#999" stroke-width="3" x1="885.0" x2="973.0" y1="1233.0" y2="945.0" /><line stroke="#999" stroke-width="3" x1="1085.0" x2="1125.0" y1="953.0" y2="1137.0" /><line stroke="#999" stroke-width="3" x1="973.0" x2="1085.0" y1="945.0" y2="953.0" /><line stroke="#999" stroke-width="3" x1="960.0" x2="720.0" y1="1630.0" y2="1694.0" /><line stroke="#999" stroke-width="3" x1="1118.0" x2="1013.0" y1="902.0" y2="873.0" /><line stroke="#999" stroke-width="3" x1="997.0" x2="1213.0" y1="777.0" y2="857.0" /><line stroke="#999" stroke-width="3" x1="2999.0" x2="2729.0" y1="1948.0" y2="2160.0" /><line stroke="#999" stroke-width="3" x1="2729.0" x2="2677.0" y1="2160.0" y2="2137.0" /><line stroke="#999" stroke-width="3" x1="2457.0" x2="2629.0" y1="2040.0" y2="1759.0" /><line stroke="#999" stroke-width="3" x1="2629.0" x2="2317.0" y1="1759.0" y2="1327.0" /><line stroke="#999" stroke-width="3" x1="2317.0" x2="2517.0" y1="1327.0" y2="1063.0" /><line stroke="#999" stroke-width="3" x1="2517.0" x2="2701.0" y1="1063.0" y2="1057.0" /><line stroke="#999" stroke-width="3" x1="2889.0" x2="3067.0" y1="1064.0" y2="1429.0" /><line stroke="#999" stroke-width="3" x1="3067.0" x2="2999.0" y1="1429.0" y2="1948.0" /><line stroke="#999" stroke-width="3" x1="1853.0" x2="2117.0" y1="697.0" y2="641.0" /><line stroke="#999" stroke-width="3" x1="2117.0" x2="2349.0" y1="641.0" y2="665.0" /><line stroke="#999" stroke-width="3" x1="2349.0" x2="2373.0" y1="665.0" y2="881.0" /><line stroke="#999" stroke-width="3" x1="2373.0" x2="2189.0" y1="881.0" y2="1145.0" /><line stroke="#999" stroke-width="3" x1="2189.0" x2="2157.0" y1="1145.0" y2="1145.0" /><line stroke="#999" stroke-width="3" x1="1893.0" x2="1853.0" y1="993.0" y2="697.0" /><line stroke="#999" stroke-width="3" x1="1173.0" x2="1125.0" y1="2009.0" y2="2233.0" /><line stroke="#999" stroke-width="3" x1="1125.0" x2="885.0" y1="2233.0" y2="2249.0" /><line stroke="#999" stroke-width="3" x1="885.0" x2="845.0" y1="2249.0" y2="2033.0" /><line stroke="#999" stroke-width="3" x1="845.0" x2="661.0" y1="2033.0" y2="1929.0" /><line stroke="#999" stroke-width="3" x1="661.0" x2="597.0" y1="1929.0" y2="1777.0" /><line stroke="#999" stroke-width="3" x1="597.0" x2="909.0" y1="1777.0" y2="1745.0" /><line stroke="#999" stroke-width="3" x1="909.0" x2="1061.0" y1="1745.0" y2="1569.0" /><line stroke="#999" stroke-width="3" x1="1061.0" x2="1029.0" y1="1569.0" y2="1857.0" /><line stroke="#999" stroke-width="3" x1="1029.0" x2="1173.0" y1="1857.0" y2="2009.0" /><line stroke="#999" stroke-width="3" x1="853.0" x2="645.0" y1="477.0" y2="673.0" /><line stroke="#999" stroke-width="3" x1="645.0" x2="561.0" y1="673.0" y2="623.0" /><line stroke="#999" stroke-width="3" x1="561.0" x2="597.0" y1="623.0" y2="497.0" /><line stroke="#999" stroke-width="3" x1="597.0" x2="833.0" y1="497.0" y2="411.0" /><line stroke="#999" stroke-width="3" x1="833.0" x2="1013.0" y1="411.0" y2="417.0" /><line stroke="#999" stroke-width="3" x1="1533.0" x2="1565.0" y1="1481.0" y2="1881.0" /><line stroke="#999" stroke-width="3" x1="1565.0" x2="1429.0" y1="1881.0" y2="1929.0" /><line stroke="#999" stroke-width="3" x1="1429.0" x2="1357.0" y1="1929.0" y2="1601.0" /><line stroke="#999" stroke-width="3" x1="1357.0" x2="1309.0" y1="1601.0" y2="1225.0" /><line stroke="#999" stroke-width="3" x1="1309.0" x2="1349.0" y1="1225.0" y2="1201.0" /><line stroke="#999" stroke-width="3" x1="1349.0" x2="1533.0" y1="1201.0" y2="1481.0" /><line stroke="#999" stroke-width="3" x1="1501.0" x2="1533.0" y1="1529.0" y2="1777.0" /><line stroke="#999" stroke-width="3" x1="1453.0" x2="1405.0" y1="1881.0" y2="1633.0" /><line stroke="#999" stroke-width="3" x1="1405.0" x2="1341.0" y1="1633.0" y2="1265.0" /><line stroke="#999" stroke-width="3" x1="1341.0" x2="1381.0" y1="1265.0" y2="1289.0" /><line stroke="#999" stroke-width="3" x1="1381.0" x2="1501.0" y1="1289.0" y2="1529.0" /><line stroke="#999" stroke-width="3" x1="1533.0" x2="1453.0" y1="1777.0" y2="1881.0" /><line stroke="#999" stroke-width="3" x1="1093.0" x2="1053.0" y1="1209.0" y2="1329.0" /><line stroke="#999" stroke-width="3" x1="1053.0" x2="933.0" y1="1329.0" y2="1289.0" /><line stroke="#999" stroke-width="3" x1="933.0" x2="917.0" y1="1289.0" y2="1177.0" /><line stroke="#999" stroke-width="3" x1="917.0" x2="997.0" y1="1177.0" y2="969.0" /><line stroke="#999" stroke-width="3" x1="997.0" x2="1077.0" y1="969.0" y2="1001.0" /><line stroke="#999" stroke-width="3" x1="1077.0" x2="1093.0" y1="1001.0" y2="1209.0" /><line stroke="#999" stroke-width="3" x1="1061.0" x2="1021.0" y1="1225.0" y2="1289.0" /><line stroke="#999" stroke-width="3" x1="1021.0" x2="941.0" y1="1289.0" y2="1225.0" /><line stroke="#999" stroke-width="3" x1="941.0" x2="989.0" y1="1225.0" y2="1049.0" /><line stroke="#999" stroke-width="3" x1="989.0" x2="1053.0" y1="1049.0" y2="1017.0" /><line stroke="#999" stroke-width="3" x1="1053.0" x2="1061.0" y1="1017.0" y2="1225.0" /><line stroke="#999" stroke-width="3" x1="1037.0" x2="973.0" y1="1201.0" y2="1225.0" /><line stroke="#999" stroke-width="3" x1="973.0" x2="997.0" y1="1225.0" y2="1105.0" /><line stroke="#999" stroke-width="3" x1="997.0" x2="1037.0" y1="1105.0" y2="1089.0" /><line stroke="#999" stroke-width="3" x1="1037.0" x2="1037.0" y1="1089.0" y2="1201.0" /><line stroke="#999" stroke-width="3" x1="1013.0" x2="1045.0" y1="417.0" y2="441.0" /><line stroke="#999" stroke-width="3" x1="1013.0" x2="853.0" y1="481.0" y2="477.0" /><line stroke="#999" stroke-width="3" x1="1733.0" x2="1693.0" y1="697.0" y2="769.0" /><line stroke="#999" stroke-width="3" x1="1693.0" x2="1509.0" y1="769.0" y2="761.0" /><line stroke="#999" stroke-width="3" x1="1509.0" x2="1397.0" y1="761.0" y2="761.0" /><line stroke="#999" stroke-width="3" x1="1397.0" x2="1373.0" y1="761.0" y2="657.0" /><line stroke="#999" stroke-width="3" x1="1373.0" x2="1581.0" y1="657.0" y2="649.0" /><line stroke="#999" stroke-width="3" x1="1581.0" x2="1733.0" y1="649.0" y2="697.0" /><line stroke="#999" stroke-width="3" x1="1197.0" x2="1237.0" y1="673.0" y2="825.0" /><line stroke="#999" stroke-width="3" x1="1237.0" x2="1013.0" y1="825.0" y2="744.0" /><line stroke="#999" stroke-width="3" x1="1013.0" x2="829.0" y1="744.0" y2="792.0" /><line stroke="#999" stroke-width="3" x1="829.0" x2="861.0" y1="792.0" y2="681.0" /><line stroke="#999" stroke-width="3" x1="861.0" x2="1093.0" y1="681.0" y2="633.0" /><line stroke="#999" stroke-width="3" x1="1093.0" x2="1197.0" y1="633.0" y2="673.0" /><line stroke="#999" stroke-width="3" x1="2325.0" x2="2197.0" y1="1809.0" y2="1889.0" /><line stroke="#999" stroke-width="3" x1="2197.0" x2="2045.0" y1="1889.0" y2="1929.0" /><line stroke="#999" stroke-width="3" x1="2045.0" x2="1917.0" y1="1929.0" y2="2145.0" /><line stroke="#999" stroke-width="3" x1="1917.0" x2="1837.0" y1="2145.0" y2="2113.0" /><line stroke="#999" stroke-width="3" x1="1837.0" x2="1989.0" y1="2113.0" y2="1793.0" /><line stroke="#999" stroke-width="3" x1="1989.0" x2="1909.0" y1="1793.0" y2="1673.0" /><line stroke="#999" stroke-width="3" x1="1909.0" x2="1909.0" y1="1673.0" y2="1609.0" /><line stroke="#999" stroke-width="3" x1="1901.0" x2="1773.0" y1="1545.0" y2="1385.0" /><line stroke="#999" stroke-width="3" x1="1773.0" x2="1853.0" y1="1385.0" y2="1313.0" /><line stroke="#999" stroke-width="3" x1="1853.0" x2="2077.0" y1="1313.0" y2="1305.0" /><line stroke="#999" stroke-width="3" x1="2077.0" x2="2173.0" y1="1305.0" y2="1481.0" /><line stroke="#999" stroke-width="3" x1="2173.0" x2="2205.0" y1="1481.0" y2="1561.0" /><line stroke="#999" stroke-width="3" x1="893.0" x2="914.0" y1="1449.0" y2="1511.0" /><line stroke="#999" stroke-width="3" x1="1125.0" x2="1146.0" y1="1433.0" y2="955.0" /><line stroke="#999" stroke-width="3" x1="893.0" x2="1125.0" y1="1449.0" y2="1433.0" /><line stroke="#999" stroke-width="3" x1="2237.0" x2="2157.0" y1="1241.0" y2="1286.0" /><line stroke="#999" stroke-width="3" x1="2477.0" x2="2653.0" y1="2169.0" y2="2238.0" /><line stroke="#999" stroke-width="3" x1="2225.0" x2="2397.0" y1="2063.0" y2="1745.0" /><line stroke="#999" stroke-width="3" x1="2237.0" x2="2505.0" y1="1241.0" y2="1751.0" /><line stroke="#999" stroke-width="3" x1="1581.0" x2="1653.0" y1="1505.0" y2="1833.0" /><line stroke="#999" stroke-width="3" x1="2597.0" x2="2525.0" y1="641.0" y2="633.0" /><line stroke="#999" stroke-width="3" x1="2677.0" x2="2597.0" y1="649.0" y2="641.0" /><line stroke="#999" stroke-width="3" x1="3125.0" x2="2957.0" y1="1425.0" y2="1009.0" /><line stroke="#999" stroke-width="3" x1="2957.0" x2="2597.0" y1="1009.0" y2="945.0" /><line stroke="#999" stroke-width="3" x1="2597.0" x2="2597.0" y1="945.0" y2="641.0" /><line stroke="#999" stroke-width="3" x1="3021.0" x2="3205.0" y1="945.0" y2="1425.0" /><line stroke="#999" stroke-width="3" x1="2677.0" x2="3021.0" y1="881.0" y2="945.0" /><line stroke="#999" stroke-width="3" x1="2677.0" x2="2677.0" y1="649.0" y2="881.0" /><line stroke="#999" stroke-width="3" x1="3037.0" x2="3125.0" y1="2153.0" y2="1425.0" /><line stroke="#999" stroke-width="3" x1="3205.0" x2="3117.0" y1="1425.0" y2="2233.0" /><line stroke="#999" stroke-width="3" x1="2653.0" x2="3037.0" y1="2238.0" y2="2153.0" /><line stroke="#999" stroke-width="3" x1="3117.0" x2="2629.0" y1="2233.0" y2="2305.0" /><line stroke="#999" stroke-width="3" x1="3117.0" x2="3213.0" y1="2233.0" y2="2574.0" /><line stroke="#333" stroke-width="10" x1="1925.0" x2="1909.0" y1="761.0" y2="929.0" /><line stroke="#999" stroke-width="3" x1="2069.0" x2="1893.0" y1="1097.0" y2="993.0" /><line stroke="#333" stroke-width="10" x1="2181.0" x2="2213.0" y1="1105.0" y2="1065.0" /><line stroke="#333" stroke-width="10" x1="2101.0" x2="2069.0" y1="1065.0" y2="1097.0" /><line stroke="#333" stroke-width="10" x1="2045.0" x2="2077.0" y1="897.0" y2="777.0" /><line stroke="#666" stroke-width="20" x1="2037.0" x2="1989.0" y1="729.0" y2="729.0" /><line stroke="#333" stroke-width="10" x1="2141.0" x2="2125.0" y1="1017.0" y2="1041.0" /><line stroke="#333" stroke-width="10" x1="1909.0" x2="1973.0" y1="929.0" y2="1001.0" /><line stroke="#333" stroke-width="10" x1="1989.0" x2="1925.0" y1="729.0" y2="761.0" /><line stroke="#999" stroke-width="3" x1="2157.0" x2="2069.0" y1="1145.0" y2="1097.0" /><line stroke="#999" stroke-width="3" x1="2213.0" x2="2125.0" y1="1065.0" y2="1041.0" /><line stroke="#333" stroke-width="10" x1="2133.0" x2="2141.0" y1="993.0" y2="1017.0" /><line stroke="#333" stroke-width="10" x1="2213.0" x2="2229.0" y1="1065.0" y2="1025.0" /><line stroke="#999" stroke-width="3" x1="2229.0" x2="2141.0" y1="1025.0" y2="1017.0" /><line stroke="#333" stroke-width="10" x1="2125.0" x2="2101.0" y1="1041.0" y2="1065.0" /><line stroke="#333" stroke-width="10" x1="2157.0" x2="2181.0" y1="1145.0" y2="1105.0" /><line stroke="#999" stroke-width="3" x1="2181.0" x2="2101.0" y1="1105.0" y2="1065.0" /><line stroke="#333" stroke-width="10" x1="2117.0" x2="2133.0" y1="961.0" y2="993.0" /><line stroke="#333" stroke-width="10" x1="2229.0" x2="2205.0" y1="1025.0" y2="977.0" /><line stroke="#999" stroke-width="3" x1="2205.0" x2="2133.0" y1="977.0" y2="993.0" /><line stroke="#333" stroke-width="10" x1="2077.0" x2="2117.0" y1="945.0" y2="961.0" /><line stroke="#333" stroke-width="10" x1="2205.0" x2="2165.0" y1="977.0" y2="929.0" /><line stroke="#999" stroke-width="3" x1="2165.0" x2="2117.0" y1="929.0" y2="961.0" /><line stroke="#333" stroke-width="10" x1="2021.0" x2="2077.0" y1="937.0" y2="945.0" /><line stroke="#333" stroke-width="10" x1="2165.0" x2="2109.0" y1="929.0" y2="905.0" /><line stroke="#999" stroke-width="3" x1="2109.0" x2="2077.0" y1="905.0" y2="945.0" /><line stroke="#333" stroke-width="10" x1="1973.0" x2="2021.0" y1="1001.0" y2="937.0" /><line stroke="#333" stroke-width="10" x1="2109.0" x2="2045.0" y1="905.0" y2="897.0" /><line stroke="#999" stroke-width="3" x1="2021.0" x2="2045.0" y1="937.0" y2="897.0" /><line stroke="#666" stroke-width="20" x1="2701.0" x2="2813.0" y1="1057.0" y2="1041.0" /><line stroke="#999" stroke-width="3" x1="2573.0" x2="2457.0" y1="2089.0" y2="2040.0" /><line stroke="#333" stroke-width="10" x1="2613.0" x2="2573.0" y1="2073.0" y2="2089.0" /><line stroke="#666" stroke-width="20" x1="2677.0" x2="2573.0" y1="2137.0" y2="2089.0" /><line stroke="#999" stroke-width="3" x1="2813.0" x2="2889.0" y1="1041.0" y2="1064.0" /><line stroke="#333" stroke-width="10" x1="2813.0" x2="2813.0" y1="1113.0" y2="1041.0" /><line stroke="#333" stroke-width="10" x1="2741.0" x2="2757.0" y1="1665.0" y2="1609.0" /><line stroke="#333" stroke-width="10" x1="2549.0" x2="2661.0" y1="1577.0" y2="1601.0" /><line stroke="#999" stroke-width="3" x1="2661.0" x2="2757.0" y1="1601.0" y2="1609.0" /><line stroke="#333" stroke-width="10" x1="2981.0" x2="2957.0" y1="1361.0" y2="1305.0" /><line stroke="#333" stroke-width="10" x1="2845.0" x2="2885.0" y1="1265.0" y2="1329.0" /><line stroke="#999" stroke-width="3" x1="2885.0" x2="2957.0" y1="1329.0" y2="1305.0" /><line stroke="#333" stroke-width="10" x1="2901.0" x2="2901.0" y1="1377.0" y2="1417.0" /><line stroke="#333" stroke-width="10" x1="2989.0" x2="3005.0" y1="1457.0" y2="1417.0" /><line stroke="#999" stroke-width="3" x1="2901.0" x2="3005.0" y1="1417.0" y2="1417.0" /><line stroke="#333" stroke-width="10" x1="2909.0" x2="2845.0" y1="1233.0" y2="1169.0" /><line stroke="#333" stroke-width="10" x1="2741.0" x2="2781.0" y1="1137.0" y2="1201.0" /><line stroke="#999" stroke-width="3" x1="2781.0" x2="2845.0" y1="1201.0" y2="1169.0" /><line stroke="#333" stroke-width="10" x1="2845.0" x2="2813.0" y1="1169.0" y2="1113.0" /><line stroke="#333" stroke-width="10" x1="2701.0" x2="2741.0" y1="1057.0" y2="1137.0" /><line stroke="#999" stroke-width="3" x1="2741.0" x2="2813.0" y1="1137.0" y2="1113.0" /><line stroke="#333" stroke-width="10" x1="2957.0" x2="2909.0" y1="1305.0" y2="1233.0" /><line stroke="#333" stroke-width="10" x1="2781.0" x2="2845.0" y1="1201.0" y2="1265.0" /><line stroke="#999" stroke-width="3" x1="2845.0" x2="2909.0" y1="1265.0" y2="1233.0" /><line stroke="#333" stroke-width="10" x1="3005.0" x2="2981.0" y1="1417.0" y2="1361.0" /><line stroke="#333" stroke-width="10" x1="2885.0" x2="2901.0" y1="1329.0" y2="1377.0" /><line stroke="#999" stroke-width="3" x1="2901.0" x2="2981.0" y1="1377.0" y2="1361.0" /><line stroke="#333" stroke-width="10" x1="3021.0" x2="2989.0" y1="1473.0" y2="1457.0" /><line stroke="#333" stroke-width="10" x1="2901.0" x2="2909.0" y1="1417.0" y2="1449.0" /><line stroke="#999" stroke-width="3" x1="2989.0" x2="2909.0" y1="1457.0" y2="1449.0" /><line stroke="#333" stroke-width="10" x1="2693.0" x2="2685.0" y1="1969.0" y2="1937.0" /><line stroke="#333" stroke-width="10" x1="2605.0" x2="2581.0" y1="1873.0" y2="1929.0" /><line stroke="#999" stroke-width="3" x1="2685.0" x2="2581.0" y1="1937.0" y2="1929.0" /><line stroke="#333" stroke-width="10" x1="2685.0" x2="2701.0" y1="1889.0" y2="1849.0" /><line stroke="#333" stroke-width="10" x1="2661.0" x2="2629.0" y1="1793.0" y2="1817.0" /><line stroke="#999" stroke-width="3" x1="2701.0" x2="2629.0" y1="1849.0" y2="1817.0" /><line stroke="#333" stroke-width="10" x1="2685.0" x2="2685.0" y1="1937.0" y2="1889.0" /><line stroke="#333" stroke-width="10" x1="2629.0" x2="2605.0" y1="1817.0" y2="1873.0" /><line stroke="#999" stroke-width="3" x1="2685.0" x2="2605.0" y1="1889.0" y2="1873.0" /><line stroke="#333" stroke-width="10" x1="2757.0" x2="2741.0" y1="1721.0" y2="1665.0" /><line stroke="#333" stroke-width="10" x1="2661.0" x2="2661.0" y1="1601.0" y2="1657.0" /><line stroke="#999" stroke-width="3" x1="2741.0" x2="2661.0" y1="1665.0" y2="1657.0" /><line stroke="#333" stroke-width="10" x1="2597.0" x2="2621.0" y1="1977.0" y2="2009.0" /><line stroke="#333" stroke-width="10" x1="2733.0" x2="2733.0" y1="2065.0" y2="2017.0" /><line stroke="#999" stroke-width="3" x1="2733.0" x2="2621.0" y1="2017.0" y2="2009.0" /><line stroke="#333" stroke-width="10" x1="2733.0" x2="2693.0" y1="2017.0" y2="1969.0" /><line stroke="#333" stroke-width="10" x1="2581.0" x2="2597.0" y1="1929.0" y2="1977.0" /><line stroke="#999" stroke-width="3" x1="2693.0" x2="2597.0" y1="1969.0" y2="1977.0" /><line stroke="#333" stroke-width="10" x1="2621.0" x2="2629.0" y1="2009.0" y2="2049.0" /><line stroke="#333" stroke-width="10" x1="2709.0" x2="2733.0" y1="2105.0" y2="2065.0" /><line stroke="#999" stroke-width="3" x1="2733.0" x2="2629.0" y1="2065.0" y2="2049.0" /><line stroke="#333" stroke-width="10" x1="2773.0" x2="2701.0" y1="1257.0" y2="1161.0" /><line stroke="#333" stroke-width="10" x1="2989.0" x2="3021.0" y1="1705.0" y2="1473.0" /><line stroke="#333" stroke-width="10" x1="2741.0" x2="2757.0" y1="1817.0" y2="1777.0" /><line stroke="#333" stroke-width="10" x1="2669.0" x2="2669.0" y1="1705.0" y2="1753.0" /><line stroke="#999" stroke-width="3" x1="2757.0" x2="2669.0" y1="1777.0" y2="1753.0" /><line stroke="#333" stroke-width="10" x1="2701.0" x2="2741.0" y1="1849.0" y2="1817.0" /><line stroke="#333" stroke-width="10" x1="2669.0" x2="2661.0" y1="1753.0" y2="1793.0" /><line stroke="#999" stroke-width="3" x1="2741.0" x2="2661.0" y1="1817.0" y2="1793.0" /><line stroke="#333" stroke-width="10" x1="2757.0" x2="2757.0" y1="1777.0" y2="1721.0" /><line stroke="#333" stroke-width="10" x1="2661.0" x2="2669.0" y1="1657.0" y2="1705.0" /><line stroke="#999" stroke-width="3" x1="2757.0" x2="2669.0" y1="1721.0" y2="1705.0" /><line stroke="#333" stroke-width="10" x1="2509.0" x2="2477.0" y1="1169.0" y2="1201.0" /><line stroke="#333" stroke-width="10" x1="2757.0" x2="2989.0" y1="1609.0" y2="1705.0" /><line stroke="#333" stroke-width="10" x1="2629.0" x2="2613.0" y1="2049.0" y2="2073.0" /><line stroke="#333" stroke-width="10" x1="2677.0" x2="2709.0" y1="2137.0" y2="2105.0" /><line stroke="#999" stroke-width="3" x1="2709.0" x2="2613.0" y1="2105.0" y2="2073.0" /><line stroke="#333" stroke-width="10" x1="269.0" x2="117.0" y1="406.0" y2="529.0" /><line stroke="#333" stroke-width="10" x1="117.0" x2="117.0" y1="529.0" y2="1997.0" /><line stroke="#333" stroke-width="10" x1="117.0" x2="1717.0" y1="2705.0" y2="2705.0" /><line stroke="#333" stroke-width="10" x1="3317.0" x2="3317.0" y1="2705.0" y2="1747.0" /><line stroke="#333" stroke-width="10" x1="3317.0" x2="2269.0" y1="273.0" y2="273.0" /><line stroke="#333" stroke-width="10" x1="373.0" x2="317.0" y1="273.0" y2="358.0" /><line stroke="#999" stroke-width="3" x1="269.0" x2="269.0" y1="1897.0" y2="2574.0" /><line stroke="#333" stroke-width="10" x1="117.0" x2="117.0" y1="1997.0" y2="2705.0" /><line stroke="#999" stroke-width="3" x1="117.0" x2="269.0" y1="1997.0" y2="1897.0" /><line stroke="#999" stroke-width="3" x1="1741.0" x2="3213.0" y1="2569.0" y2="2574.0" /><line stroke="#333" stroke-width="10" x1="1717.0" x2="3317.0" y1="2705.0" y2="2705.0" /><line stroke="#999" stroke-width="3" x1="1717.0" x2="1741.0" y1="2705.0" y2="2569.0" /><line stroke="#999" stroke-width="3" x1="3213.0" x2="3213.0" y1="1897.0" y2="358.0" /><line stroke="#333" stroke-width="10" x1="3317.0" x2="3317.0" y1="1747.0" y2="273.0" /><line stroke="#999" stroke-width="3" x1="3317.0" x2="3213.0" y1="1747.0" y2="1897.0" /><line stroke="#333" stroke-width="10" x1="2269.0" x2="373.0" y1="273.0" y2="273.0" /><line stroke="#999" stroke-width="3" x1="2169.0" x2="317.0" y1="353.0" y2="358.0" /><line stroke="#999" stroke-width="3" x1="2169.0" x2="2269.0" y1="353.0" y2="273.0" /><line stroke="#999" stroke-width="3" x1="1053.0" x2="1013.0" y1="465.0" y2="481.0" /><line stroke="#999" stroke-width="3" x1="1045.0" x2="1053.0" y1="441.0" y2="465.0" /><line stroke="#333" stroke-width="10" x1="2564.0" x2="2580.0" y1="1445.0" y2="1461.0" /><line stroke="#999" stroke-width="3" x1="2636.0" x2="2580.0" y1="1419.0" y2="1461.0" /><line stroke="#333" stroke-width="10" x1="2620.0" x2="2604.0" y1="1403.0" y2="1387.0" /><line stroke="#333" stroke-width="10" x1="2532.0" x2="2548.0" y1="1413.0" y2="1429.0" /><line stroke="#666" stroke-width="20" x1="2548.0" x2="2604.0" y1="1429.0" y2="1387.0" /><line stroke="#333" stroke-width="10" x1="2548.0" x2="2564.0" y1="1429.0" y2="1445.0" /><line stroke="#333" stroke-width="10" x1="2636.0" x2="2620.0" y1="1419.0" y2="1403.0" /><line stroke="#666" stroke-width="20" x1="2620.0" x2="2564.0" y1="1403.0" y2="1445.0" /><line stroke="#333" stroke-width="10" x1="2604.0" x2="2588.0" y1="1387.0" y2="1371.0" /><line stroke="#333" stroke-width="10" x1="2485.0" x2="2532.0" y1="1425.0" y2="1413.0" /><line stroke="#999" stroke-width="3" x1="2532.0" x2="2588.0" y1="1413.0" y2="1371.0" /><line stroke="#333" stroke-width="10" x1="2365.0" x2="2405.0" y1="1313.0" y2="1401.0" /><line stroke="#333" stroke-width="10" x1="2645.0" x2="2509.0" y1="1129.0" y2="1169.0" /><line stroke="#333" stroke-width="10" x1="2837.0" x2="2797.0" y1="1377.0" y2="1289.0" /><line stroke="#333" stroke-width="10" x1="2501.0" x2="2549.0" y1="1521.0" y2="1577.0" /><line stroke="#333" stroke-width="10" x1="2909.0" x2="2837.0" y1="1449.0" y2="1377.0" /><line stroke="#333" stroke-width="10" x1="2565.0" x2="2501.0" y1="1473.0" y2="1521.0" /><line stroke="#333" stroke-width="10" x1="2405.0" x2="2485.0" y1="1401.0" y2="1425.0" /><line stroke="#333" stroke-width="10" x1="2580.0" x2="2565.0" y1="1461.0" y2="1473.0" /><line stroke="#333" stroke-width="10" x1="2682.0" x2="2695.0" y1="1359.0" y2="1372.0" /><line stroke="#666" stroke-width="20" x1="2682.0" x2="2732.0" y1="1359.0" y2="1316.0" /><line stroke="#333" stroke-width="10" x1="2745.0" x2="2732.0" y1="1329.0" y2="1316.0" /><line stroke="#999" stroke-width="3" x1="2745.0" x2="2695.0" y1="1329.0" y2="1372.0" /><line stroke="#333" stroke-width="10" x1="2588.0" x2="2613.0" y1="1371.0" y2="1353.0" /><line stroke="#0d0" stroke-width="20" x1="2701.0" x2="2645.0" y1="1161.0" y2="1129.0" /><line stroke="#333" stroke-width="10" x1="2477.0" x2="2365.0" y1="1201.0" y2="1313.0" /><line stroke="#999" stroke-width="3" x1="2477.0" x2="2613.0" y1="1201.0" y2="1353.0" /><line stroke="#999" stroke-width="3" x1="2647.0" x2="2655.0" y1="1154.0" y2="1146.0" /><line stroke="#999" stroke-width="3" x1="2676.0" x2="2647.0" y1="1173.0" y2="1154.0" /><line stroke="#999" stroke-width="3" x1="2684.0" x2="2676.0" y1="1165.0" y2="1173.0" /><line stroke="#999" stroke-width="3" x1="2655.0" x2="2684.0" y1="1146.0" y2="1165.0" /><line stroke="#333" stroke-width="10" x1="2077.0" x2="2037.0" y1="777.0" y2="729.0" /><line stroke="#333" stroke-width="10" x1="2695.0" x2="2636.0" y1="1372.0" y2="1419.0" /><line stroke="#333" stroke-width="10" x1="2797.0" x2="2745.0" y1="1289.0" y2="1329.0" /><line stroke="#333" stroke-width="10" x1="2613.0" x2="2682.0" y1="1353.0" y2="1359.0" /><line stroke="#333" stroke-width="10" x1="2732.0" x2="2773.0" y1="1316.0" y2="1257.0" /><line stroke="#333" stroke-width="10" x1="2469.0" x2="2701.0" y1="1145.0" y2="1057.0" /><line stroke="#333" stroke-width="10" x1="2333.0" x2="2469.0" y1="1321.0" y2="1145.0" /><line stroke="#333" stroke-width="10" x1="2645.0" x2="2333.0" y1="1761.0" y2="1321.0" /><line stroke="#333" stroke-width="10" x1="2517.0" x2="2645.0" y1="2009.0" y2="1761.0" /><line stroke="#333" stroke-width="10" x1="2573.0" x2="2517.0" y1="2089.0" y2="2009.0" /><line stroke="#333" stroke-width="10" x1="2797.0" x2="2677.0" y1="2089.0" y2="2137.0" /><line stroke="#333" stroke-width="10" x1="3021.0" x2="2797.0" y1="1705.0" y2="2089.0" /><line stroke="#333" stroke-width="10" x1="3053.0" x2="3021.0" y1="1409.0" y2="1705.0" /><line stroke="#333" stroke-width="10" x1="2813.0" x2="3053.0" y1="1041.0" y2="1409.0" /><line stroke="#333" stroke-width="10" x1="2069.0" x2="1901.0" y1="1097.0" y2="969.0" /><line stroke="#333" stroke-width="10" x1="1901.0" x2="1885.0" y1="969.0" y2="721.0" /><line stroke="#333" stroke-width="10" x1="1885.0" x2="2317.0" y1="721.0" y2="697.0" /><line stroke="#333" stroke-width="10" x1="2317.0" x2="2237.0" y1="697.0" y2="1049.0" /><line stroke="#333" stroke-width="10" x1="2237.0" x2="2157.0" y1="1049.0" y2="1145.0" /><line stroke="#999" stroke-width="3" x1="1789.0" x2="1821.0" y1="1617.0" y2="1681.0" /><line stroke="#999" stroke-width="3" x1="1909.0" x2="1901.0" y1="1609.0" y2="1545.0" /><line stroke="#999" stroke-width="3" x1="1909.0" x2="1789.0" y1="1609.0" y2="1617.0" /><line stroke="#999" stroke-width="3" x1="1821.0" x2="1893.0" y1="1681.0" y2="1863.0" /><line stroke="#999" stroke-width="3" x1="1821.0" x2="1909.0" y1="1681.0" y2="1673.0" /><line stroke="#333" stroke-width="10" x1="1909.0" x2="2061.0" y1="1673.0" y2="1729.0" /><line stroke="#333" stroke-width="10" x1="2069.0" x2="1965.0" y1="1473.0" y2="1521.0" /><line stroke="#333" stroke-width="10" x1="1965.0" x2="1909.0" y1="1521.0" y2="1609.0" /><line stroke="#333" stroke-width="10" x1="2101.0" x2="1909.0" y1="1865.0" y2="1673.0" /><line stroke="#333" stroke-width="10" x1="2269.0" x2="2101.0" y1="1809.0" y2="1865.0" /><line stroke="#333" stroke-width="10" x1="1909.0" x2="1941.0" y1="1609.0" y2="1425.0" /><line stroke="#999" stroke-width="3" x1="2221.0" x2="2325.0" y1="1617.0" y2="1809.0" /><line stroke="#999" stroke-width="3" x1="2320.0" x2="2296.0" y1="1607.0" y2="1551.0" /><line stroke="#999" stroke-width="3" x1="2221.0" x2="2320.0" y1="1617.0" y2="1607.0" /><line stroke="#999" stroke-width="3" x1="2205.0" x2="2221.0" y1="1561.0" y2="1617.0" /><line stroke="#999" stroke-width="3" x1="2296.0" x2="2157.0" y1="1551.0" y2="1286.0" /><line stroke="#999" stroke-width="3" x1="2296.0" x2="2205.0" y1="1551.0" y2="1561.0" /><line stroke="#333" stroke-width="10" x1="2077.0" x2="2205.0" y1="1393.0" y2="1561.0" /><line stroke="#333" stroke-width="10" x1="2221.0" x2="2269.0" y1="1617.0" y2="1809.0" /><line stroke="#333" stroke-width="10" x1="2205.0" x2="2069.0" y1="1561.0" y2="1473.0" /><line stroke="#333" stroke-width="10" x1="2061.0" x2="2165.0" y1="1729.0" y2="1697.0" /><line stroke="#333" stroke-width="10" x1="2165.0" x2="2221.0" y1="1697.0" y2="1617.0" /><line stroke="#333" stroke-width="10" x1="1941.0" x2="2077.0" y1="1425.0" y2="1393.0" /><line stroke="#333" stroke-width="10" x1="2131.0" x2="2107.0" y1="1605.0" y2="1653.0" /><line stroke="#333" stroke-width="10" x1="2107.0" x2="2067.0" y1="1653.0" y2="1669.0" /><line stroke="#333" stroke-width="10" x1="2067.0" x2="2019.0" y1="1669.0" y2="1653.0" /><line stroke="#333" stroke-width="10" x1="2019.0" x2="2003.0" y1="1653.0" y2="1605.0" /><line stroke="#333" stroke-width="10" x1="2003.0" x2="2019.0" y1="1605.0" y2="1565.0" /><line stroke="#333" stroke-width="10" x1="2019.0" x2="2067.0" y1="1565.0" y2="1541.0" /><line stroke="#333" stroke-width="10" x1="2067.0" x2="2107.0" y1="1541.0" y2="1565.0" /><line stroke="#333" stroke-width="10" x1="2107.0" x2="2131.0" y1="1565.0" y2="1605.0" /><rect fill="#090" height="24" stroke="#090" stroke-width="5" transform="rotate(225,3043.0,2403.0)" width="24" x="3031.0" y="2391.0" /><rect fill="#090" height="24" stroke="#090" stroke-width="5" transform="rotate(315,488.0,2333.0)" width="24" x="476.0" y="2321.0" /><circle cx="540.0" cy="2235.0" fill="#900" r="16" stroke="#900" stroke-width="5" /><circle cx="2965.0" cy="2350.0" fill="#900" r="16" stroke="#900" stroke-width="5" /><circle cx="2915.0" cy="755.0" fill="#900" r="16" stroke="#900" stroke-width="5" /><rect fill="#090" height="24" stroke="#090" stroke-width="5" transform="rotate(0,465.0,435.0)" width="24" x="453.0" y="423.0" /><circle cx="595.0" cy="430.0" fill="#900" r="16" stroke="#900" stroke-width="5" /><ellipse cx="50.0" cy="48.0" fill="#009" rx="12" ry="24" stroke="#009" stroke-width="5" /><ellipse cx="232.0" cy="47.0" fill="#009" rx="12" ry="24" stroke="#009" stroke-width="5" /><ellipse cx="46.0" cy="321.0" fill="#009" rx="12" ry="24" stroke="#009" stroke-width="5" /><ellipse cx="208.0" cy="304.0" fill="#009" rx="12" ry="24" stroke="#009" stroke-width="5" /><rect fill="#900" height="48" stroke="#900" stroke-width="5" transform="rotate(180,3274.0,1397.0)" width="32" x="3258.0" y="1373.0" /><rect fill="#900" height="48" stroke="#900" stroke-width="5" transform="rotate(90,1174.0,313.0)" width="32" x="1158.0" y="289.0" /><rect fill="#900" height="48" stroke="#900" stroke-width="5" transform="rotate(180,3265.0,1985.0)" width="32" x="3249.0" y="1961.0" /><rect fill="#900" height="48" stroke="#900" stroke-width="5" transform="rotate(270,427.0,2632.0)" width="32" x="411.0" y="2608.0" /><rect fill="#900" height="48" stroke="#900" stroke-width="5" transform="rotate(180,3256.0,2623.0)" width="32" x="3240.0" y="2599.0" /><rect fill="#900" height="48" stroke="#900" stroke-width="5" transform="rotate(90,2521.0,316.0)" width="32" x="2505.0" y="292.0" /><rect fill="#900" height="48" stroke="#900" stroke-width="5" transform="rotate(270,1090.0,2641.0)" width="32" x="1074.0" y="2617.0" /><rect fill="#900" height="48" stroke="#900" stroke-width="5" transform="rotate(90,3265.0,703.0)" width="32" x="3249.0" y="679.0" /><rect fill="#900" height="48" stroke="#900" stroke-width="5" transform="rotate(270,2269.0,2635.0)" width="32" x="2253.0" y="2611.0" /><rect fill="#900" height="48" stroke="#900" stroke-width="5" transform="rotate(0,202.0,2110.0)" width="32" x="186.0" y="2086.0" /><rect fill="#900" height="48" stroke="#900" stroke-width="5" transform="rotate(0,215.0,1337.0)" width="32" x="199.0" y="1313.0" /><rect fill="#900" height="48" stroke="#900" stroke-width="5" transform="rotate(0,190.0,997.0)" width="32" x="174.0" y="973.0" /><rect fill="#900" height="48" stroke="#900" stroke-width="5" transform="rotate(135,2694.0,490.0)" width="32" x="2678.0" y="466.0" /><rect fill="#900" height="48" stroke="#900" stroke-width="5" transform="rotate(90,2010.0,768.0)" width="32" x="1994.0" y="744.0" /><rect fill="#900" height="48" stroke="#900" stroke-width="5" transform="rotate(135,1616.0,882.0)" width="32" x="1600.0" y="858.0" /><rect fill="#900" height="48" stroke="#900" stroke-width="5" transform="rotate(0,2561.0,1525.0)" width="32" x="2545.0" y="1501.0" /><rect fill="#900" height="48" stroke="#900" stroke-width="5" transform="rotate(135,2350.0,1931.0)" width="32" x="2334.0" y="1907.0" /><rect fill="#900" height="48" stroke="#900" stroke-width="5" transform="rotate(225,2283.0,1431.0)" width="32" x="2267.0" y="1407.0" /><rect fill="#900" height="48" stroke="#900" stroke-width="5" transform="rotate(0,738.0,1477.0)" width="32" x="722.0" y="1453.0" /><rect fill="#900" height="48" stroke="#900" stroke-width="5" transform="rotate(0,854.0,2340.0)" width="32" x="838.0" y="2316.0" /><rect fill="#900" height="48" stroke="#900" stroke-width="5" transform="rotate(90,3160.0,1466.0)" width="32" x="3144.0" y="1442.0" /><rect fill="#900" height="48" stroke="#900" stroke-width="5" transform="rotate(90,1652.0,313.0)" width="32" x="1636.0" y="289.0" /><rect fill="#090" height="24" stroke="#090" stroke-width="5" transform="rotate(135,2596.0,1292.0)" width="24" x="2584.0" y="1280.0" /><rect fill="#090" height="24" stroke="#090" stroke-width="5" transform="rotate(135,2538.0,1223.0)" width="24" x="2526.0" y="1211.0" /><rect fill="#090" height="24" stroke="#090" stroke-width="5" transform="rotate(135,2489.0,1216.0)" width="24" x="2477.0" y="1204.0" /><rect fill="#090" height="24" stroke="#090" stroke-width="5" transform="rotate(135,2589.0,1244.0)" width="24" x="2577.0" y="1232.0" /><rect fill="#090" height="24" stroke="#090" stroke-width="5" transform="rotate(135,2387.0,1316.0)" width="24" x="2375.0" y="1304.0" /><rect fill="#090" height="24" stroke="#090" stroke-width="5" transform="rotate(135,2601.0,1340.0)" width="24" x="2589.0" y="1328.0" /><rect fill="#090" height="24" stroke="#090" stroke-width="5" transform="rotate(135,2750.0,1256.0)" width="24" x="2738.0" y="1244.0" /><rect fill="#900" height="48" stroke="#900" stroke-width="5" transform="rotate(90,2786.0,1343.0)" width="32" x="2770.0" y="1319.0" /><rect fill="#090" height="24" stroke="#090" stroke-width="5" transform="rotate(135,3007.0,693.0)" width="24" x="2995.0" y="681.0" /><rect fill="#900" height="48" stroke="#900" stroke-width="5" transform="rotate(180,1962.0,1633.0)" width="32" x="1946.0" y="1609.0" /></svg>