<?xml version="1.0" encoding="utf-8" ?>
<svg baseProfile="tiny" height="343" version="1.2" viewBox="0 0 2890 970" width="1024" xmlns="http://www.w3.org/2000/svg" xmlns:ev="http://www.w3.org/2001/xml-events" xmlns:xlink="http://www.w3.org/1999/xlink"><defs /><line stroke="#333" stroke-width="10" x1="389.0" x2="645.0" y1="581.0" y2="901.0" /><line stroke="#333" stroke-width="10" x1="645.0" x2="1221.0" y1="901.0" y2="901.0" /><line stroke="#333" stroke-width="10" x1="1221.0" x2="1541.0" y1="901.0" y2="581.0" /><line stroke="#333" stroke-width="10" x1="1285.0" x2="645.0" y1="197.0" y2="197.0" /><line stroke="#999" stroke-width="3" x1="645.0" x2="709.0" y1="773.0" y2="837.0" /><line stroke="#999" stroke-width="3" x1="709.0" x2="773.0" y1="837.0" y2="837.0" /><line stroke="#999" stroke-width="3" x1="773.0" x2="837.0" y1="837.0" y2="773.0" /><line stroke="#999" stroke-width="3" x1="837.0" x2="837.0" y1="773.0" y2="709.0" /><line stroke="#999" stroke-width="3" x1="837.0" x2="773.0" y1="709.0" y2="645.0" /><line stroke="#999" stroke-width="3" x1="773.0" x2="709.0" y1="645.0" y2="645.0" /><line stroke="#999" stroke-width="3" x1="709.0" x2="645.0" y1="645.0" y2="709.0" /><line stroke="#999" stroke-width="3" x1="645.0" x2="645.0" y1="709.0" y2="773.0" /><line stroke="#333" stroke-width="10" x1="1413.0" x2="1285.0" y1="389.0" y2="197.0" /><line stroke="#333" stroke-width="10" x1="1541.0" x2="1925.0" y1="581.0" y2="581.0" /><line stroke="#333" stroke-width="10" x1="1925.0" x2="2437.0" y1="581.0" y2="453.0" /><line stroke="#333" stroke-width="10" x1="2437.0" x2="2885.0" y1="453.0" y2="453.0" /><line stroke="#333" stroke-width="10" x1="2885.0" x2="2885.0" y1="453.0" y2="133.0" /><line stroke="#333" stroke-width="10" x1="2885.0" x2="1733.0" y1="133.0" y2="133.0" /><line stroke="#333" stroke-width="10" x1="1733.0" x2="1733.0" y1="133.0" y2="389.0" /><line stroke="#333" stroke-width="10" x1="1733.0" x2="1413.0" y1="389.0" y2="389.0" /><line stroke="#333" stroke-width="10" x1="261.0" x2="389.0" y1="325.0" y2="581.0" /><line stroke="#333" stroke-width="10" x1="69.0" x2="69.0" y1="5.0" y2="325.0" /><line stroke="#333" stroke-width="10" x1="517.0" x2="69.0" y1="5.0" y2="5.0" /><line stroke="#333" stroke-width="10" x1="645.0" x2="517.0" y1="197.0" y2="5.0" /><line stroke="#999" stroke-width="3" x1="2629.0" x2="2693.0" y1="325.0" y2="389.0" /><line stroke="#999" stroke-width="3" x1="2693.0" x2="2757.0" y1="389.0" y2="389.0" /><line stroke="#999" stroke-width="3" x1="2757.0" x2="2821.0" y1="389.0" y2="325.0" /><line stroke="#999" stroke-width="3" x1="2821.0" x2="2821.0" y1="325.0" y2="261.0" /><line stroke="#999" stroke-width="3" x1="2821.0" x2="2757.0" y1="261.0" y2="197.0" /><line stroke="#999" stroke-width="3" x1="2757.0" x2="2693.0" y1="197.0" y2="197.0" /><line stroke="#999" stroke-width="3" x1="2693.0" x2="2629.0" y1="197.0" y2="261.0" /><line stroke="#999" stroke-width="3" x1="2629.0" x2="2629.0" y1="261.0" y2="325.0" /><line stroke="#333" stroke-width="10" x1="69.0" x2="69.0" y1="325.0" y2="645.0" /><line stroke="#333" stroke-width="10" x1="69.0" x2="5.0" y1="645.0" y2="645.0" /><line stroke="#0d0" stroke-width="20" x1="5.0" x2="5.0" y1="645.0" y2="709.0" /><line stroke="#333" stroke-width="10" x1="5.0" x2="69.0" y1="709.0" y2="709.0" /><line stroke="#333" stroke-width="10" x1="69.0" x2="69.0" y1="709.0" y2="901.0" /><line stroke="#333" stroke-width="10" x1="69.0" x2="133.0" y1="901.0" y2="901.0" /><line stroke="#333" stroke-width="10" x1="133.0" x2="133.0" y1="901.0" y2="965.0" /><line stroke="#333" stroke-width="10" x1="133.0" x2="261.0" y1="965.0" y2="965.0" /><line stroke="#333" stroke-width="10" x1="261.0" x2="261.0" y1="965.0" y2="901.0" /><line stroke="#333" stroke-width="10" x1="261.0" x2="325.0" y1="901.0" y2="901.0" /><line stroke="#333" stroke-width="10" x1="325.0" x2="325.0" y1="901.0" y2="517.0" /><line stroke="#333" stroke-width="10" x1="325.0" x2="261.0" y1="517.0" y2="517.0" /><line stroke="#333" stroke-width="10" x1="261.0" x2="261.0" y1="517.0" y2="325.0" /><rect fill="#090" height="24" stroke="#090" stroke-width="5" transform="rotate(0,709.0,709.0)" width="24" x="697.0" y="697.0" /><rect fill="#090" height="24" stroke="#090" stroke-width="5" transform="rotate(0,773.0,709.0)" width="24" x="761.0" y="697.0" /><rect fill="#090" height="24" stroke="#090" stroke-width="5" transform="rotate(0,773.0,773.0)" width="24" x="761.0" y="761.0" /><rect fill="#090" height="24" stroke="#090" stroke-width="5" transform="rotate(0,709.0,773.0)" width="24" x="697.0" y="761.0" /><circle cx="837.0" cy="261.0" fill="#009" r="16" stroke="#009" stroke-width="5" /><rect fill="#900" height="48" stroke="#900" stroke-width="5" transform="rotate(225,453.0,69.0)" width="32" x="437.0" y="45.0" /><rect fill="#900" height="48" stroke="#900" stroke-width="5" transform="rotate(180,1797.0,261.0)" width="32" x="1781.0" y="237.0" /><rect fill="#900" height="48" stroke="#900" stroke-width="5" transform="rotate(270,197.0,517.0)" width="32" x="181.0" y="493.0" /><rect fill="#900" height="48" stroke="#900" stroke-width="5" transform="rotate(270,197.0,453.0)" width="32" x="181.0" y="429.0" /><rect fill="#900" height="48" stroke="#900" stroke-width="5" transform="rotate(90,901.0,645.0)" width="32" x="885.0" y="621.0" /><rect fill="#900" height="48" stroke="#900" stroke-width="5" transform="rotate(90,901.0,709.0)" width="32" x="885.0" y="685.0" /><rect fill="#900" height="48" stroke="#900" stroke-width="5" transform="rotate(270,133.0,453.0)" width="32" x="117.0" y="429.0" /><circle cx="837.0" cy="837.0" fill="#009" r="16" stroke="#009" stroke-width="5" /><rect fill="#090" height="24" stroke="#090" stroke-width="5" transform="rotate(0,2053.0,197.0)" width="24" x="2041.0" y="185.0" /><rect fill="#090" height="24" stroke="#090" stroke-width="5" transform="rotate(0,2117.0,197.0)" width="24" x="2105.0" y="185.0" /><rect fill="#090" height="24" stroke="#090" stroke-width="5" transform="rotate(0,2117.0,261.0)" width="24" x="2105.0" y="249.0" /><rect fill="#090" height="24" stroke="#090" stroke-width="5" transform="rotate(0,2053.0,261.0)" width="24" x="2041.0" y="249.0" /><rect fill="#900" height="48" stroke="#900" stroke-width="5" transform="rotate(0,1861.0,197.0)" width="32" x="1845.0" y="173.0" /><rect fill="#900" height="48" stroke="#900" stroke-width="5" transform="rotate(180,1797.0,197.0)" width="32" x="1781.0" y="173.0" /><rect fill="#900" height="48" stroke="#900" stroke-width="5" transform="rotate(0,1861.0,261.0)" width="32" x="1845.0" y="237.0" /><rect fill="#090" height="24" stroke="#090" stroke-width="5" transform="rotate(0,901.0,517.0)" width="24" x="889.0" y="505.0" /><ellipse cx="965.0" cy="261.0" fill="#009" rx="12" ry="24" stroke="#009" stroke-width="5" /><ellipse cx="773.0" cy="261.0" fill="#009" rx="12" ry="24" stroke="#009" stroke-width="5" /><ellipse cx="1029.0" cy="261.0" fill="#009" rx="12" ry="24" stroke="#009" stroke-width="5" /><circle cx="517.0" cy="133.0" fill="#900" r="16" stroke="#900" stroke-width="5" /><rect fill="#090" height="24" stroke="#090" stroke-width="5" transform="rotate(315,581.0,197.0)" width="24" x="569.0" y="185.0" /><rect fill="#090" height="24" stroke="#090" stroke-width="5" transform="rotate(90,1221.0,261.0)" width="24" x="1209.0" y="249.0" /><circle cx="1221.0" cy="325.0" fill="#900" r="16" stroke="#900" stroke-width="5" /><rect fill="#090" height="24" stroke="#090" stroke-width="5" transform="rotate(0,2565.0,197.0)" width="24" x="2553.0" y="185.0" /><rect fill="#090" height="24" stroke="#090" stroke-width="5" transform="rotate(270,901.0,581.0)" width="24" x="889.0" y="569.0" /><circle cx="2693.0" cy="325.0" fill="#900" r="16" stroke="#900" stroke-width="5" /><circle cx="2757.0" cy="325.0" fill="#009" r="16" stroke="#009" stroke-width="5" /><circle cx="2693.0" cy="261.0" fill="#009" r="16" stroke="#009" stroke-width="5" /><circle cx="2757.0" cy="261.0" fill="#009" r="16" stroke="#009" stroke-width="5" /><circle cx="197.0" cy="389.0" fill="#009" r="16" stroke="#009" stroke-width="5" /><ellipse cx="901.0" cy="261.0" fill="#009" rx="12" ry="24" stroke="#009" stroke-width="5" /><circle cx="2821.0" cy="197.0" fill="#009" r="16" stroke="#009" stroke-width="5" /><circle cx="2821.0" cy="389.0" fill="#090" r="16" stroke="#090" stroke-width="5" /><rect fill="#900" height="48" stroke="#900" stroke-width="5" transform="rotate(0,197.0,901.0)" width="32" x="181.0" y="877.0" /><circle cx="901.0" cy="325.0" fill="#090" r="16" stroke="#090" stroke-width="5" /><circle cx="2629.0" cy="197.0" fill="#009" r="16" stroke="#009" stroke-width="5" /><circle cx="2629.0" cy="389.0" fill="#009" r="16" stroke="#009" stroke-width="5" /><circle cx="2501.0" cy="197.0" fill="#009" r="16" stroke="#009" stroke-width="5" /><circle cx="2501.0" cy="389.0" fill="#009" r="16" stroke="#009" stroke-width="5" /><rect fill="#090" height="24" stroke="#090" stroke-width="5" transform="rotate(0,2437.0,389.0)" width="24" x="2425.0" y="377.0" /><rect fill="#090" height="24" stroke="#090" stroke-width="5" transform="rotate(0,2437.0,197.0)" width="24" x="2425.0" y="185.0" /></svg>