<?xml version="1.0" encoding="utf-8" ?>
<svg baseProfile="tiny" height="669" version="1.2" viewBox="0 0 2242 1466" width="1024" xmlns="http://www.w3.org/2000/svg" xmlns:ev="http://www.w3.org/2001/xml-events" xmlns:xlink="http://www.w3.org/1999/xlink"><defs /><line stroke="#333" stroke-width="10" x1="1029.0" x2="1069.0" y1="956.0" y2="812.0" /><line stroke="#999" stroke-width="3" x1="917.0" x2="1029.0" y1="1068.0" y2="956.0" /><line stroke="#333" stroke-width="10" x1="773.0" x2="917.0" y1="1108.0" y2="1068.0" /><line stroke="#333" stroke-width="10" x1="621.0" x2="773.0" y1="1068.0" y2="1108.0" /><line stroke="#999" stroke-width="3" x1="509.0" x2="621.0" y1="956.0" y2="1068.0" /><line stroke="#333" stroke-width="10" x1="469.0" x2="509.0" y1="812.0" y2="956.0" /><line stroke="#333" stroke-width="10" x1="509.0" x2="469.0" y1="660.0" y2="812.0" /><line stroke="#999" stroke-width="3" x1="621.0" x2="509.0" y1="548.0" y2="660.0" /><line stroke="#333" stroke-width="10" x1="770.0" x2="621.0" y1="350.0" y2="548.0" /><line stroke="#333" stroke-width="10" x1="917.0" x2="770.0" y1="548.0" y2="350.0" /><line stroke="#999" stroke-width="3" x1="1029.0" x2="917.0" y1="660.0" y2="548.0" /><line stroke="#333" stroke-width="10" x1="1069.0" x2="1029.0" y1="812.0" y2="660.0" /><line stroke="#333" stroke-width="10" x1="2109.0" x2="2109.0" y1="1084.0" y2="924.0" /><line stroke="#333" stroke-width="10" x1="1949.0" x2="2109.0" y1="1084.0" y2="1084.0" /><line stroke="#333" stroke-width="10" x1="1821.0" x2="1949.0" y1="1212.0" y2="1084.0" /><line stroke="#333" stroke-width="10" x1="1693.0" x2="1821.0" y1="1084.0" y2="1212.0" /><line stroke="#333" stroke-width="10" x1="1533.0" x2="1693.0" y1="1084.0" y2="1084.0" /><line stroke="#333" stroke-width="10" x1="1533.0" x2="1533.0" y1="924.0" y2="1084.0" /><line stroke="#999" stroke-width="3" x1="1405.0" x2="1533.0" y1="796.0" y2="924.0" /><line stroke="#333" stroke-width="10" x1="1533.0" x2="1405.0" y1="668.0" y2="796.0" /><line stroke="#333" stroke-width="10" x1="1533.0" x2="1533.0" y1="508.0" y2="668.0" /><line stroke="#333" stroke-width="10" x1="1693.0" x2="1533.0" y1="508.0" y2="508.0" /><line stroke="#333" stroke-width="10" x1="1821.0" x2="1693.0" y1="380.0" y2="508.0" /><line stroke="#999" stroke-width="3" x1="1949.0" x2="1821.0" y1="508.0" y2="380.0" /><line stroke="#333" stroke-width="10" x1="2109.0" x2="1949.0" y1="508.0" y2="508.0" /><line stroke="#999" stroke-width="3" x1="2109.0" x2="2109.0" y1="668.0" y2="508.0" /><line stroke="#333" stroke-width="10" x1="2237.0" x2="2109.0" y1="796.0" y2="668.0" /><line stroke="#333" stroke-width="10" x1="2109.0" x2="2237.0" y1="924.0" y2="796.0" /><line stroke="#999" stroke-width="3" x1="1869.0" x2="1773.0" y1="636.0" y2="636.0" /><line stroke="#999" stroke-width="3" x1="1869.0" x2="1869.0" y1="732.0" y2="636.0" /><line stroke="#999" stroke-width="3" x1="1869.0" x2="1869.0" y1="828.0" y2="732.0" /><line stroke="#999" stroke-width="3" x1="1773.0" x2="1869.0" y1="828.0" y2="828.0" /><line stroke="#999" stroke-width="3" x1="1709.0" x2="1773.0" y1="828.0" y2="828.0" /><line stroke="#999" stroke-width="3" x1="1709.0" x2="1709.0" y1="700.0" y2="828.0" /><line stroke="#999" stroke-width="3" x1="1677.0" x2="1709.0" y1="700.0" y2="700.0" /><line stroke="#999" stroke-width="3" x1="1677.0" x2="1677.0" y1="860.0" y2="700.0" /><line stroke="#999" stroke-width="3" x1="1709.0" x2="1677.0" y1="860.0" y2="860.0" /><line stroke="#999" stroke-width="3" x1="1773.0" x2="1709.0" y1="860.0" y2="860.0" /><line stroke="#999" stroke-width="3" x1="1901.0" x2="1773.0" y1="860.0" y2="860.0" /><line stroke="#999" stroke-width="3" x1="1901.0" x2="1901.0" y1="828.0" y2="860.0" /><line stroke="#999" stroke-width="3" x1="1901.0" x2="1901.0" y1="732.0" y2="828.0" /><line stroke="#999" stroke-width="3" x1="1901.0" x2="1901.0" y1="604.0" y2="732.0" /><line stroke="#999" stroke-width="3" x1="1869.0" x2="1901.0" y1="604.0" y2="604.0" /><line stroke="#999" stroke-width="3" x1="1773.0" x2="1869.0" y1="604.0" y2="604.0" /><line stroke="#999" stroke-width="3" x1="1677.0" x2="1773.0" y1="604.0" y2="604.0" /><line stroke="#999" stroke-width="3" x1="1677.0" x2="1677.0" y1="636.0" y2="604.0" /><line stroke="#999" stroke-width="3" x1="1773.0" x2="1677.0" y1="636.0" y2="636.0" /><line stroke="#999" stroke-width="3" x1="1773.0" x2="1773.0" y1="636.0" y2="604.0" /><line stroke="#999" stroke-width="3" x1="1869.0" x2="1869.0" y1="636.0" y2="604.0" /><line stroke="#999" stroke-width="3" x1="1869.0" x2="1901.0" y1="732.0" y2="732.0" /><line stroke="#999" stroke-width="3" x1="1869.0" x2="1901.0" y1="828.0" y2="828.0" /><line stroke="#999" stroke-width="3" x1="1773.0" x2="1773.0" y1="828.0" y2="860.0" /><line stroke="#999" stroke-width="3" x1="1709.0" x2="1709.0" y1="828.0" y2="860.0" /><line stroke="#333" stroke-width="10" x1="1514.0" x2="1533.0" y1="939.0" y2="924.0" /><line stroke="#333" stroke-width="10" x1="1495.0" x2="1514.0" y1="957.0" y2="939.0" /><line stroke="#999" stroke-width="3" x1="1362.0" x2="1429.0" y1="1079.0" y2="1012.0" /><line stroke="#333" stroke-width="10" x1="1229.0" x2="1327.0" y1="1164.0" y2="1101.0" /><line stroke="#333" stroke-width="10" x1="1133.0" x2="1229.0" y1="1180.0" y2="1164.0" /><line stroke="#333" stroke-width="10" x1="1036.0" x2="1133.0" y1="1159.0" y2="1180.0" /><line stroke="#333" stroke-width="10" x1="948.0" x2="968.0" y1="1101.0" y2="1115.0" /><line stroke="#333" stroke-width="10" x1="933.0" x2="948.0" y1="1084.0" y2="1101.0" /><line stroke="#333" stroke-width="10" x1="917.0" x2="933.0" y1="1068.0" y2="1084.0" /><line stroke="#333" stroke-width="10" x1="1045.0" x2="1029.0" y1="971.0" y2="956.0" /><line stroke="#333" stroke-width="10" x1="1061.0" x2="1045.0" y1="987.0" y2="971.0" /><line stroke="#333" stroke-width="10" x1="1113.0" x2="1061.0" y1="1025.0" y2="987.0" /><line stroke="#333" stroke-width="10" x1="1120.0" x2="1113.0" y1="983.0" y2="1025.0" /><line stroke="#333" stroke-width="10" x1="1176.0" x2="1163.0" y1="1021.0" y2="982.0" /><line stroke="#333" stroke-width="10" x1="1278.0" x2="1176.0" y1="942.0" y2="1021.0" /><line stroke="#333" stroke-width="10" x1="1372.0" x2="1278.0" y1="831.0" y2="942.0" /><line stroke="#333" stroke-width="10" x1="1388.0" x2="1372.0" y1="814.0" y2="831.0" /><line stroke="#333" stroke-width="10" x1="1405.0" x2="1388.0" y1="796.0" y2="814.0" /><line stroke="#666" stroke-width="20" x1="933.0" x2="1045.0" y1="1084.0" y2="971.0" /><line stroke="#666" stroke-width="20" x1="1061.0" x2="948.0" y1="987.0" y2="1101.0" /><line stroke="#666" stroke-width="20" x1="1388.0" x2="1514.0" y1="814.0" y2="939.0" /><line stroke="#666" stroke-width="20" x1="1495.0" x2="1372.0" y1="957.0" y2="831.0" /><line stroke="#333" stroke-width="10" x1="1163.0" x2="1120.0" y1="982.0" y2="983.0" /><line stroke="#333" stroke-width="10" x1="1327.0" x2="1362.0" y1="1101.0" y2="1079.0" /><line stroke="#333" stroke-width="10" x1="968.0" x2="1036.0" y1="1115.0" y2="1159.0" /><line stroke="#999" stroke-width="3" x1="1113.0" x2="968.0" y1="1025.0" y2="1115.0" /><line stroke="#999" stroke-width="3" x1="1327.0" x2="1176.0" y1="1101.0" y2="1021.0" /><line stroke="#999" stroke-width="3" x1="931.0" x2="643.0" y1="720.0" y2="720.0" /><line stroke="#999" stroke-width="3" x1="931.0" x2="931.0" y1="976.0" y2="720.0" /><line stroke="#999" stroke-width="3" x1="707.0" x2="931.0" y1="976.0" y2="976.0" /><line stroke="#999" stroke-width="3" x1="707.0" x2="707.0" y1="816.0" y2="976.0" /><line stroke="#999" stroke-width="3" x1="739.0" x2="707.0" y1="816.0" y2="816.0" /><line stroke="#999" stroke-width="3" x1="739.0" x2="739.0" y1="944.0" y2="816.0" /><line stroke="#999" stroke-width="3" x1="899.0" x2="739.0" y1="944.0" y2="944.0" /><line stroke="#999" stroke-width="3" x1="899.0" x2="899.0" y1="752.0" y2="944.0" /><line stroke="#999" stroke-width="3" x1="835.0" x2="899.0" y1="752.0" y2="752.0" /><line stroke="#999" stroke-width="3" x1="835.0" x2="835.0" y1="880.0" y2="752.0" /><line stroke="#999" stroke-width="3" x1="803.0" x2="835.0" y1="880.0" y2="880.0" /><line stroke="#999" stroke-width="3" x1="803.0" x2="803.0" y1="752.0" y2="880.0" /><line stroke="#999" stroke-width="3" x1="643.0" x2="803.0" y1="752.0" y2="752.0" /><line stroke="#333" stroke-width="10" x1="932.0" x2="917.0" y1="529.0" y2="548.0" /><line stroke="#333" stroke-width="10" x1="948.0" x2="932.0" y1="505.0" y2="529.0" /><line stroke="#333" stroke-width="10" x1="989.0" x2="948.0" y1="124.0" y2="505.0" /><line stroke="#999" stroke-width="3" x1="1085.0" x2="989.0" y1="124.0" y2="124.0" /><line stroke="#333" stroke-width="10" x1="1149.0" x2="1085.0" y1="124.0" y2="124.0" /><line stroke="#333" stroke-width="10" x1="1213.0" x2="1149.0" y1="124.0" y2="124.0" /><line stroke="#333" stroke-width="10" x1="1277.0" x2="1213.0" y1="124.0" y2="124.0" /><line stroke="#333" stroke-width="10" x1="1341.0" x2="1277.0" y1="124.0" y2="124.0" /><line stroke="#333" stroke-width="10" x1="1405.0" x2="1341.0" y1="124.0" y2="124.0" /><line stroke="#333" stroke-width="10" x1="1469.0" x2="1405.0" y1="124.0" y2="124.0" /><line stroke="#333" stroke-width="10" x1="1533.0" x2="1469.0" y1="124.0" y2="124.0" /><line stroke="#333" stroke-width="10" x1="1597.0" x2="1533.0" y1="124.0" y2="124.0" /><line stroke="#333" stroke-width="10" x1="1661.0" x2="1597.0" y1="124.0" y2="124.0" /><line stroke="#333" stroke-width="10" x1="1725.0" x2="1661.0" y1="124.0" y2="124.0" /><line stroke="#333" stroke-width="10" x1="1789.0" x2="1725.0" y1="124.0" y2="124.0" /><line stroke="#333" stroke-width="10" x1="1853.0" x2="1789.0" y1="124.0" y2="124.0" /><line stroke="#333" stroke-width="10" x1="1949.0" x2="1853.0" y1="124.0" y2="124.0" /><line stroke="#333" stroke-width="10" x1="1980.0" x2="1949.0" y1="477.0" y2="124.0" /><line stroke="#333" stroke-width="10" x1="1966.0" x2="1980.0" y1="493.0" y2="477.0" /><line stroke="#333" stroke-width="10" x1="1949.0" x2="1966.0" y1="508.0" y2="493.0" /><line stroke="#333" stroke-width="10" x1="1837.0" x2="1821.0" y1="364.0" y2="380.0" /><line stroke="#333" stroke-width="10" x1="1852.0" x2="1837.0" y1="349.0" y2="364.0" /><line stroke="#333" stroke-width="10" x1="1853.0" x2="1852.0" y1="220.0" y2="349.0" /><line stroke="#333" stroke-width="10" x1="1789.0" x2="1853.0" y1="220.0" y2="220.0" /><line stroke="#333" stroke-width="10" x1="1725.0" x2="1789.0" y1="220.0" y2="220.0" /><line stroke="#333" stroke-width="10" x1="1661.0" x2="1725.0" y1="220.0" y2="220.0" /><line stroke="#333" stroke-width="10" x1="1597.0" x2="1661.0" y1="220.0" y2="220.0" /><line stroke="#333" stroke-width="10" x1="1533.0" x2="1597.0" y1="220.0" y2="220.0" /><line stroke="#333" stroke-width="10" x1="1469.0" x2="1533.0" y1="220.0" y2="220.0" /><line stroke="#333" stroke-width="10" x1="1405.0" x2="1469.0" y1="220.0" y2="220.0" /><line stroke="#333" stroke-width="10" x1="1341.0" x2="1405.0" y1="220.0" y2="220.0" /><line stroke="#333" stroke-width="10" x1="1277.0" x2="1341.0" y1="220.0" y2="220.0" /><line stroke="#333" stroke-width="10" x1="1213.0" x2="1277.0" y1="220.0" y2="220.0" /><line stroke="#333" stroke-width="10" x1="1149.0" x2="1213.0" y1="220.0" y2="220.0" /><line stroke="#333" stroke-width="10" x1="1085.0" x2="1149.0" y1="220.0" y2="220.0" /><line stroke="#333" stroke-width="10" x1="1061.0" x2="1085.0" y1="628.0" y2="220.0" /><line stroke="#333" stroke-width="10" x1="1045.0" x2="1061.0" y1="644.0" y2="628.0" /><line stroke="#333" stroke-width="10" x1="1029.0" x2="1045.0" y1="660.0" y2="644.0" /><line stroke="#999" stroke-width="3" x1="1085.0" x2="1085.0" y1="220.0" y2="124.0" /><line stroke="#999" stroke-width="3" x1="1149.0" x2="1149.0" y1="220.0" y2="124.0" /><line stroke="#999" stroke-width="3" x1="1213.0" x2="1213.0" y1="220.0" y2="124.0" /><line stroke="#999" stroke-width="3" x1="1277.0" x2="1277.0" y1="220.0" y2="124.0" /><line stroke="#999" stroke-width="3" x1="1341.0" x2="1341.0" y1="220.0" y2="124.0" /><line stroke="#999" stroke-width="3" x1="1405.0" x2="1405.0" y1="220.0" y2="124.0" /><line stroke="#999" stroke-width="3" x1="1469.0" x2="1469.0" y1="220.0" y2="124.0" /><line stroke="#999" stroke-width="3" x1="1533.0" x2="1533.0" y1="220.0" y2="124.0" /><line stroke="#999" stroke-width="3" x1="1597.0" x2="1597.0" y1="220.0" y2="124.0" /><line stroke="#999" stroke-width="3" x1="1661.0" x2="1661.0" y1="220.0" y2="124.0" /><line stroke="#999" stroke-width="3" x1="1725.0" x2="1725.0" y1="220.0" y2="124.0" /><line stroke="#999" stroke-width="3" x1="1789.0" x2="1789.0" y1="220.0" y2="124.0" /><line stroke="#999" stroke-width="3" x1="1853.0" x2="1853.0" y1="220.0" y2="124.0" /><line stroke="#666" stroke-width="20" x1="1045.0" x2="932.0" y1="644.0" y2="529.0" /><line stroke="#666" stroke-width="20" x1="948.0" x2="1061.0" y1="505.0" y2="628.0" /><line stroke="#666" stroke-width="20" x1="1966.0" x2="1837.0" y1="493.0" y2="364.0" /><line stroke="#666" stroke-width="20" x1="1852.0" x2="1980.0" y1="349.0" y2="477.0" /><line stroke="#999" stroke-width="3" x1="1753.0" x2="1785.0" y1="1037.0" y2="1037.0" /><line stroke="#999" stroke-width="3" x1="1785.0" x2="1785.0" y1="1037.0" y2="1069.0" /><line stroke="#999" stroke-width="3" x1="1785.0" x2="1753.0" y1="1069.0" y2="1069.0" /><line stroke="#999" stroke-width="3" x1="1753.0" x2="1753.0" y1="1069.0" y2="1037.0" /><line stroke="#999" stroke-width="3" x1="1829.0" x2="1861.0" y1="1039.0" y2="1039.0" /><line stroke="#999" stroke-width="3" x1="1861.0" x2="1861.0" y1="1039.0" y2="1071.0" /><line stroke="#999" stroke-width="3" x1="1861.0" x2="1829.0" y1="1071.0" y2="1071.0" /><line stroke="#999" stroke-width="3" x1="1829.0" x2="1829.0" y1="1071.0" y2="1039.0" /><line stroke="#999" stroke-width="3" x1="1791.0" x2="1823.0" y1="1080.0" y2="1080.0" /><line stroke="#999" stroke-width="3" x1="1823.0" x2="1823.0" y1="1080.0" y2="1112.0" /><line stroke="#999" stroke-width="3" x1="1823.0" x2="1791.0" y1="1112.0" y2="1112.0" /><line stroke="#999" stroke-width="3" x1="1791.0" x2="1791.0" y1="1112.0" y2="1080.0" /><line stroke="#999" stroke-width="3" x1="1870.0" x2="1902.0" y1="998.0" y2="998.0" /><line stroke="#999" stroke-width="3" x1="1902.0" x2="1902.0" y1="998.0" y2="1030.0" /><line stroke="#999" stroke-width="3" x1="1902.0" x2="1870.0" y1="1030.0" y2="1030.0" /><line stroke="#999" stroke-width="3" x1="1870.0" x2="1870.0" y1="1030.0" y2="998.0" /><line stroke="#999" stroke-width="3" x1="1920.0" x2="1952.0" y1="997.0" y2="997.0" /><line stroke="#999" stroke-width="3" x1="1952.0" x2="1952.0" y1="997.0" y2="1029.0" /><line stroke="#999" stroke-width="3" x1="1952.0" x2="1920.0" y1="1029.0" y2="1029.0" /><line stroke="#999" stroke-width="3" x1="1920.0" x2="1920.0" y1="1029.0" y2="997.0" /><line stroke="#999" stroke-width="3" x1="1975.0" x2="2039.0" y1="968.0" y2="968.0" /><line stroke="#999" stroke-width="3" x1="2039.0" x2="2039.0" y1="968.0" y2="1032.0" /><line stroke="#999" stroke-width="3" x1="2039.0" x2="1975.0" y1="1032.0" y2="1032.0" /><line stroke="#999" stroke-width="3" x1="1975.0" x2="1975.0" y1="1032.0" y2="968.0" /><line stroke="#333" stroke-width="10" x1="2137.0" x2="2109.0" y1="492.0" y2="508.0" /><line stroke="#333" stroke-width="10" x1="2165.0" x2="2137.0" y1="476.0" y2="492.0" /><line stroke="#333" stroke-width="10" x1="2189.0" x2="2165.0" y1="460.0" y2="476.0" /><line stroke="#333" stroke-width="10" x1="2234.0" x2="2189.0" y1="432.0" y2="460.0" /><line stroke="#333" stroke-width="10" x1="2236.0" x2="2234.0" y1="590.0" y2="432.0" /><line stroke="#333" stroke-width="10" x1="2194.0" x2="2236.0" y1="618.0" y2="590.0" /><line stroke="#333" stroke-width="10" x1="2170.0" x2="2194.0" y1="636.0" y2="618.0" /><line stroke="#333" stroke-width="10" x1="2142.0" x2="2170.0" y1="652.0" y2="636.0" /><line stroke="#333" stroke-width="10" x1="2109.0" x2="2142.0" y1="668.0" y2="652.0" /><line stroke="#999" stroke-width="3" x1="2142.0" x2="2137.0" y1="652.0" y2="492.0" /><line stroke="#999" stroke-width="3" x1="2170.0" x2="2165.0" y1="636.0" y2="476.0" /><line stroke="#999" stroke-width="3" x1="2194.0" x2="2189.0" y1="618.0" y2="460.0" /><line stroke="#333" stroke-width="10" x1="605.0" x2="621.0" y1="1085.0" y2="1068.0" /><line stroke="#333" stroke-width="10" x1="588.0" x2="605.0" y1="1101.0" y2="1085.0" /><line stroke="#333" stroke-width="10" x1="572.0" x2="588.0" y1="1117.0" y2="1101.0" /><line stroke="#333" stroke-width="10" x1="556.0" x2="572.0" y1="1133.0" y2="1117.0" /><line stroke="#333" stroke-width="10" x1="310.0" x2="556.0" y1="1158.0" y2="1133.0" /><line stroke="#333" stroke-width="10" x1="182.0" x2="310.0" y1="1158.0" y2="1158.0" /><line stroke="#333" stroke-width="10" x1="182.0" x2="182.0" y1="1030.0" y2="1158.0" /><line stroke="#333" stroke-width="10" x1="182.0" x2="182.0" y1="838.0" y2="910.0" /><line stroke="#999" stroke-width="3" x1="182.0" x2="182.0" y1="774.0" y2="838.0" /><line stroke="#333" stroke-width="10" x1="182.0" x2="182.0" y1="582.0" y2="774.0" /><line stroke="#333" stroke-width="10" x1="182.0" x2="182.0" y1="454.0" y2="582.0" /><line stroke="#333" stroke-width="10" x1="310.0" x2="182.0" y1="454.0" y2="454.0" /><line stroke="#333" stroke-width="10" x1="557.0" x2="310.0" y1="484.0" y2="454.0" /><line stroke="#333" stroke-width="10" x1="573.0" x2="557.0" y1="500.0" y2="484.0" /><line stroke="#333" stroke-width="10" x1="589.0" x2="573.0" y1="516.0" y2="500.0" /><line stroke="#333" stroke-width="10" x1="605.0" x2="589.0" y1="532.0" y2="516.0" /><line stroke="#333" stroke-width="10" x1="621.0" x2="605.0" y1="548.0" y2="532.0" /><line stroke="#333" stroke-width="10" x1="493.0" x2="509.0" y1="645.0" y2="660.0" /><line stroke="#333" stroke-width="10" x1="477.0" x2="493.0" y1="630.0" y2="645.0" /><line stroke="#333" stroke-width="10" x1="461.0" x2="477.0" y1="615.0" y2="630.0" /><line stroke="#333" stroke-width="10" x1="445.0" x2="461.0" y1="600.0" y2="615.0" /><line stroke="#333" stroke-width="10" x1="310.0" x2="445.0" y1="582.0" y2="600.0" /><line stroke="#333" stroke-width="10" x1="310.0" x2="310.0" y1="1030.0" y2="582.0" /><line stroke="#333" stroke-width="10" x1="443.0" x2="310.0" y1="1018.0" y2="1030.0" /><line stroke="#333" stroke-width="10" x1="460.0" x2="443.0" y1="1002.0" y2="1018.0" /><line stroke="#333" stroke-width="10" x1="476.0" x2="460.0" y1="986.0" y2="1002.0" /><line stroke="#333" stroke-width="10" x1="493.0" x2="476.0" y1="971.0" y2="986.0" /><line stroke="#333" stroke-width="10" x1="509.0" x2="493.0" y1="956.0" y2="971.0" /><line stroke="#999" stroke-width="3" x1="493.0" x2="605.0" y1="971.0" y2="1085.0" /><line stroke="#999" stroke-width="3" x1="476.0" x2="588.0" y1="986.0" y2="1101.0" /><line stroke="#999" stroke-width="3" x1="460.0" x2="572.0" y1="1002.0" y2="1117.0" /><line stroke="#999" stroke-width="3" x1="443.0" x2="556.0" y1="1018.0" y2="1133.0" /><line stroke="#999" stroke-width="3" x1="605.0" x2="493.0" y1="532.0" y2="645.0" /><line stroke="#999" stroke-width="3" x1="589.0" x2="477.0" y1="516.0" y2="630.0" /><line stroke="#999" stroke-width="3" x1="573.0" x2="461.0" y1="500.0" y2="615.0" /><line stroke="#999" stroke-width="3" x1="557.0" x2="445.0" y1="484.0" y2="600.0" /><line stroke="#999" stroke-width="3" x1="310.0" x2="310.0" y1="454.0" y2="582.0" /><line stroke="#999" stroke-width="3" x1="310.0" x2="182.0" y1="582.0" y2="582.0" /><line stroke="#999" stroke-width="3" x1="182.0" x2="310.0" y1="1030.0" y2="1030.0" /><line stroke="#999" stroke-width="3" x1="310.0" x2="310.0" y1="1030.0" y2="1158.0" /><line stroke="#333" stroke-width="10" x1="162.0" x2="182.0" y1="838.0" y2="838.0" /><line stroke="#333" stroke-width="10" x1="140.0" x2="162.0" y1="838.0" y2="838.0" /><line stroke="#0d0" stroke-width="20" x1="51.0" x2="51.0" y1="774.0" y2="838.0" /><line stroke="#333" stroke-width="10" x1="162.0" x2="140.0" y1="774.0" y2="774.0" /><line stroke="#333" stroke-width="10" x1="182.0" x2="162.0" y1="774.0" y2="774.0" /><line stroke="#666" stroke-width="20" x1="162.0" x2="162.0" y1="774.0" y2="838.0" /><line stroke="#666" stroke-width="20" x1="140.0" x2="140.0" y1="838.0" y2="774.0" /><line stroke="#999" stroke-width="3" x1="85.0" x2="93.0" y1="823.0" y2="823.0" /><line stroke="#999" stroke-width="3" x1="93.0" x2="85.0" y1="791.0" y2="791.0" /><line stroke="#999" stroke-width="3" x1="93.0" x2="93.0" y1="823.0" y2="791.0" /><line stroke="#999" stroke-width="3" x1="85.0" x2="85.0" y1="791.0" y2="823.0" /><line stroke="#333" stroke-width="10" x1="140.0" x2="51.0" y1="774.0" y2="774.0" /><line stroke="#333" stroke-width="10" x1="51.0" x2="140.0" y1="838.0" y2="838.0" /><line stroke="#999" stroke-width="3" x1="577.0" x2="961.0" y1="676.0" y2="676.0" /><line stroke="#999" stroke-width="3" x1="769.0" x2="721.0" y1="420.0" y2="484.0" /><line stroke="#999" stroke-width="3" x1="961.0" x2="913.0" y1="676.0" y2="612.0" /><line stroke="#999" stroke-width="3" x1="673.0" x2="625.0" y1="548.0" y2="612.0" /><line stroke="#999" stroke-width="3" x1="865.0" x2="817.0" y1="548.0" y2="484.0" /><line stroke="#999" stroke-width="3" x1="721.0" x2="673.0" y1="484.0" y2="548.0" /><line stroke="#999" stroke-width="3" x1="913.0" x2="865.0" y1="612.0" y2="548.0" /><line stroke="#999" stroke-width="3" x1="625.0" x2="577.0" y1="612.0" y2="676.0" /><line stroke="#999" stroke-width="3" x1="817.0" x2="769.0" y1="484.0" y2="420.0" /><line stroke="#999" stroke-width="3" x1="721.0" x2="817.0" y1="484.0" y2="484.0" /><line stroke="#999" stroke-width="3" x1="673.0" x2="865.0" y1="548.0" y2="548.0" /><line stroke="#999" stroke-width="3" x1="625.0" x2="913.0" y1="612.0" y2="612.0" /><line stroke="#999" stroke-width="3" x1="182.0" x2="181.0" y1="910.0" y2="980.0" /><line stroke="#333" stroke-width="10" x1="181.0" x2="182.0" y1="980.0" y2="1030.0" /><line stroke="#333" stroke-width="10" x1="1429.0" x2="1495.0" y1="1012.0" y2="957.0" /><line stroke="#333" stroke-width="10" x1="1436.0" x2="1429.0" y1="1154.0" y2="1012.0" /><line stroke="#333" stroke-width="10" x1="1400.0" x2="1413.0" y1="1270.0" y2="1212.0" /><line stroke="#333" stroke-width="10" x1="1317.0" x2="1400.0" y1="1372.0" y2="1270.0" /><line stroke="#333" stroke-width="10" x1="1020.0" x2="1181.0" y1="1420.0" y2="1396.0" /><line stroke="#333" stroke-width="10" x1="615.0" x2="739.0" y1="1449.0" y2="1461.0" /><line stroke="#333" stroke-width="10" x1="333.0" x2="477.0" y1="1420.0" y2="1436.0" /><line stroke="#333" stroke-width="10" x1="101.0" x2="333.0" y1="1348.0" y2="1420.0" /><line stroke="#333" stroke-width="10" x1="5.0" x2="53.0" y1="1212.0" y2="1276.0" /><line stroke="#333" stroke-width="10" x1="13.0" x2="5.0" y1="1076.0" y2="1212.0" /><line stroke="#333" stroke-width="10" x1="77.0" x2="45.0" y1="940.0" y2="1004.0" /><line stroke="#333" stroke-width="10" x1="182.0" x2="77.0" y1="910.0" y2="940.0" /><line stroke="#333" stroke-width="10" x1="116.0" x2="181.0" y1="1006.0" y2="980.0" /><line stroke="#333" stroke-width="10" x1="90.0" x2="101.0" y1="1098.0" y2="1052.0" /><line stroke="#333" stroke-width="10" x1="110.0" x2="90.0" y1="1222.0" y2="1098.0" /><line stroke="#333" stroke-width="10" x1="205.0" x2="157.0" y1="1300.0" y2="1260.0" /><line stroke="#333" stroke-width="10" x1="421.0" x2="205.0" y1="1348.0" y2="1300.0" /><line stroke="#333" stroke-width="10" x1="1202.0" x2="989.0" y1="1310.0" y2="1324.0" /><line stroke="#333" stroke-width="10" x1="1314.0" x2="1202.0" y1="1230.0" y2="1310.0" /><line stroke="#333" stroke-width="10" x1="1348.0" x2="1325.0" y1="1154.0" y2="1188.0" /><line stroke="#333" stroke-width="10" x1="1362.0" x2="1348.0" y1="1079.0" y2="1154.0" /><line stroke="#333" stroke-width="10" x1="101.0" x2="116.0" y1="1052.0" y2="1006.0" /><line stroke="#333" stroke-width="10" x1="45.0" x2="13.0" y1="1004.0" y2="1076.0" /><line stroke="#999" stroke-width="3" x1="45.0" x2="101.0" y1="1004.0" y2="1052.0" /><line stroke="#333" stroke-width="10" x1="157.0" x2="110.0" y1="1260.0" y2="1222.0" /><line stroke="#333" stroke-width="10" x1="53.0" x2="101.0" y1="1276.0" y2="1348.0" /><line stroke="#999" stroke-width="3" x1="53.0" x2="157.0" y1="1276.0" y2="1260.0" /><line stroke="#333" stroke-width="10" x1="605.0" x2="421.0" y1="1348.0" y2="1348.0" /><line stroke="#333" stroke-width="10" x1="477.0" x2="615.0" y1="1436.0" y2="1449.0" /><line stroke="#999" stroke-width="3" x1="477.0" x2="605.0" y1="1436.0" y2="1348.0" /><line stroke="#333" stroke-width="10" x1="989.0" x2="907.0" y1="1324.0" y2="1334.0" /><line stroke="#333" stroke-width="10" x1="1181.0" x2="1317.0" y1="1396.0" y2="1372.0" /><line stroke="#999" stroke-width="3" x1="1181.0" x2="989.0" y1="1396.0" y2="1324.0" /><line stroke="#333" stroke-width="10" x1="1325.0" x2="1314.0" y1="1188.0" y2="1230.0" /><line stroke="#333" stroke-width="10" x1="1413.0" x2="1436.0" y1="1212.0" y2="1154.0" /><line stroke="#999" stroke-width="3" x1="1413.0" x2="1325.0" y1="1212.0" y2="1188.0" /><line stroke="#333" stroke-width="10" x1="712.0" x2="605.0" y1="1346.0" y2="1348.0" /><line stroke="#999" stroke-width="3" x1="1020.0" x2="907.0" y1="1420.0" y2="1334.0" /><line stroke="#999" stroke-width="3" x1="712.0" x2="615.0" y1="1346.0" y2="1449.0" /><line stroke="#333" stroke-width="10" x1="739.0" x2="1020.0" y1="1461.0" y2="1420.0" /><line stroke="#333" stroke-width="10" x1="712.0" x2="712.0" y1="1176.0" y2="1346.0" /><line stroke="#333" stroke-width="10" x1="882.0" x2="712.0" y1="1178.0" y2="1176.0" /><line stroke="#333" stroke-width="10" x1="907.0" x2="882.0" y1="1334.0" y2="1178.0" /><line stroke="#999" stroke-width="3" x1="866.0" x2="866.0" y1="1336.0" y2="1283.0" /><line stroke="#999" stroke-width="3" x1="738.0" x2="802.0" y1="1336.0" y2="1336.0" /><line stroke="#999" stroke-width="3" x1="738.0" x2="738.0" y1="1187.0" y2="1219.0" /><line stroke="#999" stroke-width="3" x1="866.0" x2="802.0" y1="1187.0" y2="1187.0" /><line stroke="#999" stroke-width="3" x1="866.0" x2="866.0" y1="1251.0" y2="1219.0" /><line stroke="#999" stroke-width="3" x1="738.0" x2="738.0" y1="1251.0" y2="1283.0" /><line stroke="#999" stroke-width="3" x1="738.0" x2="802.0" y1="1251.0" y2="1251.0" /><line stroke="#999" stroke-width="3" x1="802.0" x2="866.0" y1="1336.0" y2="1336.0" /><line stroke="#999" stroke-width="3" x1="802.0" x2="866.0" y1="1251.0" y2="1251.0" /><line stroke="#999" stroke-width="3" x1="802.0" x2="802.0" y1="1251.0" y2="1283.0" /><line stroke="#999" stroke-width="3" x1="866.0" x2="866.0" y1="1219.0" y2="1187.0" /><line stroke="#999" stroke-width="3" x1="738.0" x2="738.0" y1="1219.0" y2="1251.0" /><line stroke="#999" stroke-width="3" x1="738.0" x2="802.0" y1="1219.0" y2="1219.0" /><line stroke="#999" stroke-width="3" x1="802.0" x2="866.0" y1="1219.0" y2="1219.0" /><line stroke="#999" stroke-width="3" x1="802.0" x2="738.0" y1="1187.0" y2="1187.0" /><line stroke="#999" stroke-width="3" x1="802.0" x2="802.0" y1="1187.0" y2="1219.0" /><line stroke="#999" stroke-width="3" x1="802.0" x2="802.0" y1="1283.0" y2="1336.0" /><line stroke="#999" stroke-width="3" x1="738.0" x2="738.0" y1="1283.0" y2="1336.0" /><line stroke="#999" stroke-width="3" x1="738.0" x2="802.0" y1="1283.0" y2="1283.0" /><line stroke="#999" stroke-width="3" x1="866.0" x2="866.0" y1="1283.0" y2="1251.0" /><line stroke="#999" stroke-width="3" x1="802.0" x2="866.0" y1="1283.0" y2="1283.0" /><line stroke="#999" stroke-width="3" x1="802.0" x2="802.0" y1="1219.0" y2="1251.0" /><line stroke="#333" stroke-width="10" x1="643.0" x2="643.0" y1="720.0" y2="752.0" /><line stroke="#333" stroke-width="10" x1="611.0" x2="643.0" y1="720.0" y2="720.0" /><line stroke="#333" stroke-width="10" x1="611.0" x2="611.0" y1="976.0" y2="720.0" /><line stroke="#333" stroke-width="10" x1="643.0" x2="611.0" y1="976.0" y2="976.0" /><line stroke="#333" stroke-width="10" x1="643.0" x2="643.0" y1="752.0" y2="976.0" /><line stroke="#333" stroke-width="10" x1="982.0" x2="989.0" y1="11.0" y2="124.0" /><line stroke="#333" stroke-width="10" x1="1153.0" x2="982.0" y1="5.0" y2="11.0" /><line stroke="#333" stroke-width="10" x1="1152.0" x2="1153.0" y1="86.0" y2="5.0" /><line stroke="#333" stroke-width="10" x1="1085.0" x2="1152.0" y1="84.0" y2="86.0" /><line stroke="#333" stroke-width="10" x1="1085.0" x2="1085.0" y1="124.0" y2="84.0" /><ellipse cx="1779.0" cy="722.0" fill="#009" rx="12" ry="24" stroke="#009" stroke-width="5" /><circle cx="1693.0" cy="721.0" fill="#900" r="16" stroke="#900" stroke-width="5" /><rect fill="#090" height="24" stroke="#090" stroke-width="5" transform="rotate(0,1144.0,1005.0)" width="24" x="1132.0" y="993.0" /><circle cx="866.0" cy="786.0" fill="#900" r="16" stroke="#900" stroke-width="5" /><rect fill="#090" height="24" stroke="#090" stroke-width="5" transform="rotate(0,1438.0,201.0)" width="24" x="1426.0" y="189.0" /><circle cx="1144.0" cy="1129.0" fill="#900" r="16" stroke="#900" stroke-width="5" /><circle cx="1437.0" cy="147.0" fill="#900" r="16" stroke="#900" stroke-width="5" /><circle cx="1831.0" cy="792.0" fill="#900" r="16" stroke="#900" stroke-width="5" /><rect fill="#090" height="24" stroke="#090" stroke-width="5" transform="rotate(90,570.0,806.0)" width="24" x="558.0" y="794.0" /><ellipse cx="1778.0" cy="674.0" fill="#009" rx="12" ry="24" stroke="#009" stroke-width="5" /><ellipse cx="1824.0" cy="720.0" fill="#009" rx="12" ry="24" stroke="#009" stroke-width="5" /><ellipse cx="1825.0" cy="674.0" fill="#009" rx="12" ry="24" stroke="#009" stroke-width="5" /><circle cx="510.0" cy="809.0" fill="#900" r="16" stroke="#900" stroke-width="5" /><circle cx="2008.0" cy="1000.0" fill="#900" r="16" stroke="#900" stroke-width="5" /><rect fill="#090" height="24" stroke="#090" stroke-width="5" transform="rotate(180,2204.0,524.0)" width="24" x="2192.0" y="512.0" /><circle cx="769.0" cy="460.0" fill="#900" r="16" stroke="#900" stroke-width="5" /><rect fill="#090" height="24" stroke="#090" stroke-width="5" transform="rotate(90,252.0,892.0)" width="24" x="240.0" y="880.0" /><rect fill="#090" height="24" stroke="#090" stroke-width="5" transform="rotate(270,2079.0,1054.0)" width="24" x="2067.0" y="1042.0" /><rect fill="#900" height="48" stroke="#900" stroke-width="5" transform="rotate(180,2013.0,884.0)" width="32" x="1997.0" y="860.0" /><rect fill="#900" height="48" stroke="#900" stroke-width="5" transform="rotate(180,2004.0,604.0)" width="32" x="1988.0" y="580.0" /><rect fill="#900" height="48" stroke="#900" stroke-width="5" transform="rotate(0,1497.0,800.0)" width="32" x="1481.0" y="776.0" /><rect fill="#900" height="48" stroke="#900" stroke-width="5" transform="rotate(0,1623.0,172.0)" width="32" x="1607.0" y="148.0" /><rect fill="#900" height="48" stroke="#900" stroke-width="5" transform="rotate(0,1035.0,436.0)" width="32" x="1019.0" y="412.0" /><rect fill="#900" height="48" stroke="#900" stroke-width="5" transform="rotate(0,752.0,1028.0)" width="32" x="736.0" y="1004.0" /><rect fill="#900" height="48" stroke="#900" stroke-width="5" transform="rotate(0,419.0,1106.0)" width="32" x="403.0" y="1082.0" /><rect fill="#900" height="48" stroke="#900" stroke-width="5" transform="rotate(0,368.0,526.0)" width="32" x="352.0" y="502.0" /><rect fill="#900" height="48" stroke="#900" stroke-width="5" transform="rotate(0,245.0,1088.0)" width="32" x="229.0" y="1064.0" /><rect fill="#900" height="48" stroke="#900" stroke-width="5" transform="rotate(0,242.0,526.0)" width="32" x="226.0" y="502.0" /><rect fill="#900" height="48" stroke="#900" stroke-width="5" transform="rotate(0,683.0,639.0)" width="32" x="667.0" y="615.0" /><rect fill="#900" height="48" stroke="#900" stroke-width="5" transform="rotate(0,1179.0,172.0)" width="32" x="1163.0" y="148.0" /><rect fill="#900" height="48" stroke="#900" stroke-width="5" transform="rotate(0,1593.0,1010.0)" width="32" x="1577.0" y="986.0" /><rect fill="#900" height="48" stroke="#900" stroke-width="5" transform="rotate(0,1572.0,556.0)" width="32" x="1556.0" y="532.0" /><rect fill="#900" height="48" stroke="#900" stroke-width="5" transform="rotate(180,2091.0,764.0)" width="32" x="2075.0" y="740.0" /><rect fill="#900" height="48" stroke="#900" stroke-width="5" transform="rotate(180,1881.0,926.0)" width="32" x="1865.0" y="902.0" /><rect fill="#900" height="48" stroke="#900" stroke-width="5" transform="rotate(180,1812.0,556.0)" width="32" x="1796.0" y="532.0" /><rect fill="#900" height="48" stroke="#900" stroke-width="5" transform="rotate(0,1340.0,980.0)" width="32" x="1324.0" y="956.0" /><rect fill="#900" height="48" stroke="#900" stroke-width="5" transform="rotate(0,860.0,1028.0)" width="32" x="844.0" y="1004.0" /><rect fill="#900" height="48" stroke="#900" stroke-width="5" transform="rotate(0,545.0,716.0)" width="32" x="529.0" y="692.0" /><rect fill="#900" height="48" stroke="#900" stroke-width="5" transform="rotate(0,1040.0,178.0)" width="32" x="1024.0" y="154.0" /><rect fill="#900" height="48" stroke="#900" stroke-width="5" transform="rotate(0,221.0,806.0)" width="32" x="205.0" y="782.0" /><rect fill="#900" height="48" stroke="#900" stroke-width="5" transform="rotate(0,1122.0,1076.0)" width="32" x="1106.0" y="1052.0" /><rect fill="#900" height="48" stroke="#900" stroke-width="5" transform="rotate(0,551.0,902.0)" width="32" x="535.0" y="878.0" /><rect fill="#900" height="48" stroke="#900" stroke-width="5" transform="rotate(180,1728.0,944.0)" width="32" x="1712.0" y="920.0" /><rect fill="#900" height="48" stroke="#900" stroke-width="5" transform="rotate(90,1911.0,262.0)" width="32" x="1895.0" y="238.0" /><rect fill="#900" height="48" stroke="#900" stroke-width="5" transform="rotate(90,992.0,806.0)" width="32" x="976.0" y="782.0" /><rect fill="#900" height="48" stroke="#900" stroke-width="5" transform="rotate(90,1968.0,734.0)" width="32" x="1952.0" y="710.0" /><circle cx="1752.0" cy="788.0" fill="#009" r="16" stroke="#009" stroke-width="5" /><circle cx="675.0" cy="1034.0" fill="#009" r="16" stroke="#009" stroke-width="5" /><circle cx="2127.0" cy="837.0" fill="#009" r="16" stroke="#009" stroke-width="5" /><circle cx="989.0" cy="897.0" fill="#090" r="16" stroke="#090" stroke-width="5" /><circle cx="983.0" cy="729.0" fill="#090" r="16" stroke="#090" stroke-width="5" /><circle cx="1686.0" cy="1035.0" fill="#090" r="16" stroke="#090" stroke-width="5" /><circle cx="1203.0" cy="1111.0" fill="#009" r="16" stroke="#009" stroke-width="5" /><circle cx="1305.0" cy="177.0" fill="#009" r="16" stroke="#009" stroke-width="5" /><rect fill="#900" height="48" stroke="#900" stroke-width="5" transform="rotate(0,1749.0,171.0)" width="32" x="1733.0" y="147.0" /><rect fill="#900" height="48" stroke="#900" stroke-width="5" transform="rotate(0,1368.0,913.0)" width="32" x="1352.0" y="889.0" /><rect fill="#900" height="48" stroke="#900" stroke-width="5" transform="rotate(0,854.0,639.0)" width="32" x="838.0" y="615.0" /><rect fill="#900" height="48" stroke="#900" stroke-width="5" transform="rotate(0,254.0,691.0)" width="32" x="238.0" y="667.0" /><rect fill="#900" height="48" stroke="#900" stroke-width="5" transform="rotate(0,452.0,519.0)" width="32" x="436.0" y="495.0" /><rect fill="#900" height="48" stroke="#900" stroke-width="5" transform="rotate(0,356.0,1063.0)" width="32" x="340.0" y="1039.0" /><circle cx="757.0" cy="1396.0" fill="#009" r="16" stroke="#009" stroke-width="5" /><rect fill="#900" height="48" stroke="#900" stroke-width="5" transform="rotate(180,335.0,1372.0)" width="32" x="319.0" y="1348.0" /><rect fill="#900" height="48" stroke="#900" stroke-width="5" transform="rotate(180,903.0,1392.0)" width="32" x="887.0" y="1368.0" /><rect fill="#900" height="48" stroke="#900" stroke-width="5" transform="rotate(180,1211.0,1352.0)" width="32" x="1195.0" y="1328.0" /><rect fill="#090" height="24" stroke="#090" stroke-width="5" transform="rotate(270,61.0,1172.0)" width="24" x="49.0" y="1160.0" /><rect fill="#900" height="48" stroke="#900" stroke-width="5" transform="rotate(180,1349.0,1260.0)" width="32" x="1333.0" y="1236.0" /><rect fill="#900" height="48" stroke="#900" stroke-width="5" transform="rotate(270,832.0,1256.0)" width="32" x="816.0" y="1232.0" /><circle cx="832.0" cy="1310.0" fill="#009" r="16" stroke="#009" stroke-width="5" /><circle cx="1125.0" cy="57.0" fill="#009" r="16" stroke="#009" stroke-width="5" /></svg>