<?xml version="1.0" encoding="utf-8" ?>
<svg baseProfile="tiny" height="689" version="1.2" viewBox="0 0 2250 1514" width="1024" xmlns="http://www.w3.org/2000/svg" xmlns:ev="http://www.w3.org/2001/xml-events" xmlns:xlink="http://www.w3.org/1999/xlink"><defs /><line stroke="#333" stroke-width="10" x1="1829.0" x2="389.0" y1="5.0" y2="5.0" /><line stroke="#333" stroke-width="10" x1="2245.0" x2="1829.0" y1="5.0" y2="5.0" /><line stroke="#333" stroke-width="10" x1="2245.0" x2="2245.0" y1="261.0" y2="5.0" /><line stroke="#333" stroke-width="10" x1="2245.0" x2="2245.0" y1="1157.0" y2="261.0" /><line stroke="#333" stroke-width="10" x1="2245.0" x2="2245.0" y1="1509.0" y2="1157.0" /><line stroke="#333" stroke-width="10" x1="1797.0" x2="2245.0" y1="1509.0" y2="1509.0" /><line stroke="#333" stroke-width="10" x1="677.0" x2="1797.0" y1="1509.0" y2="1509.0" /><line stroke="#333" stroke-width="10" x1="5.0" x2="677.0" y1="1509.0" y2="1509.0" /><line stroke="#333" stroke-width="10" x1="5.0" x2="5.0" y1="1285.0" y2="1509.0" /><line stroke="#333" stroke-width="10" x1="5.0" x2="5.0" y1="357.0" y2="1285.0" /><line stroke="#333" stroke-width="10" x1="5.0" x2="5.0" y1="5.0" y2="357.0" /><line stroke="#333" stroke-width="10" x1="389.0" x2="5.0" y1="5.0" y2="5.0" /><line stroke="#999" stroke-width="3" x1="389.0" x2="389.0" y1="357.0" y2="5.0" /><line stroke="#999" stroke-width="3" x1="5.0" x2="389.0" y1="357.0" y2="357.0" /><line stroke="#999" stroke-width="3" x1="677.0" x2="5.0" y1="1285.0" y2="1285.0" /><line stroke="#999" stroke-width="3" x1="677.0" x2="677.0" y1="1509.0" y2="1285.0" /><line stroke="#999" stroke-width="3" x1="2245.0" x2="1797.0" y1="1157.0" y2="1509.0" /><line stroke="#999" stroke-width="3" x1="2085.0" x2="2245.0" y1="293.0" y2="261.0" /><line stroke="#999" stroke-width="3" x1="1925.0" x2="2085.0" y1="261.0" y2="293.0" /><line stroke="#999" stroke-width="3" x1="1829.0" x2="1925.0" y1="133.0" y2="261.0" /><line stroke="#999" stroke-width="3" x1="1829.0" x2="1829.0" y1="5.0" y2="133.0" /><line stroke="#999" stroke-width="3" x1="517.0" x2="389.0" y1="773.0" y2="773.0" /><line stroke="#999" stroke-width="3" x1="517.0" x2="517.0" y1="837.0" y2="773.0" /><line stroke="#999" stroke-width="3" x1="517.0" x2="517.0" y1="933.0" y2="837.0" /><line stroke="#999" stroke-width="3" x1="389.0" x2="517.0" y1="901.0" y2="933.0" /><line stroke="#999" stroke-width="3" x1="389.0" x2="389.0" y1="773.0" y2="901.0" /><line stroke="#999" stroke-width="3" x1="549.0" x2="517.0" y1="837.0" y2="837.0" /><line stroke="#999" stroke-width="3" x1="549.0" x2="549.0" y1="933.0" y2="837.0" /><line stroke="#999" stroke-width="3" x1="517.0" x2="549.0" y1="933.0" y2="933.0" /><line stroke="#999" stroke-width="3" x1="613.0" x2="549.0" y1="837.0" y2="837.0" /><line stroke="#999" stroke-width="3" x1="613.0" x2="613.0" y1="933.0" y2="837.0" /><line stroke="#999" stroke-width="3" x1="549.0" x2="613.0" y1="933.0" y2="933.0" /><line stroke="#999" stroke-width="3" x1="549.0" x2="517.0" y1="741.0" y2="773.0" /><line stroke="#999" stroke-width="3" x1="709.0" x2="549.0" y1="741.0" y2="741.0" /><line stroke="#999" stroke-width="3" x1="709.0" x2="709.0" y1="837.0" y2="741.0" /><line stroke="#999" stroke-width="3" x1="613.0" x2="709.0" y1="837.0" y2="837.0" /><line stroke="#999" stroke-width="3" x1="741.0" x2="709.0" y1="933.0" y2="837.0" /><line stroke="#999" stroke-width="3" x1="645.0" x2="741.0" y1="997.0" y2="933.0" /><line stroke="#999" stroke-width="3" x1="613.0" x2="645.0" y1="933.0" y2="997.0" /><line stroke="#999" stroke-width="3" x1="805.0" x2="709.0" y1="741.0" y2="741.0" /><line stroke="#999" stroke-width="3" x1="901.0" x2="805.0" y1="773.0" y2="741.0" /><line stroke="#999" stroke-width="3" x1="837.0" x2="901.0" y1="901.0" y2="773.0" /><line stroke="#999" stroke-width="3" x1="741.0" x2="837.0" y1="933.0" y2="901.0" /><line stroke="#999" stroke-width="3" x1="1285.0" x2="1317.0" y1="549.0" y2="421.0" /><line stroke="#999" stroke-width="3" x1="1189.0" x2="1285.0" y1="581.0" y2="549.0" /><line stroke="#999" stroke-width="3" x1="1157.0" x2="1189.0" y1="485.0" y2="581.0" /><line stroke="#999" stroke-width="3" x1="1317.0" x2="1157.0" y1="421.0" y2="485.0" /><line stroke="#999" stroke-width="3" x1="1445.0" x2="1317.0" y1="453.0" y2="421.0" /><line stroke="#999" stroke-width="3" x1="1445.0" x2="1445.0" y1="549.0" y2="453.0" /><line stroke="#999" stroke-width="3" x1="1381.0" x2="1445.0" y1="613.0" y2="549.0" /><line stroke="#999" stroke-width="3" x1="1285.0" x2="1381.0" y1="549.0" y2="613.0" /><line stroke="#999" stroke-width="3" x1="1317.0" x2="1381.0" y1="709.0" y2="613.0" /><line stroke="#999" stroke-width="3" x1="1189.0" x2="1317.0" y1="709.0" y2="709.0" /><line stroke="#999" stroke-width="3" x1="1189.0" x2="1189.0" y1="581.0" y2="709.0" /><line stroke="#999" stroke-width="3" x1="1509.0" x2="1381.0" y1="677.0" y2="613.0" /><line stroke="#999" stroke-width="3" x1="1445.0" x2="1509.0" y1="741.0" y2="677.0" /><line stroke="#999" stroke-width="3" x1="1317.0" x2="1445.0" y1="709.0" y2="741.0" /><line stroke="#999" stroke-width="3" x1="1573.0" x2="1445.0" y1="549.0" y2="549.0" /><line stroke="#999" stroke-width="3" x1="1585.0" x2="1573.0" y1="641.0" y2="549.0" /><line stroke="#999" stroke-width="3" x1="1509.0" x2="1585.0" y1="677.0" y2="641.0" /><line stroke="#999" stroke-width="3" x1="1477.0" x2="1317.0" y1="1093.0" y2="1029.0" /><line stroke="#999" stroke-width="3" x1="1381.0" x2="1477.0" y1="1221.0" y2="1093.0" /><line stroke="#999" stroke-width="3" x1="1285.0" x2="1381.0" y1="1125.0" y2="1221.0" /><line stroke="#999" stroke-width="3" x1="1317.0" x2="1285.0" y1="1029.0" y2="1125.0" /><line stroke="#999" stroke-width="3" x1="1501.0" x2="1357.0" y1="945.0" y2="933.0" /><line stroke="#999" stroke-width="3" x1="1669.0" x2="1501.0" y1="1029.0" y2="945.0" /><line stroke="#999" stroke-width="3" x1="1605.0" x2="1669.0" y1="1157.0" y2="1029.0" /><line stroke="#999" stroke-width="3" x1="1509.0" x2="1605.0" y1="1157.0" y2="1157.0" /><line stroke="#999" stroke-width="3" x1="1477.0" x2="1509.0" y1="1093.0" y2="1157.0" /><line stroke="#999" stroke-width="3" x1="1573.0" x2="1605.0" y1="1221.0" y2="1157.0" /><line stroke="#999" stroke-width="3" x1="1509.0" x2="1573.0" y1="1221.0" y2="1221.0" /><line stroke="#999" stroke-width="3" x1="1509.0" x2="1509.0" y1="1157.0" y2="1221.0" /><line stroke="#999" stroke-width="3" x1="325.0" x2="389.0" y1="901.0" y2="901.0" /><line stroke="#999" stroke-width="3" x1="325.0" x2="325.0" y1="773.0" y2="901.0" /><line stroke="#999" stroke-width="3" x1="389.0" x2="325.0" y1="773.0" y2="773.0" /><line stroke="#999" stroke-width="3" x1="1573.0" x2="1445.0" y1="549.0" y2="453.0" /><line stroke="#333" stroke-width="10" x1="325.0" x2="197.0" y1="1125.0" y2="1125.0" /><line stroke="#333" stroke-width="10" x1="325.0" x2="325.0" y1="997.0" y2="1125.0" /><line stroke="#333" stroke-width="10" x1="197.0" x2="325.0" y1="997.0" y2="997.0" /><line stroke="#333" stroke-width="10" x1="197.0" x2="197.0" y1="1125.0" y2="997.0" /><line stroke="#333" stroke-width="10" x1="1093.0" x2="965.0" y1="1125.0" y2="1125.0" /><line stroke="#333" stroke-width="10" x1="1093.0" x2="1093.0" y1="997.0" y2="1125.0" /><line stroke="#333" stroke-width="10" x1="965.0" x2="1093.0" y1="997.0" y2="997.0" /><line stroke="#333" stroke-width="10" x1="965.0" x2="965.0" y1="1125.0" y2="997.0" /><line stroke="#333" stroke-width="10" x1="837.0" x2="709.0" y1="485.0" y2="485.0" /><line stroke="#333" stroke-width="10" x1="837.0" x2="837.0" y1="357.0" y2="485.0" /><line stroke="#333" stroke-width="10" x1="709.0" x2="837.0" y1="357.0" y2="357.0" /><line stroke="#333" stroke-width="10" x1="709.0" x2="709.0" y1="485.0" y2="357.0" /><line stroke="#999" stroke-width="3" x1="1605.0" x2="1477.0" y1="357.0" y2="357.0" /><line stroke="#999" stroke-width="3" x1="1605.0" x2="1605.0" y1="229.0" y2="357.0" /><line stroke="#0d0" stroke-width="20" x1="1477.0" x2="1605.0" y1="229.0" y2="229.0" /><line stroke="#999" stroke-width="3" x1="1477.0" x2="1477.0" y1="357.0" y2="229.0" /><line stroke="#333" stroke-width="10" x1="1861.0" x2="1733.0" y1="869.0" y2="869.0" /><line stroke="#333" stroke-width="10" x1="1861.0" x2="1861.0" y1="741.0" y2="869.0" /><line stroke="#333" stroke-width="10" x1="1733.0" x2="1861.0" y1="741.0" y2="741.0" /><line stroke="#333" stroke-width="10" x1="1733.0" x2="1733.0" y1="869.0" y2="741.0" /><line stroke="#999" stroke-width="3" x1="819.0" x2="741.0" y1="964.0" y2="933.0" /><line stroke="#999" stroke-width="3" x1="741.0" x2="819.0" y1="1036.0" y2="964.0" /><line stroke="#999" stroke-width="3" x1="589.0" x2="741.0" y1="1077.0" y2="1036.0" /><line stroke="#999" stroke-width="3" x1="645.0" x2="589.0" y1="997.0" y2="1077.0" /><line stroke="#999" stroke-width="3" x1="885.0" x2="819.0" y1="1021.0" y2="964.0" /><line stroke="#999" stroke-width="3" x1="798.0" x2="885.0" y1="1114.0" y2="1021.0" /><line stroke="#999" stroke-width="3" x1="709.0" x2="798.0" y1="1141.0" y2="1114.0" /><line stroke="#999" stroke-width="3" x1="741.0" x2="709.0" y1="1036.0" y2="1141.0" /><line stroke="#999" stroke-width="3" x1="957.0" x2="885.0" y1="1213.0" y2="1021.0" /><line stroke="#999" stroke-width="3" x1="781.0" x2="957.0" y1="1205.0" y2="1213.0" /><line stroke="#999" stroke-width="3" x1="798.0" x2="781.0" y1="1114.0" y2="1205.0" /><line stroke="#999" stroke-width="3" x1="709.0" x2="709.0" y1="661.0" y2="741.0" /><line stroke="#999" stroke-width="3" x1="821.0" x2="709.0" y1="629.0" y2="661.0" /><line stroke="#999" stroke-width="3" x1="893.0" x2="821.0" y1="661.0" y2="629.0" /><line stroke="#999" stroke-width="3" x1="805.0" x2="893.0" y1="741.0" y2="661.0" /><line stroke="#999" stroke-width="3" x1="597.0" x2="709.0" y1="669.0" y2="661.0" /><line stroke="#999" stroke-width="3" x1="589.0" x2="597.0" y1="549.0" y2="669.0" /><line stroke="#999" stroke-width="3" x1="717.0" x2="589.0" y1="557.0" y2="549.0" /><line stroke="#999" stroke-width="3" x1="821.0" x2="717.0" y1="629.0" y2="557.0" /><line stroke="#999" stroke-width="3" x1="1152.0" x2="1285.0" y1="1092.0" y2="1125.0" /><line stroke="#999" stroke-width="3" x1="1149.0" x2="1152.0" y1="965.0" y2="1092.0" /><line stroke="#999" stroke-width="3" x1="1237.0" x2="1149.0" y1="997.0" y2="965.0" /><line stroke="#999" stroke-width="3" x1="1317.0" x2="1237.0" y1="1029.0" y2="997.0" /><line stroke="#999" stroke-width="3" x1="1253.0" x2="1149.0" y1="877.0" y2="965.0" /><line stroke="#999" stroke-width="3" x1="1357.0" x2="1253.0" y1="933.0" y2="877.0" /><line stroke="#999" stroke-width="3" x1="1317.0" x2="1357.0" y1="1029.0" y2="933.0" /><line stroke="#999" stroke-width="3" x1="1069.0" x2="1149.0" y1="901.0" y2="965.0" /><line stroke="#999" stroke-width="3" x1="1069.0" x2="1069.0" y1="797.0" y2="901.0" /><line stroke="#999" stroke-width="3" x1="1253.0" x2="1069.0" y1="877.0" y2="797.0" /><line stroke="#999" stroke-width="3" x1="1685.0" x2="1573.0" y1="541.0" y2="549.0" /><line stroke="#999" stroke-width="3" x1="1785.0" x2="1685.0" y1="589.0" y2="541.0" /><line stroke="#999" stroke-width="3" x1="1637.0" x2="1853.0" y1="693.0" y2="677.0" /><line stroke="#999" stroke-width="3" x1="1585.0" x2="1637.0" y1="641.0" y2="693.0" /><line stroke="#999" stroke-width="3" x1="1653.0" x2="1685.0" y1="445.0" y2="541.0" /><line stroke="#999" stroke-width="3" x1="1741.0" x2="1653.0" y1="421.0" y2="445.0" /><line stroke="#999" stroke-width="3" x1="1821.0" x2="1741.0" y1="453.0" y2="421.0" /><line stroke="#999" stroke-width="3" x1="1877.0" x2="1821.0" y1="533.0" y2="453.0" /><line stroke="#999" stroke-width="3" x1="1785.0" x2="1877.0" y1="589.0" y2="533.0" /><line stroke="#999" stroke-width="3" x1="1965.0" x2="1877.0" y1="533.0" y2="533.0" /><line stroke="#999" stroke-width="3" x1="1933.0" x2="1965.0" y1="641.0" y2="533.0" /><line stroke="#999" stroke-width="3" x1="1853.0" x2="1933.0" y1="677.0" y2="641.0" /><line stroke="#999" stroke-width="3" x1="1785.0" x2="1853.0" y1="589.0" y2="677.0" /><line stroke="#999" stroke-width="3" x1="2061.0" x2="1965.0" y1="461.0" y2="533.0" /><line stroke="#999" stroke-width="3" x1="2149.0" x2="2061.0" y1="637.0" y2="461.0" /><line stroke="#999" stroke-width="3" x1="1989.0" x2="2149.0" y1="741.0" y2="637.0" /><line stroke="#999" stroke-width="3" x1="1933.0" x2="1989.0" y1="641.0" y2="741.0" /><ellipse cx="375.0" cy="1407.0" fill="#009" rx="12" ry="24" stroke="#009" stroke-width="5" /><rect fill="#900" height="48" stroke="#900" stroke-width="5" transform="rotate(0,1100.0,862.0)" width="32" x="1084.0" y="838.0" /><rect fill="#900" height="48" stroke="#900" stroke-width="5" transform="rotate(0,1295.0,927.0)" width="32" x="1279.0" y="903.0" /><rect fill="#900" height="48" stroke="#900" stroke-width="5" transform="rotate(225,2045.0,642.0)" width="32" x="2029.0" y="618.0" /><rect fill="#900" height="48" stroke="#900" stroke-width="5" transform="rotate(225,1755.0,512.0)" width="32" x="1739.0" y="488.0" /><rect fill="#900" height="48" stroke="#900" stroke-width="5" transform="rotate(225,795.0,682.0)" width="32" x="779.0" y="658.0" /><rect fill="#900" height="48" stroke="#900" stroke-width="5" transform="rotate(225,630.0,592.0)" width="32" x="614.0" y="568.0" /><circle cx="910.0" cy="1162.0" fill="#900" r="16" stroke="#900" stroke-width="5" /><circle cx="60.0" cy="397.0" fill="#900" r="16" stroke="#900" stroke-width="5" /><circle cx="745.0" cy="612.0" fill="#900" r="16" stroke="#900" stroke-width="5" /><circle cx="880.0" cy="1102.0" fill="#090" r="16" stroke="#090" stroke-width="5" /><rect fill="#900" height="48" stroke="#900" stroke-width="5" transform="rotate(225,845.0,1162.0)" width="32" x="829.0" y="1138.0" /><circle cx="1150.0" cy="882.0" fill="#900" r="16" stroke="#900" stroke-width="5" /><circle cx="1310.0" cy="967.0" fill="#090" r="16" stroke="#090" stroke-width="5" /><circle cx="2035.0" cy="532.0" fill="#090" r="16" stroke="#090" stroke-width="5" /><circle cx="2100.0" cy="607.0" fill="#900" r="16" stroke="#900" stroke-width="5" /><circle cx="1780.0" cy="1462.0" fill="#090" r="16" stroke="#090" stroke-width="5" /><circle cx="175.0" cy="1252.0" fill="#090" r="16" stroke="#090" stroke-width="5" /><circle cx="280.0" cy="1252.0" fill="#090" r="16" stroke="#090" stroke-width="5" /><circle cx="370.0" cy="1252.0" fill="#090" r="16" stroke="#090" stroke-width="5" /><circle cx="425.0" cy="252.0" fill="#090" r="16" stroke="#090" stroke-width="5" /><circle cx="425.0" cy="172.0" fill="#090" r="16" stroke="#090" stroke-width="5" /><circle cx="415.0" cy="102.0" fill="#090" r="16" stroke="#090" stroke-width="5" /><circle cx="1785.0" cy="72.0" fill="#090" r="16" stroke="#090" stroke-width="5" /><circle cx="1795.0" cy="152.0" fill="#090" r="16" stroke="#090" stroke-width="5" /><circle cx="1840.0" cy="222.0" fill="#090" r="16" stroke="#090" stroke-width="5" /><circle cx="2160.0" cy="1187.0" fill="#090" r="16" stroke="#090" stroke-width="5" /><circle cx="1960.0" cy="1322.0" fill="#090" r="16" stroke="#090" stroke-width="5" /><rect fill="#090" height="24" stroke="#090" stroke-width="5" transform="rotate(0,210.0,172.0)" width="24" x="198.0" y="160.0" /><rect fill="#090" height="24" stroke="#090" stroke-width="5" transform="rotate(0,2055.0,142.0)" width="24" x="2043.0" y="130.0" /><rect fill="#090" height="24" stroke="#090" stroke-width="5" transform="rotate(0,2085.0,1382.0)" width="24" x="2073.0" y="1370.0" /><rect fill="#090" height="24" stroke="#090" stroke-width="5" transform="rotate(0,270.0,1412.0)" width="24" x="258.0" y="1400.0" /><rect fill="#090" height="24" stroke="#090" stroke-width="5" transform="rotate(0,1670.0,607.0)" width="24" x="1658.0" y="595.0" /><rect fill="#090" height="24" stroke="#090" stroke-width="5" transform="rotate(0,1515.0,1077.0)" width="24" x="1503.0" y="1065.0" /><rect fill="#090" height="24" stroke="#090" stroke-width="5" transform="rotate(225,635.0,787.0)" width="24" x="623.0" y="775.0" /><rect fill="#900" height="48" stroke="#900" stroke-width="5" transform="rotate(225,1015.0,117.0)" width="32" x="999.0" y="93.0" /><rect fill="#900" height="48" stroke="#900" stroke-width="5" transform="rotate(225,1330.0,137.0)" width="32" x="1314.0" y="113.0" /><rect fill="#900" height="48" stroke="#900" stroke-width="5" transform="rotate(0,1560.0,1417.0)" width="32" x="1544.0" y="1393.0" /><rect fill="#900" height="48" stroke="#900" stroke-width="5" transform="rotate(0,1090.0,1417.0)" width="32" x="1074.0" y="1393.0" /><rect fill="#900" height="48" stroke="#900" stroke-width="5" transform="rotate(225,85.0,917.0)" width="32" x="69.0" y="893.0" /><rect fill="#900" height="48" stroke="#900" stroke-width="5" transform="rotate(225,60.0,687.0)" width="32" x="44.0" y="663.0" /><rect fill="#900" height="48" stroke="#900" stroke-width="5" transform="rotate(225,2190.0,892.0)" width="32" x="2174.0" y="868.0" /><rect fill="#900" height="48" stroke="#900" stroke-width="5" transform="rotate(225,2185.0,532.0)" width="32" x="2169.0" y="508.0" /><circle cx="60.0" cy="532.0" fill="#009" r="16" stroke="#009" stroke-width="5" /><circle cx="35.0" cy="1132.0" fill="#009" r="16" stroke="#009" stroke-width="5" /><circle cx="845.0" cy="1442.0" fill="#009" r="16" stroke="#009" stroke-width="5" /><circle cx="1360.0" cy="1437.0" fill="#009" r="16" stroke="#009" stroke-width="5" /><circle cx="2180.0" cy="687.0" fill="#009" r="16" stroke="#009" stroke-width="5" /></svg>