<?xml version="1.0" encoding="utf-8" ?>
<svg baseProfile="tiny" height="733" version="1.2" viewBox="0 0 1690 1210" width="1024" xmlns="http://www.w3.org/2000/svg" xmlns:ev="http://www.w3.org/2001/xml-events" xmlns:xlink="http://www.w3.org/1999/xlink"><defs /><line stroke="#333" stroke-width="10" x1="21.0" x2="53.0" y1="485.0" y2="517.0" /><line stroke="#333" stroke-width="10" x1="53.0" x2="149.0" y1="517.0" y2="517.0" /><line stroke="#333" stroke-width="10" x1="501.0" x2="533.0" y1="517.0" y2="485.0" /><line stroke="#333" stroke-width="10" x1="533.0" x2="533.0" y1="485.0" y2="389.0" /><line stroke="#333" stroke-width="10" x1="533.0" x2="533.0" y1="389.0" y2="325.0" /><line stroke="#333" stroke-width="10" x1="533.0" x2="533.0" y1="325.0" y2="229.0" /><line stroke="#333" stroke-width="10" x1="533.0" x2="501.0" y1="229.0" y2="197.0" /><line stroke="#333" stroke-width="10" x1="501.0" x2="405.0" y1="197.0" y2="197.0" /><line stroke="#333" stroke-width="10" x1="53.0" x2="21.0" y1="197.0" y2="229.0" /><line stroke="#333" stroke-width="10" x1="21.0" x2="21.0" y1="229.0" y2="309.0" /><line stroke="#00d" stroke-width="20" x1="533.0" x2="469.0" y1="389.0" y2="389.0" /><line stroke="#00d" stroke-width="20" x1="469.0" x2="469.0" y1="389.0" y2="325.0" /><line stroke="#00d" stroke-width="20" x1="469.0" x2="533.0" y1="325.0" y2="325.0" /><line stroke="#999" stroke-width="3" x1="277.0" x2="149.0" y1="197.0" y2="197.0" /><line stroke="#999" stroke-width="3" x1="277.0" x2="277.0" y1="517.0" y2="197.0" /><line stroke="#999" stroke-width="3" x1="277.0" x2="405.0" y1="517.0" y2="517.0" /><line stroke="#999" stroke-width="3" x1="149.0" x2="277.0" y1="517.0" y2="517.0" /><line stroke="#333" stroke-width="10" x1="405.0" x2="501.0" y1="517.0" y2="517.0" /><line stroke="#999" stroke-width="3" x1="405.0" x2="277.0" y1="197.0" y2="197.0" /><line stroke="#333" stroke-width="10" x1="149.0" x2="53.0" y1="197.0" y2="197.0" /><line stroke="#333" stroke-width="10" x1="405.0" x2="405.0" y1="197.0" y2="173.0" /><line stroke="#333" stroke-width="10" x1="405.0" x2="149.0" y1="69.0" y2="69.0" /><line stroke="#333" stroke-width="10" x1="149.0" x2="149.0" y1="69.0" y2="173.0" /><line stroke="#333" stroke-width="10" x1="149.0" x2="149.0" y1="517.0" y2="541.0" /><line stroke="#333" stroke-width="10" x1="149.0" x2="405.0" y1="645.0" y2="645.0" /><line stroke="#333" stroke-width="10" x1="405.0" x2="405.0" y1="645.0" y2="541.0" /><line stroke="#333" stroke-width="10" x1="149.0" x2="149.0" y1="541.0" y2="645.0" /><line stroke="#333" stroke-width="10" x1="405.0" x2="405.0" y1="541.0" y2="517.0" /><line stroke="#333" stroke-width="10" x1="405.0" x2="405.0" y1="173.0" y2="69.0" /><line stroke="#333" stroke-width="10" x1="149.0" x2="149.0" y1="173.0" y2="197.0" /><line stroke="#999" stroke-width="3" x1="149.0" x2="149.0" y1="453.0" y2="389.0" /><line stroke="#999" stroke-width="3" x1="149.0" x2="213.0" y1="389.0" y2="389.0" /><line stroke="#999" stroke-width="3" x1="213.0" x2="213.0" y1="389.0" y2="453.0" /><line stroke="#999" stroke-width="3" x1="213.0" x2="149.0" y1="453.0" y2="453.0" /><line stroke="#999" stroke-width="3" x1="149.0" x2="149.0" y1="325.0" y2="261.0" /><line stroke="#999" stroke-width="3" x1="149.0" x2="213.0" y1="261.0" y2="261.0" /><line stroke="#999" stroke-width="3" x1="213.0" x2="213.0" y1="261.0" y2="325.0" /><line stroke="#999" stroke-width="3" x1="213.0" x2="149.0" y1="325.0" y2="325.0" /><line stroke="#999" stroke-width="3" x1="341.0" x2="341.0" y1="325.0" y2="261.0" /><line stroke="#999" stroke-width="3" x1="341.0" x2="405.0" y1="261.0" y2="261.0" /><line stroke="#999" stroke-width="3" x1="405.0" x2="405.0" y1="261.0" y2="325.0" /><line stroke="#999" stroke-width="3" x1="405.0" x2="341.0" y1="325.0" y2="325.0" /><line stroke="#999" stroke-width="3" x1="341.0" x2="341.0" y1="453.0" y2="389.0" /><line stroke="#999" stroke-width="3" x1="341.0" x2="405.0" y1="389.0" y2="389.0" /><line stroke="#999" stroke-width="3" x1="405.0" x2="405.0" y1="389.0" y2="453.0" /><line stroke="#999" stroke-width="3" x1="405.0" x2="341.0" y1="453.0" y2="453.0" /><line stroke="#333" stroke-width="10" x1="21.0" x2="21.0" y1="389.0" y2="405.0" /><line stroke="#999" stroke-width="3" x1="21.0" x2="21.0" y1="325.0" y2="357.0" /><line stroke="#333" stroke-width="10" x1="21.0" x2="21.0" y1="309.0" y2="325.0" /><line stroke="#333" stroke-width="10" x1="21.0" x2="21.0" y1="405.0" y2="485.0" /><line stroke="#333" stroke-width="10" x1="21.0" x2="5.0" y1="325.0" y2="325.0" /><line stroke="#333" stroke-width="10" x1="5.0" x2="5.0" y1="325.0" y2="389.0" /><line stroke="#333" stroke-width="10" x1="5.0" x2="21.0" y1="389.0" y2="389.0" /><line stroke="#999" stroke-width="3" x1="21.0" x2="21.0" y1="357.0" y2="389.0" /><line stroke="#00d" stroke-width="20" x1="533.0" x2="533.0" y1="581.0" y2="645.0" /><line stroke="#00d" stroke-width="20" x1="533.0" x2="469.0" y1="645.0" y2="645.0" /><line stroke="#333" stroke-width="10" x1="469.0" x2="469.0" y1="645.0" y2="837.0" /><line stroke="#333" stroke-width="10" x1="469.0" x2="533.0" y1="837.0" y2="901.0" /><line stroke="#333" stroke-width="10" x1="597.0" x2="597.0" y1="901.0" y2="917.0" /><line stroke="#333" stroke-width="10" x1="725.0" x2="853.0" y1="901.0" y2="901.0" /><line stroke="#333" stroke-width="10" x1="853.0" x2="1045.0" y1="901.0" y2="709.0" /><line stroke="#333" stroke-width="10" x1="1045.0" x2="1109.0" y1="709.0" y2="709.0" /><line stroke="#333" stroke-width="10" x1="1109.0" x2="1125.0" y1="709.0" y2="693.0" /><line stroke="#999" stroke-width="3" x1="1173.0" x2="1173.0" y1="645.0" y2="517.0" /><line stroke="#333" stroke-width="10" x1="1173.0" x2="1157.0" y1="517.0" y2="501.0" /><line stroke="#333" stroke-width="10" x1="1109.0" x2="853.0" y1="453.0" y2="453.0" /><line stroke="#333" stroke-width="10" x1="853.0" x2="725.0" y1="453.0" y2="581.0" /><line stroke="#333" stroke-width="10" x1="725.0" x2="533.0" y1="581.0" y2="581.0" /><line stroke="#333" stroke-width="10" x1="533.0" x2="597.0" y1="901.0" y2="901.0" /><line stroke="#333" stroke-width="10" x1="533.0" x2="469.0" y1="581.0" y2="581.0" /><line stroke="#333" stroke-width="10" x1="469.0" x2="469.0" y1="581.0" y2="645.0" /><line stroke="#333" stroke-width="10" x1="1157.0" x2="1173.0" y1="661.0" y2="645.0" /><line stroke="#333" stroke-width="10" x1="1157.0" x2="1141.0" y1="501.0" y2="485.0" /><line stroke="#333" stroke-width="10" x1="725.0" x2="725.0" y1="917.0" y2="901.0" /><line stroke="#d00" stroke-width="20" x1="597.0" x2="725.0" y1="917.0" y2="917.0" /><line stroke="#999" stroke-width="3" x1="1173.0" x2="1109.0" y1="645.0" y2="645.0" /><line stroke="#999" stroke-width="3" x1="1109.0" x2="1109.0" y1="645.0" y2="517.0" /><line stroke="#999" stroke-width="3" x1="1109.0" x2="1173.0" y1="517.0" y2="517.0" /><line stroke="#999" stroke-width="3" x1="1157.0" x2="1093.0" y1="661.0" y2="661.0" /><line stroke="#999" stroke-width="3" x1="1093.0" x2="1093.0" y1="661.0" y2="501.0" /><line stroke="#999" stroke-width="3" x1="1093.0" x2="1157.0" y1="501.0" y2="501.0" /><line stroke="#333" stroke-width="10" x1="1141.0" x2="1157.0" y1="677.0" y2="661.0" /><line stroke="#999" stroke-width="3" x1="1141.0" x2="1077.0" y1="677.0" y2="677.0" /><line stroke="#999" stroke-width="3" x1="1077.0" x2="1077.0" y1="677.0" y2="485.0" /><line stroke="#333" stroke-width="10" x1="1141.0" x2="1125.0" y1="485.0" y2="469.0" /><line stroke="#999" stroke-width="3" x1="1077.0" x2="1141.0" y1="485.0" y2="485.0" /><line stroke="#333" stroke-width="10" x1="1125.0" x2="1141.0" y1="693.0" y2="677.0" /><line stroke="#999" stroke-width="3" x1="1125.0" x2="1061.0" y1="693.0" y2="693.0" /><line stroke="#999" stroke-width="3" x1="1061.0" x2="1061.0" y1="693.0" y2="469.0" /><line stroke="#333" stroke-width="10" x1="1125.0" x2="1109.0" y1="469.0" y2="453.0" /><line stroke="#999" stroke-width="3" x1="1061.0" x2="1125.0" y1="469.0" y2="469.0" /><line stroke="#333" stroke-width="10" x1="1173.0" x2="1189.0" y1="645.0" y2="645.0" /><line stroke="#333" stroke-width="10" x1="1189.0" x2="1557.0" y1="645.0" y2="645.0" /><line stroke="#333" stroke-width="10" x1="1557.0" x2="1557.0" y1="645.0" y2="517.0" /><line stroke="#333" stroke-width="10" x1="1557.0" x2="869.0" y1="133.0" y2="133.0" /><line stroke="#333" stroke-width="10" x1="853.0" x2="853.0" y1="133.0" y2="5.0" /><line stroke="#333" stroke-width="10" x1="853.0" x2="725.0" y1="5.0" y2="5.0" /><line stroke="#333" stroke-width="10" x1="597.0" x2="597.0" y1="5.0" y2="69.0" /><line stroke="#333" stroke-width="10" x1="597.0" x2="725.0" y1="389.0" y2="389.0" /><line stroke="#333" stroke-width="10" x1="853.0" x2="853.0" y1="389.0" y2="261.0" /><line stroke="#333" stroke-width="10" x1="853.0" x2="869.0" y1="261.0" y2="261.0" /><line stroke="#333" stroke-width="10" x1="1429.0" x2="1429.0" y1="261.0" y2="517.0" /><line stroke="#333" stroke-width="10" x1="1429.0" x2="1189.0" y1="517.0" y2="517.0" /><line stroke="#333" stroke-width="10" x1="1189.0" x2="1173.0" y1="517.0" y2="517.0" /><line stroke="#999" stroke-width="3" x1="853.0" x2="853.0" y1="261.0" y2="133.0" /><line stroke="#333" stroke-width="10" x1="869.0" x2="1429.0" y1="261.0" y2="261.0" /><line stroke="#333" stroke-width="10" x1="869.0" x2="853.0" y1="133.0" y2="133.0" /><line stroke="#999" stroke-width="3" x1="597.0" x2="597.0" y1="69.0" y2="325.0" /><line stroke="#333" stroke-width="10" x1="597.0" x2="581.0" y1="69.0" y2="69.0" /><line stroke="#333" stroke-width="10" x1="581.0" x2="581.0" y1="69.0" y2="325.0" /><line stroke="#333" stroke-width="10" x1="597.0" x2="597.0" y1="325.0" y2="389.0" /><line stroke="#333" stroke-width="10" x1="581.0" x2="597.0" y1="325.0" y2="325.0" /><line stroke="#333" stroke-width="10" x1="725.0" x2="597.0" y1="5.0" y2="5.0" /><line stroke="#333" stroke-width="10" x1="725.0" x2="853.0" y1="389.0" y2="389.0" /><line stroke="#999" stroke-width="3" x1="725.0" x2="725.0" y1="5.0" y2="389.0" /><line stroke="#999" stroke-width="3" x1="1557.0" x2="1557.0" y1="517.0" y2="261.0" /><line stroke="#333" stroke-width="10" x1="1557.0" x2="1573.0" y1="517.0" y2="517.0" /><line stroke="#333" stroke-width="10" x1="1685.0" x2="1685.0" y1="517.0" y2="261.0" /><line stroke="#333" stroke-width="10" x1="1557.0" x2="1557.0" y1="261.0" y2="133.0" /><line stroke="#333" stroke-width="10" x1="1685.0" x2="1573.0" y1="261.0" y2="261.0" /><line stroke="#333" stroke-width="10" x1="1573.0" x2="1557.0" y1="261.0" y2="261.0" /><line stroke="#333" stroke-width="10" x1="1573.0" x2="1685.0" y1="517.0" y2="517.0" /><line stroke="#999" stroke-width="3" x1="597.0" x2="821.0" y1="837.0" y2="837.0" /><line stroke="#999" stroke-width="3" x1="821.0" x2="1013.0" y1="837.0" y2="645.0" /><line stroke="#999" stroke-width="3" x1="1013.0" x2="1013.0" y1="645.0" y2="597.0" /><line stroke="#999" stroke-width="3" x1="1013.0" x2="901.0" y1="517.0" y2="517.0" /><line stroke="#999" stroke-width="3" x1="901.0" x2="773.0" y1="517.0" y2="645.0" /><line stroke="#999" stroke-width="3" x1="773.0" x2="597.0" y1="645.0" y2="645.0" /><line stroke="#999" stroke-width="3" x1="1013.0" x2="1013.0" y1="597.0" y2="517.0" /><line stroke="#999" stroke-width="3" x1="533.0" x2="533.0" y1="709.0" y2="725.0" /><line stroke="#999" stroke-width="3" x1="533.0" x2="597.0" y1="773.0" y2="837.0" /><line stroke="#999" stroke-width="3" x1="533.0" x2="533.0" y1="725.0" y2="773.0" /><line stroke="#999" stroke-width="3" x1="533.0" x2="597.0" y1="725.0" y2="789.0" /><line stroke="#999" stroke-width="3" x1="597.0" x2="821.0" y1="789.0" y2="789.0" /><line stroke="#999" stroke-width="3" x1="597.0" x2="533.0" y1="645.0" y2="709.0" /><line stroke="#999" stroke-width="3" x1="821.0" x2="1013.0" y1="789.0" y2="597.0" /><line stroke="#999" stroke-width="3" x1="1013.0" x2="1013.0" y1="517.0" y2="469.0" /><line stroke="#999" stroke-width="3" x1="1013.0" x2="901.0" y1="469.0" y2="469.0" /><line stroke="#999" stroke-width="3" x1="901.0" x2="773.0" y1="469.0" y2="597.0" /><line stroke="#999" stroke-width="3" x1="773.0" x2="597.0" y1="597.0" y2="597.0" /><line stroke="#999" stroke-width="3" x1="597.0" x2="533.0" y1="597.0" y2="661.0" /><line stroke="#999" stroke-width="3" x1="533.0" x2="533.0" y1="661.0" y2="709.0" /><line stroke="#333" stroke-width="10" x1="597.0" x2="597.0" y1="917.0" y2="933.0" /><line stroke="#333" stroke-width="10" x1="597.0" x2="597.0" y1="933.0" y2="949.0" /><line stroke="#333" stroke-width="10" x1="597.0" x2="533.0" y1="949.0" y2="949.0" /><line stroke="#333" stroke-width="10" x1="533.0" x2="533.0" y1="949.0" y2="1013.0" /><line stroke="#333" stroke-width="10" x1="533.0" x2="597.0" y1="1205.0" y2="1205.0" /><line stroke="#333" stroke-width="10" x1="789.0" x2="789.0" y1="1205.0" y2="1141.0" /><line stroke="#333" stroke-width="10" x1="789.0" x2="725.0" y1="949.0" y2="949.0" /><line stroke="#333" stroke-width="10" x1="725.0" x2="725.0" y1="949.0" y2="933.0" /><line stroke="#333" stroke-width="10" x1="725.0" x2="725.0" y1="933.0" y2="917.0" /><line stroke="#d00" stroke-width="20" x1="725.0" x2="597.0" y1="933.0" y2="933.0" /><line stroke="#333" stroke-width="10" x1="533.0" x2="533.0" y1="1013.0" y2="1141.0" /><line stroke="#333" stroke-width="10" x1="789.0" x2="789.0" y1="1013.0" y2="949.0" /><line stroke="#333" stroke-width="10" x1="533.0" x2="533.0" y1="1141.0" y2="1205.0" /><line stroke="#333" stroke-width="10" x1="789.0" x2="789.0" y1="1141.0" y2="1013.0" /><line stroke="#333" stroke-width="10" x1="725.0" x2="789.0" y1="1205.0" y2="1205.0" /><line stroke="#333" stroke-width="10" x1="597.0" x2="629.0" y1="1205.0" y2="1205.0" /><line stroke="#333" stroke-width="10" x1="629.0" x2="629.0" y1="1205.0" y2="1189.0" /><line stroke="#333" stroke-width="10" x1="693.0" x2="725.0" y1="1205.0" y2="1205.0" /><line stroke="#0d0" stroke-width="20" x1="629.0" x2="693.0" y1="1189.0" y2="1189.0" /><line stroke="#333" stroke-width="10" x1="693.0" x2="693.0" y1="1189.0" y2="1205.0" /><line stroke="#999" stroke-width="3" x1="629.0" x2="629.0" y1="1189.0" y2="1125.0" /><line stroke="#999" stroke-width="3" x1="629.0" x2="693.0" y1="1125.0" y2="1125.0" /><line stroke="#999" stroke-width="3" x1="693.0" x2="693.0" y1="1125.0" y2="1189.0" /><line stroke="#999" stroke-width="3" x1="597.0" x2="597.0" y1="1205.0" y2="1093.0" /><line stroke="#999" stroke-width="3" x1="597.0" x2="725.0" y1="1093.0" y2="1093.0" /><line stroke="#999" stroke-width="3" x1="725.0" x2="725.0" y1="1093.0" y2="1205.0" /><line stroke="#999" stroke-width="3" x1="597.0" x2="629.0" y1="1205.0" y2="1189.0" /><line stroke="#999" stroke-width="3" x1="693.0" x2="725.0" y1="1189.0" y2="1205.0" /><ellipse cx="85.0" cy="357.0" fill="#009" rx="12" ry="24" stroke="#009" stroke-width="5" /><circle cx="309.0" cy="357.0" fill="#900" r="16" stroke="#900" stroke-width="5" /><circle cx="245.0" cy="421.0" fill="#090" r="16" stroke="#090" stroke-width="5" /><circle cx="245.0" cy="357.0" fill="#090" r="16" stroke="#090" stroke-width="5" /><circle cx="245.0" cy="293.0" fill="#090" r="16" stroke="#090" stroke-width="5" /><circle cx="309.0" cy="293.0" fill="#090" r="16" stroke="#090" stroke-width="5" /><circle cx="309.0" cy="421.0" fill="#090" r="16" stroke="#090" stroke-width="5" /><rect fill="#900" height="48" stroke="#900" stroke-width="5" transform="rotate(270,181.0,581.0)" width="32" x="165.0" y="557.0" /><rect fill="#900" height="48" stroke="#900" stroke-width="5" transform="rotate(270,373.0,581.0)" width="32" x="357.0" y="557.0" /><rect fill="#900" height="48" stroke="#900" stroke-width="5" transform="rotate(270,277.0,581.0)" width="32" x="261.0" y="557.0" /><rect fill="#900" height="48" stroke="#900" stroke-width="5" transform="rotate(90,181.0,133.0)" width="32" x="165.0" y="109.0" /><rect fill="#900" height="48" stroke="#900" stroke-width="5" transform="rotate(90,373.0,133.0)" width="32" x="357.0" y="109.0" /><rect fill="#900" height="48" stroke="#900" stroke-width="5" transform="rotate(90,277.0,133.0)" width="32" x="261.0" y="109.0" /><ellipse cx="629.0" cy="197.0" fill="#090" rx="12" ry="24" stroke="#090" stroke-width="5" /><rect fill="#009" height="24" stroke="#009" stroke-width="5" transform="rotate(180,501.0,357.0)" width="24" x="489.0" y="345.0" /><rect fill="#009" height="24" stroke="#009" stroke-width="5" transform="rotate(45,501.0,613.0)" width="24" x="489.0" y="601.0" /><circle cx="277.0" cy="613.0" fill="#009" r="16" stroke="#009" stroke-width="5" /><rect fill="#900" height="48" stroke="#900" stroke-width="5" transform="rotate(225,709.0,837.0)" width="32" x="693.0" y="813.0" /><rect fill="#900" height="48" stroke="#900" stroke-width="5" transform="rotate(225,853.0,757.0)" width="32" x="837.0" y="733.0" /><rect fill="#900" height="48" stroke="#900" stroke-width="5" transform="rotate(180,949.0,549.0)" width="32" x="933.0" y="525.0" /><rect fill="#900" height="48" stroke="#900" stroke-width="5" transform="rotate(180,741.0,677.0)" width="32" x="725.0" y="653.0" /><rect fill="#900" height="48" stroke="#900" stroke-width="5" transform="rotate(90,1461.0,197.0)" width="32" x="1445.0" y="173.0" /><rect fill="#900" height="48" stroke="#900" stroke-width="5" transform="rotate(135,1525.0,389.0)" width="32" x="1509.0" y="365.0" /><rect fill="#900" height="48" stroke="#900" stroke-width="5" transform="rotate(0,917.0,197.0)" width="32" x="901.0" y="173.0" /><rect fill="#900" height="48" stroke="#900" stroke-width="5" transform="rotate(225,821.0,357.0)" width="32" x="805.0" y="333.0" /><rect fill="#900" height="48" stroke="#900" stroke-width="5" transform="rotate(135,821.0,37.0)" width="32" x="805.0" y="13.0" /><rect fill="#900" height="48" stroke="#900" stroke-width="5" transform="rotate(180,1621.0,485.0)" width="32" x="1605.0" y="461.0" /><rect fill="#900" height="48" stroke="#900" stroke-width="5" transform="rotate(180,1621.0,389.0)" width="32" x="1605.0" y="365.0" /><rect fill="#900" height="48" stroke="#900" stroke-width="5" transform="rotate(180,1621.0,293.0)" width="32" x="1605.0" y="269.0" /><circle cx="1653.0" cy="389.0" fill="#009" r="16" stroke="#009" stroke-width="5" /><circle cx="629.0" cy="373.0" fill="#090" r="16" stroke="#090" stroke-width="5" /><circle cx="661.0" cy="373.0" fill="#090" r="16" stroke="#090" stroke-width="5" /><circle cx="693.0" cy="373.0" fill="#090" r="16" stroke="#090" stroke-width="5" /><circle cx="629.0" cy="21.0" fill="#090" r="16" stroke="#090" stroke-width="5" /><circle cx="661.0" cy="21.0" fill="#090" r="16" stroke="#090" stroke-width="5" /><circle cx="693.0" cy="21.0" fill="#090" r="16" stroke="#090" stroke-width="5" /><ellipse cx="437.0" cy="501.0" fill="#900" rx="12" ry="24" stroke="#900" stroke-width="5" /><ellipse cx="869.0" cy="469.0" fill="#900" rx="12" ry="24" stroke="#900" stroke-width="5" /><ellipse cx="773.0" cy="373.0" fill="#900" rx="12" ry="24" stroke="#900" stroke-width="5" /><ellipse cx="501.0" cy="853.0" fill="#900" rx="12" ry="24" stroke="#900" stroke-width="5" /><rect fill="#900" height="48" stroke="#900" stroke-width="5" transform="rotate(270,597.0,1125.0)" width="32" x="581.0" y="1101.0" /><rect fill="#900" height="48" stroke="#900" stroke-width="5" transform="rotate(270,661.0,1061.0)" width="32" x="645.0" y="1037.0" /><rect fill="#900" height="48" stroke="#900" stroke-width="5" transform="rotate(270,725.0,1125.0)" width="32" x="709.0" y="1101.0" /></svg>