<?xml version="1.0" encoding="utf-8" ?>
<svg baseProfile="tiny" height="1024" version="1.2" viewBox="0 0 2982 3834" width="796" xmlns="http://www.w3.org/2000/svg" xmlns:ev="http://www.w3.org/2001/xml-events" xmlns:xlink="http://www.w3.org/1999/xlink"><defs /><line stroke="#333" stroke-width="10" x1="1921.0" x2="2049.0" y1="1413.0" y2="1461.0" /><line stroke="#333" stroke-width="10" x1="2177.0" x2="2193.0" y1="1413.0" y2="1333.0" /><line stroke="#333" stroke-width="10" x1="1921.0" x2="1921.0" y1="1253.0" y2="1301.0" /><line stroke="#333" stroke-width="10" x1="2001.0" x2="1921.0" y1="1333.0" y2="1413.0" /><line stroke="#666" stroke-width="20" x1="2049.0" x2="2129.0" y1="1253.0" y2="1221.0" /><line stroke="#333" stroke-width="10" x1="2369.0" x2="2385.0" y1="1221.0" y2="1173.0" /><line stroke="#333" stroke-width="10" x1="2385.0" x2="2361.0" y1="1117.0" y2="1109.0" /><line stroke="#333" stroke-width="10" x1="2049.0" x2="2097.0" y1="1125.0" y2="1173.0" /><line stroke="#333" stroke-width="10" x1="2049.0" x2="1985.0" y1="1253.0" y2="1269.0" /><line stroke="#333" stroke-width="10" x1="2177.0" x2="2257.0" y1="1253.0" y2="1221.0" /><line stroke="#333" stroke-width="10" x1="2049.0" x2="2049.0" y1="1237.0" y2="1253.0" /><line stroke="#333" stroke-width="10" x1="2401.0" x2="2369.0" y1="1253.0" y2="1221.0" /><line stroke="#333" stroke-width="10" x1="2401.0" x2="2401.0" y1="1445.0" y2="1253.0" /><line stroke="#333" stroke-width="10" x1="2225.0" x2="2401.0" y1="1445.0" y2="1445.0" /><line stroke="#333" stroke-width="10" x1="2257.0" x2="2225.0" y1="1221.0" y2="1253.0" /><line stroke="#999" stroke-width="3" x1="2257.0" x2="2369.0" y1="1221.0" y2="1221.0" /><line stroke="#333" stroke-width="10" x1="2225.0" x2="2225.0" y1="1253.0" y2="1445.0" /><line stroke="#999" stroke-width="3" x1="2273.0" x2="2257.0" y1="1253.0" y2="1253.0" /><line stroke="#999" stroke-width="3" x1="2273.0" x2="2273.0" y1="1237.0" y2="1253.0" /><line stroke="#999" stroke-width="3" x1="2257.0" x2="2273.0" y1="1237.0" y2="1237.0" /><line stroke="#999" stroke-width="3" x1="2257.0" x2="2257.0" y1="1253.0" y2="1237.0" /><line stroke="#999" stroke-width="3" x1="2305.0" x2="2289.0" y1="1253.0" y2="1253.0" /><line stroke="#999" stroke-width="3" x1="2305.0" x2="2305.0" y1="1237.0" y2="1253.0" /><line stroke="#999" stroke-width="3" x1="2289.0" x2="2305.0" y1="1237.0" y2="1237.0" /><line stroke="#999" stroke-width="3" x1="2289.0" x2="2289.0" y1="1253.0" y2="1237.0" /><line stroke="#999" stroke-width="3" x1="2337.0" x2="2321.0" y1="1253.0" y2="1253.0" /><line stroke="#999" stroke-width="3" x1="2337.0" x2="2337.0" y1="1237.0" y2="1253.0" /><line stroke="#999" stroke-width="3" x1="2321.0" x2="2337.0" y1="1237.0" y2="1237.0" /><line stroke="#999" stroke-width="3" x1="2321.0" x2="2321.0" y1="1253.0" y2="1237.0" /><line stroke="#999" stroke-width="3" x1="2369.0" x2="2353.0" y1="1253.0" y2="1253.0" /><line stroke="#999" stroke-width="3" x1="2369.0" x2="2369.0" y1="1237.0" y2="1253.0" /><line stroke="#999" stroke-width="3" x1="2353.0" x2="2369.0" y1="1237.0" y2="1237.0" /><line stroke="#999" stroke-width="3" x1="2353.0" x2="2353.0" y1="1253.0" y2="1237.0" /><line stroke="#333" stroke-width="10" x1="2049.0" x2="2177.0" y1="1461.0" y2="1413.0" /><line stroke="#333" stroke-width="10" x1="2193.0" x2="2177.0" y1="1333.0" y2="1253.0" /><line stroke="#333" stroke-width="10" x1="1921.0" x2="2001.0" y1="1301.0" y2="1333.0" /><line stroke="#666" stroke-width="20" x1="2129.0" x2="2177.0" y1="1221.0" y2="1253.0" /><line stroke="#333" stroke-width="10" x1="2385.0" x2="2385.0" y1="1173.0" y2="1117.0" /><line stroke="#333" stroke-width="10" x1="2185.0" x2="2049.0" y1="1101.0" y2="1125.0" /><line stroke="#333" stroke-width="10" x1="2097.0" x2="2049.0" y1="1173.0" y2="1237.0" /><line stroke="#333" stroke-width="10" x1="1985.0" x2="1921.0" y1="1269.0" y2="1253.0" /><line stroke="#999" stroke-width="3" x1="2353.0" x2="2273.0" y1="1381.0" y2="1381.0" /><line stroke="#999" stroke-width="3" x1="2353.0" x2="2353.0" y1="1309.0" y2="1381.0" /><line stroke="#999" stroke-width="3" x1="2273.0" x2="2353.0" y1="1309.0" y2="1309.0" /><line stroke="#999" stroke-width="3" x1="2273.0" x2="2273.0" y1="1381.0" y2="1309.0" /><line stroke="#999" stroke-width="3" x1="2369.0" x2="2257.0" y1="1397.0" y2="1397.0" /><line stroke="#999" stroke-width="3" x1="2369.0" x2="2369.0" y1="1293.0" y2="1397.0" /><line stroke="#999" stroke-width="3" x1="2257.0" x2="2369.0" y1="1293.0" y2="1293.0" /><line stroke="#999" stroke-width="3" x1="2257.0" x2="2257.0" y1="1397.0" y2="1293.0" /><line stroke="#999" stroke-width="3" x1="2361.0" x2="2233.0" y1="1109.0" y2="1109.0" /><line stroke="#333" stroke-width="10" x1="2361.0" x2="2361.0" y1="1109.0" y2="1101.0" /><line stroke="#333" stroke-width="10" x1="2233.0" x2="2233.0" y1="1101.0" y2="1109.0" /><line stroke="#333" stroke-width="10" x1="2233.0" x2="2185.0" y1="1109.0" y2="1101.0" /><line stroke="#999" stroke-width="3" x1="2233.0" x2="2361.0" y1="1101.0" y2="1101.0" /><line stroke="#333" stroke-width="10" x1="2361.0" x2="2361.0" y1="1101.0" y2="1053.0" /><line stroke="#333" stroke-width="10" x1="2233.0" x2="2233.0" y1="1053.0" y2="1101.0" /><line stroke="#333" stroke-width="10" x1="1769.0" x2="1873.0" y1="965.0" y2="965.0" /><line stroke="#333" stroke-width="10" x1="1873.0" x2="2057.0" y1="965.0" y2="301.0" /><line stroke="#333" stroke-width="10" x1="1633.0" x2="1769.0" y1="301.0" y2="965.0" /><line stroke="#999" stroke-width="3" x1="2057.0" x2="1633.0" y1="301.0" y2="301.0" /><line stroke="#999" stroke-width="3" x1="1633.0" x2="2057.0" y1="149.0" y2="149.0" /><line stroke="#999" stroke-width="3" x1="2057.0" x2="2057.0" y1="149.0" y2="301.0" /><line stroke="#333" stroke-width="10" x1="2057.0" x2="1633.0" y1="5.0" y2="5.0" /><line stroke="#333" stroke-width="10" x1="1633.0" x2="1529.0" y1="5.0" y2="5.0" /><line stroke="#333" stroke-width="10" x1="2153.0" x2="2153.0" y1="301.0" y2="5.0" /><line stroke="#333" stroke-width="10" x1="1529.0" x2="1633.0" y1="301.0" y2="301.0" /><line stroke="#333" stroke-width="10" x1="2057.0" x2="2153.0" y1="301.0" y2="301.0" /><line stroke="#333" stroke-width="10" x1="1529.0" x2="1529.0" y1="5.0" y2="301.0" /><line stroke="#333" stroke-width="10" x1="2153.0" x2="2057.0" y1="5.0" y2="5.0" /><line stroke="#999" stroke-width="3" x1="1633.0" x2="1633.0" y1="301.0" y2="149.0" /><line stroke="#0d0" stroke-width="20" x1="1873.0" x2="1809.0" y1="77.0" y2="77.0" /><line stroke="#999" stroke-width="3" x1="1873.0" x2="1905.0" y1="77.0" y2="45.0" /><line stroke="#999" stroke-width="3" x1="1905.0" x2="1777.0" y1="45.0" y2="45.0" /><line stroke="#999" stroke-width="3" x1="1777.0" x2="1809.0" y1="45.0" y2="77.0" /><line stroke="#00d" stroke-width="20" x1="2113.0" x2="2049.0" y1="1397.0" y2="1397.0" /><line stroke="#00d" stroke-width="20" x1="2113.0" x2="2113.0" y1="1333.0" y2="1397.0" /><line stroke="#00d" stroke-width="20" x1="2049.0" x2="2113.0" y1="1333.0" y2="1333.0" /><line stroke="#00d" stroke-width="20" x1="2049.0" x2="2049.0" y1="1397.0" y2="1333.0" /><line stroke="#999" stroke-width="3" x1="2233.0" x2="2265.0" y1="1053.0" y2="1053.0" /><line stroke="#333" stroke-width="10" x1="2361.0" x2="2361.0" y1="1053.0" y2="1037.0" /><line stroke="#333" stroke-width="10" x1="2233.0" x2="2233.0" y1="1037.0" y2="1053.0" /><line stroke="#999" stroke-width="3" x1="2265.0" x2="2329.0" y1="1053.0" y2="1053.0" /><line stroke="#999" stroke-width="3" x1="2329.0" x2="2361.0" y1="1053.0" y2="1053.0" /><line stroke="#999" stroke-width="3" x1="2233.0" x2="2361.0" y1="1037.0" y2="1037.0" /><line stroke="#333" stroke-width="10" x1="2361.0" x2="2361.0" y1="1037.0" y2="917.0" /><line stroke="#333" stroke-width="10" x1="2361.0" x2="2233.0" y1="917.0" y2="917.0" /><line stroke="#333" stroke-width="10" x1="2233.0" x2="2233.0" y1="917.0" y2="1037.0" /><line stroke="#333" stroke-width="10" x1="385.0" x2="513.0" y1="1605.0" y2="1653.0" /><line stroke="#333" stroke-width="10" x1="641.0" x2="657.0" y1="1605.0" y2="1525.0" /><line stroke="#333" stroke-width="10" x1="385.0" x2="385.0" y1="1445.0" y2="1493.0" /><line stroke="#333" stroke-width="10" x1="465.0" x2="385.0" y1="1525.0" y2="1605.0" /><line stroke="#666" stroke-width="20" x1="513.0" x2="593.0" y1="1445.0" y2="1413.0" /><line stroke="#333" stroke-width="10" x1="833.0" x2="849.0" y1="1413.0" y2="1365.0" /><line stroke="#333" stroke-width="10" x1="849.0" x2="825.0" y1="1309.0" y2="1301.0" /><line stroke="#333" stroke-width="10" x1="513.0" x2="561.0" y1="1317.0" y2="1365.0" /><line stroke="#333" stroke-width="10" x1="513.0" x2="449.0" y1="1445.0" y2="1461.0" /><line stroke="#333" stroke-width="10" x1="641.0" x2="721.0" y1="1445.0" y2="1413.0" /><line stroke="#333" stroke-width="10" x1="513.0" x2="513.0" y1="1429.0" y2="1445.0" /><line stroke="#333" stroke-width="10" x1="865.0" x2="833.0" y1="1445.0" y2="1413.0" /><line stroke="#333" stroke-width="10" x1="865.0" x2="865.0" y1="1637.0" y2="1445.0" /><line stroke="#333" stroke-width="10" x1="689.0" x2="865.0" y1="1637.0" y2="1637.0" /><line stroke="#333" stroke-width="10" x1="721.0" x2="689.0" y1="1413.0" y2="1445.0" /><line stroke="#999" stroke-width="3" x1="721.0" x2="833.0" y1="1413.0" y2="1413.0" /><line stroke="#333" stroke-width="10" x1="689.0" x2="689.0" y1="1445.0" y2="1637.0" /><line stroke="#999" stroke-width="3" x1="737.0" x2="721.0" y1="1445.0" y2="1445.0" /><line stroke="#999" stroke-width="3" x1="737.0" x2="737.0" y1="1429.0" y2="1445.0" /><line stroke="#999" stroke-width="3" x1="721.0" x2="737.0" y1="1429.0" y2="1429.0" /><line stroke="#999" stroke-width="3" x1="721.0" x2="721.0" y1="1445.0" y2="1429.0" /><line stroke="#999" stroke-width="3" x1="769.0" x2="753.0" y1="1445.0" y2="1445.0" /><line stroke="#999" stroke-width="3" x1="769.0" x2="769.0" y1="1429.0" y2="1445.0" /><line stroke="#999" stroke-width="3" x1="753.0" x2="769.0" y1="1429.0" y2="1429.0" /><line stroke="#999" stroke-width="3" x1="753.0" x2="753.0" y1="1445.0" y2="1429.0" /><line stroke="#999" stroke-width="3" x1="801.0" x2="785.0" y1="1445.0" y2="1445.0" /><line stroke="#999" stroke-width="3" x1="801.0" x2="801.0" y1="1429.0" y2="1445.0" /><line stroke="#999" stroke-width="3" x1="785.0" x2="801.0" y1="1429.0" y2="1429.0" /><line stroke="#999" stroke-width="3" x1="785.0" x2="785.0" y1="1445.0" y2="1429.0" /><line stroke="#999" stroke-width="3" x1="833.0" x2="817.0" y1="1445.0" y2="1445.0" /><line stroke="#999" stroke-width="3" x1="833.0" x2="833.0" y1="1429.0" y2="1445.0" /><line stroke="#999" stroke-width="3" x1="817.0" x2="833.0" y1="1429.0" y2="1429.0" /><line stroke="#999" stroke-width="3" x1="817.0" x2="817.0" y1="1445.0" y2="1429.0" /><line stroke="#333" stroke-width="10" x1="513.0" x2="641.0" y1="1653.0" y2="1605.0" /><line stroke="#333" stroke-width="10" x1="657.0" x2="641.0" y1="1525.0" y2="1445.0" /><line stroke="#333" stroke-width="10" x1="385.0" x2="465.0" y1="1493.0" y2="1525.0" /><line stroke="#666" stroke-width="20" x1="593.0" x2="641.0" y1="1413.0" y2="1445.0" /><line stroke="#333" stroke-width="10" x1="849.0" x2="849.0" y1="1365.0" y2="1309.0" /><line stroke="#333" stroke-width="10" x1="649.0" x2="513.0" y1="1293.0" y2="1317.0" /><line stroke="#333" stroke-width="10" x1="561.0" x2="513.0" y1="1365.0" y2="1429.0" /><line stroke="#333" stroke-width="10" x1="449.0" x2="385.0" y1="1461.0" y2="1445.0" /><line stroke="#999" stroke-width="3" x1="817.0" x2="737.0" y1="1573.0" y2="1573.0" /><line stroke="#999" stroke-width="3" x1="817.0" x2="817.0" y1="1501.0" y2="1573.0" /><line stroke="#999" stroke-width="3" x1="737.0" x2="817.0" y1="1501.0" y2="1501.0" /><line stroke="#999" stroke-width="3" x1="737.0" x2="737.0" y1="1573.0" y2="1501.0" /><line stroke="#999" stroke-width="3" x1="833.0" x2="721.0" y1="1589.0" y2="1589.0" /><line stroke="#999" stroke-width="3" x1="833.0" x2="833.0" y1="1485.0" y2="1589.0" /><line stroke="#999" stroke-width="3" x1="721.0" x2="833.0" y1="1485.0" y2="1485.0" /><line stroke="#999" stroke-width="3" x1="721.0" x2="721.0" y1="1589.0" y2="1485.0" /><line stroke="#999" stroke-width="3" x1="825.0" x2="697.0" y1="1301.0" y2="1301.0" /><line stroke="#333" stroke-width="10" x1="825.0" x2="825.0" y1="1301.0" y2="1293.0" /><line stroke="#333" stroke-width="10" x1="697.0" x2="697.0" y1="1293.0" y2="1301.0" /><line stroke="#333" stroke-width="10" x1="697.0" x2="649.0" y1="1301.0" y2="1293.0" /><line stroke="#999" stroke-width="3" x1="697.0" x2="825.0" y1="1293.0" y2="1293.0" /><line stroke="#333" stroke-width="10" x1="825.0" x2="825.0" y1="1293.0" y2="1245.0" /><line stroke="#333" stroke-width="10" x1="697.0" x2="697.0" y1="1245.0" y2="1293.0" /><line stroke="#333" stroke-width="10" x1="245.0" x2="349.0" y1="1197.0" y2="1197.0" /><line stroke="#333" stroke-width="10" x1="349.0" x2="533.0" y1="1197.0" y2="533.0" /><line stroke="#333" stroke-width="10" x1="109.0" x2="245.0" y1="533.0" y2="1197.0" /><line stroke="#999" stroke-width="3" x1="533.0" x2="109.0" y1="533.0" y2="533.0" /><line stroke="#999" stroke-width="3" x1="109.0" x2="533.0" y1="381.0" y2="381.0" /><line stroke="#999" stroke-width="3" x1="533.0" x2="533.0" y1="381.0" y2="533.0" /><line stroke="#333" stroke-width="10" x1="533.0" x2="109.0" y1="237.0" y2="237.0" /><line stroke="#333" stroke-width="10" x1="109.0" x2="5.0" y1="237.0" y2="237.0" /><line stroke="#333" stroke-width="10" x1="629.0" x2="629.0" y1="533.0" y2="237.0" /><line stroke="#333" stroke-width="10" x1="5.0" x2="109.0" y1="533.0" y2="533.0" /><line stroke="#333" stroke-width="10" x1="533.0" x2="629.0" y1="533.0" y2="533.0" /><line stroke="#333" stroke-width="10" x1="5.0" x2="5.0" y1="237.0" y2="533.0" /><line stroke="#333" stroke-width="10" x1="629.0" x2="533.0" y1="237.0" y2="237.0" /><line stroke="#999" stroke-width="3" x1="109.0" x2="109.0" y1="533.0" y2="381.0" /><line stroke="#0d0" stroke-width="20" x1="349.0" x2="285.0" y1="309.0" y2="309.0" /><line stroke="#999" stroke-width="3" x1="349.0" x2="381.0" y1="309.0" y2="277.0" /><line stroke="#999" stroke-width="3" x1="381.0" x2="253.0" y1="277.0" y2="277.0" /><line stroke="#999" stroke-width="3" x1="253.0" x2="285.0" y1="277.0" y2="309.0" /><line stroke="#00d" stroke-width="20" x1="577.0" x2="513.0" y1="1589.0" y2="1589.0" /><line stroke="#00d" stroke-width="20" x1="577.0" x2="577.0" y1="1525.0" y2="1589.0" /><line stroke="#00d" stroke-width="20" x1="513.0" x2="577.0" y1="1525.0" y2="1525.0" /><line stroke="#00d" stroke-width="20" x1="513.0" x2="513.0" y1="1589.0" y2="1525.0" /><line stroke="#999" stroke-width="3" x1="697.0" x2="729.0" y1="1245.0" y2="1245.0" /><line stroke="#333" stroke-width="10" x1="825.0" x2="825.0" y1="1245.0" y2="1229.0" /><line stroke="#333" stroke-width="10" x1="697.0" x2="697.0" y1="1229.0" y2="1245.0" /><line stroke="#999" stroke-width="3" x1="729.0" x2="793.0" y1="1245.0" y2="1245.0" /><line stroke="#999" stroke-width="3" x1="793.0" x2="825.0" y1="1245.0" y2="1245.0" /><line stroke="#999" stroke-width="3" x1="697.0" x2="825.0" y1="1229.0" y2="1229.0" /><line stroke="#333" stroke-width="10" x1="825.0" x2="825.0" y1="1229.0" y2="1109.0" /><line stroke="#333" stroke-width="10" x1="825.0" x2="697.0" y1="1109.0" y2="1109.0" /><line stroke="#333" stroke-width="10" x1="697.0" x2="697.0" y1="1109.0" y2="1229.0" /><line stroke="#333" stroke-width="10" x1="961.0" x2="1089.0" y1="3781.0" y2="3829.0" /><line stroke="#333" stroke-width="10" x1="1217.0" x2="1233.0" y1="3781.0" y2="3701.0" /><line stroke="#333" stroke-width="10" x1="961.0" x2="961.0" y1="3621.0" y2="3669.0" /><line stroke="#333" stroke-width="10" x1="1041.0" x2="961.0" y1="3701.0" y2="3781.0" /><line stroke="#666" stroke-width="20" x1="1089.0" x2="1169.0" y1="3621.0" y2="3589.0" /><line stroke="#333" stroke-width="10" x1="1409.0" x2="1425.0" y1="3589.0" y2="3541.0" /><line stroke="#333" stroke-width="10" x1="1425.0" x2="1401.0" y1="3485.0" y2="3477.0" /><line stroke="#333" stroke-width="10" x1="1089.0" x2="1137.0" y1="3493.0" y2="3541.0" /><line stroke="#333" stroke-width="10" x1="1089.0" x2="1025.0" y1="3621.0" y2="3637.0" /><line stroke="#333" stroke-width="10" x1="1217.0" x2="1297.0" y1="3621.0" y2="3589.0" /><line stroke="#333" stroke-width="10" x1="1089.0" x2="1089.0" y1="3605.0" y2="3621.0" /><line stroke="#333" stroke-width="10" x1="1441.0" x2="1409.0" y1="3621.0" y2="3589.0" /><line stroke="#333" stroke-width="10" x1="1441.0" x2="1441.0" y1="3813.0" y2="3621.0" /><line stroke="#333" stroke-width="10" x1="1265.0" x2="1441.0" y1="3813.0" y2="3813.0" /><line stroke="#333" stroke-width="10" x1="1297.0" x2="1265.0" y1="3589.0" y2="3621.0" /><line stroke="#999" stroke-width="3" x1="1297.0" x2="1409.0" y1="3589.0" y2="3589.0" /><line stroke="#333" stroke-width="10" x1="1265.0" x2="1265.0" y1="3621.0" y2="3813.0" /><line stroke="#999" stroke-width="3" x1="1313.0" x2="1297.0" y1="3621.0" y2="3621.0" /><line stroke="#999" stroke-width="3" x1="1313.0" x2="1313.0" y1="3605.0" y2="3621.0" /><line stroke="#999" stroke-width="3" x1="1297.0" x2="1313.0" y1="3605.0" y2="3605.0" /><line stroke="#999" stroke-width="3" x1="1297.0" x2="1297.0" y1="3621.0" y2="3605.0" /><line stroke="#999" stroke-width="3" x1="1345.0" x2="1329.0" y1="3621.0" y2="3621.0" /><line stroke="#999" stroke-width="3" x1="1345.0" x2="1345.0" y1="3605.0" y2="3621.0" /><line stroke="#999" stroke-width="3" x1="1329.0" x2="1345.0" y1="3605.0" y2="3605.0" /><line stroke="#999" stroke-width="3" x1="1329.0" x2="1329.0" y1="3621.0" y2="3605.0" /><line stroke="#999" stroke-width="3" x1="1377.0" x2="1361.0" y1="3621.0" y2="3621.0" /><line stroke="#999" stroke-width="3" x1="1377.0" x2="1377.0" y1="3605.0" y2="3621.0" /><line stroke="#999" stroke-width="3" x1="1361.0" x2="1377.0" y1="3605.0" y2="3605.0" /><line stroke="#999" stroke-width="3" x1="1361.0" x2="1361.0" y1="3621.0" y2="3605.0" /><line stroke="#999" stroke-width="3" x1="1409.0" x2="1393.0" y1="3621.0" y2="3621.0" /><line stroke="#999" stroke-width="3" x1="1409.0" x2="1409.0" y1="3605.0" y2="3621.0" /><line stroke="#999" stroke-width="3" x1="1393.0" x2="1409.0" y1="3605.0" y2="3605.0" /><line stroke="#999" stroke-width="3" x1="1393.0" x2="1393.0" y1="3621.0" y2="3605.0" /><line stroke="#333" stroke-width="10" x1="1089.0" x2="1217.0" y1="3829.0" y2="3781.0" /><line stroke="#333" stroke-width="10" x1="1233.0" x2="1217.0" y1="3701.0" y2="3621.0" /><line stroke="#333" stroke-width="10" x1="961.0" x2="1041.0" y1="3669.0" y2="3701.0" /><line stroke="#666" stroke-width="20" x1="1169.0" x2="1217.0" y1="3589.0" y2="3621.0" /><line stroke="#333" stroke-width="10" x1="1425.0" x2="1425.0" y1="3541.0" y2="3485.0" /><line stroke="#333" stroke-width="10" x1="1225.0" x2="1089.0" y1="3469.0" y2="3493.0" /><line stroke="#333" stroke-width="10" x1="1137.0" x2="1089.0" y1="3541.0" y2="3605.0" /><line stroke="#333" stroke-width="10" x1="1025.0" x2="961.0" y1="3637.0" y2="3621.0" /><line stroke="#999" stroke-width="3" x1="1393.0" x2="1313.0" y1="3749.0" y2="3749.0" /><line stroke="#999" stroke-width="3" x1="1393.0" x2="1393.0" y1="3677.0" y2="3749.0" /><line stroke="#999" stroke-width="3" x1="1313.0" x2="1393.0" y1="3677.0" y2="3677.0" /><line stroke="#999" stroke-width="3" x1="1313.0" x2="1313.0" y1="3749.0" y2="3677.0" /><line stroke="#999" stroke-width="3" x1="1409.0" x2="1297.0" y1="3765.0" y2="3765.0" /><line stroke="#999" stroke-width="3" x1="1409.0" x2="1409.0" y1="3661.0" y2="3765.0" /><line stroke="#999" stroke-width="3" x1="1297.0" x2="1409.0" y1="3661.0" y2="3661.0" /><line stroke="#999" stroke-width="3" x1="1297.0" x2="1297.0" y1="3765.0" y2="3661.0" /><line stroke="#999" stroke-width="3" x1="1401.0" x2="1273.0" y1="3477.0" y2="3477.0" /><line stroke="#333" stroke-width="10" x1="1401.0" x2="1401.0" y1="3477.0" y2="3469.0" /><line stroke="#333" stroke-width="10" x1="1273.0" x2="1273.0" y1="3469.0" y2="3477.0" /><line stroke="#333" stroke-width="10" x1="1273.0" x2="1225.0" y1="3477.0" y2="3469.0" /><line stroke="#999" stroke-width="3" x1="1273.0" x2="1401.0" y1="3469.0" y2="3469.0" /><line stroke="#333" stroke-width="10" x1="1401.0" x2="1401.0" y1="3469.0" y2="3421.0" /><line stroke="#333" stroke-width="10" x1="1273.0" x2="1273.0" y1="3421.0" y2="3469.0" /><line stroke="#333" stroke-width="10" x1="829.0" x2="933.0" y1="3349.0" y2="3349.0" /><line stroke="#333" stroke-width="10" x1="933.0" x2="1117.0" y1="3349.0" y2="2685.0" /><line stroke="#333" stroke-width="10" x1="693.0" x2="829.0" y1="2685.0" y2="3349.0" /><line stroke="#999" stroke-width="3" x1="1117.0" x2="693.0" y1="2685.0" y2="2685.0" /><line stroke="#999" stroke-width="3" x1="693.0" x2="1117.0" y1="2533.0" y2="2533.0" /><line stroke="#999" stroke-width="3" x1="1117.0" x2="1117.0" y1="2533.0" y2="2685.0" /><line stroke="#333" stroke-width="10" x1="1117.0" x2="693.0" y1="2389.0" y2="2389.0" /><line stroke="#333" stroke-width="10" x1="693.0" x2="589.0" y1="2389.0" y2="2389.0" /><line stroke="#333" stroke-width="10" x1="1213.0" x2="1213.0" y1="2685.0" y2="2389.0" /><line stroke="#333" stroke-width="10" x1="589.0" x2="693.0" y1="2685.0" y2="2685.0" /><line stroke="#333" stroke-width="10" x1="1117.0" x2="1213.0" y1="2685.0" y2="2685.0" /><line stroke="#333" stroke-width="10" x1="589.0" x2="589.0" y1="2389.0" y2="2685.0" /><line stroke="#333" stroke-width="10" x1="1213.0" x2="1117.0" y1="2389.0" y2="2389.0" /><line stroke="#999" stroke-width="3" x1="693.0" x2="693.0" y1="2685.0" y2="2533.0" /><line stroke="#0d0" stroke-width="20" x1="933.0" x2="869.0" y1="2461.0" y2="2461.0" /><line stroke="#999" stroke-width="3" x1="933.0" x2="965.0" y1="2461.0" y2="2429.0" /><line stroke="#999" stroke-width="3" x1="965.0" x2="837.0" y1="2429.0" y2="2429.0" /><line stroke="#999" stroke-width="3" x1="837.0" x2="869.0" y1="2429.0" y2="2461.0" /><line stroke="#00d" stroke-width="20" x1="1153.0" x2="1089.0" y1="3765.0" y2="3765.0" /><line stroke="#00d" stroke-width="20" x1="1153.0" x2="1153.0" y1="3701.0" y2="3765.0" /><line stroke="#00d" stroke-width="20" x1="1089.0" x2="1153.0" y1="3701.0" y2="3701.0" /><line stroke="#00d" stroke-width="20" x1="1089.0" x2="1089.0" y1="3765.0" y2="3701.0" /><line stroke="#999" stroke-width="3" x1="1273.0" x2="1305.0" y1="3421.0" y2="3421.0" /><line stroke="#333" stroke-width="10" x1="1401.0" x2="1401.0" y1="3421.0" y2="3405.0" /><line stroke="#333" stroke-width="10" x1="1273.0" x2="1273.0" y1="3405.0" y2="3421.0" /><line stroke="#999" stroke-width="3" x1="1305.0" x2="1369.0" y1="3421.0" y2="3421.0" /><line stroke="#999" stroke-width="3" x1="1369.0" x2="1401.0" y1="3421.0" y2="3421.0" /><line stroke="#999" stroke-width="3" x1="1273.0" x2="1401.0" y1="3405.0" y2="3405.0" /><line stroke="#333" stroke-width="10" x1="1401.0" x2="1401.0" y1="3405.0" y2="3285.0" /><line stroke="#333" stroke-width="10" x1="1401.0" x2="1273.0" y1="3285.0" y2="3285.0" /><line stroke="#333" stroke-width="10" x1="1273.0" x2="1273.0" y1="3285.0" y2="3405.0" /><line stroke="#333" stroke-width="10" x1="2497.0" x2="2625.0" y1="3589.0" y2="3637.0" /><line stroke="#333" stroke-width="10" x1="2753.0" x2="2769.0" y1="3589.0" y2="3509.0" /><line stroke="#333" stroke-width="10" x1="2497.0" x2="2497.0" y1="3429.0" y2="3477.0" /><line stroke="#333" stroke-width="10" x1="2577.0" x2="2497.0" y1="3509.0" y2="3589.0" /><line stroke="#666" stroke-width="20" x1="2625.0" x2="2705.0" y1="3429.0" y2="3397.0" /><line stroke="#333" stroke-width="10" x1="2945.0" x2="2961.0" y1="3397.0" y2="3349.0" /><line stroke="#333" stroke-width="10" x1="2961.0" x2="2937.0" y1="3293.0" y2="3285.0" /><line stroke="#333" stroke-width="10" x1="2625.0" x2="2673.0" y1="3301.0" y2="3349.0" /><line stroke="#333" stroke-width="10" x1="2625.0" x2="2561.0" y1="3429.0" y2="3445.0" /><line stroke="#333" stroke-width="10" x1="2753.0" x2="2833.0" y1="3429.0" y2="3397.0" /><line stroke="#333" stroke-width="10" x1="2625.0" x2="2625.0" y1="3413.0" y2="3429.0" /><line stroke="#333" stroke-width="10" x1="2977.0" x2="2945.0" y1="3429.0" y2="3397.0" /><line stroke="#333" stroke-width="10" x1="2977.0" x2="2977.0" y1="3621.0" y2="3429.0" /><line stroke="#333" stroke-width="10" x1="2801.0" x2="2977.0" y1="3621.0" y2="3621.0" /><line stroke="#333" stroke-width="10" x1="2833.0" x2="2801.0" y1="3397.0" y2="3429.0" /><line stroke="#999" stroke-width="3" x1="2833.0" x2="2945.0" y1="3397.0" y2="3397.0" /><line stroke="#333" stroke-width="10" x1="2801.0" x2="2801.0" y1="3429.0" y2="3621.0" /><line stroke="#999" stroke-width="3" x1="2849.0" x2="2833.0" y1="3429.0" y2="3429.0" /><line stroke="#999" stroke-width="3" x1="2849.0" x2="2849.0" y1="3413.0" y2="3429.0" /><line stroke="#999" stroke-width="3" x1="2833.0" x2="2849.0" y1="3413.0" y2="3413.0" /><line stroke="#999" stroke-width="3" x1="2833.0" x2="2833.0" y1="3429.0" y2="3413.0" /><line stroke="#999" stroke-width="3" x1="2881.0" x2="2865.0" y1="3429.0" y2="3429.0" /><line stroke="#999" stroke-width="3" x1="2881.0" x2="2881.0" y1="3413.0" y2="3429.0" /><line stroke="#999" stroke-width="3" x1="2865.0" x2="2881.0" y1="3413.0" y2="3413.0" /><line stroke="#999" stroke-width="3" x1="2865.0" x2="2865.0" y1="3429.0" y2="3413.0" /><line stroke="#999" stroke-width="3" x1="2913.0" x2="2897.0" y1="3429.0" y2="3429.0" /><line stroke="#999" stroke-width="3" x1="2913.0" x2="2913.0" y1="3413.0" y2="3429.0" /><line stroke="#999" stroke-width="3" x1="2897.0" x2="2913.0" y1="3413.0" y2="3413.0" /><line stroke="#999" stroke-width="3" x1="2897.0" x2="2897.0" y1="3429.0" y2="3413.0" /><line stroke="#999" stroke-width="3" x1="2945.0" x2="2929.0" y1="3429.0" y2="3429.0" /><line stroke="#999" stroke-width="3" x1="2945.0" x2="2945.0" y1="3413.0" y2="3429.0" /><line stroke="#999" stroke-width="3" x1="2929.0" x2="2945.0" y1="3413.0" y2="3413.0" /><line stroke="#999" stroke-width="3" x1="2929.0" x2="2929.0" y1="3429.0" y2="3413.0" /><line stroke="#333" stroke-width="10" x1="2625.0" x2="2753.0" y1="3637.0" y2="3589.0" /><line stroke="#333" stroke-width="10" x1="2769.0" x2="2753.0" y1="3509.0" y2="3429.0" /><line stroke="#333" stroke-width="10" x1="2497.0" x2="2577.0" y1="3477.0" y2="3509.0" /><line stroke="#666" stroke-width="20" x1="2705.0" x2="2753.0" y1="3397.0" y2="3429.0" /><line stroke="#333" stroke-width="10" x1="2961.0" x2="2961.0" y1="3349.0" y2="3293.0" /><line stroke="#333" stroke-width="10" x1="2761.0" x2="2625.0" y1="3277.0" y2="3301.0" /><line stroke="#333" stroke-width="10" x1="2673.0" x2="2625.0" y1="3349.0" y2="3413.0" /><line stroke="#333" stroke-width="10" x1="2561.0" x2="2497.0" y1="3445.0" y2="3429.0" /><line stroke="#999" stroke-width="3" x1="2929.0" x2="2849.0" y1="3557.0" y2="3557.0" /><line stroke="#999" stroke-width="3" x1="2929.0" x2="2929.0" y1="3485.0" y2="3557.0" /><line stroke="#999" stroke-width="3" x1="2849.0" x2="2929.0" y1="3485.0" y2="3485.0" /><line stroke="#999" stroke-width="3" x1="2849.0" x2="2849.0" y1="3557.0" y2="3485.0" /><line stroke="#999" stroke-width="3" x1="2945.0" x2="2833.0" y1="3573.0" y2="3573.0" /><line stroke="#999" stroke-width="3" x1="2945.0" x2="2945.0" y1="3469.0" y2="3573.0" /><line stroke="#999" stroke-width="3" x1="2833.0" x2="2945.0" y1="3469.0" y2="3469.0" /><line stroke="#999" stroke-width="3" x1="2833.0" x2="2833.0" y1="3573.0" y2="3469.0" /><line stroke="#999" stroke-width="3" x1="2937.0" x2="2809.0" y1="3285.0" y2="3285.0" /><line stroke="#333" stroke-width="10" x1="2937.0" x2="2937.0" y1="3285.0" y2="3277.0" /><line stroke="#333" stroke-width="10" x1="2809.0" x2="2809.0" y1="3277.0" y2="3285.0" /><line stroke="#333" stroke-width="10" x1="2809.0" x2="2761.0" y1="3285.0" y2="3277.0" /><line stroke="#999" stroke-width="3" x1="2809.0" x2="2937.0" y1="3277.0" y2="3277.0" /><line stroke="#333" stroke-width="10" x1="2937.0" x2="2937.0" y1="3277.0" y2="3229.0" /><line stroke="#333" stroke-width="10" x1="2809.0" x2="2809.0" y1="3229.0" y2="3277.0" /><line stroke="#333" stroke-width="10" x1="2365.0" x2="2469.0" y1="3141.0" y2="3141.0" /><line stroke="#333" stroke-width="10" x1="2469.0" x2="2653.0" y1="3141.0" y2="2477.0" /><line stroke="#333" stroke-width="10" x1="2229.0" x2="2365.0" y1="2477.0" y2="3141.0" /><line stroke="#999" stroke-width="3" x1="2653.0" x2="2229.0" y1="2477.0" y2="2477.0" /><line stroke="#999" stroke-width="3" x1="2229.0" x2="2653.0" y1="2325.0" y2="2325.0" /><line stroke="#999" stroke-width="3" x1="2653.0" x2="2653.0" y1="2325.0" y2="2477.0" /><line stroke="#333" stroke-width="10" x1="2653.0" x2="2229.0" y1="2181.0" y2="2181.0" /><line stroke="#333" stroke-width="10" x1="2229.0" x2="2125.0" y1="2181.0" y2="2181.0" /><line stroke="#333" stroke-width="10" x1="2749.0" x2="2749.0" y1="2477.0" y2="2181.0" /><line stroke="#333" stroke-width="10" x1="2125.0" x2="2229.0" y1="2477.0" y2="2477.0" /><line stroke="#333" stroke-width="10" x1="2653.0" x2="2749.0" y1="2477.0" y2="2477.0" /><line stroke="#333" stroke-width="10" x1="2125.0" x2="2125.0" y1="2181.0" y2="2477.0" /><line stroke="#333" stroke-width="10" x1="2749.0" x2="2653.0" y1="2181.0" y2="2181.0" /><line stroke="#999" stroke-width="3" x1="2229.0" x2="2229.0" y1="2477.0" y2="2325.0" /><line stroke="#0d0" stroke-width="20" x1="2469.0" x2="2405.0" y1="2253.0" y2="2253.0" /><line stroke="#999" stroke-width="3" x1="2469.0" x2="2501.0" y1="2253.0" y2="2221.0" /><line stroke="#999" stroke-width="3" x1="2501.0" x2="2373.0" y1="2221.0" y2="2221.0" /><line stroke="#999" stroke-width="3" x1="2373.0" x2="2405.0" y1="2221.0" y2="2253.0" /><line stroke="#00d" stroke-width="20" x1="2689.0" x2="2625.0" y1="3573.0" y2="3573.0" /><line stroke="#00d" stroke-width="20" x1="2689.0" x2="2689.0" y1="3509.0" y2="3573.0" /><line stroke="#00d" stroke-width="20" x1="2625.0" x2="2689.0" y1="3509.0" y2="3509.0" /><line stroke="#00d" stroke-width="20" x1="2625.0" x2="2625.0" y1="3573.0" y2="3509.0" /><line stroke="#999" stroke-width="3" x1="2809.0" x2="2841.0" y1="3229.0" y2="3229.0" /><line stroke="#333" stroke-width="10" x1="2937.0" x2="2937.0" y1="3229.0" y2="3213.0" /><line stroke="#333" stroke-width="10" x1="2809.0" x2="2809.0" y1="3213.0" y2="3229.0" /><line stroke="#999" stroke-width="3" x1="2841.0" x2="2905.0" y1="3229.0" y2="3229.0" /><line stroke="#999" stroke-width="3" x1="2905.0" x2="2937.0" y1="3229.0" y2="3229.0" /><line stroke="#999" stroke-width="3" x1="2809.0" x2="2937.0" y1="3213.0" y2="3213.0" /><line stroke="#333" stroke-width="10" x1="2937.0" x2="2937.0" y1="3213.0" y2="3093.0" /><line stroke="#333" stroke-width="10" x1="2937.0" x2="2809.0" y1="3093.0" y2="3093.0" /><line stroke="#333" stroke-width="10" x1="2809.0" x2="2809.0" y1="3093.0" y2="3213.0" /><rect fill="#090" height="24" stroke="#090" stroke-width="5" transform="rotate(0,1585.0,245.0)" width="24" x="1573.0" y="233.0" /><rect fill="#090" height="24" stroke="#090" stroke-width="5" transform="rotate(0,2113.0,245.0)" width="24" x="2101.0" y="233.0" /><ellipse cx="2313.0" cy="1341.0" fill="#009" rx="12" ry="24" stroke="#009" stroke-width="5" /><ellipse cx="777.0" cy="1541.0" fill="#009" rx="12" ry="24" stroke="#009" stroke-width="5" /><ellipse cx="1345.0" cy="3717.0" fill="#009" rx="12" ry="24" stroke="#009" stroke-width="5" /><ellipse cx="2881.0" cy="3525.0" fill="#009" rx="12" ry="24" stroke="#009" stroke-width="5" /><rect fill="#090" height="24" stroke="#090" stroke-width="5" transform="rotate(270,2313.0,1413.0)" width="24" x="2301.0" y="1401.0" /><rect fill="#009" height="24" stroke="#009" stroke-width="5" transform="rotate(270,1825.0,885.0)" width="24" x="1813.0" y="873.0" /><rect fill="#900" height="48" stroke="#900" stroke-width="5" transform="rotate(90,1841.0,205.0)" width="32" x="1825.0" y="181.0" /><circle cx="1809.0" cy="693.0" fill="#090" r="16" stroke="#090" stroke-width="5" /><circle cx="1825.0" cy="525.0" fill="#090" r="16" stroke="#090" stroke-width="5" /><circle cx="2185.0" cy="1149.0" fill="#900" r="16" stroke="#900" stroke-width="5" /><circle cx="2289.0" cy="981.0" fill="#009" r="16" stroke="#009" stroke-width="5" /><rect fill="#090" height="24" stroke="#090" stroke-width="5" transform="rotate(0,1329.0,3773.0)" width="24" x="1317.0" y="3761.0" /><rect fill="#090" height="24" stroke="#090" stroke-width="5" transform="rotate(0,753.0,1597.0)" width="24" x="741.0" y="1585.0" /><rect fill="#090" height="24" stroke="#090" stroke-width="5" transform="rotate(0,2849.0,3589.0)" width="24" x="2837.0" y="3577.0" /><rect fill="#009" height="24" stroke="#009" stroke-width="5" transform="rotate(270,297.0,1101.0)" width="24" x="285.0" y="1089.0" /><rect fill="#009" height="24" stroke="#009" stroke-width="5" transform="rotate(270,889.0,3261.0)" width="24" x="877.0" y="3249.0" /><rect fill="#009" height="24" stroke="#009" stroke-width="5" transform="rotate(270,2417.0,3013.0)" width="24" x="2405.0" y="3001.0" /><circle cx="281.0" cy="917.0" fill="#090" r="16" stroke="#090" stroke-width="5" /><circle cx="337.0" cy="717.0" fill="#090" r="16" stroke="#090" stroke-width="5" /><circle cx="2409.0" cy="2797.0" fill="#090" r="16" stroke="#090" stroke-width="5" /><circle cx="2441.0" cy="2621.0" fill="#090" r="16" stroke="#090" stroke-width="5" /><circle cx="873.0" cy="3029.0" fill="#090" r="16" stroke="#090" stroke-width="5" /><circle cx="921.0" cy="2869.0" fill="#090" r="16" stroke="#090" stroke-width="5" /><circle cx="665.0" cy="1381.0" fill="#900" r="16" stroke="#900" stroke-width="5" /><circle cx="1217.0" cy="3549.0" fill="#900" r="16" stroke="#900" stroke-width="5" /><circle cx="2769.0" cy="3341.0" fill="#900" r="16" stroke="#900" stroke-width="5" /><rect fill="#900" height="48" stroke="#900" stroke-width="5" transform="rotate(90,297.0,437.0)" width="32" x="281.0" y="413.0" /><rect fill="#900" height="48" stroke="#900" stroke-width="5" transform="rotate(90,2433.0,2389.0)" width="32" x="2417.0" y="2365.0" /><rect fill="#900" height="48" stroke="#900" stroke-width="5" transform="rotate(90,881.0,2613.0)" width="32" x="865.0" y="2589.0" /><rect fill="#090" height="24" stroke="#090" stroke-width="5" transform="rotate(0,49.0,469.0)" width="24" x="37.0" y="457.0" /><rect fill="#090" height="24" stroke="#090" stroke-width="5" transform="rotate(0,569.0,469.0)" width="24" x="557.0" y="457.0" /><rect fill="#090" height="24" stroke="#090" stroke-width="5" transform="rotate(0,649.0,2621.0)" width="24" x="637.0" y="2609.0" /><rect fill="#090" height="24" stroke="#090" stroke-width="5" transform="rotate(0,1161.0,2621.0)" width="24" x="1149.0" y="2609.0" /><rect fill="#090" height="24" stroke="#090" stroke-width="5" transform="rotate(0,2177.0,2421.0)" width="24" x="2165.0" y="2409.0" /><rect fill="#090" height="24" stroke="#090" stroke-width="5" transform="rotate(0,2697.0,2413.0)" width="24" x="2685.0" y="2401.0" /><circle cx="761.0" cy="1173.0" fill="#009" r="16" stroke="#009" stroke-width="5" /><circle cx="1329.0" cy="3349.0" fill="#009" r="16" stroke="#009" stroke-width="5" /><circle cx="2865.0" cy="3157.0" fill="#009" r="16" stroke="#009" stroke-width="5" /></svg>