<?xml version="1.0" encoding="utf-8" ?>
<svg baseProfile="tiny" height="1024" version="1.2" viewBox="0 0 8202 8778" width="956" xmlns="http://www.w3.org/2000/svg" xmlns:ev="http://www.w3.org/2001/xml-events" xmlns:xlink="http://www.w3.org/1999/xlink"><defs /><line stroke="#333" stroke-width="10" x1="5.0" x2="4101.0" y1="8197.0" y2="8197.0" /><line stroke="#333" stroke-width="10" x1="8197.0" x2="8197.0" y1="8197.0" y2="4101.0" /><line stroke="#333" stroke-width="10" x1="8197.0" x2="4101.0" y1="5.0" y2="5.0" /><line stroke="#333" stroke-width="10" x1="5.0" x2="5.0" y1="5.0" y2="4101.0" /><line stroke="#333" stroke-width="10" x1="5189.0" x2="5189.0" y1="6725.0" y2="6341.0" /><line stroke="#333" stroke-width="10" x1="4805.0" x2="4805.0" y1="6341.0" y2="6501.0" /><line stroke="#333" stroke-width="10" x1="4101.0" x2="8197.0" y1="8197.0" y2="8197.0" /><line stroke="#333" stroke-width="10" x1="8197.0" x2="8197.0" y1="4101.0" y2="5.0" /><line stroke="#333" stroke-width="10" x1="4101.0" x2="5.0" y1="5.0" y2="5.0" /><line stroke="#333" stroke-width="10" x1="5.0" x2="5.0" y1="4101.0" y2="8197.0" /><line stroke="#333" stroke-width="10" x1="5189.0" x2="4805.0" y1="6341.0" y2="6341.0" /><line stroke="#333" stroke-width="10" x1="5253.0" x2="4741.0" y1="6789.0" y2="6789.0" /><line stroke="#333" stroke-width="10" x1="4741.0" x2="4741.0" y1="6501.0" y2="6277.0" /><line stroke="#333" stroke-width="10" x1="4741.0" x2="5253.0" y1="6277.0" y2="6277.0" /><line stroke="#333" stroke-width="10" x1="4741.0" x2="4765.0" y1="6565.0" y2="6565.0" /><line stroke="#999" stroke-width="3" x1="4805.0" x2="4805.0" y1="6501.0" y2="6565.0" /><line stroke="#333" stroke-width="10" x1="4805.0" x2="4781.0" y1="6501.0" y2="6501.0" /><line stroke="#333" stroke-width="10" x1="4741.0" x2="4741.0" y1="6789.0" y2="6565.0" /><line stroke="#333" stroke-width="10" x1="4805.0" x2="4805.0" y1="6565.0" y2="6725.0" /><line stroke="#999" stroke-width="3" x1="4741.0" x2="4741.0" y1="6565.0" y2="6501.0" /><line stroke="#666" stroke-width="20" x1="4781.0" x2="4781.0" y1="6501.0" y2="6565.0" /><line stroke="#666" stroke-width="20" x1="4765.0" x2="4765.0" y1="6565.0" y2="6501.0" /><line stroke="#333" stroke-width="10" x1="4781.0" x2="4805.0" y1="6565.0" y2="6565.0" /><line stroke="#333" stroke-width="10" x1="4765.0" x2="4781.0" y1="6565.0" y2="6565.0" /><line stroke="#333" stroke-width="10" x1="4781.0" x2="4765.0" y1="6501.0" y2="6501.0" /><line stroke="#333" stroke-width="10" x1="4765.0" x2="4741.0" y1="6501.0" y2="6501.0" /><line stroke="#999" stroke-width="3" x1="4965.0" x2="5029.0" y1="6565.0" y2="6565.0" /><line stroke="#999" stroke-width="3" x1="5029.0" x2="5029.0" y1="6501.0" y2="6565.0" /><line stroke="#999" stroke-width="3" x1="4965.0" x2="5029.0" y1="6501.0" y2="6501.0" /><line stroke="#999" stroke-width="3" x1="4965.0" x2="4965.0" y1="6565.0" y2="6501.0" /><line stroke="#333" stroke-width="10" x1="4805.0" x2="4869.0" y1="6725.0" y2="6725.0" /><line stroke="#333" stroke-width="10" x1="4549.0" x2="4549.0" y1="8709.0" y2="8773.0" /><line stroke="#333" stroke-width="10" x1="4613.0" x2="4677.0" y1="8773.0" y2="8773.0" /><line stroke="#333" stroke-width="10" x1="4677.0" x2="4677.0" y1="8773.0" y2="8709.0" /><line stroke="#333" stroke-width="10" x1="4677.0" x2="4613.0" y1="8709.0" y2="8709.0" /><line stroke="#333" stroke-width="10" x1="4613.0" x2="4549.0" y1="8709.0" y2="8709.0" /><line stroke="#333" stroke-width="10" x1="4549.0" x2="4613.0" y1="8773.0" y2="8773.0" /><line stroke="#999" stroke-width="3" x1="4613.0" x2="4613.0" y1="8773.0" y2="8709.0" /><line stroke="#333" stroke-width="10" x1="5253.0" x2="5253.0" y1="6277.0" y2="6789.0" /><line stroke="#999" stroke-width="3" x1="4485.0" x2="5381.0" y1="7045.0" y2="7045.0" /><line stroke="#999" stroke-width="3" x1="7493.0" x2="7493.0" y1="8005.0" y2="6853.0" /><line stroke="#999" stroke-width="3" x1="5317.0" x2="5317.0" y1="6213.0" y2="6853.0" /><line stroke="#999" stroke-width="3" x1="5317.0" x2="4677.0" y1="6853.0" y2="6853.0" /><line stroke="#999" stroke-width="3" x1="4485.0" x2="4485.0" y1="6021.0" y2="6493.0" /><line stroke="#999" stroke-width="3" x1="5509.0" x2="4485.0" y1="6021.0" y2="6021.0" /><line stroke="#999" stroke-width="3" x1="4677.0" x2="4677.0" y1="6853.0" y2="6213.0" /><line stroke="#999" stroke-width="3" x1="4677.0" x2="5317.0" y1="6213.0" y2="6213.0" /><line stroke="#999" stroke-width="3" x1="6341.0" x2="6085.0" y1="6661.0" y2="6661.0" /><line stroke="#999" stroke-width="3" x1="6341.0" x2="6341.0" y1="6565.0" y2="6661.0" /><line stroke="#999" stroke-width="3" x1="6085.0" x2="6341.0" y1="6405.0" y2="6405.0" /><line stroke="#999" stroke-width="3" x1="6085.0" x2="6085.0" y1="6661.0" y2="6405.0" /><line stroke="#999" stroke-width="3" x1="6149.0" x2="6277.0" y1="6597.0" y2="6597.0" /><line stroke="#999" stroke-width="3" x1="6277.0" x2="6277.0" y1="6597.0" y2="6565.0" /><line stroke="#999" stroke-width="3" x1="6277.0" x2="6149.0" y1="6469.0" y2="6469.0" /><line stroke="#999" stroke-width="3" x1="6149.0" x2="6149.0" y1="6469.0" y2="6597.0" /><line stroke="#999" stroke-width="3" x1="6341.0" x2="6341.0" y1="6565.0" y2="6501.0" /><line stroke="#999" stroke-width="3" x1="6341.0" x2="6341.0" y1="6405.0" y2="6501.0" /><line stroke="#999" stroke-width="3" x1="6277.0" x2="6277.0" y1="6565.0" y2="6501.0" /><line stroke="#999" stroke-width="3" x1="6277.0" x2="6277.0" y1="6501.0" y2="6469.0" /><line stroke="#999" stroke-width="3" x1="6317.0" x2="6341.0" y1="6565.0" y2="6565.0" /><line stroke="#999" stroke-width="3" x1="6341.0" x2="6317.0" y1="6501.0" y2="6501.0" /><line stroke="#666" stroke-width="20" x1="6317.0" x2="6317.0" y1="6501.0" y2="6565.0" /><line stroke="#999" stroke-width="3" x1="6277.0" x2="6301.0" y1="6565.0" y2="6565.0" /><line stroke="#666" stroke-width="20" x1="6301.0" x2="6301.0" y1="6565.0" y2="6501.0" /><line stroke="#999" stroke-width="3" x1="6301.0" x2="6277.0" y1="6501.0" y2="6501.0" /><line stroke="#999" stroke-width="3" x1="6301.0" x2="6317.0" y1="6565.0" y2="6565.0" /><line stroke="#999" stroke-width="3" x1="6317.0" x2="6301.0" y1="6501.0" y2="6501.0" /><line stroke="#333" stroke-width="10" x1="6229.0" x2="6165.0" y1="6589.0" y2="6589.0" /><line stroke="#333" stroke-width="10" x1="6229.0" x2="6229.0" y1="6525.0" y2="6589.0" /><line stroke="#333" stroke-width="10" x1="6165.0" x2="6229.0" y1="6525.0" y2="6525.0" /><line stroke="#333" stroke-width="10" x1="6165.0" x2="6165.0" y1="6589.0" y2="6525.0" /><line stroke="#999" stroke-width="3" x1="6021.0" x2="6021.0" y1="6725.0" y2="6341.0" /><line stroke="#999" stroke-width="3" x1="6469.0" x2="5957.0" y1="6277.0" y2="6277.0" /><line stroke="#999" stroke-width="3" x1="5701.0" x2="5957.0" y1="6565.0" y2="6565.0" /><line stroke="#999" stroke-width="3" x1="5509.0" x2="5509.0" y1="6501.0" y2="6021.0" /><line stroke="#999" stroke-width="3" x1="5957.0" x2="5957.0" y1="6277.0" y2="6501.0" /><line stroke="#999" stroke-width="3" x1="5957.0" x2="5509.0" y1="6501.0" y2="6501.0" /><line stroke="#999" stroke-width="3" x1="6469.0" x2="6469.0" y1="6789.0" y2="6565.0" /><line stroke="#999" stroke-width="3" x1="6021.0" x2="6405.0" y1="6341.0" y2="6341.0" /><line stroke="#999" stroke-width="3" x1="5957.0" x2="6181.0" y1="6789.0" y2="6789.0" /><line stroke="#999" stroke-width="3" x1="6405.0" x2="6405.0" y1="6341.0" y2="6725.0" /><line stroke="#999" stroke-width="3" x1="5957.0" x2="5957.0" y1="6565.0" y2="6789.0" /><line stroke="#999" stroke-width="3" x1="6405.0" x2="6021.0" y1="6725.0" y2="6725.0" /><line stroke="#999" stroke-width="3" x1="3799.0" x2="3822.0" y1="6679.0" y2="6646.0" /><line stroke="#999" stroke-width="3" x1="3776.0" x2="3799.0" y1="6646.0" y2="6679.0" /><line stroke="#999" stroke-width="3" x1="3743.0" x2="3776.0" y1="6623.0" y2="6646.0" /><line stroke="#999" stroke-width="3" x1="3776.0" x2="3743.0" y1="6600.0" y2="6623.0" /><line stroke="#999" stroke-width="3" x1="3799.0" x2="3776.0" y1="6567.0" y2="6600.0" /><line stroke="#999" stroke-width="3" x1="3822.0" x2="3799.0" y1="6600.0" y2="6567.0" /><line stroke="#999" stroke-width="3" x1="3855.0" x2="3822.0" y1="6623.0" y2="6600.0" /><line stroke="#999" stroke-width="3" x1="3822.0" x2="3855.0" y1="6646.0" y2="6623.0" /><line stroke="#999" stroke-width="3" x1="3706.0" x2="3667.0" y1="6716.0" y2="6623.0" /><line stroke="#999" stroke-width="3" x1="3799.0" x2="3706.0" y1="6755.0" y2="6716.0" /><line stroke="#999" stroke-width="3" x1="3892.0" x2="3799.0" y1="6716.0" y2="6755.0" /><line stroke="#999" stroke-width="3" x1="3931.0" x2="3892.0" y1="6623.0" y2="6716.0" /><line stroke="#999" stroke-width="3" x1="3892.0" x2="3931.0" y1="6530.0" y2="6623.0" /><line stroke="#999" stroke-width="3" x1="3799.0" x2="3892.0" y1="6491.0" y2="6530.0" /><line stroke="#999" stroke-width="3" x1="3706.0" x2="3799.0" y1="6530.0" y2="6491.0" /><line stroke="#999" stroke-width="3" x1="3667.0" x2="3706.0" y1="6623.0" y2="6530.0" /><line stroke="#999" stroke-width="3" x1="4037.0" x2="4485.0" y1="6749.0" y2="6749.0" /><line stroke="#999" stroke-width="3" x1="3781.0" x2="3781.0" y1="6021.0" y2="6213.0" /><line stroke="#999" stroke-width="3" x1="4485.0" x2="4485.0" y1="6749.0" y2="7045.0" /><line stroke="#999" stroke-width="3" x1="4485.0" x2="4229.0" y1="6493.0" y2="6493.0" /><line stroke="#999" stroke-width="3" x1="4805.0" x2="3397.0" y1="4229.0" y2="4229.0" /><line stroke="#999" stroke-width="3" x1="4229.0" x2="4229.0" y1="6493.0" y2="5573.0" /><line stroke="#999" stroke-width="3" x1="3637.0" x2="4037.0" y1="6341.0" y2="6341.0" /><line stroke="#999" stroke-width="3" x1="4037.0" x2="4037.0" y1="6405.0" y2="6749.0" /><line stroke="#999" stroke-width="3" x1="3845.0" x2="3781.0" y1="6021.0" y2="6021.0" /><line stroke="#999" stroke-width="3" x1="3845.0" x2="3845.0" y1="6213.0" y2="6021.0" /><line stroke="#333" stroke-width="10" x1="3973.0" x2="3845.0" y1="5957.0" y2="5957.0" /><line stroke="#333" stroke-width="10" x1="3653.0" x2="3973.0" y1="5637.0" y2="5637.0" /><line stroke="#333" stroke-width="10" x1="3653.0" x2="3653.0" y1="5957.0" y2="5637.0" /><line stroke="#333" stroke-width="10" x1="3717.0" x2="3781.0" y1="5893.0" y2="5893.0" /><line stroke="#333" stroke-width="10" x1="3909.0" x2="3717.0" y1="5701.0" y2="5701.0" /><line stroke="#333" stroke-width="10" x1="3717.0" x2="3717.0" y1="5701.0" y2="5893.0" /><line stroke="#333" stroke-width="10" x1="3909.0" x2="3909.0" y1="5893.0" y2="5701.0" /><line stroke="#333" stroke-width="10" x1="3973.0" x2="3973.0" y1="5637.0" y2="5957.0" /><line stroke="#999" stroke-width="3" x1="3845.0" x2="3781.0" y1="5957.0" y2="5957.0" /><line stroke="#333" stroke-width="10" x1="3845.0" x2="3909.0" y1="5893.0" y2="5893.0" /><line stroke="#333" stroke-width="10" x1="3781.0" x2="3653.0" y1="5957.0" y2="5957.0" /><line stroke="#999" stroke-width="3" x1="3781.0" x2="3845.0" y1="5893.0" y2="5893.0" /><line stroke="#333" stroke-width="10" x1="3845.0" x2="3845.0" y1="5957.0" y2="5933.0" /><line stroke="#333" stroke-width="10" x1="3781.0" x2="3781.0" y1="5893.0" y2="5917.0" /><line stroke="#666" stroke-width="20" x1="3845.0" x2="3781.0" y1="5933.0" y2="5933.0" /><line stroke="#666" stroke-width="20" x1="3781.0" x2="3845.0" y1="5917.0" y2="5917.0" /><line stroke="#333" stroke-width="10" x1="3845.0" x2="3845.0" y1="5933.0" y2="5917.0" /><line stroke="#333" stroke-width="10" x1="3781.0" x2="3781.0" y1="5933.0" y2="5957.0" /><line stroke="#333" stroke-width="10" x1="3781.0" x2="3781.0" y1="5917.0" y2="5933.0" /><line stroke="#333" stroke-width="10" x1="3845.0" x2="3845.0" y1="5917.0" y2="5893.0" /><line stroke="#333" stroke-width="10" x1="3589.0" x2="2693.0" y1="7365.0" y2="7365.0" /><line stroke="#333" stroke-width="10" x1="3589.0" x2="3589.0" y1="6021.0" y2="6213.0" /><line stroke="#333" stroke-width="10" x1="1989.0" x2="3589.0" y1="6021.0" y2="6021.0" /><line stroke="#333" stroke-width="10" x1="2693.0" x2="2693.0" y1="7365.0" y2="6661.0" /><line stroke="#333" stroke-width="10" x1="2053.0" x2="2757.0" y1="6597.0" y2="6597.0" /><line stroke="#333" stroke-width="10" x1="3525.0" x2="3525.0" y1="7301.0" y2="7237.0" /><line stroke="#333" stroke-width="10" x1="3525.0" x2="2053.0" y1="6085.0" y2="6085.0" /><line stroke="#333" stroke-width="10" x1="2053.0" x2="2053.0" y1="6085.0" y2="6597.0" /><line stroke="#333" stroke-width="10" x1="1989.0" x2="1989.0" y1="6661.0" y2="6021.0" /><line stroke="#333" stroke-width="10" x1="2693.0" x2="1989.0" y1="6661.0" y2="6661.0" /><line stroke="#333" stroke-width="10" x1="2757.0" x2="3461.0" y1="7301.0" y2="7301.0" /><line stroke="#333" stroke-width="10" x1="2757.0" x2="2757.0" y1="6597.0" y2="7301.0" /><line stroke="#333" stroke-width="10" x1="3525.0" x2="3549.0" y1="6341.0" y2="6341.0" /><line stroke="#333" stroke-width="10" x1="3589.0" x2="3565.0" y1="6213.0" y2="6213.0" /><line stroke="#333" stroke-width="10" x1="3589.0" x2="3589.0" y1="6341.0" y2="7365.0" /><line stroke="#999" stroke-width="3" x1="3589.0" x2="3589.0" y1="6213.0" y2="6341.0" /><line stroke="#999" stroke-width="3" x1="3525.0" x2="3525.0" y1="6341.0" y2="6213.0" /><line stroke="#333" stroke-width="10" x1="3525.0" x2="3525.0" y1="6213.0" y2="6085.0" /><line stroke="#666" stroke-width="20" x1="3565.0" x2="3565.0" y1="6213.0" y2="6341.0" /><line stroke="#666" stroke-width="20" x1="3549.0" x2="3549.0" y1="6341.0" y2="6213.0" /><line stroke="#333" stroke-width="10" x1="3549.0" x2="3565.0" y1="6341.0" y2="6341.0" /><line stroke="#333" stroke-width="10" x1="3565.0" x2="3549.0" y1="6213.0" y2="6213.0" /><line stroke="#333" stroke-width="10" x1="3549.0" x2="3525.0" y1="6213.0" y2="6213.0" /><line stroke="#333" stroke-width="10" x1="3565.0" x2="3589.0" y1="6341.0" y2="6341.0" /><line stroke="#999" stroke-width="3" x1="3461.0" x2="3525.0" y1="7237.0" y2="7237.0" /><line stroke="#999" stroke-width="3" x1="3461.0" x2="3461.0" y1="7301.0" y2="7237.0" /><line stroke="#333" stroke-width="10" x1="3525.0" x2="3525.0" y1="7237.0" y2="6341.0" /><line stroke="#333" stroke-width="10" x1="3461.0" x2="3525.0" y1="7301.0" y2="7301.0" /><line stroke="#999" stroke-width="3" x1="2629.0" x2="2693.0" y1="6533.0" y2="6533.0" /><line stroke="#999" stroke-width="3" x1="2693.0" x2="2693.0" y1="6533.0" y2="6469.0" /><line stroke="#999" stroke-width="3" x1="2693.0" x2="2629.0" y1="6469.0" y2="6469.0" /><line stroke="#999" stroke-width="3" x1="2629.0" x2="2629.0" y1="6469.0" y2="6533.0" /><line stroke="#999" stroke-width="3" x1="2629.0" x2="2693.0" y1="6437.0" y2="6437.0" /><line stroke="#999" stroke-width="3" x1="2693.0" x2="2693.0" y1="6437.0" y2="6373.0" /><line stroke="#999" stroke-width="3" x1="2693.0" x2="2629.0" y1="6373.0" y2="6373.0" /><line stroke="#999" stroke-width="3" x1="2629.0" x2="2629.0" y1="6373.0" y2="6437.0" /><line stroke="#999" stroke-width="3" x1="2629.0" x2="2693.0" y1="6245.0" y2="6245.0" /><line stroke="#999" stroke-width="3" x1="2693.0" x2="2693.0" y1="6245.0" y2="6181.0" /><line stroke="#999" stroke-width="3" x1="2693.0" x2="2629.0" y1="6181.0" y2="6181.0" /><line stroke="#999" stroke-width="3" x1="2629.0" x2="2629.0" y1="6181.0" y2="6245.0" /><line stroke="#999" stroke-width="3" x1="2629.0" x2="2693.0" y1="6341.0" y2="6341.0" /><line stroke="#999" stroke-width="3" x1="2693.0" x2="2693.0" y1="6341.0" y2="6277.0" /><line stroke="#999" stroke-width="3" x1="2693.0" x2="2629.0" y1="6277.0" y2="6277.0" /><line stroke="#999" stroke-width="3" x1="2629.0" x2="2629.0" y1="6277.0" y2="6341.0" /><line stroke="#999" stroke-width="3" x1="2117.0" x2="2149.0" y1="6181.0" y2="6181.0" /><line stroke="#999" stroke-width="3" x1="2149.0" x2="2149.0" y1="6117.0" y2="6181.0" /><line stroke="#999" stroke-width="3" x1="2149.0" x2="2117.0" y1="6117.0" y2="6117.0" /><line stroke="#999" stroke-width="3" x1="2117.0" x2="2117.0" y1="6117.0" y2="6133.0" /><line stroke="#999" stroke-width="3" x1="2117.0" x2="2149.0" y1="6309.0" y2="6309.0" /><line stroke="#999" stroke-width="3" x1="2149.0" x2="2149.0" y1="6245.0" y2="6309.0" /><line stroke="#999" stroke-width="3" x1="2149.0" x2="2117.0" y1="6245.0" y2="6245.0" /><line stroke="#999" stroke-width="3" x1="2117.0" x2="2117.0" y1="6245.0" y2="6261.0" /><line stroke="#999" stroke-width="3" x1="2117.0" x2="2149.0" y1="6437.0" y2="6437.0" /><line stroke="#999" stroke-width="3" x1="2149.0" x2="2149.0" y1="6373.0" y2="6437.0" /><line stroke="#999" stroke-width="3" x1="2149.0" x2="2117.0" y1="6373.0" y2="6373.0" /><line stroke="#999" stroke-width="3" x1="2117.0" x2="2117.0" y1="6373.0" y2="6389.0" /><line stroke="#999" stroke-width="3" x1="2117.0" x2="2149.0" y1="6565.0" y2="6565.0" /><line stroke="#999" stroke-width="3" x1="2149.0" x2="2149.0" y1="6501.0" y2="6565.0" /><line stroke="#999" stroke-width="3" x1="2149.0" x2="2117.0" y1="6501.0" y2="6501.0" /><line stroke="#999" stroke-width="3" x1="2117.0" x2="2117.0" y1="6501.0" y2="6517.0" /><line stroke="#999" stroke-width="3" x1="2101.0" x2="2117.0" y1="6293.0" y2="6293.0" /><line stroke="#999" stroke-width="3" x1="2117.0" x2="2117.0" y1="6293.0" y2="6261.0" /><line stroke="#999" stroke-width="3" x1="2117.0" x2="2101.0" y1="6261.0" y2="6261.0" /><line stroke="#999" stroke-width="3" x1="2101.0" x2="2101.0" y1="6261.0" y2="6293.0" /><line stroke="#999" stroke-width="3" x1="2117.0" x2="2117.0" y1="6293.0" y2="6309.0" /><line stroke="#999" stroke-width="3" x1="2101.0" x2="2117.0" y1="6165.0" y2="6165.0" /><line stroke="#999" stroke-width="3" x1="2117.0" x2="2117.0" y1="6165.0" y2="6133.0" /><line stroke="#999" stroke-width="3" x1="2117.0" x2="2101.0" y1="6133.0" y2="6133.0" /><line stroke="#999" stroke-width="3" x1="2101.0" x2="2101.0" y1="6133.0" y2="6165.0" /><line stroke="#999" stroke-width="3" x1="2117.0" x2="2117.0" y1="6165.0" y2="6181.0" /><line stroke="#999" stroke-width="3" x1="2101.0" x2="2117.0" y1="6421.0" y2="6421.0" /><line stroke="#999" stroke-width="3" x1="2117.0" x2="2101.0" y1="6389.0" y2="6389.0" /><line stroke="#999" stroke-width="3" x1="2101.0" x2="2101.0" y1="6389.0" y2="6421.0" /><line stroke="#999" stroke-width="3" x1="2117.0" x2="2117.0" y1="6421.0" y2="6437.0" /><line stroke="#999" stroke-width="3" x1="2117.0" x2="2117.0" y1="6421.0" y2="6389.0" /><line stroke="#999" stroke-width="3" x1="3637.0" x2="3637.0" y1="6213.0" y2="6341.0" /><line stroke="#999" stroke-width="3" x1="3781.0" x2="3637.0" y1="6213.0" y2="6213.0" /><line stroke="#999" stroke-width="3" x1="4037.0" x2="4037.0" y1="6341.0" y2="6405.0" /><line stroke="#999" stroke-width="3" x1="2101.0" x2="2117.0" y1="6549.0" y2="6549.0" /><line stroke="#999" stroke-width="3" x1="2117.0" x2="2101.0" y1="6517.0" y2="6517.0" /><line stroke="#999" stroke-width="3" x1="2101.0" x2="2101.0" y1="6517.0" y2="6549.0" /><line stroke="#999" stroke-width="3" x1="2117.0" x2="2117.0" y1="6549.0" y2="6565.0" /><line stroke="#999" stroke-width="3" x1="2117.0" x2="2117.0" y1="6549.0" y2="6517.0" /><line stroke="#333" stroke-width="10" x1="4869.0" x2="5189.0" y1="6725.0" y2="6725.0" /><line stroke="#999" stroke-width="3" x1="4037.0" x2="3845.0" y1="6213.0" y2="6213.0" /><line stroke="#333" stroke-width="10" x1="4549.0" x2="4149.0" y1="5317.0" y2="5317.0" /><line stroke="#333" stroke-width="10" x1="4549.0" x2="4549.0" y1="4485.0" y2="5317.0" /><line stroke="#333" stroke-width="10" x1="3717.0" x2="4549.0" y1="4485.0" y2="4485.0" /><line stroke="#333" stroke-width="10" x1="3717.0" x2="3717.0" y1="5317.0" y2="4485.0" /><line stroke="#333" stroke-width="10" x1="3781.0" x2="4085.0" y1="5253.0" y2="5253.0" /><line stroke="#333" stroke-width="10" x1="4485.0" x2="4485.0" y1="5253.0" y2="4549.0" /><line stroke="#333" stroke-width="10" x1="4485.0" x2="3781.0" y1="4549.0" y2="4549.0" /><line stroke="#333" stroke-width="10" x1="3781.0" x2="3781.0" y1="4549.0" y2="5253.0" /><line stroke="#999" stroke-width="3" x1="4805.0" x2="4805.0" y1="5573.0" y2="4229.0" /><line stroke="#999" stroke-width="3" x1="4229.0" x2="4805.0" y1="5573.0" y2="5573.0" /><line stroke="#999" stroke-width="3" x1="3397.0" x2="3397.0" y1="4229.0" y2="5573.0" /><line stroke="#999" stroke-width="3" x1="4613.0" x2="3653.0" y1="5381.0" y2="5381.0" /><line stroke="#999" stroke-width="3" x1="3397.0" x2="4037.0" y1="5573.0" y2="5573.0" /><line stroke="#999" stroke-width="3" x1="4613.0" x2="4613.0" y1="4421.0" y2="5381.0" /><line stroke="#999" stroke-width="3" x1="3653.0" x2="4613.0" y1="4421.0" y2="4421.0" /><line stroke="#999" stroke-width="3" x1="3653.0" x2="3653.0" y1="5381.0" y2="4421.0" /><line stroke="#999" stroke-width="3" x1="4037.0" x2="4037.0" y1="5573.0" y2="6213.0" /><line stroke="#666" stroke-width="20" x1="4085.0" x2="4149.0" y1="5277.0" y2="5277.0" /><line stroke="#333" stroke-width="10" x1="4149.0" x2="4149.0" y1="5277.0" y2="5253.0" /><line stroke="#333" stroke-width="10" x1="4085.0" x2="4085.0" y1="5253.0" y2="5277.0" /><line stroke="#333" stroke-width="10" x1="4085.0" x2="3717.0" y1="5317.0" y2="5317.0" /><line stroke="#999" stroke-width="3" x1="4149.0" x2="4085.0" y1="5317.0" y2="5317.0" /><line stroke="#999" stroke-width="3" x1="4085.0" x2="4149.0" y1="5253.0" y2="5253.0" /><line stroke="#333" stroke-width="10" x1="4149.0" x2="4485.0" y1="5253.0" y2="5253.0" /><line stroke="#666" stroke-width="20" x1="4149.0" x2="4085.0" y1="5293.0" y2="5293.0" /><line stroke="#333" stroke-width="10" x1="4149.0" x2="4149.0" y1="5293.0" y2="5277.0" /><line stroke="#333" stroke-width="10" x1="4085.0" x2="4085.0" y1="5277.0" y2="5293.0" /><line stroke="#333" stroke-width="10" x1="4149.0" x2="4149.0" y1="5317.0" y2="5293.0" /><line stroke="#333" stroke-width="10" x1="4085.0" x2="4085.0" y1="5293.0" y2="5317.0" /><line stroke="#999" stroke-width="3" x1="3941.0" x2="3813.0" y1="5189.0" y2="5189.0" /><line stroke="#999" stroke-width="3" x1="3941.0" x2="3941.0" y1="5061.0" y2="5189.0" /><line stroke="#999" stroke-width="3" x1="3813.0" x2="3941.0" y1="5061.0" y2="5061.0" /><line stroke="#999" stroke-width="3" x1="3813.0" x2="3813.0" y1="5189.0" y2="5061.0" /><line stroke="#999" stroke-width="3" x1="4005.0" x2="3973.0" y1="5157.0" y2="5157.0" /><line stroke="#999" stroke-width="3" x1="4005.0" x2="4005.0" y1="5157.0" y2="5093.0" /><line stroke="#999" stroke-width="3" x1="3973.0" x2="4005.0" y1="5093.0" y2="5093.0" /><line stroke="#999" stroke-width="3" x1="3973.0" x2="3973.0" y1="5157.0" y2="5093.0" /><line stroke="#999" stroke-width="3" x1="4037.0" x2="4005.0" y1="5157.0" y2="5157.0" /><line stroke="#999" stroke-width="3" x1="4037.0" x2="4037.0" y1="5093.0" y2="5157.0" /><line stroke="#999" stroke-width="3" x1="4005.0" x2="4037.0" y1="5093.0" y2="5093.0" /><line stroke="#999" stroke-width="3" x1="3877.0" x2="4101.0" y1="4837.0" y2="4837.0" /><line stroke="#999" stroke-width="3" x1="4101.0" x2="4101.0" y1="4837.0" y2="4805.0" /><line stroke="#999" stroke-width="3" x1="4101.0" x2="3877.0" y1="4805.0" y2="4805.0" /><line stroke="#999" stroke-width="3" x1="3877.0" x2="3877.0" y1="4805.0" y2="4837.0" /><line stroke="#999" stroke-width="3" x1="3877.0" x2="4101.0" y1="4853.0" y2="4853.0" /><line stroke="#999" stroke-width="3" x1="4101.0" x2="4101.0" y1="4853.0" y2="4837.0" /><line stroke="#999" stroke-width="3" x1="3877.0" x2="3877.0" y1="4837.0" y2="4853.0" /><line stroke="#999" stroke-width="3" x1="3861.0" x2="3877.0" y1="4853.0" y2="4853.0" /><line stroke="#999" stroke-width="3" x1="3877.0" x2="3861.0" y1="4805.0" y2="4805.0" /><line stroke="#999" stroke-width="3" x1="3861.0" x2="3861.0" y1="4805.0" y2="4853.0" /><line stroke="#999" stroke-width="3" x1="4101.0" x2="4117.0" y1="4853.0" y2="4853.0" /><line stroke="#999" stroke-width="3" x1="4117.0" x2="4101.0" y1="4805.0" y2="4805.0" /><line stroke="#999" stroke-width="3" x1="4117.0" x2="4117.0" y1="4853.0" y2="4805.0" /><line stroke="#999" stroke-width="3" x1="3973.0" x2="4005.0" y1="4685.0" y2="4685.0" /><line stroke="#999" stroke-width="3" x1="4005.0" x2="4005.0" y1="4685.0" y2="4669.0" /><line stroke="#999" stroke-width="3" x1="4005.0" x2="3973.0" y1="4669.0" y2="4669.0" /><line stroke="#999" stroke-width="3" x1="3973.0" x2="3973.0" y1="4669.0" y2="4685.0" /><line stroke="#999" stroke-width="3" x1="4357.0" x2="4293.0" y1="4805.0" y2="4805.0" /><line stroke="#999" stroke-width="3" x1="4357.0" x2="4357.0" y1="4741.0" y2="4805.0" /><line stroke="#999" stroke-width="3" x1="4293.0" x2="4357.0" y1="4741.0" y2="4741.0" /><line stroke="#999" stroke-width="3" x1="4293.0" x2="4293.0" y1="4805.0" y2="4741.0" /><line stroke="#333" stroke-width="10" x1="7237.0" x2="6501.0" y1="7749.0" y2="7749.0" /><line stroke="#333" stroke-width="10" x1="7237.0" x2="7237.0" y1="7109.0" y2="7397.0" /><line stroke="#333" stroke-width="10" x1="5701.0" x2="6437.0" y1="7109.0" y2="7109.0" /><line stroke="#333" stroke-width="10" x1="5701.0" x2="5701.0" y1="7749.0" y2="7461.0" /><line stroke="#333" stroke-width="10" x1="5765.0" x2="6053.0" y1="7685.0" y2="7685.0" /><line stroke="#333" stroke-width="10" x1="7173.0" x2="7173.0" y1="7685.0" y2="7173.0" /><line stroke="#333" stroke-width="10" x1="7173.0" x2="5765.0" y1="7173.0" y2="7173.0" /><line stroke="#333" stroke-width="10" x1="5765.0" x2="5765.0" y1="7173.0" y2="7685.0" /><line stroke="#333" stroke-width="10" x1="7237.0" x2="7237.0" y1="7461.0" y2="7749.0" /><line stroke="#333" stroke-width="10" x1="7237.0" x2="7237.0" y1="7397.0" y2="7461.0" /><line stroke="#333" stroke-width="10" x1="5701.0" x2="5701.0" y1="7461.0" y2="7397.0" /><line stroke="#333" stroke-width="10" x1="5701.0" x2="5701.0" y1="7397.0" y2="7109.0" /><line stroke="#333" stroke-width="10" x1="6501.0" x2="7237.0" y1="7109.0" y2="7109.0" /><line stroke="#333" stroke-width="10" x1="6437.0" x2="6501.0" y1="7109.0" y2="7109.0" /><line stroke="#333" stroke-width="10" x1="6501.0" x2="6437.0" y1="7749.0" y2="7749.0" /><line stroke="#333" stroke-width="10" x1="6437.0" x2="6149.0" y1="7749.0" y2="7749.0" /><line stroke="#333" stroke-width="10" x1="6149.0" x2="7173.0" y1="7685.0" y2="7685.0" /><line stroke="#999" stroke-width="3" x1="6053.0" x2="6149.0" y1="7685.0" y2="7685.0" /><line stroke="#333" stroke-width="10" x1="6053.0" x2="5701.0" y1="7749.0" y2="7749.0" /><line stroke="#999" stroke-width="3" x1="6149.0" x2="6053.0" y1="7749.0" y2="7749.0" /><line stroke="#333" stroke-width="10" x1="6053.0" x2="6069.0" y1="7709.0" y2="7709.0" /><line stroke="#333" stroke-width="10" x1="6149.0" x2="6149.0" y1="7709.0" y2="7685.0" /><line stroke="#333" stroke-width="10" x1="6053.0" x2="6053.0" y1="7685.0" y2="7709.0" /><line stroke="#333" stroke-width="10" x1="6149.0" x2="6149.0" y1="7749.0" y2="7725.0" /><line stroke="#333" stroke-width="10" x1="6149.0" x2="6133.0" y1="7725.0" y2="7725.0" /><line stroke="#333" stroke-width="10" x1="6053.0" x2="6053.0" y1="7725.0" y2="7749.0" /><line stroke="#999" stroke-width="3" x1="5381.0" x2="7493.0" y1="8005.0" y2="8005.0" /><line stroke="#999" stroke-width="3" x1="5381.0" x2="5381.0" y1="7045.0" y2="8005.0" /><line stroke="#999" stroke-width="3" x1="7493.0" x2="6885.0" y1="6853.0" y2="6853.0" /><line stroke="#999" stroke-width="3" x1="5637.0" x2="5637.0" y1="7813.0" y2="7045.0" /><line stroke="#999" stroke-width="3" x1="7301.0" x2="5637.0" y1="7813.0" y2="7813.0" /><line stroke="#999" stroke-width="3" x1="5637.0" x2="7301.0" y1="7045.0" y2="7045.0" /><line stroke="#999" stroke-width="3" x1="7301.0" x2="7301.0" y1="7045.0" y2="7813.0" /><line stroke="#999" stroke-width="3" x1="6181.0" x2="6181.0" y1="6789.0" y2="6853.0" /><line stroke="#999" stroke-width="3" x1="6245.0" x2="6469.0" y1="6789.0" y2="6789.0" /><line stroke="#999" stroke-width="3" x1="6181.0" x2="5701.0" y1="6853.0" y2="6853.0" /><line stroke="#999" stroke-width="3" x1="6245.0" x2="6245.0" y1="6853.0" y2="6789.0" /><line stroke="#999" stroke-width="3" x1="5701.0" x2="5701.0" y1="6853.0" y2="6565.0" /><line stroke="#333" stroke-width="10" x1="6069.0" x2="6069.0" y1="7709.0" y2="7725.0" /><line stroke="#333" stroke-width="10" x1="6069.0" x2="6053.0" y1="7725.0" y2="7725.0" /><line stroke="#666" stroke-width="20" x1="6069.0" x2="6133.0" y1="7709.0" y2="7709.0" /><line stroke="#333" stroke-width="10" x1="6133.0" x2="6133.0" y1="7725.0" y2="7709.0" /><line stroke="#666" stroke-width="20" x1="6133.0" x2="6069.0" y1="7725.0" y2="7725.0" /><line stroke="#333" stroke-width="10" x1="6133.0" x2="6149.0" y1="7709.0" y2="7709.0" /><line stroke="#333" stroke-width="10" x1="5973.0" x2="5957.0" y1="7333.0" y2="7333.0" /><line stroke="#333" stroke-width="10" x1="5973.0" x2="5973.0" y1="7269.0" y2="7333.0" /><line stroke="#333" stroke-width="10" x1="5957.0" x2="5973.0" y1="7269.0" y2="7269.0" /><line stroke="#333" stroke-width="10" x1="5957.0" x2="5957.0" y1="7333.0" y2="7269.0" /><line stroke="#333" stroke-width="10" x1="5973.0" x2="5957.0" y1="7461.0" y2="7461.0" /><line stroke="#333" stroke-width="10" x1="5973.0" x2="5973.0" y1="7397.0" y2="7461.0" /><line stroke="#333" stroke-width="10" x1="5957.0" x2="5973.0" y1="7397.0" y2="7397.0" /><line stroke="#333" stroke-width="10" x1="5957.0" x2="5957.0" y1="7461.0" y2="7397.0" /><line stroke="#333" stroke-width="10" x1="5973.0" x2="5957.0" y1="7589.0" y2="7589.0" /><line stroke="#333" stroke-width="10" x1="5973.0" x2="5973.0" y1="7525.0" y2="7589.0" /><line stroke="#333" stroke-width="10" x1="5957.0" x2="5973.0" y1="7525.0" y2="7525.0" /><line stroke="#333" stroke-width="10" x1="5957.0" x2="5957.0" y1="7589.0" y2="7525.0" /><line stroke="#333" stroke-width="10" x1="6165.0" x2="6149.0" y1="7333.0" y2="7333.0" /><line stroke="#333" stroke-width="10" x1="6165.0" x2="6165.0" y1="7269.0" y2="7333.0" /><line stroke="#333" stroke-width="10" x1="6149.0" x2="6165.0" y1="7269.0" y2="7269.0" /><line stroke="#333" stroke-width="10" x1="6149.0" x2="6149.0" y1="7333.0" y2="7269.0" /><line stroke="#333" stroke-width="10" x1="6165.0" x2="6149.0" y1="7461.0" y2="7461.0" /><line stroke="#333" stroke-width="10" x1="6165.0" x2="6165.0" y1="7397.0" y2="7461.0" /><line stroke="#333" stroke-width="10" x1="6149.0" x2="6165.0" y1="7397.0" y2="7397.0" /><line stroke="#333" stroke-width="10" x1="6149.0" x2="6149.0" y1="7461.0" y2="7397.0" /><line stroke="#333" stroke-width="10" x1="6165.0" x2="6149.0" y1="7589.0" y2="7589.0" /><line stroke="#333" stroke-width="10" x1="6165.0" x2="6165.0" y1="7525.0" y2="7589.0" /><line stroke="#333" stroke-width="10" x1="6149.0" x2="6165.0" y1="7525.0" y2="7525.0" /><line stroke="#333" stroke-width="10" x1="6149.0" x2="6149.0" y1="7589.0" y2="7525.0" /><line stroke="#333" stroke-width="10" x1="6373.0" x2="6357.0" y1="7333.0" y2="7333.0" /><line stroke="#333" stroke-width="10" x1="6373.0" x2="6373.0" y1="7269.0" y2="7333.0" /><line stroke="#333" stroke-width="10" x1="6357.0" x2="6373.0" y1="7269.0" y2="7269.0" /><line stroke="#333" stroke-width="10" x1="6357.0" x2="6357.0" y1="7333.0" y2="7269.0" /><line stroke="#333" stroke-width="10" x1="6373.0" x2="6357.0" y1="7461.0" y2="7461.0" /><line stroke="#333" stroke-width="10" x1="6373.0" x2="6373.0" y1="7397.0" y2="7461.0" /><line stroke="#333" stroke-width="10" x1="6357.0" x2="6373.0" y1="7397.0" y2="7397.0" /><line stroke="#333" stroke-width="10" x1="6357.0" x2="6357.0" y1="7461.0" y2="7397.0" /><line stroke="#333" stroke-width="10" x1="6373.0" x2="6357.0" y1="7589.0" y2="7589.0" /><line stroke="#333" stroke-width="10" x1="6373.0" x2="6373.0" y1="7525.0" y2="7589.0" /><line stroke="#333" stroke-width="10" x1="6357.0" x2="6373.0" y1="7525.0" y2="7525.0" /><line stroke="#333" stroke-width="10" x1="6357.0" x2="6357.0" y1="7589.0" y2="7525.0" /><line stroke="#333" stroke-width="10" x1="6549.0" x2="6533.0" y1="7333.0" y2="7333.0" /><line stroke="#333" stroke-width="10" x1="6549.0" x2="6549.0" y1="7269.0" y2="7333.0" /><line stroke="#333" stroke-width="10" x1="6533.0" x2="6549.0" y1="7269.0" y2="7269.0" /><line stroke="#333" stroke-width="10" x1="6533.0" x2="6533.0" y1="7333.0" y2="7269.0" /><line stroke="#333" stroke-width="10" x1="6549.0" x2="6533.0" y1="7461.0" y2="7461.0" /><line stroke="#333" stroke-width="10" x1="6549.0" x2="6549.0" y1="7397.0" y2="7461.0" /><line stroke="#333" stroke-width="10" x1="6533.0" x2="6549.0" y1="7397.0" y2="7397.0" /><line stroke="#333" stroke-width="10" x1="6533.0" x2="6533.0" y1="7461.0" y2="7397.0" /><line stroke="#333" stroke-width="10" x1="6549.0" x2="6533.0" y1="7589.0" y2="7589.0" /><line stroke="#333" stroke-width="10" x1="6549.0" x2="6549.0" y1="7525.0" y2="7589.0" /><line stroke="#333" stroke-width="10" x1="6533.0" x2="6549.0" y1="7525.0" y2="7525.0" /><line stroke="#333" stroke-width="10" x1="6533.0" x2="6533.0" y1="7589.0" y2="7525.0" /><line stroke="#333" stroke-width="10" x1="6741.0" x2="6725.0" y1="7333.0" y2="7333.0" /><line stroke="#333" stroke-width="10" x1="6741.0" x2="6741.0" y1="7269.0" y2="7333.0" /><line stroke="#333" stroke-width="10" x1="6725.0" x2="6741.0" y1="7269.0" y2="7269.0" /><line stroke="#333" stroke-width="10" x1="6725.0" x2="6725.0" y1="7333.0" y2="7269.0" /><line stroke="#333" stroke-width="10" x1="6741.0" x2="6725.0" y1="7461.0" y2="7461.0" /><line stroke="#333" stroke-width="10" x1="6741.0" x2="6741.0" y1="7397.0" y2="7461.0" /><line stroke="#333" stroke-width="10" x1="6725.0" x2="6741.0" y1="7397.0" y2="7397.0" /><line stroke="#333" stroke-width="10" x1="6725.0" x2="6725.0" y1="7461.0" y2="7397.0" /><line stroke="#333" stroke-width="10" x1="6741.0" x2="6725.0" y1="7589.0" y2="7589.0" /><line stroke="#333" stroke-width="10" x1="6741.0" x2="6741.0" y1="7525.0" y2="7589.0" /><line stroke="#333" stroke-width="10" x1="6725.0" x2="6741.0" y1="7525.0" y2="7525.0" /><line stroke="#333" stroke-width="10" x1="6725.0" x2="6725.0" y1="7589.0" y2="7525.0" /><line stroke="#333" stroke-width="10" x1="6949.0" x2="6933.0" y1="7333.0" y2="7333.0" /><line stroke="#333" stroke-width="10" x1="6949.0" x2="6949.0" y1="7269.0" y2="7333.0" /><line stroke="#333" stroke-width="10" x1="6933.0" x2="6949.0" y1="7269.0" y2="7269.0" /><line stroke="#333" stroke-width="10" x1="6933.0" x2="6933.0" y1="7333.0" y2="7269.0" /><line stroke="#333" stroke-width="10" x1="6949.0" x2="6933.0" y1="7461.0" y2="7461.0" /><line stroke="#333" stroke-width="10" x1="6949.0" x2="6949.0" y1="7397.0" y2="7461.0" /><line stroke="#333" stroke-width="10" x1="6933.0" x2="6949.0" y1="7397.0" y2="7397.0" /><line stroke="#333" stroke-width="10" x1="6933.0" x2="6933.0" y1="7461.0" y2="7397.0" /><line stroke="#333" stroke-width="10" x1="6949.0" x2="6933.0" y1="7589.0" y2="7589.0" /><line stroke="#333" stroke-width="10" x1="6949.0" x2="6949.0" y1="7525.0" y2="7589.0" /><line stroke="#333" stroke-width="10" x1="6933.0" x2="6949.0" y1="7525.0" y2="7525.0" /><line stroke="#333" stroke-width="10" x1="6933.0" x2="6933.0" y1="7589.0" y2="7525.0" /><line stroke="#333" stroke-width="10" x1="7125.0" x2="7109.0" y1="7333.0" y2="7333.0" /><line stroke="#333" stroke-width="10" x1="7125.0" x2="7125.0" y1="7269.0" y2="7333.0" /><line stroke="#333" stroke-width="10" x1="7109.0" x2="7125.0" y1="7269.0" y2="7269.0" /><line stroke="#333" stroke-width="10" x1="7109.0" x2="7109.0" y1="7333.0" y2="7269.0" /><line stroke="#333" stroke-width="10" x1="7125.0" x2="7109.0" y1="7461.0" y2="7461.0" /><line stroke="#333" stroke-width="10" x1="7125.0" x2="7125.0" y1="7397.0" y2="7461.0" /><line stroke="#333" stroke-width="10" x1="7109.0" x2="7125.0" y1="7397.0" y2="7397.0" /><line stroke="#333" stroke-width="10" x1="7109.0" x2="7109.0" y1="7461.0" y2="7397.0" /><line stroke="#333" stroke-width="10" x1="7125.0" x2="7109.0" y1="7589.0" y2="7589.0" /><line stroke="#333" stroke-width="10" x1="7125.0" x2="7125.0" y1="7525.0" y2="7589.0" /><line stroke="#333" stroke-width="10" x1="7109.0" x2="7125.0" y1="7525.0" y2="7525.0" /><line stroke="#333" stroke-width="10" x1="7109.0" x2="7109.0" y1="7589.0" y2="7525.0" /><line stroke="#333" stroke-width="10" x1="6981.0" x2="6725.0" y1="6661.0" y2="6661.0" /><line stroke="#333" stroke-width="10" x1="6981.0" x2="6981.0" y1="6405.0" y2="6661.0" /><line stroke="#333" stroke-width="10" x1="6725.0" x2="6821.0" y1="6405.0" y2="6405.0" /><line stroke="#333" stroke-width="10" x1="6725.0" x2="6725.0" y1="6661.0" y2="6405.0" /><line stroke="#333" stroke-width="10" x1="6789.0" x2="6821.0" y1="6597.0" y2="6597.0" /><line stroke="#333" stroke-width="10" x1="6917.0" x2="6917.0" y1="6597.0" y2="6469.0" /><line stroke="#333" stroke-width="10" x1="6917.0" x2="6885.0" y1="6469.0" y2="6469.0" /><line stroke="#0d0" stroke-width="20" x1="6789.0" x2="6789.0" y1="6469.0" y2="6485.0" /><line stroke="#999" stroke-width="3" x1="6597.0" x2="6597.0" y1="6277.0" y2="6501.0" /><line stroke="#999" stroke-width="3" x1="7045.0" x2="6661.0" y1="6725.0" y2="6725.0" /><line stroke="#999" stroke-width="3" x1="6885.0" x2="6885.0" y1="6853.0" y2="6789.0" /><line stroke="#999" stroke-width="3" x1="6821.0" x2="6245.0" y1="6853.0" y2="6853.0" /><line stroke="#999" stroke-width="3" x1="6597.0" x2="6821.0" y1="6789.0" y2="6789.0" /><line stroke="#999" stroke-width="3" x1="6821.0" x2="6821.0" y1="6789.0" y2="6853.0" /><line stroke="#999" stroke-width="3" x1="7109.0" x2="6597.0" y1="6277.0" y2="6277.0" /><line stroke="#999" stroke-width="3" x1="6661.0" x2="6661.0" y1="6725.0" y2="6341.0" /><line stroke="#999" stroke-width="3" x1="7109.0" x2="7109.0" y1="6789.0" y2="6277.0" /><line stroke="#999" stroke-width="3" x1="6661.0" x2="7045.0" y1="6341.0" y2="6341.0" /><line stroke="#999" stroke-width="3" x1="6885.0" x2="7109.0" y1="6789.0" y2="6789.0" /><line stroke="#999" stroke-width="3" x1="7045.0" x2="7045.0" y1="6341.0" y2="6725.0" /><line stroke="#999" stroke-width="3" x1="6597.0" x2="6597.0" y1="6565.0" y2="6789.0" /><line stroke="#999" stroke-width="3" x1="6597.0" x2="6469.0" y1="6501.0" y2="6501.0" /><line stroke="#999" stroke-width="3" x1="6469.0" x2="6597.0" y1="6565.0" y2="6565.0" /><line stroke="#999" stroke-width="3" x1="6469.0" x2="6469.0" y1="6501.0" y2="6277.0" /><line stroke="#333" stroke-width="10" x1="6885.0" x2="6981.0" y1="6405.0" y2="6405.0" /><line stroke="#999" stroke-width="3" x1="6821.0" x2="6885.0" y1="6405.0" y2="6405.0" /><line stroke="#333" stroke-width="10" x1="6821.0" x2="6789.0" y1="6469.0" y2="6469.0" /><line stroke="#999" stroke-width="3" x1="6885.0" x2="6821.0" y1="6469.0" y2="6469.0" /><line stroke="#0d0" stroke-width="20" x1="6821.0" x2="6885.0" y1="6597.0" y2="6597.0" /><line stroke="#333" stroke-width="10" x1="6885.0" x2="6917.0" y1="6597.0" y2="6597.0" /><line stroke="#333" stroke-width="10" x1="6885.0" x2="6885.0" y1="6469.0" y2="6445.0" /><line stroke="#666" stroke-width="20" x1="6885.0" x2="6821.0" y1="6445.0" y2="6445.0" /><line stroke="#333" stroke-width="10" x1="6821.0" x2="6821.0" y1="6445.0" y2="6469.0" /><line stroke="#666" stroke-width="20" x1="6821.0" x2="6885.0" y1="6429.0" y2="6429.0" /><line stroke="#333" stroke-width="10" x1="6885.0" x2="6885.0" y1="6429.0" y2="6405.0" /><line stroke="#333" stroke-width="10" x1="6821.0" x2="6821.0" y1="6405.0" y2="6429.0" /><line stroke="#333" stroke-width="10" x1="6885.0" x2="6885.0" y1="6445.0" y2="6429.0" /><line stroke="#333" stroke-width="10" x1="6821.0" x2="6821.0" y1="6429.0" y2="6445.0" /><line stroke="#333" stroke-width="10" x1="6789.0" x2="6789.0" y1="6509.0" y2="6597.0" /><line stroke="#0d0" stroke-width="20" x1="6789.0" x2="6789.0" y1="6485.0" y2="6509.0" /><circle cx="4629.0" cy="8741.0" fill="#900" r="16" stroke="#900" stroke-width="5" /><circle cx="4629.0" cy="8741.0" fill="#900" r="16" stroke="#900" stroke-width="5" /><ellipse cx="4597.0" cy="8741.0" fill="#009" rx="12" ry="24" stroke="#009" stroke-width="5" /><ellipse cx="4597.0" cy="8741.0" fill="#009" rx="12" ry="24" stroke="#009" stroke-width="5" /><ellipse cx="4597.0" cy="8741.0" fill="#009" rx="12" ry="24" stroke="#009" stroke-width="5" /><ellipse cx="4597.0" cy="8741.0" fill="#009" rx="12" ry="24" stroke="#009" stroke-width="5" /><ellipse cx="4997.0" cy="6533.0" fill="#009" rx="12" ry="24" stroke="#009" stroke-width="5" /><ellipse cx="4869.0" cy="6533.0" fill="#009" rx="12" ry="24" stroke="#009" stroke-width="5" /><ellipse cx="5125.0" cy="6533.0" fill="#009" rx="12" ry="24" stroke="#009" stroke-width="5" /><ellipse cx="4997.0" cy="6405.0" fill="#009" rx="12" ry="24" stroke="#009" stroke-width="5" /><rect fill="#090" height="24" stroke="#090" stroke-width="5" transform="rotate(90,4997.0,6661.0)" width="24" x="4985.0" y="6649.0" /></svg>