<?xml version="1.0" encoding="utf-8" ?>
<svg baseProfile="tiny" height="1024" version="1.2" viewBox="0 0 4674 4978" width="961" xmlns="http://www.w3.org/2000/svg" xmlns:ev="http://www.w3.org/2001/xml-events" xmlns:xlink="http://www.w3.org/1999/xlink"><defs /><line stroke="#333" stroke-width="10" x1="269.0" x2="541.0" y1="4709.0" y2="4709.0" /><line stroke="#333" stroke-width="10" x1="2269.0" x2="2269.0" y1="4709.0" y2="4221.0" /><line stroke="#999" stroke-width="3" x1="2269.0" x2="269.0" y1="2709.0" y2="2709.0" /><line stroke="#333" stroke-width="10" x1="269.0" x2="269.0" y1="2709.0" y2="3197.0" /><line stroke="#d00" stroke-width="20" x1="1205.0" x2="1333.0" y1="4709.0" y2="4709.0" /><line stroke="#333" stroke-width="10" x1="1333.0" x2="2269.0" y1="4709.0" y2="4709.0" /><line stroke="#333" stroke-width="10" x1="1333.0" x2="1333.0" y1="4717.0" y2="4709.0" /><line stroke="#999" stroke-width="3" x1="1333.0" x2="1205.0" y1="4717.0" y2="4717.0" /><line stroke="#333" stroke-width="10" x1="1205.0" x2="1205.0" y1="4709.0" y2="4717.0" /><line stroke="#333" stroke-width="10" x1="1333.0" x2="1333.0" y1="4973.0" y2="4717.0" /><line stroke="#333" stroke-width="10" x1="1205.0" x2="1333.0" y1="4973.0" y2="4973.0" /><line stroke="#333" stroke-width="10" x1="1205.0" x2="1205.0" y1="4717.0" y2="4973.0" /><line stroke="#999" stroke-width="3" x1="541.0" x2="669.0" y1="4709.0" y2="4709.0" /><line stroke="#333" stroke-width="10" x1="669.0" x2="1205.0" y1="4709.0" y2="4709.0" /><line stroke="#333" stroke-width="10" x1="269.0" x2="269.0" y1="4221.0" y2="4709.0" /><line stroke="#999" stroke-width="3" x1="269.0" x2="269.0" y1="4093.0" y2="4221.0" /><line stroke="#333" stroke-width="10" x1="269.0" x2="269.0" y1="3709.0" y2="4093.0" /><line stroke="#999" stroke-width="3" x1="269.0" x2="269.0" y1="3581.0" y2="3709.0" /><line stroke="#333" stroke-width="10" x1="269.0" x2="269.0" y1="3325.0" y2="3581.0" /><line stroke="#999" stroke-width="3" x1="269.0" x2="269.0" y1="3197.0" y2="3325.0" /><line stroke="#999" stroke-width="3" x1="2269.0" x2="2269.0" y1="4221.0" y2="4093.0" /><line stroke="#333" stroke-width="10" x1="2269.0" x2="2269.0" y1="3197.0" y2="2709.0" /><line stroke="#666" stroke-width="20" x1="2269.0" x2="2269.0" y1="3325.0" y2="3197.0" /><line stroke="#333" stroke-width="10" x1="2269.0" x2="2269.0" y1="3581.0" y2="3325.0" /><line stroke="#d00" stroke-width="20" x1="2269.0" x2="2269.0" y1="3709.0" y2="3581.0" /><line stroke="#333" stroke-width="10" x1="2269.0" x2="2269.0" y1="4093.0" y2="3709.0" /><line stroke="#333" stroke-width="10" x1="261.0" x2="269.0" y1="4221.0" y2="4221.0" /><line stroke="#999" stroke-width="3" x1="261.0" x2="261.0" y1="4221.0" y2="4093.0" /><line stroke="#333" stroke-width="10" x1="269.0" x2="261.0" y1="4093.0" y2="4093.0" /><line stroke="#333" stroke-width="10" x1="261.0" x2="269.0" y1="3709.0" y2="3709.0" /><line stroke="#999" stroke-width="3" x1="261.0" x2="261.0" y1="3709.0" y2="3581.0" /><line stroke="#333" stroke-width="10" x1="269.0" x2="261.0" y1="3581.0" y2="3581.0" /><line stroke="#333" stroke-width="10" x1="261.0" x2="269.0" y1="3325.0" y2="3325.0" /><line stroke="#999" stroke-width="3" x1="261.0" x2="261.0" y1="3325.0" y2="3197.0" /><line stroke="#333" stroke-width="10" x1="269.0" x2="261.0" y1="3197.0" y2="3197.0" /><line stroke="#333" stroke-width="10" x1="2277.0" x2="2269.0" y1="4093.0" y2="4093.0" /><line stroke="#999" stroke-width="3" x1="2277.0" x2="2277.0" y1="4093.0" y2="4221.0" /><line stroke="#333" stroke-width="10" x1="2269.0" x2="2277.0" y1="4221.0" y2="4221.0" /><line stroke="#333" stroke-width="10" x1="2277.0" x2="2269.0" y1="3581.0" y2="3581.0" /><line stroke="#666" stroke-width="20" x1="2277.0" x2="2277.0" y1="3581.0" y2="3709.0" /><line stroke="#333" stroke-width="10" x1="2269.0" x2="2277.0" y1="3709.0" y2="3709.0" /><line stroke="#333" stroke-width="10" x1="2277.0" x2="2269.0" y1="3197.0" y2="3197.0" /><line stroke="#666" stroke-width="20" x1="2277.0" x2="2277.0" y1="3197.0" y2="3325.0" /><line stroke="#333" stroke-width="10" x1="2269.0" x2="2277.0" y1="3325.0" y2="3325.0" /><line stroke="#333" stroke-width="10" x1="5.0" x2="261.0" y1="3709.0" y2="3709.0" /><line stroke="#333" stroke-width="10" x1="261.0" x2="5.0" y1="3581.0" y2="3581.0" /><line stroke="#333" stroke-width="10" x1="5.0" x2="5.0" y1="3581.0" y2="3709.0" /><line stroke="#333" stroke-width="10" x1="5.0" x2="5.0" y1="3197.0" y2="3325.0" /><line stroke="#333" stroke-width="10" x1="261.0" x2="5.0" y1="3197.0" y2="3197.0" /><line stroke="#333" stroke-width="10" x1="5.0" x2="261.0" y1="3325.0" y2="3325.0" /><line stroke="#333" stroke-width="10" x1="5.0" x2="261.0" y1="4221.0" y2="4221.0" /><line stroke="#333" stroke-width="10" x1="261.0" x2="5.0" y1="4093.0" y2="4093.0" /><line stroke="#333" stroke-width="10" x1="5.0" x2="5.0" y1="4093.0" y2="4221.0" /><line stroke="#333" stroke-width="10" x1="2533.0" x2="2277.0" y1="4093.0" y2="4093.0" /><line stroke="#333" stroke-width="10" x1="2533.0" x2="2533.0" y1="4221.0" y2="4093.0" /><line stroke="#333" stroke-width="10" x1="2277.0" x2="2533.0" y1="4221.0" y2="4221.0" /><line stroke="#333" stroke-width="10" x1="2277.0" x2="2533.0" y1="3709.0" y2="3709.0" /><line stroke="#333" stroke-width="10" x1="2533.0" x2="2533.0" y1="3709.0" y2="3581.0" /><line stroke="#333" stroke-width="10" x1="2533.0" x2="2277.0" y1="3581.0" y2="3581.0" /><line stroke="#333" stroke-width="10" x1="2533.0" x2="2277.0" y1="3197.0" y2="3197.0" /><line stroke="#333" stroke-width="10" x1="2533.0" x2="2533.0" y1="3325.0" y2="3293.0" /><line stroke="#333" stroke-width="10" x1="2277.0" x2="2533.0" y1="3325.0" y2="3325.0" /><line stroke="#666" stroke-width="20" x1="1269.0" x2="1269.0" y1="1941.0" y2="2005.0" /><line stroke="#333" stroke-width="10" x1="2269.0" x2="1333.0" y1="2069.0" y2="2069.0" /><line stroke="#999" stroke-width="3" x1="2269.0" x2="2269.0" y1="2709.0" y2="2069.0" /><line stroke="#333" stroke-width="10" x1="2269.0" x2="4189.0" y1="2709.0" y2="2709.0" /><line stroke="#333" stroke-width="10" x1="4269.0" x2="4269.0" y1="2709.0" y2="2453.0" /><line stroke="#333" stroke-width="10" x1="4269.0" x2="4205.0" y1="2069.0" y2="2069.0" /><line stroke="#333" stroke-width="10" x1="4277.0" x2="4317.0" y1="2453.0" y2="2453.0" /><line stroke="#999" stroke-width="3" x1="4525.0" x2="4525.0" y1="2453.0" y2="2325.0" /><line stroke="#333" stroke-width="10" x1="4525.0" x2="4461.0" y1="2325.0" y2="2325.0" /><line stroke="#d00" stroke-width="20" x1="4277.0" x2="4277.0" y1="2325.0" y2="2453.0" /><line stroke="#d00" stroke-width="20" x1="4269.0" x2="4269.0" y1="2453.0" y2="2325.0" /><line stroke="#333" stroke-width="10" x1="4269.0" x2="4269.0" y1="2325.0" y2="2069.0" /><line stroke="#333" stroke-width="10" x1="4269.0" x2="4277.0" y1="2453.0" y2="2453.0" /><line stroke="#333" stroke-width="10" x1="4277.0" x2="4269.0" y1="2325.0" y2="2325.0" /><line stroke="#333" stroke-width="10" x1="4461.0" x2="4525.0" y1="2453.0" y2="2453.0" /><line stroke="#333" stroke-width="10" x1="4461.0" x2="4404.0" y1="2325.0" y2="2325.0" /><line stroke="#0d0" stroke-width="20" x1="4461.0" x2="4461.0" y1="2453.0" y2="2325.0" /><line stroke="#333" stroke-width="10" x1="1333.0" x2="1269.0" y1="1941.0" y2="1941.0" /><line stroke="#333" stroke-width="10" x1="1333.0" x2="1333.0" y1="2069.0" y2="1941.0" /><line stroke="#333" stroke-width="10" x1="1269.0" x2="269.0" y1="2069.0" y2="2069.0" /><line stroke="#999" stroke-width="3" x1="1333.0" x2="1269.0" y1="2069.0" y2="2069.0" /><line stroke="#333" stroke-width="10" x1="2269.0" x2="3246.0" y1="2005.0" y2="2005.0" /><line stroke="#333" stroke-width="10" x1="4269.0" x2="4269.0" y1="2005.0" y2="5.0" /><line stroke="#333" stroke-width="10" x1="4269.0" x2="3245.0" y1="5.0" y2="5.0" /><line stroke="#333" stroke-width="10" x1="2269.0" x2="2269.0" y1="5.0" y2="533.0" /><line stroke="#333" stroke-width="10" x1="3245.0" x2="3213.0" y1="69.0" y2="69.0" /><line stroke="#333" stroke-width="10" x1="3117.0" x2="3117.0" y1="69.0" y2="5.0" /><line stroke="#333" stroke-width="10" x1="3245.0" x2="3245.0" y1="5.0" y2="69.0" /><line stroke="#333" stroke-width="10" x1="3117.0" x2="2733.0" y1="5.0" y2="5.0" /><line stroke="#333" stroke-width="10" x1="3149.0" x2="3117.0" y1="69.0" y2="69.0" /><line stroke="#333" stroke-width="10" x1="3213.0" x2="3149.0" y1="69.0" y2="69.0" /><line stroke="#333" stroke-width="10" x1="4205.0" x2="4189.0" y1="2069.0" y2="2069.0" /><line stroke="#333" stroke-width="10" x1="4205.0" x2="4269.0" y1="2709.0" y2="2709.0" /><line stroke="#999" stroke-width="3" x1="4205.0" x2="4205.0" y1="2069.0" y2="2709.0" /><line stroke="#333" stroke-width="10" x1="4189.0" x2="4205.0" y1="2709.0" y2="2709.0" /><line stroke="#333" stroke-width="10" x1="4189.0" x2="3310.0" y1="2069.0" y2="2069.0" /><line stroke="#999" stroke-width="3" x1="4189.0" x2="4189.0" y1="2709.0" y2="2069.0" /><line stroke="#333" stroke-width="10" x1="3310.0" x2="4269.0" y1="2005.0" y2="2005.0" /><line stroke="#666" stroke-width="20" x1="3246.0" x2="3310.0" y1="2005.0" y2="2005.0" /><line stroke="#333" stroke-width="10" x1="3246.0" x2="2269.0" y1="2069.0" y2="2069.0" /><line stroke="#666" stroke-width="20" x1="3310.0" x2="3246.0" y1="2069.0" y2="2069.0" /><line stroke="#333" stroke-width="10" x1="3310.0" x2="3310.0" y1="2069.0" y2="2005.0" /><line stroke="#333" stroke-width="10" x1="3246.0" x2="3246.0" y1="2005.0" y2="2069.0" /><line stroke="#999" stroke-width="3" x1="4237.0" x2="4245.0" y1="2381.0" y2="2381.0" /><line stroke="#999" stroke-width="3" x1="4245.0" x2="4245.0" y1="2381.0" y2="2413.0" /><line stroke="#999" stroke-width="3" x1="4245.0" x2="4237.0" y1="2413.0" y2="2413.0" /><line stroke="#999" stroke-width="3" x1="4237.0" x2="4237.0" y1="2413.0" y2="2381.0" /><line stroke="#333" stroke-width="10" x1="2269.0" x2="2269.0" y1="533.0" y2="2005.0" /><line stroke="#333" stroke-width="10" x1="2733.0" x2="2333.0" y1="5.0" y2="5.0" /><line stroke="#999" stroke-width="3" x1="2733.0" x2="2733.0" y1="5.0" y2="533.0" /><line stroke="#00d" stroke-width="20" x1="2733.0" x2="2269.0" y1="533.0" y2="533.0" /><line stroke="#333" stroke-width="10" x1="2333.0" x2="2269.0" y1="5.0" y2="5.0" /><line stroke="#333" stroke-width="10" x1="541.0" x2="669.0" y1="4845.0" y2="4845.0" /><line stroke="#333" stroke-width="10" x1="669.0" x2="669.0" y1="4845.0" y2="4717.0" /><line stroke="#999" stroke-width="3" x1="669.0" x2="541.0" y1="4717.0" y2="4717.0" /><line stroke="#333" stroke-width="10" x1="541.0" x2="541.0" y1="4717.0" y2="4845.0" /><line stroke="#333" stroke-width="10" x1="669.0" x2="669.0" y1="4717.0" y2="4709.0" /><line stroke="#333" stroke-width="10" x1="541.0" x2="541.0" y1="4709.0" y2="4717.0" /><line stroke="#999" stroke-width="3" x1="4494.0" x2="4502.0" y1="2373.0" y2="2373.0" /><line stroke="#999" stroke-width="3" x1="4502.0" x2="4502.0" y1="2373.0" y2="2405.0" /><line stroke="#999" stroke-width="3" x1="4502.0" x2="4494.0" y1="2405.0" y2="2405.0" /><line stroke="#999" stroke-width="3" x1="4494.0" x2="4494.0" y1="2405.0" y2="2373.0" /><line stroke="#333" stroke-width="10" x1="4565.0" x2="4525.0" y1="2325.0" y2="2325.0" /><line stroke="#333" stroke-width="10" x1="4565.0" x2="4565.0" y1="2293.0" y2="2325.0" /><line stroke="#333" stroke-width="10" x1="4404.0" x2="4565.0" y1="2293.0" y2="2293.0" /><line stroke="#333" stroke-width="10" x1="4404.0" x2="4404.0" y1="2325.0" y2="2293.0" /><line stroke="#333" stroke-width="10" x1="4325.0" x2="4325.0" y1="2213.0" y2="2325.0" /><line stroke="#333" stroke-width="10" x1="4669.0" x2="4325.0" y1="2213.0" y2="2213.0" /><line stroke="#333" stroke-width="10" x1="4669.0" x2="4669.0" y1="2453.0" y2="2213.0" /><line stroke="#333" stroke-width="10" x1="4525.0" x2="4669.0" y1="2453.0" y2="2453.0" /><line stroke="#999" stroke-width="3" x1="4404.0" x2="4325.0" y1="2325.0" y2="2325.0" /><line stroke="#333" stroke-width="10" x1="4325.0" x2="4277.0" y1="2325.0" y2="2325.0" /><line stroke="#999" stroke-width="3" x1="4331.0" x2="4395.0" y1="2335.0" y2="2335.0" /><line stroke="#999" stroke-width="3" x1="4395.0" x2="4395.0" y1="2335.0" y2="2343.0" /><line stroke="#999" stroke-width="3" x1="4395.0" x2="4331.0" y1="2343.0" y2="2343.0" /><line stroke="#999" stroke-width="3" x1="4331.0" x2="4331.0" y1="2343.0" y2="2335.0" /><line stroke="#333" stroke-width="10" x1="269.0" x2="269.0" y1="2069.0" y2="2709.0" /><line stroke="#333" stroke-width="10" x1="1117.0" x2="1245.0" y1="2005.0" y2="2005.0" /><line stroke="#666" stroke-width="20" x1="1245.0" x2="1245.0" y1="2005.0" y2="1941.0" /><line stroke="#333" stroke-width="10" x1="1245.0" x2="1117.0" y1="1941.0" y2="1941.0" /><line stroke="#333" stroke-width="10" x1="1117.0" x2="1117.0" y1="1941.0" y2="2005.0" /><line stroke="#333" stroke-width="10" x1="1269.0" x2="1269.0" y1="2005.0" y2="2069.0" /><line stroke="#333" stroke-width="10" x1="1245.0" x2="1269.0" y1="2005.0" y2="2005.0" /><line stroke="#333" stroke-width="10" x1="1269.0" x2="1245.0" y1="1941.0" y2="1941.0" /><line stroke="#333" stroke-width="10" x1="4317.0" x2="4573.0" y1="2645.0" y2="2645.0" /><line stroke="#333" stroke-width="10" x1="4573.0" x2="4573.0" y1="2645.0" y2="2613.0" /><line stroke="#333" stroke-width="10" x1="4573.0" x2="4381.0" y1="2517.0" y2="2517.0" /><line stroke="#333" stroke-width="10" x1="4317.0" x2="4317.0" y1="2517.0" y2="2645.0" /><line stroke="#333" stroke-width="10" x1="4381.0" x2="4461.0" y1="2453.0" y2="2453.0" /><line stroke="#666" stroke-width="20" x1="4317.0" x2="4381.0" y1="2453.0" y2="2453.0" /><line stroke="#333" stroke-width="10" x1="4381.0" x2="4381.0" y1="2517.0" y2="2453.0" /><line stroke="#333" stroke-width="10" x1="4317.0" x2="4317.0" y1="2453.0" y2="2517.0" /><line stroke="#666" stroke-width="20" x1="4381.0" x2="4317.0" y1="2517.0" y2="2517.0" /><line stroke="#999" stroke-width="3" x1="4512.0" x2="4512.0" y1="2628.0" y2="2596.0" /><line stroke="#999" stroke-width="3" x1="4520.0" x2="4512.0" y1="2628.0" y2="2628.0" /><line stroke="#999" stroke-width="3" x1="4512.0" x2="4520.0" y1="2596.0" y2="2596.0" /><line stroke="#999" stroke-width="3" x1="4513.0" x2="4521.0" y1="2544.0" y2="2544.0" /><line stroke="#999" stroke-width="3" x1="4521.0" x2="4521.0" y1="2544.0" y2="2576.0" /><line stroke="#999" stroke-width="3" x1="4521.0" x2="4513.0" y1="2576.0" y2="2576.0" /><line stroke="#999" stroke-width="3" x1="4513.0" x2="4513.0" y1="2576.0" y2="2544.0" /><line stroke="#333" stroke-width="10" x1="4573.0" x2="4573.0" y1="2549.0" y2="2517.0" /><line stroke="#0d0" stroke-width="20" x1="4573.0" x2="4573.0" y1="2613.0" y2="2549.0" /><line stroke="#999" stroke-width="3" x1="4520.0" x2="4520.0" y1="2596.0" y2="2628.0" /><line stroke="#333" stroke-width="10" x1="2533.0" x2="2533.0" y1="3229.0" y2="3197.0" /><line stroke="#666" stroke-width="20" x1="2533.0" x2="2533.0" y1="3293.0" y2="3229.0" /><line stroke="#999" stroke-width="3" x1="2486.0" x2="2494.0" y1="3249.0" y2="3249.0" /><line stroke="#999" stroke-width="3" x1="2494.0" x2="2494.0" y1="3249.0" y2="3281.0" /><line stroke="#999" stroke-width="3" x1="2494.0" x2="2486.0" y1="3281.0" y2="3281.0" /><line stroke="#999" stroke-width="3" x1="2486.0" x2="2486.0" y1="3281.0" y2="3249.0" /><ellipse cx="571.0" cy="4815.0" fill="#009" rx="12" ry="24" stroke="#009" stroke-width="5" /><rect fill="#090" height="24" stroke="#090" stroke-width="5" transform="rotate(90,2064.0,2632.0)" width="24" x="2052.0" y="2620.0" /><rect fill="#090" height="24" stroke="#090" stroke-width="5" transform="rotate(90,1950.0,2632.0)" width="24" x="1938.0" y="2620.0" /><rect fill="#090" height="24" stroke="#090" stroke-width="5" transform="rotate(90,1830.0,2632.0)" width="24" x="1818.0" y="2620.0" /><rect fill="#090" height="24" stroke="#090" stroke-width="5" transform="rotate(90,1710.0,2632.0)" width="24" x="1698.0" y="2620.0" /><rect fill="#090" height="24" stroke="#090" stroke-width="5" transform="rotate(90,1590.0,2632.0)" width="24" x="1578.0" y="2620.0" /><rect fill="#090" height="24" stroke="#090" stroke-width="5" transform="rotate(90,1472.0,2632.0)" width="24" x="1460.0" y="2620.0" /><rect fill="#090" height="24" stroke="#090" stroke-width="5" transform="rotate(90,1352.0,2632.0)" width="24" x="1340.0" y="2620.0" /><rect fill="#090" height="24" stroke="#090" stroke-width="5" transform="rotate(90,1232.0,2632.0)" width="24" x="1220.0" y="2620.0" /><rect fill="#090" height="24" stroke="#090" stroke-width="5" transform="rotate(90,1112.0,2632.0)" width="24" x="1100.0" y="2620.0" /><rect fill="#090" height="24" stroke="#090" stroke-width="5" transform="rotate(90,992.0,2632.0)" width="24" x="980.0" y="2620.0" /><rect fill="#090" height="24" stroke="#090" stroke-width="5" transform="rotate(90,872.0,2632.0)" width="24" x="860.0" y="2620.0" /><rect fill="#090" height="24" stroke="#090" stroke-width="5" transform="rotate(90,333.0,2632.0)" width="24" x="321.0" y="2620.0" /><rect fill="#090" height="24" stroke="#090" stroke-width="5" transform="rotate(90,453.0,2632.0)" width="24" x="441.0" y="2620.0" /><rect fill="#090" height="24" stroke="#090" stroke-width="5" transform="rotate(90,573.0,2632.0)" width="24" x="561.0" y="2620.0" /><rect fill="#090" height="24" stroke="#090" stroke-width="5" transform="rotate(90,693.0,2632.0)" width="24" x="681.0" y="2620.0" /><rect fill="#090" height="24" stroke="#090" stroke-width="5" transform="rotate(90,813.0,2632.0)" width="24" x="801.0" y="2620.0" /><rect fill="#090" height="24" stroke="#090" stroke-width="5" transform="rotate(90,933.0,2632.0)" width="24" x="921.0" y="2620.0" /><rect fill="#090" height="24" stroke="#090" stroke-width="5" transform="rotate(90,1051.0,2632.0)" width="24" x="1039.0" y="2620.0" /><rect fill="#090" height="24" stroke="#090" stroke-width="5" transform="rotate(90,1171.0,2632.0)" width="24" x="1159.0" y="2620.0" /><rect fill="#090" height="24" stroke="#090" stroke-width="5" transform="rotate(90,1291.0,2632.0)" width="24" x="1279.0" y="2620.0" /><rect fill="#090" height="24" stroke="#090" stroke-width="5" transform="rotate(90,1411.0,2632.0)" width="24" x="1399.0" y="2620.0" /><rect fill="#090" height="24" stroke="#090" stroke-width="5" transform="rotate(90,1531.0,2632.0)" width="24" x="1519.0" y="2620.0" /><rect fill="#900" height="48" stroke="#900" stroke-width="5" transform="rotate(0,3539.0,2266.0)" width="32" x="3523.0" y="2242.0" /><rect fill="#900" height="48" stroke="#900" stroke-width="5" transform="rotate(0,3632.0,2386.0)" width="32" x="3616.0" y="2362.0" /><rect fill="#900" height="48" stroke="#900" stroke-width="5" transform="rotate(0,3495.0,2519.0)" width="32" x="3479.0" y="2495.0" /><rect fill="#900" height="48" stroke="#900" stroke-width="5" transform="rotate(0,3392.0,2386.0)" width="32" x="3376.0" y="2362.0" /><rect fill="#900" height="48" stroke="#900" stroke-width="5" transform="rotate(0,3272.0,2386.0)" width="32" x="3256.0" y="2362.0" /><rect fill="#900" height="48" stroke="#900" stroke-width="5" transform="rotate(0,3152.0,2386.0)" width="32" x="3136.0" y="2362.0" /><rect fill="#900" height="48" stroke="#900" stroke-width="5" transform="rotate(0,3032.0,2386.0)" width="32" x="3016.0" y="2362.0" /><rect fill="#900" height="48" stroke="#900" stroke-width="5" transform="rotate(0,3032.0,2506.0)" width="32" x="3016.0" y="2482.0" /><rect fill="#900" height="48" stroke="#900" stroke-width="5" transform="rotate(0,3032.0,2268.0)" width="32" x="3016.0" y="2244.0" /><rect fill="#900" height="48" stroke="#900" stroke-width="5" transform="rotate(0,3935.0,2409.0)" width="32" x="3919.0" y="2385.0" /><circle cx="40.0" cy="4157.0" fill="#090" r="16" stroke="#090" stroke-width="5" /><circle cx="160.0" cy="4157.0" fill="#090" r="16" stroke="#090" stroke-width="5" /><circle cx="100.0" cy="4157.0" fill="#090" r="16" stroke="#090" stroke-width="5" /><circle cx="100.0" cy="4197.0" fill="#090" r="16" stroke="#090" stroke-width="5" /><circle cx="40.0" cy="4197.0" fill="#090" r="16" stroke="#090" stroke-width="5" /><circle cx="40.0" cy="4117.0" fill="#090" r="16" stroke="#090" stroke-width="5" /><circle cx="100.0" cy="4117.0" fill="#090" r="16" stroke="#090" stroke-width="5" /><circle cx="160.0" cy="4117.0" fill="#090" r="16" stroke="#090" stroke-width="5" /><circle cx="220.0" cy="4117.0" fill="#090" r="16" stroke="#090" stroke-width="5" /><circle cx="220.0" cy="4157.0" fill="#090" r="16" stroke="#090" stroke-width="5" /><circle cx="220.0" cy="4197.0" fill="#090" r="16" stroke="#090" stroke-width="5" /><circle cx="160.0" cy="4197.0" fill="#090" r="16" stroke="#090" stroke-width="5" /><circle cx="216.0" cy="3605.0" fill="#090" r="16" stroke="#090" stroke-width="5" /><circle cx="156.0" cy="3685.0" fill="#090" r="16" stroke="#090" stroke-width="5" /><circle cx="216.0" cy="3685.0" fill="#090" r="16" stroke="#090" stroke-width="5" /><circle cx="216.0" cy="3645.0" fill="#090" r="16" stroke="#090" stroke-width="5" /><circle cx="156.0" cy="3605.0" fill="#090" r="16" stroke="#090" stroke-width="5" /><circle cx="96.0" cy="3605.0" fill="#090" r="16" stroke="#090" stroke-width="5" /><circle cx="36.0" cy="3605.0" fill="#090" r="16" stroke="#090" stroke-width="5" /><circle cx="36.0" cy="3685.0" fill="#090" r="16" stroke="#090" stroke-width="5" /><circle cx="96.0" cy="3685.0" fill="#090" r="16" stroke="#090" stroke-width="5" /><circle cx="96.0" cy="3645.0" fill="#090" r="16" stroke="#090" stroke-width="5" /><circle cx="156.0" cy="3645.0" fill="#090" r="16" stroke="#090" stroke-width="5" /><circle cx="36.0" cy="3645.0" fill="#090" r="16" stroke="#090" stroke-width="5" /><circle cx="221.0" cy="3221.0" fill="#090" r="16" stroke="#090" stroke-width="5" /><circle cx="161.0" cy="3301.0" fill="#090" r="16" stroke="#090" stroke-width="5" /><circle cx="221.0" cy="3301.0" fill="#090" r="16" stroke="#090" stroke-width="5" /><circle cx="221.0" cy="3261.0" fill="#090" r="16" stroke="#090" stroke-width="5" /><circle cx="161.0" cy="3221.0" fill="#090" r="16" stroke="#090" stroke-width="5" /><circle cx="101.0" cy="3221.0" fill="#090" r="16" stroke="#090" stroke-width="5" /><circle cx="41.0" cy="3221.0" fill="#090" r="16" stroke="#090" stroke-width="5" /><circle cx="41.0" cy="3301.0" fill="#090" r="16" stroke="#090" stroke-width="5" /><circle cx="101.0" cy="3301.0" fill="#090" r="16" stroke="#090" stroke-width="5" /><circle cx="101.0" cy="3261.0" fill="#090" r="16" stroke="#090" stroke-width="5" /><circle cx="161.0" cy="3261.0" fill="#090" r="16" stroke="#090" stroke-width="5" /><circle cx="41.0" cy="3261.0" fill="#090" r="16" stroke="#090" stroke-width="5" /><circle cx="2169.0" cy="2797.0" fill="#900" r="16" stroke="#900" stroke-width="5" /><circle cx="335.0" cy="4637.0" fill="#900" r="16" stroke="#900" stroke-width="5" /><circle cx="335.0" cy="2797.0" fill="#900" r="16" stroke="#900" stroke-width="5" /><circle cx="2336.0" cy="81.0" fill="#900" r="16" stroke="#900" stroke-width="5" /><rect fill="#090" height="24" stroke="#090" stroke-width="5" transform="rotate(0,1205.0,3713.0)" width="24" x="1193.0" y="3701.0" /><circle cx="1271.0" cy="4928.0" fill="#009" r="16" stroke="#009" stroke-width="5" /><circle cx="2427.0" cy="4156.0" fill="#009" r="16" stroke="#009" stroke-width="5" /><ellipse cx="2423.0" cy="3259.0" fill="#090" rx="12" ry="24" stroke="#090" stroke-width="5" /><ellipse cx="2433.0" cy="3649.0" fill="#090" rx="12" ry="24" stroke="#090" stroke-width="5" /><ellipse cx="1259.0" cy="4868.0" fill="#090" rx="12" ry="24" stroke="#090" stroke-width="5" /><rect fill="#900" height="48" stroke="#900" stroke-width="5" transform="rotate(0,2409.0,4163.0)" width="32" x="2393.0" y="4139.0" /><rect fill="#900" height="48" stroke="#900" stroke-width="5" transform="rotate(0,2349.0,3651.0)" width="32" x="2333.0" y="3627.0" /><rect fill="#900" height="48" stroke="#900" stroke-width="5" transform="rotate(0,2352.0,3266.0)" width="32" x="2336.0" y="3242.0" /><rect fill="#090" height="24" stroke="#090" stroke-width="5" transform="rotate(90,1651.0,2632.0)" width="24" x="1639.0" y="2620.0" /><rect fill="#090" height="24" stroke="#090" stroke-width="5" transform="rotate(90,1771.0,2632.0)" width="24" x="1759.0" y="2620.0" /><rect fill="#090" height="24" stroke="#090" stroke-width="5" transform="rotate(90,1891.0,2632.0)" width="24" x="1879.0" y="2620.0" /><rect fill="#090" height="24" stroke="#090" stroke-width="5" transform="rotate(90,2005.0,2632.0)" width="24" x="1993.0" y="2620.0" /><rect fill="#090" height="24" stroke="#090" stroke-width="5" transform="rotate(90,392.0,2632.0)" width="24" x="380.0" y="2620.0" /><rect fill="#090" height="24" stroke="#090" stroke-width="5" transform="rotate(90,512.0,2632.0)" width="24" x="500.0" y="2620.0" /><rect fill="#090" height="24" stroke="#090" stroke-width="5" transform="rotate(90,632.0,2632.0)" width="24" x="620.0" y="2620.0" /><rect fill="#090" height="24" stroke="#090" stroke-width="5" transform="rotate(90,746.0,2632.0)" width="24" x="734.0" y="2620.0" /><rect fill="#090" height="24" stroke="#090" stroke-width="5" transform="rotate(90,787.0,2142.0)" width="24" x="775.0" y="2130.0" /><rect fill="#090" height="24" stroke="#090" stroke-width="5" transform="rotate(90,673.0,2142.0)" width="24" x="661.0" y="2130.0" /><rect fill="#090" height="24" stroke="#090" stroke-width="5" transform="rotate(90,553.0,2142.0)" width="24" x="541.0" y="2130.0" /><rect fill="#090" height="24" stroke="#090" stroke-width="5" transform="rotate(90,433.0,2142.0)" width="24" x="421.0" y="2130.0" /><rect fill="#090" height="24" stroke="#090" stroke-width="5" transform="rotate(90,2046.0,2142.0)" width="24" x="2034.0" y="2130.0" /><rect fill="#090" height="24" stroke="#090" stroke-width="5" transform="rotate(90,1932.0,2142.0)" width="24" x="1920.0" y="2130.0" /><rect fill="#090" height="24" stroke="#090" stroke-width="5" transform="rotate(90,1812.0,2142.0)" width="24" x="1800.0" y="2130.0" /><rect fill="#090" height="24" stroke="#090" stroke-width="5" transform="rotate(90,1692.0,2142.0)" width="24" x="1680.0" y="2130.0" /><rect fill="#090" height="24" stroke="#090" stroke-width="5" transform="rotate(90,1572.0,2142.0)" width="24" x="1560.0" y="2130.0" /><rect fill="#090" height="24" stroke="#090" stroke-width="5" transform="rotate(90,1452.0,2142.0)" width="24" x="1440.0" y="2130.0" /><rect fill="#090" height="24" stroke="#090" stroke-width="5" transform="rotate(90,1332.0,2142.0)" width="24" x="1320.0" y="2130.0" /><rect fill="#090" height="24" stroke="#090" stroke-width="5" transform="rotate(90,1212.0,2142.0)" width="24" x="1200.0" y="2130.0" /><rect fill="#090" height="24" stroke="#090" stroke-width="5" transform="rotate(90,1092.0,2142.0)" width="24" x="1080.0" y="2130.0" /><rect fill="#090" height="24" stroke="#090" stroke-width="5" transform="rotate(90,974.0,2142.0)" width="24" x="962.0" y="2130.0" /><rect fill="#090" height="24" stroke="#090" stroke-width="5" transform="rotate(90,854.0,2142.0)" width="24" x="842.0" y="2130.0" /><rect fill="#090" height="24" stroke="#090" stroke-width="5" transform="rotate(90,734.0,2142.0)" width="24" x="722.0" y="2130.0" /><rect fill="#090" height="24" stroke="#090" stroke-width="5" transform="rotate(90,614.0,2142.0)" width="24" x="602.0" y="2130.0" /><rect fill="#090" height="24" stroke="#090" stroke-width="5" transform="rotate(90,494.0,2142.0)" width="24" x="482.0" y="2130.0" /><rect fill="#090" height="24" stroke="#090" stroke-width="5" transform="rotate(90,374.0,2142.0)" width="24" x="362.0" y="2130.0" /><rect fill="#090" height="24" stroke="#090" stroke-width="5" transform="rotate(90,913.0,2142.0)" width="24" x="901.0" y="2130.0" /><rect fill="#090" height="24" stroke="#090" stroke-width="5" transform="rotate(90,1033.0,2142.0)" width="24" x="1021.0" y="2130.0" /><rect fill="#090" height="24" stroke="#090" stroke-width="5" transform="rotate(90,1153.0,2142.0)" width="24" x="1141.0" y="2130.0" /><rect fill="#090" height="24" stroke="#090" stroke-width="5" transform="rotate(90,1273.0,2142.0)" width="24" x="1261.0" y="2130.0" /><rect fill="#090" height="24" stroke="#090" stroke-width="5" transform="rotate(90,1393.0,2142.0)" width="24" x="1381.0" y="2130.0" /><rect fill="#090" height="24" stroke="#090" stroke-width="5" transform="rotate(90,1513.0,2142.0)" width="24" x="1501.0" y="2130.0" /><rect fill="#090" height="24" stroke="#090" stroke-width="5" transform="rotate(90,1631.0,2142.0)" width="24" x="1619.0" y="2130.0" /><rect fill="#090" height="24" stroke="#090" stroke-width="5" transform="rotate(90,1751.0,2142.0)" width="24" x="1739.0" y="2130.0" /><rect fill="#090" height="24" stroke="#090" stroke-width="5" transform="rotate(90,1871.0,2142.0)" width="24" x="1859.0" y="2130.0" /><rect fill="#090" height="24" stroke="#090" stroke-width="5" transform="rotate(90,1991.0,2142.0)" width="24" x="1979.0" y="2130.0" /><rect fill="#090" height="24" stroke="#090" stroke-width="5" transform="rotate(90,2105.0,2142.0)" width="24" x="2093.0" y="2130.0" /><rect fill="#090" height="24" stroke="#090" stroke-width="5" transform="rotate(315,2220.0,3257.0)" width="24" x="2208.0" y="3245.0" /><rect fill="#090" height="24" stroke="#090" stroke-width="5" transform="rotate(315,322.0,3257.0)" width="24" x="310.0" y="3245.0" /><rect fill="#090" height="24" stroke="#090" stroke-width="5" transform="rotate(315,327.0,3645.0)" width="24" x="315.0" y="3633.0" /><rect fill="#090" height="24" stroke="#090" stroke-width="5" transform="rotate(315,317.0,4155.0)" width="24" x="305.0" y="4143.0" /><rect fill="#090" height="24" stroke="#090" stroke-width="5" transform="rotate(315,2215.0,3660.0)" width="24" x="2203.0" y="3648.0" /><rect fill="#090" height="24" stroke="#090" stroke-width="5" transform="rotate(315,2215.0,4160.0)" width="24" x="2203.0" y="4148.0" /><rect fill="#090" height="24" stroke="#090" stroke-width="5" transform="rotate(315,1262.0,4661.0)" width="24" x="1250.0" y="4649.0" /><ellipse cx="641.0" cy="4817.0" fill="#009" rx="12" ry="24" stroke="#009" stroke-width="5" /><ellipse cx="643.0" cy="4767.0" fill="#009" rx="12" ry="24" stroke="#009" stroke-width="5" /><ellipse cx="571.0" cy="4763.0" fill="#009" rx="12" ry="24" stroke="#009" stroke-width="5" /><rect fill="#090" height="24" stroke="#090" stroke-width="5" transform="rotate(270,605.0,4789.0)" width="24" x="593.0" y="4777.0" /><rect fill="#090" height="24" stroke="#090" stroke-width="5" transform="rotate(270,1801.0,4641.0)" width="24" x="1789.0" y="4629.0" /><rect fill="#090" height="24" stroke="#090" stroke-width="5" transform="rotate(270,1264.0,4803.0)" width="24" x="1252.0" y="4791.0" /><rect fill="#090" height="24" stroke="#090" stroke-width="5" transform="rotate(270,72.0,4139.0)" width="24" x="60.0" y="4127.0" /><rect fill="#090" height="24" stroke="#090" stroke-width="5" transform="rotate(270,126.0,3630.0)" width="24" x="114.0" y="3618.0" /><rect fill="#090" height="24" stroke="#090" stroke-width="5" transform="rotate(270,126.0,3279.0)" width="24" x="114.0" y="3267.0" /><rect fill="#090" height="24" stroke="#090" stroke-width="5" transform="rotate(270,643.0,2454.0)" width="24" x="631.0" y="2442.0" /><rect fill="#090" height="24" stroke="#090" stroke-width="5" transform="rotate(0,2490.0,2388.0)" width="24" x="2478.0" y="2376.0" /><rect fill="#009" height="24" stroke="#009" stroke-width="5" transform="rotate(270,611.0,4782.0)" width="24" x="599.0" y="4770.0" /><rect fill="#090" height="24" stroke="#090" stroke-width="5" transform="rotate(90,4111.0,656.0)" width="24" x="4099.0" y="644.0" /><rect fill="#090" height="24" stroke="#090" stroke-width="5" transform="rotate(90,3997.0,656.0)" width="24" x="3985.0" y="644.0" /><rect fill="#090" height="24" stroke="#090" stroke-width="5" transform="rotate(90,3877.0,656.0)" width="24" x="3865.0" y="644.0" /><rect fill="#090" height="24" stroke="#090" stroke-width="5" transform="rotate(90,3757.0,656.0)" width="24" x="3745.0" y="644.0" /><rect fill="#090" height="24" stroke="#090" stroke-width="5" transform="rotate(90,3637.0,656.0)" width="24" x="3625.0" y="644.0" /><rect fill="#090" height="24" stroke="#090" stroke-width="5" transform="rotate(90,3519.0,656.0)" width="24" x="3507.0" y="644.0" /><rect fill="#090" height="24" stroke="#090" stroke-width="5" transform="rotate(90,3399.0,656.0)" width="24" x="3387.0" y="644.0" /><rect fill="#090" height="24" stroke="#090" stroke-width="5" transform="rotate(90,3279.0,656.0)" width="24" x="3267.0" y="644.0" /><rect fill="#090" height="24" stroke="#090" stroke-width="5" transform="rotate(90,3159.0,656.0)" width="24" x="3147.0" y="644.0" /><rect fill="#090" height="24" stroke="#090" stroke-width="5" transform="rotate(90,3039.0,656.0)" width="24" x="3027.0" y="644.0" /><rect fill="#090" height="24" stroke="#090" stroke-width="5" transform="rotate(90,2919.0,656.0)" width="24" x="2907.0" y="644.0" /><rect fill="#090" height="24" stroke="#090" stroke-width="5" transform="rotate(90,2380.0,656.0)" width="24" x="2368.0" y="644.0" /><rect fill="#090" height="24" stroke="#090" stroke-width="5" transform="rotate(90,2500.0,656.0)" width="24" x="2488.0" y="644.0" /><rect fill="#090" height="24" stroke="#090" stroke-width="5" transform="rotate(90,2620.0,656.0)" width="24" x="2608.0" y="644.0" /><rect fill="#090" height="24" stroke="#090" stroke-width="5" transform="rotate(90,2740.0,656.0)" width="24" x="2728.0" y="644.0" /><rect fill="#090" height="24" stroke="#090" stroke-width="5" transform="rotate(90,2860.0,656.0)" width="24" x="2848.0" y="644.0" /><rect fill="#090" height="24" stroke="#090" stroke-width="5" transform="rotate(90,2980.0,656.0)" width="24" x="2968.0" y="644.0" /><rect fill="#090" height="24" stroke="#090" stroke-width="5" transform="rotate(90,3098.0,656.0)" width="24" x="3086.0" y="644.0" /><rect fill="#090" height="24" stroke="#090" stroke-width="5" transform="rotate(90,3218.0,656.0)" width="24" x="3206.0" y="644.0" /><rect fill="#090" height="24" stroke="#090" stroke-width="5" transform="rotate(90,3338.0,656.0)" width="24" x="3326.0" y="644.0" /><rect fill="#090" height="24" stroke="#090" stroke-width="5" transform="rotate(90,3458.0,656.0)" width="24" x="3446.0" y="644.0" /><rect fill="#090" height="24" stroke="#090" stroke-width="5" transform="rotate(90,3578.0,656.0)" width="24" x="3566.0" y="644.0" /><rect fill="#090" height="24" stroke="#090" stroke-width="5" transform="rotate(90,3698.0,656.0)" width="24" x="3686.0" y="644.0" /><rect fill="#090" height="24" stroke="#090" stroke-width="5" transform="rotate(90,3818.0,656.0)" width="24" x="3806.0" y="644.0" /><rect fill="#090" height="24" stroke="#090" stroke-width="5" transform="rotate(90,3938.0,656.0)" width="24" x="3926.0" y="644.0" /><rect fill="#090" height="24" stroke="#090" stroke-width="5" transform="rotate(90,4052.0,656.0)" width="24" x="4040.0" y="644.0" /><rect fill="#090" height="24" stroke="#090" stroke-width="5" transform="rotate(90,2439.0,656.0)" width="24" x="2427.0" y="644.0" /><rect fill="#090" height="24" stroke="#090" stroke-width="5" transform="rotate(90,2559.0,656.0)" width="24" x="2547.0" y="644.0" /><rect fill="#090" height="24" stroke="#090" stroke-width="5" transform="rotate(90,2679.0,656.0)" width="24" x="2667.0" y="644.0" /><rect fill="#090" height="24" stroke="#090" stroke-width="5" transform="rotate(90,2793.0,656.0)" width="24" x="2781.0" y="644.0" /><rect fill="#090" height="24" stroke="#090" stroke-width="5" transform="rotate(90,2687.0,393.0)" width="24" x="2675.0" y="381.0" /><rect fill="#090" height="24" stroke="#090" stroke-width="5" transform="rotate(90,2573.0,393.0)" width="24" x="2561.0" y="381.0" /><rect fill="#090" height="24" stroke="#090" stroke-width="5" transform="rotate(90,2453.0,393.0)" width="24" x="2441.0" y="381.0" /><rect fill="#090" height="24" stroke="#090" stroke-width="5" transform="rotate(90,2333.0,393.0)" width="24" x="2321.0" y="381.0" /><rect fill="#090" height="24" stroke="#090" stroke-width="5" transform="rotate(90,3565.0,105.0)" width="24" x="3553.0" y="93.0" /><rect fill="#090" height="24" stroke="#090" stroke-width="5" transform="rotate(90,3685.0,105.0)" width="24" x="3673.0" y="93.0" /><rect fill="#090" height="24" stroke="#090" stroke-width="5" transform="rotate(90,3805.0,105.0)" width="24" x="3793.0" y="93.0" /><rect fill="#090" height="24" stroke="#090" stroke-width="5" transform="rotate(90,3925.0,105.0)" width="24" x="3913.0" y="93.0" /><circle cx="4045.0" cy="105.0" fill="#900" r="16" stroke="#900" stroke-width="5" /><rect fill="#090" height="24" stroke="#090" stroke-width="5" transform="rotate(0,2389.0,1897.0)" width="24" x="2377.0" y="1885.0" /><rect fill="#090" height="24" stroke="#090" stroke-width="5" transform="rotate(0,2365.0,993.0)" width="24" x="2353.0" y="981.0" /><rect fill="#090" height="24" stroke="#090" stroke-width="5" transform="rotate(0,2381.0,1193.0)" width="24" x="2369.0" y="1181.0" /><rect fill="#090" height="24" stroke="#090" stroke-width="5" transform="rotate(0,2381.0,1369.0)" width="24" x="2369.0" y="1357.0" /><rect fill="#090" height="24" stroke="#090" stroke-width="5" transform="rotate(0,2397.0,1737.0)" width="24" x="2385.0" y="1725.0" /><rect fill="#090" height="24" stroke="#090" stroke-width="5" transform="rotate(0,2389.0,1577.0)" width="24" x="2377.0" y="1565.0" /><rect fill="#090" height="24" stroke="#090" stroke-width="5" transform="rotate(270,3405.0,2185.0)" width="24" x="3393.0" y="2173.0" /><rect fill="#090" height="24" stroke="#090" stroke-width="5" transform="rotate(270,2805.0,89.0)" width="24" x="2793.0" y="77.0" /><circle cx="2965.0" cy="97.0" fill="#900" r="16" stroke="#900" stroke-width="5" /><circle cx="2973.0" cy="185.0" fill="#090" r="16" stroke="#090" stroke-width="5" /><circle cx="2813.0" cy="185.0" fill="#090" r="16" stroke="#090" stroke-width="5" /><circle cx="2813.0" cy="345.0" fill="#090" r="16" stroke="#090" stroke-width="5" /><circle cx="2973.0" cy="345.0" fill="#090" r="16" stroke="#090" stroke-width="5" /><circle cx="3133.0" cy="345.0" fill="#090" r="16" stroke="#090" stroke-width="5" /><circle cx="3133.0" cy="185.0" fill="#090" r="16" stroke="#090" stroke-width="5" /><circle cx="2181.0" cy="4619.0" fill="#900" r="16" stroke="#900" stroke-width="5" /><rect fill="#900" height="48" stroke="#900" stroke-width="5" transform="rotate(0,2331.0,4163.0)" width="32" x="2315.0" y="4139.0" /><circle cx="156.0" cy="4197.0" fill="#090" r="16" stroke="#090" stroke-width="5" /><circle cx="216.0" cy="4197.0" fill="#090" r="16" stroke="#090" stroke-width="5" /><circle cx="216.0" cy="4157.0" fill="#090" r="16" stroke="#090" stroke-width="5" /><circle cx="216.0" cy="4117.0" fill="#090" r="16" stroke="#090" stroke-width="5" /><circle cx="156.0" cy="4117.0" fill="#090" r="16" stroke="#090" stroke-width="5" /><circle cx="156.0" cy="4157.0" fill="#090" r="16" stroke="#090" stroke-width="5" /><rect fill="#090" height="24" stroke="#090" stroke-width="5" transform="rotate(0,4425.0,2431.0)" width="24" x="4413.0" y="2419.0" /><rect fill="#090" height="24" stroke="#090" stroke-width="5" transform="rotate(0,4426.0,2390.0)" width="24" x="4414.0" y="2378.0" /><rect fill="#090" height="24" stroke="#090" stroke-width="5" transform="rotate(0,4426.0,2350.0)" width="24" x="4414.0" y="2338.0" /><rect fill="#090" height="24" stroke="#090" stroke-width="5" transform="rotate(0,1366.0,3706.0)" width="24" x="1354.0" y="3694.0" /><rect fill="#090" height="24" stroke="#090" stroke-width="5" transform="rotate(0,2376.0,2299.0)" width="24" x="2364.0" y="2287.0" /><rect fill="#090" height="24" stroke="#090" stroke-width="5" transform="rotate(0,2537.0,2292.0)" width="24" x="2525.0" y="2280.0" /><rect fill="#090" height="24" stroke="#090" stroke-width="5" transform="rotate(90,3363.0,102.0)" width="24" x="3351.0" y="90.0" /><circle cx="2195.0" cy="2991.0" fill="#009" r="16" stroke="#009" stroke-width="5" /><circle cx="343.0" cy="3018.0" fill="#009" r="16" stroke="#009" stroke-width="5" /><circle cx="937.0" cy="4627.0" fill="#009" r="16" stroke="#009" stroke-width="5" /><circle cx="384.0" cy="2365.0" fill="#009" r="16" stroke="#009" stroke-width="5" /><circle cx="1297.0" cy="2376.0" fill="#009" r="16" stroke="#009" stroke-width="5" /><circle cx="2120.0" cy="2365.0" fill="#009" r="16" stroke="#009" stroke-width="5" /><circle cx="2725.0" cy="2541.0" fill="#009" r="16" stroke="#009" stroke-width="5" /><circle cx="2769.0" cy="1894.0" fill="#009" r="16" stroke="#009" stroke-width="5" /><circle cx="4001.0" cy="1839.0" fill="#009" r="16" stroke="#009" stroke-width="5" /><circle cx="4100.0" cy="1135.0" fill="#009" r="16" stroke="#009" stroke-width="5" /><circle cx="2879.0" cy="1091.0" fill="#009" r="16" stroke="#009" stroke-width="5" /><circle cx="3528.0" cy="926.0" fill="#009" r="16" stroke="#009" stroke-width="5" /><circle cx="3352.0" cy="376.0" fill="#009" r="16" stroke="#009" stroke-width="5" /><circle cx="1150.0" cy="1973.0" fill="#900" r="16" stroke="#900" stroke-width="5" /><circle cx="1208.0" cy="1972.0" fill="#009" r="16" stroke="#009" stroke-width="5" /><rect fill="#900" height="48" stroke="#900" stroke-width="5" transform="rotate(270,3308.0,1663.0)" width="32" x="3292.0" y="1639.0" /><circle cx="1152.0" cy="1973.0" fill="#900" r="16" stroke="#900" stroke-width="5" /></svg>