<?xml version="1.0" encoding="utf-8" ?>
<svg baseProfile="tiny" height="1024" version="1.2" viewBox="0 0 8522 10378" width="840" xmlns="http://www.w3.org/2000/svg" xmlns:ev="http://www.w3.org/2001/xml-events" xmlns:xlink="http://www.w3.org/1999/xlink"><defs /><line stroke="#333" stroke-width="10" x1="5.0" x2="5.0" y1="5.0" y2="837.0" /><line stroke="#333" stroke-width="10" x1="7109.0" x2="6277.0" y1="5.0" y2="5.0" /><line stroke="#333" stroke-width="10" x1="7109.0" x2="7109.0" y1="10373.0" y2="9349.0" /><line stroke="#333" stroke-width="10" x1="5.0" x2="1029.0" y1="10373.0" y2="10373.0" /><line stroke="#333" stroke-width="10" x1="1989.0" x2="2501.0" y1="10373.0" y2="10373.0" /><line stroke="#333" stroke-width="10" x1="4677.0" x2="5317.0" y1="10373.0" y2="10373.0" /><line stroke="#333" stroke-width="10" x1="6213.0" x2="7109.0" y1="10373.0" y2="10373.0" /><line stroke="#333" stroke-width="10" x1="3333.0" x2="3781.0" y1="10373.0" y2="10373.0" /><line stroke="#333" stroke-width="10" x1="1029.0" x2="1989.0" y1="10373.0" y2="10373.0" /><line stroke="#333" stroke-width="10" x1="3781.0" x2="4677.0" y1="10373.0" y2="10373.0" /><line stroke="#333" stroke-width="10" x1="2501.0" x2="3333.0" y1="10373.0" y2="10373.0" /><line stroke="#333" stroke-width="10" x1="5317.0" x2="6213.0" y1="10373.0" y2="10373.0" /><line stroke="#333" stroke-width="10" x1="5.0" x2="5.0" y1="5189.0" y2="6021.0" /><line stroke="#333" stroke-width="10" x1="5.0" x2="5.0" y1="7813.0" y2="8325.0" /><line stroke="#333" stroke-width="10" x1="5.0" x2="5.0" y1="1669.0" y2="2693.0" /><line stroke="#333" stroke-width="10" x1="5.0" x2="5.0" y1="6469.0" y2="7365.0" /><line stroke="#333" stroke-width="10" x1="5.0" x2="5.0" y1="3525.0" y2="4421.0" /><line stroke="#333" stroke-width="10" x1="5.0" x2="5.0" y1="837.0" y2="1669.0" /><line stroke="#333" stroke-width="10" x1="5.0" x2="5.0" y1="9093.0" y2="10373.0" /><line stroke="#333" stroke-width="10" x1="5.0" x2="5.0" y1="8325.0" y2="9093.0" /><line stroke="#333" stroke-width="10" x1="5.0" x2="5.0" y1="7365.0" y2="7813.0" /><line stroke="#333" stroke-width="10" x1="5.0" x2="5.0" y1="6021.0" y2="6469.0" /><line stroke="#333" stroke-width="10" x1="5.0" x2="5.0" y1="4421.0" y2="5189.0" /><line stroke="#333" stroke-width="10" x1="5.0" x2="5.0" y1="2693.0" y2="3525.0" /><line stroke="#333" stroke-width="10" x1="3397.0" x2="2565.0" y1="5.0" y2="5.0" /><line stroke="#333" stroke-width="10" x1="1541.0" x2="837.0" y1="5.0" y2="5.0" /><line stroke="#333" stroke-width="10" x1="5381.0" x2="4741.0" y1="5.0" y2="5.0" /><line stroke="#333" stroke-width="10" x1="837.0" x2="5.0" y1="5.0" y2="5.0" /><line stroke="#333" stroke-width="10" x1="2565.0" x2="2053.0" y1="5.0" y2="5.0" /><line stroke="#333" stroke-width="10" x1="4229.0" x2="3397.0" y1="5.0" y2="5.0" /><line stroke="#333" stroke-width="10" x1="6277.0" x2="5381.0" y1="5.0" y2="5.0" /><line stroke="#333" stroke-width="10" x1="4741.0" x2="4229.0" y1="5.0" y2="5.0" /><line stroke="#333" stroke-width="10" x1="2053.0" x2="1541.0" y1="5.0" y2="5.0" /><line stroke="#333" stroke-width="10" x1="7109.0" x2="7109.0" y1="517.0" y2="5.0" /><line stroke="#333" stroke-width="10" x1="7109.0" x2="7109.0" y1="1605.0" y2="517.0" /><line stroke="#333" stroke-width="10" x1="7109.0" x2="7109.0" y1="2821.0" y2="2245.0" /><line stroke="#333" stroke-width="10" x1="7109.0" x2="7109.0" y1="2245.0" y2="1605.0" /><line stroke="#333" stroke-width="10" x1="7109.0" x2="7109.0" y1="3461.0" y2="2821.0" /><line stroke="#333" stroke-width="10" x1="7109.0" x2="7109.0" y1="3973.0" y2="3461.0" /><line stroke="#333" stroke-width="10" x1="7109.0" x2="7109.0" y1="4677.0" y2="3973.0" /><line stroke="#333" stroke-width="10" x1="7109.0" x2="7109.0" y1="5573.0" y2="4677.0" /><line stroke="#333" stroke-width="10" x1="7109.0" x2="7109.0" y1="6149.0" y2="5573.0" /><line stroke="#333" stroke-width="10" x1="7109.0" x2="7109.0" y1="6853.0" y2="6149.0" /><line stroke="#333" stroke-width="10" x1="7109.0" x2="7109.0" y1="7493.0" y2="6853.0" /><line stroke="#333" stroke-width="10" x1="7109.0" x2="7109.0" y1="8133.0" y2="7493.0" /><line stroke="#333" stroke-width="10" x1="7109.0" x2="7109.0" y1="8645.0" y2="8133.0" /><line stroke="#333" stroke-width="10" x1="7109.0" x2="7109.0" y1="9349.0" y2="8645.0" /><line stroke="#999" stroke-width="3" x1="6917.0" x2="197.0" y1="10053.0" y2="10053.0" /><line stroke="#999" stroke-width="3" x1="6917.0" x2="6917.0" y1="261.0" y2="10053.0" /><line stroke="#999" stroke-width="3" x1="197.0" x2="6917.0" y1="261.0" y2="261.0" /><line stroke="#999" stroke-width="3" x1="197.0" x2="197.0" y1="10053.0" y2="261.0" /><line stroke="#999" stroke-width="3" x1="6597.0" x2="645.0" y1="9797.0" y2="9797.0" /><line stroke="#999" stroke-width="3" x1="6597.0" x2="6597.0" y1="645.0" y2="9797.0" /><line stroke="#999" stroke-width="3" x1="645.0" x2="6597.0" y1="645.0" y2="645.0" /><line stroke="#999" stroke-width="3" x1="645.0" x2="645.0" y1="9797.0" y2="645.0" /><line stroke="#999" stroke-width="3" x1="6405.0" x2="837.0" y1="9605.0" y2="9605.0" /><line stroke="#999" stroke-width="3" x1="6405.0" x2="6405.0" y1="1093.0" y2="9605.0" /><line stroke="#999" stroke-width="3" x1="837.0" x2="901.0" y1="1093.0" y2="1093.0" /><line stroke="#999" stroke-width="3" x1="837.0" x2="837.0" y1="9605.0" y2="1093.0" /><line stroke="#999" stroke-width="3" x1="3461.0" x2="3141.0" y1="1089.0" y2="1089.0" /><line stroke="#999" stroke-width="3" x1="3461.0" x2="3461.0" y1="654.0" y2="1089.0" /><line stroke="#999" stroke-width="3" x1="3141.0" x2="3461.0" y1="654.0" y2="654.0" /><line stroke="#999" stroke-width="3" x1="3141.0" x2="3141.0" y1="1089.0" y2="654.0" /><line stroke="#999" stroke-width="3" x1="1029.0" x2="6405.0" y1="1093.0" y2="1093.0" /><line stroke="#999" stroke-width="3" x1="3460.0" x2="3140.0" y1="630.0" y2="630.0" /><line stroke="#999" stroke-width="3" x1="3460.0" x2="3460.0" y1="621.0" y2="630.0" /><line stroke="#999" stroke-width="3" x1="3144.0" x2="3460.0" y1="621.0" y2="621.0" /><line stroke="#999" stroke-width="3" x1="3140.0" x2="3144.0" y1="630.0" y2="621.0" /><line stroke="#999" stroke-width="3" x1="3141.0" x2="3141.0" y1="1157.0" y2="1285.0" /><line stroke="#999" stroke-width="3" x1="901.0" x2="3141.0" y1="1157.0" y2="1157.0" /><line stroke="#999" stroke-width="3" x1="901.0" x2="901.0" y1="9541.0" y2="1157.0" /><line stroke="#999" stroke-width="3" x1="6341.0" x2="3437.0" y1="9541.0" y2="9541.0" /><line stroke="#999" stroke-width="3" x1="6341.0" x2="6341.0" y1="1157.0" y2="9541.0" /><line stroke="#999" stroke-width="3" x1="3461.0" x2="6341.0" y1="1157.0" y2="1157.0" /><line stroke="#999" stroke-width="3" x1="3461.0" x2="3461.0" y1="1285.0" y2="1157.0" /><line stroke="#999" stroke-width="3" x1="6213.0" x2="3461.0" y1="1285.0" y2="1285.0" /><line stroke="#999" stroke-width="3" x1="6213.0" x2="6213.0" y1="9413.0" y2="1285.0" /><line stroke="#999" stroke-width="3" x1="1029.0" x2="3269.0" y1="9413.0" y2="9413.0" /><line stroke="#999" stroke-width="3" x1="1029.0" x2="1029.0" y1="1285.0" y2="9413.0" /><line stroke="#999" stroke-width="3" x1="3141.0" x2="1029.0" y1="1285.0" y2="1285.0" /><line stroke="#999" stroke-width="3" x1="901.0" x2="965.0" y1="1093.0" y2="1093.0" /><line stroke="#999" stroke-width="3" x1="709.0" x2="709.0" y1="837.0" y2="709.0" /><line stroke="#999" stroke-width="3" x1="709.0" x2="901.0" y1="709.0" y2="709.0" /><line stroke="#999" stroke-width="3" x1="901.0" x2="901.0" y1="709.0" y2="837.0" /><line stroke="#999" stroke-width="3" x1="901.0" x2="709.0" y1="837.0" y2="837.0" /><line stroke="#999" stroke-width="3" x1="965.0" x2="1029.0" y1="1093.0" y2="1093.0" /><line stroke="#999" stroke-width="3" x1="2949.0" x2="2821.0" y1="1029.0" y2="1029.0" /><line stroke="#999" stroke-width="3" x1="2949.0" x2="2949.0" y1="709.0" y2="1029.0" /><line stroke="#999" stroke-width="3" x1="2821.0" x2="2949.0" y1="709.0" y2="709.0" /><line stroke="#999" stroke-width="3" x1="2821.0" x2="2821.0" y1="1029.0" y2="709.0" /><line stroke="#999" stroke-width="3" x1="3269.0" x2="3269.0" y1="5637.0" y2="5445.0" /><line stroke="#999" stroke-width="3" x1="3269.0" x2="3461.0" y1="5445.0" y2="5445.0" /><line stroke="#999" stroke-width="3" x1="3461.0" x2="3461.0" y1="5445.0" y2="5637.0" /><line stroke="#999" stroke-width="3" x1="3461.0" x2="3269.0" y1="5637.0" y2="5637.0" /><line stroke="#0d0" stroke-width="20" x1="3269.0" x2="3461.0" y1="9413.0" y2="9413.0" /><line stroke="#999" stroke-width="3" x1="3461.0" x2="6213.0" y1="9413.0" y2="9413.0" /><line stroke="#999" stroke-width="3" x1="6341.0" x2="6341.0" y1="837.0" y2="709.0" /><line stroke="#999" stroke-width="3" x1="6341.0" x2="6533.0" y1="709.0" y2="709.0" /><line stroke="#999" stroke-width="3" x1="6533.0" x2="6533.0" y1="709.0" y2="837.0" /><line stroke="#999" stroke-width="3" x1="6533.0" x2="6341.0" y1="837.0" y2="837.0" /><line stroke="#999" stroke-width="3" x1="6405.0" x2="6405.0" y1="9733.0" y2="9669.0" /><line stroke="#999" stroke-width="3" x1="6405.0" x2="6533.0" y1="9669.0" y2="9669.0" /><line stroke="#999" stroke-width="3" x1="6533.0" x2="6533.0" y1="9669.0" y2="9733.0" /><line stroke="#999" stroke-width="3" x1="6533.0" x2="6405.0" y1="9733.0" y2="9733.0" /><line stroke="#999" stroke-width="3" x1="709.0" x2="709.0" y1="9733.0" y2="9669.0" /><line stroke="#999" stroke-width="3" x1="709.0" x2="837.0" y1="9669.0" y2="9669.0" /><line stroke="#999" stroke-width="3" x1="837.0" x2="837.0" y1="9669.0" y2="9733.0" /><line stroke="#999" stroke-width="3" x1="837.0" x2="709.0" y1="9733.0" y2="9733.0" /><line stroke="#999" stroke-width="3" x1="3461.0" x2="3269.0" y1="9405.0" y2="9405.0" /><line stroke="#999" stroke-width="3" x1="3461.0" x2="3461.0" y1="9381.0" y2="9405.0" /><line stroke="#999" stroke-width="3" x1="3269.0" x2="3461.0" y1="9381.0" y2="9381.0" /><line stroke="#999" stroke-width="3" x1="3269.0" x2="3269.0" y1="9405.0" y2="9381.0" /><line stroke="#999" stroke-width="3" x1="3309.0" x2="901.0" y1="9541.0" y2="9541.0" /><line stroke="#999" stroke-width="3" x1="3437.0" x2="3309.0" y1="9541.0" y2="9541.0" /><line stroke="#666" stroke-width="20" x1="3149.0" x2="3453.0" y1="1173.0" y2="1173.0" /><line stroke="#666" stroke-width="20" x1="3453.0" x2="3453.0" y1="1173.0" y2="1253.0" /><line stroke="#666" stroke-width="20" x1="3453.0" x2="3149.0" y1="1253.0" y2="1253.0" /><line stroke="#666" stroke-width="20" x1="3149.0" x2="3149.0" y1="1253.0" y2="1173.0" /><line stroke="#999" stroke-width="3" x1="2437.0" x2="2437.0" y1="1477.0" y2="1349.0" /><line stroke="#999" stroke-width="3" x1="2437.0" x2="3141.0" y1="1349.0" y2="1349.0" /><line stroke="#999" stroke-width="3" x1="3141.0" x2="3141.0" y1="1349.0" y2="2053.0" /><line stroke="#999" stroke-width="3" x1="3141.0" x2="3013.0" y1="2053.0" y2="2053.0" /><line stroke="#999" stroke-width="3" x1="3013.0" x2="3013.0" y1="2053.0" y2="1477.0" /><line stroke="#999" stroke-width="3" x1="3013.0" x2="2437.0" y1="1477.0" y2="1477.0" /><line stroke="#999" stroke-width="3" x1="3013.0" x2="3141.0" y1="2181.0" y2="2181.0" /><line stroke="#999" stroke-width="3" x1="3141.0" x2="3141.0" y1="2181.0" y2="2565.0" /><line stroke="#999" stroke-width="3" x1="3141.0" x2="3653.0" y1="2565.0" y2="2565.0" /><line stroke="#999" stroke-width="3" x1="3653.0" x2="3653.0" y1="2565.0" y2="2693.0" /><line stroke="#999" stroke-width="3" x1="3653.0" x2="3013.0" y1="2693.0" y2="2693.0" /><line stroke="#999" stroke-width="3" x1="3013.0" x2="3013.0" y1="2693.0" y2="2181.0" /><line stroke="#999" stroke-width="3" x1="3013.0" x2="3013.0" y1="2053.0" y2="2181.0" /><line stroke="#999" stroke-width="3" x1="2821.0" x2="3013.0" y1="2117.0" y2="2053.0" /><line stroke="#999" stroke-width="3" x1="3013.0" x2="2821.0" y1="2181.0" y2="2245.0" /><line stroke="#999" stroke-width="3" x1="2821.0" x2="2821.0" y1="2117.0" y2="2245.0" /><line stroke="#999" stroke-width="3" x1="2693.0" x2="2821.0" y1="2181.0" y2="2117.0" /><line stroke="#999" stroke-width="3" x1="2821.0" x2="2693.0" y1="2245.0" y2="2309.0" /><line stroke="#999" stroke-width="3" x1="2693.0" x2="2693.0" y1="2181.0" y2="2309.0" /><line stroke="#999" stroke-width="3" x1="2565.0" x2="2693.0" y1="2245.0" y2="2181.0" /><line stroke="#999" stroke-width="3" x1="2693.0" x2="2565.0" y1="2309.0" y2="2373.0" /><line stroke="#999" stroke-width="3" x1="2565.0" x2="2565.0" y1="2245.0" y2="2373.0" /><line stroke="#999" stroke-width="3" x1="2437.0" x2="2565.0" y1="2309.0" y2="2245.0" /><line stroke="#999" stroke-width="3" x1="2565.0" x2="2437.0" y1="2373.0" y2="2437.0" /><line stroke="#999" stroke-width="3" x1="2437.0" x2="2437.0" y1="2437.0" y2="2309.0" /><line stroke="#999" stroke-width="3" x1="2437.0" x2="1797.0" y1="2437.0" y2="2437.0" /><line stroke="#999" stroke-width="3" x1="1797.0" x2="1797.0" y1="2437.0" y2="1669.0" /><line stroke="#999" stroke-width="3" x1="1797.0" x2="1925.0" y1="1669.0" y2="1669.0" /><line stroke="#999" stroke-width="3" x1="1925.0" x2="1925.0" y1="1669.0" y2="2309.0" /><line stroke="#999" stroke-width="3" x1="1925.0" x2="2437.0" y1="2309.0" y2="2309.0" /><line stroke="#999" stroke-width="3" x1="1797.0" x2="1797.0" y1="1541.0" y2="1349.0" /><line stroke="#999" stroke-width="3" x1="1797.0" x2="2181.0" y1="1349.0" y2="1349.0" /><line stroke="#999" stroke-width="3" x1="2181.0" x2="2181.0" y1="1349.0" y2="1605.0" /><line stroke="#999" stroke-width="3" x1="2181.0" x2="2565.0" y1="1605.0" y2="1605.0" /><line stroke="#999" stroke-width="3" x1="2565.0" x2="2565.0" y1="1605.0" y2="1989.0" /><line stroke="#999" stroke-width="3" x1="2565.0" x2="2437.0" y1="1989.0" y2="1989.0" /><line stroke="#999" stroke-width="3" x1="2437.0" x2="2437.0" y1="1989.0" y2="1733.0" /><line stroke="#999" stroke-width="3" x1="2437.0" x2="2053.0" y1="1733.0" y2="1733.0" /><line stroke="#999" stroke-width="3" x1="2053.0" x2="2053.0" y1="1733.0" y2="1477.0" /><line stroke="#999" stroke-width="3" x1="2053.0" x2="1925.0" y1="1477.0" y2="1477.0" /><line stroke="#999" stroke-width="3" x1="1925.0" x2="1925.0" y1="1477.0" y2="1541.0" /><line stroke="#999" stroke-width="3" x1="1925.0" x2="1797.0" y1="1541.0" y2="1541.0" /><line stroke="#999" stroke-width="3" x1="3237.0" x2="3237.0" y1="5669.0" y2="5413.0" /><line stroke="#999" stroke-width="3" x1="3237.0" x2="3493.0" y1="5413.0" y2="5413.0" /><line stroke="#999" stroke-width="3" x1="3493.0" x2="3493.0" y1="5413.0" y2="5669.0" /><line stroke="#999" stroke-width="3" x1="3493.0" x2="3237.0" y1="5669.0" y2="5669.0" /><line stroke="#999" stroke-width="3" x1="4357.0" x2="3781.0" y1="2693.0" y2="2693.0" /><line stroke="#999" stroke-width="3" x1="4357.0" x2="4357.0" y1="1349.0" y2="2693.0" /><line stroke="#999" stroke-width="3" x1="3461.0" x2="4357.0" y1="1349.0" y2="1349.0" /><line stroke="#999" stroke-width="3" x1="3461.0" x2="3461.0" y1="2309.0" y2="1349.0" /><line stroke="#999" stroke-width="3" x1="3589.0" x2="3461.0" y1="2309.0" y2="2309.0" /><line stroke="#999" stroke-width="3" x1="3589.0" x2="3589.0" y1="1477.0" y2="2309.0" /><line stroke="#999" stroke-width="3" x1="4229.0" x2="3589.0" y1="1477.0" y2="1477.0" /><line stroke="#999" stroke-width="3" x1="4229.0" x2="4229.0" y1="2565.0" y2="1477.0" /><line stroke="#999" stroke-width="3" x1="3781.0" x2="4229.0" y1="2565.0" y2="2565.0" /><line stroke="#999" stroke-width="3" x1="3781.0" x2="3781.0" y1="2693.0" y2="2565.0" /><line stroke="#999" stroke-width="3" x1="3461.0" x2="3589.0" y1="2341.0" y2="2341.0" /><line stroke="#999" stroke-width="3" x1="3589.0" x2="3589.0" y1="2341.0" y2="2533.0" /><line stroke="#999" stroke-width="3" x1="3589.0" x2="3461.0" y1="2533.0" y2="2533.0" /><line stroke="#999" stroke-width="3" x1="3461.0" x2="3461.0" y1="2533.0" y2="2341.0" /><line stroke="#999" stroke-width="3" x1="3653.0" x2="3781.0" y1="2693.0" y2="2693.0" /><line stroke="#999" stroke-width="3" x1="3781.0" x2="3781.0" y1="2693.0" y2="2885.0" /><line stroke="#999" stroke-width="3" x1="3653.0" x2="3653.0" y1="2885.0" y2="2693.0" /><line stroke="#999" stroke-width="3" x1="3653.0" x2="3781.0" y1="2885.0" y2="2885.0" /><line stroke="#999" stroke-width="3" x1="3781.0" x2="3781.0" y1="2885.0" y2="3013.0" /><line stroke="#999" stroke-width="3" x1="3781.0" x2="3653.0" y1="3013.0" y2="2885.0" /><line stroke="#999" stroke-width="3" x1="3781.0" x2="3973.0" y1="2885.0" y2="2885.0" /><line stroke="#999" stroke-width="3" x1="3973.0" x2="3781.0" y1="3013.0" y2="3013.0" /><line stroke="#999" stroke-width="3" x1="3973.0" x2="3973.0" y1="3013.0" y2="2885.0" /><line stroke="#999" stroke-width="3" x1="3973.0" x2="4101.0" y1="3013.0" y2="3013.0" /><line stroke="#999" stroke-width="3" x1="4101.0" x2="4485.0" y1="3397.0" y2="3397.0" /><line stroke="#999" stroke-width="3" x1="4485.0" x2="4485.0" y1="3397.0" y2="2949.0" /><line stroke="#999" stroke-width="3" x1="4485.0" x2="4613.0" y1="2949.0" y2="2629.0" /><line stroke="#999" stroke-width="3" x1="4613.0" x2="4613.0" y1="2629.0" y2="1413.0" /><line stroke="#999" stroke-width="3" x1="4613.0" x2="4805.0" y1="1413.0" y2="1349.0" /><line stroke="#999" stroke-width="3" x1="4805.0" x2="5893.0" y1="1349.0" y2="1349.0" /><line stroke="#999" stroke-width="3" x1="5893.0" x2="5893.0" y1="1349.0" y2="1797.0" /><line stroke="#999" stroke-width="3" x1="5765.0" x2="5765.0" y1="1797.0" y2="1477.0" /><line stroke="#999" stroke-width="3" x1="4933.0" x2="4741.0" y1="1477.0" y2="1541.0" /><line stroke="#999" stroke-width="3" x1="4741.0" x2="4741.0" y1="1541.0" y2="2757.0" /><line stroke="#999" stroke-width="3" x1="4741.0" x2="4613.0" y1="2757.0" y2="3013.0" /><line stroke="#999" stroke-width="3" x1="4613.0" x2="4613.0" y1="3013.0" y2="3525.0" /><line stroke="#999" stroke-width="3" x1="4613.0" x2="3973.0" y1="3525.0" y2="3525.0" /><line stroke="#999" stroke-width="3" x1="3973.0" x2="3973.0" y1="3525.0" y2="3013.0" /><line stroke="#999" stroke-width="3" x1="5765.0" x2="4933.0" y1="1477.0" y2="1477.0" /><line stroke="#999" stroke-width="3" x1="5893.0" x2="5765.0" y1="1797.0" y2="1797.0" /><line stroke="#999" stroke-width="3" x1="5765.0" x2="5893.0" y1="1925.0" y2="1925.0" /><line stroke="#999" stroke-width="3" x1="5893.0" x2="5893.0" y1="1925.0" y2="2629.0" /><line stroke="#999" stroke-width="3" x1="5893.0" x2="5061.0" y1="2629.0" y2="2629.0" /><line stroke="#999" stroke-width="3" x1="5061.0" x2="5061.0" y1="2629.0" y2="2949.0" /><line stroke="#999" stroke-width="3" x1="5061.0" x2="4933.0" y1="2949.0" y2="2949.0" /><line stroke="#999" stroke-width="3" x1="4933.0" x2="4933.0" y1="2949.0" y2="2501.0" /><line stroke="#999" stroke-width="3" x1="4933.0" x2="5765.0" y1="2501.0" y2="2501.0" /><line stroke="#999" stroke-width="3" x1="5765.0" x2="5765.0" y1="2501.0" y2="1925.0" /><line stroke="#999" stroke-width="3" x1="4101.0" x2="4101.0" y1="3013.0" y2="3397.0" /><line stroke="#999" stroke-width="3" x1="3973.0" x2="4101.0" y1="2885.0" y2="2885.0" /><line stroke="#999" stroke-width="3" x1="4101.0" x2="4101.0" y1="2885.0" y2="3013.0" /><line stroke="#333" stroke-width="10" x1="7557.0" x2="7557.0" y1="2181.0" y2="3141.0" /><line stroke="#333" stroke-width="10" x1="8517.0" x2="7557.0" y1="2181.0" y2="2181.0" /><line stroke="#333" stroke-width="10" x1="8517.0" x2="8517.0" y1="3141.0" y2="2181.0" /><line stroke="#333" stroke-width="10" x1="7557.0" x2="8517.0" y1="3141.0" y2="3141.0" /><line stroke="#999" stroke-width="3" x1="4933.0" x2="5061.0" y1="3077.0" y2="3077.0" /><line stroke="#999" stroke-width="3" x1="5061.0" x2="5061.0" y1="3077.0" y2="3973.0" /><line stroke="#999" stroke-width="3" x1="5061.0" x2="3525.0" y1="3973.0" y2="3973.0" /><line stroke="#999" stroke-width="3" x1="3525.0" x2="3525.0" y1="3973.0" y2="3205.0" /><line stroke="#999" stroke-width="3" x1="3525.0" x2="1989.0" y1="3205.0" y2="3205.0" /><line stroke="#999" stroke-width="3" x1="1989.0" x2="1989.0" y1="3205.0" y2="2885.0" /><line stroke="#999" stroke-width="3" x1="1989.0" x2="1541.0" y1="2885.0" y2="2885.0" /><line stroke="#999" stroke-width="3" x1="1541.0" x2="1541.0" y1="2885.0" y2="1477.0" /><line stroke="#999" stroke-width="3" x1="1669.0" x2="1669.0" y1="1349.0" y2="2757.0" /><line stroke="#999" stroke-width="3" x1="2117.0" x2="2117.0" y1="2757.0" y2="3077.0" /><line stroke="#999" stroke-width="3" x1="2117.0" x2="3525.0" y1="3077.0" y2="3077.0" /><line stroke="#999" stroke-width="3" x1="3525.0" x2="3653.0" y1="2757.0" y2="3077.0" /><line stroke="#999" stroke-width="3" x1="3653.0" x2="3653.0" y1="3077.0" y2="3845.0" /><line stroke="#999" stroke-width="3" x1="3653.0" x2="4933.0" y1="3845.0" y2="3845.0" /><line stroke="#999" stroke-width="3" x1="4933.0" x2="4933.0" y1="3845.0" y2="3077.0" /><line stroke="#999" stroke-width="3" x1="3525.0" x2="3525.0" y1="3077.0" y2="2757.0" /><line stroke="#999" stroke-width="3" x1="1669.0" x2="2117.0" y1="2757.0" y2="2757.0" /><line stroke="#999" stroke-width="3" x1="1349.0" x2="1669.0" y1="1349.0" y2="1349.0" /><line stroke="#999" stroke-width="3" x1="1541.0" x2="1349.0" y1="1477.0" y2="1477.0" /><line stroke="#999" stroke-width="3" x1="1349.0" x2="1349.0" y1="1477.0" y2="1349.0" /><line stroke="#999" stroke-width="3" x1="1285.0" x2="1285.0" y1="1349.0" y2="1477.0" /><line stroke="#999" stroke-width="3" x1="1093.0" x2="1285.0" y1="1349.0" y2="1349.0" /><line stroke="#999" stroke-width="3" x1="1093.0" x2="1093.0" y1="3845.0" y2="1349.0" /><line stroke="#999" stroke-width="3" x1="1413.0" x2="1093.0" y1="3845.0" y2="3845.0" /><line stroke="#999" stroke-width="3" x1="1413.0" x2="1413.0" y1="3717.0" y2="3845.0" /><line stroke="#999" stroke-width="3" x1="1221.0" x2="1413.0" y1="3717.0" y2="3717.0" /><line stroke="#999" stroke-width="3" x1="1221.0" x2="1221.0" y1="1477.0" y2="3717.0" /><line stroke="#999" stroke-width="3" x1="1285.0" x2="1221.0" y1="1477.0" y2="1477.0" /><line stroke="#999" stroke-width="3" x1="1541.0" x2="1541.0" y1="3845.0" y2="3717.0" /><line stroke="#999" stroke-width="3" x1="1541.0" x2="3333.0" y1="3717.0" y2="3717.0" /><line stroke="#999" stroke-width="3" x1="3333.0" x2="3493.0" y1="3717.0" y2="3813.0" /><line stroke="#999" stroke-width="3" x1="3333.0" x2="1477.0" y1="4869.0" y2="4869.0" /><line stroke="#999" stroke-width="3" x1="1477.0" x2="1477.0" y1="4869.0" y2="4741.0" /><line stroke="#999" stroke-width="3" x1="1477.0" x2="3205.0" y1="4741.0" y2="4741.0" /><line stroke="#999" stroke-width="3" x1="3205.0" x2="3205.0" y1="4741.0" y2="3845.0" /><line stroke="#999" stroke-width="3" x1="3205.0" x2="1541.0" y1="3845.0" y2="3845.0" /><line stroke="#999" stroke-width="3" x1="3493.0" x2="3333.0" y1="3813.0" y2="3909.0" /><line stroke="#999" stroke-width="3" x1="3333.0" x2="3333.0" y1="3909.0" y2="4869.0" /><line stroke="#999" stroke-width="3" x1="1157.0" x2="1285.0" y1="4741.0" y2="4741.0" /><line stroke="#999" stroke-width="3" x1="1285.0" x2="1285.0" y1="4741.0" y2="4869.0" /><line stroke="#999" stroke-width="3" x1="1157.0" x2="1157.0" y1="4869.0" y2="4741.0" /><line stroke="#999" stroke-width="3" x1="1157.0" x2="1285.0" y1="4869.0" y2="4869.0" /><line stroke="#999" stroke-width="3" x1="1285.0" x2="1285.0" y1="4869.0" y2="4997.0" /><line stroke="#999" stroke-width="3" x1="1157.0" x2="1157.0" y1="4997.0" y2="4869.0" /><line stroke="#999" stroke-width="3" x1="1157.0" x2="1285.0" y1="4997.0" y2="4997.0" /><line stroke="#999" stroke-width="3" x1="1285.0" x2="1285.0" y1="4997.0" y2="5125.0" /><line stroke="#999" stroke-width="3" x1="1157.0" x2="1157.0" y1="5125.0" y2="4997.0" /><line stroke="#999" stroke-width="3" x1="1157.0" x2="1285.0" y1="5125.0" y2="5125.0" /><line stroke="#999" stroke-width="3" x1="1285.0" x2="1285.0" y1="5125.0" y2="5253.0" /><line stroke="#999" stroke-width="3" x1="1285.0" x2="1157.0" y1="5253.0" y2="5253.0" /><line stroke="#999" stroke-width="3" x1="1157.0" x2="1157.0" y1="5253.0" y2="5125.0" /><line stroke="#999" stroke-width="3" x1="1285.0" x2="1413.0" y1="5125.0" y2="5125.0" /><line stroke="#999" stroke-width="3" x1="1413.0" x2="1413.0" y1="5125.0" y2="5253.0" /><line stroke="#999" stroke-width="3" x1="1413.0" x2="1285.0" y1="5253.0" y2="5253.0" /><line stroke="#999" stroke-width="3" x1="1413.0" x2="3845.0" y1="5125.0" y2="5125.0" /><line stroke="#999" stroke-width="3" x1="3845.0" x2="3845.0" y1="5125.0" y2="6149.0" /><line stroke="#999" stroke-width="3" x1="3845.0" x2="2693.0" y1="6149.0" y2="6149.0" /><line stroke="#999" stroke-width="3" x1="2693.0" x2="2693.0" y1="6149.0" y2="6021.0" /><line stroke="#999" stroke-width="3" x1="2693.0" x2="3717.0" y1="6021.0" y2="6021.0" /><line stroke="#999" stroke-width="3" x1="3717.0" x2="3717.0" y1="6021.0" y2="5253.0" /><line stroke="#999" stroke-width="3" x1="3717.0" x2="1413.0" y1="5253.0" y2="5253.0" /><line stroke="#999" stroke-width="3" x1="2629.0" x2="2629.0" y1="6021.0" y2="6149.0" /><line stroke="#999" stroke-width="3" x1="1157.0" x2="2629.0" y1="6021.0" y2="6021.0" /><line stroke="#999" stroke-width="3" x1="1157.0" x2="1157.0" y1="7493.0" y2="6021.0" /><line stroke="#999" stroke-width="3" x1="4293.0" x2="1157.0" y1="7493.0" y2="7493.0" /><line stroke="#999" stroke-width="3" x1="4293.0" x2="4293.0" y1="7365.0" y2="7493.0" /><line stroke="#999" stroke-width="3" x1="1285.0" x2="4293.0" y1="7365.0" y2="7365.0" /><line stroke="#999" stroke-width="3" x1="1285.0" x2="1285.0" y1="6149.0" y2="7365.0" /><line stroke="#999" stroke-width="3" x1="2629.0" x2="1285.0" y1="6149.0" y2="6149.0" /><line stroke="#999" stroke-width="3" x1="4165.0" x2="4165.0" y1="7333.0" y2="4933.0" /><line stroke="#999" stroke-width="3" x1="4165.0" x2="3397.0" y1="4933.0" y2="4933.0" /><line stroke="#999" stroke-width="3" x1="3397.0" x2="3397.0" y1="4933.0" y2="4485.0" /><line stroke="#999" stroke-width="3" x1="3397.0" x2="3557.0" y1="4485.0" y2="3989.0" /><line stroke="#999" stroke-width="3" x1="5381.0" x2="5381.0" y1="4485.0" y2="7621.0" /><line stroke="#999" stroke-width="3" x1="5381.0" x2="5253.0" y1="7621.0" y2="7621.0" /><line stroke="#999" stroke-width="3" x1="5253.0" x2="5253.0" y1="7621.0" y2="4613.0" /><line stroke="#999" stroke-width="3" x1="5253.0" x2="3525.0" y1="4613.0" y2="4613.0" /><line stroke="#999" stroke-width="3" x1="3525.0" x2="3525.0" y1="4613.0" y2="4805.0" /><line stroke="#999" stroke-width="3" x1="3525.0" x2="4293.0" y1="4805.0" y2="4805.0" /><line stroke="#999" stroke-width="3" x1="4293.0" x2="4293.0" y1="4805.0" y2="7333.0" /><line stroke="#999" stroke-width="3" x1="4293.0" x2="4165.0" y1="7333.0" y2="7333.0" /><line stroke="#999" stroke-width="3" x1="3557.0" x2="3525.0" y1="3989.0" y2="4485.0" /><line stroke="#999" stroke-width="3" x1="3525.0" x2="5381.0" y1="4485.0" y2="4485.0" /><line stroke="#999" stroke-width="3" x1="5253.0" x2="5381.0" y1="7685.0" y2="7685.0" /><line stroke="#999" stroke-width="3" x1="5381.0" x2="5381.0" y1="7685.0" y2="9397.0" /><line stroke="#999" stroke-width="3" x1="5381.0" x2="4933.0" y1="9397.0" y2="9397.0" /><line stroke="#999" stroke-width="3" x1="4933.0" x2="4933.0" y1="9397.0" y2="9349.0" /><line stroke="#999" stroke-width="3" x1="4933.0" x2="4933.0" y1="9349.0" y2="9285.0" /><line stroke="#999" stroke-width="3" x1="4933.0" x2="3077.0" y1="9285.0" y2="9285.0" /><line stroke="#999" stroke-width="3" x1="3077.0" x2="3077.0" y1="9285.0" y2="9397.0" /><line stroke="#999" stroke-width="3" x1="3077.0" x2="2981.0" y1="9397.0" y2="9397.0" /><line stroke="#999" stroke-width="3" x1="2981.0" x2="3013.0" y1="9397.0" y2="9157.0" /><line stroke="#999" stroke-width="3" x1="3013.0" x2="5061.0" y1="9157.0" y2="9157.0" /><line stroke="#999" stroke-width="3" x1="5061.0" x2="5061.0" y1="9157.0" y2="9285.0" /><line stroke="#999" stroke-width="3" x1="5061.0" x2="5253.0" y1="9285.0" y2="9285.0" /><line stroke="#999" stroke-width="3" x1="5253.0" x2="5253.0" y1="9285.0" y2="7685.0" /><line stroke="#00d" stroke-width="20" x1="3109.0" x2="3109.0" y1="9381.0" y2="9317.0" /><line stroke="#00d" stroke-width="20" x1="3109.0" x2="3173.0" y1="9317.0" y2="9317.0" /><line stroke="#00d" stroke-width="20" x1="3173.0" x2="3173.0" y1="9317.0" y2="9381.0" /><line stroke="#00d" stroke-width="20" x1="3173.0" x2="3109.0" y1="9381.0" y2="9381.0" /><ellipse cx="3333.0" cy="325.0" fill="#009" rx="12" ry="24" stroke="#009" stroke-width="5" /><ellipse cx="3397.0" cy="325.0" fill="#009" rx="12" ry="24" stroke="#009" stroke-width="5" /><ellipse cx="3205.0" cy="325.0" fill="#009" rx="12" ry="24" stroke="#009" stroke-width="5" /><ellipse cx="3269.0" cy="325.0" fill="#009" rx="12" ry="24" stroke="#009" stroke-width="5" /><rect fill="#090" height="24" stroke="#090" stroke-width="5" transform="rotate(45,261.0,325.0)" width="24" x="249.0" y="313.0" /><rect fill="#090" height="24" stroke="#090" stroke-width="5" transform="rotate(135,6853.0,325.0)" width="24" x="6841.0" y="313.0" /><rect fill="#090" height="24" stroke="#090" stroke-width="5" transform="rotate(225,6853.0,9989.0)" width="24" x="6841.0" y="9977.0" /><rect fill="#090" height="24" stroke="#090" stroke-width="5" transform="rotate(315,261.0,9989.0)" width="24" x="249.0" y="9977.0" /><rect fill="#900" height="48" stroke="#900" stroke-width="5" transform="rotate(270,3397.0,5509.0)" width="32" x="3381.0" y="5485.0" /><rect fill="#900" height="48" stroke="#900" stroke-width="5" transform="rotate(45,1157.0,1413.0)" width="32" x="1141.0" y="1389.0" /><rect fill="#900" height="48" stroke="#900" stroke-width="5" transform="rotate(135,7877.0,2373.0)" width="32" x="7861.0" y="2349.0" /><rect fill="#900" height="48" stroke="#900" stroke-width="5" transform="rotate(225,6149.0,9349.0)" width="32" x="6133.0" y="9325.0" /><rect fill="#900" height="48" stroke="#900" stroke-width="5" transform="rotate(315,1093.0,9349.0)" width="32" x="1077.0" y="9325.0" /><rect fill="#900" height="48" stroke="#900" stroke-width="5" transform="rotate(270,3589.0,9669.0)" width="32" x="3573.0" y="9645.0" /><rect fill="#900" height="48" stroke="#900" stroke-width="5" transform="rotate(270,517.0,7429.0)" width="32" x="501.0" y="7405.0" /><rect fill="#900" height="48" stroke="#900" stroke-width="5" transform="rotate(270,6405.0,7813.0)" width="32" x="6389.0" y="7789.0" /><rect fill="#900" height="48" stroke="#900" stroke-width="5" transform="rotate(270,3461.0,6853.0)" width="32" x="3445.0" y="6829.0" /><rect fill="#900" height="48" stroke="#900" stroke-width="5" transform="rotate(270,2629.0,4229.0)" width="32" x="2613.0" y="4205.0" /><rect fill="#900" height="48" stroke="#900" stroke-width="5" transform="rotate(270,8197.0,2629.0)" width="32" x="8181.0" y="2605.0" /><rect fill="#900" height="48" stroke="#900" stroke-width="5" transform="rotate(270,2373.0,6277.0)" width="32" x="2357.0" y="6253.0" /><rect fill="#900" height="48" stroke="#900" stroke-width="5" transform="rotate(270,2757.0,517.0)" width="32" x="2741.0" y="493.0" /><rect fill="#900" height="48" stroke="#900" stroke-width="5" transform="rotate(270,5893.0,453.0)" width="32" x="5877.0" y="429.0" /><rect fill="#900" height="48" stroke="#900" stroke-width="5" transform="rotate(270,7685.0,3013.0)" width="32" x="7669.0" y="2989.0" /><rect fill="#900" height="48" stroke="#900" stroke-width="5" transform="rotate(270,7941.0,2437.0)" width="32" x="7925.0" y="2413.0" /><rect fill="#900" height="48" stroke="#900" stroke-width="5" transform="rotate(270,4997.0,3333.0)" width="32" x="4981.0" y="3309.0" /><rect fill="#900" height="48" stroke="#900" stroke-width="5" transform="rotate(0,325.0,4997.0)" width="32" x="309.0" y="4973.0" /><rect fill="#900" height="48" stroke="#900" stroke-width="5" transform="rotate(0,6661.0,6469.0)" width="32" x="6645.0" y="6445.0" /><rect fill="#900" height="48" stroke="#900" stroke-width="5" transform="rotate(0,4293.0,901.0)" width="32" x="4277.0" y="877.0" /><rect fill="#900" height="48" stroke="#900" stroke-width="5" transform="rotate(270,3397.0,3973.0)" width="32" x="3381.0" y="3949.0" /><rect fill="#900" height="48" stroke="#900" stroke-width="5" transform="rotate(270,3261.0,1419.0)" width="32" x="3245.0" y="1395.0" /><circle cx="4037.0" cy="1605.0" fill="#900" r="16" stroke="#900" stroke-width="5" /><circle cx="1989.0" cy="3269.0" fill="#090" r="16" stroke="#090" stroke-width="5" /><circle cx="5957.0" cy="2949.0" fill="#090" r="16" stroke="#090" stroke-width="5" /><circle cx="3333.0" cy="1285.0" fill="#090" r="16" stroke="#090" stroke-width="5" /><circle cx="6661.0" cy="1349.0" fill="#090" r="16" stroke="#090" stroke-width="5" /><circle cx="6725.0" cy="3653.0" fill="#090" r="16" stroke="#090" stroke-width="5" /><circle cx="6405.0" cy="2565.0" fill="#090" r="16" stroke="#090" stroke-width="5" /><rect fill="#090" height="24" stroke="#090" stroke-width="5" transform="rotate(0,3109.0,1317.0)" width="24" x="3097.0" y="1305.0" /><rect fill="#090" height="24" stroke="#090" stroke-width="5" transform="rotate(0,1605.0,1317.0)" width="24" x="1593.0" y="1305.0" /><rect fill="#090" height="24" stroke="#090" stroke-width="5" transform="rotate(0,3461.0,1317.0)" width="24" x="3449.0" y="1305.0" /><circle cx="3269.0" cy="1285.0" fill="#900" r="16" stroke="#900" stroke-width="5" /><circle cx="5509.0" cy="1669.0" fill="#900" r="16" stroke="#900" stroke-width="5" /><circle cx="4165.0" cy="3333.0" fill="#900" r="16" stroke="#900" stroke-width="5" /><rect fill="#900" height="48" stroke="#900" stroke-width="5" transform="rotate(0,8005.0,2885.0)" width="32" x="7989.0" y="2861.0" /><rect fill="#900" height="48" stroke="#900" stroke-width="5" transform="rotate(0,8197.0,2309.0)" width="32" x="8181.0" y="2285.0" /><rect fill="#900" height="48" stroke="#900" stroke-width="5" transform="rotate(0,7621.0,2693.0)" width="32" x="7605.0" y="2669.0" /><rect fill="#900" height="48" stroke="#900" stroke-width="5" transform="rotate(0,8389.0,2885.0)" width="32" x="8373.0" y="2861.0" /><rect fill="#900" height="48" stroke="#900" stroke-width="5" transform="rotate(0,7877.0,2693.0)" width="32" x="7861.0" y="2669.0" /><rect fill="#090" height="24" stroke="#090" stroke-width="5" transform="rotate(0,3525.0,2725.0)" width="24" x="3513.0" y="2713.0" /><rect fill="#900" height="48" stroke="#900" stroke-width="5" transform="rotate(0,8069.0,2565.0)" width="32" x="8053.0" y="2541.0" /><circle cx="1477.0" cy="1541.0" fill="#900" r="16" stroke="#900" stroke-width="5" /><rect fill="#009" height="24" stroke="#009" stroke-width="5" transform="rotate(270,3365.0,9701.0)" width="24" x="3353.0" y="9689.0" /></svg>