<?xml version="1.0" encoding="utf-8" ?>
<svg baseProfile="tiny" height="1024" version="1.2" viewBox="0 0 2042 2378" width="879" xmlns="http://www.w3.org/2000/svg" xmlns:ev="http://www.w3.org/2001/xml-events" xmlns:xlink="http://www.w3.org/1999/xlink"><defs /><line stroke="#999" stroke-width="3" x1="1269.0" x2="1141.0" y1="1413.0" y2="1413.0" /><line stroke="#999" stroke-width="3" x1="1269.0" x2="1269.0" y1="1669.0" y2="1413.0" /><line stroke="#999" stroke-width="3" x1="1141.0" x2="1269.0" y1="1669.0" y2="1669.0" /><line stroke="#999" stroke-width="3" x1="1141.0" x2="1141.0" y1="1413.0" y2="1669.0" /><line stroke="#333" stroke-width="10" x1="1365.0" x2="1285.0" y1="1349.0" y2="1413.0" /><line stroke="#999" stroke-width="3" x1="1493.0" x2="1365.0" y1="1573.0" y2="1349.0" /><line stroke="#333" stroke-width="10" x1="1269.0" x2="1301.0" y1="1669.0" y2="1669.0" /><line stroke="#333" stroke-width="10" x1="1429.0" x2="1365.0" y1="1221.0" y2="1349.0" /><line stroke="#999" stroke-width="3" x1="1653.0" x2="1429.0" y1="1221.0" y2="1221.0" /><line stroke="#333" stroke-width="10" x1="1493.0" x2="1621.0" y1="1573.0" y2="1413.0" /><line stroke="#333" stroke-width="10" x1="1365.0" x2="1429.0" y1="1093.0" y2="1221.0" /><line stroke="#999" stroke-width="3" x1="1493.0" x2="1365.0" y1="869.0" y2="1093.0" /><line stroke="#999" stroke-width="3" x1="1653.0" x2="1621.0" y1="1221.0" y2="1029.0" /><line stroke="#333" stroke-width="10" x1="1269.0" x2="1365.0" y1="1029.0" y2="1093.0" /><line stroke="#999" stroke-width="3" x1="1269.0" x2="1269.0" y1="773.0" y2="1029.0" /><line stroke="#333" stroke-width="10" x1="1493.0" x2="1430.0" y1="869.0" y2="838.0" /><line stroke="#333" stroke-width="10" x1="1141.0" x2="1269.0" y1="1029.0" y2="1029.0" /><line stroke="#999" stroke-width="3" x1="1141.0" x2="1141.0" y1="773.0" y2="1029.0" /><line stroke="#999" stroke-width="3" x1="1269.0" x2="1141.0" y1="773.0" y2="773.0" /><line stroke="#333" stroke-width="10" x1="1045.0" x2="1141.0" y1="1093.0" y2="1029.0" /><line stroke="#999" stroke-width="3" x1="917.0" x2="1045.0" y1="869.0" y2="1093.0" /><line stroke="#333" stroke-width="10" x1="1141.0" x2="1109.0" y1="773.0" y2="773.0" /><line stroke="#333" stroke-width="10" x1="981.0" x2="1045.0" y1="1221.0" y2="1093.0" /><line stroke="#999" stroke-width="3" x1="757.0" x2="981.0" y1="1221.0" y2="1221.0" /><line stroke="#333" stroke-width="10" x1="917.0" x2="789.0" y1="869.0" y2="1029.0" /><line stroke="#999" stroke-width="3" x1="757.0" x2="789.0" y1="1221.0" y2="1413.0" /><line stroke="#999" stroke-width="3" x1="917.0" x2="1045.0" y1="1573.0" y2="1349.0" /><line stroke="#333" stroke-width="10" x1="1045.0" x2="981.0" y1="1349.0" y2="1221.0" /><line stroke="#333" stroke-width="10" x1="1125.0" x2="1045.0" y1="1413.0" y2="1349.0" /><line stroke="#333" stroke-width="10" x1="917.0" x2="1109.0" y1="1573.0" y2="1669.0" /><line stroke="#333" stroke-width="10" x1="1141.0" x2="1141.0" y1="709.0" y2="773.0" /><line stroke="#999" stroke-width="3" x1="1269.0" x2="1141.0" y1="709.0" y2="709.0" /><line stroke="#333" stroke-width="10" x1="1269.0" x2="1269.0" y1="773.0" y2="709.0" /><line stroke="#333" stroke-width="10" x1="1269.0" x2="1333.0" y1="709.0" y2="709.0" /><line stroke="#333" stroke-width="10" x1="1333.0" x2="1333.0" y1="709.0" y2="645.0" /><line stroke="#333" stroke-width="10" x1="1333.0" x2="1589.0" y1="581.0" y2="581.0" /><line stroke="#333" stroke-width="10" x1="1589.0" x2="1781.0" y1="581.0" y2="325.0" /><line stroke="#333" stroke-width="10" x1="1589.0" x2="1077.0" y1="69.0" y2="5.0" /><line stroke="#333" stroke-width="10" x1="821.0" x2="629.0" y1="69.0" y2="325.0" /><line stroke="#333" stroke-width="10" x1="821.0" x2="885.0" y1="581.0" y2="581.0" /><line stroke="#333" stroke-width="10" x1="1077.0" x2="1077.0" y1="581.0" y2="709.0" /><line stroke="#333" stroke-width="10" x1="1077.0" x2="1141.0" y1="709.0" y2="709.0" /><line stroke="#999" stroke-width="3" x1="789.0" x2="757.0" y1="1029.0" y2="1221.0" /><line stroke="#333" stroke-width="10" x1="1621.0" x2="1493.0" y1="1029.0" y2="869.0" /><line stroke="#999" stroke-width="3" x1="1621.0" x2="1653.0" y1="1413.0" y2="1221.0" /><line stroke="#333" stroke-width="10" x1="789.0" x2="853.0" y1="1413.0" y2="1493.0" /><line stroke="#333" stroke-width="10" x1="1301.0" x2="1269.0" y1="773.0" y2="773.0" /><line stroke="#333" stroke-width="10" x1="1109.0" x2="917.0" y1="773.0" y2="869.0" /><line stroke="#999" stroke-width="3" x1="1141.0" x2="1269.0" y1="1733.0" y2="1733.0" /><line stroke="#333" stroke-width="10" x1="1269.0" x2="1269.0" y1="1733.0" y2="1669.0" /><line stroke="#333" stroke-width="10" x1="1141.0" x2="1141.0" y1="1669.0" y2="1733.0" /><line stroke="#333" stroke-width="10" x1="885.0" x2="1525.0" y1="2373.0" y2="2373.0" /><line stroke="#333" stroke-width="10" x1="1525.0" x2="1525.0" y1="2373.0" y2="2181.0" /><line stroke="#333" stroke-width="10" x1="1525.0" x2="1333.0" y1="1733.0" y2="1733.0" /><line stroke="#333" stroke-width="10" x1="885.0" x2="885.0" y1="1733.0" y2="2053.0" /><line stroke="#333" stroke-width="10" x1="1141.0" x2="1077.0" y1="1733.0" y2="1733.0" /><line stroke="#999" stroke-width="3" x1="1077.0" x2="1109.0" y1="2021.0" y2="2021.0" /><line stroke="#999" stroke-width="3" x1="1109.0" x2="1109.0" y1="2021.0" y2="1989.0" /><line stroke="#999" stroke-width="3" x1="1109.0" x2="1077.0" y1="1989.0" y2="1989.0" /><line stroke="#999" stroke-width="3" x1="1077.0" x2="1077.0" y1="1989.0" y2="2021.0" /><line stroke="#999" stroke-width="3" x1="1301.0" x2="1333.0" y1="2021.0" y2="2021.0" /><line stroke="#999" stroke-width="3" x1="1333.0" x2="1333.0" y1="2021.0" y2="1989.0" /><line stroke="#999" stroke-width="3" x1="1333.0" x2="1301.0" y1="1989.0" y2="1989.0" /><line stroke="#999" stroke-width="3" x1="1301.0" x2="1301.0" y1="1989.0" y2="2021.0" /><line stroke="#999" stroke-width="3" x1="1301.0" x2="1333.0" y1="2245.0" y2="2245.0" /><line stroke="#999" stroke-width="3" x1="1333.0" x2="1333.0" y1="2245.0" y2="2213.0" /><line stroke="#999" stroke-width="3" x1="1333.0" x2="1301.0" y1="2213.0" y2="2213.0" /><line stroke="#999" stroke-width="3" x1="1301.0" x2="1301.0" y1="2213.0" y2="2245.0" /><line stroke="#999" stroke-width="3" x1="1077.0" x2="1109.0" y1="2245.0" y2="2245.0" /><line stroke="#999" stroke-width="3" x1="1109.0" x2="1109.0" y1="2245.0" y2="2213.0" /><line stroke="#999" stroke-width="3" x1="1109.0" x2="1077.0" y1="2213.0" y2="2213.0" /><line stroke="#999" stroke-width="3" x1="1077.0" x2="1077.0" y1="2213.0" y2="2245.0" /><line stroke="#999" stroke-width="3" x1="1109.0" x2="1109.0" y1="2213.0" y2="2021.0" /><line stroke="#999" stroke-width="3" x1="1077.0" x2="1077.0" y1="2021.0" y2="2213.0" /><line stroke="#999" stroke-width="3" x1="1333.0" x2="1333.0" y1="2213.0" y2="2021.0" /><line stroke="#999" stroke-width="3" x1="1301.0" x2="1301.0" y1="2021.0" y2="2213.0" /><line stroke="#999" stroke-width="3" x1="1109.0" x2="1301.0" y1="2021.0" y2="2021.0" /><line stroke="#999" stroke-width="3" x1="1301.0" x2="1109.0" y1="1989.0" y2="1989.0" /><line stroke="#999" stroke-width="3" x1="1109.0" x2="1301.0" y1="2245.0" y2="2245.0" /><line stroke="#999" stroke-width="3" x1="1301.0" x2="1109.0" y1="2213.0" y2="2213.0" /><line stroke="#999" stroke-width="3" x1="1525.0" x2="1525.0" y1="2181.0" y2="2053.0" /><line stroke="#333" stroke-width="10" x1="1525.0" x2="1525.0" y1="2053.0" y2="1733.0" /><line stroke="#333" stroke-width="10" x1="1525.0" x2="1589.0" y1="2181.0" y2="2181.0" /><line stroke="#999" stroke-width="3" x1="1589.0" x2="1589.0" y1="2181.0" y2="2053.0" /><line stroke="#333" stroke-width="10" x1="1589.0" x2="1525.0" y1="2053.0" y2="2053.0" /><line stroke="#999" stroke-width="3" x1="885.0" x2="885.0" y1="2053.0" y2="2181.0" /><line stroke="#333" stroke-width="10" x1="885.0" x2="885.0" y1="2181.0" y2="2373.0" /><line stroke="#333" stroke-width="10" x1="821.0" x2="885.0" y1="2181.0" y2="2181.0" /><line stroke="#333" stroke-width="10" x1="885.0" x2="821.0" y1="2053.0" y2="2053.0" /><line stroke="#999" stroke-width="3" x1="821.0" x2="821.0" y1="2053.0" y2="2181.0" /><line stroke="#333" stroke-width="10" x1="1781.0" x2="1589.0" y1="325.0" y2="69.0" /><line stroke="#333" stroke-width="10" x1="629.0" x2="821.0" y1="325.0" y2="581.0" /><line stroke="#666" stroke-width="20" x1="1141.0" x2="1269.0" y1="2181.0" y2="2181.0" /><line stroke="#666" stroke-width="20" x1="1269.0" x2="1269.0" y1="2181.0" y2="2053.0" /><line stroke="#666" stroke-width="20" x1="1269.0" x2="1141.0" y1="2053.0" y2="2053.0" /><line stroke="#666" stroke-width="20" x1="1141.0" x2="1141.0" y1="2053.0" y2="2181.0" /><line stroke="#333" stroke-width="10" x1="1589.0" x2="1605.0" y1="2181.0" y2="2181.0" /><line stroke="#999" stroke-width="3" x1="1605.0" x2="1605.0" y1="2053.0" y2="2181.0" /><line stroke="#333" stroke-width="10" x1="1605.0" x2="1589.0" y1="2053.0" y2="2053.0" /><line stroke="#333" stroke-width="10" x1="805.0" x2="821.0" y1="2181.0" y2="2181.0" /><line stroke="#333" stroke-width="10" x1="821.0" x2="805.0" y1="2053.0" y2="2053.0" /><line stroke="#999" stroke-width="3" x1="805.0" x2="805.0" y1="2181.0" y2="2053.0" /><line stroke="#333" stroke-width="10" x1="1605.0" x2="1653.0" y1="2181.0" y2="2181.0" /><line stroke="#333" stroke-width="10" x1="1781.0" x2="1781.0" y1="2181.0" y2="2053.0" /><line stroke="#333" stroke-width="10" x1="1781.0" x2="1717.0" y1="2053.0" y2="2053.0" /><line stroke="#333" stroke-width="10" x1="1653.0" x2="1781.0" y1="2181.0" y2="2181.0" /><line stroke="#333" stroke-width="10" x1="1653.0" x2="1605.0" y1="2053.0" y2="2053.0" /><line stroke="#333" stroke-width="10" x1="629.0" x2="805.0" y1="2181.0" y2="2181.0" /><line stroke="#333" stroke-width="10" x1="805.0" x2="757.0" y1="2053.0" y2="2053.0" /><line stroke="#333" stroke-width="10" x1="629.0" x2="629.0" y1="2053.0" y2="2181.0" /><line stroke="#999" stroke-width="3" x1="1717.0" x2="1653.0" y1="2053.0" y2="2053.0" /><line stroke="#333" stroke-width="10" x1="1717.0" x2="1717.0" y1="2053.0" y2="1989.0" /><line stroke="#999" stroke-width="3" x1="1717.0" x2="1653.0" y1="1989.0" y2="1925.0" /><line stroke="#333" stroke-width="10" x1="1653.0" x2="1653.0" y1="1925.0" y2="2053.0" /><line stroke="#333" stroke-width="10" x1="1717.0" x2="1717.0" y1="1989.0" y2="1797.0" /><line stroke="#999" stroke-width="3" x1="1717.0" x2="1653.0" y1="1797.0" y2="1861.0" /><line stroke="#333" stroke-width="10" x1="1653.0" x2="1653.0" y1="1861.0" y2="1925.0" /><line stroke="#333" stroke-width="10" x1="1717.0" x2="1717.0" y1="1797.0" y2="1669.0" /><line stroke="#999" stroke-width="3" x1="1717.0" x2="1653.0" y1="1669.0" y2="1733.0" /><line stroke="#333" stroke-width="10" x1="1653.0" x2="1653.0" y1="1733.0" y2="1861.0" /><line stroke="#333" stroke-width="10" x1="1717.0" x2="1717.0" y1="1669.0" y2="1605.0" /><line stroke="#999" stroke-width="3" x1="1717.0" x2="1653.0" y1="1605.0" y2="1541.0" /><line stroke="#333" stroke-width="10" x1="1653.0" x2="1653.0" y1="1541.0" y2="1733.0" /><line stroke="#333" stroke-width="10" x1="1717.0" x2="1717.0" y1="1605.0" y2="1541.0" /><line stroke="#333" stroke-width="10" x1="1717.0" x2="1653.0" y1="1477.0" y2="1477.0" /><line stroke="#333" stroke-width="10" x1="1653.0" x2="1653.0" y1="1477.0" y2="1541.0" /><line stroke="#999" stroke-width="3" x1="757.0" x2="693.0" y1="2053.0" y2="2053.0" /><line stroke="#333" stroke-width="10" x1="693.0" x2="629.0" y1="2053.0" y2="2053.0" /><line stroke="#333" stroke-width="10" x1="757.0" x2="757.0" y1="2053.0" y2="1925.0" /><line stroke="#999" stroke-width="3" x1="757.0" x2="693.0" y1="1925.0" y2="1989.0" /><line stroke="#333" stroke-width="10" x1="693.0" x2="693.0" y1="1989.0" y2="2053.0" /><line stroke="#333" stroke-width="10" x1="757.0" x2="757.0" y1="1925.0" y2="1861.0" /><line stroke="#999" stroke-width="3" x1="757.0" x2="693.0" y1="1861.0" y2="1797.0" /><line stroke="#333" stroke-width="10" x1="693.0" x2="693.0" y1="1797.0" y2="1861.0" /><line stroke="#333" stroke-width="10" x1="757.0" x2="757.0" y1="1861.0" y2="1733.0" /><line stroke="#999" stroke-width="3" x1="757.0" x2="693.0" y1="1733.0" y2="1669.0" /><line stroke="#333" stroke-width="10" x1="693.0" x2="693.0" y1="1669.0" y2="1797.0" /><line stroke="#333" stroke-width="10" x1="757.0" x2="757.0" y1="1733.0" y2="1541.0" /><line stroke="#999" stroke-width="3" x1="757.0" x2="693.0" y1="1541.0" y2="1605.0" /><line stroke="#333" stroke-width="10" x1="693.0" x2="693.0" y1="1605.0" y2="1669.0" /><line stroke="#333" stroke-width="10" x1="757.0" x2="757.0" y1="1541.0" y2="1477.0" /><line stroke="#333" stroke-width="10" x1="757.0" x2="693.0" y1="1477.0" y2="1477.0" /><line stroke="#333" stroke-width="10" x1="693.0" x2="693.0" y1="1477.0" y2="1605.0" /><line stroke="#333" stroke-width="10" x1="1621.0" x2="1781.0" y1="1413.0" y2="1413.0" /><line stroke="#333" stroke-width="10" x1="1781.0" x2="1797.0" y1="1413.0" y2="1349.0" /><line stroke="#333" stroke-width="10" x1="1781.0" x2="1621.0" y1="1029.0" y2="1029.0" /><line stroke="#333" stroke-width="10" x1="629.0" x2="789.0" y1="1413.0" y2="1413.0" /><line stroke="#333" stroke-width="10" x1="789.0" x2="693.0" y1="1029.0" y2="1029.0" /><line stroke="#333" stroke-width="10" x1="629.0" x2="597.0" y1="1029.0" y2="1221.0" /><line stroke="#333" stroke-width="10" x1="597.0" x2="629.0" y1="1221.0" y2="1413.0" /><line stroke="#999" stroke-width="3" x1="1813.0" x2="1797.0" y1="1221.0" y2="1093.0" /><line stroke="#333" stroke-width="10" x1="1717.0" x2="1781.0" y1="1541.0" y2="1541.0" /><line stroke="#999" stroke-width="3" x1="1781.0" x2="1781.0" y1="1541.0" y2="1477.0" /><line stroke="#333" stroke-width="10" x1="1781.0" x2="1717.0" y1="1477.0" y2="1477.0" /><line stroke="#999" stroke-width="3" x1="1717.0" x2="1717.0" y1="1541.0" y2="1477.0" /><line stroke="#333" stroke-width="10" x1="1781.0" x2="1813.0" y1="1541.0" y2="1541.0" /><line stroke="#333" stroke-width="10" x1="1845.0" x2="1845.0" y1="1541.0" y2="1557.0" /><line stroke="#333" stroke-width="10" x1="1845.0" x2="1813.0" y1="1477.0" y2="1477.0" /><line stroke="#333" stroke-width="10" x1="1813.0" x2="1845.0" y1="1541.0" y2="1541.0" /><line stroke="#333" stroke-width="10" x1="1813.0" x2="1781.0" y1="1477.0" y2="1477.0" /><line stroke="#333" stroke-width="10" x1="1845.0" x2="1893.0" y1="1605.0" y2="1605.0" /><line stroke="#333" stroke-width="10" x1="2037.0" x2="2037.0" y1="1605.0" y2="1557.0" /><line stroke="#333" stroke-width="10" x1="2037.0" x2="1989.0" y1="1413.0" y2="1413.0" /><line stroke="#333" stroke-width="10" x1="1845.0" x2="1845.0" y1="1413.0" y2="1461.0" /><line stroke="#999" stroke-width="3" x1="1877.0" x2="1845.0" y1="1509.0" y2="1557.0" /><line stroke="#999" stroke-width="3" x1="1845.0" x2="1877.0" y1="1461.0" y2="1509.0" /><line stroke="#333" stroke-width="10" x1="1845.0" x2="1845.0" y1="1557.0" y2="1605.0" /><line stroke="#999" stroke-width="3" x1="1941.0" x2="1989.0" y1="1573.0" y2="1605.0" /><line stroke="#333" stroke-width="10" x1="1989.0" x2="2037.0" y1="1605.0" y2="1605.0" /><line stroke="#999" stroke-width="3" x1="1893.0" x2="1941.0" y1="1605.0" y2="1573.0" /><line stroke="#999" stroke-width="3" x1="2005.0" x2="2037.0" y1="1509.0" y2="1461.0" /><line stroke="#333" stroke-width="10" x1="2037.0" x2="2037.0" y1="1461.0" y2="1413.0" /><line stroke="#999" stroke-width="3" x1="2037.0" x2="2005.0" y1="1557.0" y2="1509.0" /><line stroke="#999" stroke-width="3" x1="1941.0" x2="1893.0" y1="1445.0" y2="1413.0" /><line stroke="#999" stroke-width="3" x1="1989.0" x2="1941.0" y1="1413.0" y2="1445.0" /><line stroke="#333" stroke-width="10" x1="1893.0" x2="1845.0" y1="1413.0" y2="1413.0" /><line stroke="#333" stroke-width="10" x1="1845.0" x2="1845.0" y1="1461.0" y2="1477.0" /><line stroke="#333" stroke-width="10" x1="1893.0" x2="1989.0" y1="1605.0" y2="1605.0" /><line stroke="#333" stroke-width="10" x1="2037.0" x2="2037.0" y1="1557.0" y2="1461.0" /><line stroke="#333" stroke-width="10" x1="1989.0" x2="1973.0" y1="1413.0" y2="1413.0" /><line stroke="#333" stroke-width="10" x1="1285.0" x2="1269.0" y1="1413.0" y2="1413.0" /><line stroke="#333" stroke-width="10" x1="1141.0" x2="1125.0" y1="1413.0" y2="1413.0" /><line stroke="#333" stroke-width="10" x1="1333.0" x2="1333.0" y1="645.0" y2="581.0" /><line stroke="#333" stroke-width="10" x1="1077.0" x2="1013.0" y1="5.0" y2="5.0" /><line stroke="#333" stroke-width="10" x1="1013.0" x2="821.0" y1="5.0" y2="69.0" /><line stroke="#333" stroke-width="10" x1="949.0" x2="1077.0" y1="581.0" y2="581.0" /><line stroke="#666" stroke-width="20" x1="885.0" x2="949.0" y1="581.0" y2="581.0" /><line stroke="#333" stroke-width="10" x1="853.0" x2="917.0" y1="1493.0" y2="1573.0" /><line stroke="#333" stroke-width="10" x1="1430.0" x2="1366.0" y1="838.0" y2="806.0" /><line stroke="#333" stroke-width="10" x1="1366.0" x2="1301.0" y1="806.0" y2="773.0" /><line stroke="#d00" stroke-width="20" x1="1141.0" x2="1269.0" y1="1381.0" y2="1381.0" /><line stroke="#333" stroke-width="10" x1="1301.0" x2="1493.0" y1="1669.0" y2="1573.0" /><line stroke="#333" stroke-width="10" x1="1109.0" x2="1141.0" y1="1669.0" y2="1669.0" /><line stroke="#333" stroke-width="10" x1="1333.0" x2="1269.0" y1="1733.0" y2="1733.0" /><line stroke="#333" stroke-width="10" x1="1077.0" x2="885.0" y1="1733.0" y2="1733.0" /><line stroke="#333" stroke-width="10" x1="885.0" x2="949.0" y1="661.0" y2="661.0" /><line stroke="#333" stroke-width="10" x1="949.0" x2="949.0" y1="661.0" y2="597.0" /><line stroke="#333" stroke-width="10" x1="885.0" x2="885.0" y1="597.0" y2="661.0" /><line stroke="#666" stroke-width="20" x1="949.0" x2="885.0" y1="597.0" y2="597.0" /><line stroke="#333" stroke-width="10" x1="949.0" x2="949.0" y1="597.0" y2="581.0" /><line stroke="#333" stroke-width="10" x1="885.0" x2="885.0" y1="581.0" y2="597.0" /><line stroke="#333" stroke-width="10" x1="1269.0" x2="1333.0" y1="1381.0" y2="1333.0" /><line stroke="#333" stroke-width="10" x1="1333.0" x2="1237.0" y1="1109.0" y2="1061.0" /><line stroke="#333" stroke-width="10" x1="1077.0" x2="1029.0" y1="1109.0" y2="1221.0" /><line stroke="#333" stroke-width="10" x1="1029.0" x2="1077.0" y1="1221.0" y2="1333.0" /><line stroke="#333" stroke-width="10" x1="1381.0" x2="1333.0" y1="1221.0" y2="1109.0" /><line stroke="#333" stroke-width="10" x1="1077.0" x2="1141.0" y1="1333.0" y2="1381.0" /><line stroke="#333" stroke-width="10" x1="1333.0" x2="1381.0" y1="1333.0" y2="1221.0" /><line stroke="#333" stroke-width="10" x1="1173.0" x2="1077.0" y1="1061.0" y2="1109.0" /><line stroke="#0d0" stroke-width="20" x1="1237.0" x2="1173.0" y1="1061.0" y2="1061.0" /><line stroke="#333" stroke-width="10" x1="1269.0" x2="1269.0" y1="1413.0" y2="1397.0" /><line stroke="#d00" stroke-width="20" x1="1269.0" x2="1141.0" y1="1397.0" y2="1397.0" /><line stroke="#333" stroke-width="10" x1="1141.0" x2="1141.0" y1="1397.0" y2="1413.0" /><line stroke="#333" stroke-width="10" x1="1269.0" x2="1269.0" y1="1397.0" y2="1381.0" /><line stroke="#333" stroke-width="10" x1="1141.0" x2="1141.0" y1="1381.0" y2="1397.0" /><line stroke="#333" stroke-width="10" x1="1909.0" x2="1893.0" y1="1413.0" y2="1413.0" /><line stroke="#333" stroke-width="10" x1="1973.0" x2="1973.0" y1="1413.0" y2="1349.0" /><line stroke="#333" stroke-width="10" x1="1909.0" x2="1909.0" y1="1349.0" y2="1413.0" /><line stroke="#999" stroke-width="3" x1="1973.0" x2="1909.0" y1="1349.0" y2="1349.0" /><line stroke="#333" stroke-width="10" x1="1797.0" x2="1781.0" y1="1093.0" y2="1029.0" /><line stroke="#333" stroke-width="10" x1="1797.0" x2="1813.0" y1="1349.0" y2="1221.0" /><line stroke="#333" stroke-width="10" x1="1813.0" x2="1829.0" y1="1221.0" y2="1221.0" /><line stroke="#999" stroke-width="3" x1="1813.0" x2="1829.0" y1="1093.0" y2="1221.0" /><line stroke="#333" stroke-width="10" x1="1813.0" x2="1797.0" y1="1093.0" y2="1093.0" /><line stroke="#333" stroke-width="10" x1="1829.0" x2="1909.0" y1="1221.0" y2="1221.0" /><line stroke="#333" stroke-width="10" x1="2037.0" x2="2037.0" y1="1221.0" y2="1093.0" /><line stroke="#333" stroke-width="10" x1="2037.0" x2="1813.0" y1="1093.0" y2="1093.0" /><line stroke="#333" stroke-width="10" x1="1973.0" x2="1973.0" y1="1349.0" y2="1285.0" /><line stroke="#333" stroke-width="10" x1="1909.0" x2="1909.0" y1="1285.0" y2="1349.0" /><line stroke="#999" stroke-width="3" x1="1909.0" x2="1973.0" y1="1285.0" y2="1285.0" /><line stroke="#333" stroke-width="10" x1="1973.0" x2="1973.0" y1="1285.0" y2="1221.0" /><line stroke="#333" stroke-width="10" x1="1909.0" x2="1909.0" y1="1221.0" y2="1285.0" /><line stroke="#999" stroke-width="3" x1="1909.0" x2="1973.0" y1="1221.0" y2="1221.0" /><line stroke="#333" stroke-width="10" x1="1973.0" x2="2037.0" y1="1221.0" y2="1221.0" /><line stroke="#666" stroke-width="20" x1="693.0" x2="629.0" y1="1029.0" y2="1029.0" /><line stroke="#999" stroke-width="3" x1="693.0" x2="693.0" y1="1861.0" y2="1925.0" /><line stroke="#333" stroke-width="10" x1="693.0" x2="693.0" y1="1925.0" y2="1989.0" /><line stroke="#333" stroke-width="10" x1="629.0" x2="693.0" y1="1925.0" y2="1925.0" /><line stroke="#333" stroke-width="10" x1="693.0" x2="629.0" y1="1861.0" y2="1861.0" /><line stroke="#999" stroke-width="3" x1="629.0" x2="629.0" y1="1861.0" y2="1925.0" /><line stroke="#333" stroke-width="10" x1="501.0" x2="629.0" y1="1925.0" y2="1925.0" /><line stroke="#333" stroke-width="10" x1="405.0" x2="501.0" y1="1573.0" y2="1925.0" /><line stroke="#333" stroke-width="10" x1="469.0" x2="581.0" y1="1541.0" y2="1413.0" /><line stroke="#333" stroke-width="10" x1="581.0" x2="533.0" y1="1413.0" y2="1221.0" /><line stroke="#333" stroke-width="10" x1="533.0" x2="565.0" y1="1221.0" y2="1093.0" /><line stroke="#333" stroke-width="10" x1="501.0" x2="373.0" y1="1029.0" y2="1013.0" /><line stroke="#999" stroke-width="3" x1="565.0" x2="501.0" y1="1093.0" y2="1029.0" /><line stroke="#999" stroke-width="3" x1="373.0" x2="469.0" y1="1013.0" y2="1285.0" /><line stroke="#999" stroke-width="3" x1="389.0" x2="405.0" y1="1253.0" y2="1333.0" /><line stroke="#999" stroke-width="3" x1="469.0" x2="389.0" y1="1285.0" y2="1253.0" /><line stroke="#333" stroke-width="10" x1="565.0" x2="469.0" y1="1861.0" y2="1541.0" /><line stroke="#333" stroke-width="10" x1="629.0" x2="565.0" y1="1861.0" y2="1861.0" /><line stroke="#999" stroke-width="3" x1="309.0" x2="373.0" y1="1541.0" y2="1477.0" /><line stroke="#999" stroke-width="3" x1="373.0" x2="341.0" y1="1477.0" y2="1333.0" /><line stroke="#999" stroke-width="3" x1="293.0" x2="373.0" y1="1173.0" y2="1205.0" /><line stroke="#999" stroke-width="3" x1="53.0" x2="149.0" y1="1157.0" y2="1381.0" /><line stroke="#999" stroke-width="3" x1="373.0" x2="309.0" y1="1205.0" y2="997.0" /><line stroke="#333" stroke-width="10" x1="309.0" x2="117.0" y1="997.0" y2="1029.0" /><line stroke="#333" stroke-width="10" x1="117.0" x2="53.0" y1="1029.0" y2="1157.0" /><line stroke="#999" stroke-width="3" x1="149.0" x2="309.0" y1="1381.0" y2="1541.0" /><line stroke="#666" stroke-width="20" x1="341.0" x2="293.0" y1="1333.0" y2="1173.0" /><line stroke="#999" stroke-width="3" x1="405.0" x2="469.0" y1="1333.0" y2="1541.0" /><line stroke="#666" stroke-width="20" x1="373.0" x2="309.0" y1="1013.0" y2="997.0" /><line stroke="#999" stroke-width="3" x1="373.0" x2="405.0" y1="1477.0" y2="1573.0" /><line stroke="#999" stroke-width="3" x1="405.0" x2="469.0" y1="1573.0" y2="1541.0" /><line stroke="#333" stroke-width="10" x1="581.0" x2="501.0" y1="1045.0" y2="1029.0" /><line stroke="#333" stroke-width="10" x1="565.0" x2="581.0" y1="1093.0" y2="1045.0" /><line stroke="#333" stroke-width="10" x1="309.0" x2="405.0" y1="1541.0" y2="1573.0" /><line stroke="#333" stroke-width="10" x1="293.0" x2="309.0" y1="1557.0" y2="1541.0" /><line stroke="#333" stroke-width="10" x1="53.0" x2="37.0" y1="1157.0" y2="1173.0" /><line stroke="#999" stroke-width="3" x1="133.0" x2="37.0" y1="1397.0" y2="1173.0" /><line stroke="#999" stroke-width="3" x1="293.0" x2="133.0" y1="1557.0" y2="1397.0" /><line stroke="#333" stroke-width="10" x1="181.0" x2="293.0" y1="1573.0" y2="1557.0" /><line stroke="#333" stroke-width="10" x1="37.0" x2="5.0" y1="1173.0" y2="1269.0" /><line stroke="#333" stroke-width="10" x1="5.0" x2="45.0" y1="1269.0" y2="1445.0" /><line stroke="#333" stroke-width="10" x1="45.0" x2="181.0" y1="1445.0" y2="1573.0" /><line stroke="#00d" stroke-width="20" x1="181.0" x2="117.0" y1="1157.0" y2="1157.0" /><line stroke="#00d" stroke-width="20" x1="181.0" x2="181.0" y1="1093.0" y2="1157.0" /><line stroke="#00d" stroke-width="20" x1="117.0" x2="181.0" y1="1093.0" y2="1093.0" /><line stroke="#00d" stroke-width="20" x1="117.0" x2="117.0" y1="1157.0" y2="1093.0" /><line stroke="#333" stroke-width="10" x1="373.0" x2="373.0" y1="997.0" y2="901.0" /><line stroke="#333" stroke-width="10" x1="373.0" x2="309.0" y1="901.0" y2="901.0" /><line stroke="#333" stroke-width="10" x1="309.0" x2="309.0" y1="901.0" y2="981.0" /><line stroke="#333" stroke-width="10" x1="373.0" x2="373.0" y1="1013.0" y2="997.0" /><line stroke="#666" stroke-width="20" x1="309.0" x2="373.0" y1="981.0" y2="997.0" /><line stroke="#333" stroke-width="10" x1="309.0" x2="309.0" y1="981.0" y2="997.0" /><ellipse cx="1205.0" cy="133.0" fill="#009" rx="12" ry="24" stroke="#009" stroke-width="5" /><circle cx="1205.0" cy="2117.0" fill="#900" r="16" stroke="#900" stroke-width="5" /><circle cx="949.0" cy="517.0" fill="#009" r="16" stroke="#009" stroke-width="5" /><rect fill="#900" height="48" stroke="#900" stroke-width="5" transform="rotate(225,1717.0,1349.0)" width="32" x="1701.0" y="1325.0" /><rect fill="#900" height="48" stroke="#900" stroke-width="5" transform="rotate(0,949.0,1797.0)" width="32" x="933.0" y="1773.0" /><ellipse cx="885.0" cy="101.0" fill="#900" rx="12" ry="24" stroke="#900" stroke-width="5" /><rect fill="#090" height="24" stroke="#090" stroke-width="5" transform="rotate(0,1013.0,389.0)" width="24" x="1001.0" y="377.0" /><rect fill="#900" height="48" stroke="#900" stroke-width="5" transform="rotate(180,1461.0,1797.0)" width="32" x="1445.0" y="1773.0" /><rect fill="#090" height="24" stroke="#090" stroke-width="5" transform="rotate(0,693.0,325.0)" width="24" x="681.0" y="313.0" /><rect fill="#090" height="24" stroke="#090" stroke-width="5" transform="rotate(225,1461.0,2309.0)" width="24" x="1449.0" y="2297.0" /><circle cx="885.0" cy="1093.0" fill="#090" r="16" stroke="#090" stroke-width="5" /><circle cx="821.0" cy="133.0" fill="#090" r="16" stroke="#090" stroke-width="5" /><circle cx="1013.0" cy="517.0" fill="#009" r="16" stroke="#009" stroke-width="5" /><circle cx="1397.0" cy="517.0" fill="#009" r="16" stroke="#009" stroke-width="5" /><circle cx="1461.0" cy="517.0" fill="#009" r="16" stroke="#009" stroke-width="5" /><circle cx="1269.0" cy="1157.0" fill="#009" r="16" stroke="#009" stroke-width="5" /><rect fill="#090" height="24" stroke="#090" stroke-width="5" transform="rotate(225,1397.0,325.0)" width="24" x="1385.0" y="313.0" /><rect fill="#090" height="24" stroke="#090" stroke-width="5" transform="rotate(225,1589.0,261.0)" width="24" x="1577.0" y="249.0" /><rect fill="#090" height="24" stroke="#090" stroke-width="5" transform="rotate(225,1653.0,389.0)" width="24" x="1641.0" y="377.0" /><rect fill="#900" height="48" stroke="#900" stroke-width="5" transform="rotate(180,1333.0,837.0)" width="32" x="1317.0" y="813.0" /><rect fill="#900" height="48" stroke="#900" stroke-width="5" transform="rotate(0,1077.0,837.0)" width="32" x="1061.0" y="813.0" /><ellipse cx="1269.0" cy="133.0" fill="#009" rx="12" ry="24" stroke="#009" stroke-width="5" /><rect fill="#900" height="48" stroke="#900" stroke-width="5" transform="rotate(315,693.0,1349.0)" width="32" x="677.0" y="1325.0" /><rect fill="#900" height="48" stroke="#900" stroke-width="5" transform="rotate(45,693.0,1093.0)" width="32" x="677.0" y="1069.0" /><rect fill="#900" height="48" stroke="#900" stroke-width="5" transform="rotate(135,1717.0,1093.0)" width="32" x="1701.0" y="1069.0" /><rect fill="#900" height="48" stroke="#900" stroke-width="5" transform="rotate(315,949.0,2309.0)" width="32" x="933.0" y="2285.0" /><rect fill="#900" height="48" stroke="#900" stroke-width="5" transform="rotate(0,693.0,2117.0)" width="32" x="677.0" y="2093.0" /><rect fill="#900" height="48" stroke="#900" stroke-width="5" transform="rotate(180,1717.0,2117.0)" width="32" x="1701.0" y="2093.0" /><rect fill="#090" height="24" stroke="#090" stroke-width="5" transform="rotate(180,1861.0,1429.0)" width="24" x="1849.0" y="1417.0" /><rect fill="#090" height="24" stroke="#090" stroke-width="5" transform="rotate(180,2021.0,1429.0)" width="24" x="2009.0" y="1417.0" /><rect fill="#090" height="24" stroke="#090" stroke-width="5" transform="rotate(180,2021.0,1589.0)" width="24" x="2009.0" y="1577.0" /><rect fill="#090" height="24" stroke="#090" stroke-width="5" transform="rotate(180,1861.0,1589.0)" width="24" x="1849.0" y="1577.0" /><ellipse cx="133.0" cy="1461.0" fill="#090" rx="12" ry="24" stroke="#090" stroke-width="5" /><rect fill="#900" height="48" stroke="#900" stroke-width="5" transform="rotate(90,1685.0,1509.0)" width="32" x="1669.0" y="1485.0" /><rect fill="#900" height="48" stroke="#900" stroke-width="5" transform="rotate(90,725.0,1509.0)" width="32" x="709.0" y="1485.0" /><circle cx="645.0" cy="2069.0" fill="#009" r="16" stroke="#009" stroke-width="5" /><circle cx="645.0" cy="2085.0" fill="#009" r="16" stroke="#009" stroke-width="5" /><circle cx="645.0" cy="2101.0" fill="#009" r="16" stroke="#009" stroke-width="5" /><circle cx="645.0" cy="2117.0" fill="#009" r="16" stroke="#009" stroke-width="5" /><circle cx="645.0" cy="2133.0" fill="#009" r="16" stroke="#009" stroke-width="5" /><circle cx="645.0" cy="2149.0" fill="#009" r="16" stroke="#009" stroke-width="5" /><circle cx="645.0" cy="2165.0" fill="#009" r="16" stroke="#009" stroke-width="5" /><circle cx="1765.0" cy="2069.0" fill="#009" r="16" stroke="#009" stroke-width="5" /><circle cx="1765.0" cy="2085.0" fill="#009" r="16" stroke="#009" stroke-width="5" /><circle cx="1765.0" cy="2101.0" fill="#009" r="16" stroke="#009" stroke-width="5" /><circle cx="1765.0" cy="2117.0" fill="#009" r="16" stroke="#009" stroke-width="5" /><circle cx="1765.0" cy="2133.0" fill="#009" r="16" stroke="#009" stroke-width="5" /><circle cx="1765.0" cy="2149.0" fill="#009" r="16" stroke="#009" stroke-width="5" /><circle cx="1765.0" cy="2165.0" fill="#009" r="16" stroke="#009" stroke-width="5" /><circle cx="917.0" cy="1765.0" fill="#090" r="16" stroke="#090" stroke-width="5" /><circle cx="1493.0" cy="2341.0" fill="#090" r="16" stroke="#090" stroke-width="5" /><circle cx="1493.0" cy="1765.0" fill="#009" r="16" stroke="#009" stroke-width="5" /><circle cx="917.0" cy="629.0" fill="#009" r="16" stroke="#009" stroke-width="5" /><circle cx="709.0" cy="1717.0" fill="#009" r="16" stroke="#009" stroke-width="5" /><circle cx="709.0" cy="1733.0" fill="#009" r="16" stroke="#009" stroke-width="5" /><circle cx="709.0" cy="1749.0" fill="#009" r="16" stroke="#009" stroke-width="5" /><circle cx="741.0" cy="1813.0" fill="#009" r="16" stroke="#009" stroke-width="5" /><circle cx="741.0" cy="1797.0" fill="#009" r="16" stroke="#009" stroke-width="5" /><circle cx="741.0" cy="1781.0" fill="#009" r="16" stroke="#009" stroke-width="5" /><rect fill="#090" height="24" stroke="#090" stroke-width="5" transform="rotate(90,1301.0,1429.0)" width="24" x="1289.0" y="1417.0" /><rect fill="#090" height="24" stroke="#090" stroke-width="5" transform="rotate(90,1109.0,1429.0)" width="24" x="1097.0" y="1417.0" /><ellipse cx="869.0" cy="149.0" fill="#900" rx="12" ry="24" stroke="#900" stroke-width="5" /><ellipse cx="837.0" cy="181.0" fill="#900" rx="12" ry="24" stroke="#900" stroke-width="5" /><ellipse cx="789.0" cy="197.0" fill="#900" rx="12" ry="24" stroke="#900" stroke-width="5" /><rect fill="#090" height="24" stroke="#090" stroke-width="5" transform="rotate(225,1621.0,453.0)" width="24" x="1609.0" y="441.0" /><rect fill="#090" height="24" stroke="#090" stroke-width="5" transform="rotate(225,1702.0,358.0)" width="24" x="1690.0" y="346.0" /><rect fill="#090" height="24" stroke="#090" stroke-width="5" transform="rotate(225,1491.0,390.0)" width="24" x="1479.0" y="378.0" /><rect fill="#090" height="24" stroke="#090" stroke-width="5" transform="rotate(225,948.0,327.0)" width="24" x="936.0" y="315.0" /><rect fill="#090" height="24" stroke="#090" stroke-width="5" transform="rotate(225,805.0,423.0)" width="24" x="793.0" y="411.0" /><rect fill="#090" height="24" stroke="#090" stroke-width="5" transform="rotate(90,901.0,181.0)" width="24" x="889.0" y="169.0" /><ellipse cx="1077.0" cy="69.0" fill="#009" rx="12" ry="24" stroke="#009" stroke-width="5" /><ellipse cx="1013.0" cy="69.0" fill="#009" rx="12" ry="24" stroke="#009" stroke-width="5" /><rect fill="#090" height="24" stroke="#090" stroke-width="5" transform="rotate(90,1061.0,565.0)" width="24" x="1049.0" y="553.0" /><rect fill="#090" height="24" stroke="#090" stroke-width="5" transform="rotate(90,1349.0,565.0)" width="24" x="1337.0" y="553.0" /><rect fill="#090" height="24" stroke="#090" stroke-width="5" transform="rotate(225,1525.0,325.0)" width="24" x="1513.0" y="313.0" /><rect fill="#090" height="24" stroke="#090" stroke-width="5" transform="rotate(180,1941.0,1509.0)" width="24" x="1929.0" y="1497.0" /><rect fill="#900" height="48" stroke="#900" stroke-width="5" transform="rotate(225,1301.0,645.0)" width="32" x="1285.0" y="621.0" /><rect fill="#900" height="48" stroke="#900" stroke-width="5" transform="rotate(315,1107.0,647.0)" width="32" x="1091.0" y="623.0" /><rect fill="#090" height="24" stroke="#090" stroke-width="5" transform="rotate(0,549.0,1061.0)" width="24" x="537.0" y="1049.0" /><rect fill="#090" height="24" stroke="#090" stroke-width="5" transform="rotate(0,357.0,1525.0)" width="24" x="345.0" y="1513.0" /><rect fill="#900" height="48" stroke="#900" stroke-width="5" transform="rotate(315,184.0,1518.0)" width="32" x="168.0" y="1494.0" /><rect fill="#900" height="48" stroke="#900" stroke-width="5" transform="rotate(0,89.0,1418.0)" width="32" x="73.0" y="1394.0" /><rect fill="#900" height="48" stroke="#900" stroke-width="5" transform="rotate(45,43.0,1282.0)" width="32" x="27.0" y="1258.0" /><rect fill="#900" height="48" stroke="#900" stroke-width="5" transform="rotate(90,1205.0,1285.0)" width="32" x="1189.0" y="1261.0" /><rect fill="#009" height="24" stroke="#009" stroke-width="5" transform="rotate(0,661.0,1221.0)" width="24" x="649.0" y="1209.0" /><rect fill="#090" height="24" stroke="#090" stroke-width="5" transform="rotate(90,373.0,1285.0)" width="24" x="361.0" y="1273.0" /><rect fill="#090" height="24" stroke="#090" stroke-width="5" transform="rotate(90,373.0,1093.0)" width="24" x="361.0" y="1081.0" /><circle cx="2005.0" cy="1125.0" fill="#009" r="16" stroke="#009" stroke-width="5" /><circle cx="469.0" cy="1669.0" fill="#090" r="16" stroke="#090" stroke-width="5" /><circle cx="245.0" cy="1317.0" fill="#090" r="16" stroke="#090" stroke-width="5" /><rect fill="#090" height="24" stroke="#090" stroke-width="5" transform="rotate(90,341.0,933.0)" width="24" x="329.0" y="921.0" /><circle cx="1781.0" cy="1221.0" fill="#009" r="16" stroke="#009" stroke-width="5" /><circle cx="1941.0" cy="1317.0" fill="#090" r="16" stroke="#090" stroke-width="5" /><circle cx="1525.0" cy="1349.0" fill="#090" r="16" stroke="#090" stroke-width="5" /><rect fill="#090" height="24" stroke="#090" stroke-width="5" transform="rotate(90,1205.0,1637.0)" width="24" x="1193.0" y="1625.0" /><rect fill="#090" height="24" stroke="#090" stroke-width="5" transform="rotate(90,1429.0,1925.0)" width="24" x="1417.0" y="1913.0" /><rect fill="#090" height="24" stroke="#090" stroke-width="5" transform="rotate(90,949.0,2117.0)" width="24" x="937.0" y="2105.0" /><circle cx="1669.0" cy="1797.0" fill="#009" r="16" stroke="#009" stroke-width="5" /><circle cx="1669.0" cy="1813.0" fill="#009" r="16" stroke="#009" stroke-width="5" /><circle cx="1669.0" cy="1829.0" fill="#009" r="16" stroke="#009" stroke-width="5" /><circle cx="1701.0" cy="1701.0" fill="#009" r="16" stroke="#009" stroke-width="5" /><circle cx="1701.0" cy="1717.0" fill="#009" r="16" stroke="#009" stroke-width="5" /><circle cx="1701.0" cy="1733.0" fill="#009" r="16" stroke="#009" stroke-width="5" /></svg>