<?xml version="1.0" encoding="utf-8" ?>
<svg baseProfile="tiny" height="853" version="1.2" viewBox="0 0 3354 2794" width="1024" xmlns="http://www.w3.org/2000/svg" xmlns:ev="http://www.w3.org/2001/xml-events" xmlns:xlink="http://www.w3.org/1999/xlink"><defs /><line stroke="#999" stroke-width="3" x1="3301.0" x2="3301.0" y1="2725.0" y2="2533.0" /><line stroke="#333" stroke-width="10" x1="677.0" x2="677.0" y1="253.0" y2="1077.0" /><line stroke="#999" stroke-width="3" x1="2789.0" x2="2725.0" y1="1589.0" y2="1589.0" /><line stroke="#999" stroke-width="3" x1="2789.0" x2="2789.0" y1="1525.0" y2="1589.0" /><line stroke="#999" stroke-width="3" x1="2725.0" x2="2789.0" y1="1525.0" y2="1525.0" /><line stroke="#999" stroke-width="3" x1="2725.0" x2="2725.0" y1="1589.0" y2="1525.0" /><line stroke="#999" stroke-width="3" x1="2757.0" x2="2757.0" y1="1269.0" y2="1205.0" /><line stroke="#999" stroke-width="3" x1="2757.0" x2="2821.0" y1="1205.0" y2="1205.0" /><line stroke="#999" stroke-width="3" x1="2821.0" x2="2821.0" y1="1205.0" y2="1269.0" /><line stroke="#999" stroke-width="3" x1="2821.0" x2="2757.0" y1="1269.0" y2="1269.0" /><line stroke="#999" stroke-width="3" x1="2757.0" x2="2693.0" y1="1941.0" y2="1941.0" /><line stroke="#999" stroke-width="3" x1="2757.0" x2="2757.0" y1="1877.0" y2="1941.0" /><line stroke="#999" stroke-width="3" x1="2693.0" x2="2757.0" y1="1877.0" y2="1877.0" /><line stroke="#999" stroke-width="3" x1="2693.0" x2="2693.0" y1="1941.0" y2="1877.0" /><line stroke="#999" stroke-width="3" x1="1317.0" x2="1317.0" y1="1461.0" y2="1397.0" /><line stroke="#999" stroke-width="3" x1="1317.0" x2="1381.0" y1="1397.0" y2="1397.0" /><line stroke="#999" stroke-width="3" x1="1381.0" x2="1381.0" y1="1397.0" y2="1461.0" /><line stroke="#999" stroke-width="3" x1="1381.0" x2="1317.0" y1="1461.0" y2="1461.0" /><line stroke="#999" stroke-width="3" x1="1573.0" x2="1509.0" y1="1045.0" y2="1045.0" /><line stroke="#999" stroke-width="3" x1="1573.0" x2="1573.0" y1="981.0" y2="1045.0" /><line stroke="#999" stroke-width="3" x1="1509.0" x2="1573.0" y1="981.0" y2="981.0" /><line stroke="#999" stroke-width="3" x1="1509.0" x2="1509.0" y1="1045.0" y2="981.0" /><line stroke="#999" stroke-width="3" x1="2341.0" x2="2341.0" y1="885.0" y2="821.0" /><line stroke="#999" stroke-width="3" x1="2341.0" x2="2405.0" y1="821.0" y2="821.0" /><line stroke="#999" stroke-width="3" x1="2405.0" x2="2405.0" y1="821.0" y2="885.0" /><line stroke="#999" stroke-width="3" x1="2405.0" x2="2341.0" y1="885.0" y2="885.0" /><line stroke="#999" stroke-width="3" x1="1125.0" x2="1125.0" y1="1077.0" y2="1013.0" /><line stroke="#999" stroke-width="3" x1="1125.0" x2="1133.0" y1="1013.0" y2="1013.0" /><line stroke="#999" stroke-width="3" x1="1189.0" x2="1189.0" y1="1013.0" y2="1077.0" /><line stroke="#999" stroke-width="3" x1="1189.0" x2="1125.0" y1="1077.0" y2="1077.0" /><line stroke="#999" stroke-width="3" x1="2597.0" x2="2597.0" y1="2293.0" y2="2229.0" /><line stroke="#999" stroke-width="3" x1="2597.0" x2="2661.0" y1="2229.0" y2="2229.0" /><line stroke="#999" stroke-width="3" x1="2661.0" x2="2661.0" y1="2229.0" y2="2293.0" /><line stroke="#999" stroke-width="3" x1="2661.0" x2="2597.0" y1="2293.0" y2="2293.0" /><line stroke="#999" stroke-width="3" x1="1061.0" x2="997.0" y1="2293.0" y2="2293.0" /><line stroke="#999" stroke-width="3" x1="1061.0" x2="1061.0" y1="2229.0" y2="2293.0" /><line stroke="#999" stroke-width="3" x1="997.0" x2="1061.0" y1="2229.0" y2="2229.0" /><line stroke="#999" stroke-width="3" x1="997.0" x2="997.0" y1="2293.0" y2="2229.0" /><line stroke="#999" stroke-width="3" x1="1765.0" x2="1701.0" y1="2357.0" y2="2357.0" /><line stroke="#999" stroke-width="3" x1="1765.0" x2="1765.0" y1="2293.0" y2="2357.0" /><line stroke="#999" stroke-width="3" x1="1701.0" x2="1765.0" y1="2293.0" y2="2293.0" /><line stroke="#999" stroke-width="3" x1="1701.0" x2="1701.0" y1="2357.0" y2="2293.0" /><line stroke="#999" stroke-width="3" x1="933.0" x2="933.0" y1="1397.0" y2="1333.0" /><line stroke="#999" stroke-width="3" x1="933.0" x2="997.0" y1="1333.0" y2="1333.0" /><line stroke="#999" stroke-width="3" x1="997.0" x2="997.0" y1="1333.0" y2="1397.0" /><line stroke="#999" stroke-width="3" x1="997.0" x2="933.0" y1="1397.0" y2="1397.0" /><line stroke="#999" stroke-width="3" x1="3045.0" x2="2981.0" y1="757.0" y2="757.0" /><line stroke="#999" stroke-width="3" x1="3045.0" x2="3045.0" y1="693.0" y2="757.0" /><line stroke="#999" stroke-width="3" x1="2981.0" x2="3045.0" y1="693.0" y2="693.0" /><line stroke="#999" stroke-width="3" x1="2981.0" x2="2981.0" y1="757.0" y2="693.0" /><line stroke="#999" stroke-width="3" x1="3109.0" x2="3109.0" y1="2421.0" y2="2357.0" /><line stroke="#999" stroke-width="3" x1="3109.0" x2="3173.0" y1="2357.0" y2="2357.0" /><line stroke="#999" stroke-width="3" x1="3173.0" x2="3173.0" y1="2357.0" y2="2421.0" /><line stroke="#999" stroke-width="3" x1="3173.0" x2="3109.0" y1="2421.0" y2="2421.0" /><line stroke="#999" stroke-width="3" x1="1605.0" x2="1541.0" y1="661.0" y2="661.0" /><line stroke="#999" stroke-width="3" x1="1605.0" x2="1605.0" y1="597.0" y2="661.0" /><line stroke="#999" stroke-width="3" x1="1541.0" x2="1605.0" y1="597.0" y2="597.0" /><line stroke="#999" stroke-width="3" x1="1541.0" x2="1541.0" y1="661.0" y2="597.0" /><line stroke="#999" stroke-width="3" x1="1189.0" x2="1189.0" y1="2549.0" y2="2485.0" /><line stroke="#999" stroke-width="3" x1="1189.0" x2="1253.0" y1="2485.0" y2="2485.0" /><line stroke="#999" stroke-width="3" x1="1253.0" x2="1253.0" y1="2485.0" y2="2549.0" /><line stroke="#999" stroke-width="3" x1="1253.0" x2="1189.0" y1="2549.0" y2="2549.0" /><line stroke="#999" stroke-width="3" x1="1381.0" x2="1317.0" y1="1909.0" y2="1909.0" /><line stroke="#999" stroke-width="3" x1="1381.0" x2="1381.0" y1="1845.0" y2="1909.0" /><line stroke="#999" stroke-width="3" x1="1317.0" x2="1381.0" y1="1845.0" y2="1845.0" /><line stroke="#999" stroke-width="3" x1="1317.0" x2="1317.0" y1="1909.0" y2="1845.0" /><line stroke="#999" stroke-width="3" x1="2693.0" x2="2693.0" y1="341.0" y2="277.0" /><line stroke="#999" stroke-width="3" x1="2693.0" x2="2757.0" y1="277.0" y2="277.0" /><line stroke="#999" stroke-width="3" x1="2757.0" x2="2757.0" y1="277.0" y2="341.0" /><line stroke="#999" stroke-width="3" x1="2757.0" x2="2693.0" y1="341.0" y2="341.0" /><line stroke="#999" stroke-width="3" x1="3045.0" x2="3045.0" y1="1077.0" y2="1013.0" /><line stroke="#999" stroke-width="3" x1="3045.0" x2="3109.0" y1="1013.0" y2="1013.0" /><line stroke="#999" stroke-width="3" x1="3109.0" x2="3109.0" y1="1013.0" y2="1077.0" /><line stroke="#999" stroke-width="3" x1="3109.0" x2="3045.0" y1="1077.0" y2="1077.0" /><line stroke="#999" stroke-width="3" x1="1125.0" x2="1125.0" y1="437.0" y2="373.0" /><line stroke="#999" stroke-width="3" x1="1125.0" x2="1189.0" y1="373.0" y2="373.0" /><line stroke="#999" stroke-width="3" x1="1189.0" x2="1189.0" y1="373.0" y2="437.0" /><line stroke="#999" stroke-width="3" x1="1189.0" x2="1125.0" y1="437.0" y2="437.0" /><line stroke="#999" stroke-width="3" x1="1573.0" x2="1573.0" y1="981.0" y2="917.0" /><line stroke="#999" stroke-width="3" x1="1573.0" x2="1637.0" y1="917.0" y2="917.0" /><line stroke="#999" stroke-width="3" x1="1637.0" x2="1637.0" y1="917.0" y2="981.0" /><line stroke="#999" stroke-width="3" x1="1637.0" x2="1573.0" y1="981.0" y2="981.0" /><line stroke="#999" stroke-width="3" x1="1893.0" x2="1893.0" y1="2101.0" y2="2093.0" /><line stroke="#999" stroke-width="3" x1="1893.0" x2="1901.0" y1="2037.0" y2="2037.0" /><line stroke="#999" stroke-width="3" x1="1957.0" x2="1957.0" y1="2037.0" y2="2045.0" /><line stroke="#999" stroke-width="3" x1="1957.0" x2="1949.0" y1="2101.0" y2="2101.0" /><line stroke="#999" stroke-width="3" x1="2213.0" x2="2213.0" y1="2357.0" y2="2293.0" /><line stroke="#999" stroke-width="3" x1="2213.0" x2="2277.0" y1="2293.0" y2="2293.0" /><line stroke="#999" stroke-width="3" x1="2277.0" x2="2277.0" y1="2293.0" y2="2357.0" /><line stroke="#999" stroke-width="3" x1="2277.0" x2="2213.0" y1="2357.0" y2="2357.0" /><line stroke="#999" stroke-width="3" x1="1957.0" x2="1893.0" y1="661.0" y2="661.0" /><line stroke="#999" stroke-width="3" x1="1957.0" x2="1957.0" y1="597.0" y2="661.0" /><line stroke="#999" stroke-width="3" x1="1893.0" x2="1957.0" y1="597.0" y2="597.0" /><line stroke="#999" stroke-width="3" x1="1893.0" x2="1893.0" y1="661.0" y2="597.0" /><line stroke="#999" stroke-width="3" x1="2213.0" x2="2213.0" y1="501.0" y2="437.0" /><line stroke="#999" stroke-width="3" x1="2213.0" x2="2277.0" y1="437.0" y2="437.0" /><line stroke="#999" stroke-width="3" x1="2277.0" x2="2277.0" y1="437.0" y2="501.0" /><line stroke="#999" stroke-width="3" x1="2277.0" x2="2213.0" y1="501.0" y2="501.0" /><line stroke="#999" stroke-width="3" x1="2021.0" x2="1957.0" y1="2677.0" y2="2677.0" /><line stroke="#999" stroke-width="3" x1="2021.0" x2="2021.0" y1="2613.0" y2="2677.0" /><line stroke="#999" stroke-width="3" x1="1957.0" x2="2021.0" y1="2613.0" y2="2613.0" /><line stroke="#999" stroke-width="3" x1="1957.0" x2="1957.0" y1="2677.0" y2="2613.0" /><line stroke="#999" stroke-width="3" x1="869.0" x2="805.0" y1="2613.0" y2="2613.0" /><line stroke="#999" stroke-width="3" x1="869.0" x2="869.0" y1="2549.0" y2="2613.0" /><line stroke="#999" stroke-width="3" x1="805.0" x2="869.0" y1="2549.0" y2="2549.0" /><line stroke="#999" stroke-width="3" x1="805.0" x2="805.0" y1="2613.0" y2="2549.0" /><line stroke="#999" stroke-width="3" x1="997.0" x2="933.0" y1="1845.0" y2="1845.0" /><line stroke="#999" stroke-width="3" x1="997.0" x2="997.0" y1="1781.0" y2="1845.0" /><line stroke="#999" stroke-width="3" x1="933.0" x2="997.0" y1="1781.0" y2="1781.0" /><line stroke="#999" stroke-width="3" x1="933.0" x2="933.0" y1="1845.0" y2="1781.0" /><line stroke="#999" stroke-width="3" x1="1605.0" x2="1541.0" y1="277.0" y2="277.0" /><line stroke="#999" stroke-width="3" x1="1605.0" x2="1605.0" y1="213.0" y2="277.0" /><line stroke="#999" stroke-width="3" x1="1541.0" x2="1605.0" y1="213.0" y2="213.0" /><line stroke="#999" stroke-width="3" x1="1541.0" x2="1541.0" y1="277.0" y2="213.0" /><line stroke="#999" stroke-width="3" x1="805.0" x2="805.0" y1="629.0" y2="565.0" /><line stroke="#999" stroke-width="3" x1="805.0" x2="869.0" y1="565.0" y2="565.0" /><line stroke="#999" stroke-width="3" x1="869.0" x2="869.0" y1="565.0" y2="629.0" /><line stroke="#999" stroke-width="3" x1="869.0" x2="805.0" y1="629.0" y2="629.0" /><line stroke="#999" stroke-width="3" x1="3109.0" x2="3045.0" y1="1781.0" y2="1781.0" /><line stroke="#999" stroke-width="3" x1="3109.0" x2="3109.0" y1="1717.0" y2="1781.0" /><line stroke="#999" stroke-width="3" x1="3045.0" x2="3109.0" y1="1717.0" y2="1717.0" /><line stroke="#999" stroke-width="3" x1="3045.0" x2="3045.0" y1="1781.0" y2="1717.0" /><line stroke="#999" stroke-width="3" x1="2597.0" x2="2597.0" y1="949.0" y2="885.0" /><line stroke="#999" stroke-width="3" x1="2597.0" x2="2661.0" y1="885.0" y2="885.0" /><line stroke="#999" stroke-width="3" x1="2661.0" x2="2661.0" y1="885.0" y2="949.0" /><line stroke="#999" stroke-width="3" x1="2661.0" x2="2597.0" y1="949.0" y2="949.0" /><line stroke="#999" stroke-width="3" x1="1445.0" x2="1381.0" y1="1845.0" y2="1845.0" /><line stroke="#999" stroke-width="3" x1="1445.0" x2="1445.0" y1="1781.0" y2="1845.0" /><line stroke="#999" stroke-width="3" x1="1381.0" x2="1445.0" y1="1781.0" y2="1781.0" /><line stroke="#999" stroke-width="3" x1="1381.0" x2="1381.0" y1="1845.0" y2="1781.0" /><line stroke="#999" stroke-width="3" x1="1509.0" x2="1445.0" y1="1909.0" y2="1909.0" /><line stroke="#999" stroke-width="3" x1="1509.0" x2="1509.0" y1="1845.0" y2="1909.0" /><line stroke="#999" stroke-width="3" x1="1445.0" x2="1509.0" y1="1845.0" y2="1845.0" /><line stroke="#999" stroke-width="3" x1="1445.0" x2="1445.0" y1="1909.0" y2="1845.0" /><line stroke="#999" stroke-width="3" x1="2405.0" x2="2405.0" y1="821.0" y2="757.0" /><line stroke="#999" stroke-width="3" x1="2405.0" x2="2469.0" y1="757.0" y2="757.0" /><line stroke="#999" stroke-width="3" x1="2469.0" x2="2469.0" y1="757.0" y2="821.0" /><line stroke="#999" stroke-width="3" x1="2469.0" x2="2405.0" y1="821.0" y2="821.0" /><line stroke="#999" stroke-width="3" x1="2405.0" x2="2405.0" y1="1973.0" y2="1909.0" /><line stroke="#999" stroke-width="3" x1="2405.0" x2="2469.0" y1="1909.0" y2="1909.0" /><line stroke="#999" stroke-width="3" x1="2469.0" x2="2469.0" y1="1909.0" y2="1973.0" /><line stroke="#999" stroke-width="3" x1="2469.0" x2="2405.0" y1="1973.0" y2="1973.0" /><line stroke="#999" stroke-width="3" x1="2821.0" x2="2757.0" y1="1877.0" y2="1877.0" /><line stroke="#999" stroke-width="3" x1="2821.0" x2="2821.0" y1="1813.0" y2="1877.0" /><line stroke="#999" stroke-width="3" x1="2757.0" x2="2821.0" y1="1813.0" y2="1813.0" /><line stroke="#999" stroke-width="3" x1="2757.0" x2="2757.0" y1="1877.0" y2="1813.0" /><line stroke="#999" stroke-width="3" x1="1189.0" x2="1189.0" y1="1013.0" y2="949.0" /><line stroke="#999" stroke-width="3" x1="1189.0" x2="1253.0" y1="949.0" y2="949.0" /><line stroke="#999" stroke-width="3" x1="1253.0" x2="1253.0" y1="949.0" y2="1013.0" /><line stroke="#999" stroke-width="3" x1="1253.0" x2="1189.0" y1="1013.0" y2="1013.0" /><line stroke="#999" stroke-width="3" x1="1189.0" x2="1125.0" y1="949.0" y2="949.0" /><line stroke="#999" stroke-width="3" x1="1189.0" x2="1189.0" y1="885.0" y2="949.0" /><line stroke="#999" stroke-width="3" x1="1125.0" x2="1189.0" y1="885.0" y2="885.0" /><line stroke="#999" stroke-width="3" x1="1125.0" x2="1125.0" y1="949.0" y2="885.0" /><line stroke="#999" stroke-width="3" x1="3109.0" x2="3045.0" y1="2485.0" y2="2485.0" /><line stroke="#999" stroke-width="3" x1="3109.0" x2="3109.0" y1="2421.0" y2="2485.0" /><line stroke="#999" stroke-width="3" x1="3045.0" x2="3109.0" y1="2421.0" y2="2421.0" /><line stroke="#999" stroke-width="3" x1="3045.0" x2="3045.0" y1="2485.0" y2="2421.0" /><line stroke="#999" stroke-width="3" x1="2597.0" x2="2533.0" y1="885.0" y2="885.0" /><line stroke="#999" stroke-width="3" x1="2597.0" x2="2597.0" y1="821.0" y2="885.0" /><line stroke="#999" stroke-width="3" x1="2533.0" x2="2597.0" y1="821.0" y2="821.0" /><line stroke="#999" stroke-width="3" x1="2533.0" x2="2533.0" y1="885.0" y2="821.0" /><line stroke="#999" stroke-width="3" x1="2469.0" x2="2405.0" y1="2485.0" y2="2485.0" /><line stroke="#999" stroke-width="3" x1="2469.0" x2="2469.0" y1="2421.0" y2="2485.0" /><line stroke="#999" stroke-width="3" x1="2405.0" x2="2469.0" y1="2421.0" y2="2421.0" /><line stroke="#999" stroke-width="3" x1="2405.0" x2="2405.0" y1="2485.0" y2="2421.0" /><line stroke="#999" stroke-width="3" x1="2021.0" x2="2021.0" y1="309.0" y2="245.0" /><line stroke="#999" stroke-width="3" x1="2021.0" x2="2085.0" y1="245.0" y2="245.0" /><line stroke="#999" stroke-width="3" x1="2085.0" x2="2085.0" y1="245.0" y2="309.0" /><line stroke="#999" stroke-width="3" x1="2085.0" x2="2021.0" y1="309.0" y2="309.0" /><line stroke="#999" stroke-width="3" x1="3045.0" x2="3045.0" y1="309.0" y2="245.0" /><line stroke="#999" stroke-width="3" x1="3045.0" x2="3109.0" y1="245.0" y2="245.0" /><line stroke="#999" stroke-width="3" x1="3109.0" x2="3109.0" y1="245.0" y2="309.0" /><line stroke="#999" stroke-width="3" x1="3109.0" x2="3045.0" y1="309.0" y2="309.0" /><line stroke="#333" stroke-width="10" x1="741.0" x2="677.0" y1="2229.0" y2="2229.0" /><line stroke="#333" stroke-width="10" x1="677.0" x2="677.0" y1="2229.0" y2="2533.0" /><line stroke="#333" stroke-width="10" x1="677.0" x2="741.0" y1="2165.0" y2="2165.0" /><line stroke="#333" stroke-width="10" x1="741.0" x2="741.0" y1="2165.0" y2="2229.0" /><line stroke="#333" stroke-width="10" x1="677.0" x2="677.0" y1="1141.0" y2="1509.0" /><line stroke="#333" stroke-width="10" x1="1893.0" x2="997.0" y1="53.0" y2="53.0" /><line stroke="#999" stroke-width="3" x1="933.0" x2="933.0" y1="117.0" y2="53.0" /><line stroke="#999" stroke-width="3" x1="997.0" x2="933.0" y1="117.0" y2="117.0" /><line stroke="#333" stroke-width="10" x1="1893.0" x2="1893.0" y1="117.0" y2="53.0" /><line stroke="#999" stroke-width="3" x1="997.0" x2="997.0" y1="53.0" y2="117.0" /><line stroke="#333" stroke-width="10" x1="933.0" x2="885.0" y1="53.0" y2="53.0" /><line stroke="#333" stroke-width="10" x1="1957.0" x2="1957.0" y1="53.0" y2="117.0" /><line stroke="#333" stroke-width="10" x1="1957.0" x2="1893.0" y1="117.0" y2="117.0" /><line stroke="#333" stroke-width="10" x1="2597.0" x2="2597.0" y1="117.0" y2="53.0" /><line stroke="#333" stroke-width="10" x1="2661.0" x2="2597.0" y1="117.0" y2="117.0" /><line stroke="#333" stroke-width="10" x1="2597.0" x2="1957.0" y1="53.0" y2="53.0" /><line stroke="#333" stroke-width="10" x1="2661.0" x2="2661.0" y1="53.0" y2="117.0" /><line stroke="#333" stroke-width="10" x1="1445.0" x2="1445.0" y1="2677.0" y2="2741.0" /><line stroke="#333" stroke-width="10" x1="1381.0" x2="1381.0" y1="2741.0" y2="2677.0" /><line stroke="#333" stroke-width="10" x1="1381.0" x2="1445.0" y1="2677.0" y2="2677.0" /><line stroke="#999" stroke-width="3" x1="2277.0" x2="2341.0" y1="2677.0" y2="2677.0" /><line stroke="#999" stroke-width="3" x1="2277.0" x2="2277.0" y1="2741.0" y2="2677.0" /><line stroke="#333" stroke-width="10" x1="1445.0" x2="2277.0" y1="2741.0" y2="2741.0" /><line stroke="#333" stroke-width="10" x1="2341.0" x2="3093.0" y1="2741.0" y2="2741.0" /><line stroke="#999" stroke-width="3" x1="2341.0" x2="2341.0" y1="2677.0" y2="2741.0" /><line stroke="#333" stroke-width="10" x1="3301.0" x2="3301.0" y1="1781.0" y2="885.0" /><line stroke="#333" stroke-width="10" x1="3237.0" x2="3245.0" y1="821.0" y2="821.0" /><line stroke="#333" stroke-width="10" x1="3301.0" x2="3237.0" y1="885.0" y2="885.0" /><line stroke="#333" stroke-width="10" x1="3237.0" x2="3237.0" y1="885.0" y2="821.0" /><line stroke="#333" stroke-width="10" x1="3301.0" x2="3301.0" y1="821.0" y2="261.0" /><line stroke="#999" stroke-width="3" x1="3093.0" x2="3285.0" y1="2741.0" y2="2741.0" /><line stroke="#333" stroke-width="10" x1="3301.0" x2="3301.0" y1="2533.0" y2="1845.0" /><line stroke="#333" stroke-width="10" x1="3349.0" x2="3317.0" y1="2525.0" y2="2525.0" /><line stroke="#333" stroke-width="10" x1="3317.0" x2="3349.0" y1="2789.0" y2="2757.0" /><line stroke="#333" stroke-width="10" x1="3085.0" x2="3317.0" y1="2789.0" y2="2789.0" /><line stroke="#333" stroke-width="10" x1="3093.0" x2="3093.0" y1="2741.0" y2="2757.0" /><line stroke="#999" stroke-width="3" x1="3285.0" x2="3301.0" y1="2741.0" y2="2725.0" /><line stroke="#333" stroke-width="10" x1="3317.0" x2="3301.0" y1="2533.0" y2="2533.0" /><line stroke="#333" stroke-width="10" x1="3093.0" x2="3085.0" y1="2757.0" y2="2757.0" /><line stroke="#999" stroke-width="3" x1="3317.0" x2="3317.0" y1="2725.0" y2="2533.0" /><line stroke="#999" stroke-width="3" x1="3285.0" x2="3317.0" y1="2757.0" y2="2725.0" /><line stroke="#999" stroke-width="3" x1="3093.0" x2="3285.0" y1="2757.0" y2="2757.0" /><line stroke="#333" stroke-width="10" x1="3317.0" x2="3317.0" y1="2525.0" y2="2533.0" /><line stroke="#333" stroke-width="10" x1="3085.0" x2="3085.0" y1="2757.0" y2="2789.0" /><line stroke="#333" stroke-width="10" x1="3349.0" x2="3349.0" y1="2757.0" y2="2525.0" /><line stroke="#333" stroke-width="10" x1="661.0" x2="893.0" y1="2789.0" y2="2789.0" /><line stroke="#333" stroke-width="10" x1="661.0" x2="629.0" y1="2525.0" y2="2525.0" /><line stroke="#333" stroke-width="10" x1="893.0" x2="885.0" y1="2757.0" y2="2757.0" /><line stroke="#333" stroke-width="10" x1="661.0" x2="661.0" y1="2533.0" y2="2525.0" /><line stroke="#333" stroke-width="10" x1="629.0" x2="629.0" y1="2525.0" y2="2757.0" /><line stroke="#333" stroke-width="10" x1="629.0" x2="661.0" y1="2757.0" y2="2789.0" /><line stroke="#333" stroke-width="10" x1="893.0" x2="893.0" y1="2789.0" y2="2757.0" /><line stroke="#999" stroke-width="3" x1="661.0" x2="661.0" y1="2533.0" y2="2725.0" /><line stroke="#999" stroke-width="3" x1="661.0" x2="693.0" y1="2725.0" y2="2757.0" /><line stroke="#999" stroke-width="3" x1="693.0" x2="885.0" y1="2757.0" y2="2757.0" /><line stroke="#333" stroke-width="10" x1="885.0" x2="885.0" y1="2757.0" y2="2741.0" /><line stroke="#999" stroke-width="3" x1="677.0" x2="693.0" y1="2725.0" y2="2741.0" /><line stroke="#333" stroke-width="10" x1="677.0" x2="661.0" y1="2533.0" y2="2533.0" /><line stroke="#999" stroke-width="3" x1="677.0" x2="677.0" y1="2533.0" y2="2725.0" /><line stroke="#999" stroke-width="3" x1="693.0" x2="885.0" y1="2741.0" y2="2741.0" /><line stroke="#333" stroke-width="10" x1="885.0" x2="1381.0" y1="2741.0" y2="2741.0" /><line stroke="#999" stroke-width="3" x1="677.0" x2="677.0" y1="69.0" y2="253.0" /><line stroke="#999" stroke-width="3" x1="885.0" x2="693.0" y1="53.0" y2="53.0" /><line stroke="#333" stroke-width="10" x1="885.0" x2="885.0" y1="53.0" y2="37.0" /><line stroke="#999" stroke-width="3" x1="693.0" x2="677.0" y1="53.0" y2="69.0" /><line stroke="#333" stroke-width="10" x1="661.0" x2="677.0" y1="253.0" y2="253.0" /><line stroke="#999" stroke-width="3" x1="661.0" x2="661.0" y1="69.0" y2="253.0" /><line stroke="#999" stroke-width="3" x1="693.0" x2="661.0" y1="37.0" y2="69.0" /><line stroke="#999" stroke-width="3" x1="885.0" x2="693.0" y1="37.0" y2="37.0" /><line stroke="#333" stroke-width="10" x1="629.0" x2="661.0" y1="261.0" y2="261.0" /><line stroke="#333" stroke-width="10" x1="661.0" x2="629.0" y1="5.0" y2="37.0" /><line stroke="#333" stroke-width="10" x1="893.0" x2="661.0" y1="5.0" y2="5.0" /><line stroke="#333" stroke-width="10" x1="885.0" x2="893.0" y1="37.0" y2="37.0" /><line stroke="#333" stroke-width="10" x1="661.0" x2="661.0" y1="261.0" y2="253.0" /><line stroke="#333" stroke-width="10" x1="893.0" x2="893.0" y1="37.0" y2="5.0" /><line stroke="#333" stroke-width="10" x1="629.0" x2="629.0" y1="37.0" y2="261.0" /><line stroke="#333" stroke-width="10" x1="3101.0" x2="3101.0" y1="37.0" y2="53.0" /><line stroke="#999" stroke-width="3" x1="3301.0" x2="3285.0" y1="69.0" y2="53.0" /><line stroke="#333" stroke-width="10" x1="3301.0" x2="3317.0" y1="261.0" y2="261.0" /><line stroke="#999" stroke-width="3" x1="3301.0" x2="3301.0" y1="261.0" y2="69.0" /><line stroke="#999" stroke-width="3" x1="3285.0" x2="3101.0" y1="53.0" y2="53.0" /><line stroke="#333" stroke-width="10" x1="3317.0" x2="3093.0" y1="5.0" y2="5.0" /><line stroke="#333" stroke-width="10" x1="3317.0" x2="3349.0" y1="269.0" y2="269.0" /><line stroke="#333" stroke-width="10" x1="3093.0" x2="3101.0" y1="37.0" y2="37.0" /><line stroke="#333" stroke-width="10" x1="3317.0" x2="3317.0" y1="261.0" y2="269.0" /><line stroke="#333" stroke-width="10" x1="3349.0" x2="3349.0" y1="269.0" y2="37.0" /><line stroke="#333" stroke-width="10" x1="3349.0" x2="3317.0" y1="37.0" y2="5.0" /><line stroke="#333" stroke-width="10" x1="3093.0" x2="3093.0" y1="5.0" y2="37.0" /><line stroke="#999" stroke-width="3" x1="3317.0" x2="3317.0" y1="261.0" y2="69.0" /><line stroke="#999" stroke-width="3" x1="3317.0" x2="3285.0" y1="69.0" y2="37.0" /><line stroke="#999" stroke-width="3" x1="3285.0" x2="3101.0" y1="37.0" y2="37.0" /><line stroke="#333" stroke-width="10" x1="3101.0" x2="2661.0" y1="53.0" y2="53.0" /><line stroke="#333" stroke-width="10" x1="2277.0" x2="2341.0" y1="2741.0" y2="2741.0" /><line stroke="#333" stroke-width="10" x1="997.0" x2="933.0" y1="53.0" y2="53.0" /><line stroke="#999" stroke-width="3" x1="989.0" x2="941.0" y1="61.0" y2="61.0" /><line stroke="#00d" stroke-width="20" x1="989.0" x2="989.0" y1="61.0" y2="109.0" /><line stroke="#00d" stroke-width="20" x1="989.0" x2="941.0" y1="109.0" y2="109.0" /><line stroke="#00d" stroke-width="20" x1="941.0" x2="941.0" y1="109.0" y2="61.0" /><line stroke="#00d" stroke-width="20" x1="2285.0" x2="2333.0" y1="2685.0" y2="2685.0" /><line stroke="#00d" stroke-width="20" x1="2333.0" x2="2333.0" y1="2685.0" y2="2733.0" /><line stroke="#999" stroke-width="3" x1="2285.0" x2="2333.0" y1="2733.0" y2="2733.0" /><line stroke="#00d" stroke-width="20" x1="2285.0" x2="2285.0" y1="2733.0" y2="2685.0" /><line stroke="#333" stroke-width="10" x1="677.0" x2="677.0" y1="1077.0" y2="1141.0" /><line stroke="#999" stroke-width="3" x1="677.0" x2="741.0" y1="1077.0" y2="1077.0" /><line stroke="#999" stroke-width="3" x1="741.0" x2="741.0" y1="1077.0" y2="1141.0" /><line stroke="#999" stroke-width="3" x1="741.0" x2="677.0" y1="1141.0" y2="1141.0" /><line stroke="#00d" stroke-width="20" x1="733.0" x2="685.0" y1="1133.0" y2="1133.0" /><line stroke="#00d" stroke-width="20" x1="733.0" x2="733.0" y1="1085.0" y2="1133.0" /><line stroke="#00d" stroke-width="20" x1="685.0" x2="733.0" y1="1085.0" y2="1085.0" /><line stroke="#999" stroke-width="3" x1="685.0" x2="685.0" y1="1085.0" y2="1133.0" /><line stroke="#333" stroke-width="10" x1="3301.0" x2="3301.0" y1="1845.0" y2="1781.0" /><line stroke="#999" stroke-width="3" x1="3237.0" x2="3301.0" y1="1781.0" y2="1781.0" /><line stroke="#999" stroke-width="3" x1="3301.0" x2="3237.0" y1="1845.0" y2="1845.0" /><line stroke="#999" stroke-width="3" x1="3237.0" x2="3237.0" y1="1845.0" y2="1781.0" /><line stroke="#00d" stroke-width="20" x1="3293.0" x2="3245.0" y1="1837.0" y2="1837.0" /><line stroke="#999" stroke-width="3" x1="3293.0" x2="3293.0" y1="1837.0" y2="1789.0" /><line stroke="#00d" stroke-width="20" x1="3245.0" x2="3293.0" y1="1789.0" y2="1789.0" /><line stroke="#00d" stroke-width="20" x1="3245.0" x2="3245.0" y1="1837.0" y2="1789.0" /><line stroke="#999" stroke-width="3" x1="2149.0" x2="2149.0" y1="2293.0" y2="2229.0" /><line stroke="#999" stroke-width="3" x1="2149.0" x2="2213.0" y1="2229.0" y2="2229.0" /><line stroke="#999" stroke-width="3" x1="2213.0" x2="2213.0" y1="2229.0" y2="2293.0" /><line stroke="#999" stroke-width="3" x1="2213.0" x2="2149.0" y1="2293.0" y2="2293.0" /><line stroke="#999" stroke-width="3" x1="1349.0" x2="1349.0" y1="2197.0" y2="2133.0" /><line stroke="#999" stroke-width="3" x1="1349.0" x2="1413.0" y1="2133.0" y2="2133.0" /><line stroke="#999" stroke-width="3" x1="1413.0" x2="1413.0" y1="2133.0" y2="2197.0" /><line stroke="#999" stroke-width="3" x1="1413.0" x2="1349.0" y1="2197.0" y2="2197.0" /><line stroke="#999" stroke-width="3" x1="1133.0" x2="1181.0" y1="1013.0" y2="1013.0" /><line stroke="#999" stroke-width="3" x1="1181.0" x2="1189.0" y1="1013.0" y2="1013.0" /><line stroke="#999" stroke-width="3" x1="1181.0" x2="1181.0" y1="1021.0" y2="1013.0" /><line stroke="#999" stroke-width="3" x1="1181.0" x2="1133.0" y1="1021.0" y2="1021.0" /><line stroke="#999" stroke-width="3" x1="1133.0" x2="1133.0" y1="1013.0" y2="1021.0" /><line stroke="#999" stroke-width="3" x1="1181.0" x2="1181.0" y1="1069.0" y2="1021.0" /><line stroke="#999" stroke-width="3" x1="1133.0" x2="1181.0" y1="1069.0" y2="1069.0" /><line stroke="#999" stroke-width="3" x1="1133.0" x2="1133.0" y1="1021.0" y2="1069.0" /><line stroke="#333" stroke-width="10" x1="3245.0" x2="3245.0" y1="821.0" y2="829.0" /><line stroke="#333" stroke-width="10" x1="3293.0" x2="3293.0" y1="829.0" y2="821.0" /><line stroke="#999" stroke-width="3" x1="3245.0" x2="3293.0" y1="821.0" y2="821.0" /><line stroke="#333" stroke-width="10" x1="3245.0" x2="3245.0" y1="829.0" y2="877.0" /><line stroke="#333" stroke-width="10" x1="3245.0" x2="3293.0" y1="877.0" y2="877.0" /><line stroke="#333" stroke-width="10" x1="3293.0" x2="3293.0" y1="877.0" y2="829.0" /><line stroke="#999" stroke-width="3" x1="3293.0" x2="3245.0" y1="829.0" y2="829.0" /><line stroke="#333" stroke-width="10" x1="3293.0" x2="3301.0" y1="821.0" y2="821.0" /><line stroke="#333" stroke-width="10" x1="661.0" x2="677.0" y1="1589.0" y2="1605.0" /><line stroke="#333" stroke-width="10" x1="661.0" x2="645.0" y1="1525.0" y2="1525.0" /><line stroke="#333" stroke-width="10" x1="613.0" x2="629.0" y1="1589.0" y2="1589.0" /><line stroke="#333" stroke-width="10" x1="677.0" x2="661.0" y1="1509.0" y2="1525.0" /><line stroke="#333" stroke-width="10" x1="677.0" x2="677.0" y1="1605.0" y2="2165.0" /><line stroke="#999" stroke-width="3" x1="661.0" x2="661.0" y1="1525.0" y2="1589.0" /><line stroke="#999" stroke-width="3" x1="669.0" x2="677.0" y1="1541.0" y2="1541.0" /><line stroke="#999" stroke-width="3" x1="677.0" x2="677.0" y1="1541.0" y2="1573.0" /><line stroke="#999" stroke-width="3" x1="677.0" x2="669.0" y1="1573.0" y2="1573.0" /><line stroke="#999" stroke-width="3" x1="669.0" x2="669.0" y1="1573.0" y2="1541.0" /><line stroke="#999" stroke-width="3" x1="1949.0" x2="1901.0" y1="2045.0" y2="2045.0" /><line stroke="#999" stroke-width="3" x1="1901.0" x2="1949.0" y1="2037.0" y2="2037.0" /><line stroke="#999" stroke-width="3" x1="1949.0" x2="1949.0" y1="2045.0" y2="2037.0" /><line stroke="#999" stroke-width="3" x1="1901.0" x2="1901.0" y1="2037.0" y2="2045.0" /><line stroke="#999" stroke-width="3" x1="1949.0" x2="1957.0" y1="2037.0" y2="2037.0" /><line stroke="#999" stroke-width="3" x1="1949.0" x2="1949.0" y1="2101.0" y2="2093.0" /><line stroke="#999" stroke-width="3" x1="1901.0" x2="1901.0" y1="2093.0" y2="2101.0" /><line stroke="#999" stroke-width="3" x1="1949.0" x2="1901.0" y1="2101.0" y2="2101.0" /><line stroke="#999" stroke-width="3" x1="1901.0" x2="1949.0" y1="2093.0" y2="2093.0" /><line stroke="#999" stroke-width="3" x1="1901.0" x2="1893.0" y1="2101.0" y2="2101.0" /><line stroke="#999" stroke-width="3" x1="1957.0" x2="1949.0" y1="2045.0" y2="2045.0" /><line stroke="#999" stroke-width="3" x1="1949.0" x2="1957.0" y1="2093.0" y2="2093.0" /><line stroke="#999" stroke-width="3" x1="1957.0" x2="1957.0" y1="2045.0" y2="2093.0" /><line stroke="#999" stroke-width="3" x1="1949.0" x2="1949.0" y1="2093.0" y2="2045.0" /><line stroke="#999" stroke-width="3" x1="1957.0" x2="1957.0" y1="2093.0" y2="2101.0" /><line stroke="#999" stroke-width="3" x1="1893.0" x2="1893.0" y1="2045.0" y2="2037.0" /><line stroke="#999" stroke-width="3" x1="1901.0" x2="1901.0" y1="2045.0" y2="2093.0" /><line stroke="#999" stroke-width="3" x1="1893.0" x2="1893.0" y1="2093.0" y2="2045.0" /><line stroke="#999" stroke-width="3" x1="1901.0" x2="1893.0" y1="2045.0" y2="2045.0" /><line stroke="#999" stroke-width="3" x1="1893.0" x2="1901.0" y1="2093.0" y2="2093.0" /><line stroke="#0d0" stroke-width="20" x1="5.0" x2="5.0" y1="1525.0" y2="1589.0" /><line stroke="#333" stroke-width="10" x1="5.0" x2="85.0" y1="1589.0" y2="1637.0" /><line stroke="#333" stroke-width="10" x1="85.0" x2="5.0" y1="1477.0" y2="1525.0" /><line stroke="#333" stroke-width="10" x1="117.0" x2="85.0" y1="1525.0" y2="1477.0" /><line stroke="#333" stroke-width="10" x1="85.0" x2="117.0" y1="1637.0" y2="1589.0" /><line stroke="#333" stroke-width="10" x1="613.0" x2="565.0" y1="1525.0" y2="1413.0" /><line stroke="#333" stroke-width="10" x1="141.0" x2="117.0" y1="1525.0" y2="1525.0" /><line stroke="#333" stroke-width="10" x1="141.0" x2="157.0" y1="1589.0" y2="1589.0" /><line stroke="#666" stroke-width="20" x1="141.0" x2="141.0" y1="1589.0" y2="1525.0" /><line stroke="#333" stroke-width="10" x1="157.0" x2="181.0" y1="1589.0" y2="1589.0" /><line stroke="#333" stroke-width="10" x1="157.0" x2="141.0" y1="1525.0" y2="1525.0" /><line stroke="#666" stroke-width="20" x1="157.0" x2="157.0" y1="1525.0" y2="1589.0" /><line stroke="#333" stroke-width="10" x1="245.0" x2="181.0" y1="1333.0" y2="1461.0" /><line stroke="#333" stroke-width="10" x1="245.0" x2="405.0" y1="1781.0" y2="1781.0" /><line stroke="#333" stroke-width="10" x1="485.0" x2="565.0" y1="1701.0" y2="1701.0" /><line stroke="#333" stroke-width="10" x1="485.0" x2="453.0" y1="1413.0" y2="1413.0" /><line stroke="#999" stroke-width="3" x1="485.0" x2="485.0" y1="1413.0" y2="1701.0" /><line stroke="#333" stroke-width="10" x1="181.0" x2="245.0" y1="1653.0" y2="1781.0" /><line stroke="#333" stroke-width="10" x1="181.0" x2="181.0" y1="1461.0" y2="1525.0" /><line stroke="#333" stroke-width="10" x1="405.0" x2="453.0" y1="1781.0" y2="1701.0" /><line stroke="#333" stroke-width="10" x1="405.0" x2="245.0" y1="1333.0" y2="1333.0" /><line stroke="#333" stroke-width="10" x1="565.0" x2="613.0" y1="1701.0" y2="1589.0" /><line stroke="#333" stroke-width="10" x1="565.0" x2="485.0" y1="1413.0" y2="1413.0" /><line stroke="#333" stroke-width="10" x1="629.0" x2="613.0" y1="1525.0" y2="1525.0" /><line stroke="#333" stroke-width="10" x1="629.0" x2="645.0" y1="1589.0" y2="1589.0" /><line stroke="#666" stroke-width="20" x1="629.0" x2="629.0" y1="1589.0" y2="1525.0" /><line stroke="#999" stroke-width="3" x1="357.0" x2="389.0" y1="1701.0" y2="1701.0" /><line stroke="#999" stroke-width="3" x1="389.0" x2="389.0" y1="1701.0" y2="1733.0" /><line stroke="#999" stroke-width="3" x1="389.0" x2="357.0" y1="1733.0" y2="1733.0" /><line stroke="#999" stroke-width="3" x1="357.0" x2="357.0" y1="1733.0" y2="1701.0" /><line stroke="#999" stroke-width="3" x1="357.0" x2="357.0" y1="1669.0" y2="1637.0" /><line stroke="#999" stroke-width="3" x1="389.0" x2="357.0" y1="1669.0" y2="1669.0" /><line stroke="#999" stroke-width="3" x1="389.0" x2="389.0" y1="1637.0" y2="1669.0" /><line stroke="#999" stroke-width="3" x1="357.0" x2="389.0" y1="1637.0" y2="1637.0" /><line stroke="#999" stroke-width="3" x1="357.0" x2="389.0" y1="1573.0" y2="1573.0" /><line stroke="#999" stroke-width="3" x1="389.0" x2="389.0" y1="1573.0" y2="1605.0" /><line stroke="#999" stroke-width="3" x1="389.0" x2="357.0" y1="1605.0" y2="1605.0" /><line stroke="#999" stroke-width="3" x1="357.0" x2="357.0" y1="1605.0" y2="1573.0" /><line stroke="#999" stroke-width="3" x1="357.0" x2="357.0" y1="1541.0" y2="1509.0" /><line stroke="#999" stroke-width="3" x1="389.0" x2="357.0" y1="1541.0" y2="1541.0" /><line stroke="#999" stroke-width="3" x1="389.0" x2="389.0" y1="1509.0" y2="1541.0" /><line stroke="#999" stroke-width="3" x1="357.0" x2="389.0" y1="1509.0" y2="1509.0" /><line stroke="#999" stroke-width="3" x1="357.0" x2="389.0" y1="1445.0" y2="1445.0" /><line stroke="#999" stroke-width="3" x1="389.0" x2="389.0" y1="1445.0" y2="1477.0" /><line stroke="#999" stroke-width="3" x1="389.0" x2="357.0" y1="1477.0" y2="1477.0" /><line stroke="#999" stroke-width="3" x1="357.0" x2="357.0" y1="1477.0" y2="1445.0" /><line stroke="#999" stroke-width="3" x1="357.0" x2="357.0" y1="1413.0" y2="1381.0" /><line stroke="#999" stroke-width="3" x1="389.0" x2="357.0" y1="1413.0" y2="1413.0" /><line stroke="#999" stroke-width="3" x1="389.0" x2="389.0" y1="1381.0" y2="1413.0" /><line stroke="#999" stroke-width="3" x1="357.0" x2="389.0" y1="1381.0" y2="1381.0" /><line stroke="#999" stroke-width="3" x1="309.0" x2="341.0" y1="1349.0" y2="1349.0" /><line stroke="#999" stroke-width="3" x1="341.0" x2="341.0" y1="1349.0" y2="1381.0" /><line stroke="#999" stroke-width="3" x1="341.0" x2="309.0" y1="1381.0" y2="1381.0" /><line stroke="#999" stroke-width="3" x1="309.0" x2="309.0" y1="1381.0" y2="1349.0" /><line stroke="#999" stroke-width="3" x1="309.0" x2="309.0" y1="1445.0" y2="1413.0" /><line stroke="#999" stroke-width="3" x1="341.0" x2="309.0" y1="1445.0" y2="1445.0" /><line stroke="#999" stroke-width="3" x1="341.0" x2="341.0" y1="1413.0" y2="1445.0" /><line stroke="#999" stroke-width="3" x1="309.0" x2="341.0" y1="1413.0" y2="1413.0" /><line stroke="#999" stroke-width="3" x1="309.0" x2="341.0" y1="1477.0" y2="1477.0" /><line stroke="#999" stroke-width="3" x1="341.0" x2="341.0" y1="1477.0" y2="1509.0" /><line stroke="#999" stroke-width="3" x1="341.0" x2="309.0" y1="1509.0" y2="1509.0" /><line stroke="#999" stroke-width="3" x1="309.0" x2="309.0" y1="1509.0" y2="1477.0" /><line stroke="#999" stroke-width="3" x1="309.0" x2="309.0" y1="1573.0" y2="1541.0" /><line stroke="#999" stroke-width="3" x1="341.0" x2="309.0" y1="1573.0" y2="1573.0" /><line stroke="#999" stroke-width="3" x1="341.0" x2="341.0" y1="1541.0" y2="1573.0" /><line stroke="#999" stroke-width="3" x1="309.0" x2="341.0" y1="1541.0" y2="1541.0" /><line stroke="#999" stroke-width="3" x1="309.0" x2="341.0" y1="1605.0" y2="1605.0" /><line stroke="#999" stroke-width="3" x1="341.0" x2="341.0" y1="1605.0" y2="1637.0" /><line stroke="#999" stroke-width="3" x1="341.0" x2="309.0" y1="1637.0" y2="1637.0" /><line stroke="#999" stroke-width="3" x1="309.0" x2="309.0" y1="1637.0" y2="1605.0" /><line stroke="#999" stroke-width="3" x1="309.0" x2="309.0" y1="1701.0" y2="1669.0" /><line stroke="#999" stroke-width="3" x1="341.0" x2="309.0" y1="1701.0" y2="1701.0" /><line stroke="#999" stroke-width="3" x1="341.0" x2="341.0" y1="1669.0" y2="1701.0" /><line stroke="#999" stroke-width="3" x1="309.0" x2="341.0" y1="1669.0" y2="1669.0" /><line stroke="#999" stroke-width="3" x1="309.0" x2="341.0" y1="1733.0" y2="1733.0" /><line stroke="#999" stroke-width="3" x1="341.0" x2="341.0" y1="1733.0" y2="1765.0" /><line stroke="#999" stroke-width="3" x1="341.0" x2="309.0" y1="1765.0" y2="1765.0" /><line stroke="#999" stroke-width="3" x1="309.0" x2="309.0" y1="1765.0" y2="1733.0" /><line stroke="#999" stroke-width="3" x1="261.0" x2="261.0" y1="1733.0" y2="1701.0" /><line stroke="#999" stroke-width="3" x1="293.0" x2="261.0" y1="1733.0" y2="1733.0" /><line stroke="#999" stroke-width="3" x1="293.0" x2="293.0" y1="1701.0" y2="1733.0" /><line stroke="#999" stroke-width="3" x1="261.0" x2="293.0" y1="1701.0" y2="1701.0" /><line stroke="#999" stroke-width="3" x1="261.0" x2="293.0" y1="1637.0" y2="1637.0" /><line stroke="#999" stroke-width="3" x1="293.0" x2="293.0" y1="1637.0" y2="1669.0" /><line stroke="#999" stroke-width="3" x1="293.0" x2="261.0" y1="1669.0" y2="1669.0" /><line stroke="#999" stroke-width="3" x1="261.0" x2="261.0" y1="1669.0" y2="1637.0" /><line stroke="#999" stroke-width="3" x1="261.0" x2="261.0" y1="1605.0" y2="1573.0" /><line stroke="#999" stroke-width="3" x1="293.0" x2="261.0" y1="1605.0" y2="1605.0" /><line stroke="#999" stroke-width="3" x1="293.0" x2="293.0" y1="1573.0" y2="1605.0" /><line stroke="#999" stroke-width="3" x1="261.0" x2="293.0" y1="1573.0" y2="1573.0" /><line stroke="#999" stroke-width="3" x1="261.0" x2="261.0" y1="1477.0" y2="1445.0" /><line stroke="#999" stroke-width="3" x1="293.0" x2="261.0" y1="1477.0" y2="1477.0" /><line stroke="#999" stroke-width="3" x1="293.0" x2="293.0" y1="1445.0" y2="1477.0" /><line stroke="#999" stroke-width="3" x1="261.0" x2="293.0" y1="1445.0" y2="1445.0" /><line stroke="#999" stroke-width="3" x1="261.0" x2="293.0" y1="1381.0" y2="1381.0" /><line stroke="#999" stroke-width="3" x1="293.0" x2="293.0" y1="1381.0" y2="1413.0" /><line stroke="#999" stroke-width="3" x1="293.0" x2="261.0" y1="1413.0" y2="1413.0" /><line stroke="#999" stroke-width="3" x1="261.0" x2="261.0" y1="1413.0" y2="1381.0" /><line stroke="#333" stroke-width="10" x1="645.0" x2="661.0" y1="1589.0" y2="1589.0" /><line stroke="#333" stroke-width="10" x1="645.0" x2="629.0" y1="1525.0" y2="1525.0" /><line stroke="#666" stroke-width="20" x1="645.0" x2="645.0" y1="1525.0" y2="1589.0" /><line stroke="#999" stroke-width="3" x1="213.0" x2="245.0" y1="1669.0" y2="1669.0" /><line stroke="#999" stroke-width="3" x1="245.0" x2="245.0" y1="1669.0" y2="1701.0" /><line stroke="#999" stroke-width="3" x1="245.0" x2="213.0" y1="1701.0" y2="1701.0" /><line stroke="#999" stroke-width="3" x1="213.0" x2="213.0" y1="1701.0" y2="1669.0" /><line stroke="#999" stroke-width="3" x1="213.0" x2="213.0" y1="1637.0" y2="1605.0" /><line stroke="#999" stroke-width="3" x1="245.0" x2="213.0" y1="1637.0" y2="1637.0" /><line stroke="#999" stroke-width="3" x1="245.0" x2="245.0" y1="1605.0" y2="1637.0" /><line stroke="#999" stroke-width="3" x1="213.0" x2="245.0" y1="1605.0" y2="1605.0" /><line stroke="#999" stroke-width="3" x1="213.0" x2="245.0" y1="1541.0" y2="1541.0" /><line stroke="#999" stroke-width="3" x1="245.0" x2="245.0" y1="1541.0" y2="1573.0" /><line stroke="#999" stroke-width="3" x1="245.0" x2="213.0" y1="1573.0" y2="1573.0" /><line stroke="#999" stroke-width="3" x1="213.0" x2="213.0" y1="1573.0" y2="1541.0" /><line stroke="#999" stroke-width="3" x1="213.0" x2="213.0" y1="1509.0" y2="1477.0" /><line stroke="#999" stroke-width="3" x1="245.0" x2="213.0" y1="1509.0" y2="1509.0" /><line stroke="#999" stroke-width="3" x1="245.0" x2="245.0" y1="1477.0" y2="1509.0" /><line stroke="#999" stroke-width="3" x1="213.0" x2="245.0" y1="1477.0" y2="1477.0" /><line stroke="#999" stroke-width="3" x1="213.0" x2="245.0" y1="1413.0" y2="1413.0" /><line stroke="#999" stroke-width="3" x1="245.0" x2="245.0" y1="1413.0" y2="1445.0" /><line stroke="#999" stroke-width="3" x1="245.0" x2="213.0" y1="1445.0" y2="1445.0" /><line stroke="#999" stroke-width="3" x1="213.0" x2="213.0" y1="1445.0" y2="1413.0" /><line stroke="#333" stroke-width="10" x1="181.0" x2="181.0" y1="1589.0" y2="1653.0" /><line stroke="#333" stroke-width="10" x1="181.0" x2="157.0" y1="1525.0" y2="1525.0" /><line stroke="#999" stroke-width="3" x1="181.0" x2="181.0" y1="1525.0" y2="1589.0" /><line stroke="#333" stroke-width="10" x1="117.0" x2="141.0" y1="1589.0" y2="1589.0" /><line stroke="#999" stroke-width="3" x1="117.0" x2="117.0" y1="1589.0" y2="1525.0" /><line stroke="#333" stroke-width="10" x1="453.0" x2="405.0" y1="1413.0" y2="1333.0" /><line stroke="#333" stroke-width="10" x1="453.0" x2="485.0" y1="1701.0" y2="1701.0" /><line stroke="#999" stroke-width="3" x1="693.0" x2="709.0" y1="1509.0" y2="1541.0" /><line stroke="#999" stroke-width="3" x1="709.0" x2="709.0" y1="1541.0" y2="1573.0" /><line stroke="#999" stroke-width="3" x1="709.0" x2="693.0" y1="1573.0" y2="1605.0" /><rect fill="#900" height="48" stroke="#900" stroke-width="5" transform="rotate(0,946.0,1612.0)" width="32" x="930.0" y="1588.0" /><rect fill="#900" height="48" stroke="#900" stroke-width="5" transform="rotate(0,1954.0,1108.0)" width="32" x="1938.0" y="1084.0" /><rect fill="#900" height="48" stroke="#900" stroke-width="5" transform="rotate(0,1927.0,1819.0)" width="32" x="1911.0" y="1795.0" /><ellipse cx="3187.0" cy="1369.0" fill="#009" rx="12" ry="24" stroke="#009" stroke-width="5" /><ellipse cx="3169.0" cy="1270.0" fill="#009" rx="12" ry="24" stroke="#009" stroke-width="5" /><ellipse cx="3169.0" cy="1180.0" fill="#009" rx="12" ry="24" stroke="#009" stroke-width="5" /><ellipse cx="3196.0" cy="1522.0" fill="#009" rx="12" ry="24" stroke="#009" stroke-width="5" /><rect fill="#090" height="24" stroke="#090" stroke-width="5" transform="rotate(0,3178.0,1666.0)" width="24" x="3166.0" y="1654.0" /><rect fill="#090" height="24" stroke="#090" stroke-width="5" transform="rotate(0,1099.0,1432.0)" width="24" x="1087.0" y="1420.0" /><rect fill="#090" height="24" stroke="#090" stroke-width="5" transform="rotate(0,1081.0,1783.0)" width="24" x="1069.0" y="1771.0" /><rect fill="#090" height="24" stroke="#090" stroke-width="5" transform="rotate(0,1927.0,1324.0)" width="24" x="1915.0" y="1312.0" /><rect fill="#090" height="24" stroke="#090" stroke-width="5" transform="rotate(0,1918.0,1657.0)" width="24" x="1906.0" y="1645.0" /><rect fill="#090" height="24" stroke="#090" stroke-width="5" transform="rotate(0,1918.0,1504.0)" width="24" x="1906.0" y="1492.0" /><rect fill="#090" height="24" stroke="#090" stroke-width="5" transform="rotate(0,1693.0,2539.0)" width="24" x="1681.0" y="2527.0" /><rect fill="#090" height="24" stroke="#090" stroke-width="5" transform="rotate(0,2089.0,2548.0)" width="24" x="2077.0" y="2536.0" /><rect fill="#090" height="24" stroke="#090" stroke-width="5" transform="rotate(0,2251.0,316.0)" width="24" x="2239.0" y="304.0" /><rect fill="#090" height="24" stroke="#090" stroke-width="5" transform="rotate(0,1594.0,406.0)" width="24" x="1582.0" y="394.0" /><circle cx="3106.0" cy="2674.0" fill="#900" r="16" stroke="#900" stroke-width="5" /><circle cx="3097.0" cy="2593.0" fill="#090" r="16" stroke="#090" stroke-width="5" /><circle cx="2944.0" cy="2602.0" fill="#090" r="16" stroke="#090" stroke-width="5" /><circle cx="2845.0" cy="2602.0" fill="#090" r="16" stroke="#090" stroke-width="5" /><circle cx="2710.0" cy="2602.0" fill="#090" r="16" stroke="#090" stroke-width="5" /><circle cx="2566.0" cy="2602.0" fill="#090" r="16" stroke="#090" stroke-width="5" /><circle cx="2440.0" cy="2611.0" fill="#090" r="16" stroke="#090" stroke-width="5" /><circle cx="2404.0" cy="2692.0" fill="#090" r="16" stroke="#090" stroke-width="5" /><circle cx="2539.0" cy="2701.0" fill="#090" r="16" stroke="#090" stroke-width="5" /><circle cx="2701.0" cy="2701.0" fill="#090" r="16" stroke="#090" stroke-width="5" /><circle cx="2818.0" cy="2701.0" fill="#090" r="16" stroke="#090" stroke-width="5" /><circle cx="2971.0" cy="2701.0" fill="#090" r="16" stroke="#090" stroke-width="5" /><circle cx="2962.0" cy="2512.0" fill="#090" r="16" stroke="#090" stroke-width="5" /><circle cx="2800.0" cy="2503.0" fill="#090" r="16" stroke="#090" stroke-width="5" /><circle cx="2656.0" cy="2512.0" fill="#090" r="16" stroke="#090" stroke-width="5" /><circle cx="2512.0" cy="2530.0" fill="#090" r="16" stroke="#090" stroke-width="5" /><circle cx="2359.0" cy="2539.0" fill="#090" r="16" stroke="#090" stroke-width="5" /><circle cx="2251.0" cy="2620.0" fill="#090" r="16" stroke="#090" stroke-width="5" /><circle cx="2962.0" cy="1369.0" fill="#900" r="16" stroke="#900" stroke-width="5" /><circle cx="2971.0" cy="1198.0" fill="#090" r="16" stroke="#090" stroke-width="5" /><circle cx="2917.0" cy="1549.0" fill="#090" r="16" stroke="#090" stroke-width="5" /><circle cx="2827.0" cy="1405.0" fill="#090" r="16" stroke="#090" stroke-width="5" /><circle cx="3115.0" cy="154.0" fill="#900" r="16" stroke="#900" stroke-width="5" /><circle cx="2926.0" cy="172.0" fill="#090" r="16" stroke="#090" stroke-width="5" /><circle cx="2791.0" cy="154.0" fill="#090" r="16" stroke="#090" stroke-width="5" /><circle cx="2836.0" cy="271.0" fill="#090" r="16" stroke="#090" stroke-width="5" /><circle cx="2998.0" cy="217.0" fill="#090" r="16" stroke="#090" stroke-width="5" /><circle cx="3169.0" cy="226.0" fill="#090" r="16" stroke="#090" stroke-width="5" /><circle cx="3268.0" cy="172.0" fill="#090" r="16" stroke="#090" stroke-width="5" /><circle cx="532.0" cy="1630.0" fill="#900" r="16" stroke="#900" stroke-width="5" /><circle cx="541.0" cy="1558.0" fill="#090" r="16" stroke="#090" stroke-width="5" /><circle cx="523.0" cy="1486.0" fill="#090" r="16" stroke="#090" stroke-width="5" /><circle cx="442.0" cy="1486.0" fill="#090" r="16" stroke="#090" stroke-width="5" /><circle cx="433.0" cy="1558.0" fill="#090" r="16" stroke="#090" stroke-width="5" /><circle cx="433.0" cy="1630.0" fill="#090" r="16" stroke="#090" stroke-width="5" /><circle cx="829.0" cy="172.0" fill="#900" r="16" stroke="#900" stroke-width="5" /><circle cx="757.0" cy="352.0" fill="#090" r="16" stroke="#090" stroke-width="5" /><circle cx="964.0" cy="316.0" fill="#090" r="16" stroke="#090" stroke-width="5" /><circle cx="1063.0" cy="226.0" fill="#090" r="16" stroke="#090" stroke-width="5" /><circle cx="1117.0" cy="136.0" fill="#090" r="16" stroke="#090" stroke-width="5" /><circle cx="982.0" cy="181.0" fill="#090" r="16" stroke="#090" stroke-width="5" /><circle cx="1621.0" cy="1666.0" fill="#009" r="16" stroke="#009" stroke-width="5" /><circle cx="1594.0" cy="1567.0" fill="#009" r="16" stroke="#009" stroke-width="5" /><circle cx="1648.0" cy="1441.0" fill="#009" r="16" stroke="#009" stroke-width="5" /><circle cx="748.0" cy="2683.0" fill="#009" r="16" stroke="#009" stroke-width="5" /><circle cx="910.0" cy="2683.0" fill="#009" r="16" stroke="#009" stroke-width="5" /><circle cx="973.0" cy="2575.0" fill="#009" r="16" stroke="#009" stroke-width="5" /><circle cx="946.0" cy="2485.0" fill="#009" r="16" stroke="#009" stroke-width="5" /><circle cx="766.0" cy="2485.0" fill="#009" r="16" stroke="#009" stroke-width="5" /><circle cx="64.0" cy="1558.0" fill="#009" r="16" stroke="#009" stroke-width="5" /><rect fill="#090" height="24" stroke="#090" stroke-width="5" transform="rotate(0,811.0,1720.0)" width="24" x="799.0" y="1708.0" /><rect fill="#090" height="24" stroke="#090" stroke-width="5" transform="rotate(0,811.0,1477.0)" width="24" x="799.0" y="1465.0" /></svg>