<?xml version="1.0" encoding="utf-8" ?>
<svg baseProfile="tiny" height="763" version="1.2" viewBox="0 0 3146 2346" width="1024" xmlns="http://www.w3.org/2000/svg" xmlns:ev="http://www.w3.org/2001/xml-events" xmlns:xlink="http://www.w3.org/1999/xlink"><defs /><line stroke="#333" stroke-width="10" x1="5.0" x2="69.0" y1="1989.0" y2="1989.0" /><line stroke="#333" stroke-width="10" x1="261.0" x2="253.0" y1="1925.0" y2="1925.0" /><line stroke="#333" stroke-width="10" x1="5.0" x2="5.0" y1="1925.0" y2="1989.0" /><line stroke="#666" stroke-width="20" x1="133.0" x2="69.0" y1="1925.0" y2="1925.0" /><line stroke="#333" stroke-width="10" x1="133.0" x2="133.0" y1="1925.0" y2="1909.0" /><line stroke="#333" stroke-width="10" x1="133.0" x2="69.0" y1="1669.0" y2="1669.0" /><line stroke="#333" stroke-width="10" x1="69.0" x2="69.0" y1="1669.0" y2="1909.0" /><line stroke="#333" stroke-width="10" x1="69.0" x2="5.0" y1="1925.0" y2="1925.0" /><line stroke="#333" stroke-width="10" x1="389.0" x2="261.0" y1="1829.0" y2="1829.0" /><line stroke="#333" stroke-width="10" x1="389.0" x2="389.0" y1="2085.0" y2="1997.0" /><line stroke="#333" stroke-width="10" x1="261.0" x2="389.0" y1="2085.0" y2="2085.0" /><line stroke="#333" stroke-width="10" x1="261.0" x2="261.0" y1="1829.0" y2="1917.0" /><line stroke="#333" stroke-width="10" x1="261.0" x2="261.0" y1="1989.0" y2="1997.0" /><line stroke="#999" stroke-width="3" x1="261.0" x2="261.0" y1="1925.0" y2="1989.0" /><line stroke="#333" stroke-width="10" x1="389.0" x2="581.0" y1="1989.0" y2="1989.0" /><line stroke="#333" stroke-width="10" x1="581.0" x2="389.0" y1="1925.0" y2="1925.0" /><line stroke="#666" stroke-width="20" x1="389.0" x2="389.0" y1="1925.0" y2="1989.0" /><line stroke="#333" stroke-width="10" x1="389.0" x2="389.0" y1="1925.0" y2="1917.0" /><line stroke="#333" stroke-width="10" x1="645.0" x2="965.0" y1="1989.0" y2="1989.0" /><line stroke="#999" stroke-width="3" x1="965.0" x2="965.0" y1="1925.0" y2="1989.0" /><line stroke="#333" stroke-width="10" x1="965.0" x2="837.0" y1="1925.0" y2="1925.0" /><line stroke="#333" stroke-width="10" x1="1029.0" x2="1029.0" y1="2149.0" y2="1989.0" /><line stroke="#333" stroke-width="10" x1="581.0" x2="581.0" y1="1541.0" y2="1925.0" /><line stroke="#999" stroke-width="3" x1="645.0" x2="645.0" y1="1989.0" y2="1925.0" /><line stroke="#333" stroke-width="10" x1="581.0" x2="581.0" y1="1989.0" y2="2149.0" /><line stroke="#999" stroke-width="3" x1="581.0" x2="581.0" y1="1925.0" y2="1989.0" /><line stroke="#333" stroke-width="10" x1="645.0" x2="645.0" y1="1925.0" y2="1541.0" /><line stroke="#333" stroke-width="10" x1="645.0" x2="645.0" y1="2117.0" y2="1989.0" /><line stroke="#333" stroke-width="10" x1="581.0" x2="613.0" y1="2149.0" y2="2245.0" /><line stroke="#333" stroke-width="10" x1="613.0" x2="677.0" y1="2245.0" y2="2309.0" /><line stroke="#333" stroke-width="10" x1="677.0" x2="645.0" y1="2181.0" y2="2117.0" /><line stroke="#333" stroke-width="10" x1="773.0" x2="709.0" y1="2245.0" y2="2245.0" /><line stroke="#333" stroke-width="10" x1="901.0" x2="837.0" y1="2245.0" y2="2245.0" /><line stroke="#333" stroke-width="10" x1="677.0" x2="741.0" y1="2309.0" y2="2341.0" /><line stroke="#333" stroke-width="10" x1="741.0" x2="869.0" y1="2341.0" y2="2341.0" /><line stroke="#333" stroke-width="10" x1="965.0" x2="965.0" y1="1541.0" y2="1925.0" /><line stroke="#333" stroke-width="10" x1="933.0" x2="901.0" y1="2181.0" y2="2245.0" /><line stroke="#333" stroke-width="10" x1="965.0" x2="933.0" y1="2117.0" y2="2181.0" /><line stroke="#333" stroke-width="10" x1="869.0" x2="933.0" y1="2341.0" y2="2309.0" /><line stroke="#333" stroke-width="10" x1="933.0" x2="997.0" y1="2309.0" y2="2245.0" /><line stroke="#333" stroke-width="10" x1="997.0" x2="1029.0" y1="2245.0" y2="2149.0" /><line stroke="#999" stroke-width="3" x1="261.0" x2="389.0" y1="1989.0" y2="1989.0" /><line stroke="#999" stroke-width="3" x1="389.0" x2="261.0" y1="1925.0" y2="1925.0" /><line stroke="#333" stroke-width="10" x1="261.0" x2="261.0" y1="1917.0" y2="1925.0" /><line stroke="#333" stroke-width="10" x1="389.0" x2="389.0" y1="1917.0" y2="1829.0" /><line stroke="#999" stroke-width="3" x1="261.0" x2="389.0" y1="1917.0" y2="1917.0" /><line stroke="#333" stroke-width="10" x1="261.0" x2="261.0" y1="1997.0" y2="2085.0" /><line stroke="#333" stroke-width="10" x1="389.0" x2="389.0" y1="1997.0" y2="1989.0" /><line stroke="#999" stroke-width="3" x1="389.0" x2="261.0" y1="1997.0" y2="1997.0" /><line stroke="#333" stroke-width="10" x1="69.0" x2="69.0" y1="1909.0" y2="1925.0" /><line stroke="#333" stroke-width="10" x1="133.0" x2="133.0" y1="1909.0" y2="1669.0" /><line stroke="#666" stroke-width="20" x1="69.0" x2="133.0" y1="1909.0" y2="1909.0" /><line stroke="#333" stroke-width="10" x1="253.0" x2="261.0" y1="1989.0" y2="1989.0" /><line stroke="#333" stroke-width="10" x1="253.0" x2="245.0" y1="1925.0" y2="1925.0" /><line stroke="#666" stroke-width="20" x1="253.0" x2="253.0" y1="1925.0" y2="1989.0" /><line stroke="#333" stroke-width="10" x1="245.0" x2="253.0" y1="1989.0" y2="1989.0" /><line stroke="#333" stroke-width="10" x1="245.0" x2="133.0" y1="1925.0" y2="1925.0" /><line stroke="#666" stroke-width="20" x1="245.0" x2="245.0" y1="1989.0" y2="1925.0" /><line stroke="#333" stroke-width="10" x1="1029.0" x2="1157.0" y1="1989.0" y2="1989.0" /><line stroke="#333" stroke-width="10" x1="1285.0" x2="1157.0" y1="1925.0" y2="1925.0" /><line stroke="#999" stroke-width="3" x1="1029.0" x2="1029.0" y1="1989.0" y2="1925.0" /><line stroke="#333" stroke-width="10" x1="1029.0" x2="1029.0" y1="1925.0" y2="1541.0" /><line stroke="#333" stroke-width="10" x1="709.0" x2="517.0" y1="1477.0" y2="1477.0" /><line stroke="#333" stroke-width="10" x1="709.0" x2="709.0" y1="1541.0" y2="1477.0" /><line stroke="#333" stroke-width="10" x1="645.0" x2="709.0" y1="1541.0" y2="1541.0" /><line stroke="#999" stroke-width="3" x1="645.0" x2="581.0" y1="1541.0" y2="1541.0" /><line stroke="#333" stroke-width="10" x1="901.0" x2="965.0" y1="1541.0" y2="1541.0" /><line stroke="#333" stroke-width="10" x1="1157.0" x2="901.0" y1="1477.0" y2="1477.0" /><line stroke="#333" stroke-width="10" x1="901.0" x2="901.0" y1="1477.0" y2="1541.0" /><line stroke="#333" stroke-width="10" x1="1029.0" x2="1157.0" y1="1541.0" y2="1541.0" /><line stroke="#999" stroke-width="3" x1="1029.0" x2="965.0" y1="1541.0" y2="1541.0" /><line stroke="#333" stroke-width="10" x1="709.0" x2="677.0" y1="2245.0" y2="2181.0" /><line stroke="#333" stroke-width="10" x1="1157.0" x2="1221.0" y1="1541.0" y2="1541.0" /><line stroke="#333" stroke-width="10" x1="1221.0" x2="1221.0" y1="1541.0" y2="1285.0" /><line stroke="#333" stroke-width="10" x1="1157.0" x2="1157.0" y1="1285.0" y2="1477.0" /><line stroke="#999" stroke-width="3" x1="1157.0" x2="1157.0" y1="1541.0" y2="1477.0" /><line stroke="#999" stroke-width="3" x1="1221.0" x2="1157.0" y1="1285.0" y2="1285.0" /><line stroke="#333" stroke-width="10" x1="1477.0" x2="1477.0" y1="1285.0" y2="1221.0" /><line stroke="#333" stroke-width="10" x1="1477.0" x2="1157.0" y1="1221.0" y2="1221.0" /><line stroke="#333" stroke-width="10" x1="1157.0" x2="1157.0" y1="1221.0" y2="1285.0" /><line stroke="#333" stroke-width="10" x1="1221.0" x2="1413.0" y1="1285.0" y2="1285.0" /><line stroke="#999" stroke-width="3" x1="1413.0" x2="1477.0" y1="1285.0" y2="1285.0" /><line stroke="#333" stroke-width="10" x1="1413.0" x2="1413.0" y1="1285.0" y2="1605.0" /><line stroke="#333" stroke-width="10" x1="1477.0" x2="1477.0" y1="1605.0" y2="1285.0" /><line stroke="#999" stroke-width="3" x1="1413.0" x2="1477.0" y1="1605.0" y2="1605.0" /><line stroke="#333" stroke-width="10" x1="1221.0" x2="1221.0" y1="1605.0" y2="1669.0" /><line stroke="#333" stroke-width="10" x1="1477.0" x2="1477.0" y1="1669.0" y2="1605.0" /><line stroke="#333" stroke-width="10" x1="1413.0" x2="1221.0" y1="1605.0" y2="1605.0" /><line stroke="#999" stroke-width="3" x1="1221.0" x2="1285.0" y1="1669.0" y2="1669.0" /><line stroke="#333" stroke-width="10" x1="1285.0" x2="1285.0" y1="1797.0" y2="1669.0" /><line stroke="#333" stroke-width="10" x1="1221.0" x2="1221.0" y1="1669.0" y2="1797.0" /><line stroke="#333" stroke-width="10" x1="1285.0" x2="1477.0" y1="1669.0" y2="1669.0" /><line stroke="#333" stroke-width="10" x1="1221.0" x2="1349.0" y1="1861.0" y2="1861.0" /><line stroke="#333" stroke-width="10" x1="1477.0" x2="1349.0" y1="1797.0" y2="1797.0" /><line stroke="#333" stroke-width="10" x1="1221.0" x2="1221.0" y1="1797.0" y2="1861.0" /><line stroke="#999" stroke-width="3" x1="1221.0" x2="1285.0" y1="1797.0" y2="1797.0" /><line stroke="#333" stroke-width="10" x1="1541.0" x2="1477.0" y1="1797.0" y2="1797.0" /><line stroke="#333" stroke-width="10" x1="1541.0" x2="1541.0" y1="1989.0" y2="1925.0" /><line stroke="#333" stroke-width="10" x1="1477.0" x2="1541.0" y1="1989.0" y2="1989.0" /><line stroke="#999" stroke-width="3" x1="1477.0" x2="1477.0" y1="1861.0" y2="1797.0" /><line stroke="#333" stroke-width="10" x1="1477.0" x2="1477.0" y1="1861.0" y2="1925.0" /><line stroke="#333" stroke-width="10" x1="1285.0" x2="1477.0" y1="1989.0" y2="1989.0" /><line stroke="#999" stroke-width="3" x1="1285.0" x2="1285.0" y1="1925.0" y2="1989.0" /><line stroke="#333" stroke-width="10" x1="1477.0" x2="1285.0" y1="1925.0" y2="1925.0" /><line stroke="#999" stroke-width="3" x1="1477.0" x2="1477.0" y1="1925.0" y2="1989.0" /><line stroke="#333" stroke-width="10" x1="1157.0" x2="1285.0" y1="1989.0" y2="1989.0" /><line stroke="#333" stroke-width="10" x1="1157.0" x2="1029.0" y1="1925.0" y2="1925.0" /><line stroke="#999" stroke-width="3" x1="1157.0" x2="1157.0" y1="1925.0" y2="1989.0" /><line stroke="#333" stroke-width="10" x1="1349.0" x2="1477.0" y1="1861.0" y2="1861.0" /><line stroke="#333" stroke-width="10" x1="1349.0" x2="1285.0" y1="1797.0" y2="1797.0" /><line stroke="#999" stroke-width="3" x1="1349.0" x2="1349.0" y1="1861.0" y2="1797.0" /><line stroke="#333" stroke-width="10" x1="69.0" x2="245.0" y1="1989.0" y2="1989.0" /><line stroke="#999" stroke-width="3" x1="69.0" x2="133.0" y1="1989.0" y2="1925.0" /><line stroke="#333" stroke-width="10" x1="453.0" x2="517.0" y1="1541.0" y2="1541.0" /><line stroke="#333" stroke-width="10" x1="453.0" x2="453.0" y1="1477.0" y2="1541.0" /><line stroke="#333" stroke-width="10" x1="517.0" x2="453.0" y1="1477.0" y2="1477.0" /><line stroke="#00d" stroke-width="20" x1="517.0" x2="517.0" y1="1477.0" y2="1541.0" /><line stroke="#333" stroke-width="10" x1="517.0" x2="581.0" y1="1541.0" y2="1541.0" /><line stroke="#333" stroke-width="10" x1="965.0" x2="965.0" y1="1989.0" y2="2117.0" /><line stroke="#999" stroke-width="3" x1="773.0" x2="837.0" y1="1925.0" y2="1925.0" /><line stroke="#333" stroke-width="10" x1="837.0" x2="837.0" y1="1925.0" y2="1909.0" /><line stroke="#333" stroke-width="10" x1="773.0" x2="773.0" y1="1413.0" y2="1429.0" /><line stroke="#333" stroke-width="10" x1="773.0" x2="645.0" y1="1925.0" y2="1925.0" /><line stroke="#333" stroke-width="10" x1="709.0" x2="773.0" y1="1861.0" y2="1893.0" /><line stroke="#333" stroke-width="10" x1="901.0" x2="901.0" y1="1861.0" y2="1669.0" /><line stroke="#333" stroke-width="10" x1="773.0" x2="709.0" y1="1541.0" y2="1669.0" /><line stroke="#333" stroke-width="10" x1="837.0" x2="837.0" y1="1541.0" y2="1429.0" /><line stroke="#333" stroke-width="10" x1="709.0" x2="709.0" y1="1669.0" y2="1861.0" /><line stroke="#333" stroke-width="10" x1="901.0" x2="837.0" y1="1669.0" y2="1541.0" /><line stroke="#333" stroke-width="10" x1="773.0" x2="773.0" y1="1893.0" y2="1909.0" /><line stroke="#333" stroke-width="10" x1="837.0" x2="901.0" y1="1893.0" y2="1861.0" /><line stroke="#333" stroke-width="10" x1="773.0" x2="773.0" y1="1909.0" y2="1925.0" /><line stroke="#333" stroke-width="10" x1="837.0" x2="837.0" y1="1909.0" y2="1893.0" /><line stroke="#d00" stroke-width="20" x1="837.0" x2="773.0" y1="1909.0" y2="1909.0" /><line stroke="#d00" stroke-width="20" x1="773.0" x2="837.0" y1="1893.0" y2="1893.0" /><line stroke="#333" stroke-width="10" x1="901.0" x2="405.0" y1="1349.0" y2="1349.0" /><line stroke="#333" stroke-width="10" x1="901.0" x2="901.0" y1="1413.0" y2="1349.0" /><line stroke="#333" stroke-width="10" x1="837.0" x2="901.0" y1="1413.0" y2="1413.0" /><line stroke="#666" stroke-width="20" x1="773.0" x2="837.0" y1="1413.0" y2="1413.0" /><line stroke="#666" stroke-width="20" x1="837.0" x2="773.0" y1="2245.0" y2="2245.0" /><line stroke="#333" stroke-width="10" x1="837.0" x2="837.0" y1="2245.0" y2="2213.0" /><line stroke="#333" stroke-width="10" x1="901.0" x2="709.0" y1="2053.0" y2="2053.0" /><line stroke="#333" stroke-width="10" x1="709.0" x2="709.0" y1="2053.0" y2="2181.0" /><line stroke="#333" stroke-width="10" x1="773.0" x2="773.0" y1="2213.0" y2="2245.0" /><line stroke="#333" stroke-width="10" x1="837.0" x2="901.0" y1="2213.0" y2="2181.0" /><line stroke="#333" stroke-width="10" x1="709.0" x2="773.0" y1="2181.0" y2="2213.0" /><line stroke="#333" stroke-width="10" x1="901.0" x2="901.0" y1="2181.0" y2="2053.0" /><line stroke="#666" stroke-width="20" x1="773.0" x2="837.0" y1="2213.0" y2="2213.0" /><line stroke="#333" stroke-width="10" x1="1541.0" x2="1557.0" y1="1925.0" y2="1925.0" /><line stroke="#666" stroke-width="20" x1="1541.0" x2="1541.0" y1="1925.0" y2="1861.0" /><line stroke="#333" stroke-width="10" x1="1541.0" x2="1541.0" y1="1861.0" y2="1797.0" /><line stroke="#333" stroke-width="10" x1="1797.0" x2="1797.0" y1="1989.0" y2="1797.0" /><line stroke="#333" stroke-width="10" x1="1605.0" x2="1797.0" y1="1989.0" y2="1989.0" /><line stroke="#333" stroke-width="10" x1="1605.0" x2="1605.0" y1="1925.0" y2="1989.0" /><line stroke="#333" stroke-width="10" x1="1797.0" x2="1605.0" y1="1797.0" y2="1797.0" /><line stroke="#333" stroke-width="10" x1="1605.0" x2="1605.0" y1="1797.0" y2="1861.0" /><line stroke="#333" stroke-width="10" x1="1605.0" x2="1557.0" y1="1861.0" y2="1861.0" /><line stroke="#333" stroke-width="10" x1="389.0" x2="405.0" y1="1413.0" y2="1413.0" /><line stroke="#333" stroke-width="10" x1="197.0" x2="389.0" y1="1541.0" y2="1541.0" /><line stroke="#333" stroke-width="10" x1="197.0" x2="197.0" y1="1221.0" y2="1349.0" /><line stroke="#333" stroke-width="10" x1="389.0" x2="325.0" y1="1221.0" y2="1221.0" /><line stroke="#333" stroke-width="10" x1="389.0" x2="389.0" y1="1541.0" y2="1413.0" /><line stroke="#666" stroke-width="20" x1="389.0" x2="389.0" y1="1413.0" y2="1349.0" /><line stroke="#333" stroke-width="10" x1="389.0" x2="389.0" y1="1349.0" y2="1221.0" /><line stroke="#333" stroke-width="10" x1="5.0" x2="181.0" y1="1413.0" y2="1413.0" /><line stroke="#333" stroke-width="10" x1="5.0" x2="5.0" y1="1349.0" y2="1413.0" /><line stroke="#333" stroke-width="10" x1="197.0" x2="181.0" y1="1349.0" y2="1349.0" /><line stroke="#666" stroke-width="20" x1="197.0" x2="197.0" y1="1349.0" y2="1413.0" /><line stroke="#333" stroke-width="10" x1="197.0" x2="197.0" y1="1413.0" y2="1541.0" /><line stroke="#666" stroke-width="20" x1="325.0" x2="261.0" y1="1221.0" y2="1221.0" /><line stroke="#333" stroke-width="10" x1="325.0" x2="325.0" y1="1221.0" y2="1205.0" /><line stroke="#333" stroke-width="10" x1="261.0" x2="261.0" y1="1029.0" y2="1045.0" /><line stroke="#333" stroke-width="10" x1="261.0" x2="197.0" y1="1221.0" y2="1221.0" /><line stroke="#333" stroke-width="10" x1="69.0" x2="261.0" y1="1029.0" y2="1029.0" /><line stroke="#333" stroke-width="10" x1="837.0" x2="837.0" y1="1029.0" y2="901.0" /><line stroke="#333" stroke-width="10" x1="837.0" x2="69.0" y1="645.0" y2="645.0" /><line stroke="#333" stroke-width="10" x1="69.0" x2="69.0" y1="645.0" y2="1029.0" /><line stroke="#333" stroke-width="10" x1="325.0" x2="837.0" y1="1029.0" y2="1029.0" /><line stroke="#999" stroke-width="3" x1="261.0" x2="325.0" y1="1029.0" y2="1029.0" /><line stroke="#999" stroke-width="3" x1="325.0" x2="261.0" y1="965.0" y2="965.0" /><line stroke="#999" stroke-width="3" x1="261.0" x2="325.0" y1="901.0" y2="901.0" /><line stroke="#999" stroke-width="3" x1="261.0" x2="261.0" y1="965.0" y2="901.0" /><line stroke="#999" stroke-width="3" x1="389.0" x2="325.0" y1="965.0" y2="965.0" /><line stroke="#999" stroke-width="3" x1="325.0" x2="389.0" y1="901.0" y2="901.0" /><line stroke="#999" stroke-width="3" x1="325.0" x2="325.0" y1="965.0" y2="901.0" /><line stroke="#999" stroke-width="3" x1="453.0" x2="389.0" y1="965.0" y2="965.0" /><line stroke="#999" stroke-width="3" x1="453.0" x2="453.0" y1="901.0" y2="965.0" /><line stroke="#999" stroke-width="3" x1="389.0" x2="389.0" y1="965.0" y2="901.0" /><line stroke="#999" stroke-width="3" x1="453.0" x2="389.0" y1="901.0" y2="901.0" /><line stroke="#999" stroke-width="3" x1="389.0" x2="389.0" y1="901.0" y2="837.0" /><line stroke="#999" stroke-width="3" x1="453.0" x2="453.0" y1="837.0" y2="901.0" /><line stroke="#999" stroke-width="3" x1="453.0" x2="389.0" y1="837.0" y2="837.0" /><line stroke="#999" stroke-width="3" x1="453.0" x2="453.0" y1="773.0" y2="837.0" /><line stroke="#999" stroke-width="3" x1="389.0" x2="389.0" y1="837.0" y2="773.0" /><line stroke="#999" stroke-width="3" x1="453.0" x2="389.0" y1="773.0" y2="773.0" /><line stroke="#999" stroke-width="3" x1="389.0" x2="453.0" y1="709.0" y2="709.0" /><line stroke="#999" stroke-width="3" x1="389.0" x2="389.0" y1="773.0" y2="709.0" /><line stroke="#999" stroke-width="3" x1="453.0" x2="517.0" y1="709.0" y2="709.0" /><line stroke="#999" stroke-width="3" x1="517.0" x2="453.0" y1="773.0" y2="773.0" /><line stroke="#999" stroke-width="3" x1="453.0" x2="453.0" y1="773.0" y2="709.0" /><line stroke="#999" stroke-width="3" x1="581.0" x2="517.0" y1="773.0" y2="773.0" /><line stroke="#999" stroke-width="3" x1="517.0" x2="581.0" y1="709.0" y2="709.0" /><line stroke="#999" stroke-width="3" x1="517.0" x2="517.0" y1="773.0" y2="709.0" /><line stroke="#999" stroke-width="3" x1="645.0" x2="645.0" y1="709.0" y2="773.0" /><line stroke="#999" stroke-width="3" x1="581.0" x2="645.0" y1="709.0" y2="709.0" /><line stroke="#999" stroke-width="3" x1="581.0" x2="581.0" y1="773.0" y2="709.0" /><line stroke="#999" stroke-width="3" x1="581.0" x2="645.0" y1="773.0" y2="773.0" /><line stroke="#999" stroke-width="3" x1="581.0" x2="581.0" y1="837.0" y2="773.0" /><line stroke="#999" stroke-width="3" x1="645.0" x2="645.0" y1="773.0" y2="837.0" /><line stroke="#999" stroke-width="3" x1="581.0" x2="645.0" y1="837.0" y2="837.0" /><line stroke="#999" stroke-width="3" x1="645.0" x2="581.0" y1="901.0" y2="901.0" /><line stroke="#999" stroke-width="3" x1="581.0" x2="581.0" y1="901.0" y2="837.0" /><line stroke="#999" stroke-width="3" x1="709.0" x2="645.0" y1="901.0" y2="901.0" /><line stroke="#999" stroke-width="3" x1="645.0" x2="709.0" y1="837.0" y2="837.0" /><line stroke="#999" stroke-width="3" x1="645.0" x2="645.0" y1="901.0" y2="837.0" /><line stroke="#999" stroke-width="3" x1="709.0" x2="773.0" y1="837.0" y2="837.0" /><line stroke="#999" stroke-width="3" x1="773.0" x2="709.0" y1="901.0" y2="901.0" /><line stroke="#999" stroke-width="3" x1="709.0" x2="709.0" y1="901.0" y2="837.0" /><line stroke="#999" stroke-width="3" x1="837.0" x2="773.0" y1="901.0" y2="901.0" /><line stroke="#999" stroke-width="3" x1="773.0" x2="837.0" y1="837.0" y2="837.0" /><line stroke="#999" stroke-width="3" x1="773.0" x2="773.0" y1="901.0" y2="837.0" /><line stroke="#333" stroke-width="10" x1="837.0" x2="837.0" y1="837.0" y2="645.0" /><line stroke="#333" stroke-width="10" x1="837.0" x2="853.0" y1="901.0" y2="901.0" /><line stroke="#999" stroke-width="3" x1="837.0" x2="837.0" y1="837.0" y2="901.0" /><line stroke="#333" stroke-width="10" x1="773.0" x2="773.0" y1="1429.0" y2="1541.0" /><line stroke="#333" stroke-width="10" x1="837.0" x2="837.0" y1="1429.0" y2="1413.0" /><line stroke="#666" stroke-width="20" x1="837.0" x2="773.0" y1="1429.0" y2="1429.0" /><line stroke="#333" stroke-width="10" x1="405.0" x2="773.0" y1="1413.0" y2="1413.0" /><line stroke="#333" stroke-width="10" x1="405.0" x2="389.0" y1="1349.0" y2="1349.0" /><line stroke="#666" stroke-width="20" x1="405.0" x2="405.0" y1="1349.0" y2="1413.0" /><line stroke="#333" stroke-width="10" x1="261.0" x2="261.0" y1="1205.0" y2="1221.0" /><line stroke="#333" stroke-width="10" x1="325.0" x2="325.0" y1="1205.0" y2="1061.0" /><line stroke="#666" stroke-width="20" x1="261.0" x2="325.0" y1="1205.0" y2="1205.0" /><line stroke="#333" stroke-width="10" x1="181.0" x2="197.0" y1="1413.0" y2="1413.0" /><line stroke="#333" stroke-width="10" x1="181.0" x2="5.0" y1="1349.0" y2="1349.0" /><line stroke="#666" stroke-width="20" x1="181.0" x2="181.0" y1="1413.0" y2="1349.0" /><line stroke="#333" stroke-width="10" x1="261.0" x2="261.0" y1="1045.0" y2="1061.0" /><line stroke="#333" stroke-width="10" x1="325.0" x2="325.0" y1="1045.0" y2="1029.0" /><line stroke="#666" stroke-width="20" x1="261.0" x2="325.0" y1="1045.0" y2="1045.0" /><line stroke="#333" stroke-width="10" x1="261.0" x2="261.0" y1="1061.0" y2="1205.0" /><line stroke="#333" stroke-width="10" x1="325.0" x2="325.0" y1="1061.0" y2="1045.0" /><line stroke="#666" stroke-width="20" x1="325.0" x2="261.0" y1="1061.0" y2="1061.0" /><line stroke="#999" stroke-width="3" x1="837.0" x2="773.0" y1="1797.0" y2="1797.0" /><line stroke="#999" stroke-width="3" x1="837.0" x2="837.0" y1="1733.0" y2="1797.0" /><line stroke="#999" stroke-width="3" x1="773.0" x2="837.0" y1="1733.0" y2="1733.0" /><line stroke="#999" stroke-width="3" x1="773.0" x2="773.0" y1="1797.0" y2="1733.0" /><line stroke="#333" stroke-width="10" x1="853.0" x2="869.0" y1="901.0" y2="901.0" /><line stroke="#333" stroke-width="10" x1="853.0" x2="837.0" y1="837.0" y2="837.0" /><line stroke="#d00" stroke-width="20" x1="853.0" x2="853.0" y1="901.0" y2="837.0" /><line stroke="#333" stroke-width="10" x1="869.0" x2="965.0" y1="901.0" y2="901.0" /><line stroke="#333" stroke-width="10" x1="869.0" x2="853.0" y1="837.0" y2="837.0" /><line stroke="#d00" stroke-width="20" x1="869.0" x2="869.0" y1="837.0" y2="901.0" /><line stroke="#999" stroke-width="3" x1="325.0" x2="261.0" y1="1477.0" y2="1477.0" /><line stroke="#999" stroke-width="3" x1="325.0" x2="325.0" y1="1285.0" y2="1477.0" /><line stroke="#999" stroke-width="3" x1="261.0" x2="325.0" y1="1285.0" y2="1285.0" /><line stroke="#999" stroke-width="3" x1="261.0" x2="261.0" y1="1477.0" y2="1285.0" /><line stroke="#333" stroke-width="10" x1="1557.0" x2="1605.0" y1="1925.0" y2="1925.0" /><line stroke="#333" stroke-width="10" x1="1557.0" x2="1541.0" y1="1861.0" y2="1861.0" /><line stroke="#666" stroke-width="20" x1="1557.0" x2="1557.0" y1="1861.0" y2="1925.0" /><line stroke="#333" stroke-width="10" x1="1029.0" x2="1541.0" y1="1157.0" y2="1157.0" /><line stroke="#333" stroke-width="10" x1="2245.0" x2="1029.0" y1="453.0" y2="453.0" /><line stroke="#333" stroke-width="10" x1="1029.0" x2="1029.0" y1="453.0" y2="837.0" /><line stroke="#333" stroke-width="10" x1="1029.0" x2="1029.0" y1="901.0" y2="1157.0" /><line stroke="#333" stroke-width="10" x1="965.0" x2="1029.0" y1="901.0" y2="901.0" /><line stroke="#999" stroke-width="3" x1="1029.0" x2="1029.0" y1="837.0" y2="901.0" /><line stroke="#333" stroke-width="10" x1="1029.0" x2="965.0" y1="837.0" y2="837.0" /><line stroke="#999" stroke-width="3" x1="965.0" x2="965.0" y1="901.0" y2="837.0" /><line stroke="#333" stroke-width="10" x1="965.0" x2="869.0" y1="837.0" y2="837.0" /><line stroke="#333" stroke-width="10" x1="1541.0" x2="1941.0" y1="1733.0" y2="1733.0" /><line stroke="#333" stroke-width="10" x1="2245.0" x2="2245.0" y1="1733.0" y2="1077.0" /><line stroke="#333" stroke-width="10" x1="1541.0" x2="1541.0" y1="1157.0" y2="1733.0" /><line stroke="#333" stroke-width="10" x1="1861.0" x2="2437.0" y1="1989.0" y2="1989.0" /><line stroke="#333" stroke-width="10" x1="2437.0" x2="2437.0" y1="1989.0" y2="901.0" /><line stroke="#333" stroke-width="10" x1="1861.0" x2="1861.0" y1="1765.0" y2="1861.0" /><line stroke="#333" stroke-width="10" x1="2437.0" x2="2277.0" y1="901.0" y2="901.0" /><line stroke="#333" stroke-width="10" x1="2277.0" x2="2277.0" y1="901.0" y2="1013.0" /><line stroke="#333" stroke-width="10" x1="2277.0" x2="2197.0" y1="1765.0" y2="1765.0" /><line stroke="#999" stroke-width="3" x1="1941.0" x2="2197.0" y1="1765.0" y2="1765.0" /><line stroke="#333" stroke-width="10" x1="2197.0" x2="2197.0" y1="1765.0" y2="1733.0" /><line stroke="#999" stroke-width="3" x1="1941.0" x2="2197.0" y1="1733.0" y2="1733.0" /><line stroke="#333" stroke-width="10" x1="1941.0" x2="1941.0" y1="1733.0" y2="1765.0" /><line stroke="#333" stroke-width="10" x1="1941.0" x2="1861.0" y1="1765.0" y2="1765.0" /><line stroke="#333" stroke-width="10" x1="2197.0" x2="2245.0" y1="1733.0" y2="1733.0" /><line stroke="#333" stroke-width="10" x1="2245.0" x2="2277.0" y1="1077.0" y2="1077.0" /><line stroke="#999" stroke-width="3" x1="2277.0" x2="2277.0" y1="1013.0" y2="1077.0" /><line stroke="#333" stroke-width="10" x1="2277.0" x2="2245.0" y1="1013.0" y2="1013.0" /><line stroke="#999" stroke-width="3" x1="2245.0" x2="2245.0" y1="1077.0" y2="1013.0" /><line stroke="#333" stroke-width="10" x1="2277.0" x2="2277.0" y1="1077.0" y2="1765.0" /><line stroke="#333" stroke-width="10" x1="2245.0" x2="2245.0" y1="1013.0" y2="581.0" /><line stroke="#999" stroke-width="3" x1="1285.0" x2="1221.0" y1="773.0" y2="773.0" /><line stroke="#999" stroke-width="3" x1="1285.0" x2="1285.0" y1="709.0" y2="773.0" /><line stroke="#999" stroke-width="3" x1="1221.0" x2="1285.0" y1="709.0" y2="709.0" /><line stroke="#999" stroke-width="3" x1="1221.0" x2="1221.0" y1="773.0" y2="709.0" /><line stroke="#999" stroke-width="3" x1="1605.0" x2="1541.0" y1="837.0" y2="837.0" /><line stroke="#999" stroke-width="3" x1="1605.0" x2="1605.0" y1="773.0" y2="837.0" /><line stroke="#999" stroke-width="3" x1="1541.0" x2="1605.0" y1="773.0" y2="773.0" /><line stroke="#999" stroke-width="3" x1="1541.0" x2="1541.0" y1="837.0" y2="773.0" /><line stroke="#999" stroke-width="3" x1="1861.0" x2="1797.0" y1="709.0" y2="709.0" /><line stroke="#999" stroke-width="3" x1="1861.0" x2="1861.0" y1="645.0" y2="709.0" /><line stroke="#999" stroke-width="3" x1="1797.0" x2="1861.0" y1="645.0" y2="645.0" /><line stroke="#999" stroke-width="3" x1="1797.0" x2="1797.0" y1="709.0" y2="645.0" /><line stroke="#999" stroke-width="3" x1="1989.0" x2="1981.0" y1="1221.0" y2="1221.0" /><line stroke="#999" stroke-width="3" x1="1989.0" x2="1989.0" y1="1157.0" y2="1221.0" /><line stroke="#999" stroke-width="3" x1="1925.0" x2="1981.0" y1="1157.0" y2="1157.0" /><line stroke="#999" stroke-width="3" x1="1925.0" x2="1893.0" y1="1221.0" y2="1221.0" /><line stroke="#999" stroke-width="3" x1="1925.0" x2="1925.0" y1="1221.0" y2="1157.0" /><line stroke="#999" stroke-width="3" x1="1893.0" x2="1925.0" y1="1157.0" y2="1157.0" /><line stroke="#999" stroke-width="3" x1="1733.0" x2="1733.0" y1="1221.0" y2="1157.0" /><line stroke="#999" stroke-width="3" x1="1765.0" x2="1733.0" y1="1221.0" y2="1221.0" /><line stroke="#999" stroke-width="3" x1="1733.0" x2="1765.0" y1="1157.0" y2="1157.0" /><line stroke="#999" stroke-width="3" x1="1765.0" x2="1765.0" y1="1221.0" y2="1157.0" /><line stroke="#999" stroke-width="3" x1="1797.0" x2="1765.0" y1="1221.0" y2="1221.0" /><line stroke="#999" stroke-width="3" x1="1765.0" x2="1797.0" y1="1157.0" y2="1157.0" /><line stroke="#999" stroke-width="3" x1="1797.0" x2="1797.0" y1="1221.0" y2="1157.0" /><line stroke="#999" stroke-width="3" x1="1829.0" x2="1797.0" y1="1221.0" y2="1221.0" /><line stroke="#999" stroke-width="3" x1="1797.0" x2="1829.0" y1="1157.0" y2="1157.0" /><line stroke="#999" stroke-width="3" x1="1829.0" x2="1829.0" y1="1221.0" y2="1157.0" /><line stroke="#999" stroke-width="3" x1="1861.0" x2="1829.0" y1="1221.0" y2="1221.0" /><line stroke="#999" stroke-width="3" x1="1829.0" x2="1861.0" y1="1157.0" y2="1157.0" /><line stroke="#999" stroke-width="3" x1="1861.0" x2="1861.0" y1="1221.0" y2="1157.0" /><line stroke="#999" stroke-width="3" x1="1893.0" x2="1861.0" y1="1221.0" y2="1221.0" /><line stroke="#999" stroke-width="3" x1="1861.0" x2="1893.0" y1="1157.0" y2="1157.0" /><line stroke="#999" stroke-width="3" x1="1893.0" x2="1893.0" y1="1221.0" y2="1157.0" /><line stroke="#999" stroke-width="3" x1="1981.0" x2="1925.0" y1="1221.0" y2="1221.0" /><line stroke="#999" stroke-width="3" x1="1981.0" x2="1989.0" y1="1157.0" y2="1157.0" /><line stroke="#999" stroke-width="3" x1="1981.0" x2="1981.0" y1="1221.0" y2="1157.0" /><line stroke="#333" stroke-width="10" x1="1861.0" x2="1861.0" y1="1925.0" y2="1989.0" /><line stroke="#333" stroke-width="10" x1="1861.0" x2="1861.0" y1="1861.0" y2="1925.0" /><line stroke="#333" stroke-width="10" x1="2245.0" x2="2261.0" y1="581.0" y2="581.0" /><line stroke="#333" stroke-width="10" x1="2885.0" x2="2869.0" y1="517.0" y2="517.0" /><line stroke="#999" stroke-width="3" x1="2245.0" x2="2245.0" y1="581.0" y2="517.0" /><line stroke="#333" stroke-width="10" x1="2245.0" x2="2245.0" y1="517.0" y2="453.0" /><line stroke="#333" stroke-width="10" x1="2309.0" x2="2357.0" y1="501.0" y2="501.0" /><line stroke="#333" stroke-width="10" x1="2869.0" x2="2869.0" y1="501.0" y2="5.0" /><line stroke="#333" stroke-width="10" x1="2869.0" x2="2309.0" y1="5.0" y2="5.0" /><line stroke="#333" stroke-width="10" x1="2309.0" x2="2309.0" y1="5.0" y2="501.0" /><line stroke="#999" stroke-width="3" x1="2837.0" x2="2357.0" y1="517.0" y2="517.0" /><line stroke="#333" stroke-width="10" x1="2837.0" x2="2837.0" y1="517.0" y2="501.0" /><line stroke="#999" stroke-width="3" x1="2357.0" x2="2837.0" y1="501.0" y2="501.0" /><line stroke="#333" stroke-width="10" x1="2357.0" x2="2357.0" y1="501.0" y2="517.0" /><line stroke="#333" stroke-width="10" x1="2357.0" x2="2309.0" y1="517.0" y2="517.0" /><line stroke="#333" stroke-width="10" x1="2837.0" x2="2869.0" y1="501.0" y2="501.0" /><line stroke="#333" stroke-width="10" x1="2309.0" x2="2837.0" y1="581.0" y2="581.0" /><line stroke="#333" stroke-width="10" x1="2309.0" x2="2277.0" y1="517.0" y2="517.0" /><line stroke="#999" stroke-width="3" x1="2309.0" x2="2309.0" y1="517.0" y2="581.0" /><line stroke="#333" stroke-width="10" x1="2261.0" x2="2277.0" y1="581.0" y2="581.0" /><line stroke="#333" stroke-width="10" x1="2261.0" x2="2245.0" y1="517.0" y2="517.0" /><line stroke="#d00" stroke-width="20" x1="2261.0" x2="2261.0" y1="581.0" y2="517.0" /><line stroke="#333" stroke-width="10" x1="2277.0" x2="2309.0" y1="581.0" y2="581.0" /><line stroke="#333" stroke-width="10" x1="2277.0" x2="2261.0" y1="517.0" y2="517.0" /><line stroke="#d00" stroke-width="20" x1="2277.0" x2="2277.0" y1="517.0" y2="581.0" /><line stroke="#333" stroke-width="10" x1="2869.0" x2="2885.0" y1="581.0" y2="581.0" /><line stroke="#333" stroke-width="10" x1="2869.0" x2="2837.0" y1="517.0" y2="517.0" /><line stroke="#666" stroke-width="20" x1="2869.0" x2="2869.0" y1="581.0" y2="517.0" /><line stroke="#333" stroke-width="10" x1="2885.0" x2="3141.0" y1="645.0" y2="645.0" /><line stroke="#333" stroke-width="10" x1="3141.0" x2="3141.0" y1="645.0" y2="453.0" /><line stroke="#333" stroke-width="10" x1="3141.0" x2="2885.0" y1="453.0" y2="453.0" /><line stroke="#333" stroke-width="10" x1="2885.0" x2="2885.0" y1="453.0" y2="517.0" /><line stroke="#333" stroke-width="10" x1="2885.0" x2="2885.0" y1="581.0" y2="645.0" /><line stroke="#666" stroke-width="20" x1="2885.0" x2="2885.0" y1="517.0" y2="581.0" /><line stroke="#999" stroke-width="3" x1="2965.0" x2="3077.0" y1="613.0" y2="613.0" /><line stroke="#0d0" stroke-width="20" x1="3077.0" x2="3077.0" y1="613.0" y2="485.0" /><line stroke="#999" stroke-width="3" x1="3077.0" x2="2965.0" y1="485.0" y2="485.0" /><line stroke="#999" stroke-width="3" x1="2965.0" x2="2965.0" y1="485.0" y2="613.0" /><line stroke="#333" stroke-width="10" x1="2837.0" x2="2869.0" y1="581.0" y2="581.0" /><line stroke="#999" stroke-width="3" x1="2837.0" x2="2837.0" y1="581.0" y2="517.0" /><ellipse cx="37.0" cy="1957.0" fill="#009" rx="12" ry="24" stroke="#009" stroke-width="5" /><circle cx="101.0" cy="1893.0" fill="#900" r="16" stroke="#900" stroke-width="5" /><circle cx="101.0" cy="1829.0" fill="#900" r="16" stroke="#900" stroke-width="5" /><circle cx="101.0" cy="1765.0" fill="#900" r="16" stroke="#900" stroke-width="5" /><rect fill="#090" height="24" stroke="#090" stroke-width="5" transform="rotate(0,133.0,1957.0)" width="24" x="121.0" y="1945.0" /><circle cx="197.0" cy="1957.0" fill="#090" r="16" stroke="#090" stroke-width="5" /><circle cx="293.0" cy="2053.0" fill="#090" r="16" stroke="#090" stroke-width="5" /><circle cx="293.0" cy="1861.0" fill="#090" r="16" stroke="#090" stroke-width="5" /><circle cx="645.0" cy="1509.0" fill="#090" r="16" stroke="#090" stroke-width="5" /><rect fill="#009" height="24" stroke="#009" stroke-width="5" transform="rotate(0,357.0,1957.0)" width="24" x="345.0" y="1945.0" /><circle cx="613.0" cy="2149.0" fill="#009" r="16" stroke="#009" stroke-width="5" /><ellipse cx="933.0" cy="1509.0" fill="#090" rx="12" ry="24" stroke="#090" stroke-width="5" /><ellipse cx="805.0" cy="1765.0" fill="#090" rx="12" ry="24" stroke="#090" stroke-width="5" /><circle cx="293.0" cy="1445.0" fill="#009" r="16" stroke="#009" stroke-width="5" /><circle cx="293.0" cy="1317.0" fill="#090" r="16" stroke="#090" stroke-width="5" /><circle cx="1765.0" cy="1957.0" fill="#090" r="16" stroke="#090" stroke-width="5" /><circle cx="1765.0" cy="1829.0" fill="#090" r="16" stroke="#090" stroke-width="5" /><circle cx="1765.0" cy="1893.0" fill="#090" r="16" stroke="#090" stroke-width="5" /><rect fill="#900" height="48" stroke="#900" stroke-width="5" transform="rotate(90,757.0,2101.0)" width="32" x="741.0" y="2077.0" /><circle cx="853.0" cy="2101.0" fill="#090" r="16" stroke="#090" stroke-width="5" /><circle cx="853.0" cy="2165.0" fill="#009" r="16" stroke="#009" stroke-width="5" /><rect fill="#900" height="48" stroke="#900" stroke-width="5" transform="rotate(90,341.0,1877.0)" width="32" x="325.0" y="1853.0" /><rect fill="#900" height="48" stroke="#900" stroke-width="5" transform="rotate(270,357.0,2037.0)" width="32" x="341.0" y="2013.0" /><circle cx="101.0" cy="1701.0" fill="#009" r="16" stroke="#009" stroke-width="5" /><rect fill="#900" height="48" stroke="#900" stroke-width="5" transform="rotate(0,101.0,1381.0)" width="32" x="85.0" y="1357.0" /><rect fill="#900" height="48" stroke="#900" stroke-width="5" transform="rotate(0,229.0,1509.0)" width="32" x="213.0" y="1485.0" /><rect fill="#900" height="48" stroke="#900" stroke-width="5" transform="rotate(0,357.0,1253.0)" width="32" x="341.0" y="1229.0" /><rect fill="#900" height="48" stroke="#900" stroke-width="5" transform="rotate(0,501.0,1381.0)" width="32" x="485.0" y="1357.0" /><rect fill="#900" height="48" stroke="#900" stroke-width="5" transform="rotate(0,805.0,1685.0)" width="32" x="789.0" y="1661.0" /><rect fill="#900" height="48" stroke="#900" stroke-width="5" transform="rotate(0,741.0,1829.0)" width="32" x="725.0" y="1805.0" /><rect fill="#900" height="48" stroke="#900" stroke-width="5" transform="rotate(180,1669.0,1941.0)" width="32" x="1653.0" y="1917.0" /><rect fill="#900" height="48" stroke="#900" stroke-width="5" transform="rotate(180,1669.0,1861.0)" width="32" x="1653.0" y="1837.0" /><rect fill="#900" height="48" stroke="#900" stroke-width="5" transform="rotate(0,1269.0,1637.0)" width="32" x="1253.0" y="1613.0" /><rect fill="#900" height="48" stroke="#900" stroke-width="5" transform="rotate(0,1445.0,1397.0)" width="32" x="1429.0" y="1373.0" /><rect fill="#900" height="48" stroke="#900" stroke-width="5" transform="rotate(180,1285.0,1253.0)" width="32" x="1269.0" y="1229.0" /><rect fill="#900" height="48" stroke="#900" stroke-width="5" transform="rotate(90,517.0,853.0)" width="32" x="501.0" y="829.0" /><rect fill="#900" height="48" stroke="#900" stroke-width="5" transform="rotate(90,741.0,677.0)" width="32" x="725.0" y="653.0" /><rect fill="#900" height="48" stroke="#900" stroke-width="5" transform="rotate(90,341.0,789.0)" width="32" x="325.0" y="765.0" /><rect fill="#900" height="48" stroke="#900" stroke-width="5" transform="rotate(0,117.0,981.0)" width="32" x="101.0" y="957.0" /><rect fill="#900" height="48" stroke="#900" stroke-width="5" transform="rotate(0,693.0,789.0)" width="32" x="677.0" y="765.0" /><rect fill="#900" height="48" stroke="#900" stroke-width="5" transform="rotate(135,2053.0,1221.0)" width="32" x="2037.0" y="1197.0" /><rect fill="#900" height="48" stroke="#900" stroke-width="5" transform="rotate(0,1733.0,1541.0)" width="32" x="1717.0" y="1517.0" /><rect fill="#900" height="48" stroke="#900" stroke-width="5" transform="rotate(180,1221.0,1029.0)" width="32" x="1205.0" y="1005.0" /><rect fill="#900" height="48" stroke="#900" stroke-width="5" transform="rotate(180,1669.0,773.0)" width="32" x="1653.0" y="749.0" /><rect fill="#900" height="48" stroke="#900" stroke-width="5" transform="rotate(180,1925.0,645.0)" width="32" x="1909.0" y="621.0" /><rect fill="#900" height="48" stroke="#900" stroke-width="5" transform="rotate(180,1413.0,645.0)" width="32" x="1397.0" y="621.0" /><rect fill="#900" height="48" stroke="#900" stroke-width="5" transform="rotate(270,1989.0,1861.0)" width="32" x="1973.0" y="1837.0" /><rect fill="#900" height="48" stroke="#900" stroke-width="5" transform="rotate(270,2053.0,1861.0)" width="32" x="2037.0" y="1837.0" /><rect fill="#900" height="48" stroke="#900" stroke-width="5" transform="rotate(270,2117.0,1861.0)" width="32" x="2101.0" y="1837.0" /><rect fill="#900" height="48" stroke="#900" stroke-width="5" transform="rotate(270,2181.0,1861.0)" width="32" x="2165.0" y="1837.0" /><ellipse cx="1925.0" cy="1925.0" fill="#090" rx="12" ry="24" stroke="#090" stroke-width="5" /><circle cx="1957.0" cy="1189.0" fill="#009" r="16" stroke="#009" stroke-width="5" /><circle cx="293.0" cy="933.0" fill="#009" r="16" stroke="#009" stroke-width="5" /><circle cx="357.0" cy="933.0" fill="#009" r="16" stroke="#009" stroke-width="5" /><circle cx="421.0" cy="933.0" fill="#009" r="16" stroke="#009" stroke-width="5" /><circle cx="421.0" cy="869.0" fill="#009" r="16" stroke="#009" stroke-width="5" /><circle cx="421.0" cy="805.0" fill="#009" r="16" stroke="#009" stroke-width="5" /><circle cx="421.0" cy="741.0" fill="#009" r="16" stroke="#009" stroke-width="5" /><circle cx="485.0" cy="741.0" fill="#009" r="16" stroke="#009" stroke-width="5" /><circle cx="549.0" cy="741.0" fill="#009" r="16" stroke="#009" stroke-width="5" /><circle cx="613.0" cy="741.0" fill="#009" r="16" stroke="#009" stroke-width="5" /><circle cx="613.0" cy="805.0" fill="#009" r="16" stroke="#009" stroke-width="5" /><circle cx="613.0" cy="869.0" fill="#009" r="16" stroke="#009" stroke-width="5" /><circle cx="677.0" cy="869.0" fill="#009" r="16" stroke="#009" stroke-width="5" /><circle cx="741.0" cy="869.0" fill="#009" r="16" stroke="#009" stroke-width="5" /><circle cx="901.0" cy="869.0" fill="#090" r="16" stroke="#090" stroke-width="5" /><rect fill="#900" height="48" stroke="#900" stroke-width="5" transform="rotate(135,2117.0,581.0)" width="32" x="2101.0" y="557.0" /><circle cx="1253.0" cy="741.0" fill="#009" r="16" stroke="#009" stroke-width="5" /><circle cx="1573.0" cy="805.0" fill="#009" r="16" stroke="#009" stroke-width="5" /><rect fill="#090" height="24" stroke="#090" stroke-width="5" transform="rotate(135,1829.0,677.0)" width="24" x="1817.0" y="665.0" /><rect fill="#900" height="48" stroke="#900" stroke-width="5" transform="rotate(180,2437.0,549.0)" width="32" x="2421.0" y="525.0" /><rect fill="#900" height="48" stroke="#900" stroke-width="5" transform="rotate(135,2565.0,261.0)" width="32" x="2549.0" y="237.0" /><circle cx="2357.0" cy="1733.0" fill="#009" r="16" stroke="#009" stroke-width="5" /><ellipse cx="85.0" cy="1957.0" fill="#009" rx="12" ry="24" stroke="#009" stroke-width="5" /></svg>