<?xml version="1.0" encoding="utf-8" ?>
<svg baseProfile="tiny" height="1024" version="1.2" viewBox="0 0 5962 8202" width="744" xmlns="http://www.w3.org/2000/svg" xmlns:ev="http://www.w3.org/2001/xml-events" xmlns:xlink="http://www.w3.org/1999/xlink"><defs /><line stroke="#999" stroke-width="3" x1="3021.0" x2="3013.0" y1="37.0" y2="37.0" /><line stroke="#999" stroke-width="3" x1="3013.0" x2="3013.0" y1="37.0" y2="21.0" /><line stroke="#999" stroke-width="3" x1="3013.0" x2="3021.0" y1="21.0" y2="21.0" /><line stroke="#999" stroke-width="3" x1="3021.0" x2="3021.0" y1="37.0" y2="21.0" /><line stroke="#999" stroke-width="3" x1="3013.0" x2="3005.0" y1="37.0" y2="37.0" /><line stroke="#999" stroke-width="3" x1="3005.0" x2="3005.0" y1="37.0" y2="21.0" /><line stroke="#999" stroke-width="3" x1="3005.0" x2="3013.0" y1="21.0" y2="21.0" /><line stroke="#999" stroke-width="3" x1="3005.0" x2="2989.0" y1="37.0" y2="37.0" /><line stroke="#999" stroke-width="3" x1="2989.0" x2="2989.0" y1="37.0" y2="21.0" /><line stroke="#999" stroke-width="3" x1="2989.0" x2="3005.0" y1="21.0" y2="21.0" /><line stroke="#999" stroke-width="3" x1="2989.0" x2="2973.0" y1="37.0" y2="37.0" /><line stroke="#999" stroke-width="3" x1="2973.0" x2="2973.0" y1="21.0" y2="37.0" /><line stroke="#999" stroke-width="3" x1="2973.0" x2="2989.0" y1="21.0" y2="21.0" /><line stroke="#999" stroke-width="3" x1="2973.0" x2="2957.0" y1="37.0" y2="37.0" /><line stroke="#999" stroke-width="3" x1="2957.0" x2="2957.0" y1="21.0" y2="37.0" /><line stroke="#999" stroke-width="3" x1="2957.0" x2="2973.0" y1="21.0" y2="21.0" /><line stroke="#999" stroke-width="3" x1="2957.0" x2="2949.0" y1="37.0" y2="37.0" /><line stroke="#999" stroke-width="3" x1="2949.0" x2="2949.0" y1="21.0" y2="37.0" /><line stroke="#999" stroke-width="3" x1="2949.0" x2="2957.0" y1="21.0" y2="21.0" /><line stroke="#999" stroke-width="3" x1="3021.0" x2="3029.0" y1="21.0" y2="21.0" /><line stroke="#333" stroke-width="10" x1="3029.0" x2="3029.0" y1="37.0" y2="21.0" /><line stroke="#999" stroke-width="3" x1="3029.0" x2="3021.0" y1="37.0" y2="37.0" /><line stroke="#999" stroke-width="3" x1="2949.0" x2="2941.0" y1="37.0" y2="37.0" /><line stroke="#999" stroke-width="3" x1="2941.0" x2="2941.0" y1="21.0" y2="37.0" /><line stroke="#999" stroke-width="3" x1="2941.0" x2="2949.0" y1="21.0" y2="21.0" /><line stroke="#999" stroke-width="3" x1="2941.0" x2="2933.0" y1="37.0" y2="37.0" /><line stroke="#333" stroke-width="10" x1="2933.0" x2="2933.0" y1="21.0" y2="37.0" /><line stroke="#999" stroke-width="3" x1="2933.0" x2="2941.0" y1="21.0" y2="21.0" /><line stroke="#333" stroke-width="10" x1="2933.0" x2="2933.0" y1="5.0" y2="21.0" /><line stroke="#333" stroke-width="10" x1="3029.0" x2="2933.0" y1="5.0" y2="5.0" /><line stroke="#333" stroke-width="10" x1="3029.0" x2="3029.0" y1="21.0" y2="5.0" /><line stroke="#333" stroke-width="10" x1="3045.0" x2="3029.0" y1="37.0" y2="37.0" /><line stroke="#333" stroke-width="10" x1="3061.0" x2="3061.0" y1="357.0" y2="69.0" /><line stroke="#999" stroke-width="3" x1="2901.0" x2="2921.0" y1="357.0" y2="357.0" /><line stroke="#333" stroke-width="10" x1="2917.0" x2="2901.0" y1="37.0" y2="69.0" /><line stroke="#333" stroke-width="10" x1="2933.0" x2="2917.0" y1="37.0" y2="37.0" /><line stroke="#333" stroke-width="10" x1="3061.0" x2="3045.0" y1="69.0" y2="37.0" /><line stroke="#333" stroke-width="10" x1="2901.0" x2="2901.0" y1="69.0" y2="357.0" /><line stroke="#333" stroke-width="10" x1="3061.0" x2="3061.0" y1="389.0" y2="357.0" /><line stroke="#999" stroke-width="3" x1="2921.0" x2="2901.0" y1="389.0" y2="389.0" /><line stroke="#333" stroke-width="10" x1="2901.0" x2="2901.0" y1="357.0" y2="389.0" /><line stroke="#999" stroke-width="3" x1="2941.0" x2="2961.0" y1="357.0" y2="357.0" /><line stroke="#999" stroke-width="3" x1="2961.0" x2="2941.0" y1="389.0" y2="389.0" /><line stroke="#999" stroke-width="3" x1="2941.0" x2="2941.0" y1="357.0" y2="389.0" /><line stroke="#999" stroke-width="3" x1="3041.0" x2="3021.0" y1="389.0" y2="389.0" /><line stroke="#999" stroke-width="3" x1="3021.0" x2="3041.0" y1="357.0" y2="357.0" /><line stroke="#999" stroke-width="3" x1="3021.0" x2="3021.0" y1="389.0" y2="357.0" /><line stroke="#999" stroke-width="3" x1="3061.0" x2="3041.0" y1="389.0" y2="389.0" /><line stroke="#999" stroke-width="3" x1="3041.0" x2="3061.0" y1="357.0" y2="357.0" /><line stroke="#999" stroke-width="3" x1="3041.0" x2="3041.0" y1="389.0" y2="357.0" /><line stroke="#999" stroke-width="3" x1="3001.0" x2="3021.0" y1="357.0" y2="357.0" /><line stroke="#999" stroke-width="3" x1="3021.0" x2="3001.0" y1="389.0" y2="389.0" /><line stroke="#999" stroke-width="3" x1="3001.0" x2="3001.0" y1="389.0" y2="357.0" /><line stroke="#999" stroke-width="3" x1="3001.0" x2="2961.0" y1="389.0" y2="389.0" /><line stroke="#999" stroke-width="3" x1="2961.0" x2="3001.0" y1="357.0" y2="357.0" /><line stroke="#999" stroke-width="3" x1="2961.0" x2="2961.0" y1="357.0" y2="389.0" /><line stroke="#999" stroke-width="3" x1="2921.0" x2="2941.0" y1="357.0" y2="357.0" /><line stroke="#999" stroke-width="3" x1="2941.0" x2="2921.0" y1="389.0" y2="389.0" /><line stroke="#999" stroke-width="3" x1="2921.0" x2="2921.0" y1="357.0" y2="389.0" /><line stroke="#333" stroke-width="10" x1="3109.0" x2="3109.0" y1="549.0" y2="525.0" /><line stroke="#333" stroke-width="10" x1="2853.0" x2="2917.0" y1="549.0" y2="549.0" /><line stroke="#333" stroke-width="10" x1="2901.0" x2="2853.0" y1="389.0" y2="421.0" /><line stroke="#999" stroke-width="3" x1="2853.0" x2="2853.0" y1="421.0" y2="525.0" /><line stroke="#333" stroke-width="10" x1="3109.0" x2="3061.0" y1="421.0" y2="389.0" /><line stroke="#333" stroke-width="10" x1="3109.0" x2="3109.0" y1="525.0" y2="421.0" /><line stroke="#333" stroke-width="10" x1="2853.0" x2="2853.0" y1="525.0" y2="549.0" /><line stroke="#00d" stroke-width="20" x1="2917.0" x2="3045.0" y1="549.0" y2="549.0" /><line stroke="#333" stroke-width="10" x1="3045.0" x2="3109.0" y1="549.0" y2="549.0" /><line stroke="#333" stroke-width="10" x1="2917.0" x2="3045.0" y1="566.0" y2="566.0" /><line stroke="#333" stroke-width="10" x1="2917.0" x2="2917.0" y1="549.0" y2="566.0" /><line stroke="#333" stroke-width="10" x1="3045.0" x2="3045.0" y1="566.0" y2="549.0" /><line stroke="#333" stroke-width="10" x1="2853.0" x2="2933.0" y1="2085.0" y2="2085.0" /><line stroke="#333" stroke-width="10" x1="3109.0" x2="3493.0" y1="2085.0" y2="1829.0" /><line stroke="#333" stroke-width="10" x1="3493.0" x2="3685.0" y1="1829.0" y2="1637.0" /><line stroke="#333" stroke-width="10" x1="3685.0" x2="3685.0" y1="1637.0" y2="677.0" /><line stroke="#333" stroke-width="10" x1="3685.0" x2="3013.0" y1="677.0" y2="677.0" /><line stroke="#333" stroke-width="10" x1="2277.0" x2="2277.0" y1="677.0" y2="1637.0" /><line stroke="#333" stroke-width="10" x1="2277.0" x2="2469.0" y1="1637.0" y2="1829.0" /><line stroke="#333" stroke-width="10" x1="2469.0" x2="2853.0" y1="1829.0" y2="2085.0" /><line stroke="#999" stroke-width="3" x1="3429.0" x2="3429.0" y1="1317.0" y2="1301.0" /><line stroke="#999" stroke-width="3" x1="3429.0" x2="3445.0" y1="1253.0" y2="1253.0" /><line stroke="#999" stroke-width="3" x1="3493.0" x2="3493.0" y1="1253.0" y2="1269.0" /><line stroke="#999" stroke-width="3" x1="3493.0" x2="3477.0" y1="1317.0" y2="1317.0" /><line stroke="#999" stroke-width="3" x1="3429.0" x2="3429.0" y1="933.0" y2="917.0" /><line stroke="#999" stroke-width="3" x1="3429.0" x2="3445.0" y1="869.0" y2="869.0" /><line stroke="#999" stroke-width="3" x1="3493.0" x2="3493.0" y1="869.0" y2="885.0" /><line stroke="#999" stroke-width="3" x1="3493.0" x2="3477.0" y1="933.0" y2="933.0" /><line stroke="#999" stroke-width="3" x1="2469.0" x2="2469.0" y1="933.0" y2="917.0" /><line stroke="#999" stroke-width="3" x1="2469.0" x2="2485.0" y1="869.0" y2="869.0" /><line stroke="#999" stroke-width="3" x1="2533.0" x2="2533.0" y1="869.0" y2="885.0" /><line stroke="#999" stroke-width="3" x1="2533.0" x2="2517.0" y1="933.0" y2="933.0" /><line stroke="#999" stroke-width="3" x1="2469.0" x2="2469.0" y1="1317.0" y2="1301.0" /><line stroke="#999" stroke-width="3" x1="2469.0" x2="2485.0" y1="1253.0" y2="1253.0" /><line stroke="#999" stroke-width="3" x1="2533.0" x2="2533.0" y1="1253.0" y2="1269.0" /><line stroke="#999" stroke-width="3" x1="2533.0" x2="2517.0" y1="1317.0" y2="1317.0" /><line stroke="#999" stroke-width="3" x1="2485.0" x2="2485.0" y1="1333.0" y2="1317.0" /><line stroke="#999" stroke-width="3" x1="2517.0" x2="2485.0" y1="1333.0" y2="1333.0" /><line stroke="#999" stroke-width="3" x1="2517.0" x2="2517.0" y1="1317.0" y2="1333.0" /><line stroke="#999" stroke-width="3" x1="2485.0" x2="2469.0" y1="1317.0" y2="1317.0" /><line stroke="#999" stroke-width="3" x1="2517.0" x2="2485.0" y1="1317.0" y2="1317.0" /><line stroke="#999" stroke-width="3" x1="2549.0" x2="2533.0" y1="1301.0" y2="1301.0" /><line stroke="#999" stroke-width="3" x1="2549.0" x2="2549.0" y1="1269.0" y2="1301.0" /><line stroke="#999" stroke-width="3" x1="2533.0" x2="2549.0" y1="1269.0" y2="1269.0" /><line stroke="#999" stroke-width="3" x1="2533.0" x2="2533.0" y1="1301.0" y2="1317.0" /><line stroke="#999" stroke-width="3" x1="2533.0" x2="2533.0" y1="1269.0" y2="1301.0" /><line stroke="#999" stroke-width="3" x1="2485.0" x2="2485.0" y1="1253.0" y2="1237.0" /><line stroke="#999" stroke-width="3" x1="2485.0" x2="2517.0" y1="1237.0" y2="1237.0" /><line stroke="#999" stroke-width="3" x1="2517.0" x2="2517.0" y1="1237.0" y2="1253.0" /><line stroke="#999" stroke-width="3" x1="2485.0" x2="2517.0" y1="1253.0" y2="1253.0" /><line stroke="#999" stroke-width="3" x1="2517.0" x2="2533.0" y1="1253.0" y2="1253.0" /><line stroke="#999" stroke-width="3" x1="2469.0" x2="2453.0" y1="1301.0" y2="1301.0" /><line stroke="#999" stroke-width="3" x1="2453.0" x2="2453.0" y1="1301.0" y2="1269.0" /><line stroke="#999" stroke-width="3" x1="2453.0" x2="2469.0" y1="1269.0" y2="1269.0" /><line stroke="#999" stroke-width="3" x1="2469.0" x2="2469.0" y1="1301.0" y2="1269.0" /><line stroke="#999" stroke-width="3" x1="2469.0" x2="2469.0" y1="1269.0" y2="1253.0" /><line stroke="#999" stroke-width="3" x1="2485.0" x2="2485.0" y1="949.0" y2="933.0" /><line stroke="#999" stroke-width="3" x1="2517.0" x2="2485.0" y1="949.0" y2="949.0" /><line stroke="#999" stroke-width="3" x1="2517.0" x2="2517.0" y1="933.0" y2="949.0" /><line stroke="#999" stroke-width="3" x1="2485.0" x2="2469.0" y1="933.0" y2="933.0" /><line stroke="#999" stroke-width="3" x1="2517.0" x2="2485.0" y1="933.0" y2="933.0" /><line stroke="#999" stroke-width="3" x1="2549.0" x2="2533.0" y1="917.0" y2="917.0" /><line stroke="#999" stroke-width="3" x1="2549.0" x2="2549.0" y1="885.0" y2="917.0" /><line stroke="#999" stroke-width="3" x1="2533.0" x2="2549.0" y1="885.0" y2="885.0" /><line stroke="#999" stroke-width="3" x1="2533.0" x2="2533.0" y1="917.0" y2="933.0" /><line stroke="#999" stroke-width="3" x1="2533.0" x2="2533.0" y1="885.0" y2="917.0" /><line stroke="#999" stroke-width="3" x1="2485.0" x2="2485.0" y1="869.0" y2="853.0" /><line stroke="#999" stroke-width="3" x1="2485.0" x2="2517.0" y1="853.0" y2="853.0" /><line stroke="#999" stroke-width="3" x1="2517.0" x2="2517.0" y1="853.0" y2="869.0" /><line stroke="#999" stroke-width="3" x1="2485.0" x2="2517.0" y1="869.0" y2="869.0" /><line stroke="#999" stroke-width="3" x1="2517.0" x2="2533.0" y1="869.0" y2="869.0" /><line stroke="#999" stroke-width="3" x1="2469.0" x2="2453.0" y1="917.0" y2="917.0" /><line stroke="#999" stroke-width="3" x1="2453.0" x2="2453.0" y1="917.0" y2="885.0" /><line stroke="#999" stroke-width="3" x1="2453.0" x2="2469.0" y1="885.0" y2="885.0" /><line stroke="#999" stroke-width="3" x1="2469.0" x2="2469.0" y1="917.0" y2="885.0" /><line stroke="#999" stroke-width="3" x1="2469.0" x2="2469.0" y1="885.0" y2="869.0" /><line stroke="#999" stroke-width="3" x1="3445.0" x2="3445.0" y1="949.0" y2="933.0" /><line stroke="#999" stroke-width="3" x1="3477.0" x2="3445.0" y1="949.0" y2="949.0" /><line stroke="#999" stroke-width="3" x1="3477.0" x2="3477.0" y1="933.0" y2="949.0" /><line stroke="#999" stroke-width="3" x1="3445.0" x2="3429.0" y1="933.0" y2="933.0" /><line stroke="#999" stroke-width="3" x1="3477.0" x2="3445.0" y1="933.0" y2="933.0" /><line stroke="#999" stroke-width="3" x1="3429.0" x2="3413.0" y1="917.0" y2="917.0" /><line stroke="#999" stroke-width="3" x1="3413.0" x2="3413.0" y1="917.0" y2="885.0" /><line stroke="#999" stroke-width="3" x1="3413.0" x2="3429.0" y1="885.0" y2="885.0" /><line stroke="#999" stroke-width="3" x1="3429.0" x2="3429.0" y1="917.0" y2="885.0" /><line stroke="#999" stroke-width="3" x1="3429.0" x2="3429.0" y1="885.0" y2="869.0" /><line stroke="#999" stroke-width="3" x1="3445.0" x2="3445.0" y1="869.0" y2="853.0" /><line stroke="#999" stroke-width="3" x1="3445.0" x2="3477.0" y1="853.0" y2="853.0" /><line stroke="#999" stroke-width="3" x1="3477.0" x2="3477.0" y1="853.0" y2="869.0" /><line stroke="#999" stroke-width="3" x1="3445.0" x2="3477.0" y1="869.0" y2="869.0" /><line stroke="#999" stroke-width="3" x1="3477.0" x2="3493.0" y1="869.0" y2="869.0" /><line stroke="#999" stroke-width="3" x1="3509.0" x2="3493.0" y1="917.0" y2="917.0" /><line stroke="#999" stroke-width="3" x1="3509.0" x2="3509.0" y1="885.0" y2="917.0" /><line stroke="#999" stroke-width="3" x1="3493.0" x2="3509.0" y1="885.0" y2="885.0" /><line stroke="#999" stroke-width="3" x1="3493.0" x2="3493.0" y1="917.0" y2="933.0" /><line stroke="#999" stroke-width="3" x1="3493.0" x2="3493.0" y1="885.0" y2="917.0" /><line stroke="#999" stroke-width="3" x1="3445.0" x2="3445.0" y1="1253.0" y2="1237.0" /><line stroke="#999" stroke-width="3" x1="3445.0" x2="3477.0" y1="1237.0" y2="1237.0" /><line stroke="#999" stroke-width="3" x1="3477.0" x2="3477.0" y1="1237.0" y2="1253.0" /><line stroke="#999" stroke-width="3" x1="3445.0" x2="3477.0" y1="1253.0" y2="1253.0" /><line stroke="#999" stroke-width="3" x1="3477.0" x2="3493.0" y1="1253.0" y2="1253.0" /><line stroke="#999" stroke-width="3" x1="3429.0" x2="3413.0" y1="1301.0" y2="1301.0" /><line stroke="#999" stroke-width="3" x1="3413.0" x2="3413.0" y1="1301.0" y2="1269.0" /><line stroke="#999" stroke-width="3" x1="3413.0" x2="3429.0" y1="1269.0" y2="1269.0" /><line stroke="#999" stroke-width="3" x1="3429.0" x2="3429.0" y1="1301.0" y2="1269.0" /><line stroke="#999" stroke-width="3" x1="3429.0" x2="3429.0" y1="1269.0" y2="1253.0" /><line stroke="#999" stroke-width="3" x1="3445.0" x2="3445.0" y1="1333.0" y2="1317.0" /><line stroke="#999" stroke-width="3" x1="3477.0" x2="3445.0" y1="1333.0" y2="1333.0" /><line stroke="#999" stroke-width="3" x1="3477.0" x2="3477.0" y1="1317.0" y2="1333.0" /><line stroke="#999" stroke-width="3" x1="3445.0" x2="3429.0" y1="1317.0" y2="1317.0" /><line stroke="#999" stroke-width="3" x1="3477.0" x2="3445.0" y1="1317.0" y2="1317.0" /><line stroke="#999" stroke-width="3" x1="3509.0" x2="3493.0" y1="1301.0" y2="1301.0" /><line stroke="#999" stroke-width="3" x1="3509.0" x2="3509.0" y1="1269.0" y2="1301.0" /><line stroke="#999" stroke-width="3" x1="3493.0" x2="3509.0" y1="1269.0" y2="1269.0" /><line stroke="#999" stroke-width="3" x1="3493.0" x2="3493.0" y1="1301.0" y2="1317.0" /><line stroke="#999" stroke-width="3" x1="3493.0" x2="3493.0" y1="1269.0" y2="1301.0" /><line stroke="#999" stroke-width="3" x1="3397.0" x2="3397.0" y1="1349.0" y2="1221.0" /><line stroke="#999" stroke-width="3" x1="3397.0" x2="3525.0" y1="1221.0" y2="1221.0" /><line stroke="#999" stroke-width="3" x1="3525.0" x2="3525.0" y1="1221.0" y2="1349.0" /><line stroke="#999" stroke-width="3" x1="3525.0" x2="3397.0" y1="1349.0" y2="1349.0" /><line stroke="#999" stroke-width="3" x1="3525.0" x2="3397.0" y1="965.0" y2="965.0" /><line stroke="#999" stroke-width="3" x1="3525.0" x2="3525.0" y1="837.0" y2="965.0" /><line stroke="#999" stroke-width="3" x1="3397.0" x2="3525.0" y1="837.0" y2="837.0" /><line stroke="#999" stroke-width="3" x1="3397.0" x2="3397.0" y1="965.0" y2="837.0" /><line stroke="#999" stroke-width="3" x1="2565.0" x2="2565.0" y1="1221.0" y2="1349.0" /><line stroke="#999" stroke-width="3" x1="2437.0" x2="2565.0" y1="1221.0" y2="1221.0" /><line stroke="#999" stroke-width="3" x1="2437.0" x2="2437.0" y1="1349.0" y2="1221.0" /><line stroke="#999" stroke-width="3" x1="2565.0" x2="2437.0" y1="1349.0" y2="1349.0" /><line stroke="#999" stroke-width="3" x1="2565.0" x2="2437.0" y1="965.0" y2="965.0" /><line stroke="#999" stroke-width="3" x1="2565.0" x2="2565.0" y1="837.0" y2="965.0" /><line stroke="#999" stroke-width="3" x1="2437.0" x2="2565.0" y1="837.0" y2="837.0" /><line stroke="#999" stroke-width="3" x1="2437.0" x2="2437.0" y1="965.0" y2="837.0" /><line stroke="#333" stroke-width="10" x1="2949.0" x2="2949.0" y1="597.0" y2="661.0" /><line stroke="#333" stroke-width="10" x1="3013.0" x2="2949.0" y1="597.0" y2="597.0" /><line stroke="#333" stroke-width="10" x1="3013.0" x2="3013.0" y1="677.0" y2="661.0" /><line stroke="#333" stroke-width="10" x1="2949.0" x2="2693.0" y1="677.0" y2="677.0" /><line stroke="#999" stroke-width="3" x1="3013.0" x2="2949.0" y1="677.0" y2="677.0" /><line stroke="#333" stroke-width="10" x1="2949.0" x2="2949.0" y1="661.0" y2="677.0" /><line stroke="#333" stroke-width="10" x1="3013.0" x2="3013.0" y1="661.0" y2="597.0" /><line stroke="#999" stroke-width="3" x1="2949.0" x2="3013.0" y1="661.0" y2="661.0" /><line stroke="#999" stroke-width="3" x1="2949.0" x2="2949.0" y1="869.0" y2="773.0" /><line stroke="#999" stroke-width="3" x1="2853.0" x2="2949.0" y1="869.0" y2="869.0" /><line stroke="#999" stroke-width="3" x1="2853.0" x2="2853.0" y1="1349.0" y2="869.0" /><line stroke="#999" stroke-width="3" x1="3109.0" x2="2853.0" y1="1349.0" y2="1349.0" /><line stroke="#999" stroke-width="3" x1="3109.0" x2="3109.0" y1="869.0" y2="1349.0" /><line stroke="#999" stroke-width="3" x1="3013.0" x2="3109.0" y1="869.0" y2="869.0" /><line stroke="#999" stroke-width="3" x1="3013.0" x2="3013.0" y1="773.0" y2="869.0" /><line stroke="#999" stroke-width="3" x1="2949.0" x2="3013.0" y1="773.0" y2="773.0" /><line stroke="#999" stroke-width="3" x1="2933.0" x2="2949.0" y1="773.0" y2="773.0" /><line stroke="#999" stroke-width="3" x1="2933.0" x2="2933.0" y1="853.0" y2="773.0" /><line stroke="#999" stroke-width="3" x1="2837.0" x2="2933.0" y1="853.0" y2="853.0" /><line stroke="#999" stroke-width="3" x1="2837.0" x2="2837.0" y1="1365.0" y2="853.0" /><line stroke="#999" stroke-width="3" x1="3125.0" x2="2837.0" y1="1365.0" y2="1365.0" /><line stroke="#999" stroke-width="3" x1="3125.0" x2="3125.0" y1="853.0" y2="1365.0" /><line stroke="#999" stroke-width="3" x1="3029.0" x2="3125.0" y1="853.0" y2="853.0" /><line stroke="#999" stroke-width="3" x1="3029.0" x2="3029.0" y1="773.0" y2="853.0" /><line stroke="#999" stroke-width="3" x1="3013.0" x2="3029.0" y1="773.0" y2="773.0" /><line stroke="#999" stroke-width="3" x1="2949.0" x2="2949.0" y1="773.0" y2="741.0" /><line stroke="#999" stroke-width="3" x1="2949.0" x2="3013.0" y1="741.0" y2="741.0" /><line stroke="#999" stroke-width="3" x1="3013.0" x2="3013.0" y1="741.0" y2="773.0" /><line stroke="#999" stroke-width="3" x1="2789.0" x2="2789.0" y1="1445.0" y2="1413.0" /><line stroke="#999" stroke-width="3" x1="2789.0" x2="2821.0" y1="1413.0" y2="1413.0" /><line stroke="#999" stroke-width="3" x1="2821.0" x2="2821.0" y1="1413.0" y2="1445.0" /><line stroke="#999" stroke-width="3" x1="2821.0" x2="2789.0" y1="1445.0" y2="1445.0" /><line stroke="#999" stroke-width="3" x1="3141.0" x2="3141.0" y1="1445.0" y2="1413.0" /><line stroke="#999" stroke-width="3" x1="3141.0" x2="3173.0" y1="1413.0" y2="1413.0" /><line stroke="#999" stroke-width="3" x1="3173.0" x2="3173.0" y1="1413.0" y2="1445.0" /><line stroke="#999" stroke-width="3" x1="3173.0" x2="3141.0" y1="1445.0" y2="1445.0" /><line stroke="#999" stroke-width="3" x1="2693.0" x2="2677.0" y1="1701.0" y2="1701.0" /><line stroke="#999" stroke-width="3" x1="2693.0" x2="2693.0" y1="1333.0" y2="1701.0" /><line stroke="#999" stroke-width="3" x1="2773.0" x2="2693.0" y1="1333.0" y2="1333.0" /><line stroke="#999" stroke-width="3" x1="2773.0" x2="2773.0" y1="1221.0" y2="1333.0" /><line stroke="#999" stroke-width="3" x1="2757.0" x2="2773.0" y1="1221.0" y2="1221.0" /><line stroke="#999" stroke-width="3" x1="2757.0" x2="2757.0" y1="1317.0" y2="1221.0" /><line stroke="#999" stroke-width="3" x1="2677.0" x2="2757.0" y1="1317.0" y2="1317.0" /><line stroke="#999" stroke-width="3" x1="2677.0" x2="2677.0" y1="1701.0" y2="1317.0" /><line stroke="#999" stroke-width="3" x1="3189.0" x2="3189.0" y1="1333.0" y2="1205.0" /><line stroke="#999" stroke-width="3" x1="3269.0" x2="3189.0" y1="1333.0" y2="1333.0" /><line stroke="#999" stroke-width="3" x1="3269.0" x2="3269.0" y1="1701.0" y2="1333.0" /><line stroke="#999" stroke-width="3" x1="3285.0" x2="3269.0" y1="1701.0" y2="1701.0" /><line stroke="#999" stroke-width="3" x1="3285.0" x2="3285.0" y1="1317.0" y2="1701.0" /><line stroke="#999" stroke-width="3" x1="3205.0" x2="3285.0" y1="1317.0" y2="1317.0" /><line stroke="#999" stroke-width="3" x1="3205.0" x2="3205.0" y1="1205.0" y2="1317.0" /><line stroke="#999" stroke-width="3" x1="3189.0" x2="3205.0" y1="1205.0" y2="1205.0" /><line stroke="#333" stroke-width="10" x1="2933.0" x2="2933.0" y1="2085.0" y2="2117.0" /><line stroke="#999" stroke-width="3" x1="2933.0" x2="3029.0" y1="2117.0" y2="2117.0" /><line stroke="#333" stroke-width="10" x1="3029.0" x2="3029.0" y1="2117.0" y2="2085.0" /><line stroke="#999" stroke-width="3" x1="2933.0" x2="3029.0" y1="2085.0" y2="2085.0" /><line stroke="#333" stroke-width="10" x1="3029.0" x2="3109.0" y1="2085.0" y2="2085.0" /><line stroke="#333" stroke-width="10" x1="2933.0" x2="2933.0" y1="2117.0" y2="2149.0" /><line stroke="#999" stroke-width="3" x1="2933.0" x2="3029.0" y1="2149.0" y2="2149.0" /><line stroke="#333" stroke-width="10" x1="3029.0" x2="3029.0" y1="2149.0" y2="2117.0" /><line stroke="#333" stroke-width="10" x1="2933.0" x2="2933.0" y1="2149.0" y2="2181.0" /><line stroke="#999" stroke-width="3" x1="2933.0" x2="3029.0" y1="2181.0" y2="2181.0" /><line stroke="#333" stroke-width="10" x1="3029.0" x2="3029.0" y1="2181.0" y2="2149.0" /><line stroke="#333" stroke-width="10" x1="2933.0" x2="2933.0" y1="2181.0" y2="2213.0" /><line stroke="#999" stroke-width="3" x1="2933.0" x2="3029.0" y1="2213.0" y2="2213.0" /><line stroke="#333" stroke-width="10" x1="3029.0" x2="3029.0" y1="2213.0" y2="2181.0" /><line stroke="#333" stroke-width="10" x1="2933.0" x2="2933.0" y1="2213.0" y2="2245.0" /><line stroke="#999" stroke-width="3" x1="2933.0" x2="3029.0" y1="2245.0" y2="2245.0" /><line stroke="#333" stroke-width="10" x1="3029.0" x2="3029.0" y1="2245.0" y2="2213.0" /><line stroke="#333" stroke-width="10" x1="2933.0" x2="2933.0" y1="2245.0" y2="2277.0" /><line stroke="#999" stroke-width="3" x1="2933.0" x2="3029.0" y1="2277.0" y2="2277.0" /><line stroke="#333" stroke-width="10" x1="3029.0" x2="3029.0" y1="2277.0" y2="2245.0" /><line stroke="#333" stroke-width="10" x1="2933.0" x2="2933.0" y1="2277.0" y2="2308.0" /><line stroke="#0d0" stroke-width="20" x1="3029.0" x2="2933.0" y1="2309.0" y2="2309.0" /><line stroke="#333" stroke-width="10" x1="3029.0" x2="3029.0" y1="2309.0" y2="2308.0" /><line stroke="#999" stroke-width="3" x1="5925.0" x2="5197.0" y1="517.0" y2="965.0" /><line stroke="#999" stroke-width="3" x1="5925.0" x2="5925.0" y1="8165.0" y2="7205.0" /><line stroke="#999" stroke-width="3" x1="37.0" x2="2933.0" y1="8165.0" y2="8165.0" /><line stroke="#999" stroke-width="3" x1="37.0" x2="37.0" y1="517.0" y2="1469.0" /><line stroke="#999" stroke-width="3" x1="2933.0" x2="2205.0" y1="2309.0" y2="1861.0" /><line stroke="#333" stroke-width="10" x1="2933.0" x2="2901.0" y1="2309.0" y2="2277.0" /><line stroke="#333" stroke-width="10" x1="5957.0" x2="5229.0" y1="453.0" y2="909.0" /><line stroke="#333" stroke-width="10" x1="5957.0" x2="5957.0" y1="8197.0" y2="7229.0" /><line stroke="#333" stroke-width="10" x1="5.0" x2="749.0" y1="8197.0" y2="8197.0" /><line stroke="#333" stroke-width="10" x1="5.0" x2="5.0" y1="453.0" y2="1421.0" /><line stroke="#333" stroke-width="10" x1="2901.0" x2="2173.0" y1="2277.0" y2="1821.0" /><line stroke="#333" stroke-width="10" x1="3061.0" x2="3029.0" y1="2277.0" y2="2309.0" /><line stroke="#333" stroke-width="10" x1="2933.0" x2="2933.0" y1="2308.0" y2="2309.0" /><line stroke="#333" stroke-width="10" x1="3029.0" x2="3029.0" y1="2308.0" y2="2277.0" /><line stroke="#999" stroke-width="3" x1="2933.0" x2="3029.0" y1="2308.0" y2="2308.0" /><line stroke="#999" stroke-width="3" x1="3029.0" x2="5925.0" y1="8165.0" y2="8165.0" /><line stroke="#999" stroke-width="3" x1="2933.0" x2="3029.0" y1="8165.0" y2="8165.0" /><line stroke="#999" stroke-width="3" x1="2933.0" x2="2933.0" y1="8165.0" y2="7437.0" /><line stroke="#333" stroke-width="10" x1="2597.0" x2="2277.0" y1="677.0" y2="677.0" /><line stroke="#d00" stroke-width="20" x1="2693.0" x2="2597.0" y1="677.0" y2="677.0" /><line stroke="#333" stroke-width="10" x1="2693.0" x2="2693.0" y1="677.0" y2="661.0" /><line stroke="#333" stroke-width="10" x1="2725.0" x2="2837.0" y1="549.0" y2="525.0" /><line stroke="#333" stroke-width="10" x1="2661.0" x2="2597.0" y1="453.0" y2="661.0" /><line stroke="#333" stroke-width="10" x1="2853.0" x2="2837.0" y1="421.0" y2="421.0" /><line stroke="#333" stroke-width="10" x1="2693.0" x2="2725.0" y1="661.0" y2="549.0" /><line stroke="#333" stroke-width="10" x1="2597.0" x2="2597.0" y1="661.0" y2="677.0" /><line stroke="#d00" stroke-width="20" x1="2597.0" x2="2693.0" y1="661.0" y2="661.0" /><line stroke="#333" stroke-width="10" x1="2837.0" x2="2853.0" y1="525.0" y2="525.0" /><line stroke="#333" stroke-width="10" x1="2837.0" x2="2661.0" y1="421.0" y2="453.0" /><line stroke="#d00" stroke-width="20" x1="2837.0" x2="2837.0" y1="525.0" y2="421.0" /><line stroke="#999" stroke-width="3" x1="3029.0" x2="3029.0" y1="2373.0" y2="3093.0" /><line stroke="#999" stroke-width="3" x1="2933.0" x2="3029.0" y1="2373.0" y2="2373.0" /><line stroke="#999" stroke-width="3" x1="3029.0" x2="3029.0" y1="5269.0" y2="5989.0" /><line stroke="#999" stroke-width="3" x1="2933.0" x2="2933.0" y1="5269.0" y2="4541.0" /><line stroke="#999" stroke-width="3" x1="2933.0" x2="2933.0" y1="3821.0" y2="3093.0" /><line stroke="#999" stroke-width="3" x1="3029.0" x2="3029.0" y1="6717.0" y2="7437.0" /><line stroke="#999" stroke-width="3" x1="3029.0" x2="3029.0" y1="3821.0" y2="4541.0" /><line stroke="#999" stroke-width="3" x1="2933.0" x2="2933.0" y1="6717.0" y2="5989.0" /><line stroke="#999" stroke-width="3" x1="2933.0" x2="2933.0" y1="3093.0" y2="2373.0" /><line stroke="#999" stroke-width="3" x1="3029.0" x2="3029.0" y1="7437.0" y2="8165.0" /><line stroke="#999" stroke-width="3" x1="2933.0" x2="2933.0" y1="5989.0" y2="5269.0" /><line stroke="#999" stroke-width="3" x1="3029.0" x2="3029.0" y1="4541.0" y2="5269.0" /><line stroke="#999" stroke-width="3" x1="2933.0" x2="2933.0" y1="4541.0" y2="3821.0" /><line stroke="#999" stroke-width="3" x1="3029.0" x2="3029.0" y1="5989.0" y2="6717.0" /><line stroke="#999" stroke-width="3" x1="3029.0" x2="3029.0" y1="3093.0" y2="3821.0" /><line stroke="#999" stroke-width="3" x1="2933.0" x2="2933.0" y1="7437.0" y2="6717.0" /><line stroke="#999" stroke-width="3" x1="37.0" x2="37.0" y1="4341.0" y2="5293.0" /><line stroke="#999" stroke-width="3" x1="37.0" x2="37.0" y1="6253.0" y2="7205.0" /><line stroke="#999" stroke-width="3" x1="37.0" x2="37.0" y1="2429.0" y2="3381.0" /><line stroke="#999" stroke-width="3" x1="37.0" x2="37.0" y1="7205.0" y2="8165.0" /><line stroke="#999" stroke-width="3" x1="37.0" x2="37.0" y1="3381.0" y2="4341.0" /><line stroke="#999" stroke-width="3" x1="37.0" x2="37.0" y1="5293.0" y2="6253.0" /><line stroke="#999" stroke-width="3" x1="37.0" x2="37.0" y1="1469.0" y2="2429.0" /><line stroke="#999" stroke-width="3" x1="5925.0" x2="5925.0" y1="4341.0" y2="3381.0" /><line stroke="#999" stroke-width="3" x1="5925.0" x2="5925.0" y1="2429.0" y2="1469.0" /><line stroke="#999" stroke-width="3" x1="5925.0" x2="5925.0" y1="6253.0" y2="5293.0" /><line stroke="#999" stroke-width="3" x1="5925.0" x2="5925.0" y1="1469.0" y2="517.0" /><line stroke="#999" stroke-width="3" x1="5925.0" x2="5925.0" y1="5293.0" y2="4341.0" /><line stroke="#999" stroke-width="3" x1="5925.0" x2="5925.0" y1="3381.0" y2="2429.0" /><line stroke="#999" stroke-width="3" x1="5925.0" x2="5925.0" y1="7205.0" y2="6253.0" /><line stroke="#333" stroke-width="10" x1="5.0" x2="5.0" y1="4325.0" y2="5293.0" /><line stroke="#333" stroke-width="10" x1="5957.0" x2="5957.0" y1="4325.0" y2="3357.0" /><line stroke="#333" stroke-width="10" x1="5957.0" x2="5957.0" y1="2389.0" y2="1421.0" /><line stroke="#333" stroke-width="10" x1="5.0" x2="5.0" y1="6261.0" y2="7229.0" /><line stroke="#333" stroke-width="10" x1="5.0" x2="5.0" y1="2389.0" y2="3357.0" /><line stroke="#333" stroke-width="10" x1="5957.0" x2="5957.0" y1="6261.0" y2="5293.0" /><line stroke="#333" stroke-width="10" x1="5.0" x2="5.0" y1="7229.0" y2="8197.0" /><line stroke="#333" stroke-width="10" x1="5.0" x2="5.0" y1="3357.0" y2="4325.0" /><line stroke="#333" stroke-width="10" x1="5957.0" x2="5957.0" y1="5293.0" y2="4325.0" /><line stroke="#333" stroke-width="10" x1="5957.0" x2="5957.0" y1="1421.0" y2="453.0" /><line stroke="#333" stroke-width="10" x1="5957.0" x2="5957.0" y1="3357.0" y2="2389.0" /><line stroke="#333" stroke-width="10" x1="5.0" x2="5.0" y1="5293.0" y2="6261.0" /><line stroke="#333" stroke-width="10" x1="5.0" x2="5.0" y1="1421.0" y2="2389.0" /><line stroke="#333" stroke-width="10" x1="5957.0" x2="5957.0" y1="7229.0" y2="6261.0" /><line stroke="#333" stroke-width="10" x1="4509.0" x2="3781.0" y1="1365.0" y2="1821.0" /><line stroke="#999" stroke-width="3" x1="4477.0" x2="3749.0" y1="1413.0" y2="1861.0" /><line stroke="#333" stroke-width="10" x1="1453.0" x2="725.0" y1="1365.0" y2="909.0" /><line stroke="#999" stroke-width="3" x1="1485.0" x2="757.0" y1="1413.0" y2="965.0" /><line stroke="#999" stroke-width="3" x1="757.0" x2="37.0" y1="965.0" y2="517.0" /><line stroke="#333" stroke-width="10" x1="725.0" x2="5.0" y1="909.0" y2="453.0" /><line stroke="#999" stroke-width="3" x1="3749.0" x2="3029.0" y1="1861.0" y2="2309.0" /><line stroke="#333" stroke-width="10" x1="3781.0" x2="3061.0" y1="1821.0" y2="2277.0" /><line stroke="#333" stroke-width="10" x1="5229.0" x2="4509.0" y1="909.0" y2="1365.0" /><line stroke="#999" stroke-width="3" x1="5197.0" x2="4477.0" y1="965.0" y2="1413.0" /><line stroke="#333" stroke-width="10" x1="2173.0" x2="1453.0" y1="1821.0" y2="1365.0" /><line stroke="#999" stroke-width="3" x1="2205.0" x2="1485.0" y1="1861.0" y2="1413.0" /><line stroke="#333" stroke-width="10" x1="2981.0" x2="3725.0" y1="8197.0" y2="8197.0" /><line stroke="#333" stroke-width="10" x1="1493.0" x2="2237.0" y1="8197.0" y2="8197.0" /><line stroke="#333" stroke-width="10" x1="4469.0" x2="5213.0" y1="8197.0" y2="8197.0" /><line stroke="#333" stroke-width="10" x1="5213.0" x2="5957.0" y1="8197.0" y2="8197.0" /><line stroke="#333" stroke-width="10" x1="2237.0" x2="2981.0" y1="8197.0" y2="8197.0" /><line stroke="#333" stroke-width="10" x1="749.0" x2="1493.0" y1="8197.0" y2="8197.0" /><line stroke="#333" stroke-width="10" x1="3725.0" x2="4469.0" y1="8197.0" y2="8197.0" /><ellipse cx="2981.0" cy="69.0" fill="#009" rx="12" ry="24" stroke="#009" stroke-width="5" /><circle cx="2981.0" cy="101.0" fill="#900" r="16" stroke="#900" stroke-width="5" /><circle cx="2981.0" cy="133.0" fill="#900" r="16" stroke="#900" stroke-width="5" /><circle cx="2981.0" cy="165.0" fill="#900" r="16" stroke="#900" stroke-width="5" /><circle cx="2981.0" cy="197.0" fill="#900" r="16" stroke="#900" stroke-width="5" /><circle cx="2981.0" cy="229.0" fill="#900" r="16" stroke="#900" stroke-width="5" /><circle cx="2981.0" cy="261.0" fill="#900" r="16" stroke="#900" stroke-width="5" /><circle cx="2981.0" cy="293.0" fill="#900" r="16" stroke="#900" stroke-width="5" /><rect fill="#009" height="24" stroke="#009" stroke-width="5" transform="rotate(90,2981.0,629.0)" width="24" x="2969.0" y="617.0" /><rect fill="#900" height="48" stroke="#900" stroke-width="5" transform="rotate(90,2981.0,1701.0)" width="32" x="2965.0" y="1677.0" /><ellipse cx="2933.0" cy="85.0" fill="#009" rx="12" ry="24" stroke="#009" stroke-width="5" /><ellipse cx="3029.0" cy="117.0" fill="#009" rx="12" ry="24" stroke="#009" stroke-width="5" /><ellipse cx="2933.0" cy="181.0" fill="#009" rx="12" ry="24" stroke="#009" stroke-width="5" /><rect fill="#090" height="24" stroke="#090" stroke-width="5" transform="rotate(90,3029.0,181.0)" width="24" x="3017.0" y="169.0" /><rect fill="#090" height="24" stroke="#090" stroke-width="5" transform="rotate(45,2341.0,725.0)" width="24" x="2329.0" y="713.0" /><rect fill="#090" height="24" stroke="#090" stroke-width="5" transform="rotate(225,3589.0,1589.0)" width="24" x="3577.0" y="1577.0" /><rect fill="#090" height="24" stroke="#090" stroke-width="5" transform="rotate(315,2485.0,1637.0)" width="24" x="2473.0" y="1625.0" /><rect fill="#090" height="24" stroke="#090" stroke-width="5" transform="rotate(0,2725.0,3045.0)" width="24" x="2713.0" y="3033.0" /><rect fill="#090" height="24" stroke="#090" stroke-width="5" transform="rotate(0,2725.0,3301.0)" width="24" x="2713.0" y="3289.0" /><rect fill="#090" height="24" stroke="#090" stroke-width="5" transform="rotate(0,2725.0,4581.0)" width="24" x="2713.0" y="4569.0" /><rect fill="#090" height="24" stroke="#090" stroke-width="5" transform="rotate(0,2725.0,2789.0)" width="24" x="2713.0" y="2777.0" /><rect fill="#090" height="24" stroke="#090" stroke-width="5" transform="rotate(0,2725.0,2533.0)" width="24" x="2713.0" y="2521.0" /><rect fill="#090" height="24" stroke="#090" stroke-width="5" transform="rotate(0,2725.0,3557.0)" width="24" x="2713.0" y="3545.0" /><rect fill="#090" height="24" stroke="#090" stroke-width="5" transform="rotate(0,2725.0,4069.0)" width="24" x="2713.0" y="4057.0" /><rect fill="#090" height="24" stroke="#090" stroke-width="5" transform="rotate(0,2725.0,3813.0)" width="24" x="2713.0" y="3801.0" /><rect fill="#090" height="24" stroke="#090" stroke-width="5" transform="rotate(0,2725.0,4325.0)" width="24" x="2713.0" y="4313.0" /><rect fill="#090" height="24" stroke="#090" stroke-width="5" transform="rotate(0,3237.0,4581.0)" width="24" x="3225.0" y="4569.0" /><rect fill="#090" height="24" stroke="#090" stroke-width="5" transform="rotate(0,3237.0,4069.0)" width="24" x="3225.0" y="4057.0" /><rect fill="#090" height="24" stroke="#090" stroke-width="5" transform="rotate(0,3237.0,3813.0)" width="24" x="3225.0" y="3801.0" /><rect fill="#090" height="24" stroke="#090" stroke-width="5" transform="rotate(0,3237.0,3301.0)" width="24" x="3225.0" y="3289.0" /><rect fill="#090" height="24" stroke="#090" stroke-width="5" transform="rotate(0,3237.0,3045.0)" width="24" x="3225.0" y="3033.0" /><rect fill="#090" height="24" stroke="#090" stroke-width="5" transform="rotate(0,3237.0,2789.0)" width="24" x="3225.0" y="2777.0" /><rect fill="#090" height="24" stroke="#090" stroke-width="5" transform="rotate(0,3237.0,2533.0)" width="24" x="3225.0" y="2521.0" /><rect fill="#090" height="24" stroke="#090" stroke-width="5" transform="rotate(0,3237.0,3557.0)" width="24" x="3225.0" y="3545.0" /><rect fill="#090" height="24" stroke="#090" stroke-width="5" transform="rotate(0,3237.0,4325.0)" width="24" x="3225.0" y="4313.0" /><rect fill="#090" height="24" stroke="#090" stroke-width="5" transform="rotate(0,3237.0,6629.0)" width="24" x="3225.0" y="6617.0" /><rect fill="#090" height="24" stroke="#090" stroke-width="5" transform="rotate(0,3237.0,5861.0)" width="24" x="3225.0" y="5849.0" /><rect fill="#090" height="24" stroke="#090" stroke-width="5" transform="rotate(0,3237.0,4837.0)" width="24" x="3225.0" y="4825.0" /><rect fill="#090" height="24" stroke="#090" stroke-width="5" transform="rotate(0,3237.0,5093.0)" width="24" x="3225.0" y="5081.0" /><rect fill="#090" height="24" stroke="#090" stroke-width="5" transform="rotate(0,3237.0,5349.0)" width="24" x="3225.0" y="5337.0" /><rect fill="#090" height="24" stroke="#090" stroke-width="5" transform="rotate(0,3237.0,5605.0)" width="24" x="3225.0" y="5593.0" /><rect fill="#090" height="24" stroke="#090" stroke-width="5" transform="rotate(0,3237.0,6117.0)" width="24" x="3225.0" y="6105.0" /><rect fill="#090" height="24" stroke="#090" stroke-width="5" transform="rotate(0,3237.0,6373.0)" width="24" x="3225.0" y="6361.0" /><rect fill="#090" height="24" stroke="#090" stroke-width="5" transform="rotate(0,3237.0,6885.0)" width="24" x="3225.0" y="6873.0" /><rect fill="#090" height="24" stroke="#090" stroke-width="5" transform="rotate(0,2725.0,6629.0)" width="24" x="2713.0" y="6617.0" /><rect fill="#090" height="24" stroke="#090" stroke-width="5" transform="rotate(0,2725.0,6117.0)" width="24" x="2713.0" y="6105.0" /><rect fill="#090" height="24" stroke="#090" stroke-width="5" transform="rotate(0,2725.0,6373.0)" width="24" x="2713.0" y="6361.0" /><rect fill="#090" height="24" stroke="#090" stroke-width="5" transform="rotate(0,2725.0,5861.0)" width="24" x="2713.0" y="5849.0" /><rect fill="#090" height="24" stroke="#090" stroke-width="5" transform="rotate(0,2725.0,4837.0)" width="24" x="2713.0" y="4825.0" /><rect fill="#090" height="24" stroke="#090" stroke-width="5" transform="rotate(0,2725.0,5093.0)" width="24" x="2713.0" y="5081.0" /><rect fill="#090" height="24" stroke="#090" stroke-width="5" transform="rotate(0,2725.0,6885.0)" width="24" x="2713.0" y="6873.0" /><rect fill="#090" height="24" stroke="#090" stroke-width="5" transform="rotate(0,2725.0,5605.0)" width="24" x="2713.0" y="5593.0" /><rect fill="#090" height="24" stroke="#090" stroke-width="5" transform="rotate(0,2725.0,5349.0)" width="24" x="2713.0" y="5337.0" /><rect fill="#090" height="24" stroke="#090" stroke-width="5" transform="rotate(0,3237.0,7141.0)" width="24" x="3225.0" y="7129.0" /><rect fill="#090" height="24" stroke="#090" stroke-width="5" transform="rotate(0,3237.0,7397.0)" width="24" x="3225.0" y="7385.0" /><rect fill="#090" height="24" stroke="#090" stroke-width="5" transform="rotate(0,3237.0,7653.0)" width="24" x="3225.0" y="7641.0" /><rect fill="#090" height="24" stroke="#090" stroke-width="5" transform="rotate(0,3237.0,7909.0)" width="24" x="3225.0" y="7897.0" /><rect fill="#090" height="24" stroke="#090" stroke-width="5" transform="rotate(0,2725.0,7141.0)" width="24" x="2713.0" y="7129.0" /><rect fill="#090" height="24" stroke="#090" stroke-width="5" transform="rotate(0,2725.0,7397.0)" width="24" x="2713.0" y="7385.0" /><rect fill="#090" height="24" stroke="#090" stroke-width="5" transform="rotate(0,2725.0,7909.0)" width="24" x="2713.0" y="7897.0" /><rect fill="#090" height="24" stroke="#090" stroke-width="5" transform="rotate(0,2725.0,7653.0)" width="24" x="2713.0" y="7641.0" /><rect fill="#090" height="24" stroke="#090" stroke-width="5" transform="rotate(45,1445.0,4325.0)" width="24" x="1433.0" y="4313.0" /><rect fill="#090" height="24" stroke="#090" stroke-width="5" transform="rotate(45,1445.0,5861.0)" width="24" x="1433.0" y="5849.0" /><rect fill="#090" height="24" stroke="#090" stroke-width="5" transform="rotate(45,677.0,7653.0)" width="24" x="665.0" y="7641.0" /><rect fill="#090" height="24" stroke="#090" stroke-width="5" transform="rotate(45,677.0,4837.0)" width="24" x="665.0" y="4825.0" /><rect fill="#090" height="24" stroke="#090" stroke-width="5" transform="rotate(45,2213.0,7909.0)" width="24" x="2201.0" y="7897.0" /><rect fill="#090" height="24" stroke="#090" stroke-width="5" transform="rotate(45,5029.0,6629.0)" width="24" x="5017.0" y="6617.0" /><rect fill="#090" height="24" stroke="#090" stroke-width="5" transform="rotate(45,4261.0,4837.0)" width="24" x="4249.0" y="4825.0" /><rect fill="#090" height="24" stroke="#090" stroke-width="5" transform="rotate(45,4005.0,3301.0)" width="24" x="3993.0" y="3289.0" /><rect fill="#090" height="24" stroke="#090" stroke-width="5" transform="rotate(45,5029.0,3045.0)" width="24" x="5017.0" y="3033.0" /><rect fill="#090" height="24" stroke="#090" stroke-width="5" transform="rotate(45,4773.0,5349.0)" width="24" x="4761.0" y="5337.0" /><rect fill="#090" height="24" stroke="#090" stroke-width="5" transform="rotate(45,4005.0,6373.0)" width="24" x="3993.0" y="6361.0" /><rect fill="#090" height="24" stroke="#090" stroke-width="5" transform="rotate(45,5029.0,7397.0)" width="24" x="5017.0" y="7385.0" /><rect fill="#090" height="24" stroke="#090" stroke-width="5" transform="rotate(0,2981.0,325.0)" width="24" x="2969.0" y="313.0" /><rect fill="#090" height="24" stroke="#090" stroke-width="5" transform="rotate(0,2981.0,325.0)" width="24" x="2969.0" y="313.0" /><rect fill="#090" height="24" stroke="#090" stroke-width="5" transform="rotate(0,2981.0,325.0)" width="24" x="2969.0" y="313.0" /><rect fill="#090" height="24" stroke="#090" stroke-width="5" transform="rotate(0,2981.0,325.0)" width="24" x="2969.0" y="313.0" /><rect fill="#090" height="24" stroke="#090" stroke-width="5" transform="rotate(0,2981.0,325.0)" width="24" x="2969.0" y="313.0" /><rect fill="#090" height="24" stroke="#090" stroke-width="5" transform="rotate(0,2981.0,325.0)" width="24" x="2969.0" y="313.0" /><rect fill="#090" height="24" stroke="#090" stroke-width="5" transform="rotate(0,2981.0,325.0)" width="24" x="2969.0" y="313.0" /><rect fill="#090" height="24" stroke="#090" stroke-width="5" transform="rotate(0,2981.0,325.0)" width="24" x="2969.0" y="313.0" /><rect fill="#090" height="24" stroke="#090" stroke-width="5" transform="rotate(0,2981.0,325.0)" width="24" x="2969.0" y="313.0" /><rect fill="#090" height="24" stroke="#090" stroke-width="5" transform="rotate(0,2981.0,325.0)" width="24" x="2969.0" y="313.0" /><rect fill="#090" height="24" stroke="#090" stroke-width="5" transform="rotate(0,2981.0,325.0)" width="24" x="2969.0" y="313.0" /><rect fill="#090" height="24" stroke="#090" stroke-width="5" transform="rotate(0,2981.0,325.0)" width="24" x="2969.0" y="313.0" /><rect fill="#090" height="24" stroke="#090" stroke-width="5" transform="rotate(0,2981.0,325.0)" width="24" x="2969.0" y="313.0" /><rect fill="#090" height="24" stroke="#090" stroke-width="5" transform="rotate(0,2981.0,325.0)" width="24" x="2969.0" y="313.0" /><rect fill="#090" height="24" stroke="#090" stroke-width="5" transform="rotate(0,2981.0,325.0)" width="24" x="2969.0" y="313.0" /><rect fill="#090" height="24" stroke="#090" stroke-width="5" transform="rotate(0,2981.0,325.0)" width="24" x="2969.0" y="313.0" /><rect fill="#090" height="24" stroke="#090" stroke-width="5" transform="rotate(0,2981.0,325.0)" width="24" x="2969.0" y="313.0" /><rect fill="#090" height="24" stroke="#090" stroke-width="5" transform="rotate(0,2981.0,325.0)" width="24" x="2969.0" y="313.0" /><rect fill="#090" height="24" stroke="#090" stroke-width="5" transform="rotate(0,2981.0,325.0)" width="24" x="2969.0" y="313.0" /><rect fill="#090" height="24" stroke="#090" stroke-width="5" transform="rotate(0,2981.0,325.0)" width="24" x="2969.0" y="313.0" /><rect fill="#090" height="24" stroke="#090" stroke-width="5" transform="rotate(0,2981.0,325.0)" width="24" x="2969.0" y="313.0" /><rect fill="#090" height="24" stroke="#090" stroke-width="5" transform="rotate(0,2981.0,325.0)" width="24" x="2969.0" y="313.0" /><rect fill="#090" height="24" stroke="#090" stroke-width="5" transform="rotate(0,2981.0,325.0)" width="24" x="2969.0" y="313.0" /><rect fill="#090" height="24" stroke="#090" stroke-width="5" transform="rotate(0,2981.0,325.0)" width="24" x="2969.0" y="313.0" /><rect fill="#090" height="24" stroke="#090" stroke-width="5" transform="rotate(0,2981.0,325.0)" width="24" x="2969.0" y="313.0" /><rect fill="#090" height="24" stroke="#090" stroke-width="5" transform="rotate(0,2981.0,325.0)" width="24" x="2969.0" y="313.0" /><rect fill="#090" height="24" stroke="#090" stroke-width="5" transform="rotate(0,2981.0,325.0)" width="24" x="2969.0" y="313.0" /><rect fill="#090" height="24" stroke="#090" stroke-width="5" transform="rotate(0,2981.0,325.0)" width="24" x="2969.0" y="313.0" /><rect fill="#090" height="24" stroke="#090" stroke-width="5" transform="rotate(0,2981.0,325.0)" width="24" x="2969.0" y="313.0" /><rect fill="#090" height="24" stroke="#090" stroke-width="5" transform="rotate(0,2981.0,325.0)" width="24" x="2969.0" y="313.0" /><circle cx="2981.0" cy="325.0" fill="#090" r="16" stroke="#090" stroke-width="5" /><circle cx="2981.0" cy="325.0" fill="#090" r="16" stroke="#090" stroke-width="5" /><circle cx="2981.0" cy="325.0" fill="#090" r="16" stroke="#090" stroke-width="5" /><circle cx="2981.0" cy="325.0" fill="#090" r="16" stroke="#090" stroke-width="5" /><circle cx="2981.0" cy="325.0" fill="#090" r="16" stroke="#090" stroke-width="5" /><circle cx="2981.0" cy="325.0" fill="#090" r="16" stroke="#090" stroke-width="5" /><circle cx="2981.0" cy="325.0" fill="#090" r="16" stroke="#090" stroke-width="5" /><circle cx="2981.0" cy="325.0" fill="#090" r="16" stroke="#090" stroke-width="5" /><rect fill="#090" height="24" stroke="#090" stroke-width="5" transform="rotate(0,2981.0,325.0)" width="24" x="2969.0" y="313.0" /><rect fill="#090" height="24" stroke="#090" stroke-width="5" transform="rotate(0,2981.0,325.0)" width="24" x="2969.0" y="313.0" /><rect fill="#090" height="24" stroke="#090" stroke-width="5" transform="rotate(0,2981.0,325.0)" width="24" x="2969.0" y="313.0" /><rect fill="#090" height="24" stroke="#090" stroke-width="5" transform="rotate(0,2981.0,325.0)" width="24" x="2969.0" y="313.0" /><rect fill="#090" height="24" stroke="#090" stroke-width="5" transform="rotate(0,2981.0,325.0)" width="24" x="2969.0" y="313.0" /><rect fill="#090" height="24" stroke="#090" stroke-width="5" transform="rotate(0,2981.0,325.0)" width="24" x="2969.0" y="313.0" /><rect fill="#090" height="24" stroke="#090" stroke-width="5" transform="rotate(0,2981.0,325.0)" width="24" x="2969.0" y="313.0" /><rect fill="#090" height="24" stroke="#090" stroke-width="5" transform="rotate(0,2981.0,325.0)" width="24" x="2969.0" y="313.0" /><rect fill="#090" height="24" stroke="#090" stroke-width="5" transform="rotate(0,2981.0,325.0)" width="24" x="2969.0" y="313.0" /><rect fill="#090" height="24" stroke="#090" stroke-width="5" transform="rotate(0,2981.0,325.0)" width="24" x="2969.0" y="313.0" /><rect fill="#090" height="24" stroke="#090" stroke-width="5" transform="rotate(0,2981.0,325.0)" width="24" x="2969.0" y="313.0" /><rect fill="#090" height="24" stroke="#090" stroke-width="5" transform="rotate(0,2981.0,325.0)" width="24" x="2969.0" y="313.0" /><rect fill="#090" height="24" stroke="#090" stroke-width="5" transform="rotate(0,2981.0,325.0)" width="24" x="2969.0" y="313.0" /><rect fill="#090" height="24" stroke="#090" stroke-width="5" transform="rotate(0,2981.0,325.0)" width="24" x="2969.0" y="313.0" /><rect fill="#090" height="24" stroke="#090" stroke-width="5" transform="rotate(0,2981.0,325.0)" width="24" x="2969.0" y="313.0" /><rect fill="#090" height="24" stroke="#090" stroke-width="5" transform="rotate(0,2981.0,325.0)" width="24" x="2969.0" y="313.0" /><rect fill="#090" height="24" stroke="#090" stroke-width="5" transform="rotate(0,2981.0,325.0)" width="24" x="2969.0" y="313.0" /></svg>