<?xml version="1.0" encoding="utf-8" ?>
<svg baseProfile="tiny" height="707" version="1.2" viewBox="0 0 4346 3002" width="1024" xmlns="http://www.w3.org/2000/svg" xmlns:ev="http://www.w3.org/2001/xml-events" xmlns:xlink="http://www.w3.org/1999/xlink"><defs /><line stroke="#333" stroke-width="10" x1="37.0" x2="2917.0" y1="2997.0" y2="2997.0" /><line stroke="#333" stroke-width="10" x1="2917.0" x2="2917.0" y1="2997.0" y2="2485.0" /><line stroke="#333" stroke-width="10" x1="2917.0" x2="1237.0" y1="661.0" y2="645.0" /><line stroke="#333" stroke-width="10" x1="37.0" x2="37.0" y1="661.0" y2="2997.0" /><line stroke="#333" stroke-width="10" x1="5.0" x2="501.0" y1="437.0" y2="437.0" /><line stroke="#333" stroke-width="10" x1="2021.0" x2="2021.0" y1="437.0" y2="5.0" /><line stroke="#333" stroke-width="10" x1="2021.0" x2="5.0" y1="5.0" y2="5.0" /><line stroke="#333" stroke-width="10" x1="5.0" x2="5.0" y1="5.0" y2="437.0" /><line stroke="#333" stroke-width="10" x1="2917.0" x2="4101.0" y1="2997.0" y2="2997.0" /><line stroke="#333" stroke-width="10" x1="1237.0" x2="1237.0" y1="645.0" y2="437.0" /><line stroke="#333" stroke-width="10" x1="4101.0" x2="4101.0" y1="2997.0" y2="2501.0" /><line stroke="#333" stroke-width="10" x1="501.0" x2="501.0" y1="437.0" y2="645.0" /><line stroke="#666" stroke-width="20" x1="1237.0" x2="501.0" y1="645.0" y2="645.0" /><line stroke="#333" stroke-width="10" x1="501.0" x2="37.0" y1="645.0" y2="661.0" /><line stroke="#666" stroke-width="20" x1="501.0" x2="1237.0" y1="437.0" y2="437.0" /><line stroke="#333" stroke-width="10" x1="1237.0" x2="2021.0" y1="437.0" y2="437.0" /><line stroke="#333" stroke-width="10" x1="4101.0" x2="2917.0" y1="2501.0" y2="2501.0" /><line stroke="#333" stroke-width="10" x1="2917.0" x2="2917.0" y1="2501.0" y2="2997.0" /><line stroke="#333" stroke-width="10" x1="2917.0" x2="2917.0" y1="2485.0" y2="2261.0" /><line stroke="#333" stroke-width="10" x1="3125.0" x2="4341.0" y1="2341.0" y2="2341.0" /><line stroke="#333" stroke-width="10" x1="4341.0" x2="4341.0" y1="2341.0" y2="277.0" /><line stroke="#333" stroke-width="10" x1="4341.0" x2="3125.0" y1="277.0" y2="277.0" /><line stroke="#333" stroke-width="10" x1="3125.0" x2="3125.0" y1="277.0" y2="1861.0" /><line stroke="#333" stroke-width="10" x1="2917.0" x2="3125.0" y1="2261.0" y2="2261.0" /><line stroke="#333" stroke-width="10" x1="3125.0" x2="2917.0" y1="1861.0" y2="1861.0" /><line stroke="#666" stroke-width="20" x1="2917.0" x2="2917.0" y1="2261.0" y2="1861.0" /><line stroke="#333" stroke-width="10" x1="2917.0" x2="2917.0" y1="1861.0" y2="661.0" /><line stroke="#333" stroke-width="10" x1="3125.0" x2="3125.0" y1="2261.0" y2="2341.0" /><line stroke="#666" stroke-width="20" x1="3125.0" x2="3125.0" y1="1861.0" y2="2261.0" /><line stroke="#333" stroke-width="10" x1="2021.0" x2="2021.0" y1="85.0" y2="373.0" /><ellipse cx="237.0" cy="2879.0" fill="#009" rx="12" ry="24" stroke="#009" stroke-width="5" /><ellipse cx="367.0" cy="2889.0" fill="#009" rx="12" ry="24" stroke="#009" stroke-width="5" /><ellipse cx="477.0" cy="2879.0" fill="#009" rx="12" ry="24" stroke="#009" stroke-width="5" /><ellipse cx="607.0" cy="2889.0" fill="#009" rx="12" ry="24" stroke="#009" stroke-width="5" /><rect fill="#090" height="24" stroke="#090" stroke-width="5" transform="rotate(0,1367.0,2409.0)" width="24" x="1355.0" y="2397.0" /><rect fill="#090" height="24" stroke="#090" stroke-width="5" transform="rotate(0,1957.0,1899.0)" width="24" x="1945.0" y="1887.0" /><rect fill="#090" height="24" stroke="#090" stroke-width="5" transform="rotate(0,2347.0,2189.0)" width="24" x="2335.0" y="2177.0" /><rect fill="#090" height="24" stroke="#090" stroke-width="5" transform="rotate(0,2807.0,1649.0)" width="24" x="2795.0" y="1637.0" /><rect fill="#900" height="48" stroke="#900" stroke-width="5" transform="rotate(0,1677.0,2759.0)" width="32" x="1661.0" y="2735.0" /><rect fill="#900" height="48" stroke="#900" stroke-width="5" transform="rotate(0,1957.0,919.0)" width="32" x="1941.0" y="895.0" /><rect fill="#900" height="48" stroke="#900" stroke-width="5" transform="rotate(0,1507.0,1109.0)" width="32" x="1491.0" y="1085.0" /><rect fill="#900" height="48" stroke="#900" stroke-width="5" transform="rotate(0,857.0,1419.0)" width="32" x="841.0" y="1395.0" /><rect fill="#900" height="48" stroke="#900" stroke-width="5" transform="rotate(0,757.0,2529.0)" width="32" x="741.0" y="2505.0" /><rect fill="#900" height="48" stroke="#900" stroke-width="5" transform="rotate(0,667.0,2419.0)" width="32" x="651.0" y="2395.0" /><rect fill="#900" height="48" stroke="#900" stroke-width="5" transform="rotate(0,667.0,2269.0)" width="32" x="651.0" y="2245.0" /><rect fill="#900" height="48" stroke="#900" stroke-width="5" transform="rotate(0,827.0,2239.0)" width="32" x="811.0" y="2215.0" /><rect fill="#900" height="48" stroke="#900" stroke-width="5" transform="rotate(0,827.0,2329.0)" width="32" x="811.0" y="2305.0" /><rect fill="#900" height="48" stroke="#900" stroke-width="5" transform="rotate(0,887.0,2409.0)" width="32" x="871.0" y="2385.0" /><rect fill="#900" height="48" stroke="#900" stroke-width="5" transform="rotate(0,867.0,2489.0)" width="32" x="851.0" y="2465.0" /><rect fill="#900" height="48" stroke="#900" stroke-width="5" transform="rotate(0,2317.0,1279.0)" width="32" x="2301.0" y="1255.0" /><rect fill="#900" height="48" stroke="#900" stroke-width="5" transform="rotate(0,1917.0,1439.0)" width="32" x="1901.0" y="1415.0" /><rect fill="#900" height="48" stroke="#900" stroke-width="5" transform="rotate(0,1537.0,1619.0)" width="32" x="1521.0" y="1595.0" /><circle cx="237.0" cy="2749.0" fill="#900" r="16" stroke="#900" stroke-width="5" /><circle cx="367.0" cy="2749.0" fill="#900" r="16" stroke="#900" stroke-width="5" /><circle cx="197.0" cy="2599.0" fill="#900" r="16" stroke="#900" stroke-width="5" /><circle cx="227.0" cy="2439.0" fill="#900" r="16" stroke="#900" stroke-width="5" /><circle cx="247.0" cy="2309.0" fill="#900" r="16" stroke="#900" stroke-width="5" /><circle cx="227.0" cy="2149.0" fill="#900" r="16" stroke="#900" stroke-width="5" /><circle cx="257.0" cy="1989.0" fill="#900" r="16" stroke="#900" stroke-width="5" /><rect fill="#090" height="24" stroke="#090" stroke-width="5" transform="rotate(0,307.0,2619.0)" width="24" x="295.0" y="2607.0" /><circle cx="327.0" cy="2469.0" fill="#090" r="16" stroke="#090" stroke-width="5" /><circle cx="387.0" cy="2359.0" fill="#090" r="16" stroke="#090" stroke-width="5" /><circle cx="377.0" cy="2309.0" fill="#090" r="16" stroke="#090" stroke-width="5" /><circle cx="377.0" cy="2259.0" fill="#090" r="16" stroke="#090" stroke-width="5" /><circle cx="377.0" cy="2219.0" fill="#090" r="16" stroke="#090" stroke-width="5" /><circle cx="3127.0" cy="2799.0" fill="#009" r="16" stroke="#009" stroke-width="5" /><circle cx="507.0" cy="2639.0" fill="#009" r="16" stroke="#009" stroke-width="5" /><circle cx="3177.0" cy="2809.0" fill="#009" r="16" stroke="#009" stroke-width="5" /><rect fill="#090" height="24" stroke="#090" stroke-width="5" transform="rotate(0,447.0,219.0)" width="24" x="435.0" y="207.0" /><rect fill="#900" height="48" stroke="#900" stroke-width="5" transform="rotate(0,617.0,249.0)" width="32" x="601.0" y="225.0" /><rect fill="#900" height="48" stroke="#900" stroke-width="5" transform="rotate(0,457.0,159.0)" width="32" x="441.0" y="135.0" /><rect fill="#900" height="48" stroke="#900" stroke-width="5" transform="rotate(0,667.0,149.0)" width="32" x="651.0" y="125.0" /><rect fill="#900" height="48" stroke="#900" stroke-width="5" transform="rotate(0,1067.0,299.0)" width="32" x="1051.0" y="275.0" /><ellipse cx="3887.0" cy="1879.0" fill="#900" rx="12" ry="24" stroke="#900" stroke-width="5" /><ellipse cx="3777.0" cy="2019.0" fill="#900" rx="12" ry="24" stroke="#900" stroke-width="5" /><ellipse cx="3597.0" cy="2049.0" fill="#900" rx="12" ry="24" stroke="#900" stroke-width="5" /><ellipse cx="3657.0" cy="2089.0" fill="#900" rx="12" ry="24" stroke="#900" stroke-width="5" /><ellipse cx="3757.0" cy="2109.0" fill="#900" rx="12" ry="24" stroke="#900" stroke-width="5" /><ellipse cx="3817.0" cy="2089.0" fill="#900" rx="12" ry="24" stroke="#900" stroke-width="5" /><ellipse cx="3967.0" cy="1909.0" fill="#900" rx="12" ry="24" stroke="#900" stroke-width="5" /><ellipse cx="3967.0" cy="1869.0" fill="#900" rx="12" ry="24" stroke="#900" stroke-width="5" /><ellipse cx="3887.0" cy="1789.0" fill="#900" rx="12" ry="24" stroke="#900" stroke-width="5" /><ellipse cx="3797.0" cy="1829.0" fill="#900" rx="12" ry="24" stroke="#900" stroke-width="5" /><ellipse cx="3787.0" cy="1909.0" fill="#900" rx="12" ry="24" stroke="#900" stroke-width="5" /><ellipse cx="3837.0" cy="1969.0" fill="#900" rx="12" ry="24" stroke="#900" stroke-width="5" /><ellipse cx="3897.0" cy="1999.0" fill="#900" rx="12" ry="24" stroke="#900" stroke-width="5" /><ellipse cx="3957.0" cy="2019.0" fill="#900" rx="12" ry="24" stroke="#900" stroke-width="5" /><ellipse cx="4047.0" cy="2019.0" fill="#900" rx="12" ry="24" stroke="#900" stroke-width="5" /><ellipse cx="4097.0" cy="1969.0" fill="#900" rx="12" ry="24" stroke="#900" stroke-width="5" /><ellipse cx="4147.0" cy="1809.0" fill="#900" rx="12" ry="24" stroke="#900" stroke-width="5" /><ellipse cx="4097.0" cy="1809.0" fill="#900" rx="12" ry="24" stroke="#900" stroke-width="5" /><ellipse cx="4037.0" cy="1809.0" fill="#900" rx="12" ry="24" stroke="#900" stroke-width="5" /><ellipse cx="3997.0" cy="1779.0" fill="#900" rx="12" ry="24" stroke="#900" stroke-width="5" /><ellipse cx="3967.0" cy="1729.0" fill="#900" rx="12" ry="24" stroke="#900" stroke-width="5" /><ellipse cx="3927.0" cy="1689.0" fill="#900" rx="12" ry="24" stroke="#900" stroke-width="5" /><ellipse cx="4047.0" cy="1879.0" fill="#900" rx="12" ry="24" stroke="#900" stroke-width="5" /><ellipse cx="3997.0" cy="1949.0" fill="#900" rx="12" ry="24" stroke="#900" stroke-width="5" /><rect fill="#090" height="24" stroke="#090" stroke-width="5" transform="rotate(0,3527.0,2109.0)" width="24" x="3515.0" y="2097.0" /><rect fill="#090" height="24" stroke="#090" stroke-width="5" transform="rotate(0,3517.0,2039.0)" width="24" x="3505.0" y="2027.0" /><rect fill="#090" height="24" stroke="#090" stroke-width="5" transform="rotate(0,4077.0,1699.0)" width="24" x="4065.0" y="1687.0" /><rect fill="#090" height="24" stroke="#090" stroke-width="5" transform="rotate(0,4257.0,1679.0)" width="24" x="4245.0" y="1667.0" /><ellipse cx="2437.0" cy="2709.0" fill="#009" rx="12" ry="24" stroke="#009" stroke-width="5" /><ellipse cx="1381.0" cy="1957.0" fill="#009" rx="12" ry="24" stroke="#009" stroke-width="5" /><ellipse cx="1013.0" cy="949.0" fill="#009" rx="12" ry="24" stroke="#009" stroke-width="5" /><rect fill="#090" height="24" stroke="#090" stroke-width="5" transform="rotate(0,3765.0,677.0)" width="24" x="3753.0" y="665.0" /><rect fill="#090" height="24" stroke="#090" stroke-width="5" transform="rotate(0,1877.0,213.0)" width="24" x="1865.0" y="201.0" /><rect fill="#090" height="24" stroke="#090" stroke-width="5" transform="rotate(0,197.0,1205.0)" width="24" x="185.0" y="1193.0" /><rect fill="#090" height="24" stroke="#090" stroke-width="5" transform="rotate(0,1141.0,2869.0)" width="24" x="1129.0" y="2857.0" /></svg>