<?xml version="1.0" encoding="utf-8" ?>
<svg baseProfile="tiny" height="445" version="1.2" viewBox="0 0 4874 2122" width="1024" xmlns="http://www.w3.org/2000/svg" xmlns:ev="http://www.w3.org/2001/xml-events" xmlns:xlink="http://www.w3.org/1999/xlink"><defs /><line stroke="#333" stroke-width="10" x1="5.0" x2="2117.0" y1="2117.0" y2="2117.0" /><line stroke="#999" stroke-width="3" x1="2117.0" x2="2117.0" y1="2117.0" y2="5.0" /><line stroke="#333" stroke-width="10" x1="2117.0" x2="5.0" y1="5.0" y2="5.0" /><line stroke="#333" stroke-width="10" x1="5.0" x2="5.0" y1="5.0" y2="2117.0" /><line stroke="#333" stroke-width="10" x1="2117.0" x2="4165.0" y1="2117.0" y2="2117.0" /><line stroke="#333" stroke-width="10" x1="4165.0" x2="4165.0" y1="2117.0" y2="1157.0" /><line stroke="#333" stroke-width="10" x1="4165.0" x2="2117.0" y1="5.0" y2="5.0" /><line stroke="#999" stroke-width="3" x1="773.0" x2="709.0" y1="1861.0" y2="1925.0" /><line stroke="#999" stroke-width="3" x1="709.0" x2="773.0" y1="1733.0" y2="1797.0" /><line stroke="#999" stroke-width="3" x1="581.0" x2="645.0" y1="1797.0" y2="1733.0" /><line stroke="#999" stroke-width="3" x1="645.0" x2="581.0" y1="1925.0" y2="1861.0" /><line stroke="#999" stroke-width="3" x1="709.0" x2="645.0" y1="389.0" y2="389.0" /><line stroke="#999" stroke-width="3" x1="773.0" x2="773.0" y1="261.0" y2="325.0" /><line stroke="#999" stroke-width="3" x1="645.0" x2="709.0" y1="197.0" y2="197.0" /><line stroke="#999" stroke-width="3" x1="581.0" x2="581.0" y1="325.0" y2="261.0" /><line stroke="#999" stroke-width="3" x1="709.0" x2="773.0" y1="197.0" y2="261.0" /><line stroke="#999" stroke-width="3" x1="645.0" x2="581.0" y1="389.0" y2="325.0" /><line stroke="#999" stroke-width="3" x1="773.0" x2="709.0" y1="325.0" y2="389.0" /><line stroke="#999" stroke-width="3" x1="581.0" x2="645.0" y1="261.0" y2="197.0" /><line stroke="#999" stroke-width="3" x1="645.0" x2="709.0" y1="1733.0" y2="1733.0" /><line stroke="#999" stroke-width="3" x1="709.0" x2="645.0" y1="1925.0" y2="1925.0" /><line stroke="#999" stroke-width="3" x1="773.0" x2="773.0" y1="1797.0" y2="1861.0" /><line stroke="#999" stroke-width="3" x1="581.0" x2="581.0" y1="1861.0" y2="1797.0" /><line stroke="#999" stroke-width="3" x1="3525.0" x2="3397.0" y1="1861.0" y2="1989.0" /><line stroke="#999" stroke-width="3" x1="3397.0" x2="3525.0" y1="1605.0" y2="1733.0" /><line stroke="#999" stroke-width="3" x1="3141.0" x2="3269.0" y1="1733.0" y2="1605.0" /><line stroke="#999" stroke-width="3" x1="3269.0" x2="3141.0" y1="1989.0" y2="1861.0" /><line stroke="#999" stroke-width="3" x1="3397.0" x2="3269.0" y1="517.0" y2="517.0" /><line stroke="#999" stroke-width="3" x1="3525.0" x2="3525.0" y1="261.0" y2="389.0" /><line stroke="#999" stroke-width="3" x1="3269.0" x2="3397.0" y1="133.0" y2="133.0" /><line stroke="#999" stroke-width="3" x1="3141.0" x2="3141.0" y1="389.0" y2="261.0" /><line stroke="#999" stroke-width="3" x1="3397.0" x2="3525.0" y1="133.0" y2="261.0" /><line stroke="#999" stroke-width="3" x1="3269.0" x2="3141.0" y1="517.0" y2="389.0" /><line stroke="#999" stroke-width="3" x1="3141.0" x2="3269.0" y1="261.0" y2="133.0" /><line stroke="#999" stroke-width="3" x1="3525.0" x2="3397.0" y1="389.0" y2="517.0" /><line stroke="#999" stroke-width="3" x1="3269.0" x2="3397.0" y1="1605.0" y2="1605.0" /><line stroke="#999" stroke-width="3" x1="3141.0" x2="3141.0" y1="1861.0" y2="1733.0" /><line stroke="#999" stroke-width="3" x1="3397.0" x2="3269.0" y1="1989.0" y2="1989.0" /><line stroke="#999" stroke-width="3" x1="3525.0" x2="3269.0" y1="1733.0" y2="1733.0" /><line stroke="#999" stroke-width="3" x1="3269.0" x2="3269.0" y1="1733.0" y2="1861.0" /><line stroke="#999" stroke-width="3" x1="3269.0" x2="3525.0" y1="1861.0" y2="1861.0" /><line stroke="#00d" stroke-width="20" x1="3365.0" x2="3301.0" y1="1829.0" y2="1829.0" /><line stroke="#00d" stroke-width="20" x1="3365.0" x2="3365.0" y1="1765.0" y2="1829.0" /><line stroke="#00d" stroke-width="20" x1="3301.0" x2="3365.0" y1="1765.0" y2="1765.0" /><line stroke="#00d" stroke-width="20" x1="3301.0" x2="3301.0" y1="1829.0" y2="1765.0" /><line stroke="#999" stroke-width="3" x1="1861.0" x2="1669.0" y1="1349.0" y2="1349.0" /><line stroke="#999" stroke-width="3" x1="1861.0" x2="1861.0" y1="837.0" y2="1029.0" /><line stroke="#999" stroke-width="3" x1="1349.0" x2="1541.0" y1="837.0" y2="837.0" /><line stroke="#999" stroke-width="3" x1="1349.0" x2="1349.0" y1="1349.0" y2="1093.0" /><line stroke="#999" stroke-width="3" x1="1861.0" x2="1861.0" y1="1029.0" y2="1157.0" /><line stroke="#999" stroke-width="3" x1="1861.0" x2="1861.0" y1="1157.0" y2="1349.0" /><line stroke="#999" stroke-width="3" x1="1669.0" x2="1605.0" y1="1349.0" y2="1349.0" /><line stroke="#999" stroke-width="3" x1="1605.0" x2="1349.0" y1="1349.0" y2="1349.0" /><line stroke="#999" stroke-width="3" x1="1349.0" x2="1349.0" y1="1093.0" y2="1029.0" /><line stroke="#999" stroke-width="3" x1="1349.0" x2="1349.0" y1="1029.0" y2="837.0" /><line stroke="#999" stroke-width="3" x1="1541.0" x2="1669.0" y1="837.0" y2="837.0" /><line stroke="#999" stroke-width="3" x1="1669.0" x2="1861.0" y1="837.0" y2="837.0" /><line stroke="#00d" stroke-width="20" x1="1829.0" x2="1765.0" y1="1317.0" y2="1317.0" /><line stroke="#00d" stroke-width="20" x1="1829.0" x2="1829.0" y1="1253.0" y2="1317.0" /><line stroke="#00d" stroke-width="20" x1="1765.0" x2="1829.0" y1="1253.0" y2="1253.0" /><line stroke="#00d" stroke-width="20" x1="1765.0" x2="1765.0" y1="1317.0" y2="1253.0" /><line stroke="#d00" stroke-width="20" x1="4165.0" x2="4165.0" y1="1157.0" y2="965.0" /><line stroke="#333" stroke-width="10" x1="4165.0" x2="4165.0" y1="965.0" y2="5.0" /><line stroke="#333" stroke-width="10" x1="4165.0" x2="4293.0" y1="1157.0" y2="1157.0" /><line stroke="#d00" stroke-width="20" x1="4293.0" x2="4293.0" y1="965.0" y2="1157.0" /><line stroke="#333" stroke-width="10" x1="4293.0" x2="4165.0" y1="965.0" y2="965.0" /><line stroke="#333" stroke-width="10" x1="4293.0" x2="4869.0" y1="1157.0" y2="1157.0" /><line stroke="#0d0" stroke-width="20" x1="4869.0" x2="4869.0" y1="1157.0" y2="965.0" /><line stroke="#333" stroke-width="10" x1="4869.0" x2="4293.0" y1="965.0" y2="965.0" /><ellipse cx="197.0" cy="1093.0" fill="#009" rx="12" ry="24" stroke="#009" stroke-width="5" /><rect fill="#009" height="24" stroke="#009" stroke-width="5" transform="rotate(0,1607.0,1087.0)" width="24" x="1595.0" y="1075.0" /><rect fill="#009" height="24" stroke="#009" stroke-width="5" transform="rotate(0,199.0,994.0)" width="24" x="187.0" y="982.0" /><ellipse cx="3523.0" cy="150.0" fill="#090" rx="12" ry="24" stroke="#090" stroke-width="5" /><rect fill="#900" height="48" stroke="#900" stroke-width="5" transform="rotate(180,3397.0,1029.0)" width="32" x="3381.0" y="1005.0" /><circle cx="330.0" cy="1145.0" fill="#900" r="16" stroke="#900" stroke-width="5" /><circle cx="324.0" cy="961.0" fill="#900" r="16" stroke="#900" stroke-width="5" /><circle cx="396.0" cy="1050.0" fill="#900" r="16" stroke="#900" stroke-width="5" /><rect fill="#090" height="24" stroke="#090" stroke-width="5" transform="rotate(0,496.0,1050.0)" width="24" x="484.0" y="1038.0" /><circle cx="485.0" cy="1139.0" fill="#090" r="16" stroke="#090" stroke-width="5" /><circle cx="455.0" cy="1228.0" fill="#090" r="16" stroke="#090" stroke-width="5" /><circle cx="407.0" cy="1270.0" fill="#090" r="16" stroke="#090" stroke-width="5" /><circle cx="330.0" cy="1293.0" fill="#090" r="16" stroke="#090" stroke-width="5" /><circle cx="241.0" cy="1311.0" fill="#090" r="16" stroke="#090" stroke-width="5" /><circle cx="182.0" cy="1293.0" fill="#090" r="16" stroke="#090" stroke-width="5" /><circle cx="105.0" cy="1270.0" fill="#090" r="16" stroke="#090" stroke-width="5" /><circle cx="93.0" cy="1198.0" fill="#090" r="16" stroke="#090" stroke-width="5" /><circle cx="93.0" cy="1062.0" fill="#090" r="16" stroke="#090" stroke-width="5" /><circle cx="87.0" cy="914.0" fill="#090" r="16" stroke="#090" stroke-width="5" /><circle cx="105.0" cy="860.0" fill="#090" r="16" stroke="#090" stroke-width="5" /><circle cx="164.0" cy="830.0" fill="#090" r="16" stroke="#090" stroke-width="5" /><circle cx="247.0" cy="825.0" fill="#090" r="16" stroke="#090" stroke-width="5" /><circle cx="342.0" cy="848.0" fill="#090" r="16" stroke="#090" stroke-width="5" /><circle cx="413.0" cy="902.0" fill="#090" r="16" stroke="#090" stroke-width="5" /><circle cx="491.0" cy="967.0" fill="#090" r="16" stroke="#090" stroke-width="5" /><circle cx="580.0" cy="1044.0" fill="#090" r="16" stroke="#090" stroke-width="5" /><circle cx="562.0" cy="1139.0" fill="#090" r="16" stroke="#090" stroke-width="5" /><circle cx="544.0" cy="1258.0" fill="#090" r="16" stroke="#090" stroke-width="5" /><circle cx="425.0" cy="1406.0" fill="#090" r="16" stroke="#090" stroke-width="5" /><circle cx="253.0" cy="1418.0" fill="#090" r="16" stroke="#090" stroke-width="5" /><circle cx="580.0" cy="854.0" fill="#090" r="16" stroke="#090" stroke-width="5" /><circle cx="419.0" cy="724.0" fill="#090" r="16" stroke="#090" stroke-width="5" /><circle cx="259.0" cy="706.0" fill="#090" r="16" stroke="#090" stroke-width="5" /><circle cx="467.0" cy="273.0" fill="#090" r="16" stroke="#090" stroke-width="5" /><circle cx="396.0" cy="261.0" fill="#090" r="16" stroke="#090" stroke-width="5" /><circle cx="378.0" cy="189.0" fill="#090" r="16" stroke="#090" stroke-width="5" /><circle cx="390.0" cy="124.0" fill="#090" r="16" stroke="#090" stroke-width="5" /><circle cx="449.0" cy="77.0" fill="#090" r="16" stroke="#090" stroke-width="5" /><circle cx="526.0" cy="71.0" fill="#090" r="16" stroke="#090" stroke-width="5" /><circle cx="615.0" cy="77.0" fill="#090" r="16" stroke="#090" stroke-width="5" /><circle cx="692.0" cy="77.0" fill="#090" r="16" stroke="#090" stroke-width="5" /><circle cx="775.0" cy="77.0" fill="#090" r="16" stroke="#090" stroke-width="5" /><circle cx="841.0" cy="77.0" fill="#090" r="16" stroke="#090" stroke-width="5" /><circle cx="912.0" cy="71.0" fill="#090" r="16" stroke="#090" stroke-width="5" /><circle cx="977.0" cy="71.0" fill="#090" r="16" stroke="#090" stroke-width="5" /><circle cx="1048.0" cy="71.0" fill="#090" r="16" stroke="#090" stroke-width="5" /><circle cx="1108.0" cy="71.0" fill="#090" r="16" stroke="#090" stroke-width="5" /><circle cx="1185.0" cy="71.0" fill="#090" r="16" stroke="#090" stroke-width="5" /><circle cx="526.0" cy="1857.0" fill="#090" r="16" stroke="#090" stroke-width="5" /><circle cx="449.0" cy="1892.0" fill="#090" r="16" stroke="#090" stroke-width="5" /><circle cx="467.0" cy="1975.0" fill="#090" r="16" stroke="#090" stroke-width="5" /><circle cx="550.0" cy="2017.0" fill="#090" r="16" stroke="#090" stroke-width="5" /><circle cx="669.0" cy="2011.0" fill="#090" r="16" stroke="#090" stroke-width="5" /><circle cx="876.0" cy="1999.0" fill="#090" r="16" stroke="#090" stroke-width="5" /><circle cx="787.0" cy="2005.0" fill="#090" r="16" stroke="#090" stroke-width="5" /><circle cx="983.0" cy="2011.0" fill="#090" r="16" stroke="#090" stroke-width="5" /><circle cx="1072.0" cy="2005.0" fill="#090" r="16" stroke="#090" stroke-width="5" /><circle cx="1161.0" cy="1999.0" fill="#090" r="16" stroke="#090" stroke-width="5" /><circle cx="1215.0" cy="1993.0" fill="#090" r="16" stroke="#090" stroke-width="5" /><circle cx="698.0" cy="1062.0" fill="#009" r="16" stroke="#009" stroke-width="5" /><circle cx="1422.0" cy="1276.0" fill="#009" r="16" stroke="#009" stroke-width="5" /><circle cx="1416.0" cy="908.0" fill="#009" r="16" stroke="#009" stroke-width="5" /><circle cx="1790.0" cy="908.0" fill="#009" r="16" stroke="#009" stroke-width="5" /><circle cx="1790.0" cy="1169.0" fill="#009" r="16" stroke="#009" stroke-width="5" /><circle cx="1476.0" cy="1222.0" fill="#009" r="16" stroke="#009" stroke-width="5" /><circle cx="1470.0" cy="979.0" fill="#009" r="16" stroke="#009" stroke-width="5" /><circle cx="1731.0" cy="973.0" fill="#090" r="16" stroke="#090" stroke-width="5" /><circle cx="1725.0" cy="967.0" fill="#090" r="16" stroke="#090" stroke-width="5" /><circle cx="1737.0" cy="967.0" fill="#090" r="16" stroke="#090" stroke-width="5" /><circle cx="1725.0" cy="979.0" fill="#090" r="16" stroke="#090" stroke-width="5" /><circle cx="1725.0" cy="961.0" fill="#090" r="16" stroke="#090" stroke-width="5" /><circle cx="1719.0" cy="949.0" fill="#090" r="16" stroke="#090" stroke-width="5" /><circle cx="1719.0" cy="973.0" fill="#090" r="16" stroke="#090" stroke-width="5" /><circle cx="1725.0" cy="1234.0" fill="#090" r="16" stroke="#090" stroke-width="5" /><circle cx="1713.0" cy="1222.0" fill="#090" r="16" stroke="#090" stroke-width="5" /><circle cx="1725.0" cy="1222.0" fill="#090" r="16" stroke="#090" stroke-width="5" /><circle cx="1737.0" cy="1228.0" fill="#090" r="16" stroke="#090" stroke-width="5" /><circle cx="1725.0" cy="1210.0" fill="#090" r="16" stroke="#090" stroke-width="5" /><circle cx="1713.0" cy="1216.0" fill="#090" r="16" stroke="#090" stroke-width="5" /><circle cx="1731.0" cy="1222.0" fill="#090" r="16" stroke="#090" stroke-width="5" /><circle cx="1606.0" cy="1163.0" fill="#090" r="16" stroke="#090" stroke-width="5" /><circle cx="1612.0" cy="1169.0" fill="#090" r="16" stroke="#090" stroke-width="5" /><circle cx="1624.0" cy="1151.0" fill="#090" r="16" stroke="#090" stroke-width="5" /><circle cx="1612.0" cy="1163.0" fill="#090" r="16" stroke="#090" stroke-width="5" /><circle cx="1600.0" cy="1181.0" fill="#090" r="16" stroke="#090" stroke-width="5" /><circle cx="1624.0" cy="1169.0" fill="#090" r="16" stroke="#090" stroke-width="5" /><rect fill="#090" height="24" stroke="#090" stroke-width="5" transform="rotate(0,3397.0,1157.0)" width="24" x="3385.0" y="1145.0" /><rect fill="#090" height="24" stroke="#090" stroke-width="5" transform="rotate(0,3461.0,1157.0)" width="24" x="3449.0" y="1145.0" /><rect fill="#090" height="24" stroke="#090" stroke-width="5" transform="rotate(0,3525.0,1093.0)" width="24" x="3513.0" y="1081.0" /><rect fill="#090" height="24" stroke="#090" stroke-width="5" transform="rotate(0,3525.0,965.0)" width="24" x="3513.0" y="953.0" /><rect fill="#090" height="24" stroke="#090" stroke-width="5" transform="rotate(0,3461.0,901.0)" width="24" x="3449.0" y="889.0" /><rect fill="#090" height="24" stroke="#090" stroke-width="5" transform="rotate(0,3397.0,901.0)" width="24" x="3385.0" y="889.0" /><rect fill="#090" height="24" stroke="#090" stroke-width="5" transform="rotate(0,3523.0,1032.0)" width="24" x="3511.0" y="1020.0" /><circle cx="1025.0" cy="1495.0" fill="#090" r="16" stroke="#090" stroke-width="5" /><circle cx="1131.0" cy="1495.0" fill="#090" r="16" stroke="#090" stroke-width="5" /><circle cx="1250.0" cy="1495.0" fill="#090" r="16" stroke="#090" stroke-width="5" /><circle cx="1381.0" cy="1495.0" fill="#090" r="16" stroke="#090" stroke-width="5" /><circle cx="1588.0" cy="1495.0" fill="#090" r="16" stroke="#090" stroke-width="5" /><circle cx="1772.0" cy="1489.0" fill="#090" r="16" stroke="#090" stroke-width="5" /><circle cx="1897.0" cy="1495.0" fill="#090" r="16" stroke="#090" stroke-width="5" /><circle cx="995.0" cy="688.0" fill="#090" r="16" stroke="#090" stroke-width="5" /><circle cx="1185.0" cy="688.0" fill="#090" r="16" stroke="#090" stroke-width="5" /><circle cx="1333.0" cy="688.0" fill="#090" r="16" stroke="#090" stroke-width="5" /><circle cx="1565.0" cy="694.0" fill="#090" r="16" stroke="#090" stroke-width="5" /><circle cx="1749.0" cy="712.0" fill="#090" r="16" stroke="#090" stroke-width="5" /><circle cx="1903.0" cy="712.0" fill="#090" r="16" stroke="#090" stroke-width="5" /><rect fill="#090" height="24" stroke="#090" stroke-width="5" transform="rotate(0,2373.0,1221.0)" width="24" x="2361.0" y="1209.0" /><rect fill="#090" height="24" stroke="#090" stroke-width="5" transform="rotate(0,2501.0,1221.0)" width="24" x="2489.0" y="1209.0" /><rect fill="#090" height="24" stroke="#090" stroke-width="5" transform="rotate(0,2629.0,1221.0)" width="24" x="2617.0" y="1209.0" /><rect fill="#090" height="24" stroke="#090" stroke-width="5" transform="rotate(0,2757.0,1221.0)" width="24" x="2745.0" y="1209.0" /><rect fill="#090" height="24" stroke="#090" stroke-width="5" transform="rotate(0,2885.0,1221.0)" width="24" x="2873.0" y="1209.0" /><rect fill="#090" height="24" stroke="#090" stroke-width="5" transform="rotate(0,2373.0,837.0)" width="24" x="2361.0" y="825.0" /><rect fill="#090" height="24" stroke="#090" stroke-width="5" transform="rotate(0,2501.0,837.0)" width="24" x="2489.0" y="825.0" /><rect fill="#090" height="24" stroke="#090" stroke-width="5" transform="rotate(0,2629.0,837.0)" width="24" x="2617.0" y="825.0" /><rect fill="#090" height="24" stroke="#090" stroke-width="5" transform="rotate(0,2757.0,837.0)" width="24" x="2745.0" y="825.0" /><rect fill="#090" height="24" stroke="#090" stroke-width="5" transform="rotate(0,2885.0,837.0)" width="24" x="2873.0" y="825.0" /><ellipse cx="4101.0" cy="1157.0" fill="#900" rx="12" ry="24" stroke="#900" stroke-width="5" /><ellipse cx="4101.0" cy="1093.0" fill="#900" rx="12" ry="24" stroke="#900" stroke-width="5" /><ellipse cx="4101.0" cy="965.0" fill="#900" rx="12" ry="24" stroke="#900" stroke-width="5" /><ellipse cx="4037.0" cy="1093.0" fill="#900" rx="12" ry="24" stroke="#900" stroke-width="5" /><ellipse cx="4037.0" cy="1157.0" fill="#900" rx="12" ry="24" stroke="#900" stroke-width="5" /><ellipse cx="4101.0" cy="1029.0" fill="#900" rx="12" ry="24" stroke="#900" stroke-width="5" /><ellipse cx="4037.0" cy="1029.0" fill="#900" rx="12" ry="24" stroke="#900" stroke-width="5" /><ellipse cx="4037.0" cy="965.0" fill="#900" rx="12" ry="24" stroke="#900" stroke-width="5" /><rect fill="#090" height="24" stroke="#090" stroke-width="5" transform="rotate(180,2312.0,1068.0)" width="24" x="2300.0" y="1056.0" /><rect fill="#090" height="24" stroke="#090" stroke-width="5" transform="rotate(180,2277.0,896.0)" width="24" x="2265.0" y="884.0" /><rect fill="#090" height="24" stroke="#090" stroke-width="5" transform="rotate(180,2217.0,1246.0)" width="24" x="2205.0" y="1234.0" /><rect fill="#090" height="24" stroke="#090" stroke-width="5" transform="rotate(180,2496.0,1127.0)" width="24" x="2484.0" y="1115.0" /><rect fill="#090" height="24" stroke="#090" stroke-width="5" transform="rotate(180,2473.0,1014.0)" width="24" x="2461.0" y="1002.0" /><rect fill="#090" height="24" stroke="#090" stroke-width="5" transform="rotate(180,2645.0,925.0)" width="24" x="2633.0" y="913.0" /><rect fill="#090" height="24" stroke="#090" stroke-width="5" transform="rotate(180,2746.0,1086.0)" width="24" x="2734.0" y="1074.0" /><rect fill="#090" height="24" stroke="#090" stroke-width="5" transform="rotate(180,2947.0,937.0)" width="24" x="2935.0" y="925.0" /><rect fill="#090" height="24" stroke="#090" stroke-width="5" transform="rotate(180,2912.0,1068.0)" width="24" x="2900.0" y="1056.0" /><rect fill="#090" height="24" stroke="#090" stroke-width="5" transform="rotate(180,3102.0,1145.0)" width="24" x="3090.0" y="1133.0" /><rect fill="#090" height="24" stroke="#090" stroke-width="5" transform="rotate(180,3131.0,896.0)" width="24" x="3119.0" y="884.0" /><rect fill="#090" height="24" stroke="#090" stroke-width="5" transform="rotate(180,3256.0,1020.0)" width="24" x="3244.0" y="1008.0" /><rect fill="#090" height="24" stroke="#090" stroke-width="5" transform="rotate(180,3262.0,997.0)" width="24" x="3250.0" y="985.0" /><rect fill="#090" height="24" stroke="#090" stroke-width="5" transform="rotate(180,3292.0,997.0)" width="24" x="3280.0" y="985.0" /><rect fill="#090" height="24" stroke="#090" stroke-width="5" transform="rotate(180,3262.0,985.0)" width="24" x="3250.0" y="973.0" /><rect fill="#090" height="24" stroke="#090" stroke-width="5" transform="rotate(180,3268.0,985.0)" width="24" x="3256.0" y="973.0" /><rect fill="#090" height="24" stroke="#090" stroke-width="5" transform="rotate(180,3274.0,1026.0)" width="24" x="3262.0" y="1014.0" /><rect fill="#090" height="24" stroke="#090" stroke-width="5" transform="rotate(180,3286.0,1014.0)" width="24" x="3274.0" y="1002.0" /><rect fill="#090" height="24" stroke="#090" stroke-width="5" transform="rotate(180,3268.0,1044.0)" width="24" x="3256.0" y="1032.0" /><rect fill="#090" height="24" stroke="#090" stroke-width="5" transform="rotate(180,3244.0,1044.0)" width="24" x="3232.0" y="1032.0" /><rect fill="#090" height="24" stroke="#090" stroke-width="5" transform="rotate(180,3232.0,1020.0)" width="24" x="3220.0" y="1008.0" /><rect fill="#090" height="24" stroke="#090" stroke-width="5" transform="rotate(180,3232.0,997.0)" width="24" x="3220.0" y="985.0" /><rect fill="#090" height="24" stroke="#090" stroke-width="5" transform="rotate(180,3250.0,985.0)" width="24" x="3238.0" y="973.0" /><rect fill="#090" height="24" stroke="#090" stroke-width="5" transform="rotate(180,3214.0,1008.0)" width="24" x="3202.0" y="996.0" /></svg>