<?xml version="1.0" encoding="utf-8" ?>
<svg baseProfile="tiny" height="1024" version="1.2" viewBox="0 0 2970 3770" width="806" xmlns="http://www.w3.org/2000/svg" xmlns:ev="http://www.w3.org/2001/xml-events" xmlns:xlink="http://www.w3.org/1999/xlink"><defs /><line stroke="#333" stroke-width="10" x1="5.0" x2="5.0" y1="1669.0" y2="1797.0" /><line stroke="#333" stroke-width="10" x1="837.0" x2="5.0" y1="1669.0" y2="1669.0" /><line stroke="#333" stroke-width="10" x1="837.0" x2="1045.0" y1="1989.0" y2="1989.0" /><line stroke="#333" stroke-width="10" x1="5.0" x2="837.0" y1="1797.0" y2="1797.0" /><line stroke="#333" stroke-width="10" x1="837.0" x2="837.0" y1="1797.0" y2="1989.0" /><line stroke="#999" stroke-width="3" x1="837.0" x2="837.0" y1="1797.0" y2="1669.0" /><line stroke="#333" stroke-width="10" x1="837.0" x2="837.0" y1="1477.0" y2="1669.0" /><line stroke="#333" stroke-width="10" x1="1349.0" x2="837.0" y1="1477.0" y2="1477.0" /><line stroke="#333" stroke-width="10" x1="1349.0" x2="1349.0" y1="1989.0" y2="1797.0" /><line stroke="#999" stroke-width="3" x1="933.0" x2="901.0" y1="1893.0" y2="1733.0" /><line stroke="#999" stroke-width="3" x1="965.0" x2="1157.0" y1="1573.0" y2="1541.0" /><line stroke="#999" stroke-width="3" x1="1157.0" x2="1253.0" y1="1541.0" y2="1605.0" /><line stroke="#999" stroke-width="3" x1="1253.0" x2="1285.0" y1="1605.0" y2="1797.0" /><line stroke="#999" stroke-width="3" x1="1285.0" x2="1157.0" y1="1797.0" y2="1893.0" /><line stroke="#999" stroke-width="3" x1="1157.0" x2="933.0" y1="1893.0" y2="1893.0" /><line stroke="#999" stroke-width="3" x1="901.0" x2="965.0" y1="1733.0" y2="1573.0" /><line stroke="#333" stroke-width="10" x1="1045.0" x2="1045.0" y1="1989.0" y2="2117.0" /><line stroke="#999" stroke-width="3" x1="1045.0" x2="1173.0" y1="2445.0" y2="2445.0" /><line stroke="#333" stroke-width="10" x1="1173.0" x2="1173.0" y1="2117.0" y2="1989.0" /><line stroke="#999" stroke-width="3" x1="1045.0" x2="1173.0" y1="1989.0" y2="1989.0" /><line stroke="#333" stroke-width="10" x1="1173.0" x2="1349.0" y1="1989.0" y2="1989.0" /><line stroke="#333" stroke-width="10" x1="1045.0" x2="1045.0" y1="2405.0" y2="2437.0" /><line stroke="#999" stroke-width="3" x1="1045.0" x2="1173.0" y1="2405.0" y2="2405.0" /><line stroke="#333" stroke-width="10" x1="1173.0" x2="1173.0" y1="2437.0" y2="2405.0" /><line stroke="#333" stroke-width="10" x1="1045.0" x2="1045.0" y1="2373.0" y2="2405.0" /><line stroke="#999" stroke-width="3" x1="1045.0" x2="1173.0" y1="2373.0" y2="2373.0" /><line stroke="#333" stroke-width="10" x1="1173.0" x2="1173.0" y1="2405.0" y2="2373.0" /><line stroke="#333" stroke-width="10" x1="1045.0" x2="1045.0" y1="2341.0" y2="2373.0" /><line stroke="#999" stroke-width="3" x1="1045.0" x2="1173.0" y1="2341.0" y2="2341.0" /><line stroke="#333" stroke-width="10" x1="1173.0" x2="1173.0" y1="2373.0" y2="2341.0" /><line stroke="#333" stroke-width="10" x1="1045.0" x2="1045.0" y1="2309.0" y2="2341.0" /><line stroke="#999" stroke-width="3" x1="1045.0" x2="1173.0" y1="2309.0" y2="2309.0" /><line stroke="#333" stroke-width="10" x1="1173.0" x2="1173.0" y1="2341.0" y2="2309.0" /><line stroke="#333" stroke-width="10" x1="1045.0" x2="1045.0" y1="2277.0" y2="2309.0" /><line stroke="#999" stroke-width="3" x1="1045.0" x2="1173.0" y1="2277.0" y2="2277.0" /><line stroke="#333" stroke-width="10" x1="1173.0" x2="1173.0" y1="2309.0" y2="2277.0" /><line stroke="#333" stroke-width="10" x1="1045.0" x2="1045.0" y1="2245.0" y2="2277.0" /><line stroke="#999" stroke-width="3" x1="1045.0" x2="1173.0" y1="2245.0" y2="2245.0" /><line stroke="#333" stroke-width="10" x1="1173.0" x2="1173.0" y1="2277.0" y2="2245.0" /><line stroke="#333" stroke-width="10" x1="1045.0" x2="1045.0" y1="2213.0" y2="2245.0" /><line stroke="#999" stroke-width="3" x1="1045.0" x2="1173.0" y1="2213.0" y2="2213.0" /><line stroke="#333" stroke-width="10" x1="1173.0" x2="1173.0" y1="2245.0" y2="2213.0" /><line stroke="#333" stroke-width="10" x1="1045.0" x2="1045.0" y1="2181.0" y2="2213.0" /><line stroke="#999" stroke-width="3" x1="1045.0" x2="1173.0" y1="2181.0" y2="2181.0" /><line stroke="#333" stroke-width="10" x1="1173.0" x2="1173.0" y1="2213.0" y2="2181.0" /><line stroke="#333" stroke-width="10" x1="1045.0" x2="1045.0" y1="2149.0" y2="2181.0" /><line stroke="#999" stroke-width="3" x1="1045.0" x2="1173.0" y1="2149.0" y2="2149.0" /><line stroke="#333" stroke-width="10" x1="1173.0" x2="1173.0" y1="2181.0" y2="2149.0" /><line stroke="#333" stroke-width="10" x1="1045.0" x2="1045.0" y1="2117.0" y2="2149.0" /><line stroke="#999" stroke-width="3" x1="1045.0" x2="1173.0" y1="2117.0" y2="2117.0" /><line stroke="#333" stroke-width="10" x1="1173.0" x2="1173.0" y1="2149.0" y2="2117.0" /><line stroke="#999" stroke-width="3" x1="1349.0" x2="1349.0" y1="1797.0" y2="1669.0" /><line stroke="#333" stroke-width="10" x1="1349.0" x2="1349.0" y1="1669.0" y2="1477.0" /><line stroke="#333" stroke-width="10" x1="1861.0" x2="1605.0" y1="1669.0" y2="1669.0" /><line stroke="#333" stroke-width="10" x1="1861.0" x2="1861.0" y1="1797.0" y2="1669.0" /><line stroke="#333" stroke-width="10" x1="1349.0" x2="1445.0" y1="1797.0" y2="1797.0" /><line stroke="#333" stroke-width="10" x1="1669.0" x2="1669.0" y1="1797.0" y2="1893.0" /><line stroke="#999" stroke-width="3" x1="1669.0" x2="1733.0" y1="1797.0" y2="1797.0" /><line stroke="#333" stroke-width="10" x1="1733.0" x2="1733.0" y1="1957.0" y2="1797.0" /><line stroke="#333" stroke-width="10" x1="1669.0" x2="1733.0" y1="1957.0" y2="1957.0" /><line stroke="#333" stroke-width="10" x1="1733.0" x2="1861.0" y1="1797.0" y2="1797.0" /><line stroke="#333" stroke-width="10" x1="1445.0" x2="1669.0" y1="1957.0" y2="1957.0" /><line stroke="#333" stroke-width="10" x1="1445.0" x2="1445.0" y1="1893.0" y2="1957.0" /><line stroke="#333" stroke-width="10" x1="1669.0" x2="1509.0" y1="1893.0" y2="1893.0" /><line stroke="#999" stroke-width="3" x1="1669.0" x2="1669.0" y1="1893.0" y2="1957.0" /><line stroke="#333" stroke-width="10" x1="1445.0" x2="1445.0" y1="1797.0" y2="1893.0" /><line stroke="#999" stroke-width="3" x1="1445.0" x2="1509.0" y1="1797.0" y2="1797.0" /><line stroke="#333" stroke-width="10" x1="1509.0" x2="1509.0" y1="1893.0" y2="1797.0" /><line stroke="#999" stroke-width="3" x1="1509.0" x2="1445.0" y1="1893.0" y2="1893.0" /><line stroke="#333" stroke-width="10" x1="1509.0" x2="1669.0" y1="1797.0" y2="1797.0" /><line stroke="#333" stroke-width="10" x1="1541.0" x2="1541.0" y1="1349.0" y2="1669.0" /><line stroke="#333" stroke-width="10" x1="1605.0" x2="1541.0" y1="1349.0" y2="1349.0" /><line stroke="#333" stroke-width="10" x1="1605.0" x2="1605.0" y1="1669.0" y2="1557.0" /><line stroke="#999" stroke-width="3" x1="1605.0" x2="1541.0" y1="1669.0" y2="1669.0" /><line stroke="#333" stroke-width="10" x1="1541.0" x2="1349.0" y1="1669.0" y2="1669.0" /><line stroke="#333" stroke-width="10" x1="1605.0" x2="1861.0" y1="1557.0" y2="1557.0" /><line stroke="#333" stroke-width="10" x1="1861.0" x2="1861.0" y1="1557.0" y2="1493.0" /><line stroke="#333" stroke-width="10" x1="1861.0" x2="1765.0" y1="1493.0" y2="1493.0" /><line stroke="#999" stroke-width="3" x1="1605.0" x2="1605.0" y1="1557.0" y2="1493.0" /><line stroke="#333" stroke-width="10" x1="1605.0" x2="1605.0" y1="1493.0" y2="1349.0" /><line stroke="#333" stroke-width="10" x1="1701.0" x2="1701.0" y1="1301.0" y2="1493.0" /><line stroke="#333" stroke-width="10" x1="2005.0" x2="1909.0" y1="1301.0" y2="1301.0" /><line stroke="#333" stroke-width="10" x1="2005.0" x2="2005.0" y1="1365.0" y2="1301.0" /><line stroke="#333" stroke-width="10" x1="1765.0" x2="2005.0" y1="1365.0" y2="1365.0" /><line stroke="#333" stroke-width="10" x1="1765.0" x2="1765.0" y1="1493.0" y2="1365.0" /><line stroke="#999" stroke-width="3" x1="1765.0" x2="1701.0" y1="1493.0" y2="1493.0" /><line stroke="#333" stroke-width="10" x1="1701.0" x2="1605.0" y1="1493.0" y2="1493.0" /><line stroke="#333" stroke-width="10" x1="1845.0" x2="1845.0" y1="1221.0" y2="1301.0" /><line stroke="#333" stroke-width="10" x1="1557.0" x2="1845.0" y1="1221.0" y2="1221.0" /><line stroke="#333" stroke-width="10" x1="1557.0" x2="1557.0" y1="965.0" y2="1221.0" /><line stroke="#333" stroke-width="10" x1="1621.0" x2="1557.0" y1="965.0" y2="965.0" /><line stroke="#333" stroke-width="10" x1="1621.0" x2="1621.0" y1="1157.0" y2="965.0" /><line stroke="#333" stroke-width="10" x1="1909.0" x2="1861.0" y1="1157.0" y2="1157.0" /><line stroke="#333" stroke-width="10" x1="1909.0" x2="1909.0" y1="1301.0" y2="1157.0" /><line stroke="#999" stroke-width="3" x1="1909.0" x2="1845.0" y1="1301.0" y2="1301.0" /><line stroke="#333" stroke-width="10" x1="1845.0" x2="1701.0" y1="1301.0" y2="1301.0" /><line stroke="#333" stroke-width="10" x1="1669.0" x2="1669.0" y1="965.0" y2="1157.0" /><line stroke="#333" stroke-width="10" x1="1861.0" x2="1797.0" y1="965.0" y2="965.0" /><line stroke="#333" stroke-width="10" x1="1861.0" x2="1861.0" y1="1157.0" y2="965.0" /><line stroke="#999" stroke-width="3" x1="1861.0" x2="1797.0" y1="1157.0" y2="1157.0" /><line stroke="#333" stroke-width="10" x1="1797.0" x2="1797.0" y1="1029.0" y2="1157.0" /><line stroke="#333" stroke-width="10" x1="1733.0" x2="1797.0" y1="1029.0" y2="1029.0" /><line stroke="#333" stroke-width="10" x1="1733.0" x2="1733.0" y1="1157.0" y2="1029.0" /><line stroke="#999" stroke-width="3" x1="1733.0" x2="1669.0" y1="1157.0" y2="1157.0" /><line stroke="#333" stroke-width="10" x1="1669.0" x2="1621.0" y1="1157.0" y2="1157.0" /><line stroke="#333" stroke-width="10" x1="1797.0" x2="1733.0" y1="1157.0" y2="1157.0" /><line stroke="#333" stroke-width="10" x1="1733.0" x2="1733.0" y1="821.0" y2="965.0" /><line stroke="#333" stroke-width="10" x1="2101.0" x2="1941.0" y1="821.0" y2="821.0" /><line stroke="#333" stroke-width="10" x1="2101.0" x2="2101.0" y1="885.0" y2="821.0" /><line stroke="#333" stroke-width="10" x1="1797.0" x2="1989.0" y1="885.0" y2="885.0" /><line stroke="#333" stroke-width="10" x1="1797.0" x2="1797.0" y1="965.0" y2="885.0" /><line stroke="#999" stroke-width="3" x1="1797.0" x2="1733.0" y1="965.0" y2="965.0" /><line stroke="#333" stroke-width="10" x1="1733.0" x2="1669.0" y1="965.0" y2="965.0" /><line stroke="#333" stroke-width="10" x1="1989.0" x2="2101.0" y1="885.0" y2="885.0" /><line stroke="#333" stroke-width="10" x1="1877.0" x2="1877.0" y1="677.0" y2="821.0" /><line stroke="#333" stroke-width="10" x1="1733.0" x2="1733.0" y1="453.0" y2="549.0" /><line stroke="#333" stroke-width="10" x1="1941.0" x2="1941.0" y1="821.0" y2="677.0" /><line stroke="#999" stroke-width="3" x1="1941.0" x2="1877.0" y1="821.0" y2="821.0" /><line stroke="#333" stroke-width="10" x1="1877.0" x2="1733.0" y1="821.0" y2="821.0" /><line stroke="#333" stroke-width="10" x1="1733.0" x2="1877.0" y1="677.0" y2="677.0" /><line stroke="#999" stroke-width="3" x1="1941.0" x2="1877.0" y1="677.0" y2="677.0" /><line stroke="#333" stroke-width="10" x1="1941.0" x2="2085.0" y1="677.0" y2="677.0" /><line stroke="#333" stroke-width="10" x1="2085.0" x2="2085.0" y1="677.0" y2="565.0" /><line stroke="#333" stroke-width="10" x1="2085.0" x2="1925.0" y1="453.0" y2="453.0" /><line stroke="#333" stroke-width="10" x1="1541.0" x2="1605.0" y1="613.0" y2="613.0" /><line stroke="#333" stroke-width="10" x1="1541.0" x2="1541.0" y1="549.0" y2="613.0" /><line stroke="#333" stroke-width="10" x1="1733.0" x2="1669.0" y1="549.0" y2="549.0" /><line stroke="#999" stroke-width="3" x1="1733.0" x2="1733.0" y1="549.0" y2="613.0" /><line stroke="#333" stroke-width="10" x1="1733.0" x2="1733.0" y1="613.0" y2="677.0" /><line stroke="#333" stroke-width="10" x1="1605.0" x2="1605.0" y1="485.0" y2="549.0" /><line stroke="#999" stroke-width="3" x1="1669.0" x2="1605.0" y1="485.0" y2="485.0" /><line stroke="#333" stroke-width="10" x1="1669.0" x2="1669.0" y1="549.0" y2="485.0" /><line stroke="#999" stroke-width="3" x1="1669.0" x2="1605.0" y1="549.0" y2="549.0" /><line stroke="#333" stroke-width="10" x1="1605.0" x2="1541.0" y1="549.0" y2="549.0" /><line stroke="#333" stroke-width="10" x1="1669.0" x2="1669.0" y1="485.0" y2="421.0" /><line stroke="#333" stroke-width="10" x1="1669.0" x2="1445.0" y1="421.0" y2="421.0" /><line stroke="#333" stroke-width="10" x1="1373.0" x2="1381.0" y1="485.0" y2="485.0" /><line stroke="#333" stroke-width="10" x1="1381.0" x2="1445.0" y1="709.0" y2="709.0" /><line stroke="#333" stroke-width="10" x1="1445.0" x2="1445.0" y1="709.0" y2="485.0" /><line stroke="#333" stroke-width="10" x1="1445.0" x2="1605.0" y1="485.0" y2="485.0" /><line stroke="#333" stroke-width="10" x1="1861.0" x2="1861.0" y1="5.0" y2="133.0" /><line stroke="#333" stroke-width="10" x1="1925.0" x2="1861.0" y1="5.0" y2="5.0" /><line stroke="#333" stroke-width="10" x1="1925.0" x2="1925.0" y1="453.0" y2="197.0" /><line stroke="#999" stroke-width="3" x1="1925.0" x2="1861.0" y1="453.0" y2="453.0" /><line stroke="#333" stroke-width="10" x1="1861.0" x2="1733.0" y1="453.0" y2="453.0" /><line stroke="#333" stroke-width="10" x1="1669.0" x2="1733.0" y1="613.0" y2="613.0" /><line stroke="#333" stroke-width="10" x1="1669.0" x2="1669.0" y1="693.0" y2="629.0" /><line stroke="#333" stroke-width="10" x1="1605.0" x2="1669.0" y1="693.0" y2="693.0" /><line stroke="#333" stroke-width="10" x1="1605.0" x2="1605.0" y1="629.0" y2="693.0" /><line stroke="#333" stroke-width="10" x1="1605.0" x2="1605.0" y1="613.0" y2="629.0" /><line stroke="#666" stroke-width="20" x1="1669.0" x2="1605.0" y1="629.0" y2="629.0" /><line stroke="#333" stroke-width="10" x1="1669.0" x2="1669.0" y1="629.0" y2="613.0" /><line stroke="#666" stroke-width="20" x1="1605.0" x2="1669.0" y1="613.0" y2="613.0" /><line stroke="#666" stroke-width="20" x1="1381.0" x2="1445.0" y1="485.0" y2="485.0" /><line stroke="#333" stroke-width="10" x1="1381.0" x2="1381.0" y1="485.0" y2="709.0" /><line stroke="#333" stroke-width="10" x1="1445.0" x2="1445.0" y1="421.0" y2="413.0" /><line stroke="#999" stroke-width="3" x1="1381.0" x2="1445.0" y1="413.0" y2="413.0" /><line stroke="#333" stroke-width="10" x1="1445.0" x2="1445.0" y1="413.0" y2="349.0" /><line stroke="#333" stroke-width="10" x1="1445.0" x2="1381.0" y1="349.0" y2="349.0" /><line stroke="#333" stroke-width="10" x1="1381.0" x2="1381.0" y1="349.0" y2="413.0" /><line stroke="#333" stroke-width="10" x1="1381.0" x2="1381.0" y1="413.0" y2="421.0" /><line stroke="#999" stroke-width="3" x1="1445.0" x2="1381.0" y1="421.0" y2="421.0" /><line stroke="#333" stroke-width="10" x1="2085.0" x2="2285.0" y1="565.0" y2="565.0" /><line stroke="#999" stroke-width="3" x1="2285.0" x2="2285.0" y1="565.0" y2="501.0" /><line stroke="#333" stroke-width="10" x1="2285.0" x2="2085.0" y1="501.0" y2="501.0" /><line stroke="#999" stroke-width="3" x1="2085.0" x2="2085.0" y1="565.0" y2="501.0" /><line stroke="#333" stroke-width="10" x1="2085.0" x2="2085.0" y1="501.0" y2="453.0" /><line stroke="#333" stroke-width="10" x1="2285.0" x2="2317.0" y1="565.0" y2="645.0" /><line stroke="#333" stroke-width="10" x1="2317.0" x2="2429.0" y1="645.0" y2="701.0" /><line stroke="#333" stroke-width="10" x1="2429.0" x2="2557.0" y1="701.0" y2="677.0" /><line stroke="#333" stroke-width="10" x1="2557.0" x2="2621.0" y1="677.0" y2="597.0" /><line stroke="#333" stroke-width="10" x1="2621.0" x2="2620.0" y1="597.0" y2="589.0" /><line stroke="#333" stroke-width="10" x1="2613.0" x2="2461.0" y1="445.0" y2="389.0" /><line stroke="#333" stroke-width="10" x1="2461.0" x2="2309.0" y1="389.0" y2="421.0" /><line stroke="#333" stroke-width="10" x1="2309.0" x2="2285.0" y1="421.0" y2="501.0" /><line stroke="#999" stroke-width="3" x1="2413.0" x2="2413.0" y1="517.0" y2="573.0" /><line stroke="#999" stroke-width="3" x1="2517.0" x2="2617.0" y1="509.0" y2="509.0" /><line stroke="#333" stroke-width="10" x1="2620.0" x2="2619.0" y1="589.0" y2="573.0" /><line stroke="#999" stroke-width="3" x1="2620.0" x2="2517.0" y1="589.0" y2="589.0" /><line stroke="#333" stroke-width="10" x1="2617.0" x2="2613.0" y1="509.0" y2="445.0" /><line stroke="#999" stroke-width="3" x1="2413.0" x2="2445.0" y1="573.0" y2="605.0" /><line stroke="#999" stroke-width="3" x1="2445.0" x2="2501.0" y1="605.0" y2="597.0" /><line stroke="#999" stroke-width="3" x1="2501.0" x2="2517.0" y1="597.0" y2="589.0" /><line stroke="#999" stroke-width="3" x1="2517.0" x2="2517.0" y1="589.0" y2="573.0" /><line stroke="#999" stroke-width="3" x1="2517.0" x2="2493.0" y1="509.0" y2="485.0" /><line stroke="#999" stroke-width="3" x1="2493.0" x2="2437.0" y1="485.0" y2="493.0" /><line stroke="#999" stroke-width="3" x1="2437.0" x2="2413.0" y1="493.0" y2="517.0" /><line stroke="#999" stroke-width="3" x1="2517.0" x2="2517.0" y1="573.0" y2="525.0" /><line stroke="#999" stroke-width="3" x1="2517.0" x2="2517.0" y1="525.0" y2="509.0" /><line stroke="#999" stroke-width="3" x1="2517.0" x2="2619.0" y1="573.0" y2="573.0" /><line stroke="#999" stroke-width="3" x1="2619.0" x2="2617.0" y1="573.0" y2="525.0" /><line stroke="#999" stroke-width="3" x1="2517.0" x2="2617.0" y1="525.0" y2="525.0" /><line stroke="#333" stroke-width="10" x1="2617.0" x2="2617.0" y1="525.0" y2="509.0" /><line stroke="#333" stroke-width="10" x1="1797.0" x2="1861.0" y1="197.0" y2="197.0" /><line stroke="#333" stroke-width="10" x1="1797.0" x2="1797.0" y1="133.0" y2="197.0" /><line stroke="#333" stroke-width="10" x1="1861.0" x2="1797.0" y1="133.0" y2="133.0" /><line stroke="#999" stroke-width="3" x1="1861.0" x2="1861.0" y1="133.0" y2="197.0" /><line stroke="#333" stroke-width="10" x1="1861.0" x2="1861.0" y1="197.0" y2="453.0" /><line stroke="#333" stroke-width="10" x1="1925.0" x2="1989.0" y1="197.0" y2="197.0" /><line stroke="#666" stroke-width="20" x1="1989.0" x2="1989.0" y1="197.0" y2="133.0" /><line stroke="#333" stroke-width="10" x1="1989.0" x2="1925.0" y1="133.0" y2="133.0" /><line stroke="#999" stroke-width="3" x1="1925.0" x2="1925.0" y1="197.0" y2="133.0" /><line stroke="#333" stroke-width="10" x1="1925.0" x2="1925.0" y1="133.0" y2="5.0" /><line stroke="#333" stroke-width="10" x1="1317.0" x2="1173.0" y1="2461.0" y2="2461.0" /><line stroke="#999" stroke-width="3" x1="1253.0" x2="1317.0" y1="2813.0" y2="2813.0" /><line stroke="#333" stroke-width="10" x1="1149.0" x2="1253.0" y1="2877.0" y2="2877.0" /><line stroke="#333" stroke-width="10" x1="901.0" x2="901.0" y1="2461.0" y2="2557.0" /><line stroke="#333" stroke-width="10" x1="1045.0" x2="1045.0" y1="2437.0" y2="2445.0" /><line stroke="#999" stroke-width="3" x1="1045.0" x2="1173.0" y1="2437.0" y2="2437.0" /><line stroke="#333" stroke-width="10" x1="1173.0" x2="1173.0" y1="2445.0" y2="2437.0" /><line stroke="#333" stroke-width="10" x1="1045.0" x2="1045.0" y1="2445.0" y2="2453.0" /><line stroke="#333" stroke-width="10" x1="1045.0" x2="901.0" y1="2461.0" y2="2461.0" /><line stroke="#333" stroke-width="10" x1="1173.0" x2="1173.0" y1="2453.0" y2="2445.0" /><line stroke="#333" stroke-width="10" x1="1045.0" x2="1045.0" y1="2453.0" y2="2461.0" /><line stroke="#999" stroke-width="3" x1="1173.0" x2="1045.0" y1="2461.0" y2="2461.0" /><line stroke="#333" stroke-width="10" x1="1173.0" x2="1173.0" y1="2461.0" y2="2453.0" /><line stroke="#999" stroke-width="3" x1="1173.0" x2="1045.0" y1="2453.0" y2="2453.0" /><line stroke="#999" stroke-width="3" x1="965.0" x2="965.0" y1="2813.0" y2="2877.0" /><line stroke="#999" stroke-width="3" x1="901.0" x2="965.0" y1="2877.0" y2="2877.0" /><line stroke="#333" stroke-width="10" x1="901.0" x2="901.0" y1="2813.0" y2="2877.0" /><line stroke="#999" stroke-width="3" x1="901.0" x2="965.0" y1="2813.0" y2="2813.0" /><line stroke="#999" stroke-width="3" x1="1373.0" x2="1373.0" y1="485.0" y2="421.0" /><line stroke="#333" stroke-width="10" x1="1381.0" x2="1373.0" y1="421.0" y2="421.0" /><line stroke="#999" stroke-width="3" x1="1381.0" x2="1381.0" y1="421.0" y2="485.0" /><line stroke="#333" stroke-width="10" x1="1309.0" x2="1373.0" y1="485.0" y2="485.0" /><line stroke="#666" stroke-width="20" x1="1309.0" x2="1309.0" y1="421.0" y2="485.0" /><line stroke="#333" stroke-width="10" x1="1373.0" x2="1309.0" y1="421.0" y2="421.0" /><line stroke="#333" stroke-width="10" x1="2619.0" x2="2661.0" y1="573.0" y2="573.0" /><line stroke="#333" stroke-width="10" x1="2661.0" x2="2661.0" y1="573.0" y2="525.0" /><line stroke="#333" stroke-width="10" x1="2661.0" x2="2617.0" y1="525.0" y2="525.0" /><line stroke="#333" stroke-width="10" x1="1069.0" x2="1069.0" y1="2877.0" y2="2885.0" /><line stroke="#333" stroke-width="10" x1="1069.0" x2="1069.0" y1="2901.0" y2="2965.0" /><line stroke="#333" stroke-width="10" x1="1149.0" x2="1149.0" y1="2901.0" y2="2893.0" /><line stroke="#999" stroke-width="3" x1="1069.0" x2="1149.0" y1="2877.0" y2="2877.0" /><line stroke="#333" stroke-width="10" x1="965.0" x2="1069.0" y1="2877.0" y2="2877.0" /><line stroke="#999" stroke-width="3" x1="1149.0" x2="1141.0" y1="2893.0" y2="2893.0" /><line stroke="#333" stroke-width="10" x1="1149.0" x2="1149.0" y1="2893.0" y2="2885.0" /><line stroke="#999" stroke-width="3" x1="1069.0" x2="1077.0" y1="2885.0" y2="2885.0" /><line stroke="#333" stroke-width="10" x1="1069.0" x2="1069.0" y1="2885.0" y2="2893.0" /><line stroke="#333" stroke-width="10" x1="1069.0" x2="1069.0" y1="2893.0" y2="2901.0" /><line stroke="#333" stroke-width="10" x1="1149.0" x2="1149.0" y1="2885.0" y2="2877.0" /><line stroke="#333" stroke-width="10" x1="1069.0" x2="1077.0" y1="2965.0" y2="2965.0" /><line stroke="#333" stroke-width="10" x1="1149.0" x2="1149.0" y1="2965.0" y2="2901.0" /><line stroke="#999" stroke-width="3" x1="1141.0" x2="1149.0" y1="2901.0" y2="2901.0" /><line stroke="#999" stroke-width="3" x1="1077.0" x2="1069.0" y1="2893.0" y2="2893.0" /><line stroke="#d00" stroke-width="20" x1="1077.0" x2="1141.0" y1="2885.0" y2="2885.0" /><line stroke="#999" stroke-width="3" x1="1141.0" x2="1149.0" y1="2885.0" y2="2885.0" /><line stroke="#d00" stroke-width="20" x1="1141.0" x2="1077.0" y1="2893.0" y2="2893.0" /><line stroke="#999" stroke-width="3" x1="1077.0" x2="1077.0" y1="2885.0" y2="2893.0" /><line stroke="#999" stroke-width="3" x1="1141.0" x2="1141.0" y1="2893.0" y2="2885.0" /><line stroke="#00d" stroke-width="20" x1="1077.0" x2="1077.0" y1="2901.0" y2="2965.0" /><line stroke="#00d" stroke-width="20" x1="1077.0" x2="1141.0" y1="2965.0" y2="2965.0" /><line stroke="#999" stroke-width="3" x1="1069.0" x2="1077.0" y1="2901.0" y2="2901.0" /><line stroke="#00d" stroke-width="20" x1="1141.0" x2="1141.0" y1="2965.0" y2="2901.0" /><line stroke="#00d" stroke-width="20" x1="1077.0" x2="1141.0" y1="2901.0" y2="2901.0" /><line stroke="#333" stroke-width="10" x1="1141.0" x2="1149.0" y1="2965.0" y2="2965.0" /><line stroke="#999" stroke-width="3" x1="965.0" x2="965.0" y1="2685.0" y2="2749.0" /><line stroke="#999" stroke-width="3" x1="901.0" x2="965.0" y1="2685.0" y2="2685.0" /><line stroke="#333" stroke-width="10" x1="901.0" x2="901.0" y1="2685.0" y2="2749.0" /><line stroke="#999" stroke-width="3" x1="965.0" x2="901.0" y1="2749.0" y2="2749.0" /><line stroke="#333" stroke-width="10" x1="901.0" x2="901.0" y1="2749.0" y2="2813.0" /><line stroke="#999" stroke-width="3" x1="965.0" x2="965.0" y1="2557.0" y2="2621.0" /><line stroke="#999" stroke-width="3" x1="901.0" x2="965.0" y1="2557.0" y2="2557.0" /><line stroke="#333" stroke-width="10" x1="901.0" x2="901.0" y1="2557.0" y2="2621.0" /><line stroke="#999" stroke-width="3" x1="965.0" x2="901.0" y1="2621.0" y2="2621.0" /><line stroke="#333" stroke-width="10" x1="901.0" x2="901.0" y1="2621.0" y2="2685.0" /><line stroke="#333" stroke-width="10" x1="1317.0" x2="1317.0" y1="2813.0" y2="2749.0" /><line stroke="#999" stroke-width="3" x1="1253.0" x2="1253.0" y1="2877.0" y2="2813.0" /><line stroke="#333" stroke-width="10" x1="1253.0" x2="1253.0" y1="2877.0" y2="2885.0" /><line stroke="#333" stroke-width="10" x1="1317.0" x2="1317.0" y1="2877.0" y2="2813.0" /><line stroke="#999" stroke-width="3" x1="1317.0" x2="1253.0" y1="2749.0" y2="2749.0" /><line stroke="#999" stroke-width="3" x1="1317.0" x2="1317.0" y1="2749.0" y2="2685.0" /><line stroke="#999" stroke-width="3" x1="1253.0" x2="1317.0" y1="2685.0" y2="2685.0" /><line stroke="#999" stroke-width="3" x1="1253.0" x2="1253.0" y1="2749.0" y2="2685.0" /><line stroke="#333" stroke-width="10" x1="1317.0" x2="1317.0" y1="2685.0" y2="2621.0" /><line stroke="#999" stroke-width="3" x1="1317.0" x2="1253.0" y1="2621.0" y2="2621.0" /><line stroke="#333" stroke-width="10" x1="1317.0" x2="1317.0" y1="2621.0" y2="2557.0" /><line stroke="#999" stroke-width="3" x1="1253.0" x2="1317.0" y1="2557.0" y2="2557.0" /><line stroke="#999" stroke-width="3" x1="1253.0" x2="1253.0" y1="2621.0" y2="2557.0" /><line stroke="#333" stroke-width="10" x1="1317.0" x2="1317.0" y1="2557.0" y2="2461.0" /><line stroke="#333" stroke-width="10" x1="1317.0" x2="1381.0" y1="2749.0" y2="2749.0" /><line stroke="#333" stroke-width="10" x1="1381.0" x2="1381.0" y1="2749.0" y2="2685.0" /><line stroke="#333" stroke-width="10" x1="1381.0" x2="1317.0" y1="2685.0" y2="2685.0" /><line stroke="#999" stroke-width="3" x1="1253.0" x2="1317.0" y1="2885.0" y2="2885.0" /><line stroke="#333" stroke-width="10" x1="1317.0" x2="1317.0" y1="2885.0" y2="2877.0" /><line stroke="#999" stroke-width="3" x1="1253.0" x2="1317.0" y1="2877.0" y2="2877.0" /><line stroke="#333" stroke-width="10" x1="1253.0" x2="1253.0" y1="2885.0" y2="2893.0" /><line stroke="#333" stroke-width="10" x1="1253.0" x2="1317.0" y1="2893.0" y2="2893.0" /><line stroke="#333" stroke-width="10" x1="1317.0" x2="1317.0" y1="2893.0" y2="2885.0" /><line stroke="#333" stroke-width="10" x1="901.0" x2="901.0" y1="2877.0" y2="2893.0" /><line stroke="#333" stroke-width="10" x1="693.0" x2="693.0" y1="3029.0" y2="3389.0" /><line stroke="#333" stroke-width="10" x1="965.0" x2="965.0" y1="3029.0" y2="2877.0" /><line stroke="#333" stroke-width="10" x1="901.0" x2="693.0" y1="3029.0" y2="3029.0" /><line stroke="#999" stroke-width="3" x1="901.0" x2="965.0" y1="3029.0" y2="3029.0" /><line stroke="#333" stroke-width="10" x1="1173.0" x2="965.0" y1="3029.0" y2="3029.0" /><line stroke="#333" stroke-width="10" x1="1173.0" x2="1173.0" y1="3389.0" y2="3349.0" /><line stroke="#333" stroke-width="10" x1="693.0" x2="1173.0" y1="3389.0" y2="3389.0" /><line stroke="#333" stroke-width="10" x1="901.0" x2="893.0" y1="2893.0" y2="2893.0" /><line stroke="#333" stroke-width="10" x1="885.0" x2="893.0" y1="2957.0" y2="2957.0" /><line stroke="#333" stroke-width="10" x1="893.0" x2="901.0" y1="2957.0" y2="2957.0" /><line stroke="#999" stroke-width="3" x1="901.0" x2="901.0" y1="2893.0" y2="2957.0" /><line stroke="#333" stroke-width="10" x1="901.0" x2="901.0" y1="2957.0" y2="3029.0" /><line stroke="#333" stroke-width="10" x1="885.0" x2="885.0" y1="2893.0" y2="2957.0" /><line stroke="#333" stroke-width="10" x1="893.0" x2="885.0" y1="2893.0" y2="2893.0" /><line stroke="#999" stroke-width="3" x1="893.0" x2="893.0" y1="2893.0" y2="2957.0" /><line stroke="#999" stroke-width="3" x1="709.0" x2="773.0" y1="3221.0" y2="3221.0" /><line stroke="#999" stroke-width="3" x1="773.0" x2="773.0" y1="3221.0" y2="3285.0" /><line stroke="#999" stroke-width="3" x1="773.0" x2="709.0" y1="3285.0" y2="3285.0" /><line stroke="#999" stroke-width="3" x1="709.0" x2="709.0" y1="3285.0" y2="3221.0" /><line stroke="#999" stroke-width="3" x1="709.0" x2="773.0" y1="3309.0" y2="3309.0" /><line stroke="#999" stroke-width="3" x1="773.0" x2="773.0" y1="3309.0" y2="3373.0" /><line stroke="#999" stroke-width="3" x1="773.0" x2="709.0" y1="3373.0" y2="3373.0" /><line stroke="#999" stroke-width="3" x1="709.0" x2="709.0" y1="3373.0" y2="3309.0" /><line stroke="#666" stroke-width="20" x1="1133.0" x2="1069.0" y1="3349.0" y2="3349.0" /><line stroke="#999" stroke-width="3" x1="1133.0" x2="1133.0" y1="3285.0" y2="3349.0" /><line stroke="#999" stroke-width="3" x1="1069.0" x2="1133.0" y1="3285.0" y2="3285.0" /><line stroke="#999" stroke-width="3" x1="1069.0" x2="1069.0" y1="3349.0" y2="3285.0" /><line stroke="#333" stroke-width="10" x1="1181.0" x2="1189.0" y1="3349.0" y2="3349.0" /><line stroke="#333" stroke-width="10" x1="1181.0" x2="1173.0" y1="3285.0" y2="3285.0" /><line stroke="#999" stroke-width="3" x1="1173.0" x2="1173.0" y1="3349.0" y2="3285.0" /><line stroke="#333" stroke-width="10" x1="1173.0" x2="1181.0" y1="3349.0" y2="3349.0" /><line stroke="#333" stroke-width="10" x1="1173.0" x2="1173.0" y1="3285.0" y2="3029.0" /><line stroke="#999" stroke-width="3" x1="1189.0" x2="1189.0" y1="3285.0" y2="3349.0" /><line stroke="#333" stroke-width="10" x1="1189.0" x2="1181.0" y1="3285.0" y2="3285.0" /><line stroke="#999" stroke-width="3" x1="1181.0" x2="1181.0" y1="3349.0" y2="3285.0" /><line stroke="#333" stroke-width="10" x1="1189.0" x2="1333.0" y1="3349.0" y2="3349.0" /><line stroke="#333" stroke-width="10" x1="1333.0" x2="1333.0" y1="3349.0" y2="3285.0" /><line stroke="#333" stroke-width="10" x1="1333.0" x2="1189.0" y1="3285.0" y2="3285.0" /><line stroke="#333" stroke-width="10" x1="1309.0" x2="1269.0" y1="3101.0" y2="3221.0" /><line stroke="#333" stroke-width="10" x1="1573.0" x2="1309.0" y1="2941.0" y2="3101.0" /><line stroke="#333" stroke-width="10" x1="2837.0" x2="2285.0" y1="3101.0" y2="2917.0" /><line stroke="#333" stroke-width="10" x1="2965.0" x2="2837.0" y1="3389.0" y2="3101.0" /><line stroke="#333" stroke-width="10" x1="2125.0" x2="2237.0" y1="3645.0" y2="3485.0" /><line stroke="#333" stroke-width="10" x1="1549.0" x2="1629.0" y1="3453.0" y2="3480.0" /><line stroke="#333" stroke-width="10" x1="1389.0" x2="1549.0" y1="3309.0" y2="3453.0" /><line stroke="#333" stroke-width="10" x1="1269.0" x2="1389.0" y1="3221.0" y2="3309.0" /><line stroke="#999" stroke-width="3" x1="2437.0" x2="2437.0" y1="3317.0" y2="3189.0" /><line stroke="#999" stroke-width="3" x1="2437.0" x2="2781.0" y1="3189.0" y2="3189.0" /><line stroke="#0d0" stroke-width="20" x1="2781.0" x2="2781.0" y1="3189.0" y2="3221.0" /><line stroke="#999" stroke-width="3" x1="2781.0" x2="2437.0" y1="3317.0" y2="3317.0" /><line stroke="#333" stroke-width="10" x1="2237.0" x2="2965.0" y1="3485.0" y2="3389.0" /><line stroke="#333" stroke-width="10" x1="2285.0" x2="2221.0" y1="2917.0" y2="2789.0" /><line stroke="#333" stroke-width="10" x1="2221.0" x2="1573.0" y1="2789.0" y2="2941.0" /><line stroke="#333" stroke-width="10" x1="1629.0" x2="1621.0" y1="3480.0" y2="3613.0" /><line stroke="#333" stroke-width="10" x1="1717.0" x2="1877.0" y1="3509.0" y2="3562.0" /><line stroke="#999" stroke-width="3" x1="1629.0" x2="1717.0" y1="3480.0" y2="3509.0" /><line stroke="#333" stroke-width="10" x1="1717.0" x2="1717.0" y1="3629.0" y2="3509.0" /><line stroke="#999" stroke-width="3" x1="1621.0" x2="1717.0" y1="3613.0" y2="3629.0" /><line stroke="#333" stroke-width="10" x1="1621.0" x2="1709.0" y1="3613.0" y2="3765.0" /><line stroke="#333" stroke-width="10" x1="1709.0" x2="1789.0" y1="3765.0" y2="3765.0" /><line stroke="#333" stroke-width="10" x1="1755.0" x2="1717.0" y1="3701.0" y2="3629.0" /><line stroke="#333" stroke-width="10" x1="1877.0" x2="1755.0" y1="3669.0" y2="3701.0" /><line stroke="#333" stroke-width="10" x1="1957.0" x2="2125.0" y1="3589.0" y2="3645.0" /><line stroke="#333" stroke-width="10" x1="1901.0" x2="1941.0" y1="3765.0" y2="3677.0" /><line stroke="#333" stroke-width="10" x1="1789.0" x2="1901.0" y1="3765.0" y2="3765.0" /><line stroke="#999" stroke-width="3" x1="1789.0" x2="1755.0" y1="3765.0" y2="3701.0" /><line stroke="#333" stroke-width="10" x1="1877.0" x2="1877.0" y1="3562.0" y2="3669.0" /><line stroke="#999" stroke-width="3" x1="1877.0" x2="1952.0" y1="3562.0" y2="3587.0" /><line stroke="#999" stroke-width="3" x1="1952.0" x2="1957.0" y1="3587.0" y2="3589.0" /><line stroke="#333" stroke-width="10" x1="1941.0" x2="1957.0" y1="3677.0" y2="3589.0" /><line stroke="#999" stroke-width="3" x1="1941.0" x2="1877.0" y1="3677.0" y2="3669.0" /><line stroke="#0d0" stroke-width="20" x1="2781.0" x2="2781.0" y1="3221.0" y2="3285.0" /><line stroke="#0d0" stroke-width="20" x1="2781.0" x2="2781.0" y1="3285.0" y2="3317.0" /><ellipse cx="37.0" cy="1701.0" fill="#009" rx="12" ry="24" stroke="#009" stroke-width="5" /><rect fill="#090" height="24" stroke="#090" stroke-width="5" transform="rotate(0,869.0,1829.0)" width="24" x="857.0" y="1817.0" /><rect fill="#090" height="24" stroke="#090" stroke-width="5" transform="rotate(0,869.0,1637.0)" width="24" x="857.0" y="1625.0" /><rect fill="#090" height="24" stroke="#090" stroke-width="5" transform="rotate(0,1093.0,1701.0)" width="24" x="1081.0" y="1689.0" /><circle cx="1061.0" cy="1733.0" fill="#900" r="16" stroke="#900" stroke-width="5" /><circle cx="2069.0" cy="853.0" fill="#009" r="16" stroke="#009" stroke-width="5" /><rect fill="#900" height="48" stroke="#900" stroke-width="5" transform="rotate(90,1765.0,997.0)" width="32" x="1749.0" y="973.0" /><rect fill="#900" height="48" stroke="#900" stroke-width="5" transform="rotate(90,1813.0,997.0)" width="32" x="1797.0" y="973.0" /><rect fill="#900" height="48" stroke="#900" stroke-width="5" transform="rotate(0,1621.0,1189.0)" width="32" x="1605.0" y="1165.0" /><circle cx="1589.0" cy="1925.0" fill="#090" r="16" stroke="#090" stroke-width="5" /><circle cx="1957.0" cy="1333.0" fill="#090" r="16" stroke="#090" stroke-width="5" /><circle cx="1757.0" cy="653.0" fill="#009" r="16" stroke="#009" stroke-width="5" /><circle cx="1789.0" cy="653.0" fill="#009" r="16" stroke="#009" stroke-width="5" /><circle cx="1757.0" cy="621.0" fill="#009" r="16" stroke="#009" stroke-width="5" /><circle cx="1789.0" cy="621.0" fill="#009" r="16" stroke="#009" stroke-width="5" /><circle cx="1757.0" cy="589.0" fill="#009" r="16" stroke="#009" stroke-width="5" /><circle cx="1789.0" cy="589.0" fill="#009" r="16" stroke="#009" stroke-width="5" /><rect fill="#900" height="48" stroke="#900" stroke-width="5" transform="rotate(90,1909.0,629.0)" width="32" x="1893.0" y="605.0" /><rect fill="#900" height="48" stroke="#900" stroke-width="5" transform="rotate(90,1989.0,629.0)" width="32" x="1973.0" y="605.0" /><rect fill="#900" height="48" stroke="#900" stroke-width="5" transform="rotate(90,1909.0,565.0)" width="32" x="1893.0" y="541.0" /><rect fill="#900" height="48" stroke="#900" stroke-width="5" transform="rotate(90,1989.0,565.0)" width="32" x="1973.0" y="541.0" /><rect fill="#900" height="48" stroke="#900" stroke-width="5" transform="rotate(180,1909.0,853.0)" width="32" x="1893.0" y="829.0" /><rect fill="#900" height="48" stroke="#900" stroke-width="5" transform="rotate(270,1413.0,613.0)" width="32" x="1397.0" y="589.0" /><circle cx="2557.0" cy="461.0" fill="#900" r="16" stroke="#900" stroke-width="5" /><rect fill="#900" height="48" stroke="#900" stroke-width="5" transform="rotate(315,1037.0,3133.0)" width="32" x="1021.0" y="3109.0" /><rect fill="#900" height="48" stroke="#900" stroke-width="5" transform="rotate(315,1093.0,3141.0)" width="32" x="1077.0" y="3117.0" /><rect fill="#900" height="48" stroke="#900" stroke-width="5" transform="rotate(90,1413.0,381.0)" width="32" x="1397.0" y="357.0" /><ellipse cx="2453.0" cy="469.0" fill="#900" rx="12" ry="24" stroke="#900" stroke-width="5" /><ellipse cx="2453.0" cy="445.0" fill="#900" rx="12" ry="24" stroke="#900" stroke-width="5" /><ellipse cx="2453.0" cy="421.0" fill="#900" rx="12" ry="24" stroke="#900" stroke-width="5" /><ellipse cx="2477.0" cy="469.0" fill="#900" rx="12" ry="24" stroke="#900" stroke-width="5" /><ellipse cx="2477.0" cy="445.0" fill="#900" rx="12" ry="24" stroke="#900" stroke-width="5" /><ellipse cx="2477.0" cy="421.0" fill="#900" rx="12" ry="24" stroke="#900" stroke-width="5" /><rect fill="#090" height="24" stroke="#090" stroke-width="5" transform="rotate(90,2461.0,629.0)" width="24" x="2449.0" y="617.0" /><rect fill="#900" height="48" stroke="#900" stroke-width="5" transform="rotate(0,1829.0,165.0)" width="32" x="1813.0" y="141.0" /><rect fill="#900" height="48" stroke="#900" stroke-width="5" transform="rotate(180,1957.0,165.0)" width="32" x="1941.0" y="141.0" /><circle cx="2509.0" cy="637.0" fill="#090" r="16" stroke="#090" stroke-width="5" /><circle cx="1413.0" cy="677.0" fill="#009" r="16" stroke="#009" stroke-width="5" /><rect fill="#900" height="48" stroke="#900" stroke-width="5" transform="rotate(90,1589.0,1005.0)" width="32" x="1573.0" y="981.0" /><rect fill="#900" height="48" stroke="#900" stroke-width="5" transform="rotate(180,2021.0,853.0)" width="32" x="2005.0" y="829.0" /><rect fill="#900" height="48" stroke="#900" stroke-width="5" transform="rotate(225,2373.0,629.0)" width="32" x="2357.0" y="605.0" /><rect fill="#900" height="48" stroke="#900" stroke-width="5" transform="rotate(135,2381.0,445.0)" width="32" x="2365.0" y="421.0" /><circle cx="1413.0" cy="533.0" fill="#090" r="16" stroke="#090" stroke-width="5" /><circle cx="1349.0" cy="2717.0" fill="#009" r="16" stroke="#009" stroke-width="5" /><circle cx="1285.0" cy="2845.0" fill="#009" r="16" stroke="#009" stroke-width="5" /><rect fill="#090" height="24" stroke="#090" stroke-width="5" transform="rotate(270,933.0,2781.0)" width="24" x="921.0" y="2769.0" /><rect fill="#900" height="48" stroke="#900" stroke-width="5" transform="rotate(270,1173.0,2701.0)" width="32" x="1157.0" y="2677.0" /><rect fill="#900" height="48" stroke="#900" stroke-width="5" transform="rotate(270,1165.0,2757.0)" width="32" x="1149.0" y="2733.0" /><rect fill="#900" height="48" stroke="#900" stroke-width="5" transform="rotate(270,1037.0,2669.0)" width="32" x="1021.0" y="2645.0" /><rect fill="#900" height="48" stroke="#900" stroke-width="5" transform="rotate(270,1117.0,2581.0)" width="32" x="1101.0" y="2557.0" /><rect fill="#900" height="48" stroke="#900" stroke-width="5" transform="rotate(270,1197.0,2525.0)" width="32" x="1181.0" y="2501.0" /><rect fill="#900" height="48" stroke="#900" stroke-width="5" transform="rotate(270,981.0,2525.0)" width="32" x="965.0" y="2501.0" /><rect fill="#900" height="48" stroke="#900" stroke-width="5" transform="rotate(270,813.0,3341.0)" width="32" x="797.0" y="3317.0" /><rect fill="#900" height="48" stroke="#900" stroke-width="5" transform="rotate(270,885.0,3341.0)" width="32" x="869.0" y="3317.0" /><rect fill="#900" height="48" stroke="#900" stroke-width="5" transform="rotate(270,965.0,3341.0)" width="32" x="949.0" y="3317.0" /><rect fill="#900" height="48" stroke="#900" stroke-width="5" transform="rotate(225,1117.0,3229.0)" width="32" x="1101.0" y="3205.0" /><rect fill="#900" height="48" stroke="#900" stroke-width="5" transform="rotate(315,813.0,3237.0)" width="32" x="797.0" y="3213.0" /><rect fill="#900" height="48" stroke="#900" stroke-width="5" transform="rotate(270,893.0,3261.0)" width="32" x="877.0" y="3237.0" /><rect fill="#900" height="48" stroke="#900" stroke-width="5" transform="rotate(270,1021.0,3245.0)" width="32" x="1005.0" y="3221.0" /><rect fill="#900" height="48" stroke="#900" stroke-width="5" transform="rotate(315,789.0,3149.0)" width="32" x="773.0" y="3125.0" /><circle cx="1221.0" cy="2589.0" fill="#009" r="16" stroke="#009" stroke-width="5" /><circle cx="1637.0" cy="661.0" fill="#009" r="16" stroke="#009" stroke-width="5" /><circle cx="1285.0" cy="2781.0" fill="#009" r="16" stroke="#009" stroke-width="5" /><rect fill="#900" height="48" stroke="#900" stroke-width="5" transform="rotate(180,1821.0,1525.0)" width="32" x="1805.0" y="1501.0" /><rect fill="#900" height="48" stroke="#900" stroke-width="5" transform="rotate(90,1573.0,1389.0)" width="32" x="1557.0" y="1365.0" /><rect fill="#900" height="48" stroke="#900" stroke-width="5" transform="rotate(90,1573.0,1437.0)" width="32" x="1557.0" y="1413.0" /><rect fill="#090" height="24" stroke="#090" stroke-width="5" transform="rotate(270,1317.0,3317.0)" width="24" x="1305.0" y="3305.0" /><circle cx="1277.0" cy="3325.0" fill="#900" r="16" stroke="#900" stroke-width="5" /><circle cx="1213.0" cy="3325.0" fill="#090" r="16" stroke="#090" stroke-width="5" /><circle cx="1213.0" cy="3309.0" fill="#090" r="16" stroke="#090" stroke-width="5" /><circle cx="1237.0" cy="3325.0" fill="#090" r="16" stroke="#090" stroke-width="5" /><circle cx="1237.0" cy="3309.0" fill="#090" r="16" stroke="#090" stroke-width="5" /><ellipse cx="1309.0" cy="3317.0" fill="#090" rx="12" ry="24" stroke="#090" stroke-width="5" /><rect fill="#009" height="24" stroke="#009" stroke-width="5" transform="rotate(0,1309.0,3205.0)" width="24" x="1297.0" y="3193.0" /><circle cx="1349.0" cy="3229.0" fill="#090" r="16" stroke="#090" stroke-width="5" /><circle cx="2229.0" cy="3405.0" fill="#090" r="16" stroke="#090" stroke-width="5" /><circle cx="2333.0" cy="3405.0" fill="#090" r="16" stroke="#090" stroke-width="5" /><circle cx="2349.0" cy="3237.0" fill="#090" r="16" stroke="#090" stroke-width="5" /><circle cx="1453.0" cy="3117.0" fill="#090" r="16" stroke="#090" stroke-width="5" /><circle cx="1461.0" cy="3285.0" fill="#090" r="16" stroke="#090" stroke-width="5" /><circle cx="2485.0" cy="3389.0" fill="#090" r="16" stroke="#090" stroke-width="5" /><circle cx="1701.0" cy="3453.0" fill="#090" r="16" stroke="#090" stroke-width="5" /><circle cx="2389.0" cy="3349.0" fill="#090" r="16" stroke="#090" stroke-width="5" /><circle cx="725.0" cy="3181.0" fill="#009" r="16" stroke="#009" stroke-width="5" /><circle cx="2261.0" cy="3261.0" fill="#090" r="16" stroke="#090" stroke-width="5" /><circle cx="2685.0" cy="3125.0" fill="#090" r="16" stroke="#090" stroke-width="5" /><circle cx="2629.0" cy="3141.0" fill="#090" r="16" stroke="#090" stroke-width="5" /><rect fill="#900" height="48" stroke="#900" stroke-width="5" transform="rotate(180,1989.0,3261.0)" width="32" x="1973.0" y="3237.0" /><rect fill="#900" height="48" stroke="#900" stroke-width="5" transform="rotate(180,1965.0,3101.0)" width="32" x="1949.0" y="3077.0" /><rect fill="#900" height="48" stroke="#900" stroke-width="5" transform="rotate(180,1861.0,3293.0)" width="32" x="1845.0" y="3269.0" /><rect fill="#900" height="48" stroke="#900" stroke-width="5" transform="rotate(180,2085.0,3101.0)" width="32" x="2069.0" y="3077.0" /><rect fill="#900" height="48" stroke="#900" stroke-width="5" transform="rotate(180,2029.0,3421.0)" width="32" x="2013.0" y="3397.0" /><rect fill="#900" height="48" stroke="#900" stroke-width="5" transform="rotate(180,2021.0,2917.0)" width="32" x="2005.0" y="2893.0" /><rect fill="#900" height="48" stroke="#900" stroke-width="5" transform="rotate(180,2125.0,3237.0)" width="32" x="2109.0" y="3213.0" /><circle cx="1573.0" cy="3253.0" fill="#900" r="16" stroke="#900" stroke-width="5" /><circle cx="1581.0" cy="3149.0" fill="#090" r="16" stroke="#090" stroke-width="5" /><circle cx="1581.0" cy="3061.0" fill="#090" r="16" stroke="#090" stroke-width="5" /><circle cx="1637.0" cy="3309.0" fill="#090" r="16" stroke="#090" stroke-width="5" /><rect fill="#900" height="48" stroke="#900" stroke-width="5" transform="rotate(180,1869.0,3189.0)" width="32" x="1853.0" y="3165.0" /><rect fill="#900" height="48" stroke="#900" stroke-width="5" transform="rotate(180,1965.0,3333.0)" width="32" x="1949.0" y="3309.0" /><rect fill="#900" height="48" stroke="#900" stroke-width="5" transform="rotate(180,2125.0,3357.0)" width="32" x="2109.0" y="3333.0" /><rect fill="#900" height="48" stroke="#900" stroke-width="5" transform="rotate(180,2141.0,2997.0)" width="32" x="2125.0" y="2973.0" /><circle cx="2485.0" cy="3045.0" fill="#090" r="16" stroke="#090" stroke-width="5" /><circle cx="2565.0" cy="3101.0" fill="#090" r="16" stroke="#090" stroke-width="5" /><circle cx="1797.0" cy="3725.0" fill="#009" r="16" stroke="#009" stroke-width="5" /><circle cx="1749.0" cy="3741.0" fill="#009" r="16" stroke="#009" stroke-width="5" /><circle cx="1837.0" cy="3741.0" fill="#009" r="16" stroke="#009" stroke-width="5" /><circle cx="1853.0" cy="3701.0" fill="#009" r="16" stroke="#009" stroke-width="5" /><rect fill="#900" height="48" stroke="#900" stroke-width="5" transform="rotate(180,2493.0,3253.0)" width="32" x="2477.0" y="3229.0" /></svg>