<?xml version="1.0" encoding="utf-8" ?>
<svg baseProfile="tiny" height="783" version="1.2" viewBox="0 0 2554 1954" width="1024" xmlns="http://www.w3.org/2000/svg" xmlns:ev="http://www.w3.org/2001/xml-events" xmlns:xlink="http://www.w3.org/1999/xlink"><defs /><line stroke="#333" stroke-width="10" x1="125.0" x2="125.0" y1="5.0" y2="1197.0" /><line stroke="#333" stroke-width="10" x1="2549.0" x2="2549.0" y1="1701.0" y2="5.0" /><line stroke="#333" stroke-width="10" x1="2549.0" x2="125.0" y1="5.0" y2="5.0" /><line stroke="#333" stroke-width="10" x1="1653.0" x2="349.0" y1="781.0" y2="781.0" /><line stroke="#333" stroke-width="10" x1="1653.0" x2="1653.0" y1="149.0" y2="661.0" /><line stroke="#333" stroke-width="10" x1="349.0" x2="1653.0" y1="149.0" y2="149.0" /><line stroke="#333" stroke-width="10" x1="1245.0" x2="1245.0" y1="1565.0" y2="1325.0" /><line stroke="#333" stroke-width="10" x1="1957.0" x2="1245.0" y1="1565.0" y2="1565.0" /><line stroke="#333" stroke-width="10" x1="1957.0" x2="1957.0" y1="781.0" y2="1565.0" /><line stroke="#333" stroke-width="10" x1="1245.0" x2="1781.0" y1="909.0" y2="909.0" /><line stroke="#333" stroke-width="10" x1="1781.0" x2="1781.0" y1="397.0" y2="269.0" /><line stroke="#333" stroke-width="10" x1="1781.0" x2="1957.0" y1="269.0" y2="269.0" /><line stroke="#333" stroke-width="10" x1="1781.0" x2="1781.0" y1="909.0" y2="781.0" /><line stroke="#333" stroke-width="10" x1="1781.0" x2="1957.0" y1="781.0" y2="781.0" /><line stroke="#333" stroke-width="10" x1="1957.0" x2="1957.0" y1="269.0" y2="397.0" /><line stroke="#333" stroke-width="10" x1="1957.0" x2="1949.0" y1="397.0" y2="397.0" /><line stroke="#333" stroke-width="10" x1="2381.0" x2="2373.0" y1="1565.0" y2="1565.0" /><line stroke="#333" stroke-width="10" x1="2381.0" x2="2381.0" y1="253.0" y2="1565.0" /><line stroke="#333" stroke-width="10" x1="1773.0" x2="1773.0" y1="653.0" y2="517.0" /><line stroke="#333" stroke-width="10" x1="2093.0" x2="1773.0" y1="653.0" y2="653.0" /><line stroke="#333" stroke-width="10" x1="1773.0" x2="1885.0" y1="517.0" y2="517.0" /><line stroke="#333" stroke-width="10" x1="2093.0" x2="2093.0" y1="517.0" y2="253.0" /><line stroke="#333" stroke-width="10" x1="2093.0" x2="2381.0" y1="253.0" y2="253.0" /><line stroke="#999" stroke-width="3" x1="317.0" x2="317.0" y1="813.0" y2="117.0" /><line stroke="#999" stroke-width="3" x1="1685.0" x2="317.0" y1="813.0" y2="813.0" /><line stroke="#999" stroke-width="3" x1="317.0" x2="1685.0" y1="117.0" y2="117.0" /><line stroke="#999" stroke-width="3" x1="1213.0" x2="1989.0" y1="1597.0" y2="1597.0" /><line stroke="#999" stroke-width="3" x1="1989.0" x2="1989.0" y1="1597.0" y2="749.0" /><line stroke="#999" stroke-width="3" x1="1749.0" x2="1213.0" y1="877.0" y2="877.0" /><line stroke="#999" stroke-width="3" x1="1749.0" x2="1749.0" y1="749.0" y2="877.0" /><line stroke="#999" stroke-width="3" x1="1989.0" x2="1749.0" y1="749.0" y2="749.0" /><line stroke="#999" stroke-width="3" x1="1685.0" x2="1685.0" y1="117.0" y2="813.0" /><line stroke="#999" stroke-width="3" x1="1749.0" x2="1749.0" y1="237.0" y2="429.0" /><line stroke="#999" stroke-width="3" x1="1749.0" x2="1989.0" y1="429.0" y2="429.0" /><line stroke="#999" stroke-width="3" x1="1989.0" x2="1989.0" y1="429.0" y2="237.0" /><line stroke="#999" stroke-width="3" x1="1989.0" x2="1749.0" y1="237.0" y2="237.0" /><line stroke="#999" stroke-width="3" x1="2053.0" x2="2053.0" y1="221.0" y2="477.0" /><line stroke="#999" stroke-width="3" x1="2221.0" x2="2421.0" y1="1597.0" y2="1597.0" /><line stroke="#999" stroke-width="3" x1="2421.0" x2="2421.0" y1="1597.0" y2="221.0" /><line stroke="#999" stroke-width="3" x1="2421.0" x2="2053.0" y1="221.0" y2="221.0" /><line stroke="#999" stroke-width="3" x1="2053.0" x2="2053.0" y1="693.0" y2="933.0" /><line stroke="#999" stroke-width="3" x1="1733.0" x2="2053.0" y1="693.0" y2="693.0" /><line stroke="#999" stroke-width="3" x1="2053.0" x2="1733.0" y1="477.0" y2="477.0" /><line stroke="#999" stroke-width="3" x1="1733.0" x2="1733.0" y1="477.0" y2="693.0" /><line stroke="#333" stroke-width="10" x1="1629.0" x2="405.0" y1="173.0" y2="173.0" /><line stroke="#333" stroke-width="10" x1="1613.0" x2="1605.0" y1="685.0" y2="677.0" /><line stroke="#333" stroke-width="10" x1="1613.0" x2="1629.0" y1="741.0" y2="741.0" /><line stroke="#333" stroke-width="10" x1="1629.0" x2="1613.0" y1="685.0" y2="685.0" /><line stroke="#666" stroke-width="20" x1="1629.0" x2="1629.0" y1="685.0" y2="741.0" /><line stroke="#666" stroke-width="20" x1="1613.0" x2="1613.0" y1="741.0" y2="685.0" /><line stroke="#333" stroke-width="10" x1="1653.0" x2="1629.0" y1="661.0" y2="685.0" /><line stroke="#333" stroke-width="10" x1="1629.0" x2="1653.0" y1="741.0" y2="765.0" /><line stroke="#333" stroke-width="10" x1="1653.0" x2="1653.0" y1="765.0" y2="781.0" /><line stroke="#999" stroke-width="3" x1="1653.0" x2="1653.0" y1="661.0" y2="765.0" /><line stroke="#999" stroke-width="3" x1="1541.0" x2="1413.0" y1="685.0" y2="685.0" /><line stroke="#999" stroke-width="3" x1="1541.0" x2="1541.0" y1="301.0" y2="685.0" /><line stroke="#999" stroke-width="3" x1="1413.0" x2="1541.0" y1="301.0" y2="301.0" /><line stroke="#999" stroke-width="3" x1="1413.0" x2="1413.0" y1="685.0" y2="557.0" /><line stroke="#999" stroke-width="3" x1="1413.0" x2="1349.0" y1="557.0" y2="557.0" /><line stroke="#999" stroke-width="3" x1="1349.0" x2="1349.0" y1="557.0" y2="365.0" /><line stroke="#999" stroke-width="3" x1="1413.0" x2="1413.0" y1="365.0" y2="301.0" /><line stroke="#999" stroke-width="3" x1="1349.0" x2="1413.0" y1="365.0" y2="365.0" /><line stroke="#999" stroke-width="3" x1="1157.0" x2="1157.0" y1="685.0" y2="621.0" /><line stroke="#999" stroke-width="3" x1="1349.0" x2="1157.0" y1="685.0" y2="685.0" /><line stroke="#999" stroke-width="3" x1="1349.0" x2="1349.0" y1="621.0" y2="685.0" /><line stroke="#999" stroke-width="3" x1="1157.0" x2="1349.0" y1="621.0" y2="621.0" /><line stroke="#999" stroke-width="3" x1="1157.0" x2="1157.0" y1="557.0" y2="493.0" /><line stroke="#999" stroke-width="3" x1="1285.0" x2="1157.0" y1="557.0" y2="557.0" /><line stroke="#999" stroke-width="3" x1="1157.0" x2="1221.0" y1="493.0" y2="493.0" /><line stroke="#999" stroke-width="3" x1="1285.0" x2="1285.0" y1="301.0" y2="557.0" /><line stroke="#999" stroke-width="3" x1="1221.0" x2="1285.0" y1="301.0" y2="301.0" /><line stroke="#999" stroke-width="3" x1="1221.0" x2="1221.0" y1="493.0" y2="301.0" /><line stroke="#999" stroke-width="3" x1="1029.0" x2="1029.0" y1="685.0" y2="429.0" /><line stroke="#999" stroke-width="3" x1="1093.0" x2="1029.0" y1="685.0" y2="685.0" /><line stroke="#999" stroke-width="3" x1="1093.0" x2="1093.0" y1="429.0" y2="685.0" /><line stroke="#999" stroke-width="3" x1="1029.0" x2="1093.0" y1="429.0" y2="429.0" /><line stroke="#999" stroke-width="3" x1="1157.0" x2="1029.0" y1="365.0" y2="365.0" /><line stroke="#999" stroke-width="3" x1="1157.0" x2="1157.0" y1="301.0" y2="365.0" /><line stroke="#999" stroke-width="3" x1="773.0" x2="773.0" y1="621.0" y2="557.0" /><line stroke="#999" stroke-width="3" x1="837.0" x2="773.0" y1="621.0" y2="621.0" /><line stroke="#999" stroke-width="3" x1="965.0" x2="965.0" y1="557.0" y2="621.0" /><line stroke="#999" stroke-width="3" x1="773.0" x2="965.0" y1="557.0" y2="557.0" /><line stroke="#999" stroke-width="3" x1="965.0" x2="901.0" y1="621.0" y2="621.0" /><line stroke="#999" stroke-width="3" x1="901.0" x2="901.0" y1="621.0" y2="685.0" /><line stroke="#999" stroke-width="3" x1="837.0" x2="837.0" y1="685.0" y2="621.0" /><line stroke="#999" stroke-width="3" x1="901.0" x2="837.0" y1="685.0" y2="685.0" /><line stroke="#999" stroke-width="3" x1="709.0" x2="709.0" y1="493.0" y2="301.0" /><line stroke="#999" stroke-width="3" x1="965.0" x2="709.0" y1="493.0" y2="493.0" /><line stroke="#999" stroke-width="3" x1="965.0" x2="965.0" y1="301.0" y2="493.0" /><line stroke="#999" stroke-width="3" x1="901.0" x2="965.0" y1="301.0" y2="301.0" /><line stroke="#999" stroke-width="3" x1="709.0" x2="837.0" y1="301.0" y2="301.0" /><line stroke="#999" stroke-width="3" x1="837.0" x2="837.0" y1="301.0" y2="365.0" /><line stroke="#999" stroke-width="3" x1="901.0" x2="901.0" y1="429.0" y2="301.0" /><line stroke="#999" stroke-width="3" x1="773.0" x2="901.0" y1="429.0" y2="429.0" /><line stroke="#999" stroke-width="3" x1="773.0" x2="773.0" y1="365.0" y2="429.0" /><line stroke="#999" stroke-width="3" x1="837.0" x2="773.0" y1="365.0" y2="365.0" /><line stroke="#999" stroke-width="3" x1="709.0" x2="581.0" y1="685.0" y2="685.0" /><line stroke="#999" stroke-width="3" x1="709.0" x2="709.0" y1="557.0" y2="685.0" /><line stroke="#999" stroke-width="3" x1="645.0" x2="709.0" y1="557.0" y2="557.0" /><line stroke="#999" stroke-width="3" x1="645.0" x2="645.0" y1="429.0" y2="557.0" /><line stroke="#999" stroke-width="3" x1="581.0" x2="645.0" y1="429.0" y2="429.0" /><line stroke="#999" stroke-width="3" x1="581.0" x2="581.0" y1="685.0" y2="429.0" /><line stroke="#999" stroke-width="3" x1="581.0" x2="581.0" y1="365.0" y2="237.0" /><line stroke="#999" stroke-width="3" x1="645.0" x2="581.0" y1="365.0" y2="365.0" /><line stroke="#999" stroke-width="3" x1="645.0" x2="645.0" y1="237.0" y2="365.0" /><line stroke="#999" stroke-width="3" x1="581.0" x2="645.0" y1="237.0" y2="237.0" /><line stroke="#999" stroke-width="3" x1="1093.0" x2="1157.0" y1="301.0" y2="301.0" /><line stroke="#999" stroke-width="3" x1="1093.0" x2="1093.0" y1="237.0" y2="301.0" /><line stroke="#999" stroke-width="3" x1="1029.0" x2="1029.0" y1="365.0" y2="237.0" /><line stroke="#999" stroke-width="3" x1="1029.0" x2="1093.0" y1="237.0" y2="237.0" /><line stroke="#333" stroke-width="10" x1="389.0" x2="365.0" y1="325.0" y2="325.0" /><line stroke="#333" stroke-width="10" x1="365.0" x2="389.0" y1="581.0" y2="581.0" /><line stroke="#666" stroke-width="20" x1="389.0" x2="389.0" y1="325.0" y2="581.0" /><line stroke="#666" stroke-width="20" x1="365.0" x2="365.0" y1="581.0" y2="325.0" /><line stroke="#333" stroke-width="10" x1="365.0" x2="349.0" y1="325.0" y2="293.0" /><line stroke="#333" stroke-width="10" x1="349.0" x2="349.0" y1="293.0" y2="149.0" /><line stroke="#333" stroke-width="10" x1="349.0" x2="349.0" y1="781.0" y2="613.0" /><line stroke="#333" stroke-width="10" x1="349.0" x2="365.0" y1="613.0" y2="581.0" /><line stroke="#999" stroke-width="3" x1="349.0" x2="349.0" y1="613.0" y2="293.0" /><line stroke="#333" stroke-width="10" x1="405.0" x2="405.0" y1="173.0" y2="293.0" /><line stroke="#333" stroke-width="10" x1="405.0" x2="389.0" y1="293.0" y2="325.0" /><line stroke="#333" stroke-width="10" x1="389.0" x2="405.0" y1="581.0" y2="613.0" /><line stroke="#333" stroke-width="10" x1="405.0" x2="405.0" y1="613.0" y2="749.0" /><line stroke="#999" stroke-width="3" x1="405.0" x2="405.0" y1="293.0" y2="613.0" /><line stroke="#999" stroke-width="3" x1="1445.0" x2="1445.0" y1="653.0" y2="333.0" /><line stroke="#999" stroke-width="3" x1="1509.0" x2="1445.0" y1="653.0" y2="653.0" /><line stroke="#999" stroke-width="3" x1="1509.0" x2="1509.0" y1="333.0" y2="653.0" /><line stroke="#999" stroke-width="3" x1="1445.0" x2="1509.0" y1="333.0" y2="333.0" /><line stroke="#999" stroke-width="3" x1="613.0" x2="613.0" y1="653.0" y2="589.0" /><line stroke="#999" stroke-width="3" x1="677.0" x2="613.0" y1="653.0" y2="653.0" /><line stroke="#999" stroke-width="3" x1="677.0" x2="677.0" y1="589.0" y2="653.0" /><line stroke="#999" stroke-width="3" x1="613.0" x2="677.0" y1="589.0" y2="589.0" /><line stroke="#333" stroke-width="10" x1="405.0" x2="1605.0" y1="749.0" y2="749.0" /><line stroke="#333" stroke-width="10" x1="1605.0" x2="1613.0" y1="749.0" y2="741.0" /><line stroke="#333" stroke-width="10" x1="1605.0" x2="1629.0" y1="677.0" y2="653.0" /><line stroke="#333" stroke-width="10" x1="1629.0" x2="1629.0" y1="653.0" y2="173.0" /><line stroke="#999" stroke-width="3" x1="1605.0" x2="1605.0" y1="749.0" y2="677.0" /><line stroke="#999" stroke-width="3" x1="453.0" x2="453.0" y1="333.0" y2="589.0" /><line stroke="#999" stroke-width="3" x1="453.0" x2="525.0" y1="589.0" y2="589.0" /><line stroke="#999" stroke-width="3" x1="525.0" x2="525.0" y1="589.0" y2="333.0" /><line stroke="#999" stroke-width="3" x1="525.0" x2="453.0" y1="333.0" y2="333.0" /><line stroke="#999" stroke-width="3" x1="421.0" x2="421.0" y1="301.0" y2="621.0" /><line stroke="#999" stroke-width="3" x1="421.0" x2="557.0" y1="621.0" y2="621.0" /><line stroke="#999" stroke-width="3" x1="557.0" x2="557.0" y1="621.0" y2="301.0" /><line stroke="#999" stroke-width="3" x1="557.0" x2="421.0" y1="301.0" y2="301.0" /><line stroke="#333" stroke-width="10" x1="1789.0" x2="1789.0" y1="277.0" y2="389.0" /><line stroke="#333" stroke-width="10" x1="1949.0" x2="1949.0" y1="389.0" y2="277.0" /><line stroke="#333" stroke-width="10" x1="1949.0" x2="1869.0" y1="277.0" y2="277.0" /><line stroke="#333" stroke-width="10" x1="1837.0" x2="1869.0" y1="389.0" y2="389.0" /><line stroke="#333" stroke-width="10" x1="1789.0" x2="1781.0" y1="397.0" y2="397.0" /><line stroke="#333" stroke-width="10" x1="1837.0" x2="1837.0" y1="397.0" y2="389.0" /><line stroke="#333" stroke-width="10" x1="1789.0" x2="1789.0" y1="389.0" y2="397.0" /><line stroke="#999" stroke-width="3" x1="1837.0" x2="1789.0" y1="397.0" y2="397.0" /><line stroke="#999" stroke-width="3" x1="1789.0" x2="1837.0" y1="389.0" y2="389.0" /><line stroke="#333" stroke-width="10" x1="1869.0" x2="1901.0" y1="389.0" y2="389.0" /><line stroke="#333" stroke-width="10" x1="1869.0" x2="1789.0" y1="277.0" y2="277.0" /><line stroke="#999" stroke-width="3" x1="1869.0" x2="1869.0" y1="389.0" y2="277.0" /><line stroke="#333" stroke-width="10" x1="1901.0" x2="1837.0" y1="397.0" y2="397.0" /><line stroke="#333" stroke-width="10" x1="1949.0" x2="1949.0" y1="397.0" y2="389.0" /><line stroke="#333" stroke-width="10" x1="1901.0" x2="1901.0" y1="389.0" y2="397.0" /><line stroke="#999" stroke-width="3" x1="1901.0" x2="1949.0" y1="389.0" y2="389.0" /><line stroke="#999" stroke-width="3" x1="1949.0" x2="1901.0" y1="397.0" y2="397.0" /><line stroke="#999" stroke-width="3" x1="1797.0" x2="1797.0" y1="381.0" y2="285.0" /><line stroke="#999" stroke-width="3" x1="1861.0" x2="1797.0" y1="381.0" y2="381.0" /><line stroke="#999" stroke-width="3" x1="1861.0" x2="1861.0" y1="285.0" y2="381.0" /><line stroke="#999" stroke-width="3" x1="1797.0" x2="1861.0" y1="285.0" y2="285.0" /><line stroke="#333" stroke-width="10" x1="1965.0" x2="2093.0" y1="517.0" y2="517.0" /><line stroke="#333" stroke-width="10" x1="1885.0" x2="1885.0" y1="517.0" y2="525.0" /><line stroke="#333" stroke-width="10" x1="1965.0" x2="1965.0" y1="525.0" y2="517.0" /><line stroke="#333" stroke-width="10" x1="1885.0" x2="1781.0" y1="525.0" y2="525.0" /><line stroke="#333" stroke-width="10" x1="1781.0" x2="1781.0" y1="525.0" y2="645.0" /><line stroke="#333" stroke-width="10" x1="1781.0" x2="2093.0" y1="645.0" y2="645.0" /><line stroke="#333" stroke-width="10" x1="2093.0" x2="2093.0" y1="645.0" y2="525.0" /><line stroke="#333" stroke-width="10" x1="2093.0" x2="1965.0" y1="525.0" y2="525.0" /><line stroke="#999" stroke-width="3" x1="1885.0" x2="1965.0" y1="517.0" y2="517.0" /><line stroke="#999" stroke-width="3" x1="1965.0" x2="1885.0" y1="525.0" y2="525.0" /><line stroke="#333" stroke-width="10" x1="2373.0" x2="2365.0" y1="1565.0" y2="1557.0" /><line stroke="#333" stroke-width="10" x1="2301.0" x2="2293.0" y1="1557.0" y2="1565.0" /><line stroke="#333" stroke-width="10" x1="2293.0" x2="2269.0" y1="1565.0" y2="1565.0" /><line stroke="#333" stroke-width="10" x1="2365.0" x2="2365.0" y1="1557.0" y2="1501.0" /><line stroke="#333" stroke-width="10" x1="2301.0" x2="2301.0" y1="333.0" y2="413.0" /><line stroke="#333" stroke-width="10" x1="2365.0" x2="2109.0" y1="269.0" y2="269.0" /><line stroke="#333" stroke-width="10" x1="2205.0" x2="2301.0" y1="333.0" y2="333.0" /><line stroke="#333" stroke-width="10" x1="2205.0" x2="2205.0" y1="349.0" y2="333.0" /><line stroke="#333" stroke-width="10" x1="2109.0" x2="2109.0" y1="269.0" y2="429.0" /><line stroke="#333" stroke-width="10" x1="2109.0" x2="2189.0" y1="429.0" y2="429.0" /><line stroke="#333" stroke-width="10" x1="2285.0" x2="2205.0" y1="349.0" y2="349.0" /><line stroke="#333" stroke-width="10" x1="2189.0" x2="2189.0" y1="429.0" y2="445.0" /><line stroke="#333" stroke-width="10" x1="2189.0" x2="2109.0" y1="445.0" y2="445.0" /><line stroke="#333" stroke-width="10" x1="2109.0" x2="2109.0" y1="445.0" y2="677.0" /><line stroke="#333" stroke-width="10" x1="2109.0" x2="2285.0" y1="861.0" y2="861.0" /><line stroke="#333" stroke-width="10" x1="2285.0" x2="2285.0" y1="861.0" y2="645.0" /><line stroke="#333" stroke-width="10" x1="2269.0" x2="2269.0" y1="1565.0" y2="885.0" /><line stroke="#333" stroke-width="10" x1="2269.0" x2="2093.0" y1="885.0" y2="885.0" /><line stroke="#999" stroke-width="3" x1="2053.0" x2="2221.0" y1="933.0" y2="933.0" /><line stroke="#999" stroke-width="3" x1="2221.0" x2="2221.0" y1="933.0" y2="1597.0" /><line stroke="#999" stroke-width="3" x1="2373.0" x2="2293.0" y1="1565.0" y2="1565.0" /><line stroke="#333" stroke-width="10" x1="2365.0" x2="2365.0" y1="1501.0" y2="1437.0" /><line stroke="#333" stroke-width="10" x1="2301.0" x2="2301.0" y1="1501.0" y2="1557.0" /><line stroke="#333" stroke-width="10" x1="2365.0" x2="2365.0" y1="1437.0" y2="1373.0" /><line stroke="#333" stroke-width="10" x1="2301.0" x2="2301.0" y1="1437.0" y2="1501.0" /><line stroke="#333" stroke-width="10" x1="2365.0" x2="2365.0" y1="1373.0" y2="1309.0" /><line stroke="#333" stroke-width="10" x1="2301.0" x2="2301.0" y1="1373.0" y2="1437.0" /><line stroke="#333" stroke-width="10" x1="2365.0" x2="2365.0" y1="1309.0" y2="1245.0" /><line stroke="#333" stroke-width="10" x1="2301.0" x2="2301.0" y1="1309.0" y2="1373.0" /><line stroke="#333" stroke-width="10" x1="2365.0" x2="2365.0" y1="1245.0" y2="1181.0" /><line stroke="#333" stroke-width="10" x1="2301.0" x2="2301.0" y1="1245.0" y2="1309.0" /><line stroke="#333" stroke-width="10" x1="2365.0" x2="2365.0" y1="1181.0" y2="1117.0" /><line stroke="#333" stroke-width="10" x1="2301.0" x2="2301.0" y1="1181.0" y2="1245.0" /><line stroke="#333" stroke-width="10" x1="2365.0" x2="2365.0" y1="1117.0" y2="1053.0" /><line stroke="#333" stroke-width="10" x1="2301.0" x2="2301.0" y1="1117.0" y2="1181.0" /><line stroke="#333" stroke-width="10" x1="2365.0" x2="2365.0" y1="1053.0" y2="989.0" /><line stroke="#333" stroke-width="10" x1="2301.0" x2="2301.0" y1="1053.0" y2="1117.0" /><line stroke="#333" stroke-width="10" x1="2301.0" x2="2301.0" y1="989.0" y2="1053.0" /><line stroke="#333" stroke-width="10" x1="2365.0" x2="2365.0" y1="989.0" y2="925.0" /><line stroke="#333" stroke-width="10" x1="2365.0" x2="2365.0" y1="925.0" y2="861.0" /><line stroke="#333" stroke-width="10" x1="2301.0" x2="2301.0" y1="925.0" y2="989.0" /><line stroke="#333" stroke-width="10" x1="2301.0" x2="2301.0" y1="861.0" y2="925.0" /><line stroke="#333" stroke-width="10" x1="2365.0" x2="2365.0" y1="861.0" y2="797.0" /><line stroke="#333" stroke-width="10" x1="2365.0" x2="2365.0" y1="797.0" y2="733.0" /><line stroke="#333" stroke-width="10" x1="2301.0" x2="2301.0" y1="797.0" y2="861.0" /><line stroke="#333" stroke-width="10" x1="2365.0" x2="2365.0" y1="733.0" y2="669.0" /><line stroke="#333" stroke-width="10" x1="2301.0" x2="2301.0" y1="733.0" y2="797.0" /><line stroke="#333" stroke-width="10" x1="2301.0" x2="2301.0" y1="669.0" y2="733.0" /><line stroke="#333" stroke-width="10" x1="2365.0" x2="2365.0" y1="669.0" y2="605.0" /><line stroke="#333" stroke-width="10" x1="2365.0" x2="2365.0" y1="605.0" y2="541.0" /><line stroke="#333" stroke-width="10" x1="2301.0" x2="2301.0" y1="605.0" y2="669.0" /><line stroke="#333" stroke-width="10" x1="2365.0" x2="2365.0" y1="541.0" y2="477.0" /><line stroke="#333" stroke-width="10" x1="2301.0" x2="2301.0" y1="541.0" y2="605.0" /><line stroke="#333" stroke-width="10" x1="2301.0" x2="2301.0" y1="477.0" y2="541.0" /><line stroke="#333" stroke-width="10" x1="2365.0" x2="2365.0" y1="477.0" y2="413.0" /><line stroke="#333" stroke-width="10" x1="2365.0" x2="2365.0" y1="413.0" y2="333.0" /><line stroke="#333" stroke-width="10" x1="2301.0" x2="2301.0" y1="413.0" y2="477.0" /><line stroke="#333" stroke-width="10" x1="2365.0" x2="2365.0" y1="333.0" y2="269.0" /><line stroke="#999" stroke-width="3" x1="2365.0" x2="2301.0" y1="1501.0" y2="1501.0" /><line stroke="#999" stroke-width="3" x1="2365.0" x2="2301.0" y1="1437.0" y2="1437.0" /><line stroke="#999" stroke-width="3" x1="2365.0" x2="2301.0" y1="1373.0" y2="1373.0" /><line stroke="#999" stroke-width="3" x1="2365.0" x2="2301.0" y1="1309.0" y2="1309.0" /><line stroke="#999" stroke-width="3" x1="2365.0" x2="2301.0" y1="1245.0" y2="1245.0" /><line stroke="#999" stroke-width="3" x1="2365.0" x2="2301.0" y1="1181.0" y2="1181.0" /><line stroke="#999" stroke-width="3" x1="2365.0" x2="2301.0" y1="1117.0" y2="1117.0" /><line stroke="#999" stroke-width="3" x1="2365.0" x2="2301.0" y1="1053.0" y2="1053.0" /><line stroke="#999" stroke-width="3" x1="2365.0" x2="2301.0" y1="989.0" y2="989.0" /><line stroke="#999" stroke-width="3" x1="2365.0" x2="2301.0" y1="925.0" y2="925.0" /><line stroke="#999" stroke-width="3" x1="2365.0" x2="2301.0" y1="861.0" y2="861.0" /><line stroke="#999" stroke-width="3" x1="2365.0" x2="2301.0" y1="797.0" y2="797.0" /><line stroke="#999" stroke-width="3" x1="2365.0" x2="2301.0" y1="733.0" y2="733.0" /><line stroke="#999" stroke-width="3" x1="2365.0" x2="2301.0" y1="669.0" y2="669.0" /><line stroke="#999" stroke-width="3" x1="2365.0" x2="2301.0" y1="605.0" y2="605.0" /><line stroke="#999" stroke-width="3" x1="2365.0" x2="2301.0" y1="541.0" y2="541.0" /><line stroke="#999" stroke-width="3" x1="2365.0" x2="2301.0" y1="477.0" y2="477.0" /><line stroke="#999" stroke-width="3" x1="2365.0" x2="2301.0" y1="413.0" y2="413.0" /><line stroke="#999" stroke-width="3" x1="2365.0" x2="2301.0" y1="333.0" y2="333.0" /><line stroke="#333" stroke-width="10" x1="2093.0" x2="2093.0" y1="885.0" y2="837.0" /><line stroke="#333" stroke-width="10" x1="2093.0" x2="2093.0" y1="677.0" y2="653.0" /><line stroke="#333" stroke-width="10" x1="2109.0" x2="2109.0" y1="837.0" y2="861.0" /><line stroke="#333" stroke-width="10" x1="2109.0" x2="2093.0" y1="677.0" y2="677.0" /><line stroke="#333" stroke-width="10" x1="2093.0" x2="2109.0" y1="837.0" y2="837.0" /><line stroke="#999" stroke-width="3" x1="2093.0" x2="2093.0" y1="837.0" y2="677.0" /><line stroke="#999" stroke-width="3" x1="2109.0" x2="2109.0" y1="677.0" y2="837.0" /><line stroke="#999" stroke-width="3" x1="2109.0" x2="2285.0" y1="837.0" y2="861.0" /><line stroke="#333" stroke-width="10" x1="2285.0" x2="2285.0" y1="645.0" y2="613.0" /><line stroke="#999" stroke-width="3" x1="2109.0" x2="2285.0" y1="677.0" y2="645.0" /><line stroke="#333" stroke-width="10" x1="2285.0" x2="2285.0" y1="613.0" y2="581.0" /><line stroke="#999" stroke-width="3" x1="2109.0" x2="2285.0" y1="677.0" y2="613.0" /><line stroke="#333" stroke-width="10" x1="2285.0" x2="2285.0" y1="581.0" y2="549.0" /><line stroke="#333" stroke-width="10" x1="2285.0" x2="2285.0" y1="549.0" y2="349.0" /><line stroke="#999" stroke-width="3" x1="2109.0" x2="2285.0" y1="677.0" y2="581.0" /><line stroke="#999" stroke-width="3" x1="2109.0" x2="2285.0" y1="677.0" y2="549.0" /><line stroke="#333" stroke-width="10" x1="629.0" x2="741.0" y1="1701.0" y2="1701.0" /><line stroke="#999" stroke-width="3" x1="1173.0" x2="1173.0" y1="1293.0" y2="1261.0" /><line stroke="#999" stroke-width="3" x1="1173.0" x2="917.0" y1="1261.0" y2="1261.0" /><line stroke="#999" stroke-width="3" x1="1173.0" x2="1173.0" y1="1261.0" y2="1245.0" /><line stroke="#999" stroke-width="3" x1="917.0" x2="917.0" y1="1229.0" y2="1261.0" /><line stroke="#999" stroke-width="3" x1="1173.0" x2="917.0" y1="1229.0" y2="1229.0" /><line stroke="#999" stroke-width="3" x1="1173.0" x2="1173.0" y1="1229.0" y2="1197.0" /><line stroke="#999" stroke-width="3" x1="917.0" x2="917.0" y1="1197.0" y2="1229.0" /><line stroke="#999" stroke-width="3" x1="1173.0" x2="917.0" y1="1197.0" y2="1197.0" /><line stroke="#999" stroke-width="3" x1="1173.0" x2="1173.0" y1="1197.0" y2="1165.0" /><line stroke="#999" stroke-width="3" x1="917.0" x2="917.0" y1="1165.0" y2="1197.0" /><line stroke="#999" stroke-width="3" x1="1173.0" x2="917.0" y1="1165.0" y2="1165.0" /><line stroke="#999" stroke-width="3" x1="1173.0" x2="1173.0" y1="1165.0" y2="1133.0" /><line stroke="#999" stroke-width="3" x1="917.0" x2="917.0" y1="1133.0" y2="1165.0" /><line stroke="#999" stroke-width="3" x1="1173.0" x2="917.0" y1="1133.0" y2="1133.0" /><line stroke="#999" stroke-width="3" x1="1173.0" x2="1173.0" y1="1133.0" y2="1101.0" /><line stroke="#999" stroke-width="3" x1="917.0" x2="917.0" y1="1101.0" y2="1133.0" /><line stroke="#999" stroke-width="3" x1="1173.0" x2="917.0" y1="1101.0" y2="1101.0" /><line stroke="#999" stroke-width="3" x1="1173.0" x2="1173.0" y1="1101.0" y2="1069.0" /><line stroke="#999" stroke-width="3" x1="917.0" x2="917.0" y1="1069.0" y2="1101.0" /><line stroke="#999" stroke-width="3" x1="1173.0" x2="917.0" y1="1069.0" y2="1069.0" /><line stroke="#999" stroke-width="3" x1="1173.0" x2="1173.0" y1="1069.0" y2="1037.0" /><line stroke="#999" stroke-width="3" x1="917.0" x2="917.0" y1="1037.0" y2="1069.0" /><line stroke="#999" stroke-width="3" x1="1173.0" x2="917.0" y1="1037.0" y2="1037.0" /><line stroke="#999" stroke-width="3" x1="1173.0" x2="1173.0" y1="1037.0" y2="1005.0" /><line stroke="#999" stroke-width="3" x1="917.0" x2="917.0" y1="1005.0" y2="1037.0" /><line stroke="#999" stroke-width="3" x1="1173.0" x2="917.0" y1="1005.0" y2="1005.0" /><line stroke="#999" stroke-width="3" x1="1173.0" x2="1173.0" y1="1005.0" y2="973.0" /><line stroke="#999" stroke-width="3" x1="917.0" x2="917.0" y1="973.0" y2="1005.0" /><line stroke="#999" stroke-width="3" x1="1173.0" x2="917.0" y1="973.0" y2="973.0" /><line stroke="#999" stroke-width="3" x1="1173.0" x2="1173.0" y1="973.0" y2="941.0" /><line stroke="#999" stroke-width="3" x1="917.0" x2="917.0" y1="941.0" y2="973.0" /><line stroke="#999" stroke-width="3" x1="1173.0" x2="917.0" y1="941.0" y2="941.0" /><line stroke="#999" stroke-width="3" x1="917.0" x2="1173.0" y1="1613.0" y2="1613.0" /><line stroke="#999" stroke-width="3" x1="1173.0" x2="1173.0" y1="1613.0" y2="1581.0" /><line stroke="#999" stroke-width="3" x1="917.0" x2="917.0" y1="1581.0" y2="1613.0" /><line stroke="#999" stroke-width="3" x1="1173.0" x2="917.0" y1="1581.0" y2="1581.0" /><line stroke="#999" stroke-width="3" x1="1173.0" x2="1173.0" y1="1581.0" y2="1549.0" /><line stroke="#999" stroke-width="3" x1="917.0" x2="917.0" y1="1549.0" y2="1581.0" /><line stroke="#999" stroke-width="3" x1="1173.0" x2="917.0" y1="1549.0" y2="1549.0" /><line stroke="#999" stroke-width="3" x1="1173.0" x2="1173.0" y1="1549.0" y2="1517.0" /><line stroke="#999" stroke-width="3" x1="917.0" x2="917.0" y1="1517.0" y2="1549.0" /><line stroke="#999" stroke-width="3" x1="1173.0" x2="917.0" y1="1517.0" y2="1517.0" /><line stroke="#999" stroke-width="3" x1="1173.0" x2="1173.0" y1="1517.0" y2="1485.0" /><line stroke="#999" stroke-width="3" x1="917.0" x2="917.0" y1="1485.0" y2="1517.0" /><line stroke="#999" stroke-width="3" x1="1173.0" x2="917.0" y1="1485.0" y2="1485.0" /><line stroke="#999" stroke-width="3" x1="1173.0" x2="1173.0" y1="1485.0" y2="1453.0" /><line stroke="#999" stroke-width="3" x1="917.0" x2="917.0" y1="1453.0" y2="1485.0" /><line stroke="#999" stroke-width="3" x1="1173.0" x2="917.0" y1="1453.0" y2="1453.0" /><line stroke="#999" stroke-width="3" x1="1173.0" x2="1173.0" y1="1453.0" y2="1421.0" /><line stroke="#999" stroke-width="3" x1="917.0" x2="917.0" y1="1421.0" y2="1453.0" /><line stroke="#999" stroke-width="3" x1="1173.0" x2="917.0" y1="1421.0" y2="1421.0" /><line stroke="#999" stroke-width="3" x1="1173.0" x2="1173.0" y1="1421.0" y2="1389.0" /><line stroke="#999" stroke-width="3" x1="917.0" x2="917.0" y1="1389.0" y2="1421.0" /><line stroke="#999" stroke-width="3" x1="1173.0" x2="917.0" y1="1389.0" y2="1389.0" /><line stroke="#999" stroke-width="3" x1="1173.0" x2="1173.0" y1="1389.0" y2="1357.0" /><line stroke="#999" stroke-width="3" x1="917.0" x2="917.0" y1="1357.0" y2="1389.0" /><line stroke="#999" stroke-width="3" x1="1173.0" x2="917.0" y1="1357.0" y2="1357.0" /><line stroke="#999" stroke-width="3" x1="1173.0" x2="1173.0" y1="1357.0" y2="1325.0" /><line stroke="#999" stroke-width="3" x1="917.0" x2="917.0" y1="1325.0" y2="1357.0" /><line stroke="#999" stroke-width="3" x1="1173.0" x2="917.0" y1="1325.0" y2="1325.0" /><line stroke="#999" stroke-width="3" x1="1173.0" x2="1173.0" y1="1325.0" y2="1309.0" /><line stroke="#999" stroke-width="3" x1="917.0" x2="917.0" y1="1293.0" y2="1325.0" /><line stroke="#999" stroke-width="3" x1="1173.0" x2="917.0" y1="1293.0" y2="1293.0" /><line stroke="#999" stroke-width="3" x1="917.0" x2="917.0" y1="1261.0" y2="1293.0" /><line stroke="#333" stroke-width="10" x1="1245.0" x2="1245.0" y1="1229.0" y2="909.0" /><line stroke="#333" stroke-width="10" x1="1261.0" x2="1941.0" y1="1549.0" y2="1549.0" /><line stroke="#333" stroke-width="10" x1="1941.0" x2="1941.0" y1="1549.0" y2="797.0" /><line stroke="#333" stroke-width="10" x1="1261.0" x2="1261.0" y1="925.0" y2="1245.0" /><line stroke="#333" stroke-width="10" x1="1261.0" x2="1261.0" y1="1309.0" y2="1549.0" /><line stroke="#333" stroke-width="10" x1="1181.0" x2="1261.0" y1="1309.0" y2="1309.0" /><line stroke="#333" stroke-width="10" x1="1245.0" x2="1213.0" y1="1325.0" y2="1325.0" /><line stroke="#333" stroke-width="10" x1="1181.0" x2="1181.0" y1="1325.0" y2="1309.0" /><line stroke="#333" stroke-width="10" x1="1181.0" x2="1213.0" y1="1229.0" y2="1229.0" /><line stroke="#333" stroke-width="10" x1="1261.0" x2="1181.0" y1="1245.0" y2="1245.0" /><line stroke="#333" stroke-width="10" x1="1181.0" x2="1181.0" y1="1245.0" y2="1229.0" /><line stroke="#999" stroke-width="3" x1="1173.0" x2="1173.0" y1="1309.0" y2="1293.0" /><line stroke="#999" stroke-width="3" x1="1173.0" x2="1173.0" y1="1245.0" y2="1229.0" /><line stroke="#999" stroke-width="3" x1="1173.0" x2="1181.0" y1="1245.0" y2="1245.0" /><line stroke="#999" stroke-width="3" x1="1173.0" x2="1181.0" y1="1309.0" y2="1309.0" /><line stroke="#333" stroke-width="10" x1="1213.0" x2="1245.0" y1="1229.0" y2="1229.0" /><line stroke="#333" stroke-width="10" x1="1213.0" x2="1181.0" y1="1325.0" y2="1325.0" /><line stroke="#999" stroke-width="3" x1="1213.0" x2="1213.0" y1="1597.0" y2="1325.0" /><line stroke="#999" stroke-width="3" x1="1213.0" x2="1213.0" y1="877.0" y2="1229.0" /><line stroke="#333" stroke-width="10" x1="1797.0" x2="1261.0" y1="925.0" y2="925.0" /><line stroke="#333" stroke-width="10" x1="1941.0" x2="1797.0" y1="797.0" y2="797.0" /><line stroke="#333" stroke-width="10" x1="1797.0" x2="1797.0" y1="797.0" y2="925.0" /><line stroke="#00d" stroke-width="20" x1="1837.0" x2="1837.0" y1="869.0" y2="805.0" /><line stroke="#00d" stroke-width="20" x1="1901.0" x2="1837.0" y1="869.0" y2="869.0" /><line stroke="#00d" stroke-width="20" x1="1901.0" x2="1901.0" y1="805.0" y2="869.0" /><line stroke="#00d" stroke-width="20" x1="1837.0" x2="1901.0" y1="805.0" y2="805.0" /><line stroke="#999" stroke-width="3" x1="261.0" x2="261.0" y1="1133.0" y2="1109.0" /><line stroke="#999" stroke-width="3" x1="261.0" x2="485.0" y1="949.0" y2="949.0" /><line stroke="#999" stroke-width="3" x1="717.0" x2="261.0" y1="1589.0" y2="1133.0" /><line stroke="#999" stroke-width="3" x1="813.0" x2="717.0" y1="1589.0" y2="1589.0" /><line stroke="#999" stroke-width="3" x1="485.0" x2="813.0" y1="949.0" y2="1277.0" /><line stroke="#999" stroke-width="3" x1="261.0" x2="261.0" y1="1029.0" y2="949.0" /><line stroke="#999" stroke-width="3" x1="405.0" x2="445.0" y1="1253.0" y2="1213.0" /><line stroke="#999" stroke-width="3" x1="261.0" x2="285.0" y1="1109.0" y2="1133.0" /><line stroke="#999" stroke-width="3" x1="285.0" x2="317.0" y1="1133.0" y2="1165.0" /><line stroke="#999" stroke-width="3" x1="317.0" x2="349.0" y1="1165.0" y2="1197.0" /><line stroke="#999" stroke-width="3" x1="349.0" x2="381.0" y1="1197.0" y2="1229.0" /><line stroke="#999" stroke-width="3" x1="381.0" x2="405.0" y1="1229.0" y2="1253.0" /><line stroke="#999" stroke-width="3" x1="445.0" x2="413.0" y1="1213.0" y2="1181.0" /><line stroke="#999" stroke-width="3" x1="413.0" x2="381.0" y1="1181.0" y2="1149.0" /><line stroke="#999" stroke-width="3" x1="381.0" x2="349.0" y1="1149.0" y2="1117.0" /><line stroke="#999" stroke-width="3" x1="349.0" x2="309.0" y1="1117.0" y2="1077.0" /><line stroke="#999" stroke-width="3" x1="309.0" x2="261.0" y1="1077.0" y2="1029.0" /><line stroke="#999" stroke-width="3" x1="261.0" x2="261.0" y1="1029.0" y2="1109.0" /><line stroke="#999" stroke-width="3" x1="309.0" x2="285.0" y1="1077.0" y2="1133.0" /><line stroke="#999" stroke-width="3" x1="349.0" x2="317.0" y1="1117.0" y2="1165.0" /><line stroke="#999" stroke-width="3" x1="381.0" x2="349.0" y1="1149.0" y2="1197.0" /><line stroke="#999" stroke-width="3" x1="413.0" x2="381.0" y1="1181.0" y2="1229.0" /><line stroke="#333" stroke-width="10" x1="821.0" x2="2029.0" y1="1701.0" y2="1701.0" /><line stroke="#333" stroke-width="10" x1="821.0" x2="821.0" y1="1949.0" y2="1701.0" /><line stroke="#333" stroke-width="10" x1="741.0" x2="741.0" y1="1701.0" y2="1869.0" /><line stroke="#333" stroke-width="10" x1="477.0" x2="821.0" y1="1949.0" y2="1949.0" /><line stroke="#333" stroke-width="10" x1="741.0" x2="477.0" y1="1869.0" y2="1869.0" /><line stroke="#333" stroke-width="10" x1="157.0" x2="477.0" y1="1909.0" y2="1949.0" /><line stroke="#333" stroke-width="10" x1="477.0" x2="181.0" y1="1869.0" y2="1829.0" /><line stroke="#333" stroke-width="10" x1="5.0" x2="157.0" y1="1773.0" y2="1909.0" /><line stroke="#333" stroke-width="10" x1="181.0" x2="93.0" y1="1829.0" y2="1749.0" /><line stroke="#333" stroke-width="10" x1="13.0" x2="5.0" y1="1629.0" y2="1773.0" /><line stroke="#333" stroke-width="10" x1="93.0" x2="101.0" y1="1749.0" y2="1653.0" /><line stroke="#333" stroke-width="10" x1="141.0" x2="13.0" y1="1485.0" y2="1629.0" /><line stroke="#333" stroke-width="10" x1="101.0" x2="221.0" y1="1653.0" y2="1581.0" /><line stroke="#333" stroke-width="10" x1="413.0" x2="629.0" y1="1485.0" y2="1701.0" /><line stroke="#333" stroke-width="10" x1="125.0" x2="317.0" y1="1197.0" y2="1389.0" /><line stroke="#333" stroke-width="10" x1="381.0" x2="413.0" y1="1501.0" y2="1485.0" /><line stroke="#333" stroke-width="10" x1="445.0" x2="381.0" y1="1565.0" y2="1501.0" /><line stroke="#333" stroke-width="10" x1="221.0" x2="317.0" y1="1581.0" y2="1661.0" /><line stroke="#333" stroke-width="10" x1="317.0" x2="445.0" y1="1661.0" y2="1565.0" /><line stroke="#333" stroke-width="10" x1="317.0" x2="285.0" y1="1389.0" y2="1413.0" /><line stroke="#333" stroke-width="10" x1="285.0" x2="213.0" y1="1413.0" y2="1341.0" /><line stroke="#333" stroke-width="10" x1="213.0" x2="101.0" y1="1341.0" y2="1445.0" /><line stroke="#333" stroke-width="10" x1="101.0" x2="141.0" y1="1445.0" y2="1485.0" /><line stroke="#999" stroke-width="3" x1="317.0" x2="413.0" y1="1389.0" y2="1485.0" /><line stroke="#999" stroke-width="3" x1="741.0" x2="821.0" y1="1701.0" y2="1701.0" /><line stroke="#999" stroke-width="3" x1="477.0" x2="477.0" y1="1869.0" y2="1949.0" /><line stroke="#999" stroke-width="3" x1="821.0" x2="741.0" y1="1949.0" y2="1869.0" /><line stroke="#999" stroke-width="3" x1="181.0" x2="157.0" y1="1829.0" y2="1909.0" /><line stroke="#999" stroke-width="3" x1="93.0" x2="5.0" y1="1749.0" y2="1773.0" /><line stroke="#999" stroke-width="3" x1="101.0" x2="13.0" y1="1653.0" y2="1629.0" /><line stroke="#999" stroke-width="3" x1="221.0" x2="141.0" y1="1581.0" y2="1485.0" /><line stroke="#999" stroke-width="3" x1="813.0" x2="813.0" y1="1277.0" y2="1589.0" /><line stroke="#999" stroke-width="3" x1="1541.0" x2="1541.0" y1="1341.0" y2="1213.0" /><line stroke="#999" stroke-width="3" x1="1685.0" x2="1541.0" y1="1341.0" y2="1341.0" /><line stroke="#999" stroke-width="3" x1="1685.0" x2="1685.0" y1="1213.0" y2="1341.0" /><line stroke="#999" stroke-width="3" x1="1541.0" x2="1685.0" y1="1213.0" y2="1213.0" /><line stroke="#333" stroke-width="10" x1="2133.0" x2="2133.0" y1="1749.0" y2="1709.0" /><line stroke="#333" stroke-width="10" x1="2069.0" x2="2069.0" y1="1709.0" y2="1749.0" /><line stroke="#333" stroke-width="10" x1="2133.0" x2="2133.0" y1="1765.0" y2="1749.0" /><line stroke="#333" stroke-width="10" x1="2069.0" x2="2069.0" y1="1749.0" y2="1765.0" /><line stroke="#333" stroke-width="10" x1="2157.0" x2="2133.0" y1="1789.0" y2="1765.0" /><line stroke="#333" stroke-width="10" x1="2069.0" x2="2045.0" y1="1765.0" y2="1789.0" /><line stroke="#333" stroke-width="10" x1="2157.0" x2="2157.0" y1="1829.0" y2="1789.0" /><line stroke="#333" stroke-width="10" x1="2045.0" x2="2045.0" y1="1789.0" y2="1829.0" /><line stroke="#333" stroke-width="10" x1="2045.0" x2="2069.0" y1="1829.0" y2="1829.0" /><line stroke="#0d0" stroke-width="20" x1="2069.0" x2="2133.0" y1="1829.0" y2="1829.0" /><line stroke="#333" stroke-width="10" x1="2133.0" x2="2157.0" y1="1829.0" y2="1829.0" /><line stroke="#666" stroke-width="20" x1="2133.0" x2="2069.0" y1="1765.0" y2="1765.0" /><line stroke="#666" stroke-width="20" x1="2069.0" x2="2133.0" y1="1749.0" y2="1749.0" /><line stroke="#999" stroke-width="3" x1="2069.0" x2="2133.0" y1="1709.0" y2="1709.0" /><line stroke="#333" stroke-width="10" x1="2133.0" x2="2173.0" y1="1709.0" y2="1701.0" /><line stroke="#333" stroke-width="10" x1="2173.0" x2="2549.0" y1="1701.0" y2="1701.0" /><line stroke="#333" stroke-width="10" x1="2029.0" x2="2069.0" y1="1701.0" y2="1709.0" /><line stroke="#999" stroke-width="3" x1="2085.0" x2="2085.0" y1="1733.0" y2="1725.0" /><line stroke="#999" stroke-width="3" x1="2117.0" x2="2085.0" y1="1733.0" y2="1733.0" /><line stroke="#999" stroke-width="3" x1="2117.0" x2="2117.0" y1="1725.0" y2="1733.0" /><line stroke="#999" stroke-width="3" x1="2085.0" x2="2117.0" y1="1725.0" y2="1725.0" /><ellipse cx="1829.0" cy="105.0" fill="#009" rx="12" ry="24" stroke="#009" stroke-width="5" /><rect fill="#009" height="24" stroke="#009" stroke-width="5" transform="rotate(180,1157.0,429.0)" width="24" x="1145.0" y="417.0" /><rect fill="#090" height="24" stroke="#090" stroke-width="5" transform="rotate(270,357.0,1589.0)" width="24" x="345.0" y="1577.0" /><rect fill="#090" height="24" stroke="#090" stroke-width="5" transform="rotate(270,181.0,1413.0)" width="24" x="169.0" y="1401.0" /><rect fill="#090" height="24" stroke="#090" stroke-width="5" transform="rotate(270,213.0,1381.0)" width="24" x="201.0" y="1369.0" /><rect fill="#090" height="24" stroke="#090" stroke-width="5" transform="rotate(270,149.0,1437.0)" width="24" x="137.0" y="1425.0" /><rect fill="#090" height="24" stroke="#090" stroke-width="5" transform="rotate(270,317.0,1621.0)" width="24" x="305.0" y="1609.0" /><rect fill="#090" height="24" stroke="#090" stroke-width="5" transform="rotate(270,397.0,1557.0)" width="24" x="385.0" y="1545.0" /><circle cx="1613.0" cy="1277.0" fill="#900" r="16" stroke="#900" stroke-width="5" /><circle cx="421.0" cy="1005.0" fill="#009" r="16" stroke="#009" stroke-width="5" /><circle cx="485.0" cy="1061.0" fill="#009" r="16" stroke="#009" stroke-width="5" /><circle cx="549.0" cy="1125.0" fill="#009" r="16" stroke="#009" stroke-width="5" /><circle cx="613.0" cy="1189.0" fill="#009" r="16" stroke="#009" stroke-width="5" /><circle cx="677.0" cy="1245.0" fill="#009" r="16" stroke="#009" stroke-width="5" /><circle cx="485.0" cy="453.0" fill="#009" r="16" stroke="#009" stroke-width="5" /><rect fill="#090" height="24" stroke="#090" stroke-width="5" transform="rotate(270,1909.0,333.0)" width="24" x="1897.0" y="321.0" /><ellipse cx="1951.0" cy="109.0" fill="#009" rx="12" ry="24" stroke="#009" stroke-width="5" /><ellipse cx="2077.0" cy="109.0" fill="#009" rx="12" ry="24" stroke="#009" stroke-width="5" /><ellipse cx="2205.0" cy="109.0" fill="#009" rx="12" ry="24" stroke="#009" stroke-width="5" /><rect fill="#090" height="24" stroke="#090" stroke-width="5" transform="rotate(45,213.0,85.0)" width="24" x="201.0" y="73.0" /><rect fill="#090" height="24" stroke="#090" stroke-width="5" transform="rotate(0,973.0,709.0)" width="24" x="961.0" y="697.0" /><rect fill="#090" height="24" stroke="#090" stroke-width="5" transform="rotate(270,1917.0,589.0)" width="24" x="1905.0" y="577.0" /><rect fill="#090" height="24" stroke="#090" stroke-width="5" transform="rotate(180,2197.0,781.0)" width="24" x="2185.0" y="769.0" /><ellipse cx="541.0" cy="1285.0" fill="#900" rx="12" ry="24" stroke="#900" stroke-width="5" /><rect fill="#090" height="24" stroke="#090" stroke-width="5" transform="rotate(90,2101.0,1501.0)" width="24" x="2089.0" y="1489.0" /><rect fill="#090" height="24" stroke="#090" stroke-width="5" transform="rotate(45,1301.0,965.0)" width="24" x="1289.0" y="953.0" /><rect fill="#090" height="24" stroke="#090" stroke-width="5" transform="rotate(315,285.0,1501.0)" width="24" x="273.0" y="1489.0" /><rect fill="#090" height="24" stroke="#090" stroke-width="5" transform="rotate(135,2453.0,117.0)" width="24" x="2441.0" y="105.0" /><ellipse cx="285.0" cy="565.0" fill="#900" rx="12" ry="24" stroke="#900" stroke-width="5" /><ellipse cx="283.0" cy="505.0" fill="#900" rx="12" ry="24" stroke="#900" stroke-width="5" /><ellipse cx="285.0" cy="349.0" fill="#900" rx="12" ry="24" stroke="#900" stroke-width="5" /><ellipse cx="283.0" cy="403.0" fill="#900" rx="12" ry="24" stroke="#900" stroke-width="5" /><ellipse cx="283.0" cy="459.0" fill="#900" rx="12" ry="24" stroke="#900" stroke-width="5" /><ellipse cx="2101.0" cy="1093.0" fill="#900" rx="12" ry="24" stroke="#900" stroke-width="5" /><ellipse cx="2101.0" cy="1285.0" fill="#900" rx="12" ry="24" stroke="#900" stroke-width="5" /><ellipse cx="2485.0" cy="1309.0" fill="#900" rx="12" ry="24" stroke="#900" stroke-width="5" /><ellipse cx="2485.0" cy="253.0" fill="#900" rx="12" ry="24" stroke="#900" stroke-width="5" /><ellipse cx="853.0" cy="1645.0" fill="#900" rx="12" ry="24" stroke="#900" stroke-width="5" /><ellipse cx="733.0" cy="1021.0" fill="#900" rx="12" ry="24" stroke="#900" stroke-width="5" /><circle cx="805.0" cy="397.0" fill="#009" r="16" stroke="#009" stroke-width="5" /><circle cx="307.0" cy="1471.0" fill="#900" r="16" stroke="#900" stroke-width="5" /><circle cx="1039.0" cy="1279.0" fill="#900" r="16" stroke="#900" stroke-width="5" /><circle cx="1869.0" cy="181.0" fill="#900" r="16" stroke="#900" stroke-width="5" /><circle cx="1845.0" cy="589.0" fill="#900" r="16" stroke="#900" stroke-width="5" /><rect fill="#090" height="24" stroke="#090" stroke-width="5" transform="rotate(270,2029.0,591.0)" width="24" x="2017.0" y="579.0" /><rect fill="#090" height="24" stroke="#090" stroke-width="5" transform="rotate(270,1339.0,253.0)" width="24" x="1327.0" y="241.0" /><rect fill="#090" height="24" stroke="#090" stroke-width="5" transform="rotate(270,1725.0,1273.0)" width="24" x="1713.0" y="1261.0" /><rect fill="#090" height="24" stroke="#090" stroke-width="5" transform="rotate(270,227.0,1521.0)" width="24" x="215.0" y="1509.0" /><circle cx="373.0" cy="69.0" fill="#090" r="16" stroke="#090" stroke-width="5" /><circle cx="541.0" cy="69.0" fill="#090" r="16" stroke="#090" stroke-width="5" /><circle cx="711.0" cy="69.0" fill="#090" r="16" stroke="#090" stroke-width="5" /><circle cx="889.0" cy="69.0" fill="#090" r="16" stroke="#090" stroke-width="5" /><circle cx="1063.0" cy="69.0" fill="#090" r="16" stroke="#090" stroke-width="5" /><circle cx="1237.0" cy="69.0" fill="#090" r="16" stroke="#090" stroke-width="5" /><circle cx="1401.0" cy="69.0" fill="#090" r="16" stroke="#090" stroke-width="5" /><circle cx="765.0" cy="877.0" fill="#090" r="16" stroke="#090" stroke-width="5" /><circle cx="645.0" cy="877.0" fill="#090" r="16" stroke="#090" stroke-width="5" /><circle cx="517.0" cy="877.0" fill="#090" r="16" stroke="#090" stroke-width="5" /><circle cx="397.0" cy="877.0" fill="#090" r="16" stroke="#090" stroke-width="5" /><circle cx="277.0" cy="877.0" fill="#090" r="16" stroke="#090" stroke-width="5" /><circle cx="1045.0" cy="877.0" fill="#090" r="16" stroke="#090" stroke-width="5" /><circle cx="1045.0" cy="1669.0" fill="#090" r="16" stroke="#090" stroke-width="5" /><circle cx="1357.0" cy="1669.0" fill="#090" r="16" stroke="#090" stroke-width="5" /><circle cx="1717.0" cy="1661.0" fill="#090" r="16" stroke="#090" stroke-width="5" /><circle cx="1741.0" cy="181.0" fill="#090" r="16" stroke="#090" stroke-width="5" /><circle cx="2005.0" cy="181.0" fill="#090" r="16" stroke="#090" stroke-width="5" /><circle cx="1741.0" cy="85.0" fill="#009" r="16" stroke="#009" stroke-width="5" /><circle cx="2341.0" cy="133.0" fill="#009" r="16" stroke="#009" stroke-width="5" /><circle cx="2485.0" cy="965.0" fill="#009" r="16" stroke="#009" stroke-width="5" /><circle cx="2101.0" cy="1621.0" fill="#009" r="16" stroke="#009" stroke-width="5" /><circle cx="1549.0" cy="853.0" fill="#009" r="16" stroke="#009" stroke-width="5" /><circle cx="853.0" cy="997.0" fill="#009" r="16" stroke="#009" stroke-width="5" /><circle cx="205.0" cy="373.0" fill="#009" r="16" stroke="#009" stroke-width="5" /><circle cx="2213.0" cy="701.0" fill="#009" r="16" stroke="#009" stroke-width="5" /><circle cx="2157.0" cy="493.0" fill="#009" r="16" stroke="#009" stroke-width="5" /></svg>