<?xml version="1.0" encoding="utf-8" ?>
<svg baseProfile="tiny" height="317" version="1.2" viewBox="0 0 5082 1578" width="1024" xmlns="http://www.w3.org/2000/svg" xmlns:ev="http://www.w3.org/2001/xml-events" xmlns:xlink="http://www.w3.org/1999/xlink"><defs /><line stroke="#999" stroke-width="3" x1="389.0" x2="453.0" y1="805.0" y2="805.0" /><line stroke="#999" stroke-width="3" x1="453.0" x2="453.0" y1="805.0" y2="741.0" /><line stroke="#999" stroke-width="3" x1="453.0" x2="389.0" y1="741.0" y2="741.0" /><line stroke="#999" stroke-width="3" x1="389.0" x2="389.0" y1="741.0" y2="805.0" /><line stroke="#999" stroke-width="3" x1="325.0" x2="325.0" y1="869.0" y2="677.0" /><line stroke="#999" stroke-width="3" x1="325.0" x2="517.0" y1="677.0" y2="677.0" /><line stroke="#999" stroke-width="3" x1="517.0" x2="517.0" y1="677.0" y2="869.0" /><line stroke="#333" stroke-width="10" x1="261.0" x2="581.0" y1="1189.0" y2="1189.0" /><line stroke="#999" stroke-width="3" x1="517.0" x2="325.0" y1="869.0" y2="869.0" /><line stroke="#999" stroke-width="3" x1="5.0" x2="229.0" y1="613.0" y2="661.0" /><line stroke="#333" stroke-width="10" x1="261.0" x2="5.0" y1="357.0" y2="357.0" /><line stroke="#333" stroke-width="10" x1="5.0" x2="5.0" y1="357.0" y2="613.0" /><line stroke="#333" stroke-width="10" x1="5.0" x2="5.0" y1="613.0" y2="933.0" /><line stroke="#333" stroke-width="10" x1="837.0" x2="837.0" y1="613.0" y2="357.0" /><line stroke="#333" stroke-width="10" x1="837.0" x2="581.0" y1="357.0" y2="357.0" /><line stroke="#999" stroke-width="3" x1="581.0" x2="533.0" y1="357.0" y2="581.0" /><line stroke="#333" stroke-width="10" x1="581.0" x2="261.0" y1="357.0" y2="357.0" /><line stroke="#333" stroke-width="10" x1="581.0" x2="837.0" y1="1189.0" y2="1189.0" /><line stroke="#333" stroke-width="10" x1="837.0" x2="837.0" y1="1189.0" y2="933.0" /><line stroke="#999" stroke-width="3" x1="837.0" x2="613.0" y1="933.0" y2="885.0" /><line stroke="#333" stroke-width="10" x1="837.0" x2="837.0" y1="933.0" y2="869.0" /><line stroke="#333" stroke-width="10" x1="5.0" x2="261.0" y1="1189.0" y2="1189.0" /><line stroke="#333" stroke-width="10" x1="5.0" x2="5.0" y1="933.0" y2="1189.0" /><line stroke="#999" stroke-width="3" x1="261.0" x2="309.0" y1="1189.0" y2="965.0" /><line stroke="#999" stroke-width="3" x1="229.0" x2="5.0" y1="885.0" y2="933.0" /><line stroke="#999" stroke-width="3" x1="533.0" x2="581.0" y1="965.0" y2="1189.0" /><line stroke="#999" stroke-width="3" x1="613.0" x2="837.0" y1="661.0" y2="613.0" /><line stroke="#999" stroke-width="3" x1="309.0" x2="261.0" y1="581.0" y2="357.0" /><line stroke="#333" stroke-width="10" x1="309.0" x2="229.0" y1="965.0" y2="965.0" /><line stroke="#333" stroke-width="10" x1="309.0" x2="309.0" y1="885.0" y2="965.0" /><line stroke="#333" stroke-width="10" x1="229.0" x2="309.0" y1="885.0" y2="885.0" /><line stroke="#333" stroke-width="10" x1="229.0" x2="229.0" y1="965.0" y2="885.0" /><line stroke="#333" stroke-width="10" x1="613.0" x2="613.0" y1="885.0" y2="965.0" /><line stroke="#333" stroke-width="10" x1="533.0" x2="613.0" y1="885.0" y2="885.0" /><line stroke="#333" stroke-width="10" x1="533.0" x2="533.0" y1="965.0" y2="885.0" /><line stroke="#333" stroke-width="10" x1="613.0" x2="533.0" y1="965.0" y2="965.0" /><line stroke="#333" stroke-width="10" x1="613.0" x2="533.0" y1="661.0" y2="661.0" /><line stroke="#333" stroke-width="10" x1="533.0" x2="613.0" y1="581.0" y2="581.0" /><line stroke="#333" stroke-width="10" x1="533.0" x2="533.0" y1="661.0" y2="581.0" /><line stroke="#333" stroke-width="10" x1="613.0" x2="613.0" y1="581.0" y2="661.0" /><line stroke="#333" stroke-width="10" x1="309.0" x2="229.0" y1="661.0" y2="661.0" /><line stroke="#333" stroke-width="10" x1="309.0" x2="309.0" y1="581.0" y2="661.0" /><line stroke="#333" stroke-width="10" x1="229.0" x2="229.0" y1="661.0" y2="581.0" /><line stroke="#333" stroke-width="10" x1="229.0" x2="309.0" y1="581.0" y2="581.0" /><line stroke="#333" stroke-width="10" x1="853.0" x2="837.0" y1="709.0" y2="709.0" /><line stroke="#333" stroke-width="10" x1="837.0" x2="853.0" y1="837.0" y2="837.0" /><line stroke="#333" stroke-width="10" x1="853.0" x2="933.0" y1="837.0" y2="837.0" /><line stroke="#333" stroke-width="10" x1="933.0" x2="853.0" y1="709.0" y2="709.0" /><line stroke="#d00" stroke-width="20" x1="853.0" x2="853.0" y1="709.0" y2="837.0" /><line stroke="#333" stroke-width="10" x1="933.0" x2="1061.0" y1="837.0" y2="837.0" /><line stroke="#333" stroke-width="10" x1="1861.0" x2="1765.0" y1="709.0" y2="709.0" /><line stroke="#999" stroke-width="3" x1="933.0" x2="933.0" y1="709.0" y2="837.0" /><line stroke="#999" stroke-width="3" x1="1765.0" x2="1669.0" y1="837.0" y2="837.0" /><line stroke="#333" stroke-width="10" x1="1733.0" x2="1765.0" y1="965.0" y2="837.0" /><line stroke="#333" stroke-width="10" x1="1061.0" x2="1189.0" y1="965.0" y2="965.0" /><line stroke="#333" stroke-width="10" x1="1061.0" x2="1061.0" y1="837.0" y2="965.0" /><line stroke="#333" stroke-width="10" x1="1765.0" x2="1861.0" y1="837.0" y2="837.0" /><line stroke="#999" stroke-width="3" x1="1061.0" x2="1157.0" y1="709.0" y2="709.0" /><line stroke="#333" stroke-width="10" x1="1765.0" x2="1733.0" y1="709.0" y2="581.0" /><line stroke="#333" stroke-width="10" x1="1733.0" x2="1637.0" y1="581.0" y2="581.0" /><line stroke="#333" stroke-width="10" x1="1061.0" x2="1061.0" y1="581.0" y2="709.0" /><line stroke="#333" stroke-width="10" x1="1061.0" x2="933.0" y1="709.0" y2="709.0" /><line stroke="#999" stroke-width="3" x1="1157.0" x2="1669.0" y1="709.0" y2="709.0" /><line stroke="#999" stroke-width="3" x1="1669.0" x2="1637.0" y1="709.0" y2="677.0" /><line stroke="#999" stroke-width="3" x1="1637.0" x2="1189.0" y1="677.0" y2="677.0" /><line stroke="#999" stroke-width="3" x1="1189.0" x2="1157.0" y1="677.0" y2="709.0" /><line stroke="#999" stroke-width="3" x1="1669.0" x2="1765.0" y1="709.0" y2="709.0" /><line stroke="#999" stroke-width="3" x1="1669.0" x2="1157.0" y1="837.0" y2="837.0" /><line stroke="#999" stroke-width="3" x1="1157.0" x2="1189.0" y1="837.0" y2="869.0" /><line stroke="#999" stroke-width="3" x1="1189.0" x2="1637.0" y1="869.0" y2="869.0" /><line stroke="#999" stroke-width="3" x1="1637.0" x2="1669.0" y1="869.0" y2="837.0" /><line stroke="#999" stroke-width="3" x1="1157.0" x2="1061.0" y1="837.0" y2="837.0" /><line stroke="#999" stroke-width="3" x1="1637.0" x2="1189.0" y1="965.0" y2="965.0" /><line stroke="#333" stroke-width="10" x1="1637.0" x2="1637.0" y1="1093.0" y2="965.0" /><line stroke="#333" stroke-width="10" x1="1189.0" x2="1637.0" y1="1093.0" y2="1093.0" /><line stroke="#333" stroke-width="10" x1="1189.0" x2="1189.0" y1="965.0" y2="1093.0" /><line stroke="#333" stroke-width="10" x1="1637.0" x2="1733.0" y1="965.0" y2="965.0" /><line stroke="#999" stroke-width="3" x1="1189.0" x2="1637.0" y1="581.0" y2="581.0" /><line stroke="#333" stroke-width="10" x1="1637.0" x2="1637.0" y1="581.0" y2="453.0" /><line stroke="#333" stroke-width="10" x1="1637.0" x2="1189.0" y1="453.0" y2="453.0" /><line stroke="#333" stroke-width="10" x1="1189.0" x2="1189.0" y1="453.0" y2="581.0" /><line stroke="#333" stroke-width="10" x1="1189.0" x2="1061.0" y1="581.0" y2="581.0" /><line stroke="#999" stroke-width="3" x1="805.0" x2="837.0" y1="837.0" y2="869.0" /><line stroke="#999" stroke-width="3" x1="805.0" x2="805.0" y1="709.0" y2="837.0" /><line stroke="#999" stroke-width="3" x1="837.0" x2="805.0" y1="677.0" y2="709.0" /><line stroke="#333" stroke-width="10" x1="837.0" x2="837.0" y1="869.0" y2="837.0" /><line stroke="#333" stroke-width="10" x1="837.0" x2="837.0" y1="677.0" y2="613.0" /><line stroke="#333" stroke-width="10" x1="837.0" x2="837.0" y1="709.0" y2="677.0" /><line stroke="#d00" stroke-width="20" x1="837.0" x2="837.0" y1="837.0" y2="709.0" /><line stroke="#333" stroke-width="10" x1="1861.0" x2="1957.0" y1="837.0" y2="837.0" /><line stroke="#333" stroke-width="10" x1="1957.0" x2="1861.0" y1="709.0" y2="709.0" /><line stroke="#999" stroke-width="3" x1="1861.0" x2="1861.0" y1="709.0" y2="837.0" /><line stroke="#333" stroke-width="10" x1="1957.0" x2="2037.0" y1="837.0" y2="837.0" /><line stroke="#333" stroke-width="10" x1="2037.0" x2="1957.0" y1="709.0" y2="709.0" /><line stroke="#999" stroke-width="3" x1="1957.0" x2="1957.0" y1="837.0" y2="709.0" /><line stroke="#333" stroke-width="10" x1="2037.0" x2="2069.0" y1="837.0" y2="837.0" /><line stroke="#333" stroke-width="10" x1="2069.0" x2="2037.0" y1="709.0" y2="709.0" /><line stroke="#999" stroke-width="3" x1="2037.0" x2="2037.0" y1="709.0" y2="837.0" /><line stroke="#999" stroke-width="3" x1="2069.0" x2="2069.0" y1="709.0" y2="837.0" /><line stroke="#999" stroke-width="3" x1="2293.0" x2="2293.0" y1="709.0" y2="837.0" /><line stroke="#999" stroke-width="3" x1="2357.0" x2="2357.0" y1="805.0" y2="741.0" /><line stroke="#999" stroke-width="3" x1="2485.0" x2="2485.0" y1="741.0" y2="805.0" /><line stroke="#999" stroke-width="3" x1="2549.0" x2="2549.0" y1="709.0" y2="837.0" /><line stroke="#999" stroke-width="3" x1="2805.0" x2="2549.0" y1="837.0" y2="837.0" /><line stroke="#333" stroke-width="10" x1="2805.0" x2="2805.0" y1="1157.0" y2="837.0" /><line stroke="#333" stroke-width="10" x1="2069.0" x2="2277.0" y1="1157.0" y2="1285.0" /><line stroke="#333" stroke-width="10" x1="2069.0" x2="2069.0" y1="837.0" y2="1157.0" /><line stroke="#999" stroke-width="3" x1="2293.0" x2="2069.0" y1="837.0" y2="837.0" /><line stroke="#999" stroke-width="3" x1="2357.0" x2="2293.0" y1="805.0" y2="837.0" /><line stroke="#999" stroke-width="3" x1="2485.0" x2="2437.0" y1="805.0" y2="837.0" /><line stroke="#999" stroke-width="3" x1="2549.0" x2="2485.0" y1="837.0" y2="805.0" /><line stroke="#999" stroke-width="3" x1="2069.0" x2="2293.0" y1="709.0" y2="709.0" /><line stroke="#333" stroke-width="10" x1="2805.0" x2="2805.0" y1="709.0" y2="389.0" /><line stroke="#333" stroke-width="10" x1="2069.0" x2="2069.0" y1="389.0" y2="709.0" /><line stroke="#999" stroke-width="3" x1="2293.0" x2="2357.0" y1="709.0" y2="741.0" /><line stroke="#999" stroke-width="3" x1="2357.0" x2="2405.0" y1="741.0" y2="709.0" /><line stroke="#999" stroke-width="3" x1="2485.0" x2="2549.0" y1="741.0" y2="709.0" /><line stroke="#999" stroke-width="3" x1="2549.0" x2="2805.0" y1="709.0" y2="709.0" /><line stroke="#999" stroke-width="3" x1="2565.0" x2="2565.0" y1="1285.0" y2="1189.0" /><line stroke="#999" stroke-width="3" x1="2565.0" x2="2501.0" y1="1189.0" y2="1157.0" /><line stroke="#999" stroke-width="3" x1="2277.0" x2="2277.0" y1="1189.0" y2="1285.0" /><line stroke="#999" stroke-width="3" x1="2341.0" x2="2277.0" y1="1157.0" y2="1189.0" /><line stroke="#999" stroke-width="3" x1="2501.0" x2="2341.0" y1="1157.0" y2="1157.0" /><line stroke="#333" stroke-width="10" x1="2277.0" x2="2277.0" y1="1285.0" y2="1317.0" /><line stroke="#333" stroke-width="10" x1="2565.0" x2="2805.0" y1="1285.0" y2="1157.0" /><line stroke="#999" stroke-width="3" x1="2565.0" x2="2277.0" y1="1285.0" y2="1285.0" /><line stroke="#333" stroke-width="10" x1="2277.0" x2="2213.0" y1="1317.0" y2="1317.0" /><line stroke="#333" stroke-width="10" x1="2213.0" x2="2213.0" y1="1317.0" y2="1381.0" /><line stroke="#999" stroke-width="3" x1="2277.0" x2="2277.0" y1="1381.0" y2="1317.0" /><line stroke="#999" stroke-width="3" x1="2277.0" x2="2213.0" y1="1381.0" y2="1381.0" /><line stroke="#333" stroke-width="10" x1="2213.0" x2="2277.0" y1="1445.0" y2="1445.0" /><line stroke="#333" stroke-width="10" x1="2629.0" x2="2629.0" y1="1381.0" y2="1317.0" /><line stroke="#333" stroke-width="10" x1="2629.0" x2="2565.0" y1="1317.0" y2="1317.0" /><line stroke="#999" stroke-width="3" x1="2565.0" x2="2565.0" y1="1317.0" y2="1381.0" /><line stroke="#333" stroke-width="10" x1="2565.0" x2="2565.0" y1="1317.0" y2="1285.0" /><line stroke="#999" stroke-width="3" x1="2629.0" x2="2565.0" y1="1381.0" y2="1381.0" /><line stroke="#333" stroke-width="10" x1="2565.0" x2="2629.0" y1="1445.0" y2="1445.0" /><line stroke="#999" stroke-width="3" x1="2277.0" x2="2277.0" y1="1381.0" y2="1445.0" /><line stroke="#999" stroke-width="3" x1="2565.0" x2="2277.0" y1="1381.0" y2="1381.0" /><line stroke="#999" stroke-width="3" x1="2565.0" x2="2565.0" y1="1445.0" y2="1381.0" /><line stroke="#333" stroke-width="10" x1="2117.0" x2="2213.0" y1="1477.0" y2="1477.0" /><line stroke="#333" stroke-width="10" x1="2213.0" x2="2213.0" y1="1477.0" y2="1445.0" /><line stroke="#333" stroke-width="10" x1="2213.0" x2="2117.0" y1="1381.0" y2="1381.0" /><line stroke="#333" stroke-width="10" x1="2117.0" x2="2117.0" y1="1381.0" y2="1477.0" /><line stroke="#999" stroke-width="3" x1="2213.0" x2="2213.0" y1="1445.0" y2="1381.0" /><line stroke="#333" stroke-width="10" x1="2629.0" x2="2725.0" y1="1477.0" y2="1477.0" /><line stroke="#333" stroke-width="10" x1="2725.0" x2="2725.0" y1="1477.0" y2="1381.0" /><line stroke="#333" stroke-width="10" x1="2725.0" x2="2629.0" y1="1381.0" y2="1381.0" /><line stroke="#999" stroke-width="3" x1="2629.0" x2="2629.0" y1="1381.0" y2="1445.0" /><line stroke="#333" stroke-width="10" x1="2629.0" x2="2629.0" y1="1445.0" y2="1477.0" /><line stroke="#999" stroke-width="3" x1="2565.0" x2="2277.0" y1="1445.0" y2="1445.0" /><line stroke="#333" stroke-width="10" x1="2565.0" x2="2565.0" y1="1573.0" y2="1445.0" /><line stroke="#333" stroke-width="10" x1="2277.0" x2="2565.0" y1="1573.0" y2="1573.0" /><line stroke="#333" stroke-width="10" x1="2277.0" x2="2277.0" y1="1445.0" y2="1573.0" /><line stroke="#999" stroke-width="3" x1="2405.0" x2="2437.0" y1="709.0" y2="709.0" /><line stroke="#999" stroke-width="3" x1="2437.0" x2="2485.0" y1="709.0" y2="741.0" /><line stroke="#999" stroke-width="3" x1="2405.0" x2="2357.0" y1="837.0" y2="805.0" /><line stroke="#999" stroke-width="3" x1="2437.0" x2="2405.0" y1="837.0" y2="837.0" /><line stroke="#333" stroke-width="10" x1="2805.0" x2="2965.0" y1="837.0" y2="837.0" /><line stroke="#333" stroke-width="10" x1="2965.0" x2="2805.0" y1="709.0" y2="709.0" /><line stroke="#999" stroke-width="3" x1="2805.0" x2="2805.0" y1="709.0" y2="837.0" /><line stroke="#333" stroke-width="10" x1="2965.0" x2="2981.0" y1="837.0" y2="837.0" /><line stroke="#333" stroke-width="10" x1="2981.0" x2="2965.0" y1="709.0" y2="709.0" /><line stroke="#d00" stroke-width="20" x1="2965.0" x2="2965.0" y1="837.0" y2="709.0" /><line stroke="#333" stroke-width="10" x1="2981.0" x2="3109.0" y1="837.0" y2="837.0" /><line stroke="#333" stroke-width="10" x1="3109.0" x2="2981.0" y1="709.0" y2="709.0" /><line stroke="#d00" stroke-width="20" x1="2981.0" x2="2981.0" y1="709.0" y2="837.0" /><line stroke="#333" stroke-width="10" x1="4453.0" x2="3781.0" y1="389.0" y2="5.0" /><line stroke="#333" stroke-width="10" x1="4453.0" x2="4453.0" y1="1157.0" y2="869.0" /><line stroke="#333" stroke-width="10" x1="3781.0" x2="4453.0" y1="1541.0" y2="1157.0" /><line stroke="#333" stroke-width="10" x1="3109.0" x2="3781.0" y1="1157.0" y2="1541.0" /><line stroke="#333" stroke-width="10" x1="3109.0" x2="3109.0" y1="389.0" y2="709.0" /><line stroke="#333" stroke-width="10" x1="3781.0" x2="3109.0" y1="5.0" y2="389.0" /><line stroke="#333" stroke-width="10" x1="3109.0" x2="3109.0" y1="837.0" y2="1157.0" /><line stroke="#999" stroke-width="3" x1="3109.0" x2="3109.0" y1="709.0" y2="837.0" /><line stroke="#999" stroke-width="3" x1="4133.0" x2="3781.0" y1="549.0" y2="357.0" /><line stroke="#999" stroke-width="3" x1="4133.0" x2="4133.0" y1="965.0" y2="789.0" /><line stroke="#999" stroke-width="3" x1="3781.0" x2="4133.0" y1="1189.0" y2="965.0" /><line stroke="#999" stroke-width="3" x1="3429.0" x2="3781.0" y1="965.0" y2="1189.0" /><line stroke="#999" stroke-width="3" x1="3429.0" x2="3429.0" y1="549.0" y2="965.0" /><line stroke="#999" stroke-width="3" x1="3781.0" x2="3429.0" y1="357.0" y2="549.0" /><line stroke="#999" stroke-width="3" x1="4101.0" x2="3781.0" y1="549.0" y2="389.0" /><line stroke="#999" stroke-width="3" x1="4101.0" x2="4101.0" y1="965.0" y2="805.0" /><line stroke="#999" stroke-width="3" x1="3781.0" x2="4101.0" y1="1157.0" y2="965.0" /><line stroke="#999" stroke-width="3" x1="3461.0" x2="3781.0" y1="965.0" y2="1157.0" /><line stroke="#999" stroke-width="3" x1="3461.0" x2="3461.0" y1="549.0" y2="965.0" /><line stroke="#999" stroke-width="3" x1="3781.0" x2="3461.0" y1="389.0" y2="549.0" /><line stroke="#999" stroke-width="3" x1="4101.0" x2="4101.0" y1="709.0" y2="549.0" /><line stroke="#999" stroke-width="3" x1="4101.0" x2="3733.0" y1="805.0" y2="805.0" /><line stroke="#999" stroke-width="3" x1="3733.0" x2="4101.0" y1="709.0" y2="709.0" /><line stroke="#999" stroke-width="3" x1="3733.0" x2="3733.0" y1="805.0" y2="709.0" /><line stroke="#999" stroke-width="3" x1="4133.0" x2="4133.0" y1="725.0" y2="549.0" /><line stroke="#999" stroke-width="3" x1="4133.0" x2="3813.0" y1="789.0" y2="789.0" /><line stroke="#999" stroke-width="3" x1="3749.0" x2="3813.0" y1="789.0" y2="789.0" /><line stroke="#999" stroke-width="3" x1="3813.0" x2="3813.0" y1="725.0" y2="789.0" /><line stroke="#999" stroke-width="3" x1="3813.0" x2="3749.0" y1="725.0" y2="725.0" /><line stroke="#999" stroke-width="3" x1="3749.0" x2="3749.0" y1="725.0" y2="789.0" /><line stroke="#999" stroke-width="3" x1="3813.0" x2="4133.0" y1="725.0" y2="725.0" /><line stroke="#999" stroke-width="3" x1="3509.0" x2="3685.0" y1="853.0" y2="853.0" /><line stroke="#999" stroke-width="3" x1="3701.0" x2="3509.0" y1="837.0" y2="837.0" /><line stroke="#999" stroke-width="3" x1="3509.0" x2="3509.0" y1="837.0" y2="853.0" /><line stroke="#999" stroke-width="3" x1="3701.0" x2="3701.0" y1="1029.0" y2="837.0" /><line stroke="#999" stroke-width="3" x1="3685.0" x2="3701.0" y1="1029.0" y2="1029.0" /><line stroke="#999" stroke-width="3" x1="3685.0" x2="3685.0" y1="853.0" y2="1029.0" /><line stroke="#999" stroke-width="3" x1="3509.0" x2="3701.0" y1="677.0" y2="677.0" /><line stroke="#999" stroke-width="3" x1="3509.0" x2="3509.0" y1="661.0" y2="677.0" /><line stroke="#999" stroke-width="3" x1="3701.0" x2="3701.0" y1="677.0" y2="501.0" /><line stroke="#999" stroke-width="3" x1="3701.0" x2="3685.0" y1="501.0" y2="501.0" /><line stroke="#999" stroke-width="3" x1="3685.0" x2="3685.0" y1="501.0" y2="661.0" /><line stroke="#999" stroke-width="3" x1="3685.0" x2="3509.0" y1="661.0" y2="661.0" /><line stroke="#999" stroke-width="3" x1="4293.0" x2="4453.0" y1="869.0" y2="869.0" /><line stroke="#999" stroke-width="3" x1="4293.0" x2="4293.0" y1="645.0" y2="869.0" /><line stroke="#999" stroke-width="3" x1="4453.0" x2="4293.0" y1="645.0" y2="645.0" /><line stroke="#333" stroke-width="10" x1="4453.0" x2="4453.0" y1="869.0" y2="837.0" /><line stroke="#333" stroke-width="10" x1="4453.0" x2="4453.0" y1="645.0" y2="389.0" /><line stroke="#999" stroke-width="3" x1="4389.0" x2="4453.0" y1="837.0" y2="837.0" /><line stroke="#999" stroke-width="3" x1="4389.0" x2="4325.0" y1="677.0" y2="741.0" /><line stroke="#999" stroke-width="3" x1="4453.0" x2="4389.0" y1="677.0" y2="677.0" /><line stroke="#333" stroke-width="10" x1="4453.0" x2="4453.0" y1="837.0" y2="805.0" /><line stroke="#333" stroke-width="10" x1="4453.0" x2="4453.0" y1="677.0" y2="645.0" /><line stroke="#999" stroke-width="3" x1="4325.0" x2="4389.0" y1="773.0" y2="837.0" /><line stroke="#999" stroke-width="3" x1="4325.0" x2="4325.0" y1="741.0" y2="773.0" /><line stroke="#999" stroke-width="3" x1="4389.0" x2="4453.0" y1="805.0" y2="805.0" /><line stroke="#999" stroke-width="3" x1="4389.0" x2="4389.0" y1="709.0" y2="805.0" /><line stroke="#999" stroke-width="3" x1="4453.0" x2="4389.0" y1="709.0" y2="709.0" /><line stroke="#333" stroke-width="10" x1="4453.0" x2="4453.0" y1="805.0" y2="789.0" /><line stroke="#333" stroke-width="10" x1="4453.0" x2="4453.0" y1="709.0" y2="677.0" /><line stroke="#333" stroke-width="10" x1="4453.0" x2="4549.0" y1="789.0" y2="789.0" /><line stroke="#333" stroke-width="10" x1="4645.0" x2="4645.0" y1="805.0" y2="709.0" /><line stroke="#999" stroke-width="3" x1="4453.0" x2="4453.0" y1="725.0" y2="789.0" /><line stroke="#333" stroke-width="10" x1="4453.0" x2="4453.0" y1="725.0" y2="709.0" /><line stroke="#999" stroke-width="3" x1="4645.0" x2="4549.0" y1="805.0" y2="789.0" /><line stroke="#333" stroke-width="10" x1="4549.0" x2="4549.0" y1="789.0" y2="949.0" /><line stroke="#333" stroke-width="10" x1="4645.0" x2="4645.0" y1="949.0" y2="805.0" /><line stroke="#999" stroke-width="3" x1="4549.0" x2="4645.0" y1="725.0" y2="709.0" /><line stroke="#333" stroke-width="10" x1="4645.0" x2="4645.0" y1="709.0" y2="565.0" /><line stroke="#333" stroke-width="10" x1="4549.0" x2="4549.0" y1="565.0" y2="725.0" /><line stroke="#333" stroke-width="10" x1="4549.0" x2="4453.0" y1="725.0" y2="725.0" /><line stroke="#999" stroke-width="3" x1="2069.0" x2="2805.0" y1="389.0" y2="389.0" /><line stroke="#333" stroke-width="10" x1="2805.0" x2="2805.0" y1="389.0" y2="245.0" /><line stroke="#333" stroke-width="10" x1="2805.0" x2="2069.0" y1="245.0" y2="245.0" /><line stroke="#333" stroke-width="10" x1="2069.0" x2="2069.0" y1="245.0" y2="389.0" /><line stroke="#999" stroke-width="3" x1="4549.0" x2="4645.0" y1="565.0" y2="565.0" /><line stroke="#333" stroke-width="10" x1="4949.0" x2="4549.0" y1="437.0" y2="437.0" /><line stroke="#333" stroke-width="10" x1="4549.0" x2="4549.0" y1="437.0" y2="565.0" /><line stroke="#333" stroke-width="10" x1="4645.0" x2="4949.0" y1="565.0" y2="565.0" /><line stroke="#333" stroke-width="10" x1="4949.0" x2="4645.0" y1="949.0" y2="949.0" /><line stroke="#333" stroke-width="10" x1="4549.0" x2="4949.0" y1="1077.0" y2="1077.0" /><line stroke="#333" stroke-width="10" x1="4549.0" x2="4549.0" y1="949.0" y2="1077.0" /><line stroke="#999" stroke-width="3" x1="4645.0" x2="4549.0" y1="949.0" y2="949.0" /><line stroke="#333" stroke-width="10" x1="4949.0" x2="5077.0" y1="1077.0" y2="1077.0" /><line stroke="#333" stroke-width="10" x1="5077.0" x2="5077.0" y1="1077.0" y2="437.0" /><line stroke="#333" stroke-width="10" x1="5077.0" x2="4949.0" y1="437.0" y2="437.0" /><line stroke="#999" stroke-width="3" x1="4949.0" x2="4949.0" y1="437.0" y2="565.0" /><line stroke="#333" stroke-width="10" x1="4949.0" x2="4949.0" y1="565.0" y2="629.0" /><line stroke="#999" stroke-width="3" x1="4949.0" x2="4949.0" y1="949.0" y2="1077.0" /><line stroke="#333" stroke-width="10" x1="4949.0" x2="4741.0" y1="629.0" y2="629.0" /><line stroke="#999" stroke-width="3" x1="4949.0" x2="4949.0" y1="885.0" y2="629.0" /><line stroke="#333" stroke-width="10" x1="4949.0" x2="4949.0" y1="885.0" y2="949.0" /><line stroke="#333" stroke-width="10" x1="4725.0" x2="4741.0" y1="885.0" y2="885.0" /><line stroke="#999" stroke-width="3" x1="4741.0" x2="4741.0" y1="885.0" y2="629.0" /><line stroke="#333" stroke-width="10" x1="4741.0" x2="4725.0" y1="629.0" y2="629.0" /><line stroke="#0d0" stroke-width="20" x1="4725.0" x2="4725.0" y1="629.0" y2="885.0" /><line stroke="#333" stroke-width="10" x1="4741.0" x2="4949.0" y1="885.0" y2="885.0" /><ellipse cx="485.0" cy="709.0" fill="#009" rx="12" ry="24" stroke="#009" stroke-width="5" /><ellipse cx="357.0" cy="709.0" fill="#009" rx="12" ry="24" stroke="#009" stroke-width="5" /><ellipse cx="357.0" cy="837.0" fill="#009" rx="12" ry="24" stroke="#009" stroke-width="5" /><ellipse cx="485.0" cy="837.0" fill="#009" rx="12" ry="24" stroke="#009" stroke-width="5" /><rect fill="#090" height="24" stroke="#090" stroke-width="5" transform="rotate(45,421.0,773.0)" width="24" x="409.0" y="761.0" /><rect fill="#900" height="48" stroke="#900" stroke-width="5" transform="rotate(135,789.0,405.0)" width="32" x="773.0" y="381.0" /><rect fill="#900" height="48" stroke="#900" stroke-width="5" transform="rotate(45,53.0,405.0)" width="32" x="37.0" y="381.0" /><rect fill="#900" height="48" stroke="#900" stroke-width="5" transform="rotate(315,53.0,1141.0)" width="32" x="37.0" y="1117.0" /><rect fill="#900" height="48" stroke="#900" stroke-width="5" transform="rotate(225,789.0,1141.0)" width="32" x="773.0" y="1117.0" /><rect fill="#900" height="48" stroke="#900" stroke-width="5" transform="rotate(270,389.0,1125.0)" width="32" x="373.0" y="1101.0" /><rect fill="#900" height="48" stroke="#900" stroke-width="5" transform="rotate(270,453.0,1125.0)" width="32" x="437.0" y="1101.0" /><rect fill="#900" height="48" stroke="#900" stroke-width="5" transform="rotate(315,229.0,1093.0)" width="32" x="213.0" y="1069.0" /><rect fill="#900" height="48" stroke="#900" stroke-width="5" transform="rotate(225,613.0,1093.0)" width="32" x="597.0" y="1069.0" /><rect fill="#900" height="48" stroke="#900" stroke-width="5" transform="rotate(225,741.0,965.0)" width="32" x="725.0" y="941.0" /><rect fill="#900" height="48" stroke="#900" stroke-width="5" transform="rotate(135,741.0,581.0)" width="32" x="725.0" y="557.0" /><rect fill="#900" height="48" stroke="#900" stroke-width="5" transform="rotate(135,581.0,453.0)" width="32" x="565.0" y="429.0" /><rect fill="#900" height="48" stroke="#900" stroke-width="5" transform="rotate(45,229.0,453.0)" width="32" x="213.0" y="429.0" /><rect fill="#900" height="48" stroke="#900" stroke-width="5" transform="rotate(45,101.0,613.0)" width="32" x="85.0" y="589.0" /><rect fill="#900" height="48" stroke="#900" stroke-width="5" transform="rotate(315,101.0,965.0)" width="32" x="85.0" y="941.0" /><rect fill="#900" height="48" stroke="#900" stroke-width="5" transform="rotate(180,773.0,741.0)" width="32" x="757.0" y="717.0" /><rect fill="#900" height="48" stroke="#900" stroke-width="5" transform="rotate(180,773.0,805.0)" width="32" x="757.0" y="781.0" /><rect fill="#900" height="48" stroke="#900" stroke-width="5" transform="rotate(90,389.0,421.0)" width="32" x="373.0" y="397.0" /><rect fill="#900" height="48" stroke="#900" stroke-width="5" transform="rotate(90,453.0,421.0)" width="32" x="437.0" y="397.0" /><rect fill="#900" height="48" stroke="#900" stroke-width="5" transform="rotate(0,69.0,805.0)" width="32" x="53.0" y="781.0" /><rect fill="#900" height="48" stroke="#900" stroke-width="5" transform="rotate(0,69.0,741.0)" width="32" x="53.0" y="717.0" /><circle cx="357.0" cy="709.0" fill="#900" r="16" stroke="#900" stroke-width="5" /><circle cx="485.0" cy="709.0" fill="#900" r="16" stroke="#900" stroke-width="5" /><circle cx="485.0" cy="837.0" fill="#900" r="16" stroke="#900" stroke-width="5" /><circle cx="357.0" cy="837.0" fill="#900" r="16" stroke="#900" stroke-width="5" /><rect fill="#900" height="48" stroke="#900" stroke-width="5" transform="rotate(135,645.0,549.0)" width="32" x="629.0" y="525.0" /><rect fill="#900" height="48" stroke="#900" stroke-width="5" transform="rotate(45,197.0,549.0)" width="32" x="181.0" y="525.0" /><rect fill="#900" height="48" stroke="#900" stroke-width="5" transform="rotate(225,645.0,997.0)" width="32" x="629.0" y="973.0" /><rect fill="#900" height="48" stroke="#900" stroke-width="5" transform="rotate(315,197.0,997.0)" width="32" x="181.0" y="973.0" /><circle cx="421.0" cy="613.0" fill="#090" r="16" stroke="#090" stroke-width="5" /><circle cx="261.0" cy="773.0" fill="#090" r="16" stroke="#090" stroke-width="5" /><circle cx="581.0" cy="773.0" fill="#090" r="16" stroke="#090" stroke-width="5" /><circle cx="421.0" cy="933.0" fill="#090" r="16" stroke="#090" stroke-width="5" /><circle cx="805.0" cy="1157.0" fill="#009" r="16" stroke="#009" stroke-width="5" /><circle cx="37.0" cy="1157.0" fill="#009" r="16" stroke="#009" stroke-width="5" /><circle cx="37.0" cy="389.0" fill="#009" r="16" stroke="#009" stroke-width="5" /><circle cx="805.0" cy="389.0" fill="#009" r="16" stroke="#009" stroke-width="5" /><circle cx="421.0" cy="709.0" fill="#009" r="16" stroke="#009" stroke-width="5" /><circle cx="485.0" cy="773.0" fill="#009" r="16" stroke="#009" stroke-width="5" /><circle cx="357.0" cy="773.0" fill="#009" r="16" stroke="#009" stroke-width="5" /><circle cx="421.0" cy="837.0" fill="#009" r="16" stroke="#009" stroke-width="5" /><ellipse cx="37.0" cy="773.0" fill="#090" rx="12" ry="24" stroke="#090" stroke-width="5" /><rect fill="#900" height="48" stroke="#900" stroke-width="5" transform="rotate(90,1253.0,501.0)" width="32" x="1237.0" y="477.0" /><rect fill="#900" height="48" stroke="#900" stroke-width="5" transform="rotate(90,1365.0,501.0)" width="32" x="1349.0" y="477.0" /><rect fill="#900" height="48" stroke="#900" stroke-width="5" transform="rotate(90,1445.0,501.0)" width="32" x="1429.0" y="477.0" /><rect fill="#900" height="48" stroke="#900" stroke-width="5" transform="rotate(90,1557.0,501.0)" width="32" x="1541.0" y="477.0" /><rect fill="#900" height="48" stroke="#900" stroke-width="5" transform="rotate(270,1253.0,1045.0)" width="32" x="1237.0" y="1021.0" /><rect fill="#900" height="48" stroke="#900" stroke-width="5" transform="rotate(270,1365.0,1045.0)" width="32" x="1349.0" y="1021.0" /><rect fill="#900" height="48" stroke="#900" stroke-width="5" transform="rotate(270,1445.0,1045.0)" width="32" x="1429.0" y="1021.0" /><rect fill="#900" height="48" stroke="#900" stroke-width="5" transform="rotate(270,1557.0,1045.0)" width="32" x="1541.0" y="1021.0" /><circle cx="1093.0" cy="933.0" fill="#900" r="16" stroke="#900" stroke-width="5" /><circle cx="1093.0" cy="613.0" fill="#900" r="16" stroke="#900" stroke-width="5" /><circle cx="1701.0" cy="613.0" fill="#900" r="16" stroke="#900" stroke-width="5" /><circle cx="1701.0" cy="933.0" fill="#900" r="16" stroke="#900" stroke-width="5" /><circle cx="901.0" cy="805.0" fill="#090" r="16" stroke="#090" stroke-width="5" /><circle cx="901.0" cy="741.0" fill="#090" r="16" stroke="#090" stroke-width="5" /><circle cx="1093.0" cy="869.0" fill="#090" r="16" stroke="#090" stroke-width="5" /><circle cx="1093.0" cy="677.0" fill="#090" r="16" stroke="#090" stroke-width="5" /><circle cx="1733.0" cy="677.0" fill="#090" r="16" stroke="#090" stroke-width="5" /><circle cx="1733.0" cy="869.0" fill="#090" r="16" stroke="#090" stroke-width="5" /><circle cx="1477.0" cy="773.0" fill="#009" r="16" stroke="#009" stroke-width="5" /><circle cx="1637.0" cy="805.0" fill="#009" r="16" stroke="#009" stroke-width="5" /><circle cx="1637.0" cy="741.0" fill="#009" r="16" stroke="#009" stroke-width="5" /><rect fill="#900" height="48" stroke="#900" stroke-width="5" transform="rotate(270,1125.0,901.0)" width="32" x="1109.0" y="877.0" /><rect fill="#900" height="48" stroke="#900" stroke-width="5" transform="rotate(225,1189.0,933.0)" width="32" x="1173.0" y="909.0" /><rect fill="#900" height="48" stroke="#900" stroke-width="5" transform="rotate(90,1125.0,645.0)" width="32" x="1109.0" y="621.0" /><rect fill="#900" height="48" stroke="#900" stroke-width="5" transform="rotate(135,1189.0,613.0)" width="32" x="1173.0" y="589.0" /><rect fill="#900" height="48" stroke="#900" stroke-width="5" transform="rotate(135,1669.0,613.0)" width="32" x="1653.0" y="589.0" /><rect fill="#900" height="48" stroke="#900" stroke-width="5" transform="rotate(225,1669.0,933.0)" width="32" x="1653.0" y="909.0" /><rect fill="#900" height="48" stroke="#900" stroke-width="5" transform="rotate(180,1797.0,805.0)" width="32" x="1781.0" y="781.0" /><rect fill="#900" height="48" stroke="#900" stroke-width="5" transform="rotate(180,1797.0,741.0)" width="32" x="1781.0" y="717.0" /><rect fill="#900" height="48" stroke="#900" stroke-width="5" transform="rotate(180,1669.0,773.0)" width="32" x="1653.0" y="749.0" /><rect fill="#900" height="48" stroke="#900" stroke-width="5" transform="rotate(180,1445.0,805.0)" width="32" x="1429.0" y="781.0" /><rect fill="#900" height="48" stroke="#900" stroke-width="5" transform="rotate(180,1445.0,741.0)" width="32" x="1429.0" y="717.0" /><rect fill="#900" height="48" stroke="#900" stroke-width="5" transform="rotate(180,1285.0,773.0)" width="32" x="1269.0" y="749.0" /><rect fill="#900" height="48" stroke="#900" stroke-width="5" transform="rotate(225,1253.0,901.0)" width="32" x="1237.0" y="877.0" /><rect fill="#900" height="48" stroke="#900" stroke-width="5" transform="rotate(135,1253.0,645.0)" width="32" x="1237.0" y="621.0" /><rect fill="#900" height="48" stroke="#900" stroke-width="5" transform="rotate(225,1477.0,933.0)" width="32" x="1461.0" y="909.0" /><rect fill="#900" height="48" stroke="#900" stroke-width="5" transform="rotate(315,1541.0,901.0)" width="32" x="1525.0" y="877.0" /><rect fill="#900" height="48" stroke="#900" stroke-width="5" transform="rotate(135,1477.0,613.0)" width="32" x="1461.0" y="589.0" /><rect fill="#900" height="48" stroke="#900" stroke-width="5" transform="rotate(45,1541.0,645.0)" width="32" x="1525.0" y="621.0" /><rect fill="#900" height="48" stroke="#900" stroke-width="5" transform="rotate(135,1717.0,629.0)" width="32" x="1701.0" y="605.0" /><rect fill="#900" height="48" stroke="#900" stroke-width="5" transform="rotate(225,1717.0,917.0)" width="32" x="1701.0" y="893.0" /><rect fill="#900" height="48" stroke="#900" stroke-width="5" transform="rotate(270,1717.0,869.0)" width="32" x="1701.0" y="845.0" /><rect fill="#900" height="48" stroke="#900" stroke-width="5" transform="rotate(90,1717.0,677.0)" width="32" x="1701.0" y="653.0" /><rect fill="#090" height="24" stroke="#090" stroke-width="5" transform="rotate(0,2405.0,805.0)" width="24" x="2393.0" y="793.0" /><rect fill="#090" height="24" stroke="#090" stroke-width="5" transform="rotate(0,2405.0,741.0)" width="24" x="2393.0" y="729.0" /><rect fill="#090" height="24" stroke="#090" stroke-width="5" transform="rotate(0,2469.0,773.0)" width="24" x="2457.0" y="761.0" /><rect fill="#090" height="24" stroke="#090" stroke-width="5" transform="rotate(0,2309.0,1221.0)" width="24" x="2297.0" y="1209.0" /><rect fill="#090" height="24" stroke="#090" stroke-width="5" transform="rotate(0,2533.0,1221.0)" width="24" x="2521.0" y="1209.0" /><rect fill="#900" height="48" stroke="#900" stroke-width="5" transform="rotate(225,2501.0,1509.0)" width="32" x="2485.0" y="1485.0" /><rect fill="#900" height="48" stroke="#900" stroke-width="5" transform="rotate(315,2341.0,1509.0)" width="32" x="2325.0" y="1485.0" /><rect fill="#900" height="48" stroke="#900" stroke-width="5" transform="rotate(225,2757.0,1125.0)" width="32" x="2741.0" y="1101.0" /><rect fill="#900" height="48" stroke="#900" stroke-width="5" transform="rotate(315,2117.0,1125.0)" width="32" x="2101.0" y="1101.0" /><rect fill="#900" height="48" stroke="#900" stroke-width="5" transform="rotate(315,2165.0,1429.0)" width="32" x="2149.0" y="1405.0" /><rect fill="#900" height="48" stroke="#900" stroke-width="5" transform="rotate(225,2677.0,1429.0)" width="32" x="2661.0" y="1405.0" /><rect fill="#900" height="48" stroke="#900" stroke-width="5" transform="rotate(315,2245.0,1349.0)" width="32" x="2229.0" y="1325.0" /><rect fill="#900" height="48" stroke="#900" stroke-width="5" transform="rotate(315,2309.0,1349.0)" width="32" x="2293.0" y="1325.0" /><rect fill="#900" height="48" stroke="#900" stroke-width="5" transform="rotate(270,2309.0,1413.0)" width="32" x="2293.0" y="1389.0" /><rect fill="#900" height="48" stroke="#900" stroke-width="5" transform="rotate(270,2357.0,1413.0)" width="32" x="2341.0" y="1389.0" /><rect fill="#900" height="48" stroke="#900" stroke-width="5" transform="rotate(270,2421.0,1413.0)" width="32" x="2405.0" y="1389.0" /><rect fill="#900" height="48" stroke="#900" stroke-width="5" transform="rotate(270,2485.0,1413.0)" width="32" x="2469.0" y="1389.0" /><rect fill="#900" height="48" stroke="#900" stroke-width="5" transform="rotate(270,2533.0,1413.0)" width="32" x="2517.0" y="1389.0" /><rect fill="#900" height="48" stroke="#900" stroke-width="5" transform="rotate(225,2597.0,1349.0)" width="32" x="2581.0" y="1325.0" /><rect fill="#900" height="48" stroke="#900" stroke-width="5" transform="rotate(225,2533.0,1349.0)" width="32" x="2517.0" y="1325.0" /><rect fill="#900" height="48" stroke="#900" stroke-width="5" transform="rotate(270,2373.0,1349.0)" width="32" x="2357.0" y="1325.0" /><rect fill="#900" height="48" stroke="#900" stroke-width="5" transform="rotate(270,2469.0,1349.0)" width="32" x="2453.0" y="1325.0" /><rect fill="#900" height="48" stroke="#900" stroke-width="5" transform="rotate(270,2373.0,1237.0)" width="32" x="2357.0" y="1213.0" /><rect fill="#900" height="48" stroke="#900" stroke-width="5" transform="rotate(270,2469.0,1237.0)" width="32" x="2453.0" y="1213.0" /><rect fill="#900" height="48" stroke="#900" stroke-width="5" transform="rotate(45,2117.0,437.0)" width="32" x="2101.0" y="413.0" /><rect fill="#900" height="48" stroke="#900" stroke-width="5" transform="rotate(135,2757.0,437.0)" width="32" x="2741.0" y="413.0" /><circle cx="2325.0" cy="773.0" fill="#009" r="16" stroke="#009" stroke-width="5" /><circle cx="2517.0" cy="773.0" fill="#009" r="16" stroke="#009" stroke-width="5" /><circle cx="2085.0" cy="821.0" fill="#090" r="16" stroke="#090" stroke-width="5" /><circle cx="2085.0" cy="725.0" fill="#090" r="16" stroke="#090" stroke-width="5" /><circle cx="2149.0" cy="1445.0" fill="#009" r="16" stroke="#009" stroke-width="5" /><circle cx="2693.0" cy="1445.0" fill="#009" r="16" stroke="#009" stroke-width="5" /><circle cx="2149.0" cy="1413.0" fill="#009" r="16" stroke="#009" stroke-width="5" /><circle cx="2693.0" cy="1413.0" fill="#009" r="16" stroke="#009" stroke-width="5" /><ellipse cx="2421.0" cy="1541.0" fill="#090" rx="12" ry="24" stroke="#090" stroke-width="5" /><ellipse cx="3781.0" cy="757.0" fill="#090" rx="12" ry="24" stroke="#090" stroke-width="5" /><rect fill="#900" height="48" stroke="#900" stroke-width="5" transform="rotate(135,4021.0,581.0)" width="32" x="4005.0" y="557.0" /><rect fill="#900" height="48" stroke="#900" stroke-width="5" transform="rotate(135,3893.0,517.0)" width="32" x="3877.0" y="493.0" /><rect fill="#900" height="48" stroke="#900" stroke-width="5" transform="rotate(225,3629.0,605.0)" width="32" x="3613.0" y="581.0" /><rect fill="#900" height="48" stroke="#900" stroke-width="5" transform="rotate(0,3605.0,757.0)" width="32" x="3589.0" y="733.0" /><rect fill="#900" height="48" stroke="#900" stroke-width="5" transform="rotate(135,3629.0,909.0)" width="32" x="3613.0" y="885.0" /><rect fill="#900" height="48" stroke="#900" stroke-width="5" transform="rotate(225,3877.0,997.0)" width="32" x="3861.0" y="973.0" /><rect fill="#900" height="48" stroke="#900" stroke-width="5" transform="rotate(225,4005.0,933.0)" width="32" x="3989.0" y="909.0" /><circle cx="3765.0" cy="757.0" fill="#009" r="16" stroke="#009" stroke-width="5" /><rect fill="#900" height="48" stroke="#900" stroke-width="5" transform="rotate(180,3525.0,789.0)" width="32" x="3509.0" y="765.0" /><rect fill="#900" height="48" stroke="#900" stroke-width="5" transform="rotate(180,3525.0,725.0)" width="32" x="3509.0" y="701.0" /><rect fill="#900" height="48" stroke="#900" stroke-width="5" transform="rotate(315,4053.0,853.0)" width="32" x="4037.0" y="829.0" /><rect fill="#900" height="48" stroke="#900" stroke-width="5" transform="rotate(45,4053.0,661.0)" width="32" x="4037.0" y="637.0" /><rect fill="#900" height="48" stroke="#900" stroke-width="5" transform="rotate(270,3781.0,437.0)" width="32" x="3765.0" y="413.0" /><rect fill="#900" height="48" stroke="#900" stroke-width="5" transform="rotate(90,3781.0,1093.0)" width="32" x="3765.0" y="1069.0" /><rect fill="#900" height="48" stroke="#900" stroke-width="5" transform="rotate(90,3781.0,629.0)" width="32" x="3765.0" y="605.0" /><rect fill="#900" height="48" stroke="#900" stroke-width="5" transform="rotate(135,3909.0,613.0)" width="32" x="3893.0" y="589.0" /><rect fill="#900" height="48" stroke="#900" stroke-width="5" transform="rotate(90,3781.0,533.0)" width="32" x="3765.0" y="509.0" /><rect fill="#900" height="48" stroke="#900" stroke-width="5" transform="rotate(225,3893.0,901.0)" width="32" x="3877.0" y="877.0" /><rect fill="#900" height="48" stroke="#900" stroke-width="5" transform="rotate(270,3797.0,885.0)" width="32" x="3781.0" y="861.0" /><rect fill="#900" height="48" stroke="#900" stroke-width="5" transform="rotate(270,3781.0,997.0)" width="32" x="3765.0" y="973.0" /><circle cx="3669.0" cy="757.0" fill="#900" r="16" stroke="#900" stroke-width="5" /><rect fill="#900" height="48" stroke="#900" stroke-width="5" transform="rotate(225,4069.0,389.0)" width="32" x="4053.0" y="365.0" /><rect fill="#900" height="48" stroke="#900" stroke-width="5" transform="rotate(135,4069.0,1157.0)" width="32" x="4053.0" y="1133.0" /><rect fill="#900" height="48" stroke="#900" stroke-width="5" transform="rotate(225,4261.0,421.0)" width="32" x="4245.0" y="397.0" /><rect fill="#900" height="48" stroke="#900" stroke-width="5" transform="rotate(135,4261.0,1125.0)" width="32" x="4245.0" y="1101.0" /><rect fill="#900" height="48" stroke="#900" stroke-width="5" transform="rotate(180,4421.0,757.0)" width="32" x="4405.0" y="733.0" /><rect fill="#900" height="48" stroke="#900" stroke-width="5" transform="rotate(135,4333.0,829.0)" width="32" x="4317.0" y="805.0" /><rect fill="#900" height="48" stroke="#900" stroke-width="5" transform="rotate(225,4333.0,677.0)" width="32" x="4317.0" y="653.0" /><circle cx="3205.0" cy="597.0" fill="#090" r="16" stroke="#090" stroke-width="5" /><circle cx="3205.0" cy="661.0" fill="#090" r="16" stroke="#090" stroke-width="5" /><circle cx="3269.0" cy="757.0" fill="#090" r="16" stroke="#090" stroke-width="5" /><circle cx="3269.0" cy="821.0" fill="#090" r="16" stroke="#090" stroke-width="5" /><circle cx="3205.0" cy="885.0" fill="#090" r="16" stroke="#090" stroke-width="5" /><circle cx="3205.0" cy="949.0" fill="#090" r="16" stroke="#090" stroke-width="5" /><circle cx="101.0" cy="581.0" fill="#090" r="16" stroke="#090" stroke-width="5" /><circle cx="101.0" cy="645.0" fill="#090" r="16" stroke="#090" stroke-width="5" /><circle cx="165.0" cy="741.0" fill="#090" r="16" stroke="#090" stroke-width="5" /><circle cx="165.0" cy="805.0" fill="#090" r="16" stroke="#090" stroke-width="5" /><circle cx="101.0" cy="869.0" fill="#090" r="16" stroke="#090" stroke-width="5" /><circle cx="101.0" cy="933.0" fill="#090" r="16" stroke="#090" stroke-width="5" /><circle cx="2309.0" cy="1541.0" fill="#009" r="16" stroke="#009" stroke-width="5" /><circle cx="2533.0" cy="1541.0" fill="#009" r="16" stroke="#009" stroke-width="5" /><circle cx="2917.0" cy="805.0" fill="#090" r="16" stroke="#090" stroke-width="5" /><circle cx="2917.0" cy="741.0" fill="#090" r="16" stroke="#090" stroke-width="5" /><circle cx="3013.0" cy="773.0" fill="#090" r="16" stroke="#090" stroke-width="5" /><circle cx="2853.0" cy="805.0" fill="#090" r="16" stroke="#090" stroke-width="5" /><circle cx="2853.0" cy="741.0" fill="#090" r="16" stroke="#090" stroke-width="5" /><circle cx="2885.0" cy="773.0" fill="#090" r="16" stroke="#090" stroke-width="5" /><circle cx="4261.0" cy="789.0" fill="#090" r="16" stroke="#090" stroke-width="5" /><circle cx="4261.0" cy="725.0" fill="#090" r="16" stroke="#090" stroke-width="5" /><circle cx="4197.0" cy="789.0" fill="#090" r="16" stroke="#090" stroke-width="5" /><circle cx="4197.0" cy="725.0" fill="#090" r="16" stroke="#090" stroke-width="5" /><circle cx="4229.0" cy="757.0" fill="#090" r="16" stroke="#090" stroke-width="5" /><circle cx="4485.0" cy="757.0" fill="#090" r="16" stroke="#090" stroke-width="5" /><circle cx="4533.0" cy="757.0" fill="#090" r="16" stroke="#090" stroke-width="5" /><circle cx="3653.0" cy="629.0" fill="#090" r="16" stroke="#090" stroke-width="5" /><circle cx="3653.0" cy="565.0" fill="#090" r="16" stroke="#090" stroke-width="5" /><circle cx="3589.0" cy="629.0" fill="#090" r="16" stroke="#090" stroke-width="5" /><circle cx="3589.0" cy="565.0" fill="#090" r="16" stroke="#090" stroke-width="5" /><circle cx="3621.0" cy="597.0" fill="#090" r="16" stroke="#090" stroke-width="5" /><circle cx="3653.0" cy="949.0" fill="#090" r="16" stroke="#090" stroke-width="5" /><circle cx="3653.0" cy="885.0" fill="#090" r="16" stroke="#090" stroke-width="5" /><circle cx="3589.0" cy="949.0" fill="#090" r="16" stroke="#090" stroke-width="5" /><circle cx="3589.0" cy="885.0" fill="#090" r="16" stroke="#090" stroke-width="5" /><circle cx="3621.0" cy="917.0" fill="#090" r="16" stroke="#090" stroke-width="5" /><circle cx="2421.0" cy="1493.0" fill="#090" r="16" stroke="#090" stroke-width="5" /><circle cx="2453.0" cy="1317.0" fill="#090" r="16" stroke="#090" stroke-width="5" /><circle cx="2421.0" cy="1493.0" fill="#090" r="16" stroke="#090" stroke-width="5" /><circle cx="2389.0" cy="1317.0" fill="#090" r="16" stroke="#090" stroke-width="5" /><circle cx="2421.0" cy="1349.0" fill="#090" r="16" stroke="#090" stroke-width="5" /><circle cx="709.0" cy="805.0" fill="#090" r="16" stroke="#090" stroke-width="5" /><circle cx="709.0" cy="741.0" fill="#090" r="16" stroke="#090" stroke-width="5" /><circle cx="645.0" cy="805.0" fill="#090" r="16" stroke="#090" stroke-width="5" /><circle cx="645.0" cy="741.0" fill="#090" r="16" stroke="#090" stroke-width="5" /><circle cx="677.0" cy="773.0" fill="#090" r="16" stroke="#090" stroke-width="5" /><rect fill="#900" height="48" stroke="#900" stroke-width="5" transform="rotate(90,2101.0,325.0)" width="32" x="2085.0" y="301.0" /><rect fill="#900" height="48" stroke="#900" stroke-width="5" transform="rotate(90,2165.0,325.0)" width="32" x="2149.0" y="301.0" /><rect fill="#900" height="48" stroke="#900" stroke-width="5" transform="rotate(90,2229.0,325.0)" width="32" x="2213.0" y="301.0" /><rect fill="#900" height="48" stroke="#900" stroke-width="5" transform="rotate(90,2277.0,325.0)" width="32" x="2261.0" y="301.0" /><circle cx="2437.0" cy="357.0" fill="#090" r="16" stroke="#090" stroke-width="5" /><circle cx="2437.0" cy="293.0" fill="#090" r="16" stroke="#090" stroke-width="5" /><circle cx="2373.0" cy="357.0" fill="#090" r="16" stroke="#090" stroke-width="5" /><circle cx="2373.0" cy="293.0" fill="#090" r="16" stroke="#090" stroke-width="5" /><circle cx="2405.0" cy="325.0" fill="#090" r="16" stroke="#090" stroke-width="5" /><rect fill="#900" height="48" stroke="#900" stroke-width="5" transform="rotate(90,2109.0,277.0)" width="32" x="2093.0" y="253.0" /><rect fill="#900" height="48" stroke="#900" stroke-width="5" transform="rotate(90,2173.0,277.0)" width="32" x="2157.0" y="253.0" /><rect fill="#900" height="48" stroke="#900" stroke-width="5" transform="rotate(90,2237.0,277.0)" width="32" x="2221.0" y="253.0" /><rect fill="#900" height="48" stroke="#900" stroke-width="5" transform="rotate(90,2285.0,277.0)" width="32" x="2269.0" y="253.0" /><rect fill="#900" height="48" stroke="#900" stroke-width="5" transform="rotate(90,2573.0,341.0)" width="32" x="2557.0" y="317.0" /><rect fill="#900" height="48" stroke="#900" stroke-width="5" transform="rotate(90,2637.0,341.0)" width="32" x="2621.0" y="317.0" /><rect fill="#900" height="48" stroke="#900" stroke-width="5" transform="rotate(90,2701.0,341.0)" width="32" x="2685.0" y="317.0" /><rect fill="#900" height="48" stroke="#900" stroke-width="5" transform="rotate(90,2749.0,341.0)" width="32" x="2733.0" y="317.0" /><rect fill="#900" height="48" stroke="#900" stroke-width="5" transform="rotate(90,2573.0,277.0)" width="32" x="2557.0" y="253.0" /><rect fill="#900" height="48" stroke="#900" stroke-width="5" transform="rotate(90,2637.0,277.0)" width="32" x="2621.0" y="253.0" /><rect fill="#900" height="48" stroke="#900" stroke-width="5" transform="rotate(90,2701.0,277.0)" width="32" x="2685.0" y="253.0" /><rect fill="#900" height="48" stroke="#900" stroke-width="5" transform="rotate(90,2749.0,277.0)" width="32" x="2733.0" y="253.0" /><rect fill="#900" height="48" stroke="#900" stroke-width="5" transform="rotate(90,2349.0,277.0)" width="32" x="2333.0" y="253.0" /><rect fill="#900" height="48" stroke="#900" stroke-width="5" transform="rotate(90,2413.0,277.0)" width="32" x="2397.0" y="253.0" /><rect fill="#900" height="48" stroke="#900" stroke-width="5" transform="rotate(90,2477.0,277.0)" width="32" x="2461.0" y="253.0" /><rect fill="#900" height="48" stroke="#900" stroke-width="5" transform="rotate(90,2525.0,277.0)" width="32" x="2509.0" y="253.0" /><rect fill="#900" height="48" stroke="#900" stroke-width="5" transform="rotate(90,2333.0,325.0)" width="32" x="2317.0" y="301.0" /><rect fill="#900" height="48" stroke="#900" stroke-width="5" transform="rotate(90,2397.0,325.0)" width="32" x="2381.0" y="301.0" /><rect fill="#900" height="48" stroke="#900" stroke-width="5" transform="rotate(90,2461.0,325.0)" width="32" x="2445.0" y="301.0" /><rect fill="#900" height="48" stroke="#900" stroke-width="5" transform="rotate(90,2509.0,325.0)" width="32" x="2493.0" y="301.0" /><circle cx="2709.0" cy="805.0" fill="#090" r="16" stroke="#090" stroke-width="5" /><circle cx="2709.0" cy="741.0" fill="#090" r="16" stroke="#090" stroke-width="5" /><circle cx="2645.0" cy="805.0" fill="#090" r="16" stroke="#090" stroke-width="5" /><circle cx="2645.0" cy="741.0" fill="#090" r="16" stroke="#090" stroke-width="5" /><circle cx="2677.0" cy="773.0" fill="#090" r="16" stroke="#090" stroke-width="5" /><rect fill="#900" height="48" stroke="#900" stroke-width="5" transform="rotate(0,4821.0,757.0)" width="32" x="4805.0" y="733.0" /></svg>