<?xml version="1.0" encoding="utf-8" ?>
<svg baseProfile="tiny" height="680" version="1.2" viewBox="0 0 906 602" width="1024" xmlns="http://www.w3.org/2000/svg" xmlns:ev="http://www.w3.org/2001/xml-events" xmlns:xlink="http://www.w3.org/1999/xlink"><defs /><line stroke="#333" stroke-width="10" x1="869.0" x2="869.0" y1="581.0" y2="549.0" /><line stroke="#333" stroke-width="10" x1="901.0" x2="869.0" y1="37.0" y2="37.0" /><line stroke="#333" stroke-width="10" x1="37.0" x2="37.0" y1="5.0" y2="37.0" /><line stroke="#333" stroke-width="10" x1="5.0" x2="37.0" y1="549.0" y2="549.0" /><line stroke="#999" stroke-width="3" x1="37.0" x2="37.0" y1="549.0" y2="37.0" /><line stroke="#999" stroke-width="3" x1="37.0" x2="869.0" y1="37.0" y2="37.0" /><line stroke="#999" stroke-width="3" x1="869.0" x2="869.0" y1="37.0" y2="549.0" /><line stroke="#999" stroke-width="3" x1="869.0" x2="261.0" y1="549.0" y2="549.0" /><line stroke="#333" stroke-width="10" x1="37.0" x2="197.0" y1="581.0" y2="581.0" /><line stroke="#333" stroke-width="10" x1="37.0" x2="37.0" y1="549.0" y2="581.0" /><line stroke="#333" stroke-width="10" x1="5.0" x2="5.0" y1="37.0" y2="165.0" /><line stroke="#333" stroke-width="10" x1="37.0" x2="5.0" y1="37.0" y2="37.0" /><line stroke="#333" stroke-width="10" x1="869.0" x2="869.0" y1="37.0" y2="5.0" /><line stroke="#333" stroke-width="10" x1="869.0" x2="677.0" y1="5.0" y2="5.0" /><line stroke="#333" stroke-width="10" x1="901.0" x2="901.0" y1="549.0" y2="421.0" /><line stroke="#333" stroke-width="10" x1="869.0" x2="901.0" y1="549.0" y2="549.0" /><line stroke="#333" stroke-width="10" x1="197.0" x2="229.0" y1="581.0" y2="581.0" /><line stroke="#999" stroke-width="3" x1="197.0" x2="37.0" y1="549.0" y2="549.0" /><line stroke="#999" stroke-width="3" x1="197.0" x2="197.0" y1="581.0" y2="549.0" /><line stroke="#333" stroke-width="10" x1="261.0" x2="277.0" y1="565.0" y2="565.0" /><line stroke="#999" stroke-width="3" x1="261.0" x2="197.0" y1="549.0" y2="549.0" /><line stroke="#999" stroke-width="3" x1="261.0" x2="261.0" y1="565.0" y2="549.0" /><line stroke="#999" stroke-width="3" x1="197.0" x2="197.0" y1="549.0" y2="389.0" /><line stroke="#999" stroke-width="3" x1="197.0" x2="261.0" y1="325.0" y2="325.0" /><line stroke="#999" stroke-width="3" x1="261.0" x2="261.0" y1="325.0" y2="389.0" /><line stroke="#999" stroke-width="3" x1="709.0" x2="389.0" y1="325.0" y2="325.0" /><line stroke="#999" stroke-width="3" x1="389.0" x2="389.0" y1="325.0" y2="261.0" /><line stroke="#999" stroke-width="3" x1="389.0" x2="645.0" y1="261.0" y2="261.0" /><line stroke="#999" stroke-width="3" x1="709.0" x2="709.0" y1="261.0" y2="325.0" /><line stroke="#999" stroke-width="3" x1="645.0" x2="709.0" y1="261.0" y2="261.0" /><line stroke="#999" stroke-width="3" x1="645.0" x2="645.0" y1="261.0" y2="197.0" /><line stroke="#999" stroke-width="3" x1="645.0" x2="517.0" y1="197.0" y2="197.0" /><line stroke="#999" stroke-width="3" x1="517.0" x2="517.0" y1="197.0" y2="133.0" /><line stroke="#999" stroke-width="3" x1="517.0" x2="709.0" y1="133.0" y2="133.0" /><line stroke="#999" stroke-width="3" x1="709.0" x2="709.0" y1="133.0" y2="261.0" /><line stroke="#999" stroke-width="3" x1="197.0" x2="197.0" y1="389.0" y2="325.0" /><line stroke="#999" stroke-width="3" x1="261.0" x2="261.0" y1="389.0" y2="549.0" /><line stroke="#999" stroke-width="3" x1="197.0" x2="261.0" y1="389.0" y2="389.0" /><line stroke="#999" stroke-width="3" x1="517.0" x2="517.0" y1="517.0" y2="453.0" /><line stroke="#999" stroke-width="3" x1="517.0" x2="581.0" y1="453.0" y2="453.0" /><line stroke="#999" stroke-width="3" x1="581.0" x2="581.0" y1="453.0" y2="517.0" /><line stroke="#999" stroke-width="3" x1="581.0" x2="517.0" y1="517.0" y2="517.0" /><line stroke="#333" stroke-width="10" x1="485.0" x2="469.0" y1="5.0" y2="21.0" /><line stroke="#333" stroke-width="10" x1="421.0" x2="293.0" y1="5.0" y2="5.0" /><line stroke="#333" stroke-width="10" x1="469.0" x2="437.0" y1="21.0" y2="21.0" /><line stroke="#333" stroke-width="10" x1="437.0" x2="421.0" y1="21.0" y2="5.0" /><line stroke="#333" stroke-width="10" x1="293.0" x2="277.0" y1="5.0" y2="21.0" /><line stroke="#333" stroke-width="10" x1="229.0" x2="37.0" y1="5.0" y2="5.0" /><line stroke="#333" stroke-width="10" x1="277.0" x2="245.0" y1="21.0" y2="21.0" /><line stroke="#333" stroke-width="10" x1="245.0" x2="229.0" y1="21.0" y2="5.0" /><line stroke="#333" stroke-width="10" x1="613.0" x2="485.0" y1="5.0" y2="5.0" /><line stroke="#333" stroke-width="10" x1="677.0" x2="661.0" y1="5.0" y2="21.0" /><line stroke="#333" stroke-width="10" x1="661.0" x2="629.0" y1="21.0" y2="21.0" /><line stroke="#333" stroke-width="10" x1="629.0" x2="613.0" y1="21.0" y2="5.0" /><line stroke="#333" stroke-width="10" x1="901.0" x2="901.0" y1="165.0" y2="37.0" /><line stroke="#333" stroke-width="10" x1="901.0" x2="885.0" y1="229.0" y2="213.0" /><line stroke="#333" stroke-width="10" x1="885.0" x2="885.0" y1="213.0" y2="181.0" /><line stroke="#333" stroke-width="10" x1="885.0" x2="901.0" y1="181.0" y2="165.0" /><line stroke="#333" stroke-width="10" x1="901.0" x2="901.0" y1="357.0" y2="229.0" /><line stroke="#333" stroke-width="10" x1="901.0" x2="885.0" y1="421.0" y2="405.0" /><line stroke="#333" stroke-width="10" x1="885.0" x2="885.0" y1="405.0" y2="373.0" /><line stroke="#333" stroke-width="10" x1="885.0" x2="901.0" y1="373.0" y2="357.0" /><line stroke="#333" stroke-width="10" x1="21.0" x2="5.0" y1="213.0" y2="229.0" /><line stroke="#333" stroke-width="10" x1="21.0" x2="21.0" y1="181.0" y2="213.0" /><line stroke="#333" stroke-width="10" x1="5.0" x2="5.0" y1="229.0" y2="357.0" /><line stroke="#333" stroke-width="10" x1="5.0" x2="21.0" y1="165.0" y2="181.0" /><line stroke="#333" stroke-width="10" x1="5.0" x2="21.0" y1="357.0" y2="373.0" /><line stroke="#333" stroke-width="10" x1="5.0" x2="5.0" y1="421.0" y2="549.0" /><line stroke="#333" stroke-width="10" x1="21.0" x2="5.0" y1="405.0" y2="421.0" /><line stroke="#333" stroke-width="10" x1="21.0" x2="21.0" y1="373.0" y2="405.0" /><line stroke="#333" stroke-width="10" x1="293.0" x2="421.0" y1="581.0" y2="581.0" /><line stroke="#333" stroke-width="10" x1="229.0" x2="245.0" y1="581.0" y2="565.0" /><line stroke="#333" stroke-width="10" x1="245.0" x2="261.0" y1="565.0" y2="565.0" /><line stroke="#333" stroke-width="10" x1="277.0" x2="293.0" y1="565.0" y2="581.0" /><line stroke="#333" stroke-width="10" x1="485.0" x2="613.0" y1="581.0" y2="581.0" /><line stroke="#333" stroke-width="10" x1="421.0" x2="437.0" y1="581.0" y2="565.0" /><line stroke="#333" stroke-width="10" x1="469.0" x2="485.0" y1="565.0" y2="581.0" /><line stroke="#333" stroke-width="10" x1="437.0" x2="469.0" y1="565.0" y2="565.0" /><line stroke="#333" stroke-width="10" x1="613.0" x2="629.0" y1="581.0" y2="565.0" /><line stroke="#333" stroke-width="10" x1="677.0" x2="757.0" y1="581.0" y2="581.0" /><line stroke="#333" stroke-width="10" x1="661.0" x2="677.0" y1="565.0" y2="581.0" /><line stroke="#333" stroke-width="10" x1="629.0" x2="661.0" y1="565.0" y2="565.0" /><line stroke="#999" stroke-width="3" x1="277.0" x2="437.0" y1="21.0" y2="21.0" /><line stroke="#999" stroke-width="3" x1="469.0" x2="629.0" y1="21.0" y2="21.0" /><line stroke="#999" stroke-width="3" x1="21.0" x2="21.0" y1="373.0" y2="213.0" /><line stroke="#999" stroke-width="3" x1="885.0" x2="885.0" y1="213.0" y2="373.0" /><line stroke="#999" stroke-width="3" x1="629.0" x2="469.0" y1="565.0" y2="565.0" /><line stroke="#999" stroke-width="3" x1="437.0" x2="277.0" y1="565.0" y2="565.0" /><line stroke="#0d0" stroke-width="20" x1="773.0" x2="837.0" y1="597.0" y2="597.0" /><line stroke="#999" stroke-width="3" x1="773.0" x2="837.0" y1="581.0" y2="581.0" /><line stroke="#333" stroke-width="10" x1="773.0" x2="773.0" y1="581.0" y2="597.0" /><line stroke="#333" stroke-width="10" x1="837.0" x2="853.0" y1="581.0" y2="581.0" /><line stroke="#333" stroke-width="10" x1="837.0" x2="837.0" y1="597.0" y2="581.0" /><line stroke="#333" stroke-width="10" x1="757.0" x2="773.0" y1="581.0" y2="581.0" /><line stroke="#333" stroke-width="10" x1="853.0" x2="869.0" y1="581.0" y2="581.0" /><ellipse cx="165.0" cy="549.0" fill="#009" rx="12" ry="24" stroke="#009" stroke-width="5" /><ellipse cx="117.0" cy="549.0" fill="#009" rx="12" ry="24" stroke="#009" stroke-width="5" /><ellipse cx="69.0" cy="549.0" fill="#009" rx="12" ry="24" stroke="#009" stroke-width="5" /><ellipse cx="117.0" cy="509.0" fill="#009" rx="12" ry="24" stroke="#009" stroke-width="5" /><circle cx="117.0" cy="429.0" fill="#900" r="16" stroke="#900" stroke-width="5" /><circle cx="613.0" cy="229.0" fill="#090" r="16" stroke="#090" stroke-width="5" /><circle cx="549.0" cy="229.0" fill="#090" r="16" stroke="#090" stroke-width="5" /><circle cx="733.0" cy="197.0" fill="#009" r="16" stroke="#009" stroke-width="5" /><circle cx="549.0" cy="485.0" fill="#009" r="16" stroke="#009" stroke-width="5" /><rect fill="#900" height="48" stroke="#900" stroke-width="5" transform="rotate(225,757.0,485.0)" width="32" x="741.0" y="461.0" /></svg>