<?xml version="1.0" encoding="utf-8" ?>
<svg baseProfile="tiny" height="465" version="1.2" viewBox="0 0 7274 3306" width="1024" xmlns="http://www.w3.org/2000/svg" xmlns:ev="http://www.w3.org/2001/xml-events" xmlns:xlink="http://www.w3.org/1999/xlink"><defs /><line stroke="#333" stroke-width="10" x1="7269.0" x2="7269.0" y1="2661.0" y2="645.0" /><line stroke="#333" stroke-width="10" x1="7269.0" x2="5349.0" y1="645.0" y2="5.0" /><line stroke="#333" stroke-width="10" x1="5349.0" x2="4149.0" y1="5.0" y2="1653.0" /><line stroke="#333" stroke-width="10" x1="4149.0" x2="5349.0" y1="1653.0" y2="3301.0" /><line stroke="#333" stroke-width="10" x1="5349.0" x2="7269.0" y1="3301.0" y2="2661.0" /><line stroke="#999" stroke-width="3" x1="4325.0" x2="4325.0" y1="1749.0" y2="1685.0" /><line stroke="#999" stroke-width="3" x1="4389.0" x2="4325.0" y1="1749.0" y2="1749.0" /><line stroke="#999" stroke-width="3" x1="4389.0" x2="4389.0" y1="1685.0" y2="1749.0" /><line stroke="#999" stroke-width="3" x1="4325.0" x2="4389.0" y1="1685.0" y2="1685.0" /><line stroke="#999" stroke-width="3" x1="21.0" x2="21.0" y1="1893.0" y2="1973.0" /><line stroke="#333" stroke-width="10" x1="21.0" x2="2517.0" y1="2053.0" y2="2053.0" /><line stroke="#333" stroke-width="10" x1="2517.0" x2="2517.0" y1="2053.0" y2="1813.0" /><line stroke="#333" stroke-width="10" x1="2517.0" x2="21.0" y1="1813.0" y2="1813.0" /><line stroke="#00d" stroke-width="20" x1="2373.0" x2="2373.0" y1="1957.0" y2="1893.0" /><line stroke="#00d" stroke-width="20" x1="2437.0" x2="2373.0" y1="1957.0" y2="1957.0" /><line stroke="#00d" stroke-width="20" x1="2437.0" x2="2437.0" y1="1893.0" y2="1957.0" /><line stroke="#00d" stroke-width="20" x1="2373.0" x2="2437.0" y1="1893.0" y2="1893.0" /><line stroke="#999" stroke-width="3" x1="6277.0" x2="6357.0" y1="2405.0" y2="2565.0" /><line stroke="#999" stroke-width="3" x1="6101.0" x2="6277.0" y1="2405.0" y2="2405.0" /><line stroke="#999" stroke-width="3" x1="6005.0" x2="6101.0" y1="2565.0" y2="2405.0" /><line stroke="#999" stroke-width="3" x1="6101.0" x2="6005.0" y1="2725.0" y2="2565.0" /><line stroke="#999" stroke-width="3" x1="6277.0" x2="6101.0" y1="2725.0" y2="2725.0" /><line stroke="#999" stroke-width="3" x1="6357.0" x2="6277.0" y1="2565.0" y2="2725.0" /><line stroke="#999" stroke-width="3" x1="5989.0" x2="6117.0" y1="1829.0" y2="2005.0" /><line stroke="#999" stroke-width="3" x1="5765.0" x2="5989.0" y1="1893.0" y2="1829.0" /><line stroke="#999" stroke-width="3" x1="5765.0" x2="5765.0" y1="2117.0" y2="1893.0" /><line stroke="#999" stroke-width="3" x1="5989.0" x2="5765.0" y1="2181.0" y2="2117.0" /><line stroke="#999" stroke-width="3" x1="6117.0" x2="5989.0" y1="2005.0" y2="2181.0" /><line stroke="#999" stroke-width="3" x1="6549.0" x2="6677.0" y1="1573.0" y2="1733.0" /><line stroke="#999" stroke-width="3" x1="6357.0" x2="6549.0" y1="1637.0" y2="1573.0" /><line stroke="#999" stroke-width="3" x1="6357.0" x2="6357.0" y1="1829.0" y2="1637.0" /><line stroke="#999" stroke-width="3" x1="6549.0" x2="6357.0" y1="1893.0" y2="1829.0" /><line stroke="#999" stroke-width="3" x1="6677.0" x2="6549.0" y1="1733.0" y2="1893.0" /><line stroke="#999" stroke-width="3" x1="5925.0" x2="6053.0" y1="1141.0" y2="1317.0" /><line stroke="#999" stroke-width="3" x1="5701.0" x2="5925.0" y1="1205.0" y2="1141.0" /><line stroke="#999" stroke-width="3" x1="5701.0" x2="5701.0" y1="1429.0" y2="1205.0" /><line stroke="#999" stroke-width="3" x1="6053.0" x2="5925.0" y1="1317.0" y2="1493.0" /><line stroke="#999" stroke-width="3" x1="5925.0" x2="5701.0" y1="1493.0" y2="1429.0" /><line stroke="#999" stroke-width="3" x1="6389.0" x2="6501.0" y1="565.0" y2="709.0" /><line stroke="#999" stroke-width="3" x1="6213.0" x2="6389.0" y1="613.0" y2="565.0" /><line stroke="#999" stroke-width="3" x1="6213.0" x2="6213.0" y1="805.0" y2="613.0" /><line stroke="#999" stroke-width="3" x1="6389.0" x2="6213.0" y1="853.0" y2="805.0" /><line stroke="#999" stroke-width="3" x1="6501.0" x2="6389.0" y1="709.0" y2="853.0" /><line stroke="#333" stroke-width="10" x1="21.0" x2="21.0" y1="1813.0" y2="1861.0" /><line stroke="#333" stroke-width="10" x1="21.0" x2="21.0" y1="1989.0" y2="2053.0" /><line stroke="#333" stroke-width="10" x1="5.0" x2="5.0" y1="1893.0" y2="1973.0" /><line stroke="#333" stroke-width="10" x1="5.0" x2="21.0" y1="1973.0" y2="1973.0" /><line stroke="#333" stroke-width="10" x1="21.0" x2="21.0" y1="1861.0" y2="1893.0" /><line stroke="#333" stroke-width="10" x1="21.0" x2="21.0" y1="1973.0" y2="1989.0" /><line stroke="#333" stroke-width="10" x1="21.0" x2="5.0" y1="1893.0" y2="1893.0" /><rect fill="#009" height="24" stroke="#009" stroke-width="5" transform="rotate(0,4357.0,1717.0)" width="24" x="4345.0" y="1705.0" /><ellipse cx="149.0" cy="1957.0" fill="#009" rx="12" ry="24" stroke="#009" stroke-width="5" /><ellipse cx="165.0" cy="1861.0" fill="#009" rx="12" ry="24" stroke="#009" stroke-width="5" /><ellipse cx="277.0" cy="1861.0" fill="#009" rx="12" ry="24" stroke="#009" stroke-width="5" /><ellipse cx="277.0" cy="1973.0" fill="#009" rx="12" ry="24" stroke="#009" stroke-width="5" /><rect fill="#090" height="24" stroke="#090" stroke-width="5" transform="rotate(0,453.0,1925.0)" width="24" x="441.0" y="1913.0" /><rect fill="#090" height="24" stroke="#090" stroke-width="5" transform="rotate(180,2181.0,1941.0)" width="24" x="2169.0" y="1929.0" /><circle cx="597.0" cy="1941.0" fill="#900" r="16" stroke="#900" stroke-width="5" /><circle cx="677.0" cy="1877.0" fill="#900" r="16" stroke="#900" stroke-width="5" /><circle cx="789.0" cy="1973.0" fill="#900" r="16" stroke="#900" stroke-width="5" /><circle cx="885.0" cy="1893.0" fill="#900" r="16" stroke="#900" stroke-width="5" /><circle cx="997.0" cy="1957.0" fill="#900" r="16" stroke="#900" stroke-width="5" /><circle cx="1365.0" cy="1909.0" fill="#009" r="16" stroke="#009" stroke-width="5" /><circle cx="1477.0" cy="1909.0" fill="#009" r="16" stroke="#009" stroke-width="5" /><rect fill="#090" height="24" stroke="#090" stroke-width="5" transform="rotate(0,1125.0,1909.0)" width="24" x="1113.0" y="1897.0" /><circle cx="1525.0" cy="1989.0" fill="#090" r="16" stroke="#090" stroke-width="5" /><circle cx="1525.0" cy="1861.0" fill="#090" r="16" stroke="#090" stroke-width="5" /><circle cx="1637.0" cy="1989.0" fill="#090" r="16" stroke="#090" stroke-width="5" /><circle cx="1621.0" cy="1861.0" fill="#090" r="16" stroke="#090" stroke-width="5" /><rect fill="#900" height="48" stroke="#900" stroke-width="5" transform="rotate(180,6133.0,2565.0)" width="32" x="6117.0" y="2541.0" /><rect fill="#900" height="48" stroke="#900" stroke-width="5" transform="rotate(180,6197.0,2677.0)" width="32" x="6181.0" y="2653.0" /><rect fill="#900" height="48" stroke="#900" stroke-width="5" transform="rotate(180,6229.0,2517.0)" width="32" x="6213.0" y="2493.0" /><rect fill="#900" height="48" stroke="#900" stroke-width="5" transform="rotate(180,5941.0,1989.0)" width="32" x="5925.0" y="1965.0" /><rect fill="#900" height="48" stroke="#900" stroke-width="5" transform="rotate(180,6421.0,1781.0)" width="32" x="6405.0" y="1757.0" /><rect fill="#900" height="48" stroke="#900" stroke-width="5" transform="rotate(180,6517.0,1701.0)" width="32" x="6501.0" y="1677.0" /><rect fill="#900" height="48" stroke="#900" stroke-width="5" transform="rotate(180,5877.0,1317.0)" width="32" x="5861.0" y="1293.0" /><rect fill="#900" height="48" stroke="#900" stroke-width="5" transform="rotate(135,6277.0,661.0)" width="32" x="6261.0" y="637.0" /><rect fill="#900" height="48" stroke="#900" stroke-width="5" transform="rotate(135,6341.0,741.0)" width="32" x="6325.0" y="717.0" /><rect fill="#900" height="48" stroke="#900" stroke-width="5" transform="rotate(135,6373.0,645.0)" width="32" x="6357.0" y="621.0" /><rect fill="#900" height="48" stroke="#900" stroke-width="5" transform="rotate(135,6437.0,709.0)" width="32" x="6421.0" y="685.0" /><rect fill="#900" height="48" stroke="#900" stroke-width="5" transform="rotate(180,5621.0,2629.0)" width="32" x="5605.0" y="2605.0" /><rect fill="#900" height="48" stroke="#900" stroke-width="5" transform="rotate(180,5589.0,709.0)" width="32" x="5573.0" y="685.0" /><rect fill="#900" height="48" stroke="#900" stroke-width="5" transform="rotate(180,5525.0,1749.0)" width="32" x="5509.0" y="1725.0" /><rect fill="#900" height="48" stroke="#900" stroke-width="5" transform="rotate(180,6533.0,2245.0)" width="32" x="6517.0" y="2221.0" /><rect fill="#900" height="48" stroke="#900" stroke-width="5" transform="rotate(180,6613.0,1045.0)" width="32" x="6597.0" y="1021.0" /><rect fill="#900" height="48" stroke="#900" stroke-width="5" transform="rotate(225,5381.0,3061.0)" width="32" x="5365.0" y="3037.0" /><rect fill="#900" height="48" stroke="#900" stroke-width="5" transform="rotate(225,5509.0,2981.0)" width="32" x="5493.0" y="2957.0" /><rect fill="#900" height="48" stroke="#900" stroke-width="5" transform="rotate(225,5541.0,3141.0)" width="32" x="5525.0" y="3117.0" /><rect fill="#900" height="48" stroke="#900" stroke-width="5" transform="rotate(225,5429.0,2901.0)" width="32" x="5413.0" y="2877.0" /><rect fill="#900" height="48" stroke="#900" stroke-width="5" transform="rotate(225,5253.0,2981.0)" width="32" x="5237.0" y="2957.0" /><rect fill="#900" height="48" stroke="#900" stroke-width="5" transform="rotate(135,5509.0,245.0)" width="32" x="5493.0" y="221.0" /><rect fill="#900" height="48" stroke="#900" stroke-width="5" transform="rotate(135,5605.0,357.0)" width="32" x="5589.0" y="333.0" /><rect fill="#900" height="48" stroke="#900" stroke-width="5" transform="rotate(135,5429.0,357.0)" width="32" x="5413.0" y="333.0" /><rect fill="#900" height="48" stroke="#900" stroke-width="5" transform="rotate(135,5493.0,453.0)" width="32" x="5477.0" y="429.0" /><rect fill="#900" height="48" stroke="#900" stroke-width="5" transform="rotate(180,5317.0,2181.0)" width="32" x="5301.0" y="2157.0" /><rect fill="#900" height="48" stroke="#900" stroke-width="5" transform="rotate(180,5365.0,1317.0)" width="32" x="5349.0" y="1293.0" /><circle cx="4517.0" cy="1733.0" fill="#009" r="16" stroke="#009" stroke-width="5" /><rect fill="#090" height="24" stroke="#090" stroke-width="5" transform="rotate(180,5781.0,3029.0)" width="24" x="5769.0" y="3017.0" /><rect fill="#090" height="24" stroke="#090" stroke-width="5" transform="rotate(180,6885.0,1973.0)" width="24" x="6873.0" y="1961.0" /><rect fill="#090" height="24" stroke="#090" stroke-width="5" transform="rotate(180,5957.0,453.0)" width="24" x="5945.0" y="441.0" /><rect fill="#090" height="24" stroke="#090" stroke-width="5" transform="rotate(180,5173.0,1669.0)" width="24" x="5161.0" y="1657.0" /><circle cx="4437.0" cy="1909.0" fill="#090" r="16" stroke="#090" stroke-width="5" /><circle cx="4549.0" cy="2005.0" fill="#090" r="16" stroke="#090" stroke-width="5" /><circle cx="4629.0" cy="2085.0" fill="#090" r="16" stroke="#090" stroke-width="5" /><circle cx="4709.0" cy="2213.0" fill="#090" r="16" stroke="#090" stroke-width="5" /><circle cx="4805.0" cy="2341.0" fill="#090" r="16" stroke="#090" stroke-width="5" /><circle cx="4869.0" cy="2421.0" fill="#090" r="16" stroke="#090" stroke-width="5" /><circle cx="4933.0" cy="2549.0" fill="#090" r="16" stroke="#090" stroke-width="5" /><circle cx="5013.0" cy="2645.0" fill="#090" r="16" stroke="#090" stroke-width="5" /><circle cx="4485.0" cy="1381.0" fill="#090" r="16" stroke="#090" stroke-width="5" /><circle cx="4549.0" cy="1285.0" fill="#090" r="16" stroke="#090" stroke-width="5" /><circle cx="4629.0" cy="1205.0" fill="#090" r="16" stroke="#090" stroke-width="5" /><circle cx="4709.0" cy="1125.0" fill="#090" r="16" stroke="#090" stroke-width="5" /><circle cx="4757.0" cy="1013.0" fill="#090" r="16" stroke="#090" stroke-width="5" /><circle cx="4821.0" cy="917.0" fill="#090" r="16" stroke="#090" stroke-width="5" /><circle cx="4885.0" cy="853.0" fill="#090" r="16" stroke="#090" stroke-width="5" /><circle cx="4917.0" cy="741.0" fill="#090" r="16" stroke="#090" stroke-width="5" /><circle cx="4981.0" cy="661.0" fill="#090" r="16" stroke="#090" stroke-width="5" /><circle cx="5941.0" cy="2981.0" fill="#090" r="16" stroke="#090" stroke-width="5" /><circle cx="6133.0" cy="2933.0" fill="#090" r="16" stroke="#090" stroke-width="5" /><circle cx="6277.0" cy="2901.0" fill="#090" r="16" stroke="#090" stroke-width="5" /><circle cx="6421.0" cy="2837.0" fill="#090" r="16" stroke="#090" stroke-width="5" /><circle cx="6533.0" cy="2789.0" fill="#090" r="16" stroke="#090" stroke-width="5" /><circle cx="6661.0" cy="2741.0" fill="#090" r="16" stroke="#090" stroke-width="5" /><circle cx="6789.0" cy="2709.0" fill="#090" r="16" stroke="#090" stroke-width="5" /><circle cx="6901.0" cy="2677.0" fill="#090" r="16" stroke="#090" stroke-width="5" /><circle cx="7029.0" cy="2165.0" fill="#090" r="16" stroke="#090" stroke-width="5" /><circle cx="7061.0" cy="1941.0" fill="#090" r="16" stroke="#090" stroke-width="5" /><circle cx="7061.0" cy="1813.0" fill="#090" r="16" stroke="#090" stroke-width="5" /><circle cx="7045.0" cy="1685.0" fill="#090" r="16" stroke="#090" stroke-width="5" /><circle cx="7109.0" cy="1525.0" fill="#090" r="16" stroke="#090" stroke-width="5" /><circle cx="5781.0" cy="293.0" fill="#009" r="16" stroke="#009" stroke-width="5" /><circle cx="5909.0" cy="293.0" fill="#009" r="16" stroke="#009" stroke-width="5" /><circle cx="6021.0" cy="325.0" fill="#009" r="16" stroke="#009" stroke-width="5" /><circle cx="6165.0" cy="325.0" fill="#009" r="16" stroke="#009" stroke-width="5" /><circle cx="6277.0" cy="357.0" fill="#009" r="16" stroke="#009" stroke-width="5" /><circle cx="6357.0" cy="437.0" fill="#009" r="16" stroke="#009" stroke-width="5" /><circle cx="6469.0" cy="469.0" fill="#009" r="16" stroke="#009" stroke-width="5" /><circle cx="5109.0" cy="1893.0" fill="#900" r="16" stroke="#900" stroke-width="5" /><circle cx="4981.0" cy="2149.0" fill="#900" r="16" stroke="#900" stroke-width="5" /><circle cx="4965.0" cy="1957.0" fill="#900" r="16" stroke="#900" stroke-width="5" /><circle cx="4917.0" cy="1733.0" fill="#900" r="16" stroke="#900" stroke-width="5" /><circle cx="5813.0" cy="2645.0" fill="#900" r="16" stroke="#900" stroke-width="5" /><circle cx="5861.0" cy="869.0" fill="#900" r="16" stroke="#900" stroke-width="5" /><circle cx="6261.0" cy="2037.0" fill="#900" r="16" stroke="#900" stroke-width="5" /><circle cx="6805.0" cy="1637.0" fill="#009" r="16" stroke="#009" stroke-width="5" /></svg>