<?xml version="1.0" encoding="utf-8" ?>
<svg baseProfile="tiny" height="717" version="1.2" viewBox="0 0 2570 1802" width="1024" xmlns="http://www.w3.org/2000/svg" xmlns:ev="http://www.w3.org/2001/xml-events" xmlns:xlink="http://www.w3.org/1999/xlink"><defs /><line stroke="#333" stroke-width="10" x1="773.0" x2="773.0" y1="1541.0" y2="1477.0" /><line stroke="#333" stroke-width="10" x1="709.0" x2="773.0" y1="1541.0" y2="1541.0" /><line stroke="#999" stroke-width="3" x1="581.0" x2="709.0" y1="1541.0" y2="1541.0" /><line stroke="#333" stroke-width="10" x1="517.0" x2="581.0" y1="1541.0" y2="1541.0" /><line stroke="#333" stroke-width="10" x1="517.0" x2="517.0" y1="1509.0" y2="1541.0" /><line stroke="#333" stroke-width="10" x1="197.0" x2="517.0" y1="1189.0" y2="1509.0" /><line stroke="#333" stroke-width="10" x1="773.0" x2="773.0" y1="1221.0" y2="965.0" /><line stroke="#999" stroke-width="3" x1="773.0" x2="773.0" y1="1477.0" y2="1221.0" /><line stroke="#999" stroke-width="3" x1="389.0" x2="261.0" y1="965.0" y2="965.0" /><line stroke="#333" stroke-width="10" x1="773.0" x2="389.0" y1="965.0" y2="965.0" /><line stroke="#333" stroke-width="10" x1="197.0" x2="197.0" y1="965.0" y2="1189.0" /><line stroke="#333" stroke-width="10" x1="261.0" x2="197.0" y1="965.0" y2="965.0" /><line stroke="#999" stroke-width="3" x1="581.0" x2="709.0" y1="1573.0" y2="1573.0" /><line stroke="#333" stroke-width="10" x1="709.0" x2="709.0" y1="1573.0" y2="1541.0" /><line stroke="#333" stroke-width="10" x1="581.0" x2="581.0" y1="1541.0" y2="1573.0" /><line stroke="#333" stroke-width="10" x1="773.0" x2="805.0" y1="1477.0" y2="1477.0" /><line stroke="#999" stroke-width="3" x1="805.0" x2="805.0" y1="1221.0" y2="1477.0" /><line stroke="#333" stroke-width="10" x1="805.0" x2="773.0" y1="1221.0" y2="1221.0" /><line stroke="#333" stroke-width="10" x1="1221.0" x2="1221.0" y1="1285.0" y2="1029.0" /><line stroke="#333" stroke-width="10" x1="1157.0" x2="1221.0" y1="1413.0" y2="1285.0" /><line stroke="#999" stroke-width="3" x1="1029.0" x2="1157.0" y1="1477.0" y2="1413.0" /><line stroke="#333" stroke-width="10" x1="805.0" x2="1029.0" y1="1477.0" y2="1477.0" /><line stroke="#333" stroke-width="10" x1="1029.0" x2="805.0" y1="1221.0" y2="1221.0" /><line stroke="#333" stroke-width="10" x1="1093.0" x2="1029.0" y1="1157.0" y2="1221.0" /><line stroke="#333" stroke-width="10" x1="1093.0" x2="1093.0" y1="1029.0" y2="1157.0" /><line stroke="#999" stroke-width="3" x1="1221.0" x2="1093.0" y1="1029.0" y2="1029.0" /><line stroke="#999" stroke-width="3" x1="1045.0" x2="1173.0" y1="1493.0" y2="1429.0" /><line stroke="#333" stroke-width="10" x1="1029.0" x2="1045.0" y1="1477.0" y2="1493.0" /><line stroke="#333" stroke-width="10" x1="1381.0" x2="1381.0" y1="1541.0" y2="1285.0" /><line stroke="#333" stroke-width="10" x1="1253.0" x2="1381.0" y1="1669.0" y2="1541.0" /><line stroke="#333" stroke-width="10" x1="837.0" x2="1253.0" y1="1669.0" y2="1669.0" /><line stroke="#333" stroke-width="10" x1="837.0" x2="837.0" y1="1509.0" y2="1669.0" /><line stroke="#333" stroke-width="10" x1="1045.0" x2="837.0" y1="1493.0" y2="1509.0" /><line stroke="#333" stroke-width="10" x1="1253.0" x2="1173.0" y1="1285.0" y2="1429.0" /><line stroke="#333" stroke-width="10" x1="1381.0" x2="1349.0" y1="1285.0" y2="1285.0" /><line stroke="#333" stroke-width="10" x1="1173.0" x2="1157.0" y1="1429.0" y2="1413.0" /><line stroke="#999" stroke-width="3" x1="1205.0" x2="1077.0" y1="1461.0" y2="1525.0" /><line stroke="#999" stroke-width="3" x1="1173.0" x2="1189.0" y1="1429.0" y2="1445.0" /><line stroke="#999" stroke-width="3" x1="1077.0" x2="1061.0" y1="1525.0" y2="1509.0" /><line stroke="#999" stroke-width="3" x1="1061.0" x2="1045.0" y1="1509.0" y2="1493.0" /><line stroke="#999" stroke-width="3" x1="1189.0" x2="1205.0" y1="1445.0" y2="1461.0" /><line stroke="#999" stroke-width="3" x1="1189.0" x2="1061.0" y1="1445.0" y2="1509.0" /><line stroke="#333" stroke-width="10" x1="389.0" x2="389.0" y1="965.0" y2="933.0" /><line stroke="#333" stroke-width="10" x1="261.0" x2="261.0" y1="357.0" y2="933.0" /><line stroke="#333" stroke-width="10" x1="293.0" x2="261.0" y1="261.0" y2="357.0" /><line stroke="#333" stroke-width="10" x1="389.0" x2="293.0" y1="229.0" y2="261.0" /><line stroke="#333" stroke-width="10" x1="1669.0" x2="1605.0" y1="229.0" y2="229.0" /><line stroke="#999" stroke-width="3" x1="1541.0" x2="1605.0" y1="357.0" y2="293.0" /><line stroke="#333" stroke-width="10" x1="389.0" x2="453.0" y1="357.0" y2="357.0" /><line stroke="#333" stroke-width="10" x1="389.0" x2="389.0" y1="805.0" y2="357.0" /><line stroke="#333" stroke-width="10" x1="645.0" x2="725.0" y1="901.0" y2="885.0" /><line stroke="#333" stroke-width="10" x1="741.0" x2="741.0" y1="805.0" y2="741.0" /><line stroke="#333" stroke-width="10" x1="645.0" x2="645.0" y1="357.0" y2="741.0" /><line stroke="#333" stroke-width="10" x1="725.0" x2="741.0" y1="885.0" y2="805.0" /><line stroke="#999" stroke-width="3" x1="741.0" x2="645.0" y1="357.0" y2="357.0" /><line stroke="#333" stroke-width="10" x1="517.0" x2="453.0" y1="805.0" y2="805.0" /><line stroke="#333" stroke-width="10" x1="517.0" x2="581.0" y1="901.0" y2="901.0" /><line stroke="#999" stroke-width="3" x1="517.0" x2="517.0" y1="901.0" y2="805.0" /><line stroke="#333" stroke-width="10" x1="581.0" x2="645.0" y1="901.0" y2="901.0" /><line stroke="#333" stroke-width="10" x1="581.0" x2="517.0" y1="805.0" y2="805.0" /><line stroke="#999" stroke-width="3" x1="581.0" x2="581.0" y1="901.0" y2="805.0" /><line stroke="#333" stroke-width="10" x1="453.0" x2="517.0" y1="901.0" y2="901.0" /><line stroke="#333" stroke-width="10" x1="453.0" x2="389.0" y1="805.0" y2="805.0" /><line stroke="#999" stroke-width="3" x1="453.0" x2="453.0" y1="901.0" y2="805.0" /><line stroke="#333" stroke-width="10" x1="389.0" x2="453.0" y1="901.0" y2="901.0" /><line stroke="#999" stroke-width="3" x1="389.0" x2="389.0" y1="901.0" y2="805.0" /><line stroke="#999" stroke-width="3" x1="741.0" x2="645.0" y1="805.0" y2="805.0" /><line stroke="#333" stroke-width="10" x1="645.0" x2="645.0" y1="741.0" y2="805.0" /><line stroke="#333" stroke-width="10" x1="741.0" x2="741.0" y1="741.0" y2="677.0" /><line stroke="#999" stroke-width="3" x1="741.0" x2="645.0" y1="741.0" y2="741.0" /><line stroke="#333" stroke-width="10" x1="741.0" x2="1541.0" y1="357.0" y2="357.0" /><line stroke="#333" stroke-width="10" x1="261.0" x2="261.0" y1="933.0" y2="965.0" /><line stroke="#333" stroke-width="10" x1="389.0" x2="389.0" y1="933.0" y2="901.0" /><line stroke="#999" stroke-width="3" x1="389.0" x2="261.0" y1="933.0" y2="933.0" /><line stroke="#333" stroke-width="10" x1="645.0" x2="581.0" y1="805.0" y2="805.0" /><line stroke="#999" stroke-width="3" x1="645.0" x2="645.0" y1="901.0" y2="805.0" /><line stroke="#999" stroke-width="3" x1="725.0" x2="645.0" y1="885.0" y2="805.0" /><line stroke="#999" stroke-width="3" x1="901.0" x2="1157.0" y1="325.0" y2="325.0" /><line stroke="#999" stroke-width="3" x1="1157.0" x2="1157.0" y1="325.0" y2="261.0" /><line stroke="#999" stroke-width="3" x1="1157.0" x2="901.0" y1="261.0" y2="261.0" /><line stroke="#999" stroke-width="3" x1="901.0" x2="901.0" y1="261.0" y2="325.0" /><line stroke="#666" stroke-width="20" x1="1349.0" x2="1285.0" y1="1285.0" y2="1285.0" /><line stroke="#333" stroke-width="10" x1="1349.0" x2="1349.0" y1="1285.0" y2="1269.0" /><line stroke="#666" stroke-width="20" x1="1285.0" x2="1349.0" y1="1269.0" y2="1269.0" /><line stroke="#333" stroke-width="10" x1="1285.0" x2="1285.0" y1="1269.0" y2="1285.0" /><line stroke="#333" stroke-width="10" x1="1285.0" x2="1253.0" y1="1285.0" y2="1285.0" /><line stroke="#333" stroke-width="10" x1="1349.0" x2="1413.0" y1="1237.0" y2="1237.0" /><line stroke="#333" stroke-width="10" x1="1349.0" x2="1349.0" y1="1269.0" y2="1237.0" /><line stroke="#333" stroke-width="10" x1="1285.0" x2="1285.0" y1="1061.0" y2="1269.0" /><line stroke="#333" stroke-width="10" x1="1349.0" x2="1285.0" y1="1061.0" y2="1061.0" /><line stroke="#333" stroke-width="10" x1="1349.0" x2="1349.0" y1="997.0" y2="1061.0" /><line stroke="#333" stroke-width="10" x1="1413.0" x2="1349.0" y1="997.0" y2="997.0" /><line stroke="#333" stroke-width="10" x1="1413.0" x2="1413.0" y1="1237.0" y2="997.0" /><line stroke="#999" stroke-width="3" x1="581.0" x2="453.0" y1="389.0" y2="389.0" /><line stroke="#333" stroke-width="10" x1="581.0" x2="581.0" y1="389.0" y2="357.0" /><line stroke="#666" stroke-width="20" x1="453.0" x2="581.0" y1="357.0" y2="357.0" /><line stroke="#333" stroke-width="10" x1="453.0" x2="453.0" y1="357.0" y2="389.0" /><line stroke="#333" stroke-width="10" x1="581.0" x2="645.0" y1="357.0" y2="357.0" /><line stroke="#333" stroke-width="10" x1="453.0" x2="581.0" y1="645.0" y2="645.0" /><line stroke="#333" stroke-width="10" x1="581.0" x2="581.0" y1="645.0" y2="389.0" /><line stroke="#333" stroke-width="10" x1="453.0" x2="453.0" y1="389.0" y2="645.0" /><line stroke="#333" stroke-width="10" x1="1221.0" x2="1669.0" y1="965.0" y2="965.0" /><line stroke="#333" stroke-width="10" x1="1221.0" x2="1221.0" y1="1029.0" y2="965.0" /><line stroke="#333" stroke-width="10" x1="869.0" x2="933.0" y1="1029.0" y2="1029.0" /><line stroke="#333" stroke-width="10" x1="869.0" x2="869.0" y1="453.0" y2="549.0" /><line stroke="#333" stroke-width="10" x1="1477.0" x2="869.0" y1="453.0" y2="453.0" /><line stroke="#333" stroke-width="10" x1="1669.0" x2="1669.0" y1="965.0" y2="773.0" /><line stroke="#333" stroke-width="10" x1="1541.0" x2="1477.0" y1="837.0" y2="837.0" /><line stroke="#333" stroke-width="10" x1="1541.0" x2="1541.0" y1="357.0" y2="837.0" /><line stroke="#333" stroke-width="10" x1="741.0" x2="741.0" y1="549.0" y2="357.0" /><line stroke="#333" stroke-width="10" x1="869.0" x2="869.0" y1="677.0" y2="965.0" /><line stroke="#999" stroke-width="3" x1="741.0" x2="741.0" y1="677.0" y2="549.0" /><line stroke="#999" stroke-width="3" x1="869.0" x2="869.0" y1="549.0" y2="677.0" /><line stroke="#333" stroke-width="10" x1="741.0" x2="869.0" y1="677.0" y2="677.0" /><line stroke="#333" stroke-width="10" x1="869.0" x2="741.0" y1="549.0" y2="549.0" /><line stroke="#333" stroke-width="10" x1="933.0" x2="1093.0" y1="1029.0" y2="1029.0" /><line stroke="#333" stroke-width="10" x1="1477.0" x2="1477.0" y1="837.0" y2="453.0" /><line stroke="#999" stroke-width="3" x1="1477.0" x2="1413.0" y1="837.0" y2="805.0" /><line stroke="#999" stroke-width="3" x1="1413.0" x2="933.0" y1="517.0" y2="517.0" /><line stroke="#999" stroke-width="3" x1="933.0" x2="933.0" y1="517.0" y2="965.0" /><line stroke="#999" stroke-width="3" x1="1413.0" x2="1413.0" y1="805.0" y2="517.0" /><line stroke="#333" stroke-width="10" x1="709.0" x2="709.0" y1="1797.0" y2="1765.0" /><line stroke="#333" stroke-width="10" x1="325.0" x2="389.0" y1="1797.0" y2="1797.0" /><line stroke="#333" stroke-width="10" x1="197.0" x2="325.0" y1="1669.0" y2="1797.0" /><line stroke="#333" stroke-width="10" x1="69.0" x2="197.0" y1="1669.0" y2="1669.0" /><line stroke="#333" stroke-width="10" x1="69.0" x2="69.0" y1="1541.0" y2="1669.0" /><line stroke="#333" stroke-width="10" x1="5.0" x2="69.0" y1="1477.0" y2="1541.0" /><line stroke="#333" stroke-width="10" x1="5.0" x2="5.0" y1="901.0" y2="1477.0" /><line stroke="#999" stroke-width="3" x1="165.0" x2="5.0" y1="901.0" y2="901.0" /><line stroke="#333" stroke-width="10" x1="165.0" x2="165.0" y1="1221.0" y2="901.0" /><line stroke="#333" stroke-width="10" x1="517.0" x2="165.0" y1="1573.0" y2="1221.0" /><line stroke="#333" stroke-width="10" x1="581.0" x2="517.0" y1="1573.0" y2="1573.0" /><line stroke="#333" stroke-width="10" x1="165.0" x2="197.0" y1="741.0" y2="581.0" /><line stroke="#333" stroke-width="10" x1="165.0" x2="165.0" y1="901.0" y2="821.0" /><line stroke="#333" stroke-width="10" x1="53.0" x2="5.0" y1="581.0" y2="741.0" /><line stroke="#333" stroke-width="10" x1="53.0" x2="53.0" y1="149.0" y2="325.0" /><line stroke="#999" stroke-width="3" x1="197.0" x2="53.0" y1="277.0" y2="149.0" /><line stroke="#333" stroke-width="10" x1="741.0" x2="741.0" y1="229.0" y2="5.0" /><line stroke="#999" stroke-width="3" x1="741.0" x2="645.0" y1="229.0" y2="229.0" /><line stroke="#333" stroke-width="10" x1="645.0" x2="645.0" y1="133.0" y2="229.0" /><line stroke="#333" stroke-width="10" x1="341.0" x2="613.0" y1="133.0" y2="133.0" /><line stroke="#333" stroke-width="10" x1="197.0" x2="341.0" y1="277.0" y2="133.0" /><line stroke="#333" stroke-width="10" x1="197.0" x2="53.0" y1="5.0" y2="149.0" /><line stroke="#333" stroke-width="10" x1="741.0" x2="453.0" y1="5.0" y2="5.0" /><line stroke="#333" stroke-width="10" x1="645.0" x2="389.0" y1="229.0" y2="229.0" /><line stroke="#333" stroke-width="10" x1="5.0" x2="5.0" y1="821.0" y2="901.0" /><line stroke="#333" stroke-width="10" x1="165.0" x2="165.0" y1="821.0" y2="741.0" /><line stroke="#999" stroke-width="3" x1="165.0" x2="5.0" y1="821.0" y2="821.0" /><line stroke="#333" stroke-width="10" x1="5.0" x2="5.0" y1="741.0" y2="821.0" /><line stroke="#999" stroke-width="3" x1="165.0" x2="5.0" y1="741.0" y2="741.0" /><line stroke="#333" stroke-width="10" x1="197.0" x2="197.0" y1="357.0" y2="277.0" /><line stroke="#333" stroke-width="10" x1="53.0" x2="53.0" y1="325.0" y2="469.0" /><line stroke="#999" stroke-width="3" x1="197.0" x2="53.0" y1="357.0" y2="325.0" /><line stroke="#333" stroke-width="10" x1="53.0" x2="53.0" y1="469.0" y2="581.0" /><line stroke="#333" stroke-width="10" x1="197.0" x2="197.0" y1="469.0" y2="357.0" /><line stroke="#999" stroke-width="3" x1="197.0" x2="53.0" y1="469.0" y2="469.0" /><line stroke="#333" stroke-width="10" x1="197.0" x2="197.0" y1="581.0" y2="469.0" /><line stroke="#999" stroke-width="3" x1="197.0" x2="53.0" y1="581.0" y2="581.0" /><line stroke="#333" stroke-width="10" x1="389.0" x2="677.0" y1="1797.0" y2="1797.0" /><line stroke="#999" stroke-width="3" x1="389.0" x2="517.0" y1="1797.0" y2="1573.0" /><line stroke="#333" stroke-width="10" x1="613.0" x2="645.0" y1="133.0" y2="133.0" /><line stroke="#333" stroke-width="10" x1="453.0" x2="197.0" y1="5.0" y2="5.0" /><line stroke="#999" stroke-width="3" x1="453.0" x2="613.0" y1="5.0" y2="133.0" /><line stroke="#333" stroke-width="10" x1="869.0" x2="869.0" y1="965.0" y2="1029.0" /><line stroke="#999" stroke-width="3" x1="933.0" x2="933.0" y1="965.0" y2="1029.0" /><line stroke="#999" stroke-width="3" x1="933.0" x2="869.0" y1="965.0" y2="965.0" /><line stroke="#333" stroke-width="10" x1="1669.0" x2="1669.0" y1="293.0" y2="229.0" /><line stroke="#999" stroke-width="3" x1="1605.0" x2="1669.0" y1="293.0" y2="293.0" /><line stroke="#999" stroke-width="3" x1="1605.0" x2="1669.0" y1="293.0" y2="229.0" /><line stroke="#333" stroke-width="10" x1="1605.0" x2="741.0" y1="229.0" y2="229.0" /><line stroke="#999" stroke-width="3" x1="1605.0" x2="1605.0" y1="229.0" y2="293.0" /><line stroke="#333" stroke-width="10" x1="677.0" x2="709.0" y1="1797.0" y2="1797.0" /><line stroke="#333" stroke-width="10" x1="709.0" x2="709.0" y1="1765.0" y2="1573.0" /><line stroke="#999" stroke-width="3" x1="709.0" x2="677.0" y1="1765.0" y2="1765.0" /><line stroke="#999" stroke-width="3" x1="677.0" x2="677.0" y1="1765.0" y2="1797.0" /><line stroke="#333" stroke-width="10" x1="1669.0" x2="1669.0" y1="517.0" y2="293.0" /><line stroke="#333" stroke-width="10" x1="2053.0" x2="2053.0" y1="1029.0" y2="773.0" /><line stroke="#333" stroke-width="10" x1="1797.0" x2="2565.0" y1="1285.0" y2="1285.0" /><line stroke="#333" stroke-width="10" x1="1797.0" x2="1797.0" y1="773.0" y2="1285.0" /><line stroke="#333" stroke-width="10" x1="1797.0" x2="1669.0" y1="517.0" y2="517.0" /><line stroke="#333" stroke-width="10" x1="1797.0" x2="1797.0" y1="5.0" y2="517.0" /><line stroke="#333" stroke-width="10" x1="2053.0" x2="2309.0" y1="261.0" y2="261.0" /><line stroke="#333" stroke-width="10" x1="1669.0" x2="1797.0" y1="773.0" y2="773.0" /><line stroke="#999" stroke-width="3" x1="1669.0" x2="1669.0" y1="517.0" y2="773.0" /><line stroke="#333" stroke-width="10" x1="2309.0" x2="2053.0" y1="517.0" y2="517.0" /><line stroke="#333" stroke-width="10" x1="2053.0" x2="2053.0" y1="517.0" y2="261.0" /><line stroke="#333" stroke-width="10" x1="2309.0" x2="2309.0" y1="773.0" y2="1029.0" /><line stroke="#333" stroke-width="10" x1="2053.0" x2="2309.0" y1="773.0" y2="773.0" /><line stroke="#333" stroke-width="10" x1="2565.0" x2="1797.0" y1="5.0" y2="5.0" /><line stroke="#333" stroke-width="10" x1="2309.0" x2="2053.0" y1="1029.0" y2="1029.0" /><line stroke="#333" stroke-width="10" x1="2309.0" x2="2309.0" y1="261.0" y2="517.0" /><line stroke="#999" stroke-width="3" x1="2309.0" x2="2565.0" y1="261.0" y2="5.0" /><line stroke="#999" stroke-width="3" x1="2565.0" x2="2309.0" y1="1285.0" y2="1029.0" /><line stroke="#333" stroke-width="10" x1="2565.0" x2="2565.0" y1="1285.0" y2="5.0" /><ellipse cx="229.0" cy="997.0" fill="#009" rx="12" ry="24" stroke="#009" stroke-width="5" /><rect fill="#900" height="48" stroke="#900" stroke-width="5" transform="rotate(225,1253.0,1541.0)" width="32" x="1237.0" y="1517.0" /><rect fill="#900" height="48" stroke="#900" stroke-width="5" transform="rotate(225,1157.0,1605.0)" width="32" x="1141.0" y="1581.0" /><ellipse cx="725.0" cy="373.0" fill="#900" rx="12" ry="24" stroke="#900" stroke-width="5" /><ellipse cx="757.0" cy="1525.0" fill="#900" rx="12" ry="24" stroke="#900" stroke-width="5" /><ellipse cx="533.0" cy="1525.0" fill="#900" rx="12" ry="24" stroke="#900" stroke-width="5" /><ellipse cx="853.0" cy="1653.0" fill="#900" rx="12" ry="24" stroke="#900" stroke-width="5" /><ellipse cx="853.0" cy="1621.0" fill="#900" rx="12" ry="24" stroke="#900" stroke-width="5" /><ellipse cx="853.0" cy="1589.0" fill="#900" rx="12" ry="24" stroke="#900" stroke-width="5" /><ellipse cx="853.0" cy="1557.0" fill="#900" rx="12" ry="24" stroke="#900" stroke-width="5" /><ellipse cx="853.0" cy="1525.0" fill="#900" rx="12" ry="24" stroke="#900" stroke-width="5" /><ellipse cx="1269.0" cy="1301.0" fill="#900" rx="12" ry="24" stroke="#900" stroke-width="5" /><ellipse cx="1301.0" cy="1301.0" fill="#900" rx="12" ry="24" stroke="#900" stroke-width="5" /><ellipse cx="1333.0" cy="1301.0" fill="#900" rx="12" ry="24" stroke="#900" stroke-width="5" /><ellipse cx="1365.0" cy="1301.0" fill="#900" rx="12" ry="24" stroke="#900" stroke-width="5" /><ellipse cx="1189.0" cy="1429.0" fill="#900" rx="12" ry="24" stroke="#900" stroke-width="5" /><ellipse cx="1045.0" cy="1509.0" fill="#900" rx="12" ry="24" stroke="#900" stroke-width="5" /><circle cx="1317.0" cy="1189.0" fill="#900" r="16" stroke="#900" stroke-width="5" /><circle cx="1317.0" cy="1077.0" fill="#090" r="16" stroke="#090" stroke-width="5" /><circle cx="1381.0" cy="1013.0" fill="#090" r="16" stroke="#090" stroke-width="5" /><circle cx="1381.0" cy="1045.0" fill="#090" r="16" stroke="#090" stroke-width="5" /><circle cx="1381.0" cy="1077.0" fill="#090" r="16" stroke="#090" stroke-width="5" /><circle cx="1349.0" cy="1077.0" fill="#090" r="16" stroke="#090" stroke-width="5" /><circle cx="1397.0" cy="1221.0" fill="#009" r="16" stroke="#009" stroke-width="5" /><circle cx="1397.0" cy="1205.0" fill="#009" r="16" stroke="#009" stroke-width="5" /><circle cx="1397.0" cy="1189.0" fill="#009" r="16" stroke="#009" stroke-width="5" /><circle cx="1397.0" cy="1173.0" fill="#009" r="16" stroke="#009" stroke-width="5" /><circle cx="1397.0" cy="1157.0" fill="#009" r="16" stroke="#009" stroke-width="5" /><circle cx="1397.0" cy="1141.0" fill="#009" r="16" stroke="#009" stroke-width="5" /><circle cx="1397.0" cy="1125.0" fill="#009" r="16" stroke="#009" stroke-width="5" /><circle cx="1397.0" cy="1109.0" fill="#009" r="16" stroke="#009" stroke-width="5" /><circle cx="1381.0" cy="1221.0" fill="#009" r="16" stroke="#009" stroke-width="5" /><circle cx="1381.0" cy="1205.0" fill="#009" r="16" stroke="#009" stroke-width="5" /><circle cx="1381.0" cy="1189.0" fill="#009" r="16" stroke="#009" stroke-width="5" /><circle cx="1381.0" cy="1173.0" fill="#009" r="16" stroke="#009" stroke-width="5" /><circle cx="1381.0" cy="1157.0" fill="#009" r="16" stroke="#009" stroke-width="5" /><circle cx="1381.0" cy="1141.0" fill="#009" r="16" stroke="#009" stroke-width="5" /><circle cx="1381.0" cy="1125.0" fill="#009" r="16" stroke="#009" stroke-width="5" /><circle cx="1381.0" cy="1109.0" fill="#009" r="16" stroke="#009" stroke-width="5" /><circle cx="485.0" cy="613.0" fill="#009" r="16" stroke="#009" stroke-width="5" /><rect fill="#090" height="24" stroke="#090" stroke-width="5" transform="rotate(270,549.0,613.0)" width="24" x="537.0" y="601.0" /><circle cx="485.0" cy="485.0" fill="#090" r="16" stroke="#090" stroke-width="5" /><circle cx="485.0" cy="501.0" fill="#090" r="16" stroke="#090" stroke-width="5" /><circle cx="485.0" cy="517.0" fill="#090" r="16" stroke="#090" stroke-width="5" /><circle cx="485.0" cy="469.0" fill="#090" r="16" stroke="#090" stroke-width="5" /><circle cx="485.0" cy="453.0" fill="#090" r="16" stroke="#090" stroke-width="5" /><circle cx="485.0" cy="437.0" fill="#090" r="16" stroke="#090" stroke-width="5" /><circle cx="485.0" cy="421.0" fill="#090" r="16" stroke="#090" stroke-width="5" /><circle cx="485.0" cy="533.0" fill="#090" r="16" stroke="#090" stroke-width="5" /><circle cx="549.0" cy="533.0" fill="#090" r="16" stroke="#090" stroke-width="5" /><circle cx="549.0" cy="517.0" fill="#090" r="16" stroke="#090" stroke-width="5" /><circle cx="549.0" cy="501.0" fill="#090" r="16" stroke="#090" stroke-width="5" /><circle cx="549.0" cy="485.0" fill="#090" r="16" stroke="#090" stroke-width="5" /><circle cx="549.0" cy="469.0" fill="#090" r="16" stroke="#090" stroke-width="5" /><circle cx="549.0" cy="453.0" fill="#090" r="16" stroke="#090" stroke-width="5" /><circle cx="549.0" cy="437.0" fill="#090" r="16" stroke="#090" stroke-width="5" /><circle cx="549.0" cy="421.0" fill="#090" r="16" stroke="#090" stroke-width="5" /><ellipse cx="725.0" cy="21.0" fill="#900" rx="12" ry="24" stroke="#900" stroke-width="5" /><ellipse cx="85.0" cy="1653.0" fill="#900" rx="12" ry="24" stroke="#900" stroke-width="5" /><ellipse cx="117.0" cy="1653.0" fill="#900" rx="12" ry="24" stroke="#900" stroke-width="5" /><ellipse cx="149.0" cy="1653.0" fill="#900" rx="12" ry="24" stroke="#900" stroke-width="5" /><ellipse cx="85.0" cy="1621.0" fill="#900" rx="12" ry="24" stroke="#900" stroke-width="5" /><ellipse cx="85.0" cy="1589.0" fill="#900" rx="12" ry="24" stroke="#900" stroke-width="5" /><ellipse cx="101.0" cy="1637.0" fill="#900" rx="12" ry="24" stroke="#900" stroke-width="5" /><rect fill="#090" height="24" stroke="#090" stroke-width="5" transform="rotate(180,533.0,21.0)" width="24" x="521.0" y="9.0" /><rect fill="#090" height="24" stroke="#090" stroke-width="5" transform="rotate(0,789.0,581.0)" width="24" x="777.0" y="569.0" /><rect fill="#090" height="24" stroke="#090" stroke-width="5" transform="rotate(315,885.0,1013.0)" width="24" x="873.0" y="1001.0" /><rect fill="#090" height="24" stroke="#090" stroke-width="5" transform="rotate(180,1653.0,245.0)" width="24" x="1641.0" y="233.0" /><rect fill="#090" height="24" stroke="#090" stroke-width="5" transform="rotate(270,693.0,1781.0)" width="24" x="681.0" y="1769.0" /><rect fill="#090" height="24" stroke="#090" stroke-width="5" transform="rotate(180,1925.0,645.0)" width="24" x="1913.0" y="633.0" /><rect fill="#900" height="48" stroke="#900" stroke-width="5" transform="rotate(225,2085.0,1141.0)" width="32" x="2069.0" y="1117.0" /><rect fill="#900" height="48" stroke="#900" stroke-width="5" transform="rotate(135,2077.0,133.0)" width="32" x="2061.0" y="109.0" /><rect fill="#900" height="48" stroke="#900" stroke-width="5" transform="rotate(135,2429.0,445.0)" width="32" x="2413.0" y="421.0" /><rect fill="#900" height="48" stroke="#900" stroke-width="5" transform="rotate(225,2445.0,861.0)" width="32" x="2429.0" y="837.0" /><rect fill="#900" height="48" stroke="#900" stroke-width="5" transform="rotate(225,709.0,453.0)" width="32" x="693.0" y="429.0" /><rect fill="#900" height="48" stroke="#900" stroke-width="5" transform="rotate(135,317.0,77.0)" width="32" x="301.0" y="53.0" /><rect fill="#900" height="48" stroke="#900" stroke-width="5" transform="rotate(45,269.0,1437.0)" width="32" x="253.0" y="1413.0" /></svg>