<?xml version="1.0" encoding="utf-8" ?>
<svg baseProfile="tiny" height="794" version="1.2" viewBox="0 0 12554 9738" width="1024" xmlns="http://www.w3.org/2000/svg" xmlns:ev="http://www.w3.org/2001/xml-events" xmlns:xlink="http://www.w3.org/1999/xlink"><defs /><line stroke="#333" stroke-width="10" x1="6725.0" x2="6405.0" y1="6341.0" y2="6021.0" /><line stroke="#333" stroke-width="10" x1="6405.0" x2="5957.0" y1="6021.0" y2="6277.0" /><line stroke="#666" stroke-width="20" x1="5957.0" x2="5957.0" y1="6277.0" y2="6405.0" /><line stroke="#333" stroke-width="10" x1="5957.0" x2="6405.0" y1="6405.0" y2="6725.0" /><line stroke="#333" stroke-width="10" x1="6405.0" x2="6725.0" y1="6725.0" y2="6469.0" /><line stroke="#333" stroke-width="10" x1="6725.0" x2="6789.0" y1="6469.0" y2="6469.0" /><line stroke="#666" stroke-width="20" x1="6789.0" x2="6789.0" y1="6341.0" y2="6469.0" /><line stroke="#333" stroke-width="10" x1="6789.0" x2="6725.0" y1="6341.0" y2="6341.0" /><line stroke="#666" stroke-width="20" x1="6725.0" x2="6725.0" y1="6469.0" y2="6341.0" /><line stroke="#333" stroke-width="10" x1="6789.0" x2="7557.0" y1="6469.0" y2="6469.0" /><line stroke="#666" stroke-width="20" x1="7557.0" x2="7557.0" y1="6469.0" y2="6341.0" /><line stroke="#333" stroke-width="10" x1="7557.0" x2="6789.0" y1="6341.0" y2="6341.0" /><line stroke="#333" stroke-width="10" x1="7557.0" x2="7621.0" y1="6469.0" y2="6469.0" /><line stroke="#666" stroke-width="20" x1="7621.0" x2="7621.0" y1="6341.0" y2="6469.0" /><line stroke="#333" stroke-width="10" x1="7621.0" x2="7557.0" y1="6341.0" y2="6341.0" /><line stroke="#333" stroke-width="10" x1="7621.0" x2="7941.0" y1="6469.0" y2="6597.0" /><line stroke="#d00" stroke-width="20" x1="8069.0" x2="8069.0" y1="6597.0" y2="6213.0" /><line stroke="#d00" stroke-width="20" x1="8069.0" x2="7941.0" y1="6213.0" y2="6213.0" /><line stroke="#d00" stroke-width="20" x1="7941.0" x2="8069.0" y1="6597.0" y2="6597.0" /><line stroke="#333" stroke-width="10" x1="7941.0" x2="7621.0" y1="6213.0" y2="6341.0" /><line stroke="#d00" stroke-width="20" x1="8069.0" x2="7941.0" y1="6661.0" y2="6661.0" /><line stroke="#333" stroke-width="10" x1="8069.0" x2="8069.0" y1="6661.0" y2="6597.0" /><line stroke="#333" stroke-width="10" x1="7941.0" x2="7941.0" y1="6597.0" y2="6661.0" /><line stroke="#666" stroke-width="20" x1="7941.0" x2="8069.0" y1="8709.0" y2="8709.0" /><line stroke="#333" stroke-width="10" x1="8069.0" x2="8069.0" y1="8709.0" y2="6661.0" /><line stroke="#333" stroke-width="10" x1="7941.0" x2="7941.0" y1="6661.0" y2="8709.0" /><line stroke="#666" stroke-width="20" x1="8069.0" x2="7941.0" y1="8773.0" y2="8773.0" /><line stroke="#333" stroke-width="10" x1="8069.0" x2="8069.0" y1="8773.0" y2="8709.0" /><line stroke="#333" stroke-width="10" x1="7941.0" x2="7941.0" y1="8709.0" y2="8773.0" /><line stroke="#333" stroke-width="10" x1="8645.0" x2="8069.0" y1="8773.0" y2="8773.0" /><line stroke="#333" stroke-width="10" x1="7941.0" x2="7365.0" y1="8773.0" y2="8773.0" /><line stroke="#333" stroke-width="10" x1="7365.0" x2="8005.0" y1="8773.0" y2="9733.0" /><line stroke="#333" stroke-width="10" x1="8005.0" x2="8645.0" y1="9733.0" y2="8773.0" /><line stroke="#999" stroke-width="3" x1="7941.0" x2="8069.0" y1="9477.0" y2="9477.0" /><line stroke="#999" stroke-width="3" x1="8069.0" x2="8069.0" y1="9477.0" y2="9349.0" /><line stroke="#999" stroke-width="3" x1="8069.0" x2="7941.0" y1="9349.0" y2="9349.0" /><line stroke="#999" stroke-width="3" x1="7941.0" x2="7941.0" y1="9349.0" y2="9477.0" /><line stroke="#333" stroke-width="10" x1="8069.0" x2="8069.0" y1="6213.0" y2="6149.0" /><line stroke="#d00" stroke-width="20" x1="7941.0" x2="8069.0" y1="6149.0" y2="6149.0" /><line stroke="#333" stroke-width="10" x1="7941.0" x2="7941.0" y1="6149.0" y2="6213.0" /><line stroke="#333" stroke-width="10" x1="8069.0" x2="8069.0" y1="6149.0" y2="1925.0" /><line stroke="#666" stroke-width="20" x1="8069.0" x2="7941.0" y1="1925.0" y2="1925.0" /><line stroke="#333" stroke-width="10" x1="7941.0" x2="7941.0" y1="1925.0" y2="6149.0" /><line stroke="#333" stroke-width="10" x1="8069.0" x2="8069.0" y1="1925.0" y2="1861.0" /><line stroke="#666" stroke-width="20" x1="7941.0" x2="8069.0" y1="1861.0" y2="1861.0" /><line stroke="#333" stroke-width="10" x1="7941.0" x2="7941.0" y1="1861.0" y2="1925.0" /><line stroke="#333" stroke-width="10" x1="9429.0" x2="8965.0" y1="933.0" y2="5.0" /><line stroke="#333" stroke-width="10" x1="7877.0" x2="7237.0" y1="5.0" y2="325.0" /><line stroke="#333" stroke-width="10" x1="6789.0" x2="7109.0" y1="1221.0" y2="1477.0" /><line stroke="#333" stroke-width="10" x1="8069.0" x2="9029.0" y1="1861.0" y2="1477.0" /><line stroke="#333" stroke-width="10" x1="8965.0" x2="7877.0" y1="5.0" y2="5.0" /><line stroke="#333" stroke-width="10" x1="7237.0" x2="6789.0" y1="325.0" y2="1221.0" /><line stroke="#333" stroke-width="10" x1="9029.0" x2="9429.0" y1="1477.0" y2="933.0" /><line stroke="#333" stroke-width="10" x1="7109.0" x2="7941.0" y1="1477.0" y2="1861.0" /><line stroke="#999" stroke-width="3" x1="8005.0" x2="8581.0" y1="581.0" y2="581.0" /><line stroke="#999" stroke-width="3" x1="8581.0" x2="8581.0" y1="581.0" y2="133.0" /><line stroke="#999" stroke-width="3" x1="8581.0" x2="8005.0" y1="133.0" y2="133.0" /><line stroke="#999" stroke-width="3" x1="8005.0" x2="8005.0" y1="133.0" y2="581.0" /><line stroke="#333" stroke-width="10" x1="8069.0" x2="8133.0" y1="6597.0" y2="6597.0" /><line stroke="#d00" stroke-width="20" x1="8133.0" x2="8133.0" y1="6213.0" y2="6597.0" /><line stroke="#333" stroke-width="10" x1="8133.0" x2="8069.0" y1="6213.0" y2="6213.0" /><line stroke="#333" stroke-width="10" x1="8133.0" x2="9221.0" y1="6597.0" y2="6597.0" /><line stroke="#0d0" stroke-width="20" x1="12549.0" x2="12549.0" y1="6469.0" y2="6341.0" /><line stroke="#333" stroke-width="10" x1="12549.0" x2="11653.0" y1="6341.0" y2="6341.0" /><line stroke="#333" stroke-width="10" x1="9925.0" x2="9221.0" y1="6277.0" y2="6213.0" /><line stroke="#333" stroke-width="10" x1="9221.0" x2="9925.0" y1="6597.0" y2="6533.0" /><line stroke="#333" stroke-width="10" x1="9925.0" x2="11653.0" y1="6533.0" y2="6469.0" /><line stroke="#333" stroke-width="10" x1="9221.0" x2="8133.0" y1="6213.0" y2="6213.0" /><line stroke="#333" stroke-width="10" x1="11653.0" x2="9925.0" y1="6341.0" y2="6277.0" /><line stroke="#333" stroke-width="10" x1="11653.0" x2="12549.0" y1="6469.0" y2="6469.0" /><line stroke="#333" stroke-width="10" x1="5893.0" x2="5957.0" y1="6405.0" y2="6405.0" /><line stroke="#333" stroke-width="10" x1="5957.0" x2="5893.0" y1="6277.0" y2="6277.0" /><line stroke="#666" stroke-width="20" x1="5893.0" x2="5893.0" y1="6405.0" y2="6277.0" /><line stroke="#333" stroke-width="10" x1="5.0" x2="5893.0" y1="6405.0" y2="6405.0" /><line stroke="#333" stroke-width="10" x1="5893.0" x2="5.0" y1="6277.0" y2="6277.0" /><line stroke="#333" stroke-width="10" x1="5.0" x2="5.0" y1="6277.0" y2="6405.0" /><ellipse cx="6277.0" cy="6341.0" fill="#009" rx="12" ry="24" stroke="#009" stroke-width="5" /><circle cx="6981.0" cy="6405.0" fill="#900" r="16" stroke="#900" stroke-width="5" /><circle cx="7045.0" cy="6405.0" fill="#900" r="16" stroke="#900" stroke-width="5" /><circle cx="7109.0" cy="6405.0" fill="#090" r="16" stroke="#090" stroke-width="5" /><circle cx="7173.0" cy="6405.0" fill="#090" r="16" stroke="#090" stroke-width="5" /><circle cx="7237.0" cy="6405.0" fill="#090" r="16" stroke="#090" stroke-width="5" /><circle cx="7301.0" cy="6405.0" fill="#090" r="16" stroke="#090" stroke-width="5" /><circle cx="7429.0" cy="6405.0" fill="#009" r="16" stroke="#009" stroke-width="5" /><circle cx="7493.0" cy="6405.0" fill="#009" r="16" stroke="#009" stroke-width="5" /><ellipse cx="8005.0" cy="6533.0" fill="#090" rx="12" ry="24" stroke="#090" stroke-width="5" /><ellipse cx="8005.0" cy="9413.0" fill="#090" rx="12" ry="24" stroke="#090" stroke-width="5" /><rect fill="#900" height="48" stroke="#900" stroke-width="5" transform="rotate(270,7813.0,9221.0)" width="32" x="7797.0" y="9197.0" /><rect fill="#900" height="48" stroke="#900" stroke-width="5" transform="rotate(180,8197.0,8837.0)" width="32" x="8181.0" y="8813.0" /><rect fill="#900" height="48" stroke="#900" stroke-width="5" transform="rotate(0,7813.0,8837.0)" width="32" x="7797.0" y="8813.0" /><rect fill="#900" height="48" stroke="#900" stroke-width="5" transform="rotate(270,8197.0,9221.0)" width="32" x="8181.0" y="9197.0" /><rect fill="#900" height="48" stroke="#900" stroke-width="5" transform="rotate(180,7941.0,6405.0)" width="32" x="7925.0" y="6381.0" /><rect fill="#900" height="48" stroke="#900" stroke-width="5" transform="rotate(180,8005.0,6341.0)" width="32" x="7989.0" y="6317.0" /><rect fill="#900" height="48" stroke="#900" stroke-width="5" transform="rotate(180,8005.0,6469.0)" width="32" x="7989.0" y="6445.0" /><circle cx="8005.0" cy="6917.0" fill="#090" r="16" stroke="#090" stroke-width="5" /><circle cx="8005.0" cy="7045.0" fill="#090" r="16" stroke="#090" stroke-width="5" /><circle cx="8005.0" cy="7173.0" fill="#090" r="16" stroke="#090" stroke-width="5" /><circle cx="8005.0" cy="8581.0" fill="#900" r="16" stroke="#900" stroke-width="5" /><circle cx="8005.0" cy="8517.0" fill="#090" r="16" stroke="#090" stroke-width="5" /><circle cx="8005.0" cy="8453.0" fill="#090" r="16" stroke="#090" stroke-width="5" /><circle cx="8005.0" cy="8389.0" fill="#090" r="16" stroke="#090" stroke-width="5" /><circle cx="8005.0" cy="8325.0" fill="#090" r="16" stroke="#090" stroke-width="5" /><rect fill="#090" height="24" stroke="#090" stroke-width="5" transform="rotate(270,8005.0,9541.0)" width="24" x="7993.0" y="9529.0" /><rect fill="#090" height="24" stroke="#090" stroke-width="5" transform="rotate(270,8005.0,9669.0)" width="24" x="7993.0" y="9657.0" /><ellipse cx="8325.0" cy="389.0" fill="#090" rx="12" ry="24" stroke="#090" stroke-width="5" /><rect fill="#900" height="48" stroke="#900" stroke-width="5" transform="rotate(180,8837.0,389.0)" width="32" x="8821.0" y="365.0" /><rect fill="#900" height="48" stroke="#900" stroke-width="5" transform="rotate(0,7557.0,389.0)" width="32" x="7541.0" y="365.0" /><rect fill="#900" height="48" stroke="#900" stroke-width="5" transform="rotate(90,7813.0,1669.0)" width="32" x="7797.0" y="1645.0" /><rect fill="#900" height="48" stroke="#900" stroke-width="5" transform="rotate(90,8069.0,1669.0)" width="32" x="8053.0" y="1645.0" /><rect fill="#900" height="48" stroke="#900" stroke-width="5" transform="rotate(90,8005.0,1669.0)" width="32" x="7989.0" y="1645.0" /><rect fill="#900" height="48" stroke="#900" stroke-width="5" transform="rotate(90,7941.0,1669.0)" width="32" x="7925.0" y="1645.0" /><rect fill="#900" height="48" stroke="#900" stroke-width="5" transform="rotate(90,7877.0,1669.0)" width="32" x="7861.0" y="1645.0" /><rect fill="#900" height="48" stroke="#900" stroke-width="5" transform="rotate(90,8133.0,1669.0)" width="32" x="8117.0" y="1645.0" /><rect fill="#900" height="48" stroke="#900" stroke-width="5" transform="rotate(90,8197.0,1669.0)" width="32" x="8181.0" y="1645.0" /><rect fill="#900" height="48" stroke="#900" stroke-width="5" transform="rotate(90,8261.0,1669.0)" width="32" x="8245.0" y="1645.0" /><rect fill="#900" height="48" stroke="#900" stroke-width="5" transform="rotate(90,8325.0,1669.0)" width="32" x="8309.0" y="1645.0" /><rect fill="#900" height="48" stroke="#900" stroke-width="5" transform="rotate(90,7749.0,1669.0)" width="32" x="7733.0" y="1645.0" /><rect fill="#090" height="24" stroke="#090" stroke-width="5" transform="rotate(90,8325.0,1477.0)" width="24" x="8313.0" y="1465.0" /><rect fill="#090" height="24" stroke="#090" stroke-width="5" transform="rotate(90,8197.0,1477.0)" width="24" x="8185.0" y="1465.0" /><rect fill="#090" height="24" stroke="#090" stroke-width="5" transform="rotate(90,8069.0,1477.0)" width="24" x="8057.0" y="1465.0" /><rect fill="#090" height="24" stroke="#090" stroke-width="5" transform="rotate(90,7941.0,1477.0)" width="24" x="7929.0" y="1465.0" /><rect fill="#090" height="24" stroke="#090" stroke-width="5" transform="rotate(90,7813.0,1477.0)" width="24" x="7801.0" y="1465.0" /><rect fill="#900" height="48" stroke="#900" stroke-width="5" transform="rotate(90,8389.0,1669.0)" width="32" x="8373.0" y="1645.0" /><rect fill="#900" height="48" stroke="#900" stroke-width="5" transform="rotate(90,8261.0,837.0)" width="32" x="8245.0" y="813.0" /><rect fill="#900" height="48" stroke="#900" stroke-width="5" transform="rotate(0,7173.0,1285.0)" width="32" x="7157.0" y="1261.0" /><rect fill="#900" height="48" stroke="#900" stroke-width="5" transform="rotate(0,7173.0,1093.0)" width="32" x="7157.0" y="1069.0" /><rect fill="#900" height="48" stroke="#900" stroke-width="5" transform="rotate(0,7365.0,901.0)" width="32" x="7349.0" y="877.0" /><rect fill="#900" height="48" stroke="#900" stroke-width="5" transform="rotate(180,8901.0,1221.0)" width="32" x="8885.0" y="1197.0" /><rect fill="#900" height="48" stroke="#900" stroke-width="5" transform="rotate(180,8837.0,965.0)" width="32" x="8821.0" y="941.0" /><rect fill="#900" height="48" stroke="#900" stroke-width="5" transform="rotate(180,8517.0,1221.0)" width="32" x="8501.0" y="1197.0" /><rect fill="#900" height="48" stroke="#900" stroke-width="5" transform="rotate(90,7685.0,1221.0)" width="32" x="7669.0" y="1197.0" /><rect fill="#900" height="48" stroke="#900" stroke-width="5" transform="rotate(90,7941.0,1093.0)" width="32" x="7925.0" y="1069.0" /><rect fill="#900" height="48" stroke="#900" stroke-width="5" transform="rotate(270,8261.0,965.0)" width="32" x="8245.0" y="941.0" /><rect fill="#900" height="48" stroke="#900" stroke-width="5" transform="rotate(90,8197.0,1285.0)" width="32" x="8181.0" y="1261.0" /><rect fill="#900" height="48" stroke="#900" stroke-width="5" transform="rotate(90,8325.0,453.0)" width="32" x="8309.0" y="429.0" /><rect fill="#900" height="48" stroke="#900" stroke-width="5" transform="rotate(45,8389.0,453.0)" width="32" x="8373.0" y="429.0" /><rect fill="#900" height="48" stroke="#900" stroke-width="5" transform="rotate(135,8261.0,453.0)" width="32" x="8245.0" y="429.0" /><rect fill="#900" height="48" stroke="#900" stroke-width="5" transform="rotate(0,8389.0,389.0)" width="32" x="8373.0" y="365.0" /><rect fill="#900" height="48" stroke="#900" stroke-width="5" transform="rotate(180,8261.0,389.0)" width="32" x="8245.0" y="365.0" /><rect fill="#900" height="48" stroke="#900" stroke-width="5" transform="rotate(225,8261.0,325.0)" width="32" x="8245.0" y="301.0" /><rect fill="#900" height="48" stroke="#900" stroke-width="5" transform="rotate(270,8325.0,325.0)" width="32" x="8309.0" y="301.0" /><rect fill="#900" height="48" stroke="#900" stroke-width="5" transform="rotate(315,8389.0,325.0)" width="32" x="8373.0" y="301.0" /><circle cx="8005.0" cy="2053.0" fill="#009" r="16" stroke="#009" stroke-width="5" /><circle cx="9157.0" cy="1093.0" fill="#009" r="16" stroke="#009" stroke-width="5" /><circle cx="9157.0" cy="1029.0" fill="#009" r="16" stroke="#009" stroke-width="5" /><circle cx="9157.0" cy="965.0" fill="#009" r="16" stroke="#009" stroke-width="5" /><circle cx="9157.0" cy="901.0" fill="#009" r="16" stroke="#009" stroke-width="5" /><circle cx="9157.0" cy="837.0" fill="#009" r="16" stroke="#009" stroke-width="5" /><circle cx="8005.0" cy="69.0" fill="#009" r="16" stroke="#009" stroke-width="5" /><circle cx="8133.0" cy="69.0" fill="#009" r="16" stroke="#009" stroke-width="5" /><circle cx="8261.0" cy="69.0" fill="#009" r="16" stroke="#009" stroke-width="5" /><circle cx="8389.0" cy="69.0" fill="#009" r="16" stroke="#009" stroke-width="5" /><circle cx="8517.0" cy="69.0" fill="#009" r="16" stroke="#009" stroke-width="5" /><circle cx="8005.0" cy="2181.0" fill="#009" r="16" stroke="#009" stroke-width="5" /><circle cx="8005.0" cy="2373.0" fill="#900" r="16" stroke="#900" stroke-width="5" /><circle cx="8005.0" cy="2501.0" fill="#090" r="16" stroke="#090" stroke-width="5" /><circle cx="8005.0" cy="2565.0" fill="#090" r="16" stroke="#090" stroke-width="5" /><circle cx="8005.0" cy="2629.0" fill="#090" r="16" stroke="#090" stroke-width="5" /><circle cx="8005.0" cy="2693.0" fill="#090" r="16" stroke="#090" stroke-width="5" /><circle cx="8005.0" cy="2757.0" fill="#090" r="16" stroke="#090" stroke-width="5" /><circle cx="8005.0" cy="6085.0" fill="#009" r="16" stroke="#009" stroke-width="5" /><circle cx="8005.0" cy="6021.0" fill="#009" r="16" stroke="#009" stroke-width="5" /><circle cx="8005.0" cy="5957.0" fill="#009" r="16" stroke="#009" stroke-width="5" /><circle cx="8005.0" cy="5893.0" fill="#009" r="16" stroke="#009" stroke-width="5" /><circle cx="8005.0" cy="5829.0" fill="#009" r="16" stroke="#009" stroke-width="5" /><circle cx="8005.0" cy="5765.0" fill="#009" r="16" stroke="#009" stroke-width="5" /><circle cx="8005.0" cy="5701.0" fill="#009" r="16" stroke="#009" stroke-width="5" /><circle cx="8005.0" cy="5637.0" fill="#009" r="16" stroke="#009" stroke-width="5" /><circle cx="8005.0" cy="5573.0" fill="#009" r="16" stroke="#009" stroke-width="5" /><circle cx="8005.0" cy="5509.0" fill="#009" r="16" stroke="#009" stroke-width="5" /><circle cx="8005.0" cy="5445.0" fill="#009" r="16" stroke="#009" stroke-width="5" /><circle cx="8005.0" cy="5381.0" fill="#009" r="16" stroke="#009" stroke-width="5" /><circle cx="8005.0" cy="5317.0" fill="#009" r="16" stroke="#009" stroke-width="5" /><circle cx="8005.0" cy="5253.0" fill="#009" r="16" stroke="#009" stroke-width="5" /><circle cx="8005.0" cy="5189.0" fill="#009" r="16" stroke="#009" stroke-width="5" /><circle cx="8005.0" cy="5125.0" fill="#009" r="16" stroke="#009" stroke-width="5" /><circle cx="8005.0" cy="5061.0" fill="#009" r="16" stroke="#009" stroke-width="5" /><circle cx="8005.0" cy="4997.0" fill="#009" r="16" stroke="#009" stroke-width="5" /><circle cx="8005.0" cy="4933.0" fill="#009" r="16" stroke="#009" stroke-width="5" /><circle cx="8005.0" cy="4869.0" fill="#009" r="16" stroke="#009" stroke-width="5" /><circle cx="8005.0" cy="4805.0" fill="#009" r="16" stroke="#009" stroke-width="5" /><circle cx="8005.0" cy="4741.0" fill="#009" r="16" stroke="#009" stroke-width="5" /><circle cx="8005.0" cy="4677.0" fill="#009" r="16" stroke="#009" stroke-width="5" /><circle cx="8005.0" cy="4613.0" fill="#009" r="16" stroke="#009" stroke-width="5" /><circle cx="8005.0" cy="4549.0" fill="#009" r="16" stroke="#009" stroke-width="5" /><circle cx="8005.0" cy="4485.0" fill="#009" r="16" stroke="#009" stroke-width="5" /><circle cx="8005.0" cy="4421.0" fill="#009" r="16" stroke="#009" stroke-width="5" /><rect fill="#900" height="48" stroke="#900" stroke-width="5" transform="rotate(180,12357.0,6405.0)" width="32" x="12341.0" y="6381.0" /><rect fill="#900" height="48" stroke="#900" stroke-width="5" transform="rotate(180,11973.0,6405.0)" width="32" x="11957.0" y="6381.0" /><rect fill="#900" height="48" stroke="#900" stroke-width="5" transform="rotate(180,12229.0,6405.0)" width="32" x="12213.0" y="6381.0" /><rect fill="#900" height="48" stroke="#900" stroke-width="5" transform="rotate(180,12165.0,6405.0)" width="32" x="12149.0" y="6381.0" /><rect fill="#900" height="48" stroke="#900" stroke-width="5" transform="rotate(180,12101.0,6405.0)" width="32" x="12085.0" y="6381.0" /><rect fill="#900" height="48" stroke="#900" stroke-width="5" transform="rotate(180,12037.0,6405.0)" width="32" x="12021.0" y="6381.0" /><rect fill="#900" height="48" stroke="#900" stroke-width="5" transform="rotate(180,11909.0,6405.0)" width="32" x="11893.0" y="6381.0" /><rect fill="#900" height="48" stroke="#900" stroke-width="5" transform="rotate(180,11845.0,6405.0)" width="32" x="11829.0" y="6381.0" /><rect fill="#900" height="48" stroke="#900" stroke-width="5" transform="rotate(180,11781.0,6405.0)" width="32" x="11765.0" y="6381.0" /><rect fill="#900" height="48" stroke="#900" stroke-width="5" transform="rotate(180,11717.0,6405.0)" width="32" x="11701.0" y="6381.0" /><rect fill="#900" height="48" stroke="#900" stroke-width="5" transform="rotate(180,11653.0,6405.0)" width="32" x="11637.0" y="6381.0" /><circle cx="8261.0" cy="6533.0" fill="#009" r="16" stroke="#009" stroke-width="5" /><circle cx="8325.0" cy="6533.0" fill="#009" r="16" stroke="#009" stroke-width="5" /><circle cx="8389.0" cy="6533.0" fill="#009" r="16" stroke="#009" stroke-width="5" /><circle cx="8453.0" cy="6533.0" fill="#009" r="16" stroke="#009" stroke-width="5" /><circle cx="8261.0" cy="6469.0" fill="#009" r="16" stroke="#009" stroke-width="5" /><circle cx="8325.0" cy="6469.0" fill="#009" r="16" stroke="#009" stroke-width="5" /><circle cx="8389.0" cy="6469.0" fill="#009" r="16" stroke="#009" stroke-width="5" /><circle cx="8453.0" cy="6469.0" fill="#009" r="16" stroke="#009" stroke-width="5" /><circle cx="8261.0" cy="6341.0" fill="#900" r="16" stroke="#900" stroke-width="5" /><circle cx="8325.0" cy="6341.0" fill="#090" r="16" stroke="#090" stroke-width="5" /><circle cx="8261.0" cy="6277.0" fill="#090" r="16" stroke="#090" stroke-width="5" /><circle cx="8325.0" cy="6277.0" fill="#090" r="16" stroke="#090" stroke-width="5" /><circle cx="8389.0" cy="6277.0" fill="#090" r="16" stroke="#090" stroke-width="5" /><circle cx="8389.0" cy="6341.0" fill="#090" r="16" stroke="#090" stroke-width="5" /><circle cx="8453.0" cy="6341.0" fill="#090" r="16" stroke="#090" stroke-width="5" /><circle cx="8453.0" cy="6277.0" fill="#090" r="16" stroke="#090" stroke-width="5" /><circle cx="69.0" cy="6341.0" fill="#900" r="16" stroke="#900" stroke-width="5" /><circle cx="133.0" cy="6341.0" fill="#900" r="16" stroke="#900" stroke-width="5" /><circle cx="197.0" cy="6341.0" fill="#900" r="16" stroke="#900" stroke-width="5" /><circle cx="261.0" cy="6341.0" fill="#900" r="16" stroke="#900" stroke-width="5" /><circle cx="325.0" cy="6341.0" fill="#900" r="16" stroke="#900" stroke-width="5" /><circle cx="389.0" cy="6341.0" fill="#900" r="16" stroke="#900" stroke-width="5" /><circle cx="453.0" cy="6341.0" fill="#900" r="16" stroke="#900" stroke-width="5" /><rect fill="#090" height="24" stroke="#090" stroke-width="5" transform="rotate(180,1669.0,6341.0)" width="24" x="1657.0" y="6329.0" /><circle cx="581.0" cy="6341.0" fill="#090" r="16" stroke="#090" stroke-width="5" /><circle cx="517.0" cy="6341.0" fill="#090" r="16" stroke="#090" stroke-width="5" /><circle cx="645.0" cy="6341.0" fill="#090" r="16" stroke="#090" stroke-width="5" /><circle cx="709.0" cy="6341.0" fill="#090" r="16" stroke="#090" stroke-width="5" /><circle cx="773.0" cy="6341.0" fill="#090" r="16" stroke="#090" stroke-width="5" /><circle cx="837.0" cy="6341.0" fill="#090" r="16" stroke="#090" stroke-width="5" /><circle cx="901.0" cy="6341.0" fill="#090" r="16" stroke="#090" stroke-width="5" /><circle cx="965.0" cy="6341.0" fill="#090" r="16" stroke="#090" stroke-width="5" /><circle cx="1029.0" cy="6341.0" fill="#090" r="16" stroke="#090" stroke-width="5" /><circle cx="1093.0" cy="6341.0" fill="#090" r="16" stroke="#090" stroke-width="5" /><circle cx="1157.0" cy="6341.0" fill="#090" r="16" stroke="#090" stroke-width="5" /><circle cx="1221.0" cy="6341.0" fill="#009" r="16" stroke="#009" stroke-width="5" /><circle cx="1285.0" cy="6341.0" fill="#009" r="16" stroke="#009" stroke-width="5" /><circle cx="1349.0" cy="6341.0" fill="#009" r="16" stroke="#009" stroke-width="5" /><circle cx="1413.0" cy="6341.0" fill="#009" r="16" stroke="#009" stroke-width="5" /><circle cx="1477.0" cy="6341.0" fill="#009" r="16" stroke="#009" stroke-width="5" /><circle cx="1541.0" cy="6341.0" fill="#009" r="16" stroke="#009" stroke-width="5" /><circle cx="1605.0" cy="6341.0" fill="#009" r="16" stroke="#009" stroke-width="5" /><circle cx="1733.0" cy="6341.0" fill="#009" r="16" stroke="#009" stroke-width="5" /><circle cx="1797.0" cy="6341.0" fill="#009" r="16" stroke="#009" stroke-width="5" /><circle cx="1861.0" cy="6341.0" fill="#009" r="16" stroke="#009" stroke-width="5" /><rect fill="#900" height="48" stroke="#900" stroke-width="5" transform="rotate(90,7813.0,901.0)" width="32" x="7797.0" y="877.0" /><rect fill="#900" height="48" stroke="#900" stroke-width="5" transform="rotate(90,8581.0,965.0)" width="32" x="8565.0" y="941.0" /><rect fill="#900" height="48" stroke="#900" stroke-width="5" transform="rotate(90,7493.0,1413.0)" width="32" x="7477.0" y="1389.0" /><rect fill="#900" height="48" stroke="#900" stroke-width="5" transform="rotate(90,8517.0,1477.0)" width="32" x="8501.0" y="1453.0" /><rect fill="#900" height="48" stroke="#900" stroke-width="5" transform="rotate(90,7941.0,1349.0)" width="32" x="7925.0" y="1325.0" /><rect fill="#900" height="48" stroke="#900" stroke-width="5" transform="rotate(90,8389.0,1349.0)" width="32" x="8373.0" y="1325.0" /><rect fill="#900" height="48" stroke="#900" stroke-width="5" transform="rotate(90,8325.0,1157.0)" width="32" x="8309.0" y="1133.0" /><rect fill="#900" height="48" stroke="#900" stroke-width="5" transform="rotate(90,7557.0,709.0)" width="32" x="7541.0" y="685.0" /><rect fill="#900" height="48" stroke="#900" stroke-width="5" transform="rotate(90,8069.0,709.0)" width="32" x="8053.0" y="685.0" /><rect fill="#900" height="48" stroke="#900" stroke-width="5" transform="rotate(90,8517.0,709.0)" width="32" x="8501.0" y="685.0" /><rect fill="#900" height="48" stroke="#900" stroke-width="5" transform="rotate(90,8069.0,965.0)" width="32" x="8053.0" y="941.0" /><rect fill="#900" height="48" stroke="#900" stroke-width="5" transform="rotate(90,7493.0,1221.0)" width="32" x="7477.0" y="1197.0" /><rect fill="#900" height="48" stroke="#900" stroke-width="5" transform="rotate(90,7685.0,1093.0)" width="32" x="7669.0" y="1069.0" /><rect fill="#900" height="48" stroke="#900" stroke-width="5" transform="rotate(90,8069.0,1157.0)" width="32" x="8053.0" y="1133.0" /><rect fill="#900" height="48" stroke="#900" stroke-width="5" transform="rotate(90,8453.0,1093.0)" width="32" x="8437.0" y="1069.0" /><rect fill="#900" height="48" stroke="#900" stroke-width="5" transform="rotate(90,8453.0,837.0)" width="32" x="8437.0" y="813.0" /><rect fill="#900" height="48" stroke="#900" stroke-width="5" transform="rotate(90,7813.0,581.0)" width="32" x="7797.0" y="557.0" /><rect fill="#900" height="48" stroke="#900" stroke-width="5" transform="rotate(90,8837.0,133.0)" width="32" x="8821.0" y="109.0" /><rect fill="#900" height="48" stroke="#900" stroke-width="5" transform="rotate(90,8709.0,133.0)" width="32" x="8693.0" y="109.0" /><rect fill="#900" height="48" stroke="#900" stroke-width="5" transform="rotate(90,7877.0,197.0)" width="32" x="7861.0" y="173.0" /><rect fill="#900" height="48" stroke="#900" stroke-width="5" transform="rotate(90,7749.0,197.0)" width="32" x="7733.0" y="173.0" /><rect fill="#900" height="48" stroke="#900" stroke-width="5" transform="rotate(90,8005.0,1797.0)" width="32" x="7989.0" y="1773.0" /><rect fill="#090" height="24" stroke="#090" stroke-width="5" transform="rotate(180,9157.0,6533.0)" width="24" x="9145.0" y="6521.0" /><rect fill="#090" height="24" stroke="#090" stroke-width="5" transform="rotate(180,9157.0,6469.0)" width="24" x="9145.0" y="6457.0" /><rect fill="#090" height="24" stroke="#090" stroke-width="5" transform="rotate(180,9157.0,6405.0)" width="24" x="9145.0" y="6393.0" /><rect fill="#090" height="24" stroke="#090" stroke-width="5" transform="rotate(180,9157.0,6341.0)" width="24" x="9145.0" y="6329.0" /><rect fill="#090" height="24" stroke="#090" stroke-width="5" transform="rotate(180,9157.0,6277.0)" width="24" x="9145.0" y="6265.0" /><rect fill="#090" height="24" stroke="#090" stroke-width="5" transform="rotate(180,9221.0,6533.0)" width="24" x="9209.0" y="6521.0" /><rect fill="#090" height="24" stroke="#090" stroke-width="5" transform="rotate(180,9221.0,6469.0)" width="24" x="9209.0" y="6457.0" /><rect fill="#090" height="24" stroke="#090" stroke-width="5" transform="rotate(180,9221.0,6405.0)" width="24" x="9209.0" y="6393.0" /><rect fill="#090" height="24" stroke="#090" stroke-width="5" transform="rotate(180,9221.0,6341.0)" width="24" x="9209.0" y="6329.0" /><rect fill="#090" height="24" stroke="#090" stroke-width="5" transform="rotate(180,9221.0,6277.0)" width="24" x="9209.0" y="6265.0" /><rect fill="#090" height="24" stroke="#090" stroke-width="5" transform="rotate(180,9285.0,6533.0)" width="24" x="9273.0" y="6521.0" /><rect fill="#090" height="24" stroke="#090" stroke-width="5" transform="rotate(180,9285.0,6469.0)" width="24" x="9273.0" y="6457.0" /><rect fill="#090" height="24" stroke="#090" stroke-width="5" transform="rotate(180,9285.0,6405.0)" width="24" x="9273.0" y="6393.0" /><rect fill="#090" height="24" stroke="#090" stroke-width="5" transform="rotate(180,9285.0,6341.0)" width="24" x="9273.0" y="6329.0" /><rect fill="#090" height="24" stroke="#090" stroke-width="5" transform="rotate(180,9285.0,6277.0)" width="24" x="9273.0" y="6265.0" /><rect fill="#900" height="48" stroke="#900" stroke-width="5" transform="rotate(180,9349.0,6533.0)" width="32" x="9333.0" y="6509.0" /><rect fill="#900" height="48" stroke="#900" stroke-width="5" transform="rotate(180,9349.0,6469.0)" width="32" x="9333.0" y="6445.0" /><rect fill="#900" height="48" stroke="#900" stroke-width="5" transform="rotate(180,9349.0,6405.0)" width="32" x="9333.0" y="6381.0" /><rect fill="#900" height="48" stroke="#900" stroke-width="5" transform="rotate(180,9349.0,6341.0)" width="32" x="9333.0" y="6317.0" /><rect fill="#900" height="48" stroke="#900" stroke-width="5" transform="rotate(180,9349.0,6277.0)" width="32" x="9333.0" y="6253.0" /><rect fill="#900" height="48" stroke="#900" stroke-width="5" transform="rotate(180,9413.0,6533.0)" width="32" x="9397.0" y="6509.0" /><rect fill="#900" height="48" stroke="#900" stroke-width="5" transform="rotate(180,9413.0,6469.0)" width="32" x="9397.0" y="6445.0" /><rect fill="#900" height="48" stroke="#900" stroke-width="5" transform="rotate(180,9413.0,6405.0)" width="32" x="9397.0" y="6381.0" /><rect fill="#900" height="48" stroke="#900" stroke-width="5" transform="rotate(180,9413.0,6341.0)" width="32" x="9397.0" y="6317.0" /><rect fill="#900" height="48" stroke="#900" stroke-width="5" transform="rotate(180,9413.0,6277.0)" width="32" x="9397.0" y="6253.0" /><rect fill="#900" height="48" stroke="#900" stroke-width="5" transform="rotate(180,9093.0,6533.0)" width="32" x="9077.0" y="6509.0" /><rect fill="#900" height="48" stroke="#900" stroke-width="5" transform="rotate(180,9093.0,6469.0)" width="32" x="9077.0" y="6445.0" /><rect fill="#900" height="48" stroke="#900" stroke-width="5" transform="rotate(180,9093.0,6405.0)" width="32" x="9077.0" y="6381.0" /><rect fill="#900" height="48" stroke="#900" stroke-width="5" transform="rotate(180,9093.0,6341.0)" width="32" x="9077.0" y="6317.0" /><rect fill="#900" height="48" stroke="#900" stroke-width="5" transform="rotate(180,9093.0,6277.0)" width="32" x="9077.0" y="6253.0" /><rect fill="#900" height="48" stroke="#900" stroke-width="5" transform="rotate(180,9029.0,6533.0)" width="32" x="9013.0" y="6509.0" /><rect fill="#900" height="48" stroke="#900" stroke-width="5" transform="rotate(180,9029.0,6469.0)" width="32" x="9013.0" y="6445.0" /><rect fill="#900" height="48" stroke="#900" stroke-width="5" transform="rotate(180,9029.0,6405.0)" width="32" x="9013.0" y="6381.0" /><rect fill="#900" height="48" stroke="#900" stroke-width="5" transform="rotate(180,9029.0,6341.0)" width="32" x="9013.0" y="6317.0" /><rect fill="#900" height="48" stroke="#900" stroke-width="5" transform="rotate(180,9029.0,6277.0)" width="32" x="9013.0" y="6253.0" /><rect fill="#900" height="48" stroke="#900" stroke-width="5" transform="rotate(180,8965.0,6533.0)" width="32" x="8949.0" y="6509.0" /><rect fill="#900" height="48" stroke="#900" stroke-width="5" transform="rotate(180,8965.0,6469.0)" width="32" x="8949.0" y="6445.0" /><rect fill="#900" height="48" stroke="#900" stroke-width="5" transform="rotate(180,8965.0,6405.0)" width="32" x="8949.0" y="6381.0" /><rect fill="#900" height="48" stroke="#900" stroke-width="5" transform="rotate(180,8965.0,6341.0)" width="32" x="8949.0" y="6317.0" /><rect fill="#900" height="48" stroke="#900" stroke-width="5" transform="rotate(180,8965.0,6277.0)" width="32" x="8949.0" y="6253.0" /><rect fill="#900" height="48" stroke="#900" stroke-width="5" transform="rotate(180,8901.0,6533.0)" width="32" x="8885.0" y="6509.0" /><rect fill="#900" height="48" stroke="#900" stroke-width="5" transform="rotate(180,8901.0,6469.0)" width="32" x="8885.0" y="6445.0" /><rect fill="#900" height="48" stroke="#900" stroke-width="5" transform="rotate(180,8901.0,6405.0)" width="32" x="8885.0" y="6381.0" /><rect fill="#900" height="48" stroke="#900" stroke-width="5" transform="rotate(180,8901.0,6341.0)" width="32" x="8885.0" y="6317.0" /><rect fill="#900" height="48" stroke="#900" stroke-width="5" transform="rotate(180,8901.0,6277.0)" width="32" x="8885.0" y="6253.0" /><rect fill="#900" height="48" stroke="#900" stroke-width="5" transform="rotate(180,8837.0,6533.0)" width="32" x="8821.0" y="6509.0" /><rect fill="#900" height="48" stroke="#900" stroke-width="5" transform="rotate(180,8837.0,6469.0)" width="32" x="8821.0" y="6445.0" /><rect fill="#900" height="48" stroke="#900" stroke-width="5" transform="rotate(180,8837.0,6405.0)" width="32" x="8821.0" y="6381.0" /><rect fill="#900" height="48" stroke="#900" stroke-width="5" transform="rotate(180,8837.0,6341.0)" width="32" x="8821.0" y="6317.0" /><rect fill="#900" height="48" stroke="#900" stroke-width="5" transform="rotate(180,8837.0,6277.0)" width="32" x="8821.0" y="6253.0" /><rect fill="#900" height="48" stroke="#900" stroke-width="5" transform="rotate(180,8709.0,6533.0)" width="32" x="8693.0" y="6509.0" /><rect fill="#900" height="48" stroke="#900" stroke-width="5" transform="rotate(180,8709.0,6341.0)" width="32" x="8693.0" y="6317.0" /><rect fill="#900" height="48" stroke="#900" stroke-width="5" transform="rotate(180,9733.0,6469.0)" width="32" x="9717.0" y="6445.0" /><rect fill="#900" height="48" stroke="#900" stroke-width="5" transform="rotate(180,9733.0,6405.0)" width="32" x="9717.0" y="6381.0" /><rect fill="#900" height="48" stroke="#900" stroke-width="5" transform="rotate(180,9733.0,6341.0)" width="32" x="9717.0" y="6317.0" /><rect fill="#900" height="48" stroke="#900" stroke-width="5" transform="rotate(180,9797.0,6469.0)" width="32" x="9781.0" y="6445.0" /><rect fill="#900" height="48" stroke="#900" stroke-width="5" transform="rotate(180,9797.0,6405.0)" width="32" x="9781.0" y="6381.0" /><rect fill="#900" height="48" stroke="#900" stroke-width="5" transform="rotate(180,9797.0,6341.0)" width="32" x="9781.0" y="6317.0" /><rect fill="#900" height="48" stroke="#900" stroke-width="5" transform="rotate(180,9861.0,6469.0)" width="32" x="9845.0" y="6445.0" /><rect fill="#900" height="48" stroke="#900" stroke-width="5" transform="rotate(180,9861.0,6405.0)" width="32" x="9845.0" y="6381.0" /><rect fill="#900" height="48" stroke="#900" stroke-width="5" transform="rotate(180,9861.0,6341.0)" width="32" x="9845.0" y="6317.0" /><rect fill="#900" height="48" stroke="#900" stroke-width="5" transform="rotate(180,9925.0,6469.0)" width="32" x="9909.0" y="6445.0" /><rect fill="#900" height="48" stroke="#900" stroke-width="5" transform="rotate(180,9925.0,6405.0)" width="32" x="9909.0" y="6381.0" /><rect fill="#900" height="48" stroke="#900" stroke-width="5" transform="rotate(180,9925.0,6341.0)" width="32" x="9909.0" y="6317.0" /><rect fill="#900" height="48" stroke="#900" stroke-width="5" transform="rotate(180,9989.0,6341.0)" width="32" x="9973.0" y="6317.0" /><rect fill="#900" height="48" stroke="#900" stroke-width="5" transform="rotate(180,9989.0,6405.0)" width="32" x="9973.0" y="6381.0" /><rect fill="#900" height="48" stroke="#900" stroke-width="5" transform="rotate(180,9989.0,6469.0)" width="32" x="9973.0" y="6445.0" /><rect fill="#900" height="48" stroke="#900" stroke-width="5" transform="rotate(180,10053.0,6469.0)" width="32" x="10037.0" y="6445.0" /><rect fill="#900" height="48" stroke="#900" stroke-width="5" transform="rotate(180,10053.0,6405.0)" width="32" x="10037.0" y="6381.0" /><rect fill="#900" height="48" stroke="#900" stroke-width="5" transform="rotate(180,10053.0,6341.0)" width="32" x="10037.0" y="6317.0" /><rect fill="#900" height="48" stroke="#900" stroke-width="5" transform="rotate(180,10117.0,6469.0)" width="32" x="10101.0" y="6445.0" /><rect fill="#900" height="48" stroke="#900" stroke-width="5" transform="rotate(180,10117.0,6405.0)" width="32" x="10101.0" y="6381.0" /><rect fill="#900" height="48" stroke="#900" stroke-width="5" transform="rotate(180,10117.0,6341.0)" width="32" x="10101.0" y="6317.0" /><rect fill="#900" height="48" stroke="#900" stroke-width="5" transform="rotate(180,10373.0,6469.0)" width="32" x="10357.0" y="6445.0" /><rect fill="#900" height="48" stroke="#900" stroke-width="5" transform="rotate(180,10373.0,6341.0)" width="32" x="10357.0" y="6317.0" /><rect fill="#900" height="48" stroke="#900" stroke-width="5" transform="rotate(180,10373.0,6405.0)" width="32" x="10357.0" y="6381.0" /><rect fill="#900" height="48" stroke="#900" stroke-width="5" transform="rotate(180,10309.0,6405.0)" width="32" x="10293.0" y="6381.0" /><rect fill="#900" height="48" stroke="#900" stroke-width="5" transform="rotate(180,10245.0,6405.0)" width="32" x="10229.0" y="6381.0" /><rect fill="#900" height="48" stroke="#900" stroke-width="5" transform="rotate(180,10181.0,6405.0)" width="32" x="10165.0" y="6381.0" /><rect fill="#900" height="48" stroke="#900" stroke-width="5" transform="rotate(180,10181.0,6469.0)" width="32" x="10165.0" y="6445.0" /><rect fill="#900" height="48" stroke="#900" stroke-width="5" transform="rotate(180,10245.0,6469.0)" width="32" x="10229.0" y="6445.0" /><rect fill="#900" height="48" stroke="#900" stroke-width="5" transform="rotate(180,10309.0,6469.0)" width="32" x="10293.0" y="6445.0" /><rect fill="#900" height="48" stroke="#900" stroke-width="5" transform="rotate(180,10181.0,6341.0)" width="32" x="10165.0" y="6317.0" /><rect fill="#900" height="48" stroke="#900" stroke-width="5" transform="rotate(180,10245.0,6341.0)" width="32" x="10229.0" y="6317.0" /><rect fill="#900" height="48" stroke="#900" stroke-width="5" transform="rotate(180,10309.0,6341.0)" width="32" x="10293.0" y="6317.0" /></svg>