<?xml version="1.0" encoding="utf-8" ?>
<svg baseProfile="tiny" height="1024" version="1.2" viewBox="0 0 874 890" width="1005" xmlns="http://www.w3.org/2000/svg" xmlns:ev="http://www.w3.org/2001/xml-events" xmlns:xlink="http://www.w3.org/1999/xlink"><defs /><line stroke="#333" stroke-width="10" x1="149.0" x2="213.0" y1="725.0" y2="725.0" /><line stroke="#333" stroke-width="10" x1="405.0" x2="405.0" y1="725.0" y2="853.0" /><line stroke="#333" stroke-width="10" x1="405.0" x2="469.0" y1="853.0" y2="853.0" /><line stroke="#333" stroke-width="10" x1="469.0" x2="469.0" y1="853.0" y2="725.0" /><line stroke="#333" stroke-width="10" x1="469.0" x2="501.0" y1="725.0" y2="725.0" /><line stroke="#333" stroke-width="10" x1="725.0" x2="725.0" y1="725.0" y2="661.0" /><line stroke="#333" stroke-width="10" x1="725.0" x2="853.0" y1="469.0" y2="469.0" /><line stroke="#333" stroke-width="10" x1="853.0" x2="853.0" y1="469.0" y2="405.0" /><line stroke="#333" stroke-width="10" x1="853.0" x2="725.0" y1="405.0" y2="405.0" /><line stroke="#333" stroke-width="10" x1="725.0" x2="725.0" y1="405.0" y2="149.0" /><line stroke="#333" stroke-width="10" x1="725.0" x2="661.0" y1="149.0" y2="149.0" /><line stroke="#333" stroke-width="10" x1="469.0" x2="469.0" y1="149.0" y2="21.0" /><line stroke="#333" stroke-width="10" x1="469.0" x2="405.0" y1="21.0" y2="21.0" /><line stroke="#333" stroke-width="10" x1="405.0" x2="405.0" y1="21.0" y2="149.0" /><line stroke="#333" stroke-width="10" x1="405.0" x2="149.0" y1="149.0" y2="149.0" /><line stroke="#333" stroke-width="10" x1="149.0" x2="21.0" y1="405.0" y2="405.0" /><line stroke="#333" stroke-width="10" x1="21.0" x2="21.0" y1="405.0" y2="469.0" /><line stroke="#333" stroke-width="10" x1="21.0" x2="149.0" y1="469.0" y2="469.0" /><line stroke="#333" stroke-width="10" x1="149.0" x2="149.0" y1="469.0" y2="725.0" /><line stroke="#999" stroke-width="3" x1="421.0" x2="421.0" y1="837.0" y2="453.0" /><line stroke="#999" stroke-width="3" x1="421.0" x2="37.0" y1="453.0" y2="453.0" /><line stroke="#999" stroke-width="3" x1="37.0" x2="37.0" y1="453.0" y2="421.0" /><line stroke="#999" stroke-width="3" x1="37.0" x2="421.0" y1="421.0" y2="421.0" /><line stroke="#999" stroke-width="3" x1="421.0" x2="421.0" y1="421.0" y2="37.0" /><line stroke="#999" stroke-width="3" x1="421.0" x2="453.0" y1="37.0" y2="37.0" /><line stroke="#999" stroke-width="3" x1="453.0" x2="453.0" y1="37.0" y2="421.0" /><line stroke="#999" stroke-width="3" x1="453.0" x2="837.0" y1="421.0" y2="421.0" /><line stroke="#999" stroke-width="3" x1="837.0" x2="837.0" y1="421.0" y2="453.0" /><line stroke="#999" stroke-width="3" x1="837.0" x2="453.0" y1="453.0" y2="453.0" /><line stroke="#999" stroke-width="3" x1="453.0" x2="453.0" y1="453.0" y2="837.0" /><line stroke="#999" stroke-width="3" x1="453.0" x2="421.0" y1="837.0" y2="837.0" /><line stroke="#333" stroke-width="10" x1="149.0" x2="149.0" y1="149.0" y2="213.0" /><line stroke="#333" stroke-width="10" x1="149.0" x2="21.0" y1="213.0" y2="213.0" /><line stroke="#333" stroke-width="10" x1="21.0" x2="21.0" y1="213.0" y2="245.0" /><line stroke="#333" stroke-width="10" x1="21.0" x2="149.0" y1="341.0" y2="341.0" /><line stroke="#333" stroke-width="10" x1="149.0" x2="149.0" y1="341.0" y2="405.0" /><line stroke="#333" stroke-width="10" x1="661.0" x2="661.0" y1="149.0" y2="21.0" /><line stroke="#333" stroke-width="10" x1="661.0" x2="629.0" y1="21.0" y2="21.0" /><line stroke="#333" stroke-width="10" x1="533.0" x2="533.0" y1="21.0" y2="149.0" /><line stroke="#333" stroke-width="10" x1="533.0" x2="469.0" y1="149.0" y2="149.0" /><line stroke="#333" stroke-width="10" x1="725.0" x2="853.0" y1="661.0" y2="661.0" /><line stroke="#333" stroke-width="10" x1="853.0" x2="853.0" y1="661.0" y2="629.0" /><line stroke="#333" stroke-width="10" x1="853.0" x2="725.0" y1="533.0" y2="533.0" /><line stroke="#333" stroke-width="10" x1="725.0" x2="725.0" y1="533.0" y2="469.0" /><line stroke="#333" stroke-width="10" x1="213.0" x2="213.0" y1="725.0" y2="853.0" /><line stroke="#333" stroke-width="10" x1="213.0" x2="245.0" y1="853.0" y2="853.0" /><line stroke="#333" stroke-width="10" x1="341.0" x2="341.0" y1="853.0" y2="725.0" /><line stroke="#333" stroke-width="10" x1="341.0" x2="405.0" y1="725.0" y2="725.0" /><line stroke="#999" stroke-width="3" x1="21.0" x2="21.0" y1="245.0" y2="309.0" /><line stroke="#333" stroke-width="10" x1="21.0" x2="5.0" y1="245.0" y2="245.0" /><line stroke="#0d0" stroke-width="20" x1="5.0" x2="5.0" y1="245.0" y2="309.0" /><line stroke="#333" stroke-width="10" x1="5.0" x2="21.0" y1="309.0" y2="309.0" /><line stroke="#333" stroke-width="10" x1="21.0" x2="21.0" y1="309.0" y2="341.0" /><line stroke="#999" stroke-width="3" x1="629.0" x2="565.0" y1="21.0" y2="21.0" /><line stroke="#333" stroke-width="10" x1="629.0" x2="629.0" y1="21.0" y2="5.0" /><line stroke="#0d0" stroke-width="20" x1="629.0" x2="565.0" y1="5.0" y2="5.0" /><line stroke="#333" stroke-width="10" x1="565.0" x2="565.0" y1="5.0" y2="21.0" /><line stroke="#333" stroke-width="10" x1="565.0" x2="533.0" y1="21.0" y2="21.0" /><line stroke="#999" stroke-width="3" x1="853.0" x2="853.0" y1="629.0" y2="565.0" /><line stroke="#333" stroke-width="10" x1="853.0" x2="869.0" y1="629.0" y2="629.0" /><line stroke="#0d0" stroke-width="20" x1="869.0" x2="869.0" y1="629.0" y2="565.0" /><line stroke="#333" stroke-width="10" x1="869.0" x2="853.0" y1="565.0" y2="565.0" /><line stroke="#333" stroke-width="10" x1="853.0" x2="853.0" y1="565.0" y2="533.0" /><line stroke="#999" stroke-width="3" x1="245.0" x2="309.0" y1="853.0" y2="853.0" /><line stroke="#333" stroke-width="10" x1="245.0" x2="245.0" y1="853.0" y2="869.0" /><line stroke="#0d0" stroke-width="20" x1="245.0" x2="309.0" y1="869.0" y2="869.0" /><line stroke="#333" stroke-width="10" x1="309.0" x2="309.0" y1="869.0" y2="853.0" /><line stroke="#333" stroke-width="10" x1="309.0" x2="341.0" y1="853.0" y2="853.0" /><line stroke="#999" stroke-width="3" x1="141.0" x2="141.0" y1="285.0" y2="269.0" /><line stroke="#999" stroke-width="3" x1="141.0" x2="149.0" y1="269.0" y2="269.0" /><line stroke="#999" stroke-width="3" x1="149.0" x2="149.0" y1="269.0" y2="285.0" /><line stroke="#999" stroke-width="3" x1="149.0" x2="141.0" y1="285.0" y2="285.0" /><line stroke="#999" stroke-width="3" x1="149.0" x2="141.0" y1="325.0" y2="325.0" /><line stroke="#999" stroke-width="3" x1="141.0" x2="141.0" y1="325.0" y2="309.0" /><line stroke="#999" stroke-width="3" x1="141.0" x2="149.0" y1="309.0" y2="309.0" /><line stroke="#999" stroke-width="3" x1="149.0" x2="149.0" y1="309.0" y2="325.0" /><line stroke="#999" stroke-width="3" x1="149.0" x2="141.0" y1="245.0" y2="245.0" /><line stroke="#999" stroke-width="3" x1="141.0" x2="141.0" y1="245.0" y2="229.0" /><line stroke="#999" stroke-width="3" x1="141.0" x2="149.0" y1="229.0" y2="229.0" /><line stroke="#999" stroke-width="3" x1="149.0" x2="149.0" y1="229.0" y2="245.0" /><line stroke="#999" stroke-width="3" x1="549.0" x2="549.0" y1="149.0" y2="141.0" /><line stroke="#999" stroke-width="3" x1="549.0" x2="565.0" y1="141.0" y2="141.0" /><line stroke="#999" stroke-width="3" x1="565.0" x2="565.0" y1="141.0" y2="149.0" /><line stroke="#999" stroke-width="3" x1="565.0" x2="549.0" y1="149.0" y2="149.0" /><line stroke="#999" stroke-width="3" x1="589.0" x2="589.0" y1="149.0" y2="141.0" /><line stroke="#999" stroke-width="3" x1="589.0" x2="605.0" y1="141.0" y2="141.0" /><line stroke="#999" stroke-width="3" x1="605.0" x2="605.0" y1="141.0" y2="149.0" /><line stroke="#999" stroke-width="3" x1="605.0" x2="589.0" y1="149.0" y2="149.0" /><line stroke="#999" stroke-width="3" x1="629.0" x2="629.0" y1="149.0" y2="141.0" /><line stroke="#999" stroke-width="3" x1="629.0" x2="645.0" y1="141.0" y2="141.0" /><line stroke="#999" stroke-width="3" x1="645.0" x2="645.0" y1="141.0" y2="149.0" /><line stroke="#999" stroke-width="3" x1="645.0" x2="629.0" y1="149.0" y2="149.0" /><line stroke="#999" stroke-width="3" x1="725.0" x2="725.0" y1="645.0" y2="629.0" /><line stroke="#999" stroke-width="3" x1="725.0" x2="733.0" y1="629.0" y2="629.0" /><line stroke="#999" stroke-width="3" x1="733.0" x2="733.0" y1="629.0" y2="645.0" /><line stroke="#999" stroke-width="3" x1="733.0" x2="725.0" y1="645.0" y2="645.0" /><line stroke="#999" stroke-width="3" x1="725.0" x2="725.0" y1="605.0" y2="589.0" /><line stroke="#999" stroke-width="3" x1="725.0" x2="733.0" y1="589.0" y2="589.0" /><line stroke="#999" stroke-width="3" x1="733.0" x2="733.0" y1="589.0" y2="605.0" /><line stroke="#999" stroke-width="3" x1="733.0" x2="725.0" y1="605.0" y2="605.0" /><line stroke="#999" stroke-width="3" x1="725.0" x2="725.0" y1="565.0" y2="549.0" /><line stroke="#999" stroke-width="3" x1="725.0" x2="733.0" y1="549.0" y2="549.0" /><line stroke="#999" stroke-width="3" x1="733.0" x2="733.0" y1="549.0" y2="565.0" /><line stroke="#999" stroke-width="3" x1="733.0" x2="725.0" y1="565.0" y2="565.0" /><line stroke="#999" stroke-width="3" x1="229.0" x2="229.0" y1="733.0" y2="725.0" /><line stroke="#999" stroke-width="3" x1="229.0" x2="245.0" y1="725.0" y2="725.0" /><line stroke="#999" stroke-width="3" x1="245.0" x2="245.0" y1="725.0" y2="733.0" /><line stroke="#999" stroke-width="3" x1="245.0" x2="229.0" y1="733.0" y2="733.0" /><line stroke="#999" stroke-width="3" x1="269.0" x2="269.0" y1="733.0" y2="725.0" /><line stroke="#999" stroke-width="3" x1="269.0" x2="285.0" y1="725.0" y2="725.0" /><line stroke="#999" stroke-width="3" x1="285.0" x2="285.0" y1="725.0" y2="733.0" /><line stroke="#999" stroke-width="3" x1="285.0" x2="269.0" y1="733.0" y2="733.0" /><line stroke="#999" stroke-width="3" x1="309.0" x2="309.0" y1="733.0" y2="725.0" /><line stroke="#999" stroke-width="3" x1="309.0" x2="325.0" y1="725.0" y2="725.0" /><line stroke="#999" stroke-width="3" x1="325.0" x2="325.0" y1="725.0" y2="733.0" /><line stroke="#999" stroke-width="3" x1="325.0" x2="309.0" y1="733.0" y2="733.0" /><line stroke="#666" stroke-width="20" x1="381.0" x2="405.0" y1="405.0" y2="381.0" /><line stroke="#999" stroke-width="3" x1="405.0" x2="405.0" y1="381.0" y2="405.0" /><line stroke="#999" stroke-width="3" x1="405.0" x2="381.0" y1="405.0" y2="405.0" /><line stroke="#666" stroke-width="20" x1="405.0" x2="381.0" y1="493.0" y2="469.0" /><line stroke="#999" stroke-width="3" x1="381.0" x2="405.0" y1="469.0" y2="469.0" /><line stroke="#999" stroke-width="3" x1="405.0" x2="405.0" y1="469.0" y2="493.0" /><line stroke="#999" stroke-width="3" x1="469.0" x2="469.0" y1="493.0" y2="469.0" /><line stroke="#999" stroke-width="3" x1="469.0" x2="493.0" y1="469.0" y2="469.0" /><line stroke="#666" stroke-width="20" x1="493.0" x2="469.0" y1="469.0" y2="493.0" /><line stroke="#999" stroke-width="3" x1="469.0" x2="469.0" y1="405.0" y2="381.0" /><line stroke="#666" stroke-width="20" x1="469.0" x2="493.0" y1="381.0" y2="405.0" /><line stroke="#999" stroke-width="3" x1="493.0" x2="469.0" y1="405.0" y2="405.0" /><line stroke="#999" stroke-width="3" x1="501.0" x2="693.0" y1="725.0" y2="725.0" /><line stroke="#333" stroke-width="10" x1="501.0" x2="501.0" y1="725.0" y2="741.0" /><line stroke="#333" stroke-width="10" x1="501.0" x2="693.0" y1="885.0" y2="885.0" /><line stroke="#333" stroke-width="10" x1="693.0" x2="693.0" y1="885.0" y2="741.0" /><line stroke="#333" stroke-width="10" x1="693.0" x2="725.0" y1="725.0" y2="725.0" /><line stroke="#333" stroke-width="10" x1="693.0" x2="693.0" y1="741.0" y2="725.0" /><line stroke="#666" stroke-width="20" x1="693.0" x2="501.0" y1="741.0" y2="741.0" /><line stroke="#333" stroke-width="10" x1="501.0" x2="501.0" y1="741.0" y2="885.0" /><ellipse cx="534.0" cy="858.0" fill="#009" rx="12" ry="24" stroke="#009" stroke-width="5" /><ellipse cx="663.0" cy="859.0" fill="#009" rx="12" ry="24" stroke="#009" stroke-width="5" /><ellipse cx="535.0" cy="789.0" fill="#009" rx="12" ry="24" stroke="#009" stroke-width="5" /><ellipse cx="663.0" cy="791.0" fill="#009" rx="12" ry="24" stroke="#009" stroke-width="5" /><rect fill="#090" height="24" stroke="#090" stroke-width="5" transform="rotate(315,187.0,687.0)" width="24" x="175.0" y="675.0" /><rect fill="#090" height="24" stroke="#090" stroke-width="5" transform="rotate(45,183.0,181.0)" width="24" x="171.0" y="169.0" /><rect fill="#090" height="24" stroke="#090" stroke-width="5" transform="rotate(135,691.0,181.0)" width="24" x="679.0" y="169.0" /><rect fill="#090" height="24" stroke="#090" stroke-width="5" transform="rotate(225,691.0,691.0)" width="24" x="679.0" y="679.0" /><circle cx="531.0" cy="341.0" fill="#009" r="16" stroke="#009" stroke-width="5" /><circle cx="341.0" cy="341.0" fill="#009" r="16" stroke="#009" stroke-width="5" /><circle cx="341.0" cy="531.0" fill="#009" r="16" stroke="#009" stroke-width="5" /><circle cx="531.0" cy="533.0" fill="#009" r="16" stroke="#009" stroke-width="5" /><circle cx="597.0" cy="341.0" fill="#900" r="16" stroke="#900" stroke-width="5" /><circle cx="341.0" cy="277.0" fill="#900" r="16" stroke="#900" stroke-width="5" /><circle cx="279.0" cy="533.0" fill="#900" r="16" stroke="#900" stroke-width="5" /><circle cx="533.0" cy="595.0" fill="#900" r="16" stroke="#900" stroke-width="5" /><circle cx="533.0" cy="275.0" fill="#900" r="16" stroke="#900" stroke-width="5" /><circle cx="341.0" cy="603.0" fill="#900" r="16" stroke="#900" stroke-width="5" /><circle cx="599.0" cy="533.0" fill="#900" r="16" stroke="#900" stroke-width="5" /><circle cx="277.0" cy="343.0" fill="#900" r="16" stroke="#900" stroke-width="5" /><circle cx="277.0" cy="279.0" fill="#900" r="16" stroke="#900" stroke-width="5" /><circle cx="595.0" cy="279.0" fill="#900" r="16" stroke="#900" stroke-width="5" /><circle cx="279.0" cy="599.0" fill="#900" r="16" stroke="#900" stroke-width="5" /><circle cx="597.0" cy="599.0" fill="#900" r="16" stroke="#900" stroke-width="5" /><rect fill="#090" height="24" stroke="#090" stroke-width="5" transform="rotate(0,311.0,309.0)" width="24" x="299.0" y="297.0" /><rect fill="#090" height="24" stroke="#090" stroke-width="5" transform="rotate(0,563.0,307.0)" width="24" x="551.0" y="295.0" /><rect fill="#090" height="24" stroke="#090" stroke-width="5" transform="rotate(0,563.0,559.0)" width="24" x="551.0" y="547.0" /><rect fill="#090" height="24" stroke="#090" stroke-width="5" transform="rotate(0,311.0,563.0)" width="24" x="299.0" y="551.0" /><circle cx="185.0" cy="373.0" fill="#090" r="16" stroke="#090" stroke-width="5" /><circle cx="499.0" cy="181.0" fill="#090" r="16" stroke="#090" stroke-width="5" /><circle cx="693.0" cy="503.0" fill="#090" r="16" stroke="#090" stroke-width="5" /><circle cx="373.0" cy="693.0" fill="#090" r="16" stroke="#090" stroke-width="5" /><circle cx="373.0" cy="181.0" fill="#090" r="16" stroke="#090" stroke-width="5" /><circle cx="691.0" cy="371.0" fill="#090" r="16" stroke="#090" stroke-width="5" /><circle cx="505.0" cy="695.0" fill="#090" r="16" stroke="#090" stroke-width="5" /><circle cx="181.0" cy="499.0" fill="#090" r="16" stroke="#090" stroke-width="5" /><rect fill="#090" height="24" stroke="#090" stroke-width="5" transform="rotate(0,397.0,395.0)" width="24" x="385.0" y="383.0" /><rect fill="#090" height="24" stroke="#090" stroke-width="5" transform="rotate(0,399.0,479.0)" width="24" x="387.0" y="467.0" /><rect fill="#090" height="24" stroke="#090" stroke-width="5" transform="rotate(0,479.0,479.0)" width="24" x="467.0" y="467.0" /><rect fill="#090" height="24" stroke="#090" stroke-width="5" transform="rotate(0,479.0,395.0)" width="24" x="467.0" y="383.0" /><rect fill="#090" height="24" stroke="#090" stroke-width="5" transform="rotate(0,701.0,277.0)" width="24" x="689.0" y="265.0" /><rect fill="#090" height="24" stroke="#090" stroke-width="5" transform="rotate(0,597.0,701.0)" width="24" x="585.0" y="689.0" /><rect fill="#090" height="24" stroke="#090" stroke-width="5" transform="rotate(0,171.0,597.0)" width="24" x="159.0" y="585.0" /><rect fill="#090" height="24" stroke="#090" stroke-width="5" transform="rotate(0,277.0,169.0)" width="24" x="265.0" y="157.0" /><circle cx="55.0" cy="437.0" fill="#009" r="16" stroke="#009" stroke-width="5" /><circle cx="819.0" cy="437.0" fill="#009" r="16" stroke="#009" stroke-width="5" /><circle cx="437.0" cy="819.0" fill="#009" r="16" stroke="#009" stroke-width="5" /><circle cx="437.0" cy="47.0" fill="#009" r="16" stroke="#009" stroke-width="5" /></svg>