<?xml version="1.0" encoding="utf-8" ?>
<svg baseProfile="tiny" height="1024" version="1.2" viewBox="0 0 2890 2890" width="1024" xmlns="http://www.w3.org/2000/svg" xmlns:ev="http://www.w3.org/2001/xml-events" xmlns:xlink="http://www.w3.org/1999/xlink"><defs /><line stroke="#333" stroke-width="10" x1="5.0" x2="2885.0" y1="2885.0" y2="2885.0" /><line stroke="#333" stroke-width="10" x1="2885.0" x2="2885.0" y1="2885.0" y2="5.0" /><line stroke="#333" stroke-width="10" x1="2885.0" x2="5.0" y1="5.0" y2="5.0" /><line stroke="#333" stroke-width="10" x1="5.0" x2="5.0" y1="5.0" y2="2885.0" /><line stroke="#999" stroke-width="3" x1="69.0" x2="2821.0" y1="2821.0" y2="2821.0" /><line stroke="#999" stroke-width="3" x1="2821.0" x2="2821.0" y1="2821.0" y2="69.0" /><line stroke="#999" stroke-width="3" x1="2821.0" x2="69.0" y1="69.0" y2="69.0" /><line stroke="#999" stroke-width="3" x1="69.0" x2="69.0" y1="69.0" y2="2821.0" /><line stroke="#999" stroke-width="3" x1="197.0" x2="2693.0" y1="2693.0" y2="2693.0" /><line stroke="#999" stroke-width="3" x1="2693.0" x2="2693.0" y1="2693.0" y2="197.0" /><line stroke="#999" stroke-width="3" x1="2693.0" x2="197.0" y1="197.0" y2="197.0" /><line stroke="#999" stroke-width="3" x1="197.0" x2="197.0" y1="197.0" y2="2693.0" /><line stroke="#999" stroke-width="3" x1="325.0" x2="2565.0" y1="2565.0" y2="2565.0" /><line stroke="#999" stroke-width="3" x1="2565.0" x2="2565.0" y1="2565.0" y2="325.0" /><line stroke="#999" stroke-width="3" x1="2565.0" x2="325.0" y1="325.0" y2="325.0" /><line stroke="#999" stroke-width="3" x1="325.0" x2="325.0" y1="325.0" y2="2565.0" /><line stroke="#0d0" stroke-width="20" x1="517.0" x2="357.0" y1="2533.0" y2="2533.0" /><line stroke="#0d0" stroke-width="20" x1="517.0" x2="517.0" y1="2373.0" y2="2533.0" /><line stroke="#0d0" stroke-width="20" x1="357.0" x2="517.0" y1="2373.0" y2="2373.0" /><line stroke="#0d0" stroke-width="20" x1="357.0" x2="357.0" y1="2533.0" y2="2373.0" /><line stroke="#999" stroke-width="3" x1="341.0" x2="581.0" y1="2341.0" y2="2341.0" /><line stroke="#999" stroke-width="3" x1="613.0" x2="613.0" y1="2549.0" y2="2309.0" /><line stroke="#999" stroke-width="3" x1="613.0" x2="341.0" y1="2309.0" y2="2309.0" /><line stroke="#999" stroke-width="3" x1="341.0" x2="341.0" y1="2309.0" y2="2341.0" /><line stroke="#999" stroke-width="3" x1="581.0" x2="613.0" y1="2549.0" y2="2549.0" /><line stroke="#999" stroke-width="3" x1="581.0" x2="581.0" y1="2341.0" y2="2549.0" /><line stroke="#999" stroke-width="3" x1="741.0" x2="1189.0" y1="1381.0" y2="1381.0" /><line stroke="#999" stroke-width="3" x1="1189.0" x2="1189.0" y1="1381.0" y2="933.0" /><line stroke="#999" stroke-width="3" x1="1189.0" x2="741.0" y1="933.0" y2="933.0" /><line stroke="#999" stroke-width="3" x1="741.0" x2="741.0" y1="933.0" y2="1381.0" /><line stroke="#999" stroke-width="3" x1="1733.0" x2="2085.0" y1="1189.0" y2="1189.0" /><line stroke="#999" stroke-width="3" x1="2085.0" x2="2085.0" y1="1189.0" y2="1061.0" /><line stroke="#999" stroke-width="3" x1="2085.0" x2="1733.0" y1="805.0" y2="805.0" /><line stroke="#999" stroke-width="3" x1="1733.0" x2="1733.0" y1="805.0" y2="1189.0" /><line stroke="#999" stroke-width="3" x1="1765.0" x2="2053.0" y1="1157.0" y2="1157.0" /><line stroke="#999" stroke-width="3" x1="2053.0" x2="2085.0" y1="1061.0" y2="1061.0" /><line stroke="#999" stroke-width="3" x1="2053.0" x2="2053.0" y1="965.0" y2="837.0" /><line stroke="#999" stroke-width="3" x1="1765.0" x2="1765.0" y1="837.0" y2="1157.0" /><line stroke="#999" stroke-width="3" x1="2085.0" x2="2085.0" y1="965.0" y2="805.0" /><line stroke="#999" stroke-width="3" x1="2085.0" x2="2085.0" y1="1061.0" y2="965.0" /><line stroke="#999" stroke-width="3" x1="2085.0" x2="2053.0" y1="965.0" y2="965.0" /><line stroke="#999" stroke-width="3" x1="2053.0" x2="1765.0" y1="837.0" y2="837.0" /><line stroke="#999" stroke-width="3" x1="2053.0" x2="2053.0" y1="1157.0" y2="1061.0" /><line stroke="#999" stroke-width="3" x1="1413.0" x2="1733.0" y1="2117.0" y2="2117.0" /><line stroke="#999" stroke-width="3" x1="1733.0" x2="1733.0" y1="2117.0" y2="1797.0" /><line stroke="#999" stroke-width="3" x1="1733.0" x2="1413.0" y1="1797.0" y2="1797.0" /><line stroke="#999" stroke-width="3" x1="1413.0" x2="1413.0" y1="1797.0" y2="2117.0" /><line stroke="#999" stroke-width="3" x1="1925.0" x2="2117.0" y1="1861.0" y2="1861.0" /><line stroke="#999" stroke-width="3" x1="2117.0" x2="2117.0" y1="1861.0" y2="1669.0" /><line stroke="#999" stroke-width="3" x1="2117.0" x2="1925.0" y1="1669.0" y2="1669.0" /><line stroke="#999" stroke-width="3" x1="1925.0" x2="1925.0" y1="1669.0" y2="1861.0" /><line stroke="#999" stroke-width="3" x1="517.0" x2="901.0" y1="2053.0" y2="2053.0" /><line stroke="#999" stroke-width="3" x1="901.0" x2="901.0" y1="2053.0" y2="1733.0" /><line stroke="#999" stroke-width="3" x1="901.0" x2="773.0" y1="1733.0" y2="1733.0" /><line stroke="#999" stroke-width="3" x1="517.0" x2="517.0" y1="1733.0" y2="2053.0" /><line stroke="#999" stroke-width="3" x1="581.0" x2="837.0" y1="1989.0" y2="1989.0" /><line stroke="#999" stroke-width="3" x1="837.0" x2="837.0" y1="1989.0" y2="1797.0" /><line stroke="#999" stroke-width="3" x1="837.0" x2="773.0" y1="1797.0" y2="1797.0" /><line stroke="#999" stroke-width="3" x1="581.0" x2="581.0" y1="1797.0" y2="1989.0" /><line stroke="#999" stroke-width="3" x1="645.0" x2="517.0" y1="1733.0" y2="1733.0" /><line stroke="#999" stroke-width="3" x1="773.0" x2="645.0" y1="1733.0" y2="1733.0" /><line stroke="#999" stroke-width="3" x1="645.0" x2="645.0" y1="1733.0" y2="1797.0" /><line stroke="#999" stroke-width="3" x1="645.0" x2="581.0" y1="1797.0" y2="1797.0" /><line stroke="#999" stroke-width="3" x1="773.0" x2="773.0" y1="1797.0" y2="1733.0" /><ellipse cx="1829.0" cy="997.0" fill="#009" rx="12" ry="24" stroke="#009" stroke-width="5" /><ellipse cx="1829.0" cy="1061.0" fill="#009" rx="12" ry="24" stroke="#009" stroke-width="5" /><ellipse cx="1829.0" cy="933.0" fill="#009" rx="12" ry="24" stroke="#009" stroke-width="5" /><ellipse cx="1893.0" cy="997.0" fill="#009" rx="12" ry="24" stroke="#009" stroke-width="5" /><circle cx="1921.0" cy="1067.0" fill="#900" r="16" stroke="#900" stroke-width="5" /><circle cx="1984.0" cy="905.0" fill="#090" r="16" stroke="#090" stroke-width="5" /><circle cx="1855.0" cy="1094.0" fill="#090" r="16" stroke="#090" stroke-width="5" /><circle cx="1828.0" cy="899.0" fill="#090" r="16" stroke="#090" stroke-width="5" /><circle cx="1486.0" cy="1433.0" fill="#090" r="16" stroke="#090" stroke-width="5" /><circle cx="622.0" cy="812.0" fill="#090" r="16" stroke="#090" stroke-width="5" /><circle cx="2329.0" cy="536.0" fill="#090" r="16" stroke="#090" stroke-width="5" /><circle cx="2152.0" cy="2183.0" fill="#090" r="16" stroke="#090" stroke-width="5" /><circle cx="1987.0" cy="1007.0" fill="#900" r="16" stroke="#900" stroke-width="5" /><circle cx="1984.0" cy="1100.0" fill="#009" r="16" stroke="#009" stroke-width="5" /><circle cx="1186.0" cy="683.0" fill="#009" r="16" stroke="#009" stroke-width="5" /><circle cx="850.0" cy="2288.0" fill="#009" r="16" stroke="#009" stroke-width="5" /><circle cx="707.0" cy="1865.0" fill="#009" r="16" stroke="#009" stroke-width="5" /><rect fill="#900" height="48" stroke="#900" stroke-width="5" transform="rotate(270,1827.0,2083.0)" width="32" x="1811.0" y="2059.0" /><rect fill="#900" height="48" stroke="#900" stroke-width="5" transform="rotate(45,1447.0,967.0)" width="32" x="1431.0" y="943.0" /><rect fill="#900" height="48" stroke="#900" stroke-width="5" transform="rotate(0,513.0,1579.0)" width="32" x="497.0" y="1555.0" /><rect fill="#900" height="48" stroke="#900" stroke-width="5" transform="rotate(315,1649.0,1451.0)" width="32" x="1633.0" y="1427.0" /><rect fill="#900" height="48" stroke="#900" stroke-width="5" transform="rotate(45,1347.0,1299.0)" width="32" x="1331.0" y="1275.0" /><rect fill="#900" height="48" stroke="#900" stroke-width="5" transform="rotate(315,1054.0,1859.0)" width="32" x="1038.0" y="1835.0" /><rect fill="#900" height="48" stroke="#900" stroke-width="5" transform="rotate(0,823.0,557.0)" width="32" x="807.0" y="533.0" /><rect fill="#900" height="48" stroke="#900" stroke-width="5" transform="rotate(270,2413.0,2399.0)" width="32" x="2397.0" y="2375.0" /><rect fill="#900" height="48" stroke="#900" stroke-width="5" transform="rotate(225,1348.0,1667.0)" width="32" x="1332.0" y="1643.0" /><rect fill="#900" height="48" stroke="#900" stroke-width="5" transform="rotate(45,1531.0,560.0)" width="32" x="1515.0" y="536.0" /><rect fill="#090" height="24" stroke="#090" stroke-width="5" transform="rotate(45,421.0,419.0)" width="24" x="409.0" y="407.0" /><rect fill="#090" height="24" stroke="#090" stroke-width="5" transform="rotate(135,2467.0,416.0)" width="24" x="2455.0" y="404.0" /><rect fill="#090" height="24" stroke="#090" stroke-width="5" transform="rotate(135,1537.0,2321.0)" width="24" x="1525.0" y="2309.0" /><rect fill="#090" height="24" stroke="#090" stroke-width="5" transform="rotate(135,1891.0,962.0)" width="24" x="1879.0" y="950.0" /><rect fill="#090" height="24" stroke="#090" stroke-width="5" transform="rotate(270,706.0,1934.0)" width="24" x="694.0" y="1922.0" /><rect fill="#090" height="24" stroke="#090" stroke-width="5" transform="rotate(270,1828.0,1844.0)" width="24" x="1816.0" y="1832.0" /><circle cx="637.0" cy="1865.0" fill="#900" r="16" stroke="#900" stroke-width="5" /><circle cx="766.0" cy="1928.0" fill="#090" r="16" stroke="#090" stroke-width="5" /><circle cx="613.0" cy="1958.0" fill="#090" r="16" stroke="#090" stroke-width="5" /><circle cx="703.0" cy="1769.0" fill="#090" r="16" stroke="#090" stroke-width="5" /><circle cx="1924.0" cy="905.0" fill="#090" r="16" stroke="#090" stroke-width="5" /><circle cx="1861.0" cy="902.0" fill="#090" r="16" stroke="#090" stroke-width="5" /><circle cx="1924.0" cy="1130.0" fill="#090" r="16" stroke="#090" stroke-width="5" /><circle cx="1792.0" cy="1127.0" fill="#090" r="16" stroke="#090" stroke-width="5" /><circle cx="2014.0" cy="872.0" fill="#090" r="16" stroke="#090" stroke-width="5" /><circle cx="1792.0" cy="875.0" fill="#090" r="16" stroke="#090" stroke-width="5" /><circle cx="2119.0" cy="1007.0" fill="#090" r="16" stroke="#090" stroke-width="5" /><circle cx="2272.0" cy="755.0" fill="#090" r="16" stroke="#090" stroke-width="5" /><circle cx="2161.0" cy="1391.0" fill="#090" r="16" stroke="#090" stroke-width="5" /><circle cx="2023.0" cy="1040.0" fill="#090" r="16" stroke="#090" stroke-width="5" /><circle cx="1981.0" cy="968.0" fill="#090" r="16" stroke="#090" stroke-width="5" /><circle cx="1927.0" cy="1034.0" fill="#090" r="16" stroke="#090" stroke-width="5" /><circle cx="1456.0" cy="1148.0" fill="#090" r="16" stroke="#090" stroke-width="5" /><circle cx="685.0" cy="1607.0" fill="#090" r="16" stroke="#090" stroke-width="5" /><circle cx="721.0" cy="746.0" fill="#090" r="16" stroke="#090" stroke-width="5" /><circle cx="1546.0" cy="1607.0" fill="#090" r="16" stroke="#090" stroke-width="5" /><circle cx="2290.0" cy="1634.0" fill="#090" r="16" stroke="#090" stroke-width="5" /><circle cx="1009.0" cy="2240.0" fill="#090" r="16" stroke="#090" stroke-width="5" /><rect fill="#090" height="24" stroke="#090" stroke-width="5" transform="rotate(270,1005.0,1613.0)" width="24" x="993.0" y="1601.0" /><rect fill="#090" height="24" stroke="#090" stroke-width="5" transform="rotate(270,477.0,733.0)" width="24" x="465.0" y="721.0" /><rect fill="#090" height="24" stroke="#090" stroke-width="5" transform="rotate(270,2277.0,2197.0)" width="24" x="2265.0" y="2185.0" /><rect fill="#090" height="24" stroke="#090" stroke-width="5" transform="rotate(270,2349.0,1061.0)" width="24" x="2337.0" y="1049.0" /><rect fill="#090" height="24" stroke="#090" stroke-width="5" transform="rotate(270,725.0,2301.0)" width="24" x="713.0" y="2289.0" /></svg>