<?xml version="1.0" encoding="utf-8" ?>
<svg baseProfile="tiny" height="694" version="1.2" viewBox="0 0 3530 2394" width="1024" xmlns="http://www.w3.org/2000/svg" xmlns:ev="http://www.w3.org/2001/xml-events" xmlns:xlink="http://www.w3.org/1999/xlink"><defs /><line stroke="#333" stroke-width="10" x1="1349.0" x2="1413.0" y1="837.0" y2="837.0" /><line stroke="#333" stroke-width="10" x1="1989.0" x2="1989.0" y1="837.0" y2="901.0" /><line stroke="#999" stroke-width="3" x1="1989.0" x2="1349.0" y1="1221.0" y2="1221.0" /><line stroke="#999" stroke-width="3" x1="1349.0" x2="1349.0" y1="965.0" y2="933.0" /><line stroke="#999" stroke-width="3" x1="1349.0" x2="1349.0" y1="1093.0" y2="965.0" /><line stroke="#999" stroke-width="3" x1="1349.0" x2="1349.0" y1="1221.0" y2="1093.0" /><line stroke="#999" stroke-width="3" x1="1349.0" x2="1285.0" y1="1093.0" y2="1093.0" /><line stroke="#999" stroke-width="3" x1="1285.0" x2="1221.0" y1="1093.0" y2="1093.0" /><line stroke="#999" stroke-width="3" x1="1221.0" x2="1221.0" y1="1093.0" y2="965.0" /><line stroke="#999" stroke-width="3" x1="1221.0" x2="1285.0" y1="965.0" y2="965.0" /><line stroke="#999" stroke-width="3" x1="1285.0" x2="1349.0" y1="965.0" y2="965.0" /><line stroke="#999" stroke-width="3" x1="1285.0" x2="1285.0" y1="1093.0" y2="965.0" /><line stroke="#333" stroke-width="10" x1="2373.0" x2="1989.0" y1="581.0" y2="581.0" /><line stroke="#333" stroke-width="10" x1="2373.0" x2="2373.0" y1="1733.0" y2="1541.0" /><line stroke="#333" stroke-width="10" x1="453.0" x2="837.0" y1="1733.0" y2="1733.0" /><line stroke="#333" stroke-width="10" x1="453.0" x2="453.0" y1="581.0" y2="901.0" /><line stroke="#333" stroke-width="10" x1="741.0" x2="773.0" y1="1381.0" y2="1381.0" /><line stroke="#999" stroke-width="3" x1="965.0" x2="965.0" y1="1349.0" y2="1381.0" /><line stroke="#999" stroke-width="3" x1="965.0" x2="901.0" y1="1381.0" y2="1381.0" /><line stroke="#333" stroke-width="10" x1="741.0" x2="741.0" y1="1413.0" y2="1381.0" /><line stroke="#999" stroke-width="3" x1="773.0" x2="837.0" y1="1381.0" y2="1381.0" /><line stroke="#333" stroke-width="10" x1="773.0" x2="741.0" y1="1413.0" y2="1413.0" /><line stroke="#333" stroke-width="10" x1="773.0" x2="773.0" y1="1381.0" y2="1413.0" /><line stroke="#999" stroke-width="3" x1="453.0" x2="453.0" y1="901.0" y2="965.0" /><line stroke="#333" stroke-width="10" x1="453.0" x2="453.0" y1="965.0" y2="1157.0" /><line stroke="#333" stroke-width="10" x1="421.0" x2="453.0" y1="965.0" y2="965.0" /><line stroke="#999" stroke-width="3" x1="421.0" x2="421.0" y1="965.0" y2="901.0" /><line stroke="#333" stroke-width="10" x1="453.0" x2="421.0" y1="901.0" y2="901.0" /><line stroke="#333" stroke-width="10" x1="421.0" x2="421.0" y1="1029.0" y2="965.0" /><line stroke="#333" stroke-width="10" x1="165.0" x2="293.0" y1="1029.0" y2="1029.0" /><line stroke="#333" stroke-width="10" x1="165.0" x2="165.0" y1="837.0" y2="1029.0" /><line stroke="#333" stroke-width="10" x1="421.0" x2="165.0" y1="837.0" y2="837.0" /><line stroke="#333" stroke-width="10" x1="421.0" x2="421.0" y1="901.0" y2="837.0" /><line stroke="#999" stroke-width="3" x1="901.0" x2="837.0" y1="1381.0" y2="1413.0" /><line stroke="#999" stroke-width="3" x1="901.0" x2="965.0" y1="1349.0" y2="1349.0" /><line stroke="#999" stroke-width="3" x1="901.0" x2="901.0" y1="1349.0" y2="1381.0" /><line stroke="#999" stroke-width="3" x1="837.0" x2="773.0" y1="1413.0" y2="1413.0" /><line stroke="#999" stroke-width="3" x1="837.0" x2="901.0" y1="1381.0" y2="1349.0" /><line stroke="#999" stroke-width="3" x1="837.0" x2="837.0" y1="1381.0" y2="1413.0" /><line stroke="#666" stroke-width="20" x1="293.0" x2="357.0" y1="1029.0" y2="1029.0" /><line stroke="#333" stroke-width="10" x1="357.0" x2="421.0" y1="1029.0" y2="1029.0" /><line stroke="#333" stroke-width="10" x1="357.0" x2="357.0" y1="1061.0" y2="1029.0" /><line stroke="#666" stroke-width="20" x1="357.0" x2="293.0" y1="1061.0" y2="1061.0" /><line stroke="#333" stroke-width="10" x1="293.0" x2="293.0" y1="1029.0" y2="1061.0" /><line stroke="#333" stroke-width="10" x1="421.0" x2="357.0" y1="1093.0" y2="1093.0" /><line stroke="#333" stroke-width="10" x1="421.0" x2="421.0" y1="1349.0" y2="1221.0" /><line stroke="#333" stroke-width="10" x1="165.0" x2="261.0" y1="1349.0" y2="1349.0" /><line stroke="#333" stroke-width="10" x1="165.0" x2="165.0" y1="1093.0" y2="1221.0" /><line stroke="#333" stroke-width="10" x1="293.0" x2="293.0" y1="1061.0" y2="1093.0" /><line stroke="#333" stroke-width="10" x1="293.0" x2="165.0" y1="1093.0" y2="1093.0" /><line stroke="#333" stroke-width="10" x1="357.0" x2="357.0" y1="1093.0" y2="1061.0" /><line stroke="#999" stroke-width="3" x1="421.0" x2="421.0" y1="1221.0" y2="1157.0" /><line stroke="#333" stroke-width="10" x1="453.0" x2="453.0" y1="1221.0" y2="1477.0" /><line stroke="#999" stroke-width="3" x1="453.0" x2="453.0" y1="1157.0" y2="1221.0" /><line stroke="#333" stroke-width="10" x1="421.0" x2="421.0" y1="1157.0" y2="1093.0" /><line stroke="#333" stroke-width="10" x1="453.0" x2="421.0" y1="1157.0" y2="1157.0" /><line stroke="#333" stroke-width="10" x1="421.0" x2="453.0" y1="1221.0" y2="1221.0" /><line stroke="#00d" stroke-width="20" x1="261.0" x2="325.0" y1="1349.0" y2="1349.0" /><line stroke="#333" stroke-width="10" x1="325.0" x2="421.0" y1="1349.0" y2="1349.0" /><line stroke="#333" stroke-width="10" x1="325.0" x2="325.0" y1="1413.0" y2="1349.0" /><line stroke="#333" stroke-width="10" x1="261.0" x2="325.0" y1="1413.0" y2="1413.0" /><line stroke="#333" stroke-width="10" x1="261.0" x2="261.0" y1="1349.0" y2="1413.0" /><line stroke="#999" stroke-width="3" x1="453.0" x2="453.0" y1="1477.0" y2="1541.0" /><line stroke="#333" stroke-width="10" x1="453.0" x2="453.0" y1="1541.0" y2="1733.0" /><line stroke="#333" stroke-width="10" x1="325.0" x2="453.0" y1="1541.0" y2="1541.0" /><line stroke="#999" stroke-width="3" x1="325.0" x2="325.0" y1="1477.0" y2="1541.0" /><line stroke="#333" stroke-width="10" x1="453.0" x2="325.0" y1="1477.0" y2="1477.0" /><line stroke="#333" stroke-width="10" x1="197.0" x2="325.0" y1="1541.0" y2="1541.0" /><line stroke="#999" stroke-width="3" x1="197.0" x2="197.0" y1="1477.0" y2="1541.0" /><line stroke="#333" stroke-width="10" x1="325.0" x2="197.0" y1="1477.0" y2="1477.0" /><line stroke="#333" stroke-width="10" x1="69.0" x2="197.0" y1="1541.0" y2="1541.0" /><line stroke="#999" stroke-width="3" x1="69.0" x2="69.0" y1="1477.0" y2="1541.0" /><line stroke="#333" stroke-width="10" x1="197.0" x2="69.0" y1="1477.0" y2="1477.0" /><line stroke="#333" stroke-width="10" x1="5.0" x2="69.0" y1="1541.0" y2="1541.0" /><line stroke="#333" stroke-width="10" x1="5.0" x2="5.0" y1="1477.0" y2="1541.0" /><line stroke="#999" stroke-width="3" x1="69.0" x2="5.0" y1="1477.0" y2="1477.0" /><line stroke="#333" stroke-width="10" x1="5.0" x2="5.0" y1="1381.0" y2="1477.0" /><line stroke="#999" stroke-width="3" x1="69.0" x2="5.0" y1="1381.0" y2="1381.0" /><line stroke="#333" stroke-width="10" x1="69.0" x2="69.0" y1="1477.0" y2="1381.0" /><line stroke="#333" stroke-width="10" x1="5.0" x2="5.0" y1="1285.0" y2="1381.0" /><line stroke="#666" stroke-width="20" x1="69.0" x2="5.0" y1="1285.0" y2="1285.0" /><line stroke="#333" stroke-width="10" x1="69.0" x2="69.0" y1="1381.0" y2="1285.0" /><line stroke="#333" stroke-width="10" x1="5.0" x2="5.0" y1="1221.0" y2="1285.0" /><line stroke="#333" stroke-width="10" x1="133.0" x2="5.0" y1="1221.0" y2="1221.0" /><line stroke="#666" stroke-width="20" x1="133.0" x2="133.0" y1="1285.0" y2="1221.0" /><line stroke="#333" stroke-width="10" x1="69.0" x2="133.0" y1="1285.0" y2="1285.0" /><line stroke="#999" stroke-width="3" x1="165.0" x2="165.0" y1="1221.0" y2="1285.0" /><line stroke="#333" stroke-width="10" x1="165.0" x2="165.0" y1="1285.0" y2="1349.0" /><line stroke="#333" stroke-width="10" x1="133.0" x2="165.0" y1="1285.0" y2="1285.0" /><line stroke="#333" stroke-width="10" x1="165.0" x2="133.0" y1="1221.0" y2="1221.0" /><line stroke="#333" stroke-width="10" x1="1989.0" x2="2373.0" y1="1733.0" y2="1733.0" /><line stroke="#999" stroke-width="3" x1="1861.0" x2="1989.0" y1="1733.0" y2="1733.0" /><line stroke="#333" stroke-width="10" x1="1989.0" x2="1989.0" y1="1861.0" y2="1733.0" /><line stroke="#666" stroke-width="20" x1="1861.0" x2="1989.0" y1="1861.0" y2="1861.0" /><line stroke="#333" stroke-width="10" x1="1861.0" x2="1861.0" y1="1733.0" y2="1861.0" /><line stroke="#333" stroke-width="10" x1="1989.0" x2="1989.0" y1="1925.0" y2="1861.0" /><line stroke="#666" stroke-width="20" x1="1989.0" x2="1861.0" y1="1925.0" y2="1925.0" /><line stroke="#333" stroke-width="10" x1="1861.0" x2="1861.0" y1="1861.0" y2="1925.0" /><line stroke="#333" stroke-width="10" x1="1989.0" x2="1989.0" y1="1989.0" y2="1925.0" /><line stroke="#333" stroke-width="10" x1="2373.0" x2="2309.0" y1="1989.0" y2="1989.0" /><line stroke="#666" stroke-width="20" x1="2373.0" x2="2373.0" y1="2117.0" y2="1989.0" /><line stroke="#333" stroke-width="10" x1="1861.0" x2="2309.0" y1="2117.0" y2="2117.0" /><line stroke="#333" stroke-width="10" x1="1861.0" x2="1861.0" y1="1925.0" y2="2053.0" /><line stroke="#333" stroke-width="10" x1="2437.0" x2="2373.0" y1="1989.0" y2="1989.0" /><line stroke="#666" stroke-width="20" x1="2437.0" x2="2437.0" y1="1989.0" y2="2117.0" /><line stroke="#333" stroke-width="10" x1="2373.0" x2="2437.0" y1="2117.0" y2="2117.0" /><line stroke="#333" stroke-width="10" x1="2501.0" x2="2437.0" y1="1989.0" y2="1989.0" /><line stroke="#999" stroke-width="3" x1="2501.0" x2="2501.0" y1="1989.0" y2="2117.0" /><line stroke="#333" stroke-width="10" x1="2437.0" x2="2501.0" y1="2117.0" y2="2117.0" /><line stroke="#999" stroke-width="3" x1="2501.0" x2="2629.0" y1="1989.0" y2="1989.0" /><line stroke="#999" stroke-width="3" x1="2629.0" x2="2629.0" y1="1989.0" y2="2117.0" /><line stroke="#999" stroke-width="3" x1="2501.0" x2="2629.0" y1="2117.0" y2="2117.0" /><line stroke="#999" stroke-width="3" x1="2629.0" x2="3525.0" y1="1989.0" y2="1989.0" /><line stroke="#333" stroke-width="10" x1="3525.0" x2="3525.0" y1="2117.0" y2="1989.0" /><line stroke="#999" stroke-width="3" x1="2629.0" x2="3397.0" y1="2117.0" y2="2117.0" /><line stroke="#999" stroke-width="3" x1="3397.0" x2="3525.0" y1="2117.0" y2="2117.0" /><line stroke="#999" stroke-width="3" x1="3397.0" x2="3397.0" y1="2117.0" y2="2245.0" /><line stroke="#333" stroke-width="10" x1="2501.0" x2="2853.0" y1="2245.0" y2="2245.0" /><line stroke="#333" stroke-width="10" x1="2501.0" x2="2501.0" y1="2117.0" y2="2245.0" /><line stroke="#333" stroke-width="10" x1="3525.0" x2="3525.0" y1="2245.0" y2="2117.0" /><line stroke="#333" stroke-width="10" x1="3397.0" x2="3525.0" y1="2245.0" y2="2245.0" /><line stroke="#333" stroke-width="10" x1="2501.0" x2="2501.0" y1="837.0" y2="1989.0" /><line stroke="#333" stroke-width="10" x1="3525.0" x2="3269.0" y1="837.0" y2="837.0" /><line stroke="#333" stroke-width="10" x1="3525.0" x2="3525.0" y1="1989.0" y2="837.0" /><line stroke="#333" stroke-width="10" x1="3269.0" x2="3205.0" y1="965.0" y2="965.0" /><line stroke="#333" stroke-width="10" x1="3269.0" x2="3269.0" y1="837.0" y2="965.0" /><line stroke="#333" stroke-width="10" x1="2757.0" x2="2757.0" y1="965.0" y2="837.0" /><line stroke="#333" stroke-width="10" x1="2757.0" x2="2501.0" y1="837.0" y2="837.0" /><line stroke="#333" stroke-width="10" x1="2821.0" x2="2757.0" y1="965.0" y2="965.0" /><line stroke="#999" stroke-width="3" x1="2885.0" x2="2821.0" y1="1029.0" y2="965.0" /><line stroke="#999" stroke-width="3" x1="3205.0" x2="3141.0" y1="965.0" y2="1029.0" /><line stroke="#999" stroke-width="3" x1="3141.0" x2="2885.0" y1="1029.0" y2="1029.0" /><line stroke="#999" stroke-width="3" x1="3205.0" x2="3141.0" y1="965.0" y2="965.0" /><line stroke="#333" stroke-width="10" x1="3141.0" x2="3077.0" y1="965.0" y2="965.0" /><line stroke="#333" stroke-width="10" x1="3141.0" x2="3141.0" y1="933.0" y2="965.0" /><line stroke="#999" stroke-width="3" x1="3141.0" x2="3205.0" y1="933.0" y2="933.0" /><line stroke="#333" stroke-width="10" x1="3205.0" x2="3205.0" y1="965.0" y2="933.0" /><line stroke="#999" stroke-width="3" x1="2885.0" x2="2821.0" y1="965.0" y2="965.0" /><line stroke="#333" stroke-width="10" x1="2821.0" x2="2821.0" y1="933.0" y2="965.0" /><line stroke="#999" stroke-width="3" x1="2821.0" x2="2885.0" y1="933.0" y2="933.0" /><line stroke="#333" stroke-width="10" x1="2885.0" x2="2885.0" y1="965.0" y2="933.0" /><line stroke="#333" stroke-width="10" x1="2949.0" x2="2885.0" y1="965.0" y2="965.0" /><line stroke="#999" stroke-width="3" x1="3077.0" x2="2949.0" y1="965.0" y2="965.0" /><line stroke="#333" stroke-width="10" x1="2949.0" x2="2949.0" y1="901.0" y2="965.0" /><line stroke="#999" stroke-width="3" x1="2949.0" x2="3077.0" y1="901.0" y2="901.0" /><line stroke="#333" stroke-width="10" x1="3077.0" x2="3077.0" y1="965.0" y2="901.0" /><line stroke="#999" stroke-width="3" x1="2917.0" x2="2981.0" y1="1349.0" y2="1349.0" /><line stroke="#999" stroke-width="3" x1="3109.0" x2="3109.0" y1="1349.0" y2="1477.0" /><line stroke="#999" stroke-width="3" x1="3109.0" x2="3045.0" y1="1477.0" y2="1477.0" /><line stroke="#999" stroke-width="3" x1="2917.0" x2="2917.0" y1="1477.0" y2="1349.0" /><line stroke="#333" stroke-width="10" x1="2949.0" x2="2949.0" y1="773.0" y2="901.0" /><line stroke="#333" stroke-width="10" x1="3077.0" x2="2949.0" y1="773.0" y2="773.0" /><line stroke="#333" stroke-width="10" x1="3077.0" x2="3077.0" y1="901.0" y2="773.0" /><line stroke="#333" stroke-width="10" x1="3141.0" x2="3141.0" y1="869.0" y2="933.0" /><line stroke="#333" stroke-width="10" x1="3205.0" x2="3141.0" y1="869.0" y2="869.0" /><line stroke="#333" stroke-width="10" x1="3205.0" x2="3205.0" y1="933.0" y2="869.0" /><line stroke="#999" stroke-width="3" x1="2981.0" x2="3045.0" y1="1349.0" y2="1349.0" /><line stroke="#999" stroke-width="3" x1="2981.0" x2="2917.0" y1="1477.0" y2="1477.0" /><line stroke="#999" stroke-width="3" x1="2981.0" x2="2981.0" y1="1477.0" y2="1349.0" /><line stroke="#999" stroke-width="3" x1="3045.0" x2="2981.0" y1="1477.0" y2="1477.0" /><line stroke="#999" stroke-width="3" x1="3045.0" x2="3109.0" y1="1349.0" y2="1349.0" /><line stroke="#999" stroke-width="3" x1="3045.0" x2="3045.0" y1="1349.0" y2="1477.0" /><line stroke="#666" stroke-width="20" x1="2309.0" x2="2245.0" y1="1989.0" y2="1989.0" /><line stroke="#333" stroke-width="10" x1="2245.0" x2="1989.0" y1="1989.0" y2="1989.0" /><line stroke="#333" stroke-width="10" x1="2245.0" x2="2245.0" y1="1957.0" y2="1989.0" /><line stroke="#333" stroke-width="10" x1="2245.0" x2="2245.0" y1="1861.0" y2="1957.0" /><line stroke="#333" stroke-width="10" x1="2309.0" x2="2245.0" y1="1861.0" y2="1861.0" /><line stroke="#333" stroke-width="10" x1="2309.0" x2="2309.0" y1="1957.0" y2="1861.0" /><line stroke="#333" stroke-width="10" x1="2309.0" x2="2309.0" y1="1989.0" y2="1957.0" /><line stroke="#666" stroke-width="20" x1="2245.0" x2="2309.0" y1="1957.0" y2="1957.0" /><line stroke="#333" stroke-width="10" x1="2821.0" x2="2821.0" y1="869.0" y2="933.0" /><line stroke="#333" stroke-width="10" x1="2885.0" x2="2821.0" y1="869.0" y2="869.0" /><line stroke="#333" stroke-width="10" x1="2885.0" x2="2885.0" y1="933.0" y2="869.0" /><line stroke="#999" stroke-width="3" x1="517.0" x2="517.0" y1="645.0" y2="1669.0" /><line stroke="#999" stroke-width="3" x1="2309.0" x2="709.0" y1="645.0" y2="645.0" /><line stroke="#999" stroke-width="3" x1="2309.0" x2="2309.0" y1="1669.0" y2="1541.0" /><line stroke="#999" stroke-width="3" x1="517.0" x2="2309.0" y1="1669.0" y2="1669.0" /><line stroke="#999" stroke-width="3" x1="1989.0" x2="1861.0" y1="581.0" y2="581.0" /><line stroke="#333" stroke-width="10" x1="1861.0" x2="1477.0" y1="581.0" y2="581.0" /><line stroke="#333" stroke-width="10" x1="1861.0" x2="1861.0" y1="453.0" y2="581.0" /><line stroke="#999" stroke-width="3" x1="1989.0" x2="1861.0" y1="389.0" y2="453.0" /><line stroke="#333" stroke-width="10" x1="1989.0" x2="1989.0" y1="581.0" y2="485.0" /><line stroke="#333" stroke-width="10" x1="1797.0" x2="1861.0" y1="325.0" y2="453.0" /><line stroke="#999" stroke-width="3" x1="1925.0" x2="1797.0" y1="261.0" y2="325.0" /><line stroke="#333" stroke-width="10" x1="1989.0" x2="1925.0" y1="389.0" y2="261.0" /><line stroke="#333" stroke-width="10" x1="1733.0" x2="1797.0" y1="261.0" y2="325.0" /><line stroke="#999" stroke-width="3" x1="1861.0" x2="1733.0" y1="133.0" y2="261.0" /><line stroke="#333" stroke-width="10" x1="1925.0" x2="1861.0" y1="261.0" y2="133.0" /><line stroke="#333" stroke-width="10" x1="1669.0" x2="1733.0" y1="197.0" y2="261.0" /><line stroke="#999" stroke-width="3" x1="1765.0" x2="1669.0" y1="69.0" y2="197.0" /><line stroke="#333" stroke-width="10" x1="1861.0" x2="1765.0" y1="133.0" y2="69.0" /><line stroke="#333" stroke-width="10" x1="1605.0" x2="1669.0" y1="165.0" y2="197.0" /><line stroke="#999" stroke-width="3" x1="1637.0" x2="1605.0" y1="5.0" y2="165.0" /><line stroke="#333" stroke-width="10" x1="1765.0" x2="1637.0" y1="69.0" y2="5.0" /><line stroke="#333" stroke-width="10" x1="1541.0" x2="1605.0" y1="165.0" y2="165.0" /><line stroke="#999" stroke-width="3" x1="1477.0" x2="1541.0" y1="5.0" y2="165.0" /><line stroke="#333" stroke-width="10" x1="1637.0" x2="1477.0" y1="5.0" y2="5.0" /><line stroke="#333" stroke-width="10" x1="1477.0" x2="1541.0" y1="197.0" y2="165.0" /><line stroke="#999" stroke-width="3" x1="1349.0" x2="1477.0" y1="69.0" y2="197.0" /><line stroke="#333" stroke-width="10" x1="1477.0" x2="1349.0" y1="5.0" y2="69.0" /><line stroke="#333" stroke-width="10" x1="1413.0" x2="1477.0" y1="261.0" y2="197.0" /><line stroke="#999" stroke-width="3" x1="1285.0" x2="1413.0" y1="197.0" y2="261.0" /><line stroke="#333" stroke-width="10" x1="1349.0" x2="1285.0" y1="69.0" y2="197.0" /><line stroke="#333" stroke-width="10" x1="1413.0" x2="1413.0" y1="325.0" y2="261.0" /><line stroke="#999" stroke-width="3" x1="1413.0" x2="1285.0" y1="325.0" y2="325.0" /><line stroke="#333" stroke-width="10" x1="1285.0" x2="1285.0" y1="197.0" y2="325.0" /><line stroke="#333" stroke-width="10" x1="1605.0" x2="1413.0" y1="325.0" y2="325.0" /><line stroke="#333" stroke-width="10" x1="1605.0" x2="1605.0" y1="549.0" y2="325.0" /><line stroke="#333" stroke-width="10" x1="1157.0" x2="1413.0" y1="549.0" y2="549.0" /><line stroke="#333" stroke-width="10" x1="1157.0" x2="1157.0" y1="325.0" y2="389.0" /><line stroke="#333" stroke-width="10" x1="1285.0" x2="1157.0" y1="325.0" y2="325.0" /><line stroke="#333" stroke-width="10" x1="1157.0" x2="1157.0" y1="453.0" y2="549.0" /><line stroke="#999" stroke-width="3" x1="1157.0" x2="1157.0" y1="389.0" y2="453.0" /><line stroke="#333" stroke-width="10" x1="1093.0" x2="1157.0" y1="453.0" y2="453.0" /><line stroke="#999" stroke-width="3" x1="1093.0" x2="1093.0" y1="453.0" y2="389.0" /><line stroke="#333" stroke-width="10" x1="1157.0" x2="1093.0" y1="389.0" y2="389.0" /><line stroke="#333" stroke-width="10" x1="1093.0" x2="1093.0" y1="549.0" y2="453.0" /><line stroke="#333" stroke-width="10" x1="709.0" x2="837.0" y1="549.0" y2="549.0" /><line stroke="#333" stroke-width="10" x1="709.0" x2="709.0" y1="325.0" y2="549.0" /><line stroke="#333" stroke-width="10" x1="1093.0" x2="965.0" y1="325.0" y2="325.0" /><line stroke="#333" stroke-width="10" x1="1093.0" x2="1093.0" y1="389.0" y2="325.0" /><line stroke="#999" stroke-width="3" x1="837.0" x2="901.0" y1="549.0" y2="549.0" /><line stroke="#333" stroke-width="10" x1="837.0" x2="709.0" y1="581.0" y2="581.0" /><line stroke="#999" stroke-width="3" x1="901.0" x2="837.0" y1="581.0" y2="581.0" /><line stroke="#333" stroke-width="10" x1="901.0" x2="1093.0" y1="549.0" y2="549.0" /><line stroke="#333" stroke-width="10" x1="837.0" x2="837.0" y1="549.0" y2="581.0" /><line stroke="#333" stroke-width="10" x1="901.0" x2="901.0" y1="581.0" y2="549.0" /><line stroke="#999" stroke-width="3" x1="1413.0" x2="1477.0" y1="549.0" y2="549.0" /><line stroke="#333" stroke-width="10" x1="1413.0" x2="901.0" y1="581.0" y2="581.0" /><line stroke="#999" stroke-width="3" x1="1477.0" x2="1413.0" y1="581.0" y2="581.0" /><line stroke="#333" stroke-width="10" x1="1477.0" x2="1605.0" y1="549.0" y2="549.0" /><line stroke="#333" stroke-width="10" x1="1413.0" x2="1413.0" y1="549.0" y2="581.0" /><line stroke="#333" stroke-width="10" x1="1477.0" x2="1477.0" y1="581.0" y2="549.0" /><line stroke="#666" stroke-width="20" x1="965.0" x2="901.0" y1="325.0" y2="325.0" /><line stroke="#333" stroke-width="10" x1="901.0" x2="709.0" y1="325.0" y2="325.0" /><line stroke="#333" stroke-width="10" x1="901.0" x2="901.0" y1="293.0" y2="325.0" /><line stroke="#333" stroke-width="10" x1="901.0" x2="901.0" y1="197.0" y2="293.0" /><line stroke="#333" stroke-width="10" x1="965.0" x2="901.0" y1="197.0" y2="197.0" /><line stroke="#333" stroke-width="10" x1="965.0" x2="965.0" y1="293.0" y2="197.0" /><line stroke="#333" stroke-width="10" x1="965.0" x2="965.0" y1="325.0" y2="293.0" /><line stroke="#666" stroke-width="20" x1="901.0" x2="965.0" y1="293.0" y2="293.0" /><line stroke="#999" stroke-width="3" x1="1861.0" x2="1861.0" y1="2053.0" y2="2117.0" /><line stroke="#333" stroke-width="10" x1="1797.0" x2="1861.0" y1="2117.0" y2="2117.0" /><line stroke="#999" stroke-width="3" x1="1797.0" x2="1797.0" y1="2053.0" y2="2117.0" /><line stroke="#333" stroke-width="10" x1="1861.0" x2="1797.0" y1="2053.0" y2="2053.0" /><line stroke="#333" stroke-width="10" x1="1733.0" x2="1797.0" y1="2117.0" y2="2117.0" /><line stroke="#999" stroke-width="3" x1="1733.0" x2="1733.0" y1="2053.0" y2="2117.0" /><line stroke="#333" stroke-width="10" x1="1797.0" x2="1733.0" y1="2053.0" y2="2053.0" /><line stroke="#333" stroke-width="10" x1="1669.0" x2="1733.0" y1="2117.0" y2="2117.0" /><line stroke="#333" stroke-width="10" x1="1669.0" x2="1669.0" y1="2181.0" y2="2117.0" /><line stroke="#333" stroke-width="10" x1="1413.0" x2="1477.0" y1="2181.0" y2="2181.0" /><line stroke="#333" stroke-width="10" x1="1413.0" x2="1413.0" y1="1765.0" y2="1797.0" /><line stroke="#333" stroke-width="10" x1="1637.0" x2="1541.0" y1="1765.0" y2="1765.0" /><line stroke="#333" stroke-width="10" x1="1669.0" x2="1669.0" y1="2053.0" y2="1893.0" /><line stroke="#333" stroke-width="10" x1="1733.0" x2="1669.0" y1="2053.0" y2="2053.0" /><line stroke="#333" stroke-width="10" x1="1637.0" x2="1637.0" y1="1893.0" y2="1765.0" /><line stroke="#333" stroke-width="10" x1="1669.0" x2="1637.0" y1="1893.0" y2="1893.0" /><line stroke="#999" stroke-width="3" x1="1477.0" x2="1541.0" y1="1733.0" y2="1733.0" /><line stroke="#333" stroke-width="10" x1="1477.0" x2="1413.0" y1="1765.0" y2="1765.0" /><line stroke="#999" stroke-width="3" x1="1541.0" x2="1477.0" y1="1765.0" y2="1765.0" /><line stroke="#333" stroke-width="10" x1="1541.0" x2="1861.0" y1="1733.0" y2="1733.0" /><line stroke="#333" stroke-width="10" x1="1477.0" x2="1477.0" y1="1733.0" y2="1765.0" /><line stroke="#333" stroke-width="10" x1="1541.0" x2="1541.0" y1="1765.0" y2="1733.0" /><line stroke="#333" stroke-width="10" x1="1477.0" x2="1541.0" y1="2181.0" y2="2181.0" /><line stroke="#333" stroke-width="10" x1="1541.0" x2="1669.0" y1="2181.0" y2="2181.0" /><line stroke="#333" stroke-width="10" x1="1349.0" x2="1413.0" y1="2117.0" y2="2117.0" /><line stroke="#333" stroke-width="10" x1="1413.0" x2="1413.0" y1="2117.0" y2="2181.0" /><line stroke="#999" stroke-width="3" x1="1349.0" x2="1349.0" y1="2053.0" y2="2117.0" /><line stroke="#333" stroke-width="10" x1="1413.0" x2="1349.0" y1="2053.0" y2="2053.0" /><line stroke="#333" stroke-width="10" x1="1285.0" x2="1349.0" y1="2117.0" y2="2117.0" /><line stroke="#999" stroke-width="3" x1="1285.0" x2="1285.0" y1="2053.0" y2="2117.0" /><line stroke="#333" stroke-width="10" x1="1349.0" x2="1285.0" y1="2053.0" y2="2053.0" /><line stroke="#333" stroke-width="10" x1="1221.0" x2="1285.0" y1="2117.0" y2="2117.0" /><line stroke="#333" stroke-width="10" x1="1221.0" x2="1221.0" y1="2181.0" y2="2117.0" /><line stroke="#333" stroke-width="10" x1="709.0" x2="901.0" y1="2181.0" y2="2181.0" /><line stroke="#333" stroke-width="10" x1="709.0" x2="709.0" y1="1765.0" y2="1861.0" /><line stroke="#333" stroke-width="10" x1="1221.0" x2="901.0" y1="1765.0" y2="1765.0" /><line stroke="#333" stroke-width="10" x1="1221.0" x2="1221.0" y1="2053.0" y2="1765.0" /><line stroke="#333" stroke-width="10" x1="1285.0" x2="1221.0" y1="2053.0" y2="2053.0" /><line stroke="#999" stroke-width="3" x1="837.0" x2="901.0" y1="1733.0" y2="1733.0" /><line stroke="#333" stroke-width="10" x1="837.0" x2="709.0" y1="1765.0" y2="1765.0" /><line stroke="#999" stroke-width="3" x1="901.0" x2="837.0" y1="1765.0" y2="1765.0" /><line stroke="#333" stroke-width="10" x1="901.0" x2="1477.0" y1="1733.0" y2="1733.0" /><line stroke="#333" stroke-width="10" x1="837.0" x2="837.0" y1="1733.0" y2="1765.0" /><line stroke="#333" stroke-width="10" x1="901.0" x2="901.0" y1="1765.0" y2="1733.0" /><line stroke="#999" stroke-width="3" x1="1093.0" x2="965.0" y1="1925.0" y2="1861.0" /><line stroke="#999" stroke-width="3" x1="1093.0" x2="1093.0" y1="2053.0" y2="1925.0" /><line stroke="#999" stroke-width="3" x1="837.0" x2="965.0" y1="2053.0" y2="2117.0" /><line stroke="#999" stroke-width="3" x1="837.0" x2="837.0" y1="1925.0" y2="2053.0" /><line stroke="#999" stroke-width="3" x1="965.0" x2="1093.0" y1="2117.0" y2="2053.0" /><line stroke="#999" stroke-width="3" x1="965.0" x2="837.0" y1="1861.0" y2="1925.0" /><line stroke="#333" stroke-width="10" x1="1413.0" x2="1413.0" y1="1797.0" y2="2053.0" /><line stroke="#333" stroke-width="10" x1="709.0" x2="581.0" y1="1861.0" y2="1861.0" /><line stroke="#333" stroke-width="10" x1="581.0" x2="581.0" y1="1861.0" y2="2117.0" /><line stroke="#333" stroke-width="10" x1="581.0" x2="709.0" y1="2117.0" y2="2117.0" /><line stroke="#333" stroke-width="10" x1="709.0" x2="709.0" y1="2117.0" y2="2181.0" /><line stroke="#999" stroke-width="3" x1="645.0" x2="677.0" y1="1941.0" y2="1941.0" /><line stroke="#999" stroke-width="3" x1="741.0" x2="741.0" y1="1941.0" y2="1957.0" /><line stroke="#999" stroke-width="3" x1="741.0" x2="677.0" y1="2037.0" y2="2037.0" /><line stroke="#999" stroke-width="3" x1="645.0" x2="645.0" y1="2037.0" y2="1941.0" /><line stroke="#999" stroke-width="3" x1="677.0" x2="741.0" y1="1941.0" y2="1941.0" /><line stroke="#999" stroke-width="3" x1="677.0" x2="645.0" y1="2037.0" y2="2037.0" /><line stroke="#999" stroke-width="3" x1="677.0" x2="677.0" y1="1941.0" y2="1957.0" /><line stroke="#999" stroke-width="3" x1="677.0" x2="677.0" y1="1957.0" y2="2021.0" /><line stroke="#666" stroke-width="20" x1="741.0" x2="741.0" y1="1957.0" y2="2021.0" /><line stroke="#999" stroke-width="3" x1="741.0" x2="677.0" y1="1957.0" y2="1957.0" /><line stroke="#999" stroke-width="3" x1="741.0" x2="741.0" y1="2021.0" y2="2037.0" /><line stroke="#999" stroke-width="3" x1="677.0" x2="677.0" y1="2021.0" y2="2037.0" /><line stroke="#999" stroke-width="3" x1="677.0" x2="741.0" y1="2021.0" y2="2021.0" /><line stroke="#333" stroke-width="10" x1="1029.0" x2="1221.0" y1="2181.0" y2="2181.0" /><line stroke="#999" stroke-width="3" x1="901.0" x2="1029.0" y1="2181.0" y2="2181.0" /><line stroke="#333" stroke-width="10" x1="1029.0" x2="1029.0" y1="2213.0" y2="2181.0" /><line stroke="#333" stroke-width="10" x1="1029.0" x2="1029.0" y1="2309.0" y2="2213.0" /><line stroke="#333" stroke-width="10" x1="901.0" x2="1029.0" y1="2309.0" y2="2309.0" /><line stroke="#333" stroke-width="10" x1="901.0" x2="901.0" y1="2213.0" y2="2309.0" /><line stroke="#333" stroke-width="10" x1="901.0" x2="901.0" y1="2181.0" y2="2213.0" /><line stroke="#999" stroke-width="3" x1="1029.0" x2="901.0" y1="2213.0" y2="2213.0" /><line stroke="#999" stroke-width="3" x1="2853.0" x2="3173.0" y1="2245.0" y2="2245.0" /><line stroke="#333" stroke-width="10" x1="3173.0" x2="3397.0" y1="2245.0" y2="2245.0" /><line stroke="#333" stroke-width="10" x1="3109.0" x2="3173.0" y1="2373.0" y2="2245.0" /><line stroke="#333" stroke-width="10" x1="2917.0" x2="2965.0" y1="2373.0" y2="2373.0" /><line stroke="#333" stroke-width="10" x1="2853.0" x2="2917.0" y1="2245.0" y2="2373.0" /><line stroke="#999" stroke-width="3" x1="2965.0" x2="2997.0" y1="2373.0" y2="2373.0" /><line stroke="#333" stroke-width="10" x1="3061.0" x2="3109.0" y1="2373.0" y2="2373.0" /><line stroke="#333" stroke-width="10" x1="3061.0" x2="3061.0" y1="2389.0" y2="2373.0" /><line stroke="#333" stroke-width="10" x1="2965.0" x2="2997.0" y1="2389.0" y2="2389.0" /><line stroke="#333" stroke-width="10" x1="2965.0" x2="2965.0" y1="2373.0" y2="2389.0" /><line stroke="#999" stroke-width="3" x1="3029.0" x2="3061.0" y1="2373.0" y2="2373.0" /><line stroke="#333" stroke-width="10" x1="3029.0" x2="3061.0" y1="2389.0" y2="2389.0" /><line stroke="#999" stroke-width="3" x1="3029.0" x2="3029.0" y1="2389.0" y2="2373.0" /><line stroke="#333" stroke-width="10" x1="2997.0" x2="3029.0" y1="2389.0" y2="2389.0" /><line stroke="#999" stroke-width="3" x1="2997.0" x2="3029.0" y1="2373.0" y2="2373.0" /><line stroke="#999" stroke-width="3" x1="2997.0" x2="2997.0" y1="2373.0" y2="2389.0" /><line stroke="#333" stroke-width="10" x1="1349.0" x2="1349.0" y1="901.0" y2="837.0" /><line stroke="#999" stroke-width="3" x1="1989.0" x2="1989.0" y1="901.0" y2="1221.0" /><line stroke="#333" stroke-width="10" x1="1989.0" x2="1925.0" y1="901.0" y2="901.0" /><line stroke="#333" stroke-width="10" x1="1413.0" x2="1349.0" y1="901.0" y2="901.0" /><line stroke="#999" stroke-width="3" x1="1413.0" x2="1925.0" y1="837.0" y2="837.0" /><line stroke="#333" stroke-width="10" x1="1413.0" x2="1413.0" y1="837.0" y2="853.0" /><line stroke="#333" stroke-width="10" x1="1925.0" x2="1989.0" y1="837.0" y2="837.0" /><line stroke="#999" stroke-width="3" x1="1925.0" x2="1413.0" y1="901.0" y2="901.0" /><line stroke="#333" stroke-width="10" x1="1925.0" x2="1925.0" y1="901.0" y2="869.0" /><line stroke="#333" stroke-width="10" x1="1413.0" x2="1413.0" y1="869.0" y2="901.0" /><line stroke="#333" stroke-width="10" x1="1925.0" x2="1413.0" y1="869.0" y2="869.0" /><line stroke="#333" stroke-width="10" x1="1925.0" x2="1925.0" y1="853.0" y2="837.0" /><line stroke="#333" stroke-width="10" x1="1413.0" x2="1925.0" y1="853.0" y2="853.0" /><line stroke="#333" stroke-width="10" x1="709.0" x2="453.0" y1="581.0" y2="581.0" /><line stroke="#999" stroke-width="3" x1="709.0" x2="517.0" y1="645.0" y2="645.0" /><line stroke="#999" stroke-width="3" x1="2309.0" x2="2309.0" y1="1541.0" y2="645.0" /><line stroke="#333" stroke-width="10" x1="2373.0" x2="2373.0" y1="1541.0" y2="581.0" /><line stroke="#999" stroke-width="3" x1="2309.0" x2="2373.0" y1="1541.0" y2="1541.0" /><line stroke="#999" stroke-width="3" x1="709.0" x2="2309.0" y1="1541.0" y2="1541.0" /><line stroke="#999" stroke-width="3" x1="709.0" x2="709.0" y1="645.0" y2="1541.0" /><line stroke="#999" stroke-width="3" x1="709.0" x2="709.0" y1="581.0" y2="645.0" /><line stroke="#999" stroke-width="3" x1="741.0" x2="965.0" y1="1381.0" y2="1221.0" /><line stroke="#999" stroke-width="3" x1="965.0" x2="997.0" y1="1221.0" y2="1221.0" /><line stroke="#999" stroke-width="3" x1="997.0" x2="997.0" y1="1221.0" y2="1253.0" /><line stroke="#999" stroke-width="3" x1="997.0" x2="773.0" y1="1253.0" y2="1381.0" /><line stroke="#999" stroke-width="3" x1="1349.0" x2="1349.0" y1="933.0" y2="901.0" /><line stroke="#999" stroke-width="3" x1="2053.0" x2="1989.0" y1="1189.0" y2="1221.0" /><line stroke="#999" stroke-width="3" x1="2053.0" x2="2053.0" y1="869.0" y2="1189.0" /><line stroke="#999" stroke-width="3" x1="2181.0" x2="2053.0" y1="773.0" y2="869.0" /><line stroke="#999" stroke-width="3" x1="2181.0" x2="2181.0" y1="709.0" y2="773.0" /><line stroke="#999" stroke-width="3" x1="1541.0" x2="2181.0" y1="709.0" y2="709.0" /><line stroke="#999" stroke-width="3" x1="1349.0" x2="1541.0" y1="837.0" y2="709.0" /><line stroke="#999" stroke-width="3" x1="1285.0" x2="1349.0" y1="933.0" y2="933.0" /><line stroke="#999" stroke-width="3" x1="1221.0" x2="1285.0" y1="965.0" y2="933.0" /><line stroke="#333" stroke-width="10" x1="1989.0" x2="1989.0" y1="485.0" y2="389.0" /><line stroke="#999" stroke-width="3" x1="1861.0" x2="1989.0" y1="581.0" y2="485.0" /><line stroke="#999" stroke-width="3" x1="1413.0" x2="1413.0" y1="2053.0" y2="2117.0" /><line stroke="#333" stroke-width="10" x1="2309.0" x2="2373.0" y1="2117.0" y2="2117.0" /><line stroke="#999" stroke-width="3" x1="2309.0" x2="2309.0" y1="2117.0" y2="1989.0" /><line stroke="#999" stroke-width="3" x1="1573.0" x2="2053.0" y1="741.0" y2="741.0" /><line stroke="#999" stroke-width="3" x1="2053.0" x2="1957.0" y1="741.0" y2="805.0" /><line stroke="#999" stroke-width="3" x1="1957.0" x2="1477.0" y1="805.0" y2="805.0" /><line stroke="#999" stroke-width="3" x1="1477.0" x2="1573.0" y1="805.0" y2="741.0" /><ellipse cx="325.0" cy="901.0" fill="#009" rx="12" ry="24" stroke="#009" stroke-width="5" /><ellipse cx="325.0" cy="965.0" fill="#009" rx="12" ry="24" stroke="#009" stroke-width="5" /><ellipse cx="261.0" cy="901.0" fill="#009" rx="12" ry="24" stroke="#009" stroke-width="5" /><ellipse cx="261.0" cy="965.0" fill="#009" rx="12" ry="24" stroke="#009" stroke-width="5" /><rect fill="#090" height="24" stroke="#090" stroke-width="5" transform="rotate(0,581.0,709.0)" width="24" x="569.0" y="697.0" /><rect fill="#090" height="24" stroke="#090" stroke-width="5" transform="rotate(180,2245.0,709.0)" width="24" x="2233.0" y="697.0" /><rect fill="#090" height="24" stroke="#090" stroke-width="5" transform="rotate(180,2245.0,1605.0)" width="24" x="2233.0" y="1593.0" /><rect fill="#090" height="24" stroke="#090" stroke-width="5" transform="rotate(0,581.0,1605.0)" width="24" x="569.0" y="1593.0" /><rect fill="#900" height="48" stroke="#900" stroke-width="5" transform="rotate(180,1733.0,1157.0)" width="32" x="1717.0" y="1133.0" /><rect fill="#009" height="24" stroke="#009" stroke-width="5" transform="rotate(180,1829.0,997.0)" width="24" x="1817.0" y="985.0" /><rect fill="#090" height="24" stroke="#090" stroke-width="5" transform="rotate(0,21.0,1237.0)" width="24" x="9.0" y="1225.0" /><rect fill="#090" height="24" stroke="#090" stroke-width="5" transform="rotate(0,21.0,1525.0)" width="24" x="9.0" y="1513.0" /><circle cx="197.0" cy="869.0" fill="#009" r="16" stroke="#009" stroke-width="5" /><circle cx="197.0" cy="997.0" fill="#009" r="16" stroke="#009" stroke-width="5" /><circle cx="197.0" cy="1125.0" fill="#090" r="16" stroke="#090" stroke-width="5" /><circle cx="389.0" cy="1125.0" fill="#900" r="16" stroke="#900" stroke-width="5" /><rect fill="#090" height="24" stroke="#090" stroke-width="5" transform="rotate(0,197.0,1317.0)" width="24" x="185.0" y="1305.0" /><rect fill="#090" height="24" stroke="#090" stroke-width="5" transform="rotate(0,389.0,1317.0)" width="24" x="377.0" y="1305.0" /><circle cx="2565.0" cy="2181.0" fill="#900" r="16" stroke="#900" stroke-width="5" /><circle cx="2629.0" cy="2181.0" fill="#090" r="16" stroke="#090" stroke-width="5" /><circle cx="2693.0" cy="2181.0" fill="#090" r="16" stroke="#090" stroke-width="5" /><circle cx="2885.0" cy="2181.0" fill="#090" r="16" stroke="#090" stroke-width="5" /><circle cx="2821.0" cy="2181.0" fill="#090" r="16" stroke="#090" stroke-width="5" /><circle cx="3461.0" cy="2053.0" fill="#009" r="16" stroke="#009" stroke-width="5" /><circle cx="2309.0" cy="2053.0" fill="#090" r="16" stroke="#090" stroke-width="5" /><circle cx="2245.0" cy="2053.0" fill="#090" r="16" stroke="#090" stroke-width="5" /><circle cx="2181.0" cy="2053.0" fill="#090" r="16" stroke="#090" stroke-width="5" /><circle cx="2117.0" cy="2053.0" fill="#090" r="16" stroke="#090" stroke-width="5" /><circle cx="2565.0" cy="901.0" fill="#090" r="16" stroke="#090" stroke-width="5" /><circle cx="1925.0" cy="2053.0" fill="#009" r="16" stroke="#009" stroke-width="5" /><rect fill="#900" height="48" stroke="#900" stroke-width="5" transform="rotate(90,2853.0,949.0)" width="32" x="2837.0" y="925.0" /><rect fill="#900" height="48" stroke="#900" stroke-width="5" transform="rotate(90,3013.0,837.0)" width="32" x="2997.0" y="813.0" /><rect fill="#900" height="48" stroke="#900" stroke-width="5" transform="rotate(270,2693.0,2053.0)" width="32" x="2677.0" y="2029.0" /><rect fill="#900" height="48" stroke="#900" stroke-width="5" transform="rotate(270,3333.0,2053.0)" width="32" x="3317.0" y="2029.0" /><rect fill="#900" height="48" stroke="#900" stroke-width="5" transform="rotate(270,3269.0,2181.0)" width="32" x="3253.0" y="2157.0" /><rect fill="#900" height="48" stroke="#900" stroke-width="5" transform="rotate(270,2757.0,2181.0)" width="32" x="2741.0" y="2157.0" /><rect fill="#900" height="48" stroke="#900" stroke-width="5" transform="rotate(270,2757.0,1605.0)" width="32" x="2741.0" y="1581.0" /><rect fill="#900" height="48" stroke="#900" stroke-width="5" transform="rotate(270,3269.0,1797.0)" width="32" x="3253.0" y="1773.0" /><rect fill="#900" height="48" stroke="#900" stroke-width="5" transform="rotate(270,3013.0,2181.0)" width="32" x="2997.0" y="2157.0" /><rect fill="#900" height="48" stroke="#900" stroke-width="5" transform="rotate(90,3173.0,901.0)" width="32" x="3157.0" y="877.0" /><rect fill="#900" height="48" stroke="#900" stroke-width="5" transform="rotate(0,1093.0,1541.0)" width="32" x="1077.0" y="1517.0" /><rect fill="#900" height="48" stroke="#900" stroke-width="5" transform="rotate(0,1093.0,1285.0)" width="32" x="1077.0" y="1261.0" /><rect fill="#900" height="48" stroke="#900" stroke-width="5" transform="rotate(0,1093.0,1029.0)" width="32" x="1077.0" y="1005.0" /><rect fill="#900" height="48" stroke="#900" stroke-width="5" transform="rotate(0,1093.0,773.0)" width="32" x="1077.0" y="749.0" /><rect fill="#900" height="48" stroke="#900" stroke-width="5" transform="rotate(180,2117.0,1541.0)" width="32" x="2101.0" y="1517.0" /><rect fill="#900" height="48" stroke="#900" stroke-width="5" transform="rotate(180,2117.0,1285.0)" width="32" x="2101.0" y="1261.0" /><rect fill="#900" height="48" stroke="#900" stroke-width="5" transform="rotate(180,2117.0,773.0)" width="32" x="2101.0" y="749.0" /><rect fill="#900" height="48" stroke="#900" stroke-width="5" transform="rotate(270,1509.0,1125.0)" width="32" x="1493.0" y="1101.0" /><circle cx="2245.0" cy="837.0" fill="#009" r="16" stroke="#009" stroke-width="5" /><circle cx="3333.0" cy="901.0" fill="#009" r="16" stroke="#009" stroke-width="5" /><rect fill="#900" height="48" stroke="#900" stroke-width="5" transform="rotate(180,1797.0,1541.0)" width="32" x="1781.0" y="1517.0" /><rect fill="#900" height="48" stroke="#900" stroke-width="5" transform="rotate(180,2245.0,1285.0)" width="32" x="2229.0" y="1261.0" /><rect fill="#900" height="48" stroke="#900" stroke-width="5" transform="rotate(180,1925.0,773.0)" width="32" x="1909.0" y="749.0" /><rect fill="#900" height="48" stroke="#900" stroke-width="5" transform="rotate(180,1733.0,773.0)" width="32" x="1717.0" y="749.0" /><rect fill="#900" height="48" stroke="#900" stroke-width="5" transform="rotate(0,837.0,1541.0)" width="32" x="821.0" y="1517.0" /><rect fill="#900" height="48" stroke="#900" stroke-width="5" transform="rotate(0,837.0,1285.0)" width="32" x="821.0" y="1261.0" /><rect fill="#900" height="48" stroke="#900" stroke-width="5" transform="rotate(0,837.0,1029.0)" width="32" x="821.0" y="1005.0" /><rect fill="#900" height="48" stroke="#900" stroke-width="5" transform="rotate(0,837.0,773.0)" width="32" x="821.0" y="749.0" /><circle cx="2693.0" cy="901.0" fill="#009" r="16" stroke="#009" stroke-width="5" /><circle cx="1541.0" cy="389.0" fill="#900" r="16" stroke="#900" stroke-width="5" /><circle cx="3461.0" cy="901.0" fill="#090" r="16" stroke="#090" stroke-width="5" /><circle cx="3397.0" cy="901.0" fill="#090" r="16" stroke="#090" stroke-width="5" /><circle cx="2629.0" cy="901.0" fill="#090" r="16" stroke="#090" stroke-width="5" /><circle cx="3013.0" cy="1413.0" fill="#090" r="16" stroke="#090" stroke-width="5" /><circle cx="3077.0" cy="1413.0" fill="#090" r="16" stroke="#090" stroke-width="5" /><circle cx="2949.0" cy="1413.0" fill="#090" r="16" stroke="#090" stroke-width="5" /><circle cx="773.0" cy="389.0" fill="#900" r="16" stroke="#900" stroke-width="5" /><rect fill="#090" height="24" stroke="#090" stroke-width="5" transform="rotate(0,933.0,229.0)" width="24" x="921.0" y="217.0" /><circle cx="3205.0" cy="2181.0" fill="#090" r="16" stroke="#090" stroke-width="5" /><circle cx="3141.0" cy="2181.0" fill="#090" r="16" stroke="#090" stroke-width="5" /><circle cx="3077.0" cy="2181.0" fill="#090" r="16" stroke="#090" stroke-width="5" /><circle cx="2949.0" cy="2181.0" fill="#090" r="16" stroke="#090" stroke-width="5" /><circle cx="2277.0" cy="1893.0" fill="#009" r="16" stroke="#009" stroke-width="5" /><circle cx="1221.0" cy="389.0" fill="#009" r="16" stroke="#009" stroke-width="5" /><rect fill="#900" height="48" stroke="#900" stroke-width="5" transform="rotate(90,1477.0,453.0)" width="32" x="1461.0" y="429.0" /><rect fill="#900" height="48" stroke="#900" stroke-width="5" transform="rotate(90,837.0,453.0)" width="32" x="821.0" y="429.0" /><rect fill="#900" height="48" stroke="#900" stroke-width="5" transform="rotate(90,965.0,453.0)" width="32" x="949.0" y="429.0" /><rect fill="#900" height="48" stroke="#900" stroke-width="5" transform="rotate(90,1349.0,453.0)" width="32" x="1333.0" y="429.0" /><circle cx="741.0" cy="517.0" fill="#090" r="16" stroke="#090" stroke-width="5" /><circle cx="1573.0" cy="69.0" fill="#090" r="16" stroke="#090" stroke-width="5" /><circle cx="37.0" cy="1413.0" fill="#009" r="16" stroke="#009" stroke-width="5" /><circle cx="37.0" cy="1317.0" fill="#009" r="16" stroke="#009" stroke-width="5" /><circle cx="101.0" cy="1253.0" fill="#009" r="16" stroke="#009" stroke-width="5" /><circle cx="101.0" cy="1509.0" fill="#009" r="16" stroke="#009" stroke-width="5" /><circle cx="1445.0" cy="69.0" fill="#009" r="16" stroke="#009" stroke-width="5" /><circle cx="1349.0" cy="165.0" fill="#009" r="16" stroke="#009" stroke-width="5" /><circle cx="1317.0" cy="261.0" fill="#009" r="16" stroke="#009" stroke-width="5" /><circle cx="1861.0" cy="261.0" fill="#009" r="16" stroke="#009" stroke-width="5" /><rect fill="#090" height="24" stroke="#090" stroke-width="5" transform="rotate(0,1061.0,517.0)" width="24" x="1049.0" y="505.0" /><rect fill="#090" height="24" stroke="#090" stroke-width="5" transform="rotate(0,1061.0,357.0)" width="24" x="1049.0" y="345.0" /><rect fill="#900" height="48" stroke="#900" stroke-width="5" transform="rotate(0,645.0,1029.0)" width="32" x="629.0" y="1005.0" /><rect fill="#900" height="48" stroke="#900" stroke-width="5" transform="rotate(270,3013.0,2053.0)" width="32" x="2997.0" y="2029.0" /><circle cx="1477.0" cy="2117.0" fill="#900" r="16" stroke="#900" stroke-width="5" /><circle cx="1605.0" cy="2117.0" fill="#090" r="16" stroke="#090" stroke-width="5" /><circle cx="1445.0" cy="1797.0" fill="#009" r="16" stroke="#009" stroke-width="5" /><circle cx="965.0" cy="1925.0" fill="#009" r="16" stroke="#009" stroke-width="5" /><circle cx="1029.0" cy="1925.0" fill="#009" r="16" stroke="#009" stroke-width="5" /><circle cx="1029.0" cy="1989.0" fill="#009" r="16" stroke="#009" stroke-width="5" /><circle cx="965.0" cy="1989.0" fill="#009" r="16" stroke="#009" stroke-width="5" /><circle cx="901.0" cy="1989.0" fill="#009" r="16" stroke="#009" stroke-width="5" /><circle cx="901.0" cy="1925.0" fill="#009" r="16" stroke="#009" stroke-width="5" /><circle cx="901.0" cy="2053.0" fill="#009" r="16" stroke="#009" stroke-width="5" /><circle cx="965.0" cy="2053.0" fill="#009" r="16" stroke="#009" stroke-width="5" /><circle cx="1029.0" cy="2053.0" fill="#009" r="16" stroke="#009" stroke-width="5" /><rect fill="#900" height="48" stroke="#900" stroke-width="5" transform="rotate(270,1541.0,1861.0)" width="32" x="1525.0" y="1837.0" /><rect fill="#900" height="48" stroke="#900" stroke-width="5" transform="rotate(270,1541.0,1989.0)" width="32" x="1525.0" y="1965.0" /><rect fill="#900" height="48" stroke="#900" stroke-width="5" transform="rotate(270,1157.0,1861.0)" width="32" x="1141.0" y="1837.0" /><rect fill="#900" height="48" stroke="#900" stroke-width="5" transform="rotate(270,837.0,1861.0)" width="32" x="821.0" y="1837.0" /><rect fill="#090" height="24" stroke="#090" stroke-width="5" transform="rotate(0,773.0,2117.0)" width="24" x="761.0" y="2105.0" /><rect fill="#090" height="24" stroke="#090" stroke-width="5" transform="rotate(0,773.0,1861.0)" width="24" x="761.0" y="1849.0" /><rect fill="#090" height="24" stroke="#090" stroke-width="5" transform="rotate(0,1093.0,2117.0)" width="24" x="1081.0" y="2105.0" /><circle cx="613.0" cy="2021.0" fill="#900" r="16" stroke="#900" stroke-width="5" /><circle cx="613.0" cy="1957.0" fill="#090" r="16" stroke="#090" stroke-width="5" /><rect fill="#090" height="24" stroke="#090" stroke-width="5" transform="rotate(0,1093.0,1861.0)" width="24" x="1081.0" y="1849.0" /><circle cx="965.0" cy="2277.0" fill="#009" r="16" stroke="#009" stroke-width="5" /></svg>