<?xml version="1.0" encoding="utf-8" ?>
<svg baseProfile="tiny" height="1024" version="1.2" viewBox="0 0 1546 2058" width="769" xmlns="http://www.w3.org/2000/svg" xmlns:ev="http://www.w3.org/2001/xml-events" xmlns:xlink="http://www.w3.org/1999/xlink"><defs /><line stroke="#333" stroke-width="10" x1="5.0" x2="1541.0" y1="2053.0" y2="2053.0" /><line stroke="#333" stroke-width="10" x1="1541.0" x2="1541.0" y1="2053.0" y2="389.0" /><line stroke="#333" stroke-width="10" x1="1541.0" x2="773.0" y1="389.0" y2="389.0" /><line stroke="#333" stroke-width="10" x1="5.0" x2="5.0" y1="389.0" y2="2053.0" /><line stroke="#333" stroke-width="10" x1="773.0" x2="645.0" y1="389.0" y2="5.0" /><line stroke="#333" stroke-width="10" x1="389.0" x2="5.0" y1="389.0" y2="389.0" /><line stroke="#333" stroke-width="10" x1="645.0" x2="517.0" y1="5.0" y2="5.0" /><line stroke="#333" stroke-width="10" x1="517.0" x2="389.0" y1="5.0" y2="389.0" /><line stroke="#999" stroke-width="3" x1="517.0" x2="709.0" y1="901.0" y2="901.0" /><line stroke="#999" stroke-width="3" x1="1093.0" x2="1093.0" y1="1029.0" y2="1349.0" /><line stroke="#999" stroke-width="3" x1="1029.0" x2="581.0" y1="1797.0" y2="1797.0" /><line stroke="#999" stroke-width="3" x1="325.0" x2="325.0" y1="1669.0" y2="1349.0" /><line stroke="#999" stroke-width="3" x1="325.0" x2="517.0" y1="1349.0" y2="901.0" /><line stroke="#999" stroke-width="3" x1="709.0" x2="1093.0" y1="901.0" y2="1029.0" /><line stroke="#999" stroke-width="3" x1="1093.0" x2="1029.0" y1="1349.0" y2="1797.0" /><line stroke="#0d0" stroke-width="20" x1="325.0" x2="581.0" y1="1669.0" y2="1797.0" /><ellipse cx="581.0" cy="133.0" fill="#009" rx="12" ry="24" stroke="#009" stroke-width="5" /><rect fill="#900" height="48" stroke="#900" stroke-width="5" transform="rotate(90,645.0,1605.0)" width="32" x="629.0" y="1581.0" /><rect fill="#900" height="48" stroke="#900" stroke-width="5" transform="rotate(90,773.0,1605.0)" width="32" x="757.0" y="1581.0" /><rect fill="#900" height="48" stroke="#900" stroke-width="5" transform="rotate(90,453.0,1541.0)" width="32" x="437.0" y="1517.0" /><rect fill="#900" height="48" stroke="#900" stroke-width="5" transform="rotate(90,965.0,1541.0)" width="32" x="949.0" y="1517.0" /><ellipse cx="581.0" cy="1413.0" fill="#900" rx="12" ry="24" stroke="#900" stroke-width="5" /><ellipse cx="645.0" cy="1477.0" fill="#900" rx="12" ry="24" stroke="#900" stroke-width="5" /><ellipse cx="645.0" cy="1413.0" fill="#900" rx="12" ry="24" stroke="#900" stroke-width="5" /><ellipse cx="581.0" cy="1477.0" fill="#900" rx="12" ry="24" stroke="#900" stroke-width="5" /><ellipse cx="709.0" cy="1477.0" fill="#900" rx="12" ry="24" stroke="#900" stroke-width="5" /><ellipse cx="709.0" cy="1413.0" fill="#900" rx="12" ry="24" stroke="#900" stroke-width="5" /><ellipse cx="773.0" cy="1413.0" fill="#900" rx="12" ry="24" stroke="#900" stroke-width="5" /><ellipse cx="773.0" cy="1477.0" fill="#900" rx="12" ry="24" stroke="#900" stroke-width="5" /><ellipse cx="837.0" cy="1477.0" fill="#900" rx="12" ry="24" stroke="#900" stroke-width="5" /><ellipse cx="837.0" cy="1413.0" fill="#900" rx="12" ry="24" stroke="#900" stroke-width="5" /><ellipse cx="837.0" cy="1541.0" fill="#900" rx="12" ry="24" stroke="#900" stroke-width="5" /><ellipse cx="773.0" cy="1541.0" fill="#900" rx="12" ry="24" stroke="#900" stroke-width="5" /><ellipse cx="709.0" cy="1541.0" fill="#900" rx="12" ry="24" stroke="#900" stroke-width="5" /><ellipse cx="645.0" cy="1541.0" fill="#900" rx="12" ry="24" stroke="#900" stroke-width="5" /><ellipse cx="581.0" cy="1541.0" fill="#900" rx="12" ry="24" stroke="#900" stroke-width="5" /><ellipse cx="517.0" cy="1541.0" fill="#900" rx="12" ry="24" stroke="#900" stroke-width="5" /><ellipse cx="517.0" cy="1477.0" fill="#900" rx="12" ry="24" stroke="#900" stroke-width="5" /><ellipse cx="517.0" cy="1413.0" fill="#900" rx="12" ry="24" stroke="#900" stroke-width="5" /><ellipse cx="453.0" cy="1413.0" fill="#900" rx="12" ry="24" stroke="#900" stroke-width="5" /><ellipse cx="453.0" cy="1477.0" fill="#900" rx="12" ry="24" stroke="#900" stroke-width="5" /><ellipse cx="389.0" cy="1477.0" fill="#900" rx="12" ry="24" stroke="#900" stroke-width="5" /><ellipse cx="389.0" cy="1413.0" fill="#900" rx="12" ry="24" stroke="#900" stroke-width="5" /><ellipse cx="389.0" cy="1541.0" fill="#900" rx="12" ry="24" stroke="#900" stroke-width="5" /><ellipse cx="389.0" cy="1605.0" fill="#900" rx="12" ry="24" stroke="#900" stroke-width="5" /><ellipse cx="453.0" cy="1605.0" fill="#900" rx="12" ry="24" stroke="#900" stroke-width="5" /><ellipse cx="517.0" cy="1605.0" fill="#900" rx="12" ry="24" stroke="#900" stroke-width="5" /><ellipse cx="581.0" cy="1605.0" fill="#900" rx="12" ry="24" stroke="#900" stroke-width="5" /><ellipse cx="901.0" cy="1541.0" fill="#900" rx="12" ry="24" stroke="#900" stroke-width="5" /><ellipse cx="901.0" cy="1477.0" fill="#900" rx="12" ry="24" stroke="#900" stroke-width="5" /><ellipse cx="901.0" cy="1413.0" fill="#900" rx="12" ry="24" stroke="#900" stroke-width="5" /><ellipse cx="965.0" cy="1413.0" fill="#900" rx="12" ry="24" stroke="#900" stroke-width="5" /><ellipse cx="1029.0" cy="1413.0" fill="#900" rx="12" ry="24" stroke="#900" stroke-width="5" /><ellipse cx="1029.0" cy="1477.0" fill="#900" rx="12" ry="24" stroke="#900" stroke-width="5" /><ellipse cx="965.0" cy="1477.0" fill="#900" rx="12" ry="24" stroke="#900" stroke-width="5" /><ellipse cx="1029.0" cy="1541.0" fill="#900" rx="12" ry="24" stroke="#900" stroke-width="5" /><ellipse cx="1029.0" cy="1605.0" fill="#900" rx="12" ry="24" stroke="#900" stroke-width="5" /><ellipse cx="965.0" cy="1605.0" fill="#900" rx="12" ry="24" stroke="#900" stroke-width="5" /><ellipse cx="901.0" cy="1605.0" fill="#900" rx="12" ry="24" stroke="#900" stroke-width="5" /><ellipse cx="837.0" cy="1605.0" fill="#900" rx="12" ry="24" stroke="#900" stroke-width="5" /><ellipse cx="709.0" cy="1605.0" fill="#900" rx="12" ry="24" stroke="#900" stroke-width="5" /><ellipse cx="389.0" cy="1669.0" fill="#900" rx="12" ry="24" stroke="#900" stroke-width="5" /><ellipse cx="453.0" cy="1669.0" fill="#900" rx="12" ry="24" stroke="#900" stroke-width="5" /><ellipse cx="517.0" cy="1669.0" fill="#900" rx="12" ry="24" stroke="#900" stroke-width="5" /><ellipse cx="581.0" cy="1669.0" fill="#900" rx="12" ry="24" stroke="#900" stroke-width="5" /><ellipse cx="645.0" cy="1669.0" fill="#900" rx="12" ry="24" stroke="#900" stroke-width="5" /><ellipse cx="709.0" cy="1669.0" fill="#900" rx="12" ry="24" stroke="#900" stroke-width="5" /><ellipse cx="773.0" cy="1669.0" fill="#900" rx="12" ry="24" stroke="#900" stroke-width="5" /><ellipse cx="837.0" cy="1669.0" fill="#900" rx="12" ry="24" stroke="#900" stroke-width="5" /><ellipse cx="901.0" cy="1669.0" fill="#900" rx="12" ry="24" stroke="#900" stroke-width="5" /><ellipse cx="965.0" cy="1669.0" fill="#900" rx="12" ry="24" stroke="#900" stroke-width="5" /><ellipse cx="1029.0" cy="1669.0" fill="#900" rx="12" ry="24" stroke="#900" stroke-width="5" /><circle cx="581.0" cy="453.0" fill="#900" r="16" stroke="#900" stroke-width="5" /><circle cx="581.0" cy="453.0" fill="#900" r="16" stroke="#900" stroke-width="5" /><circle cx="581.0" cy="453.0" fill="#900" r="16" stroke="#900" stroke-width="5" /><circle cx="581.0" cy="453.0" fill="#900" r="16" stroke="#900" stroke-width="5" /><rect fill="#900" height="48" stroke="#900" stroke-width="5" transform="rotate(90,469.0,1541.0)" width="32" x="453.0" y="1517.0" /></svg>