<?xml version="1.0" encoding="utf-8" ?>
<svg baseProfile="tiny" height="1024" version="1.2" viewBox="0 0 8714 8714" width="1024" xmlns="http://www.w3.org/2000/svg" xmlns:ev="http://www.w3.org/2001/xml-events" xmlns:xlink="http://www.w3.org/1999/xlink"><defs /><line stroke="#999" stroke-width="3" x1="3845.0" x2="3845.0" y1="3845.0" y2="4293.0" /><line stroke="#999" stroke-width="3" x1="3845.0" x2="3845.0" y1="4421.0" y2="4293.0" /><line stroke="#999" stroke-width="3" x1="3845.0" x2="3845.0" y1="4421.0" y2="4869.0" /><line stroke="#999" stroke-width="3" x1="3845.0" x2="4293.0" y1="4869.0" y2="4869.0" /><line stroke="#999" stroke-width="3" x1="4421.0" x2="4293.0" y1="4869.0" y2="4869.0" /><line stroke="#999" stroke-width="3" x1="4421.0" x2="4869.0" y1="4869.0" y2="4869.0" /><line stroke="#999" stroke-width="3" x1="4869.0" x2="4869.0" y1="4869.0" y2="4421.0" /><line stroke="#999" stroke-width="3" x1="4869.0" x2="4869.0" y1="4293.0" y2="4421.0" /><line stroke="#999" stroke-width="3" x1="4869.0" x2="4869.0" y1="4293.0" y2="3845.0" /><line stroke="#999" stroke-width="3" x1="4869.0" x2="4421.0" y1="3845.0" y2="3845.0" /><line stroke="#999" stroke-width="3" x1="4293.0" x2="4421.0" y1="3845.0" y2="3845.0" /><line stroke="#999" stroke-width="3" x1="4293.0" x2="3845.0" y1="3845.0" y2="3845.0" /><line stroke="#999" stroke-width="3" x1="3973.0" x2="3845.0" y1="4293.0" y2="4293.0" /><line stroke="#999" stroke-width="3" x1="3845.0" x2="3973.0" y1="4421.0" y2="4421.0" /><line stroke="#999" stroke-width="3" x1="4741.0" x2="4869.0" y1="4421.0" y2="4421.0" /><line stroke="#999" stroke-width="3" x1="4869.0" x2="4741.0" y1="4293.0" y2="4293.0" /><line stroke="#999" stroke-width="3" x1="4293.0" x2="4293.0" y1="3845.0" y2="3973.0" /><line stroke="#999" stroke-width="3" x1="4421.0" x2="4421.0" y1="3973.0" y2="3845.0" /><line stroke="#999" stroke-width="3" x1="4293.0" x2="4293.0" y1="4741.0" y2="4869.0" /><line stroke="#999" stroke-width="3" x1="4421.0" x2="4421.0" y1="4869.0" y2="4741.0" /><line stroke="#999" stroke-width="3" x1="3973.0" x2="3973.0" y1="4421.0" y2="4293.0" /><line stroke="#999" stroke-width="3" x1="4421.0" x2="4293.0" y1="4741.0" y2="4741.0" /><line stroke="#999" stroke-width="3" x1="4741.0" x2="4741.0" y1="4293.0" y2="4421.0" /><line stroke="#999" stroke-width="3" x1="4293.0" x2="4421.0" y1="3973.0" y2="3973.0" /><line stroke="#999" stroke-width="3" x1="261.0" x2="4229.0" y1="8453.0" y2="8453.0" /><line stroke="#999" stroke-width="3" x1="4229.0" x2="4485.0" y1="8453.0" y2="8453.0" /><line stroke="#999" stroke-width="3" x1="4485.0" x2="8453.0" y1="8453.0" y2="8453.0" /><line stroke="#999" stroke-width="3" x1="8453.0" x2="8453.0" y1="8453.0" y2="4485.0" /><line stroke="#999" stroke-width="3" x1="8453.0" x2="8453.0" y1="4485.0" y2="4229.0" /><line stroke="#999" stroke-width="3" x1="8453.0" x2="8453.0" y1="4229.0" y2="261.0" /><line stroke="#999" stroke-width="3" x1="8453.0" x2="4485.0" y1="261.0" y2="261.0" /><line stroke="#999" stroke-width="3" x1="4485.0" x2="4229.0" y1="261.0" y2="261.0" /><line stroke="#999" stroke-width="3" x1="4229.0" x2="261.0" y1="261.0" y2="261.0" /><line stroke="#999" stroke-width="3" x1="261.0" x2="261.0" y1="261.0" y2="4229.0" /><line stroke="#999" stroke-width="3" x1="261.0" x2="261.0" y1="4229.0" y2="4485.0" /><line stroke="#999" stroke-width="3" x1="261.0" x2="261.0" y1="4485.0" y2="8453.0" /><line stroke="#333" stroke-width="10" x1="5.0" x2="4229.0" y1="8709.0" y2="8709.0" /><line stroke="#333" stroke-width="10" x1="4229.0" x2="4485.0" y1="8709.0" y2="8709.0" /><line stroke="#333" stroke-width="10" x1="8709.0" x2="8709.0" y1="4485.0" y2="4229.0" /><line stroke="#333" stroke-width="10" x1="8709.0" x2="8709.0" y1="4229.0" y2="5.0" /><line stroke="#333" stroke-width="10" x1="8709.0" x2="4485.0" y1="5.0" y2="5.0" /><line stroke="#333" stroke-width="10" x1="4485.0" x2="4229.0" y1="5.0" y2="5.0" /><line stroke="#333" stroke-width="10" x1="4229.0" x2="5.0" y1="5.0" y2="5.0" /><line stroke="#333" stroke-width="10" x1="5.0" x2="5.0" y1="5.0" y2="4229.0" /><line stroke="#333" stroke-width="10" x1="5.0" x2="5.0" y1="4229.0" y2="4485.0" /><line stroke="#333" stroke-width="10" x1="5.0" x2="5.0" y1="4485.0" y2="8709.0" /><line stroke="#333" stroke-width="10" x1="4485.0" x2="8709.0" y1="8709.0" y2="8709.0" /><line stroke="#333" stroke-width="10" x1="8709.0" x2="8709.0" y1="8709.0" y2="4485.0" /><line stroke="#999" stroke-width="3" x1="261.0" x2="5.0" y1="4485.0" y2="4485.0" /><line stroke="#999" stroke-width="3" x1="5.0" x2="261.0" y1="4229.0" y2="4229.0" /><line stroke="#999" stroke-width="3" x1="8709.0" x2="8453.0" y1="4485.0" y2="4485.0" /><line stroke="#999" stroke-width="3" x1="8453.0" x2="8709.0" y1="4229.0" y2="4229.0" /><line stroke="#999" stroke-width="3" x1="4229.0" x2="4229.0" y1="8709.0" y2="8453.0" /><line stroke="#999" stroke-width="3" x1="4485.0" x2="4485.0" y1="8453.0" y2="8709.0" /><line stroke="#999" stroke-width="3" x1="4229.0" x2="4229.0" y1="261.0" y2="5.0" /><line stroke="#999" stroke-width="3" x1="4485.0" x2="4485.0" y1="5.0" y2="261.0" /><line stroke="#999" stroke-width="3" x1="4421.0" x2="4421.0" y1="4421.0" y2="4357.0" /><line stroke="#999" stroke-width="3" x1="4421.0" x2="4357.0" y1="4293.0" y2="4293.0" /><line stroke="#999" stroke-width="3" x1="4277.0" x2="4277.0" y1="4437.0" y2="4277.0" /><line stroke="#999" stroke-width="3" x1="4437.0" x2="4277.0" y1="4437.0" y2="4437.0" /><line stroke="#999" stroke-width="3" x1="4437.0" x2="4437.0" y1="4277.0" y2="4437.0" /><line stroke="#999" stroke-width="3" x1="4277.0" x2="4437.0" y1="4277.0" y2="4277.0" /><line stroke="#999" stroke-width="3" x1="4341.0" x2="4341.0" y1="4373.0" y2="4341.0" /><line stroke="#999" stroke-width="3" x1="4373.0" x2="4341.0" y1="4373.0" y2="4373.0" /><line stroke="#999" stroke-width="3" x1="4341.0" x2="4373.0" y1="4341.0" y2="4341.0" /><line stroke="#00d" stroke-width="20" x1="4261.0" x2="4261.0" y1="4453.0" y2="4261.0" /><line stroke="#00d" stroke-width="20" x1="4453.0" x2="4261.0" y1="4453.0" y2="4453.0" /><line stroke="#00d" stroke-width="20" x1="4453.0" x2="4453.0" y1="4261.0" y2="4453.0" /><line stroke="#00d" stroke-width="20" x1="4261.0" x2="4453.0" y1="4261.0" y2="4261.0" /><line stroke="#999" stroke-width="3" x1="4293.0" x2="4357.0" y1="4421.0" y2="4421.0" /><line stroke="#999" stroke-width="3" x1="4293.0" x2="4293.0" y1="4357.0" y2="4421.0" /><line stroke="#999" stroke-width="3" x1="4357.0" x2="4421.0" y1="4421.0" y2="4421.0" /><line stroke="#999" stroke-width="3" x1="4421.0" x2="4421.0" y1="4357.0" y2="4293.0" /><line stroke="#999" stroke-width="3" x1="4357.0" x2="4293.0" y1="4293.0" y2="4293.0" /><line stroke="#999" stroke-width="3" x1="4293.0" x2="4293.0" y1="4293.0" y2="4357.0" /><line stroke="#999" stroke-width="3" x1="4373.0" x2="4373.0" y1="4341.0" y2="4373.0" /><line stroke="#00d" stroke-width="20" x1="4349.0" x2="4349.0" y1="4349.0" y2="4365.0" /><line stroke="#00d" stroke-width="20" x1="4349.0" x2="4365.0" y1="4365.0" y2="4365.0" /><line stroke="#00d" stroke-width="20" x1="4365.0" x2="4365.0" y1="4365.0" y2="4349.0" /><line stroke="#00d" stroke-width="20" x1="4365.0" x2="4349.0" y1="4349.0" y2="4349.0" /><ellipse cx="4549.0" cy="4165.0" fill="#009" rx="12" ry="24" stroke="#009" stroke-width="5" /><ellipse cx="4165.0" cy="4165.0" fill="#009" rx="12" ry="24" stroke="#009" stroke-width="5" /><ellipse cx="4549.0" cy="4549.0" fill="#009" rx="12" ry="24" stroke="#009" stroke-width="5" /><ellipse cx="4165.0" cy="4549.0" fill="#009" rx="12" ry="24" stroke="#009" stroke-width="5" /><rect fill="#009" height="24" stroke="#009" stroke-width="5" transform="rotate(0,4317.0,4397.0)" width="24" x="4305.0" y="4385.0" /><rect fill="#009" height="24" stroke="#009" stroke-width="5" transform="rotate(135,4229.0,4485.0)" width="24" x="4217.0" y="4473.0" /><rect fill="#009" height="24" stroke="#009" stroke-width="5" transform="rotate(45,4485.0,4485.0)" width="24" x="4473.0" y="4473.0" /><rect fill="#009" height="24" stroke="#009" stroke-width="5" transform="rotate(315,4485.0,4229.0)" width="24" x="4473.0" y="4217.0" /><rect fill="#009" height="24" stroke="#009" stroke-width="5" transform="rotate(225,4229.0,4229.0)" width="24" x="4217.0" y="4217.0" /><rect fill="#009" height="24" stroke="#009" stroke-width="5" transform="rotate(270,4397.0,4397.0)" width="24" x="4385.0" y="4385.0" /><rect fill="#009" height="24" stroke="#009" stroke-width="5" transform="rotate(180,4397.0,4317.0)" width="24" x="4385.0" y="4305.0" /><rect fill="#009" height="24" stroke="#009" stroke-width="5" transform="rotate(90,4317.0,4317.0)" width="24" x="4305.0" y="4305.0" /><circle cx="4293.0" cy="4485.0" fill="#009" r="16" stroke="#009" stroke-width="5" /><circle cx="4421.0" cy="4485.0" fill="#009" r="16" stroke="#009" stroke-width="5" /><circle cx="4485.0" cy="4421.0" fill="#009" r="16" stroke="#009" stroke-width="5" /><circle cx="4485.0" cy="4293.0" fill="#009" r="16" stroke="#009" stroke-width="5" /><circle cx="4421.0" cy="4229.0" fill="#009" r="16" stroke="#009" stroke-width="5" /><circle cx="4293.0" cy="4229.0" fill="#009" r="16" stroke="#009" stroke-width="5" /><circle cx="4229.0" cy="4293.0" fill="#009" r="16" stroke="#009" stroke-width="5" /><circle cx="4229.0" cy="4421.0" fill="#009" r="16" stroke="#009" stroke-width="5" /><circle cx="4165.0" cy="4485.0" fill="#009" r="16" stroke="#009" stroke-width="5" /><circle cx="4165.0" cy="4421.0" fill="#009" r="16" stroke="#009" stroke-width="5" /><circle cx="4165.0" cy="4293.0" fill="#009" r="16" stroke="#009" stroke-width="5" /><circle cx="4165.0" cy="4229.0" fill="#009" r="16" stroke="#009" stroke-width="5" /><circle cx="4229.0" cy="4165.0" fill="#009" r="16" stroke="#009" stroke-width="5" /><circle cx="4293.0" cy="4165.0" fill="#009" r="16" stroke="#009" stroke-width="5" /><circle cx="4421.0" cy="4165.0" fill="#009" r="16" stroke="#009" stroke-width="5" /><circle cx="4485.0" cy="4165.0" fill="#009" r="16" stroke="#009" stroke-width="5" /><circle cx="4549.0" cy="4229.0" fill="#009" r="16" stroke="#009" stroke-width="5" /><circle cx="4549.0" cy="4293.0" fill="#009" r="16" stroke="#009" stroke-width="5" /><circle cx="4549.0" cy="4421.0" fill="#009" r="16" stroke="#009" stroke-width="5" /><circle cx="4549.0" cy="4485.0" fill="#009" r="16" stroke="#009" stroke-width="5" /><circle cx="4485.0" cy="4549.0" fill="#009" r="16" stroke="#009" stroke-width="5" /><circle cx="4421.0" cy="4549.0" fill="#009" r="16" stroke="#009" stroke-width="5" /><circle cx="4229.0" cy="4549.0" fill="#009" r="16" stroke="#009" stroke-width="5" /><circle cx="4357.0" cy="4229.0" fill="#009" r="16" stroke="#009" stroke-width="5" /><circle cx="4357.0" cy="4485.0" fill="#009" r="16" stroke="#009" stroke-width="5" /><circle cx="4485.0" cy="4357.0" fill="#009" r="16" stroke="#009" stroke-width="5" /><circle cx="4229.0" cy="4357.0" fill="#009" r="16" stroke="#009" stroke-width="5" /><circle cx="4293.0" cy="4549.0" fill="#009" r="16" stroke="#009" stroke-width="5" /><circle cx="4357.0" cy="4549.0" fill="#009" r="16" stroke="#009" stroke-width="5" /><circle cx="4549.0" cy="4357.0" fill="#009" r="16" stroke="#009" stroke-width="5" /><circle cx="4357.0" cy="4165.0" fill="#009" r="16" stroke="#009" stroke-width="5" /><circle cx="4101.0" cy="4485.0" fill="#090" r="16" stroke="#090" stroke-width="5" /><circle cx="4101.0" cy="4421.0" fill="#090" r="16" stroke="#090" stroke-width="5" /><circle cx="4101.0" cy="4229.0" fill="#090" r="16" stroke="#090" stroke-width="5" /><circle cx="4101.0" cy="4293.0" fill="#090" r="16" stroke="#090" stroke-width="5" /><circle cx="4229.0" cy="4101.0" fill="#090" r="16" stroke="#090" stroke-width="5" /><circle cx="4293.0" cy="4101.0" fill="#090" r="16" stroke="#090" stroke-width="5" /><circle cx="4421.0" cy="4101.0" fill="#090" r="16" stroke="#090" stroke-width="5" /><circle cx="4485.0" cy="4101.0" fill="#090" r="16" stroke="#090" stroke-width="5" /><circle cx="4613.0" cy="4229.0" fill="#090" r="16" stroke="#090" stroke-width="5" /><circle cx="4613.0" cy="4293.0" fill="#090" r="16" stroke="#090" stroke-width="5" /><circle cx="4613.0" cy="4421.0" fill="#090" r="16" stroke="#090" stroke-width="5" /><circle cx="4613.0" cy="4485.0" fill="#090" r="16" stroke="#090" stroke-width="5" /><circle cx="4229.0" cy="4613.0" fill="#090" r="16" stroke="#090" stroke-width="5" /><circle cx="4293.0" cy="4613.0" fill="#090" r="16" stroke="#090" stroke-width="5" /><circle cx="4421.0" cy="4613.0" fill="#090" r="16" stroke="#090" stroke-width="5" /><circle cx="4485.0" cy="4613.0" fill="#090" r="16" stroke="#090" stroke-width="5" /><circle cx="4165.0" cy="4357.0" fill="#009" r="16" stroke="#009" stroke-width="5" /><circle cx="4101.0" cy="4549.0" fill="#900" r="16" stroke="#900" stroke-width="5" /><circle cx="4101.0" cy="4613.0" fill="#900" r="16" stroke="#900" stroke-width="5" /><circle cx="4165.0" cy="4613.0" fill="#900" r="16" stroke="#900" stroke-width="5" /><circle cx="4357.0" cy="4613.0" fill="#900" r="16" stroke="#900" stroke-width="5" /><circle cx="4549.0" cy="4613.0" fill="#900" r="16" stroke="#900" stroke-width="5" /><circle cx="4613.0" cy="4613.0" fill="#900" r="16" stroke="#900" stroke-width="5" /><circle cx="4613.0" cy="4549.0" fill="#900" r="16" stroke="#900" stroke-width="5" /><circle cx="4613.0" cy="4357.0" fill="#900" r="16" stroke="#900" stroke-width="5" /><circle cx="4613.0" cy="4165.0" fill="#900" r="16" stroke="#900" stroke-width="5" /><circle cx="4613.0" cy="4101.0" fill="#900" r="16" stroke="#900" stroke-width="5" /><circle cx="4549.0" cy="4101.0" fill="#900" r="16" stroke="#900" stroke-width="5" /><circle cx="4357.0" cy="4101.0" fill="#900" r="16" stroke="#900" stroke-width="5" /><circle cx="4165.0" cy="4101.0" fill="#900" r="16" stroke="#900" stroke-width="5" /><circle cx="4101.0" cy="4101.0" fill="#900" r="16" stroke="#900" stroke-width="5" /><circle cx="4101.0" cy="4165.0" fill="#900" r="16" stroke="#900" stroke-width="5" /><circle cx="4101.0" cy="4357.0" fill="#900" r="16" stroke="#900" stroke-width="5" /><rect fill="#090" height="24" stroke="#090" stroke-width="5" transform="rotate(0,4037.0,4357.0)" width="24" x="4025.0" y="4345.0" /><rect fill="#090" height="24" stroke="#090" stroke-width="5" transform="rotate(0,4677.0,4357.0)" width="24" x="4665.0" y="4345.0" /><rect fill="#090" height="24" stroke="#090" stroke-width="5" transform="rotate(0,4357.0,4677.0)" width="24" x="4345.0" y="4665.0" /><rect fill="#090" height="24" stroke="#090" stroke-width="5" transform="rotate(0,4357.0,4037.0)" width="24" x="4345.0" y="4025.0" /><circle cx="4293.0" cy="4037.0" fill="#009" r="16" stroke="#009" stroke-width="5" /><circle cx="4421.0" cy="4037.0" fill="#009" r="16" stroke="#009" stroke-width="5" /><circle cx="4677.0" cy="4293.0" fill="#009" r="16" stroke="#009" stroke-width="5" /><circle cx="4677.0" cy="4421.0" fill="#009" r="16" stroke="#009" stroke-width="5" /><circle cx="4293.0" cy="4677.0" fill="#009" r="16" stroke="#009" stroke-width="5" /><circle cx="4421.0" cy="4677.0" fill="#009" r="16" stroke="#009" stroke-width="5" /><circle cx="4037.0" cy="4421.0" fill="#009" r="16" stroke="#009" stroke-width="5" /><circle cx="4037.0" cy="4293.0" fill="#009" r="16" stroke="#009" stroke-width="5" /><circle cx="4037.0" cy="4229.0" fill="#090" r="16" stroke="#090" stroke-width="5" /><circle cx="4037.0" cy="4165.0" fill="#090" r="16" stroke="#090" stroke-width="5" /><circle cx="4037.0" cy="4101.0" fill="#090" r="16" stroke="#090" stroke-width="5" /><circle cx="4677.0" cy="4229.0" fill="#090" r="16" stroke="#090" stroke-width="5" /><circle cx="4677.0" cy="4165.0" fill="#090" r="16" stroke="#090" stroke-width="5" /><circle cx="4677.0" cy="4101.0" fill="#090" r="16" stroke="#090" stroke-width="5" /><circle cx="4677.0" cy="4613.0" fill="#090" r="16" stroke="#090" stroke-width="5" /><circle cx="4677.0" cy="4549.0" fill="#090" r="16" stroke="#090" stroke-width="5" /><circle cx="4677.0" cy="4485.0" fill="#090" r="16" stroke="#090" stroke-width="5" /><circle cx="4037.0" cy="4613.0" fill="#090" r="16" stroke="#090" stroke-width="5" /><circle cx="4037.0" cy="4549.0" fill="#090" r="16" stroke="#090" stroke-width="5" /><circle cx="4037.0" cy="4485.0" fill="#090" r="16" stroke="#090" stroke-width="5" /><circle cx="4229.0" cy="4677.0" fill="#090" r="16" stroke="#090" stroke-width="5" /><circle cx="4165.0" cy="4677.0" fill="#090" r="16" stroke="#090" stroke-width="5" /><circle cx="4102.0" cy="4677.0" fill="#090" r="16" stroke="#090" stroke-width="5" /><circle cx="4612.0" cy="4677.0" fill="#090" r="16" stroke="#090" stroke-width="5" /><circle cx="4548.0" cy="4677.0" fill="#090" r="16" stroke="#090" stroke-width="5" /><circle cx="4485.0" cy="4677.0" fill="#090" r="16" stroke="#090" stroke-width="5" /><circle cx="4612.0" cy="4037.0" fill="#090" r="16" stroke="#090" stroke-width="5" /><circle cx="4548.0" cy="4037.0" fill="#090" r="16" stroke="#090" stroke-width="5" /><circle cx="4485.0" cy="4037.0" fill="#090" r="16" stroke="#090" stroke-width="5" /><circle cx="4229.0" cy="4037.0" fill="#090" r="16" stroke="#090" stroke-width="5" /><circle cx="4165.0" cy="4037.0" fill="#090" r="16" stroke="#090" stroke-width="5" /><circle cx="4102.0" cy="4037.0" fill="#090" r="16" stroke="#090" stroke-width="5" /><circle cx="4037.0" cy="4037.0" fill="#009" r="16" stroke="#009" stroke-width="5" /><circle cx="4677.0" cy="4037.0" fill="#009" r="16" stroke="#009" stroke-width="5" /><circle cx="4677.0" cy="4677.0" fill="#009" r="16" stroke="#009" stroke-width="5" /><circle cx="4037.0" cy="4677.0" fill="#009" r="16" stroke="#009" stroke-width="5" /><circle cx="4228.0" cy="4741.0" fill="#090" r="16" stroke="#090" stroke-width="5" /><circle cx="4164.0" cy="4741.0" fill="#090" r="16" stroke="#090" stroke-width="5" /><circle cx="4101.0" cy="4741.0" fill="#090" r="16" stroke="#090" stroke-width="5" /><circle cx="4036.0" cy="4741.0" fill="#090" r="16" stroke="#090" stroke-width="5" /><circle cx="4677.0" cy="4741.0" fill="#090" r="16" stroke="#090" stroke-width="5" /><circle cx="4613.0" cy="4741.0" fill="#090" r="16" stroke="#090" stroke-width="5" /><circle cx="4550.0" cy="4741.0" fill="#090" r="16" stroke="#090" stroke-width="5" /><circle cx="4485.0" cy="4741.0" fill="#090" r="16" stroke="#090" stroke-width="5" /><circle cx="4677.0" cy="3973.0" fill="#090" r="16" stroke="#090" stroke-width="5" /><circle cx="4613.0" cy="3973.0" fill="#090" r="16" stroke="#090" stroke-width="5" /><circle cx="4550.0" cy="3973.0" fill="#090" r="16" stroke="#090" stroke-width="5" /><circle cx="4485.0" cy="3973.0" fill="#090" r="16" stroke="#090" stroke-width="5" /><circle cx="4229.0" cy="3973.0" fill="#090" r="16" stroke="#090" stroke-width="5" /><circle cx="4165.0" cy="3973.0" fill="#090" r="16" stroke="#090" stroke-width="5" /><circle cx="4102.0" cy="3973.0" fill="#090" r="16" stroke="#090" stroke-width="5" /><circle cx="4037.0" cy="3973.0" fill="#090" r="16" stroke="#090" stroke-width="5" /><circle cx="3973.0" cy="4039.0" fill="#090" r="16" stroke="#090" stroke-width="5" /><circle cx="3973.0" cy="4103.0" fill="#090" r="16" stroke="#090" stroke-width="5" /><circle cx="3973.0" cy="4165.0" fill="#090" r="16" stroke="#090" stroke-width="5" /><circle cx="3973.0" cy="4230.0" fill="#090" r="16" stroke="#090" stroke-width="5" /><circle cx="3973.0" cy="4485.0" fill="#090" r="16" stroke="#090" stroke-width="5" /><circle cx="3973.0" cy="4549.0" fill="#090" r="16" stroke="#090" stroke-width="5" /><circle cx="3973.0" cy="4611.0" fill="#090" r="16" stroke="#090" stroke-width="5" /><circle cx="3973.0" cy="4676.0" fill="#090" r="16" stroke="#090" stroke-width="5" /><circle cx="4741.0" cy="4485.0" fill="#090" r="16" stroke="#090" stroke-width="5" /><circle cx="4741.0" cy="4549.0" fill="#090" r="16" stroke="#090" stroke-width="5" /><circle cx="4741.0" cy="4611.0" fill="#090" r="16" stroke="#090" stroke-width="5" /><circle cx="4741.0" cy="4676.0" fill="#090" r="16" stroke="#090" stroke-width="5" /><circle cx="4741.0" cy="4037.0" fill="#090" r="16" stroke="#090" stroke-width="5" /><circle cx="4741.0" cy="4101.0" fill="#090" r="16" stroke="#090" stroke-width="5" /><circle cx="4741.0" cy="4163.0" fill="#090" r="16" stroke="#090" stroke-width="5" /><circle cx="4741.0" cy="4228.0" fill="#090" r="16" stroke="#090" stroke-width="5" /><circle cx="3909.0" cy="4613.0" fill="#090" r="16" stroke="#090" stroke-width="5" /><circle cx="3909.0" cy="4549.0" fill="#090" r="16" stroke="#090" stroke-width="5" /><circle cx="3909.0" cy="4485.0" fill="#090" r="16" stroke="#090" stroke-width="5" /><circle cx="3909.0" cy="4677.0" fill="#090" r="16" stroke="#090" stroke-width="5" /><circle cx="3908.0" cy="4741.0" fill="#090" r="16" stroke="#090" stroke-width="5" /><circle cx="4805.0" cy="4613.0" fill="#090" r="16" stroke="#090" stroke-width="5" /><circle cx="4805.0" cy="4549.0" fill="#090" r="16" stroke="#090" stroke-width="5" /><circle cx="4805.0" cy="4485.0" fill="#090" r="16" stroke="#090" stroke-width="5" /><circle cx="4805.0" cy="4677.0" fill="#090" r="16" stroke="#090" stroke-width="5" /><circle cx="4804.0" cy="4741.0" fill="#090" r="16" stroke="#090" stroke-width="5" /><circle cx="4805.0" cy="4101.0" fill="#090" r="16" stroke="#090" stroke-width="5" /><circle cx="4805.0" cy="4037.0" fill="#090" r="16" stroke="#090" stroke-width="5" /><circle cx="4805.0" cy="3973.0" fill="#090" r="16" stroke="#090" stroke-width="5" /><circle cx="4805.0" cy="4165.0" fill="#090" r="16" stroke="#090" stroke-width="5" /><circle cx="4804.0" cy="4229.0" fill="#090" r="16" stroke="#090" stroke-width="5" /><circle cx="3909.0" cy="4101.0" fill="#090" r="16" stroke="#090" stroke-width="5" /><circle cx="3909.0" cy="4037.0" fill="#090" r="16" stroke="#090" stroke-width="5" /><circle cx="3909.0" cy="3973.0" fill="#090" r="16" stroke="#090" stroke-width="5" /><circle cx="3909.0" cy="4165.0" fill="#090" r="16" stroke="#090" stroke-width="5" /><circle cx="3908.0" cy="4229.0" fill="#090" r="16" stroke="#090" stroke-width="5" /><circle cx="4100.0" cy="3909.0" fill="#090" r="16" stroke="#090" stroke-width="5" /><circle cx="4037.0" cy="3909.0" fill="#090" r="16" stroke="#090" stroke-width="5" /><circle cx="3973.0" cy="3909.0" fill="#090" r="16" stroke="#090" stroke-width="5" /><circle cx="4164.0" cy="3909.0" fill="#090" r="16" stroke="#090" stroke-width="5" /><circle cx="4228.0" cy="3909.0" fill="#090" r="16" stroke="#090" stroke-width="5" /><circle cx="4613.0" cy="3909.0" fill="#090" r="16" stroke="#090" stroke-width="5" /><circle cx="4550.0" cy="3909.0" fill="#090" r="16" stroke="#090" stroke-width="5" /><circle cx="4486.0" cy="3909.0" fill="#090" r="16" stroke="#090" stroke-width="5" /><circle cx="4677.0" cy="3909.0" fill="#090" r="16" stroke="#090" stroke-width="5" /><circle cx="4741.0" cy="3909.0" fill="#090" r="16" stroke="#090" stroke-width="5" /><circle cx="4100.0" cy="4805.0" fill="#090" r="16" stroke="#090" stroke-width="5" /><circle cx="4037.0" cy="4805.0" fill="#090" r="16" stroke="#090" stroke-width="5" /><circle cx="3973.0" cy="4805.0" fill="#090" r="16" stroke="#090" stroke-width="5" /><circle cx="4164.0" cy="4805.0" fill="#090" r="16" stroke="#090" stroke-width="5" /><circle cx="4228.0" cy="4805.0" fill="#090" r="16" stroke="#090" stroke-width="5" /><circle cx="4612.0" cy="4805.0" fill="#090" r="16" stroke="#090" stroke-width="5" /><circle cx="4549.0" cy="4805.0" fill="#090" r="16" stroke="#090" stroke-width="5" /><circle cx="4485.0" cy="4805.0" fill="#090" r="16" stroke="#090" stroke-width="5" /><circle cx="4676.0" cy="4805.0" fill="#090" r="16" stroke="#090" stroke-width="5" /><circle cx="4740.0" cy="4805.0" fill="#090" r="16" stroke="#090" stroke-width="5" /><rect fill="#090" height="24" stroke="#090" stroke-width="5" transform="rotate(315,3973.0,4741.0)" width="24" x="3961.0" y="4729.0" /><rect fill="#090" height="24" stroke="#090" stroke-width="5" transform="rotate(225,4741.0,4741.0)" width="24" x="4729.0" y="4729.0" /><rect fill="#090" height="24" stroke="#090" stroke-width="5" transform="rotate(135,4741.0,3973.0)" width="24" x="4729.0" y="3961.0" /><rect fill="#090" height="24" stroke="#090" stroke-width="5" transform="rotate(45,3973.0,3973.0)" width="24" x="3961.0" y="3961.0" /><rect fill="#009" height="24" stroke="#009" stroke-width="5" transform="rotate(45,3909.0,3909.0)" width="24" x="3897.0" y="3897.0" /><rect fill="#009" height="24" stroke="#009" stroke-width="5" transform="rotate(135,4805.0,3909.0)" width="24" x="4793.0" y="3897.0" /><rect fill="#009" height="24" stroke="#009" stroke-width="5" transform="rotate(315,3909.0,4805.0)" width="24" x="3897.0" y="4793.0" /><rect fill="#009" height="24" stroke="#009" stroke-width="5" transform="rotate(225,4805.0,4805.0)" width="24" x="4793.0" y="4793.0" /><rect fill="#900" height="48" stroke="#900" stroke-width="5" transform="rotate(315,133.0,7429.0)" width="32" x="117.0" y="7405.0" /><rect fill="#900" height="48" stroke="#900" stroke-width="5" transform="rotate(315,1285.0,8581.0)" width="32" x="1269.0" y="8557.0" /><rect fill="#900" height="48" stroke="#900" stroke-width="5" transform="rotate(270,2821.0,8581.0)" width="32" x="2805.0" y="8557.0" /><rect fill="#900" height="48" stroke="#900" stroke-width="5" transform="rotate(270,5893.0,8581.0)" width="32" x="5877.0" y="8557.0" /><rect fill="#900" height="48" stroke="#900" stroke-width="5" transform="rotate(225,7429.0,8581.0)" width="32" x="7413.0" y="8557.0" /><rect fill="#900" height="48" stroke="#900" stroke-width="5" transform="rotate(225,8581.0,7429.0)" width="32" x="8565.0" y="7405.0" /><rect fill="#900" height="48" stroke="#900" stroke-width="5" transform="rotate(180,8581.0,5893.0)" width="32" x="8565.0" y="5869.0" /><rect fill="#900" height="48" stroke="#900" stroke-width="5" transform="rotate(180,8581.0,2821.0)" width="32" x="8565.0" y="2797.0" /><rect fill="#900" height="48" stroke="#900" stroke-width="5" transform="rotate(135,8581.0,1285.0)" width="32" x="8565.0" y="1261.0" /><rect fill="#900" height="48" stroke="#900" stroke-width="5" transform="rotate(135,7429.0,133.0)" width="32" x="7413.0" y="109.0" /><rect fill="#900" height="48" stroke="#900" stroke-width="5" transform="rotate(90,5893.0,133.0)" width="32" x="5877.0" y="109.0" /><rect fill="#900" height="48" stroke="#900" stroke-width="5" transform="rotate(90,2821.0,133.0)" width="32" x="2805.0" y="109.0" /><rect fill="#900" height="48" stroke="#900" stroke-width="5" transform="rotate(45,1285.0,133.0)" width="32" x="1269.0" y="109.0" /><rect fill="#900" height="48" stroke="#900" stroke-width="5" transform="rotate(45,133.0,1285.0)" width="32" x="117.0" y="1261.0" /><rect fill="#900" height="48" stroke="#900" stroke-width="5" transform="rotate(0,133.0,2821.0)" width="32" x="117.0" y="2797.0" /><rect fill="#900" height="48" stroke="#900" stroke-width="5" transform="rotate(0,133.0,5893.0)" width="32" x="117.0" y="5869.0" /><rect fill="#900" height="48" stroke="#900" stroke-width="5" transform="rotate(135,5893.0,2821.0)" width="32" x="5877.0" y="2797.0" /><rect fill="#900" height="48" stroke="#900" stroke-width="5" transform="rotate(180,7941.0,2821.0)" width="32" x="7925.0" y="2797.0" /><rect fill="#900" height="48" stroke="#900" stroke-width="5" transform="rotate(45,773.0,1797.0)" width="32" x="757.0" y="1773.0" /><rect fill="#900" height="48" stroke="#900" stroke-width="5" transform="rotate(45,1797.0,773.0)" width="32" x="1781.0" y="749.0" /><rect fill="#900" height="48" stroke="#900" stroke-width="5" transform="rotate(45,1797.0,1797.0)" width="32" x="1781.0" y="1773.0" /><rect fill="#090" height="24" stroke="#090" stroke-width="5" transform="rotate(90,4357.0,4357.0)" width="24" x="4345.0" y="4345.0" /><rect fill="#900" height="48" stroke="#900" stroke-width="5" transform="rotate(0,773.0,2821.0)" width="32" x="757.0" y="2797.0" /><rect fill="#900" height="48" stroke="#900" stroke-width="5" transform="rotate(0,1797.0,2821.0)" width="32" x="1781.0" y="2797.0" /><rect fill="#900" height="48" stroke="#900" stroke-width="5" transform="rotate(45,2821.0,2821.0)" width="32" x="2805.0" y="2797.0" /><rect fill="#900" height="48" stroke="#900" stroke-width="5" transform="rotate(90,2821.0,1797.0)" width="32" x="2805.0" y="1773.0" /><rect fill="#900" height="48" stroke="#900" stroke-width="5" transform="rotate(90,2821.0,773.0)" width="32" x="2805.0" y="749.0" /><rect fill="#900" height="48" stroke="#900" stroke-width="5" transform="rotate(90,5893.0,773.0)" width="32" x="5877.0" y="749.0" /><rect fill="#900" height="48" stroke="#900" stroke-width="5" transform="rotate(90,5893.0,1797.0)" width="32" x="5877.0" y="1773.0" /><rect fill="#900" height="48" stroke="#900" stroke-width="5" transform="rotate(135,6917.0,1797.0)" width="32" x="6901.0" y="1773.0" /><rect fill="#900" height="48" stroke="#900" stroke-width="5" transform="rotate(135,6917.0,773.0)" width="32" x="6901.0" y="749.0" /><rect fill="#900" height="48" stroke="#900" stroke-width="5" transform="rotate(135,7941.0,1797.0)" width="32" x="7925.0" y="1773.0" /><rect fill="#900" height="48" stroke="#900" stroke-width="5" transform="rotate(180,6917.0,2821.0)" width="32" x="6901.0" y="2797.0" /><rect fill="#900" height="48" stroke="#900" stroke-width="5" transform="rotate(270,5893.0,6917.0)" width="32" x="5877.0" y="6893.0" /><rect fill="#900" height="48" stroke="#900" stroke-width="5" transform="rotate(225,7941.0,6917.0)" width="32" x="7925.0" y="6893.0" /><rect fill="#900" height="48" stroke="#900" stroke-width="5" transform="rotate(0,773.0,5893.0)" width="32" x="757.0" y="5869.0" /><rect fill="#900" height="48" stroke="#900" stroke-width="5" transform="rotate(0,1797.0,5893.0)" width="32" x="1781.0" y="5869.0" /><rect fill="#900" height="48" stroke="#900" stroke-width="5" transform="rotate(315,773.0,6917.0)" width="32" x="757.0" y="6893.0" /><rect fill="#900" height="48" stroke="#900" stroke-width="5" transform="rotate(315,1797.0,6917.0)" width="32" x="1781.0" y="6893.0" /><rect fill="#900" height="48" stroke="#900" stroke-width="5" transform="rotate(315,1797.0,7941.0)" width="32" x="1781.0" y="7917.0" /><rect fill="#900" height="48" stroke="#900" stroke-width="5" transform="rotate(270,2821.0,7941.0)" width="32" x="2805.0" y="7917.0" /><rect fill="#900" height="48" stroke="#900" stroke-width="5" transform="rotate(270,2821.0,6917.0)" width="32" x="2805.0" y="6893.0" /><rect fill="#900" height="48" stroke="#900" stroke-width="5" transform="rotate(315,2821.0,5893.0)" width="32" x="2805.0" y="5869.0" /><rect fill="#900" height="48" stroke="#900" stroke-width="5" transform="rotate(225,5893.0,5893.0)" width="32" x="5877.0" y="5869.0" /><rect fill="#900" height="48" stroke="#900" stroke-width="5" transform="rotate(180,6917.0,5893.0)" width="32" x="6901.0" y="5869.0" /><rect fill="#900" height="48" stroke="#900" stroke-width="5" transform="rotate(180,7941.0,5893.0)" width="32" x="7925.0" y="5869.0" /><rect fill="#900" height="48" stroke="#900" stroke-width="5" transform="rotate(270,5893.0,7941.0)" width="32" x="5877.0" y="7917.0" /><rect fill="#900" height="48" stroke="#900" stroke-width="5" transform="rotate(225,6917.0,7941.0)" width="32" x="6901.0" y="7917.0" /><rect fill="#900" height="48" stroke="#900" stroke-width="5" transform="rotate(225,6917.0,6917.0)" width="32" x="6901.0" y="6893.0" /><rect fill="#090" height="24" stroke="#090" stroke-width="5" transform="rotate(135,7429.0,1285.0)" width="24" x="7417.0" y="1273.0" /><rect fill="#090" height="24" stroke="#090" stroke-width="5" transform="rotate(135,6405.0,2309.0)" width="24" x="6393.0" y="2297.0" /><rect fill="#090" height="24" stroke="#090" stroke-width="5" transform="rotate(90,4357.0,2821.0)" width="24" x="4345.0" y="2809.0" /><rect fill="#090" height="24" stroke="#090" stroke-width="5" transform="rotate(90,4357.0,1285.0)" width="24" x="4345.0" y="1273.0" /><rect fill="#090" height="24" stroke="#090" stroke-width="5" transform="rotate(45,1285.0,1285.0)" width="24" x="1273.0" y="1273.0" /><rect fill="#090" height="24" stroke="#090" stroke-width="5" transform="rotate(45,2309.0,2309.0)" width="24" x="2297.0" y="2297.0" /><rect fill="#090" height="24" stroke="#090" stroke-width="5" transform="rotate(0,1285.0,4357.0)" width="24" x="1273.0" y="4345.0" /><rect fill="#090" height="24" stroke="#090" stroke-width="5" transform="rotate(0,2821.0,4357.0)" width="24" x="2809.0" y="4345.0" /><rect fill="#090" height="24" stroke="#090" stroke-width="5" transform="rotate(315,1285.0,7429.0)" width="24" x="1273.0" y="7417.0" /><rect fill="#090" height="24" stroke="#090" stroke-width="5" transform="rotate(315,2309.0,6405.0)" width="24" x="2297.0" y="6393.0" /><rect fill="#090" height="24" stroke="#090" stroke-width="5" transform="rotate(270,4357.0,5893.0)" width="24" x="4345.0" y="5881.0" /><rect fill="#090" height="24" stroke="#090" stroke-width="5" transform="rotate(270,4357.0,7429.0)" width="24" x="4345.0" y="7417.0" /><rect fill="#090" height="24" stroke="#090" stroke-width="5" transform="rotate(225,7429.0,7429.0)" width="24" x="7417.0" y="7417.0" /><rect fill="#090" height="24" stroke="#090" stroke-width="5" transform="rotate(225,6405.0,6405.0)" width="24" x="6393.0" y="6393.0" /><rect fill="#090" height="24" stroke="#090" stroke-width="5" transform="rotate(180,7429.0,4357.0)" width="24" x="7417.0" y="4345.0" /><rect fill="#090" height="24" stroke="#090" stroke-width="5" transform="rotate(180,5893.0,4357.0)" width="24" x="5881.0" y="4345.0" /><circle cx="3077.0" cy="133.0" fill="#090" r="16" stroke="#090" stroke-width="5" /><circle cx="3333.0" cy="133.0" fill="#009" r="16" stroke="#009" stroke-width="5" /><circle cx="3589.0" cy="133.0" fill="#090" r="16" stroke="#090" stroke-width="5" /><circle cx="3845.0" cy="133.0" fill="#090" r="16" stroke="#090" stroke-width="5" /><circle cx="4101.0" cy="133.0" fill="#090" r="16" stroke="#090" stroke-width="5" /><circle cx="2565.0" cy="133.0" fill="#090" r="16" stroke="#090" stroke-width="5" /><circle cx="2309.0" cy="133.0" fill="#090" r="16" stroke="#090" stroke-width="5" /><circle cx="4613.0" cy="133.0" fill="#090" r="16" stroke="#090" stroke-width="5" /><circle cx="4869.0" cy="133.0" fill="#090" r="16" stroke="#090" stroke-width="5" /><circle cx="5125.0" cy="133.0" fill="#090" r="16" stroke="#090" stroke-width="5" /><circle cx="5381.0" cy="133.0" fill="#009" r="16" stroke="#009" stroke-width="5" /><circle cx="5637.0" cy="133.0" fill="#090" r="16" stroke="#090" stroke-width="5" /><circle cx="6149.0" cy="133.0" fill="#090" r="16" stroke="#090" stroke-width="5" /><circle cx="6405.0" cy="133.0" fill="#090" r="16" stroke="#090" stroke-width="5" /><circle cx="4357.0" cy="133.0" fill="#009" r="16" stroke="#009" stroke-width="5" /><circle cx="3077.0" cy="8581.0" fill="#090" r="16" stroke="#090" stroke-width="5" /><circle cx="3333.0" cy="8581.0" fill="#009" r="16" stroke="#009" stroke-width="5" /><circle cx="3589.0" cy="8581.0" fill="#090" r="16" stroke="#090" stroke-width="5" /><circle cx="3845.0" cy="8581.0" fill="#090" r="16" stroke="#090" stroke-width="5" /><circle cx="4101.0" cy="8581.0" fill="#090" r="16" stroke="#090" stroke-width="5" /><circle cx="2565.0" cy="8581.0" fill="#090" r="16" stroke="#090" stroke-width="5" /><circle cx="2309.0" cy="8581.0" fill="#090" r="16" stroke="#090" stroke-width="5" /><circle cx="4613.0" cy="8581.0" fill="#090" r="16" stroke="#090" stroke-width="5" /><circle cx="4869.0" cy="8581.0" fill="#090" r="16" stroke="#090" stroke-width="5" /><circle cx="5125.0" cy="8581.0" fill="#090" r="16" stroke="#090" stroke-width="5" /><circle cx="5381.0" cy="8581.0" fill="#009" r="16" stroke="#009" stroke-width="5" /><circle cx="5637.0" cy="8581.0" fill="#090" r="16" stroke="#090" stroke-width="5" /><circle cx="6149.0" cy="8581.0" fill="#090" r="16" stroke="#090" stroke-width="5" /><circle cx="6405.0" cy="8581.0" fill="#090" r="16" stroke="#090" stroke-width="5" /><circle cx="4357.0" cy="8581.0" fill="#009" r="16" stroke="#009" stroke-width="5" /><circle cx="8581.0" cy="5637.0" fill="#090" r="16" stroke="#090" stroke-width="5" /><circle cx="8581.0" cy="5381.0" fill="#009" r="16" stroke="#009" stroke-width="5" /><circle cx="8581.0" cy="5125.0" fill="#090" r="16" stroke="#090" stroke-width="5" /><circle cx="8581.0" cy="4869.0" fill="#090" r="16" stroke="#090" stroke-width="5" /><circle cx="8581.0" cy="4613.0" fill="#090" r="16" stroke="#090" stroke-width="5" /><circle cx="8581.0" cy="6149.0" fill="#090" r="16" stroke="#090" stroke-width="5" /><circle cx="8581.0" cy="6405.0" fill="#090" r="16" stroke="#090" stroke-width="5" /><circle cx="8581.0" cy="4102.0" fill="#090" r="16" stroke="#090" stroke-width="5" /><circle cx="8581.0" cy="3846.0" fill="#090" r="16" stroke="#090" stroke-width="5" /><circle cx="8581.0" cy="3590.0" fill="#090" r="16" stroke="#090" stroke-width="5" /><circle cx="8581.0" cy="3334.0" fill="#009" r="16" stroke="#009" stroke-width="5" /><circle cx="8581.0" cy="3078.0" fill="#090" r="16" stroke="#090" stroke-width="5" /><circle cx="8581.0" cy="2566.0" fill="#090" r="16" stroke="#090" stroke-width="5" /><circle cx="8581.0" cy="2310.0" fill="#090" r="16" stroke="#090" stroke-width="5" /><circle cx="8581.0" cy="4357.0" fill="#009" r="16" stroke="#009" stroke-width="5" /><circle cx="133.0" cy="5637.0" fill="#090" r="16" stroke="#090" stroke-width="5" /><circle cx="133.0" cy="5381.0" fill="#009" r="16" stroke="#009" stroke-width="5" /><circle cx="133.0" cy="5125.0" fill="#090" r="16" stroke="#090" stroke-width="5" /><circle cx="133.0" cy="4869.0" fill="#090" r="16" stroke="#090" stroke-width="5" /><circle cx="133.0" cy="4613.0" fill="#090" r="16" stroke="#090" stroke-width="5" /><circle cx="133.0" cy="6149.0" fill="#090" r="16" stroke="#090" stroke-width="5" /><circle cx="133.0" cy="6405.0" fill="#090" r="16" stroke="#090" stroke-width="5" /><circle cx="133.0" cy="4102.0" fill="#090" r="16" stroke="#090" stroke-width="5" /><circle cx="133.0" cy="3846.0" fill="#090" r="16" stroke="#090" stroke-width="5" /><circle cx="133.0" cy="3590.0" fill="#090" r="16" stroke="#090" stroke-width="5" /><circle cx="133.0" cy="3334.0" fill="#009" r="16" stroke="#009" stroke-width="5" /><circle cx="133.0" cy="3078.0" fill="#090" r="16" stroke="#090" stroke-width="5" /><circle cx="133.0" cy="2566.0" fill="#090" r="16" stroke="#090" stroke-width="5" /><circle cx="133.0" cy="2310.0" fill="#090" r="16" stroke="#090" stroke-width="5" /><circle cx="133.0" cy="4357.0" fill="#009" r="16" stroke="#009" stroke-width="5" /><circle cx="133.0" cy="8197.0" fill="#090" r="16" stroke="#090" stroke-width="5" /><circle cx="133.0" cy="7941.0" fill="#009" r="16" stroke="#009" stroke-width="5" /><circle cx="133.0" cy="7685.0" fill="#090" r="16" stroke="#090" stroke-width="5" /><circle cx="133.0" cy="7173.0" fill="#090" r="16" stroke="#090" stroke-width="5" /><circle cx="133.0" cy="6917.0" fill="#090" r="16" stroke="#090" stroke-width="5" /><circle cx="133.0" cy="8325.0" fill="#090" r="16" stroke="#090" stroke-width="5" /><circle cx="133.0" cy="8453.0" fill="#090" r="16" stroke="#090" stroke-width="5" /><circle cx="133.0" cy="6661.0" fill="#009" r="16" stroke="#009" stroke-width="5" /><circle cx="517.0" cy="8581.0" fill="#090" r="16" stroke="#090" stroke-width="5" /><circle cx="773.0" cy="8581.0" fill="#009" r="16" stroke="#009" stroke-width="5" /><circle cx="1029.0" cy="8581.0" fill="#090" r="16" stroke="#090" stroke-width="5" /><circle cx="1541.0" cy="8581.0" fill="#090" r="16" stroke="#090" stroke-width="5" /><circle cx="1797.0" cy="8581.0" fill="#090" r="16" stroke="#090" stroke-width="5" /><circle cx="389.0" cy="8581.0" fill="#090" r="16" stroke="#090" stroke-width="5" /><circle cx="261.0" cy="8581.0" fill="#090" r="16" stroke="#090" stroke-width="5" /><circle cx="2053.0" cy="8581.0" fill="#009" r="16" stroke="#009" stroke-width="5" /><circle cx="133.0" cy="8581.0" fill="#009" r="16" stroke="#009" stroke-width="5" /><circle cx="8581.0" cy="8197.0" fill="#090" r="16" stroke="#090" stroke-width="5" /><circle cx="8581.0" cy="7941.0" fill="#009" r="16" stroke="#009" stroke-width="5" /><circle cx="8581.0" cy="7685.0" fill="#090" r="16" stroke="#090" stroke-width="5" /><circle cx="8581.0" cy="7173.0" fill="#090" r="16" stroke="#090" stroke-width="5" /><circle cx="8581.0" cy="6917.0" fill="#090" r="16" stroke="#090" stroke-width="5" /><circle cx="8581.0" cy="8325.0" fill="#090" r="16" stroke="#090" stroke-width="5" /><circle cx="8581.0" cy="8453.0" fill="#090" r="16" stroke="#090" stroke-width="5" /><circle cx="8581.0" cy="6661.0" fill="#009" r="16" stroke="#009" stroke-width="5" /><circle cx="8197.0" cy="8581.0" fill="#090" r="16" stroke="#090" stroke-width="5" /><circle cx="7941.0" cy="8581.0" fill="#009" r="16" stroke="#009" stroke-width="5" /><circle cx="7685.0" cy="8581.0" fill="#090" r="16" stroke="#090" stroke-width="5" /><circle cx="7173.0" cy="8581.0" fill="#090" r="16" stroke="#090" stroke-width="5" /><circle cx="6917.0" cy="8581.0" fill="#090" r="16" stroke="#090" stroke-width="5" /><circle cx="8325.0" cy="8581.0" fill="#090" r="16" stroke="#090" stroke-width="5" /><circle cx="8453.0" cy="8581.0" fill="#090" r="16" stroke="#090" stroke-width="5" /><circle cx="6661.0" cy="8581.0" fill="#009" r="16" stroke="#009" stroke-width="5" /><circle cx="8581.0" cy="8581.0" fill="#009" r="16" stroke="#009" stroke-width="5" /><circle cx="8581.0" cy="517.0" fill="#090" r="16" stroke="#090" stroke-width="5" /><circle cx="8581.0" cy="773.0" fill="#009" r="16" stroke="#009" stroke-width="5" /><circle cx="8581.0" cy="1029.0" fill="#090" r="16" stroke="#090" stroke-width="5" /><circle cx="8581.0" cy="1541.0" fill="#090" r="16" stroke="#090" stroke-width="5" /><circle cx="8581.0" cy="1797.0" fill="#090" r="16" stroke="#090" stroke-width="5" /><circle cx="8581.0" cy="389.0" fill="#090" r="16" stroke="#090" stroke-width="5" /><circle cx="8581.0" cy="261.0" fill="#090" r="16" stroke="#090" stroke-width="5" /><circle cx="8581.0" cy="2053.0" fill="#009" r="16" stroke="#009" stroke-width="5" /><circle cx="8197.0" cy="133.0" fill="#090" r="16" stroke="#090" stroke-width="5" /><circle cx="7941.0" cy="133.0" fill="#009" r="16" stroke="#009" stroke-width="5" /><circle cx="7685.0" cy="133.0" fill="#090" r="16" stroke="#090" stroke-width="5" /><circle cx="7173.0" cy="133.0" fill="#090" r="16" stroke="#090" stroke-width="5" /><circle cx="6917.0" cy="133.0" fill="#090" r="16" stroke="#090" stroke-width="5" /><circle cx="8325.0" cy="133.0" fill="#090" r="16" stroke="#090" stroke-width="5" /><circle cx="8453.0" cy="133.0" fill="#090" r="16" stroke="#090" stroke-width="5" /><circle cx="6661.0" cy="133.0" fill="#009" r="16" stroke="#009" stroke-width="5" /><circle cx="8581.0" cy="133.0" fill="#009" r="16" stroke="#009" stroke-width="5" /><circle cx="133.0" cy="517.0" fill="#090" r="16" stroke="#090" stroke-width="5" /><circle cx="133.0" cy="773.0" fill="#009" r="16" stroke="#009" stroke-width="5" /><circle cx="133.0" cy="1029.0" fill="#090" r="16" stroke="#090" stroke-width="5" /><circle cx="133.0" cy="1541.0" fill="#090" r="16" stroke="#090" stroke-width="5" /><circle cx="133.0" cy="1797.0" fill="#090" r="16" stroke="#090" stroke-width="5" /><circle cx="133.0" cy="389.0" fill="#090" r="16" stroke="#090" stroke-width="5" /><circle cx="133.0" cy="261.0" fill="#090" r="16" stroke="#090" stroke-width="5" /><circle cx="133.0" cy="2053.0" fill="#009" r="16" stroke="#009" stroke-width="5" /><circle cx="517.0" cy="133.0" fill="#090" r="16" stroke="#090" stroke-width="5" /><circle cx="773.0" cy="133.0" fill="#009" r="16" stroke="#009" stroke-width="5" /><circle cx="1029.0" cy="133.0" fill="#090" r="16" stroke="#090" stroke-width="5" /><circle cx="1541.0" cy="133.0" fill="#090" r="16" stroke="#090" stroke-width="5" /><circle cx="1797.0" cy="133.0" fill="#090" r="16" stroke="#090" stroke-width="5" /><circle cx="389.0" cy="133.0" fill="#090" r="16" stroke="#090" stroke-width="5" /><circle cx="261.0" cy="133.0" fill="#090" r="16" stroke="#090" stroke-width="5" /><circle cx="2053.0" cy="133.0" fill="#009" r="16" stroke="#009" stroke-width="5" /><circle cx="133.0" cy="133.0" fill="#009" r="16" stroke="#009" stroke-width="5" /></svg>