<?xml version="1.0" encoding="utf-8" ?>
<svg baseProfile="tiny" height="1024" version="1.2" viewBox="0 0 3722 4090" width="931" xmlns="http://www.w3.org/2000/svg" xmlns:ev="http://www.w3.org/2001/xml-events" xmlns:xlink="http://www.w3.org/1999/xlink"><defs /><line stroke="#999" stroke-width="3" x1="1029.0" x2="1157.0" y1="1669.0" y2="1669.0" /><line stroke="#333" stroke-width="10" x1="1285.0" x2="1285.0" y1="1669.0" y2="1589.0" /><line stroke="#333" stroke-width="10" x1="1285.0" x2="1221.0" y1="1589.0" y2="1477.0" /><line stroke="#333" stroke-width="10" x1="1221.0" x2="1093.0" y1="1477.0" y2="1477.0" /><line stroke="#999" stroke-width="3" x1="1093.0" x2="1029.0" y1="1477.0" y2="1589.0" /><line stroke="#333" stroke-width="10" x1="1029.0" x2="1029.0" y1="1589.0" y2="1669.0" /><line stroke="#333" stroke-width="10" x1="1029.0" x2="933.0" y1="1669.0" y2="1669.0" /><line stroke="#333" stroke-width="10" x1="933.0" x2="805.0" y1="1669.0" y2="1925.0" /><line stroke="#333" stroke-width="10" x1="805.0" x2="965.0" y1="1925.0" y2="2309.0" /><line stroke="#333" stroke-width="10" x1="2117.0" x2="2245.0" y1="2437.0" y2="2181.0" /><line stroke="#333" stroke-width="10" x1="965.0" x2="997.0" y1="2309.0" y2="2309.0" /><line stroke="#333" stroke-width="10" x1="1349.0" x2="1509.0" y1="2309.0" y2="1925.0" /><line stroke="#333" stroke-width="10" x1="2245.0" x2="2245.0" y1="2181.0" y2="2117.0" /><line stroke="#333" stroke-width="10" x1="1509.0" x2="1381.0" y1="1925.0" y2="1669.0" /><line stroke="#333" stroke-width="10" x1="1381.0" x2="1285.0" y1="1669.0" y2="1669.0" /><line stroke="#999" stroke-width="3" x1="1157.0" x2="1157.0" y1="1669.0" y2="1717.0" /><line stroke="#999" stroke-width="3" x1="1157.0" x2="1029.0" y1="1717.0" y2="1717.0" /><line stroke="#999" stroke-width="3" x1="1029.0" x2="1029.0" y1="1717.0" y2="1669.0" /><line stroke="#999" stroke-width="3" x1="1157.0" x2="1285.0" y1="1669.0" y2="1669.0" /><line stroke="#333" stroke-width="10" x1="965.0" x2="965.0" y1="1989.0" y2="1925.0" /><line stroke="#333" stroke-width="10" x1="965.0" x2="1029.0" y1="1925.0" y2="1925.0" /><line stroke="#333" stroke-width="10" x1="1029.0" x2="1029.0" y1="1925.0" y2="1989.0" /><line stroke="#333" stroke-width="10" x1="1029.0" x2="965.0" y1="1989.0" y2="1989.0" /><line stroke="#333" stroke-width="10" x1="1285.0" x2="1285.0" y1="1989.0" y2="1925.0" /><line stroke="#333" stroke-width="10" x1="1285.0" x2="1349.0" y1="1925.0" y2="1925.0" /><line stroke="#333" stroke-width="10" x1="1349.0" x2="1349.0" y1="1925.0" y2="1989.0" /><line stroke="#333" stroke-width="10" x1="1349.0" x2="1285.0" y1="1989.0" y2="1989.0" /><line stroke="#333" stroke-width="10" x1="1093.0" x2="1093.0" y1="2309.0" y2="2341.0" /><line stroke="#333" stroke-width="10" x1="1093.0" x2="1221.0" y1="2693.0" y2="2693.0" /><line stroke="#333" stroke-width="10" x1="1221.0" x2="1477.0" y1="2693.0" y2="2821.0" /><line stroke="#999" stroke-width="3" x1="1093.0" x2="1221.0" y1="2309.0" y2="2309.0" /><line stroke="#333" stroke-width="10" x1="1221.0" x2="1253.0" y1="2309.0" y2="2309.0" /><line stroke="#999" stroke-width="3" x1="1093.0" x2="1125.0" y1="2309.0" y2="2245.0" /><line stroke="#999" stroke-width="3" x1="1125.0" x2="1189.0" y1="2245.0" y2="2245.0" /><line stroke="#999" stroke-width="3" x1="1189.0" x2="1221.0" y1="2245.0" y2="2309.0" /><line stroke="#999" stroke-width="3" x1="1061.0" x2="1125.0" y1="2309.0" y2="2181.0" /><line stroke="#999" stroke-width="3" x1="1125.0" x2="1189.0" y1="2181.0" y2="2181.0" /><line stroke="#999" stroke-width="3" x1="1189.0" x2="1253.0" y1="2181.0" y2="2309.0" /><line stroke="#333" stroke-width="10" x1="1061.0" x2="1093.0" y1="2309.0" y2="2309.0" /><line stroke="#333" stroke-width="10" x1="1253.0" x2="1285.0" y1="2309.0" y2="2309.0" /><line stroke="#999" stroke-width="3" x1="1029.0" x2="1125.0" y1="2309.0" y2="2117.0" /><line stroke="#999" stroke-width="3" x1="1125.0" x2="1189.0" y1="2117.0" y2="2117.0" /><line stroke="#999" stroke-width="3" x1="1189.0" x2="1285.0" y1="2117.0" y2="2309.0" /><line stroke="#333" stroke-width="10" x1="1029.0" x2="1061.0" y1="2309.0" y2="2309.0" /><line stroke="#333" stroke-width="10" x1="1285.0" x2="1317.0" y1="2309.0" y2="2309.0" /><line stroke="#999" stroke-width="3" x1="997.0" x2="1125.0" y1="2309.0" y2="2053.0" /><line stroke="#999" stroke-width="3" x1="1125.0" x2="1189.0" y1="2053.0" y2="2053.0" /><line stroke="#999" stroke-width="3" x1="1189.0" x2="1317.0" y1="2053.0" y2="2309.0" /><line stroke="#333" stroke-width="10" x1="997.0" x2="1029.0" y1="2309.0" y2="2309.0" /><line stroke="#333" stroke-width="10" x1="1317.0" x2="1349.0" y1="2309.0" y2="2309.0" /><line stroke="#999" stroke-width="3" x1="965.0" x2="1125.0" y1="2309.0" y2="1989.0" /><line stroke="#999" stroke-width="3" x1="1125.0" x2="1189.0" y1="1989.0" y2="1989.0" /><line stroke="#999" stroke-width="3" x1="1189.0" x2="1349.0" y1="1989.0" y2="2309.0" /><line stroke="#333" stroke-width="10" x1="1093.0" x2="1093.0" y1="2341.0" y2="2693.0" /><line stroke="#333" stroke-width="10" x1="1221.0" x2="1221.0" y1="2341.0" y2="2309.0" /><line stroke="#333" stroke-width="10" x1="1221.0" x2="1221.0" y1="2501.0" y2="2341.0" /><line stroke="#333" stroke-width="10" x1="1285.0" x2="1221.0" y1="2501.0" y2="2501.0" /><line stroke="#333" stroke-width="10" x1="1477.0" x2="1477.0" y1="2821.0" y2="3013.0" /><line stroke="#333" stroke-width="10" x1="1541.0" x2="1285.0" y1="2629.0" y2="2501.0" /><line stroke="#333" stroke-width="10" x1="2245.0" x2="2245.0" y1="2117.0" y2="2085.0" /><line stroke="#333" stroke-width="10" x1="1541.0" x2="1541.0" y1="3013.0" y2="3029.0" /><line stroke="#333" stroke-width="10" x1="1733.0" x2="2245.0" y1="2821.0" y2="2821.0" /><line stroke="#333" stroke-width="10" x1="1669.0" x2="1733.0" y1="3013.0" y2="3013.0" /><line stroke="#999" stroke-width="3" x1="2245.0" x2="2245.0" y1="2821.0" y2="2693.0" /><line stroke="#333" stroke-width="10" x1="2117.0" x2="2117.0" y1="2693.0" y2="2437.0" /><line stroke="#333" stroke-width="10" x1="2245.0" x2="2117.0" y1="2693.0" y2="2693.0" /><line stroke="#333" stroke-width="10" x1="1925.0" x2="1861.0" y1="2629.0" y2="2629.0" /><line stroke="#333" stroke-width="10" x1="2053.0" x2="2053.0" y1="1957.0" y2="1989.0" /><line stroke="#333" stroke-width="10" x1="1477.0" x2="1541.0" y1="3013.0" y2="3013.0" /><line stroke="#333" stroke-width="10" x1="1733.0" x2="1733.0" y1="3013.0" y2="2821.0" /><line stroke="#999" stroke-width="3" x1="1541.0" x2="1669.0" y1="3077.0" y2="3077.0" /><line stroke="#333" stroke-width="10" x1="1669.0" x2="1669.0" y1="3045.0" y2="3029.0" /><line stroke="#333" stroke-width="10" x1="2245.0" x2="2245.0" y1="2821.0" y2="2837.0" /><line stroke="#333" stroke-width="10" x1="2245.0" x2="2501.0" y1="2901.0" y2="2901.0" /><line stroke="#333" stroke-width="10" x1="2501.0" x2="2501.0" y1="2901.0" y2="2805.0" /><line stroke="#333" stroke-width="10" x1="2501.0" x2="2245.0" y1="2613.0" y2="2613.0" /><line stroke="#333" stroke-width="10" x1="2245.0" x2="2245.0" y1="2613.0" y2="2677.0" /><line stroke="#333" stroke-width="10" x1="2245.0" x2="2245.0" y1="2837.0" y2="2901.0" /><line stroke="#333" stroke-width="10" x1="2245.0" x2="2245.0" y1="2677.0" y2="2693.0" /><line stroke="#333" stroke-width="10" x1="2501.0" x2="2501.0" y1="2805.0" y2="2789.0" /><line stroke="#333" stroke-width="10" x1="2501.0" x2="2533.0" y1="2789.0" y2="2789.0" /><line stroke="#333" stroke-width="10" x1="2501.0" x2="2501.0" y1="2725.0" y2="2709.0" /><line stroke="#333" stroke-width="10" x1="2501.0" x2="2501.0" y1="2709.0" y2="2613.0" /><line stroke="#999" stroke-width="3" x1="1733.0" x2="1861.0" y1="2821.0" y2="2629.0" /><line stroke="#333" stroke-width="10" x1="1861.0" x2="1541.0" y1="2629.0" y2="2629.0" /><line stroke="#333" stroke-width="10" x1="1925.0" x2="1925.0" y1="2373.0" y2="2629.0" /><line stroke="#333" stroke-width="10" x1="2053.0" x2="1925.0" y1="2117.0" y2="2373.0" /><line stroke="#333" stroke-width="10" x1="1093.0" x2="1029.0" y1="1477.0" y2="1349.0" /><line stroke="#333" stroke-width="10" x1="837.0" x2="1029.0" y1="1589.0" y2="1589.0" /><line stroke="#333" stroke-width="10" x1="725.0" x2="837.0" y1="1653.0" y2="1589.0" /><line stroke="#333" stroke-width="10" x1="629.0" x2="613.0" y1="1557.0" y2="1573.0" /><line stroke="#333" stroke-width="10" x1="773.0" x2="629.0" y1="1349.0" y2="1557.0" /><line stroke="#333" stroke-width="10" x1="1029.0" x2="773.0" y1="1349.0" y2="1349.0" /><line stroke="#999" stroke-width="3" x1="709.0" x2="613.0" y1="1669.0" y2="1573.0" /><line stroke="#333" stroke-width="10" x1="709.0" x2="725.0" y1="1669.0" y2="1653.0" /><line stroke="#333" stroke-width="10" x1="613.0" x2="581.0" y1="1573.0" y2="1573.0" /><line stroke="#999" stroke-width="3" x1="581.0" x2="549.0" y1="1573.0" y2="1573.0" /><line stroke="#999" stroke-width="3" x1="453.0" x2="453.0" y1="1573.0" y2="1957.0" /><line stroke="#333" stroke-width="10" x1="709.0" x2="709.0" y1="1957.0" y2="1669.0" /><line stroke="#333" stroke-width="10" x1="581.0" x2="581.0" y1="1573.0" y2="1221.0" /><line stroke="#333" stroke-width="10" x1="581.0" x2="261.0" y1="1221.0" y2="1221.0" /><line stroke="#333" stroke-width="10" x1="261.0" x2="5.0" y1="1221.0" y2="1541.0" /><line stroke="#333" stroke-width="10" x1="5.0" x2="149.0" y1="1541.0" y2="2213.0" /><line stroke="#333" stroke-width="10" x1="149.0" x2="517.0" y1="2213.0" y2="2373.0" /><line stroke="#333" stroke-width="10" x1="517.0" x2="709.0" y1="2373.0" y2="2181.0" /><line stroke="#333" stroke-width="10" x1="709.0" x2="709.0" y1="2181.0" y2="1957.0" /><line stroke="#999" stroke-width="3" x1="453.0" x2="677.0" y1="1957.0" y2="1957.0" /><line stroke="#999" stroke-width="3" x1="549.0" x2="453.0" y1="1573.0" y2="1573.0" /><line stroke="#999" stroke-width="3" x1="677.0" x2="709.0" y1="1957.0" y2="1957.0" /><line stroke="#999" stroke-width="3" x1="581.0" x2="517.0" y1="1221.0" y2="1317.0" /><line stroke="#999" stroke-width="3" x1="517.0" x2="293.0" y1="1317.0" y2="1317.0" /><line stroke="#999" stroke-width="3" x1="293.0" x2="101.0" y1="1317.0" y2="1573.0" /><line stroke="#999" stroke-width="3" x1="101.0" x2="229.0" y1="1573.0" y2="2149.0" /><line stroke="#999" stroke-width="3" x1="229.0" x2="517.0" y1="2149.0" y2="2277.0" /><line stroke="#999" stroke-width="3" x1="517.0" x2="709.0" y1="2277.0" y2="2181.0" /><line stroke="#333" stroke-width="10" x1="1541.0" x2="1541.0" y1="3045.0" y2="3061.0" /><line stroke="#666" stroke-width="20" x1="1541.0" x2="1669.0" y1="3045.0" y2="3045.0" /><line stroke="#333" stroke-width="10" x1="1669.0" x2="1669.0" y1="3061.0" y2="3045.0" /><line stroke="#333" stroke-width="10" x1="1541.0" x2="1541.0" y1="3061.0" y2="3077.0" /><line stroke="#666" stroke-width="20" x1="1669.0" x2="1541.0" y1="3061.0" y2="3061.0" /><line stroke="#333" stroke-width="10" x1="1669.0" x2="1669.0" y1="3077.0" y2="3061.0" /><line stroke="#333" stroke-width="10" x1="1541.0" x2="1541.0" y1="3029.0" y2="3045.0" /><line stroke="#333" stroke-width="10" x1="1669.0" x2="1669.0" y1="3029.0" y2="3013.0" /><line stroke="#999" stroke-width="3" x1="1541.0" x2="1669.0" y1="3013.0" y2="3013.0" /><line stroke="#333" stroke-width="10" x1="1541.0" x2="1413.0" y1="3077.0" y2="3077.0" /><line stroke="#333" stroke-width="10" x1="1189.0" x2="1189.0" y1="3301.0" y2="3685.0" /><line stroke="#333" stroke-width="10" x1="1189.0" x2="1413.0" y1="3685.0" y2="3909.0" /><line stroke="#333" stroke-width="10" x1="2021.0" x2="2021.0" y1="3685.0" y2="3301.0" /><line stroke="#333" stroke-width="10" x1="2021.0" x2="1797.0" y1="3301.0" y2="3077.0" /><line stroke="#999" stroke-width="3" x1="1541.0" x2="1669.0" y1="3333.0" y2="3333.0" /><line stroke="#999" stroke-width="3" x1="1669.0" x2="1669.0" y1="3333.0" y2="3141.0" /><line stroke="#999" stroke-width="3" x1="1669.0" x2="1541.0" y1="3141.0" y2="3141.0" /><line stroke="#999" stroke-width="3" x1="1541.0" x2="1541.0" y1="3141.0" y2="3333.0" /><line stroke="#666" stroke-width="20" x1="1573.0" x2="1573.0" y1="3621.0" y2="3557.0" /><line stroke="#999" stroke-width="3" x1="1509.0" x2="1573.0" y1="3493.0" y2="3493.0" /><line stroke="#999" stroke-width="3" x1="1509.0" x2="1509.0" y1="3557.0" y2="3493.0" /><line stroke="#999" stroke-width="3" x1="1573.0" x2="1509.0" y1="3557.0" y2="3557.0" /><line stroke="#333" stroke-width="10" x1="1573.0" x2="1573.0" y1="3493.0" y2="3429.0" /><line stroke="#333" stroke-width="10" x1="1573.0" x2="1637.0" y1="3429.0" y2="3429.0" /><line stroke="#333" stroke-width="10" x1="1637.0" x2="1637.0" y1="3429.0" y2="3493.0" /><line stroke="#999" stroke-width="3" x1="1701.0" x2="1637.0" y1="3557.0" y2="3557.0" /><line stroke="#999" stroke-width="3" x1="1701.0" x2="1701.0" y1="3493.0" y2="3557.0" /><line stroke="#999" stroke-width="3" x1="1637.0" x2="1701.0" y1="3493.0" y2="3493.0" /><line stroke="#333" stroke-width="10" x1="1637.0" x2="1637.0" y1="3557.0" y2="3621.0" /><line stroke="#333" stroke-width="10" x1="1637.0" x2="1573.0" y1="3621.0" y2="3621.0" /><line stroke="#999" stroke-width="3" x1="1477.0" x2="1477.0" y1="3653.0" y2="3397.0" /><line stroke="#999" stroke-width="3" x1="1477.0" x2="1733.0" y1="3397.0" y2="3397.0" /><line stroke="#999" stroke-width="3" x1="1733.0" x2="1733.0" y1="3397.0" y2="3653.0" /><line stroke="#999" stroke-width="3" x1="1733.0" x2="1477.0" y1="3653.0" y2="3653.0" /><line stroke="#333" stroke-width="10" x1="1637.0" x2="1573.0" y1="3493.0" y2="3493.0" /><line stroke="#999" stroke-width="3" x1="1637.0" x2="1637.0" y1="3493.0" y2="3557.0" /><line stroke="#999" stroke-width="3" x1="1573.0" x2="1573.0" y1="3557.0" y2="3493.0" /><line stroke="#333" stroke-width="10" x1="1573.0" x2="1637.0" y1="3557.0" y2="3557.0" /><line stroke="#333" stroke-width="10" x1="1413.0" x2="1189.0" y1="3077.0" y2="3301.0" /><line stroke="#333" stroke-width="10" x1="1797.0" x2="1669.0" y1="3077.0" y2="3077.0" /><line stroke="#333" stroke-width="10" x1="1413.0" x2="1797.0" y1="3909.0" y2="3909.0" /><line stroke="#999" stroke-width="3" x1="1797.0" x2="2021.0" y1="3909.0" y2="3685.0" /><line stroke="#333" stroke-width="10" x1="1797.0" x2="1813.0" y1="3909.0" y2="3925.0" /><line stroke="#999" stroke-width="3" x1="2037.0" x2="1813.0" y1="3701.0" y2="3925.0" /><line stroke="#333" stroke-width="10" x1="2037.0" x2="2021.0" y1="3701.0" y2="3685.0" /><line stroke="#333" stroke-width="10" x1="1813.0" x2="1973.0" y1="3925.0" y2="4085.0" /><line stroke="#333" stroke-width="10" x1="1973.0" x2="2165.0" y1="4085.0" y2="4053.0" /><line stroke="#333" stroke-width="10" x1="2197.0" x2="2037.0" y1="3861.0" y2="3701.0" /><line stroke="#333" stroke-width="10" x1="2165.0" x2="2197.0" y1="4053.0" y2="3861.0" /><line stroke="#999" stroke-width="3" x1="2053.0" x2="2053.0" y1="3973.0" y2="3909.0" /><line stroke="#999" stroke-width="3" x1="2053.0" x2="2117.0" y1="3909.0" y2="3909.0" /><line stroke="#999" stroke-width="3" x1="2117.0" x2="2117.0" y1="3909.0" y2="3973.0" /><line stroke="#999" stroke-width="3" x1="2117.0" x2="2053.0" y1="3973.0" y2="3973.0" /><line stroke="#999" stroke-width="3" x1="2037.0" x2="2037.0" y1="3989.0" y2="3893.0" /><line stroke="#999" stroke-width="3" x1="2037.0" x2="2133.0" y1="3893.0" y2="3893.0" /><line stroke="#999" stroke-width="3" x1="2133.0" x2="2133.0" y1="3893.0" y2="3989.0" /><line stroke="#999" stroke-width="3" x1="2133.0" x2="2037.0" y1="3989.0" y2="3989.0" /><line stroke="#999" stroke-width="3" x1="2501.0" x2="2501.0" y1="2789.0" y2="2725.0" /><line stroke="#333" stroke-width="10" x1="2533.0" x2="2501.0" y1="2725.0" y2="2725.0" /><line stroke="#999" stroke-width="3" x1="2533.0" x2="2533.0" y1="2725.0" y2="2789.0" /><line stroke="#333" stroke-width="10" x1="2533.0" x2="2573.0" y1="2789.0" y2="2877.0" /><line stroke="#333" stroke-width="10" x1="2573.0" x2="2701.0" y1="2877.0" y2="2885.0" /><line stroke="#333" stroke-width="10" x1="2813.0" x2="2701.0" y1="2693.0" y2="2629.0" /><line stroke="#333" stroke-width="10" x1="2573.0" x2="2533.0" y1="2637.0" y2="2725.0" /><line stroke="#333" stroke-width="10" x1="2701.0" x2="2813.0" y1="2885.0" y2="2821.0" /><line stroke="#333" stroke-width="10" x1="2701.0" x2="2573.0" y1="2629.0" y2="2637.0" /><line stroke="#333" stroke-width="10" x1="2813.0" x2="2813.0" y1="2821.0" y2="2693.0" /><line stroke="#333" stroke-width="10" x1="2053.0" x2="2053.0" y1="1989.0" y2="2117.0" /><line stroke="#999" stroke-width="3" x1="2053.0" x2="2245.0" y1="1957.0" y2="2085.0" /><line stroke="#333" stroke-width="10" x1="1925.0" x2="2053.0" y1="1797.0" y2="1957.0" /><line stroke="#333" stroke-width="10" x1="1669.0" x2="1701.0" y1="1797.0" y2="1797.0" /><line stroke="#333" stroke-width="10" x1="2181.0" x2="1925.0" y1="1413.0" y2="1605.0" /><line stroke="#333" stroke-width="10" x1="2469.0" x2="2469.0" y1="1477.0" y2="1413.0" /><line stroke="#333" stroke-width="10" x1="2949.0" x2="3205.0" y1="2085.0" y2="1989.0" /><line stroke="#333" stroke-width="10" x1="2245.0" x2="2757.0" y1="2085.0" y2="2085.0" /><line stroke="#999" stroke-width="3" x1="2053.0" x2="2245.0" y1="1989.0" y2="2085.0" /><line stroke="#999" stroke-width="3" x1="2053.0" x2="2213.0" y1="1957.0" y2="1925.0" /><line stroke="#999" stroke-width="3" x1="2213.0" x2="2245.0" y1="1925.0" y2="2085.0" /><line stroke="#999" stroke-width="3" x1="2053.0" x2="2245.0" y1="2117.0" y2="2117.0" /><line stroke="#333" stroke-width="10" x1="1925.0" x2="1893.0" y1="1605.0" y2="1605.0" /><line stroke="#333" stroke-width="10" x1="1605.0" x2="1605.0" y1="1605.0" y2="1653.0" /><line stroke="#333" stroke-width="10" x1="1605.0" x2="1669.0" y1="1797.0" y2="1797.0" /><line stroke="#999" stroke-width="3" x1="1669.0" x2="1669.0" y1="1605.0" y2="1797.0" /><line stroke="#333" stroke-width="10" x1="1669.0" x2="1605.0" y1="1605.0" y2="1605.0" /><line stroke="#999" stroke-width="3" x1="1925.0" x2="1925.0" y1="1605.0" y2="1797.0" /><line stroke="#999" stroke-width="3" x1="1701.0" x2="1701.0" y1="1605.0" y2="1797.0" /><line stroke="#333" stroke-width="10" x1="1701.0" x2="1733.0" y1="1797.0" y2="1797.0" /><line stroke="#333" stroke-width="10" x1="1701.0" x2="1669.0" y1="1605.0" y2="1605.0" /><line stroke="#999" stroke-width="3" x1="1733.0" x2="1733.0" y1="1605.0" y2="1797.0" /><line stroke="#333" stroke-width="10" x1="1733.0" x2="1701.0" y1="1605.0" y2="1605.0" /><line stroke="#333" stroke-width="10" x1="1733.0" x2="1765.0" y1="1797.0" y2="1797.0" /><line stroke="#999" stroke-width="3" x1="1765.0" x2="1765.0" y1="1605.0" y2="1797.0" /><line stroke="#333" stroke-width="10" x1="1765.0" x2="1733.0" y1="1605.0" y2="1605.0" /><line stroke="#333" stroke-width="10" x1="1765.0" x2="1797.0" y1="1797.0" y2="1797.0" /><line stroke="#999" stroke-width="3" x1="1797.0" x2="1797.0" y1="1605.0" y2="1797.0" /><line stroke="#333" stroke-width="10" x1="1797.0" x2="1765.0" y1="1605.0" y2="1605.0" /><line stroke="#333" stroke-width="10" x1="1797.0" x2="1829.0" y1="1797.0" y2="1797.0" /><line stroke="#999" stroke-width="3" x1="1829.0" x2="1829.0" y1="1605.0" y2="1797.0" /><line stroke="#333" stroke-width="10" x1="1829.0" x2="1797.0" y1="1605.0" y2="1605.0" /><line stroke="#333" stroke-width="10" x1="1829.0" x2="1861.0" y1="1797.0" y2="1797.0" /><line stroke="#999" stroke-width="3" x1="1861.0" x2="1861.0" y1="1605.0" y2="1797.0" /><line stroke="#333" stroke-width="10" x1="1861.0" x2="1829.0" y1="1605.0" y2="1605.0" /><line stroke="#333" stroke-width="10" x1="1861.0" x2="1893.0" y1="1797.0" y2="1797.0" /><line stroke="#999" stroke-width="3" x1="1893.0" x2="1893.0" y1="1605.0" y2="1797.0" /><line stroke="#333" stroke-width="10" x1="1893.0" x2="1861.0" y1="1605.0" y2="1605.0" /><line stroke="#333" stroke-width="10" x1="1893.0" x2="1925.0" y1="1797.0" y2="1797.0" /><line stroke="#999" stroke-width="3" x1="1589.0" x2="1589.0" y1="1749.0" y2="1653.0" /><line stroke="#333" stroke-width="10" x1="1605.0" x2="1605.0" y1="1749.0" y2="1797.0" /><line stroke="#333" stroke-width="10" x1="1605.0" x2="1589.0" y1="1653.0" y2="1653.0" /><line stroke="#666" stroke-width="20" x1="1605.0" x2="1605.0" y1="1653.0" y2="1749.0" /><line stroke="#333" stroke-width="10" x1="1589.0" x2="1605.0" y1="1749.0" y2="1749.0" /><line stroke="#333" stroke-width="10" x1="1589.0" x2="1429.0" y1="1653.0" y2="1653.0" /><line stroke="#666" stroke-width="20" x1="1429.0" x2="1429.0" y1="1653.0" y2="1749.0" /><line stroke="#333" stroke-width="10" x1="1429.0" x2="1589.0" y1="1749.0" y2="1749.0" /><line stroke="#999" stroke-width="3" x1="2117.0" x2="2117.0" y1="1733.0" y2="1605.0" /><line stroke="#999" stroke-width="3" x1="2117.0" x2="2245.0" y1="1605.0" y2="1605.0" /><line stroke="#999" stroke-width="3" x1="2245.0" x2="2245.0" y1="1605.0" y2="1733.0" /><line stroke="#999" stroke-width="3" x1="2245.0" x2="2117.0" y1="1733.0" y2="1733.0" /><line stroke="#999" stroke-width="3" x1="2117.0" x2="2069.0" y1="1781.0" y2="1733.0" /><line stroke="#999" stroke-width="3" x1="2069.0" x2="2069.0" y1="1733.0" y2="1605.0" /><line stroke="#999" stroke-width="3" x1="2069.0" x2="2117.0" y1="1605.0" y2="1557.0" /><line stroke="#999" stroke-width="3" x1="2117.0" x2="2245.0" y1="1557.0" y2="1557.0" /><line stroke="#999" stroke-width="3" x1="2245.0" x2="2293.0" y1="1557.0" y2="1605.0" /><line stroke="#999" stroke-width="3" x1="2293.0" x2="2293.0" y1="1605.0" y2="1733.0" /><line stroke="#999" stroke-width="3" x1="2293.0" x2="2245.0" y1="1733.0" y2="1781.0" /><line stroke="#999" stroke-width="3" x1="2245.0" x2="2117.0" y1="1781.0" y2="1781.0" /><line stroke="#333" stroke-width="10" x1="2469.0" x2="2181.0" y1="1413.0" y2="1413.0" /><line stroke="#333" stroke-width="10" x1="3205.0" x2="3077.0" y1="1637.0" y2="1413.0" /><line stroke="#333" stroke-width="10" x1="2533.0" x2="2533.0" y1="1413.0" y2="1477.0" /><line stroke="#333" stroke-width="10" x1="2437.0" x2="2469.0" y1="1509.0" y2="1477.0" /><line stroke="#333" stroke-width="10" x1="2437.0" x2="2437.0" y1="1573.0" y2="1509.0" /><line stroke="#333" stroke-width="10" x1="2469.0" x2="2437.0" y1="1605.0" y2="1573.0" /><line stroke="#999" stroke-width="3" x1="2821.0" x2="2917.0" y1="1765.0" y2="1669.0" /><line stroke="#333" stroke-width="10" x1="2533.0" x2="2469.0" y1="1605.0" y2="1605.0" /><line stroke="#333" stroke-width="10" x1="2565.0" x2="2565.0" y1="1509.0" y2="1573.0" /><line stroke="#333" stroke-width="10" x1="2533.0" x2="2565.0" y1="1477.0" y2="1509.0" /><line stroke="#333" stroke-width="10" x1="2853.0" x2="2805.0" y1="1413.0" y2="1349.0" /><line stroke="#333" stroke-width="10" x1="2917.0" x2="2917.0" y1="1413.0" y2="1477.0" /><line stroke="#333" stroke-width="10" x1="2853.0" x2="2853.0" y1="1477.0" y2="1413.0" /><line stroke="#333" stroke-width="10" x1="2917.0" x2="2949.0" y1="1477.0" y2="1509.0" /><line stroke="#333" stroke-width="10" x1="2821.0" x2="2853.0" y1="1509.0" y2="1477.0" /><line stroke="#333" stroke-width="10" x1="2949.0" x2="2949.0" y1="1509.0" y2="1573.0" /><line stroke="#333" stroke-width="10" x1="2917.0" x2="2853.0" y1="1605.0" y2="1605.0" /><line stroke="#333" stroke-width="10" x1="2949.0" x2="2917.0" y1="1573.0" y2="1605.0" /><line stroke="#999" stroke-width="3" x1="2597.0" x2="2693.0" y1="1893.0" y2="1797.0" /><line stroke="#333" stroke-width="10" x1="2853.0" x2="2821.0" y1="1605.0" y2="1573.0" /><line stroke="#333" stroke-width="10" x1="2581.0" x2="2533.0" y1="1349.0" y2="1413.0" /><line stroke="#999" stroke-width="3" x1="2805.0" x2="2757.0" y1="1349.0" y2="1349.0" /><line stroke="#333" stroke-width="10" x1="2501.0" x2="2517.0" y1="1285.0" y2="1285.0" /><line stroke="#333" stroke-width="10" x1="2869.0" x2="2885.0" y1="1285.0" y2="1285.0" /><line stroke="#333" stroke-width="10" x1="2805.0" x2="2805.0" y1="1349.0" y2="1317.0" /><line stroke="#999" stroke-width="3" x1="2469.0" x2="2501.0" y1="1605.0" y2="1669.0" /><line stroke="#999" stroke-width="3" x1="2501.0" x2="2469.0" y1="1669.0" y2="1765.0" /><line stroke="#999" stroke-width="3" x1="2469.0" x2="2373.0" y1="1765.0" y2="1829.0" /><line stroke="#999" stroke-width="3" x1="2373.0" x2="2373.0" y1="1829.0" y2="1893.0" /><line stroke="#999" stroke-width="3" x1="2373.0" x2="2469.0" y1="1893.0" y2="1925.0" /><line stroke="#999" stroke-width="3" x1="2469.0" x2="2597.0" y1="1925.0" y2="1893.0" /><line stroke="#999" stroke-width="3" x1="2693.0" x2="2821.0" y1="1797.0" y2="1765.0" /><line stroke="#333" stroke-width="10" x1="2821.0" x2="2821.0" y1="1573.0" y2="1509.0" /><line stroke="#333" stroke-width="10" x1="2565.0" x2="2533.0" y1="1573.0" y2="1605.0" /><line stroke="#999" stroke-width="3" x1="2917.0" x2="2917.0" y1="1669.0" y2="1605.0" /><line stroke="#999" stroke-width="3" x1="2757.0" x2="2741.0" y1="1349.0" y2="1381.0" /><line stroke="#999" stroke-width="3" x1="2725.0" x2="2629.0" y1="1413.0" y2="1413.0" /><line stroke="#999" stroke-width="3" x1="2645.0" x2="2629.0" y1="1381.0" y2="1349.0" /><line stroke="#999" stroke-width="3" x1="2757.0" x2="2629.0" y1="1349.0" y2="1349.0" /><line stroke="#999" stroke-width="3" x1="2629.0" x2="2581.0" y1="1349.0" y2="1349.0" /><line stroke="#999" stroke-width="3" x1="2629.0" x2="2645.0" y1="1413.0" y2="1381.0" /><line stroke="#999" stroke-width="3" x1="2741.0" x2="2645.0" y1="1381.0" y2="1381.0" /><line stroke="#999" stroke-width="3" x1="2741.0" x2="2725.0" y1="1381.0" y2="1413.0" /><line stroke="#999" stroke-width="3" x1="2725.0" x2="2741.0" y1="1413.0" y2="1445.0" /><line stroke="#999" stroke-width="3" x1="2741.0" x2="2645.0" y1="1445.0" y2="1445.0" /><line stroke="#999" stroke-width="3" x1="2645.0" x2="2629.0" y1="1445.0" y2="1413.0" /><line stroke="#999" stroke-width="3" x1="2741.0" x2="2757.0" y1="1445.0" y2="1477.0" /><line stroke="#999" stroke-width="3" x1="2741.0" x2="2645.0" y1="1509.0" y2="1509.0" /><line stroke="#999" stroke-width="3" x1="2661.0" x2="2645.0" y1="1477.0" y2="1445.0" /><line stroke="#999" stroke-width="3" x1="2757.0" x2="2741.0" y1="1477.0" y2="1509.0" /><line stroke="#999" stroke-width="3" x1="2757.0" x2="2661.0" y1="1477.0" y2="1477.0" /><line stroke="#999" stroke-width="3" x1="2645.0" x2="2661.0" y1="1509.0" y2="1477.0" /><line stroke="#999" stroke-width="3" x1="2821.0" x2="2789.0" y1="1573.0" y2="1621.0" /><line stroke="#999" stroke-width="3" x1="2789.0" x2="2741.0" y1="1621.0" y2="1637.0" /><line stroke="#999" stroke-width="3" x1="2741.0" x2="2645.0" y1="1637.0" y2="1637.0" /><line stroke="#999" stroke-width="3" x1="2645.0" x2="2597.0" y1="1637.0" y2="1621.0" /><line stroke="#999" stroke-width="3" x1="2597.0" x2="2565.0" y1="1621.0" y2="1573.0" /><line stroke="#333" stroke-width="10" x1="3077.0" x2="3013.0" y1="1413.0" y2="1413.0" /><line stroke="#999" stroke-width="3" x1="2885.0" x2="2885.0" y1="1925.0" y2="1797.0" /><line stroke="#999" stroke-width="3" x1="2885.0" x2="3013.0" y1="1797.0" y2="1797.0" /><line stroke="#999" stroke-width="3" x1="3013.0" x2="3013.0" y1="1797.0" y2="1925.0" /><line stroke="#999" stroke-width="3" x1="3013.0" x2="2885.0" y1="1925.0" y2="1925.0" /><line stroke="#999" stroke-width="3" x1="2885.0" x2="2837.0" y1="1973.0" y2="1925.0" /><line stroke="#999" stroke-width="3" x1="2837.0" x2="2837.0" y1="1925.0" y2="1797.0" /><line stroke="#999" stroke-width="3" x1="2837.0" x2="2885.0" y1="1797.0" y2="1749.0" /><line stroke="#999" stroke-width="3" x1="2885.0" x2="3013.0" y1="1749.0" y2="1749.0" /><line stroke="#999" stroke-width="3" x1="3013.0" x2="3061.0" y1="1749.0" y2="1797.0" /><line stroke="#999" stroke-width="3" x1="3061.0" x2="3061.0" y1="1797.0" y2="1925.0" /><line stroke="#999" stroke-width="3" x1="3061.0" x2="3013.0" y1="1925.0" y2="1973.0" /><line stroke="#999" stroke-width="3" x1="3013.0" x2="2885.0" y1="1973.0" y2="1973.0" /><line stroke="#333" stroke-width="10" x1="3205.0" x2="3205.0" y1="1797.0" y2="1749.0" /><line stroke="#999" stroke-width="3" x1="2757.0" x2="2949.0" y1="2085.0" y2="2085.0" /><line stroke="#333" stroke-width="10" x1="2757.0" x2="2757.0" y1="2085.0" y2="2117.0" /><line stroke="#333" stroke-width="10" x1="2757.0" x2="2757.0" y1="2117.0" y2="2245.0" /><line stroke="#333" stroke-width="10" x1="2757.0" x2="2821.0" y1="2245.0" y2="2245.0" /><line stroke="#333" stroke-width="10" x1="2821.0" x2="2821.0" y1="2245.0" y2="2269.0" /><line stroke="#666" stroke-width="20" x1="2885.0" x2="2821.0" y1="2277.0" y2="2277.0" /><line stroke="#333" stroke-width="10" x1="2885.0" x2="2885.0" y1="2269.0" y2="2245.0" /><line stroke="#333" stroke-width="10" x1="2885.0" x2="2949.0" y1="2245.0" y2="2245.0" /><line stroke="#333" stroke-width="10" x1="2949.0" x2="2949.0" y1="2245.0" y2="2117.0" /><line stroke="#333" stroke-width="10" x1="2949.0" x2="2949.0" y1="2117.0" y2="2085.0" /><line stroke="#999" stroke-width="3" x1="2821.0" x2="2885.0" y1="2245.0" y2="2245.0" /><line stroke="#333" stroke-width="10" x1="2821.0" x2="2821.0" y1="2269.0" y2="2277.0" /><line stroke="#666" stroke-width="20" x1="2821.0" x2="2885.0" y1="2269.0" y2="2269.0" /><line stroke="#333" stroke-width="10" x1="2885.0" x2="2885.0" y1="2277.0" y2="2269.0" /><line stroke="#333" stroke-width="10" x1="2821.0" x2="2805.0" y1="2277.0" y2="2293.0" /><line stroke="#333" stroke-width="10" x1="2805.0" x2="2745.0" y1="2293.0" y2="2317.0" /><line stroke="#0d0" stroke-width="20" x1="2789.0" x2="2917.0" y1="2437.0" y2="2437.0" /><line stroke="#333" stroke-width="10" x1="2917.0" x2="2961.0" y1="2437.0" y2="2317.0" /><line stroke="#333" stroke-width="10" x1="2901.0" x2="2885.0" y1="2293.0" y2="2277.0" /><line stroke="#999" stroke-width="3" x1="2901.0" x2="2805.0" y1="2293.0" y2="2293.0" /><line stroke="#333" stroke-width="10" x1="2745.0" x2="2789.0" y1="2317.0" y2="2437.0" /><line stroke="#333" stroke-width="10" x1="2961.0" x2="2901.0" y1="2317.0" y2="2293.0" /><line stroke="#999" stroke-width="3" x1="2805.0" x2="2805.0" y1="2229.0" y2="2213.0" /><line stroke="#999" stroke-width="3" x1="2805.0" x2="2837.0" y1="2213.0" y2="2213.0" /><line stroke="#999" stroke-width="3" x1="2837.0" x2="2837.0" y1="2213.0" y2="2229.0" /><line stroke="#999" stroke-width="3" x1="2837.0" x2="2805.0" y1="2229.0" y2="2229.0" /><line stroke="#999" stroke-width="3" x1="3013.0" x2="2917.0" y1="1413.0" y2="1413.0" /><line stroke="#333" stroke-width="10" x1="3013.0" x2="3013.0" y1="1413.0" y2="1397.0" /><line stroke="#999" stroke-width="3" x1="2885.0" x2="2885.0" y1="1253.0" y2="1285.0" /><line stroke="#333" stroke-width="10" x1="2917.0" x2="2917.0" y1="1397.0" y2="1413.0" /><line stroke="#333" stroke-width="10" x1="2805.0" x2="2869.0" y1="1317.0" y2="1285.0" /><line stroke="#333" stroke-width="10" x1="2581.0" x2="2581.0" y1="1317.0" y2="1349.0" /><line stroke="#999" stroke-width="3" x1="2821.0" x2="2885.0" y1="1141.0" y2="1205.0" /><line stroke="#333" stroke-width="10" x1="2517.0" x2="2581.0" y1="1285.0" y2="1317.0" /><line stroke="#999" stroke-width="3" x1="2501.0" x2="2501.0" y1="1285.0" y2="1205.0" /><line stroke="#333" stroke-width="10" x1="2821.0" x2="2789.0" y1="1157.0" y2="1157.0" /><line stroke="#999" stroke-width="3" x1="2885.0" x2="2981.0" y1="1285.0" y2="1285.0" /><line stroke="#999" stroke-width="3" x1="2981.0" x2="3013.0" y1="1285.0" y2="1397.0" /><line stroke="#333" stroke-width="10" x1="3013.0" x2="3045.0" y1="1397.0" y2="1397.0" /><line stroke="#333" stroke-width="10" x1="2565.0" x2="2597.0" y1="1141.0" y2="1141.0" /><line stroke="#999" stroke-width="3" x1="2885.0" x2="2885.0" y1="1221.0" y2="1253.0" /><line stroke="#999" stroke-width="3" x1="2565.0" x2="2517.0" y1="1157.0" y2="1221.0" /><line stroke="#999" stroke-width="3" x1="2517.0" x2="2517.0" y1="1221.0" y2="1285.0" /><line stroke="#999" stroke-width="3" x1="3221.0" x2="3429.0" y1="1461.0" y2="1221.0" /><line stroke="#333" stroke-width="10" x1="3109.0" x2="3221.0" y1="1397.0" y2="1461.0" /><line stroke="#999" stroke-width="3" x1="2373.0" x2="1749.0" y1="261.0" y2="485.0" /><line stroke="#333" stroke-width="10" x1="1637.0" x2="1637.0" y1="37.0" y2="293.0" /><line stroke="#999" stroke-width="3" x1="3429.0" x2="3205.0" y1="1221.0" y2="645.0" /><line stroke="#666" stroke-width="20" x1="2917.0" x2="3013.0" y1="1397.0" y2="1397.0" /><line stroke="#333" stroke-width="10" x1="2885.0" x2="2917.0" y1="1285.0" y2="1397.0" /><line stroke="#999" stroke-width="3" x1="2885.0" x2="3005.0" y1="1253.0" y2="1253.0" /><line stroke="#999" stroke-width="3" x1="3005.0" x2="3045.0" y1="1253.0" y2="1397.0" /><line stroke="#333" stroke-width="10" x1="3045.0" x2="3077.0" y1="1397.0" y2="1397.0" /><line stroke="#333" stroke-width="10" x1="2789.0" x2="2821.0" y1="1141.0" y2="1141.0" /><line stroke="#999" stroke-width="3" x1="2885.0" x2="3029.0" y1="1221.0" y2="1221.0" /><line stroke="#999" stroke-width="3" x1="3029.0" x2="3077.0" y1="1221.0" y2="1397.0" /><line stroke="#999" stroke-width="3" x1="2885.0" x2="2885.0" y1="1205.0" y2="1221.0" /><line stroke="#333" stroke-width="10" x1="3077.0" x2="3109.0" y1="1397.0" y2="1397.0" /><line stroke="#333" stroke-width="10" x1="1989.0" x2="2501.0" y1="1285.0" y2="1285.0" /><line stroke="#333" stroke-width="10" x1="1861.0" x2="1861.0" y1="677.0" y2="1029.0" /><line stroke="#999" stroke-width="3" x1="3205.0" x2="2373.0" y1="645.0" y2="261.0" /><line stroke="#333" stroke-width="10" x1="3221.0" x2="3333.0" y1="1461.0" y2="1525.0" /><line stroke="#333" stroke-width="10" x1="3717.0" x2="1637.0" y1="5.0" y2="37.0" /><line stroke="#999" stroke-width="3" x1="2373.0" x2="1637.0" y1="101.0" y2="293.0" /><line stroke="#999" stroke-width="3" x1="3333.0" x2="2373.0" y1="517.0" y2="101.0" /><line stroke="#999" stroke-width="3" x1="3589.0" x2="3333.0" y1="1285.0" y2="517.0" /><line stroke="#999" stroke-width="3" x1="3333.0" x2="3589.0" y1="1525.0" y2="1285.0" /><line stroke="#333" stroke-width="10" x1="1637.0" x2="1749.0" y1="293.0" y2="485.0" /><line stroke="#333" stroke-width="10" x1="3333.0" x2="3717.0" y1="1525.0" y2="1541.0" /><line stroke="#333" stroke-width="10" x1="3717.0" x2="3717.0" y1="1541.0" y2="5.0" /><line stroke="#333" stroke-width="10" x1="1861.0" x2="1989.0" y1="1029.0" y2="1285.0" /><line stroke="#999" stroke-width="3" x1="3173.0" x2="3221.0" y1="1125.0" y2="1461.0" /><line stroke="#999" stroke-width="3" x1="1861.0" x2="2373.0" y1="677.0" y2="549.0" /><line stroke="#333" stroke-width="10" x1="1749.0" x2="1861.0" y1="485.0" y2="677.0" /><line stroke="#999" stroke-width="3" x1="2373.0" x2="2981.0" y1="549.0" y2="773.0" /><line stroke="#999" stroke-width="3" x1="2981.0" x2="3173.0" y1="773.0" y2="1125.0" /><line stroke="#333" stroke-width="10" x1="2565.0" x2="2565.0" y1="1157.0" y2="1141.0" /><line stroke="#333" stroke-width="10" x1="2597.0" x2="2565.0" y1="1157.0" y2="1157.0" /><line stroke="#999" stroke-width="3" x1="2501.0" x2="2565.0" y1="1205.0" y2="1141.0" /><line stroke="#333" stroke-width="10" x1="2821.0" x2="2821.0" y1="1141.0" y2="1157.0" /><line stroke="#999" stroke-width="3" x1="2869.0" x2="2821.0" y1="1221.0" y2="1157.0" /><line stroke="#999" stroke-width="3" x1="2869.0" x2="2869.0" y1="1285.0" y2="1221.0" /><line stroke="#333" stroke-width="10" x1="2597.0" x2="2597.0" y1="1141.0" y2="1157.0" /><line stroke="#999" stroke-width="3" x1="2789.0" x2="2597.0" y1="1157.0" y2="1157.0" /><line stroke="#333" stroke-width="10" x1="2789.0" x2="2789.0" y1="1157.0" y2="1141.0" /><line stroke="#999" stroke-width="3" x1="2597.0" x2="2789.0" y1="1141.0" y2="1141.0" /><line stroke="#999" stroke-width="3" x1="3205.0" x2="3205.0" y1="1989.0" y2="1957.0" /><line stroke="#333" stroke-width="10" x1="3221.0" x2="3205.0" y1="1797.0" y2="1797.0" /><line stroke="#333" stroke-width="10" x1="3333.0" x2="3333.0" y1="1989.0" y2="1797.0" /><line stroke="#333" stroke-width="10" x1="3205.0" x2="3333.0" y1="1989.0" y2="1989.0" /><line stroke="#999" stroke-width="3" x1="3205.0" x2="3205.0" y1="1957.0" y2="1829.0" /><line stroke="#999" stroke-width="3" x1="3205.0" x2="3205.0" y1="1829.0" y2="1797.0" /><line stroke="#666" stroke-width="20" x1="3205.0" x2="3205.0" y1="1749.0" y2="1637.0" /><line stroke="#333" stroke-width="10" x1="3221.0" x2="3205.0" y1="1637.0" y2="1637.0" /><line stroke="#666" stroke-width="20" x1="3221.0" x2="3221.0" y1="1637.0" y2="1749.0" /><line stroke="#333" stroke-width="10" x1="3205.0" x2="3221.0" y1="1749.0" y2="1749.0" /><line stroke="#333" stroke-width="10" x1="3221.0" x2="3221.0" y1="1749.0" y2="1781.0" /><line stroke="#666" stroke-width="20" x1="3221.0" x2="3333.0" y1="1781.0" y2="1781.0" /><line stroke="#333" stroke-width="10" x1="3333.0" x2="3333.0" y1="1781.0" y2="1637.0" /><line stroke="#333" stroke-width="10" x1="3333.0" x2="3221.0" y1="1637.0" y2="1637.0" /><line stroke="#333" stroke-width="10" x1="3221.0" x2="3221.0" y1="1781.0" y2="1797.0" /><line stroke="#666" stroke-width="20" x1="3333.0" x2="3221.0" y1="1797.0" y2="1797.0" /><line stroke="#333" stroke-width="10" x1="3333.0" x2="3333.0" y1="1797.0" y2="1781.0" /><ellipse cx="1157.0" cy="1637.0" fill="#009" rx="12" ry="24" stroke="#009" stroke-width="5" /><rect fill="#090" height="24" stroke="#090" stroke-width="5" transform="rotate(0,1509.0,2981.0)" width="24" x="1497.0" y="2969.0" /><rect fill="#090" height="24" stroke="#090" stroke-width="5" transform="rotate(0,1701.0,2981.0)" width="24" x="1689.0" y="2969.0" /><circle cx="2469.0" cy="2789.0" fill="#009" r="16" stroke="#009" stroke-width="5" /><circle cx="2405.0" cy="2725.0" fill="#009" r="16" stroke="#009" stroke-width="5" /><circle cx="2405.0" cy="2853.0" fill="#009" r="16" stroke="#009" stroke-width="5" /><circle cx="2469.0" cy="2853.0" fill="#009" r="16" stroke="#009" stroke-width="5" /><circle cx="2405.0" cy="2789.0" fill="#009" r="16" stroke="#009" stroke-width="5" /><circle cx="2469.0" cy="2725.0" fill="#009" r="16" stroke="#009" stroke-width="5" /><circle cx="2405.0" cy="2661.0" fill="#009" r="16" stroke="#009" stroke-width="5" /><circle cx="2469.0" cy="2661.0" fill="#009" r="16" stroke="#009" stroke-width="5" /><rect fill="#900" height="48" stroke="#900" stroke-width="5" transform="rotate(90,1061.0,2149.0)" width="32" x="1045.0" y="2125.0" /><rect fill="#900" height="48" stroke="#900" stroke-width="5" transform="rotate(90,1253.0,2085.0)" width="32" x="1237.0" y="2061.0" /><rect fill="#900" height="48" stroke="#900" stroke-width="5" transform="rotate(315,933.0,2117.0)" width="32" x="917.0" y="2093.0" /><rect fill="#900" height="48" stroke="#900" stroke-width="5" transform="rotate(225,1381.0,2117.0)" width="32" x="1365.0" y="2093.0" /><rect fill="#900" height="48" stroke="#900" stroke-width="5" transform="rotate(270,1125.0,2549.0)" width="32" x="1109.0" y="2525.0" /><rect fill="#900" height="48" stroke="#900" stroke-width="5" transform="rotate(270,1189.0,2517.0)" width="32" x="1173.0" y="2493.0" /><circle cx="645.0" cy="1925.0" fill="#900" r="16" stroke="#900" stroke-width="5" /><circle cx="1349.0" cy="2245.0" fill="#009" r="16" stroke="#009" stroke-width="5" /><circle cx="965.0" cy="2245.0" fill="#090" r="16" stroke="#090" stroke-width="5" /><circle cx="1317.0" cy="2021.0" fill="#009" r="16" stroke="#009" stroke-width="5" /><rect fill="#900" height="48" stroke="#900" stroke-width="5" transform="rotate(225,1541.0,2821.0)" width="32" x="1525.0" y="2797.0" /><rect fill="#900" height="48" stroke="#900" stroke-width="5" transform="rotate(225,1509.0,2725.0)" width="32" x="1493.0" y="2701.0" /><rect fill="#900" height="48" stroke="#900" stroke-width="5" transform="rotate(225,1669.0,2725.0)" width="32" x="1653.0" y="2701.0" /><rect fill="#900" height="48" stroke="#900" stroke-width="5" transform="rotate(180,2181.0,2757.0)" width="32" x="2165.0" y="2733.0" /><rect fill="#900" height="48" stroke="#900" stroke-width="5" transform="rotate(90,2149.0,2149.0)" width="32" x="2133.0" y="2125.0" /><rect fill="#900" height="48" stroke="#900" stroke-width="5" transform="rotate(270,1541.0,3525.0)" width="32" x="1525.0" y="3501.0" /><rect fill="#900" height="48" stroke="#900" stroke-width="5" transform="rotate(270,1669.0,3525.0)" width="32" x="1653.0" y="3501.0" /><circle cx="2085.0" cy="3941.0" fill="#009" r="16" stroke="#009" stroke-width="5" /><circle cx="2773.0" cy="2757.0" fill="#900" r="16" stroke="#900" stroke-width="5" /><ellipse cx="1109.0" cy="1637.0" fill="#009" rx="12" ry="24" stroke="#009" stroke-width="5" /><ellipse cx="1205.0" cy="1637.0" fill="#009" rx="12" ry="24" stroke="#009" stroke-width="5" /><ellipse cx="1157.0" cy="1509.0" fill="#009" rx="12" ry="24" stroke="#009" stroke-width="5" /><circle cx="805.0" cy="1381.0" fill="#900" r="16" stroke="#900" stroke-width="5" /><circle cx="901.0" cy="1381.0" fill="#900" r="16" stroke="#900" stroke-width="5" /><circle cx="997.0" cy="1381.0" fill="#900" r="16" stroke="#900" stroke-width="5" /><circle cx="933.0" cy="1941.0" fill="#900" r="16" stroke="#900" stroke-width="5" /><circle cx="1157.0" cy="2597.0" fill="#900" r="16" stroke="#900" stroke-width="5" /><circle cx="1605.0" cy="3301.0" fill="#900" r="16" stroke="#900" stroke-width="5" /><rect fill="#900" height="48" stroke="#900" stroke-width="5" transform="rotate(90,2053.0,2245.0)" width="32" x="2037.0" y="2221.0" /><rect fill="#900" height="48" stroke="#900" stroke-width="5" transform="rotate(0,1637.0,1669.0)" width="32" x="1621.0" y="1645.0" /><rect fill="#900" height="48" stroke="#900" stroke-width="5" transform="rotate(0,1461.0,1701.0)" width="32" x="1445.0" y="1677.0" /><rect fill="#900" height="48" stroke="#900" stroke-width="5" transform="rotate(0,1509.0,1701.0)" width="32" x="1493.0" y="1677.0" /><rect fill="#900" height="48" stroke="#900" stroke-width="5" transform="rotate(0,1557.0,1701.0)" width="32" x="1541.0" y="1677.0" /><circle cx="2181.0" cy="1669.0" fill="#900" r="16" stroke="#900" stroke-width="5" /><rect fill="#900" height="48" stroke="#900" stroke-width="5" transform="rotate(270,2853.0,2373.0)" width="32" x="2837.0" y="2349.0" /><circle cx="2805.0" cy="2341.0" fill="#009" r="16" stroke="#009" stroke-width="5" /><circle cx="2853.0" cy="2341.0" fill="#009" r="16" stroke="#009" stroke-width="5" /><circle cx="2901.0" cy="2341.0" fill="#009" r="16" stroke="#009" stroke-width="5" /><circle cx="2853.0" cy="2389.0" fill="#090" r="16" stroke="#090" stroke-width="5" /><rect fill="#090" height="24" stroke="#090" stroke-width="5" transform="rotate(0,2773.0,2229.0)" width="24" x="2761.0" y="2217.0" /><rect fill="#090" height="24" stroke="#090" stroke-width="5" transform="rotate(0,2933.0,2229.0)" width="24" x="2921.0" y="2217.0" /><circle cx="2053.0" cy="1189.0" fill="#900" r="16" stroke="#900" stroke-width="5" /><circle cx="2149.0" cy="1221.0" fill="#090" r="16" stroke="#090" stroke-width="5" /><circle cx="1989.0" cy="3941.0" fill="#009" r="16" stroke="#009" stroke-width="5" /><circle cx="2085.0" cy="3845.0" fill="#009" r="16" stroke="#009" stroke-width="5" /><rect fill="#900" height="48" stroke="#900" stroke-width="5" transform="rotate(0,1925.0,965.0)" width="32" x="1909.0" y="941.0" /><rect fill="#900" height="48" stroke="#900" stroke-width="5" transform="rotate(0,2053.0,997.0)" width="32" x="2037.0" y="973.0" /><rect fill="#900" height="48" stroke="#900" stroke-width="5" transform="rotate(0,1989.0,933.0)" width="32" x="1973.0" y="909.0" /><rect fill="#900" height="48" stroke="#900" stroke-width="5" transform="rotate(0,1957.0,1029.0)" width="32" x="1941.0" y="1005.0" /><rect fill="#900" height="48" stroke="#900" stroke-width="5" transform="rotate(0,2021.0,1061.0)" width="32" x="2005.0" y="1037.0" /><rect fill="#900" height="48" stroke="#900" stroke-width="5" transform="rotate(45,1861.0,517.0)" width="32" x="1845.0" y="493.0" /><rect fill="#900" height="48" stroke="#900" stroke-width="5" transform="rotate(90,2309.0,389.0)" width="32" x="2293.0" y="365.0" /><rect fill="#900" height="48" stroke="#900" stroke-width="5" transform="rotate(90,2693.0,517.0)" width="32" x="2677.0" y="493.0" /><rect fill="#900" height="48" stroke="#900" stroke-width="5" transform="rotate(135,3077.0,645.0)" width="32" x="3061.0" y="621.0" /><rect fill="#900" height="48" stroke="#900" stroke-width="5" transform="rotate(135,3205.0,837.0)" width="32" x="3189.0" y="813.0" /><rect fill="#900" height="48" stroke="#900" stroke-width="5" transform="rotate(180,3333.0,1221.0)" width="32" x="3317.0" y="1197.0" /><rect fill="#900" height="48" stroke="#900" stroke-width="5" transform="rotate(45,2053.0,453.0)" width="32" x="2037.0" y="429.0" /><rect fill="#900" height="48" stroke="#900" stroke-width="5" transform="rotate(180,3333.0,1061.0)" width="32" x="3317.0" y="1037.0" /><rect fill="#900" height="48" stroke="#900" stroke-width="5" transform="rotate(90,2757.0,1221.0)" width="32" x="2741.0" y="1197.0" /><rect fill="#900" height="48" stroke="#900" stroke-width="5" transform="rotate(90,2661.0,1221.0)" width="32" x="2645.0" y="1197.0" /><rect fill="#900" height="48" stroke="#900" stroke-width="5" transform="rotate(90,2597.0,1221.0)" width="32" x="2581.0" y="1197.0" /><rect fill="#090" height="24" stroke="#090" stroke-width="5" transform="rotate(45,1797.0,325.0)" width="24" x="1785.0" y="313.0" /><rect fill="#090" height="24" stroke="#090" stroke-width="5" transform="rotate(90,2277.0,1477.0)" width="24" x="2265.0" y="1465.0" /><rect fill="#090" height="24" stroke="#090" stroke-width="5" transform="rotate(90,1157.0,2341.0)" width="24" x="1145.0" y="2329.0" /><rect fill="#090" height="24" stroke="#090" stroke-width="5" transform="rotate(315,517.0,1765.0)" width="24" x="505.0" y="1753.0" /><rect fill="#900" height="48" stroke="#900" stroke-width="5" transform="rotate(180,3269.0,1957.0)" width="32" x="3253.0" y="1933.0" /><rect fill="#900" height="48" stroke="#900" stroke-width="5" transform="rotate(180,3269.0,1829.0)" width="32" x="3253.0" y="1805.0" /><rect fill="#900" height="48" stroke="#900" stroke-width="5" transform="rotate(180,3269.0,1893.0)" width="32" x="3253.0" y="1869.0" /><circle cx="3301.0" cy="1669.0" fill="#009" r="16" stroke="#009" stroke-width="5" /><rect fill="#900" height="48" stroke="#900" stroke-width="5" transform="rotate(180,3109.0,1637.0)" width="32" x="3093.0" y="1613.0" /><rect fill="#900" height="48" stroke="#900" stroke-width="5" transform="rotate(180,3077.0,1573.0)" width="32" x="3061.0" y="1549.0" /><circle cx="1637.0" cy="1701.0" fill="#009" r="16" stroke="#009" stroke-width="5" /><rect fill="#900" height="48" stroke="#900" stroke-width="5" transform="rotate(180,1701.0,2853.0)" width="32" x="1685.0" y="2829.0" /><rect fill="#900" height="48" stroke="#900" stroke-width="5" transform="rotate(270,1317.0,3653.0)" width="32" x="1301.0" y="3629.0" /><rect fill="#900" height="48" stroke="#900" stroke-width="5" transform="rotate(270,1893.0,3653.0)" width="32" x="1877.0" y="3629.0" /><circle cx="2629.0" cy="2757.0" fill="#090" r="16" stroke="#090" stroke-width="5" /><rect fill="#900" height="48" stroke="#900" stroke-width="5" transform="rotate(90,2693.0,1253.0)" width="32" x="2677.0" y="1229.0" /><rect fill="#900" height="48" stroke="#900" stroke-width="5" transform="rotate(0,1637.0,1733.0)" width="32" x="1621.0" y="1709.0" /><rect fill="#900" height="48" stroke="#900" stroke-width="5" transform="rotate(90,2149.0,2181.0)" width="32" x="2133.0" y="2157.0" /></svg>