<?xml version="1.0" encoding="utf-8" ?>
<svg baseProfile="tiny" height="1024" version="1.2" viewBox="0 0 1762 2218" width="813" xmlns="http://www.w3.org/2000/svg" xmlns:ev="http://www.w3.org/2001/xml-events" xmlns:xlink="http://www.w3.org/1999/xlink"><defs /><line stroke="#999" stroke-width="3" x1="1029.0" x2="1093.0" y1="1909.0" y2="1909.0" /><line stroke="#999" stroke-width="3" x1="1053.0" x2="1045.0" y1="1981.0" y2="1981.0" /><line stroke="#999" stroke-width="3" x1="1069.0" x2="1069.0" y1="1981.0" y2="1989.0" /><line stroke="#999" stroke-width="3" x1="1077.0" x2="1077.0" y1="1957.0" y2="1981.0" /><line stroke="#999" stroke-width="3" x1="1045.0" x2="1045.0" y1="1957.0" y2="1941.0" /><line stroke="#999" stroke-width="3" x1="1077.0" x2="1045.0" y1="1957.0" y2="1957.0" /><line stroke="#999" stroke-width="3" x1="1093.0" x2="1077.0" y1="1957.0" y2="1957.0" /><line stroke="#999" stroke-width="3" x1="1093.0" x2="1093.0" y1="1893.0" y2="1909.0" /><line stroke="#999" stroke-width="3" x1="1093.0" x2="1093.0" y1="1861.0" y2="1893.0" /><line stroke="#999" stroke-width="3" x1="1029.0" x2="1093.0" y1="1861.0" y2="1861.0" /><line stroke="#999" stroke-width="3" x1="1029.0" x2="1029.0" y1="1893.0" y2="1861.0" /><line stroke="#999" stroke-width="3" x1="1029.0" x2="1029.0" y1="1957.0" y2="1941.0" /><line stroke="#999" stroke-width="3" x1="1045.0" x2="1029.0" y1="1957.0" y2="1957.0" /><line stroke="#999" stroke-width="3" x1="1029.0" x2="1093.0" y1="1893.0" y2="1893.0" /><line stroke="#333" stroke-width="10" x1="517.0" x2="517.0" y1="2085.0" y2="2149.0" /><line stroke="#333" stroke-width="10" x1="453.0" x2="517.0" y1="2085.0" y2="2085.0" /><line stroke="#999" stroke-width="3" x1="453.0" x2="453.0" y1="2021.0" y2="2085.0" /><line stroke="#333" stroke-width="10" x1="517.0" x2="453.0" y1="2021.0" y2="2021.0" /><line stroke="#333" stroke-width="10" x1="517.0" x2="517.0" y1="1637.0" y2="2021.0" /><line stroke="#333" stroke-width="10" x1="389.0" x2="517.0" y1="1509.0" y2="1637.0" /><line stroke="#333" stroke-width="10" x1="389.0" x2="389.0" y1="1317.0" y2="1381.0" /><line stroke="#333" stroke-width="10" x1="1733.0" x2="1733.0" y1="1509.0" y2="1381.0" /><line stroke="#333" stroke-width="10" x1="1605.0" x2="1733.0" y1="1637.0" y2="1509.0" /><line stroke="#333" stroke-width="10" x1="1605.0" x2="1605.0" y1="2149.0" y2="1637.0" /><line stroke="#333" stroke-width="10" x1="1541.0" x2="1605.0" y1="2213.0" y2="2149.0" /><line stroke="#333" stroke-width="10" x1="581.0" x2="1541.0" y1="2213.0" y2="2213.0" /><line stroke="#333" stroke-width="10" x1="517.0" x2="581.0" y1="2149.0" y2="2213.0" /><line stroke="#999" stroke-width="3" x1="517.0" x2="517.0" y1="2021.0" y2="2085.0" /><line stroke="#999" stroke-width="3" x1="565.0" x2="549.0" y1="2021.0" y2="2021.0" /><line stroke="#999" stroke-width="3" x1="581.0" x2="581.0" y1="1573.0" y2="1997.0" /><line stroke="#999" stroke-width="3" x1="453.0" x2="581.0" y1="1445.0" y2="1573.0" /><line stroke="#999" stroke-width="3" x1="1541.0" x2="1669.0" y1="1573.0" y2="1445.0" /><line stroke="#999" stroke-width="3" x1="1541.0" x2="1541.0" y1="2085.0" y2="1573.0" /><line stroke="#999" stroke-width="3" x1="1477.0" x2="1541.0" y1="2149.0" y2="2085.0" /><line stroke="#999" stroke-width="3" x1="645.0" x2="1477.0" y1="2149.0" y2="2149.0" /><line stroke="#999" stroke-width="3" x1="565.0" x2="645.0" y1="2085.0" y2="2149.0" /><line stroke="#999" stroke-width="3" x1="517.0" x2="549.0" y1="2085.0" y2="2085.0" /><line stroke="#333" stroke-width="10" x1="389.0" x2="389.0" y1="1381.0" y2="1509.0" /><line stroke="#999" stroke-width="3" x1="453.0" x2="453.0" y1="1381.0" y2="1445.0" /><line stroke="#999" stroke-width="3" x1="389.0" x2="453.0" y1="1381.0" y2="1381.0" /><line stroke="#333" stroke-width="10" x1="1733.0" x2="1493.0" y1="1317.0" y2="1317.0" /><line stroke="#999" stroke-width="3" x1="1733.0" x2="1733.0" y1="1381.0" y2="1317.0" /><line stroke="#999" stroke-width="3" x1="1669.0" x2="1669.0" y1="1445.0" y2="1381.0" /><line stroke="#999" stroke-width="3" x1="1669.0" x2="1733.0" y1="1381.0" y2="1381.0" /><line stroke="#999" stroke-width="3" x1="1053.0" x2="1053.0" y1="1989.0" y2="1981.0" /><line stroke="#999" stroke-width="3" x1="1069.0" x2="1053.0" y1="1989.0" y2="1989.0" /><line stroke="#999" stroke-width="3" x1="1045.0" x2="1045.0" y1="1981.0" y2="1957.0" /><line stroke="#999" stroke-width="3" x1="1077.0" x2="1069.0" y1="1981.0" y2="1981.0" /><line stroke="#999" stroke-width="3" x1="1005.0" x2="997.0" y1="1933.0" y2="1933.0" /><line stroke="#999" stroke-width="3" x1="1005.0" x2="1005.0" y1="1917.0" y2="1909.0" /><line stroke="#999" stroke-width="3" x1="1029.0" x2="1005.0" y1="1941.0" y2="1941.0" /><line stroke="#999" stroke-width="3" x1="1029.0" x2="1029.0" y1="1909.0" y2="1893.0" /><line stroke="#999" stroke-width="3" x1="1117.0" x2="1117.0" y1="1933.0" y2="1941.0" /><line stroke="#999" stroke-width="3" x1="1093.0" x2="1117.0" y1="1909.0" y2="1909.0" /><line stroke="#999" stroke-width="3" x1="1117.0" x2="1125.0" y1="1917.0" y2="1917.0" /><line stroke="#999" stroke-width="3" x1="1093.0" x2="1093.0" y1="1941.0" y2="1957.0" /><line stroke="#999" stroke-width="3" x1="1005.0" x2="1005.0" y1="1941.0" y2="1933.0" /><line stroke="#999" stroke-width="3" x1="997.0" x2="997.0" y1="1933.0" y2="1917.0" /><line stroke="#999" stroke-width="3" x1="1005.0" x2="1029.0" y1="1909.0" y2="1909.0" /><line stroke="#999" stroke-width="3" x1="997.0" x2="1005.0" y1="1917.0" y2="1917.0" /><line stroke="#999" stroke-width="3" x1="1117.0" x2="1093.0" y1="1941.0" y2="1941.0" /><line stroke="#999" stroke-width="3" x1="1125.0" x2="1117.0" y1="1933.0" y2="1933.0" /><line stroke="#999" stroke-width="3" x1="1125.0" x2="1125.0" y1="1917.0" y2="1933.0" /><line stroke="#999" stroke-width="3" x1="1117.0" x2="1117.0" y1="1909.0" y2="1917.0" /><line stroke="#999" stroke-width="3" x1="1045.0" x2="1029.0" y1="1941.0" y2="1941.0" /><line stroke="#999" stroke-width="3" x1="1077.0" x2="1077.0" y1="1941.0" y2="1957.0" /><line stroke="#999" stroke-width="3" x1="1093.0" x2="1077.0" y1="1941.0" y2="1941.0" /><line stroke="#999" stroke-width="3" x1="1029.0" x2="1029.0" y1="1941.0" y2="1909.0" /><line stroke="#999" stroke-width="3" x1="1093.0" x2="1093.0" y1="1909.0" y2="1941.0" /><line stroke="#999" stroke-width="3" x1="901.0" x2="645.0" y1="1301.0" y2="1301.0" /><line stroke="#333" stroke-width="10" x1="1221.0" x2="1205.0" y1="1301.0" y2="1317.0" /><line stroke="#333" stroke-width="10" x1="901.0" x2="901.0" y1="1301.0" y2="1061.0" /><line stroke="#333" stroke-width="10" x1="1221.0" x2="1221.0" y1="933.0" y2="1301.0" /><line stroke="#333" stroke-width="10" x1="389.0" x2="325.0" y1="2021.0" y2="1957.0" /><line stroke="#333" stroke-width="10" x1="453.0" x2="389.0" y1="2021.0" y2="2021.0" /><line stroke="#333" stroke-width="10" x1="325.0" x2="453.0" y1="2085.0" y2="2085.0" /><line stroke="#333" stroke-width="10" x1="261.0" x2="325.0" y1="2021.0" y2="2085.0" /><line stroke="#333" stroke-width="10" x1="261.0" x2="261.0" y1="1957.0" y2="2021.0" /><line stroke="#333" stroke-width="10" x1="325.0" x2="325.0" y1="1509.0" y2="1477.0" /><line stroke="#333" stroke-width="10" x1="325.0" x2="325.0" y1="1573.0" y2="1541.0" /><line stroke="#333" stroke-width="10" x1="325.0" x2="325.0" y1="1637.0" y2="1605.0" /><line stroke="#333" stroke-width="10" x1="325.0" x2="325.0" y1="1701.0" y2="1669.0" /><line stroke="#333" stroke-width="10" x1="325.0" x2="325.0" y1="1765.0" y2="1733.0" /><line stroke="#333" stroke-width="10" x1="325.0" x2="325.0" y1="1861.0" y2="1829.0" /><line stroke="#333" stroke-width="10" x1="325.0" x2="325.0" y1="1893.0" y2="1861.0" /><line stroke="#333" stroke-width="10" x1="325.0" x2="325.0" y1="1957.0" y2="1925.0" /><line stroke="#333" stroke-width="10" x1="261.0" x2="261.0" y1="1893.0" y2="1925.0" /><line stroke="#333" stroke-width="10" x1="261.0" x2="261.0" y1="1861.0" y2="1893.0" /><line stroke="#333" stroke-width="10" x1="261.0" x2="261.0" y1="1765.0" y2="1797.0" /><line stroke="#333" stroke-width="10" x1="261.0" x2="261.0" y1="1701.0" y2="1733.0" /><line stroke="#333" stroke-width="10" x1="261.0" x2="261.0" y1="1637.0" y2="1669.0" /><line stroke="#333" stroke-width="10" x1="261.0" x2="261.0" y1="1573.0" y2="1605.0" /><line stroke="#333" stroke-width="10" x1="261.0" x2="261.0" y1="1509.0" y2="1541.0" /><line stroke="#333" stroke-width="10" x1="261.0" x2="261.0" y1="1317.0" y2="1349.0" /><line stroke="#333" stroke-width="10" x1="325.0" x2="389.0" y1="1317.0" y2="1317.0" /><line stroke="#999" stroke-width="3" x1="261.0" x2="325.0" y1="1317.0" y2="1317.0" /><line stroke="#333" stroke-width="10" x1="197.0" x2="261.0" y1="1317.0" y2="1317.0" /><line stroke="#333" stroke-width="10" x1="197.0" x2="197.0" y1="1157.0" y2="1221.0" /><line stroke="#333" stroke-width="10" x1="229.0" x2="197.0" y1="1157.0" y2="1157.0" /><line stroke="#333" stroke-width="10" x1="229.0" x2="229.0" y1="1061.0" y2="1157.0" /><line stroke="#333" stroke-width="10" x1="213.0" x2="229.0" y1="1061.0" y2="1061.0" /><line stroke="#333" stroke-width="10" x1="165.0" x2="181.0" y1="1061.0" y2="1061.0" /><line stroke="#999" stroke-width="3" x1="213.0" x2="213.0" y1="997.0" y2="1061.0" /><line stroke="#999" stroke-width="3" x1="165.0" x2="165.0" y1="1061.0" y2="997.0" /><line stroke="#333" stroke-width="10" x1="213.0" x2="197.0" y1="997.0" y2="997.0" /><line stroke="#333" stroke-width="10" x1="389.0" x2="213.0" y1="997.0" y2="997.0" /><line stroke="#333" stroke-width="10" x1="85.0" x2="165.0" y1="1061.0" y2="1061.0" /><line stroke="#333" stroke-width="10" x1="85.0" x2="85.0" y1="789.0" y2="1061.0" /><line stroke="#999" stroke-width="3" x1="149.0" x2="85.0" y1="853.0" y2="789.0" /><line stroke="#333" stroke-width="10" x1="149.0" x2="149.0" y1="997.0" y2="853.0" /><line stroke="#333" stroke-width="10" x1="165.0" x2="149.0" y1="997.0" y2="997.0" /><line stroke="#333" stroke-width="10" x1="709.0" x2="709.0" y1="1061.0" y2="1029.0" /><line stroke="#333" stroke-width="10" x1="773.0" x2="709.0" y1="1061.0" y2="1061.0" /><line stroke="#333" stroke-width="10" x1="773.0" x2="773.0" y1="933.0" y2="1061.0" /><line stroke="#999" stroke-width="3" x1="901.0" x2="773.0" y1="1061.0" y2="933.0" /><line stroke="#333" stroke-width="10" x1="389.0" x2="389.0" y1="1317.0" y2="1061.0" /><line stroke="#333" stroke-width="10" x1="293.0" x2="325.0" y1="1061.0" y2="1061.0" /><line stroke="#333" stroke-width="10" x1="293.0" x2="293.0" y1="1221.0" y2="1061.0" /><line stroke="#333" stroke-width="10" x1="261.0" x2="293.0" y1="1221.0" y2="1221.0" /><line stroke="#333" stroke-width="10" x1="261.0" x2="261.0" y1="1253.0" y2="1221.0" /><line stroke="#333" stroke-width="10" x1="325.0" x2="261.0" y1="1253.0" y2="1253.0" /><line stroke="#333" stroke-width="10" x1="325.0" x2="325.0" y1="1061.0" y2="1253.0" /><line stroke="#333" stroke-width="10" x1="197.0" x2="197.0" y1="1221.0" y2="1317.0" /><line stroke="#333" stroke-width="10" x1="645.0" x2="629.0" y1="1301.0" y2="1317.0" /><line stroke="#333" stroke-width="10" x1="389.0" x2="453.0" y1="1061.0" y2="1061.0" /><line stroke="#333" stroke-width="10" x1="453.0" x2="645.0" y1="997.0" y2="997.0" /><line stroke="#333" stroke-width="10" x1="453.0" x2="453.0" y1="1061.0" y2="997.0" /><line stroke="#333" stroke-width="10" x1="709.0" x2="709.0" y1="1029.0" y2="997.0" /><line stroke="#333" stroke-width="10" x1="645.0" x2="645.0" y1="1029.0" y2="1061.0" /><line stroke="#999" stroke-width="3" x1="645.0" x2="709.0" y1="1029.0" y2="1029.0" /><line stroke="#333" stroke-width="10" x1="645.0" x2="645.0" y1="1061.0" y2="1301.0" /><line stroke="#999" stroke-width="3" x1="645.0" x2="709.0" y1="1061.0" y2="1061.0" /><line stroke="#333" stroke-width="10" x1="517.0" x2="517.0" y1="773.0" y2="933.0" /><line stroke="#333" stroke-width="10" x1="389.0" x2="389.0" y1="933.0" y2="997.0" /><line stroke="#333" stroke-width="10" x1="517.0" x2="389.0" y1="933.0" y2="933.0" /><line stroke="#999" stroke-width="3" x1="261.0" x2="325.0" y1="1957.0" y2="1957.0" /><line stroke="#999" stroke-width="3" x1="261.0" x2="325.0" y1="1893.0" y2="1893.0" /><line stroke="#999" stroke-width="3" x1="261.0" x2="325.0" y1="1861.0" y2="1861.0" /><line stroke="#999" stroke-width="3" x1="261.0" x2="325.0" y1="1765.0" y2="1765.0" /><line stroke="#999" stroke-width="3" x1="261.0" x2="325.0" y1="1701.0" y2="1701.0" /><line stroke="#999" stroke-width="3" x1="261.0" x2="325.0" y1="1637.0" y2="1637.0" /><line stroke="#999" stroke-width="3" x1="261.0" x2="325.0" y1="1573.0" y2="1573.0" /><line stroke="#999" stroke-width="3" x1="261.0" x2="325.0" y1="1509.0" y2="1509.0" /><line stroke="#333" stroke-width="10" x1="261.0" x2="261.0" y1="1349.0" y2="1413.0" /><line stroke="#333" stroke-width="10" x1="325.0" x2="325.0" y1="1349.0" y2="1317.0" /><line stroke="#333" stroke-width="10" x1="261.0" x2="261.0" y1="1541.0" y2="1573.0" /><line stroke="#333" stroke-width="10" x1="325.0" x2="325.0" y1="1541.0" y2="1509.0" /><line stroke="#333" stroke-width="10" x1="261.0" x2="261.0" y1="1605.0" y2="1637.0" /><line stroke="#333" stroke-width="10" x1="325.0" x2="325.0" y1="1605.0" y2="1573.0" /><line stroke="#999" stroke-width="3" x1="261.0" x2="325.0" y1="1605.0" y2="1605.0" /><line stroke="#999" stroke-width="3" x1="261.0" x2="325.0" y1="1541.0" y2="1541.0" /><line stroke="#333" stroke-width="10" x1="261.0" x2="261.0" y1="1669.0" y2="1701.0" /><line stroke="#333" stroke-width="10" x1="325.0" x2="325.0" y1="1669.0" y2="1637.0" /><line stroke="#333" stroke-width="10" x1="325.0" x2="325.0" y1="1733.0" y2="1701.0" /><line stroke="#333" stroke-width="10" x1="261.0" x2="261.0" y1="1733.0" y2="1765.0" /><line stroke="#333" stroke-width="10" x1="261.0" x2="261.0" y1="1797.0" y2="1829.0" /><line stroke="#333" stroke-width="10" x1="325.0" x2="325.0" y1="1797.0" y2="1765.0" /><line stroke="#333" stroke-width="10" x1="325.0" x2="325.0" y1="1829.0" y2="1797.0" /><line stroke="#333" stroke-width="10" x1="261.0" x2="261.0" y1="1829.0" y2="1861.0" /><line stroke="#333" stroke-width="10" x1="261.0" x2="261.0" y1="1925.0" y2="1957.0" /><line stroke="#333" stroke-width="10" x1="325.0" x2="325.0" y1="1925.0" y2="1893.0" /><line stroke="#333" stroke-width="10" x1="325.0" x2="325.0" y1="1477.0" y2="1445.0" /><line stroke="#333" stroke-width="10" x1="261.0" x2="261.0" y1="1477.0" y2="1509.0" /><line stroke="#333" stroke-width="10" x1="261.0" x2="261.0" y1="1445.0" y2="1477.0" /><line stroke="#333" stroke-width="10" x1="325.0" x2="325.0" y1="1445.0" y2="1413.0" /><line stroke="#999" stroke-width="3" x1="261.0" x2="325.0" y1="1445.0" y2="1445.0" /><line stroke="#999" stroke-width="3" x1="261.0" x2="325.0" y1="1477.0" y2="1477.0" /><line stroke="#999" stroke-width="3" x1="261.0" x2="325.0" y1="1669.0" y2="1669.0" /><line stroke="#999" stroke-width="3" x1="261.0" x2="325.0" y1="1733.0" y2="1733.0" /><line stroke="#999" stroke-width="3" x1="261.0" x2="325.0" y1="1797.0" y2="1797.0" /><line stroke="#999" stroke-width="3" x1="261.0" x2="325.0" y1="1829.0" y2="1829.0" /><line stroke="#999" stroke-width="3" x1="261.0" x2="325.0" y1="1925.0" y2="1925.0" /><line stroke="#333" stroke-width="10" x1="261.0" x2="261.0" y1="1413.0" y2="1445.0" /><line stroke="#333" stroke-width="10" x1="325.0" x2="325.0" y1="1413.0" y2="1349.0" /><line stroke="#999" stroke-width="3" x1="261.0" x2="325.0" y1="1413.0" y2="1413.0" /><line stroke="#999" stroke-width="3" x1="261.0" x2="325.0" y1="1349.0" y2="1349.0" /><line stroke="#333" stroke-width="10" x1="581.0" x2="581.0" y1="933.0" y2="773.0" /><line stroke="#999" stroke-width="3" x1="1477.0" x2="1221.0" y1="1301.0" y2="1301.0" /><line stroke="#999" stroke-width="3" x1="1477.0" x2="1221.0" y1="1125.0" y2="933.0" /><line stroke="#333" stroke-width="10" x1="1477.0" x2="1477.0" y1="1301.0" y2="1125.0" /><line stroke="#333" stroke-width="10" x1="197.0" x2="181.0" y1="997.0" y2="997.0" /><line stroke="#333" stroke-width="10" x1="197.0" x2="213.0" y1="1061.0" y2="1061.0" /><line stroke="#666" stroke-width="20" x1="197.0" x2="197.0" y1="997.0" y2="1061.0" /><line stroke="#333" stroke-width="10" x1="181.0" x2="197.0" y1="1061.0" y2="1061.0" /><line stroke="#333" stroke-width="10" x1="181.0" x2="165.0" y1="997.0" y2="997.0" /><line stroke="#666" stroke-width="20" x1="181.0" x2="181.0" y1="1061.0" y2="997.0" /><line stroke="#333" stroke-width="10" x1="709.0" x2="709.0" y1="997.0" y2="933.0" /><line stroke="#333" stroke-width="10" x1="645.0" x2="645.0" y1="997.0" y2="1029.0" /><line stroke="#999" stroke-width="3" x1="645.0" x2="709.0" y1="997.0" y2="997.0" /><line stroke="#333" stroke-width="10" x1="485.0" x2="517.0" y1="741.0" y2="741.0" /><line stroke="#333" stroke-width="10" x1="485.0" x2="485.0" y1="869.0" y2="741.0" /><line stroke="#333" stroke-width="10" x1="341.0" x2="373.0" y1="901.0" y2="901.0" /><line stroke="#333" stroke-width="10" x1="229.0" x2="341.0" y1="869.0" y2="901.0" /><line stroke="#333" stroke-width="10" x1="229.0" x2="229.0" y1="725.0" y2="789.0" /><line stroke="#333" stroke-width="10" x1="29.0" x2="229.0" y1="725.0" y2="725.0" /><line stroke="#333" stroke-width="10" x1="261.0" x2="29.0" y1="229.0" y2="229.0" /><line stroke="#333" stroke-width="10" x1="261.0" x2="261.0" y1="357.0" y2="229.0" /><line stroke="#333" stroke-width="10" x1="453.0" x2="389.0" y1="357.0" y2="357.0" /><line stroke="#333" stroke-width="10" x1="453.0" x2="453.0" y1="229.0" y2="357.0" /><line stroke="#333" stroke-width="10" x1="685.0" x2="453.0" y1="229.0" y2="229.0" /><line stroke="#333" stroke-width="10" x1="709.0" x2="709.0" y1="741.0" y2="605.0" /><line stroke="#333" stroke-width="10" x1="5.0" x2="5.0" y1="253.0" y2="701.0" /><line stroke="#333" stroke-width="10" x1="229.0" x2="229.0" y1="853.0" y2="869.0" /><line stroke="#999" stroke-width="3" x1="229.0" x2="229.0" y1="789.0" y2="853.0" /><line stroke="#333" stroke-width="10" x1="197.0" x2="85.0" y1="789.0" y2="789.0" /><line stroke="#333" stroke-width="10" x1="213.0" x2="197.0" y1="789.0" y2="789.0" /><line stroke="#333" stroke-width="10" x1="229.0" x2="213.0" y1="789.0" y2="789.0" /><line stroke="#333" stroke-width="10" x1="213.0" x2="229.0" y1="853.0" y2="853.0" /><line stroke="#333" stroke-width="10" x1="197.0" x2="213.0" y1="853.0" y2="853.0" /><line stroke="#333" stroke-width="10" x1="149.0" x2="197.0" y1="853.0" y2="853.0" /><line stroke="#666" stroke-width="20" x1="213.0" x2="213.0" y1="789.0" y2="853.0" /><line stroke="#666" stroke-width="20" x1="197.0" x2="197.0" y1="853.0" y2="789.0" /><line stroke="#333" stroke-width="10" x1="709.0" x2="581.0" y1="933.0" y2="933.0" /><line stroke="#666" stroke-width="20" x1="581.0" x2="517.0" y1="773.0" y2="773.0" /><line stroke="#999" stroke-width="3" x1="517.0" x2="581.0" y1="741.0" y2="741.0" /><line stroke="#333" stroke-width="10" x1="581.0" x2="581.0" y1="757.0" y2="741.0" /><line stroke="#333" stroke-width="10" x1="581.0" x2="581.0" y1="773.0" y2="757.0" /><line stroke="#333" stroke-width="10" x1="517.0" x2="517.0" y1="757.0" y2="773.0" /><line stroke="#333" stroke-width="10" x1="517.0" x2="517.0" y1="741.0" y2="757.0" /><line stroke="#666" stroke-width="20" x1="517.0" x2="581.0" y1="757.0" y2="757.0" /><line stroke="#333" stroke-width="10" x1="325.0" x2="389.0" y1="677.0" y2="677.0" /><line stroke="#999" stroke-width="3" x1="325.0" x2="325.0" y1="773.0" y2="709.0" /><line stroke="#333" stroke-width="10" x1="325.0" x2="325.0" y1="805.0" y2="773.0" /><line stroke="#333" stroke-width="10" x1="389.0" x2="325.0" y1="805.0" y2="805.0" /><line stroke="#999" stroke-width="3" x1="389.0" x2="389.0" y1="709.0" y2="773.0" /><line stroke="#333" stroke-width="10" x1="389.0" x2="389.0" y1="677.0" y2="709.0" /><line stroke="#333" stroke-width="10" x1="133.0" x2="197.0" y1="357.0" y2="357.0" /><line stroke="#333" stroke-width="10" x1="133.0" x2="133.0" y1="613.0" y2="485.0" /><line stroke="#333" stroke-width="10" x1="261.0" x2="133.0" y1="613.0" y2="613.0" /><line stroke="#333" stroke-width="10" x1="309.0" x2="261.0" y1="549.0" y2="613.0" /><line stroke="#333" stroke-width="10" x1="309.0" x2="309.0" y1="485.0" y2="501.0" /><line stroke="#333" stroke-width="10" x1="197.0" x2="197.0" y1="357.0" y2="485.0" /><line stroke="#333" stroke-width="10" x1="197.0" x2="309.0" y1="485.0" y2="485.0" /><line stroke="#333" stroke-width="10" x1="405.0" x2="405.0" y1="549.0" y2="533.0" /><line stroke="#333" stroke-width="10" x1="557.0" x2="453.0" y1="613.0" y2="613.0" /><line stroke="#333" stroke-width="10" x1="517.0" x2="517.0" y1="485.0" y2="357.0" /><line stroke="#333" stroke-width="10" x1="405.0" x2="517.0" y1="485.0" y2="485.0" /><line stroke="#333" stroke-width="10" x1="581.0" x2="581.0" y1="357.0" y2="469.0" /><line stroke="#333" stroke-width="10" x1="517.0" x2="581.0" y1="357.0" y2="357.0" /><line stroke="#333" stroke-width="10" x1="453.0" x2="405.0" y1="613.0" y2="549.0" /><line stroke="#333" stroke-width="10" x1="1541.0" x2="1541.0" y1="1125.0" y2="629.0" /><line stroke="#333" stroke-width="10" x1="1477.0" x2="1541.0" y1="1125.0" y2="1125.0" /><line stroke="#333" stroke-width="10" x1="1437.0" x2="1221.0" y1="933.0" y2="933.0" /><line stroke="#333" stroke-width="10" x1="1005.0" x2="1005.0" y1="1061.0" y2="701.0" /><line stroke="#333" stroke-width="10" x1="901.0" x2="1005.0" y1="1061.0" y2="1061.0" /><line stroke="#333" stroke-width="10" x1="901.0" x2="773.0" y1="933.0" y2="933.0" /><line stroke="#999" stroke-width="3" x1="1029.0" x2="941.0" y1="677.0" y2="589.0" /><line stroke="#333" stroke-width="10" x1="1013.0" x2="1029.0" y1="693.0" y2="677.0" /><line stroke="#333" stroke-width="10" x1="1005.0" x2="1013.0" y1="701.0" y2="693.0" /><line stroke="#333" stroke-width="10" x1="917.0" x2="901.0" y1="613.0" y2="629.0" /><line stroke="#333" stroke-width="10" x1="925.0" x2="917.0" y1="605.0" y2="613.0" /><line stroke="#333" stroke-width="10" x1="941.0" x2="925.0" y1="589.0" y2="605.0" /><line stroke="#666" stroke-width="20" x1="925.0" x2="1013.0" y1="605.0" y2="693.0" /><line stroke="#666" stroke-width="20" x1="1005.0" x2="917.0" y1="701.0" y2="613.0" /><line stroke="#999" stroke-width="3" x1="1501.0" x2="1413.0" y1="589.0" y2="677.0" /><line stroke="#333" stroke-width="10" x1="1517.0" x2="1501.0" y1="605.0" y2="589.0" /><line stroke="#333" stroke-width="10" x1="1525.0" x2="1517.0" y1="613.0" y2="605.0" /><line stroke="#333" stroke-width="10" x1="1437.0" x2="1437.0" y1="701.0" y2="933.0" /><line stroke="#333" stroke-width="10" x1="1429.0" x2="1437.0" y1="693.0" y2="701.0" /><line stroke="#333" stroke-width="10" x1="1413.0" x2="1429.0" y1="677.0" y2="693.0" /><line stroke="#666" stroke-width="20" x1="1429.0" x2="1517.0" y1="693.0" y2="605.0" /><line stroke="#666" stroke-width="20" x1="1525.0" x2="1437.0" y1="613.0" y2="701.0" /><line stroke="#333" stroke-width="10" x1="629.0" x2="389.0" y1="1317.0" y2="1317.0" /><line stroke="#333" stroke-width="10" x1="917.0" x2="901.0" y1="1317.0" y2="1301.0" /><line stroke="#333" stroke-width="10" x1="1205.0" x2="917.0" y1="1317.0" y2="1317.0" /><line stroke="#333" stroke-width="10" x1="1493.0" x2="1477.0" y1="1317.0" y2="1301.0" /><line stroke="#333" stroke-width="10" x1="1189.0" x2="805.0" y1="5.0" y2="389.0" /><line stroke="#333" stroke-width="10" x1="1637.0" x2="1253.0" y1="373.0" y2="5.0" /><line stroke="#333" stroke-width="10" x1="1253.0" x2="1413.0" y1="837.0" y2="677.0" /><line stroke="#333" stroke-width="10" x1="805.0" x2="805.0" y1="389.0" y2="453.0" /><line stroke="#999" stroke-width="3" x1="1221.0" x2="901.0" y1="101.0" y2="421.0" /><line stroke="#999" stroke-width="3" x1="1541.0" x2="1221.0" y1="421.0" y2="101.0" /><line stroke="#999" stroke-width="3" x1="1221.0" x2="1541.0" y1="741.0" y2="421.0" /><line stroke="#999" stroke-width="3" x1="901.0" x2="1221.0" y1="421.0" y2="741.0" /><line stroke="#999" stroke-width="3" x1="1189.0" x2="1141.0" y1="501.0" y2="453.0" /><line stroke="#999" stroke-width="3" x1="1189.0" x2="1189.0" y1="645.0" y2="613.0" /><line stroke="#999" stroke-width="3" x1="1253.0" x2="1189.0" y1="645.0" y2="645.0" /><line stroke="#999" stroke-width="3" x1="1253.0" x2="1253.0" y1="517.0" y2="613.0" /><line stroke="#999" stroke-width="3" x1="1317.0" x2="1253.0" y1="453.0" y2="517.0" /><line stroke="#999" stroke-width="3" x1="1445.0" x2="1413.0" y1="453.0" y2="453.0" /><line stroke="#999" stroke-width="3" x1="1445.0" x2="1445.0" y1="389.0" y2="453.0" /><line stroke="#999" stroke-width="3" x1="1301.0" x2="1413.0" y1="389.0" y2="389.0" /><line stroke="#999" stroke-width="3" x1="1253.0" x2="1301.0" y1="341.0" y2="389.0" /><line stroke="#999" stroke-width="3" x1="1253.0" x2="1253.0" y1="197.0" y2="229.0" /><line stroke="#999" stroke-width="3" x1="1189.0" x2="1253.0" y1="197.0" y2="197.0" /><line stroke="#999" stroke-width="3" x1="1189.0" x2="1189.0" y1="325.0" y2="229.0" /><line stroke="#999" stroke-width="3" x1="1125.0" x2="1189.0" y1="389.0" y2="325.0" /><line stroke="#999" stroke-width="3" x1="997.0" x2="1029.0" y1="389.0" y2="389.0" /><line stroke="#999" stroke-width="3" x1="997.0" x2="997.0" y1="453.0" y2="389.0" /><line stroke="#999" stroke-width="3" x1="1141.0" x2="1029.0" y1="453.0" y2="453.0" /><line stroke="#333" stroke-width="10" x1="1173.0" x2="1285.0" y1="357.0" y2="469.0" /><line stroke="#333" stroke-width="10" x1="1157.0" x2="1173.0" y1="373.0" y2="357.0" /><line stroke="#333" stroke-width="10" x1="1269.0" x2="1157.0" y1="485.0" y2="373.0" /><line stroke="#333" stroke-width="10" x1="1285.0" x2="1269.0" y1="469.0" y2="485.0" /><line stroke="#999" stroke-width="3" x1="1189.0" x2="1189.0" y1="613.0" y2="501.0" /><line stroke="#999" stroke-width="3" x1="1253.0" x2="1253.0" y1="613.0" y2="645.0" /><line stroke="#999" stroke-width="3" x1="1253.0" x2="1189.0" y1="613.0" y2="613.0" /><line stroke="#999" stroke-width="3" x1="1029.0" x2="1125.0" y1="389.0" y2="389.0" /><line stroke="#999" stroke-width="3" x1="1029.0" x2="997.0" y1="453.0" y2="453.0" /><line stroke="#999" stroke-width="3" x1="1189.0" x2="1189.0" y1="229.0" y2="197.0" /><line stroke="#999" stroke-width="3" x1="1253.0" x2="1253.0" y1="229.0" y2="341.0" /><line stroke="#999" stroke-width="3" x1="1413.0" x2="1445.0" y1="389.0" y2="389.0" /><line stroke="#999" stroke-width="3" x1="1413.0" x2="1317.0" y1="453.0" y2="453.0" /><line stroke="#999" stroke-width="3" x1="1029.0" x2="1029.0" y1="453.0" y2="389.0" /><line stroke="#999" stroke-width="3" x1="1189.0" x2="1253.0" y1="229.0" y2="229.0" /><line stroke="#999" stroke-width="3" x1="1413.0" x2="1413.0" y1="389.0" y2="453.0" /><line stroke="#333" stroke-width="10" x1="1029.0" x2="1189.0" y1="677.0" y2="837.0" /><line stroke="#333" stroke-width="10" x1="901.0" x2="901.0" y1="629.0" y2="933.0" /><line stroke="#333" stroke-width="10" x1="1501.0" x2="1637.0" y1="589.0" y2="453.0" /><line stroke="#333" stroke-width="10" x1="1541.0" x2="1525.0" y1="629.0" y2="613.0" /><line stroke="#999" stroke-width="3" x1="549.0" x2="565.0" y1="2085.0" y2="2085.0" /><line stroke="#999" stroke-width="3" x1="549.0" x2="517.0" y1="2021.0" y2="2021.0" /><line stroke="#999" stroke-width="3" x1="549.0" x2="549.0" y1="2021.0" y2="2085.0" /><line stroke="#999" stroke-width="3" x1="581.0" x2="565.0" y1="1997.0" y2="2021.0" /><line stroke="#333" stroke-width="10" x1="325.0" x2="325.0" y1="325.0" y2="341.0" /><line stroke="#333" stroke-width="10" x1="325.0" x2="325.0" y1="261.0" y2="325.0" /><line stroke="#0d0" stroke-width="20" x1="389.0" x2="325.0" y1="261.0" y2="261.0" /><line stroke="#333" stroke-width="10" x1="389.0" x2="389.0" y1="325.0" y2="261.0" /><line stroke="#333" stroke-width="10" x1="389.0" x2="389.0" y1="341.0" y2="325.0" /><line stroke="#333" stroke-width="10" x1="389.0" x2="389.0" y1="357.0" y2="341.0" /><line stroke="#666" stroke-width="20" x1="325.0" x2="389.0" y1="325.0" y2="325.0" /><line stroke="#999" stroke-width="3" x1="389.0" x2="325.0" y1="357.0" y2="357.0" /><line stroke="#999" stroke-width="3" x1="389.0" x2="325.0" y1="341.0" y2="341.0" /><line stroke="#333" stroke-width="10" x1="325.0" x2="325.0" y1="341.0" y2="357.0" /><line stroke="#333" stroke-width="10" x1="1757.0" x2="1733.0" y1="1317.0" y2="1317.0" /><line stroke="#666" stroke-width="20" x1="1757.0" x2="1757.0" y1="1381.0" y2="1317.0" /><line stroke="#333" stroke-width="10" x1="1733.0" x2="1757.0" y1="1381.0" y2="1381.0" /><line stroke="#999" stroke-width="3" x1="1741.0" x2="1749.0" y1="1333.0" y2="1333.0" /><line stroke="#999" stroke-width="3" x1="1741.0" x2="1741.0" y1="1365.0" y2="1333.0" /><line stroke="#999" stroke-width="3" x1="1749.0" x2="1741.0" y1="1365.0" y2="1365.0" /><line stroke="#999" stroke-width="3" x1="1749.0" x2="1749.0" y1="1333.0" y2="1365.0" /><line stroke="#333" stroke-width="10" x1="325.0" x2="261.0" y1="357.0" y2="357.0" /><line stroke="#333" stroke-width="10" x1="805.0" x2="941.0" y1="453.0" y2="589.0" /><line stroke="#333" stroke-width="10" x1="1253.0" x2="1189.0" y1="5.0" y2="5.0" /><line stroke="#333" stroke-width="10" x1="1637.0" x2="1637.0" y1="453.0" y2="373.0" /><line stroke="#333" stroke-width="10" x1="1189.0" x2="1253.0" y1="837.0" y2="837.0" /><line stroke="#333" stroke-width="10" x1="581.0" x2="645.0" y1="741.0" y2="741.0" /><line stroke="#333" stroke-width="10" x1="373.0" x2="485.0" y1="901.0" y2="869.0" /><line stroke="#999" stroke-width="3" x1="341.0" x2="325.0" y1="901.0" y2="805.0" /><line stroke="#999" stroke-width="3" x1="389.0" x2="373.0" y1="805.0" y2="901.0" /><line stroke="#333" stroke-width="10" x1="5.0" x2="29.0" y1="701.0" y2="725.0" /><line stroke="#333" stroke-width="10" x1="29.0" x2="5.0" y1="229.0" y2="253.0" /><line stroke="#333" stroke-width="10" x1="709.0" x2="685.0" y1="253.0" y2="229.0" /><line stroke="#333" stroke-width="10" x1="133.0" x2="133.0" y1="453.0" y2="357.0" /><line stroke="#999" stroke-width="3" x1="5.0" x2="133.0" y1="701.0" y2="485.0" /><line stroke="#999" stroke-width="3" x1="133.0" x2="5.0" y1="453.0" y2="253.0" /><line stroke="#999" stroke-width="3" x1="29.0" x2="197.0" y1="229.0" y2="357.0" /><line stroke="#999" stroke-width="3" x1="261.0" x2="29.0" y1="613.0" y2="725.0" /><line stroke="#999" stroke-width="3" x1="517.0" x2="685.0" y1="357.0" y2="229.0" /><line stroke="#333" stroke-width="10" x1="581.0" x2="581.0" y1="469.0" y2="589.0" /><line stroke="#999" stroke-width="3" x1="709.0" x2="581.0" y1="253.0" y2="469.0" /><line stroke="#333" stroke-width="10" x1="309.0" x2="309.0" y1="533.0" y2="549.0" /><line stroke="#333" stroke-width="10" x1="309.0" x2="309.0" y1="501.0" y2="533.0" /><line stroke="#333" stroke-width="10" x1="405.0" x2="405.0" y1="501.0" y2="485.0" /><line stroke="#333" stroke-width="10" x1="405.0" x2="405.0" y1="533.0" y2="501.0" /><line stroke="#999" stroke-width="3" x1="405.0" x2="309.0" y1="549.0" y2="549.0" /><line stroke="#999" stroke-width="3" x1="309.0" x2="405.0" y1="485.0" y2="485.0" /><line stroke="#333" stroke-width="10" x1="581.0" x2="557.0" y1="589.0" y2="613.0" /><line stroke="#999" stroke-width="3" x1="581.0" x2="557.0" y1="741.0" y2="613.0" /><line stroke="#333" stroke-width="10" x1="709.0" x2="709.0" y1="605.0" y2="253.0" /><line stroke="#999" stroke-width="3" x1="581.0" x2="709.0" y1="589.0" y2="605.0" /><line stroke="#333" stroke-width="10" x1="645.0" x2="709.0" y1="741.0" y2="741.0" /><line stroke="#333" stroke-width="10" x1="325.0" x2="325.0" y1="709.0" y2="677.0" /><line stroke="#333" stroke-width="10" x1="389.0" x2="389.0" y1="773.0" y2="805.0" /><line stroke="#333" stroke-width="10" x1="341.0" x2="325.0" y1="709.0" y2="709.0" /><line stroke="#333" stroke-width="10" x1="341.0" x2="341.0" y1="773.0" y2="709.0" /><line stroke="#333" stroke-width="10" x1="325.0" x2="341.0" y1="773.0" y2="773.0" /><line stroke="#333" stroke-width="10" x1="373.0" x2="389.0" y1="773.0" y2="773.0" /><line stroke="#333" stroke-width="10" x1="373.0" x2="373.0" y1="709.0" y2="773.0" /><line stroke="#333" stroke-width="10" x1="389.0" x2="373.0" y1="709.0" y2="709.0" /><line stroke="#333" stroke-width="10" x1="133.0" x2="133.0" y1="485.0" y2="453.0" /><ellipse cx="1067.0" cy="1398.0" fill="#009" rx="12" ry="24" stroke="#009" stroke-width="5" /><circle cx="1061.0" cy="1925.0" fill="#900" r="16" stroke="#900" stroke-width="5" /><circle cx="221.0" cy="461.0" fill="#009" r="16" stroke="#009" stroke-width="5" /><circle cx="293.0" cy="1981.0" fill="#009" r="16" stroke="#009" stroke-width="5" /><circle cx="117.0" cy="1029.0" fill="#009" r="16" stroke="#009" stroke-width="5" /><circle cx="117.0" cy="821.0" fill="#009" r="16" stroke="#009" stroke-width="5" /><circle cx="357.0" cy="1285.0" fill="#009" r="16" stroke="#009" stroke-width="5" /><circle cx="357.0" cy="1189.0" fill="#009" r="16" stroke="#009" stroke-width="5" /><circle cx="357.0" cy="1093.0" fill="#009" r="16" stroke="#009" stroke-width="5" /><circle cx="229.0" cy="1285.0" fill="#009" r="16" stroke="#009" stroke-width="5" /><circle cx="229.0" cy="1189.0" fill="#009" r="16" stroke="#009" stroke-width="5" /><circle cx="493.0" cy="461.0" fill="#009" r="16" stroke="#009" stroke-width="5" /><circle cx="1037.0" cy="2181.0" fill="#900" r="16" stroke="#900" stroke-width="5" /><circle cx="1701.0" cy="1349.0" fill="#900" r="16" stroke="#900" stroke-width="5" /><circle cx="421.0" cy="2053.0" fill="#900" r="16" stroke="#900" stroke-width="5" /><circle cx="413.0" cy="957.0" fill="#900" r="16" stroke="#900" stroke-width="5" /><circle cx="357.0" cy="877.0" fill="#900" r="16" stroke="#900" stroke-width="5" /><circle cx="1221.0" cy="813.0" fill="#900" r="16" stroke="#900" stroke-width="5" /><circle cx="421.0" cy="1349.0" fill="#090" r="16" stroke="#090" stroke-width="5" /><circle cx="293.0" cy="1381.0" fill="#090" r="16" stroke="#090" stroke-width="5" /><circle cx="357.0" cy="381.0" fill="#090" r="16" stroke="#090" stroke-width="5" /><circle cx="245.0" cy="1037.0" fill="#090" r="16" stroke="#090" stroke-width="5" /><circle cx="717.0" cy="1205.0" fill="#090" r="16" stroke="#090" stroke-width="5" /><circle cx="1469.0" cy="1037.0" fill="#090" r="16" stroke="#090" stroke-width="5" /><circle cx="1349.0" cy="2045.0" fill="#090" r="16" stroke="#090" stroke-width="5" /><circle cx="485.0" cy="2053.0" fill="#090" r="16" stroke="#090" stroke-width="5" /><circle cx="1253.0" cy="389.0" fill="#900" r="16" stroke="#900" stroke-width="5" /><circle cx="1213.0" cy="349.0" fill="#090" r="16" stroke="#090" stroke-width="5" /><circle cx="951.0" cy="1349.0" fill="#090" r="16" stroke="#090" stroke-width="5" /><circle cx="797.0" cy="957.0" fill="#090" r="16" stroke="#090" stroke-width="5" /><circle cx="557.0" cy="853.0" fill="#090" r="16" stroke="#090" stroke-width="5" /><circle cx="173.0" cy="813.0" fill="#090" r="16" stroke="#090" stroke-width="5" /><circle cx="437.0" cy="757.0" fill="#090" r="16" stroke="#090" stroke-width="5" /><circle cx="581.0" cy="2149.0" fill="#009" r="16" stroke="#009" stroke-width="5" /><circle cx="1541.0" cy="2149.0" fill="#009" r="16" stroke="#009" stroke-width="5" /><circle cx="1701.0" cy="1413.0" fill="#009" r="16" stroke="#009" stroke-width="5" /><circle cx="421.0" cy="1413.0" fill="#009" r="16" stroke="#009" stroke-width="5" /><circle cx="1061.0" cy="2013.0" fill="#009" r="16" stroke="#009" stroke-width="5" /><circle cx="1221.0" cy="29.0" fill="#009" r="16" stroke="#009" stroke-width="5" /><circle cx="981.0" cy="1037.0" fill="#009" r="16" stroke="#009" stroke-width="5" /><circle cx="1517.0" cy="1101.0" fill="#009" r="16" stroke="#009" stroke-width="5" /><circle cx="1149.0" cy="413.0" fill="#009" r="16" stroke="#009" stroke-width="5" /><circle cx="1293.0" cy="429.0" fill="#009" r="16" stroke="#009" stroke-width="5" /><circle cx="357.0" cy="517.0" fill="#900" r="16" stroke="#900" stroke-width="5" /><rect fill="#090" height="24" stroke="#090" stroke-width="5" transform="rotate(0,261.0,709.0)" width="24" x="249.0" y="697.0" /><rect fill="#090" height="24" stroke="#090" stroke-width="5" transform="rotate(0,501.0,277.0)" width="24" x="489.0" y="265.0" /><rect fill="#090" height="24" stroke="#090" stroke-width="5" transform="rotate(45,541.0,965.0)" width="24" x="529.0" y="953.0" /><rect fill="#090" height="24" stroke="#090" stroke-width="5" transform="rotate(225,293.0,1285.0)" width="24" x="281.0" y="1273.0" /><rect fill="#090" height="24" stroke="#090" stroke-width="5" transform="rotate(225,117.0,933.0)" width="24" x="105.0" y="921.0" /><rect fill="#090" height="24" stroke="#090" stroke-width="5" transform="rotate(135,341.0,2037.0)" width="24" x="329.0" y="2025.0" /><rect fill="#090" height="24" stroke="#090" stroke-width="5" transform="rotate(135,541.0,1597.0)" width="24" x="529.0" y="1585.0" /><rect fill="#090" height="24" stroke="#090" stroke-width="5" transform="rotate(135,1581.0,1589.0)" width="24" x="1569.0" y="1577.0" /><rect fill="#090" height="24" stroke="#090" stroke-width="5" transform="rotate(315,1080.0,2089.0)" width="24" x="1068.0" y="2077.0" /><rect fill="#090" height="24" stroke="#090" stroke-width="5" transform="rotate(315,1267.0,758.0)" width="24" x="1255.0" y="746.0" /><rect fill="#090" height="24" stroke="#090" stroke-width="5" transform="rotate(180,1061.0,421.0)" width="24" x="1049.0" y="409.0" /><rect fill="#090" height="24" stroke="#090" stroke-width="5" transform="rotate(90,1285.0,94.0)" width="24" x="1273.0" y="82.0" /><rect fill="#090" height="24" stroke="#090" stroke-width="5" transform="rotate(180,885.0,485.0)" width="24" x="873.0" y="473.0" /><rect fill="#090" height="24" stroke="#090" stroke-width="5" transform="rotate(180,957.0,861.0)" width="24" x="945.0" y="849.0" /><rect fill="#090" height="24" stroke="#090" stroke-width="5" transform="rotate(315,1279.0,1253.0)" width="24" x="1267.0" y="1241.0" /><rect fill="#090" height="24" stroke="#090" stroke-width="5" transform="rotate(90,1378.0,980.0)" width="24" x="1366.0" y="968.0" /><rect fill="#900" height="48" stroke="#900" stroke-width="5" transform="rotate(0,469.0,1525.0)" width="32" x="453.0" y="1501.0" /><rect fill="#900" height="48" stroke="#900" stroke-width="5" transform="rotate(270,761.0,2183.0)" width="32" x="745.0" y="2159.0" /><rect fill="#900" height="48" stroke="#900" stroke-width="5" transform="rotate(180,1637.0,1541.0)" width="32" x="1621.0" y="1517.0" /><rect fill="#900" height="48" stroke="#900" stroke-width="5" transform="rotate(90,1501.0,717.0)" width="32" x="1485.0" y="693.0" /><rect fill="#900" height="48" stroke="#900" stroke-width="5" transform="rotate(90,1221.0,286.0)" width="32" x="1205.0" y="262.0" /><rect fill="#900" height="48" stroke="#900" stroke-width="5" transform="rotate(90,949.0,709.0)" width="32" x="933.0" y="685.0" /><rect fill="#900" height="48" stroke="#900" stroke-width="5" transform="rotate(90,1221.0,560.0)" width="32" x="1205.0" y="536.0" /><rect fill="#900" height="48" stroke="#900" stroke-width="5" transform="rotate(0,37.0,469.0)" width="32" x="21.0" y="445.0" /><rect fill="#900" height="48" stroke="#900" stroke-width="5" transform="rotate(270,357.0,653.0)" width="32" x="341.0" y="629.0" /><rect fill="#900" height="48" stroke="#900" stroke-width="5" transform="rotate(0,309.0,1029.0)" width="32" x="293.0" y="1005.0" /><rect fill="#900" height="48" stroke="#900" stroke-width="5" transform="rotate(90,613.0,965.0)" width="32" x="597.0" y="941.0" /><rect fill="#900" height="48" stroke="#900" stroke-width="5" transform="rotate(180,965.0,981.0)" width="32" x="949.0" y="957.0" /><ellipse cx="1150.0" cy="1394.0" fill="#009" rx="12" ry="24" stroke="#009" stroke-width="5" /><ellipse cx="1066.0" cy="1470.0" fill="#009" rx="12" ry="24" stroke="#009" stroke-width="5" /><ellipse cx="986.0" cy="1394.0" fill="#009" rx="12" ry="24" stroke="#009" stroke-width="5" /><circle cx="1085.0" cy="2181.0" fill="#090" r="16" stroke="#090" stroke-width="5" /><rect fill="#090" height="24" stroke="#090" stroke-width="5" transform="rotate(0,1269.0,525.0)" width="24" x="1257.0" y="513.0" /><rect fill="#090" height="24" stroke="#090" stroke-width="5" transform="rotate(0,1325.0,469.0)" width="24" x="1313.0" y="457.0" /><rect fill="#090" height="24" stroke="#090" stroke-width="5" transform="rotate(0,1173.0,509.0)" width="24" x="1161.0" y="497.0" /><rect fill="#090" height="24" stroke="#090" stroke-width="5" transform="rotate(0,1133.0,469.0)" width="24" x="1121.0" y="457.0" /><rect fill="#090" height="24" stroke="#090" stroke-width="5" transform="rotate(0,1269.0,333.0)" width="24" x="1257.0" y="321.0" /><rect fill="#090" height="24" stroke="#090" stroke-width="5" transform="rotate(0,1117.0,373.0)" width="24" x="1105.0" y="361.0" /><rect fill="#090" height="24" stroke="#090" stroke-width="5" transform="rotate(0,1309.0,373.0)" width="24" x="1297.0" y="361.0" /><rect fill="#090" height="24" stroke="#090" stroke-width="5" transform="rotate(0,1173.0,317.0)" width="24" x="1161.0" y="305.0" /><circle cx="1189.0" cy="453.0" fill="#900" r="16" stroke="#900" stroke-width="5" /><circle cx="1229.0" cy="493.0" fill="#090" r="16" stroke="#090" stroke-width="5" /><circle cx="189.0" cy="277.0" fill="#090" r="16" stroke="#090" stroke-width="5" /><circle cx="616.0" cy="551.0" fill="#090" r="16" stroke="#090" stroke-width="5" /><rect fill="#900" height="48" stroke="#900" stroke-width="5" transform="rotate(90,556.0,263.0)" width="32" x="540.0" y="239.0" /><circle cx="357.0" cy="829.0" fill="#009" r="16" stroke="#009" stroke-width="5" /><circle cx="445.0" cy="1501.0" fill="#900" r="16" stroke="#900" stroke-width="5" /><circle cx="1653.0" cy="1525.0" fill="#900" r="16" stroke="#900" stroke-width="5" /><circle cx="357.0" cy="1237.0" fill="#009" r="16" stroke="#009" stroke-width="5" /><circle cx="357.0" cy="1141.0" fill="#009" r="16" stroke="#009" stroke-width="5" /><circle cx="229.0" cy="1237.0" fill="#009" r="16" stroke="#009" stroke-width="5" /><circle cx="261.0" cy="1141.0" fill="#009" r="16" stroke="#009" stroke-width="5" /><circle cx="261.0" cy="1093.0" fill="#009" r="16" stroke="#009" stroke-width="5" /><circle cx="117.0" cy="869.0" fill="#009" r="16" stroke="#009" stroke-width="5" /><circle cx="117.0" cy="981.0" fill="#009" r="16" stroke="#009" stroke-width="5" /></svg>