<?xml version="1.0" encoding="utf-8" ?>
<svg baseProfile="tiny" height="372" version="1.2" viewBox="0 0 7754 2818" width="1024" xmlns="http://www.w3.org/2000/svg" xmlns:ev="http://www.w3.org/2001/xml-events" xmlns:xlink="http://www.w3.org/1999/xlink"><defs /><line stroke="#333" stroke-width="10" x1="5613.0" x2="5812.0" y1="1613.0" y2="1613.0" /><line stroke="#d00" stroke-width="20" x1="5812.0" x2="5940.0" y1="1613.0" y2="1613.0" /><line stroke="#d00" stroke-width="20" x1="6422.0" x2="6550.0" y1="1613.0" y2="1613.0" /><line stroke="#333" stroke-width="10" x1="6550.0" x2="6733.0" y1="1613.0" y2="1613.0" /><line stroke="#d00" stroke-width="20" x1="6733.0" x2="6861.0" y1="1613.0" y2="1613.0" /><line stroke="#333" stroke-width="10" x1="6861.0" x2="7013.0" y1="1613.0" y2="1613.0" /><line stroke="#333" stroke-width="10" x1="7213.0" x2="7213.0" y1="1613.0" y2="1541.0" /><line stroke="#333" stroke-width="10" x1="5613.0" x2="5613.0" y1="1293.0" y2="1405.0" /><line stroke="#d00" stroke-width="20" x1="5940.0" x2="5812.0" y1="1634.0" y2="1634.0" /><line stroke="#d00" stroke-width="20" x1="6550.0" x2="6422.0" y1="1634.0" y2="1634.0" /><line stroke="#999" stroke-width="3" x1="6861.0" x2="6733.0" y1="1634.0" y2="1634.0" /><line stroke="#333" stroke-width="10" x1="6861.0" x2="6861.0" y1="1634.0" y2="1613.0" /><line stroke="#333" stroke-width="10" x1="5812.0" x2="5812.0" y1="1613.0" y2="1634.0" /><line stroke="#333" stroke-width="10" x1="6733.0" x2="6733.0" y1="1613.0" y2="1634.0" /><line stroke="#333" stroke-width="10" x1="6550.0" x2="6550.0" y1="1634.0" y2="1613.0" /><line stroke="#333" stroke-width="10" x1="6422.0" x2="6422.0" y1="1613.0" y2="1634.0" /><line stroke="#333" stroke-width="10" x1="5940.0" x2="5940.0" y1="1634.0" y2="1613.0" /><line stroke="#333" stroke-width="10" x1="6114.0" x2="6149.0" y1="1789.0" y2="1789.0" /><line stroke="#333" stroke-width="10" x1="6114.0" x2="6114.0" y1="1634.0" y2="1789.0" /><line stroke="#333" stroke-width="10" x1="6242.0" x2="6242.0" y1="1789.0" y2="1634.0" /><line stroke="#333" stroke-width="10" x1="5812.0" x2="5940.0" y1="1789.0" y2="1789.0" /><line stroke="#333" stroke-width="10" x1="5940.0" x2="5940.0" y1="1789.0" y2="1634.0" /><line stroke="#333" stroke-width="10" x1="5812.0" x2="5812.0" y1="1634.0" y2="1789.0" /><line stroke="#333" stroke-width="10" x1="6422.0" x2="6550.0" y1="1789.0" y2="1789.0" /><line stroke="#333" stroke-width="10" x1="6550.0" x2="6550.0" y1="1789.0" y2="1634.0" /><line stroke="#333" stroke-width="10" x1="6422.0" x2="6422.0" y1="1634.0" y2="1789.0" /><line stroke="#333" stroke-width="10" x1="6733.0" x2="6861.0" y1="1789.0" y2="1789.0" /><line stroke="#666" stroke-width="20" x1="6861.0" x2="6861.0" y1="1789.0" y2="1661.0" /><line stroke="#333" stroke-width="10" x1="6733.0" x2="6733.0" y1="1634.0" y2="1677.0" /><line stroke="#333" stroke-width="10" x1="7213.0" x2="6405.0" y1="1293.0" y2="1293.0" /><line stroke="#d00" stroke-width="20" x1="6114.0" x2="6242.0" y1="1613.0" y2="1613.0" /><line stroke="#333" stroke-width="10" x1="6114.0" x2="6114.0" y1="1613.0" y2="1634.0" /><line stroke="#333" stroke-width="10" x1="6242.0" x2="6242.0" y1="1634.0" y2="1613.0" /><line stroke="#333" stroke-width="10" x1="6242.0" x2="6422.0" y1="1613.0" y2="1613.0" /><line stroke="#333" stroke-width="10" x1="5940.0" x2="6114.0" y1="1613.0" y2="1613.0" /><line stroke="#d00" stroke-width="20" x1="6242.0" x2="6114.0" y1="1634.0" y2="1634.0" /><line stroke="#333" stroke-width="10" x1="6861.0" x2="6861.0" y1="1661.0" y2="1634.0" /><line stroke="#333" stroke-width="10" x1="6861.0" x2="6882.0" y1="1789.0" y2="1789.0" /><line stroke="#666" stroke-width="20" x1="6882.0" x2="6882.0" y1="1661.0" y2="1789.0" /><line stroke="#333" stroke-width="10" x1="6882.0" x2="6861.0" y1="1661.0" y2="1661.0" /><line stroke="#999" stroke-width="3" x1="7013.0" x2="7213.0" y1="1613.0" y2="1613.0" /><line stroke="#333" stroke-width="10" x1="7213.0" x2="7213.0" y1="1645.0" y2="1613.0" /><line stroke="#999" stroke-width="3" x1="7213.0" x2="7013.0" y1="1645.0" y2="1645.0" /><line stroke="#333" stroke-width="10" x1="7013.0" x2="7013.0" y1="1613.0" y2="1645.0" /><line stroke="#333" stroke-width="10" x1="7013.0" x2="7013.0" y1="1645.0" y2="1661.0" /><line stroke="#333" stroke-width="10" x1="7013.0" x2="6992.0" y1="1661.0" y2="1661.0" /><line stroke="#333" stroke-width="10" x1="6992.0" x2="6882.0" y1="1661.0" y2="1661.0" /><line stroke="#333" stroke-width="10" x1="6882.0" x2="6992.0" y1="1789.0" y2="1789.0" /><line stroke="#333" stroke-width="10" x1="6992.0" x2="7013.0" y1="1789.0" y2="1789.0" /><line stroke="#333" stroke-width="10" x1="7013.0" x2="7013.0" y1="1789.0" y2="1885.0" /><line stroke="#333" stroke-width="10" x1="7013.0" x2="5613.0" y1="1885.0" y2="1885.0" /><line stroke="#333" stroke-width="10" x1="5613.0" x2="5613.0" y1="1885.0" y2="1981.0" /><line stroke="#333" stroke-width="10" x1="5613.0" x2="7213.0" y1="2165.0" y2="2165.0" /><line stroke="#333" stroke-width="10" x1="7213.0" x2="7213.0" y1="2165.0" y2="1645.0" /><line stroke="#999" stroke-width="3" x1="7013.0" x2="7013.0" y1="1661.0" y2="1789.0" /><line stroke="#999" stroke-width="3" x1="6992.0" x2="6992.0" y1="1789.0" y2="1661.0" /><line stroke="#333" stroke-width="10" x1="6733.0" x2="6733.0" y1="1741.0" y2="1789.0" /><line stroke="#333" stroke-width="10" x1="6733.0" x2="6733.0" y1="1677.0" y2="1741.0" /><line stroke="#999" stroke-width="3" x1="6733.0" x2="6797.0" y1="1677.0" y2="1677.0" /><line stroke="#999" stroke-width="3" x1="6797.0" x2="6797.0" y1="1677.0" y2="1741.0" /><line stroke="#666" stroke-width="20" x1="6797.0" x2="6733.0" y1="1741.0" y2="1741.0" /><line stroke="#999" stroke-width="3" x1="5613.0" x2="5613.0" y1="1981.0" y2="2109.0" /><line stroke="#333" stroke-width="10" x1="5613.0" x2="5592.0" y1="1981.0" y2="1981.0" /><line stroke="#999" stroke-width="3" x1="5592.0" x2="5592.0" y1="2109.0" y2="1981.0" /><line stroke="#333" stroke-width="10" x1="4592.0" x2="5592.0" y1="2109.0" y2="2109.0" /><line stroke="#333" stroke-width="10" x1="5157.0" x2="5157.0" y1="1269.0" y2="845.0" /><line stroke="#999" stroke-width="3" x1="5157.0" x2="5013.0" y1="845.0" y2="845.0" /><line stroke="#333" stroke-width="10" x1="5013.0" x2="5013.0" y1="845.0" y2="1125.0" /><line stroke="#333" stroke-width="10" x1="5013.0" x2="4592.0" y1="1125.0" y2="1125.0" /><line stroke="#333" stroke-width="10" x1="4592.0" x2="4592.0" y1="1125.0" y2="1541.0" /><line stroke="#333" stroke-width="10" x1="5592.0" x2="4877.0" y1="1981.0" y2="1981.0" /><line stroke="#333" stroke-width="10" x1="4877.0" x2="4877.0" y1="1981.0" y2="1269.0" /><line stroke="#333" stroke-width="10" x1="4877.0" x2="5157.0" y1="1269.0" y2="1269.0" /><line stroke="#666" stroke-width="20" x1="5157.0" x2="5013.0" y1="1269.0" y2="1125.0" /><line stroke="#333" stroke-width="10" x1="4592.0" x2="4592.0" y1="1541.0" y2="2001.0" /><line stroke="#333" stroke-width="10" x1="4317.0" x2="4525.0" y1="1541.0" y2="1541.0" /><line stroke="#333" stroke-width="10" x1="5157.0" x2="5157.0" y1="845.0" y2="709.0" /><line stroke="#999" stroke-width="3" x1="4317.0" x2="5157.0" y1="709.0" y2="709.0" /><line stroke="#999" stroke-width="3" x1="4317.0" x2="4317.0" y1="1541.0" y2="709.0" /><line stroke="#333" stroke-width="10" x1="2629.0" x2="4317.0" y1="1541.0" y2="1541.0" /><line stroke="#333" stroke-width="10" x1="5157.0" x2="5157.0" y1="709.0" y2="5.0" /><line stroke="#333" stroke-width="10" x1="5157.0" x2="2629.0" y1="5.0" y2="5.0" /><line stroke="#333" stroke-width="10" x1="2629.0" x2="2629.0" y1="5.0" y2="789.0" /><line stroke="#333" stroke-width="10" x1="4525.0" x2="4525.0" y1="1541.0" y2="981.0" /><line stroke="#333" stroke-width="10" x1="4525.0" x2="4949.0" y1="981.0" y2="981.0" /><line stroke="#333" stroke-width="10" x1="4949.0" x2="4949.0" y1="981.0" y2="845.0" /><line stroke="#333" stroke-width="10" x1="4949.0" x2="5013.0" y1="845.0" y2="845.0" /><line stroke="#333" stroke-width="10" x1="5613.0" x2="5613.0" y1="2109.0" y2="2165.0" /><line stroke="#333" stroke-width="10" x1="5592.0" x2="5613.0" y1="2109.0" y2="2109.0" /><line stroke="#666" stroke-width="20" x1="6149.0" x2="6213.0" y1="1789.0" y2="1789.0" /><line stroke="#333" stroke-width="10" x1="6213.0" x2="6242.0" y1="1789.0" y2="1789.0" /><line stroke="#999" stroke-width="3" x1="2629.0" x2="2629.0" y1="973.0" y2="789.0" /><line stroke="#333" stroke-width="10" x1="2629.0" x2="2629.0" y1="973.0" y2="1541.0" /><line stroke="#999" stroke-width="3" x1="2629.0" x2="2858.0" y1="789.0" y2="789.0" /><line stroke="#999" stroke-width="3" x1="2858.0" x2="2858.0" y1="789.0" y2="973.0" /><line stroke="#999" stroke-width="3" x1="2858.0" x2="2629.0" y1="973.0" y2="973.0" /><line stroke="#333" stroke-width="10" x1="109.0" x2="589.0" y1="1437.0" y2="1437.0" /><line stroke="#333" stroke-width="10" x1="589.0" x2="589.0" y1="1437.0" y2="997.0" /><line stroke="#333" stroke-width="10" x1="589.0" x2="429.0" y1="997.0" y2="997.0" /><line stroke="#666" stroke-width="20" x1="429.0" x2="301.0" y1="997.0" y2="997.0" /><line stroke="#333" stroke-width="10" x1="301.0" x2="109.0" y1="997.0" y2="997.0" /><line stroke="#333" stroke-width="10" x1="109.0" x2="109.0" y1="997.0" y2="1437.0" /><line stroke="#333" stroke-width="10" x1="109.0" x2="301.0" y1="973.0" y2="973.0" /><line stroke="#666" stroke-width="20" x1="301.0" x2="429.0" y1="973.0" y2="973.0" /><line stroke="#333" stroke-width="10" x1="429.0" x2="589.0" y1="973.0" y2="973.0" /><line stroke="#333" stroke-width="10" x1="301.0" x2="301.0" y1="973.0" y2="997.0" /><line stroke="#333" stroke-width="10" x1="429.0" x2="429.0" y1="997.0" y2="973.0" /><line stroke="#333" stroke-width="10" x1="741.0" x2="1621.0" y1="1389.0" y2="1389.0" /><line stroke="#333" stroke-width="10" x1="1621.0" x2="1621.0" y1="1389.0" y2="1293.0" /><line stroke="#333" stroke-width="10" x1="1621.0" x2="1197.0" y1="1109.0" y2="1109.0" /><line stroke="#333" stroke-width="10" x1="1197.0" x2="1197.0" y1="1109.0" y2="997.0" /><line stroke="#333" stroke-width="10" x1="1197.0" x2="981.0" y1="997.0" y2="997.0" /><line stroke="#d00" stroke-width="20" x1="981.0" x2="917.0" y1="997.0" y2="997.0" /><line stroke="#333" stroke-width="10" x1="917.0" x2="741.0" y1="997.0" y2="997.0" /><line stroke="#333" stroke-width="10" x1="741.0" x2="741.0" y1="997.0" y2="1389.0" /><line stroke="#333" stroke-width="10" x1="741.0" x2="901.0" y1="973.0" y2="973.0" /><line stroke="#d00" stroke-width="20" x1="917.0" x2="981.0" y1="973.0" y2="973.0" /><line stroke="#333" stroke-width="10" x1="981.0" x2="997.0" y1="973.0" y2="973.0" /><line stroke="#333" stroke-width="10" x1="1197.0" x2="2629.0" y1="973.0" y2="973.0" /><line stroke="#333" stroke-width="10" x1="589.0" x2="741.0" y1="973.0" y2="973.0" /><line stroke="#333" stroke-width="10" x1="917.0" x2="917.0" y1="973.0" y2="997.0" /><line stroke="#333" stroke-width="10" x1="981.0" x2="981.0" y1="997.0" y2="973.0" /><line stroke="#333" stroke-width="10" x1="109.0" x2="109.0" y1="789.0" y2="973.0" /><line stroke="#333" stroke-width="10" x1="2629.0" x2="445.0" y1="789.0" y2="789.0" /><line stroke="#999" stroke-width="3" x1="987.0" x2="923.0" y1="1305.0" y2="1305.0" /><line stroke="#999" stroke-width="3" x1="923.0" x2="923.0" y1="1305.0" y2="1241.0" /><line stroke="#999" stroke-width="3" x1="923.0" x2="987.0" y1="1241.0" y2="1241.0" /><line stroke="#999" stroke-width="3" x1="987.0" x2="987.0" y1="1241.0" y2="1305.0" /><line stroke="#333" stroke-width="10" x1="301.0" x2="285.0" y1="789.0" y2="789.0" /><line stroke="#d00" stroke-width="20" x1="429.0" x2="301.0" y1="789.0" y2="789.0" /><line stroke="#333" stroke-width="10" x1="301.0" x2="301.0" y1="766.0" y2="789.0" /><line stroke="#d00" stroke-width="20" x1="301.0" x2="429.0" y1="766.0" y2="766.0" /><line stroke="#333" stroke-width="10" x1="429.0" x2="429.0" y1="789.0" y2="766.0" /><line stroke="#333" stroke-width="10" x1="429.0" x2="429.0" y1="766.0" y2="613.0" /><line stroke="#333" stroke-width="10" x1="429.0" x2="701.0" y1="613.0" y2="613.0" /><line stroke="#333" stroke-width="10" x1="701.0" x2="701.0" y1="613.0" y2="189.0" /><line stroke="#333" stroke-width="10" x1="701.0" x2="429.0" y1="189.0" y2="189.0" /><line stroke="#333" stroke-width="10" x1="5.0" x2="5.0" y1="189.0" y2="613.0" /><line stroke="#333" stroke-width="10" x1="5.0" x2="301.0" y1="613.0" y2="613.0" /><line stroke="#999" stroke-width="3" x1="429.0" x2="301.0" y1="613.0" y2="613.0" /><line stroke="#666" stroke-width="20" x1="1621.0" x2="1621.0" y1="1293.0" y2="1229.0" /><line stroke="#333" stroke-width="10" x1="1621.0" x2="1621.0" y1="1229.0" y2="1109.0" /><line stroke="#333" stroke-width="10" x1="6277.0" x2="5613.0" y1="1293.0" y2="1293.0" /><line stroke="#999" stroke-width="3" x1="6405.0" x2="6277.0" y1="1293.0" y2="1293.0" /><line stroke="#333" stroke-width="10" x1="6277.0" x2="6277.0" y1="1268.0" y2="1293.0" /><line stroke="#666" stroke-width="20" x1="6277.0" x2="6405.0" y1="1268.0" y2="1268.0" /><line stroke="#333" stroke-width="10" x1="6405.0" x2="6405.0" y1="1293.0" y2="1268.0" /><line stroke="#333" stroke-width="10" x1="6405.0" x2="6545.0" y1="1268.0" y2="553.0" /><line stroke="#333" stroke-width="10" x1="6545.0" x2="6137.0" y1="553.0" y2="553.0" /><line stroke="#333" stroke-width="10" x1="6137.0" x2="6277.0" y1="553.0" y2="1268.0" /><line stroke="#999" stroke-width="3" x1="6379.0" x2="6313.0" y1="701.0" y2="701.0" /><line stroke="#999" stroke-width="3" x1="6379.0" x2="6379.0" y1="614.0" y2="701.0" /><line stroke="#999" stroke-width="3" x1="6313.0" x2="6379.0" y1="614.0" y2="614.0" /><line stroke="#999" stroke-width="3" x1="6313.0" x2="6313.0" y1="701.0" y2="614.0" /><line stroke="#333" stroke-width="10" x1="365.0" x2="5.0" y1="189.0" y2="189.0" /><line stroke="#999" stroke-width="3" x1="429.0" x2="365.0" y1="189.0" y2="189.0" /><line stroke="#0d0" stroke-width="20" x1="429.0" x2="365.0" y1="168.0" y2="168.0" /><line stroke="#333" stroke-width="10" x1="365.0" x2="365.0" y1="168.0" y2="189.0" /><line stroke="#333" stroke-width="10" x1="429.0" x2="429.0" y1="189.0" y2="168.0" /><line stroke="#333" stroke-width="10" x1="301.0" x2="301.0" y1="613.0" y2="766.0" /><line stroke="#d00" stroke-width="20" x1="4592.0" x2="4592.0" y1="2045.0" y2="2109.0" /><line stroke="#333" stroke-width="10" x1="4592.0" x2="4578.0" y1="2045.0" y2="2045.0" /><line stroke="#00d" stroke-width="20" x1="4578.0" x2="4578.0" y1="2045.0" y2="2109.0" /><line stroke="#333" stroke-width="10" x1="4578.0" x2="4592.0" y1="2109.0" y2="2109.0" /><line stroke="#333" stroke-width="10" x1="4368.0" x2="4578.0" y1="2109.0" y2="2109.0" /><line stroke="#333" stroke-width="10" x1="4578.0" x2="4565.0" y1="2045.0" y2="2045.0" /><line stroke="#999" stroke-width="3" x1="4368.0" x2="4368.0" y1="2045.0" y2="2109.0" /><line stroke="#333" stroke-width="10" x1="2493.0" x2="4165.0" y1="2813.0" y2="2813.0" /><line stroke="#333" stroke-width="10" x1="4165.0" x2="4165.0" y1="2813.0" y2="2533.0" /><line stroke="#333" stroke-width="10" x1="4165.0" x2="4165.0" y1="2533.0" y2="2389.0" /><line stroke="#333" stroke-width="10" x1="4165.0" x2="4165.0" y1="2389.0" y2="2205.0" /><line stroke="#333" stroke-width="10" x1="4165.0" x2="2493.0" y1="2117.0" y2="2117.0" /><line stroke="#333" stroke-width="10" x1="2493.0" x2="2493.0" y1="2117.0" y2="2389.0" /><line stroke="#999" stroke-width="3" x1="4165.0" x2="4001.0" y1="2533.0" y2="2533.0" /><line stroke="#999" stroke-width="3" x1="4001.0" x2="4001.0" y1="2533.0" y2="2389.0" /><line stroke="#999" stroke-width="3" x1="4001.0" x2="4165.0" y1="2389.0" y2="2389.0" /><line stroke="#333" stroke-width="10" x1="2493.0" x2="2493.0" y1="2389.0" y2="2453.0" /><line stroke="#333" stroke-width="10" x1="2493.0" x2="2493.0" y1="2453.0" y2="2813.0" /><line stroke="#999" stroke-width="3" x1="4165.0" x2="4165.0" y1="2205.0" y2="2117.0" /><line stroke="#333" stroke-width="10" x1="4165.0" x2="4187.0" y1="2205.0" y2="2205.0" /><line stroke="#999" stroke-width="3" x1="4187.0" x2="4187.0" y1="2117.0" y2="2205.0" /><line stroke="#333" stroke-width="10" x1="4187.0" x2="4165.0" y1="2117.0" y2="2117.0" /><line stroke="#333" stroke-width="10" x1="4187.0" x2="4187.0" y1="2045.0" y2="2117.0" /><line stroke="#333" stroke-width="10" x1="4349.0" x2="4187.0" y1="2045.0" y2="2045.0" /><line stroke="#333" stroke-width="10" x1="4187.0" x2="4277.0" y1="2205.0" y2="2205.0" /><line stroke="#333" stroke-width="10" x1="4277.0" x2="4277.0" y1="2205.0" y2="2109.0" /><line stroke="#333" stroke-width="10" x1="4277.0" x2="4349.0" y1="2109.0" y2="2109.0" /><line stroke="#333" stroke-width="10" x1="4349.0" x2="4368.0" y1="2109.0" y2="2109.0" /><line stroke="#333" stroke-width="10" x1="4368.0" x2="4349.0" y1="2045.0" y2="2045.0" /><line stroke="#666" stroke-width="20" x1="4349.0" x2="4349.0" y1="2109.0" y2="2045.0" /><line stroke="#999" stroke-width="3" x1="4405.0" x2="4453.0" y1="2051.0" y2="2051.0" /><line stroke="#999" stroke-width="3" x1="4453.0" x2="4453.0" y1="2051.0" y2="2099.0" /><line stroke="#999" stroke-width="3" x1="4453.0" x2="4405.0" y1="2099.0" y2="2099.0" /><line stroke="#999" stroke-width="3" x1="4405.0" x2="4405.0" y1="2099.0" y2="2051.0" /><line stroke="#333" stroke-width="10" x1="4456.0" x2="4368.0" y1="2045.0" y2="2045.0" /><line stroke="#0d0" stroke-width="20" x1="4520.0" x2="4456.0" y1="2045.0" y2="2045.0" /><line stroke="#333" stroke-width="10" x1="5613.0" x2="5613.0" y1="1533.0" y2="1613.0" /><line stroke="#999" stroke-width="3" x1="5613.0" x2="5613.0" y1="1405.0" y2="1533.0" /><line stroke="#333" stroke-width="10" x1="5485.0" x2="5613.0" y1="1533.0" y2="1533.0" /><line stroke="#333" stroke-width="10" x1="5613.0" x2="5485.0" y1="1405.0" y2="1405.0" /><line stroke="#333" stroke-width="10" x1="5485.0" x2="5485.0" y1="1405.0" y2="1533.0" /><line stroke="#333" stroke-width="10" x1="7213.0" x2="7213.0" y1="1413.0" y2="1293.0" /><line stroke="#999" stroke-width="3" x1="7213.0" x2="7213.0" y1="1541.0" y2="1413.0" /><line stroke="#333" stroke-width="10" x1="7213.0" x2="7341.0" y1="1541.0" y2="1541.0" /><line stroke="#00d" stroke-width="20" x1="7341.0" x2="7341.0" y1="1413.0" y2="1541.0" /><line stroke="#333" stroke-width="10" x1="7341.0" x2="7213.0" y1="1413.0" y2="1413.0" /><line stroke="#333" stroke-width="10" x1="7341.0" x2="7749.0" y1="1541.0" y2="1541.0" /><line stroke="#333" stroke-width="10" x1="7749.0" x2="7341.0" y1="1413.0" y2="1413.0" /><line stroke="#333" stroke-width="10" x1="7749.0" x2="7749.0" y1="1541.0" y2="1413.0" /><line stroke="#333" stroke-width="10" x1="997.0" x2="1197.0" y1="973.0" y2="973.0" /><line stroke="#333" stroke-width="10" x1="901.0" x2="917.0" y1="973.0" y2="973.0" /><line stroke="#333" stroke-width="10" x1="4592.0" x2="4592.0" y1="2026.0" y2="2045.0" /><line stroke="#333" stroke-width="10" x1="4565.0" x2="4520.0" y1="2045.0" y2="2045.0" /><line stroke="#999" stroke-width="3" x1="4592.0" x2="4592.0" y1="2001.0" y2="2026.0" /><line stroke="#333" stroke-width="10" x1="4592.0" x2="4577.0" y1="2001.0" y2="2005.0" /><line stroke="#333" stroke-width="10" x1="4577.0" x2="4577.0" y1="2005.0" y2="2021.0" /><line stroke="#333" stroke-width="10" x1="4577.0" x2="4592.0" y1="2021.0" y2="2026.0" /><line stroke="#333" stroke-width="10" x1="445.0" x2="429.0" y1="789.0" y2="789.0" /><line stroke="#333" stroke-width="10" x1="285.0" x2="109.0" y1="789.0" y2="789.0" /><ellipse cx="6773.0" cy="1762.0" fill="#009" rx="12" ry="24" stroke="#009" stroke-width="5" /><circle cx="6769.0" cy="1654.0" fill="#900" r="16" stroke="#900" stroke-width="5" /><rect fill="#900" height="48" stroke="#900" stroke-width="5" transform="rotate(270,5873.0,1721.0)" width="32" x="5857.0" y="1697.0" /><rect fill="#900" height="48" stroke="#900" stroke-width="5" transform="rotate(270,6468.0,1721.0)" width="32" x="6452.0" y="1697.0" /><ellipse cx="5948.0" cy="1999.0" fill="#090" rx="12" ry="24" stroke="#090" stroke-width="5" /><rect fill="#900" height="48" stroke="#900" stroke-width="5" transform="rotate(0,5948.0,1999.0)" width="32" x="5932.0" y="1975.0" /><rect fill="#900" height="48" stroke="#900" stroke-width="5" transform="rotate(270,5857.0,1557.0)" width="32" x="5841.0" y="1533.0" /><rect fill="#900" height="48" stroke="#900" stroke-width="5" transform="rotate(270,6177.0,1557.0)" width="32" x="6161.0" y="1533.0" /><rect fill="#900" height="48" stroke="#900" stroke-width="5" transform="rotate(270,6497.0,1557.0)" width="32" x="6481.0" y="1533.0" /><rect fill="#900" height="48" stroke="#900" stroke-width="5" transform="rotate(270,6817.0,1557.0)" width="32" x="6801.0" y="1533.0" /><rect fill="#900" height="48" stroke="#900" stroke-width="5" transform="rotate(0,7049.0,1717.0)" width="32" x="7033.0" y="1693.0" /><rect fill="#090" height="24" stroke="#090" stroke-width="5" transform="rotate(270,6765.0,1655.0)" width="24" x="6753.0" y="1643.0" /><rect fill="#090" height="24" stroke="#090" stroke-width="5" transform="rotate(270,6818.0,1658.0)" width="24" x="6806.0" y="1646.0" /><rect fill="#090" height="24" stroke="#090" stroke-width="5" transform="rotate(270,6797.0,1651.0)" width="24" x="6785.0" y="1639.0" /><ellipse cx="337.0" cy="1376.0" fill="#090" rx="12" ry="24" stroke="#090" stroke-width="5" /><rect fill="#900" height="48" stroke="#900" stroke-width="5" transform="rotate(270,325.0,1213.0)" width="32" x="309.0" y="1189.0" /><circle cx="6910.0" cy="1682.0" fill="#900" r="16" stroke="#900" stroke-width="5" /><circle cx="6910.0" cy="1742.0" fill="#090" r="16" stroke="#090" stroke-width="5" /><circle cx="6950.0" cy="1742.0" fill="#090" r="16" stroke="#090" stroke-width="5" /><rect fill="#900" height="48" stroke="#900" stroke-width="5" transform="rotate(0,955.0,1273.0)" width="32" x="939.0" y="1249.0" /><ellipse cx="6346.0" cy="661.0" fill="#090" rx="12" ry="24" stroke="#090" stroke-width="5" /><rect fill="#900" height="48" stroke="#900" stroke-width="5" transform="rotate(270,4771.0,1881.0)" width="32" x="4755.0" y="1857.0" /><rect fill="#900" height="48" stroke="#900" stroke-width="5" transform="rotate(270,4771.0,1741.0)" width="32" x="4755.0" y="1717.0" /><rect fill="#900" height="48" stroke="#900" stroke-width="5" transform="rotate(270,4771.0,1601.0)" width="32" x="4755.0" y="1577.0" /><rect fill="#900" height="48" stroke="#900" stroke-width="5" transform="rotate(270,4771.0,1461.0)" width="32" x="4755.0" y="1437.0" /><rect fill="#900" height="48" stroke="#900" stroke-width="5" transform="rotate(270,4771.0,1321.0)" width="32" x="4755.0" y="1297.0" /><rect fill="#900" height="48" stroke="#900" stroke-width="5" transform="rotate(270,5051.0,1183.0)" width="32" x="5035.0" y="1159.0" /><rect fill="#900" height="48" stroke="#900" stroke-width="5" transform="rotate(270,5051.0,1043.0)" width="32" x="5035.0" y="1019.0" /><rect fill="#900" height="48" stroke="#900" stroke-width="5" transform="rotate(270,5051.0,903.0)" width="32" x="5035.0" y="879.0" /><rect fill="#090" height="24" stroke="#090" stroke-width="5" transform="rotate(270,4961.0,789.0)" width="24" x="4949.0" y="777.0" /><rect fill="#090" height="24" stroke="#090" stroke-width="5" transform="rotate(270,5113.0,789.0)" width="24" x="5101.0" y="777.0" /><rect fill="#090" height="24" stroke="#090" stroke-width="5" transform="rotate(270,5113.0,469.0)" width="24" x="5101.0" y="457.0" /><rect fill="#090" height="24" stroke="#090" stroke-width="5" transform="rotate(270,4953.0,469.0)" width="24" x="4941.0" y="457.0" /><rect fill="#090" height="24" stroke="#090" stroke-width="5" transform="rotate(270,3353.0,1269.0)" width="24" x="3341.0" y="1257.0" /><rect fill="#090" height="24" stroke="#090" stroke-width="5" transform="rotate(270,3993.0,1269.0)" width="24" x="3981.0" y="1257.0" /><rect fill="#090" height="24" stroke="#090" stroke-width="5" transform="rotate(270,3513.0,629.0)" width="24" x="3501.0" y="617.0" /><rect fill="#090" height="24" stroke="#090" stroke-width="5" transform="rotate(270,3833.0,309.0)" width="24" x="3821.0" y="297.0" /><rect fill="#090" height="24" stroke="#090" stroke-width="5" transform="rotate(270,3033.0,149.0)" width="24" x="3021.0" y="137.0" /><rect fill="#090" height="24" stroke="#090" stroke-width="5" transform="rotate(270,3193.0,1109.0)" width="24" x="3181.0" y="1097.0" /><rect fill="#090" height="24" stroke="#090" stroke-width="5" transform="rotate(270,2873.0,1429.0)" width="24" x="2861.0" y="1417.0" /><rect fill="#090" height="24" stroke="#090" stroke-width="5" transform="rotate(270,4153.0,789.0)" width="24" x="4141.0" y="777.0" /><rect fill="#090" height="24" stroke="#090" stroke-width="5" transform="rotate(270,4473.0,309.0)" width="24" x="4461.0" y="297.0" /><circle cx="2273.0" cy="885.0" fill="#009" r="16" stroke="#009" stroke-width="5" /><circle cx="1313.0" cy="1205.0" fill="#009" r="16" stroke="#009" stroke-width="5" /><circle cx="1953.0" cy="885.0" fill="#900" r="16" stroke="#900" stroke-width="5" /><circle cx="1793.0" cy="885.0" fill="#090" r="16" stroke="#090" stroke-width="5" /><circle cx="1633.0" cy="885.0" fill="#090" r="16" stroke="#090" stroke-width="5" /><circle cx="1473.0" cy="885.0" fill="#090" r="16" stroke="#090" stroke-width="5" /><circle cx="1313.0" cy="885.0" fill="#090" r="16" stroke="#090" stroke-width="5" /><circle cx="1153.0" cy="885.0" fill="#090" r="16" stroke="#090" stroke-width="5" /><circle cx="993.0" cy="885.0" fill="#009" r="16" stroke="#009" stroke-width="5" /><circle cx="513.0" cy="1205.0" fill="#009" r="16" stroke="#009" stroke-width="5" /><circle cx="193.0" cy="1205.0" fill="#009" r="16" stroke="#009" stroke-width="5" /><circle cx="353.0" cy="1045.0" fill="#009" r="16" stroke="#009" stroke-width="5" /><rect fill="#900" height="48" stroke="#900" stroke-width="5" transform="rotate(90,385.0,541.0)" width="32" x="369.0" y="517.0" /><rect fill="#900" height="48" stroke="#900" stroke-width="5" transform="rotate(90,385.0,381.0)" width="32" x="369.0" y="357.0" /><rect fill="#900" height="48" stroke="#900" stroke-width="5" transform="rotate(90,545.0,381.0)" width="32" x="529.0" y="357.0" /><rect fill="#090" height="24" stroke="#090" stroke-width="5" transform="rotate(90,225.0,381.0)" width="24" x="213.0" y="369.0" /><circle cx="6499.0" cy="2009.0" fill="#900" r="16" stroke="#900" stroke-width="5" /><circle cx="6639.0" cy="2009.0" fill="#090" r="16" stroke="#090" stroke-width="5" /><circle cx="6639.0" cy="2009.0" fill="#090" r="16" stroke="#090" stroke-width="5" /><circle cx="6639.0" cy="2009.0" fill="#090" r="16" stroke="#090" stroke-width="5" /><circle cx="6639.0" cy="2009.0" fill="#090" r="16" stroke="#090" stroke-width="5" /><circle cx="6639.0" cy="2009.0" fill="#090" r="16" stroke="#090" stroke-width="5" /><circle cx="6639.0" cy="2009.0" fill="#090" r="16" stroke="#090" stroke-width="5" /><circle cx="6639.0" cy="2009.0" fill="#090" r="16" stroke="#090" stroke-width="5" /><circle cx="6639.0" cy="2009.0" fill="#090" r="16" stroke="#090" stroke-width="5" /><circle cx="6639.0" cy="2009.0" fill="#090" r="16" stroke="#090" stroke-width="5" /><circle cx="6639.0" cy="2009.0" fill="#090" r="16" stroke="#090" stroke-width="5" /><circle cx="6639.0" cy="2009.0" fill="#090" r="16" stroke="#090" stroke-width="5" /><circle cx="6639.0" cy="2009.0" fill="#090" r="16" stroke="#090" stroke-width="5" /><circle cx="6639.0" cy="2009.0" fill="#090" r="16" stroke="#090" stroke-width="5" /><circle cx="6639.0" cy="2009.0" fill="#090" r="16" stroke="#090" stroke-width="5" /><circle cx="6639.0" cy="2009.0" fill="#090" r="16" stroke="#090" stroke-width="5" /><circle cx="6639.0" cy="2009.0" fill="#090" r="16" stroke="#090" stroke-width="5" /><circle cx="6639.0" cy="2009.0" fill="#090" r="16" stroke="#090" stroke-width="5" /><circle cx="6639.0" cy="2009.0" fill="#090" r="16" stroke="#090" stroke-width="5" /><circle cx="6639.0" cy="2009.0" fill="#090" r="16" stroke="#090" stroke-width="5" /><circle cx="6639.0" cy="2009.0" fill="#090" r="16" stroke="#090" stroke-width="5" /><circle cx="6639.0" cy="2009.0" fill="#090" r="16" stroke="#090" stroke-width="5" /><circle cx="6639.0" cy="2009.0" fill="#090" r="16" stroke="#090" stroke-width="5" /><circle cx="6639.0" cy="2009.0" fill="#090" r="16" stroke="#090" stroke-width="5" /><circle cx="6639.0" cy="2009.0" fill="#090" r="16" stroke="#090" stroke-width="5" /><circle cx="6639.0" cy="2009.0" fill="#090" r="16" stroke="#090" stroke-width="5" /><circle cx="6639.0" cy="2009.0" fill="#090" r="16" stroke="#090" stroke-width="5" /><circle cx="6639.0" cy="2009.0" fill="#090" r="16" stroke="#090" stroke-width="5" /><circle cx="6639.0" cy="2009.0" fill="#090" r="16" stroke="#090" stroke-width="5" /><circle cx="6639.0" cy="2009.0" fill="#090" r="16" stroke="#090" stroke-width="5" /><circle cx="6639.0" cy="2009.0" fill="#090" r="16" stroke="#090" stroke-width="5" /><circle cx="6639.0" cy="2009.0" fill="#090" r="16" stroke="#090" stroke-width="5" /><circle cx="6639.0" cy="2009.0" fill="#090" r="16" stroke="#090" stroke-width="5" /><circle cx="6639.0" cy="2009.0" fill="#090" r="16" stroke="#090" stroke-width="5" /><circle cx="6639.0" cy="2009.0" fill="#090" r="16" stroke="#090" stroke-width="5" /><circle cx="6639.0" cy="2009.0" fill="#090" r="16" stroke="#090" stroke-width="5" /><circle cx="6639.0" cy="2009.0" fill="#090" r="16" stroke="#090" stroke-width="5" /><circle cx="6639.0" cy="2009.0" fill="#090" r="16" stroke="#090" stroke-width="5" /><circle cx="6639.0" cy="2009.0" fill="#090" r="16" stroke="#090" stroke-width="5" /><circle cx="6639.0" cy="2009.0" fill="#090" r="16" stroke="#090" stroke-width="5" /><circle cx="6639.0" cy="2009.0" fill="#090" r="16" stroke="#090" stroke-width="5" /><circle cx="6639.0" cy="2009.0" fill="#090" r="16" stroke="#090" stroke-width="5" /><circle cx="6639.0" cy="2009.0" fill="#090" r="16" stroke="#090" stroke-width="5" /><circle cx="6639.0" cy="2009.0" fill="#090" r="16" stroke="#090" stroke-width="5" /><circle cx="6639.0" cy="2009.0" fill="#090" r="16" stroke="#090" stroke-width="5" /><circle cx="6639.0" cy="2009.0" fill="#090" r="16" stroke="#090" stroke-width="5" /><circle cx="6639.0" cy="2009.0" fill="#090" r="16" stroke="#090" stroke-width="5" /><circle cx="6639.0" cy="2009.0" fill="#090" r="16" stroke="#090" stroke-width="5" /><circle cx="6639.0" cy="2009.0" fill="#090" r="16" stroke="#090" stroke-width="5" /><circle cx="6639.0" cy="2009.0" fill="#090" r="16" stroke="#090" stroke-width="5" /><circle cx="6639.0" cy="2009.0" fill="#090" r="16" stroke="#090" stroke-width="5" /><circle cx="6639.0" cy="2009.0" fill="#090" r="16" stroke="#090" stroke-width="5" /><circle cx="6639.0" cy="2009.0" fill="#090" r="16" stroke="#090" stroke-width="5" /><circle cx="6639.0" cy="2009.0" fill="#090" r="16" stroke="#090" stroke-width="5" /><circle cx="6639.0" cy="2009.0" fill="#090" r="16" stroke="#090" stroke-width="5" /><circle cx="6639.0" cy="2009.0" fill="#090" r="16" stroke="#090" stroke-width="5" /><circle cx="6639.0" cy="2009.0" fill="#090" r="16" stroke="#090" stroke-width="5" /><circle cx="6639.0" cy="2009.0" fill="#090" r="16" stroke="#090" stroke-width="5" /><circle cx="6639.0" cy="2009.0" fill="#090" r="16" stroke="#090" stroke-width="5" /><circle cx="4961.0" cy="331.0" fill="#900" r="16" stroke="#900" stroke-width="5" /><circle cx="4821.0" cy="331.0" fill="#090" r="16" stroke="#090" stroke-width="5" /><circle cx="4821.0" cy="331.0" fill="#090" r="16" stroke="#090" stroke-width="5" /><circle cx="4821.0" cy="331.0" fill="#090" r="16" stroke="#090" stroke-width="5" /><circle cx="4821.0" cy="331.0" fill="#090" r="16" stroke="#090" stroke-width="5" /><circle cx="4821.0" cy="331.0" fill="#090" r="16" stroke="#090" stroke-width="5" /><circle cx="4821.0" cy="331.0" fill="#090" r="16" stroke="#090" stroke-width="5" /><circle cx="4821.0" cy="331.0" fill="#090" r="16" stroke="#090" stroke-width="5" /><circle cx="4821.0" cy="331.0" fill="#090" r="16" stroke="#090" stroke-width="5" /><circle cx="4821.0" cy="331.0" fill="#090" r="16" stroke="#090" stroke-width="5" /><circle cx="4821.0" cy="331.0" fill="#090" r="16" stroke="#090" stroke-width="5" /><circle cx="4821.0" cy="331.0" fill="#090" r="16" stroke="#090" stroke-width="5" /><circle cx="4821.0" cy="331.0" fill="#090" r="16" stroke="#090" stroke-width="5" /><circle cx="4821.0" cy="331.0" fill="#090" r="16" stroke="#090" stroke-width="5" /><circle cx="4821.0" cy="331.0" fill="#090" r="16" stroke="#090" stroke-width="5" /><circle cx="4821.0" cy="331.0" fill="#090" r="16" stroke="#090" stroke-width="5" /><circle cx="4821.0" cy="331.0" fill="#090" r="16" stroke="#090" stroke-width="5" /><circle cx="4821.0" cy="331.0" fill="#090" r="16" stroke="#090" stroke-width="5" /><circle cx="4821.0" cy="331.0" fill="#090" r="16" stroke="#090" stroke-width="5" /><circle cx="4821.0" cy="331.0" fill="#090" r="16" stroke="#090" stroke-width="5" /><circle cx="4821.0" cy="331.0" fill="#090" r="16" stroke="#090" stroke-width="5" /><circle cx="4821.0" cy="331.0" fill="#090" r="16" stroke="#090" stroke-width="5" /><circle cx="4821.0" cy="331.0" fill="#090" r="16" stroke="#090" stroke-width="5" /><circle cx="4821.0" cy="331.0" fill="#090" r="16" stroke="#090" stroke-width="5" /><circle cx="4821.0" cy="331.0" fill="#090" r="16" stroke="#090" stroke-width="5" /><circle cx="4821.0" cy="331.0" fill="#090" r="16" stroke="#090" stroke-width="5" /><circle cx="4821.0" cy="331.0" fill="#090" r="16" stroke="#090" stroke-width="5" /><circle cx="4821.0" cy="331.0" fill="#090" r="16" stroke="#090" stroke-width="5" /><circle cx="4821.0" cy="331.0" fill="#090" r="16" stroke="#090" stroke-width="5" /><circle cx="4821.0" cy="331.0" fill="#090" r="16" stroke="#090" stroke-width="5" /><circle cx="4821.0" cy="331.0" fill="#090" r="16" stroke="#090" stroke-width="5" /><circle cx="4821.0" cy="331.0" fill="#090" r="16" stroke="#090" stroke-width="5" /><circle cx="4821.0" cy="331.0" fill="#090" r="16" stroke="#090" stroke-width="5" /><circle cx="4821.0" cy="331.0" fill="#090" r="16" stroke="#090" stroke-width="5" /><circle cx="4821.0" cy="331.0" fill="#090" r="16" stroke="#090" stroke-width="5" /><circle cx="4821.0" cy="331.0" fill="#090" r="16" stroke="#090" stroke-width="5" /><circle cx="4821.0" cy="331.0" fill="#090" r="16" stroke="#090" stroke-width="5" /><circle cx="4821.0" cy="331.0" fill="#090" r="16" stroke="#090" stroke-width="5" /><circle cx="4821.0" cy="331.0" fill="#090" r="16" stroke="#090" stroke-width="5" /><circle cx="4821.0" cy="331.0" fill="#090" r="16" stroke="#090" stroke-width="5" /><circle cx="4821.0" cy="331.0" fill="#090" r="16" stroke="#090" stroke-width="5" /><circle cx="4821.0" cy="331.0" fill="#090" r="16" stroke="#090" stroke-width="5" /><circle cx="4821.0" cy="331.0" fill="#090" r="16" stroke="#090" stroke-width="5" /><circle cx="4821.0" cy="331.0" fill="#090" r="16" stroke="#090" stroke-width="5" /><circle cx="4821.0" cy="331.0" fill="#090" r="16" stroke="#090" stroke-width="5" /><circle cx="4821.0" cy="331.0" fill="#090" r="16" stroke="#090" stroke-width="5" /><circle cx="4821.0" cy="331.0" fill="#090" r="16" stroke="#090" stroke-width="5" /><circle cx="4821.0" cy="331.0" fill="#090" r="16" stroke="#090" stroke-width="5" /><circle cx="4821.0" cy="331.0" fill="#090" r="16" stroke="#090" stroke-width="5" /><circle cx="4821.0" cy="331.0" fill="#090" r="16" stroke="#090" stroke-width="5" /><circle cx="4821.0" cy="331.0" fill="#090" r="16" stroke="#090" stroke-width="5" /><circle cx="4821.0" cy="331.0" fill="#090" r="16" stroke="#090" stroke-width="5" /><circle cx="4821.0" cy="331.0" fill="#090" r="16" stroke="#090" stroke-width="5" /><circle cx="4821.0" cy="331.0" fill="#090" r="16" stroke="#090" stroke-width="5" /><circle cx="4821.0" cy="331.0" fill="#090" r="16" stroke="#090" stroke-width="5" /><circle cx="6499.0" cy="1729.0" fill="#009" r="16" stroke="#009" stroke-width="5" /><circle cx="5855.0" cy="1729.0" fill="#009" r="16" stroke="#009" stroke-width="5" /><rect fill="#900" height="48" stroke="#900" stroke-width="5" transform="rotate(90,6329.0,925.0)" width="32" x="6313.0" y="901.0" /><rect fill="#900" height="48" stroke="#900" stroke-width="5" transform="rotate(90,6329.0,765.0)" width="32" x="6313.0" y="741.0" /><rect fill="#900" height="48" stroke="#900" stroke-width="5" transform="rotate(90,6329.0,1085.0)" width="32" x="6313.0" y="1061.0" /><circle cx="6489.0" cy="605.0" fill="#009" r="16" stroke="#009" stroke-width="5" /><circle cx="6201.0" cy="605.0" fill="#009" r="16" stroke="#009" stroke-width="5" /><rect fill="#009" height="24" stroke="#009" stroke-width="5" transform="rotate(270,4091.0,2460.0)" width="24" x="4079.0" y="2448.0" /><rect fill="#900" height="48" stroke="#900" stroke-width="5" transform="rotate(270,2724.0,2493.0)" width="32" x="2708.0" y="2469.0" /><rect fill="#900" height="48" stroke="#900" stroke-width="5" transform="rotate(0,3144.0,2493.0)" width="32" x="3128.0" y="2469.0" /><circle cx="4031.0" cy="2444.0" fill="#009" r="16" stroke="#009" stroke-width="5" /><rect fill="#900" height="48" stroke="#900" stroke-width="5" transform="rotate(0,5537.0,1509.0)" width="32" x="5521.0" y="1485.0" /><rect fill="#900" height="48" stroke="#900" stroke-width="5" transform="rotate(0,5537.0,1429.0)" width="32" x="5521.0" y="1405.0" /><rect fill="#009" height="24" stroke="#009" stroke-width="5" transform="rotate(90,6178.0,1428.0)" width="24" x="6166.0" y="1416.0" /><rect fill="#900" height="48" stroke="#900" stroke-width="5" transform="rotate(180,7268.0,1504.0)" width="32" x="7252.0" y="1480.0" /><rect fill="#900" height="48" stroke="#900" stroke-width="5" transform="rotate(180,7268.0,1456.0)" width="32" x="7252.0" y="1432.0" /><rect fill="#900" height="48" stroke="#900" stroke-width="5" transform="rotate(180,7460.0,1509.0)" width="32" x="7444.0" y="1485.0" /><rect fill="#900" height="48" stroke="#900" stroke-width="5" transform="rotate(180,7584.0,1509.0)" width="32" x="7568.0" y="1485.0" /><rect fill="#900" height="48" stroke="#900" stroke-width="5" transform="rotate(180,7708.0,1509.0)" width="32" x="7692.0" y="1485.0" /><rect fill="#900" height="48" stroke="#900" stroke-width="5" transform="rotate(180,7646.0,1509.0)" width="32" x="7630.0" y="1485.0" /><rect fill="#900" height="48" stroke="#900" stroke-width="5" transform="rotate(180,7522.0,1509.0)" width="32" x="7506.0" y="1485.0" /><rect fill="#900" height="48" stroke="#900" stroke-width="5" transform="rotate(180,7398.0,1509.0)" width="32" x="7382.0" y="1485.0" /><rect fill="#900" height="48" stroke="#900" stroke-width="5" transform="rotate(180,7398.0,1447.0)" width="32" x="7382.0" y="1423.0" /><rect fill="#900" height="48" stroke="#900" stroke-width="5" transform="rotate(180,7460.0,1447.0)" width="32" x="7444.0" y="1423.0" /><rect fill="#900" height="48" stroke="#900" stroke-width="5" transform="rotate(180,7522.0,1447.0)" width="32" x="7506.0" y="1423.0" /><rect fill="#900" height="48" stroke="#900" stroke-width="5" transform="rotate(180,7584.0,1447.0)" width="32" x="7568.0" y="1423.0" /><rect fill="#900" height="48" stroke="#900" stroke-width="5" transform="rotate(180,7708.0,1447.0)" width="32" x="7692.0" y="1423.0" /><rect fill="#900" height="48" stroke="#900" stroke-width="5" transform="rotate(180,7646.0,1447.0)" width="32" x="7630.0" y="1423.0" /><rect fill="#090" height="24" stroke="#090" stroke-width="5" transform="rotate(270,3645.0,873.0)" width="24" x="3633.0" y="861.0" /><rect fill="#090" height="24" stroke="#090" stroke-width="5" transform="rotate(0,3741.0,2201.0)" width="24" x="3729.0" y="2189.0" /><rect fill="#090" height="24" stroke="#090" stroke-width="5" transform="rotate(90,6461.0,761.0)" width="24" x="6449.0" y="749.0" /><rect fill="#090" height="24" stroke="#090" stroke-width="5" transform="rotate(270,429.0,897.0)" width="24" x="417.0" y="885.0" /><ellipse cx="5653.0" cy="1345.0" fill="#009" rx="12" ry="24" stroke="#009" stroke-width="5" /><ellipse cx="5653.0" cy="1577.0" fill="#009" rx="12" ry="24" stroke="#009" stroke-width="5" /><ellipse cx="7165.0" cy="1361.0" fill="#009" rx="12" ry="24" stroke="#009" stroke-width="5" /></svg>