<?xml version="1.0" encoding="utf-8" ?>
<svg baseProfile="tiny" height="1024" version="1.2" viewBox="0 0 1930 2026" width="975" xmlns="http://www.w3.org/2000/svg" xmlns:ev="http://www.w3.org/2001/xml-events" xmlns:xlink="http://www.w3.org/1999/xlink"><defs /><line stroke="#333" stroke-width="10" x1="1061.0" x2="965.0" y1="677.0" y2="677.0" /><line stroke="#333" stroke-width="10" x1="965.0" x2="949.0" y1="677.0" y2="725.0" /><line stroke="#333" stroke-width="10" x1="1045.0" x2="1045.0" y1="837.0" y2="813.0" /><line stroke="#333" stroke-width="10" x1="949.0" x2="965.0" y1="757.0" y2="805.0" /><line stroke="#333" stroke-width="10" x1="949.0" x2="949.0" y1="725.0" y2="757.0" /><line stroke="#333" stroke-width="10" x1="981.0" x2="981.0" y1="813.0" y2="845.0" /><line stroke="#333" stroke-width="10" x1="1077.0" x2="1061.0" y1="709.0" y2="677.0" /><line stroke="#666" stroke-width="20" x1="1077.0" x2="1077.0" y1="765.0" y2="709.0" /><line stroke="#333" stroke-width="10" x1="1085.0" x2="1077.0" y1="709.0" y2="709.0" /><line stroke="#666" stroke-width="20" x1="1085.0" x2="1085.0" y1="709.0" y2="765.0" /><line stroke="#333" stroke-width="10" x1="1077.0" x2="1085.0" y1="765.0" y2="765.0" /><line stroke="#333" stroke-width="10" x1="1653.0" x2="1549.0" y1="581.0" y2="469.0" /><line stroke="#999" stroke-width="3" x1="1645.0" x2="1653.0" y1="869.0" y2="781.0" /><line stroke="#333" stroke-width="10" x1="1565.0" x2="1637.0" y1="1045.0" y2="933.0" /><line stroke="#333" stroke-width="10" x1="1261.0" x2="1405.0" y1="965.0" y2="1029.0" /><line stroke="#999" stroke-width="3" x1="1477.0" x2="1477.0" y1="189.0" y2="109.0" /><line stroke="#333" stroke-width="10" x1="1549.0" x2="1405.0" y1="469.0" y2="469.0" /><line stroke="#333" stroke-width="10" x1="1405.0" x2="1261.0" y1="469.0" y2="541.0" /><line stroke="#333" stroke-width="10" x1="1405.0" x2="1565.0" y1="1029.0" y2="1045.0" /><line stroke="#00d" stroke-width="20" x1="829.0" x2="829.0" y1="229.0" y2="165.0" /><line stroke="#999" stroke-width="3" x1="1413.0" x2="1349.0" y1="797.0" y2="797.0" /><line stroke="#999" stroke-width="3" x1="1413.0" x2="1413.0" y1="861.0" y2="797.0" /><line stroke="#999" stroke-width="3" x1="1349.0" x2="1413.0" y1="861.0" y2="861.0" /><line stroke="#999" stroke-width="3" x1="1349.0" x2="1349.0" y1="797.0" y2="861.0" /><line stroke="#999" stroke-width="3" x1="1413.0" x2="1349.0" y1="701.0" y2="701.0" /><line stroke="#999" stroke-width="3" x1="1413.0" x2="1413.0" y1="765.0" y2="701.0" /><line stroke="#999" stroke-width="3" x1="1349.0" x2="1413.0" y1="765.0" y2="765.0" /><line stroke="#999" stroke-width="3" x1="1349.0" x2="1349.0" y1="701.0" y2="765.0" /><line stroke="#999" stroke-width="3" x1="1549.0" x2="1485.0" y1="701.0" y2="701.0" /><line stroke="#999" stroke-width="3" x1="1549.0" x2="1549.0" y1="765.0" y2="701.0" /><line stroke="#999" stroke-width="3" x1="1485.0" x2="1549.0" y1="765.0" y2="765.0" /><line stroke="#999" stroke-width="3" x1="1485.0" x2="1485.0" y1="701.0" y2="765.0" /><line stroke="#999" stroke-width="3" x1="1485.0" x2="1549.0" y1="797.0" y2="797.0" /><line stroke="#999" stroke-width="3" x1="1549.0" x2="1549.0" y1="797.0" y2="861.0" /><line stroke="#999" stroke-width="3" x1="1549.0" x2="1485.0" y1="861.0" y2="861.0" /><line stroke="#999" stroke-width="3" x1="1485.0" x2="1485.0" y1="861.0" y2="797.0" /><line stroke="#333" stroke-width="10" x1="1685.0" x2="1677.0" y1="957.0" y2="1005.0" /><line stroke="#333" stroke-width="10" x1="1821.0" x2="1925.0" y1="997.0" y2="997.0" /><line stroke="#333" stroke-width="10" x1="1653.0" x2="1653.0" y1="781.0" y2="581.0" /><line stroke="#333" stroke-width="10" x1="1637.0" x2="1645.0" y1="933.0" y2="869.0" /><line stroke="#333" stroke-width="10" x1="1645.0" x2="1701.0" y1="869.0" y2="885.0" /><line stroke="#d00" stroke-width="20" x1="1677.0" x2="1805.0" y1="1101.0" y2="1101.0" /><line stroke="#333" stroke-width="10" x1="1725.0" x2="1653.0" y1="789.0" y2="781.0" /><line stroke="#333" stroke-width="10" x1="1805.0" x2="1805.0" y1="789.0" y2="421.0" /><line stroke="#333" stroke-width="10" x1="1725.0" x2="1725.0" y1="421.0" y2="789.0" /><line stroke="#333" stroke-width="10" x1="1805.0" x2="1805.0" y1="1101.0" y2="997.0" /><line stroke="#333" stroke-width="10" x1="1805.0" x2="1805.0" y1="925.0" y2="789.0" /><line stroke="#666" stroke-width="20" x1="1805.0" x2="1805.0" y1="997.0" y2="925.0" /><line stroke="#333" stroke-width="10" x1="1821.0" x2="1805.0" y1="925.0" y2="925.0" /><line stroke="#666" stroke-width="20" x1="1821.0" x2="1821.0" y1="925.0" y2="997.0" /><line stroke="#333" stroke-width="10" x1="1805.0" x2="1821.0" y1="997.0" y2="997.0" /><line stroke="#333" stroke-width="10" x1="1925.0" x2="1821.0" y1="925.0" y2="925.0" /><line stroke="#333" stroke-width="10" x1="1925.0" x2="1925.0" y1="997.0" y2="925.0" /><line stroke="#666" stroke-width="20" x1="1805.0" x2="1725.0" y1="421.0" y2="421.0" /><line stroke="#999" stroke-width="3" x1="1805.0" x2="1725.0" y1="325.0" y2="325.0" /><line stroke="#333" stroke-width="10" x1="1805.0" x2="1805.0" y1="421.0" y2="325.0" /><line stroke="#333" stroke-width="10" x1="1725.0" x2="1725.0" y1="325.0" y2="421.0" /><line stroke="#999" stroke-width="3" x1="1229.0" x2="1213.0" y1="1181.0" y2="1181.0" /><line stroke="#999" stroke-width="3" x1="1277.0" x2="1261.0" y1="1181.0" y2="1181.0" /><line stroke="#999" stroke-width="3" x1="1197.0" x2="1213.0" y1="1309.0" y2="1309.0" /><line stroke="#333" stroke-width="10" x1="1301.0" x2="1301.0" y1="205.0" y2="253.0" /><line stroke="#999" stroke-width="3" x1="1261.0" x2="1261.0" y1="1309.0" y2="1181.0" /><line stroke="#333" stroke-width="10" x1="437.0" x2="429.0" y1="1349.0" y2="1365.0" /><line stroke="#333" stroke-width="10" x1="1301.0" x2="1301.0" y1="5.0" y2="189.0" /><line stroke="#333" stroke-width="10" x1="741.0" x2="557.0" y1="1613.0" y2="1461.0" /><line stroke="#333" stroke-width="10" x1="325.0" x2="5.0" y1="1285.0" y2="1717.0" /><line stroke="#333" stroke-width="10" x1="429.0" x2="741.0" y1="2021.0" y2="1613.0" /><line stroke="#999" stroke-width="3" x1="1229.0" x2="1245.0" y1="1309.0" y2="1309.0" /><line stroke="#333" stroke-width="10" x1="429.0" x2="325.0" y1="1365.0" y2="1285.0" /><line stroke="#333" stroke-width="10" x1="557.0" x2="565.0" y1="1461.0" y2="1445.0" /><line stroke="#333" stroke-width="10" x1="5.0" x2="157.0" y1="1717.0" y2="1851.0" /><line stroke="#999" stroke-width="3" x1="1245.0" x2="1229.0" y1="1181.0" y2="1181.0" /><line stroke="#0d0" stroke-width="20" x1="157.0" x2="261.0" y1="1851.0" y2="1925.0" /><line stroke="#999" stroke-width="3" x1="1213.0" x2="1229.0" y1="1309.0" y2="1309.0" /><line stroke="#999" stroke-width="3" x1="1053.0" x2="989.0" y1="869.0" y2="893.0" /><line stroke="#999" stroke-width="3" x1="1245.0" x2="1261.0" y1="1309.0" y2="1309.0" /><line stroke="#999" stroke-width="3" x1="1229.0" x2="1229.0" y1="1309.0" y2="1181.0" /><line stroke="#666" stroke-width="20" x1="557.0" x2="429.0" y1="1461.0" y2="1365.0" /><line stroke="#333" stroke-width="10" x1="261.0" x2="429.0" y1="1925.0" y2="2021.0" /><line stroke="#999" stroke-width="3" x1="1245.0" x2="1245.0" y1="1309.0" y2="1181.0" /><line stroke="#333" stroke-width="10" x1="1429.0" x2="1477.0" y1="189.0" y2="189.0" /><line stroke="#666" stroke-width="20" x1="1301.0" x2="1429.0" y1="189.0" y2="189.0" /><line stroke="#333" stroke-width="10" x1="1301.0" x2="1301.0" y1="189.0" y2="205.0" /><line stroke="#333" stroke-width="10" x1="1429.0" x2="1429.0" y1="205.0" y2="189.0" /><line stroke="#666" stroke-width="20" x1="1429.0" x2="1301.0" y1="205.0" y2="205.0" /><line stroke="#333" stroke-width="10" x1="1165.0" x2="1429.0" y1="437.0" y2="437.0" /><line stroke="#333" stroke-width="10" x1="1429.0" x2="1429.0" y1="437.0" y2="205.0" /><line stroke="#333" stroke-width="10" x1="1165.0" x2="1165.0" y1="253.0" y2="437.0" /><line stroke="#333" stroke-width="10" x1="1301.0" x2="1165.0" y1="253.0" y2="253.0" /><line stroke="#333" stroke-width="10" x1="1477.0" x2="1301.0" y1="5.0" y2="5.0" /><line stroke="#333" stroke-width="10" x1="1157.0" x2="1085.0" y1="621.0" y2="709.0" /><line stroke="#d00" stroke-width="20" x1="1261.0" x2="1157.0" y1="541.0" y2="621.0" /><line stroke="#333" stroke-width="10" x1="1261.0" x2="1245.0" y1="541.0" y2="533.0" /><line stroke="#666" stroke-width="20" x1="1141.0" x2="1245.0" y1="613.0" y2="533.0" /><line stroke="#333" stroke-width="10" x1="1141.0" x2="1157.0" y1="613.0" y2="621.0" /><line stroke="#333" stroke-width="10" x1="1245.0" x2="1133.0" y1="533.0" y2="429.0" /><line stroke="#333" stroke-width="10" x1="1133.0" x2="1029.0" y1="429.0" y2="517.0" /><line stroke="#333" stroke-width="10" x1="1029.0" x2="1141.0" y1="517.0" y2="613.0" /><line stroke="#999" stroke-width="3" x1="1317.0" x2="1261.0" y1="589.0" y2="541.0" /><line stroke="#999" stroke-width="3" x1="1269.0" x2="1317.0" y1="637.0" y2="589.0" /><line stroke="#999" stroke-width="3" x1="1157.0" x2="1189.0" y1="621.0" y2="653.0" /><line stroke="#999" stroke-width="3" x1="1245.0" x2="1269.0" y1="613.0" y2="637.0" /><line stroke="#999" stroke-width="3" x1="1189.0" x2="1245.0" y1="653.0" y2="613.0" /><line stroke="#333" stroke-width="10" x1="997.0" x2="992.0" y1="256.0" y2="199.0" /><line stroke="#333" stroke-width="10" x1="978.0" x2="997.0" y1="309.0" y2="256.0" /><line stroke="#333" stroke-width="10" x1="936.0" x2="978.0" y1="349.0" y2="309.0" /><line stroke="#333" stroke-width="10" x1="883.0" x2="936.0" y1="366.0" y2="349.0" /><line stroke="#333" stroke-width="10" x1="825.0" x2="883.0" y1="358.0" y2="366.0" /><line stroke="#333" stroke-width="10" x1="779.0" x2="825.0" y1="327.0" y2="358.0" /><line stroke="#333" stroke-width="10" x1="750.0" x2="779.0" y1="271.0" y2="327.0" /><line stroke="#666" stroke-width="20" x1="749.0" x2="750.0" y1="189.0" y2="271.0" /><line stroke="#333" stroke-width="10" x1="764.0" x2="749.0" y1="168.0" y2="189.0" /><line stroke="#333" stroke-width="10" x1="805.0" x2="764.0" y1="128.0" y2="168.0" /><line stroke="#333" stroke-width="10" x1="859.0" x2="805.0" y1="111.0" y2="128.0" /><line stroke="#333" stroke-width="10" x1="916.0" x2="859.0" y1="119.0" y2="111.0" /><line stroke="#333" stroke-width="10" x1="963.0" x2="916.0" y1="150.0" y2="119.0" /><line stroke="#333" stroke-width="10" x1="992.0" x2="963.0" y1="199.0" y2="150.0" /><line stroke="#00d" stroke-width="20" x1="1213.0" x2="1277.0" y1="357.0" y2="357.0" /><line stroke="#00d" stroke-width="20" x1="1277.0" x2="1277.0" y1="357.0" y2="421.0" /><line stroke="#00d" stroke-width="20" x1="1277.0" x2="1213.0" y1="421.0" y2="421.0" /><line stroke="#00d" stroke-width="20" x1="1213.0" x2="1213.0" y1="421.0" y2="357.0" /><line stroke="#00d" stroke-width="20" x1="829.0" x2="893.0" y1="165.0" y2="165.0" /><line stroke="#00d" stroke-width="20" x1="893.0" x2="893.0" y1="165.0" y2="229.0" /><line stroke="#00d" stroke-width="20" x1="893.0" x2="829.0" y1="229.0" y2="229.0" /><line stroke="#333" stroke-width="10" x1="981.0" x2="981.0" y1="805.0" y2="813.0" /><line stroke="#333" stroke-width="10" x1="1085.0" x2="1149.0" y1="765.0" y2="885.0" /><line stroke="#999" stroke-width="3" x1="1413.0" x2="1349.0" y1="613.0" y2="613.0" /><line stroke="#999" stroke-width="3" x1="1413.0" x2="1413.0" y1="677.0" y2="613.0" /><line stroke="#999" stroke-width="3" x1="1349.0" x2="1413.0" y1="677.0" y2="677.0" /><line stroke="#999" stroke-width="3" x1="1349.0" x2="1349.0" y1="613.0" y2="677.0" /><line stroke="#999" stroke-width="3" x1="1549.0" x2="1485.0" y1="613.0" y2="613.0" /><line stroke="#999" stroke-width="3" x1="1549.0" x2="1549.0" y1="677.0" y2="613.0" /><line stroke="#999" stroke-width="3" x1="1485.0" x2="1549.0" y1="677.0" y2="677.0" /><line stroke="#999" stroke-width="3" x1="1485.0" x2="1485.0" y1="613.0" y2="677.0" /><line stroke="#333" stroke-width="10" x1="621.0" x2="565.0" y1="109.0" y2="125.0" /><line stroke="#333" stroke-width="10" x1="1277.0" x2="1045.0" y1="1013.0" y2="973.0" /><line stroke="#333" stroke-width="10" x1="717.0" x2="677.0" y1="157.0" y2="125.0" /><line stroke="#333" stroke-width="10" x1="981.0" x2="989.0" y1="845.0" y2="893.0" /><line stroke="#333" stroke-width="10" x1="677.0" x2="621.0" y1="125.0" y2="109.0" /><line stroke="#333" stroke-width="10" x1="1181.0" x2="1197.0" y1="949.0" y2="925.0" /><line stroke="#333" stroke-width="10" x1="1045.0" x2="805.0" y1="973.0" y2="1013.0" /><line stroke="#333" stroke-width="10" x1="1069.0" x2="1077.0" y1="805.0" y2="765.0" /><line stroke="#999" stroke-width="3" x1="1197.0" x2="1149.0" y1="925.0" y2="885.0" /><line stroke="#333" stroke-width="10" x1="1021.0" x2="1077.0" y1="949.0" y2="973.0" /><line stroke="#333" stroke-width="10" x1="1053.0" x2="1045.0" y1="869.0" y2="837.0" /><line stroke="#999" stroke-width="3" x1="837.0" x2="837.0" y1="1165.0" y2="1301.0" /><line stroke="#999" stroke-width="3" x1="837.0" x2="853.0" y1="1301.0" y2="1301.0" /><line stroke="#999" stroke-width="3" x1="821.0" x2="837.0" y1="1301.0" y2="1301.0" /><line stroke="#333" stroke-width="10" x1="1125.0" x2="1181.0" y1="973.0" y2="949.0" /><line stroke="#333" stroke-width="10" x1="1077.0" x2="1125.0" y1="973.0" y2="973.0" /><line stroke="#333" stroke-width="10" x1="517.0" x2="493.0" y1="157.0" y2="205.0" /><line stroke="#999" stroke-width="3" x1="1045.0" x2="981.0" y1="837.0" y2="845.0" /><line stroke="#333" stroke-width="10" x1="493.0" x2="493.0" y1="205.0" y2="269.0" /><line stroke="#333" stroke-width="10" x1="565.0" x2="517.0" y1="125.0" y2="157.0" /><line stroke="#333" stroke-width="10" x1="1149.0" x2="1141.0" y1="885.0" y2="901.0" /><line stroke="#333" stroke-width="10" x1="493.0" x2="517.0" y1="269.0" y2="317.0" /><line stroke="#333" stroke-width="10" x1="517.0" x2="565.0" y1="317.0" y2="349.0" /><line stroke="#333" stroke-width="10" x1="565.0" x2="621.0" y1="349.0" y2="365.0" /><line stroke="#333" stroke-width="10" x1="621.0" x2="677.0" y1="365.0" y2="349.0" /><line stroke="#333" stroke-width="10" x1="677.0" x2="717.0" y1="349.0" y2="317.0" /><line stroke="#333" stroke-width="10" x1="717.0" x2="741.0" y1="317.0" y2="269.0" /><line stroke="#333" stroke-width="10" x1="741.0" x2="717.0" y1="189.0" y2="157.0" /><line stroke="#333" stroke-width="10" x1="741.0" x2="750.0" y1="269.0" y2="271.0" /><line stroke="#333" stroke-width="10" x1="749.0" x2="741.0" y1="189.0" y2="189.0" /><line stroke="#666" stroke-width="20" x1="741.0" x2="741.0" y1="269.0" y2="189.0" /><line stroke="#999" stroke-width="3" x1="325.0" x2="261.0" y1="597.0" y2="637.0" /><line stroke="#999" stroke-width="3" x1="357.0" x2="565.0" y1="805.0" y2="693.0" /><line stroke="#999" stroke-width="3" x1="565.0" x2="541.0" y1="693.0" y2="645.0" /><line stroke="#999" stroke-width="3" x1="261.0" x2="357.0" y1="637.0" y2="805.0" /><line stroke="#333" stroke-width="10" x1="885.0" x2="629.0" y1="493.0" y2="493.0" /><line stroke="#333" stroke-width="10" x1="629.0" x2="333.0" y1="493.0" y2="493.0" /><line stroke="#333" stroke-width="10" x1="333.0" x2="173.0" y1="493.0" y2="493.0" /><line stroke="#999" stroke-width="3" x1="389.0" x2="325.0" y1="717.0" y2="597.0" /><line stroke="#999" stroke-width="3" x1="1109.0" x2="1125.0" y1="909.0" y2="973.0" /><line stroke="#333" stroke-width="10" x1="1197.0" x2="1261.0" y1="925.0" y2="965.0" /><line stroke="#333" stroke-width="10" x1="1045.0" x2="1069.0" y1="805.0" y2="805.0" /><line stroke="#666" stroke-width="20" x1="981.0" x2="1045.0" y1="805.0" y2="805.0" /><line stroke="#999" stroke-width="3" x1="1021.0" x2="1077.0" y1="949.0" y2="901.0" /><line stroke="#333" stroke-width="10" x1="1109.0" x2="1077.0" y1="909.0" y2="901.0" /><line stroke="#333" stroke-width="10" x1="1677.0" x2="1677.0" y1="1101.0" y2="1109.0" /><line stroke="#333" stroke-width="10" x1="1805.0" x2="1805.0" y1="1109.0" y2="1101.0" /><line stroke="#d00" stroke-width="20" x1="1805.0" x2="1677.0" y1="1109.0" y2="1109.0" /><line stroke="#333" stroke-width="10" x1="1717.0" x2="1685.0" y1="909.0" y2="957.0" /><line stroke="#333" stroke-width="10" x1="1277.0" x2="1581.0" y1="1309.0" y2="1309.0" /><line stroke="#333" stroke-width="10" x1="1581.0" x2="1277.0" y1="1181.0" y2="1181.0" /><line stroke="#333" stroke-width="10" x1="1677.0" x2="1677.0" y1="1005.0" y2="1101.0" /><line stroke="#333" stroke-width="10" x1="1701.0" x2="1717.0" y1="885.0" y2="909.0" /><line stroke="#333" stroke-width="10" x1="1677.0" x2="1669.0" y1="1109.0" y2="1149.0" /><line stroke="#333" stroke-width="10" x1="1677.0" x2="1749.0" y1="1301.0" y2="1261.0" /><line stroke="#333" stroke-width="10" x1="1789.0" x2="1805.0" y1="1181.0" y2="1109.0" /><line stroke="#333" stroke-width="10" x1="1749.0" x2="1789.0" y1="1261.0" y2="1181.0" /><line stroke="#999" stroke-width="3" x1="1277.0" x2="1277.0" y1="1181.0" y2="1309.0" /><line stroke="#333" stroke-width="10" x1="1581.0" x2="1677.0" y1="1309.0" y2="1301.0" /><line stroke="#333" stroke-width="10" x1="1637.0" x2="1581.0" y1="1173.0" y2="1181.0" /><line stroke="#333" stroke-width="10" x1="1669.0" x2="1637.0" y1="1149.0" y2="1173.0" /><line stroke="#333" stroke-width="10" x1="1277.0" x2="1277.0" y1="1181.0" y2="1013.0" /><line stroke="#666" stroke-width="20" x1="789.0" x2="789.0" y1="1301.0" y2="1165.0" /><line stroke="#333" stroke-width="10" x1="1141.0" x2="1109.0" y1="901.0" y2="909.0" /><line stroke="#333" stroke-width="10" x1="1277.0" x2="1277.0" y1="1413.0" y2="1309.0" /><line stroke="#333" stroke-width="10" x1="989.0" x2="1021.0" y1="893.0" y2="949.0" /><line stroke="#999" stroke-width="3" x1="1093.0" x2="1125.0" y1="1205.0" y2="1141.0" /><line stroke="#999" stroke-width="3" x1="1037.0" x2="1093.0" y1="1221.0" y2="1205.0" /><line stroke="#999" stroke-width="3" x1="981.0" x2="1037.0" y1="1173.0" y2="1221.0" /><line stroke="#999" stroke-width="3" x1="981.0" x2="981.0" y1="1109.0" y2="1173.0" /><line stroke="#999" stroke-width="3" x1="1037.0" x2="981.0" y1="1061.0" y2="1109.0" /><line stroke="#999" stroke-width="3" x1="1093.0" x2="1037.0" y1="1077.0" y2="1061.0" /><line stroke="#999" stroke-width="3" x1="1125.0" x2="1093.0" y1="1141.0" y2="1077.0" /><line stroke="#333" stroke-width="10" x1="805.0" x2="789.0" y1="1165.0" y2="1165.0" /><line stroke="#333" stroke-width="10" x1="805.0" x2="805.0" y1="1013.0" y2="1165.0" /><line stroke="#333" stroke-width="10" x1="789.0" x2="805.0" y1="1301.0" y2="1301.0" /><line stroke="#333" stroke-width="10" x1="805.0" x2="805.0" y1="1301.0" y2="1413.0" /><line stroke="#666" stroke-width="20" x1="805.0" x2="805.0" y1="1165.0" y2="1301.0" /><line stroke="#333" stroke-width="10" x1="701.0" x2="557.0" y1="1165.0" y2="1189.0" /><line stroke="#333" stroke-width="10" x1="485.0" x2="437.0" y1="1261.0" y2="1349.0" /><line stroke="#333" stroke-width="10" x1="789.0" x2="701.0" y1="1165.0" y2="1165.0" /><line stroke="#333" stroke-width="10" x1="557.0" x2="485.0" y1="1189.0" y2="1261.0" /><line stroke="#333" stroke-width="10" x1="717.0" x2="789.0" y1="1301.0" y2="1301.0" /><line stroke="#333" stroke-width="10" x1="629.0" x2="717.0" y1="1325.0" y2="1301.0" /><line stroke="#333" stroke-width="10" x1="565.0" x2="629.0" y1="1445.0" y2="1325.0" /><line stroke="#666" stroke-width="20" x1="437.0" x2="565.0" y1="1349.0" y2="1445.0" /><line stroke="#999" stroke-width="3" x1="1165.0" x2="1149.0" y1="1181.0" y2="1181.0" /><line stroke="#999" stroke-width="3" x1="1165.0" x2="1165.0" y1="1309.0" y2="1181.0" /><line stroke="#999" stroke-width="3" x1="1149.0" x2="1165.0" y1="1309.0" y2="1309.0" /><line stroke="#999" stroke-width="3" x1="1149.0" x2="1149.0" y1="1181.0" y2="1309.0" /><line stroke="#999" stroke-width="3" x1="1181.0" x2="1165.0" y1="1181.0" y2="1181.0" /><line stroke="#999" stroke-width="3" x1="1181.0" x2="1181.0" y1="1309.0" y2="1181.0" /><line stroke="#999" stroke-width="3" x1="1165.0" x2="1181.0" y1="1309.0" y2="1309.0" /><line stroke="#999" stroke-width="3" x1="1261.0" x2="1277.0" y1="1309.0" y2="1309.0" /><line stroke="#999" stroke-width="3" x1="1197.0" x2="1181.0" y1="1181.0" y2="1181.0" /><line stroke="#999" stroke-width="3" x1="1197.0" x2="1197.0" y1="1309.0" y2="1181.0" /><line stroke="#999" stroke-width="3" x1="1181.0" x2="1197.0" y1="1309.0" y2="1309.0" /><line stroke="#999" stroke-width="3" x1="1261.0" x2="1245.0" y1="1181.0" y2="1181.0" /><line stroke="#999" stroke-width="3" x1="1213.0" x2="1197.0" y1="1181.0" y2="1181.0" /><line stroke="#999" stroke-width="3" x1="1213.0" x2="1213.0" y1="1309.0" y2="1181.0" /><line stroke="#333" stroke-width="10" x1="1557.0" x2="1477.0" y1="109.0" y2="109.0" /><line stroke="#999" stroke-width="3" x1="1557.0" x2="1557.0" y1="189.0" y2="109.0" /><line stroke="#333" stroke-width="10" x1="1477.0" x2="1557.0" y1="189.0" y2="189.0" /><line stroke="#333" stroke-width="10" x1="1477.0" x2="1477.0" y1="109.0" y2="5.0" /><line stroke="#333" stroke-width="10" x1="1645.0" x2="1557.0" y1="109.0" y2="109.0" /><line stroke="#999" stroke-width="3" x1="1629.0" x2="1645.0" y1="189.0" y2="109.0" /><line stroke="#333" stroke-width="10" x1="1557.0" x2="1629.0" y1="189.0" y2="189.0" /><line stroke="#333" stroke-width="10" x1="1765.0" x2="1645.0" y1="117.0" y2="109.0" /><line stroke="#333" stroke-width="10" x1="1725.0" x2="1725.0" y1="237.0" y2="325.0" /><line stroke="#333" stroke-width="10" x1="1629.0" x2="1701.0" y1="189.0" y2="197.0" /><line stroke="#333" stroke-width="10" x1="1805.0" x2="1805.0" y1="325.0" y2="237.0" /><line stroke="#999" stroke-width="3" x1="1805.0" x2="1725.0" y1="237.0" y2="237.0" /><line stroke="#333" stroke-width="10" x1="1805.0" x2="1797.0" y1="237.0" y2="157.0" /><line stroke="#999" stroke-width="3" x1="1765.0" x2="1701.0" y1="117.0" y2="197.0" /><line stroke="#333" stroke-width="10" x1="1797.0" x2="1765.0" y1="157.0" y2="117.0" /><line stroke="#333" stroke-width="10" x1="1717.0" x2="1725.0" y1="213.0" y2="237.0" /><line stroke="#333" stroke-width="10" x1="1701.0" x2="1717.0" y1="197.0" y2="213.0" /><line stroke="#999" stroke-width="3" x1="933.0" x2="917.0" y1="1165.0" y2="1165.0" /><line stroke="#999" stroke-width="3" x1="933.0" x2="933.0" y1="1301.0" y2="1165.0" /><line stroke="#999" stroke-width="3" x1="917.0" x2="933.0" y1="1301.0" y2="1301.0" /><line stroke="#999" stroke-width="3" x1="917.0" x2="917.0" y1="1165.0" y2="1301.0" /><line stroke="#999" stroke-width="3" x1="917.0" x2="901.0" y1="1165.0" y2="1165.0" /><line stroke="#999" stroke-width="3" x1="837.0" x2="821.0" y1="1165.0" y2="1165.0" /><line stroke="#999" stroke-width="3" x1="901.0" x2="917.0" y1="1301.0" y2="1301.0" /><line stroke="#999" stroke-width="3" x1="901.0" x2="901.0" y1="1165.0" y2="1301.0" /><line stroke="#999" stroke-width="3" x1="901.0" x2="885.0" y1="1165.0" y2="1165.0" /><line stroke="#999" stroke-width="3" x1="805.0" x2="821.0" y1="1301.0" y2="1301.0" /><line stroke="#999" stroke-width="3" x1="885.0" x2="901.0" y1="1301.0" y2="1301.0" /><line stroke="#999" stroke-width="3" x1="885.0" x2="885.0" y1="1165.0" y2="1301.0" /><line stroke="#999" stroke-width="3" x1="885.0" x2="869.0" y1="1165.0" y2="1165.0" /><line stroke="#999" stroke-width="3" x1="821.0" x2="805.0" y1="1165.0" y2="1165.0" /><line stroke="#999" stroke-width="3" x1="869.0" x2="885.0" y1="1301.0" y2="1301.0" /><line stroke="#999" stroke-width="3" x1="869.0" x2="869.0" y1="1165.0" y2="1301.0" /><line stroke="#999" stroke-width="3" x1="869.0" x2="853.0" y1="1165.0" y2="1165.0" /><line stroke="#999" stroke-width="3" x1="821.0" x2="821.0" y1="1165.0" y2="1301.0" /><line stroke="#999" stroke-width="3" x1="853.0" x2="869.0" y1="1301.0" y2="1301.0" /><line stroke="#999" stroke-width="3" x1="853.0" x2="853.0" y1="1165.0" y2="1301.0" /><line stroke="#999" stroke-width="3" x1="853.0" x2="837.0" y1="1165.0" y2="1165.0" /><line stroke="#333" stroke-width="10" x1="1077.0" x2="1053.0" y1="901.0" y2="869.0" /><line stroke="#333" stroke-width="10" x1="1053.0" x2="1277.0" y1="1461.0" y2="1413.0" /><line stroke="#333" stroke-width="10" x1="805.0" x2="1053.0" y1="1413.0" y2="1461.0" /><line stroke="#333" stroke-width="10" x1="965.0" x2="981.0" y1="805.0" y2="805.0" /><line stroke="#333" stroke-width="10" x1="1045.0" x2="1045.0" y1="813.0" y2="805.0" /><line stroke="#666" stroke-width="20" x1="1045.0" x2="981.0" y1="813.0" y2="813.0" /><line stroke="#999" stroke-width="3" x1="541.0" x2="389.0" y1="645.0" y2="717.0" /><line stroke="#333" stroke-width="10" x1="885.0" x2="885.0" y1="941.0" y2="493.0" /><line stroke="#333" stroke-width="10" x1="173.0" x2="885.0" y1="941.0" y2="941.0" /><line stroke="#333" stroke-width="10" x1="173.0" x2="173.0" y1="493.0" y2="941.0" /><line stroke="#999" stroke-width="3" x1="813.0" x2="605.0" y1="581.0" y2="621.0" /><line stroke="#999" stroke-width="3" x1="837.0" x2="813.0" y1="765.0" y2="581.0" /><line stroke="#999" stroke-width="3" x1="605.0" x2="613.0" y1="621.0" y2="685.0" /><line stroke="#999" stroke-width="3" x1="773.0" x2="837.0" y1="773.0" y2="765.0" /><line stroke="#999" stroke-width="3" x1="757.0" x2="773.0" y1="653.0" y2="773.0" /><line stroke="#999" stroke-width="3" x1="613.0" x2="757.0" y1="685.0" y2="653.0" /><line stroke="#00d" stroke-width="20" x1="1085.0" x2="1149.0" y1="485.0" y2="485.0" /><line stroke="#00d" stroke-width="20" x1="1149.0" x2="1149.0" y1="485.0" y2="549.0" /><line stroke="#00d" stroke-width="20" x1="1149.0" x2="1085.0" y1="549.0" y2="549.0" /><line stroke="#00d" stroke-width="20" x1="1085.0" x2="1085.0" y1="549.0" y2="485.0" /><line stroke="#00d" stroke-width="20" x1="509.0" x2="573.0" y1="805.0" y2="805.0" /><line stroke="#00d" stroke-width="20" x1="573.0" x2="573.0" y1="805.0" y2="869.0" /><line stroke="#00d" stroke-width="20" x1="573.0" x2="509.0" y1="869.0" y2="869.0" /><line stroke="#00d" stroke-width="20" x1="509.0" x2="509.0" y1="869.0" y2="805.0" /><ellipse cx="989.0" cy="709.0" fill="#009" rx="12" ry="24" stroke="#009" stroke-width="5" /><rect fill="#009" height="24" stroke="#009" stroke-width="5" transform="rotate(90,845.0,181.0)" width="24" x="833.0" y="169.0" /><rect fill="#009" height="24" stroke="#009" stroke-width="5" transform="rotate(90,1245.0,389.0)" width="24" x="1233.0" y="377.0" /><rect fill="#900" height="48" stroke="#900" stroke-width="5" transform="rotate(135,1149.0,693.0)" width="32" x="1133.0" y="669.0" /><rect fill="#900" height="48" stroke="#900" stroke-width="5" transform="rotate(180,1581.0,901.0)" width="32" x="1565.0" y="877.0" /><rect fill="#900" height="48" stroke="#900" stroke-width="5" transform="rotate(180,1565.0,565.0)" width="32" x="1549.0" y="541.0" /><rect fill="#090" height="24" stroke="#090" stroke-width="5" transform="rotate(180,1597.0,661.0)" width="24" x="1585.0" y="649.0" /><rect fill="#090" height="24" stroke="#090" stroke-width="5" transform="rotate(180,1613.0,821.0)" width="24" x="1601.0" y="809.0" /><rect fill="#900" height="48" stroke="#900" stroke-width="5" transform="rotate(270,1757.0,885.0)" width="32" x="1741.0" y="861.0" /><rect fill="#900" height="48" stroke="#900" stroke-width="5" transform="rotate(270,1773.0,933.0)" width="32" x="1757.0" y="909.0" /><rect fill="#900" height="48" stroke="#900" stroke-width="5" transform="rotate(270,1741.0,981.0)" width="32" x="1725.0" y="957.0" /><rect fill="#900" height="48" stroke="#900" stroke-width="5" transform="rotate(270,1773.0,1013.0)" width="32" x="1757.0" y="989.0" /><rect fill="#900" height="48" stroke="#900" stroke-width="5" transform="rotate(270,1741.0,1061.0)" width="32" x="1725.0" y="1037.0" /><rect fill="#900" height="48" stroke="#900" stroke-width="5" transform="rotate(90,1741.0,725.0)" width="32" x="1725.0" y="701.0" /><rect fill="#900" height="48" stroke="#900" stroke-width="5" transform="rotate(90,1773.0,693.0)" width="32" x="1757.0" y="669.0" /><rect fill="#900" height="48" stroke="#900" stroke-width="5" transform="rotate(90,1741.0,629.0)" width="32" x="1725.0" y="605.0" /><rect fill="#900" height="48" stroke="#900" stroke-width="5" transform="rotate(90,1757.0,581.0)" width="32" x="1741.0" y="557.0" /><rect fill="#900" height="48" stroke="#900" stroke-width="5" transform="rotate(0,1517.0,165.0)" width="32" x="1501.0" y="141.0" /><rect fill="#900" height="48" stroke="#900" stroke-width="5" transform="rotate(90,1437.0,37.0)" width="32" x="1421.0" y="13.0" /><rect fill="#900" height="48" stroke="#900" stroke-width="5" transform="rotate(270,1357.0,293.0)" width="32" x="1341.0" y="269.0" /><circle cx="1421.0" cy="997.0" fill="#900" r="16" stroke="#900" stroke-width="5" /><circle cx="1421.0" cy="501.0" fill="#090" r="16" stroke="#090" stroke-width="5" /><rect fill="#900" height="48" stroke="#900" stroke-width="5" transform="rotate(180,1853.0,965.0)" width="32" x="1837.0" y="941.0" /><ellipse cx="413.0" cy="613.0" fill="#090" rx="12" ry="24" stroke="#090" stroke-width="5" /><rect fill="#900" height="48" stroke="#900" stroke-width="5" transform="rotate(180,1517.0,821.0)" width="32" x="1501.0" y="797.0" /><rect fill="#900" height="48" stroke="#900" stroke-width="5" transform="rotate(180,1517.0,725.0)" width="32" x="1501.0" y="701.0" /><rect fill="#900" height="48" stroke="#900" stroke-width="5" transform="rotate(180,1517.0,645.0)" width="32" x="1501.0" y="621.0" /><circle cx="1373.0" cy="645.0" fill="#009" r="16" stroke="#009" stroke-width="5" /><rect fill="#900" height="48" stroke="#900" stroke-width="5" transform="rotate(45,1133.0,549.0)" width="32" x="1117.0" y="525.0" /><rect fill="#900" height="48" stroke="#900" stroke-width="5" transform="rotate(180,1373.0,725.0)" width="32" x="1357.0" y="701.0" /><rect fill="#900" height="48" stroke="#900" stroke-width="5" transform="rotate(45,1197.0,533.0)" width="32" x="1181.0" y="509.0" /><circle cx="1373.0" cy="821.0" fill="#090" r="16" stroke="#090" stroke-width="5" /><rect fill="#900" height="48" stroke="#900" stroke-width="5" transform="rotate(315,445.0,661.0)" width="32" x="429.0" y="637.0" /><circle cx="493.0" cy="533.0" fill="#009" r="16" stroke="#009" stroke-width="5" /><ellipse cx="541.0" cy="229.0" fill="#090" rx="12" ry="24" stroke="#090" stroke-width="5" /><ellipse cx="813.0" cy="229.0" fill="#900" rx="12" ry="24" stroke="#900" stroke-width="5" /><ellipse cx="909.0" cy="277.0" fill="#900" rx="12" ry="24" stroke="#900" stroke-width="5" /><ellipse cx="909.0" cy="181.0" fill="#900" rx="12" ry="24" stroke="#900" stroke-width="5" /><ellipse cx="813.0" cy="277.0" fill="#900" rx="12" ry="24" stroke="#900" stroke-width="5" /><ellipse cx="909.0" cy="229.0" fill="#900" rx="12" ry="24" stroke="#900" stroke-width="5" /><rect fill="#900" height="48" stroke="#900" stroke-width="5" transform="rotate(270,861.0,309.0)" width="32" x="845.0" y="285.0" /><ellipse cx="861.0" cy="261.0" fill="#900" rx="12" ry="24" stroke="#900" stroke-width="5" /><ellipse cx="765.0" cy="197.0" fill="#900" rx="12" ry="24" stroke="#900" stroke-width="5" /><ellipse cx="813.0" cy="165.0" fill="#900" rx="12" ry="24" stroke="#900" stroke-width="5" /><ellipse cx="845.0" cy="133.0" fill="#900" rx="12" ry="24" stroke="#900" stroke-width="5" /><ellipse cx="877.0" cy="149.0" fill="#900" rx="12" ry="24" stroke="#900" stroke-width="5" /><ellipse cx="941.0" cy="197.0" fill="#900" rx="12" ry="24" stroke="#900" stroke-width="5" /><circle cx="941.0" cy="261.0" fill="#090" r="16" stroke="#090" stroke-width="5" /><rect fill="#900" height="48" stroke="#900" stroke-width="5" transform="rotate(0,637.0,229.0)" width="32" x="621.0" y="205.0" /><rect fill="#900" height="48" stroke="#900" stroke-width="5" transform="rotate(0,1325.0,1237.0)" width="32" x="1309.0" y="1213.0" /><rect fill="#900" height="48" stroke="#900" stroke-width="5" transform="rotate(0,877.0,1109.0)" width="32" x="861.0" y="1085.0" /><circle cx="1709.0" cy="1157.0" fill="#090" r="16" stroke="#090" stroke-width="5" /><circle cx="1693.0" cy="1221.0" fill="#090" r="16" stroke="#090" stroke-width="5" /><rect fill="#090" height="24" stroke="#090" stroke-width="5" transform="rotate(180,1229.0,1045.0)" width="24" x="1217.0" y="1033.0" /><rect fill="#090" height="24" stroke="#090" stroke-width="5" transform="rotate(0,1245.0,1381.0)" width="24" x="1233.0" y="1369.0" /><rect fill="#090" height="24" stroke="#090" stroke-width="5" transform="rotate(0,829.0,1381.0)" width="24" x="817.0" y="1369.0" /><rect fill="#090" height="24" stroke="#090" stroke-width="5" transform="rotate(0,829.0,1045.0)" width="24" x="817.0" y="1033.0" /><rect fill="#900" height="48" stroke="#900" stroke-width="5" transform="rotate(0,733.0,1221.0)" width="32" x="717.0" y="1197.0" /><rect fill="#900" height="48" stroke="#900" stroke-width="5" transform="rotate(0,669.0,1237.0)" width="32" x="653.0" y="1213.0" /><rect fill="#900" height="48" stroke="#900" stroke-width="5" transform="rotate(0,621.0,1205.0)" width="32" x="605.0" y="1181.0" /><rect fill="#900" height="48" stroke="#900" stroke-width="5" transform="rotate(315,525.0,1349.0)" width="32" x="509.0" y="1325.0" /><circle cx="1069.0" cy="1253.0" fill="#090" r="16" stroke="#090" stroke-width="5" /><circle cx="1005.0" cy="1253.0" fill="#090" r="16" stroke="#090" stroke-width="5" /><circle cx="1005.0" cy="1333.0" fill="#090" r="16" stroke="#090" stroke-width="5" /><rect fill="#090" height="24" stroke="#090" stroke-width="5" transform="rotate(0,685.0,1621.0)" width="24" x="673.0" y="1609.0" /><rect fill="#090" height="24" stroke="#090" stroke-width="5" transform="rotate(315,317.0,1349.0)" width="24" x="305.0" y="1337.0" /><rect fill="#090" height="24" stroke="#090" stroke-width="5" transform="rotate(315,61.0,1701.0)" width="24" x="49.0" y="1689.0" /><rect fill="#090" height="24" stroke="#090" stroke-width="5" transform="rotate(0,429.0,1957.0)" width="24" x="417.0" y="1945.0" /><rect fill="#090" height="24" stroke="#090" stroke-width="5" transform="rotate(0,1165.0,837.0)" width="24" x="1153.0" y="825.0" /><rect fill="#090" height="24" stroke="#090" stroke-width="5" transform="rotate(0,1229.0,917.0)" width="24" x="1217.0" y="905.0" /><rect fill="#900" height="48" stroke="#900" stroke-width="5" transform="rotate(315,445.0,661.0)" width="32" x="429.0" y="637.0" /><rect fill="#900" height="48" stroke="#900" stroke-width="5" transform="rotate(180,1901.0,965.0)" width="32" x="1885.0" y="941.0" /><rect fill="#900" height="48" stroke="#900" stroke-width="5" transform="rotate(45,173.0,1525.0)" width="32" x="157.0" y="1501.0" /><rect fill="#900" height="48" stroke="#900" stroke-width="5" transform="rotate(270,1373.0,357.0)" width="32" x="1357.0" y="333.0" /><rect fill="#090" height="24" stroke="#090" stroke-width="5" transform="rotate(0,541.0,1253.0)" width="24" x="529.0" y="1241.0" /><rect fill="#900" height="48" stroke="#900" stroke-width="5" transform="rotate(315,461.0,1445.0)" width="32" x="445.0" y="1421.0" /><rect fill="#900" height="48" stroke="#900" stroke-width="5" transform="rotate(315,317.0,1685.0)" width="32" x="301.0" y="1661.0" /><rect fill="#900" height="48" stroke="#900" stroke-width="5" transform="rotate(315,333.0,1749.0)" width="32" x="317.0" y="1725.0" /><rect fill="#900" height="48" stroke="#900" stroke-width="5" transform="rotate(225,589.0,1573.0)" width="32" x="573.0" y="1549.0" /><rect fill="#900" height="48" stroke="#900" stroke-width="5" transform="rotate(225,557.0,1621.0)" width="32" x="541.0" y="1597.0" /><rect fill="#900" height="48" stroke="#900" stroke-width="5" transform="rotate(225,621.0,1541.0)" width="32" x="605.0" y="1517.0" /><rect fill="#900" height="48" stroke="#900" stroke-width="5" transform="rotate(225,525.0,1781.0)" width="32" x="509.0" y="1757.0" /><ellipse cx="989.0" cy="757.0" fill="#009" rx="12" ry="24" stroke="#009" stroke-width="5" /><ellipse cx="1037.0" cy="709.0" fill="#009" rx="12" ry="24" stroke="#009" stroke-width="5" /><ellipse cx="1037.0" cy="757.0" fill="#009" rx="12" ry="24" stroke="#009" stroke-width="5" /><rect fill="#090" height="24" stroke="#090" stroke-width="5" transform="rotate(0,1501.0,1237.0)" width="24" x="1489.0" y="1225.0" /><rect fill="#090" height="24" stroke="#090" stroke-width="5" transform="rotate(315,189.0,1765.0)" width="24" x="177.0" y="1753.0" /><rect fill="#090" height="24" stroke="#090" stroke-width="5" transform="rotate(315,189.0,917.0)" width="24" x="177.0" y="905.0" /><rect fill="#090" height="24" stroke="#090" stroke-width="5" transform="rotate(90,1357.0,53.0)" width="24" x="1345.0" y="41.0" /><circle cx="1245.0" cy="309.0" fill="#009" r="16" stroke="#009" stroke-width="5" /><rect fill="#090" height="24" stroke="#090" stroke-width="5" transform="rotate(315,573.0,661.0)" width="24" x="561.0" y="649.0" /><rect fill="#090" height="24" stroke="#090" stroke-width="5" transform="rotate(315,349.0,597.0)" width="24" x="337.0" y="585.0" /><rect fill="#090" height="24" stroke="#090" stroke-width="5" transform="rotate(315,717.0,693.0)" width="24" x="705.0" y="681.0" /><circle cx="397.0" cy="661.0" fill="#009" r="16" stroke="#009" stroke-width="5" /><circle cx="845.0" cy="533.0" fill="#009" r="16" stroke="#009" stroke-width="5" /><circle cx="1021.0" cy="901.0" fill="#900" r="16" stroke="#900" stroke-width="5" /><circle cx="1085.0" cy="933.0" fill="#090" r="16" stroke="#090" stroke-width="5" /><circle cx="1149.0" cy="933.0" fill="#090" r="16" stroke="#090" stroke-width="5" /><rect fill="#090" height="24" stroke="#090" stroke-width="5" transform="rotate(315,189.0,517.0)" width="24" x="177.0" y="505.0" /><circle cx="541.0" cy="885.0" fill="#009" r="16" stroke="#009" stroke-width="5" /><rect fill="#009" height="24" stroke="#009" stroke-width="5" transform="rotate(90,541.0,837.0)" width="24" x="529.0" y="825.0" /><rect fill="#009" height="24" stroke="#009" stroke-width="5" transform="rotate(90,1117.0,517.0)" width="24" x="1105.0" y="505.0" /><circle cx="1869.0" cy="949.0" fill="#009" r="16" stroke="#009" stroke-width="5" /><rect fill="#900" height="48" stroke="#900" stroke-width="5" transform="rotate(180,813.0,789.0)" width="32" x="797.0" y="765.0" /><rect fill="#900" height="48" stroke="#900" stroke-width="5" transform="rotate(90,573.0,613.0)" width="32" x="557.0" y="589.0" /><circle cx="1165.0" cy="501.0" fill="#009" r="16" stroke="#009" stroke-width="5" /><circle cx="1453.0" cy="725.0" fill="#009" r="16" stroke="#009" stroke-width="5" /><rect fill="#900" height="48" stroke="#900" stroke-width="5" transform="rotate(135,285.0,549.0)" width="32" x="269.0" y="525.0" /><rect fill="#090" height="24" stroke="#090" stroke-width="5" transform="rotate(315,765.0,549.0)" width="24" x="753.0" y="537.0" /><rect fill="#900" height="48" stroke="#900" stroke-width="5" transform="rotate(180,685.0,565.0)" width="32" x="669.0" y="541.0" /><rect fill="#900" height="48" stroke="#900" stroke-width="5" transform="rotate(180,637.0,549.0)" width="32" x="621.0" y="525.0" /></svg>