<?xml version="1.0" encoding="utf-8" ?>
<svg baseProfile="tiny" height="916" version="1.2" viewBox="0 0 3658 3274" width="1024" xmlns="http://www.w3.org/2000/svg" xmlns:ev="http://www.w3.org/2001/xml-events" xmlns:xlink="http://www.w3.org/1999/xlink"><defs /><line stroke="#999" stroke-width="3" x1="325.0" x2="1285.0" y1="1733.0" y2="1733.0" /><line stroke="#999" stroke-width="3" x1="1285.0" x2="1285.0" y1="1733.0" y2="773.0" /><line stroke="#333" stroke-width="10" x1="1285.0" x2="589.0" y1="773.0" y2="773.0" /><line stroke="#999" stroke-width="3" x1="325.0" x2="325.0" y1="773.0" y2="1733.0" /><line stroke="#333" stroke-width="10" x1="1285.0" x2="1605.0" y1="1733.0" y2="773.0" /><line stroke="#333" stroke-width="10" x1="1605.0" x2="1285.0" y1="773.0" y2="773.0" /><line stroke="#333" stroke-width="10" x1="325.0" x2="285.0" y1="773.0" y2="773.0" /><line stroke="#333" stroke-width="10" x1="5.0" x2="325.0" y1="773.0" y2="1733.0" /><line stroke="#333" stroke-width="10" x1="325.0" x2="837.0" y1="1733.0" y2="2821.0" /><line stroke="#333" stroke-width="10" x1="837.0" x2="1285.0" y1="2821.0" y2="1733.0" /><line stroke="#999" stroke-width="3" x1="325.0" x2="325.0" y1="453.0" y2="517.0" /><line stroke="#999" stroke-width="3" x1="389.0" x2="325.0" y1="773.0" y2="773.0" /><line stroke="#333" stroke-width="10" x1="389.0" x2="389.0" y1="773.0" y2="765.0" /><line stroke="#333" stroke-width="10" x1="389.0" x2="325.0" y1="453.0" y2="453.0" /><line stroke="#999" stroke-width="3" x1="389.0" x2="389.0" y1="517.0" y2="453.0" /><line stroke="#333" stroke-width="10" x1="389.0" x2="773.0" y1="517.0" y2="517.0" /><line stroke="#333" stroke-width="10" x1="773.0" x2="773.0" y1="517.0" y2="453.0" /><line stroke="#999" stroke-width="3" x1="773.0" x2="709.0" y1="453.0" y2="453.0" /><line stroke="#333" stroke-width="10" x1="709.0" x2="389.0" y1="453.0" y2="453.0" /><line stroke="#333" stroke-width="10" x1="773.0" x2="773.0" y1="453.0" y2="69.0" /><line stroke="#333" stroke-width="10" x1="773.0" x2="709.0" y1="5.0" y2="5.0" /><line stroke="#333" stroke-width="10" x1="709.0" x2="709.0" y1="5.0" y2="453.0" /><line stroke="#999" stroke-width="3" x1="773.0" x2="773.0" y1="69.0" y2="5.0" /><line stroke="#333" stroke-width="10" x1="773.0" x2="1029.0" y1="69.0" y2="69.0" /><line stroke="#333" stroke-width="10" x1="1093.0" x2="1093.0" y1="69.0" y2="5.0" /><line stroke="#333" stroke-width="10" x1="1093.0" x2="773.0" y1="5.0" y2="5.0" /><line stroke="#999" stroke-width="3" x1="1029.0" x2="1093.0" y1="69.0" y2="69.0" /><line stroke="#333" stroke-width="10" x1="1029.0" x2="1029.0" y1="69.0" y2="517.0" /><line stroke="#333" stroke-width="10" x1="1029.0" x2="1093.0" y1="517.0" y2="517.0" /><line stroke="#999" stroke-width="3" x1="1093.0" x2="1093.0" y1="517.0" y2="389.0" /><line stroke="#333" stroke-width="10" x1="1093.0" x2="1093.0" y1="389.0" y2="69.0" /><line stroke="#333" stroke-width="10" x1="1093.0" x2="1541.0" y1="517.0" y2="133.0" /><line stroke="#999" stroke-width="3" x1="1541.0" x2="1541.0" y1="133.0" y2="5.0" /><line stroke="#333" stroke-width="10" x1="1541.0" x2="1093.0" y1="5.0" y2="389.0" /><line stroke="#333" stroke-width="10" x1="1541.0" x2="1541.0" y1="133.0" y2="517.0" /><line stroke="#333" stroke-width="10" x1="1541.0" x2="1605.0" y1="517.0" y2="517.0" /><line stroke="#999" stroke-width="3" x1="1605.0" x2="1605.0" y1="517.0" y2="453.0" /><line stroke="#333" stroke-width="10" x1="1605.0" x2="1541.0" y1="5.0" y2="5.0" /><line stroke="#333" stroke-width="10" x1="1605.0" x2="1605.0" y1="453.0" y2="5.0" /><line stroke="#333" stroke-width="10" x1="1605.0" x2="2437.0" y1="517.0" y2="517.0" /><line stroke="#999" stroke-width="3" x1="2437.0" x2="2437.0" y1="453.0" y2="517.0" /><line stroke="#333" stroke-width="10" x1="2437.0" x2="1605.0" y1="453.0" y2="453.0" /><line stroke="#333" stroke-width="10" x1="2437.0" x2="2437.0" y1="517.0" y2="773.0" /><line stroke="#333" stroke-width="10" x1="2437.0" x2="2629.0" y1="1029.0" y2="1029.0" /><line stroke="#333" stroke-width="10" x1="3269.0" x2="3269.0" y1="1029.0" y2="837.0" /><line stroke="#333" stroke-width="10" x1="3269.0" x2="3077.0" y1="69.0" y2="69.0" /><line stroke="#333" stroke-width="10" x1="2437.0" x2="2437.0" y1="69.0" y2="261.0" /><line stroke="#999" stroke-width="3" x1="2629.0" x2="2693.0" y1="1029.0" y2="1029.0" /><line stroke="#333" stroke-width="10" x1="2629.0" x2="2629.0" y1="1029.0" y2="1093.0" /><line stroke="#333" stroke-width="10" x1="2629.0" x2="2693.0" y1="1093.0" y2="1093.0" /><line stroke="#333" stroke-width="10" x1="2693.0" x2="2821.0" y1="1029.0" y2="1029.0" /><line stroke="#333" stroke-width="10" x1="2693.0" x2="2693.0" y1="1093.0" y2="1029.0" /><line stroke="#999" stroke-width="3" x1="3013.0" x2="3077.0" y1="1029.0" y2="1029.0" /><line stroke="#333" stroke-width="10" x1="3013.0" x2="3013.0" y1="1029.0" y2="1093.0" /><line stroke="#333" stroke-width="10" x1="3013.0" x2="3077.0" y1="1093.0" y2="1093.0" /><line stroke="#333" stroke-width="10" x1="3077.0" x2="3269.0" y1="1029.0" y2="1029.0" /><line stroke="#333" stroke-width="10" x1="3077.0" x2="3077.0" y1="1093.0" y2="1029.0" /><line stroke="#999" stroke-width="3" x1="3269.0" x2="3269.0" y1="837.0" y2="773.0" /><line stroke="#333" stroke-width="10" x1="3269.0" x2="3333.0" y1="837.0" y2="837.0" /><line stroke="#333" stroke-width="10" x1="3333.0" x2="3333.0" y1="837.0" y2="773.0" /><line stroke="#333" stroke-width="10" x1="3269.0" x2="3269.0" y1="773.0" y2="325.0" /><line stroke="#333" stroke-width="10" x1="3333.0" x2="3269.0" y1="773.0" y2="773.0" /><line stroke="#999" stroke-width="3" x1="3269.0" x2="3269.0" y1="325.0" y2="261.0" /><line stroke="#333" stroke-width="10" x1="3269.0" x2="3333.0" y1="325.0" y2="325.0" /><line stroke="#333" stroke-width="10" x1="3333.0" x2="3333.0" y1="325.0" y2="261.0" /><line stroke="#333" stroke-width="10" x1="3269.0" x2="3269.0" y1="261.0" y2="69.0" /><line stroke="#333" stroke-width="10" x1="3333.0" x2="3269.0" y1="261.0" y2="261.0" /><line stroke="#999" stroke-width="3" x1="3077.0" x2="3013.0" y1="69.0" y2="69.0" /><line stroke="#333" stroke-width="10" x1="3077.0" x2="3077.0" y1="69.0" y2="5.0" /><line stroke="#333" stroke-width="10" x1="3077.0" x2="3013.0" y1="5.0" y2="5.0" /><line stroke="#333" stroke-width="10" x1="3013.0" x2="2693.0" y1="69.0" y2="69.0" /><line stroke="#333" stroke-width="10" x1="3013.0" x2="3013.0" y1="5.0" y2="69.0" /><line stroke="#999" stroke-width="3" x1="2693.0" x2="2629.0" y1="69.0" y2="69.0" /><line stroke="#333" stroke-width="10" x1="2693.0" x2="2693.0" y1="69.0" y2="5.0" /><line stroke="#333" stroke-width="10" x1="2693.0" x2="2629.0" y1="5.0" y2="5.0" /><line stroke="#333" stroke-width="10" x1="2629.0" x2="2437.0" y1="69.0" y2="69.0" /><line stroke="#333" stroke-width="10" x1="2629.0" x2="2629.0" y1="5.0" y2="69.0" /><line stroke="#999" stroke-width="3" x1="2437.0" x2="2437.0" y1="261.0" y2="325.0" /><line stroke="#333" stroke-width="10" x1="2437.0" x2="2373.0" y1="261.0" y2="261.0" /><line stroke="#333" stroke-width="10" x1="2373.0" x2="2373.0" y1="261.0" y2="325.0" /><line stroke="#333" stroke-width="10" x1="2437.0" x2="2437.0" y1="325.0" y2="453.0" /><line stroke="#333" stroke-width="10" x1="2373.0" x2="2437.0" y1="325.0" y2="325.0" /><line stroke="#999" stroke-width="3" x1="2437.0" x2="2437.0" y1="773.0" y2="837.0" /><line stroke="#333" stroke-width="10" x1="2437.0" x2="2373.0" y1="773.0" y2="773.0" /><line stroke="#333" stroke-width="10" x1="2373.0" x2="2373.0" y1="773.0" y2="837.0" /><line stroke="#333" stroke-width="10" x1="2437.0" x2="2437.0" y1="837.0" y2="1029.0" /><line stroke="#333" stroke-width="10" x1="2373.0" x2="2437.0" y1="837.0" y2="837.0" /><line stroke="#666" stroke-width="20" x1="2821.0" x2="2885.0" y1="1029.0" y2="1029.0" /><line stroke="#333" stroke-width="10" x1="2821.0" x2="2821.0" y1="1029.0" y2="1037.0" /><line stroke="#666" stroke-width="20" x1="2885.0" x2="2821.0" y1="1221.0" y2="1221.0" /><line stroke="#333" stroke-width="10" x1="2885.0" x2="3013.0" y1="1029.0" y2="1029.0" /><line stroke="#333" stroke-width="10" x1="2885.0" x2="2885.0" y1="1221.0" y2="1213.0" /><line stroke="#333" stroke-width="10" x1="2821.0" x2="1989.0" y1="1221.0" y2="1221.0" /><line stroke="#333" stroke-width="10" x1="1989.0" x2="1989.0" y1="1221.0" y2="2245.0" /><line stroke="#999" stroke-width="3" x1="3653.0" x2="1989.0" y1="2245.0" y2="2245.0" /><line stroke="#333" stroke-width="10" x1="3653.0" x2="3653.0" y1="2245.0" y2="1477.0" /><line stroke="#333" stroke-width="10" x1="3653.0" x2="3397.0" y1="1221.0" y2="1221.0" /><line stroke="#999" stroke-width="3" x1="2181.0" x2="2181.0" y1="1669.0" y2="1413.0" /><line stroke="#999" stroke-width="3" x1="2437.0" x2="2181.0" y1="1669.0" y2="1669.0" /><line stroke="#999" stroke-width="3" x1="2437.0" x2="2437.0" y1="1413.0" y2="1669.0" /><line stroke="#999" stroke-width="3" x1="2181.0" x2="2437.0" y1="1413.0" y2="1413.0" /><line stroke="#999" stroke-width="3" x1="3205.0" x2="3205.0" y1="2117.0" y2="1797.0" /><line stroke="#999" stroke-width="3" x1="3525.0" x2="3205.0" y1="2117.0" y2="2117.0" /><line stroke="#999" stroke-width="3" x1="3525.0" x2="3525.0" y1="1797.0" y2="2117.0" /><line stroke="#999" stroke-width="3" x1="3205.0" x2="3525.0" y1="1797.0" y2="1797.0" /><line stroke="#333" stroke-width="10" x1="1989.0" x2="1989.0" y1="2245.0" y2="2373.0" /><line stroke="#999" stroke-width="3" x1="1989.0" x2="2117.0" y1="2373.0" y2="2373.0" /><line stroke="#333" stroke-width="10" x1="3653.0" x2="3653.0" y1="2373.0" y2="2245.0" /><line stroke="#999" stroke-width="3" x1="2181.0" x2="2181.0" y1="2117.0" y2="1861.0" /><line stroke="#999" stroke-width="3" x1="2437.0" x2="2181.0" y1="2117.0" y2="2117.0" /><line stroke="#999" stroke-width="3" x1="2437.0" x2="2437.0" y1="1861.0" y2="2117.0" /><line stroke="#999" stroke-width="3" x1="2181.0" x2="2437.0" y1="1861.0" y2="1861.0" /><line stroke="#999" stroke-width="3" x1="2629.0" x2="2629.0" y1="1925.0" y2="1541.0" /><line stroke="#999" stroke-width="3" x1="2949.0" x2="2909.0" y1="1925.0" y2="1925.0" /><line stroke="#999" stroke-width="3" x1="2949.0" x2="2949.0" y1="1541.0" y2="1925.0" /><line stroke="#999" stroke-width="3" x1="2629.0" x2="2757.0" y1="1541.0" y2="1541.0" /><line stroke="#333" stroke-width="10" x1="3397.0" x2="2885.0" y1="1221.0" y2="1221.0" /><line stroke="#999" stroke-width="3" x1="3397.0" x2="3397.0" y1="1477.0" y2="1221.0" /><line stroke="#333" stroke-width="10" x1="3653.0" x2="3653.0" y1="1477.0" y2="1221.0" /><line stroke="#999" stroke-width="3" x1="3653.0" x2="3397.0" y1="1477.0" y2="1477.0" /><line stroke="#333" stroke-width="10" x1="1989.0" x2="1989.0" y1="2373.0" y2="2949.0" /><line stroke="#333" stroke-width="10" x1="1989.0" x2="2117.0" y1="2949.0" y2="2949.0" /><line stroke="#333" stroke-width="10" x1="2117.0" x2="2373.0" y1="2373.0" y2="2373.0" /><line stroke="#333" stroke-width="10" x1="2117.0" x2="2117.0" y1="2949.0" y2="2373.0" /><line stroke="#999" stroke-width="3" x1="2757.0" x2="2885.0" y1="2373.0" y2="2373.0" /><line stroke="#333" stroke-width="10" x1="2757.0" x2="2757.0" y1="2373.0" y2="3269.0" /><line stroke="#333" stroke-width="10" x1="2757.0" x2="2885.0" y1="3269.0" y2="3269.0" /><line stroke="#333" stroke-width="10" x1="2885.0" x2="3525.0" y1="2373.0" y2="2373.0" /><line stroke="#333" stroke-width="10" x1="2885.0" x2="2885.0" y1="3269.0" y2="2373.0" /><line stroke="#999" stroke-width="3" x1="3525.0" x2="3653.0" y1="2373.0" y2="2373.0" /><line stroke="#333" stroke-width="10" x1="3525.0" x2="3525.0" y1="2373.0" y2="2949.0" /><line stroke="#333" stroke-width="10" x1="3525.0" x2="3653.0" y1="2949.0" y2="2949.0" /><line stroke="#333" stroke-width="10" x1="3653.0" x2="3653.0" y1="2949.0" y2="2373.0" /><line stroke="#333" stroke-width="10" x1="2821.0" x2="2821.0" y1="1037.0" y2="1213.0" /><line stroke="#333" stroke-width="10" x1="2885.0" x2="2885.0" y1="1037.0" y2="1029.0" /><line stroke="#666" stroke-width="20" x1="2885.0" x2="2821.0" y1="1037.0" y2="1037.0" /><line stroke="#333" stroke-width="10" x1="2821.0" x2="2821.0" y1="1213.0" y2="1221.0" /><line stroke="#333" stroke-width="10" x1="2885.0" x2="2885.0" y1="1213.0" y2="1037.0" /><line stroke="#666" stroke-width="20" x1="2821.0" x2="2885.0" y1="1213.0" y2="1213.0" /><line stroke="#999" stroke-width="3" x1="2757.0" x2="2821.0" y1="1541.0" y2="1541.0" /><line stroke="#999" stroke-width="3" x1="2661.0" x2="2629.0" y1="1925.0" y2="1925.0" /><line stroke="#999" stroke-width="3" x1="2757.0" x2="2661.0" y1="1541.0" y2="1925.0" /><line stroke="#999" stroke-width="3" x1="2909.0" x2="2661.0" y1="1925.0" y2="1925.0" /><line stroke="#999" stroke-width="3" x1="2821.0" x2="2949.0" y1="1541.0" y2="1541.0" /><line stroke="#999" stroke-width="3" x1="2909.0" x2="2821.0" y1="1925.0" y2="1541.0" /><line stroke="#333" stroke-width="10" x1="5.0" x2="5.0" y1="765.0" y2="773.0" /><line stroke="#666" stroke-width="20" x1="69.0" x2="5.0" y1="773.0" y2="773.0" /><line stroke="#333" stroke-width="10" x1="69.0" x2="69.0" y1="773.0" y2="765.0" /><line stroke="#666" stroke-width="20" x1="5.0" x2="69.0" y1="765.0" y2="765.0" /><line stroke="#333" stroke-width="10" x1="69.0" x2="69.0" y1="765.0" y2="517.0" /><line stroke="#333" stroke-width="10" x1="69.0" x2="5.0" y1="453.0" y2="453.0" /><line stroke="#333" stroke-width="10" x1="5.0" x2="5.0" y1="453.0" y2="765.0" /><line stroke="#999" stroke-width="3" x1="69.0" x2="69.0" y1="517.0" y2="453.0" /><line stroke="#333" stroke-width="10" x1="325.0" x2="325.0" y1="517.0" y2="757.0" /><line stroke="#333" stroke-width="10" x1="69.0" x2="325.0" y1="517.0" y2="517.0" /><line stroke="#333" stroke-width="10" x1="325.0" x2="69.0" y1="453.0" y2="453.0" /><line stroke="#333" stroke-width="10" x1="133.0" x2="69.0" y1="773.0" y2="773.0" /><line stroke="#333" stroke-width="10" x1="133.0" x2="133.0" y1="765.0" y2="773.0" /><line stroke="#666" stroke-width="20" x1="197.0" x2="133.0" y1="773.0" y2="773.0" /><line stroke="#333" stroke-width="10" x1="197.0" x2="197.0" y1="773.0" y2="765.0" /><line stroke="#666" stroke-width="20" x1="133.0" x2="197.0" y1="765.0" y2="765.0" /><line stroke="#333" stroke-width="10" x1="197.0" x2="133.0" y1="645.0" y2="645.0" /><line stroke="#333" stroke-width="10" x1="133.0" x2="133.0" y1="645.0" y2="765.0" /><line stroke="#333" stroke-width="10" x1="197.0" x2="197.0" y1="765.0" y2="645.0" /><line stroke="#333" stroke-width="10" x1="221.0" x2="197.0" y1="773.0" y2="773.0" /><line stroke="#333" stroke-width="10" x1="221.0" x2="221.0" y1="765.0" y2="773.0" /><line stroke="#666" stroke-width="20" x1="285.0" x2="221.0" y1="773.0" y2="773.0" /><line stroke="#333" stroke-width="10" x1="285.0" x2="285.0" y1="773.0" y2="765.0" /><line stroke="#666" stroke-width="20" x1="221.0" x2="285.0" y1="765.0" y2="765.0" /><line stroke="#333" stroke-width="10" x1="221.0" x2="221.0" y1="645.0" y2="765.0" /><line stroke="#333" stroke-width="10" x1="285.0" x2="285.0" y1="765.0" y2="645.0" /><line stroke="#333" stroke-width="10" x1="285.0" x2="221.0" y1="645.0" y2="645.0" /><line stroke="#333" stroke-width="10" x1="437.0" x2="437.0" y1="645.0" y2="765.0" /><line stroke="#666" stroke-width="20" x1="437.0" x2="501.0" y1="765.0" y2="765.0" /><line stroke="#333" stroke-width="10" x1="501.0" x2="501.0" y1="765.0" y2="645.0" /><line stroke="#333" stroke-width="10" x1="501.0" x2="437.0" y1="645.0" y2="645.0" /><line stroke="#333" stroke-width="10" x1="437.0" x2="389.0" y1="773.0" y2="773.0" /><line stroke="#333" stroke-width="10" x1="437.0" x2="437.0" y1="765.0" y2="773.0" /><line stroke="#666" stroke-width="20" x1="501.0" x2="437.0" y1="773.0" y2="773.0" /><line stroke="#333" stroke-width="10" x1="501.0" x2="501.0" y1="773.0" y2="765.0" /><line stroke="#333" stroke-width="10" x1="525.0" x2="525.0" y1="645.0" y2="765.0" /><line stroke="#666" stroke-width="20" x1="525.0" x2="589.0" y1="765.0" y2="765.0" /><line stroke="#333" stroke-width="10" x1="589.0" x2="589.0" y1="765.0" y2="645.0" /><line stroke="#333" stroke-width="10" x1="589.0" x2="525.0" y1="645.0" y2="645.0" /><line stroke="#333" stroke-width="10" x1="525.0" x2="501.0" y1="773.0" y2="773.0" /><line stroke="#333" stroke-width="10" x1="525.0" x2="525.0" y1="765.0" y2="773.0" /><line stroke="#666" stroke-width="20" x1="589.0" x2="525.0" y1="773.0" y2="773.0" /><line stroke="#333" stroke-width="10" x1="589.0" x2="589.0" y1="773.0" y2="765.0" /><line stroke="#d00" stroke-width="20" x1="2373.0" x2="2501.0" y1="2373.0" y2="2373.0" /><line stroke="#333" stroke-width="10" x1="2373.0" x2="2373.0" y1="2373.0" y2="2381.0" /><line stroke="#d00" stroke-width="20" x1="2501.0" x2="2373.0" y1="2381.0" y2="2381.0" /><line stroke="#333" stroke-width="10" x1="2501.0" x2="2757.0" y1="2373.0" y2="2373.0" /><line stroke="#333" stroke-width="10" x1="2501.0" x2="2501.0" y1="2381.0" y2="2373.0" /><line stroke="#333" stroke-width="10" x1="2373.0" x2="2373.0" y1="2381.0" y2="2693.0" /><line stroke="#0d0" stroke-width="20" x1="2373.0" x2="2437.0" y1="2693.0" y2="2693.0" /><line stroke="#333" stroke-width="10" x1="2437.0" x2="2437.0" y1="2693.0" y2="2501.0" /><line stroke="#333" stroke-width="10" x1="2437.0" x2="2501.0" y1="2501.0" y2="2501.0" /><line stroke="#333" stroke-width="10" x1="2501.0" x2="2501.0" y1="2501.0" y2="2381.0" /><line stroke="#999" stroke-width="3" x1="2421.0" x2="2421.0" y1="2341.0" y2="2325.0" /><line stroke="#999" stroke-width="3" x1="2437.0" x2="2421.0" y1="2341.0" y2="2341.0" /><line stroke="#999" stroke-width="3" x1="2437.0" x2="2437.0" y1="2325.0" y2="2341.0" /><line stroke="#999" stroke-width="3" x1="2421.0" x2="2437.0" y1="2325.0" y2="2325.0" /><line stroke="#333" stroke-width="10" x1="325.0" x2="325.0" y1="757.0" y2="765.0" /><line stroke="#333" stroke-width="10" x1="325.0" x2="325.0" y1="765.0" y2="773.0" /><line stroke="#333" stroke-width="10" x1="389.0" x2="389.0" y1="765.0" y2="757.0" /><line stroke="#666" stroke-width="20" x1="389.0" x2="325.0" y1="765.0" y2="765.0" /><line stroke="#333" stroke-width="10" x1="389.0" x2="389.0" y1="757.0" y2="517.0" /><line stroke="#666" stroke-width="20" x1="325.0" x2="389.0" y1="757.0" y2="757.0" /><ellipse cx="165.0" cy="677.0" fill="#009" rx="12" ry="24" stroke="#009" stroke-width="5" /><rect fill="#900" height="48" stroke="#900" stroke-width="5" transform="rotate(270,2789.0,2117.0)" width="32" x="2773.0" y="2093.0" /><rect fill="#900" height="48" stroke="#900" stroke-width="5" transform="rotate(270,2661.0,1061.0)" width="32" x="2645.0" y="1037.0" /><rect fill="#900" height="48" stroke="#900" stroke-width="5" transform="rotate(270,3045.0,1061.0)" width="32" x="3029.0" y="1037.0" /><rect fill="#900" height="48" stroke="#900" stroke-width="5" transform="rotate(0,2405.0,805.0)" width="32" x="2389.0" y="781.0" /><rect fill="#900" height="48" stroke="#900" stroke-width="5" transform="rotate(0,2405.0,293.0)" width="32" x="2389.0" y="269.0" /><rect fill="#900" height="48" stroke="#900" stroke-width="5" transform="rotate(90,2661.0,37.0)" width="32" x="2645.0" y="13.0" /><rect fill="#900" height="48" stroke="#900" stroke-width="5" transform="rotate(90,3045.0,37.0)" width="32" x="3029.0" y="13.0" /><rect fill="#900" height="48" stroke="#900" stroke-width="5" transform="rotate(180,3301.0,293.0)" width="32" x="3285.0" y="269.0" /><rect fill="#900" height="48" stroke="#900" stroke-width="5" transform="rotate(180,3301.0,805.0)" width="32" x="3285.0" y="781.0" /><rect fill="#900" height="48" stroke="#900" stroke-width="5" transform="rotate(90,197.0,869.0)" width="32" x="181.0" y="845.0" /><rect fill="#900" height="48" stroke="#900" stroke-width="5" transform="rotate(90,1413.0,869.0)" width="32" x="1397.0" y="845.0" /><rect fill="#900" height="48" stroke="#900" stroke-width="5" transform="rotate(270,581.0,2085.0)" width="32" x="565.0" y="2061.0" /><rect fill="#900" height="48" stroke="#900" stroke-width="5" transform="rotate(270,1061.0,2085.0)" width="32" x="1045.0" y="2061.0" /><rect fill="#900" height="48" stroke="#900" stroke-width="5" transform="rotate(270,837.0,2597.0)" width="32" x="821.0" y="2573.0" /><rect fill="#900" height="48" stroke="#900" stroke-width="5" transform="rotate(270,389.0,1669.0)" width="32" x="373.0" y="1645.0" /><rect fill="#900" height="48" stroke="#900" stroke-width="5" transform="rotate(270,1221.0,1669.0)" width="32" x="1205.0" y="1645.0" /><rect fill="#900" height="48" stroke="#900" stroke-width="5" transform="rotate(90,357.0,677.0)" width="32" x="341.0" y="653.0" /><rect fill="#900" height="48" stroke="#900" stroke-width="5" transform="rotate(90,357.0,485.0)" width="32" x="341.0" y="461.0" /><rect fill="#900" height="48" stroke="#900" stroke-width="5" transform="rotate(180,613.0,485.0)" width="32" x="597.0" y="461.0" /><rect fill="#900" height="48" stroke="#900" stroke-width="5" transform="rotate(90,741.0,293.0)" width="32" x="725.0" y="269.0" /><rect fill="#900" height="48" stroke="#900" stroke-width="5" transform="rotate(90,741.0,37.0)" width="32" x="725.0" y="13.0" /><rect fill="#900" height="48" stroke="#900" stroke-width="5" transform="rotate(180,1061.0,37.0)" width="32" x="1045.0" y="13.0" /><rect fill="#900" height="48" stroke="#900" stroke-width="5" transform="rotate(270,1061.0,453.0)" width="32" x="1045.0" y="429.0" /><rect fill="#900" height="48" stroke="#900" stroke-width="5" transform="rotate(135,1381.0,197.0)" width="32" x="1365.0" y="173.0" /><rect fill="#900" height="48" stroke="#900" stroke-width="5" transform="rotate(270,1573.0,357.0)" width="32" x="1557.0" y="333.0" /><rect fill="#900" height="48" stroke="#900" stroke-width="5" transform="rotate(180,1893.0,485.0)" width="32" x="1877.0" y="461.0" /><rect fill="#900" height="48" stroke="#900" stroke-width="5" transform="rotate(180,2277.0,485.0)" width="32" x="2261.0" y="461.0" /><circle cx="581.0" cy="1285.0" fill="#900" r="16" stroke="#900" stroke-width="5" /><circle cx="997.0" cy="1253.0" fill="#090" r="16" stroke="#090" stroke-width="5" /><circle cx="805.0" cy="997.0" fill="#090" r="16" stroke="#090" stroke-width="5" /><circle cx="869.0" cy="1285.0" fill="#090" r="16" stroke="#090" stroke-width="5" /><circle cx="645.0" cy="1061.0" fill="#900" r="16" stroke="#900" stroke-width="5" /><circle cx="997.0" cy="997.0" fill="#090" r="16" stroke="#090" stroke-width="5" /><circle cx="37.0" cy="717.0" fill="#900" r="16" stroke="#900" stroke-width="5" /><circle cx="37.0" cy="669.0" fill="#090" r="16" stroke="#090" stroke-width="5" /><circle cx="37.0" cy="613.0" fill="#090" r="16" stroke="#090" stroke-width="5" /><circle cx="37.0" cy="557.0" fill="#090" r="16" stroke="#090" stroke-width="5" /><circle cx="37.0" cy="493.0" fill="#090" r="16" stroke="#090" stroke-width="5" /><circle cx="101.0" cy="485.0" fill="#009" r="16" stroke="#009" stroke-width="5" /><circle cx="149.0" cy="485.0" fill="#009" r="16" stroke="#009" stroke-width="5" /><circle cx="197.0" cy="485.0" fill="#009" r="16" stroke="#009" stroke-width="5" /><circle cx="245.0" cy="485.0" fill="#009" r="16" stroke="#009" stroke-width="5" /><circle cx="293.0" cy="485.0" fill="#009" r="16" stroke="#009" stroke-width="5" /><circle cx="477.0" cy="485.0" fill="#009" r="16" stroke="#009" stroke-width="5" /><circle cx="741.0" cy="141.0" fill="#009" r="16" stroke="#009" stroke-width="5" /><circle cx="1245.0" cy="333.0" fill="#009" r="16" stroke="#009" stroke-width="5" /><circle cx="2069.0" cy="485.0" fill="#009" r="16" stroke="#009" stroke-width="5" /><circle cx="2861.0" cy="205.0" fill="#009" r="16" stroke="#009" stroke-width="5" /><circle cx="2781.0" cy="709.0" fill="#009" r="16" stroke="#009" stroke-width="5" /><circle cx="3085.0" cy="525.0" fill="#009" r="16" stroke="#009" stroke-width="5" /><circle cx="2613.0" cy="517.0" fill="#009" r="16" stroke="#009" stroke-width="5" /><circle cx="3525.0" cy="1365.0" fill="#009" r="16" stroke="#009" stroke-width="5" /><circle cx="2645.0" cy="1349.0" fill="#009" r="16" stroke="#009" stroke-width="5" /><circle cx="2085.0" cy="1333.0" fill="#009" r="16" stroke="#009" stroke-width="5" /><circle cx="2941.0" cy="1349.0" fill="#009" r="16" stroke="#009" stroke-width="5" /><circle cx="3101.0" cy="1741.0" fill="#009" r="16" stroke="#009" stroke-width="5" /><circle cx="2581.0" cy="2093.0" fill="#009" r="16" stroke="#009" stroke-width="5" /><circle cx="3029.0" cy="2133.0" fill="#009" r="16" stroke="#009" stroke-width="5" /><circle cx="2813.0" cy="3205.0" fill="#009" r="16" stroke="#009" stroke-width="5" /><circle cx="2053.0" cy="2893.0" fill="#009" r="16" stroke="#009" stroke-width="5" /><circle cx="3581.0" cy="2893.0" fill="#009" r="16" stroke="#009" stroke-width="5" /><circle cx="3381.0" cy="1965.0" fill="#009" r="16" stroke="#009" stroke-width="5" /><ellipse cx="253.0" cy="677.0" fill="#009" rx="12" ry="24" stroke="#009" stroke-width="5" /><ellipse cx="469.0" cy="677.0" fill="#009" rx="12" ry="24" stroke="#009" stroke-width="5" /><ellipse cx="557.0" cy="677.0" fill="#009" rx="12" ry="24" stroke="#009" stroke-width="5" /><circle cx="165.0" cy="741.0" fill="#900" r="16" stroke="#900" stroke-width="5" /><circle cx="253.0" cy="741.0" fill="#900" r="16" stroke="#900" stroke-width="5" /><circle cx="469.0" cy="741.0" fill="#900" r="16" stroke="#900" stroke-width="5" /><circle cx="557.0" cy="741.0" fill="#900" r="16" stroke="#900" stroke-width="5" /><circle cx="2309.0" cy="1989.0" fill="#090" r="16" stroke="#090" stroke-width="5" /><circle cx="2309.0" cy="1541.0" fill="#090" r="16" stroke="#090" stroke-width="5" /><circle cx="2053.0" cy="2309.0" fill="#009" r="16" stroke="#009" stroke-width="5" /><circle cx="2117.0" cy="1861.0" fill="#009" r="16" stroke="#009" stroke-width="5" /><circle cx="2821.0" cy="3141.0" fill="#009" r="16" stroke="#009" stroke-width="5" /><circle cx="2821.0" cy="2309.0" fill="#009" r="16" stroke="#009" stroke-width="5" /><ellipse cx="2789.0" cy="1917.0" fill="#090" rx="12" ry="24" stroke="#090" stroke-width="5" /><rect fill="#090" height="24" stroke="#090" stroke-width="5" transform="rotate(90,2053.0,2181.0)" width="24" x="2041.0" y="2169.0" /><rect fill="#090" height="24" stroke="#090" stroke-width="5" transform="rotate(90,1573.0,165.0)" width="24" x="1561.0" y="153.0" /><rect fill="#090" height="24" stroke="#090" stroke-width="5" transform="rotate(90,357.0,581.0)" width="24" x="345.0" y="569.0" /><rect fill="#090" height="24" stroke="#090" stroke-width="5" transform="rotate(270,805.0,2085.0)" width="24" x="793.0" y="2073.0" /></svg>