<?xml version="1.0" encoding="utf-8" ?>
<svg baseProfile="tiny" height="907" version="1.2" viewBox="0 0 3658 3242" width="1024" xmlns="http://www.w3.org/2000/svg" xmlns:ev="http://www.w3.org/2001/xml-events" xmlns:xlink="http://www.w3.org/1999/xlink"><defs /><line stroke="#333" stroke-width="10" x1="645.0" x2="645.0" y1="197.0" y2="1413.0" /><line stroke="#333" stroke-width="10" x1="645.0" x2="773.0" y1="2757.0" y2="2757.0" /><line stroke="#333" stroke-width="10" x1="3205.0" x2="3205.0" y1="2757.0" y2="1541.0" /><line stroke="#333" stroke-width="10" x1="3205.0" x2="2053.0" y1="197.0" y2="197.0" /><line stroke="#999" stroke-width="3" x1="1957.0" x2="1893.0" y1="1509.0" y2="1509.0" /><line stroke="#999" stroke-width="3" x1="1957.0" x2="1957.0" y1="1445.0" y2="1509.0" /><line stroke="#999" stroke-width="3" x1="1893.0" x2="1957.0" y1="1445.0" y2="1445.0" /><line stroke="#999" stroke-width="3" x1="1893.0" x2="1893.0" y1="1509.0" y2="1445.0" /><line stroke="#999" stroke-width="3" x1="1559.0" x2="1623.0" y1="1989.0" y2="1989.0" /><line stroke="#999" stroke-width="3" x1="1623.0" x2="1623.0" y1="1989.0" y2="1925.0" /><line stroke="#999" stroke-width="3" x1="1623.0" x2="1559.0" y1="1925.0" y2="1925.0" /><line stroke="#999" stroke-width="3" x1="1559.0" x2="1559.0" y1="1925.0" y2="1989.0" /><line stroke="#999" stroke-width="3" x1="2199.0" x2="2263.0" y1="1189.0" y2="1189.0" /><line stroke="#999" stroke-width="3" x1="2263.0" x2="2263.0" y1="1189.0" y2="1125.0" /><line stroke="#999" stroke-width="3" x1="2263.0" x2="2199.0" y1="1125.0" y2="1125.0" /><line stroke="#999" stroke-width="3" x1="2199.0" x2="2199.0" y1="1125.0" y2="1189.0" /><line stroke="#999" stroke-width="3" x1="1385.0" x2="1449.0" y1="1317.0" y2="1317.0" /><line stroke="#999" stroke-width="3" x1="1449.0" x2="1449.0" y1="1317.0" y2="1253.0" /><line stroke="#999" stroke-width="3" x1="1449.0" x2="1385.0" y1="1253.0" y2="1253.0" /><line stroke="#999" stroke-width="3" x1="1385.0" x2="1385.0" y1="1253.0" y2="1317.0" /><line stroke="#999" stroke-width="3" x1="2103.0" x2="2039.0" y1="1669.0" y2="1669.0" /><line stroke="#999" stroke-width="3" x1="2103.0" x2="2103.0" y1="1605.0" y2="1669.0" /><line stroke="#999" stroke-width="3" x1="2039.0" x2="2103.0" y1="1605.0" y2="1605.0" /><line stroke="#999" stroke-width="3" x1="2039.0" x2="2039.0" y1="1669.0" y2="1605.0" /><line stroke="#999" stroke-width="3" x1="1783.0" x2="1847.0" y1="1157.0" y2="1157.0" /><line stroke="#999" stroke-width="3" x1="1847.0" x2="1847.0" y1="1157.0" y2="1093.0" /><line stroke="#999" stroke-width="3" x1="1847.0" x2="1783.0" y1="1093.0" y2="1093.0" /><line stroke="#999" stroke-width="3" x1="1783.0" x2="1783.0" y1="1093.0" y2="1157.0" /><line stroke="#999" stroke-width="3" x1="1783.0" x2="1719.0" y1="1733.0" y2="1733.0" /><line stroke="#999" stroke-width="3" x1="1783.0" x2="1783.0" y1="1669.0" y2="1733.0" /><line stroke="#999" stroke-width="3" x1="1719.0" x2="1783.0" y1="1669.0" y2="1669.0" /><line stroke="#999" stroke-width="3" x1="1719.0" x2="1719.0" y1="1733.0" y2="1669.0" /><line stroke="#999" stroke-width="3" x1="2231.0" x2="2295.0" y1="1509.0" y2="1509.0" /><line stroke="#999" stroke-width="3" x1="2295.0" x2="2295.0" y1="1509.0" y2="1445.0" /><line stroke="#999" stroke-width="3" x1="2295.0" x2="2231.0" y1="1445.0" y2="1445.0" /><line stroke="#999" stroke-width="3" x1="2231.0" x2="2231.0" y1="1445.0" y2="1509.0" /><line stroke="#999" stroke-width="3" x1="1111.0" x2="1047.0" y1="1573.0" y2="1573.0" /><line stroke="#999" stroke-width="3" x1="1111.0" x2="1111.0" y1="1509.0" y2="1573.0" /><line stroke="#999" stroke-width="3" x1="1047.0" x2="1111.0" y1="1509.0" y2="1509.0" /><line stroke="#999" stroke-width="3" x1="1047.0" x2="1047.0" y1="1573.0" y2="1509.0" /><line stroke="#999" stroke-width="3" x1="1975.0" x2="2039.0" y1="1925.0" y2="1925.0" /><line stroke="#999" stroke-width="3" x1="2039.0" x2="2039.0" y1="1925.0" y2="1861.0" /><line stroke="#999" stroke-width="3" x1="2039.0" x2="1975.0" y1="1861.0" y2="1861.0" /><line stroke="#999" stroke-width="3" x1="1975.0" x2="1975.0" y1="1861.0" y2="1925.0" /><line stroke="#999" stroke-width="3" x1="1385.0" x2="1449.0" y1="1669.0" y2="1669.0" /><line stroke="#999" stroke-width="3" x1="1449.0" x2="1449.0" y1="1669.0" y2="1605.0" /><line stroke="#999" stroke-width="3" x1="1449.0" x2="1385.0" y1="1605.0" y2="1605.0" /><line stroke="#999" stroke-width="3" x1="1385.0" x2="1385.0" y1="1605.0" y2="1669.0" /><line stroke="#999" stroke-width="3" x1="2391.0" x2="2455.0" y1="1829.0" y2="1829.0" /><line stroke="#999" stroke-width="3" x1="2455.0" x2="2455.0" y1="1829.0" y2="1765.0" /><line stroke="#999" stroke-width="3" x1="2455.0" x2="2391.0" y1="1765.0" y2="1765.0" /><line stroke="#999" stroke-width="3" x1="2391.0" x2="2391.0" y1="1765.0" y2="1829.0" /><line stroke="#999" stroke-width="3" x1="2071.0" x2="2007.0" y1="869.0" y2="869.0" /><line stroke="#999" stroke-width="3" x1="2071.0" x2="2071.0" y1="805.0" y2="869.0" /><line stroke="#999" stroke-width="3" x1="2007.0" x2="2071.0" y1="805.0" y2="805.0" /><line stroke="#999" stroke-width="3" x1="2007.0" x2="2007.0" y1="869.0" y2="805.0" /><line stroke="#999" stroke-width="3" x1="1559.0" x2="1623.0" y1="1029.0" y2="1029.0" /><line stroke="#999" stroke-width="3" x1="1623.0" x2="1623.0" y1="1029.0" y2="965.0" /><line stroke="#999" stroke-width="3" x1="1623.0" x2="1559.0" y1="965.0" y2="965.0" /><line stroke="#999" stroke-width="3" x1="1559.0" x2="1559.0" y1="965.0" y2="1029.0" /><line stroke="#999" stroke-width="3" x1="1815.0" x2="1751.0" y1="1381.0" y2="1381.0" /><line stroke="#999" stroke-width="3" x1="1815.0" x2="1815.0" y1="1317.0" y2="1381.0" /><line stroke="#999" stroke-width="3" x1="1751.0" x2="1815.0" y1="1317.0" y2="1317.0" /><line stroke="#999" stroke-width="3" x1="1751.0" x2="1751.0" y1="1381.0" y2="1317.0" /><line stroke="#999" stroke-width="3" x1="2583.0" x2="2519.0" y1="1317.0" y2="1317.0" /><line stroke="#999" stroke-width="3" x1="2583.0" x2="2583.0" y1="1253.0" y2="1317.0" /><line stroke="#999" stroke-width="3" x1="2519.0" x2="2583.0" y1="1253.0" y2="1253.0" /><line stroke="#999" stroke-width="3" x1="2519.0" x2="2519.0" y1="1317.0" y2="1253.0" /><line stroke="#999" stroke-width="3" x1="2423.0" x2="2487.0" y1="997.0" y2="997.0" /><line stroke="#999" stroke-width="3" x1="2487.0" x2="2487.0" y1="997.0" y2="933.0" /><line stroke="#999" stroke-width="3" x1="2487.0" x2="2423.0" y1="933.0" y2="933.0" /><line stroke="#999" stroke-width="3" x1="2423.0" x2="2423.0" y1="933.0" y2="997.0" /><line stroke="#999" stroke-width="3" x1="2775.0" x2="2711.0" y1="1669.0" y2="1669.0" /><line stroke="#999" stroke-width="3" x1="2775.0" x2="2775.0" y1="1605.0" y2="1669.0" /><line stroke="#999" stroke-width="3" x1="2711.0" x2="2775.0" y1="1605.0" y2="1605.0" /><line stroke="#999" stroke-width="3" x1="2711.0" x2="2711.0" y1="1669.0" y2="1605.0" /><line stroke="#999" stroke-width="3" x1="2039.0" x2="2103.0" y1="2341.0" y2="2341.0" /><line stroke="#999" stroke-width="3" x1="2103.0" x2="2103.0" y1="2341.0" y2="2277.0" /><line stroke="#999" stroke-width="3" x1="2103.0" x2="2039.0" y1="2277.0" y2="2277.0" /><line stroke="#999" stroke-width="3" x1="2039.0" x2="2039.0" y1="2277.0" y2="2341.0" /><line stroke="#999" stroke-width="3" x1="2327.0" x2="2263.0" y1="2117.0" y2="2117.0" /><line stroke="#999" stroke-width="3" x1="2327.0" x2="2327.0" y1="2053.0" y2="2117.0" /><line stroke="#999" stroke-width="3" x1="2263.0" x2="2327.0" y1="2053.0" y2="2053.0" /><line stroke="#999" stroke-width="3" x1="2263.0" x2="2263.0" y1="2117.0" y2="2053.0" /><line stroke="#999" stroke-width="3" x1="2615.0" x2="2679.0" y1="2085.0" y2="2085.0" /><line stroke="#999" stroke-width="3" x1="2679.0" x2="2679.0" y1="2085.0" y2="2021.0" /><line stroke="#999" stroke-width="3" x1="2679.0" x2="2615.0" y1="2021.0" y2="2021.0" /><line stroke="#999" stroke-width="3" x1="2615.0" x2="2615.0" y1="2021.0" y2="2085.0" /><line stroke="#999" stroke-width="3" x1="1687.0" x2="1623.0" y1="2341.0" y2="2341.0" /><line stroke="#999" stroke-width="3" x1="1687.0" x2="1687.0" y1="2277.0" y2="2341.0" /><line stroke="#999" stroke-width="3" x1="1623.0" x2="1687.0" y1="2277.0" y2="2277.0" /><line stroke="#999" stroke-width="3" x1="1623.0" x2="1623.0" y1="2341.0" y2="2277.0" /><line stroke="#999" stroke-width="3" x1="887.0" x2="823.0" y1="2405.0" y2="2405.0" /><line stroke="#999" stroke-width="3" x1="887.0" x2="887.0" y1="2341.0" y2="2405.0" /><line stroke="#999" stroke-width="3" x1="823.0" x2="887.0" y1="2341.0" y2="2341.0" /><line stroke="#999" stroke-width="3" x1="823.0" x2="823.0" y1="2405.0" y2="2341.0" /><line stroke="#999" stroke-width="3" x1="983.0" x2="1047.0" y1="645.0" y2="645.0" /><line stroke="#999" stroke-width="3" x1="1047.0" x2="1047.0" y1="645.0" y2="581.0" /><line stroke="#999" stroke-width="3" x1="1047.0" x2="983.0" y1="581.0" y2="581.0" /><line stroke="#999" stroke-width="3" x1="983.0" x2="983.0" y1="581.0" y2="645.0" /><line stroke="#999" stroke-width="3" x1="2903.0" x2="2839.0" y1="485.0" y2="485.0" /><line stroke="#999" stroke-width="3" x1="2903.0" x2="2903.0" y1="421.0" y2="485.0" /><line stroke="#999" stroke-width="3" x1="2839.0" x2="2903.0" y1="421.0" y2="421.0" /><line stroke="#999" stroke-width="3" x1="2839.0" x2="2839.0" y1="485.0" y2="421.0" /><line stroke="#999" stroke-width="3" x1="2839.0" x2="2903.0" y1="933.0" y2="933.0" /><line stroke="#999" stroke-width="3" x1="2903.0" x2="2903.0" y1="933.0" y2="869.0" /><line stroke="#999" stroke-width="3" x1="2903.0" x2="2839.0" y1="869.0" y2="869.0" /><line stroke="#999" stroke-width="3" x1="2839.0" x2="2839.0" y1="869.0" y2="933.0" /><line stroke="#999" stroke-width="3" x1="2967.0" x2="2903.0" y1="1253.0" y2="1253.0" /><line stroke="#999" stroke-width="3" x1="2967.0" x2="2967.0" y1="1189.0" y2="1253.0" /><line stroke="#999" stroke-width="3" x1="2903.0" x2="2967.0" y1="1189.0" y2="1189.0" /><line stroke="#999" stroke-width="3" x1="2903.0" x2="2903.0" y1="1253.0" y2="1189.0" /><line stroke="#999" stroke-width="3" x1="2743.0" x2="2679.0" y1="2469.0" y2="2469.0" /><line stroke="#999" stroke-width="3" x1="2743.0" x2="2743.0" y1="2405.0" y2="2469.0" /><line stroke="#999" stroke-width="3" x1="2679.0" x2="2743.0" y1="2405.0" y2="2405.0" /><line stroke="#999" stroke-width="3" x1="2679.0" x2="2679.0" y1="2469.0" y2="2405.0" /><line stroke="#999" stroke-width="3" x1="3031.0" x2="2967.0" y1="2213.0" y2="2213.0" /><line stroke="#999" stroke-width="3" x1="3031.0" x2="3031.0" y1="2149.0" y2="2213.0" /><line stroke="#999" stroke-width="3" x1="2967.0" x2="3031.0" y1="2149.0" y2="2149.0" /><line stroke="#999" stroke-width="3" x1="2967.0" x2="2967.0" y1="2213.0" y2="2149.0" /><line stroke="#999" stroke-width="3" x1="2359.0" x2="2423.0" y1="613.0" y2="613.0" /><line stroke="#999" stroke-width="3" x1="2423.0" x2="2423.0" y1="613.0" y2="549.0" /><line stroke="#999" stroke-width="3" x1="2423.0" x2="2359.0" y1="549.0" y2="549.0" /><line stroke="#999" stroke-width="3" x1="2359.0" x2="2359.0" y1="549.0" y2="613.0" /><line stroke="#999" stroke-width="3" x1="1367.0" x2="1431.0" y1="613.0" y2="613.0" /><line stroke="#999" stroke-width="3" x1="1431.0" x2="1431.0" y1="613.0" y2="549.0" /><line stroke="#999" stroke-width="3" x1="1431.0" x2="1367.0" y1="549.0" y2="549.0" /><line stroke="#999" stroke-width="3" x1="1367.0" x2="1367.0" y1="549.0" y2="613.0" /><line stroke="#999" stroke-width="3" x1="2007.0" x2="1943.0" y1="581.0" y2="581.0" /><line stroke="#999" stroke-width="3" x1="2007.0" x2="2007.0" y1="517.0" y2="581.0" /><line stroke="#999" stroke-width="3" x1="1943.0" x2="2007.0" y1="517.0" y2="517.0" /><line stroke="#999" stroke-width="3" x1="1943.0" x2="1943.0" y1="581.0" y2="517.0" /><line stroke="#999" stroke-width="3" x1="1143.0" x2="1079.0" y1="1061.0" y2="1061.0" /><line stroke="#999" stroke-width="3" x1="1143.0" x2="1143.0" y1="997.0" y2="1061.0" /><line stroke="#999" stroke-width="3" x1="1079.0" x2="1143.0" y1="997.0" y2="997.0" /><line stroke="#999" stroke-width="3" x1="1079.0" x2="1079.0" y1="1061.0" y2="997.0" /><line stroke="#999" stroke-width="3" x1="3095.0" x2="3031.0" y1="1893.0" y2="1893.0" /><line stroke="#999" stroke-width="3" x1="3095.0" x2="3095.0" y1="1829.0" y2="1893.0" /><line stroke="#999" stroke-width="3" x1="3031.0" x2="3095.0" y1="1829.0" y2="1829.0" /><line stroke="#999" stroke-width="3" x1="3031.0" x2="3031.0" y1="1893.0" y2="1829.0" /><line stroke="#999" stroke-width="3" x1="2263.0" x2="2327.0" y1="2501.0" y2="2501.0" /><line stroke="#999" stroke-width="3" x1="2327.0" x2="2327.0" y1="2501.0" y2="2437.0" /><line stroke="#999" stroke-width="3" x1="2327.0" x2="2263.0" y1="2437.0" y2="2437.0" /><line stroke="#999" stroke-width="3" x1="2263.0" x2="2263.0" y1="2437.0" y2="2501.0" /><line stroke="#999" stroke-width="3" x1="1559.0" x2="1623.0" y1="2437.0" y2="2437.0" /><line stroke="#999" stroke-width="3" x1="1623.0" x2="1623.0" y1="2437.0" y2="2373.0" /><line stroke="#999" stroke-width="3" x1="1623.0" x2="1559.0" y1="2373.0" y2="2373.0" /><line stroke="#999" stroke-width="3" x1="1559.0" x2="1559.0" y1="2373.0" y2="2437.0" /><line stroke="#999" stroke-width="3" x1="1015.0" x2="951.0" y1="1893.0" y2="1893.0" /><line stroke="#999" stroke-width="3" x1="1015.0" x2="1015.0" y1="1829.0" y2="1893.0" /><line stroke="#999" stroke-width="3" x1="951.0" x2="1015.0" y1="1829.0" y2="1829.0" /><line stroke="#999" stroke-width="3" x1="951.0" x2="951.0" y1="1893.0" y2="1829.0" /><line stroke="#999" stroke-width="3" x1="1175.0" x2="1239.0" y1="2181.0" y2="2181.0" /><line stroke="#999" stroke-width="3" x1="1239.0" x2="1239.0" y1="2181.0" y2="2117.0" /><line stroke="#999" stroke-width="3" x1="1239.0" x2="1175.0" y1="2117.0" y2="2117.0" /><line stroke="#999" stroke-width="3" x1="1175.0" x2="1175.0" y1="2117.0" y2="2181.0" /><line stroke="#999" stroke-width="3" x1="2999.0" x2="2935.0" y1="2533.0" y2="2533.0" /><line stroke="#999" stroke-width="3" x1="2999.0" x2="2999.0" y1="2469.0" y2="2533.0" /><line stroke="#999" stroke-width="3" x1="2935.0" x2="2999.0" y1="2469.0" y2="2469.0" /><line stroke="#999" stroke-width="3" x1="2935.0" x2="2935.0" y1="2533.0" y2="2469.0" /><line stroke="#999" stroke-width="3" x1="1143.0" x2="1079.0" y1="2469.0" y2="2469.0" /><line stroke="#999" stroke-width="3" x1="1143.0" x2="1143.0" y1="2405.0" y2="2469.0" /><line stroke="#999" stroke-width="3" x1="1079.0" x2="1143.0" y1="2405.0" y2="2405.0" /><line stroke="#999" stroke-width="3" x1="1079.0" x2="1079.0" y1="2469.0" y2="2405.0" /><line stroke="#999" stroke-width="3" x1="823.0" x2="759.0" y1="1317.0" y2="1317.0" /><line stroke="#999" stroke-width="3" x1="823.0" x2="823.0" y1="1253.0" y2="1317.0" /><line stroke="#999" stroke-width="3" x1="759.0" x2="823.0" y1="1253.0" y2="1253.0" /><line stroke="#999" stroke-width="3" x1="759.0" x2="759.0" y1="1317.0" y2="1253.0" /><line stroke="#d00" stroke-width="20" x1="1623.0" x2="1559.0" y1="357.0" y2="357.0" /><line stroke="#999" stroke-width="3" x1="1623.0" x2="1623.0" y1="293.0" y2="357.0" /><line stroke="#999" stroke-width="3" x1="1559.0" x2="1623.0" y1="293.0" y2="293.0" /><line stroke="#999" stroke-width="3" x1="1559.0" x2="1559.0" y1="357.0" y2="293.0" /><line stroke="#999" stroke-width="3" x1="2679.0" x2="2743.0" y1="709.0" y2="709.0" /><line stroke="#999" stroke-width="3" x1="2743.0" x2="2743.0" y1="709.0" y2="645.0" /><line stroke="#999" stroke-width="3" x1="2743.0" x2="2679.0" y1="645.0" y2="645.0" /><line stroke="#999" stroke-width="3" x1="2679.0" x2="2679.0" y1="645.0" y2="709.0" /><line stroke="#999" stroke-width="3" x1="3063.0" x2="2999.0" y1="1509.0" y2="1509.0" /><line stroke="#999" stroke-width="3" x1="3063.0" x2="3063.0" y1="1445.0" y2="1509.0" /><line stroke="#999" stroke-width="3" x1="2999.0" x2="3063.0" y1="1445.0" y2="1445.0" /><line stroke="#999" stroke-width="3" x1="2999.0" x2="2999.0" y1="1509.0" y2="1445.0" /><line stroke="#999" stroke-width="3" x1="1239.0" x2="1303.0" y1="869.0" y2="869.0" /><line stroke="#999" stroke-width="3" x1="1303.0" x2="1303.0" y1="869.0" y2="805.0" /><line stroke="#999" stroke-width="3" x1="1303.0" x2="1239.0" y1="805.0" y2="805.0" /><line stroke="#999" stroke-width="3" x1="1239.0" x2="1239.0" y1="805.0" y2="869.0" /><line stroke="#999" stroke-width="3" x1="887.0" x2="951.0" y1="901.0" y2="901.0" /><line stroke="#999" stroke-width="3" x1="951.0" x2="951.0" y1="901.0" y2="837.0" /><line stroke="#999" stroke-width="3" x1="951.0" x2="887.0" y1="837.0" y2="837.0" /><line stroke="#999" stroke-width="3" x1="887.0" x2="887.0" y1="837.0" y2="901.0" /><line stroke="#999" stroke-width="3" x1="791.0" x2="855.0" y1="389.0" y2="389.0" /><line stroke="#999" stroke-width="3" x1="855.0" x2="855.0" y1="389.0" y2="325.0" /><line stroke="#999" stroke-width="3" x1="855.0" x2="791.0" y1="325.0" y2="325.0" /><line stroke="#999" stroke-width="3" x1="791.0" x2="791.0" y1="325.0" y2="389.0" /><line stroke="#999" stroke-width="3" x1="1751.0" x2="1687.0" y1="677.0" y2="677.0" /><line stroke="#999" stroke-width="3" x1="1751.0" x2="1751.0" y1="613.0" y2="677.0" /><line stroke="#999" stroke-width="3" x1="1687.0" x2="1751.0" y1="613.0" y2="613.0" /><line stroke="#999" stroke-width="3" x1="1687.0" x2="1687.0" y1="677.0" y2="613.0" /><line stroke="#999" stroke-width="3" x1="2423.0" x2="2359.0" y1="325.0" y2="325.0" /><line stroke="#999" stroke-width="3" x1="2423.0" x2="2423.0" y1="261.0" y2="325.0" /><line stroke="#999" stroke-width="3" x1="2359.0" x2="2423.0" y1="261.0" y2="261.0" /><line stroke="#999" stroke-width="3" x1="2359.0" x2="2359.0" y1="325.0" y2="261.0" /><line stroke="#999" stroke-width="3" x1="1431.0" x2="1367.0" y1="2597.0" y2="2597.0" /><line stroke="#999" stroke-width="3" x1="1431.0" x2="1431.0" y1="2533.0" y2="2597.0" /><line stroke="#999" stroke-width="3" x1="1367.0" x2="1431.0" y1="2533.0" y2="2533.0" /><line stroke="#999" stroke-width="3" x1="1367.0" x2="1367.0" y1="2597.0" y2="2533.0" /><line stroke="#999" stroke-width="3" x1="3031.0" x2="2967.0" y1="1669.0" y2="1669.0" /><line stroke="#999" stroke-width="3" x1="3031.0" x2="3031.0" y1="1605.0" y2="1669.0" /><line stroke="#999" stroke-width="3" x1="2967.0" x2="3031.0" y1="1605.0" y2="1605.0" /><line stroke="#999" stroke-width="3" x1="2967.0" x2="2967.0" y1="1669.0" y2="1605.0" /><line stroke="#999" stroke-width="3" x1="2775.0" x2="2711.0" y1="1093.0" y2="1093.0" /><line stroke="#999" stroke-width="3" x1="2775.0" x2="2775.0" y1="1029.0" y2="1093.0" /><line stroke="#999" stroke-width="3" x1="2711.0" x2="2775.0" y1="1029.0" y2="1029.0" /><line stroke="#999" stroke-width="3" x1="2711.0" x2="2711.0" y1="1093.0" y2="1029.0" /><line stroke="#999" stroke-width="3" x1="2071.0" x2="2007.0" y1="1381.0" y2="1381.0" /><line stroke="#999" stroke-width="3" x1="2071.0" x2="2071.0" y1="1317.0" y2="1381.0" /><line stroke="#999" stroke-width="3" x1="2007.0" x2="2071.0" y1="1317.0" y2="1317.0" /><line stroke="#999" stroke-width="3" x1="2007.0" x2="2007.0" y1="1381.0" y2="1317.0" /><line stroke="#999" stroke-width="3" x1="2231.0" x2="2167.0" y1="453.0" y2="453.0" /><line stroke="#999" stroke-width="3" x1="2231.0" x2="2231.0" y1="389.0" y2="453.0" /><line stroke="#999" stroke-width="3" x1="2167.0" x2="2231.0" y1="389.0" y2="389.0" /><line stroke="#999" stroke-width="3" x1="2167.0" x2="2167.0" y1="453.0" y2="389.0" /><line stroke="#999" stroke-width="3" x1="2199.0" x2="2263.0" y1="933.0" y2="933.0" /><line stroke="#999" stroke-width="3" x1="2263.0" x2="2263.0" y1="933.0" y2="869.0" /><line stroke="#999" stroke-width="3" x1="2263.0" x2="2199.0" y1="869.0" y2="869.0" /><line stroke="#999" stroke-width="3" x1="2199.0" x2="2199.0" y1="869.0" y2="933.0" /><line stroke="#999" stroke-width="3" x1="2391.0" x2="2327.0" y1="869.0" y2="869.0" /><line stroke="#999" stroke-width="3" x1="2391.0" x2="2391.0" y1="805.0" y2="869.0" /><line stroke="#999" stroke-width="3" x1="2327.0" x2="2391.0" y1="805.0" y2="805.0" /><line stroke="#999" stroke-width="3" x1="2327.0" x2="2327.0" y1="869.0" y2="805.0" /><line stroke="#999" stroke-width="3" x1="2231.0" x2="2295.0" y1="741.0" y2="741.0" /><line stroke="#999" stroke-width="3" x1="2295.0" x2="2295.0" y1="741.0" y2="677.0" /><line stroke="#999" stroke-width="3" x1="2295.0" x2="2231.0" y1="677.0" y2="677.0" /><line stroke="#999" stroke-width="3" x1="2231.0" x2="2231.0" y1="677.0" y2="741.0" /><line stroke="#999" stroke-width="3" x1="1783.0" x2="1719.0" y1="2405.0" y2="2405.0" /><line stroke="#999" stroke-width="3" x1="1783.0" x2="1783.0" y1="2341.0" y2="2405.0" /><line stroke="#999" stroke-width="3" x1="1719.0" x2="1783.0" y1="2341.0" y2="2341.0" /><line stroke="#999" stroke-width="3" x1="1719.0" x2="1719.0" y1="2405.0" y2="2341.0" /><line stroke="#999" stroke-width="3" x1="1623.0" x2="1687.0" y1="2565.0" y2="2565.0" /><line stroke="#999" stroke-width="3" x1="1687.0" x2="1687.0" y1="2565.0" y2="2501.0" /><line stroke="#999" stroke-width="3" x1="1687.0" x2="1623.0" y1="2501.0" y2="2501.0" /><line stroke="#999" stroke-width="3" x1="1623.0" x2="1623.0" y1="2501.0" y2="2565.0" /><line stroke="#999" stroke-width="3" x1="1751.0" x2="1815.0" y1="2565.0" y2="2565.0" /><line stroke="#999" stroke-width="3" x1="1815.0" x2="1815.0" y1="2565.0" y2="2501.0" /><line stroke="#999" stroke-width="3" x1="1815.0" x2="1751.0" y1="2501.0" y2="2501.0" /><line stroke="#999" stroke-width="3" x1="1751.0" x2="1751.0" y1="2501.0" y2="2565.0" /><line stroke="#333" stroke-width="10" x1="645.0" x2="645.0" y1="1541.0" y2="2757.0" /><line stroke="#333" stroke-width="10" x1="453.0" x2="613.0" y1="1541.0" y2="1541.0" /><line stroke="#333" stroke-width="10" x1="613.0" x2="645.0" y1="1541.0" y2="1541.0" /><line stroke="#999" stroke-width="3" x1="645.0" x2="645.0" y1="1413.0" y2="1541.0" /><line stroke="#333" stroke-width="10" x1="645.0" x2="613.0" y1="1413.0" y2="1413.0" /><line stroke="#999" stroke-width="3" x1="613.0" x2="613.0" y1="1541.0" y2="1413.0" /><line stroke="#333" stroke-width="10" x1="613.0" x2="453.0" y1="1413.0" y2="1413.0" /><line stroke="#333" stroke-width="10" x1="133.0" x2="197.0" y1="1541.0" y2="1541.0" /><line stroke="#d00" stroke-width="20" x1="3205.0" x2="3205.0" y1="1541.0" y2="1413.0" /><line stroke="#333" stroke-width="10" x1="3205.0" x2="3205.0" y1="1413.0" y2="197.0" /><line stroke="#333" stroke-width="10" x1="3205.0" x2="3237.0" y1="1541.0" y2="1541.0" /><line stroke="#333" stroke-width="10" x1="3269.0" x2="3237.0" y1="1413.0" y2="1413.0" /><line stroke="#333" stroke-width="10" x1="3237.0" x2="3205.0" y1="1413.0" y2="1413.0" /><line stroke="#333" stroke-width="10" x1="3237.0" x2="3269.0" y1="1541.0" y2="1541.0" /><line stroke="#333" stroke-width="10" x1="3653.0" x2="3653.0" y1="2213.0" y2="869.0" /><line stroke="#333" stroke-width="10" x1="3653.0" x2="3269.0" y1="869.0" y2="869.0" /><line stroke="#666" stroke-width="20" x1="3237.0" x2="3237.0" y1="1413.0" y2="1541.0" /><line stroke="#333" stroke-width="10" x1="3269.0" x2="3397.0" y1="1541.0" y2="1541.0" /><line stroke="#333" stroke-width="10" x1="3269.0" x2="3269.0" y1="869.0" y2="1381.0" /><line stroke="#333" stroke-width="10" x1="3269.0" x2="3653.0" y1="2213.0" y2="2213.0" /><line stroke="#333" stroke-width="10" x1="3269.0" x2="3269.0" y1="1573.0" y2="2213.0" /><line stroke="#333" stroke-width="10" x1="3397.0" x2="3397.0" y1="1541.0" y2="1573.0" /><line stroke="#333" stroke-width="10" x1="3397.0" x2="3269.0" y1="1573.0" y2="1573.0" /><line stroke="#333" stroke-width="10" x1="3269.0" x2="3397.0" y1="1381.0" y2="1381.0" /><line stroke="#333" stroke-width="10" x1="3397.0" x2="3269.0" y1="1413.0" y2="1413.0" /><line stroke="#333" stroke-width="10" x1="3397.0" x2="3397.0" y1="1381.0" y2="1413.0" /><line stroke="#333" stroke-width="10" x1="389.0" x2="453.0" y1="1541.0" y2="1541.0" /><line stroke="#666" stroke-width="20" x1="453.0" x2="453.0" y1="1413.0" y2="1541.0" /><line stroke="#333" stroke-width="10" x1="453.0" x2="389.0" y1="1413.0" y2="1413.0" /><line stroke="#666" stroke-width="20" x1="389.0" x2="389.0" y1="1541.0" y2="1413.0" /><line stroke="#333" stroke-width="10" x1="389.0" x2="133.0" y1="1413.0" y2="1413.0" /><line stroke="#333" stroke-width="10" x1="133.0" x2="133.0" y1="1413.0" y2="1541.0" /><line stroke="#333" stroke-width="10" x1="5.0" x2="229.0" y1="2501.0" y2="2501.0" /><line stroke="#333" stroke-width="10" x1="581.0" x2="581.0" y1="2501.0" y2="1605.0" /><line stroke="#333" stroke-width="10" x1="581.0" x2="325.0" y1="1605.0" y2="1605.0" /><line stroke="#333" stroke-width="10" x1="5.0" x2="5.0" y1="1605.0" y2="2501.0" /><line stroke="#333" stroke-width="10" x1="197.0" x2="5.0" y1="1605.0" y2="1605.0" /><line stroke="#333" stroke-width="10" x1="325.0" x2="325.0" y1="1605.0" y2="1541.0" /><line stroke="#333" stroke-width="10" x1="197.0" x2="389.0" y1="2693.0" y2="2693.0" /><line stroke="#333" stroke-width="10" x1="325.0" x2="389.0" y1="1541.0" y2="1541.0" /><line stroke="#333" stroke-width="10" x1="197.0" x2="197.0" y1="1541.0" y2="1605.0" /><line stroke="#999" stroke-width="3" x1="325.0" x2="197.0" y1="1541.0" y2="1541.0" /><line stroke="#333" stroke-width="10" x1="357.0" x2="581.0" y1="2501.0" y2="2501.0" /><line stroke="#999" stroke-width="3" x1="773.0" x2="3077.0" y1="2789.0" y2="2789.0" /><line stroke="#333" stroke-width="10" x1="3077.0" x2="3077.0" y1="2789.0" y2="2757.0" /><line stroke="#999" stroke-width="3" x1="773.0" x2="3077.0" y1="2757.0" y2="2757.0" /><line stroke="#333" stroke-width="10" x1="773.0" x2="773.0" y1="2757.0" y2="2789.0" /><line stroke="#333" stroke-width="10" x1="3077.0" x2="3205.0" y1="2757.0" y2="2757.0" /><line stroke="#333" stroke-width="10" x1="3077.0" x2="3205.0" y1="2757.0" y2="2757.0" /><line stroke="#333" stroke-width="10" x1="773.0" x2="3077.0" y1="3237.0" y2="3237.0" /><line stroke="#333" stroke-width="10" x1="3077.0" x2="3077.0" y1="3237.0" y2="2789.0" /><line stroke="#333" stroke-width="10" x1="773.0" x2="773.0" y1="2789.0" y2="3237.0" /><line stroke="#999" stroke-width="3" x1="1797.0" x2="2053.0" y1="197.0" y2="197.0" /><line stroke="#333" stroke-width="10" x1="2053.0" x2="2053.0" y1="197.0" y2="165.0" /><line stroke="#999" stroke-width="3" x1="2053.0" x2="1797.0" y1="165.0" y2="165.0" /><line stroke="#333" stroke-width="10" x1="1797.0" x2="1797.0" y1="165.0" y2="197.0" /><line stroke="#333" stroke-width="10" x1="1797.0" x2="645.0" y1="197.0" y2="197.0" /><line stroke="#333" stroke-width="10" x1="2053.0" x2="1957.0" y1="165.0" y2="5.0" /><line stroke="#0d0" stroke-width="20" x1="1957.0" x2="1893.0" y1="5.0" y2="5.0" /><line stroke="#333" stroke-width="10" x1="1893.0" x2="1797.0" y1="5.0" y2="165.0" /><line stroke="#999" stroke-width="3" x1="261.0" x2="325.0" y1="2565.0" y2="2565.0" /><line stroke="#333" stroke-width="10" x1="325.0" x2="357.0" y1="2565.0" y2="2501.0" /><line stroke="#d00" stroke-width="20" x1="229.0" x2="357.0" y1="2501.0" y2="2501.0" /><line stroke="#333" stroke-width="10" x1="229.0" x2="261.0" y1="2501.0" y2="2565.0" /><line stroke="#333" stroke-width="10" x1="389.0" x2="325.0" y1="2693.0" y2="2565.0" /><line stroke="#333" stroke-width="10" x1="261.0" x2="197.0" y1="2565.0" y2="2693.0" /></svg>