<?xml version="1.0" encoding="utf-8" ?>
<svg baseProfile="tiny" height="720" version="1.2" viewBox="0 0 2378 1674" width="1024" xmlns="http://www.w3.org/2000/svg" xmlns:ev="http://www.w3.org/2001/xml-events" xmlns:xlink="http://www.w3.org/1999/xlink"><defs /><line stroke="#999" stroke-width="3" x1="837.0" x2="837.0" y1="709.0" y2="581.0" /><line stroke="#999" stroke-width="3" x1="581.0" x2="837.0" y1="709.0" y2="709.0" /><line stroke="#999" stroke-width="3" x1="837.0" x2="965.0" y1="581.0" y2="581.0" /><line stroke="#333" stroke-width="10" x1="965.0" x2="1093.0" y1="261.0" y2="261.0" /><line stroke="#333" stroke-width="10" x1="837.0" x2="773.0" y1="325.0" y2="325.0" /><line stroke="#333" stroke-width="10" x1="581.0" x2="581.0" y1="389.0" y2="453.0" /><line stroke="#999" stroke-width="3" x1="581.0" x2="581.0" y1="581.0" y2="453.0" /><line stroke="#333" stroke-width="10" x1="325.0" x2="325.0" y1="453.0" y2="581.0" /><line stroke="#333" stroke-width="10" x1="581.0" x2="581.0" y1="581.0" y2="645.0" /><line stroke="#333" stroke-width="10" x1="581.0" x2="325.0" y1="453.0" y2="453.0" /><line stroke="#999" stroke-width="3" x1="837.0" x2="837.0" y1="453.0" y2="325.0" /><line stroke="#999" stroke-width="3" x1="581.0" x2="581.0" y1="645.0" y2="709.0" /><line stroke="#333" stroke-width="10" x1="453.0" x2="581.0" y1="581.0" y2="581.0" /><line stroke="#333" stroke-width="10" x1="645.0" x2="645.0" y1="261.0" y2="325.0" /><line stroke="#333" stroke-width="10" x1="1029.0" x2="1029.0" y1="517.0" y2="453.0" /><line stroke="#333" stroke-width="10" x1="773.0" x2="773.0" y1="325.0" y2="261.0" /><line stroke="#999" stroke-width="3" x1="773.0" x2="645.0" y1="325.0" y2="325.0" /><line stroke="#333" stroke-width="10" x1="645.0" x2="581.0" y1="325.0" y2="325.0" /><line stroke="#999" stroke-width="3" x1="709.0" x2="709.0" y1="549.0" y2="485.0" /><line stroke="#999" stroke-width="3" x1="709.0" x2="773.0" y1="485.0" y2="485.0" /><line stroke="#999" stroke-width="3" x1="773.0" x2="773.0" y1="485.0" y2="549.0" /><line stroke="#999" stroke-width="3" x1="773.0" x2="709.0" y1="549.0" y2="549.0" /><line stroke="#333" stroke-width="10" x1="581.0" x2="517.0" y1="645.0" y2="645.0" /><line stroke="#333" stroke-width="10" x1="517.0" x2="517.0" y1="645.0" y2="773.0" /><line stroke="#999" stroke-width="3" x1="901.0" x2="1029.0" y1="773.0" y2="773.0" /><line stroke="#999" stroke-width="3" x1="1157.0" x2="1157.0" y1="581.0" y2="133.0" /><line stroke="#999" stroke-width="3" x1="1029.0" x2="1157.0" y1="581.0" y2="581.0" /><line stroke="#999" stroke-width="3" x1="1029.0" x2="1029.0" y1="645.0" y2="581.0" /><line stroke="#333" stroke-width="10" x1="1029.0" x2="965.0" y1="453.0" y2="453.0" /><line stroke="#999" stroke-width="3" x1="965.0" x2="965.0" y1="581.0" y2="453.0" /><line stroke="#333" stroke-width="10" x1="773.0" x2="837.0" y1="261.0" y2="261.0" /><line stroke="#333" stroke-width="10" x1="1093.0" x2="1093.0" y1="261.0" y2="517.0" /><line stroke="#333" stroke-width="10" x1="1093.0" x2="1029.0" y1="517.0" y2="517.0" /><line stroke="#999" stroke-width="3" x1="1029.0" x2="1029.0" y1="581.0" y2="517.0" /><line stroke="#999" stroke-width="3" x1="901.0" x2="1029.0" y1="645.0" y2="645.0" /><line stroke="#999" stroke-width="3" x1="901.0" x2="901.0" y1="773.0" y2="645.0" /><line stroke="#333" stroke-width="10" x1="69.0" x2="133.0" y1="133.0" y2="133.0" /><line stroke="#333" stroke-width="10" x1="133.0" x2="133.0" y1="133.0" y2="325.0" /><line stroke="#d00" stroke-width="20" x1="133.0" x2="261.0" y1="341.0" y2="341.0" /><line stroke="#999" stroke-width="3" x1="773.0" x2="645.0" y1="261.0" y2="261.0" /><line stroke="#999" stroke-width="3" x1="645.0" x2="645.0" y1="645.0" y2="581.0" /><line stroke="#999" stroke-width="3" x1="645.0" x2="709.0" y1="581.0" y2="581.0" /><line stroke="#999" stroke-width="3" x1="709.0" x2="709.0" y1="581.0" y2="645.0" /><line stroke="#999" stroke-width="3" x1="709.0" x2="645.0" y1="645.0" y2="645.0" /><line stroke="#333" stroke-width="10" x1="517.0" x2="581.0" y1="389.0" y2="389.0" /><line stroke="#333" stroke-width="10" x1="453.0" x2="517.0" y1="389.0" y2="389.0" /><line stroke="#333" stroke-width="10" x1="581.0" x2="517.0" y1="325.0" y2="325.0" /><line stroke="#999" stroke-width="3" x1="581.0" x2="581.0" y1="325.0" y2="389.0" /><line stroke="#999" stroke-width="3" x1="517.0" x2="517.0" y1="325.0" y2="389.0" /><line stroke="#333" stroke-width="10" x1="517.0" x2="453.0" y1="325.0" y2="325.0" /><line stroke="#333" stroke-width="10" x1="453.0" x2="645.0" y1="261.0" y2="261.0" /><line stroke="#333" stroke-width="10" x1="389.0" x2="453.0" y1="389.0" y2="389.0" /><line stroke="#333" stroke-width="10" x1="389.0" x2="389.0" y1="261.0" y2="389.0" /><line stroke="#999" stroke-width="3" x1="389.0" x2="453.0" y1="261.0" y2="261.0" /><line stroke="#333" stroke-width="10" x1="453.0" x2="453.0" y1="325.0" y2="261.0" /><line stroke="#999" stroke-width="3" x1="453.0" x2="453.0" y1="325.0" y2="389.0" /><line stroke="#999" stroke-width="3" x1="965.0" x2="837.0" y1="453.0" y2="453.0" /><line stroke="#333" stroke-width="10" x1="965.0" x2="965.0" y1="453.0" y2="389.0" /><line stroke="#999" stroke-width="3" x1="837.0" x2="965.0" y1="261.0" y2="261.0" /><line stroke="#333" stroke-width="10" x1="837.0" x2="837.0" y1="261.0" y2="325.0" /><line stroke="#333" stroke-width="10" x1="965.0" x2="1029.0" y1="389.0" y2="389.0" /><line stroke="#333" stroke-width="10" x1="1029.0" x2="1029.0" y1="389.0" y2="325.0" /><line stroke="#333" stroke-width="10" x1="1029.0" x2="965.0" y1="325.0" y2="325.0" /><line stroke="#333" stroke-width="10" x1="965.0" x2="965.0" y1="325.0" y2="261.0" /><line stroke="#999" stroke-width="3" x1="517.0" x2="901.0" y1="773.0" y2="773.0" /><line stroke="#333" stroke-width="10" x1="1285.0" x2="1349.0" y1="773.0" y2="773.0" /><line stroke="#999" stroke-width="3" x1="69.0" x2="5.0" y1="133.0" y2="133.0" /><line stroke="#333" stroke-width="10" x1="261.0" x2="389.0" y1="261.0" y2="261.0" /><line stroke="#333" stroke-width="10" x1="261.0" x2="261.0" y1="341.0" y2="325.0" /><line stroke="#333" stroke-width="10" x1="133.0" x2="133.0" y1="341.0" y2="373.0" /><line stroke="#d00" stroke-width="20" x1="261.0" x2="133.0" y1="373.0" y2="373.0" /><line stroke="#333" stroke-width="10" x1="261.0" x2="261.0" y1="373.0" y2="341.0" /><line stroke="#333" stroke-width="10" x1="133.0" x2="133.0" y1="373.0" y2="389.0" /><line stroke="#333" stroke-width="10" x1="1029.0" x2="1093.0" y1="773.0" y2="773.0" /><line stroke="#333" stroke-width="10" x1="261.0" x2="261.0" y1="709.0" y2="389.0" /><line stroke="#333" stroke-width="10" x1="133.0" x2="133.0" y1="389.0" y2="709.0" /><line stroke="#333" stroke-width="10" x1="261.0" x2="261.0" y1="389.0" y2="373.0" /><line stroke="#333" stroke-width="10" x1="261.0" x2="261.0" y1="325.0" y2="261.0" /><line stroke="#333" stroke-width="10" x1="133.0" x2="133.0" y1="325.0" y2="341.0" /><line stroke="#333" stroke-width="10" x1="1029.0" x2="1029.0" y1="837.0" y2="773.0" /><line stroke="#999" stroke-width="3" x1="5.0" x2="1029.0" y1="837.0" y2="837.0" /><line stroke="#333" stroke-width="10" x1="133.0" x2="69.0" y1="773.0" y2="773.0" /><line stroke="#999" stroke-width="3" x1="133.0" x2="261.0" y1="773.0" y2="773.0" /><line stroke="#333" stroke-width="10" x1="517.0" x2="261.0" y1="773.0" y2="773.0" /><line stroke="#333" stroke-width="10" x1="133.0" x2="133.0" y1="709.0" y2="773.0" /><line stroke="#999" stroke-width="3" x1="133.0" x2="261.0" y1="709.0" y2="709.0" /><line stroke="#333" stroke-width="10" x1="261.0" x2="261.0" y1="773.0" y2="709.0" /><line stroke="#333" stroke-width="10" x1="5.0" x2="5.0" y1="133.0" y2="837.0" /><line stroke="#333" stroke-width="10" x1="69.0" x2="69.0" y1="773.0" y2="133.0" /><line stroke="#999" stroke-width="3" x1="1157.0" x2="133.0" y1="133.0" y2="133.0" /><line stroke="#333" stroke-width="10" x1="5.0" x2="5.0" y1="69.0" y2="133.0" /><line stroke="#333" stroke-width="10" x1="1285.0" x2="1157.0" y1="69.0" y2="69.0" /><line stroke="#333" stroke-width="10" x1="1541.0" x2="1541.0" y1="133.0" y2="69.0" /><line stroke="#999" stroke-width="3" x1="1285.0" x2="1157.0" y1="133.0" y2="133.0" /><line stroke="#333" stroke-width="10" x1="1093.0" x2="1093.0" y1="773.0" y2="837.0" /><line stroke="#333" stroke-width="10" x1="1093.0" x2="1157.0" y1="837.0" y2="837.0" /><line stroke="#333" stroke-width="10" x1="1157.0" x2="1157.0" y1="837.0" y2="773.0" /><line stroke="#999" stroke-width="3" x1="1093.0" x2="1157.0" y1="773.0" y2="773.0" /><line stroke="#333" stroke-width="10" x1="1157.0" x2="1285.0" y1="773.0" y2="773.0" /><line stroke="#999" stroke-width="3" x1="1285.0" x2="1285.0" y1="773.0" y2="133.0" /><line stroke="#999" stroke-width="3" x1="1285.0" x2="1285.0" y1="133.0" y2="69.0" /><line stroke="#333" stroke-width="10" x1="1541.0" x2="1285.0" y1="69.0" y2="69.0" /><line stroke="#333" stroke-width="10" x1="5.0" x2="5.0" y1="837.0" y2="901.0" /><line stroke="#999" stroke-width="3" x1="773.0" x2="773.0" y1="901.0" y2="965.0" /><line stroke="#333" stroke-width="10" x1="1029.0" x2="1029.0" y1="901.0" y2="837.0" /><line stroke="#333" stroke-width="10" x1="5.0" x2="5.0" y1="901.0" y2="1029.0" /><line stroke="#333" stroke-width="10" x1="5.0" x2="517.0" y1="1029.0" y2="1029.0" /><line stroke="#999" stroke-width="3" x1="773.0" x2="517.0" y1="965.0" y2="965.0" /><line stroke="#999" stroke-width="3" x1="5.0" x2="517.0" y1="901.0" y2="901.0" /><line stroke="#333" stroke-width="10" x1="1029.0" x2="1029.0" y1="1029.0" y2="901.0" /><line stroke="#333" stroke-width="10" x1="773.0" x2="1029.0" y1="1029.0" y2="1029.0" /><line stroke="#999" stroke-width="3" x1="517.0" x2="773.0" y1="901.0" y2="901.0" /><line stroke="#999" stroke-width="3" x1="773.0" x2="1029.0" y1="901.0" y2="901.0" /><line stroke="#333" stroke-width="10" x1="325.0" x2="325.0" y1="581.0" y2="709.0" /><line stroke="#333" stroke-width="10" x1="325.0" x2="453.0" y1="709.0" y2="709.0" /><line stroke="#333" stroke-width="10" x1="453.0" x2="453.0" y1="709.0" y2="581.0" /><line stroke="#999" stroke-width="3" x1="325.0" x2="453.0" y1="581.0" y2="581.0" /><line stroke="#999" stroke-width="3" x1="517.0" x2="517.0" y1="965.0" y2="901.0" /><line stroke="#999" stroke-width="3" x1="773.0" x2="773.0" y1="965.0" y2="1029.0" /><line stroke="#333" stroke-width="10" x1="517.0" x2="645.0" y1="1029.0" y2="1029.0" /><line stroke="#999" stroke-width="3" x1="517.0" x2="517.0" y1="1029.0" y2="965.0" /><line stroke="#333" stroke-width="10" x1="645.0" x2="645.0" y1="1029.0" y2="1093.0" /><line stroke="#333" stroke-width="10" x1="645.0" x2="709.0" y1="1093.0" y2="1093.0" /><line stroke="#333" stroke-width="10" x1="709.0" x2="709.0" y1="1093.0" y2="1029.0" /><line stroke="#999" stroke-width="3" x1="645.0" x2="709.0" y1="1029.0" y2="1029.0" /><line stroke="#333" stroke-width="10" x1="709.0" x2="773.0" y1="1029.0" y2="1029.0" /><line stroke="#333" stroke-width="10" x1="1349.0" x2="1349.0" y1="773.0" y2="837.0" /><line stroke="#999" stroke-width="3" x1="1605.0" x2="1605.0" y1="837.0" y2="133.0" /><line stroke="#999" stroke-width="3" x1="1349.0" x2="1605.0" y1="837.0" y2="837.0" /><line stroke="#333" stroke-width="10" x1="1605.0" x2="1541.0" y1="133.0" y2="133.0" /><line stroke="#999" stroke-width="3" x1="1541.0" x2="1541.0" y1="773.0" y2="133.0" /><line stroke="#999" stroke-width="3" x1="1349.0" x2="1541.0" y1="773.0" y2="773.0" /><line stroke="#333" stroke-width="10" x1="1349.0" x2="1349.0" y1="837.0" y2="965.0" /><line stroke="#999" stroke-width="3" x1="1349.0" x2="1733.0" y1="965.0" y2="965.0" /><line stroke="#333" stroke-width="10" x1="1733.0" x2="1733.0" y1="965.0" y2="837.0" /><line stroke="#333" stroke-width="10" x1="1669.0" x2="1605.0" y1="133.0" y2="133.0" /><line stroke="#333" stroke-width="10" x1="1349.0" x2="1285.0" y1="965.0" y2="965.0" /><line stroke="#333" stroke-width="10" x1="1285.0" x2="1349.0" y1="1029.0" y2="1029.0" /><line stroke="#999" stroke-width="3" x1="1797.0" x2="1797.0" y1="837.0" y2="261.0" /><line stroke="#999" stroke-width="3" x1="1285.0" x2="1285.0" y1="965.0" y2="1029.0" /><line stroke="#999" stroke-width="3" x1="1413.0" x2="1413.0" y1="613.0" y2="549.0" /><line stroke="#999" stroke-width="3" x1="1413.0" x2="1477.0" y1="549.0" y2="549.0" /><line stroke="#999" stroke-width="3" x1="1477.0" x2="1477.0" y1="549.0" y2="613.0" /><line stroke="#999" stroke-width="3" x1="1477.0" x2="1413.0" y1="613.0" y2="613.0" /><line stroke="#999" stroke-width="3" x1="1413.0" x2="1413.0" y1="293.0" y2="229.0" /><line stroke="#999" stroke-width="3" x1="1413.0" x2="1477.0" y1="229.0" y2="229.0" /><line stroke="#999" stroke-width="3" x1="1477.0" x2="1477.0" y1="229.0" y2="293.0" /><line stroke="#999" stroke-width="3" x1="1477.0" x2="1413.0" y1="293.0" y2="293.0" /><line stroke="#333" stroke-width="10" x1="5.0" x2="5.0" y1="5.0" y2="69.0" /><line stroke="#333" stroke-width="10" x1="1157.0" x2="5.0" y1="5.0" y2="5.0" /><line stroke="#333" stroke-width="10" x1="1157.0" x2="1157.0" y1="69.0" y2="5.0" /><line stroke="#999" stroke-width="3" x1="1157.0" x2="5.0" y1="69.0" y2="69.0" /><line stroke="#999" stroke-width="3" x1="1733.0" x2="1669.0" y1="133.0" y2="133.0" /><line stroke="#333" stroke-width="10" x1="1733.0" x2="1733.0" y1="133.0" y2="69.0" /><line stroke="#333" stroke-width="10" x1="1733.0" x2="1669.0" y1="69.0" y2="69.0" /><line stroke="#333" stroke-width="10" x1="1669.0" x2="1669.0" y1="69.0" y2="133.0" /><line stroke="#333" stroke-width="10" x1="1797.0" x2="1733.0" y1="261.0" y2="261.0" /><line stroke="#333" stroke-width="10" x1="2117.0" x2="1797.0" y1="261.0" y2="261.0" /><line stroke="#333" stroke-width="10" x1="1733.0" x2="1797.0" y1="837.0" y2="837.0" /><line stroke="#999" stroke-width="3" x1="1733.0" x2="1733.0" y1="837.0" y2="261.0" /><line stroke="#333" stroke-width="10" x1="1733.0" x2="1733.0" y1="261.0" y2="133.0" /><line stroke="#333" stroke-width="10" x1="1797.0" x2="1797.0" y1="837.0" y2="965.0" /><line stroke="#333" stroke-width="10" x1="1797.0" x2="1733.0" y1="965.0" y2="965.0" /><line stroke="#999" stroke-width="3" x1="1797.0" x2="1797.0" y1="1029.0" y2="965.0" /><line stroke="#333" stroke-width="10" x1="1797.0" x2="1861.0" y1="1029.0" y2="1029.0" /><line stroke="#999" stroke-width="3" x1="1861.0" x2="2309.0" y1="901.0" y2="901.0" /><line stroke="#999" stroke-width="3" x1="1861.0" x2="1861.0" y1="645.0" y2="581.0" /><line stroke="#333" stroke-width="10" x1="2117.0" x2="2117.0" y1="517.0" y2="261.0" /><line stroke="#999" stroke-width="3" x1="1861.0" x2="1861.0" y1="901.0" y2="709.0" /><line stroke="#333" stroke-width="10" x1="2117.0" x2="2117.0" y1="709.0" y2="581.0" /><line stroke="#999" stroke-width="3" x1="1861.0" x2="2053.0" y1="581.0" y2="581.0" /><line stroke="#999" stroke-width="3" x1="1861.0" x2="1861.0" y1="1029.0" y2="901.0" /><line stroke="#333" stroke-width="10" x1="2373.0" x2="2373.0" y1="837.0" y2="709.0" /><line stroke="#999" stroke-width="3" x1="1925.0" x2="2117.0" y1="709.0" y2="709.0" /><line stroke="#333" stroke-width="10" x1="2373.0" x2="2117.0" y1="709.0" y2="709.0" /><line stroke="#333" stroke-width="10" x1="1861.0" x2="2053.0" y1="1029.0" y2="1029.0" /><line stroke="#333" stroke-width="10" x1="2373.0" x2="2373.0" y1="1029.0" y2="901.0" /><line stroke="#999" stroke-width="3" x1="2053.0" x2="2053.0" y1="581.0" y2="517.0" /><line stroke="#999" stroke-width="3" x1="2053.0" x2="2117.0" y1="517.0" y2="517.0" /><line stroke="#333" stroke-width="10" x1="2117.0" x2="2117.0" y1="581.0" y2="517.0" /><line stroke="#999" stroke-width="3" x1="2053.0" x2="2117.0" y1="581.0" y2="581.0" /><line stroke="#999" stroke-width="3" x1="1861.0" x2="1925.0" y1="645.0" y2="645.0" /><line stroke="#999" stroke-width="3" x1="1925.0" x2="1925.0" y1="645.0" y2="709.0" /><line stroke="#999" stroke-width="3" x1="1861.0" x2="1925.0" y1="709.0" y2="709.0" /><line stroke="#999" stroke-width="3" x1="1861.0" x2="1861.0" y1="709.0" y2="645.0" /><line stroke="#999" stroke-width="3" x1="2309.0" x2="2309.0" y1="901.0" y2="837.0" /><line stroke="#999" stroke-width="3" x1="2309.0" x2="2373.0" y1="837.0" y2="837.0" /><line stroke="#333" stroke-width="10" x1="2373.0" x2="2373.0" y1="901.0" y2="837.0" /><line stroke="#999" stroke-width="3" x1="2309.0" x2="2373.0" y1="901.0" y2="901.0" /><line stroke="#333" stroke-width="10" x1="2245.0" x2="2373.0" y1="1029.0" y2="1029.0" /><line stroke="#333" stroke-width="10" x1="2053.0" x2="2053.0" y1="1029.0" y2="1093.0" /><line stroke="#333" stroke-width="10" x1="2053.0" x2="2245.0" y1="1093.0" y2="1093.0" /><line stroke="#333" stroke-width="10" x1="2245.0" x2="2245.0" y1="1093.0" y2="1029.0" /><line stroke="#333" stroke-width="10" x1="1205.0" x2="1221.0" y1="1029.0" y2="1029.0" /><line stroke="#d00" stroke-width="20" x1="1205.0" x2="1205.0" y1="965.0" y2="1029.0" /><line stroke="#333" stroke-width="10" x1="1285.0" x2="1221.0" y1="965.0" y2="965.0" /><line stroke="#333" stroke-width="10" x1="1173.0" x2="1205.0" y1="1029.0" y2="1029.0" /><line stroke="#d00" stroke-width="20" x1="1173.0" x2="1173.0" y1="1029.0" y2="965.0" /><line stroke="#333" stroke-width="10" x1="1205.0" x2="1173.0" y1="965.0" y2="965.0" /><line stroke="#333" stroke-width="10" x1="1221.0" x2="1285.0" y1="1029.0" y2="1029.0" /><line stroke="#333" stroke-width="10" x1="1221.0" x2="1205.0" y1="965.0" y2="965.0" /><line stroke="#333" stroke-width="10" x1="1093.0" x2="1157.0" y1="1285.0" y2="1285.0" /><line stroke="#333" stroke-width="10" x1="1093.0" x2="1093.0" y1="901.0" y2="1285.0" /><line stroke="#333" stroke-width="10" x1="1173.0" x2="1157.0" y1="965.0" y2="965.0" /><line stroke="#333" stroke-width="10" x1="1157.0" x2="1173.0" y1="1029.0" y2="1029.0" /><line stroke="#333" stroke-width="10" x1="1157.0" x2="1157.0" y1="965.0" y2="901.0" /><line stroke="#333" stroke-width="10" x1="1157.0" x2="1093.0" y1="901.0" y2="901.0" /><line stroke="#333" stroke-width="10" x1="1157.0" x2="1157.0" y1="1285.0" y2="1221.0" /><line stroke="#999" stroke-width="3" x1="1157.0" x2="1157.0" y1="1221.0" y2="1093.0" /><line stroke="#333" stroke-width="10" x1="1349.0" x2="1157.0" y1="1093.0" y2="1093.0" /><line stroke="#333" stroke-width="10" x1="1349.0" x2="1349.0" y1="1029.0" y2="1093.0" /><line stroke="#999" stroke-width="3" x1="1349.0" x2="1733.0" y1="1029.0" y2="1029.0" /><line stroke="#333" stroke-width="10" x1="1733.0" x2="1733.0" y1="1093.0" y2="1029.0" /><line stroke="#333" stroke-width="10" x1="1157.0" x2="1221.0" y1="1221.0" y2="1221.0" /><line stroke="#333" stroke-width="10" x1="1733.0" x2="1797.0" y1="1029.0" y2="1029.0" /><line stroke="#333" stroke-width="10" x1="1157.0" x2="1157.0" y1="1093.0" y2="1029.0" /><line stroke="#333" stroke-width="10" x1="1221.0" x2="1221.0" y1="1221.0" y2="1285.0" /><line stroke="#333" stroke-width="10" x1="1221.0" x2="1413.0" y1="1285.0" y2="1285.0" /><line stroke="#333" stroke-width="10" x1="1797.0" x2="1797.0" y1="1285.0" y2="1093.0" /><line stroke="#333" stroke-width="10" x1="1797.0" x2="1733.0" y1="1093.0" y2="1093.0" /><line stroke="#999" stroke-width="3" x1="1733.0" x2="1733.0" y1="1221.0" y2="1093.0" /><line stroke="#999" stroke-width="3" x1="1221.0" x2="1733.0" y1="1221.0" y2="1221.0" /><line stroke="#999" stroke-width="3" x1="1413.0" x2="1605.0" y1="1285.0" y2="1285.0" /><line stroke="#333" stroke-width="10" x1="1605.0" x2="1605.0" y1="1413.0" y2="1285.0" /><line stroke="#333" stroke-width="10" x1="1477.0" x2="1477.0" y1="1605.0" y2="1669.0" /><line stroke="#333" stroke-width="10" x1="1413.0" x2="1413.0" y1="1285.0" y2="1413.0" /><line stroke="#333" stroke-width="10" x1="1605.0" x2="1797.0" y1="1285.0" y2="1285.0" /><line stroke="#999" stroke-width="3" x1="1413.0" x2="1477.0" y1="1413.0" y2="1413.0" /><line stroke="#999" stroke-width="3" x1="1477.0" x2="1477.0" y1="1413.0" y2="1477.0" /><line stroke="#333" stroke-width="10" x1="1413.0" x2="1477.0" y1="1477.0" y2="1477.0" /><line stroke="#333" stroke-width="10" x1="1413.0" x2="1413.0" y1="1413.0" y2="1477.0" /><line stroke="#999" stroke-width="3" x1="1605.0" x2="1541.0" y1="1413.0" y2="1413.0" /><line stroke="#999" stroke-width="3" x1="1541.0" x2="1541.0" y1="1413.0" y2="1477.0" /><line stroke="#333" stroke-width="10" x1="1541.0" x2="1605.0" y1="1477.0" y2="1477.0" /><line stroke="#333" stroke-width="10" x1="1605.0" x2="1605.0" y1="1477.0" y2="1413.0" /><line stroke="#333" stroke-width="10" x1="1541.0" x2="1541.0" y1="1605.0" y2="1477.0" /><line stroke="#333" stroke-width="10" x1="1477.0" x2="1477.0" y1="1477.0" y2="1605.0" /><line stroke="#999" stroke-width="3" x1="1477.0" x2="1541.0" y1="1477.0" y2="1477.0" /><line stroke="#999" stroke-width="3" x1="1477.0" x2="1541.0" y1="1605.0" y2="1605.0" /><line stroke="#333" stroke-width="10" x1="1541.0" x2="1541.0" y1="1669.0" y2="1605.0" /><line stroke="#0d0" stroke-width="20" x1="1477.0" x2="1541.0" y1="1669.0" y2="1669.0" /><line stroke="#999" stroke-width="3" x1="1493.0" x2="1525.0" y1="1613.0" y2="1613.0" /><line stroke="#999" stroke-width="3" x1="1525.0" x2="1525.0" y1="1613.0" y2="1621.0" /><line stroke="#999" stroke-width="3" x1="1525.0" x2="1493.0" y1="1621.0" y2="1621.0" /><line stroke="#999" stroke-width="3" x1="1493.0" x2="1493.0" y1="1621.0" y2="1613.0" /><ellipse cx="357.0" cy="517.0" fill="#009" rx="12" ry="24" stroke="#009" stroke-width="5" /><circle cx="677.0" cy="677.0" fill="#900" r="16" stroke="#900" stroke-width="5" /><circle cx="501.0" cy="517.0" fill="#090" r="16" stroke="#090" stroke-width="5" /><circle cx="549.0" cy="517.0" fill="#090" r="16" stroke="#090" stroke-width="5" /><circle cx="453.0" cy="517.0" fill="#090" r="16" stroke="#090" stroke-width="5" /><rect fill="#900" height="48" stroke="#900" stroke-width="5" transform="rotate(90,677.0,293.0)" width="32" x="661.0" y="269.0" /><rect fill="#900" height="48" stroke="#900" stroke-width="5" transform="rotate(90,741.0,293.0)" width="32" x="725.0" y="269.0" /><rect fill="#900" height="48" stroke="#900" stroke-width="5" transform="rotate(270,677.0,613.0)" width="32" x="661.0" y="589.0" /><rect fill="#900" height="48" stroke="#900" stroke-width="5" transform="rotate(0,549.0,677.0)" width="32" x="533.0" y="653.0" /><rect fill="#900" height="48" stroke="#900" stroke-width="5" transform="rotate(270,757.0,741.0)" width="32" x="741.0" y="717.0" /><rect fill="#900" height="48" stroke="#900" stroke-width="5" transform="rotate(90,933.0,229.0)" width="32" x="917.0" y="205.0" /><rect fill="#900" height="48" stroke="#900" stroke-width="5" transform="rotate(90,1125.0,405.0)" width="32" x="1109.0" y="381.0" /><rect fill="#900" height="48" stroke="#900" stroke-width="5" transform="rotate(180,997.0,501.0)" width="32" x="981.0" y="477.0" /><ellipse cx="997.0" cy="357.0" fill="#090" rx="12" ry="24" stroke="#090" stroke-width="5" /><rect fill="#900" height="48" stroke="#900" stroke-width="5" transform="rotate(180,933.0,709.0)" width="32" x="917.0" y="685.0" /><rect fill="#900" height="48" stroke="#900" stroke-width="5" transform="rotate(180,1221.0,261.0)" width="32" x="1205.0" y="237.0" /><rect fill="#900" height="48" stroke="#900" stroke-width="5" transform="rotate(180,1221.0,357.0)" width="32" x="1205.0" y="333.0" /><rect fill="#900" height="48" stroke="#900" stroke-width="5" transform="rotate(180,1221.0,453.0)" width="32" x="1205.0" y="429.0" /><rect fill="#900" height="48" stroke="#900" stroke-width="5" transform="rotate(180,1221.0,549.0)" width="32" x="1205.0" y="525.0" /><rect fill="#900" height="48" stroke="#900" stroke-width="5" transform="rotate(180,1221.0,645.0)" width="32" x="1205.0" y="621.0" /><rect fill="#900" height="48" stroke="#900" stroke-width="5" transform="rotate(0,357.0,229.0)" width="32" x="341.0" y="205.0" /><rect fill="#900" height="48" stroke="#900" stroke-width="5" transform="rotate(90,805.0,101.0)" width="32" x="789.0" y="77.0" /><rect fill="#900" height="48" stroke="#900" stroke-width="5" transform="rotate(90,453.0,101.0)" width="32" x="437.0" y="77.0" /><rect fill="#900" height="48" stroke="#900" stroke-width="5" transform="rotate(90,645.0,101.0)" width="32" x="629.0" y="77.0" /><rect fill="#900" height="48" stroke="#900" stroke-width="5" transform="rotate(90,1061.0,101.0)" width="32" x="1045.0" y="77.0" /><rect fill="#900" height="48" stroke="#900" stroke-width="5" transform="rotate(270,37.0,325.0)" width="32" x="21.0" y="301.0" /><rect fill="#900" height="48" stroke="#900" stroke-width="5" transform="rotate(0,37.0,805.0)" width="32" x="21.0" y="781.0" /><rect fill="#900" height="48" stroke="#900" stroke-width="5" transform="rotate(180,357.0,805.0)" width="32" x="341.0" y="781.0" /><rect fill="#900" height="48" stroke="#900" stroke-width="5" transform="rotate(0,485.0,805.0)" width="32" x="469.0" y="781.0" /><rect fill="#900" height="48" stroke="#900" stroke-width="5" transform="rotate(225,997.0,805.0)" width="32" x="981.0" y="781.0" /><rect fill="#900" height="48" stroke="#900" stroke-width="5" transform="rotate(270,1125.0,805.0)" width="32" x="1109.0" y="781.0" /><rect fill="#900" height="48" stroke="#900" stroke-width="5" transform="rotate(180,1349.0,709.0)" width="32" x="1333.0" y="685.0" /><rect fill="#900" height="48" stroke="#900" stroke-width="5" transform="rotate(180,1477.0,709.0)" width="32" x="1461.0" y="685.0" /><rect fill="#900" height="48" stroke="#900" stroke-width="5" transform="rotate(180,1349.0,613.0)" width="32" x="1333.0" y="589.0" /><rect fill="#900" height="48" stroke="#900" stroke-width="5" transform="rotate(180,1477.0,453.0)" width="32" x="1461.0" y="429.0" /><rect fill="#900" height="48" stroke="#900" stroke-width="5" transform="rotate(180,1349.0,517.0)" width="32" x="1333.0" y="493.0" /><rect fill="#900" height="48" stroke="#900" stroke-width="5" transform="rotate(180,1477.0,357.0)" width="32" x="1461.0" y="333.0" /><rect fill="#900" height="48" stroke="#900" stroke-width="5" transform="rotate(180,1349.0,421.0)" width="32" x="1333.0" y="397.0" /><rect fill="#900" height="48" stroke="#900" stroke-width="5" transform="rotate(180,1477.0,165.0)" width="32" x="1461.0" y="141.0" /><rect fill="#900" height="48" stroke="#900" stroke-width="5" transform="rotate(180,1349.0,325.0)" width="32" x="1333.0" y="301.0" /><rect fill="#900" height="48" stroke="#900" stroke-width="5" transform="rotate(180,1349.0,197.0)" width="32" x="1333.0" y="173.0" /><circle cx="37.0" cy="101.0" fill="#090" r="16" stroke="#090" stroke-width="5" /><circle cx="1253.0" cy="101.0" fill="#090" r="16" stroke="#090" stroke-width="5" /><circle cx="1061.0" cy="613.0" fill="#090" r="16" stroke="#090" stroke-width="5" /><circle cx="165.0" cy="677.0" fill="#090" r="16" stroke="#090" stroke-width="5" /><circle cx="229.0" cy="677.0" fill="#090" r="16" stroke="#090" stroke-width="5" /><rect fill="#900" height="48" stroke="#900" stroke-width="5" transform="rotate(270,837.0,933.0)" width="32" x="821.0" y="909.0" /><rect fill="#900" height="48" stroke="#900" stroke-width="5" transform="rotate(270,901.0,933.0)" width="32" x="885.0" y="909.0" /><rect fill="#900" height="48" stroke="#900" stroke-width="5" transform="rotate(270,965.0,933.0)" width="32" x="949.0" y="909.0" /><rect fill="#900" height="48" stroke="#900" stroke-width="5" transform="rotate(270,837.0,997.0)" width="32" x="821.0" y="973.0" /><rect fill="#900" height="48" stroke="#900" stroke-width="5" transform="rotate(270,901.0,997.0)" width="32" x="885.0" y="973.0" /><rect fill="#900" height="48" stroke="#900" stroke-width="5" transform="rotate(270,965.0,997.0)" width="32" x="949.0" y="973.0" /><rect fill="#900" height="48" stroke="#900" stroke-width="5" transform="rotate(270,453.0,965.0)" width="32" x="437.0" y="941.0" /><rect fill="#900" height="48" stroke="#900" stroke-width="5" transform="rotate(270,357.0,965.0)" width="32" x="341.0" y="941.0" /><rect fill="#900" height="48" stroke="#900" stroke-width="5" transform="rotate(270,293.0,965.0)" width="32" x="277.0" y="941.0" /><rect fill="#900" height="48" stroke="#900" stroke-width="5" transform="rotate(270,133.0,965.0)" width="32" x="117.0" y="941.0" /><rect fill="#900" height="48" stroke="#900" stroke-width="5" transform="rotate(270,69.0,965.0)" width="32" x="53.0" y="941.0" /><circle cx="37.0" cy="997.0" fill="#009" r="16" stroke="#009" stroke-width="5" /><circle cx="997.0" cy="997.0" fill="#090" r="16" stroke="#090" stroke-width="5" /><circle cx="1509.0" cy="101.0" fill="#090" r="16" stroke="#090" stroke-width="5" /><rect fill="#900" height="48" stroke="#900" stroke-width="5" transform="rotate(270,389.0,613.0)" width="32" x="373.0" y="589.0" /><rect fill="#900" height="48" stroke="#900" stroke-width="5" transform="rotate(270,741.0,677.0)" width="32" x="725.0" y="653.0" /><rect fill="#900" height="48" stroke="#900" stroke-width="5" transform="rotate(0,549.0,357.0)" width="32" x="533.0" y="333.0" /><rect fill="#900" height="48" stroke="#900" stroke-width="5" transform="rotate(90,741.0,933.0)" width="32" x="725.0" y="909.0" /><rect fill="#900" height="48" stroke="#900" stroke-width="5" transform="rotate(90,677.0,933.0)" width="32" x="661.0" y="909.0" /><rect fill="#900" height="48" stroke="#900" stroke-width="5" transform="rotate(90,613.0,933.0)" width="32" x="597.0" y="909.0" /><rect fill="#900" height="48" stroke="#900" stroke-width="5" transform="rotate(90,549.0,933.0)" width="32" x="533.0" y="909.0" /><rect fill="#900" height="48" stroke="#900" stroke-width="5" transform="rotate(180,1669.0,229.0)" width="32" x="1653.0" y="205.0" /><rect fill="#900" height="48" stroke="#900" stroke-width="5" transform="rotate(180,1669.0,357.0)" width="32" x="1653.0" y="333.0" /><rect fill="#900" height="48" stroke="#900" stroke-width="5" transform="rotate(180,1669.0,453.0)" width="32" x="1653.0" y="429.0" /><rect fill="#900" height="48" stroke="#900" stroke-width="5" transform="rotate(180,1669.0,645.0)" width="32" x="1653.0" y="621.0" /><rect fill="#900" height="48" stroke="#900" stroke-width="5" transform="rotate(180,1669.0,773.0)" width="32" x="1653.0" y="749.0" /><rect fill="#900" height="48" stroke="#900" stroke-width="5" transform="rotate(270,1413.0,901.0)" width="32" x="1397.0" y="877.0" /><circle cx="1381.0" cy="805.0" fill="#090" r="16" stroke="#090" stroke-width="5" /><circle cx="1573.0" cy="805.0" fill="#090" r="16" stroke="#090" stroke-width="5" /><circle cx="1573.0" cy="165.0" fill="#090" r="16" stroke="#090" stroke-width="5" /><rect fill="#900" height="48" stroke="#900" stroke-width="5" transform="rotate(90,1029.0,37.0)" width="32" x="1013.0" y="13.0" /><rect fill="#900" height="48" stroke="#900" stroke-width="5" transform="rotate(90,933.0,37.0)" width="32" x="917.0" y="13.0" /><rect fill="#900" height="48" stroke="#900" stroke-width="5" transform="rotate(90,837.0,37.0)" width="32" x="821.0" y="13.0" /><rect fill="#900" height="48" stroke="#900" stroke-width="5" transform="rotate(90,741.0,37.0)" width="32" x="725.0" y="13.0" /><rect fill="#900" height="48" stroke="#900" stroke-width="5" transform="rotate(90,613.0,37.0)" width="32" x="597.0" y="13.0" /><rect fill="#900" height="48" stroke="#900" stroke-width="5" transform="rotate(90,517.0,37.0)" width="32" x="501.0" y="13.0" /><circle cx="1701.0" cy="933.0" fill="#900" r="16" stroke="#900" stroke-width="5" /><circle cx="1381.0" cy="933.0" fill="#009" r="16" stroke="#009" stroke-width="5" /><circle cx="1637.0" cy="165.0" fill="#009" r="16" stroke="#009" stroke-width="5" /><circle cx="1701.0" cy="517.0" fill="#090" r="16" stroke="#090" stroke-width="5" /><circle cx="1701.0" cy="581.0" fill="#090" r="16" stroke="#090" stroke-width="5" /><circle cx="1541.0" cy="997.0" fill="#009" r="16" stroke="#009" stroke-width="5" /><rect fill="#900" height="48" stroke="#900" stroke-width="5" transform="rotate(225,2309.0,965.0)" width="32" x="2293.0" y="941.0" /><rect fill="#900" height="48" stroke="#900" stroke-width="5" transform="rotate(225,2053.0,965.0)" width="32" x="2037.0" y="941.0" /><rect fill="#900" height="48" stroke="#900" stroke-width="5" transform="rotate(225,1957.0,965.0)" width="32" x="1941.0" y="941.0" /><rect fill="#900" height="48" stroke="#900" stroke-width="5" transform="rotate(225,1989.0,805.0)" width="32" x="1973.0" y="781.0" /><rect fill="#900" height="48" stroke="#900" stroke-width="5" transform="rotate(225,2053.0,645.0)" width="32" x="2037.0" y="621.0" /><rect fill="#900" height="48" stroke="#900" stroke-width="5" transform="rotate(225,2085.0,805.0)" width="32" x="2069.0" y="781.0" /><rect fill="#900" height="48" stroke="#900" stroke-width="5" transform="rotate(225,2181.0,965.0)" width="32" x="2165.0" y="941.0" /><rect fill="#900" height="48" stroke="#900" stroke-width="5" transform="rotate(180,1989.0,325.0)" width="32" x="1973.0" y="301.0" /><rect fill="#900" height="48" stroke="#900" stroke-width="5" transform="rotate(180,1989.0,453.0)" width="32" x="1973.0" y="429.0" /><rect fill="#900" height="48" stroke="#900" stroke-width="5" transform="rotate(180,1893.0,453.0)" width="32" x="1877.0" y="429.0" /><rect fill="#900" height="48" stroke="#900" stroke-width="5" transform="rotate(180,1893.0,325.0)" width="32" x="1877.0" y="301.0" /><rect fill="#900" height="48" stroke="#900" stroke-width="5" transform="rotate(270,1829.0,997.0)" width="32" x="1813.0" y="973.0" /><circle cx="2085.0" cy="293.0" fill="#009" r="16" stroke="#009" stroke-width="5" /><circle cx="1829.0" cy="869.0" fill="#090" r="16" stroke="#090" stroke-width="5" /><circle cx="1829.0" cy="997.0" fill="#090" r="16" stroke="#090" stroke-width="5" /><circle cx="1829.0" cy="933.0" fill="#090" r="16" stroke="#090" stroke-width="5" /><circle cx="1829.0" cy="805.0" fill="#090" r="16" stroke="#090" stroke-width="5" /><circle cx="1829.0" cy="741.0" fill="#090" r="16" stroke="#090" stroke-width="5" /><circle cx="1829.0" cy="677.0" fill="#090" r="16" stroke="#090" stroke-width="5" /><circle cx="1829.0" cy="613.0" fill="#090" r="16" stroke="#090" stroke-width="5" /><circle cx="1829.0" cy="549.0" fill="#090" r="16" stroke="#090" stroke-width="5" /><circle cx="1829.0" cy="485.0" fill="#090" r="16" stroke="#090" stroke-width="5" /><circle cx="1829.0" cy="421.0" fill="#090" r="16" stroke="#090" stroke-width="5" /><circle cx="1829.0" cy="357.0" fill="#090" r="16" stroke="#090" stroke-width="5" /><circle cx="1829.0" cy="293.0" fill="#090" r="16" stroke="#090" stroke-width="5" /><circle cx="2341.0" cy="741.0" fill="#090" r="16" stroke="#090" stroke-width="5" /><circle cx="2341.0" cy="805.0" fill="#090" r="16" stroke="#090" stroke-width="5" /><circle cx="1957.0" cy="421.0" fill="#900" r="16" stroke="#900" stroke-width="5" /><circle cx="2149.0" cy="1061.0" fill="#900" r="16" stroke="#900" stroke-width="5" /><circle cx="2085.0" cy="1061.0" fill="#090" r="16" stroke="#090" stroke-width="5" /><circle cx="2213.0" cy="1061.0" fill="#090" r="16" stroke="#090" stroke-width="5" /><ellipse cx="389.0" cy="645.0" fill="#090" rx="12" ry="24" stroke="#090" stroke-width="5" /><rect fill="#900" height="48" stroke="#900" stroke-width="5" transform="rotate(270,1125.0,1061.0)" width="32" x="1109.0" y="1037.0" /><rect fill="#900" height="48" stroke="#900" stroke-width="5" transform="rotate(90,1125.0,933.0)" width="32" x="1109.0" y="909.0" /><circle cx="349.0" cy="477.0" fill="#090" r="16" stroke="#090" stroke-width="5" /><circle cx="349.0" cy="558.0" fill="#090" r="16" stroke="#090" stroke-width="5" /><rect fill="#900" height="48" stroke="#900" stroke-width="5" transform="rotate(90,1701.0,101.0)" width="32" x="1685.0" y="77.0" /><circle cx="1125.0" cy="933.0" fill="#090" r="16" stroke="#090" stroke-width="5" /><rect fill="#900" height="48" stroke="#900" stroke-width="5" transform="rotate(270,1253.0,1253.0)" width="32" x="1237.0" y="1229.0" /><rect fill="#900" height="48" stroke="#900" stroke-width="5" transform="rotate(270,1317.0,1253.0)" width="32" x="1301.0" y="1229.0" /><rect fill="#900" height="48" stroke="#900" stroke-width="5" transform="rotate(270,1381.0,1253.0)" width="32" x="1365.0" y="1229.0" /><rect fill="#900" height="48" stroke="#900" stroke-width="5" transform="rotate(270,1445.0,1253.0)" width="32" x="1429.0" y="1229.0" /><rect fill="#900" height="48" stroke="#900" stroke-width="5" transform="rotate(270,1509.0,1253.0)" width="32" x="1493.0" y="1229.0" /><rect fill="#900" height="48" stroke="#900" stroke-width="5" transform="rotate(270,1573.0,1253.0)" width="32" x="1557.0" y="1229.0" /><rect fill="#900" height="48" stroke="#900" stroke-width="5" transform="rotate(180,1765.0,1189.0)" width="32" x="1749.0" y="1165.0" /><rect fill="#900" height="48" stroke="#900" stroke-width="5" transform="rotate(180,1765.0,1125.0)" width="32" x="1749.0" y="1101.0" /><rect fill="#900" height="48" stroke="#900" stroke-width="5" transform="rotate(270,1637.0,1253.0)" width="32" x="1621.0" y="1229.0" /><rect fill="#900" height="48" stroke="#900" stroke-width="5" transform="rotate(270,1701.0,1253.0)" width="32" x="1685.0" y="1229.0" /><circle cx="1125.0" cy="1253.0" fill="#090" r="16" stroke="#090" stroke-width="5" /><circle cx="1125.0" cy="1189.0" fill="#090" r="16" stroke="#090" stroke-width="5" /><circle cx="1125.0" cy="1125.0" fill="#090" r="16" stroke="#090" stroke-width="5" /><circle cx="1125.0" cy="1061.0" fill="#090" r="16" stroke="#090" stroke-width="5" /><circle cx="1765.0" cy="1253.0" fill="#009" r="16" stroke="#009" stroke-width="5" /><circle cx="1445.0" cy="1445.0" fill="#009" r="16" stroke="#009" stroke-width="5" /><circle cx="1573.0" cy="1445.0" fill="#009" r="16" stroke="#009" stroke-width="5" /></svg>