<?xml version="1.0" encoding="utf-8" ?>
<svg baseProfile="tiny" height="848" version="1.2" viewBox="0 0 2522 2090" width="1024" xmlns="http://www.w3.org/2000/svg" xmlns:ev="http://www.w3.org/2001/xml-events" xmlns:xlink="http://www.w3.org/1999/xlink"><defs /><line stroke="#666" stroke-width="20" x1="1765.0" x2="1765.0" y1="1477.0" y2="1381.0" /><line stroke="#333" stroke-width="10" x1="1573.0" x2="1549.0" y1="1285.0" y2="1285.0" /><line stroke="#999" stroke-width="3" x1="1765.0" x2="1573.0" y1="1157.0" y2="1157.0" /><line stroke="#333" stroke-width="10" x1="645.0" x2="669.0" y1="1477.0" y2="1477.0" /><line stroke="#333" stroke-width="10" x1="1573.0" x2="1573.0" y1="1157.0" y2="1261.0" /><line stroke="#999" stroke-width="3" x1="645.0" x2="645.0" y1="1477.0" y2="1285.0" /><line stroke="#333" stroke-width="10" x1="613.0" x2="645.0" y1="1477.0" y2="1477.0" /><line stroke="#333" stroke-width="10" x1="613.0" x2="613.0" y1="1605.0" y2="1541.0" /><line stroke="#333" stroke-width="10" x1="229.0" x2="293.0" y1="1605.0" y2="1605.0" /><line stroke="#999" stroke-width="3" x1="37.0" x2="229.0" y1="1477.0" y2="1477.0" /><line stroke="#333" stroke-width="10" x1="37.0" x2="37.0" y1="1285.0" y2="1317.0" /><line stroke="#999" stroke-width="3" x1="229.0" x2="229.0" y1="1157.0" y2="1285.0" /><line stroke="#333" stroke-width="10" x1="613.0" x2="549.0" y1="1157.0" y2="1157.0" /><line stroke="#333" stroke-width="10" x1="613.0" x2="613.0" y1="1285.0" y2="1253.0" /><line stroke="#333" stroke-width="10" x1="645.0" x2="613.0" y1="1285.0" y2="1285.0" /><line stroke="#999" stroke-width="3" x1="613.0" x2="613.0" y1="1477.0" y2="1285.0" /><line stroke="#333" stroke-width="10" x1="613.0" x2="613.0" y1="1221.0" y2="1157.0" /><line stroke="#999" stroke-width="3" x1="613.0" x2="613.0" y1="1253.0" y2="1221.0" /><line stroke="#999" stroke-width="3" x1="613.0" x2="613.0" y1="1541.0" y2="1509.0" /><line stroke="#333" stroke-width="10" x1="613.0" x2="613.0" y1="1509.0" y2="1477.0" /><line stroke="#333" stroke-width="10" x1="645.0" x2="613.0" y1="1221.0" y2="1221.0" /><line stroke="#333" stroke-width="10" x1="645.0" x2="645.0" y1="1253.0" y2="1221.0" /><line stroke="#333" stroke-width="10" x1="613.0" x2="645.0" y1="1253.0" y2="1253.0" /><line stroke="#333" stroke-width="10" x1="645.0" x2="613.0" y1="1509.0" y2="1509.0" /><line stroke="#333" stroke-width="10" x1="645.0" x2="645.0" y1="1541.0" y2="1509.0" /><line stroke="#333" stroke-width="10" x1="613.0" x2="645.0" y1="1541.0" y2="1541.0" /><line stroke="#999" stroke-width="3" x1="1253.0" x2="1317.0" y1="1477.0" y2="1477.0" /><line stroke="#333" stroke-width="10" x1="1317.0" x2="1445.0" y1="1477.0" y2="1477.0" /><line stroke="#333" stroke-width="10" x1="1317.0" x2="1317.0" y1="1493.0" y2="1477.0" /><line stroke="#333" stroke-width="10" x1="1317.0" x2="1317.0" y1="1501.0" y2="1493.0" /><line stroke="#333" stroke-width="10" x1="1317.0" x2="1317.0" y1="1509.0" y2="1501.0" /><line stroke="#333" stroke-width="10" x1="1653.0" x2="1653.0" y1="1525.0" y2="1509.0" /><line stroke="#333" stroke-width="10" x1="1653.0" x2="1669.0" y1="1973.0" y2="1973.0" /><line stroke="#333" stroke-width="10" x1="949.0" x2="949.0" y1="1973.0" y2="1989.0" /><line stroke="#333" stroke-width="10" x1="949.0" x2="933.0" y1="1525.0" y2="1525.0" /><line stroke="#333" stroke-width="10" x1="1253.0" x2="1173.0" y1="1509.0" y2="1509.0" /><line stroke="#333" stroke-width="10" x1="1253.0" x2="1253.0" y1="1501.0" y2="1509.0" /><line stroke="#333" stroke-width="10" x1="1253.0" x2="1253.0" y1="1493.0" y2="1501.0" /><line stroke="#333" stroke-width="10" x1="1253.0" x2="1253.0" y1="1477.0" y2="1493.0" /><line stroke="#666" stroke-width="20" x1="1253.0" x2="1317.0" y1="1493.0" y2="1493.0" /><line stroke="#666" stroke-width="20" x1="1317.0" x2="1253.0" y1="1501.0" y2="1501.0" /><line stroke="#999" stroke-width="3" x1="1317.0" x2="1253.0" y1="1509.0" y2="1509.0" /><line stroke="#333" stroke-width="10" x1="1061.0" x2="1509.0" y1="1989.0" y2="1989.0" /><line stroke="#333" stroke-width="10" x1="933.0" x2="933.0" y1="1861.0" y2="1909.0" /><line stroke="#999" stroke-width="3" x1="933.0" x2="1061.0" y1="1861.0" y2="1797.0" /><line stroke="#999" stroke-width="3" x1="1125.0" x2="1061.0" y1="1861.0" y2="1989.0" /><line stroke="#999" stroke-width="3" x1="1061.0" x2="1125.0" y1="1797.0" y2="1861.0" /><line stroke="#333" stroke-width="10" x1="933.0" x2="949.0" y1="1973.0" y2="1973.0" /><line stroke="#333" stroke-width="10" x1="949.0" x2="997.0" y1="1989.0" y2="1989.0" /><line stroke="#333" stroke-width="10" x1="933.0" x2="933.0" y1="1525.0" y2="1669.0" /><line stroke="#333" stroke-width="10" x1="1653.0" x2="1653.0" y1="1989.0" y2="1973.0" /><line stroke="#999" stroke-width="3" x1="1669.0" x2="1669.0" y1="1973.0" y2="1733.0" /><line stroke="#333" stroke-width="10" x1="1669.0" x2="1653.0" y1="1525.0" y2="1525.0" /><line stroke="#333" stroke-width="10" x1="1653.0" x2="1317.0" y1="1509.0" y2="1509.0" /><line stroke="#333" stroke-width="10" x1="949.0" x2="949.0" y1="1509.0" y2="1525.0" /><line stroke="#00d" stroke-width="20" x1="1493.0" x2="1589.0" y1="1781.0" y2="1781.0" /><line stroke="#00d" stroke-width="20" x1="1589.0" x2="1589.0" y1="1781.0" y2="1877.0" /><line stroke="#00d" stroke-width="20" x1="1589.0" x2="1493.0" y1="1877.0" y2="1877.0" /><line stroke="#00d" stroke-width="20" x1="1493.0" x2="1493.0" y1="1877.0" y2="1781.0" /><line stroke="#999" stroke-width="3" x1="1509.0" x2="1573.0" y1="1797.0" y2="1797.0" /><line stroke="#999" stroke-width="3" x1="1573.0" x2="1573.0" y1="1797.0" y2="1861.0" /><line stroke="#999" stroke-width="3" x1="1573.0" x2="1509.0" y1="1861.0" y2="1861.0" /><line stroke="#999" stroke-width="3" x1="1509.0" x2="1509.0" y1="1861.0" y2="1797.0" /><line stroke="#333" stroke-width="10" x1="1573.0" x2="1573.0" y1="1093.0" y2="1157.0" /><line stroke="#333" stroke-width="10" x1="1445.0" x2="1445.0" y1="1157.0" y2="1093.0" /><line stroke="#333" stroke-width="10" x1="1125.0" x2="1253.0" y1="645.0" y2="1093.0" /><line stroke="#333" stroke-width="10" x1="1061.0" x2="1061.0" y1="453.0" y2="517.0" /><line stroke="#333" stroke-width="10" x1="2213.0" x2="2213.0" y1="901.0" y2="837.0" /><line stroke="#333" stroke-width="10" x1="1893.0" x2="2053.0" y1="1157.0" y2="1029.0" /><line stroke="#333" stroke-width="10" x1="1765.0" x2="1893.0" y1="1093.0" y2="1093.0" /><line stroke="#333" stroke-width="10" x1="1765.0" x2="1765.0" y1="1157.0" y2="1093.0" /><line stroke="#999" stroke-width="3" x1="1573.0" x2="1765.0" y1="1093.0" y2="1093.0" /><line stroke="#999" stroke-width="3" x1="1893.0" x2="1925.0" y1="1157.0" y2="1061.0" /><line stroke="#999" stroke-width="3" x1="1061.0" x2="1061.0" y1="197.0" y2="261.0" /><line stroke="#333" stroke-width="10" x1="1125.0" x2="997.0" y1="5.0" y2="133.0" /><line stroke="#333" stroke-width="10" x1="2149.0" x2="1125.0" y1="69.0" y2="5.0" /><line stroke="#333" stroke-width="10" x1="2213.0" x2="2181.0" y1="773.0" y2="421.0" /><line stroke="#999" stroke-width="3" x1="2213.0" x2="2213.0" y1="837.0" y2="773.0" /><line stroke="#999" stroke-width="3" x1="1925.0" x2="1413.0" y1="1061.0" y2="1061.0" /><line stroke="#333" stroke-width="10" x1="1893.0" x2="1893.0" y1="1093.0" y2="1157.0" /><line stroke="#333" stroke-width="10" x1="1445.0" x2="1573.0" y1="1093.0" y2="1093.0" /><line stroke="#333" stroke-width="10" x1="1253.0" x2="1445.0" y1="1093.0" y2="1157.0" /><line stroke="#999" stroke-width="3" x1="1413.0" x2="1445.0" y1="1061.0" y2="1157.0" /><line stroke="#333" stroke-width="10" x1="869.0" x2="869.0" y1="261.0" y2="389.0" /><line stroke="#333" stroke-width="10" x1="1061.0" x2="1013.0" y1="197.0" y2="213.0" /><line stroke="#333" stroke-width="10" x1="869.0" x2="1013.0" y1="389.0" y2="437.0" /><line stroke="#333" stroke-width="10" x1="1013.0" x2="869.0" y1="213.0" y2="261.0" /><line stroke="#333" stroke-width="10" x1="1013.0" x2="1061.0" y1="437.0" y2="453.0" /><line stroke="#999" stroke-width="3" x1="1061.0" x2="1061.0" y1="389.0" y2="453.0" /><line stroke="#999" stroke-width="3" x1="1061.0" x2="1061.0" y1="261.0" y2="389.0" /><line stroke="#999" stroke-width="3" x1="1061.0" x2="1013.0" y1="389.0" y2="373.0" /><line stroke="#999" stroke-width="3" x1="1013.0" x2="1013.0" y1="213.0" y2="277.0" /><line stroke="#999" stroke-width="3" x1="1013.0" x2="1061.0" y1="277.0" y2="261.0" /><line stroke="#999" stroke-width="3" x1="1013.0" x2="1013.0" y1="373.0" y2="437.0" /><line stroke="#333" stroke-width="10" x1="1029.0" x2="1037.0" y1="357.0" y2="357.0" /><line stroke="#333" stroke-width="10" x1="1045.0" x2="1045.0" y1="357.0" y2="373.0" /><line stroke="#333" stroke-width="10" x1="1045.0" x2="1029.0" y1="373.0" y2="373.0" /><line stroke="#333" stroke-width="10" x1="1029.0" x2="1029.0" y1="373.0" y2="357.0" /><line stroke="#333" stroke-width="10" x1="1029.0" x2="1029.0" y1="293.0" y2="277.0" /><line stroke="#333" stroke-width="10" x1="1045.0" x2="1037.0" y1="293.0" y2="293.0" /><line stroke="#333" stroke-width="10" x1="1045.0" x2="1045.0" y1="277.0" y2="293.0" /><line stroke="#333" stroke-width="10" x1="1029.0" x2="1045.0" y1="277.0" y2="277.0" /><line stroke="#333" stroke-width="10" x1="1037.0" x2="1029.0" y1="293.0" y2="293.0" /><line stroke="#333" stroke-width="10" x1="1037.0" x2="1045.0" y1="357.0" y2="357.0" /><line stroke="#999" stroke-width="3" x1="1037.0" x2="1037.0" y1="293.0" y2="357.0" /><line stroke="#999" stroke-width="3" x1="2181.0" x2="2149.0" y1="421.0" y2="69.0" /><line stroke="#333" stroke-width="10" x1="2165.0" x2="2149.0" y1="69.0" y2="69.0" /><line stroke="#333" stroke-width="10" x1="2277.0" x2="2189.0" y1="69.0" y2="69.0" /><line stroke="#333" stroke-width="10" x1="2277.0" x2="2277.0" y1="421.0" y2="69.0" /><line stroke="#333" stroke-width="10" x1="2197.0" x2="2221.0" y1="421.0" y2="421.0" /><line stroke="#333" stroke-width="10" x1="2181.0" x2="2197.0" y1="421.0" y2="421.0" /><line stroke="#999" stroke-width="3" x1="2165.0" x2="2197.0" y1="69.0" y2="421.0" /><line stroke="#333" stroke-width="10" x1="1509.0" x2="1509.0" y1="1989.0" y2="1973.0" /><line stroke="#333" stroke-width="10" x1="1765.0" x2="1669.0" y1="1509.0" y2="1509.0" /><line stroke="#666" stroke-width="20" x1="1765.0" x2="1765.0" y1="2085.0" y2="2021.0" /><line stroke="#333" stroke-width="10" x1="1509.0" x2="1765.0" y1="2085.0" y2="2085.0" /><line stroke="#333" stroke-width="10" x1="1509.0" x2="1509.0" y1="1989.0" y2="2085.0" /><line stroke="#333" stroke-width="10" x1="1669.0" x2="1653.0" y1="1989.0" y2="1989.0" /><line stroke="#333" stroke-width="10" x1="1669.0" x2="1669.0" y1="1973.0" y2="1989.0" /><line stroke="#333" stroke-width="10" x1="1669.0" x2="1669.0" y1="1509.0" y2="1525.0" /><line stroke="#333" stroke-width="10" x1="2237.0" x2="2213.0" y1="773.0" y2="773.0" /><line stroke="#333" stroke-width="10" x1="2253.0" x2="2237.0" y1="773.0" y2="773.0" /><line stroke="#333" stroke-width="10" x1="2277.0" x2="2253.0" y1="773.0" y2="773.0" /><line stroke="#999" stroke-width="3" x1="2421.0" x2="2421.0" y1="437.0" y2="501.0" /><line stroke="#333" stroke-width="10" x1="2485.0" x2="2477.0" y1="437.0" y2="437.0" /><line stroke="#333" stroke-width="10" x1="2277.0" x2="2357.0" y1="837.0" y2="837.0" /><line stroke="#333" stroke-width="10" x1="2253.0" x2="2277.0" y1="837.0" y2="837.0" /><line stroke="#333" stroke-width="10" x1="2237.0" x2="2253.0" y1="837.0" y2="837.0" /><line stroke="#333" stroke-width="10" x1="2213.0" x2="2237.0" y1="837.0" y2="837.0" /><line stroke="#666" stroke-width="20" x1="2237.0" x2="2237.0" y1="837.0" y2="773.0" /><line stroke="#666" stroke-width="20" x1="2253.0" x2="2253.0" y1="773.0" y2="837.0" /><line stroke="#999" stroke-width="3" x1="2277.0" x2="2277.0" y1="773.0" y2="837.0" /><line stroke="#333" stroke-width="10" x1="2485.0" x2="2485.0" y1="709.0" y2="661.0" /><line stroke="#333" stroke-width="10" x1="2421.0" x2="2405.0" y1="693.0" y2="725.0" /><line stroke="#333" stroke-width="10" x1="2373.0" x2="2341.0" y1="757.0" y2="773.0" /><line stroke="#333" stroke-width="10" x1="2405.0" x2="2445.0" y1="821.0" y2="797.0" /><line stroke="#333" stroke-width="10" x1="2485.0" x2="2485.0" y1="613.0" y2="565.0" /><line stroke="#333" stroke-width="10" x1="2421.0" x2="2421.0" y1="613.0" y2="661.0" /><line stroke="#333" stroke-width="10" x1="2421.0" x2="2421.0" y1="661.0" y2="693.0" /><line stroke="#333" stroke-width="10" x1="2421.0" x2="2421.0" y1="565.0" y2="613.0" /><line stroke="#333" stroke-width="10" x1="2405.0" x2="2373.0" y1="725.0" y2="757.0" /><line stroke="#333" stroke-width="10" x1="2341.0" x2="2277.0" y1="773.0" y2="773.0" /><line stroke="#333" stroke-width="10" x1="2357.0" x2="2405.0" y1="837.0" y2="821.0" /><line stroke="#333" stroke-width="10" x1="2469.0" x2="2485.0" y1="757.0" y2="709.0" /><line stroke="#333" stroke-width="10" x1="2485.0" x2="2485.0" y1="661.0" y2="613.0" /><line stroke="#333" stroke-width="10" x1="2485.0" x2="2485.0" y1="565.0" y2="533.0" /><line stroke="#999" stroke-width="3" x1="2485.0" x2="2421.0" y1="565.0" y2="565.0" /><line stroke="#999" stroke-width="3" x1="2485.0" x2="2421.0" y1="613.0" y2="613.0" /><line stroke="#999" stroke-width="3" x1="2485.0" x2="2421.0" y1="661.0" y2="661.0" /><line stroke="#999" stroke-width="3" x1="2485.0" x2="2421.0" y1="709.0" y2="693.0" /><line stroke="#999" stroke-width="3" x1="2469.0" x2="2405.0" y1="757.0" y2="725.0" /><line stroke="#999" stroke-width="3" x1="2405.0" x2="2373.0" y1="821.0" y2="757.0" /><line stroke="#999" stroke-width="3" x1="2357.0" x2="2341.0" y1="837.0" y2="773.0" /><line stroke="#333" stroke-width="10" x1="2445.0" x2="2469.0" y1="797.0" y2="757.0" /><line stroke="#999" stroke-width="3" x1="2485.0" x2="2485.0" y1="501.0" y2="437.0" /><line stroke="#333" stroke-width="10" x1="2421.0" x2="2421.0" y1="501.0" y2="533.0" /><line stroke="#333" stroke-width="10" x1="2389.0" x2="2421.0" y1="485.0" y2="501.0" /><line stroke="#333" stroke-width="10" x1="2389.0" x2="2389.0" y1="453.0" y2="485.0" /><line stroke="#333" stroke-width="10" x1="2421.0" x2="2389.0" y1="437.0" y2="453.0" /><line stroke="#333" stroke-width="10" x1="2517.0" x2="2485.0" y1="453.0" y2="437.0" /><line stroke="#333" stroke-width="10" x1="2517.0" x2="2517.0" y1="485.0" y2="453.0" /><line stroke="#333" stroke-width="10" x1="2485.0" x2="2517.0" y1="501.0" y2="485.0" /><line stroke="#333" stroke-width="10" x1="2421.0" x2="2421.0" y1="533.0" y2="565.0" /><line stroke="#333" stroke-width="10" x1="2485.0" x2="2485.0" y1="533.0" y2="501.0" /><line stroke="#999" stroke-width="3" x1="2485.0" x2="2453.0" y1="501.0" y2="517.0" /><line stroke="#999" stroke-width="3" x1="2453.0" x2="2421.0" y1="517.0" y2="533.0" /><line stroke="#999" stroke-width="3" x1="2453.0" x2="2421.0" y1="517.0" y2="501.0" /><line stroke="#999" stroke-width="3" x1="2485.0" x2="2453.0" y1="533.0" y2="517.0" /><line stroke="#999" stroke-width="3" x1="2053.0" x2="2125.0" y1="1029.0" y2="973.0" /><line stroke="#333" stroke-width="10" x1="2125.0" x2="2213.0" y1="973.0" y2="901.0" /><line stroke="#333" stroke-width="10" x1="2181.0" x2="1989.0" y1="1157.0" y2="1349.0" /><line stroke="#333" stroke-width="10" x1="2053.0" x2="2069.0" y1="1029.0" y2="1045.0" /><line stroke="#333" stroke-width="10" x1="1989.0" x2="2229.0" y1="1349.0" y2="1589.0" /><line stroke="#333" stroke-width="10" x1="2117.0" x2="2309.0" y1="1349.0" y2="1157.0" /><line stroke="#999" stroke-width="3" x1="2341.0" x2="2245.0" y1="1573.0" y2="1605.0" /><line stroke="#333" stroke-width="10" x1="2341.0" x2="2325.0" y1="1573.0" y2="1557.0" /><line stroke="#333" stroke-width="10" x1="2373.0" x2="2341.0" y1="1573.0" y2="1573.0" /><line stroke="#333" stroke-width="10" x1="2437.0" x2="2437.0" y1="1893.0" y2="1637.0" /><line stroke="#333" stroke-width="10" x1="1797.0" x2="1829.0" y1="1669.0" y2="1861.0" /><line stroke="#333" stroke-width="10" x1="1797.0" x2="1797.0" y1="1189.0" y2="1221.0" /><line stroke="#333" stroke-width="10" x1="2245.0" x2="2181.0" y1="1605.0" y2="1605.0" /><line stroke="#333" stroke-width="10" x1="2261.0" x2="2141.0" y1="1109.0" y2="989.0" /><line stroke="#333" stroke-width="10" x1="2405.0" x2="2341.0" y1="1029.0" y2="1029.0" /><line stroke="#333" stroke-width="10" x1="2405.0" x2="2405.0" y1="1093.0" y2="1029.0" /><line stroke="#333" stroke-width="10" x1="2341.0" x2="2261.0" y1="1029.0" y2="1109.0" /><line stroke="#00d" stroke-width="20" x1="2405.0" x2="2341.0" y1="1093.0" y2="1093.0" /><line stroke="#00d" stroke-width="20" x1="2341.0" x2="2341.0" y1="1093.0" y2="1029.0" /><line stroke="#333" stroke-width="10" x1="2309.0" x2="2405.0" y1="1157.0" y2="1093.0" /><line stroke="#999" stroke-width="3" x1="2309.0" x2="2261.0" y1="1157.0" y2="1109.0" /><line stroke="#0d0" stroke-width="20" x1="2477.0" x2="2429.0" y1="437.0" y2="437.0" /><line stroke="#333" stroke-width="10" x1="2429.0" x2="2421.0" y1="437.0" y2="437.0" /><line stroke="#333" stroke-width="10" x1="2181.0" x2="1957.0" y1="1605.0" y2="1381.0" /><line stroke="#333" stroke-width="10" x1="1957.0" x2="1917.0" y1="1189.0" y2="1189.0" /><line stroke="#333" stroke-width="10" x1="1765.0" x2="1765.0" y1="1381.0" y2="1157.0" /><line stroke="#666" stroke-width="20" x1="1797.0" x2="1797.0" y1="1381.0" y2="1477.0" /><line stroke="#333" stroke-width="10" x1="1797.0" x2="1797.0" y1="1477.0" y2="1669.0" /><line stroke="#333" stroke-width="10" x1="1765.0" x2="1797.0" y1="1477.0" y2="1477.0" /><line stroke="#333" stroke-width="10" x1="1797.0" x2="1765.0" y1="1381.0" y2="1381.0" /><line stroke="#333" stroke-width="10" x1="1957.0" x2="1941.0" y1="1381.0" y2="1381.0" /><line stroke="#333" stroke-width="10" x1="1957.0" x2="1957.0" y1="1365.0" y2="1333.0" /><line stroke="#333" stroke-width="10" x1="1813.0" x2="1797.0" y1="1381.0" y2="1381.0" /><line stroke="#333" stroke-width="10" x1="1941.0" x2="1941.0" y1="1381.0" y2="1365.0" /><line stroke="#333" stroke-width="10" x1="1797.0" x2="1813.0" y1="1365.0" y2="1365.0" /><line stroke="#333" stroke-width="10" x1="1813.0" x2="1813.0" y1="1365.0" y2="1381.0" /><line stroke="#333" stroke-width="10" x1="1941.0" x2="1957.0" y1="1365.0" y2="1365.0" /><line stroke="#999" stroke-width="3" x1="1941.0" x2="1917.0" y1="1365.0" y2="1365.0" /><line stroke="#999" stroke-width="3" x1="1957.0" x2="1957.0" y1="1333.0" y2="1301.0" /><line stroke="#333" stroke-width="10" x1="1957.0" x2="1957.0" y1="1301.0" y2="1253.0" /><line stroke="#333" stroke-width="10" x1="1797.0" x2="1797.0" y1="1333.0" y2="1365.0" /><line stroke="#999" stroke-width="3" x1="1797.0" x2="1797.0" y1="1301.0" y2="1333.0" /><line stroke="#333" stroke-width="10" x1="1769.0" x2="1797.0" y1="1333.0" y2="1333.0" /><line stroke="#333" stroke-width="10" x1="1769.0" x2="1769.0" y1="1301.0" y2="1333.0" /><line stroke="#333" stroke-width="10" x1="1797.0" x2="1769.0" y1="1301.0" y2="1301.0" /><line stroke="#333" stroke-width="10" x1="1989.0" x2="1957.0" y1="1301.0" y2="1301.0" /><line stroke="#333" stroke-width="10" x1="1989.0" x2="1989.0" y1="1333.0" y2="1301.0" /><line stroke="#333" stroke-width="10" x1="1957.0" x2="1989.0" y1="1333.0" y2="1333.0" /><line stroke="#999" stroke-width="3" x1="1797.0" x2="1797.0" y1="1221.0" y2="1253.0" /><line stroke="#333" stroke-width="10" x1="1797.0" x2="1797.0" y1="1253.0" y2="1301.0" /><line stroke="#999" stroke-width="3" x1="1957.0" x2="1957.0" y1="1253.0" y2="1221.0" /><line stroke="#333" stroke-width="10" x1="1957.0" x2="1957.0" y1="1221.0" y2="1189.0" /><line stroke="#333" stroke-width="10" x1="1989.0" x2="1957.0" y1="1221.0" y2="1221.0" /><line stroke="#333" stroke-width="10" x1="1989.0" x2="1989.0" y1="1253.0" y2="1221.0" /><line stroke="#333" stroke-width="10" x1="1957.0" x2="1989.0" y1="1253.0" y2="1253.0" /><line stroke="#333" stroke-width="10" x1="1769.0" x2="1797.0" y1="1253.0" y2="1253.0" /><line stroke="#333" stroke-width="10" x1="1769.0" x2="1769.0" y1="1221.0" y2="1253.0" /><line stroke="#333" stroke-width="10" x1="1797.0" x2="1769.0" y1="1221.0" y2="1221.0" /><line stroke="#333" stroke-width="10" x1="2373.0" x2="2437.0" y1="1957.0" y2="1893.0" /><line stroke="#333" stroke-width="10" x1="1989.0" x2="2149.0" y1="1957.0" y2="1957.0" /><line stroke="#333" stroke-width="10" x1="2437.0" x2="2373.0" y1="1637.0" y2="1573.0" /><line stroke="#333" stroke-width="10" x1="1829.0" x2="1989.0" y1="1861.0" y2="1957.0" /><line stroke="#999" stroke-width="3" x1="1797.0" x2="1829.0" y1="1301.0" y2="1277.0" /><line stroke="#999" stroke-width="3" x1="1957.0" x2="1925.0" y1="1253.0" y2="1277.0" /><line stroke="#999" stroke-width="3" x1="1925.0" x2="1957.0" y1="1277.0" y2="1301.0" /><line stroke="#999" stroke-width="3" x1="1829.0" x2="1797.0" y1="1277.0" y2="1253.0" /><line stroke="#999" stroke-width="3" x1="1837.0" x2="1813.0" y1="1365.0" y2="1365.0" /><line stroke="#999" stroke-width="3" x1="1917.0" x2="1837.0" y1="1365.0" y2="1365.0" /><line stroke="#333" stroke-width="10" x1="1917.0" x2="1837.0" y1="1189.0" y2="1189.0" /><line stroke="#333" stroke-width="10" x1="1837.0" x2="1797.0" y1="1189.0" y2="1189.0" /><line stroke="#999" stroke-width="3" x1="1957.0" x2="1917.0" y1="1221.0" y2="1189.0" /><line stroke="#999" stroke-width="3" x1="1797.0" x2="1837.0" y1="1221.0" y2="1189.0" /><line stroke="#999" stroke-width="3" x1="1957.0" x2="1917.0" y1="1333.0" y2="1365.0" /><line stroke="#999" stroke-width="3" x1="1837.0" x2="1797.0" y1="1365.0" y2="1333.0" /><line stroke="#666" stroke-width="20" x1="2149.0" x2="2213.0" y1="1957.0" y2="1957.0" /><line stroke="#333" stroke-width="10" x1="2213.0" x2="2373.0" y1="1957.0" y2="1957.0" /><line stroke="#333" stroke-width="10" x1="1765.0" x2="1765.0" y1="2021.0" y2="1509.0" /><line stroke="#333" stroke-width="10" x1="1773.0" x2="1765.0" y1="2021.0" y2="2021.0" /><line stroke="#333" stroke-width="10" x1="2149.0" x2="2085.0" y1="2021.0" y2="2021.0" /><line stroke="#333" stroke-width="10" x1="1773.0" x2="1893.0" y1="2085.0" y2="2085.0" /><line stroke="#333" stroke-width="10" x1="1765.0" x2="1773.0" y1="2085.0" y2="2085.0" /><line stroke="#666" stroke-width="20" x1="1773.0" x2="1773.0" y1="2021.0" y2="2085.0" /><line stroke="#333" stroke-width="10" x1="2213.0" x2="2213.0" y1="1965.0" y2="1957.0" /><line stroke="#333" stroke-width="10" x1="2213.0" x2="2213.0" y1="2085.0" y2="1965.0" /><line stroke="#333" stroke-width="10" x1="2149.0" x2="2149.0" y1="1965.0" y2="2021.0" /><line stroke="#333" stroke-width="10" x1="2149.0" x2="2149.0" y1="1957.0" y2="1965.0" /><line stroke="#666" stroke-width="20" x1="2213.0" x2="2149.0" y1="1965.0" y2="1965.0" /><line stroke="#333" stroke-width="10" x1="2053.0" x2="2021.0" y1="2021.0" y2="2021.0" /><line stroke="#333" stroke-width="10" x1="2053.0" x2="2085.0" y1="2085.0" y2="2085.0" /><line stroke="#333" stroke-width="10" x1="2021.0" x2="1989.0" y1="2021.0" y2="2021.0" /><line stroke="#333" stroke-width="10" x1="2021.0" x2="2053.0" y1="2085.0" y2="2085.0" /><line stroke="#333" stroke-width="10" x1="2085.0" x2="2213.0" y1="2085.0" y2="2085.0" /><line stroke="#333" stroke-width="10" x1="2085.0" x2="2053.0" y1="2021.0" y2="2021.0" /><line stroke="#999" stroke-width="3" x1="2085.0" x2="2085.0" y1="2021.0" y2="2085.0" /><line stroke="#999" stroke-width="3" x1="2053.0" x2="2053.0" y1="2021.0" y2="2085.0" /><line stroke="#999" stroke-width="3" x1="2021.0" x2="2021.0" y1="2021.0" y2="2085.0" /><line stroke="#333" stroke-width="10" x1="1989.0" x2="1957.0" y1="2021.0" y2="2021.0" /><line stroke="#333" stroke-width="10" x1="1957.0" x2="1925.0" y1="2021.0" y2="2021.0" /><line stroke="#333" stroke-width="10" x1="1925.0" x2="1893.0" y1="2021.0" y2="2021.0" /><line stroke="#333" stroke-width="10" x1="1893.0" x2="1773.0" y1="2021.0" y2="2021.0" /><line stroke="#333" stroke-width="10" x1="1893.0" x2="1925.0" y1="2085.0" y2="2085.0" /><line stroke="#333" stroke-width="10" x1="1925.0" x2="1957.0" y1="2085.0" y2="2085.0" /><line stroke="#333" stroke-width="10" x1="1957.0" x2="1989.0" y1="2085.0" y2="2085.0" /><line stroke="#333" stroke-width="10" x1="1989.0" x2="2021.0" y1="2085.0" y2="2085.0" /><line stroke="#999" stroke-width="3" x1="1989.0" x2="1989.0" y1="2021.0" y2="2085.0" /><line stroke="#999" stroke-width="3" x1="1957.0" x2="1957.0" y1="2021.0" y2="2085.0" /><line stroke="#999" stroke-width="3" x1="1925.0" x2="1925.0" y1="2021.0" y2="2085.0" /><line stroke="#999" stroke-width="3" x1="1893.0" x2="1893.0" y1="2021.0" y2="2085.0" /><line stroke="#999" stroke-width="3" x1="2181.0" x2="2309.0" y1="1157.0" y2="1157.0" /><line stroke="#999" stroke-width="3" x1="2117.0" x2="1989.0" y1="1349.0" y2="1349.0" /><line stroke="#999" stroke-width="3" x1="229.0" x2="37.0" y1="1285.0" y2="1285.0" /><line stroke="#999" stroke-width="3" x1="229.0" x2="229.0" y1="1477.0" y2="1605.0" /><line stroke="#333" stroke-width="10" x1="229.0" x2="213.0" y1="1157.0" y2="1157.0" /><line stroke="#333" stroke-width="10" x1="37.0" x2="37.0" y1="1477.0" y2="1493.0" /><line stroke="#333" stroke-width="10" x1="37.0" x2="37.0" y1="1157.0" y2="1269.0" /><line stroke="#333" stroke-width="10" x1="37.0" x2="213.0" y1="1605.0" y2="1605.0" /><line stroke="#333" stroke-width="10" x1="213.0" x2="229.0" y1="1605.0" y2="1605.0" /><line stroke="#333" stroke-width="10" x1="37.0" x2="37.0" y1="1493.0" y2="1605.0" /><line stroke="#333" stroke-width="10" x1="37.0" x2="37.0" y1="1269.0" y2="1285.0" /><line stroke="#333" stroke-width="10" x1="213.0" x2="37.0" y1="1157.0" y2="1157.0" /><line stroke="#999" stroke-width="3" x1="213.0" x2="213.0" y1="1157.0" y2="1269.0" /><line stroke="#999" stroke-width="3" x1="37.0" x2="213.0" y1="1493.0" y2="1493.0" /><line stroke="#999" stroke-width="3" x1="213.0" x2="213.0" y1="1493.0" y2="1605.0" /><line stroke="#999" stroke-width="3" x1="213.0" x2="37.0" y1="1269.0" y2="1269.0" /><line stroke="#666" stroke-width="20" x1="2053.0" x2="1125.0" y1="1029.0" y2="5.0" /><line stroke="#333" stroke-width="10" x1="549.0" x2="613.0" y1="1605.0" y2="1605.0" /><line stroke="#333" stroke-width="10" x1="549.0" x2="485.0" y1="1157.0" y2="1157.0" /><line stroke="#999" stroke-width="3" x1="549.0" x2="549.0" y1="1605.0" y2="1477.0" /><line stroke="#999" stroke-width="3" x1="549.0" x2="613.0" y1="1477.0" y2="1477.0" /><line stroke="#999" stroke-width="3" x1="613.0" x2="549.0" y1="1285.0" y2="1285.0" /><line stroke="#999" stroke-width="3" x1="549.0" x2="549.0" y1="1285.0" y2="1157.0" /><line stroke="#333" stroke-width="10" x1="37.0" x2="37.0" y1="1413.0" y2="1445.0" /><line stroke="#999" stroke-width="3" x1="37.0" x2="37.0" y1="1349.0" y2="1413.0" /><line stroke="#333" stroke-width="10" x1="5.0" x2="37.0" y1="1413.0" y2="1413.0" /><line stroke="#333" stroke-width="10" x1="5.0" x2="5.0" y1="1349.0" y2="1413.0" /><line stroke="#333" stroke-width="10" x1="37.0" x2="5.0" y1="1349.0" y2="1349.0" /><line stroke="#333" stroke-width="10" x1="1549.0" x2="1413.0" y1="1285.0" y2="1285.0" /><line stroke="#333" stroke-width="10" x1="1573.0" x2="1573.0" y1="1261.0" y2="1285.0" /><line stroke="#333" stroke-width="10" x1="669.0" x2="645.0" y1="1285.0" y2="1285.0" /><line stroke="#333" stroke-width="10" x1="669.0" x2="837.0" y1="1477.0" y2="1477.0" /><line stroke="#333" stroke-width="10" x1="773.0" x2="773.0" y1="1285.0" y2="1253.0" /><line stroke="#333" stroke-width="10" x1="741.0" x2="669.0" y1="1285.0" y2="1285.0" /><line stroke="#333" stroke-width="10" x1="901.0" x2="773.0" y1="1285.0" y2="1285.0" /><line stroke="#333" stroke-width="10" x1="933.0" x2="933.0" y1="1285.0" y2="1253.0" /><line stroke="#333" stroke-width="10" x1="1061.0" x2="933.0" y1="1285.0" y2="1285.0" /><line stroke="#333" stroke-width="10" x1="1093.0" x2="1093.0" y1="1285.0" y2="1253.0" /><line stroke="#333" stroke-width="10" x1="1221.0" x2="1093.0" y1="1285.0" y2="1285.0" /><line stroke="#333" stroke-width="10" x1="1253.0" x2="1253.0" y1="1285.0" y2="1253.0" /><line stroke="#333" stroke-width="10" x1="773.0" x2="741.0" y1="1253.0" y2="1253.0" /><line stroke="#333" stroke-width="10" x1="933.0" x2="901.0" y1="1253.0" y2="1253.0" /><line stroke="#333" stroke-width="10" x1="1093.0" x2="1061.0" y1="1253.0" y2="1253.0" /><line stroke="#333" stroke-width="10" x1="1253.0" x2="1221.0" y1="1253.0" y2="1253.0" /><line stroke="#333" stroke-width="10" x1="1061.0" x2="1061.0" y1="1253.0" y2="1285.0" /><line stroke="#333" stroke-width="10" x1="901.0" x2="901.0" y1="1253.0" y2="1285.0" /><line stroke="#333" stroke-width="10" x1="741.0" x2="741.0" y1="1253.0" y2="1285.0" /><line stroke="#333" stroke-width="10" x1="1221.0" x2="1221.0" y1="1253.0" y2="1285.0" /><line stroke="#999" stroke-width="3" x1="773.0" x2="741.0" y1="1285.0" y2="1285.0" /><line stroke="#999" stroke-width="3" x1="933.0" x2="901.0" y1="1285.0" y2="1285.0" /><line stroke="#999" stroke-width="3" x1="1093.0" x2="1061.0" y1="1285.0" y2="1285.0" /><line stroke="#999" stroke-width="3" x1="1253.0" x2="1221.0" y1="1285.0" y2="1285.0" /><line stroke="#333" stroke-width="10" x1="837.0" x2="997.0" y1="1477.0" y2="1477.0" /><line stroke="#333" stroke-width="10" x1="997.0" x2="1157.0" y1="1477.0" y2="1477.0" /><line stroke="#333" stroke-width="10" x1="1157.0" x2="1253.0" y1="1477.0" y2="1477.0" /><line stroke="#333" stroke-width="10" x1="1445.0" x2="1509.0" y1="1477.0" y2="1477.0" /><line stroke="#333" stroke-width="10" x1="1381.0" x2="1253.0" y1="1285.0" y2="1285.0" /><line stroke="#333" stroke-width="10" x1="1413.0" x2="1413.0" y1="1285.0" y2="1253.0" /><line stroke="#333" stroke-width="10" x1="1381.0" x2="1381.0" y1="1253.0" y2="1285.0" /><line stroke="#333" stroke-width="10" x1="1413.0" x2="1381.0" y1="1253.0" y2="1253.0" /><line stroke="#999" stroke-width="3" x1="1413.0" x2="1381.0" y1="1285.0" y2="1285.0" /><line stroke="#999" stroke-width="3" x1="773.0" x2="837.0" y1="1285.0" y2="1477.0" /><line stroke="#999" stroke-width="3" x1="837.0" x2="901.0" y1="1477.0" y2="1285.0" /><line stroke="#999" stroke-width="3" x1="933.0" x2="997.0" y1="1285.0" y2="1477.0" /><line stroke="#999" stroke-width="3" x1="997.0" x2="1061.0" y1="1477.0" y2="1285.0" /><line stroke="#999" stroke-width="3" x1="669.0" x2="741.0" y1="1477.0" y2="1285.0" /><line stroke="#999" stroke-width="3" x1="1093.0" x2="1157.0" y1="1285.0" y2="1477.0" /><line stroke="#999" stroke-width="3" x1="1157.0" x2="1221.0" y1="1477.0" y2="1285.0" /><line stroke="#999" stroke-width="3" x1="1253.0" x2="1317.0" y1="1285.0" y2="1477.0" /><line stroke="#999" stroke-width="3" x1="1317.0" x2="1381.0" y1="1477.0" y2="1285.0" /><line stroke="#999" stroke-width="3" x1="1413.0" x2="1445.0" y1="1285.0" y2="1477.0" /><line stroke="#333" stroke-width="10" x1="1509.0" x2="1765.0" y1="1477.0" y2="1477.0" /><line stroke="#999" stroke-width="3" x1="1509.0" x2="1573.0" y1="1477.0" y2="1285.0" /><line stroke="#333" stroke-width="10" x1="933.0" x2="933.0" y1="1925.0" y2="1973.0" /><line stroke="#333" stroke-width="10" x1="997.0" x2="1013.0" y1="1989.0" y2="1989.0" /><line stroke="#999" stroke-width="3" x1="997.0" x2="997.0" y1="1989.0" y2="1925.0" /><line stroke="#999" stroke-width="3" x1="997.0" x2="933.0" y1="1925.0" y2="1925.0" /><line stroke="#333" stroke-width="10" x1="933.0" x2="933.0" y1="1909.0" y2="1925.0" /><line stroke="#333" stroke-width="10" x1="1013.0" x2="1061.0" y1="1989.0" y2="1989.0" /><line stroke="#999" stroke-width="3" x1="933.0" x2="1013.0" y1="1909.0" y2="1909.0" /><line stroke="#999" stroke-width="3" x1="1013.0" x2="1013.0" y1="1909.0" y2="1989.0" /><line stroke="#333" stroke-width="10" x1="1157.0" x2="1061.0" y1="1509.0" y2="1509.0" /><line stroke="#333" stroke-width="10" x1="1157.0" x2="1157.0" y1="1525.0" y2="1509.0" /><line stroke="#999" stroke-width="3" x1="1157.0" x2="1125.0" y1="1669.0" y2="1669.0" /><line stroke="#333" stroke-width="10" x1="1157.0" x2="1173.0" y1="1669.0" y2="1669.0" /><line stroke="#333" stroke-width="10" x1="1173.0" x2="1173.0" y1="1669.0" y2="1685.0" /><line stroke="#333" stroke-width="10" x1="1173.0" x2="1157.0" y1="1685.0" y2="1685.0" /><line stroke="#333" stroke-width="10" x1="1157.0" x2="1157.0" y1="1685.0" y2="1669.0" /><line stroke="#333" stroke-width="10" x1="933.0" x2="949.0" y1="1669.0" y2="1669.0" /><line stroke="#333" stroke-width="10" x1="949.0" x2="949.0" y1="1669.0" y2="1685.0" /><line stroke="#333" stroke-width="10" x1="949.0" x2="933.0" y1="1685.0" y2="1685.0" /><line stroke="#333" stroke-width="10" x1="933.0" x2="933.0" y1="1685.0" y2="1733.0" /><line stroke="#999" stroke-width="3" x1="1157.0" x2="1157.0" y1="1525.0" y2="1669.0" /><line stroke="#333" stroke-width="10" x1="1173.0" x2="1173.0" y1="1509.0" y2="1525.0" /><line stroke="#333" stroke-width="10" x1="1173.0" x2="1157.0" y1="1525.0" y2="1525.0" /><line stroke="#333" stroke-width="10" x1="933.0" x2="933.0" y1="1797.0" y2="1861.0" /><line stroke="#333" stroke-width="10" x1="933.0" x2="933.0" y1="1733.0" y2="1797.0" /><line stroke="#333" stroke-width="10" x1="1061.0" x2="997.0" y1="1509.0" y2="1509.0" /><line stroke="#333" stroke-width="10" x1="997.0" x2="949.0" y1="1509.0" y2="1509.0" /><line stroke="#999" stroke-width="3" x1="1061.0" x2="949.0" y1="1669.0" y2="1669.0" /><line stroke="#999" stroke-width="3" x1="1125.0" x2="1061.0" y1="1669.0" y2="1669.0" /><line stroke="#999" stroke-width="3" x1="1669.0" x2="1669.0" y1="1733.0" y2="1669.0" /><line stroke="#999" stroke-width="3" x1="1669.0" x2="1669.0" y1="1669.0" y2="1525.0" /><line stroke="#333" stroke-width="10" x1="37.0" x2="37.0" y1="1445.0" y2="1477.0" /><line stroke="#333" stroke-width="10" x1="37.0" x2="37.0" y1="1317.0" y2="1349.0" /><line stroke="#999" stroke-width="3" x1="37.0" x2="357.0" y1="1317.0" y2="1317.0" /><line stroke="#999" stroke-width="3" x1="357.0" x2="37.0" y1="1445.0" y2="1445.0" /><line stroke="#333" stroke-width="10" x1="421.0" x2="357.0" y1="1157.0" y2="1157.0" /><line stroke="#333" stroke-width="10" x1="485.0" x2="421.0" y1="1157.0" y2="1157.0" /><line stroke="#333" stroke-width="10" x1="293.0" x2="549.0" y1="1605.0" y2="1605.0" /><line stroke="#999" stroke-width="3" x1="357.0" x2="357.0" y1="1317.0" y2="1445.0" /><line stroke="#333" stroke-width="10" x1="293.0" x2="229.0" y1="1157.0" y2="1157.0" /><line stroke="#333" stroke-width="10" x1="357.0" x2="293.0" y1="1157.0" y2="1157.0" /><line stroke="#333" stroke-width="10" x1="1509.0" x2="1525.0" y1="1973.0" y2="1973.0" /><line stroke="#333" stroke-width="10" x1="1525.0" x2="1525.0" y1="1973.0" y2="1989.0" /><line stroke="#999" stroke-width="3" x1="1525.0" x2="1653.0" y1="1989.0" y2="1989.0" /><line stroke="#333" stroke-width="10" x1="1525.0" x2="1509.0" y1="1989.0" y2="1989.0" /><line stroke="#333" stroke-width="10" x1="997.0" x2="1125.0" y1="517.0" y2="645.0" /><line stroke="#333" stroke-width="10" x1="997.0" x2="1061.0" y1="133.0" y2="133.0" /><line stroke="#999" stroke-width="3" x1="997.0" x2="1125.0" y1="517.0" y2="549.0" /><line stroke="#333" stroke-width="10" x1="1061.0" x2="1061.0" y1="133.0" y2="197.0" /><line stroke="#333" stroke-width="10" x1="1061.0" x2="997.0" y1="517.0" y2="517.0" /><line stroke="#999" stroke-width="3" x1="1125.0" x2="997.0" y1="101.0" y2="133.0" /><line stroke="#999" stroke-width="3" x1="1125.0" x2="1125.0" y1="549.0" y2="101.0" /><line stroke="#333" stroke-width="10" x1="2189.0" x2="2165.0" y1="69.0" y2="69.0" /><line stroke="#333" stroke-width="10" x1="2221.0" x2="2277.0" y1="421.0" y2="421.0" /><line stroke="#333" stroke-width="10" x1="2229.0" x2="2245.0" y1="1589.0" y2="1605.0" /><line stroke="#333" stroke-width="10" x1="2325.0" x2="2117.0" y1="1557.0" y2="1349.0" /><line stroke="#333" stroke-width="10" x1="2069.0" x2="2181.0" y1="1045.0" y2="1157.0" /><line stroke="#333" stroke-width="10" x1="2141.0" x2="2125.0" y1="989.0" y2="973.0" /><line stroke="#999" stroke-width="3" x1="1013.0" x2="1013.0" y1="373.0" y2="277.0" /><ellipse cx="69.0" cy="1349.0" fill="#009" rx="12" ry="24" stroke="#009" stroke-width="5" /><ellipse cx="165.0" cy="1349.0" fill="#009" rx="12" ry="24" stroke="#009" stroke-width="5" /><ellipse cx="69.0" cy="1413.0" fill="#009" rx="12" ry="24" stroke="#009" stroke-width="5" /><ellipse cx="165.0" cy="1413.0" fill="#009" rx="12" ry="24" stroke="#009" stroke-width="5" /><rect fill="#090" height="24" stroke="#090" stroke-width="5" transform="rotate(0,133.0,1381.0)" width="24" x="121.0" y="1369.0" /><rect fill="#090" height="24" stroke="#090" stroke-width="5" transform="rotate(180,1733.0,1701.0)" width="24" x="1721.0" y="1689.0" /><rect fill="#090" height="24" stroke="#090" stroke-width="5" transform="rotate(225,2181.0,885.0)" width="24" x="2169.0" y="873.0" /><rect fill="#090" height="24" stroke="#090" stroke-width="5" transform="rotate(0,901.0,325.0)" width="24" x="889.0" y="313.0" /><rect fill="#090" height="24" stroke="#090" stroke-width="5" transform="rotate(0,629.0,1525.0)" width="24" x="617.0" y="1513.0" /><rect fill="#090" height="24" stroke="#090" stroke-width="5" transform="rotate(0,629.0,1237.0)" width="24" x="617.0" y="1225.0" /><rect fill="#009" height="24" stroke="#009" stroke-width="5" transform="rotate(315,981.0,1941.0)" width="24" x="969.0" y="1929.0" /><rect fill="#090" height="24" stroke="#090" stroke-width="5" transform="rotate(0,2501.0,469.0)" width="24" x="2489.0" y="457.0" /><rect fill="#090" height="24" stroke="#090" stroke-width="5" transform="rotate(0,2405.0,469.0)" width="24" x="2393.0" y="457.0" /><rect fill="#090" height="24" stroke="#090" stroke-width="5" transform="rotate(315,1861.0,1829.0)" width="24" x="1849.0" y="1817.0" /><rect fill="#090" height="24" stroke="#090" stroke-width="5" transform="rotate(90,1877.0,1221.0)" width="24" x="1865.0" y="1209.0" /><rect fill="#090" height="24" stroke="#090" stroke-width="5" transform="rotate(180,1653.0,1365.0)" width="24" x="1641.0" y="1353.0" /><rect fill="#090" height="24" stroke="#090" stroke-width="5" transform="rotate(315,965.0,1877.0)" width="24" x="953.0" y="1865.0" /><rect fill="#090" height="24" stroke="#090" stroke-width="5" transform="rotate(0,1781.0,1317.0)" width="24" x="1769.0" y="1305.0" /><rect fill="#090" height="24" stroke="#090" stroke-width="5" transform="rotate(0,1973.0,1317.0)" width="24" x="1961.0" y="1305.0" /><rect fill="#090" height="24" stroke="#090" stroke-width="5" transform="rotate(0,1973.0,1237.0)" width="24" x="1961.0" y="1225.0" /><rect fill="#090" height="24" stroke="#090" stroke-width="5" transform="rotate(0,1781.0,1237.0)" width="24" x="1769.0" y="1225.0" /><circle cx="1061.0" cy="1861.0" fill="#009" r="16" stroke="#009" stroke-width="5" /><circle cx="1701.0" cy="1829.0" fill="#090" r="16" stroke="#090" stroke-width="5" /><circle cx="1701.0" cy="1893.0" fill="#090" r="16" stroke="#090" stroke-width="5" /><circle cx="1877.0" cy="1333.0" fill="#009" r="16" stroke="#009" stroke-width="5" /><circle cx="2309.0" cy="1109.0" fill="#009" r="16" stroke="#009" stroke-width="5" /><circle cx="453.0" cy="1189.0" fill="#009" r="16" stroke="#009" stroke-width="5" /><circle cx="517.0" cy="1189.0" fill="#009" r="16" stroke="#009" stroke-width="5" /><circle cx="901.0" cy="293.0" fill="#009" r="16" stroke="#009" stroke-width="5" /><circle cx="2245.0" cy="101.0" fill="#009" r="16" stroke="#009" stroke-width="5" /><circle cx="2245.0" cy="133.0" fill="#009" r="16" stroke="#009" stroke-width="5" /><circle cx="1829.0" cy="1509.0" fill="#009" r="16" stroke="#009" stroke-width="5" /><circle cx="1829.0" cy="1573.0" fill="#009" r="16" stroke="#009" stroke-width="5" /><circle cx="1733.0" cy="1541.0" fill="#009" r="16" stroke="#009" stroke-width="5" /><circle cx="2245.0" cy="389.0" fill="#090" r="16" stroke="#090" stroke-width="5" /><circle cx="901.0" cy="357.0" fill="#090" r="16" stroke="#090" stroke-width="5" /><circle cx="453.0" cy="1573.0" fill="#090" r="16" stroke="#090" stroke-width="5" /><circle cx="965.0" cy="1541.0" fill="#090" r="16" stroke="#090" stroke-width="5" /><circle cx="997.0" cy="1541.0" fill="#090" r="16" stroke="#090" stroke-width="5" /><circle cx="2245.0" cy="357.0" fill="#090" r="16" stroke="#090" stroke-width="5" /><circle cx="2021.0" cy="1925.0" fill="#090" r="16" stroke="#090" stroke-width="5" /><circle cx="517.0" cy="1573.0" fill="#090" r="16" stroke="#090" stroke-width="5" /><circle cx="261.0" cy="1189.0" fill="#009" r="16" stroke="#009" stroke-width="5" /><circle cx="293.0" cy="1189.0" fill="#009" r="16" stroke="#009" stroke-width="5" /><circle cx="325.0" cy="1189.0" fill="#009" r="16" stroke="#009" stroke-width="5" /><circle cx="261.0" cy="1573.0" fill="#009" r="16" stroke="#009" stroke-width="5" /><circle cx="293.0" cy="1573.0" fill="#009" r="16" stroke="#009" stroke-width="5" /><circle cx="325.0" cy="1573.0" fill="#009" r="16" stroke="#009" stroke-width="5" /><circle cx="2245.0" cy="197.0" fill="#009" r="16" stroke="#009" stroke-width="5" /><circle cx="2245.0" cy="229.0" fill="#009" r="16" stroke="#009" stroke-width="5" /><rect fill="#090" height="24" stroke="#090" stroke-width="5" transform="rotate(0,421.0,1509.0)" width="24" x="409.0" y="1497.0" /><rect fill="#090" height="24" stroke="#090" stroke-width="5" transform="rotate(0,1221.0,1317.0)" width="24" x="1209.0" y="1305.0" /><rect fill="#090" height="24" stroke="#090" stroke-width="5" transform="rotate(0,1285.0,1797.0)" width="24" x="1273.0" y="1785.0" /><rect fill="#090" height="24" stroke="#090" stroke-width="5" transform="rotate(0,2181.0,2021.0)" width="24" x="2169.0" y="2009.0" /><rect fill="#090" height="24" stroke="#090" stroke-width="5" transform="rotate(0,2053.0,1701.0)" width="24" x="2041.0" y="1689.0" /><rect fill="#090" height="24" stroke="#090" stroke-width="5" transform="rotate(0,2117.0,1413.0)" width="24" x="2105.0" y="1401.0" /><rect fill="#090" height="24" stroke="#090" stroke-width="5" transform="rotate(0,2437.0,773.0)" width="24" x="2425.0" y="761.0" /><rect fill="#090" height="24" stroke="#090" stroke-width="5" transform="rotate(0,949.0,277.0)" width="24" x="937.0" y="265.0" /><rect fill="#090" height="24" stroke="#090" stroke-width="5" transform="rotate(0,1733.0,1445.0)" width="24" x="1721.0" y="1433.0" /><rect fill="#090" height="24" stroke="#090" stroke-width="5" transform="rotate(0,389.0,1189.0)" width="24" x="377.0" y="1177.0" /><rect fill="#090" height="24" stroke="#090" stroke-width="5" transform="rotate(0,1701.0,2053.0)" width="24" x="1689.0" y="2041.0" /><rect fill="#090" height="24" stroke="#090" stroke-width="5" transform="rotate(0,2245.0,293.0)" width="24" x="2233.0" y="281.0" /><rect fill="#090" height="24" stroke="#090" stroke-width="5" transform="rotate(0,1045.0,1957.0)" width="24" x="1033.0" y="1945.0" /><rect fill="#900" height="48" stroke="#900" stroke-width="5" transform="rotate(180,837.0,1349.0)" width="32" x="821.0" y="1325.0" /><rect fill="#900" height="48" stroke="#900" stroke-width="5" transform="rotate(0,901.0,1349.0)" width="32" x="885.0" y="1325.0" /><rect fill="#900" height="48" stroke="#900" stroke-width="5" transform="rotate(315,69.0,1573.0)" width="32" x="53.0" y="1549.0" /><rect fill="#900" height="48" stroke="#900" stroke-width="5" transform="rotate(315,165.0,1573.0)" width="32" x="149.0" y="1549.0" /><rect fill="#900" height="48" stroke="#900" stroke-width="5" transform="rotate(45,165.0,1189.0)" width="32" x="149.0" y="1165.0" /><rect fill="#900" height="48" stroke="#900" stroke-width="5" transform="rotate(45,69.0,1189.0)" width="32" x="53.0" y="1165.0" /><circle cx="549.0" cy="1381.0" fill="#900" r="16" stroke="#900" stroke-width="5" /><circle cx="1701.0" cy="1605.0" fill="#900" r="16" stroke="#900" stroke-width="5" /><circle cx="1285.0" cy="1061.0" fill="#090" r="16" stroke="#090" stroke-width="5" /><circle cx="1285.0" cy="997.0" fill="#090" r="16" stroke="#090" stroke-width="5" /><circle cx="997.0" cy="325.0" fill="#900" r="16" stroke="#900" stroke-width="5" /><circle cx="1541.0" cy="1381.0" fill="#900" r="16" stroke="#900" stroke-width="5" /><circle cx="261.0" cy="1509.0" fill="#090" r="16" stroke="#090" stroke-width="5" /><circle cx="261.0" cy="1253.0" fill="#090" r="16" stroke="#090" stroke-width="5" /><circle cx="2149.0" cy="453.0" fill="#090" r="16" stroke="#090" stroke-width="5" /><circle cx="2149.0" cy="517.0" fill="#090" r="16" stroke="#090" stroke-width="5" /><rect fill="#900" height="48" stroke="#900" stroke-width="5" transform="rotate(180,869.0,1413.0)" width="32" x="853.0" y="1389.0" /><rect fill="#900" height="48" stroke="#900" stroke-width="5" transform="rotate(270,1221.0,1765.0)" width="32" x="1205.0" y="1741.0" /><rect fill="#900" height="48" stroke="#900" stroke-width="5" transform="rotate(225,1605.0,1925.0)" width="32" x="1589.0" y="1901.0" /><rect fill="#900" height="48" stroke="#900" stroke-width="5" transform="rotate(270,1349.0,1893.0)" width="32" x="1333.0" y="1869.0" /><rect fill="#900" height="48" stroke="#900" stroke-width="5" transform="rotate(0,965.0,325.0)" width="32" x="949.0" y="301.0" /><rect fill="#900" height="48" stroke="#900" stroke-width="5" transform="rotate(135,2213.0,101.0)" width="32" x="2197.0" y="77.0" /><rect fill="#900" height="48" stroke="#900" stroke-width="5" transform="rotate(135,2245.0,165.0)" width="32" x="2229.0" y="141.0" /><rect fill="#900" height="48" stroke="#900" stroke-width="5" transform="rotate(135,2245.0,261.0)" width="32" x="2229.0" y="237.0" /><rect fill="#900" height="48" stroke="#900" stroke-width="5" transform="rotate(180,2245.0,325.0)" width="32" x="2229.0" y="301.0" /><rect fill="#900" height="48" stroke="#900" stroke-width="5" transform="rotate(315,2085.0,1317.0)" width="32" x="2069.0" y="1293.0" /><rect fill="#090" height="24" stroke="#090" stroke-width="5" transform="rotate(0,293.0,1381.0)" width="24" x="281.0" y="1369.0" /><rect fill="#090" height="24" stroke="#090" stroke-width="5" transform="rotate(0,1061.0,1701.0)" width="24" x="1049.0" y="1689.0" /><rect fill="#090" height="24" stroke="#090" stroke-width="5" transform="rotate(0,2453.0,469.0)" width="24" x="2441.0" y="457.0" /><rect fill="#090" height="24" stroke="#090" stroke-width="5" transform="rotate(0,421.0,1413.0)" width="24" x="409.0" y="1401.0" /><rect fill="#090" height="24" stroke="#090" stroke-width="5" transform="rotate(0,357.0,1253.0)" width="24" x="345.0" y="1241.0" /><rect fill="#090" height="24" stroke="#090" stroke-width="5" transform="rotate(0,549.0,1317.0)" width="24" x="537.0" y="1305.0" /><rect fill="#090" height="24" stroke="#090" stroke-width="5" transform="rotate(0,709.0,1413.0)" width="24" x="697.0" y="1401.0" /><rect fill="#090" height="24" stroke="#090" stroke-width="5" transform="rotate(0,757.0,1269.0)" width="24" x="745.0" y="1257.0" /><rect fill="#090" height="24" stroke="#090" stroke-width="5" transform="rotate(0,917.0,1269.0)" width="24" x="905.0" y="1257.0" /><rect fill="#090" height="24" stroke="#090" stroke-width="5" transform="rotate(0,1077.0,1269.0)" width="24" x="1065.0" y="1257.0" /><rect fill="#090" height="24" stroke="#090" stroke-width="5" transform="rotate(0,1237.0,1269.0)" width="24" x="1225.0" y="1257.0" /><rect fill="#090" height="24" stroke="#090" stroke-width="5" transform="rotate(0,1397.0,1269.0)" width="24" x="1385.0" y="1257.0" /><rect fill="#900" height="48" stroke="#900" stroke-width="5" transform="rotate(0,997.0,1573.0)" width="32" x="981.0" y="1549.0" /><rect fill="#090" height="24" stroke="#090" stroke-width="5" transform="rotate(0,581.0,1573.0)" width="24" x="569.0" y="1561.0" /><rect fill="#090" height="24" stroke="#090" stroke-width="5" transform="rotate(0,581.0,1189.0)" width="24" x="569.0" y="1177.0" /></svg>