<?xml version="1.0" encoding="utf-8" ?>
<svg baseProfile="tiny" height="648" version="1.2" viewBox="0 0 3754 2378" width="1024" xmlns="http://www.w3.org/2000/svg" xmlns:ev="http://www.w3.org/2001/xml-events" xmlns:xlink="http://www.w3.org/1999/xlink"><defs /><line stroke="#333" stroke-width="10" x1="3397.0" x2="3365.0" y1="1605.0" y2="1605.0" /><line stroke="#333" stroke-width="10" x1="1349.0" x2="1381.0" y1="1541.0" y2="1541.0" /><line stroke="#d00" stroke-width="20" x1="3141.0" x2="1605.0" y1="1637.0" y2="1637.0" /><line stroke="#d00" stroke-width="20" x1="3141.0" x2="3141.0" y1="1477.0" y2="1541.0" /><line stroke="#d00" stroke-width="20" x1="2501.0" x2="2757.0" y1="677.0" y2="869.0" /><line stroke="#d00" stroke-width="20" x1="1605.0" x2="1733.0" y1="1445.0" y2="1189.0" /><line stroke="#d00" stroke-width="20" x1="1637.0" x2="2213.0" y1="1605.0" y2="1605.0" /><line stroke="#d00" stroke-width="20" x1="2725.0" x2="2469.0" y1="901.0" y2="709.0" /><line stroke="#d00" stroke-width="20" x1="1765.0" x2="1637.0" y1="1221.0" y2="1477.0" /><line stroke="#d00" stroke-width="20" x1="3109.0" x2="2981.0" y1="1477.0" y2="1221.0" /><line stroke="#d00" stroke-width="20" x1="2277.0" x2="2021.0" y1="709.0" y2="901.0" /><line stroke="#333" stroke-width="10" x1="3109.0" x2="3109.0" y1="1605.0" y2="1541.0" /><line stroke="#d00" stroke-width="20" x1="2469.0" x2="2405.0" y1="709.0" y2="709.0" /><line stroke="#d00" stroke-width="20" x1="1637.0" x2="1637.0" y1="1477.0" y2="1541.0" /><line stroke="#d00" stroke-width="20" x1="2533.0" x2="3109.0" y1="1605.0" y2="1605.0" /><line stroke="#999" stroke-width="3" x1="2021.0" x2="1829.0" y1="997.0" y2="1221.0" /><line stroke="#999" stroke-width="3" x1="2021.0" x2="2021.0" y1="901.0" y2="997.0" /><line stroke="#999" stroke-width="3" x1="1765.0" x2="2021.0" y1="1221.0" y2="901.0" /><line stroke="#999" stroke-width="3" x1="1829.0" x2="1765.0" y1="1221.0" y2="1221.0" /><line stroke="#999" stroke-width="3" x1="2885.0" x2="2725.0" y1="1189.0" y2="997.0" /><line stroke="#999" stroke-width="3" x1="2981.0" x2="2885.0" y1="1221.0" y2="1189.0" /><line stroke="#999" stroke-width="3" x1="2725.0" x2="2981.0" y1="901.0" y2="1221.0" /><line stroke="#999" stroke-width="3" x1="2725.0" x2="2725.0" y1="997.0" y2="901.0" /><line stroke="#999" stroke-width="3" x1="2533.0" x2="2213.0" y1="1605.0" y2="1605.0" /><line stroke="#999" stroke-width="3" x1="2469.0" x2="2533.0" y1="1541.0" y2="1605.0" /><line stroke="#999" stroke-width="3" x1="2277.0" x2="2469.0" y1="1541.0" y2="1541.0" /><line stroke="#999" stroke-width="3" x1="2213.0" x2="2277.0" y1="1605.0" y2="1541.0" /><line stroke="#d00" stroke-width="20" x1="3013.0" x2="3141.0" y1="1189.0" y2="1477.0" /><line stroke="#d00" stroke-width="20" x1="1989.0" x2="2245.0" y1="869.0" y2="677.0" /><line stroke="#d00" stroke-width="20" x1="1605.0" x2="1605.0" y1="1637.0" y2="1605.0" /><line stroke="#d00" stroke-width="20" x1="2405.0" x2="2501.0" y1="677.0" y2="677.0" /><line stroke="#d00" stroke-width="20" x1="1733.0" x2="1989.0" y1="1189.0" y2="869.0" /><line stroke="#d00" stroke-width="20" x1="2757.0" x2="3013.0" y1="869.0" y2="1189.0" /><line stroke="#999" stroke-width="3" x1="1349.0" x2="1349.0" y1="1541.0" y2="1509.0" /><line stroke="#333" stroke-width="10" x1="3397.0" x2="3493.0" y1="1541.0" y2="1541.0" /><line stroke="#333" stroke-width="10" x1="2437.0" x2="2437.0" y1="261.0" y2="421.0" /><line stroke="#333" stroke-width="10" x1="1189.0" x2="1349.0" y1="1541.0" y2="1541.0" /><line stroke="#999" stroke-width="3" x1="1765.0" x2="2149.0" y1="965.0" y2="645.0" /><line stroke="#999" stroke-width="3" x1="2981.0" x2="3237.0" y1="965.0" y2="1509.0" /><line stroke="#999" stroke-width="3" x1="1509.0" x2="1765.0" y1="1509.0" y2="965.0" /><line stroke="#999" stroke-width="3" x1="2597.0" x2="2981.0" y1="645.0" y2="965.0" /><line stroke="#999" stroke-width="3" x1="2149.0" x2="2277.0" y1="645.0" y2="645.0" /><line stroke="#999" stroke-width="3" x1="3237.0" x2="3397.0" y1="1509.0" y2="1509.0" /><line stroke="#333" stroke-width="10" x1="3557.0" x2="3397.0" y1="1605.0" y2="1605.0" /><line stroke="#333" stroke-width="10" x1="3557.0" x2="3557.0" y1="1989.0" y2="1605.0" /><line stroke="#333" stroke-width="10" x1="1189.0" x2="1701.0" y1="1989.0" y2="2373.0" /><line stroke="#333" stroke-width="10" x1="1349.0" x2="1253.0" y1="1605.0" y2="1605.0" /><line stroke="#999" stroke-width="3" x1="3397.0" x2="3397.0" y1="1605.0" y2="1637.0" /><line stroke="#333" stroke-width="10" x1="2405.0" x2="2381.0" y1="709.0" y2="709.0" /><line stroke="#d00" stroke-width="20" x1="2341.0" x2="2277.0" y1="709.0" y2="709.0" /><line stroke="#333" stroke-width="10" x1="2341.0" x2="2341.0" y1="709.0" y2="677.0" /><line stroke="#333" stroke-width="10" x1="2405.0" x2="2405.0" y1="677.0" y2="709.0" /><line stroke="#333" stroke-width="10" x1="2405.0" x2="2405.0" y1="645.0" y2="677.0" /><line stroke="#d00" stroke-width="20" x1="2245.0" x2="2341.0" y1="677.0" y2="677.0" /><line stroke="#333" stroke-width="10" x1="2341.0" x2="2341.0" y1="677.0" y2="645.0" /><line stroke="#666" stroke-width="20" x1="2341.0" x2="2309.0" y1="645.0" y2="645.0" /><line stroke="#666" stroke-width="20" x1="2437.0" x2="2437.0" y1="453.0" y2="645.0" /><line stroke="#333" stroke-width="10" x1="2437.0" x2="2309.0" y1="453.0" y2="453.0" /><line stroke="#666" stroke-width="20" x1="2309.0" x2="2309.0" y1="645.0" y2="453.0" /><line stroke="#333" stroke-width="10" x1="2309.0" x2="2309.0" y1="453.0" y2="421.0" /><line stroke="#666" stroke-width="20" x1="2437.0" x2="2405.0" y1="645.0" y2="645.0" /><line stroke="#333" stroke-width="10" x1="2341.0" x2="2405.0" y1="645.0" y2="645.0" /><line stroke="#999" stroke-width="3" x1="2277.0" x2="2309.0" y1="421.0" y2="421.0" /><line stroke="#999" stroke-width="3" x1="2277.0" x2="2277.0" y1="645.0" y2="421.0" /><line stroke="#333" stroke-width="10" x1="2309.0" x2="2309.0" y1="421.0" y2="197.0" /><line stroke="#999" stroke-width="3" x1="2469.0" x2="2469.0" y1="421.0" y2="645.0" /><line stroke="#999" stroke-width="3" x1="2437.0" x2="2469.0" y1="421.0" y2="421.0" /><line stroke="#999" stroke-width="3" x1="2469.0" x2="2597.0" y1="645.0" y2="645.0" /><line stroke="#333" stroke-width="10" x1="2437.0" x2="2437.0" y1="421.0" y2="453.0" /><line stroke="#d00" stroke-width="20" x1="3109.0" x2="3109.0" y1="1541.0" y2="1477.0" /><line stroke="#d00" stroke-width="20" x1="3141.0" x2="3141.0" y1="1605.0" y2="1637.0" /><line stroke="#333" stroke-width="10" x1="3141.0" x2="3109.0" y1="1605.0" y2="1605.0" /><line stroke="#333" stroke-width="10" x1="3109.0" x2="3141.0" y1="1541.0" y2="1541.0" /><line stroke="#333" stroke-width="10" x1="3173.0" x2="3141.0" y1="1605.0" y2="1605.0" /><line stroke="#333" stroke-width="10" x1="3141.0" x2="3173.0" y1="1541.0" y2="1541.0" /><line stroke="#999" stroke-width="3" x1="3077.0" x2="1669.0" y1="1733.0" y2="1733.0" /><line stroke="#999" stroke-width="3" x1="1669.0" x2="1509.0" y1="1733.0" y2="1637.0" /><line stroke="#999" stroke-width="3" x1="3397.0" x2="3397.0" y1="1509.0" y2="1541.0" /><line stroke="#999" stroke-width="3" x1="3397.0" x2="3237.0" y1="1637.0" y2="1637.0" /><line stroke="#999" stroke-width="3" x1="3237.0" x2="3077.0" y1="1637.0" y2="1733.0" /><line stroke="#666" stroke-width="20" x1="3365.0" x2="3173.0" y1="1605.0" y2="1605.0" /><line stroke="#333" stroke-width="10" x1="3365.0" x2="3365.0" y1="1605.0" y2="1541.0" /><line stroke="#666" stroke-width="20" x1="3173.0" x2="3365.0" y1="1541.0" y2="1541.0" /><line stroke="#333" stroke-width="10" x1="3173.0" x2="3173.0" y1="1541.0" y2="1605.0" /><line stroke="#333" stroke-width="10" x1="3365.0" x2="3397.0" y1="1541.0" y2="1541.0" /><line stroke="#333" stroke-width="10" x1="1637.0" x2="1605.0" y1="1605.0" y2="1605.0" /><line stroke="#333" stroke-width="10" x1="1637.0" x2="1637.0" y1="1541.0" y2="1605.0" /><line stroke="#333" stroke-width="10" x1="1605.0" x2="1637.0" y1="1541.0" y2="1541.0" /><line stroke="#d00" stroke-width="20" x1="1605.0" x2="1605.0" y1="1541.0" y2="1445.0" /><line stroke="#333" stroke-width="10" x1="1605.0" x2="1573.0" y1="1605.0" y2="1605.0" /><line stroke="#999" stroke-width="3" x1="1349.0" x2="1509.0" y1="1509.0" y2="1509.0" /><line stroke="#999" stroke-width="3" x1="1509.0" x2="1349.0" y1="1637.0" y2="1637.0" /><line stroke="#999" stroke-width="3" x1="1349.0" x2="1349.0" y1="1637.0" y2="1605.0" /><line stroke="#d00" stroke-width="20" x1="1573.0" x2="1381.0" y1="1605.0" y2="1605.0" /><line stroke="#333" stroke-width="10" x1="1573.0" x2="1573.0" y1="1605.0" y2="1541.0" /><line stroke="#d00" stroke-width="20" x1="1381.0" x2="1573.0" y1="1541.0" y2="1541.0" /><line stroke="#333" stroke-width="10" x1="1381.0" x2="1381.0" y1="1541.0" y2="1605.0" /><line stroke="#333" stroke-width="10" x1="1381.0" x2="1349.0" y1="1605.0" y2="1605.0" /><line stroke="#333" stroke-width="10" x1="1573.0" x2="1605.0" y1="1541.0" y2="1541.0" /><line stroke="#0d0" stroke-width="20" x1="2381.0" x2="2365.0" y1="709.0" y2="709.0" /><line stroke="#333" stroke-width="10" x1="2365.0" x2="2341.0" y1="709.0" y2="709.0" /><line stroke="#333" stroke-width="10" x1="5.0" x2="805.0" y1="1797.0" y2="1797.0" /><line stroke="#333" stroke-width="10" x1="805.0" x2="5.0" y1="1733.0" y2="1733.0" /><line stroke="#333" stroke-width="10" x1="5.0" x2="5.0" y1="1733.0" y2="1797.0" /><line stroke="#333" stroke-width="10" x1="805.0" x2="869.0" y1="1797.0" y2="1797.0" /><line stroke="#333" stroke-width="10" x1="869.0" x2="869.0" y1="1797.0" y2="1733.0" /><line stroke="#333" stroke-width="10" x1="869.0" x2="805.0" y1="1733.0" y2="1733.0" /><line stroke="#00d" stroke-width="20" x1="805.0" x2="805.0" y1="1797.0" y2="1733.0" /><line stroke="#333" stroke-width="10" x1="3749.0" x2="3749.0" y1="165.0" y2="5.0" /><line stroke="#333" stroke-width="10" x1="3749.0" x2="2405.0" y1="5.0" y2="5.0" /><line stroke="#999" stroke-width="3" x1="2437.0" x2="3237.0" y1="261.0" y2="261.0" /><line stroke="#999" stroke-width="3" x1="1189.0" x2="1189.0" y1="1541.0" y2="197.0" /><line stroke="#333" stroke-width="10" x1="997.0" x2="1189.0" y1="1541.0" y2="1541.0" /><line stroke="#333" stroke-width="10" x1="997.0" x2="997.0" y1="197.0" y2="1541.0" /><line stroke="#333" stroke-width="10" x1="3493.0" x2="3749.0" y1="1541.0" y2="1541.0" /><line stroke="#333" stroke-width="10" x1="3749.0" x2="3749.0" y1="1541.0" y2="165.0" /><line stroke="#999" stroke-width="3" x1="3749.0" x2="3461.0" y1="165.0" y2="165.0" /><line stroke="#333" stroke-width="10" x1="2437.0" x2="2437.0" y1="197.0" y2="261.0" /><line stroke="#999" stroke-width="3" x1="3493.0" x2="3493.0" y1="517.0" y2="1541.0" /><line stroke="#999" stroke-width="3" x1="2405.0" x2="2405.0" y1="197.0" y2="5.0" /><line stroke="#333" stroke-width="10" x1="2405.0" x2="2341.0" y1="5.0" y2="5.0" /><line stroke="#333" stroke-width="10" x1="2405.0" x2="2437.0" y1="197.0" y2="197.0" /><line stroke="#999" stroke-width="3" x1="997.0" x2="1189.0" y1="197.0" y2="197.0" /><line stroke="#999" stroke-width="3" x1="2341.0" x2="2341.0" y1="197.0" y2="5.0" /><line stroke="#333" stroke-width="10" x1="2341.0" x2="997.0" y1="5.0" y2="5.0" /><line stroke="#333" stroke-width="10" x1="997.0" x2="997.0" y1="5.0" y2="197.0" /><line stroke="#333" stroke-width="10" x1="2309.0" x2="2341.0" y1="197.0" y2="197.0" /><line stroke="#999" stroke-width="3" x1="1189.0" x2="2309.0" y1="197.0" y2="197.0" /><line stroke="#999" stroke-width="3" x1="3237.0" x2="3493.0" y1="517.0" y2="517.0" /><line stroke="#999" stroke-width="3" x1="3589.0" x2="3589.0" y1="517.0" y2="293.0" /><line stroke="#999" stroke-width="3" x1="3461.0" x2="3237.0" y1="165.0" y2="165.0" /><line stroke="#999" stroke-width="3" x1="3237.0" x2="3237.0" y1="165.0" y2="261.0" /><line stroke="#999" stroke-width="3" x1="3493.0" x2="3589.0" y1="517.0" y2="517.0" /><line stroke="#999" stroke-width="3" x1="3589.0" x2="3461.0" y1="293.0" y2="165.0" /><line stroke="#999" stroke-width="3" x1="3237.0" x2="3237.0" y1="261.0" y2="517.0" /><line stroke="#00d" stroke-width="20" x1="2341.0" x2="2405.0" y1="197.0" y2="197.0" /><line stroke="#333" stroke-width="10" x1="2405.0" x2="2405.0" y1="261.0" y2="197.0" /><line stroke="#333" stroke-width="10" x1="2341.0" x2="2405.0" y1="261.0" y2="261.0" /><line stroke="#333" stroke-width="10" x1="2341.0" x2="2341.0" y1="197.0" y2="261.0" /><line stroke="#333" stroke-width="10" x1="3045.0" x2="3557.0" y1="2373.0" y2="1989.0" /><line stroke="#333" stroke-width="10" x1="1701.0" x2="3045.0" y1="2373.0" y2="2373.0" /><line stroke="#999" stroke-width="3" x1="1189.0" x2="1253.0" y1="1605.0" y2="1605.0" /><line stroke="#333" stroke-width="10" x1="1253.0" x2="1253.0" y1="1605.0" y2="1597.0" /><line stroke="#666" stroke-width="20" x1="1253.0" x2="1189.0" y1="1597.0" y2="1597.0" /><line stroke="#333" stroke-width="10" x1="1189.0" x2="1189.0" y1="1597.0" y2="1605.0" /><line stroke="#333" stroke-width="10" x1="1189.0" x2="1181.0" y1="1605.0" y2="1605.0" /><line stroke="#333" stroke-width="10" x1="1181.0" x2="1189.0" y1="1669.0" y2="1669.0" /><line stroke="#999" stroke-width="3" x1="1189.0" x2="1189.0" y1="1669.0" y2="1605.0" /><line stroke="#333" stroke-width="10" x1="1189.0" x2="1189.0" y1="1669.0" y2="1989.0" /><line stroke="#333" stroke-width="10" x1="1061.0" x2="1125.0" y1="1669.0" y2="1669.0" /><line stroke="#333" stroke-width="10" x1="1061.0" x2="1061.0" y1="1605.0" y2="1669.0" /><line stroke="#333" stroke-width="10" x1="1125.0" x2="1061.0" y1="1605.0" y2="1605.0" /><line stroke="#00d" stroke-width="20" x1="1125.0" x2="1125.0" y1="1605.0" y2="1669.0" /><line stroke="#333" stroke-width="10" x1="1125.0" x2="1157.0" y1="1669.0" y2="1669.0" /><line stroke="#333" stroke-width="10" x1="1157.0" x2="1181.0" y1="1669.0" y2="1669.0" /><line stroke="#999" stroke-width="3" x1="1157.0" x2="1157.0" y1="1669.0" y2="1605.0" /><line stroke="#333" stroke-width="10" x1="1181.0" x2="1157.0" y1="1605.0" y2="1605.0" /><line stroke="#999" stroke-width="3" x1="1181.0" x2="1181.0" y1="1605.0" y2="1669.0" /><line stroke="#333" stroke-width="10" x1="1157.0" x2="1125.0" y1="1605.0" y2="1605.0" /><rect fill="#900" height="48" stroke="#900" stroke-width="5" transform="rotate(90,2501.0,997.0)" width="32" x="2485.0" y="973.0" /><rect fill="#900" height="48" stroke="#900" stroke-width="5" transform="rotate(90,2277.0,1349.0)" width="32" x="2261.0" y="1325.0" /><ellipse cx="229.0" cy="1765.0" fill="#009" rx="12" ry="24" stroke="#009" stroke-width="5" /><rect fill="#009" height="24" stroke="#009" stroke-width="5" transform="rotate(315,1269.0,1461.0)" width="24" x="1257.0" y="1449.0" /><rect fill="#900" height="48" stroke="#900" stroke-width="5" transform="rotate(0,1285.0,1445.0)" width="32" x="1269.0" y="1421.0" /><rect fill="#900" height="48" stroke="#900" stroke-width="5" transform="rotate(0,1637.0,709.0)" width="32" x="1621.0" y="685.0" /><rect fill="#900" height="48" stroke="#900" stroke-width="5" transform="rotate(0,1733.0,485.0)" width="32" x="1717.0" y="461.0" /><rect fill="#900" height="48" stroke="#900" stroke-width="5" transform="rotate(0,1573.0,613.0)" width="32" x="1557.0" y="589.0" /><rect fill="#900" height="48" stroke="#900" stroke-width="5" transform="rotate(0,1509.0,549.0)" width="32" x="1493.0" y="525.0" /><rect fill="#900" height="48" stroke="#900" stroke-width="5" transform="rotate(0,1765.0,709.0)" width="32" x="1749.0" y="685.0" /><rect fill="#900" height="48" stroke="#900" stroke-width="5" transform="rotate(0,1509.0,389.0)" width="32" x="1493.0" y="365.0" /><rect fill="#900" height="48" stroke="#900" stroke-width="5" transform="rotate(0,1509.0,709.0)" width="32" x="1493.0" y="685.0" /><rect fill="#900" height="48" stroke="#900" stroke-width="5" transform="rotate(0,1605.0,485.0)" width="32" x="1589.0" y="461.0" /><rect fill="#900" height="48" stroke="#900" stroke-width="5" transform="rotate(0,1701.0,613.0)" width="32" x="1685.0" y="589.0" /><rect fill="#900" height="48" stroke="#900" stroke-width="5" transform="rotate(135,3461.0,293.0)" width="32" x="3445.0" y="269.0" /><rect fill="#900" height="48" stroke="#900" stroke-width="5" transform="rotate(0,1701.0,837.0)" width="32" x="1685.0" y="813.0" /><rect fill="#900" height="48" stroke="#900" stroke-width="5" transform="rotate(0,1573.0,837.0)" width="32" x="1557.0" y="813.0" /><rect fill="#900" height="48" stroke="#900" stroke-width="5" transform="rotate(0,1381.0,645.0)" width="32" x="1365.0" y="621.0" /><rect fill="#900" height="48" stroke="#900" stroke-width="5" transform="rotate(0,1381.0,517.0)" width="32" x="1365.0" y="493.0" /><circle cx="1221.0" cy="1637.0" fill="#009" r="16" stroke="#009" stroke-width="5" /><rect fill="#090" height="24" stroke="#090" stroke-width="5" transform="rotate(0,1117.0,1653.0)" width="24" x="1105.0" y="1641.0" /><rect fill="#090" height="24" stroke="#090" stroke-width="5" transform="rotate(0,1117.0,1621.0)" width="24" x="1105.0" y="1609.0" /><rect fill="#009" height="24" stroke="#009" stroke-width="5" transform="rotate(270,2277.0,1317.0)" width="24" x="2265.0" y="1305.0" /><ellipse cx="2373.0" cy="741.0" fill="#090" rx="12" ry="24" stroke="#090" stroke-width="5" /><rect fill="#900" height="48" stroke="#900" stroke-width="5" transform="rotate(135,3333.0,229.0)" width="32" x="3317.0" y="205.0" /><rect fill="#900" height="48" stroke="#900" stroke-width="5" transform="rotate(135,3525.0,421.0)" width="32" x="3509.0" y="397.0" /><rect fill="#900" height="48" stroke="#900" stroke-width="5" transform="rotate(135,3205.0,293.0)" width="32" x="3189.0" y="269.0" /><rect fill="#900" height="48" stroke="#900" stroke-width="5" transform="rotate(135,3205.0,357.0)" width="32" x="3189.0" y="333.0" /><rect fill="#900" height="48" stroke="#900" stroke-width="5" transform="rotate(135,3205.0,421.0)" width="32" x="3189.0" y="397.0" /><rect fill="#900" height="48" stroke="#900" stroke-width="5" transform="rotate(135,3269.0,325.0)" width="32" x="3253.0" y="301.0" /><rect fill="#900" height="48" stroke="#900" stroke-width="5" transform="rotate(135,3269.0,389.0)" width="32" x="3253.0" y="365.0" /><rect fill="#900" height="48" stroke="#900" stroke-width="5" transform="rotate(135,3269.0,453.0)" width="32" x="3253.0" y="429.0" /><rect fill="#900" height="48" stroke="#900" stroke-width="5" transform="rotate(135,3333.0,485.0)" width="32" x="3317.0" y="461.0" /><rect fill="#900" height="48" stroke="#900" stroke-width="5" transform="rotate(135,3397.0,485.0)" width="32" x="3381.0" y="461.0" /><rect fill="#900" height="48" stroke="#900" stroke-width="5" transform="rotate(135,3461.0,549.0)" width="32" x="3445.0" y="525.0" /><rect fill="#900" height="48" stroke="#900" stroke-width="5" transform="rotate(135,3397.0,549.0)" width="32" x="3381.0" y="525.0" /><rect fill="#900" height="48" stroke="#900" stroke-width="5" transform="rotate(135,3269.0,549.0)" width="32" x="3253.0" y="525.0" /><rect fill="#900" height="48" stroke="#900" stroke-width="5" transform="rotate(135,3205.0,485.0)" width="32" x="3189.0" y="461.0" /><rect fill="#900" height="48" stroke="#900" stroke-width="5" transform="rotate(135,3333.0,549.0)" width="32" x="3317.0" y="525.0" /><rect fill="#900" height="48" stroke="#900" stroke-width="5" transform="rotate(135,3461.0,485.0)" width="32" x="3445.0" y="461.0" /><circle cx="3461.0" cy="1509.0" fill="#009" r="16" stroke="#009" stroke-width="5" /><circle cx="3429.0" cy="1509.0" fill="#009" r="16" stroke="#009" stroke-width="5" /><circle cx="3493.0" cy="261.0" fill="#009" r="16" stroke="#009" stroke-width="5" /><rect fill="#900" height="48" stroke="#900" stroke-width="5" transform="rotate(0,1669.0,1573.0)" width="32" x="1653.0" y="1549.0" /><rect fill="#900" height="48" stroke="#900" stroke-width="5" transform="rotate(180,3077.0,1573.0)" width="32" x="3061.0" y="1549.0" /><rect fill="#900" height="48" stroke="#900" stroke-width="5" transform="rotate(90,2437.0,741.0)" width="32" x="2421.0" y="717.0" /><rect fill="#900" height="48" stroke="#900" stroke-width="5" transform="rotate(90,2309.0,741.0)" width="32" x="2293.0" y="717.0" /><rect fill="#900" height="48" stroke="#900" stroke-width="5" transform="rotate(270,2053.0,1189.0)" width="32" x="2037.0" y="1165.0" /><rect fill="#900" height="48" stroke="#900" stroke-width="5" transform="rotate(270,2373.0,1189.0)" width="32" x="2357.0" y="1165.0" /><rect fill="#900" height="48" stroke="#900" stroke-width="5" transform="rotate(270,2693.0,1189.0)" width="32" x="2677.0" y="1165.0" /><circle cx="1221.0" cy="1637.0" fill="#009" r="16" stroke="#009" stroke-width="5" /><circle cx="645.0" cy="1765.0" fill="#900" r="16" stroke="#900" stroke-width="5" /><circle cx="613.0" cy="1765.0" fill="#900" r="16" stroke="#900" stroke-width="5" /><circle cx="581.0" cy="1765.0" fill="#900" r="16" stroke="#900" stroke-width="5" /><circle cx="549.0" cy="1765.0" fill="#900" r="16" stroke="#900" stroke-width="5" /><circle cx="485.0" cy="1765.0" fill="#900" r="16" stroke="#900" stroke-width="5" /><circle cx="485.0" cy="1765.0" fill="#900" r="16" stroke="#900" stroke-width="5" /><circle cx="485.0" cy="1765.0" fill="#900" r="16" stroke="#900" stroke-width="5" /><circle cx="453.0" cy="1765.0" fill="#090" r="16" stroke="#090" stroke-width="5" /><circle cx="421.0" cy="1765.0" fill="#090" r="16" stroke="#090" stroke-width="5" /><circle cx="421.0" cy="1765.0" fill="#090" r="16" stroke="#090" stroke-width="5" /><rect fill="#090" height="24" stroke="#090" stroke-width="5" transform="rotate(0,245.0,1765.0)" width="24" x="233.0" y="1753.0" /><circle cx="453.0" cy="1765.0" fill="#090" r="16" stroke="#090" stroke-width="5" /><circle cx="453.0" cy="1765.0" fill="#090" r="16" stroke="#090" stroke-width="5" /><circle cx="453.0" cy="1765.0" fill="#090" r="16" stroke="#090" stroke-width="5" /><circle cx="389.0" cy="1765.0" fill="#090" r="16" stroke="#090" stroke-width="5" /><circle cx="389.0" cy="1765.0" fill="#090" r="16" stroke="#090" stroke-width="5" /><circle cx="389.0" cy="1765.0" fill="#090" r="16" stroke="#090" stroke-width="5" /><circle cx="389.0" cy="1765.0" fill="#090" r="16" stroke="#090" stroke-width="5" /><circle cx="389.0" cy="1765.0" fill="#090" r="16" stroke="#090" stroke-width="5" /><circle cx="1221.0" cy="1509.0" fill="#090" r="16" stroke="#090" stroke-width="5" /><circle cx="1221.0" cy="1509.0" fill="#090" r="16" stroke="#090" stroke-width="5" /><circle cx="1221.0" cy="1509.0" fill="#090" r="16" stroke="#090" stroke-width="5" /><circle cx="1221.0" cy="1509.0" fill="#090" r="16" stroke="#090" stroke-width="5" /><circle cx="2277.0" cy="229.0" fill="#090" r="16" stroke="#090" stroke-width="5" /><circle cx="2277.0" cy="229.0" fill="#090" r="16" stroke="#090" stroke-width="5" /><circle cx="2277.0" cy="229.0" fill="#090" r="16" stroke="#090" stroke-width="5" /><circle cx="2277.0" cy="229.0" fill="#090" r="16" stroke="#090" stroke-width="5" /><circle cx="2469.0" cy="293.0" fill="#090" r="16" stroke="#090" stroke-width="5" /><circle cx="2469.0" cy="293.0" fill="#090" r="16" stroke="#090" stroke-width="5" /><circle cx="2469.0" cy="293.0" fill="#090" r="16" stroke="#090" stroke-width="5" /><circle cx="2469.0" cy="293.0" fill="#090" r="16" stroke="#090" stroke-width="5" /><circle cx="3525.0" cy="1637.0" fill="#090" r="16" stroke="#090" stroke-width="5" /><circle cx="3525.0" cy="1637.0" fill="#090" r="16" stroke="#090" stroke-width="5" /><circle cx="3525.0" cy="1637.0" fill="#090" r="16" stroke="#090" stroke-width="5" /><circle cx="3525.0" cy="1637.0" fill="#090" r="16" stroke="#090" stroke-width="5" /><circle cx="3525.0" cy="1637.0" fill="#090" r="16" stroke="#090" stroke-width="5" /><circle cx="3525.0" cy="1637.0" fill="#090" r="16" stroke="#090" stroke-width="5" /><circle cx="3525.0" cy="1637.0" fill="#090" r="16" stroke="#090" stroke-width="5" /><circle cx="3525.0" cy="1637.0" fill="#090" r="16" stroke="#090" stroke-width="5" /><circle cx="3525.0" cy="1637.0" fill="#090" r="16" stroke="#090" stroke-width="5" /><circle cx="3525.0" cy="1637.0" fill="#090" r="16" stroke="#090" stroke-width="5" /><circle cx="2469.0" cy="293.0" fill="#090" r="16" stroke="#090" stroke-width="5" /><circle cx="2469.0" cy="293.0" fill="#090" r="16" stroke="#090" stroke-width="5" /><circle cx="2277.0" cy="229.0" fill="#090" r="16" stroke="#090" stroke-width="5" /><circle cx="2277.0" cy="229.0" fill="#090" r="16" stroke="#090" stroke-width="5" /><circle cx="1221.0" cy="1509.0" fill="#090" r="16" stroke="#090" stroke-width="5" /><circle cx="1221.0" cy="1509.0" fill="#090" r="16" stroke="#090" stroke-width="5" /><circle cx="1285.0" cy="1509.0" fill="#090" r="16" stroke="#090" stroke-width="5" /><circle cx="1285.0" cy="1509.0" fill="#090" r="16" stroke="#090" stroke-width="5" /><circle cx="3429.0" cy="197.0" fill="#090" r="16" stroke="#090" stroke-width="5" /><circle cx="3557.0" cy="325.0" fill="#090" r="16" stroke="#090" stroke-width="5" /><circle cx="3269.0" cy="197.0" fill="#090" r="16" stroke="#090" stroke-width="5" /><circle cx="3557.0" cy="485.0" fill="#090" r="16" stroke="#090" stroke-width="5" /><circle cx="2277.0" cy="293.0" fill="#090" r="16" stroke="#090" stroke-width="5" /><circle cx="2277.0" cy="325.0" fill="#090" r="16" stroke="#090" stroke-width="5" /><circle cx="2277.0" cy="357.0" fill="#090" r="16" stroke="#090" stroke-width="5" /><circle cx="2277.0" cy="389.0" fill="#090" r="16" stroke="#090" stroke-width="5" /><circle cx="2277.0" cy="389.0" fill="#090" r="16" stroke="#090" stroke-width="5" /><circle cx="2277.0" cy="357.0" fill="#090" r="16" stroke="#090" stroke-width="5" /><circle cx="2277.0" cy="325.0" fill="#090" r="16" stroke="#090" stroke-width="5" /><circle cx="2277.0" cy="293.0" fill="#090" r="16" stroke="#090" stroke-width="5" /><circle cx="2277.0" cy="293.0" fill="#090" r="16" stroke="#090" stroke-width="5" /><circle cx="2277.0" cy="325.0" fill="#090" r="16" stroke="#090" stroke-width="5" /><circle cx="2277.0" cy="357.0" fill="#090" r="16" stroke="#090" stroke-width="5" /><circle cx="2277.0" cy="389.0" fill="#090" r="16" stroke="#090" stroke-width="5" /><circle cx="2469.0" cy="357.0" fill="#090" r="16" stroke="#090" stroke-width="5" /><circle cx="2469.0" cy="357.0" fill="#090" r="16" stroke="#090" stroke-width="5" /><circle cx="2469.0" cy="357.0" fill="#090" r="16" stroke="#090" stroke-width="5" /><circle cx="2469.0" cy="357.0" fill="#090" r="16" stroke="#090" stroke-width="5" /><circle cx="2469.0" cy="357.0" fill="#090" r="16" stroke="#090" stroke-width="5" /><rect fill="#900" height="48" stroke="#900" stroke-width="5" transform="rotate(270,2341.0,2213.0)" width="32" x="2325.0" y="2189.0" /><rect fill="#900" height="48" stroke="#900" stroke-width="5" transform="rotate(270,2021.0,2277.0)" width="32" x="2005.0" y="2253.0" /><rect fill="#900" height="48" stroke="#900" stroke-width="5" transform="rotate(270,2021.0,2117.0)" width="32" x="2005.0" y="2093.0" /><rect fill="#900" height="48" stroke="#900" stroke-width="5" transform="rotate(270,2661.0,2277.0)" width="32" x="2645.0" y="2253.0" /><rect fill="#900" height="48" stroke="#900" stroke-width="5" transform="rotate(270,2661.0,2117.0)" width="32" x="2645.0" y="2093.0" /><rect fill="#900" height="48" stroke="#900" stroke-width="5" transform="rotate(270,2341.0,2309.0)" width="32" x="2325.0" y="2285.0" /><rect fill="#900" height="48" stroke="#900" stroke-width="5" transform="rotate(270,2469.0,2309.0)" width="32" x="2453.0" y="2285.0" /><circle cx="3461.0" cy="1637.0" fill="#090" r="16" stroke="#090" stroke-width="5" /><circle cx="3461.0" cy="1637.0" fill="#090" r="16" stroke="#090" stroke-width="5" /><circle cx="3461.0" cy="1637.0" fill="#090" r="16" stroke="#090" stroke-width="5" /><circle cx="3461.0" cy="1637.0" fill="#090" r="16" stroke="#090" stroke-width="5" /><circle cx="3461.0" cy="1637.0" fill="#090" r="16" stroke="#090" stroke-width="5" /><circle cx="3461.0" cy="1637.0" fill="#090" r="16" stroke="#090" stroke-width="5" /><circle cx="3461.0" cy="1637.0" fill="#090" r="16" stroke="#090" stroke-width="5" /><circle cx="3461.0" cy="1637.0" fill="#090" r="16" stroke="#090" stroke-width="5" /><ellipse cx="165.0" cy="1765.0" fill="#009" rx="12" ry="24" stroke="#009" stroke-width="5" /><ellipse cx="101.0" cy="1765.0" fill="#009" rx="12" ry="24" stroke="#009" stroke-width="5" /><ellipse cx="37.0" cy="1765.0" fill="#009" rx="12" ry="24" stroke="#009" stroke-width="5" /><circle cx="2373.0" cy="1253.0" fill="#900" r="16" stroke="#900" stroke-width="5" /><circle cx="2373.0" cy="805.0" fill="#900" r="16" stroke="#900" stroke-width="5" /><circle cx="3269.0" cy="485.0" fill="#900" r="16" stroke="#900" stroke-width="5" /><circle cx="1253.0" cy="261.0" fill="#900" r="16" stroke="#900" stroke-width="5" /><circle cx="1541.0" cy="1477.0" fill="#900" r="16" stroke="#900" stroke-width="5" /><circle cx="3429.0" cy="1445.0" fill="#900" r="16" stroke="#900" stroke-width="5" /><circle cx="2565.0" cy="325.0" fill="#900" r="16" stroke="#900" stroke-width="5" /><rect fill="#090" height="24" stroke="#090" stroke-width="5" transform="rotate(225,3461.0,1477.0)" width="24" x="3449.0" y="1465.0" /><rect fill="#090" height="24" stroke="#090" stroke-width="5" transform="rotate(225,1573.0,1509.0)" width="24" x="1561.0" y="1497.0" /><rect fill="#090" height="24" stroke="#090" stroke-width="5" transform="rotate(45,2533.0,293.0)" width="24" x="2521.0" y="281.0" /><rect fill="#090" height="24" stroke="#090" stroke-width="5" transform="rotate(45,1221.0,229.0)" width="24" x="1209.0" y="217.0" /><circle cx="2373.0" cy="1669.0" fill="#009" r="16" stroke="#009" stroke-width="5" /><circle cx="677.0" cy="1765.0" fill="#009" r="16" stroke="#009" stroke-width="5" /><circle cx="709.0" cy="1765.0" fill="#009" r="16" stroke="#009" stroke-width="5" /><circle cx="2341.0" cy="2341.0" fill="#900" r="16" stroke="#900" stroke-width="5" /><circle cx="2405.0" cy="1253.0" fill="#090" r="16" stroke="#090" stroke-width="5" /><circle cx="2341.0" cy="1253.0" fill="#090" r="16" stroke="#090" stroke-width="5" /><circle cx="2373.0" cy="1285.0" fill="#090" r="16" stroke="#090" stroke-width="5" /><circle cx="2373.0" cy="1221.0" fill="#090" r="16" stroke="#090" stroke-width="5" /><rect fill="#900" height="48" stroke="#900" stroke-width="5" transform="rotate(90,2213.0,997.0)" width="32" x="2197.0" y="973.0" /><circle cx="3173.0" cy="1509.0" fill="#090" r="16" stroke="#090" stroke-width="5" /><circle cx="3173.0" cy="1637.0" fill="#090" r="16" stroke="#090" stroke-width="5" /><circle cx="1165.0" cy="1637.0" fill="#090" r="16" stroke="#090" stroke-width="5" /><rect fill="#900" height="48" stroke="#900" stroke-width="5" transform="rotate(270,2213.0,2309.0)" width="32" x="2197.0" y="2285.0" /><circle cx="2373.0" cy="197.0" fill="#009" r="16" stroke="#009" stroke-width="5" /><circle cx="1733.0" cy="2341.0" fill="#090" r="16" stroke="#090" stroke-width="5" /><circle cx="3013.0" cy="2341.0" fill="#090" r="16" stroke="#090" stroke-width="5" /><circle cx="517.0" cy="1765.0" fill="#090" r="16" stroke="#090" stroke-width="5" /><circle cx="517.0" cy="1765.0" fill="#090" r="16" stroke="#090" stroke-width="5" /></svg>