<?xml version="1.0" encoding="utf-8" ?>
<svg baseProfile="tiny" height="1024" version="1.2" viewBox="0 0 3082 3082" width="1024" xmlns="http://www.w3.org/2000/svg" xmlns:ev="http://www.w3.org/2001/xml-events" xmlns:xlink="http://www.w3.org/1999/xlink"><defs /><line stroke="#999" stroke-width="3" x1="517.0" x2="517.0" y1="1093.0" y2="1989.0" /><line stroke="#999" stroke-width="3" x1="1989.0" x2="1093.0" y1="517.0" y2="517.0" /><line stroke="#999" stroke-width="3" x1="2565.0" x2="2565.0" y1="1989.0" y2="1093.0" /><line stroke="#999" stroke-width="3" x1="1093.0" x2="1989.0" y1="2565.0" y2="2565.0" /><line stroke="#999" stroke-width="3" x1="2565.0" x2="1989.0" y1="1093.0" y2="517.0" /><line stroke="#999" stroke-width="3" x1="517.0" x2="1093.0" y1="1989.0" y2="2565.0" /><line stroke="#999" stroke-width="3" x1="1093.0" x2="517.0" y1="517.0" y2="1093.0" /><line stroke="#999" stroke-width="3" x1="1989.0" x2="2565.0" y1="2565.0" y2="1989.0" /><line stroke="#999" stroke-width="3" x1="581.0" x2="1157.0" y1="1093.0" y2="1093.0" /><line stroke="#999" stroke-width="3" x1="1157.0" x2="1413.0" y1="1093.0" y2="1413.0" /><line stroke="#999" stroke-width="3" x1="1477.0" x2="1477.0" y1="1349.0" y2="901.0" /><line stroke="#999" stroke-width="3" x1="1477.0" x2="1093.0" y1="901.0" y2="581.0" /><line stroke="#999" stroke-width="3" x1="1637.0" x2="1669.0" y1="1637.0" y2="1541.0" /><line stroke="#999" stroke-width="3" x1="1637.0" x2="1541.0" y1="1445.0" y2="1413.0" /><line stroke="#999" stroke-width="3" x1="1445.0" x2="1413.0" y1="1445.0" y2="1541.0" /><line stroke="#999" stroke-width="3" x1="1445.0" x2="1541.0" y1="1637.0" y2="1669.0" /><line stroke="#999" stroke-width="3" x1="1093.0" x2="581.0" y1="581.0" y2="1093.0" /><line stroke="#999" stroke-width="3" x1="1413.0" x2="1477.0" y1="1413.0" y2="1349.0" /><line stroke="#999" stroke-width="3" x1="1669.0" x2="1637.0" y1="1541.0" y2="1445.0" /><line stroke="#999" stroke-width="3" x1="1541.0" x2="1637.0" y1="1669.0" y2="1637.0" /><line stroke="#999" stroke-width="3" x1="1413.0" x2="1445.0" y1="1541.0" y2="1637.0" /><line stroke="#999" stroke-width="3" x1="1541.0" x2="1445.0" y1="1413.0" y2="1445.0" /><line stroke="#999" stroke-width="3" x1="1541.0" x2="1605.0" y1="1349.0" y2="1349.0" /><line stroke="#999" stroke-width="3" x1="1925.0" x2="1157.0" y1="581.0" y2="581.0" /><line stroke="#999" stroke-width="3" x1="1925.0" x2="1925.0" y1="1093.0" y2="581.0" /><line stroke="#999" stroke-width="3" x1="1605.0" x2="1925.0" y1="1349.0" y2="1093.0" /><line stroke="#999" stroke-width="3" x1="1541.0" x2="1541.0" y1="901.0" y2="1349.0" /><line stroke="#999" stroke-width="3" x1="1157.0" x2="1541.0" y1="581.0" y2="901.0" /><line stroke="#999" stroke-width="3" x1="1669.0" x2="1733.0" y1="1413.0" y2="1477.0" /><line stroke="#999" stroke-width="3" x1="1733.0" x2="2181.0" y1="1477.0" y2="1477.0" /><line stroke="#999" stroke-width="3" x1="2501.0" x2="1989.0" y1="1093.0" y2="581.0" /><line stroke="#999" stroke-width="3" x1="1989.0" x2="1989.0" y1="581.0" y2="1157.0" /><line stroke="#999" stroke-width="3" x1="1989.0" x2="1669.0" y1="1157.0" y2="1413.0" /><line stroke="#999" stroke-width="3" x1="2181.0" x2="2501.0" y1="1477.0" y2="1093.0" /><line stroke="#999" stroke-width="3" x1="2501.0" x2="2181.0" y1="1157.0" y2="1541.0" /><line stroke="#999" stroke-width="3" x1="1733.0" x2="1989.0" y1="1605.0" y2="1925.0" /><line stroke="#999" stroke-width="3" x1="1733.0" x2="1733.0" y1="1541.0" y2="1605.0" /><line stroke="#999" stroke-width="3" x1="2181.0" x2="1733.0" y1="1541.0" y2="1541.0" /><line stroke="#999" stroke-width="3" x1="2501.0" x2="2501.0" y1="1925.0" y2="1157.0" /><line stroke="#999" stroke-width="3" x1="1989.0" x2="2501.0" y1="1925.0" y2="1925.0" /><line stroke="#999" stroke-width="3" x1="2501.0" x2="1925.0" y1="1989.0" y2="1989.0" /><line stroke="#999" stroke-width="3" x1="1925.0" x2="1669.0" y1="1989.0" y2="1669.0" /><line stroke="#999" stroke-width="3" x1="1605.0" x2="1605.0" y1="1733.0" y2="2181.0" /><line stroke="#999" stroke-width="3" x1="1605.0" x2="1989.0" y1="2181.0" y2="2501.0" /><line stroke="#999" stroke-width="3" x1="1989.0" x2="2501.0" y1="2501.0" y2="1989.0" /><line stroke="#999" stroke-width="3" x1="1669.0" x2="1605.0" y1="1669.0" y2="1733.0" /><line stroke="#999" stroke-width="3" x1="1541.0" x2="1477.0" y1="1733.0" y2="1733.0" /><line stroke="#999" stroke-width="3" x1="1157.0" x2="1925.0" y1="2501.0" y2="2501.0" /><line stroke="#999" stroke-width="3" x1="1157.0" x2="1157.0" y1="1989.0" y2="2501.0" /><line stroke="#999" stroke-width="3" x1="1477.0" x2="1157.0" y1="1733.0" y2="1989.0" /><line stroke="#999" stroke-width="3" x1="1541.0" x2="1541.0" y1="2181.0" y2="1733.0" /><line stroke="#999" stroke-width="3" x1="1925.0" x2="1541.0" y1="2501.0" y2="2181.0" /><line stroke="#999" stroke-width="3" x1="1349.0" x2="1093.0" y1="1477.0" y2="1157.0" /><line stroke="#999" stroke-width="3" x1="1093.0" x2="581.0" y1="1157.0" y2="1157.0" /><line stroke="#999" stroke-width="3" x1="581.0" x2="901.0" y1="1925.0" y2="1541.0" /><line stroke="#999" stroke-width="3" x1="901.0" x2="1349.0" y1="1541.0" y2="1541.0" /><line stroke="#999" stroke-width="3" x1="1349.0" x2="1349.0" y1="1541.0" y2="1477.0" /><line stroke="#999" stroke-width="3" x1="581.0" x2="581.0" y1="1157.0" y2="1925.0" /><line stroke="#999" stroke-width="3" x1="901.0" x2="581.0" y1="1605.0" y2="1989.0" /><line stroke="#999" stroke-width="3" x1="1093.0" x2="1413.0" y1="1925.0" y2="1669.0" /><line stroke="#999" stroke-width="3" x1="1093.0" x2="1093.0" y1="2501.0" y2="1925.0" /><line stroke="#999" stroke-width="3" x1="581.0" x2="1093.0" y1="1989.0" y2="2501.0" /><line stroke="#999" stroke-width="3" x1="1349.0" x2="901.0" y1="1605.0" y2="1605.0" /><line stroke="#999" stroke-width="3" x1="1413.0" x2="1349.0" y1="1669.0" y2="1605.0" /><line stroke="#333" stroke-width="10" x1="2053.0" x2="1029.0" y1="5.0" y2="5.0" /><line stroke="#333" stroke-width="10" x1="3077.0" x2="2053.0" y1="1029.0" y2="5.0" /><line stroke="#333" stroke-width="10" x1="3077.0" x2="3077.0" y1="2053.0" y2="1029.0" /><line stroke="#333" stroke-width="10" x1="2053.0" x2="3077.0" y1="3077.0" y2="2053.0" /><line stroke="#333" stroke-width="10" x1="1029.0" x2="2053.0" y1="3077.0" y2="3077.0" /><line stroke="#333" stroke-width="10" x1="5.0" x2="1029.0" y1="2053.0" y2="3077.0" /><line stroke="#333" stroke-width="10" x1="5.0" x2="5.0" y1="1029.0" y2="2053.0" /><line stroke="#333" stroke-width="10" x1="1029.0" x2="5.0" y1="5.0" y2="1029.0" /><line stroke="#999" stroke-width="3" x1="645.0" x2="668.0" y1="645.0" y2="637.0" /><line stroke="#999" stroke-width="3" x1="645.0" x2="636.0" y1="689.0" y2="667.0" /><line stroke="#999" stroke-width="3" x1="691.0" x2="668.0" y1="689.0" y2="697.0" /><line stroke="#999" stroke-width="3" x1="691.0" x2="700.0" y1="645.0" y2="667.0" /><line stroke="#999" stroke-width="3" x1="668.0" x2="691.0" y1="637.0" y2="645.0" /><line stroke="#999" stroke-width="3" x1="700.0" x2="691.0" y1="667.0" y2="689.0" /><line stroke="#999" stroke-width="3" x1="668.0" x2="645.0" y1="697.0" y2="689.0" /><line stroke="#999" stroke-width="3" x1="636.0" x2="645.0" y1="667.0" y2="645.0" /><line stroke="#333" stroke-width="10" x1="2382.0" x2="2391.0" y1="667.0" y2="645.0" /><line stroke="#333" stroke-width="10" x1="2414.0" x2="2391.0" y1="697.0" y2="689.0" /><line stroke="#333" stroke-width="10" x1="2446.0" x2="2437.0" y1="667.0" y2="689.0" /><line stroke="#333" stroke-width="10" x1="2414.0" x2="2437.0" y1="637.0" y2="645.0" /><line stroke="#333" stroke-width="10" x1="2437.0" x2="2446.0" y1="645.0" y2="667.0" /><line stroke="#333" stroke-width="10" x1="2437.0" x2="2414.0" y1="689.0" y2="697.0" /><line stroke="#333" stroke-width="10" x1="2391.0" x2="2382.0" y1="689.0" y2="667.0" /><line stroke="#333" stroke-width="10" x1="2391.0" x2="2414.0" y1="645.0" y2="637.0" /><line stroke="#333" stroke-width="10" x1="2414.0" x2="2437.0" y1="2385.0" y2="2393.0" /><line stroke="#333" stroke-width="10" x1="2437.0" x2="2446.0" y1="2393.0" y2="2415.0" /><line stroke="#333" stroke-width="10" x1="2437.0" x2="2414.0" y1="2437.0" y2="2445.0" /><line stroke="#333" stroke-width="10" x1="2391.0" x2="2382.0" y1="2437.0" y2="2415.0" /><line stroke="#333" stroke-width="10" x1="2391.0" x2="2414.0" y1="2393.0" y2="2385.0" /><line stroke="#333" stroke-width="10" x1="2382.0" x2="2391.0" y1="2415.0" y2="2393.0" /><line stroke="#333" stroke-width="10" x1="2414.0" x2="2391.0" y1="2445.0" y2="2437.0" /><line stroke="#333" stroke-width="10" x1="2446.0" x2="2437.0" y1="2415.0" y2="2437.0" /><line stroke="#999" stroke-width="3" x1="691.0" x2="668.0" y1="2437.0" y2="2445.0" /><line stroke="#999" stroke-width="3" x1="645.0" x2="636.0" y1="2437.0" y2="2415.0" /><line stroke="#999" stroke-width="3" x1="645.0" x2="668.0" y1="2393.0" y2="2385.0" /><line stroke="#999" stroke-width="3" x1="636.0" x2="645.0" y1="2415.0" y2="2393.0" /><line stroke="#999" stroke-width="3" x1="668.0" x2="645.0" y1="2445.0" y2="2437.0" /><line stroke="#999" stroke-width="3" x1="700.0" x2="691.0" y1="2415.0" y2="2437.0" /><line stroke="#999" stroke-width="3" x1="668.0" x2="691.0" y1="2385.0" y2="2393.0" /><line stroke="#999" stroke-width="3" x1="691.0" x2="700.0" y1="2393.0" y2="2415.0" /></svg>