<?xml version="1.0" encoding="utf-8" ?>
<svg baseProfile="tiny" height="1024" version="1.2" viewBox="0 0 2058 2250" width="936" xmlns="http://www.w3.org/2000/svg" xmlns:ev="http://www.w3.org/2001/xml-events" xmlns:xlink="http://www.w3.org/1999/xlink"><defs /><line stroke="#333" stroke-width="10" x1="1285.0" x2="1285.0" y1="453.0" y2="197.0" /><line stroke="#333" stroke-width="10" x1="1285.0" x2="1253.0" y1="197.0" y2="197.0" /><line stroke="#333" stroke-width="10" x1="773.0" x2="773.0" y1="581.0" y2="965.0" /><line stroke="#333" stroke-width="10" x1="261.0" x2="5.0" y1="965.0" y2="965.0" /><line stroke="#333" stroke-width="10" x1="5.0" x2="5.0" y1="965.0" y2="1477.0" /><line stroke="#333" stroke-width="10" x1="389.0" x2="773.0" y1="1477.0" y2="1477.0" /><line stroke="#333" stroke-width="10" x1="773.0" x2="773.0" y1="1989.0" y2="2245.0" /><line stroke="#333" stroke-width="10" x1="773.0" x2="1285.0" y1="2245.0" y2="2245.0" /><line stroke="#333" stroke-width="10" x1="1285.0" x2="1285.0" y1="1861.0" y2="1477.0" /><line stroke="#333" stroke-width="10" x1="1797.0" x2="2053.0" y1="1477.0" y2="1477.0" /><line stroke="#333" stroke-width="10" x1="2053.0" x2="2053.0" y1="1477.0" y2="965.0" /><line stroke="#333" stroke-width="10" x1="1669.0" x2="1285.0" y1="965.0" y2="965.0" /><line stroke="#333" stroke-width="10" x1="389.0" x2="389.0" y1="1493.0" y2="1477.0" /><line stroke="#333" stroke-width="10" x1="389.0" x2="389.0" y1="1525.0" y2="1493.0" /><line stroke="#333" stroke-width="10" x1="261.0" x2="261.0" y1="1477.0" y2="1493.0" /><line stroke="#999" stroke-width="3" x1="1669.0" x2="1797.0" y1="1477.0" y2="1477.0" /><line stroke="#333" stroke-width="10" x1="261.0" x2="261.0" y1="1525.0" y2="1541.0" /><line stroke="#999" stroke-width="3" x1="389.0" x2="261.0" y1="1525.0" y2="1525.0" /><line stroke="#333" stroke-width="10" x1="389.0" x2="389.0" y1="1541.0" y2="1525.0" /><line stroke="#333" stroke-width="10" x1="261.0" x2="261.0" y1="1493.0" y2="1525.0" /><line stroke="#333" stroke-width="10" x1="5.0" x2="709.0" y1="2245.0" y2="2245.0" /><line stroke="#333" stroke-width="10" x1="709.0" x2="709.0" y1="2245.0" y2="1989.0" /><line stroke="#333" stroke-width="10" x1="709.0" x2="389.0" y1="1541.0" y2="1541.0" /><line stroke="#333" stroke-width="10" x1="5.0" x2="5.0" y1="1541.0" y2="2245.0" /><line stroke="#999" stroke-width="3" x1="709.0" x2="709.0" y1="1989.0" y2="1861.0" /><line stroke="#333" stroke-width="10" x1="709.0" x2="709.0" y1="1861.0" y2="1541.0" /><line stroke="#999" stroke-width="3" x1="389.0" x2="261.0" y1="1541.0" y2="1541.0" /><line stroke="#333" stroke-width="10" x1="261.0" x2="5.0" y1="1541.0" y2="1541.0" /><line stroke="#666" stroke-width="20" x1="261.0" x2="389.0" y1="1493.0" y2="1493.0" /><line stroke="#333" stroke-width="10" x1="1285.0" x2="1669.0" y1="1477.0" y2="1477.0" /><line stroke="#333" stroke-width="10" x1="1285.0" x2="1285.0" y1="2245.0" y2="1989.0" /><line stroke="#666" stroke-width="20" x1="757.0" x2="757.0" y1="1861.0" y2="1989.0" /><line stroke="#333" stroke-width="10" x1="709.0" x2="725.0" y1="1989.0" y2="1989.0" /><line stroke="#999" stroke-width="3" x1="725.0" x2="725.0" y1="1989.0" y2="1861.0" /><line stroke="#333" stroke-width="10" x1="725.0" x2="709.0" y1="1861.0" y2="1861.0" /><line stroke="#333" stroke-width="10" x1="725.0" x2="757.0" y1="1989.0" y2="1989.0" /><line stroke="#333" stroke-width="10" x1="773.0" x2="757.0" y1="1861.0" y2="1861.0" /><line stroke="#333" stroke-width="10" x1="757.0" x2="725.0" y1="1861.0" y2="1861.0" /><line stroke="#333" stroke-width="10" x1="757.0" x2="773.0" y1="1989.0" y2="1989.0" /><line stroke="#999" stroke-width="3" x1="1285.0" x2="1285.0" y1="1989.0" y2="1861.0" /><line stroke="#333" stroke-width="10" x1="1301.0" x2="1285.0" y1="1861.0" y2="1861.0" /><line stroke="#333" stroke-width="10" x1="1333.0" x2="1301.0" y1="1861.0" y2="1861.0" /><line stroke="#333" stroke-width="10" x1="1285.0" x2="1301.0" y1="1989.0" y2="1989.0" /><line stroke="#999" stroke-width="3" x1="773.0" x2="773.0" y1="1861.0" y2="1989.0" /><line stroke="#333" stroke-width="10" x1="1333.0" x2="1349.0" y1="1989.0" y2="1989.0" /><line stroke="#999" stroke-width="3" x1="1333.0" x2="1333.0" y1="1861.0" y2="1989.0" /><line stroke="#333" stroke-width="10" x1="1349.0" x2="1333.0" y1="1861.0" y2="1861.0" /><line stroke="#333" stroke-width="10" x1="1301.0" x2="1333.0" y1="1989.0" y2="1989.0" /><line stroke="#333" stroke-width="10" x1="2053.0" x2="2053.0" y1="2245.0" y2="1541.0" /><line stroke="#333" stroke-width="10" x1="2053.0" x2="1797.0" y1="1541.0" y2="1541.0" /><line stroke="#333" stroke-width="10" x1="1349.0" x2="1349.0" y1="1541.0" y2="1861.0" /><line stroke="#333" stroke-width="10" x1="1349.0" x2="2053.0" y1="2245.0" y2="2245.0" /><line stroke="#999" stroke-width="3" x1="1797.0" x2="1669.0" y1="1541.0" y2="1541.0" /><line stroke="#333" stroke-width="10" x1="1669.0" x2="1349.0" y1="1541.0" y2="1541.0" /><line stroke="#999" stroke-width="3" x1="1349.0" x2="1349.0" y1="1861.0" y2="1989.0" /><line stroke="#333" stroke-width="10" x1="1349.0" x2="1349.0" y1="1989.0" y2="2245.0" /><line stroke="#666" stroke-width="20" x1="1301.0" x2="1301.0" y1="1989.0" y2="1861.0" /><line stroke="#666" stroke-width="20" x1="1669.0" x2="1797.0" y1="1493.0" y2="1493.0" /><line stroke="#333" stroke-width="10" x1="1797.0" x2="1797.0" y1="1541.0" y2="1525.0" /><line stroke="#999" stroke-width="3" x1="1797.0" x2="1669.0" y1="1525.0" y2="1525.0" /><line stroke="#333" stroke-width="10" x1="1669.0" x2="1669.0" y1="1525.0" y2="1541.0" /><line stroke="#333" stroke-width="10" x1="1797.0" x2="1797.0" y1="1525.0" y2="1493.0" /><line stroke="#333" stroke-width="10" x1="1669.0" x2="1669.0" y1="1477.0" y2="1493.0" /><line stroke="#333" stroke-width="10" x1="1669.0" x2="1669.0" y1="1493.0" y2="1525.0" /><line stroke="#333" stroke-width="10" x1="1797.0" x2="1797.0" y1="1493.0" y2="1477.0" /><line stroke="#999" stroke-width="3" x1="261.0" x2="389.0" y1="1477.0" y2="1477.0" /><line stroke="#333" stroke-width="10" x1="5.0" x2="261.0" y1="1477.0" y2="1477.0" /><line stroke="#333" stroke-width="10" x1="773.0" x2="773.0" y1="1477.0" y2="1861.0" /><line stroke="#333" stroke-width="10" x1="757.0" x2="773.0" y1="581.0" y2="581.0" /><line stroke="#333" stroke-width="10" x1="725.0" x2="757.0" y1="581.0" y2="581.0" /><line stroke="#333" stroke-width="10" x1="773.0" x2="757.0" y1="453.0" y2="453.0" /><line stroke="#999" stroke-width="3" x1="1285.0" x2="1285.0" y1="581.0" y2="453.0" /><line stroke="#333" stroke-width="10" x1="725.0" x2="709.0" y1="453.0" y2="453.0" /><line stroke="#999" stroke-width="3" x1="725.0" x2="725.0" y1="581.0" y2="453.0" /><line stroke="#333" stroke-width="10" x1="709.0" x2="725.0" y1="581.0" y2="581.0" /><line stroke="#333" stroke-width="10" x1="757.0" x2="725.0" y1="453.0" y2="453.0" /><line stroke="#333" stroke-width="10" x1="5.0" x2="5.0" y1="197.0" y2="901.0" /><line stroke="#333" stroke-width="10" x1="5.0" x2="261.0" y1="901.0" y2="901.0" /><line stroke="#333" stroke-width="10" x1="709.0" x2="709.0" y1="901.0" y2="581.0" /><line stroke="#333" stroke-width="10" x1="709.0" x2="517.0" y1="197.0" y2="197.0" /><line stroke="#999" stroke-width="3" x1="261.0" x2="389.0" y1="901.0" y2="901.0" /><line stroke="#333" stroke-width="10" x1="389.0" x2="709.0" y1="901.0" y2="901.0" /><line stroke="#999" stroke-width="3" x1="709.0" x2="709.0" y1="581.0" y2="453.0" /><line stroke="#333" stroke-width="10" x1="709.0" x2="709.0" y1="453.0" y2="197.0" /><line stroke="#666" stroke-width="20" x1="757.0" x2="757.0" y1="453.0" y2="581.0" /><line stroke="#666" stroke-width="20" x1="389.0" x2="261.0" y1="949.0" y2="949.0" /><line stroke="#333" stroke-width="10" x1="261.0" x2="261.0" y1="901.0" y2="917.0" /><line stroke="#999" stroke-width="3" x1="261.0" x2="389.0" y1="917.0" y2="917.0" /><line stroke="#333" stroke-width="10" x1="389.0" x2="389.0" y1="917.0" y2="901.0" /><line stroke="#333" stroke-width="10" x1="261.0" x2="261.0" y1="917.0" y2="949.0" /><line stroke="#333" stroke-width="10" x1="389.0" x2="389.0" y1="965.0" y2="949.0" /><line stroke="#333" stroke-width="10" x1="389.0" x2="389.0" y1="949.0" y2="917.0" /><line stroke="#333" stroke-width="10" x1="261.0" x2="261.0" y1="949.0" y2="965.0" /><line stroke="#999" stroke-width="3" x1="1797.0" x2="1669.0" y1="965.0" y2="965.0" /><line stroke="#333" stroke-width="10" x1="1285.0" x2="1285.0" y1="965.0" y2="581.0" /><line stroke="#333" stroke-width="10" x1="2053.0" x2="1797.0" y1="965.0" y2="965.0" /><line stroke="#333" stroke-width="10" x1="1669.0" x2="1669.0" y1="949.0" y2="965.0" /><line stroke="#333" stroke-width="10" x1="1669.0" x2="1669.0" y1="917.0" y2="949.0" /><line stroke="#333" stroke-width="10" x1="1797.0" x2="1797.0" y1="965.0" y2="949.0" /><line stroke="#999" stroke-width="3" x1="389.0" x2="261.0" y1="965.0" y2="965.0" /><line stroke="#333" stroke-width="10" x1="1797.0" x2="1797.0" y1="917.0" y2="901.0" /><line stroke="#999" stroke-width="3" x1="1669.0" x2="1797.0" y1="917.0" y2="917.0" /><line stroke="#333" stroke-width="10" x1="1669.0" x2="1669.0" y1="901.0" y2="917.0" /><line stroke="#333" stroke-width="10" x1="1797.0" x2="1797.0" y1="949.0" y2="917.0" /><line stroke="#333" stroke-width="10" x1="2053.0" x2="1349.0" y1="197.0" y2="197.0" /><line stroke="#333" stroke-width="10" x1="1349.0" x2="1349.0" y1="197.0" y2="453.0" /><line stroke="#333" stroke-width="10" x1="1349.0" x2="1669.0" y1="901.0" y2="901.0" /><line stroke="#333" stroke-width="10" x1="2053.0" x2="2053.0" y1="901.0" y2="197.0" /><line stroke="#999" stroke-width="3" x1="1349.0" x2="1349.0" y1="453.0" y2="581.0" /><line stroke="#333" stroke-width="10" x1="1349.0" x2="1349.0" y1="581.0" y2="901.0" /><line stroke="#999" stroke-width="3" x1="1669.0" x2="1797.0" y1="901.0" y2="901.0" /><line stroke="#333" stroke-width="10" x1="1797.0" x2="2053.0" y1="901.0" y2="901.0" /><line stroke="#666" stroke-width="20" x1="1797.0" x2="1669.0" y1="949.0" y2="949.0" /><line stroke="#666" stroke-width="20" x1="1301.0" x2="1301.0" y1="581.0" y2="453.0" /><line stroke="#333" stroke-width="10" x1="1349.0" x2="1333.0" y1="453.0" y2="453.0" /><line stroke="#999" stroke-width="3" x1="1333.0" x2="1333.0" y1="453.0" y2="581.0" /><line stroke="#333" stroke-width="10" x1="1333.0" x2="1349.0" y1="581.0" y2="581.0" /><line stroke="#333" stroke-width="10" x1="1333.0" x2="1301.0" y1="453.0" y2="453.0" /><line stroke="#333" stroke-width="10" x1="1285.0" x2="1301.0" y1="581.0" y2="581.0" /><line stroke="#333" stroke-width="10" x1="1301.0" x2="1333.0" y1="581.0" y2="581.0" /><line stroke="#333" stroke-width="10" x1="1301.0" x2="1285.0" y1="453.0" y2="453.0" /><line stroke="#999" stroke-width="3" x1="773.0" x2="773.0" y1="453.0" y2="581.0" /><line stroke="#333" stroke-width="10" x1="773.0" x2="773.0" y1="197.0" y2="453.0" /><line stroke="#333" stroke-width="10" x1="773.0" x2="389.0" y1="965.0" y2="965.0" /><line stroke="#333" stroke-width="10" x1="965.0" x2="965.0" y1="5.0" y2="69.0" /><line stroke="#333" stroke-width="10" x1="1093.0" x2="965.0" y1="5.0" y2="5.0" /><line stroke="#999" stroke-width="3" x1="1045.0" x2="1061.0" y1="181.0" y2="181.0" /><line stroke="#999" stroke-width="3" x1="1093.0" x2="965.0" y1="197.0" y2="197.0" /><line stroke="#333" stroke-width="10" x1="965.0" x2="933.0" y1="197.0" y2="197.0" /><line stroke="#999" stroke-width="3" x1="293.0" x2="213.0" y1="661.0" y2="437.0" /><line stroke="#999" stroke-width="3" x1="1013.0" x2="1013.0" y1="45.0" y2="37.0" /><line stroke="#999" stroke-width="3" x1="1013.0" x2="1045.0" y1="37.0" y2="37.0" /><line stroke="#999" stroke-width="3" x1="1045.0" x2="1045.0" y1="37.0" y2="45.0" /><line stroke="#999" stroke-width="3" x1="1045.0" x2="1013.0" y1="45.0" y2="45.0" /><line stroke="#999" stroke-width="3" x1="421.0" x2="501.0" y1="437.0" y2="661.0" /><line stroke="#999" stroke-width="3" x1="501.0" x2="293.0" y1="661.0" y2="661.0" /><line stroke="#999" stroke-width="3" x1="414.0" x2="357.0" y1="597.0" y2="437.0" /><line stroke="#999" stroke-width="3" x1="334.0" x2="414.0" y1="597.0" y2="597.0" /><line stroke="#999" stroke-width="3" x1="357.0" x2="421.0" y1="437.0" y2="437.0" /><line stroke="#999" stroke-width="3" x1="213.0" x2="277.0" y1="437.0" y2="437.0" /><line stroke="#999" stroke-width="3" x1="277.0" x2="334.0" y1="437.0" y2="597.0" /><line stroke="#333" stroke-width="10" x1="1093.0" x2="1093.0" y1="197.0" y2="133.0" /><line stroke="#999" stroke-width="3" x1="1045.0" x2="1045.0" y1="189.0" y2="181.0" /><line stroke="#999" stroke-width="3" x1="1061.0" x2="1061.0" y1="181.0" y2="189.0" /><line stroke="#d00" stroke-width="20" x1="1061.0" x2="1045.0" y1="189.0" y2="189.0" /><line stroke="#999" stroke-width="3" x1="997.0" x2="997.0" y1="29.0" y2="21.0" /><line stroke="#999" stroke-width="3" x1="997.0" x2="1061.0" y1="21.0" y2="21.0" /><line stroke="#999" stroke-width="3" x1="1061.0" x2="1061.0" y1="21.0" y2="29.0" /><line stroke="#0d0" stroke-width="20" x1="1061.0" x2="997.0" y1="29.0" y2="29.0" /><line stroke="#333" stroke-width="10" x1="453.0" x2="453.0" y1="133.0" y2="197.0" /><line stroke="#999" stroke-width="3" x1="517.0" x2="453.0" y1="133.0" y2="133.0" /><line stroke="#333" stroke-width="10" x1="517.0" x2="517.0" y1="197.0" y2="133.0" /><line stroke="#999" stroke-width="3" x1="517.0" x2="453.0" y1="197.0" y2="197.0" /><line stroke="#333" stroke-width="10" x1="453.0" x2="5.0" y1="197.0" y2="197.0" /><line stroke="#333" stroke-width="10" x1="453.0" x2="453.0" y1="69.0" y2="133.0" /><line stroke="#333" stroke-width="10" x1="517.0" x2="453.0" y1="69.0" y2="69.0" /><line stroke="#333" stroke-width="10" x1="517.0" x2="517.0" y1="133.0" y2="69.0" /><line stroke="#999" stroke-width="3" x1="453.0" x2="453.0" y1="261.0" y2="197.0" /><line stroke="#999" stroke-width="3" x1="517.0" x2="453.0" y1="261.0" y2="261.0" /><line stroke="#999" stroke-width="3" x1="517.0" x2="517.0" y1="197.0" y2="261.0" /><line stroke="#999" stroke-width="3" x1="973.0" x2="973.0" y1="189.0" y2="181.0" /><line stroke="#999" stroke-width="3" x1="973.0" x2="989.0" y1="181.0" y2="181.0" /><line stroke="#999" stroke-width="3" x1="989.0" x2="989.0" y1="181.0" y2="189.0" /><line stroke="#d00" stroke-width="20" x1="989.0" x2="973.0" y1="189.0" y2="189.0" /><line stroke="#999" stroke-width="3" x1="997.0" x2="997.0" y1="189.0" y2="181.0" /><line stroke="#999" stroke-width="3" x1="997.0" x2="1013.0" y1="181.0" y2="181.0" /><line stroke="#999" stroke-width="3" x1="1013.0" x2="1013.0" y1="181.0" y2="189.0" /><line stroke="#d00" stroke-width="20" x1="1013.0" x2="997.0" y1="189.0" y2="189.0" /><line stroke="#999" stroke-width="3" x1="1021.0" x2="1021.0" y1="189.0" y2="181.0" /><line stroke="#999" stroke-width="3" x1="1021.0" x2="1037.0" y1="181.0" y2="181.0" /><line stroke="#999" stroke-width="3" x1="1037.0" x2="1037.0" y1="181.0" y2="189.0" /><line stroke="#d00" stroke-width="20" x1="1037.0" x2="1021.0" y1="189.0" y2="189.0" /><line stroke="#999" stroke-width="3" x1="1069.0" x2="1069.0" y1="189.0" y2="181.0" /><line stroke="#999" stroke-width="3" x1="1069.0" x2="1085.0" y1="181.0" y2="181.0" /><line stroke="#999" stroke-width="3" x1="1085.0" x2="1085.0" y1="181.0" y2="189.0" /><line stroke="#d00" stroke-width="20" x1="1085.0" x2="1069.0" y1="189.0" y2="189.0" /><line stroke="#999" stroke-width="3" x1="1045.0" x2="1061.0" y1="157.0" y2="157.0" /><line stroke="#999" stroke-width="3" x1="1045.0" x2="1045.0" y1="165.0" y2="157.0" /><line stroke="#999" stroke-width="3" x1="1061.0" x2="1061.0" y1="157.0" y2="165.0" /><line stroke="#d00" stroke-width="20" x1="1061.0" x2="1045.0" y1="165.0" y2="165.0" /><line stroke="#999" stroke-width="3" x1="973.0" x2="973.0" y1="165.0" y2="157.0" /><line stroke="#999" stroke-width="3" x1="973.0" x2="989.0" y1="157.0" y2="157.0" /><line stroke="#999" stroke-width="3" x1="989.0" x2="989.0" y1="157.0" y2="165.0" /><line stroke="#d00" stroke-width="20" x1="989.0" x2="973.0" y1="165.0" y2="165.0" /><line stroke="#999" stroke-width="3" x1="997.0" x2="997.0" y1="165.0" y2="157.0" /><line stroke="#999" stroke-width="3" x1="997.0" x2="1013.0" y1="157.0" y2="157.0" /><line stroke="#999" stroke-width="3" x1="1013.0" x2="1013.0" y1="157.0" y2="165.0" /><line stroke="#d00" stroke-width="20" x1="1013.0" x2="997.0" y1="165.0" y2="165.0" /><line stroke="#999" stroke-width="3" x1="1021.0" x2="1021.0" y1="165.0" y2="157.0" /><line stroke="#999" stroke-width="3" x1="1021.0" x2="1037.0" y1="157.0" y2="157.0" /><line stroke="#999" stroke-width="3" x1="1037.0" x2="1037.0" y1="157.0" y2="165.0" /><line stroke="#d00" stroke-width="20" x1="1037.0" x2="1021.0" y1="165.0" y2="165.0" /><line stroke="#999" stroke-width="3" x1="1069.0" x2="1069.0" y1="165.0" y2="157.0" /><line stroke="#999" stroke-width="3" x1="1069.0" x2="1085.0" y1="157.0" y2="157.0" /><line stroke="#999" stroke-width="3" x1="1085.0" x2="1085.0" y1="157.0" y2="165.0" /><line stroke="#d00" stroke-width="20" x1="1085.0" x2="1069.0" y1="165.0" y2="165.0" /><line stroke="#999" stroke-width="3" x1="1045.0" x2="1061.0" y1="133.0" y2="133.0" /><line stroke="#999" stroke-width="3" x1="1045.0" x2="1045.0" y1="141.0" y2="133.0" /><line stroke="#999" stroke-width="3" x1="1061.0" x2="1061.0" y1="133.0" y2="141.0" /><line stroke="#d00" stroke-width="20" x1="1061.0" x2="1045.0" y1="141.0" y2="141.0" /><line stroke="#999" stroke-width="3" x1="973.0" x2="973.0" y1="141.0" y2="133.0" /><line stroke="#999" stroke-width="3" x1="973.0" x2="989.0" y1="133.0" y2="133.0" /><line stroke="#999" stroke-width="3" x1="989.0" x2="989.0" y1="133.0" y2="141.0" /><line stroke="#d00" stroke-width="20" x1="989.0" x2="973.0" y1="141.0" y2="141.0" /><line stroke="#999" stroke-width="3" x1="997.0" x2="997.0" y1="141.0" y2="133.0" /><line stroke="#999" stroke-width="3" x1="997.0" x2="1013.0" y1="133.0" y2="133.0" /><line stroke="#999" stroke-width="3" x1="1013.0" x2="1013.0" y1="133.0" y2="141.0" /><line stroke="#d00" stroke-width="20" x1="1013.0" x2="997.0" y1="141.0" y2="141.0" /><line stroke="#999" stroke-width="3" x1="1021.0" x2="1021.0" y1="141.0" y2="133.0" /><line stroke="#999" stroke-width="3" x1="1021.0" x2="1037.0" y1="133.0" y2="133.0" /><line stroke="#999" stroke-width="3" x1="1037.0" x2="1037.0" y1="133.0" y2="141.0" /><line stroke="#d00" stroke-width="20" x1="1037.0" x2="1021.0" y1="141.0" y2="141.0" /><line stroke="#999" stroke-width="3" x1="1069.0" x2="1069.0" y1="141.0" y2="133.0" /><line stroke="#999" stroke-width="3" x1="1069.0" x2="1085.0" y1="133.0" y2="133.0" /><line stroke="#999" stroke-width="3" x1="1085.0" x2="1085.0" y1="133.0" y2="141.0" /><line stroke="#d00" stroke-width="20" x1="1085.0" x2="1069.0" y1="141.0" y2="141.0" /><line stroke="#999" stroke-width="3" x1="965.0" x2="973.0" y1="133.0" y2="133.0" /><line stroke="#333" stroke-width="10" x1="965.0" x2="965.0" y1="133.0" y2="197.0" /><line stroke="#333" stroke-width="10" x1="1093.0" x2="1093.0" y1="133.0" y2="69.0" /><line stroke="#333" stroke-width="10" x1="1125.0" x2="1093.0" y1="197.0" y2="197.0" /><line stroke="#333" stroke-width="10" x1="933.0" x2="805.0" y1="197.0" y2="197.0" /><line stroke="#333" stroke-width="10" x1="805.0" x2="773.0" y1="197.0" y2="197.0" /><line stroke="#333" stroke-width="10" x1="1253.0" x2="1125.0" y1="197.0" y2="197.0" /><line stroke="#999" stroke-width="3" x1="1061.0" x2="1069.0" y1="133.0" y2="133.0" /><line stroke="#999" stroke-width="3" x1="1037.0" x2="1045.0" y1="133.0" y2="133.0" /><line stroke="#999" stroke-width="3" x1="1013.0" x2="1021.0" y1="133.0" y2="133.0" /><line stroke="#999" stroke-width="3" x1="1085.0" x2="1093.0" y1="133.0" y2="133.0" /><line stroke="#999" stroke-width="3" x1="989.0" x2="997.0" y1="133.0" y2="133.0" /><line stroke="#999" stroke-width="3" x1="965.0" x2="1093.0" y1="69.0" y2="69.0" /><line stroke="#333" stroke-width="10" x1="965.0" x2="965.0" y1="69.0" y2="133.0" /><line stroke="#333" stroke-width="10" x1="1093.0" x2="1093.0" y1="69.0" y2="5.0" /><ellipse cx="1029.0" cy="1061.0" fill="#009" rx="12" ry="24" stroke="#009" stroke-width="5" /><circle cx="1029.0" cy="1221.0" fill="#009" r="16" stroke="#009" stroke-width="5" /><ellipse cx="2021.0" cy="2213.0" fill="#090" rx="12" ry="24" stroke="#090" stroke-width="5" /><ellipse cx="2021.0" cy="229.0" fill="#090" rx="12" ry="24" stroke="#090" stroke-width="5" /><ellipse cx="37.0" cy="2213.0" fill="#090" rx="12" ry="24" stroke="#090" stroke-width="5" /><rect fill="#900" height="48" stroke="#900" stroke-width="5" transform="rotate(315,117.0,1653.0)" width="32" x="101.0" y="1629.0" /><circle cx="37.0" cy="229.0" fill="#009" r="16" stroke="#009" stroke-width="5" /><rect fill="#900" height="48" stroke="#900" stroke-width="5" transform="rotate(225,1669.0,1861.0)" width="32" x="1653.0" y="1837.0" /><circle cx="485.0" cy="101.0" fill="#009" r="16" stroke="#009" stroke-width="5" /><circle cx="1029.0" cy="101.0" fill="#900" r="16" stroke="#900" stroke-width="5" /><rect fill="#900" height="48" stroke="#900" stroke-width="5" transform="rotate(315,501.0,1845.0)" width="32" x="485.0" y="1821.0" /><rect fill="#900" height="48" stroke="#900" stroke-width="5" transform="rotate(315,597.0,2133.0)" width="32" x="581.0" y="2109.0" /><rect fill="#900" height="48" stroke="#900" stroke-width="5" transform="rotate(315,213.0,1749.0)" width="32" x="197.0" y="1725.0" /><rect fill="#900" height="48" stroke="#900" stroke-width="5" transform="rotate(315,117.0,1749.0)" width="32" x="101.0" y="1725.0" /><rect fill="#900" height="48" stroke="#900" stroke-width="5" transform="rotate(225,1669.0,1989.0)" width="32" x="1653.0" y="1965.0" /><rect fill="#900" height="48" stroke="#900" stroke-width="5" transform="rotate(45,261.0,581.0)" width="32" x="245.0" y="557.0" /><rect fill="#900" height="48" stroke="#900" stroke-width="5" transform="rotate(315,213.0,1845.0)" width="32" x="197.0" y="1821.0" /><rect fill="#900" height="48" stroke="#900" stroke-width="5" transform="rotate(315,213.0,1941.0)" width="32" x="197.0" y="1917.0" /><rect fill="#900" height="48" stroke="#900" stroke-width="5" transform="rotate(315,213.0,2037.0)" width="32" x="197.0" y="2013.0" /><rect fill="#900" height="48" stroke="#900" stroke-width="5" transform="rotate(315,213.0,2133.0)" width="32" x="197.0" y="2109.0" /><rect fill="#900" height="48" stroke="#900" stroke-width="5" transform="rotate(315,117.0,1845.0)" width="32" x="101.0" y="1821.0" /><rect fill="#900" height="48" stroke="#900" stroke-width="5" transform="rotate(315,117.0,1941.0)" width="32" x="101.0" y="1917.0" /><rect fill="#900" height="48" stroke="#900" stroke-width="5" transform="rotate(315,117.0,2133.0)" width="32" x="101.0" y="2109.0" /><rect fill="#900" height="48" stroke="#900" stroke-width="5" transform="rotate(315,117.0,2037.0)" width="32" x="101.0" y="2013.0" /><rect fill="#900" height="48" stroke="#900" stroke-width="5" transform="rotate(135,1445.0,805.0)" width="32" x="1429.0" y="781.0" /><rect fill="#900" height="48" stroke="#900" stroke-width="5" transform="rotate(135,1445.0,677.0)" width="32" x="1429.0" y="653.0" /><rect fill="#900" height="48" stroke="#900" stroke-width="5" transform="rotate(135,1573.0,421.0)" width="32" x="1557.0" y="397.0" /><rect fill="#900" height="48" stroke="#900" stroke-width="5" transform="rotate(135,1445.0,549.0)" width="32" x="1429.0" y="525.0" /><rect fill="#900" height="48" stroke="#900" stroke-width="5" transform="rotate(135,1573.0,805.0)" width="32" x="1557.0" y="781.0" /><rect fill="#900" height="48" stroke="#900" stroke-width="5" transform="rotate(135,1573.0,677.0)" width="32" x="1557.0" y="653.0" /><rect fill="#900" height="48" stroke="#900" stroke-width="5" transform="rotate(135,1445.0,421.0)" width="32" x="1429.0" y="397.0" /><rect fill="#900" height="48" stroke="#900" stroke-width="5" transform="rotate(135,1445.0,293.0)" width="32" x="1429.0" y="269.0" /><rect fill="#900" height="48" stroke="#900" stroke-width="5" transform="rotate(315,501.0,2037.0)" width="32" x="485.0" y="2013.0" /><rect fill="#900" height="48" stroke="#900" stroke-width="5" transform="rotate(135,1573.0,549.0)" width="32" x="1557.0" y="525.0" /><rect fill="#900" height="48" stroke="#900" stroke-width="5" transform="rotate(315,597.0,1653.0)" width="32" x="581.0" y="1629.0" /><rect fill="#900" height="48" stroke="#900" stroke-width="5" transform="rotate(315,597.0,2037.0)" width="32" x="581.0" y="2013.0" /><rect fill="#900" height="48" stroke="#900" stroke-width="5" transform="rotate(315,501.0,2133.0)" width="32" x="485.0" y="2109.0" /><rect fill="#900" height="48" stroke="#900" stroke-width="5" transform="rotate(315,501.0,1941.0)" width="32" x="485.0" y="1917.0" /><rect fill="#900" height="48" stroke="#900" stroke-width="5" transform="rotate(315,213.0,1653.0)" width="32" x="197.0" y="1629.0" /><rect fill="#900" height="48" stroke="#900" stroke-width="5" transform="rotate(315,309.0,1653.0)" width="32" x="293.0" y="1629.0" /><rect fill="#900" height="48" stroke="#900" stroke-width="5" transform="rotate(315,405.0,1749.0)" width="32" x="389.0" y="1725.0" /><rect fill="#900" height="48" stroke="#900" stroke-width="5" transform="rotate(315,309.0,1749.0)" width="32" x="293.0" y="1725.0" /><rect fill="#900" height="48" stroke="#900" stroke-width="5" transform="rotate(315,405.0,1845.0)" width="32" x="389.0" y="1821.0" /><rect fill="#900" height="48" stroke="#900" stroke-width="5" transform="rotate(315,405.0,1941.0)" width="32" x="389.0" y="1917.0" /><rect fill="#900" height="48" stroke="#900" stroke-width="5" transform="rotate(315,405.0,2037.0)" width="32" x="389.0" y="2013.0" /><rect fill="#900" height="48" stroke="#900" stroke-width="5" transform="rotate(315,405.0,2133.0)" width="32" x="389.0" y="2109.0" /><rect fill="#900" height="48" stroke="#900" stroke-width="5" transform="rotate(315,309.0,1845.0)" width="32" x="293.0" y="1821.0" /><rect fill="#900" height="48" stroke="#900" stroke-width="5" transform="rotate(315,309.0,1941.0)" width="32" x="293.0" y="1917.0" /><rect fill="#900" height="48" stroke="#900" stroke-width="5" transform="rotate(315,309.0,2133.0)" width="32" x="293.0" y="2109.0" /><rect fill="#900" height="48" stroke="#900" stroke-width="5" transform="rotate(315,309.0,2037.0)" width="32" x="293.0" y="2013.0" /><rect fill="#900" height="48" stroke="#900" stroke-width="5" transform="rotate(315,405.0,1653.0)" width="32" x="389.0" y="1629.0" /><rect fill="#900" height="48" stroke="#900" stroke-width="5" transform="rotate(315,501.0,1653.0)" width="32" x="485.0" y="1629.0" /><rect fill="#900" height="48" stroke="#900" stroke-width="5" transform="rotate(315,597.0,1749.0)" width="32" x="581.0" y="1725.0" /><rect fill="#900" height="48" stroke="#900" stroke-width="5" transform="rotate(315,501.0,1749.0)" width="32" x="485.0" y="1725.0" /><rect fill="#900" height="48" stroke="#900" stroke-width="5" transform="rotate(315,597.0,1845.0)" width="32" x="581.0" y="1821.0" /><rect fill="#900" height="48" stroke="#900" stroke-width="5" transform="rotate(315,597.0,1941.0)" width="32" x="581.0" y="1917.0" /><rect fill="#900" height="48" stroke="#900" stroke-width="5" transform="rotate(135,1573.0,293.0)" width="32" x="1557.0" y="269.0" /><rect fill="#900" height="48" stroke="#900" stroke-width="5" transform="rotate(135,1701.0,805.0)" width="32" x="1685.0" y="781.0" /><rect fill="#900" height="48" stroke="#900" stroke-width="5" transform="rotate(135,1701.0,677.0)" width="32" x="1685.0" y="653.0" /><rect fill="#900" height="48" stroke="#900" stroke-width="5" transform="rotate(135,1829.0,421.0)" width="32" x="1813.0" y="397.0" /><rect fill="#900" height="48" stroke="#900" stroke-width="5" transform="rotate(135,1701.0,549.0)" width="32" x="1685.0" y="525.0" /><rect fill="#900" height="48" stroke="#900" stroke-width="5" transform="rotate(135,1829.0,805.0)" width="32" x="1813.0" y="781.0" /><rect fill="#900" height="48" stroke="#900" stroke-width="5" transform="rotate(135,1829.0,677.0)" width="32" x="1813.0" y="653.0" /><rect fill="#900" height="48" stroke="#900" stroke-width="5" transform="rotate(135,1701.0,421.0)" width="32" x="1685.0" y="397.0" /><rect fill="#900" height="48" stroke="#900" stroke-width="5" transform="rotate(135,1701.0,293.0)" width="32" x="1685.0" y="269.0" /><rect fill="#900" height="48" stroke="#900" stroke-width="5" transform="rotate(135,1829.0,549.0)" width="32" x="1813.0" y="525.0" /><rect fill="#900" height="48" stroke="#900" stroke-width="5" transform="rotate(135,1829.0,293.0)" width="32" x="1813.0" y="269.0" /><rect fill="#900" height="48" stroke="#900" stroke-width="5" transform="rotate(135,1957.0,421.0)" width="32" x="1941.0" y="397.0" /><rect fill="#900" height="48" stroke="#900" stroke-width="5" transform="rotate(135,1957.0,805.0)" width="32" x="1941.0" y="781.0" /><rect fill="#900" height="48" stroke="#900" stroke-width="5" transform="rotate(135,1957.0,677.0)" width="32" x="1941.0" y="653.0" /><rect fill="#900" height="48" stroke="#900" stroke-width="5" transform="rotate(135,1957.0,549.0)" width="32" x="1941.0" y="525.0" /><rect fill="#900" height="48" stroke="#900" stroke-width="5" transform="rotate(135,1957.0,293.0)" width="32" x="1941.0" y="269.0" /><rect fill="#900" height="48" stroke="#900" stroke-width="5" transform="rotate(225,1797.0,1989.0)" width="32" x="1781.0" y="1965.0" /><rect fill="#900" height="48" stroke="#900" stroke-width="5" transform="rotate(225,1797.0,1861.0)" width="32" x="1781.0" y="1837.0" /><rect fill="#900" height="48" stroke="#900" stroke-width="5" transform="rotate(45,389.0,453.0)" width="32" x="373.0" y="429.0" /><circle cx="997.0" cy="69.0" fill="#090" r="16" stroke="#090" stroke-width="5" /><circle cx="1061.0" cy="69.0" fill="#090" r="16" stroke="#090" stroke-width="5" /><rect fill="#900" height="48" stroke="#900" stroke-width="5" transform="rotate(45,261.0,453.0)" width="32" x="245.0" y="429.0" /><rect fill="#900" height="48" stroke="#900" stroke-width="5" transform="rotate(45,389.0,581.0)" width="32" x="373.0" y="557.0" /></svg>