<?xml version="1.0" encoding="utf-8" ?>
<svg baseProfile="tiny" height="1024" version="1.2" viewBox="0 0 1834 2290" width="820" xmlns="http://www.w3.org/2000/svg" xmlns:ev="http://www.w3.org/2001/xml-events" xmlns:xlink="http://www.w3.org/1999/xlink"><defs /><line stroke="#333" stroke-width="10" x1="157.0" x2="157.0" y1="5.0" y2="557.0" /><line stroke="#333" stroke-width="10" x1="1109.0" x2="157.0" y1="5.0" y2="5.0" /><line stroke="#333" stroke-width="10" x1="1109.0" x2="1109.0" y1="1509.0" y2="5.0" /><line stroke="#999" stroke-width="3" x1="1109.0" x2="157.0" y1="1509.0" y2="557.0" /><line stroke="#999" stroke-width="3" x1="157.0" x2="157.0" y1="557.0" y2="653.0" /><line stroke="#d00" stroke-width="20" x1="157.0" x2="285.0" y1="1509.0" y2="1509.0" /><line stroke="#333" stroke-width="10" x1="157.0" x2="157.0" y1="653.0" y2="749.0" /><line stroke="#999" stroke-width="3" x1="157.0" x2="1013.0" y1="653.0" y2="1509.0" /><line stroke="#999" stroke-width="3" x1="1013.0" x2="1109.0" y1="1509.0" y2="1509.0" /><line stroke="#333" stroke-width="10" x1="157.0" x2="157.0" y1="1509.0" y2="1525.0" /><line stroke="#333" stroke-width="10" x1="157.0" x2="189.0" y1="1789.0" y2="1789.0" /><line stroke="#333" stroke-width="10" x1="285.0" x2="285.0" y1="1789.0" y2="1525.0" /><line stroke="#333" stroke-width="10" x1="285.0" x2="357.0" y1="1509.0" y2="1509.0" /><line stroke="#333" stroke-width="10" x1="157.0" x2="157.0" y1="1525.0" y2="1789.0" /><line stroke="#d00" stroke-width="20" x1="285.0" x2="157.0" y1="1525.0" y2="1525.0" /><line stroke="#333" stroke-width="10" x1="285.0" x2="285.0" y1="1525.0" y2="1509.0" /><line stroke="#333" stroke-width="10" x1="1013.0" x2="1013.0" y1="1509.0" y2="1661.0" /><line stroke="#333" stroke-width="10" x1="1013.0" x2="1109.0" y1="1661.0" y2="1661.0" /><line stroke="#333" stroke-width="10" x1="1109.0" x2="1109.0" y1="1661.0" y2="1509.0" /><line stroke="#333" stroke-width="10" x1="21.0" x2="21.0" y1="557.0" y2="653.0" /><line stroke="#333" stroke-width="10" x1="157.0" x2="133.0" y1="557.0" y2="557.0" /><line stroke="#333" stroke-width="10" x1="21.0" x2="37.0" y1="653.0" y2="653.0" /><line stroke="#333" stroke-width="10" x1="133.0" x2="157.0" y1="653.0" y2="653.0" /><line stroke="#999" stroke-width="3" x1="133.0" x2="133.0" y1="557.0" y2="653.0" /><line stroke="#333" stroke-width="10" x1="133.0" x2="21.0" y1="557.0" y2="557.0" /><line stroke="#999" stroke-width="3" x1="37.0" x2="101.0" y1="653.0" y2="653.0" /><line stroke="#333" stroke-width="10" x1="37.0" x2="37.0" y1="653.0" y2="845.0" /><line stroke="#333" stroke-width="10" x1="37.0" x2="133.0" y1="845.0" y2="845.0" /><line stroke="#333" stroke-width="10" x1="157.0" x2="157.0" y1="845.0" y2="1109.0" /><line stroke="#333" stroke-width="10" x1="101.0" x2="133.0" y1="653.0" y2="653.0" /><line stroke="#333" stroke-width="10" x1="101.0" x2="101.0" y1="781.0" y2="653.0" /><line stroke="#333" stroke-width="10" x1="157.0" x2="133.0" y1="781.0" y2="781.0" /><line stroke="#666" stroke-width="20" x1="157.0" x2="157.0" y1="781.0" y2="845.0" /><line stroke="#333" stroke-width="10" x1="133.0" x2="157.0" y1="845.0" y2="845.0" /><line stroke="#666" stroke-width="20" x1="133.0" x2="133.0" y1="845.0" y2="781.0" /><line stroke="#333" stroke-width="10" x1="133.0" x2="101.0" y1="781.0" y2="781.0" /><line stroke="#999" stroke-width="3" x1="189.0" x2="253.0" y1="1789.0" y2="1789.0" /><line stroke="#333" stroke-width="10" x1="253.0" x2="285.0" y1="1789.0" y2="1789.0" /><line stroke="#999" stroke-width="3" x1="501.0" x2="501.0" y1="429.0" y2="637.0" /><line stroke="#999" stroke-width="3" x1="781.0" x2="501.0" y1="429.0" y2="429.0" /><line stroke="#999" stroke-width="3" x1="781.0" x2="781.0" y1="637.0" y2="429.0" /><line stroke="#999" stroke-width="3" x1="781.0" x2="501.0" y1="637.0" y2="637.0" /><line stroke="#999" stroke-width="3" x1="829.0" x2="453.0" y1="381.0" y2="381.0" /><line stroke="#999" stroke-width="3" x1="829.0" x2="829.0" y1="677.0" y2="381.0" /><line stroke="#999" stroke-width="3" x1="829.0" x2="453.0" y1="677.0" y2="677.0" /><line stroke="#999" stroke-width="3" x1="453.0" x2="453.0" y1="381.0" y2="677.0" /><line stroke="#333" stroke-width="10" x1="157.0" x2="157.0" y1="1421.0" y2="1509.0" /><line stroke="#999" stroke-width="3" x1="357.0" x2="357.0" y1="1509.0" y2="1421.0" /><line stroke="#333" stroke-width="10" x1="357.0" x2="525.0" y1="1509.0" y2="1509.0" /><line stroke="#999" stroke-width="3" x1="245.0" x2="157.0" y1="1421.0" y2="1421.0" /><line stroke="#999" stroke-width="3" x1="245.0" x2="245.0" y1="1421.0" y2="749.0" /><line stroke="#999" stroke-width="3" x1="245.0" x2="157.0" y1="749.0" y2="749.0" /><line stroke="#333" stroke-width="10" x1="157.0" x2="157.0" y1="749.0" y2="781.0" /><line stroke="#999" stroke-width="3" x1="357.0" x2="245.0" y1="1421.0" y2="1421.0" /><line stroke="#0d0" stroke-width="20" x1="605.0" x2="605.0" y1="501.0" y2="565.0" /><line stroke="#0d0" stroke-width="20" x1="669.0" x2="605.0" y1="501.0" y2="501.0" /><line stroke="#0d0" stroke-width="20" x1="669.0" x2="669.0" y1="565.0" y2="501.0" /><line stroke="#0d0" stroke-width="20" x1="669.0" x2="605.0" y1="565.0" y2="565.0" /><line stroke="#333" stroke-width="10" x1="189.0" x2="189.0" y1="1789.0" y2="1845.0" /><line stroke="#00d" stroke-width="20" x1="189.0" x2="253.0" y1="1845.0" y2="1845.0" /><line stroke="#333" stroke-width="10" x1="253.0" x2="253.0" y1="1845.0" y2="1789.0" /><line stroke="#333" stroke-width="10" x1="189.0" x2="93.0" y1="1845.0" y2="1941.0" /><line stroke="#333" stroke-width="10" x1="93.0" x2="61.0" y1="1941.0" y2="2157.0" /><line stroke="#333" stroke-width="10" x1="293.0" x2="429.0" y1="2285.0" y2="2149.0" /><line stroke="#333" stroke-width="10" x1="357.0" x2="253.0" y1="1949.0" y2="1845.0" /><line stroke="#999" stroke-width="3" x1="93.0" x2="357.0" y1="1941.0" y2="1949.0" /><line stroke="#333" stroke-width="10" x1="429.0" x2="357.0" y1="2149.0" y2="1949.0" /><line stroke="#333" stroke-width="10" x1="61.0" x2="293.0" y1="2157.0" y2="2285.0" /><line stroke="#999" stroke-width="3" x1="525.0" x2="589.0" y1="1509.0" y2="1509.0" /><line stroke="#333" stroke-width="10" x1="525.0" x2="525.0" y1="1509.0" y2="1613.0" /><line stroke="#333" stroke-width="10" x1="525.0" x2="589.0" y1="1669.0" y2="1669.0" /><line stroke="#00d" stroke-width="20" x1="589.0" x2="589.0" y1="1669.0" y2="1613.0" /><line stroke="#333" stroke-width="10" x1="589.0" x2="1013.0" y1="1509.0" y2="1509.0" /><line stroke="#333" stroke-width="10" x1="525.0" x2="525.0" y1="1613.0" y2="1669.0" /><line stroke="#999" stroke-width="3" x1="589.0" x2="525.0" y1="1613.0" y2="1613.0" /><line stroke="#333" stroke-width="10" x1="589.0" x2="589.0" y1="1613.0" y2="1509.0" /><line stroke="#333" stroke-width="10" x1="1213.0" x2="1213.0" y1="1045.0" y2="1293.0" /><line stroke="#999" stroke-width="3" x1="1741.0" x2="1613.0" y1="1045.0" y2="1045.0" /><line stroke="#333" stroke-width="10" x1="1741.0" x2="1741.0" y1="1501.0" y2="1045.0" /><line stroke="#999" stroke-width="3" x1="1741.0" x2="1301.0" y1="1501.0" y2="1501.0" /><line stroke="#333" stroke-width="10" x1="1213.0" x2="1213.0" y1="1501.0" y2="1581.0" /><line stroke="#333" stroke-width="10" x1="1213.0" x2="1389.0" y1="1741.0" y2="1741.0" /><line stroke="#333" stroke-width="10" x1="1741.0" x2="1741.0" y1="1741.0" y2="1661.0" /><line stroke="#333" stroke-width="10" x1="1213.0" x2="1213.0" y1="1581.0" y2="1741.0" /><line stroke="#999" stroke-width="3" x1="1213.0" x2="1301.0" y1="1581.0" y2="1581.0" /><line stroke="#999" stroke-width="3" x1="1301.0" x2="1301.0" y1="1581.0" y2="1501.0" /><line stroke="#999" stroke-width="3" x1="1301.0" x2="1213.0" y1="1501.0" y2="1501.0" /><line stroke="#333" stroke-width="10" x1="1613.0" x2="1213.0" y1="1045.0" y2="1045.0" /><line stroke="#333" stroke-width="10" x1="1613.0" x2="1613.0" y1="957.0" y2="1045.0" /><line stroke="#00d" stroke-width="20" x1="1741.0" x2="1613.0" y1="957.0" y2="957.0" /><line stroke="#333" stroke-width="10" x1="1741.0" x2="1741.0" y1="1045.0" y2="957.0" /><line stroke="#333" stroke-width="10" x1="1509.0" x2="1613.0" y1="885.0" y2="957.0" /><line stroke="#333" stroke-width="10" x1="1525.0" x2="1509.0" y1="797.0" y2="885.0" /><line stroke="#333" stroke-width="10" x1="1637.0" x2="1525.0" y1="685.0" y2="797.0" /><line stroke="#333" stroke-width="10" x1="1821.0" x2="1637.0" y1="765.0" y2="685.0" /><line stroke="#333" stroke-width="10" x1="1741.0" x2="1829.0" y1="957.0" y2="861.0" /><line stroke="#333" stroke-width="10" x1="1829.0" x2="1821.0" y1="861.0" y2="765.0" /><line stroke="#999" stroke-width="3" x1="189.0" x2="189.0" y1="1453.0" y2="1485.0" /><line stroke="#999" stroke-width="3" x1="221.0" x2="189.0" y1="1453.0" y2="1453.0" /><line stroke="#999" stroke-width="3" x1="221.0" x2="221.0" y1="1485.0" y2="1453.0" /><line stroke="#999" stroke-width="3" x1="221.0" x2="189.0" y1="1485.0" y2="1485.0" /><line stroke="#333" stroke-width="10" x1="157.0" x2="157.0" y1="1269.0" y2="1421.0" /><line stroke="#333" stroke-width="10" x1="5.0" x2="5.0" y1="1109.0" y2="1269.0" /><line stroke="#333" stroke-width="10" x1="157.0" x2="133.0" y1="1109.0" y2="1109.0" /><line stroke="#999" stroke-width="3" x1="157.0" x2="157.0" y1="1109.0" y2="1269.0" /><line stroke="#333" stroke-width="10" x1="5.0" x2="133.0" y1="1269.0" y2="1269.0" /><line stroke="#333" stroke-width="10" x1="133.0" x2="157.0" y1="1269.0" y2="1269.0" /><line stroke="#999" stroke-width="3" x1="133.0" x2="133.0" y1="1109.0" y2="1269.0" /><line stroke="#333" stroke-width="10" x1="133.0" x2="5.0" y1="1109.0" y2="1109.0" /><line stroke="#999" stroke-width="3" x1="1509.0" x2="1829.0" y1="885.0" y2="861.0" /><line stroke="#333" stroke-width="10" x1="1213.0" x2="1213.0" y1="1293.0" y2="1357.0" /><line stroke="#333" stroke-width="10" x1="1213.0" x2="1213.0" y1="1357.0" y2="1501.0" /><line stroke="#333" stroke-width="10" x1="1629.0" x2="1741.0" y1="1741.0" y2="1741.0" /><line stroke="#999" stroke-width="3" x1="1629.0" x2="1629.0" y1="1661.0" y2="1741.0" /><line stroke="#999" stroke-width="3" x1="1741.0" x2="1629.0" y1="1661.0" y2="1661.0" /><line stroke="#333" stroke-width="10" x1="1741.0" x2="1741.0" y1="1661.0" y2="1501.0" /><line stroke="#999" stroke-width="3" x1="1389.0" x2="1525.0" y1="1741.0" y2="1741.0" /><line stroke="#333" stroke-width="10" x1="1389.0" x2="1389.0" y1="1741.0" y2="1773.0" /><line stroke="#333" stroke-width="10" x1="1389.0" x2="1525.0" y1="1957.0" y2="1957.0" /><line stroke="#333" stroke-width="10" x1="1525.0" x2="1525.0" y1="1957.0" y2="1773.0" /><line stroke="#333" stroke-width="10" x1="1525.0" x2="1629.0" y1="1741.0" y2="1741.0" /><line stroke="#333" stroke-width="10" x1="1389.0" x2="1389.0" y1="1773.0" y2="1957.0" /><line stroke="#999" stroke-width="3" x1="1389.0" x2="1525.0" y1="1773.0" y2="1773.0" /><line stroke="#333" stroke-width="10" x1="1525.0" x2="1525.0" y1="1773.0" y2="1741.0" /><line stroke="#333" stroke-width="10" x1="589.0" x2="653.0" y1="1669.0" y2="1669.0" /><line stroke="#333" stroke-width="10" x1="653.0" x2="653.0" y1="1669.0" y2="1613.0" /><line stroke="#333" stroke-width="10" x1="653.0" x2="589.0" y1="1613.0" y2="1613.0" /><ellipse cx="317.0" cy="129.0" fill="#009" rx="12" ry="24" stroke="#009" stroke-width="5" /><rect fill="#090" height="24" stroke="#090" stroke-width="5" transform="rotate(270,253.0,2081.0)" width="24" x="241.0" y="2069.0" /><rect fill="#009" height="24" stroke="#009" stroke-width="5" transform="rotate(270,637.0,533.0)" width="24" x="625.0" y="521.0" /><rect fill="#900" height="48" stroke="#900" stroke-width="5" transform="rotate(270,377.0,593.0)" width="32" x="361.0" y="569.0" /><rect fill="#900" height="48" stroke="#900" stroke-width="5" transform="rotate(225,733.0,593.0)" width="32" x="717.0" y="569.0" /><rect fill="#900" height="48" stroke="#900" stroke-width="5" transform="rotate(270,581.0,741.0)" width="32" x="565.0" y="717.0" /><rect fill="#900" height="48" stroke="#900" stroke-width="5" transform="rotate(270,769.0,877.0)" width="32" x="753.0" y="853.0" /><rect fill="#900" height="48" stroke="#900" stroke-width="5" transform="rotate(270,925.0,657.0)" width="32" x="909.0" y="633.0" /><rect fill="#900" height="48" stroke="#900" stroke-width="5" transform="rotate(270,641.0,845.0)" width="32" x="625.0" y="821.0" /><rect fill="#090" height="24" stroke="#090" stroke-width="5" transform="rotate(180,949.0,237.0)" width="24" x="937.0" y="225.0" /><rect fill="#900" height="48" stroke="#900" stroke-width="5" transform="rotate(225,941.0,477.0)" width="32" x="925.0" y="453.0" /><circle cx="189.0" cy="533.0" fill="#009" r="16" stroke="#009" stroke-width="5" /><circle cx="637.0" cy="533.0" fill="#009" r="16" stroke="#009" stroke-width="5" /><circle cx="101.0" cy="629.0" fill="#900" r="16" stroke="#900" stroke-width="5" /><circle cx="53.0" cy="581.0" fill="#090" r="16" stroke="#090" stroke-width="5" /><circle cx="101.0" cy="581.0" fill="#090" r="16" stroke="#090" stroke-width="5" /><rect fill="#900" height="48" stroke="#900" stroke-width="5" transform="rotate(270,201.0,1749.0)" width="32" x="185.0" y="1725.0" /><rect fill="#900" height="48" stroke="#900" stroke-width="5" transform="rotate(270,237.0,1669.0)" width="32" x="221.0" y="1645.0" /><rect fill="#900" height="48" stroke="#900" stroke-width="5" transform="rotate(270,201.0,1597.0)" width="32" x="185.0" y="1573.0" /><circle cx="221.0" cy="1817.0" fill="#009" r="16" stroke="#009" stroke-width="5" /><circle cx="193.0" cy="637.0" fill="#009" r="16" stroke="#009" stroke-width="5" /><circle cx="237.0" cy="681.0" fill="#009" r="16" stroke="#009" stroke-width="5" /><circle cx="281.0" cy="721.0" fill="#009" r="16" stroke="#009" stroke-width="5" /><circle cx="329.0" cy="769.0" fill="#009" r="16" stroke="#009" stroke-width="5" /><circle cx="373.0" cy="817.0" fill="#009" r="16" stroke="#009" stroke-width="5" /><circle cx="417.0" cy="861.0" fill="#009" r="16" stroke="#009" stroke-width="5" /><circle cx="465.0" cy="909.0" fill="#009" r="16" stroke="#009" stroke-width="5" /><circle cx="513.0" cy="961.0" fill="#009" r="16" stroke="#009" stroke-width="5" /><circle cx="569.0" cy="1013.0" fill="#009" r="16" stroke="#009" stroke-width="5" /><circle cx="621.0" cy="1069.0" fill="#009" r="16" stroke="#009" stroke-width="5" /><circle cx="673.0" cy="1121.0" fill="#009" r="16" stroke="#009" stroke-width="5" /><circle cx="733.0" cy="1177.0" fill="#009" r="16" stroke="#009" stroke-width="5" /><circle cx="793.0" cy="1237.0" fill="#009" r="16" stroke="#009" stroke-width="5" /><circle cx="841.0" cy="1289.0" fill="#009" r="16" stroke="#009" stroke-width="5" /><circle cx="893.0" cy="1337.0" fill="#009" r="16" stroke="#009" stroke-width="5" /><circle cx="945.0" cy="1393.0" fill="#009" r="16" stroke="#009" stroke-width="5" /><circle cx="997.0" cy="1445.0" fill="#009" r="16" stroke="#009" stroke-width="5" /><rect fill="#900" height="48" stroke="#900" stroke-width="5" transform="rotate(270,177.0,2149.0)" width="32" x="161.0" y="2125.0" /><rect fill="#900" height="48" stroke="#900" stroke-width="5" transform="rotate(270,273.0,2189.0)" width="32" x="257.0" y="2165.0" /><rect fill="#900" height="48" stroke="#900" stroke-width="5" transform="rotate(225,321.0,2021.0)" width="32" x="305.0" y="1997.0" /><rect fill="#009" height="24" stroke="#009" stroke-width="5" transform="rotate(45,1325.0,1129.0)" width="24" x="1313.0" y="1117.0" /><rect fill="#090" height="24" stroke="#090" stroke-width="5" transform="rotate(90,1669.0,825.0)" width="24" x="1657.0" y="813.0" /><circle cx="1249.0" cy="1073.0" fill="#009" r="16" stroke="#009" stroke-width="5" /><circle cx="1705.0" cy="1473.0" fill="#009" r="16" stroke="#009" stroke-width="5" /><ellipse cx="1689.0" cy="1705.0" fill="#090" rx="12" ry="24" stroke="#090" stroke-width="5" /><rect fill="#900" height="48" stroke="#900" stroke-width="5" transform="rotate(225,1389.0,1665.0)" width="32" x="1373.0" y="1641.0" /><rect fill="#900" height="48" stroke="#900" stroke-width="5" transform="rotate(225,1529.0,1685.0)" width="32" x="1513.0" y="1661.0" /><rect fill="#900" height="48" stroke="#900" stroke-width="5" transform="rotate(225,1577.0,1617.0)" width="32" x="1561.0" y="1593.0" /><rect fill="#900" height="48" stroke="#900" stroke-width="5" transform="rotate(225,1425.0,1601.0)" width="32" x="1409.0" y="1577.0" /><rect fill="#900" height="48" stroke="#900" stroke-width="5" transform="rotate(270,1485.0,1545.0)" width="32" x="1469.0" y="1521.0" /><circle cx="1249.0" cy="1469.0" fill="#009" r="16" stroke="#009" stroke-width="5" /><circle cx="1373.0" cy="1169.0" fill="#090" r="16" stroke="#090" stroke-width="5" /><rect fill="#900" height="48" stroke="#900" stroke-width="5" transform="rotate(270,1433.0,1357.0)" width="32" x="1417.0" y="1333.0" /><rect fill="#900" height="48" stroke="#900" stroke-width="5" transform="rotate(180,1597.0,1157.0)" width="32" x="1581.0" y="1133.0" /><rect fill="#900" height="48" stroke="#900" stroke-width="5" transform="rotate(225,1569.0,1325.0)" width="32" x="1553.0" y="1301.0" /><circle cx="1421.0" cy="1205.0" fill="#090" r="16" stroke="#090" stroke-width="5" /><rect fill="#009" height="24" stroke="#009" stroke-width="5" transform="rotate(90,201.0,949.0)" width="24" x="189.0" y="937.0" /><rect fill="#900" height="48" stroke="#900" stroke-width="5" transform="rotate(0,45.0,1141.0)" width="32" x="29.0" y="1117.0" /><rect fill="#900" height="48" stroke="#900" stroke-width="5" transform="rotate(0,45.0,1241.0)" width="32" x="29.0" y="1217.0" /><rect fill="#900" height="48" stroke="#900" stroke-width="5" transform="rotate(0,85.0,1189.0)" width="32" x="69.0" y="1165.0" /><circle cx="33.0" cy="1189.0" fill="#009" r="16" stroke="#009" stroke-width="5" /><circle cx="33.0" cy="1189.0" fill="#009" r="16" stroke="#009" stroke-width="5" /><rect fill="#900" height="48" stroke="#900" stroke-width="5" transform="rotate(270,1457.0,1905.0)" width="32" x="1441.0" y="1881.0" /><rect fill="#900" height="48" stroke="#900" stroke-width="5" transform="rotate(270,1457.0,1921.0)" width="32" x="1441.0" y="1897.0" /><circle cx="1417.0" cy="1937.0" fill="#009" r="16" stroke="#009" stroke-width="5" /><rect fill="#900" height="48" stroke="#900" stroke-width="5" transform="rotate(270,1457.0,1877.0)" width="32" x="1441.0" y="1853.0" /><circle cx="1497.0" cy="1937.0" fill="#090" r="16" stroke="#090" stroke-width="5" /><circle cx="1413.0" cy="1797.0" fill="#090" r="16" stroke="#090" stroke-width="5" /><circle cx="1413.0" cy="1833.0" fill="#090" r="16" stroke="#090" stroke-width="5" /><rect fill="#900" height="48" stroke="#900" stroke-width="5" transform="rotate(225,1493.0,1625.0)" width="32" x="1477.0" y="1601.0" /><circle cx="1257.0" cy="1541.0" fill="#090" r="16" stroke="#090" stroke-width="5" /><rect fill="#900" height="48" stroke="#900" stroke-width="5" transform="rotate(90,1577.0,833.0)" width="32" x="1561.0" y="809.0" /><rect fill="#900" height="48" stroke="#900" stroke-width="5" transform="rotate(90,1641.0,753.0)" width="32" x="1625.0" y="729.0" /><rect fill="#900" height="48" stroke="#900" stroke-width="5" transform="rotate(90,1753.0,809.0)" width="32" x="1737.0" y="785.0" /><rect fill="#900" height="48" stroke="#900" stroke-width="5" transform="rotate(270,153.0,2061.0)" width="32" x="137.0" y="2037.0" /><rect fill="#900" height="48" stroke="#900" stroke-width="5" transform="rotate(270,345.0,2137.0)" width="32" x="329.0" y="2113.0" /><rect fill="#900" height="48" stroke="#900" stroke-width="5" transform="rotate(270,225.0,2009.0)" width="32" x="209.0" y="1985.0" /></svg>