<?xml version="1.0" encoding="utf-8" ?>
<svg baseProfile="tiny" height="1024" version="1.2" viewBox="0 0 3834 6218" width="631" xmlns="http://www.w3.org/2000/svg" xmlns:ev="http://www.w3.org/2001/xml-events" xmlns:xlink="http://www.w3.org/1999/xlink"><defs /><line stroke="#333" stroke-width="10" x1="501.0" x2="2325.0" y1="6213.0" y2="6213.0" /><line stroke="#333" stroke-width="10" x1="2325.0" x2="2325.0" y1="6213.0" y2="5109.0" /><line stroke="#333" stroke-width="10" x1="2325.0" x2="2293.0" y1="5109.0" y2="5109.0" /><line stroke="#333" stroke-width="10" x1="501.0" x2="501.0" y1="5109.0" y2="6021.0" /><line stroke="#333" stroke-width="10" x1="501.0" x2="439.0" y1="6021.0" y2="6021.0" /><line stroke="#999" stroke-width="3" x1="439.0" x2="439.0" y1="6021.0" y2="6149.0" /><line stroke="#333" stroke-width="10" x1="439.0" x2="501.0" y1="6149.0" y2="6149.0" /><line stroke="#999" stroke-width="3" x1="501.0" x2="501.0" y1="6149.0" y2="6021.0" /><line stroke="#333" stroke-width="10" x1="439.0" x2="377.0" y1="6021.0" y2="6021.0" /><line stroke="#999" stroke-width="3" x1="377.0" x2="377.0" y1="6021.0" y2="6149.0" /><line stroke="#333" stroke-width="10" x1="377.0" x2="439.0" y1="6149.0" y2="6149.0" /><line stroke="#333" stroke-width="10" x1="501.0" x2="501.0" y1="6149.0" y2="6213.0" /><line stroke="#333" stroke-width="10" x1="377.0" x2="315.0" y1="6021.0" y2="6021.0" /><line stroke="#999" stroke-width="3" x1="315.0" x2="315.0" y1="6021.0" y2="6149.0" /><line stroke="#333" stroke-width="10" x1="315.0" x2="377.0" y1="6149.0" y2="6149.0" /><line stroke="#333" stroke-width="10" x1="315.0" x2="253.0" y1="6021.0" y2="6021.0" /><line stroke="#999" stroke-width="3" x1="253.0" x2="253.0" y1="6021.0" y2="6149.0" /><line stroke="#333" stroke-width="10" x1="253.0" x2="315.0" y1="6149.0" y2="6149.0" /><line stroke="#333" stroke-width="10" x1="253.0" x2="191.0" y1="6021.0" y2="6021.0" /><line stroke="#999" stroke-width="3" x1="191.0" x2="191.0" y1="6021.0" y2="6149.0" /><line stroke="#333" stroke-width="10" x1="191.0" x2="253.0" y1="6149.0" y2="6149.0" /><line stroke="#333" stroke-width="10" x1="191.0" x2="129.0" y1="6021.0" y2="6021.0" /><line stroke="#999" stroke-width="3" x1="129.0" x2="129.0" y1="6021.0" y2="6149.0" /><line stroke="#333" stroke-width="10" x1="129.0" x2="191.0" y1="6149.0" y2="6149.0" /><line stroke="#333" stroke-width="10" x1="129.0" x2="67.0" y1="6021.0" y2="6021.0" /><line stroke="#999" stroke-width="3" x1="67.0" x2="67.0" y1="6021.0" y2="6149.0" /><line stroke="#333" stroke-width="10" x1="67.0" x2="129.0" y1="6149.0" y2="6149.0" /><line stroke="#333" stroke-width="10" x1="67.0" x2="5.0" y1="6021.0" y2="6021.0" /><line stroke="#333" stroke-width="10" x1="5.0" x2="5.0" y1="6021.0" y2="6149.0" /><line stroke="#333" stroke-width="10" x1="5.0" x2="67.0" y1="6149.0" y2="6149.0" /><line stroke="#999" stroke-width="3" x1="697.0" x2="1145.0" y1="5749.0" y2="5749.0" /><line stroke="#999" stroke-width="3" x1="1145.0" x2="1145.0" y1="5749.0" y2="5701.0" /><line stroke="#999" stroke-width="3" x1="1145.0" x2="697.0" y1="5701.0" y2="5701.0" /><line stroke="#999" stroke-width="3" x1="697.0" x2="697.0" y1="5701.0" y2="5749.0" /><line stroke="#999" stroke-width="3" x1="697.0" x2="1145.0" y1="5877.0" y2="5877.0" /><line stroke="#999" stroke-width="3" x1="1145.0" x2="1145.0" y1="5877.0" y2="5829.0" /><line stroke="#999" stroke-width="3" x1="1145.0" x2="697.0" y1="5829.0" y2="5829.0" /><line stroke="#999" stroke-width="3" x1="697.0" x2="697.0" y1="5829.0" y2="5877.0" /><line stroke="#999" stroke-width="3" x1="697.0" x2="1145.0" y1="6005.0" y2="6005.0" /><line stroke="#999" stroke-width="3" x1="1145.0" x2="1145.0" y1="6005.0" y2="5957.0" /><line stroke="#999" stroke-width="3" x1="1145.0" x2="697.0" y1="5957.0" y2="5957.0" /><line stroke="#999" stroke-width="3" x1="697.0" x2="697.0" y1="5957.0" y2="6005.0" /><line stroke="#999" stroke-width="3" x1="1147.0" x2="699.0" y1="5365.0" y2="5365.0" /><line stroke="#999" stroke-width="3" x1="1147.0" x2="1147.0" y1="5317.0" y2="5365.0" /><line stroke="#999" stroke-width="3" x1="699.0" x2="1147.0" y1="5317.0" y2="5317.0" /><line stroke="#999" stroke-width="3" x1="699.0" x2="699.0" y1="5365.0" y2="5317.0" /><line stroke="#999" stroke-width="3" x1="1147.0" x2="699.0" y1="5493.0" y2="5493.0" /><line stroke="#999" stroke-width="3" x1="1147.0" x2="1147.0" y1="5445.0" y2="5493.0" /><line stroke="#999" stroke-width="3" x1="699.0" x2="1147.0" y1="5445.0" y2="5445.0" /><line stroke="#999" stroke-width="3" x1="699.0" x2="699.0" y1="5493.0" y2="5445.0" /><line stroke="#999" stroke-width="3" x1="1147.0" x2="699.0" y1="5621.0" y2="5621.0" /><line stroke="#999" stroke-width="3" x1="1147.0" x2="1147.0" y1="5573.0" y2="5621.0" /><line stroke="#999" stroke-width="3" x1="699.0" x2="1147.0" y1="5573.0" y2="5573.0" /><line stroke="#999" stroke-width="3" x1="699.0" x2="699.0" y1="5621.0" y2="5573.0" /><line stroke="#999" stroke-width="3" x1="1197.0" x2="1645.0" y1="5749.0" y2="5749.0" /><line stroke="#999" stroke-width="3" x1="1645.0" x2="1645.0" y1="5749.0" y2="5701.0" /><line stroke="#999" stroke-width="3" x1="1645.0" x2="1197.0" y1="5701.0" y2="5701.0" /><line stroke="#999" stroke-width="3" x1="1197.0" x2="1197.0" y1="5701.0" y2="5749.0" /><line stroke="#999" stroke-width="3" x1="1197.0" x2="1645.0" y1="5877.0" y2="5877.0" /><line stroke="#999" stroke-width="3" x1="1645.0" x2="1645.0" y1="5877.0" y2="5829.0" /><line stroke="#999" stroke-width="3" x1="1645.0" x2="1197.0" y1="5829.0" y2="5829.0" /><line stroke="#999" stroke-width="3" x1="1197.0" x2="1197.0" y1="5829.0" y2="5877.0" /><line stroke="#999" stroke-width="3" x1="1197.0" x2="1645.0" y1="6005.0" y2="6005.0" /><line stroke="#999" stroke-width="3" x1="1645.0" x2="1645.0" y1="6005.0" y2="5957.0" /><line stroke="#999" stroke-width="3" x1="1645.0" x2="1197.0" y1="5957.0" y2="5957.0" /><line stroke="#999" stroke-width="3" x1="1197.0" x2="1197.0" y1="5957.0" y2="6005.0" /><line stroke="#999" stroke-width="3" x1="1647.0" x2="1199.0" y1="5365.0" y2="5365.0" /><line stroke="#999" stroke-width="3" x1="1647.0" x2="1647.0" y1="5317.0" y2="5365.0" /><line stroke="#999" stroke-width="3" x1="1199.0" x2="1647.0" y1="5317.0" y2="5317.0" /><line stroke="#999" stroke-width="3" x1="1199.0" x2="1199.0" y1="5365.0" y2="5317.0" /><line stroke="#999" stroke-width="3" x1="1647.0" x2="1199.0" y1="5493.0" y2="5493.0" /><line stroke="#999" stroke-width="3" x1="1647.0" x2="1647.0" y1="5445.0" y2="5493.0" /><line stroke="#999" stroke-width="3" x1="1199.0" x2="1647.0" y1="5445.0" y2="5445.0" /><line stroke="#999" stroke-width="3" x1="1199.0" x2="1199.0" y1="5493.0" y2="5445.0" /><line stroke="#999" stroke-width="3" x1="1647.0" x2="1199.0" y1="5621.0" y2="5621.0" /><line stroke="#999" stroke-width="3" x1="1647.0" x2="1647.0" y1="5573.0" y2="5621.0" /><line stroke="#999" stroke-width="3" x1="1199.0" x2="1647.0" y1="5573.0" y2="5573.0" /><line stroke="#999" stroke-width="3" x1="1199.0" x2="1199.0" y1="5621.0" y2="5573.0" /><line stroke="#999" stroke-width="3" x1="1697.0" x2="2145.0" y1="5749.0" y2="5749.0" /><line stroke="#999" stroke-width="3" x1="2145.0" x2="2145.0" y1="5749.0" y2="5701.0" /><line stroke="#999" stroke-width="3" x1="2145.0" x2="1697.0" y1="5701.0" y2="5701.0" /><line stroke="#999" stroke-width="3" x1="1697.0" x2="1697.0" y1="5701.0" y2="5749.0" /><line stroke="#999" stroke-width="3" x1="1697.0" x2="2145.0" y1="5877.0" y2="5877.0" /><line stroke="#999" stroke-width="3" x1="2145.0" x2="2145.0" y1="5877.0" y2="5829.0" /><line stroke="#999" stroke-width="3" x1="2145.0" x2="1697.0" y1="5829.0" y2="5829.0" /><line stroke="#999" stroke-width="3" x1="1697.0" x2="1697.0" y1="5829.0" y2="5877.0" /><line stroke="#999" stroke-width="3" x1="1697.0" x2="2145.0" y1="6005.0" y2="6005.0" /><line stroke="#999" stroke-width="3" x1="2145.0" x2="2145.0" y1="6005.0" y2="5957.0" /><line stroke="#999" stroke-width="3" x1="2145.0" x2="1697.0" y1="5957.0" y2="5957.0" /><line stroke="#999" stroke-width="3" x1="1697.0" x2="1697.0" y1="5957.0" y2="6005.0" /><line stroke="#999" stroke-width="3" x1="2147.0" x2="1699.0" y1="5365.0" y2="5365.0" /><line stroke="#999" stroke-width="3" x1="2147.0" x2="2147.0" y1="5317.0" y2="5365.0" /><line stroke="#999" stroke-width="3" x1="1699.0" x2="2147.0" y1="5317.0" y2="5317.0" /><line stroke="#999" stroke-width="3" x1="1699.0" x2="1699.0" y1="5365.0" y2="5317.0" /><line stroke="#999" stroke-width="3" x1="2147.0" x2="1699.0" y1="5493.0" y2="5493.0" /><line stroke="#999" stroke-width="3" x1="2147.0" x2="2147.0" y1="5445.0" y2="5493.0" /><line stroke="#999" stroke-width="3" x1="1699.0" x2="2147.0" y1="5445.0" y2="5445.0" /><line stroke="#999" stroke-width="3" x1="1699.0" x2="1699.0" y1="5493.0" y2="5445.0" /><line stroke="#999" stroke-width="3" x1="2147.0" x2="1699.0" y1="5621.0" y2="5621.0" /><line stroke="#999" stroke-width="3" x1="2147.0" x2="2147.0" y1="5573.0" y2="5621.0" /><line stroke="#999" stroke-width="3" x1="1699.0" x2="2147.0" y1="5573.0" y2="5573.0" /><line stroke="#999" stroke-width="3" x1="1699.0" x2="1699.0" y1="5621.0" y2="5573.0" /><line stroke="#999" stroke-width="3" x1="53.0" x2="37.0" y1="6133.0" y2="6133.0" /><line stroke="#999" stroke-width="3" x1="53.0" x2="53.0" y1="6037.0" y2="6133.0" /><line stroke="#999" stroke-width="3" x1="37.0" x2="53.0" y1="6037.0" y2="6037.0" /><line stroke="#999" stroke-width="3" x1="37.0" x2="37.0" y1="6133.0" y2="6037.0" /><line stroke="#333" stroke-width="10" x1="501.0" x2="2229.0" y1="4965.0" y2="4965.0" /><line stroke="#999" stroke-width="3" x1="2229.0" x2="2293.0" y1="5109.0" y2="5109.0" /><line stroke="#333" stroke-width="10" x1="2229.0" x2="501.0" y1="5109.0" y2="5109.0" /><line stroke="#333" stroke-width="10" x1="2293.0" x2="2293.0" y1="5109.0" y2="5093.0" /><line stroke="#666" stroke-width="20" x1="2293.0" x2="2229.0" y1="5093.0" y2="5093.0" /><line stroke="#333" stroke-width="10" x1="2293.0" x2="2293.0" y1="5093.0" y2="5077.0" /><line stroke="#333" stroke-width="10" x1="2229.0" x2="2229.0" y1="5077.0" y2="5093.0" /><line stroke="#666" stroke-width="20" x1="2229.0" x2="2293.0" y1="5077.0" y2="5077.0" /><line stroke="#333" stroke-width="10" x1="2293.0" x2="2293.0" y1="5077.0" y2="4965.0" /><line stroke="#999" stroke-width="3" x1="2293.0" x2="2229.0" y1="4965.0" y2="4965.0" /><line stroke="#333" stroke-width="10" x1="2229.0" x2="2229.0" y1="4965.0" y2="5077.0" /><line stroke="#333" stroke-width="10" x1="2229.0" x2="2229.0" y1="5093.0" y2="5109.0" /><line stroke="#333" stroke-width="10" x1="2293.0" x2="2293.0" y1="4965.0" y2="3797.0" /><line stroke="#333" stroke-width="10" x1="2293.0" x2="1701.0" y1="3797.0" y2="3797.0" /><line stroke="#333" stroke-width="10" x1="501.0" x2="501.0" y1="3797.0" y2="4965.0" /><line stroke="#999" stroke-width="3" x1="1159.0" x2="711.0" y1="4469.0" y2="4469.0" /><line stroke="#999" stroke-width="3" x1="1159.0" x2="1159.0" y1="4421.0" y2="4469.0" /><line stroke="#999" stroke-width="3" x1="711.0" x2="1159.0" y1="4421.0" y2="4421.0" /><line stroke="#999" stroke-width="3" x1="711.0" x2="711.0" y1="4469.0" y2="4421.0" /><line stroke="#999" stroke-width="3" x1="1159.0" x2="711.0" y1="4597.0" y2="4597.0" /><line stroke="#999" stroke-width="3" x1="1159.0" x2="1159.0" y1="4549.0" y2="4597.0" /><line stroke="#999" stroke-width="3" x1="711.0" x2="1159.0" y1="4549.0" y2="4549.0" /><line stroke="#999" stroke-width="3" x1="711.0" x2="711.0" y1="4597.0" y2="4549.0" /><line stroke="#999" stroke-width="3" x1="1159.0" x2="711.0" y1="4725.0" y2="4725.0" /><line stroke="#999" stroke-width="3" x1="1159.0" x2="1159.0" y1="4677.0" y2="4725.0" /><line stroke="#999" stroke-width="3" x1="711.0" x2="1159.0" y1="4677.0" y2="4677.0" /><line stroke="#999" stroke-width="3" x1="711.0" x2="711.0" y1="4725.0" y2="4677.0" /><line stroke="#999" stroke-width="3" x1="713.0" x2="1161.0" y1="4085.0" y2="4085.0" /><line stroke="#999" stroke-width="3" x1="1161.0" x2="1161.0" y1="4085.0" y2="4037.0" /><line stroke="#999" stroke-width="3" x1="1161.0" x2="713.0" y1="4037.0" y2="4037.0" /><line stroke="#999" stroke-width="3" x1="713.0" x2="713.0" y1="4037.0" y2="4085.0" /><line stroke="#999" stroke-width="3" x1="713.0" x2="1161.0" y1="4213.0" y2="4213.0" /><line stroke="#999" stroke-width="3" x1="1161.0" x2="1161.0" y1="4213.0" y2="4165.0" /><line stroke="#999" stroke-width="3" x1="1161.0" x2="713.0" y1="4165.0" y2="4165.0" /><line stroke="#999" stroke-width="3" x1="713.0" x2="713.0" y1="4165.0" y2="4213.0" /><line stroke="#999" stroke-width="3" x1="713.0" x2="1161.0" y1="4341.0" y2="4341.0" /><line stroke="#999" stroke-width="3" x1="1161.0" x2="1161.0" y1="4341.0" y2="4293.0" /><line stroke="#999" stroke-width="3" x1="1161.0" x2="713.0" y1="4293.0" y2="4293.0" /><line stroke="#999" stroke-width="3" x1="713.0" x2="713.0" y1="4293.0" y2="4341.0" /><line stroke="#999" stroke-width="3" x1="1659.0" x2="1211.0" y1="4469.0" y2="4469.0" /><line stroke="#999" stroke-width="3" x1="1659.0" x2="1659.0" y1="4421.0" y2="4469.0" /><line stroke="#999" stroke-width="3" x1="1211.0" x2="1659.0" y1="4421.0" y2="4421.0" /><line stroke="#999" stroke-width="3" x1="1211.0" x2="1211.0" y1="4469.0" y2="4421.0" /><line stroke="#999" stroke-width="3" x1="1659.0" x2="1211.0" y1="4597.0" y2="4597.0" /><line stroke="#999" stroke-width="3" x1="1659.0" x2="1659.0" y1="4549.0" y2="4597.0" /><line stroke="#999" stroke-width="3" x1="1211.0" x2="1659.0" y1="4549.0" y2="4549.0" /><line stroke="#999" stroke-width="3" x1="1211.0" x2="1211.0" y1="4597.0" y2="4549.0" /><line stroke="#999" stroke-width="3" x1="1659.0" x2="1211.0" y1="4725.0" y2="4725.0" /><line stroke="#999" stroke-width="3" x1="1659.0" x2="1659.0" y1="4677.0" y2="4725.0" /><line stroke="#999" stroke-width="3" x1="1211.0" x2="1659.0" y1="4677.0" y2="4677.0" /><line stroke="#999" stroke-width="3" x1="1211.0" x2="1211.0" y1="4725.0" y2="4677.0" /><line stroke="#999" stroke-width="3" x1="1213.0" x2="1661.0" y1="4085.0" y2="4085.0" /><line stroke="#999" stroke-width="3" x1="1661.0" x2="1661.0" y1="4085.0" y2="4037.0" /><line stroke="#999" stroke-width="3" x1="1661.0" x2="1213.0" y1="4037.0" y2="4037.0" /><line stroke="#999" stroke-width="3" x1="1213.0" x2="1213.0" y1="4037.0" y2="4085.0" /><line stroke="#999" stroke-width="3" x1="1213.0" x2="1661.0" y1="4213.0" y2="4213.0" /><line stroke="#999" stroke-width="3" x1="1661.0" x2="1661.0" y1="4213.0" y2="4165.0" /><line stroke="#999" stroke-width="3" x1="1661.0" x2="1213.0" y1="4165.0" y2="4165.0" /><line stroke="#999" stroke-width="3" x1="1213.0" x2="1213.0" y1="4165.0" y2="4213.0" /><line stroke="#999" stroke-width="3" x1="1213.0" x2="1661.0" y1="4341.0" y2="4341.0" /><line stroke="#999" stroke-width="3" x1="1661.0" x2="1661.0" y1="4341.0" y2="4293.0" /><line stroke="#999" stroke-width="3" x1="1661.0" x2="1213.0" y1="4293.0" y2="4293.0" /><line stroke="#999" stroke-width="3" x1="1213.0" x2="1213.0" y1="4293.0" y2="4341.0" /><line stroke="#999" stroke-width="3" x1="2159.0" x2="1711.0" y1="4469.0" y2="4469.0" /><line stroke="#999" stroke-width="3" x1="2159.0" x2="2159.0" y1="4421.0" y2="4469.0" /><line stroke="#999" stroke-width="3" x1="1711.0" x2="2159.0" y1="4421.0" y2="4421.0" /><line stroke="#999" stroke-width="3" x1="1711.0" x2="1711.0" y1="4469.0" y2="4421.0" /><line stroke="#999" stroke-width="3" x1="2159.0" x2="1711.0" y1="4597.0" y2="4597.0" /><line stroke="#999" stroke-width="3" x1="2159.0" x2="2159.0" y1="4549.0" y2="4597.0" /><line stroke="#999" stroke-width="3" x1="1711.0" x2="2159.0" y1="4549.0" y2="4549.0" /><line stroke="#999" stroke-width="3" x1="1711.0" x2="1711.0" y1="4597.0" y2="4549.0" /><line stroke="#999" stroke-width="3" x1="2159.0" x2="1711.0" y1="4725.0" y2="4725.0" /><line stroke="#999" stroke-width="3" x1="2159.0" x2="2159.0" y1="4677.0" y2="4725.0" /><line stroke="#999" stroke-width="3" x1="1711.0" x2="2159.0" y1="4677.0" y2="4677.0" /><line stroke="#999" stroke-width="3" x1="1711.0" x2="1711.0" y1="4725.0" y2="4677.0" /><line stroke="#999" stroke-width="3" x1="1713.0" x2="2161.0" y1="4085.0" y2="4085.0" /><line stroke="#999" stroke-width="3" x1="2161.0" x2="2161.0" y1="4085.0" y2="4037.0" /><line stroke="#999" stroke-width="3" x1="2161.0" x2="1713.0" y1="4037.0" y2="4037.0" /><line stroke="#999" stroke-width="3" x1="1713.0" x2="1713.0" y1="4037.0" y2="4085.0" /><line stroke="#999" stroke-width="3" x1="1713.0" x2="2161.0" y1="4213.0" y2="4213.0" /><line stroke="#999" stroke-width="3" x1="2161.0" x2="2161.0" y1="4213.0" y2="4165.0" /><line stroke="#999" stroke-width="3" x1="2161.0" x2="1713.0" y1="4165.0" y2="4165.0" /><line stroke="#999" stroke-width="3" x1="1713.0" x2="1713.0" y1="4165.0" y2="4213.0" /><line stroke="#999" stroke-width="3" x1="1713.0" x2="2161.0" y1="4341.0" y2="4341.0" /><line stroke="#999" stroke-width="3" x1="2161.0" x2="2161.0" y1="4341.0" y2="4293.0" /><line stroke="#999" stroke-width="3" x1="2161.0" x2="1713.0" y1="4293.0" y2="4293.0" /><line stroke="#999" stroke-width="3" x1="1713.0" x2="1713.0" y1="4293.0" y2="4341.0" /><line stroke="#333" stroke-width="10" x1="1045.0" x2="501.0" y1="3797.0" y2="3797.0" /><line stroke="#333" stroke-width="10" x1="1701.0" x2="1701.0" y1="3797.0" y2="3333.0" /><line stroke="#333" stroke-width="10" x1="1045.0" x2="1045.0" y1="3333.0" y2="3797.0" /><line stroke="#999" stroke-width="3" x1="1685.0" x2="1061.0" y1="3301.0" y2="3301.0" /><line stroke="#333" stroke-width="10" x1="85.0" x2="1045.0" y1="3333.0" y2="3333.0" /><line stroke="#333" stroke-width="10" x1="2965.0" x2="2965.0" y1="3333.0" y2="1253.0" /><line stroke="#333" stroke-width="10" x1="2965.0" x2="1621.0" y1="1253.0" y2="1253.0" /><line stroke="#333" stroke-width="10" x1="85.0" x2="85.0" y1="1253.0" y2="3333.0" /><line stroke="#999" stroke-width="3" x1="1045.0" x2="1701.0" y1="3333.0" y2="3333.0" /><line stroke="#333" stroke-width="10" x1="1701.0" x2="2565.0" y1="3333.0" y2="3333.0" /><line stroke="#999" stroke-width="3" x1="1685.0" x2="1685.0" y1="3253.0" y2="3301.0" /><line stroke="#999" stroke-width="3" x1="1061.0" x2="1285.0" y1="3253.0" y2="3253.0" /><line stroke="#999" stroke-width="3" x1="1061.0" x2="1061.0" y1="3301.0" y2="3253.0" /><line stroke="#666" stroke-width="20" x1="1141.0" x2="1077.0" y1="3461.0" y2="3461.0" /><line stroke="#999" stroke-width="3" x1="1141.0" x2="1141.0" y1="3413.0" y2="3461.0" /><line stroke="#999" stroke-width="3" x1="1077.0" x2="1141.0" y1="3413.0" y2="3413.0" /><line stroke="#999" stroke-width="3" x1="1077.0" x2="1077.0" y1="3461.0" y2="3413.0" /><line stroke="#999" stroke-width="3" x1="1301.0" x2="1301.0" y1="2629.0" y2="2577.0" /><line stroke="#999" stroke-width="3" x1="1557.0" x2="1301.0" y1="2629.0" y2="2629.0" /><line stroke="#999" stroke-width="3" x1="1557.0" x2="1557.0" y1="2577.0" y2="2629.0" /><line stroke="#999" stroke-width="3" x1="1557.0" x2="1301.0" y1="2577.0" y2="2577.0" /><line stroke="#999" stroke-width="3" x1="1301.0" x2="1301.0" y1="2577.0" y2="2525.0" /><line stroke="#999" stroke-width="3" x1="1557.0" x2="1557.0" y1="2525.0" y2="2577.0" /><line stroke="#999" stroke-width="3" x1="1557.0" x2="1301.0" y1="2525.0" y2="2525.0" /><line stroke="#999" stroke-width="3" x1="1301.0" x2="1301.0" y1="2525.0" y2="2473.0" /><line stroke="#999" stroke-width="3" x1="1557.0" x2="1557.0" y1="2473.0" y2="2525.0" /><line stroke="#999" stroke-width="3" x1="1557.0" x2="1301.0" y1="2473.0" y2="2473.0" /><line stroke="#999" stroke-width="3" x1="1301.0" x2="1301.0" y1="2473.0" y2="2421.0" /><line stroke="#999" stroke-width="3" x1="1557.0" x2="1557.0" y1="2421.0" y2="2473.0" /><line stroke="#999" stroke-width="3" x1="1557.0" x2="1301.0" y1="2421.0" y2="2421.0" /><line stroke="#999" stroke-width="3" x1="1301.0" x2="1301.0" y1="2421.0" y2="2369.0" /><line stroke="#999" stroke-width="3" x1="1557.0" x2="1557.0" y1="2369.0" y2="2421.0" /><line stroke="#999" stroke-width="3" x1="1557.0" x2="1301.0" y1="2369.0" y2="2369.0" /><line stroke="#999" stroke-width="3" x1="1301.0" x2="1301.0" y1="2369.0" y2="2317.0" /><line stroke="#999" stroke-width="3" x1="1557.0" x2="1557.0" y1="2317.0" y2="2369.0" /><line stroke="#999" stroke-width="3" x1="1557.0" x2="1301.0" y1="2317.0" y2="2317.0" /><line stroke="#999" stroke-width="3" x1="1301.0" x2="1301.0" y1="2317.0" y2="2265.0" /><line stroke="#999" stroke-width="3" x1="1557.0" x2="1557.0" y1="2265.0" y2="2317.0" /><line stroke="#999" stroke-width="3" x1="1557.0" x2="1301.0" y1="2265.0" y2="2265.0" /><line stroke="#999" stroke-width="3" x1="1301.0" x2="1301.0" y1="2265.0" y2="2213.0" /><line stroke="#999" stroke-width="3" x1="1557.0" x2="1557.0" y1="2213.0" y2="2265.0" /><line stroke="#999" stroke-width="3" x1="1557.0" x2="1301.0" y1="2213.0" y2="2213.0" /><line stroke="#999" stroke-width="3" x1="1301.0" x2="1301.0" y1="2213.0" y2="2161.0" /><line stroke="#999" stroke-width="3" x1="1557.0" x2="1557.0" y1="2161.0" y2="2213.0" /><line stroke="#999" stroke-width="3" x1="1557.0" x2="1301.0" y1="2161.0" y2="2161.0" /><line stroke="#999" stroke-width="3" x1="1301.0" x2="1301.0" y1="2161.0" y2="2109.0" /><line stroke="#999" stroke-width="3" x1="1557.0" x2="1557.0" y1="2109.0" y2="2161.0" /><line stroke="#999" stroke-width="3" x1="1557.0" x2="1301.0" y1="2109.0" y2="2109.0" /><line stroke="#999" stroke-width="3" x1="1301.0" x2="1301.0" y1="2109.0" y2="2057.0" /><line stroke="#999" stroke-width="3" x1="1557.0" x2="1557.0" y1="2057.0" y2="2109.0" /><line stroke="#999" stroke-width="3" x1="1557.0" x2="1301.0" y1="2057.0" y2="2057.0" /><line stroke="#999" stroke-width="3" x1="1301.0" x2="1301.0" y1="2057.0" y2="1269.0" /><line stroke="#999" stroke-width="3" x1="1557.0" x2="1557.0" y1="1269.0" y2="2057.0" /><line stroke="#0d0" stroke-width="20" x1="1301.0" x2="1557.0" y1="1269.0" y2="1269.0" /><line stroke="#333" stroke-width="10" x1="1301.0" x2="1301.0" y1="1253.0" y2="1285.0" /><line stroke="#333" stroke-width="10" x1="1557.0" x2="1557.0" y1="1253.0" y2="1173.0" /><line stroke="#333" stroke-width="10" x1="1301.0" x2="1301.0" y1="1173.0" y2="1253.0" /><line stroke="#999" stroke-width="3" x1="1301.0" x2="1557.0" y1="1173.0" y2="1173.0" /><line stroke="#333" stroke-width="10" x1="1557.0" x2="1765.0" y1="1173.0" y2="1173.0" /><line stroke="#333" stroke-width="10" x1="1765.0" x2="1109.0" y1="5.0" y2="5.0" /><line stroke="#333" stroke-width="10" x1="1109.0" x2="1109.0" y1="5.0" y2="1173.0" /><line stroke="#999" stroke-width="3" x1="1365.0" x2="1445.0" y1="3141.0" y2="3253.0" /><line stroke="#999" stroke-width="3" x1="1445.0" x2="1685.0" y1="3253.0" y2="3253.0" /><line stroke="#999" stroke-width="3" x1="1285.0" x2="1365.0" y1="3253.0" y2="3141.0" /><line stroke="#999" stroke-width="3" x1="1685.0" x2="1621.0" y1="2677.0" y2="2677.0" /><line stroke="#999" stroke-width="3" x1="1685.0" x2="1685.0" y1="2581.0" y2="2677.0" /><line stroke="#999" stroke-width="3" x1="1621.0" x2="1685.0" y1="2581.0" y2="2581.0" /><line stroke="#999" stroke-width="3" x1="1621.0" x2="1621.0" y1="2677.0" y2="2581.0" /><line stroke="#999" stroke-width="3" x1="1351.0" x2="1269.0" y1="2757.0" y2="2757.0" /><line stroke="#999" stroke-width="3" x1="1351.0" x2="1351.0" y1="2693.0" y2="2757.0" /><line stroke="#999" stroke-width="3" x1="1269.0" x2="1351.0" y1="2693.0" y2="2693.0" /><line stroke="#999" stroke-width="3" x1="1269.0" x2="1269.0" y1="2757.0" y2="2693.0" /><line stroke="#999" stroke-width="3" x1="1493.0" x2="1381.0" y1="2757.0" y2="2757.0" /><line stroke="#999" stroke-width="3" x1="1493.0" x2="1493.0" y1="2693.0" y2="2757.0" /><line stroke="#999" stroke-width="3" x1="1381.0" x2="1493.0" y1="2693.0" y2="2693.0" /><line stroke="#999" stroke-width="3" x1="1381.0" x2="1381.0" y1="2757.0" y2="2693.0" /><line stroke="#999" stroke-width="3" x1="1589.0" x2="1515.0" y1="2757.0" y2="2757.0" /><line stroke="#999" stroke-width="3" x1="1589.0" x2="1589.0" y1="2693.0" y2="2757.0" /><line stroke="#999" stroke-width="3" x1="1515.0" x2="1589.0" y1="2693.0" y2="2693.0" /><line stroke="#999" stroke-width="3" x1="1515.0" x2="1515.0" y1="2757.0" y2="2693.0" /><line stroke="#999" stroke-width="3" x1="1685.0" x2="1621.0" y1="2549.0" y2="2549.0" /><line stroke="#999" stroke-width="3" x1="1679.0" x2="1685.0" y1="2453.0" y2="2549.0" /><line stroke="#999" stroke-width="3" x1="1615.0" x2="1679.0" y1="2453.0" y2="2453.0" /><line stroke="#999" stroke-width="3" x1="1621.0" x2="1615.0" y1="2549.0" y2="2453.0" /><line stroke="#999" stroke-width="3" x1="1253.0" x2="1189.0" y1="2661.0" y2="2661.0" /><line stroke="#999" stroke-width="3" x1="1249.0" x2="1253.0" y1="2581.0" y2="2661.0" /><line stroke="#999" stroke-width="3" x1="1185.0" x2="1249.0" y1="2581.0" y2="2581.0" /><line stroke="#999" stroke-width="3" x1="1189.0" x2="1185.0" y1="2661.0" y2="2581.0" /><line stroke="#999" stroke-width="3" x1="1253.0" x2="1189.0" y1="2549.0" y2="2549.0" /><line stroke="#999" stroke-width="3" x1="1251.0" x2="1253.0" y1="2453.0" y2="2549.0" /><line stroke="#999" stroke-width="3" x1="1187.0" x2="1251.0" y1="2453.0" y2="2453.0" /><line stroke="#999" stroke-width="3" x1="1189.0" x2="1187.0" y1="2549.0" y2="2453.0" /><line stroke="#333" stroke-width="10" x1="1221.0" x2="85.0" y1="1253.0" y2="1253.0" /><line stroke="#333" stroke-width="10" x1="1301.0" x2="1221.0" y1="1285.0" y2="1253.0" /><line stroke="#333" stroke-width="10" x1="1621.0" x2="1557.0" y1="1253.0" y2="1285.0" /><line stroke="#333" stroke-width="10" x1="1557.0" x2="1557.0" y1="1285.0" y2="1253.0" /><line stroke="#333" stroke-width="10" x1="2453.0" x2="3829.0" y1="4565.0" y2="4565.0" /><line stroke="#333" stroke-width="10" x1="3829.0" x2="3829.0" y1="4565.0" y2="3589.0" /><line stroke="#333" stroke-width="10" x1="3829.0" x2="2677.0" y1="3365.0" y2="3365.0" /><line stroke="#333" stroke-width="10" x1="2453.0" x2="2453.0" y1="3365.0" y2="4565.0" /><line stroke="#333" stroke-width="10" x1="2677.0" x2="2677.0" y1="3365.0" y2="3349.0" /><line stroke="#333" stroke-width="10" x1="2613.0" x2="2453.0" y1="3365.0" y2="3365.0" /><line stroke="#333" stroke-width="10" x1="2613.0" x2="2613.0" y1="3349.0" y2="3365.0" /><line stroke="#666" stroke-width="20" x1="2613.0" x2="2677.0" y1="3349.0" y2="3349.0" /><line stroke="#333" stroke-width="10" x1="2677.0" x2="2677.0" y1="3349.0" y2="3301.0" /><line stroke="#999" stroke-width="3" x1="2677.0" x2="2613.0" y1="3301.0" y2="3301.0" /><line stroke="#333" stroke-width="10" x1="2613.0" x2="2613.0" y1="3301.0" y2="3349.0" /><line stroke="#666" stroke-width="20" x1="2677.0" x2="2613.0" y1="3365.0" y2="3365.0" /><line stroke="#333" stroke-width="10" x1="2677.0" x2="2725.0" y1="3301.0" y2="3333.0" /><line stroke="#999" stroke-width="3" x1="3435.0" x2="3253.0" y1="4084.0" y2="4253.0" /><line stroke="#999" stroke-width="3" x1="3435.0" x2="3435.0" y1="3846.0" y2="4084.0" /><line stroke="#999" stroke-width="3" x1="3253.0" x2="3435.0" y1="3677.0" y2="3846.0" /><line stroke="#999" stroke-width="3" x1="2997.0" x2="3253.0" y1="3677.0" y2="3677.0" /><line stroke="#999" stroke-width="3" x1="2815.0" x2="2997.0" y1="3846.0" y2="3677.0" /><line stroke="#999" stroke-width="3" x1="2815.0" x2="2815.0" y1="4084.0" y2="3846.0" /><line stroke="#999" stroke-width="3" x1="2997.0" x2="2815.0" y1="4253.0" y2="4084.0" /><line stroke="#999" stroke-width="3" x1="3253.0" x2="2997.0" y1="4253.0" y2="4253.0" /><line stroke="#999" stroke-width="3" x1="3227.0" x2="3162.0" y1="4015.0" y2="4076.0" /><line stroke="#999" stroke-width="3" x1="3227.0" x2="3227.0" y1="3931.0" y2="4015.0" /><line stroke="#999" stroke-width="3" x1="3162.0" x2="3227.0" y1="3870.0" y2="3931.0" /><line stroke="#999" stroke-width="3" x1="3072.0" x2="3162.0" y1="3870.0" y2="3870.0" /><line stroke="#999" stroke-width="3" x1="3007.0" x2="3072.0" y1="3931.0" y2="3870.0" /><line stroke="#999" stroke-width="3" x1="3007.0" x2="3007.0" y1="4015.0" y2="3931.0" /><line stroke="#999" stroke-width="3" x1="3072.0" x2="3007.0" y1="4076.0" y2="4015.0" /><line stroke="#999" stroke-width="3" x1="3162.0" x2="3072.0" y1="4076.0" y2="4076.0" /><line stroke="#333" stroke-width="10" x1="3765.0" x2="3765.0" y1="3525.0" y2="3461.0" /><line stroke="#333" stroke-width="10" x1="3829.0" x2="3765.0" y1="3589.0" y2="3525.0" /><line stroke="#333" stroke-width="10" x1="3765.0" x2="3829.0" y1="3461.0" y2="3365.0" /><line stroke="#999" stroke-width="3" x1="2503.0" x2="2439.0" y1="3045.0" y2="3045.0" /><line stroke="#999" stroke-width="3" x1="2503.0" x2="2503.0" y1="1477.0" y2="3045.0" /><line stroke="#999" stroke-width="3" x1="2439.0" x2="2503.0" y1="1477.0" y2="1477.0" /><line stroke="#999" stroke-width="3" x1="2439.0" x2="2439.0" y1="3045.0" y2="1477.0" /><line stroke="#999" stroke-width="3" x1="2681.0" x2="2617.0" y1="3045.0" y2="3045.0" /><line stroke="#999" stroke-width="3" x1="2681.0" x2="2681.0" y1="1477.0" y2="3045.0" /><line stroke="#999" stroke-width="3" x1="2617.0" x2="2681.0" y1="1477.0" y2="1477.0" /><line stroke="#999" stroke-width="3" x1="2617.0" x2="2617.0" y1="3045.0" y2="1477.0" /><line stroke="#999" stroke-width="3" x1="309.0" x2="373.0" y1="3029.0" y2="3029.0" /><line stroke="#999" stroke-width="3" x1="373.0" x2="373.0" y1="3029.0" y2="1461.0" /><line stroke="#999" stroke-width="3" x1="373.0" x2="309.0" y1="1461.0" y2="1461.0" /><line stroke="#999" stroke-width="3" x1="309.0" x2="309.0" y1="1461.0" y2="3029.0" /><line stroke="#999" stroke-width="3" x1="487.0" x2="551.0" y1="3029.0" y2="3029.0" /><line stroke="#999" stroke-width="3" x1="551.0" x2="551.0" y1="3029.0" y2="1461.0" /><line stroke="#999" stroke-width="3" x1="551.0" x2="487.0" y1="1461.0" y2="1461.0" /><line stroke="#999" stroke-width="3" x1="487.0" x2="487.0" y1="1461.0" y2="3029.0" /><line stroke="#333" stroke-width="10" x1="2565.0" x2="2613.0" y1="3333.0" y2="3301.0" /><line stroke="#333" stroke-width="10" x1="2725.0" x2="2965.0" y1="3333.0" y2="3333.0" /><line stroke="#333" stroke-width="10" x1="1109.0" x2="1301.0" y1="1173.0" y2="1173.0" /><line stroke="#333" stroke-width="10" x1="1765.0" x2="1765.0" y1="1173.0" y2="5.0" /><ellipse cx="405.0" cy="6085.0" fill="#009" rx="12" ry="24" stroke="#009" stroke-width="5" /><rect fill="#900" height="48" stroke="#900" stroke-width="5" transform="rotate(0,597.0,5749.0)" width="32" x="581.0" y="5725.0" /><rect fill="#900" height="48" stroke="#900" stroke-width="5" transform="rotate(0,613.0,5573.0)" width="32" x="597.0" y="5549.0" /><rect fill="#900" height="48" stroke="#900" stroke-width="5" transform="rotate(0,581.0,5429.0)" width="32" x="565.0" y="5405.0" /><rect fill="#900" height="48" stroke="#900" stroke-width="5" transform="rotate(0,581.0,5317.0)" width="32" x="565.0" y="5293.0" /><rect fill="#900" height="48" stroke="#900" stroke-width="5" transform="rotate(0,677.0,5189.0)" width="32" x="661.0" y="5165.0" /><rect fill="#900" height="48" stroke="#900" stroke-width="5" transform="rotate(0,885.0,5205.0)" width="32" x="869.0" y="5181.0" /><rect fill="#900" height="48" stroke="#900" stroke-width="5" transform="rotate(0,1093.0,5205.0)" width="32" x="1077.0" y="5181.0" /><rect fill="#900" height="48" stroke="#900" stroke-width="5" transform="rotate(0,1285.0,5189.0)" width="32" x="1269.0" y="5165.0" /><rect fill="#900" height="48" stroke="#900" stroke-width="5" transform="rotate(0,1429.0,5189.0)" width="32" x="1413.0" y="5165.0" /><rect fill="#900" height="48" stroke="#900" stroke-width="5" transform="rotate(0,1653.0,5205.0)" width="32" x="1637.0" y="5181.0" /><rect fill="#900" height="48" stroke="#900" stroke-width="5" transform="rotate(0,1861.0,5205.0)" width="32" x="1845.0" y="5181.0" /><rect fill="#900" height="48" stroke="#900" stroke-width="5" transform="rotate(0,2037.0,5205.0)" width="32" x="2021.0" y="5181.0" /><rect fill="#900" height="48" stroke="#900" stroke-width="5" transform="rotate(0,2213.0,5205.0)" width="32" x="2197.0" y="5181.0" /><rect fill="#900" height="48" stroke="#900" stroke-width="5" transform="rotate(0,2213.0,5381.0)" width="32" x="2197.0" y="5357.0" /><rect fill="#900" height="48" stroke="#900" stroke-width="5" transform="rotate(0,2213.0,5605.0)" width="32" x="2197.0" y="5581.0" /><rect fill="#900" height="48" stroke="#900" stroke-width="5" transform="rotate(0,2229.0,5861.0)" width="32" x="2213.0" y="5837.0" /><rect fill="#900" height="48" stroke="#900" stroke-width="5" transform="rotate(0,2229.0,5989.0)" width="32" x="2213.0" y="5965.0" /><rect fill="#900" height="48" stroke="#900" stroke-width="5" transform="rotate(0,2213.0,6085.0)" width="32" x="2197.0" y="6061.0" /><rect fill="#900" height="48" stroke="#900" stroke-width="5" transform="rotate(0,1941.0,6101.0)" width="32" x="1925.0" y="6077.0" /><rect fill="#900" height="48" stroke="#900" stroke-width="5" transform="rotate(0,1669.0,6085.0)" width="32" x="1653.0" y="6061.0" /><rect fill="#900" height="48" stroke="#900" stroke-width="5" transform="rotate(0,1413.0,6085.0)" width="32" x="1397.0" y="6061.0" /><rect fill="#900" height="48" stroke="#900" stroke-width="5" transform="rotate(0,1109.0,6085.0)" width="32" x="1093.0" y="6061.0" /><rect fill="#900" height="48" stroke="#900" stroke-width="5" transform="rotate(0,917.0,6085.0)" width="32" x="901.0" y="6061.0" /><rect fill="#900" height="48" stroke="#900" stroke-width="5" transform="rotate(0,661.0,6101.0)" width="32" x="645.0" y="6077.0" /><rect fill="#900" height="48" stroke="#900" stroke-width="5" transform="rotate(0,581.0,5957.0)" width="32" x="565.0" y="5933.0" /><rect fill="#900" height="48" stroke="#900" stroke-width="5" transform="rotate(0,2101.0,6117.0)" width="32" x="2085.0" y="6093.0" /><rect fill="#900" height="48" stroke="#900" stroke-width="5" transform="rotate(0,1029.0,5653.0)" width="32" x="1013.0" y="5629.0" /><rect fill="#900" height="48" stroke="#900" stroke-width="5" transform="rotate(0,1429.0,5669.0)" width="32" x="1413.0" y="5645.0" /><rect fill="#900" height="48" stroke="#900" stroke-width="5" transform="rotate(0,1573.0,5669.0)" width="32" x="1557.0" y="5645.0" /><rect fill="#900" height="48" stroke="#900" stroke-width="5" transform="rotate(0,1909.0,5637.0)" width="32" x="1893.0" y="5613.0" /><rect fill="#900" height="48" stroke="#900" stroke-width="5" transform="rotate(0,2053.0,5669.0)" width="32" x="2037.0" y="5645.0" /><rect fill="#900" height="48" stroke="#900" stroke-width="5" transform="rotate(0,1893.0,5797.0)" width="32" x="1877.0" y="5773.0" /><rect fill="#900" height="48" stroke="#900" stroke-width="5" transform="rotate(0,1461.0,5925.0)" width="32" x="1445.0" y="5901.0" /><rect fill="#900" height="48" stroke="#900" stroke-width="5" transform="rotate(0,1317.0,5925.0)" width="32" x="1301.0" y="5901.0" /><rect fill="#900" height="48" stroke="#900" stroke-width="5" transform="rotate(0,901.0,5925.0)" width="32" x="885.0" y="5901.0" /><rect fill="#900" height="48" stroke="#900" stroke-width="5" transform="rotate(0,837.0,5781.0)" width="32" x="821.0" y="5757.0" /><rect fill="#900" height="48" stroke="#900" stroke-width="5" transform="rotate(0,981.0,5797.0)" width="32" x="965.0" y="5773.0" /><rect fill="#900" height="48" stroke="#900" stroke-width="5" transform="rotate(0,853.0,5397.0)" width="32" x="837.0" y="5373.0" /><rect fill="#900" height="48" stroke="#900" stroke-width="5" transform="rotate(0,997.0,5381.0)" width="32" x="981.0" y="5357.0" /><rect fill="#900" height="48" stroke="#900" stroke-width="5" transform="rotate(0,1349.0,5397.0)" width="32" x="1333.0" y="5373.0" /><rect fill="#900" height="48" stroke="#900" stroke-width="5" transform="rotate(0,1877.0,5397.0)" width="32" x="1861.0" y="5373.0" /><rect fill="#900" height="48" stroke="#900" stroke-width="5" transform="rotate(0,2005.0,5397.0)" width="32" x="1989.0" y="5373.0" /><rect fill="#900" height="48" stroke="#900" stroke-width="5" transform="rotate(0,1413.0,5525.0)" width="32" x="1397.0" y="5501.0" /><rect fill="#900" height="48" stroke="#900" stroke-width="5" transform="rotate(0,853.0,5525.0)" width="32" x="837.0" y="5501.0" /><rect fill="#900" height="48" stroke="#900" stroke-width="5" transform="rotate(0,981.0,5509.0)" width="32" x="965.0" y="5485.0" /><rect fill="#900" height="48" stroke="#900" stroke-width="5" transform="rotate(0,1301.0,5525.0)" width="32" x="1285.0" y="5501.0" /><rect fill="#900" height="48" stroke="#900" stroke-width="5" transform="rotate(0,1525.0,5525.0)" width="32" x="1509.0" y="5501.0" /><rect fill="#900" height="48" stroke="#900" stroke-width="5" transform="rotate(0,1797.0,5509.0)" width="32" x="1781.0" y="5485.0" /><rect fill="#900" height="48" stroke="#900" stroke-width="5" transform="rotate(0,2005.0,5509.0)" width="32" x="1989.0" y="5485.0" /><rect fill="#900" height="48" stroke="#900" stroke-width="5" transform="rotate(0,2053.0,5781.0)" width="32" x="2037.0" y="5757.0" /></svg>