<?xml version="1.0" encoding="utf-8" ?>
<svg baseProfile="tiny" height="903" version="1.2" viewBox="0 0 2170 1914" width="1024" xmlns="http://www.w3.org/2000/svg" xmlns:ev="http://www.w3.org/2001/xml-events" xmlns:xlink="http://www.w3.org/1999/xlink"><defs /><line stroke="#333" stroke-width="10" x1="2117.0" x2="2053.0" y1="1541.0" y2="1541.0" /><line stroke="#333" stroke-width="10" x1="1765.0" x2="1765.0" y1="1541.0" y2="1749.0" /><line stroke="#333" stroke-width="10" x1="1733.0" x2="2165.0" y1="1909.0" y2="1909.0" /><line stroke="#333" stroke-width="10" x1="2165.0" x2="2165.0" y1="1909.0" y2="1541.0" /><line stroke="#333" stroke-width="10" x1="2165.0" x2="2117.0" y1="1541.0" y2="1541.0" /><line stroke="#999" stroke-width="3" x1="2117.0" x2="2117.0" y1="1541.0" y2="1861.0" /><line stroke="#999" stroke-width="3" x1="2117.0" x2="1733.0" y1="1861.0" y2="1861.0" /><line stroke="#333" stroke-width="10" x1="1733.0" x2="1733.0" y1="1861.0" y2="1909.0" /><line stroke="#333" stroke-width="10" x1="1765.0" x2="1733.0" y1="1749.0" y2="1797.0" /><line stroke="#999" stroke-width="3" x1="1925.0" x2="1861.0" y1="1669.0" y2="1669.0" /><line stroke="#999" stroke-width="3" x1="1925.0" x2="1925.0" y1="1605.0" y2="1669.0" /><line stroke="#999" stroke-width="3" x1="1861.0" x2="1925.0" y1="1605.0" y2="1605.0" /><line stroke="#999" stroke-width="3" x1="1861.0" x2="1861.0" y1="1669.0" y2="1605.0" /><line stroke="#333" stroke-width="10" x1="1733.0" x2="1717.0" y1="1797.0" y2="1797.0" /><line stroke="#333" stroke-width="10" x1="1685.0" x2="1541.0" y1="1541.0" y2="1541.0" /><line stroke="#333" stroke-width="10" x1="1685.0" x2="1685.0" y1="1749.0" y2="1541.0" /><line stroke="#333" stroke-width="10" x1="1285.0" x2="1717.0" y1="1909.0" y2="1909.0" /><line stroke="#333" stroke-width="10" x1="1717.0" x2="1717.0" y1="1909.0" y2="1861.0" /><line stroke="#999" stroke-width="3" x1="1717.0" x2="1333.0" y1="1861.0" y2="1861.0" /><line stroke="#333" stroke-width="10" x1="1333.0" x2="1285.0" y1="1541.0" y2="1541.0" /><line stroke="#999" stroke-width="3" x1="1333.0" x2="1333.0" y1="1861.0" y2="1541.0" /><line stroke="#333" stroke-width="10" x1="1285.0" x2="1285.0" y1="1541.0" y2="1909.0" /><line stroke="#999" stroke-width="3" x1="2053.0" x2="1989.0" y1="1797.0" y2="1797.0" /><line stroke="#333" stroke-width="10" x1="1989.0" x2="1765.0" y1="1541.0" y2="1541.0" /><line stroke="#333" stroke-width="10" x1="1989.0" x2="1989.0" y1="1485.0" y2="1541.0" /><line stroke="#999" stroke-width="3" x1="1989.0" x2="2053.0" y1="1541.0" y2="1541.0" /><line stroke="#333" stroke-width="10" x1="2053.0" x2="2053.0" y1="1541.0" y2="1485.0" /><line stroke="#999" stroke-width="3" x1="2053.0" x2="1989.0" y1="1485.0" y2="1485.0" /><line stroke="#333" stroke-width="10" x1="1989.0" x2="1989.0" y1="1429.0" y2="1485.0" /><line stroke="#999" stroke-width="3" x1="2053.0" x2="2053.0" y1="1781.0" y2="1797.0" /><line stroke="#333" stroke-width="10" x1="2053.0" x2="2053.0" y1="1485.0" y2="1429.0" /><line stroke="#999" stroke-width="3" x1="2053.0" x2="1989.0" y1="1429.0" y2="1429.0" /><line stroke="#999" stroke-width="3" x1="1989.0" x2="2053.0" y1="1781.0" y2="1781.0" /><line stroke="#333" stroke-width="10" x1="1989.0" x2="1989.0" y1="1373.0" y2="1429.0" /><line stroke="#333" stroke-width="10" x1="2053.0" x2="2053.0" y1="1429.0" y2="1373.0" /><line stroke="#999" stroke-width="3" x1="1989.0" x2="1989.0" y1="1797.0" y2="1781.0" /><line stroke="#999" stroke-width="3" x1="2053.0" x2="1989.0" y1="1373.0" y2="1373.0" /><line stroke="#333" stroke-width="10" x1="1989.0" x2="1989.0" y1="1317.0" y2="1373.0" /><line stroke="#333" stroke-width="10" x1="2053.0" x2="2053.0" y1="1373.0" y2="1317.0" /><line stroke="#999" stroke-width="3" x1="2053.0" x2="1989.0" y1="1317.0" y2="1317.0" /><line stroke="#333" stroke-width="10" x1="1989.0" x2="1989.0" y1="1261.0" y2="1317.0" /><line stroke="#333" stroke-width="10" x1="2053.0" x2="2053.0" y1="1317.0" y2="1261.0" /><line stroke="#999" stroke-width="3" x1="2053.0" x2="1989.0" y1="1261.0" y2="1261.0" /><line stroke="#333" stroke-width="10" x1="1989.0" x2="1989.0" y1="1205.0" y2="1261.0" /><line stroke="#333" stroke-width="10" x1="2053.0" x2="2053.0" y1="1261.0" y2="1205.0" /><line stroke="#999" stroke-width="3" x1="2053.0" x2="1989.0" y1="1205.0" y2="1205.0" /><line stroke="#333" stroke-width="10" x1="1989.0" x2="1989.0" y1="1149.0" y2="1205.0" /><line stroke="#999" stroke-width="3" x1="1733.0" x2="1733.0" y1="1861.0" y2="1797.0" /><line stroke="#333" stroke-width="10" x1="1717.0" x2="1685.0" y1="1797.0" y2="1749.0" /><line stroke="#333" stroke-width="10" x1="1717.0" x2="1733.0" y1="1861.0" y2="1861.0" /><line stroke="#333" stroke-width="10" x1="2053.0" x2="2053.0" y1="1205.0" y2="1149.0" /><line stroke="#999" stroke-width="3" x1="2053.0" x2="1989.0" y1="1149.0" y2="1149.0" /><line stroke="#333" stroke-width="10" x1="1989.0" x2="1989.0" y1="1093.0" y2="1149.0" /><line stroke="#333" stroke-width="10" x1="2053.0" x2="2053.0" y1="1149.0" y2="1093.0" /><line stroke="#333" stroke-width="10" x1="2053.0" x2="1989.0" y1="1093.0" y2="1093.0" /><line stroke="#333" stroke-width="10" x1="1477.0" x2="1477.0" y1="933.0" y2="965.0" /><line stroke="#999" stroke-width="3" x1="1477.0" x2="1541.0" y1="1105.0" y2="1105.0" /><line stroke="#333" stroke-width="10" x1="1541.0" x2="1541.0" y1="1105.0" y2="997.0" /><line stroke="#333" stroke-width="10" x1="1829.0" x2="1733.0" y1="933.0" y2="933.0" /><line stroke="#333" stroke-width="10" x1="1477.0" x2="1477.0" y1="1105.0" y2="1165.0" /><line stroke="#999" stroke-width="3" x1="1477.0" x2="1541.0" y1="1165.0" y2="1165.0" /><line stroke="#333" stroke-width="10" x1="1541.0" x2="1541.0" y1="1165.0" y2="1105.0" /><line stroke="#333" stroke-width="10" x1="1477.0" x2="1413.0" y1="1541.0" y2="1541.0" /><line stroke="#333" stroke-width="10" x1="1477.0" x2="1477.0" y1="1165.0" y2="1225.0" /><line stroke="#999" stroke-width="3" x1="1477.0" x2="1541.0" y1="1225.0" y2="1225.0" /><line stroke="#333" stroke-width="10" x1="1541.0" x2="1541.0" y1="1225.0" y2="1165.0" /><line stroke="#999" stroke-width="3" x1="1541.0" x2="1477.0" y1="1541.0" y2="1541.0" /><line stroke="#333" stroke-width="10" x1="1477.0" x2="1477.0" y1="1225.0" y2="1285.0" /><line stroke="#999" stroke-width="3" x1="1477.0" x2="1541.0" y1="1285.0" y2="1285.0" /><line stroke="#333" stroke-width="10" x1="1541.0" x2="1541.0" y1="1285.0" y2="1225.0" /><line stroke="#333" stroke-width="10" x1="1621.0" x2="1669.0" y1="1413.0" y2="1413.0" /><line stroke="#333" stroke-width="10" x1="1477.0" x2="1477.0" y1="1285.0" y2="1345.0" /><line stroke="#999" stroke-width="3" x1="1477.0" x2="1541.0" y1="1345.0" y2="1345.0" /><line stroke="#333" stroke-width="10" x1="1541.0" x2="1541.0" y1="1345.0" y2="1285.0" /><line stroke="#333" stroke-width="10" x1="1669.0" x2="1861.0" y1="1461.0" y2="1461.0" /><line stroke="#333" stroke-width="10" x1="1477.0" x2="1477.0" y1="1345.0" y2="1405.0" /><line stroke="#999" stroke-width="3" x1="1477.0" x2="1541.0" y1="1405.0" y2="1405.0" /><line stroke="#333" stroke-width="10" x1="1541.0" x2="1541.0" y1="1405.0" y2="1345.0" /><line stroke="#333" stroke-width="10" x1="1861.0" x2="1829.0" y1="1029.0" y2="1029.0" /><line stroke="#333" stroke-width="10" x1="1477.0" x2="1477.0" y1="1405.0" y2="1465.0" /><line stroke="#999" stroke-width="3" x1="1477.0" x2="1541.0" y1="1465.0" y2="1465.0" /><line stroke="#333" stroke-width="10" x1="1541.0" x2="1541.0" y1="1465.0" y2="1405.0" /><line stroke="#333" stroke-width="10" x1="1541.0" x2="1685.0" y1="997.0" y2="997.0" /><line stroke="#333" stroke-width="10" x1="1477.0" x2="1477.0" y1="1465.0" y2="1541.0" /><line stroke="#333" stroke-width="10" x1="1861.0" x2="1909.0" y1="1413.0" y2="1413.0" /><line stroke="#333" stroke-width="10" x1="1541.0" x2="1541.0" y1="1541.0" y2="1465.0" /><line stroke="#333" stroke-width="10" x1="1909.0" x2="1909.0" y1="1413.0" y2="1029.0" /><line stroke="#333" stroke-width="10" x1="1909.0" x2="1861.0" y1="1029.0" y2="1029.0" /><line stroke="#999" stroke-width="3" x1="1861.0" x2="1861.0" y1="1029.0" y2="1413.0" /><line stroke="#333" stroke-width="10" x1="1861.0" x2="1861.0" y1="1461.0" y2="1413.0" /><line stroke="#999" stroke-width="3" x1="1861.0" x2="1669.0" y1="1413.0" y2="1413.0" /><line stroke="#333" stroke-width="10" x1="1669.0" x2="1669.0" y1="1413.0" y2="1461.0" /><line stroke="#333" stroke-width="10" x1="1829.0" x2="1829.0" y1="1029.0" y2="933.0" /><line stroke="#999" stroke-width="3" x1="1669.0" x2="1669.0" y1="1413.0" y2="1029.0" /><line stroke="#333" stroke-width="10" x1="1669.0" x2="1621.0" y1="1029.0" y2="1029.0" /><line stroke="#333" stroke-width="10" x1="1621.0" x2="1621.0" y1="1029.0" y2="1413.0" /><line stroke="#333" stroke-width="10" x1="1701.0" x2="1669.0" y1="1029.0" y2="1029.0" /><line stroke="#999" stroke-width="3" x1="1701.0" x2="1829.0" y1="1029.0" y2="1029.0" /><line stroke="#333" stroke-width="10" x1="1685.0" x2="1701.0" y1="997.0" y2="1029.0" /><line stroke="#999" stroke-width="3" x1="1781.0" x2="1717.0" y1="1013.0" y2="1013.0" /><line stroke="#999" stroke-width="3" x1="1781.0" x2="1781.0" y1="981.0" y2="1013.0" /><line stroke="#999" stroke-width="3" x1="1717.0" x2="1781.0" y1="981.0" y2="981.0" /><line stroke="#999" stroke-width="3" x1="1717.0" x2="1717.0" y1="1013.0" y2="981.0" /><line stroke="#999" stroke-width="3" x1="1477.0" x2="1477.0" y1="1029.0" y2="965.0" /><line stroke="#333" stroke-width="10" x1="1477.0" x2="1413.0" y1="965.0" y2="965.0" /><line stroke="#333" stroke-width="10" x1="5.0" x2="5.0" y1="917.0" y2="1829.0" /><line stroke="#333" stroke-width="10" x1="1477.0" x2="1477.0" y1="1029.0" y2="1105.0" /><line stroke="#333" stroke-width="10" x1="117.0" x2="165.0" y1="1829.0" y2="1829.0" /><line stroke="#333" stroke-width="10" x1="1413.0" x2="1413.0" y1="1077.0" y2="1029.0" /><line stroke="#999" stroke-width="3" x1="1413.0" x2="117.0" y1="1029.0" y2="1029.0" /><line stroke="#999" stroke-width="3" x1="117.0" x2="117.0" y1="1029.0" y2="1829.0" /><line stroke="#999" stroke-width="3" x1="53.0" x2="1413.0" y1="965.0" y2="965.0" /><line stroke="#333" stroke-width="10" x1="1413.0" x2="1477.0" y1="1029.0" y2="1029.0" /><line stroke="#333" stroke-width="10" x1="1413.0" x2="1413.0" y1="965.0" y2="917.0" /><line stroke="#333" stroke-width="10" x1="1413.0" x2="5.0" y1="917.0" y2="917.0" /><line stroke="#999" stroke-width="3" x1="53.0" x2="53.0" y1="1029.0" y2="965.0" /><line stroke="#666" stroke-width="20" x1="53.0" x2="117.0" y1="1829.0" y2="1829.0" /><line stroke="#333" stroke-width="10" x1="5.0" x2="53.0" y1="1829.0" y2="1829.0" /><line stroke="#999" stroke-width="3" x1="117.0" x2="53.0" y1="1029.0" y2="1029.0" /><line stroke="#999" stroke-width="3" x1="53.0" x2="53.0" y1="1829.0" y2="1029.0" /><line stroke="#333" stroke-width="10" x1="165.0" x2="1413.0" y1="1077.0" y2="1077.0" /><line stroke="#333" stroke-width="10" x1="165.0" x2="165.0" y1="1829.0" y2="1077.0" /><line stroke="#999" stroke-width="3" x1="1461.0" x2="1445.0" y1="1013.0" y2="1013.0" /><line stroke="#999" stroke-width="3" x1="1461.0" x2="1461.0" y1="981.0" y2="1013.0" /><line stroke="#999" stroke-width="3" x1="1445.0" x2="1461.0" y1="981.0" y2="981.0" /><line stroke="#999" stroke-width="3" x1="1445.0" x2="1445.0" y1="1013.0" y2="981.0" /><line stroke="#999" stroke-width="3" x1="1797.0" x2="1733.0" y1="1349.0" y2="1349.0" /><line stroke="#999" stroke-width="3" x1="1797.0" x2="1797.0" y1="1333.0" y2="1349.0" /><line stroke="#666" stroke-width="20" x1="1733.0" x2="1797.0" y1="1333.0" y2="1333.0" /><line stroke="#999" stroke-width="3" x1="1733.0" x2="1733.0" y1="1349.0" y2="1333.0" /><line stroke="#333" stroke-width="10" x1="453.0" x2="485.0" y1="1669.0" y2="1829.0" /><line stroke="#333" stroke-width="10" x1="1061.0" x2="1237.0" y1="1669.0" y2="1637.0" /><line stroke="#333" stroke-width="10" x1="1061.0" x2="1045.0" y1="1269.0" y2="1109.0" /><line stroke="#333" stroke-width="10" x1="453.0" x2="261.0" y1="1269.0" y2="1317.0" /><line stroke="#333" stroke-width="10" x1="1237.0" x2="1349.0" y1="1509.0" y2="1509.0" /><line stroke="#333" stroke-width="10" x1="1413.0" x2="1413.0" y1="1509.0" y2="1429.0" /><line stroke="#333" stroke-width="10" x1="1413.0" x2="1237.0" y1="1429.0" y2="1429.0" /><line stroke="#999" stroke-width="3" x1="1349.0" x2="1413.0" y1="1541.0" y2="1541.0" /><line stroke="#999" stroke-width="3" x1="1237.0" x2="1237.0" y1="1509.0" y2="1429.0" /><line stroke="#333" stroke-width="10" x1="1237.0" x2="1237.0" y1="1429.0" y2="1333.0" /><line stroke="#333" stroke-width="10" x1="1413.0" x2="1413.0" y1="1541.0" y2="1509.0" /><line stroke="#999" stroke-width="3" x1="1413.0" x2="1349.0" y1="1509.0" y2="1509.0" /><line stroke="#333" stroke-width="10" x1="1349.0" x2="1349.0" y1="1509.0" y2="1541.0" /><line stroke="#333" stroke-width="10" x1="1349.0" x2="1333.0" y1="1541.0" y2="1541.0" /><line stroke="#999" stroke-width="3" x1="962.0" x2="832.0" y1="1550.0" y2="1654.0" /><line stroke="#999" stroke-width="3" x1="962.0" x2="962.0" y1="1404.0" y2="1550.0" /><line stroke="#999" stroke-width="3" x1="832.0" x2="962.0" y1="1300.0" y2="1404.0" /><line stroke="#999" stroke-width="3" x1="650.0" x2="832.0" y1="1300.0" y2="1300.0" /><line stroke="#999" stroke-width="3" x1="520.0" x2="650.0" y1="1404.0" y2="1300.0" /><line stroke="#999" stroke-width="3" x1="520.0" x2="520.0" y1="1550.0" y2="1404.0" /><line stroke="#999" stroke-width="3" x1="650.0" x2="520.0" y1="1654.0" y2="1550.0" /><line stroke="#999" stroke-width="3" x1="832.0" x2="650.0" y1="1654.0" y2="1654.0" /><line stroke="#999" stroke-width="3" x1="800.0" x2="765.0" y1="1512.0" y2="1551.0" /><line stroke="#999" stroke-width="3" x1="800.0" x2="800.0" y1="1458.0" y2="1512.0" /><line stroke="#999" stroke-width="3" x1="765.0" x2="800.0" y1="1419.0" y2="1458.0" /><line stroke="#999" stroke-width="3" x1="717.0" x2="765.0" y1="1419.0" y2="1419.0" /><line stroke="#999" stroke-width="3" x1="682.0" x2="717.0" y1="1458.0" y2="1419.0" /><line stroke="#999" stroke-width="3" x1="682.0" x2="682.0" y1="1512.0" y2="1458.0" /><line stroke="#999" stroke-width="3" x1="717.0" x2="682.0" y1="1551.0" y2="1512.0" /><line stroke="#999" stroke-width="3" x1="765.0" x2="717.0" y1="1551.0" y2="1551.0" /><line stroke="#333" stroke-width="10" x1="485.0" x2="1045.0" y1="1829.0" y2="1829.0" /><line stroke="#333" stroke-width="10" x1="261.0" x2="453.0" y1="1621.0" y2="1669.0" /><line stroke="#333" stroke-width="10" x1="261.0" x2="261.0" y1="1317.0" y2="1349.0" /><line stroke="#333" stroke-width="10" x1="485.0" x2="453.0" y1="1109.0" y2="1269.0" /><line stroke="#333" stroke-width="10" x1="1237.0" x2="1061.0" y1="1333.0" y2="1269.0" /><line stroke="#333" stroke-width="10" x1="1045.0" x2="485.0" y1="1109.0" y2="1109.0" /><line stroke="#333" stroke-width="10" x1="1045.0" x2="1061.0" y1="1829.0" y2="1669.0" /><line stroke="#333" stroke-width="10" x1="1237.0" x2="1237.0" y1="1637.0" y2="1509.0" /><line stroke="#333" stroke-width="10" x1="261.0" x2="261.0" y1="1541.0" y2="1621.0" /><line stroke="#333" stroke-width="10" x1="261.0" x2="325.0" y1="1349.0" y2="1413.0" /><line stroke="#333" stroke-width="10" x1="325.0" x2="325.0" y1="1413.0" y2="1477.0" /><line stroke="#333" stroke-width="10" x1="325.0" x2="261.0" y1="1477.0" y2="1541.0" /><line stroke="#999" stroke-width="3" x1="1477.0" x2="1541.0" y1="933.0" y2="933.0" /><line stroke="#333" stroke-width="10" x1="1541.0" x2="1541.0" y1="933.0" y2="901.0" /><line stroke="#333" stroke-width="10" x1="1477.0" x2="1477.0" y1="901.0" y2="933.0" /><line stroke="#333" stroke-width="10" x1="1541.0" x2="821.0" y1="5.0" y2="5.0" /><line stroke="#999" stroke-width="3" x1="1541.0" x2="1477.0" y1="901.0" y2="901.0" /><line stroke="#333" stroke-width="10" x1="1541.0" x2="1573.0" y1="901.0" y2="901.0" /><line stroke="#333" stroke-width="10" x1="1573.0" x2="1573.0" y1="901.0" y2="5.0" /><line stroke="#333" stroke-width="10" x1="1573.0" x2="1541.0" y1="5.0" y2="5.0" /><line stroke="#999" stroke-width="3" x1="1541.0" x2="1541.0" y1="5.0" y2="901.0" /><line stroke="#333" stroke-width="10" x1="1445.0" x2="1477.0" y1="901.0" y2="901.0" /><line stroke="#999" stroke-width="3" x1="1477.0" x2="1477.0" y1="901.0" y2="69.0" /><line stroke="#999" stroke-width="3" x1="1477.0" x2="981.0" y1="69.0" y2="69.0" /><line stroke="#333" stroke-width="10" x1="981.0" x2="981.0" y1="69.0" y2="117.0" /><line stroke="#333" stroke-width="10" x1="981.0" x2="1445.0" y1="117.0" y2="117.0" /><line stroke="#999" stroke-width="3" x1="821.0" x2="949.0" y1="149.0" y2="149.0" /><line stroke="#333" stroke-width="10" x1="1445.0" x2="1445.0" y1="117.0" y2="901.0" /><line stroke="#333" stroke-width="10" x1="677.0" x2="965.0" y1="885.0" y2="885.0" /><line stroke="#333" stroke-width="10" x1="1413.0" x2="1413.0" y1="885.0" y2="613.0" /><line stroke="#333" stroke-width="10" x1="1269.0" x2="949.0" y1="149.0" y2="149.0" /><line stroke="#333" stroke-width="10" x1="821.0" x2="757.0" y1="453.0" y2="501.0" /><line stroke="#999" stroke-width="3" x1="1370.0" x2="1292.0" y1="775.0" y2="857.0" /><line stroke="#999" stroke-width="3" x1="1370.0" x2="1370.0" y1="659.0" y2="775.0" /><line stroke="#999" stroke-width="3" x1="1292.0" x2="1370.0" y1="577.0" y2="659.0" /><line stroke="#999" stroke-width="3" x1="1182.0" x2="1292.0" y1="577.0" y2="577.0" /><line stroke="#999" stroke-width="3" x1="1104.0" x2="1182.0" y1="659.0" y2="577.0" /><line stroke="#999" stroke-width="3" x1="1104.0" x2="1104.0" y1="775.0" y2="659.0" /><line stroke="#999" stroke-width="3" x1="1182.0" x2="1104.0" y1="857.0" y2="775.0" /><line stroke="#999" stroke-width="3" x1="1292.0" x2="1182.0" y1="857.0" y2="857.0" /><line stroke="#999" stroke-width="3" x1="1281.0" x2="1255.0" y1="743.0" y2="769.0" /><line stroke="#999" stroke-width="3" x1="1281.0" x2="1281.0" y1="707.0" y2="743.0" /><line stroke="#999" stroke-width="3" x1="1255.0" x2="1281.0" y1="681.0" y2="707.0" /><line stroke="#999" stroke-width="3" x1="1219.0" x2="1255.0" y1="681.0" y2="681.0" /><line stroke="#999" stroke-width="3" x1="1193.0" x2="1219.0" y1="707.0" y2="681.0" /><line stroke="#999" stroke-width="3" x1="1193.0" x2="1193.0" y1="743.0" y2="707.0" /><line stroke="#999" stroke-width="3" x1="1219.0" x2="1193.0" y1="769.0" y2="743.0" /><line stroke="#999" stroke-width="3" x1="1255.0" x2="1219.0" y1="769.0" y2="769.0" /><line stroke="#999" stroke-width="3" x1="998.0" x2="920.0" y1="775.0" y2="857.0" /><line stroke="#999" stroke-width="3" x1="998.0" x2="998.0" y1="659.0" y2="775.0" /><line stroke="#999" stroke-width="3" x1="920.0" x2="998.0" y1="577.0" y2="659.0" /><line stroke="#999" stroke-width="3" x1="810.0" x2="920.0" y1="577.0" y2="577.0" /><line stroke="#999" stroke-width="3" x1="732.0" x2="810.0" y1="659.0" y2="577.0" /><line stroke="#999" stroke-width="3" x1="732.0" x2="732.0" y1="775.0" y2="659.0" /><line stroke="#999" stroke-width="3" x1="810.0" x2="732.0" y1="857.0" y2="775.0" /><line stroke="#999" stroke-width="3" x1="920.0" x2="810.0" y1="857.0" y2="857.0" /><line stroke="#999" stroke-width="3" x1="909.0" x2="883.0" y1="743.0" y2="769.0" /><line stroke="#999" stroke-width="3" x1="909.0" x2="909.0" y1="707.0" y2="743.0" /><line stroke="#999" stroke-width="3" x1="883.0" x2="909.0" y1="681.0" y2="707.0" /><line stroke="#999" stroke-width="3" x1="847.0" x2="883.0" y1="681.0" y2="681.0" /><line stroke="#999" stroke-width="3" x1="821.0" x2="847.0" y1="707.0" y2="681.0" /><line stroke="#999" stroke-width="3" x1="821.0" x2="821.0" y1="743.0" y2="707.0" /><line stroke="#999" stroke-width="3" x1="847.0" x2="821.0" y1="769.0" y2="743.0" /><line stroke="#999" stroke-width="3" x1="883.0" x2="847.0" y1="769.0" y2="769.0" /><line stroke="#999" stroke-width="3" x1="1186.0" x2="1108.0" y1="471.0" y2="553.0" /><line stroke="#999" stroke-width="3" x1="1186.0" x2="1186.0" y1="355.0" y2="471.0" /><line stroke="#999" stroke-width="3" x1="1108.0" x2="1186.0" y1="273.0" y2="355.0" /><line stroke="#999" stroke-width="3" x1="998.0" x2="1108.0" y1="273.0" y2="273.0" /><line stroke="#999" stroke-width="3" x1="920.0" x2="998.0" y1="355.0" y2="273.0" /><line stroke="#999" stroke-width="3" x1="920.0" x2="920.0" y1="471.0" y2="355.0" /><line stroke="#999" stroke-width="3" x1="998.0" x2="920.0" y1="553.0" y2="471.0" /><line stroke="#999" stroke-width="3" x1="1108.0" x2="998.0" y1="553.0" y2="553.0" /><line stroke="#999" stroke-width="3" x1="1097.0" x2="1071.0" y1="439.0" y2="465.0" /><line stroke="#999" stroke-width="3" x1="1097.0" x2="1097.0" y1="403.0" y2="439.0" /><line stroke="#999" stroke-width="3" x1="1071.0" x2="1097.0" y1="377.0" y2="403.0" /><line stroke="#999" stroke-width="3" x1="1035.0" x2="1071.0" y1="377.0" y2="377.0" /><line stroke="#999" stroke-width="3" x1="1009.0" x2="1035.0" y1="403.0" y2="377.0" /><line stroke="#999" stroke-width="3" x1="1009.0" x2="1009.0" y1="439.0" y2="403.0" /><line stroke="#999" stroke-width="3" x1="1035.0" x2="1009.0" y1="465.0" y2="439.0" /><line stroke="#999" stroke-width="3" x1="1071.0" x2="1035.0" y1="465.0" y2="465.0" /><line stroke="#333" stroke-width="10" x1="677.0" x2="677.0" y1="597.0" y2="885.0" /><line stroke="#333" stroke-width="10" x1="821.0" x2="821.0" y1="149.0" y2="453.0" /><line stroke="#333" stroke-width="10" x1="1333.0" x2="1269.0" y1="517.0" y2="469.0" /><line stroke="#333" stroke-width="10" x1="1413.0" x2="1333.0" y1="613.0" y2="517.0" /><line stroke="#333" stroke-width="10" x1="1269.0" x2="1269.0" y1="469.0" y2="149.0" /><line stroke="#333" stroke-width="10" x1="757.0" x2="677.0" y1="501.0" y2="597.0" /><line stroke="#333" stroke-width="10" x1="949.0" x2="949.0" y1="149.0" y2="117.0" /><line stroke="#333" stroke-width="10" x1="821.0" x2="821.0" y1="5.0" y2="149.0" /><line stroke="#333" stroke-width="10" x1="949.0" x2="981.0" y1="69.0" y2="69.0" /><line stroke="#333" stroke-width="10" x1="949.0" x2="949.0" y1="117.0" y2="69.0" /><line stroke="#333" stroke-width="10" x1="965.0" x2="1029.0" y1="885.0" y2="853.0" /><line stroke="#333" stroke-width="10" x1="1157.0" x2="1413.0" y1="885.0" y2="885.0" /><line stroke="#333" stroke-width="10" x1="1093.0" x2="1157.0" y1="853.0" y2="885.0" /><line stroke="#666" stroke-width="20" x1="1029.0" x2="1093.0" y1="853.0" y2="853.0" /><line stroke="#333" stroke-width="10" x1="1669.0" x2="1541.0" y1="933.0" y2="933.0" /><line stroke="#333" stroke-width="10" x1="1669.0" x2="1669.0" y1="879.0" y2="933.0" /><line stroke="#999" stroke-width="3" x1="1669.0" x2="1733.0" y1="933.0" y2="933.0" /><line stroke="#333" stroke-width="10" x1="1733.0" x2="1733.0" y1="933.0" y2="879.0" /><line stroke="#999" stroke-width="3" x1="1733.0" x2="1669.0" y1="879.0" y2="879.0" /><line stroke="#333" stroke-width="10" x1="1669.0" x2="1669.0" y1="825.0" y2="879.0" /><line stroke="#333" stroke-width="10" x1="1733.0" x2="1733.0" y1="879.0" y2="825.0" /><line stroke="#999" stroke-width="3" x1="1733.0" x2="1669.0" y1="825.0" y2="825.0" /><line stroke="#333" stroke-width="10" x1="1669.0" x2="1669.0" y1="771.0" y2="825.0" /><line stroke="#333" stroke-width="10" x1="1733.0" x2="1733.0" y1="825.0" y2="771.0" /><line stroke="#999" stroke-width="3" x1="1733.0" x2="1669.0" y1="771.0" y2="771.0" /><line stroke="#333" stroke-width="10" x1="1669.0" x2="1669.0" y1="717.0" y2="771.0" /><line stroke="#333" stroke-width="10" x1="1733.0" x2="1733.0" y1="771.0" y2="717.0" /><line stroke="#999" stroke-width="3" x1="1733.0" x2="1669.0" y1="717.0" y2="717.0" /><line stroke="#333" stroke-width="10" x1="1669.0" x2="1669.0" y1="663.0" y2="717.0" /><line stroke="#333" stroke-width="10" x1="1733.0" x2="1733.0" y1="717.0" y2="663.0" /><line stroke="#999" stroke-width="3" x1="1733.0" x2="1669.0" y1="663.0" y2="663.0" /><line stroke="#333" stroke-width="10" x1="1669.0" x2="1669.0" y1="609.0" y2="663.0" /><line stroke="#333" stroke-width="10" x1="1733.0" x2="1733.0" y1="663.0" y2="609.0" /><line stroke="#999" stroke-width="3" x1="1733.0" x2="1669.0" y1="609.0" y2="609.0" /><line stroke="#333" stroke-width="10" x1="1669.0" x2="1669.0" y1="555.0" y2="609.0" /><line stroke="#333" stroke-width="10" x1="1733.0" x2="1733.0" y1="609.0" y2="555.0" /><line stroke="#0d0" stroke-width="20" x1="1733.0" x2="1669.0" y1="555.0" y2="555.0" /><line stroke="#333" stroke-width="10" x1="1669.0" x2="1669.0" y1="501.0" y2="555.0" /><line stroke="#333" stroke-width="10" x1="1733.0" x2="1733.0" y1="555.0" y2="501.0" /><line stroke="#999" stroke-width="3" x1="1733.0" x2="1669.0" y1="501.0" y2="501.0" /><line stroke="#333" stroke-width="10" x1="1669.0" x2="1669.0" y1="447.0" y2="501.0" /><line stroke="#333" stroke-width="10" x1="1733.0" x2="1733.0" y1="501.0" y2="447.0" /><line stroke="#999" stroke-width="3" x1="1733.0" x2="1669.0" y1="447.0" y2="447.0" /><line stroke="#333" stroke-width="10" x1="1669.0" x2="1669.0" y1="393.0" y2="447.0" /><line stroke="#333" stroke-width="10" x1="1733.0" x2="1733.0" y1="447.0" y2="393.0" /><line stroke="#999" stroke-width="3" x1="1733.0" x2="1669.0" y1="393.0" y2="393.0" /><line stroke="#333" stroke-width="10" x1="1669.0" x2="1669.0" y1="339.0" y2="393.0" /><line stroke="#333" stroke-width="10" x1="1733.0" x2="1733.0" y1="393.0" y2="339.0" /><line stroke="#999" stroke-width="3" x1="1733.0" x2="1669.0" y1="339.0" y2="339.0" /><line stroke="#333" stroke-width="10" x1="1669.0" x2="1669.0" y1="285.0" y2="339.0" /><line stroke="#333" stroke-width="10" x1="1733.0" x2="1733.0" y1="339.0" y2="285.0" /><line stroke="#999" stroke-width="3" x1="1733.0" x2="1669.0" y1="285.0" y2="285.0" /><line stroke="#333" stroke-width="10" x1="1669.0" x2="1669.0" y1="231.0" y2="285.0" /><line stroke="#333" stroke-width="10" x1="1733.0" x2="1733.0" y1="285.0" y2="231.0" /><line stroke="#999" stroke-width="3" x1="1733.0" x2="1669.0" y1="231.0" y2="231.0" /><line stroke="#333" stroke-width="10" x1="1669.0" x2="1669.0" y1="177.0" y2="231.0" /><line stroke="#333" stroke-width="10" x1="1733.0" x2="1733.0" y1="231.0" y2="177.0" /><line stroke="#999" stroke-width="3" x1="1733.0" x2="1669.0" y1="177.0" y2="177.0" /><line stroke="#333" stroke-width="10" x1="1669.0" x2="1669.0" y1="123.0" y2="177.0" /><line stroke="#333" stroke-width="10" x1="1733.0" x2="1733.0" y1="177.0" y2="123.0" /><line stroke="#333" stroke-width="10" x1="1733.0" x2="1669.0" y1="123.0" y2="123.0" /><ellipse cx="2021.0" cy="1461.0" fill="#009" rx="12" ry="24" stroke="#009" stroke-width="5" /><ellipse cx="1893.0" cy="1637.0" fill="#900" rx="12" ry="24" stroke="#900" stroke-width="5" /><rect fill="#900" height="48" stroke="#900" stroke-width="5" transform="rotate(0,1717.0,1381.0)" width="32" x="1701.0" y="1357.0" /><rect fill="#900" height="48" stroke="#900" stroke-width="5" transform="rotate(0,1781.0,1381.0)" width="32" x="1765.0" y="1357.0" /><rect fill="#900" height="48" stroke="#900" stroke-width="5" transform="rotate(0,1829.0,1381.0)" width="32" x="1813.0" y="1357.0" /><rect fill="#900" height="48" stroke="#900" stroke-width="5" transform="rotate(0,1701.0,1333.0)" width="32" x="1685.0" y="1309.0" /><rect fill="#900" height="48" stroke="#900" stroke-width="5" transform="rotate(0,1701.0,1285.0)" width="32" x="1685.0" y="1261.0" /><rect fill="#900" height="48" stroke="#900" stroke-width="5" transform="rotate(0,1845.0,1333.0)" width="32" x="1829.0" y="1309.0" /><rect fill="#900" height="48" stroke="#900" stroke-width="5" transform="rotate(0,1845.0,1285.0)" width="32" x="1829.0" y="1261.0" /><rect fill="#900" height="48" stroke="#900" stroke-width="5" transform="rotate(0,1845.0,1237.0)" width="32" x="1829.0" y="1213.0" /><rect fill="#900" height="48" stroke="#900" stroke-width="5" transform="rotate(0,1845.0,1077.0)" width="32" x="1829.0" y="1053.0" /><rect fill="#900" height="48" stroke="#900" stroke-width="5" transform="rotate(0,1845.0,1173.0)" width="32" x="1829.0" y="1149.0" /><rect fill="#900" height="48" stroke="#900" stroke-width="5" transform="rotate(0,1845.0,1125.0)" width="32" x="1829.0" y="1101.0" /><rect fill="#900" height="48" stroke="#900" stroke-width="5" transform="rotate(0,1701.0,1237.0)" width="32" x="1685.0" y="1213.0" /><rect fill="#900" height="48" stroke="#900" stroke-width="5" transform="rotate(0,1701.0,1189.0)" width="32" x="1685.0" y="1165.0" /><rect fill="#900" height="48" stroke="#900" stroke-width="5" transform="rotate(0,1701.0,1157.0)" width="32" x="1685.0" y="1133.0" /><rect fill="#900" height="48" stroke="#900" stroke-width="5" transform="rotate(0,1701.0,1109.0)" width="32" x="1685.0" y="1085.0" /><rect fill="#900" height="48" stroke="#900" stroke-width="5" transform="rotate(0,1701.0,1061.0)" width="32" x="1685.0" y="1037.0" /><rect fill="#900" height="48" stroke="#900" stroke-width="5" transform="rotate(0,1765.0,1285.0)" width="32" x="1749.0" y="1261.0" /><rect fill="#900" height="48" stroke="#900" stroke-width="5" transform="rotate(0,1765.0,1189.0)" width="32" x="1749.0" y="1165.0" /><rect fill="#900" height="48" stroke="#900" stroke-width="5" transform="rotate(0,1381.0,997.0)" width="32" x="1365.0" y="973.0" /><rect fill="#900" height="48" stroke="#900" stroke-width="5" transform="rotate(0,1333.0,997.0)" width="32" x="1317.0" y="973.0" /><rect fill="#900" height="48" stroke="#900" stroke-width="5" transform="rotate(0,1269.0,997.0)" width="32" x="1253.0" y="973.0" /><rect fill="#900" height="48" stroke="#900" stroke-width="5" transform="rotate(0,1189.0,997.0)" width="32" x="1173.0" y="973.0" /><rect fill="#900" height="48" stroke="#900" stroke-width="5" transform="rotate(0,1109.0,997.0)" width="32" x="1093.0" y="973.0" /><rect fill="#900" height="48" stroke="#900" stroke-width="5" transform="rotate(0,1013.0,997.0)" width="32" x="997.0" y="973.0" /><rect fill="#900" height="48" stroke="#900" stroke-width="5" transform="rotate(0,933.0,997.0)" width="32" x="917.0" y="973.0" /><rect fill="#900" height="48" stroke="#900" stroke-width="5" transform="rotate(0,837.0,997.0)" width="32" x="821.0" y="973.0" /><rect fill="#900" height="48" stroke="#900" stroke-width="5" transform="rotate(0,741.0,997.0)" width="32" x="725.0" y="973.0" /><rect fill="#900" height="48" stroke="#900" stroke-width="5" transform="rotate(0,661.0,997.0)" width="32" x="645.0" y="973.0" /><rect fill="#900" height="48" stroke="#900" stroke-width="5" transform="rotate(0,1877.0,1749.0)" width="32" x="1861.0" y="1725.0" /><rect fill="#900" height="48" stroke="#900" stroke-width="5" transform="rotate(0,2021.0,1669.0)" width="32" x="2005.0" y="1645.0" /><circle cx="2021.0" cy="1525.0" fill="#900" r="16" stroke="#900" stroke-width="5" /><rect fill="#900" height="48" stroke="#900" stroke-width="5" transform="rotate(0,597.0,997.0)" width="32" x="581.0" y="973.0" /><rect fill="#900" height="48" stroke="#900" stroke-width="5" transform="rotate(0,533.0,997.0)" width="32" x="517.0" y="973.0" /><rect fill="#900" height="48" stroke="#900" stroke-width="5" transform="rotate(0,469.0,997.0)" width="32" x="453.0" y="973.0" /><rect fill="#900" height="48" stroke="#900" stroke-width="5" transform="rotate(0,421.0,997.0)" width="32" x="405.0" y="973.0" /><rect fill="#900" height="48" stroke="#900" stroke-width="5" transform="rotate(0,357.0,997.0)" width="32" x="341.0" y="973.0" /><rect fill="#900" height="48" stroke="#900" stroke-width="5" transform="rotate(0,293.0,997.0)" width="32" x="277.0" y="973.0" /><rect fill="#900" height="48" stroke="#900" stroke-width="5" transform="rotate(0,229.0,997.0)" width="32" x="213.0" y="973.0" /><rect fill="#900" height="48" stroke="#900" stroke-width="5" transform="rotate(0,181.0,997.0)" width="32" x="165.0" y="973.0" /><circle cx="133.0" cy="997.0" fill="#009" r="16" stroke="#009" stroke-width="5" /><rect fill="#900" height="48" stroke="#900" stroke-width="5" transform="rotate(0,85.0,1077.0)" width="32" x="69.0" y="1053.0" /><circle cx="85.0" cy="1733.0" fill="#009" r="16" stroke="#009" stroke-width="5" /><rect fill="#900" height="48" stroke="#900" stroke-width="5" transform="rotate(0,85.0,1669.0)" width="32" x="69.0" y="1645.0" /><rect fill="#900" height="48" stroke="#900" stroke-width="5" transform="rotate(0,85.0,1621.0)" width="32" x="69.0" y="1597.0" /><rect fill="#900" height="48" stroke="#900" stroke-width="5" transform="rotate(0,85.0,1541.0)" width="32" x="69.0" y="1517.0" /><rect fill="#900" height="48" stroke="#900" stroke-width="5" transform="rotate(0,85.0,1493.0)" width="32" x="69.0" y="1469.0" /><rect fill="#900" height="48" stroke="#900" stroke-width="5" transform="rotate(0,85.0,1429.0)" width="32" x="69.0" y="1405.0" /><rect fill="#900" height="48" stroke="#900" stroke-width="5" transform="rotate(0,85.0,1365.0)" width="32" x="69.0" y="1341.0" /><rect fill="#900" height="48" stroke="#900" stroke-width="5" transform="rotate(0,85.0,1317.0)" width="32" x="69.0" y="1293.0" /><rect fill="#900" height="48" stroke="#900" stroke-width="5" transform="rotate(0,85.0,1253.0)" width="32" x="69.0" y="1229.0" /><rect fill="#900" height="48" stroke="#900" stroke-width="5" transform="rotate(0,1461.0,1765.0)" width="32" x="1445.0" y="1741.0" /><rect fill="#900" height="48" stroke="#900" stroke-width="5" transform="rotate(0,1621.0,1605.0)" width="32" x="1605.0" y="1581.0" /><rect fill="#900" height="48" stroke="#900" stroke-width="5" transform="rotate(0,1461.0,1605.0)" width="32" x="1445.0" y="1581.0" /><rect fill="#900" height="48" stroke="#900" stroke-width="5" transform="rotate(0,1573.0,1701.0)" width="32" x="1557.0" y="1677.0" /><rect fill="#900" height="48" stroke="#900" stroke-width="5" transform="rotate(0,1605.0,1797.0)" width="32" x="1589.0" y="1773.0" /><rect fill="#900" height="48" stroke="#900" stroke-width="5" transform="rotate(0,1541.0,1781.0)" width="32" x="1525.0" y="1757.0" /><rect fill="#900" height="48" stroke="#900" stroke-width="5" transform="rotate(0,1429.0,1701.0)" width="32" x="1413.0" y="1677.0" /><rect fill="#900" height="48" stroke="#900" stroke-width="5" transform="rotate(0,1381.0,1749.0)" width="32" x="1365.0" y="1725.0" /><rect fill="#900" height="48" stroke="#900" stroke-width="5" transform="rotate(0,1509.0,1653.0)" width="32" x="1493.0" y="1629.0" /><rect fill="#900" height="48" stroke="#900" stroke-width="5" transform="rotate(0,1557.0,1589.0)" width="32" x="1541.0" y="1565.0" /><rect fill="#900" height="48" stroke="#900" stroke-width="5" transform="rotate(0,1413.0,1653.0)" width="32" x="1397.0" y="1629.0" /><circle cx="1509.0" cy="1125.0" fill="#009" r="16" stroke="#009" stroke-width="5" /><circle cx="2021.0" cy="1461.0" fill="#900" r="16" stroke="#900" stroke-width="5" /><circle cx="1813.0" cy="949.0" fill="#009" r="16" stroke="#009" stroke-width="5" /><circle cx="1525.0" cy="1029.0" fill="#009" r="16" stroke="#009" stroke-width="5" /><circle cx="1525.0" cy="981.0" fill="#009" r="16" stroke="#009" stroke-width="5" /><circle cx="1589.0" cy="965.0" fill="#009" r="16" stroke="#009" stroke-width="5" /><circle cx="1509.0" cy="1509.0" fill="#009" r="16" stroke="#009" stroke-width="5" /><circle cx="1509.0" cy="1445.0" fill="#009" r="16" stroke="#009" stroke-width="5" /><circle cx="1509.0" cy="1365.0" fill="#009" r="16" stroke="#009" stroke-width="5" /><circle cx="1509.0" cy="1301.0" fill="#009" r="16" stroke="#009" stroke-width="5" /><circle cx="1509.0" cy="1253.0" fill="#009" r="16" stroke="#009" stroke-width="5" /><circle cx="1509.0" cy="1205.0" fill="#009" r="16" stroke="#009" stroke-width="5" /><rect fill="#900" height="48" stroke="#900" stroke-width="5" transform="rotate(0,549.0,1765.0)" width="32" x="533.0" y="1741.0" /><rect fill="#900" height="48" stroke="#900" stroke-width="5" transform="rotate(0,997.0,1765.0)" width="32" x="981.0" y="1741.0" /><rect fill="#900" height="48" stroke="#900" stroke-width="5" transform="rotate(0,997.0,1173.0)" width="32" x="981.0" y="1149.0" /><rect fill="#900" height="48" stroke="#900" stroke-width="5" transform="rotate(0,517.0,1157.0)" width="32" x="501.0" y="1133.0" /><rect fill="#900" height="48" stroke="#900" stroke-width="5" transform="rotate(0,421.0,1541.0)" width="32" x="405.0" y="1517.0" /><rect fill="#900" height="48" stroke="#900" stroke-width="5" transform="rotate(0,421.0,1413.0)" width="32" x="405.0" y="1389.0" /><rect fill="#900" height="48" stroke="#900" stroke-width="5" transform="rotate(0,1029.0,1605.0)" width="32" x="1013.0" y="1581.0" /><rect fill="#900" height="48" stroke="#900" stroke-width="5" transform="rotate(0,1157.0,1589.0)" width="32" x="1141.0" y="1565.0" /><rect fill="#900" height="48" stroke="#900" stroke-width="5" transform="rotate(0,1093.0,1477.0)" width="32" x="1077.0" y="1453.0" /><rect fill="#900" height="48" stroke="#900" stroke-width="5" transform="rotate(0,1077.0,1557.0)" width="32" x="1061.0" y="1533.0" /><rect fill="#900" height="48" stroke="#900" stroke-width="5" transform="rotate(0,1045.0,1557.0)" width="32" x="1029.0" y="1533.0" /><rect fill="#900" height="48" stroke="#900" stroke-width="5" transform="rotate(0,1045.0,1509.0)" width="32" x="1029.0" y="1485.0" /><rect fill="#900" height="48" stroke="#900" stroke-width="5" transform="rotate(0,1045.0,1477.0)" width="32" x="1029.0" y="1453.0" /><rect fill="#900" height="48" stroke="#900" stroke-width="5" transform="rotate(0,1061.0,1429.0)" width="32" x="1045.0" y="1405.0" /><rect fill="#900" height="48" stroke="#900" stroke-width="5" transform="rotate(0,1077.0,1381.0)" width="32" x="1061.0" y="1357.0" /><rect fill="#900" height="48" stroke="#900" stroke-width="5" transform="rotate(0,1141.0,1381.0)" width="32" x="1125.0" y="1357.0" /><rect fill="#900" height="48" stroke="#900" stroke-width="5" transform="rotate(0,1189.0,1445.0)" width="32" x="1173.0" y="1421.0" /><rect fill="#900" height="48" stroke="#900" stroke-width="5" transform="rotate(0,1141.0,1477.0)" width="32" x="1125.0" y="1453.0" /><rect fill="#900" height="48" stroke="#900" stroke-width="5" transform="rotate(0,1125.0,1525.0)" width="32" x="1109.0" y="1501.0" /><rect fill="#900" height="48" stroke="#900" stroke-width="5" transform="rotate(0,757.0,1205.0)" width="32" x="741.0" y="1181.0" /><rect fill="#900" height="48" stroke="#900" stroke-width="5" transform="rotate(0,773.0,1733.0)" width="32" x="757.0" y="1709.0" /><rect fill="#900" height="48" stroke="#900" stroke-width="5" transform="rotate(0,853.0,1733.0)" width="32" x="837.0" y="1709.0" /><rect fill="#900" height="48" stroke="#900" stroke-width="5" transform="rotate(0,709.0,1733.0)" width="32" x="693.0" y="1709.0" /><rect fill="#900" height="48" stroke="#900" stroke-width="5" transform="rotate(0,661.0,1205.0)" width="32" x="645.0" y="1181.0" /><rect fill="#900" height="48" stroke="#900" stroke-width="5" transform="rotate(0,821.0,1205.0)" width="32" x="805.0" y="1181.0" /><circle cx="1365.0" cy="1461.0" fill="#900" r="16" stroke="#900" stroke-width="5" /><circle cx="1301.0" cy="1461.0" fill="#090" r="16" stroke="#090" stroke-width="5" /><circle cx="1381.0" cy="1493.0" fill="#009" r="16" stroke="#009" stroke-width="5" /><rect fill="#090" height="24" stroke="#090" stroke-width="5" transform="rotate(0,325.0,1573.0)" width="24" x="313.0" y="1561.0" /><rect fill="#900" height="48" stroke="#900" stroke-width="5" transform="rotate(0,1509.0,853.0)" width="32" x="1493.0" y="829.0" /><rect fill="#900" height="48" stroke="#900" stroke-width="5" transform="rotate(0,1509.0,805.0)" width="32" x="1493.0" y="781.0" /><rect fill="#900" height="48" stroke="#900" stroke-width="5" transform="rotate(0,1509.0,757.0)" width="32" x="1493.0" y="733.0" /><rect fill="#900" height="48" stroke="#900" stroke-width="5" transform="rotate(0,1509.0,709.0)" width="32" x="1493.0" y="685.0" /><rect fill="#900" height="48" stroke="#900" stroke-width="5" transform="rotate(0,1509.0,645.0)" width="32" x="1493.0" y="621.0" /><rect fill="#900" height="48" stroke="#900" stroke-width="5" transform="rotate(0,1509.0,613.0)" width="32" x="1493.0" y="589.0" /><rect fill="#900" height="48" stroke="#900" stroke-width="5" transform="rotate(0,1509.0,581.0)" width="32" x="1493.0" y="557.0" /><rect fill="#900" height="48" stroke="#900" stroke-width="5" transform="rotate(0,1509.0,677.0)" width="32" x="1493.0" y="653.0" /><rect fill="#900" height="48" stroke="#900" stroke-width="5" transform="rotate(0,1509.0,549.0)" width="32" x="1493.0" y="525.0" /><rect fill="#900" height="48" stroke="#900" stroke-width="5" transform="rotate(0,1509.0,517.0)" width="32" x="1493.0" y="493.0" /><rect fill="#900" height="48" stroke="#900" stroke-width="5" transform="rotate(0,1509.0,485.0)" width="32" x="1493.0" y="461.0" /><rect fill="#900" height="48" stroke="#900" stroke-width="5" transform="rotate(0,1509.0,453.0)" width="32" x="1493.0" y="429.0" /><rect fill="#900" height="48" stroke="#900" stroke-width="5" transform="rotate(0,1509.0,421.0)" width="32" x="1493.0" y="397.0" /><rect fill="#900" height="48" stroke="#900" stroke-width="5" transform="rotate(0,1509.0,389.0)" width="32" x="1493.0" y="365.0" /><rect fill="#900" height="48" stroke="#900" stroke-width="5" transform="rotate(0,1509.0,357.0)" width="32" x="1493.0" y="333.0" /><rect fill="#900" height="48" stroke="#900" stroke-width="5" transform="rotate(0,1509.0,325.0)" width="32" x="1493.0" y="301.0" /><rect fill="#900" height="48" stroke="#900" stroke-width="5" transform="rotate(0,1509.0,293.0)" width="32" x="1493.0" y="269.0" /><rect fill="#900" height="48" stroke="#900" stroke-width="5" transform="rotate(0,1509.0,245.0)" width="32" x="1493.0" y="221.0" /><circle cx="1509.0" cy="197.0" fill="#009" r="16" stroke="#009" stroke-width="5" /><rect fill="#900" height="48" stroke="#900" stroke-width="5" transform="rotate(0,1509.0,149.0)" width="32" x="1493.0" y="125.0" /><rect fill="#900" height="48" stroke="#900" stroke-width="5" transform="rotate(0,1509.0,101.0)" width="32" x="1493.0" y="77.0" /><rect fill="#900" height="48" stroke="#900" stroke-width="5" transform="rotate(0,1509.0,53.0)" width="32" x="1493.0" y="29.0" /><rect fill="#900" height="48" stroke="#900" stroke-width="5" transform="rotate(0,1445.0,37.0)" width="32" x="1429.0" y="13.0" /><rect fill="#900" height="48" stroke="#900" stroke-width="5" transform="rotate(0,1397.0,37.0)" width="32" x="1381.0" y="13.0" /><rect fill="#900" height="48" stroke="#900" stroke-width="5" transform="rotate(0,1349.0,37.0)" width="32" x="1333.0" y="13.0" /><rect fill="#900" height="48" stroke="#900" stroke-width="5" transform="rotate(0,1301.0,37.0)" width="32" x="1285.0" y="13.0" /><rect fill="#900" height="48" stroke="#900" stroke-width="5" transform="rotate(0,1269.0,37.0)" width="32" x="1253.0" y="13.0" /><rect fill="#900" height="48" stroke="#900" stroke-width="5" transform="rotate(0,1237.0,37.0)" width="32" x="1221.0" y="13.0" /><rect fill="#900" height="48" stroke="#900" stroke-width="5" transform="rotate(0,1013.0,37.0)" width="32" x="997.0" y="13.0" /><rect fill="#900" height="48" stroke="#900" stroke-width="5" transform="rotate(0,1061.0,821.0)" width="32" x="1045.0" y="797.0" /><rect fill="#900" height="48" stroke="#900" stroke-width="5" transform="rotate(0,1061.0,613.0)" width="32" x="1045.0" y="589.0" /><rect fill="#900" height="48" stroke="#900" stroke-width="5" transform="rotate(0,1061.0,709.0)" width="32" x="1045.0" y="685.0" /><rect fill="#900" height="48" stroke="#900" stroke-width="5" transform="rotate(0,1381.0,837.0)" width="32" x="1365.0" y="813.0" /><rect fill="#900" height="48" stroke="#900" stroke-width="5" transform="rotate(0,1349.0,837.0)" width="32" x="1333.0" y="813.0" /><rect fill="#900" height="48" stroke="#900" stroke-width="5" transform="rotate(0,725.0,837.0)" width="32" x="709.0" y="813.0" /><rect fill="#900" height="48" stroke="#900" stroke-width="5" transform="rotate(0,869.0,533.0)" width="32" x="853.0" y="509.0" /><rect fill="#900" height="48" stroke="#900" stroke-width="5" transform="rotate(0,1237.0,517.0)" width="32" x="1221.0" y="493.0" /><rect fill="#900" height="48" stroke="#900" stroke-width="5" transform="rotate(0,1189.0,229.0)" width="32" x="1173.0" y="205.0" /><rect fill="#900" height="48" stroke="#900" stroke-width="5" transform="rotate(0,1701.0,613.0)" width="32" x="1685.0" y="589.0" /><rect fill="#900" height="48" stroke="#900" stroke-width="5" transform="rotate(0,1701.0,693.0)" width="32" x="1685.0" y="669.0" /><rect fill="#900" height="48" stroke="#900" stroke-width="5" transform="rotate(0,1701.0,789.0)" width="32" x="1685.0" y="765.0" /><rect fill="#900" height="48" stroke="#900" stroke-width="5" transform="rotate(0,1701.0,853.0)" width="32" x="1685.0" y="829.0" /><circle cx="1045.0" cy="197.0" fill="#009" r="16" stroke="#009" stroke-width="5" /><rect fill="#900" height="48" stroke="#900" stroke-width="5" transform="rotate(0,1077.0,197.0)" width="32" x="1061.0" y="173.0" /><rect fill="#090" height="24" stroke="#090" stroke-width="5" transform="rotate(0,325.0,1349.0)" width="24" x="313.0" y="1337.0" /><rect fill="#900" height="48" stroke="#900" stroke-width="5" transform="rotate(0,1701.0,549.0)" width="32" x="1685.0" y="525.0" /><rect fill="#900" height="48" stroke="#900" stroke-width="5" transform="rotate(0,1701.0,469.0)" width="32" x="1685.0" y="445.0" /></svg>