<?xml version="1.0" encoding="utf-8" ?>
<svg baseProfile="tiny" height="1024" version="1.2" viewBox="0 0 1180 1838" width="657" xmlns="http://www.w3.org/2000/svg" xmlns:ev="http://www.w3.org/2001/xml-events" xmlns:xlink="http://www.w3.org/1999/xlink"><defs /><line stroke="#333" stroke-width="10" x1="143.0" x2="145.0" y1="1831.0" y2="1831.0" /><line stroke="#333" stroke-width="10" x1="615.0" x2="1109.0" y1="1833.0" y2="1759.0" /><line stroke="#333" stroke-width="10" x1="1109.0" x2="1165.0" y1="1759.0" y2="1643.0" /><line stroke="#333" stroke-width="10" x1="1165.0" x2="1175.0" y1="1643.0" y2="1303.0" /><line stroke="#333" stroke-width="10" x1="1175.0" x2="1159.0" y1="1303.0" y2="429.0" /><line stroke="#333" stroke-width="10" x1="1159.0" x2="1153.0" y1="429.0" y2="33.0" /><line stroke="#333" stroke-width="10" x1="1153.0" x2="855.0" y1="33.0" y2="5.0" /><line stroke="#333" stroke-width="10" x1="855.0" x2="869.0" y1="5.0" y2="471.0" /><line stroke="#333" stroke-width="10" x1="869.0" x2="825.0" y1="471.0" y2="963.0" /><line stroke="#333" stroke-width="10" x1="825.0" x2="751.0" y1="963.0" y2="1309.0" /><line stroke="#333" stroke-width="10" x1="751.0" x2="495.0" y1="1309.0" y2="1287.0" /><line stroke="#333" stroke-width="10" x1="495.0" x2="271.0" y1="1287.0" y2="1523.0" /><line stroke="#333" stroke-width="10" x1="271.0" x2="5.0" y1="1523.0" y2="1591.0" /><line stroke="#333" stroke-width="10" x1="5.0" x2="45.0" y1="1591.0" y2="1793.0" /><line stroke="#333" stroke-width="10" x1="145.0" x2="615.0" y1="1831.0" y2="1833.0" /><line stroke="#333" stroke-width="10" x1="45.0" x2="145.0" y1="1793.0" y2="1831.0" /><line stroke="#0d0" stroke-width="20" x1="125.0" x2="219.0" y1="1719.0" y2="1711.0" /><line stroke="#0d0" stroke-width="20" x1="219.0" x2="149.0" y1="1711.0" y2="1621.0" /><line stroke="#0d0" stroke-width="20" x1="149.0" x2="125.0" y1="1621.0" y2="1719.0" /><rect fill="#900" height="48" stroke="#900" stroke-width="5" transform="rotate(0,857.0,1247.0)" width="32" x="841.0" y="1223.0" /><rect fill="#900" height="48" stroke="#900" stroke-width="5" transform="rotate(0,983.0,1223.0)" width="32" x="967.0" y="1199.0" /><rect fill="#900" height="48" stroke="#900" stroke-width="5" transform="rotate(0,1019.0,1141.0)" width="32" x="1003.0" y="1117.0" /><rect fill="#900" height="48" stroke="#900" stroke-width="5" transform="rotate(0,911.0,1023.0)" width="32" x="895.0" y="999.0" /><rect fill="#900" height="48" stroke="#900" stroke-width="5" transform="rotate(0,881.0,1115.0)" width="32" x="865.0" y="1091.0" /><rect fill="#900" height="48" stroke="#900" stroke-width="5" transform="rotate(0,1051.0,961.0)" width="32" x="1035.0" y="937.0" /><rect fill="#900" height="48" stroke="#900" stroke-width="5" transform="rotate(0,1101.0,1113.0)" width="32" x="1085.0" y="1089.0" /><rect fill="#900" height="48" stroke="#900" stroke-width="5" transform="rotate(0,993.0,941.0)" width="32" x="977.0" y="917.0" /><rect fill="#900" height="48" stroke="#900" stroke-width="5" transform="rotate(0,955.0,1065.0)" width="32" x="939.0" y="1041.0" /><rect fill="#900" height="48" stroke="#900" stroke-width="5" transform="rotate(0,1049.0,1047.0)" width="32" x="1033.0" y="1023.0" /><rect fill="#900" height="48" stroke="#900" stroke-width="5" transform="rotate(0,1055.0,875.0)" width="32" x="1039.0" y="851.0" /><rect fill="#900" height="48" stroke="#900" stroke-width="5" transform="rotate(0,917.0,859.0)" width="32" x="901.0" y="835.0" /><rect fill="#900" height="48" stroke="#900" stroke-width="5" transform="rotate(0,909.0,925.0)" width="32" x="893.0" y="901.0" /><rect fill="#900" height="48" stroke="#900" stroke-width="5" transform="rotate(0,983.0,733.0)" width="32" x="967.0" y="709.0" /><rect fill="#900" height="48" stroke="#900" stroke-width="5" transform="rotate(0,957.0,643.0)" width="32" x="941.0" y="619.0" /><rect fill="#900" height="48" stroke="#900" stroke-width="5" transform="rotate(0,1053.0,641.0)" width="32" x="1037.0" y="617.0" /><rect fill="#900" height="48" stroke="#900" stroke-width="5" transform="rotate(0,1029.0,1315.0)" width="32" x="1013.0" y="1291.0" /><rect fill="#900" height="48" stroke="#900" stroke-width="5" transform="rotate(0,935.0,1357.0)" width="32" x="919.0" y="1333.0" /><rect fill="#900" height="48" stroke="#900" stroke-width="5" transform="rotate(0,805.0,1345.0)" width="32" x="789.0" y="1321.0" /><rect fill="#900" height="48" stroke="#900" stroke-width="5" transform="rotate(0,1065.0,763.0)" width="32" x="1049.0" y="739.0" /><ellipse cx="917.0" cy="787.0" fill="#900" rx="12" ry="24" stroke="#900" stroke-width="5" /><circle cx="999.0" cy="423.0" fill="#900" r="16" stroke="#900" stroke-width="5" /><circle cx="949.0" cy="363.0" fill="#900" r="16" stroke="#900" stroke-width="5" /><circle cx="1041.0" cy="363.0" fill="#900" r="16" stroke="#900" stroke-width="5" /><circle cx="1051.0" cy="423.0" fill="#900" r="16" stroke="#900" stroke-width="5" /><circle cx="997.0" cy="345.0" fill="#900" r="16" stroke="#900" stroke-width="5" /><circle cx="1085.0" cy="361.0" fill="#900" r="16" stroke="#900" stroke-width="5" /><circle cx="1107.0" cy="439.0" fill="#900" r="16" stroke="#900" stroke-width="5" /><circle cx="925.0" cy="453.0" fill="#900" r="16" stroke="#900" stroke-width="5" /><circle cx="951.0" cy="207.0" fill="#900" r="16" stroke="#900" stroke-width="5" /><circle cx="1003.0" cy="207.0" fill="#900" r="16" stroke="#900" stroke-width="5" /><circle cx="1053.0" cy="203.0" fill="#900" r="16" stroke="#900" stroke-width="5" /><circle cx="1093.0" cy="203.0" fill="#900" r="16" stroke="#900" stroke-width="5" /><rect fill="#900" height="48" stroke="#900" stroke-width="5" transform="rotate(0,1005.0,1673.0)" width="32" x="989.0" y="1649.0" /><rect fill="#900" height="48" stroke="#900" stroke-width="5" transform="rotate(0,901.0,1611.0)" width="32" x="885.0" y="1587.0" /><rect fill="#900" height="48" stroke="#900" stroke-width="5" transform="rotate(0,901.0,1563.0)" width="32" x="885.0" y="1539.0" /><rect fill="#900" height="48" stroke="#900" stroke-width="5" transform="rotate(0,439.0,1683.0)" width="32" x="423.0" y="1659.0" /><rect fill="#090" height="24" stroke="#090" stroke-width="5" transform="rotate(0,389.0,1605.0)" width="24" x="377.0" y="1593.0" /><circle cx="521.0" cy="1763.0" fill="#900" r="16" stroke="#900" stroke-width="5" /><rect fill="#090" height="24" stroke="#090" stroke-width="5" transform="rotate(0,463.0,1563.0)" width="24" x="451.0" y="1551.0" /><rect fill="#090" height="24" stroke="#090" stroke-width="5" transform="rotate(0,545.0,1615.0)" width="24" x="533.0" y="1603.0" /><rect fill="#090" height="24" stroke="#090" stroke-width="5" transform="rotate(0,549.0,1541.0)" width="24" x="537.0" y="1529.0" /><rect fill="#090" height="24" stroke="#090" stroke-width="5" transform="rotate(0,551.0,1463.0)" width="24" x="539.0" y="1451.0" /><rect fill="#090" height="24" stroke="#090" stroke-width="5" transform="rotate(0,619.0,1527.0)" width="24" x="607.0" y="1515.0" /><rect fill="#090" height="24" stroke="#090" stroke-width="5" transform="rotate(0,645.0,1623.0)" width="24" x="633.0" y="1611.0" /><rect fill="#090" height="24" stroke="#090" stroke-width="5" transform="rotate(0,727.0,1705.0)" width="24" x="715.0" y="1693.0" /><rect fill="#090" height="24" stroke="#090" stroke-width="5" transform="rotate(0,747.0,1645.0)" width="24" x="735.0" y="1633.0" /><rect fill="#090" height="24" stroke="#090" stroke-width="5" transform="rotate(0,717.0,1567.0)" width="24" x="705.0" y="1555.0" /><rect fill="#090" height="24" stroke="#090" stroke-width="5" transform="rotate(0,1037.0,1447.0)" width="24" x="1025.0" y="1435.0" /><rect fill="#900" height="48" stroke="#900" stroke-width="5" transform="rotate(0,1127.0,875.0)" width="32" x="1111.0" y="851.0" /><rect fill="#900" height="48" stroke="#900" stroke-width="5" transform="rotate(0,1095.0,961.0)" width="32" x="1079.0" y="937.0" /><ellipse cx="949.0" cy="99.0" fill="#009" rx="12" ry="24" stroke="#009" stroke-width="5" /><ellipse cx="1007.0" cy="109.0" fill="#009" rx="12" ry="24" stroke="#009" stroke-width="5" /><ellipse cx="1073.0" cy="111.0" fill="#009" rx="12" ry="24" stroke="#009" stroke-width="5" /><ellipse cx="1119.0" cy="107.0" fill="#009" rx="12" ry="24" stroke="#009" stroke-width="5" /><rect fill="#900" height="48" stroke="#900" stroke-width="5" transform="rotate(0,973.0,831.0)" width="32" x="957.0" y="807.0" /><rect fill="#900" height="48" stroke="#900" stroke-width="5" transform="rotate(0,1013.0,807.0)" width="32" x="997.0" y="783.0" /></svg>