<?xml version="1.0" encoding="utf-8" ?>
<svg baseProfile="tiny" height="1024" version="1.2" viewBox="0 0 640 1294" width="506" xmlns="http://www.w3.org/2000/svg" xmlns:ev="http://www.w3.org/2001/xml-events" xmlns:xlink="http://www.w3.org/1999/xlink"><defs /><line stroke="#333" stroke-width="10" x1="113.0" x2="114.0" y1="859.0" y2="858.0" /><line stroke="#333" stroke-width="10" x1="5.0" x2="41.0" y1="993.0" y2="1221.0" /><line stroke="#0d0" stroke-width="20" x1="41.0" x2="219.0" y1="1221.0" y2="1289.0" /><line stroke="#333" stroke-width="10" x1="219.0" x2="299.0" y1="1289.0" y2="1029.0" /><line stroke="#333" stroke-width="10" x1="299.0" x2="325.0" y1="1029.0" y2="1095.0" /><line stroke="#333" stroke-width="10" x1="325.0" x2="385.0" y1="1095.0" y2="1273.0" /><line stroke="#0d0" stroke-width="20" x1="385.0" x2="533.0" y1="1273.0" y2="1281.0" /><line stroke="#333" stroke-width="10" x1="533.0" x2="635.0" y1="1281.0" y2="1079.0" /><line stroke="#333" stroke-width="10" x1="635.0" x2="545.0" y1="1079.0" y2="861.0" /><line stroke="#333" stroke-width="10" x1="545.0" x2="475.0" y1="861.0" y2="835.0" /><line stroke="#333" stroke-width="10" x1="475.0" x2="441.0" y1="835.0" y2="241.0" /><line stroke="#333" stroke-width="10" x1="441.0" x2="383.0" y1="241.0" y2="5.0" /><line stroke="#333" stroke-width="10" x1="383.0" x2="281.0" y1="5.0" y2="133.0" /><line stroke="#333" stroke-width="10" x1="281.0" x2="207.0" y1="133.0" y2="357.0" /><line stroke="#333" stroke-width="10" x1="207.0" x2="161.0" y1="357.0" y2="635.0" /><line stroke="#333" stroke-width="10" x1="161.0" x2="114.0" y1="635.0" y2="858.0" /><line stroke="#333" stroke-width="10" x1="113.0" x2="5.0" y1="859.0" y2="993.0" /><rect fill="#900" height="48" stroke="#900" stroke-width="5" transform="rotate(0,129.0,1079.0)" width="32" x="113.0" y="1055.0" /><rect fill="#900" height="48" stroke="#900" stroke-width="5" transform="rotate(0,451.0,1059.0)" width="32" x="435.0" y="1035.0" /><circle cx="335.0" cy="345.0" fill="#900" r="16" stroke="#900" stroke-width="5" /><circle cx="279.0" cy="531.0" fill="#090" r="16" stroke="#090" stroke-width="5" /><circle cx="339.0" cy="475.0" fill="#090" r="16" stroke="#090" stroke-width="5" /><circle cx="301.0" cy="465.0" fill="#090" r="16" stroke="#090" stroke-width="5" /><circle cx="241.0" cy="415.0" fill="#090" r="16" stroke="#090" stroke-width="5" /><circle cx="301.0" cy="403.0" fill="#090" r="16" stroke="#090" stroke-width="5" /><circle cx="361.0" cy="425.0" fill="#090" r="16" stroke="#090" stroke-width="5" /><circle cx="387.0" cy="489.0" fill="#090" r="16" stroke="#090" stroke-width="5" /><circle cx="357.0" cy="537.0" fill="#090" r="16" stroke="#090" stroke-width="5" /><circle cx="311.0" cy="517.0" fill="#090" r="16" stroke="#090" stroke-width="5" /><circle cx="245.0" cy="469.0" fill="#090" r="16" stroke="#090" stroke-width="5" /><circle cx="207.0" cy="533.0" fill="#090" r="16" stroke="#090" stroke-width="5" /><circle cx="233.0" cy="527.0" fill="#090" r="16" stroke="#090" stroke-width="5" /><circle cx="289.0" cy="589.0" fill="#090" r="16" stroke="#090" stroke-width="5" /><circle cx="345.0" cy="583.0" fill="#090" r="16" stroke="#090" stroke-width="5" /><circle cx="373.0" cy="569.0" fill="#090" r="16" stroke="#090" stroke-width="5" /><circle cx="401.0" cy="565.0" fill="#090" r="16" stroke="#090" stroke-width="5" /><circle cx="421.0" cy="525.0" fill="#090" r="16" stroke="#090" stroke-width="5" /><circle cx="401.0" cy="407.0" fill="#090" r="16" stroke="#090" stroke-width="5" /><circle cx="413.0" cy="445.0" fill="#090" r="16" stroke="#090" stroke-width="5" /><circle cx="413.0" cy="491.0" fill="#090" r="16" stroke="#090" stroke-width="5" /><circle cx="363.0" cy="503.0" fill="#090" r="16" stroke="#090" stroke-width="5" /><circle cx="309.0" cy="557.0" fill="#090" r="16" stroke="#090" stroke-width="5" /><circle cx="205.0" cy="589.0" fill="#090" r="16" stroke="#090" stroke-width="5" /><circle cx="233.0" cy="585.0" fill="#090" r="16" stroke="#090" stroke-width="5" /><circle cx="303.0" cy="665.0" fill="#090" r="16" stroke="#090" stroke-width="5" /><circle cx="279.0" cy="637.0" fill="#090" r="16" stroke="#090" stroke-width="5" /><circle cx="221.0" cy="629.0" fill="#090" r="16" stroke="#090" stroke-width="5" /><circle cx="249.0" cy="669.0" fill="#090" r="16" stroke="#090" stroke-width="5" /><circle cx="355.0" cy="645.0" fill="#090" r="16" stroke="#090" stroke-width="5" /><circle cx="307.0" cy="631.0" fill="#090" r="16" stroke="#090" stroke-width="5" /><circle cx="375.0" cy="621.0" fill="#090" r="16" stroke="#090" stroke-width="5" /><circle cx="403.0" cy="627.0" fill="#090" r="16" stroke="#090" stroke-width="5" /><circle cx="387.0" cy="673.0" fill="#090" r="16" stroke="#090" stroke-width="5" /><circle cx="329.0" cy="689.0" fill="#090" r="16" stroke="#090" stroke-width="5" /><circle cx="409.0" cy="707.0" fill="#090" r="16" stroke="#090" stroke-width="5" /><circle cx="439.0" cy="665.0" fill="#090" r="16" stroke="#090" stroke-width="5" /><circle cx="355.0" cy="739.0" fill="#090" r="16" stroke="#090" stroke-width="5" /><circle cx="303.0" cy="733.0" fill="#090" r="16" stroke="#090" stroke-width="5" /><circle cx="253.0" cy="703.0" fill="#090" r="16" stroke="#090" stroke-width="5" /><circle cx="183.0" cy="691.0" fill="#090" r="16" stroke="#090" stroke-width="5" /><circle cx="203.0" cy="719.0" fill="#090" r="16" stroke="#090" stroke-width="5" /><circle cx="241.0" cy="745.0" fill="#090" r="16" stroke="#090" stroke-width="5" /><circle cx="217.0" cy="693.0" fill="#090" r="16" stroke="#090" stroke-width="5" /><circle cx="193.0" cy="657.0" fill="#090" r="16" stroke="#090" stroke-width="5" /><circle cx="221.0" cy="655.0" fill="#090" r="16" stroke="#090" stroke-width="5" /><circle cx="235.0" cy="637.0" fill="#090" r="16" stroke="#090" stroke-width="5" /><circle cx="249.0" cy="623.0" fill="#090" r="16" stroke="#090" stroke-width="5" /><circle cx="255.0" cy="597.0" fill="#090" r="16" stroke="#090" stroke-width="5" /><circle cx="297.0" cy="609.0" fill="#090" r="16" stroke="#090" stroke-width="5" /><circle cx="327.0" cy="609.0" fill="#090" r="16" stroke="#090" stroke-width="5" /><circle cx="355.0" cy="601.0" fill="#090" r="16" stroke="#090" stroke-width="5" /><circle cx="377.0" cy="601.0" fill="#090" r="16" stroke="#090" stroke-width="5" /><circle cx="409.0" cy="585.0" fill="#090" r="16" stroke="#090" stroke-width="5" /><circle cx="437.0" cy="615.0" fill="#090" r="16" stroke="#090" stroke-width="5" /><circle cx="439.0" cy="587.0" fill="#090" r="16" stroke="#090" stroke-width="5" /><circle cx="431.0" cy="559.0" fill="#090" r="16" stroke="#090" stroke-width="5" /><circle cx="403.0" cy="539.0" fill="#090" r="16" stroke="#090" stroke-width="5" /><circle cx="255.0" cy="549.0" fill="#090" r="16" stroke="#090" stroke-width="5" /><circle cx="213.0" cy="563.0" fill="#090" r="16" stroke="#090" stroke-width="5" /><circle cx="223.0" cy="487.0" fill="#090" r="16" stroke="#090" stroke-width="5" /><circle cx="203.0" cy="459.0" fill="#090" r="16" stroke="#090" stroke-width="5" /><ellipse cx="285.0" cy="233.0" fill="#009" rx="12" ry="24" stroke="#009" stroke-width="5" /><ellipse cx="345.0" cy="225.0" fill="#009" rx="12" ry="24" stroke="#009" stroke-width="5" /><ellipse cx="309.0" cy="185.0" fill="#009" rx="12" ry="24" stroke="#009" stroke-width="5" /><ellipse cx="333.0" cy="157.0" fill="#009" rx="12" ry="24" stroke="#009" stroke-width="5" /></svg>