<?xml version="1.0" encoding="utf-8" ?>
<svg baseProfile="tiny" height="1024" version="1.2" viewBox="0 0 1834 1850" width="1015" xmlns="http://www.w3.org/2000/svg" xmlns:ev="http://www.w3.org/2001/xml-events" xmlns:xlink="http://www.w3.org/1999/xlink"><defs /><line stroke="#333" stroke-width="10" x1="1333.0" x2="1589.0" y1="133.0" y2="133.0" /><line stroke="#333" stroke-width="10" x1="1589.0" x2="1589.0" y1="133.0" y2="5.0" /><line stroke="#333" stroke-width="10" x1="1589.0" x2="1333.0" y1="5.0" y2="5.0" /><line stroke="#666" stroke-width="20" x1="1333.0" x2="1333.0" y1="5.0" y2="133.0" /><line stroke="#333" stroke-width="10" x1="1301.0" x2="1333.0" y1="133.0" y2="133.0" /><line stroke="#333" stroke-width="10" x1="1333.0" x2="1301.0" y1="5.0" y2="5.0" /><line stroke="#666" stroke-width="20" x1="1301.0" x2="1301.0" y1="133.0" y2="5.0" /><line stroke="#999" stroke-width="3" x1="1301.0" x2="1173.0" y1="325.0" y2="325.0" /><line stroke="#333" stroke-width="10" x1="1301.0" x2="1301.0" y1="325.0" y2="133.0" /><line stroke="#333" stroke-width="10" x1="1301.0" x2="1173.0" y1="5.0" y2="5.0" /><line stroke="#333" stroke-width="10" x1="1173.0" x2="1173.0" y1="5.0" y2="133.0" /><line stroke="#333" stroke-width="10" x1="949.0" x2="1061.0" y1="645.0" y2="645.0" /><line stroke="#333" stroke-width="10" x1="1525.0" x2="1525.0" y1="645.0" y2="565.0" /><line stroke="#333" stroke-width="10" x1="1525.0" x2="1301.0" y1="325.0" y2="325.0" /><line stroke="#333" stroke-width="10" x1="949.0" x2="949.0" y1="325.0" y2="405.0" /><line stroke="#333" stroke-width="10" x1="1173.0" x2="949.0" y1="325.0" y2="325.0" /><line stroke="#999" stroke-width="3" x1="1061.0" x2="1061.0" y1="645.0" y2="421.0" /><line stroke="#999" stroke-width="3" x1="1061.0" x2="1413.0" y1="421.0" y2="421.0" /><line stroke="#333" stroke-width="10" x1="1413.0" x2="1525.0" y1="645.0" y2="645.0" /><line stroke="#999" stroke-width="3" x1="1413.0" x2="1413.0" y1="421.0" y2="645.0" /><line stroke="#333" stroke-width="10" x1="1061.0" x2="1093.0" y1="645.0" y2="645.0" /><line stroke="#999" stroke-width="3" x1="1381.0" x2="1253.0" y1="677.0" y2="677.0" /><line stroke="#333" stroke-width="10" x1="1381.0" x2="1381.0" y1="677.0" y2="645.0" /><line stroke="#999" stroke-width="3" x1="1253.0" x2="1381.0" y1="645.0" y2="645.0" /><line stroke="#333" stroke-width="10" x1="1253.0" x2="1253.0" y1="645.0" y2="677.0" /><line stroke="#333" stroke-width="10" x1="1381.0" x2="1413.0" y1="645.0" y2="645.0" /><line stroke="#d00" stroke-width="20" x1="1093.0" x2="1221.0" y1="661.0" y2="661.0" /><line stroke="#333" stroke-width="10" x1="1221.0" x2="1221.0" y1="661.0" y2="645.0" /><line stroke="#999" stroke-width="3" x1="1093.0" x2="1221.0" y1="645.0" y2="645.0" /><line stroke="#333" stroke-width="10" x1="1093.0" x2="1093.0" y1="645.0" y2="661.0" /><line stroke="#333" stroke-width="10" x1="1221.0" x2="1253.0" y1="645.0" y2="645.0" /><line stroke="#d00" stroke-width="20" x1="1221.0" x2="1093.0" y1="693.0" y2="693.0" /><line stroke="#333" stroke-width="10" x1="1221.0" x2="1221.0" y1="693.0" y2="661.0" /><line stroke="#333" stroke-width="10" x1="1093.0" x2="1093.0" y1="661.0" y2="693.0" /><line stroke="#333" stroke-width="10" x1="1253.0" x2="1493.0" y1="773.0" y2="773.0" /><line stroke="#333" stroke-width="10" x1="1621.0" x2="1381.0" y1="677.0" y2="677.0" /><line stroke="#333" stroke-width="10" x1="1253.0" x2="1253.0" y1="677.0" y2="773.0" /><line stroke="#333" stroke-width="10" x1="1621.0" x2="1621.0" y1="773.0" y2="677.0" /><line stroke="#999" stroke-width="3" x1="1093.0" x2="1221.0" y1="901.0" y2="901.0" /><line stroke="#333" stroke-width="10" x1="1221.0" x2="1221.0" y1="901.0" y2="693.0" /><line stroke="#333" stroke-width="10" x1="1093.0" x2="1093.0" y1="693.0" y2="901.0" /><line stroke="#333" stroke-width="10" x1="1525.0" x2="1605.0" y1="565.0" y2="565.0" /><line stroke="#333" stroke-width="10" x1="1605.0" x2="1605.0" y1="565.0" y2="405.0" /><line stroke="#333" stroke-width="10" x1="1605.0" x2="1525.0" y1="405.0" y2="405.0" /><line stroke="#999" stroke-width="3" x1="1525.0" x2="1525.0" y1="405.0" y2="565.0" /><line stroke="#333" stroke-width="10" x1="1525.0" x2="1525.0" y1="405.0" y2="325.0" /><line stroke="#333" stroke-width="10" x1="869.0" x2="949.0" y1="565.0" y2="565.0" /><line stroke="#999" stroke-width="3" x1="949.0" x2="949.0" y1="565.0" y2="405.0" /><line stroke="#333" stroke-width="10" x1="949.0" x2="869.0" y1="405.0" y2="405.0" /><line stroke="#333" stroke-width="10" x1="869.0" x2="869.0" y1="405.0" y2="565.0" /><line stroke="#333" stroke-width="10" x1="949.0" x2="949.0" y1="565.0" y2="645.0" /><line stroke="#333" stroke-width="10" x1="1173.0" x2="1173.0" y1="133.0" y2="325.0" /><line stroke="#999" stroke-width="3" x1="1621.0" x2="1493.0" y1="805.0" y2="805.0" /><line stroke="#333" stroke-width="10" x1="1621.0" x2="1621.0" y1="805.0" y2="773.0" /><line stroke="#999" stroke-width="3" x1="1493.0" x2="1621.0" y1="773.0" y2="773.0" /><line stroke="#333" stroke-width="10" x1="1493.0" x2="1493.0" y1="773.0" y2="805.0" /><line stroke="#999" stroke-width="3" x1="1621.0" x2="1493.0" y1="837.0" y2="837.0" /><line stroke="#333" stroke-width="10" x1="1621.0" x2="1621.0" y1="837.0" y2="805.0" /><line stroke="#333" stroke-width="10" x1="1493.0" x2="1493.0" y1="805.0" y2="837.0" /><line stroke="#999" stroke-width="3" x1="1253.0" x2="1381.0" y1="1301.0" y2="1365.0" /><line stroke="#333" stroke-width="10" x1="1701.0" x2="1701.0" y1="1301.0" y2="837.0" /><line stroke="#333" stroke-width="10" x1="1701.0" x2="1621.0" y1="837.0" y2="837.0" /><line stroke="#333" stroke-width="10" x1="1253.0" x2="1253.0" y1="837.0" y2="1301.0" /><line stroke="#333" stroke-width="10" x1="1493.0" x2="1253.0" y1="837.0" y2="837.0" /><line stroke="#999" stroke-width="3" x1="1381.0" x2="1573.0" y1="1365.0" y2="1365.0" /><line stroke="#999" stroke-width="3" x1="1573.0" x2="1573.0" y1="949.0" y2="1365.0" /><line stroke="#999" stroke-width="3" x1="1381.0" x2="1573.0" y1="949.0" y2="949.0" /><line stroke="#999" stroke-width="3" x1="1381.0" x2="1381.0" y1="1365.0" y2="949.0" /><line stroke="#999" stroke-width="3" x1="1573.0" x2="1701.0" y1="1365.0" y2="1301.0" /><line stroke="#333" stroke-width="10" x1="1253.0" x2="1333.0" y1="1477.0" y2="1477.0" /><line stroke="#333" stroke-width="10" x1="1701.0" x2="1701.0" y1="1477.0" y2="1301.0" /><line stroke="#333" stroke-width="10" x1="1253.0" x2="1253.0" y1="1301.0" y2="1477.0" /><line stroke="#999" stroke-width="3" x1="1461.0" x2="1333.0" y1="1541.0" y2="1541.0" /><line stroke="#333" stroke-width="10" x1="1461.0" x2="1461.0" y1="1541.0" y2="1509.0" /><line stroke="#999" stroke-width="3" x1="1333.0" x2="1461.0" y1="1509.0" y2="1509.0" /><line stroke="#333" stroke-width="10" x1="1333.0" x2="1333.0" y1="1509.0" y2="1541.0" /><line stroke="#333" stroke-width="10" x1="1333.0" x2="1333.0" y1="1477.0" y2="1509.0" /><line stroke="#333" stroke-width="10" x1="1461.0" x2="1461.0" y1="1509.0" y2="1477.0" /><line stroke="#333" stroke-width="10" x1="1461.0" x2="1525.0" y1="1477.0" y2="1477.0" /><line stroke="#999" stroke-width="3" x1="741.0" x2="1749.0" y1="1765.0" y2="1765.0" /><line stroke="#999" stroke-width="3" x1="1749.0" x2="1749.0" y1="1765.0" y2="1509.0" /><line stroke="#333" stroke-width="10" x1="1749.0" x2="1669.0" y1="1509.0" y2="1509.0" /><line stroke="#333" stroke-width="10" x1="741.0" x2="741.0" y1="1573.0" y2="1765.0" /><line stroke="#333" stroke-width="10" x1="1333.0" x2="1333.0" y1="1541.0" y2="1573.0" /><line stroke="#333" stroke-width="10" x1="1333.0" x2="1189.0" y1="1573.0" y2="1573.0" /><line stroke="#333" stroke-width="10" x1="1461.0" x2="1461.0" y1="1573.0" y2="1541.0" /><line stroke="#333" stroke-width="10" x1="1493.0" x2="1461.0" y1="1573.0" y2="1573.0" /><line stroke="#333" stroke-width="10" x1="1493.0" x2="1493.0" y1="1509.0" y2="1573.0" /><line stroke="#333" stroke-width="10" x1="741.0" x2="725.0" y1="1765.0" y2="1765.0" /><line stroke="#333" stroke-width="10" x1="725.0" x2="1829.0" y1="1845.0" y2="1845.0" /><line stroke="#333" stroke-width="10" x1="1829.0" x2="1829.0" y1="1845.0" y2="1493.0" /><line stroke="#333" stroke-width="10" x1="1829.0" x2="1749.0" y1="1493.0" y2="1493.0" /><line stroke="#333" stroke-width="10" x1="725.0" x2="725.0" y1="1765.0" y2="1845.0" /><line stroke="#333" stroke-width="10" x1="1749.0" x2="1749.0" y1="1493.0" y2="1509.0" /><line stroke="#999" stroke-width="3" x1="1669.0" x2="1525.0" y1="1509.0" y2="1509.0" /><line stroke="#333" stroke-width="10" x1="1669.0" x2="1669.0" y1="1509.0" y2="1477.0" /><line stroke="#999" stroke-width="3" x1="1525.0" x2="1669.0" y1="1477.0" y2="1477.0" /><line stroke="#333" stroke-width="10" x1="1525.0" x2="1525.0" y1="1477.0" y2="1509.0" /><line stroke="#333" stroke-width="10" x1="1525.0" x2="1493.0" y1="1509.0" y2="1509.0" /><line stroke="#333" stroke-width="10" x1="1669.0" x2="1701.0" y1="1477.0" y2="1477.0" /><line stroke="#999" stroke-width="3" x1="1093.0" x2="1221.0" y1="981.0" y2="981.0" /><line stroke="#333" stroke-width="10" x1="1221.0" x2="1221.0" y1="981.0" y2="901.0" /><line stroke="#333" stroke-width="10" x1="1093.0" x2="1093.0" y1="901.0" y2="981.0" /><line stroke="#999" stroke-width="3" x1="1189.0" x2="789.0" y1="1573.0" y2="1573.0" /><line stroke="#333" stroke-width="10" x1="1189.0" x2="1189.0" y1="1573.0" y2="1541.0" /><line stroke="#999" stroke-width="3" x1="789.0" x2="1189.0" y1="1541.0" y2="1541.0" /><line stroke="#333" stroke-width="10" x1="789.0" x2="789.0" y1="1541.0" y2="1573.0" /><line stroke="#333" stroke-width="10" x1="789.0" x2="741.0" y1="1573.0" y2="1573.0" /><line stroke="#333" stroke-width="10" x1="533.0" x2="789.0" y1="1541.0" y2="1541.0" /><line stroke="#333" stroke-width="10" x1="1237.0" x2="1237.0" y1="1541.0" y2="981.0" /><line stroke="#333" stroke-width="10" x1="1237.0" x2="1221.0" y1="981.0" y2="981.0" /><line stroke="#333" stroke-width="10" x1="533.0" x2="533.0" y1="981.0" y2="1077.0" /><line stroke="#333" stroke-width="10" x1="1093.0" x2="533.0" y1="981.0" y2="981.0" /><line stroke="#333" stroke-width="10" x1="1189.0" x2="1237.0" y1="1541.0" y2="1541.0" /><line stroke="#333" stroke-width="10" x1="517.0" x2="533.0" y1="1413.0" y2="1413.0" /><line stroke="#999" stroke-width="3" x1="533.0" x2="533.0" y1="1349.0" y2="1413.0" /><line stroke="#333" stroke-width="10" x1="533.0" x2="517.0" y1="1349.0" y2="1349.0" /><line stroke="#d00" stroke-width="20" x1="517.0" x2="517.0" y1="1349.0" y2="1413.0" /><line stroke="#333" stroke-width="10" x1="533.0" x2="533.0" y1="1413.0" y2="1541.0" /><line stroke="#333" stroke-width="10" x1="501.0" x2="533.0" y1="1205.0" y2="1205.0" /><line stroke="#999" stroke-width="3" x1="533.0" x2="533.0" y1="1077.0" y2="1205.0" /><line stroke="#333" stroke-width="10" x1="533.0" x2="501.0" y1="1077.0" y2="1077.0" /><line stroke="#999" stroke-width="3" x1="501.0" x2="501.0" y1="1205.0" y2="1077.0" /><line stroke="#333" stroke-width="10" x1="533.0" x2="533.0" y1="1205.0" y2="1349.0" /><line stroke="#333" stroke-width="10" x1="501.0" x2="517.0" y1="1413.0" y2="1413.0" /><line stroke="#333" stroke-width="10" x1="517.0" x2="501.0" y1="1349.0" y2="1349.0" /><line stroke="#d00" stroke-width="20" x1="501.0" x2="501.0" y1="1413.0" y2="1349.0" /><line stroke="#333" stroke-width="10" x1="437.0" x2="501.0" y1="1413.0" y2="1413.0" /><line stroke="#333" stroke-width="10" x1="501.0" x2="437.0" y1="1349.0" y2="1349.0" /><line stroke="#0d0" stroke-width="20" x1="437.0" x2="437.0" y1="1349.0" y2="1413.0" /><line stroke="#333" stroke-width="10" x1="5.0" x2="149.0" y1="1061.0" y2="1205.0" /><line stroke="#333" stroke-width="10" x1="501.0" x2="197.0" y1="1077.0" y2="1077.0" /><line stroke="#333" stroke-width="10" x1="133.0" x2="133.0" y1="1013.0" y2="869.0" /><line stroke="#333" stroke-width="10" x1="149.0" x2="501.0" y1="1205.0" y2="1205.0" /><line stroke="#333" stroke-width="10" x1="197.0" x2="133.0" y1="1077.0" y2="1013.0" /><line stroke="#333" stroke-width="10" x1="5.0" x2="5.0" y1="869.0" y2="1061.0" /><line stroke="#666" stroke-width="20" x1="133.0" x2="5.0" y1="869.0" y2="869.0" /><line stroke="#333" stroke-width="10" x1="133.0" x2="133.0" y1="869.0" y2="837.0" /><line stroke="#666" stroke-width="20" x1="5.0" x2="133.0" y1="837.0" y2="837.0" /><line stroke="#333" stroke-width="10" x1="5.0" x2="5.0" y1="837.0" y2="869.0" /><line stroke="#666" stroke-width="20" x1="533.0" x2="533.0" y1="837.0" y2="709.0" /><line stroke="#333" stroke-width="10" x1="533.0" x2="5.0" y1="709.0" y2="709.0" /><line stroke="#333" stroke-width="10" x1="5.0" x2="5.0" y1="709.0" y2="837.0" /><line stroke="#333" stroke-width="10" x1="133.0" x2="245.0" y1="837.0" y2="837.0" /><line stroke="#333" stroke-width="10" x1="533.0" x2="565.0" y1="837.0" y2="837.0" /><line stroke="#666" stroke-width="20" x1="565.0" x2="565.0" y1="709.0" y2="837.0" /><line stroke="#333" stroke-width="10" x1="565.0" x2="533.0" y1="709.0" y2="709.0" /><line stroke="#666" stroke-width="20" x1="373.0" x2="245.0" y1="869.0" y2="869.0" /><line stroke="#333" stroke-width="10" x1="373.0" x2="373.0" y1="869.0" y2="837.0" /><line stroke="#666" stroke-width="20" x1="245.0" x2="373.0" y1="837.0" y2="837.0" /><line stroke="#333" stroke-width="10" x1="245.0" x2="245.0" y1="837.0" y2="869.0" /><line stroke="#333" stroke-width="10" x1="373.0" x2="533.0" y1="837.0" y2="837.0" /><line stroke="#333" stroke-width="10" x1="565.0" x2="373.0" y1="869.0" y2="869.0" /><line stroke="#333" stroke-width="10" x1="933.0" x2="1077.0" y1="789.0" y2="789.0" /><line stroke="#333" stroke-width="10" x1="1077.0" x2="933.0" y1="693.0" y2="693.0" /><line stroke="#333" stroke-width="10" x1="149.0" x2="149.0" y1="869.0" y2="1013.0" /><line stroke="#333" stroke-width="10" x1="149.0" x2="517.0" y1="1013.0" y2="1013.0" /><line stroke="#333" stroke-width="10" x1="565.0" x2="565.0" y1="837.0" y2="869.0" /><line stroke="#333" stroke-width="10" x1="517.0" x2="933.0" y1="965.0" y2="965.0" /><line stroke="#333" stroke-width="10" x1="517.0" x2="517.0" y1="1013.0" y2="965.0" /><line stroke="#333" stroke-width="10" x1="565.0" x2="565.0" y1="581.0" y2="709.0" /><line stroke="#333" stroke-width="10" x1="933.0" x2="933.0" y1="693.0" y2="581.0" /><line stroke="#333" stroke-width="10" x1="933.0" x2="565.0" y1="581.0" y2="581.0" /><line stroke="#333" stroke-width="10" x1="245.0" x2="149.0" y1="869.0" y2="869.0" /><line stroke="#333" stroke-width="10" x1="661.0" x2="853.0" y1="677.0" y2="677.0" /><line stroke="#333" stroke-width="10" x1="853.0" x2="853.0" y1="677.0" y2="869.0" /><line stroke="#333" stroke-width="10" x1="853.0" x2="661.0" y1="869.0" y2="869.0" /><line stroke="#333" stroke-width="10" x1="661.0" x2="661.0" y1="869.0" y2="677.0" /><line stroke="#333" stroke-width="10" x1="933.0" x2="933.0" y1="965.0" y2="789.0" /><line stroke="#333" stroke-width="10" x1="1077.0" x2="1077.0" y1="789.0" y2="693.0" /><ellipse cx="1541.0" cy="69.0" fill="#009" rx="12" ry="24" stroke="#009" stroke-width="5" /><ellipse cx="1573.0" cy="101.0" fill="#009" rx="12" ry="24" stroke="#009" stroke-width="5" /><ellipse cx="1573.0" cy="69.0" fill="#009" rx="12" ry="24" stroke="#009" stroke-width="5" /><ellipse cx="1573.0" cy="37.0" fill="#009" rx="12" ry="24" stroke="#009" stroke-width="5" /><rect fill="#900" height="48" stroke="#900" stroke-width="5" transform="rotate(0,901.0,485.0)" width="32" x="885.0" y="461.0" /><rect fill="#900" height="48" stroke="#900" stroke-width="5" transform="rotate(180,1573.0,485.0)" width="32" x="1557.0" y="461.0" /><rect fill="#090" height="24" stroke="#090" stroke-width="5" transform="rotate(180,1093.0,453.0)" width="24" x="1081.0" y="441.0" /><rect fill="#090" height="24" stroke="#090" stroke-width="5" transform="rotate(180,1381.0,453.0)" width="24" x="1369.0" y="441.0" /><rect fill="#090" height="24" stroke="#090" stroke-width="5" transform="rotate(180,1429.0,1317.0)" width="24" x="1417.0" y="1305.0" /><rect fill="#090" height="24" stroke="#090" stroke-width="5" transform="rotate(180,1605.0,1045.0)" width="24" x="1593.0" y="1033.0" /><rect fill="#090" height="24" stroke="#090" stroke-width="5" transform="rotate(180,1317.0,981.0)" width="24" x="1305.0" y="969.0" /><rect fill="#090" height="24" stroke="#090" stroke-width="5" transform="rotate(180,1637.0,1269.0)" width="24" x="1625.0" y="1257.0" /><rect fill="#090" height="24" stroke="#090" stroke-width="5" transform="rotate(180,1333.0,1397.0)" width="24" x="1321.0" y="1385.0" /><rect fill="#090" height="24" stroke="#090" stroke-width="5" transform="rotate(180,1493.0,1125.0)" width="24" x="1481.0" y="1113.0" /><rect fill="#090" height="24" stroke="#090" stroke-width="5" transform="rotate(180,1317.0,1269.0)" width="24" x="1305.0" y="1257.0" /><rect fill="#090" height="24" stroke="#090" stroke-width="5" transform="rotate(180,1381.0,869.0)" width="24" x="1369.0" y="857.0" /><rect fill="#090" height="24" stroke="#090" stroke-width="5" transform="rotate(180,1381.0,1093.0)" width="24" x="1369.0" y="1081.0" /><rect fill="#090" height="24" stroke="#090" stroke-width="5" transform="rotate(180,1621.0,1397.0)" width="24" x="1609.0" y="1385.0" /><ellipse cx="773.0" cy="1685.0" fill="#090" rx="12" ry="24" stroke="#090" stroke-width="5" /><rect fill="#090" height="24" stroke="#090" stroke-width="5" transform="rotate(180,1093.0,1733.0)" width="24" x="1081.0" y="1721.0" /><rect fill="#090" height="24" stroke="#090" stroke-width="5" transform="rotate(180,1685.0,1621.0)" width="24" x="1673.0" y="1609.0" /><rect fill="#090" height="24" stroke="#090" stroke-width="5" transform="rotate(180,917.0,1605.0)" width="24" x="905.0" y="1593.0" /><rect fill="#090" height="24" stroke="#090" stroke-width="5" transform="rotate(180,1541.0,1701.0)" width="24" x="1529.0" y="1689.0" /><rect fill="#090" height="24" stroke="#090" stroke-width="5" transform="rotate(180,1253.0,1637.0)" width="24" x="1241.0" y="1625.0" /><rect fill="#090" height="24" stroke="#090" stroke-width="5" transform="rotate(180,1061.0,1653.0)" width="24" x="1049.0" y="1641.0" /><rect fill="#090" height="24" stroke="#090" stroke-width="5" transform="rotate(180,901.0,1717.0)" width="24" x="889.0" y="1705.0" /><rect fill="#090" height="24" stroke="#090" stroke-width="5" transform="rotate(180,1397.0,1701.0)" width="24" x="1385.0" y="1689.0" /><rect fill="#090" height="24" stroke="#090" stroke-width="5" transform="rotate(180,1557.0,1589.0)" width="24" x="1545.0" y="1577.0" /><rect fill="#900" height="48" stroke="#900" stroke-width="5" transform="rotate(270,1173.0,581.0)" width="32" x="1157.0" y="557.0" /><rect fill="#900" height="48" stroke="#900" stroke-width="5" transform="rotate(270,1301.0,549.0)" width="32" x="1285.0" y="525.0" /><rect fill="#900" height="48" stroke="#900" stroke-width="5" transform="rotate(270,1189.0,485.0)" width="32" x="1173.0" y="461.0" /><circle cx="1237.0" cy="69.0" fill="#009" r="16" stroke="#009" stroke-width="5" /><rect fill="#900" height="48" stroke="#900" stroke-width="5" transform="rotate(0,1013.0,389.0)" width="32" x="997.0" y="365.0" /><circle cx="1237.0" cy="533.0" fill="#090" r="16" stroke="#090" stroke-width="5" /><rect fill="#900" height="48" stroke="#900" stroke-width="5" transform="rotate(180,1429.0,373.0)" width="32" x="1413.0" y="349.0" /><circle cx="1429.0" cy="629.0" fill="#009" r="16" stroke="#009" stroke-width="5" /><circle cx="1469.0" cy="629.0" fill="#009" r="16" stroke="#009" stroke-width="5" /><circle cx="1509.0" cy="629.0" fill="#009" r="16" stroke="#009" stroke-width="5" /><circle cx="965.0" cy="629.0" fill="#009" r="16" stroke="#009" stroke-width="5" /><circle cx="965.0" cy="589.0" fill="#009" r="16" stroke="#009" stroke-width="5" /><circle cx="1045.0" cy="629.0" fill="#009" r="16" stroke="#009" stroke-width="5" /><circle cx="1005.0" cy="629.0" fill="#009" r="16" stroke="#009" stroke-width="5" /><circle cx="1509.0" cy="589.0" fill="#009" r="16" stroke="#009" stroke-width="5" /><rect fill="#900" height="48" stroke="#900" stroke-width="5" transform="rotate(180,1461.0,725.0)" width="32" x="1445.0" y="701.0" /><rect fill="#900" height="48" stroke="#900" stroke-width="5" transform="rotate(270,1445.0,1397.0)" width="32" x="1429.0" y="1373.0" /><rect fill="#900" height="48" stroke="#900" stroke-width="5" transform="rotate(270,1557.0,1237.0)" width="32" x="1541.0" y="1213.0" /><rect fill="#900" height="48" stroke="#900" stroke-width="5" transform="rotate(270,1317.0,1189.0)" width="32" x="1301.0" y="1165.0" /><rect fill="#900" height="48" stroke="#900" stroke-width="5" transform="rotate(270,1621.0,1157.0)" width="32" x="1605.0" y="1133.0" /><circle cx="1669.0" cy="869.0" fill="#090" r="16" stroke="#090" stroke-width="5" /><circle cx="1557.0" cy="869.0" fill="#009" r="16" stroke="#009" stroke-width="5" /><rect fill="#090" height="24" stroke="#090" stroke-width="5" transform="rotate(180,725.0,1333.0)" width="24" x="713.0" y="1321.0" /><rect fill="#090" height="24" stroke="#090" stroke-width="5" transform="rotate(180,1061.0,1429.0)" width="24" x="1049.0" y="1417.0" /><rect fill="#090" height="24" stroke="#090" stroke-width="5" transform="rotate(180,805.0,1173.0)" width="24" x="793.0" y="1161.0" /><rect fill="#090" height="24" stroke="#090" stroke-width="5" transform="rotate(180,1045.0,1157.0)" width="24" x="1033.0" y="1145.0" /><rect fill="#090" height="24" stroke="#090" stroke-width="5" transform="rotate(180,597.0,1029.0)" width="24" x="585.0" y="1017.0" /><rect fill="#090" height="24" stroke="#090" stroke-width="5" transform="rotate(180,901.0,1365.0)" width="24" x="889.0" y="1353.0" /><rect fill="#090" height="24" stroke="#090" stroke-width="5" transform="rotate(180,1157.0,1301.0)" width="24" x="1145.0" y="1289.0" /><rect fill="#090" height="24" stroke="#090" stroke-width="5" transform="rotate(180,949.0,1077.0)" width="24" x="937.0" y="1065.0" /><rect fill="#090" height="24" stroke="#090" stroke-width="5" transform="rotate(180,613.0,1477.0)" width="24" x="601.0" y="1465.0" /><circle cx="1157.0" cy="853.0" fill="#009" r="16" stroke="#009" stroke-width="5" /><rect fill="#900" height="48" stroke="#900" stroke-width="5" transform="rotate(0,597.0,1413.0)" width="32" x="581.0" y="1389.0" /><rect fill="#900" height="48" stroke="#900" stroke-width="5" transform="rotate(0,613.0,1125.0)" width="32" x="597.0" y="1101.0" /><circle cx="1157.0" cy="789.0" fill="#090" r="16" stroke="#090" stroke-width="5" /><circle cx="1205.0" cy="1509.0" fill="#009" r="16" stroke="#009" stroke-width="5" /><ellipse cx="1029.0" cy="741.0" fill="#090" rx="12" ry="24" stroke="#090" stroke-width="5" /><rect fill="#900" height="48" stroke="#900" stroke-width="5" transform="rotate(180,421.0,773.0)" width="32" x="405.0" y="749.0" /><circle cx="69.0" cy="965.0" fill="#009" r="16" stroke="#009" stroke-width="5" /><rect fill="#900" height="48" stroke="#900" stroke-width="5" transform="rotate(180,325.0,805.0)" width="32" x="309.0" y="781.0" /><rect fill="#900" height="48" stroke="#900" stroke-width="5" transform="rotate(180,229.0,757.0)" width="32" x="213.0" y="733.0" /><rect fill="#900" height="48" stroke="#900" stroke-width="5" transform="rotate(180,709.0,917.0)" width="32" x="693.0" y="893.0" /><rect fill="#900" height="48" stroke="#900" stroke-width="5" transform="rotate(180,805.0,645.0)" width="32" x="789.0" y="621.0" /><rect fill="#900" height="48" stroke="#900" stroke-width="5" transform="rotate(0,197.0,933.0)" width="32" x="181.0" y="909.0" /><rect fill="#900" height="48" stroke="#900" stroke-width="5" transform="rotate(0,853.0,901.0)" width="32" x="837.0" y="877.0" /><rect fill="#900" height="48" stroke="#900" stroke-width="5" transform="rotate(0,677.0,645.0)" width="32" x="661.0" y="621.0" /><rect fill="#900" height="48" stroke="#900" stroke-width="5" transform="rotate(0,533.0,901.0)" width="32" x="517.0" y="877.0" /><rect fill="#900" height="48" stroke="#900" stroke-width="5" transform="rotate(270,341.0,965.0)" width="32" x="325.0" y="941.0" /><circle cx="501.0" cy="997.0" fill="#090" r="16" stroke="#090" stroke-width="5" /><circle cx="917.0" cy="597.0" fill="#090" r="16" stroke="#090" stroke-width="5" /><rect fill="#090" height="24" stroke="#090" stroke-width="5" transform="rotate(0,581.0,693.0)" width="24" x="569.0" y="681.0" /><rect fill="#090" height="24" stroke="#090" stroke-width="5" transform="rotate(0,581.0,853.0)" width="24" x="569.0" y="841.0" /><rect fill="#090" height="24" stroke="#090" stroke-width="5" transform="rotate(0,389.0,885.0)" width="24" x="377.0" y="873.0" /><rect fill="#090" height="24" stroke="#090" stroke-width="5" transform="rotate(0,229.0,885.0)" width="24" x="217.0" y="873.0" /><rect fill="#090" height="24" stroke="#090" stroke-width="5" transform="rotate(0,917.0,821.0)" width="24" x="905.0" y="809.0" /><rect fill="#090" height="24" stroke="#090" stroke-width="5" transform="rotate(0,917.0,677.0)" width="24" x="905.0" y="665.0" /><rect fill="#900" height="48" stroke="#900" stroke-width="5" transform="rotate(315,1189.0,1701.0)" width="32" x="1173.0" y="1677.0" /></svg>