<?xml version="1.0" encoding="utf-8" ?>
<svg baseProfile="tiny" height="530" version="1.2" viewBox="0 0 6334 3279" width="1024" xmlns="http://www.w3.org/2000/svg" xmlns:ev="http://www.w3.org/2001/xml-events" xmlns:xlink="http://www.w3.org/1999/xlink"><defs /><line stroke="#333" stroke-width="10" x1="4076.0" x2="3973.0" y1="490.0" y2="416.0" /><line stroke="#333" stroke-width="10" x1="3973.0" x2="3532.0" y1="416.0" y2="981.0" /><line stroke="#999" stroke-width="3" x1="3532.0" x2="3636.0" y1="981.0" y2="1063.0" /><line stroke="#333" stroke-width="10" x1="3636.0" x2="4076.0" y1="1063.0" y2="490.0" /><line stroke="#333" stroke-width="10" x1="2890.0" x2="2827.0" y1="493.0" y2="332.0" /><line stroke="#333" stroke-width="10" x1="3532.0" x2="3381.0" y1="981.0" y2="989.0" /><line stroke="#333" stroke-width="10" x1="3381.0" x2="3149.0" y1="989.0" y2="835.0" /><line stroke="#333" stroke-width="10" x1="2911.0" x2="2890.0" y1="668.0" y2="493.0" /><line stroke="#333" stroke-width="10" x1="2827.0" x2="2667.0" y1="332.0" y2="225.0" /><line stroke="#333" stroke-width="10" x1="2667.0" x2="2698.0" y1="225.0" y2="28.0" /><line stroke="#333" stroke-width="10" x1="259.0" x2="1765.0" y1="1953.0" y2="2703.0" /><line stroke="#333" stroke-width="10" x1="4003.0" x2="3636.0" y1="1540.0" y2="1063.0" /><line stroke="#999" stroke-width="3" x1="2539.0" x2="3064.0" y1="582.0" y2="930.0" /><line stroke="#333" stroke-width="10" x1="6198.0" x2="6329.0" y1="3071.0" y2="1574.0" /><line stroke="#999" stroke-width="3" x1="2559.0" x2="2539.0" y1="25.0" y2="582.0" /><line stroke="#333" stroke-width="10" x1="5.0" x2="259.0" y1="5.0" y2="1953.0" /><line stroke="#333" stroke-width="10" x1="3149.0" x2="2911.0" y1="835.0" y2="668.0" /><line stroke="#999" stroke-width="3" x1="3064.0" x2="4003.0" y1="930.0" y2="1540.0" /><line stroke="#999" stroke-width="3" x1="3149.0" x2="3064.0" y1="835.0" y2="930.0" /><line stroke="#333" stroke-width="10" x1="1765.0" x2="3122.0" y1="2703.0" y2="3274.0" /><line stroke="#999" stroke-width="3" x1="3064.0" x2="1765.0" y1="930.0" y2="2703.0" /><line stroke="#333" stroke-width="10" x1="6329.0" x2="4003.0" y1="1574.0" y2="1540.0" /><line stroke="#999" stroke-width="3" x1="5.0" x2="738.0" y1="5.0" y2="1609.0" /><line stroke="#999" stroke-width="3" x1="738.0" x2="1765.0" y1="1609.0" y2="2703.0" /><line stroke="#999" stroke-width="3" x1="1765.0" x2="3311.0" y1="2703.0" y2="3062.0" /><line stroke="#999" stroke-width="3" x1="3311.0" x2="5579.0" y1="3062.0" y2="2596.0" /><line stroke="#999" stroke-width="3" x1="5579.0" x2="5729.0" y1="2596.0" y2="2209.0" /><line stroke="#999" stroke-width="3" x1="5729.0" x2="4003.0" y1="2209.0" y2="1540.0" /><line stroke="#333" stroke-width="10" x1="3893.0" x2="3620.0" y1="2342.0" y2="2339.0" /><line stroke="#333" stroke-width="10" x1="4025.0" x2="3893.0" y1="2294.0" y2="2342.0" /><line stroke="#999" stroke-width="3" x1="4105.0" x2="4025.0" y1="2224.0" y2="2294.0" /><line stroke="#999" stroke-width="3" x1="4105.0" x2="4105.0" y1="2147.0" y2="2224.0" /><line stroke="#999" stroke-width="3" x1="4022.0" x2="4105.0" y1="2067.0" y2="2147.0" /><line stroke="#333" stroke-width="10" x1="3893.0" x2="4022.0" y1="2022.0" y2="2067.0" /><line stroke="#333" stroke-width="10" x1="2869.0" x2="3288.0" y1="2022.0" y2="2023.0" /><line stroke="#333" stroke-width="10" x1="2821.0" x2="2869.0" y1="2039.0" y2="2022.0" /><line stroke="#333" stroke-width="10" x1="2869.0" x2="2824.0" y1="2342.0" y2="2329.0" /><line stroke="#333" stroke-width="10" x1="2824.0" x2="2750.0" y1="2329.0" y2="2403.0" /><line stroke="#333" stroke-width="10" x1="2750.0" x2="2647.0" y1="2403.0" y2="2402.0" /><line stroke="#333" stroke-width="10" x1="2647.0" x2="2646.0" y1="2402.0" y2="2234.0" /><line stroke="#333" stroke-width="10" x1="2789.0" x2="2821.0" y1="1952.0" y2="2039.0" /><line stroke="#333" stroke-width="10" x1="3122.0" x2="6198.0" y1="3274.0" y2="3071.0" /><line stroke="#999" stroke-width="3" x1="3410.0" x2="3287.0" y1="2787.0" y2="2788.0" /><line stroke="#999" stroke-width="3" x1="3620.0" x2="3410.0" y1="2414.0" y2="2787.0" /><line stroke="#999" stroke-width="3" x1="3620.0" x2="3620.0" y1="2339.0" y2="2414.0" /><line stroke="#333" stroke-width="10" x1="3279.0" x2="2869.0" y1="2345.0" y2="2342.0" /><line stroke="#333" stroke-width="10" x1="3620.0" x2="3279.0" y1="2339.0" y2="2345.0" /><line stroke="#999" stroke-width="3" x1="3288.0" x2="3292.0" y1="2023.0" y2="1648.0" /><line stroke="#999" stroke-width="3" x1="3292.0" x2="3316.0" y1="1648.0" y2="1572.0" /><line stroke="#999" stroke-width="3" x1="3316.0" x2="3423.0" y1="1572.0" y2="1572.0" /><line stroke="#999" stroke-width="3" x1="3423.0" x2="3637.0" y1="1572.0" y2="1975.0" /><line stroke="#999" stroke-width="3" x1="3637.0" x2="3639.0" y1="1975.0" y2="2022.0" /><line stroke="#333" stroke-width="10" x1="3288.0" x2="3639.0" y1="2023.0" y2="2022.0" /><line stroke="#333" stroke-width="10" x1="3639.0" x2="3706.0" y1="2022.0" y2="2022.0" /><line stroke="#333" stroke-width="10" x1="2646.0" x2="2643.0" y1="2234.0" y2="2150.0" /><line stroke="#333" stroke-width="10" x1="2643.0" x2="2644.0" y1="2150.0" y2="1952.0" /><line stroke="#999" stroke-width="3" x1="2643.0" x2="2610.0" y1="2150.0" y2="1947.0" /><line stroke="#999" stroke-width="3" x1="2610.0" x2="2700.0" y1="1947.0" y2="1913.0" /><line stroke="#999" stroke-width="3" x1="2700.0" x2="2796.0" y1="1913.0" y2="1926.0" /><line stroke="#999" stroke-width="3" x1="2796.0" x2="2821.0" y1="1926.0" y2="2039.0" /><line stroke="#999" stroke-width="3" x1="2611.0" x2="2643.0" y1="2193.0" y2="2150.0" /><line stroke="#999" stroke-width="3" x1="2646.0" x2="2611.0" y1="2234.0" y2="2193.0" /><line stroke="#999" stroke-width="3" x1="2612.0" x2="2646.0" y1="2432.0" y2="2234.0" /><line stroke="#999" stroke-width="3" x1="2712.0" x2="2612.0" y1="2457.0" y2="2432.0" /><line stroke="#999" stroke-width="3" x1="2795.0" x2="2712.0" y1="2422.0" y2="2457.0" /><line stroke="#999" stroke-width="3" x1="2824.0" x2="2795.0" y1="2329.0" y2="2422.0" /><line stroke="#333" stroke-width="10" x1="2644.0" x2="2789.0" y1="1952.0" y2="1952.0" /><line stroke="#999" stroke-width="3" x1="3483.0" x2="3677.0" y1="1455.0" y2="1849.0" /><line stroke="#999" stroke-width="3" x1="3209.0" x2="3483.0" y1="1457.0" y2="1455.0" /><line stroke="#999" stroke-width="3" x1="3288.0" x2="3209.0" y1="2023.0" y2="1457.0" /><line stroke="#999" stroke-width="3" x1="3677.0" x2="3639.0" y1="1849.0" y2="2022.0" /><line stroke="#999" stroke-width="3" x1="3174.0" x2="3279.0" y1="2757.0" y2="2345.0" /><line stroke="#999" stroke-width="3" x1="3365.0" x2="3174.0" y1="2873.0" y2="2757.0" /><line stroke="#999" stroke-width="3" x1="3541.0" x2="3365.0" y1="2817.0" y2="2873.0" /><line stroke="#999" stroke-width="3" x1="3691.0" x2="3541.0" y1="2410.0" y2="2817.0" /><line stroke="#999" stroke-width="3" x1="3620.0" x2="3691.0" y1="2339.0" y2="2410.0" /><line stroke="#999" stroke-width="3" x1="3287.0" x2="3279.0" y1="2788.0" y2="2345.0" /><line stroke="#999" stroke-width="3" x1="3716.0" x2="3716.0" y1="2022.0" y2="2001.0" /><line stroke="#999" stroke-width="3" x1="3716.0" x2="3805.0" y1="1894.0" y2="1894.0" /><line stroke="#999" stroke-width="3" x1="3805.0" x2="3805.0" y1="1894.0" y2="1918.0" /><line stroke="#999" stroke-width="3" x1="3716.0" x2="3805.0" y1="2022.0" y2="2022.0" /><line stroke="#333" stroke-width="10" x1="3805.0" x2="3818.0" y1="2022.0" y2="2023.0" /><line stroke="#333" stroke-width="10" x1="3706.0" x2="3716.0" y1="2022.0" y2="2022.0" /><line stroke="#999" stroke-width="3" x1="3706.0" x2="3706.0" y1="2022.0" y2="2001.0" /><line stroke="#999" stroke-width="3" x1="3707.0" x2="3716.0" y1="1894.0" y2="1894.0" /><line stroke="#333" stroke-width="10" x1="3818.0" x2="3893.0" y1="2023.0" y2="2022.0" /><line stroke="#999" stroke-width="3" x1="3818.0" x2="3818.0" y1="2023.0" y2="2000.0" /><line stroke="#999" stroke-width="3" x1="3818.0" x2="3805.0" y1="1894.0" y2="1894.0" /><line stroke="#999" stroke-width="3" x1="3716.0" x2="3716.0" y1="1918.0" y2="1894.0" /><line stroke="#999" stroke-width="3" x1="3805.0" x2="3805.0" y1="1918.0" y2="1949.0" /><line stroke="#999" stroke-width="3" x1="3716.0" x2="3805.0" y1="1918.0" y2="1918.0" /><line stroke="#999" stroke-width="3" x1="3716.0" x2="3716.0" y1="1948.0" y2="1918.0" /><line stroke="#999" stroke-width="3" x1="3805.0" x2="3805.0" y1="1949.0" y2="1976.0" /><line stroke="#999" stroke-width="3" x1="3716.0" x2="3805.0" y1="1948.0" y2="1949.0" /><line stroke="#999" stroke-width="3" x1="3716.0" x2="3716.0" y1="1977.0" y2="1948.0" /><line stroke="#999" stroke-width="3" x1="3805.0" x2="3805.0" y1="1976.0" y2="2000.0" /><line stroke="#999" stroke-width="3" x1="3716.0" x2="3805.0" y1="1977.0" y2="1976.0" /><line stroke="#999" stroke-width="3" x1="3716.0" x2="3716.0" y1="2001.0" y2="1977.0" /><line stroke="#999" stroke-width="3" x1="3805.0" x2="3805.0" y1="2000.0" y2="2022.0" /><line stroke="#999" stroke-width="3" x1="3716.0" x2="3805.0" y1="2001.0" y2="2000.0" /><line stroke="#999" stroke-width="3" x1="3707.0" x2="3707.0" y1="1918.0" y2="1894.0" /><line stroke="#999" stroke-width="3" x1="3707.0" x2="3716.0" y1="1918.0" y2="1918.0" /><line stroke="#999" stroke-width="3" x1="3706.0" x2="3707.0" y1="1948.0" y2="1918.0" /><line stroke="#999" stroke-width="3" x1="3706.0" x2="3716.0" y1="1948.0" y2="1948.0" /><line stroke="#999" stroke-width="3" x1="3705.0" x2="3706.0" y1="1977.0" y2="1948.0" /><line stroke="#999" stroke-width="3" x1="3705.0" x2="3716.0" y1="1977.0" y2="1977.0" /><line stroke="#999" stroke-width="3" x1="3706.0" x2="3705.0" y1="2001.0" y2="1977.0" /><line stroke="#999" stroke-width="3" x1="3706.0" x2="3716.0" y1="2001.0" y2="2001.0" /><line stroke="#999" stroke-width="3" x1="3818.0" x2="3818.0" y1="2000.0" y2="1976.0" /><line stroke="#999" stroke-width="3" x1="3805.0" x2="3818.0" y1="2000.0" y2="2000.0" /><line stroke="#999" stroke-width="3" x1="3818.0" x2="3818.0" y1="1976.0" y2="1949.0" /><line stroke="#999" stroke-width="3" x1="3805.0" x2="3818.0" y1="1976.0" y2="1976.0" /><line stroke="#999" stroke-width="3" x1="3818.0" x2="3818.0" y1="1949.0" y2="1918.0" /><line stroke="#999" stroke-width="3" x1="3805.0" x2="3818.0" y1="1949.0" y2="1949.0" /><line stroke="#999" stroke-width="3" x1="3818.0" x2="3818.0" y1="1918.0" y2="1894.0" /><line stroke="#999" stroke-width="3" x1="3805.0" x2="3818.0" y1="1918.0" y2="1918.0" /><line stroke="#333" stroke-width="10" x1="3716.0" x2="3712.0" y1="2022.0" y2="2042.0" /><line stroke="#333" stroke-width="10" x1="3807.0" x2="3805.0" y1="2048.0" y2="2022.0" /><line stroke="#333" stroke-width="10" x1="3712.0" x2="3713.0" y1="2042.0" y2="2070.0" /><line stroke="#666" stroke-width="20" x1="3713.0" x2="3805.0" y1="2070.0" y2="2070.0" /><line stroke="#333" stroke-width="10" x1="3805.0" x2="3807.0" y1="2070.0" y2="2048.0" /><line stroke="#999" stroke-width="3" x1="1485.0" x2="1212.0" y1="1244.0" y2="1247.0" /><line stroke="#999" stroke-width="3" x1="1212.0" x2="1080.0" y1="1247.0" y2="1199.0" /><line stroke="#999" stroke-width="3" x1="1080.0" x2="1000.0" y1="1199.0" y2="1129.0" /><line stroke="#999" stroke-width="3" x1="1000.0" x2="1000.0" y1="1129.0" y2="1052.0" /><line stroke="#999" stroke-width="3" x1="1000.0" x2="1083.0" y1="1052.0" y2="972.0" /><line stroke="#999" stroke-width="3" x1="1083.0" x2="1212.0" y1="972.0" y2="927.0" /><line stroke="#999" stroke-width="3" x1="1817.0" x2="2236.0" y1="928.0" y2="927.0" /><line stroke="#999" stroke-width="3" x1="2236.0" x2="2284.0" y1="927.0" y2="944.0" /><line stroke="#999" stroke-width="3" x1="2284.0" x2="2317.0" y1="944.0" y2="982.0" /><line stroke="#999" stroke-width="3" x1="2317.0" x2="2281.0" y1="1196.0" y2="1234.0" /><line stroke="#999" stroke-width="3" x1="2281.0" x2="2236.0" y1="1234.0" y2="1247.0" /><line stroke="#999" stroke-width="3" x1="2269.0" x2="2250.0" y1="1188.0" y2="1210.0" /><line stroke="#999" stroke-width="3" x1="2250.0" x2="2207.0" y1="1210.0" y2="1223.0" /><line stroke="#999" stroke-width="3" x1="2207.0" x2="1213.0" y1="1223.0" y2="1226.0" /><line stroke="#999" stroke-width="3" x1="1213.0" x2="1104.0" y1="1226.0" y2="1173.0" /><line stroke="#999" stroke-width="3" x1="1104.0" x2="1060.0" y1="1173.0" y2="1123.0" /><line stroke="#999" stroke-width="3" x1="1060.0" x2="1060.0" y1="1123.0" y2="1060.0" /><line stroke="#999" stroke-width="3" x1="1060.0" x2="1104.0" y1="1060.0" y2="1004.0" /><line stroke="#999" stroke-width="3" x1="1104.0" x2="1210.0" y1="1004.0" y2="947.0" /><line stroke="#999" stroke-width="3" x1="1393.0" x2="2213.0" y1="947.0" y2="947.0" /><line stroke="#999" stroke-width="3" x1="2213.0" x2="2253.0" y1="947.0" y2="963.0" /><line stroke="#999" stroke-width="3" x1="2253.0" x2="2272.0" y1="963.0" y2="1000.0" /><line stroke="#999" stroke-width="3" x1="2293.0" x2="2269.0" y1="1085.0" y2="1188.0" /><line stroke="#999" stroke-width="3" x1="2227.0" x2="2212.0" y1="1085.0" y2="1170.0" /><line stroke="#999" stroke-width="3" x1="2171.0" x2="2212.0" y1="966.0" y2="991.0" /><line stroke="#999" stroke-width="3" x1="1393.0" x2="2171.0" y1="966.0" y2="966.0" /><line stroke="#999" stroke-width="3" x1="1179.0" x2="1242.0" y1="1007.0" y2="966.0" /><line stroke="#999" stroke-width="3" x1="1148.0" x2="1179.0" y1="1057.0" y2="1007.0" /><line stroke="#999" stroke-width="3" x1="1148.0" x2="1148.0" y1="1110.0" y2="1057.0" /><line stroke="#999" stroke-width="3" x1="1185.0" x2="1148.0" y1="1167.0" y2="1110.0" /><line stroke="#999" stroke-width="3" x1="1257.0" x2="1185.0" y1="1207.0" y2="1167.0" /><line stroke="#999" stroke-width="3" x1="2165.0" x2="1257.0" y1="1204.0" y2="1207.0" /><line stroke="#999" stroke-width="3" x1="2212.0" x2="2165.0" y1="1170.0" y2="1204.0" /><line stroke="#999" stroke-width="3" x1="2346.0" x2="2317.0" y1="1138.0" y2="1196.0" /><line stroke="#999" stroke-width="3" x1="2272.0" x2="2293.0" y1="1000.0" y2="1085.0" /><line stroke="#999" stroke-width="3" x1="2212.0" x2="2227.0" y1="991.0" y2="1085.0" /><line stroke="#999" stroke-width="3" x1="2355.0" x2="2281.0" y1="1308.0" y2="1234.0" /><line stroke="#999" stroke-width="3" x1="2458.0" x2="2355.0" y1="1307.0" y2="1308.0" /><line stroke="#999" stroke-width="3" x1="2459.0" x2="2458.0" y1="1139.0" y2="1307.0" /><line stroke="#999" stroke-width="3" x1="2284.0" x2="2346.0" y1="944.0" y2="857.0" /><line stroke="#999" stroke-width="3" x1="2346.0" x2="2346.0" y1="1057.0" y2="1138.0" /><line stroke="#999" stroke-width="3" x1="2317.0" x2="2346.0" y1="982.0" y2="1057.0" /><line stroke="#999" stroke-width="3" x1="1818.0" x2="1695.0" y1="1693.0" y2="1692.0" /><line stroke="#999" stroke-width="3" x1="1695.0" x2="1485.0" y1="1692.0" y2="1319.0" /><line stroke="#999" stroke-width="3" x1="1485.0" x2="1485.0" y1="1319.0" y2="1244.0" /><line stroke="#999" stroke-width="3" x1="2236.0" x2="1826.0" y1="1247.0" y2="1250.0" /><line stroke="#999" stroke-width="3" x1="1826.0" x2="1485.0" y1="1250.0" y2="1244.0" /><line stroke="#999" stroke-width="3" x1="1813.0" x2="1817.0" y1="553.0" y2="928.0" /><line stroke="#999" stroke-width="3" x1="1789.0" x2="1813.0" y1="477.0" y2="553.0" /><line stroke="#999" stroke-width="3" x1="1682.0" x2="1789.0" y1="477.0" y2="477.0" /><line stroke="#999" stroke-width="3" x1="1468.0" x2="1682.0" y1="880.0" y2="477.0" /><line stroke="#999" stroke-width="3" x1="1466.0" x2="1468.0" y1="927.0" y2="880.0" /><line stroke="#999" stroke-width="3" x1="1466.0" x2="1817.0" y1="927.0" y2="928.0" /><line stroke="#999" stroke-width="3" x1="1399.0" x2="1466.0" y1="927.0" y2="927.0" /><line stroke="#999" stroke-width="3" x1="2462.0" x2="2459.0" y1="1055.0" y2="1139.0" /><line stroke="#999" stroke-width="3" x1="2459.0" x2="2346.0" y1="1139.0" y2="1138.0" /><line stroke="#999" stroke-width="3" x1="2461.0" x2="2462.0" y1="857.0" y2="1055.0" /><line stroke="#999" stroke-width="3" x1="2462.0" x2="2346.0" y1="1055.0" y2="1057.0" /><line stroke="#999" stroke-width="3" x1="2495.0" x2="2462.0" y1="852.0" y2="1055.0" /><line stroke="#999" stroke-width="3" x1="2405.0" x2="2495.0" y1="818.0" y2="852.0" /><line stroke="#999" stroke-width="3" x1="2309.0" x2="2405.0" y1="831.0" y2="818.0" /><line stroke="#999" stroke-width="3" x1="2284.0" x2="2309.0" y1="944.0" y2="831.0" /><line stroke="#999" stroke-width="3" x1="2462.0" x2="2494.0" y1="1055.0" y2="1098.0" /><line stroke="#999" stroke-width="3" x1="2494.0" x2="2459.0" y1="1098.0" y2="1139.0" /><line stroke="#999" stroke-width="3" x1="2459.0" x2="2493.0" y1="1139.0" y2="1337.0" /><line stroke="#999" stroke-width="3" x1="2493.0" x2="2393.0" y1="1337.0" y2="1362.0" /><line stroke="#999" stroke-width="3" x1="2393.0" x2="2310.0" y1="1362.0" y2="1327.0" /><line stroke="#999" stroke-width="3" x1="2310.0" x2="2281.0" y1="1327.0" y2="1234.0" /><line stroke="#999" stroke-width="3" x1="2346.0" x2="2461.0" y1="857.0" y2="857.0" /><line stroke="#999" stroke-width="3" x1="1428.0" x2="1622.0" y1="754.0" y2="360.0" /><line stroke="#999" stroke-width="3" x1="1622.0" x2="1896.0" y1="360.0" y2="362.0" /><line stroke="#999" stroke-width="3" x1="1896.0" x2="1817.0" y1="362.0" y2="928.0" /><line stroke="#999" stroke-width="3" x1="1466.0" x2="1428.0" y1="927.0" y2="754.0" /><line stroke="#999" stroke-width="3" x1="1826.0" x2="1931.0" y1="1250.0" y2="1662.0" /><line stroke="#999" stroke-width="3" x1="1931.0" x2="1740.0" y1="1662.0" y2="1778.0" /><line stroke="#999" stroke-width="3" x1="1740.0" x2="1564.0" y1="1778.0" y2="1722.0" /><line stroke="#999" stroke-width="3" x1="1564.0" x2="1414.0" y1="1722.0" y2="1315.0" /><line stroke="#999" stroke-width="3" x1="1414.0" x2="1485.0" y1="1315.0" y2="1244.0" /><line stroke="#999" stroke-width="3" x1="1826.0" x2="1818.0" y1="1250.0" y2="1693.0" /><line stroke="#333" stroke-width="10" x1="1220.0" x2="1193.0" y1="1100.0" y2="1100.0" /><line stroke="#333" stroke-width="10" x1="1193.0" x2="1193.0" y1="1100.0" y2="1085.0" /><line stroke="#333" stroke-width="10" x1="1193.0" x2="1220.0" y1="1085.0" y2="1085.0" /><line stroke="#333" stroke-width="10" x1="1220.0" x2="1220.0" y1="1085.0" y2="1100.0" /><line stroke="#333" stroke-width="10" x1="2030.0" x2="2030.0" y1="1167.0" y2="1184.0" /><line stroke="#333" stroke-width="10" x1="1990.0" x2="2030.0" y1="1167.0" y2="1167.0" /><line stroke="#333" stroke-width="10" x1="1991.0" x2="1990.0" y1="1186.0" y2="1167.0" /><line stroke="#333" stroke-width="10" x1="2030.0" x2="1991.0" y1="1184.0" y2="1186.0" /><line stroke="#333" stroke-width="10" x1="2023.0" x2="2023.0" y1="990.0" y2="1011.0" /><line stroke="#333" stroke-width="10" x1="1987.0" x2="2023.0" y1="990.0" y2="990.0" /><line stroke="#333" stroke-width="10" x1="1987.0" x2="1987.0" y1="1010.0" y2="990.0" /><line stroke="#333" stroke-width="10" x1="2023.0" x2="1987.0" y1="1011.0" y2="1010.0" /><line stroke="#999" stroke-width="3" x1="1389.0" x2="1389.0" y1="906.0" y2="927.0" /><line stroke="#999" stroke-width="3" x1="1300.0" x2="1389.0" y1="799.0" y2="799.0" /><line stroke="#999" stroke-width="3" x1="1300.0" x2="1300.0" y1="823.0" y2="799.0" /><line stroke="#999" stroke-width="3" x1="1300.0" x2="1389.0" y1="927.0" y2="927.0" /><line stroke="#999" stroke-width="3" x1="1287.0" x2="1300.0" y1="928.0" y2="927.0" /><line stroke="#999" stroke-width="3" x1="1389.0" x2="1399.0" y1="927.0" y2="927.0" /><line stroke="#999" stroke-width="3" x1="1399.0" x2="1399.0" y1="906.0" y2="927.0" /><line stroke="#999" stroke-width="3" x1="1389.0" x2="1398.0" y1="799.0" y2="799.0" /><line stroke="#999" stroke-width="3" x1="1212.0" x2="1287.0" y1="927.0" y2="928.0" /><line stroke="#999" stroke-width="3" x1="1287.0" x2="1287.0" y1="905.0" y2="928.0" /><line stroke="#999" stroke-width="3" x1="1389.0" x2="1389.0" y1="799.0" y2="823.0" /><line stroke="#999" stroke-width="3" x1="1300.0" x2="1300.0" y1="854.0" y2="823.0" /><line stroke="#999" stroke-width="3" x1="1300.0" x2="1389.0" y1="823.0" y2="823.0" /><line stroke="#999" stroke-width="3" x1="1389.0" x2="1389.0" y1="823.0" y2="853.0" /><line stroke="#999" stroke-width="3" x1="1300.0" x2="1300.0" y1="881.0" y2="854.0" /><line stroke="#999" stroke-width="3" x1="1300.0" x2="1389.0" y1="854.0" y2="853.0" /><line stroke="#999" stroke-width="3" x1="1389.0" x2="1389.0" y1="853.0" y2="882.0" /><line stroke="#999" stroke-width="3" x1="1300.0" x2="1300.0" y1="905.0" y2="881.0" /><line stroke="#999" stroke-width="3" x1="1300.0" x2="1389.0" y1="881.0" y2="882.0" /><line stroke="#999" stroke-width="3" x1="1389.0" x2="1389.0" y1="882.0" y2="906.0" /><line stroke="#999" stroke-width="3" x1="1300.0" x2="1300.0" y1="927.0" y2="905.0" /><line stroke="#999" stroke-width="3" x1="1300.0" x2="1389.0" y1="905.0" y2="906.0" /><line stroke="#999" stroke-width="3" x1="1398.0" x2="1398.0" y1="799.0" y2="823.0" /><line stroke="#999" stroke-width="3" x1="1389.0" x2="1398.0" y1="823.0" y2="823.0" /><line stroke="#999" stroke-width="3" x1="1398.0" x2="1399.0" y1="823.0" y2="853.0" /><line stroke="#999" stroke-width="3" x1="1389.0" x2="1399.0" y1="853.0" y2="853.0" /><line stroke="#999" stroke-width="3" x1="1399.0" x2="1400.0" y1="853.0" y2="882.0" /><line stroke="#999" stroke-width="3" x1="1389.0" x2="1400.0" y1="882.0" y2="882.0" /><line stroke="#999" stroke-width="3" x1="1400.0" x2="1399.0" y1="882.0" y2="906.0" /><line stroke="#999" stroke-width="3" x1="1389.0" x2="1399.0" y1="906.0" y2="906.0" /><line stroke="#999" stroke-width="3" x1="1287.0" x2="1287.0" y1="881.0" y2="905.0" /><line stroke="#999" stroke-width="3" x1="1287.0" x2="1300.0" y1="905.0" y2="905.0" /><line stroke="#999" stroke-width="3" x1="1287.0" x2="1287.0" y1="854.0" y2="881.0" /><line stroke="#999" stroke-width="3" x1="1287.0" x2="1300.0" y1="881.0" y2="881.0" /><line stroke="#999" stroke-width="3" x1="1287.0" x2="1287.0" y1="823.0" y2="854.0" /><line stroke="#999" stroke-width="3" x1="1287.0" x2="1300.0" y1="854.0" y2="854.0" /><line stroke="#999" stroke-width="3" x1="1287.0" x2="1300.0" y1="823.0" y2="823.0" /><line stroke="#999" stroke-width="3" x1="1389.0" x2="1393.0" y1="927.0" y2="947.0" /><line stroke="#999" stroke-width="3" x1="1302.0" x2="1300.0" y1="947.0" y2="927.0" /><line stroke="#999" stroke-width="3" x1="1393.0" x2="1393.0" y1="966.0" y2="947.0" /><line stroke="#999" stroke-width="3" x1="1210.0" x2="1302.0" y1="947.0" y2="947.0" /><line stroke="#999" stroke-width="3" x1="1301.0" x2="1393.0" y1="966.0" y2="966.0" /><line stroke="#999" stroke-width="3" x1="1302.0" x2="1301.0" y1="947.0" y2="966.0" /><line stroke="#999" stroke-width="3" x1="1242.0" x2="1301.0" y1="966.0" y2="966.0" /><line stroke="#333" stroke-width="10" x1="2698.0" x2="2559.0" y1="28.0" y2="25.0" /><line stroke="#333" stroke-width="10" x1="2559.0" x2="5.0" y1="25.0" y2="5.0" /><line stroke="#333" stroke-width="10" x1="3713.0" x2="3712.0" y1="2070.0" y2="2077.0" /><line stroke="#666" stroke-width="20" x1="3804.0" x2="3712.0" y1="2079.0" y2="2077.0" /><line stroke="#333" stroke-width="10" x1="3804.0" x2="3805.0" y1="2079.0" y2="2070.0" /><line stroke="#333" stroke-width="10" x1="3712.0" x2="3669.0" y1="2077.0" y2="2079.0" /><line stroke="#333" stroke-width="10" x1="3669.0" x2="3646.0" y1="2079.0" y2="2034.0" /><line stroke="#333" stroke-width="10" x1="3646.0" x2="3562.0" y1="2034.0" y2="2034.0" /><line stroke="#333" stroke-width="10" x1="2880.0" x2="2829.0" y1="2034.0" y2="2073.0" /><line stroke="#333" stroke-width="10" x1="2821.0" x2="2821.0" y1="2079.0" y2="2105.0" /><line stroke="#333" stroke-width="10" x1="2821.0" x2="2892.0" y1="2291.0" y2="2326.0" /><line stroke="#333" stroke-width="10" x1="2892.0" x2="2927.0" y1="2326.0" y2="2326.0" /><line stroke="#333" stroke-width="10" x1="3615.0" x2="3652.0" y1="2322.0" y2="2279.0" /><line stroke="#333" stroke-width="10" x1="3652.0" x2="3748.0" y1="2279.0" y2="2279.0" /><line stroke="#333" stroke-width="10" x1="3844.0" x2="3843.0" y1="2279.0" y2="2204.0" /><line stroke="#333" stroke-width="10" x1="3844.0" x2="3804.0" y1="2077.0" y2="2079.0" /><line stroke="#333" stroke-width="10" x1="3843.0" x2="3857.0" y1="2204.0" y2="2204.0" /><line stroke="#666" stroke-width="20" x1="3857.0" x2="3857.0" y1="2140.0" y2="2204.0" /><line stroke="#333" stroke-width="10" x1="3857.0" x2="3844.0" y1="2140.0" y2="2140.0" /><line stroke="#666" stroke-width="20" x1="3843.0" x2="3844.0" y1="2204.0" y2="2140.0" /><line stroke="#333" stroke-width="10" x1="3844.0" x2="3844.0" y1="2140.0" y2="2077.0" /><line stroke="#333" stroke-width="10" x1="3857.0" x2="3857.0" y1="2204.0" y2="2268.0" /><line stroke="#333" stroke-width="10" x1="3858.0" x2="3935.0" y1="2280.0" y2="2314.0" /><line stroke="#333" stroke-width="10" x1="3935.0" x2="3996.0" y1="2314.0" y2="2292.0" /><line stroke="#333" stroke-width="10" x1="4022.0" x2="4014.0" y1="2067.0" y2="2074.0" /><line stroke="#333" stroke-width="10" x1="3929.0" x2="3857.0" y1="2042.0" y2="2076.0" /><line stroke="#333" stroke-width="10" x1="3857.0" x2="3857.0" y1="2076.0" y2="2140.0" /><line stroke="#333" stroke-width="10" x1="4014.0" x2="3990.0" y1="2074.0" y2="2064.0" /><line stroke="#333" stroke-width="10" x1="4017.0" x2="4025.0" y1="2285.0" y2="2294.0" /><line stroke="#0d0" stroke-width="20" x1="4017.0" x2="4092.0" y1="2285.0" y2="2219.0" /><line stroke="#0d0" stroke-width="20" x1="4092.0" x2="4093.0" y1="2219.0" y2="2149.0" /><line stroke="#0d0" stroke-width="20" x1="4093.0" x2="4014.0" y1="2149.0" y2="2074.0" /><line stroke="#999" stroke-width="3" x1="3969.0" x2="4013.0" y1="2252.0" y2="2252.0" /><line stroke="#999" stroke-width="3" x1="4013.0" x2="4013.0" y1="2252.0" y2="2207.0" /><line stroke="#999" stroke-width="3" x1="4013.0" x2="3969.0" y1="2207.0" y2="2207.0" /><line stroke="#999" stroke-width="3" x1="3969.0" x2="3969.0" y1="2207.0" y2="2252.0" /><line stroke="#999" stroke-width="3" x1="4013.0" x2="4013.0" y1="2252.0" y2="2259.0" /><line stroke="#999" stroke-width="3" x1="4013.0" x2="3961.0" y1="2259.0" y2="2259.0" /><line stroke="#999" stroke-width="3" x1="3961.0" x2="3961.0" y1="2259.0" y2="2251.0" /><line stroke="#999" stroke-width="3" x1="3961.0" x2="3969.0" y1="2251.0" y2="2252.0" /><line stroke="#999" stroke-width="3" x1="3969.0" x2="3962.0" y1="2207.0" y2="2207.0" /><line stroke="#999" stroke-width="3" x1="3962.0" x2="3962.0" y1="2207.0" y2="2199.0" /><line stroke="#999" stroke-width="3" x1="3962.0" x2="4013.0" y1="2199.0" y2="2199.0" /><line stroke="#999" stroke-width="3" x1="4013.0" x2="4013.0" y1="2199.0" y2="2207.0" /><line stroke="#999" stroke-width="3" x1="3961.0" x2="3962.0" y1="2251.0" y2="2207.0" /><line stroke="#999" stroke-width="3" x1="3968.0" x2="4013.0" y1="2147.0" y2="2147.0" /><line stroke="#999" stroke-width="3" x1="4013.0" x2="4013.0" y1="2147.0" y2="2103.0" /><line stroke="#999" stroke-width="3" x1="4013.0" x2="3968.0" y1="2103.0" y2="2103.0" /><line stroke="#999" stroke-width="3" x1="3968.0" x2="3968.0" y1="2103.0" y2="2147.0" /><line stroke="#999" stroke-width="3" x1="4013.0" x2="4013.0" y1="2147.0" y2="2154.0" /><line stroke="#999" stroke-width="3" x1="4013.0" x2="3960.0" y1="2154.0" y2="2154.0" /><line stroke="#999" stroke-width="3" x1="3960.0" x2="3960.0" y1="2154.0" y2="2146.0" /><line stroke="#999" stroke-width="3" x1="3960.0" x2="3968.0" y1="2146.0" y2="2147.0" /><line stroke="#999" stroke-width="3" x1="3968.0" x2="3961.0" y1="2103.0" y2="2103.0" /><line stroke="#999" stroke-width="3" x1="3961.0" x2="3961.0" y1="2103.0" y2="2095.0" /><line stroke="#999" stroke-width="3" x1="3961.0" x2="4013.0" y1="2095.0" y2="2095.0" /><line stroke="#999" stroke-width="3" x1="4013.0" x2="4013.0" y1="2095.0" y2="2103.0" /><line stroke="#999" stroke-width="3" x1="3960.0" x2="3961.0" y1="2146.0" y2="2103.0" /><line stroke="#333" stroke-width="10" x1="3990.0" x2="3929.0" y1="2064.0" y2="2042.0" /><line stroke="#333" stroke-width="10" x1="3996.0" x2="4017.0" y1="2292.0" y2="2285.0" /><line stroke="#333" stroke-width="10" x1="3857.0" x2="3858.0" y1="2268.0" y2="2280.0" /><line stroke="#333" stroke-width="10" x1="2809.0" x2="2821.0" y1="2279.0" y2="2279.0" /><line stroke="#666" stroke-width="20" x1="2809.0" x2="2809.0" y1="2279.0" y2="2215.0" /><line stroke="#333" stroke-width="10" x1="2821.0" x2="2809.0" y1="2215.0" y2="2215.0" /><line stroke="#333" stroke-width="10" x1="2821.0" x2="2821.0" y1="2279.0" y2="2291.0" /><line stroke="#666" stroke-width="20" x1="2821.0" x2="2821.0" y1="2215.0" y2="2279.0" /><line stroke="#333" stroke-width="10" x1="2809.0" x2="2809.0" y1="2317.0" y2="2279.0" /><line stroke="#333" stroke-width="10" x1="2663.0" x2="2809.0" y1="2317.0" y2="2317.0" /><line stroke="#333" stroke-width="10" x1="2664.0" x2="2663.0" y1="2198.0" y2="2317.0" /><line stroke="#333" stroke-width="10" x1="2809.0" x2="2664.0" y1="2198.0" y2="2198.0" /><line stroke="#333" stroke-width="10" x1="2809.0" x2="2809.0" y1="2215.0" y2="2198.0" /><line stroke="#333" stroke-width="10" x1="2811.0" x2="2821.0" y1="2169.0" y2="2169.0" /><line stroke="#666" stroke-width="20" x1="2811.0" x2="2811.0" y1="2169.0" y2="2105.0" /><line stroke="#333" stroke-width="10" x1="2821.0" x2="2811.0" y1="2105.0" y2="2105.0" /><line stroke="#333" stroke-width="10" x1="2821.0" x2="2821.0" y1="2169.0" y2="2215.0" /><line stroke="#666" stroke-width="20" x1="2821.0" x2="2821.0" y1="2105.0" y2="2169.0" /><line stroke="#333" stroke-width="10" x1="2811.0" x2="2811.0" y1="2187.0" y2="2169.0" /><line stroke="#333" stroke-width="10" x1="2664.0" x2="2811.0" y1="2187.0" y2="2187.0" /><line stroke="#333" stroke-width="10" x1="2664.0" x2="2664.0" y1="2055.0" y2="2187.0" /><line stroke="#333" stroke-width="10" x1="2812.0" x2="2739.0" y1="2056.0" y2="2056.0" /><line stroke="#333" stroke-width="10" x1="2811.0" x2="2812.0" y1="2105.0" y2="2056.0" /><line stroke="#999" stroke-width="3" x1="2669.0" x2="2669.0" y1="2310.0" y2="2257.0" /><line stroke="#999" stroke-width="3" x1="2669.0" x2="2685.0" y1="2257.0" y2="2257.0" /><line stroke="#999" stroke-width="3" x1="2685.0" x2="2685.0" y1="2257.0" y2="2310.0" /><line stroke="#999" stroke-width="3" x1="2685.0" x2="2669.0" y1="2310.0" y2="2310.0" /><line stroke="#999" stroke-width="3" x1="2736.0" x2="2685.0" y1="2310.0" y2="2310.0" /><line stroke="#999" stroke-width="3" x1="2748.0" x2="2736.0" y1="2302.0" y2="2310.0" /><line stroke="#999" stroke-width="3" x1="2748.0" x2="2748.0" y1="2266.0" y2="2302.0" /><line stroke="#999" stroke-width="3" x1="2740.0" x2="2748.0" y1="2257.0" y2="2266.0" /><line stroke="#999" stroke-width="3" x1="2685.0" x2="2740.0" y1="2257.0" y2="2257.0" /><line stroke="#999" stroke-width="3" x1="2736.0" x2="2690.0" y1="2304.0" y2="2304.0" /><line stroke="#999" stroke-width="3" x1="2743.0" x2="2736.0" y1="2299.0" y2="2304.0" /><line stroke="#999" stroke-width="3" x1="2743.0" x2="2743.0" y1="2269.0" y2="2299.0" /><line stroke="#999" stroke-width="3" x1="2738.0" x2="2743.0" y1="2263.0" y2="2269.0" /><line stroke="#999" stroke-width="3" x1="2690.0" x2="2738.0" y1="2263.0" y2="2263.0" /><line stroke="#999" stroke-width="3" x1="2690.0" x2="2690.0" y1="2304.0" y2="2263.0" /><line stroke="#999" stroke-width="3" x1="2927.0" x2="2927.0" y1="2326.0" y2="2226.0" /><line stroke="#999" stroke-width="3" x1="2927.0" x2="2941.0" y1="2226.0" y2="2226.0" /><line stroke="#999" stroke-width="3" x1="2998.0" x2="2998.0" y1="2228.0" y2="2242.0" /><line stroke="#333" stroke-width="10" x1="2927.0" x2="2943.0" y1="2326.0" y2="2328.0" /><line stroke="#333" stroke-width="10" x1="3000.0" x2="3047.0" y1="2328.0" y2="2328.0" /><line stroke="#999" stroke-width="3" x1="3047.0" x2="3047.0" y1="2328.0" y2="2226.0" /><line stroke="#999" stroke-width="3" x1="3047.0" x2="3062.0" y1="2226.0" y2="2225.0" /><line stroke="#999" stroke-width="3" x1="3119.0" x2="3118.0" y1="2228.0" y2="2242.0" /><line stroke="#333" stroke-width="10" x1="3047.0" x2="3061.0" y1="2328.0" y2="2328.0" /><line stroke="#333" stroke-width="10" x1="3119.0" x2="3168.0" y1="2328.0" y2="2328.0" /><line stroke="#999" stroke-width="3" x1="3168.0" x2="3168.0" y1="2328.0" y2="2226.0" /><line stroke="#999" stroke-width="3" x1="3168.0" x2="3184.0" y1="2226.0" y2="2226.0" /><line stroke="#999" stroke-width="3" x1="3235.0" x2="3236.0" y1="2228.0" y2="2242.0" /><line stroke="#333" stroke-width="10" x1="3168.0" x2="3183.0" y1="2328.0" y2="2328.0" /><line stroke="#333" stroke-width="10" x1="3235.0" x2="3283.0" y1="2328.0" y2="2328.0" /><line stroke="#999" stroke-width="3" x1="3283.0" x2="3281.0" y1="2328.0" y2="2228.0" /><line stroke="#999" stroke-width="3" x1="3281.0" x2="3295.0" y1="2228.0" y2="2229.0" /><line stroke="#999" stroke-width="3" x1="3350.0" x2="3350.0" y1="2228.0" y2="2242.0" /><line stroke="#333" stroke-width="10" x1="3283.0" x2="3297.0" y1="2328.0" y2="2329.0" /><line stroke="#333" stroke-width="10" x1="3350.0" x2="3401.0" y1="2326.0" y2="2326.0" /><line stroke="#999" stroke-width="3" x1="3401.0" x2="3401.0" y1="2326.0" y2="2226.0" /><line stroke="#999" stroke-width="3" x1="3401.0" x2="3416.0" y1="2226.0" y2="2228.0" /><line stroke="#999" stroke-width="3" x1="3463.0" x2="3463.0" y1="2226.0" y2="2242.0" /><line stroke="#333" stroke-width="10" x1="3401.0" x2="3416.0" y1="2326.0" y2="2326.0" /><line stroke="#333" stroke-width="10" x1="3463.0" x2="3506.0" y1="2326.0" y2="2324.0" /><line stroke="#999" stroke-width="3" x1="3506.0" x2="3506.0" y1="2324.0" y2="2230.0" /><line stroke="#999" stroke-width="3" x1="3506.0" x2="3517.0" y1="2230.0" y2="2232.0" /><line stroke="#999" stroke-width="3" x1="3565.0" x2="3563.0" y1="2230.0" y2="2245.0" /><line stroke="#333" stroke-width="10" x1="3506.0" x2="3517.0" y1="2324.0" y2="2326.0" /><line stroke="#333" stroke-width="10" x1="3567.0" x2="3615.0" y1="2324.0" y2="2322.0" /><line stroke="#999" stroke-width="3" x1="2927.0" x2="2929.0" y1="2130.0" y2="2034.0" /><line stroke="#999" stroke-width="3" x1="2994.0" x2="2941.0" y1="2132.0" y2="2132.0" /><line stroke="#999" stroke-width="3" x1="2992.0" x2="2993.0" y1="2034.0" y2="2118.0" /><line stroke="#333" stroke-width="10" x1="2929.0" x2="2880.0" y1="2034.0" y2="2034.0" /><line stroke="#333" stroke-width="10" x1="2992.0" x2="2943.0" y1="2034.0" y2="2034.0" /><line stroke="#999" stroke-width="3" x1="3045.0" x2="3045.0" y1="2136.0" y2="2085.0" /><line stroke="#999" stroke-width="3" x1="3115.0" x2="3059.0" y1="2136.0" y2="2138.0" /><line stroke="#999" stroke-width="3" x1="3113.0" x2="3114.0" y1="2034.0" y2="2123.0" /><line stroke="#333" stroke-width="10" x1="3044.0" x2="2992.0" y1="2034.0" y2="2034.0" /><line stroke="#333" stroke-width="10" x1="3113.0" x2="3061.0" y1="2034.0" y2="2034.0" /><line stroke="#999" stroke-width="3" x1="3164.0" x2="3166.0" y1="2130.0" y2="2034.0" /><line stroke="#999" stroke-width="3" x1="3236.0" x2="3178.0" y1="2132.0" y2="2132.0" /><line stroke="#999" stroke-width="3" x1="3238.0" x2="3236.0" y1="2034.0" y2="2118.0" /><line stroke="#333" stroke-width="10" x1="3166.0" x2="3113.0" y1="2034.0" y2="2034.0" /><line stroke="#333" stroke-width="10" x1="3238.0" x2="3180.0" y1="2034.0" y2="2034.0" /><line stroke="#999" stroke-width="3" x1="3283.0" x2="3280.0" y1="2132.0" y2="2034.0" /><line stroke="#999" stroke-width="3" x1="3348.0" x2="3295.0" y1="2130.0" y2="2132.0" /><line stroke="#999" stroke-width="3" x1="3346.0" x2="3348.0" y1="2034.0" y2="2118.0" /><line stroke="#333" stroke-width="10" x1="3280.0" x2="3238.0" y1="2034.0" y2="2034.0" /><line stroke="#333" stroke-width="10" x1="3346.0" x2="3297.0" y1="2034.0" y2="2034.0" /><line stroke="#999" stroke-width="3" x1="3397.0" x2="3397.0" y1="2128.0" y2="2034.0" /><line stroke="#999" stroke-width="3" x1="3458.0" x2="3409.0" y1="2128.0" y2="2128.0" /><line stroke="#999" stroke-width="3" x1="3458.0" x2="3456.0" y1="2033.0" y2="2114.0" /><line stroke="#333" stroke-width="10" x1="3397.0" x2="3346.0" y1="2034.0" y2="2034.0" /><line stroke="#333" stroke-width="10" x1="3458.0" x2="3409.0" y1="2033.0" y2="2034.0" /><line stroke="#999" stroke-width="3" x1="3506.0" x2="3506.0" y1="2124.0" y2="2033.0" /><line stroke="#999" stroke-width="3" x1="3569.0" x2="3519.0" y1="2124.0" y2="2126.0" /><line stroke="#999" stroke-width="3" x1="3562.0" x2="3569.0" y1="2034.0" y2="2111.0" /><line stroke="#333" stroke-width="10" x1="3506.0" x2="3458.0" y1="2033.0" y2="2033.0" /><line stroke="#333" stroke-width="10" x1="3562.0" x2="3520.0" y1="2034.0" y2="2034.0" /><line stroke="#333" stroke-width="10" x1="2943.0" x2="3000.0" y1="2328.0" y2="2328.0" /><line stroke="#999" stroke-width="3" x1="2941.0" x2="2998.0" y1="2226.0" y2="2228.0" /><line stroke="#999" stroke-width="3" x1="2943.0" x2="2943.0" y1="2328.0" y2="2240.0" /><line stroke="#999" stroke-width="3" x1="2941.0" x2="2927.0" y1="2132.0" y2="2130.0" /><line stroke="#333" stroke-width="10" x1="2943.0" x2="2929.0" y1="2034.0" y2="2034.0" /><line stroke="#999" stroke-width="3" x1="2941.0" x2="2943.0" y1="2132.0" y2="2118.0" /><line stroke="#999" stroke-width="3" x1="3059.0" x2="3045.0" y1="2138.0" y2="2136.0" /><line stroke="#333" stroke-width="10" x1="3061.0" x2="3044.0" y1="2034.0" y2="2034.0" /><line stroke="#999" stroke-width="3" x1="3059.0" x2="3060.0" y1="2138.0" y2="2123.0" /><line stroke="#999" stroke-width="3" x1="3178.0" x2="3164.0" y1="2132.0" y2="2130.0" /><line stroke="#333" stroke-width="10" x1="3180.0" x2="3166.0" y1="2034.0" y2="2034.0" /><line stroke="#999" stroke-width="3" x1="3178.0" x2="3178.0" y1="2132.0" y2="2118.0" /><line stroke="#999" stroke-width="3" x1="3295.0" x2="3283.0" y1="2132.0" y2="2132.0" /><line stroke="#333" stroke-width="10" x1="3297.0" x2="3280.0" y1="2034.0" y2="2034.0" /><line stroke="#999" stroke-width="3" x1="3295.0" x2="3295.0" y1="2132.0" y2="2118.0" /><line stroke="#333" stroke-width="10" x1="3061.0" x2="3119.0" y1="2328.0" y2="2328.0" /><line stroke="#999" stroke-width="3" x1="3062.0" x2="3119.0" y1="2225.0" y2="2228.0" /><line stroke="#999" stroke-width="3" x1="3061.0" x2="3060.0" y1="2328.0" y2="2242.0" /><line stroke="#333" stroke-width="10" x1="3183.0" x2="3235.0" y1="2328.0" y2="2328.0" /><line stroke="#999" stroke-width="3" x1="3184.0" x2="3235.0" y1="2226.0" y2="2228.0" /><line stroke="#999" stroke-width="3" x1="3183.0" x2="3184.0" y1="2328.0" y2="2242.0" /><line stroke="#999" stroke-width="3" x1="3409.0" x2="3397.0" y1="2128.0" y2="2128.0" /><line stroke="#333" stroke-width="10" x1="3409.0" x2="3397.0" y1="2034.0" y2="2034.0" /><line stroke="#999" stroke-width="3" x1="3409.0" x2="3408.0" y1="2128.0" y2="2115.0" /><line stroke="#999" stroke-width="3" x1="3519.0" x2="3506.0" y1="2126.0" y2="2124.0" /><line stroke="#333" stroke-width="10" x1="3520.0" x2="3506.0" y1="2034.0" y2="2033.0" /><line stroke="#999" stroke-width="3" x1="3519.0" x2="3520.0" y1="2126.0" y2="2111.0" /><line stroke="#333" stroke-width="10" x1="3297.0" x2="3350.0" y1="2329.0" y2="2326.0" /><line stroke="#999" stroke-width="3" x1="3295.0" x2="3350.0" y1="2229.0" y2="2228.0" /><line stroke="#999" stroke-width="3" x1="3297.0" x2="3297.0" y1="2329.0" y2="2242.0" /><line stroke="#333" stroke-width="10" x1="3416.0" x2="3463.0" y1="2326.0" y2="2326.0" /><line stroke="#999" stroke-width="3" x1="3416.0" x2="3463.0" y1="2228.0" y2="2226.0" /><line stroke="#999" stroke-width="3" x1="3416.0" x2="3416.0" y1="2326.0" y2="2240.0" /><line stroke="#333" stroke-width="10" x1="3517.0" x2="3567.0" y1="2326.0" y2="2324.0" /><line stroke="#999" stroke-width="3" x1="3517.0" x2="3565.0" y1="2232.0" y2="2230.0" /><line stroke="#999" stroke-width="3" x1="3517.0" x2="3516.0" y1="2326.0" y2="2245.0" /><line stroke="#999" stroke-width="3" x1="2943.0" x2="2943.0" y1="2118.0" y2="2034.0" /><line stroke="#999" stroke-width="3" x1="2993.0" x2="2994.0" y1="2118.0" y2="2132.0" /><line stroke="#999" stroke-width="3" x1="2943.0" x2="2993.0" y1="2118.0" y2="2118.0" /><line stroke="#999" stroke-width="3" x1="3060.0" x2="3061.0" y1="2123.0" y2="2034.0" /><line stroke="#999" stroke-width="3" x1="3114.0" x2="3115.0" y1="2123.0" y2="2136.0" /><line stroke="#999" stroke-width="3" x1="3060.0" x2="3114.0" y1="2123.0" y2="2123.0" /><line stroke="#999" stroke-width="3" x1="3178.0" x2="3180.0" y1="2118.0" y2="2034.0" /><line stroke="#999" stroke-width="3" x1="3236.0" x2="3236.0" y1="2118.0" y2="2132.0" /><line stroke="#999" stroke-width="3" x1="3178.0" x2="3236.0" y1="2118.0" y2="2118.0" /><line stroke="#999" stroke-width="3" x1="3295.0" x2="3297.0" y1="2118.0" y2="2034.0" /><line stroke="#999" stroke-width="3" x1="3348.0" x2="3348.0" y1="2118.0" y2="2130.0" /><line stroke="#999" stroke-width="3" x1="3295.0" x2="3348.0" y1="2118.0" y2="2118.0" /><line stroke="#999" stroke-width="3" x1="3408.0" x2="3409.0" y1="2115.0" y2="2034.0" /><line stroke="#999" stroke-width="3" x1="3456.0" x2="3458.0" y1="2114.0" y2="2128.0" /><line stroke="#999" stroke-width="3" x1="3408.0" x2="3456.0" y1="2115.0" y2="2114.0" /><line stroke="#999" stroke-width="3" x1="3520.0" x2="3520.0" y1="2111.0" y2="2034.0" /><line stroke="#999" stroke-width="3" x1="3569.0" x2="3569.0" y1="2111.0" y2="2124.0" /><line stroke="#999" stroke-width="3" x1="3520.0" x2="3569.0" y1="2111.0" y2="2111.0" /><line stroke="#999" stroke-width="3" x1="3516.0" x2="3517.0" y1="2245.0" y2="2232.0" /><line stroke="#999" stroke-width="3" x1="3563.0" x2="3567.0" y1="2245.0" y2="2324.0" /><line stroke="#999" stroke-width="3" x1="3516.0" x2="3563.0" y1="2245.0" y2="2245.0" /><line stroke="#999" stroke-width="3" x1="3416.0" x2="3416.0" y1="2240.0" y2="2228.0" /><line stroke="#999" stroke-width="3" x1="3463.0" x2="3463.0" y1="2242.0" y2="2326.0" /><line stroke="#999" stroke-width="3" x1="3416.0" x2="3463.0" y1="2240.0" y2="2242.0" /><line stroke="#999" stroke-width="3" x1="3297.0" x2="3295.0" y1="2242.0" y2="2229.0" /><line stroke="#999" stroke-width="3" x1="3350.0" x2="3350.0" y1="2242.0" y2="2326.0" /><line stroke="#999" stroke-width="3" x1="3297.0" x2="3350.0" y1="2242.0" y2="2242.0" /><line stroke="#999" stroke-width="3" x1="3184.0" x2="3184.0" y1="2242.0" y2="2226.0" /><line stroke="#999" stroke-width="3" x1="3236.0" x2="3235.0" y1="2242.0" y2="2328.0" /><line stroke="#999" stroke-width="3" x1="3184.0" x2="3236.0" y1="2242.0" y2="2242.0" /><line stroke="#999" stroke-width="3" x1="3060.0" x2="3062.0" y1="2242.0" y2="2225.0" /><line stroke="#999" stroke-width="3" x1="3118.0" x2="3119.0" y1="2242.0" y2="2328.0" /><line stroke="#999" stroke-width="3" x1="3060.0" x2="3118.0" y1="2242.0" y2="2242.0" /><line stroke="#999" stroke-width="3" x1="2943.0" x2="2941.0" y1="2240.0" y2="2226.0" /><line stroke="#999" stroke-width="3" x1="2998.0" x2="3000.0" y1="2242.0" y2="2328.0" /><line stroke="#999" stroke-width="3" x1="2943.0" x2="2998.0" y1="2240.0" y2="2242.0" /><line stroke="#999" stroke-width="3" x1="3736.0" x2="3736.0" y1="2101.0" y2="2092.0" /><line stroke="#999" stroke-width="3" x1="3736.0" x2="3768.0" y1="2092.0" y2="2092.0" /><line stroke="#999" stroke-width="3" x1="3768.0" x2="3768.0" y1="2092.0" y2="2101.0" /><line stroke="#999" stroke-width="3" x1="3768.0" x2="3736.0" y1="2101.0" y2="2101.0" /><line stroke="#333" stroke-width="10" x1="2675.0" x2="2675.0" y1="2041.0" y2="2055.0" /><line stroke="#666" stroke-width="20" x1="2675.0" x2="2739.0" y1="2041.0" y2="2042.0" /><line stroke="#333" stroke-width="10" x1="2739.0" x2="2739.0" y1="2056.0" y2="2042.0" /><line stroke="#333" stroke-width="10" x1="2675.0" x2="2664.0" y1="2055.0" y2="2055.0" /><line stroke="#666" stroke-width="20" x1="2739.0" x2="2675.0" y1="2056.0" y2="2055.0" /><line stroke="#333" stroke-width="10" x1="2651.0" x2="2675.0" y1="2041.0" y2="2041.0" /><line stroke="#333" stroke-width="10" x1="2651.0" x2="2651.0" y1="1961.0" y2="2041.0" /><line stroke="#333" stroke-width="10" x1="2783.0" x2="2651.0" y1="1961.0" y2="1961.0" /><line stroke="#333" stroke-width="10" x1="2782.0" x2="2783.0" y1="2043.0" y2="1961.0" /><line stroke="#333" stroke-width="10" x1="2739.0" x2="2782.0" y1="2042.0" y2="2043.0" /><line stroke="#333" stroke-width="10" x1="3748.0" x2="3812.0" y1="2279.0" y2="2279.0" /><line stroke="#999" stroke-width="3" x1="3045.0" x2="3044.0" y1="2085.0" y2="2034.0" /><line stroke="#333" stroke-width="10" x1="3812.0" x2="3844.0" y1="2279.0" y2="2279.0" /><line stroke="#333" stroke-width="10" x1="2829.0" x2="2821.0" y1="2073.0" y2="2079.0" /><ellipse cx="3737.0" cy="2047.0" fill="#009" rx="12" ry="24" stroke="#009" stroke-width="5" /><rect fill="#900" height="48" stroke="#900" stroke-width="5" transform="rotate(0,3990.0,2125.0)" width="32" x="3974.0" y="2101.0" /><rect fill="#900" height="48" stroke="#900" stroke-width="5" transform="rotate(0,3991.0,2230.0)" width="32" x="3975.0" y="2206.0" /><circle cx="4064.0" cy="2181.0" fill="#090" r="16" stroke="#090" stroke-width="5" /><circle cx="2699.0" cy="2158.0" fill="#009" r="16" stroke="#009" stroke-width="5" /><circle cx="2699.0" cy="2086.0" fill="#009" r="16" stroke="#009" stroke-width="5" /><circle cx="2755.0" cy="2158.0" fill="#009" r="16" stroke="#009" stroke-width="5" /><circle cx="2755.0" cy="2087.0" fill="#009" r="16" stroke="#009" stroke-width="5" /><circle cx="2737.0" cy="2230.0" fill="#090" r="16" stroke="#090" stroke-width="5" /><rect fill="#900" height="48" stroke="#900" stroke-width="5" transform="rotate(0,2970.0,2296.0)" width="32" x="2954.0" y="2272.0" /><rect fill="#900" height="48" stroke="#900" stroke-width="5" transform="rotate(0,3084.0,2068.0)" width="32" x="3068.0" y="2044.0" /><rect fill="#900" height="48" stroke="#900" stroke-width="5" transform="rotate(0,3087.0,2284.0)" width="32" x="3071.0" y="2260.0" /><rect fill="#900" height="48" stroke="#900" stroke-width="5" transform="rotate(0,3320.0,2299.0)" width="32" x="3304.0" y="2275.0" /><rect fill="#900" height="48" stroke="#900" stroke-width="5" transform="rotate(0,3319.0,2085.0)" width="32" x="3303.0" y="2061.0" /><rect fill="#900" height="48" stroke="#900" stroke-width="5" transform="rotate(0,3433.0,2079.0)" width="32" x="3417.0" y="2055.0" /><rect fill="#900" height="48" stroke="#900" stroke-width="5" transform="rotate(0,3544.0,2076.0)" width="32" x="3528.0" y="2052.0" /><rect fill="#900" height="48" stroke="#900" stroke-width="5" transform="rotate(0,3539.0,2290.0)" width="32" x="3523.0" y="2266.0" /><rect fill="#900" height="48" stroke="#900" stroke-width="5" transform="rotate(180,3787.0,2244.0)" width="32" x="3771.0" y="2220.0" /><rect fill="#900" height="48" stroke="#900" stroke-width="5" transform="rotate(0,2879.0,2176.0)" width="32" x="2863.0" y="2152.0" /><rect fill="#090" height="24" stroke="#090" stroke-width="5" transform="rotate(0,3823.0,1729.0)" width="24" x="3811.0" y="1717.0" /><rect fill="#090" height="24" stroke="#090" stroke-width="5" transform="rotate(0,3567.0,1665.0)" width="24" x="3555.0" y="1653.0" /><ellipse cx="3806.0" cy="2107.0" fill="#009" rx="12" ry="24" stroke="#009" stroke-width="5" /><ellipse cx="3750.0" cy="2107.0" fill="#009" rx="12" ry="24" stroke="#009" stroke-width="5" /><ellipse cx="3700.0" cy="2109.0" fill="#009" rx="12" ry="24" stroke="#009" stroke-width="5" /><rect fill="#090" height="24" stroke="#090" stroke-width="5" transform="rotate(180,3913.0,2173.0)" width="24" x="3901.0" y="2161.0" /><rect fill="#090" height="24" stroke="#090" stroke-width="5" transform="rotate(0,2780.0,2274.0)" width="24" x="2768.0" y="2262.0" /><rect fill="#090" height="24" stroke="#090" stroke-width="5" transform="rotate(0,3285.0,2184.0)" width="24" x="3273.0" y="2172.0" /><rect fill="#090" height="24" stroke="#090" stroke-width="5" transform="rotate(90,2890.0,2091.0)" width="24" x="2878.0" y="2079.0" /><circle cx="3232.0" cy="2184.0" fill="#900" r="16" stroke="#900" stroke-width="5" /><circle cx="3918.0" cy="2262.0" fill="#900" r="16" stroke="#900" stroke-width="5" /><circle cx="2693.0" cy="2230.0" fill="#900" r="16" stroke="#900" stroke-width="5" /><circle cx="3783.0" cy="2047.0" fill="#900" r="16" stroke="#900" stroke-width="5" /><circle cx="2673.0" cy="1985.0" fill="#900" r="16" stroke="#900" stroke-width="5" /><circle cx="2760.0" cy="1985.0" fill="#009" r="16" stroke="#009" stroke-width="5" /><rect fill="#090" height="24" stroke="#090" stroke-width="5" transform="rotate(90,2716.0,1985.0)" width="24" x="2704.0" y="1973.0" /><circle cx="3331.0" cy="2187.0" fill="#900" r="16" stroke="#900" stroke-width="5" /><circle cx="2975.0" cy="2080.0" fill="#009" r="16" stroke="#009" stroke-width="5" /><circle cx="3096.0" cy="2080.0" fill="#009" r="16" stroke="#009" stroke-width="5" /><circle cx="3216.0" cy="2077.0" fill="#009" r="16" stroke="#009" stroke-width="5" /><circle cx="3329.0" cy="2063.0" fill="#009" r="16" stroke="#009" stroke-width="5" /><circle cx="3438.0" cy="2074.0" fill="#009" r="16" stroke="#009" stroke-width="5" /><circle cx="3551.0" cy="2072.0" fill="#009" r="16" stroke="#009" stroke-width="5" /><circle cx="3540.0" cy="2282.0" fill="#009" r="16" stroke="#009" stroke-width="5" /><circle cx="3444.0" cy="2285.0" fill="#009" r="16" stroke="#009" stroke-width="5" /><circle cx="3329.0" cy="2282.0" fill="#009" r="16" stroke="#009" stroke-width="5" /><circle cx="3216.0" cy="2282.0" fill="#009" r="16" stroke="#009" stroke-width="5" /><circle cx="3096.0" cy="2288.0" fill="#009" r="16" stroke="#009" stroke-width="5" /><circle cx="2978.0" cy="2277.0" fill="#009" r="16" stroke="#009" stroke-width="5" /><circle cx="3915.0" cy="2102.0" fill="#090" r="16" stroke="#090" stroke-width="5" /><circle cx="2991.0" cy="2177.0" fill="#090" r="16" stroke="#090" stroke-width="5" /></svg>