<?xml version="1.0" encoding="utf-8" ?>
<svg baseProfile="tiny" height="712" version="1.2" viewBox="0 0 842 586" width="1024" xmlns="http://www.w3.org/2000/svg" xmlns:ev="http://www.w3.org/2001/xml-events" xmlns:xlink="http://www.w3.org/1999/xlink"><defs /><line stroke="#333" stroke-width="10" x1="5.0" x2="5.0" y1="5.0" y2="581.0" /><line stroke="#333" stroke-width="10" x1="69.0" x2="69.0" y1="133.0" y2="5.0" /><line stroke="#0d0" stroke-width="20" x1="69.0" x2="5.0" y1="5.0" y2="5.0" /><line stroke="#333" stroke-width="10" x1="69.0" x2="69.0" y1="517.0" y2="453.0" /><line stroke="#333" stroke-width="10" x1="5.0" x2="581.0" y1="581.0" y2="581.0" /><line stroke="#333" stroke-width="10" x1="133.0" x2="69.0" y1="133.0" y2="133.0" /><line stroke="#333" stroke-width="10" x1="69.0" x2="197.0" y1="453.0" y2="453.0" /><line stroke="#333" stroke-width="10" x1="197.0" x2="69.0" y1="517.0" y2="517.0" /><line stroke="#333" stroke-width="10" x1="133.0" x2="133.0" y1="5.0" y2="133.0" /><line stroke="#333" stroke-width="10" x1="837.0" x2="133.0" y1="5.0" y2="5.0" /><line stroke="#333" stroke-width="10" x1="197.0" x2="197.0" y1="453.0" y2="517.0" /><line stroke="#333" stroke-width="10" x1="325.0" x2="325.0" y1="389.0" y2="133.0" /><line stroke="#333" stroke-width="10" x1="325.0" x2="389.0" y1="133.0" y2="133.0" /><line stroke="#333" stroke-width="10" x1="517.0" x2="325.0" y1="389.0" y2="389.0" /><line stroke="#333" stroke-width="10" x1="389.0" x2="389.0" y1="133.0" y2="325.0" /><line stroke="#333" stroke-width="10" x1="389.0" x2="517.0" y1="325.0" y2="325.0" /><line stroke="#333" stroke-width="10" x1="453.0" x2="453.0" y1="517.0" y2="453.0" /><line stroke="#333" stroke-width="10" x1="453.0" x2="581.0" y1="453.0" y2="453.0" /><line stroke="#333" stroke-width="10" x1="581.0" x2="453.0" y1="517.0" y2="517.0" /><line stroke="#333" stroke-width="10" x1="517.0" x2="517.0" y1="325.0" y2="389.0" /><line stroke="#333" stroke-width="10" x1="581.0" x2="581.0" y1="453.0" y2="325.0" /><line stroke="#333" stroke-width="10" x1="581.0" x2="581.0" y1="581.0" y2="517.0" /><line stroke="#333" stroke-width="10" x1="581.0" x2="645.0" y1="325.0" y2="325.0" /><line stroke="#333" stroke-width="10" x1="709.0" x2="709.0" y1="133.0" y2="69.0" /><line stroke="#333" stroke-width="10" x1="645.0" x2="645.0" y1="325.0" y2="581.0" /><line stroke="#333" stroke-width="10" x1="645.0" x2="837.0" y1="581.0" y2="581.0" /><line stroke="#333" stroke-width="10" x1="709.0" x2="837.0" y1="69.0" y2="69.0" /><line stroke="#333" stroke-width="10" x1="837.0" x2="709.0" y1="133.0" y2="133.0" /><line stroke="#333" stroke-width="10" x1="837.0" x2="837.0" y1="69.0" y2="5.0" /><line stroke="#333" stroke-width="10" x1="837.0" x2="837.0" y1="581.0" y2="133.0" /><circle cx="37.0" cy="101.0" fill="#009" r="16" stroke="#009" stroke-width="5" /><circle cx="37.0" cy="485.0" fill="#009" r="16" stroke="#009" stroke-width="5" /><circle cx="37.0" cy="549.0" fill="#090" r="16" stroke="#090" stroke-width="5" /><rect fill="#900" height="48" stroke="#900" stroke-width="5" transform="rotate(0,101.0,549.0)" width="32" x="85.0" y="525.0" /><circle cx="165.0" cy="37.0" fill="#090" r="16" stroke="#090" stroke-width="5" /><rect fill="#900" height="48" stroke="#900" stroke-width="5" transform="rotate(315,165.0,549.0)" width="32" x="149.0" y="525.0" /><rect fill="#900" height="48" stroke="#900" stroke-width="5" transform="rotate(180,229.0,37.0)" width="32" x="213.0" y="13.0" /><rect fill="#900" height="48" stroke="#900" stroke-width="5" transform="rotate(90,421.0,229.0)" width="32" x="405.0" y="205.0" /><rect fill="#900" height="48" stroke="#900" stroke-width="5" transform="rotate(270,421.0,293.0)" width="32" x="405.0" y="269.0" /><rect fill="#900" height="48" stroke="#900" stroke-width="5" transform="rotate(180,421.0,421.0)" width="32" x="405.0" y="397.0" /><circle cx="485.0" cy="421.0" fill="#009" r="16" stroke="#009" stroke-width="5" /><rect fill="#900" height="48" stroke="#900" stroke-width="5" transform="rotate(180,485.0,549.0)" width="32" x="469.0" y="525.0" /><circle cx="549.0" cy="357.0" fill="#090" r="16" stroke="#090" stroke-width="5" /><rect fill="#900" height="48" stroke="#900" stroke-width="5" transform="rotate(270,549.0,421.0)" width="32" x="533.0" y="397.0" /><circle cx="549.0" cy="549.0" fill="#900" r="16" stroke="#900" stroke-width="5" /><rect fill="#900" height="48" stroke="#900" stroke-width="5" transform="rotate(315,677.0,357.0)" width="32" x="661.0" y="333.0" /><circle cx="677.0" cy="549.0" fill="#090" r="16" stroke="#090" stroke-width="5" /><rect fill="#900" height="48" stroke="#900" stroke-width="5" transform="rotate(135,741.0,37.0)" width="32" x="725.0" y="13.0" /><ellipse cx="805.0" cy="37.0" fill="#009" rx="12" ry="24" stroke="#009" stroke-width="5" /><rect fill="#900" height="48" stroke="#900" stroke-width="5" transform="rotate(135,805.0,165.0)" width="32" x="789.0" y="141.0" /><rect fill="#900" height="48" stroke="#900" stroke-width="5" transform="rotate(135,805.0,293.0)" width="32" x="789.0" y="269.0" /><ellipse cx="805.0" cy="549.0" fill="#900" rx="12" ry="24" stroke="#900" stroke-width="5" /><ellipse cx="29.0" cy="293.0" fill="#009" rx="12" ry="24" stroke="#009" stroke-width="5" /><ellipse cx="229.0" cy="493.0" fill="#009" rx="12" ry="24" stroke="#009" stroke-width="5" /><ellipse cx="693.0" cy="37.0" fill="#009" rx="12" ry="24" stroke="#009" stroke-width="5" /></svg>