<?xml version="1.0" encoding="utf-8" ?>
<svg baseProfile="tiny" height="757" version="1.2" viewBox="0 0 4362 3225" width="1024" xmlns="http://www.w3.org/2000/svg" xmlns:ev="http://www.w3.org/2001/xml-events" xmlns:xlink="http://www.w3.org/1999/xlink"><defs /><line stroke="#333" stroke-width="10" x1="4357.0" x2="3109.0" y1="1183.0" y2="767.0" /><line stroke="#333" stroke-width="10" x1="3589.0" x2="4357.0" y1="1599.0" y2="1183.0" /><line stroke="#333" stroke-width="10" x1="1982.0" x2="2781.0" y1="1375.0" y2="1487.0" /><line stroke="#333" stroke-width="10" x1="2541.0" x2="1982.0" y1="1087.0" y2="1375.0" /><line stroke="#333" stroke-width="10" x1="3109.0" x2="2821.0" y1="767.0" y2="927.0" /><line stroke="#666" stroke-width="20" x1="2821.0" x2="2541.0" y1="927.0" y2="1087.0" /><line stroke="#666" stroke-width="20" x1="2501.0" x2="2541.0" y1="1023.0" y2="1087.0" /><line stroke="#666" stroke-width="20" x1="2821.0" x2="2789.0" y1="927.0" y2="863.0" /><line stroke="#666" stroke-width="20" x1="2501.0" x2="2789.0" y1="1023.0" y2="863.0" /><line stroke="#333" stroke-width="10" x1="2789.0" x2="3045.0" y1="863.0" y2="703.0" /><line stroke="#333" stroke-width="10" x1="3045.0" x2="3349.0" y1="703.0" y2="677.0" /><line stroke="#333" stroke-width="10" x1="3349.0" x2="1749.0" y1="677.0" y2="5.0" /><line stroke="#666" stroke-width="20" x1="1749.0" x2="1693.0" y1="5.0" y2="37.0" /><line stroke="#333" stroke-width="10" x1="1693.0" x2="1981.0" y1="37.0" y2="1029.0" /><line stroke="#333" stroke-width="10" x1="1981.0" x2="1637.0" y1="1029.0" y2="1087.0" /><line stroke="#333" stroke-width="10" x1="1637.0" x2="1701.0" y1="1087.0" y2="1375.0" /><line stroke="#333" stroke-width="10" x1="1701.0" x2="2501.0" y1="1375.0" y2="1023.0" /><line stroke="#999" stroke-width="3" x1="2781.0" x2="3181.0" y1="1487.0" y2="1543.0" /><line stroke="#333" stroke-width="10" x1="3181.0" x2="3589.0" y1="1543.0" y2="1599.0" /><line stroke="#666" stroke-width="20" x1="3157.0" x2="3181.0" y1="1591.0" y2="1543.0" /><line stroke="#666" stroke-width="20" x1="2781.0" x2="2767.0" y1="1487.0" y2="1541.0" /><line stroke="#999" stroke-width="3" x1="3157.0" x2="2767.0" y1="1591.0" y2="1541.0" /><line stroke="#333" stroke-width="10" x1="3349.0" x2="3157.0" y1="1623.0" y2="1591.0" /><line stroke="#333" stroke-width="10" x1="3509.0" x2="3349.0" y1="2535.0" y2="1623.0" /><line stroke="#333" stroke-width="10" x1="3901.0" x2="3509.0" y1="2551.0" y2="2535.0" /><line stroke="#999" stroke-width="3" x1="3893.0" x2="3901.0" y1="2695.0" y2="2551.0" /><line stroke="#333" stroke-width="10" x1="2957.0" x2="3893.0" y1="2623.0" y2="2695.0" /><line stroke="#333" stroke-width="10" x1="2421.0" x2="2957.0" y1="1727.0" y2="2623.0" /><line stroke="#333" stroke-width="10" x1="2767.0" x2="2421.0" y1="1541.0" y2="1727.0" /><line stroke="#333" stroke-width="10" x1="3893.0" x2="4101.0" y1="2695.0" y2="2719.0" /><line stroke="#333" stroke-width="10" x1="4325.0" x2="3901.0" y1="2591.0" y2="2551.0" /><line stroke="#333" stroke-width="10" x1="4101.0" x2="4101.0" y1="2719.0" y2="2879.0" /><line stroke="#333" stroke-width="10" x1="4261.0" x2="4325.0" y1="3039.0" y2="2591.0" /><line stroke="#333" stroke-width="10" x1="2147.0" x2="2301.0" y1="2919.0" y2="2575.0" /><line stroke="#999" stroke-width="3" x1="2301.0" x2="2221.0" y1="2575.0" y2="2495.0" /><line stroke="#333" stroke-width="10" x1="2221.0" x2="1949.0" y1="2495.0" y2="2991.0" /><line stroke="#333" stroke-width="10" x1="3245.0" x2="4261.0" y1="3039.0" y2="3039.0" /><line stroke="#333" stroke-width="10" x1="3349.0" x2="3245.0" y1="3183.0" y2="3039.0" /><line stroke="#333" stroke-width="10" x1="3197.0" x2="3349.0" y1="3183.0" y2="3183.0" /><line stroke="#333" stroke-width="10" x1="3141.0" x2="3197.0" y1="3063.0" y2="3183.0" /><line stroke="#333" stroke-width="10" x1="1949.0" x2="2420.0" y1="2991.0" y2="3049.0" /><line stroke="#333" stroke-width="10" x1="2285.0" x2="2221.0" y1="2399.0" y2="2495.0" /><line stroke="#333" stroke-width="10" x1="2301.0" x2="2453.0" y1="2575.0" y2="2355.0" /><line stroke="#333" stroke-width="10" x1="2069.0" x2="2285.0" y1="2207.0" y2="2399.0" /><line stroke="#333" stroke-width="10" x1="2453.0" x2="2165.0" y1="2355.0" y2="2127.0" /><line stroke="#333" stroke-width="10" x1="389.0" x2="433.0" y1="1951.0" y2="2187.0" /><line stroke="#666" stroke-width="20" x1="417.0" x2="389.0" y1="1826.0" y2="1951.0" /><line stroke="#333" stroke-width="10" x1="621.0" x2="417.0" y1="1575.0" y2="1826.0" /><line stroke="#333" stroke-width="10" x1="901.0" x2="621.0" y1="1463.0" y2="1575.0" /><line stroke="#333" stroke-width="10" x1="1273.0" x2="901.0" y1="1395.0" y2="1463.0" /><line stroke="#333" stroke-width="10" x1="1677.0" x2="1273.0" y1="1455.0" y2="1395.0" /><line stroke="#333" stroke-width="10" x1="2037.0" x2="1677.0" y1="1559.0" y2="1455.0" /><line stroke="#333" stroke-width="10" x1="2157.0" x2="2037.0" y1="1847.0" y2="1559.0" /><line stroke="#333" stroke-width="10" x1="2165.0" x2="2157.0" y1="2127.0" y2="1847.0" /><line stroke="#333" stroke-width="10" x1="433.0" x2="661.0" y1="2187.0" y2="2403.0" /><line stroke="#333" stroke-width="10" x1="1901.0" x2="2069.0" y1="2391.0" y2="2207.0" /><line stroke="#333" stroke-width="10" x1="1685.0" x2="1901.0" y1="2511.0" y2="2391.0" /><line stroke="#333" stroke-width="10" x1="1357.0" x2="1685.0" y1="2567.0" y2="2511.0" /><line stroke="#333" stroke-width="10" x1="961.0" x2="1357.0" y1="2535.0" y2="2567.0" /><line stroke="#333" stroke-width="10" x1="661.0" x2="961.0" y1="2403.0" y2="2535.0" /><line stroke="#333" stroke-width="10" x1="805.0" x2="869.0" y1="2039.0" y2="2039.0" /><line stroke="#333" stroke-width="10" x1="869.0" x2="869.0" y1="2039.0" y2="2103.0" /><line stroke="#333" stroke-width="10" x1="869.0" x2="677.0" y1="2103.0" y2="2103.0" /><line stroke="#333" stroke-width="10" x1="677.0" x2="677.0" y1="2103.0" y2="2039.0" /><line stroke="#333" stroke-width="10" x1="677.0" x2="741.0" y1="2039.0" y2="2039.0" /><line stroke="#333" stroke-width="10" x1="741.0" x2="741.0" y1="2039.0" y2="1911.0" /><line stroke="#333" stroke-width="10" x1="741.0" x2="805.0" y1="1911.0" y2="1911.0" /><line stroke="#333" stroke-width="10" x1="805.0" x2="805.0" y1="1911.0" y2="2039.0" /><line stroke="#333" stroke-width="10" x1="381.0" x2="389.0" y1="1949.0" y2="1951.0" /><line stroke="#333" stroke-width="10" x1="417.0" x2="409.0" y1="1826.0" y2="1824.0" /><line stroke="#666" stroke-width="20" x1="381.0" x2="409.0" y1="1949.0" y2="1824.0" /><line stroke="#0d0" stroke-width="20" x1="77.0" x2="5.0" y1="1671.0" y2="1863.0" /><line stroke="#333" stroke-width="10" x1="409.0" x2="77.0" y1="1824.0" y2="1671.0" /><line stroke="#333" stroke-width="10" x1="5.0" x2="381.0" y1="1863.0" y2="1949.0" /><line stroke="#333" stroke-width="10" x1="1058.0" x2="1058.0" y1="1986.0" y2="2050.0" /><line stroke="#333" stroke-width="10" x1="1058.0" x2="1013.0" y1="2050.0" y2="2095.0" /><line stroke="#333" stroke-width="10" x1="1013.0" x2="949.0" y1="2095.0" y2="2103.0" /><line stroke="#333" stroke-width="10" x1="949.0" x2="885.0" y1="2103.0" y2="2103.0" /><line stroke="#333" stroke-width="10" x1="885.0" x2="885.0" y1="2103.0" y2="1911.0" /><line stroke="#333" stroke-width="10" x1="885.0" x2="949.0" y1="1911.0" y2="1911.0" /><line stroke="#333" stroke-width="10" x1="949.0" x2="949.0" y1="1911.0" y2="1967.0" /><line stroke="#333" stroke-width="10" x1="949.0" x2="981.0" y1="1967.0" y2="1911.0" /><line stroke="#333" stroke-width="10" x1="981.0" x2="1045.0" y1="1911.0" y2="1911.0" /><line stroke="#333" stroke-width="10" x1="1045.0" x2="1013.0" y1="1911.0" y2="1967.0" /><line stroke="#333" stroke-width="10" x1="1205.0" x2="1205.0" y1="1983.0" y2="2031.0" /><line stroke="#333" stroke-width="10" x1="1205.0" x2="1141.0" y1="2031.0" y2="2031.0" /><line stroke="#333" stroke-width="10" x1="1141.0" x2="1141.0" y1="2031.0" y2="2039.0" /><line stroke="#333" stroke-width="10" x1="1141.0" x2="1269.0" y1="2039.0" y2="2039.0" /><line stroke="#333" stroke-width="10" x1="1269.0" x2="1269.0" y1="2039.0" y2="2103.0" /><line stroke="#333" stroke-width="10" x1="1269.0" x2="1077.0" y1="2103.0" y2="2103.0" /><line stroke="#333" stroke-width="10" x1="1077.0" x2="1077.0" y1="2103.0" y2="1911.0" /><line stroke="#333" stroke-width="10" x1="1077.0" x2="1269.0" y1="1911.0" y2="1911.0" /><line stroke="#333" stroke-width="10" x1="1269.0" x2="1269.0" y1="1911.0" y2="1975.0" /><line stroke="#333" stroke-width="10" x1="1269.0" x2="1141.0" y1="1975.0" y2="1975.0" /><line stroke="#333" stroke-width="10" x1="1141.0" x2="1141.0" y1="1975.0" y2="1983.0" /><line stroke="#333" stroke-width="10" x1="1141.0" x2="1205.0" y1="1983.0" y2="1983.0" /><line stroke="#333" stroke-width="10" x1="1493.0" x2="1493.0" y1="1975.0" y2="2103.0" /><line stroke="#333" stroke-width="10" x1="1493.0" x2="1429.0" y1="2103.0" y2="2103.0" /><line stroke="#333" stroke-width="10" x1="1429.0" x2="1429.0" y1="2103.0" y2="1975.0" /><line stroke="#333" stroke-width="10" x1="1429.0" x2="1493.0" y1="1975.0" y2="1975.0" /><line stroke="#333" stroke-width="10" x1="1493.0" x2="1461.0" y1="1951.0" y2="1967.0" /><line stroke="#333" stroke-width="10" x1="1461.0" x2="1429.0" y1="1967.0" y2="1951.0" /><line stroke="#333" stroke-width="10" x1="1429.0" x2="1429.0" y1="1951.0" y2="1919.0" /><line stroke="#333" stroke-width="10" x1="1429.0" x2="1461.0" y1="1919.0" y2="1903.0" /><line stroke="#333" stroke-width="10" x1="1461.0" x2="1493.0" y1="1903.0" y2="1919.0" /><line stroke="#333" stroke-width="10" x1="1493.0" x2="1493.0" y1="1919.0" y2="1951.0" /><line stroke="#333" stroke-width="10" x1="2420.0" x2="2486.0" y1="3049.0" y2="3220.0" /><line stroke="#333" stroke-width="10" x1="2537.0" x2="3141.0" y1="3049.0" y2="3063.0" /><line stroke="#333" stroke-width="10" x1="2486.0" x2="2537.0" y1="3220.0" y2="3049.0" /><line stroke="#333" stroke-width="10" x1="4101.0" x2="2147.0" y1="2879.0" y2="2919.0" /><line stroke="#333" stroke-width="10" x1="1285.0" x2="1285.0" y1="2103.0" y2="1975.0" /><line stroke="#333" stroke-width="10" x1="1285.0" x2="1317.0" y1="1975.0" y2="1911.0" /><line stroke="#333" stroke-width="10" x1="1317.0" x2="1381.0" y1="1911.0" y2="1911.0" /><line stroke="#333" stroke-width="10" x1="1381.0" x2="1413.0" y1="1911.0" y2="1975.0" /><line stroke="#333" stroke-width="10" x1="1413.0" x2="1413.0" y1="1975.0" y2="2103.0" /><line stroke="#333" stroke-width="10" x1="1413.0" x2="1285.0" y1="2103.0" y2="2103.0" /><line stroke="#333" stroke-width="10" x1="1013.0" x2="1058.0" y1="1967.0" y2="1986.0" /><ellipse cx="2245.0" cy="1343.0" fill="#009" rx="12" ry="24" stroke="#009" stroke-width="5" /><rect fill="#900" height="48" stroke="#900" stroke-width="5" transform="rotate(0,4005.0,1183.0)" width="32" x="3989.0" y="1159.0" /><rect fill="#900" height="48" stroke="#900" stroke-width="5" transform="rotate(0,3589.0,1439.0)" width="32" x="3573.0" y="1415.0" /><rect fill="#900" height="48" stroke="#900" stroke-width="5" transform="rotate(0,3621.0,1247.0)" width="32" x="3605.0" y="1223.0" /><circle cx="2597.0" cy="1279.0" fill="#900" r="16" stroke="#900" stroke-width="5" /><circle cx="2597.0" cy="1215.0" fill="#090" r="16" stroke="#090" stroke-width="5" /><rect fill="#090" height="24" stroke="#090" stroke-width="5" transform="rotate(180,3109.0,1407.0)" width="24" x="3097.0" y="1395.0" /><rect fill="#090" height="24" stroke="#090" stroke-width="5" transform="rotate(0,3173.0,959.0)" width="24" x="3161.0" y="947.0" /><rect fill="#900" height="48" stroke="#900" stroke-width="5" transform="rotate(0,3365.0,1375.0)" width="32" x="3349.0" y="1351.0" /><rect fill="#900" height="48" stroke="#900" stroke-width="5" transform="rotate(0,3365.0,1119.0)" width="32" x="3349.0" y="1095.0" /><circle cx="2693.0" cy="1279.0" fill="#090" r="16" stroke="#090" stroke-width="5" /><circle cx="2693.0" cy="1183.0" fill="#090" r="16" stroke="#090" stroke-width="5" /><rect fill="#090" height="24" stroke="#090" stroke-width="5" transform="rotate(0,2469.0,1279.0)" width="24" x="2457.0" y="1267.0" /><circle cx="2757.0" cy="1247.0" fill="#090" r="16" stroke="#090" stroke-width="5" /><rect fill="#900" height="48" stroke="#900" stroke-width="5" transform="rotate(0,3237.0,1247.0)" width="32" x="3221.0" y="1223.0" /><ellipse cx="2437.0" cy="447.0" fill="#900" rx="12" ry="24" stroke="#900" stroke-width="5" /><ellipse cx="1797.0" cy="1119.0" fill="#900" rx="12" ry="24" stroke="#900" stroke-width="5" /><ellipse cx="2053.0" cy="735.0" fill="#900" rx="12" ry="24" stroke="#900" stroke-width="5" /><ellipse cx="2149.0" cy="287.0" fill="#900" rx="12" ry="24" stroke="#900" stroke-width="5" /><ellipse cx="3461.0" cy="1247.0" fill="#900" rx="12" ry="24" stroke="#900" stroke-width="5" /><ellipse cx="3845.0" cy="1311.0" fill="#900" rx="12" ry="24" stroke="#900" stroke-width="5" /><rect fill="#090" height="24" stroke="#090" stroke-width="5" transform="rotate(0,2021.0,415.0)" width="24" x="2009.0" y="403.0" /><rect fill="#090" height="24" stroke="#090" stroke-width="5" transform="rotate(0,2661.0,639.0)" width="24" x="2649.0" y="627.0" /><rect fill="#090" height="24" stroke="#090" stroke-width="5" transform="rotate(0,2117.0,1055.0)" width="24" x="2105.0" y="1043.0" /><rect fill="#090" height="24" stroke="#090" stroke-width="5" transform="rotate(180,3109.0,639.0)" width="24" x="3097.0" y="627.0" /><rect fill="#900" height="48" stroke="#900" stroke-width="5" transform="rotate(0,1765.0,1247.0)" width="32" x="1749.0" y="1223.0" /><rect fill="#090" height="24" stroke="#090" stroke-width="5" transform="rotate(0,1957.0,1183.0)" width="24" x="1945.0" y="1171.0" /><rect fill="#900" height="48" stroke="#900" stroke-width="5" transform="rotate(0,1925.0,671.0)" width="32" x="1909.0" y="647.0" /><rect fill="#900" height="48" stroke="#900" stroke-width="5" transform="rotate(0,1957.0,575.0)" width="32" x="1941.0" y="551.0" /><circle cx="1925.0" cy="319.0" fill="#090" r="16" stroke="#090" stroke-width="5" /><circle cx="3109.0" cy="831.0" fill="#090" r="16" stroke="#090" stroke-width="5" /><rect fill="#900" height="48" stroke="#900" stroke-width="5" transform="rotate(0,2037.0,629.0)" width="32" x="2021.0" y="605.0" /><rect fill="#900" height="48" stroke="#900" stroke-width="5" transform="rotate(225,1861.0,191.0)" width="32" x="1845.0" y="167.0" /><rect fill="#900" height="48" stroke="#900" stroke-width="5" transform="rotate(0,3615.0,1133.0)" width="32" x="3599.0" y="1109.0" /><rect fill="#900" height="48" stroke="#900" stroke-width="5" transform="rotate(270,2725.0,1695.0)" width="32" x="2709.0" y="1671.0" /><rect fill="#900" height="48" stroke="#900" stroke-width="5" transform="rotate(270,2891.0,1693.0)" width="32" x="2875.0" y="1669.0" /><rect fill="#900" height="48" stroke="#900" stroke-width="5" transform="rotate(270,3056.0,1708.0)" width="32" x="3040.0" y="1684.0" /><rect fill="#900" height="48" stroke="#900" stroke-width="5" transform="rotate(270,3219.0,1711.0)" width="32" x="3203.0" y="1687.0" /><rect fill="#900" height="48" stroke="#900" stroke-width="5" transform="rotate(270,3237.0,1983.0)" width="32" x="3221.0" y="1959.0" /><rect fill="#900" height="48" stroke="#900" stroke-width="5" transform="rotate(0,2831.0,1868.0)" width="32" x="2815.0" y="1844.0" /><rect fill="#900" height="48" stroke="#900" stroke-width="5" transform="rotate(270,3077.0,1983.0)" width="32" x="3061.0" y="1959.0" /><rect fill="#900" height="48" stroke="#900" stroke-width="5" transform="rotate(270,2921.0,2003.0)" width="32" x="2905.0" y="1979.0" /><rect fill="#900" height="48" stroke="#900" stroke-width="5" transform="rotate(270,2681.0,1898.0)" width="32" x="2665.0" y="1874.0" /><rect fill="#900" height="48" stroke="#900" stroke-width="5" transform="rotate(315,2597.0,1759.0)" width="32" x="2581.0" y="1735.0" /><rect fill="#900" height="48" stroke="#900" stroke-width="5" transform="rotate(270,3333.0,2143.0)" width="32" x="3317.0" y="2119.0" /><rect fill="#900" height="48" stroke="#900" stroke-width="5" transform="rotate(270,3141.0,2111.0)" width="32" x="3125.0" y="2087.0" /><rect fill="#900" height="48" stroke="#900" stroke-width="5" transform="rotate(270,2885.0,2143.0)" width="32" x="2869.0" y="2119.0" /><rect fill="#900" height="48" stroke="#900" stroke-width="5" transform="rotate(270,2757.0,2047.0)" width="32" x="2741.0" y="2023.0" /><rect fill="#900" height="48" stroke="#900" stroke-width="5" transform="rotate(180,3687.0,2629.0)" width="32" x="3671.0" y="2605.0" /><rect fill="#900" height="48" stroke="#900" stroke-width="5" transform="rotate(270,3123.0,2359.0)" width="32" x="3107.0" y="2335.0" /><rect fill="#090" height="24" stroke="#090" stroke-width="5" transform="rotate(180,3783.0,1165.0)" width="24" x="3771.0" y="1153.0" /><rect fill="#090" height="24" stroke="#090" stroke-width="5" transform="rotate(180,3699.0,1351.0)" width="24" x="3687.0" y="1339.0" /><rect fill="#090" height="24" stroke="#090" stroke-width="5" transform="rotate(180,3013.0,607.0)" width="24" x="3001.0" y="595.0" /><rect fill="#090" height="24" stroke="#090" stroke-width="5" transform="rotate(180,2885.0,575.0)" width="24" x="2873.0" y="563.0" /><rect fill="#090" height="24" stroke="#090" stroke-width="5" transform="rotate(270,3173.0,1855.0)" width="24" x="3161.0" y="1843.0" /><rect fill="#090" height="24" stroke="#090" stroke-width="5" transform="rotate(270,3011.0,1853.0)" width="24" x="2999.0" y="1841.0" /><circle cx="1893.0" cy="1183.0" fill="#009" r="16" stroke="#009" stroke-width="5" /><rect fill="#090" height="24" stroke="#090" stroke-width="5" transform="rotate(270,2839.0,953.0)" width="24" x="2827.0" y="941.0" /><rect fill="#090" height="24" stroke="#090" stroke-width="5" transform="rotate(270,2551.0,1115.0)" width="24" x="2539.0" y="1103.0" /><rect fill="#090" height="24" stroke="#090" stroke-width="5" transform="rotate(180,3476.0,998.0)" width="24" x="3464.0" y="986.0" /><circle cx="1736.0" cy="1148.0" fill="#900" r="16" stroke="#900" stroke-width="5" /><circle cx="4198.0" cy="2983.0" fill="#009" r="16" stroke="#009" stroke-width="5" /><rect fill="#900" height="48" stroke="#900" stroke-width="5" transform="rotate(135,2129.0,2811.0)" width="32" x="2113.0" y="2787.0" /><circle cx="2156.0" cy="2748.0" fill="#090" r="16" stroke="#090" stroke-width="5" /><circle cx="2308.0" cy="2473.0" fill="#090" r="16" stroke="#090" stroke-width="5" /><circle cx="2998.0" cy="2578.0" fill="#090" r="16" stroke="#090" stroke-width="5" /><circle cx="3548.0" cy="2958.0" fill="#090" r="16" stroke="#090" stroke-width="5" /><circle cx="3293.0" cy="2978.0" fill="#090" r="16" stroke="#090" stroke-width="5" /><circle cx="3053.0" cy="2988.0" fill="#090" r="16" stroke="#090" stroke-width="5" /><circle cx="2818.0" cy="2988.0" fill="#090" r="16" stroke="#090" stroke-width="5" /><circle cx="2608.0" cy="2988.0" fill="#090" r="16" stroke="#090" stroke-width="5" /><circle cx="2363.0" cy="2978.0" fill="#090" r="16" stroke="#090" stroke-width="5" /><circle cx="2158.0" cy="2978.0" fill="#090" r="16" stroke="#090" stroke-width="5" /><circle cx="2368.0" cy="2363.0" fill="#090" r="16" stroke="#090" stroke-width="5" /><rect fill="#900" height="48" stroke="#900" stroke-width="5" transform="rotate(45,111.0,1844.0)" width="32" x="95.0" y="1820.0" /><rect fill="#900" height="48" stroke="#900" stroke-width="5" transform="rotate(45,145.0,1758.0)" width="32" x="129.0" y="1734.0" /><rect fill="#900" height="48" stroke="#900" stroke-width="5" transform="rotate(45,229.0,1838.0)" width="32" x="213.0" y="1814.0" /><rect fill="#900" height="48" stroke="#900" stroke-width="5" transform="rotate(270,845.0,1999.0)" width="32" x="829.0" y="1975.0" /><rect fill="#900" height="48" stroke="#900" stroke-width="5" transform="rotate(315,1301.0,1879.0)" width="32" x="1285.0" y="1855.0" /><rect fill="#900" height="48" stroke="#900" stroke-width="5" transform="rotate(0,1353.0,2135.0)" width="32" x="1337.0" y="2111.0" /><rect fill="#900" height="48" stroke="#900" stroke-width="5" transform="rotate(270,701.0,1999.0)" width="32" x="685.0" y="1975.0" /><rect fill="#900" height="48" stroke="#900" stroke-width="5" transform="rotate(135,753.0,2156.0)" width="32" x="737.0" y="2132.0" /><rect fill="#900" height="48" stroke="#900" stroke-width="5" transform="rotate(0,1037.0,2127.0)" width="32" x="1021.0" y="2103.0" /><rect fill="#900" height="48" stroke="#900" stroke-width="5" transform="rotate(45,641.0,1636.0)" width="32" x="625.0" y="1612.0" /><rect fill="#900" height="48" stroke="#900" stroke-width="5" transform="rotate(45,885.0,1524.0)" width="32" x="869.0" y="1500.0" /><rect fill="#900" height="48" stroke="#900" stroke-width="5" transform="rotate(45,1257.0,1468.0)" width="32" x="1241.0" y="1444.0" /><rect fill="#900" height="48" stroke="#900" stroke-width="5" transform="rotate(45,1641.0,1524.0)" width="32" x="1625.0" y="1500.0" /><rect fill="#900" height="48" stroke="#900" stroke-width="5" transform="rotate(45,1977.0,1620.0)" width="32" x="1961.0" y="1596.0" /><rect fill="#900" height="48" stroke="#900" stroke-width="5" transform="rotate(315,505.0,2160.0)" width="32" x="489.0" y="2136.0" /><rect fill="#900" height="48" stroke="#900" stroke-width="5" transform="rotate(315,697.0,2364.0)" width="32" x="681.0" y="2340.0" /><rect fill="#900" height="48" stroke="#900" stroke-width="5" transform="rotate(315,957.0,2472.0)" width="32" x="941.0" y="2448.0" /><rect fill="#900" height="48" stroke="#900" stroke-width="5" transform="rotate(315,1365.0,2508.0)" width="32" x="1349.0" y="2484.0" /><rect fill="#900" height="48" stroke="#900" stroke-width="5" transform="rotate(315,1653.0,2448.0)" width="32" x="1637.0" y="2424.0" /><rect fill="#900" height="48" stroke="#900" stroke-width="5" transform="rotate(315,1861.0,2320.0)" width="32" x="1845.0" y="2296.0" /><circle cx="1413.0" cy="1895.0" fill="#900" r="16" stroke="#900" stroke-width="5" /><rect fill="#900" height="48" stroke="#900" stroke-width="5" transform="rotate(90,573.0,1928.0)" width="32" x="557.0" y="1904.0" /><circle cx="1945.0" cy="2248.0" fill="#090" r="16" stroke="#090" stroke-width="5" /><circle cx="1757.0" cy="2392.0" fill="#090" r="16" stroke="#090" stroke-width="5" /><circle cx="1497.0" cy="2484.0" fill="#090" r="16" stroke="#090" stroke-width="5" /><circle cx="1165.0" cy="2496.0" fill="#090" r="16" stroke="#090" stroke-width="5" /><circle cx="837.0" cy="2420.0" fill="#090" r="16" stroke="#090" stroke-width="5" /><circle cx="601.0" cy="2268.0" fill="#090" r="16" stroke="#090" stroke-width="5" /><circle cx="457.0" cy="2032.0" fill="#090" r="16" stroke="#090" stroke-width="5" /><circle cx="537.0" cy="1780.0" fill="#090" r="16" stroke="#090" stroke-width="5" /><circle cx="765.0" cy="1576.0" fill="#090" r="16" stroke="#090" stroke-width="5" /><circle cx="1065.0" cy="1504.0" fill="#090" r="16" stroke="#090" stroke-width="5" /><circle cx="1453.0" cy="1492.0" fill="#090" r="16" stroke="#090" stroke-width="5" /><circle cx="1813.0" cy="1552.0" fill="#090" r="16" stroke="#090" stroke-width="5" /><circle cx="2049.0" cy="1764.0" fill="#090" r="16" stroke="#090" stroke-width="5" /><circle cx="2077.0" cy="2004.0" fill="#090" r="16" stroke="#090" stroke-width="5" /><rect fill="#900" height="48" stroke="#900" stroke-width="5" transform="rotate(45,345.0,1838.0)" width="32" x="329.0" y="1814.0" /><rect fill="#900" height="48" stroke="#900" stroke-width="5" transform="rotate(0,319.0,1898.0)" width="32" x="303.0" y="1874.0" /><ellipse cx="2108.0" cy="2180.0" fill="#900" rx="12" ry="24" stroke="#900" stroke-width="5" /><rect fill="#090" height="24" stroke="#090" stroke-width="5" transform="rotate(135,1985.0,2973.0)" width="24" x="1973.0" y="2961.0" /><rect fill="#090" height="24" stroke="#090" stroke-width="5" transform="rotate(135,2493.0,2991.0)" width="24" x="2481.0" y="2979.0" /><rect fill="#090" height="24" stroke="#090" stroke-width="5" transform="rotate(135,2929.0,2991.0)" width="24" x="2917.0" y="2979.0" /><rect fill="#090" height="24" stroke="#090" stroke-width="5" transform="rotate(135,3417.0,2955.0)" width="24" x="3405.0" y="2943.0" /><rect fill="#090" height="24" stroke="#090" stroke-width="5" transform="rotate(270,3969.0,2967.0)" width="24" x="3957.0" y="2955.0" /><rect fill="#090" height="24" stroke="#090" stroke-width="5" transform="rotate(270,4197.0,2659.0)" width="24" x="4185.0" y="2647.0" /><rect fill="#090" height="24" stroke="#090" stroke-width="5" transform="rotate(270,3457.0,2611.0)" width="24" x="3445.0" y="2599.0" /><rect fill="#090" height="24" stroke="#090" stroke-width="5" transform="rotate(270,2773.0,1569.0)" width="24" x="2761.0" y="1557.0" /><rect fill="#090" height="24" stroke="#090" stroke-width="5" transform="rotate(270,3145.0,1619.0)" width="24" x="3133.0" y="1607.0" /><rect fill="#090" height="24" stroke="#090" stroke-width="5" transform="rotate(0,1030.0,1726.0)" width="24" x="1018.0" y="1714.0" /><rect fill="#090" height="24" stroke="#090" stroke-width="5" transform="rotate(0,1569.0,1747.0)" width="24" x="1557.0" y="1735.0" /><rect fill="#090" height="24" stroke="#090" stroke-width="5" transform="rotate(0,1779.0,2125.0)" width="24" x="1767.0" y="2113.0" /><rect fill="#090" height="24" stroke="#090" stroke-width="5" transform="rotate(0,1219.0,2356.0)" width="24" x="1207.0" y="2344.0" /><rect fill="#090" height="24" stroke="#090" stroke-width="5" transform="rotate(0,883.0,2279.0)" width="24" x="871.0" y="2267.0" /><rect fill="#090" height="24" stroke="#090" stroke-width="5" transform="rotate(225,2480.0,3086.0)" width="24" x="2468.0" y="3074.0" /><rect fill="#900" height="48" stroke="#900" stroke-width="5" transform="rotate(0,2008.0,521.0)" width="32" x="1992.0" y="497.0" /><rect fill="#900" height="48" stroke="#900" stroke-width="5" transform="rotate(0,2080.0,575.0)" width="32" x="2064.0" y="551.0" /><rect fill="#900" height="48" stroke="#900" stroke-width="5" transform="rotate(0,2152.0,548.0)" width="32" x="2136.0" y="524.0" /><rect fill="#900" height="48" stroke="#900" stroke-width="5" transform="rotate(0,2332.0,452.0)" width="32" x="2316.0" y="428.0" /><rect fill="#900" height="48" stroke="#900" stroke-width="5" transform="rotate(0,2377.0,407.0)" width="32" x="2361.0" y="383.0" /><rect fill="#900" height="48" stroke="#900" stroke-width="5" transform="rotate(0,2476.0,380.0)" width="32" x="2460.0" y="356.0" /><rect fill="#900" height="48" stroke="#900" stroke-width="5" transform="rotate(0,2389.0,326.0)" width="32" x="2373.0" y="302.0" /><rect fill="#900" height="48" stroke="#900" stroke-width="5" transform="rotate(0,2299.0,359.0)" width="32" x="2283.0" y="335.0" /><rect fill="#900" height="48" stroke="#900" stroke-width="5" transform="rotate(180,3237.0,3125.0)" width="32" x="3221.0" y="3101.0" /><rect fill="#090" height="24" stroke="#090" stroke-width="5" transform="rotate(270,4181.0,2941.0)" width="24" x="4169.0" y="2929.0" /><rect fill="#090" height="24" stroke="#090" stroke-width="5" transform="rotate(315,1773.0,1916.0)" width="24" x="1761.0" y="1904.0" /><rect fill="#900" height="48" stroke="#900" stroke-width="5" transform="rotate(0,813.0,1764.0)" width="32" x="797.0" y="1740.0" /><rect fill="#900" height="48" stroke="#900" stroke-width="5" transform="rotate(0,661.0,1805.0)" width="32" x="645.0" y="1781.0" /><rect fill="#900" height="48" stroke="#900" stroke-width="5" transform="rotate(0,613.0,2147.0)" width="32" x="597.0" y="2123.0" /><rect fill="#900" height="48" stroke="#900" stroke-width="5" transform="rotate(0,1207.0,1813.0)" width="32" x="1191.0" y="1789.0" /><rect fill="#900" height="48" stroke="#900" stroke-width="5" transform="rotate(0,1145.0,1681.0)" width="32" x="1129.0" y="1657.0" /><rect fill="#900" height="48" stroke="#900" stroke-width="5" transform="rotate(0,1227.0,1721.0)" width="32" x="1211.0" y="1697.0" /><rect fill="#900" height="48" stroke="#900" stroke-width="5" transform="rotate(0,1293.0,1805.0)" width="32" x="1277.0" y="1781.0" /><rect fill="#900" height="48" stroke="#900" stroke-width="5" transform="rotate(0,1323.0,1669.0)" width="32" x="1307.0" y="1645.0" /><rect fill="#900" height="48" stroke="#900" stroke-width="5" transform="rotate(0,1229.0,1603.0)" width="32" x="1213.0" y="1579.0" /><rect fill="#900" height="48" stroke="#900" stroke-width="5" transform="rotate(0,1121.0,1787.0)" width="32" x="1105.0" y="1763.0" /><rect fill="#900" height="48" stroke="#900" stroke-width="5" transform="rotate(0,1323.0,1727.0)" width="32" x="1307.0" y="1703.0" /><rect fill="#900" height="48" stroke="#900" stroke-width="5" transform="rotate(0,1205.0,2231.0)" width="32" x="1189.0" y="2207.0" /><rect fill="#900" height="48" stroke="#900" stroke-width="5" transform="rotate(0,1257.0,2279.0)" width="32" x="1241.0" y="2255.0" /><rect fill="#900" height="48" stroke="#900" stroke-width="5" transform="rotate(0,1299.0,2327.0)" width="32" x="1283.0" y="2303.0" /><rect fill="#900" height="48" stroke="#900" stroke-width="5" transform="rotate(0,1353.0,2375.0)" width="32" x="1337.0" y="2351.0" /><rect fill="#900" height="48" stroke="#900" stroke-width="5" transform="rotate(0,1353.0,2269.0)" width="32" x="1337.0" y="2245.0" /><rect fill="#900" height="48" stroke="#900" stroke-width="5" transform="rotate(0,1313.0,2209.0)" width="32" x="1297.0" y="2185.0" /><rect fill="#900" height="48" stroke="#900" stroke-width="5" transform="rotate(0,1227.0,2173.0)" width="32" x="1211.0" y="2149.0" /><rect fill="#900" height="48" stroke="#900" stroke-width="5" transform="rotate(0,1001.0,2303.0)" width="32" x="985.0" y="2279.0" /><circle cx="4125.0" cy="1204.0" fill="#009" r="16" stroke="#009" stroke-width="5" /><circle cx="4053.0" cy="1288.0" fill="#009" r="16" stroke="#009" stroke-width="5" /><circle cx="4053.0" cy="1240.0" fill="#009" r="16" stroke="#009" stroke-width="5" /><circle cx="2505.0" cy="1744.0" fill="#090" r="16" stroke="#090" stroke-width="5" /><circle cx="3309.0" cy="1654.0" fill="#009" r="16" stroke="#009" stroke-width="5" /><circle cx="4269.0" cy="2638.0" fill="#009" r="16" stroke="#009" stroke-width="5" /><circle cx="845.0" cy="1935.0" fill="#009" r="16" stroke="#009" stroke-width="5" /><circle cx="2181.0" cy="2223.0" fill="#009" r="16" stroke="#009" stroke-width="5" /><circle cx="2949.0" cy="1612.0" fill="#009" r="16" stroke="#009" stroke-width="5" /></svg>