<?xml version="1.0" encoding="utf-8" ?>
<svg baseProfile="tiny" height="684" version="1.2" viewBox="0 0 1498 1002" width="1024" xmlns="http://www.w3.org/2000/svg" xmlns:ev="http://www.w3.org/2001/xml-events" xmlns:xlink="http://www.w3.org/1999/xlink"><defs /><line stroke="#333" stroke-width="10" x1="389.0" x2="325.0" y1="37.0" y2="37.0" /><line stroke="#333" stroke-width="10" x1="389.0" x2="389.0" y1="101.0" y2="37.0" /><line stroke="#333" stroke-width="10" x1="325.0" x2="325.0" y1="37.0" y2="101.0" /><line stroke="#333" stroke-width="10" x1="325.0" x2="325.0" y1="101.0" y2="117.0" /><line stroke="#333" stroke-width="10" x1="389.0" x2="389.0" y1="117.0" y2="101.0" /><line stroke="#666" stroke-width="20" x1="325.0" x2="389.0" y1="101.0" y2="101.0" /><line stroke="#666" stroke-width="20" x1="389.0" x2="325.0" y1="117.0" y2="117.0" /><line stroke="#333" stroke-width="10" x1="389.0" x2="389.0" y1="181.0" y2="117.0" /><line stroke="#333" stroke-width="10" x1="453.0" x2="389.0" y1="181.0" y2="181.0" /><line stroke="#333" stroke-width="10" x1="453.0" x2="453.0" y1="245.0" y2="181.0" /><line stroke="#333" stroke-width="10" x1="389.0" x2="453.0" y1="245.0" y2="245.0" /><line stroke="#333" stroke-width="10" x1="389.0" x2="389.0" y1="309.0" y2="245.0" /><line stroke="#333" stroke-width="10" x1="469.0" x2="389.0" y1="309.0" y2="309.0" /><line stroke="#333" stroke-width="10" x1="469.0" x2="469.0" y1="373.0" y2="309.0" /><line stroke="#333" stroke-width="10" x1="389.0" x2="405.0" y1="373.0" y2="373.0" /><line stroke="#333" stroke-width="10" x1="325.0" x2="261.0" y1="373.0" y2="373.0" /><line stroke="#333" stroke-width="10" x1="325.0" x2="325.0" y1="309.0" y2="373.0" /><line stroke="#333" stroke-width="10" x1="261.0" x2="325.0" y1="309.0" y2="309.0" /><line stroke="#333" stroke-width="10" x1="261.0" x2="261.0" y1="245.0" y2="309.0" /><line stroke="#333" stroke-width="10" x1="325.0" x2="261.0" y1="245.0" y2="245.0" /><line stroke="#333" stroke-width="10" x1="325.0" x2="325.0" y1="117.0" y2="245.0" /><line stroke="#333" stroke-width="10" x1="261.0" x2="325.0" y1="437.0" y2="437.0" /><line stroke="#333" stroke-width="10" x1="261.0" x2="261.0" y1="373.0" y2="437.0" /><line stroke="#333" stroke-width="10" x1="389.0" x2="389.0" y1="501.0" y2="373.0" /><line stroke="#333" stroke-width="10" x1="325.0" x2="325.0" y1="437.0" y2="565.0" /><line stroke="#666" stroke-width="20" x1="405.0" x2="469.0" y1="373.0" y2="373.0" /><line stroke="#333" stroke-width="10" x1="469.0" x2="469.0" y1="389.0" y2="373.0" /><line stroke="#333" stroke-width="10" x1="405.0" x2="405.0" y1="373.0" y2="389.0" /><line stroke="#666" stroke-width="20" x1="469.0" x2="405.0" y1="389.0" y2="389.0" /><line stroke="#333" stroke-width="10" x1="469.0" x2="469.0" y1="405.0" y2="389.0" /><line stroke="#333" stroke-width="10" x1="405.0" x2="405.0" y1="389.0" y2="405.0" /><line stroke="#999" stroke-width="3" x1="405.0" x2="469.0" y1="405.0" y2="405.0" /><line stroke="#999" stroke-width="3" x1="485.0" x2="549.0" y1="405.0" y2="405.0" /><line stroke="#999" stroke-width="3" x1="424.0" x2="469.0" y1="450.0" y2="405.0" /><line stroke="#333" stroke-width="10" x1="530.0" x2="549.0" y1="450.0" y2="405.0" /><line stroke="#333" stroke-width="10" x1="405.0" x2="424.0" y1="405.0" y2="450.0" /><line stroke="#333" stroke-width="10" x1="485.0" x2="469.0" y1="405.0" y2="405.0" /><line stroke="#999" stroke-width="3" x1="530.0" x2="485.0" y1="450.0" y2="405.0" /><line stroke="#333" stroke-width="10" x1="424.0" x2="469.0" y1="450.0" y2="469.0" /><line stroke="#333" stroke-width="10" x1="485.0" x2="530.0" y1="469.0" y2="450.0" /><line stroke="#333" stroke-width="10" x1="469.0" x2="485.0" y1="469.0" y2="469.0" /><line stroke="#333" stroke-width="10" x1="741.0" x2="613.0" y1="277.0" y2="277.0" /><line stroke="#666" stroke-width="20" x1="741.0" x2="741.0" y1="341.0" y2="277.0" /><line stroke="#333" stroke-width="10" x1="613.0" x2="741.0" y1="341.0" y2="341.0" /><line stroke="#999" stroke-width="3" x1="613.0" x2="613.0" y1="277.0" y2="341.0" /><line stroke="#333" stroke-width="10" x1="613.0" x2="613.0" y1="277.0" y2="213.0" /><line stroke="#333" stroke-width="10" x1="613.0" x2="485.0" y1="213.0" y2="213.0" /><line stroke="#333" stroke-width="10" x1="485.0" x2="485.0" y1="213.0" y2="405.0" /><line stroke="#333" stroke-width="10" x1="549.0" x2="613.0" y1="405.0" y2="405.0" /><line stroke="#333" stroke-width="10" x1="613.0" x2="613.0" y1="405.0" y2="341.0" /><line stroke="#333" stroke-width="10" x1="837.0" x2="389.0" y1="501.0" y2="501.0" /><line stroke="#d00" stroke-width="20" x1="837.0" x2="837.0" y1="565.0" y2="501.0" /><line stroke="#d00" stroke-width="20" x1="853.0" x2="853.0" y1="501.0" y2="565.0" /><line stroke="#333" stroke-width="10" x1="853.0" x2="837.0" y1="501.0" y2="501.0" /><line stroke="#333" stroke-width="10" x1="837.0" x2="853.0" y1="565.0" y2="565.0" /><line stroke="#333" stroke-width="10" x1="773.0" x2="837.0" y1="565.0" y2="565.0" /><line stroke="#666" stroke-width="20" x1="709.0" x2="773.0" y1="565.0" y2="565.0" /><line stroke="#333" stroke-width="10" x1="709.0" x2="709.0" y1="565.0" y2="613.0" /><line stroke="#333" stroke-width="10" x1="773.0" x2="773.0" y1="613.0" y2="565.0" /><line stroke="#666" stroke-width="20" x1="773.0" x2="709.0" y1="613.0" y2="613.0" /><line stroke="#999" stroke-width="3" x1="325.0" x2="389.0" y1="565.0" y2="565.0" /><line stroke="#333" stroke-width="10" x1="709.0" x2="581.0" y1="613.0" y2="613.0" /><line stroke="#333" stroke-width="10" x1="965.0" x2="773.0" y1="613.0" y2="613.0" /><line stroke="#666" stroke-width="20" x1="965.0" x2="965.0" y1="677.0" y2="613.0" /><line stroke="#333" stroke-width="10" x1="453.0" x2="453.0" y1="613.0" y2="677.0" /><line stroke="#333" stroke-width="10" x1="453.0" x2="517.0" y1="677.0" y2="677.0" /><line stroke="#333" stroke-width="10" x1="773.0" x2="965.0" y1="677.0" y2="677.0" /><line stroke="#999" stroke-width="3" x1="773.0" x2="773.0" y1="677.0" y2="613.0" /><line stroke="#333" stroke-width="10" x1="389.0" x2="709.0" y1="565.0" y2="565.0" /><line stroke="#999" stroke-width="3" x1="389.0" x2="389.0" y1="501.0" y2="565.0" /><line stroke="#333" stroke-width="10" x1="1045.0" x2="853.0" y1="501.0" y2="501.0" /><line stroke="#333" stroke-width="10" x1="853.0" x2="981.0" y1="565.0" y2="565.0" /><line stroke="#333" stroke-width="10" x1="517.0" x2="581.0" y1="677.0" y2="677.0" /><line stroke="#333" stroke-width="10" x1="517.0" x2="453.0" y1="613.0" y2="613.0" /><line stroke="#00d" stroke-width="20" x1="517.0" x2="517.0" y1="613.0" y2="677.0" /><line stroke="#333" stroke-width="10" x1="69.0" x2="5.0" y1="741.0" y2="741.0" /><line stroke="#333" stroke-width="10" x1="197.0" x2="69.0" y1="741.0" y2="741.0" /><line stroke="#333" stroke-width="10" x1="261.0" x2="197.0" y1="741.0" y2="741.0" /><line stroke="#333" stroke-width="10" x1="261.0" x2="261.0" y1="805.0" y2="741.0" /><line stroke="#333" stroke-width="10" x1="261.0" x2="261.0" y1="933.0" y2="805.0" /><line stroke="#333" stroke-width="10" x1="261.0" x2="261.0" y1="997.0" y2="933.0" /><line stroke="#333" stroke-width="10" x1="197.0" x2="261.0" y1="997.0" y2="997.0" /><line stroke="#333" stroke-width="10" x1="69.0" x2="197.0" y1="997.0" y2="997.0" /><line stroke="#333" stroke-width="10" x1="5.0" x2="69.0" y1="997.0" y2="997.0" /><line stroke="#333" stroke-width="10" x1="5.0" x2="5.0" y1="933.0" y2="997.0" /><line stroke="#333" stroke-width="10" x1="5.0" x2="5.0" y1="805.0" y2="933.0" /><line stroke="#333" stroke-width="10" x1="5.0" x2="5.0" y1="741.0" y2="805.0" /><line stroke="#00d" stroke-width="20" x1="69.0" x2="5.0" y1="805.0" y2="805.0" /><line stroke="#00d" stroke-width="20" x1="69.0" x2="69.0" y1="741.0" y2="805.0" /><line stroke="#00d" stroke-width="20" x1="197.0" x2="197.0" y1="805.0" y2="741.0" /><line stroke="#00d" stroke-width="20" x1="261.0" x2="197.0" y1="805.0" y2="805.0" /><line stroke="#00d" stroke-width="20" x1="197.0" x2="261.0" y1="933.0" y2="933.0" /><line stroke="#00d" stroke-width="20" x1="197.0" x2="197.0" y1="997.0" y2="933.0" /><line stroke="#00d" stroke-width="20" x1="69.0" x2="69.0" y1="933.0" y2="997.0" /><line stroke="#00d" stroke-width="20" x1="5.0" x2="69.0" y1="933.0" y2="933.0" /><line stroke="#333" stroke-width="10" x1="1045.0" x2="1045.0" y1="613.0" y2="501.0" /><line stroke="#333" stroke-width="10" x1="981.0" x2="981.0" y1="565.0" y2="677.0" /><line stroke="#666" stroke-width="20" x1="981.0" x2="1045.0" y1="677.0" y2="677.0" /><line stroke="#333" stroke-width="10" x1="981.0" x2="1045.0" y1="749.0" y2="749.0" /><line stroke="#333" stroke-width="10" x1="1045.0" x2="1045.0" y1="749.0" y2="685.0" /><line stroke="#333" stroke-width="10" x1="981.0" x2="981.0" y1="685.0" y2="749.0" /><line stroke="#666" stroke-width="20" x1="1045.0" x2="981.0" y1="685.0" y2="685.0" /><line stroke="#333" stroke-width="10" x1="1045.0" x2="1045.0" y1="685.0" y2="677.0" /><line stroke="#333" stroke-width="10" x1="981.0" x2="981.0" y1="677.0" y2="685.0" /><line stroke="#333" stroke-width="10" x1="1429.0" x2="1045.0" y1="613.0" y2="613.0" /><line stroke="#333" stroke-width="10" x1="1045.0" x2="1493.0" y1="677.0" y2="677.0" /><line stroke="#333" stroke-width="10" x1="1429.0" x2="1429.0" y1="357.0" y2="613.0" /><line stroke="#333" stroke-width="10" x1="1493.0" x2="1493.0" y1="677.0" y2="293.0" /><line stroke="#666" stroke-width="20" x1="1429.0" x2="1429.0" y1="293.0" y2="357.0" /><line stroke="#d00" stroke-width="20" x1="1493.0" x2="1429.0" y1="293.0" y2="293.0" /><line stroke="#333" stroke-width="10" x1="1429.0" x2="1413.0" y1="293.0" y2="293.0" /><line stroke="#333" stroke-width="10" x1="1429.0" x2="1429.0" y1="277.0" y2="293.0" /><line stroke="#333" stroke-width="10" x1="1493.0" x2="1493.0" y1="293.0" y2="277.0" /><line stroke="#333" stroke-width="10" x1="1413.0" x2="1429.0" y1="357.0" y2="357.0" /><line stroke="#666" stroke-width="20" x1="1413.0" x2="1413.0" y1="357.0" y2="293.0" /><line stroke="#d00" stroke-width="20" x1="1429.0" x2="1493.0" y1="277.0" y2="277.0" /><line stroke="#333" stroke-width="10" x1="1413.0" x2="1413.0" y1="293.0" y2="229.0" /><line stroke="#333" stroke-width="10" x1="1413.0" x2="1349.0" y1="229.0" y2="229.0" /><line stroke="#333" stroke-width="10" x1="1349.0" x2="1413.0" y1="485.0" y2="485.0" /><line stroke="#333" stroke-width="10" x1="1413.0" x2="1413.0" y1="485.0" y2="421.0" /><line stroke="#333" stroke-width="10" x1="1413.0" x2="1413.0" y1="421.0" y2="357.0" /><line stroke="#333" stroke-width="10" x1="1349.0" x2="1349.0" y1="421.0" y2="485.0" /><line stroke="#333" stroke-width="10" x1="1349.0" x2="1349.0" y1="293.0" y2="421.0" /><line stroke="#333" stroke-width="10" x1="1349.0" x2="1349.0" y1="229.0" y2="293.0" /><line stroke="#00d" stroke-width="20" x1="1349.0" x2="1413.0" y1="421.0" y2="421.0" /><line stroke="#00d" stroke-width="20" x1="1413.0" x2="1349.0" y1="293.0" y2="293.0" /><line stroke="#999" stroke-width="3" x1="1429.0" x2="1493.0" y1="197.0" y2="197.0" /><line stroke="#333" stroke-width="10" x1="1493.0" x2="1493.0" y1="213.0" y2="197.0" /><line stroke="#333" stroke-width="10" x1="1429.0" x2="1429.0" y1="197.0" y2="213.0" /><line stroke="#999" stroke-width="3" x1="1493.0" x2="1429.0" y1="213.0" y2="213.0" /><line stroke="#333" stroke-width="10" x1="1493.0" x2="1493.0" y1="277.0" y2="213.0" /><line stroke="#333" stroke-width="10" x1="1429.0" x2="1429.0" y1="213.0" y2="277.0" /><line stroke="#333" stroke-width="10" x1="1429.0" x2="1429.0" y1="69.0" y2="197.0" /><line stroke="#333" stroke-width="10" x1="1493.0" x2="1493.0" y1="197.0" y2="5.0" /><line stroke="#333" stroke-width="10" x1="1301.0" x2="1429.0" y1="69.0" y2="69.0" /><line stroke="#333" stroke-width="10" x1="1493.0" x2="1301.0" y1="5.0" y2="5.0" /><line stroke="#999" stroke-width="3" x1="1301.0" x2="1301.0" y1="5.0" y2="69.0" /><line stroke="#333" stroke-width="10" x1="1285.0" x2="1301.0" y1="69.0" y2="69.0" /><line stroke="#333" stroke-width="10" x1="1301.0" x2="1285.0" y1="5.0" y2="5.0" /><line stroke="#999" stroke-width="3" x1="1285.0" x2="1285.0" y1="69.0" y2="5.0" /><line stroke="#333" stroke-width="10" x1="773.0" x2="933.0" y1="69.0" y2="69.0" /><line stroke="#333" stroke-width="10" x1="1285.0" x2="1125.0" y1="5.0" y2="5.0" /><line stroke="#d00" stroke-width="20" x1="773.0" x2="709.0" y1="149.0" y2="149.0" /><line stroke="#333" stroke-width="10" x1="773.0" x2="773.0" y1="149.0" y2="133.0" /><line stroke="#333" stroke-width="10" x1="709.0" x2="709.0" y1="133.0" y2="149.0" /><line stroke="#d00" stroke-width="20" x1="709.0" x2="773.0" y1="133.0" y2="133.0" /><line stroke="#333" stroke-width="10" x1="773.0" x2="773.0" y1="133.0" y2="69.0" /><line stroke="#333" stroke-width="10" x1="709.0" x2="709.0" y1="5.0" y2="133.0" /><line stroke="#333" stroke-width="10" x1="773.0" x2="709.0" y1="5.0" y2="5.0" /><line stroke="#999" stroke-width="3" x1="773.0" x2="773.0" y1="5.0" y2="69.0" /><line stroke="#333" stroke-width="10" x1="933.0" x2="1125.0" y1="69.0" y2="69.0" /><line stroke="#333" stroke-width="10" x1="933.0" x2="773.0" y1="5.0" y2="5.0" /><line stroke="#999" stroke-width="3" x1="933.0" x2="933.0" y1="69.0" y2="5.0" /><line stroke="#333" stroke-width="10" x1="1125.0" x2="1285.0" y1="69.0" y2="69.0" /><line stroke="#333" stroke-width="10" x1="1125.0" x2="933.0" y1="5.0" y2="5.0" /><line stroke="#999" stroke-width="3" x1="1125.0" x2="1125.0" y1="5.0" y2="69.0" /><line stroke="#333" stroke-width="10" x1="837.0" x2="773.0" y1="149.0" y2="149.0" /><line stroke="#333" stroke-width="10" x1="901.0" x2="837.0" y1="85.0" y2="85.0" /><line stroke="#333" stroke-width="10" x1="901.0" x2="901.0" y1="149.0" y2="85.0" /><line stroke="#333" stroke-width="10" x1="837.0" x2="837.0" y1="85.0" y2="149.0" /><line stroke="#333" stroke-width="10" x1="709.0" x2="837.0" y1="213.0" y2="213.0" /><line stroke="#333" stroke-width="10" x1="709.0" x2="709.0" y1="149.0" y2="213.0" /><line stroke="#333" stroke-width="10" x1="837.0" x2="837.0" y1="213.0" y2="277.0" /><line stroke="#333" stroke-width="10" x1="885.0" x2="901.0" y1="405.0" y2="405.0" /><line stroke="#333" stroke-width="10" x1="885.0" x2="885.0" y1="341.0" y2="405.0" /><line stroke="#666" stroke-width="20" x1="901.0" x2="901.0" y1="341.0" y2="405.0" /><line stroke="#333" stroke-width="10" x1="901.0" x2="885.0" y1="341.0" y2="341.0" /><line stroke="#333" stroke-width="10" x1="901.0" x2="901.0" y1="277.0" y2="341.0" /><line stroke="#333" stroke-width="10" x1="837.0" x2="901.0" y1="277.0" y2="277.0" /><line stroke="#333" stroke-width="10" x1="901.0" x2="901.0" y1="405.0" y2="469.0" /><line stroke="#333" stroke-width="10" x1="901.0" x2="1285.0" y1="469.0" y2="469.0" /><line stroke="#333" stroke-width="10" x1="1285.0" x2="1285.0" y1="469.0" y2="213.0" /><line stroke="#333" stroke-width="10" x1="1301.0" x2="1285.0" y1="149.0" y2="149.0" /><line stroke="#333" stroke-width="10" x1="1285.0" x2="1301.0" y1="213.0" y2="213.0" /><line stroke="#d00" stroke-width="20" x1="1285.0" x2="1285.0" y1="213.0" y2="149.0" /><line stroke="#d00" stroke-width="20" x1="1301.0" x2="1301.0" y1="149.0" y2="213.0" /><line stroke="#333" stroke-width="10" x1="1285.0" x2="901.0" y1="149.0" y2="149.0" /><line stroke="#333" stroke-width="10" x1="1413.0" x2="1413.0" y1="213.0" y2="85.0" /><line stroke="#333" stroke-width="10" x1="1413.0" x2="1301.0" y1="85.0" y2="85.0" /><line stroke="#333" stroke-width="10" x1="1301.0" x2="1301.0" y1="85.0" y2="149.0" /><line stroke="#333" stroke-width="10" x1="1301.0" x2="1413.0" y1="213.0" y2="213.0" /><line stroke="#0d0" stroke-width="20" x1="1093.0" x2="1093.0" y1="357.0" y2="293.0" /><line stroke="#0d0" stroke-width="20" x1="1093.0" x2="1157.0" y1="293.0" y2="293.0" /><line stroke="#0d0" stroke-width="20" x1="1157.0" x2="1157.0" y1="293.0" y2="357.0" /><line stroke="#0d0" stroke-width="20" x1="1157.0" x2="1093.0" y1="357.0" y2="357.0" /><line stroke="#333" stroke-width="10" x1="581.0" x2="773.0" y1="677.0" y2="677.0" /><line stroke="#333" stroke-width="10" x1="581.0" x2="517.0" y1="613.0" y2="613.0" /><line stroke="#999" stroke-width="3" x1="581.0" x2="581.0" y1="613.0" y2="677.0" /><line stroke="#333" stroke-width="10" x1="325.0" x2="389.0" y1="661.0" y2="661.0" /><line stroke="#333" stroke-width="10" x1="389.0" x2="389.0" y1="661.0" y2="565.0" /><line stroke="#333" stroke-width="10" x1="325.0" x2="325.0" y1="565.0" y2="661.0" /><ellipse cx="357.0" cy="69.0" fill="#009" rx="12" ry="24" stroke="#009" stroke-width="5" /><rect fill="#009" height="24" stroke="#009" stroke-width="5" transform="rotate(90,357.0,61.0)" width="24" x="345.0" y="49.0" /><ellipse cx="581.0" cy="245.0" fill="#090" rx="12" ry="24" stroke="#090" stroke-width="5" /><ellipse cx="1013.0" cy="717.0" fill="#090" rx="12" ry="24" stroke="#090" stroke-width="5" /><ellipse cx="1381.0" cy="389.0" fill="#090" rx="12" ry="24" stroke="#090" stroke-width="5" /><rect fill="#009" height="24" stroke="#009" stroke-width="5" transform="rotate(270,589.0,381.0)" width="24" x="577.0" y="369.0" /><rect fill="#009" height="24" stroke="#009" stroke-width="5" transform="rotate(315,37.0,965.0)" width="24" x="25.0" y="953.0" /><rect fill="#009" height="24" stroke="#009" stroke-width="5" transform="rotate(270,1381.0,453.0)" width="24" x="1369.0" y="441.0" /><rect fill="#900" height="48" stroke="#900" stroke-width="5" transform="rotate(180,429.0,205.0)" width="32" x="413.0" y="181.0" /><rect fill="#900" height="48" stroke="#900" stroke-width="5" transform="rotate(0,285.0,397.0)" width="32" x="269.0" y="373.0" /><rect fill="#900" height="48" stroke="#900" stroke-width="5" transform="rotate(180,445.0,333.0)" width="32" x="429.0" y="309.0" /><rect fill="#900" height="48" stroke="#900" stroke-width="5" transform="rotate(0,285.0,269.0)" width="32" x="269.0" y="245.0" /><circle cx="357.0" cy="141.0" fill="#900" r="16" stroke="#900" stroke-width="5" /><rect fill="#900" height="48" stroke="#900" stroke-width="5" transform="rotate(225,477.0,437.0)" width="32" x="461.0" y="413.0" /><rect fill="#090" height="24" stroke="#090" stroke-width="5" transform="rotate(90,525.0,301.0)" width="24" x="513.0" y="289.0" /><rect fill="#900" height="48" stroke="#900" stroke-width="5" transform="rotate(90,573.0,301.0)" width="32" x="557.0" y="277.0" /><rect fill="#900" height="48" stroke="#900" stroke-width="5" transform="rotate(180,677.0,309.0)" width="32" x="661.0" y="285.0" /><circle cx="637.0" cy="309.0" fill="#090" r="16" stroke="#090" stroke-width="5" /><rect fill="#900" height="48" stroke="#900" stroke-width="5" transform="rotate(180,437.0,533.0)" width="32" x="421.0" y="509.0" /><rect fill="#900" height="48" stroke="#900" stroke-width="5" transform="rotate(180,509.0,533.0)" width="32" x="493.0" y="509.0" /><rect fill="#900" height="48" stroke="#900" stroke-width="5" transform="rotate(180,581.0,533.0)" width="32" x="565.0" y="509.0" /><rect fill="#900" height="48" stroke="#900" stroke-width="5" transform="rotate(180,645.0,533.0)" width="32" x="629.0" y="509.0" /><rect fill="#900" height="48" stroke="#900" stroke-width="5" transform="rotate(0,877.0,645.0)" width="32" x="861.0" y="621.0" /><rect fill="#900" height="48" stroke="#900" stroke-width="5" transform="rotate(0,933.0,645.0)" width="32" x="917.0" y="621.0" /><circle cx="733.0" cy="645.0" fill="#090" r="16" stroke="#090" stroke-width="5" /><circle cx="549.0" cy="645.0" fill="#009" r="16" stroke="#009" stroke-width="5" /><circle cx="805.0" cy="645.0" fill="#009" r="16" stroke="#009" stroke-width="5" /><circle cx="901.0" cy="645.0" fill="#900" r="16" stroke="#900" stroke-width="5" /><rect fill="#900" height="48" stroke="#900" stroke-width="5" transform="rotate(135,133.0,877.0)" width="32" x="117.0" y="853.0" /><rect fill="#900" height="48" stroke="#900" stroke-width="5" transform="rotate(135,157.0,861.0)" width="32" x="141.0" y="837.0" /><rect fill="#900" height="48" stroke="#900" stroke-width="5" transform="rotate(135,141.0,869.0)" width="32" x="125.0" y="845.0" /><circle cx="29.0" cy="869.0" fill="#009" r="16" stroke="#009" stroke-width="5" /><circle cx="237.0" cy="869.0" fill="#009" r="16" stroke="#009" stroke-width="5" /><circle cx="101.0" cy="773.0" fill="#090" r="16" stroke="#090" stroke-width="5" /><circle cx="165.0" cy="965.0" fill="#090" r="16" stroke="#090" stroke-width="5" /><rect fill="#900" height="48" stroke="#900" stroke-width="5" transform="rotate(180,1461.0,645.0)" width="32" x="1445.0" y="621.0" /><rect fill="#900" height="48" stroke="#900" stroke-width="5" transform="rotate(180,1109.0,645.0)" width="32" x="1093.0" y="621.0" /><rect fill="#900" height="48" stroke="#900" stroke-width="5" transform="rotate(180,1189.0,645.0)" width="32" x="1173.0" y="621.0" /><rect fill="#900" height="48" stroke="#900" stroke-width="5" transform="rotate(180,1253.0,645.0)" width="32" x="1237.0" y="621.0" /><rect fill="#900" height="48" stroke="#900" stroke-width="5" transform="rotate(180,1325.0,645.0)" width="32" x="1309.0" y="621.0" /><rect fill="#900" height="48" stroke="#900" stroke-width="5" transform="rotate(45,1381.0,309.0)" width="32" x="1365.0" y="285.0" /><rect fill="#900" height="48" stroke="#900" stroke-width="5" transform="rotate(90,1461.0,245.0)" width="32" x="1445.0" y="221.0" /><rect fill="#900" height="48" stroke="#900" stroke-width="5" transform="rotate(0,1397.0,37.0)" width="32" x="1381.0" y="13.0" /><rect fill="#900" height="48" stroke="#900" stroke-width="5" transform="rotate(0,1341.0,37.0)" width="32" x="1325.0" y="13.0" /><rect fill="#900" height="48" stroke="#900" stroke-width="5" transform="rotate(0,741.0,37.0)" width="32" x="725.0" y="13.0" /><rect fill="#900" height="48" stroke="#900" stroke-width="5" transform="rotate(0,981.0,37.0)" width="32" x="965.0" y="13.0" /><rect fill="#900" height="48" stroke="#900" stroke-width="5" transform="rotate(0,1085.0,37.0)" width="32" x="1069.0" y="13.0" /><rect fill="#900" height="48" stroke="#900" stroke-width="5" transform="rotate(90,861.0,109.0)" width="32" x="845.0" y="85.0" /><rect fill="#900" height="48" stroke="#900" stroke-width="5" transform="rotate(90,861.0,109.0)" width="32" x="845.0" y="85.0" /><rect fill="#900" height="48" stroke="#900" stroke-width="5" transform="rotate(270,861.0,253.0)" width="32" x="845.0" y="229.0" /><rect fill="#900" height="48" stroke="#900" stroke-width="5" transform="rotate(180,1357.0,149.0)" width="32" x="1341.0" y="125.0" /><circle cx="1013.0" cy="709.0" fill="#090" r="16" stroke="#090" stroke-width="5" /><circle cx="1381.0" cy="349.0" fill="#090" r="16" stroke="#090" stroke-width="5" /><circle cx="1461.0" cy="317.0" fill="#090" r="16" stroke="#090" stroke-width="5" /><circle cx="1461.0" cy="357.0" fill="#090" r="16" stroke="#090" stroke-width="5" /><circle cx="1461.0" cy="397.0" fill="#090" r="16" stroke="#090" stroke-width="5" /><circle cx="1461.0" cy="437.0" fill="#090" r="16" stroke="#090" stroke-width="5" /><circle cx="1461.0" cy="477.0" fill="#090" r="16" stroke="#090" stroke-width="5" /><circle cx="1461.0" cy="517.0" fill="#090" r="16" stroke="#090" stroke-width="5" /><circle cx="1461.0" cy="557.0" fill="#090" r="16" stroke="#090" stroke-width="5" /><circle cx="1469.0" cy="29.0" fill="#009" r="16" stroke="#009" stroke-width="5" /><rect fill="#900" height="48" stroke="#900" stroke-width="5" transform="rotate(180,1125.0,325.0)" width="32" x="1109.0" y="301.0" /><circle cx="1325.0" cy="109.0" fill="#090" r="16" stroke="#090" stroke-width="5" /><circle cx="1389.0" cy="109.0" fill="#090" r="16" stroke="#090" stroke-width="5" /><circle cx="1357.0" cy="109.0" fill="#090" r="16" stroke="#090" stroke-width="5" /><circle cx="1389.0" cy="189.0" fill="#900" r="16" stroke="#900" stroke-width="5" /><circle cx="1389.0" cy="149.0" fill="#090" r="16" stroke="#090" stroke-width="5" /><circle cx="1357.0" cy="189.0" fill="#090" r="16" stroke="#090" stroke-width="5" /><circle cx="1325.0" cy="189.0" fill="#090" r="16" stroke="#090" stroke-width="5" /><circle cx="1325.0" cy="149.0" fill="#009" r="16" stroke="#009" stroke-width="5" /><circle cx="1261.0" cy="445.0" fill="#009" r="16" stroke="#009" stroke-width="5" /><circle cx="925.0" cy="445.0" fill="#009" r="16" stroke="#009" stroke-width="5" /><circle cx="1261.0" cy="173.0" fill="#009" r="16" stroke="#009" stroke-width="5" /><circle cx="869.0" cy="181.0" fill="#090" r="16" stroke="#090" stroke-width="5" /><circle cx="805.0" cy="181.0" fill="#090" r="16" stroke="#090" stroke-width="5" /><rect fill="#900" height="48" stroke="#900" stroke-width="5" transform="rotate(180,1245.0,389.0)" width="32" x="1229.0" y="365.0" /><rect fill="#900" height="48" stroke="#900" stroke-width="5" transform="rotate(180,1173.0,397.0)" width="32" x="1157.0" y="373.0" /><rect fill="#900" height="48" stroke="#900" stroke-width="5" transform="rotate(270,957.0,389.0)" width="32" x="941.0" y="365.0" /><rect fill="#900" height="48" stroke="#900" stroke-width="5" transform="rotate(270,1013.0,413.0)" width="32" x="997.0" y="389.0" /><rect fill="#900" height="48" stroke="#900" stroke-width="5" transform="rotate(270,1069.0,413.0)" width="32" x="1053.0" y="389.0" /><rect fill="#900" height="48" stroke="#900" stroke-width="5" transform="rotate(270,1061.0,341.0)" width="32" x="1045.0" y="317.0" /><rect fill="#900" height="48" stroke="#900" stroke-width="5" transform="rotate(270,973.0,293.0)" width="32" x="957.0" y="269.0" /><rect fill="#900" height="48" stroke="#900" stroke-width="5" transform="rotate(270,997.0,349.0)" width="32" x="981.0" y="325.0" /><rect fill="#900" height="48" stroke="#900" stroke-width="5" transform="rotate(270,1181.0,333.0)" width="32" x="1165.0" y="309.0" /><rect fill="#900" height="48" stroke="#900" stroke-width="5" transform="rotate(270,949.0,237.0)" width="32" x="933.0" y="213.0" /><rect fill="#900" height="48" stroke="#900" stroke-width="5" transform="rotate(270,1029.0,301.0)" width="32" x="1013.0" y="277.0" /><rect fill="#900" height="48" stroke="#900" stroke-width="5" transform="rotate(270,1013.0,237.0)" width="32" x="997.0" y="213.0" /><rect fill="#900" height="48" stroke="#900" stroke-width="5" transform="rotate(270,1069.0,261.0)" width="32" x="1053.0" y="237.0" /><rect fill="#900" height="48" stroke="#900" stroke-width="5" transform="rotate(225,1125.0,261.0)" width="32" x="1109.0" y="237.0" /><rect fill="#900" height="48" stroke="#900" stroke-width="5" transform="rotate(0,1181.0,261.0)" width="32" x="1165.0" y="237.0" /><rect fill="#900" height="48" stroke="#900" stroke-width="5" transform="rotate(225,1093.0,213.0)" width="32" x="1077.0" y="189.0" /><rect fill="#900" height="48" stroke="#900" stroke-width="5" transform="rotate(0,1157.0,197.0)" width="32" x="1141.0" y="173.0" /><rect fill="#900" height="48" stroke="#900" stroke-width="5" transform="rotate(0,1213.0,213.0)" width="32" x="1197.0" y="189.0" /><rect fill="#900" height="48" stroke="#900" stroke-width="5" transform="rotate(0,1029.0,37.0)" width="32" x="1013.0" y="13.0" /><rect fill="#900" height="48" stroke="#900" stroke-width="5" transform="rotate(0,1245.0,37.0)" width="32" x="1229.0" y="13.0" /><rect fill="#900" height="48" stroke="#900" stroke-width="5" transform="rotate(180,1381.0,645.0)" width="32" x="1365.0" y="621.0" /><circle cx="869.0" cy="109.0" fill="#009" r="16" stroke="#009" stroke-width="5" /><circle cx="357.0" cy="637.0" fill="#090" r="16" stroke="#090" stroke-width="5" /><rect fill="#900" height="48" stroke="#900" stroke-width="5" transform="rotate(90,357.0,589.0)" width="32" x="341.0" y="565.0" /><circle cx="717.0" cy="309.0" fill="#009" r="16" stroke="#009" stroke-width="5" /><circle cx="357.0" cy="189.0" fill="#090" r="16" stroke="#090" stroke-width="5" /><circle cx="605.0" cy="645.0" fill="#009" r="16" stroke="#009" stroke-width="5" /><circle cx="165.0" cy="773.0" fill="#090" r="16" stroke="#090" stroke-width="5" /><circle cx="101.0" cy="965.0" fill="#090" r="16" stroke="#090" stroke-width="5" /><circle cx="1173.0" cy="37.0" fill="#090" r="16" stroke="#090" stroke-width="5" /><circle cx="869.0" cy="253.0" fill="#009" r="16" stroke="#009" stroke-width="5" /></svg>