<?xml version="1.0" encoding="utf-8" ?>
<svg baseProfile="tiny" height="1024" version="1.2" viewBox="0 0 4106 4156" width="1011" xmlns="http://www.w3.org/2000/svg" xmlns:ev="http://www.w3.org/2001/xml-events" xmlns:xlink="http://www.w3.org/1999/xlink"><defs /><line stroke="#333" stroke-width="10" x1="3045.0" x2="3173.0" y1="2935.0" y2="2551.0" /><line stroke="#333" stroke-width="10" x1="2885.0" x2="3045.0" y1="3223.0" y2="2935.0" /><line stroke="#999" stroke-width="3" x1="2357.0" x2="2597.0" y1="3551.0" y2="3383.0" /><line stroke="#333" stroke-width="10" x1="1789.0" x2="2357.0" y1="3663.0" y2="3551.0" /><line stroke="#333" stroke-width="10" x1="1213.0" x2="1789.0" y1="3551.0" y2="3663.0" /><line stroke="#333" stroke-width="10" x1="725.0" x2="1213.0" y1="3223.0" y2="3551.0" /><line stroke="#333" stroke-width="10" x1="397.0" x2="725.0" y1="2735.0" y2="3223.0" /><line stroke="#999" stroke-width="3" x1="261.0" x2="261.0" y1="2071.0" y2="2199.0" /><line stroke="#333" stroke-width="10" x1="397.0" x2="261.0" y1="1591.0" y2="2071.0" /><line stroke="#333" stroke-width="10" x1="725.0" x2="397.0" y1="1103.0" y2="1591.0" /><line stroke="#333" stroke-width="10" x1="1205.0" x2="725.0" y1="775.0" y2="1103.0" /><line stroke="#333" stroke-width="10" x1="1829.0" x2="1797.0" y1="663.0" y2="663.0" /><line stroke="#999" stroke-width="3" x1="2357.0" x2="1829.0" y1="775.0" y2="663.0" /><line stroke="#999" stroke-width="3" x1="2885.0" x2="2357.0" y1="1111.0" y2="775.0" /><line stroke="#333" stroke-width="10" x1="3173.0" x2="2885.0" y1="1591.0" y2="1111.0" /><line stroke="#999" stroke-width="3" x1="3077.0" x2="3077.0" y1="2263.0" y2="1879.0" /><line stroke="#999" stroke-width="3" x1="2437.0" x2="1925.0" y1="2711.0" y2="2711.0" /><line stroke="#999" stroke-width="3" x1="1157.0" x2="1157.0" y1="2711.0" y2="2199.0" /><line stroke="#999" stroke-width="3" x1="1157.0" x2="1669.0" y1="1431.0" y2="1431.0" /><line stroke="#999" stroke-width="3" x1="2437.0" x2="2437.0" y1="1431.0" y2="1943.0" /><line stroke="#999" stroke-width="3" x1="2437.0" x2="2437.0" y1="1943.0" y2="2199.0" /><line stroke="#999" stroke-width="3" x1="2437.0" x2="2437.0" y1="2199.0" y2="2711.0" /><line stroke="#999" stroke-width="3" x1="1925.0" x2="1669.0" y1="2711.0" y2="2711.0" /><line stroke="#999" stroke-width="3" x1="1669.0" x2="1157.0" y1="2711.0" y2="2711.0" /><line stroke="#999" stroke-width="3" x1="1157.0" x2="1157.0" y1="1943.0" y2="1431.0" /><line stroke="#999" stroke-width="3" x1="1157.0" x2="1157.0" y1="2199.0" y2="1943.0" /><line stroke="#999" stroke-width="3" x1="1925.0" x2="2437.0" y1="1431.0" y2="1431.0" /><line stroke="#999" stroke-width="3" x1="1669.0" x2="1925.0" y1="1431.0" y2="1431.0" /><line stroke="#999" stroke-width="3" x1="1925.0" x2="1925.0" y1="2647.0" y2="2679.0" /><line stroke="#999" stroke-width="3" x1="2373.0" x2="1925.0" y1="2647.0" y2="2647.0" /><line stroke="#999" stroke-width="3" x1="2373.0" x2="2373.0" y1="2199.0" y2="2647.0" /><line stroke="#999" stroke-width="3" x1="2437.0" x2="2405.0" y1="2199.0" y2="2199.0" /><line stroke="#999" stroke-width="3" x1="2373.0" x2="2405.0" y1="1943.0" y2="1943.0" /><line stroke="#999" stroke-width="3" x1="2373.0" x2="2373.0" y1="1495.0" y2="1943.0" /><line stroke="#999" stroke-width="3" x1="1925.0" x2="2373.0" y1="1495.0" y2="1495.0" /><line stroke="#999" stroke-width="3" x1="1925.0" x2="1925.0" y1="1431.0" y2="1463.0" /><line stroke="#999" stroke-width="3" x1="1669.0" x2="1669.0" y1="1495.0" y2="1463.0" /><line stroke="#999" stroke-width="3" x1="1221.0" x2="1669.0" y1="1495.0" y2="1495.0" /><line stroke="#999" stroke-width="3" x1="1221.0" x2="1221.0" y1="1943.0" y2="1495.0" /><line stroke="#999" stroke-width="3" x1="1157.0" x2="1189.0" y1="1943.0" y2="1943.0" /><line stroke="#999" stroke-width="3" x1="1221.0" x2="1189.0" y1="2199.0" y2="2199.0" /><line stroke="#999" stroke-width="3" x1="1221.0" x2="1221.0" y1="2647.0" y2="2199.0" /><line stroke="#999" stroke-width="3" x1="1669.0" x2="1221.0" y1="2647.0" y2="2647.0" /><line stroke="#999" stroke-width="3" x1="1669.0" x2="1669.0" y1="2711.0" y2="2679.0" /><line stroke="#999" stroke-width="3" x1="1189.0" x2="1157.0" y1="2199.0" y2="2199.0" /><line stroke="#999" stroke-width="3" x1="1189.0" x2="1221.0" y1="1943.0" y2="1943.0" /><line stroke="#999" stroke-width="3" x1="1189.0" x2="1189.0" y1="2199.0" y2="1943.0" /><line stroke="#999" stroke-width="3" x1="1221.0" x2="1221.0" y1="2199.0" y2="1943.0" /><line stroke="#999" stroke-width="3" x1="1669.0" x2="1669.0" y1="2679.0" y2="2647.0" /><line stroke="#999" stroke-width="3" x1="1925.0" x2="1925.0" y1="2679.0" y2="2711.0" /><line stroke="#999" stroke-width="3" x1="2405.0" x2="2373.0" y1="2199.0" y2="2199.0" /><line stroke="#999" stroke-width="3" x1="2405.0" x2="2437.0" y1="1943.0" y2="1943.0" /><line stroke="#999" stroke-width="3" x1="1925.0" x2="1925.0" y1="1463.0" y2="1495.0" /><line stroke="#999" stroke-width="3" x1="1669.0" x2="1669.0" y1="1463.0" y2="1431.0" /><line stroke="#999" stroke-width="3" x1="1925.0" x2="1669.0" y1="2679.0" y2="2679.0" /><line stroke="#999" stroke-width="3" x1="1925.0" x2="1669.0" y1="2647.0" y2="2647.0" /><line stroke="#999" stroke-width="3" x1="2405.0" x2="2405.0" y1="1943.0" y2="2199.0" /><line stroke="#999" stroke-width="3" x1="2373.0" x2="2373.0" y1="1943.0" y2="2199.0" /><line stroke="#999" stroke-width="3" x1="1669.0" x2="1925.0" y1="1463.0" y2="1463.0" /><line stroke="#999" stroke-width="3" x1="1669.0" x2="1925.0" y1="1495.0" y2="1495.0" /><line stroke="#999" stroke-width="3" x1="1253.0" x2="1221.0" y1="2199.0" y2="2199.0" /><line stroke="#999" stroke-width="3" x1="1285.0" x2="1253.0" y1="2199.0" y2="2199.0" /><line stroke="#999" stroke-width="3" x1="1285.0" x2="1285.0" y1="2583.0" y2="2199.0" /><line stroke="#999" stroke-width="3" x1="1669.0" x2="1285.0" y1="2583.0" y2="2583.0" /><line stroke="#999" stroke-width="3" x1="1669.0" x2="1669.0" y1="2615.0" y2="2583.0" /><line stroke="#999" stroke-width="3" x1="1669.0" x2="1669.0" y1="2647.0" y2="2615.0" /><line stroke="#999" stroke-width="3" x1="1925.0" x2="1925.0" y1="2615.0" y2="2647.0" /><line stroke="#999" stroke-width="3" x1="1925.0" x2="1925.0" y1="2583.0" y2="2615.0" /><line stroke="#999" stroke-width="3" x1="2309.0" x2="1925.0" y1="2583.0" y2="2583.0" /><line stroke="#999" stroke-width="3" x1="2309.0" x2="2309.0" y1="2199.0" y2="2583.0" /><line stroke="#999" stroke-width="3" x1="2341.0" x2="2309.0" y1="2199.0" y2="2199.0" /><line stroke="#999" stroke-width="3" x1="2373.0" x2="2341.0" y1="2199.0" y2="2199.0" /><line stroke="#999" stroke-width="3" x1="1925.0" x2="1669.0" y1="2615.0" y2="2615.0" /><line stroke="#999" stroke-width="3" x1="1925.0" x2="1669.0" y1="2583.0" y2="2583.0" /><line stroke="#999" stroke-width="3" x1="1669.0" x2="1669.0" y1="1527.0" y2="1495.0" /><line stroke="#999" stroke-width="3" x1="1669.0" x2="1669.0" y1="1559.0" y2="1527.0" /><line stroke="#999" stroke-width="3" x1="1285.0" x2="1669.0" y1="1559.0" y2="1559.0" /><line stroke="#999" stroke-width="3" x1="1285.0" x2="1285.0" y1="1943.0" y2="1559.0" /><line stroke="#999" stroke-width="3" x1="1253.0" x2="1285.0" y1="1943.0" y2="1943.0" /><line stroke="#999" stroke-width="3" x1="1221.0" x2="1253.0" y1="1943.0" y2="1943.0" /><line stroke="#999" stroke-width="3" x1="2341.0" x2="2373.0" y1="1943.0" y2="1943.0" /><line stroke="#999" stroke-width="3" x1="2309.0" x2="2341.0" y1="1943.0" y2="1943.0" /><line stroke="#999" stroke-width="3" x1="2309.0" x2="2309.0" y1="1559.0" y2="1943.0" /><line stroke="#999" stroke-width="3" x1="1925.0" x2="2309.0" y1="1559.0" y2="1559.0" /><line stroke="#999" stroke-width="3" x1="1925.0" x2="1925.0" y1="1527.0" y2="1559.0" /><line stroke="#999" stroke-width="3" x1="1925.0" x2="1925.0" y1="1495.0" y2="1527.0" /><line stroke="#999" stroke-width="3" x1="1253.0" x2="1253.0" y1="2199.0" y2="1943.0" /><line stroke="#999" stroke-width="3" x1="1285.0" x2="1285.0" y1="2199.0" y2="1943.0" /><line stroke="#999" stroke-width="3" x1="2341.0" x2="2341.0" y1="1943.0" y2="2199.0" /><line stroke="#999" stroke-width="3" x1="2309.0" x2="2309.0" y1="1943.0" y2="2199.0" /><line stroke="#999" stroke-width="3" x1="1669.0" x2="1925.0" y1="1527.0" y2="1527.0" /><line stroke="#999" stroke-width="3" x1="1669.0" x2="1925.0" y1="1559.0" y2="1559.0" /><line stroke="#999" stroke-width="3" x1="1317.0" x2="1285.0" y1="2199.0" y2="2199.0" /><line stroke="#999" stroke-width="3" x1="1349.0" x2="1317.0" y1="2199.0" y2="2199.0" /><line stroke="#999" stroke-width="3" x1="1349.0" x2="1349.0" y1="2519.0" y2="2199.0" /><line stroke="#999" stroke-width="3" x1="1669.0" x2="1349.0" y1="2519.0" y2="2519.0" /><line stroke="#999" stroke-width="3" x1="1669.0" x2="1669.0" y1="2551.0" y2="2519.0" /><line stroke="#999" stroke-width="3" x1="1669.0" x2="1669.0" y1="2583.0" y2="2551.0" /><line stroke="#999" stroke-width="3" x1="1669.0" x2="1669.0" y1="1591.0" y2="1559.0" /><line stroke="#999" stroke-width="3" x1="1669.0" x2="1669.0" y1="1623.0" y2="1591.0" /><line stroke="#999" stroke-width="3" x1="1349.0" x2="1669.0" y1="1623.0" y2="1623.0" /><line stroke="#999" stroke-width="3" x1="1349.0" x2="1349.0" y1="1943.0" y2="1623.0" /><line stroke="#999" stroke-width="3" x1="1317.0" x2="1349.0" y1="1943.0" y2="1943.0" /><line stroke="#999" stroke-width="3" x1="1285.0" x2="1317.0" y1="1943.0" y2="1943.0" /><line stroke="#999" stroke-width="3" x1="2277.0" x2="2309.0" y1="1943.0" y2="1943.0" /><line stroke="#999" stroke-width="3" x1="2245.0" x2="2277.0" y1="1943.0" y2="1943.0" /><line stroke="#999" stroke-width="3" x1="2245.0" x2="2245.0" y1="1623.0" y2="1943.0" /><line stroke="#999" stroke-width="3" x1="1925.0" x2="2245.0" y1="1623.0" y2="1623.0" /><line stroke="#999" stroke-width="3" x1="1925.0" x2="1925.0" y1="1591.0" y2="1623.0" /><line stroke="#999" stroke-width="3" x1="1925.0" x2="1925.0" y1="1559.0" y2="1591.0" /><line stroke="#999" stroke-width="3" x1="1925.0" x2="1925.0" y1="2551.0" y2="2583.0" /><line stroke="#999" stroke-width="3" x1="1925.0" x2="1925.0" y1="2519.0" y2="2551.0" /><line stroke="#999" stroke-width="3" x1="2245.0" x2="1925.0" y1="2519.0" y2="2519.0" /><line stroke="#999" stroke-width="3" x1="2245.0" x2="2245.0" y1="2199.0" y2="2519.0" /><line stroke="#999" stroke-width="3" x1="2277.0" x2="2245.0" y1="2199.0" y2="2199.0" /><line stroke="#999" stroke-width="3" x1="2309.0" x2="2277.0" y1="2199.0" y2="2199.0" /><line stroke="#999" stroke-width="3" x1="1925.0" x2="1669.0" y1="2551.0" y2="2551.0" /><line stroke="#999" stroke-width="3" x1="1925.0" x2="1669.0" y1="2519.0" y2="2519.0" /><line stroke="#999" stroke-width="3" x1="2277.0" x2="2277.0" y1="1943.0" y2="2199.0" /><line stroke="#999" stroke-width="3" x1="2245.0" x2="2245.0" y1="1943.0" y2="2199.0" /><line stroke="#999" stroke-width="3" x1="1669.0" x2="1925.0" y1="1591.0" y2="1591.0" /><line stroke="#999" stroke-width="3" x1="1669.0" x2="1925.0" y1="1623.0" y2="1623.0" /><line stroke="#999" stroke-width="3" x1="1317.0" x2="1317.0" y1="2199.0" y2="1943.0" /><line stroke="#999" stroke-width="3" x1="1349.0" x2="1349.0" y1="2199.0" y2="1943.0" /><line stroke="#999" stroke-width="3" x1="1381.0" x2="1349.0" y1="2199.0" y2="2199.0" /><line stroke="#999" stroke-width="3" x1="1413.0" x2="1381.0" y1="2199.0" y2="2199.0" /><line stroke="#999" stroke-width="3" x1="1413.0" x2="1413.0" y1="2455.0" y2="2199.0" /><line stroke="#999" stroke-width="3" x1="1669.0" x2="1413.0" y1="2455.0" y2="2455.0" /><line stroke="#999" stroke-width="3" x1="1669.0" x2="1669.0" y1="2487.0" y2="2455.0" /><line stroke="#999" stroke-width="3" x1="1669.0" x2="1669.0" y1="2519.0" y2="2487.0" /><line stroke="#999" stroke-width="3" x1="1925.0" x2="1925.0" y1="2487.0" y2="2519.0" /><line stroke="#999" stroke-width="3" x1="1925.0" x2="1925.0" y1="2455.0" y2="2487.0" /><line stroke="#999" stroke-width="3" x1="2181.0" x2="1925.0" y1="2455.0" y2="2455.0" /><line stroke="#999" stroke-width="3" x1="2181.0" x2="2181.0" y1="2199.0" y2="2455.0" /><line stroke="#999" stroke-width="3" x1="2213.0" x2="2181.0" y1="2199.0" y2="2199.0" /><line stroke="#999" stroke-width="3" x1="2245.0" x2="2213.0" y1="2199.0" y2="2199.0" /><line stroke="#999" stroke-width="3" x1="2213.0" x2="2245.0" y1="1943.0" y2="1943.0" /><line stroke="#999" stroke-width="3" x1="2181.0" x2="2213.0" y1="1943.0" y2="1943.0" /><line stroke="#999" stroke-width="3" x1="2181.0" x2="2181.0" y1="1687.0" y2="1943.0" /><line stroke="#999" stroke-width="3" x1="1925.0" x2="2181.0" y1="1687.0" y2="1687.0" /><line stroke="#999" stroke-width="3" x1="1925.0" x2="1925.0" y1="1655.0" y2="1687.0" /><line stroke="#999" stroke-width="3" x1="1925.0" x2="1925.0" y1="1623.0" y2="1655.0" /><line stroke="#999" stroke-width="3" x1="1669.0" x2="1669.0" y1="1655.0" y2="1623.0" /><line stroke="#999" stroke-width="3" x1="1669.0" x2="1669.0" y1="1687.0" y2="1655.0" /><line stroke="#999" stroke-width="3" x1="1413.0" x2="1669.0" y1="1687.0" y2="1687.0" /><line stroke="#999" stroke-width="3" x1="1413.0" x2="1413.0" y1="1943.0" y2="1687.0" /><line stroke="#999" stroke-width="3" x1="1381.0" x2="1413.0" y1="1943.0" y2="1943.0" /><line stroke="#999" stroke-width="3" x1="1349.0" x2="1381.0" y1="1943.0" y2="1943.0" /><line stroke="#999" stroke-width="3" x1="1381.0" x2="1381.0" y1="2199.0" y2="2071.0" /><line stroke="#999" stroke-width="3" x1="1669.0" x2="1925.0" y1="1655.0" y2="1655.0" /><line stroke="#999" stroke-width="3" x1="2213.0" x2="2213.0" y1="1943.0" y2="2071.0" /><line stroke="#999" stroke-width="3" x1="1925.0" x2="1669.0" y1="2487.0" y2="2487.0" /><line stroke="#999" stroke-width="3" x1="1381.0" x2="1381.0" y1="2071.0" y2="1943.0" /><line stroke="#999" stroke-width="3" x1="2213.0" x2="2213.0" y1="2071.0" y2="2199.0" /><line stroke="#999" stroke-width="3" x1="1605.0" x2="1381.0" y1="2071.0" y2="2071.0" /><line stroke="#999" stroke-width="3" x1="1605.0" x2="1605.0" y1="2263.0" y2="2071.0" /><line stroke="#999" stroke-width="3" x1="1989.0" x2="1605.0" y1="2263.0" y2="2263.0" /><line stroke="#999" stroke-width="3" x1="1989.0" x2="1989.0" y1="2071.0" y2="2263.0" /><line stroke="#999" stroke-width="3" x1="2213.0" x2="1989.0" y1="2071.0" y2="2071.0" /><line stroke="#999" stroke-width="3" x1="1989.0" x2="1989.0" y1="1879.0" y2="2071.0" /><line stroke="#999" stroke-width="3" x1="1605.0" x2="1989.0" y1="1879.0" y2="1879.0" /><line stroke="#999" stroke-width="3" x1="1605.0" x2="1605.0" y1="2071.0" y2="1879.0" /><line stroke="#999" stroke-width="3" x1="1637.0" x2="1957.0" y1="1911.0" y2="1911.0" /><line stroke="#999" stroke-width="3" x1="1957.0" x2="1957.0" y1="1911.0" y2="2231.0" /><line stroke="#999" stroke-width="3" x1="1957.0" x2="1637.0" y1="2231.0" y2="2231.0" /><line stroke="#999" stroke-width="3" x1="1637.0" x2="1637.0" y1="2231.0" y2="1911.0" /><line stroke="#999" stroke-width="3" x1="1669.0" x2="1669.0" y1="2199.0" y2="1943.0" /><line stroke="#999" stroke-width="3" x1="1925.0" x2="1669.0" y1="2199.0" y2="2199.0" /><line stroke="#999" stroke-width="3" x1="1925.0" x2="1925.0" y1="1943.0" y2="2199.0" /><line stroke="#999" stroke-width="3" x1="1669.0" x2="1925.0" y1="1943.0" y2="1943.0" /><line stroke="#999" stroke-width="3" x1="1893.0" x2="1893.0" y1="1975.0" y2="2167.0" /><line stroke="#999" stroke-width="3" x1="1701.0" x2="1893.0" y1="1975.0" y2="1975.0" /><line stroke="#999" stroke-width="3" x1="1701.0" x2="1701.0" y1="2167.0" y2="1975.0" /><line stroke="#999" stroke-width="3" x1="1893.0" x2="1701.0" y1="2167.0" y2="2167.0" /><line stroke="#999" stroke-width="3" x1="1861.0" x2="1861.0" y1="2007.0" y2="2135.0" /><line stroke="#999" stroke-width="3" x1="1733.0" x2="1861.0" y1="2007.0" y2="2007.0" /><line stroke="#999" stroke-width="3" x1="1733.0" x2="1733.0" y1="2135.0" y2="2007.0" /><line stroke="#999" stroke-width="3" x1="1861.0" x2="1733.0" y1="2135.0" y2="2135.0" /><line stroke="#999" stroke-width="3" x1="1829.0" x2="1829.0" y1="2039.0" y2="2103.0" /><line stroke="#999" stroke-width="3" x1="1765.0" x2="1829.0" y1="2039.0" y2="2039.0" /><line stroke="#999" stroke-width="3" x1="1765.0" x2="1765.0" y1="2103.0" y2="2039.0" /><line stroke="#999" stroke-width="3" x1="1829.0" x2="1765.0" y1="2103.0" y2="2103.0" /><line stroke="#999" stroke-width="3" x1="1445.0" x2="1477.0" y1="1719.0" y2="1719.0" /><line stroke="#999" stroke-width="3" x1="1477.0" x2="1477.0" y1="1719.0" y2="1751.0" /><line stroke="#999" stroke-width="3" x1="1477.0" x2="1445.0" y1="1751.0" y2="1751.0" /><line stroke="#999" stroke-width="3" x1="1445.0" x2="1445.0" y1="1751.0" y2="1719.0" /><line stroke="#999" stroke-width="3" x1="3077.0" x2="3173.0" y1="1879.0" y2="1591.0" /><line stroke="#333" stroke-width="10" x1="3301.0" x2="3269.0" y1="1879.0" y2="1879.0" /><line stroke="#999" stroke-width="3" x1="3301.0" x2="3301.0" y1="2263.0" y2="1879.0" /><line stroke="#999" stroke-width="3" x1="3173.0" x2="3077.0" y1="2551.0" y2="2263.0" /><line stroke="#333" stroke-width="10" x1="3333.0" x2="3301.0" y1="1879.0" y2="1879.0" /><line stroke="#999" stroke-width="3" x1="3333.0" x2="3333.0" y1="2263.0" y2="1879.0" /><line stroke="#333" stroke-width="10" x1="3301.0" x2="3333.0" y1="2263.0" y2="2263.0" /><line stroke="#333" stroke-width="10" x1="3397.0" x2="3333.0" y1="1879.0" y2="1879.0" /><line stroke="#999" stroke-width="3" x1="3397.0" x2="3557.0" y1="2263.0" y2="2135.0" /><line stroke="#333" stroke-width="10" x1="3333.0" x2="3397.0" y1="2263.0" y2="2263.0" /><line stroke="#999" stroke-width="3" x1="3557.0" x2="3397.0" y1="2007.0" y2="1879.0" /><line stroke="#333" stroke-width="10" x1="3557.0" x2="3557.0" y1="2135.0" y2="2007.0" /><line stroke="#333" stroke-width="10" x1="3685.0" x2="3557.0" y1="2135.0" y2="2135.0" /><line stroke="#333" stroke-width="10" x1="3685.0" x2="3685.0" y1="2007.0" y2="2135.0" /><line stroke="#333" stroke-width="10" x1="3557.0" x2="3685.0" y1="2007.0" y2="2007.0" /><line stroke="#333" stroke-width="10" x1="3493.0" x2="3397.0" y1="1751.0" y2="1879.0" /><line stroke="#333" stroke-width="10" x1="3685.0" x2="3493.0" y1="1751.0" y2="1751.0" /><line stroke="#333" stroke-width="10" x1="3813.0" x2="3685.0" y1="1879.0" y2="1751.0" /><line stroke="#333" stroke-width="10" x1="3941.0" x2="3813.0" y1="2007.0" y2="1879.0" /><line stroke="#999" stroke-width="3" x1="3941.0" x2="3941.0" y1="2135.0" y2="2007.0" /><line stroke="#333" stroke-width="10" x1="3813.0" x2="3941.0" y1="2263.0" y2="2135.0" /><line stroke="#333" stroke-width="10" x1="3685.0" x2="3813.0" y1="2391.0" y2="2263.0" /><line stroke="#333" stroke-width="10" x1="3493.0" x2="3685.0" y1="2391.0" y2="2391.0" /><line stroke="#333" stroke-width="10" x1="3397.0" x2="3493.0" y1="2263.0" y2="2391.0" /><line stroke="#333" stroke-width="10" x1="3269.0" x2="3301.0" y1="2263.0" y2="2263.0" /><line stroke="#999" stroke-width="3" x1="3173.0" x2="3269.0" y1="1591.0" y2="1879.0" /><line stroke="#999" stroke-width="3" x1="3269.0" x2="3269.0" y1="2263.0" y2="1879.0" /><line stroke="#333" stroke-width="10" x1="3173.0" x2="3269.0" y1="2551.0" y2="2263.0" /><line stroke="#333" stroke-width="10" x1="3269.0" x2="3173.0" y1="1495.0" y2="1591.0" /><line stroke="#333" stroke-width="10" x1="3397.0" x2="3269.0" y1="1399.0" y2="1495.0" /><line stroke="#666" stroke-width="20" x1="3493.0" x2="3397.0" y1="1431.0" y2="1399.0" /><line stroke="#333" stroke-width="10" x1="3493.0" x2="3493.0" y1="1623.0" y2="1431.0" /><line stroke="#333" stroke-width="10" x1="3397.0" x2="3493.0" y1="1815.0" y2="1623.0" /><line stroke="#333" stroke-width="10" x1="3269.0" x2="3397.0" y1="1879.0" y2="1815.0" /><line stroke="#999" stroke-width="3" x1="2597.0" x2="2885.0" y1="3383.0" y2="3223.0" /><line stroke="#333" stroke-width="10" x1="2885.0" x2="2885.0" y1="3255.0" y2="3223.0" /><line stroke="#00d" stroke-width="20" x1="2725.0" x2="2533.0" y1="3351.0" y2="3479.0" /><line stroke="#00d" stroke-width="20" x1="2533.0" x2="2373.0" y1="3479.0" y2="3575.0" /><line stroke="#333" stroke-width="10" x1="2357.0" x2="2373.0" y1="3551.0" y2="3575.0" /><line stroke="#333" stroke-width="10" x1="3141.0" x2="2885.0" y1="3191.0" y2="3255.0" /><line stroke="#333" stroke-width="10" x1="3365.0" x2="3301.0" y1="3639.0" y2="2839.0" /><line stroke="#666" stroke-width="20" x1="2501.0" x2="3005.0" y1="4151.0" y2="3959.0" /><line stroke="#333" stroke-width="10" x1="2149.0" x2="1797.0" y1="3767.0" y2="3735.0" /><line stroke="#333" stroke-width="10" x1="2373.0" x2="2149.0" y1="3575.0" y2="3767.0" /><line stroke="#00d" stroke-width="20" x1="2885.0" x2="2725.0" y1="3255.0" y2="3351.0" /><line stroke="#333" stroke-width="10" x1="1797.0" x2="1797.0" y1="3735.0" y2="3863.0" /><line stroke="#333" stroke-width="10" x1="3141.0" x2="3141.0" y1="2839.0" y2="3191.0" /><line stroke="#333" stroke-width="10" x1="1797.0" x2="2501.0" y1="3863.0" y2="4151.0" /><line stroke="#333" stroke-width="10" x1="3301.0" x2="3141.0" y1="2839.0" y2="2839.0" /><line stroke="#999" stroke-width="3" x1="2597.0" x2="2597.0" y1="3783.0" y2="3831.0" /><line stroke="#999" stroke-width="3" x1="2597.0" x2="2541.0" y1="3831.0" y2="3831.0" /><line stroke="#999" stroke-width="3" x1="2541.0" x2="2541.0" y1="3831.0" y2="3847.0" /><line stroke="#999" stroke-width="3" x1="2541.0" x2="2597.0" y1="3847.0" y2="3847.0" /><line stroke="#999" stroke-width="3" x1="2597.0" x2="2597.0" y1="3847.0" y2="3863.0" /><line stroke="#999" stroke-width="3" x1="2597.0" x2="2525.0" y1="3863.0" y2="3863.0" /><line stroke="#999" stroke-width="3" x1="2525.0" x2="2525.0" y1="3863.0" y2="3815.0" /><line stroke="#999" stroke-width="3" x1="2525.0" x2="2581.0" y1="3815.0" y2="3815.0" /><line stroke="#999" stroke-width="3" x1="2581.0" x2="2581.0" y1="3815.0" y2="3799.0" /><line stroke="#999" stroke-width="3" x1="2581.0" x2="2525.0" y1="3799.0" y2="3799.0" /><line stroke="#999" stroke-width="3" x1="2525.0" x2="2525.0" y1="3799.0" y2="3783.0" /><line stroke="#999" stroke-width="3" x1="2525.0" x2="2597.0" y1="3783.0" y2="3783.0" /><line stroke="#999" stroke-width="3" x1="2677.0" x2="2677.0" y1="3863.0" y2="3831.0" /><line stroke="#999" stroke-width="3" x1="2677.0" x2="2645.0" y1="3831.0" y2="3831.0" /><line stroke="#999" stroke-width="3" x1="2645.0" x2="2645.0" y1="3831.0" y2="3863.0" /><line stroke="#999" stroke-width="3" x1="2645.0" x2="2629.0" y1="3863.0" y2="3863.0" /><line stroke="#999" stroke-width="3" x1="2629.0" x2="2629.0" y1="3863.0" y2="3783.0" /><line stroke="#999" stroke-width="3" x1="2629.0" x2="2645.0" y1="3783.0" y2="3783.0" /><line stroke="#999" stroke-width="3" x1="2645.0" x2="2645.0" y1="3783.0" y2="3815.0" /><line stroke="#999" stroke-width="3" x1="2677.0" x2="2693.0" y1="3783.0" y2="3783.0" /><line stroke="#999" stroke-width="3" x1="2693.0" x2="2693.0" y1="3783.0" y2="3863.0" /><line stroke="#999" stroke-width="3" x1="2693.0" x2="2677.0" y1="3863.0" y2="3863.0" /><line stroke="#999" stroke-width="3" x1="2645.0" x2="2677.0" y1="3815.0" y2="3815.0" /><line stroke="#999" stroke-width="3" x1="2677.0" x2="2677.0" y1="3815.0" y2="3783.0" /><line stroke="#999" stroke-width="3" x1="2789.0" x2="2725.0" y1="3863.0" y2="3863.0" /><line stroke="#999" stroke-width="3" x1="2725.0" x2="2725.0" y1="3863.0" y2="3783.0" /><line stroke="#999" stroke-width="3" x1="2725.0" x2="2789.0" y1="3783.0" y2="3783.0" /><line stroke="#999" stroke-width="3" x1="2789.0" x2="2789.0" y1="3783.0" y2="3863.0" /><line stroke="#999" stroke-width="3" x1="2741.0" x2="2773.0" y1="3847.0" y2="3847.0" /><line stroke="#999" stroke-width="3" x1="2741.0" x2="2741.0" y1="3799.0" y2="3847.0" /><line stroke="#999" stroke-width="3" x1="2773.0" x2="2741.0" y1="3799.0" y2="3799.0" /><line stroke="#999" stroke-width="3" x1="2773.0" x2="2773.0" y1="3847.0" y2="3799.0" /><line stroke="#999" stroke-width="3" x1="2885.0" x2="2821.0" y1="3863.0" y2="3863.0" /><line stroke="#999" stroke-width="3" x1="2821.0" x2="2821.0" y1="3863.0" y2="3783.0" /><line stroke="#999" stroke-width="3" x1="2821.0" x2="2885.0" y1="3783.0" y2="3783.0" /><line stroke="#999" stroke-width="3" x1="2885.0" x2="2885.0" y1="3783.0" y2="3863.0" /><line stroke="#999" stroke-width="3" x1="2837.0" x2="2869.0" y1="3847.0" y2="3847.0" /><line stroke="#999" stroke-width="3" x1="2837.0" x2="2837.0" y1="3799.0" y2="3847.0" /><line stroke="#999" stroke-width="3" x1="2869.0" x2="2837.0" y1="3799.0" y2="3799.0" /><line stroke="#999" stroke-width="3" x1="2869.0" x2="2869.0" y1="3847.0" y2="3799.0" /><line stroke="#999" stroke-width="3" x1="2965.0" x2="2997.0" y1="3847.0" y2="3847.0" /><line stroke="#999" stroke-width="3" x1="2997.0" x2="2997.0" y1="3847.0" y2="3863.0" /><line stroke="#999" stroke-width="3" x1="2997.0" x2="2917.0" y1="3863.0" y2="3863.0" /><line stroke="#999" stroke-width="3" x1="2917.0" x2="2917.0" y1="3863.0" y2="3847.0" /><line stroke="#999" stroke-width="3" x1="2917.0" x2="2949.0" y1="3847.0" y2="3847.0" /><line stroke="#999" stroke-width="3" x1="2949.0" x2="2949.0" y1="3847.0" y2="3783.0" /><line stroke="#999" stroke-width="3" x1="2949.0" x2="2965.0" y1="3783.0" y2="3783.0" /><line stroke="#999" stroke-width="3" x1="2965.0" x2="2965.0" y1="3783.0" y2="3847.0" /><line stroke="#666" stroke-width="20" x1="3005.0" x2="3365.0" y1="3959.0" y2="3639.0" /><line stroke="#999" stroke-width="3" x1="2989.0" x2="2997.0" y1="3743.0" y2="3703.0" /><line stroke="#999" stroke-width="3" x1="2997.0" x2="2957.0" y1="3703.0" y2="3711.0" /><line stroke="#999" stroke-width="3" x1="2957.0" x2="2933.0" y1="3711.0" y2="3767.0" /><line stroke="#999" stroke-width="3" x1="2933.0" x2="2901.0" y1="3767.0" y2="3767.0" /><line stroke="#999" stroke-width="3" x1="2901.0" x2="2917.0" y1="3767.0" y2="3703.0" /><line stroke="#999" stroke-width="3" x1="2917.0" x2="2949.0" y1="3703.0" y2="3671.0" /><line stroke="#999" stroke-width="3" x1="2949.0" x2="2997.0" y1="3671.0" y2="3663.0" /><line stroke="#999" stroke-width="3" x1="2997.0" x2="2989.0" y1="3663.0" y2="3623.0" /><line stroke="#999" stroke-width="3" x1="2989.0" x2="3045.0" y1="3623.0" y2="3687.0" /><line stroke="#999" stroke-width="3" x1="3045.0" x2="2989.0" y1="3687.0" y2="3743.0" /><line stroke="#333" stroke-width="10" x1="1861.0" x2="1829.0" y1="599.0" y2="663.0" /><line stroke="#999" stroke-width="3" x1="2373.0" x2="1861.0" y1="727.0" y2="599.0" /><line stroke="#999" stroke-width="3" x1="2885.0" x2="2373.0" y1="1047.0" y2="727.0" /><line stroke="#333" stroke-width="10" x1="2885.0" x2="2885.0" y1="1111.0" y2="1047.0" /><line stroke="#333" stroke-width="10" x1="1861.0" x2="1861.0" y1="535.0" y2="599.0" /><line stroke="#999" stroke-width="3" x1="1861.0" x2="2405.0" y1="535.0" y2="663.0" /><line stroke="#999" stroke-width="3" x1="2405.0" x2="2917.0" y1="663.0" y2="1015.0" /><line stroke="#333" stroke-width="10" x1="2885.0" x2="2917.0" y1="1047.0" y2="1015.0" /><line stroke="#333" stroke-width="10" x1="1829.0" x2="1861.0" y1="471.0" y2="535.0" /><line stroke="#999" stroke-width="3" x1="2437.0" x2="1829.0" y1="599.0" y2="471.0" /><line stroke="#999" stroke-width="3" x1="2981.0" x2="2437.0" y1="983.0" y2="599.0" /><line stroke="#333" stroke-width="10" x1="2917.0" x2="2981.0" y1="1015.0" y2="983.0" /><line stroke="#333" stroke-width="10" x1="1797.0" x2="1205.0" y1="663.0" y2="775.0" /><line stroke="#333" stroke-width="10" x1="1829.0" x2="1829.0" y1="343.0" y2="471.0" /><line stroke="#333" stroke-width="10" x1="2821.0" x2="2257.0" y1="143.0" y2="5.0" /><line stroke="#333" stroke-width="10" x1="3109.0" x2="3193.0" y1="855.0" y2="437.0" /><line stroke="#333" stroke-width="10" x1="3433.0" x2="3109.0" y1="1222.0" y2="855.0" /><line stroke="#0d0" stroke-width="20" x1="3333.0" x2="3433.0" y1="1335.0" y2="1222.0" /><line stroke="#333" stroke-width="10" x1="2981.0" x2="3333.0" y1="983.0" y2="1335.0" /><line stroke="#333" stroke-width="10" x1="2257.0" x2="1829.0" y1="5.0" y2="343.0" /><line stroke="#333" stroke-width="10" x1="3193.0" x2="2821.0" y1="437.0" y2="143.0" /><line stroke="#333" stroke-width="10" x1="2245.0" x2="2565.0" y1="3191.0" y2="2967.0" /><line stroke="#333" stroke-width="10" x1="2565.0" x2="2709.0" y1="2967.0" y2="3031.0" /><line stroke="#333" stroke-width="10" x1="2709.0" x2="2693.0" y1="3031.0" y2="3079.0" /><line stroke="#333" stroke-width="10" x1="2245.0" x2="2245.0" y1="3415.0" y2="3191.0" /><line stroke="#333" stroke-width="10" x1="2293.0" x2="2245.0" y1="3383.0" y2="3415.0" /><line stroke="#333" stroke-width="10" x1="2693.0" x2="2565.0" y1="3079.0" y2="2999.0" /><line stroke="#333" stroke-width="10" x1="2277.0" x2="2293.0" y1="3207.0" y2="3383.0" /><line stroke="#333" stroke-width="10" x1="2565.0" x2="2277.0" y1="2999.0" y2="3207.0" /><line stroke="#333" stroke-width="10" x1="3973.0" x2="3941.0" y1="2007.0" y2="2007.0" /><line stroke="#666" stroke-width="20" x1="3973.0" x2="3973.0" y1="2007.0" y2="2135.0" /><line stroke="#333" stroke-width="10" x1="3941.0" x2="3973.0" y1="2135.0" y2="2135.0" /><line stroke="#333" stroke-width="10" x1="4037.0" x2="3973.0" y1="1975.0" y2="2007.0" /><line stroke="#333" stroke-width="10" x1="4101.0" x2="4037.0" y1="2007.0" y2="1975.0" /><line stroke="#333" stroke-width="10" x1="4101.0" x2="4101.0" y1="2135.0" y2="2007.0" /><line stroke="#333" stroke-width="10" x1="4037.0" x2="4101.0" y1="2167.0" y2="2135.0" /><line stroke="#333" stroke-width="10" x1="3973.0" x2="4037.0" y1="2135.0" y2="2167.0" /><line stroke="#333" stroke-width="10" x1="261.0" x2="397.0" y1="2199.0" y2="2735.0" /><line stroke="#333" stroke-width="10" x1="5.0" x2="261.0" y1="2199.0" y2="2199.0" /><line stroke="#333" stroke-width="10" x1="5.0" x2="5.0" y1="2071.0" y2="2199.0" /><line stroke="#333" stroke-width="10" x1="261.0" x2="5.0" y1="2071.0" y2="2071.0" /><ellipse cx="1797.0" cy="3223.0" fill="#009" rx="12" ry="24" stroke="#009" stroke-width="5" /><rect fill="#900" height="48" stroke="#900" stroke-width="5" transform="rotate(270,1797.0,2839.0)" width="32" x="1781.0" y="2815.0" /><rect fill="#900" height="48" stroke="#900" stroke-width="5" transform="rotate(90,2325.0,3239.0)" width="32" x="2309.0" y="3215.0" /><circle cx="1797.0" cy="3095.0" fill="#009" r="16" stroke="#009" stroke-width="5" /><rect fill="#900" height="48" stroke="#900" stroke-width="5" transform="rotate(270,1989.0,2679.0)" width="32" x="1973.0" y="2655.0" /><rect fill="#900" height="48" stroke="#900" stroke-width="5" transform="rotate(270,1637.0,2679.0)" width="32" x="1621.0" y="2655.0" /><rect fill="#900" height="48" stroke="#900" stroke-width="5" transform="rotate(270,1541.0,2839.0)" width="32" x="1525.0" y="2815.0" /><rect fill="#900" height="48" stroke="#900" stroke-width="5" transform="rotate(270,1189.0,2679.0)" width="32" x="1173.0" y="2655.0" /><rect fill="#900" height="48" stroke="#900" stroke-width="5" transform="rotate(270,1381.0,2231.0)" width="32" x="1365.0" y="2207.0" /><rect fill="#900" height="48" stroke="#900" stroke-width="5" transform="rotate(270,1701.0,2071.0)" width="32" x="1685.0" y="2047.0" /><rect fill="#900" height="48" stroke="#900" stroke-width="5" transform="rotate(270,2213.0,2231.0)" width="32" x="2197.0" y="2207.0" /><rect fill="#900" height="48" stroke="#900" stroke-width="5" transform="rotate(270,2405.0,2679.0)" width="32" x="2389.0" y="2655.0" /><rect fill="#900" height="48" stroke="#900" stroke-width="5" transform="rotate(270,1797.0,1991.0)" width="32" x="1781.0" y="1967.0" /><rect fill="#900" height="48" stroke="#900" stroke-width="5" transform="rotate(270,1413.0,2775.0)" width="32" x="1397.0" y="2751.0" /><rect fill="#900" height="48" stroke="#900" stroke-width="5" transform="rotate(270,2181.0,2775.0)" width="32" x="2165.0" y="2751.0" /><rect fill="#900" height="48" stroke="#900" stroke-width="5" transform="rotate(270,2341.0,2071.0)" width="32" x="2325.0" y="2047.0" /><rect fill="#900" height="48" stroke="#900" stroke-width="5" transform="rotate(270,1253.0,2071.0)" width="32" x="1237.0" y="2047.0" /><rect fill="#900" height="48" stroke="#900" stroke-width="5" transform="rotate(270,1189.0,2231.0)" width="32" x="1173.0" y="2207.0" /><rect fill="#900" height="48" stroke="#900" stroke-width="5" transform="rotate(270,1637.0,2487.0)" width="32" x="1621.0" y="2463.0" /><rect fill="#900" height="48" stroke="#900" stroke-width="5" transform="rotate(270,1957.0,2487.0)" width="32" x="1941.0" y="2463.0" /><rect fill="#900" height="48" stroke="#900" stroke-width="5" transform="rotate(270,2213.0,1911.0)" width="32" x="2197.0" y="1887.0" /><rect fill="#900" height="48" stroke="#900" stroke-width="5" transform="rotate(270,1893.0,2071.0)" width="32" x="1877.0" y="2047.0" /><rect fill="#900" height="48" stroke="#900" stroke-width="5" transform="rotate(270,2213.0,2487.0)" width="32" x="2197.0" y="2463.0" /><rect fill="#900" height="48" stroke="#900" stroke-width="5" transform="rotate(270,1381.0,2487.0)" width="32" x="1365.0" y="2463.0" /><rect fill="#900" height="48" stroke="#900" stroke-width="5" transform="rotate(270,1189.0,1463.0)" width="32" x="1173.0" y="1439.0" /><rect fill="#900" height="48" stroke="#900" stroke-width="5" transform="rotate(270,1189.0,1911.0)" width="32" x="1173.0" y="1887.0" /><rect fill="#900" height="48" stroke="#900" stroke-width="5" transform="rotate(270,2405.0,1463.0)" width="32" x="2389.0" y="1439.0" /><rect fill="#900" height="48" stroke="#900" stroke-width="5" transform="rotate(270,1381.0,1655.0)" width="32" x="1365.0" y="1631.0" /><rect fill="#900" height="48" stroke="#900" stroke-width="5" transform="rotate(270,1637.0,1655.0)" width="32" x="1621.0" y="1631.0" /><rect fill="#900" height="48" stroke="#900" stroke-width="5" transform="rotate(270,1957.0,1655.0)" width="32" x="1941.0" y="1631.0" /><rect fill="#900" height="48" stroke="#900" stroke-width="5" transform="rotate(270,2213.0,1655.0)" width="32" x="2197.0" y="1631.0" /><rect fill="#900" height="48" stroke="#900" stroke-width="5" transform="rotate(270,2405.0,1911.0)" width="32" x="2389.0" y="1887.0" /><rect fill="#900" height="48" stroke="#900" stroke-width="5" transform="rotate(270,1637.0,1463.0)" width="32" x="1621.0" y="1439.0" /><rect fill="#900" height="48" stroke="#900" stroke-width="5" transform="rotate(270,1957.0,1463.0)" width="32" x="1941.0" y="1439.0" /><rect fill="#900" height="48" stroke="#900" stroke-width="5" transform="rotate(270,1381.0,1911.0)" width="32" x="1365.0" y="1887.0" /><rect fill="#900" height="48" stroke="#900" stroke-width="5" transform="rotate(270,2405.0,2231.0)" width="32" x="2389.0" y="2207.0" /><circle cx="1629.0" cy="1903.0" fill="#009" r="16" stroke="#009" stroke-width="5" /><circle cx="1797.0" cy="2071.0" fill="#009" r="16" stroke="#009" stroke-width="5" /><circle cx="3493.0" cy="1911.0" fill="#900" r="16" stroke="#900" stroke-width="5" /><circle cx="3493.0" cy="2231.0" fill="#090" r="16" stroke="#090" stroke-width="5" /><rect fill="#009" height="24" stroke="#009" stroke-width="5" transform="rotate(0,1505.0,1999.0)" width="24" x="1493.0" y="1987.0" /><rect fill="#009" height="24" stroke="#009" stroke-width="5" transform="rotate(0,2096.0,1654.0)" width="24" x="2084.0" y="1642.0" /><rect fill="#009" height="24" stroke="#009" stroke-width="5" transform="rotate(0,2091.0,2489.0)" width="24" x="2079.0" y="2477.0" /><rect fill="#009" height="24" stroke="#009" stroke-width="5" transform="rotate(0,1801.0,2335.0)" width="24" x="1789.0" y="2323.0" /><rect fill="#900" height="48" stroke="#900" stroke-width="5" transform="rotate(270,2661.0,3639.0)" width="32" x="2645.0" y="3615.0" /><rect fill="#900" height="48" stroke="#900" stroke-width="5" transform="rotate(270,2873.0,3391.0)" width="32" x="2857.0" y="3367.0" /><rect fill="#900" height="48" stroke="#900" stroke-width="5" transform="rotate(270,2505.0,3767.0)" width="32" x="2489.0" y="3743.0" /><rect fill="#900" height="48" stroke="#900" stroke-width="5" transform="rotate(270,2437.0,3863.0)" width="32" x="2421.0" y="3839.0" /><rect fill="#900" height="48" stroke="#900" stroke-width="5" transform="rotate(270,2341.0,3735.0)" width="32" x="2325.0" y="3711.0" /><rect fill="#900" height="48" stroke="#900" stroke-width="5" transform="rotate(270,2649.0,3839.0)" width="32" x="2633.0" y="3815.0" /><rect fill="#900" height="48" stroke="#900" stroke-width="5" transform="rotate(270,2865.0,3599.0)" width="32" x="2849.0" y="3575.0" /><rect fill="#900" height="48" stroke="#900" stroke-width="5" transform="rotate(270,2761.0,3767.0)" width="32" x="2745.0" y="3743.0" /><rect fill="#900" height="48" stroke="#900" stroke-width="5" transform="rotate(270,2533.0,3927.0)" width="32" x="2517.0" y="3903.0" /><rect fill="#900" height="48" stroke="#900" stroke-width="5" transform="rotate(270,2601.0,3719.0)" width="32" x="2585.0" y="3695.0" /><rect fill="#900" height="48" stroke="#900" stroke-width="5" transform="rotate(270,2785.0,3527.0)" width="32" x="2769.0" y="3503.0" /><rect fill="#900" height="48" stroke="#900" stroke-width="5" transform="rotate(270,2905.0,3511.0)" width="32" x="2889.0" y="3487.0" /><rect fill="#900" height="48" stroke="#900" stroke-width="5" transform="rotate(270,2481.0,3623.0)" width="32" x="2465.0" y="3599.0" /><rect fill="#900" height="48" stroke="#900" stroke-width="5" transform="rotate(270,2609.0,3567.0)" width="32" x="2593.0" y="3543.0" /><rect fill="#900" height="48" stroke="#900" stroke-width="5" transform="rotate(270,2689.0,3487.0)" width="32" x="2673.0" y="3463.0" /><rect fill="#900" height="48" stroke="#900" stroke-width="5" transform="rotate(270,2769.0,3423.0)" width="32" x="2753.0" y="3399.0" /><rect fill="#900" height="48" stroke="#900" stroke-width="5" transform="rotate(270,2801.0,3671.0)" width="32" x="2785.0" y="3647.0" /><rect fill="#900" height="48" stroke="#900" stroke-width="5" transform="rotate(270,2553.0,3823.0)" width="32" x="2537.0" y="3799.0" /><rect fill="#900" height="48" stroke="#900" stroke-width="5" transform="rotate(270,2117.0,3895.0)" width="32" x="2101.0" y="3871.0" /><rect fill="#900" height="48" stroke="#900" stroke-width="5" transform="rotate(270,2373.0,3671.0)" width="32" x="2357.0" y="3647.0" /><rect fill="#900" height="48" stroke="#900" stroke-width="5" transform="rotate(270,2469.0,3703.0)" width="32" x="2453.0" y="3679.0" /><rect fill="#900" height="48" stroke="#900" stroke-width="5" transform="rotate(270,2565.0,3671.0)" width="32" x="2549.0" y="3647.0" /><rect fill="#900" height="48" stroke="#900" stroke-width="5" transform="rotate(270,2681.0,3735.0)" width="32" x="2665.0" y="3711.0" /><rect fill="#900" height="48" stroke="#900" stroke-width="5" transform="rotate(270,3237.0,2935.0)" width="32" x="3221.0" y="2911.0" /><rect fill="#900" height="48" stroke="#900" stroke-width="5" transform="rotate(270,3237.0,3063.0)" width="32" x="3221.0" y="3039.0" /><rect fill="#900" height="48" stroke="#900" stroke-width="5" transform="rotate(270,3209.0,3191.0)" width="32" x="3193.0" y="3167.0" /><rect fill="#900" height="48" stroke="#900" stroke-width="5" transform="rotate(270,1861.0,3831.0)" width="32" x="1845.0" y="3807.0" /><rect fill="#900" height="48" stroke="#900" stroke-width="5" transform="rotate(270,1957.0,3831.0)" width="32" x="1941.0" y="3807.0" /><rect fill="#900" height="48" stroke="#900" stroke-width="5" transform="rotate(270,2053.0,3831.0)" width="32" x="2037.0" y="3807.0" /><rect fill="#900" height="48" stroke="#900" stroke-width="5" transform="rotate(270,2213.0,3831.0)" width="32" x="2197.0" y="3807.0" /><rect fill="#900" height="48" stroke="#900" stroke-width="5" transform="rotate(270,2309.0,3959.0)" width="32" x="2293.0" y="3935.0" /><rect fill="#900" height="48" stroke="#900" stroke-width="5" transform="rotate(270,2481.0,4007.0)" width="32" x="2465.0" y="3983.0" /><rect fill="#900" height="48" stroke="#900" stroke-width="5" transform="rotate(270,2769.0,3903.0)" width="32" x="2753.0" y="3879.0" /><rect fill="#900" height="48" stroke="#900" stroke-width="5" transform="rotate(270,2937.0,3783.0)" width="32" x="2921.0" y="3759.0" /><rect fill="#900" height="48" stroke="#900" stroke-width="5" transform="rotate(270,3033.0,3647.0)" width="32" x="3017.0" y="3623.0" /><rect fill="#900" height="48" stroke="#900" stroke-width="5" transform="rotate(270,3049.0,3479.0)" width="32" x="3033.0" y="3455.0" /><rect fill="#900" height="48" stroke="#900" stroke-width="5" transform="rotate(270,3049.0,3327.0)" width="32" x="3033.0" y="3303.0" /><rect fill="#900" height="48" stroke="#900" stroke-width="5" transform="rotate(270,3217.0,3367.0)" width="32" x="3201.0" y="3343.0" /><rect fill="#900" height="48" stroke="#900" stroke-width="5" transform="rotate(270,3225.0,3599.0)" width="32" x="3209.0" y="3575.0" /><rect fill="#900" height="48" stroke="#900" stroke-width="5" transform="rotate(270,3137.0,3511.0)" width="32" x="3121.0" y="3487.0" /><rect fill="#900" height="48" stroke="#900" stroke-width="5" transform="rotate(270,2913.0,3703.0)" width="32" x="2897.0" y="3679.0" /><rect fill="#900" height="48" stroke="#900" stroke-width="5" transform="rotate(270,2625.0,3967.0)" width="32" x="2609.0" y="3943.0" /><rect fill="#900" height="48" stroke="#900" stroke-width="5" transform="rotate(270,2289.0,3831.0)" width="32" x="2273.0" y="3807.0" /><rect fill="#900" height="48" stroke="#900" stroke-width="5" transform="rotate(90,1907.0,427.0)" width="32" x="1891.0" y="403.0" /><rect fill="#900" height="48" stroke="#900" stroke-width="5" transform="rotate(135,2995.0,911.0)" width="32" x="2979.0" y="887.0" /><rect fill="#900" height="48" stroke="#900" stroke-width="5" transform="rotate(90,2181.0,473.0)" width="32" x="2165.0" y="449.0" /><rect fill="#900" height="48" stroke="#900" stroke-width="5" transform="rotate(90,2839.0,809.0)" width="32" x="2823.0" y="785.0" /><rect fill="#900" height="48" stroke="#900" stroke-width="5" transform="rotate(90,2469.0,407.0)" width="32" x="2453.0" y="383.0" /><rect fill="#900" height="48" stroke="#900" stroke-width="5" transform="rotate(90,2227.0,209.0)" width="32" x="2211.0" y="185.0" /><rect fill="#900" height="48" stroke="#900" stroke-width="5" transform="rotate(135,3055.0,509.0)" width="32" x="3039.0" y="485.0" /><rect fill="#900" height="48" stroke="#900" stroke-width="5" transform="rotate(225,3331.0,1221.0)" width="32" x="3315.0" y="1197.0" /><rect fill="#900" height="48" stroke="#900" stroke-width="5" transform="rotate(225,3265.0,1139.0)" width="32" x="3249.0" y="1115.0" /><rect fill="#900" height="48" stroke="#900" stroke-width="5" transform="rotate(225,3199.0,1073.0)" width="32" x="3183.0" y="1049.0" /><rect fill="#900" height="48" stroke="#900" stroke-width="5" transform="rotate(225,3109.0,1001.0)" width="32" x="3093.0" y="977.0" /><circle cx="3745.0" cy="2079.0" fill="#009" r="16" stroke="#009" stroke-width="5" /><rect fill="#900" height="48" stroke="#900" stroke-width="5" transform="rotate(270,3173.0,3703.0)" width="32" x="3157.0" y="3679.0" /><rect fill="#900" height="48" stroke="#900" stroke-width="5" transform="rotate(270,3077.0,3799.0)" width="32" x="3061.0" y="3775.0" /><rect fill="#900" height="48" stroke="#900" stroke-width="5" transform="rotate(270,2885.0,3927.0)" width="32" x="2869.0" y="3903.0" /><rect fill="#900" height="48" stroke="#900" stroke-width="5" transform="rotate(270,2725.0,3991.0)" width="32" x="2709.0" y="3967.0" /><rect fill="#900" height="48" stroke="#900" stroke-width="5" transform="rotate(270,2565.0,4055.0)" width="32" x="2549.0" y="4031.0" /><rect fill="#900" height="48" stroke="#900" stroke-width="5" transform="rotate(90,2936.0,356.0)" width="32" x="2920.0" y="332.0" /><rect fill="#900" height="48" stroke="#900" stroke-width="5" transform="rotate(90,2053.0,439.0)" width="32" x="2037.0" y="415.0" /><rect fill="#900" height="48" stroke="#900" stroke-width="5" transform="rotate(90,2757.0,567.0)" width="32" x="2741.0" y="543.0" /><rect fill="#900" height="48" stroke="#900" stroke-width="5" transform="rotate(90,2981.0,695.0)" width="32" x="2965.0" y="671.0" /><rect fill="#900" height="48" stroke="#900" stroke-width="5" transform="rotate(90,3013.0,791.0)" width="32" x="2997.0" y="767.0" /><rect fill="#900" height="48" stroke="#900" stroke-width="5" transform="rotate(90,2501.0,151.0)" width="32" x="2485.0" y="127.0" /><rect fill="#900" height="48" stroke="#900" stroke-width="5" transform="rotate(90,2661.0,215.0)" width="32" x="2645.0" y="191.0" /><rect fill="#900" height="48" stroke="#900" stroke-width="5" transform="rotate(90,2821.0,279.0)" width="32" x="2805.0" y="255.0" /><rect fill="#900" height="48" stroke="#900" stroke-width="5" transform="rotate(90,2056.0,312.0)" width="32" x="2040.0" y="288.0" /><rect fill="#900" height="48" stroke="#900" stroke-width="5" transform="rotate(90,1797.0,951.0)" width="32" x="1781.0" y="927.0" /><rect fill="#900" height="48" stroke="#900" stroke-width="5" transform="rotate(270,1797.0,1815.0)" width="32" x="1781.0" y="1791.0" /><rect fill="#900" height="48" stroke="#900" stroke-width="5" transform="rotate(270,869.0,2135.0)" width="32" x="853.0" y="2111.0" /><rect fill="#900" height="48" stroke="#900" stroke-width="5" transform="rotate(270,2117.0,2135.0)" width="32" x="2101.0" y="2111.0" /><rect fill="#900" height="48" stroke="#900" stroke-width="5" transform="rotate(270,1477.0,2135.0)" width="32" x="1461.0" y="2111.0" /><rect fill="#900" height="48" stroke="#900" stroke-width="5" transform="rotate(270,1669.0,2359.0)" width="32" x="1653.0" y="2335.0" /><rect fill="#900" height="48" stroke="#900" stroke-width="5" transform="rotate(270,1925.0,2359.0)" width="32" x="1909.0" y="2335.0" /><rect fill="#900" height="48" stroke="#900" stroke-width="5" transform="rotate(270,2789.0,2103.0)" width="32" x="2773.0" y="2079.0" /><rect fill="#900" height="48" stroke="#900" stroke-width="5" transform="rotate(270,2789.0,1591.0)" width="32" x="2773.0" y="1567.0" /><rect fill="#900" height="48" stroke="#900" stroke-width="5" transform="rotate(270,869.0,1591.0)" width="32" x="853.0" y="1567.0" /><rect fill="#900" height="48" stroke="#900" stroke-width="5" transform="rotate(270,869.0,2615.0)" width="32" x="853.0" y="2591.0" /><rect fill="#900" height="48" stroke="#900" stroke-width="5" transform="rotate(270,2789.0,2583.0)" width="32" x="2773.0" y="2559.0" /><rect fill="#900" height="48" stroke="#900" stroke-width="5" transform="rotate(0,2501.0,3127.0)" width="32" x="2485.0" y="3103.0" /><rect fill="#900" height="48" stroke="#900" stroke-width="5" transform="rotate(45,2581.0,3063.0)" width="32" x="2565.0" y="3039.0" /><rect fill="#900" height="48" stroke="#900" stroke-width="5" transform="rotate(90,2421.0,3175.0)" width="32" x="2405.0" y="3151.0" /><circle cx="1965.0" cy="2239.0" fill="#009" r="16" stroke="#009" stroke-width="5" /><rect fill="#090" height="24" stroke="#090" stroke-width="5" transform="rotate(315,1637.0,2231.0)" width="24" x="1625.0" y="2219.0" /><rect fill="#090" height="24" stroke="#090" stroke-width="5" transform="rotate(180,4037.0,2071.0)" width="24" x="4025.0" y="2059.0" /><rect fill="#090" height="24" stroke="#090" stroke-width="5" transform="rotate(0,613.0,2135.0)" width="24" x="601.0" y="2123.0" /><rect fill="#090" height="24" stroke="#090" stroke-width="5" transform="rotate(225,2609.0,3270.0)" width="24" x="2597.0" y="3258.0" /><rect fill="#090" height="24" stroke="#090" stroke-width="5" transform="rotate(270,1797.0,3287.0)" width="24" x="1785.0" y="3275.0" /><rect fill="#090" height="24" stroke="#090" stroke-width="5" transform="rotate(90,1797.0,1175.0)" width="24" x="1785.0" y="1163.0" /><circle cx="1797.0" cy="1367.0" fill="#009" r="16" stroke="#009" stroke-width="5" /><circle cx="1765.0" cy="2103.0" fill="#009" r="16" stroke="#009" stroke-width="5" /><circle cx="1253.0" cy="1527.0" fill="#900" r="16" stroke="#900" stroke-width="5" /><circle cx="2341.0" cy="2615.0" fill="#900" r="16" stroke="#900" stroke-width="5" /><circle cx="1893.0" cy="1975.0" fill="#900" r="16" stroke="#900" stroke-width="5" /><circle cx="2341.0" cy="1527.0" fill="#090" r="16" stroke="#090" stroke-width="5" /><circle cx="1253.0" cy="2615.0" fill="#090" r="16" stroke="#090" stroke-width="5" /><circle cx="1797.0" cy="1271.0" fill="#900" r="16" stroke="#900" stroke-width="5" /><circle cx="1701.0" cy="2167.0" fill="#900" r="16" stroke="#900" stroke-width="5" /><circle cx="1733.0" cy="2135.0" fill="#090" r="16" stroke="#090" stroke-width="5" /><rect fill="#090" height="24" stroke="#090" stroke-width="5" transform="rotate(135,1957.0,1911.0)" width="24" x="1945.0" y="1899.0" /><rect fill="#090" height="24" stroke="#090" stroke-width="5" transform="rotate(180,2981.0,2103.0)" width="24" x="2969.0" y="2091.0" /><rect fill="#090" height="24" stroke="#090" stroke-width="5" transform="rotate(315,997.0,2871.0)" width="24" x="985.0" y="2859.0" /><rect fill="#090" height="24" stroke="#090" stroke-width="5" transform="rotate(45,2021.0,2295.0)" width="24" x="2009.0" y="2283.0" /><ellipse cx="1669.0" cy="3223.0" fill="#009" rx="12" ry="24" stroke="#009" stroke-width="5" /><ellipse cx="1925.0" cy="3223.0" fill="#009" rx="12" ry="24" stroke="#009" stroke-width="5" /><ellipse cx="1797.0" cy="3351.0" fill="#009" rx="12" ry="24" stroke="#009" stroke-width="5" /></svg>