<?xml version="1.0" encoding="utf-8" ?>
<svg baseProfile="tiny" height="687" version="1.2" viewBox="0 0 778 522" width="1024" xmlns="http://www.w3.org/2000/svg" xmlns:ev="http://www.w3.org/2001/xml-events" xmlns:xlink="http://www.w3.org/1999/xlink"><defs /><line stroke="#333" stroke-width="10" x1="261.0" x2="773.0" y1="517.0" y2="517.0" /><line stroke="#333" stroke-width="10" x1="773.0" x2="773.0" y1="517.0" y2="5.0" /><line stroke="#333" stroke-width="10" x1="773.0" x2="261.0" y1="5.0" y2="5.0" /><line stroke="#333" stroke-width="10" x1="261.0" x2="261.0" y1="5.0" y2="133.0" /><line stroke="#0d0" stroke-width="20" x1="709.0" x2="645.0" y1="69.0" y2="69.0" /><line stroke="#0d0" stroke-width="20" x1="709.0" x2="709.0" y1="133.0" y2="69.0" /><line stroke="#0d0" stroke-width="20" x1="645.0" x2="709.0" y1="133.0" y2="133.0" /><line stroke="#0d0" stroke-width="20" x1="645.0" x2="645.0" y1="69.0" y2="133.0" /><line stroke="#333" stroke-width="10" x1="261.0" x2="261.0" y1="261.0" y2="325.0" /><line stroke="#333" stroke-width="10" x1="261.0" x2="517.0" y1="133.0" y2="133.0" /><line stroke="#333" stroke-width="10" x1="517.0" x2="261.0" y1="261.0" y2="261.0" /><line stroke="#333" stroke-width="10" x1="517.0" x2="517.0" y1="133.0" y2="261.0" /><line stroke="#333" stroke-width="10" x1="261.0" x2="5.0" y1="325.0" y2="325.0" /><line stroke="#333" stroke-width="10" x1="261.0" x2="261.0" y1="453.0" y2="517.0" /><line stroke="#333" stroke-width="10" x1="5.0" x2="5.0" y1="325.0" y2="453.0" /><line stroke="#333" stroke-width="10" x1="5.0" x2="261.0" y1="453.0" y2="453.0" /><ellipse cx="677.0" cy="101.0" fill="#009" rx="12" ry="24" stroke="#009" stroke-width="5" /><circle cx="677.0" cy="229.0" fill="#900" r="16" stroke="#900" stroke-width="5" /><rect fill="#900" height="48" stroke="#900" stroke-width="5" transform="rotate(315,197.0,389.0)" width="32" x="181.0" y="365.0" /><rect fill="#900" height="48" stroke="#900" stroke-width="5" transform="rotate(315,293.0,421.0)" width="32" x="277.0" y="397.0" /><rect fill="#900" height="48" stroke="#900" stroke-width="5" transform="rotate(315,357.0,453.0)" width="32" x="341.0" y="429.0" /></svg>