<?xml version="1.0" encoding="utf-8" ?>
<svg baseProfile="tiny" height="643" version="1.2" viewBox="0 0 2410 1514" width="1024" xmlns="http://www.w3.org/2000/svg" xmlns:ev="http://www.w3.org/2001/xml-events" xmlns:xlink="http://www.w3.org/1999/xlink"><defs /><line stroke="#333" stroke-width="10" x1="5.0" x2="37.0" y1="1061.0" y2="1061.0" /><line stroke="#999" stroke-width="3" x1="133.0" x2="133.0" y1="1061.0" y2="165.0" /><line stroke="#333" stroke-width="10" x1="133.0" x2="165.0" y1="165.0" y2="133.0" /><line stroke="#333" stroke-width="10" x1="5.0" x2="5.0" y1="165.0" y2="1061.0" /><line stroke="#333" stroke-width="10" x1="261.0" x2="389.0" y1="1061.0" y2="1061.0" /><line stroke="#333" stroke-width="10" x1="389.0" x2="389.0" y1="1061.0" y2="165.0" /><line stroke="#333" stroke-width="10" x1="389.0" x2="261.0" y1="165.0" y2="165.0" /><line stroke="#999" stroke-width="3" x1="261.0" x2="261.0" y1="165.0" y2="1061.0" /><line stroke="#333" stroke-width="10" x1="133.0" x2="261.0" y1="1061.0" y2="1061.0" /><line stroke="#333" stroke-width="10" x1="261.0" x2="133.0" y1="165.0" y2="165.0" /><line stroke="#999" stroke-width="3" x1="293.0" x2="357.0" y1="965.0" y2="965.0" /><line stroke="#999" stroke-width="3" x1="357.0" x2="357.0" y1="965.0" y2="1029.0" /><line stroke="#999" stroke-width="3" x1="357.0" x2="293.0" y1="1029.0" y2="1029.0" /><line stroke="#999" stroke-width="3" x1="293.0" x2="293.0" y1="1029.0" y2="965.0" /><line stroke="#999" stroke-width="3" x1="293.0" x2="293.0" y1="933.0" y2="869.0" /><line stroke="#999" stroke-width="3" x1="357.0" x2="293.0" y1="933.0" y2="933.0" /><line stroke="#999" stroke-width="3" x1="357.0" x2="357.0" y1="869.0" y2="933.0" /><line stroke="#999" stroke-width="3" x1="293.0" x2="357.0" y1="869.0" y2="869.0" /><line stroke="#999" stroke-width="3" x1="293.0" x2="293.0" y1="837.0" y2="773.0" /><line stroke="#999" stroke-width="3" x1="357.0" x2="293.0" y1="837.0" y2="837.0" /><line stroke="#999" stroke-width="3" x1="357.0" x2="357.0" y1="773.0" y2="837.0" /><line stroke="#999" stroke-width="3" x1="293.0" x2="357.0" y1="773.0" y2="773.0" /><line stroke="#999" stroke-width="3" x1="293.0" x2="293.0" y1="741.0" y2="677.0" /><line stroke="#999" stroke-width="3" x1="357.0" x2="293.0" y1="741.0" y2="741.0" /><line stroke="#999" stroke-width="3" x1="357.0" x2="357.0" y1="677.0" y2="741.0" /><line stroke="#999" stroke-width="3" x1="293.0" x2="357.0" y1="677.0" y2="677.0" /><line stroke="#999" stroke-width="3" x1="293.0" x2="293.0" y1="645.0" y2="581.0" /><line stroke="#999" stroke-width="3" x1="357.0" x2="293.0" y1="645.0" y2="645.0" /><line stroke="#999" stroke-width="3" x1="357.0" x2="357.0" y1="581.0" y2="645.0" /><line stroke="#999" stroke-width="3" x1="293.0" x2="357.0" y1="581.0" y2="581.0" /><line stroke="#999" stroke-width="3" x1="293.0" x2="293.0" y1="549.0" y2="485.0" /><line stroke="#999" stroke-width="3" x1="357.0" x2="293.0" y1="549.0" y2="549.0" /><line stroke="#999" stroke-width="3" x1="357.0" x2="357.0" y1="485.0" y2="549.0" /><line stroke="#999" stroke-width="3" x1="293.0" x2="357.0" y1="485.0" y2="485.0" /><line stroke="#999" stroke-width="3" x1="293.0" x2="293.0" y1="453.0" y2="389.0" /><line stroke="#999" stroke-width="3" x1="357.0" x2="293.0" y1="453.0" y2="453.0" /><line stroke="#999" stroke-width="3" x1="357.0" x2="357.0" y1="389.0" y2="453.0" /><line stroke="#999" stroke-width="3" x1="293.0" x2="357.0" y1="389.0" y2="389.0" /><line stroke="#999" stroke-width="3" x1="293.0" x2="293.0" y1="357.0" y2="293.0" /><line stroke="#999" stroke-width="3" x1="357.0" x2="293.0" y1="357.0" y2="357.0" /><line stroke="#999" stroke-width="3" x1="357.0" x2="357.0" y1="293.0" y2="357.0" /><line stroke="#999" stroke-width="3" x1="293.0" x2="357.0" y1="293.0" y2="293.0" /><line stroke="#999" stroke-width="3" x1="293.0" x2="293.0" y1="261.0" y2="197.0" /><line stroke="#999" stroke-width="3" x1="357.0" x2="293.0" y1="261.0" y2="261.0" /><line stroke="#999" stroke-width="3" x1="357.0" x2="357.0" y1="197.0" y2="261.0" /><line stroke="#999" stroke-width="3" x1="293.0" x2="357.0" y1="197.0" y2="197.0" /><line stroke="#333" stroke-width="10" x1="101.0" x2="133.0" y1="1061.0" y2="1061.0" /><line stroke="#999" stroke-width="3" x1="37.0" x2="101.0" y1="1061.0" y2="1061.0" /><line stroke="#d00" stroke-width="20" x1="37.0" x2="101.0" y1="1069.0" y2="1069.0" /><line stroke="#333" stroke-width="10" x1="101.0" x2="101.0" y1="1069.0" y2="1061.0" /><line stroke="#333" stroke-width="10" x1="37.0" x2="37.0" y1="1061.0" y2="1069.0" /><line stroke="#999" stroke-width="3" x1="37.0" x2="101.0" y1="1085.0" y2="1085.0" /><line stroke="#333" stroke-width="10" x1="101.0" x2="101.0" y1="1085.0" y2="1069.0" /><line stroke="#333" stroke-width="10" x1="37.0" x2="37.0" y1="1069.0" y2="1085.0" /><line stroke="#999" stroke-width="3" x1="85.0" x2="89.0" y1="1077.0" y2="1077.0" /><line stroke="#999" stroke-width="3" x1="89.0" x2="89.0" y1="1077.0" y2="1081.0" /><line stroke="#999" stroke-width="3" x1="89.0" x2="85.0" y1="1081.0" y2="1081.0" /><line stroke="#999" stroke-width="3" x1="85.0" x2="85.0" y1="1081.0" y2="1077.0" /><line stroke="#333" stroke-width="10" x1="133.0" x2="5.0" y1="5.0" y2="165.0" /><line stroke="#333" stroke-width="10" x1="165.0" x2="133.0" y1="5.0" y2="5.0" /><line stroke="#333" stroke-width="10" x1="165.0" x2="293.0" y1="133.0" y2="133.0" /><line stroke="#333" stroke-width="10" x1="453.0" x2="325.0" y1="5.0" y2="5.0" /><line stroke="#333" stroke-width="10" x1="453.0" x2="485.0" y1="133.0" y2="165.0" /><line stroke="#333" stroke-width="10" x1="485.0" x2="453.0" y1="5.0" y2="5.0" /><line stroke="#333" stroke-width="10" x1="485.0" x2="485.0" y1="165.0" y2="1061.0" /><line stroke="#333" stroke-width="10" x1="613.0" x2="485.0" y1="165.0" y2="5.0" /><line stroke="#333" stroke-width="10" x1="613.0" x2="613.0" y1="1061.0" y2="549.0" /><line stroke="#333" stroke-width="10" x1="485.0" x2="613.0" y1="1061.0" y2="1061.0" /><line stroke="#00d" stroke-width="20" x1="517.0" x2="581.0" y1="933.0" y2="933.0" /><line stroke="#00d" stroke-width="20" x1="581.0" x2="581.0" y1="933.0" y2="997.0" /><line stroke="#00d" stroke-width="20" x1="581.0" x2="517.0" y1="997.0" y2="997.0" /><line stroke="#00d" stroke-width="20" x1="517.0" x2="517.0" y1="997.0" y2="933.0" /><line stroke="#333" stroke-width="10" x1="325.0" x2="453.0" y1="133.0" y2="133.0" /><line stroke="#333" stroke-width="10" x1="293.0" x2="309.0" y1="133.0" y2="117.0" /><line stroke="#333" stroke-width="10" x1="325.0" x2="309.0" y1="5.0" y2="21.0" /><line stroke="#333" stroke-width="10" x1="293.0" x2="165.0" y1="5.0" y2="5.0" /><line stroke="#333" stroke-width="10" x1="309.0" x2="293.0" y1="21.0" y2="5.0" /><line stroke="#333" stroke-width="10" x1="309.0" x2="325.0" y1="117.0" y2="133.0" /><line stroke="#333" stroke-width="10" x1="773.0" x2="1285.0" y1="1509.0" y2="1509.0" /><line stroke="#333" stroke-width="10" x1="1285.0" x2="1285.0" y1="1509.0" y2="997.0" /><line stroke="#333" stroke-width="10" x1="1285.0" x2="773.0" y1="997.0" y2="997.0" /><line stroke="#333" stroke-width="10" x1="773.0" x2="773.0" y1="997.0" y2="1509.0" /><line stroke="#00d" stroke-width="20" x1="837.0" x2="837.0" y1="1125.0" y2="1061.0" /><line stroke="#00d" stroke-width="20" x1="901.0" x2="837.0" y1="1125.0" y2="1125.0" /><line stroke="#00d" stroke-width="20" x1="901.0" x2="901.0" y1="1061.0" y2="1125.0" /><line stroke="#00d" stroke-width="20" x1="837.0" x2="901.0" y1="1061.0" y2="1061.0" /><line stroke="#999" stroke-width="3" x1="1125.0" x2="1253.0" y1="1349.0" y2="1349.0" /><line stroke="#999" stroke-width="3" x1="1253.0" x2="1253.0" y1="1349.0" y2="1477.0" /><line stroke="#999" stroke-width="3" x1="1253.0" x2="1125.0" y1="1477.0" y2="1477.0" /><line stroke="#999" stroke-width="3" x1="1125.0" x2="1125.0" y1="1477.0" y2="1349.0" /><line stroke="#999" stroke-width="3" x1="837.0" x2="789.0" y1="1013.0" y2="1077.0" /><line stroke="#999" stroke-width="3" x1="1157.0" x2="1189.0" y1="1285.0" y2="1285.0" /><line stroke="#999" stroke-width="3" x1="1189.0" x2="1189.0" y1="1285.0" y2="1317.0" /><line stroke="#999" stroke-width="3" x1="1189.0" x2="1157.0" y1="1317.0" y2="1317.0" /><line stroke="#999" stroke-width="3" x1="1157.0" x2="1157.0" y1="1317.0" y2="1285.0" /><line stroke="#999" stroke-width="3" x1="1197.0" x2="1197.0" y1="1341.0" y2="1309.0" /><line stroke="#999" stroke-width="3" x1="1229.0" x2="1197.0" y1="1341.0" y2="1341.0" /><line stroke="#999" stroke-width="3" x1="1229.0" x2="1229.0" y1="1309.0" y2="1341.0" /><line stroke="#999" stroke-width="3" x1="1197.0" x2="1229.0" y1="1309.0" y2="1309.0" /><line stroke="#999" stroke-width="3" x1="1125.0" x2="1189.0" y1="1093.0" y2="1093.0" /><line stroke="#999" stroke-width="3" x1="1189.0" x2="1189.0" y1="1093.0" y2="1157.0" /><line stroke="#999" stroke-width="3" x1="1189.0" x2="1125.0" y1="1157.0" y2="1157.0" /><line stroke="#999" stroke-width="3" x1="1125.0" x2="1125.0" y1="1157.0" y2="1093.0" /><line stroke="#999" stroke-width="3" x1="1125.0" x2="1125.0" y1="1093.0" y2="1061.0" /><line stroke="#999" stroke-width="3" x1="1189.0" x2="1189.0" y1="1061.0" y2="1093.0" /><line stroke="#999" stroke-width="3" x1="1125.0" x2="1189.0" y1="1061.0" y2="1061.0" /><line stroke="#666" stroke-width="20" x1="1141.0" x2="1205.0" y1="1397.0" y2="1397.0" /><line stroke="#333" stroke-width="10" x1="1205.0" x2="1205.0" y1="1397.0" y2="1413.0" /><line stroke="#333" stroke-width="10" x1="1205.0" x2="1141.0" y1="1413.0" y2="1413.0" /><line stroke="#333" stroke-width="10" x1="1141.0" x2="1141.0" y1="1413.0" y2="1397.0" /><line stroke="#333" stroke-width="10" x1="613.0" x2="741.0" y1="549.0" y2="549.0" /><line stroke="#333" stroke-width="10" x1="613.0" x2="613.0" y1="293.0" y2="165.0" /><line stroke="#333" stroke-width="10" x1="741.0" x2="613.0" y1="293.0" y2="293.0" /><line stroke="#333" stroke-width="10" x1="741.0" x2="741.0" y1="549.0" y2="293.0" /><line stroke="#00d" stroke-width="20" x1="645.0" x2="645.0" y1="421.0" y2="357.0" /><line stroke="#00d" stroke-width="20" x1="709.0" x2="645.0" y1="421.0" y2="421.0" /><line stroke="#00d" stroke-width="20" x1="709.0" x2="709.0" y1="357.0" y2="421.0" /><line stroke="#00d" stroke-width="20" x1="645.0" x2="709.0" y1="357.0" y2="357.0" /><line stroke="#00d" stroke-width="20" x1="2309.0" x2="2373.0" y1="357.0" y2="357.0" /><line stroke="#00d" stroke-width="20" x1="2373.0" x2="2373.0" y1="357.0" y2="421.0" /><line stroke="#00d" stroke-width="20" x1="2373.0" x2="2309.0" y1="421.0" y2="421.0" /><line stroke="#00d" stroke-width="20" x1="2309.0" x2="2309.0" y1="421.0" y2="357.0" /><line stroke="#333" stroke-width="10" x1="2405.0" x2="2405.0" y1="549.0" y2="293.0" /><line stroke="#333" stroke-width="10" x1="2405.0" x2="2277.0" y1="293.0" y2="293.0" /><line stroke="#333" stroke-width="10" x1="2277.0" x2="2277.0" y1="293.0" y2="165.0" /><line stroke="#333" stroke-width="10" x1="2277.0" x2="2405.0" y1="549.0" y2="549.0" /><line stroke="#333" stroke-width="10" x1="1973.0" x2="1989.0" y1="117.0" y2="133.0" /><line stroke="#333" stroke-width="10" x1="1973.0" x2="1957.0" y1="21.0" y2="5.0" /><line stroke="#333" stroke-width="10" x1="1957.0" x2="1829.0" y1="5.0" y2="5.0" /><line stroke="#333" stroke-width="10" x1="1989.0" x2="1973.0" y1="5.0" y2="21.0" /><line stroke="#333" stroke-width="10" x1="1957.0" x2="1973.0" y1="133.0" y2="117.0" /><line stroke="#333" stroke-width="10" x1="1989.0" x2="2117.0" y1="133.0" y2="133.0" /><line stroke="#00d" stroke-width="20" x1="2181.0" x2="2181.0" y1="997.0" y2="933.0" /><line stroke="#00d" stroke-width="20" x1="2245.0" x2="2181.0" y1="997.0" y2="997.0" /><line stroke="#00d" stroke-width="20" x1="2245.0" x2="2245.0" y1="933.0" y2="997.0" /><line stroke="#00d" stroke-width="20" x1="2181.0" x2="2245.0" y1="933.0" y2="933.0" /><line stroke="#333" stroke-width="10" x1="2149.0" x2="2277.0" y1="1061.0" y2="1061.0" /><line stroke="#333" stroke-width="10" x1="2277.0" x2="2277.0" y1="1061.0" y2="549.0" /><line stroke="#333" stroke-width="10" x1="2277.0" x2="2149.0" y1="165.0" y2="5.0" /><line stroke="#333" stroke-width="10" x1="2149.0" x2="2149.0" y1="165.0" y2="1061.0" /><line stroke="#333" stroke-width="10" x1="2149.0" x2="2117.0" y1="5.0" y2="5.0" /><line stroke="#333" stroke-width="10" x1="2117.0" x2="2149.0" y1="133.0" y2="165.0" /><line stroke="#333" stroke-width="10" x1="2117.0" x2="1989.0" y1="5.0" y2="5.0" /><line stroke="#333" stroke-width="10" x1="1829.0" x2="1957.0" y1="133.0" y2="133.0" /><line stroke="#333" stroke-width="10" x1="1829.0" x2="1797.0" y1="5.0" y2="5.0" /><line stroke="#333" stroke-width="10" x1="1797.0" x2="1669.0" y1="5.0" y2="165.0" /><line stroke="#999" stroke-width="3" x1="1701.0" x2="1765.0" y1="1061.0" y2="1061.0" /><line stroke="#333" stroke-width="10" x1="1765.0" x2="1797.0" y1="1061.0" y2="1061.0" /><line stroke="#333" stroke-width="10" x1="1669.0" x2="1669.0" y1="165.0" y2="1061.0" /><line stroke="#333" stroke-width="10" x1="1797.0" x2="1829.0" y1="165.0" y2="133.0" /><line stroke="#333" stroke-width="10" x1="1797.0" x2="1797.0" y1="1061.0" y2="165.0" /><line stroke="#333" stroke-width="10" x1="1669.0" x2="1701.0" y1="1061.0" y2="1061.0" /><line stroke="#333" stroke-width="10" x1="1701.0" x2="1765.0" y1="1069.0" y2="1069.0" /><line stroke="#333" stroke-width="10" x1="1765.0" x2="1765.0" y1="1069.0" y2="1061.0" /><line stroke="#333" stroke-width="10" x1="1701.0" x2="1701.0" y1="1061.0" y2="1069.0" /><line stroke="#0d0" stroke-width="20" x1="37.0" x2="101.0" y1="1205.0" y2="1205.0" /><line stroke="#333" stroke-width="10" x1="101.0" x2="101.0" y1="1205.0" y2="1085.0" /><line stroke="#333" stroke-width="10" x1="37.0" x2="37.0" y1="1085.0" y2="1205.0" /><line stroke="#999" stroke-width="3" x1="39.0" x2="99.0" y1="1087.0" y2="1087.0" /><line stroke="#999" stroke-width="3" x1="99.0" x2="99.0" y1="1087.0" y2="1089.0" /><line stroke="#999" stroke-width="3" x1="99.0" x2="39.0" y1="1089.0" y2="1089.0" /><line stroke="#999" stroke-width="3" x1="39.0" x2="39.0" y1="1089.0" y2="1087.0" /><line stroke="#999" stroke-width="3" x1="39.0" x2="39.0" y1="1093.0" y2="1091.0" /><line stroke="#999" stroke-width="3" x1="99.0" x2="39.0" y1="1093.0" y2="1093.0" /><line stroke="#999" stroke-width="3" x1="99.0" x2="99.0" y1="1091.0" y2="1093.0" /><line stroke="#999" stroke-width="3" x1="39.0" x2="99.0" y1="1091.0" y2="1091.0" /><rect fill="#900" height="48" stroke="#900" stroke-width="5" transform="rotate(180,325.0,997.0)" width="32" x="309.0" y="973.0" /><rect fill="#900" height="48" stroke="#900" stroke-width="5" transform="rotate(180,325.0,901.0)" width="32" x="309.0" y="877.0" /><rect fill="#900" height="48" stroke="#900" stroke-width="5" transform="rotate(180,325.0,805.0)" width="32" x="309.0" y="781.0" /><rect fill="#900" height="48" stroke="#900" stroke-width="5" transform="rotate(180,325.0,709.0)" width="32" x="309.0" y="685.0" /><rect fill="#900" height="48" stroke="#900" stroke-width="5" transform="rotate(180,325.0,613.0)" width="32" x="309.0" y="589.0" /><rect fill="#900" height="48" stroke="#900" stroke-width="5" transform="rotate(180,325.0,517.0)" width="32" x="309.0" y="493.0" /><rect fill="#900" height="48" stroke="#900" stroke-width="5" transform="rotate(180,325.0,421.0)" width="32" x="309.0" y="397.0" /><rect fill="#900" height="48" stroke="#900" stroke-width="5" transform="rotate(180,325.0,325.0)" width="32" x="309.0" y="301.0" /><rect fill="#900" height="48" stroke="#900" stroke-width="5" transform="rotate(180,325.0,229.0)" width="32" x="309.0" y="205.0" /><ellipse cx="69.0" cy="261.0" fill="#009" rx="12" ry="24" stroke="#009" stroke-width="5" /><ellipse cx="37.0" cy="1029.0" fill="#090" rx="12" ry="24" stroke="#090" stroke-width="5" /><ellipse cx="101.0" cy="197.0" fill="#090" rx="12" ry="24" stroke="#090" stroke-width="5" /><rect fill="#009" height="24" stroke="#009" stroke-width="5" transform="rotate(270,549.0,965.0)" width="24" x="537.0" y="953.0" /><rect fill="#009" height="24" stroke="#009" stroke-width="5" transform="rotate(225,869.0,1093.0)" width="24" x="857.0" y="1081.0" /><circle cx="805.0" cy="1029.0" fill="#900" r="16" stroke="#900" stroke-width="5" /><circle cx="1173.0" cy="1301.0" fill="#090" r="16" stroke="#090" stroke-width="5" /><circle cx="1213.0" cy="1325.0" fill="#090" r="16" stroke="#090" stroke-width="5" /><rect fill="#009" height="24" stroke="#009" stroke-width="5" transform="rotate(0,677.0,389.0)" width="24" x="665.0" y="377.0" /><rect fill="#900" height="48" stroke="#900" stroke-width="5" transform="rotate(270,677.0,485.0)" width="32" x="661.0" y="461.0" /><rect fill="#900" height="48" stroke="#900" stroke-width="5" transform="rotate(270,1701.0,997.0)" width="32" x="1685.0" y="973.0" /><rect fill="#009" height="24" stroke="#009" stroke-width="5" transform="rotate(0,2341.0,389.0)" width="24" x="2329.0" y="377.0" /><rect fill="#900" height="48" stroke="#900" stroke-width="5" transform="rotate(270,1733.0,869.0)" width="32" x="1717.0" y="845.0" /><rect fill="#900" height="48" stroke="#900" stroke-width="5" transform="rotate(270,1765.0,293.0)" width="32" x="1749.0" y="269.0" /><circle cx="2277.0" cy="517.0" fill="#009" r="16" stroke="#009" stroke-width="5" /></svg>