<?xml version="1.0" encoding="utf-8" ?>
<svg baseProfile="tiny" height="563" version="1.2" viewBox="0 0 2986 1642" width="1024" xmlns="http://www.w3.org/2000/svg" xmlns:ev="http://www.w3.org/2001/xml-events" xmlns:xlink="http://www.w3.org/1999/xlink"><defs /><line stroke="#999" stroke-width="3" x1="613.0" x2="613.0" y1="645.0" y2="741.0" /><line stroke="#333" stroke-width="10" x1="1093.0" x2="901.0" y1="645.0" y2="645.0" /><line stroke="#333" stroke-width="10" x1="1093.0" x2="1093.0" y1="901.0" y2="837.0" /><line stroke="#333" stroke-width="10" x1="613.0" x2="773.0" y1="901.0" y2="901.0" /><line stroke="#999" stroke-width="3" x1="773.0" x2="869.0" y1="901.0" y2="901.0" /><line stroke="#333" stroke-width="10" x1="773.0" x2="773.0" y1="901.0" y2="1125.0" /><line stroke="#333" stroke-width="10" x1="773.0" x2="869.0" y1="1253.0" y2="1253.0" /><line stroke="#333" stroke-width="10" x1="869.0" x2="869.0" y1="1253.0" y2="1093.0" /><line stroke="#333" stroke-width="10" x1="869.0" x2="1125.0" y1="1093.0" y2="1093.0" /><line stroke="#333" stroke-width="10" x1="1125.0" x2="1125.0" y1="1093.0" y2="997.0" /><line stroke="#333" stroke-width="10" x1="1125.0" x2="869.0" y1="997.0" y2="997.0" /><line stroke="#333" stroke-width="10" x1="869.0" x2="1093.0" y1="901.0" y2="901.0" /><line stroke="#333" stroke-width="10" x1="869.0" x2="869.0" y1="997.0" y2="901.0" /><line stroke="#999" stroke-width="3" x1="1637.0" x2="1637.0" y1="837.0" y2="773.0" /><line stroke="#333" stroke-width="10" x1="1093.0" x2="1253.0" y1="837.0" y2="837.0" /><line stroke="#999" stroke-width="3" x1="1093.0" x2="1093.0" y1="837.0" y2="773.0" /><line stroke="#333" stroke-width="10" x1="1093.0" x2="1093.0" y1="773.0" y2="645.0" /><line stroke="#333" stroke-width="10" x1="1317.0" x2="1093.0" y1="773.0" y2="773.0" /><line stroke="#d00" stroke-width="20" x1="1253.0" x2="1317.0" y1="837.0" y2="837.0" /><line stroke="#333" stroke-width="10" x1="1253.0" x2="1253.0" y1="837.0" y2="869.0" /><line stroke="#333" stroke-width="10" x1="1253.0" x2="1317.0" y1="997.0" y2="997.0" /><line stroke="#333" stroke-width="10" x1="1317.0" x2="1317.0" y1="997.0" y2="933.0" /><line stroke="#333" stroke-width="10" x1="1317.0" x2="1445.0" y1="837.0" y2="837.0" /><line stroke="#999" stroke-width="3" x1="1317.0" x2="1317.0" y1="837.0" y2="773.0" /><line stroke="#333" stroke-width="10" x1="1637.0" x2="1477.0" y1="773.0" y2="773.0" /><line stroke="#333" stroke-width="10" x1="773.0" x2="741.0" y1="645.0" y2="645.0" /><line stroke="#333" stroke-width="10" x1="773.0" x2="773.0" y1="453.0" y2="549.0" /><line stroke="#333" stroke-width="10" x1="901.0" x2="773.0" y1="453.0" y2="453.0" /><line stroke="#999" stroke-width="3" x1="901.0" x2="773.0" y1="645.0" y2="645.0" /><line stroke="#333" stroke-width="10" x1="901.0" x2="901.0" y1="645.0" y2="581.0" /><line stroke="#999" stroke-width="3" x1="613.0" x2="613.0" y1="773.0" y2="901.0" /><line stroke="#333" stroke-width="10" x1="325.0" x2="357.0" y1="901.0" y2="901.0" /><line stroke="#333" stroke-width="10" x1="613.0" x2="485.0" y1="773.0" y2="773.0" /><line stroke="#999" stroke-width="3" x1="485.0" x2="421.0" y1="645.0" y2="645.0" /><line stroke="#333" stroke-width="10" x1="485.0" x2="485.0" y1="773.0" y2="645.0" /><line stroke="#333" stroke-width="10" x1="325.0" x2="325.0" y1="645.0" y2="901.0" /><line stroke="#333" stroke-width="10" x1="421.0" x2="389.0" y1="645.0" y2="645.0" /><line stroke="#333" stroke-width="10" x1="421.0" x2="421.0" y1="453.0" y2="645.0" /><line stroke="#999" stroke-width="3" x1="485.0" x2="421.0" y1="453.0" y2="453.0" /><line stroke="#333" stroke-width="10" x1="485.0" x2="485.0" y1="645.0" y2="453.0" /><line stroke="#999" stroke-width="3" x1="389.0" x2="325.0" y1="645.0" y2="645.0" /><line stroke="#333" stroke-width="10" x1="389.0" x2="389.0" y1="645.0" y2="453.0" /><line stroke="#999" stroke-width="3" x1="389.0" x2="325.0" y1="453.0" y2="453.0" /><line stroke="#333" stroke-width="10" x1="325.0" x2="325.0" y1="453.0" y2="645.0" /><line stroke="#333" stroke-width="10" x1="389.0" x2="389.0" y1="453.0" y2="357.0" /><line stroke="#333" stroke-width="10" x1="389.0" x2="325.0" y1="357.0" y2="357.0" /><line stroke="#333" stroke-width="10" x1="101.0" x2="101.0" y1="357.0" y2="453.0" /><line stroke="#333" stroke-width="10" x1="101.0" x2="325.0" y1="453.0" y2="453.0" /><line stroke="#333" stroke-width="10" x1="421.0" x2="421.0" y1="357.0" y2="453.0" /><line stroke="#999" stroke-width="3" x1="709.0" x2="645.0" y1="357.0" y2="357.0" /><line stroke="#333" stroke-width="10" x1="709.0" x2="709.0" y1="453.0" y2="357.0" /><line stroke="#333" stroke-width="10" x1="485.0" x2="709.0" y1="453.0" y2="453.0" /><line stroke="#333" stroke-width="10" x1="101.0" x2="101.0" y1="197.0" y2="357.0" /><line stroke="#333" stroke-width="10" x1="197.0" x2="101.0" y1="197.0" y2="197.0" /><line stroke="#999" stroke-width="3" x1="197.0" x2="101.0" y1="357.0" y2="357.0" /><line stroke="#333" stroke-width="10" x1="197.0" x2="197.0" y1="357.0" y2="197.0" /><line stroke="#999" stroke-width="3" x1="805.0" x2="805.0" y1="805.0" y2="741.0" /><line stroke="#999" stroke-width="3" x1="805.0" x2="869.0" y1="741.0" y2="741.0" /><line stroke="#999" stroke-width="3" x1="869.0" x2="869.0" y1="741.0" y2="805.0" /><line stroke="#999" stroke-width="3" x1="869.0" x2="805.0" y1="805.0" y2="805.0" /><line stroke="#999" stroke-width="3" x1="773.0" x2="773.0" y1="837.0" y2="709.0" /><line stroke="#999" stroke-width="3" x1="773.0" x2="901.0" y1="709.0" y2="709.0" /><line stroke="#999" stroke-width="3" x1="901.0" x2="901.0" y1="709.0" y2="837.0" /><line stroke="#999" stroke-width="3" x1="901.0" x2="773.0" y1="837.0" y2="837.0" /><line stroke="#333" stroke-width="10" x1="645.0" x2="581.0" y1="357.0" y2="357.0" /><line stroke="#333" stroke-width="10" x1="645.0" x2="645.0" y1="101.0" y2="165.0" /><line stroke="#333" stroke-width="10" x1="709.0" x2="645.0" y1="101.0" y2="101.0" /><line stroke="#333" stroke-width="10" x1="709.0" x2="709.0" y1="357.0" y2="165.0" /><line stroke="#333" stroke-width="10" x1="645.0" x2="645.0" y1="165.0" y2="357.0" /><line stroke="#333" stroke-width="10" x1="709.0" x2="709.0" y1="165.0" y2="101.0" /><line stroke="#00d" stroke-width="20" x1="709.0" x2="645.0" y1="165.0" y2="165.0" /><line stroke="#333" stroke-width="10" x1="229.0" x2="261.0" y1="325.0" y2="325.0" /><line stroke="#333" stroke-width="10" x1="613.0" x2="613.0" y1="325.0" y2="133.0" /><line stroke="#333" stroke-width="10" x1="613.0" x2="229.0" y1="133.0" y2="133.0" /><line stroke="#333" stroke-width="10" x1="229.0" x2="229.0" y1="133.0" y2="325.0" /><line stroke="#999" stroke-width="3" x1="261.0" x2="325.0" y1="325.0" y2="325.0" /><line stroke="#333" stroke-width="10" x1="261.0" x2="197.0" y1="357.0" y2="357.0" /><line stroke="#333" stroke-width="10" x1="261.0" x2="261.0" y1="325.0" y2="357.0" /><line stroke="#999" stroke-width="3" x1="325.0" x2="261.0" y1="357.0" y2="357.0" /><line stroke="#333" stroke-width="10" x1="325.0" x2="325.0" y1="357.0" y2="325.0" /><line stroke="#333" stroke-width="10" x1="325.0" x2="389.0" y1="325.0" y2="325.0" /><line stroke="#999" stroke-width="3" x1="517.0" x2="581.0" y1="325.0" y2="325.0" /><line stroke="#333" stroke-width="10" x1="517.0" x2="421.0" y1="357.0" y2="357.0" /><line stroke="#333" stroke-width="10" x1="517.0" x2="517.0" y1="325.0" y2="357.0" /><line stroke="#999" stroke-width="3" x1="581.0" x2="517.0" y1="357.0" y2="357.0" /><line stroke="#333" stroke-width="10" x1="581.0" x2="581.0" y1="357.0" y2="325.0" /><line stroke="#333" stroke-width="10" x1="581.0" x2="613.0" y1="325.0" y2="325.0" /><line stroke="#333" stroke-width="10" x1="1253.0" x2="1253.0" y1="869.0" y2="933.0" /><line stroke="#333" stroke-width="10" x1="1317.0" x2="1317.0" y1="869.0" y2="837.0" /><line stroke="#999" stroke-width="3" x1="1253.0" x2="1317.0" y1="869.0" y2="869.0" /><line stroke="#333" stroke-width="10" x1="1445.0" x2="1477.0" y1="837.0" y2="837.0" /><line stroke="#333" stroke-width="10" x1="1445.0" x2="1317.0" y1="773.0" y2="773.0" /><line stroke="#999" stroke-width="3" x1="1445.0" x2="1445.0" y1="837.0" y2="773.0" /><line stroke="#333" stroke-width="10" x1="1477.0" x2="1445.0" y1="773.0" y2="773.0" /><line stroke="#999" stroke-width="3" x1="1477.0" x2="1477.0" y1="773.0" y2="837.0" /><line stroke="#333" stroke-width="10" x1="1477.0" x2="1637.0" y1="837.0" y2="837.0" /><line stroke="#666" stroke-width="20" x1="389.0" x2="421.0" y1="325.0" y2="325.0" /><line stroke="#333" stroke-width="10" x1="421.0" x2="517.0" y1="325.0" y2="325.0" /><line stroke="#333" stroke-width="10" x1="613.0" x2="613.0" y1="741.0" y2="773.0" /><line stroke="#333" stroke-width="10" x1="517.0" x2="608.0" y1="741.0" y2="741.0" /><line stroke="#333" stroke-width="10" x1="517.0" x2="517.0" y1="549.0" y2="741.0" /><line stroke="#333" stroke-width="10" x1="741.0" x2="517.0" y1="549.0" y2="549.0" /><line stroke="#999" stroke-width="3" x1="741.0" x2="613.0" y1="645.0" y2="645.0" /><line stroke="#333" stroke-width="10" x1="741.0" x2="741.0" y1="645.0" y2="640.0" /><line stroke="#333" stroke-width="10" x1="608.0" x2="613.0" y1="741.0" y2="741.0" /><line stroke="#999" stroke-width="3" x1="608.0" x2="608.0" y1="741.0" y2="640.0" /><line stroke="#333" stroke-width="10" x1="741.0" x2="741.0" y1="640.0" y2="549.0" /><line stroke="#999" stroke-width="3" x1="608.0" x2="741.0" y1="640.0" y2="640.0" /><line stroke="#333" stroke-width="10" x1="773.0" x2="773.0" y1="581.0" y2="645.0" /><line stroke="#333" stroke-width="10" x1="901.0" x2="901.0" y1="581.0" y2="549.0" /><line stroke="#999" stroke-width="3" x1="773.0" x2="901.0" y1="581.0" y2="581.0" /><line stroke="#333" stroke-width="10" x1="901.0" x2="901.0" y1="549.0" y2="453.0" /><line stroke="#999" stroke-width="3" x1="901.0" x2="773.0" y1="549.0" y2="549.0" /><line stroke="#333" stroke-width="10" x1="773.0" x2="773.0" y1="549.0" y2="581.0" /><line stroke="#999" stroke-width="3" x1="357.0" x2="453.0" y1="901.0" y2="901.0" /><line stroke="#333" stroke-width="10" x1="357.0" x2="357.0" y1="901.0" y2="1349.0" /><line stroke="#333" stroke-width="10" x1="357.0" x2="453.0" y1="1445.0" y2="1445.0" /><line stroke="#333" stroke-width="10" x1="453.0" x2="613.0" y1="901.0" y2="901.0" /><line stroke="#333" stroke-width="10" x1="453.0" x2="453.0" y1="1445.0" y2="1189.0" /><line stroke="#999" stroke-width="3" x1="453.0" x2="453.0" y1="1189.0" y2="1125.0" /><line stroke="#333" stroke-width="10" x1="773.0" x2="773.0" y1="1189.0" y2="1253.0" /><line stroke="#333" stroke-width="10" x1="453.0" x2="773.0" y1="1189.0" y2="1189.0" /><line stroke="#999" stroke-width="3" x1="773.0" x2="773.0" y1="1125.0" y2="1189.0" /><line stroke="#333" stroke-width="10" x1="773.0" x2="677.0" y1="1125.0" y2="1125.0" /><line stroke="#333" stroke-width="10" x1="453.0" x2="453.0" y1="1125.0" y2="901.0" /><line stroke="#333" stroke-width="10" x1="549.0" x2="453.0" y1="1125.0" y2="1125.0" /><line stroke="#333" stroke-width="10" x1="549.0" x2="549.0" y1="965.0" y2="1029.0" /><line stroke="#999" stroke-width="3" x1="677.0" x2="549.0" y1="1125.0" y2="1125.0" /><line stroke="#333" stroke-width="10" x1="677.0" x2="629.0" y1="965.0" y2="965.0" /><line stroke="#333" stroke-width="10" x1="677.0" x2="677.0" y1="1125.0" y2="1061.0" /><line stroke="#333" stroke-width="10" x1="549.0" x2="549.0" y1="1061.0" y2="1125.0" /><line stroke="#333" stroke-width="10" x1="517.0" x2="549.0" y1="1061.0" y2="1061.0" /><line stroke="#333" stroke-width="10" x1="517.0" x2="517.0" y1="1029.0" y2="1061.0" /><line stroke="#999" stroke-width="3" x1="549.0" x2="549.0" y1="1029.0" y2="1061.0" /><line stroke="#333" stroke-width="10" x1="549.0" x2="517.0" y1="1029.0" y2="1029.0" /><line stroke="#999" stroke-width="3" x1="677.0" x2="677.0" y1="1061.0" y2="1029.0" /><line stroke="#333" stroke-width="10" x1="677.0" x2="709.0" y1="1061.0" y2="1061.0" /><line stroke="#333" stroke-width="10" x1="709.0" x2="709.0" y1="1061.0" y2="1029.0" /><line stroke="#333" stroke-width="10" x1="677.0" x2="677.0" y1="1029.0" y2="965.0" /><line stroke="#333" stroke-width="10" x1="709.0" x2="677.0" y1="1029.0" y2="1029.0" /><line stroke="#999" stroke-width="3" x1="389.0" x2="453.0" y1="261.0" y2="261.0" /><line stroke="#999" stroke-width="3" x1="453.0" x2="453.0" y1="261.0" y2="197.0" /><line stroke="#999" stroke-width="3" x1="453.0" x2="389.0" y1="197.0" y2="197.0" /><line stroke="#999" stroke-width="3" x1="389.0" x2="389.0" y1="197.0" y2="261.0" /><line stroke="#333" stroke-width="10" x1="1637.0" x2="1637.0" y1="837.0" y2="1125.0" /><line stroke="#333" stroke-width="10" x1="1637.0" x2="2085.0" y1="1125.0" y2="1125.0" /><line stroke="#333" stroke-width="10" x1="2629.0" x2="2629.0" y1="1125.0" y2="805.0" /><line stroke="#999" stroke-width="3" x1="1637.0" x2="1637.0" y1="421.0" y2="709.0" /><line stroke="#333" stroke-width="10" x1="2629.0" x2="2149.0" y1="421.0" y2="421.0" /><line stroke="#999" stroke-width="3" x1="1733.0" x2="1669.0" y1="837.0" y2="837.0" /><line stroke="#999" stroke-width="3" x1="2085.0" x2="1733.0" y1="1029.0" y2="1029.0" /><line stroke="#999" stroke-width="3" x1="2085.0" x2="2149.0" y1="1125.0" y2="1125.0" /><line stroke="#999" stroke-width="3" x1="1733.0" x2="1733.0" y1="1029.0" y2="837.0" /><line stroke="#999" stroke-width="3" x1="2085.0" x2="2085.0" y1="1125.0" y2="1093.0" /><line stroke="#333" stroke-width="10" x1="2149.0" x2="2629.0" y1="1125.0" y2="1125.0" /><line stroke="#999" stroke-width="3" x1="2149.0" x2="2149.0" y1="1125.0" y2="1093.0" /><line stroke="#999" stroke-width="3" x1="2149.0" x2="2533.0" y1="1029.0" y2="1029.0" /><line stroke="#999" stroke-width="3" x1="2533.0" x2="2533.0" y1="1029.0" y2="805.0" /><line stroke="#999" stroke-width="3" x1="2629.0" x2="2629.0" y1="805.0" y2="741.0" /><line stroke="#999" stroke-width="3" x1="2533.0" x2="2597.0" y1="805.0" y2="805.0" /><line stroke="#333" stroke-width="10" x1="2629.0" x2="2629.0" y1="741.0" y2="421.0" /><line stroke="#999" stroke-width="3" x1="2629.0" x2="2597.0" y1="741.0" y2="741.0" /><line stroke="#999" stroke-width="3" x1="2533.0" x2="2533.0" y1="741.0" y2="517.0" /><line stroke="#999" stroke-width="3" x1="2533.0" x2="2149.0" y1="517.0" y2="517.0" /><line stroke="#999" stroke-width="3" x1="1733.0" x2="2085.0" y1="517.0" y2="517.0" /><line stroke="#999" stroke-width="3" x1="2149.0" x2="2149.0" y1="517.0" y2="453.0" /><line stroke="#999" stroke-width="3" x1="2149.0" x2="2085.0" y1="421.0" y2="421.0" /><line stroke="#333" stroke-width="10" x1="2085.0" x2="2021.0" y1="421.0" y2="421.0" /><line stroke="#999" stroke-width="3" x1="2085.0" x2="2085.0" y1="517.0" y2="453.0" /><line stroke="#999" stroke-width="3" x1="1637.0" x2="1669.0" y1="773.0" y2="773.0" /><line stroke="#999" stroke-width="3" x1="1733.0" x2="1733.0" y1="773.0" y2="517.0" /><line stroke="#999" stroke-width="3" x1="2597.0" x2="2629.0" y1="805.0" y2="805.0" /><line stroke="#999" stroke-width="3" x1="2597.0" x2="2597.0" y1="805.0" y2="1093.0" /><line stroke="#999" stroke-width="3" x1="2149.0" x2="2149.0" y1="1093.0" y2="1029.0" /><line stroke="#999" stroke-width="3" x1="2597.0" x2="2149.0" y1="1093.0" y2="1093.0" /><line stroke="#999" stroke-width="3" x1="2597.0" x2="2533.0" y1="741.0" y2="741.0" /><line stroke="#999" stroke-width="3" x1="2597.0" x2="2597.0" y1="741.0" y2="453.0" /><line stroke="#999" stroke-width="3" x1="2149.0" x2="2149.0" y1="453.0" y2="421.0" /><line stroke="#999" stroke-width="3" x1="2597.0" x2="2149.0" y1="453.0" y2="453.0" /><line stroke="#999" stroke-width="3" x1="2085.0" x2="2085.0" y1="453.0" y2="421.0" /><line stroke="#999" stroke-width="3" x1="1669.0" x2="2085.0" y1="453.0" y2="453.0" /><line stroke="#999" stroke-width="3" x1="1669.0" x2="1733.0" y1="773.0" y2="773.0" /><line stroke="#999" stroke-width="3" x1="1669.0" x2="1669.0" y1="773.0" y2="453.0" /><line stroke="#999" stroke-width="3" x1="1669.0" x2="1637.0" y1="837.0" y2="837.0" /><line stroke="#999" stroke-width="3" x1="2085.0" x2="2085.0" y1="1093.0" y2="1029.0" /><line stroke="#999" stroke-width="3" x1="1669.0" x2="1669.0" y1="1093.0" y2="837.0" /><line stroke="#999" stroke-width="3" x1="2085.0" x2="1669.0" y1="1093.0" y2="1093.0" /><line stroke="#999" stroke-width="3" x1="1797.0" x2="1797.0" y1="965.0" y2="901.0" /><line stroke="#999" stroke-width="3" x1="1797.0" x2="1861.0" y1="901.0" y2="901.0" /><line stroke="#999" stroke-width="3" x1="1861.0" x2="1861.0" y1="901.0" y2="965.0" /><line stroke="#999" stroke-width="3" x1="1861.0" x2="1797.0" y1="965.0" y2="965.0" /><line stroke="#999" stroke-width="3" x1="2405.0" x2="2405.0" y1="965.0" y2="901.0" /><line stroke="#999" stroke-width="3" x1="2405.0" x2="2469.0" y1="901.0" y2="901.0" /><line stroke="#999" stroke-width="3" x1="2469.0" x2="2469.0" y1="901.0" y2="965.0" /><line stroke="#999" stroke-width="3" x1="2469.0" x2="2405.0" y1="965.0" y2="965.0" /><line stroke="#999" stroke-width="3" x1="2405.0" x2="2405.0" y1="645.0" y2="581.0" /><line stroke="#999" stroke-width="3" x1="2405.0" x2="2469.0" y1="581.0" y2="581.0" /><line stroke="#999" stroke-width="3" x1="2469.0" x2="2469.0" y1="581.0" y2="645.0" /><line stroke="#999" stroke-width="3" x1="2469.0" x2="2405.0" y1="645.0" y2="645.0" /><line stroke="#999" stroke-width="3" x1="1797.0" x2="1797.0" y1="645.0" y2="581.0" /><line stroke="#999" stroke-width="3" x1="1797.0" x2="1861.0" y1="581.0" y2="581.0" /><line stroke="#999" stroke-width="3" x1="1861.0" x2="1861.0" y1="581.0" y2="645.0" /><line stroke="#999" stroke-width="3" x1="1861.0" x2="1797.0" y1="645.0" y2="645.0" /><line stroke="#333" stroke-width="10" x1="1637.0" x2="1637.0" y1="709.0" y2="773.0" /><line stroke="#333" stroke-width="10" x1="1541.0" x2="1637.0" y1="709.0" y2="709.0" /><line stroke="#333" stroke-width="10" x1="1541.0" x2="1541.0" y1="325.0" y2="709.0" /><line stroke="#333" stroke-width="10" x1="2021.0" x2="1541.0" y1="325.0" y2="325.0" /><line stroke="#999" stroke-width="3" x1="2021.0" x2="1637.0" y1="421.0" y2="421.0" /><line stroke="#333" stroke-width="10" x1="2021.0" x2="2021.0" y1="421.0" y2="325.0" /><line stroke="#333" stroke-width="10" x1="597.0" x2="549.0" y1="965.0" y2="965.0" /><line stroke="#333" stroke-width="10" x1="597.0" x2="597.0" y1="933.0" y2="965.0" /><line stroke="#999" stroke-width="3" x1="629.0" x2="597.0" y1="965.0" y2="965.0" /><line stroke="#333" stroke-width="10" x1="629.0" x2="597.0" y1="933.0" y2="933.0" /><line stroke="#333" stroke-width="10" x1="629.0" x2="629.0" y1="965.0" y2="933.0" /><line stroke="#333" stroke-width="10" x1="2085.0" x2="2085.0" y1="1125.0" y2="1157.0" /><line stroke="#333" stroke-width="10" x1="2085.0" x2="2149.0" y1="1477.0" y2="1477.0" /><line stroke="#333" stroke-width="10" x1="2149.0" x2="2149.0" y1="1477.0" y2="1189.0" /><line stroke="#333" stroke-width="10" x1="2629.0" x2="2661.0" y1="805.0" y2="805.0" /><line stroke="#333" stroke-width="10" x1="2981.0" x2="2981.0" y1="805.0" y2="741.0" /><line stroke="#333" stroke-width="10" x1="2981.0" x2="2693.0" y1="741.0" y2="741.0" /><line stroke="#333" stroke-width="10" x1="2149.0" x2="2149.0" y1="421.0" y2="389.0" /><line stroke="#333" stroke-width="10" x1="2149.0" x2="2085.0" y1="5.0" y2="5.0" /><line stroke="#333" stroke-width="10" x1="2085.0" x2="2085.0" y1="5.0" y2="357.0" /><line stroke="#333" stroke-width="10" x1="5.0" x2="229.0" y1="1445.0" y2="1445.0" /><line stroke="#333" stroke-width="10" x1="5.0" x2="5.0" y1="1349.0" y2="1445.0" /><line stroke="#999" stroke-width="3" x1="357.0" x2="357.0" y1="1349.0" y2="1445.0" /><line stroke="#333" stroke-width="10" x1="357.0" x2="101.0" y1="1349.0" y2="1349.0" /><line stroke="#333" stroke-width="10" x1="5.0" x2="5.0" y1="1125.0" y2="1349.0" /><line stroke="#999" stroke-width="3" x1="101.0" x2="5.0" y1="1125.0" y2="1125.0" /><line stroke="#999" stroke-width="3" x1="101.0" x2="5.0" y1="1349.0" y2="1349.0" /><line stroke="#333" stroke-width="10" x1="101.0" x2="101.0" y1="1349.0" y2="1125.0" /><line stroke="#333" stroke-width="10" x1="5.0" x2="5.0" y1="1029.0" y2="1125.0" /><line stroke="#333" stroke-width="10" x1="261.0" x2="5.0" y1="1029.0" y2="1029.0" /><line stroke="#333" stroke-width="10" x1="261.0" x2="261.0" y1="1125.0" y2="1029.0" /><line stroke="#333" stroke-width="10" x1="101.0" x2="197.0" y1="1125.0" y2="1125.0" /><line stroke="#999" stroke-width="3" x1="197.0" x2="261.0" y1="1125.0" y2="1125.0" /><line stroke="#333" stroke-width="10" x1="197.0" x2="197.0" y1="1125.0" y2="1221.0" /><line stroke="#333" stroke-width="10" x1="197.0" x2="261.0" y1="1285.0" y2="1285.0" /><line stroke="#333" stroke-width="10" x1="261.0" x2="261.0" y1="1285.0" y2="1125.0" /><line stroke="#333" stroke-width="10" x1="133.0" x2="197.0" y1="1285.0" y2="1285.0" /><line stroke="#333" stroke-width="10" x1="133.0" x2="133.0" y1="1221.0" y2="1285.0" /><line stroke="#666" stroke-width="20" x1="197.0" x2="197.0" y1="1221.0" y2="1285.0" /><line stroke="#333" stroke-width="10" x1="197.0" x2="133.0" y1="1221.0" y2="1221.0" /><line stroke="#999" stroke-width="3" x1="229.0" x2="357.0" y1="1445.0" y2="1445.0" /><line stroke="#333" stroke-width="10" x1="229.0" x2="229.0" y1="1445.0" y2="1477.0" /><line stroke="#333" stroke-width="10" x1="229.0" x2="357.0" y1="1637.0" y2="1637.0" /><line stroke="#333" stroke-width="10" x1="357.0" x2="357.0" y1="1637.0" y2="1477.0" /><line stroke="#333" stroke-width="10" x1="229.0" x2="229.0" y1="1477.0" y2="1637.0" /><line stroke="#333" stroke-width="10" x1="357.0" x2="357.0" y1="1477.0" y2="1445.0" /><line stroke="#999" stroke-width="3" x1="229.0" x2="357.0" y1="1477.0" y2="1477.0" /><line stroke="#333" stroke-width="10" x1="1253.0" x2="1253.0" y1="933.0" y2="997.0" /><line stroke="#333" stroke-width="10" x1="1317.0" x2="1317.0" y1="933.0" y2="869.0" /><line stroke="#0d0" stroke-width="20" x1="1253.0" x2="1317.0" y1="933.0" y2="933.0" /><line stroke="#333" stroke-width="10" x1="2085.0" x2="2085.0" y1="1189.0" y2="1477.0" /><line stroke="#333" stroke-width="10" x1="2149.0" x2="2149.0" y1="1189.0" y2="1157.0" /><line stroke="#999" stroke-width="3" x1="2149.0" x2="2085.0" y1="1189.0" y2="1189.0" /><line stroke="#333" stroke-width="10" x1="2149.0" x2="2149.0" y1="1157.0" y2="1125.0" /><line stroke="#999" stroke-width="3" x1="2085.0" x2="2149.0" y1="1157.0" y2="1157.0" /><line stroke="#333" stroke-width="10" x1="2085.0" x2="2085.0" y1="1157.0" y2="1189.0" /><line stroke="#333" stroke-width="10" x1="2693.0" x2="2981.0" y1="805.0" y2="805.0" /><line stroke="#333" stroke-width="10" x1="2693.0" x2="2661.0" y1="741.0" y2="741.0" /><line stroke="#999" stroke-width="3" x1="2693.0" x2="2693.0" y1="741.0" y2="805.0" /><line stroke="#333" stroke-width="10" x1="2661.0" x2="2629.0" y1="741.0" y2="741.0" /><line stroke="#999" stroke-width="3" x1="2661.0" x2="2661.0" y1="805.0" y2="741.0" /><line stroke="#333" stroke-width="10" x1="2661.0" x2="2693.0" y1="805.0" y2="805.0" /><line stroke="#333" stroke-width="10" x1="2085.0" x2="2085.0" y1="357.0" y2="389.0" /><line stroke="#333" stroke-width="10" x1="2149.0" x2="2149.0" y1="357.0" y2="5.0" /><line stroke="#999" stroke-width="3" x1="2085.0" x2="2149.0" y1="357.0" y2="357.0" /><line stroke="#333" stroke-width="10" x1="2149.0" x2="2149.0" y1="389.0" y2="357.0" /><line stroke="#999" stroke-width="3" x1="2149.0" x2="2085.0" y1="389.0" y2="389.0" /><line stroke="#333" stroke-width="10" x1="2085.0" x2="2085.0" y1="389.0" y2="421.0" /><ellipse cx="837.0" cy="773.0" fill="#009" rx="12" ry="24" stroke="#009" stroke-width="5" /><circle cx="151.0" cy="230.0" fill="#900" r="16" stroke="#900" stroke-width="5" /><circle cx="150.0" cy="301.0" fill="#009" r="16" stroke="#009" stroke-width="5" /><circle cx="560.0" cy="408.0" fill="#009" r="16" stroke="#009" stroke-width="5" /><circle cx="144.0" cy="409.0" fill="#009" r="16" stroke="#009" stroke-width="5" /><rect fill="#090" height="24" stroke="#090" stroke-width="5" transform="rotate(261,625.0,1101.0)" width="24" x="613.0" y="1089.0" /><rect fill="#090" height="24" stroke="#090" stroke-width="5" transform="rotate(90,534.0,1044.0)" width="24" x="522.0" y="1032.0" /><rect fill="#090" height="24" stroke="#090" stroke-width="5" transform="rotate(90,694.0,1046.0)" width="24" x="682.0" y="1034.0" /><rect fill="#009" height="24" stroke="#009" stroke-width="5" transform="rotate(90,421.0,229.0)" width="24" x="409.0" y="217.0" /><circle cx="1605.0" cy="389.0" fill="#900" r="16" stroke="#900" stroke-width="5" /><circle cx="1588.0" cy="629.0" fill="#090" r="16" stroke="#090" stroke-width="5" /><circle cx="1975.0" cy="373.0" fill="#090" r="16" stroke="#090" stroke-width="5" /><circle cx="1878.0" cy="373.0" fill="#090" r="16" stroke="#090" stroke-width="5" /><circle cx="1750.0" cy="373.0" fill="#090" r="16" stroke="#090" stroke-width="5" /><circle cx="1589.0" cy="468.0" fill="#090" r="16" stroke="#090" stroke-width="5" /><circle cx="1588.0" cy="564.0" fill="#090" r="16" stroke="#090" stroke-width="5" /><circle cx="1559.0" cy="342.0" fill="#090" r="16" stroke="#090" stroke-width="5" /><rect fill="#090" height="24" stroke="#090" stroke-width="5" transform="rotate(90,613.0,950.0)" width="24" x="601.0" y="938.0" /><circle cx="613.0" cy="1029.0" fill="#900" r="16" stroke="#900" stroke-width="5" /><circle cx="197.0" cy="1253.0" fill="#900" r="16" stroke="#900" stroke-width="5" /><ellipse cx="147.0" cy="1255.0" fill="#090" rx="12" ry="24" stroke="#090" stroke-width="5" /><rect fill="#900" height="48" stroke="#900" stroke-width="5" transform="rotate(0,1285.0,805.0)" width="32" x="1269.0" y="781.0" /><rect fill="#900" height="48" stroke="#900" stroke-width="5" transform="rotate(180,1074.0,1044.0)" width="32" x="1058.0" y="1020.0" /><rect fill="#900" height="48" stroke="#900" stroke-width="5" transform="rotate(90,805.0,485.0)" width="32" x="789.0" y="461.0" /><rect fill="#900" height="48" stroke="#900" stroke-width="5" transform="rotate(90,867.0,484.0)" width="32" x="851.0" y="460.0" /><rect fill="#900" height="48" stroke="#900" stroke-width="5" transform="rotate(90,357.0,453.0)" width="32" x="341.0" y="429.0" /><rect fill="#900" height="48" stroke="#900" stroke-width="5" transform="rotate(90,453.0,453.0)" width="32" x="437.0" y="429.0" /><rect fill="#900" height="48" stroke="#900" stroke-width="5" transform="rotate(90,677.0,197.0)" width="32" x="661.0" y="173.0" /><rect fill="#900" height="48" stroke="#900" stroke-width="5" transform="rotate(0,229.0,389.0)" width="32" x="213.0" y="365.0" /><rect fill="#090" height="24" stroke="#090" stroke-width="5" transform="rotate(270,293.0,1605.0)" width="24" x="281.0" y="1593.0" /><rect fill="#090" height="24" stroke="#090" stroke-width="5" transform="rotate(270,325.0,1541.0)" width="24" x="313.0" y="1529.0" /><rect fill="#090" height="24" stroke="#090" stroke-width="5" transform="rotate(270,261.0,1541.0)" width="24" x="249.0" y="1529.0" /><rect fill="#900" height="48" stroke="#900" stroke-width="5" transform="rotate(270,421.0,1285.0)" width="32" x="405.0" y="1261.0" /><rect fill="#900" height="48" stroke="#900" stroke-width="5" transform="rotate(0,165.0,1381.0)" width="32" x="149.0" y="1357.0" /><rect fill="#900" height="48" stroke="#900" stroke-width="5" transform="rotate(90,37.0,1221.0)" width="32" x="21.0" y="1197.0" /><rect fill="#900" height="48" stroke="#900" stroke-width="5" transform="rotate(270,229.0,1189.0)" width="32" x="213.0" y="1165.0" /><rect fill="#900" height="48" stroke="#900" stroke-width="5" transform="rotate(270,613.0,1157.0)" width="32" x="597.0" y="1133.0" /><circle cx="820.0" cy="1221.0" fill="#090" r="16" stroke="#090" stroke-width="5" /><circle cx="1092.0" cy="1049.0" fill="#090" r="16" stroke="#090" stroke-width="5" /><circle cx="564.0" cy="592.0" fill="#090" r="16" stroke="#090" stroke-width="5" /><circle cx="558.0" cy="685.0" fill="#090" r="16" stroke="#090" stroke-width="5" /><circle cx="655.0" cy="593.0" fill="#090" r="16" stroke="#090" stroke-width="5" /><rect fill="#900" height="48" stroke="#900" stroke-width="5" transform="rotate(45,566.0,590.0)" width="32" x="550.0" y="566.0" /><rect fill="#900" height="48" stroke="#900" stroke-width="5" transform="rotate(45,1829.0,613.0)" width="32" x="1813.0" y="589.0" /><rect fill="#900" height="48" stroke="#900" stroke-width="5" transform="rotate(225,2437.0,933.0)" width="32" x="2421.0" y="909.0" /><rect fill="#900" height="48" stroke="#900" stroke-width="5" transform="rotate(135,2437.0,613.0)" width="32" x="2421.0" y="589.0" /><rect fill="#900" height="48" stroke="#900" stroke-width="5" transform="rotate(315,1829.0,933.0)" width="32" x="1813.0" y="909.0" /><rect fill="#900" height="48" stroke="#900" stroke-width="5" transform="rotate(0,2117.0,773.0)" width="32" x="2101.0" y="749.0" /><circle cx="1701.0" cy="805.0" fill="#009" r="16" stroke="#009" stroke-width="5" /><circle cx="2117.0" cy="1093.0" fill="#009" r="16" stroke="#009" stroke-width="5" /><circle cx="2597.0" cy="773.0" fill="#009" r="16" stroke="#009" stroke-width="5" /><circle cx="2117.0" cy="453.0" fill="#009" r="16" stroke="#009" stroke-width="5" /><rect fill="#900" height="48" stroke="#900" stroke-width="5" transform="rotate(45,357.0,741.0)" width="32" x="341.0" y="717.0" /><circle cx="1061.0" cy="677.0" fill="#090" r="16" stroke="#090" stroke-width="5" /><circle cx="261.0" cy="1605.0" fill="#090" r="16" stroke="#090" stroke-width="5" /><circle cx="325.0" cy="1605.0" fill="#090" r="16" stroke="#090" stroke-width="5" /><rect fill="#900" height="48" stroke="#900" stroke-width="5" transform="rotate(315,997.0,677.0)" width="32" x="981.0" y="653.0" /><rect fill="#900" height="48" stroke="#900" stroke-width="5" transform="rotate(180,133.0,1061.0)" width="32" x="117.0" y="1037.0" /><rect fill="#900" height="48" stroke="#900" stroke-width="5" transform="rotate(180,677.0,389.0)" width="32" x="661.0" y="365.0" /><rect fill="#900" height="48" stroke="#900" stroke-width="5" transform="rotate(90,148.0,234.0)" width="32" x="132.0" y="210.0" /><rect fill="#900" height="48" stroke="#900" stroke-width="5" transform="rotate(90,148.0,298.0)" width="32" x="132.0" y="274.0" /></svg>