<?xml version="1.0" encoding="utf-8" ?>
<svg baseProfile="tiny" height="699" version="1.2" viewBox="0 0 7026 4802" width="1024" xmlns="http://www.w3.org/2000/svg" xmlns:ev="http://www.w3.org/2001/xml-events" xmlns:xlink="http://www.w3.org/1999/xlink"><defs /><line stroke="#333" stroke-width="10" x1="1229.0" x2="5109.0" y1="4485.0" y2="4789.0" /><line stroke="#00d" stroke-width="20" x1="5213.0" x2="5221.0" y1="4797.0" y2="4749.0" /><line stroke="#333" stroke-width="10" x1="7021.0" x2="5989.0" y1="1197.0" y2="93.0" /><line stroke="#333" stroke-width="10" x1="5989.0" x2="1805.0" y1="93.0" y2="5.0" /><line stroke="#333" stroke-width="10" x1="1805.0" x2="213.0" y1="5.0" y2="677.0" /><line stroke="#333" stroke-width="10" x1="213.0" x2="13.0" y1="677.0" y2="3493.0" /><line stroke="#333" stroke-width="10" x1="5.0" x2="1229.0" y1="3557.0" y2="4485.0" /><line stroke="#333" stroke-width="10" x1="5925.0" x2="7021.0" y1="2269.0" y2="1197.0" /><line stroke="#333" stroke-width="10" x1="5477.0" x2="5621.0" y1="3781.0" y2="3725.0" /><line stroke="#333" stroke-width="10" x1="5845.0" x2="5973.0" y1="3621.0" y2="3525.0" /><line stroke="#333" stroke-width="10" x1="6949.0" x2="5925.0" y1="2829.0" y2="2269.0" /><line stroke="#0d0" stroke-width="20" x1="5693.0" x2="5765.0" y1="3693.0" y2="3661.0" /><line stroke="#333" stroke-width="10" x1="5973.0" x2="6949.0" y1="3525.0" y2="2829.0" /><line stroke="#0d0" stroke-width="20" x1="5765.0" x2="5845.0" y1="3661.0" y2="3621.0" /><line stroke="#333" stroke-width="10" x1="5621.0" x2="5693.0" y1="3725.0" y2="3693.0" /><line stroke="#00d" stroke-width="20" x1="13.0" x2="5.0" y1="3493.0" y2="3557.0" /><line stroke="#00d" stroke-width="20" x1="5109.0" x2="5213.0" y1="4789.0" y2="4797.0" /><line stroke="#333" stroke-width="10" x1="5221.0" x2="5477.0" y1="4749.0" y2="3781.0" /><ellipse cx="6461.0" cy="2909.0" fill="#009" rx="12" ry="24" stroke="#009" stroke-width="5" /><ellipse cx="6445.0" cy="2733.0" fill="#009" rx="12" ry="24" stroke="#009" stroke-width="5" /><ellipse cx="6381.0" cy="3021.0" fill="#009" rx="12" ry="24" stroke="#009" stroke-width="5" /><ellipse cx="6317.0" cy="2621.0" fill="#009" rx="12" ry="24" stroke="#009" stroke-width="5" /><rect fill="#090" height="24" stroke="#090" stroke-width="5" transform="rotate(180,6797.0,1197.0)" width="24" x="6785.0" y="1185.0" /><rect fill="#090" height="24" stroke="#090" stroke-width="5" transform="rotate(0,6701.0,2861.0)" width="24" x="6689.0" y="2849.0" /><rect fill="#090" height="24" stroke="#090" stroke-width="5" transform="rotate(225,5133.0,4621.0)" width="24" x="5121.0" y="4609.0" /><rect fill="#090" height="24" stroke="#090" stroke-width="5" transform="rotate(0,1293.0,4301.0)" width="24" x="1281.0" y="4289.0" /><rect fill="#090" height="24" stroke="#090" stroke-width="5" transform="rotate(315,221.0,3517.0)" width="24" x="209.0" y="3505.0" /><rect fill="#090" height="24" stroke="#090" stroke-width="5" transform="rotate(45,461.0,733.0)" width="24" x="449.0" y="721.0" /><rect fill="#090" height="24" stroke="#090" stroke-width="5" transform="rotate(90,1869.0,125.0)" width="24" x="1857.0" y="113.0" /><rect fill="#090" height="24" stroke="#090" stroke-width="5" transform="rotate(135,5949.0,189.0)" width="24" x="5937.0" y="177.0" /><rect fill="#090" height="24" stroke="#090" stroke-width="5" transform="rotate(0,3309.0,2381.0)" width="24" x="3297.0" y="2369.0" /><rect fill="#090" height="24" stroke="#090" stroke-width="5" transform="rotate(0,4829.0,1309.0)" width="24" x="4817.0" y="1297.0" /><rect fill="#090" height="24" stroke="#090" stroke-width="5" transform="rotate(0,1917.0,1277.0)" width="24" x="1905.0" y="1265.0" /><rect fill="#090" height="24" stroke="#090" stroke-width="5" transform="rotate(0,3869.0,3645.0)" width="24" x="3857.0" y="3633.0" /><rect fill="#090" height="24" stroke="#090" stroke-width="5" transform="rotate(0,2909.0,3469.0)" width="24" x="2897.0" y="3457.0" /><rect fill="#090" height="24" stroke="#090" stroke-width="5" transform="rotate(0,2493.0,2669.0)" width="24" x="2481.0" y="2657.0" /><rect fill="#090" height="24" stroke="#090" stroke-width="5" transform="rotate(0,1309.0,3181.0)" width="24" x="1297.0" y="3169.0" /><rect fill="#090" height="24" stroke="#090" stroke-width="5" transform="rotate(0,1181.0,1757.0)" width="24" x="1169.0" y="1745.0" /><rect fill="#090" height="24" stroke="#090" stroke-width="5" transform="rotate(0,3709.0,989.0)" width="24" x="3697.0" y="977.0" /><rect fill="#090" height="24" stroke="#090" stroke-width="5" transform="rotate(0,4829.0,2909.0)" width="24" x="4817.0" y="2897.0" /><rect fill="#090" height="24" stroke="#090" stroke-width="5" transform="rotate(0,5341.0,2077.0)" width="24" x="5329.0" y="2065.0" /><rect fill="#090" height="24" stroke="#090" stroke-width="5" transform="rotate(0,637.0,2861.0)" width="24" x="625.0" y="2849.0" /><rect fill="#090" height="24" stroke="#090" stroke-width="5" transform="rotate(0,3037.0,1533.0)" width="24" x="3025.0" y="1521.0" /><rect fill="#090" height="24" stroke="#090" stroke-width="5" transform="rotate(0,2253.0,413.0)" width="24" x="2241.0" y="401.0" /><rect fill="#090" height="24" stroke="#090" stroke-width="5" transform="rotate(0,5149.0,461.0)" width="24" x="5137.0" y="449.0" /><rect fill="#090" height="24" stroke="#090" stroke-width="5" transform="rotate(0,685.0,1309.0)" width="24" x="673.0" y="1297.0" /><rect fill="#090" height="24" stroke="#090" stroke-width="5" transform="rotate(0,6189.0,2813.0)" width="24" x="6177.0" y="2801.0" /><rect fill="#090" height="24" stroke="#090" stroke-width="5" transform="rotate(0,4653.0,4589.0)" width="24" x="4641.0" y="4577.0" /><rect fill="#090" height="24" stroke="#090" stroke-width="5" transform="rotate(0,2797.0,4205.0)" width="24" x="2785.0" y="4193.0" /><rect fill="#090" height="24" stroke="#090" stroke-width="5" transform="rotate(0,6365.0,749.0)" width="24" x="6353.0" y="737.0" /><rect fill="#090" height="24" stroke="#090" stroke-width="5" transform="rotate(0,4285.0,221.0)" width="24" x="4273.0" y="209.0" /><rect fill="#090" height="24" stroke="#090" stroke-width="5" transform="rotate(0,2653.0,173.0)" width="24" x="2641.0" y="161.0" /><rect fill="#090" height="24" stroke="#090" stroke-width="5" transform="rotate(0,3629.0,173.0)" width="24" x="3617.0" y="161.0" /><rect fill="#090" height="24" stroke="#090" stroke-width="5" transform="rotate(0,1197.0,413.0)" width="24" x="1185.0" y="401.0" /><rect fill="#090" height="24" stroke="#090" stroke-width="5" transform="rotate(0,333.0,1757.0)" width="24" x="321.0" y="1745.0" /><rect fill="#090" height="24" stroke="#090" stroke-width="5" transform="rotate(0,285.0,2669.0)" width="24" x="273.0" y="2657.0" /><rect fill="#090" height="24" stroke="#090" stroke-width="5" transform="rotate(270,797.0,3917.0)" width="24" x="785.0" y="3905.0" /><rect fill="#090" height="24" stroke="#090" stroke-width="5" transform="rotate(270,1821.0,4365.0)" width="24" x="1809.0" y="4353.0" /><rect fill="#090" height="24" stroke="#090" stroke-width="5" transform="rotate(270,2685.0,4461.0)" width="24" x="2673.0" y="4449.0" /><ellipse cx="3789.0" cy="4589.0" fill="#090" rx="12" ry="24" stroke="#090" stroke-width="5" /><rect fill="#090" height="24" stroke="#090" stroke-width="5" transform="rotate(270,4349.0,4605.0)" width="24" x="4337.0" y="4593.0" /><rect fill="#090" height="24" stroke="#090" stroke-width="5" transform="rotate(225,5309.0,3965.0)" width="24" x="5297.0" y="3953.0" /><rect fill="#090" height="24" stroke="#090" stroke-width="5" transform="rotate(0,3869.0,2317.0)" width="24" x="3857.0" y="2305.0" /><rect fill="#090" height="24" stroke="#090" stroke-width="5" transform="rotate(0,5645.0,3005.0)" width="24" x="5633.0" y="2993.0" /><rect fill="#090" height="24" stroke="#090" stroke-width="5" transform="rotate(0,3453.0,3021.0)" width="24" x="3441.0" y="3009.0" /><rect fill="#090" height="24" stroke="#090" stroke-width="5" transform="rotate(0,4493.0,1981.0)" width="24" x="4481.0" y="1969.0" /><rect fill="#090" height="24" stroke="#090" stroke-width="5" transform="rotate(0,941.0,2237.0)" width="24" x="929.0" y="2225.0" /><rect fill="#090" height="24" stroke="#090" stroke-width="5" transform="rotate(0,6589.0,2797.0)" width="24" x="6577.0" y="2785.0" /><rect fill="#090" height="24" stroke="#090" stroke-width="5" transform="rotate(0,5949.0,1405.0)" width="24" x="5937.0" y="1393.0" /><rect fill="#090" height="24" stroke="#090" stroke-width="5" transform="rotate(0,5501.0,925.0)" width="24" x="5489.0" y="913.0" /><circle cx="1037.0" cy="2701.0" fill="#900" r="16" stroke="#900" stroke-width="5" /><circle cx="4733.0" cy="4173.0" fill="#900" r="16" stroke="#900" stroke-width="5" /><circle cx="4301.0" cy="781.0" fill="#900" r="16" stroke="#900" stroke-width="5" /><circle cx="1677.0" cy="781.0" fill="#900" r="16" stroke="#900" stroke-width="5" /><circle cx="1949.0" cy="3981.0" fill="#900" r="16" stroke="#900" stroke-width="5" /><circle cx="4909.0" cy="3677.0" fill="#900" r="16" stroke="#900" stroke-width="5" /><circle cx="4669.0" cy="653.0" fill="#900" r="16" stroke="#900" stroke-width="5" /><circle cx="2413.0" cy="1901.0" fill="#900" r="16" stroke="#900" stroke-width="5" /><circle cx="2861.0" cy="797.0" fill="#900" r="16" stroke="#900" stroke-width="5" /><circle cx="3229.0" cy="365.0" fill="#900" r="16" stroke="#900" stroke-width="5" /><circle cx="2013.0" cy="3181.0" fill="#900" r="16" stroke="#900" stroke-width="5" /><circle cx="1821.0" cy="2557.0" fill="#900" r="16" stroke="#900" stroke-width="5" /><circle cx="957.0" cy="3405.0" fill="#900" r="16" stroke="#900" stroke-width="5" /><circle cx="5421.0" cy="1501.0" fill="#900" r="16" stroke="#900" stroke-width="5" /><circle cx="5965.0" cy="1933.0" fill="#900" r="16" stroke="#900" stroke-width="5" /><circle cx="5101.0" cy="2749.0" fill="#900" r="16" stroke="#900" stroke-width="5" /><circle cx="4605.0" cy="2285.0" fill="#900" r="16" stroke="#900" stroke-width="5" /><circle cx="3933.0" cy="3101.0" fill="#900" r="16" stroke="#900" stroke-width="5" /><circle cx="4509.0" cy="3613.0" fill="#900" r="16" stroke="#900" stroke-width="5" /><circle cx="3645.0" cy="4029.0" fill="#900" r="16" stroke="#900" stroke-width="5" /><circle cx="3485.0" cy="3629.0" fill="#900" r="16" stroke="#900" stroke-width="5" /><circle cx="2493.0" cy="3757.0" fill="#900" r="16" stroke="#900" stroke-width="5" /><circle cx="2557.0" cy="1293.0" fill="#900" r="16" stroke="#900" stroke-width="5" /><circle cx="2141.0" cy="829.0" fill="#900" r="16" stroke="#900" stroke-width="5" /><circle cx="989.0" cy="1325.0" fill="#900" r="16" stroke="#900" stroke-width="5" /><circle cx="781.0" cy="2013.0" fill="#900" r="16" stroke="#900" stroke-width="5" /><circle cx="349.0" cy="3245.0" fill="#900" r="16" stroke="#900" stroke-width="5" /><circle cx="3901.0" cy="1725.0" fill="#900" r="16" stroke="#900" stroke-width="5" /><circle cx="2829.0" cy="2253.0" fill="#900" r="16" stroke="#900" stroke-width="5" /><circle cx="2877.0" cy="2989.0" fill="#900" r="16" stroke="#900" stroke-width="5" /><circle cx="5437.0" cy="3325.0" fill="#900" r="16" stroke="#900" stroke-width="5" /><circle cx="5677.0" cy="605.0" fill="#900" r="16" stroke="#900" stroke-width="5" /><circle cx="6317.0" cy="1229.0" fill="#900" r="16" stroke="#900" stroke-width="5" /><circle cx="3533.0" cy="2381.0" fill="#900" r="16" stroke="#900" stroke-width="5" /><circle cx="6189.0" cy="3165.0" fill="#900" r="16" stroke="#900" stroke-width="5" /><circle cx="3373.0" cy="1725.0" fill="#900" r="16" stroke="#900" stroke-width="5" /><circle cx="3389.0" cy="989.0" fill="#900" r="16" stroke="#900" stroke-width="5" /><circle cx="4285.0" cy="2685.0" fill="#900" r="16" stroke="#900" stroke-width="5" /><circle cx="4141.0" cy="4109.0" fill="#900" r="16" stroke="#900" stroke-width="5" /><circle cx="1549.0" cy="3693.0" fill="#900" r="16" stroke="#900" stroke-width="5" /><circle cx="1789.0" cy="1789.0" fill="#900" r="16" stroke="#900" stroke-width="5" /><circle cx="1101.0" cy="845.0" fill="#900" r="16" stroke="#900" stroke-width="5" /><circle cx="397.0" cy="2349.0" fill="#900" r="16" stroke="#900" stroke-width="5" /><circle cx="1229.0" cy="3885.0" fill="#900" r="16" stroke="#900" stroke-width="5" /><circle cx="2317.0" cy="3549.0" fill="#900" r="16" stroke="#900" stroke-width="5" /><circle cx="4237.0" cy="1245.0" fill="#900" r="16" stroke="#900" stroke-width="5" /><circle cx="5085.0" cy="1773.0" fill="#900" r="16" stroke="#900" stroke-width="5" /><circle cx="5661.0" cy="2477.0" fill="#900" r="16" stroke="#900" stroke-width="5" /><circle cx="5053.0" cy="973.0" fill="#900" r="16" stroke="#900" stroke-width="5" /><rect fill="#090" height="24" stroke="#090" stroke-width="5" transform="rotate(0,4477.0,3373.0)" width="24" x="4465.0" y="3361.0" /><rect fill="#090" height="24" stroke="#090" stroke-width="5" transform="rotate(0,4509.0,3245.0)" width="24" x="4497.0" y="3233.0" /><rect fill="#090" height="24" stroke="#090" stroke-width="5" transform="rotate(0,4429.0,3069.0)" width="24" x="4417.0" y="3057.0" /><rect fill="#090" height="24" stroke="#090" stroke-width="5" transform="rotate(0,4525.0,2893.0)" width="24" x="4513.0" y="2881.0" /><rect fill="#090" height="24" stroke="#090" stroke-width="5" transform="rotate(0,4525.0,2653.0)" width="24" x="4513.0" y="2641.0" /><rect fill="#090" height="24" stroke="#090" stroke-width="5" transform="rotate(0,4429.0,2461.0)" width="24" x="4417.0" y="2449.0" /><rect fill="#090" height="24" stroke="#090" stroke-width="5" transform="rotate(0,1501.0,2781.0)" width="24" x="1489.0" y="2769.0" /><rect fill="#090" height="24" stroke="#090" stroke-width="5" transform="rotate(0,1501.0,2541.0)" width="24" x="1489.0" y="2529.0" /><rect fill="#090" height="24" stroke="#090" stroke-width="5" transform="rotate(0,1501.0,2285.0)" width="24" x="1489.0" y="2273.0" /><rect fill="#090" height="24" stroke="#090" stroke-width="5" transform="rotate(0,1501.0,2093.0)" width="24" x="1489.0" y="2081.0" /><rect fill="#090" height="24" stroke="#090" stroke-width="5" transform="rotate(0,1501.0,1933.0)" width="24" x="1489.0" y="1921.0" /><rect fill="#090" height="24" stroke="#090" stroke-width="5" transform="rotate(0,1501.0,1613.0)" width="24" x="1489.0" y="1601.0" /><rect fill="#090" height="24" stroke="#090" stroke-width="5" transform="rotate(0,1501.0,1277.0)" width="24" x="1489.0" y="1265.0" /><circle cx="4733.0" cy="221.0" fill="#090" r="16" stroke="#090" stroke-width="5" /><circle cx="5053.0" cy="221.0" fill="#090" r="16" stroke="#090" stroke-width="5" /><circle cx="5565.0" cy="221.0" fill="#090" r="16" stroke="#090" stroke-width="5" /><circle cx="1949.0" cy="3581.0" fill="#090" r="16" stroke="#090" stroke-width="5" /><circle cx="3741.0" cy="1997.0" fill="#090" r="16" stroke="#090" stroke-width="5" /><circle cx="4525.0" cy="1437.0" fill="#090" r="16" stroke="#090" stroke-width="5" /><circle cx="5149.0" cy="2445.0" fill="#090" r="16" stroke="#090" stroke-width="5" /><circle cx="5133.0" cy="3149.0" fill="#090" r="16" stroke="#090" stroke-width="5" /><circle cx="5997.0" cy="1037.0" fill="#090" r="16" stroke="#090" stroke-width="5" /><circle cx="1773.0" cy="461.0" fill="#090" r="16" stroke="#090" stroke-width="5" /><circle cx="653.0" cy="2541.0" fill="#090" r="16" stroke="#090" stroke-width="5" /><circle cx="2877.0" cy="1821.0" fill="#090" r="16" stroke="#090" stroke-width="5" /><circle cx="2221.0" cy="2381.0" fill="#090" r="16" stroke="#090" stroke-width="5" /><circle cx="2557.0" cy="3149.0" fill="#090" r="16" stroke="#090" stroke-width="5" /><circle cx="3197.0" cy="3885.0" fill="#090" r="16" stroke="#090" stroke-width="5" /><circle cx="2285.0" cy="1565.0" fill="#090" r="16" stroke="#090" stroke-width="5" /><circle cx="4653.0" cy="1677.0" fill="#090" r="16" stroke="#090" stroke-width="5" /><circle cx="5933.0" cy="3421.0" fill="#090" r="16" stroke="#090" stroke-width="5" /><circle cx="5917.0" cy="3213.0" fill="#090" r="16" stroke="#090" stroke-width="5" /><circle cx="5917.0" cy="3069.0" fill="#090" r="16" stroke="#090" stroke-width="5" /><circle cx="5917.0" cy="2925.0" fill="#090" r="16" stroke="#090" stroke-width="5" /><circle cx="5917.0" cy="2829.0" fill="#090" r="16" stroke="#090" stroke-width="5" /><circle cx="5917.0" cy="2685.0" fill="#090" r="16" stroke="#090" stroke-width="5" /><circle cx="5885.0" cy="2493.0" fill="#090" r="16" stroke="#090" stroke-width="5" /><circle cx="5773.0" cy="2285.0" fill="#090" r="16" stroke="#090" stroke-width="5" /><circle cx="3917.0" cy="573.0" fill="#090" r="16" stroke="#090" stroke-width="5" /><circle cx="3901.0" cy="4285.0" fill="#090" r="16" stroke="#090" stroke-width="5" /><circle cx="6013.0" cy="573.0" fill="#090" r="16" stroke="#090" stroke-width="5" /><circle cx="2861.0" cy="509.0" fill="#090" r="16" stroke="#090" stroke-width="5" /><circle cx="1885.0" cy="2157.0" fill="#090" r="16" stroke="#090" stroke-width="5" /><circle cx="1629.0" cy="3229.0" fill="#090" r="16" stroke="#090" stroke-width="5" /><circle cx="4381.0" cy="3965.0" fill="#090" r="16" stroke="#090" stroke-width="5" /><circle cx="2525.0" cy="957.0" fill="#090" r="16" stroke="#090" stroke-width="5" /><circle cx="6205.0" cy="1677.0" fill="#009" r="16" stroke="#009" stroke-width="5" /><circle cx="2925.0" cy="2701.0" fill="#009" r="16" stroke="#009" stroke-width="5" /><circle cx="5053.0" cy="4253.0" fill="#009" r="16" stroke="#009" stroke-width="5" /><circle cx="3661.0" cy="1453.0" fill="#009" r="16" stroke="#009" stroke-width="5" /><circle cx="1357.0" cy="1021.0" fill="#009" r="16" stroke="#009" stroke-width="5" /><circle cx="3789.0" cy="2733.0" fill="#009" r="16" stroke="#009" stroke-width="5" /><circle cx="2301.0" cy="4205.0" fill="#009" r="16" stroke="#009" stroke-width="5" /><circle cx="925.0" cy="3053.0" fill="#009" r="16" stroke="#009" stroke-width="5" /><circle cx="717.0" cy="989.0" fill="#009" r="16" stroke="#009" stroke-width="5" /><circle cx="3501.0" cy="669.0" fill="#009" r="16" stroke="#009" stroke-width="5" /><circle cx="2989.0" cy="1213.0" fill="#009" r="16" stroke="#009" stroke-width="5" /><circle cx="4189.0" cy="3277.0" fill="#009" r="16" stroke="#009" stroke-width="5" /><circle cx="6125.0" cy="2605.0" fill="#009" r="16" stroke="#009" stroke-width="5" /><circle cx="5629.0" cy="1277.0" fill="#009" r="16" stroke="#009" stroke-width="5" /><circle cx="6477.0" cy="1021.0" fill="#009" r="16" stroke="#009" stroke-width="5" /><circle cx="4045.0" cy="1021.0" fill="#009" r="16" stroke="#009" stroke-width="5" /><circle cx="3085.0" cy="2381.0" fill="#009" r="16" stroke="#009" stroke-width="5" /><circle cx="3261.0" cy="3405.0" fill="#009" r="16" stroke="#009" stroke-width="5" /><circle cx="3693.0" cy="3389.0" fill="#009" r="16" stroke="#009" stroke-width="5" /><circle cx="3741.0" cy="2541.0" fill="#009" r="16" stroke="#009" stroke-width="5" /><circle cx="3933.0" cy="2909.0" fill="#009" r="16" stroke="#009" stroke-width="5" /><circle cx="3213.0" cy="2877.0" fill="#009" r="16" stroke="#009" stroke-width="5" /><circle cx="5533.0" cy="1933.0" fill="#009" r="16" stroke="#009" stroke-width="5" /><circle cx="5533.0" cy="1741.0" fill="#009" r="16" stroke="#009" stroke-width="5" /><circle cx="5725.0" cy="1709.0" fill="#009" r="16" stroke="#009" stroke-width="5" /><circle cx="5709.0" cy="1885.0" fill="#009" r="16" stroke="#009" stroke-width="5" /><circle cx="5933.0" cy="1709.0" fill="#009" r="16" stroke="#009" stroke-width="5" /><circle cx="5805.0" cy="1549.0" fill="#009" r="16" stroke="#009" stroke-width="5" /><circle cx="5613.0" cy="1501.0" fill="#009" r="16" stroke="#009" stroke-width="5" /><circle cx="5293.0" cy="1677.0" fill="#009" r="16" stroke="#009" stroke-width="5" /><circle cx="5293.0" cy="1853.0" fill="#009" r="16" stroke="#009" stroke-width="5" /><circle cx="1197.0" cy="2477.0" fill="#009" r="16" stroke="#009" stroke-width="5" /><circle cx="1357.0" cy="2477.0" fill="#009" r="16" stroke="#009" stroke-width="5" /><circle cx="1357.0" cy="2269.0" fill="#009" r="16" stroke="#009" stroke-width="5" /><circle cx="1229.0" cy="2285.0" fill="#009" r="16" stroke="#009" stroke-width="5" /><circle cx="1021.0" cy="2413.0" fill="#009" r="16" stroke="#009" stroke-width="5" /><circle cx="1085.0" cy="2173.0" fill="#009" r="16" stroke="#009" stroke-width="5" /><circle cx="1309.0" cy="2077.0" fill="#009" r="16" stroke="#009" stroke-width="5" /><circle cx="1117.0" cy="1997.0" fill="#009" r="16" stroke="#009" stroke-width="5" /><circle cx="4093.0" cy="2141.0" fill="#009" r="16" stroke="#009" stroke-width="5" /><circle cx="4253.0" cy="2141.0" fill="#009" r="16" stroke="#009" stroke-width="5" /><circle cx="4317.0" cy="1901.0" fill="#009" r="16" stroke="#009" stroke-width="5" /><circle cx="4077.0" cy="1997.0" fill="#009" r="16" stroke="#009" stroke-width="5" /><circle cx="4061.0" cy="1805.0" fill="#009" r="16" stroke="#009" stroke-width="5" /><circle cx="4173.0" cy="1725.0" fill="#009" r="16" stroke="#009" stroke-width="5" /><circle cx="4365.0" cy="1725.0" fill="#009" r="16" stroke="#009" stroke-width="5" /><circle cx="4205.0" cy="1485.0" fill="#009" r="16" stroke="#009" stroke-width="5" /><circle cx="4061.0" cy="1597.0" fill="#009" r="16" stroke="#009" stroke-width="5" /><circle cx="2189.0" cy="3117.0" fill="#009" r="16" stroke="#009" stroke-width="5" /><circle cx="1965.0" cy="2957.0" fill="#009" r="16" stroke="#009" stroke-width="5" /><circle cx="1997.0" cy="2813.0" fill="#009" r="16" stroke="#009" stroke-width="5" /><circle cx="2237.0" cy="2733.0" fill="#009" r="16" stroke="#009" stroke-width="5" /><circle cx="1997.0" cy="2605.0" fill="#009" r="16" stroke="#009" stroke-width="5" /><circle cx="2253.0" cy="2909.0" fill="#009" r="16" stroke="#009" stroke-width="5" /><circle cx="2541.0" cy="2925.0" fill="#009" r="16" stroke="#009" stroke-width="5" /><circle cx="2509.0" cy="2493.0" fill="#009" r="16" stroke="#009" stroke-width="5" /><circle cx="2317.0" cy="2541.0" fill="#009" r="16" stroke="#009" stroke-width="5" /><circle cx="4557.0" cy="1069.0" fill="#009" r="16" stroke="#009" stroke-width="5" /><circle cx="5357.0" cy="2957.0" fill="#009" r="16" stroke="#009" stroke-width="5" /><circle cx="6493.0" cy="1389.0" fill="#009" r="16" stroke="#009" stroke-width="5" /><circle cx="3293.0" cy="2189.0" fill="#009" r="16" stroke="#009" stroke-width="5" /><circle cx="3293.0" cy="2541.0" fill="#009" r="16" stroke="#009" stroke-width="5" /><circle cx="317.0" cy="1085.0" fill="#009" r="16" stroke="#009" stroke-width="5" /><circle cx="6173.0" cy="3037.0" fill="#009" r="16" stroke="#009" stroke-width="5" /><circle cx="5853.0" cy="845.0" fill="#009" r="16" stroke="#009" stroke-width="5" /><circle cx="5757.0" cy="237.0" fill="#009" r="16" stroke="#009" stroke-width="5" /><circle cx="4829.0" cy="2125.0" fill="#009" r="16" stroke="#009" stroke-width="5" /><ellipse cx="5485.0" cy="3693.0" fill="#900" rx="12" ry="24" stroke="#900" stroke-width="5" /><ellipse cx="5293.0" cy="3629.0" fill="#900" rx="12" ry="24" stroke="#900" stroke-width="5" /><ellipse cx="5181.0" cy="3421.0" fill="#900" rx="12" ry="24" stroke="#900" stroke-width="5" /><ellipse cx="5133.0" cy="3213.0" fill="#900" rx="12" ry="24" stroke="#900" stroke-width="5" /><ellipse cx="5117.0" cy="3021.0" fill="#900" rx="12" ry="24" stroke="#900" stroke-width="5" /><ellipse cx="5101.0" cy="2829.0" fill="#900" rx="12" ry="24" stroke="#900" stroke-width="5" /><ellipse cx="5101.0" cy="2685.0" fill="#900" rx="12" ry="24" stroke="#900" stroke-width="5" /><ellipse cx="5165.0" cy="2573.0" fill="#900" rx="12" ry="24" stroke="#900" stroke-width="5" /><ellipse cx="5341.0" cy="2445.0" fill="#900" rx="12" ry="24" stroke="#900" stroke-width="5" /><ellipse cx="5469.0" cy="2333.0" fill="#900" rx="12" ry="24" stroke="#900" stroke-width="5" /><ellipse cx="5677.0" cy="2237.0" fill="#900" rx="12" ry="24" stroke="#900" stroke-width="5" /><ellipse cx="5853.0" cy="2205.0" fill="#900" rx="12" ry="24" stroke="#900" stroke-width="5" /><ellipse cx="269.0" cy="2141.0" fill="#900" rx="12" ry="24" stroke="#900" stroke-width="5" /><ellipse cx="1421.0" cy="285.0" fill="#900" rx="12" ry="24" stroke="#900" stroke-width="5" /><ellipse cx="653.0" cy="573.0" fill="#900" rx="12" ry="24" stroke="#900" stroke-width="5" /><ellipse cx="3197.0" cy="173.0" fill="#900" rx="12" ry="24" stroke="#900" stroke-width="5" /><rect fill="#090" height="24" stroke="#090" stroke-width="5" transform="rotate(0,5085.0,1341.0)" width="24" x="5073.0" y="1329.0" /><rect fill="#090" height="24" stroke="#090" stroke-width="5" transform="rotate(0,3485.0,1245.0)" width="24" x="3473.0" y="1233.0" /><rect fill="#090" height="24" stroke="#090" stroke-width="5" transform="rotate(0,4045.0,1245.0)" width="24" x="4033.0" y="1233.0" /><rect fill="#090" height="24" stroke="#090" stroke-width="5" transform="rotate(0,3293.0,1453.0)" width="24" x="3281.0" y="1441.0" /><rect fill="#090" height="24" stroke="#090" stroke-width="5" transform="rotate(0,3597.0,1741.0)" width="24" x="3585.0" y="1729.0" /><rect fill="#090" height="24" stroke="#090" stroke-width="5" transform="rotate(0,2573.0,2093.0)" width="24" x="2561.0" y="2081.0" /><rect fill="#090" height="24" stroke="#090" stroke-width="5" transform="rotate(0,2717.0,2093.0)" width="24" x="2705.0" y="2081.0" /><rect fill="#090" height="24" stroke="#090" stroke-width="5" transform="rotate(0,2893.0,2093.0)" width="24" x="2881.0" y="2081.0" /><rect fill="#090" height="24" stroke="#090" stroke-width="5" transform="rotate(0,3037.0,2077.0)" width="24" x="3025.0" y="2065.0" /><rect fill="#090" height="24" stroke="#090" stroke-width="5" transform="rotate(0,3181.0,2029.0)" width="24" x="3169.0" y="2017.0" /><rect fill="#090" height="24" stroke="#090" stroke-width="5" transform="rotate(0,4973.0,669.0)" width="24" x="4961.0" y="657.0" /><rect fill="#090" height="24" stroke="#090" stroke-width="5" transform="rotate(0,2877.0,3805.0)" width="24" x="2865.0" y="3793.0" /><rect fill="#090" height="24" stroke="#090" stroke-width="5" transform="rotate(0,2029.0,3789.0)" width="24" x="2017.0" y="3777.0" /><rect fill="#090" height="24" stroke="#090" stroke-width="5" transform="rotate(0,1005.0,3565.0)" width="24" x="993.0" y="3553.0" /><rect fill="#090" height="24" stroke="#090" stroke-width="5" transform="rotate(0,717.0,3325.0)" width="24" x="705.0" y="3313.0" /><rect fill="#090" height="24" stroke="#090" stroke-width="5" transform="rotate(0,3933.0,157.0)" width="24" x="3921.0" y="145.0" /><rect fill="#090" height="24" stroke="#090" stroke-width="5" transform="rotate(0,3085.0,2669.0)" width="24" x="3073.0" y="2657.0" /><rect fill="#090" height="24" stroke="#090" stroke-width="5" transform="rotate(0,3293.0,2701.0)" width="24" x="3281.0" y="2689.0" /><rect fill="#090" height="24" stroke="#090" stroke-width="5" transform="rotate(0,3469.0,2733.0)" width="24" x="3457.0" y="2721.0" /><rect fill="#090" height="24" stroke="#090" stroke-width="5" transform="rotate(0,3997.0,2605.0)" width="24" x="3985.0" y="2593.0" /><rect fill="#090" height="24" stroke="#090" stroke-width="5" transform="rotate(0,4045.0,2333.0)" width="24" x="4033.0" y="2321.0" /><rect fill="#090" height="24" stroke="#090" stroke-width="5" transform="rotate(0,3933.0,2029.0)" width="24" x="3921.0" y="2017.0" /><rect fill="#090" height="24" stroke="#090" stroke-width="5" transform="rotate(0,3549.0,2093.0)" width="24" x="3537.0" y="2081.0" /><rect fill="#090" height="24" stroke="#090" stroke-width="5" transform="rotate(0,3325.0,2013.0)" width="24" x="3313.0" y="2001.0" /><rect fill="#090" height="24" stroke="#090" stroke-width="5" transform="rotate(0,4269.0,461.0)" width="24" x="4257.0" y="449.0" /><rect fill="#090" height="24" stroke="#090" stroke-width="5" transform="rotate(0,4397.0,461.0)" width="24" x="4385.0" y="449.0" /><rect fill="#090" height="24" stroke="#090" stroke-width="5" transform="rotate(0,4557.0,461.0)" width="24" x="4545.0" y="449.0" /><rect fill="#090" height="24" stroke="#090" stroke-width="5" transform="rotate(0,4845.0,461.0)" width="24" x="4833.0" y="449.0" /><rect fill="#090" height="24" stroke="#090" stroke-width="5" transform="rotate(90,4669.0,445.0)" width="24" x="4657.0" y="433.0" /><circle cx="3119.0" cy="4379.0" fill="#900" r="16" stroke="#900" stroke-width="5" /><circle cx="3739.0" cy="4189.0" fill="#900" r="16" stroke="#900" stroke-width="5" /><rect fill="#900" height="48" stroke="#900" stroke-width="5" transform="rotate(270,1839.0,2329.0)" width="32" x="1823.0" y="2305.0" /><rect fill="#900" height="48" stroke="#900" stroke-width="5" transform="rotate(0,3199.0,4229.0)" width="32" x="3183.0" y="4205.0" /><circle cx="3329.0" cy="4359.0" fill="#900" r="16" stroke="#900" stroke-width="5" /><rect fill="#900" height="48" stroke="#900" stroke-width="5" transform="rotate(0,1949.0,959.0)" width="32" x="1933.0" y="935.0" /><rect fill="#900" height="48" stroke="#900" stroke-width="5" transform="rotate(0,6819.0,1119.0)" width="32" x="6803.0" y="1095.0" /><rect fill="#900" height="48" stroke="#900" stroke-width="5" transform="rotate(0,2229.0,3399.0)" width="32" x="2213.0" y="3375.0" /><rect fill="#900" height="48" stroke="#900" stroke-width="5" transform="rotate(0,4949.0,3319.0)" width="32" x="4933.0" y="3295.0" /><rect fill="#900" height="48" stroke="#900" stroke-width="5" transform="rotate(0,6699.0,2779.0)" width="32" x="6683.0" y="2755.0" /><rect fill="#900" height="48" stroke="#900" stroke-width="5" transform="rotate(0,2099.0,2079.0)" width="32" x="2083.0" y="2055.0" /><rect fill="#900" height="48" stroke="#900" stroke-width="5" transform="rotate(0,399.0,1449.0)" width="32" x="383.0" y="1425.0" /><rect fill="#900" height="48" stroke="#900" stroke-width="5" transform="rotate(0,339.0,3049.0)" width="32" x="323.0" y="3025.0" /><rect fill="#900" height="48" stroke="#900" stroke-width="5" transform="rotate(0,1029.0,4149.0)" width="32" x="1013.0" y="4125.0" /><rect fill="#900" height="48" stroke="#900" stroke-width="5" transform="rotate(0,539.0,3709.0)" width="32" x="523.0" y="3685.0" /><rect fill="#900" height="48" stroke="#900" stroke-width="5" transform="rotate(0,2279.0,4439.0)" width="32" x="2263.0" y="4415.0" /><rect fill="#900" height="48" stroke="#900" stroke-width="5" transform="rotate(0,2199.0,1229.0)" width="32" x="2183.0" y="1205.0" /><rect fill="#900" height="48" stroke="#900" stroke-width="5" transform="rotate(0,2349.0,159.0)" width="32" x="2333.0" y="135.0" /><rect fill="#090" height="24" stroke="#090" stroke-width="5" transform="rotate(0,1389.0,889.0)" width="24" x="1377.0" y="877.0" /><rect fill="#090" height="24" stroke="#090" stroke-width="5" transform="rotate(0,1199.0,719.0)" width="24" x="1187.0" y="707.0" /><rect fill="#090" height="24" stroke="#090" stroke-width="5" transform="rotate(0,1379.0,649.0)" width="24" x="1367.0" y="637.0" /><rect fill="#090" height="24" stroke="#090" stroke-width="5" transform="rotate(0,1259.0,879.0)" width="24" x="1247.0" y="867.0" /><rect fill="#090" height="24" stroke="#090" stroke-width="5" transform="rotate(0,1509.0,769.0)" width="24" x="1497.0" y="757.0" /><rect fill="#090" height="24" stroke="#090" stroke-width="5" transform="rotate(0,1519.0,629.0)" width="24" x="1507.0" y="617.0" /><rect fill="#090" height="24" stroke="#090" stroke-width="5" transform="rotate(0,1229.0,589.0)" width="24" x="1217.0" y="577.0" /><rect fill="#090" height="24" stroke="#090" stroke-width="5" transform="rotate(0,1329.0,769.0)" width="24" x="1317.0" y="757.0" /><rect fill="#090" height="24" stroke="#090" stroke-width="5" transform="rotate(0,1079.0,689.0)" width="24" x="1067.0" y="677.0" /><rect fill="#090" height="24" stroke="#090" stroke-width="5" transform="rotate(0,1109.0,549.0)" width="24" x="1097.0" y="537.0" /><rect fill="#900" height="48" stroke="#900" stroke-width="5" transform="rotate(0,459.0,2119.0)" width="32" x="443.0" y="2095.0" /><rect fill="#900" height="48" stroke="#900" stroke-width="5" transform="rotate(0,2609.0,479.0)" width="32" x="2593.0" y="455.0" /><rect fill="#900" height="48" stroke="#900" stroke-width="5" transform="rotate(0,1369.0,3629.0)" width="32" x="1353.0" y="3605.0" /><rect fill="#900" height="48" stroke="#900" stroke-width="5" transform="rotate(0,1399.0,3329.0)" width="32" x="1383.0" y="3305.0" /><rect fill="#900" height="48" stroke="#900" stroke-width="5" transform="rotate(0,1379.0,3479.0)" width="32" x="1363.0" y="3455.0" /><rect fill="#900" height="48" stroke="#900" stroke-width="5" transform="rotate(0,2059.0,4379.0)" width="32" x="2043.0" y="4355.0" /><rect fill="#900" height="48" stroke="#900" stroke-width="5" transform="rotate(0,2059.0,4259.0)" width="32" x="2043.0" y="4235.0" /><rect fill="#900" height="48" stroke="#900" stroke-width="5" transform="rotate(0,2029.0,4119.0)" width="32" x="2013.0" y="4095.0" /><rect fill="#900" height="48" stroke="#900" stroke-width="5" transform="rotate(0,1579.0,4069.0)" width="32" x="1563.0" y="4045.0" /><rect fill="#900" height="48" stroke="#900" stroke-width="5" transform="rotate(0,5099.0,4099.0)" width="32" x="5083.0" y="4075.0" /><rect fill="#900" height="48" stroke="#900" stroke-width="5" transform="rotate(180,6589.0,2949.0)" width="32" x="6573.0" y="2925.0" /><rect fill="#900" height="48" stroke="#900" stroke-width="5" transform="rotate(180,6549.0,2699.0)" width="32" x="6533.0" y="2675.0" /><rect fill="#900" height="48" stroke="#900" stroke-width="5" transform="rotate(180,5779.0,2069.0)" width="32" x="5763.0" y="2045.0" /><rect fill="#900" height="48" stroke="#900" stroke-width="5" transform="rotate(0,6239.0,579.0)" width="32" x="6223.0" y="555.0" /><rect fill="#900" height="48" stroke="#900" stroke-width="5" transform="rotate(0,6589.0,1229.0)" width="32" x="6573.0" y="1205.0" /><rect fill="#900" height="48" stroke="#900" stroke-width="5" transform="rotate(135,5329.0,1109.0)" width="32" x="5313.0" y="1085.0" /><rect fill="#090" height="24" stroke="#090" stroke-width="5" transform="rotate(90,3949.0,369.0)" width="24" x="3937.0" y="357.0" /><rect fill="#900" height="48" stroke="#900" stroke-width="5" transform="rotate(0,349.0,869.0)" width="32" x="333.0" y="845.0" /><rect fill="#900" height="48" stroke="#900" stroke-width="5" transform="rotate(90,4139.0,139.0)" width="32" x="4123.0" y="115.0" /><rect fill="#900" height="48" stroke="#900" stroke-width="5" transform="rotate(0,2919.0,2529.0)" width="32" x="2903.0" y="2505.0" /><rect fill="#900" height="48" stroke="#900" stroke-width="5" transform="rotate(0,2899.0,2389.0)" width="32" x="2883.0" y="2365.0" /><rect fill="#900" height="48" stroke="#900" stroke-width="5" transform="rotate(0,2899.0,2239.0)" width="32" x="2883.0" y="2215.0" /><rect fill="#900" height="48" stroke="#900" stroke-width="5" transform="rotate(0,3039.0,2179.0)" width="32" x="3023.0" y="2155.0" /><rect fill="#900" height="48" stroke="#900" stroke-width="5" transform="rotate(0,4829.0,1989.0)" width="32" x="4813.0" y="1965.0" /><rect fill="#900" height="48" stroke="#900" stroke-width="5" transform="rotate(0,4809.0,1779.0)" width="32" x="4793.0" y="1755.0" /><rect fill="#900" height="48" stroke="#900" stroke-width="5" transform="rotate(0,4829.0,1629.0)" width="32" x="4813.0" y="1605.0" /><rect fill="#900" height="48" stroke="#900" stroke-width="5" transform="rotate(0,4999.0,1519.0)" width="32" x="4983.0" y="1495.0" /><rect fill="#900" height="48" stroke="#900" stroke-width="5" transform="rotate(0,3909.0,1349.0)" width="32" x="3893.0" y="1325.0" /><rect fill="#900" height="48" stroke="#900" stroke-width="5" transform="rotate(0,3649.0,1179.0)" width="32" x="3633.0" y="1155.0" /><rect fill="#900" height="48" stroke="#900" stroke-width="5" transform="rotate(0,5729.0,3589.0)" width="32" x="5713.0" y="3565.0" /><rect fill="#900" height="48" stroke="#900" stroke-width="5" transform="rotate(0,5719.0,3499.0)" width="32" x="5703.0" y="3475.0" /><rect fill="#900" height="48" stroke="#900" stroke-width="5" transform="rotate(0,5729.0,3359.0)" width="32" x="5713.0" y="3335.0" /><rect fill="#900" height="48" stroke="#900" stroke-width="5" transform="rotate(0,5719.0,3229.0)" width="32" x="5703.0" y="3205.0" /><rect fill="#900" height="48" stroke="#900" stroke-width="5" transform="rotate(0,5719.0,3119.0)" width="32" x="5703.0" y="3095.0" /><rect fill="#900" height="48" stroke="#900" stroke-width="5" transform="rotate(0,5749.0,2979.0)" width="32" x="5733.0" y="2955.0" /><rect fill="#900" height="48" stroke="#900" stroke-width="5" transform="rotate(0,5759.0,2799.0)" width="32" x="5743.0" y="2775.0" /><rect fill="#900" height="48" stroke="#900" stroke-width="5" transform="rotate(0,5759.0,2699.0)" width="32" x="5743.0" y="2675.0" /><rect fill="#900" height="48" stroke="#900" stroke-width="5" transform="rotate(0,5759.0,2529.0)" width="32" x="5743.0" y="2505.0" /><rect fill="#900" height="48" stroke="#900" stroke-width="5" transform="rotate(0,5769.0,2379.0)" width="32" x="5753.0" y="2355.0" /><rect fill="#900" height="48" stroke="#900" stroke-width="5" transform="rotate(45,5879.0,2299.0)" width="32" x="5863.0" y="2275.0" /><circle cx="109.0" cy="3479.0" fill="#009" r="16" stroke="#009" stroke-width="5" /><circle cx="4821.0" cy="4645.0" fill="#009" r="16" stroke="#009" stroke-width="5" /><circle cx="6069.0" cy="349.0" fill="#009" r="16" stroke="#009" stroke-width="5" /><circle cx="1301.0" cy="701.0" fill="#009" r="16" stroke="#009" stroke-width="5" /><circle cx="3205.0" cy="2389.0" fill="#009" r="16" stroke="#009" stroke-width="5" /><circle cx="6821.0" cy="2837.0" fill="#009" r="16" stroke="#009" stroke-width="5" /></svg>